<?xml version="1.0" encoding="utf-8" standalone="no"?>
<!DOCTYPE svg PUBLIC "-//W3C//DTD SVG 1.1//EN"
  "http://www.w3.org/Graphics/SVG/1.1/DTD/svg11.dtd">
<!-- Created with matplotlib (https://matplotlib.org/) -->
<svg height="345.6pt" version="1.1" viewBox="0 0 460.8 345.6" width="460.8pt" xmlns="http://www.w3.org/2000/svg" xmlns:xlink="http://www.w3.org/1999/xlink">
 <defs>
  <style type="text/css">
*{stroke-linecap:butt;stroke-linejoin:round;}
  </style>
 </defs>
 <g id="figure_1">
  <g id="patch_1">
   <path d="M 0 345.6 
L 460.8 345.6 
L 460.8 0 
L 0 0 
z
" style="fill:#ffffff;"/>
  </g>
  <g id="axes_1">
   <g id="patch_2">
    <path d="M 57.6 307.584 
L 414.72 307.584 
L 414.72 41.472 
L 57.6 41.472 
z
" style="fill:#ffffff;"/>
   </g>
   <g id="patch_3">
    <path clip-path="url(#pe3b85a0ded)" d="M 73.832727 307.584 
L 77.079273 307.584 
L 77.079273 307.439415 
L 73.832727 307.439415 
z
" style="fill:#1f77b4;"/>
   </g>
   <g id="patch_4">
    <path clip-path="url(#pe3b85a0ded)" d="M 77.079273 307.584 
L 80.325818 307.584 
L 80.325818 307.511708 
L 77.079273 307.511708 
z
" style="fill:#1f77b4;"/>
   </g>
   <g id="patch_5">
    <path clip-path="url(#pe3b85a0ded)" d="M 80.325818 307.584 
L 83.572364 307.584 
L 83.572364 307.475562 
L 80.325818 307.475562 
z
" style="fill:#1f77b4;"/>
   </g>
   <g id="patch_6">
    <path clip-path="url(#pe3b85a0ded)" d="M 83.572364 307.584 
L 86.818909 307.584 
L 86.818909 307.294831 
L 83.572364 307.294831 
z
" style="fill:#1f77b4;"/>
   </g>
   <g id="patch_7">
    <path clip-path="url(#pe3b85a0ded)" d="M 86.818909 307.584 
L 90.065455 307.584 
L 90.065455 307.077954 
L 86.818909 307.077954 
z
" style="fill:#1f77b4;"/>
   </g>
   <g id="patch_8">
    <path clip-path="url(#pe3b85a0ded)" d="M 90.065455 307.584 
L 93.312 307.584 
L 93.312 306.933369 
L 90.065455 306.933369 
z
" style="fill:#1f77b4;"/>
   </g>
   <g id="patch_9">
    <path clip-path="url(#pe3b85a0ded)" d="M 93.312 307.584 
L 96.558545 307.584 
L 96.558545 306.752639 
L 93.312 306.752639 
z
" style="fill:#1f77b4;"/>
   </g>
   <g id="patch_10">
    <path clip-path="url(#pe3b85a0ded)" d="M 96.558545 307.584 
L 99.805091 307.584 
L 99.805091 306.608054 
L 96.558545 306.608054 
z
" style="fill:#1f77b4;"/>
   </g>
   <g id="patch_11">
    <path clip-path="url(#pe3b85a0ded)" d="M 99.805091 307.584 
L 103.051636 307.584 
L 103.051636 305.559816 
L 99.805091 305.559816 
z
" style="fill:#1f77b4;"/>
   </g>
   <g id="patch_12">
    <path clip-path="url(#pe3b85a0ded)" d="M 103.051636 307.584 
L 106.298182 307.584 
L 106.298182 304.728455 
L 103.051636 304.728455 
z
" style="fill:#1f77b4;"/>
   </g>
   <g id="patch_13">
    <path clip-path="url(#pe3b85a0ded)" d="M 106.298182 307.584 
L 109.544727 307.584 
L 109.544727 303.499486 
L 106.298182 303.499486 
z
" style="fill:#1f77b4;"/>
   </g>
   <g id="patch_14">
    <path clip-path="url(#pe3b85a0ded)" d="M 109.544727 307.584 
L 112.791273 307.584 
L 112.791273 301.366863 
L 109.544727 301.366863 
z
" style="fill:#1f77b4;"/>
   </g>
   <g id="patch_15">
    <path clip-path="url(#pe3b85a0ded)" d="M 112.791273 307.584 
L 116.037818 307.584 
L 116.037818 299.270387 
L 112.791273 299.270387 
z
" style="fill:#1f77b4;"/>
   </g>
   <g id="patch_16">
    <path clip-path="url(#pe3b85a0ded)" d="M 116.037818 307.584 
L 119.284364 307.584 
L 119.284364 296.920888 
L 116.037818 296.920888 
z
" style="fill:#1f77b4;"/>
   </g>
   <g id="patch_17">
    <path clip-path="url(#pe3b85a0ded)" d="M 119.284364 307.584 
L 122.530909 307.584 
L 122.530909 293.161689 
L 119.284364 293.161689 
z
" style="fill:#1f77b4;"/>
   </g>
   <g id="patch_18">
    <path clip-path="url(#pe3b85a0ded)" d="M 122.530909 307.584 
L 125.777455 307.584 
L 125.777455 290.269997 
L 122.530909 290.269997 
z
" style="fill:#1f77b4;"/>
   </g>
   <g id="patch_19">
    <path clip-path="url(#pe3b85a0ded)" d="M 125.777455 307.584 
L 129.024 307.584 
L 129.024 286.040898 
L 125.777455 286.040898 
z
" style="fill:#1f77b4;"/>
   </g>
   <g id="patch_20">
    <path clip-path="url(#pe3b85a0ded)" d="M 129.024 307.584 
L 132.270545 307.584 
L 132.270545 281.594923 
L 129.024 281.594923 
z
" style="fill:#1f77b4;"/>
   </g>
   <g id="patch_21">
    <path clip-path="url(#pe3b85a0ded)" d="M 132.270545 307.584 
L 135.517091 307.584 
L 135.517091 277.727285 
L 132.270545 277.727285 
z
" style="fill:#1f77b4;"/>
   </g>
   <g id="patch_22">
    <path clip-path="url(#pe3b85a0ded)" d="M 135.517091 307.584 
L 138.763636 307.584 
L 138.763636 270.678787 
L 135.517091 270.678787 
z
" style="fill:#1f77b4;"/>
   </g>
   <g id="patch_23">
    <path clip-path="url(#pe3b85a0ded)" d="M 138.763636 307.584 
L 142.010182 307.584 
L 142.010182 265.87135 
L 138.763636 265.87135 
z
" style="fill:#1f77b4;"/>
   </g>
   <g id="patch_24">
    <path clip-path="url(#pe3b85a0ded)" d="M 142.010182 307.584 
L 145.256727 307.584 
L 145.256727 263.919458 
L 142.010182 263.919458 
z
" style="fill:#1f77b4;"/>
   </g>
   <g id="patch_25">
    <path clip-path="url(#pe3b85a0ded)" d="M 145.256727 307.584 
L 148.503273 307.584 
L 148.503273 263.702581 
L 145.256727 263.702581 
z
" style="fill:#1f77b4;"/>
   </g>
   <g id="patch_26">
    <path clip-path="url(#pe3b85a0ded)" d="M 148.503273 307.584 
L 151.749818 307.584 
L 151.749818 260.594013 
L 148.503273 260.594013 
z
" style="fill:#1f77b4;"/>
   </g>
   <g id="patch_27">
    <path clip-path="url(#pe3b85a0ded)" d="M 151.749818 307.584 
L 154.996364 307.584 
L 154.996364 261.497667 
L 151.749818 261.497667 
z
" style="fill:#1f77b4;"/>
   </g>
   <g id="patch_28">
    <path clip-path="url(#pe3b85a0ded)" d="M 154.996364 307.584 
L 158.242909 307.584 
L 158.242909 259.40119 
L 154.996364 259.40119 
z
" style="fill:#1f77b4;"/>
   </g>
   <g id="patch_29">
    <path clip-path="url(#pe3b85a0ded)" d="M 158.242909 307.584 
L 161.489455 307.584 
L 161.489455 261.714544 
L 158.242909 261.714544 
z
" style="fill:#1f77b4;"/>
   </g>
   <g id="patch_30">
    <path clip-path="url(#pe3b85a0ded)" d="M 161.489455 307.584 
L 164.736 307.584 
L 164.736 265.329158 
L 161.489455 265.329158 
z
" style="fill:#1f77b4;"/>
   </g>
   <g id="patch_31">
    <path clip-path="url(#pe3b85a0ded)" d="M 164.736 307.584 
L 167.982545 307.584 
L 167.982545 266.847296 
L 164.736 266.847296 
z
" style="fill:#1f77b4;"/>
   </g>
   <g id="patch_32">
    <path clip-path="url(#pe3b85a0ded)" d="M 167.982545 307.584 
L 171.229091 307.584 
L 171.229091 268.799188 
L 167.982545 268.799188 
z
" style="fill:#1f77b4;"/>
   </g>
   <g id="patch_33">
    <path clip-path="url(#pe3b85a0ded)" d="M 171.229091 307.584 
L 174.475636 307.584 
L 174.475636 267.678657 
L 171.229091 267.678657 
z
" style="fill:#1f77b4;"/>
   </g>
   <g id="patch_34">
    <path clip-path="url(#pe3b85a0ded)" d="M 174.475636 307.584 
L 177.722182 307.584 
L 177.722182 267.28105 
L 174.475636 267.28105 
z
" style="fill:#1f77b4;"/>
   </g>
   <g id="patch_35">
    <path clip-path="url(#pe3b85a0ded)" d="M 177.722182 307.584 
L 180.968727 307.584 
L 180.968727 263.630289 
L 177.722182 263.630289 
z
" style="fill:#1f77b4;"/>
   </g>
   <g id="patch_36">
    <path clip-path="url(#pe3b85a0ded)" d="M 180.968727 307.584 
L 184.215273 307.584 
L 184.215273 264.136335 
L 180.968727 264.136335 
z
" style="fill:#1f77b4;"/>
   </g>
   <g id="patch_37">
    <path clip-path="url(#pe3b85a0ded)" d="M 184.215273 307.584 
L 187.461818 307.584 
L 187.461818 254.593753 
L 184.215273 254.593753 
z
" style="fill:#1f77b4;"/>
   </g>
   <g id="patch_38">
    <path clip-path="url(#pe3b85a0ded)" d="M 187.461818 307.584 
L 190.708364 307.584 
L 190.708364 242.954695 
L 187.461818 242.954695 
z
" style="fill:#1f77b4;"/>
   </g>
   <g id="patch_39">
    <path clip-path="url(#pe3b85a0ded)" d="M 190.708364 307.584 
L 193.954909 307.584 
L 193.954909 236.050782 
L 190.708364 236.050782 
z
" style="fill:#1f77b4;"/>
   </g>
   <g id="patch_40">
    <path clip-path="url(#pe3b85a0ded)" d="M 193.954909 307.584 
L 197.201455 307.584 
L 197.201455 218.953656 
L 193.954909 218.953656 
z
" style="fill:#1f77b4;"/>
   </g>
   <g id="patch_41">
    <path clip-path="url(#pe3b85a0ded)" d="M 197.201455 307.584 
L 200.448 307.584 
L 200.448 196.759923 
L 197.201455 196.759923 
z
" style="fill:#1f77b4;"/>
   </g>
   <g id="patch_42">
    <path clip-path="url(#pe3b85a0ded)" d="M 200.448 307.584 
L 203.694545 307.584 
L 203.694545 166.722478 
L 200.448 166.722478 
z
" style="fill:#1f77b4;"/>
   </g>
   <g id="patch_43">
    <path clip-path="url(#pe3b85a0ded)" d="M 203.694545 307.584 
L 206.941091 307.584 
L 206.941091 141.962369 
L 203.694545 141.962369 
z
" style="fill:#1f77b4;"/>
   </g>
   <g id="patch_44">
    <path clip-path="url(#pe3b85a0ded)" d="M 206.941091 307.584 
L 210.187636 307.584 
L 210.187636 122.371159 
L 206.941091 122.371159 
z
" style="fill:#1f77b4;"/>
   </g>
   <g id="patch_45">
    <path clip-path="url(#pe3b85a0ded)" d="M 210.187636 307.584 
L 213.434182 307.584 
L 213.434182 82.971863 
L 210.187636 82.971863 
z
" style="fill:#1f77b4;"/>
   </g>
   <g id="patch_46">
    <path clip-path="url(#pe3b85a0ded)" d="M 213.434182 307.584 
L 216.680727 307.584 
L 216.680727 58.500923 
L 213.434182 58.500923 
z
" style="fill:#1f77b4;"/>
   </g>
   <g id="patch_47">
    <path clip-path="url(#pe3b85a0ded)" d="M 216.680727 307.584 
L 219.927273 307.584 
L 219.927273 99.237627 
L 216.680727 99.237627 
z
" style="fill:#1f77b4;"/>
   </g>
   <g id="patch_48">
    <path clip-path="url(#pe3b85a0ded)" d="M 219.927273 307.584 
L 223.173818 307.584 
L 223.173818 162.20421 
L 219.927273 162.20421 
z
" style="fill:#1f77b4;"/>
   </g>
   <g id="patch_49">
    <path clip-path="url(#pe3b85a0ded)" d="M 223.173818 307.584 
L 226.420364 307.584 
L 226.420364 196.543046 
L 223.173818 196.543046 
z
" style="fill:#1f77b4;"/>
   </g>
   <g id="patch_50">
    <path clip-path="url(#pe3b85a0ded)" d="M 226.420364 307.584 
L 229.666909 307.584 
L 229.666909 218.483756 
L 226.420364 218.483756 
z
" style="fill:#1f77b4;"/>
   </g>
   <g id="patch_51">
    <path clip-path="url(#pe3b85a0ded)" d="M 229.666909 307.584 
L 232.913455 307.584 
L 232.913455 228.351653 
L 229.666909 228.351653 
z
" style="fill:#1f77b4;"/>
   </g>
   <g id="patch_52">
    <path clip-path="url(#pe3b85a0ded)" d="M 232.913455 307.584 
L 236.16 307.584 
L 236.16 234.207328 
L 232.913455 234.207328 
z
" style="fill:#1f77b4;"/>
   </g>
   <g id="patch_53">
    <path clip-path="url(#pe3b85a0ded)" d="M 236.16 307.584 
L 239.406545 307.584 
L 239.406545 240.605196 
L 236.16 240.605196 
z
" style="fill:#1f77b4;"/>
   </g>
   <g id="patch_54">
    <path clip-path="url(#pe3b85a0ded)" d="M 239.406545 307.584 
L 242.653091 307.584 
L 242.653091 238.364135 
L 239.406545 238.364135 
z
" style="fill:#1f77b4;"/>
   </g>
   <g id="patch_55">
    <path clip-path="url(#pe3b85a0ded)" d="M 242.653091 307.584 
L 245.899636 307.584 
L 245.899636 254.123853 
L 242.653091 254.123853 
z
" style="fill:#1f77b4;"/>
   </g>
   <g id="patch_56">
    <path clip-path="url(#pe3b85a0ded)" d="M 245.899636 307.584 
L 249.146182 307.584 
L 249.146182 271.220979 
L 245.899636 271.220979 
z
" style="fill:#1f77b4;"/>
   </g>
   <g id="patch_57">
    <path clip-path="url(#pe3b85a0ded)" d="M 249.146182 307.584 
L 252.392727 307.584 
L 252.392727 271.546295 
L 249.146182 271.546295 
z
" style="fill:#1f77b4;"/>
   </g>
   <g id="patch_58">
    <path clip-path="url(#pe3b85a0ded)" d="M 252.392727 307.584 
L 255.639273 307.584 
L 255.639273 269.955864 
L 252.392727 269.955864 
z
" style="fill:#1f77b4;"/>
   </g>
   <g id="patch_59">
    <path clip-path="url(#pe3b85a0ded)" d="M 255.639273 307.584 
L 258.885818 307.584 
L 258.885818 270.895664 
L 255.639273 270.895664 
z
" style="fill:#1f77b4;"/>
   </g>
   <g id="patch_60">
    <path clip-path="url(#pe3b85a0ded)" d="M 258.885818 307.584 
L 262.132364 307.584 
L 262.132364 268.076265 
L 258.885818 268.076265 
z
" style="fill:#1f77b4;"/>
   </g>
   <g id="patch_61">
    <path clip-path="url(#pe3b85a0ded)" d="M 262.132364 307.584 
L 265.378909 307.584 
L 265.378909 267.389488 
L 262.132364 267.389488 
z
" style="fill:#1f77b4;"/>
   </g>
   <g id="patch_62">
    <path clip-path="url(#pe3b85a0ded)" d="M 265.378909 307.584 
L 268.625455 307.584 
L 268.625455 269.485964 
L 265.378909 269.485964 
z
" style="fill:#1f77b4;"/>
   </g>
   <g id="patch_63">
    <path clip-path="url(#pe3b85a0ded)" d="M 268.625455 307.584 
L 271.872 307.584 
L 271.872 270.317326 
L 268.625455 270.317326 
z
" style="fill:#1f77b4;"/>
   </g>
   <g id="patch_64">
    <path clip-path="url(#pe3b85a0ded)" d="M 271.872 307.584 
L 275.118545 307.584 
L 275.118545 271.510149 
L 271.872 271.510149 
z
" style="fill:#1f77b4;"/>
   </g>
   <g id="patch_65">
    <path clip-path="url(#pe3b85a0ded)" d="M 275.118545 307.584 
L 278.365091 307.584 
L 278.365091 273.787356 
L 275.118545 273.787356 
z
" style="fill:#1f77b4;"/>
   </g>
   <g id="patch_66">
    <path clip-path="url(#pe3b85a0ded)" d="M 278.365091 307.584 
L 281.611636 307.584 
L 281.611636 275.052471 
L 278.365091 275.052471 
z
" style="fill:#1f77b4;"/>
   </g>
   <g id="patch_67">
    <path clip-path="url(#pe3b85a0ded)" d="M 281.611636 307.584 
L 284.858182 307.584 
L 284.858182 277.691139 
L 281.611636 277.691139 
z
" style="fill:#1f77b4;"/>
   </g>
   <g id="patch_68">
    <path clip-path="url(#pe3b85a0ded)" d="M 284.858182 307.584 
L 288.104727 307.584 
L 288.104727 279.534592 
L 284.858182 279.534592 
z
" style="fill:#1f77b4;"/>
   </g>
   <g id="patch_69">
    <path clip-path="url(#pe3b85a0ded)" d="M 288.104727 307.584 
L 291.351273 307.584 
L 291.351273 281.016584 
L 288.104727 281.016584 
z
" style="fill:#1f77b4;"/>
   </g>
   <g id="patch_70">
    <path clip-path="url(#pe3b85a0ded)" d="M 291.351273 307.584 
L 294.597818 307.584 
L 294.597818 285.570998 
L 291.351273 285.570998 
z
" style="fill:#1f77b4;"/>
   </g>
   <g id="patch_71">
    <path clip-path="url(#pe3b85a0ded)" d="M 294.597818 307.584 
L 297.844364 307.584 
L 297.844364 286.40236 
L 294.597818 286.40236 
z
" style="fill:#1f77b4;"/>
   </g>
   <g id="patch_72">
    <path clip-path="url(#pe3b85a0ded)" d="M 297.844364 307.584 
L 301.090909 307.584 
L 301.090909 288.209667 
L 297.844364 288.209667 
z
" style="fill:#1f77b4;"/>
   </g>
   <g id="patch_73">
    <path clip-path="url(#pe3b85a0ded)" d="M 301.090909 307.584 
L 304.337455 307.584 
L 304.337455 291.788135 
L 301.090909 291.788135 
z
" style="fill:#1f77b4;"/>
   </g>
   <g id="patch_74">
    <path clip-path="url(#pe3b85a0ded)" d="M 304.337455 307.584 
L 307.584 307.584 
L 307.584 294.860557 
L 304.337455 294.860557 
z
" style="fill:#1f77b4;"/>
   </g>
   <g id="patch_75">
    <path clip-path="url(#pe3b85a0ded)" d="M 307.584 307.584 
L 310.830545 307.584 
L 310.830545 295.077434 
L 307.584 295.077434 
z
" style="fill:#1f77b4;"/>
   </g>
   <g id="patch_76">
    <path clip-path="url(#pe3b85a0ded)" d="M 310.830545 307.584 
L 314.077091 307.584 
L 314.077091 296.848595 
L 310.830545 296.848595 
z
" style="fill:#1f77b4;"/>
   </g>
   <g id="patch_77">
    <path clip-path="url(#pe3b85a0ded)" d="M 314.077091 307.584 
L 317.323636 307.584 
L 317.323636 298.222149 
L 314.077091 298.222149 
z
" style="fill:#1f77b4;"/>
   </g>
   <g id="patch_78">
    <path clip-path="url(#pe3b85a0ded)" d="M 317.323636 307.584 
L 320.570182 307.584 
L 320.570182 300.210187 
L 317.323636 300.210187 
z
" style="fill:#1f77b4;"/>
   </g>
   <g id="patch_79">
    <path clip-path="url(#pe3b85a0ded)" d="M 320.570182 307.584 
L 323.816727 307.584 
L 323.816727 301.403009 
L 320.570182 301.403009 
z
" style="fill:#1f77b4;"/>
   </g>
   <g id="patch_80">
    <path clip-path="url(#pe3b85a0ded)" d="M 323.816727 307.584 
L 327.063273 307.584 
L 327.063273 302.921147 
L 323.816727 302.921147 
z
" style="fill:#1f77b4;"/>
   </g>
   <g id="patch_81">
    <path clip-path="url(#pe3b85a0ded)" d="M 327.063273 307.584 
L 330.309818 307.584 
L 330.309818 303.210317 
L 327.063273 303.210317 
z
" style="fill:#1f77b4;"/>
   </g>
   <g id="patch_82">
    <path clip-path="url(#pe3b85a0ded)" d="M 330.309818 307.584 
L 333.556364 307.584 
L 333.556364 304.403139 
L 330.309818 304.403139 
z
" style="fill:#1f77b4;"/>
   </g>
   <g id="patch_83">
    <path clip-path="url(#pe3b85a0ded)" d="M 333.556364 307.584 
L 336.802909 307.584 
L 336.802909 305.52367 
L 333.556364 305.52367 
z
" style="fill:#1f77b4;"/>
   </g>
   <g id="patch_84">
    <path clip-path="url(#pe3b85a0ded)" d="M 336.802909 307.584 
L 340.049455 307.584 
L 340.049455 305.957424 
L 336.802909 305.957424 
z
" style="fill:#1f77b4;"/>
   </g>
   <g id="patch_85">
    <path clip-path="url(#pe3b85a0ded)" d="M 340.049455 307.584 
L 343.296 307.584 
L 343.296 306.138154 
L 340.049455 306.138154 
z
" style="fill:#1f77b4;"/>
   </g>
   <g id="patch_86">
    <path clip-path="url(#pe3b85a0ded)" d="M 343.296 307.584 
L 346.542545 307.584 
L 346.542545 306.499616 
L 343.296 306.499616 
z
" style="fill:#1f77b4;"/>
   </g>
   <g id="patch_87">
    <path clip-path="url(#pe3b85a0ded)" d="M 346.542545 307.584 
L 349.789091 307.584 
L 349.789091 306.6442 
L 346.542545 306.6442 
z
" style="fill:#1f77b4;"/>
   </g>
   <g id="patch_88">
    <path clip-path="url(#pe3b85a0ded)" d="M 349.789091 307.584 
L 353.035636 307.584 
L 353.035636 307.005662 
L 349.789091 307.005662 
z
" style="fill:#1f77b4;"/>
   </g>
   <g id="patch_89">
    <path clip-path="url(#pe3b85a0ded)" d="M 353.035636 307.584 
L 356.282182 307.584 
L 356.282182 307.222539 
L 353.035636 307.222539 
z
" style="fill:#1f77b4;"/>
   </g>
   <g id="patch_90">
    <path clip-path="url(#pe3b85a0ded)" d="M 356.282182 307.584 
L 359.528727 307.584 
L 359.528727 307.367123 
L 356.282182 307.367123 
z
" style="fill:#1f77b4;"/>
   </g>
   <g id="patch_91">
    <path clip-path="url(#pe3b85a0ded)" d="M 359.528727 307.584 
L 362.775273 307.584 
L 362.775273 307.294831 
L 359.528727 307.294831 
z
" style="fill:#1f77b4;"/>
   </g>
   <g id="patch_92">
    <path clip-path="url(#pe3b85a0ded)" d="M 362.775273 307.584 
L 366.021818 307.584 
L 366.021818 307.403269 
L 362.775273 307.403269 
z
" style="fill:#1f77b4;"/>
   </g>
   <g id="patch_93">
    <path clip-path="url(#pe3b85a0ded)" d="M 366.021818 307.584 
L 369.268364 307.584 
L 369.268364 307.475562 
L 366.021818 307.475562 
z
" style="fill:#1f77b4;"/>
   </g>
   <g id="patch_94">
    <path clip-path="url(#pe3b85a0ded)" d="M 369.268364 307.584 
L 372.514909 307.584 
L 372.514909 307.547854 
L 369.268364 307.547854 
z
" style="fill:#1f77b4;"/>
   </g>
   <g id="patch_95">
    <path clip-path="url(#pe3b85a0ded)" d="M 372.514909 307.584 
L 375.761455 307.584 
L 375.761455 307.511708 
L 372.514909 307.511708 
z
" style="fill:#1f77b4;"/>
   </g>
   <g id="patch_96">
    <path clip-path="url(#pe3b85a0ded)" d="M 375.761455 307.584 
L 379.008 307.584 
L 379.008 307.584 
L 375.761455 307.584 
z
" style="fill:#1f77b4;"/>
   </g>
   <g id="patch_97">
    <path clip-path="url(#pe3b85a0ded)" d="M 379.008 307.584 
L 382.254545 307.584 
L 382.254545 307.584 
L 379.008 307.584 
z
" style="fill:#1f77b4;"/>
   </g>
   <g id="patch_98">
    <path clip-path="url(#pe3b85a0ded)" d="M 382.254545 307.584 
L 385.501091 307.584 
L 385.501091 307.584 
L 382.254545 307.584 
z
" style="fill:#1f77b4;"/>
   </g>
   <g id="patch_99">
    <path clip-path="url(#pe3b85a0ded)" d="M 385.501091 307.584 
L 388.747636 307.584 
L 388.747636 307.584 
L 385.501091 307.584 
z
" style="fill:#1f77b4;"/>
   </g>
   <g id="patch_100">
    <path clip-path="url(#pe3b85a0ded)" d="M 388.747636 307.584 
L 391.994182 307.584 
L 391.994182 307.584 
L 388.747636 307.584 
z
" style="fill:#1f77b4;"/>
   </g>
   <g id="patch_101">
    <path clip-path="url(#pe3b85a0ded)" d="M 391.994182 307.584 
L 395.240727 307.584 
L 395.240727 307.547854 
L 391.994182 307.547854 
z
" style="fill:#1f77b4;"/>
   </g>
   <g id="patch_102">
    <path clip-path="url(#pe3b85a0ded)" d="M 395.240727 307.584 
L 398.487273 307.584 
L 398.487273 307.547854 
L 395.240727 307.547854 
z
" style="fill:#1f77b4;"/>
   </g>
   <g id="matplotlib.axis_1">
    <g id="xtick_1">
     <g id="line2d_1">
      <defs>
       <path d="M 0 0 
L 0 3.5 
" id="m857e4e64bd" style="stroke:#000000;stroke-width:0.8;"/>
      </defs>
      <g>
       <use style="stroke:#000000;stroke-width:0.8;" x="63.548038" xlink:href="#m857e4e64bd" y="307.584"/>
      </g>
     </g>
     <g id="text_1">
      <!-- −3 -->
      <defs>
       <path d="M 10.59375 35.5 
L 73.1875 35.5 
L 73.1875 27.203125 
L 10.59375 27.203125 
z
" id="DejaVuSans-8722"/>
       <path d="M 40.578125 39.3125 
Q 47.65625 37.796875 51.625 33 
Q 55.609375 28.21875 55.609375 21.1875 
Q 55.609375 10.40625 48.1875 4.484375 
Q 40.765625 -1.421875 27.09375 -1.421875 
Q 22.515625 -1.421875 17.65625 -0.515625 
Q 12.796875 0.390625 7.625 2.203125 
L 7.625 11.71875 
Q 11.71875 9.328125 16.59375 8.109375 
Q 21.484375 6.890625 26.8125 6.890625 
Q 36.078125 6.890625 40.9375 10.546875 
Q 45.796875 14.203125 45.796875 21.1875 
Q 45.796875 27.640625 41.28125 31.265625 
Q 36.765625 34.90625 28.71875 34.90625 
L 20.21875 34.90625 
L 20.21875 43.015625 
L 29.109375 43.015625 
Q 36.375 43.015625 40.234375 45.921875 
Q 44.09375 48.828125 44.09375 54.296875 
Q 44.09375 59.90625 40.109375 62.90625 
Q 36.140625 65.921875 28.71875 65.921875 
Q 24.65625 65.921875 20.015625 65.03125 
Q 15.375 64.15625 9.8125 62.3125 
L 9.8125 71.09375 
Q 15.4375 72.65625 20.34375 73.4375 
Q 25.25 74.21875 29.59375 74.21875 
Q 40.828125 74.21875 47.359375 69.109375 
Q 53.90625 64.015625 53.90625 55.328125 
Q 53.90625 49.265625 50.4375 45.09375 
Q 46.96875 40.921875 40.578125 39.3125 
z
" id="DejaVuSans-51"/>
      </defs>
      <g transform="translate(51.017179 327.501344)scale(0.17 -0.17)">
       <use xlink:href="#DejaVuSans-8722"/>
       <use x="83.789062" xlink:href="#DejaVuSans-51"/>
      </g>
     </g>
    </g>
    <g id="xtick_2">
     <g id="line2d_2">
      <g>
       <use style="stroke:#000000;stroke-width:0.8;" x="123.85783" xlink:href="#m857e4e64bd" y="307.584"/>
      </g>
     </g>
     <g id="text_2">
      <!-- −2 -->
      <defs>
       <path d="M 19.1875 8.296875 
L 53.609375 8.296875 
L 53.609375 0 
L 7.328125 0 
L 7.328125 8.296875 
Q 12.9375 14.109375 22.625 23.890625 
Q 32.328125 33.6875 34.8125 36.53125 
Q 39.546875 41.84375 41.421875 45.53125 
Q 43.3125 49.21875 43.3125 52.78125 
Q 43.3125 58.59375 39.234375 62.25 
Q 35.15625 65.921875 28.609375 65.921875 
Q 23.96875 65.921875 18.8125 64.3125 
Q 13.671875 62.703125 7.8125 59.421875 
L 7.8125 69.390625 
Q 13.765625 71.78125 18.9375 73 
Q 24.125 74.21875 28.421875 74.21875 
Q 39.75 74.21875 46.484375 68.546875 
Q 53.21875 62.890625 53.21875 53.421875 
Q 53.21875 48.921875 51.53125 44.890625 
Q 49.859375 40.875 45.40625 35.40625 
Q 44.1875 33.984375 37.640625 27.21875 
Q 31.109375 20.453125 19.1875 8.296875 
z
" id="DejaVuSans-50"/>
      </defs>
      <g transform="translate(111.326971 327.501344)scale(0.17 -0.17)">
       <use xlink:href="#DejaVuSans-8722"/>
       <use x="83.789062" xlink:href="#DejaVuSans-50"/>
      </g>
     </g>
    </g>
    <g id="xtick_3">
     <g id="line2d_3">
      <g>
       <use style="stroke:#000000;stroke-width:0.8;" x="184.167622" xlink:href="#m857e4e64bd" y="307.584"/>
      </g>
     </g>
     <g id="text_3">
      <!-- −1 -->
      <defs>
       <path d="M 12.40625 8.296875 
L 28.515625 8.296875 
L 28.515625 63.921875 
L 10.984375 60.40625 
L 10.984375 69.390625 
L 28.421875 72.90625 
L 38.28125 72.90625 
L 38.28125 8.296875 
L 54.390625 8.296875 
L 54.390625 0 
L 12.40625 0 
z
" id="DejaVuSans-49"/>
      </defs>
      <g transform="translate(171.636763 327.501344)scale(0.17 -0.17)">
       <use xlink:href="#DejaVuSans-8722"/>
       <use x="83.789062" xlink:href="#DejaVuSans-49"/>
      </g>
     </g>
    </g>
    <g id="xtick_4">
     <g id="line2d_4">
      <g>
       <use style="stroke:#000000;stroke-width:0.8;" x="244.477414" xlink:href="#m857e4e64bd" y="307.584"/>
      </g>
     </g>
     <g id="text_4">
      <!-- 0 -->
      <defs>
       <path d="M 31.78125 66.40625 
Q 24.171875 66.40625 20.328125 58.90625 
Q 16.5 51.421875 16.5 36.375 
Q 16.5 21.390625 20.328125 13.890625 
Q 24.171875 6.390625 31.78125 6.390625 
Q 39.453125 6.390625 43.28125 13.890625 
Q 47.125 21.390625 47.125 36.375 
Q 47.125 51.421875 43.28125 58.90625 
Q 39.453125 66.40625 31.78125 66.40625 
z
M 31.78125 74.21875 
Q 44.046875 74.21875 50.515625 64.515625 
Q 56.984375 54.828125 56.984375 36.375 
Q 56.984375 17.96875 50.515625 8.265625 
Q 44.046875 -1.421875 31.78125 -1.421875 
Q 19.53125 -1.421875 13.0625 8.265625 
Q 6.59375 17.96875 6.59375 36.375 
Q 6.59375 54.828125 13.0625 64.515625 
Q 19.53125 74.21875 31.78125 74.21875 
z
" id="DejaVuSans-48"/>
      </defs>
      <g transform="translate(239.069289 327.501344)scale(0.17 -0.17)">
       <use xlink:href="#DejaVuSans-48"/>
      </g>
     </g>
    </g>
    <g id="xtick_5">
     <g id="line2d_5">
      <g>
       <use style="stroke:#000000;stroke-width:0.8;" x="304.787206" xlink:href="#m857e4e64bd" y="307.584"/>
      </g>
     </g>
     <g id="text_5">
      <!-- 1 -->
      <g transform="translate(299.379081 327.501344)scale(0.17 -0.17)">
       <use xlink:href="#DejaVuSans-49"/>
      </g>
     </g>
    </g>
    <g id="xtick_6">
     <g id="line2d_6">
      <g>
       <use style="stroke:#000000;stroke-width:0.8;" x="365.096998" xlink:href="#m857e4e64bd" y="307.584"/>
      </g>
     </g>
     <g id="text_6">
      <!-- 2 -->
      <g transform="translate(359.688873 327.501344)scale(0.17 -0.17)">
       <use xlink:href="#DejaVuSans-50"/>
      </g>
     </g>
    </g>
    <g id="text_7">
     <!-- Compressed value -->
     <defs>
      <path d="M 64.40625 67.28125 
L 64.40625 56.890625 
Q 59.421875 61.53125 53.78125 63.8125 
Q 48.140625 66.109375 41.796875 66.109375 
Q 29.296875 66.109375 22.65625 58.46875 
Q 16.015625 50.828125 16.015625 36.375 
Q 16.015625 21.96875 22.65625 14.328125 
Q 29.296875 6.6875 41.796875 6.6875 
Q 48.140625 6.6875 53.78125 8.984375 
Q 59.421875 11.28125 64.40625 15.921875 
L 64.40625 5.609375 
Q 59.234375 2.09375 53.4375 0.328125 
Q 47.65625 -1.421875 41.21875 -1.421875 
Q 24.65625 -1.421875 15.125 8.703125 
Q 5.609375 18.84375 5.609375 36.375 
Q 5.609375 53.953125 15.125 64.078125 
Q 24.65625 74.21875 41.21875 74.21875 
Q 47.75 74.21875 53.53125 72.484375 
Q 59.328125 70.75 64.40625 67.28125 
z
" id="DejaVuSans-67"/>
      <path d="M 30.609375 48.390625 
Q 23.390625 48.390625 19.1875 42.75 
Q 14.984375 37.109375 14.984375 27.296875 
Q 14.984375 17.484375 19.15625 11.84375 
Q 23.34375 6.203125 30.609375 6.203125 
Q 37.796875 6.203125 41.984375 11.859375 
Q 46.1875 17.53125 46.1875 27.296875 
Q 46.1875 37.015625 41.984375 42.703125 
Q 37.796875 48.390625 30.609375 48.390625 
z
M 30.609375 56 
Q 42.328125 56 49.015625 48.375 
Q 55.71875 40.765625 55.71875 27.296875 
Q 55.71875 13.875 49.015625 6.21875 
Q 42.328125 -1.421875 30.609375 -1.421875 
Q 18.84375 -1.421875 12.171875 6.21875 
Q 5.515625 13.875 5.515625 27.296875 
Q 5.515625 40.765625 12.171875 48.375 
Q 18.84375 56 30.609375 56 
z
" id="DejaVuSans-111"/>
      <path d="M 52 44.1875 
Q 55.375 50.25 60.0625 53.125 
Q 64.75 56 71.09375 56 
Q 79.640625 56 84.28125 50.015625 
Q 88.921875 44.046875 88.921875 33.015625 
L 88.921875 0 
L 79.890625 0 
L 79.890625 32.71875 
Q 79.890625 40.578125 77.09375 44.375 
Q 74.3125 48.1875 68.609375 48.1875 
Q 61.625 48.1875 57.5625 43.546875 
Q 53.515625 38.921875 53.515625 30.90625 
L 53.515625 0 
L 44.484375 0 
L 44.484375 32.71875 
Q 44.484375 40.625 41.703125 44.40625 
Q 38.921875 48.1875 33.109375 48.1875 
Q 26.21875 48.1875 22.15625 43.53125 
Q 18.109375 38.875 18.109375 30.90625 
L 18.109375 0 
L 9.078125 0 
L 9.078125 54.6875 
L 18.109375 54.6875 
L 18.109375 46.1875 
Q 21.1875 51.21875 25.484375 53.609375 
Q 29.78125 56 35.6875 56 
Q 41.65625 56 45.828125 52.96875 
Q 50 49.953125 52 44.1875 
z
" id="DejaVuSans-109"/>
      <path d="M 18.109375 8.203125 
L 18.109375 -20.796875 
L 9.078125 -20.796875 
L 9.078125 54.6875 
L 18.109375 54.6875 
L 18.109375 46.390625 
Q 20.953125 51.265625 25.265625 53.625 
Q 29.59375 56 35.59375 56 
Q 45.5625 56 51.78125 48.09375 
Q 58.015625 40.1875 58.015625 27.296875 
Q 58.015625 14.40625 51.78125 6.484375 
Q 45.5625 -1.421875 35.59375 -1.421875 
Q 29.59375 -1.421875 25.265625 0.953125 
Q 20.953125 3.328125 18.109375 8.203125 
z
M 48.6875 27.296875 
Q 48.6875 37.203125 44.609375 42.84375 
Q 40.53125 48.484375 33.40625 48.484375 
Q 26.265625 48.484375 22.1875 42.84375 
Q 18.109375 37.203125 18.109375 27.296875 
Q 18.109375 17.390625 22.1875 11.75 
Q 26.265625 6.109375 33.40625 6.109375 
Q 40.53125 6.109375 44.609375 11.75 
Q 48.6875 17.390625 48.6875 27.296875 
z
" id="DejaVuSans-112"/>
      <path d="M 41.109375 46.296875 
Q 39.59375 47.171875 37.8125 47.578125 
Q 36.03125 48 33.890625 48 
Q 26.265625 48 22.1875 43.046875 
Q 18.109375 38.09375 18.109375 28.8125 
L 18.109375 0 
L 9.078125 0 
L 9.078125 54.6875 
L 18.109375 54.6875 
L 18.109375 46.1875 
Q 20.953125 51.171875 25.484375 53.578125 
Q 30.03125 56 36.53125 56 
Q 37.453125 56 38.578125 55.875 
Q 39.703125 55.765625 41.0625 55.515625 
z
" id="DejaVuSans-114"/>
      <path d="M 56.203125 29.59375 
L 56.203125 25.203125 
L 14.890625 25.203125 
Q 15.484375 15.921875 20.484375 11.0625 
Q 25.484375 6.203125 34.421875 6.203125 
Q 39.59375 6.203125 44.453125 7.46875 
Q 49.3125 8.734375 54.109375 11.28125 
L 54.109375 2.78125 
Q 49.265625 0.734375 44.1875 -0.34375 
Q 39.109375 -1.421875 33.890625 -1.421875 
Q 20.796875 -1.421875 13.15625 6.1875 
Q 5.515625 13.8125 5.515625 26.8125 
Q 5.515625 40.234375 12.765625 48.109375 
Q 20.015625 56 32.328125 56 
Q 43.359375 56 49.78125 48.890625 
Q 56.203125 41.796875 56.203125 29.59375 
z
M 47.21875 32.234375 
Q 47.125 39.59375 43.09375 43.984375 
Q 39.0625 48.390625 32.421875 48.390625 
Q 24.90625 48.390625 20.390625 44.140625 
Q 15.875 39.890625 15.1875 32.171875 
z
" id="DejaVuSans-101"/>
      <path d="M 44.28125 53.078125 
L 44.28125 44.578125 
Q 40.484375 46.53125 36.375 47.5 
Q 32.28125 48.484375 27.875 48.484375 
Q 21.1875 48.484375 17.84375 46.4375 
Q 14.5 44.390625 14.5 40.28125 
Q 14.5 37.15625 16.890625 35.375 
Q 19.28125 33.59375 26.515625 31.984375 
L 29.59375 31.296875 
Q 39.15625 29.25 43.1875 25.515625 
Q 47.21875 21.78125 47.21875 15.09375 
Q 47.21875 7.46875 41.1875 3.015625 
Q 35.15625 -1.421875 24.609375 -1.421875 
Q 20.21875 -1.421875 15.453125 -0.5625 
Q 10.6875 0.296875 5.421875 2 
L 5.421875 11.28125 
Q 10.40625 8.6875 15.234375 7.390625 
Q 20.0625 6.109375 24.8125 6.109375 
Q 31.15625 6.109375 34.5625 8.28125 
Q 37.984375 10.453125 37.984375 14.40625 
Q 37.984375 18.0625 35.515625 20.015625 
Q 33.0625 21.96875 24.703125 23.78125 
L 21.578125 24.515625 
Q 13.234375 26.265625 9.515625 29.90625 
Q 5.8125 33.546875 5.8125 39.890625 
Q 5.8125 47.609375 11.28125 51.796875 
Q 16.75 56 26.8125 56 
Q 31.78125 56 36.171875 55.265625 
Q 40.578125 54.546875 44.28125 53.078125 
z
" id="DejaVuSans-115"/>
      <path d="M 45.40625 46.390625 
L 45.40625 75.984375 
L 54.390625 75.984375 
L 54.390625 0 
L 45.40625 0 
L 45.40625 8.203125 
Q 42.578125 3.328125 38.25 0.953125 
Q 33.9375 -1.421875 27.875 -1.421875 
Q 17.96875 -1.421875 11.734375 6.484375 
Q 5.515625 14.40625 5.515625 27.296875 
Q 5.515625 40.1875 11.734375 48.09375 
Q 17.96875 56 27.875 56 
Q 33.9375 56 38.25 53.625 
Q 42.578125 51.265625 45.40625 46.390625 
z
M 14.796875 27.296875 
Q 14.796875 17.390625 18.875 11.75 
Q 22.953125 6.109375 30.078125 6.109375 
Q 37.203125 6.109375 41.296875 11.75 
Q 45.40625 17.390625 45.40625 27.296875 
Q 45.40625 37.203125 41.296875 42.84375 
Q 37.203125 48.484375 30.078125 48.484375 
Q 22.953125 48.484375 18.875 42.84375 
Q 14.796875 37.203125 14.796875 27.296875 
z
" id="DejaVuSans-100"/>
      <path id="DejaVuSans-32"/>
      <path d="M 2.984375 54.6875 
L 12.5 54.6875 
L 29.59375 8.796875 
L 46.6875 54.6875 
L 56.203125 54.6875 
L 35.6875 0 
L 23.484375 0 
z
" id="DejaVuSans-118"/>
      <path d="M 34.28125 27.484375 
Q 23.390625 27.484375 19.1875 25 
Q 14.984375 22.515625 14.984375 16.5 
Q 14.984375 11.71875 18.140625 8.90625 
Q 21.296875 6.109375 26.703125 6.109375 
Q 34.1875 6.109375 38.703125 11.40625 
Q 43.21875 16.703125 43.21875 25.484375 
L 43.21875 27.484375 
z
M 52.203125 31.203125 
L 52.203125 0 
L 43.21875 0 
L 43.21875 8.296875 
Q 40.140625 3.328125 35.546875 0.953125 
Q 30.953125 -1.421875 24.3125 -1.421875 
Q 15.921875 -1.421875 10.953125 3.296875 
Q 6 8.015625 6 15.921875 
Q 6 25.140625 12.171875 29.828125 
Q 18.359375 34.515625 30.609375 34.515625 
L 43.21875 34.515625 
L 43.21875 35.40625 
Q 43.21875 41.609375 39.140625 45 
Q 35.0625 48.390625 27.6875 48.390625 
Q 23 48.390625 18.546875 47.265625 
Q 14.109375 46.140625 10.015625 43.890625 
L 10.015625 52.203125 
Q 14.9375 54.109375 19.578125 55.046875 
Q 24.21875 56 28.609375 56 
Q 40.484375 56 46.34375 49.84375 
Q 52.203125 43.703125 52.203125 31.203125 
z
" id="DejaVuSans-97"/>
      <path d="M 9.421875 75.984375 
L 18.40625 75.984375 
L 18.40625 0 
L 9.421875 0 
z
" id="DejaVuSans-108"/>
      <path d="M 8.5 21.578125 
L 8.5 54.6875 
L 17.484375 54.6875 
L 17.484375 21.921875 
Q 17.484375 14.15625 20.5 10.265625 
Q 23.53125 6.390625 29.59375 6.390625 
Q 36.859375 6.390625 41.078125 11.03125 
Q 45.3125 15.671875 45.3125 23.6875 
L 45.3125 54.6875 
L 54.296875 54.6875 
L 54.296875 0 
L 45.3125 0 
L 45.3125 8.40625 
Q 42.046875 3.421875 37.71875 1 
Q 33.40625 -1.421875 27.6875 -1.421875 
Q 18.265625 -1.421875 13.375 4.4375 
Q 8.5 10.296875 8.5 21.578125 
z
M 31.109375 56 
z
" id="DejaVuSans-117"/>
     </defs>
     <g transform="translate(96.861562 357.832125)scale(0.3 -0.3)">
      <use xlink:href="#DejaVuSans-67"/>
      <use x="69.824219" xlink:href="#DejaVuSans-111"/>
      <use x="131.005859" xlink:href="#DejaVuSans-109"/>
      <use x="228.417969" xlink:href="#DejaVuSans-112"/>
      <use x="291.894531" xlink:href="#DejaVuSans-114"/>
      <use x="332.976562" xlink:href="#DejaVuSans-101"/>
      <use x="394.5" xlink:href="#DejaVuSans-115"/>
      <use x="446.599609" xlink:href="#DejaVuSans-115"/>
      <use x="498.699219" xlink:href="#DejaVuSans-101"/>
      <use x="560.222656" xlink:href="#DejaVuSans-100"/>
      <use x="623.699219" xlink:href="#DejaVuSans-32"/>
      <use x="655.486328" xlink:href="#DejaVuSans-118"/>
      <use x="714.666016" xlink:href="#DejaVuSans-97"/>
      <use x="775.945312" xlink:href="#DejaVuSans-108"/>
      <use x="803.728516" xlink:href="#DejaVuSans-117"/>
      <use x="867.107422" xlink:href="#DejaVuSans-101"/>
     </g>
    </g>
   </g>
   <g id="matplotlib.axis_2">
    <g id="ytick_1">
     <g id="line2d_7">
      <defs>
       <path d="M 0 0 
L -3.5 0 
" id="m2a454cf316" style="stroke:#000000;stroke-width:0.8;"/>
      </defs>
      <g>
       <use style="stroke:#000000;stroke-width:0.8;" x="57.6" xlink:href="#m2a454cf316" y="307.584"/>
      </g>
     </g>
     <g id="text_8">
      <!-- 0.0 -->
      <defs>
       <path d="M 10.6875 12.40625 
L 21 12.40625 
L 21 0 
L 10.6875 0 
z
" id="DejaVuSans-46"/>
      </defs>
      <g transform="translate(23.564687 314.042672)scale(0.17 -0.17)">
       <use xlink:href="#DejaVuSans-48"/>
       <use x="63.623047" xlink:href="#DejaVuSans-46"/>
       <use x="95.410156" xlink:href="#DejaVuSans-48"/>
      </g>
     </g>
    </g>
    <g id="ytick_2">
     <g id="line2d_8">
      <g>
       <use style="stroke:#000000;stroke-width:0.8;" x="57.6" xlink:href="#m2a454cf316" y="267.889915"/>
      </g>
     </g>
     <g id="text_9">
      <!-- 0.2 -->
      <g transform="translate(23.564687 274.348587)scale(0.17 -0.17)">
       <use xlink:href="#DejaVuSans-48"/>
       <use x="63.623047" xlink:href="#DejaVuSans-46"/>
       <use x="95.410156" xlink:href="#DejaVuSans-50"/>
      </g>
     </g>
    </g>
    <g id="ytick_3">
     <g id="line2d_9">
      <g>
       <use style="stroke:#000000;stroke-width:0.8;" x="57.6" xlink:href="#m2a454cf316" y="228.19583"/>
      </g>
     </g>
     <g id="text_10">
      <!-- 0.4 -->
      <defs>
       <path d="M 37.796875 64.3125 
L 12.890625 25.390625 
L 37.796875 25.390625 
z
M 35.203125 72.90625 
L 47.609375 72.90625 
L 47.609375 25.390625 
L 58.015625 25.390625 
L 58.015625 17.1875 
L 47.609375 17.1875 
L 47.609375 0 
L 37.796875 0 
L 37.796875 17.1875 
L 4.890625 17.1875 
L 4.890625 26.703125 
z
" id="DejaVuSans-52"/>
      </defs>
      <g transform="translate(23.564687 234.654502)scale(0.17 -0.17)">
       <use xlink:href="#DejaVuSans-48"/>
       <use x="63.623047" xlink:href="#DejaVuSans-46"/>
       <use x="95.410156" xlink:href="#DejaVuSans-52"/>
      </g>
     </g>
    </g>
    <g id="ytick_4">
     <g id="line2d_10">
      <g>
       <use style="stroke:#000000;stroke-width:0.8;" x="57.6" xlink:href="#m2a454cf316" y="188.501745"/>
      </g>
     </g>
     <g id="text_11">
      <!-- 0.6 -->
      <defs>
       <path d="M 33.015625 40.375 
Q 26.375 40.375 22.484375 35.828125 
Q 18.609375 31.296875 18.609375 23.390625 
Q 18.609375 15.53125 22.484375 10.953125 
Q 26.375 6.390625 33.015625 6.390625 
Q 39.65625 6.390625 43.53125 10.953125 
Q 47.40625 15.53125 47.40625 23.390625 
Q 47.40625 31.296875 43.53125 35.828125 
Q 39.65625 40.375 33.015625 40.375 
z
M 52.59375 71.296875 
L 52.59375 62.3125 
Q 48.875 64.0625 45.09375 64.984375 
Q 41.3125 65.921875 37.59375 65.921875 
Q 27.828125 65.921875 22.671875 59.328125 
Q 17.53125 52.734375 16.796875 39.40625 
Q 19.671875 43.65625 24.015625 45.921875 
Q 28.375 48.1875 33.59375 48.1875 
Q 44.578125 48.1875 50.953125 41.515625 
Q 57.328125 34.859375 57.328125 23.390625 
Q 57.328125 12.15625 50.6875 5.359375 
Q 44.046875 -1.421875 33.015625 -1.421875 
Q 20.359375 -1.421875 13.671875 8.265625 
Q 6.984375 17.96875 6.984375 36.375 
Q 6.984375 53.65625 15.1875 63.9375 
Q 23.390625 74.21875 37.203125 74.21875 
Q 40.921875 74.21875 44.703125 73.484375 
Q 48.484375 72.75 52.59375 71.296875 
z
" id="DejaVuSans-54"/>
      </defs>
      <g transform="translate(23.564687 194.960416)scale(0.17 -0.17)">
       <use xlink:href="#DejaVuSans-48"/>
       <use x="63.623047" xlink:href="#DejaVuSans-46"/>
       <use x="95.410156" xlink:href="#DejaVuSans-54"/>
      </g>
     </g>
    </g>
    <g id="ytick_5">
     <g id="line2d_11">
      <g>
       <use style="stroke:#000000;stroke-width:0.8;" x="57.6" xlink:href="#m2a454cf316" y="148.807659"/>
      </g>
     </g>
     <g id="text_12">
      <!-- 0.8 -->
      <defs>
       <path d="M 31.78125 34.625 
Q 24.75 34.625 20.71875 30.859375 
Q 16.703125 27.09375 16.703125 20.515625 
Q 16.703125 13.921875 20.71875 10.15625 
Q 24.75 6.390625 31.78125 6.390625 
Q 38.8125 6.390625 42.859375 10.171875 
Q 46.921875 13.96875 46.921875 20.515625 
Q 46.921875 27.09375 42.890625 30.859375 
Q 38.875 34.625 31.78125 34.625 
z
M 21.921875 38.8125 
Q 15.578125 40.375 12.03125 44.71875 
Q 8.5 49.078125 8.5 55.328125 
Q 8.5 64.0625 14.71875 69.140625 
Q 20.953125 74.21875 31.78125 74.21875 
Q 42.671875 74.21875 48.875 69.140625 
Q 55.078125 64.0625 55.078125 55.328125 
Q 55.078125 49.078125 51.53125 44.71875 
Q 48 40.375 41.703125 38.8125 
Q 48.828125 37.15625 52.796875 32.3125 
Q 56.78125 27.484375 56.78125 20.515625 
Q 56.78125 9.90625 50.3125 4.234375 
Q 43.84375 -1.421875 31.78125 -1.421875 
Q 19.734375 -1.421875 13.25 4.234375 
Q 6.78125 9.90625 6.78125 20.515625 
Q 6.78125 27.484375 10.78125 32.3125 
Q 14.796875 37.15625 21.921875 38.8125 
z
M 18.3125 54.390625 
Q 18.3125 48.734375 21.84375 45.5625 
Q 25.390625 42.390625 31.78125 42.390625 
Q 38.140625 42.390625 41.71875 45.5625 
Q 45.3125 48.734375 45.3125 54.390625 
Q 45.3125 60.0625 41.71875 63.234375 
Q 38.140625 66.40625 31.78125 66.40625 
Q 25.390625 66.40625 21.84375 63.234375 
Q 18.3125 60.0625 18.3125 54.390625 
z
" id="DejaVuSans-56"/>
      </defs>
      <g transform="translate(23.564687 155.266331)scale(0.17 -0.17)">
       <use xlink:href="#DejaVuSans-48"/>
       <use x="63.623047" xlink:href="#DejaVuSans-46"/>
       <use x="95.410156" xlink:href="#DejaVuSans-56"/>
      </g>
     </g>
    </g>
    <g id="ytick_6">
     <g id="line2d_12">
      <g>
       <use style="stroke:#000000;stroke-width:0.8;" x="57.6" xlink:href="#m2a454cf316" y="109.113574"/>
      </g>
     </g>
     <g id="text_13">
      <!-- 1.0 -->
      <g transform="translate(23.564687 115.572246)scale(0.17 -0.17)">
       <use xlink:href="#DejaVuSans-49"/>
       <use x="63.623047" xlink:href="#DejaVuSans-46"/>
       <use x="95.410156" xlink:href="#DejaVuSans-48"/>
      </g>
     </g>
    </g>
    <g id="ytick_7">
     <g id="line2d_13">
      <g>
       <use style="stroke:#000000;stroke-width:0.8;" x="57.6" xlink:href="#m2a454cf316" y="69.419489"/>
      </g>
     </g>
     <g id="text_14">
      <!-- 1.2 -->
      <g transform="translate(23.564687 75.878161)scale(0.17 -0.17)">
       <use xlink:href="#DejaVuSans-49"/>
       <use x="63.623047" xlink:href="#DejaVuSans-46"/>
       <use x="95.410156" xlink:href="#DejaVuSans-50"/>
      </g>
     </g>
    </g>
    <g id="text_15">
     <!-- Density -->
     <defs>
      <path d="M 19.671875 64.796875 
L 19.671875 8.109375 
L 31.59375 8.109375 
Q 46.6875 8.109375 53.6875 14.9375 
Q 60.6875 21.78125 60.6875 36.53125 
Q 60.6875 51.171875 53.6875 57.984375 
Q 46.6875 64.796875 31.59375 64.796875 
z
M 9.8125 72.90625 
L 30.078125 72.90625 
Q 51.265625 72.90625 61.171875 64.09375 
Q 71.09375 55.28125 71.09375 36.53125 
Q 71.09375 17.671875 61.125 8.828125 
Q 51.171875 0 30.078125 0 
L 9.8125 0 
z
" id="DejaVuSans-68"/>
      <path d="M 54.890625 33.015625 
L 54.890625 0 
L 45.90625 0 
L 45.90625 32.71875 
Q 45.90625 40.484375 42.875 44.328125 
Q 39.84375 48.1875 33.796875 48.1875 
Q 26.515625 48.1875 22.3125 43.546875 
Q 18.109375 38.921875 18.109375 30.90625 
L 18.109375 0 
L 9.078125 0 
L 9.078125 54.6875 
L 18.109375 54.6875 
L 18.109375 46.1875 
Q 21.34375 51.125 25.703125 53.5625 
Q 30.078125 56 35.796875 56 
Q 45.21875 56 50.046875 50.171875 
Q 54.890625 44.34375 54.890625 33.015625 
z
" id="DejaVuSans-110"/>
      <path d="M 9.421875 54.6875 
L 18.40625 54.6875 
L 18.40625 0 
L 9.421875 0 
z
M 9.421875 75.984375 
L 18.40625 75.984375 
L 18.40625 64.59375 
L 9.421875 64.59375 
z
" id="DejaVuSans-105"/>
      <path d="M 18.3125 70.21875 
L 18.3125 54.6875 
L 36.8125 54.6875 
L 36.8125 47.703125 
L 18.3125 47.703125 
L 18.3125 18.015625 
Q 18.3125 11.328125 20.140625 9.421875 
Q 21.96875 7.515625 27.59375 7.515625 
L 36.8125 7.515625 
L 36.8125 0 
L 27.59375 0 
Q 17.1875 0 13.234375 3.875 
Q 9.28125 7.765625 9.28125 18.015625 
L 9.28125 47.703125 
L 2.6875 47.703125 
L 2.6875 54.6875 
L 9.28125 54.6875 
L 9.28125 70.21875 
z
" id="DejaVuSans-116"/>
      <path d="M 32.171875 -5.078125 
Q 28.375 -14.84375 24.75 -17.8125 
Q 21.140625 -20.796875 15.09375 -20.796875 
L 7.90625 -20.796875 
L 7.90625 -13.28125 
L 13.1875 -13.28125 
Q 16.890625 -13.28125 18.9375 -11.515625 
Q 21 -9.765625 23.484375 -3.21875 
L 25.09375 0.875 
L 2.984375 54.6875 
L 12.5 54.6875 
L 29.59375 11.921875 
L 46.6875 54.6875 
L 56.203125 54.6875 
z
" id="DejaVuSans-121"/>
     </defs>
     <g transform="translate(13.325625 231.553781)rotate(-90)scale(0.3 -0.3)">
      <use xlink:href="#DejaVuSans-68"/>
      <use x="77.001953" xlink:href="#DejaVuSans-101"/>
      <use x="138.525391" xlink:href="#DejaVuSans-110"/>
      <use x="201.904297" xlink:href="#DejaVuSans-115"/>
      <use x="254.003906" xlink:href="#DejaVuSans-105"/>
      <use x="281.787109" xlink:href="#DejaVuSans-116"/>
      <use x="320.996094" xlink:href="#DejaVuSans-121"/>
     </g>
    </g>
   </g>
   <g id="line2d_14">
    <path clip-path="url(#pe3b85a0ded)" d="M 93.702934 306.74017 
L 94.505586 306.831338 
L 95.170768 306.805462 
L 96.124195 306.746447 
L 98.016267 306.799175 
L 98.750923 306.488439 
L 100.348837 305.864117 
L 102.243865 305.32414 
L 103.34511 305.423966 
L 103.97925 305.007043 
L 104.987369 304.392167 
L 105.557947 304.363374 
L 106.826227 304.284417 
L 107.241595 304.098569 
L 107.79887 303.538395 
L 108.435966 303.025929 
L 109.625902 302.470189 
L 110.384209 302.093366 
L 111.282943 301.291989 
L 113.571167 299.293406 
L 113.974711 299.326887 
L 114.786232 299.4564 
L 115.135083 299.213673 
L 115.664272 298.515491 
L 116.330932 297.747965 
L 118.490554 296.238739 
L 119.012352 296.061076 
L 119.310945 295.64624 
L 119.820917 294.448355 
L 120.322021 293.52237 
L 120.738868 293.215952 
L 121.260666 292.80791 
L 121.88298 292.303557 
L 122.188964 292.364547 
L 122.933967 292.613443 
L 123.198561 292.378397 
L 123.540021 291.727395 
L 125.115762 288.266383 
L 125.888851 287.239048 
L 126.574727 286.122453 
L 126.780194 286.168669 
L 127.066961 286.52938 
L 127.458679 286.922538 
L 127.639017 286.82021 
L 127.875526 286.363862 
L 129.174848 283.335633 
L 130.128275 282.102838 
L 130.619031 281.897053 
L 130.993011 281.641206 
L 131.364034 281.06325 
L 132.140079 279.817026 
L 132.565795 279.620191 
L 133.121591 279.332432 
L 133.622695 278.785544 
L 134.035107 277.998724 
L 134.537689 276.469771 
L 135.64189 273.078133 
L 136.219859 272.013856 
L 136.966341 271.096078 
L 137.934549 270.21675 
L 139.978874 265.911072 
L 140.651446 264.241124 
L 140.927866 264.040512 
L 141.146637 264.150017 
L 141.915291 264.725274 
L 142.1518 264.444322 
L 143.134791 263.004565 
L 143.33878 263.230757 
L 143.684674 264.031024 
L 144.188734 265.053033 
L 144.440025 265.139242 
L 144.732705 264.963139 
L 145.315108 264.624014 
L 145.887164 264.37894 
L 146.89824 263.60614 
L 147.498382 263.568593 
L 147.999485 263.180089 
L 148.416332 262.638102 
L 148.756314 261.754803 
L 149.696437 259.061031 
L 149.924077 259.009441 
L 150.14876 259.21626 
L 150.496133 259.898555 
L 151.153924 261.169425 
L 151.354956 261.165282 
L 151.566336 260.888445 
L 152.469505 259.380409 
L 152.487243 259.391032 
L 152.680885 259.653985 
L 152.992781 260.534168 
L 153.801346 262.902562 
L 154.071853 263.09505 
L 154.271408 262.980683 
L 154.515308 262.5352 
L 154.875984 261.328912 
L 155.492385 259.337775 
L 155.681593 259.280109 
L 155.85454 259.517879 
L 156.22852 260.541457 
L 156.580327 261.196711 
L 156.759187 261.175941 
L 156.960219 260.861031 
L 157.328286 259.771551 
L 157.923993 258.153446 
L 158.144242 258.046975 
L 158.314233 258.235352 
L 158.565524 258.920459 
L 159.591382 262.132009 
L 159.931363 262.29583 
L 160.315691 262.523557 
L 160.691149 263.076803 
L 161.390328 264.090756 
L 161.736223 264.208186 
L 162.72956 264.318464 
L 163.091715 264.798879 
L 164.275738 266.602222 
L 164.618676 266.608298 
L 164.982309 266.383944 
L 165.894346 265.680304 
L 166.107204 265.986695 
L 166.469359 266.997887 
L 166.932029 268.07856 
L 167.159669 268.15921 
L 167.408004 267.969019 
L 167.89876 267.60571 
L 168.121965 267.726223 
L 168.423514 268.194552 
L 169.305988 269.684932 
L 169.572061 269.723344 
L 169.805614 269.514673 
L 170.10125 268.901301 
L 170.807821 266.689198 
L 171.206929 265.920932 
L 171.437526 265.851642 
L 171.631167 266.049421 
L 171.900196 266.7061 
L 172.92162 269.562261 
L 173.128565 269.520236 
L 173.428636 269.169852 
L 174.149988 268.318826 
L 175.906067 267.196289 
L 176.878711 267.103173 
L 177.731621 266.248335 
L 178.064212 265.532562 
L 179.359099 262.260823 
L 179.574913 262.30726 
L 179.836551 262.637344 
L 181.047182 264.480585 
L 181.799576 264.852191 
L 182.130688 264.829678 
L 182.390848 264.565043 
L 182.736743 263.836083 
L 183.700517 261.047781 
L 184.191273 258.881498 
L 184.891931 255.926618 
L 185.267389 255.232537 
L 185.582241 255.053505 
L 185.903007 255.135836 
L 186.32281 255.216573 
L 186.522365 254.985612 
L 186.764786 254.299898 
L 187.110681 252.538995 
L 188.396698 245.272278 
L 189.734452 241.526611 
L 191.014557 236.703706 
L 191.225937 236.676304 
L 191.493488 236.923508 
L 191.939899 237.285852 
L 192.135018 237.16899 
L 192.371527 236.713447 
L 192.73516 235.445097 
L 193.286522 232.65553 
L 193.752149 229.085783 
L 194.636101 222.018783 
L 194.911043 221.419215 
L 195.185984 221.32166 
L 195.432841 221.158706 
L 195.65309 220.680404 
L 195.954639 219.398968 
L 196.472002 216.027384 
L 197.38404 210.26853 
L 198.217734 205.855226 
L 198.616843 201.66704 
L 199.316023 191.383264 
L 200.075808 181.478327 
L 200.572477 177.67034 
L 201.157836 174.967726 
L 201.706242 172.146372 
L 202.151174 168.51137 
L 202.69071 162.029104 
L 203.549534 151.829438 
L 203.964902 149.576604 
L 204.497048 146.823723 
L 205.321873 142.082005 
L 205.723938 141.337263 
L 205.985576 140.567509 
L 206.327036 138.707943 
L 207.080908 134.575772 
L 207.607141 132.005397 
L 208.029901 128.456253 
L 208.839944 119.273933 
L 209.80224 106.505879 
L 210.86653 91.686173 
L 211.360243 88.031226 
L 211.917517 84.038749 
L 212.318104 78.985482 
L 213.997318 55.198352 
L 214.278172 54.191161 
L 214.414165 54.168186 
L 214.428947 54.181943 
L 214.590069 54.50847 
L 214.890139 55.730266 
L 215.481412 59.202113 
L 215.994341 63.565722 
L 216.96994 74.437571 
L 217.437046 82.220527 
L 219.392679 123.016849 
L 220.187941 142.537606 
L 220.929988 154.270109 
L 222.143575 171.12003 
L 223.391159 182.5519 
L 224.405192 194.542945 
L 225.04081 199.236013 
L 225.908502 205.267758 
L 227.27582 216.953079 
L 227.632061 217.850325 
L 227.988303 218.191834 
L 228.55149 218.655043 
L 228.891472 219.348514 
L 229.44579 221.093057 
L 230.288353 224.453521 
L 231.181174 229.077188 
L 231.812358 231.910654 
L 232.100603 232.376582 
L 232.298679 232.353649 
L 232.583968 232.027839 
L 233.178197 231.376969 
L 233.425053 231.397583 
L 233.642346 231.669964 
L 233.921722 232.441663 
L 234.934276 235.630842 
L 235.185567 235.673947 
L 235.754667 235.651652 
L 235.994132 235.999185 
L 236.347417 236.983854 
L 237.306757 239.785007 
L 238.127148 241.213378 
L 238.527735 241.596995 
L 238.745027 241.541704 
L 238.975624 241.209606 
L 239.330387 240.230708 
L 240.121214 238.024816 
L 240.437545 237.741852 
L 240.691792 237.788275 
L 241.011079 238.110126 
L 242.329617 240.05636 
L 242.802635 241.035665 
L 243.178093 242.391437 
L 243.583114 244.76856 
L 243.982223 248.531082 
L 244.452285 255.401007 
L 245.237199 266.663683 
L 245.624482 269.202094 
L 245.989593 270.291649 
L 246.295577 270.626475 
L 246.530608 270.593094 
L 247.334738 270.247816 
L 247.586029 270.685628 
L 248.370943 272.215287 
L 248.579367 272.156979 
L 248.891263 271.773036 
L 249.414539 271.196581 
L 249.686524 271.204295 
L 250.002855 271.467633 
L 250.962195 272.399752 
L 251.213485 272.271174 
L 251.544598 271.804283 
L 252.42855 270.464654 
L 252.863136 270.281942 
L 253.302155 270.319218 
L 254.203846 270.549396 
L 254.495048 270.123657 
L 255.324307 268.808957 
L 256.211216 268.055962 
L 256.397467 268.238419 
L 256.641367 268.853388 
L 257.102559 270.78717 
L 257.563752 272.312972 
L 257.807652 272.522269 
L 257.995381 272.404057 
L 258.29693 271.883903 
L 260.455074 267.55993 
L 260.755145 267.426202 
L 261.015305 267.561765 
L 261.695268 268.019475 
L 261.911083 267.786041 
L 262.322017 266.90487 
L 262.70191 266.339472 
L 262.931028 266.334188 
L 263.207448 266.596677 
L 263.859325 267.626008 
L 264.70928 268.835982 
L 265.130561 269.088353 
L 265.440979 269.028355 
L 266.280586 268.706897 
L 266.616133 269.015939 
L 267.452784 269.834985 
L 267.738073 269.818561 
L 268.005624 269.554081 
L 268.509683 268.634465 
L 268.848187 268.269518 
L 269.041829 268.337645 
L 269.270947 268.707367 
L 269.687794 269.908014 
L 270.262806 271.359378 
L 270.651568 271.769257 
L 271.114239 271.937359 
L 271.420222 271.837154 
L 271.754291 271.452291 
L 272.389909 270.717165 
L 272.684067 270.722902 
L 273.191083 271.024119 
L 274.565792 272.048243 
L 275.570955 273.655468 
L 276.530294 275.495698 
L 276.744631 275.433059 
L 277.018094 275.074076 
L 277.442332 274.098086 
L 278.184379 272.379828 
L 278.346979 272.428969 
L 278.536186 272.796305 
L 278.870255 274.04526 
L 279.535437 276.438177 
L 279.851768 276.857068 
L 280.067582 276.83897 
L 280.298178 276.555841 
L 280.701722 275.616542 
L 281.108222 274.894703 
L 281.28856 274.915278 
L 281.480723 275.224716 
L 281.825139 276.308579 
L 282.275985 277.501138 
L 282.463714 277.538437 
L 282.648486 277.284556 
L 283.378708 276.049021 
L 283.387577 276.053775 
L 283.562002 276.283444 
L 283.848769 277.115553 
L 284.784458 280.039742 
L 285.10818 280.357629 
L 285.357992 280.324398 
L 285.663976 280.02046 
L 286.620359 278.936105 
L 286.902692 278.977507 
L 287.204241 279.274472 
L 287.801426 280.281685 
L 288.320267 280.921942 
L 288.858325 281.214385 
L 289.427425 281.30435 
L 289.814709 281.135681 
L 290.638056 280.682592 
L 290.858305 280.922942 
L 291.149506 281.630371 
L 291.876771 284.247459 
L 292.478391 285.860638 
L 292.908542 286.491407 
L 293.167224 286.546209 
L 293.419993 286.346799 
L 294.59219 285.123259 
L 294.921825 285.19884 
L 295.254415 285.528303 
L 296.119151 286.502766 
L 297.146487 286.915814 
L 297.879665 287.462451 
L 298.771008 287.997273 
L 299.334195 288.2951 
L 299.740695 288.232541 
L 300.228495 288.195388 
L 300.528566 288.426473 
L 300.911415 289.045487 
L 302.466461 291.918467 
L 303.33711 292.753055 
L 303.683004 292.754834 
L 304.39401 292.676116 
L 304.699993 292.964261 
L 305.211444 293.827543 
L 306.235823 295.483582 
L 306.716232 295.919708 
L 307.112385 295.983293 
L 308.722124 295.768616 
L 309.363655 295.316153 
L 310.429423 294.443137 
L 310.705843 294.590272 
L 311.047303 295.062103 
L 312.126375 296.747527 
L 312.682171 296.915358 
L 313.254228 297.222207 
L 313.94306 297.831566 
L 315.048739 298.973906 
L 315.304465 298.821714 
L 315.765657 298.204979 
L 316.216503 297.773379 
L 316.544659 297.750168 
L 316.911248 297.965021 
L 317.523215 298.642751 
L 318.203178 299.256283 
L 318.903836 299.877368 
L 320.058295 301.196895 
L 320.402712 301.06372 
L 320.959986 300.868294 
L 321.32214 301.015094 
L 322.10262 301.382575 
L 322.81806 301.557407 
L 323.242298 302.00543 
L 323.935565 302.710856 
L 324.296241 302.753199 
L 325.339837 302.694156 
L 326.795845 303.135255 
L 327.676841 303.01011 
L 328.36863 302.981671 
L 328.766261 303.222195 
L 329.459528 303.662501 
L 329.864549 303.581781 
L 330.2947 303.564782 
L 330.661289 303.813504 
L 331.477245 304.404515 
L 332.470583 304.67311 
L 333.29393 304.95973 
L 334.043368 305.215714 
L 335.088442 305.392181 
L 336.164558 305.873101 
L 336.764699 305.82154 
L 337.68265 305.698579 
L 338.219229 305.970858 
L 338.888845 306.24714 
L 339.289433 306.167184 
L 340.386243 305.780857 
L 340.974559 306.091544 
L 341.568788 306.271159 
L 342.630122 306.318258 
L 343.747627 306.186441 
L 345.063208 306.544892 
L 346.229493 306.737864 
L 346.919804 306.601681 
L 347.565769 306.551419 
L 349.395757 306.705456 
L 350.211713 306.826013 
L 351.549467 307.134028 
L 353.005476 307.035635 
L 355.864278 307.30864 
L 356.870919 307.326449 
L 358.075637 307.363199 
L 361.13695 307.289179 
L 362.516093 307.333799 
L 363.6809 307.368757 
L 365.105867 307.440092 
L 368.595853 307.516364 
L 369.88187 307.560236 
L 371.337879 307.536291 
L 373.082132 307.438125 
L 374.421365 307.581442 
L 383.733906 307.584 
L 395.250415 307.58016 
L 395.250415 307.58016 
" style="fill:none;stroke:#ff7f0e;stroke-linecap:square;stroke-width:1.5;"/>
   </g>
   <g id="patch_103">
    <path d="M 57.6 307.584 
L 57.6 41.472 
" style="fill:none;stroke:#000000;stroke-linecap:square;stroke-linejoin:miter;stroke-width:0.8;"/>
   </g>
   <g id="patch_104">
    <path d="M 414.72 307.584 
L 414.72 41.472 
" style="fill:none;stroke:#000000;stroke-linecap:square;stroke-linejoin:miter;stroke-width:0.8;"/>
   </g>
   <g id="patch_105">
    <path d="M 57.6 307.584 
L 414.72 307.584 
" style="fill:none;stroke:#000000;stroke-linecap:square;stroke-linejoin:miter;stroke-width:0.8;"/>
   </g>
   <g id="patch_106">
    <path d="M 57.6 41.472 
L 414.72 41.472 
" style="fill:none;stroke:#000000;stroke-linecap:square;stroke-linejoin:miter;stroke-width:0.8;"/>
   </g>
  </g>
 </g>
 <defs>
  <clipPath id="pe3b85a0ded">
   <rect height="266.112" width="357.12" x="57.6" y="41.472"/>
  </clipPath>
 </defs>
</svg>
