<?xml version="1.0" encoding="utf-8" standalone="no"?>
<!DOCTYPE svg PUBLIC "-//W3C//DTD SVG 1.1//EN"
  "http://www.w3.org/Graphics/SVG/1.1/DTD/svg11.dtd">
<!-- Created with matplotlib (https://matplotlib.org/) -->
<svg height="345.6pt" version="1.1" viewBox="0 0 460.8 345.6" width="460.8pt" xmlns="http://www.w3.org/2000/svg" xmlns:xlink="http://www.w3.org/1999/xlink">
 <defs>
  <style type="text/css">
*{stroke-linecap:butt;stroke-linejoin:round;}
  </style>
 </defs>
 <g id="figure_1">
  <g id="patch_1">
   <path d="M 0 345.6 
L 460.8 345.6 
L 460.8 0 
L 0 0 
z
" style="fill:#ffffff;"/>
  </g>
  <g id="axes_1">
   <g id="patch_2">
    <path d="M 57.6 307.584 
L 414.72 307.584 
L 414.72 41.472 
L 57.6 41.472 
z
" style="fill:#ffffff;"/>
   </g>
   <g id="patch_3">
    <path clip-path="url(#p702682b010)" d="M 141.603986 307.584 
L 144.172819 307.584 
L 144.172819 307.568282 
L 141.603986 307.568282 
z
" style="fill:#1f77b4;"/>
   </g>
   <g id="patch_4">
    <path clip-path="url(#p702682b010)" d="M 144.172819 307.584 
L 146.741652 307.584 
L 146.741652 307.568282 
L 144.172819 307.568282 
z
" style="fill:#1f77b4;"/>
   </g>
   <g id="patch_5">
    <path clip-path="url(#p702682b010)" d="M 146.741652 307.584 
L 149.310484 307.584 
L 149.310484 307.552565 
L 146.741652 307.552565 
z
" style="fill:#1f77b4;"/>
   </g>
   <g id="patch_6">
    <path clip-path="url(#p702682b010)" d="M 149.310484 307.584 
L 151.879317 307.584 
L 151.879317 307.52113 
L 149.310484 307.52113 
z
" style="fill:#1f77b4;"/>
   </g>
   <g id="patch_7">
    <path clip-path="url(#p702682b010)" d="M 151.879317 307.584 
L 154.44815 307.584 
L 154.44815 307.33252 
L 151.879317 307.33252 
z
" style="fill:#1f77b4;"/>
   </g>
   <g id="patch_8">
    <path clip-path="url(#p702682b010)" d="M 154.44815 307.584 
L 157.016983 307.584 
L 157.016983 306.719537 
L 154.44815 306.719537 
z
" style="fill:#1f77b4;"/>
   </g>
   <g id="patch_9">
    <path clip-path="url(#p702682b010)" d="M 157.016983 307.584 
L 159.585816 307.584 
L 159.585816 305.179221 
L 157.016983 305.179221 
z
" style="fill:#1f77b4;"/>
   </g>
   <g id="patch_10">
    <path clip-path="url(#p702682b010)" d="M 159.585816 307.584 
L 162.154649 307.584 
L 162.154649 301.878543 
L 159.585816 301.878543 
z
" style="fill:#1f77b4;"/>
   </g>
   <g id="patch_11">
    <path clip-path="url(#p702682b010)" d="M 162.154649 307.584 
L 164.723482 307.584 
L 164.723482 296.550307 
L 162.154649 296.550307 
z
" style="fill:#1f77b4;"/>
   </g>
   <g id="patch_12">
    <path clip-path="url(#p702682b010)" d="M 164.723482 307.584 
L 167.292315 307.584 
L 167.292315 287.764217 
L 164.723482 287.764217 
z
" style="fill:#1f77b4;"/>
   </g>
   <g id="patch_13">
    <path clip-path="url(#p702682b010)" d="M 167.292315 307.584 
L 169.861147 307.584 
L 169.861147 277.390659 
L 167.292315 277.390659 
z
" style="fill:#1f77b4;"/>
   </g>
   <g id="patch_14">
    <path clip-path="url(#p702682b010)" d="M 169.861147 307.584 
L 172.42998 307.584 
L 172.42998 286.381076 
L 169.861147 286.381076 
z
" style="fill:#1f77b4;"/>
   </g>
   <g id="patch_15">
    <path clip-path="url(#p702682b010)" d="M 172.42998 307.584 
L 174.998813 307.584 
L 174.998813 289.870364 
L 172.42998 289.870364 
z
" style="fill:#1f77b4;"/>
   </g>
   <g id="patch_16">
    <path clip-path="url(#p702682b010)" d="M 174.998813 307.584 
L 177.567646 307.584 
L 177.567646 288.612963 
L 174.998813 288.612963 
z
" style="fill:#1f77b4;"/>
   </g>
   <g id="patch_17">
    <path clip-path="url(#p702682b010)" d="M 177.567646 307.584 
L 180.136479 307.584 
L 180.136479 285.956703 
L 177.567646 285.956703 
z
" style="fill:#1f77b4;"/>
   </g>
   <g id="patch_18">
    <path clip-path="url(#p702682b010)" d="M 180.136479 307.584 
L 182.705312 307.584 
L 182.705312 283.787687 
L 180.136479 283.787687 
z
" style="fill:#1f77b4;"/>
   </g>
   <g id="patch_19">
    <path clip-path="url(#p702682b010)" d="M 182.705312 307.584 
L 185.274145 307.584 
L 185.274145 278.412298 
L 182.705312 278.412298 
z
" style="fill:#1f77b4;"/>
   </g>
   <g id="patch_20">
    <path clip-path="url(#p702682b010)" d="M 185.274145 307.584 
L 187.842978 307.584 
L 187.842978 277.123462 
L 185.274145 277.123462 
z
" style="fill:#1f77b4;"/>
   </g>
   <g id="patch_21">
    <path clip-path="url(#p702682b010)" d="M 187.842978 307.584 
L 190.41181 307.584 
L 190.41181 272.408208 
L 187.842978 272.408208 
z
" style="fill:#1f77b4;"/>
   </g>
   <g id="patch_22">
    <path clip-path="url(#p702682b010)" d="M 190.41181 307.584 
L 192.980643 307.584 
L 192.980643 271.685202 
L 190.41181 271.685202 
z
" style="fill:#1f77b4;"/>
   </g>
   <g id="patch_23">
    <path clip-path="url(#p702682b010)" d="M 192.980643 307.584 
L 195.549476 307.584 
L 195.549476 270.207756 
L 192.980643 270.207756 
z
" style="fill:#1f77b4;"/>
   </g>
   <g id="patch_24">
    <path clip-path="url(#p702682b010)" d="M 195.549476 307.584 
L 198.118309 307.584 
L 198.118309 268.79318 
L 195.549476 268.79318 
z
" style="fill:#1f77b4;"/>
   </g>
   <g id="patch_25">
    <path clip-path="url(#p702682b010)" d="M 198.118309 307.584 
L 200.687142 307.584 
L 200.687142 264.219384 
L 198.118309 264.219384 
z
" style="fill:#1f77b4;"/>
   </g>
   <g id="patch_26">
    <path clip-path="url(#p702682b010)" d="M 200.687142 307.584 
L 203.255975 307.584 
L 203.255975 261.956063 
L 200.687142 261.956063 
z
" style="fill:#1f77b4;"/>
   </g>
   <g id="patch_27">
    <path clip-path="url(#p702682b010)" d="M 203.255975 307.584 
L 205.824808 307.584 
L 205.824808 259.582718 
L 203.255975 259.582718 
z
" style="fill:#1f77b4;"/>
   </g>
   <g id="patch_28">
    <path clip-path="url(#p702682b010)" d="M 205.824808 307.584 
L 208.39364 307.584 
L 208.39364 256.926459 
L 205.824808 256.926459 
z
" style="fill:#1f77b4;"/>
   </g>
   <g id="patch_29">
    <path clip-path="url(#p702682b010)" d="M 208.39364 307.584 
L 210.962473 307.584 
L 210.962473 254.380222 
L 208.39364 254.380222 
z
" style="fill:#1f77b4;"/>
   </g>
   <g id="patch_30">
    <path clip-path="url(#p702682b010)" d="M 210.962473 307.584 
L 213.531306 307.584 
L 213.531306 253.217126 
L 210.962473 253.217126 
z
" style="fill:#1f77b4;"/>
   </g>
   <g id="patch_31">
    <path clip-path="url(#p702682b010)" d="M 213.531306 307.584 
L 216.100139 307.584 
L 216.100139 249.900731 
L 213.531306 249.900731 
z
" style="fill:#1f77b4;"/>
   </g>
   <g id="patch_32">
    <path clip-path="url(#p702682b010)" d="M 216.100139 307.584 
L 218.668972 307.584 
L 218.668972 248.077499 
L 216.100139 248.077499 
z
" style="fill:#1f77b4;"/>
   </g>
   <g id="patch_33">
    <path clip-path="url(#p702682b010)" d="M 218.668972 307.584 
L 221.237805 307.584 
L 221.237805 244.336732 
L 218.668972 244.336732 
z
" style="fill:#1f77b4;"/>
   </g>
   <g id="patch_34">
    <path clip-path="url(#p702682b010)" d="M 221.237805 307.584 
L 223.806638 307.584 
L 223.806638 221.090531 
L 221.237805 221.090531 
z
" style="fill:#1f77b4;"/>
   </g>
   <g id="patch_35">
    <path clip-path="url(#p702682b010)" d="M 223.806638 307.584 
L 226.375471 307.584 
L 226.375471 175.808379 
L 223.806638 175.808379 
z
" style="fill:#1f77b4;"/>
   </g>
   <g id="patch_36">
    <path clip-path="url(#p702682b010)" d="M 226.375471 307.584 
L 228.944303 307.584 
L 228.944303 127.901402 
L 226.375471 127.901402 
z
" style="fill:#1f77b4;"/>
   </g>
   <g id="patch_37">
    <path clip-path="url(#p702682b010)" d="M 228.944303 307.584 
L 231.513136 307.584 
L 231.513136 95.38187 
L 228.944303 95.38187 
z
" style="fill:#1f77b4;"/>
   </g>
   <g id="patch_38">
    <path clip-path="url(#p702682b010)" d="M 231.513136 307.584 
L 234.081969 307.584 
L 234.081969 105.786863 
L 231.513136 105.786863 
z
" style="fill:#1f77b4;"/>
   </g>
   <g id="patch_39">
    <path clip-path="url(#p702682b010)" d="M 234.081969 307.584 
L 236.650802 307.584 
L 236.650802 146.290891 
L 234.081969 146.290891 
z
" style="fill:#1f77b4;"/>
   </g>
   <g id="patch_40">
    <path clip-path="url(#p702682b010)" d="M 236.650802 307.584 
L 239.219635 307.584 
L 239.219635 169.474222 
L 236.650802 169.474222 
z
" style="fill:#1f77b4;"/>
   </g>
   <g id="patch_41">
    <path clip-path="url(#p702682b010)" d="M 239.219635 307.584 
L 241.788468 307.584 
L 241.788468 158.141895 
L 239.219635 158.141895 
z
" style="fill:#1f77b4;"/>
   </g>
   <g id="patch_42">
    <path clip-path="url(#p702682b010)" d="M 241.788468 307.584 
L 244.357301 307.584 
L 244.357301 142.675864 
L 241.788468 142.675864 
z
" style="fill:#1f77b4;"/>
   </g>
   <g id="patch_43">
    <path clip-path="url(#p702682b010)" d="M 244.357301 307.584 
L 246.926133 307.584 
L 246.926133 112.451088 
L 244.357301 112.451088 
z
" style="fill:#1f77b4;"/>
   </g>
   <g id="patch_44">
    <path clip-path="url(#p702682b010)" d="M 246.926133 307.584 
L 249.494966 307.584 
L 249.494966 68.111986 
L 246.926133 68.111986 
z
" style="fill:#1f77b4;"/>
   </g>
   <g id="patch_45">
    <path clip-path="url(#p702682b010)" d="M 249.494966 307.584 
L 252.063799 307.584 
L 252.063799 69.03932 
L 249.494966 69.03932 
z
" style="fill:#1f77b4;"/>
   </g>
   <g id="patch_46">
    <path clip-path="url(#p702682b010)" d="M 252.063799 307.584 
L 254.632632 307.584 
L 254.632632 115.563155 
L 252.063799 115.563155 
z
" style="fill:#1f77b4;"/>
   </g>
   <g id="patch_47">
    <path clip-path="url(#p702682b010)" d="M 254.632632 307.584 
L 257.201465 307.584 
L 257.201465 144.78201 
L 254.632632 144.78201 
z
" style="fill:#1f77b4;"/>
   </g>
   <g id="patch_48">
    <path clip-path="url(#p702682b010)" d="M 257.201465 307.584 
L 259.770298 307.584 
L 259.770298 166.692222 
L 257.201465 166.692222 
z
" style="fill:#1f77b4;"/>
   </g>
   <g id="patch_49">
    <path clip-path="url(#p702682b010)" d="M 259.770298 307.584 
L 262.339131 307.584 
L 262.339131 179.989237 
L 259.770298 179.989237 
z
" style="fill:#1f77b4;"/>
   </g>
   <g id="patch_50">
    <path clip-path="url(#p702682b010)" d="M 262.339131 307.584 
L 264.907964 307.584 
L 264.907964 187.329315 
L 262.339131 187.329315 
z
" style="fill:#1f77b4;"/>
   </g>
   <g id="patch_51">
    <path clip-path="url(#p702682b010)" d="M 264.907964 307.584 
L 267.476796 307.584 
L 267.476796 183.792875 
L 264.907964 183.792875 
z
" style="fill:#1f77b4;"/>
   </g>
   <g id="patch_52">
    <path clip-path="url(#p702682b010)" d="M 267.476796 307.584 
L 270.045629 307.584 
L 270.045629 171.611803 
L 267.476796 171.611803 
z
" style="fill:#1f77b4;"/>
   </g>
   <g id="patch_53">
    <path clip-path="url(#p702682b010)" d="M 270.045629 307.584 
L 272.614462 307.584 
L 272.614462 193.42771 
L 270.045629 193.42771 
z
" style="fill:#1f77b4;"/>
   </g>
   <g id="patch_54">
    <path clip-path="url(#p702682b010)" d="M 272.614462 307.584 
L 275.183295 307.584 
L 275.183295 233.743128 
L 272.614462 233.743128 
z
" style="fill:#1f77b4;"/>
   </g>
   <g id="patch_55">
    <path clip-path="url(#p702682b010)" d="M 275.183295 307.584 
L 277.752128 307.584 
L 277.752128 256.454933 
L 275.183295 256.454933 
z
" style="fill:#1f77b4;"/>
   </g>
   <g id="patch_56">
    <path clip-path="url(#p702682b010)" d="M 277.752128 307.584 
L 280.320961 307.584 
L 280.320961 261.280209 
L 277.752128 261.280209 
z
" style="fill:#1f77b4;"/>
   </g>
   <g id="patch_57">
    <path clip-path="url(#p702682b010)" d="M 280.320961 307.584 
L 282.889794 307.584 
L 282.889794 264.612322 
L 280.320961 264.612322 
z
" style="fill:#1f77b4;"/>
   </g>
   <g id="patch_58">
    <path clip-path="url(#p702682b010)" d="M 282.889794 307.584 
L 285.458627 307.584 
L 285.458627 266.435553 
L 282.889794 266.435553 
z
" style="fill:#1f77b4;"/>
   </g>
   <g id="patch_59">
    <path clip-path="url(#p702682b010)" d="M 285.458627 307.584 
L 288.027459 307.584 
L 288.027459 266.089768 
L 285.458627 266.089768 
z
" style="fill:#1f77b4;"/>
   </g>
   <g id="patch_60">
    <path clip-path="url(#p702682b010)" d="M 288.027459 307.584 
L 290.596292 307.584 
L 290.596292 268.274502 
L 288.027459 268.274502 
z
" style="fill:#1f77b4;"/>
   </g>
   <g id="patch_61">
    <path clip-path="url(#p702682b010)" d="M 290.596292 307.584 
L 293.165125 307.584 
L 293.165125 269.641926 
L 290.596292 269.641926 
z
" style="fill:#1f77b4;"/>
   </g>
   <g id="patch_62">
    <path clip-path="url(#p702682b010)" d="M 293.165125 307.584 
L 295.733958 307.584 
L 295.733958 272.486796 
L 293.165125 272.486796 
z
" style="fill:#1f77b4;"/>
   </g>
   <g id="patch_63">
    <path clip-path="url(#p702682b010)" d="M 295.733958 307.584 
L 298.302791 307.584 
L 298.302791 274.907292 
L 295.733958 274.907292 
z
" style="fill:#1f77b4;"/>
   </g>
   <g id="patch_64">
    <path clip-path="url(#p702682b010)" d="M 298.302791 307.584 
L 300.871624 307.584 
L 300.871624 277.972207 
L 298.302791 277.972207 
z
" style="fill:#1f77b4;"/>
   </g>
   <g id="patch_65">
    <path clip-path="url(#p702682b010)" d="M 300.871624 307.584 
L 303.440457 307.584 
L 303.440457 279.764004 
L 300.871624 279.764004 
z
" style="fill:#1f77b4;"/>
   </g>
   <g id="patch_66">
    <path clip-path="url(#p702682b010)" d="M 303.440457 307.584 
L 306.009289 307.584 
L 306.009289 282.325958 
L 303.440457 282.325958 
z
" style="fill:#1f77b4;"/>
   </g>
   <g id="patch_67">
    <path clip-path="url(#p702682b010)" d="M 306.009289 307.584 
L 308.578122 307.584 
L 308.578122 285.862398 
L 306.009289 285.862398 
z
" style="fill:#1f77b4;"/>
   </g>
   <g id="patch_68">
    <path clip-path="url(#p702682b010)" d="M 308.578122 307.584 
L 311.146955 307.584 
L 311.146955 288.06285 
L 308.578122 288.06285 
z
" style="fill:#1f77b4;"/>
   </g>
   <g id="patch_69">
    <path clip-path="url(#p702682b010)" d="M 311.146955 307.584 
L 313.715788 307.584 
L 313.715788 289.335969 
L 311.146955 289.335969 
z
" style="fill:#1f77b4;"/>
   </g>
   <g id="patch_70">
    <path clip-path="url(#p702682b010)" d="M 313.715788 307.584 
L 316.284621 307.584 
L 316.284621 293.108171 
L 313.715788 293.108171 
z
" style="fill:#1f77b4;"/>
   </g>
   <g id="patch_71">
    <path clip-path="url(#p702682b010)" d="M 316.284621 307.584 
L 318.853454 307.584 
L 318.853454 294.31842 
L 316.284621 294.31842 
z
" style="fill:#1f77b4;"/>
   </g>
   <g id="patch_72">
    <path clip-path="url(#p702682b010)" d="M 318.853454 307.584 
L 321.422287 307.584 
L 321.422287 295.764431 
L 318.853454 295.764431 
z
" style="fill:#1f77b4;"/>
   </g>
   <g id="patch_73">
    <path clip-path="url(#p702682b010)" d="M 321.422287 307.584 
L 323.99112 307.584 
L 323.99112 298.326385 
L 321.422287 298.326385 
z
" style="fill:#1f77b4;"/>
   </g>
   <g id="patch_74">
    <path clip-path="url(#p702682b010)" d="M 323.99112 307.584 
L 326.559952 307.584 
L 326.559952 299.285154 
L 323.99112 299.285154 
z
" style="fill:#1f77b4;"/>
   </g>
   <g id="patch_75">
    <path clip-path="url(#p702682b010)" d="M 326.559952 307.584 
L 329.128785 307.584 
L 329.128785 300.228204 
L 326.559952 300.228204 
z
" style="fill:#1f77b4;"/>
   </g>
   <g id="patch_76">
    <path clip-path="url(#p702682b010)" d="M 329.128785 307.584 
L 331.697618 307.584 
L 331.697618 302.145741 
L 329.128785 302.145741 
z
" style="fill:#1f77b4;"/>
   </g>
   <g id="patch_77">
    <path clip-path="url(#p702682b010)" d="M 331.697618 307.584 
L 334.266451 307.584 
L 334.266451 302.554396 
L 331.697618 302.554396 
z
" style="fill:#1f77b4;"/>
   </g>
   <g id="patch_78">
    <path clip-path="url(#p702682b010)" d="M 334.266451 307.584 
L 336.835284 307.584 
L 336.835284 303.434577 
L 334.266451 303.434577 
z
" style="fill:#1f77b4;"/>
   </g>
   <g id="patch_79">
    <path clip-path="url(#p702682b010)" d="M 336.835284 307.584 
L 339.404117 307.584 
L 339.404117 304.267605 
L 336.835284 304.267605 
z
" style="fill:#1f77b4;"/>
   </g>
   <g id="patch_80">
    <path clip-path="url(#p702682b010)" d="M 339.404117 307.584 
L 341.97295 307.584 
L 341.97295 304.817718 
L 339.404117 304.817718 
z
" style="fill:#1f77b4;"/>
   </g>
   <g id="patch_81">
    <path clip-path="url(#p702682b010)" d="M 341.97295 307.584 
L 344.541782 307.584 
L 344.541782 305.540723 
L 341.97295 305.540723 
z
" style="fill:#1f77b4;"/>
   </g>
   <g id="patch_82">
    <path clip-path="url(#p702682b010)" d="M 344.541782 307.584 
L 347.110615 307.584 
L 347.110615 306.075119 
L 344.541782 306.075119 
z
" style="fill:#1f77b4;"/>
   </g>
   <g id="patch_83">
    <path clip-path="url(#p702682b010)" d="M 347.110615 307.584 
L 349.679448 307.584 
L 349.679448 306.530927 
L 347.110615 306.530927 
z
" style="fill:#1f77b4;"/>
   </g>
   <g id="patch_84">
    <path clip-path="url(#p702682b010)" d="M 349.679448 307.584 
L 352.248281 307.584 
L 352.248281 306.546644 
L 349.679448 306.546644 
z
" style="fill:#1f77b4;"/>
   </g>
   <g id="patch_85">
    <path clip-path="url(#p702682b010)" d="M 352.248281 307.584 
L 354.817114 307.584 
L 354.817114 307.08104 
L 352.248281 307.08104 
z
" style="fill:#1f77b4;"/>
   </g>
   <g id="patch_86">
    <path clip-path="url(#p702682b010)" d="M 354.817114 307.584 
L 357.385947 307.584 
L 357.385947 307.112475 
L 354.817114 307.112475 
z
" style="fill:#1f77b4;"/>
   </g>
   <g id="patch_87">
    <path clip-path="url(#p702682b010)" d="M 357.385947 307.584 
L 359.95478 307.584 
L 359.95478 307.159627 
L 357.385947 307.159627 
z
" style="fill:#1f77b4;"/>
   </g>
   <g id="patch_88">
    <path clip-path="url(#p702682b010)" d="M 359.95478 307.584 
L 362.523613 307.584 
L 362.523613 307.45826 
L 359.95478 307.45826 
z
" style="fill:#1f77b4;"/>
   </g>
   <g id="patch_89">
    <path clip-path="url(#p702682b010)" d="M 362.523613 307.584 
L 365.092445 307.584 
L 365.092445 307.411107 
L 362.523613 307.411107 
z
" style="fill:#1f77b4;"/>
   </g>
   <g id="patch_90">
    <path clip-path="url(#p702682b010)" d="M 365.092445 307.584 
L 367.661278 307.584 
L 367.661278 307.505412 
L 365.092445 307.505412 
z
" style="fill:#1f77b4;"/>
   </g>
   <g id="patch_91">
    <path clip-path="url(#p702682b010)" d="M 367.661278 307.584 
L 370.230111 307.584 
L 370.230111 307.52113 
L 367.661278 307.52113 
z
" style="fill:#1f77b4;"/>
   </g>
   <g id="patch_92">
    <path clip-path="url(#p702682b010)" d="M 370.230111 307.584 
L 372.798944 307.584 
L 372.798944 307.505412 
L 370.230111 307.505412 
z
" style="fill:#1f77b4;"/>
   </g>
   <g id="patch_93">
    <path clip-path="url(#p702682b010)" d="M 372.798944 307.584 
L 375.367777 307.584 
L 375.367777 307.568282 
L 372.798944 307.568282 
z
" style="fill:#1f77b4;"/>
   </g>
   <g id="patch_94">
    <path clip-path="url(#p702682b010)" d="M 375.367777 307.584 
L 377.93661 307.584 
L 377.93661 307.568282 
L 375.367777 307.568282 
z
" style="fill:#1f77b4;"/>
   </g>
   <g id="patch_95">
    <path clip-path="url(#p702682b010)" d="M 377.93661 307.584 
L 380.505443 307.584 
L 380.505443 307.584 
L 377.93661 307.584 
z
" style="fill:#1f77b4;"/>
   </g>
   <g id="patch_96">
    <path clip-path="url(#p702682b010)" d="M 380.505443 307.584 
L 383.074276 307.584 
L 383.074276 307.568282 
L 380.505443 307.568282 
z
" style="fill:#1f77b4;"/>
   </g>
   <g id="patch_97">
    <path clip-path="url(#p702682b010)" d="M 383.074276 307.584 
L 385.643108 307.584 
L 385.643108 307.568282 
L 383.074276 307.568282 
z
" style="fill:#1f77b4;"/>
   </g>
   <g id="patch_98">
    <path clip-path="url(#p702682b010)" d="M 385.643108 307.584 
L 388.211941 307.584 
L 388.211941 307.552565 
L 385.643108 307.552565 
z
" style="fill:#1f77b4;"/>
   </g>
   <g id="patch_99">
    <path clip-path="url(#p702682b010)" d="M 388.211941 307.584 
L 390.780774 307.584 
L 390.780774 307.584 
L 388.211941 307.584 
z
" style="fill:#1f77b4;"/>
   </g>
   <g id="patch_100">
    <path clip-path="url(#p702682b010)" d="M 390.780774 307.584 
L 393.349607 307.584 
L 393.349607 307.584 
L 390.780774 307.584 
z
" style="fill:#1f77b4;"/>
   </g>
   <g id="patch_101">
    <path clip-path="url(#p702682b010)" d="M 393.349607 307.584 
L 395.91844 307.584 
L 395.91844 307.584 
L 393.349607 307.584 
z
" style="fill:#1f77b4;"/>
   </g>
   <g id="patch_102">
    <path clip-path="url(#p702682b010)" d="M 395.91844 307.584 
L 398.487273 307.584 
L 398.487273 307.568282 
L 395.91844 307.568282 
z
" style="fill:#1f77b4;"/>
   </g>
   <g id="matplotlib.axis_1">
    <g id="xtick_1">
     <g id="line2d_1">
      <defs>
       <path d="M 0 0 
L 0 3.5 
" id="m5a5cb6eac8" style="stroke:#000000;stroke-width:0.8;"/>
      </defs>
      <g>
       <use style="stroke:#000000;stroke-width:0.8;" x="93.178284" xlink:href="#m5a5cb6eac8" y="307.584"/>
      </g>
     </g>
     <g id="text_1">
      <!-- −2 -->
      <defs>
       <path d="M 10.59375 35.5 
L 73.1875 35.5 
L 73.1875 27.203125 
L 10.59375 27.203125 
z
" id="DejaVuSans-8722"/>
       <path d="M 19.1875 8.296875 
L 53.609375 8.296875 
L 53.609375 0 
L 7.328125 0 
L 7.328125 8.296875 
Q 12.9375 14.109375 22.625 23.890625 
Q 32.328125 33.6875 34.8125 36.53125 
Q 39.546875 41.84375 41.421875 45.53125 
Q 43.3125 49.21875 43.3125 52.78125 
Q 43.3125 58.59375 39.234375 62.25 
Q 35.15625 65.921875 28.609375 65.921875 
Q 23.96875 65.921875 18.8125 64.3125 
Q 13.671875 62.703125 7.8125 59.421875 
L 7.8125 69.390625 
Q 13.765625 71.78125 18.9375 73 
Q 24.125 74.21875 28.421875 74.21875 
Q 39.75 74.21875 46.484375 68.546875 
Q 53.21875 62.890625 53.21875 53.421875 
Q 53.21875 48.921875 51.53125 44.890625 
Q 49.859375 40.875 45.40625 35.40625 
Q 44.1875 33.984375 37.640625 27.21875 
Q 31.109375 20.453125 19.1875 8.296875 
z
" id="DejaVuSans-50"/>
      </defs>
      <g transform="translate(80.647425 327.501344)scale(0.17 -0.17)">
       <use xlink:href="#DejaVuSans-8722"/>
       <use x="83.789062" xlink:href="#DejaVuSans-50"/>
      </g>
     </g>
    </g>
    <g id="xtick_2">
     <g id="line2d_2">
      <g>
       <use style="stroke:#000000;stroke-width:0.8;" x="170.560512" xlink:href="#m5a5cb6eac8" y="307.584"/>
      </g>
     </g>
     <g id="text_2">
      <!-- 0 -->
      <defs>
       <path d="M 31.78125 66.40625 
Q 24.171875 66.40625 20.328125 58.90625 
Q 16.5 51.421875 16.5 36.375 
Q 16.5 21.390625 20.328125 13.890625 
Q 24.171875 6.390625 31.78125 6.390625 
Q 39.453125 6.390625 43.28125 13.890625 
Q 47.125 21.390625 47.125 36.375 
Q 47.125 51.421875 43.28125 58.90625 
Q 39.453125 66.40625 31.78125 66.40625 
z
M 31.78125 74.21875 
Q 44.046875 74.21875 50.515625 64.515625 
Q 56.984375 54.828125 56.984375 36.375 
Q 56.984375 17.96875 50.515625 8.265625 
Q 44.046875 -1.421875 31.78125 -1.421875 
Q 19.53125 -1.421875 13.0625 8.265625 
Q 6.59375 17.96875 6.59375 36.375 
Q 6.59375 54.828125 13.0625 64.515625 
Q 19.53125 74.21875 31.78125 74.21875 
z
" id="DejaVuSans-48"/>
      </defs>
      <g transform="translate(165.152387 327.501344)scale(0.17 -0.17)">
       <use xlink:href="#DejaVuSans-48"/>
      </g>
     </g>
    </g>
    <g id="xtick_3">
     <g id="line2d_3">
      <g>
       <use style="stroke:#000000;stroke-width:0.8;" x="247.94274" xlink:href="#m5a5cb6eac8" y="307.584"/>
      </g>
     </g>
     <g id="text_3">
      <!-- 2 -->
      <g transform="translate(242.534615 327.501344)scale(0.17 -0.17)">
       <use xlink:href="#DejaVuSans-50"/>
      </g>
     </g>
    </g>
    <g id="xtick_4">
     <g id="line2d_4">
      <g>
       <use style="stroke:#000000;stroke-width:0.8;" x="325.324968" xlink:href="#m5a5cb6eac8" y="307.584"/>
      </g>
     </g>
     <g id="text_4">
      <!-- 4 -->
      <defs>
       <path d="M 37.796875 64.3125 
L 12.890625 25.390625 
L 37.796875 25.390625 
z
M 35.203125 72.90625 
L 47.609375 72.90625 
L 47.609375 25.390625 
L 58.015625 25.390625 
L 58.015625 17.1875 
L 47.609375 17.1875 
L 47.609375 0 
L 37.796875 0 
L 37.796875 17.1875 
L 4.890625 17.1875 
L 4.890625 26.703125 
z
" id="DejaVuSans-52"/>
      </defs>
      <g transform="translate(319.916843 327.501344)scale(0.17 -0.17)">
       <use xlink:href="#DejaVuSans-52"/>
      </g>
     </g>
    </g>
    <g id="xtick_5">
     <g id="line2d_5">
      <g>
       <use style="stroke:#000000;stroke-width:0.8;" x="402.707196" xlink:href="#m5a5cb6eac8" y="307.584"/>
      </g>
     </g>
     <g id="text_5">
      <!-- 6 -->
      <defs>
       <path d="M 33.015625 40.375 
Q 26.375 40.375 22.484375 35.828125 
Q 18.609375 31.296875 18.609375 23.390625 
Q 18.609375 15.53125 22.484375 10.953125 
Q 26.375 6.390625 33.015625 6.390625 
Q 39.65625 6.390625 43.53125 10.953125 
Q 47.40625 15.53125 47.40625 23.390625 
Q 47.40625 31.296875 43.53125 35.828125 
Q 39.65625 40.375 33.015625 40.375 
z
M 52.59375 71.296875 
L 52.59375 62.3125 
Q 48.875 64.0625 45.09375 64.984375 
Q 41.3125 65.921875 37.59375 65.921875 
Q 27.828125 65.921875 22.671875 59.328125 
Q 17.53125 52.734375 16.796875 39.40625 
Q 19.671875 43.65625 24.015625 45.921875 
Q 28.375 48.1875 33.59375 48.1875 
Q 44.578125 48.1875 50.953125 41.515625 
Q 57.328125 34.859375 57.328125 23.390625 
Q 57.328125 12.15625 50.6875 5.359375 
Q 44.046875 -1.421875 33.015625 -1.421875 
Q 20.359375 -1.421875 13.671875 8.265625 
Q 6.984375 17.96875 6.984375 36.375 
Q 6.984375 53.65625 15.1875 63.9375 
Q 23.390625 74.21875 37.203125 74.21875 
Q 40.921875 74.21875 44.703125 73.484375 
Q 48.484375 72.75 52.59375 71.296875 
z
" id="DejaVuSans-54"/>
      </defs>
      <g transform="translate(397.299071 327.501344)scale(0.17 -0.17)">
       <use xlink:href="#DejaVuSans-54"/>
      </g>
     </g>
    </g>
    <g id="text_6">
     <!-- Compressed value -->
     <defs>
      <path d="M 64.40625 67.28125 
L 64.40625 56.890625 
Q 59.421875 61.53125 53.78125 63.8125 
Q 48.140625 66.109375 41.796875 66.109375 
Q 29.296875 66.109375 22.65625 58.46875 
Q 16.015625 50.828125 16.015625 36.375 
Q 16.015625 21.96875 22.65625 14.328125 
Q 29.296875 6.6875 41.796875 6.6875 
Q 48.140625 6.6875 53.78125 8.984375 
Q 59.421875 11.28125 64.40625 15.921875 
L 64.40625 5.609375 
Q 59.234375 2.09375 53.4375 0.328125 
Q 47.65625 -1.421875 41.21875 -1.421875 
Q 24.65625 -1.421875 15.125 8.703125 
Q 5.609375 18.84375 5.609375 36.375 
Q 5.609375 53.953125 15.125 64.078125 
Q 24.65625 74.21875 41.21875 74.21875 
Q 47.75 74.21875 53.53125 72.484375 
Q 59.328125 70.75 64.40625 67.28125 
z
" id="DejaVuSans-67"/>
      <path d="M 30.609375 48.390625 
Q 23.390625 48.390625 19.1875 42.75 
Q 14.984375 37.109375 14.984375 27.296875 
Q 14.984375 17.484375 19.15625 11.84375 
Q 23.34375 6.203125 30.609375 6.203125 
Q 37.796875 6.203125 41.984375 11.859375 
Q 46.1875 17.53125 46.1875 27.296875 
Q 46.1875 37.015625 41.984375 42.703125 
Q 37.796875 48.390625 30.609375 48.390625 
z
M 30.609375 56 
Q 42.328125 56 49.015625 48.375 
Q 55.71875 40.765625 55.71875 27.296875 
Q 55.71875 13.875 49.015625 6.21875 
Q 42.328125 -1.421875 30.609375 -1.421875 
Q 18.84375 -1.421875 12.171875 6.21875 
Q 5.515625 13.875 5.515625 27.296875 
Q 5.515625 40.765625 12.171875 48.375 
Q 18.84375 56 30.609375 56 
z
" id="DejaVuSans-111"/>
      <path d="M 52 44.1875 
Q 55.375 50.25 60.0625 53.125 
Q 64.75 56 71.09375 56 
Q 79.640625 56 84.28125 50.015625 
Q 88.921875 44.046875 88.921875 33.015625 
L 88.921875 0 
L 79.890625 0 
L 79.890625 32.71875 
Q 79.890625 40.578125 77.09375 44.375 
Q 74.3125 48.1875 68.609375 48.1875 
Q 61.625 48.1875 57.5625 43.546875 
Q 53.515625 38.921875 53.515625 30.90625 
L 53.515625 0 
L 44.484375 0 
L 44.484375 32.71875 
Q 44.484375 40.625 41.703125 44.40625 
Q 38.921875 48.1875 33.109375 48.1875 
Q 26.21875 48.1875 22.15625 43.53125 
Q 18.109375 38.875 18.109375 30.90625 
L 18.109375 0 
L 9.078125 0 
L 9.078125 54.6875 
L 18.109375 54.6875 
L 18.109375 46.1875 
Q 21.1875 51.21875 25.484375 53.609375 
Q 29.78125 56 35.6875 56 
Q 41.65625 56 45.828125 52.96875 
Q 50 49.953125 52 44.1875 
z
" id="DejaVuSans-109"/>
      <path d="M 18.109375 8.203125 
L 18.109375 -20.796875 
L 9.078125 -20.796875 
L 9.078125 54.6875 
L 18.109375 54.6875 
L 18.109375 46.390625 
Q 20.953125 51.265625 25.265625 53.625 
Q 29.59375 56 35.59375 56 
Q 45.5625 56 51.78125 48.09375 
Q 58.015625 40.1875 58.015625 27.296875 
Q 58.015625 14.40625 51.78125 6.484375 
Q 45.5625 -1.421875 35.59375 -1.421875 
Q 29.59375 -1.421875 25.265625 0.953125 
Q 20.953125 3.328125 18.109375 8.203125 
z
M 48.6875 27.296875 
Q 48.6875 37.203125 44.609375 42.84375 
Q 40.53125 48.484375 33.40625 48.484375 
Q 26.265625 48.484375 22.1875 42.84375 
Q 18.109375 37.203125 18.109375 27.296875 
Q 18.109375 17.390625 22.1875 11.75 
Q 26.265625 6.109375 33.40625 6.109375 
Q 40.53125 6.109375 44.609375 11.75 
Q 48.6875 17.390625 48.6875 27.296875 
z
" id="DejaVuSans-112"/>
      <path d="M 41.109375 46.296875 
Q 39.59375 47.171875 37.8125 47.578125 
Q 36.03125 48 33.890625 48 
Q 26.265625 48 22.1875 43.046875 
Q 18.109375 38.09375 18.109375 28.8125 
L 18.109375 0 
L 9.078125 0 
L 9.078125 54.6875 
L 18.109375 54.6875 
L 18.109375 46.1875 
Q 20.953125 51.171875 25.484375 53.578125 
Q 30.03125 56 36.53125 56 
Q 37.453125 56 38.578125 55.875 
Q 39.703125 55.765625 41.0625 55.515625 
z
" id="DejaVuSans-114"/>
      <path d="M 56.203125 29.59375 
L 56.203125 25.203125 
L 14.890625 25.203125 
Q 15.484375 15.921875 20.484375 11.0625 
Q 25.484375 6.203125 34.421875 6.203125 
Q 39.59375 6.203125 44.453125 7.46875 
Q 49.3125 8.734375 54.109375 11.28125 
L 54.109375 2.78125 
Q 49.265625 0.734375 44.1875 -0.34375 
Q 39.109375 -1.421875 33.890625 -1.421875 
Q 20.796875 -1.421875 13.15625 6.1875 
Q 5.515625 13.8125 5.515625 26.8125 
Q 5.515625 40.234375 12.765625 48.109375 
Q 20.015625 56 32.328125 56 
Q 43.359375 56 49.78125 48.890625 
Q 56.203125 41.796875 56.203125 29.59375 
z
M 47.21875 32.234375 
Q 47.125 39.59375 43.09375 43.984375 
Q 39.0625 48.390625 32.421875 48.390625 
Q 24.90625 48.390625 20.390625 44.140625 
Q 15.875 39.890625 15.1875 32.171875 
z
" id="DejaVuSans-101"/>
      <path d="M 44.28125 53.078125 
L 44.28125 44.578125 
Q 40.484375 46.53125 36.375 47.5 
Q 32.28125 48.484375 27.875 48.484375 
Q 21.1875 48.484375 17.84375 46.4375 
Q 14.5 44.390625 14.5 40.28125 
Q 14.5 37.15625 16.890625 35.375 
Q 19.28125 33.59375 26.515625 31.984375 
L 29.59375 31.296875 
Q 39.15625 29.25 43.1875 25.515625 
Q 47.21875 21.78125 47.21875 15.09375 
Q 47.21875 7.46875 41.1875 3.015625 
Q 35.15625 -1.421875 24.609375 -1.421875 
Q 20.21875 -1.421875 15.453125 -0.5625 
Q 10.6875 0.296875 5.421875 2 
L 5.421875 11.28125 
Q 10.40625 8.6875 15.234375 7.390625 
Q 20.0625 6.109375 24.8125 6.109375 
Q 31.15625 6.109375 34.5625 8.28125 
Q 37.984375 10.453125 37.984375 14.40625 
Q 37.984375 18.0625 35.515625 20.015625 
Q 33.0625 21.96875 24.703125 23.78125 
L 21.578125 24.515625 
Q 13.234375 26.265625 9.515625 29.90625 
Q 5.8125 33.546875 5.8125 39.890625 
Q 5.8125 47.609375 11.28125 51.796875 
Q 16.75 56 26.8125 56 
Q 31.78125 56 36.171875 55.265625 
Q 40.578125 54.546875 44.28125 53.078125 
z
" id="DejaVuSans-115"/>
      <path d="M 45.40625 46.390625 
L 45.40625 75.984375 
L 54.390625 75.984375 
L 54.390625 0 
L 45.40625 0 
L 45.40625 8.203125 
Q 42.578125 3.328125 38.25 0.953125 
Q 33.9375 -1.421875 27.875 -1.421875 
Q 17.96875 -1.421875 11.734375 6.484375 
Q 5.515625 14.40625 5.515625 27.296875 
Q 5.515625 40.1875 11.734375 48.09375 
Q 17.96875 56 27.875 56 
Q 33.9375 56 38.25 53.625 
Q 42.578125 51.265625 45.40625 46.390625 
z
M 14.796875 27.296875 
Q 14.796875 17.390625 18.875 11.75 
Q 22.953125 6.109375 30.078125 6.109375 
Q 37.203125 6.109375 41.296875 11.75 
Q 45.40625 17.390625 45.40625 27.296875 
Q 45.40625 37.203125 41.296875 42.84375 
Q 37.203125 48.484375 30.078125 48.484375 
Q 22.953125 48.484375 18.875 42.84375 
Q 14.796875 37.203125 14.796875 27.296875 
z
" id="DejaVuSans-100"/>
      <path id="DejaVuSans-32"/>
      <path d="M 2.984375 54.6875 
L 12.5 54.6875 
L 29.59375 8.796875 
L 46.6875 54.6875 
L 56.203125 54.6875 
L 35.6875 0 
L 23.484375 0 
z
" id="DejaVuSans-118"/>
      <path d="M 34.28125 27.484375 
Q 23.390625 27.484375 19.1875 25 
Q 14.984375 22.515625 14.984375 16.5 
Q 14.984375 11.71875 18.140625 8.90625 
Q 21.296875 6.109375 26.703125 6.109375 
Q 34.1875 6.109375 38.703125 11.40625 
Q 43.21875 16.703125 43.21875 25.484375 
L 43.21875 27.484375 
z
M 52.203125 31.203125 
L 52.203125 0 
L 43.21875 0 
L 43.21875 8.296875 
Q 40.140625 3.328125 35.546875 0.953125 
Q 30.953125 -1.421875 24.3125 -1.421875 
Q 15.921875 -1.421875 10.953125 3.296875 
Q 6 8.015625 6 15.921875 
Q 6 25.140625 12.171875 29.828125 
Q 18.359375 34.515625 30.609375 34.515625 
L 43.21875 34.515625 
L 43.21875 35.40625 
Q 43.21875 41.609375 39.140625 45 
Q 35.0625 48.390625 27.6875 48.390625 
Q 23 48.390625 18.546875 47.265625 
Q 14.109375 46.140625 10.015625 43.890625 
L 10.015625 52.203125 
Q 14.9375 54.109375 19.578125 55.046875 
Q 24.21875 56 28.609375 56 
Q 40.484375 56 46.34375 49.84375 
Q 52.203125 43.703125 52.203125 31.203125 
z
" id="DejaVuSans-97"/>
      <path d="M 9.421875 75.984375 
L 18.40625 75.984375 
L 18.40625 0 
L 9.421875 0 
z
" id="DejaVuSans-108"/>
      <path d="M 8.5 21.578125 
L 8.5 54.6875 
L 17.484375 54.6875 
L 17.484375 21.921875 
Q 17.484375 14.15625 20.5 10.265625 
Q 23.53125 6.390625 29.59375 6.390625 
Q 36.859375 6.390625 41.078125 11.03125 
Q 45.3125 15.671875 45.3125 23.6875 
L 45.3125 54.6875 
L 54.296875 54.6875 
L 54.296875 0 
L 45.3125 0 
L 45.3125 8.40625 
Q 42.046875 3.421875 37.71875 1 
Q 33.40625 -1.421875 27.6875 -1.421875 
Q 18.265625 -1.421875 13.375 4.4375 
Q 8.5 10.296875 8.5 21.578125 
z
M 31.109375 56 
z
" id="DejaVuSans-117"/>
     </defs>
     <g transform="translate(96.861562 357.832125)scale(0.3 -0.3)">
      <use xlink:href="#DejaVuSans-67"/>
      <use x="69.824219" xlink:href="#DejaVuSans-111"/>
      <use x="131.005859" xlink:href="#DejaVuSans-109"/>
      <use x="228.417969" xlink:href="#DejaVuSans-112"/>
      <use x="291.894531" xlink:href="#DejaVuSans-114"/>
      <use x="332.976562" xlink:href="#DejaVuSans-101"/>
      <use x="394.5" xlink:href="#DejaVuSans-115"/>
      <use x="446.599609" xlink:href="#DejaVuSans-115"/>
      <use x="498.699219" xlink:href="#DejaVuSans-101"/>
      <use x="560.222656" xlink:href="#DejaVuSans-100"/>
      <use x="623.699219" xlink:href="#DejaVuSans-32"/>
      <use x="655.486328" xlink:href="#DejaVuSans-118"/>
      <use x="714.666016" xlink:href="#DejaVuSans-97"/>
      <use x="775.945312" xlink:href="#DejaVuSans-108"/>
      <use x="803.728516" xlink:href="#DejaVuSans-117"/>
      <use x="867.107422" xlink:href="#DejaVuSans-101"/>
     </g>
    </g>
   </g>
   <g id="matplotlib.axis_2">
    <g id="ytick_1">
     <g id="line2d_6">
      <defs>
       <path d="M 0 0 
L -3.5 0 
" id="m71853c66d7" style="stroke:#000000;stroke-width:0.8;"/>
      </defs>
      <g>
       <use style="stroke:#000000;stroke-width:0.8;" x="57.6" xlink:href="#m71853c66d7" y="307.584"/>
      </g>
     </g>
     <g id="text_7">
      <!-- 0.0 -->
      <defs>
       <path d="M 10.6875 12.40625 
L 21 12.40625 
L 21 0 
L 10.6875 0 
z
" id="DejaVuSans-46"/>
      </defs>
      <g transform="translate(23.564687 314.042672)scale(0.17 -0.17)">
       <use xlink:href="#DejaVuSans-48"/>
       <use x="63.623047" xlink:href="#DejaVuSans-46"/>
       <use x="95.410156" xlink:href="#DejaVuSans-48"/>
      </g>
     </g>
    </g>
    <g id="ytick_2">
     <g id="line2d_7">
      <g>
       <use style="stroke:#000000;stroke-width:0.8;" x="57.6" xlink:href="#m71853c66d7" y="244.516716"/>
      </g>
     </g>
     <g id="text_8">
      <!-- 0.2 -->
      <g transform="translate(23.564687 250.975388)scale(0.17 -0.17)">
       <use xlink:href="#DejaVuSans-48"/>
       <use x="63.623047" xlink:href="#DejaVuSans-46"/>
       <use x="95.410156" xlink:href="#DejaVuSans-50"/>
      </g>
     </g>
    </g>
    <g id="ytick_3">
     <g id="line2d_8">
      <g>
       <use style="stroke:#000000;stroke-width:0.8;" x="57.6" xlink:href="#m71853c66d7" y="181.449432"/>
      </g>
     </g>
     <g id="text_9">
      <!-- 0.4 -->
      <g transform="translate(23.564687 187.908104)scale(0.17 -0.17)">
       <use xlink:href="#DejaVuSans-48"/>
       <use x="63.623047" xlink:href="#DejaVuSans-46"/>
       <use x="95.410156" xlink:href="#DejaVuSans-52"/>
      </g>
     </g>
    </g>
    <g id="ytick_4">
     <g id="line2d_9">
      <g>
       <use style="stroke:#000000;stroke-width:0.8;" x="57.6" xlink:href="#m71853c66d7" y="118.382147"/>
      </g>
     </g>
     <g id="text_10">
      <!-- 0.6 -->
      <g transform="translate(23.564687 124.840819)scale(0.17 -0.17)">
       <use xlink:href="#DejaVuSans-48"/>
       <use x="63.623047" xlink:href="#DejaVuSans-46"/>
       <use x="95.410156" xlink:href="#DejaVuSans-54"/>
      </g>
     </g>
    </g>
    <g id="ytick_5">
     <g id="line2d_10">
      <g>
       <use style="stroke:#000000;stroke-width:0.8;" x="57.6" xlink:href="#m71853c66d7" y="55.314863"/>
      </g>
     </g>
     <g id="text_11">
      <!-- 0.8 -->
      <defs>
       <path d="M 31.78125 34.625 
Q 24.75 34.625 20.71875 30.859375 
Q 16.703125 27.09375 16.703125 20.515625 
Q 16.703125 13.921875 20.71875 10.15625 
Q 24.75 6.390625 31.78125 6.390625 
Q 38.8125 6.390625 42.859375 10.171875 
Q 46.921875 13.96875 46.921875 20.515625 
Q 46.921875 27.09375 42.890625 30.859375 
Q 38.875 34.625 31.78125 34.625 
z
M 21.921875 38.8125 
Q 15.578125 40.375 12.03125 44.71875 
Q 8.5 49.078125 8.5 55.328125 
Q 8.5 64.0625 14.71875 69.140625 
Q 20.953125 74.21875 31.78125 74.21875 
Q 42.671875 74.21875 48.875 69.140625 
Q 55.078125 64.0625 55.078125 55.328125 
Q 55.078125 49.078125 51.53125 44.71875 
Q 48 40.375 41.703125 38.8125 
Q 48.828125 37.15625 52.796875 32.3125 
Q 56.78125 27.484375 56.78125 20.515625 
Q 56.78125 9.90625 50.3125 4.234375 
Q 43.84375 -1.421875 31.78125 -1.421875 
Q 19.734375 -1.421875 13.25 4.234375 
Q 6.78125 9.90625 6.78125 20.515625 
Q 6.78125 27.484375 10.78125 32.3125 
Q 14.796875 37.15625 21.921875 38.8125 
z
M 18.3125 54.390625 
Q 18.3125 48.734375 21.84375 45.5625 
Q 25.390625 42.390625 31.78125 42.390625 
Q 38.140625 42.390625 41.71875 45.5625 
Q 45.3125 48.734375 45.3125 54.390625 
Q 45.3125 60.0625 41.71875 63.234375 
Q 38.140625 66.40625 31.78125 66.40625 
Q 25.390625 66.40625 21.84375 63.234375 
Q 18.3125 60.0625 18.3125 54.390625 
z
" id="DejaVuSans-56"/>
      </defs>
      <g transform="translate(23.564687 61.773535)scale(0.17 -0.17)">
       <use xlink:href="#DejaVuSans-48"/>
       <use x="63.623047" xlink:href="#DejaVuSans-46"/>
       <use x="95.410156" xlink:href="#DejaVuSans-56"/>
      </g>
     </g>
    </g>
    <g id="text_12">
     <!-- Density -->
     <defs>
      <path d="M 19.671875 64.796875 
L 19.671875 8.109375 
L 31.59375 8.109375 
Q 46.6875 8.109375 53.6875 14.9375 
Q 60.6875 21.78125 60.6875 36.53125 
Q 60.6875 51.171875 53.6875 57.984375 
Q 46.6875 64.796875 31.59375 64.796875 
z
M 9.8125 72.90625 
L 30.078125 72.90625 
Q 51.265625 72.90625 61.171875 64.09375 
Q 71.09375 55.28125 71.09375 36.53125 
Q 71.09375 17.671875 61.125 8.828125 
Q 51.171875 0 30.078125 0 
L 9.8125 0 
z
" id="DejaVuSans-68"/>
      <path d="M 54.890625 33.015625 
L 54.890625 0 
L 45.90625 0 
L 45.90625 32.71875 
Q 45.90625 40.484375 42.875 44.328125 
Q 39.84375 48.1875 33.796875 48.1875 
Q 26.515625 48.1875 22.3125 43.546875 
Q 18.109375 38.921875 18.109375 30.90625 
L 18.109375 0 
L 9.078125 0 
L 9.078125 54.6875 
L 18.109375 54.6875 
L 18.109375 46.1875 
Q 21.34375 51.125 25.703125 53.5625 
Q 30.078125 56 35.796875 56 
Q 45.21875 56 50.046875 50.171875 
Q 54.890625 44.34375 54.890625 33.015625 
z
" id="DejaVuSans-110"/>
      <path d="M 9.421875 54.6875 
L 18.40625 54.6875 
L 18.40625 0 
L 9.421875 0 
z
M 9.421875 75.984375 
L 18.40625 75.984375 
L 18.40625 64.59375 
L 9.421875 64.59375 
z
" id="DejaVuSans-105"/>
      <path d="M 18.3125 70.21875 
L 18.3125 54.6875 
L 36.8125 54.6875 
L 36.8125 47.703125 
L 18.3125 47.703125 
L 18.3125 18.015625 
Q 18.3125 11.328125 20.140625 9.421875 
Q 21.96875 7.515625 27.59375 7.515625 
L 36.8125 7.515625 
L 36.8125 0 
L 27.59375 0 
Q 17.1875 0 13.234375 3.875 
Q 9.28125 7.765625 9.28125 18.015625 
L 9.28125 47.703125 
L 2.6875 47.703125 
L 2.6875 54.6875 
L 9.28125 54.6875 
L 9.28125 70.21875 
z
" id="DejaVuSans-116"/>
      <path d="M 32.171875 -5.078125 
Q 28.375 -14.84375 24.75 -17.8125 
Q 21.140625 -20.796875 15.09375 -20.796875 
L 7.90625 -20.796875 
L 7.90625 -13.28125 
L 13.1875 -13.28125 
Q 16.890625 -13.28125 18.9375 -11.515625 
Q 21 -9.765625 23.484375 -3.21875 
L 25.09375 0.875 
L 2.984375 54.6875 
L 12.5 54.6875 
L 29.59375 11.921875 
L 46.6875 54.6875 
L 56.203125 54.6875 
z
" id="DejaVuSans-121"/>
     </defs>
     <g transform="translate(13.325625 231.553781)rotate(-90)scale(0.3 -0.3)">
      <use xlink:href="#DejaVuSans-68"/>
      <use x="77.001953" xlink:href="#DejaVuSans-101"/>
      <use x="138.525391" xlink:href="#DejaVuSans-110"/>
      <use x="201.904297" xlink:href="#DejaVuSans-115"/>
      <use x="254.003906" xlink:href="#DejaVuSans-105"/>
      <use x="281.787109" xlink:href="#DejaVuSans-116"/>
      <use x="320.996094" xlink:href="#DejaVuSans-121"/>
     </g>
    </g>
   </g>
   <g id="line2d_11">
    <path clip-path="url(#p702682b010)" d="M 73.832727 307.584 
L 151.434544 307.472914 
L 155.42715 306.985424 
L 155.874649 306.858969 
L 156.374005 306.415105 
L 156.793336 306.192856 
L 157.461385 305.951693 
L 158.717777 304.798078 
L 159.563481 303.763623 
L 160.328519 303.198998 
L 160.758093 302.429721 
L 162.105394 299.699192 
L 162.547132 298.936911 
L 163.004554 297.606541 
L 163.744305 295.472774 
L 164.442763 294.087005 
L 164.984052 292.327919 
L 166.334554 286.290046 
L 166.857597 284.033568 
L 167.310858 282.299611 
L 168.208098 277.987576 
L 168.621027 277.489564 
L 168.899514 276.992975 
L 169.158155 275.986219 
L 169.579086 273.198967 
L 169.868456 272.029044 
L 169.951042 272.118297 
L 170.075881 272.746321 
L 170.277224 275.123735 
L 170.645019 282.750427 
L 171.101481 290.571185 
L 171.397253 292.374166 
L 171.700068 293.006356 
L 171.923818 293.086329 
L 172.103074 292.88459 
L 172.420613 292.09581 
L 173.253193 290.056293 
L 173.837375 289.251851 
L 174.095055 289.166388 
L 174.289676 289.360922 
L 174.690441 290.203583 
L 174.951963 290.46446 
L 175.109132 290.333576 
L 175.393701 289.706963 
L 175.849203 288.866888 
L 176.176665 288.691147 
L 176.700028 288.520697 
L 176.949706 287.946777 
L 177.322623 287.222766 
L 177.464747 287.311938 
L 177.95482 287.907497 
L 178.007636 287.850777 
L 178.197135 287.395281 
L 178.931765 285.393598 
L 179.704486 284.783499 
L 180.13598 284.722875 
L 180.409026 284.516801 
L 180.845322 284.201932 
L 181.12861 284.34977 
L 181.353 284.349868 
L 181.528415 284.064398 
L 181.859078 282.966566 
L 182.288012 281.84956 
L 183.064894 280.311435 
L 183.907077 278.187556 
L 184.385307 278.002596 
L 185.205723 277.909516 
L 185.459562 278.348062 
L 185.77518 278.746581 
L 185.907702 278.607949 
L 186.107764 277.984802 
L 186.824148 275.483392 
L 187.001803 275.541497 
L 187.318702 275.646398 
L 187.469789 275.365312 
L 187.702502 274.351385 
L 188.218183 272.126313 
L 188.355185 272.15327 
L 188.355505 272.153638 
L 188.566771 272.566914 
L 188.884951 273.020839 
L 189.054284 272.930041 
L 189.526431 272.587477 
L 189.733535 272.851829 
L 190.281867 273.582951 
L 190.551071 273.581306 
L 190.789545 273.34001 
L 191.114767 272.630552 
L 192.115399 270.264969 
L 192.333067 270.233381 
L 192.548174 270.473337 
L 193.072818 271.097721 
L 193.27256 270.96437 
L 193.659881 270.355581 
L 194.405393 269.130552 
L 194.430041 269.147175 
L 194.589131 269.421026 
L 194.94028 270.631231 
L 195.248857 271.284893 
L 195.415309 271.258174 
L 195.621133 270.924612 
L 196.38105 269.503516 
L 196.818626 269.202876 
L 197.066384 268.580331 
L 197.833663 266.413164 
L 198.390957 265.778662 
L 198.828534 264.626715 
L 199.534674 262.863022 
L 199.665915 262.960522 
L 199.882943 263.507295 
L 200.234092 264.226655 
L 200.369815 264.139707 
L 200.636458 263.574325 
L 200.902461 263.258898 
L 201.076915 263.378394 
L 201.365645 263.531681 
L 201.514172 263.28196 
L 201.809304 262.209031 
L 202.222553 261.022253 
L 202.543933 260.7036 
L 202.802254 260.730167 
L 203.124914 260.744767 
L 203.339061 260.44626 
L 204.571126 258.230204 
L 204.604736 258.254466 
L 204.767987 258.556396 
L 205.089047 259.744981 
L 205.54583 261.180875 
L 205.680592 261.188976 
L 205.694036 261.174601 
L 205.843523 260.82769 
L 206.125211 259.4698 
L 206.645053 257.181435 
L 207.034935 256.50053 
L 207.805415 255.554965 
L 208.086463 255.362669 
L 208.277562 254.841479 
L 208.638635 252.985533 
L 208.893435 252.285039 
L 208.987224 252.404675 
L 209.151435 253.103091 
L 209.738498 255.846843 
L 209.739459 255.846665 
L 209.852454 255.711066 
L 211.484643 252.5771 
L 211.63445 252.704944 
L 211.855319 253.270811 
L 212.362357 254.557777 
L 212.545774 254.54185 
L 212.784569 254.236435 
L 213.084502 253.471876 
L 213.521119 251.575838 
L 213.978541 250.045969 
L 214.544158 248.946575 
L 214.729176 248.954254 
L 214.946844 249.257597 
L 215.495175 250.046987 
L 215.638579 249.916092 
L 215.829999 249.355885 
L 216.386013 247.369812 
L 216.429546 247.399938 
L 216.56975 247.726369 
L 217.022691 248.869194 
L 217.031014 248.866191 
L 217.17762 248.683836 
L 217.538372 248.254916 
L 217.708986 248.434503 
L 218.093105 248.823882 
L 218.26692 248.658073 
L 219.116785 247.160342 
L 219.560123 245.97975 
L 220.643661 242.294184 
L 220.917027 240.503511 
L 221.383732 235.550462 
L 222.789931 218.19216 
L 224.216936 191.485428 
L 225.004702 175.866801 
L 226.606162 148.368154 
L 228.132078 120.04502 
L 229.528994 100.950761 
L 230.564837 92.083006 
L 231.332117 88.001635 
L 231.578594 87.472108 
L 231.582755 87.47341 
L 231.675904 87.626016 
L 231.82251 88.416207 
L 232.049781 91.091483 
L 232.451506 99.016837 
L 233.131078 111.589589 
L 233.664045 121.389116 
L 234.143554 128.647004 
L 234.829528 137.798868 
L 235.748215 152.790025 
L 236.331757 162.425597 
L 236.732202 165.461086 
L 237.65409 170.249542 
L 238.002999 171.101442 
L 238.145763 171.069006 
L 238.306133 170.695216 
L 238.609588 169.286146 
L 239.57853 164.578778 
L 239.891588 164.285206 
L 240.060601 163.451903 
L 240.328844 160.761829 
L 241.065714 153.071044 
L 241.318273 152.437804 
L 241.610844 151.944916 
L 241.816669 150.868363 
L 243.634836 138.802559 
L 243.821134 138.126479 
L 244.014795 136.322923 
L 244.354421 130.513326 
L 244.910434 122.067573 
L 246.72412 99.208643 
L 247.169699 90.184309 
L 248.666486 56.668938 
L 248.868469 56.149448 
L 248.87135 56.150053 
L 248.977623 56.290666 
L 249.35214 57.105691 
L 249.421282 57.013623 
L 249.570128 56.40931 
L 250.019228 54.144387 
L 250.070444 54.206526 
L 250.18376 54.741562 
L 250.378701 56.953008 
L 250.708083 63.687431 
L 251.898855 90.170801 
L 252.452628 98.28419 
L 254.067212 128.466035 
L 254.849216 140.626733 
L 255.286472 143.684557 
L 255.588966 144.612807 
L 255.846967 144.756055 
L 256.026543 144.983444 
L 256.277181 145.774625 
L 256.708356 147.886618 
L 256.967957 150.63613 
L 257.865517 161.547053 
L 258.243875 163.419636 
L 258.542848 166.848793 
L 259.017876 171.743412 
L 259.256671 172.344922 
L 259.558845 172.823846 
L 259.810124 173.940306 
L 260.312681 176.067295 
L 260.923431 177.383559 
L 261.24065 179.78891 
L 261.799545 183.695258 
L 262.093396 184.462873 
L 262.260168 184.462393 
L 262.629243 184.270653 
L 262.65133 184.304045 
L 262.803378 184.784538 
L 263.088587 186.623223 
L 263.502476 188.832327 
L 263.705419 189.028975 
L 263.891077 188.870901 
L 264.190691 188.686242 
L 264.350421 188.890242 
L 264.978457 190.039374 
L 265.028392 190.002073 
L 265.21437 189.660879 
L 265.488056 188.627021 
L 265.830883 186.360978 
L 266.865125 178.722973 
L 267.192908 178.026427 
L 267.287977 177.550886 
L 267.287977 177.550886 
" style="fill:none;stroke:#ff7f0e;stroke-linecap:square;stroke-width:1.5;"/>
   </g>
   <g id="patch_103">
    <path d="M 57.6 307.584 
L 57.6 41.472 
" style="fill:none;stroke:#000000;stroke-linecap:square;stroke-linejoin:miter;stroke-width:0.8;"/>
   </g>
   <g id="patch_104">
    <path d="M 414.72 307.584 
L 414.72 41.472 
" style="fill:none;stroke:#000000;stroke-linecap:square;stroke-linejoin:miter;stroke-width:0.8;"/>
   </g>
   <g id="patch_105">
    <path d="M 57.6 307.584 
L 414.72 307.584 
" style="fill:none;stroke:#000000;stroke-linecap:square;stroke-linejoin:miter;stroke-width:0.8;"/>
   </g>
   <g id="patch_106">
    <path d="M 57.6 41.472 
L 414.72 41.472 
" style="fill:none;stroke:#000000;stroke-linecap:square;stroke-linejoin:miter;stroke-width:0.8;"/>
   </g>
  </g>
 </g>
 <defs>
  <clipPath id="p702682b010">
   <rect height="266.112" width="357.12" x="57.6" y="41.472"/>
  </clipPath>
 </defs>
</svg>
