<?xml version="1.0" encoding="utf-8" standalone="no"?>
<!DOCTYPE svg PUBLIC "-//W3C//DTD SVG 1.1//EN"
  "http://www.w3.org/Graphics/SVG/1.1/DTD/svg11.dtd">
<!-- Created with matplotlib (https://matplotlib.org/) -->
<svg height="345.6pt" version="1.1" viewBox="0 0 460.8 345.6" width="460.8pt" xmlns="http://www.w3.org/2000/svg" xmlns:xlink="http://www.w3.org/1999/xlink">
 <defs>
  <style type="text/css">
*{stroke-linecap:butt;stroke-linejoin:round;}
  </style>
 </defs>
 <g id="figure_1">
  <g id="patch_1">
   <path d="M 0 345.6 
L 460.8 345.6 
L 460.8 0 
L 0 0 
z
" style="fill:#ffffff;"/>
  </g>
  <g id="axes_1">
   <g id="patch_2">
    <path d="M 57.6 307.584 
L 414.72 307.584 
L 414.72 41.472 
L 57.6 41.472 
z
" style="fill:#ffffff;"/>
   </g>
   <g id="patch_3">
    <path clip-path="url(#p1f669614da)" d="M 135.280525 307.584 
L 137.912592 307.584 
L 137.912592 307.527857 
L 135.280525 307.527857 
z
" style="fill:#1f77b4;"/>
   </g>
   <g id="patch_4">
    <path clip-path="url(#p1f669614da)" d="M 137.912592 307.584 
L 140.54466 307.584 
L 140.54466 307.527857 
L 137.912592 307.527857 
z
" style="fill:#1f77b4;"/>
   </g>
   <g id="patch_5">
    <path clip-path="url(#p1f669614da)" d="M 140.54466 307.584 
L 143.176727 307.584 
L 143.176727 307.373463 
L 140.54466 307.373463 
z
" style="fill:#1f77b4;"/>
   </g>
   <g id="patch_6">
    <path clip-path="url(#p1f669614da)" d="M 143.176727 307.584 
L 145.808794 307.584 
L 145.808794 306.98046 
L 143.176727 306.98046 
z
" style="fill:#1f77b4;"/>
   </g>
   <g id="patch_7">
    <path clip-path="url(#p1f669614da)" d="M 145.808794 307.584 
L 148.440862 307.584 
L 148.440862 306.587457 
L 145.808794 306.587457 
z
" style="fill:#1f77b4;"/>
   </g>
   <g id="patch_8">
    <path clip-path="url(#p1f669614da)" d="M 148.440862 307.584 
L 151.072929 307.584 
L 151.072929 304.889123 
L 148.440862 304.889123 
z
" style="fill:#1f77b4;"/>
   </g>
   <g id="patch_9">
    <path clip-path="url(#p1f669614da)" d="M 151.072929 307.584 
L 153.704997 307.584 
L 153.704997 303.55572 
L 151.072929 303.55572 
z
" style="fill:#1f77b4;"/>
   </g>
   <g id="patch_10">
    <path clip-path="url(#p1f669614da)" d="M 153.704997 307.584 
L 156.337064 307.584 
L 156.337064 301.324025 
L 153.704997 301.324025 
z
" style="fill:#1f77b4;"/>
   </g>
   <g id="patch_11">
    <path clip-path="url(#p1f669614da)" d="M 156.337064 307.584 
L 158.969132 307.584 
L 158.969132 298.58704 
L 156.337064 298.58704 
z
" style="fill:#1f77b4;"/>
   </g>
   <g id="patch_12">
    <path clip-path="url(#p1f669614da)" d="M 158.969132 307.584 
L 161.601199 307.584 
L 161.601199 296.467631 
L 158.969132 296.467631 
z
" style="fill:#1f77b4;"/>
   </g>
   <g id="patch_13">
    <path clip-path="url(#p1f669614da)" d="M 161.601199 307.584 
L 164.233267 307.584 
L 164.233267 293.014819 
L 161.601199 293.014819 
z
" style="fill:#1f77b4;"/>
   </g>
   <g id="patch_14">
    <path clip-path="url(#p1f669614da)" d="M 164.233267 307.584 
L 166.865334 307.584 
L 166.865334 289.323399 
L 164.233267 289.323399 
z
" style="fill:#1f77b4;"/>
   </g>
   <g id="patch_15">
    <path clip-path="url(#p1f669614da)" d="M 166.865334 307.584 
L 169.497402 307.584 
L 169.497402 287.568921 
L 166.865334 287.568921 
z
" style="fill:#1f77b4;"/>
   </g>
   <g id="patch_16">
    <path clip-path="url(#p1f669614da)" d="M 169.497402 307.584 
L 172.129469 307.584 
L 172.129469 283.919608 
L 169.497402 283.919608 
z
" style="fill:#1f77b4;"/>
   </g>
   <g id="patch_17">
    <path clip-path="url(#p1f669614da)" d="M 172.129469 307.584 
L 174.761537 307.584 
L 174.761537 281.982665 
L 172.129469 281.982665 
z
" style="fill:#1f77b4;"/>
   </g>
   <g id="patch_18">
    <path clip-path="url(#p1f669614da)" d="M 174.761537 307.584 
L 177.393604 307.584 
L 177.393604 279.694827 
L 174.761537 279.694827 
z
" style="fill:#1f77b4;"/>
   </g>
   <g id="patch_19">
    <path clip-path="url(#p1f669614da)" d="M 177.393604 307.584 
L 180.025672 307.584 
L 180.025672 276.424481 
L 177.393604 276.424481 
z
" style="fill:#1f77b4;"/>
   </g>
   <g id="patch_20">
    <path clip-path="url(#p1f669614da)" d="M 180.025672 307.584 
L 182.657739 307.584 
L 182.657739 273.729603 
L 180.025672 273.729603 
z
" style="fill:#1f77b4;"/>
   </g>
   <g id="patch_21">
    <path clip-path="url(#p1f669614da)" d="M 182.657739 307.584 
L 185.289807 307.584 
L 185.289807 269.715359 
L 182.657739 269.715359 
z
" style="fill:#1f77b4;"/>
   </g>
   <g id="patch_22">
    <path clip-path="url(#p1f669614da)" d="M 185.289807 307.584 
L 187.921874 307.584 
L 187.921874 265.827437 
L 185.289807 265.827437 
z
" style="fill:#1f77b4;"/>
   </g>
   <g id="patch_23">
    <path clip-path="url(#p1f669614da)" d="M 187.921874 307.584 
L 190.553942 307.584 
L 190.553942 262.136017 
L 187.921874 262.136017 
z
" style="fill:#1f77b4;"/>
   </g>
   <g id="patch_24">
    <path clip-path="url(#p1f669614da)" d="M 190.553942 307.584 
L 193.186009 307.584 
L 193.186009 255.665504 
L 190.553942 255.665504 
z
" style="fill:#1f77b4;"/>
   </g>
   <g id="patch_25">
    <path clip-path="url(#p1f669614da)" d="M 193.186009 307.584 
L 195.818077 307.584 
L 195.818077 252.409194 
L 193.186009 252.409194 
z
" style="fill:#1f77b4;"/>
   </g>
   <g id="patch_26">
    <path clip-path="url(#p1f669614da)" d="M 195.818077 307.584 
L 198.450144 307.584 
L 198.450144 250.612609 
L 195.818077 250.612609 
z
" style="fill:#1f77b4;"/>
   </g>
   <g id="patch_27">
    <path clip-path="url(#p1f669614da)" d="M 198.450144 307.584 
L 201.082212 307.584 
L 201.082212 246.303612 
L 198.450144 246.303612 
z
" style="fill:#1f77b4;"/>
   </g>
   <g id="patch_28">
    <path clip-path="url(#p1f669614da)" d="M 201.082212 307.584 
L 203.714279 307.584 
L 203.714279 243.805236 
L 201.082212 243.805236 
z
" style="fill:#1f77b4;"/>
   </g>
   <g id="patch_29">
    <path clip-path="url(#p1f669614da)" d="M 203.714279 307.584 
L 206.346347 307.584 
L 206.346347 252.170585 
L 203.714279 252.170585 
z
" style="fill:#1f77b4;"/>
   </g>
   <g id="patch_30">
    <path clip-path="url(#p1f669614da)" d="M 206.346347 307.584 
L 208.978414 307.584 
L 208.978414 267.455592 
L 206.346347 267.455592 
z
" style="fill:#1f77b4;"/>
   </g>
   <g id="patch_31">
    <path clip-path="url(#p1f669614da)" d="M 208.978414 307.584 
L 211.610482 307.584 
L 211.610482 249.952925 
L 208.978414 249.952925 
z
" style="fill:#1f77b4;"/>
   </g>
   <g id="patch_32">
    <path clip-path="url(#p1f669614da)" d="M 211.610482 307.584 
L 214.242549 307.584 
L 214.242549 223.874373 
L 211.610482 223.874373 
z
" style="fill:#1f77b4;"/>
   </g>
   <g id="patch_33">
    <path clip-path="url(#p1f669614da)" d="M 214.242549 307.584 
L 216.874616 307.584 
L 216.874616 193.585074 
L 214.242549 193.585074 
z
" style="fill:#1f77b4;"/>
   </g>
   <g id="patch_34">
    <path clip-path="url(#p1f669614da)" d="M 216.874616 307.584 
L 219.506684 307.584 
L 219.506684 173.82264 
L 216.874616 173.82264 
z
" style="fill:#1f77b4;"/>
   </g>
   <g id="patch_35">
    <path clip-path="url(#p1f669614da)" d="M 219.506684 307.584 
L 222.138751 307.584 
L 222.138751 170.580366 
L 219.506684 170.580366 
z
" style="fill:#1f77b4;"/>
   </g>
   <g id="patch_36">
    <path clip-path="url(#p1f669614da)" d="M 222.138751 307.584 
L 224.770819 307.584 
L 224.770819 179.001858 
L 222.138751 179.001858 
z
" style="fill:#1f77b4;"/>
   </g>
   <g id="patch_37">
    <path clip-path="url(#p1f669614da)" d="M 224.770819 307.584 
L 227.402886 307.584 
L 227.402886 172.769954 
L 224.770819 172.769954 
z
" style="fill:#1f77b4;"/>
   </g>
   <g id="patch_38">
    <path clip-path="url(#p1f669614da)" d="M 227.402886 307.584 
L 230.034954 307.584 
L 230.034954 150.551252 
L 227.402886 150.551252 
z
" style="fill:#1f77b4;"/>
   </g>
   <g id="patch_39">
    <path clip-path="url(#p1f669614da)" d="M 230.034954 307.584 
L 232.667021 307.584 
L 232.667021 111.264993 
L 230.034954 111.264993 
z
" style="fill:#1f77b4;"/>
   </g>
   <g id="patch_40">
    <path clip-path="url(#p1f669614da)" d="M 232.667021 307.584 
L 235.299089 307.584 
L 235.299089 62.265947 
L 232.667021 62.265947 
z
" style="fill:#1f77b4;"/>
   </g>
   <g id="patch_41">
    <path clip-path="url(#p1f669614da)" d="M 235.299089 307.584 
L 237.931156 307.584 
L 237.931156 81.410805 
L 235.299089 81.410805 
z
" style="fill:#1f77b4;"/>
   </g>
   <g id="patch_42">
    <path clip-path="url(#p1f669614da)" d="M 237.931156 307.584 
L 240.563224 307.584 
L 240.563224 131.392358 
L 237.931156 131.392358 
z
" style="fill:#1f77b4;"/>
   </g>
   <g id="patch_43">
    <path clip-path="url(#p1f669614da)" d="M 240.563224 307.584 
L 243.195291 307.584 
L 243.195291 150.705646 
L 240.563224 150.705646 
z
" style="fill:#1f77b4;"/>
   </g>
   <g id="patch_44">
    <path clip-path="url(#p1f669614da)" d="M 243.195291 307.584 
L 245.827359 307.584 
L 245.827359 164.404606 
L 243.195291 164.404606 
z
" style="fill:#1f77b4;"/>
   </g>
   <g id="patch_45">
    <path clip-path="url(#p1f669614da)" d="M 245.827359 307.584 
L 248.459426 307.584 
L 248.459426 174.1595 
L 245.827359 174.1595 
z
" style="fill:#1f77b4;"/>
   </g>
   <g id="patch_46">
    <path clip-path="url(#p1f669614da)" d="M 248.459426 307.584 
L 251.091494 307.584 
L 251.091494 154.607604 
L 248.459426 154.607604 
z
" style="fill:#1f77b4;"/>
   </g>
   <g id="patch_47">
    <path clip-path="url(#p1f669614da)" d="M 251.091494 307.584 
L 253.723561 307.584 
L 253.723561 132.094149 
L 251.091494 132.094149 
z
" style="fill:#1f77b4;"/>
   </g>
   <g id="patch_48">
    <path clip-path="url(#p1f669614da)" d="M 253.723561 307.584 
L 256.355629 307.584 
L 256.355629 154.228636 
L 253.723561 154.228636 
z
" style="fill:#1f77b4;"/>
   </g>
   <g id="patch_49">
    <path clip-path="url(#p1f669614da)" d="M 256.355629 307.584 
L 258.987696 307.584 
L 258.987696 209.684159 
L 256.355629 209.684159 
z
" style="fill:#1f77b4;"/>
   </g>
   <g id="patch_50">
    <path clip-path="url(#p1f669614da)" d="M 258.987696 307.584 
L 261.619764 307.584 
L 261.619764 248.66163 
L 258.987696 248.66163 
z
" style="fill:#1f77b4;"/>
   </g>
   <g id="patch_51">
    <path clip-path="url(#p1f669614da)" d="M 261.619764 307.584 
L 264.251831 307.584 
L 264.251831 261.630727 
L 261.619764 261.630727 
z
" style="fill:#1f77b4;"/>
   </g>
   <g id="patch_52">
    <path clip-path="url(#p1f669614da)" d="M 264.251831 307.584 
L 266.883899 307.584 
L 266.883899 265.995867 
L 264.251831 265.995867 
z
" style="fill:#1f77b4;"/>
   </g>
   <g id="patch_53">
    <path clip-path="url(#p1f669614da)" d="M 266.883899 307.584 
L 269.515966 307.584 
L 269.515966 269.785538 
L 266.883899 269.785538 
z
" style="fill:#1f77b4;"/>
   </g>
   <g id="patch_54">
    <path clip-path="url(#p1f669614da)" d="M 269.515966 307.584 
L 272.148034 307.584 
L 272.148034 269.81361 
L 269.515966 269.81361 
z
" style="fill:#1f77b4;"/>
   </g>
   <g id="patch_55">
    <path clip-path="url(#p1f669614da)" d="M 272.148034 307.584 
L 274.780101 307.584 
L 274.780101 271.736517 
L 272.148034 271.736517 
z
" style="fill:#1f77b4;"/>
   </g>
   <g id="patch_56">
    <path clip-path="url(#p1f669614da)" d="M 274.780101 307.584 
L 277.412169 307.584 
L 277.412169 274.052427 
L 274.780101 274.052427 
z
" style="fill:#1f77b4;"/>
   </g>
   <g id="patch_57">
    <path clip-path="url(#p1f669614da)" d="M 277.412169 307.584 
L 280.044236 307.584 
L 280.044236 275.273544 
L 277.412169 275.273544 
z
" style="fill:#1f77b4;"/>
   </g>
   <g id="patch_58">
    <path clip-path="url(#p1f669614da)" d="M 280.044236 307.584 
L 282.676304 307.584 
L 282.676304 276.733269 
L 280.044236 276.733269 
z
" style="fill:#1f77b4;"/>
   </g>
   <g id="patch_59">
    <path clip-path="url(#p1f669614da)" d="M 282.676304 307.584 
L 285.308371 307.584 
L 285.308371 277.238558 
L 282.676304 277.238558 
z
" style="fill:#1f77b4;"/>
   </g>
   <g id="patch_60">
    <path clip-path="url(#p1f669614da)" d="M 285.308371 307.584 
L 287.940438 307.584 
L 287.940438 279.189537 
L 285.308371 279.189537 
z
" style="fill:#1f77b4;"/>
   </g>
   <g id="patch_61">
    <path clip-path="url(#p1f669614da)" d="M 287.940438 307.584 
L 290.572506 307.584 
L 290.572506 281.701949 
L 287.940438 281.701949 
z
" style="fill:#1f77b4;"/>
   </g>
   <g id="patch_62">
    <path clip-path="url(#p1f669614da)" d="M 290.572506 307.584 
L 293.204573 307.584 
L 293.204573 282.866922 
L 290.572506 282.866922 
z
" style="fill:#1f77b4;"/>
   </g>
   <g id="patch_63">
    <path clip-path="url(#p1f669614da)" d="M 293.204573 307.584 
L 295.836641 307.584 
L 295.836641 283.00728 
L 293.204573 283.00728 
z
" style="fill:#1f77b4;"/>
   </g>
   <g id="patch_64">
    <path clip-path="url(#p1f669614da)" d="M 295.836641 307.584 
L 298.468708 307.584 
L 298.468708 285.926731 
L 295.836641 285.926731 
z
" style="fill:#1f77b4;"/>
   </g>
   <g id="patch_65">
    <path clip-path="url(#p1f669614da)" d="M 298.468708 307.584 
L 301.100776 307.584 
L 301.100776 285.884623 
L 298.468708 285.884623 
z
" style="fill:#1f77b4;"/>
   </g>
   <g id="patch_66">
    <path clip-path="url(#p1f669614da)" d="M 301.100776 307.584 
L 303.732843 307.584 
L 303.732843 289.547972 
L 301.100776 289.547972 
z
" style="fill:#1f77b4;"/>
   </g>
   <g id="patch_67">
    <path clip-path="url(#p1f669614da)" d="M 303.732843 307.584 
L 306.364911 307.584 
L 306.364911 290.319942 
L 303.732843 290.319942 
z
" style="fill:#1f77b4;"/>
   </g>
   <g id="patch_68">
    <path clip-path="url(#p1f669614da)" d="M 306.364911 307.584 
L 308.996978 307.584 
L 308.996978 292.467422 
L 306.364911 292.467422 
z
" style="fill:#1f77b4;"/>
   </g>
   <g id="patch_69">
    <path clip-path="url(#p1f669614da)" d="M 308.996978 307.584 
L 311.629046 307.584 
L 311.629046 293.548181 
L 308.996978 293.548181 
z
" style="fill:#1f77b4;"/>
   </g>
   <g id="patch_70">
    <path clip-path="url(#p1f669614da)" d="M 311.629046 307.584 
L 314.261113 307.584 
L 314.261113 294.951762 
L 311.629046 294.951762 
z
" style="fill:#1f77b4;"/>
   </g>
   <g id="patch_71">
    <path clip-path="url(#p1f669614da)" d="M 314.261113 307.584 
L 316.893181 307.584 
L 316.893181 295.639518 
L 314.261113 295.639518 
z
" style="fill:#1f77b4;"/>
   </g>
   <g id="patch_72">
    <path clip-path="url(#p1f669614da)" d="M 316.893181 307.584 
L 319.525248 307.584 
L 319.525248 297.099243 
L 316.893181 297.099243 
z
" style="fill:#1f77b4;"/>
   </g>
   <g id="patch_73">
    <path clip-path="url(#p1f669614da)" d="M 319.525248 307.584 
L 322.157316 307.584 
L 322.157316 298.474753 
L 319.525248 298.474753 
z
" style="fill:#1f77b4;"/>
   </g>
   <g id="patch_74">
    <path clip-path="url(#p1f669614da)" d="M 322.157316 307.584 
L 324.789383 307.584 
L 324.789383 299.008114 
L 322.157316 299.008114 
z
" style="fill:#1f77b4;"/>
   </g>
   <g id="patch_75">
    <path clip-path="url(#p1f669614da)" d="M 324.789383 307.584 
L 327.421451 307.584 
L 327.421451 300.13098 
L 324.789383 300.13098 
z
" style="fill:#1f77b4;"/>
   </g>
   <g id="patch_76">
    <path clip-path="url(#p1f669614da)" d="M 327.421451 307.584 
L 330.053518 307.584 
L 330.053518 301.057344 
L 327.421451 301.057344 
z
" style="fill:#1f77b4;"/>
   </g>
   <g id="patch_77">
    <path clip-path="url(#p1f669614da)" d="M 330.053518 307.584 
L 332.685586 307.584 
L 332.685586 302.643392 
L 330.053518 302.643392 
z
" style="fill:#1f77b4;"/>
   </g>
   <g id="patch_78">
    <path clip-path="url(#p1f669614da)" d="M 332.685586 307.584 
L 335.317653 307.584 
L 335.317653 302.924108 
L 332.685586 302.924108 
z
" style="fill:#1f77b4;"/>
   </g>
   <g id="patch_79">
    <path clip-path="url(#p1f669614da)" d="M 335.317653 307.584 
L 337.949721 307.584 
L 337.949721 303.38729 
L 335.317653 303.38729 
z
" style="fill:#1f77b4;"/>
   </g>
   <g id="patch_80">
    <path clip-path="url(#p1f669614da)" d="M 337.949721 307.584 
L 340.581788 307.584 
L 340.581788 303.878544 
L 337.949721 303.878544 
z
" style="fill:#1f77b4;"/>
   </g>
   <g id="patch_81">
    <path clip-path="url(#p1f669614da)" d="M 340.581788 307.584 
L 343.213856 307.584 
L 343.213856 304.678585 
L 340.581788 304.678585 
z
" style="fill:#1f77b4;"/>
   </g>
   <g id="patch_82">
    <path clip-path="url(#p1f669614da)" d="M 343.213856 307.584 
L 345.845923 307.584 
L 345.845923 304.945266 
L 343.213856 304.945266 
z
" style="fill:#1f77b4;"/>
   </g>
   <g id="patch_83">
    <path clip-path="url(#p1f669614da)" d="M 345.845923 307.584 
L 348.477991 307.584 
L 348.477991 305.43652 
L 345.845923 305.43652 
z
" style="fill:#1f77b4;"/>
   </g>
   <g id="patch_84">
    <path clip-path="url(#p1f669614da)" d="M 348.477991 307.584 
L 351.110058 307.584 
L 351.110058 305.576878 
L 348.477991 305.576878 
z
" style="fill:#1f77b4;"/>
   </g>
   <g id="patch_85">
    <path clip-path="url(#p1f669614da)" d="M 351.110058 307.584 
L 353.742126 307.584 
L 353.742126 305.885666 
L 351.110058 305.885666 
z
" style="fill:#1f77b4;"/>
   </g>
   <g id="patch_86">
    <path clip-path="url(#p1f669614da)" d="M 353.742126 307.584 
L 356.374193 307.584 
L 356.374193 306.741851 
L 353.742126 306.741851 
z
" style="fill:#1f77b4;"/>
   </g>
   <g id="patch_87">
    <path clip-path="url(#p1f669614da)" d="M 356.374193 307.584 
L 359.006261 307.584 
L 359.006261 306.517278 
L 356.374193 306.517278 
z
" style="fill:#1f77b4;"/>
   </g>
   <g id="patch_88">
    <path clip-path="url(#p1f669614da)" d="M 359.006261 307.584 
L 361.638328 307.584 
L 361.638328 306.699743 
L 359.006261 306.699743 
z
" style="fill:#1f77b4;"/>
   </g>
   <g id="patch_89">
    <path clip-path="url(#p1f669614da)" d="M 361.638328 307.584 
L 364.270395 307.584 
L 364.270395 306.924316 
L 361.638328 306.924316 
z
" style="fill:#1f77b4;"/>
   </g>
   <g id="patch_90">
    <path clip-path="url(#p1f669614da)" d="M 364.270395 307.584 
L 366.902463 307.584 
L 366.902463 306.98046 
L 364.270395 306.98046 
z
" style="fill:#1f77b4;"/>
   </g>
   <g id="patch_91">
    <path clip-path="url(#p1f669614da)" d="M 366.902463 307.584 
L 369.53453 307.584 
L 369.53453 307.064675 
L 366.902463 307.064675 
z
" style="fill:#1f77b4;"/>
   </g>
   <g id="patch_92">
    <path clip-path="url(#p1f669614da)" d="M 369.53453 307.584 
L 372.166598 307.584 
L 372.166598 307.14889 
L 369.53453 307.14889 
z
" style="fill:#1f77b4;"/>
   </g>
   <g id="patch_93">
    <path clip-path="url(#p1f669614da)" d="M 372.166598 307.584 
L 374.798665 307.584 
L 374.798665 307.331355 
L 372.166598 307.331355 
z
" style="fill:#1f77b4;"/>
   </g>
   <g id="patch_94">
    <path clip-path="url(#p1f669614da)" d="M 374.798665 307.584 
L 377.430733 307.584 
L 377.430733 307.387499 
L 374.798665 307.387499 
z
" style="fill:#1f77b4;"/>
   </g>
   <g id="patch_95">
    <path clip-path="url(#p1f669614da)" d="M 377.430733 307.584 
L 380.0628 307.584 
L 380.0628 307.471713 
L 377.430733 307.471713 
z
" style="fill:#1f77b4;"/>
   </g>
   <g id="patch_96">
    <path clip-path="url(#p1f669614da)" d="M 380.0628 307.584 
L 382.694868 307.584 
L 382.694868 307.513821 
L 380.0628 307.513821 
z
" style="fill:#1f77b4;"/>
   </g>
   <g id="patch_97">
    <path clip-path="url(#p1f669614da)" d="M 382.694868 307.584 
L 385.326935 307.584 
L 385.326935 307.541893 
L 382.694868 307.541893 
z
" style="fill:#1f77b4;"/>
   </g>
   <g id="patch_98">
    <path clip-path="url(#p1f669614da)" d="M 385.326935 307.584 
L 387.959003 307.584 
L 387.959003 307.499785 
L 385.326935 307.499785 
z
" style="fill:#1f77b4;"/>
   </g>
   <g id="patch_99">
    <path clip-path="url(#p1f669614da)" d="M 387.959003 307.584 
L 390.59107 307.584 
L 390.59107 307.513821 
L 387.959003 307.513821 
z
" style="fill:#1f77b4;"/>
   </g>
   <g id="patch_100">
    <path clip-path="url(#p1f669614da)" d="M 390.59107 307.584 
L 393.223138 307.584 
L 393.223138 307.541893 
L 390.59107 307.541893 
z
" style="fill:#1f77b4;"/>
   </g>
   <g id="patch_101">
    <path clip-path="url(#p1f669614da)" d="M 393.223138 307.584 
L 395.855205 307.584 
L 395.855205 307.584 
L 393.223138 307.584 
z
" style="fill:#1f77b4;"/>
   </g>
   <g id="patch_102">
    <path clip-path="url(#p1f669614da)" d="M 395.855205 307.584 
L 398.487273 307.584 
L 398.487273 307.555928 
L 395.855205 307.555928 
z
" style="fill:#1f77b4;"/>
   </g>
   <g id="matplotlib.axis_1">
    <g id="xtick_1">
     <g id="line2d_1">
      <defs>
       <path d="M 0 0 
L 0 3.5 
" id="m35680716f1" style="stroke:#000000;stroke-width:0.8;"/>
      </defs>
      <g>
       <use style="stroke:#000000;stroke-width:0.8;" x="100.076203" xlink:href="#m35680716f1" y="307.584"/>
      </g>
     </g>
     <g id="text_1">
      <!-- −2 -->
      <defs>
       <path d="M 10.59375 35.5 
L 73.1875 35.5 
L 73.1875 27.203125 
L 10.59375 27.203125 
z
" id="DejaVuSans-8722"/>
       <path d="M 19.1875 8.296875 
L 53.609375 8.296875 
L 53.609375 0 
L 7.328125 0 
L 7.328125 8.296875 
Q 12.9375 14.109375 22.625 23.890625 
Q 32.328125 33.6875 34.8125 36.53125 
Q 39.546875 41.84375 41.421875 45.53125 
Q 43.3125 49.21875 43.3125 52.78125 
Q 43.3125 58.59375 39.234375 62.25 
Q 35.15625 65.921875 28.609375 65.921875 
Q 23.96875 65.921875 18.8125 64.3125 
Q 13.671875 62.703125 7.8125 59.421875 
L 7.8125 69.390625 
Q 13.765625 71.78125 18.9375 73 
Q 24.125 74.21875 28.421875 74.21875 
Q 39.75 74.21875 46.484375 68.546875 
Q 53.21875 62.890625 53.21875 53.421875 
Q 53.21875 48.921875 51.53125 44.890625 
Q 49.859375 40.875 45.40625 35.40625 
Q 44.1875 33.984375 37.640625 27.21875 
Q 31.109375 20.453125 19.1875 8.296875 
z
" id="DejaVuSans-50"/>
      </defs>
      <g transform="translate(87.545344 327.501344)scale(0.17 -0.17)">
       <use xlink:href="#DejaVuSans-8722"/>
       <use x="83.789062" xlink:href="#DejaVuSans-50"/>
      </g>
     </g>
    </g>
    <g id="xtick_2">
     <g id="line2d_2">
      <g>
       <use style="stroke:#000000;stroke-width:0.8;" x="152.563155" xlink:href="#m35680716f1" y="307.584"/>
      </g>
     </g>
     <g id="text_2">
      <!-- −1 -->
      <defs>
       <path d="M 12.40625 8.296875 
L 28.515625 8.296875 
L 28.515625 63.921875 
L 10.984375 60.40625 
L 10.984375 69.390625 
L 28.421875 72.90625 
L 38.28125 72.90625 
L 38.28125 8.296875 
L 54.390625 8.296875 
L 54.390625 0 
L 12.40625 0 
z
" id="DejaVuSans-49"/>
      </defs>
      <g transform="translate(140.032296 327.501344)scale(0.17 -0.17)">
       <use xlink:href="#DejaVuSans-8722"/>
       <use x="83.789062" xlink:href="#DejaVuSans-49"/>
      </g>
     </g>
    </g>
    <g id="xtick_3">
     <g id="line2d_3">
      <g>
       <use style="stroke:#000000;stroke-width:0.8;" x="205.050107" xlink:href="#m35680716f1" y="307.584"/>
      </g>
     </g>
     <g id="text_3">
      <!-- 0 -->
      <defs>
       <path d="M 31.78125 66.40625 
Q 24.171875 66.40625 20.328125 58.90625 
Q 16.5 51.421875 16.5 36.375 
Q 16.5 21.390625 20.328125 13.890625 
Q 24.171875 6.390625 31.78125 6.390625 
Q 39.453125 6.390625 43.28125 13.890625 
Q 47.125 21.390625 47.125 36.375 
Q 47.125 51.421875 43.28125 58.90625 
Q 39.453125 66.40625 31.78125 66.40625 
z
M 31.78125 74.21875 
Q 44.046875 74.21875 50.515625 64.515625 
Q 56.984375 54.828125 56.984375 36.375 
Q 56.984375 17.96875 50.515625 8.265625 
Q 44.046875 -1.421875 31.78125 -1.421875 
Q 19.53125 -1.421875 13.0625 8.265625 
Q 6.59375 17.96875 6.59375 36.375 
Q 6.59375 54.828125 13.0625 64.515625 
Q 19.53125 74.21875 31.78125 74.21875 
z
" id="DejaVuSans-48"/>
      </defs>
      <g transform="translate(199.641982 327.501344)scale(0.17 -0.17)">
       <use xlink:href="#DejaVuSans-48"/>
      </g>
     </g>
    </g>
    <g id="xtick_4">
     <g id="line2d_4">
      <g>
       <use style="stroke:#000000;stroke-width:0.8;" x="257.537059" xlink:href="#m35680716f1" y="307.584"/>
      </g>
     </g>
     <g id="text_4">
      <!-- 1 -->
      <g transform="translate(252.128934 327.501344)scale(0.17 -0.17)">
       <use xlink:href="#DejaVuSans-49"/>
      </g>
     </g>
    </g>
    <g id="xtick_5">
     <g id="line2d_5">
      <g>
       <use style="stroke:#000000;stroke-width:0.8;" x="310.024011" xlink:href="#m35680716f1" y="307.584"/>
      </g>
     </g>
     <g id="text_5">
      <!-- 2 -->
      <g transform="translate(304.615886 327.501344)scale(0.17 -0.17)">
       <use xlink:href="#DejaVuSans-50"/>
      </g>
     </g>
    </g>
    <g id="xtick_6">
     <g id="line2d_6">
      <g>
       <use style="stroke:#000000;stroke-width:0.8;" x="362.510963" xlink:href="#m35680716f1" y="307.584"/>
      </g>
     </g>
     <g id="text_6">
      <!-- 3 -->
      <defs>
       <path d="M 40.578125 39.3125 
Q 47.65625 37.796875 51.625 33 
Q 55.609375 28.21875 55.609375 21.1875 
Q 55.609375 10.40625 48.1875 4.484375 
Q 40.765625 -1.421875 27.09375 -1.421875 
Q 22.515625 -1.421875 17.65625 -0.515625 
Q 12.796875 0.390625 7.625 2.203125 
L 7.625 11.71875 
Q 11.71875 9.328125 16.59375 8.109375 
Q 21.484375 6.890625 26.8125 6.890625 
Q 36.078125 6.890625 40.9375 10.546875 
Q 45.796875 14.203125 45.796875 21.1875 
Q 45.796875 27.640625 41.28125 31.265625 
Q 36.765625 34.90625 28.71875 34.90625 
L 20.21875 34.90625 
L 20.21875 43.015625 
L 29.109375 43.015625 
Q 36.375 43.015625 40.234375 45.921875 
Q 44.09375 48.828125 44.09375 54.296875 
Q 44.09375 59.90625 40.109375 62.90625 
Q 36.140625 65.921875 28.71875 65.921875 
Q 24.65625 65.921875 20.015625 65.03125 
Q 15.375 64.15625 9.8125 62.3125 
L 9.8125 71.09375 
Q 15.4375 72.65625 20.34375 73.4375 
Q 25.25 74.21875 29.59375 74.21875 
Q 40.828125 74.21875 47.359375 69.109375 
Q 53.90625 64.015625 53.90625 55.328125 
Q 53.90625 49.265625 50.4375 45.09375 
Q 46.96875 40.921875 40.578125 39.3125 
z
" id="DejaVuSans-51"/>
      </defs>
      <g transform="translate(357.102838 327.501344)scale(0.17 -0.17)">
       <use xlink:href="#DejaVuSans-51"/>
      </g>
     </g>
    </g>
    <g id="xtick_7">
     <g id="line2d_7">
      <g>
       <use style="stroke:#000000;stroke-width:0.8;" x="414.997915" xlink:href="#m35680716f1" y="307.584"/>
      </g>
     </g>
     <g id="text_7">
      <!-- 4 -->
      <defs>
       <path d="M 37.796875 64.3125 
L 12.890625 25.390625 
L 37.796875 25.390625 
z
M 35.203125 72.90625 
L 47.609375 72.90625 
L 47.609375 25.390625 
L 58.015625 25.390625 
L 58.015625 17.1875 
L 47.609375 17.1875 
L 47.609375 0 
L 37.796875 0 
L 37.796875 17.1875 
L 4.890625 17.1875 
L 4.890625 26.703125 
z
" id="DejaVuSans-52"/>
      </defs>
      <g transform="translate(409.58979 327.501344)scale(0.17 -0.17)">
       <use xlink:href="#DejaVuSans-52"/>
      </g>
     </g>
    </g>
    <g id="text_8">
     <!-- Compressed value -->
     <defs>
      <path d="M 64.40625 67.28125 
L 64.40625 56.890625 
Q 59.421875 61.53125 53.78125 63.8125 
Q 48.140625 66.109375 41.796875 66.109375 
Q 29.296875 66.109375 22.65625 58.46875 
Q 16.015625 50.828125 16.015625 36.375 
Q 16.015625 21.96875 22.65625 14.328125 
Q 29.296875 6.6875 41.796875 6.6875 
Q 48.140625 6.6875 53.78125 8.984375 
Q 59.421875 11.28125 64.40625 15.921875 
L 64.40625 5.609375 
Q 59.234375 2.09375 53.4375 0.328125 
Q 47.65625 -1.421875 41.21875 -1.421875 
Q 24.65625 -1.421875 15.125 8.703125 
Q 5.609375 18.84375 5.609375 36.375 
Q 5.609375 53.953125 15.125 64.078125 
Q 24.65625 74.21875 41.21875 74.21875 
Q 47.75 74.21875 53.53125 72.484375 
Q 59.328125 70.75 64.40625 67.28125 
z
" id="DejaVuSans-67"/>
      <path d="M 30.609375 48.390625 
Q 23.390625 48.390625 19.1875 42.75 
Q 14.984375 37.109375 14.984375 27.296875 
Q 14.984375 17.484375 19.15625 11.84375 
Q 23.34375 6.203125 30.609375 6.203125 
Q 37.796875 6.203125 41.984375 11.859375 
Q 46.1875 17.53125 46.1875 27.296875 
Q 46.1875 37.015625 41.984375 42.703125 
Q 37.796875 48.390625 30.609375 48.390625 
z
M 30.609375 56 
Q 42.328125 56 49.015625 48.375 
Q 55.71875 40.765625 55.71875 27.296875 
Q 55.71875 13.875 49.015625 6.21875 
Q 42.328125 -1.421875 30.609375 -1.421875 
Q 18.84375 -1.421875 12.171875 6.21875 
Q 5.515625 13.875 5.515625 27.296875 
Q 5.515625 40.765625 12.171875 48.375 
Q 18.84375 56 30.609375 56 
z
" id="DejaVuSans-111"/>
      <path d="M 52 44.1875 
Q 55.375 50.25 60.0625 53.125 
Q 64.75 56 71.09375 56 
Q 79.640625 56 84.28125 50.015625 
Q 88.921875 44.046875 88.921875 33.015625 
L 88.921875 0 
L 79.890625 0 
L 79.890625 32.71875 
Q 79.890625 40.578125 77.09375 44.375 
Q 74.3125 48.1875 68.609375 48.1875 
Q 61.625 48.1875 57.5625 43.546875 
Q 53.515625 38.921875 53.515625 30.90625 
L 53.515625 0 
L 44.484375 0 
L 44.484375 32.71875 
Q 44.484375 40.625 41.703125 44.40625 
Q 38.921875 48.1875 33.109375 48.1875 
Q 26.21875 48.1875 22.15625 43.53125 
Q 18.109375 38.875 18.109375 30.90625 
L 18.109375 0 
L 9.078125 0 
L 9.078125 54.6875 
L 18.109375 54.6875 
L 18.109375 46.1875 
Q 21.1875 51.21875 25.484375 53.609375 
Q 29.78125 56 35.6875 56 
Q 41.65625 56 45.828125 52.96875 
Q 50 49.953125 52 44.1875 
z
" id="DejaVuSans-109"/>
      <path d="M 18.109375 8.203125 
L 18.109375 -20.796875 
L 9.078125 -20.796875 
L 9.078125 54.6875 
L 18.109375 54.6875 
L 18.109375 46.390625 
Q 20.953125 51.265625 25.265625 53.625 
Q 29.59375 56 35.59375 56 
Q 45.5625 56 51.78125 48.09375 
Q 58.015625 40.1875 58.015625 27.296875 
Q 58.015625 14.40625 51.78125 6.484375 
Q 45.5625 -1.421875 35.59375 -1.421875 
Q 29.59375 -1.421875 25.265625 0.953125 
Q 20.953125 3.328125 18.109375 8.203125 
z
M 48.6875 27.296875 
Q 48.6875 37.203125 44.609375 42.84375 
Q 40.53125 48.484375 33.40625 48.484375 
Q 26.265625 48.484375 22.1875 42.84375 
Q 18.109375 37.203125 18.109375 27.296875 
Q 18.109375 17.390625 22.1875 11.75 
Q 26.265625 6.109375 33.40625 6.109375 
Q 40.53125 6.109375 44.609375 11.75 
Q 48.6875 17.390625 48.6875 27.296875 
z
" id="DejaVuSans-112"/>
      <path d="M 41.109375 46.296875 
Q 39.59375 47.171875 37.8125 47.578125 
Q 36.03125 48 33.890625 48 
Q 26.265625 48 22.1875 43.046875 
Q 18.109375 38.09375 18.109375 28.8125 
L 18.109375 0 
L 9.078125 0 
L 9.078125 54.6875 
L 18.109375 54.6875 
L 18.109375 46.1875 
Q 20.953125 51.171875 25.484375 53.578125 
Q 30.03125 56 36.53125 56 
Q 37.453125 56 38.578125 55.875 
Q 39.703125 55.765625 41.0625 55.515625 
z
" id="DejaVuSans-114"/>
      <path d="M 56.203125 29.59375 
L 56.203125 25.203125 
L 14.890625 25.203125 
Q 15.484375 15.921875 20.484375 11.0625 
Q 25.484375 6.203125 34.421875 6.203125 
Q 39.59375 6.203125 44.453125 7.46875 
Q 49.3125 8.734375 54.109375 11.28125 
L 54.109375 2.78125 
Q 49.265625 0.734375 44.1875 -0.34375 
Q 39.109375 -1.421875 33.890625 -1.421875 
Q 20.796875 -1.421875 13.15625 6.1875 
Q 5.515625 13.8125 5.515625 26.8125 
Q 5.515625 40.234375 12.765625 48.109375 
Q 20.015625 56 32.328125 56 
Q 43.359375 56 49.78125 48.890625 
Q 56.203125 41.796875 56.203125 29.59375 
z
M 47.21875 32.234375 
Q 47.125 39.59375 43.09375 43.984375 
Q 39.0625 48.390625 32.421875 48.390625 
Q 24.90625 48.390625 20.390625 44.140625 
Q 15.875 39.890625 15.1875 32.171875 
z
" id="DejaVuSans-101"/>
      <path d="M 44.28125 53.078125 
L 44.28125 44.578125 
Q 40.484375 46.53125 36.375 47.5 
Q 32.28125 48.484375 27.875 48.484375 
Q 21.1875 48.484375 17.84375 46.4375 
Q 14.5 44.390625 14.5 40.28125 
Q 14.5 37.15625 16.890625 35.375 
Q 19.28125 33.59375 26.515625 31.984375 
L 29.59375 31.296875 
Q 39.15625 29.25 43.1875 25.515625 
Q 47.21875 21.78125 47.21875 15.09375 
Q 47.21875 7.46875 41.1875 3.015625 
Q 35.15625 -1.421875 24.609375 -1.421875 
Q 20.21875 -1.421875 15.453125 -0.5625 
Q 10.6875 0.296875 5.421875 2 
L 5.421875 11.28125 
Q 10.40625 8.6875 15.234375 7.390625 
Q 20.0625 6.109375 24.8125 6.109375 
Q 31.15625 6.109375 34.5625 8.28125 
Q 37.984375 10.453125 37.984375 14.40625 
Q 37.984375 18.0625 35.515625 20.015625 
Q 33.0625 21.96875 24.703125 23.78125 
L 21.578125 24.515625 
Q 13.234375 26.265625 9.515625 29.90625 
Q 5.8125 33.546875 5.8125 39.890625 
Q 5.8125 47.609375 11.28125 51.796875 
Q 16.75 56 26.8125 56 
Q 31.78125 56 36.171875 55.265625 
Q 40.578125 54.546875 44.28125 53.078125 
z
" id="DejaVuSans-115"/>
      <path d="M 45.40625 46.390625 
L 45.40625 75.984375 
L 54.390625 75.984375 
L 54.390625 0 
L 45.40625 0 
L 45.40625 8.203125 
Q 42.578125 3.328125 38.25 0.953125 
Q 33.9375 -1.421875 27.875 -1.421875 
Q 17.96875 -1.421875 11.734375 6.484375 
Q 5.515625 14.40625 5.515625 27.296875 
Q 5.515625 40.1875 11.734375 48.09375 
Q 17.96875 56 27.875 56 
Q 33.9375 56 38.25 53.625 
Q 42.578125 51.265625 45.40625 46.390625 
z
M 14.796875 27.296875 
Q 14.796875 17.390625 18.875 11.75 
Q 22.953125 6.109375 30.078125 6.109375 
Q 37.203125 6.109375 41.296875 11.75 
Q 45.40625 17.390625 45.40625 27.296875 
Q 45.40625 37.203125 41.296875 42.84375 
Q 37.203125 48.484375 30.078125 48.484375 
Q 22.953125 48.484375 18.875 42.84375 
Q 14.796875 37.203125 14.796875 27.296875 
z
" id="DejaVuSans-100"/>
      <path id="DejaVuSans-32"/>
      <path d="M 2.984375 54.6875 
L 12.5 54.6875 
L 29.59375 8.796875 
L 46.6875 54.6875 
L 56.203125 54.6875 
L 35.6875 0 
L 23.484375 0 
z
" id="DejaVuSans-118"/>
      <path d="M 34.28125 27.484375 
Q 23.390625 27.484375 19.1875 25 
Q 14.984375 22.515625 14.984375 16.5 
Q 14.984375 11.71875 18.140625 8.90625 
Q 21.296875 6.109375 26.703125 6.109375 
Q 34.1875 6.109375 38.703125 11.40625 
Q 43.21875 16.703125 43.21875 25.484375 
L 43.21875 27.484375 
z
M 52.203125 31.203125 
L 52.203125 0 
L 43.21875 0 
L 43.21875 8.296875 
Q 40.140625 3.328125 35.546875 0.953125 
Q 30.953125 -1.421875 24.3125 -1.421875 
Q 15.921875 -1.421875 10.953125 3.296875 
Q 6 8.015625 6 15.921875 
Q 6 25.140625 12.171875 29.828125 
Q 18.359375 34.515625 30.609375 34.515625 
L 43.21875 34.515625 
L 43.21875 35.40625 
Q 43.21875 41.609375 39.140625 45 
Q 35.0625 48.390625 27.6875 48.390625 
Q 23 48.390625 18.546875 47.265625 
Q 14.109375 46.140625 10.015625 43.890625 
L 10.015625 52.203125 
Q 14.9375 54.109375 19.578125 55.046875 
Q 24.21875 56 28.609375 56 
Q 40.484375 56 46.34375 49.84375 
Q 52.203125 43.703125 52.203125 31.203125 
z
" id="DejaVuSans-97"/>
      <path d="M 9.421875 75.984375 
L 18.40625 75.984375 
L 18.40625 0 
L 9.421875 0 
z
" id="DejaVuSans-108"/>
      <path d="M 8.5 21.578125 
L 8.5 54.6875 
L 17.484375 54.6875 
L 17.484375 21.921875 
Q 17.484375 14.15625 20.5 10.265625 
Q 23.53125 6.390625 29.59375 6.390625 
Q 36.859375 6.390625 41.078125 11.03125 
Q 45.3125 15.671875 45.3125 23.6875 
L 45.3125 54.6875 
L 54.296875 54.6875 
L 54.296875 0 
L 45.3125 0 
L 45.3125 8.40625 
Q 42.046875 3.421875 37.71875 1 
Q 33.40625 -1.421875 27.6875 -1.421875 
Q 18.265625 -1.421875 13.375 4.4375 
Q 8.5 10.296875 8.5 21.578125 
z
M 31.109375 56 
z
" id="DejaVuSans-117"/>
     </defs>
     <g transform="translate(96.861562 357.832125)scale(0.3 -0.3)">
      <use xlink:href="#DejaVuSans-67"/>
      <use x="69.824219" xlink:href="#DejaVuSans-111"/>
      <use x="131.005859" xlink:href="#DejaVuSans-109"/>
      <use x="228.417969" xlink:href="#DejaVuSans-112"/>
      <use x="291.894531" xlink:href="#DejaVuSans-114"/>
      <use x="332.976562" xlink:href="#DejaVuSans-101"/>
      <use x="394.5" xlink:href="#DejaVuSans-115"/>
      <use x="446.599609" xlink:href="#DejaVuSans-115"/>
      <use x="498.699219" xlink:href="#DejaVuSans-101"/>
      <use x="560.222656" xlink:href="#DejaVuSans-100"/>
      <use x="623.699219" xlink:href="#DejaVuSans-32"/>
      <use x="655.486328" xlink:href="#DejaVuSans-118"/>
      <use x="714.666016" xlink:href="#DejaVuSans-97"/>
      <use x="775.945312" xlink:href="#DejaVuSans-108"/>
      <use x="803.728516" xlink:href="#DejaVuSans-117"/>
      <use x="867.107422" xlink:href="#DejaVuSans-101"/>
     </g>
    </g>
   </g>
   <g id="matplotlib.axis_2">
    <g id="ytick_1">
     <g id="line2d_8">
      <defs>
       <path d="M 0 0 
L -3.5 0 
" id="m02ba1e89ef" style="stroke:#000000;stroke-width:0.8;"/>
      </defs>
      <g>
       <use style="stroke:#000000;stroke-width:0.8;" x="57.6" xlink:href="#m02ba1e89ef" y="307.584"/>
      </g>
     </g>
     <g id="text_9">
      <!-- 0.0 -->
      <defs>
       <path d="M 10.6875 12.40625 
L 21 12.40625 
L 21 0 
L 10.6875 0 
z
" id="DejaVuSans-46"/>
      </defs>
      <g transform="translate(23.564687 314.042672)scale(0.17 -0.17)">
       <use xlink:href="#DejaVuSans-48"/>
       <use x="63.623047" xlink:href="#DejaVuSans-46"/>
       <use x="95.410156" xlink:href="#DejaVuSans-48"/>
      </g>
     </g>
    </g>
    <g id="ytick_2">
     <g id="line2d_9">
      <g>
       <use style="stroke:#000000;stroke-width:0.8;" x="57.6" xlink:href="#m02ba1e89ef" y="265.045796"/>
      </g>
     </g>
     <g id="text_10">
      <!-- 0.2 -->
      <g transform="translate(23.564687 271.504468)scale(0.17 -0.17)">
       <use xlink:href="#DejaVuSans-48"/>
       <use x="63.623047" xlink:href="#DejaVuSans-46"/>
       <use x="95.410156" xlink:href="#DejaVuSans-50"/>
      </g>
     </g>
    </g>
    <g id="ytick_3">
     <g id="line2d_10">
      <g>
       <use style="stroke:#000000;stroke-width:0.8;" x="57.6" xlink:href="#m02ba1e89ef" y="222.507591"/>
      </g>
     </g>
     <g id="text_11">
      <!-- 0.4 -->
      <g transform="translate(23.564687 228.966263)scale(0.17 -0.17)">
       <use xlink:href="#DejaVuSans-48"/>
       <use x="63.623047" xlink:href="#DejaVuSans-46"/>
       <use x="95.410156" xlink:href="#DejaVuSans-52"/>
      </g>
     </g>
    </g>
    <g id="ytick_4">
     <g id="line2d_11">
      <g>
       <use style="stroke:#000000;stroke-width:0.8;" x="57.6" xlink:href="#m02ba1e89ef" y="179.969387"/>
      </g>
     </g>
     <g id="text_12">
      <!-- 0.6 -->
      <defs>
       <path d="M 33.015625 40.375 
Q 26.375 40.375 22.484375 35.828125 
Q 18.609375 31.296875 18.609375 23.390625 
Q 18.609375 15.53125 22.484375 10.953125 
Q 26.375 6.390625 33.015625 6.390625 
Q 39.65625 6.390625 43.53125 10.953125 
Q 47.40625 15.53125 47.40625 23.390625 
Q 47.40625 31.296875 43.53125 35.828125 
Q 39.65625 40.375 33.015625 40.375 
z
M 52.59375 71.296875 
L 52.59375 62.3125 
Q 48.875 64.0625 45.09375 64.984375 
Q 41.3125 65.921875 37.59375 65.921875 
Q 27.828125 65.921875 22.671875 59.328125 
Q 17.53125 52.734375 16.796875 39.40625 
Q 19.671875 43.65625 24.015625 45.921875 
Q 28.375 48.1875 33.59375 48.1875 
Q 44.578125 48.1875 50.953125 41.515625 
Q 57.328125 34.859375 57.328125 23.390625 
Q 57.328125 12.15625 50.6875 5.359375 
Q 44.046875 -1.421875 33.015625 -1.421875 
Q 20.359375 -1.421875 13.671875 8.265625 
Q 6.984375 17.96875 6.984375 36.375 
Q 6.984375 53.65625 15.1875 63.9375 
Q 23.390625 74.21875 37.203125 74.21875 
Q 40.921875 74.21875 44.703125 73.484375 
Q 48.484375 72.75 52.59375 71.296875 
z
" id="DejaVuSans-54"/>
      </defs>
      <g transform="translate(23.564687 186.428059)scale(0.17 -0.17)">
       <use xlink:href="#DejaVuSans-48"/>
       <use x="63.623047" xlink:href="#DejaVuSans-46"/>
       <use x="95.410156" xlink:href="#DejaVuSans-54"/>
      </g>
     </g>
    </g>
    <g id="ytick_5">
     <g id="line2d_12">
      <g>
       <use style="stroke:#000000;stroke-width:0.8;" x="57.6" xlink:href="#m02ba1e89ef" y="137.431183"/>
      </g>
     </g>
     <g id="text_13">
      <!-- 0.8 -->
      <defs>
       <path d="M 31.78125 34.625 
Q 24.75 34.625 20.71875 30.859375 
Q 16.703125 27.09375 16.703125 20.515625 
Q 16.703125 13.921875 20.71875 10.15625 
Q 24.75 6.390625 31.78125 6.390625 
Q 38.8125 6.390625 42.859375 10.171875 
Q 46.921875 13.96875 46.921875 20.515625 
Q 46.921875 27.09375 42.890625 30.859375 
Q 38.875 34.625 31.78125 34.625 
z
M 21.921875 38.8125 
Q 15.578125 40.375 12.03125 44.71875 
Q 8.5 49.078125 8.5 55.328125 
Q 8.5 64.0625 14.71875 69.140625 
Q 20.953125 74.21875 31.78125 74.21875 
Q 42.671875 74.21875 48.875 69.140625 
Q 55.078125 64.0625 55.078125 55.328125 
Q 55.078125 49.078125 51.53125 44.71875 
Q 48 40.375 41.703125 38.8125 
Q 48.828125 37.15625 52.796875 32.3125 
Q 56.78125 27.484375 56.78125 20.515625 
Q 56.78125 9.90625 50.3125 4.234375 
Q 43.84375 -1.421875 31.78125 -1.421875 
Q 19.734375 -1.421875 13.25 4.234375 
Q 6.78125 9.90625 6.78125 20.515625 
Q 6.78125 27.484375 10.78125 32.3125 
Q 14.796875 37.15625 21.921875 38.8125 
z
M 18.3125 54.390625 
Q 18.3125 48.734375 21.84375 45.5625 
Q 25.390625 42.390625 31.78125 42.390625 
Q 38.140625 42.390625 41.71875 45.5625 
Q 45.3125 48.734375 45.3125 54.390625 
Q 45.3125 60.0625 41.71875 63.234375 
Q 38.140625 66.40625 31.78125 66.40625 
Q 25.390625 66.40625 21.84375 63.234375 
Q 18.3125 60.0625 18.3125 54.390625 
z
" id="DejaVuSans-56"/>
      </defs>
      <g transform="translate(23.564687 143.889854)scale(0.17 -0.17)">
       <use xlink:href="#DejaVuSans-48"/>
       <use x="63.623047" xlink:href="#DejaVuSans-46"/>
       <use x="95.410156" xlink:href="#DejaVuSans-56"/>
      </g>
     </g>
    </g>
    <g id="ytick_6">
     <g id="line2d_13">
      <g>
       <use style="stroke:#000000;stroke-width:0.8;" x="57.6" xlink:href="#m02ba1e89ef" y="94.892978"/>
      </g>
     </g>
     <g id="text_14">
      <!-- 1.0 -->
      <g transform="translate(23.564687 101.35165)scale(0.17 -0.17)">
       <use xlink:href="#DejaVuSans-49"/>
       <use x="63.623047" xlink:href="#DejaVuSans-46"/>
       <use x="95.410156" xlink:href="#DejaVuSans-48"/>
      </g>
     </g>
    </g>
    <g id="ytick_7">
     <g id="line2d_14">
      <g>
       <use style="stroke:#000000;stroke-width:0.8;" x="57.6" xlink:href="#m02ba1e89ef" y="52.354774"/>
      </g>
     </g>
     <g id="text_15">
      <!-- 1.2 -->
      <g transform="translate(23.564687 58.813446)scale(0.17 -0.17)">
       <use xlink:href="#DejaVuSans-49"/>
       <use x="63.623047" xlink:href="#DejaVuSans-46"/>
       <use x="95.410156" xlink:href="#DejaVuSans-50"/>
      </g>
     </g>
    </g>
    <g id="text_16">
     <!-- Density -->
     <defs>
      <path d="M 19.671875 64.796875 
L 19.671875 8.109375 
L 31.59375 8.109375 
Q 46.6875 8.109375 53.6875 14.9375 
Q 60.6875 21.78125 60.6875 36.53125 
Q 60.6875 51.171875 53.6875 57.984375 
Q 46.6875 64.796875 31.59375 64.796875 
z
M 9.8125 72.90625 
L 30.078125 72.90625 
Q 51.265625 72.90625 61.171875 64.09375 
Q 71.09375 55.28125 71.09375 36.53125 
Q 71.09375 17.671875 61.125 8.828125 
Q 51.171875 0 30.078125 0 
L 9.8125 0 
z
" id="DejaVuSans-68"/>
      <path d="M 54.890625 33.015625 
L 54.890625 0 
L 45.90625 0 
L 45.90625 32.71875 
Q 45.90625 40.484375 42.875 44.328125 
Q 39.84375 48.1875 33.796875 48.1875 
Q 26.515625 48.1875 22.3125 43.546875 
Q 18.109375 38.921875 18.109375 30.90625 
L 18.109375 0 
L 9.078125 0 
L 9.078125 54.6875 
L 18.109375 54.6875 
L 18.109375 46.1875 
Q 21.34375 51.125 25.703125 53.5625 
Q 30.078125 56 35.796875 56 
Q 45.21875 56 50.046875 50.171875 
Q 54.890625 44.34375 54.890625 33.015625 
z
" id="DejaVuSans-110"/>
      <path d="M 9.421875 54.6875 
L 18.40625 54.6875 
L 18.40625 0 
L 9.421875 0 
z
M 9.421875 75.984375 
L 18.40625 75.984375 
L 18.40625 64.59375 
L 9.421875 64.59375 
z
" id="DejaVuSans-105"/>
      <path d="M 18.3125 70.21875 
L 18.3125 54.6875 
L 36.8125 54.6875 
L 36.8125 47.703125 
L 18.3125 47.703125 
L 18.3125 18.015625 
Q 18.3125 11.328125 20.140625 9.421875 
Q 21.96875 7.515625 27.59375 7.515625 
L 36.8125 7.515625 
L 36.8125 0 
L 27.59375 0 
Q 17.1875 0 13.234375 3.875 
Q 9.28125 7.765625 9.28125 18.015625 
L 9.28125 47.703125 
L 2.6875 47.703125 
L 2.6875 54.6875 
L 9.28125 54.6875 
L 9.28125 70.21875 
z
" id="DejaVuSans-116"/>
      <path d="M 32.171875 -5.078125 
Q 28.375 -14.84375 24.75 -17.8125 
Q 21.140625 -20.796875 15.09375 -20.796875 
L 7.90625 -20.796875 
L 7.90625 -13.28125 
L 13.1875 -13.28125 
Q 16.890625 -13.28125 18.9375 -11.515625 
Q 21 -9.765625 23.484375 -3.21875 
L 25.09375 0.875 
L 2.984375 54.6875 
L 12.5 54.6875 
L 29.59375 11.921875 
L 46.6875 54.6875 
L 56.203125 54.6875 
z
" id="DejaVuSans-121"/>
     </defs>
     <g transform="translate(13.325625 231.553781)rotate(-90)scale(0.3 -0.3)">
      <use xlink:href="#DejaVuSans-68"/>
      <use x="77.001953" xlink:href="#DejaVuSans-101"/>
      <use x="138.525391" xlink:href="#DejaVuSans-110"/>
      <use x="201.904297" xlink:href="#DejaVuSans-115"/>
      <use x="254.003906" xlink:href="#DejaVuSans-105"/>
      <use x="281.787109" xlink:href="#DejaVuSans-116"/>
      <use x="320.996094" xlink:href="#DejaVuSans-121"/>
     </g>
    </g>
   </g>
   <g id="line2d_15">
    <path clip-path="url(#p1f669614da)" d="M 73.832727 307.584 
L 140.906529 307.472899 
L 143.095512 307.152001 
L 145.091694 306.890998 
L 146.865981 306.836457 
L 147.416592 306.514877 
L 149.221276 304.979743 
L 149.727595 304.619283 
L 150.181372 304.588323 
L 150.751089 304.517713 
L 151.212248 304.181204 
L 152.20795 303.436107 
L 152.723822 303.29665 
L 153.66264 303.198177 
L 154.193276 302.672722 
L 154.812931 301.789597 
L 156.079163 299.749294 
L 157.971562 298.371049 
L 158.529121 298.071442 
L 159.549575 297.375044 
L 159.91911 297.032596 
L 160.416744 296.178579 
L 160.959105 295.428762 
L 161.704253 294.555231 
L 162.675639 293.175482 
L 163.221039 292.896928 
L 163.707383 292.556866 
L 164.171581 291.922166 
L 164.873306 290.512147 
L 165.997109 288.343919 
L 166.279362 288.237891 
L 166.582459 288.391692 
L 167.013655 288.565627 
L 167.263775 288.400649 
L 167.691931 287.773817 
L 168.316362 286.98515 
L 168.6872 286.826835 
L 168.995073 286.943208 
L 169.456231 287.11226 
L 169.659454 286.901359 
L 169.94301 286.217493 
L 170.93437 283.570186 
L 171.599185 282.722248 
L 171.885781 282.637568 
L 172.150664 282.818393 
L 172.601401 283.109629 
L 172.795505 282.946801 
L 173.068205 282.360758 
L 173.865896 280.511258 
L 174.16465 280.398046 
L 174.921523 280.26255 
L 176.173859 279.646093 
L 176.662375 279.584946 
L 176.965905 279.276282 
L 177.483515 278.338778 
L 177.969859 277.679169 
L 178.525681 277.020637 
L 179.034605 275.846125 
L 179.737198 274.436183 
L 180.155368 273.993057 
L 180.431107 273.991773 
L 181.214903 274.178357 
L 182.204526 273.591728 
L 182.522821 273.511515 
L 182.773375 273.170221 
L 183.167661 272.170971 
L 184.649708 267.536035 
L 185.034875 266.647079 
L 185.263718 266.559569 
L 185.509929 266.742892 
L 186.021893 267.122058 
L 186.255947 267.00215 
L 186.561214 266.550231 
L 187.028886 265.405683 
L 187.772298 263.626925 
L 188.204797 263.224362 
L 189.116692 262.439625 
L 189.457133 261.770991 
L 189.90483 260.311326 
L 191.221433 255.752653 
L 191.448539 255.691444 
L 191.696921 255.893321 
L 192.335682 256.469473 
L 192.527615 256.315471 
L 192.779037 255.767556 
L 193.926722 252.812336 
L 195.04488 252.022415 
L 196.321967 251.226808 
L 197.216059 251.071553 
L 197.495272 250.568798 
L 197.876097 249.348089 
L 198.659024 246.797286 
L 198.950397 246.555114 
L 199.584381 246.23516 
L 199.956087 246.050227 
L 200.163217 246.210656 
L 200.481512 246.81219 
L 200.961777 247.608268 
L 201.149367 247.580825 
L 201.346076 247.268942 
L 201.673055 246.238928 
L 202.327014 244.251155 
L 202.748657 243.042938 
L 203.135561 241.012225 
L 203.931081 236.861225 
L 204.159489 236.475911 
L 204.166871 236.478803 
L 204.265877 236.648975 
L 204.413083 237.463426 
L 204.621082 240.094408 
L 204.927653 247.312279 
L 205.773978 268.439096 
L 206.083588 270.87647 
L 206.347169 271.517947 
L 206.544747 271.554579 
L 206.735811 271.325701 
L 206.995049 270.607995 
L 207.408008 268.680968 
L 209.069828 259.226034 
L 211.04343 243.238075 
L 214.142137 209.425844 
L 215.017556 198.285255 
L 215.784417 191.996104 
L 217.173537 181.207579 
L 218.27997 171.697329 
L 218.688586 169.997888 
L 218.989511 169.53037 
L 219.290871 169.45798 
L 220.02169 169.56182 
L 220.30872 169.978513 
L 221.237116 171.493983 
L 221.544989 172.122538 
L 221.875442 173.405362 
L 223.485155 180.55686 
L 223.732669 180.950864 
L 223.859466 180.837514 
L 224.056175 180.268908 
L 224.787428 177.895962 
L 224.970241 177.945089 
L 225.300694 178.050189 
L 225.447032 177.752976 
L 225.652426 176.723929 
L 225.992866 173.636956 
L 226.727159 167.079396 
L 228.319068 156.194003 
L 229.022964 147.435397 
L 229.966993 134.001808 
L 231.50245 109.067498 
L 232.178121 98.054593 
L 232.851621 82.762249 
L 233.71879 64.277105 
L 234.268533 56.833871 
L 234.626777 54.462681 
L 234.821749 54.146101 
L 234.832171 54.150251 
L 234.941598 54.330494 
L 235.114424 55.148074 
L 235.371492 57.618353 
L 235.772291 63.995956 
L 236.839643 85.8126 
L 238.762005 127.236811 
L 239.353434 133.170781 
L 240.193246 139.675623 
L 240.763832 144.384253 
L 241.369157 149.024211 
L 241.76214 150.398254 
L 242.624967 152.87465 
L 243.020121 155.291779 
L 244.216875 163.218582 
L 244.927719 166.341808 
L 245.407984 170.114178 
L 246.022428 174.541818 
L 246.257784 175.003115 
L 246.38458 174.906644 
L 246.592579 174.368364 
L 247.213102 172.681206 
L 247.411114 172.677813 
L 247.869233 172.796985 
L 248.039453 172.423889 
L 248.27698 171.265571 
L 248.640001 168.196188 
L 249.352148 159.867903 
L 250.944057 141.080301 
L 251.662717 135.254029 
L 252.329703 131.747874 
L 252.717041 130.558521 
L 252.86555 130.521526 
L 252.879446 130.53423 
L 253.021006 130.837532 
L 253.234216 131.923536 
L 253.559893 134.934064 
L 254.968988 152.030718 
L 255.541745 160.861502 
L 256.12449 173.873925 
L 257.676014 209.820926 
L 258.815449 231.248206 
L 259.621825 242.582865 
L 260.243217 248.506227 
L 261.390468 256.530978 
L 261.939776 259.163935 
L 262.999746 262.734597 
L 263.249431 262.932001 
L 263.477405 262.81954 
L 263.912509 262.605226 
L 264.104007 262.79854 
L 264.360206 263.439678 
L 265.289905 266.093707 
L 265.511366 266.056471 
L 265.918245 265.963376 
L 266.116256 266.226028 
L 266.437156 267.115331 
L 266.933922 268.334246 
L 267.220952 268.508357 
L 267.721192 268.721539 
L 268.220129 269.347091 
L 268.762055 270.293116 
L 269.365643 271.356028 
L 269.577984 271.343896 
L 269.836354 271.05334 
L 270.769527 269.845617 
L 271.081308 269.86733 
L 271.851643 270.248982 
L 272.17124 270.727827 
L 272.750945 271.59538 
L 272.984564 271.568551 
L 273.780953 271.261651 
L 274.057126 271.572341 
L 274.534352 272.528667 
L 275.019393 273.302959 
L 275.292962 273.377536 
L 276.008582 273.358659 
L 276.294744 273.836323 
L 277.02426 275.129768 
L 277.291749 275.157331 
L 278.302216 274.978764 
L 279.864162 275.75458 
L 281.066127 276.683218 
L 282.25463 276.938216 
L 283.265531 276.732269 
L 284.282946 277.25668 
L 284.708931 277.58482 
L 285.939555 278.793102 
L 287.016895 279.722987 
L 287.894051 279.874181 
L 288.223202 280.320443 
L 289.206312 281.859116 
L 289.902392 282.202912 
L 290.555048 282.744041 
L 290.892015 282.667091 
L 291.343186 282.602381 
L 291.671468 282.825075 
L 292.252042 283.218505 
L 292.51432 283.106389 
L 292.914251 282.63136 
L 293.371936 282.206023 
L 293.624227 282.25088 
L 293.935574 282.575906 
L 294.854851 283.634681 
L 295.915689 284.380889 
L 296.781555 285.559729 
L 297.560574 286.060643 
L 298.139411 286.516872 
L 298.483326 286.492204 
L 298.949695 286.203374 
L 299.439079 285.972361 
L 299.73957 286.09631 
L 300.893769 287.052489 
L 301.333215 288.087987 
L 301.900761 289.233397 
L 302.335431 289.637861 
L 302.662411 289.676376 
L 303.049315 289.458299 
L 303.454457 289.315534 
L 303.703709 289.475086 
L 304.038939 290.008823 
L 304.604748 290.861899 
L 304.824037 290.842447 
L 305.101514 290.538183 
L 305.593069 290.042722 
L 305.824516 290.1123 
L 306.155838 290.501694 
L 308.244947 293.294462 
L 308.655734 293.295602 
L 309.116892 293.364657 
L 310.172954 293.740961 
L 311.10439 293.410982 
L 311.82305 293.602064 
L 312.232534 293.916973 
L 312.66981 294.584348 
L 313.287293 295.456965 
L 313.596469 295.537417 
L 313.980768 295.369873 
L 314.402845 295.26209 
L 314.725048 295.442104 
L 315.360335 295.813588 
L 316.271362 296.074636 
L 316.887976 296.614429 
L 317.402546 296.971691 
L 317.728657 296.918129 
L 318.300111 296.798979 
L 318.657922 297.029166 
L 320.745728 298.674479 
L 321.351052 298.708052 
L 321.77009 298.52591 
L 322.416233 298.210092 
L 322.660707 298.399474 
L 323.167461 299.194344 
L 323.538732 299.527008 
L 323.910004 299.546929 
L 324.623019 299.570876 
L 325.070716 299.835054 
L 325.995204 300.468513 
L 326.317842 300.341126 
L 327.094689 299.942872 
L 327.377811 300.138888 
L 328.498574 301.166887 
L 329.297568 301.175674 
L 329.658418 301.571872 
L 330.575524 302.664894 
L 330.951572 302.718565 
L 331.520421 302.531881 
L 332.075374 302.433729 
L 332.625985 302.619802 
L 333.157924 302.694958 
L 334.084149 302.736305 
L 334.794559 303.156711 
L 335.520601 303.469225 
L 335.929217 303.405389 
L 336.267053 303.25711 
L 336.267053 303.25711 
" style="fill:none;stroke:#ff7f0e;stroke-linecap:square;stroke-width:1.5;"/>
   </g>
   <g id="patch_103">
    <path d="M 57.6 307.584 
L 57.6 41.472 
" style="fill:none;stroke:#000000;stroke-linecap:square;stroke-linejoin:miter;stroke-width:0.8;"/>
   </g>
   <g id="patch_104">
    <path d="M 414.72 307.584 
L 414.72 41.472 
" style="fill:none;stroke:#000000;stroke-linecap:square;stroke-linejoin:miter;stroke-width:0.8;"/>
   </g>
   <g id="patch_105">
    <path d="M 57.6 307.584 
L 414.72 307.584 
" style="fill:none;stroke:#000000;stroke-linecap:square;stroke-linejoin:miter;stroke-width:0.8;"/>
   </g>
   <g id="patch_106">
    <path d="M 57.6 41.472 
L 414.72 41.472 
" style="fill:none;stroke:#000000;stroke-linecap:square;stroke-linejoin:miter;stroke-width:0.8;"/>
   </g>
  </g>
 </g>
 <defs>
  <clipPath id="p1f669614da">
   <rect height="266.112" width="357.12" x="57.6" y="41.472"/>
  </clipPath>
 </defs>
</svg>
