<?xml version="1.0" encoding="utf-8" standalone="no"?>
<!DOCTYPE svg PUBLIC "-//W3C//DTD SVG 1.1//EN"
  "http://www.w3.org/Graphics/SVG/1.1/DTD/svg11.dtd">
<!-- Created with matplotlib (https://matplotlib.org/) -->
<svg height="345.6pt" version="1.1" viewBox="0 0 460.8 345.6" width="460.8pt" xmlns="http://www.w3.org/2000/svg" xmlns:xlink="http://www.w3.org/1999/xlink">
 <defs>
  <style type="text/css">
*{stroke-linecap:butt;stroke-linejoin:round;}
  </style>
 </defs>
 <g id="figure_1">
  <g id="patch_1">
   <path d="M 0 345.6 
L 460.8 345.6 
L 460.8 0 
L 0 0 
z
" style="fill:#ffffff;"/>
  </g>
  <g id="axes_1">
   <g id="patch_2">
    <path d="M 57.6 307.584 
L 414.72 307.584 
L 414.72 41.472 
L 57.6 41.472 
z
" style="fill:#ffffff;"/>
   </g>
   <g id="patch_3">
    <path clip-path="url(#p0c55e21234)" d="M 120.014113 307.584 
L 122.798845 307.584 
L 122.798845 307.512191 
L 120.014113 307.512191 
z
" style="fill:#1f77b4;"/>
   </g>
   <g id="patch_4">
    <path clip-path="url(#p0c55e21234)" d="M 122.798845 307.584 
L 125.583576 307.584 
L 125.583576 307.440381 
L 122.798845 307.440381 
z
" style="fill:#1f77b4;"/>
   </g>
   <g id="patch_5">
    <path clip-path="url(#p0c55e21234)" d="M 125.583576 307.584 
L 128.368308 307.584 
L 128.368308 307.512191 
L 125.583576 307.512191 
z
" style="fill:#1f77b4;"/>
   </g>
   <g id="patch_6">
    <path clip-path="url(#p0c55e21234)" d="M 128.368308 307.584 
L 131.153039 307.584 
L 131.153039 307.296762 
L 128.368308 307.296762 
z
" style="fill:#1f77b4;"/>
   </g>
   <g id="patch_7">
    <path clip-path="url(#p0c55e21234)" d="M 131.153039 307.584 
L 133.937771 307.584 
L 133.937771 307.512191 
L 131.153039 307.512191 
z
" style="fill:#1f77b4;"/>
   </g>
   <g id="patch_8">
    <path clip-path="url(#p0c55e21234)" d="M 133.937771 307.584 
L 136.722503 307.584 
L 136.722503 307.440381 
L 133.937771 307.440381 
z
" style="fill:#1f77b4;"/>
   </g>
   <g id="patch_9">
    <path clip-path="url(#p0c55e21234)" d="M 136.722503 307.584 
L 139.507234 307.584 
L 139.507234 307.224953 
L 136.722503 307.224953 
z
" style="fill:#1f77b4;"/>
   </g>
   <g id="patch_10">
    <path clip-path="url(#p0c55e21234)" d="M 139.507234 307.584 
L 142.291966 307.584 
L 142.291966 307.153143 
L 139.507234 307.153143 
z
" style="fill:#1f77b4;"/>
   </g>
   <g id="patch_11">
    <path clip-path="url(#p0c55e21234)" d="M 142.291966 307.584 
L 145.076697 307.584 
L 145.076697 306.506859 
L 142.291966 306.506859 
z
" style="fill:#1f77b4;"/>
   </g>
   <g id="patch_12">
    <path clip-path="url(#p0c55e21234)" d="M 145.076697 307.584 
L 147.861429 307.584 
L 147.861429 305.788764 
L 145.076697 305.788764 
z
" style="fill:#1f77b4;"/>
   </g>
   <g id="patch_13">
    <path clip-path="url(#p0c55e21234)" d="M 147.861429 307.584 
L 150.646161 307.584 
L 150.646161 305.357908 
L 147.861429 305.357908 
z
" style="fill:#1f77b4;"/>
   </g>
   <g id="patch_14">
    <path clip-path="url(#p0c55e21234)" d="M 150.646161 307.584 
L 153.430892 307.584 
L 153.430892 303.634481 
L 150.646161 303.634481 
z
" style="fill:#1f77b4;"/>
   </g>
   <g id="patch_15">
    <path clip-path="url(#p0c55e21234)" d="M 153.430892 307.584 
L 156.215624 307.584 
L 156.215624 301.121151 
L 153.430892 301.121151 
z
" style="fill:#1f77b4;"/>
   </g>
   <g id="patch_16">
    <path clip-path="url(#p0c55e21234)" d="M 156.215624 307.584 
L 159.000355 307.584 
L 159.000355 299.684963 
L 156.215624 299.684963 
z
" style="fill:#1f77b4;"/>
   </g>
   <g id="patch_17">
    <path clip-path="url(#p0c55e21234)" d="M 159.000355 307.584 
L 161.785087 307.584 
L 161.785087 297.099824 
L 159.000355 297.099824 
z
" style="fill:#1f77b4;"/>
   </g>
   <g id="patch_18">
    <path clip-path="url(#p0c55e21234)" d="M 161.785087 307.584 
L 164.569819 307.584 
L 164.569819 292.216782 
L 161.785087 292.216782 
z
" style="fill:#1f77b4;"/>
   </g>
   <g id="patch_19">
    <path clip-path="url(#p0c55e21234)" d="M 164.569819 307.584 
L 167.35455 307.584 
L 167.35455 289.057168 
L 164.569819 289.057168 
z
" style="fill:#1f77b4;"/>
   </g>
   <g id="patch_20">
    <path clip-path="url(#p0c55e21234)" d="M 167.35455 307.584 
L 170.139282 307.584 
L 170.139282 282.737938 
L 167.35455 282.737938 
z
" style="fill:#1f77b4;"/>
   </g>
   <g id="patch_21">
    <path clip-path="url(#p0c55e21234)" d="M 170.139282 307.584 
L 172.924013 307.584 
L 172.924013 277.208612 
L 170.139282 277.208612 
z
" style="fill:#1f77b4;"/>
   </g>
   <g id="patch_22">
    <path clip-path="url(#p0c55e21234)" d="M 172.924013 307.584 
L 175.708745 307.584 
L 175.708745 269.812241 
L 172.924013 269.812241 
z
" style="fill:#1f77b4;"/>
   </g>
   <g id="patch_23">
    <path clip-path="url(#p0c55e21234)" d="M 175.708745 307.584 
L 178.493477 307.584 
L 178.493477 265.216437 
L 175.708745 265.216437 
z
" style="fill:#1f77b4;"/>
   </g>
   <g id="patch_24">
    <path clip-path="url(#p0c55e21234)" d="M 178.493477 307.584 
L 181.278208 307.584 
L 181.278208 255.737593 
L 178.493477 255.737593 
z
" style="fill:#1f77b4;"/>
   </g>
   <g id="patch_25">
    <path clip-path="url(#p0c55e21234)" d="M 181.278208 307.584 
L 184.06294 307.584 
L 184.06294 249.274744 
L 181.278208 249.274744 
z
" style="fill:#1f77b4;"/>
   </g>
   <g id="patch_26">
    <path clip-path="url(#p0c55e21234)" d="M 184.06294 307.584 
L 186.847671 307.584 
L 186.847671 246.689605 
L 184.06294 246.689605 
z
" style="fill:#1f77b4;"/>
   </g>
   <g id="patch_27">
    <path clip-path="url(#p0c55e21234)" d="M 186.847671 307.584 
L 189.632403 307.584 
L 189.632403 240.226757 
L 186.847671 240.226757 
z
" style="fill:#1f77b4;"/>
   </g>
   <g id="patch_28">
    <path clip-path="url(#p0c55e21234)" d="M 189.632403 307.584 
L 192.417135 307.584 
L 192.417135 231.681435 
L 189.632403 231.681435 
z
" style="fill:#1f77b4;"/>
   </g>
   <g id="patch_29">
    <path clip-path="url(#p0c55e21234)" d="M 192.417135 307.584 
L 195.201866 307.584 
L 195.201866 227.013822 
L 192.417135 227.013822 
z
" style="fill:#1f77b4;"/>
   </g>
   <g id="patch_30">
    <path clip-path="url(#p0c55e21234)" d="M 195.201866 307.584 
L 197.986598 307.584 
L 197.986598 220.120117 
L 195.201866 220.120117 
z
" style="fill:#1f77b4;"/>
   </g>
   <g id="patch_31">
    <path clip-path="url(#p0c55e21234)" d="M 197.986598 307.584 
L 200.771329 307.584 
L 200.771329 220.407354 
L 197.986598 220.407354 
z
" style="fill:#1f77b4;"/>
   </g>
   <g id="patch_32">
    <path clip-path="url(#p0c55e21234)" d="M 200.771329 307.584 
L 203.556061 307.584 
L 203.556061 215.237076 
L 200.771329 215.237076 
z
" style="fill:#1f77b4;"/>
   </g>
   <g id="patch_33">
    <path clip-path="url(#p0c55e21234)" d="M 203.556061 307.584 
L 206.340793 307.584 
L 206.340793 212.436508 
L 203.556061 212.436508 
z
" style="fill:#1f77b4;"/>
   </g>
   <g id="patch_34">
    <path clip-path="url(#p0c55e21234)" d="M 206.340793 307.584 
L 209.125524 307.584 
L 209.125524 209.923178 
L 206.340793 209.923178 
z
" style="fill:#1f77b4;"/>
   </g>
   <g id="patch_35">
    <path clip-path="url(#p0c55e21234)" d="M 209.125524 307.584 
L 211.910256 307.584 
L 211.910256 211.072129 
L 209.125524 211.072129 
z
" style="fill:#1f77b4;"/>
   </g>
   <g id="patch_36">
    <path clip-path="url(#p0c55e21234)" d="M 211.910256 307.584 
L 214.694987 307.584 
L 214.694987 213.44184 
L 211.910256 213.44184 
z
" style="fill:#1f77b4;"/>
   </g>
   <g id="patch_37">
    <path clip-path="url(#p0c55e21234)" d="M 214.694987 307.584 
L 217.479719 307.584 
L 217.479719 206.835372 
L 214.694987 206.835372 
z
" style="fill:#1f77b4;"/>
   </g>
   <g id="patch_38">
    <path clip-path="url(#p0c55e21234)" d="M 217.479719 307.584 
L 220.264451 307.584 
L 220.264451 184.789878 
L 217.479719 184.789878 
z
" style="fill:#1f77b4;"/>
   </g>
   <g id="patch_39">
    <path clip-path="url(#p0c55e21234)" d="M 220.264451 307.584 
L 223.049182 307.584 
L 223.049182 189.457491 
L 220.264451 189.457491 
z
" style="fill:#1f77b4;"/>
   </g>
   <g id="patch_40">
    <path clip-path="url(#p0c55e21234)" d="M 223.049182 307.584 
L 225.833914 307.584 
L 225.833914 183.569118 
L 223.049182 183.569118 
z
" style="fill:#1f77b4;"/>
   </g>
   <g id="patch_41">
    <path clip-path="url(#p0c55e21234)" d="M 225.833914 307.584 
L 228.618645 307.584 
L 228.618645 176.316366 
L 225.833914 176.316366 
z
" style="fill:#1f77b4;"/>
   </g>
   <g id="patch_42">
    <path clip-path="url(#p0c55e21234)" d="M 228.618645 307.584 
L 231.403377 307.584 
L 231.403377 180.481312 
L 228.618645 180.481312 
z
" style="fill:#1f77b4;"/>
   </g>
   <g id="patch_43">
    <path clip-path="url(#p0c55e21234)" d="M 231.403377 307.584 
L 234.188109 307.584 
L 234.188109 185.436163 
L 231.403377 185.436163 
z
" style="fill:#1f77b4;"/>
   </g>
   <g id="patch_44">
    <path clip-path="url(#p0c55e21234)" d="M 234.188109 307.584 
L 236.97284 307.584 
L 236.97284 183.210071 
L 234.188109 183.210071 
z
" style="fill:#1f77b4;"/>
   </g>
   <g id="patch_45">
    <path clip-path="url(#p0c55e21234)" d="M 236.97284 307.584 
L 239.757572 307.584 
L 239.757572 171.289706 
L 236.97284 171.289706 
z
" style="fill:#1f77b4;"/>
   </g>
   <g id="patch_46">
    <path clip-path="url(#p0c55e21234)" d="M 239.757572 307.584 
L 242.542303 307.584 
L 242.542303 162.169908 
L 239.757572 162.169908 
z
" style="fill:#1f77b4;"/>
   </g>
   <g id="patch_47">
    <path clip-path="url(#p0c55e21234)" d="M 242.542303 307.584 
L 245.327035 307.584 
L 245.327035 138.329178 
L 242.542303 138.329178 
z
" style="fill:#1f77b4;"/>
   </g>
   <g id="patch_48">
    <path clip-path="url(#p0c55e21234)" d="M 245.327035 307.584 
L 248.111766 307.584 
L 248.111766 96.105234 
L 245.327035 96.105234 
z
" style="fill:#1f77b4;"/>
   </g>
   <g id="patch_49">
    <path clip-path="url(#p0c55e21234)" d="M 248.111766 307.584 
L 250.896498 307.584 
L 250.896498 60.056902 
L 248.111766 60.056902 
z
" style="fill:#1f77b4;"/>
   </g>
   <g id="patch_50">
    <path clip-path="url(#p0c55e21234)" d="M 250.896498 307.584 
L 253.68123 307.584 
L 253.68123 61.205852 
L 250.896498 61.205852 
z
" style="fill:#1f77b4;"/>
   </g>
   <g id="patch_51">
    <path clip-path="url(#p0c55e21234)" d="M 253.68123 307.584 
L 256.465961 307.584 
L 256.465961 76.501261 
L 253.68123 76.501261 
z
" style="fill:#1f77b4;"/>
   </g>
   <g id="patch_52">
    <path clip-path="url(#p0c55e21234)" d="M 256.465961 307.584 
L 259.250693 307.584 
L 259.250693 92.802001 
L 256.465961 92.802001 
z
" style="fill:#1f77b4;"/>
   </g>
   <g id="patch_53">
    <path clip-path="url(#p0c55e21234)" d="M 259.250693 307.584 
L 262.035424 307.584 
L 262.035424 112.765022 
L 259.250693 112.765022 
z
" style="fill:#1f77b4;"/>
   </g>
   <g id="patch_54">
    <path clip-path="url(#p0c55e21234)" d="M 262.035424 307.584 
L 264.820156 307.584 
L 264.820156 122.172057 
L 262.035424 122.172057 
z
" style="fill:#1f77b4;"/>
   </g>
   <g id="patch_55">
    <path clip-path="url(#p0c55e21234)" d="M 264.820156 307.584 
L 267.604888 307.584 
L 267.604888 136.103086 
L 264.820156 136.103086 
z
" style="fill:#1f77b4;"/>
   </g>
   <g id="patch_56">
    <path clip-path="url(#p0c55e21234)" d="M 267.604888 307.584 
L 270.389619 307.584 
L 270.389619 130.717379 
L 267.604888 130.717379 
z
" style="fill:#1f77b4;"/>
   </g>
   <g id="patch_57">
    <path clip-path="url(#p0c55e21234)" d="M 270.389619 307.584 
L 273.174351 307.584 
L 273.174351 138.11375 
L 270.389619 138.11375 
z
" style="fill:#1f77b4;"/>
   </g>
   <g id="patch_58">
    <path clip-path="url(#p0c55e21234)" d="M 273.174351 307.584 
L 275.959082 307.584 
L 275.959082 128.204049 
L 273.174351 128.204049 
z
" style="fill:#1f77b4;"/>
   </g>
   <g id="patch_59">
    <path clip-path="url(#p0c55e21234)" d="M 275.959082 307.584 
L 278.743814 307.584 
L 278.743814 125.618909 
L 275.959082 125.618909 
z
" style="fill:#1f77b4;"/>
   </g>
   <g id="patch_60">
    <path clip-path="url(#p0c55e21234)" d="M 278.743814 307.584 
L 281.528546 307.584 
L 281.528546 126.408813 
L 278.743814 126.408813 
z
" style="fill:#1f77b4;"/>
   </g>
   <g id="patch_61">
    <path clip-path="url(#p0c55e21234)" d="M 281.528546 307.584 
L 284.313277 307.584 
L 284.313277 124.32634 
L 281.528546 124.32634 
z
" style="fill:#1f77b4;"/>
   </g>
   <g id="patch_62">
    <path clip-path="url(#p0c55e21234)" d="M 284.313277 307.584 
L 287.098009 307.584 
L 287.098009 126.337004 
L 284.313277 126.337004 
z
" style="fill:#1f77b4;"/>
   </g>
   <g id="patch_63">
    <path clip-path="url(#p0c55e21234)" d="M 287.098009 307.584 
L 289.88274 307.584 
L 289.88274 130.57376 
L 287.098009 130.57376 
z
" style="fill:#1f77b4;"/>
   </g>
   <g id="patch_64">
    <path clip-path="url(#p0c55e21234)" d="M 289.88274 307.584 
L 292.667472 307.584 
L 292.667472 148.023451 
L 289.88274 148.023451 
z
" style="fill:#1f77b4;"/>
   </g>
   <g id="patch_65">
    <path clip-path="url(#p0c55e21234)" d="M 292.667472 307.584 
L 295.452204 307.584 
L 295.452204 166.98114 
L 292.667472 166.98114 
z
" style="fill:#1f77b4;"/>
   </g>
   <g id="patch_66">
    <path clip-path="url(#p0c55e21234)" d="M 295.452204 307.584 
L 298.236935 307.584 
L 298.236935 169.997136 
L 295.452204 169.997136 
z
" style="fill:#1f77b4;"/>
   </g>
   <g id="patch_67">
    <path clip-path="url(#p0c55e21234)" d="M 298.236935 307.584 
L 301.021667 307.584 
L 301.021667 185.220735 
L 298.236935 185.220735 
z
" style="fill:#1f77b4;"/>
   </g>
   <g id="patch_68">
    <path clip-path="url(#p0c55e21234)" d="M 301.021667 307.584 
L 303.806398 307.584 
L 303.806398 189.744729 
L 301.021667 189.744729 
z
" style="fill:#1f77b4;"/>
   </g>
   <g id="patch_69">
    <path clip-path="url(#p0c55e21234)" d="M 303.806398 307.584 
L 306.59113 307.584 
L 306.59113 199.151764 
L 303.806398 199.151764 
z
" style="fill:#1f77b4;"/>
   </g>
   <g id="patch_70">
    <path clip-path="url(#p0c55e21234)" d="M 306.59113 307.584 
L 309.375862 307.584 
L 309.375862 203.819376 
L 306.59113 203.819376 
z
" style="fill:#1f77b4;"/>
   </g>
   <g id="patch_71">
    <path clip-path="url(#p0c55e21234)" d="M 309.375862 307.584 
L 312.160593 307.584 
L 312.160593 212.795555 
L 309.375862 212.795555 
z
" style="fill:#1f77b4;"/>
   </g>
   <g id="patch_72">
    <path clip-path="url(#p0c55e21234)" d="M 312.160593 307.584 
L 314.945325 307.584 
L 314.945325 222.920684 
L 312.160593 222.920684 
z
" style="fill:#1f77b4;"/>
   </g>
   <g id="patch_73">
    <path clip-path="url(#p0c55e21234)" d="M 314.945325 307.584 
L 317.730056 307.584 
L 317.730056 232.614957 
L 314.945325 232.614957 
z
" style="fill:#1f77b4;"/>
   </g>
   <g id="patch_74">
    <path clip-path="url(#p0c55e21234)" d="M 317.730056 307.584 
L 320.514788 307.584 
L 320.514788 242.23742 
L 317.730056 242.23742 
z
" style="fill:#1f77b4;"/>
   </g>
   <g id="patch_75">
    <path clip-path="url(#p0c55e21234)" d="M 320.514788 307.584 
L 323.29952 307.584 
L 323.29952 245.109798 
L 320.514788 245.109798 
z
" style="fill:#1f77b4;"/>
   </g>
   <g id="patch_76">
    <path clip-path="url(#p0c55e21234)" d="M 323.29952 307.584 
L 326.084251 307.584 
L 326.084251 257.891876 
L 323.29952 257.891876 
z
" style="fill:#1f77b4;"/>
   </g>
   <g id="patch_77">
    <path clip-path="url(#p0c55e21234)" d="M 326.084251 307.584 
L 328.868983 307.584 
L 328.868983 265.431866 
L 326.084251 265.431866 
z
" style="fill:#1f77b4;"/>
   </g>
   <g id="patch_78">
    <path clip-path="url(#p0c55e21234)" d="M 328.868983 307.584 
L 331.653714 307.584 
L 331.653714 274.91071 
L 328.868983 274.91071 
z
" style="fill:#1f77b4;"/>
   </g>
   <g id="patch_79">
    <path clip-path="url(#p0c55e21234)" d="M 331.653714 307.584 
L 334.438446 307.584 
L 334.438446 278.429372 
L 331.653714 278.429372 
z
" style="fill:#1f77b4;"/>
   </g>
   <g id="patch_80">
    <path clip-path="url(#p0c55e21234)" d="M 334.438446 307.584 
L 337.223178 307.584 
L 337.223178 286.759266 
L 334.438446 286.759266 
z
" style="fill:#1f77b4;"/>
   </g>
   <g id="patch_81">
    <path clip-path="url(#p0c55e21234)" d="M 337.223178 307.584 
L 340.007909 307.584 
L 340.007909 291.067832 
L 337.223178 291.067832 
z
" style="fill:#1f77b4;"/>
   </g>
   <g id="patch_82">
    <path clip-path="url(#p0c55e21234)" d="M 340.007909 307.584 
L 342.792641 307.584 
L 342.792641 293.365733 
L 340.007909 293.365733 
z
" style="fill:#1f77b4;"/>
   </g>
   <g id="patch_83">
    <path clip-path="url(#p0c55e21234)" d="M 342.792641 307.584 
L 345.577372 307.584 
L 345.577372 297.243442 
L 342.792641 297.243442 
z
" style="fill:#1f77b4;"/>
   </g>
   <g id="patch_84">
    <path clip-path="url(#p0c55e21234)" d="M 345.577372 307.584 
L 348.362104 307.584 
L 348.362104 300.187629 
L 345.577372 300.187629 
z
" style="fill:#1f77b4;"/>
   </g>
   <g id="patch_85">
    <path clip-path="url(#p0c55e21234)" d="M 348.362104 307.584 
L 351.146836 307.584 
L 351.146836 300.977533 
L 348.362104 300.977533 
z
" style="fill:#1f77b4;"/>
   </g>
   <g id="patch_86">
    <path clip-path="url(#p0c55e21234)" d="M 351.146836 307.584 
L 353.931567 307.584 
L 353.931567 302.629149 
L 351.146836 302.629149 
z
" style="fill:#1f77b4;"/>
   </g>
   <g id="patch_87">
    <path clip-path="url(#p0c55e21234)" d="M 353.931567 307.584 
L 356.716299 307.584 
L 356.716299 303.706291 
L 353.931567 303.706291 
z
" style="fill:#1f77b4;"/>
   </g>
   <g id="patch_88">
    <path clip-path="url(#p0c55e21234)" d="M 356.716299 307.584 
L 359.50103 307.584 
L 359.50103 304.783432 
L 356.716299 304.783432 
z
" style="fill:#1f77b4;"/>
   </g>
   <g id="patch_89">
    <path clip-path="url(#p0c55e21234)" d="M 359.50103 307.584 
L 362.285762 307.584 
L 362.285762 305.788764 
L 359.50103 305.788764 
z
" style="fill:#1f77b4;"/>
   </g>
   <g id="patch_90">
    <path clip-path="url(#p0c55e21234)" d="M 362.285762 307.584 
L 365.070494 307.584 
L 365.070494 306.36324 
L 362.285762 306.36324 
z
" style="fill:#1f77b4;"/>
   </g>
   <g id="patch_91">
    <path clip-path="url(#p0c55e21234)" d="M 365.070494 307.584 
L 367.855225 307.584 
L 367.855225 306.865906 
L 365.070494 306.865906 
z
" style="fill:#1f77b4;"/>
   </g>
   <g id="patch_92">
    <path clip-path="url(#p0c55e21234)" d="M 367.855225 307.584 
L 370.639957 307.584 
L 370.639957 307.153143 
L 367.855225 307.153143 
z
" style="fill:#1f77b4;"/>
   </g>
   <g id="patch_93">
    <path clip-path="url(#p0c55e21234)" d="M 370.639957 307.584 
L 373.424688 307.584 
L 373.424688 307.224953 
L 370.639957 307.224953 
z
" style="fill:#1f77b4;"/>
   </g>
   <g id="patch_94">
    <path clip-path="url(#p0c55e21234)" d="M 373.424688 307.584 
L 376.20942 307.584 
L 376.20942 307.153143 
L 373.424688 307.153143 
z
" style="fill:#1f77b4;"/>
   </g>
   <g id="patch_95">
    <path clip-path="url(#p0c55e21234)" d="M 376.20942 307.584 
L 378.994152 307.584 
L 378.994152 307.296762 
L 376.20942 307.296762 
z
" style="fill:#1f77b4;"/>
   </g>
   <g id="patch_96">
    <path clip-path="url(#p0c55e21234)" d="M 378.994152 307.584 
L 381.778883 307.584 
L 381.778883 307.440381 
L 378.994152 307.440381 
z
" style="fill:#1f77b4;"/>
   </g>
   <g id="patch_97">
    <path clip-path="url(#p0c55e21234)" d="M 381.778883 307.584 
L 384.563615 307.584 
L 384.563615 307.512191 
L 381.778883 307.512191 
z
" style="fill:#1f77b4;"/>
   </g>
   <g id="patch_98">
    <path clip-path="url(#p0c55e21234)" d="M 384.563615 307.584 
L 387.348346 307.584 
L 387.348346 307.512191 
L 384.563615 307.512191 
z
" style="fill:#1f77b4;"/>
   </g>
   <g id="patch_99">
    <path clip-path="url(#p0c55e21234)" d="M 387.348346 307.584 
L 390.133078 307.584 
L 390.133078 307.440381 
L 387.348346 307.440381 
z
" style="fill:#1f77b4;"/>
   </g>
   <g id="patch_100">
    <path clip-path="url(#p0c55e21234)" d="M 390.133078 307.584 
L 392.91781 307.584 
L 392.91781 307.512191 
L 390.133078 307.512191 
z
" style="fill:#1f77b4;"/>
   </g>
   <g id="patch_101">
    <path clip-path="url(#p0c55e21234)" d="M 392.91781 307.584 
L 395.702541 307.584 
L 395.702541 307.584 
L 392.91781 307.584 
z
" style="fill:#1f77b4;"/>
   </g>
   <g id="patch_102">
    <path clip-path="url(#p0c55e21234)" d="M 395.702541 307.584 
L 398.487273 307.584 
L 398.487273 307.296762 
L 395.702541 307.296762 
z
" style="fill:#1f77b4;"/>
   </g>
   <g id="matplotlib.axis_1">
    <g id="xtick_1">
     <g id="line2d_1">
      <defs>
       <path d="M 0 0 
L 0 3.5 
" id="mf7e1a6f939" style="stroke:#000000;stroke-width:0.8;"/>
      </defs>
      <g>
       <use style="stroke:#000000;stroke-width:0.8;" x="102.970307" xlink:href="#mf7e1a6f939" y="307.584"/>
      </g>
     </g>
     <g id="text_1">
      <!-- −2 -->
      <defs>
       <path d="M 10.59375 35.5 
L 73.1875 35.5 
L 73.1875 27.203125 
L 10.59375 27.203125 
z
" id="DejaVuSans-8722"/>
       <path d="M 19.1875 8.296875 
L 53.609375 8.296875 
L 53.609375 0 
L 7.328125 0 
L 7.328125 8.296875 
Q 12.9375 14.109375 22.625 23.890625 
Q 32.328125 33.6875 34.8125 36.53125 
Q 39.546875 41.84375 41.421875 45.53125 
Q 43.3125 49.21875 43.3125 52.78125 
Q 43.3125 58.59375 39.234375 62.25 
Q 35.15625 65.921875 28.609375 65.921875 
Q 23.96875 65.921875 18.8125 64.3125 
Q 13.671875 62.703125 7.8125 59.421875 
L 7.8125 69.390625 
Q 13.765625 71.78125 18.9375 73 
Q 24.125 74.21875 28.421875 74.21875 
Q 39.75 74.21875 46.484375 68.546875 
Q 53.21875 62.890625 53.21875 53.421875 
Q 53.21875 48.921875 51.53125 44.890625 
Q 49.859375 40.875 45.40625 35.40625 
Q 44.1875 33.984375 37.640625 27.21875 
Q 31.109375 20.453125 19.1875 8.296875 
z
" id="DejaVuSans-50"/>
      </defs>
      <g transform="translate(90.439448 327.501344)scale(0.17 -0.17)">
       <use xlink:href="#DejaVuSans-8722"/>
       <use x="83.789062" xlink:href="#DejaVuSans-50"/>
      </g>
     </g>
    </g>
    <g id="xtick_2">
     <g id="line2d_2">
      <g>
       <use style="stroke:#000000;stroke-width:0.8;" x="161.245467" xlink:href="#mf7e1a6f939" y="307.584"/>
      </g>
     </g>
     <g id="text_2">
      <!-- −1 -->
      <defs>
       <path d="M 12.40625 8.296875 
L 28.515625 8.296875 
L 28.515625 63.921875 
L 10.984375 60.40625 
L 10.984375 69.390625 
L 28.421875 72.90625 
L 38.28125 72.90625 
L 38.28125 8.296875 
L 54.390625 8.296875 
L 54.390625 0 
L 12.40625 0 
z
" id="DejaVuSans-49"/>
      </defs>
      <g transform="translate(148.714608 327.501344)scale(0.17 -0.17)">
       <use xlink:href="#DejaVuSans-8722"/>
       <use x="83.789062" xlink:href="#DejaVuSans-49"/>
      </g>
     </g>
    </g>
    <g id="xtick_3">
     <g id="line2d_3">
      <g>
       <use style="stroke:#000000;stroke-width:0.8;" x="219.520627" xlink:href="#mf7e1a6f939" y="307.584"/>
      </g>
     </g>
     <g id="text_3">
      <!-- 0 -->
      <defs>
       <path d="M 31.78125 66.40625 
Q 24.171875 66.40625 20.328125 58.90625 
Q 16.5 51.421875 16.5 36.375 
Q 16.5 21.390625 20.328125 13.890625 
Q 24.171875 6.390625 31.78125 6.390625 
Q 39.453125 6.390625 43.28125 13.890625 
Q 47.125 21.390625 47.125 36.375 
Q 47.125 51.421875 43.28125 58.90625 
Q 39.453125 66.40625 31.78125 66.40625 
z
M 31.78125 74.21875 
Q 44.046875 74.21875 50.515625 64.515625 
Q 56.984375 54.828125 56.984375 36.375 
Q 56.984375 17.96875 50.515625 8.265625 
Q 44.046875 -1.421875 31.78125 -1.421875 
Q 19.53125 -1.421875 13.0625 8.265625 
Q 6.59375 17.96875 6.59375 36.375 
Q 6.59375 54.828125 13.0625 64.515625 
Q 19.53125 74.21875 31.78125 74.21875 
z
" id="DejaVuSans-48"/>
      </defs>
      <g transform="translate(214.112502 327.501344)scale(0.17 -0.17)">
       <use xlink:href="#DejaVuSans-48"/>
      </g>
     </g>
    </g>
    <g id="xtick_4">
     <g id="line2d_4">
      <g>
       <use style="stroke:#000000;stroke-width:0.8;" x="277.795786" xlink:href="#mf7e1a6f939" y="307.584"/>
      </g>
     </g>
     <g id="text_4">
      <!-- 1 -->
      <g transform="translate(272.387661 327.501344)scale(0.17 -0.17)">
       <use xlink:href="#DejaVuSans-49"/>
      </g>
     </g>
    </g>
    <g id="xtick_5">
     <g id="line2d_5">
      <g>
       <use style="stroke:#000000;stroke-width:0.8;" x="336.070946" xlink:href="#mf7e1a6f939" y="307.584"/>
      </g>
     </g>
     <g id="text_5">
      <!-- 2 -->
      <g transform="translate(330.662821 327.501344)scale(0.17 -0.17)">
       <use xlink:href="#DejaVuSans-50"/>
      </g>
     </g>
    </g>
    <g id="xtick_6">
     <g id="line2d_6">
      <g>
       <use style="stroke:#000000;stroke-width:0.8;" x="394.346106" xlink:href="#mf7e1a6f939" y="307.584"/>
      </g>
     </g>
     <g id="text_6">
      <!-- 3 -->
      <defs>
       <path d="M 40.578125 39.3125 
Q 47.65625 37.796875 51.625 33 
Q 55.609375 28.21875 55.609375 21.1875 
Q 55.609375 10.40625 48.1875 4.484375 
Q 40.765625 -1.421875 27.09375 -1.421875 
Q 22.515625 -1.421875 17.65625 -0.515625 
Q 12.796875 0.390625 7.625 2.203125 
L 7.625 11.71875 
Q 11.71875 9.328125 16.59375 8.109375 
Q 21.484375 6.890625 26.8125 6.890625 
Q 36.078125 6.890625 40.9375 10.546875 
Q 45.796875 14.203125 45.796875 21.1875 
Q 45.796875 27.640625 41.28125 31.265625 
Q 36.765625 34.90625 28.71875 34.90625 
L 20.21875 34.90625 
L 20.21875 43.015625 
L 29.109375 43.015625 
Q 36.375 43.015625 40.234375 45.921875 
Q 44.09375 48.828125 44.09375 54.296875 
Q 44.09375 59.90625 40.109375 62.90625 
Q 36.140625 65.921875 28.71875 65.921875 
Q 24.65625 65.921875 20.015625 65.03125 
Q 15.375 64.15625 9.8125 62.3125 
L 9.8125 71.09375 
Q 15.4375 72.65625 20.34375 73.4375 
Q 25.25 74.21875 29.59375 74.21875 
Q 40.828125 74.21875 47.359375 69.109375 
Q 53.90625 64.015625 53.90625 55.328125 
Q 53.90625 49.265625 50.4375 45.09375 
Q 46.96875 40.921875 40.578125 39.3125 
z
" id="DejaVuSans-51"/>
      </defs>
      <g transform="translate(388.937981 327.501344)scale(0.17 -0.17)">
       <use xlink:href="#DejaVuSans-51"/>
      </g>
     </g>
    </g>
    <g id="text_7">
     <!-- Compressed value -->
     <defs>
      <path d="M 64.40625 67.28125 
L 64.40625 56.890625 
Q 59.421875 61.53125 53.78125 63.8125 
Q 48.140625 66.109375 41.796875 66.109375 
Q 29.296875 66.109375 22.65625 58.46875 
Q 16.015625 50.828125 16.015625 36.375 
Q 16.015625 21.96875 22.65625 14.328125 
Q 29.296875 6.6875 41.796875 6.6875 
Q 48.140625 6.6875 53.78125 8.984375 
Q 59.421875 11.28125 64.40625 15.921875 
L 64.40625 5.609375 
Q 59.234375 2.09375 53.4375 0.328125 
Q 47.65625 -1.421875 41.21875 -1.421875 
Q 24.65625 -1.421875 15.125 8.703125 
Q 5.609375 18.84375 5.609375 36.375 
Q 5.609375 53.953125 15.125 64.078125 
Q 24.65625 74.21875 41.21875 74.21875 
Q 47.75 74.21875 53.53125 72.484375 
Q 59.328125 70.75 64.40625 67.28125 
z
" id="DejaVuSans-67"/>
      <path d="M 30.609375 48.390625 
Q 23.390625 48.390625 19.1875 42.75 
Q 14.984375 37.109375 14.984375 27.296875 
Q 14.984375 17.484375 19.15625 11.84375 
Q 23.34375 6.203125 30.609375 6.203125 
Q 37.796875 6.203125 41.984375 11.859375 
Q 46.1875 17.53125 46.1875 27.296875 
Q 46.1875 37.015625 41.984375 42.703125 
Q 37.796875 48.390625 30.609375 48.390625 
z
M 30.609375 56 
Q 42.328125 56 49.015625 48.375 
Q 55.71875 40.765625 55.71875 27.296875 
Q 55.71875 13.875 49.015625 6.21875 
Q 42.328125 -1.421875 30.609375 -1.421875 
Q 18.84375 -1.421875 12.171875 6.21875 
Q 5.515625 13.875 5.515625 27.296875 
Q 5.515625 40.765625 12.171875 48.375 
Q 18.84375 56 30.609375 56 
z
" id="DejaVuSans-111"/>
      <path d="M 52 44.1875 
Q 55.375 50.25 60.0625 53.125 
Q 64.75 56 71.09375 56 
Q 79.640625 56 84.28125 50.015625 
Q 88.921875 44.046875 88.921875 33.015625 
L 88.921875 0 
L 79.890625 0 
L 79.890625 32.71875 
Q 79.890625 40.578125 77.09375 44.375 
Q 74.3125 48.1875 68.609375 48.1875 
Q 61.625 48.1875 57.5625 43.546875 
Q 53.515625 38.921875 53.515625 30.90625 
L 53.515625 0 
L 44.484375 0 
L 44.484375 32.71875 
Q 44.484375 40.625 41.703125 44.40625 
Q 38.921875 48.1875 33.109375 48.1875 
Q 26.21875 48.1875 22.15625 43.53125 
Q 18.109375 38.875 18.109375 30.90625 
L 18.109375 0 
L 9.078125 0 
L 9.078125 54.6875 
L 18.109375 54.6875 
L 18.109375 46.1875 
Q 21.1875 51.21875 25.484375 53.609375 
Q 29.78125 56 35.6875 56 
Q 41.65625 56 45.828125 52.96875 
Q 50 49.953125 52 44.1875 
z
" id="DejaVuSans-109"/>
      <path d="M 18.109375 8.203125 
L 18.109375 -20.796875 
L 9.078125 -20.796875 
L 9.078125 54.6875 
L 18.109375 54.6875 
L 18.109375 46.390625 
Q 20.953125 51.265625 25.265625 53.625 
Q 29.59375 56 35.59375 56 
Q 45.5625 56 51.78125 48.09375 
Q 58.015625 40.1875 58.015625 27.296875 
Q 58.015625 14.40625 51.78125 6.484375 
Q 45.5625 -1.421875 35.59375 -1.421875 
Q 29.59375 -1.421875 25.265625 0.953125 
Q 20.953125 3.328125 18.109375 8.203125 
z
M 48.6875 27.296875 
Q 48.6875 37.203125 44.609375 42.84375 
Q 40.53125 48.484375 33.40625 48.484375 
Q 26.265625 48.484375 22.1875 42.84375 
Q 18.109375 37.203125 18.109375 27.296875 
Q 18.109375 17.390625 22.1875 11.75 
Q 26.265625 6.109375 33.40625 6.109375 
Q 40.53125 6.109375 44.609375 11.75 
Q 48.6875 17.390625 48.6875 27.296875 
z
" id="DejaVuSans-112"/>
      <path d="M 41.109375 46.296875 
Q 39.59375 47.171875 37.8125 47.578125 
Q 36.03125 48 33.890625 48 
Q 26.265625 48 22.1875 43.046875 
Q 18.109375 38.09375 18.109375 28.8125 
L 18.109375 0 
L 9.078125 0 
L 9.078125 54.6875 
L 18.109375 54.6875 
L 18.109375 46.1875 
Q 20.953125 51.171875 25.484375 53.578125 
Q 30.03125 56 36.53125 56 
Q 37.453125 56 38.578125 55.875 
Q 39.703125 55.765625 41.0625 55.515625 
z
" id="DejaVuSans-114"/>
      <path d="M 56.203125 29.59375 
L 56.203125 25.203125 
L 14.890625 25.203125 
Q 15.484375 15.921875 20.484375 11.0625 
Q 25.484375 6.203125 34.421875 6.203125 
Q 39.59375 6.203125 44.453125 7.46875 
Q 49.3125 8.734375 54.109375 11.28125 
L 54.109375 2.78125 
Q 49.265625 0.734375 44.1875 -0.34375 
Q 39.109375 -1.421875 33.890625 -1.421875 
Q 20.796875 -1.421875 13.15625 6.1875 
Q 5.515625 13.8125 5.515625 26.8125 
Q 5.515625 40.234375 12.765625 48.109375 
Q 20.015625 56 32.328125 56 
Q 43.359375 56 49.78125 48.890625 
Q 56.203125 41.796875 56.203125 29.59375 
z
M 47.21875 32.234375 
Q 47.125 39.59375 43.09375 43.984375 
Q 39.0625 48.390625 32.421875 48.390625 
Q 24.90625 48.390625 20.390625 44.140625 
Q 15.875 39.890625 15.1875 32.171875 
z
" id="DejaVuSans-101"/>
      <path d="M 44.28125 53.078125 
L 44.28125 44.578125 
Q 40.484375 46.53125 36.375 47.5 
Q 32.28125 48.484375 27.875 48.484375 
Q 21.1875 48.484375 17.84375 46.4375 
Q 14.5 44.390625 14.5 40.28125 
Q 14.5 37.15625 16.890625 35.375 
Q 19.28125 33.59375 26.515625 31.984375 
L 29.59375 31.296875 
Q 39.15625 29.25 43.1875 25.515625 
Q 47.21875 21.78125 47.21875 15.09375 
Q 47.21875 7.46875 41.1875 3.015625 
Q 35.15625 -1.421875 24.609375 -1.421875 
Q 20.21875 -1.421875 15.453125 -0.5625 
Q 10.6875 0.296875 5.421875 2 
L 5.421875 11.28125 
Q 10.40625 8.6875 15.234375 7.390625 
Q 20.0625 6.109375 24.8125 6.109375 
Q 31.15625 6.109375 34.5625 8.28125 
Q 37.984375 10.453125 37.984375 14.40625 
Q 37.984375 18.0625 35.515625 20.015625 
Q 33.0625 21.96875 24.703125 23.78125 
L 21.578125 24.515625 
Q 13.234375 26.265625 9.515625 29.90625 
Q 5.8125 33.546875 5.8125 39.890625 
Q 5.8125 47.609375 11.28125 51.796875 
Q 16.75 56 26.8125 56 
Q 31.78125 56 36.171875 55.265625 
Q 40.578125 54.546875 44.28125 53.078125 
z
" id="DejaVuSans-115"/>
      <path d="M 45.40625 46.390625 
L 45.40625 75.984375 
L 54.390625 75.984375 
L 54.390625 0 
L 45.40625 0 
L 45.40625 8.203125 
Q 42.578125 3.328125 38.25 0.953125 
Q 33.9375 -1.421875 27.875 -1.421875 
Q 17.96875 -1.421875 11.734375 6.484375 
Q 5.515625 14.40625 5.515625 27.296875 
Q 5.515625 40.1875 11.734375 48.09375 
Q 17.96875 56 27.875 56 
Q 33.9375 56 38.25 53.625 
Q 42.578125 51.265625 45.40625 46.390625 
z
M 14.796875 27.296875 
Q 14.796875 17.390625 18.875 11.75 
Q 22.953125 6.109375 30.078125 6.109375 
Q 37.203125 6.109375 41.296875 11.75 
Q 45.40625 17.390625 45.40625 27.296875 
Q 45.40625 37.203125 41.296875 42.84375 
Q 37.203125 48.484375 30.078125 48.484375 
Q 22.953125 48.484375 18.875 42.84375 
Q 14.796875 37.203125 14.796875 27.296875 
z
" id="DejaVuSans-100"/>
      <path id="DejaVuSans-32"/>
      <path d="M 2.984375 54.6875 
L 12.5 54.6875 
L 29.59375 8.796875 
L 46.6875 54.6875 
L 56.203125 54.6875 
L 35.6875 0 
L 23.484375 0 
z
" id="DejaVuSans-118"/>
      <path d="M 34.28125 27.484375 
Q 23.390625 27.484375 19.1875 25 
Q 14.984375 22.515625 14.984375 16.5 
Q 14.984375 11.71875 18.140625 8.90625 
Q 21.296875 6.109375 26.703125 6.109375 
Q 34.1875 6.109375 38.703125 11.40625 
Q 43.21875 16.703125 43.21875 25.484375 
L 43.21875 27.484375 
z
M 52.203125 31.203125 
L 52.203125 0 
L 43.21875 0 
L 43.21875 8.296875 
Q 40.140625 3.328125 35.546875 0.953125 
Q 30.953125 -1.421875 24.3125 -1.421875 
Q 15.921875 -1.421875 10.953125 3.296875 
Q 6 8.015625 6 15.921875 
Q 6 25.140625 12.171875 29.828125 
Q 18.359375 34.515625 30.609375 34.515625 
L 43.21875 34.515625 
L 43.21875 35.40625 
Q 43.21875 41.609375 39.140625 45 
Q 35.0625 48.390625 27.6875 48.390625 
Q 23 48.390625 18.546875 47.265625 
Q 14.109375 46.140625 10.015625 43.890625 
L 10.015625 52.203125 
Q 14.9375 54.109375 19.578125 55.046875 
Q 24.21875 56 28.609375 56 
Q 40.484375 56 46.34375 49.84375 
Q 52.203125 43.703125 52.203125 31.203125 
z
" id="DejaVuSans-97"/>
      <path d="M 9.421875 75.984375 
L 18.40625 75.984375 
L 18.40625 0 
L 9.421875 0 
z
" id="DejaVuSans-108"/>
      <path d="M 8.5 21.578125 
L 8.5 54.6875 
L 17.484375 54.6875 
L 17.484375 21.921875 
Q 17.484375 14.15625 20.5 10.265625 
Q 23.53125 6.390625 29.59375 6.390625 
Q 36.859375 6.390625 41.078125 11.03125 
Q 45.3125 15.671875 45.3125 23.6875 
L 45.3125 54.6875 
L 54.296875 54.6875 
L 54.296875 0 
L 45.3125 0 
L 45.3125 8.40625 
Q 42.046875 3.421875 37.71875 1 
Q 33.40625 -1.421875 27.6875 -1.421875 
Q 18.265625 -1.421875 13.375 4.4375 
Q 8.5 10.296875 8.5 21.578125 
z
M 31.109375 56 
z
" id="DejaVuSans-117"/>
     </defs>
     <g transform="translate(96.861562 357.832125)scale(0.3 -0.3)">
      <use xlink:href="#DejaVuSans-67"/>
      <use x="69.824219" xlink:href="#DejaVuSans-111"/>
      <use x="131.005859" xlink:href="#DejaVuSans-109"/>
      <use x="228.417969" xlink:href="#DejaVuSans-112"/>
      <use x="291.894531" xlink:href="#DejaVuSans-114"/>
      <use x="332.976562" xlink:href="#DejaVuSans-101"/>
      <use x="394.5" xlink:href="#DejaVuSans-115"/>
      <use x="446.599609" xlink:href="#DejaVuSans-115"/>
      <use x="498.699219" xlink:href="#DejaVuSans-101"/>
      <use x="560.222656" xlink:href="#DejaVuSans-100"/>
      <use x="623.699219" xlink:href="#DejaVuSans-32"/>
      <use x="655.486328" xlink:href="#DejaVuSans-118"/>
      <use x="714.666016" xlink:href="#DejaVuSans-97"/>
      <use x="775.945312" xlink:href="#DejaVuSans-108"/>
      <use x="803.728516" xlink:href="#DejaVuSans-117"/>
      <use x="867.107422" xlink:href="#DejaVuSans-101"/>
     </g>
    </g>
   </g>
   <g id="matplotlib.axis_2">
    <g id="ytick_1">
     <g id="line2d_7">
      <defs>
       <path d="M 0 0 
L -3.5 0 
" id="mb5a77c84a1" style="stroke:#000000;stroke-width:0.8;"/>
      </defs>
      <g>
       <use style="stroke:#000000;stroke-width:0.8;" x="57.6" xlink:href="#mb5a77c84a1" y="307.584"/>
      </g>
     </g>
     <g id="text_8">
      <!-- 0.0 -->
      <defs>
       <path d="M 10.6875 12.40625 
L 21 12.40625 
L 21 0 
L 10.6875 0 
z
" id="DejaVuSans-46"/>
      </defs>
      <g transform="translate(23.564687 314.042672)scale(0.17 -0.17)">
       <use xlink:href="#DejaVuSans-48"/>
       <use x="63.623047" xlink:href="#DejaVuSans-46"/>
       <use x="95.410156" xlink:href="#DejaVuSans-48"/>
      </g>
     </g>
    </g>
    <g id="ytick_2">
     <g id="line2d_8">
      <g>
       <use style="stroke:#000000;stroke-width:0.8;" x="57.6" xlink:href="#mb5a77c84a1" y="237.58183"/>
      </g>
     </g>
     <g id="text_9">
      <!-- 0.2 -->
      <g transform="translate(23.564687 244.040502)scale(0.17 -0.17)">
       <use xlink:href="#DejaVuSans-48"/>
       <use x="63.623047" xlink:href="#DejaVuSans-46"/>
       <use x="95.410156" xlink:href="#DejaVuSans-50"/>
      </g>
     </g>
    </g>
    <g id="ytick_3">
     <g id="line2d_9">
      <g>
       <use style="stroke:#000000;stroke-width:0.8;" x="57.6" xlink:href="#mb5a77c84a1" y="167.579659"/>
      </g>
     </g>
     <g id="text_10">
      <!-- 0.4 -->
      <defs>
       <path d="M 37.796875 64.3125 
L 12.890625 25.390625 
L 37.796875 25.390625 
z
M 35.203125 72.90625 
L 47.609375 72.90625 
L 47.609375 25.390625 
L 58.015625 25.390625 
L 58.015625 17.1875 
L 47.609375 17.1875 
L 47.609375 0 
L 37.796875 0 
L 37.796875 17.1875 
L 4.890625 17.1875 
L 4.890625 26.703125 
z
" id="DejaVuSans-52"/>
      </defs>
      <g transform="translate(23.564687 174.038331)scale(0.17 -0.17)">
       <use xlink:href="#DejaVuSans-48"/>
       <use x="63.623047" xlink:href="#DejaVuSans-46"/>
       <use x="95.410156" xlink:href="#DejaVuSans-52"/>
      </g>
     </g>
    </g>
    <g id="ytick_4">
     <g id="line2d_10">
      <g>
       <use style="stroke:#000000;stroke-width:0.8;" x="57.6" xlink:href="#mb5a77c84a1" y="97.577489"/>
      </g>
     </g>
     <g id="text_11">
      <!-- 0.6 -->
      <defs>
       <path d="M 33.015625 40.375 
Q 26.375 40.375 22.484375 35.828125 
Q 18.609375 31.296875 18.609375 23.390625 
Q 18.609375 15.53125 22.484375 10.953125 
Q 26.375 6.390625 33.015625 6.390625 
Q 39.65625 6.390625 43.53125 10.953125 
Q 47.40625 15.53125 47.40625 23.390625 
Q 47.40625 31.296875 43.53125 35.828125 
Q 39.65625 40.375 33.015625 40.375 
z
M 52.59375 71.296875 
L 52.59375 62.3125 
Q 48.875 64.0625 45.09375 64.984375 
Q 41.3125 65.921875 37.59375 65.921875 
Q 27.828125 65.921875 22.671875 59.328125 
Q 17.53125 52.734375 16.796875 39.40625 
Q 19.671875 43.65625 24.015625 45.921875 
Q 28.375 48.1875 33.59375 48.1875 
Q 44.578125 48.1875 50.953125 41.515625 
Q 57.328125 34.859375 57.328125 23.390625 
Q 57.328125 12.15625 50.6875 5.359375 
Q 44.046875 -1.421875 33.015625 -1.421875 
Q 20.359375 -1.421875 13.671875 8.265625 
Q 6.984375 17.96875 6.984375 36.375 
Q 6.984375 53.65625 15.1875 63.9375 
Q 23.390625 74.21875 37.203125 74.21875 
Q 40.921875 74.21875 44.703125 73.484375 
Q 48.484375 72.75 52.59375 71.296875 
z
" id="DejaVuSans-54"/>
      </defs>
      <g transform="translate(23.564687 104.036161)scale(0.17 -0.17)">
       <use xlink:href="#DejaVuSans-48"/>
       <use x="63.623047" xlink:href="#DejaVuSans-46"/>
       <use x="95.410156" xlink:href="#DejaVuSans-54"/>
      </g>
     </g>
    </g>
    <g id="text_12">
     <!-- Density -->
     <defs>
      <path d="M 19.671875 64.796875 
L 19.671875 8.109375 
L 31.59375 8.109375 
Q 46.6875 8.109375 53.6875 14.9375 
Q 60.6875 21.78125 60.6875 36.53125 
Q 60.6875 51.171875 53.6875 57.984375 
Q 46.6875 64.796875 31.59375 64.796875 
z
M 9.8125 72.90625 
L 30.078125 72.90625 
Q 51.265625 72.90625 61.171875 64.09375 
Q 71.09375 55.28125 71.09375 36.53125 
Q 71.09375 17.671875 61.125 8.828125 
Q 51.171875 0 30.078125 0 
L 9.8125 0 
z
" id="DejaVuSans-68"/>
      <path d="M 54.890625 33.015625 
L 54.890625 0 
L 45.90625 0 
L 45.90625 32.71875 
Q 45.90625 40.484375 42.875 44.328125 
Q 39.84375 48.1875 33.796875 48.1875 
Q 26.515625 48.1875 22.3125 43.546875 
Q 18.109375 38.921875 18.109375 30.90625 
L 18.109375 0 
L 9.078125 0 
L 9.078125 54.6875 
L 18.109375 54.6875 
L 18.109375 46.1875 
Q 21.34375 51.125 25.703125 53.5625 
Q 30.078125 56 35.796875 56 
Q 45.21875 56 50.046875 50.171875 
Q 54.890625 44.34375 54.890625 33.015625 
z
" id="DejaVuSans-110"/>
      <path d="M 9.421875 54.6875 
L 18.40625 54.6875 
L 18.40625 0 
L 9.421875 0 
z
M 9.421875 75.984375 
L 18.40625 75.984375 
L 18.40625 64.59375 
L 9.421875 64.59375 
z
" id="DejaVuSans-105"/>
      <path d="M 18.3125 70.21875 
L 18.3125 54.6875 
L 36.8125 54.6875 
L 36.8125 47.703125 
L 18.3125 47.703125 
L 18.3125 18.015625 
Q 18.3125 11.328125 20.140625 9.421875 
Q 21.96875 7.515625 27.59375 7.515625 
L 36.8125 7.515625 
L 36.8125 0 
L 27.59375 0 
Q 17.1875 0 13.234375 3.875 
Q 9.28125 7.765625 9.28125 18.015625 
L 9.28125 47.703125 
L 2.6875 47.703125 
L 2.6875 54.6875 
L 9.28125 54.6875 
L 9.28125 70.21875 
z
" id="DejaVuSans-116"/>
      <path d="M 32.171875 -5.078125 
Q 28.375 -14.84375 24.75 -17.8125 
Q 21.140625 -20.796875 15.09375 -20.796875 
L 7.90625 -20.796875 
L 7.90625 -13.28125 
L 13.1875 -13.28125 
Q 16.890625 -13.28125 18.9375 -11.515625 
Q 21 -9.765625 23.484375 -3.21875 
L 25.09375 0.875 
L 2.984375 54.6875 
L 12.5 54.6875 
L 29.59375 11.921875 
L 46.6875 54.6875 
L 56.203125 54.6875 
z
" id="DejaVuSans-121"/>
     </defs>
     <g transform="translate(13.325625 231.553781)rotate(-90)scale(0.3 -0.3)">
      <use xlink:href="#DejaVuSans-68"/>
      <use x="77.001953" xlink:href="#DejaVuSans-101"/>
      <use x="138.525391" xlink:href="#DejaVuSans-110"/>
      <use x="201.904297" xlink:href="#DejaVuSans-115"/>
      <use x="254.003906" xlink:href="#DejaVuSans-105"/>
      <use x="281.787109" xlink:href="#DejaVuSans-116"/>
      <use x="320.996094" xlink:href="#DejaVuSans-121"/>
     </g>
    </g>
   </g>
   <g id="line2d_11">
    <path clip-path="url(#p0c55e21234)" d="M 73.832727 307.584 
L 119.637288 307.47293 
L 120.46571 307.482611 
L 121.986863 307.575904 
L 127.53443 307.525804 
L 128.395702 307.492751 
L 129.411233 307.470913 
L 130.135387 307.41372 
L 131.212335 307.218483 
L 132.742058 307.465418 
L 133.644752 307.492159 
L 134.590295 307.499173 
L 136.212858 307.388288 
L 137.529762 307.327646 
L 139.360859 307.226722 
L 139.917901 307.264361 
L 140.499224 307.023317 
L 141.051981 306.891333 
L 141.62045 307.027843 
L 142.157495 307.068415 
L 142.741675 306.842567 
L 143.528676 306.596118 
L 144.471362 306.371091 
L 145.326921 305.760204 
L 145.806834 305.581687 
L 146.212475 305.681714 
L 147.000904 305.911313 
L 148.05357 305.768372 
L 149.386186 305.533353 
L 149.817537 305.130041 
L 151.074452 303.77125 
L 151.904302 303.56234 
L 152.891266 303.250674 
L 153.783961 302.912367 
L 154.10676 302.665632 
L 154.429558 302.086478 
L 155.392241 300.157138 
L 155.683617 300.10212 
L 156.253514 300.321005 
L 156.723429 300.341015 
L 157.353315 300.123033 
L 157.851796 299.71327 
L 158.631655 299.060003 
L 159.234403 298.705206 
L 159.545775 298.123509 
L 160.515599 296.078506 
L 161.295458 295.313386 
L 163.406504 291.720953 
L 163.65503 291.661903 
L 163.920697 291.86113 
L 164.440602 292.254255 
L 164.633425 292.106256 
L 164.876238 291.578071 
L 165.309017 289.971356 
L 165.818924 288.381574 
L 166.126012 288.057404 
L 166.618779 287.684568 
L 166.898729 287.01297 
L 167.520045 284.711111 
L 168.008528 283.409679 
L 168.399885 282.931897 
L 168.80267 282.784911 
L 169.278298 282.593663 
L 169.57253 282.179078 
L 169.921038 281.250958 
L 170.380955 279.309159 
L 171.155101 276.056148 
L 171.369348 275.898027 
L 171.533604 276.066906 
L 172.176344 277.124895 
L 172.249188 277.044966 
L 172.417729 276.563849 
L 172.67911 275.014933 
L 173.516102 269.570561 
L 173.641793 269.545793 
L 173.66179 269.564876 
L 173.824617 269.911732 
L 174.605904 271.953412 
L 174.618759 271.948387 
L 174.781587 271.751275 
L 175.061536 270.976454 
L 176.099919 267.068497 
L 176.695526 265.040146 
L 177.025466 264.63859 
L 177.398256 264.219629 
L 177.645354 263.4795 
L 177.966724 261.692022 
L 179.003679 255.334119 
L 179.263632 255.000856 
L 179.450741 255.065156 
L 179.696411 255.441497 
L 180.500551 256.878211 
L 180.511977 256.87195 
L 180.67052 256.645615 
L 180.910477 255.830298 
L 181.534649 252.570723 
L 181.966 251.056474 
L 182.271659 250.666509 
L 182.753 250.245703 
L 182.9901 249.500457 
L 183.341465 247.513432 
L 183.981349 244.002715 
L 184.1756 243.80009 
L 184.181313 243.802664 
L 184.311289 243.990126 
L 184.529821 244.791232 
L 185.456796 248.671065 
L 185.689611 248.774554 
L 185.920998 248.614828 
L 186.265221 248.062704 
L 186.712283 246.901276 
L 187.117924 245.193034 
L 187.686392 241.592883 
L 188.173447 239.157069 
L 188.544808 238.35185 
L 189.050431 237.318494 
L 190.005972 234.472002 
L 190.775833 232.172463 
L 190.93866 232.197413 
L 191.140053 232.541246 
L 191.617109 233.35605 
L 191.764225 233.23705 
L 192.008467 232.660268 
L 192.47981 231.642524 
L 192.778327 231.529111 
L 193.008286 231.3506 
L 193.219676 230.832862 
L 193.499625 229.456065 
L 193.956685 225.866509 
L 194.627992 220.977937 
L 195.032205 219.575955 
L 195.690657 218.24435 
L 195.95918 218.046549 
L 196.119151 218.19194 
L 196.340539 218.768224 
L 197.258944 221.562253 
L 197.450338 221.489357 
L 197.781707 221.046069 
L 198.327322 220.406632 
L 198.601558 220.387205 
L 198.860083 220.614562 
L 199.352851 221.452069 
L 199.619945 221.655542 
L 199.772775 221.506089 
L 199.975595 220.917919 
L 200.312677 219.106315 
L 200.866862 216.35596 
L 201.133957 215.973845 
L 201.48675 215.915008 
L 202.195193 215.90774 
L 202.627972 216.081992 
L 202.810796 215.840571 
L 203.105028 214.98691 
L 203.537807 213.908356 
L 203.70492 213.917341 
L 203.903455 214.236571 
L 204.39908 215.053682 
L 204.536198 214.910496 
L 204.733305 214.29362 
L 205.081813 212.30651 
L 205.700273 208.988806 
L 206.021643 208.343909 
L 207.095734 207.288876 
L 207.267132 207.478046 
L 207.509945 208.15228 
L 208.099838 210.711159 
L 208.489767 211.825209 
L 208.676876 211.888788 
L 208.832562 211.649614 
L 209.082517 210.764239 
L 209.725258 208.39523 
L 209.862376 208.436928 
L 210.026632 208.828017 
L 210.319436 210.223886 
L 211.009311 213.535679 
L 211.189278 213.661536 
L 211.197848 213.656483 
L 211.337823 213.432425 
L 211.566353 212.548941 
L 212.484758 208.340447 
L 212.511896 208.352575 
L 212.631874 208.571252 
L 212.823268 209.485716 
L 213.140354 212.295734 
L 213.873078 218.894715 
L 214.113035 219.426879 
L 214.245868 219.353174 
L 214.442975 218.892862 
L 214.814336 217.35035 
L 215.278538 214.478386 
L 215.719886 210.17763 
L 216.909671 197.688159 
L 217.725238 189.695357 
L 218.367978 181.578559 
L 218.836465 176.49617 
L 218.930733 176.307857 
L 218.979296 176.376973 
L 219.090704 176.992356 
L 219.284955 179.575056 
L 219.670599 188.447132 
L 220.116233 196.738974 
L 220.334765 197.769208 
L 220.411894 197.659083 
L 220.560438 196.908862 
L 220.91466 193.641821 
L 221.414569 189.779611 
L 221.748794 188.713472 
L 222.414388 187.145784 
L 223.494193 183.422085 
L 223.697013 183.482298 
L 224.144075 183.667229 
L 224.334041 183.411583 
L 224.661124 182.49581 
L 225.139609 181.349962 
L 225.660943 180.422016 
L 226.006595 178.952197 
L 226.443658 177.378637 
L 226.622198 177.315135 
L 226.800737 177.565322 
L 227.297789 178.304184 
L 227.443477 178.147904 
L 227.656296 177.512086 
L 228.089075 175.314925 
L 228.447581 174.03236 
L 228.554705 174.016682 
L 228.581843 174.048169 
L 228.720389 174.444039 
L 228.950347 175.919079 
L 229.845899 182.419476 
L 230.025867 182.498865 
L 230.214404 182.268885 
L 231.425613 180.410122 
L 231.575586 180.51886 
L 231.748412 180.997012 
L 231.991225 182.446791 
L 232.429717 186.763302 
L 232.871066 190.213753 
L 233.04532 190.529787 
L 233.065316 190.520015 
L 233.173868 190.30461 
L 233.36669 189.309778 
L 233.788043 185.625039 
L 234.210823 182.804894 
L 234.427927 182.453883 
L 234.557903 182.581341 
L 234.803573 183.240674 
L 235.270631 184.372044 
L 235.459168 184.387978 
L 235.660561 184.122895 
L 236.034779 183.178346 
L 236.746078 180.726031 
L 237.703048 176.655499 
L 238.117258 173.407218 
L 238.899974 167.184771 
L 239.208489 166.34803 
L 239.472727 166.174672 
L 239.882653 166.235731 
L 240.188312 166.169724 
L 240.423984 165.854834 
L 240.722501 165.018742 
L 241.15528 163.053035 
L 241.650904 159.714328 
L 242.782128 151.618786 
L 243.309175 148.067876 
L 243.724814 143.451956 
L 244.341845 133.575047 
L 245.128846 122.117947 
L 246.034396 109.893039 
L 246.540019 98.695291 
L 247.409861 79.420676 
L 249.210964 54.144052 
L 249.22239 54.147066 
L 249.308089 54.312843 
L 249.470916 55.249901 
L 249.81514 58.862713 
L 250.330761 63.582679 
L 250.614995 64.491326 
L 250.820672 64.585755 
L 251.029206 64.407766 
L 251.289159 63.862418 
L 251.590533 62.634956 
L 252.256126 59.784235 
L 252.368963 59.858961 
L 252.527506 60.354193 
L 252.814597 62.140259 
L 253.775851 68.53835 
L 254.645693 72.057343 
L 255.725498 79.653933 
L 256.196841 81.374535 
L 256.559633 83.885357 
L 257.10382 89.468467 
L 257.658005 94.397915 
L 258.046506 95.912868 
L 258.342167 97.336327 
L 258.656396 100.199124 
L 259.537665 108.88999 
L 259.707634 109.102424 
L 259.723345 109.095141 
L 259.861892 108.882995 
L 260.378941 107.855336 
L 260.416077 107.88137 
L 260.558908 108.17683 
L 260.79458 109.288479 
L 262.178615 117.029521 
L 262.472847 118.83424 
L 263.40982 125.512563 
L 263.414105 125.511831 
L 263.535512 125.373374 
L 264.082556 124.376613 
L 264.143973 124.431927 
L 264.329654 124.847991 
L 264.883839 126.901411 
L 265.242346 128.734449 
L 265.546576 131.726293 
L 266.509259 142.410051 
L 266.592101 142.311201 
L 266.733504 141.646422 
L 267.000599 139.094761 
L 268.063263 127.985674 
L 268.491757 125.784892 
L 268.707432 125.497914 
L 268.708861 125.498444 
L 268.825982 125.662358 
L 269.004521 126.390442 
L 269.287327 128.649145 
L 270.092896 135.519655 
L 270.298573 135.772984 
L 270.46997 135.630669 
L 270.777058 135.426724 
L 270.918461 135.643819 
L 271.128422 136.468551 
L 271.999693 140.615093 
L 272.02826 140.602685 
L 272.152523 140.382394 
L 272.351058 139.473123 
L 272.658145 136.847359 
L 273.519418 128.9542 
L 273.655108 128.814617 
L 273.685102 128.835959 
L 273.819364 129.130916 
L 274.115024 130.478287 
L 274.486386 131.777921 
L 274.609221 131.791019 
L 274.629217 131.76969 
L 274.77919 131.40819 
L 275.037714 130.084115 
L 275.641891 125.461299 
L 276.080383 122.992299 
L 276.304628 122.667383 
L 276.438889 122.790927 
L 276.653136 123.37727 
L 277.034496 125.185135 
L 278.332832 131.89221 
L 278.642776 132.222553 
L 278.831313 132.164681 
L 279.006996 131.822512 
L 279.232669 130.801517 
L 279.569751 128.043229 
L 280.226775 122.761666 
L 280.452448 122.329211 
L 280.568141 122.446856 
L 280.74668 123.047208 
L 281.0352 124.935881 
L 281.916469 131.206912 
L 282.010737 131.214034 
L 282.039304 131.178787 
L 282.180706 130.758414 
L 282.424948 129.197992 
L 282.930571 124.159674 
L 283.554743 118.727315 
L 283.853261 117.667511 
L 283.974667 117.641963 
L 283.99752 117.6654 
L 284.140352 118.016859 
L 284.37031 119.291714 
L 284.788806 123.148163 
L 285.320138 127.403227 
L 285.561523 127.966813 
L 285.687214 127.890604 
L 285.878608 127.409948 
L 286.77416 124.784733 
L 286.938416 124.860995 
L 287.136952 125.264062 
L 287.409759 126.3984 
L 287.80683 129.165466 
L 288.353874 132.651313 
L 288.560979 132.912808 
L 288.709524 132.759112 
L 289.088027 132.316016 
L 289.103738 132.327577 
L 289.236571 132.589616 
L 289.442248 133.600819 
L 289.867886 137.142604 
L 290.407788 140.869507 
L 290.976256 144.523762 
L 291.580433 150.646521 
L 292.298874 157.012239 
L 293.067306 161.689613 
L 293.737185 164.530978 
L 294.298512 167.218839 
L 294.952679 170.24806 
L 295.141216 170.399891 
L 295.148358 170.396026 
L 295.285476 170.184638 
L 295.509721 169.331608 
L 296.588097 164.441288 
L 296.605237 164.447151 
L 296.723787 164.627082 
L 296.900898 165.400881 
L 297.157994 167.700522 
L 297.589344 173.997294 
L 298.173524 181.62755 
L 298.500608 183.381776 
L 298.806267 183.95809 
L 299.51471 184.934323 
L 300.010334 186.348527 
L 300.524527 187.534193 
L 301.954268 189.62445 
L 302.185655 189.413397 
L 302.618433 189.03378 
L 302.771263 189.210498 
L 302.984082 189.877755 
L 303.388294 192.075112 
L 303.972474 194.849137 
L 304.978006 197.979836 
L 307.673232 206.675569 
L 307.70894 206.657039 
L 307.860341 206.405775 
L 308.108868 205.46464 
L 308.818739 202.610126 
L 308.977282 202.6131 
L 309.145823 202.930475 
L 309.425772 204.022913 
L 309.921396 207.010781 
L 310.73125 211.693732 
L 311.184025 214.45374 
L 311.801056 220.241289 
L 312.163847 222.400936 
L 312.345243 222.623702 
L 312.35667 222.618626 
L 312.485218 222.422422 
L 312.719461 221.55227 
L 313.390768 218.935571 
L 313.520745 218.977822 
L 313.672146 219.379978 
L 313.916387 220.787524 
L 314.433436 225.454385 
L 315.071892 230.365393 
L 315.554662 232.550003 
L 315.873176 233.158879 
L 316.128844 233.234244 
L 316.59733 233.297229 
L 316.895848 233.678815 
L 317.662852 234.72033 
L 317.984222 235.193244 
L 318.237033 236.052697 
L 318.546977 238.030641 
L 319.669631 246.141252 
L 319.826745 246.178005 
L 319.833887 246.172156 
L 319.999571 245.881753 
L 320.33951 244.711785 
L 320.826564 243.284076 
L 321.096515 243.065863 
L 321.345042 243.145544 
L 321.629276 243.486823 
L 321.903512 244.20075 
L 322.233452 245.786643 
L 323.256124 251.175737 
L 323.851731 253.602399 
L 324.371636 256.983671 
L 325.111502 261.568835 
L 325.41859 262.290524 
L 325.637122 262.35647 
L 326.316998 262.268857 
L 326.555527 262.779967 
L 327.653899 265.596236 
L 328.035259 266.049553 
L 328.308066 266.83996 
L 328.665145 268.662145 
L 329.246468 273.011177 
L 329.746377 276.087858 
L 329.969194 276.440337 
L 330.096314 276.314643 
L 330.319131 275.680338 
L 330.849035 274.191642 
L 331.007577 274.21572 
L 331.197543 274.557168 
L 331.730304 276.190267 
L 332.64728 279.194443 
L 333.158616 280.850316 
L 333.381433 280.996937 
L 333.575684 280.839325 
L 334.057025 280.407106 
L 334.21414 280.62169 
L 334.445526 281.400087 
L 335.711011 286.463462 
L 336.220919 287.632376 
L 336.420883 287.662381 
L 336.657983 287.40248 
L 336.992208 287.126873 
L 337.146466 287.28237 
L 337.363569 287.897794 
L 338.411951 291.439639 
L 338.6919 291.48252 
L 339.763135 291.429499 
L 340.398734 291.485848 
L 340.667256 291.830083 
L 341.077182 292.801379 
L 342.024154 295.025823 
L 343.258216 297.554345 
L 343.583871 297.737895 
L 343.830969 297.629491 
L 344.175193 297.179752 
L 344.690813 296.576938 
L 344.9222 296.613148 
L 345.187866 296.923243 
L 345.749193 298.029046 
L 347.200359 300.788041 
L 347.635994 301.184843 
L 347.940225 301.193711 
L 348.261595 300.954608 
L 348.950042 300.398036 
L 349.19714 300.513827 
L 349.529937 300.966348 
L 350.262661 301.983505 
L 350.701153 302.141185 
L 351.242484 302.391715 
L 351.788099 302.606727 
L 352.143749 302.484493 
L 352.865047 302.181389 
L 353.144997 302.376604 
L 354.321926 303.487588 
L 354.816122 303.340075 
L 355.378878 303.248056 
L 355.725958 303.425552 
L 356.161593 303.943531 
L 356.980016 304.901849 
L 357.449931 305.123343 
L 357.822721 305.058745 
L 358.826825 304.734041 
L 359.251034 304.999194 
L 359.885204 305.358609 
L 360.357976 305.323488 
L 360.823606 305.357902 
L 361.203537 305.644371 
L 362.124799 306.420737 
L 362.547579 306.421025 
L 363.711654 306.291404 
L 365.207098 306.563417 
L 365.207098 306.563417 
" style="fill:none;stroke:#ff7f0e;stroke-linecap:square;stroke-width:1.5;"/>
   </g>
   <g id="patch_103">
    <path d="M 57.6 307.584 
L 57.6 41.472 
" style="fill:none;stroke:#000000;stroke-linecap:square;stroke-linejoin:miter;stroke-width:0.8;"/>
   </g>
   <g id="patch_104">
    <path d="M 414.72 307.584 
L 414.72 41.472 
" style="fill:none;stroke:#000000;stroke-linecap:square;stroke-linejoin:miter;stroke-width:0.8;"/>
   </g>
   <g id="patch_105">
    <path d="M 57.6 307.584 
L 414.72 307.584 
" style="fill:none;stroke:#000000;stroke-linecap:square;stroke-linejoin:miter;stroke-width:0.8;"/>
   </g>
   <g id="patch_106">
    <path d="M 57.6 41.472 
L 414.72 41.472 
" style="fill:none;stroke:#000000;stroke-linecap:square;stroke-linejoin:miter;stroke-width:0.8;"/>
   </g>
  </g>
 </g>
 <defs>
  <clipPath id="p0c55e21234">
   <rect height="266.112" width="357.12" x="57.6" y="41.472"/>
  </clipPath>
 </defs>
</svg>
