<?xml version="1.0" encoding="utf-8" standalone="no"?>
<!DOCTYPE svg PUBLIC "-//W3C//DTD SVG 1.1//EN"
  "http://www.w3.org/Graphics/SVG/1.1/DTD/svg11.dtd">
<!-- Created with matplotlib (https://matplotlib.org/) -->
<svg height="345.6pt" version="1.1" viewBox="0 0 460.8 345.6" width="460.8pt" xmlns="http://www.w3.org/2000/svg" xmlns:xlink="http://www.w3.org/1999/xlink">
 <defs>
  <style type="text/css">
*{stroke-linecap:butt;stroke-linejoin:round;}
  </style>
 </defs>
 <g id="figure_1">
  <g id="patch_1">
   <path d="M 0 345.6 
L 460.8 345.6 
L 460.8 0 
L 0 0 
z
" style="fill:#ffffff;"/>
  </g>
  <g id="axes_1">
   <g id="patch_2">
    <path d="M 57.6 307.584 
L 414.72 307.584 
L 414.72 41.472 
L 57.6 41.472 
z
" style="fill:#ffffff;"/>
   </g>
   <g id="patch_3">
    <path clip-path="url(#p5961536d9f)" d="M 152.258382 307.584 
L 154.720671 307.584 
L 154.720671 307.536601 
L 152.258382 307.536601 
z
" style="fill:#1f77b4;"/>
   </g>
   <g id="patch_4">
    <path clip-path="url(#p5961536d9f)" d="M 154.720671 307.584 
L 157.18296 307.584 
L 157.18296 307.560301 
L 154.720671 307.560301 
z
" style="fill:#1f77b4;"/>
   </g>
   <g id="patch_5">
    <path clip-path="url(#p5961536d9f)" d="M 157.18296 307.584 
L 159.645249 307.584 
L 159.645249 307.560301 
L 157.18296 307.560301 
z
" style="fill:#1f77b4;"/>
   </g>
   <g id="patch_6">
    <path clip-path="url(#p5961536d9f)" d="M 159.645249 307.584 
L 162.107538 307.584 
L 162.107538 307.536601 
L 159.645249 307.536601 
z
" style="fill:#1f77b4;"/>
   </g>
   <g id="patch_7">
    <path clip-path="url(#p5961536d9f)" d="M 162.107538 307.584 
L 164.569827 307.584 
L 164.569827 307.11001 
L 162.107538 307.11001 
z
" style="fill:#1f77b4;"/>
   </g>
   <g id="patch_8">
    <path clip-path="url(#p5961536d9f)" d="M 164.569827 307.584 
L 167.032116 307.584 
L 167.032116 306.067232 
L 164.569827 306.067232 
z
" style="fill:#1f77b4;"/>
   </g>
   <g id="patch_9">
    <path clip-path="url(#p5961536d9f)" d="M 167.032116 307.584 
L 169.494405 307.584 
L 169.494405 303.697283 
L 167.032116 303.697283 
z
" style="fill:#1f77b4;"/>
   </g>
   <g id="patch_10">
    <path clip-path="url(#p5961536d9f)" d="M 169.494405 307.584 
L 171.956694 307.584 
L 171.956694 299.052182 
L 169.494405 299.052182 
z
" style="fill:#1f77b4;"/>
   </g>
   <g id="patch_11">
    <path clip-path="url(#p5961536d9f)" d="M 171.956694 307.584 
L 174.418982 307.584 
L 174.418982 291.586842 
L 171.956694 291.586842 
z
" style="fill:#1f77b4;"/>
   </g>
   <g id="patch_12">
    <path clip-path="url(#p5961536d9f)" d="M 174.418982 307.584 
L 176.881271 307.584 
L 176.881271 280.376981 
L 174.418982 280.376981 
z
" style="fill:#1f77b4;"/>
   </g>
   <g id="patch_13">
    <path clip-path="url(#p5961536d9f)" d="M 176.881271 307.584 
L 179.34356 307.584 
L 179.34356 268.171742 
L 176.881271 268.171742 
z
" style="fill:#1f77b4;"/>
   </g>
   <g id="patch_14">
    <path clip-path="url(#p5961536d9f)" d="M 179.34356 307.584 
L 181.805849 307.584 
L 181.805849 289.098395 
L 179.34356 289.098395 
z
" style="fill:#1f77b4;"/>
   </g>
   <g id="patch_15">
    <path clip-path="url(#p5961536d9f)" d="M 181.805849 307.584 
L 184.268138 307.584 
L 184.268138 287.107637 
L 181.805849 287.107637 
z
" style="fill:#1f77b4;"/>
   </g>
   <g id="patch_16">
    <path clip-path="url(#p5961536d9f)" d="M 184.268138 307.584 
L 186.730427 307.584 
L 186.730427 285.638269 
L 184.268138 285.638269 
z
" style="fill:#1f77b4;"/>
   </g>
   <g id="patch_17">
    <path clip-path="url(#p5961536d9f)" d="M 186.730427 307.584 
L 189.192716 307.584 
L 189.192716 283.908206 
L 186.730427 283.908206 
z
" style="fill:#1f77b4;"/>
   </g>
   <g id="patch_18">
    <path clip-path="url(#p5961536d9f)" d="M 189.192716 307.584 
L 191.655005 307.584 
L 191.655005 282.225542 
L 189.192716 282.225542 
z
" style="fill:#1f77b4;"/>
   </g>
   <g id="patch_19">
    <path clip-path="url(#p5961536d9f)" d="M 191.655005 307.584 
L 194.117294 307.584 
L 194.117294 279.120908 
L 191.655005 279.120908 
z
" style="fill:#1f77b4;"/>
   </g>
   <g id="patch_20">
    <path clip-path="url(#p5961536d9f)" d="M 194.117294 307.584 
L 196.579583 307.584 
L 196.579583 277.556741 
L 194.117294 277.556741 
z
" style="fill:#1f77b4;"/>
   </g>
   <g id="patch_21">
    <path clip-path="url(#p5961536d9f)" d="M 196.579583 307.584 
L 199.041871 307.584 
L 199.041871 275.850378 
L 196.579583 275.850378 
z
" style="fill:#1f77b4;"/>
   </g>
   <g id="patch_22">
    <path clip-path="url(#p5961536d9f)" d="M 199.041871 307.584 
L 201.50416 307.584 
L 201.50416 271.892562 
L 199.041871 271.892562 
z
" style="fill:#1f77b4;"/>
   </g>
   <g id="patch_23">
    <path clip-path="url(#p5961536d9f)" d="M 201.50416 307.584 
L 203.966449 307.584 
L 203.966449 271.655567 
L 201.50416 271.655567 
z
" style="fill:#1f77b4;"/>
   </g>
   <g id="patch_24">
    <path clip-path="url(#p5961536d9f)" d="M 203.966449 307.584 
L 206.428738 307.584 
L 206.428738 269.285618 
L 203.966449 269.285618 
z
" style="fill:#1f77b4;"/>
   </g>
   <g id="patch_25">
    <path clip-path="url(#p5961536d9f)" d="M 206.428738 307.584 
L 208.891027 307.584 
L 208.891027 266.346881 
L 206.428738 266.346881 
z
" style="fill:#1f77b4;"/>
   </g>
   <g id="patch_26">
    <path clip-path="url(#p5961536d9f)" d="M 208.891027 307.584 
L 211.353316 307.584 
L 211.353316 263.360744 
L 208.891027 263.360744 
z
" style="fill:#1f77b4;"/>
   </g>
   <g id="patch_27">
    <path clip-path="url(#p5961536d9f)" d="M 211.353316 307.584 
L 213.815605 307.584 
L 213.815605 263.242247 
L 211.353316 263.242247 
z
" style="fill:#1f77b4;"/>
   </g>
   <g id="patch_28">
    <path clip-path="url(#p5961536d9f)" d="M 213.815605 307.584 
L 216.277894 307.584 
L 216.277894 260.30351 
L 213.815605 260.30351 
z
" style="fill:#1f77b4;"/>
   </g>
   <g id="patch_29">
    <path clip-path="url(#p5961536d9f)" d="M 216.277894 307.584 
L 218.740183 307.584 
L 218.740183 256.653788 
L 216.277894 256.653788 
z
" style="fill:#1f77b4;"/>
   </g>
   <g id="patch_30">
    <path clip-path="url(#p5961536d9f)" d="M 218.740183 307.584 
L 221.202472 307.584 
L 221.202472 256.511591 
L 218.740183 256.511591 
z
" style="fill:#1f77b4;"/>
   </g>
   <g id="patch_31">
    <path clip-path="url(#p5961536d9f)" d="M 221.202472 307.584 
L 223.664761 307.584 
L 223.664761 255.61101 
L 221.202472 255.61101 
z
" style="fill:#1f77b4;"/>
   </g>
   <g id="patch_32">
    <path clip-path="url(#p5961536d9f)" d="M 223.664761 307.584 
L 226.127049 307.584 
L 226.127049 255.089621 
L 223.664761 255.089621 
z
" style="fill:#1f77b4;"/>
   </g>
   <g id="patch_33">
    <path clip-path="url(#p5961536d9f)" d="M 226.127049 307.584 
L 228.589338 307.584 
L 228.589338 255.255517 
L 226.127049 255.255517 
z
" style="fill:#1f77b4;"/>
   </g>
   <g id="patch_34">
    <path clip-path="url(#p5961536d9f)" d="M 228.589338 307.584 
L 231.051627 307.584 
L 231.051627 253.928346 
L 228.589338 253.928346 
z
" style="fill:#1f77b4;"/>
   </g>
   <g id="patch_35">
    <path clip-path="url(#p5961536d9f)" d="M 231.051627 307.584 
L 233.513916 307.584 
L 233.513916 252.411578 
L 231.051627 252.411578 
z
" style="fill:#1f77b4;"/>
   </g>
   <g id="patch_36">
    <path clip-path="url(#p5961536d9f)" d="M 233.513916 307.584 
L 235.976205 307.584 
L 235.976205 246.297109 
L 233.513916 246.297109 
z
" style="fill:#1f77b4;"/>
   </g>
   <g id="patch_37">
    <path clip-path="url(#p5961536d9f)" d="M 235.976205 307.584 
L 238.438494 307.584 
L 238.438494 234.352564 
L 235.976205 234.352564 
z
" style="fill:#1f77b4;"/>
   </g>
   <g id="patch_38">
    <path clip-path="url(#p5961536d9f)" d="M 238.438494 307.584 
L 240.900783 307.584 
L 240.900783 210.439775 
L 238.438494 210.439775 
z
" style="fill:#1f77b4;"/>
   </g>
   <g id="patch_39">
    <path clip-path="url(#p5961536d9f)" d="M 240.900783 307.584 
L 243.363072 307.584 
L 243.363072 183.090559 
L 240.900783 183.090559 
z
" style="fill:#1f77b4;"/>
   </g>
   <g id="patch_40">
    <path clip-path="url(#p5961536d9f)" d="M 243.363072 307.584 
L 245.825361 307.584 
L 245.825361 158.798577 
L 243.363072 158.798577 
z
" style="fill:#1f77b4;"/>
   </g>
   <g id="patch_41">
    <path clip-path="url(#p5961536d9f)" d="M 245.825361 307.584 
L 248.28765 307.584 
L 248.28765 147.944209 
L 245.825361 147.944209 
z
" style="fill:#1f77b4;"/>
   </g>
   <g id="patch_42">
    <path clip-path="url(#p5961536d9f)" d="M 248.28765 307.584 
L 250.749938 307.584 
L 250.749938 167.851784 
L 248.28765 167.851784 
z
" style="fill:#1f77b4;"/>
   </g>
   <g id="patch_43">
    <path clip-path="url(#p5961536d9f)" d="M 250.749938 307.584 
L 253.212227 307.584 
L 253.212227 178.872049 
L 250.749938 178.872049 
z
" style="fill:#1f77b4;"/>
   </g>
   <g id="patch_44">
    <path clip-path="url(#p5961536d9f)" d="M 253.212227 307.584 
L 255.674516 307.584 
L 255.674516 168.752365 
L 253.212227 168.752365 
z
" style="fill:#1f77b4;"/>
   </g>
   <g id="patch_45">
    <path clip-path="url(#p5961536d9f)" d="M 255.674516 307.584 
L 258.136805 307.584 
L 258.136805 151.66503 
L 255.674516 151.66503 
z
" style="fill:#1f77b4;"/>
   </g>
   <g id="patch_46">
    <path clip-path="url(#p5961536d9f)" d="M 258.136805 307.584 
L 260.599094 307.584 
L 260.599094 133.84301 
L 258.136805 133.84301 
z
" style="fill:#1f77b4;"/>
   </g>
   <g id="patch_47">
    <path clip-path="url(#p5961536d9f)" d="M 260.599094 307.584 
L 263.061383 307.584 
L 263.061383 89.193164 
L 260.599094 89.193164 
z
" style="fill:#1f77b4;"/>
   </g>
   <g id="patch_48">
    <path clip-path="url(#p5961536d9f)" d="M 263.061383 307.584 
L 265.523672 307.584 
L 265.523672 58.786713 
L 263.061383 58.786713 
z
" style="fill:#1f77b4;"/>
   </g>
   <g id="patch_49">
    <path clip-path="url(#p5961536d9f)" d="M 265.523672 307.584 
L 267.985961 307.584 
L 267.985961 86.159629 
L 265.523672 86.159629 
z
" style="fill:#1f77b4;"/>
   </g>
   <g id="patch_50">
    <path clip-path="url(#p5961536d9f)" d="M 267.985961 307.584 
L 270.44825 307.584 
L 270.44825 124.386912 
L 267.985961 124.386912 
z
" style="fill:#1f77b4;"/>
   </g>
   <g id="patch_51">
    <path clip-path="url(#p5961536d9f)" d="M 270.44825 307.584 
L 272.910539 307.584 
L 272.910539 154.508969 
L 270.44825 154.508969 
z
" style="fill:#1f77b4;"/>
   </g>
   <g id="patch_52">
    <path clip-path="url(#p5961536d9f)" d="M 272.910539 307.584 
L 275.372827 307.584 
L 275.372827 167.1171 
L 272.910539 167.1171 
z
" style="fill:#1f77b4;"/>
   </g>
   <g id="patch_53">
    <path clip-path="url(#p5961536d9f)" d="M 275.372827 307.584 
L 277.835116 307.584 
L 277.835116 186.052995 
L 275.372827 186.052995 
z
" style="fill:#1f77b4;"/>
   </g>
   <g id="patch_54">
    <path clip-path="url(#p5961536d9f)" d="M 277.835116 307.584 
L 280.297405 307.584 
L 280.297405 190.816594 
L 277.835116 190.816594 
z
" style="fill:#1f77b4;"/>
   </g>
   <g id="patch_55">
    <path clip-path="url(#p5961536d9f)" d="M 280.297405 307.584 
L 282.759694 307.584 
L 282.759694 183.777844 
L 280.297405 183.777844 
z
" style="fill:#1f77b4;"/>
   </g>
   <g id="patch_56">
    <path clip-path="url(#p5961536d9f)" d="M 282.759694 307.584 
L 285.221983 307.584 
L 285.221983 190.816594 
L 282.759694 190.816594 
z
" style="fill:#1f77b4;"/>
   </g>
   <g id="patch_57">
    <path clip-path="url(#p5961536d9f)" d="M 285.221983 307.584 
L 287.684272 307.584 
L 287.684272 215.369269 
L 285.221983 215.369269 
z
" style="fill:#1f77b4;"/>
   </g>
   <g id="patch_58">
    <path clip-path="url(#p5961536d9f)" d="M 287.684272 307.584 
L 290.146561 307.584 
L 290.146561 243.832361 
L 287.684272 243.832361 
z
" style="fill:#1f77b4;"/>
   </g>
   <g id="patch_59">
    <path clip-path="url(#p5961536d9f)" d="M 290.146561 307.584 
L 292.60885 307.584 
L 292.60885 253.146263 
L 290.146561 253.146263 
z
" style="fill:#1f77b4;"/>
   </g>
   <g id="patch_60">
    <path clip-path="url(#p5961536d9f)" d="M 292.60885 307.584 
L 295.071139 307.584 
L 295.071139 256.914482 
L 292.60885 256.914482 
z
" style="fill:#1f77b4;"/>
   </g>
   <g id="patch_61">
    <path clip-path="url(#p5961536d9f)" d="M 295.071139 307.584 
L 297.533428 307.584 
L 297.533428 257.93356 
L 295.071139 257.93356 
z
" style="fill:#1f77b4;"/>
   </g>
   <g id="patch_62">
    <path clip-path="url(#p5961536d9f)" d="M 297.533428 307.584 
L 299.995717 307.584 
L 299.995717 259.450328 
L 297.533428 259.450328 
z
" style="fill:#1f77b4;"/>
   </g>
   <g id="patch_63">
    <path clip-path="url(#p5961536d9f)" d="M 299.995717 307.584 
L 302.458005 307.584 
L 302.458005 261.725479 
L 299.995717 261.725479 
z
" style="fill:#1f77b4;"/>
   </g>
   <g id="patch_64">
    <path clip-path="url(#p5961536d9f)" d="M 302.458005 307.584 
L 304.920294 307.584 
L 304.920294 266.133585 
L 302.458005 266.133585 
z
" style="fill:#1f77b4;"/>
   </g>
   <g id="patch_65">
    <path clip-path="url(#p5961536d9f)" d="M 304.920294 307.584 
L 307.382583 307.584 
L 307.382583 267.223762 
L 304.920294 267.223762 
z
" style="fill:#1f77b4;"/>
   </g>
   <g id="patch_66">
    <path clip-path="url(#p5961536d9f)" d="M 307.382583 307.584 
L 309.844872 307.584 
L 309.844872 270.352095 
L 307.382583 270.352095 
z
" style="fill:#1f77b4;"/>
   </g>
   <g id="patch_67">
    <path clip-path="url(#p5961536d9f)" d="M 309.844872 307.584 
L 312.307161 307.584 
L 312.307161 272.319153 
L 309.844872 272.319153 
z
" style="fill:#1f77b4;"/>
   </g>
   <g id="patch_68">
    <path clip-path="url(#p5961536d9f)" d="M 312.307161 307.584 
L 314.76945 307.584 
L 314.76945 276.940554 
L 312.307161 276.940554 
z
" style="fill:#1f77b4;"/>
   </g>
   <g id="patch_69">
    <path clip-path="url(#p5961536d9f)" d="M 314.76945 307.584 
L 317.231739 307.584 
L 317.231739 279.547499 
L 314.76945 279.547499 
z
" style="fill:#1f77b4;"/>
   </g>
   <g id="patch_70">
    <path clip-path="url(#p5961536d9f)" d="M 317.231739 307.584 
L 319.694028 307.584 
L 319.694028 281.206463 
L 317.231739 281.206463 
z
" style="fill:#1f77b4;"/>
   </g>
   <g id="patch_71">
    <path clip-path="url(#p5961536d9f)" d="M 319.694028 307.584 
L 322.156317 307.584 
L 322.156317 285.685668 
L 319.694028 285.685668 
z
" style="fill:#1f77b4;"/>
   </g>
   <g id="patch_72">
    <path clip-path="url(#p5961536d9f)" d="M 322.156317 307.584 
L 324.618606 307.584 
L 324.618606 287.43943 
L 322.156317 287.43943 
z
" style="fill:#1f77b4;"/>
   </g>
   <g id="patch_73">
    <path clip-path="url(#p5961536d9f)" d="M 324.618606 307.584 
L 327.080894 307.584 
L 327.080894 291.112852 
L 324.618606 291.112852 
z
" style="fill:#1f77b4;"/>
   </g>
   <g id="patch_74">
    <path clip-path="url(#p5961536d9f)" d="M 327.080894 307.584 
L 329.543183 307.584 
L 329.543183 293.07991 
L 327.080894 293.07991 
z
" style="fill:#1f77b4;"/>
   </g>
   <g id="patch_75">
    <path clip-path="url(#p5961536d9f)" d="M 329.543183 307.584 
L 332.005472 307.584 
L 332.005472 294.00419 
L 329.543183 294.00419 
z
" style="fill:#1f77b4;"/>
   </g>
   <g id="patch_76">
    <path clip-path="url(#p5961536d9f)" d="M 332.005472 307.584 
L 334.467761 307.584 
L 334.467761 296.587435 
L 332.005472 296.587435 
z
" style="fill:#1f77b4;"/>
   </g>
   <g id="patch_77">
    <path clip-path="url(#p5961536d9f)" d="M 334.467761 307.584 
L 336.93005 307.584 
L 336.93005 298.909985 
L 334.467761 298.909985 
z
" style="fill:#1f77b4;"/>
   </g>
   <g id="patch_78">
    <path clip-path="url(#p5961536d9f)" d="M 336.93005 307.584 
L 339.392339 307.584 
L 339.392339 300.023861 
L 336.93005 300.023861 
z
" style="fill:#1f77b4;"/>
   </g>
   <g id="patch_79">
    <path clip-path="url(#p5961536d9f)" d="M 339.392339 307.584 
L 341.854628 307.584 
L 341.854628 300.900743 
L 339.392339 300.900743 
z
" style="fill:#1f77b4;"/>
   </g>
   <g id="patch_80">
    <path clip-path="url(#p5961536d9f)" d="M 341.854628 307.584 
L 344.316917 307.584 
L 344.316917 302.180515 
L 341.854628 302.180515 
z
" style="fill:#1f77b4;"/>
   </g>
   <g id="patch_81">
    <path clip-path="url(#p5961536d9f)" d="M 344.316917 307.584 
L 346.779206 307.584 
L 346.779206 303.294392 
L 344.316917 303.294392 
z
" style="fill:#1f77b4;"/>
   </g>
   <g id="patch_82">
    <path clip-path="url(#p5961536d9f)" d="M 346.779206 307.584 
L 349.241495 307.584 
L 349.241495 304.31347 
L 346.779206 304.31347 
z
" style="fill:#1f77b4;"/>
   </g>
   <g id="patch_83">
    <path clip-path="url(#p5961536d9f)" d="M 349.241495 307.584 
L 351.703784 307.584 
L 351.703784 304.882258 
L 349.241495 304.882258 
z
" style="fill:#1f77b4;"/>
   </g>
   <g id="patch_84">
    <path clip-path="url(#p5961536d9f)" d="M 351.703784 307.584 
L 354.166072 307.584 
L 354.166072 305.427346 
L 351.703784 305.427346 
z
" style="fill:#1f77b4;"/>
   </g>
   <g id="patch_85">
    <path clip-path="url(#p5961536d9f)" d="M 354.166072 307.584 
L 356.628361 307.584 
L 356.628361 305.806538 
L 354.166072 305.806538 
z
" style="fill:#1f77b4;"/>
   </g>
   <g id="patch_86">
    <path clip-path="url(#p5961536d9f)" d="M 356.628361 307.584 
L 359.09065 307.584 
L 359.09065 305.972434 
L 356.628361 305.972434 
z
" style="fill:#1f77b4;"/>
   </g>
   <g id="patch_87">
    <path clip-path="url(#p5961536d9f)" d="M 359.09065 307.584 
L 361.552939 307.584 
L 361.552939 306.612321 
L 359.09065 306.612321 
z
" style="fill:#1f77b4;"/>
   </g>
   <g id="patch_88">
    <path clip-path="url(#p5961536d9f)" d="M 361.552939 307.584 
L 364.015228 307.584 
L 364.015228 306.873015 
L 361.552939 306.873015 
z
" style="fill:#1f77b4;"/>
   </g>
   <g id="patch_89">
    <path clip-path="url(#p5961536d9f)" d="M 364.015228 307.584 
L 366.477517 307.584 
L 366.477517 306.873015 
L 364.015228 306.873015 
z
" style="fill:#1f77b4;"/>
   </g>
   <g id="patch_90">
    <path clip-path="url(#p5961536d9f)" d="M 366.477517 307.584 
L 368.939806 307.584 
L 368.939806 307.157409 
L 366.477517 307.157409 
z
" style="fill:#1f77b4;"/>
   </g>
   <g id="patch_91">
    <path clip-path="url(#p5961536d9f)" d="M 368.939806 307.584 
L 371.402095 307.584 
L 371.402095 307.394404 
L 368.939806 307.394404 
z
" style="fill:#1f77b4;"/>
   </g>
   <g id="patch_92">
    <path clip-path="url(#p5961536d9f)" d="M 371.402095 307.584 
L 373.864384 307.584 
L 373.864384 307.418104 
L 371.402095 307.418104 
z
" style="fill:#1f77b4;"/>
   </g>
   <g id="patch_93">
    <path clip-path="url(#p5961536d9f)" d="M 373.864384 307.584 
L 376.326673 307.584 
L 376.326673 307.394404 
L 373.864384 307.394404 
z
" style="fill:#1f77b4;"/>
   </g>
   <g id="patch_94">
    <path clip-path="url(#p5961536d9f)" d="M 376.326673 307.584 
L 378.788961 307.584 
L 378.788961 307.512902 
L 376.326673 307.512902 
z
" style="fill:#1f77b4;"/>
   </g>
   <g id="patch_95">
    <path clip-path="url(#p5961536d9f)" d="M 378.788961 307.584 
L 381.25125 307.584 
L 381.25125 307.489202 
L 378.788961 307.489202 
z
" style="fill:#1f77b4;"/>
   </g>
   <g id="patch_96">
    <path clip-path="url(#p5961536d9f)" d="M 381.25125 307.584 
L 383.713539 307.584 
L 383.713539 307.489202 
L 381.25125 307.489202 
z
" style="fill:#1f77b4;"/>
   </g>
   <g id="patch_97">
    <path clip-path="url(#p5961536d9f)" d="M 383.713539 307.584 
L 386.175828 307.584 
L 386.175828 307.512902 
L 383.713539 307.512902 
z
" style="fill:#1f77b4;"/>
   </g>
   <g id="patch_98">
    <path clip-path="url(#p5961536d9f)" d="M 386.175828 307.584 
L 388.638117 307.584 
L 388.638117 307.560301 
L 386.175828 307.560301 
z
" style="fill:#1f77b4;"/>
   </g>
   <g id="patch_99">
    <path clip-path="url(#p5961536d9f)" d="M 388.638117 307.584 
L 391.100406 307.584 
L 391.100406 307.560301 
L 388.638117 307.560301 
z
" style="fill:#1f77b4;"/>
   </g>
   <g id="patch_100">
    <path clip-path="url(#p5961536d9f)" d="M 391.100406 307.584 
L 393.562695 307.584 
L 393.562695 307.560301 
L 391.100406 307.560301 
z
" style="fill:#1f77b4;"/>
   </g>
   <g id="patch_101">
    <path clip-path="url(#p5961536d9f)" d="M 393.562695 307.584 
L 396.024984 307.584 
L 396.024984 307.584 
L 393.562695 307.584 
z
" style="fill:#1f77b4;"/>
   </g>
   <g id="patch_102">
    <path clip-path="url(#p5961536d9f)" d="M 396.024984 307.584 
L 398.487273 307.584 
L 398.487273 307.560301 
L 396.024984 307.560301 
z
" style="fill:#1f77b4;"/>
   </g>
   <g id="matplotlib.axis_1">
    <g id="xtick_1">
     <g id="line2d_1">
      <defs>
       <path d="M 0 0 
L 0 3.5 
" id="maa3b41e90b" style="stroke:#000000;stroke-width:0.8;"/>
      </defs>
      <g>
       <use style="stroke:#000000;stroke-width:0.8;" x="94.942571" xlink:href="#maa3b41e90b" y="307.584"/>
      </g>
     </g>
     <g id="text_1">
      <!-- −2 -->
      <defs>
       <path d="M 10.59375 35.5 
L 73.1875 35.5 
L 73.1875 27.203125 
L 10.59375 27.203125 
z
" id="DejaVuSans-8722"/>
       <path d="M 19.1875 8.296875 
L 53.609375 8.296875 
L 53.609375 0 
L 7.328125 0 
L 7.328125 8.296875 
Q 12.9375 14.109375 22.625 23.890625 
Q 32.328125 33.6875 34.8125 36.53125 
Q 39.546875 41.84375 41.421875 45.53125 
Q 43.3125 49.21875 43.3125 52.78125 
Q 43.3125 58.59375 39.234375 62.25 
Q 35.15625 65.921875 28.609375 65.921875 
Q 23.96875 65.921875 18.8125 64.3125 
Q 13.671875 62.703125 7.8125 59.421875 
L 7.8125 69.390625 
Q 13.765625 71.78125 18.9375 73 
Q 24.125 74.21875 28.421875 74.21875 
Q 39.75 74.21875 46.484375 68.546875 
Q 53.21875 62.890625 53.21875 53.421875 
Q 53.21875 48.921875 51.53125 44.890625 
Q 49.859375 40.875 45.40625 35.40625 
Q 44.1875 33.984375 37.640625 27.21875 
Q 31.109375 20.453125 19.1875 8.296875 
z
" id="DejaVuSans-50"/>
      </defs>
      <g transform="translate(82.411712 327.501344)scale(0.17 -0.17)">
       <use xlink:href="#DejaVuSans-8722"/>
       <use x="83.789062" xlink:href="#DejaVuSans-50"/>
      </g>
     </g>
    </g>
    <g id="xtick_2">
     <g id="line2d_2">
      <g>
       <use style="stroke:#000000;stroke-width:0.8;" x="179.381946" xlink:href="#maa3b41e90b" y="307.584"/>
      </g>
     </g>
     <g id="text_2">
      <!-- 0 -->
      <defs>
       <path d="M 31.78125 66.40625 
Q 24.171875 66.40625 20.328125 58.90625 
Q 16.5 51.421875 16.5 36.375 
Q 16.5 21.390625 20.328125 13.890625 
Q 24.171875 6.390625 31.78125 6.390625 
Q 39.453125 6.390625 43.28125 13.890625 
Q 47.125 21.390625 47.125 36.375 
Q 47.125 51.421875 43.28125 58.90625 
Q 39.453125 66.40625 31.78125 66.40625 
z
M 31.78125 74.21875 
Q 44.046875 74.21875 50.515625 64.515625 
Q 56.984375 54.828125 56.984375 36.375 
Q 56.984375 17.96875 50.515625 8.265625 
Q 44.046875 -1.421875 31.78125 -1.421875 
Q 19.53125 -1.421875 13.0625 8.265625 
Q 6.59375 17.96875 6.59375 36.375 
Q 6.59375 54.828125 13.0625 64.515625 
Q 19.53125 74.21875 31.78125 74.21875 
z
" id="DejaVuSans-48"/>
      </defs>
      <g transform="translate(173.973821 327.501344)scale(0.17 -0.17)">
       <use xlink:href="#DejaVuSans-48"/>
      </g>
     </g>
    </g>
    <g id="xtick_3">
     <g id="line2d_3">
      <g>
       <use style="stroke:#000000;stroke-width:0.8;" x="263.821322" xlink:href="#maa3b41e90b" y="307.584"/>
      </g>
     </g>
     <g id="text_3">
      <!-- 2 -->
      <g transform="translate(258.413197 327.501344)scale(0.17 -0.17)">
       <use xlink:href="#DejaVuSans-50"/>
      </g>
     </g>
    </g>
    <g id="xtick_4">
     <g id="line2d_4">
      <g>
       <use style="stroke:#000000;stroke-width:0.8;" x="348.260697" xlink:href="#maa3b41e90b" y="307.584"/>
      </g>
     </g>
     <g id="text_4">
      <!-- 4 -->
      <defs>
       <path d="M 37.796875 64.3125 
L 12.890625 25.390625 
L 37.796875 25.390625 
z
M 35.203125 72.90625 
L 47.609375 72.90625 
L 47.609375 25.390625 
L 58.015625 25.390625 
L 58.015625 17.1875 
L 47.609375 17.1875 
L 47.609375 0 
L 37.796875 0 
L 37.796875 17.1875 
L 4.890625 17.1875 
L 4.890625 26.703125 
z
" id="DejaVuSans-52"/>
      </defs>
      <g transform="translate(342.852572 327.501344)scale(0.17 -0.17)">
       <use xlink:href="#DejaVuSans-52"/>
      </g>
     </g>
    </g>
    <g id="text_5">
     <!-- Compressed value -->
     <defs>
      <path d="M 64.40625 67.28125 
L 64.40625 56.890625 
Q 59.421875 61.53125 53.78125 63.8125 
Q 48.140625 66.109375 41.796875 66.109375 
Q 29.296875 66.109375 22.65625 58.46875 
Q 16.015625 50.828125 16.015625 36.375 
Q 16.015625 21.96875 22.65625 14.328125 
Q 29.296875 6.6875 41.796875 6.6875 
Q 48.140625 6.6875 53.78125 8.984375 
Q 59.421875 11.28125 64.40625 15.921875 
L 64.40625 5.609375 
Q 59.234375 2.09375 53.4375 0.328125 
Q 47.65625 -1.421875 41.21875 -1.421875 
Q 24.65625 -1.421875 15.125 8.703125 
Q 5.609375 18.84375 5.609375 36.375 
Q 5.609375 53.953125 15.125 64.078125 
Q 24.65625 74.21875 41.21875 74.21875 
Q 47.75 74.21875 53.53125 72.484375 
Q 59.328125 70.75 64.40625 67.28125 
z
" id="DejaVuSans-67"/>
      <path d="M 30.609375 48.390625 
Q 23.390625 48.390625 19.1875 42.75 
Q 14.984375 37.109375 14.984375 27.296875 
Q 14.984375 17.484375 19.15625 11.84375 
Q 23.34375 6.203125 30.609375 6.203125 
Q 37.796875 6.203125 41.984375 11.859375 
Q 46.1875 17.53125 46.1875 27.296875 
Q 46.1875 37.015625 41.984375 42.703125 
Q 37.796875 48.390625 30.609375 48.390625 
z
M 30.609375 56 
Q 42.328125 56 49.015625 48.375 
Q 55.71875 40.765625 55.71875 27.296875 
Q 55.71875 13.875 49.015625 6.21875 
Q 42.328125 -1.421875 30.609375 -1.421875 
Q 18.84375 -1.421875 12.171875 6.21875 
Q 5.515625 13.875 5.515625 27.296875 
Q 5.515625 40.765625 12.171875 48.375 
Q 18.84375 56 30.609375 56 
z
" id="DejaVuSans-111"/>
      <path d="M 52 44.1875 
Q 55.375 50.25 60.0625 53.125 
Q 64.75 56 71.09375 56 
Q 79.640625 56 84.28125 50.015625 
Q 88.921875 44.046875 88.921875 33.015625 
L 88.921875 0 
L 79.890625 0 
L 79.890625 32.71875 
Q 79.890625 40.578125 77.09375 44.375 
Q 74.3125 48.1875 68.609375 48.1875 
Q 61.625 48.1875 57.5625 43.546875 
Q 53.515625 38.921875 53.515625 30.90625 
L 53.515625 0 
L 44.484375 0 
L 44.484375 32.71875 
Q 44.484375 40.625 41.703125 44.40625 
Q 38.921875 48.1875 33.109375 48.1875 
Q 26.21875 48.1875 22.15625 43.53125 
Q 18.109375 38.875 18.109375 30.90625 
L 18.109375 0 
L 9.078125 0 
L 9.078125 54.6875 
L 18.109375 54.6875 
L 18.109375 46.1875 
Q 21.1875 51.21875 25.484375 53.609375 
Q 29.78125 56 35.6875 56 
Q 41.65625 56 45.828125 52.96875 
Q 50 49.953125 52 44.1875 
z
" id="DejaVuSans-109"/>
      <path d="M 18.109375 8.203125 
L 18.109375 -20.796875 
L 9.078125 -20.796875 
L 9.078125 54.6875 
L 18.109375 54.6875 
L 18.109375 46.390625 
Q 20.953125 51.265625 25.265625 53.625 
Q 29.59375 56 35.59375 56 
Q 45.5625 56 51.78125 48.09375 
Q 58.015625 40.1875 58.015625 27.296875 
Q 58.015625 14.40625 51.78125 6.484375 
Q 45.5625 -1.421875 35.59375 -1.421875 
Q 29.59375 -1.421875 25.265625 0.953125 
Q 20.953125 3.328125 18.109375 8.203125 
z
M 48.6875 27.296875 
Q 48.6875 37.203125 44.609375 42.84375 
Q 40.53125 48.484375 33.40625 48.484375 
Q 26.265625 48.484375 22.1875 42.84375 
Q 18.109375 37.203125 18.109375 27.296875 
Q 18.109375 17.390625 22.1875 11.75 
Q 26.265625 6.109375 33.40625 6.109375 
Q 40.53125 6.109375 44.609375 11.75 
Q 48.6875 17.390625 48.6875 27.296875 
z
" id="DejaVuSans-112"/>
      <path d="M 41.109375 46.296875 
Q 39.59375 47.171875 37.8125 47.578125 
Q 36.03125 48 33.890625 48 
Q 26.265625 48 22.1875 43.046875 
Q 18.109375 38.09375 18.109375 28.8125 
L 18.109375 0 
L 9.078125 0 
L 9.078125 54.6875 
L 18.109375 54.6875 
L 18.109375 46.1875 
Q 20.953125 51.171875 25.484375 53.578125 
Q 30.03125 56 36.53125 56 
Q 37.453125 56 38.578125 55.875 
Q 39.703125 55.765625 41.0625 55.515625 
z
" id="DejaVuSans-114"/>
      <path d="M 56.203125 29.59375 
L 56.203125 25.203125 
L 14.890625 25.203125 
Q 15.484375 15.921875 20.484375 11.0625 
Q 25.484375 6.203125 34.421875 6.203125 
Q 39.59375 6.203125 44.453125 7.46875 
Q 49.3125 8.734375 54.109375 11.28125 
L 54.109375 2.78125 
Q 49.265625 0.734375 44.1875 -0.34375 
Q 39.109375 -1.421875 33.890625 -1.421875 
Q 20.796875 -1.421875 13.15625 6.1875 
Q 5.515625 13.8125 5.515625 26.8125 
Q 5.515625 40.234375 12.765625 48.109375 
Q 20.015625 56 32.328125 56 
Q 43.359375 56 49.78125 48.890625 
Q 56.203125 41.796875 56.203125 29.59375 
z
M 47.21875 32.234375 
Q 47.125 39.59375 43.09375 43.984375 
Q 39.0625 48.390625 32.421875 48.390625 
Q 24.90625 48.390625 20.390625 44.140625 
Q 15.875 39.890625 15.1875 32.171875 
z
" id="DejaVuSans-101"/>
      <path d="M 44.28125 53.078125 
L 44.28125 44.578125 
Q 40.484375 46.53125 36.375 47.5 
Q 32.28125 48.484375 27.875 48.484375 
Q 21.1875 48.484375 17.84375 46.4375 
Q 14.5 44.390625 14.5 40.28125 
Q 14.5 37.15625 16.890625 35.375 
Q 19.28125 33.59375 26.515625 31.984375 
L 29.59375 31.296875 
Q 39.15625 29.25 43.1875 25.515625 
Q 47.21875 21.78125 47.21875 15.09375 
Q 47.21875 7.46875 41.1875 3.015625 
Q 35.15625 -1.421875 24.609375 -1.421875 
Q 20.21875 -1.421875 15.453125 -0.5625 
Q 10.6875 0.296875 5.421875 2 
L 5.421875 11.28125 
Q 10.40625 8.6875 15.234375 7.390625 
Q 20.0625 6.109375 24.8125 6.109375 
Q 31.15625 6.109375 34.5625 8.28125 
Q 37.984375 10.453125 37.984375 14.40625 
Q 37.984375 18.0625 35.515625 20.015625 
Q 33.0625 21.96875 24.703125 23.78125 
L 21.578125 24.515625 
Q 13.234375 26.265625 9.515625 29.90625 
Q 5.8125 33.546875 5.8125 39.890625 
Q 5.8125 47.609375 11.28125 51.796875 
Q 16.75 56 26.8125 56 
Q 31.78125 56 36.171875 55.265625 
Q 40.578125 54.546875 44.28125 53.078125 
z
" id="DejaVuSans-115"/>
      <path d="M 45.40625 46.390625 
L 45.40625 75.984375 
L 54.390625 75.984375 
L 54.390625 0 
L 45.40625 0 
L 45.40625 8.203125 
Q 42.578125 3.328125 38.25 0.953125 
Q 33.9375 -1.421875 27.875 -1.421875 
Q 17.96875 -1.421875 11.734375 6.484375 
Q 5.515625 14.40625 5.515625 27.296875 
Q 5.515625 40.1875 11.734375 48.09375 
Q 17.96875 56 27.875 56 
Q 33.9375 56 38.25 53.625 
Q 42.578125 51.265625 45.40625 46.390625 
z
M 14.796875 27.296875 
Q 14.796875 17.390625 18.875 11.75 
Q 22.953125 6.109375 30.078125 6.109375 
Q 37.203125 6.109375 41.296875 11.75 
Q 45.40625 17.390625 45.40625 27.296875 
Q 45.40625 37.203125 41.296875 42.84375 
Q 37.203125 48.484375 30.078125 48.484375 
Q 22.953125 48.484375 18.875 42.84375 
Q 14.796875 37.203125 14.796875 27.296875 
z
" id="DejaVuSans-100"/>
      <path id="DejaVuSans-32"/>
      <path d="M 2.984375 54.6875 
L 12.5 54.6875 
L 29.59375 8.796875 
L 46.6875 54.6875 
L 56.203125 54.6875 
L 35.6875 0 
L 23.484375 0 
z
" id="DejaVuSans-118"/>
      <path d="M 34.28125 27.484375 
Q 23.390625 27.484375 19.1875 25 
Q 14.984375 22.515625 14.984375 16.5 
Q 14.984375 11.71875 18.140625 8.90625 
Q 21.296875 6.109375 26.703125 6.109375 
Q 34.1875 6.109375 38.703125 11.40625 
Q 43.21875 16.703125 43.21875 25.484375 
L 43.21875 27.484375 
z
M 52.203125 31.203125 
L 52.203125 0 
L 43.21875 0 
L 43.21875 8.296875 
Q 40.140625 3.328125 35.546875 0.953125 
Q 30.953125 -1.421875 24.3125 -1.421875 
Q 15.921875 -1.421875 10.953125 3.296875 
Q 6 8.015625 6 15.921875 
Q 6 25.140625 12.171875 29.828125 
Q 18.359375 34.515625 30.609375 34.515625 
L 43.21875 34.515625 
L 43.21875 35.40625 
Q 43.21875 41.609375 39.140625 45 
Q 35.0625 48.390625 27.6875 48.390625 
Q 23 48.390625 18.546875 47.265625 
Q 14.109375 46.140625 10.015625 43.890625 
L 10.015625 52.203125 
Q 14.9375 54.109375 19.578125 55.046875 
Q 24.21875 56 28.609375 56 
Q 40.484375 56 46.34375 49.84375 
Q 52.203125 43.703125 52.203125 31.203125 
z
" id="DejaVuSans-97"/>
      <path d="M 9.421875 75.984375 
L 18.40625 75.984375 
L 18.40625 0 
L 9.421875 0 
z
" id="DejaVuSans-108"/>
      <path d="M 8.5 21.578125 
L 8.5 54.6875 
L 17.484375 54.6875 
L 17.484375 21.921875 
Q 17.484375 14.15625 20.5 10.265625 
Q 23.53125 6.390625 29.59375 6.390625 
Q 36.859375 6.390625 41.078125 11.03125 
Q 45.3125 15.671875 45.3125 23.6875 
L 45.3125 54.6875 
L 54.296875 54.6875 
L 54.296875 0 
L 45.3125 0 
L 45.3125 8.40625 
Q 42.046875 3.421875 37.71875 1 
Q 33.40625 -1.421875 27.6875 -1.421875 
Q 18.265625 -1.421875 13.375 4.4375 
Q 8.5 10.296875 8.5 21.578125 
z
M 31.109375 56 
z
" id="DejaVuSans-117"/>
     </defs>
     <g transform="translate(96.861562 357.832125)scale(0.3 -0.3)">
      <use xlink:href="#DejaVuSans-67"/>
      <use x="69.824219" xlink:href="#DejaVuSans-111"/>
      <use x="131.005859" xlink:href="#DejaVuSans-109"/>
      <use x="228.417969" xlink:href="#DejaVuSans-112"/>
      <use x="291.894531" xlink:href="#DejaVuSans-114"/>
      <use x="332.976562" xlink:href="#DejaVuSans-101"/>
      <use x="394.5" xlink:href="#DejaVuSans-115"/>
      <use x="446.599609" xlink:href="#DejaVuSans-115"/>
      <use x="498.699219" xlink:href="#DejaVuSans-101"/>
      <use x="560.222656" xlink:href="#DejaVuSans-100"/>
      <use x="623.699219" xlink:href="#DejaVuSans-32"/>
      <use x="655.486328" xlink:href="#DejaVuSans-118"/>
      <use x="714.666016" xlink:href="#DejaVuSans-97"/>
      <use x="775.945312" xlink:href="#DejaVuSans-108"/>
      <use x="803.728516" xlink:href="#DejaVuSans-117"/>
      <use x="867.107422" xlink:href="#DejaVuSans-101"/>
     </g>
    </g>
   </g>
   <g id="matplotlib.axis_2">
    <g id="ytick_1">
     <g id="line2d_5">
      <defs>
       <path d="M 0 0 
L -3.5 0 
" id="m939b3d364c" style="stroke:#000000;stroke-width:0.8;"/>
      </defs>
      <g>
       <use style="stroke:#000000;stroke-width:0.8;" x="57.6" xlink:href="#m939b3d364c" y="307.584"/>
      </g>
     </g>
     <g id="text_6">
      <!-- 0.0 -->
      <defs>
       <path d="M 10.6875 12.40625 
L 21 12.40625 
L 21 0 
L 10.6875 0 
z
" id="DejaVuSans-46"/>
      </defs>
      <g transform="translate(23.564687 314.042672)scale(0.17 -0.17)">
       <use xlink:href="#DejaVuSans-48"/>
       <use x="63.623047" xlink:href="#DejaVuSans-46"/>
       <use x="95.410156" xlink:href="#DejaVuSans-48"/>
      </g>
     </g>
    </g>
    <g id="ytick_2">
     <g id="line2d_6">
      <g>
       <use style="stroke:#000000;stroke-width:0.8;" x="57.6" xlink:href="#m939b3d364c" y="251.744126"/>
      </g>
     </g>
     <g id="text_7">
      <!-- 0.2 -->
      <g transform="translate(23.564687 258.202798)scale(0.17 -0.17)">
       <use xlink:href="#DejaVuSans-48"/>
       <use x="63.623047" xlink:href="#DejaVuSans-46"/>
       <use x="95.410156" xlink:href="#DejaVuSans-50"/>
      </g>
     </g>
    </g>
    <g id="ytick_3">
     <g id="line2d_7">
      <g>
       <use style="stroke:#000000;stroke-width:0.8;" x="57.6" xlink:href="#m939b3d364c" y="195.904252"/>
      </g>
     </g>
     <g id="text_8">
      <!-- 0.4 -->
      <g transform="translate(23.564687 202.362924)scale(0.17 -0.17)">
       <use xlink:href="#DejaVuSans-48"/>
       <use x="63.623047" xlink:href="#DejaVuSans-46"/>
       <use x="95.410156" xlink:href="#DejaVuSans-52"/>
      </g>
     </g>
    </g>
    <g id="ytick_4">
     <g id="line2d_8">
      <g>
       <use style="stroke:#000000;stroke-width:0.8;" x="57.6" xlink:href="#m939b3d364c" y="140.064378"/>
      </g>
     </g>
     <g id="text_9">
      <!-- 0.6 -->
      <defs>
       <path d="M 33.015625 40.375 
Q 26.375 40.375 22.484375 35.828125 
Q 18.609375 31.296875 18.609375 23.390625 
Q 18.609375 15.53125 22.484375 10.953125 
Q 26.375 6.390625 33.015625 6.390625 
Q 39.65625 6.390625 43.53125 10.953125 
Q 47.40625 15.53125 47.40625 23.390625 
Q 47.40625 31.296875 43.53125 35.828125 
Q 39.65625 40.375 33.015625 40.375 
z
M 52.59375 71.296875 
L 52.59375 62.3125 
Q 48.875 64.0625 45.09375 64.984375 
Q 41.3125 65.921875 37.59375 65.921875 
Q 27.828125 65.921875 22.671875 59.328125 
Q 17.53125 52.734375 16.796875 39.40625 
Q 19.671875 43.65625 24.015625 45.921875 
Q 28.375 48.1875 33.59375 48.1875 
Q 44.578125 48.1875 50.953125 41.515625 
Q 57.328125 34.859375 57.328125 23.390625 
Q 57.328125 12.15625 50.6875 5.359375 
Q 44.046875 -1.421875 33.015625 -1.421875 
Q 20.359375 -1.421875 13.671875 8.265625 
Q 6.984375 17.96875 6.984375 36.375 
Q 6.984375 53.65625 15.1875 63.9375 
Q 23.390625 74.21875 37.203125 74.21875 
Q 40.921875 74.21875 44.703125 73.484375 
Q 48.484375 72.75 52.59375 71.296875 
z
" id="DejaVuSans-54"/>
      </defs>
      <g transform="translate(23.564687 146.52305)scale(0.17 -0.17)">
       <use xlink:href="#DejaVuSans-48"/>
       <use x="63.623047" xlink:href="#DejaVuSans-46"/>
       <use x="95.410156" xlink:href="#DejaVuSans-54"/>
      </g>
     </g>
    </g>
    <g id="ytick_5">
     <g id="line2d_9">
      <g>
       <use style="stroke:#000000;stroke-width:0.8;" x="57.6" xlink:href="#m939b3d364c" y="84.224505"/>
      </g>
     </g>
     <g id="text_10">
      <!-- 0.8 -->
      <defs>
       <path d="M 31.78125 34.625 
Q 24.75 34.625 20.71875 30.859375 
Q 16.703125 27.09375 16.703125 20.515625 
Q 16.703125 13.921875 20.71875 10.15625 
Q 24.75 6.390625 31.78125 6.390625 
Q 38.8125 6.390625 42.859375 10.171875 
Q 46.921875 13.96875 46.921875 20.515625 
Q 46.921875 27.09375 42.890625 30.859375 
Q 38.875 34.625 31.78125 34.625 
z
M 21.921875 38.8125 
Q 15.578125 40.375 12.03125 44.71875 
Q 8.5 49.078125 8.5 55.328125 
Q 8.5 64.0625 14.71875 69.140625 
Q 20.953125 74.21875 31.78125 74.21875 
Q 42.671875 74.21875 48.875 69.140625 
Q 55.078125 64.0625 55.078125 55.328125 
Q 55.078125 49.078125 51.53125 44.71875 
Q 48 40.375 41.703125 38.8125 
Q 48.828125 37.15625 52.796875 32.3125 
Q 56.78125 27.484375 56.78125 20.515625 
Q 56.78125 9.90625 50.3125 4.234375 
Q 43.84375 -1.421875 31.78125 -1.421875 
Q 19.734375 -1.421875 13.25 4.234375 
Q 6.78125 9.90625 6.78125 20.515625 
Q 6.78125 27.484375 10.78125 32.3125 
Q 14.796875 37.15625 21.921875 38.8125 
z
M 18.3125 54.390625 
Q 18.3125 48.734375 21.84375 45.5625 
Q 25.390625 42.390625 31.78125 42.390625 
Q 38.140625 42.390625 41.71875 45.5625 
Q 45.3125 48.734375 45.3125 54.390625 
Q 45.3125 60.0625 41.71875 63.234375 
Q 38.140625 66.40625 31.78125 66.40625 
Q 25.390625 66.40625 21.84375 63.234375 
Q 18.3125 60.0625 18.3125 54.390625 
z
" id="DejaVuSans-56"/>
      </defs>
      <g transform="translate(23.564687 90.683176)scale(0.17 -0.17)">
       <use xlink:href="#DejaVuSans-48"/>
       <use x="63.623047" xlink:href="#DejaVuSans-46"/>
       <use x="95.410156" xlink:href="#DejaVuSans-56"/>
      </g>
     </g>
    </g>
    <g id="text_11">
     <!-- Density -->
     <defs>
      <path d="M 19.671875 64.796875 
L 19.671875 8.109375 
L 31.59375 8.109375 
Q 46.6875 8.109375 53.6875 14.9375 
Q 60.6875 21.78125 60.6875 36.53125 
Q 60.6875 51.171875 53.6875 57.984375 
Q 46.6875 64.796875 31.59375 64.796875 
z
M 9.8125 72.90625 
L 30.078125 72.90625 
Q 51.265625 72.90625 61.171875 64.09375 
Q 71.09375 55.28125 71.09375 36.53125 
Q 71.09375 17.671875 61.125 8.828125 
Q 51.171875 0 30.078125 0 
L 9.8125 0 
z
" id="DejaVuSans-68"/>
      <path d="M 54.890625 33.015625 
L 54.890625 0 
L 45.90625 0 
L 45.90625 32.71875 
Q 45.90625 40.484375 42.875 44.328125 
Q 39.84375 48.1875 33.796875 48.1875 
Q 26.515625 48.1875 22.3125 43.546875 
Q 18.109375 38.921875 18.109375 30.90625 
L 18.109375 0 
L 9.078125 0 
L 9.078125 54.6875 
L 18.109375 54.6875 
L 18.109375 46.1875 
Q 21.34375 51.125 25.703125 53.5625 
Q 30.078125 56 35.796875 56 
Q 45.21875 56 50.046875 50.171875 
Q 54.890625 44.34375 54.890625 33.015625 
z
" id="DejaVuSans-110"/>
      <path d="M 9.421875 54.6875 
L 18.40625 54.6875 
L 18.40625 0 
L 9.421875 0 
z
M 9.421875 75.984375 
L 18.40625 75.984375 
L 18.40625 64.59375 
L 9.421875 64.59375 
z
" id="DejaVuSans-105"/>
      <path d="M 18.3125 70.21875 
L 18.3125 54.6875 
L 36.8125 54.6875 
L 36.8125 47.703125 
L 18.3125 47.703125 
L 18.3125 18.015625 
Q 18.3125 11.328125 20.140625 9.421875 
Q 21.96875 7.515625 27.59375 7.515625 
L 36.8125 7.515625 
L 36.8125 0 
L 27.59375 0 
Q 17.1875 0 13.234375 3.875 
Q 9.28125 7.765625 9.28125 18.015625 
L 9.28125 47.703125 
L 2.6875 47.703125 
L 2.6875 54.6875 
L 9.28125 54.6875 
L 9.28125 70.21875 
z
" id="DejaVuSans-116"/>
      <path d="M 32.171875 -5.078125 
Q 28.375 -14.84375 24.75 -17.8125 
Q 21.140625 -20.796875 15.09375 -20.796875 
L 7.90625 -20.796875 
L 7.90625 -13.28125 
L 13.1875 -13.28125 
Q 16.890625 -13.28125 18.9375 -11.515625 
Q 21 -9.765625 23.484375 -3.21875 
L 25.09375 0.875 
L 2.984375 54.6875 
L 12.5 54.6875 
L 29.59375 11.921875 
L 46.6875 54.6875 
L 56.203125 54.6875 
z
" id="DejaVuSans-121"/>
     </defs>
     <g transform="translate(13.325625 231.553781)rotate(-90)scale(0.3 -0.3)">
      <use xlink:href="#DejaVuSans-68"/>
      <use x="77.001953" xlink:href="#DejaVuSans-101"/>
      <use x="138.525391" xlink:href="#DejaVuSans-110"/>
      <use x="201.904297" xlink:href="#DejaVuSans-115"/>
      <use x="254.003906" xlink:href="#DejaVuSans-105"/>
      <use x="281.787109" xlink:href="#DejaVuSans-116"/>
      <use x="320.996094" xlink:href="#DejaVuSans-121"/>
     </g>
    </g>
   </g>
   <g id="line2d_10">
    <path clip-path="url(#p5961536d9f)" d="M 73.832727 307.584 
L 161.377444 307.472955 
L 162.899548 307.200576 
L 164.51675 306.748003 
L 165.446837 306.097646 
L 166.385807 305.909893 
L 167.655533 304.88762 
L 168.068847 304.075838 
L 168.766412 302.818161 
L 169.279528 302.334285 
L 169.720535 301.884777 
L 170.052336 301.138093 
L 170.909793 298.355961 
L 171.567647 296.743173 
L 172.003429 296.23561 
L 172.265735 295.783023 
L 172.52595 294.790034 
L 173.077209 291.457485 
L 173.495749 289.75916 
L 174.077837 287.744701 
L 174.751366 285.228708 
L 175.166771 283.821973 
L 175.522607 281.528887 
L 176.240028 276.92685 
L 176.616243 275.919659 
L 176.984621 274.929212 
L 177.302313 273.225746 
L 178.576219 265.482508 
L 178.672886 265.570073 
L 178.803516 266.126711 
L 178.996849 268.116018 
L 179.294686 273.938326 
L 179.968215 287.234235 
L 180.261349 289.078968 
L 180.507456 289.493004 
L 180.738933 289.495928 
L 181.884299 288.943454 
L 182.400027 288.307548 
L 182.971142 287.314772 
L 183.494708 286.468793 
L 183.745518 286.453672 
L 184.217877 286.480705 
L 185.259261 286.048261 
L 185.53672 285.794005 
L 186.223835 285.08868 
L 186.974698 284.788051 
L 187.560966 284.866652 
L 187.792443 284.442026 
L 188.694314 282.534791 
L 189.403375 281.72731 
L 189.90813 281.469092 
L 190.146399 281.583034 
L 190.447371 282.032398 
L 190.92391 282.676068 
L 191.104703 282.604842 
L 191.324161 282.217518 
L 191.678953 281.058964 
L 192.451239 278.466999 
L 192.681148 278.377766 
L 192.961219 278.544959 
L 193.287795 279.004791 
L 193.793073 279.713784 
L 193.96864 279.601307 
L 194.29417 279.035374 
L 195.539337 276.790008 
L 195.747823 276.891377 
L 195.999156 277.31334 
L 196.587514 278.350143 
L 196.745316 278.243053 
L 196.959549 277.756741 
L 197.793492 275.551359 
L 198.146717 275.395331 
L 198.352067 274.869274 
L 198.749183 273.063147 
L 199.244533 271.187829 
L 199.449361 271.039805 
L 199.601415 271.231417 
L 199.939486 272.151438 
L 200.277557 272.755476 
L 200.530979 272.801228 
L 201.081716 272.592749 
L 201.433896 272.184009 
L 201.867065 271.765937 
L 202.081821 271.849919 
L 202.595459 272.141525 
L 202.8029 271.846456 
L 203.504646 270.714923 
L 204.142121 270.037047 
L 204.965092 269.184202 
L 205.139614 269.333845 
L 205.680945 270.12773 
L 205.750441 270.046671 
L 205.931233 269.528754 
L 206.679483 267.049924 
L 206.943356 267.010627 
L 207.335769 266.933773 
L 207.68638 266.583332 
L 208.686485 265.428235 
L 209.055908 265.470618 
L 209.231997 265.143969 
L 209.54969 263.944968 
L 209.887761 263.030238 
L 210.04713 263.044873 
L 210.60884 263.378661 
L 211.181 262.885574 
L 211.186225 262.890273 
L 211.708746 263.263629 
L 211.729647 263.238807 
L 211.963736 262.757087 
L 212.31069 262.198205 
L 212.472672 262.27735 
L 212.809175 262.816297 
L 213.093427 263.050264 
L 213.260111 262.923102 
L 213.478002 262.408808 
L 214.37099 259.854987 
L 214.388756 259.861946 
L 214.56589 260.068658 
L 215.207024 260.966229 
L 215.395131 260.775719 
L 215.692968 260.09359 
L 216.479884 258.063417 
L 216.504965 258.075789 
L 216.662767 258.30989 
L 217.182675 259.253683 
L 217.207234 259.238565 
L 217.354062 258.983345 
L 217.612187 257.979981 
L 218.253843 255.460974 
L 218.460239 255.336753 
L 218.61595 255.528134 
L 218.876688 256.293236 
L 219.273804 257.291829 
L 219.393983 257.21044 
L 219.570073 256.70847 
L 220.096252 255.12488 
L 220.223747 255.245829 
L 220.492322 255.933345 
L 220.938555 256.861422 
L 221.356572 257.256234 
L 221.671129 257.237437 
L 221.901039 257.328197 
L 222.377578 257.80244 
L 222.437668 257.709912 
L 222.597559 257.113282 
L 222.8839 254.971278 
L 223.29826 252.357912 
L 223.428367 252.240441 
L 223.459718 252.262792 
L 223.609159 252.567751 
L 224.361067 254.382252 
L 225.088939 255.197436 
L 225.312055 255.081768 
L 225.693495 254.568773 
L 226.422412 253.542838 
L 226.43652 253.552399 
L 226.601637 253.816181 
L 226.975239 254.99422 
L 227.465886 256.167413 
L 227.857254 256.713196 
L 227.989452 256.596633 
L 228.170767 256.046859 
L 228.55691 253.936768 
L 228.94044 252.420684 
L 229.117052 252.307234 
L 229.126457 252.313006 
L 229.268583 252.543846 
L 229.512078 253.466619 
L 230.069608 255.563312 
L 230.234202 255.582198 
L 230.398796 255.288604 
L 230.69193 254.207743 
L 231.270361 252.159568 
L 231.486162 252.033247 
L 231.676882 252.205305 
L 232.364519 252.981983 
L 232.600699 252.770137 
L 233.380823 251.628211 
L 233.636335 250.346148 
L 234.481252 245.600148 
L 234.609269 245.651499 
L 234.797377 246.092295 
L 235.189267 246.923118 
L 235.306312 246.798585 
L 235.491284 246.174027 
L 236.045157 243.130248 
L 236.619407 239.473281 
L 237.151333 234.166589 
L 237.716178 229.193656 
L 238.283636 225.094198 
L 239.097201 215.687165 
L 239.861649 207.575876 
L 241.028438 198.687845 
L 241.571337 189.315952 
L 242.111102 181.948423 
L 243.166071 170.416926 
L 243.668736 164.630145 
L 244.175059 161.502257 
L 245.039309 156.378934 
L 245.720153 152.446791 
L 246.481466 149.112676 
L 247.260545 144.350631 
L 247.27204 144.354275 
L 247.360346 144.522216 
L 247.5124 145.419688 
L 247.76948 148.535219 
L 248.473316 157.481871 
L 248.792054 158.509476 
L 248.997927 159.583796 
L 249.255007 162.371817 
L 250.366409 176.284192 
L 250.521075 176.377422 
L 250.535183 176.368943 
L 250.71493 176.11217 
L 251.478856 174.679189 
L 251.538423 174.738353 
L 251.683684 175.156641 
L 251.905233 176.611245 
L 252.669159 182.924645 
L 252.734996 182.830514 
L 252.864059 182.14919 
L 253.110166 179.387485 
L 253.713678 172.640511 
L 254.038686 171.46198 
L 254.353243 170.218894 
L 254.871584 166.815035 
L 256.075472 158.283593 
L 256.558282 155.285587 
L 256.984136 152.566607 
L 258.067844 144.346884 
L 258.724653 142.494835 
L 258.977553 140.068065 
L 259.40184 133.304443 
L 260.134414 122.62269 
L 260.731133 112.666436 
L 261.634572 92.925669 
L 262.535398 75.487905 
L 263.185936 66.749962 
L 263.855286 60.473958 
L 264.653698 54.144026 
L 264.736778 54.259399 
L 264.880994 54.976719 
L 265.130237 57.556812 
L 265.634469 65.663219 
L 267.296086 96.318623 
L 267.738661 104.440328 
L 268.53237 114.905902 
L 269.232026 125.680877 
L 271.441244 152.518804 
L 271.976305 156.062281 
L 272.655583 161.706937 
L 272.794573 161.743234 
L 272.807114 161.734276 
L 273.102338 161.642857 
L 273.10495 161.64633 
L 273.255959 162.036724 
L 273.530805 163.513332 
L 274.092515 167.90642 
L 274.655792 171.886747 
L 275.051863 174.38783 
L 275.425466 178.858318 
L 275.922383 184.020699 
L 276.21604 185.083387 
L 276.90211 186.726547 
L 277.499351 189.264426 
L 278.141007 192.071405 
L 278.275295 192.05222 
L 278.279997 192.046747 
L 278.446682 191.674041 
L 278.795725 190.204362 
L 279.179256 188.959889 
L 279.311976 188.96479 
L 279.321904 188.975733 
L 279.490678 189.345779 
L 279.984983 190.480248 
L 280.109343 190.327566 
L 280.305811 189.641888 
L 280.639179 187.526422 
L 281.679518 180.419044 
L 281.801788 180.325164 
L 281.835752 180.354812 
L 281.963247 180.691286 
L 282.190021 182.060606 
L 282.846307 186.216071 
L 283.060018 186.42021 
L 283.539693 186.526021 
L 283.729368 187.10351 
L 283.969205 188.665483 
L 284.332357 192.817094 
L 284.841815 197.959528 
L 284.930643 198.467639 
L 284.930643 198.467639 
" style="fill:none;stroke:#ff7f0e;stroke-linecap:square;stroke-width:1.5;"/>
   </g>
   <g id="patch_103">
    <path d="M 57.6 307.584 
L 57.6 41.472 
" style="fill:none;stroke:#000000;stroke-linecap:square;stroke-linejoin:miter;stroke-width:0.8;"/>
   </g>
   <g id="patch_104">
    <path d="M 414.72 307.584 
L 414.72 41.472 
" style="fill:none;stroke:#000000;stroke-linecap:square;stroke-linejoin:miter;stroke-width:0.8;"/>
   </g>
   <g id="patch_105">
    <path d="M 57.6 307.584 
L 414.72 307.584 
" style="fill:none;stroke:#000000;stroke-linecap:square;stroke-linejoin:miter;stroke-width:0.8;"/>
   </g>
   <g id="patch_106">
    <path d="M 57.6 41.472 
L 414.72 41.472 
" style="fill:none;stroke:#000000;stroke-linecap:square;stroke-linejoin:miter;stroke-width:0.8;"/>
   </g>
  </g>
 </g>
 <defs>
  <clipPath id="p5961536d9f">
   <rect height="266.112" width="357.12" x="57.6" y="41.472"/>
  </clipPath>
 </defs>
</svg>
