<?xml version="1.0" encoding="utf-8" standalone="no"?>
<!DOCTYPE svg PUBLIC "-//W3C//DTD SVG 1.1//EN"
  "http://www.w3.org/Graphics/SVG/1.1/DTD/svg11.dtd">
<!-- Created with matplotlib (https://matplotlib.org/) -->
<svg height="345.6pt" version="1.1" viewBox="0 0 460.8 345.6" width="460.8pt" xmlns="http://www.w3.org/2000/svg" xmlns:xlink="http://www.w3.org/1999/xlink">
 <defs>
  <style type="text/css">
*{stroke-linecap:butt;stroke-linejoin:round;}
  </style>
 </defs>
 <g id="figure_1">
  <g id="patch_1">
   <path d="M 0 345.6 
L 460.8 345.6 
L 460.8 0 
L 0 0 
z
" style="fill:#ffffff;"/>
  </g>
  <g id="axes_1">
   <g id="patch_2">
    <path d="M 57.6 307.584 
L 414.72 307.584 
L 414.72 41.472 
L 57.6 41.472 
z
" style="fill:#ffffff;"/>
   </g>
   <g id="patch_3">
    <path clip-path="url(#p3e4c3c89e8)" d="M 73.832727 307.584 
L 77.079273 307.584 
L 77.079273 307.547983 
L 73.832727 307.547983 
z
" style="fill:#1f77b4;"/>
   </g>
   <g id="patch_4">
    <path clip-path="url(#p3e4c3c89e8)" d="M 77.079273 307.584 
L 80.325818 307.584 
L 80.325818 307.511967 
L 77.079273 307.511967 
z
" style="fill:#1f77b4;"/>
   </g>
   <g id="patch_5">
    <path clip-path="url(#p3e4c3c89e8)" d="M 80.325818 307.584 
L 83.572364 307.584 
L 83.572364 307.421925 
L 80.325818 307.421925 
z
" style="fill:#1f77b4;"/>
   </g>
   <g id="patch_6">
    <path clip-path="url(#p3e4c3c89e8)" d="M 83.572364 307.584 
L 86.818909 307.584 
L 86.818909 307.47595 
L 83.572364 307.47595 
z
" style="fill:#1f77b4;"/>
   </g>
   <g id="patch_7">
    <path clip-path="url(#p3e4c3c89e8)" d="M 86.818909 307.584 
L 90.065455 307.584 
L 90.065455 307.277858 
L 86.818909 307.277858 
z
" style="fill:#1f77b4;"/>
   </g>
   <g id="patch_8">
    <path clip-path="url(#p3e4c3c89e8)" d="M 90.065455 307.584 
L 93.312 307.584 
L 93.312 307.151799 
L 90.065455 307.151799 
z
" style="fill:#1f77b4;"/>
   </g>
   <g id="patch_9">
    <path clip-path="url(#p3e4c3c89e8)" d="M 93.312 307.584 
L 96.558545 307.584 
L 96.558545 306.557523 
L 93.312 306.557523 
z
" style="fill:#1f77b4;"/>
   </g>
   <g id="patch_10">
    <path clip-path="url(#p3e4c3c89e8)" d="M 96.558545 307.584 
L 99.805091 307.584 
L 99.805091 305.909222 
L 96.558545 305.909222 
z
" style="fill:#1f77b4;"/>
   </g>
   <g id="patch_11">
    <path clip-path="url(#p3e4c3c89e8)" d="M 99.805091 307.584 
L 103.051636 307.584 
L 103.051636 305.080838 
L 99.805091 305.080838 
z
" style="fill:#1f77b4;"/>
   </g>
   <g id="patch_12">
    <path clip-path="url(#p3e4c3c89e8)" d="M 103.051636 307.584 
L 106.298182 307.584 
L 106.298182 302.775768 
L 103.051636 302.775768 
z
" style="fill:#1f77b4;"/>
   </g>
   <g id="patch_13">
    <path clip-path="url(#p3e4c3c89e8)" d="M 106.298182 307.584 
L 109.544727 307.584 
L 109.544727 300.560739 
L 106.298182 300.560739 
z
" style="fill:#1f77b4;"/>
   </g>
   <g id="patch_14">
    <path clip-path="url(#p3e4c3c89e8)" d="M 109.544727 307.584 
L 112.791273 307.584 
L 112.791273 297.517326 
L 109.544727 297.517326 
z
" style="fill:#1f77b4;"/>
   </g>
   <g id="patch_15">
    <path clip-path="url(#p3e4c3c89e8)" d="M 112.791273 307.584 
L 116.037818 307.584 
L 116.037818 292.925194 
L 112.791273 292.925194 
z
" style="fill:#1f77b4;"/>
   </g>
   <g id="patch_16">
    <path clip-path="url(#p3e4c3c89e8)" d="M 116.037818 307.584 
L 119.284364 307.584 
L 119.284364 287.25256 
L 116.037818 287.25256 
z
" style="fill:#1f77b4;"/>
   </g>
   <g id="patch_17">
    <path clip-path="url(#p3e4c3c89e8)" d="M 119.284364 307.584 
L 122.530909 307.584 
L 122.530909 280.607475 
L 119.284364 280.607475 
z
" style="fill:#1f77b4;"/>
   </g>
   <g id="patch_18">
    <path clip-path="url(#p3e4c3c89e8)" d="M 122.530909 307.584 
L 125.777455 307.584 
L 125.777455 271.621303 
L 122.530909 271.621303 
z
" style="fill:#1f77b4;"/>
   </g>
   <g id="patch_19">
    <path clip-path="url(#p3e4c3c89e8)" d="M 125.777455 307.584 
L 129.024 307.584 
L 129.024 266.560953 
L 125.777455 266.560953 
z
" style="fill:#1f77b4;"/>
   </g>
   <g id="patch_20">
    <path clip-path="url(#p3e4c3c89e8)" d="M 129.024 307.584 
L 132.270545 307.584 
L 132.270545 259.1235 
L 129.024 259.1235 
z
" style="fill:#1f77b4;"/>
   </g>
   <g id="patch_21">
    <path clip-path="url(#p3e4c3c89e8)" d="M 132.270545 307.584 
L 135.517091 307.584 
L 135.517091 252.046214 
L 132.270545 252.046214 
z
" style="fill:#1f77b4;"/>
   </g>
   <g id="patch_22">
    <path clip-path="url(#p3e4c3c89e8)" d="M 135.517091 307.584 
L 138.763636 307.584 
L 138.763636 247.418065 
L 135.517091 247.418065 
z
" style="fill:#1f77b4;"/>
   </g>
   <g id="patch_23">
    <path clip-path="url(#p3e4c3c89e8)" d="M 138.763636 307.584 
L 142.010182 307.584 
L 142.010182 242.663858 
L 138.763636 242.663858 
z
" style="fill:#1f77b4;"/>
   </g>
   <g id="patch_24">
    <path clip-path="url(#p3e4c3c89e8)" d="M 142.010182 307.584 
L 145.256727 307.584 
L 145.256727 236.37894 
L 142.010182 236.37894 
z
" style="fill:#1f77b4;"/>
   </g>
   <g id="patch_25">
    <path clip-path="url(#p3e4c3c89e8)" d="M 145.256727 307.584 
L 148.503273 307.584 
L 148.503273 226.672433 
L 145.256727 226.672433 
z
" style="fill:#1f77b4;"/>
   </g>
   <g id="patch_26">
    <path clip-path="url(#p3e4c3c89e8)" d="M 148.503273 307.584 
L 151.749818 307.584 
L 151.749818 220.585607 
L 148.503273 220.585607 
z
" style="fill:#1f77b4;"/>
   </g>
   <g id="patch_27">
    <path clip-path="url(#p3e4c3c89e8)" d="M 151.749818 307.584 
L 154.996364 307.584 
L 154.996364 220.261456 
L 151.749818 220.261456 
z
" style="fill:#1f77b4;"/>
   </g>
   <g id="patch_28">
    <path clip-path="url(#p3e4c3c89e8)" d="M 154.996364 307.584 
L 158.242909 307.584 
L 158.242909 218.46062 
L 154.996364 218.46062 
z
" style="fill:#1f77b4;"/>
   </g>
   <g id="patch_29">
    <path clip-path="url(#p3e4c3c89e8)" d="M 158.242909 307.584 
L 161.489455 307.584 
L 161.489455 221.143866 
L 158.242909 221.143866 
z
" style="fill:#1f77b4;"/>
   </g>
   <g id="patch_30">
    <path clip-path="url(#p3e4c3c89e8)" d="M 161.489455 307.584 
L 164.736 307.584 
L 164.736 222.026276 
L 161.489455 222.026276 
z
" style="fill:#1f77b4;"/>
   </g>
   <g id="patch_31">
    <path clip-path="url(#p3e4c3c89e8)" d="M 164.736 307.584 
L 167.982545 307.584 
L 167.982545 221.413991 
L 164.736 221.413991 
z
" style="fill:#1f77b4;"/>
   </g>
   <g id="patch_32">
    <path clip-path="url(#p3e4c3c89e8)" d="M 167.982545 307.584 
L 171.229091 307.584 
L 171.229091 212.265744 
L 167.982545 212.265744 
z
" style="fill:#1f77b4;"/>
   </g>
   <g id="patch_33">
    <path clip-path="url(#p3e4c3c89e8)" d="M 171.229091 307.584 
L 174.475636 307.584 
L 174.475636 177.887782 
L 171.229091 177.887782 
z
" style="fill:#1f77b4;"/>
   </g>
   <g id="patch_34">
    <path clip-path="url(#p3e4c3c89e8)" d="M 174.475636 307.584 
L 177.722182 307.584 
L 177.722182 96.417956 
L 174.475636 96.417956 
z
" style="fill:#1f77b4;"/>
   </g>
   <g id="patch_35">
    <path clip-path="url(#p3e4c3c89e8)" d="M 177.722182 307.584 
L 180.968727 307.584 
L 180.968727 81.128857 
L 177.722182 81.128857 
z
" style="fill:#1f77b4;"/>
   </g>
   <g id="patch_36">
    <path clip-path="url(#p3e4c3c89e8)" d="M 180.968727 307.584 
L 184.215273 307.584 
L 184.215273 115.254702 
L 180.968727 115.254702 
z
" style="fill:#1f77b4;"/>
   </g>
   <g id="patch_37">
    <path clip-path="url(#p3e4c3c89e8)" d="M 184.215273 307.584 
L 187.461818 307.584 
L 187.461818 60.365217 
L 184.215273 60.365217 
z
" style="fill:#1f77b4;"/>
   </g>
   <g id="patch_38">
    <path clip-path="url(#p3e4c3c89e8)" d="M 187.461818 307.584 
L 190.708364 307.584 
L 190.708364 97.732567 
L 187.461818 97.732567 
z
" style="fill:#1f77b4;"/>
   </g>
   <g id="patch_39">
    <path clip-path="url(#p3e4c3c89e8)" d="M 190.708364 307.584 
L 193.954909 307.584 
L 193.954909 151.019307 
L 190.708364 151.019307 
z
" style="fill:#1f77b4;"/>
   </g>
   <g id="patch_40">
    <path clip-path="url(#p3e4c3c89e8)" d="M 193.954909 307.584 
L 197.201455 307.584 
L 197.201455 156.818 
L 193.954909 156.818 
z
" style="fill:#1f77b4;"/>
   </g>
   <g id="patch_41">
    <path clip-path="url(#p3e4c3c89e8)" d="M 197.201455 307.584 
L 200.448 307.584 
L 200.448 188.440682 
L 197.201455 188.440682 
z
" style="fill:#1f77b4;"/>
   </g>
   <g id="patch_42">
    <path clip-path="url(#p3e4c3c89e8)" d="M 200.448 307.584 
L 203.694545 307.584 
L 203.694545 237.3694 
L 200.448 237.3694 
z
" style="fill:#1f77b4;"/>
   </g>
   <g id="patch_43">
    <path clip-path="url(#p3e4c3c89e8)" d="M 203.694545 307.584 
L 206.941091 307.584 
L 206.941091 242.231657 
L 203.694545 242.231657 
z
" style="fill:#1f77b4;"/>
   </g>
   <g id="patch_44">
    <path clip-path="url(#p3e4c3c89e8)" d="M 206.941091 307.584 
L 210.187636 307.584 
L 210.187636 251.794097 
L 206.941091 251.794097 
z
" style="fill:#1f77b4;"/>
   </g>
   <g id="patch_45">
    <path clip-path="url(#p3e4c3c89e8)" d="M 210.187636 307.584 
L 213.434182 307.584 
L 213.434182 258.979433 
L 210.187636 258.979433 
z
" style="fill:#1f77b4;"/>
   </g>
   <g id="patch_46">
    <path clip-path="url(#p3e4c3c89e8)" d="M 213.434182 307.584 
L 216.680727 307.584 
L 216.680727 263.499532 
L 213.434182 263.499532 
z
" style="fill:#1f77b4;"/>
   </g>
   <g id="patch_47">
    <path clip-path="url(#p3e4c3c89e8)" d="M 216.680727 307.584 
L 219.927273 307.584 
L 219.927273 271.711344 
L 216.680727 271.711344 
z
" style="fill:#1f77b4;"/>
   </g>
   <g id="patch_48">
    <path clip-path="url(#p3e4c3c89e8)" d="M 219.927273 307.584 
L 223.173818 307.584 
L 223.173818 274.088448 
L 219.927273 274.088448 
z
" style="fill:#1f77b4;"/>
   </g>
   <g id="patch_49">
    <path clip-path="url(#p3e4c3c89e8)" d="M 223.173818 307.584 
L 226.420364 307.584 
L 226.420364 275.204967 
L 223.173818 275.204967 
z
" style="fill:#1f77b4;"/>
   </g>
   <g id="patch_50">
    <path clip-path="url(#p3e4c3c89e8)" d="M 226.420364 307.584 
L 229.666909 307.584 
L 229.666909 276.609619 
L 226.420364 276.609619 
z
" style="fill:#1f77b4;"/>
   </g>
   <g id="patch_51">
    <path clip-path="url(#p3e4c3c89e8)" d="M 229.666909 307.584 
L 232.913455 307.584 
L 232.913455 277.996262 
L 229.666909 277.996262 
z
" style="fill:#1f77b4;"/>
   </g>
   <g id="patch_52">
    <path clip-path="url(#p3e4c3c89e8)" d="M 232.913455 307.584 
L 236.16 307.584 
L 236.16 277.618087 
L 232.913455 277.618087 
z
" style="fill:#1f77b4;"/>
   </g>
   <g id="patch_53">
    <path clip-path="url(#p3e4c3c89e8)" d="M 236.16 307.584 
L 239.406545 307.584 
L 239.406545 278.122321 
L 236.16 278.122321 
z
" style="fill:#1f77b4;"/>
   </g>
   <g id="patch_54">
    <path clip-path="url(#p3e4c3c89e8)" d="M 239.406545 307.584 
L 242.653091 307.584 
L 242.653091 279.995191 
L 239.406545 279.995191 
z
" style="fill:#1f77b4;"/>
   </g>
   <g id="patch_55">
    <path clip-path="url(#p3e4c3c89e8)" d="M 242.653091 307.584 
L 245.899636 307.584 
L 245.899636 280.535441 
L 242.653091 280.535441 
z
" style="fill:#1f77b4;"/>
   </g>
   <g id="patch_56">
    <path clip-path="url(#p3e4c3c89e8)" d="M 245.899636 307.584 
L 249.146182 307.584 
L 249.146182 281.363826 
L 245.899636 281.363826 
z
" style="fill:#1f77b4;"/>
   </g>
   <g id="patch_57">
    <path clip-path="url(#p3e4c3c89e8)" d="M 249.146182 307.584 
L 252.392727 307.584 
L 252.392727 281.86806 
L 249.146182 281.86806 
z
" style="fill:#1f77b4;"/>
   </g>
   <g id="patch_58">
    <path clip-path="url(#p3e4c3c89e8)" d="M 252.392727 307.584 
L 255.639273 307.584 
L 255.639273 284.623339 
L 252.392727 284.623339 
z
" style="fill:#1f77b4;"/>
   </g>
   <g id="patch_59">
    <path clip-path="url(#p3e4c3c89e8)" d="M 255.639273 307.584 
L 258.885818 307.584 
L 258.885818 285.505749 
L 255.639273 285.505749 
z
" style="fill:#1f77b4;"/>
   </g>
   <g id="patch_60">
    <path clip-path="url(#p3e4c3c89e8)" d="M 258.885818 307.584 
L 262.132364 307.584 
L 262.132364 288.098953 
L 258.885818 288.098953 
z
" style="fill:#1f77b4;"/>
   </g>
   <g id="patch_61">
    <path clip-path="url(#p3e4c3c89e8)" d="M 262.132364 307.584 
L 265.378909 307.584 
L 265.378909 288.747254 
L 262.132364 288.747254 
z
" style="fill:#1f77b4;"/>
   </g>
   <g id="patch_62">
    <path clip-path="url(#p3e4c3c89e8)" d="M 265.378909 307.584 
L 268.625455 307.584 
L 268.625455 290.65614 
L 265.378909 290.65614 
z
" style="fill:#1f77b4;"/>
   </g>
   <g id="patch_63">
    <path clip-path="url(#p3e4c3c89e8)" d="M 268.625455 307.584 
L 271.872 307.584 
L 271.872 291.808676 
L 268.625455 291.808676 
z
" style="fill:#1f77b4;"/>
   </g>
   <g id="patch_64">
    <path clip-path="url(#p3e4c3c89e8)" d="M 271.872 307.584 
L 275.118545 307.584 
L 275.118545 294.095737 
L 271.872 294.095737 
z
" style="fill:#1f77b4;"/>
   </g>
   <g id="patch_65">
    <path clip-path="url(#p3e4c3c89e8)" d="M 275.118545 307.584 
L 278.365091 307.584 
L 278.365091 295.518398 
L 275.118545 295.518398 
z
" style="fill:#1f77b4;"/>
   </g>
   <g id="patch_66">
    <path clip-path="url(#p3e4c3c89e8)" d="M 278.365091 307.584 
L 281.611636 307.584 
L 281.611636 296.742967 
L 278.365091 296.742967 
z
" style="fill:#1f77b4;"/>
   </g>
   <g id="patch_67">
    <path clip-path="url(#p3e4c3c89e8)" d="M 281.611636 307.584 
L 284.858182 307.584 
L 284.858182 298.201644 
L 281.611636 298.201644 
z
" style="fill:#1f77b4;"/>
   </g>
   <g id="patch_68">
    <path clip-path="url(#p3e4c3c89e8)" d="M 284.858182 307.584 
L 288.104727 307.584 
L 288.104727 299.354179 
L 284.858182 299.354179 
z
" style="fill:#1f77b4;"/>
   </g>
   <g id="patch_69">
    <path clip-path="url(#p3e4c3c89e8)" d="M 288.104727 307.584 
L 291.351273 307.584 
L 291.351273 299.678329 
L 288.104727 299.678329 
z
" style="fill:#1f77b4;"/>
   </g>
   <g id="patch_70">
    <path clip-path="url(#p3e4c3c89e8)" d="M 291.351273 307.584 
L 294.597818 307.584 
L 294.597818 301.245057 
L 291.351273 301.245057 
z
" style="fill:#1f77b4;"/>
   </g>
   <g id="patch_71">
    <path clip-path="url(#p3e4c3c89e8)" d="M 294.597818 307.584 
L 297.844364 307.584 
L 297.844364 302.217508 
L 294.597818 302.217508 
z
" style="fill:#1f77b4;"/>
   </g>
   <g id="patch_72">
    <path clip-path="url(#p3e4c3c89e8)" d="M 297.844364 307.584 
L 301.090909 307.584 
L 301.090909 303.009876 
L 297.844364 303.009876 
z
" style="fill:#1f77b4;"/>
   </g>
   <g id="patch_73">
    <path clip-path="url(#p3e4c3c89e8)" d="M 301.090909 307.584 
L 304.337455 307.584 
L 304.337455 303.766227 
L 301.090909 303.766227 
z
" style="fill:#1f77b4;"/>
   </g>
   <g id="patch_74">
    <path clip-path="url(#p3e4c3c89e8)" d="M 304.337455 307.584 
L 307.584 307.584 
L 307.584 304.126395 
L 304.337455 304.126395 
z
" style="fill:#1f77b4;"/>
   </g>
   <g id="patch_75">
    <path clip-path="url(#p3e4c3c89e8)" d="M 307.584 307.584 
L 310.830545 307.584 
L 310.830545 304.810712 
L 307.584 304.810712 
z
" style="fill:#1f77b4;"/>
   </g>
   <g id="patch_76">
    <path clip-path="url(#p3e4c3c89e8)" d="M 310.830545 307.584 
L 314.077091 307.584 
L 314.077091 305.188888 
L 310.830545 305.188888 
z
" style="fill:#1f77b4;"/>
   </g>
   <g id="patch_77">
    <path clip-path="url(#p3e4c3c89e8)" d="M 314.077091 307.584 
L 317.323636 307.584 
L 317.323636 305.765156 
L 314.077091 305.765156 
z
" style="fill:#1f77b4;"/>
   </g>
   <g id="patch_78">
    <path clip-path="url(#p3e4c3c89e8)" d="M 317.323636 307.584 
L 320.570182 307.584 
L 320.570182 305.945239 
L 317.323636 305.945239 
z
" style="fill:#1f77b4;"/>
   </g>
   <g id="patch_79">
    <path clip-path="url(#p3e4c3c89e8)" d="M 320.570182 307.584 
L 323.816727 307.584 
L 323.816727 306.395448 
L 320.570182 306.395448 
z
" style="fill:#1f77b4;"/>
   </g>
   <g id="patch_80">
    <path clip-path="url(#p3e4c3c89e8)" d="M 323.816727 307.584 
L 327.063273 307.584 
L 327.063273 306.791632 
L 323.816727 306.791632 
z
" style="fill:#1f77b4;"/>
   </g>
   <g id="patch_81">
    <path clip-path="url(#p3e4c3c89e8)" d="M 327.063273 307.584 
L 330.309818 307.584 
L 330.309818 306.899682 
L 327.063273 306.899682 
z
" style="fill:#1f77b4;"/>
   </g>
   <g id="patch_82">
    <path clip-path="url(#p3e4c3c89e8)" d="M 330.309818 307.584 
L 333.556364 307.584 
L 333.556364 307.025741 
L 330.309818 307.025741 
z
" style="fill:#1f77b4;"/>
   </g>
   <g id="patch_83">
    <path clip-path="url(#p3e4c3c89e8)" d="M 333.556364 307.584 
L 336.802909 307.584 
L 336.802909 306.863666 
L 333.556364 306.863666 
z
" style="fill:#1f77b4;"/>
   </g>
   <g id="patch_84">
    <path clip-path="url(#p3e4c3c89e8)" d="M 336.802909 307.584 
L 340.049455 307.584 
L 340.049455 307.007732 
L 336.802909 307.007732 
z
" style="fill:#1f77b4;"/>
   </g>
   <g id="patch_85">
    <path clip-path="url(#p3e4c3c89e8)" d="M 340.049455 307.584 
L 343.296 307.584 
L 343.296 307.187816 
L 340.049455 307.187816 
z
" style="fill:#1f77b4;"/>
   </g>
   <g id="patch_86">
    <path clip-path="url(#p3e4c3c89e8)" d="M 343.296 307.584 
L 346.542545 307.584 
L 346.542545 307.241841 
L 343.296 307.241841 
z
" style="fill:#1f77b4;"/>
   </g>
   <g id="patch_87">
    <path clip-path="url(#p3e4c3c89e8)" d="M 346.542545 307.584 
L 349.789091 307.584 
L 349.789091 307.403916 
L 346.542545 307.403916 
z
" style="fill:#1f77b4;"/>
   </g>
   <g id="patch_88">
    <path clip-path="url(#p3e4c3c89e8)" d="M 349.789091 307.584 
L 353.035636 307.584 
L 353.035636 307.403916 
L 349.789091 307.403916 
z
" style="fill:#1f77b4;"/>
   </g>
   <g id="patch_89">
    <path clip-path="url(#p3e4c3c89e8)" d="M 353.035636 307.584 
L 356.282182 307.584 
L 356.282182 307.421925 
L 353.035636 307.421925 
z
" style="fill:#1f77b4;"/>
   </g>
   <g id="patch_90">
    <path clip-path="url(#p3e4c3c89e8)" d="M 356.282182 307.584 
L 359.528727 307.584 
L 359.528727 307.313875 
L 356.282182 307.313875 
z
" style="fill:#1f77b4;"/>
   </g>
   <g id="patch_91">
    <path clip-path="url(#p3e4c3c89e8)" d="M 359.528727 307.584 
L 362.775273 307.584 
L 362.775273 307.47595 
L 359.528727 307.47595 
z
" style="fill:#1f77b4;"/>
   </g>
   <g id="patch_92">
    <path clip-path="url(#p3e4c3c89e8)" d="M 362.775273 307.584 
L 366.021818 307.584 
L 366.021818 307.403916 
L 362.775273 307.403916 
z
" style="fill:#1f77b4;"/>
   </g>
   <g id="patch_93">
    <path clip-path="url(#p3e4c3c89e8)" d="M 366.021818 307.584 
L 369.268364 307.584 
L 369.268364 307.493958 
L 366.021818 307.493958 
z
" style="fill:#1f77b4;"/>
   </g>
   <g id="patch_94">
    <path clip-path="url(#p3e4c3c89e8)" d="M 369.268364 307.584 
L 372.514909 307.584 
L 372.514909 307.565992 
L 369.268364 307.565992 
z
" style="fill:#1f77b4;"/>
   </g>
   <g id="patch_95">
    <path clip-path="url(#p3e4c3c89e8)" d="M 372.514909 307.584 
L 375.761455 307.584 
L 375.761455 307.529975 
L 372.514909 307.529975 
z
" style="fill:#1f77b4;"/>
   </g>
   <g id="patch_96">
    <path clip-path="url(#p3e4c3c89e8)" d="M 375.761455 307.584 
L 379.008 307.584 
L 379.008 307.547983 
L 375.761455 307.547983 
z
" style="fill:#1f77b4;"/>
   </g>
   <g id="patch_97">
    <path clip-path="url(#p3e4c3c89e8)" d="M 379.008 307.584 
L 382.254545 307.584 
L 382.254545 307.529975 
L 379.008 307.529975 
z
" style="fill:#1f77b4;"/>
   </g>
   <g id="patch_98">
    <path clip-path="url(#p3e4c3c89e8)" d="M 382.254545 307.584 
L 385.501091 307.584 
L 385.501091 307.584 
L 382.254545 307.584 
z
" style="fill:#1f77b4;"/>
   </g>
   <g id="patch_99">
    <path clip-path="url(#p3e4c3c89e8)" d="M 385.501091 307.584 
L 388.747636 307.584 
L 388.747636 307.565992 
L 385.501091 307.565992 
z
" style="fill:#1f77b4;"/>
   </g>
   <g id="patch_100">
    <path clip-path="url(#p3e4c3c89e8)" d="M 388.747636 307.584 
L 391.994182 307.584 
L 391.994182 307.529975 
L 388.747636 307.529975 
z
" style="fill:#1f77b4;"/>
   </g>
   <g id="patch_101">
    <path clip-path="url(#p3e4c3c89e8)" d="M 391.994182 307.584 
L 395.240727 307.584 
L 395.240727 307.584 
L 391.994182 307.584 
z
" style="fill:#1f77b4;"/>
   </g>
   <g id="patch_102">
    <path clip-path="url(#p3e4c3c89e8)" d="M 395.240727 307.584 
L 398.487273 307.584 
L 398.487273 307.565992 
L 395.240727 307.565992 
z
" style="fill:#1f77b4;"/>
   </g>
   <g id="matplotlib.axis_1">
    <g id="xtick_1">
     <g id="line2d_1">
      <defs>
       <path d="M 0 0 
L 0 3.5 
" id="m12c5040edc" style="stroke:#000000;stroke-width:0.8;"/>
      </defs>
      <g>
       <use style="stroke:#000000;stroke-width:0.8;" x="100.905668" xlink:href="#m12c5040edc" y="307.584"/>
      </g>
     </g>
     <g id="text_1">
      <!-- −2 -->
      <defs>
       <path d="M 10.59375 35.5 
L 73.1875 35.5 
L 73.1875 27.203125 
L 10.59375 27.203125 
z
" id="DejaVuSans-8722"/>
       <path d="M 19.1875 8.296875 
L 53.609375 8.296875 
L 53.609375 0 
L 7.328125 0 
L 7.328125 8.296875 
Q 12.9375 14.109375 22.625 23.890625 
Q 32.328125 33.6875 34.8125 36.53125 
Q 39.546875 41.84375 41.421875 45.53125 
Q 43.3125 49.21875 43.3125 52.78125 
Q 43.3125 58.59375 39.234375 62.25 
Q 35.15625 65.921875 28.609375 65.921875 
Q 23.96875 65.921875 18.8125 64.3125 
Q 13.671875 62.703125 7.8125 59.421875 
L 7.8125 69.390625 
Q 13.765625 71.78125 18.9375 73 
Q 24.125 74.21875 28.421875 74.21875 
Q 39.75 74.21875 46.484375 68.546875 
Q 53.21875 62.890625 53.21875 53.421875 
Q 53.21875 48.921875 51.53125 44.890625 
Q 49.859375 40.875 45.40625 35.40625 
Q 44.1875 33.984375 37.640625 27.21875 
Q 31.109375 20.453125 19.1875 8.296875 
z
" id="DejaVuSans-50"/>
      </defs>
      <g transform="translate(88.374809 327.501344)scale(0.17 -0.17)">
       <use xlink:href="#DejaVuSans-8722"/>
       <use x="83.789062" xlink:href="#DejaVuSans-50"/>
      </g>
     </g>
    </g>
    <g id="xtick_2">
     <g id="line2d_2">
      <g>
       <use style="stroke:#000000;stroke-width:0.8;" x="198.543435" xlink:href="#m12c5040edc" y="307.584"/>
      </g>
     </g>
     <g id="text_2">
      <!-- 0 -->
      <defs>
       <path d="M 31.78125 66.40625 
Q 24.171875 66.40625 20.328125 58.90625 
Q 16.5 51.421875 16.5 36.375 
Q 16.5 21.390625 20.328125 13.890625 
Q 24.171875 6.390625 31.78125 6.390625 
Q 39.453125 6.390625 43.28125 13.890625 
Q 47.125 21.390625 47.125 36.375 
Q 47.125 51.421875 43.28125 58.90625 
Q 39.453125 66.40625 31.78125 66.40625 
z
M 31.78125 74.21875 
Q 44.046875 74.21875 50.515625 64.515625 
Q 56.984375 54.828125 56.984375 36.375 
Q 56.984375 17.96875 50.515625 8.265625 
Q 44.046875 -1.421875 31.78125 -1.421875 
Q 19.53125 -1.421875 13.0625 8.265625 
Q 6.59375 17.96875 6.59375 36.375 
Q 6.59375 54.828125 13.0625 64.515625 
Q 19.53125 74.21875 31.78125 74.21875 
z
" id="DejaVuSans-48"/>
      </defs>
      <g transform="translate(193.13531 327.501344)scale(0.17 -0.17)">
       <use xlink:href="#DejaVuSans-48"/>
      </g>
     </g>
    </g>
    <g id="xtick_3">
     <g id="line2d_3">
      <g>
       <use style="stroke:#000000;stroke-width:0.8;" x="296.181201" xlink:href="#m12c5040edc" y="307.584"/>
      </g>
     </g>
     <g id="text_3">
      <!-- 2 -->
      <g transform="translate(290.773076 327.501344)scale(0.17 -0.17)">
       <use xlink:href="#DejaVuSans-50"/>
      </g>
     </g>
    </g>
    <g id="xtick_4">
     <g id="line2d_4">
      <g>
       <use style="stroke:#000000;stroke-width:0.8;" x="393.818967" xlink:href="#m12c5040edc" y="307.584"/>
      </g>
     </g>
     <g id="text_4">
      <!-- 4 -->
      <defs>
       <path d="M 37.796875 64.3125 
L 12.890625 25.390625 
L 37.796875 25.390625 
z
M 35.203125 72.90625 
L 47.609375 72.90625 
L 47.609375 25.390625 
L 58.015625 25.390625 
L 58.015625 17.1875 
L 47.609375 17.1875 
L 47.609375 0 
L 37.796875 0 
L 37.796875 17.1875 
L 4.890625 17.1875 
L 4.890625 26.703125 
z
" id="DejaVuSans-52"/>
      </defs>
      <g transform="translate(388.410842 327.501344)scale(0.17 -0.17)">
       <use xlink:href="#DejaVuSans-52"/>
      </g>
     </g>
    </g>
    <g id="text_5">
     <!-- Compressed value -->
     <defs>
      <path d="M 64.40625 67.28125 
L 64.40625 56.890625 
Q 59.421875 61.53125 53.78125 63.8125 
Q 48.140625 66.109375 41.796875 66.109375 
Q 29.296875 66.109375 22.65625 58.46875 
Q 16.015625 50.828125 16.015625 36.375 
Q 16.015625 21.96875 22.65625 14.328125 
Q 29.296875 6.6875 41.796875 6.6875 
Q 48.140625 6.6875 53.78125 8.984375 
Q 59.421875 11.28125 64.40625 15.921875 
L 64.40625 5.609375 
Q 59.234375 2.09375 53.4375 0.328125 
Q 47.65625 -1.421875 41.21875 -1.421875 
Q 24.65625 -1.421875 15.125 8.703125 
Q 5.609375 18.84375 5.609375 36.375 
Q 5.609375 53.953125 15.125 64.078125 
Q 24.65625 74.21875 41.21875 74.21875 
Q 47.75 74.21875 53.53125 72.484375 
Q 59.328125 70.75 64.40625 67.28125 
z
" id="DejaVuSans-67"/>
      <path d="M 30.609375 48.390625 
Q 23.390625 48.390625 19.1875 42.75 
Q 14.984375 37.109375 14.984375 27.296875 
Q 14.984375 17.484375 19.15625 11.84375 
Q 23.34375 6.203125 30.609375 6.203125 
Q 37.796875 6.203125 41.984375 11.859375 
Q 46.1875 17.53125 46.1875 27.296875 
Q 46.1875 37.015625 41.984375 42.703125 
Q 37.796875 48.390625 30.609375 48.390625 
z
M 30.609375 56 
Q 42.328125 56 49.015625 48.375 
Q 55.71875 40.765625 55.71875 27.296875 
Q 55.71875 13.875 49.015625 6.21875 
Q 42.328125 -1.421875 30.609375 -1.421875 
Q 18.84375 -1.421875 12.171875 6.21875 
Q 5.515625 13.875 5.515625 27.296875 
Q 5.515625 40.765625 12.171875 48.375 
Q 18.84375 56 30.609375 56 
z
" id="DejaVuSans-111"/>
      <path d="M 52 44.1875 
Q 55.375 50.25 60.0625 53.125 
Q 64.75 56 71.09375 56 
Q 79.640625 56 84.28125 50.015625 
Q 88.921875 44.046875 88.921875 33.015625 
L 88.921875 0 
L 79.890625 0 
L 79.890625 32.71875 
Q 79.890625 40.578125 77.09375 44.375 
Q 74.3125 48.1875 68.609375 48.1875 
Q 61.625 48.1875 57.5625 43.546875 
Q 53.515625 38.921875 53.515625 30.90625 
L 53.515625 0 
L 44.484375 0 
L 44.484375 32.71875 
Q 44.484375 40.625 41.703125 44.40625 
Q 38.921875 48.1875 33.109375 48.1875 
Q 26.21875 48.1875 22.15625 43.53125 
Q 18.109375 38.875 18.109375 30.90625 
L 18.109375 0 
L 9.078125 0 
L 9.078125 54.6875 
L 18.109375 54.6875 
L 18.109375 46.1875 
Q 21.1875 51.21875 25.484375 53.609375 
Q 29.78125 56 35.6875 56 
Q 41.65625 56 45.828125 52.96875 
Q 50 49.953125 52 44.1875 
z
" id="DejaVuSans-109"/>
      <path d="M 18.109375 8.203125 
L 18.109375 -20.796875 
L 9.078125 -20.796875 
L 9.078125 54.6875 
L 18.109375 54.6875 
L 18.109375 46.390625 
Q 20.953125 51.265625 25.265625 53.625 
Q 29.59375 56 35.59375 56 
Q 45.5625 56 51.78125 48.09375 
Q 58.015625 40.1875 58.015625 27.296875 
Q 58.015625 14.40625 51.78125 6.484375 
Q 45.5625 -1.421875 35.59375 -1.421875 
Q 29.59375 -1.421875 25.265625 0.953125 
Q 20.953125 3.328125 18.109375 8.203125 
z
M 48.6875 27.296875 
Q 48.6875 37.203125 44.609375 42.84375 
Q 40.53125 48.484375 33.40625 48.484375 
Q 26.265625 48.484375 22.1875 42.84375 
Q 18.109375 37.203125 18.109375 27.296875 
Q 18.109375 17.390625 22.1875 11.75 
Q 26.265625 6.109375 33.40625 6.109375 
Q 40.53125 6.109375 44.609375 11.75 
Q 48.6875 17.390625 48.6875 27.296875 
z
" id="DejaVuSans-112"/>
      <path d="M 41.109375 46.296875 
Q 39.59375 47.171875 37.8125 47.578125 
Q 36.03125 48 33.890625 48 
Q 26.265625 48 22.1875 43.046875 
Q 18.109375 38.09375 18.109375 28.8125 
L 18.109375 0 
L 9.078125 0 
L 9.078125 54.6875 
L 18.109375 54.6875 
L 18.109375 46.1875 
Q 20.953125 51.171875 25.484375 53.578125 
Q 30.03125 56 36.53125 56 
Q 37.453125 56 38.578125 55.875 
Q 39.703125 55.765625 41.0625 55.515625 
z
" id="DejaVuSans-114"/>
      <path d="M 56.203125 29.59375 
L 56.203125 25.203125 
L 14.890625 25.203125 
Q 15.484375 15.921875 20.484375 11.0625 
Q 25.484375 6.203125 34.421875 6.203125 
Q 39.59375 6.203125 44.453125 7.46875 
Q 49.3125 8.734375 54.109375 11.28125 
L 54.109375 2.78125 
Q 49.265625 0.734375 44.1875 -0.34375 
Q 39.109375 -1.421875 33.890625 -1.421875 
Q 20.796875 -1.421875 13.15625 6.1875 
Q 5.515625 13.8125 5.515625 26.8125 
Q 5.515625 40.234375 12.765625 48.109375 
Q 20.015625 56 32.328125 56 
Q 43.359375 56 49.78125 48.890625 
Q 56.203125 41.796875 56.203125 29.59375 
z
M 47.21875 32.234375 
Q 47.125 39.59375 43.09375 43.984375 
Q 39.0625 48.390625 32.421875 48.390625 
Q 24.90625 48.390625 20.390625 44.140625 
Q 15.875 39.890625 15.1875 32.171875 
z
" id="DejaVuSans-101"/>
      <path d="M 44.28125 53.078125 
L 44.28125 44.578125 
Q 40.484375 46.53125 36.375 47.5 
Q 32.28125 48.484375 27.875 48.484375 
Q 21.1875 48.484375 17.84375 46.4375 
Q 14.5 44.390625 14.5 40.28125 
Q 14.5 37.15625 16.890625 35.375 
Q 19.28125 33.59375 26.515625 31.984375 
L 29.59375 31.296875 
Q 39.15625 29.25 43.1875 25.515625 
Q 47.21875 21.78125 47.21875 15.09375 
Q 47.21875 7.46875 41.1875 3.015625 
Q 35.15625 -1.421875 24.609375 -1.421875 
Q 20.21875 -1.421875 15.453125 -0.5625 
Q 10.6875 0.296875 5.421875 2 
L 5.421875 11.28125 
Q 10.40625 8.6875 15.234375 7.390625 
Q 20.0625 6.109375 24.8125 6.109375 
Q 31.15625 6.109375 34.5625 8.28125 
Q 37.984375 10.453125 37.984375 14.40625 
Q 37.984375 18.0625 35.515625 20.015625 
Q 33.0625 21.96875 24.703125 23.78125 
L 21.578125 24.515625 
Q 13.234375 26.265625 9.515625 29.90625 
Q 5.8125 33.546875 5.8125 39.890625 
Q 5.8125 47.609375 11.28125 51.796875 
Q 16.75 56 26.8125 56 
Q 31.78125 56 36.171875 55.265625 
Q 40.578125 54.546875 44.28125 53.078125 
z
" id="DejaVuSans-115"/>
      <path d="M 45.40625 46.390625 
L 45.40625 75.984375 
L 54.390625 75.984375 
L 54.390625 0 
L 45.40625 0 
L 45.40625 8.203125 
Q 42.578125 3.328125 38.25 0.953125 
Q 33.9375 -1.421875 27.875 -1.421875 
Q 17.96875 -1.421875 11.734375 6.484375 
Q 5.515625 14.40625 5.515625 27.296875 
Q 5.515625 40.1875 11.734375 48.09375 
Q 17.96875 56 27.875 56 
Q 33.9375 56 38.25 53.625 
Q 42.578125 51.265625 45.40625 46.390625 
z
M 14.796875 27.296875 
Q 14.796875 17.390625 18.875 11.75 
Q 22.953125 6.109375 30.078125 6.109375 
Q 37.203125 6.109375 41.296875 11.75 
Q 45.40625 17.390625 45.40625 27.296875 
Q 45.40625 37.203125 41.296875 42.84375 
Q 37.203125 48.484375 30.078125 48.484375 
Q 22.953125 48.484375 18.875 42.84375 
Q 14.796875 37.203125 14.796875 27.296875 
z
" id="DejaVuSans-100"/>
      <path id="DejaVuSans-32"/>
      <path d="M 2.984375 54.6875 
L 12.5 54.6875 
L 29.59375 8.796875 
L 46.6875 54.6875 
L 56.203125 54.6875 
L 35.6875 0 
L 23.484375 0 
z
" id="DejaVuSans-118"/>
      <path d="M 34.28125 27.484375 
Q 23.390625 27.484375 19.1875 25 
Q 14.984375 22.515625 14.984375 16.5 
Q 14.984375 11.71875 18.140625 8.90625 
Q 21.296875 6.109375 26.703125 6.109375 
Q 34.1875 6.109375 38.703125 11.40625 
Q 43.21875 16.703125 43.21875 25.484375 
L 43.21875 27.484375 
z
M 52.203125 31.203125 
L 52.203125 0 
L 43.21875 0 
L 43.21875 8.296875 
Q 40.140625 3.328125 35.546875 0.953125 
Q 30.953125 -1.421875 24.3125 -1.421875 
Q 15.921875 -1.421875 10.953125 3.296875 
Q 6 8.015625 6 15.921875 
Q 6 25.140625 12.171875 29.828125 
Q 18.359375 34.515625 30.609375 34.515625 
L 43.21875 34.515625 
L 43.21875 35.40625 
Q 43.21875 41.609375 39.140625 45 
Q 35.0625 48.390625 27.6875 48.390625 
Q 23 48.390625 18.546875 47.265625 
Q 14.109375 46.140625 10.015625 43.890625 
L 10.015625 52.203125 
Q 14.9375 54.109375 19.578125 55.046875 
Q 24.21875 56 28.609375 56 
Q 40.484375 56 46.34375 49.84375 
Q 52.203125 43.703125 52.203125 31.203125 
z
" id="DejaVuSans-97"/>
      <path d="M 9.421875 75.984375 
L 18.40625 75.984375 
L 18.40625 0 
L 9.421875 0 
z
" id="DejaVuSans-108"/>
      <path d="M 8.5 21.578125 
L 8.5 54.6875 
L 17.484375 54.6875 
L 17.484375 21.921875 
Q 17.484375 14.15625 20.5 10.265625 
Q 23.53125 6.390625 29.59375 6.390625 
Q 36.859375 6.390625 41.078125 11.03125 
Q 45.3125 15.671875 45.3125 23.6875 
L 45.3125 54.6875 
L 54.296875 54.6875 
L 54.296875 0 
L 45.3125 0 
L 45.3125 8.40625 
Q 42.046875 3.421875 37.71875 1 
Q 33.40625 -1.421875 27.6875 -1.421875 
Q 18.265625 -1.421875 13.375 4.4375 
Q 8.5 10.296875 8.5 21.578125 
z
M 31.109375 56 
z
" id="DejaVuSans-117"/>
     </defs>
     <g transform="translate(96.861562 357.832125)scale(0.3 -0.3)">
      <use xlink:href="#DejaVuSans-67"/>
      <use x="69.824219" xlink:href="#DejaVuSans-111"/>
      <use x="131.005859" xlink:href="#DejaVuSans-109"/>
      <use x="228.417969" xlink:href="#DejaVuSans-112"/>
      <use x="291.894531" xlink:href="#DejaVuSans-114"/>
      <use x="332.976562" xlink:href="#DejaVuSans-101"/>
      <use x="394.5" xlink:href="#DejaVuSans-115"/>
      <use x="446.599609" xlink:href="#DejaVuSans-115"/>
      <use x="498.699219" xlink:href="#DejaVuSans-101"/>
      <use x="560.222656" xlink:href="#DejaVuSans-100"/>
      <use x="623.699219" xlink:href="#DejaVuSans-32"/>
      <use x="655.486328" xlink:href="#DejaVuSans-118"/>
      <use x="714.666016" xlink:href="#DejaVuSans-97"/>
      <use x="775.945312" xlink:href="#DejaVuSans-108"/>
      <use x="803.728516" xlink:href="#DejaVuSans-117"/>
      <use x="867.107422" xlink:href="#DejaVuSans-101"/>
     </g>
    </g>
   </g>
   <g id="matplotlib.axis_2">
    <g id="ytick_1">
     <g id="line2d_5">
      <defs>
       <path d="M 0 0 
L -3.5 0 
" id="m7ddadb8437" style="stroke:#000000;stroke-width:0.8;"/>
      </defs>
      <g>
       <use style="stroke:#000000;stroke-width:0.8;" x="57.6" xlink:href="#m7ddadb8437" y="307.584"/>
      </g>
     </g>
     <g id="text_6">
      <!-- 0.0 -->
      <defs>
       <path d="M 10.6875 12.40625 
L 21 12.40625 
L 21 0 
L 10.6875 0 
z
" id="DejaVuSans-46"/>
      </defs>
      <g transform="translate(23.564687 314.042672)scale(0.17 -0.17)">
       <use xlink:href="#DejaVuSans-48"/>
       <use x="63.623047" xlink:href="#DejaVuSans-46"/>
       <use x="95.410156" xlink:href="#DejaVuSans-48"/>
      </g>
     </g>
    </g>
    <g id="ytick_2">
     <g id="line2d_6">
      <g>
       <use style="stroke:#000000;stroke-width:0.8;" x="57.6" xlink:href="#m7ddadb8437" y="259.201399"/>
      </g>
     </g>
     <g id="text_7">
      <!-- 0.2 -->
      <g transform="translate(23.564687 265.660071)scale(0.17 -0.17)">
       <use xlink:href="#DejaVuSans-48"/>
       <use x="63.623047" xlink:href="#DejaVuSans-46"/>
       <use x="95.410156" xlink:href="#DejaVuSans-50"/>
      </g>
     </g>
    </g>
    <g id="ytick_3">
     <g id="line2d_7">
      <g>
       <use style="stroke:#000000;stroke-width:0.8;" x="57.6" xlink:href="#m7ddadb8437" y="210.818799"/>
      </g>
     </g>
     <g id="text_8">
      <!-- 0.4 -->
      <g transform="translate(23.564687 217.277471)scale(0.17 -0.17)">
       <use xlink:href="#DejaVuSans-48"/>
       <use x="63.623047" xlink:href="#DejaVuSans-46"/>
       <use x="95.410156" xlink:href="#DejaVuSans-52"/>
      </g>
     </g>
    </g>
    <g id="ytick_4">
     <g id="line2d_8">
      <g>
       <use style="stroke:#000000;stroke-width:0.8;" x="57.6" xlink:href="#m7ddadb8437" y="162.436198"/>
      </g>
     </g>
     <g id="text_9">
      <!-- 0.6 -->
      <defs>
       <path d="M 33.015625 40.375 
Q 26.375 40.375 22.484375 35.828125 
Q 18.609375 31.296875 18.609375 23.390625 
Q 18.609375 15.53125 22.484375 10.953125 
Q 26.375 6.390625 33.015625 6.390625 
Q 39.65625 6.390625 43.53125 10.953125 
Q 47.40625 15.53125 47.40625 23.390625 
Q 47.40625 31.296875 43.53125 35.828125 
Q 39.65625 40.375 33.015625 40.375 
z
M 52.59375 71.296875 
L 52.59375 62.3125 
Q 48.875 64.0625 45.09375 64.984375 
Q 41.3125 65.921875 37.59375 65.921875 
Q 27.828125 65.921875 22.671875 59.328125 
Q 17.53125 52.734375 16.796875 39.40625 
Q 19.671875 43.65625 24.015625 45.921875 
Q 28.375 48.1875 33.59375 48.1875 
Q 44.578125 48.1875 50.953125 41.515625 
Q 57.328125 34.859375 57.328125 23.390625 
Q 57.328125 12.15625 50.6875 5.359375 
Q 44.046875 -1.421875 33.015625 -1.421875 
Q 20.359375 -1.421875 13.671875 8.265625 
Q 6.984375 17.96875 6.984375 36.375 
Q 6.984375 53.65625 15.1875 63.9375 
Q 23.390625 74.21875 37.203125 74.21875 
Q 40.921875 74.21875 44.703125 73.484375 
Q 48.484375 72.75 52.59375 71.296875 
z
" id="DejaVuSans-54"/>
      </defs>
      <g transform="translate(23.564687 168.89487)scale(0.17 -0.17)">
       <use xlink:href="#DejaVuSans-48"/>
       <use x="63.623047" xlink:href="#DejaVuSans-46"/>
       <use x="95.410156" xlink:href="#DejaVuSans-54"/>
      </g>
     </g>
    </g>
    <g id="ytick_5">
     <g id="line2d_9">
      <g>
       <use style="stroke:#000000;stroke-width:0.8;" x="57.6" xlink:href="#m7ddadb8437" y="114.053598"/>
      </g>
     </g>
     <g id="text_10">
      <!-- 0.8 -->
      <defs>
       <path d="M 31.78125 34.625 
Q 24.75 34.625 20.71875 30.859375 
Q 16.703125 27.09375 16.703125 20.515625 
Q 16.703125 13.921875 20.71875 10.15625 
Q 24.75 6.390625 31.78125 6.390625 
Q 38.8125 6.390625 42.859375 10.171875 
Q 46.921875 13.96875 46.921875 20.515625 
Q 46.921875 27.09375 42.890625 30.859375 
Q 38.875 34.625 31.78125 34.625 
z
M 21.921875 38.8125 
Q 15.578125 40.375 12.03125 44.71875 
Q 8.5 49.078125 8.5 55.328125 
Q 8.5 64.0625 14.71875 69.140625 
Q 20.953125 74.21875 31.78125 74.21875 
Q 42.671875 74.21875 48.875 69.140625 
Q 55.078125 64.0625 55.078125 55.328125 
Q 55.078125 49.078125 51.53125 44.71875 
Q 48 40.375 41.703125 38.8125 
Q 48.828125 37.15625 52.796875 32.3125 
Q 56.78125 27.484375 56.78125 20.515625 
Q 56.78125 9.90625 50.3125 4.234375 
Q 43.84375 -1.421875 31.78125 -1.421875 
Q 19.734375 -1.421875 13.25 4.234375 
Q 6.78125 9.90625 6.78125 20.515625 
Q 6.78125 27.484375 10.78125 32.3125 
Q 14.796875 37.15625 21.921875 38.8125 
z
M 18.3125 54.390625 
Q 18.3125 48.734375 21.84375 45.5625 
Q 25.390625 42.390625 31.78125 42.390625 
Q 38.140625 42.390625 41.71875 45.5625 
Q 45.3125 48.734375 45.3125 54.390625 
Q 45.3125 60.0625 41.71875 63.234375 
Q 38.140625 66.40625 31.78125 66.40625 
Q 25.390625 66.40625 21.84375 63.234375 
Q 18.3125 60.0625 18.3125 54.390625 
z
" id="DejaVuSans-56"/>
      </defs>
      <g transform="translate(23.564687 120.51227)scale(0.17 -0.17)">
       <use xlink:href="#DejaVuSans-48"/>
       <use x="63.623047" xlink:href="#DejaVuSans-46"/>
       <use x="95.410156" xlink:href="#DejaVuSans-56"/>
      </g>
     </g>
    </g>
    <g id="ytick_6">
     <g id="line2d_10">
      <g>
       <use style="stroke:#000000;stroke-width:0.8;" x="57.6" xlink:href="#m7ddadb8437" y="65.670997"/>
      </g>
     </g>
     <g id="text_11">
      <!-- 1.0 -->
      <defs>
       <path d="M 12.40625 8.296875 
L 28.515625 8.296875 
L 28.515625 63.921875 
L 10.984375 60.40625 
L 10.984375 69.390625 
L 28.421875 72.90625 
L 38.28125 72.90625 
L 38.28125 8.296875 
L 54.390625 8.296875 
L 54.390625 0 
L 12.40625 0 
z
" id="DejaVuSans-49"/>
      </defs>
      <g transform="translate(23.564687 72.129669)scale(0.17 -0.17)">
       <use xlink:href="#DejaVuSans-49"/>
       <use x="63.623047" xlink:href="#DejaVuSans-46"/>
       <use x="95.410156" xlink:href="#DejaVuSans-48"/>
      </g>
     </g>
    </g>
    <g id="text_12">
     <!-- Density -->
     <defs>
      <path d="M 19.671875 64.796875 
L 19.671875 8.109375 
L 31.59375 8.109375 
Q 46.6875 8.109375 53.6875 14.9375 
Q 60.6875 21.78125 60.6875 36.53125 
Q 60.6875 51.171875 53.6875 57.984375 
Q 46.6875 64.796875 31.59375 64.796875 
z
M 9.8125 72.90625 
L 30.078125 72.90625 
Q 51.265625 72.90625 61.171875 64.09375 
Q 71.09375 55.28125 71.09375 36.53125 
Q 71.09375 17.671875 61.125 8.828125 
Q 51.171875 0 30.078125 0 
L 9.8125 0 
z
" id="DejaVuSans-68"/>
      <path d="M 54.890625 33.015625 
L 54.890625 0 
L 45.90625 0 
L 45.90625 32.71875 
Q 45.90625 40.484375 42.875 44.328125 
Q 39.84375 48.1875 33.796875 48.1875 
Q 26.515625 48.1875 22.3125 43.546875 
Q 18.109375 38.921875 18.109375 30.90625 
L 18.109375 0 
L 9.078125 0 
L 9.078125 54.6875 
L 18.109375 54.6875 
L 18.109375 46.1875 
Q 21.34375 51.125 25.703125 53.5625 
Q 30.078125 56 35.796875 56 
Q 45.21875 56 50.046875 50.171875 
Q 54.890625 44.34375 54.890625 33.015625 
z
" id="DejaVuSans-110"/>
      <path d="M 9.421875 54.6875 
L 18.40625 54.6875 
L 18.40625 0 
L 9.421875 0 
z
M 9.421875 75.984375 
L 18.40625 75.984375 
L 18.40625 64.59375 
L 9.421875 64.59375 
z
" id="DejaVuSans-105"/>
      <path d="M 18.3125 70.21875 
L 18.3125 54.6875 
L 36.8125 54.6875 
L 36.8125 47.703125 
L 18.3125 47.703125 
L 18.3125 18.015625 
Q 18.3125 11.328125 20.140625 9.421875 
Q 21.96875 7.515625 27.59375 7.515625 
L 36.8125 7.515625 
L 36.8125 0 
L 27.59375 0 
Q 17.1875 0 13.234375 3.875 
Q 9.28125 7.765625 9.28125 18.015625 
L 9.28125 47.703125 
L 2.6875 47.703125 
L 2.6875 54.6875 
L 9.28125 54.6875 
L 9.28125 70.21875 
z
" id="DejaVuSans-116"/>
      <path d="M 32.171875 -5.078125 
Q 28.375 -14.84375 24.75 -17.8125 
Q 21.140625 -20.796875 15.09375 -20.796875 
L 7.90625 -20.796875 
L 7.90625 -13.28125 
L 13.1875 -13.28125 
Q 16.890625 -13.28125 18.9375 -11.515625 
Q 21 -9.765625 23.484375 -3.21875 
L 25.09375 0.875 
L 2.984375 54.6875 
L 12.5 54.6875 
L 29.59375 11.921875 
L 46.6875 54.6875 
L 56.203125 54.6875 
z
" id="DejaVuSans-121"/>
     </defs>
     <g transform="translate(13.325625 231.553781)rotate(-90)scale(0.3 -0.3)">
      <use xlink:href="#DejaVuSans-68"/>
      <use x="77.001953" xlink:href="#DejaVuSans-101"/>
      <use x="138.525391" xlink:href="#DejaVuSans-110"/>
      <use x="201.904297" xlink:href="#DejaVuSans-115"/>
      <use x="254.003906" xlink:href="#DejaVuSans-105"/>
      <use x="281.787109" xlink:href="#DejaVuSans-116"/>
      <use x="320.996094" xlink:href="#DejaVuSans-121"/>
     </g>
    </g>
   </g>
   <g id="line2d_11">
    <path clip-path="url(#p3e4c3c89e8)" d="M 76.496227 307.545793 
L 78.02363 307.51204 
L 79.281562 307.545947 
L 80.702022 307.507652 
L 81.677191 307.532156 
L 83.591882 307.407026 
L 84.398482 307.523889 
L 85.612307 307.463515 
L 86.803174 307.343767 
L 88.337223 307.359023 
L 89.058631 307.272894 
L 90.02655 307.168129 
L 90.74252 307.027887 
L 91.300191 306.984783 
L 93.025769 307.189316 
L 94.406353 306.776704 
L 95.356146 306.476898 
L 95.97907 306.244336 
L 96.8189 305.852899 
L 97.227335 305.984327 
L 98.044205 306.294167 
L 98.374699 306.105642 
L 99.261052 305.493472 
L 100.086381 305.217382 
L 100.52986 305.104729 
L 101.022278 305.28619 
L 101.364252 305.274962 
L 101.77027 304.986419 
L 102.21254 304.771986 
L 102.912197 304.593872 
L 103.271088 304.083611 
L 104.034186 302.975274 
L 104.367096 302.89856 
L 105.040169 302.829728 
L 105.398456 302.463847 
L 106.136177 301.673911 
L 106.502318 301.666031 
L 106.916796 301.612634 
L 107.226747 301.2989 
L 108.371091 299.918779 
L 108.795839 299.853387 
L 109.197024 299.732466 
L 109.524497 299.351815 
L 110.372182 298.261664 
L 110.741948 298.23786 
L 111.098423 298.15076 
L 111.37454 297.806197 
L 111.873604 296.723986 
L 112.93336 294.52474 
L 113.247541 294.348864 
L 114.016076 294.159795 
L 114.324819 293.547044 
L 115.464329 291.019101 
L 116.44977 289.636363 
L 117.582634 287.676755 
L 118.082302 286.740679 
L 119.262294 284.172145 
L 119.842924 283.556817 
L 120.269485 282.592341 
L 121.031374 280.277201 
L 121.931623 277.428575 
L 122.315891 277.00185 
L 122.655448 276.557696 
L 122.975066 275.679832 
L 125.043827 268.950877 
L 125.376738 268.576943 
L 125.81357 268.183994 
L 126.148898 267.389645 
L 126.524102 266.702211 
L 126.696298 266.742907 
L 126.972414 267.139203 
L 127.261219 267.385069 
L 127.424352 267.24647 
L 127.667842 266.670539 
L 128.450877 264.646327 
L 128.70041 264.611832 
L 128.986193 264.545254 
L 129.178931 264.19445 
L 129.453235 263.138517 
L 130.578245 258.229008 
L 130.799984 258.165662 
L 131.153438 258.127459 
L 131.344363 257.755404 
L 131.667607 256.51329 
L 132.240987 254.488368 
L 132.698966 253.719484 
L 134.554446 251.420612 
L 134.813645 251.236379 
L 135.068011 250.711271 
L 135.916904 248.724175 
L 136.425031 248.424229 
L 136.96941 248.272326 
L 137.240693 248.107508 
L 137.489017 247.631491 
L 138.211633 246.082674 
L 138.440623 246.123005 
L 138.940895 246.268084 
L 139.159614 246.022786 
L 139.468357 245.275005 
L 140.306978 242.403726 
L 140.99878 240.382768 
L 141.254355 240.177377 
L 141.448905 240.29844 
L 142.030744 240.778006 
L 142.207169 240.492878 
L 142.483285 239.532116 
L 143.309219 236.4585 
L 143.596211 236.22691 
L 143.894683 235.985752 
L 144.118235 235.415063 
L 144.448125 233.839383 
L 145.51211 228.370818 
L 145.709078 228.278099 
L 145.940484 228.489934 
L 146.233518 228.650395 
L 146.40813 228.473167 
L 146.667329 227.818414 
L 147.650353 225.023103 
L 147.861217 225.059934 
L 148.211045 225.132662 
L 148.379616 224.850301 
L 148.627335 223.904602 
L 149.510667 220.151372 
L 149.766845 219.93357 
L 149.972271 220.03881 
L 150.654406 220.542699 
L 151.401794 220.413206 
L 151.671869 220.883497 
L 152.395694 222.250436 
L 152.538283 222.105246 
L 152.740689 221.498495 
L 153.723108 217.967579 
L 153.892887 218.070922 
L 154.127918 218.536553 
L 155.02273 220.609848 
L 155.026959 220.608182 
L 155.2058 220.414102 
L 155.918145 219.427731 
L 155.922375 219.430316 
L 156.192449 219.730531 
L 156.408147 219.806949 
L 156.551341 219.562408 
L 156.776705 218.628247 
L 157.338606 216.248129 
L 157.473341 216.275392 
L 157.475153 216.277582 
L 157.644328 216.659607 
L 157.984489 218.104396 
L 158.717981 221.17717 
L 158.911927 221.276909 
L 159.075664 221.063264 
L 159.392261 220.182243 
L 159.813385 219.218157 
L 159.957183 219.261628 
L 160.119711 219.641436 
L 160.413954 221.03422 
L 160.850786 222.811341 
L 161.013918 222.874832 
L 161.021773 222.869281 
L 161.198197 222.597055 
L 161.63503 221.933759 
L 161.783057 222.066552 
L 162.022922 222.668662 
L 162.627117 224.205787 
L 162.793874 224.18703 
L 162.966674 223.8668 
L 163.257291 222.751749 
L 163.838526 220.607819 
L 164.456012 219.584643 
L 164.707357 219.414462 
L 164.852363 219.594162 
L 165.071082 220.310192 
L 165.749592 222.720572 
L 165.932662 222.722877 
L 166.245635 222.393958 
L 166.612985 222.160386 
L 166.950125 221.950576 
L 167.16401 221.45865 
L 167.44496 220.150437 
L 168.392337 215.227205 
L 168.617097 215.103186 
L 169.104681 215.036014 
L 169.339713 214.5599 
L 169.962637 212.557813 
L 170.351134 210.787322 
L 170.831468 207.284319 
L 171.522666 200.646269 
L 172.384247 190.025783 
L 172.888749 180.130323 
L 173.767247 157.824856 
L 176.384012 87.138781 
L 177.087294 73.371611 
L 177.707197 64.690569 
L 177.985731 63.211557 
L 178.067297 63.173225 
L 178.10959 63.223733 
L 178.243117 63.683255 
L 178.479961 65.457032 
L 178.931898 70.859768 
L 179.443651 79.445531 
L 180.006156 93.434365 
L 181.030265 118.412325 
L 181.511203 125.248699 
L 181.85801 127.569247 
L 182.015101 127.816107 
L 182.04229 127.798267 
L 182.149836 127.531008 
L 182.321427 126.379704 
L 182.568543 122.963392 
L 182.944351 114.134635 
L 184.509214 74.066224 
L 185.133347 64.869796 
L 185.923028 56.105436 
L 186.259564 54.247822 
L 186.373757 54.148509 
L 186.411217 54.182035 
L 186.539911 54.539188 
L 186.771317 55.979212 
L 187.301799 61.069179 
L 187.728965 66.951376 
L 188.188152 77.008344 
L 189.884125 116.803237 
L 190.971674 138.296347 
L 191.369838 141.411557 
L 191.901529 145.481006 
L 192.956452 156.183732 
L 193.502643 161.110485 
L 193.936455 163.048875 
L 194.372079 164.150789 
L 194.586568 164.244915 
L 194.75695 164.048768 
L 194.99319 163.374248 
L 195.297704 161.749892 
L 195.675325 158.371923 
L 196.250518 150.877779 
L 197.638956 131.384183 
L 197.694542 131.49974 
L 197.80088 132.423222 
L 197.968242 136.199071 
L 198.203878 147.402759 
L 198.578478 177.972647 
L 199.186901 224.280859 
L 199.505312 233.742265 
L 199.776595 236.376598 
L 200.032773 237.060715 
L 200.703429 237.789178 
L 200.974108 237.897094 
L 201.155366 237.710375 
L 201.447796 236.998522 
L 201.824813 236.269857 
L 201.984924 236.319553 
L 202.209684 236.711552 
L 202.710561 237.551139 
L 203.3788 238.100931 
L 203.687543 239.111344 
L 204.603501 242.335963 
L 204.91164 242.642256 
L 205.148485 242.596787 
L 205.964147 242.210185 
L 206.188303 242.573297 
L 206.46744 243.514536 
L 206.900043 245.915961 
L 207.913277 251.573978 
L 208.219603 252.165083 
L 208.532576 252.300535 
L 208.887842 252.50539 
L 209.343404 253.125708 
L 210.180213 254.513934 
L 210.661756 256.172494 
L 211.616987 259.490524 
L 211.857456 259.60947 
L 212.49911 259.66075 
L 212.799999 260.184051 
L 213.638016 261.724855 
L 214.427093 262.630269 
L 215.390179 263.342867 
L 215.711006 264.193733 
L 216.172006 266.162485 
L 216.740553 268.339057 
L 217.007002 268.633484 
L 217.590049 268.931295 
L 217.843207 269.668956 
L 218.317499 271.923605 
L 218.760978 273.55602 
L 218.996009 273.767167 
L 219.197206 273.649309 
L 219.786899 273.21557 
L 220.005617 273.396148 
L 220.859948 274.33983 
L 221.166274 274.030755 
L 221.554771 273.747093 
L 221.801282 273.838396 
L 222.244157 274.323417 
L 222.617548 274.566412 
L 222.912999 274.485854 
L 223.36977 274.369265 
L 223.674888 274.591466 
L 224.205975 274.944518 
L 224.727998 275.243408 
L 225.976868 276.227986 
L 226.727881 276.119608 
L 227.19734 276.110672 
L 227.935665 275.932379 
L 228.22024 276.26245 
L 229.028048 277.316243 
L 229.267913 277.221679 
L 230.045511 276.750924 
L 230.340962 276.999439 
L 230.888361 277.443296 
L 231.469596 277.698223 
L 231.7439 278.278677 
L 232.395222 279.726014 
L 232.593397 279.703449 
L 232.870118 279.382393 
L 233.480958 278.28324 
L 233.934104 276.884997 
L 234.318371 276.002632 
L 234.496609 275.998083 
L 234.689951 276.286713 
L 235.633098 278.020708 
L 235.850003 277.90617 
L 236.148475 277.442363 
L 236.590745 276.831759 
L 236.742398 276.935841 
L 236.944199 277.424202 
L 237.816655 280.047174 
L 237.848678 280.031853 
L 238.013018 279.792687 
L 238.375535 278.735992 
L 238.740468 277.996763 
L 238.960395 277.95392 
L 239.205093 278.172696 
L 239.608695 278.883329 
L 240.293851 280.05786 
L 240.574197 280.131005 
L 240.924025 279.951688 
L 241.324606 279.822156 
L 241.586826 279.994476 
L 243.057435 281.369909 
L 243.325697 281.229689 
L 244.575775 279.991554 
L 245.154593 279.088425 
L 245.331017 279.175872 
L 245.591425 279.628957 
L 246.297124 280.889012 
L 247.182268 281.913542 
L 247.403403 281.783408 
L 248.144749 281.175104 
L 248.410595 281.431572 
L 249.158587 282.218381 
L 249.489081 282.247957 
L 249.739822 282.040672 
L 250.042523 281.446459 
L 250.573609 280.435596 
L 250.735533 280.502436 
L 250.95546 280.913987 
L 251.740308 282.54815 
L 252.828462 283.952799 
L 253.314234 284.562369 
L 253.883385 284.815117 
L 254.806593 285.183155 
L 255.334055 285.188447 
L 255.648236 285.510599 
L 256.169655 286.011285 
L 256.448189 285.957653 
L 257.071113 285.775407 
L 257.484986 285.696813 
L 257.784666 285.338639 
L 258.242645 284.842012 
L 258.422091 284.94681 
L 258.660143 285.409531 
L 259.52112 287.310827 
L 260.192379 287.896737 
L 260.863639 288.856052 
L 261.122234 288.817144 
L 262.105258 288.435486 
L 262.852646 288.807257 
L 263.08949 288.405051 
L 263.653203 287.413642 
L 263.814523 287.510988 
L 264.045325 287.985718 
L 264.856154 289.847076 
L 265.198128 289.959219 
L 265.503246 290.144295 
L 265.903222 290.743015 
L 266.268759 291.104149 
L 266.563606 291.081676 
L 267.610675 290.631339 
L 268.188284 290.168619 
L 268.474672 290.248937 
L 268.850481 290.616329 
L 269.70179 291.523127 
L 270.26067 291.927432 
L 270.858822 292.353743 
L 271.798344 292.849526 
L 272.185632 293.41978 
L 272.713698 294.146398 
L 272.905227 294.081822 
L 273.177719 293.680465 
L 273.571654 293.208015 
L 273.753516 293.291589 
L 274.00184 293.717353 
L 274.806626 295.23748 
L 275.075493 295.256823 
L 275.544347 295.249165 
L 275.909885 295.598353 
L 276.256088 295.791372 
L 276.530392 295.675389 
L 277.220986 295.307699 
L 277.538792 295.470988 
L 278.208843 295.847054 
L 278.714554 296.062671 
L 279.253495 296.67337 
L 279.687306 296.978116 
L 280.395422 297.340151 
L 280.855818 297.614193 
L 281.15006 297.492404 
L 281.608039 297.329776 
L 281.979619 297.492656 
L 283.308846 298.184105 
L 284.085235 298.03044 
L 284.563757 298.445497 
L 285.102094 298.774293 
L 285.975758 299.16567 
L 287.067537 300.193187 
L 287.330966 299.970904 
L 288.15992 299.132459 
L 288.442079 299.228154 
L 288.873473 299.665552 
L 289.358641 300.047173 
L 289.718137 300.035183 
L 290.489692 299.963481 
L 291.209892 300.077343 
L 291.541594 300.482587 
L 292.199562 301.295998 
L 292.505888 301.312957 
L 293.46414 301.176706 
L 294.645944 301.405407 
L 295.428375 302.063528 
L 295.823518 301.953801 
L 296.236787 301.935304 
L 296.744914 302.18056 
L 298.070516 302.960728 
L 298.718816 303.163156 
L 299.278904 303.22467 
L 299.919954 303.060043 
L 300.478833 302.957267 
L 300.82262 303.158985 
L 301.832228 303.881005 
L 302.380836 303.922666 
L 302.992885 303.750061 
L 303.767462 303.470464 
L 304.126957 303.688013 
L 304.874346 304.164741 
L 305.277343 304.087913 
L 305.769761 304.053464 
L 307.490506 304.467552 
L 308.216143 304.623965 
L 309.424531 304.855502 
L 310.714486 304.966731 
L 311.613526 304.992414 
L 312.475107 305.204068 
L 313.178389 305.228875 
L 313.719747 305.628786 
L 314.217603 305.855044 
L 314.821193 305.846356 
L 316.073083 305.807044 
L 316.59269 305.788074 
L 317.475418 305.622395 
L 318.411918 305.762239 
L 319.245102 305.833037 
L 319.828149 306.158856 
L 320.553182 306.499591 
L 320.590038 306.504937 
L 320.590038 306.504937 
" style="fill:none;stroke:#ff7f0e;stroke-linecap:square;stroke-width:1.5;"/>
   </g>
   <g id="patch_103">
    <path d="M 57.6 307.584 
L 57.6 41.472 
" style="fill:none;stroke:#000000;stroke-linecap:square;stroke-linejoin:miter;stroke-width:0.8;"/>
   </g>
   <g id="patch_104">
    <path d="M 414.72 307.584 
L 414.72 41.472 
" style="fill:none;stroke:#000000;stroke-linecap:square;stroke-linejoin:miter;stroke-width:0.8;"/>
   </g>
   <g id="patch_105">
    <path d="M 57.6 307.584 
L 414.72 307.584 
" style="fill:none;stroke:#000000;stroke-linecap:square;stroke-linejoin:miter;stroke-width:0.8;"/>
   </g>
   <g id="patch_106">
    <path d="M 57.6 41.472 
L 414.72 41.472 
" style="fill:none;stroke:#000000;stroke-linecap:square;stroke-linejoin:miter;stroke-width:0.8;"/>
   </g>
  </g>
 </g>
 <defs>
  <clipPath id="p3e4c3c89e8">
   <rect height="266.112" width="357.12" x="57.6" y="41.472"/>
  </clipPath>
 </defs>
</svg>
