<?xml version="1.0" encoding="utf-8" standalone="no"?>
<!DOCTYPE svg PUBLIC "-//W3C//DTD SVG 1.1//EN"
  "http://www.w3.org/Graphics/SVG/1.1/DTD/svg11.dtd">
<!-- Created with matplotlib (https://matplotlib.org/) -->
<svg height="345.6pt" version="1.1" viewBox="0 0 460.8 345.6" width="460.8pt" xmlns="http://www.w3.org/2000/svg" xmlns:xlink="http://www.w3.org/1999/xlink">
 <defs>
  <style type="text/css">
*{stroke-linecap:butt;stroke-linejoin:round;}
  </style>
 </defs>
 <g id="figure_1">
  <g id="patch_1">
   <path d="M 0 345.6 
L 460.8 345.6 
L 460.8 0 
L 0 0 
z
" style="fill:#ffffff;"/>
  </g>
  <g id="axes_1">
   <g id="patch_2">
    <path d="M 57.6 307.584 
L 414.72 307.584 
L 414.72 41.472 
L 57.6 41.472 
z
" style="fill:#ffffff;"/>
   </g>
   <g id="patch_3">
    <path clip-path="url(#p55bea07505)" d="M 109.448395 307.584 
L 112.20852 307.584 
L 112.20852 307.532266 
L 109.448395 307.532266 
z
" style="fill:#1f77b4;"/>
   </g>
   <g id="patch_4">
    <path clip-path="url(#p55bea07505)" d="M 112.20852 307.584 
L 114.968646 307.584 
L 114.968646 307.532266 
L 112.20852 307.532266 
z
" style="fill:#1f77b4;"/>
   </g>
   <g id="patch_5">
    <path clip-path="url(#p55bea07505)" d="M 114.968646 307.584 
L 117.728771 307.584 
L 117.728771 307.584 
L 114.968646 307.584 
z
" style="fill:#1f77b4;"/>
   </g>
   <g id="patch_6">
    <path clip-path="url(#p55bea07505)" d="M 117.728771 307.584 
L 120.488897 307.584 
L 120.488897 307.584 
L 117.728771 307.584 
z
" style="fill:#1f77b4;"/>
   </g>
   <g id="patch_7">
    <path clip-path="url(#p55bea07505)" d="M 120.488897 307.584 
L 123.249022 307.584 
L 123.249022 307.480531 
L 120.488897 307.480531 
z
" style="fill:#1f77b4;"/>
   </g>
   <g id="patch_8">
    <path clip-path="url(#p55bea07505)" d="M 123.249022 307.584 
L 126.009147 307.584 
L 126.009147 307.273594 
L 123.249022 307.273594 
z
" style="fill:#1f77b4;"/>
   </g>
   <g id="patch_9">
    <path clip-path="url(#p55bea07505)" d="M 126.009147 307.584 
L 128.769273 307.584 
L 128.769273 307.118391 
L 126.009147 307.118391 
z
" style="fill:#1f77b4;"/>
   </g>
   <g id="patch_10">
    <path clip-path="url(#p55bea07505)" d="M 128.769273 307.584 
L 131.529398 307.584 
L 131.529398 306.601048 
L 128.769273 306.601048 
z
" style="fill:#1f77b4;"/>
   </g>
   <g id="patch_11">
    <path clip-path="url(#p55bea07505)" d="M 131.529398 307.584 
L 134.289523 307.584 
L 134.289523 306.238908 
L 131.529398 306.238908 
z
" style="fill:#1f77b4;"/>
   </g>
   <g id="patch_12">
    <path clip-path="url(#p55bea07505)" d="M 134.289523 307.584 
L 137.049649 307.584 
L 137.049649 305.204221 
L 134.289523 305.204221 
z
" style="fill:#1f77b4;"/>
   </g>
   <g id="patch_13">
    <path clip-path="url(#p55bea07505)" d="M 137.049649 307.584 
L 139.809774 307.584 
L 139.809774 303.600457 
L 137.049649 303.600457 
z
" style="fill:#1f77b4;"/>
   </g>
   <g id="patch_14">
    <path clip-path="url(#p55bea07505)" d="M 139.809774 307.584 
L 142.5699 307.584 
L 142.5699 301.738021 
L 139.809774 301.738021 
z
" style="fill:#1f77b4;"/>
   </g>
   <g id="patch_15">
    <path clip-path="url(#p55bea07505)" d="M 142.5699 307.584 
L 145.330025 307.584 
L 145.330025 299.616914 
L 142.5699 299.616914 
z
" style="fill:#1f77b4;"/>
   </g>
   <g id="patch_16">
    <path clip-path="url(#p55bea07505)" d="M 145.330025 307.584 
L 148.09015 307.584 
L 148.09015 296.512855 
L 145.330025 296.512855 
z
" style="fill:#1f77b4;"/>
   </g>
   <g id="patch_17">
    <path clip-path="url(#p55bea07505)" d="M 148.09015 307.584 
L 150.850276 307.584 
L 150.850276 290.666876 
L 148.09015 290.666876 
z
" style="fill:#1f77b4;"/>
   </g>
   <g id="patch_18">
    <path clip-path="url(#p55bea07505)" d="M 150.850276 307.584 
L 153.610401 307.584 
L 153.610401 285.079569 
L 150.850276 285.079569 
z
" style="fill:#1f77b4;"/>
   </g>
   <g id="patch_19">
    <path clip-path="url(#p55bea07505)" d="M 153.610401 307.584 
L 156.370526 307.584 
L 156.370526 280.837355 
L 153.610401 280.837355 
z
" style="fill:#1f77b4;"/>
   </g>
   <g id="patch_20">
    <path clip-path="url(#p55bea07505)" d="M 156.370526 307.584 
L 159.130652 307.584 
L 159.130652 274.163627 
L 156.370526 274.163627 
z
" style="fill:#1f77b4;"/>
   </g>
   <g id="patch_21">
    <path clip-path="url(#p55bea07505)" d="M 159.130652 307.584 
L 161.890777 307.584 
L 161.890777 268.731523 
L 159.130652 268.731523 
z
" style="fill:#1f77b4;"/>
   </g>
   <g id="patch_22">
    <path clip-path="url(#p55bea07505)" d="M 161.890777 307.584 
L 164.650903 307.584 
L 164.650903 257.608643 
L 161.890777 257.608643 
z
" style="fill:#1f77b4;"/>
   </g>
   <g id="patch_23">
    <path clip-path="url(#p55bea07505)" d="M 164.650903 307.584 
L 167.411028 307.584 
L 167.411028 247.106575 
L 164.650903 247.106575 
z
" style="fill:#1f77b4;"/>
   </g>
   <g id="patch_24">
    <path clip-path="url(#p55bea07505)" d="M 167.411028 307.584 
L 170.171153 307.584 
L 170.171153 230.189451 
L 167.411028 230.189451 
z
" style="fill:#1f77b4;"/>
   </g>
   <g id="patch_25">
    <path clip-path="url(#p55bea07505)" d="M 170.171153 307.584 
L 172.931279 307.584 
L 172.931279 221.032476 
L 170.171153 221.032476 
z
" style="fill:#1f77b4;"/>
   </g>
   <g id="patch_26">
    <path clip-path="url(#p55bea07505)" d="M 172.931279 307.584 
L 175.691404 307.584 
L 175.691404 202.977197 
L 172.931279 202.977197 
z
" style="fill:#1f77b4;"/>
   </g>
   <g id="patch_27">
    <path clip-path="url(#p55bea07505)" d="M 175.691404 307.584 
L 178.45153 307.584 
L 178.45153 193.095941 
L 175.691404 193.095941 
z
" style="fill:#1f77b4;"/>
   </g>
   <g id="patch_28">
    <path clip-path="url(#p55bea07505)" d="M 178.45153 307.584 
L 181.211655 307.584 
L 181.211655 186.577416 
L 178.45153 186.577416 
z
" style="fill:#1f77b4;"/>
   </g>
   <g id="patch_29">
    <path clip-path="url(#p55bea07505)" d="M 181.211655 307.584 
L 183.97178 307.584 
L 183.97178 184.559778 
L 181.211655 184.559778 
z
" style="fill:#1f77b4;"/>
   </g>
   <g id="patch_30">
    <path clip-path="url(#p55bea07505)" d="M 183.97178 307.584 
L 186.731906 307.584 
L 186.731906 174.626787 
L 183.97178 174.626787 
z
" style="fill:#1f77b4;"/>
   </g>
   <g id="patch_31">
    <path clip-path="url(#p55bea07505)" d="M 186.731906 307.584 
L 189.492031 307.584 
L 189.492031 177.161769 
L 186.731906 177.161769 
z
" style="fill:#1f77b4;"/>
   </g>
   <g id="patch_32">
    <path clip-path="url(#p55bea07505)" d="M 189.492031 307.584 
L 192.252156 307.584 
L 192.252156 173.436898 
L 189.492031 173.436898 
z
" style="fill:#1f77b4;"/>
   </g>
   <g id="patch_33">
    <path clip-path="url(#p55bea07505)" d="M 192.252156 307.584 
L 195.012282 307.584 
L 195.012282 162.107081 
L 192.252156 162.107081 
z
" style="fill:#1f77b4;"/>
   </g>
   <g id="patch_34">
    <path clip-path="url(#p55bea07505)" d="M 195.012282 307.584 
L 197.772407 307.584 
L 197.772407 149.897781 
L 195.012282 149.897781 
z
" style="fill:#1f77b4;"/>
   </g>
   <g id="patch_35">
    <path clip-path="url(#p55bea07505)" d="M 197.772407 307.584 
L 200.532533 307.584 
L 200.532533 136.705528 
L 197.772407 136.705528 
z
" style="fill:#1f77b4;"/>
   </g>
   <g id="patch_36">
    <path clip-path="url(#p55bea07505)" d="M 200.532533 307.584 
L 203.292658 307.584 
L 203.292658 117.460359 
L 200.532533 117.460359 
z
" style="fill:#1f77b4;"/>
   </g>
   <g id="patch_37">
    <path clip-path="url(#p55bea07505)" d="M 203.292658 307.584 
L 206.052783 307.584 
L 206.052783 103.492092 
L 203.292658 103.492092 
z
" style="fill:#1f77b4;"/>
   </g>
   <g id="patch_38">
    <path clip-path="url(#p55bea07505)" d="M 206.052783 307.584 
L 208.812909 307.584 
L 208.812909 90.299839 
L 206.052783 90.299839 
z
" style="fill:#1f77b4;"/>
   </g>
   <g id="patch_39">
    <path clip-path="url(#p55bea07505)" d="M 208.812909 307.584 
L 211.573034 307.584 
L 211.573034 72.710169 
L 208.812909 72.710169 
z
" style="fill:#1f77b4;"/>
   </g>
   <g id="patch_40">
    <path clip-path="url(#p55bea07505)" d="M 211.573034 307.584 
L 214.333159 307.584 
L 214.333159 59.104042 
L 211.573034 59.104042 
z
" style="fill:#1f77b4;"/>
   </g>
   <g id="patch_41">
    <path clip-path="url(#p55bea07505)" d="M 214.333159 307.584 
L 217.093285 307.584 
L 217.093285 59.880057 
L 214.333159 59.880057 
z
" style="fill:#1f77b4;"/>
   </g>
   <g id="patch_42">
    <path clip-path="url(#p55bea07505)" d="M 217.093285 307.584 
L 219.85341 307.584 
L 219.85341 71.52028 
L 217.093285 71.52028 
z
" style="fill:#1f77b4;"/>
   </g>
   <g id="patch_43">
    <path clip-path="url(#p55bea07505)" d="M 219.85341 307.584 
L 222.613536 307.584 
L 222.613536 103.647295 
L 219.85341 103.647295 
z
" style="fill:#1f77b4;"/>
   </g>
   <g id="patch_44">
    <path clip-path="url(#p55bea07505)" d="M 222.613536 307.584 
L 225.373661 307.584 
L 225.373661 134.377483 
L 222.613536 134.377483 
z
" style="fill:#1f77b4;"/>
   </g>
   <g id="patch_45">
    <path clip-path="url(#p55bea07505)" d="M 225.373661 307.584 
L 228.133786 307.584 
L 228.133786 171.419259 
L 225.373661 171.419259 
z
" style="fill:#1f77b4;"/>
   </g>
   <g id="patch_46">
    <path clip-path="url(#p55bea07505)" d="M 228.133786 307.584 
L 230.893912 307.584 
L 230.893912 197.079484 
L 228.133786 197.079484 
z
" style="fill:#1f77b4;"/>
   </g>
   <g id="patch_47">
    <path clip-path="url(#p55bea07505)" d="M 230.893912 307.584 
L 233.654037 307.584 
L 233.654037 209.392253 
L 230.893912 209.392253 
z
" style="fill:#1f77b4;"/>
   </g>
   <g id="patch_48">
    <path clip-path="url(#p55bea07505)" d="M 233.654037 307.584 
L 236.414162 307.584 
L 236.414162 229.775577 
L 233.654037 229.775577 
z
" style="fill:#1f77b4;"/>
   </g>
   <g id="patch_49">
    <path clip-path="url(#p55bea07505)" d="M 236.414162 307.584 
L 239.174288 307.584 
L 239.174288 263.920231 
L 236.414162 263.920231 
z
" style="fill:#1f77b4;"/>
   </g>
   <g id="patch_50">
    <path clip-path="url(#p55bea07505)" d="M 239.174288 307.584 
L 241.934413 307.584 
L 241.934413 265.937869 
L 239.174288 265.937869 
z
" style="fill:#1f77b4;"/>
   </g>
   <g id="patch_51">
    <path clip-path="url(#p55bea07505)" d="M 241.934413 307.584 
L 244.694539 307.584 
L 244.694539 267.438165 
L 241.934413 267.438165 
z
" style="fill:#1f77b4;"/>
   </g>
   <g id="patch_52">
    <path clip-path="url(#p55bea07505)" d="M 244.694539 307.584 
L 247.454664 307.584 
L 247.454664 266.972556 
L 244.694539 266.972556 
z
" style="fill:#1f77b4;"/>
   </g>
   <g id="patch_53">
    <path clip-path="url(#p55bea07505)" d="M 247.454664 307.584 
L 250.214789 307.584 
L 250.214789 268.524585 
L 247.454664 268.524585 
z
" style="fill:#1f77b4;"/>
   </g>
   <g id="patch_54">
    <path clip-path="url(#p55bea07505)" d="M 250.214789 307.584 
L 252.974915 307.584 
L 252.974915 266.765618 
L 250.214789 266.765618 
z
" style="fill:#1f77b4;"/>
   </g>
   <g id="patch_55">
    <path clip-path="url(#p55bea07505)" d="M 252.974915 307.584 
L 255.73504 307.584 
L 255.73504 265.782666 
L 252.974915 265.782666 
z
" style="fill:#1f77b4;"/>
   </g>
   <g id="patch_56">
    <path clip-path="url(#p55bea07505)" d="M 255.73504 307.584 
L 258.495165 307.584 
L 258.495165 263.920231 
L 255.73504 263.920231 
z
" style="fill:#1f77b4;"/>
   </g>
   <g id="patch_57">
    <path clip-path="url(#p55bea07505)" d="M 258.495165 307.584 
L 261.255291 307.584 
L 261.255291 263.454622 
L 258.495165 263.454622 
z
" style="fill:#1f77b4;"/>
   </g>
   <g id="patch_58">
    <path clip-path="url(#p55bea07505)" d="M 261.255291 307.584 
L 264.015416 307.584 
L 264.015416 265.886135 
L 261.255291 265.886135 
z
" style="fill:#1f77b4;"/>
   </g>
   <g id="patch_59">
    <path clip-path="url(#p55bea07505)" d="M 264.015416 307.584 
L 266.775542 307.584 
L 266.775542 265.937869 
L 264.015416 265.937869 
z
" style="fill:#1f77b4;"/>
   </g>
   <g id="patch_60">
    <path clip-path="url(#p55bea07505)" d="M 266.775542 307.584 
L 269.535667 307.584 
L 269.535667 265.213589 
L 266.775542 265.213589 
z
" style="fill:#1f77b4;"/>
   </g>
   <g id="patch_61">
    <path clip-path="url(#p55bea07505)" d="M 269.535667 307.584 
L 272.295792 307.584 
L 272.295792 269.611006 
L 269.535667 269.611006 
z
" style="fill:#1f77b4;"/>
   </g>
   <g id="patch_62">
    <path clip-path="url(#p55bea07505)" d="M 272.295792 307.584 
L 275.055918 307.584 
L 275.055918 270.697427 
L 272.295792 270.697427 
z
" style="fill:#1f77b4;"/>
   </g>
   <g id="patch_63">
    <path clip-path="url(#p55bea07505)" d="M 275.055918 307.584 
L 277.816043 307.584 
L 277.816043 270.542224 
L 275.055918 270.542224 
z
" style="fill:#1f77b4;"/>
   </g>
   <g id="patch_64">
    <path clip-path="url(#p55bea07505)" d="M 277.816043 307.584 
L 280.576168 307.584 
L 280.576168 274.732704 
L 277.816043 274.732704 
z
" style="fill:#1f77b4;"/>
   </g>
   <g id="patch_65">
    <path clip-path="url(#p55bea07505)" d="M 280.576168 307.584 
L 283.336294 307.584 
L 283.336294 273.387612 
L 280.576168 273.387612 
z
" style="fill:#1f77b4;"/>
   </g>
   <g id="patch_66">
    <path clip-path="url(#p55bea07505)" d="M 283.336294 307.584 
L 286.096419 307.584 
L 286.096419 273.180675 
L 283.336294 273.180675 
z
" style="fill:#1f77b4;"/>
   </g>
   <g id="patch_67">
    <path clip-path="url(#p55bea07505)" d="M 286.096419 307.584 
L 288.856545 307.584 
L 288.856545 273.801486 
L 286.096419 273.801486 
z
" style="fill:#1f77b4;"/>
   </g>
   <g id="patch_68">
    <path clip-path="url(#p55bea07505)" d="M 288.856545 307.584 
L 291.61667 307.584 
L 291.61667 276.077797 
L 288.856545 276.077797 
z
" style="fill:#1f77b4;"/>
   </g>
   <g id="patch_69">
    <path clip-path="url(#p55bea07505)" d="M 291.61667 307.584 
L 294.376795 307.584 
L 294.376795 277.836764 
L 291.61667 277.836764 
z
" style="fill:#1f77b4;"/>
   </g>
   <g id="patch_70">
    <path clip-path="url(#p55bea07505)" d="M 294.376795 307.584 
L 297.136921 307.584 
L 297.136921 277.629826 
L 294.376795 277.629826 
z
" style="fill:#1f77b4;"/>
   </g>
   <g id="patch_71">
    <path clip-path="url(#p55bea07505)" d="M 297.136921 307.584 
L 299.897046 307.584 
L 299.897046 281.199495 
L 297.136921 281.199495 
z
" style="fill:#1f77b4;"/>
   </g>
   <g id="patch_72">
    <path clip-path="url(#p55bea07505)" d="M 299.897046 307.584 
L 302.657172 307.584 
L 302.657172 280.216543 
L 299.897046 280.216543 
z
" style="fill:#1f77b4;"/>
   </g>
   <g id="patch_73">
    <path clip-path="url(#p55bea07505)" d="M 302.657172 307.584 
L 305.417297 307.584 
L 305.417297 280.268277 
L 302.657172 280.268277 
z
" style="fill:#1f77b4;"/>
   </g>
   <g id="patch_74">
    <path clip-path="url(#p55bea07505)" d="M 305.417297 307.584 
L 308.177422 307.584 
L 308.177422 284.25182 
L 305.417297 284.25182 
z
" style="fill:#1f77b4;"/>
   </g>
   <g id="patch_75">
    <path clip-path="url(#p55bea07505)" d="M 308.177422 307.584 
L 310.937548 307.584 
L 310.937548 285.389975 
L 308.177422 285.389975 
z
" style="fill:#1f77b4;"/>
   </g>
   <g id="patch_76">
    <path clip-path="url(#p55bea07505)" d="M 310.937548 307.584 
L 313.697673 307.584 
L 313.697673 288.235363 
L 310.937548 288.235363 
z
" style="fill:#1f77b4;"/>
   </g>
   <g id="patch_77">
    <path clip-path="url(#p55bea07505)" d="M 313.697673 307.584 
L 316.457798 307.584 
L 316.457798 290.615142 
L 313.697673 290.615142 
z
" style="fill:#1f77b4;"/>
   </g>
   <g id="patch_78">
    <path clip-path="url(#p55bea07505)" d="M 316.457798 307.584 
L 319.217924 307.584 
L 319.217924 290.666876 
L 316.457798 290.666876 
z
" style="fill:#1f77b4;"/>
   </g>
   <g id="patch_79">
    <path clip-path="url(#p55bea07505)" d="M 319.217924 307.584 
L 321.978049 307.584 
L 321.978049 293.408795 
L 319.217924 293.408795 
z
" style="fill:#1f77b4;"/>
   </g>
   <g id="patch_80">
    <path clip-path="url(#p55bea07505)" d="M 321.978049 307.584 
L 324.738175 307.584 
L 324.738175 294.753888 
L 321.978049 294.753888 
z
" style="fill:#1f77b4;"/>
   </g>
   <g id="patch_81">
    <path clip-path="url(#p55bea07505)" d="M 324.738175 307.584 
L 327.4983 307.584 
L 327.4983 294.443482 
L 324.738175 294.443482 
z
" style="fill:#1f77b4;"/>
   </g>
   <g id="patch_82">
    <path clip-path="url(#p55bea07505)" d="M 327.4983 307.584 
L 330.258425 307.584 
L 330.258425 296.926729 
L 327.4983 296.926729 
z
" style="fill:#1f77b4;"/>
   </g>
   <g id="patch_83">
    <path clip-path="url(#p55bea07505)" d="M 330.258425 307.584 
L 333.018551 307.584 
L 333.018551 299.358242 
L 330.258425 299.358242 
z
" style="fill:#1f77b4;"/>
   </g>
   <g id="patch_84">
    <path clip-path="url(#p55bea07505)" d="M 333.018551 307.584 
L 335.778676 307.584 
L 335.778676 300.703335 
L 333.018551 300.703335 
z
" style="fill:#1f77b4;"/>
   </g>
   <g id="patch_85">
    <path clip-path="url(#p55bea07505)" d="M 335.778676 307.584 
L 338.538801 307.584 
L 338.538801 301.427615 
L 335.778676 301.427615 
z
" style="fill:#1f77b4;"/>
   </g>
   <g id="patch_86">
    <path clip-path="url(#p55bea07505)" d="M 338.538801 307.584 
L 341.298927 307.584 
L 341.298927 302.876177 
L 338.538801 302.876177 
z
" style="fill:#1f77b4;"/>
   </g>
   <g id="patch_87">
    <path clip-path="url(#p55bea07505)" d="M 341.298927 307.584 
L 344.059052 307.584 
L 344.059052 302.410568 
L 341.298927 302.410568 
z
" style="fill:#1f77b4;"/>
   </g>
   <g id="patch_88">
    <path clip-path="url(#p55bea07505)" d="M 344.059052 307.584 
L 346.819178 307.584 
L 346.819178 304.686878 
L 344.059052 304.686878 
z
" style="fill:#1f77b4;"/>
   </g>
   <g id="patch_89">
    <path clip-path="url(#p55bea07505)" d="M 346.819178 307.584 
L 349.579303 307.584 
L 349.579303 304.169535 
L 346.819178 304.169535 
z
" style="fill:#1f77b4;"/>
   </g>
   <g id="patch_90">
    <path clip-path="url(#p55bea07505)" d="M 349.579303 307.584 
L 352.339428 307.584 
L 352.339428 305.514627 
L 349.579303 305.514627 
z
" style="fill:#1f77b4;"/>
   </g>
   <g id="patch_91">
    <path clip-path="url(#p55bea07505)" d="M 352.339428 307.584 
L 355.099554 307.584 
L 355.099554 306.135439 
L 352.339428 306.135439 
z
" style="fill:#1f77b4;"/>
   </g>
   <g id="patch_92">
    <path clip-path="url(#p55bea07505)" d="M 355.099554 307.584 
L 357.859679 307.584 
L 357.859679 306.03197 
L 355.099554 306.03197 
z
" style="fill:#1f77b4;"/>
   </g>
   <g id="patch_93">
    <path clip-path="url(#p55bea07505)" d="M 357.859679 307.584 
L 360.619804 307.584 
L 360.619804 306.497579 
L 357.859679 306.497579 
z
" style="fill:#1f77b4;"/>
   </g>
   <g id="patch_94">
    <path clip-path="url(#p55bea07505)" d="M 360.619804 307.584 
L 363.37993 307.584 
L 363.37993 307.066657 
L 360.619804 307.066657 
z
" style="fill:#1f77b4;"/>
   </g>
   <g id="patch_95">
    <path clip-path="url(#p55bea07505)" d="M 363.37993 307.584 
L 366.140055 307.584 
L 366.140055 307.118391 
L 363.37993 307.118391 
z
" style="fill:#1f77b4;"/>
   </g>
   <g id="patch_96">
    <path clip-path="url(#p55bea07505)" d="M 366.140055 307.584 
L 368.900181 307.584 
L 368.900181 307.014922 
L 366.140055 307.014922 
z
" style="fill:#1f77b4;"/>
   </g>
   <g id="patch_97">
    <path clip-path="url(#p55bea07505)" d="M 368.900181 307.584 
L 371.660306 307.584 
L 371.660306 307.22186 
L 368.900181 307.22186 
z
" style="fill:#1f77b4;"/>
   </g>
   <g id="patch_98">
    <path clip-path="url(#p55bea07505)" d="M 371.660306 307.584 
L 374.420431 307.584 
L 374.420431 307.428797 
L 371.660306 307.428797 
z
" style="fill:#1f77b4;"/>
   </g>
   <g id="patch_99">
    <path clip-path="url(#p55bea07505)" d="M 374.420431 307.584 
L 377.180557 307.584 
L 377.180557 307.480531 
L 374.420431 307.480531 
z
" style="fill:#1f77b4;"/>
   </g>
   <g id="patch_100">
    <path clip-path="url(#p55bea07505)" d="M 377.180557 307.584 
L 379.940682 307.584 
L 379.940682 307.377063 
L 377.180557 307.377063 
z
" style="fill:#1f77b4;"/>
   </g>
   <g id="patch_101">
    <path clip-path="url(#p55bea07505)" d="M 379.940682 307.584 
L 382.700807 307.584 
L 382.700807 307.584 
L 379.940682 307.584 
z
" style="fill:#1f77b4;"/>
   </g>
   <g id="patch_102">
    <path clip-path="url(#p55bea07505)" d="M 382.700807 307.584 
L 385.460933 307.584 
L 385.460933 307.428797 
L 382.700807 307.428797 
z
" style="fill:#1f77b4;"/>
   </g>
   <g id="matplotlib.axis_1">
    <g id="xtick_1">
     <g id="line2d_1">
      <defs>
       <path d="M 0 0 
L 0 3.5 
" id="m5a18c03233" style="stroke:#000000;stroke-width:0.8;"/>
      </defs>
      <g>
       <use style="stroke:#000000;stroke-width:0.8;" x="106.298341" xlink:href="#m5a18c03233" y="307.584"/>
      </g>
     </g>
     <g id="text_1">
      <!-- −2 -->
      <defs>
       <path d="M 10.59375 35.5 
L 73.1875 35.5 
L 73.1875 27.203125 
L 10.59375 27.203125 
z
" id="DejaVuSans-8722"/>
       <path d="M 19.1875 8.296875 
L 53.609375 8.296875 
L 53.609375 0 
L 7.328125 0 
L 7.328125 8.296875 
Q 12.9375 14.109375 22.625 23.890625 
Q 32.328125 33.6875 34.8125 36.53125 
Q 39.546875 41.84375 41.421875 45.53125 
Q 43.3125 49.21875 43.3125 52.78125 
Q 43.3125 58.59375 39.234375 62.25 
Q 35.15625 65.921875 28.609375 65.921875 
Q 23.96875 65.921875 18.8125 64.3125 
Q 13.671875 62.703125 7.8125 59.421875 
L 7.8125 69.390625 
Q 13.765625 71.78125 18.9375 73 
Q 24.125 74.21875 28.421875 74.21875 
Q 39.75 74.21875 46.484375 68.546875 
Q 53.21875 62.890625 53.21875 53.421875 
Q 53.21875 48.921875 51.53125 44.890625 
Q 49.859375 40.875 45.40625 35.40625 
Q 44.1875 33.984375 37.640625 27.21875 
Q 31.109375 20.453125 19.1875 8.296875 
z
" id="DejaVuSans-50"/>
      </defs>
      <g transform="translate(93.767482 327.501344)scale(0.17 -0.17)">
       <use xlink:href="#DejaVuSans-8722"/>
       <use x="83.789062" xlink:href="#DejaVuSans-50"/>
      </g>
     </g>
    </g>
    <g id="xtick_2">
     <g id="line2d_2">
      <g>
       <use style="stroke:#000000;stroke-width:0.8;" x="171.229568" xlink:href="#m5a18c03233" y="307.584"/>
      </g>
     </g>
     <g id="text_2">
      <!-- −1 -->
      <defs>
       <path d="M 12.40625 8.296875 
L 28.515625 8.296875 
L 28.515625 63.921875 
L 10.984375 60.40625 
L 10.984375 69.390625 
L 28.421875 72.90625 
L 38.28125 72.90625 
L 38.28125 8.296875 
L 54.390625 8.296875 
L 54.390625 0 
L 12.40625 0 
z
" id="DejaVuSans-49"/>
      </defs>
      <g transform="translate(158.698709 327.501344)scale(0.17 -0.17)">
       <use xlink:href="#DejaVuSans-8722"/>
       <use x="83.789062" xlink:href="#DejaVuSans-49"/>
      </g>
     </g>
    </g>
    <g id="xtick_3">
     <g id="line2d_3">
      <g>
       <use style="stroke:#000000;stroke-width:0.8;" x="236.160796" xlink:href="#m5a18c03233" y="307.584"/>
      </g>
     </g>
     <g id="text_3">
      <!-- 0 -->
      <defs>
       <path d="M 31.78125 66.40625 
Q 24.171875 66.40625 20.328125 58.90625 
Q 16.5 51.421875 16.5 36.375 
Q 16.5 21.390625 20.328125 13.890625 
Q 24.171875 6.390625 31.78125 6.390625 
Q 39.453125 6.390625 43.28125 13.890625 
Q 47.125 21.390625 47.125 36.375 
Q 47.125 51.421875 43.28125 58.90625 
Q 39.453125 66.40625 31.78125 66.40625 
z
M 31.78125 74.21875 
Q 44.046875 74.21875 50.515625 64.515625 
Q 56.984375 54.828125 56.984375 36.375 
Q 56.984375 17.96875 50.515625 8.265625 
Q 44.046875 -1.421875 31.78125 -1.421875 
Q 19.53125 -1.421875 13.0625 8.265625 
Q 6.59375 17.96875 6.59375 36.375 
Q 6.59375 54.828125 13.0625 64.515625 
Q 19.53125 74.21875 31.78125 74.21875 
z
" id="DejaVuSans-48"/>
      </defs>
      <g transform="translate(230.752671 327.501344)scale(0.17 -0.17)">
       <use xlink:href="#DejaVuSans-48"/>
      </g>
     </g>
    </g>
    <g id="xtick_4">
     <g id="line2d_4">
      <g>
       <use style="stroke:#000000;stroke-width:0.8;" x="301.092023" xlink:href="#m5a18c03233" y="307.584"/>
      </g>
     </g>
     <g id="text_4">
      <!-- 1 -->
      <g transform="translate(295.683898 327.501344)scale(0.17 -0.17)">
       <use xlink:href="#DejaVuSans-49"/>
      </g>
     </g>
    </g>
    <g id="xtick_5">
     <g id="line2d_5">
      <g>
       <use style="stroke:#000000;stroke-width:0.8;" x="366.02325" xlink:href="#m5a18c03233" y="307.584"/>
      </g>
     </g>
     <g id="text_5">
      <!-- 2 -->
      <g transform="translate(360.615125 327.501344)scale(0.17 -0.17)">
       <use xlink:href="#DejaVuSans-50"/>
      </g>
     </g>
    </g>
    <g id="text_6">
     <!-- Compressed value -->
     <defs>
      <path d="M 64.40625 67.28125 
L 64.40625 56.890625 
Q 59.421875 61.53125 53.78125 63.8125 
Q 48.140625 66.109375 41.796875 66.109375 
Q 29.296875 66.109375 22.65625 58.46875 
Q 16.015625 50.828125 16.015625 36.375 
Q 16.015625 21.96875 22.65625 14.328125 
Q 29.296875 6.6875 41.796875 6.6875 
Q 48.140625 6.6875 53.78125 8.984375 
Q 59.421875 11.28125 64.40625 15.921875 
L 64.40625 5.609375 
Q 59.234375 2.09375 53.4375 0.328125 
Q 47.65625 -1.421875 41.21875 -1.421875 
Q 24.65625 -1.421875 15.125 8.703125 
Q 5.609375 18.84375 5.609375 36.375 
Q 5.609375 53.953125 15.125 64.078125 
Q 24.65625 74.21875 41.21875 74.21875 
Q 47.75 74.21875 53.53125 72.484375 
Q 59.328125 70.75 64.40625 67.28125 
z
" id="DejaVuSans-67"/>
      <path d="M 30.609375 48.390625 
Q 23.390625 48.390625 19.1875 42.75 
Q 14.984375 37.109375 14.984375 27.296875 
Q 14.984375 17.484375 19.15625 11.84375 
Q 23.34375 6.203125 30.609375 6.203125 
Q 37.796875 6.203125 41.984375 11.859375 
Q 46.1875 17.53125 46.1875 27.296875 
Q 46.1875 37.015625 41.984375 42.703125 
Q 37.796875 48.390625 30.609375 48.390625 
z
M 30.609375 56 
Q 42.328125 56 49.015625 48.375 
Q 55.71875 40.765625 55.71875 27.296875 
Q 55.71875 13.875 49.015625 6.21875 
Q 42.328125 -1.421875 30.609375 -1.421875 
Q 18.84375 -1.421875 12.171875 6.21875 
Q 5.515625 13.875 5.515625 27.296875 
Q 5.515625 40.765625 12.171875 48.375 
Q 18.84375 56 30.609375 56 
z
" id="DejaVuSans-111"/>
      <path d="M 52 44.1875 
Q 55.375 50.25 60.0625 53.125 
Q 64.75 56 71.09375 56 
Q 79.640625 56 84.28125 50.015625 
Q 88.921875 44.046875 88.921875 33.015625 
L 88.921875 0 
L 79.890625 0 
L 79.890625 32.71875 
Q 79.890625 40.578125 77.09375 44.375 
Q 74.3125 48.1875 68.609375 48.1875 
Q 61.625 48.1875 57.5625 43.546875 
Q 53.515625 38.921875 53.515625 30.90625 
L 53.515625 0 
L 44.484375 0 
L 44.484375 32.71875 
Q 44.484375 40.625 41.703125 44.40625 
Q 38.921875 48.1875 33.109375 48.1875 
Q 26.21875 48.1875 22.15625 43.53125 
Q 18.109375 38.875 18.109375 30.90625 
L 18.109375 0 
L 9.078125 0 
L 9.078125 54.6875 
L 18.109375 54.6875 
L 18.109375 46.1875 
Q 21.1875 51.21875 25.484375 53.609375 
Q 29.78125 56 35.6875 56 
Q 41.65625 56 45.828125 52.96875 
Q 50 49.953125 52 44.1875 
z
" id="DejaVuSans-109"/>
      <path d="M 18.109375 8.203125 
L 18.109375 -20.796875 
L 9.078125 -20.796875 
L 9.078125 54.6875 
L 18.109375 54.6875 
L 18.109375 46.390625 
Q 20.953125 51.265625 25.265625 53.625 
Q 29.59375 56 35.59375 56 
Q 45.5625 56 51.78125 48.09375 
Q 58.015625 40.1875 58.015625 27.296875 
Q 58.015625 14.40625 51.78125 6.484375 
Q 45.5625 -1.421875 35.59375 -1.421875 
Q 29.59375 -1.421875 25.265625 0.953125 
Q 20.953125 3.328125 18.109375 8.203125 
z
M 48.6875 27.296875 
Q 48.6875 37.203125 44.609375 42.84375 
Q 40.53125 48.484375 33.40625 48.484375 
Q 26.265625 48.484375 22.1875 42.84375 
Q 18.109375 37.203125 18.109375 27.296875 
Q 18.109375 17.390625 22.1875 11.75 
Q 26.265625 6.109375 33.40625 6.109375 
Q 40.53125 6.109375 44.609375 11.75 
Q 48.6875 17.390625 48.6875 27.296875 
z
" id="DejaVuSans-112"/>
      <path d="M 41.109375 46.296875 
Q 39.59375 47.171875 37.8125 47.578125 
Q 36.03125 48 33.890625 48 
Q 26.265625 48 22.1875 43.046875 
Q 18.109375 38.09375 18.109375 28.8125 
L 18.109375 0 
L 9.078125 0 
L 9.078125 54.6875 
L 18.109375 54.6875 
L 18.109375 46.1875 
Q 20.953125 51.171875 25.484375 53.578125 
Q 30.03125 56 36.53125 56 
Q 37.453125 56 38.578125 55.875 
Q 39.703125 55.765625 41.0625 55.515625 
z
" id="DejaVuSans-114"/>
      <path d="M 56.203125 29.59375 
L 56.203125 25.203125 
L 14.890625 25.203125 
Q 15.484375 15.921875 20.484375 11.0625 
Q 25.484375 6.203125 34.421875 6.203125 
Q 39.59375 6.203125 44.453125 7.46875 
Q 49.3125 8.734375 54.109375 11.28125 
L 54.109375 2.78125 
Q 49.265625 0.734375 44.1875 -0.34375 
Q 39.109375 -1.421875 33.890625 -1.421875 
Q 20.796875 -1.421875 13.15625 6.1875 
Q 5.515625 13.8125 5.515625 26.8125 
Q 5.515625 40.234375 12.765625 48.109375 
Q 20.015625 56 32.328125 56 
Q 43.359375 56 49.78125 48.890625 
Q 56.203125 41.796875 56.203125 29.59375 
z
M 47.21875 32.234375 
Q 47.125 39.59375 43.09375 43.984375 
Q 39.0625 48.390625 32.421875 48.390625 
Q 24.90625 48.390625 20.390625 44.140625 
Q 15.875 39.890625 15.1875 32.171875 
z
" id="DejaVuSans-101"/>
      <path d="M 44.28125 53.078125 
L 44.28125 44.578125 
Q 40.484375 46.53125 36.375 47.5 
Q 32.28125 48.484375 27.875 48.484375 
Q 21.1875 48.484375 17.84375 46.4375 
Q 14.5 44.390625 14.5 40.28125 
Q 14.5 37.15625 16.890625 35.375 
Q 19.28125 33.59375 26.515625 31.984375 
L 29.59375 31.296875 
Q 39.15625 29.25 43.1875 25.515625 
Q 47.21875 21.78125 47.21875 15.09375 
Q 47.21875 7.46875 41.1875 3.015625 
Q 35.15625 -1.421875 24.609375 -1.421875 
Q 20.21875 -1.421875 15.453125 -0.5625 
Q 10.6875 0.296875 5.421875 2 
L 5.421875 11.28125 
Q 10.40625 8.6875 15.234375 7.390625 
Q 20.0625 6.109375 24.8125 6.109375 
Q 31.15625 6.109375 34.5625 8.28125 
Q 37.984375 10.453125 37.984375 14.40625 
Q 37.984375 18.0625 35.515625 20.015625 
Q 33.0625 21.96875 24.703125 23.78125 
L 21.578125 24.515625 
Q 13.234375 26.265625 9.515625 29.90625 
Q 5.8125 33.546875 5.8125 39.890625 
Q 5.8125 47.609375 11.28125 51.796875 
Q 16.75 56 26.8125 56 
Q 31.78125 56 36.171875 55.265625 
Q 40.578125 54.546875 44.28125 53.078125 
z
" id="DejaVuSans-115"/>
      <path d="M 45.40625 46.390625 
L 45.40625 75.984375 
L 54.390625 75.984375 
L 54.390625 0 
L 45.40625 0 
L 45.40625 8.203125 
Q 42.578125 3.328125 38.25 0.953125 
Q 33.9375 -1.421875 27.875 -1.421875 
Q 17.96875 -1.421875 11.734375 6.484375 
Q 5.515625 14.40625 5.515625 27.296875 
Q 5.515625 40.1875 11.734375 48.09375 
Q 17.96875 56 27.875 56 
Q 33.9375 56 38.25 53.625 
Q 42.578125 51.265625 45.40625 46.390625 
z
M 14.796875 27.296875 
Q 14.796875 17.390625 18.875 11.75 
Q 22.953125 6.109375 30.078125 6.109375 
Q 37.203125 6.109375 41.296875 11.75 
Q 45.40625 17.390625 45.40625 27.296875 
Q 45.40625 37.203125 41.296875 42.84375 
Q 37.203125 48.484375 30.078125 48.484375 
Q 22.953125 48.484375 18.875 42.84375 
Q 14.796875 37.203125 14.796875 27.296875 
z
" id="DejaVuSans-100"/>
      <path id="DejaVuSans-32"/>
      <path d="M 2.984375 54.6875 
L 12.5 54.6875 
L 29.59375 8.796875 
L 46.6875 54.6875 
L 56.203125 54.6875 
L 35.6875 0 
L 23.484375 0 
z
" id="DejaVuSans-118"/>
      <path d="M 34.28125 27.484375 
Q 23.390625 27.484375 19.1875 25 
Q 14.984375 22.515625 14.984375 16.5 
Q 14.984375 11.71875 18.140625 8.90625 
Q 21.296875 6.109375 26.703125 6.109375 
Q 34.1875 6.109375 38.703125 11.40625 
Q 43.21875 16.703125 43.21875 25.484375 
L 43.21875 27.484375 
z
M 52.203125 31.203125 
L 52.203125 0 
L 43.21875 0 
L 43.21875 8.296875 
Q 40.140625 3.328125 35.546875 0.953125 
Q 30.953125 -1.421875 24.3125 -1.421875 
Q 15.921875 -1.421875 10.953125 3.296875 
Q 6 8.015625 6 15.921875 
Q 6 25.140625 12.171875 29.828125 
Q 18.359375 34.515625 30.609375 34.515625 
L 43.21875 34.515625 
L 43.21875 35.40625 
Q 43.21875 41.609375 39.140625 45 
Q 35.0625 48.390625 27.6875 48.390625 
Q 23 48.390625 18.546875 47.265625 
Q 14.109375 46.140625 10.015625 43.890625 
L 10.015625 52.203125 
Q 14.9375 54.109375 19.578125 55.046875 
Q 24.21875 56 28.609375 56 
Q 40.484375 56 46.34375 49.84375 
Q 52.203125 43.703125 52.203125 31.203125 
z
" id="DejaVuSans-97"/>
      <path d="M 9.421875 75.984375 
L 18.40625 75.984375 
L 18.40625 0 
L 9.421875 0 
z
" id="DejaVuSans-108"/>
      <path d="M 8.5 21.578125 
L 8.5 54.6875 
L 17.484375 54.6875 
L 17.484375 21.921875 
Q 17.484375 14.15625 20.5 10.265625 
Q 23.53125 6.390625 29.59375 6.390625 
Q 36.859375 6.390625 41.078125 11.03125 
Q 45.3125 15.671875 45.3125 23.6875 
L 45.3125 54.6875 
L 54.296875 54.6875 
L 54.296875 0 
L 45.3125 0 
L 45.3125 8.40625 
Q 42.046875 3.421875 37.71875 1 
Q 33.40625 -1.421875 27.6875 -1.421875 
Q 18.265625 -1.421875 13.375 4.4375 
Q 8.5 10.296875 8.5 21.578125 
z
M 31.109375 56 
z
" id="DejaVuSans-117"/>
     </defs>
     <g transform="translate(96.861562 357.832125)scale(0.3 -0.3)">
      <use xlink:href="#DejaVuSans-67"/>
      <use x="69.824219" xlink:href="#DejaVuSans-111"/>
      <use x="131.005859" xlink:href="#DejaVuSans-109"/>
      <use x="228.417969" xlink:href="#DejaVuSans-112"/>
      <use x="291.894531" xlink:href="#DejaVuSans-114"/>
      <use x="332.976562" xlink:href="#DejaVuSans-101"/>
      <use x="394.5" xlink:href="#DejaVuSans-115"/>
      <use x="446.599609" xlink:href="#DejaVuSans-115"/>
      <use x="498.699219" xlink:href="#DejaVuSans-101"/>
      <use x="560.222656" xlink:href="#DejaVuSans-100"/>
      <use x="623.699219" xlink:href="#DejaVuSans-32"/>
      <use x="655.486328" xlink:href="#DejaVuSans-118"/>
      <use x="714.666016" xlink:href="#DejaVuSans-97"/>
      <use x="775.945312" xlink:href="#DejaVuSans-108"/>
      <use x="803.728516" xlink:href="#DejaVuSans-117"/>
      <use x="867.107422" xlink:href="#DejaVuSans-101"/>
     </g>
    </g>
   </g>
   <g id="matplotlib.axis_2">
    <g id="ytick_1">
     <g id="line2d_6">
      <defs>
       <path d="M 0 0 
L -3.5 0 
" id="mcf7f0eb238" style="stroke:#000000;stroke-width:0.8;"/>
      </defs>
      <g>
       <use style="stroke:#000000;stroke-width:0.8;" x="57.6" xlink:href="#mcf7f0eb238" y="307.584"/>
      </g>
     </g>
     <g id="text_7">
      <!-- 0.0 -->
      <defs>
       <path d="M 10.6875 12.40625 
L 21 12.40625 
L 21 0 
L 10.6875 0 
z
" id="DejaVuSans-46"/>
      </defs>
      <g transform="translate(23.564687 314.042672)scale(0.17 -0.17)">
       <use xlink:href="#DejaVuSans-48"/>
       <use x="63.623047" xlink:href="#DejaVuSans-46"/>
       <use x="95.410156" xlink:href="#DejaVuSans-48"/>
      </g>
     </g>
    </g>
    <g id="ytick_2">
     <g id="line2d_7">
      <g>
       <use style="stroke:#000000;stroke-width:0.8;" x="57.6" xlink:href="#mcf7f0eb238" y="262.721431"/>
      </g>
     </g>
     <g id="text_8">
      <!-- 0.2 -->
      <g transform="translate(23.564687 269.180102)scale(0.17 -0.17)">
       <use xlink:href="#DejaVuSans-48"/>
       <use x="63.623047" xlink:href="#DejaVuSans-46"/>
       <use x="95.410156" xlink:href="#DejaVuSans-50"/>
      </g>
     </g>
    </g>
    <g id="ytick_3">
     <g id="line2d_8">
      <g>
       <use style="stroke:#000000;stroke-width:0.8;" x="57.6" xlink:href="#mcf7f0eb238" y="217.858861"/>
      </g>
     </g>
     <g id="text_9">
      <!-- 0.4 -->
      <defs>
       <path d="M 37.796875 64.3125 
L 12.890625 25.390625 
L 37.796875 25.390625 
z
M 35.203125 72.90625 
L 47.609375 72.90625 
L 47.609375 25.390625 
L 58.015625 25.390625 
L 58.015625 17.1875 
L 47.609375 17.1875 
L 47.609375 0 
L 37.796875 0 
L 37.796875 17.1875 
L 4.890625 17.1875 
L 4.890625 26.703125 
z
" id="DejaVuSans-52"/>
      </defs>
      <g transform="translate(23.564687 224.317533)scale(0.17 -0.17)">
       <use xlink:href="#DejaVuSans-48"/>
       <use x="63.623047" xlink:href="#DejaVuSans-46"/>
       <use x="95.410156" xlink:href="#DejaVuSans-52"/>
      </g>
     </g>
    </g>
    <g id="ytick_4">
     <g id="line2d_9">
      <g>
       <use style="stroke:#000000;stroke-width:0.8;" x="57.6" xlink:href="#mcf7f0eb238" y="172.996292"/>
      </g>
     </g>
     <g id="text_10">
      <!-- 0.6 -->
      <defs>
       <path d="M 33.015625 40.375 
Q 26.375 40.375 22.484375 35.828125 
Q 18.609375 31.296875 18.609375 23.390625 
Q 18.609375 15.53125 22.484375 10.953125 
Q 26.375 6.390625 33.015625 6.390625 
Q 39.65625 6.390625 43.53125 10.953125 
Q 47.40625 15.53125 47.40625 23.390625 
Q 47.40625 31.296875 43.53125 35.828125 
Q 39.65625 40.375 33.015625 40.375 
z
M 52.59375 71.296875 
L 52.59375 62.3125 
Q 48.875 64.0625 45.09375 64.984375 
Q 41.3125 65.921875 37.59375 65.921875 
Q 27.828125 65.921875 22.671875 59.328125 
Q 17.53125 52.734375 16.796875 39.40625 
Q 19.671875 43.65625 24.015625 45.921875 
Q 28.375 48.1875 33.59375 48.1875 
Q 44.578125 48.1875 50.953125 41.515625 
Q 57.328125 34.859375 57.328125 23.390625 
Q 57.328125 12.15625 50.6875 5.359375 
Q 44.046875 -1.421875 33.015625 -1.421875 
Q 20.359375 -1.421875 13.671875 8.265625 
Q 6.984375 17.96875 6.984375 36.375 
Q 6.984375 53.65625 15.1875 63.9375 
Q 23.390625 74.21875 37.203125 74.21875 
Q 40.921875 74.21875 44.703125 73.484375 
Q 48.484375 72.75 52.59375 71.296875 
z
" id="DejaVuSans-54"/>
      </defs>
      <g transform="translate(23.564687 179.454964)scale(0.17 -0.17)">
       <use xlink:href="#DejaVuSans-48"/>
       <use x="63.623047" xlink:href="#DejaVuSans-46"/>
       <use x="95.410156" xlink:href="#DejaVuSans-54"/>
      </g>
     </g>
    </g>
    <g id="ytick_5">
     <g id="line2d_10">
      <g>
       <use style="stroke:#000000;stroke-width:0.8;" x="57.6" xlink:href="#mcf7f0eb238" y="128.133722"/>
      </g>
     </g>
     <g id="text_11">
      <!-- 0.8 -->
      <defs>
       <path d="M 31.78125 34.625 
Q 24.75 34.625 20.71875 30.859375 
Q 16.703125 27.09375 16.703125 20.515625 
Q 16.703125 13.921875 20.71875 10.15625 
Q 24.75 6.390625 31.78125 6.390625 
Q 38.8125 6.390625 42.859375 10.171875 
Q 46.921875 13.96875 46.921875 20.515625 
Q 46.921875 27.09375 42.890625 30.859375 
Q 38.875 34.625 31.78125 34.625 
z
M 21.921875 38.8125 
Q 15.578125 40.375 12.03125 44.71875 
Q 8.5 49.078125 8.5 55.328125 
Q 8.5 64.0625 14.71875 69.140625 
Q 20.953125 74.21875 31.78125 74.21875 
Q 42.671875 74.21875 48.875 69.140625 
Q 55.078125 64.0625 55.078125 55.328125 
Q 55.078125 49.078125 51.53125 44.71875 
Q 48 40.375 41.703125 38.8125 
Q 48.828125 37.15625 52.796875 32.3125 
Q 56.78125 27.484375 56.78125 20.515625 
Q 56.78125 9.90625 50.3125 4.234375 
Q 43.84375 -1.421875 31.78125 -1.421875 
Q 19.734375 -1.421875 13.25 4.234375 
Q 6.78125 9.90625 6.78125 20.515625 
Q 6.78125 27.484375 10.78125 32.3125 
Q 14.796875 37.15625 21.921875 38.8125 
z
M 18.3125 54.390625 
Q 18.3125 48.734375 21.84375 45.5625 
Q 25.390625 42.390625 31.78125 42.390625 
Q 38.140625 42.390625 41.71875 45.5625 
Q 45.3125 48.734375 45.3125 54.390625 
Q 45.3125 60.0625 41.71875 63.234375 
Q 38.140625 66.40625 31.78125 66.40625 
Q 25.390625 66.40625 21.84375 63.234375 
Q 18.3125 60.0625 18.3125 54.390625 
z
" id="DejaVuSans-56"/>
      </defs>
      <g transform="translate(23.564687 134.592394)scale(0.17 -0.17)">
       <use xlink:href="#DejaVuSans-48"/>
       <use x="63.623047" xlink:href="#DejaVuSans-46"/>
       <use x="95.410156" xlink:href="#DejaVuSans-56"/>
      </g>
     </g>
    </g>
    <g id="ytick_6">
     <g id="line2d_11">
      <g>
       <use style="stroke:#000000;stroke-width:0.8;" x="57.6" xlink:href="#mcf7f0eb238" y="83.271153"/>
      </g>
     </g>
     <g id="text_12">
      <!-- 1.0 -->
      <g transform="translate(23.564687 89.729825)scale(0.17 -0.17)">
       <use xlink:href="#DejaVuSans-49"/>
       <use x="63.623047" xlink:href="#DejaVuSans-46"/>
       <use x="95.410156" xlink:href="#DejaVuSans-48"/>
      </g>
     </g>
    </g>
    <g id="text_13">
     <!-- Density -->
     <defs>
      <path d="M 19.671875 64.796875 
L 19.671875 8.109375 
L 31.59375 8.109375 
Q 46.6875 8.109375 53.6875 14.9375 
Q 60.6875 21.78125 60.6875 36.53125 
Q 60.6875 51.171875 53.6875 57.984375 
Q 46.6875 64.796875 31.59375 64.796875 
z
M 9.8125 72.90625 
L 30.078125 72.90625 
Q 51.265625 72.90625 61.171875 64.09375 
Q 71.09375 55.28125 71.09375 36.53125 
Q 71.09375 17.671875 61.125 8.828125 
Q 51.171875 0 30.078125 0 
L 9.8125 0 
z
" id="DejaVuSans-68"/>
      <path d="M 54.890625 33.015625 
L 54.890625 0 
L 45.90625 0 
L 45.90625 32.71875 
Q 45.90625 40.484375 42.875 44.328125 
Q 39.84375 48.1875 33.796875 48.1875 
Q 26.515625 48.1875 22.3125 43.546875 
Q 18.109375 38.921875 18.109375 30.90625 
L 18.109375 0 
L 9.078125 0 
L 9.078125 54.6875 
L 18.109375 54.6875 
L 18.109375 46.1875 
Q 21.34375 51.125 25.703125 53.5625 
Q 30.078125 56 35.796875 56 
Q 45.21875 56 50.046875 50.171875 
Q 54.890625 44.34375 54.890625 33.015625 
z
" id="DejaVuSans-110"/>
      <path d="M 9.421875 54.6875 
L 18.40625 54.6875 
L 18.40625 0 
L 9.421875 0 
z
M 9.421875 75.984375 
L 18.40625 75.984375 
L 18.40625 64.59375 
L 9.421875 64.59375 
z
" id="DejaVuSans-105"/>
      <path d="M 18.3125 70.21875 
L 18.3125 54.6875 
L 36.8125 54.6875 
L 36.8125 47.703125 
L 18.3125 47.703125 
L 18.3125 18.015625 
Q 18.3125 11.328125 20.140625 9.421875 
Q 21.96875 7.515625 27.59375 7.515625 
L 36.8125 7.515625 
L 36.8125 0 
L 27.59375 0 
Q 17.1875 0 13.234375 3.875 
Q 9.28125 7.765625 9.28125 18.015625 
L 9.28125 47.703125 
L 2.6875 47.703125 
L 2.6875 54.6875 
L 9.28125 54.6875 
L 9.28125 70.21875 
z
" id="DejaVuSans-116"/>
      <path d="M 32.171875 -5.078125 
Q 28.375 -14.84375 24.75 -17.8125 
Q 21.140625 -20.796875 15.09375 -20.796875 
L 7.90625 -20.796875 
L 7.90625 -13.28125 
L 13.1875 -13.28125 
Q 16.890625 -13.28125 18.9375 -11.515625 
Q 21 -9.765625 23.484375 -3.21875 
L 25.09375 0.875 
L 2.984375 54.6875 
L 12.5 54.6875 
L 29.59375 11.921875 
L 46.6875 54.6875 
L 56.203125 54.6875 
z
" id="DejaVuSans-121"/>
     </defs>
     <g transform="translate(13.325625 231.553781)rotate(-90)scale(0.3 -0.3)">
      <use xlink:href="#DejaVuSans-68"/>
      <use x="77.001953" xlink:href="#DejaVuSans-101"/>
      <use x="138.525391" xlink:href="#DejaVuSans-110"/>
      <use x="201.904297" xlink:href="#DejaVuSans-115"/>
      <use x="254.003906" xlink:href="#DejaVuSans-105"/>
      <use x="281.787109" xlink:href="#DejaVuSans-116"/>
      <use x="320.996094" xlink:href="#DejaVuSans-121"/>
     </g>
    </g>
   </g>
   <g id="line2d_12">
    <path clip-path="url(#p55bea07505)" d="M 73.832727 307.584 
L 122.78578 307.472963 
L 123.69609 307.314592 
L 124.558657 307.220912 
L 125.726783 307.389317 
L 126.498637 307.393938 
L 127.754292 307.057718 
L 129.011539 306.87103 
L 129.80249 306.779477 
L 130.343584 306.438577 
L 131.112255 305.979976 
L 131.514892 306.011776 
L 132.065535 306.321126 
L 132.660738 306.570797 
L 133.064966 306.495344 
L 133.526487 306.159924 
L 134.522736 305.376025 
L 135.20706 305.275043 
L 136.878084 304.978383 
L 137.767706 304.093342 
L 139.018587 303.084426 
L 139.874788 302.719573 
L 141.087474 302.121134 
L 141.574458 301.570228 
L 143.021088 299.706301 
L 143.433274 299.694455 
L 144.138287 299.695544 
L 144.489998 299.432616 
L 144.873538 298.837503 
L 145.529216 297.296379 
L 146.02734 296.413476 
L 146.369502 296.210135 
L 147.478744 295.882427 
L 147.800217 295.289807 
L 148.196489 294.026658 
L 149.335968 290.081144 
L 149.652667 289.804572 
L 150.443618 289.404271 
L 150.800103 288.675921 
L 152.461579 284.810133 
L 153.012221 284.066031 
L 153.890703 283.133743 
L 154.450894 281.840105 
L 155.361204 279.887321 
L 156.699615 277.209258 
L 158.136696 273.379608 
L 158.692112 272.440457 
L 161.020406 267.193441 
L 161.508982 265.138524 
L 162.215586 261.042862 
L 162.850575 257.83257 
L 163.192738 257.08931 
L 163.57946 256.800951 
L 163.872287 256.451175 
L 164.193761 255.6469 
L 164.879676 253.130588 
L 165.556043 250.030721 
L 166.428159 244.632015 
L 168.140561 232.73147 
L 168.766001 229.1449 
L 169.073151 228.438587 
L 169.281632 228.390796 
L 169.569684 228.625785 
L 169.891158 228.778292 
L 170.083723 228.613657 
L 170.333581 228.045963 
L 170.740993 226.462583 
L 171.482609 222.594125 
L 172.003014 218.674146 
L 173.497387 206.18893 
L 175.066558 199.075752 
L 175.641072 196.482608 
L 175.959363 195.904472 
L 176.229909 195.822483 
L 176.640504 195.73201 
L 176.869673 195.366157 
L 177.168866 194.39668 
L 177.676539 191.840606 
L 178.340174 188.798357 
L 178.623453 188.348777 
L 178.827159 188.372129 
L 179.392124 188.588081 
L 179.59583 188.255187 
L 179.928443 187.188243 
L 180.657328 184.867137 
L 180.970844 184.517208 
L 181.190464 184.558821 
L 181.475334 184.892068 
L 181.95277 185.402533 
L 182.143744 185.307579 
L 182.387236 184.878053 
L 182.945835 183.281768 
L 183.491703 181.288725 
L 183.911847 178.667508 
L 184.592988 174.518842 
L 184.838071 174.125392 
L 184.994034 174.207059 
L 185.255032 174.685749 
L 185.769071 175.55472 
L 186.058715 175.628904 
L 186.478858 175.711572 
L 186.709619 176.066797 
L 187.024726 177.040809 
L 187.728148 179.276108 
L 187.907982 179.296241 
L 188.084633 179.024796 
L 188.39974 178.035442 
L 189.021998 176.16209 
L 189.295727 175.939156 
L 189.543994 176.020397 
L 190.198081 176.330094 
L 190.400195 176.085494 
L 190.651644 175.367253 
L 191.022453 173.513636 
L 191.935946 168.782757 
L 193.182052 164.184473 
L 194.294477 159.265358 
L 194.673243 158.620242 
L 195.179324 157.854254 
L 195.524669 156.759813 
L 195.978233 154.500024 
L 196.439754 151.021641 
L 197.673129 140.739017 
L 197.988236 140.177422 
L 198.46408 139.464624 
L 198.874675 138.264783 
L 199.43964 135.90574 
L 199.926625 132.831328 
L 200.518645 127.524348 
L 201.769526 115.700482 
L 202.246961 113.853096 
L 203.937083 107.980602 
L 204.363592 105.580941 
L 205.03041 100.231049 
L 205.88502 93.983667 
L 206.260602 92.561198 
L 206.480222 92.373782 
L 206.655282 92.519732 
L 207.269582 93.19129 
L 207.275948 93.186457 
L 207.446234 92.909929 
L 207.700866 91.986768 
L 208.159204 89.312355 
L 208.972436 83.218267 
L 210.611631 70.036361 
L 211.24662 66.970044 
L 212.339947 62.285548 
L 213.267764 57.206111 
L 213.692681 56.318466 
L 214.16216 55.23522 
L 214.66665 54.166734 
L 214.832161 54.191033 
L 215.002446 54.517993 
L 215.255487 55.579369 
L 215.677222 58.489616 
L 217.335514 70.755933 
L 217.690408 71.610465 
L 218.177392 72.137025 
L 218.755089 72.888337 
L 219.08452 73.662592 
L 219.351883 74.948113 
L 219.64471 77.615149 
L 220.034616 83.546626 
L 221.210699 102.758791 
L 223.206379 124.224583 
L 223.804765 131.142788 
L 224.586168 143.430103 
L 225.657215 159.280377 
L 226.465672 167.929973 
L 227.484201 178.755549 
L 228.703253 192.537271 
L 229.078836 194.214219 
L 229.731331 196.552541 
L 230.141926 199.476688 
L 231.076108 206.32013 
L 231.491477 207.677323 
L 232.454305 210.257829 
L 233.108391 212.865 
L 233.56673 215.77547 
L 234.373596 222.719743 
L 235.143858 230.956745 
L 235.837731 240.924642 
L 237.196831 261.634487 
L 237.532627 263.284857 
L 237.822271 263.768584 
L 238.485907 264.488906 
L 238.91719 265.665777 
L 239.42168 266.825442 
L 239.67313 266.952686 
L 239.894341 266.803218 
L 240.241278 266.239161 
L 241.038595 264.915764 
L 241.259807 264.918248 
L 241.469878 265.180709 
L 241.765888 265.973179 
L 242.881496 269.362556 
L 243.043824 269.27698 
L 243.252304 268.849403 
L 243.607198 267.508129 
L 244.213541 265.343982 
L 244.433161 265.188797 
L 244.598672 265.351752 
L 244.872402 266.013828 
L 245.466014 267.429581 
L 245.660171 267.444282 
L 245.867059 267.180793 
L 246.621407 266.040484 
L 246.806016 266.205371 
L 247.07338 266.807163 
L 247.631979 268.770026 
L 248.107823 270.062025 
L 248.34495 270.211414 
L 248.524784 270.059439 
L 248.785782 269.483558 
L 249.303003 267.664096 
L 249.993693 265.504079 
L 250.35177 264.99074 
L 250.565025 264.993728 
L 250.775096 265.259521 
L 251.098161 266.102061 
L 251.774528 267.864564 
L 251.997331 267.941896 
L 252.196263 267.74625 
L 252.519327 267.044986 
L 253.221157 265.527253 
L 253.478973 265.426017 
L 253.719282 265.587222 
L 254.588214 266.363866 
L 254.80306 266.100592 
L 255.129308 265.273275 
L 255.75634 263.716922 
L 255.969594 263.662763 
L 256.187623 263.880692 
L 256.81943 264.5979 
L 257.035867 264.466934 
L 257.742472 263.886624 
L 258.02575 264.116454 
L 258.367912 264.306273 
L 258.549338 264.141789 
L 258.797604 263.54591 
L 259.545586 261.577884 
L 259.698366 261.654201 
L 259.898889 262.080007 
L 260.256965 263.47841 
L 260.966753 266.163896 
L 261.283451 266.597137 
L 261.563547 266.632833 
L 262.278109 266.604925 
L 262.792148 266.652349 
L 263.118395 266.40475 
L 263.742244 265.912205 
L 263.996877 266.016853 
L 264.396331 266.488268 
L 264.85626 266.909708 
L 265.102935 266.866349 
L 265.352793 266.564313 
L 265.685407 265.75665 
L 266.39042 263.255468 
L 266.907642 261.881016 
L 267.195694 261.615452 
L 267.385077 261.706719 
L 267.60788 262.1153 
L 267.924579 263.237707 
L 268.532514 266.435152 
L 269.057693 268.63686 
L 269.393489 269.222035 
L 269.759523 269.410456 
L 270.270379 269.70392 
L 271.074062 270.219068 
L 271.790215 270.302206 
L 273.015633 270.24929 
L 273.437368 270.347778 
L 273.793853 270.682926 
L 274.269697 271.482672 
L 274.977893 272.626234 
L 275.203879 272.636165 
L 275.418725 272.386463 
L 275.738607 271.604153 
L 276.623454 269.298893 
L 276.854214 269.23158 
L 277.072243 269.426782 
L 277.457375 270.147716 
L 278.622317 272.888964 
L 279.615383 275.910176 
L 279.900253 276.087558 
L 280.185123 275.997465 
L 280.614815 275.591625 
L 281.367571 274.522998 
L 282.67097 272.724406 
L 282.920828 272.780022 
L 283.320283 273.16951 
L 283.71178 273.414757 
L 283.995058 273.330619 
L 285.011996 272.810864 
L 285.271402 273.103874 
L 285.635845 273.913155 
L 286.274017 275.290344 
L 286.492046 275.331472 
L 286.708483 275.108157 
L 287.157272 274.219636 
L 287.760433 273.226363 
L 288.229911 272.827886 
L 288.500458 272.851781 
L 288.763047 273.128795 
L 289.143404 273.9129 
L 290.286066 276.451215 
L 290.534333 276.482023 
L 290.862172 276.243679 
L 291.280724 276.022782 
L 291.575142 276.137391 
L 292.30721 276.504682 
L 292.819657 276.633811 
L 293.09657 277.018814 
L 293.519896 278.074706 
L 294.121465 279.430895 
L 294.423841 279.641175 
L 294.673699 279.555166 
L 294.98244 279.177909 
L 295.501253 278.117672 
L 296.047121 277.180069 
L 296.314485 277.088633 
L 296.55002 277.258244 
L 296.896957 277.839893 
L 297.902754 279.639632 
L 298.517054 280.616174 
L 299.381213 282.151819 
L 299.624705 282.151143 
L 299.914349 281.888205 
L 300.558887 280.906703 
L 301.182736 280.117135 
L 301.504209 280.03544 
L 301.898889 280.200365 
L 302.478177 280.399386 
L 302.887181 280.276449 
L 303.673358 280.006018 
L 304.539107 280.082485 
L 304.855806 280.359421 
L 305.252078 281.055081 
L 306.891273 284.267627 
L 307.927308 285.546808 
L 308.228092 285.586863 
L 308.584577 285.371153 
L 309.027001 285.169854 
L 309.291182 285.307551 
L 310.26515 286.048423 
L 310.731446 286.067614 
L 310.962206 286.383868 
L 311.302777 287.31047 
L 311.888431 288.817194 
L 312.131923 288.93378 
L 312.386555 288.777807 
L 312.881497 288.480713 
L 313.121806 288.62013 
L 313.4767 289.143295 
L 314.172164 290.137746 
L 314.741904 290.475622 
L 316.056443 291.057108 
L 316.731218 290.958457 
L 318.301981 290.646232 
L 318.60754 290.961286 
L 319.137493 291.923692 
L 319.656307 292.650462 
L 320.171937 292.966534 
L 321.831821 293.828006 
L 322.314031 294.102287 
L 322.859899 294.090258 
L 323.240256 294.21522 
L 323.744746 294.677056 
L 324.250828 295.020595 
L 324.623227 295.001538 
L 325.664037 294.806636 
L 326.173301 294.712866 
L 326.75259 294.585282 
L 327.016771 294.80832 
L 327.413042 295.502084 
L 328.054397 296.539522 
L 328.504778 296.835199 
L 329.037914 296.926383 
L 330.070766 296.963143 
L 330.373142 297.43439 
L 330.845803 298.669322 
L 331.515804 300.279775 
L 331.803857 300.490673 
L 332.021886 300.388277 
L 332.330628 299.939756 
L 332.908325 299.130394 
L 333.137494 299.151611 
L 333.40804 299.446192 
L 334.517282 300.880151 
L 335.166594 301.228409 
L 335.562866 301.196119 
L 336.341086 301.056874 
L 336.754863 301.32161 
L 337.488522 301.777523 
L 338.828525 302.299145 
L 340.131924 303.370243 
L 340.529786 303.191866 
L 341.511712 302.43025 
L 342.351999 301.759514 
L 342.628911 301.843928 
L 342.955159 302.213066 
L 344.530696 304.359857 
L 345.191148 304.734802 
L 345.58742 304.715328 
L 346.082361 304.432527 
L 346.973574 303.936199 
L 347.458967 303.925533 
L 347.965049 304.151915 
L 350.616407 305.689493 
L 351.097025 305.599165 
L 351.749521 305.496824 
L 352.260377 305.703823 
L 352.984487 305.945601 
L 354.332447 306.053431 
L 355.710644 305.829842 
L 357.319601 306.318845 
L 359.81818 306.625586 
L 361.38576 307.082488 
L 363.160229 306.991396 
L 364.552749 307.194635 
L 365.596741 307.121134 
L 367.110212 306.970261 
L 368.630048 307.141745 
L 369.430548 307.138638 
L 370.218317 307.188725 
L 371.423046 307.325719 
L 373.335971 307.432112 
L 374.518419 307.54988 
L 377.558092 307.332723 
L 378.404744 307.368442 
L 379.851374 307.487874 
L 384.087818 307.450696 
L 385.206609 307.390893 
L 388.855807 307.584 
L 398.487273 307.584 
L 398.487273 307.584 
" style="fill:none;stroke:#ff7f0e;stroke-linecap:square;stroke-width:1.5;"/>
   </g>
   <g id="patch_103">
    <path d="M 57.6 307.584 
L 57.6 41.472 
" style="fill:none;stroke:#000000;stroke-linecap:square;stroke-linejoin:miter;stroke-width:0.8;"/>
   </g>
   <g id="patch_104">
    <path d="M 414.72 307.584 
L 414.72 41.472 
" style="fill:none;stroke:#000000;stroke-linecap:square;stroke-linejoin:miter;stroke-width:0.8;"/>
   </g>
   <g id="patch_105">
    <path d="M 57.6 307.584 
L 414.72 307.584 
" style="fill:none;stroke:#000000;stroke-linecap:square;stroke-linejoin:miter;stroke-width:0.8;"/>
   </g>
   <g id="patch_106">
    <path d="M 57.6 41.472 
L 414.72 41.472 
" style="fill:none;stroke:#000000;stroke-linecap:square;stroke-linejoin:miter;stroke-width:0.8;"/>
   </g>
  </g>
 </g>
 <defs>
  <clipPath id="p55bea07505">
   <rect height="266.112" width="357.12" x="57.6" y="41.472"/>
  </clipPath>
 </defs>
</svg>
