<?xml version="1.0" encoding="utf-8" standalone="no"?>
<!DOCTYPE svg PUBLIC "-//W3C//DTD SVG 1.1//EN"
  "http://www.w3.org/Graphics/SVG/1.1/DTD/svg11.dtd">
<!-- Created with matplotlib (https://matplotlib.org/) -->
<svg height="345.6pt" version="1.1" viewBox="0 0 460.8 345.6" width="460.8pt" xmlns="http://www.w3.org/2000/svg" xmlns:xlink="http://www.w3.org/1999/xlink">
 <defs>
  <style type="text/css">
*{stroke-linecap:butt;stroke-linejoin:round;}
  </style>
 </defs>
 <g id="figure_1">
  <g id="patch_1">
   <path d="M 0 345.6 
L 460.8 345.6 
L 460.8 0 
L 0 0 
z
" style="fill:#ffffff;"/>
  </g>
  <g id="axes_1">
   <g id="patch_2">
    <path d="M 57.6 307.584 
L 414.72 307.584 
L 414.72 41.472 
L 57.6 41.472 
z
" style="fill:#ffffff;"/>
   </g>
   <g id="patch_3">
    <path clip-path="url(#p35ededd5fd)" d="M 73.832727 307.584 
L 77.079273 307.584 
L 77.079273 307.325176 
L 73.832727 307.325176 
z
" style="fill:#1f77b4;"/>
   </g>
   <g id="patch_4">
    <path clip-path="url(#p35ededd5fd)" d="M 77.079273 307.584 
L 80.325818 307.584 
L 80.325818 307.584 
L 77.079273 307.584 
z
" style="fill:#1f77b4;"/>
   </g>
   <g id="patch_5">
    <path clip-path="url(#p35ededd5fd)" d="M 80.325818 307.584 
L 83.572364 307.584 
L 83.572364 307.497725 
L 80.325818 307.497725 
z
" style="fill:#1f77b4;"/>
   </g>
   <g id="patch_6">
    <path clip-path="url(#p35ededd5fd)" d="M 83.572364 307.584 
L 86.818909 307.584 
L 86.818909 307.238901 
L 83.572364 307.238901 
z
" style="fill:#1f77b4;"/>
   </g>
   <g id="patch_7">
    <path clip-path="url(#p35ededd5fd)" d="M 86.818909 307.584 
L 90.065455 307.584 
L 90.065455 307.152627 
L 86.818909 307.152627 
z
" style="fill:#1f77b4;"/>
   </g>
   <g id="patch_8">
    <path clip-path="url(#p35ededd5fd)" d="M 90.065455 307.584 
L 93.312 307.584 
L 93.312 306.634979 
L 90.065455 306.634979 
z
" style="fill:#1f77b4;"/>
   </g>
   <g id="patch_9">
    <path clip-path="url(#p35ededd5fd)" d="M 93.312 307.584 
L 96.558545 307.584 
L 96.558545 306.548704 
L 93.312 306.548704 
z
" style="fill:#1f77b4;"/>
   </g>
   <g id="patch_10">
    <path clip-path="url(#p35ededd5fd)" d="M 96.558545 307.584 
L 99.805091 307.584 
L 99.805091 306.548704 
L 96.558545 306.548704 
z
" style="fill:#1f77b4;"/>
   </g>
   <g id="patch_11">
    <path clip-path="url(#p35ededd5fd)" d="M 99.805091 307.584 
L 103.051636 307.584 
L 103.051636 305.944781 
L 99.805091 305.944781 
z
" style="fill:#1f77b4;"/>
   </g>
   <g id="patch_12">
    <path clip-path="url(#p35ededd5fd)" d="M 103.051636 307.584 
L 106.298182 307.584 
L 106.298182 305.082034 
L 103.051636 305.082034 
z
" style="fill:#1f77b4;"/>
   </g>
   <g id="patch_13">
    <path clip-path="url(#p35ededd5fd)" d="M 106.298182 307.584 
L 109.544727 307.584 
L 109.544727 304.391837 
L 106.298182 304.391837 
z
" style="fill:#1f77b4;"/>
   </g>
   <g id="patch_14">
    <path clip-path="url(#p35ededd5fd)" d="M 109.544727 307.584 
L 112.791273 307.584 
L 112.791273 302.666343 
L 109.544727 302.666343 
z
" style="fill:#1f77b4;"/>
   </g>
   <g id="patch_15">
    <path clip-path="url(#p35ededd5fd)" d="M 112.791273 307.584 
L 116.037818 307.584 
L 116.037818 300.682025 
L 112.791273 300.682025 
z
" style="fill:#1f77b4;"/>
   </g>
   <g id="patch_16">
    <path clip-path="url(#p35ededd5fd)" d="M 116.037818 307.584 
L 119.284364 307.584 
L 119.284364 300.682025 
L 116.037818 300.682025 
z
" style="fill:#1f77b4;"/>
   </g>
   <g id="patch_17">
    <path clip-path="url(#p35ededd5fd)" d="M 119.284364 307.584 
L 122.530909 307.584 
L 122.530909 296.023193 
L 119.284364 296.023193 
z
" style="fill:#1f77b4;"/>
   </g>
   <g id="patch_18">
    <path clip-path="url(#p35ededd5fd)" d="M 122.530909 307.584 
L 125.777455 307.584 
L 125.777455 294.038875 
L 122.530909 294.038875 
z
" style="fill:#1f77b4;"/>
   </g>
   <g id="patch_19">
    <path clip-path="url(#p35ededd5fd)" d="M 125.777455 307.584 
L 129.024 307.584 
L 129.024 291.105536 
L 125.777455 291.105536 
z
" style="fill:#1f77b4;"/>
   </g>
   <g id="patch_20">
    <path clip-path="url(#p35ededd5fd)" d="M 129.024 307.584 
L 132.270545 307.584 
L 132.270545 288.862394 
L 129.024 288.862394 
z
" style="fill:#1f77b4;"/>
   </g>
   <g id="patch_21">
    <path clip-path="url(#p35ededd5fd)" d="M 132.270545 307.584 
L 135.517091 307.584 
L 135.517091 284.203561 
L 132.270545 284.203561 
z
" style="fill:#1f77b4;"/>
   </g>
   <g id="patch_22">
    <path clip-path="url(#p35ededd5fd)" d="M 135.517091 307.584 
L 138.763636 307.584 
L 138.763636 278.768256 
L 135.517091 278.768256 
z
" style="fill:#1f77b4;"/>
   </g>
   <g id="patch_23">
    <path clip-path="url(#p35ededd5fd)" d="M 138.763636 307.584 
L 142.010182 307.584 
L 142.010182 277.215312 
L 138.763636 277.215312 
z
" style="fill:#1f77b4;"/>
   </g>
   <g id="patch_24">
    <path clip-path="url(#p35ededd5fd)" d="M 142.010182 307.584 
L 145.256727 307.584 
L 145.256727 273.246677 
L 142.010182 273.246677 
z
" style="fill:#1f77b4;"/>
   </g>
   <g id="patch_25">
    <path clip-path="url(#p35ededd5fd)" d="M 145.256727 307.584 
L 148.503273 307.584 
L 148.503273 268.156471 
L 145.256727 268.156471 
z
" style="fill:#1f77b4;"/>
   </g>
   <g id="patch_26">
    <path clip-path="url(#p35ededd5fd)" d="M 148.503273 307.584 
L 151.749818 307.584 
L 151.749818 265.050582 
L 148.503273 265.050582 
z
" style="fill:#1f77b4;"/>
   </g>
   <g id="patch_27">
    <path clip-path="url(#p35ededd5fd)" d="M 151.749818 307.584 
L 154.996364 307.584 
L 154.996364 261.685869 
L 151.749818 261.685869 
z
" style="fill:#1f77b4;"/>
   </g>
   <g id="patch_28">
    <path clip-path="url(#p35ededd5fd)" d="M 154.996364 307.584 
L 158.242909 307.584 
L 158.242909 254.093697 
L 154.996364 254.093697 
z
" style="fill:#1f77b4;"/>
   </g>
   <g id="patch_29">
    <path clip-path="url(#p35ededd5fd)" d="M 158.242909 307.584 
L 161.489455 307.584 
L 161.489455 249.003491 
L 158.242909 249.003491 
z
" style="fill:#1f77b4;"/>
   </g>
   <g id="patch_30">
    <path clip-path="url(#p35ededd5fd)" d="M 161.489455 307.584 
L 164.736 307.584 
L 164.736 242.964264 
L 161.489455 242.964264 
z
" style="fill:#1f77b4;"/>
   </g>
   <g id="patch_31">
    <path clip-path="url(#p35ededd5fd)" d="M 164.736 307.584 
L 167.982545 307.584 
L 167.982545 244.085834 
L 164.736 244.085834 
z
" style="fill:#1f77b4;"/>
   </g>
   <g id="patch_32">
    <path clip-path="url(#p35ededd5fd)" d="M 167.982545 307.584 
L 171.229091 307.584 
L 171.229091 242.619165 
L 167.982545 242.619165 
z
" style="fill:#1f77b4;"/>
   </g>
   <g id="patch_33">
    <path clip-path="url(#p35ededd5fd)" d="M 171.229091 307.584 
L 174.475636 307.584 
L 174.475636 233.560323 
L 171.229091 233.560323 
z
" style="fill:#1f77b4;"/>
   </g>
   <g id="patch_34">
    <path clip-path="url(#p35ededd5fd)" d="M 174.475636 307.584 
L 177.722182 307.584 
L 177.722182 234.854444 
L 174.475636 234.854444 
z
" style="fill:#1f77b4;"/>
   </g>
   <g id="patch_35">
    <path clip-path="url(#p35ededd5fd)" d="M 177.722182 307.584 
L 180.968727 307.584 
L 180.968727 226.744623 
L 177.722182 226.744623 
z
" style="fill:#1f77b4;"/>
   </g>
   <g id="patch_36">
    <path clip-path="url(#p35ededd5fd)" d="M 180.968727 307.584 
L 184.215273 307.584 
L 184.215273 227.434821 
L 180.968727 227.434821 
z
" style="fill:#1f77b4;"/>
   </g>
   <g id="patch_37">
    <path clip-path="url(#p35ededd5fd)" d="M 184.215273 307.584 
L 187.461818 307.584 
L 187.461818 220.79167 
L 184.215273 220.79167 
z
" style="fill:#1f77b4;"/>
   </g>
   <g id="patch_38">
    <path clip-path="url(#p35ededd5fd)" d="M 187.461818 307.584 
L 190.708364 307.584 
L 190.708364 220.187748 
L 187.461818 220.187748 
z
" style="fill:#1f77b4;"/>
   </g>
   <g id="patch_39">
    <path clip-path="url(#p35ededd5fd)" d="M 190.708364 307.584 
L 193.954909 307.584 
L 193.954909 213.975971 
L 190.708364 213.975971 
z
" style="fill:#1f77b4;"/>
   </g>
   <g id="patch_40">
    <path clip-path="url(#p35ededd5fd)" d="M 193.954909 307.584 
L 197.201455 307.584 
L 197.201455 206.0387 
L 193.954909 206.0387 
z
" style="fill:#1f77b4;"/>
   </g>
   <g id="patch_41">
    <path clip-path="url(#p35ededd5fd)" d="M 197.201455 307.584 
L 200.448 307.584 
L 200.448 201.638691 
L 197.201455 201.638691 
z
" style="fill:#1f77b4;"/>
   </g>
   <g id="patch_42">
    <path clip-path="url(#p35ededd5fd)" d="M 200.448 307.584 
L 203.694545 307.584 
L 203.694545 191.544553 
L 200.448 191.544553 
z
" style="fill:#1f77b4;"/>
   </g>
   <g id="patch_43">
    <path clip-path="url(#p35ededd5fd)" d="M 203.694545 307.584 
L 206.941091 307.584 
L 206.941091 188.52494 
L 203.694545 188.52494 
z
" style="fill:#1f77b4;"/>
   </g>
   <g id="patch_44">
    <path clip-path="url(#p35ededd5fd)" d="M 206.941091 307.584 
L 210.187636 307.584 
L 210.187636 187.834742 
L 206.941091 187.834742 
z
" style="fill:#1f77b4;"/>
   </g>
   <g id="patch_45">
    <path clip-path="url(#p35ededd5fd)" d="M 210.187636 307.584 
L 213.434182 307.584 
L 213.434182 181.968064 
L 210.187636 181.968064 
z
" style="fill:#1f77b4;"/>
   </g>
   <g id="patch_46">
    <path clip-path="url(#p35ededd5fd)" d="M 213.434182 307.584 
L 216.680727 307.584 
L 216.680727 185.160227 
L 213.434182 185.160227 
z
" style="fill:#1f77b4;"/>
   </g>
   <g id="patch_47">
    <path clip-path="url(#p35ededd5fd)" d="M 216.680727 307.584 
L 219.927273 307.584 
L 219.927273 192.666124 
L 216.680727 192.666124 
z
" style="fill:#1f77b4;"/>
   </g>
   <g id="patch_48">
    <path clip-path="url(#p35ededd5fd)" d="M 219.927273 307.584 
L 223.173818 307.584 
L 223.173818 187.230819 
L 219.927273 187.230819 
z
" style="fill:#1f77b4;"/>
   </g>
   <g id="patch_49">
    <path clip-path="url(#p35ededd5fd)" d="M 223.173818 307.584 
L 226.420364 307.584 
L 226.420364 184.815128 
L 223.173818 184.815128 
z
" style="fill:#1f77b4;"/>
   </g>
   <g id="patch_50">
    <path clip-path="url(#p35ededd5fd)" d="M 226.420364 307.584 
L 229.666909 307.584 
L 229.666909 165.4896 
L 226.420364 165.4896 
z
" style="fill:#1f77b4;"/>
   </g>
   <g id="patch_51">
    <path clip-path="url(#p35ededd5fd)" d="M 229.666909 307.584 
L 232.913455 307.584 
L 232.913455 155.309187 
L 229.666909 155.309187 
z
" style="fill:#1f77b4;"/>
   </g>
   <g id="patch_52">
    <path clip-path="url(#p35ededd5fd)" d="M 232.913455 307.584 
L 236.16 307.584 
L 236.16 151.944475 
L 232.913455 151.944475 
z
" style="fill:#1f77b4;"/>
   </g>
   <g id="patch_53">
    <path clip-path="url(#p35ededd5fd)" d="M 236.16 307.584 
L 239.406545 307.584 
L 239.406545 164.626853 
L 236.16 164.626853 
z
" style="fill:#1f77b4;"/>
   </g>
   <g id="patch_54">
    <path clip-path="url(#p35ededd5fd)" d="M 239.406545 307.584 
L 242.653091 307.584 
L 242.653091 135.897384 
L 239.406545 135.897384 
z
" style="fill:#1f77b4;"/>
   </g>
   <g id="patch_55">
    <path clip-path="url(#p35ededd5fd)" d="M 242.653091 307.584 
L 245.899636 307.584 
L 245.899636 93.363966 
L 242.653091 93.363966 
z
" style="fill:#1f77b4;"/>
   </g>
   <g id="patch_56">
    <path clip-path="url(#p35ededd5fd)" d="M 245.899636 307.584 
L 249.146182 307.584 
L 249.146182 93.536515 
L 245.899636 93.536515 
z
" style="fill:#1f77b4;"/>
   </g>
   <g id="patch_57">
    <path clip-path="url(#p35ededd5fd)" d="M 249.146182 307.584 
L 252.392727 307.584 
L 252.392727 99.489468 
L 249.146182 99.489468 
z
" style="fill:#1f77b4;"/>
   </g>
   <g id="patch_58">
    <path clip-path="url(#p35ededd5fd)" d="M 252.392727 307.584 
L 255.639273 307.584 
L 255.639273 77.058051 
L 252.392727 77.058051 
z
" style="fill:#1f77b4;"/>
   </g>
   <g id="patch_59">
    <path clip-path="url(#p35ededd5fd)" d="M 255.639273 307.584 
L 258.885818 307.584 
L 258.885818 74.210987 
L 255.639273 74.210987 
z
" style="fill:#1f77b4;"/>
   </g>
   <g id="patch_60">
    <path clip-path="url(#p35ededd5fd)" d="M 258.885818 307.584 
L 262.132364 307.584 
L 262.132364 66.705089 
L 258.885818 66.705089 
z
" style="fill:#1f77b4;"/>
   </g>
   <g id="patch_61">
    <path clip-path="url(#p35ededd5fd)" d="M 262.132364 307.584 
L 265.378909 307.584 
L 265.378909 71.88157 
L 262.132364 71.88157 
z
" style="fill:#1f77b4;"/>
   </g>
   <g id="patch_62">
    <path clip-path="url(#p35ededd5fd)" d="M 265.378909 307.584 
L 268.625455 307.584 
L 268.625455 86.979639 
L 265.378909 86.979639 
z
" style="fill:#1f77b4;"/>
   </g>
   <g id="patch_63">
    <path clip-path="url(#p35ededd5fd)" d="M 268.625455 307.584 
L 271.872 307.584 
L 271.872 81.45806 
L 268.625455 81.45806 
z
" style="fill:#1f77b4;"/>
   </g>
   <g id="patch_64">
    <path clip-path="url(#p35ededd5fd)" d="M 271.872 307.584 
L 275.118545 307.584 
L 275.118545 88.360034 
L 271.872 88.360034 
z
" style="fill:#1f77b4;"/>
   </g>
   <g id="patch_65">
    <path clip-path="url(#p35ededd5fd)" d="M 275.118545 307.584 
L 278.365091 307.584 
L 278.365091 75.763931 
L 275.118545 75.763931 
z
" style="fill:#1f77b4;"/>
   </g>
   <g id="patch_66">
    <path clip-path="url(#p35ededd5fd)" d="M 278.365091 307.584 
L 281.611636 307.584 
L 281.611636 69.724703 
L 278.365091 69.724703 
z
" style="fill:#1f77b4;"/>
   </g>
   <g id="patch_67">
    <path clip-path="url(#p35ededd5fd)" d="M 281.611636 307.584 
L 284.858182 307.584 
L 284.858182 60.665862 
L 281.611636 60.665862 
z
" style="fill:#1f77b4;"/>
   </g>
   <g id="patch_68">
    <path clip-path="url(#p35ededd5fd)" d="M 284.858182 307.584 
L 288.104727 307.584 
L 288.104727 61.787432 
L 284.858182 61.787432 
z
" style="fill:#1f77b4;"/>
   </g>
   <g id="patch_69">
    <path clip-path="url(#p35ededd5fd)" d="M 288.104727 307.584 
L 291.351273 307.584 
L 291.351273 63.944299 
L 288.104727 63.944299 
z
" style="fill:#1f77b4;"/>
   </g>
   <g id="patch_70">
    <path clip-path="url(#p35ededd5fd)" d="M 291.351273 307.584 
L 294.597818 307.584 
L 294.597818 76.022755 
L 291.351273 76.022755 
z
" style="fill:#1f77b4;"/>
   </g>
   <g id="patch_71">
    <path clip-path="url(#p35ededd5fd)" d="M 294.597818 307.584 
L 297.844364 307.584 
L 297.844364 94.830635 
L 294.597818 94.830635 
z
" style="fill:#1f77b4;"/>
   </g>
   <g id="patch_72">
    <path clip-path="url(#p35ededd5fd)" d="M 297.844364 307.584 
L 301.090909 307.584 
L 301.090909 117.607151 
L 297.844364 117.607151 
z
" style="fill:#1f77b4;"/>
   </g>
   <g id="patch_73">
    <path clip-path="url(#p35ededd5fd)" d="M 301.090909 307.584 
L 304.337455 307.584 
L 304.337455 134.603264 
L 301.090909 134.603264 
z
" style="fill:#1f77b4;"/>
   </g>
   <g id="patch_74">
    <path clip-path="url(#p35ededd5fd)" d="M 304.337455 307.584 
L 307.584 307.584 
L 307.584 148.234663 
L 304.337455 148.234663 
z
" style="fill:#1f77b4;"/>
   </g>
   <g id="patch_75">
    <path clip-path="url(#p35ededd5fd)" d="M 307.584 307.584 
L 310.830545 307.584 
L 310.830545 164.713127 
L 307.584 164.713127 
z
" style="fill:#1f77b4;"/>
   </g>
   <g id="patch_76">
    <path clip-path="url(#p35ededd5fd)" d="M 310.830545 307.584 
L 314.077091 307.584 
L 314.077091 167.560192 
L 310.830545 167.560192 
z
" style="fill:#1f77b4;"/>
   </g>
   <g id="patch_77">
    <path clip-path="url(#p35ededd5fd)" d="M 314.077091 307.584 
L 317.323636 307.584 
L 317.323636 179.724922 
L 314.077091 179.724922 
z
" style="fill:#1f77b4;"/>
   </g>
   <g id="patch_78">
    <path clip-path="url(#p35ededd5fd)" d="M 317.323636 307.584 
L 320.570182 307.584 
L 320.570182 187.662193 
L 317.323636 187.662193 
z
" style="fill:#1f77b4;"/>
   </g>
   <g id="patch_79">
    <path clip-path="url(#p35ededd5fd)" d="M 320.570182 307.584 
L 323.816727 307.584 
L 323.816727 190.595532 
L 320.570182 190.595532 
z
" style="fill:#1f77b4;"/>
   </g>
   <g id="patch_80">
    <path clip-path="url(#p35ededd5fd)" d="M 323.816727 307.584 
L 327.063273 307.584 
L 327.063273 202.846537 
L 323.816727 202.846537 
z
" style="fill:#1f77b4;"/>
   </g>
   <g id="patch_81">
    <path clip-path="url(#p35ededd5fd)" d="M 327.063273 307.584 
L 330.309818 307.584 
L 330.309818 216.995584 
L 327.063273 216.995584 
z
" style="fill:#1f77b4;"/>
   </g>
   <g id="patch_82">
    <path clip-path="url(#p35ededd5fd)" d="M 330.309818 307.584 
L 333.556364 307.584 
L 333.556364 228.211293 
L 330.309818 228.211293 
z
" style="fill:#1f77b4;"/>
   </g>
   <g id="patch_83">
    <path clip-path="url(#p35ededd5fd)" d="M 333.556364 307.584 
L 336.802909 307.584 
L 336.802909 237.270135 
L 333.556364 237.270135 
z
" style="fill:#1f77b4;"/>
   </g>
   <g id="patch_84">
    <path clip-path="url(#p35ededd5fd)" d="M 336.802909 307.584 
L 340.049455 307.584 
L 340.049455 252.885852 
L 336.802909 252.885852 
z
" style="fill:#1f77b4;"/>
   </g>
   <g id="patch_85">
    <path clip-path="url(#p35ededd5fd)" d="M 340.049455 307.584 
L 343.296 307.584 
L 343.296 261.340771 
L 340.049455 261.340771 
z
" style="fill:#1f77b4;"/>
   </g>
   <g id="patch_86">
    <path clip-path="url(#p35ededd5fd)" d="M 343.296 307.584 
L 346.542545 307.584 
L 346.542545 269.191767 
L 343.296 269.191767 
z
" style="fill:#1f77b4;"/>
   </g>
   <g id="patch_87">
    <path clip-path="url(#p35ededd5fd)" d="M 346.542545 307.584 
L 349.789091 307.584 
L 349.789091 280.321201 
L 346.542545 280.321201 
z
" style="fill:#1f77b4;"/>
   </g>
   <g id="patch_88">
    <path clip-path="url(#p35ededd5fd)" d="M 349.789091 307.584 
L 353.035636 307.584 
L 353.035636 284.893759 
L 349.789091 284.893759 
z
" style="fill:#1f77b4;"/>
   </g>
   <g id="patch_89">
    <path clip-path="url(#p35ededd5fd)" d="M 353.035636 307.584 
L 356.282182 307.584 
L 356.282182 290.587888 
L 353.035636 290.587888 
z
" style="fill:#1f77b4;"/>
   </g>
   <g id="patch_90">
    <path clip-path="url(#p35ededd5fd)" d="M 356.282182 307.584 
L 359.528727 307.584 
L 359.528727 296.282017 
L 356.282182 296.282017 
z
" style="fill:#1f77b4;"/>
   </g>
   <g id="patch_91">
    <path clip-path="url(#p35ededd5fd)" d="M 359.528727 307.584 
L 362.775273 307.584 
L 362.775273 299.819279 
L 359.528727 299.819279 
z
" style="fill:#1f77b4;"/>
   </g>
   <g id="patch_92">
    <path clip-path="url(#p35ededd5fd)" d="M 362.775273 307.584 
L 366.021818 307.584 
L 366.021818 302.838893 
L 362.775273 302.838893 
z
" style="fill:#1f77b4;"/>
   </g>
   <g id="patch_93">
    <path clip-path="url(#p35ededd5fd)" d="M 366.021818 307.584 
L 369.268364 307.584 
L 369.268364 302.666343 
L 366.021818 302.666343 
z
" style="fill:#1f77b4;"/>
   </g>
   <g id="patch_94">
    <path clip-path="url(#p35ededd5fd)" d="M 369.268364 307.584 
L 372.514909 307.584 
L 372.514909 305.082034 
L 369.268364 305.082034 
z
" style="fill:#1f77b4;"/>
   </g>
   <g id="patch_95">
    <path clip-path="url(#p35ededd5fd)" d="M 372.514909 307.584 
L 375.761455 307.584 
L 375.761455 305.858506 
L 372.514909 305.858506 
z
" style="fill:#1f77b4;"/>
   </g>
   <g id="patch_96">
    <path clip-path="url(#p35ededd5fd)" d="M 375.761455 307.584 
L 379.008 307.584 
L 379.008 306.376154 
L 375.761455 306.376154 
z
" style="fill:#1f77b4;"/>
   </g>
   <g id="patch_97">
    <path clip-path="url(#p35ededd5fd)" d="M 379.008 307.584 
L 382.254545 307.584 
L 382.254545 306.548704 
L 379.008 306.548704 
z
" style="fill:#1f77b4;"/>
   </g>
   <g id="patch_98">
    <path clip-path="url(#p35ededd5fd)" d="M 382.254545 307.584 
L 385.501091 307.584 
L 385.501091 307.066352 
L 382.254545 307.066352 
z
" style="fill:#1f77b4;"/>
   </g>
   <g id="patch_99">
    <path clip-path="url(#p35ededd5fd)" d="M 385.501091 307.584 
L 388.747636 307.584 
L 388.747636 307.325176 
L 385.501091 307.325176 
z
" style="fill:#1f77b4;"/>
   </g>
   <g id="patch_100">
    <path clip-path="url(#p35ededd5fd)" d="M 388.747636 307.584 
L 391.994182 307.584 
L 391.994182 307.238901 
L 388.747636 307.238901 
z
" style="fill:#1f77b4;"/>
   </g>
   <g id="patch_101">
    <path clip-path="url(#p35ededd5fd)" d="M 391.994182 307.584 
L 395.240727 307.584 
L 395.240727 307.584 
L 391.994182 307.584 
z
" style="fill:#1f77b4;"/>
   </g>
   <g id="patch_102">
    <path clip-path="url(#p35ededd5fd)" d="M 395.240727 307.584 
L 398.487273 307.584 
L 398.487273 307.325176 
L 395.240727 307.325176 
z
" style="fill:#1f77b4;"/>
   </g>
   <g id="matplotlib.axis_1">
    <g id="xtick_1">
     <g id="line2d_1">
      <defs>
       <path d="M 0 0 
L 0 3.5 
" id="mfabed71314" style="stroke:#000000;stroke-width:0.8;"/>
      </defs>
      <g>
       <use style="stroke:#000000;stroke-width:0.8;" x="66.892213" xlink:href="#mfabed71314" y="307.584"/>
      </g>
     </g>
     <g id="text_1">
      <!-- −3 -->
      <defs>
       <path d="M 10.59375 35.5 
L 73.1875 35.5 
L 73.1875 27.203125 
L 10.59375 27.203125 
z
" id="DejaVuSans-8722"/>
       <path d="M 40.578125 39.3125 
Q 47.65625 37.796875 51.625 33 
Q 55.609375 28.21875 55.609375 21.1875 
Q 55.609375 10.40625 48.1875 4.484375 
Q 40.765625 -1.421875 27.09375 -1.421875 
Q 22.515625 -1.421875 17.65625 -0.515625 
Q 12.796875 0.390625 7.625 2.203125 
L 7.625 11.71875 
Q 11.71875 9.328125 16.59375 8.109375 
Q 21.484375 6.890625 26.8125 6.890625 
Q 36.078125 6.890625 40.9375 10.546875 
Q 45.796875 14.203125 45.796875 21.1875 
Q 45.796875 27.640625 41.28125 31.265625 
Q 36.765625 34.90625 28.71875 34.90625 
L 20.21875 34.90625 
L 20.21875 43.015625 
L 29.109375 43.015625 
Q 36.375 43.015625 40.234375 45.921875 
Q 44.09375 48.828125 44.09375 54.296875 
Q 44.09375 59.90625 40.109375 62.90625 
Q 36.140625 65.921875 28.71875 65.921875 
Q 24.65625 65.921875 20.015625 65.03125 
Q 15.375 64.15625 9.8125 62.3125 
L 9.8125 71.09375 
Q 15.4375 72.65625 20.34375 73.4375 
Q 25.25 74.21875 29.59375 74.21875 
Q 40.828125 74.21875 47.359375 69.109375 
Q 53.90625 64.015625 53.90625 55.328125 
Q 53.90625 49.265625 50.4375 45.09375 
Q 46.96875 40.921875 40.578125 39.3125 
z
" id="DejaVuSans-51"/>
      </defs>
      <g transform="translate(54.361354 327.501344)scale(0.17 -0.17)">
       <use xlink:href="#DejaVuSans-8722"/>
       <use x="83.789062" xlink:href="#DejaVuSans-51"/>
      </g>
     </g>
    </g>
    <g id="xtick_2">
     <g id="line2d_2">
      <g>
       <use style="stroke:#000000;stroke-width:0.8;" x="122.951719" xlink:href="#mfabed71314" y="307.584"/>
      </g>
     </g>
     <g id="text_2">
      <!-- −2 -->
      <defs>
       <path d="M 19.1875 8.296875 
L 53.609375 8.296875 
L 53.609375 0 
L 7.328125 0 
L 7.328125 8.296875 
Q 12.9375 14.109375 22.625 23.890625 
Q 32.328125 33.6875 34.8125 36.53125 
Q 39.546875 41.84375 41.421875 45.53125 
Q 43.3125 49.21875 43.3125 52.78125 
Q 43.3125 58.59375 39.234375 62.25 
Q 35.15625 65.921875 28.609375 65.921875 
Q 23.96875 65.921875 18.8125 64.3125 
Q 13.671875 62.703125 7.8125 59.421875 
L 7.8125 69.390625 
Q 13.765625 71.78125 18.9375 73 
Q 24.125 74.21875 28.421875 74.21875 
Q 39.75 74.21875 46.484375 68.546875 
Q 53.21875 62.890625 53.21875 53.421875 
Q 53.21875 48.921875 51.53125 44.890625 
Q 49.859375 40.875 45.40625 35.40625 
Q 44.1875 33.984375 37.640625 27.21875 
Q 31.109375 20.453125 19.1875 8.296875 
z
" id="DejaVuSans-50"/>
      </defs>
      <g transform="translate(110.420859 327.501344)scale(0.17 -0.17)">
       <use xlink:href="#DejaVuSans-8722"/>
       <use x="83.789062" xlink:href="#DejaVuSans-50"/>
      </g>
     </g>
    </g>
    <g id="xtick_3">
     <g id="line2d_3">
      <g>
       <use style="stroke:#000000;stroke-width:0.8;" x="179.011224" xlink:href="#mfabed71314" y="307.584"/>
      </g>
     </g>
     <g id="text_3">
      <!-- −1 -->
      <defs>
       <path d="M 12.40625 8.296875 
L 28.515625 8.296875 
L 28.515625 63.921875 
L 10.984375 60.40625 
L 10.984375 69.390625 
L 28.421875 72.90625 
L 38.28125 72.90625 
L 38.28125 8.296875 
L 54.390625 8.296875 
L 54.390625 0 
L 12.40625 0 
z
" id="DejaVuSans-49"/>
      </defs>
      <g transform="translate(166.480365 327.501344)scale(0.17 -0.17)">
       <use xlink:href="#DejaVuSans-8722"/>
       <use x="83.789062" xlink:href="#DejaVuSans-49"/>
      </g>
     </g>
    </g>
    <g id="xtick_4">
     <g id="line2d_4">
      <g>
       <use style="stroke:#000000;stroke-width:0.8;" x="235.07073" xlink:href="#mfabed71314" y="307.584"/>
      </g>
     </g>
     <g id="text_4">
      <!-- 0 -->
      <defs>
       <path d="M 31.78125 66.40625 
Q 24.171875 66.40625 20.328125 58.90625 
Q 16.5 51.421875 16.5 36.375 
Q 16.5 21.390625 20.328125 13.890625 
Q 24.171875 6.390625 31.78125 6.390625 
Q 39.453125 6.390625 43.28125 13.890625 
Q 47.125 21.390625 47.125 36.375 
Q 47.125 51.421875 43.28125 58.90625 
Q 39.453125 66.40625 31.78125 66.40625 
z
M 31.78125 74.21875 
Q 44.046875 74.21875 50.515625 64.515625 
Q 56.984375 54.828125 56.984375 36.375 
Q 56.984375 17.96875 50.515625 8.265625 
Q 44.046875 -1.421875 31.78125 -1.421875 
Q 19.53125 -1.421875 13.0625 8.265625 
Q 6.59375 17.96875 6.59375 36.375 
Q 6.59375 54.828125 13.0625 64.515625 
Q 19.53125 74.21875 31.78125 74.21875 
z
" id="DejaVuSans-48"/>
      </defs>
      <g transform="translate(229.662605 327.501344)scale(0.17 -0.17)">
       <use xlink:href="#DejaVuSans-48"/>
      </g>
     </g>
    </g>
    <g id="xtick_5">
     <g id="line2d_5">
      <g>
       <use style="stroke:#000000;stroke-width:0.8;" x="291.130236" xlink:href="#mfabed71314" y="307.584"/>
      </g>
     </g>
     <g id="text_5">
      <!-- 1 -->
      <g transform="translate(285.722111 327.501344)scale(0.17 -0.17)">
       <use xlink:href="#DejaVuSans-49"/>
      </g>
     </g>
    </g>
    <g id="xtick_6">
     <g id="line2d_6">
      <g>
       <use style="stroke:#000000;stroke-width:0.8;" x="347.189742" xlink:href="#mfabed71314" y="307.584"/>
      </g>
     </g>
     <g id="text_6">
      <!-- 2 -->
      <g transform="translate(341.781617 327.501344)scale(0.17 -0.17)">
       <use xlink:href="#DejaVuSans-50"/>
      </g>
     </g>
    </g>
    <g id="xtick_7">
     <g id="line2d_7">
      <g>
       <use style="stroke:#000000;stroke-width:0.8;" x="403.249247" xlink:href="#mfabed71314" y="307.584"/>
      </g>
     </g>
     <g id="text_7">
      <!-- 3 -->
      <g transform="translate(397.841122 327.501344)scale(0.17 -0.17)">
       <use xlink:href="#DejaVuSans-51"/>
      </g>
     </g>
    </g>
    <g id="text_8">
     <!-- Compressed value -->
     <defs>
      <path d="M 64.40625 67.28125 
L 64.40625 56.890625 
Q 59.421875 61.53125 53.78125 63.8125 
Q 48.140625 66.109375 41.796875 66.109375 
Q 29.296875 66.109375 22.65625 58.46875 
Q 16.015625 50.828125 16.015625 36.375 
Q 16.015625 21.96875 22.65625 14.328125 
Q 29.296875 6.6875 41.796875 6.6875 
Q 48.140625 6.6875 53.78125 8.984375 
Q 59.421875 11.28125 64.40625 15.921875 
L 64.40625 5.609375 
Q 59.234375 2.09375 53.4375 0.328125 
Q 47.65625 -1.421875 41.21875 -1.421875 
Q 24.65625 -1.421875 15.125 8.703125 
Q 5.609375 18.84375 5.609375 36.375 
Q 5.609375 53.953125 15.125 64.078125 
Q 24.65625 74.21875 41.21875 74.21875 
Q 47.75 74.21875 53.53125 72.484375 
Q 59.328125 70.75 64.40625 67.28125 
z
" id="DejaVuSans-67"/>
      <path d="M 30.609375 48.390625 
Q 23.390625 48.390625 19.1875 42.75 
Q 14.984375 37.109375 14.984375 27.296875 
Q 14.984375 17.484375 19.15625 11.84375 
Q 23.34375 6.203125 30.609375 6.203125 
Q 37.796875 6.203125 41.984375 11.859375 
Q 46.1875 17.53125 46.1875 27.296875 
Q 46.1875 37.015625 41.984375 42.703125 
Q 37.796875 48.390625 30.609375 48.390625 
z
M 30.609375 56 
Q 42.328125 56 49.015625 48.375 
Q 55.71875 40.765625 55.71875 27.296875 
Q 55.71875 13.875 49.015625 6.21875 
Q 42.328125 -1.421875 30.609375 -1.421875 
Q 18.84375 -1.421875 12.171875 6.21875 
Q 5.515625 13.875 5.515625 27.296875 
Q 5.515625 40.765625 12.171875 48.375 
Q 18.84375 56 30.609375 56 
z
" id="DejaVuSans-111"/>
      <path d="M 52 44.1875 
Q 55.375 50.25 60.0625 53.125 
Q 64.75 56 71.09375 56 
Q 79.640625 56 84.28125 50.015625 
Q 88.921875 44.046875 88.921875 33.015625 
L 88.921875 0 
L 79.890625 0 
L 79.890625 32.71875 
Q 79.890625 40.578125 77.09375 44.375 
Q 74.3125 48.1875 68.609375 48.1875 
Q 61.625 48.1875 57.5625 43.546875 
Q 53.515625 38.921875 53.515625 30.90625 
L 53.515625 0 
L 44.484375 0 
L 44.484375 32.71875 
Q 44.484375 40.625 41.703125 44.40625 
Q 38.921875 48.1875 33.109375 48.1875 
Q 26.21875 48.1875 22.15625 43.53125 
Q 18.109375 38.875 18.109375 30.90625 
L 18.109375 0 
L 9.078125 0 
L 9.078125 54.6875 
L 18.109375 54.6875 
L 18.109375 46.1875 
Q 21.1875 51.21875 25.484375 53.609375 
Q 29.78125 56 35.6875 56 
Q 41.65625 56 45.828125 52.96875 
Q 50 49.953125 52 44.1875 
z
" id="DejaVuSans-109"/>
      <path d="M 18.109375 8.203125 
L 18.109375 -20.796875 
L 9.078125 -20.796875 
L 9.078125 54.6875 
L 18.109375 54.6875 
L 18.109375 46.390625 
Q 20.953125 51.265625 25.265625 53.625 
Q 29.59375 56 35.59375 56 
Q 45.5625 56 51.78125 48.09375 
Q 58.015625 40.1875 58.015625 27.296875 
Q 58.015625 14.40625 51.78125 6.484375 
Q 45.5625 -1.421875 35.59375 -1.421875 
Q 29.59375 -1.421875 25.265625 0.953125 
Q 20.953125 3.328125 18.109375 8.203125 
z
M 48.6875 27.296875 
Q 48.6875 37.203125 44.609375 42.84375 
Q 40.53125 48.484375 33.40625 48.484375 
Q 26.265625 48.484375 22.1875 42.84375 
Q 18.109375 37.203125 18.109375 27.296875 
Q 18.109375 17.390625 22.1875 11.75 
Q 26.265625 6.109375 33.40625 6.109375 
Q 40.53125 6.109375 44.609375 11.75 
Q 48.6875 17.390625 48.6875 27.296875 
z
" id="DejaVuSans-112"/>
      <path d="M 41.109375 46.296875 
Q 39.59375 47.171875 37.8125 47.578125 
Q 36.03125 48 33.890625 48 
Q 26.265625 48 22.1875 43.046875 
Q 18.109375 38.09375 18.109375 28.8125 
L 18.109375 0 
L 9.078125 0 
L 9.078125 54.6875 
L 18.109375 54.6875 
L 18.109375 46.1875 
Q 20.953125 51.171875 25.484375 53.578125 
Q 30.03125 56 36.53125 56 
Q 37.453125 56 38.578125 55.875 
Q 39.703125 55.765625 41.0625 55.515625 
z
" id="DejaVuSans-114"/>
      <path d="M 56.203125 29.59375 
L 56.203125 25.203125 
L 14.890625 25.203125 
Q 15.484375 15.921875 20.484375 11.0625 
Q 25.484375 6.203125 34.421875 6.203125 
Q 39.59375 6.203125 44.453125 7.46875 
Q 49.3125 8.734375 54.109375 11.28125 
L 54.109375 2.78125 
Q 49.265625 0.734375 44.1875 -0.34375 
Q 39.109375 -1.421875 33.890625 -1.421875 
Q 20.796875 -1.421875 13.15625 6.1875 
Q 5.515625 13.8125 5.515625 26.8125 
Q 5.515625 40.234375 12.765625 48.109375 
Q 20.015625 56 32.328125 56 
Q 43.359375 56 49.78125 48.890625 
Q 56.203125 41.796875 56.203125 29.59375 
z
M 47.21875 32.234375 
Q 47.125 39.59375 43.09375 43.984375 
Q 39.0625 48.390625 32.421875 48.390625 
Q 24.90625 48.390625 20.390625 44.140625 
Q 15.875 39.890625 15.1875 32.171875 
z
" id="DejaVuSans-101"/>
      <path d="M 44.28125 53.078125 
L 44.28125 44.578125 
Q 40.484375 46.53125 36.375 47.5 
Q 32.28125 48.484375 27.875 48.484375 
Q 21.1875 48.484375 17.84375 46.4375 
Q 14.5 44.390625 14.5 40.28125 
Q 14.5 37.15625 16.890625 35.375 
Q 19.28125 33.59375 26.515625 31.984375 
L 29.59375 31.296875 
Q 39.15625 29.25 43.1875 25.515625 
Q 47.21875 21.78125 47.21875 15.09375 
Q 47.21875 7.46875 41.1875 3.015625 
Q 35.15625 -1.421875 24.609375 -1.421875 
Q 20.21875 -1.421875 15.453125 -0.5625 
Q 10.6875 0.296875 5.421875 2 
L 5.421875 11.28125 
Q 10.40625 8.6875 15.234375 7.390625 
Q 20.0625 6.109375 24.8125 6.109375 
Q 31.15625 6.109375 34.5625 8.28125 
Q 37.984375 10.453125 37.984375 14.40625 
Q 37.984375 18.0625 35.515625 20.015625 
Q 33.0625 21.96875 24.703125 23.78125 
L 21.578125 24.515625 
Q 13.234375 26.265625 9.515625 29.90625 
Q 5.8125 33.546875 5.8125 39.890625 
Q 5.8125 47.609375 11.28125 51.796875 
Q 16.75 56 26.8125 56 
Q 31.78125 56 36.171875 55.265625 
Q 40.578125 54.546875 44.28125 53.078125 
z
" id="DejaVuSans-115"/>
      <path d="M 45.40625 46.390625 
L 45.40625 75.984375 
L 54.390625 75.984375 
L 54.390625 0 
L 45.40625 0 
L 45.40625 8.203125 
Q 42.578125 3.328125 38.25 0.953125 
Q 33.9375 -1.421875 27.875 -1.421875 
Q 17.96875 -1.421875 11.734375 6.484375 
Q 5.515625 14.40625 5.515625 27.296875 
Q 5.515625 40.1875 11.734375 48.09375 
Q 17.96875 56 27.875 56 
Q 33.9375 56 38.25 53.625 
Q 42.578125 51.265625 45.40625 46.390625 
z
M 14.796875 27.296875 
Q 14.796875 17.390625 18.875 11.75 
Q 22.953125 6.109375 30.078125 6.109375 
Q 37.203125 6.109375 41.296875 11.75 
Q 45.40625 17.390625 45.40625 27.296875 
Q 45.40625 37.203125 41.296875 42.84375 
Q 37.203125 48.484375 30.078125 48.484375 
Q 22.953125 48.484375 18.875 42.84375 
Q 14.796875 37.203125 14.796875 27.296875 
z
" id="DejaVuSans-100"/>
      <path id="DejaVuSans-32"/>
      <path d="M 2.984375 54.6875 
L 12.5 54.6875 
L 29.59375 8.796875 
L 46.6875 54.6875 
L 56.203125 54.6875 
L 35.6875 0 
L 23.484375 0 
z
" id="DejaVuSans-118"/>
      <path d="M 34.28125 27.484375 
Q 23.390625 27.484375 19.1875 25 
Q 14.984375 22.515625 14.984375 16.5 
Q 14.984375 11.71875 18.140625 8.90625 
Q 21.296875 6.109375 26.703125 6.109375 
Q 34.1875 6.109375 38.703125 11.40625 
Q 43.21875 16.703125 43.21875 25.484375 
L 43.21875 27.484375 
z
M 52.203125 31.203125 
L 52.203125 0 
L 43.21875 0 
L 43.21875 8.296875 
Q 40.140625 3.328125 35.546875 0.953125 
Q 30.953125 -1.421875 24.3125 -1.421875 
Q 15.921875 -1.421875 10.953125 3.296875 
Q 6 8.015625 6 15.921875 
Q 6 25.140625 12.171875 29.828125 
Q 18.359375 34.515625 30.609375 34.515625 
L 43.21875 34.515625 
L 43.21875 35.40625 
Q 43.21875 41.609375 39.140625 45 
Q 35.0625 48.390625 27.6875 48.390625 
Q 23 48.390625 18.546875 47.265625 
Q 14.109375 46.140625 10.015625 43.890625 
L 10.015625 52.203125 
Q 14.9375 54.109375 19.578125 55.046875 
Q 24.21875 56 28.609375 56 
Q 40.484375 56 46.34375 49.84375 
Q 52.203125 43.703125 52.203125 31.203125 
z
" id="DejaVuSans-97"/>
      <path d="M 9.421875 75.984375 
L 18.40625 75.984375 
L 18.40625 0 
L 9.421875 0 
z
" id="DejaVuSans-108"/>
      <path d="M 8.5 21.578125 
L 8.5 54.6875 
L 17.484375 54.6875 
L 17.484375 21.921875 
Q 17.484375 14.15625 20.5 10.265625 
Q 23.53125 6.390625 29.59375 6.390625 
Q 36.859375 6.390625 41.078125 11.03125 
Q 45.3125 15.671875 45.3125 23.6875 
L 45.3125 54.6875 
L 54.296875 54.6875 
L 54.296875 0 
L 45.3125 0 
L 45.3125 8.40625 
Q 42.046875 3.421875 37.71875 1 
Q 33.40625 -1.421875 27.6875 -1.421875 
Q 18.265625 -1.421875 13.375 4.4375 
Q 8.5 10.296875 8.5 21.578125 
z
M 31.109375 56 
z
" id="DejaVuSans-117"/>
     </defs>
     <g transform="translate(96.861562 357.832125)scale(0.3 -0.3)">
      <use xlink:href="#DejaVuSans-67"/>
      <use x="69.824219" xlink:href="#DejaVuSans-111"/>
      <use x="131.005859" xlink:href="#DejaVuSans-109"/>
      <use x="228.417969" xlink:href="#DejaVuSans-112"/>
      <use x="291.894531" xlink:href="#DejaVuSans-114"/>
      <use x="332.976562" xlink:href="#DejaVuSans-101"/>
      <use x="394.5" xlink:href="#DejaVuSans-115"/>
      <use x="446.599609" xlink:href="#DejaVuSans-115"/>
      <use x="498.699219" xlink:href="#DejaVuSans-101"/>
      <use x="560.222656" xlink:href="#DejaVuSans-100"/>
      <use x="623.699219" xlink:href="#DejaVuSans-32"/>
      <use x="655.486328" xlink:href="#DejaVuSans-118"/>
      <use x="714.666016" xlink:href="#DejaVuSans-97"/>
      <use x="775.945312" xlink:href="#DejaVuSans-108"/>
      <use x="803.728516" xlink:href="#DejaVuSans-117"/>
      <use x="867.107422" xlink:href="#DejaVuSans-101"/>
     </g>
    </g>
   </g>
   <g id="matplotlib.axis_2">
    <g id="ytick_1">
     <g id="line2d_8">
      <defs>
       <path d="M 0 0 
L -3.5 0 
" id="m74a4f4c5f6" style="stroke:#000000;stroke-width:0.8;"/>
      </defs>
      <g>
       <use style="stroke:#000000;stroke-width:0.8;" x="57.6" xlink:href="#m74a4f4c5f6" y="307.584"/>
      </g>
     </g>
     <g id="text_9">
      <!-- 0.0 -->
      <defs>
       <path d="M 10.6875 12.40625 
L 21 12.40625 
L 21 0 
L 10.6875 0 
z
" id="DejaVuSans-46"/>
      </defs>
      <g transform="translate(23.564687 314.042672)scale(0.17 -0.17)">
       <use xlink:href="#DejaVuSans-48"/>
       <use x="63.623047" xlink:href="#DejaVuSans-46"/>
       <use x="95.410156" xlink:href="#DejaVuSans-48"/>
      </g>
     </g>
    </g>
    <g id="ytick_2">
     <g id="line2d_9">
      <g>
       <use style="stroke:#000000;stroke-width:0.8;" x="57.6" xlink:href="#m74a4f4c5f6" y="256.620909"/>
      </g>
     </g>
     <g id="text_10">
      <!-- 0.1 -->
      <g transform="translate(23.564687 263.079581)scale(0.17 -0.17)">
       <use xlink:href="#DejaVuSans-48"/>
       <use x="63.623047" xlink:href="#DejaVuSans-46"/>
       <use x="95.410156" xlink:href="#DejaVuSans-49"/>
      </g>
     </g>
    </g>
    <g id="ytick_3">
     <g id="line2d_10">
      <g>
       <use style="stroke:#000000;stroke-width:0.8;" x="57.6" xlink:href="#m74a4f4c5f6" y="205.657818"/>
      </g>
     </g>
     <g id="text_11">
      <!-- 0.2 -->
      <g transform="translate(23.564687 212.11649)scale(0.17 -0.17)">
       <use xlink:href="#DejaVuSans-48"/>
       <use x="63.623047" xlink:href="#DejaVuSans-46"/>
       <use x="95.410156" xlink:href="#DejaVuSans-50"/>
      </g>
     </g>
    </g>
    <g id="ytick_4">
     <g id="line2d_11">
      <g>
       <use style="stroke:#000000;stroke-width:0.8;" x="57.6" xlink:href="#m74a4f4c5f6" y="154.694727"/>
      </g>
     </g>
     <g id="text_12">
      <!-- 0.3 -->
      <g transform="translate(23.564687 161.153399)scale(0.17 -0.17)">
       <use xlink:href="#DejaVuSans-48"/>
       <use x="63.623047" xlink:href="#DejaVuSans-46"/>
       <use x="95.410156" xlink:href="#DejaVuSans-51"/>
      </g>
     </g>
    </g>
    <g id="ytick_5">
     <g id="line2d_12">
      <g>
       <use style="stroke:#000000;stroke-width:0.8;" x="57.6" xlink:href="#m74a4f4c5f6" y="103.731637"/>
      </g>
     </g>
     <g id="text_13">
      <!-- 0.4 -->
      <defs>
       <path d="M 37.796875 64.3125 
L 12.890625 25.390625 
L 37.796875 25.390625 
z
M 35.203125 72.90625 
L 47.609375 72.90625 
L 47.609375 25.390625 
L 58.015625 25.390625 
L 58.015625 17.1875 
L 47.609375 17.1875 
L 47.609375 0 
L 37.796875 0 
L 37.796875 17.1875 
L 4.890625 17.1875 
L 4.890625 26.703125 
z
" id="DejaVuSans-52"/>
      </defs>
      <g transform="translate(23.564687 110.190308)scale(0.17 -0.17)">
       <use xlink:href="#DejaVuSans-48"/>
       <use x="63.623047" xlink:href="#DejaVuSans-46"/>
       <use x="95.410156" xlink:href="#DejaVuSans-52"/>
      </g>
     </g>
    </g>
    <g id="ytick_6">
     <g id="line2d_13">
      <g>
       <use style="stroke:#000000;stroke-width:0.8;" x="57.6" xlink:href="#m74a4f4c5f6" y="52.768546"/>
      </g>
     </g>
     <g id="text_14">
      <!-- 0.5 -->
      <defs>
       <path d="M 10.796875 72.90625 
L 49.515625 72.90625 
L 49.515625 64.59375 
L 19.828125 64.59375 
L 19.828125 46.734375 
Q 21.96875 47.46875 24.109375 47.828125 
Q 26.265625 48.1875 28.421875 48.1875 
Q 40.625 48.1875 47.75 41.5 
Q 54.890625 34.8125 54.890625 23.390625 
Q 54.890625 11.625 47.5625 5.09375 
Q 40.234375 -1.421875 26.90625 -1.421875 
Q 22.3125 -1.421875 17.546875 -0.640625 
Q 12.796875 0.140625 7.71875 1.703125 
L 7.71875 11.625 
Q 12.109375 9.234375 16.796875 8.0625 
Q 21.484375 6.890625 26.703125 6.890625 
Q 35.15625 6.890625 40.078125 11.328125 
Q 45.015625 15.765625 45.015625 23.390625 
Q 45.015625 31 40.078125 35.4375 
Q 35.15625 39.890625 26.703125 39.890625 
Q 22.75 39.890625 18.8125 39.015625 
Q 14.890625 38.140625 10.796875 36.28125 
z
" id="DejaVuSans-53"/>
      </defs>
      <g transform="translate(23.564687 59.227218)scale(0.17 -0.17)">
       <use xlink:href="#DejaVuSans-48"/>
       <use x="63.623047" xlink:href="#DejaVuSans-46"/>
       <use x="95.410156" xlink:href="#DejaVuSans-53"/>
      </g>
     </g>
    </g>
    <g id="text_15">
     <!-- Density -->
     <defs>
      <path d="M 19.671875 64.796875 
L 19.671875 8.109375 
L 31.59375 8.109375 
Q 46.6875 8.109375 53.6875 14.9375 
Q 60.6875 21.78125 60.6875 36.53125 
Q 60.6875 51.171875 53.6875 57.984375 
Q 46.6875 64.796875 31.59375 64.796875 
z
M 9.8125 72.90625 
L 30.078125 72.90625 
Q 51.265625 72.90625 61.171875 64.09375 
Q 71.09375 55.28125 71.09375 36.53125 
Q 71.09375 17.671875 61.125 8.828125 
Q 51.171875 0 30.078125 0 
L 9.8125 0 
z
" id="DejaVuSans-68"/>
      <path d="M 54.890625 33.015625 
L 54.890625 0 
L 45.90625 0 
L 45.90625 32.71875 
Q 45.90625 40.484375 42.875 44.328125 
Q 39.84375 48.1875 33.796875 48.1875 
Q 26.515625 48.1875 22.3125 43.546875 
Q 18.109375 38.921875 18.109375 30.90625 
L 18.109375 0 
L 9.078125 0 
L 9.078125 54.6875 
L 18.109375 54.6875 
L 18.109375 46.1875 
Q 21.34375 51.125 25.703125 53.5625 
Q 30.078125 56 35.796875 56 
Q 45.21875 56 50.046875 50.171875 
Q 54.890625 44.34375 54.890625 33.015625 
z
" id="DejaVuSans-110"/>
      <path d="M 9.421875 54.6875 
L 18.40625 54.6875 
L 18.40625 0 
L 9.421875 0 
z
M 9.421875 75.984375 
L 18.40625 75.984375 
L 18.40625 64.59375 
L 9.421875 64.59375 
z
" id="DejaVuSans-105"/>
      <path d="M 18.3125 70.21875 
L 18.3125 54.6875 
L 36.8125 54.6875 
L 36.8125 47.703125 
L 18.3125 47.703125 
L 18.3125 18.015625 
Q 18.3125 11.328125 20.140625 9.421875 
Q 21.96875 7.515625 27.59375 7.515625 
L 36.8125 7.515625 
L 36.8125 0 
L 27.59375 0 
Q 17.1875 0 13.234375 3.875 
Q 9.28125 7.765625 9.28125 18.015625 
L 9.28125 47.703125 
L 2.6875 47.703125 
L 2.6875 54.6875 
L 9.28125 54.6875 
L 9.28125 70.21875 
z
" id="DejaVuSans-116"/>
      <path d="M 32.171875 -5.078125 
Q 28.375 -14.84375 24.75 -17.8125 
Q 21.140625 -20.796875 15.09375 -20.796875 
L 7.90625 -20.796875 
L 7.90625 -13.28125 
L 13.1875 -13.28125 
Q 16.890625 -13.28125 18.9375 -11.515625 
Q 21 -9.765625 23.484375 -3.21875 
L 25.09375 0.875 
L 2.984375 54.6875 
L 12.5 54.6875 
L 29.59375 11.921875 
L 46.6875 54.6875 
L 56.203125 54.6875 
z
" id="DejaVuSans-121"/>
     </defs>
     <g transform="translate(13.325625 231.553781)rotate(-90)scale(0.3 -0.3)">
      <use xlink:href="#DejaVuSans-68"/>
      <use x="77.001953" xlink:href="#DejaVuSans-101"/>
      <use x="138.525391" xlink:href="#DejaVuSans-110"/>
      <use x="201.904297" xlink:href="#DejaVuSans-115"/>
      <use x="254.003906" xlink:href="#DejaVuSans-105"/>
      <use x="281.787109" xlink:href="#DejaVuSans-116"/>
      <use x="320.996094" xlink:href="#DejaVuSans-121"/>
     </g>
    </g>
   </g>
   <g id="line2d_14">
    <path clip-path="url(#p35ededd5fd)" d="M 94.921966 306.759426 
L 95.639198 306.714923 
L 96.491082 306.741274 
L 97.984628 306.617417 
L 98.714226 306.80439 
L 99.218487 306.602283 
L 99.691146 306.51861 
L 100.356165 306.463005 
L 100.850808 306.049906 
L 101.272628 305.841763 
L 102.829379 305.755364 
L 103.660653 305.859117 
L 104.076978 305.633576 
L 104.563376 305.09204 
L 105.695559 303.711938 
L 105.978604 303.807718 
L 106.37157 304.210234 
L 107.542225 305.581821 
L 107.807408 305.393595 
L 108.200374 304.794171 
L 109.55652 302.504805 
L 110.045666 302.131065 
L 110.292988 302.197485 
L 110.591147 302.556336 
L 111.203955 303.294849 
L 111.517228 303.312389 
L 111.919812 303.090719 
L 113.105581 302.2654 
L 113.400993 302.031822 
L 113.741746 301.415707 
L 114.586761 299.816532 
L 114.954995 299.58046 
L 115.222926 299.650612 
L 115.504598 299.987087 
L 116.455411 301.347483 
L 116.654642 301.10674 
L 116.99677 300.257553 
L 117.550495 299.012013 
L 117.804687 298.889512 
L 118.023154 299.040279 
L 118.401006 299.651618 
L 118.737638 300.011931 
L 118.898397 299.907324 
L 119.100376 299.436972 
L 119.47548 297.849392 
L 119.895926 296.439656 
L 120.091035 296.347013 
L 120.26416 296.561216 
L 121.067954 297.888498 
L 121.091313 297.873834 
L 121.283674 297.598808 
L 121.606565 296.663394 
L 122.45158 294.141523 
L 122.850042 293.636854 
L 123.13721 293.577124 
L 123.416133 293.767246 
L 124.055047 294.263847 
L 124.28588 294.097065 
L 124.942656 293.511077 
L 125.210587 293.695365 
L 125.613171 293.919614 
L 125.852248 293.776456 
L 126.291931 293.17546 
L 126.750849 292.237635 
L 127.26198 290.530066 
L 127.729143 289.290585 
L 127.96822 289.149601 
L 128.177069 289.299997 
L 128.787128 289.837918 
L 128.987734 289.637631 
L 129.328487 288.900211 
L 129.930303 287.690868 
L 130.191364 287.579354 
L 130.402961 287.740198 
L 130.703869 288.305651 
L 131.902003 290.850427 
L 132.061388 290.73898 
L 132.263367 290.25766 
L 132.595877 288.768175 
L 133.262271 285.861148 
L 134.140262 283.088819 
L 134.692613 281.322726 
L 135.62419 279.566961 
L 136.241119 278.154435 
L 137.028425 276.074419 
L 137.158956 276.217409 
L 137.352691 276.85154 
L 137.741535 279.103844 
L 138.119387 280.720158 
L 138.248544 280.788073 
L 138.276024 280.764735 
L 138.416173 280.447797 
L 138.670364 279.195472 
L 139.384848 275.525734 
L 139.600567 275.333367 
L 139.761326 275.483118 
L 140.03338 276.120078 
L 141.084496 278.832263 
L 141.307085 278.90722 
L 141.476088 278.701932 
L 141.711043 277.990497 
L 142.17958 275.645686 
L 142.639872 273.870021 
L 142.94765 273.427846 
L 143.211459 273.393413 
L 143.623661 273.624278 
L 144.037238 273.749623 
L 144.328527 273.599165 
L 144.640427 273.161695 
L 144.999043 272.230664 
L 145.90314 269.667086 
L 146.116111 269.686107 
L 146.493963 269.75396 
L 146.673958 269.464575 
L 146.937767 268.528096 
L 147.748432 265.396714 
L 147.914687 265.39388 
L 148.089186 265.69096 
L 148.410704 266.783453 
L 148.985039 268.599815 
L 149.210376 268.743089 
L 149.376631 268.575125 
L 149.617082 267.944697 
L 150.118595 265.813541 
L 150.629726 264.10222 
L 150.99796 263.538905 
L 151.224671 263.510999 
L 151.437642 263.745814 
L 152.093044 264.656167 
L 152.113654 264.641459 
L 152.277161 264.361979 
L 152.524482 263.407315 
L 153.013629 260.395117 
L 153.479417 258.118531 
L 153.695136 257.871079 
L 153.833911 258.020434 
L 154.072988 258.698035 
L 154.750374 260.701513 
L 154.920751 260.706383 
L 155.077388 260.415264 
L 155.302725 259.434478 
L 155.677829 256.588841 
L 156.227432 252.835002 
L 156.517348 252.150581 
L 156.760547 252.053168 
L 157.073821 252.196936 
L 157.424193 252.604303 
L 157.782809 253.405177 
L 158.541261 255.22227 
L 158.542635 255.221769 
L 158.669043 255.056278 
L 158.857282 254.347275 
L 159.17193 252.114719 
L 160.095263 245.245584 
L 160.397545 244.396376 
L 160.547312 244.408706 
L 160.714941 244.749305 
L 161.425302 246.663839 
L 161.478889 246.626628 
L 161.64377 246.293529 
L 161.972157 244.991647 
L 162.475044 243.262739 
L 162.76496 242.943315 
L 163.046631 242.951486 
L 163.787221 243.084054 
L 164.369801 242.880479 
L 164.556666 243.267434 
L 164.91803 244.693758 
L 165.214815 245.422219 
L 165.331606 245.344802 
L 165.497861 244.851716 
L 166.235703 242.108944 
L 166.271427 242.126052 
L 166.428064 242.373858 
L 167.087587 243.631614 
L 167.091709 243.629743 
L 167.257964 243.426934 
L 167.562994 242.605161 
L 167.995806 241.627341 
L 168.164809 241.640678 
L 168.347552 241.954551 
L 168.784487 243.325133 
L 169.068906 243.804239 
L 169.207681 243.722705 
L 169.398668 243.260648 
L 170.14338 241.169964 
L 170.144754 241.170383 
L 170.306887 241.33798 
L 170.767179 241.913137 
L 170.783668 241.901164 
L 170.927938 241.633536 
L 171.157398 240.629447 
L 172.957347 231.096644 
L 173.092 231.055834 
L 173.111236 231.072459 
L 173.273369 231.393357 
L 174.053805 233.246122 
L 174.893324 233.799469 
L 175.227208 234.614069 
L 175.872991 236.983392 
L 176.274201 237.973183 
L 176.451448 238.003176 
L 176.597093 237.730019 
L 176.799072 236.781445 
L 177.080744 234.210447 
L 177.606989 226.798079 
L 178.038427 222.21041 
L 178.225292 221.721452 
L 178.240406 221.727758 
L 178.337961 221.924505 
L 178.522078 222.927654 
L 179.556705 229.616302 
L 179.865857 229.986176 
L 180.400346 230.194066 
L 180.949949 230.256824 
L 181.200018 230.040055 
L 181.506422 229.419446 
L 182.083505 228.272255 
L 182.712801 227.603696 
L 183.057676 226.376338 
L 183.509725 225.021602 
L 183.728192 224.909403 
L 183.956277 225.082368 
L 184.427562 225.431107 
L 184.624045 225.294747 
L 184.859 224.80815 
L 185.20525 223.485603 
L 185.947214 220.624309 
L 186.544907 218.923097 
L 187.267635 216.22106 
L 187.280002 216.225303 
L 187.396792 216.40055 
L 187.600145 217.214281 
L 188.40394 220.812919 
L 188.816142 222.246654 
L 189.277808 223.770844 
L 189.390477 223.703266 
L 189.536122 223.221186 
L 189.775199 221.506704 
L 190.786469 213.112997 
L 190.796087 213.115256 
L 190.895015 213.269506 
L 191.073636 214.081896 
L 191.900789 218.66376 
L 191.929643 218.650717 
L 192.049182 218.422787 
L 192.255283 217.438011 
L 192.668859 214.108431 
L 193.313268 209.398658 
L 193.618298 208.492198 
L 193.784553 208.470975 
L 193.953556 208.759788 
L 194.30805 209.94122 
L 194.669414 210.811543 
L 194.815059 210.778098 
L 194.977191 210.412359 
L 195.251993 209.123512 
L 196.091512 204.951867 
L 196.47486 202.985232 
L 197.161863 199.184207 
L 197.25667 199.271765 
L 197.405063 199.850052 
L 197.704596 202.145924 
L 198.144279 205.000528 
L 198.311908 205.202739 
L 198.32977 205.193717 
L 198.461674 204.972514 
L 198.71724 203.997147 
L 199.303941 200.705735 
L 200.199794 195.592473 
L 200.451237 195.291918 
L 200.937636 195.020367 
L 201.150607 194.324934 
L 201.478995 192.335789 
L 202.168747 188.172414 
L 202.35149 187.964162 
L 202.363856 187.970091 
L 202.490264 188.174003 
L 202.712854 189.064769 
L 203.274823 191.344966 
L 203.421842 191.33088 
L 203.607333 190.973951 
L 204.140447 189.909008 
L 204.343801 189.950424 
L 204.769743 190.094601 
L 204.949738 189.822878 
L 205.213547 188.936135 
L 205.848339 186.721038 
L 205.962381 186.803314 
L 206.119018 187.304745 
L 206.382828 189.051626 
L 207.123418 194.220783 
L 207.304787 194.403562 
L 207.314405 194.39896 
L 207.449058 194.197104 
L 207.670273 193.376177 
L 208.009653 191.142601 
L 209.134965 182.882404 
L 209.687316 182.05303 
L 209.985475 181.75735 
L 210.113258 181.928584 
L 210.297375 182.647399 
L 210.683471 185.347238 
L 210.974761 186.584128 
L 211.046209 186.556047 
L 211.068193 186.515497 
L 211.198724 185.957422 
L 211.424061 183.812813 
L 212.255336 174.959922 
L 212.32541 175.007537 
L 212.340524 175.040029 
L 212.476551 175.657969 
L 212.763719 178.264842 
L 213.203401 181.662369 
L 213.39851 181.942722 
L 213.399884 181.942305 
L 213.546903 181.77841 
L 213.872543 181.432064 
L 213.880787 181.437458 
L 214.009943 181.667008 
L 214.213296 182.593862 
L 215.17098 187.755118 
L 215.886838 188.45571 
L 216.235835 188.902743 
L 216.406212 188.810045 
L 216.986044 188.20609 
L 217.03276 188.258578 
L 217.218251 188.706097 
L 217.539769 190.191188 
L 218.772253 196.341573 
L 218.902784 196.289884 
L 219.067665 195.876404 
L 219.367199 194.395434 
L 220.557089 188.006138 
L 221.642555 183.658361 
L 221.689271 183.687559 
L 221.830794 183.986588 
L 222.089107 185.175255 
L 222.63184 187.587526 
L 222.758249 187.629946 
L 222.782981 187.606881 
L 222.93 187.269207 
L 223.224038 185.883416 
L 223.611508 184.421189 
L 223.742038 184.394583 
L 223.761274 184.412825 
L 223.923407 184.754463 
L 224.72308 186.780157 
L 225.340009 187.095817 
L 225.488402 186.897383 
L 225.672519 186.193456 
L 225.930832 184.167619 
L 226.424101 178.059124 
L 227.335068 167.577771 
L 228.09352 160.54087 
L 228.325727 159.941011 
L 228.42603 160.051852 
L 228.600529 160.699674 
L 229.11166 162.757042 
L 229.1254 162.75211 
L 229.227076 162.570131 
L 229.416689 161.640054 
L 229.90721 159.223084 
L 229.993772 159.32868 
L 230.140791 159.997211 
L 230.445821 162.699066 
L 230.852527 165.629388 
L 230.948708 165.738677 
L 230.99405 165.687821 
L 231.113589 165.225474 
L 231.314194 163.383011 
L 231.648077 157.870883 
L 232.391416 145.500743 
L 232.772016 143.015393 
L 233.14025 140.400872 
L 234.019614 132.817182 
L 234.055339 132.84584 
L 234.154267 133.197654 
L 234.319148 134.786857 
L 234.558225 139.623709 
L 234.925085 152.411863 
L 235.603845 175.485445 
L 235.899257 178.998102 
L 236.106732 179.535406 
L 236.216652 179.429177 
L 236.406265 178.83432 
L 236.718165 177.015006 
L 238.211711 165.345595 
L 238.601929 158.478777 
L 239.202371 148.653754 
L 239.672281 145.008664 
L 240.107842 140.822012 
L 240.827822 134.000835 
L 241.248268 132.171141 
L 241.560168 130.561273 
L 241.833595 127.70893 
L 242.196333 121.189324 
L 243.270807 100.435978 
L 243.637667 97.759941 
L 244.056739 96.329891 
L 244.449705 94.758304 
L 244.951218 91.59554 
L 245.59288 87.876442 
L 245.811347 87.580194 
L 245.943251 87.722799 
L 246.178207 88.405241 
L 246.670101 89.757778 
L 246.822616 89.73061 
L 246.998489 89.381017 
L 247.549466 87.92289 
L 247.611297 87.99028 
L 247.741827 88.468352 
L 247.939684 90.207127 
L 248.252958 95.318316 
L 248.993548 107.658986 
L 249.257358 108.947278 
L 249.346668 108.980877 
L 249.38514 108.9368 
L 249.521167 108.509646 
L 249.747878 106.921044 
L 250.135348 102.313519 
L 250.8251 94.451099 
L 251.090284 93.450938 
L 251.18509 93.461521 
L 251.208448 93.493023 
L 251.358215 93.941012 
L 251.672863 95.777804 
L 252.057585 97.534395 
L 252.163383 97.583503 
L 252.197734 97.549064 
L 252.332386 97.175939 
L 252.559098 95.762361 
L 252.941072 91.73889 
L 253.476935 83.604754 
L 254.684687 63.858353 
L 254.738273 63.834952 
L 254.783616 63.907601 
L 254.910024 64.527329 
L 255.15872 67.106908 
L 255.847097 74.434932 
L 256.148005 75.448451 
L 256.836383 76.988802 
L 257.251333 78.024974 
L 257.369498 77.949365 
L 257.523387 77.473159 
L 257.787196 75.774206 
L 258.328555 72.393438 
L 258.482444 72.272823 
L 258.50168 72.284053 
L 258.684423 72.551693 
L 258.908386 72.762575 
L 258.922126 72.752998 
L 259.037543 72.513109 
L 259.212042 71.519392 
L 259.488217 68.407856 
L 260.351094 57.861618 
L 260.454145 57.723191 
L 260.498113 57.769685 
L 260.619026 58.208996 
L 260.841615 60.036307 
L 262.12906 72.47468 
L 262.789957 75.257854 
L 263.242006 76.345804 
L 263.492075 76.512689 
L 263.656956 76.3616 
L 263.876797 75.786939 
L 264.225795 74.132428 
L 264.918295 70.863768 
L 265.039208 70.817699 
L 265.066688 70.843913 
L 265.204089 71.187078 
L 265.426678 72.463422 
L 265.79766 76.113257 
L 266.747099 85.896792 
L 266.983428 86.360292 
L 267.453339 86.738256 
L 267.718522 87.748598 
L 268.097748 88.955882 
L 268.199425 88.873955 
L 268.342322 88.340705 
L 268.586895 86.39004 
L 269.469008 78.625139 
L 269.684727 78.306742 
L 269.80564 78.447661 
L 269.988383 79.089523 
L 270.260436 80.988517 
L 270.779811 86.637478 
L 271.153541 89.440122 
L 271.32804 89.706007 
L 271.343154 89.699716 
L 271.473685 89.501033 
L 271.955961 88.582073 
L 271.983441 88.599112 
L 272.138704 88.866969 
L 272.604493 89.860159 
L 272.641591 89.832378 
L 272.770748 89.523118 
L 272.985093 88.299752 
L 273.813619 82.940839 
L 273.912548 83.050729 
L 274.076055 83.681482 
L 274.405817 86.066094 
L 274.859239 88.839167 
L 275.002136 89.007754 
L 275.032364 88.985996 
L 275.150529 88.697086 
L 275.340142 87.523879 
L 275.616317 84.198823 
L 276.054626 75.721722 
L 276.653693 65.147937 
L 276.87903 64.071075 
L 276.950479 64.187489 
L 277.085131 64.989462 
L 277.333827 68.105266 
L 278.004342 76.821118 
L 278.115637 77.020854 
L 278.158231 76.978751 
L 278.279144 76.547399 
L 278.558067 74.490056 
L 278.937293 72.293387 
L 279.09393 72.157342 
L 279.111792 72.167173 
L 279.280795 72.414593 
L 279.596817 72.786705 
L 279.725974 72.610502 
L 279.929327 71.857017 
L 280.752357 68.363613 
L 281.264862 67.855666 
L 281.469589 66.692095 
L 281.781489 63.377218 
L 282.552307 54.948178 
L 282.807873 54.15321 
L 282.921915 54.213706 
L 283.070308 54.678668 
L 283.309385 56.298724 
L 283.699603 60.739952 
L 284.54187 70.467104 
L 284.719117 70.886747 
L 284.738353 70.877208 
L 284.835908 70.660292 
L 285.010407 69.598493 
L 285.318184 66.075219 
L 286.113735 56.697793 
L 286.45861 55.165458 
L 286.683948 54.896463 
L 286.79799 55.057124 
L 286.958749 55.770796 
L 287.186834 57.988581 
L 287.632013 65.176326 
L 287.965897 68.720036 
L 288.045589 68.853711 
L 288.096427 68.775491 
L 288.215966 68.110527 
L 288.449547 65.267939 
L 289.047241 57.91251 
L 289.144795 57.745965 
L 289.191511 57.803955 
L 289.309676 58.33049 
L 289.535013 60.576472 
L 290.281099 68.601848 
L 290.521551 69.076806 
L 290.848564 69.4883 
L 291.121992 70.454365 
L 291.51221 71.612833 
L 291.649611 71.573345 
L 291.832354 71.169108 
L 292.343485 70.001975 
L 292.479511 70.099551 
L 292.666376 70.592149 
L 292.942552 72.043557 
L 293.31216 75.32719 
L 294.363276 85.506834 
L 294.565255 85.753094 
L 294.715021 85.590654 
L 295.113484 85.092465 
L 295.131346 85.105653 
L 295.26325 85.368679 
L 295.46523 86.376474 
L 295.816975 89.510477 
L 296.903815 101.907102 
L 297.713106 111.574177 
L 298.068974 113.338053 
L 298.424842 114.068072 
L 298.799946 114.403495 
L 298.996429 114.326386 
L 299.279474 113.890324 
L 299.517178 113.703723 
L 299.519926 113.705446 
L 299.642212 113.916221 
L 299.822207 114.775745 
L 300.118993 117.511964 
L 300.884315 124.771627 
L 301.242931 126.129283 
L 302.119548 128.550132 
L 302.599076 131.345694 
L 303.014027 135.063609 
L 303.521036 142.066899 
L 304.072013 148.65332 
L 304.342692 149.78888 
L 304.447117 149.812781 
L 304.477345 149.780531 
L 304.627112 149.391705 
L 304.912905 147.890559 
L 305.544949 144.627897 
L 305.755172 144.420271 
L 305.89532 144.581549 
L 306.109666 145.245513 
L 306.417443 147.018354 
L 306.800791 150.674269 
L 307.829923 161.334732 
L 308.019536 161.574967 
L 308.025032 161.572947 
L 308.163807 161.396 
L 308.743638 160.343595 
L 308.791728 160.382316 
L 308.951113 160.730081 
L 309.206679 161.932232 
L 310.415805 168.488474 
L 310.604044 168.545251 
L 310.775795 168.307399 
L 311.061589 167.44825 
L 311.63455 164.875613 
L 312.151177 162.911265 
L 312.310561 162.820703 
L 312.32705 162.832846 
L 312.460328 163.095881 
L 312.660933 164.08504 
L 312.959093 166.86214 
L 313.914028 176.634258 
L 314.146235 177.038023 
L 314.309742 176.966845 
L 314.605154 176.506972 
L 315.474901 175.124543 
L 315.604057 175.251024 
L 315.763442 175.810617 
L 315.984657 177.558155 
L 316.350143 182.625002 
L 316.8599 188.852418 
L 317.111344 189.768383 
L 317.259736 189.763478 
L 317.461716 189.417325 
L 317.997578 187.940306 
L 318.445505 186.05861 
L 319.065182 183.531945 
L 319.192965 183.492754 
L 319.216323 183.51544 
L 319.353724 183.849586 
L 319.572191 185.083975 
L 319.999507 189.11814 
L 320.41858 192.168964 
L 320.583461 192.427141 
L 320.605445 192.415722 
L 320.723609 192.184791 
L 320.951695 191.12292 
L 321.488932 188.672149 
L 321.627706 188.626802 
L 321.645568 188.641854 
L 321.802205 188.949135 
L 322.149829 190.271814 
L 322.636228 191.798335 
L 323.228425 193.286031 
L 323.533455 195.087756 
L 324.587318 202.147047 
L 324.81403 202.284785 
L 325.245468 202.403134 
L 325.536758 202.875544 
L 326.484823 205.026696 
L 326.791226 206.854944 
L 327.590899 211.993691 
L 327.740666 212.061045 
L 327.75578 212.05017 
L 327.928905 211.766068 
L 328.284773 211.225232 
L 328.291643 211.228695 
L 328.407059 211.421814 
L 328.581558 212.257798 
L 328.864604 214.927849 
L 329.635422 222.5552 
L 329.888239 223.171063 
L 330.058616 223.156045 
L 330.682416 222.840653 
L 330.865159 223.277554 
L 331.117976 224.565517 
L 331.589261 228.445898 
L 332.037187 231.297856 
L 332.314737 231.902764 
L 332.551066 231.963262 
L 332.909682 232.028212 
L 333.106165 232.380226 
L 333.363104 233.383302 
L 333.962172 237.000189 
L 334.401854 238.793258 
L 334.826422 239.64565 
L 335.139696 239.888458 
L 335.305951 239.770277 
L 335.495564 239.295935 
L 335.766243 237.903228 
L 336.418897 234.392829 
L 336.516451 234.471445 
L 336.655226 235.021363 
L 336.887433 237.035149 
L 337.3491 243.478151 
L 338.172131 254.199495 
L 338.599447 257.409014 
L 338.85089 258.009604 
L 339.000657 257.965714 
L 339.2521 257.547101 
L 339.609342 257.098838 
L 339.789337 257.174517 
L 340.035285 257.587856 
L 340.639848 258.639271 
L 340.843201 258.587618 
L 341.241663 258.43774 
L 341.395552 258.748257 
L 341.614019 259.799889 
L 342.564832 265.188361 
L 342.710477 265.056043 
L 343.295804 264.359138 
L 343.497784 264.598627 
L 344.660194 266.777781 
L 345.017436 268.429447 
L 345.634365 272.55041 
L 346.450526 277.676188 
L 346.711587 278.191216 
L 346.868224 278.139877 
L 347.156766 277.692907 
L 347.434315 277.456397 
L 347.596448 277.593213 
L 347.838273 278.163232 
L 348.578863 280.773814 
L 349.695931 284.29691 
L 349.962489 284.516909 
L 350.158972 284.407567 
L 350.476368 283.902252 
L 350.955896 283.24564 
L 351.203218 283.236924 
L 351.443669 283.474222 
L 351.729462 284.108962 
L 352.129299 285.636223 
L 352.70226 287.653921 
L 352.917979 287.793708 
L 353.097974 287.621282 
L 353.599487 287.059705 
L 353.604983 287.063583 
L 353.753375 287.311775 
L 353.980087 288.221472 
L 354.88968 292.395605 
L 355.113643 292.458092 
L 355.512105 292.495727 
L 355.74019 292.854165 
L 356.942447 295.22051 
L 357.897382 296.244808 
L 359.445889 298.319948 
L 360.343115 300.136601 
L 360.594559 300.157878 
L 360.917451 299.915808 
L 361.487664 299.516755 
L 361.811929 299.574914 
L 362.200774 299.891144 
L 362.62122 300.536538 
L 363.835842 302.645451 
L 364.382697 302.944871 
L 365.260688 303.143345 
L 365.554726 302.985875 
L 365.928456 302.476761 
L 366.403862 301.931201 
L 366.645688 301.95719 
L 366.931481 302.251861 
L 368.161218 303.784478 
L 368.444264 303.616431 
L 368.988371 303.285195 
L 369.253554 303.421732 
L 369.756441 304.015069 
L 371.247239 305.750732 
L 371.560513 305.659842 
L 372.068895 305.221739 
L 372.496212 304.984717 
L 372.765517 305.083325 
L 373.104897 305.488992 
L 373.839991 306.394133 
L 374.132655 306.403197 
L 374.509133 306.152774 
L 375.132932 305.769174 
L 375.218121 305.758133 
L 375.218121 305.758133 
" style="fill:none;stroke:#ff7f0e;stroke-linecap:square;stroke-width:1.5;"/>
   </g>
   <g id="patch_103">
    <path d="M 57.6 307.584 
L 57.6 41.472 
" style="fill:none;stroke:#000000;stroke-linecap:square;stroke-linejoin:miter;stroke-width:0.8;"/>
   </g>
   <g id="patch_104">
    <path d="M 414.72 307.584 
L 414.72 41.472 
" style="fill:none;stroke:#000000;stroke-linecap:square;stroke-linejoin:miter;stroke-width:0.8;"/>
   </g>
   <g id="patch_105">
    <path d="M 57.6 307.584 
L 414.72 307.584 
" style="fill:none;stroke:#000000;stroke-linecap:square;stroke-linejoin:miter;stroke-width:0.8;"/>
   </g>
   <g id="patch_106">
    <path d="M 57.6 41.472 
L 414.72 41.472 
" style="fill:none;stroke:#000000;stroke-linecap:square;stroke-linejoin:miter;stroke-width:0.8;"/>
   </g>
  </g>
 </g>
 <defs>
  <clipPath id="p35ededd5fd">
   <rect height="266.112" width="357.12" x="57.6" y="41.472"/>
  </clipPath>
 </defs>
</svg>
