<?xml version="1.0" encoding="utf-8" standalone="no"?>
<!DOCTYPE svg PUBLIC "-//W3C//DTD SVG 1.1//EN"
  "http://www.w3.org/Graphics/SVG/1.1/DTD/svg11.dtd">
<!-- Created with matplotlib (https://matplotlib.org/) -->
<svg height="345.6pt" version="1.1" viewBox="0 0 460.8 345.6" width="460.8pt" xmlns="http://www.w3.org/2000/svg" xmlns:xlink="http://www.w3.org/1999/xlink">
 <defs>
  <style type="text/css">
*{stroke-linecap:butt;stroke-linejoin:round;}
  </style>
 </defs>
 <g id="figure_1">
  <g id="patch_1">
   <path d="M 0 345.6 
L 460.8 345.6 
L 460.8 0 
L 0 0 
z
" style="fill:#ffffff;"/>
  </g>
  <g id="axes_1">
   <g id="patch_2">
    <path d="M 57.6 307.584 
L 414.72 307.584 
L 414.72 41.472 
L 57.6 41.472 
z
" style="fill:#ffffff;"/>
   </g>
   <g id="patch_3">
    <path clip-path="url(#pa31f4423ba)" d="M 107.097018 307.584 
L 109.371966 307.584 
L 109.371966 307.493709 
L 107.097018 307.493709 
z
" style="fill:#1f77b4;"/>
   </g>
   <g id="patch_4">
    <path clip-path="url(#pa31f4423ba)" d="M 109.371966 307.584 
L 111.646915 307.584 
L 111.646915 307.471136 
L 109.371966 307.471136 
z
" style="fill:#1f77b4;"/>
   </g>
   <g id="patch_5">
    <path clip-path="url(#pa31f4423ba)" d="M 111.646915 307.584 
L 113.921863 307.584 
L 113.921863 307.448563 
L 111.646915 307.448563 
z
" style="fill:#1f77b4;"/>
   </g>
   <g id="patch_6">
    <path clip-path="url(#pa31f4423ba)" d="M 113.921863 307.584 
L 116.196811 307.584 
L 116.196811 307.245408 
L 113.921863 307.245408 
z
" style="fill:#1f77b4;"/>
   </g>
   <g id="patch_7">
    <path clip-path="url(#pa31f4423ba)" d="M 116.196811 307.584 
L 118.471759 307.584 
L 118.471759 307.177689 
L 116.196811 307.177689 
z
" style="fill:#1f77b4;"/>
   </g>
   <g id="patch_8">
    <path clip-path="url(#pa31f4423ba)" d="M 118.471759 307.584 
L 120.746707 307.584 
L 120.746707 307.109971 
L 118.471759 307.109971 
z
" style="fill:#1f77b4;"/>
   </g>
   <g id="patch_9">
    <path clip-path="url(#pa31f4423ba)" d="M 120.746707 307.584 
L 123.021656 307.584 
L 123.021656 306.771379 
L 120.746707 306.771379 
z
" style="fill:#1f77b4;"/>
   </g>
   <g id="patch_10">
    <path clip-path="url(#pa31f4423ba)" d="M 123.021656 307.584 
L 125.296604 307.584 
L 125.296604 306.477932 
L 123.021656 306.477932 
z
" style="fill:#1f77b4;"/>
   </g>
   <g id="patch_11">
    <path clip-path="url(#pa31f4423ba)" d="M 125.296604 307.584 
L 127.571552 307.584 
L 127.571552 306.410214 
L 125.296604 306.410214 
z
" style="fill:#1f77b4;"/>
   </g>
   <g id="patch_12">
    <path clip-path="url(#pa31f4423ba)" d="M 127.571552 307.584 
L 129.8465 307.584 
L 129.8465 305.755603 
L 127.571552 305.755603 
z
" style="fill:#1f77b4;"/>
   </g>
   <g id="patch_13">
    <path clip-path="url(#pa31f4423ba)" d="M 129.8465 307.584 
L 132.121449 307.584 
L 132.121449 304.784972 
L 129.8465 304.784972 
z
" style="fill:#1f77b4;"/>
   </g>
   <g id="patch_14">
    <path clip-path="url(#pa31f4423ba)" d="M 132.121449 307.584 
L 134.396397 307.584 
L 134.396397 302.821138 
L 132.121449 302.821138 
z
" style="fill:#1f77b4;"/>
   </g>
   <g id="patch_15">
    <path clip-path="url(#pa31f4423ba)" d="M 134.396397 307.584 
L 136.671345 307.584 
L 136.671345 302.031089 
L 134.396397 302.031089 
z
" style="fill:#1f77b4;"/>
   </g>
   <g id="patch_16">
    <path clip-path="url(#pa31f4423ba)" d="M 136.671345 307.584 
L 138.946293 307.584 
L 138.946293 300.044682 
L 136.671345 300.044682 
z
" style="fill:#1f77b4;"/>
   </g>
   <g id="patch_17">
    <path clip-path="url(#pa31f4423ba)" d="M 138.946293 307.584 
L 141.221241 307.584 
L 141.221241 297.245654 
L 138.946293 297.245654 
z
" style="fill:#1f77b4;"/>
   </g>
   <g id="patch_18">
    <path clip-path="url(#pa31f4423ba)" d="M 141.221241 307.584 
L 143.49619 307.584 
L 143.49619 294.988373 
L 141.221241 294.988373 
z
" style="fill:#1f77b4;"/>
   </g>
   <g id="patch_19">
    <path clip-path="url(#pa31f4423ba)" d="M 143.49619 307.584 
L 145.771138 307.584 
L 145.771138 290.631822 
L 143.49619 290.631822 
z
" style="fill:#1f77b4;"/>
   </g>
   <g id="patch_20">
    <path clip-path="url(#pa31f4423ba)" d="M 145.771138 307.584 
L 148.046086 307.584 
L 148.046086 286.478425 
L 145.771138 286.478425 
z
" style="fill:#1f77b4;"/>
   </g>
   <g id="patch_21">
    <path clip-path="url(#pa31f4423ba)" d="M 148.046086 307.584 
L 150.321034 307.584 
L 150.321034 279.345418 
L 148.046086 279.345418 
z
" style="fill:#1f77b4;"/>
   </g>
   <g id="patch_22">
    <path clip-path="url(#pa31f4423ba)" d="M 150.321034 307.584 
L 152.595982 307.584 
L 152.595982 273.792507 
L 150.321034 273.792507 
z
" style="fill:#1f77b4;"/>
   </g>
   <g id="patch_23">
    <path clip-path="url(#pa31f4423ba)" d="M 152.595982 307.584 
L 154.870931 307.584 
L 154.870931 268.465325 
L 152.595982 268.465325 
z
" style="fill:#1f77b4;"/>
   </g>
   <g id="patch_24">
    <path clip-path="url(#pa31f4423ba)" d="M 154.870931 307.584 
L 157.145879 307.584 
L 157.145879 262.95756 
L 154.870931 262.95756 
z
" style="fill:#1f77b4;"/>
   </g>
   <g id="patch_25">
    <path clip-path="url(#pa31f4423ba)" d="M 157.145879 307.584 
L 159.420827 307.584 
L 159.420827 260.926007 
L 157.145879 260.926007 
z
" style="fill:#1f77b4;"/>
   </g>
   <g id="patch_26">
    <path clip-path="url(#pa31f4423ba)" d="M 159.420827 307.584 
L 161.695775 307.584 
L 161.695775 260.271396 
L 159.420827 260.271396 
z
" style="fill:#1f77b4;"/>
   </g>
   <g id="patch_27">
    <path clip-path="url(#pa31f4423ba)" d="M 161.695775 307.584 
L 163.970723 307.584 
L 163.970723 257.901251 
L 161.695775 257.901251 
z
" style="fill:#1f77b4;"/>
   </g>
   <g id="patch_28">
    <path clip-path="url(#pa31f4423ba)" d="M 163.970723 307.584 
L 166.245672 307.584 
L 166.245672 256.321154 
L 163.970723 256.321154 
z
" style="fill:#1f77b4;"/>
   </g>
   <g id="patch_29">
    <path clip-path="url(#pa31f4423ba)" d="M 166.245672 307.584 
L 168.52062 307.584 
L 168.52062 260.203677 
L 166.245672 260.203677 
z
" style="fill:#1f77b4;"/>
   </g>
   <g id="patch_30">
    <path clip-path="url(#pa31f4423ba)" d="M 168.52062 307.584 
L 170.795568 307.584 
L 170.795568 263.386443 
L 168.52062 263.386443 
z
" style="fill:#1f77b4;"/>
   </g>
   <g id="patch_31">
    <path clip-path="url(#pa31f4423ba)" d="M 170.795568 307.584 
L 173.070516 307.584 
L 173.070516 264.0862 
L 170.795568 264.0862 
z
" style="fill:#1f77b4;"/>
   </g>
   <g id="patch_32">
    <path clip-path="url(#pa31f4423ba)" d="M 173.070516 307.584 
L 175.345464 307.584 
L 175.345464 270.745178 
L 173.070516 270.745178 
z
" style="fill:#1f77b4;"/>
   </g>
   <g id="patch_33">
    <path clip-path="url(#pa31f4423ba)" d="M 175.345464 307.584 
L 177.620413 307.584 
L 177.620413 271.896392 
L 175.345464 271.896392 
z
" style="fill:#1f77b4;"/>
   </g>
   <g id="patch_34">
    <path clip-path="url(#pa31f4423ba)" d="M 177.620413 307.584 
L 179.895361 307.584 
L 179.895361 272.844449 
L 177.620413 272.844449 
z
" style="fill:#1f77b4;"/>
   </g>
   <g id="patch_35">
    <path clip-path="url(#pa31f4423ba)" d="M 179.895361 307.584 
L 182.170309 307.584 
L 182.170309 272.799304 
L 179.895361 272.799304 
z
" style="fill:#1f77b4;"/>
   </g>
   <g id="patch_36">
    <path clip-path="url(#pa31f4423ba)" d="M 182.170309 307.584 
L 184.445257 307.584 
L 184.445257 273.228187 
L 182.170309 273.228187 
z
" style="fill:#1f77b4;"/>
   </g>
   <g id="patch_37">
    <path clip-path="url(#pa31f4423ba)" d="M 184.445257 307.584 
L 186.720205 307.584 
L 186.720205 274.966293 
L 184.445257 274.966293 
z
" style="fill:#1f77b4;"/>
   </g>
   <g id="patch_38">
    <path clip-path="url(#pa31f4423ba)" d="M 186.720205 307.584 
L 188.995154 307.584 
L 188.995154 273.927944 
L 186.720205 273.927944 
z
" style="fill:#1f77b4;"/>
   </g>
   <g id="patch_39">
    <path clip-path="url(#pa31f4423ba)" d="M 188.995154 307.584 
L 191.270102 307.584 
L 191.270102 273.566779 
L 188.995154 273.566779 
z
" style="fill:#1f77b4;"/>
   </g>
   <g id="patch_40">
    <path clip-path="url(#pa31f4423ba)" d="M 191.270102 307.584 
L 193.54505 307.584 
L 193.54505 273.97309 
L 191.270102 273.97309 
z
" style="fill:#1f77b4;"/>
   </g>
   <g id="patch_41">
    <path clip-path="url(#pa31f4423ba)" d="M 193.54505 307.584 
L 195.819998 307.584 
L 195.819998 271.377217 
L 193.54505 271.377217 
z
" style="fill:#1f77b4;"/>
   </g>
   <g id="patch_42">
    <path clip-path="url(#pa31f4423ba)" d="M 195.819998 307.584 
L 198.094947 307.584 
L 198.094947 267.494694 
L 195.819998 267.494694 
z
" style="fill:#1f77b4;"/>
   </g>
   <g id="patch_43">
    <path clip-path="url(#pa31f4423ba)" d="M 198.094947 307.584 
L 200.369895 307.584 
L 200.369895 260.700279 
L 198.094947 260.700279 
z
" style="fill:#1f77b4;"/>
   </g>
   <g id="patch_44">
    <path clip-path="url(#pa31f4423ba)" d="M 200.369895 307.584 
L 202.644843 307.584 
L 202.644843 224.222622 
L 200.369895 224.222622 
z
" style="fill:#1f77b4;"/>
   </g>
   <g id="patch_45">
    <path clip-path="url(#pa31f4423ba)" d="M 202.644843 307.584 
L 204.919791 307.584 
L 204.919791 139.845468 
L 202.644843 139.845468 
z
" style="fill:#1f77b4;"/>
   </g>
   <g id="patch_46">
    <path clip-path="url(#pa31f4423ba)" d="M 204.919791 307.584 
L 207.194739 307.584 
L 207.194739 80.817577 
L 204.919791 80.817577 
z
" style="fill:#1f77b4;"/>
   </g>
   <g id="patch_47">
    <path clip-path="url(#pa31f4423ba)" d="M 207.194739 307.584 
L 209.469688 307.584 
L 209.469688 128.875084 
L 207.194739 128.875084 
z
" style="fill:#1f77b4;"/>
   </g>
   <g id="patch_48">
    <path clip-path="url(#pa31f4423ba)" d="M 209.469688 307.584 
L 211.744636 307.584 
L 211.744636 184.291326 
L 209.469688 184.291326 
z
" style="fill:#1f77b4;"/>
   </g>
   <g id="patch_49">
    <path clip-path="url(#pa31f4423ba)" d="M 211.744636 307.584 
L 214.019584 307.584 
L 214.019584 177.677494 
L 211.744636 177.677494 
z
" style="fill:#1f77b4;"/>
   </g>
   <g id="patch_50">
    <path clip-path="url(#pa31f4423ba)" d="M 214.019584 307.584 
L 216.294532 307.584 
L 216.294532 152.689396 
L 214.019584 152.689396 
z
" style="fill:#1f77b4;"/>
   </g>
   <g id="patch_51">
    <path clip-path="url(#pa31f4423ba)" d="M 216.294532 307.584 
L 218.56948 307.584 
L 218.56948 126.166347 
L 216.294532 126.166347 
z
" style="fill:#1f77b4;"/>
   </g>
   <g id="patch_52">
    <path clip-path="url(#pa31f4423ba)" d="M 218.56948 307.584 
L 220.844429 307.584 
L 220.844429 84.158353 
L 218.56948 84.158353 
z
" style="fill:#1f77b4;"/>
   </g>
   <g id="patch_53">
    <path clip-path="url(#pa31f4423ba)" d="M 220.844429 307.584 
L 223.119377 307.584 
L 223.119377 56.23579 
L 220.844429 56.23579 
z
" style="fill:#1f77b4;"/>
   </g>
   <g id="patch_54">
    <path clip-path="url(#pa31f4423ba)" d="M 223.119377 307.584 
L 225.394325 307.584 
L 225.394325 61.314671 
L 223.119377 61.314671 
z
" style="fill:#1f77b4;"/>
   </g>
   <g id="patch_55">
    <path clip-path="url(#pa31f4423ba)" d="M 225.394325 307.584 
L 227.669273 307.584 
L 227.669273 73.52656 
L 225.394325 73.52656 
z
" style="fill:#1f77b4;"/>
   </g>
   <g id="patch_56">
    <path clip-path="url(#pa31f4423ba)" d="M 227.669273 307.584 
L 229.944221 307.584 
L 229.944221 94.316116 
L 227.669273 94.316116 
z
" style="fill:#1f77b4;"/>
   </g>
   <g id="patch_57">
    <path clip-path="url(#pa31f4423ba)" d="M 229.944221 307.584 
L 232.21917 307.584 
L 232.21917 114.383342 
L 229.944221 114.383342 
z
" style="fill:#1f77b4;"/>
   </g>
   <g id="patch_58">
    <path clip-path="url(#pa31f4423ba)" d="M 232.21917 307.584 
L 234.494118 307.584 
L 234.494118 115.3314 
L 232.21917 115.3314 
z
" style="fill:#1f77b4;"/>
   </g>
   <g id="patch_59">
    <path clip-path="url(#pa31f4423ba)" d="M 234.494118 307.584 
L 236.769066 307.584 
L 236.769066 144.811486 
L 234.494118 144.811486 
z
" style="fill:#1f77b4;"/>
   </g>
   <g id="patch_60">
    <path clip-path="url(#pa31f4423ba)" d="M 236.769066 307.584 
L 239.044014 307.584 
L 239.044014 245.170188 
L 236.769066 245.170188 
z
" style="fill:#1f77b4;"/>
   </g>
   <g id="patch_61">
    <path clip-path="url(#pa31f4423ba)" d="M 239.044014 307.584 
L 241.318962 307.584 
L 241.318962 246.592274 
L 239.044014 246.592274 
z
" style="fill:#1f77b4;"/>
   </g>
   <g id="patch_62">
    <path clip-path="url(#pa31f4423ba)" d="M 241.318962 307.584 
L 243.593911 307.584 
L 243.593911 248.691546 
L 241.318962 248.691546 
z
" style="fill:#1f77b4;"/>
   </g>
   <g id="patch_63">
    <path clip-path="url(#pa31f4423ba)" d="M 243.593911 307.584 
L 245.868859 307.584 
L 245.868859 252.077467 
L 243.593911 252.077467 
z
" style="fill:#1f77b4;"/>
   </g>
   <g id="patch_64">
    <path clip-path="url(#pa31f4423ba)" d="M 245.868859 307.584 
L 248.143807 307.584 
L 248.143807 256.185718 
L 245.868859 256.185718 
z
" style="fill:#1f77b4;"/>
   </g>
   <g id="patch_65">
    <path clip-path="url(#pa31f4423ba)" d="M 248.143807 307.584 
L 250.418755 307.584 
L 250.418755 260.271396 
L 248.143807 260.271396 
z
" style="fill:#1f77b4;"/>
   </g>
   <g id="patch_66">
    <path clip-path="url(#pa31f4423ba)" d="M 250.418755 307.584 
L 252.693703 307.584 
L 252.693703 265.485714 
L 250.418755 265.485714 
z
" style="fill:#1f77b4;"/>
   </g>
   <g id="patch_67">
    <path clip-path="url(#pa31f4423ba)" d="M 252.693703 307.584 
L 254.968652 307.584 
L 254.968652 268.916781 
L 252.693703 268.916781 
z
" style="fill:#1f77b4;"/>
   </g>
   <g id="patch_68">
    <path clip-path="url(#pa31f4423ba)" d="M 254.968652 307.584 
L 257.2436 307.584 
L 257.2436 274.356828 
L 254.968652 274.356828 
z
" style="fill:#1f77b4;"/>
   </g>
   <g id="patch_69">
    <path clip-path="url(#pa31f4423ba)" d="M 257.2436 307.584 
L 259.518548 307.584 
L 259.518548 278.149059 
L 257.2436 278.149059 
z
" style="fill:#1f77b4;"/>
   </g>
   <g id="patch_70">
    <path clip-path="url(#pa31f4423ba)" d="M 259.518548 307.584 
L 261.793496 307.584 
L 261.793496 283.792261 
L 259.518548 283.792261 
z
" style="fill:#1f77b4;"/>
   </g>
   <g id="patch_71">
    <path clip-path="url(#pa31f4423ba)" d="M 261.793496 307.584 
L 264.068445 307.584 
L 264.068445 288.329395 
L 261.793496 288.329395 
z
" style="fill:#1f77b4;"/>
   </g>
   <g id="patch_72">
    <path clip-path="url(#pa31f4423ba)" d="M 264.068445 307.584 
L 266.343393 307.584 
L 266.343393 290.654394 
L 264.068445 290.654394 
z
" style="fill:#1f77b4;"/>
   </g>
   <g id="patch_73">
    <path clip-path="url(#pa31f4423ba)" d="M 266.343393 307.584 
L 268.618341 307.584 
L 268.618341 294.875509 
L 266.343393 294.875509 
z
" style="fill:#1f77b4;"/>
   </g>
   <g id="patch_74">
    <path clip-path="url(#pa31f4423ba)" d="M 268.618341 307.584 
L 270.893289 307.584 
L 270.893289 297.629392 
L 268.618341 297.629392 
z
" style="fill:#1f77b4;"/>
   </g>
   <g id="patch_75">
    <path clip-path="url(#pa31f4423ba)" d="M 270.893289 307.584 
L 273.168237 307.584 
L 273.168237 299.051479 
L 270.893289 299.051479 
z
" style="fill:#1f77b4;"/>
   </g>
   <g id="patch_76">
    <path clip-path="url(#pa31f4423ba)" d="M 273.168237 307.584 
L 275.443186 307.584 
L 275.443186 301.399051 
L 273.168237 301.399051 
z
" style="fill:#1f77b4;"/>
   </g>
   <g id="patch_77">
    <path clip-path="url(#pa31f4423ba)" d="M 275.443186 307.584 
L 277.718134 307.584 
L 277.718134 302.640555 
L 275.443186 302.640555 
z
" style="fill:#1f77b4;"/>
   </g>
   <g id="patch_78">
    <path clip-path="url(#pa31f4423ba)" d="M 277.718134 307.584 
L 279.993082 307.584 
L 279.993082 303.633759 
L 277.718134 303.633759 
z
" style="fill:#1f77b4;"/>
   </g>
   <g id="patch_79">
    <path clip-path="url(#pa31f4423ba)" d="M 279.993082 307.584 
L 282.26803 307.584 
L 282.26803 304.356089 
L 279.993082 304.356089 
z
" style="fill:#1f77b4;"/>
   </g>
   <g id="patch_80">
    <path clip-path="url(#pa31f4423ba)" d="M 282.26803 307.584 
L 284.542978 307.584 
L 284.542978 305.41701 
L 282.26803 305.41701 
z
" style="fill:#1f77b4;"/>
   </g>
   <g id="patch_81">
    <path clip-path="url(#pa31f4423ba)" d="M 284.542978 307.584 
L 286.817927 307.584 
L 286.817927 305.936185 
L 284.542978 305.936185 
z
" style="fill:#1f77b4;"/>
   </g>
   <g id="patch_82">
    <path clip-path="url(#pa31f4423ba)" d="M 286.817927 307.584 
L 289.092875 307.584 
L 289.092875 306.026476 
L 286.817927 306.026476 
z
" style="fill:#1f77b4;"/>
   </g>
   <g id="patch_83">
    <path clip-path="url(#pa31f4423ba)" d="M 289.092875 307.584 
L 291.367823 307.584 
L 291.367823 306.365068 
L 289.092875 306.365068 
z
" style="fill:#1f77b4;"/>
   </g>
   <g id="patch_84">
    <path clip-path="url(#pa31f4423ba)" d="M 291.367823 307.584 
L 293.642771 307.584 
L 293.642771 306.816525 
L 291.367823 306.816525 
z
" style="fill:#1f77b4;"/>
   </g>
   <g id="patch_85">
    <path clip-path="url(#pa31f4423ba)" d="M 293.642771 307.584 
L 295.917719 307.584 
L 295.917719 307.132544 
L 293.642771 307.132544 
z
" style="fill:#1f77b4;"/>
   </g>
   <g id="patch_86">
    <path clip-path="url(#pa31f4423ba)" d="M 295.917719 307.584 
L 298.192668 307.584 
L 298.192668 306.951961 
L 295.917719 306.951961 
z
" style="fill:#1f77b4;"/>
   </g>
   <g id="patch_87">
    <path clip-path="url(#pa31f4423ba)" d="M 298.192668 307.584 
L 300.467616 307.584 
L 300.467616 307.290554 
L 298.192668 307.290554 
z
" style="fill:#1f77b4;"/>
   </g>
   <g id="patch_88">
    <path clip-path="url(#pa31f4423ba)" d="M 300.467616 307.584 
L 302.742564 307.584 
L 302.742564 307.290554 
L 300.467616 307.290554 
z
" style="fill:#1f77b4;"/>
   </g>
   <g id="patch_89">
    <path clip-path="url(#pa31f4423ba)" d="M 302.742564 307.584 
L 305.017512 307.584 
L 305.017512 307.267981 
L 302.742564 307.267981 
z
" style="fill:#1f77b4;"/>
   </g>
   <g id="patch_90">
    <path clip-path="url(#pa31f4423ba)" d="M 305.017512 307.584 
L 307.29246 307.584 
L 307.29246 307.403418 
L 305.017512 307.403418 
z
" style="fill:#1f77b4;"/>
   </g>
   <g id="patch_91">
    <path clip-path="url(#pa31f4423ba)" d="M 307.29246 307.584 
L 309.567409 307.584 
L 309.567409 307.448563 
L 307.29246 307.448563 
z
" style="fill:#1f77b4;"/>
   </g>
   <g id="patch_92">
    <path clip-path="url(#pa31f4423ba)" d="M 309.567409 307.584 
L 311.842357 307.584 
L 311.842357 307.493709 
L 309.567409 307.493709 
z
" style="fill:#1f77b4;"/>
   </g>
   <g id="patch_93">
    <path clip-path="url(#pa31f4423ba)" d="M 311.842357 307.584 
L 314.117305 307.584 
L 314.117305 307.493709 
L 311.842357 307.493709 
z
" style="fill:#1f77b4;"/>
   </g>
   <g id="patch_94">
    <path clip-path="url(#pa31f4423ba)" d="M 314.117305 307.584 
L 316.392253 307.584 
L 316.392253 307.471136 
L 314.117305 307.471136 
z
" style="fill:#1f77b4;"/>
   </g>
   <g id="patch_95">
    <path clip-path="url(#pa31f4423ba)" d="M 316.392253 307.584 
L 318.667201 307.584 
L 318.667201 307.493709 
L 316.392253 307.493709 
z
" style="fill:#1f77b4;"/>
   </g>
   <g id="patch_96">
    <path clip-path="url(#pa31f4423ba)" d="M 318.667201 307.584 
L 320.94215 307.584 
L 320.94215 307.561427 
L 318.667201 307.561427 
z
" style="fill:#1f77b4;"/>
   </g>
   <g id="patch_97">
    <path clip-path="url(#pa31f4423ba)" d="M 320.94215 307.584 
L 323.217098 307.584 
L 323.217098 307.561427 
L 320.94215 307.561427 
z
" style="fill:#1f77b4;"/>
   </g>
   <g id="patch_98">
    <path clip-path="url(#pa31f4423ba)" d="M 323.217098 307.584 
L 325.492046 307.584 
L 325.492046 307.561427 
L 323.217098 307.561427 
z
" style="fill:#1f77b4;"/>
   </g>
   <g id="patch_99">
    <path clip-path="url(#pa31f4423ba)" d="M 325.492046 307.584 
L 327.766994 307.584 
L 327.766994 307.584 
L 325.492046 307.584 
z
" style="fill:#1f77b4;"/>
   </g>
   <g id="patch_100">
    <path clip-path="url(#pa31f4423ba)" d="M 327.766994 307.584 
L 330.041943 307.584 
L 330.041943 307.561427 
L 327.766994 307.561427 
z
" style="fill:#1f77b4;"/>
   </g>
   <g id="patch_101">
    <path clip-path="url(#pa31f4423ba)" d="M 330.041943 307.584 
L 332.316891 307.584 
L 332.316891 307.538854 
L 330.041943 307.538854 
z
" style="fill:#1f77b4;"/>
   </g>
   <g id="patch_102">
    <path clip-path="url(#pa31f4423ba)" d="M 332.316891 307.584 
L 334.591839 307.584 
L 334.591839 307.538854 
L 332.316891 307.538854 
z
" style="fill:#1f77b4;"/>
   </g>
   <g id="matplotlib.axis_1">
    <g id="xtick_1">
     <g id="line2d_1">
      <defs>
       <path d="M 0 0 
L 0 3.5 
" id="mdd31cbbc6c" style="stroke:#000000;stroke-width:0.8;"/>
      </defs>
      <g>
       <use style="stroke:#000000;stroke-width:0.8;" x="106.298262" xlink:href="#mdd31cbbc6c" y="307.584"/>
      </g>
     </g>
     <g id="text_1">
      <!-- −2 -->
      <defs>
       <path d="M 10.59375 35.5 
L 73.1875 35.5 
L 73.1875 27.203125 
L 10.59375 27.203125 
z
" id="DejaVuSans-8722"/>
       <path d="M 19.1875 8.296875 
L 53.609375 8.296875 
L 53.609375 0 
L 7.328125 0 
L 7.328125 8.296875 
Q 12.9375 14.109375 22.625 23.890625 
Q 32.328125 33.6875 34.8125 36.53125 
Q 39.546875 41.84375 41.421875 45.53125 
Q 43.3125 49.21875 43.3125 52.78125 
Q 43.3125 58.59375 39.234375 62.25 
Q 35.15625 65.921875 28.609375 65.921875 
Q 23.96875 65.921875 18.8125 64.3125 
Q 13.671875 62.703125 7.8125 59.421875 
L 7.8125 69.390625 
Q 13.765625 71.78125 18.9375 73 
Q 24.125 74.21875 28.421875 74.21875 
Q 39.75 74.21875 46.484375 68.546875 
Q 53.21875 62.890625 53.21875 53.421875 
Q 53.21875 48.921875 51.53125 44.890625 
Q 49.859375 40.875 45.40625 35.40625 
Q 44.1875 33.984375 37.640625 27.21875 
Q 31.109375 20.453125 19.1875 8.296875 
z
" id="DejaVuSans-50"/>
      </defs>
      <g transform="translate(93.767403 327.501344)scale(0.17 -0.17)">
       <use xlink:href="#DejaVuSans-8722"/>
       <use x="83.789062" xlink:href="#DejaVuSans-50"/>
      </g>
     </g>
    </g>
    <g id="xtick_2">
     <g id="line2d_2">
      <g>
       <use style="stroke:#000000;stroke-width:0.8;" x="171.229332" xlink:href="#mdd31cbbc6c" y="307.584"/>
      </g>
     </g>
     <g id="text_2">
      <!-- −1 -->
      <defs>
       <path d="M 12.40625 8.296875 
L 28.515625 8.296875 
L 28.515625 63.921875 
L 10.984375 60.40625 
L 10.984375 69.390625 
L 28.421875 72.90625 
L 38.28125 72.90625 
L 38.28125 8.296875 
L 54.390625 8.296875 
L 54.390625 0 
L 12.40625 0 
z
" id="DejaVuSans-49"/>
      </defs>
      <g transform="translate(158.698473 327.501344)scale(0.17 -0.17)">
       <use xlink:href="#DejaVuSans-8722"/>
       <use x="83.789062" xlink:href="#DejaVuSans-49"/>
      </g>
     </g>
    </g>
    <g id="xtick_3">
     <g id="line2d_3">
      <g>
       <use style="stroke:#000000;stroke-width:0.8;" x="236.160402" xlink:href="#mdd31cbbc6c" y="307.584"/>
      </g>
     </g>
     <g id="text_3">
      <!-- 0 -->
      <defs>
       <path d="M 31.78125 66.40625 
Q 24.171875 66.40625 20.328125 58.90625 
Q 16.5 51.421875 16.5 36.375 
Q 16.5 21.390625 20.328125 13.890625 
Q 24.171875 6.390625 31.78125 6.390625 
Q 39.453125 6.390625 43.28125 13.890625 
Q 47.125 21.390625 47.125 36.375 
Q 47.125 51.421875 43.28125 58.90625 
Q 39.453125 66.40625 31.78125 66.40625 
z
M 31.78125 74.21875 
Q 44.046875 74.21875 50.515625 64.515625 
Q 56.984375 54.828125 56.984375 36.375 
Q 56.984375 17.96875 50.515625 8.265625 
Q 44.046875 -1.421875 31.78125 -1.421875 
Q 19.53125 -1.421875 13.0625 8.265625 
Q 6.59375 17.96875 6.59375 36.375 
Q 6.59375 54.828125 13.0625 64.515625 
Q 19.53125 74.21875 31.78125 74.21875 
z
" id="DejaVuSans-48"/>
      </defs>
      <g transform="translate(230.752277 327.501344)scale(0.17 -0.17)">
       <use xlink:href="#DejaVuSans-48"/>
      </g>
     </g>
    </g>
    <g id="xtick_4">
     <g id="line2d_4">
      <g>
       <use style="stroke:#000000;stroke-width:0.8;" x="301.091472" xlink:href="#mdd31cbbc6c" y="307.584"/>
      </g>
     </g>
     <g id="text_4">
      <!-- 1 -->
      <g transform="translate(295.683347 327.501344)scale(0.17 -0.17)">
       <use xlink:href="#DejaVuSans-49"/>
      </g>
     </g>
    </g>
    <g id="xtick_5">
     <g id="line2d_5">
      <g>
       <use style="stroke:#000000;stroke-width:0.8;" x="366.022541" xlink:href="#mdd31cbbc6c" y="307.584"/>
      </g>
     </g>
     <g id="text_5">
      <!-- 2 -->
      <g transform="translate(360.614416 327.501344)scale(0.17 -0.17)">
       <use xlink:href="#DejaVuSans-50"/>
      </g>
     </g>
    </g>
    <g id="text_6">
     <!-- Compressed value -->
     <defs>
      <path d="M 64.40625 67.28125 
L 64.40625 56.890625 
Q 59.421875 61.53125 53.78125 63.8125 
Q 48.140625 66.109375 41.796875 66.109375 
Q 29.296875 66.109375 22.65625 58.46875 
Q 16.015625 50.828125 16.015625 36.375 
Q 16.015625 21.96875 22.65625 14.328125 
Q 29.296875 6.6875 41.796875 6.6875 
Q 48.140625 6.6875 53.78125 8.984375 
Q 59.421875 11.28125 64.40625 15.921875 
L 64.40625 5.609375 
Q 59.234375 2.09375 53.4375 0.328125 
Q 47.65625 -1.421875 41.21875 -1.421875 
Q 24.65625 -1.421875 15.125 8.703125 
Q 5.609375 18.84375 5.609375 36.375 
Q 5.609375 53.953125 15.125 64.078125 
Q 24.65625 74.21875 41.21875 74.21875 
Q 47.75 74.21875 53.53125 72.484375 
Q 59.328125 70.75 64.40625 67.28125 
z
" id="DejaVuSans-67"/>
      <path d="M 30.609375 48.390625 
Q 23.390625 48.390625 19.1875 42.75 
Q 14.984375 37.109375 14.984375 27.296875 
Q 14.984375 17.484375 19.15625 11.84375 
Q 23.34375 6.203125 30.609375 6.203125 
Q 37.796875 6.203125 41.984375 11.859375 
Q 46.1875 17.53125 46.1875 27.296875 
Q 46.1875 37.015625 41.984375 42.703125 
Q 37.796875 48.390625 30.609375 48.390625 
z
M 30.609375 56 
Q 42.328125 56 49.015625 48.375 
Q 55.71875 40.765625 55.71875 27.296875 
Q 55.71875 13.875 49.015625 6.21875 
Q 42.328125 -1.421875 30.609375 -1.421875 
Q 18.84375 -1.421875 12.171875 6.21875 
Q 5.515625 13.875 5.515625 27.296875 
Q 5.515625 40.765625 12.171875 48.375 
Q 18.84375 56 30.609375 56 
z
" id="DejaVuSans-111"/>
      <path d="M 52 44.1875 
Q 55.375 50.25 60.0625 53.125 
Q 64.75 56 71.09375 56 
Q 79.640625 56 84.28125 50.015625 
Q 88.921875 44.046875 88.921875 33.015625 
L 88.921875 0 
L 79.890625 0 
L 79.890625 32.71875 
Q 79.890625 40.578125 77.09375 44.375 
Q 74.3125 48.1875 68.609375 48.1875 
Q 61.625 48.1875 57.5625 43.546875 
Q 53.515625 38.921875 53.515625 30.90625 
L 53.515625 0 
L 44.484375 0 
L 44.484375 32.71875 
Q 44.484375 40.625 41.703125 44.40625 
Q 38.921875 48.1875 33.109375 48.1875 
Q 26.21875 48.1875 22.15625 43.53125 
Q 18.109375 38.875 18.109375 30.90625 
L 18.109375 0 
L 9.078125 0 
L 9.078125 54.6875 
L 18.109375 54.6875 
L 18.109375 46.1875 
Q 21.1875 51.21875 25.484375 53.609375 
Q 29.78125 56 35.6875 56 
Q 41.65625 56 45.828125 52.96875 
Q 50 49.953125 52 44.1875 
z
" id="DejaVuSans-109"/>
      <path d="M 18.109375 8.203125 
L 18.109375 -20.796875 
L 9.078125 -20.796875 
L 9.078125 54.6875 
L 18.109375 54.6875 
L 18.109375 46.390625 
Q 20.953125 51.265625 25.265625 53.625 
Q 29.59375 56 35.59375 56 
Q 45.5625 56 51.78125 48.09375 
Q 58.015625 40.1875 58.015625 27.296875 
Q 58.015625 14.40625 51.78125 6.484375 
Q 45.5625 -1.421875 35.59375 -1.421875 
Q 29.59375 -1.421875 25.265625 0.953125 
Q 20.953125 3.328125 18.109375 8.203125 
z
M 48.6875 27.296875 
Q 48.6875 37.203125 44.609375 42.84375 
Q 40.53125 48.484375 33.40625 48.484375 
Q 26.265625 48.484375 22.1875 42.84375 
Q 18.109375 37.203125 18.109375 27.296875 
Q 18.109375 17.390625 22.1875 11.75 
Q 26.265625 6.109375 33.40625 6.109375 
Q 40.53125 6.109375 44.609375 11.75 
Q 48.6875 17.390625 48.6875 27.296875 
z
" id="DejaVuSans-112"/>
      <path d="M 41.109375 46.296875 
Q 39.59375 47.171875 37.8125 47.578125 
Q 36.03125 48 33.890625 48 
Q 26.265625 48 22.1875 43.046875 
Q 18.109375 38.09375 18.109375 28.8125 
L 18.109375 0 
L 9.078125 0 
L 9.078125 54.6875 
L 18.109375 54.6875 
L 18.109375 46.1875 
Q 20.953125 51.171875 25.484375 53.578125 
Q 30.03125 56 36.53125 56 
Q 37.453125 56 38.578125 55.875 
Q 39.703125 55.765625 41.0625 55.515625 
z
" id="DejaVuSans-114"/>
      <path d="M 56.203125 29.59375 
L 56.203125 25.203125 
L 14.890625 25.203125 
Q 15.484375 15.921875 20.484375 11.0625 
Q 25.484375 6.203125 34.421875 6.203125 
Q 39.59375 6.203125 44.453125 7.46875 
Q 49.3125 8.734375 54.109375 11.28125 
L 54.109375 2.78125 
Q 49.265625 0.734375 44.1875 -0.34375 
Q 39.109375 -1.421875 33.890625 -1.421875 
Q 20.796875 -1.421875 13.15625 6.1875 
Q 5.515625 13.8125 5.515625 26.8125 
Q 5.515625 40.234375 12.765625 48.109375 
Q 20.015625 56 32.328125 56 
Q 43.359375 56 49.78125 48.890625 
Q 56.203125 41.796875 56.203125 29.59375 
z
M 47.21875 32.234375 
Q 47.125 39.59375 43.09375 43.984375 
Q 39.0625 48.390625 32.421875 48.390625 
Q 24.90625 48.390625 20.390625 44.140625 
Q 15.875 39.890625 15.1875 32.171875 
z
" id="DejaVuSans-101"/>
      <path d="M 44.28125 53.078125 
L 44.28125 44.578125 
Q 40.484375 46.53125 36.375 47.5 
Q 32.28125 48.484375 27.875 48.484375 
Q 21.1875 48.484375 17.84375 46.4375 
Q 14.5 44.390625 14.5 40.28125 
Q 14.5 37.15625 16.890625 35.375 
Q 19.28125 33.59375 26.515625 31.984375 
L 29.59375 31.296875 
Q 39.15625 29.25 43.1875 25.515625 
Q 47.21875 21.78125 47.21875 15.09375 
Q 47.21875 7.46875 41.1875 3.015625 
Q 35.15625 -1.421875 24.609375 -1.421875 
Q 20.21875 -1.421875 15.453125 -0.5625 
Q 10.6875 0.296875 5.421875 2 
L 5.421875 11.28125 
Q 10.40625 8.6875 15.234375 7.390625 
Q 20.0625 6.109375 24.8125 6.109375 
Q 31.15625 6.109375 34.5625 8.28125 
Q 37.984375 10.453125 37.984375 14.40625 
Q 37.984375 18.0625 35.515625 20.015625 
Q 33.0625 21.96875 24.703125 23.78125 
L 21.578125 24.515625 
Q 13.234375 26.265625 9.515625 29.90625 
Q 5.8125 33.546875 5.8125 39.890625 
Q 5.8125 47.609375 11.28125 51.796875 
Q 16.75 56 26.8125 56 
Q 31.78125 56 36.171875 55.265625 
Q 40.578125 54.546875 44.28125 53.078125 
z
" id="DejaVuSans-115"/>
      <path d="M 45.40625 46.390625 
L 45.40625 75.984375 
L 54.390625 75.984375 
L 54.390625 0 
L 45.40625 0 
L 45.40625 8.203125 
Q 42.578125 3.328125 38.25 0.953125 
Q 33.9375 -1.421875 27.875 -1.421875 
Q 17.96875 -1.421875 11.734375 6.484375 
Q 5.515625 14.40625 5.515625 27.296875 
Q 5.515625 40.1875 11.734375 48.09375 
Q 17.96875 56 27.875 56 
Q 33.9375 56 38.25 53.625 
Q 42.578125 51.265625 45.40625 46.390625 
z
M 14.796875 27.296875 
Q 14.796875 17.390625 18.875 11.75 
Q 22.953125 6.109375 30.078125 6.109375 
Q 37.203125 6.109375 41.296875 11.75 
Q 45.40625 17.390625 45.40625 27.296875 
Q 45.40625 37.203125 41.296875 42.84375 
Q 37.203125 48.484375 30.078125 48.484375 
Q 22.953125 48.484375 18.875 42.84375 
Q 14.796875 37.203125 14.796875 27.296875 
z
" id="DejaVuSans-100"/>
      <path id="DejaVuSans-32"/>
      <path d="M 2.984375 54.6875 
L 12.5 54.6875 
L 29.59375 8.796875 
L 46.6875 54.6875 
L 56.203125 54.6875 
L 35.6875 0 
L 23.484375 0 
z
" id="DejaVuSans-118"/>
      <path d="M 34.28125 27.484375 
Q 23.390625 27.484375 19.1875 25 
Q 14.984375 22.515625 14.984375 16.5 
Q 14.984375 11.71875 18.140625 8.90625 
Q 21.296875 6.109375 26.703125 6.109375 
Q 34.1875 6.109375 38.703125 11.40625 
Q 43.21875 16.703125 43.21875 25.484375 
L 43.21875 27.484375 
z
M 52.203125 31.203125 
L 52.203125 0 
L 43.21875 0 
L 43.21875 8.296875 
Q 40.140625 3.328125 35.546875 0.953125 
Q 30.953125 -1.421875 24.3125 -1.421875 
Q 15.921875 -1.421875 10.953125 3.296875 
Q 6 8.015625 6 15.921875 
Q 6 25.140625 12.171875 29.828125 
Q 18.359375 34.515625 30.609375 34.515625 
L 43.21875 34.515625 
L 43.21875 35.40625 
Q 43.21875 41.609375 39.140625 45 
Q 35.0625 48.390625 27.6875 48.390625 
Q 23 48.390625 18.546875 47.265625 
Q 14.109375 46.140625 10.015625 43.890625 
L 10.015625 52.203125 
Q 14.9375 54.109375 19.578125 55.046875 
Q 24.21875 56 28.609375 56 
Q 40.484375 56 46.34375 49.84375 
Q 52.203125 43.703125 52.203125 31.203125 
z
" id="DejaVuSans-97"/>
      <path d="M 9.421875 75.984375 
L 18.40625 75.984375 
L 18.40625 0 
L 9.421875 0 
z
" id="DejaVuSans-108"/>
      <path d="M 8.5 21.578125 
L 8.5 54.6875 
L 17.484375 54.6875 
L 17.484375 21.921875 
Q 17.484375 14.15625 20.5 10.265625 
Q 23.53125 6.390625 29.59375 6.390625 
Q 36.859375 6.390625 41.078125 11.03125 
Q 45.3125 15.671875 45.3125 23.6875 
L 45.3125 54.6875 
L 54.296875 54.6875 
L 54.296875 0 
L 45.3125 0 
L 45.3125 8.40625 
Q 42.046875 3.421875 37.71875 1 
Q 33.40625 -1.421875 27.6875 -1.421875 
Q 18.265625 -1.421875 13.375 4.4375 
Q 8.5 10.296875 8.5 21.578125 
z
M 31.109375 56 
z
" id="DejaVuSans-117"/>
     </defs>
     <g transform="translate(96.861562 357.832125)scale(0.3 -0.3)">
      <use xlink:href="#DejaVuSans-67"/>
      <use x="69.824219" xlink:href="#DejaVuSans-111"/>
      <use x="131.005859" xlink:href="#DejaVuSans-109"/>
      <use x="228.417969" xlink:href="#DejaVuSans-112"/>
      <use x="291.894531" xlink:href="#DejaVuSans-114"/>
      <use x="332.976562" xlink:href="#DejaVuSans-101"/>
      <use x="394.5" xlink:href="#DejaVuSans-115"/>
      <use x="446.599609" xlink:href="#DejaVuSans-115"/>
      <use x="498.699219" xlink:href="#DejaVuSans-101"/>
      <use x="560.222656" xlink:href="#DejaVuSans-100"/>
      <use x="623.699219" xlink:href="#DejaVuSans-32"/>
      <use x="655.486328" xlink:href="#DejaVuSans-118"/>
      <use x="714.666016" xlink:href="#DejaVuSans-97"/>
      <use x="775.945312" xlink:href="#DejaVuSans-108"/>
      <use x="803.728516" xlink:href="#DejaVuSans-117"/>
      <use x="867.107422" xlink:href="#DejaVuSans-101"/>
     </g>
    </g>
   </g>
   <g id="matplotlib.axis_2">
    <g id="ytick_1">
     <g id="line2d_6">
      <defs>
       <path d="M 0 0 
L -3.5 0 
" id="me36d82f792" style="stroke:#000000;stroke-width:0.8;"/>
      </defs>
      <g>
       <use style="stroke:#000000;stroke-width:0.8;" x="57.6" xlink:href="#me36d82f792" y="307.584"/>
      </g>
     </g>
     <g id="text_7">
      <!-- 0.00 -->
      <defs>
       <path d="M 10.6875 12.40625 
L 21 12.40625 
L 21 0 
L 10.6875 0 
z
" id="DejaVuSans-46"/>
      </defs>
      <g transform="translate(12.748438 314.042672)scale(0.17 -0.17)">
       <use xlink:href="#DejaVuSans-48"/>
       <use x="63.623047" xlink:href="#DejaVuSans-46"/>
       <use x="95.410156" xlink:href="#DejaVuSans-48"/>
       <use x="159.033203" xlink:href="#DejaVuSans-48"/>
      </g>
     </g>
    </g>
    <g id="ytick_2">
     <g id="line2d_7">
      <g>
       <use style="stroke:#000000;stroke-width:0.8;" x="57.6" xlink:href="#me36d82f792" y="267.645117"/>
      </g>
     </g>
     <g id="text_8">
      <!-- 0.25 -->
      <defs>
       <path d="M 10.796875 72.90625 
L 49.515625 72.90625 
L 49.515625 64.59375 
L 19.828125 64.59375 
L 19.828125 46.734375 
Q 21.96875 47.46875 24.109375 47.828125 
Q 26.265625 48.1875 28.421875 48.1875 
Q 40.625 48.1875 47.75 41.5 
Q 54.890625 34.8125 54.890625 23.390625 
Q 54.890625 11.625 47.5625 5.09375 
Q 40.234375 -1.421875 26.90625 -1.421875 
Q 22.3125 -1.421875 17.546875 -0.640625 
Q 12.796875 0.140625 7.71875 1.703125 
L 7.71875 11.625 
Q 12.109375 9.234375 16.796875 8.0625 
Q 21.484375 6.890625 26.703125 6.890625 
Q 35.15625 6.890625 40.078125 11.328125 
Q 45.015625 15.765625 45.015625 23.390625 
Q 45.015625 31 40.078125 35.4375 
Q 35.15625 39.890625 26.703125 39.890625 
Q 22.75 39.890625 18.8125 39.015625 
Q 14.890625 38.140625 10.796875 36.28125 
z
" id="DejaVuSans-53"/>
      </defs>
      <g transform="translate(12.748438 274.103789)scale(0.17 -0.17)">
       <use xlink:href="#DejaVuSans-48"/>
       <use x="63.623047" xlink:href="#DejaVuSans-46"/>
       <use x="95.410156" xlink:href="#DejaVuSans-50"/>
       <use x="159.033203" xlink:href="#DejaVuSans-53"/>
      </g>
     </g>
    </g>
    <g id="ytick_3">
     <g id="line2d_8">
      <g>
       <use style="stroke:#000000;stroke-width:0.8;" x="57.6" xlink:href="#me36d82f792" y="227.706235"/>
      </g>
     </g>
     <g id="text_9">
      <!-- 0.50 -->
      <g transform="translate(12.748438 234.164907)scale(0.17 -0.17)">
       <use xlink:href="#DejaVuSans-48"/>
       <use x="63.623047" xlink:href="#DejaVuSans-46"/>
       <use x="95.410156" xlink:href="#DejaVuSans-53"/>
       <use x="159.033203" xlink:href="#DejaVuSans-48"/>
      </g>
     </g>
    </g>
    <g id="ytick_4">
     <g id="line2d_9">
      <g>
       <use style="stroke:#000000;stroke-width:0.8;" x="57.6" xlink:href="#me36d82f792" y="187.767352"/>
      </g>
     </g>
     <g id="text_10">
      <!-- 0.75 -->
      <defs>
       <path d="M 8.203125 72.90625 
L 55.078125 72.90625 
L 55.078125 68.703125 
L 28.609375 0 
L 18.3125 0 
L 43.21875 64.59375 
L 8.203125 64.59375 
z
" id="DejaVuSans-55"/>
      </defs>
      <g transform="translate(12.748438 194.226024)scale(0.17 -0.17)">
       <use xlink:href="#DejaVuSans-48"/>
       <use x="63.623047" xlink:href="#DejaVuSans-46"/>
       <use x="95.410156" xlink:href="#DejaVuSans-55"/>
       <use x="159.033203" xlink:href="#DejaVuSans-53"/>
      </g>
     </g>
    </g>
    <g id="ytick_5">
     <g id="line2d_10">
      <g>
       <use style="stroke:#000000;stroke-width:0.8;" x="57.6" xlink:href="#me36d82f792" y="147.82847"/>
      </g>
     </g>
     <g id="text_11">
      <!-- 1.00 -->
      <g transform="translate(12.748438 154.287142)scale(0.17 -0.17)">
       <use xlink:href="#DejaVuSans-49"/>
       <use x="63.623047" xlink:href="#DejaVuSans-46"/>
       <use x="95.410156" xlink:href="#DejaVuSans-48"/>
       <use x="159.033203" xlink:href="#DejaVuSans-48"/>
      </g>
     </g>
    </g>
    <g id="ytick_6">
     <g id="line2d_11">
      <g>
       <use style="stroke:#000000;stroke-width:0.8;" x="57.6" xlink:href="#me36d82f792" y="107.889587"/>
      </g>
     </g>
     <g id="text_12">
      <!-- 1.25 -->
      <g transform="translate(12.748438 114.348259)scale(0.17 -0.17)">
       <use xlink:href="#DejaVuSans-49"/>
       <use x="63.623047" xlink:href="#DejaVuSans-46"/>
       <use x="95.410156" xlink:href="#DejaVuSans-50"/>
       <use x="159.033203" xlink:href="#DejaVuSans-53"/>
      </g>
     </g>
    </g>
    <g id="ytick_7">
     <g id="line2d_12">
      <g>
       <use style="stroke:#000000;stroke-width:0.8;" x="57.6" xlink:href="#me36d82f792" y="67.950705"/>
      </g>
     </g>
     <g id="text_13">
      <!-- 1.50 -->
      <g transform="translate(12.748438 74.409377)scale(0.17 -0.17)">
       <use xlink:href="#DejaVuSans-49"/>
       <use x="63.623047" xlink:href="#DejaVuSans-46"/>
       <use x="95.410156" xlink:href="#DejaVuSans-53"/>
       <use x="159.033203" xlink:href="#DejaVuSans-48"/>
      </g>
     </g>
    </g>
    <g id="text_14">
     <!-- Density -->
     <defs>
      <path d="M 19.671875 64.796875 
L 19.671875 8.109375 
L 31.59375 8.109375 
Q 46.6875 8.109375 53.6875 14.9375 
Q 60.6875 21.78125 60.6875 36.53125 
Q 60.6875 51.171875 53.6875 57.984375 
Q 46.6875 64.796875 31.59375 64.796875 
z
M 9.8125 72.90625 
L 30.078125 72.90625 
Q 51.265625 72.90625 61.171875 64.09375 
Q 71.09375 55.28125 71.09375 36.53125 
Q 71.09375 17.671875 61.125 8.828125 
Q 51.171875 0 30.078125 0 
L 9.8125 0 
z
" id="DejaVuSans-68"/>
      <path d="M 54.890625 33.015625 
L 54.890625 0 
L 45.90625 0 
L 45.90625 32.71875 
Q 45.90625 40.484375 42.875 44.328125 
Q 39.84375 48.1875 33.796875 48.1875 
Q 26.515625 48.1875 22.3125 43.546875 
Q 18.109375 38.921875 18.109375 30.90625 
L 18.109375 0 
L 9.078125 0 
L 9.078125 54.6875 
L 18.109375 54.6875 
L 18.109375 46.1875 
Q 21.34375 51.125 25.703125 53.5625 
Q 30.078125 56 35.796875 56 
Q 45.21875 56 50.046875 50.171875 
Q 54.890625 44.34375 54.890625 33.015625 
z
" id="DejaVuSans-110"/>
      <path d="M 9.421875 54.6875 
L 18.40625 54.6875 
L 18.40625 0 
L 9.421875 0 
z
M 9.421875 75.984375 
L 18.40625 75.984375 
L 18.40625 64.59375 
L 9.421875 64.59375 
z
" id="DejaVuSans-105"/>
      <path d="M 18.3125 70.21875 
L 18.3125 54.6875 
L 36.8125 54.6875 
L 36.8125 47.703125 
L 18.3125 47.703125 
L 18.3125 18.015625 
Q 18.3125 11.328125 20.140625 9.421875 
Q 21.96875 7.515625 27.59375 7.515625 
L 36.8125 7.515625 
L 36.8125 0 
L 27.59375 0 
Q 17.1875 0 13.234375 3.875 
Q 9.28125 7.765625 9.28125 18.015625 
L 9.28125 47.703125 
L 2.6875 47.703125 
L 2.6875 54.6875 
L 9.28125 54.6875 
L 9.28125 70.21875 
z
" id="DejaVuSans-116"/>
      <path d="M 32.171875 -5.078125 
Q 28.375 -14.84375 24.75 -17.8125 
Q 21.140625 -20.796875 15.09375 -20.796875 
L 7.90625 -20.796875 
L 7.90625 -13.28125 
L 13.1875 -13.28125 
Q 16.890625 -13.28125 18.9375 -11.515625 
Q 21 -9.765625 23.484375 -3.21875 
L 25.09375 0.875 
L 2.984375 54.6875 
L 12.5 54.6875 
L 29.59375 11.921875 
L 46.6875 54.6875 
L 56.203125 54.6875 
z
" id="DejaVuSans-121"/>
     </defs>
     <g transform="translate(2.509375 231.553781)rotate(-90)scale(0.3 -0.3)">
      <use xlink:href="#DejaVuSans-68"/>
      <use x="77.001953" xlink:href="#DejaVuSans-101"/>
      <use x="138.525391" xlink:href="#DejaVuSans-110"/>
      <use x="201.904297" xlink:href="#DejaVuSans-115"/>
      <use x="254.003906" xlink:href="#DejaVuSans-105"/>
      <use x="281.787109" xlink:href="#DejaVuSans-116"/>
      <use x="320.996094" xlink:href="#DejaVuSans-121"/>
     </g>
    </g>
   </g>
   <g id="line2d_13">
    <path clip-path="url(#pa31f4423ba)" d="M 73.832727 307.584 
L 109.346326 307.472897 
L 110.726111 307.503417 
L 112.256974 307.490642 
L 117.905495 307.125355 
L 119.965931 306.999157 
L 121.253302 306.780917 
L 125.144344 306.577228 
L 126.110274 306.554201 
L 126.770032 306.318216 
L 127.775339 305.931086 
L 129.037798 305.72365 
L 129.765058 305.140845 
L 130.405529 304.755638 
L 130.937514 304.707139 
L 131.717812 304.639655 
L 132.169436 304.332718 
L 132.757673 303.627716 
L 133.926111 302.186042 
L 134.381753 302.035907 
L 136.691307 301.630738 
L 137.088286 301.259639 
L 137.622682 300.410031 
L 138.888355 298.312656 
L 139.675886 297.576838 
L 141.544261 296.000224 
L 142.254646 295.038207 
L 143.802384 292.347377 
L 145.203063 289.67795 
L 146.68812 286.826902 
L 147.688605 284.46575 
L 148.474528 282.00582 
L 150.182183 276.477155 
L 150.765598 275.54434 
L 151.271868 274.614569 
L 151.775726 273.118897 
L 152.654064 270.541683 
L 153.157922 269.797002 
L 153.633655 269.032971 
L 154.026617 267.877718 
L 155.255324 263.902698 
L 155.808203 263.061588 
L 156.232505 262.764507 
L 156.671272 262.744141 
L 157.153433 262.671969 
L 157.492553 262.361939 
L 157.959446 261.582267 
L 158.832962 260.124454 
L 159.114223 260.047862 
L 159.389859 260.225595 
L 160.052831 260.719417 
L 160.278643 260.557469 
L 160.612941 259.980238 
L 161.336987 258.738237 
L 162.313364 257.792395 
L 162.60909 257.790381 
L 163.562162 258.030303 
L 163.901282 257.616901 
L 164.734618 256.533846 
L 165.066506 256.49781 
L 165.551881 256.70829 
L 165.996273 257.112665 
L 166.377181 257.802111 
L 167.007205 259.523444 
L 167.769824 261.365657 
L 168.253592 262.022599 
L 168.615214 262.177632 
L 169.36176 262.353641 
L 169.705702 262.851763 
L 170.585647 264.213459 
L 171.020395 264.422338 
L 171.589346 264.430756 
L 172.217763 264.48147 
L 172.548847 264.753525 
L 172.876717 265.34228 
L 173.272893 266.572265 
L 174.782058 271.831239 
L 175.130821 272.123443 
L 175.698165 272.225898 
L 176.268722 272.485123 
L 176.699453 272.568934 
L 177.073128 272.39055 
L 177.815657 272.004058 
L 178.166831 272.108776 
L 178.588722 272.493641 
L 179.405986 273.272588 
L 179.740284 273.241391 
L 180.650766 273.033283 
L 181.87867 272.997628 
L 182.368868 272.788898 
L 182.96273 272.546531 
L 183.25042 272.699499 
L 183.722134 273.274092 
L 184.234029 273.75362 
L 185.201566 274.381678 
L 186.13053 275.483561 
L 186.390094 275.406655 
L 186.724392 275.033143 
L 187.510316 274.10885 
L 187.868722 274.065473 
L 189.076537 274.132408 
L 189.503249 273.756122 
L 190.0722 273.302258 
L 190.326138 273.376334 
L 190.628293 273.738673 
L 191.442342 274.810799 
L 191.688244 274.760888 
L 191.978345 274.436903 
L 193.323575 272.602684 
L 193.933509 272.251538 
L 194.372276 271.616156 
L 195.208826 270.433624 
L 195.892692 269.439313 
L 197.880804 265.796635 
L 198.477077 263.6447 
L 199.365057 259.573861 
L 199.807842 256.428687 
L 200.228126 251.675971 
L 200.700645 243.538731 
L 201.330669 228.335783 
L 202.39062 196.714459 
L 203.221545 165.341389 
L 205.093135 90.969986 
L 205.53592 83.323709 
L 205.880665 80.556592 
L 206.071119 80.177475 
L 206.083977 80.182651 
L 206.186838 80.368356 
L 206.357201 81.250409 
L 206.615961 83.959024 
L 206.988833 90.527526 
L 207.518407 104.239843 
L 209.975823 174.294597 
L 210.539952 183.680916 
L 210.969075 187.563559 
L 211.308999 188.951457 
L 211.526775 189.156632 
L 211.668209 189.002946 
L 211.866699 188.383775 
L 212.143138 186.681877 
L 212.520028 182.780199 
L 213.228002 172.508572 
L 214.027586 162.328508 
L 214.963783 153.490063 
L 216.657776 138.40373 
L 217.311909 128.275972 
L 219.216446 93.596927 
L 220.569713 69.813099 
L 221.288937 61.521661 
L 221.995303 55.655323 
L 222.339245 54.268428 
L 222.516038 54.155203 
L 222.524074 54.159979 
L 222.671133 54.388224 
L 222.925071 55.289864 
L 224.520222 62.900866 
L 225.883131 71.435202 
L 226.28654 72.221967 
L 226.673072 73.022431 
L 226.955137 74.249394 
L 227.280596 76.796592 
L 227.71213 82.18366 
L 228.792975 96.386742 
L 229.336211 99.698337 
L 229.783014 103.044715 
L 231.065563 113.764104 
L 231.448881 114.863929 
L 231.833807 115.339815 
L 232.310343 115.909476 
L 233.154929 117.362486 
L 233.210378 117.315902 
L 233.389581 116.945374 
L 233.682092 115.722468 
L 234.390869 112.693854 
L 234.543554 112.619441 
L 234.562037 112.634465 
L 234.691417 112.915219 
L 234.869816 113.93955 
L 235.0892 116.692534 
L 235.345549 123.115013 
L 235.653329 137.211329 
L 236.088881 169.127347 
L 236.904538 228.297011 
L 237.27098 240.025254 
L 237.572331 243.749281 
L 237.819841 244.626387 
L 238.011902 244.693515 
L 238.696571 244.589637 
L 239.035691 245.013332 
L 239.788666 245.964994 
L 240.699148 246.751812 
L 241.726152 248.259583 
L 242.023485 248.16437 
L 242.491181 248.030923 
L 242.737083 248.226794 
L 243.060935 248.821984 
L 243.817929 250.851595 
L 244.665729 252.819343 
L 245.050655 253.236076 
L 245.413079 253.298799 
L 245.770682 253.415949 
L 246.029442 253.785403 
L 246.391867 254.766458 
L 247.283866 257.263738 
L 247.907461 258.171196 
L 248.836425 259.176856 
L 249.340284 259.811431 
L 249.771015 260.784726 
L 251.695642 265.681111 
L 252.628625 267.792614 
L 253.035248 268.224836 
L 253.413744 268.304148 
L 253.801884 268.430102 
L 254.065466 268.801067 
L 254.423069 269.760925 
L 255.65017 273.351131 
L 256.653065 275.419716 
L 257.646318 276.945334 
L 258.686179 279.276452 
L 259.630412 280.48454 
L 260.074804 281.827067 
L 260.978053 284.587394 
L 261.623346 285.634589 
L 262.181046 286.757634 
L 263.407343 289.390054 
L 263.904773 289.899683 
L 264.296931 290.006804 
L 264.983207 290.116647 
L 265.30063 290.506735 
L 265.80931 291.561078 
L 267.444641 295.067151 
L 267.99752 295.645332 
L 268.666117 296.362485 
L 269.623207 297.491436 
L 270.213855 297.73745 
L 271.153266 298.141978 
L 271.637035 298.63633 
L 272.583678 300.05269 
L 273.236203 300.77313 
L 273.823637 301.09124 
L 275.204226 301.723662 
L 277.828791 303.295687 
L 278.908832 303.471132 
L 279.663415 304.092155 
L 280.319154 304.47836 
L 280.820602 304.521629 
L 281.934395 304.494039 
L 282.631922 304.954344 
L 283.353557 305.275297 
L 285.889726 306.020458 
L 286.481177 305.876077 
L 287.231742 305.735653 
L 287.819979 305.879242 
L 289.312268 306.367623 
L 290.377845 306.385765 
L 292.76133 306.905047 
L 296.42656 307.002695 
L 297.958226 307.117455 
L 299.215864 307.277083 
L 301.958559 307.272028 
L 303.489421 307.300521 
L 304.766345 307.315453 
L 306.460339 307.407022 
L 308.111742 307.433449 
L 311.605805 307.479444 
L 313.238725 307.510358 
L 314.454575 307.531517 
L 316.335808 307.475198 
L 321.442701 307.564798 
L 382.39835 307.584 
L 398.487273 307.584 
L 398.487273 307.584 
" style="fill:none;stroke:#ff7f0e;stroke-linecap:square;stroke-width:1.5;"/>
   </g>
   <g id="patch_103">
    <path d="M 57.6 307.584 
L 57.6 41.472 
" style="fill:none;stroke:#000000;stroke-linecap:square;stroke-linejoin:miter;stroke-width:0.8;"/>
   </g>
   <g id="patch_104">
    <path d="M 414.72 307.584 
L 414.72 41.472 
" style="fill:none;stroke:#000000;stroke-linecap:square;stroke-linejoin:miter;stroke-width:0.8;"/>
   </g>
   <g id="patch_105">
    <path d="M 57.6 307.584 
L 414.72 307.584 
" style="fill:none;stroke:#000000;stroke-linecap:square;stroke-linejoin:miter;stroke-width:0.8;"/>
   </g>
   <g id="patch_106">
    <path d="M 57.6 41.472 
L 414.72 41.472 
" style="fill:none;stroke:#000000;stroke-linecap:square;stroke-linejoin:miter;stroke-width:0.8;"/>
   </g>
  </g>
 </g>
 <defs>
  <clipPath id="pa31f4423ba">
   <rect height="266.112" width="357.12" x="57.6" y="41.472"/>
  </clipPath>
 </defs>
</svg>
