<?xml version="1.0" encoding="utf-8" standalone="no"?>
<!DOCTYPE svg PUBLIC "-//W3C//DTD SVG 1.1//EN"
  "http://www.w3.org/Graphics/SVG/1.1/DTD/svg11.dtd">
<!-- Created with matplotlib (https://matplotlib.org/) -->
<svg height="345.6pt" version="1.1" viewBox="0 0 460.8 345.6" width="460.8pt" xmlns="http://www.w3.org/2000/svg" xmlns:xlink="http://www.w3.org/1999/xlink">
 <defs>
  <style type="text/css">
*{stroke-linecap:butt;stroke-linejoin:round;}
  </style>
 </defs>
 <g id="figure_1">
  <g id="patch_1">
   <path d="M 0 345.6 
L 460.8 345.6 
L 460.8 0 
L 0 0 
z
" style="fill:#ffffff;"/>
  </g>
  <g id="axes_1">
   <g id="patch_2">
    <path d="M 57.6 307.584 
L 414.72 307.584 
L 414.72 41.472 
L 57.6 41.472 
z
" style="fill:#ffffff;"/>
   </g>
   <g id="patch_3">
    <path clip-path="url(#p1615aae0c7)" d="M 81.547316 307.584 
L 84.716716 307.584 
L 84.716716 307.568232 
L 81.547316 307.568232 
z
" style="fill:#1f77b4;"/>
   </g>
   <g id="patch_4">
    <path clip-path="url(#p1615aae0c7)" d="M 84.716716 307.584 
L 87.886115 307.584 
L 87.886115 307.568232 
L 84.716716 307.568232 
z
" style="fill:#1f77b4;"/>
   </g>
   <g id="patch_5">
    <path clip-path="url(#p1615aae0c7)" d="M 87.886115 307.584 
L 91.055515 307.584 
L 91.055515 307.536695 
L 87.886115 307.536695 
z
" style="fill:#1f77b4;"/>
   </g>
   <g id="patch_6">
    <path clip-path="url(#p1615aae0c7)" d="M 91.055515 307.584 
L 94.224915 307.584 
L 94.224915 307.410549 
L 91.055515 307.410549 
z
" style="fill:#1f77b4;"/>
   </g>
   <g id="patch_7">
    <path clip-path="url(#p1615aae0c7)" d="M 94.224915 307.584 
L 97.394314 307.584 
L 97.394314 307.39478 
L 94.224915 307.39478 
z
" style="fill:#1f77b4;"/>
   </g>
   <g id="patch_8">
    <path clip-path="url(#p1615aae0c7)" d="M 97.394314 307.584 
L 100.563714 307.584 
L 100.563714 307.35536 
L 97.394314 307.35536 
z
" style="fill:#1f77b4;"/>
   </g>
   <g id="patch_9">
    <path clip-path="url(#p1615aae0c7)" d="M 100.563714 307.584 
L 103.733113 307.584 
L 103.733113 307.134604 
L 100.563714 307.134604 
z
" style="fill:#1f77b4;"/>
   </g>
   <g id="patch_10">
    <path clip-path="url(#p1615aae0c7)" d="M 103.733113 307.584 
L 106.902513 307.584 
L 106.902513 306.969037 
L 103.733113 306.969037 
z
" style="fill:#1f77b4;"/>
   </g>
   <g id="patch_11">
    <path clip-path="url(#p1615aae0c7)" d="M 106.902513 307.584 
L 110.071912 307.584 
L 110.071912 306.835006 
L 106.902513 306.835006 
z
" style="fill:#1f77b4;"/>
   </g>
   <g id="patch_12">
    <path clip-path="url(#p1615aae0c7)" d="M 110.071912 307.584 
L 113.241312 307.584 
L 113.241312 306.164853 
L 110.071912 306.164853 
z
" style="fill:#1f77b4;"/>
   </g>
   <g id="patch_13">
    <path clip-path="url(#p1615aae0c7)" d="M 113.241312 307.584 
L 116.410711 307.584 
L 116.410711 305.754878 
L 113.241312 305.754878 
z
" style="fill:#1f77b4;"/>
   </g>
   <g id="patch_14">
    <path clip-path="url(#p1615aae0c7)" d="M 116.410711 307.584 
L 119.580111 307.584 
L 119.580111 304.982231 
L 116.410711 304.982231 
z
" style="fill:#1f77b4;"/>
   </g>
   <g id="patch_15">
    <path clip-path="url(#p1615aae0c7)" d="M 119.580111 307.584 
L 122.749511 307.584 
L 122.749511 304.25689 
L 119.580111 304.25689 
z
" style="fill:#1f77b4;"/>
   </g>
   <g id="patch_16">
    <path clip-path="url(#p1615aae0c7)" d="M 122.749511 307.584 
L 125.91891 307.584 
L 125.91891 302.530262 
L 122.749511 302.530262 
z
" style="fill:#1f77b4;"/>
   </g>
   <g id="patch_17">
    <path clip-path="url(#p1615aae0c7)" d="M 125.91891 307.584 
L 129.08831 307.584 
L 129.08831 300.74056 
L 125.91891 300.74056 
z
" style="fill:#1f77b4;"/>
   </g>
   <g id="patch_18">
    <path clip-path="url(#p1615aae0c7)" d="M 129.08831 307.584 
L 132.257709 307.584 
L 132.257709 297.96534 
L 129.08831 297.96534 
z
" style="fill:#1f77b4;"/>
   </g>
   <g id="patch_19">
    <path clip-path="url(#p1615aae0c7)" d="M 132.257709 307.584 
L 135.427109 307.584 
L 135.427109 294.92206 
L 132.257709 294.92206 
z
" style="fill:#1f77b4;"/>
   </g>
   <g id="patch_20">
    <path clip-path="url(#p1615aae0c7)" d="M 135.427109 307.584 
L 138.596508 307.584 
L 138.596508 291.752632 
L 135.427109 291.752632 
z
" style="fill:#1f77b4;"/>
   </g>
   <g id="patch_21">
    <path clip-path="url(#p1615aae0c7)" d="M 138.596508 307.584 
L 141.765908 307.584 
L 141.765908 287.305973 
L 138.596508 287.305973 
z
" style="fill:#1f77b4;"/>
   </g>
   <g id="patch_22">
    <path clip-path="url(#p1615aae0c7)" d="M 141.765908 307.584 
L 144.935308 307.584 
L 144.935308 285.468967 
L 141.765908 285.468967 
z
" style="fill:#1f77b4;"/>
   </g>
   <g id="patch_23">
    <path clip-path="url(#p1615aae0c7)" d="M 144.935308 307.584 
L 148.104707 307.584 
L 148.104707 282.559717 
L 144.935308 282.559717 
z
" style="fill:#1f77b4;"/>
   </g>
   <g id="patch_24">
    <path clip-path="url(#p1615aae0c7)" d="M 148.104707 307.584 
L 151.274107 307.584 
L 151.274107 280.509838 
L 148.104707 280.509838 
z
" style="fill:#1f77b4;"/>
   </g>
   <g id="patch_25">
    <path clip-path="url(#p1615aae0c7)" d="M 151.274107 307.584 
L 154.443506 307.584 
L 154.443506 281.400747 
L 151.274107 281.400747 
z
" style="fill:#1f77b4;"/>
   </g>
   <g id="patch_26">
    <path clip-path="url(#p1615aae0c7)" d="M 154.443506 307.584 
L 157.612906 307.584 
L 157.612906 281.400747 
L 154.443506 281.400747 
z
" style="fill:#1f77b4;"/>
   </g>
   <g id="patch_27">
    <path clip-path="url(#p1615aae0c7)" d="M 157.612906 307.584 
L 160.782305 307.584 
L 160.782305 282.859314 
L 157.612906 282.859314 
z
" style="fill:#1f77b4;"/>
   </g>
   <g id="patch_28">
    <path clip-path="url(#p1615aae0c7)" d="M 160.782305 307.584 
L 163.951705 307.584 
L 163.951705 282.662211 
L 160.782305 282.662211 
z
" style="fill:#1f77b4;"/>
   </g>
   <g id="patch_29">
    <path clip-path="url(#p1615aae0c7)" d="M 163.951705 307.584 
L 167.121105 307.584 
L 167.121105 284.641131 
L 163.951705 284.641131 
z
" style="fill:#1f77b4;"/>
   </g>
   <g id="patch_30">
    <path clip-path="url(#p1615aae0c7)" d="M 167.121105 307.584 
L 170.290504 307.584 
L 170.290504 285.098412 
L 167.121105 285.098412 
z
" style="fill:#1f77b4;"/>
   </g>
   <g id="patch_31">
    <path clip-path="url(#p1615aae0c7)" d="M 170.290504 307.584 
L 173.459904 307.584 
L 173.459904 285.689723 
L 170.290504 285.689723 
z
" style="fill:#1f77b4;"/>
   </g>
   <g id="patch_32">
    <path clip-path="url(#p1615aae0c7)" d="M 173.459904 307.584 
L 176.629303 307.584 
L 176.629303 286.225845 
L 173.459904 286.225845 
z
" style="fill:#1f77b4;"/>
   </g>
   <g id="patch_33">
    <path clip-path="url(#p1615aae0c7)" d="M 176.629303 307.584 
L 179.798703 307.584 
L 179.798703 284.956497 
L 176.629303 284.956497 
z
" style="fill:#1f77b4;"/>
   </g>
   <g id="patch_34">
    <path clip-path="url(#p1615aae0c7)" d="M 179.798703 307.584 
L 182.968102 307.584 
L 182.968102 285.508388 
L 179.798703 285.508388 
z
" style="fill:#1f77b4;"/>
   </g>
   <g id="patch_35">
    <path clip-path="url(#p1615aae0c7)" d="M 182.968102 307.584 
L 186.137502 307.584 
L 186.137502 284.065589 
L 182.968102 284.065589 
z
" style="fill:#1f77b4;"/>
   </g>
   <g id="patch_36">
    <path clip-path="url(#p1615aae0c7)" d="M 186.137502 307.584 
L 189.306901 307.584 
L 189.306901 280.951351 
L 186.137502 280.951351 
z
" style="fill:#1f77b4;"/>
   </g>
   <g id="patch_37">
    <path clip-path="url(#p1615aae0c7)" d="M 189.306901 307.584 
L 192.476301 307.584 
L 192.476301 275.661088 
L 189.306901 275.661088 
z
" style="fill:#1f77b4;"/>
   </g>
   <g id="patch_38">
    <path clip-path="url(#p1615aae0c7)" d="M 192.476301 307.584 
L 195.645701 307.584 
L 195.645701 266.310489 
L 192.476301 266.310489 
z
" style="fill:#1f77b4;"/>
   </g>
   <g id="patch_39">
    <path clip-path="url(#p1615aae0c7)" d="M 195.645701 307.584 
L 198.8151 307.584 
L 198.8151 253.143963 
L 195.645701 253.143963 
z
" style="fill:#1f77b4;"/>
   </g>
   <g id="patch_40">
    <path clip-path="url(#p1615aae0c7)" d="M 198.8151 307.584 
L 201.9845 307.584 
L 201.9845 209.544629 
L 198.8151 209.544629 
z
" style="fill:#1f77b4;"/>
   </g>
   <g id="patch_41">
    <path clip-path="url(#p1615aae0c7)" d="M 201.9845 307.584 
L 205.153899 307.584 
L 205.153899 99.600195 
L 201.9845 99.600195 
z
" style="fill:#1f77b4;"/>
   </g>
   <g id="patch_42">
    <path clip-path="url(#p1615aae0c7)" d="M 205.153899 307.584 
L 208.323299 307.584 
L 208.323299 71.516863 
L 205.153899 71.516863 
z
" style="fill:#1f77b4;"/>
   </g>
   <g id="patch_43">
    <path clip-path="url(#p1615aae0c7)" d="M 208.323299 307.584 
L 211.492698 307.584 
L 211.492698 114.162215 
L 208.323299 114.162215 
z
" style="fill:#1f77b4;"/>
   </g>
   <g id="patch_44">
    <path clip-path="url(#p1615aae0c7)" d="M 211.492698 307.584 
L 214.662098 307.584 
L 214.662098 156.799684 
L 211.492698 156.799684 
z
" style="fill:#1f77b4;"/>
   </g>
   <g id="patch_45">
    <path clip-path="url(#p1615aae0c7)" d="M 214.662098 307.584 
L 217.831498 307.584 
L 217.831498 246.079767 
L 214.662098 246.079767 
z
" style="fill:#1f77b4;"/>
   </g>
   <g id="patch_46">
    <path clip-path="url(#p1615aae0c7)" d="M 217.831498 307.584 
L 221.000897 307.584 
L 221.000897 245.49634 
L 217.831498 245.49634 
z
" style="fill:#1f77b4;"/>
   </g>
   <g id="patch_47">
    <path clip-path="url(#p1615aae0c7)" d="M 221.000897 307.584 
L 224.170297 307.584 
L 224.170297 246.671078 
L 221.000897 246.671078 
z
" style="fill:#1f77b4;"/>
   </g>
   <g id="patch_48">
    <path clip-path="url(#p1615aae0c7)" d="M 224.170297 307.584 
L 227.339696 307.584 
L 227.339696 247.940426 
L 224.170297 247.940426 
z
" style="fill:#1f77b4;"/>
   </g>
   <g id="patch_49">
    <path clip-path="url(#p1615aae0c7)" d="M 227.339696 307.584 
L 230.509096 307.584 
L 230.509096 249.264963 
L 227.339696 249.264963 
z
" style="fill:#1f77b4;"/>
   </g>
   <g id="patch_50">
    <path clip-path="url(#p1615aae0c7)" d="M 230.509096 307.584 
L 233.678495 307.584 
L 233.678495 254.342354 
L 230.509096 254.342354 
z
" style="fill:#1f77b4;"/>
   </g>
   <g id="patch_51">
    <path clip-path="url(#p1615aae0c7)" d="M 233.678495 307.584 
L 236.847895 307.584 
L 236.847895 259.553775 
L 233.678495 259.553775 
z
" style="fill:#1f77b4;"/>
   </g>
   <g id="patch_52">
    <path clip-path="url(#p1615aae0c7)" d="M 236.847895 307.584 
L 240.017295 307.584 
L 240.017295 263.212019 
L 236.847895 263.212019 
z
" style="fill:#1f77b4;"/>
   </g>
   <g id="patch_53">
    <path clip-path="url(#p1615aae0c7)" d="M 240.017295 307.584 
L 243.186694 307.584 
L 243.186694 266.917568 
L 240.017295 266.917568 
z
" style="fill:#1f77b4;"/>
   </g>
   <g id="patch_54">
    <path clip-path="url(#p1615aae0c7)" d="M 243.186694 307.584 
L 246.356094 307.584 
L 246.356094 270.883295 
L 243.186694 270.883295 
z
" style="fill:#1f77b4;"/>
   </g>
   <g id="patch_55">
    <path clip-path="url(#p1615aae0c7)" d="M 246.356094 307.584 
L 249.525493 307.584 
L 249.525493 273.863502 
L 246.356094 273.863502 
z
" style="fill:#1f77b4;"/>
   </g>
   <g id="patch_56">
    <path clip-path="url(#p1615aae0c7)" d="M 249.525493 307.584 
L 252.694893 307.584 
L 252.694893 276.528344 
L 249.525493 276.528344 
z
" style="fill:#1f77b4;"/>
   </g>
   <g id="patch_57">
    <path clip-path="url(#p1615aae0c7)" d="M 252.694893 307.584 
L 255.864292 307.584 
L 255.864292 278.917241 
L 252.694893 278.917241 
z
" style="fill:#1f77b4;"/>
   </g>
   <g id="patch_58">
    <path clip-path="url(#p1615aae0c7)" d="M 255.864292 307.584 
L 259.033692 307.584 
L 259.033692 281.14057 
L 255.864292 281.14057 
z
" style="fill:#1f77b4;"/>
   </g>
   <g id="patch_59">
    <path clip-path="url(#p1615aae0c7)" d="M 259.033692 307.584 
L 262.203091 307.584 
L 262.203091 282.930272 
L 259.033692 282.930272 
z
" style="fill:#1f77b4;"/>
   </g>
   <g id="patch_60">
    <path clip-path="url(#p1615aae0c7)" d="M 262.203091 307.584 
L 265.372491 307.584 
L 265.372491 283.82118 
L 262.203091 283.82118 
z
" style="fill:#1f77b4;"/>
   </g>
   <g id="patch_61">
    <path clip-path="url(#p1615aae0c7)" d="M 265.372491 307.584 
L 268.541891 307.584 
L 268.541891 284.893424 
L 265.372491 284.893424 
z
" style="fill:#1f77b4;"/>
   </g>
   <g id="patch_62">
    <path clip-path="url(#p1615aae0c7)" d="M 268.541891 307.584 
L 271.71129 307.584 
L 271.71129 286.344107 
L 268.541891 286.344107 
z
" style="fill:#1f77b4;"/>
   </g>
   <g id="patch_63">
    <path clip-path="url(#p1615aae0c7)" d="M 271.71129 307.584 
L 274.88069 307.584 
L 274.88069 287.542498 
L 271.71129 287.542498 
z
" style="fill:#1f77b4;"/>
   </g>
   <g id="patch_64">
    <path clip-path="url(#p1615aae0c7)" d="M 274.88069 307.584 
L 278.050089 307.584 
L 278.050089 288.165345 
L 274.88069 288.165345 
z
" style="fill:#1f77b4;"/>
   </g>
   <g id="patch_65">
    <path clip-path="url(#p1615aae0c7)" d="M 278.050089 307.584 
L 281.219489 307.584 
L 281.219489 289.403156 
L 278.050089 289.403156 
z
" style="fill:#1f77b4;"/>
   </g>
   <g id="patch_66">
    <path clip-path="url(#p1615aae0c7)" d="M 281.219489 307.584 
L 284.388888 307.584 
L 284.388888 290.026004 
L 281.219489 290.026004 
z
" style="fill:#1f77b4;"/>
   </g>
   <g id="patch_67">
    <path clip-path="url(#p1615aae0c7)" d="M 284.388888 307.584 
L 287.558288 307.584 
L 287.558288 291.910315 
L 284.388888 291.910315 
z
" style="fill:#1f77b4;"/>
   </g>
   <g id="patch_68">
    <path clip-path="url(#p1615aae0c7)" d="M 287.558288 307.584 
L 290.727688 307.584 
L 290.727688 292.79334 
L 287.558288 292.79334 
z
" style="fill:#1f77b4;"/>
   </g>
   <g id="patch_69">
    <path clip-path="url(#p1615aae0c7)" d="M 290.727688 307.584 
L 293.897087 307.584 
L 293.897087 294.906291 
L 290.727688 294.906291 
z
" style="fill:#1f77b4;"/>
   </g>
   <g id="patch_70">
    <path clip-path="url(#p1615aae0c7)" d="M 293.897087 307.584 
L 297.066487 307.584 
L 297.066487 296.065261 
L 293.897087 296.065261 
z
" style="fill:#1f77b4;"/>
   </g>
   <g id="patch_71">
    <path clip-path="url(#p1615aae0c7)" d="M 297.066487 307.584 
L 300.235886 307.584 
L 300.235886 297.476523 
L 297.066487 297.476523 
z
" style="fill:#1f77b4;"/>
   </g>
   <g id="patch_72">
    <path clip-path="url(#p1615aae0c7)" d="M 300.235886 307.584 
L 303.405286 307.584 
L 303.405286 298.674914 
L 300.235886 298.674914 
z
" style="fill:#1f77b4;"/>
   </g>
   <g id="patch_73">
    <path clip-path="url(#p1615aae0c7)" d="M 303.405286 307.584 
L 306.574685 307.584 
L 306.574685 300.472499 
L 303.405286 300.472499 
z
" style="fill:#1f77b4;"/>
   </g>
   <g id="patch_74">
    <path clip-path="url(#p1615aae0c7)" d="M 306.574685 307.584 
L 309.744085 307.584 
L 309.744085 301.126883 
L 306.574685 301.126883 
z
" style="fill:#1f77b4;"/>
   </g>
   <g id="patch_75">
    <path clip-path="url(#p1615aae0c7)" d="M 309.744085 307.584 
L 312.913484 307.584 
L 312.913484 302.577566 
L 309.744085 302.577566 
z
" style="fill:#1f77b4;"/>
   </g>
   <g id="patch_76">
    <path clip-path="url(#p1615aae0c7)" d="M 312.913484 307.584 
L 316.082884 307.584 
L 316.082884 303.413286 
L 312.913484 303.413286 
z
" style="fill:#1f77b4;"/>
   </g>
   <g id="patch_77">
    <path clip-path="url(#p1615aae0c7)" d="M 316.082884 307.584 
L 319.252284 307.584 
L 319.252284 304.225353 
L 316.082884 304.225353 
z
" style="fill:#1f77b4;"/>
   </g>
   <g id="patch_78">
    <path clip-path="url(#p1615aae0c7)" d="M 319.252284 307.584 
L 322.421683 307.584 
L 322.421683 304.895506 
L 319.252284 304.895506 
z
" style="fill:#1f77b4;"/>
   </g>
   <g id="patch_79">
    <path clip-path="url(#p1615aae0c7)" d="M 322.421683 307.584 
L 325.591083 307.584 
L 325.591083 305.163567 
L 322.421683 305.163567 
z
" style="fill:#1f77b4;"/>
   </g>
   <g id="patch_80">
    <path clip-path="url(#p1615aae0c7)" d="M 325.591083 307.584 
L 328.760482 307.584 
L 328.760482 305.715457 
L 325.591083 305.715457 
z
" style="fill:#1f77b4;"/>
   </g>
   <g id="patch_81">
    <path clip-path="url(#p1615aae0c7)" d="M 328.760482 307.584 
L 331.929882 307.584 
L 331.929882 305.999286 
L 328.760482 305.999286 
z
" style="fill:#1f77b4;"/>
   </g>
   <g id="patch_82">
    <path clip-path="url(#p1615aae0c7)" d="M 331.929882 307.584 
L 335.099281 307.584 
L 335.099281 306.582713 
L 331.929882 306.582713 
z
" style="fill:#1f77b4;"/>
   </g>
   <g id="patch_83">
    <path clip-path="url(#p1615aae0c7)" d="M 335.099281 307.584 
L 338.268681 307.584 
L 338.268681 306.724628 
L 335.099281 306.724628 
z
" style="fill:#1f77b4;"/>
   </g>
   <g id="patch_84">
    <path clip-path="url(#p1615aae0c7)" d="M 338.268681 307.584 
L 341.438081 307.584 
L 341.438081 307.000573 
L 338.268681 307.000573 
z
" style="fill:#1f77b4;"/>
   </g>
   <g id="patch_85">
    <path clip-path="url(#p1615aae0c7)" d="M 341.438081 307.584 
L 344.60748 307.584 
L 344.60748 307.047878 
L 341.438081 307.047878 
z
" style="fill:#1f77b4;"/>
   </g>
   <g id="patch_86">
    <path clip-path="url(#p1615aae0c7)" d="M 344.60748 307.584 
L 347.77688 307.584 
L 347.77688 307.315939 
L 344.60748 307.315939 
z
" style="fill:#1f77b4;"/>
   </g>
   <g id="patch_87">
    <path clip-path="url(#p1615aae0c7)" d="M 347.77688 307.584 
L 350.946279 307.584 
L 350.946279 307.371128 
L 347.77688 307.371128 
z
" style="fill:#1f77b4;"/>
   </g>
   <g id="patch_88">
    <path clip-path="url(#p1615aae0c7)" d="M 350.946279 307.584 
L 354.115679 307.584 
L 354.115679 307.347476 
L 350.946279 307.347476 
z
" style="fill:#1f77b4;"/>
   </g>
   <g id="patch_89">
    <path clip-path="url(#p1615aae0c7)" d="M 354.115679 307.584 
L 357.285078 307.584 
L 357.285078 307.434201 
L 354.115679 307.434201 
z
" style="fill:#1f77b4;"/>
   </g>
   <g id="patch_90">
    <path clip-path="url(#p1615aae0c7)" d="M 357.285078 307.584 
L 360.454478 307.584 
L 360.454478 307.513043 
L 357.285078 307.513043 
z
" style="fill:#1f77b4;"/>
   </g>
   <g id="patch_91">
    <path clip-path="url(#p1615aae0c7)" d="M 360.454478 307.584 
L 363.623878 307.584 
L 363.623878 307.536695 
L 360.454478 307.536695 
z
" style="fill:#1f77b4;"/>
   </g>
   <g id="patch_92">
    <path clip-path="url(#p1615aae0c7)" d="M 363.623878 307.584 
L 366.793277 307.584 
L 366.793277 307.552463 
L 363.623878 307.552463 
z
" style="fill:#1f77b4;"/>
   </g>
   <g id="patch_93">
    <path clip-path="url(#p1615aae0c7)" d="M 366.793277 307.584 
L 369.962677 307.584 
L 369.962677 307.560348 
L 366.793277 307.560348 
z
" style="fill:#1f77b4;"/>
   </g>
   <g id="patch_94">
    <path clip-path="url(#p1615aae0c7)" d="M 369.962677 307.584 
L 373.132076 307.584 
L 373.132076 307.552463 
L 369.962677 307.552463 
z
" style="fill:#1f77b4;"/>
   </g>
   <g id="patch_95">
    <path clip-path="url(#p1615aae0c7)" d="M 373.132076 307.584 
L 376.301476 307.584 
L 376.301476 307.536695 
L 373.132076 307.536695 
z
" style="fill:#1f77b4;"/>
   </g>
   <g id="patch_96">
    <path clip-path="url(#p1615aae0c7)" d="M 376.301476 307.584 
L 379.470875 307.584 
L 379.470875 307.584 
L 376.301476 307.584 
z
" style="fill:#1f77b4;"/>
   </g>
   <g id="patch_97">
    <path clip-path="url(#p1615aae0c7)" d="M 379.470875 307.584 
L 382.640275 307.584 
L 382.640275 307.576116 
L 379.470875 307.576116 
z
" style="fill:#1f77b4;"/>
   </g>
   <g id="patch_98">
    <path clip-path="url(#p1615aae0c7)" d="M 382.640275 307.584 
L 385.809674 307.584 
L 385.809674 307.584 
L 382.640275 307.584 
z
" style="fill:#1f77b4;"/>
   </g>
   <g id="patch_99">
    <path clip-path="url(#p1615aae0c7)" d="M 385.809674 307.584 
L 388.979074 307.584 
L 388.979074 307.584 
L 385.809674 307.584 
z
" style="fill:#1f77b4;"/>
   </g>
   <g id="patch_100">
    <path clip-path="url(#p1615aae0c7)" d="M 388.979074 307.584 
L 392.148474 307.584 
L 392.148474 307.584 
L 388.979074 307.584 
z
" style="fill:#1f77b4;"/>
   </g>
   <g id="patch_101">
    <path clip-path="url(#p1615aae0c7)" d="M 392.148474 307.584 
L 395.317873 307.584 
L 395.317873 307.584 
L 392.148474 307.584 
z
" style="fill:#1f77b4;"/>
   </g>
   <g id="patch_102">
    <path clip-path="url(#p1615aae0c7)" d="M 395.317873 307.584 
L 398.487273 307.584 
L 398.487273 307.576116 
L 395.317873 307.576116 
z
" style="fill:#1f77b4;"/>
   </g>
   <g id="matplotlib.axis_1">
    <g id="xtick_1">
     <g id="line2d_1">
      <defs>
       <path d="M 0 0 
L 0 3.5 
" id="mdd6fd987f2" style="stroke:#000000;stroke-width:0.8;"/>
      </defs>
      <g>
       <use style="stroke:#000000;stroke-width:0.8;" x="73.832727" xlink:href="#mdd6fd987f2" y="307.584"/>
      </g>
     </g>
     <g id="text_1">
      <!-- −2.5 -->
      <defs>
       <path d="M 10.59375 35.5 
L 73.1875 35.5 
L 73.1875 27.203125 
L 10.59375 27.203125 
z
" id="DejaVuSans-8722"/>
       <path d="M 19.1875 8.296875 
L 53.609375 8.296875 
L 53.609375 0 
L 7.328125 0 
L 7.328125 8.296875 
Q 12.9375 14.109375 22.625 23.890625 
Q 32.328125 33.6875 34.8125 36.53125 
Q 39.546875 41.84375 41.421875 45.53125 
Q 43.3125 49.21875 43.3125 52.78125 
Q 43.3125 58.59375 39.234375 62.25 
Q 35.15625 65.921875 28.609375 65.921875 
Q 23.96875 65.921875 18.8125 64.3125 
Q 13.671875 62.703125 7.8125 59.421875 
L 7.8125 69.390625 
Q 13.765625 71.78125 18.9375 73 
Q 24.125 74.21875 28.421875 74.21875 
Q 39.75 74.21875 46.484375 68.546875 
Q 53.21875 62.890625 53.21875 53.421875 
Q 53.21875 48.921875 51.53125 44.890625 
Q 49.859375 40.875 45.40625 35.40625 
Q 44.1875 33.984375 37.640625 27.21875 
Q 31.109375 20.453125 19.1875 8.296875 
z
" id="DejaVuSans-50"/>
       <path d="M 10.6875 12.40625 
L 21 12.40625 
L 21 0 
L 10.6875 0 
z
" id="DejaVuSans-46"/>
       <path d="M 10.796875 72.90625 
L 49.515625 72.90625 
L 49.515625 64.59375 
L 19.828125 64.59375 
L 19.828125 46.734375 
Q 21.96875 47.46875 24.109375 47.828125 
Q 26.265625 48.1875 28.421875 48.1875 
Q 40.625 48.1875 47.75 41.5 
Q 54.890625 34.8125 54.890625 23.390625 
Q 54.890625 11.625 47.5625 5.09375 
Q 40.234375 -1.421875 26.90625 -1.421875 
Q 22.3125 -1.421875 17.546875 -0.640625 
Q 12.796875 0.140625 7.71875 1.703125 
L 7.71875 11.625 
Q 12.109375 9.234375 16.796875 8.0625 
Q 21.484375 6.890625 26.703125 6.890625 
Q 35.15625 6.890625 40.078125 11.328125 
Q 45.015625 15.765625 45.015625 23.390625 
Q 45.015625 31 40.078125 35.4375 
Q 35.15625 39.890625 26.703125 39.890625 
Q 22.75 39.890625 18.8125 39.015625 
Q 14.890625 38.140625 10.796875 36.28125 
z
" id="DejaVuSans-53"/>
      </defs>
      <g transform="translate(37.408509 337.379312)scale(0.3 -0.3)">
       <use xlink:href="#DejaVuSans-8722"/>
       <use x="83.789062" xlink:href="#DejaVuSans-50"/>
       <use x="147.412109" xlink:href="#DejaVuSans-46"/>
       <use x="179.199219" xlink:href="#DejaVuSans-53"/>
      </g>
     </g>
    </g>
    <g id="xtick_2">
     <g id="line2d_2">
      <g>
       <use style="stroke:#000000;stroke-width:0.8;" x="213.326858" xlink:href="#mdd6fd987f2" y="307.584"/>
      </g>
     </g>
     <g id="text_2">
      <!-- 0.0 -->
      <defs>
       <path d="M 31.78125 66.40625 
Q 24.171875 66.40625 20.328125 58.90625 
Q 16.5 51.421875 16.5 36.375 
Q 16.5 21.390625 20.328125 13.890625 
Q 24.171875 6.390625 31.78125 6.390625 
Q 39.453125 6.390625 43.28125 13.890625 
Q 47.125 21.390625 47.125 36.375 
Q 47.125 51.421875 43.28125 58.90625 
Q 39.453125 66.40625 31.78125 66.40625 
z
M 31.78125 74.21875 
Q 44.046875 74.21875 50.515625 64.515625 
Q 56.984375 54.828125 56.984375 36.375 
Q 56.984375 17.96875 50.515625 8.265625 
Q 44.046875 -1.421875 31.78125 -1.421875 
Q 19.53125 -1.421875 13.0625 8.265625 
Q 6.59375 17.96875 6.59375 36.375 
Q 6.59375 54.828125 13.0625 64.515625 
Q 19.53125 74.21875 31.78125 74.21875 
z
" id="DejaVuSans-48"/>
      </defs>
      <g transform="translate(189.472171 337.379312)scale(0.3 -0.3)">
       <use xlink:href="#DejaVuSans-48"/>
       <use x="63.623047" xlink:href="#DejaVuSans-46"/>
       <use x="95.410156" xlink:href="#DejaVuSans-48"/>
      </g>
     </g>
    </g>
    <g id="xtick_3">
     <g id="line2d_3">
      <g>
       <use style="stroke:#000000;stroke-width:0.8;" x="352.82099" xlink:href="#mdd6fd987f2" y="307.584"/>
      </g>
     </g>
     <g id="text_3">
      <!-- 2.5 -->
      <g transform="translate(328.966302 337.379312)scale(0.3 -0.3)">
       <use xlink:href="#DejaVuSans-50"/>
       <use x="63.623047" xlink:href="#DejaVuSans-46"/>
       <use x="95.410156" xlink:href="#DejaVuSans-53"/>
      </g>
     </g>
    </g>
    <g id="text_4">
     <!-- Compressed value -->
     <defs>
      <path d="M 64.40625 67.28125 
L 64.40625 56.890625 
Q 59.421875 61.53125 53.78125 63.8125 
Q 48.140625 66.109375 41.796875 66.109375 
Q 29.296875 66.109375 22.65625 58.46875 
Q 16.015625 50.828125 16.015625 36.375 
Q 16.015625 21.96875 22.65625 14.328125 
Q 29.296875 6.6875 41.796875 6.6875 
Q 48.140625 6.6875 53.78125 8.984375 
Q 59.421875 11.28125 64.40625 15.921875 
L 64.40625 5.609375 
Q 59.234375 2.09375 53.4375 0.328125 
Q 47.65625 -1.421875 41.21875 -1.421875 
Q 24.65625 -1.421875 15.125 8.703125 
Q 5.609375 18.84375 5.609375 36.375 
Q 5.609375 53.953125 15.125 64.078125 
Q 24.65625 74.21875 41.21875 74.21875 
Q 47.75 74.21875 53.53125 72.484375 
Q 59.328125 70.75 64.40625 67.28125 
z
" id="DejaVuSans-67"/>
      <path d="M 30.609375 48.390625 
Q 23.390625 48.390625 19.1875 42.75 
Q 14.984375 37.109375 14.984375 27.296875 
Q 14.984375 17.484375 19.15625 11.84375 
Q 23.34375 6.203125 30.609375 6.203125 
Q 37.796875 6.203125 41.984375 11.859375 
Q 46.1875 17.53125 46.1875 27.296875 
Q 46.1875 37.015625 41.984375 42.703125 
Q 37.796875 48.390625 30.609375 48.390625 
z
M 30.609375 56 
Q 42.328125 56 49.015625 48.375 
Q 55.71875 40.765625 55.71875 27.296875 
Q 55.71875 13.875 49.015625 6.21875 
Q 42.328125 -1.421875 30.609375 -1.421875 
Q 18.84375 -1.421875 12.171875 6.21875 
Q 5.515625 13.875 5.515625 27.296875 
Q 5.515625 40.765625 12.171875 48.375 
Q 18.84375 56 30.609375 56 
z
" id="DejaVuSans-111"/>
      <path d="M 52 44.1875 
Q 55.375 50.25 60.0625 53.125 
Q 64.75 56 71.09375 56 
Q 79.640625 56 84.28125 50.015625 
Q 88.921875 44.046875 88.921875 33.015625 
L 88.921875 0 
L 79.890625 0 
L 79.890625 32.71875 
Q 79.890625 40.578125 77.09375 44.375 
Q 74.3125 48.1875 68.609375 48.1875 
Q 61.625 48.1875 57.5625 43.546875 
Q 53.515625 38.921875 53.515625 30.90625 
L 53.515625 0 
L 44.484375 0 
L 44.484375 32.71875 
Q 44.484375 40.625 41.703125 44.40625 
Q 38.921875 48.1875 33.109375 48.1875 
Q 26.21875 48.1875 22.15625 43.53125 
Q 18.109375 38.875 18.109375 30.90625 
L 18.109375 0 
L 9.078125 0 
L 9.078125 54.6875 
L 18.109375 54.6875 
L 18.109375 46.1875 
Q 21.1875 51.21875 25.484375 53.609375 
Q 29.78125 56 35.6875 56 
Q 41.65625 56 45.828125 52.96875 
Q 50 49.953125 52 44.1875 
z
" id="DejaVuSans-109"/>
      <path d="M 18.109375 8.203125 
L 18.109375 -20.796875 
L 9.078125 -20.796875 
L 9.078125 54.6875 
L 18.109375 54.6875 
L 18.109375 46.390625 
Q 20.953125 51.265625 25.265625 53.625 
Q 29.59375 56 35.59375 56 
Q 45.5625 56 51.78125 48.09375 
Q 58.015625 40.1875 58.015625 27.296875 
Q 58.015625 14.40625 51.78125 6.484375 
Q 45.5625 -1.421875 35.59375 -1.421875 
Q 29.59375 -1.421875 25.265625 0.953125 
Q 20.953125 3.328125 18.109375 8.203125 
z
M 48.6875 27.296875 
Q 48.6875 37.203125 44.609375 42.84375 
Q 40.53125 48.484375 33.40625 48.484375 
Q 26.265625 48.484375 22.1875 42.84375 
Q 18.109375 37.203125 18.109375 27.296875 
Q 18.109375 17.390625 22.1875 11.75 
Q 26.265625 6.109375 33.40625 6.109375 
Q 40.53125 6.109375 44.609375 11.75 
Q 48.6875 17.390625 48.6875 27.296875 
z
" id="DejaVuSans-112"/>
      <path d="M 41.109375 46.296875 
Q 39.59375 47.171875 37.8125 47.578125 
Q 36.03125 48 33.890625 48 
Q 26.265625 48 22.1875 43.046875 
Q 18.109375 38.09375 18.109375 28.8125 
L 18.109375 0 
L 9.078125 0 
L 9.078125 54.6875 
L 18.109375 54.6875 
L 18.109375 46.1875 
Q 20.953125 51.171875 25.484375 53.578125 
Q 30.03125 56 36.53125 56 
Q 37.453125 56 38.578125 55.875 
Q 39.703125 55.765625 41.0625 55.515625 
z
" id="DejaVuSans-114"/>
      <path d="M 56.203125 29.59375 
L 56.203125 25.203125 
L 14.890625 25.203125 
Q 15.484375 15.921875 20.484375 11.0625 
Q 25.484375 6.203125 34.421875 6.203125 
Q 39.59375 6.203125 44.453125 7.46875 
Q 49.3125 8.734375 54.109375 11.28125 
L 54.109375 2.78125 
Q 49.265625 0.734375 44.1875 -0.34375 
Q 39.109375 -1.421875 33.890625 -1.421875 
Q 20.796875 -1.421875 13.15625 6.1875 
Q 5.515625 13.8125 5.515625 26.8125 
Q 5.515625 40.234375 12.765625 48.109375 
Q 20.015625 56 32.328125 56 
Q 43.359375 56 49.78125 48.890625 
Q 56.203125 41.796875 56.203125 29.59375 
z
M 47.21875 32.234375 
Q 47.125 39.59375 43.09375 43.984375 
Q 39.0625 48.390625 32.421875 48.390625 
Q 24.90625 48.390625 20.390625 44.140625 
Q 15.875 39.890625 15.1875 32.171875 
z
" id="DejaVuSans-101"/>
      <path d="M 44.28125 53.078125 
L 44.28125 44.578125 
Q 40.484375 46.53125 36.375 47.5 
Q 32.28125 48.484375 27.875 48.484375 
Q 21.1875 48.484375 17.84375 46.4375 
Q 14.5 44.390625 14.5 40.28125 
Q 14.5 37.15625 16.890625 35.375 
Q 19.28125 33.59375 26.515625 31.984375 
L 29.59375 31.296875 
Q 39.15625 29.25 43.1875 25.515625 
Q 47.21875 21.78125 47.21875 15.09375 
Q 47.21875 7.46875 41.1875 3.015625 
Q 35.15625 -1.421875 24.609375 -1.421875 
Q 20.21875 -1.421875 15.453125 -0.5625 
Q 10.6875 0.296875 5.421875 2 
L 5.421875 11.28125 
Q 10.40625 8.6875 15.234375 7.390625 
Q 20.0625 6.109375 24.8125 6.109375 
Q 31.15625 6.109375 34.5625 8.28125 
Q 37.984375 10.453125 37.984375 14.40625 
Q 37.984375 18.0625 35.515625 20.015625 
Q 33.0625 21.96875 24.703125 23.78125 
L 21.578125 24.515625 
Q 13.234375 26.265625 9.515625 29.90625 
Q 5.8125 33.546875 5.8125 39.890625 
Q 5.8125 47.609375 11.28125 51.796875 
Q 16.75 56 26.8125 56 
Q 31.78125 56 36.171875 55.265625 
Q 40.578125 54.546875 44.28125 53.078125 
z
" id="DejaVuSans-115"/>
      <path d="M 45.40625 46.390625 
L 45.40625 75.984375 
L 54.390625 75.984375 
L 54.390625 0 
L 45.40625 0 
L 45.40625 8.203125 
Q 42.578125 3.328125 38.25 0.953125 
Q 33.9375 -1.421875 27.875 -1.421875 
Q 17.96875 -1.421875 11.734375 6.484375 
Q 5.515625 14.40625 5.515625 27.296875 
Q 5.515625 40.1875 11.734375 48.09375 
Q 17.96875 56 27.875 56 
Q 33.9375 56 38.25 53.625 
Q 42.578125 51.265625 45.40625 46.390625 
z
M 14.796875 27.296875 
Q 14.796875 17.390625 18.875 11.75 
Q 22.953125 6.109375 30.078125 6.109375 
Q 37.203125 6.109375 41.296875 11.75 
Q 45.40625 17.390625 45.40625 27.296875 
Q 45.40625 37.203125 41.296875 42.84375 
Q 37.203125 48.484375 30.078125 48.484375 
Q 22.953125 48.484375 18.875 42.84375 
Q 14.796875 37.203125 14.796875 27.296875 
z
" id="DejaVuSans-100"/>
      <path id="DejaVuSans-32"/>
      <path d="M 2.984375 54.6875 
L 12.5 54.6875 
L 29.59375 8.796875 
L 46.6875 54.6875 
L 56.203125 54.6875 
L 35.6875 0 
L 23.484375 0 
z
" id="DejaVuSans-118"/>
      <path d="M 34.28125 27.484375 
Q 23.390625 27.484375 19.1875 25 
Q 14.984375 22.515625 14.984375 16.5 
Q 14.984375 11.71875 18.140625 8.90625 
Q 21.296875 6.109375 26.703125 6.109375 
Q 34.1875 6.109375 38.703125 11.40625 
Q 43.21875 16.703125 43.21875 25.484375 
L 43.21875 27.484375 
z
M 52.203125 31.203125 
L 52.203125 0 
L 43.21875 0 
L 43.21875 8.296875 
Q 40.140625 3.328125 35.546875 0.953125 
Q 30.953125 -1.421875 24.3125 -1.421875 
Q 15.921875 -1.421875 10.953125 3.296875 
Q 6 8.015625 6 15.921875 
Q 6 25.140625 12.171875 29.828125 
Q 18.359375 34.515625 30.609375 34.515625 
L 43.21875 34.515625 
L 43.21875 35.40625 
Q 43.21875 41.609375 39.140625 45 
Q 35.0625 48.390625 27.6875 48.390625 
Q 23 48.390625 18.546875 47.265625 
Q 14.109375 46.140625 10.015625 43.890625 
L 10.015625 52.203125 
Q 14.9375 54.109375 19.578125 55.046875 
Q 24.21875 56 28.609375 56 
Q 40.484375 56 46.34375 49.84375 
Q 52.203125 43.703125 52.203125 31.203125 
z
" id="DejaVuSans-97"/>
      <path d="M 9.421875 75.984375 
L 18.40625 75.984375 
L 18.40625 0 
L 9.421875 0 
z
" id="DejaVuSans-108"/>
      <path d="M 8.5 21.578125 
L 8.5 54.6875 
L 17.484375 54.6875 
L 17.484375 21.921875 
Q 17.484375 14.15625 20.5 10.265625 
Q 23.53125 6.390625 29.59375 6.390625 
Q 36.859375 6.390625 41.078125 11.03125 
Q 45.3125 15.671875 45.3125 23.6875 
L 45.3125 54.6875 
L 54.296875 54.6875 
L 54.296875 0 
L 45.3125 0 
L 45.3125 8.40625 
Q 42.046875 3.421875 37.71875 1 
Q 33.40625 -1.421875 27.6875 -1.421875 
Q 18.265625 -1.421875 13.375 4.4375 
Q 8.5 10.296875 8.5 21.578125 
z
M 31.109375 56 
z
" id="DejaVuSans-117"/>
     </defs>
     <g transform="translate(96.861562 370.413687)scale(0.3 -0.3)">
      <use xlink:href="#DejaVuSans-67"/>
      <use x="69.824219" xlink:href="#DejaVuSans-111"/>
      <use x="131.005859" xlink:href="#DejaVuSans-109"/>
      <use x="228.417969" xlink:href="#DejaVuSans-112"/>
      <use x="291.894531" xlink:href="#DejaVuSans-114"/>
      <use x="332.976562" xlink:href="#DejaVuSans-101"/>
      <use x="394.5" xlink:href="#DejaVuSans-115"/>
      <use x="446.599609" xlink:href="#DejaVuSans-115"/>
      <use x="498.699219" xlink:href="#DejaVuSans-101"/>
      <use x="560.222656" xlink:href="#DejaVuSans-100"/>
      <use x="623.699219" xlink:href="#DejaVuSans-32"/>
      <use x="655.486328" xlink:href="#DejaVuSans-118"/>
      <use x="714.666016" xlink:href="#DejaVuSans-97"/>
      <use x="775.945312" xlink:href="#DejaVuSans-108"/>
      <use x="803.728516" xlink:href="#DejaVuSans-117"/>
      <use x="867.107422" xlink:href="#DejaVuSans-101"/>
     </g>
    </g>
   </g>
   <g id="matplotlib.axis_2">
    <g id="ytick_1">
     <g id="line2d_4">
      <defs>
       <path d="M 0 0 
L -3.5 0 
" id="mb2024d2630" style="stroke:#000000;stroke-width:0.8;"/>
      </defs>
      <g>
       <use style="stroke:#000000;stroke-width:0.8;" x="57.6" xlink:href="#mb2024d2630" y="307.584"/>
      </g>
     </g>
     <g id="text_5">
      <!-- 0.0 -->
      <g transform="translate(2.890625 318.981656)scale(0.3 -0.3)">
       <use xlink:href="#DejaVuSans-48"/>
       <use x="63.623047" xlink:href="#DejaVuSans-46"/>
       <use x="95.410156" xlink:href="#DejaVuSans-48"/>
      </g>
     </g>
    </g>
    <g id="ytick_2">
     <g id="line2d_5">
      <g>
       <use style="stroke:#000000;stroke-width:0.8;" x="57.6" xlink:href="#mb2024d2630" y="239.961264"/>
      </g>
     </g>
     <g id="text_6">
      <!-- 0.5 -->
      <g transform="translate(2.890625 251.35892)scale(0.3 -0.3)">
       <use xlink:href="#DejaVuSans-48"/>
       <use x="63.623047" xlink:href="#DejaVuSans-46"/>
       <use x="95.410156" xlink:href="#DejaVuSans-53"/>
      </g>
     </g>
    </g>
    <g id="ytick_3">
     <g id="line2d_6">
      <g>
       <use style="stroke:#000000;stroke-width:0.8;" x="57.6" xlink:href="#mb2024d2630" y="172.338527"/>
      </g>
     </g>
     <g id="text_7">
      <!-- 1.0 -->
      <defs>
       <path d="M 12.40625 8.296875 
L 28.515625 8.296875 
L 28.515625 63.921875 
L 10.984375 60.40625 
L 10.984375 69.390625 
L 28.421875 72.90625 
L 38.28125 72.90625 
L 38.28125 8.296875 
L 54.390625 8.296875 
L 54.390625 0 
L 12.40625 0 
z
" id="DejaVuSans-49"/>
      </defs>
      <g transform="translate(2.890625 183.736184)scale(0.3 -0.3)">
       <use xlink:href="#DejaVuSans-49"/>
       <use x="63.623047" xlink:href="#DejaVuSans-46"/>
       <use x="95.410156" xlink:href="#DejaVuSans-48"/>
      </g>
     </g>
    </g>
    <g id="ytick_4">
     <g id="line2d_7">
      <g>
       <use style="stroke:#000000;stroke-width:0.8;" x="57.6" xlink:href="#mb2024d2630" y="104.715791"/>
      </g>
     </g>
     <g id="text_8">
      <!-- 1.5 -->
      <g transform="translate(2.890625 116.113447)scale(0.3 -0.3)">
       <use xlink:href="#DejaVuSans-49"/>
       <use x="63.623047" xlink:href="#DejaVuSans-46"/>
       <use x="95.410156" xlink:href="#DejaVuSans-53"/>
      </g>
     </g>
    </g>
    <g id="text_9">
     <!-- Density -->
     <defs>
      <path d="M 19.671875 64.796875 
L 19.671875 8.109375 
L 31.59375 8.109375 
Q 46.6875 8.109375 53.6875 14.9375 
Q 60.6875 21.78125 60.6875 36.53125 
Q 60.6875 51.171875 53.6875 57.984375 
Q 46.6875 64.796875 31.59375 64.796875 
z
M 9.8125 72.90625 
L 30.078125 72.90625 
Q 51.265625 72.90625 61.171875 64.09375 
Q 71.09375 55.28125 71.09375 36.53125 
Q 71.09375 17.671875 61.125 8.828125 
Q 51.171875 0 30.078125 0 
L 9.8125 0 
z
" id="DejaVuSans-68"/>
      <path d="M 54.890625 33.015625 
L 54.890625 0 
L 45.90625 0 
L 45.90625 32.71875 
Q 45.90625 40.484375 42.875 44.328125 
Q 39.84375 48.1875 33.796875 48.1875 
Q 26.515625 48.1875 22.3125 43.546875 
Q 18.109375 38.921875 18.109375 30.90625 
L 18.109375 0 
L 9.078125 0 
L 9.078125 54.6875 
L 18.109375 54.6875 
L 18.109375 46.1875 
Q 21.34375 51.125 25.703125 53.5625 
Q 30.078125 56 35.796875 56 
Q 45.21875 56 50.046875 50.171875 
Q 54.890625 44.34375 54.890625 33.015625 
z
" id="DejaVuSans-110"/>
      <path d="M 9.421875 54.6875 
L 18.40625 54.6875 
L 18.40625 0 
L 9.421875 0 
z
M 9.421875 75.984375 
L 18.40625 75.984375 
L 18.40625 64.59375 
L 9.421875 64.59375 
z
" id="DejaVuSans-105"/>
      <path d="M 18.3125 70.21875 
L 18.3125 54.6875 
L 36.8125 54.6875 
L 36.8125 47.703125 
L 18.3125 47.703125 
L 18.3125 18.015625 
Q 18.3125 11.328125 20.140625 9.421875 
Q 21.96875 7.515625 27.59375 7.515625 
L 36.8125 7.515625 
L 36.8125 0 
L 27.59375 0 
Q 17.1875 0 13.234375 3.875 
Q 9.28125 7.765625 9.28125 18.015625 
L 9.28125 47.703125 
L 2.6875 47.703125 
L 2.6875 54.6875 
L 9.28125 54.6875 
L 9.28125 70.21875 
z
" id="DejaVuSans-116"/>
      <path d="M 32.171875 -5.078125 
Q 28.375 -14.84375 24.75 -17.8125 
Q 21.140625 -20.796875 15.09375 -20.796875 
L 7.90625 -20.796875 
L 7.90625 -13.28125 
L 13.1875 -13.28125 
Q 16.890625 -13.28125 18.9375 -11.515625 
Q 21 -9.765625 23.484375 -3.21875 
L 25.09375 0.875 
L 2.984375 54.6875 
L 12.5 54.6875 
L 29.59375 11.921875 
L 46.6875 54.6875 
L 56.203125 54.6875 
z
" id="DejaVuSans-121"/>
     </defs>
     <g transform="translate(-7.348438 231.553781)rotate(-90)scale(0.3 -0.3)">
      <use xlink:href="#DejaVuSans-68"/>
      <use x="77.001953" xlink:href="#DejaVuSans-101"/>
      <use x="138.525391" xlink:href="#DejaVuSans-110"/>
      <use x="201.904297" xlink:href="#DejaVuSans-115"/>
      <use x="254.003906" xlink:href="#DejaVuSans-105"/>
      <use x="281.787109" xlink:href="#DejaVuSans-116"/>
      <use x="320.996094" xlink:href="#DejaVuSans-121"/>
     </g>
    </g>
   </g>
   <g id="line2d_8">
    <path clip-path="url(#p1615aae0c7)" d="M 73.832727 307.584 
L 91.271803 307.47289 
L 92.782682 307.42314 
L 96.632165 307.385258 
L 98.160134 307.359347 
L 101.718158 307.134819 
L 102.763441 307.006347 
L 103.863689 307.026722 
L 105.059089 306.89189 
L 108.099322 306.99194 
L 112.196847 305.986129 
L 114.201036 305.833736 
L 115.93455 305.582004 
L 117.12025 305.09301 
L 118.459764 305.063271 
L 120.04547 304.182706 
L 120.750793 304.183772 
L 121.743419 304.193169 
L 122.321257 304.004442 
L 122.806715 303.554697 
L 123.396101 303.09607 
L 124.645081 302.400438 
L 127.353207 300.991586 
L 127.79848 300.803754 
L 128.334285 300.277344 
L 129.356472 299.317311 
L 129.94863 298.557423 
L 130.558339 297.895963 
L 133.037362 295.916253 
L 133.839684 294.965937 
L 134.520989 294.137332 
L 135.162107 293.440839 
L 136.306236 292.472857 
L 137.323343 291.485202 
L 137.86931 290.933687 
L 138.716898 289.570411 
L 139.366793 288.314446 
L 140.087359 286.936982 
L 140.519698 286.612144 
L 141.047651 286.482192 
L 141.448119 286.617656 
L 142.048591 286.820811 
L 142.364993 286.654208 
L 142.830589 286.108503 
L 144.411677 284.118088 
L 145.375664 283.06014 
L 145.927636 282.584261 
L 146.367366 282.511873 
L 146.984004 282.39559 
L 147.601104 281.982452 
L 150.200221 280.03793 
L 150.518933 280.176896 
L 150.946192 280.639965 
L 152.025193 281.904393 
L 152.290786 281.871856 
L 152.564231 281.580899 
L 153.394729 280.546959 
L 153.659861 280.660274 
L 154.363798 281.044933 
L 154.839094 280.911755 
L 155.350419 280.861423 
L 155.794305 281.053144 
L 156.236807 281.497672 
L 157.307032 282.708844 
L 158.497813 283.28728 
L 158.917219 283.155308 
L 160.338027 282.327771 
L 160.78838 282.011228 
L 161.04335 282.098724 
L 161.404094 282.512154 
L 162.033204 283.187454 
L 162.326973 283.19928 
L 162.649842 282.958455 
L 163.187494 282.574525 
L 163.417521 282.695715 
L 163.740852 283.176857 
L 164.367652 284.077729 
L 164.888214 284.331472 
L 165.860054 284.689281 
L 166.563991 284.627401 
L 167.70304 284.886561 
L 168.227297 284.699741 
L 168.787121 284.526889 
L 169.055948 284.706263 
L 169.434245 285.284515 
L 170.09153 286.236431 
L 170.443037 286.3723 
L 170.811172 286.266677 
L 171.358063 285.843739 
L 172.481868 284.938569 
L 172.73499 285.092996 
L 173.159015 285.6904 
L 173.578422 286.114823 
L 173.844477 286.094668 
L 174.245869 285.777586 
L 174.626475 285.599698 
L 174.898073 285.726547 
L 175.986312 286.486986 
L 176.387704 286.315425 
L 177.172012 285.667842 
L 177.94662 285.145516 
L 178.540625 285.061222 
L 179.125854 284.872858 
L 179.565122 284.822523 
L 179.985452 285.04141 
L 180.537885 285.267537 
L 181.257527 285.473249 
L 181.888484 285.718994 
L 182.252924 285.581803 
L 182.833534 285.078497 
L 183.790131 284.276164 
L 184.213694 284.240471 
L 184.891765 284.213253 
L 185.221562 283.917592 
L 185.656211 283.178537 
L 186.346754 282.05145 
L 186.611423 281.994108 
L 186.885792 282.191687 
L 187.430374 282.597504 
L 187.620677 282.439985 
L 187.862713 281.889403 
L 188.30429 280.189861 
L 188.865038 278.342901 
L 189.272897 277.715738 
L 189.878911 277.249863 
L 190.33065 276.771463 
L 190.776847 275.913669 
L 191.980099 273.463309 
L 192.4517 272.198742 
L 193.382893 268.817029 
L 194.169972 266.420998 
L 194.643421 264.671607 
L 196.240675 257.97958 
L 196.830061 255.063056 
L 198.512305 245.190731 
L 198.995915 239.483315 
L 199.574677 229.790407 
L 200.370533 212.204472 
L 201.151146 190.421877 
L 201.979796 160.150973 
L 204.085141 80.610264 
L 204.773374 62.77207 
L 205.222342 56.152696 
L 205.526735 54.275242 
L 205.647291 54.14726 
L 205.684243 54.17835 
L 205.807571 54.517647 
L 206.013117 55.861319 
L 206.321666 59.567586 
L 206.749387 67.706867 
L 207.467181 86.519012 
L 208.188671 103.145658 
L 208.691219 109.849553 
L 209.550817 117.810333 
L 209.819643 118.769084 
L 209.912947 118.737511 
L 209.929576 118.711175 
L 210.073689 118.229754 
L 210.327735 116.447314 
L 211.194261 107.840871 
L 212.237696 97.478137 
L 212.328228 97.771712 
L 212.456637 99.38498 
L 212.643707 105.066119 
L 212.898676 120.692937 
L 213.296835 161.409034 
L 213.97583 227.595433 
L 214.318098 241.633987 
L 214.603091 245.807136 
L 214.837275 246.700487 
L 215.004021 246.726332 
L 215.269153 246.428724 
L 215.810039 245.900259 
L 216.403582 245.673208 
L 216.916292 245.697589 
L 217.572653 245.72651 
L 217.929241 245.472855 
L 218.656273 244.895958 
L 218.902929 245.03863 
L 220.083086 246.048783 
L 221.692349 246.512746 
L 222.066489 246.573201 
L 222.71777 246.569026 
L 223.588453 247.046016 
L 224.490084 246.53272 
L 224.791706 246.861747 
L 225.241597 247.725752 
L 226.084567 249.381553 
L 226.310898 249.390818 
L 226.559401 249.136294 
L 227.597293 247.832716 
L 227.873048 247.92376 
L 228.267973 248.337325 
L 229.459678 250.008949 
L 230.624131 252.187763 
L 231.631999 254.800998 
L 231.880502 254.882185 
L 232.135009 254.702615 
L 232.717467 254.253634 
L 232.917008 254.411058 
L 233.173825 254.955038 
L 233.645426 256.60651 
L 234.337354 258.784692 
L 234.751679 259.459775 
L 235.02882 259.553943 
L 235.377555 259.390154 
L 235.723981 259.322548 
L 235.959088 259.524679 
L 236.265791 260.135832 
L 237.38082 262.651097 
L 237.767431 262.83044 
L 238.516173 263.120437 
L 239.060754 263.616688 
L 239.502332 264.344423 
L 240.555466 266.234635 
L 241.252937 266.714824 
L 241.932393 267.045189 
L 242.710235 267.274745 
L 243.878383 268.365141 
L 244.228966 269.082282 
L 244.892256 271.110571 
L 245.580488 272.868818 
L 246.028532 273.492113 
L 246.34863 273.605532 
L 246.659489 273.47047 
L 247.606386 272.898561 
L 247.85997 273.185705 
L 248.341733 274.169893 
L 248.865067 275.017315 
L 249.257683 275.260324 
L 250.193956 275.640135 
L 250.738076 276.369298 
L 251.551022 277.389348 
L 252.04387 277.61987 
L 253.654519 278.230543 
L 254.997266 279.503012 
L 256.079038 280.684066 
L 257.251805 281.178089 
L 257.711397 281.082118 
L 258.11556 281.0839 
L 258.473995 281.347704 
L 259.083705 281.781681 
L 259.829213 282.064441 
L 260.222291 282.71511 
L 260.754401 283.475482 
L 261.107756 283.608386 
L 261.570119 283.520987 
L 262.463435 283.321354 
L 262.942889 283.517276 
L 263.811725 283.889027 
L 264.609428 283.867125 
L 265.772957 283.90002 
L 266.115687 284.268554 
L 267.347577 285.841775 
L 267.674603 285.760009 
L 268.386393 285.531539 
L 268.938365 285.694716 
L 269.510198 286.062783 
L 270.43631 286.733664 
L 270.833083 286.689233 
L 271.900998 286.422463 
L 272.273291 286.755506 
L 273.215569 287.661284 
L 273.855302 287.935803 
L 274.207733 287.856988 
L 274.742152 287.43558 
L 275.080264 287.332825 
L 275.3611 287.495707 
L 276.514929 288.417719 
L 277.332493 288.585684 
L 278.36669 289.126417 
L 279.412896 289.176295 
L 279.852626 289.68976 
L 280.31037 290.099898 
L 280.605525 290.075674 
L 282.155203 289.554504 
L 282.92473 289.880414 
L 283.684095 290.318558 
L 284.491499 291.144165 
L 285.040237 291.526853 
L 286.437026 292.196217 
L 286.922484 292.503656 
L 287.271681 292.443961 
L 287.795939 292.364448 
L 288.166384 292.589054 
L 288.966396 293.107556 
L 289.394117 293.071687 
L 290.136392 292.987483 
L 290.526698 293.207943 
L 291.059732 293.811663 
L 291.851431 294.644102 
L 292.449131 294.919202 
L 293.049602 295.245033 
L 294.15955 296.052967 
L 294.596047 295.90945 
L 295.355412 295.659314 
L 295.687981 295.822779 
L 296.840886 296.608185 
L 297.530967 296.825328 
L 300.10006 298.284124 
L 300.541176 298.232354 
L 301.001229 298.24426 
L 301.457588 298.535205 
L 302.024802 298.817033 
L 303.049761 299.151146 
L 303.64007 299.701617 
L 304.515835 300.502512 
L 305.019769 300.632005 
L 306.288149 300.83241 
L 307.30387 301.249658 
L 307.799028 301.024303 
L 308.284486 300.908077 
L 308.776411 301.04934 
L 309.427691 301.464882 
L 310.848961 302.553726 
L 312.485015 302.89781 
L 313.270708 303.133796 
L 315.552038 303.640798 
L 316.152971 303.77608 
L 317.121578 303.89439 
L 319.371036 304.81777 
L 320.200149 304.748173 
L 321.005704 304.802613 
L 321.788165 305.124077 
L 322.309189 305.194901 
L 323.124444 305.013637 
L 323.778958 304.968654 
L 324.529548 305.216094 
L 325.991003 305.605827 
L 330.367977 305.989752 
L 331.095472 305.921409 
L 331.693172 306.145302 
L 332.823444 306.563056 
L 333.591123 306.580532 
L 335.793468 306.564416 
L 336.750989 306.752003 
L 337.711281 306.986481 
L 338.393047 307.004417 
L 340.034182 306.915148 
L 342.109965 307.088588 
L 344.074892 307.097956 
L 345.491081 307.341268 
L 347.951628 307.349093 
L 349.875446 307.39066 
L 351.655151 307.270746 
L 352.820528 307.3777 
L 352.820528 307.3777 
" style="fill:none;stroke:#ff7f0e;stroke-linecap:square;stroke-width:1.5;"/>
   </g>
   <g id="patch_103">
    <path d="M 57.6 307.584 
L 57.6 41.472 
" style="fill:none;stroke:#000000;stroke-linecap:square;stroke-linejoin:miter;stroke-width:0.8;"/>
   </g>
   <g id="patch_104">
    <path d="M 414.72 307.584 
L 414.72 41.472 
" style="fill:none;stroke:#000000;stroke-linecap:square;stroke-linejoin:miter;stroke-width:0.8;"/>
   </g>
   <g id="patch_105">
    <path d="M 57.6 307.584 
L 414.72 307.584 
" style="fill:none;stroke:#000000;stroke-linecap:square;stroke-linejoin:miter;stroke-width:0.8;"/>
   </g>
   <g id="patch_106">
    <path d="M 57.6 41.472 
L 414.72 41.472 
" style="fill:none;stroke:#000000;stroke-linecap:square;stroke-linejoin:miter;stroke-width:0.8;"/>
   </g>
  </g>
 </g>
 <defs>
  <clipPath id="p1615aae0c7">
   <rect height="266.112" width="357.12" x="57.6" y="41.472"/>
  </clipPath>
 </defs>
</svg>
