<?xml version="1.0" encoding="utf-8" standalone="no"?>
<!DOCTYPE svg PUBLIC "-//W3C//DTD SVG 1.1//EN"
  "http://www.w3.org/Graphics/SVG/1.1/DTD/svg11.dtd">
<!-- Created with matplotlib (https://matplotlib.org/) -->
<svg height="345.6pt" version="1.1" viewBox="0 0 460.8 345.6" width="460.8pt" xmlns="http://www.w3.org/2000/svg" xmlns:xlink="http://www.w3.org/1999/xlink">
 <defs>
  <style type="text/css">
*{stroke-linecap:butt;stroke-linejoin:round;}
  </style>
 </defs>
 <g id="figure_1">
  <g id="patch_1">
   <path d="M 0 345.6 
L 460.8 345.6 
L 460.8 0 
L 0 0 
z
" style="fill:#ffffff;"/>
  </g>
  <g id="axes_1">
   <g id="patch_2">
    <path d="M 57.6 307.584 
L 414.72 307.584 
L 414.72 41.472 
L 57.6 41.472 
z
" style="fill:#ffffff;"/>
   </g>
   <g id="patch_3">
    <path clip-path="url(#pa49dbe2d86)" d="M 73.832727 307.584 
L 76.856903 307.584 
L 76.856903 307.375152 
L 73.832727 307.375152 
z
" style="fill:#1f77b4;"/>
   </g>
   <g id="patch_4">
    <path clip-path="url(#pa49dbe2d86)" d="M 76.856903 307.584 
L 79.881079 307.584 
L 79.881079 307.375152 
L 76.856903 307.375152 
z
" style="fill:#1f77b4;"/>
   </g>
   <g id="patch_5">
    <path clip-path="url(#pa49dbe2d86)" d="M 79.881079 307.584 
L 82.905255 307.584 
L 82.905255 307.305536 
L 79.881079 307.305536 
z
" style="fill:#1f77b4;"/>
   </g>
   <g id="patch_6">
    <path clip-path="url(#pa49dbe2d86)" d="M 82.905255 307.584 
L 85.929431 307.584 
L 85.929431 307.584 
L 82.905255 307.584 
z
" style="fill:#1f77b4;"/>
   </g>
   <g id="patch_7">
    <path clip-path="url(#pa49dbe2d86)" d="M 85.929431 307.584 
L 88.953607 307.584 
L 88.953607 307.166305 
L 85.929431 307.166305 
z
" style="fill:#1f77b4;"/>
   </g>
   <g id="patch_8">
    <path clip-path="url(#pa49dbe2d86)" d="M 88.953607 307.584 
L 91.977783 307.584 
L 91.977783 306.887841 
L 88.953607 306.887841 
z
" style="fill:#1f77b4;"/>
   </g>
   <g id="patch_9">
    <path clip-path="url(#pa49dbe2d86)" d="M 91.977783 307.584 
L 95.001959 307.584 
L 95.001959 306.609378 
L 91.977783 306.609378 
z
" style="fill:#1f77b4;"/>
   </g>
   <g id="patch_10">
    <path clip-path="url(#pa49dbe2d86)" d="M 95.001959 307.584 
L 98.026135 307.584 
L 98.026135 306.957457 
L 95.001959 306.957457 
z
" style="fill:#1f77b4;"/>
   </g>
   <g id="patch_11">
    <path clip-path="url(#pa49dbe2d86)" d="M 98.026135 307.584 
L 101.050311 307.584 
L 101.050311 305.982834 
L 98.026135 305.982834 
z
" style="fill:#1f77b4;"/>
   </g>
   <g id="patch_12">
    <path clip-path="url(#pa49dbe2d86)" d="M 101.050311 307.584 
L 104.074487 307.584 
L 104.074487 305.704371 
L 101.050311 305.704371 
z
" style="fill:#1f77b4;"/>
   </g>
   <g id="patch_13">
    <path clip-path="url(#pa49dbe2d86)" d="M 104.074487 307.584 
L 107.098663 307.584 
L 107.098663 304.590517 
L 104.074487 304.590517 
z
" style="fill:#1f77b4;"/>
   </g>
   <g id="patch_14">
    <path clip-path="url(#pa49dbe2d86)" d="M 107.098663 307.584 
L 110.122839 307.584 
L 110.122839 303.198199 
L 107.098663 303.198199 
z
" style="fill:#1f77b4;"/>
   </g>
   <g id="patch_15">
    <path clip-path="url(#pa49dbe2d86)" d="M 110.122839 307.584 
L 113.147015 307.584 
L 113.147015 300.97049 
L 110.122839 300.97049 
z
" style="fill:#1f77b4;"/>
   </g>
   <g id="patch_16">
    <path clip-path="url(#pa49dbe2d86)" d="M 113.147015 307.584 
L 116.171191 307.584 
L 116.171191 299.926252 
L 113.147015 299.926252 
z
" style="fill:#1f77b4;"/>
   </g>
   <g id="patch_17">
    <path clip-path="url(#pa49dbe2d86)" d="M 116.171191 307.584 
L 119.195366 307.584 
L 119.195366 297.628927 
L 116.171191 297.628927 
z
" style="fill:#1f77b4;"/>
   </g>
   <g id="patch_18">
    <path clip-path="url(#pa49dbe2d86)" d="M 119.195366 307.584 
L 122.219542 307.584 
L 122.219542 291.572345 
L 119.195366 291.572345 
z
" style="fill:#1f77b4;"/>
   </g>
   <g id="patch_19">
    <path clip-path="url(#pa49dbe2d86)" d="M 122.219542 307.584 
L 125.243718 307.584 
L 125.243718 286.699232 
L 122.219542 286.699232 
z
" style="fill:#1f77b4;"/>
   </g>
   <g id="patch_20">
    <path clip-path="url(#pa49dbe2d86)" d="M 125.243718 307.584 
L 128.267894 307.584 
L 128.267894 283.914597 
L 125.243718 283.914597 
z
" style="fill:#1f77b4;"/>
   </g>
   <g id="patch_21">
    <path clip-path="url(#pa49dbe2d86)" d="M 128.267894 307.584 
L 131.29207 307.584 
L 131.29207 276.535312 
L 128.267894 276.535312 
z
" style="fill:#1f77b4;"/>
   </g>
   <g id="patch_22">
    <path clip-path="url(#pa49dbe2d86)" d="M 131.29207 307.584 
L 134.316246 307.584 
L 134.316246 270.478729 
L 131.29207 270.478729 
z
" style="fill:#1f77b4;"/>
   </g>
   <g id="patch_23">
    <path clip-path="url(#pa49dbe2d86)" d="M 134.316246 307.584 
L 137.340422 307.584 
L 137.340422 259.479418 
L 134.316246 259.479418 
z
" style="fill:#1f77b4;"/>
   </g>
   <g id="patch_24">
    <path clip-path="url(#pa49dbe2d86)" d="M 137.340422 307.584 
L 140.364598 307.584 
L 140.364598 252.796293 
L 137.340422 252.796293 
z
" style="fill:#1f77b4;"/>
   </g>
   <g id="patch_25">
    <path clip-path="url(#pa49dbe2d86)" d="M 140.364598 307.584 
L 143.388774 307.584 
L 143.388774 247.853564 
L 140.364598 247.853564 
z
" style="fill:#1f77b4;"/>
   </g>
   <g id="patch_26">
    <path clip-path="url(#pa49dbe2d86)" d="M 143.388774 307.584 
L 146.41295 307.584 
L 146.41295 238.316187 
L 143.388774 238.316187 
z
" style="fill:#1f77b4;"/>
   </g>
   <g id="patch_27">
    <path clip-path="url(#pa49dbe2d86)" d="M 146.41295 307.584 
L 149.437126 307.584 
L 149.437126 227.664956 
L 146.41295 227.664956 
z
" style="fill:#1f77b4;"/>
   </g>
   <g id="patch_28">
    <path clip-path="url(#pa49dbe2d86)" d="M 149.437126 307.584 
L 152.461302 307.584 
L 152.461302 194.249327 
L 149.437126 194.249327 
z
" style="fill:#1f77b4;"/>
   </g>
   <g id="patch_29">
    <path clip-path="url(#pa49dbe2d86)" d="M 152.461302 307.584 
L 155.485478 307.584 
L 155.485478 161.390626 
L 152.461302 161.390626 
z
" style="fill:#1f77b4;"/>
   </g>
   <g id="patch_30">
    <path clip-path="url(#pa49dbe2d86)" d="M 155.485478 307.584 
L 158.509654 307.584 
L 158.509654 120.595713 
L 155.485478 120.595713 
z
" style="fill:#1f77b4;"/>
   </g>
   <g id="patch_31">
    <path clip-path="url(#pa49dbe2d86)" d="M 158.509654 307.584 
L 161.53383 307.584 
L 161.53383 104.584058 
L 158.509654 104.584058 
z
" style="fill:#1f77b4;"/>
   </g>
   <g id="patch_32">
    <path clip-path="url(#pa49dbe2d86)" d="M 161.53383 307.584 
L 164.558006 307.584 
L 164.558006 110.501409 
L 161.53383 110.501409 
z
" style="fill:#1f77b4;"/>
   </g>
   <g id="patch_33">
    <path clip-path="url(#pa49dbe2d86)" d="M 164.558006 307.584 
L 167.582182 307.584 
L 167.582182 113.007581 
L 164.558006 113.007581 
z
" style="fill:#1f77b4;"/>
   </g>
   <g id="patch_34">
    <path clip-path="url(#pa49dbe2d86)" d="M 167.582182 307.584 
L 170.606358 307.584 
L 170.606358 126.721911 
L 167.582182 126.721911 
z
" style="fill:#1f77b4;"/>
   </g>
   <g id="patch_35">
    <path clip-path="url(#pa49dbe2d86)" d="M 170.606358 307.584 
L 173.630534 307.584 
L 173.630534 129.645779 
L 170.606358 129.645779 
z
" style="fill:#1f77b4;"/>
   </g>
   <g id="patch_36">
    <path clip-path="url(#pa49dbe2d86)" d="M 173.630534 307.584 
L 176.654709 307.584 
L 176.654709 139.879315 
L 173.630534 139.879315 
z
" style="fill:#1f77b4;"/>
   </g>
   <g id="patch_37">
    <path clip-path="url(#pa49dbe2d86)" d="M 176.654709 307.584 
L 179.678885 307.584 
L 179.678885 148.233222 
L 176.654709 148.233222 
z
" style="fill:#1f77b4;"/>
   </g>
   <g id="patch_38">
    <path clip-path="url(#pa49dbe2d86)" d="M 179.678885 307.584 
L 182.703061 307.584 
L 182.703061 160.416003 
L 179.678885 160.416003 
z
" style="fill:#1f77b4;"/>
   </g>
   <g id="patch_39">
    <path clip-path="url(#pa49dbe2d86)" d="M 182.703061 307.584 
L 185.727237 307.584 
L 185.727237 154.150573 
L 182.703061 154.150573 
z
" style="fill:#1f77b4;"/>
   </g>
   <g id="patch_40">
    <path clip-path="url(#pa49dbe2d86)" d="M 185.727237 307.584 
L 188.751413 307.584 
L 188.751413 134.866971 
L 185.727237 134.866971 
z
" style="fill:#1f77b4;"/>
   </g>
   <g id="patch_41">
    <path clip-path="url(#pa49dbe2d86)" d="M 188.751413 307.584 
L 191.775589 307.584 
L 191.775589 105.001753 
L 188.751413 105.001753 
z
" style="fill:#1f77b4;"/>
   </g>
   <g id="patch_42">
    <path clip-path="url(#pa49dbe2d86)" d="M 191.775589 307.584 
L 194.799765 307.584 
L 194.799765 65.320694 
L 191.775589 65.320694 
z
" style="fill:#1f77b4;"/>
   </g>
   <g id="patch_43">
    <path clip-path="url(#pa49dbe2d86)" d="M 194.799765 307.584 
L 197.823941 307.584 
L 197.823941 56.201012 
L 194.799765 56.201012 
z
" style="fill:#1f77b4;"/>
   </g>
   <g id="patch_44">
    <path clip-path="url(#pa49dbe2d86)" d="M 197.823941 307.584 
L 200.848117 307.584 
L 200.848117 62.396827 
L 197.823941 62.396827 
z
" style="fill:#1f77b4;"/>
   </g>
   <g id="patch_45">
    <path clip-path="url(#pa49dbe2d86)" d="M 200.848117 307.584 
L 203.872293 307.584 
L 203.872293 69.706496 
L 200.848117 69.706496 
z
" style="fill:#1f77b4;"/>
   </g>
   <g id="patch_46">
    <path clip-path="url(#pa49dbe2d86)" d="M 203.872293 307.584 
L 206.896469 307.584 
L 206.896469 88.920482 
L 203.872293 88.920482 
z
" style="fill:#1f77b4;"/>
   </g>
   <g id="patch_47">
    <path clip-path="url(#pa49dbe2d86)" d="M 206.896469 307.584 
L 209.920645 307.584 
L 209.920645 107.159846 
L 206.896469 107.159846 
z
" style="fill:#1f77b4;"/>
   </g>
   <g id="patch_48">
    <path clip-path="url(#pa49dbe2d86)" d="M 209.920645 307.584 
L 212.944821 307.584 
L 212.944821 119.064163 
L 209.920645 119.064163 
z
" style="fill:#1f77b4;"/>
   </g>
   <g id="patch_49">
    <path clip-path="url(#pa49dbe2d86)" d="M 212.944821 307.584 
L 215.968997 307.584 
L 215.968997 138.138918 
L 212.944821 138.138918 
z
" style="fill:#1f77b4;"/>
   </g>
   <g id="patch_50">
    <path clip-path="url(#pa49dbe2d86)" d="M 215.968997 307.584 
L 218.993173 307.584 
L 218.993173 140.784322 
L 215.968997 140.784322 
z
" style="fill:#1f77b4;"/>
   </g>
   <g id="patch_51">
    <path clip-path="url(#pa49dbe2d86)" d="M 218.993173 307.584 
L 222.017349 307.584 
L 222.017349 143.499342 
L 218.993173 143.499342 
z
" style="fill:#1f77b4;"/>
   </g>
   <g id="patch_52">
    <path clip-path="url(#pa49dbe2d86)" d="M 222.017349 307.584 
L 225.041525 307.584 
L 225.041525 125.816905 
L 222.017349 125.816905 
z
" style="fill:#1f77b4;"/>
   </g>
   <g id="patch_53">
    <path clip-path="url(#pa49dbe2d86)" d="M 225.041525 307.584 
L 228.065701 307.584 
L 228.065701 114.051819 
L 225.041525 114.051819 
z
" style="fill:#1f77b4;"/>
   </g>
   <g id="patch_54">
    <path clip-path="url(#pa49dbe2d86)" d="M 228.065701 307.584 
L 231.089877 307.584 
L 231.089877 96.92631 
L 228.065701 96.92631 
z
" style="fill:#1f77b4;"/>
   </g>
   <g id="patch_55">
    <path clip-path="url(#pa49dbe2d86)" d="M 231.089877 307.584 
L 234.114052 307.584 
L 234.114052 92.331661 
L 231.089877 92.331661 
z
" style="fill:#1f77b4;"/>
   </g>
   <g id="patch_56">
    <path clip-path="url(#pa49dbe2d86)" d="M 234.114052 307.584 
L 237.138228 307.584 
L 237.138228 117.114918 
L 234.114052 117.114918 
z
" style="fill:#1f77b4;"/>
   </g>
   <g id="patch_57">
    <path clip-path="url(#pa49dbe2d86)" d="M 237.138228 307.584 
L 240.162404 307.584 
L 240.162404 184.71195 
L 237.138228 184.71195 
z
" style="fill:#1f77b4;"/>
   </g>
   <g id="patch_58">
    <path clip-path="url(#pa49dbe2d86)" d="M 240.162404 307.584 
L 243.18658 307.584 
L 243.18658 219.519896 
L 240.162404 219.519896 
z
" style="fill:#1f77b4;"/>
   </g>
   <g id="patch_59">
    <path clip-path="url(#pa49dbe2d86)" d="M 243.18658 307.584 
L 246.210756 307.584 
L 246.210756 225.576479 
L 243.18658 225.576479 
z
" style="fill:#1f77b4;"/>
   </g>
   <g id="patch_60">
    <path clip-path="url(#pa49dbe2d86)" d="M 246.210756 307.584 
L 249.234932 307.584 
L 249.234932 231.702677 
L 246.210756 231.702677 
z
" style="fill:#1f77b4;"/>
   </g>
   <g id="patch_61">
    <path clip-path="url(#pa49dbe2d86)" d="M 249.234932 307.584 
L 252.259108 307.584 
L 252.259108 239.081962 
L 249.234932 239.081962 
z
" style="fill:#1f77b4;"/>
   </g>
   <g id="patch_62">
    <path clip-path="url(#pa49dbe2d86)" d="M 252.259108 307.584 
L 255.283284 307.584 
L 255.283284 239.430041 
L 252.259108 239.430041 
z
" style="fill:#1f77b4;"/>
   </g>
   <g id="patch_63">
    <path clip-path="url(#pa49dbe2d86)" d="M 255.283284 307.584 
L 258.30746 307.584 
L 258.30746 241.100823 
L 255.283284 241.100823 
z
" style="fill:#1f77b4;"/>
   </g>
   <g id="patch_64">
    <path clip-path="url(#pa49dbe2d86)" d="M 258.30746 307.584 
L 261.331636 307.584 
L 261.331636 250.707816 
L 258.30746 250.707816 
z
" style="fill:#1f77b4;"/>
   </g>
   <g id="patch_65">
    <path clip-path="url(#pa49dbe2d86)" d="M 261.331636 307.584 
L 264.355812 307.584 
L 264.355812 251.543207 
L 261.331636 251.543207 
z
" style="fill:#1f77b4;"/>
   </g>
   <g id="patch_66">
    <path clip-path="url(#pa49dbe2d86)" d="M 264.355812 307.584 
L 267.379988 307.584 
L 267.379988 254.675922 
L 264.355812 254.675922 
z
" style="fill:#1f77b4;"/>
   </g>
   <g id="patch_67">
    <path clip-path="url(#pa49dbe2d86)" d="M 267.379988 307.584 
L 270.404164 307.584 
L 270.404164 255.441697 
L 267.379988 255.441697 
z
" style="fill:#1f77b4;"/>
   </g>
   <g id="patch_68">
    <path clip-path="url(#pa49dbe2d86)" d="M 270.404164 307.584 
L 273.42834 307.584 
L 273.42834 260.384425 
L 270.404164 260.384425 
z
" style="fill:#1f77b4;"/>
   </g>
   <g id="patch_69">
    <path clip-path="url(#pa49dbe2d86)" d="M 273.42834 307.584 
L 276.452516 307.584 
L 276.452516 264.839842 
L 273.42834 264.839842 
z
" style="fill:#1f77b4;"/>
   </g>
   <g id="patch_70">
    <path clip-path="url(#pa49dbe2d86)" d="M 276.452516 307.584 
L 279.476692 307.584 
L 279.476692 266.928319 
L 276.452516 266.928319 
z
" style="fill:#1f77b4;"/>
   </g>
   <g id="patch_71">
    <path clip-path="url(#pa49dbe2d86)" d="M 279.476692 307.584 
L 282.500868 307.584 
L 282.500868 273.472213 
L 279.476692 273.472213 
z
" style="fill:#1f77b4;"/>
   </g>
   <g id="patch_72">
    <path clip-path="url(#pa49dbe2d86)" d="M 282.500868 307.584 
L 285.525044 307.584 
L 285.525044 275.630305 
L 282.500868 275.630305 
z
" style="fill:#1f77b4;"/>
   </g>
   <g id="patch_73">
    <path clip-path="url(#pa49dbe2d86)" d="M 285.525044 307.584 
L 288.54922 307.584 
L 288.54922 277.649166 
L 285.525044 277.649166 
z
" style="fill:#1f77b4;"/>
   </g>
   <g id="patch_74">
    <path clip-path="url(#pa49dbe2d86)" d="M 288.54922 307.584 
L 291.573395 307.584 
L 291.573395 282.313431 
L 288.54922 282.313431 
z
" style="fill:#1f77b4;"/>
   </g>
   <g id="patch_75">
    <path clip-path="url(#pa49dbe2d86)" d="M 291.573395 307.584 
L 294.597571 307.584 
L 294.597571 287.743471 
L 291.573395 287.743471 
z
" style="fill:#1f77b4;"/>
   </g>
   <g id="patch_76">
    <path clip-path="url(#pa49dbe2d86)" d="M 294.597571 307.584 
L 297.621747 307.584 
L 297.621747 290.667338 
L 294.597571 290.667338 
z
" style="fill:#1f77b4;"/>
   </g>
   <g id="patch_77">
    <path clip-path="url(#pa49dbe2d86)" d="M 297.621747 307.584 
L 300.645923 307.584 
L 300.645923 293.103894 
L 297.621747 293.103894 
z
" style="fill:#1f77b4;"/>
   </g>
   <g id="patch_78">
    <path clip-path="url(#pa49dbe2d86)" d="M 300.645923 307.584 
L 303.670099 307.584 
L 303.670099 295.122755 
L 300.645923 295.122755 
z
" style="fill:#1f77b4;"/>
   </g>
   <g id="patch_79">
    <path clip-path="url(#pa49dbe2d86)" d="M 303.670099 307.584 
L 306.694275 307.584 
L 306.694275 298.185855 
L 303.670099 298.185855 
z
" style="fill:#1f77b4;"/>
   </g>
   <g id="patch_80">
    <path clip-path="url(#pa49dbe2d86)" d="M 306.694275 307.584 
L 309.718451 307.584 
L 309.718451 300.065484 
L 306.694275 300.065484 
z
" style="fill:#1f77b4;"/>
   </g>
   <g id="patch_81">
    <path clip-path="url(#pa49dbe2d86)" d="M 309.718451 307.584 
L 312.742627 307.584 
L 312.742627 302.571656 
L 309.718451 302.571656 
z
" style="fill:#1f77b4;"/>
   </g>
   <g id="patch_82">
    <path clip-path="url(#pa49dbe2d86)" d="M 312.742627 307.584 
L 315.766803 307.584 
L 315.766803 303.824742 
L 312.742627 303.824742 
z
" style="fill:#1f77b4;"/>
   </g>
   <g id="patch_83">
    <path clip-path="url(#pa49dbe2d86)" d="M 315.766803 307.584 
L 318.790979 307.584 
L 318.790979 304.103205 
L 315.766803 304.103205 
z
" style="fill:#1f77b4;"/>
   </g>
   <g id="patch_84">
    <path clip-path="url(#pa49dbe2d86)" d="M 318.790979 307.584 
L 321.815155 307.584 
L 321.815155 305.634755 
L 318.790979 305.634755 
z
" style="fill:#1f77b4;"/>
   </g>
   <g id="patch_85">
    <path clip-path="url(#pa49dbe2d86)" d="M 321.815155 307.584 
L 324.839331 307.584 
L 324.839331 305.843603 
L 321.815155 305.843603 
z
" style="fill:#1f77b4;"/>
   </g>
   <g id="patch_86">
    <path clip-path="url(#pa49dbe2d86)" d="M 324.839331 307.584 
L 327.863507 307.584 
L 327.863507 305.982834 
L 324.839331 305.982834 
z
" style="fill:#1f77b4;"/>
   </g>
   <g id="patch_87">
    <path clip-path="url(#pa49dbe2d86)" d="M 327.863507 307.584 
L 330.887683 307.584 
L 330.887683 307.096689 
L 327.863507 307.096689 
z
" style="fill:#1f77b4;"/>
   </g>
   <g id="patch_88">
    <path clip-path="url(#pa49dbe2d86)" d="M 330.887683 307.584 
L 333.911859 307.584 
L 333.911859 306.748609 
L 330.887683 306.748609 
z
" style="fill:#1f77b4;"/>
   </g>
   <g id="patch_89">
    <path clip-path="url(#pa49dbe2d86)" d="M 333.911859 307.584 
L 336.936035 307.584 
L 336.936035 307.375152 
L 333.911859 307.375152 
z
" style="fill:#1f77b4;"/>
   </g>
   <g id="patch_90">
    <path clip-path="url(#pa49dbe2d86)" d="M 336.936035 307.584 
L 339.960211 307.584 
L 339.960211 307.235921 
L 336.936035 307.235921 
z
" style="fill:#1f77b4;"/>
   </g>
   <g id="patch_91">
    <path clip-path="url(#pa49dbe2d86)" d="M 339.960211 307.584 
L 342.984387 307.584 
L 342.984387 307.375152 
L 339.960211 307.375152 
z
" style="fill:#1f77b4;"/>
   </g>
   <g id="patch_92">
    <path clip-path="url(#pa49dbe2d86)" d="M 342.984387 307.584 
L 346.008563 307.584 
L 346.008563 307.375152 
L 342.984387 307.375152 
z
" style="fill:#1f77b4;"/>
   </g>
   <g id="patch_93">
    <path clip-path="url(#pa49dbe2d86)" d="M 346.008563 307.584 
L 349.032738 307.584 
L 349.032738 307.514384 
L 346.008563 307.514384 
z
" style="fill:#1f77b4;"/>
   </g>
   <g id="patch_94">
    <path clip-path="url(#pa49dbe2d86)" d="M 349.032738 307.584 
L 352.056914 307.584 
L 352.056914 307.514384 
L 349.032738 307.514384 
z
" style="fill:#1f77b4;"/>
   </g>
   <g id="patch_95">
    <path clip-path="url(#pa49dbe2d86)" d="M 352.056914 307.584 
L 355.08109 307.584 
L 355.08109 307.584 
L 352.056914 307.584 
z
" style="fill:#1f77b4;"/>
   </g>
   <g id="patch_96">
    <path clip-path="url(#pa49dbe2d86)" d="M 355.08109 307.584 
L 358.105266 307.584 
L 358.105266 307.514384 
L 355.08109 307.514384 
z
" style="fill:#1f77b4;"/>
   </g>
   <g id="patch_97">
    <path clip-path="url(#pa49dbe2d86)" d="M 358.105266 307.584 
L 361.129442 307.584 
L 361.129442 307.584 
L 358.105266 307.584 
z
" style="fill:#1f77b4;"/>
   </g>
   <g id="patch_98">
    <path clip-path="url(#pa49dbe2d86)" d="M 361.129442 307.584 
L 364.153618 307.584 
L 364.153618 307.584 
L 361.129442 307.584 
z
" style="fill:#1f77b4;"/>
   </g>
   <g id="patch_99">
    <path clip-path="url(#pa49dbe2d86)" d="M 364.153618 307.584 
L 367.177794 307.584 
L 367.177794 307.584 
L 364.153618 307.584 
z
" style="fill:#1f77b4;"/>
   </g>
   <g id="patch_100">
    <path clip-path="url(#pa49dbe2d86)" d="M 367.177794 307.584 
L 370.20197 307.584 
L 370.20197 307.584 
L 367.177794 307.584 
z
" style="fill:#1f77b4;"/>
   </g>
   <g id="patch_101">
    <path clip-path="url(#pa49dbe2d86)" d="M 370.20197 307.584 
L 373.226146 307.584 
L 373.226146 307.584 
L 370.20197 307.584 
z
" style="fill:#1f77b4;"/>
   </g>
   <g id="patch_102">
    <path clip-path="url(#pa49dbe2d86)" d="M 373.226146 307.584 
L 376.250322 307.584 
L 376.250322 307.514384 
L 373.226146 307.514384 
z
" style="fill:#1f77b4;"/>
   </g>
   <g id="matplotlib.axis_1">
    <g id="xtick_1">
     <g id="line2d_1">
      <defs>
       <path d="M 0 0 
L 0 3.5 
" id="m778ebee17a" style="stroke:#000000;stroke-width:0.8;"/>
      </defs>
      <g>
       <use style="stroke:#000000;stroke-width:0.8;" x="110.412842" xlink:href="#m778ebee17a" y="307.584"/>
      </g>
     </g>
     <g id="text_1">
      <!-- −2 -->
      <defs>
       <path d="M 10.59375 35.5 
L 73.1875 35.5 
L 73.1875 27.203125 
L 10.59375 27.203125 
z
" id="DejaVuSans-8722"/>
       <path d="M 19.1875 8.296875 
L 53.609375 8.296875 
L 53.609375 0 
L 7.328125 0 
L 7.328125 8.296875 
Q 12.9375 14.109375 22.625 23.890625 
Q 32.328125 33.6875 34.8125 36.53125 
Q 39.546875 41.84375 41.421875 45.53125 
Q 43.3125 49.21875 43.3125 52.78125 
Q 43.3125 58.59375 39.234375 62.25 
Q 35.15625 65.921875 28.609375 65.921875 
Q 23.96875 65.921875 18.8125 64.3125 
Q 13.671875 62.703125 7.8125 59.421875 
L 7.8125 69.390625 
Q 13.765625 71.78125 18.9375 73 
Q 24.125 74.21875 28.421875 74.21875 
Q 39.75 74.21875 46.484375 68.546875 
Q 53.21875 62.890625 53.21875 53.421875 
Q 53.21875 48.921875 51.53125 44.890625 
Q 49.859375 40.875 45.40625 35.40625 
Q 44.1875 33.984375 37.640625 27.21875 
Q 31.109375 20.453125 19.1875 8.296875 
z
" id="DejaVuSans-50"/>
      </defs>
      <g transform="translate(97.881982 327.501344)scale(0.17 -0.17)">
       <use xlink:href="#DejaVuSans-8722"/>
       <use x="83.789062" xlink:href="#DejaVuSans-50"/>
      </g>
     </g>
    </g>
    <g id="xtick_2">
     <g id="line2d_2">
      <g>
       <use style="stroke:#000000;stroke-width:0.8;" x="174.429731" xlink:href="#m778ebee17a" y="307.584"/>
      </g>
     </g>
     <g id="text_2">
      <!-- −1 -->
      <defs>
       <path d="M 12.40625 8.296875 
L 28.515625 8.296875 
L 28.515625 63.921875 
L 10.984375 60.40625 
L 10.984375 69.390625 
L 28.421875 72.90625 
L 38.28125 72.90625 
L 38.28125 8.296875 
L 54.390625 8.296875 
L 54.390625 0 
L 12.40625 0 
z
" id="DejaVuSans-49"/>
      </defs>
      <g transform="translate(161.898871 327.501344)scale(0.17 -0.17)">
       <use xlink:href="#DejaVuSans-8722"/>
       <use x="83.789062" xlink:href="#DejaVuSans-49"/>
      </g>
     </g>
    </g>
    <g id="xtick_3">
     <g id="line2d_3">
      <g>
       <use style="stroke:#000000;stroke-width:0.8;" x="238.44662" xlink:href="#m778ebee17a" y="307.584"/>
      </g>
     </g>
     <g id="text_3">
      <!-- 0 -->
      <defs>
       <path d="M 31.78125 66.40625 
Q 24.171875 66.40625 20.328125 58.90625 
Q 16.5 51.421875 16.5 36.375 
Q 16.5 21.390625 20.328125 13.890625 
Q 24.171875 6.390625 31.78125 6.390625 
Q 39.453125 6.390625 43.28125 13.890625 
Q 47.125 21.390625 47.125 36.375 
Q 47.125 51.421875 43.28125 58.90625 
Q 39.453125 66.40625 31.78125 66.40625 
z
M 31.78125 74.21875 
Q 44.046875 74.21875 50.515625 64.515625 
Q 56.984375 54.828125 56.984375 36.375 
Q 56.984375 17.96875 50.515625 8.265625 
Q 44.046875 -1.421875 31.78125 -1.421875 
Q 19.53125 -1.421875 13.0625 8.265625 
Q 6.59375 17.96875 6.59375 36.375 
Q 6.59375 54.828125 13.0625 64.515625 
Q 19.53125 74.21875 31.78125 74.21875 
z
" id="DejaVuSans-48"/>
      </defs>
      <g transform="translate(233.038495 327.501344)scale(0.17 -0.17)">
       <use xlink:href="#DejaVuSans-48"/>
      </g>
     </g>
    </g>
    <g id="xtick_4">
     <g id="line2d_4">
      <g>
       <use style="stroke:#000000;stroke-width:0.8;" x="302.463508" xlink:href="#m778ebee17a" y="307.584"/>
      </g>
     </g>
     <g id="text_4">
      <!-- 1 -->
      <g transform="translate(297.055383 327.501344)scale(0.17 -0.17)">
       <use xlink:href="#DejaVuSans-49"/>
      </g>
     </g>
    </g>
    <g id="xtick_5">
     <g id="line2d_5">
      <g>
       <use style="stroke:#000000;stroke-width:0.8;" x="366.480397" xlink:href="#m778ebee17a" y="307.584"/>
      </g>
     </g>
     <g id="text_5">
      <!-- 2 -->
      <g transform="translate(361.072272 327.501344)scale(0.17 -0.17)">
       <use xlink:href="#DejaVuSans-50"/>
      </g>
     </g>
    </g>
    <g id="text_6">
     <!-- Compressed value -->
     <defs>
      <path d="M 64.40625 67.28125 
L 64.40625 56.890625 
Q 59.421875 61.53125 53.78125 63.8125 
Q 48.140625 66.109375 41.796875 66.109375 
Q 29.296875 66.109375 22.65625 58.46875 
Q 16.015625 50.828125 16.015625 36.375 
Q 16.015625 21.96875 22.65625 14.328125 
Q 29.296875 6.6875 41.796875 6.6875 
Q 48.140625 6.6875 53.78125 8.984375 
Q 59.421875 11.28125 64.40625 15.921875 
L 64.40625 5.609375 
Q 59.234375 2.09375 53.4375 0.328125 
Q 47.65625 -1.421875 41.21875 -1.421875 
Q 24.65625 -1.421875 15.125 8.703125 
Q 5.609375 18.84375 5.609375 36.375 
Q 5.609375 53.953125 15.125 64.078125 
Q 24.65625 74.21875 41.21875 74.21875 
Q 47.75 74.21875 53.53125 72.484375 
Q 59.328125 70.75 64.40625 67.28125 
z
" id="DejaVuSans-67"/>
      <path d="M 30.609375 48.390625 
Q 23.390625 48.390625 19.1875 42.75 
Q 14.984375 37.109375 14.984375 27.296875 
Q 14.984375 17.484375 19.15625 11.84375 
Q 23.34375 6.203125 30.609375 6.203125 
Q 37.796875 6.203125 41.984375 11.859375 
Q 46.1875 17.53125 46.1875 27.296875 
Q 46.1875 37.015625 41.984375 42.703125 
Q 37.796875 48.390625 30.609375 48.390625 
z
M 30.609375 56 
Q 42.328125 56 49.015625 48.375 
Q 55.71875 40.765625 55.71875 27.296875 
Q 55.71875 13.875 49.015625 6.21875 
Q 42.328125 -1.421875 30.609375 -1.421875 
Q 18.84375 -1.421875 12.171875 6.21875 
Q 5.515625 13.875 5.515625 27.296875 
Q 5.515625 40.765625 12.171875 48.375 
Q 18.84375 56 30.609375 56 
z
" id="DejaVuSans-111"/>
      <path d="M 52 44.1875 
Q 55.375 50.25 60.0625 53.125 
Q 64.75 56 71.09375 56 
Q 79.640625 56 84.28125 50.015625 
Q 88.921875 44.046875 88.921875 33.015625 
L 88.921875 0 
L 79.890625 0 
L 79.890625 32.71875 
Q 79.890625 40.578125 77.09375 44.375 
Q 74.3125 48.1875 68.609375 48.1875 
Q 61.625 48.1875 57.5625 43.546875 
Q 53.515625 38.921875 53.515625 30.90625 
L 53.515625 0 
L 44.484375 0 
L 44.484375 32.71875 
Q 44.484375 40.625 41.703125 44.40625 
Q 38.921875 48.1875 33.109375 48.1875 
Q 26.21875 48.1875 22.15625 43.53125 
Q 18.109375 38.875 18.109375 30.90625 
L 18.109375 0 
L 9.078125 0 
L 9.078125 54.6875 
L 18.109375 54.6875 
L 18.109375 46.1875 
Q 21.1875 51.21875 25.484375 53.609375 
Q 29.78125 56 35.6875 56 
Q 41.65625 56 45.828125 52.96875 
Q 50 49.953125 52 44.1875 
z
" id="DejaVuSans-109"/>
      <path d="M 18.109375 8.203125 
L 18.109375 -20.796875 
L 9.078125 -20.796875 
L 9.078125 54.6875 
L 18.109375 54.6875 
L 18.109375 46.390625 
Q 20.953125 51.265625 25.265625 53.625 
Q 29.59375 56 35.59375 56 
Q 45.5625 56 51.78125 48.09375 
Q 58.015625 40.1875 58.015625 27.296875 
Q 58.015625 14.40625 51.78125 6.484375 
Q 45.5625 -1.421875 35.59375 -1.421875 
Q 29.59375 -1.421875 25.265625 0.953125 
Q 20.953125 3.328125 18.109375 8.203125 
z
M 48.6875 27.296875 
Q 48.6875 37.203125 44.609375 42.84375 
Q 40.53125 48.484375 33.40625 48.484375 
Q 26.265625 48.484375 22.1875 42.84375 
Q 18.109375 37.203125 18.109375 27.296875 
Q 18.109375 17.390625 22.1875 11.75 
Q 26.265625 6.109375 33.40625 6.109375 
Q 40.53125 6.109375 44.609375 11.75 
Q 48.6875 17.390625 48.6875 27.296875 
z
" id="DejaVuSans-112"/>
      <path d="M 41.109375 46.296875 
Q 39.59375 47.171875 37.8125 47.578125 
Q 36.03125 48 33.890625 48 
Q 26.265625 48 22.1875 43.046875 
Q 18.109375 38.09375 18.109375 28.8125 
L 18.109375 0 
L 9.078125 0 
L 9.078125 54.6875 
L 18.109375 54.6875 
L 18.109375 46.1875 
Q 20.953125 51.171875 25.484375 53.578125 
Q 30.03125 56 36.53125 56 
Q 37.453125 56 38.578125 55.875 
Q 39.703125 55.765625 41.0625 55.515625 
z
" id="DejaVuSans-114"/>
      <path d="M 56.203125 29.59375 
L 56.203125 25.203125 
L 14.890625 25.203125 
Q 15.484375 15.921875 20.484375 11.0625 
Q 25.484375 6.203125 34.421875 6.203125 
Q 39.59375 6.203125 44.453125 7.46875 
Q 49.3125 8.734375 54.109375 11.28125 
L 54.109375 2.78125 
Q 49.265625 0.734375 44.1875 -0.34375 
Q 39.109375 -1.421875 33.890625 -1.421875 
Q 20.796875 -1.421875 13.15625 6.1875 
Q 5.515625 13.8125 5.515625 26.8125 
Q 5.515625 40.234375 12.765625 48.109375 
Q 20.015625 56 32.328125 56 
Q 43.359375 56 49.78125 48.890625 
Q 56.203125 41.796875 56.203125 29.59375 
z
M 47.21875 32.234375 
Q 47.125 39.59375 43.09375 43.984375 
Q 39.0625 48.390625 32.421875 48.390625 
Q 24.90625 48.390625 20.390625 44.140625 
Q 15.875 39.890625 15.1875 32.171875 
z
" id="DejaVuSans-101"/>
      <path d="M 44.28125 53.078125 
L 44.28125 44.578125 
Q 40.484375 46.53125 36.375 47.5 
Q 32.28125 48.484375 27.875 48.484375 
Q 21.1875 48.484375 17.84375 46.4375 
Q 14.5 44.390625 14.5 40.28125 
Q 14.5 37.15625 16.890625 35.375 
Q 19.28125 33.59375 26.515625 31.984375 
L 29.59375 31.296875 
Q 39.15625 29.25 43.1875 25.515625 
Q 47.21875 21.78125 47.21875 15.09375 
Q 47.21875 7.46875 41.1875 3.015625 
Q 35.15625 -1.421875 24.609375 -1.421875 
Q 20.21875 -1.421875 15.453125 -0.5625 
Q 10.6875 0.296875 5.421875 2 
L 5.421875 11.28125 
Q 10.40625 8.6875 15.234375 7.390625 
Q 20.0625 6.109375 24.8125 6.109375 
Q 31.15625 6.109375 34.5625 8.28125 
Q 37.984375 10.453125 37.984375 14.40625 
Q 37.984375 18.0625 35.515625 20.015625 
Q 33.0625 21.96875 24.703125 23.78125 
L 21.578125 24.515625 
Q 13.234375 26.265625 9.515625 29.90625 
Q 5.8125 33.546875 5.8125 39.890625 
Q 5.8125 47.609375 11.28125 51.796875 
Q 16.75 56 26.8125 56 
Q 31.78125 56 36.171875 55.265625 
Q 40.578125 54.546875 44.28125 53.078125 
z
" id="DejaVuSans-115"/>
      <path d="M 45.40625 46.390625 
L 45.40625 75.984375 
L 54.390625 75.984375 
L 54.390625 0 
L 45.40625 0 
L 45.40625 8.203125 
Q 42.578125 3.328125 38.25 0.953125 
Q 33.9375 -1.421875 27.875 -1.421875 
Q 17.96875 -1.421875 11.734375 6.484375 
Q 5.515625 14.40625 5.515625 27.296875 
Q 5.515625 40.1875 11.734375 48.09375 
Q 17.96875 56 27.875 56 
Q 33.9375 56 38.25 53.625 
Q 42.578125 51.265625 45.40625 46.390625 
z
M 14.796875 27.296875 
Q 14.796875 17.390625 18.875 11.75 
Q 22.953125 6.109375 30.078125 6.109375 
Q 37.203125 6.109375 41.296875 11.75 
Q 45.40625 17.390625 45.40625 27.296875 
Q 45.40625 37.203125 41.296875 42.84375 
Q 37.203125 48.484375 30.078125 48.484375 
Q 22.953125 48.484375 18.875 42.84375 
Q 14.796875 37.203125 14.796875 27.296875 
z
" id="DejaVuSans-100"/>
      <path id="DejaVuSans-32"/>
      <path d="M 2.984375 54.6875 
L 12.5 54.6875 
L 29.59375 8.796875 
L 46.6875 54.6875 
L 56.203125 54.6875 
L 35.6875 0 
L 23.484375 0 
z
" id="DejaVuSans-118"/>
      <path d="M 34.28125 27.484375 
Q 23.390625 27.484375 19.1875 25 
Q 14.984375 22.515625 14.984375 16.5 
Q 14.984375 11.71875 18.140625 8.90625 
Q 21.296875 6.109375 26.703125 6.109375 
Q 34.1875 6.109375 38.703125 11.40625 
Q 43.21875 16.703125 43.21875 25.484375 
L 43.21875 27.484375 
z
M 52.203125 31.203125 
L 52.203125 0 
L 43.21875 0 
L 43.21875 8.296875 
Q 40.140625 3.328125 35.546875 0.953125 
Q 30.953125 -1.421875 24.3125 -1.421875 
Q 15.921875 -1.421875 10.953125 3.296875 
Q 6 8.015625 6 15.921875 
Q 6 25.140625 12.171875 29.828125 
Q 18.359375 34.515625 30.609375 34.515625 
L 43.21875 34.515625 
L 43.21875 35.40625 
Q 43.21875 41.609375 39.140625 45 
Q 35.0625 48.390625 27.6875 48.390625 
Q 23 48.390625 18.546875 47.265625 
Q 14.109375 46.140625 10.015625 43.890625 
L 10.015625 52.203125 
Q 14.9375 54.109375 19.578125 55.046875 
Q 24.21875 56 28.609375 56 
Q 40.484375 56 46.34375 49.84375 
Q 52.203125 43.703125 52.203125 31.203125 
z
" id="DejaVuSans-97"/>
      <path d="M 9.421875 75.984375 
L 18.40625 75.984375 
L 18.40625 0 
L 9.421875 0 
z
" id="DejaVuSans-108"/>
      <path d="M 8.5 21.578125 
L 8.5 54.6875 
L 17.484375 54.6875 
L 17.484375 21.921875 
Q 17.484375 14.15625 20.5 10.265625 
Q 23.53125 6.390625 29.59375 6.390625 
Q 36.859375 6.390625 41.078125 11.03125 
Q 45.3125 15.671875 45.3125 23.6875 
L 45.3125 54.6875 
L 54.296875 54.6875 
L 54.296875 0 
L 45.3125 0 
L 45.3125 8.40625 
Q 42.046875 3.421875 37.71875 1 
Q 33.40625 -1.421875 27.6875 -1.421875 
Q 18.265625 -1.421875 13.375 4.4375 
Q 8.5 10.296875 8.5 21.578125 
z
M 31.109375 56 
z
" id="DejaVuSans-117"/>
     </defs>
     <g transform="translate(96.861562 357.832125)scale(0.3 -0.3)">
      <use xlink:href="#DejaVuSans-67"/>
      <use x="69.824219" xlink:href="#DejaVuSans-111"/>
      <use x="131.005859" xlink:href="#DejaVuSans-109"/>
      <use x="228.417969" xlink:href="#DejaVuSans-112"/>
      <use x="291.894531" xlink:href="#DejaVuSans-114"/>
      <use x="332.976562" xlink:href="#DejaVuSans-101"/>
      <use x="394.5" xlink:href="#DejaVuSans-115"/>
      <use x="446.599609" xlink:href="#DejaVuSans-115"/>
      <use x="498.699219" xlink:href="#DejaVuSans-101"/>
      <use x="560.222656" xlink:href="#DejaVuSans-100"/>
      <use x="623.699219" xlink:href="#DejaVuSans-32"/>
      <use x="655.486328" xlink:href="#DejaVuSans-118"/>
      <use x="714.666016" xlink:href="#DejaVuSans-97"/>
      <use x="775.945312" xlink:href="#DejaVuSans-108"/>
      <use x="803.728516" xlink:href="#DejaVuSans-117"/>
      <use x="867.107422" xlink:href="#DejaVuSans-101"/>
     </g>
    </g>
   </g>
   <g id="matplotlib.axis_2">
    <g id="ytick_1">
     <g id="line2d_6">
      <defs>
       <path d="M 0 0 
L -3.5 0 
" id="m950390951f" style="stroke:#000000;stroke-width:0.8;"/>
      </defs>
      <g>
       <use style="stroke:#000000;stroke-width:0.8;" x="57.6" xlink:href="#m950390951f" y="307.584"/>
      </g>
     </g>
     <g id="text_7">
      <!-- 0.0 -->
      <defs>
       <path d="M 10.6875 12.40625 
L 21 12.40625 
L 21 0 
L 10.6875 0 
z
" id="DejaVuSans-46"/>
      </defs>
      <g transform="translate(23.564687 314.042672)scale(0.17 -0.17)">
       <use xlink:href="#DejaVuSans-48"/>
       <use x="63.623047" xlink:href="#DejaVuSans-46"/>
       <use x="95.410156" xlink:href="#DejaVuSans-48"/>
      </g>
     </g>
    </g>
    <g id="ytick_2">
     <g id="line2d_7">
      <g>
       <use style="stroke:#000000;stroke-width:0.8;" x="57.6" xlink:href="#m950390951f" y="240.495041"/>
      </g>
     </g>
     <g id="text_8">
      <!-- 0.2 -->
      <g transform="translate(23.564687 246.953713)scale(0.17 -0.17)">
       <use xlink:href="#DejaVuSans-48"/>
       <use x="63.623047" xlink:href="#DejaVuSans-46"/>
       <use x="95.410156" xlink:href="#DejaVuSans-50"/>
      </g>
     </g>
    </g>
    <g id="ytick_3">
     <g id="line2d_8">
      <g>
       <use style="stroke:#000000;stroke-width:0.8;" x="57.6" xlink:href="#m950390951f" y="173.406082"/>
      </g>
     </g>
     <g id="text_9">
      <!-- 0.4 -->
      <defs>
       <path d="M 37.796875 64.3125 
L 12.890625 25.390625 
L 37.796875 25.390625 
z
M 35.203125 72.90625 
L 47.609375 72.90625 
L 47.609375 25.390625 
L 58.015625 25.390625 
L 58.015625 17.1875 
L 47.609375 17.1875 
L 47.609375 0 
L 37.796875 0 
L 37.796875 17.1875 
L 4.890625 17.1875 
L 4.890625 26.703125 
z
" id="DejaVuSans-52"/>
      </defs>
      <g transform="translate(23.564687 179.864754)scale(0.17 -0.17)">
       <use xlink:href="#DejaVuSans-48"/>
       <use x="63.623047" xlink:href="#DejaVuSans-46"/>
       <use x="95.410156" xlink:href="#DejaVuSans-52"/>
      </g>
     </g>
    </g>
    <g id="ytick_4">
     <g id="line2d_9">
      <g>
       <use style="stroke:#000000;stroke-width:0.8;" x="57.6" xlink:href="#m950390951f" y="106.317123"/>
      </g>
     </g>
     <g id="text_10">
      <!-- 0.6 -->
      <defs>
       <path d="M 33.015625 40.375 
Q 26.375 40.375 22.484375 35.828125 
Q 18.609375 31.296875 18.609375 23.390625 
Q 18.609375 15.53125 22.484375 10.953125 
Q 26.375 6.390625 33.015625 6.390625 
Q 39.65625 6.390625 43.53125 10.953125 
Q 47.40625 15.53125 47.40625 23.390625 
Q 47.40625 31.296875 43.53125 35.828125 
Q 39.65625 40.375 33.015625 40.375 
z
M 52.59375 71.296875 
L 52.59375 62.3125 
Q 48.875 64.0625 45.09375 64.984375 
Q 41.3125 65.921875 37.59375 65.921875 
Q 27.828125 65.921875 22.671875 59.328125 
Q 17.53125 52.734375 16.796875 39.40625 
Q 19.671875 43.65625 24.015625 45.921875 
Q 28.375 48.1875 33.59375 48.1875 
Q 44.578125 48.1875 50.953125 41.515625 
Q 57.328125 34.859375 57.328125 23.390625 
Q 57.328125 12.15625 50.6875 5.359375 
Q 44.046875 -1.421875 33.015625 -1.421875 
Q 20.359375 -1.421875 13.671875 8.265625 
Q 6.984375 17.96875 6.984375 36.375 
Q 6.984375 53.65625 15.1875 63.9375 
Q 23.390625 74.21875 37.203125 74.21875 
Q 40.921875 74.21875 44.703125 73.484375 
Q 48.484375 72.75 52.59375 71.296875 
z
" id="DejaVuSans-54"/>
      </defs>
      <g transform="translate(23.564687 112.775795)scale(0.17 -0.17)">
       <use xlink:href="#DejaVuSans-48"/>
       <use x="63.623047" xlink:href="#DejaVuSans-46"/>
       <use x="95.410156" xlink:href="#DejaVuSans-54"/>
      </g>
     </g>
    </g>
    <g id="text_11">
     <!-- Density -->
     <defs>
      <path d="M 19.671875 64.796875 
L 19.671875 8.109375 
L 31.59375 8.109375 
Q 46.6875 8.109375 53.6875 14.9375 
Q 60.6875 21.78125 60.6875 36.53125 
Q 60.6875 51.171875 53.6875 57.984375 
Q 46.6875 64.796875 31.59375 64.796875 
z
M 9.8125 72.90625 
L 30.078125 72.90625 
Q 51.265625 72.90625 61.171875 64.09375 
Q 71.09375 55.28125 71.09375 36.53125 
Q 71.09375 17.671875 61.125 8.828125 
Q 51.171875 0 30.078125 0 
L 9.8125 0 
z
" id="DejaVuSans-68"/>
      <path d="M 54.890625 33.015625 
L 54.890625 0 
L 45.90625 0 
L 45.90625 32.71875 
Q 45.90625 40.484375 42.875 44.328125 
Q 39.84375 48.1875 33.796875 48.1875 
Q 26.515625 48.1875 22.3125 43.546875 
Q 18.109375 38.921875 18.109375 30.90625 
L 18.109375 0 
L 9.078125 0 
L 9.078125 54.6875 
L 18.109375 54.6875 
L 18.109375 46.1875 
Q 21.34375 51.125 25.703125 53.5625 
Q 30.078125 56 35.796875 56 
Q 45.21875 56 50.046875 50.171875 
Q 54.890625 44.34375 54.890625 33.015625 
z
" id="DejaVuSans-110"/>
      <path d="M 9.421875 54.6875 
L 18.40625 54.6875 
L 18.40625 0 
L 9.421875 0 
z
M 9.421875 75.984375 
L 18.40625 75.984375 
L 18.40625 64.59375 
L 9.421875 64.59375 
z
" id="DejaVuSans-105"/>
      <path d="M 18.3125 70.21875 
L 18.3125 54.6875 
L 36.8125 54.6875 
L 36.8125 47.703125 
L 18.3125 47.703125 
L 18.3125 18.015625 
Q 18.3125 11.328125 20.140625 9.421875 
Q 21.96875 7.515625 27.59375 7.515625 
L 36.8125 7.515625 
L 36.8125 0 
L 27.59375 0 
Q 17.1875 0 13.234375 3.875 
Q 9.28125 7.765625 9.28125 18.015625 
L 9.28125 47.703125 
L 2.6875 47.703125 
L 2.6875 54.6875 
L 9.28125 54.6875 
L 9.28125 70.21875 
z
" id="DejaVuSans-116"/>
      <path d="M 32.171875 -5.078125 
Q 28.375 -14.84375 24.75 -17.8125 
Q 21.140625 -20.796875 15.09375 -20.796875 
L 7.90625 -20.796875 
L 7.90625 -13.28125 
L 13.1875 -13.28125 
Q 16.890625 -13.28125 18.9375 -11.515625 
Q 21 -9.765625 23.484375 -3.21875 
L 25.09375 0.875 
L 2.984375 54.6875 
L 12.5 54.6875 
L 29.59375 11.921875 
L 46.6875 54.6875 
L 56.203125 54.6875 
z
" id="DejaVuSans-121"/>
     </defs>
     <g transform="translate(13.325625 231.553781)rotate(-90)scale(0.3 -0.3)">
      <use xlink:href="#DejaVuSans-68"/>
      <use x="77.001953" xlink:href="#DejaVuSans-101"/>
      <use x="138.525391" xlink:href="#DejaVuSans-110"/>
      <use x="201.904297" xlink:href="#DejaVuSans-115"/>
      <use x="254.003906" xlink:href="#DejaVuSans-105"/>
      <use x="281.787109" xlink:href="#DejaVuSans-116"/>
      <use x="320.996094" xlink:href="#DejaVuSans-121"/>
     </g>
    </g>
   </g>
   <g id="line2d_10">
    <path clip-path="url(#pa49dbe2d86)" d="M 78.404397 307.459692 
L 79.877727 307.267896 
L 81.045094 307.280705 
L 81.959845 307.219249 
L 85.750649 307.568087 
L 86.511634 307.408348 
L 87.917495 306.955778 
L 89.357875 307.06743 
L 92.03466 306.689431 
L 92.806628 306.766882 
L 93.727656 306.855042 
L 95.003286 306.709524 
L 96.154963 307.071163 
L 96.763751 306.969052 
L 97.229756 306.662374 
L 98.389278 305.745943 
L 98.754864 305.875884 
L 99.603716 306.243668 
L 100.105809 306.125632 
L 100.95466 305.934989 
L 102.382488 305.882599 
L 103.413348 305.409329 
L 104.576008 305.286504 
L 106.248606 304.155517 
L 107.401851 303.825354 
L 107.936894 303.702943 
L 108.300912 303.346051 
L 109.148194 302.422652 
L 109.429053 302.493416 
L 110.226126 302.833303 
L 110.508553 302.588075 
L 110.947885 301.848621 
L 111.762217 300.52388 
L 112.240775 300.149164 
L 112.579688 300.137963 
L 112.938998 300.373117 
L 113.648205 300.865706 
L 113.905528 300.748241 
L 114.23032 300.308098 
L 115.033669 299.151443 
L 115.419653 299.041483 
L 116.023734 298.886607 
L 116.414425 298.495751 
L 117.591206 297.131231 
L 117.953655 297.194259 
L 118.344346 297.208772 
L 118.574995 296.961202 
L 118.855854 296.27494 
L 119.296754 294.495987 
L 120.186401 290.932586 
L 120.537866 290.33796 
L 120.782636 290.283801 
L 121.03839 290.485569 
L 121.811928 291.219966 
L 122.019041 291.036311 
L 122.310883 290.417329 
L 123.567685 287.372656 
L 124.284737 285.930633 
L 124.797813 284.292085 
L 125.577627 281.812533 
L 125.800431 281.688955 
L 125.974594 281.862929 
L 126.238193 282.513139 
L 127.403991 285.833677 
L 127.592276 285.790865 
L 127.800959 285.462349 
L 128.099076 284.507075 
L 128.547822 282.209772 
L 129.693222 276.058125 
L 130.039981 275.421182 
L 131.026908 274.198878 
L 131.560382 272.731674 
L 132.746577 269.287122 
L 133.152959 268.950485 
L 133.479319 268.590259 
L 133.75704 267.882939 
L 134.13361 266.205056 
L 135.158194 261.377945 
L 135.765413 259.881725 
L 136.593867 258.344887 
L 137.257571 257.682926 
L 137.767509 256.970886 
L 138.390419 255.705254 
L 138.787386 254.347561 
L 140.020653 249.53557 
L 140.687496 248.672363 
L 141.079756 247.326326 
L 141.616368 245.701648 
L 141.901934 245.435825 
L 142.203189 245.469635 
L 142.589174 245.4727 
L 142.813547 245.213458 
L 143.084991 244.499492 
L 143.546289 242.503958 
L 144.045244 240.721096 
L 144.354345 240.32961 
L 144.883112 239.860771 
L 145.157694 239.104104 
L 145.515436 237.374439 
L 145.979872 233.90759 
L 146.872657 227.063641 
L 147.126841 226.563279 
L 147.288453 226.610863 
L 147.544206 227.009677 
L 147.983538 227.6052 
L 148.156133 227.537273 
L 148.341279 227.163957 
L 148.579774 226.103816 
L 148.876323 223.639621 
L 149.260738 218.318412 
L 151.005512 191.00666 
L 151.300491 189.896529 
L 151.5484 189.68713 
L 151.774342 189.472507 
L 151.956351 188.886475 
L 152.191707 187.235747 
L 152.535327 182.967256 
L 154.512319 155.016126 
L 155.514937 143.397673 
L 156.326131 131.317773 
L 157.628435 110.650739 
L 157.945382 109.091511 
L 158.235654 108.637337 
L 158.555739 108.153304 
L 158.847581 107.167323 
L 159.79842 103.630868 
L 160.32091 102.600257 
L 160.458986 102.657168 
L 160.609614 103.058234 
L 160.830849 104.406954 
L 161.248214 108.703498 
L 161.651458 111.848245 
L 161.813069 112.110125 
L 161.835035 112.098286 
L 161.952714 111.865364 
L 162.199053 110.744953 
L 162.638385 108.97956 
L 162.779598 108.935132 
L 162.796858 108.949654 
L 162.9569 109.259653 
L 163.728868 111.150656 
L 163.749266 111.141607 
L 163.93912 110.913906 
L 164.536925 110.102437 
L 164.745607 110.21706 
L 165.181801 110.812652 
L 166.466846 112.478891 
L 166.793206 112.817321 
L 167.044253 113.487888 
L 167.401994 115.206434 
L 168.470511 121.907874 
L 168.988295 127.199074 
L 169.554719 132.303176 
L 169.802628 132.991186 
L 169.926582 132.931287 
L 170.108591 132.478332 
L 170.833488 130.437337 
L 171.053154 130.452875 
L 171.395205 130.480669 
L 171.58349 130.192429 
L 171.875331 129.237847 
L 172.320939 127.941459 
L 172.451169 127.986586 
L 172.603367 128.39511 
L 172.852844 129.835396 
L 173.965294 137.185581 
L 174.164563 137.304184 
L 174.348141 137.114765 
L 174.837681 136.567595 
L 174.993017 136.758363 
L 175.225235 137.481937 
L 176.648355 142.807074 
L 177.243022 144.228629 
L 177.58978 145.942416 
L 178.60495 151.411516 
L 179.04585 152.385017 
L 179.508718 152.901735 
L 179.955894 153.422956 
L 180.247736 154.204273 
L 180.621168 155.947488 
L 181.997217 163.065139 
L 182.18864 163.142637 
L 182.356528 162.912545 
L 182.76291 161.814087 
L 183.034354 161.444633 
L 183.184982 161.543415 
L 183.434459 162.070262 
L 183.759251 162.581945 
L 183.873791 162.447225 
L 184.035402 161.812177 
L 184.277034 159.792688 
L 184.713228 153.824239 
L 185.265531 147.265506 
L 185.598167 145.611742 
L 186.312081 143.110267 
L 186.655701 140.162466 
L 187.26292 132.547503 
L 187.841897 126.500949 
L 188.328299 123.760164 
L 188.783321 120.902615 
L 189.352883 115.466324 
L 190.928201 98.328477 
L 192.525485 73.884797 
L 193.915656 58.070158 
L 194.370678 54.605802 
L 194.593482 54.144203 
L 194.703315 54.266709 
L 194.885323 54.914134 
L 195.296412 57.456465 
L 195.704363 59.343343 
L 195.902062 59.52256 
L 195.903631 59.521839 
L 196.041707 59.332289 
L 196.267649 58.55018 
L 197.290664 54.330425 
L 197.311061 54.33745 
L 197.450706 54.526494 
L 197.681355 55.305426 
L 200.176131 65.72236 
L 200.413056 65.808987 
L 200.792764 65.889413 
L 201.017137 66.275162 
L 201.465883 67.648673 
L 201.818917 68.349837 
L 202.044859 68.394145 
L 202.504588 68.368603 
L 202.689735 68.736807 
L 202.932937 69.803362 
L 203.27185 72.444397 
L 203.930847 79.828198 
L 204.586706 85.969222 
L 205.201771 89.721993 
L 205.617566 91.11527 
L 206.598217 93.490657 
L 207.897384 99.891759 
L 208.248849 103.792219 
L 209.348747 117.193675 
L 209.659417 118.31305 
L 209.893204 118.502504 
L 210.153665 118.396645 
L 210.575737 118.267182 
L 211.024483 118.454367 
L 211.493626 118.517538 
L 211.755656 118.658865 
L 211.969046 119.077976 
L 212.229507 120.16412 
L 212.596663 122.808422 
L 213.605556 130.525123 
L 214.583069 135.132397 
L 215.042798 140.160596 
L 215.671984 146.483323 
L 215.937152 147.36777 
L 216.057968 147.350164 
L 216.068951 147.33676 
L 216.230562 146.94272 
L 216.541233 145.465818 
L 217.539143 140.486251 
L 217.921989 139.64174 
L 218.23109 139.424434 
L 218.527639 139.477564 
L 218.797514 139.760853 
L 219.081511 140.428819 
L 219.55693 142.273715 
L 219.983709 143.522749 
L 220.225342 143.688268 
L 220.438731 143.558817 
L 220.769799 143.046788 
L 221.140093 142.058909 
L 221.493127 140.409483 
L 221.965409 136.950088 
L 222.859762 130.453111 
L 224.10715 122.981859 
L 224.982675 117.365545 
L 225.316881 116.445241 
L 225.53184 116.349814 
L 225.784456 116.538356 
L 226.112385 116.697141 
L 226.303808 116.524198 
L 226.581529 115.904159 
L 227.485296 113.033286 
L 228.271386 109.951147 
L 228.70758 107.444543 
L 229.08415 103.790753 
L 229.658419 95.53091 
L 230.185617 89.281976 
L 230.455492 88.146552 
L 230.55591 88.127872 
L 230.585722 88.161367 
L 230.733212 88.563032 
L 231.007794 90.096036 
L 231.701311 94.040382 
L 231.873905 94.184969 
L 231.886457 94.177963 
L 232.024533 93.953788 
L 232.264596 93.038432 
L 233.088343 89.61258 
L 233.238971 89.611834 
L 233.242109 89.615132 
L 233.389599 89.937016 
L 233.604558 91.039002 
L 233.913659 93.972897 
L 234.586778 103.239524 
L 236.706553 133.505997 
L 237.511471 148.257719 
L 237.960217 161.255063 
L 239.392752 207.77924 
L 239.752062 210.91364 
L 240.910015 217.143348 
L 241.31012 218.317197 
L 241.749452 219.546116 
L 242.265666 222.036357 
L 242.60301 223.055026 
L 242.774036 223.083374 
L 242.951337 222.800799 
L 243.626025 221.489642 
L 243.643285 221.498813 
L 243.793913 221.726437 
L 244.021424 222.563233 
L 244.441927 225.162723 
L 244.983246 228.063118 
L 245.312745 228.760426 
L 245.904273 229.692124 
L 246.456576 231.442131 
L 246.862958 232.316289 
L 247.129695 232.456043 
L 247.377603 232.327146 
L 247.727499 231.85269 
L 248.778757 230.263163 
L 248.941937 230.475111 
L 249.155327 231.190179 
L 249.455014 233.103579 
L 250.030852 238.625255 
L 250.565895 242.778773 
L 250.834201 243.529063 
L 250.961294 243.479206 
L 251.118198 243.057732 
L 251.389642 241.556281 
L 252.114539 237.376002 
L 252.294979 237.242596 
L 252.302824 237.246892 
L 252.450314 237.464566 
L 252.724896 238.368475 
L 253.435672 240.741889 
L 253.73379 241.049531 
L 253.951887 240.997687 
L 254.19195 240.672975 
L 254.529294 239.776796 
L 255.186722 238.026151 
L 255.364024 238.026751 
L 255.547602 238.319214 
L 255.880238 239.371122 
L 256.550219 241.401075 
L 257.003672 242.060673 
L 257.391225 242.287729 
L 257.769364 242.237415 
L 258.089449 242.268961 
L 258.291855 242.551189 
L 258.533487 243.340307 
L 258.864555 245.308208 
L 260.016232 252.893503 
L 260.352006 253.508909 
L 260.705041 253.723178 
L 260.987468 253.667192 
L 261.241653 253.361686 
L 261.630775 252.459716 
L 262.076383 251.618997 
L 262.303894 251.57626 
L 262.575338 251.801439 
L 263.166867 252.291009 
L 263.526177 252.274837 
L 264.166346 251.953565 
L 264.522518 251.934039 
L 264.884967 252.169273 
L 265.741664 253.066529 
L 266.12451 253.882885 
L 267.045537 256.006907 
L 267.305998 256.077298 
L 267.596271 255.896892 
L 268.44826 255.26562 
L 268.705583 255.399116 
L 269.02096 255.858234 
L 270.164791 257.7708 
L 270.442512 257.74465 
L 270.943036 257.650378 
L 271.143873 257.934017 
L 271.412179 258.775419 
L 272.419504 262.383009 
L 272.603082 262.35329 
L 272.844714 262.023626 
L 273.615113 260.862432 
L 273.837917 260.902192 
L 274.059152 261.203166 
L 274.34001 262.019691 
L 274.746392 264.005426 
L 275.463444 267.434623 
L 275.73175 267.816902 
L 275.926311 267.768684 
L 276.249534 267.378502 
L 276.776732 266.835322 
L 277.553407 266.510858 
L 277.917425 266.497004 
L 278.155919 266.730678 
L 278.446192 267.381622 
L 279.729668 270.764057 
L 280.024647 270.803038 
L 280.697766 270.776662 
L 280.925277 271.117896 
L 281.195152 271.988422 
L 281.567015 274.068689 
L 282.331138 278.406029 
L 282.561787 278.693995 
L 282.713984 278.576601 
L 282.963462 278.02021 
L 283.845263 275.87808 
L 285.124032 274.107173 
L 285.417443 274.035969 
L 285.65123 274.217789 
L 285.938364 274.771175 
L 286.434182 276.327531 
L 287.013158 277.878359 
L 287.512113 278.55157 
L 288.657513 279.686571 
L 289.451448 280.390963 
L 289.798206 281.022967 
L 290.137119 282.172324 
L 291.397059 287.07772 
L 291.682625 287.220929 
L 292.010555 287.118442 
L 292.818611 286.79192 
L 293.112022 286.992744 
L 293.60627 287.674865 
L 294.477088 288.771828 
L 295.181587 289.789303 
L 296.155962 291.210953 
L 296.513703 291.358996 
L 296.882428 291.252322 
L 297.444145 291.105117 
L 297.809732 291.281797 
L 298.570717 291.97949 
L 299.303459 292.892039 
L 299.964026 294.126201 
L 300.543002 295.032477 
L 301.021559 295.349088 
L 302.243843 295.850089 
L 302.648655 295.645518 
L 303.188406 295.40122 
L 303.428469 295.553716 
L 303.717173 296.047848 
L 305.075962 298.815283 
L 305.405461 298.856472 
L 306.502221 298.751623 
L 306.941553 299.239618 
L 307.721366 300.06849 
L 308.163836 300.216806 
L 309.222939 300.394757 
L 309.557145 300.891742 
L 310.801394 303.068663 
L 311.061855 302.960868 
L 311.548258 302.438117 
L 311.993866 302.113809 
L 312.299829 302.153408 
L 312.729746 302.482299 
L 313.341672 302.878713 
L 314.060293 303.259567 
L 315.069187 304.068912 
L 315.372012 303.88844 
L 316.045131 303.440609 
L 316.335403 303.561977 
L 316.806116 304.059973 
L 317.653398 304.904162 
L 318.037813 304.994713 
L 318.475576 304.839177 
L 318.998067 304.711119 
L 319.35267 304.874691 
L 319.972441 305.47738 
L 320.755393 306.119997 
L 321.172758 306.207304 
L 321.571295 306.047663 
L 322.443682 305.643244 
L 323.022658 305.705248 
L 323.962514 306.055812 
L 324.560318 306.149412 
L 325.0985 305.99577 
L 326.050908 305.685745 
L 326.485532 305.83676 
L 327.163358 306.355301 
L 328.038883 306.960592 
L 328.68219 307.090375 
L 329.714619 307.09663 
L 330.218282 306.808353 
L 331.00594 306.363632 
L 331.417029 306.411506 
L 332.022679 306.751711 
L 332.815045 307.125523 
L 333.8867 307.282279 
L 334.737121 307.295713 
L 335.7366 307.252454 
L 336.913381 307.379142 
L 338.019555 307.336921 
L 338.76485 307.273178 
L 339.769037 307.150463 
L 342.433269 307.352071 
L 343.258585 307.386226 
L 344.317688 307.441461 
L 346.096981 307.37837 
L 347.840186 307.561897 
L 349.553579 307.563767 
L 351.74553 307.540786 
L 353.28319 307.583753 
L 355.252337 307.47157 
L 356.165519 307.494201 
L 357.813013 307.583652 
L 375.598097 307.505922 
L 376.696426 307.481084 
L 378.609087 307.583852 
L 398.487273 307.584 
L 398.487273 307.584 
" style="fill:none;stroke:#ff7f0e;stroke-linecap:square;stroke-width:1.5;"/>
   </g>
   <g id="patch_103">
    <path d="M 57.6 307.584 
L 57.6 41.472 
" style="fill:none;stroke:#000000;stroke-linecap:square;stroke-linejoin:miter;stroke-width:0.8;"/>
   </g>
   <g id="patch_104">
    <path d="M 414.72 307.584 
L 414.72 41.472 
" style="fill:none;stroke:#000000;stroke-linecap:square;stroke-linejoin:miter;stroke-width:0.8;"/>
   </g>
   <g id="patch_105">
    <path d="M 57.6 307.584 
L 414.72 307.584 
" style="fill:none;stroke:#000000;stroke-linecap:square;stroke-linejoin:miter;stroke-width:0.8;"/>
   </g>
   <g id="patch_106">
    <path d="M 57.6 41.472 
L 414.72 41.472 
" style="fill:none;stroke:#000000;stroke-linecap:square;stroke-linejoin:miter;stroke-width:0.8;"/>
   </g>
  </g>
 </g>
 <defs>
  <clipPath id="pa49dbe2d86">
   <rect height="266.112" width="357.12" x="57.6" y="41.472"/>
  </clipPath>
 </defs>
</svg>
