<?xml version="1.0" encoding="utf-8" standalone="no"?>
<!DOCTYPE svg PUBLIC "-//W3C//DTD SVG 1.1//EN"
  "http://www.w3.org/Graphics/SVG/1.1/DTD/svg11.dtd">
<!-- Created with matplotlib (https://matplotlib.org/) -->
<svg height="345.6pt" version="1.1" viewBox="0 0 460.8 345.6" width="460.8pt" xmlns="http://www.w3.org/2000/svg" xmlns:xlink="http://www.w3.org/1999/xlink">
 <defs>
  <style type="text/css">
*{stroke-linecap:butt;stroke-linejoin:round;}
  </style>
 </defs>
 <g id="figure_1">
  <g id="patch_1">
   <path d="M 0 345.6 
L 460.8 345.6 
L 460.8 0 
L 0 0 
z
" style="fill:#ffffff;"/>
  </g>
  <g id="axes_1">
   <g id="patch_2">
    <path d="M 57.6 307.584 
L 414.72 307.584 
L 414.72 41.472 
L 57.6 41.472 
z
" style="fill:#ffffff;"/>
   </g>
   <g id="patch_3">
    <path clip-path="url(#p3eabda9284)" d="M 150.132009 307.584 
L 152.162166 307.584 
L 152.162166 307.534829 
L 150.132009 307.534829 
z
" style="fill:#1f77b4;"/>
   </g>
   <g id="patch_4">
    <path clip-path="url(#p3eabda9284)" d="M 152.162166 307.584 
L 154.192322 307.584 
L 154.192322 307.495492 
L 152.162166 307.495492 
z
" style="fill:#1f77b4;"/>
   </g>
   <g id="patch_5">
    <path clip-path="url(#p3eabda9284)" d="M 154.192322 307.584 
L 156.222479 307.584 
L 156.222479 307.485658 
L 154.192322 307.485658 
z
" style="fill:#1f77b4;"/>
   </g>
   <g id="patch_6">
    <path clip-path="url(#p3eabda9284)" d="M 156.222479 307.584 
L 158.252635 307.584 
L 158.252635 307.406985 
L 156.222479 307.406985 
z
" style="fill:#1f77b4;"/>
   </g>
   <g id="patch_7">
    <path clip-path="url(#p3eabda9284)" d="M 158.252635 307.584 
L 160.282791 307.584 
L 160.282791 307.328311 
L 158.252635 307.328311 
z
" style="fill:#1f77b4;"/>
   </g>
   <g id="patch_8">
    <path clip-path="url(#p3eabda9284)" d="M 160.282791 307.584 
L 162.312948 307.584 
L 162.312948 307.092291 
L 160.282791 307.092291 
z
" style="fill:#1f77b4;"/>
   </g>
   <g id="patch_9">
    <path clip-path="url(#p3eabda9284)" d="M 162.312948 307.584 
L 164.343104 307.584 
L 164.343104 306.748094 
L 162.312948 306.748094 
z
" style="fill:#1f77b4;"/>
   </g>
   <g id="patch_10">
    <path clip-path="url(#p3eabda9284)" d="M 164.343104 307.584 
L 166.373261 307.584 
L 166.373261 306.512074 
L 164.343104 306.512074 
z
" style="fill:#1f77b4;"/>
   </g>
   <g id="patch_11">
    <path clip-path="url(#p3eabda9284)" d="M 166.373261 307.584 
L 168.403417 307.584 
L 168.403417 305.89252 
L 166.373261 305.89252 
z
" style="fill:#1f77b4;"/>
   </g>
   <g id="patch_12">
    <path clip-path="url(#p3eabda9284)" d="M 168.403417 307.584 
L 170.433574 307.584 
L 170.433574 304.948438 
L 168.403417 304.948438 
z
" style="fill:#1f77b4;"/>
   </g>
   <g id="patch_13">
    <path clip-path="url(#p3eabda9284)" d="M 170.433574 307.584 
L 172.46373 307.584 
L 172.46373 303.669994 
L 170.433574 303.669994 
z
" style="fill:#1f77b4;"/>
   </g>
   <g id="patch_14">
    <path clip-path="url(#p3eabda9284)" d="M 172.46373 307.584 
L 174.493887 307.584 
L 174.493887 302.706244 
L 172.46373 302.706244 
z
" style="fill:#1f77b4;"/>
   </g>
   <g id="patch_15">
    <path clip-path="url(#p3eabda9284)" d="M 174.493887 307.584 
L 176.524043 307.584 
L 176.524043 300.503386 
L 174.493887 300.503386 
z
" style="fill:#1f77b4;"/>
   </g>
   <g id="patch_16">
    <path clip-path="url(#p3eabda9284)" d="M 176.524043 307.584 
L 178.5542 307.584 
L 178.5542 298.644725 
L 176.524043 298.644725 
z
" style="fill:#1f77b4;"/>
   </g>
   <g id="patch_17">
    <path clip-path="url(#p3eabda9284)" d="M 178.5542 307.584 
L 180.584356 307.584 
L 180.584356 296.736893 
L 178.5542 296.736893 
z
" style="fill:#1f77b4;"/>
   </g>
   <g id="patch_18">
    <path clip-path="url(#p3eabda9284)" d="M 180.584356 307.584 
L 182.614513 307.584 
L 182.614513 294.583206 
L 180.584356 294.583206 
z
" style="fill:#1f77b4;"/>
   </g>
   <g id="patch_19">
    <path clip-path="url(#p3eabda9284)" d="M 182.614513 307.584 
L 184.644669 307.584 
L 184.644669 292.203333 
L 182.614513 292.203333 
z
" style="fill:#1f77b4;"/>
   </g>
   <g id="patch_20">
    <path clip-path="url(#p3eabda9284)" d="M 184.644669 307.584 
L 186.674826 307.584 
L 186.674826 291.062568 
L 184.644669 291.062568 
z
" style="fill:#1f77b4;"/>
   </g>
   <g id="patch_21">
    <path clip-path="url(#p3eabda9284)" d="M 186.674826 307.584 
L 188.704982 307.584 
L 188.704982 288.358166 
L 186.674826 288.358166 
z
" style="fill:#1f77b4;"/>
   </g>
   <g id="patch_22">
    <path clip-path="url(#p3eabda9284)" d="M 188.704982 307.584 
L 190.735139 307.584 
L 190.735139 286.361827 
L 188.704982 286.361827 
z
" style="fill:#1f77b4;"/>
   </g>
   <g id="patch_23">
    <path clip-path="url(#p3eabda9284)" d="M 190.735139 307.584 
L 192.765295 307.584 
L 192.765295 284.74902 
L 190.735139 284.74902 
z
" style="fill:#1f77b4;"/>
   </g>
   <g id="patch_24">
    <path clip-path="url(#p3eabda9284)" d="M 192.765295 307.584 
L 194.795452 307.584 
L 194.795452 282.664173 
L 192.765295 282.664173 
z
" style="fill:#1f77b4;"/>
   </g>
   <g id="patch_25">
    <path clip-path="url(#p3eabda9284)" d="M 194.795452 307.584 
L 196.825608 307.584 
L 196.825608 280.353139 
L 194.795452 280.353139 
z
" style="fill:#1f77b4;"/>
   </g>
   <g id="patch_26">
    <path clip-path="url(#p3eabda9284)" d="M 196.825608 307.584 
L 198.855764 307.584 
L 198.855764 279.654912 
L 196.825608 279.654912 
z
" style="fill:#1f77b4;"/>
   </g>
   <g id="patch_27">
    <path clip-path="url(#p3eabda9284)" d="M 198.855764 307.584 
L 200.885921 307.584 
L 200.885921 278.042105 
L 198.855764 278.042105 
z
" style="fill:#1f77b4;"/>
   </g>
   <g id="patch_28">
    <path clip-path="url(#p3eabda9284)" d="M 200.885921 307.584 
L 202.916077 307.584 
L 202.916077 277.32421 
L 200.885921 277.32421 
z
" style="fill:#1f77b4;"/>
   </g>
   <g id="patch_29">
    <path clip-path="url(#p3eabda9284)" d="M 202.916077 307.584 
L 204.946234 307.584 
L 204.946234 275.731072 
L 202.916077 275.731072 
z
" style="fill:#1f77b4;"/>
   </g>
   <g id="patch_30">
    <path clip-path="url(#p3eabda9284)" d="M 204.946234 307.584 
L 206.97639 307.584 
L 206.97639 269.968239 
L 204.946234 269.968239 
z
" style="fill:#1f77b4;"/>
   </g>
   <g id="patch_31">
    <path clip-path="url(#p3eabda9284)" d="M 206.97639 307.584 
L 209.006547 307.584 
L 209.006547 251.263617 
L 206.97639 251.263617 
z
" style="fill:#1f77b4;"/>
   </g>
   <g id="patch_32">
    <path clip-path="url(#p3eabda9284)" d="M 209.006547 307.584 
L 211.036703 307.584 
L 211.036703 233.729264 
L 209.006547 233.729264 
z
" style="fill:#1f77b4;"/>
   </g>
   <g id="patch_33">
    <path clip-path="url(#p3eabda9284)" d="M 211.036703 307.584 
L 213.06686 307.584 
L 213.06686 238.469341 
L 211.036703 238.469341 
z
" style="fill:#1f77b4;"/>
   </g>
   <g id="patch_34">
    <path clip-path="url(#p3eabda9284)" d="M 213.06686 307.584 
L 215.097016 307.584 
L 215.097016 240.131319 
L 213.06686 240.131319 
z
" style="fill:#1f77b4;"/>
   </g>
   <g id="patch_35">
    <path clip-path="url(#p3eabda9284)" d="M 215.097016 307.584 
L 217.127173 307.584 
L 217.127173 229.215372 
L 215.097016 229.215372 
z
" style="fill:#1f77b4;"/>
   </g>
   <g id="patch_36">
    <path clip-path="url(#p3eabda9284)" d="M 217.127173 307.584 
L 219.157329 307.584 
L 219.157329 210.284564 
L 217.127173 210.284564 
z
" style="fill:#1f77b4;"/>
   </g>
   <g id="patch_37">
    <path clip-path="url(#p3eabda9284)" d="M 219.157329 307.584 
L 221.187486 307.584 
L 221.187486 180.762338 
L 219.157329 180.762338 
z
" style="fill:#1f77b4;"/>
   </g>
   <g id="patch_38">
    <path clip-path="url(#p3eabda9284)" d="M 221.187486 307.584 
L 223.217642 307.584 
L 223.217642 149.538798 
L 221.187486 149.538798 
z
" style="fill:#1f77b4;"/>
   </g>
   <g id="patch_39">
    <path clip-path="url(#p3eabda9284)" d="M 223.217642 307.584 
L 225.247799 307.584 
L 225.247799 163.768865 
L 223.217642 163.768865 
z
" style="fill:#1f77b4;"/>
   </g>
   <g id="patch_40">
    <path clip-path="url(#p3eabda9284)" d="M 225.247799 307.584 
L 227.277955 307.584 
L 227.277955 179.887096 
L 225.247799 179.887096 
z
" style="fill:#1f77b4;"/>
   </g>
   <g id="patch_41">
    <path clip-path="url(#p3eabda9284)" d="M 227.277955 307.584 
L 229.308112 307.584 
L 229.308112 177.015513 
L 227.277955 177.015513 
z
" style="fill:#1f77b4;"/>
   </g>
   <g id="patch_42">
    <path clip-path="url(#p3eabda9284)" d="M 229.308112 307.584 
L 231.338268 307.584 
L 231.338268 176.169773 
L 229.308112 176.169773 
z
" style="fill:#1f77b4;"/>
   </g>
   <g id="patch_43">
    <path clip-path="url(#p3eabda9284)" d="M 231.338268 307.584 
L 233.368425 307.584 
L 233.368425 150.10918 
L 231.338268 150.10918 
z
" style="fill:#1f77b4;"/>
   </g>
   <g id="patch_44">
    <path clip-path="url(#p3eabda9284)" d="M 233.368425 307.584 
L 235.398581 307.584 
L 235.398581 72.86165 
L 233.368425 72.86165 
z
" style="fill:#1f77b4;"/>
   </g>
   <g id="patch_45">
    <path clip-path="url(#p3eabda9284)" d="M 235.398581 307.584 
L 237.428738 307.584 
L 237.428738 149.174933 
L 235.398581 149.174933 
z
" style="fill:#1f77b4;"/>
   </g>
   <g id="patch_46">
    <path clip-path="url(#p3eabda9284)" d="M 237.428738 307.584 
L 239.458894 307.584 
L 239.458894 227.150193 
L 237.428738 227.150193 
z
" style="fill:#1f77b4;"/>
   </g>
   <g id="patch_47">
    <path clip-path="url(#p3eabda9284)" d="M 239.458894 307.584 
L 241.48905 307.584 
L 241.48905 231.998447 
L 239.458894 231.998447 
z
" style="fill:#1f77b4;"/>
   </g>
   <g id="patch_48">
    <path clip-path="url(#p3eabda9284)" d="M 241.48905 307.584 
L 243.519207 307.584 
L 243.519207 242.511192 
L 241.48905 242.511192 
z
" style="fill:#1f77b4;"/>
   </g>
   <g id="patch_49">
    <path clip-path="url(#p3eabda9284)" d="M 243.519207 307.584 
L 245.549363 307.584 
L 245.549363 249.926168 
L 243.519207 249.926168 
z
" style="fill:#1f77b4;"/>
   </g>
   <g id="patch_50">
    <path clip-path="url(#p3eabda9284)" d="M 245.549363 307.584 
L 247.57952 307.584 
L 247.57952 257.508325 
L 245.549363 257.508325 
z
" style="fill:#1f77b4;"/>
   </g>
   <g id="patch_51">
    <path clip-path="url(#p3eabda9284)" d="M 247.57952 307.584 
L 249.609676 307.584 
L 249.609676 261.520673 
L 247.57952 261.520673 
z
" style="fill:#1f77b4;"/>
   </g>
   <g id="patch_52">
    <path clip-path="url(#p3eabda9284)" d="M 249.609676 307.584 
L 251.639833 307.584 
L 251.639833 267.608034 
L 249.609676 267.608034 
z
" style="fill:#1f77b4;"/>
   </g>
   <g id="patch_53">
    <path clip-path="url(#p3eabda9284)" d="M 251.639833 307.584 
L 253.669989 307.584 
L 253.669989 270.971326 
L 251.639833 270.971326 
z
" style="fill:#1f77b4;"/>
   </g>
   <g id="patch_54">
    <path clip-path="url(#p3eabda9284)" d="M 253.669989 307.584 
L 255.700146 307.584 
L 255.700146 273.223354 
L 253.669989 273.223354 
z
" style="fill:#1f77b4;"/>
   </g>
   <g id="patch_55">
    <path clip-path="url(#p3eabda9284)" d="M 255.700146 307.584 
L 257.730302 307.584 
L 257.730302 276.242449 
L 255.700146 276.242449 
z
" style="fill:#1f77b4;"/>
   </g>
   <g id="patch_56">
    <path clip-path="url(#p3eabda9284)" d="M 257.730302 307.584 
L 259.760459 307.584 
L 259.760459 278.130613 
L 257.730302 278.130613 
z
" style="fill:#1f77b4;"/>
   </g>
   <g id="patch_57">
    <path clip-path="url(#p3eabda9284)" d="M 259.760459 307.584 
L 261.790615 307.584 
L 261.790615 280.913688 
L 259.760459 280.913688 
z
" style="fill:#1f77b4;"/>
   </g>
   <g id="patch_58">
    <path clip-path="url(#p3eabda9284)" d="M 261.790615 307.584 
L 263.820772 307.584 
L 263.820772 282.083956 
L 261.790615 282.083956 
z
" style="fill:#1f77b4;"/>
   </g>
   <g id="patch_59">
    <path clip-path="url(#p3eabda9284)" d="M 263.820772 307.584 
L 265.850928 307.584 
L 265.850928 284.581839 
L 263.820772 284.581839 
z
" style="fill:#1f77b4;"/>
   </g>
   <g id="patch_60">
    <path clip-path="url(#p3eabda9284)" d="M 265.850928 307.584 
L 267.881085 307.584 
L 267.881085 286.292987 
L 265.850928 286.292987 
z
" style="fill:#1f77b4;"/>
   </g>
   <g id="patch_61">
    <path clip-path="url(#p3eabda9284)" d="M 267.881085 307.584 
L 269.911241 307.584 
L 269.911241 287.532095 
L 267.881085 287.532095 
z
" style="fill:#1f77b4;"/>
   </g>
   <g id="patch_62">
    <path clip-path="url(#p3eabda9284)" d="M 269.911241 307.584 
L 271.941398 307.584 
L 271.941398 290.226662 
L 269.911241 290.226662 
z
" style="fill:#1f77b4;"/>
   </g>
   <g id="patch_63">
    <path clip-path="url(#p3eabda9284)" d="M 271.941398 307.584 
L 273.971554 307.584 
L 273.971554 291.377262 
L 271.941398 291.377262 
z
" style="fill:#1f77b4;"/>
   </g>
   <g id="patch_64">
    <path clip-path="url(#p3eabda9284)" d="M 273.971554 307.584 
L 276.001711 307.584 
L 276.001711 293.501446 
L 273.971554 293.501446 
z
" style="fill:#1f77b4;"/>
   </g>
   <g id="patch_65">
    <path clip-path="url(#p3eabda9284)" d="M 276.001711 307.584 
L 278.031867 307.584 
L 278.031867 294.770056 
L 276.001711 294.770056 
z
" style="fill:#1f77b4;"/>
   </g>
   <g id="patch_66">
    <path clip-path="url(#p3eabda9284)" d="M 278.031867 307.584 
L 280.062023 307.584 
L 280.062023 296.196013 
L 278.031867 296.196013 
z
" style="fill:#1f77b4;"/>
   </g>
   <g id="patch_67">
    <path clip-path="url(#p3eabda9284)" d="M 280.062023 307.584 
L 282.09218 307.584 
L 282.09218 297.966166 
L 280.062023 297.966166 
z
" style="fill:#1f77b4;"/>
   </g>
   <g id="patch_68">
    <path clip-path="url(#p3eabda9284)" d="M 282.09218 307.584 
L 284.122336 307.584 
L 284.122336 299.382289 
L 282.09218 299.382289 
z
" style="fill:#1f77b4;"/>
   </g>
   <g id="patch_69">
    <path clip-path="url(#p3eabda9284)" d="M 284.122336 307.584 
L 286.152493 307.584 
L 286.152493 300.247697 
L 284.122336 300.247697 
z
" style="fill:#1f77b4;"/>
   </g>
   <g id="patch_70">
    <path clip-path="url(#p3eabda9284)" d="M 286.152493 307.584 
L 288.182649 307.584 
L 288.182649 301.054101 
L 286.152493 301.054101 
z
" style="fill:#1f77b4;"/>
   </g>
   <g id="patch_71">
    <path clip-path="url(#p3eabda9284)" d="M 288.182649 307.584 
L 290.212806 307.584 
L 290.212806 302.598068 
L 288.182649 302.598068 
z
" style="fill:#1f77b4;"/>
   </g>
   <g id="patch_72">
    <path clip-path="url(#p3eabda9284)" d="M 290.212806 307.584 
L 292.242962 307.584 
L 292.242962 302.902927 
L 290.212806 302.902927 
z
" style="fill:#1f77b4;"/>
   </g>
   <g id="patch_73">
    <path clip-path="url(#p3eabda9284)" d="M 292.242962 307.584 
L 294.273119 307.584 
L 294.273119 303.827341 
L 292.242962 303.827341 
z
" style="fill:#1f77b4;"/>
   </g>
   <g id="patch_74">
    <path clip-path="url(#p3eabda9284)" d="M 294.273119 307.584 
L 296.303275 307.584 
L 296.303275 304.427226 
L 294.273119 304.427226 
z
" style="fill:#1f77b4;"/>
   </g>
   <g id="patch_75">
    <path clip-path="url(#p3eabda9284)" d="M 296.303275 307.584 
L 298.333432 307.584 
L 298.333432 304.85993 
L 296.303275 304.85993 
z
" style="fill:#1f77b4;"/>
   </g>
   <g id="patch_76">
    <path clip-path="url(#p3eabda9284)" d="M 298.333432 307.584 
L 300.363588 307.584 
L 300.363588 305.508987 
L 298.333432 305.508987 
z
" style="fill:#1f77b4;"/>
   </g>
   <g id="patch_77">
    <path clip-path="url(#p3eabda9284)" d="M 300.363588 307.584 
L 302.393745 307.584 
L 302.393745 305.715505 
L 300.363588 305.715505 
z
" style="fill:#1f77b4;"/>
   </g>
   <g id="patch_78">
    <path clip-path="url(#p3eabda9284)" d="M 302.393745 307.584 
L 304.423901 307.584 
L 304.423901 305.981028 
L 302.393745 305.981028 
z
" style="fill:#1f77b4;"/>
   </g>
   <g id="patch_79">
    <path clip-path="url(#p3eabda9284)" d="M 304.423901 307.584 
L 306.454058 307.584 
L 306.454058 306.226882 
L 304.423901 306.226882 
z
" style="fill:#1f77b4;"/>
   </g>
   <g id="patch_80">
    <path clip-path="url(#p3eabda9284)" d="M 306.454058 307.584 
L 308.484214 307.584 
L 308.484214 306.55141 
L 306.454058 306.55141 
z
" style="fill:#1f77b4;"/>
   </g>
   <g id="patch_81">
    <path clip-path="url(#p3eabda9284)" d="M 308.484214 307.584 
L 310.514371 307.584 
L 310.514371 306.689089 
L 308.484214 306.689089 
z
" style="fill:#1f77b4;"/>
   </g>
   <g id="patch_82">
    <path clip-path="url(#p3eabda9284)" d="M 310.514371 307.584 
L 312.544527 307.584 
L 312.544527 306.964446 
L 310.514371 306.964446 
z
" style="fill:#1f77b4;"/>
   </g>
   <g id="patch_83">
    <path clip-path="url(#p3eabda9284)" d="M 312.544527 307.584 
L 314.574684 307.584 
L 314.574684 306.97428 
L 312.544527 306.97428 
z
" style="fill:#1f77b4;"/>
   </g>
   <g id="patch_84">
    <path clip-path="url(#p3eabda9284)" d="M 314.574684 307.584 
L 316.60484 307.584 
L 316.60484 307.170964 
L 314.574684 307.170964 
z
" style="fill:#1f77b4;"/>
   </g>
   <g id="patch_85">
    <path clip-path="url(#p3eabda9284)" d="M 316.60484 307.584 
L 318.634997 307.584 
L 318.634997 307.220135 
L 316.60484 307.220135 
z
" style="fill:#1f77b4;"/>
   </g>
   <g id="patch_86">
    <path clip-path="url(#p3eabda9284)" d="M 318.634997 307.584 
L 320.665153 307.584 
L 320.665153 307.288974 
L 318.634997 307.288974 
z
" style="fill:#1f77b4;"/>
   </g>
   <g id="patch_87">
    <path clip-path="url(#p3eabda9284)" d="M 320.665153 307.584 
L 322.695309 307.584 
L 322.695309 307.456156 
L 320.665153 307.456156 
z
" style="fill:#1f77b4;"/>
   </g>
   <g id="patch_88">
    <path clip-path="url(#p3eabda9284)" d="M 322.695309 307.584 
L 324.725466 307.584 
L 324.725466 307.46599 
L 322.695309 307.46599 
z
" style="fill:#1f77b4;"/>
   </g>
   <g id="patch_89">
    <path clip-path="url(#p3eabda9284)" d="M 324.725466 307.584 
L 326.755622 307.584 
L 326.755622 307.436487 
L 324.725466 307.436487 
z
" style="fill:#1f77b4;"/>
   </g>
   <g id="patch_90">
    <path clip-path="url(#p3eabda9284)" d="M 326.755622 307.584 
L 328.785779 307.584 
L 328.785779 307.475824 
L 326.755622 307.475824 
z
" style="fill:#1f77b4;"/>
   </g>
   <g id="patch_91">
    <path clip-path="url(#p3eabda9284)" d="M 328.785779 307.584 
L 330.815935 307.584 
L 330.815935 307.46599 
L 328.785779 307.46599 
z
" style="fill:#1f77b4;"/>
   </g>
   <g id="patch_92">
    <path clip-path="url(#p3eabda9284)" d="M 330.815935 307.584 
L 332.846092 307.584 
L 332.846092 307.544663 
L 330.815935 307.544663 
z
" style="fill:#1f77b4;"/>
   </g>
   <g id="patch_93">
    <path clip-path="url(#p3eabda9284)" d="M 332.846092 307.584 
L 334.876248 307.584 
L 334.876248 307.544663 
L 332.846092 307.544663 
z
" style="fill:#1f77b4;"/>
   </g>
   <g id="patch_94">
    <path clip-path="url(#p3eabda9284)" d="M 334.876248 307.584 
L 336.906405 307.584 
L 336.906405 307.544663 
L 334.876248 307.544663 
z
" style="fill:#1f77b4;"/>
   </g>
   <g id="patch_95">
    <path clip-path="url(#p3eabda9284)" d="M 336.906405 307.584 
L 338.936561 307.584 
L 338.936561 307.574166 
L 336.906405 307.574166 
z
" style="fill:#1f77b4;"/>
   </g>
   <g id="patch_96">
    <path clip-path="url(#p3eabda9284)" d="M 338.936561 307.584 
L 340.966718 307.584 
L 340.966718 307.564332 
L 338.936561 307.564332 
z
" style="fill:#1f77b4;"/>
   </g>
   <g id="patch_97">
    <path clip-path="url(#p3eabda9284)" d="M 340.966718 307.584 
L 342.996874 307.584 
L 342.996874 307.564332 
L 340.966718 307.564332 
z
" style="fill:#1f77b4;"/>
   </g>
   <g id="patch_98">
    <path clip-path="url(#p3eabda9284)" d="M 342.996874 307.584 
L 345.027031 307.584 
L 345.027031 307.564332 
L 342.996874 307.564332 
z
" style="fill:#1f77b4;"/>
   </g>
   <g id="patch_99">
    <path clip-path="url(#p3eabda9284)" d="M 345.027031 307.584 
L 347.057187 307.584 
L 347.057187 307.564332 
L 345.027031 307.564332 
z
" style="fill:#1f77b4;"/>
   </g>
   <g id="patch_100">
    <path clip-path="url(#p3eabda9284)" d="M 347.057187 307.584 
L 349.087344 307.584 
L 349.087344 307.584 
L 347.057187 307.584 
z
" style="fill:#1f77b4;"/>
   </g>
   <g id="patch_101">
    <path clip-path="url(#p3eabda9284)" d="M 349.087344 307.584 
L 351.1175 307.584 
L 351.1175 307.584 
L 349.087344 307.584 
z
" style="fill:#1f77b4;"/>
   </g>
   <g id="patch_102">
    <path clip-path="url(#p3eabda9284)" d="M 351.1175 307.584 
L 353.147657 307.584 
L 353.147657 307.574166 
L 351.1175 307.574166 
z
" style="fill:#1f77b4;"/>
   </g>
   <g id="matplotlib.axis_1">
    <g id="xtick_1">
     <g id="line2d_1">
      <defs>
       <path d="M 0 0 
L 0 3.5 
" id="mb5861c0cbc" style="stroke:#000000;stroke-width:0.8;"/>
      </defs>
      <g>
       <use style="stroke:#000000;stroke-width:0.8;" x="106.298236" xlink:href="#mb5861c0cbc" y="307.584"/>
      </g>
     </g>
     <g id="text_1">
      <!-- −2 -->
      <defs>
       <path d="M 10.59375 35.5 
L 73.1875 35.5 
L 73.1875 27.203125 
L 10.59375 27.203125 
z
" id="DejaVuSans-8722"/>
       <path d="M 19.1875 8.296875 
L 53.609375 8.296875 
L 53.609375 0 
L 7.328125 0 
L 7.328125 8.296875 
Q 12.9375 14.109375 22.625 23.890625 
Q 32.328125 33.6875 34.8125 36.53125 
Q 39.546875 41.84375 41.421875 45.53125 
Q 43.3125 49.21875 43.3125 52.78125 
Q 43.3125 58.59375 39.234375 62.25 
Q 35.15625 65.921875 28.609375 65.921875 
Q 23.96875 65.921875 18.8125 64.3125 
Q 13.671875 62.703125 7.8125 59.421875 
L 7.8125 69.390625 
Q 13.765625 71.78125 18.9375 73 
Q 24.125 74.21875 28.421875 74.21875 
Q 39.75 74.21875 46.484375 68.546875 
Q 53.21875 62.890625 53.21875 53.421875 
Q 53.21875 48.921875 51.53125 44.890625 
Q 49.859375 40.875 45.40625 35.40625 
Q 44.1875 33.984375 37.640625 27.21875 
Q 31.109375 20.453125 19.1875 8.296875 
z
" id="DejaVuSans-50"/>
      </defs>
      <g transform="translate(93.767376 327.501344)scale(0.17 -0.17)">
       <use xlink:href="#DejaVuSans-8722"/>
       <use x="83.789062" xlink:href="#DejaVuSans-50"/>
      </g>
     </g>
    </g>
    <g id="xtick_2">
     <g id="line2d_2">
      <g>
       <use style="stroke:#000000;stroke-width:0.8;" x="171.229252" xlink:href="#mb5861c0cbc" y="307.584"/>
      </g>
     </g>
     <g id="text_2">
      <!-- −1 -->
      <defs>
       <path d="M 12.40625 8.296875 
L 28.515625 8.296875 
L 28.515625 63.921875 
L 10.984375 60.40625 
L 10.984375 69.390625 
L 28.421875 72.90625 
L 38.28125 72.90625 
L 38.28125 8.296875 
L 54.390625 8.296875 
L 54.390625 0 
L 12.40625 0 
z
" id="DejaVuSans-49"/>
      </defs>
      <g transform="translate(158.698393 327.501344)scale(0.17 -0.17)">
       <use xlink:href="#DejaVuSans-8722"/>
       <use x="83.789062" xlink:href="#DejaVuSans-49"/>
      </g>
     </g>
    </g>
    <g id="xtick_3">
     <g id="line2d_3">
      <g>
       <use style="stroke:#000000;stroke-width:0.8;" x="236.160269" xlink:href="#mb5861c0cbc" y="307.584"/>
      </g>
     </g>
     <g id="text_3">
      <!-- 0 -->
      <defs>
       <path d="M 31.78125 66.40625 
Q 24.171875 66.40625 20.328125 58.90625 
Q 16.5 51.421875 16.5 36.375 
Q 16.5 21.390625 20.328125 13.890625 
Q 24.171875 6.390625 31.78125 6.390625 
Q 39.453125 6.390625 43.28125 13.890625 
Q 47.125 21.390625 47.125 36.375 
Q 47.125 51.421875 43.28125 58.90625 
Q 39.453125 66.40625 31.78125 66.40625 
z
M 31.78125 74.21875 
Q 44.046875 74.21875 50.515625 64.515625 
Q 56.984375 54.828125 56.984375 36.375 
Q 56.984375 17.96875 50.515625 8.265625 
Q 44.046875 -1.421875 31.78125 -1.421875 
Q 19.53125 -1.421875 13.0625 8.265625 
Q 6.59375 17.96875 6.59375 36.375 
Q 6.59375 54.828125 13.0625 64.515625 
Q 19.53125 74.21875 31.78125 74.21875 
z
" id="DejaVuSans-48"/>
      </defs>
      <g transform="translate(230.752144 327.501344)scale(0.17 -0.17)">
       <use xlink:href="#DejaVuSans-48"/>
      </g>
     </g>
    </g>
    <g id="xtick_4">
     <g id="line2d_4">
      <g>
       <use style="stroke:#000000;stroke-width:0.8;" x="301.091285" xlink:href="#mb5861c0cbc" y="307.584"/>
      </g>
     </g>
     <g id="text_4">
      <!-- 1 -->
      <g transform="translate(295.68316 327.501344)scale(0.17 -0.17)">
       <use xlink:href="#DejaVuSans-49"/>
      </g>
     </g>
    </g>
    <g id="xtick_5">
     <g id="line2d_5">
      <g>
       <use style="stroke:#000000;stroke-width:0.8;" x="366.022302" xlink:href="#mb5861c0cbc" y="307.584"/>
      </g>
     </g>
     <g id="text_5">
      <!-- 2 -->
      <g transform="translate(360.614177 327.501344)scale(0.17 -0.17)">
       <use xlink:href="#DejaVuSans-50"/>
      </g>
     </g>
    </g>
    <g id="text_6">
     <!-- Compressed value -->
     <defs>
      <path d="M 64.40625 67.28125 
L 64.40625 56.890625 
Q 59.421875 61.53125 53.78125 63.8125 
Q 48.140625 66.109375 41.796875 66.109375 
Q 29.296875 66.109375 22.65625 58.46875 
Q 16.015625 50.828125 16.015625 36.375 
Q 16.015625 21.96875 22.65625 14.328125 
Q 29.296875 6.6875 41.796875 6.6875 
Q 48.140625 6.6875 53.78125 8.984375 
Q 59.421875 11.28125 64.40625 15.921875 
L 64.40625 5.609375 
Q 59.234375 2.09375 53.4375 0.328125 
Q 47.65625 -1.421875 41.21875 -1.421875 
Q 24.65625 -1.421875 15.125 8.703125 
Q 5.609375 18.84375 5.609375 36.375 
Q 5.609375 53.953125 15.125 64.078125 
Q 24.65625 74.21875 41.21875 74.21875 
Q 47.75 74.21875 53.53125 72.484375 
Q 59.328125 70.75 64.40625 67.28125 
z
" id="DejaVuSans-67"/>
      <path d="M 30.609375 48.390625 
Q 23.390625 48.390625 19.1875 42.75 
Q 14.984375 37.109375 14.984375 27.296875 
Q 14.984375 17.484375 19.15625 11.84375 
Q 23.34375 6.203125 30.609375 6.203125 
Q 37.796875 6.203125 41.984375 11.859375 
Q 46.1875 17.53125 46.1875 27.296875 
Q 46.1875 37.015625 41.984375 42.703125 
Q 37.796875 48.390625 30.609375 48.390625 
z
M 30.609375 56 
Q 42.328125 56 49.015625 48.375 
Q 55.71875 40.765625 55.71875 27.296875 
Q 55.71875 13.875 49.015625 6.21875 
Q 42.328125 -1.421875 30.609375 -1.421875 
Q 18.84375 -1.421875 12.171875 6.21875 
Q 5.515625 13.875 5.515625 27.296875 
Q 5.515625 40.765625 12.171875 48.375 
Q 18.84375 56 30.609375 56 
z
" id="DejaVuSans-111"/>
      <path d="M 52 44.1875 
Q 55.375 50.25 60.0625 53.125 
Q 64.75 56 71.09375 56 
Q 79.640625 56 84.28125 50.015625 
Q 88.921875 44.046875 88.921875 33.015625 
L 88.921875 0 
L 79.890625 0 
L 79.890625 32.71875 
Q 79.890625 40.578125 77.09375 44.375 
Q 74.3125 48.1875 68.609375 48.1875 
Q 61.625 48.1875 57.5625 43.546875 
Q 53.515625 38.921875 53.515625 30.90625 
L 53.515625 0 
L 44.484375 0 
L 44.484375 32.71875 
Q 44.484375 40.625 41.703125 44.40625 
Q 38.921875 48.1875 33.109375 48.1875 
Q 26.21875 48.1875 22.15625 43.53125 
Q 18.109375 38.875 18.109375 30.90625 
L 18.109375 0 
L 9.078125 0 
L 9.078125 54.6875 
L 18.109375 54.6875 
L 18.109375 46.1875 
Q 21.1875 51.21875 25.484375 53.609375 
Q 29.78125 56 35.6875 56 
Q 41.65625 56 45.828125 52.96875 
Q 50 49.953125 52 44.1875 
z
" id="DejaVuSans-109"/>
      <path d="M 18.109375 8.203125 
L 18.109375 -20.796875 
L 9.078125 -20.796875 
L 9.078125 54.6875 
L 18.109375 54.6875 
L 18.109375 46.390625 
Q 20.953125 51.265625 25.265625 53.625 
Q 29.59375 56 35.59375 56 
Q 45.5625 56 51.78125 48.09375 
Q 58.015625 40.1875 58.015625 27.296875 
Q 58.015625 14.40625 51.78125 6.484375 
Q 45.5625 -1.421875 35.59375 -1.421875 
Q 29.59375 -1.421875 25.265625 0.953125 
Q 20.953125 3.328125 18.109375 8.203125 
z
M 48.6875 27.296875 
Q 48.6875 37.203125 44.609375 42.84375 
Q 40.53125 48.484375 33.40625 48.484375 
Q 26.265625 48.484375 22.1875 42.84375 
Q 18.109375 37.203125 18.109375 27.296875 
Q 18.109375 17.390625 22.1875 11.75 
Q 26.265625 6.109375 33.40625 6.109375 
Q 40.53125 6.109375 44.609375 11.75 
Q 48.6875 17.390625 48.6875 27.296875 
z
" id="DejaVuSans-112"/>
      <path d="M 41.109375 46.296875 
Q 39.59375 47.171875 37.8125 47.578125 
Q 36.03125 48 33.890625 48 
Q 26.265625 48 22.1875 43.046875 
Q 18.109375 38.09375 18.109375 28.8125 
L 18.109375 0 
L 9.078125 0 
L 9.078125 54.6875 
L 18.109375 54.6875 
L 18.109375 46.1875 
Q 20.953125 51.171875 25.484375 53.578125 
Q 30.03125 56 36.53125 56 
Q 37.453125 56 38.578125 55.875 
Q 39.703125 55.765625 41.0625 55.515625 
z
" id="DejaVuSans-114"/>
      <path d="M 56.203125 29.59375 
L 56.203125 25.203125 
L 14.890625 25.203125 
Q 15.484375 15.921875 20.484375 11.0625 
Q 25.484375 6.203125 34.421875 6.203125 
Q 39.59375 6.203125 44.453125 7.46875 
Q 49.3125 8.734375 54.109375 11.28125 
L 54.109375 2.78125 
Q 49.265625 0.734375 44.1875 -0.34375 
Q 39.109375 -1.421875 33.890625 -1.421875 
Q 20.796875 -1.421875 13.15625 6.1875 
Q 5.515625 13.8125 5.515625 26.8125 
Q 5.515625 40.234375 12.765625 48.109375 
Q 20.015625 56 32.328125 56 
Q 43.359375 56 49.78125 48.890625 
Q 56.203125 41.796875 56.203125 29.59375 
z
M 47.21875 32.234375 
Q 47.125 39.59375 43.09375 43.984375 
Q 39.0625 48.390625 32.421875 48.390625 
Q 24.90625 48.390625 20.390625 44.140625 
Q 15.875 39.890625 15.1875 32.171875 
z
" id="DejaVuSans-101"/>
      <path d="M 44.28125 53.078125 
L 44.28125 44.578125 
Q 40.484375 46.53125 36.375 47.5 
Q 32.28125 48.484375 27.875 48.484375 
Q 21.1875 48.484375 17.84375 46.4375 
Q 14.5 44.390625 14.5 40.28125 
Q 14.5 37.15625 16.890625 35.375 
Q 19.28125 33.59375 26.515625 31.984375 
L 29.59375 31.296875 
Q 39.15625 29.25 43.1875 25.515625 
Q 47.21875 21.78125 47.21875 15.09375 
Q 47.21875 7.46875 41.1875 3.015625 
Q 35.15625 -1.421875 24.609375 -1.421875 
Q 20.21875 -1.421875 15.453125 -0.5625 
Q 10.6875 0.296875 5.421875 2 
L 5.421875 11.28125 
Q 10.40625 8.6875 15.234375 7.390625 
Q 20.0625 6.109375 24.8125 6.109375 
Q 31.15625 6.109375 34.5625 8.28125 
Q 37.984375 10.453125 37.984375 14.40625 
Q 37.984375 18.0625 35.515625 20.015625 
Q 33.0625 21.96875 24.703125 23.78125 
L 21.578125 24.515625 
Q 13.234375 26.265625 9.515625 29.90625 
Q 5.8125 33.546875 5.8125 39.890625 
Q 5.8125 47.609375 11.28125 51.796875 
Q 16.75 56 26.8125 56 
Q 31.78125 56 36.171875 55.265625 
Q 40.578125 54.546875 44.28125 53.078125 
z
" id="DejaVuSans-115"/>
      <path d="M 45.40625 46.390625 
L 45.40625 75.984375 
L 54.390625 75.984375 
L 54.390625 0 
L 45.40625 0 
L 45.40625 8.203125 
Q 42.578125 3.328125 38.25 0.953125 
Q 33.9375 -1.421875 27.875 -1.421875 
Q 17.96875 -1.421875 11.734375 6.484375 
Q 5.515625 14.40625 5.515625 27.296875 
Q 5.515625 40.1875 11.734375 48.09375 
Q 17.96875 56 27.875 56 
Q 33.9375 56 38.25 53.625 
Q 42.578125 51.265625 45.40625 46.390625 
z
M 14.796875 27.296875 
Q 14.796875 17.390625 18.875 11.75 
Q 22.953125 6.109375 30.078125 6.109375 
Q 37.203125 6.109375 41.296875 11.75 
Q 45.40625 17.390625 45.40625 27.296875 
Q 45.40625 37.203125 41.296875 42.84375 
Q 37.203125 48.484375 30.078125 48.484375 
Q 22.953125 48.484375 18.875 42.84375 
Q 14.796875 37.203125 14.796875 27.296875 
z
" id="DejaVuSans-100"/>
      <path id="DejaVuSans-32"/>
      <path d="M 2.984375 54.6875 
L 12.5 54.6875 
L 29.59375 8.796875 
L 46.6875 54.6875 
L 56.203125 54.6875 
L 35.6875 0 
L 23.484375 0 
z
" id="DejaVuSans-118"/>
      <path d="M 34.28125 27.484375 
Q 23.390625 27.484375 19.1875 25 
Q 14.984375 22.515625 14.984375 16.5 
Q 14.984375 11.71875 18.140625 8.90625 
Q 21.296875 6.109375 26.703125 6.109375 
Q 34.1875 6.109375 38.703125 11.40625 
Q 43.21875 16.703125 43.21875 25.484375 
L 43.21875 27.484375 
z
M 52.203125 31.203125 
L 52.203125 0 
L 43.21875 0 
L 43.21875 8.296875 
Q 40.140625 3.328125 35.546875 0.953125 
Q 30.953125 -1.421875 24.3125 -1.421875 
Q 15.921875 -1.421875 10.953125 3.296875 
Q 6 8.015625 6 15.921875 
Q 6 25.140625 12.171875 29.828125 
Q 18.359375 34.515625 30.609375 34.515625 
L 43.21875 34.515625 
L 43.21875 35.40625 
Q 43.21875 41.609375 39.140625 45 
Q 35.0625 48.390625 27.6875 48.390625 
Q 23 48.390625 18.546875 47.265625 
Q 14.109375 46.140625 10.015625 43.890625 
L 10.015625 52.203125 
Q 14.9375 54.109375 19.578125 55.046875 
Q 24.21875 56 28.609375 56 
Q 40.484375 56 46.34375 49.84375 
Q 52.203125 43.703125 52.203125 31.203125 
z
" id="DejaVuSans-97"/>
      <path d="M 9.421875 75.984375 
L 18.40625 75.984375 
L 18.40625 0 
L 9.421875 0 
z
" id="DejaVuSans-108"/>
      <path d="M 8.5 21.578125 
L 8.5 54.6875 
L 17.484375 54.6875 
L 17.484375 21.921875 
Q 17.484375 14.15625 20.5 10.265625 
Q 23.53125 6.390625 29.59375 6.390625 
Q 36.859375 6.390625 41.078125 11.03125 
Q 45.3125 15.671875 45.3125 23.6875 
L 45.3125 54.6875 
L 54.296875 54.6875 
L 54.296875 0 
L 45.3125 0 
L 45.3125 8.40625 
Q 42.046875 3.421875 37.71875 1 
Q 33.40625 -1.421875 27.6875 -1.421875 
Q 18.265625 -1.421875 13.375 4.4375 
Q 8.5 10.296875 8.5 21.578125 
z
M 31.109375 56 
z
" id="DejaVuSans-117"/>
     </defs>
     <g transform="translate(96.861562 357.832125)scale(0.3 -0.3)">
      <use xlink:href="#DejaVuSans-67"/>
      <use x="69.824219" xlink:href="#DejaVuSans-111"/>
      <use x="131.005859" xlink:href="#DejaVuSans-109"/>
      <use x="228.417969" xlink:href="#DejaVuSans-112"/>
      <use x="291.894531" xlink:href="#DejaVuSans-114"/>
      <use x="332.976562" xlink:href="#DejaVuSans-101"/>
      <use x="394.5" xlink:href="#DejaVuSans-115"/>
      <use x="446.599609" xlink:href="#DejaVuSans-115"/>
      <use x="498.699219" xlink:href="#DejaVuSans-101"/>
      <use x="560.222656" xlink:href="#DejaVuSans-100"/>
      <use x="623.699219" xlink:href="#DejaVuSans-32"/>
      <use x="655.486328" xlink:href="#DejaVuSans-118"/>
      <use x="714.666016" xlink:href="#DejaVuSans-97"/>
      <use x="775.945312" xlink:href="#DejaVuSans-108"/>
      <use x="803.728516" xlink:href="#DejaVuSans-117"/>
      <use x="867.107422" xlink:href="#DejaVuSans-101"/>
     </g>
    </g>
   </g>
   <g id="matplotlib.axis_2">
    <g id="ytick_1">
     <g id="line2d_6">
      <defs>
       <path d="M 0 0 
L -3.5 0 
" id="md5d2a0a4a0" style="stroke:#000000;stroke-width:0.8;"/>
      </defs>
      <g>
       <use style="stroke:#000000;stroke-width:0.8;" x="57.6" xlink:href="#md5d2a0a4a0" y="307.584"/>
      </g>
     </g>
     <g id="text_7">
      <!-- 0.0 -->
      <defs>
       <path d="M 10.6875 12.40625 
L 21 12.40625 
L 21 0 
L 10.6875 0 
z
" id="DejaVuSans-46"/>
      </defs>
      <g transform="translate(23.564687 314.042672)scale(0.17 -0.17)">
       <use xlink:href="#DejaVuSans-48"/>
       <use x="63.623047" xlink:href="#DejaVuSans-46"/>
       <use x="95.410156" xlink:href="#DejaVuSans-48"/>
      </g>
     </g>
    </g>
    <g id="ytick_2">
     <g id="line2d_7">
      <g>
       <use style="stroke:#000000;stroke-width:0.8;" x="57.6" xlink:href="#md5d2a0a4a0" y="261.154643"/>
      </g>
     </g>
     <g id="text_8">
      <!-- 0.5 -->
      <defs>
       <path d="M 10.796875 72.90625 
L 49.515625 72.90625 
L 49.515625 64.59375 
L 19.828125 64.59375 
L 19.828125 46.734375 
Q 21.96875 47.46875 24.109375 47.828125 
Q 26.265625 48.1875 28.421875 48.1875 
Q 40.625 48.1875 47.75 41.5 
Q 54.890625 34.8125 54.890625 23.390625 
Q 54.890625 11.625 47.5625 5.09375 
Q 40.234375 -1.421875 26.90625 -1.421875 
Q 22.3125 -1.421875 17.546875 -0.640625 
Q 12.796875 0.140625 7.71875 1.703125 
L 7.71875 11.625 
Q 12.109375 9.234375 16.796875 8.0625 
Q 21.484375 6.890625 26.703125 6.890625 
Q 35.15625 6.890625 40.078125 11.328125 
Q 45.015625 15.765625 45.015625 23.390625 
Q 45.015625 31 40.078125 35.4375 
Q 35.15625 39.890625 26.703125 39.890625 
Q 22.75 39.890625 18.8125 39.015625 
Q 14.890625 38.140625 10.796875 36.28125 
z
" id="DejaVuSans-53"/>
      </defs>
      <g transform="translate(23.564687 267.613314)scale(0.17 -0.17)">
       <use xlink:href="#DejaVuSans-48"/>
       <use x="63.623047" xlink:href="#DejaVuSans-46"/>
       <use x="95.410156" xlink:href="#DejaVuSans-53"/>
      </g>
     </g>
    </g>
    <g id="ytick_3">
     <g id="line2d_8">
      <g>
       <use style="stroke:#000000;stroke-width:0.8;" x="57.6" xlink:href="#md5d2a0a4a0" y="214.725285"/>
      </g>
     </g>
     <g id="text_9">
      <!-- 1.0 -->
      <g transform="translate(23.564687 221.183957)scale(0.17 -0.17)">
       <use xlink:href="#DejaVuSans-49"/>
       <use x="63.623047" xlink:href="#DejaVuSans-46"/>
       <use x="95.410156" xlink:href="#DejaVuSans-48"/>
      </g>
     </g>
    </g>
    <g id="ytick_4">
     <g id="line2d_9">
      <g>
       <use style="stroke:#000000;stroke-width:0.8;" x="57.6" xlink:href="#md5d2a0a4a0" y="168.295928"/>
      </g>
     </g>
     <g id="text_10">
      <!-- 1.5 -->
      <g transform="translate(23.564687 174.7546)scale(0.17 -0.17)">
       <use xlink:href="#DejaVuSans-49"/>
       <use x="63.623047" xlink:href="#DejaVuSans-46"/>
       <use x="95.410156" xlink:href="#DejaVuSans-53"/>
      </g>
     </g>
    </g>
    <g id="ytick_5">
     <g id="line2d_10">
      <g>
       <use style="stroke:#000000;stroke-width:0.8;" x="57.6" xlink:href="#md5d2a0a4a0" y="121.86657"/>
      </g>
     </g>
     <g id="text_11">
      <!-- 2.0 -->
      <g transform="translate(23.564687 128.325242)scale(0.17 -0.17)">
       <use xlink:href="#DejaVuSans-50"/>
       <use x="63.623047" xlink:href="#DejaVuSans-46"/>
       <use x="95.410156" xlink:href="#DejaVuSans-48"/>
      </g>
     </g>
    </g>
    <g id="ytick_6">
     <g id="line2d_11">
      <g>
       <use style="stroke:#000000;stroke-width:0.8;" x="57.6" xlink:href="#md5d2a0a4a0" y="75.437213"/>
      </g>
     </g>
     <g id="text_12">
      <!-- 2.5 -->
      <g transform="translate(23.564687 81.895885)scale(0.17 -0.17)">
       <use xlink:href="#DejaVuSans-50"/>
       <use x="63.623047" xlink:href="#DejaVuSans-46"/>
       <use x="95.410156" xlink:href="#DejaVuSans-53"/>
      </g>
     </g>
    </g>
    <g id="text_13">
     <!-- Density -->
     <defs>
      <path d="M 19.671875 64.796875 
L 19.671875 8.109375 
L 31.59375 8.109375 
Q 46.6875 8.109375 53.6875 14.9375 
Q 60.6875 21.78125 60.6875 36.53125 
Q 60.6875 51.171875 53.6875 57.984375 
Q 46.6875 64.796875 31.59375 64.796875 
z
M 9.8125 72.90625 
L 30.078125 72.90625 
Q 51.265625 72.90625 61.171875 64.09375 
Q 71.09375 55.28125 71.09375 36.53125 
Q 71.09375 17.671875 61.125 8.828125 
Q 51.171875 0 30.078125 0 
L 9.8125 0 
z
" id="DejaVuSans-68"/>
      <path d="M 54.890625 33.015625 
L 54.890625 0 
L 45.90625 0 
L 45.90625 32.71875 
Q 45.90625 40.484375 42.875 44.328125 
Q 39.84375 48.1875 33.796875 48.1875 
Q 26.515625 48.1875 22.3125 43.546875 
Q 18.109375 38.921875 18.109375 30.90625 
L 18.109375 0 
L 9.078125 0 
L 9.078125 54.6875 
L 18.109375 54.6875 
L 18.109375 46.1875 
Q 21.34375 51.125 25.703125 53.5625 
Q 30.078125 56 35.796875 56 
Q 45.21875 56 50.046875 50.171875 
Q 54.890625 44.34375 54.890625 33.015625 
z
" id="DejaVuSans-110"/>
      <path d="M 9.421875 54.6875 
L 18.40625 54.6875 
L 18.40625 0 
L 9.421875 0 
z
M 9.421875 75.984375 
L 18.40625 75.984375 
L 18.40625 64.59375 
L 9.421875 64.59375 
z
" id="DejaVuSans-105"/>
      <path d="M 18.3125 70.21875 
L 18.3125 54.6875 
L 36.8125 54.6875 
L 36.8125 47.703125 
L 18.3125 47.703125 
L 18.3125 18.015625 
Q 18.3125 11.328125 20.140625 9.421875 
Q 21.96875 7.515625 27.59375 7.515625 
L 36.8125 7.515625 
L 36.8125 0 
L 27.59375 0 
Q 17.1875 0 13.234375 3.875 
Q 9.28125 7.765625 9.28125 18.015625 
L 9.28125 47.703125 
L 2.6875 47.703125 
L 2.6875 54.6875 
L 9.28125 54.6875 
L 9.28125 70.21875 
z
" id="DejaVuSans-116"/>
      <path d="M 32.171875 -5.078125 
Q 28.375 -14.84375 24.75 -17.8125 
Q 21.140625 -20.796875 15.09375 -20.796875 
L 7.90625 -20.796875 
L 7.90625 -13.28125 
L 13.1875 -13.28125 
Q 16.890625 -13.28125 18.9375 -11.515625 
Q 21 -9.765625 23.484375 -3.21875 
L 25.09375 0.875 
L 2.984375 54.6875 
L 12.5 54.6875 
L 29.59375 11.921875 
L 46.6875 54.6875 
L 56.203125 54.6875 
z
" id="DejaVuSans-121"/>
     </defs>
     <g transform="translate(13.325625 231.553781)rotate(-90)scale(0.3 -0.3)">
      <use xlink:href="#DejaVuSans-68"/>
      <use x="77.001953" xlink:href="#DejaVuSans-101"/>
      <use x="138.525391" xlink:href="#DejaVuSans-110"/>
      <use x="201.904297" xlink:href="#DejaVuSans-115"/>
      <use x="254.003906" xlink:href="#DejaVuSans-105"/>
      <use x="281.787109" xlink:href="#DejaVuSans-116"/>
      <use x="320.996094" xlink:href="#DejaVuSans-121"/>
     </g>
    </g>
   </g>
   <g id="line2d_12">
    <path clip-path="url(#p3eabda9284)" d="M 73.832727 307.584 
L 156.133328 307.472896 
L 160.57691 307.176947 
L 164.916216 306.530944 
L 166.189573 306.372458 
L 167.186114 306.030721 
L 173.077744 302.923777 
L 174.112447 301.915418 
L 179.760048 296.548273 
L 180.416884 296.126459 
L 181.28066 295.221422 
L 182.038546 294.112603 
L 182.814709 293.099434 
L 184.053665 292.023174 
L 186.08706 290.240069 
L 190.016246 286.285376 
L 190.899373 285.358846 
L 191.760999 284.538405 
L 192.913417 283.596538 
L 195.729423 280.482917 
L 196.803903 280.226368 
L 197.92837 279.598723 
L 199.83115 277.905669 
L 200.315445 277.944743 
L 200.825003 277.929357 
L 201.277585 277.642185 
L 201.91937 277.287018 
L 202.887423 276.907623 
L 203.439981 276.352661 
L 204.01619 275.436669 
L 204.938017 273.465235 
L 205.589478 271.685609 
L 206.016797 269.766611 
L 206.512917 266.385878 
L 207.207378 259.935198 
L 209.645516 235.818547 
L 210.119061 233.739367 
L 210.435116 233.160869 
L 210.636144 233.151132 
L 210.841472 233.409728 
L 211.142477 234.20812 
L 211.617635 236.196897 
L 212.642663 240.571949 
L 212.987743 241.137926 
L 213.23876 241.19423 
L 213.491926 241.000577 
L 213.858507 240.393897 
L 214.414828 238.998352 
L 214.926536 237.118803 
L 215.459745 234.210188 
L 216.153131 229.075969 
L 217.25986 218.870846 
L 218.397766 206.674641 
L 219.235741 195.13523 
L 220.968131 167.414462 
L 221.914683 151.711309 
L 222.251701 149.32103 
L 222.438216 149.027002 
L 222.450042 149.031666 
L 222.567218 149.216087 
L 222.767709 150.046617 
L 223.11924 152.621576 
L 223.907227 160.463378 
L 225.571353 176.778591 
L 225.997597 178.830933 
L 226.319565 179.470257 
L 226.567894 179.55533 
L 226.835573 179.387393 
L 227.325243 178.755297 
L 228.41101 177.36431 
L 228.945831 177.040776 
L 229.412388 177.018192 
L 229.808532 176.941824 
L 230.045036 176.629916 
L 230.314865 175.846323 
L 230.658333 174.070197 
L 231.093177 170.529871 
L 231.575859 164.655468 
L 232.09133 155.437541 
L 232.69979 140.189005 
L 233.380813 117.306594 
L 234.347253 75.677312 
L 234.906262 56.477447 
L 235.123953 54.144 
L 235.132553 54.14832 
L 235.185228 54.358863 
L 235.298105 55.956461 
L 235.482471 62.323749 
L 235.751225 80.570707 
L 236.194132 128.801778 
L 236.887518 199.548627 
L 237.258398 217.0564 
L 237.575528 223.120784 
L 237.876533 225.221803 
L 238.297402 226.503257 
L 240.652764 233.278969 
L 241.378938 236.620798 
L 243.051127 244.884403 
L 244.465311 249.423813 
L 245.882183 254.810322 
L 247.066852 258.996443 
L 247.564585 259.985564 
L 248.923406 262.106297 
L 250.079587 265.344003 
L 250.709547 267.647908 
L 251.512584 270.494714 
L 251.877552 271.049692 
L 252.173719 271.143917 
L 252.590826 270.994557 
L 252.990195 270.946953 
L 253.284212 271.155444 
L 253.690031 271.765946 
L 254.845674 273.616424 
L 255.830389 274.905308 
L 256.898956 276.48153 
L 258.638333 278.074067 
L 259.239268 278.62379 
L 259.749363 279.46516 
L 260.499725 280.65069 
L 260.909306 280.880326 
L 262.167076 281.337859 
L 262.747585 281.933135 
L 263.491497 283.063125 
L 264.195095 283.981223 
L 265.524353 285.365714 
L 266.172051 286.098089 
L 266.58862 286.242993 
L 267.259431 286.178778 
L 267.793714 286.244523 
L 268.20652 286.529851 
L 268.692428 287.170607 
L 270.23669 289.40969 
L 271.976067 291.120807 
L 273.075272 291.592946 
L 273.643418 291.931307 
L 274.107288 292.506377 
L 275.028577 293.701176 
L 275.493522 293.870085 
L 276.211096 294.125548 
L 276.891581 294.687244 
L 277.753745 295.320314 
L 279.078166 296.098071 
L 281.280338 298.189883 
L 282.815462 299.47458 
L 283.257294 299.463497 
L 283.911441 299.450264 
L 284.369399 299.720879 
L 285.327776 300.318267 
L 287.400408 301.164756 
L 289.010246 302.517946 
L 289.715995 302.69466 
L 291.226931 302.952867 
L 292.578227 303.520293 
L 293.668294 303.928108 
L 295.432934 304.500108 
L 296.131158 304.552099 
L 296.844431 304.670847 
L 300.090982 305.72045 
L 300.831131 305.703963 
L 301.612669 305.748575 
L 303.100492 305.972403 
L 304.367399 306.008429 
L 308.191772 306.610497 
L 317.280501 307.220108 
L 318.372181 307.197599 
L 322.492183 307.458043 
L 349.282677 307.584 
L 398.487273 307.584 
L 398.487273 307.584 
" style="fill:none;stroke:#ff7f0e;stroke-linecap:square;stroke-width:1.5;"/>
   </g>
   <g id="patch_103">
    <path d="M 57.6 307.584 
L 57.6 41.472 
" style="fill:none;stroke:#000000;stroke-linecap:square;stroke-linejoin:miter;stroke-width:0.8;"/>
   </g>
   <g id="patch_104">
    <path d="M 414.72 307.584 
L 414.72 41.472 
" style="fill:none;stroke:#000000;stroke-linecap:square;stroke-linejoin:miter;stroke-width:0.8;"/>
   </g>
   <g id="patch_105">
    <path d="M 57.6 307.584 
L 414.72 307.584 
" style="fill:none;stroke:#000000;stroke-linecap:square;stroke-linejoin:miter;stroke-width:0.8;"/>
   </g>
   <g id="patch_106">
    <path d="M 57.6 41.472 
L 414.72 41.472 
" style="fill:none;stroke:#000000;stroke-linecap:square;stroke-linejoin:miter;stroke-width:0.8;"/>
   </g>
  </g>
 </g>
 <defs>
  <clipPath id="p3eabda9284">
   <rect height="266.112" width="357.12" x="57.6" y="41.472"/>
  </clipPath>
 </defs>
</svg>
