<?xml version="1.0" encoding="utf-8" standalone="no"?>
<!DOCTYPE svg PUBLIC "-//W3C//DTD SVG 1.1//EN"
  "http://www.w3.org/Graphics/SVG/1.1/DTD/svg11.dtd">
<!-- Created with matplotlib (https://matplotlib.org/) -->
<svg height="345.6pt" version="1.1" viewBox="0 0 460.8 345.6" width="460.8pt" xmlns="http://www.w3.org/2000/svg" xmlns:xlink="http://www.w3.org/1999/xlink">
 <defs>
  <style type="text/css">
*{stroke-linecap:butt;stroke-linejoin:round;}
  </style>
 </defs>
 <g id="figure_1">
  <g id="patch_1">
   <path d="M 0 345.6 
L 460.8 345.6 
L 460.8 0 
L 0 0 
z
" style="fill:#ffffff;"/>
  </g>
  <g id="axes_1">
   <g id="patch_2">
    <path d="M 57.6 307.584 
L 414.72 307.584 
L 414.72 41.472 
L 57.6 41.472 
z
" style="fill:#ffffff;"/>
   </g>
   <g id="patch_3">
    <path clip-path="url(#p98c68699e6)" d="M 179.084913 307.584 
L 180.652155 307.584 
L 180.652155 304.375899 
L 179.084913 304.375899 
z
" style="fill:#1f77b4;"/>
   </g>
   <g id="patch_4">
    <path clip-path="url(#p98c68699e6)" d="M 180.652155 307.584 
L 182.219396 307.584 
L 182.219396 304.375899 
L 180.652155 304.375899 
z
" style="fill:#1f77b4;"/>
   </g>
   <g id="patch_5">
    <path clip-path="url(#p98c68699e6)" d="M 182.219396 307.584 
L 183.786638 307.584 
L 183.786638 294.751595 
L 182.219396 294.751595 
z
" style="fill:#1f77b4;"/>
   </g>
   <g id="patch_6">
    <path clip-path="url(#p98c68699e6)" d="M 183.786638 307.584 
L 185.35388 307.584 
L 185.35388 304.375899 
L 183.786638 304.375899 
z
" style="fill:#1f77b4;"/>
   </g>
   <g id="patch_7">
    <path clip-path="url(#p98c68699e6)" d="M 185.35388 307.584 
L 186.921121 307.584 
L 186.921121 297.959696 
L 185.35388 297.959696 
z
" style="fill:#1f77b4;"/>
   </g>
   <g id="patch_8">
    <path clip-path="url(#p98c68699e6)" d="M 186.921121 307.584 
L 188.488363 307.584 
L 188.488363 285.127291 
L 186.921121 285.127291 
z
" style="fill:#1f77b4;"/>
   </g>
   <g id="patch_9">
    <path clip-path="url(#p98c68699e6)" d="M 188.488363 307.584 
L 190.055605 307.584 
L 190.055605 294.751595 
L 188.488363 294.751595 
z
" style="fill:#1f77b4;"/>
   </g>
   <g id="patch_10">
    <path clip-path="url(#p98c68699e6)" d="M 190.055605 307.584 
L 191.622846 307.584 
L 191.622846 288.335392 
L 190.055605 288.335392 
z
" style="fill:#1f77b4;"/>
   </g>
   <g id="patch_11">
    <path clip-path="url(#p98c68699e6)" d="M 191.622846 307.584 
L 193.190088 307.584 
L 193.190088 294.751595 
L 191.622846 294.751595 
z
" style="fill:#1f77b4;"/>
   </g>
   <g id="patch_12">
    <path clip-path="url(#p98c68699e6)" d="M 193.190088 307.584 
L 194.757329 307.584 
L 194.757329 288.335392 
L 193.190088 288.335392 
z
" style="fill:#1f77b4;"/>
   </g>
   <g id="patch_13">
    <path clip-path="url(#p98c68699e6)" d="M 194.757329 307.584 
L 196.324571 307.584 
L 196.324571 249.838177 
L 194.757329 249.838177 
z
" style="fill:#1f77b4;"/>
   </g>
   <g id="patch_14">
    <path clip-path="url(#p98c68699e6)" d="M 196.324571 307.584 
L 197.891813 307.584 
L 197.891813 253.046278 
L 196.324571 253.046278 
z
" style="fill:#1f77b4;"/>
   </g>
   <g id="patch_15">
    <path clip-path="url(#p98c68699e6)" d="M 197.891813 307.584 
L 199.459054 307.584 
L 199.459054 256.25438 
L 197.891813 256.25438 
z
" style="fill:#1f77b4;"/>
   </g>
   <g id="patch_16">
    <path clip-path="url(#p98c68699e6)" d="M 199.459054 307.584 
L 201.026296 307.584 
L 201.026296 243.421975 
L 199.459054 243.421975 
z
" style="fill:#1f77b4;"/>
   </g>
   <g id="patch_17">
    <path clip-path="url(#p98c68699e6)" d="M 201.026296 307.584 
L 202.593537 307.584 
L 202.593537 253.046278 
L 201.026296 253.046278 
z
" style="fill:#1f77b4;"/>
   </g>
   <g id="patch_18">
    <path clip-path="url(#p98c68699e6)" d="M 202.593537 307.584 
L 204.160779 307.584 
L 204.160779 256.25438 
L 202.593537 256.25438 
z
" style="fill:#1f77b4;"/>
   </g>
   <g id="patch_19">
    <path clip-path="url(#p98c68699e6)" d="M 204.160779 307.584 
L 205.728021 307.584 
L 205.728021 240.213873 
L 204.160779 240.213873 
z
" style="fill:#1f77b4;"/>
   </g>
   <g id="patch_20">
    <path clip-path="url(#p98c68699e6)" d="M 205.728021 307.584 
L 207.295262 307.584 
L 207.295262 243.421975 
L 205.728021 243.421975 
z
" style="fill:#1f77b4;"/>
   </g>
   <g id="patch_21">
    <path clip-path="url(#p98c68699e6)" d="M 207.295262 307.584 
L 208.862504 307.584 
L 208.862504 240.213873 
L 207.295262 240.213873 
z
" style="fill:#1f77b4;"/>
   </g>
   <g id="patch_22">
    <path clip-path="url(#p98c68699e6)" d="M 208.862504 307.584 
L 210.429746 307.584 
L 210.429746 233.797671 
L 208.862504 233.797671 
z
" style="fill:#1f77b4;"/>
   </g>
   <g id="patch_23">
    <path clip-path="url(#p98c68699e6)" d="M 210.429746 307.584 
L 211.996987 307.584 
L 211.996987 246.630076 
L 210.429746 246.630076 
z
" style="fill:#1f77b4;"/>
   </g>
   <g id="patch_24">
    <path clip-path="url(#p98c68699e6)" d="M 211.996987 307.584 
L 213.564229 307.584 
L 213.564229 227.381468 
L 211.996987 227.381468 
z
" style="fill:#1f77b4;"/>
   </g>
   <g id="patch_25">
    <path clip-path="url(#p98c68699e6)" d="M 213.564229 307.584 
L 215.13147 307.584 
L 215.13147 204.924759 
L 213.564229 204.924759 
z
" style="fill:#1f77b4;"/>
   </g>
   <g id="patch_26">
    <path clip-path="url(#p98c68699e6)" d="M 215.13147 307.584 
L 216.698712 307.584 
L 216.698712 227.381468 
L 215.13147 227.381468 
z
" style="fill:#1f77b4;"/>
   </g>
   <g id="patch_27">
    <path clip-path="url(#p98c68699e6)" d="M 216.698712 307.584 
L 218.265954 307.584 
L 218.265954 246.630076 
L 216.698712 246.630076 
z
" style="fill:#1f77b4;"/>
   </g>
   <g id="patch_28">
    <path clip-path="url(#p98c68699e6)" d="M 218.265954 307.584 
L 219.833195 307.584 
L 219.833195 220.965266 
L 218.265954 220.965266 
z
" style="fill:#1f77b4;"/>
   </g>
   <g id="patch_29">
    <path clip-path="url(#p98c68699e6)" d="M 219.833195 307.584 
L 221.400437 307.584 
L 221.400437 195.300456 
L 219.833195 195.300456 
z
" style="fill:#1f77b4;"/>
   </g>
   <g id="patch_30">
    <path clip-path="url(#p98c68699e6)" d="M 221.400437 307.584 
L 222.967678 307.584 
L 222.967678 220.965266 
L 221.400437 220.965266 
z
" style="fill:#1f77b4;"/>
   </g>
   <g id="patch_31">
    <path clip-path="url(#p98c68699e6)" d="M 222.967678 307.584 
L 224.53492 307.584 
L 224.53492 169.635646 
L 222.967678 169.635646 
z
" style="fill:#1f77b4;"/>
   </g>
   <g id="patch_32">
    <path clip-path="url(#p98c68699e6)" d="M 224.53492 307.584 
L 226.102162 307.584 
L 226.102162 156.803241 
L 224.53492 156.803241 
z
" style="fill:#1f77b4;"/>
   </g>
   <g id="patch_33">
    <path clip-path="url(#p98c68699e6)" d="M 226.102162 307.584 
L 227.669403 307.584 
L 227.669403 150.387038 
L 226.102162 150.387038 
z
" style="fill:#1f77b4;"/>
   </g>
   <g id="patch_34">
    <path clip-path="url(#p98c68699e6)" d="M 227.669403 307.584 
L 229.236645 307.584 
L 229.236645 208.132861 
L 227.669403 208.132861 
z
" style="fill:#1f77b4;"/>
   </g>
   <g id="patch_35">
    <path clip-path="url(#p98c68699e6)" d="M 229.236645 307.584 
L 230.803887 307.584 
L 230.803887 214.549063 
L 229.236645 214.549063 
z
" style="fill:#1f77b4;"/>
   </g>
   <g id="patch_36">
    <path clip-path="url(#p98c68699e6)" d="M 230.803887 307.584 
L 232.371128 307.584 
L 232.371128 192.092354 
L 230.803887 192.092354 
z
" style="fill:#1f77b4;"/>
   </g>
   <g id="patch_37">
    <path clip-path="url(#p98c68699e6)" d="M 232.371128 307.584 
L 233.93837 307.584 
L 233.93837 227.381468 
L 232.371128 227.381468 
z
" style="fill:#1f77b4;"/>
   </g>
   <g id="patch_38">
    <path clip-path="url(#p98c68699e6)" d="M 233.93837 307.584 
L 235.505611 307.584 
L 235.505611 233.797671 
L 233.93837 233.797671 
z
" style="fill:#1f77b4;"/>
   </g>
   <g id="patch_39">
    <path clip-path="url(#p98c68699e6)" d="M 235.505611 307.584 
L 237.072853 307.584 
L 237.072853 269.086785 
L 235.505611 269.086785 
z
" style="fill:#1f77b4;"/>
   </g>
   <g id="patch_40">
    <path clip-path="url(#p98c68699e6)" d="M 237.072853 307.584 
L 238.640095 307.584 
L 238.640095 291.543494 
L 237.072853 291.543494 
z
" style="fill:#1f77b4;"/>
   </g>
   <g id="patch_41">
    <path clip-path="url(#p98c68699e6)" d="M 238.640095 307.584 
L 240.207336 307.584 
L 240.207336 291.543494 
L 238.640095 291.543494 
z
" style="fill:#1f77b4;"/>
   </g>
   <g id="patch_42">
    <path clip-path="url(#p98c68699e6)" d="M 240.207336 307.584 
L 241.774578 307.584 
L 241.774578 272.294886 
L 240.207336 272.294886 
z
" style="fill:#1f77b4;"/>
   </g>
   <g id="patch_43">
    <path clip-path="url(#p98c68699e6)" d="M 241.774578 307.584 
L 243.34182 307.584 
L 243.34182 294.751595 
L 241.774578 294.751595 
z
" style="fill:#1f77b4;"/>
   </g>
   <g id="patch_44">
    <path clip-path="url(#p98c68699e6)" d="M 243.34182 307.584 
L 244.909061 307.584 
L 244.909061 288.335392 
L 243.34182 288.335392 
z
" style="fill:#1f77b4;"/>
   </g>
   <g id="patch_45">
    <path clip-path="url(#p98c68699e6)" d="M 244.909061 307.584 
L 246.476303 307.584 
L 246.476303 288.335392 
L 244.909061 288.335392 
z
" style="fill:#1f77b4;"/>
   </g>
   <g id="patch_46">
    <path clip-path="url(#p98c68699e6)" d="M 246.476303 307.584 
L 248.043544 307.584 
L 248.043544 275.502987 
L 246.476303 275.502987 
z
" style="fill:#1f77b4;"/>
   </g>
   <g id="patch_47">
    <path clip-path="url(#p98c68699e6)" d="M 248.043544 307.584 
L 249.610786 307.584 
L 249.610786 291.543494 
L 248.043544 291.543494 
z
" style="fill:#1f77b4;"/>
   </g>
   <g id="patch_48">
    <path clip-path="url(#p98c68699e6)" d="M 249.610786 307.584 
L 251.178028 307.584 
L 251.178028 278.711089 
L 249.610786 278.711089 
z
" style="fill:#1f77b4;"/>
   </g>
   <g id="patch_49">
    <path clip-path="url(#p98c68699e6)" d="M 251.178028 307.584 
L 252.745269 307.584 
L 252.745269 269.086785 
L 251.178028 269.086785 
z
" style="fill:#1f77b4;"/>
   </g>
   <g id="patch_50">
    <path clip-path="url(#p98c68699e6)" d="M 252.745269 307.584 
L 254.312511 307.584 
L 254.312511 256.25438 
L 252.745269 256.25438 
z
" style="fill:#1f77b4;"/>
   </g>
   <g id="patch_51">
    <path clip-path="url(#p98c68699e6)" d="M 254.312511 307.584 
L 255.879752 307.584 
L 255.879752 265.878684 
L 254.312511 265.878684 
z
" style="fill:#1f77b4;"/>
   </g>
   <g id="patch_52">
    <path clip-path="url(#p98c68699e6)" d="M 255.879752 307.584 
L 257.446994 307.584 
L 257.446994 240.213873 
L 255.879752 240.213873 
z
" style="fill:#1f77b4;"/>
   </g>
   <g id="patch_53">
    <path clip-path="url(#p98c68699e6)" d="M 257.446994 307.584 
L 259.014236 307.584 
L 259.014236 237.005772 
L 257.446994 237.005772 
z
" style="fill:#1f77b4;"/>
   </g>
   <g id="patch_54">
    <path clip-path="url(#p98c68699e6)" d="M 259.014236 307.584 
L 260.581477 307.584 
L 260.581477 224.173367 
L 259.014236 224.173367 
z
" style="fill:#1f77b4;"/>
   </g>
   <g id="patch_55">
    <path clip-path="url(#p98c68699e6)" d="M 260.581477 307.584 
L 262.148719 307.584 
L 262.148719 240.213873 
L 260.581477 240.213873 
z
" style="fill:#1f77b4;"/>
   </g>
   <g id="patch_56">
    <path clip-path="url(#p98c68699e6)" d="M 262.148719 307.584 
L 263.715961 307.584 
L 263.715961 176.051848 
L 262.148719 176.051848 
z
" style="fill:#1f77b4;"/>
   </g>
   <g id="patch_57">
    <path clip-path="url(#p98c68699e6)" d="M 263.715961 307.584 
L 265.283202 307.584 
L 265.283202 182.468051 
L 263.715961 182.468051 
z
" style="fill:#1f77b4;"/>
   </g>
   <g id="patch_58">
    <path clip-path="url(#p98c68699e6)" d="M 265.283202 307.584 
L 266.850444 307.584 
L 266.850444 172.843747 
L 265.283202 172.843747 
z
" style="fill:#1f77b4;"/>
   </g>
   <g id="patch_59">
    <path clip-path="url(#p98c68699e6)" d="M 266.850444 307.584 
L 268.417685 307.584 
L 268.417685 179.259949 
L 266.850444 179.259949 
z
" style="fill:#1f77b4;"/>
   </g>
   <g id="patch_60">
    <path clip-path="url(#p98c68699e6)" d="M 268.417685 307.584 
L 269.984927 307.584 
L 269.984927 108.681722 
L 268.417685 108.681722 
z
" style="fill:#1f77b4;"/>
   </g>
   <g id="patch_61">
    <path clip-path="url(#p98c68699e6)" d="M 269.984927 307.584 
L 271.552169 307.584 
L 271.552169 150.387038 
L 269.984927 150.387038 
z
" style="fill:#1f77b4;"/>
   </g>
   <g id="patch_62">
    <path clip-path="url(#p98c68699e6)" d="M 271.552169 307.584 
L 273.11941 307.584 
L 273.11941 92.641215 
L 271.552169 92.641215 
z
" style="fill:#1f77b4;"/>
   </g>
   <g id="patch_63">
    <path clip-path="url(#p98c68699e6)" d="M 273.11941 307.584 
L 274.686652 307.584 
L 274.686652 54.144 
L 273.11941 54.144 
z
" style="fill:#1f77b4;"/>
   </g>
   <g id="patch_64">
    <path clip-path="url(#p98c68699e6)" d="M 274.686652 307.584 
L 276.253893 307.584 
L 276.253893 121.514127 
L 274.686652 121.514127 
z
" style="fill:#1f77b4;"/>
   </g>
   <g id="patch_65">
    <path clip-path="url(#p98c68699e6)" d="M 276.253893 307.584 
L 277.821135 307.584 
L 277.821135 102.265519 
L 276.253893 102.265519 
z
" style="fill:#1f77b4;"/>
   </g>
   <g id="patch_66">
    <path clip-path="url(#p98c68699e6)" d="M 277.821135 307.584 
L 279.388377 307.584 
L 279.388377 127.930329 
L 277.821135 127.930329 
z
" style="fill:#1f77b4;"/>
   </g>
   <g id="patch_67">
    <path clip-path="url(#p98c68699e6)" d="M 279.388377 307.584 
L 280.955618 307.584 
L 280.955618 105.47362 
L 279.388377 105.47362 
z
" style="fill:#1f77b4;"/>
   </g>
   <g id="patch_68">
    <path clip-path="url(#p98c68699e6)" d="M 280.955618 307.584 
L 282.52286 307.584 
L 282.52286 153.595139 
L 280.955618 153.595139 
z
" style="fill:#1f77b4;"/>
   </g>
   <g id="patch_69">
    <path clip-path="url(#p98c68699e6)" d="M 282.52286 307.584 
L 284.090102 307.584 
L 284.090102 166.427544 
L 282.52286 166.427544 
z
" style="fill:#1f77b4;"/>
   </g>
   <g id="patch_70">
    <path clip-path="url(#p98c68699e6)" d="M 284.090102 307.584 
L 285.657343 307.584 
L 285.657343 211.340962 
L 284.090102 211.340962 
z
" style="fill:#1f77b4;"/>
   </g>
   <g id="patch_71">
    <path clip-path="url(#p98c68699e6)" d="M 285.657343 307.584 
L 287.224585 307.584 
L 287.224585 224.173367 
L 285.657343 224.173367 
z
" style="fill:#1f77b4;"/>
   </g>
   <g id="patch_72">
    <path clip-path="url(#p98c68699e6)" d="M 287.224585 307.584 
L 288.791826 307.584 
L 288.791826 224.173367 
L 287.224585 224.173367 
z
" style="fill:#1f77b4;"/>
   </g>
   <g id="patch_73">
    <path clip-path="url(#p98c68699e6)" d="M 288.791826 307.584 
L 290.359068 307.584 
L 290.359068 240.213873 
L 288.791826 240.213873 
z
" style="fill:#1f77b4;"/>
   </g>
   <g id="patch_74">
    <path clip-path="url(#p98c68699e6)" d="M 290.359068 307.584 
L 291.92631 307.584 
L 291.92631 217.757165 
L 290.359068 217.757165 
z
" style="fill:#1f77b4;"/>
   </g>
   <g id="patch_75">
    <path clip-path="url(#p98c68699e6)" d="M 291.92631 307.584 
L 293.493551 307.584 
L 293.493551 243.421975 
L 291.92631 243.421975 
z
" style="fill:#1f77b4;"/>
   </g>
   <g id="patch_76">
    <path clip-path="url(#p98c68699e6)" d="M 293.493551 307.584 
L 295.060793 307.584 
L 295.060793 233.797671 
L 293.493551 233.797671 
z
" style="fill:#1f77b4;"/>
   </g>
   <g id="patch_77">
    <path clip-path="url(#p98c68699e6)" d="M 295.060793 307.584 
L 296.628034 307.584 
L 296.628034 227.381468 
L 295.060793 227.381468 
z
" style="fill:#1f77b4;"/>
   </g>
   <g id="patch_78">
    <path clip-path="url(#p98c68699e6)" d="M 296.628034 307.584 
L 298.195276 307.584 
L 298.195276 240.213873 
L 296.628034 240.213873 
z
" style="fill:#1f77b4;"/>
   </g>
   <g id="patch_79">
    <path clip-path="url(#p98c68699e6)" d="M 298.195276 307.584 
L 299.762518 307.584 
L 299.762518 233.797671 
L 298.195276 233.797671 
z
" style="fill:#1f77b4;"/>
   </g>
   <g id="patch_80">
    <path clip-path="url(#p98c68699e6)" d="M 299.762518 307.584 
L 301.329759 307.584 
L 301.329759 262.670582 
L 299.762518 262.670582 
z
" style="fill:#1f77b4;"/>
   </g>
   <g id="patch_81">
    <path clip-path="url(#p98c68699e6)" d="M 301.329759 307.584 
L 302.897001 307.584 
L 302.897001 253.046278 
L 301.329759 253.046278 
z
" style="fill:#1f77b4;"/>
   </g>
   <g id="patch_82">
    <path clip-path="url(#p98c68699e6)" d="M 302.897001 307.584 
L 304.464243 307.584 
L 304.464243 262.670582 
L 302.897001 262.670582 
z
" style="fill:#1f77b4;"/>
   </g>
   <g id="patch_83">
    <path clip-path="url(#p98c68699e6)" d="M 304.464243 307.584 
L 306.031484 307.584 
L 306.031484 288.335392 
L 304.464243 288.335392 
z
" style="fill:#1f77b4;"/>
   </g>
   <g id="patch_84">
    <path clip-path="url(#p98c68699e6)" d="M 306.031484 307.584 
L 307.598726 307.584 
L 307.598726 291.543494 
L 306.031484 291.543494 
z
" style="fill:#1f77b4;"/>
   </g>
   <g id="patch_85">
    <path clip-path="url(#p98c68699e6)" d="M 307.598726 307.584 
L 309.165967 307.584 
L 309.165967 272.294886 
L 307.598726 272.294886 
z
" style="fill:#1f77b4;"/>
   </g>
   <g id="patch_86">
    <path clip-path="url(#p98c68699e6)" d="M 309.165967 307.584 
L 310.733209 307.584 
L 310.733209 301.167797 
L 309.165967 301.167797 
z
" style="fill:#1f77b4;"/>
   </g>
   <g id="patch_87">
    <path clip-path="url(#p98c68699e6)" d="M 310.733209 307.584 
L 312.300451 307.584 
L 312.300451 297.959696 
L 310.733209 297.959696 
z
" style="fill:#1f77b4;"/>
   </g>
   <g id="patch_88">
    <path clip-path="url(#p98c68699e6)" d="M 312.300451 307.584 
L 313.867692 307.584 
L 313.867692 294.751595 
L 312.300451 294.751595 
z
" style="fill:#1f77b4;"/>
   </g>
   <g id="patch_89">
    <path clip-path="url(#p98c68699e6)" d="M 313.867692 307.584 
L 315.434934 307.584 
L 315.434934 304.375899 
L 313.867692 304.375899 
z
" style="fill:#1f77b4;"/>
   </g>
   <g id="patch_90">
    <path clip-path="url(#p98c68699e6)" d="M 315.434934 307.584 
L 317.002175 307.584 
L 317.002175 301.167797 
L 315.434934 301.167797 
z
" style="fill:#1f77b4;"/>
   </g>
   <g id="patch_91">
    <path clip-path="url(#p98c68699e6)" d="M 317.002175 307.584 
L 318.569417 307.584 
L 318.569417 301.167797 
L 317.002175 301.167797 
z
" style="fill:#1f77b4;"/>
   </g>
   <g id="patch_92">
    <path clip-path="url(#p98c68699e6)" d="M 318.569417 307.584 
L 320.136659 307.584 
L 320.136659 307.584 
L 318.569417 307.584 
z
" style="fill:#1f77b4;"/>
   </g>
   <g id="patch_93">
    <path clip-path="url(#p98c68699e6)" d="M 320.136659 307.584 
L 321.7039 307.584 
L 321.7039 307.584 
L 320.136659 307.584 
z
" style="fill:#1f77b4;"/>
   </g>
   <g id="patch_94">
    <path clip-path="url(#p98c68699e6)" d="M 321.7039 307.584 
L 323.271142 307.584 
L 323.271142 304.375899 
L 321.7039 304.375899 
z
" style="fill:#1f77b4;"/>
   </g>
   <g id="patch_95">
    <path clip-path="url(#p98c68699e6)" d="M 323.271142 307.584 
L 324.838384 307.584 
L 324.838384 307.584 
L 323.271142 307.584 
z
" style="fill:#1f77b4;"/>
   </g>
   <g id="patch_96">
    <path clip-path="url(#p98c68699e6)" d="M 324.838384 307.584 
L 326.405625 307.584 
L 326.405625 307.584 
L 324.838384 307.584 
z
" style="fill:#1f77b4;"/>
   </g>
   <g id="patch_97">
    <path clip-path="url(#p98c68699e6)" d="M 326.405625 307.584 
L 327.972867 307.584 
L 327.972867 307.584 
L 326.405625 307.584 
z
" style="fill:#1f77b4;"/>
   </g>
   <g id="patch_98">
    <path clip-path="url(#p98c68699e6)" d="M 327.972867 307.584 
L 329.540108 307.584 
L 329.540108 307.584 
L 327.972867 307.584 
z
" style="fill:#1f77b4;"/>
   </g>
   <g id="patch_99">
    <path clip-path="url(#p98c68699e6)" d="M 329.540108 307.584 
L 331.10735 307.584 
L 331.10735 307.584 
L 329.540108 307.584 
z
" style="fill:#1f77b4;"/>
   </g>
   <g id="patch_100">
    <path clip-path="url(#p98c68699e6)" d="M 331.10735 307.584 
L 332.674592 307.584 
L 332.674592 307.584 
L 331.10735 307.584 
z
" style="fill:#1f77b4;"/>
   </g>
   <g id="patch_101">
    <path clip-path="url(#p98c68699e6)" d="M 332.674592 307.584 
L 334.241833 307.584 
L 334.241833 307.584 
L 332.674592 307.584 
z
" style="fill:#1f77b4;"/>
   </g>
   <g id="patch_102">
    <path clip-path="url(#p98c68699e6)" d="M 334.241833 307.584 
L 335.809075 307.584 
L 335.809075 304.375899 
L 334.241833 304.375899 
z
" style="fill:#1f77b4;"/>
   </g>
   <g id="matplotlib.axis_1">
    <g id="xtick_1">
     <g id="line2d_1">
      <defs>
       <path d="M 0 0 
L 0 3.5 
" id="m8e5694451c" style="stroke:#000000;stroke-width:0.8;"/>
      </defs>
      <g>
       <use style="stroke:#000000;stroke-width:0.8;" x="106.3063" xlink:href="#m8e5694451c" y="307.584"/>
      </g>
     </g>
     <g id="text_1">
      <!-- −2 -->
      <defs>
       <path d="M 10.59375 35.5 
L 73.1875 35.5 
L 73.1875 27.203125 
L 10.59375 27.203125 
z
" id="DejaVuSans-8722"/>
       <path d="M 19.1875 8.296875 
L 53.609375 8.296875 
L 53.609375 0 
L 7.328125 0 
L 7.328125 8.296875 
Q 12.9375 14.109375 22.625 23.890625 
Q 32.328125 33.6875 34.8125 36.53125 
Q 39.546875 41.84375 41.421875 45.53125 
Q 43.3125 49.21875 43.3125 52.78125 
Q 43.3125 58.59375 39.234375 62.25 
Q 35.15625 65.921875 28.609375 65.921875 
Q 23.96875 65.921875 18.8125 64.3125 
Q 13.671875 62.703125 7.8125 59.421875 
L 7.8125 69.390625 
Q 13.765625 71.78125 18.9375 73 
Q 24.125 74.21875 28.421875 74.21875 
Q 39.75 74.21875 46.484375 68.546875 
Q 53.21875 62.890625 53.21875 53.421875 
Q 53.21875 48.921875 51.53125 44.890625 
Q 49.859375 40.875 45.40625 35.40625 
Q 44.1875 33.984375 37.640625 27.21875 
Q 31.109375 20.453125 19.1875 8.296875 
z
" id="DejaVuSans-50"/>
      </defs>
      <g transform="translate(84.193019 337.379312)scale(0.3 -0.3)">
       <use xlink:href="#DejaVuSans-8722"/>
       <use x="83.789062" xlink:href="#DejaVuSans-50"/>
      </g>
     </g>
    </g>
    <g id="xtick_2">
     <g id="line2d_2">
      <g>
       <use style="stroke:#000000;stroke-width:0.8;" x="236.200592" xlink:href="#m8e5694451c" y="307.584"/>
      </g>
     </g>
     <g id="text_2">
      <!-- 0 -->
      <defs>
       <path d="M 31.78125 66.40625 
Q 24.171875 66.40625 20.328125 58.90625 
Q 16.5 51.421875 16.5 36.375 
Q 16.5 21.390625 20.328125 13.890625 
Q 24.171875 6.390625 31.78125 6.390625 
Q 39.453125 6.390625 43.28125 13.890625 
Q 47.125 21.390625 47.125 36.375 
Q 47.125 51.421875 43.28125 58.90625 
Q 39.453125 66.40625 31.78125 66.40625 
z
M 31.78125 74.21875 
Q 44.046875 74.21875 50.515625 64.515625 
Q 56.984375 54.828125 56.984375 36.375 
Q 56.984375 17.96875 50.515625 8.265625 
Q 44.046875 -1.421875 31.78125 -1.421875 
Q 19.53125 -1.421875 13.0625 8.265625 
Q 6.59375 17.96875 6.59375 36.375 
Q 6.59375 54.828125 13.0625 64.515625 
Q 19.53125 74.21875 31.78125 74.21875 
z
" id="DejaVuSans-48"/>
      </defs>
      <g transform="translate(226.656842 337.379312)scale(0.3 -0.3)">
       <use xlink:href="#DejaVuSans-48"/>
      </g>
     </g>
    </g>
    <g id="xtick_3">
     <g id="line2d_3">
      <g>
       <use style="stroke:#000000;stroke-width:0.8;" x="366.094884" xlink:href="#m8e5694451c" y="307.584"/>
      </g>
     </g>
     <g id="text_3">
      <!-- 2 -->
      <g transform="translate(356.551134 337.379312)scale(0.3 -0.3)">
       <use xlink:href="#DejaVuSans-50"/>
      </g>
     </g>
    </g>
    <g id="text_4">
     <!-- Compressed value -->
     <defs>
      <path d="M 64.40625 67.28125 
L 64.40625 56.890625 
Q 59.421875 61.53125 53.78125 63.8125 
Q 48.140625 66.109375 41.796875 66.109375 
Q 29.296875 66.109375 22.65625 58.46875 
Q 16.015625 50.828125 16.015625 36.375 
Q 16.015625 21.96875 22.65625 14.328125 
Q 29.296875 6.6875 41.796875 6.6875 
Q 48.140625 6.6875 53.78125 8.984375 
Q 59.421875 11.28125 64.40625 15.921875 
L 64.40625 5.609375 
Q 59.234375 2.09375 53.4375 0.328125 
Q 47.65625 -1.421875 41.21875 -1.421875 
Q 24.65625 -1.421875 15.125 8.703125 
Q 5.609375 18.84375 5.609375 36.375 
Q 5.609375 53.953125 15.125 64.078125 
Q 24.65625 74.21875 41.21875 74.21875 
Q 47.75 74.21875 53.53125 72.484375 
Q 59.328125 70.75 64.40625 67.28125 
z
" id="DejaVuSans-67"/>
      <path d="M 30.609375 48.390625 
Q 23.390625 48.390625 19.1875 42.75 
Q 14.984375 37.109375 14.984375 27.296875 
Q 14.984375 17.484375 19.15625 11.84375 
Q 23.34375 6.203125 30.609375 6.203125 
Q 37.796875 6.203125 41.984375 11.859375 
Q 46.1875 17.53125 46.1875 27.296875 
Q 46.1875 37.015625 41.984375 42.703125 
Q 37.796875 48.390625 30.609375 48.390625 
z
M 30.609375 56 
Q 42.328125 56 49.015625 48.375 
Q 55.71875 40.765625 55.71875 27.296875 
Q 55.71875 13.875 49.015625 6.21875 
Q 42.328125 -1.421875 30.609375 -1.421875 
Q 18.84375 -1.421875 12.171875 6.21875 
Q 5.515625 13.875 5.515625 27.296875 
Q 5.515625 40.765625 12.171875 48.375 
Q 18.84375 56 30.609375 56 
z
" id="DejaVuSans-111"/>
      <path d="M 52 44.1875 
Q 55.375 50.25 60.0625 53.125 
Q 64.75 56 71.09375 56 
Q 79.640625 56 84.28125 50.015625 
Q 88.921875 44.046875 88.921875 33.015625 
L 88.921875 0 
L 79.890625 0 
L 79.890625 32.71875 
Q 79.890625 40.578125 77.09375 44.375 
Q 74.3125 48.1875 68.609375 48.1875 
Q 61.625 48.1875 57.5625 43.546875 
Q 53.515625 38.921875 53.515625 30.90625 
L 53.515625 0 
L 44.484375 0 
L 44.484375 32.71875 
Q 44.484375 40.625 41.703125 44.40625 
Q 38.921875 48.1875 33.109375 48.1875 
Q 26.21875 48.1875 22.15625 43.53125 
Q 18.109375 38.875 18.109375 30.90625 
L 18.109375 0 
L 9.078125 0 
L 9.078125 54.6875 
L 18.109375 54.6875 
L 18.109375 46.1875 
Q 21.1875 51.21875 25.484375 53.609375 
Q 29.78125 56 35.6875 56 
Q 41.65625 56 45.828125 52.96875 
Q 50 49.953125 52 44.1875 
z
" id="DejaVuSans-109"/>
      <path d="M 18.109375 8.203125 
L 18.109375 -20.796875 
L 9.078125 -20.796875 
L 9.078125 54.6875 
L 18.109375 54.6875 
L 18.109375 46.390625 
Q 20.953125 51.265625 25.265625 53.625 
Q 29.59375 56 35.59375 56 
Q 45.5625 56 51.78125 48.09375 
Q 58.015625 40.1875 58.015625 27.296875 
Q 58.015625 14.40625 51.78125 6.484375 
Q 45.5625 -1.421875 35.59375 -1.421875 
Q 29.59375 -1.421875 25.265625 0.953125 
Q 20.953125 3.328125 18.109375 8.203125 
z
M 48.6875 27.296875 
Q 48.6875 37.203125 44.609375 42.84375 
Q 40.53125 48.484375 33.40625 48.484375 
Q 26.265625 48.484375 22.1875 42.84375 
Q 18.109375 37.203125 18.109375 27.296875 
Q 18.109375 17.390625 22.1875 11.75 
Q 26.265625 6.109375 33.40625 6.109375 
Q 40.53125 6.109375 44.609375 11.75 
Q 48.6875 17.390625 48.6875 27.296875 
z
" id="DejaVuSans-112"/>
      <path d="M 41.109375 46.296875 
Q 39.59375 47.171875 37.8125 47.578125 
Q 36.03125 48 33.890625 48 
Q 26.265625 48 22.1875 43.046875 
Q 18.109375 38.09375 18.109375 28.8125 
L 18.109375 0 
L 9.078125 0 
L 9.078125 54.6875 
L 18.109375 54.6875 
L 18.109375 46.1875 
Q 20.953125 51.171875 25.484375 53.578125 
Q 30.03125 56 36.53125 56 
Q 37.453125 56 38.578125 55.875 
Q 39.703125 55.765625 41.0625 55.515625 
z
" id="DejaVuSans-114"/>
      <path d="M 56.203125 29.59375 
L 56.203125 25.203125 
L 14.890625 25.203125 
Q 15.484375 15.921875 20.484375 11.0625 
Q 25.484375 6.203125 34.421875 6.203125 
Q 39.59375 6.203125 44.453125 7.46875 
Q 49.3125 8.734375 54.109375 11.28125 
L 54.109375 2.78125 
Q 49.265625 0.734375 44.1875 -0.34375 
Q 39.109375 -1.421875 33.890625 -1.421875 
Q 20.796875 -1.421875 13.15625 6.1875 
Q 5.515625 13.8125 5.515625 26.8125 
Q 5.515625 40.234375 12.765625 48.109375 
Q 20.015625 56 32.328125 56 
Q 43.359375 56 49.78125 48.890625 
Q 56.203125 41.796875 56.203125 29.59375 
z
M 47.21875 32.234375 
Q 47.125 39.59375 43.09375 43.984375 
Q 39.0625 48.390625 32.421875 48.390625 
Q 24.90625 48.390625 20.390625 44.140625 
Q 15.875 39.890625 15.1875 32.171875 
z
" id="DejaVuSans-101"/>
      <path d="M 44.28125 53.078125 
L 44.28125 44.578125 
Q 40.484375 46.53125 36.375 47.5 
Q 32.28125 48.484375 27.875 48.484375 
Q 21.1875 48.484375 17.84375 46.4375 
Q 14.5 44.390625 14.5 40.28125 
Q 14.5 37.15625 16.890625 35.375 
Q 19.28125 33.59375 26.515625 31.984375 
L 29.59375 31.296875 
Q 39.15625 29.25 43.1875 25.515625 
Q 47.21875 21.78125 47.21875 15.09375 
Q 47.21875 7.46875 41.1875 3.015625 
Q 35.15625 -1.421875 24.609375 -1.421875 
Q 20.21875 -1.421875 15.453125 -0.5625 
Q 10.6875 0.296875 5.421875 2 
L 5.421875 11.28125 
Q 10.40625 8.6875 15.234375 7.390625 
Q 20.0625 6.109375 24.8125 6.109375 
Q 31.15625 6.109375 34.5625 8.28125 
Q 37.984375 10.453125 37.984375 14.40625 
Q 37.984375 18.0625 35.515625 20.015625 
Q 33.0625 21.96875 24.703125 23.78125 
L 21.578125 24.515625 
Q 13.234375 26.265625 9.515625 29.90625 
Q 5.8125 33.546875 5.8125 39.890625 
Q 5.8125 47.609375 11.28125 51.796875 
Q 16.75 56 26.8125 56 
Q 31.78125 56 36.171875 55.265625 
Q 40.578125 54.546875 44.28125 53.078125 
z
" id="DejaVuSans-115"/>
      <path d="M 45.40625 46.390625 
L 45.40625 75.984375 
L 54.390625 75.984375 
L 54.390625 0 
L 45.40625 0 
L 45.40625 8.203125 
Q 42.578125 3.328125 38.25 0.953125 
Q 33.9375 -1.421875 27.875 -1.421875 
Q 17.96875 -1.421875 11.734375 6.484375 
Q 5.515625 14.40625 5.515625 27.296875 
Q 5.515625 40.1875 11.734375 48.09375 
Q 17.96875 56 27.875 56 
Q 33.9375 56 38.25 53.625 
Q 42.578125 51.265625 45.40625 46.390625 
z
M 14.796875 27.296875 
Q 14.796875 17.390625 18.875 11.75 
Q 22.953125 6.109375 30.078125 6.109375 
Q 37.203125 6.109375 41.296875 11.75 
Q 45.40625 17.390625 45.40625 27.296875 
Q 45.40625 37.203125 41.296875 42.84375 
Q 37.203125 48.484375 30.078125 48.484375 
Q 22.953125 48.484375 18.875 42.84375 
Q 14.796875 37.203125 14.796875 27.296875 
z
" id="DejaVuSans-100"/>
      <path id="DejaVuSans-32"/>
      <path d="M 2.984375 54.6875 
L 12.5 54.6875 
L 29.59375 8.796875 
L 46.6875 54.6875 
L 56.203125 54.6875 
L 35.6875 0 
L 23.484375 0 
z
" id="DejaVuSans-118"/>
      <path d="M 34.28125 27.484375 
Q 23.390625 27.484375 19.1875 25 
Q 14.984375 22.515625 14.984375 16.5 
Q 14.984375 11.71875 18.140625 8.90625 
Q 21.296875 6.109375 26.703125 6.109375 
Q 34.1875 6.109375 38.703125 11.40625 
Q 43.21875 16.703125 43.21875 25.484375 
L 43.21875 27.484375 
z
M 52.203125 31.203125 
L 52.203125 0 
L 43.21875 0 
L 43.21875 8.296875 
Q 40.140625 3.328125 35.546875 0.953125 
Q 30.953125 -1.421875 24.3125 -1.421875 
Q 15.921875 -1.421875 10.953125 3.296875 
Q 6 8.015625 6 15.921875 
Q 6 25.140625 12.171875 29.828125 
Q 18.359375 34.515625 30.609375 34.515625 
L 43.21875 34.515625 
L 43.21875 35.40625 
Q 43.21875 41.609375 39.140625 45 
Q 35.0625 48.390625 27.6875 48.390625 
Q 23 48.390625 18.546875 47.265625 
Q 14.109375 46.140625 10.015625 43.890625 
L 10.015625 52.203125 
Q 14.9375 54.109375 19.578125 55.046875 
Q 24.21875 56 28.609375 56 
Q 40.484375 56 46.34375 49.84375 
Q 52.203125 43.703125 52.203125 31.203125 
z
" id="DejaVuSans-97"/>
      <path d="M 9.421875 75.984375 
L 18.40625 75.984375 
L 18.40625 0 
L 9.421875 0 
z
" id="DejaVuSans-108"/>
      <path d="M 8.5 21.578125 
L 8.5 54.6875 
L 17.484375 54.6875 
L 17.484375 21.921875 
Q 17.484375 14.15625 20.5 10.265625 
Q 23.53125 6.390625 29.59375 6.390625 
Q 36.859375 6.390625 41.078125 11.03125 
Q 45.3125 15.671875 45.3125 23.6875 
L 45.3125 54.6875 
L 54.296875 54.6875 
L 54.296875 0 
L 45.3125 0 
L 45.3125 8.40625 
Q 42.046875 3.421875 37.71875 1 
Q 33.40625 -1.421875 27.6875 -1.421875 
Q 18.265625 -1.421875 13.375 4.4375 
Q 8.5 10.296875 8.5 21.578125 
z
M 31.109375 56 
z
" id="DejaVuSans-117"/>
     </defs>
     <g transform="translate(96.861562 370.413687)scale(0.3 -0.3)">
      <use xlink:href="#DejaVuSans-67"/>
      <use x="69.824219" xlink:href="#DejaVuSans-111"/>
      <use x="131.005859" xlink:href="#DejaVuSans-109"/>
      <use x="228.417969" xlink:href="#DejaVuSans-112"/>
      <use x="291.894531" xlink:href="#DejaVuSans-114"/>
      <use x="332.976562" xlink:href="#DejaVuSans-101"/>
      <use x="394.5" xlink:href="#DejaVuSans-115"/>
      <use x="446.599609" xlink:href="#DejaVuSans-115"/>
      <use x="498.699219" xlink:href="#DejaVuSans-101"/>
      <use x="560.222656" xlink:href="#DejaVuSans-100"/>
      <use x="623.699219" xlink:href="#DejaVuSans-32"/>
      <use x="655.486328" xlink:href="#DejaVuSans-118"/>
      <use x="714.666016" xlink:href="#DejaVuSans-97"/>
      <use x="775.945312" xlink:href="#DejaVuSans-108"/>
      <use x="803.728516" xlink:href="#DejaVuSans-117"/>
      <use x="867.107422" xlink:href="#DejaVuSans-101"/>
     </g>
    </g>
   </g>
   <g id="matplotlib.axis_2">
    <g id="ytick_1">
     <g id="line2d_4">
      <defs>
       <path d="M 0 0 
L -3.5 0 
" id="m4e1934e56f" style="stroke:#000000;stroke-width:0.8;"/>
      </defs>
      <g>
       <use style="stroke:#000000;stroke-width:0.8;" x="57.6" xlink:href="#m4e1934e56f" y="307.584"/>
      </g>
     </g>
     <g id="text_5">
      <!-- 0.0 -->
      <defs>
       <path d="M 10.6875 12.40625 
L 21 12.40625 
L 21 0 
L 10.6875 0 
z
" id="DejaVuSans-46"/>
      </defs>
      <g transform="translate(2.890625 318.981656)scale(0.3 -0.3)">
       <use xlink:href="#DejaVuSans-48"/>
       <use x="63.623047" xlink:href="#DejaVuSans-46"/>
       <use x="95.410156" xlink:href="#DejaVuSans-48"/>
      </g>
     </g>
    </g>
    <g id="ytick_2">
     <g id="line2d_5">
      <g>
       <use style="stroke:#000000;stroke-width:0.8;" x="57.6" xlink:href="#m4e1934e56f" y="230.169208"/>
      </g>
     </g>
     <g id="text_6">
      <!-- 0.5 -->
      <defs>
       <path d="M 10.796875 72.90625 
L 49.515625 72.90625 
L 49.515625 64.59375 
L 19.828125 64.59375 
L 19.828125 46.734375 
Q 21.96875 47.46875 24.109375 47.828125 
Q 26.265625 48.1875 28.421875 48.1875 
Q 40.625 48.1875 47.75 41.5 
Q 54.890625 34.8125 54.890625 23.390625 
Q 54.890625 11.625 47.5625 5.09375 
Q 40.234375 -1.421875 26.90625 -1.421875 
Q 22.3125 -1.421875 17.546875 -0.640625 
Q 12.796875 0.140625 7.71875 1.703125 
L 7.71875 11.625 
Q 12.109375 9.234375 16.796875 8.0625 
Q 21.484375 6.890625 26.703125 6.890625 
Q 35.15625 6.890625 40.078125 11.328125 
Q 45.015625 15.765625 45.015625 23.390625 
Q 45.015625 31 40.078125 35.4375 
Q 35.15625 39.890625 26.703125 39.890625 
Q 22.75 39.890625 18.8125 39.015625 
Q 14.890625 38.140625 10.796875 36.28125 
z
" id="DejaVuSans-53"/>
      </defs>
      <g transform="translate(2.890625 241.566864)scale(0.3 -0.3)">
       <use xlink:href="#DejaVuSans-48"/>
       <use x="63.623047" xlink:href="#DejaVuSans-46"/>
       <use x="95.410156" xlink:href="#DejaVuSans-53"/>
      </g>
     </g>
    </g>
    <g id="ytick_3">
     <g id="line2d_6">
      <g>
       <use style="stroke:#000000;stroke-width:0.8;" x="57.6" xlink:href="#m4e1934e56f" y="152.754415"/>
      </g>
     </g>
     <g id="text_7">
      <!-- 1.0 -->
      <defs>
       <path d="M 12.40625 8.296875 
L 28.515625 8.296875 
L 28.515625 63.921875 
L 10.984375 60.40625 
L 10.984375 69.390625 
L 28.421875 72.90625 
L 38.28125 72.90625 
L 38.28125 8.296875 
L 54.390625 8.296875 
L 54.390625 0 
L 12.40625 0 
z
" id="DejaVuSans-49"/>
      </defs>
      <g transform="translate(2.890625 164.152071)scale(0.3 -0.3)">
       <use xlink:href="#DejaVuSans-49"/>
       <use x="63.623047" xlink:href="#DejaVuSans-46"/>
       <use x="95.410156" xlink:href="#DejaVuSans-48"/>
      </g>
     </g>
    </g>
    <g id="ytick_4">
     <g id="line2d_7">
      <g>
       <use style="stroke:#000000;stroke-width:0.8;" x="57.6" xlink:href="#m4e1934e56f" y="75.339623"/>
      </g>
     </g>
     <g id="text_8">
      <!-- 1.5 -->
      <g transform="translate(2.890625 86.737279)scale(0.3 -0.3)">
       <use xlink:href="#DejaVuSans-49"/>
       <use x="63.623047" xlink:href="#DejaVuSans-46"/>
       <use x="95.410156" xlink:href="#DejaVuSans-53"/>
      </g>
     </g>
    </g>
    <g id="text_9">
     <!-- Density -->
     <defs>
      <path d="M 19.671875 64.796875 
L 19.671875 8.109375 
L 31.59375 8.109375 
Q 46.6875 8.109375 53.6875 14.9375 
Q 60.6875 21.78125 60.6875 36.53125 
Q 60.6875 51.171875 53.6875 57.984375 
Q 46.6875 64.796875 31.59375 64.796875 
z
M 9.8125 72.90625 
L 30.078125 72.90625 
Q 51.265625 72.90625 61.171875 64.09375 
Q 71.09375 55.28125 71.09375 36.53125 
Q 71.09375 17.671875 61.125 8.828125 
Q 51.171875 0 30.078125 0 
L 9.8125 0 
z
" id="DejaVuSans-68"/>
      <path d="M 54.890625 33.015625 
L 54.890625 0 
L 45.90625 0 
L 45.90625 32.71875 
Q 45.90625 40.484375 42.875 44.328125 
Q 39.84375 48.1875 33.796875 48.1875 
Q 26.515625 48.1875 22.3125 43.546875 
Q 18.109375 38.921875 18.109375 30.90625 
L 18.109375 0 
L 9.078125 0 
L 9.078125 54.6875 
L 18.109375 54.6875 
L 18.109375 46.1875 
Q 21.34375 51.125 25.703125 53.5625 
Q 30.078125 56 35.796875 56 
Q 45.21875 56 50.046875 50.171875 
Q 54.890625 44.34375 54.890625 33.015625 
z
" id="DejaVuSans-110"/>
      <path d="M 9.421875 54.6875 
L 18.40625 54.6875 
L 18.40625 0 
L 9.421875 0 
z
M 9.421875 75.984375 
L 18.40625 75.984375 
L 18.40625 64.59375 
L 9.421875 64.59375 
z
" id="DejaVuSans-105"/>
      <path d="M 18.3125 70.21875 
L 18.3125 54.6875 
L 36.8125 54.6875 
L 36.8125 47.703125 
L 18.3125 47.703125 
L 18.3125 18.015625 
Q 18.3125 11.328125 20.140625 9.421875 
Q 21.96875 7.515625 27.59375 7.515625 
L 36.8125 7.515625 
L 36.8125 0 
L 27.59375 0 
Q 17.1875 0 13.234375 3.875 
Q 9.28125 7.765625 9.28125 18.015625 
L 9.28125 47.703125 
L 2.6875 47.703125 
L 2.6875 54.6875 
L 9.28125 54.6875 
L 9.28125 70.21875 
z
" id="DejaVuSans-116"/>
      <path d="M 32.171875 -5.078125 
Q 28.375 -14.84375 24.75 -17.8125 
Q 21.140625 -20.796875 15.09375 -20.796875 
L 7.90625 -20.796875 
L 7.90625 -13.28125 
L 13.1875 -13.28125 
Q 16.890625 -13.28125 18.9375 -11.515625 
Q 21 -9.765625 23.484375 -3.21875 
L 25.09375 0.875 
L 2.984375 54.6875 
L 12.5 54.6875 
L 29.59375 11.921875 
L 46.6875 54.6875 
L 56.203125 54.6875 
z
" id="DejaVuSans-121"/>
     </defs>
     <g transform="translate(-7.348438 231.553781)rotate(-90)scale(0.3 -0.3)">
      <use xlink:href="#DejaVuSans-68"/>
      <use x="77.001953" xlink:href="#DejaVuSans-101"/>
      <use x="138.525391" xlink:href="#DejaVuSans-110"/>
      <use x="201.904297" xlink:href="#DejaVuSans-115"/>
      <use x="254.003906" xlink:href="#DejaVuSans-105"/>
      <use x="281.787109" xlink:href="#DejaVuSans-116"/>
      <use x="320.996094" xlink:href="#DejaVuSans-121"/>
     </g>
    </g>
   </g>
   <g id="line2d_8">
    <path clip-path="url(#p98c68699e6)" d="M 73.832727 307.584 
L 177.342241 307.499598 
L 177.666977 307.299083 
L 177.991712 306.834942 
L 178.478816 305.585514 
L 178.884736 304.634593 
L 179.128288 304.486959 
L 179.371839 304.733745 
L 180.183679 306.025166 
L 180.346047 305.919145 
L 180.670782 305.3137 
L 181.157886 304.352481 
L 181.482622 304.170032 
L 181.807357 303.993972 
L 182.050909 303.403471 
L 182.375645 301.620838 
L 183.349852 294.929034 
L 183.51222 294.875362 
L 183.674588 295.317381 
L 183.91814 296.828033 
L 184.973531 304.904245 
L 185.135899 304.961521 
L 185.298266 304.567282 
L 185.541818 303.208703 
L 186.028922 298.647878 
L 186.921945 290.198666 
L 187.409049 287.410332 
L 187.733784 286.538172 
L 187.896152 286.448278 
L 188.05852 286.593203 
L 188.302072 287.19591 
L 189.682199 291.614322 
L 189.925751 291.664875 
L 190.169302 291.429689 
L 190.575222 290.593993 
L 191.468245 288.421074 
L 191.630613 288.648665 
L 191.874165 289.753309 
L 192.848372 296.124165 
L 192.929556 296.079876 
L 193.091924 295.596775 
L 193.41666 293.344713 
L 193.984947 287.103426 
L 194.553235 278.440798 
L 195.28389 262.787203 
L 195.770994 254.26233 
L 196.095729 251.954568 
L 196.258097 251.678716 
L 196.420465 251.721416 
L 197.394672 252.688341 
L 197.800592 254.174768 
L 198.206512 255.43567 
L 198.450063 255.666791 
L 199.018351 255.692169 
L 199.180719 255.521172 
L 199.343087 255.003272 
L 199.586638 253.211086 
L 199.992558 247.718307 
L 200.398478 243.060052 
L 200.560846 242.657997 
L 200.723214 243.282678 
L 201.047949 246.800744 
L 201.535053 252.259719 
L 201.859789 253.572102 
L 202.346892 254.631511 
L 202.752812 255.628387 
L 202.91518 255.212975 
L 203.158732 252.976447 
L 203.564651 245.375754 
L 204.132939 234.518308 
L 204.37649 232.688395 
L 204.457674 232.58929 
L 204.620042 233.111924 
L 204.863594 235.305898 
L 205.594249 242.870954 
L 206.000169 244.692755 
L 206.324905 245.603968 
L 206.487273 245.668391 
L 206.649641 245.255652 
L 206.893192 243.652218 
L 207.46148 239.303893 
L 207.542664 239.188875 
L 207.623848 239.25969 
L 207.786216 239.892826 
L 208.435687 243.299678 
L 208.516871 243.268581 
L 208.679239 242.84103 
L 209.32871 240.377451 
L 209.409894 240.434409 
L 209.572262 240.968073 
L 209.815814 242.819594 
L 210.627653 250.786103 
L 210.708837 250.780329 
L 210.871205 250.010505 
L 211.114757 247.230812 
L 212.00778 235.410693 
L 212.332516 231.495075 
L 212.657252 224.80769 
L 213.712643 197.985158 
L 213.875011 197.224306 
L 213.956195 197.346039 
L 214.118562 198.482099 
L 214.443298 203.245511 
L 215.336321 220.906452 
L 215.985793 240.23679 
L 216.472896 251.970698 
L 216.716448 254.135448 
L 216.797632 254.163421 
L 216.96 253.114623 
L 217.203552 248.796876 
L 217.609471 235.935095 
L 218.177759 218.710411 
L 218.421311 216.213492 
L 218.502495 216.152282 
L 218.664863 216.927876 
L 219.151966 220.625971 
L 219.23315 220.549589 
L 219.395518 219.267211 
L 219.63907 214.472761 
L 220.369725 195.929452 
L 220.450909 195.464021 
L 220.532093 195.533415 
L 220.694461 197.207398 
L 221.019197 204.82336 
L 221.425116 214.007498 
L 221.668668 215.678901 
L 221.749852 215.51737 
L 221.91222 214.349955 
L 222.399323 207.841079 
L 223.129979 195.960745 
L 224.753658 163.411769 
L 226.0526 151.462027 
L 226.214968 151.041344 
L 226.296152 151.102193 
L 226.45852 151.801793 
L 226.702072 154.325738 
L 227.026808 160.558516 
L 227.513911 175.972179 
L 228.163383 197.010405 
L 228.569302 203.316109 
L 229.056406 207.003237 
L 229.54351 209.400632 
L 229.705877 209.438297 
L 229.868245 208.81579 
L 230.111797 206.437003 
L 230.517717 198.977883 
L 231.086004 188.388308 
L 231.248372 187.566637 
L 231.329556 187.743651 
L 231.491924 189.323898 
L 231.735476 194.467822 
L 233.196786 233.281418 
L 233.440338 234.272836 
L 233.602706 233.98228 
L 234.252178 231.865116 
L 234.414545 232.192547 
L 234.658097 233.509905 
L 234.982833 236.760163 
L 235.388753 243.747432 
L 235.95704 258.973552 
L 236.687696 277.338999 
L 237.093615 282.508352 
L 237.661903 286.436433 
L 238.23019 289.199918 
L 238.717294 290.435771 
L 238.960846 290.782331 
L 239.123214 290.702514 
L 239.285581 290.135287 
L 239.529133 287.986642 
L 239.935053 281.284631 
L 240.340973 275.431927 
L 240.50334 274.825674 
L 240.584524 274.999688 
L 240.746892 276.250316 
L 241.071628 281.323853 
L 241.721099 291.531175 
L 242.045835 293.511214 
L 242.208203 293.737253 
L 242.370571 293.59128 
L 242.695307 292.658921 
L 243.263594 291.004389 
L 243.507146 290.743653 
L 243.750698 290.793144 
L 243.994249 291.12261 
L 244.481353 292.357222 
L 244.806089 293.034992 
L 244.968457 293.073347 
L 245.130825 292.799992 
L 245.374376 291.704742 
L 245.699112 288.975313 
L 246.2674 281.793718 
L 246.835687 274.96755 
L 247.079239 273.877497 
L 247.160423 273.919551 
L 247.322791 274.653856 
L 247.566342 277.194803 
L 248.459366 288.271848 
L 248.865285 290.281839 
L 249.271205 291.467569 
L 249.433573 291.544351 
L 249.595941 291.181467 
L 249.839493 289.508537 
L 250.164228 284.805222 
L 250.8137 269.926791 
L 251.219619 263.221131 
L 251.381987 262.303517 
L 251.463171 262.266373 
L 251.625539 262.964197 
L 251.950275 266.44411 
L 252.356195 270.460584 
L 252.518562 270.760371 
L 252.68093 270.074497 
L 252.924482 267.46826 
L 253.655137 258.198816 
L 253.898689 257.333816 
L 253.979873 257.345312 
L 254.142241 257.745371 
L 254.466977 259.590531 
L 255.035264 262.988601 
L 255.197632 263.227477 
L 255.36 262.8866 
L 255.603552 261.099753 
L 255.928288 256.298011 
L 256.983679 237.37488 
L 257.389598 234.653547 
L 258.282622 230.95904 
L 258.607357 230.319046 
L 258.769725 230.26026 
L 258.932093 230.388363 
L 259.256829 231.104492 
L 259.743932 232.166353 
L 259.9063 232.204271 
L 260.149852 231.959937 
L 260.71814 230.886178 
L 260.961691 229.957466 
L 261.205243 227.973347 
L 261.529979 222.559152 
L 261.935899 210.988535 
L 262.58537 192.161432 
L 262.828922 189.055341 
L 262.99129 188.49035 
L 263.072474 188.596175 
L 263.234841 189.400724 
L 263.803129 193.148403 
L 263.884313 193.088562 
L 264.046681 192.109333 
L 264.290233 188.422986 
L 265.26444 169.514196 
L 265.426808 169.155481 
L 265.589175 169.784782 
L 265.832727 172.364991 
L 266.238647 179.870788 
L 266.725751 188.684668 
L 266.888118 189.787427 
L 266.969302 189.788506 
L 267.13167 188.589782 
L 267.375222 183.88935 
L 267.862326 167.656264 
L 269.161268 122.555672 
L 269.40482 120.673239 
L 269.567188 121.845082 
L 269.891924 128.16909 
L 270.297844 135.32857 
L 270.460211 135.81543 
L 270.622579 134.682156 
L 270.866131 130.568445 
L 271.515603 113.754356 
L 273.139281 70.219726 
L 273.545201 62.987527 
L 273.707569 61.866674 
L 273.788753 61.845732 
L 273.951121 63.020904 
L 274.194672 67.99734 
L 274.600592 83.85696 
L 275.331247 115.572928 
L 275.574799 119.924412 
L 275.737167 120.522438 
L 275.899535 119.685145 
L 276.386638 113.885363 
L 277.279662 104.997031 
L 277.523214 103.44748 
L 277.604397 103.348346 
L 277.685581 103.519011 
L 277.847949 104.706333 
L 278.253869 110.921976 
L 278.578605 114.263042 
L 278.659789 114.263868 
L 278.822156 113.098014 
L 279.146892 107.353878 
L 279.471628 102.134573 
L 279.552812 101.735504 
L 279.633996 101.868699 
L 279.796364 103.888385 
L 280.039915 111.161877 
L 281.095307 151.934997 
L 281.338858 153.91969 
L 281.420042 153.905129 
L 281.58241 153.106173 
L 282.313066 147.248892 
L 282.394249 147.344289 
L 282.556617 148.366366 
L 282.800169 152.142472 
L 283.124905 161.437619 
L 283.85556 192.770792 
L 284.26148 205.126427 
L 284.586216 209.697403 
L 285.154503 216.101243 
L 285.803975 224.619104 
L 285.966342 224.878569 
L 286.12871 224.261073 
L 286.778182 220.704368 
L 286.94055 220.96013 
L 287.508837 222.671438 
L 287.671205 222.524985 
L 288.077125 221.91537 
L 288.239493 222.326236 
L 288.483044 224.125297 
L 289.294884 232.185498 
L 289.376068 232.253234 
L 289.538436 231.705514 
L 289.781987 229.221509 
L 290.675011 216.065618 
L 290.756195 216.153565 
L 290.918562 217.622878 
L 291.162114 222.960856 
L 292.136321 249.152058 
L 292.217505 249.380135 
L 292.298689 249.202562 
L 292.461057 247.748471 
L 292.785793 241.699465 
L 293.435264 229.338653 
L 293.678816 228.245396 
L 293.841184 228.783431 
L 294.247104 232.302735 
L 294.571839 234.321044 
L 294.734207 234.584978 
L 294.896575 234.482243 
L 295.62723 233.212034 
L 296.276702 231.557755 
L 296.43907 231.88317 
L 296.682622 233.470892 
L 297.332093 238.785037 
L 297.413277 238.864012 
L 297.575645 238.44876 
L 297.900381 235.988817 
L 298.3063 232.986652 
L 298.468668 232.609953 
L 298.549852 232.645341 
L 298.71222 233.138249 
L 299.036956 235.478551 
L 299.524059 241.378325 
L 300.741818 259.45845 
L 300.904186 259.699097 
L 301.066554 259.309516 
L 301.878393 256.011088 
L 302.040761 255.973316 
L 302.365497 256.239481 
L 302.609049 256.636635 
L 302.8526 257.480875 
L 303.096152 259.170236 
L 303.502072 264.217481 
L 304.801015 283.214338 
L 305.775222 291.375207 
L 306.099958 292.879004 
L 306.181142 292.951676 
L 306.262326 292.871206 
L 306.424693 292.213568 
L 306.668245 289.967555 
L 307.155349 282.314836 
L 307.642452 275.53534 
L 307.886004 274.261655 
L 307.967188 274.225101 
L 308.129556 274.717487 
L 308.373108 276.726932 
L 308.779027 282.573988 
L 309.753235 297.630376 
L 310.07797 299.464281 
L 310.240338 299.662372 
L 310.402706 299.501665 
L 310.727442 298.576812 
L 312.026385 294.488399 
L 312.351121 293.887624 
L 312.513488 294.022143 
L 312.75704 294.937868 
L 313.16296 298.056141 
L 313.893615 303.786606 
L 314.218351 304.672667 
L 314.380719 304.678817 
L 314.624271 304.293076 
L 315.354926 302.221166 
L 316.085581 300.392164 
L 316.491501 299.923956 
L 316.978605 299.738456 
L 317.222156 299.828825 
L 317.465708 300.273051 
L 317.790444 301.627112 
L 318.764651 306.666794 
L 319.089387 307.277694 
L 319.414123 307.503582 
L 319.98241 307.569659 
L 320.550698 307.450841 
L 320.875433 307.172545 
L 321.200169 306.593109 
L 322.174376 304.495692 
L 322.336744 304.584829 
L 322.580296 305.031133 
L 323.554503 307.255595 
L 323.960423 307.512068 
L 324.609894 307.581189 
L 333.215391 307.582937 
L 334.108414 307.483811 
L 334.43315 307.256553 
L 334.757886 306.750537 
L 335.326173 305.24146 
L 335.650909 304.585834 
L 335.894461 304.522172 
L 336.138013 304.867353 
L 337.355772 307.40278 
L 337.842875 307.561072 
L 339.223002 307.583997 
L 398.487273 307.584 
L 398.487273 307.584 
" style="fill:none;stroke:#ff7f0e;stroke-linecap:square;stroke-width:1.5;"/>
   </g>
   <g id="patch_103">
    <path d="M 57.6 307.584 
L 57.6 41.472 
" style="fill:none;stroke:#000000;stroke-linecap:square;stroke-linejoin:miter;stroke-width:0.8;"/>
   </g>
   <g id="patch_104">
    <path d="M 414.72 307.584 
L 414.72 41.472 
" style="fill:none;stroke:#000000;stroke-linecap:square;stroke-linejoin:miter;stroke-width:0.8;"/>
   </g>
   <g id="patch_105">
    <path d="M 57.6 307.584 
L 414.72 307.584 
" style="fill:none;stroke:#000000;stroke-linecap:square;stroke-linejoin:miter;stroke-width:0.8;"/>
   </g>
   <g id="patch_106">
    <path d="M 57.6 41.472 
L 414.72 41.472 
" style="fill:none;stroke:#000000;stroke-linecap:square;stroke-linejoin:miter;stroke-width:0.8;"/>
   </g>
  </g>
 </g>
 <defs>
  <clipPath id="p98c68699e6">
   <rect height="266.112" width="357.12" x="57.6" y="41.472"/>
  </clipPath>
 </defs>
</svg>
