<?xml version="1.0" encoding="utf-8" standalone="no"?>
<!DOCTYPE svg PUBLIC "-//W3C//DTD SVG 1.1//EN"
  "http://www.w3.org/Graphics/SVG/1.1/DTD/svg11.dtd">
<!-- Created with matplotlib (https://matplotlib.org/) -->
<svg height="345.6pt" version="1.1" viewBox="0 0 460.8 345.6" width="460.8pt" xmlns="http://www.w3.org/2000/svg" xmlns:xlink="http://www.w3.org/1999/xlink">
 <defs>
  <style type="text/css">
*{stroke-linecap:butt;stroke-linejoin:round;}
  </style>
 </defs>
 <g id="figure_1">
  <g id="patch_1">
   <path d="M 0 345.6 
L 460.8 345.6 
L 460.8 0 
L 0 0 
z
" style="fill:#ffffff;"/>
  </g>
  <g id="axes_1">
   <g id="patch_2">
    <path d="M 57.6 307.584 
L 414.72 307.584 
L 414.72 41.472 
L 57.6 41.472 
z
" style="fill:#ffffff;"/>
   </g>
   <g id="patch_3">
    <path clip-path="url(#p5f4914bfa8)" d="M 184.911069 307.584 
L 187.046831 307.584 
L 187.046831 307.174565 
L 184.911069 307.174565 
z
" style="fill:#1f77b4;"/>
   </g>
   <g id="patch_4">
    <path clip-path="url(#p5f4914bfa8)" d="M 187.046831 307.584 
L 189.182593 307.584 
L 189.182593 305.99013 
L 187.046831 305.99013 
z
" style="fill:#1f77b4;"/>
   </g>
   <g id="patch_5">
    <path clip-path="url(#p5f4914bfa8)" d="M 189.182593 307.584 
L 191.318355 307.584 
L 191.318355 303.73824 
L 189.182593 303.73824 
z
" style="fill:#1f77b4;"/>
   </g>
   <g id="patch_6">
    <path clip-path="url(#p5f4914bfa8)" d="M 191.318355 307.584 
L 193.454117 307.584 
L 193.454117 301.076916 
L 191.318355 301.076916 
z
" style="fill:#1f77b4;"/>
   </g>
   <g id="patch_7">
    <path clip-path="url(#p5f4914bfa8)" d="M 193.454117 307.584 
L 195.589879 307.584 
L 195.589879 298.02078 
L 193.454117 298.02078 
z
" style="fill:#1f77b4;"/>
   </g>
   <g id="patch_8">
    <path clip-path="url(#p5f4914bfa8)" d="M 195.589879 307.584 
L 197.725641 307.584 
L 197.725641 292.85898 
L 195.589879 292.85898 
z
" style="fill:#1f77b4;"/>
   </g>
   <g id="patch_9">
    <path clip-path="url(#p5f4914bfa8)" d="M 197.725641 307.584 
L 199.861403 307.584 
L 199.861403 287.477841 
L 197.725641 287.477841 
z
" style="fill:#1f77b4;"/>
   </g>
   <g id="patch_10">
    <path clip-path="url(#p5f4914bfa8)" d="M 199.861403 307.584 
L 201.997165 307.584 
L 201.997165 282.169815 
L 199.861403 282.169815 
z
" style="fill:#1f77b4;"/>
   </g>
   <g id="patch_11">
    <path clip-path="url(#p5f4914bfa8)" d="M 201.997165 307.584 
L 204.132927 307.584 
L 204.132927 276.291505 
L 201.997165 276.291505 
z
" style="fill:#1f77b4;"/>
   </g>
   <g id="patch_12">
    <path clip-path="url(#p5f4914bfa8)" d="M 204.132927 307.584 
L 206.268689 307.584 
L 206.268689 269.608949 
L 204.132927 269.608949 
z
" style="fill:#1f77b4;"/>
   </g>
   <g id="patch_13">
    <path clip-path="url(#p5f4914bfa8)" d="M 206.268689 307.584 
L 208.404451 307.584 
L 208.404451 267.561776 
L 206.268689 267.561776 
z
" style="fill:#1f77b4;"/>
   </g>
   <g id="patch_14">
    <path clip-path="url(#p5f4914bfa8)" d="M 208.404451 307.584 
L 210.540213 307.584 
L 210.540213 265.383 
L 208.404451 265.383 
z
" style="fill:#1f77b4;"/>
   </g>
   <g id="patch_15">
    <path clip-path="url(#p5f4914bfa8)" d="M 210.540213 307.584 
L 212.675975 307.584 
L 212.675975 264.447149 
L 210.540213 264.447149 
z
" style="fill:#1f77b4;"/>
   </g>
   <g id="patch_16">
    <path clip-path="url(#p5f4914bfa8)" d="M 212.675975 307.584 
L 214.811737 307.584 
L 214.811737 265.032056 
L 212.675975 265.032056 
z
" style="fill:#1f77b4;"/>
   </g>
   <g id="patch_17">
    <path clip-path="url(#p5f4914bfa8)" d="M 214.811737 307.584 
L 216.947499 307.584 
L 216.947499 261.917429 
L 214.811737 261.917429 
z
" style="fill:#1f77b4;"/>
   </g>
   <g id="patch_18">
    <path clip-path="url(#p5f4914bfa8)" d="M 216.947499 307.584 
L 219.083261 307.584 
L 219.083261 258.451858 
L 216.947499 258.451858 
z
" style="fill:#1f77b4;"/>
   </g>
   <g id="patch_19">
    <path clip-path="url(#p5f4914bfa8)" d="M 219.083261 307.584 
L 221.219023 307.584 
L 221.219023 255.337231 
L 219.083261 255.337231 
z
" style="fill:#1f77b4;"/>
   </g>
   <g id="patch_20">
    <path clip-path="url(#p5f4914bfa8)" d="M 221.219023 307.584 
L 223.354785 307.584 
L 223.354785 249.824488 
L 221.219023 249.824488 
z
" style="fill:#1f77b4;"/>
   </g>
   <g id="patch_21">
    <path clip-path="url(#p5f4914bfa8)" d="M 223.354785 307.584 
L 225.490547 307.584 
L 225.490547 237.058905 
L 223.354785 237.058905 
z
" style="fill:#1f77b4;"/>
   </g>
   <g id="patch_22">
    <path clip-path="url(#p5f4914bfa8)" d="M 225.490547 307.584 
L 227.626309 307.584 
L 227.626309 268.760834 
L 225.490547 268.760834 
z
" style="fill:#1f77b4;"/>
   </g>
   <g id="patch_23">
    <path clip-path="url(#p5f4914bfa8)" d="M 227.626309 307.584 
L 229.762072 307.584 
L 229.762072 274.536786 
L 227.626309 274.536786 
z
" style="fill:#1f77b4;"/>
   </g>
   <g id="patch_24">
    <path clip-path="url(#p5f4914bfa8)" d="M 229.762072 307.584 
L 231.897834 307.584 
L 231.897834 263.13111 
L 229.762072 263.13111 
z
" style="fill:#1f77b4;"/>
   </g>
   <g id="patch_25">
    <path clip-path="url(#p5f4914bfa8)" d="M 231.897834 307.584 
L 234.033596 307.584 
L 234.033596 238.097114 
L 231.897834 238.097114 
z
" style="fill:#1f77b4;"/>
   </g>
   <g id="patch_26">
    <path clip-path="url(#p5f4914bfa8)" d="M 234.033596 307.584 
L 236.169358 307.584 
L 236.169358 197.446115 
L 234.033596 197.446115 
z
" style="fill:#1f77b4;"/>
   </g>
   <g id="patch_27">
    <path clip-path="url(#p5f4914bfa8)" d="M 236.169358 307.584 
L 238.30512 307.584 
L 238.30512 143.561609 
L 236.169358 143.561609 
z
" style="fill:#1f77b4;"/>
   </g>
   <g id="patch_28">
    <path clip-path="url(#p5f4914bfa8)" d="M 238.30512 307.584 
L 240.440882 307.584 
L 240.440882 107.502126 
L 238.30512 107.502126 
z
" style="fill:#1f77b4;"/>
   </g>
   <g id="patch_29">
    <path clip-path="url(#p5f4914bfa8)" d="M 240.440882 307.584 
L 242.576644 307.584 
L 242.576644 122.066297 
L 240.440882 122.066297 
z
" style="fill:#1f77b4;"/>
   </g>
   <g id="patch_30">
    <path clip-path="url(#p5f4914bfa8)" d="M 242.576644 307.584 
L 244.712406 307.584 
L 244.712406 147.80218 
L 242.576644 147.80218 
z
" style="fill:#1f77b4;"/>
   </g>
   <g id="patch_31">
    <path clip-path="url(#p5f4914bfa8)" d="M 244.712406 307.584 
L 246.848168 307.584 
L 246.848168 152.803131 
L 244.712406 152.803131 
z
" style="fill:#1f77b4;"/>
   </g>
   <g id="patch_32">
    <path clip-path="url(#p5f4914bfa8)" d="M 246.848168 307.584 
L 248.98393 307.584 
L 248.98393 137.449336 
L 246.848168 137.449336 
z
" style="fill:#1f77b4;"/>
   </g>
   <g id="patch_33">
    <path clip-path="url(#p5f4914bfa8)" d="M 248.98393 307.584 
L 251.119692 307.584 
L 251.119692 116.948365 
L 248.98393 116.948365 
z
" style="fill:#1f77b4;"/>
   </g>
   <g id="patch_34">
    <path clip-path="url(#p5f4914bfa8)" d="M 251.119692 307.584 
L 253.255454 307.584 
L 253.255454 105.337972 
L 251.119692 105.337972 
z
" style="fill:#1f77b4;"/>
   </g>
   <g id="patch_35">
    <path clip-path="url(#p5f4914bfa8)" d="M 253.255454 307.584 
L 255.391216 307.584 
L 255.391216 140.27151 
L 253.255454 140.27151 
z
" style="fill:#1f77b4;"/>
   </g>
   <g id="patch_36">
    <path clip-path="url(#p5f4914bfa8)" d="M 255.391216 307.584 
L 257.526978 307.584 
L 257.526978 177.442315 
L 255.391216 177.442315 
z
" style="fill:#1f77b4;"/>
   </g>
   <g id="patch_37">
    <path clip-path="url(#p5f4914bfa8)" d="M 257.526978 307.584 
L 259.66274 307.584 
L 259.66274 178.363542 
L 257.526978 178.363542 
z
" style="fill:#1f77b4;"/>
   </g>
   <g id="patch_38">
    <path clip-path="url(#p5f4914bfa8)" d="M 259.66274 307.584 
L 261.798502 307.584 
L 261.798502 130.781403 
L 259.66274 130.781403 
z
" style="fill:#1f77b4;"/>
   </g>
   <g id="patch_39">
    <path clip-path="url(#p5f4914bfa8)" d="M 261.798502 307.584 
L 263.934264 307.584 
L 263.934264 62.581311 
L 261.798502 62.581311 
z
" style="fill:#1f77b4;"/>
   </g>
   <g id="patch_40">
    <path clip-path="url(#p5f4914bfa8)" d="M 263.934264 307.584 
L 266.070026 307.584 
L 266.070026 68.313394 
L 263.934264 68.313394 
z
" style="fill:#1f77b4;"/>
   </g>
   <g id="patch_41">
    <path clip-path="url(#p5f4914bfa8)" d="M 266.070026 307.584 
L 268.205788 307.584 
L 268.205788 140.680944 
L 266.070026 140.680944 
z
" style="fill:#1f77b4;"/>
   </g>
   <g id="patch_42">
    <path clip-path="url(#p5f4914bfa8)" d="M 268.205788 307.584 
L 270.34155 307.584 
L 270.34155 198.104135 
L 268.205788 198.104135 
z
" style="fill:#1f77b4;"/>
   </g>
   <g id="patch_43">
    <path clip-path="url(#p5f4914bfa8)" d="M 270.34155 307.584 
L 272.477312 307.584 
L 272.477312 228.285308 
L 270.34155 228.285308 
z
" style="fill:#1f77b4;"/>
   </g>
   <g id="patch_44">
    <path clip-path="url(#p5f4914bfa8)" d="M 272.477312 307.584 
L 274.613074 307.584 
L 274.613074 242.001364 
L 272.477312 242.001364 
z
" style="fill:#1f77b4;"/>
   </g>
   <g id="patch_45">
    <path clip-path="url(#p5f4914bfa8)" d="M 274.613074 307.584 
L 276.748836 307.584 
L 276.748836 247.733447 
L 274.613074 247.733447 
z
" style="fill:#1f77b4;"/>
   </g>
   <g id="patch_46">
    <path clip-path="url(#p5f4914bfa8)" d="M 276.748836 307.584 
L 278.884598 307.584 
L 278.884598 251.827793 
L 276.748836 251.827793 
z
" style="fill:#1f77b4;"/>
   </g>
   <g id="patch_47">
    <path clip-path="url(#p5f4914bfa8)" d="M 278.884598 307.584 
L 281.02036 307.584 
L 281.02036 255.585817 
L 278.884598 255.585817 
z
" style="fill:#1f77b4;"/>
   </g>
   <g id="patch_48">
    <path clip-path="url(#p5f4914bfa8)" d="M 281.02036 307.584 
L 283.156123 307.584 
L 283.156123 261.420258 
L 281.02036 261.420258 
z
" style="fill:#1f77b4;"/>
   </g>
   <g id="patch_49">
    <path clip-path="url(#p5f4914bfa8)" d="M 283.156123 307.584 
L 285.291885 307.584 
L 285.291885 263.891488 
L 283.156123 263.891488 
z
" style="fill:#1f77b4;"/>
   </g>
   <g id="patch_50">
    <path clip-path="url(#p5f4914bfa8)" d="M 285.291885 307.584 
L 287.427647 307.584 
L 287.427647 268.614608 
L 285.291885 268.614608 
z
" style="fill:#1f77b4;"/>
   </g>
   <g id="patch_51">
    <path clip-path="url(#p5f4914bfa8)" d="M 287.427647 307.584 
L 289.563409 307.584 
L 289.563409 271.773103 
L 287.427647 271.773103 
z
" style="fill:#1f77b4;"/>
   </g>
   <g id="patch_52">
    <path clip-path="url(#p5f4914bfa8)" d="M 289.563409 307.584 
L 291.699171 307.584 
L 291.699171 275.033956 
L 289.563409 275.033956 
z
" style="fill:#1f77b4;"/>
   </g>
   <g id="patch_53">
    <path clip-path="url(#p5f4914bfa8)" d="M 291.699171 307.584 
L 293.834933 307.584 
L 293.834933 279.523113 
L 291.699171 279.523113 
z
" style="fill:#1f77b4;"/>
   </g>
   <g id="patch_54">
    <path clip-path="url(#p5f4914bfa8)" d="M 293.834933 307.584 
L 295.970695 307.584 
L 295.970695 281.775003 
L 293.834933 281.775003 
z
" style="fill:#1f77b4;"/>
   </g>
   <g id="patch_55">
    <path clip-path="url(#p5f4914bfa8)" d="M 295.970695 307.584 
L 298.106457 307.584 
L 298.106457 284.772648 
L 295.970695 284.772648 
z
" style="fill:#1f77b4;"/>
   </g>
   <g id="patch_56">
    <path clip-path="url(#p5f4914bfa8)" d="M 298.106457 307.584 
L 300.242219 307.584 
L 300.242219 286.951425 
L 298.106457 286.951425 
z
" style="fill:#1f77b4;"/>
   </g>
   <g id="patch_57">
    <path clip-path="url(#p5f4914bfa8)" d="M 300.242219 307.584 
L 302.377981 307.584 
L 302.377981 289.744353 
L 300.242219 289.744353 
z
" style="fill:#1f77b4;"/>
   </g>
   <g id="patch_58">
    <path clip-path="url(#p5f4914bfa8)" d="M 302.377981 307.584 
L 304.513743 307.584 
L 304.513743 291.747658 
L 302.377981 291.747658 
z
" style="fill:#1f77b4;"/>
   </g>
   <g id="patch_59">
    <path clip-path="url(#p5f4914bfa8)" d="M 304.513743 307.584 
L 306.649505 307.584 
L 306.649505 293.502377 
L 304.513743 293.502377 
z
" style="fill:#1f77b4;"/>
   </g>
   <g id="patch_60">
    <path clip-path="url(#p5f4914bfa8)" d="M 306.649505 307.584 
L 308.785267 307.584 
L 308.785267 296.04672 
L 306.649505 296.04672 
z
" style="fill:#1f77b4;"/>
   </g>
   <g id="patch_61">
    <path clip-path="url(#p5f4914bfa8)" d="M 308.785267 307.584 
L 310.921029 307.584 
L 310.921029 297.655213 
L 308.785267 297.655213 
z
" style="fill:#1f77b4;"/>
   </g>
   <g id="patch_62">
    <path clip-path="url(#p5f4914bfa8)" d="M 310.921029 307.584 
L 313.056791 307.584 
L 313.056791 298.883517 
L 310.921029 298.883517 
z
" style="fill:#1f77b4;"/>
   </g>
   <g id="patch_63">
    <path clip-path="url(#p5f4914bfa8)" d="M 313.056791 307.584 
L 315.192553 307.584 
L 315.192553 299.89248 
L 313.056791 299.89248 
z
" style="fill:#1f77b4;"/>
   </g>
   <g id="patch_64">
    <path clip-path="url(#p5f4914bfa8)" d="M 315.192553 307.584 
L 317.328315 307.584 
L 317.328315 301.135406 
L 315.192553 301.135406 
z
" style="fill:#1f77b4;"/>
   </g>
   <g id="patch_65">
    <path clip-path="url(#p5f4914bfa8)" d="M 317.328315 307.584 
L 319.464077 307.584 
L 319.464077 301.574086 
L 317.328315 301.574086 
z
" style="fill:#1f77b4;"/>
   </g>
   <g id="patch_66">
    <path clip-path="url(#p5f4914bfa8)" d="M 319.464077 307.584 
L 321.599839 307.584 
L 321.599839 302.700031 
L 319.464077 302.700031 
z
" style="fill:#1f77b4;"/>
   </g>
   <g id="patch_67">
    <path clip-path="url(#p5f4914bfa8)" d="M 321.599839 307.584 
L 323.735601 307.584 
L 323.735601 303.24107 
L 321.599839 303.24107 
z
" style="fill:#1f77b4;"/>
   </g>
   <g id="patch_68">
    <path clip-path="url(#p5f4914bfa8)" d="M 323.735601 307.584 
L 325.871363 307.584 
L 325.871363 303.913712 
L 323.735601 303.913712 
z
" style="fill:#1f77b4;"/>
   </g>
   <g id="patch_69">
    <path clip-path="url(#p5f4914bfa8)" d="M 325.871363 307.584 
L 328.007125 307.584 
L 328.007125 304.776449 
L 325.871363 304.776449 
z
" style="fill:#1f77b4;"/>
   </g>
   <g id="patch_70">
    <path clip-path="url(#p5f4914bfa8)" d="M 328.007125 307.584 
L 330.142887 307.584 
L 330.142887 305.492959 
L 328.007125 305.492959 
z
" style="fill:#1f77b4;"/>
   </g>
   <g id="patch_71">
    <path clip-path="url(#p5f4914bfa8)" d="M 330.142887 307.584 
L 332.278649 307.584 
L 332.278649 305.258997 
L 330.142887 305.258997 
z
" style="fill:#1f77b4;"/>
   </g>
   <g id="patch_72">
    <path clip-path="url(#p5f4914bfa8)" d="M 332.278649 307.584 
L 334.414412 307.584 
L 334.414412 305.814658 
L 332.278649 305.814658 
z
" style="fill:#1f77b4;"/>
   </g>
   <g id="patch_73">
    <path clip-path="url(#p5f4914bfa8)" d="M 334.414412 307.584 
L 336.550174 307.584 
L 336.550174 306.297206 
L 334.414412 306.297206 
z
" style="fill:#1f77b4;"/>
   </g>
   <g id="patch_74">
    <path clip-path="url(#p5f4914bfa8)" d="M 336.550174 307.584 
L 338.685936 307.584 
L 338.685936 306.662772 
L 336.550174 306.662772 
z
" style="fill:#1f77b4;"/>
   </g>
   <g id="patch_75">
    <path clip-path="url(#p5f4914bfa8)" d="M 338.685936 307.584 
L 340.821698 307.584 
L 340.821698 306.4873 
L 338.685936 306.4873 
z
" style="fill:#1f77b4;"/>
   </g>
   <g id="patch_76">
    <path clip-path="url(#p5f4914bfa8)" d="M 340.821698 307.584 
L 342.95746 307.584 
L 342.95746 306.779754 
L 340.821698 306.779754 
z
" style="fill:#1f77b4;"/>
   </g>
   <g id="patch_77">
    <path clip-path="url(#p5f4914bfa8)" d="M 342.95746 307.584 
L 345.093222 307.584 
L 345.093222 306.852867 
L 342.95746 306.852867 
z
" style="fill:#1f77b4;"/>
   </g>
   <g id="patch_78">
    <path clip-path="url(#p5f4914bfa8)" d="M 345.093222 307.584 
L 347.228984 307.584 
L 347.228984 307.174565 
L 345.093222 307.174565 
z
" style="fill:#1f77b4;"/>
   </g>
   <g id="patch_79">
    <path clip-path="url(#p5f4914bfa8)" d="M 347.228984 307.584 
L 349.364746 307.584 
L 349.364746 307.013716 
L 347.228984 307.013716 
z
" style="fill:#1f77b4;"/>
   </g>
   <g id="patch_80">
    <path clip-path="url(#p5f4914bfa8)" d="M 349.364746 307.584 
L 351.500508 307.584 
L 351.500508 307.08683 
L 349.364746 307.08683 
z
" style="fill:#1f77b4;"/>
   </g>
   <g id="patch_81">
    <path clip-path="url(#p5f4914bfa8)" d="M 351.500508 307.584 
L 353.63627 307.584 
L 353.63627 307.350037 
L 351.500508 307.350037 
z
" style="fill:#1f77b4;"/>
   </g>
   <g id="patch_82">
    <path clip-path="url(#p5f4914bfa8)" d="M 353.63627 307.584 
L 355.772032 307.584 
L 355.772032 307.437773 
L 353.63627 307.437773 
z
" style="fill:#1f77b4;"/>
   </g>
   <g id="patch_83">
    <path clip-path="url(#p5f4914bfa8)" d="M 355.772032 307.584 
L 357.907794 307.584 
L 357.907794 307.525509 
L 355.772032 307.525509 
z
" style="fill:#1f77b4;"/>
   </g>
   <g id="patch_84">
    <path clip-path="url(#p5f4914bfa8)" d="M 357.907794 307.584 
L 360.043556 307.584 
L 360.043556 307.481641 
L 357.907794 307.481641 
z
" style="fill:#1f77b4;"/>
   </g>
   <g id="patch_85">
    <path clip-path="url(#p5f4914bfa8)" d="M 360.043556 307.584 
L 362.179318 307.584 
L 362.179318 307.554755 
L 360.043556 307.554755 
z
" style="fill:#1f77b4;"/>
   </g>
   <g id="patch_86">
    <path clip-path="url(#p5f4914bfa8)" d="M 362.179318 307.584 
L 364.31508 307.584 
L 364.31508 307.496264 
L 362.179318 307.496264 
z
" style="fill:#1f77b4;"/>
   </g>
   <g id="patch_87">
    <path clip-path="url(#p5f4914bfa8)" d="M 364.31508 307.584 
L 366.450842 307.584 
L 366.450842 307.525509 
L 364.31508 307.525509 
z
" style="fill:#1f77b4;"/>
   </g>
   <g id="patch_88">
    <path clip-path="url(#p5f4914bfa8)" d="M 366.450842 307.584 
L 368.586604 307.584 
L 368.586604 307.554755 
L 366.450842 307.554755 
z
" style="fill:#1f77b4;"/>
   </g>
   <g id="patch_89">
    <path clip-path="url(#p5f4914bfa8)" d="M 368.586604 307.584 
L 370.722366 307.584 
L 370.722366 307.569377 
L 368.586604 307.569377 
z
" style="fill:#1f77b4;"/>
   </g>
   <g id="patch_90">
    <path clip-path="url(#p5f4914bfa8)" d="M 370.722366 307.584 
L 372.858128 307.584 
L 372.858128 307.540132 
L 370.722366 307.540132 
z
" style="fill:#1f77b4;"/>
   </g>
   <g id="patch_91">
    <path clip-path="url(#p5f4914bfa8)" d="M 372.858128 307.584 
L 374.99389 307.584 
L 374.99389 307.584 
L 372.858128 307.584 
z
" style="fill:#1f77b4;"/>
   </g>
   <g id="patch_92">
    <path clip-path="url(#p5f4914bfa8)" d="M 374.99389 307.584 
L 377.129652 307.584 
L 377.129652 307.584 
L 374.99389 307.584 
z
" style="fill:#1f77b4;"/>
   </g>
   <g id="patch_93">
    <path clip-path="url(#p5f4914bfa8)" d="M 377.129652 307.584 
L 379.265414 307.584 
L 379.265414 307.584 
L 377.129652 307.584 
z
" style="fill:#1f77b4;"/>
   </g>
   <g id="patch_94">
    <path clip-path="url(#p5f4914bfa8)" d="M 379.265414 307.584 
L 381.401176 307.584 
L 381.401176 307.584 
L 379.265414 307.584 
z
" style="fill:#1f77b4;"/>
   </g>
   <g id="patch_95">
    <path clip-path="url(#p5f4914bfa8)" d="M 381.401176 307.584 
L 383.536938 307.584 
L 383.536938 307.584 
L 381.401176 307.584 
z
" style="fill:#1f77b4;"/>
   </g>
   <g id="patch_96">
    <path clip-path="url(#p5f4914bfa8)" d="M 383.536938 307.584 
L 385.6727 307.584 
L 385.6727 307.584 
L 383.536938 307.584 
z
" style="fill:#1f77b4;"/>
   </g>
   <g id="patch_97">
    <path clip-path="url(#p5f4914bfa8)" d="M 385.6727 307.584 
L 387.808463 307.584 
L 387.808463 307.584 
L 385.6727 307.584 
z
" style="fill:#1f77b4;"/>
   </g>
   <g id="patch_98">
    <path clip-path="url(#p5f4914bfa8)" d="M 387.808463 307.584 
L 389.944225 307.584 
L 389.944225 307.584 
L 387.808463 307.584 
z
" style="fill:#1f77b4;"/>
   </g>
   <g id="patch_99">
    <path clip-path="url(#p5f4914bfa8)" d="M 389.944225 307.584 
L 392.079987 307.584 
L 392.079987 307.584 
L 389.944225 307.584 
z
" style="fill:#1f77b4;"/>
   </g>
   <g id="patch_100">
    <path clip-path="url(#p5f4914bfa8)" d="M 392.079987 307.584 
L 394.215749 307.584 
L 394.215749 307.584 
L 392.079987 307.584 
z
" style="fill:#1f77b4;"/>
   </g>
   <g id="patch_101">
    <path clip-path="url(#p5f4914bfa8)" d="M 394.215749 307.584 
L 396.351511 307.584 
L 396.351511 307.584 
L 394.215749 307.584 
z
" style="fill:#1f77b4;"/>
   </g>
   <g id="patch_102">
    <path clip-path="url(#p5f4914bfa8)" d="M 396.351511 307.584 
L 398.487273 307.584 
L 398.487273 307.569377 
L 396.351511 307.569377 
z
" style="fill:#1f77b4;"/>
   </g>
   <g id="matplotlib.axis_1">
    <g id="xtick_1">
     <g id="line2d_1">
      <defs>
       <path d="M 0 0 
L 0 3.5 
" id="md239c26e59" style="stroke:#000000;stroke-width:0.8;"/>
      </defs>
      <g>
       <use style="stroke:#000000;stroke-width:0.8;" x="104.2526" xlink:href="#md239c26e59" y="307.584"/>
      </g>
     </g>
     <g id="text_1">
      <!-- −2 -->
      <defs>
       <path d="M 10.59375 35.5 
L 73.1875 35.5 
L 73.1875 27.203125 
L 10.59375 27.203125 
z
" id="DejaVuSans-8722"/>
       <path d="M 19.1875 8.296875 
L 53.609375 8.296875 
L 53.609375 0 
L 7.328125 0 
L 7.328125 8.296875 
Q 12.9375 14.109375 22.625 23.890625 
Q 32.328125 33.6875 34.8125 36.53125 
Q 39.546875 41.84375 41.421875 45.53125 
Q 43.3125 49.21875 43.3125 52.78125 
Q 43.3125 58.59375 39.234375 62.25 
Q 35.15625 65.921875 28.609375 65.921875 
Q 23.96875 65.921875 18.8125 64.3125 
Q 13.671875 62.703125 7.8125 59.421875 
L 7.8125 69.390625 
Q 13.765625 71.78125 18.9375 73 
Q 24.125 74.21875 28.421875 74.21875 
Q 39.75 74.21875 46.484375 68.546875 
Q 53.21875 62.890625 53.21875 53.421875 
Q 53.21875 48.921875 51.53125 44.890625 
Q 49.859375 40.875 45.40625 35.40625 
Q 44.1875 33.984375 37.640625 27.21875 
Q 31.109375 20.453125 19.1875 8.296875 
z
" id="DejaVuSans-50"/>
      </defs>
      <g transform="translate(91.721741 327.501344)scale(0.17 -0.17)">
       <use xlink:href="#DejaVuSans-8722"/>
       <use x="83.789062" xlink:href="#DejaVuSans-50"/>
      </g>
     </g>
    </g>
    <g id="xtick_2">
     <g id="line2d_2">
      <g>
       <use style="stroke:#000000;stroke-width:0.8;" x="165.092345" xlink:href="#md239c26e59" y="307.584"/>
      </g>
     </g>
     <g id="text_2">
      <!-- −1 -->
      <defs>
       <path d="M 12.40625 8.296875 
L 28.515625 8.296875 
L 28.515625 63.921875 
L 10.984375 60.40625 
L 10.984375 69.390625 
L 28.421875 72.90625 
L 38.28125 72.90625 
L 38.28125 8.296875 
L 54.390625 8.296875 
L 54.390625 0 
L 12.40625 0 
z
" id="DejaVuSans-49"/>
      </defs>
      <g transform="translate(152.561486 327.501344)scale(0.17 -0.17)">
       <use xlink:href="#DejaVuSans-8722"/>
       <use x="83.789062" xlink:href="#DejaVuSans-49"/>
      </g>
     </g>
    </g>
    <g id="xtick_3">
     <g id="line2d_3">
      <g>
       <use style="stroke:#000000;stroke-width:0.8;" x="225.93209" xlink:href="#md239c26e59" y="307.584"/>
      </g>
     </g>
     <g id="text_3">
      <!-- 0 -->
      <defs>
       <path d="M 31.78125 66.40625 
Q 24.171875 66.40625 20.328125 58.90625 
Q 16.5 51.421875 16.5 36.375 
Q 16.5 21.390625 20.328125 13.890625 
Q 24.171875 6.390625 31.78125 6.390625 
Q 39.453125 6.390625 43.28125 13.890625 
Q 47.125 21.390625 47.125 36.375 
Q 47.125 51.421875 43.28125 58.90625 
Q 39.453125 66.40625 31.78125 66.40625 
z
M 31.78125 74.21875 
Q 44.046875 74.21875 50.515625 64.515625 
Q 56.984375 54.828125 56.984375 36.375 
Q 56.984375 17.96875 50.515625 8.265625 
Q 44.046875 -1.421875 31.78125 -1.421875 
Q 19.53125 -1.421875 13.0625 8.265625 
Q 6.59375 17.96875 6.59375 36.375 
Q 6.59375 54.828125 13.0625 64.515625 
Q 19.53125 74.21875 31.78125 74.21875 
z
" id="DejaVuSans-48"/>
      </defs>
      <g transform="translate(220.523965 327.501344)scale(0.17 -0.17)">
       <use xlink:href="#DejaVuSans-48"/>
      </g>
     </g>
    </g>
    <g id="xtick_4">
     <g id="line2d_4">
      <g>
       <use style="stroke:#000000;stroke-width:0.8;" x="286.771836" xlink:href="#md239c26e59" y="307.584"/>
      </g>
     </g>
     <g id="text_4">
      <!-- 1 -->
      <g transform="translate(281.363711 327.501344)scale(0.17 -0.17)">
       <use xlink:href="#DejaVuSans-49"/>
      </g>
     </g>
    </g>
    <g id="xtick_5">
     <g id="line2d_5">
      <g>
       <use style="stroke:#000000;stroke-width:0.8;" x="347.611581" xlink:href="#md239c26e59" y="307.584"/>
      </g>
     </g>
     <g id="text_5">
      <!-- 2 -->
      <g transform="translate(342.203456 327.501344)scale(0.17 -0.17)">
       <use xlink:href="#DejaVuSans-50"/>
      </g>
     </g>
    </g>
    <g id="xtick_6">
     <g id="line2d_6">
      <g>
       <use style="stroke:#000000;stroke-width:0.8;" x="408.451326" xlink:href="#md239c26e59" y="307.584"/>
      </g>
     </g>
     <g id="text_6">
      <!-- 3 -->
      <defs>
       <path d="M 40.578125 39.3125 
Q 47.65625 37.796875 51.625 33 
Q 55.609375 28.21875 55.609375 21.1875 
Q 55.609375 10.40625 48.1875 4.484375 
Q 40.765625 -1.421875 27.09375 -1.421875 
Q 22.515625 -1.421875 17.65625 -0.515625 
Q 12.796875 0.390625 7.625 2.203125 
L 7.625 11.71875 
Q 11.71875 9.328125 16.59375 8.109375 
Q 21.484375 6.890625 26.8125 6.890625 
Q 36.078125 6.890625 40.9375 10.546875 
Q 45.796875 14.203125 45.796875 21.1875 
Q 45.796875 27.640625 41.28125 31.265625 
Q 36.765625 34.90625 28.71875 34.90625 
L 20.21875 34.90625 
L 20.21875 43.015625 
L 29.109375 43.015625 
Q 36.375 43.015625 40.234375 45.921875 
Q 44.09375 48.828125 44.09375 54.296875 
Q 44.09375 59.90625 40.109375 62.90625 
Q 36.140625 65.921875 28.71875 65.921875 
Q 24.65625 65.921875 20.015625 65.03125 
Q 15.375 64.15625 9.8125 62.3125 
L 9.8125 71.09375 
Q 15.4375 72.65625 20.34375 73.4375 
Q 25.25 74.21875 29.59375 74.21875 
Q 40.828125 74.21875 47.359375 69.109375 
Q 53.90625 64.015625 53.90625 55.328125 
Q 53.90625 49.265625 50.4375 45.09375 
Q 46.96875 40.921875 40.578125 39.3125 
z
" id="DejaVuSans-51"/>
      </defs>
      <g transform="translate(403.043201 327.501344)scale(0.17 -0.17)">
       <use xlink:href="#DejaVuSans-51"/>
      </g>
     </g>
    </g>
    <g id="text_7">
     <!-- Compressed value -->
     <defs>
      <path d="M 64.40625 67.28125 
L 64.40625 56.890625 
Q 59.421875 61.53125 53.78125 63.8125 
Q 48.140625 66.109375 41.796875 66.109375 
Q 29.296875 66.109375 22.65625 58.46875 
Q 16.015625 50.828125 16.015625 36.375 
Q 16.015625 21.96875 22.65625 14.328125 
Q 29.296875 6.6875 41.796875 6.6875 
Q 48.140625 6.6875 53.78125 8.984375 
Q 59.421875 11.28125 64.40625 15.921875 
L 64.40625 5.609375 
Q 59.234375 2.09375 53.4375 0.328125 
Q 47.65625 -1.421875 41.21875 -1.421875 
Q 24.65625 -1.421875 15.125 8.703125 
Q 5.609375 18.84375 5.609375 36.375 
Q 5.609375 53.953125 15.125 64.078125 
Q 24.65625 74.21875 41.21875 74.21875 
Q 47.75 74.21875 53.53125 72.484375 
Q 59.328125 70.75 64.40625 67.28125 
z
" id="DejaVuSans-67"/>
      <path d="M 30.609375 48.390625 
Q 23.390625 48.390625 19.1875 42.75 
Q 14.984375 37.109375 14.984375 27.296875 
Q 14.984375 17.484375 19.15625 11.84375 
Q 23.34375 6.203125 30.609375 6.203125 
Q 37.796875 6.203125 41.984375 11.859375 
Q 46.1875 17.53125 46.1875 27.296875 
Q 46.1875 37.015625 41.984375 42.703125 
Q 37.796875 48.390625 30.609375 48.390625 
z
M 30.609375 56 
Q 42.328125 56 49.015625 48.375 
Q 55.71875 40.765625 55.71875 27.296875 
Q 55.71875 13.875 49.015625 6.21875 
Q 42.328125 -1.421875 30.609375 -1.421875 
Q 18.84375 -1.421875 12.171875 6.21875 
Q 5.515625 13.875 5.515625 27.296875 
Q 5.515625 40.765625 12.171875 48.375 
Q 18.84375 56 30.609375 56 
z
" id="DejaVuSans-111"/>
      <path d="M 52 44.1875 
Q 55.375 50.25 60.0625 53.125 
Q 64.75 56 71.09375 56 
Q 79.640625 56 84.28125 50.015625 
Q 88.921875 44.046875 88.921875 33.015625 
L 88.921875 0 
L 79.890625 0 
L 79.890625 32.71875 
Q 79.890625 40.578125 77.09375 44.375 
Q 74.3125 48.1875 68.609375 48.1875 
Q 61.625 48.1875 57.5625 43.546875 
Q 53.515625 38.921875 53.515625 30.90625 
L 53.515625 0 
L 44.484375 0 
L 44.484375 32.71875 
Q 44.484375 40.625 41.703125 44.40625 
Q 38.921875 48.1875 33.109375 48.1875 
Q 26.21875 48.1875 22.15625 43.53125 
Q 18.109375 38.875 18.109375 30.90625 
L 18.109375 0 
L 9.078125 0 
L 9.078125 54.6875 
L 18.109375 54.6875 
L 18.109375 46.1875 
Q 21.1875 51.21875 25.484375 53.609375 
Q 29.78125 56 35.6875 56 
Q 41.65625 56 45.828125 52.96875 
Q 50 49.953125 52 44.1875 
z
" id="DejaVuSans-109"/>
      <path d="M 18.109375 8.203125 
L 18.109375 -20.796875 
L 9.078125 -20.796875 
L 9.078125 54.6875 
L 18.109375 54.6875 
L 18.109375 46.390625 
Q 20.953125 51.265625 25.265625 53.625 
Q 29.59375 56 35.59375 56 
Q 45.5625 56 51.78125 48.09375 
Q 58.015625 40.1875 58.015625 27.296875 
Q 58.015625 14.40625 51.78125 6.484375 
Q 45.5625 -1.421875 35.59375 -1.421875 
Q 29.59375 -1.421875 25.265625 0.953125 
Q 20.953125 3.328125 18.109375 8.203125 
z
M 48.6875 27.296875 
Q 48.6875 37.203125 44.609375 42.84375 
Q 40.53125 48.484375 33.40625 48.484375 
Q 26.265625 48.484375 22.1875 42.84375 
Q 18.109375 37.203125 18.109375 27.296875 
Q 18.109375 17.390625 22.1875 11.75 
Q 26.265625 6.109375 33.40625 6.109375 
Q 40.53125 6.109375 44.609375 11.75 
Q 48.6875 17.390625 48.6875 27.296875 
z
" id="DejaVuSans-112"/>
      <path d="M 41.109375 46.296875 
Q 39.59375 47.171875 37.8125 47.578125 
Q 36.03125 48 33.890625 48 
Q 26.265625 48 22.1875 43.046875 
Q 18.109375 38.09375 18.109375 28.8125 
L 18.109375 0 
L 9.078125 0 
L 9.078125 54.6875 
L 18.109375 54.6875 
L 18.109375 46.1875 
Q 20.953125 51.171875 25.484375 53.578125 
Q 30.03125 56 36.53125 56 
Q 37.453125 56 38.578125 55.875 
Q 39.703125 55.765625 41.0625 55.515625 
z
" id="DejaVuSans-114"/>
      <path d="M 56.203125 29.59375 
L 56.203125 25.203125 
L 14.890625 25.203125 
Q 15.484375 15.921875 20.484375 11.0625 
Q 25.484375 6.203125 34.421875 6.203125 
Q 39.59375 6.203125 44.453125 7.46875 
Q 49.3125 8.734375 54.109375 11.28125 
L 54.109375 2.78125 
Q 49.265625 0.734375 44.1875 -0.34375 
Q 39.109375 -1.421875 33.890625 -1.421875 
Q 20.796875 -1.421875 13.15625 6.1875 
Q 5.515625 13.8125 5.515625 26.8125 
Q 5.515625 40.234375 12.765625 48.109375 
Q 20.015625 56 32.328125 56 
Q 43.359375 56 49.78125 48.890625 
Q 56.203125 41.796875 56.203125 29.59375 
z
M 47.21875 32.234375 
Q 47.125 39.59375 43.09375 43.984375 
Q 39.0625 48.390625 32.421875 48.390625 
Q 24.90625 48.390625 20.390625 44.140625 
Q 15.875 39.890625 15.1875 32.171875 
z
" id="DejaVuSans-101"/>
      <path d="M 44.28125 53.078125 
L 44.28125 44.578125 
Q 40.484375 46.53125 36.375 47.5 
Q 32.28125 48.484375 27.875 48.484375 
Q 21.1875 48.484375 17.84375 46.4375 
Q 14.5 44.390625 14.5 40.28125 
Q 14.5 37.15625 16.890625 35.375 
Q 19.28125 33.59375 26.515625 31.984375 
L 29.59375 31.296875 
Q 39.15625 29.25 43.1875 25.515625 
Q 47.21875 21.78125 47.21875 15.09375 
Q 47.21875 7.46875 41.1875 3.015625 
Q 35.15625 -1.421875 24.609375 -1.421875 
Q 20.21875 -1.421875 15.453125 -0.5625 
Q 10.6875 0.296875 5.421875 2 
L 5.421875 11.28125 
Q 10.40625 8.6875 15.234375 7.390625 
Q 20.0625 6.109375 24.8125 6.109375 
Q 31.15625 6.109375 34.5625 8.28125 
Q 37.984375 10.453125 37.984375 14.40625 
Q 37.984375 18.0625 35.515625 20.015625 
Q 33.0625 21.96875 24.703125 23.78125 
L 21.578125 24.515625 
Q 13.234375 26.265625 9.515625 29.90625 
Q 5.8125 33.546875 5.8125 39.890625 
Q 5.8125 47.609375 11.28125 51.796875 
Q 16.75 56 26.8125 56 
Q 31.78125 56 36.171875 55.265625 
Q 40.578125 54.546875 44.28125 53.078125 
z
" id="DejaVuSans-115"/>
      <path d="M 45.40625 46.390625 
L 45.40625 75.984375 
L 54.390625 75.984375 
L 54.390625 0 
L 45.40625 0 
L 45.40625 8.203125 
Q 42.578125 3.328125 38.25 0.953125 
Q 33.9375 -1.421875 27.875 -1.421875 
Q 17.96875 -1.421875 11.734375 6.484375 
Q 5.515625 14.40625 5.515625 27.296875 
Q 5.515625 40.1875 11.734375 48.09375 
Q 17.96875 56 27.875 56 
Q 33.9375 56 38.25 53.625 
Q 42.578125 51.265625 45.40625 46.390625 
z
M 14.796875 27.296875 
Q 14.796875 17.390625 18.875 11.75 
Q 22.953125 6.109375 30.078125 6.109375 
Q 37.203125 6.109375 41.296875 11.75 
Q 45.40625 17.390625 45.40625 27.296875 
Q 45.40625 37.203125 41.296875 42.84375 
Q 37.203125 48.484375 30.078125 48.484375 
Q 22.953125 48.484375 18.875 42.84375 
Q 14.796875 37.203125 14.796875 27.296875 
z
" id="DejaVuSans-100"/>
      <path id="DejaVuSans-32"/>
      <path d="M 2.984375 54.6875 
L 12.5 54.6875 
L 29.59375 8.796875 
L 46.6875 54.6875 
L 56.203125 54.6875 
L 35.6875 0 
L 23.484375 0 
z
" id="DejaVuSans-118"/>
      <path d="M 34.28125 27.484375 
Q 23.390625 27.484375 19.1875 25 
Q 14.984375 22.515625 14.984375 16.5 
Q 14.984375 11.71875 18.140625 8.90625 
Q 21.296875 6.109375 26.703125 6.109375 
Q 34.1875 6.109375 38.703125 11.40625 
Q 43.21875 16.703125 43.21875 25.484375 
L 43.21875 27.484375 
z
M 52.203125 31.203125 
L 52.203125 0 
L 43.21875 0 
L 43.21875 8.296875 
Q 40.140625 3.328125 35.546875 0.953125 
Q 30.953125 -1.421875 24.3125 -1.421875 
Q 15.921875 -1.421875 10.953125 3.296875 
Q 6 8.015625 6 15.921875 
Q 6 25.140625 12.171875 29.828125 
Q 18.359375 34.515625 30.609375 34.515625 
L 43.21875 34.515625 
L 43.21875 35.40625 
Q 43.21875 41.609375 39.140625 45 
Q 35.0625 48.390625 27.6875 48.390625 
Q 23 48.390625 18.546875 47.265625 
Q 14.109375 46.140625 10.015625 43.890625 
L 10.015625 52.203125 
Q 14.9375 54.109375 19.578125 55.046875 
Q 24.21875 56 28.609375 56 
Q 40.484375 56 46.34375 49.84375 
Q 52.203125 43.703125 52.203125 31.203125 
z
" id="DejaVuSans-97"/>
      <path d="M 9.421875 75.984375 
L 18.40625 75.984375 
L 18.40625 0 
L 9.421875 0 
z
" id="DejaVuSans-108"/>
      <path d="M 8.5 21.578125 
L 8.5 54.6875 
L 17.484375 54.6875 
L 17.484375 21.921875 
Q 17.484375 14.15625 20.5 10.265625 
Q 23.53125 6.390625 29.59375 6.390625 
Q 36.859375 6.390625 41.078125 11.03125 
Q 45.3125 15.671875 45.3125 23.6875 
L 45.3125 54.6875 
L 54.296875 54.6875 
L 54.296875 0 
L 45.3125 0 
L 45.3125 8.40625 
Q 42.046875 3.421875 37.71875 1 
Q 33.40625 -1.421875 27.6875 -1.421875 
Q 18.265625 -1.421875 13.375 4.4375 
Q 8.5 10.296875 8.5 21.578125 
z
M 31.109375 56 
z
" id="DejaVuSans-117"/>
     </defs>
     <g transform="translate(96.861562 357.832125)scale(0.3 -0.3)">
      <use xlink:href="#DejaVuSans-67"/>
      <use x="69.824219" xlink:href="#DejaVuSans-111"/>
      <use x="131.005859" xlink:href="#DejaVuSans-109"/>
      <use x="228.417969" xlink:href="#DejaVuSans-112"/>
      <use x="291.894531" xlink:href="#DejaVuSans-114"/>
      <use x="332.976562" xlink:href="#DejaVuSans-101"/>
      <use x="394.5" xlink:href="#DejaVuSans-115"/>
      <use x="446.599609" xlink:href="#DejaVuSans-115"/>
      <use x="498.699219" xlink:href="#DejaVuSans-101"/>
      <use x="560.222656" xlink:href="#DejaVuSans-100"/>
      <use x="623.699219" xlink:href="#DejaVuSans-32"/>
      <use x="655.486328" xlink:href="#DejaVuSans-118"/>
      <use x="714.666016" xlink:href="#DejaVuSans-97"/>
      <use x="775.945312" xlink:href="#DejaVuSans-108"/>
      <use x="803.728516" xlink:href="#DejaVuSans-117"/>
      <use x="867.107422" xlink:href="#DejaVuSans-101"/>
     </g>
    </g>
   </g>
   <g id="matplotlib.axis_2">
    <g id="ytick_1">
     <g id="line2d_7">
      <defs>
       <path d="M 0 0 
L -3.5 0 
" id="m5b111041a4" style="stroke:#000000;stroke-width:0.8;"/>
      </defs>
      <g>
       <use style="stroke:#000000;stroke-width:0.8;" x="57.6" xlink:href="#m5b111041a4" y="307.584"/>
      </g>
     </g>
     <g id="text_8">
      <!-- 0.00 -->
      <defs>
       <path d="M 10.6875 12.40625 
L 21 12.40625 
L 21 0 
L 10.6875 0 
z
" id="DejaVuSans-46"/>
      </defs>
      <g transform="translate(12.748438 314.042672)scale(0.17 -0.17)">
       <use xlink:href="#DejaVuSans-48"/>
       <use x="63.623047" xlink:href="#DejaVuSans-46"/>
       <use x="95.410156" xlink:href="#DejaVuSans-48"/>
       <use x="159.033203" xlink:href="#DejaVuSans-48"/>
      </g>
     </g>
    </g>
    <g id="ytick_2">
     <g id="line2d_8">
      <g>
       <use style="stroke:#000000;stroke-width:0.8;" x="57.6" xlink:href="#m5b111041a4" y="268.828009"/>
      </g>
     </g>
     <g id="text_9">
      <!-- 0.25 -->
      <defs>
       <path d="M 10.796875 72.90625 
L 49.515625 72.90625 
L 49.515625 64.59375 
L 19.828125 64.59375 
L 19.828125 46.734375 
Q 21.96875 47.46875 24.109375 47.828125 
Q 26.265625 48.1875 28.421875 48.1875 
Q 40.625 48.1875 47.75 41.5 
Q 54.890625 34.8125 54.890625 23.390625 
Q 54.890625 11.625 47.5625 5.09375 
Q 40.234375 -1.421875 26.90625 -1.421875 
Q 22.3125 -1.421875 17.546875 -0.640625 
Q 12.796875 0.140625 7.71875 1.703125 
L 7.71875 11.625 
Q 12.109375 9.234375 16.796875 8.0625 
Q 21.484375 6.890625 26.703125 6.890625 
Q 35.15625 6.890625 40.078125 11.328125 
Q 45.015625 15.765625 45.015625 23.390625 
Q 45.015625 31 40.078125 35.4375 
Q 35.15625 39.890625 26.703125 39.890625 
Q 22.75 39.890625 18.8125 39.015625 
Q 14.890625 38.140625 10.796875 36.28125 
z
" id="DejaVuSans-53"/>
      </defs>
      <g transform="translate(12.748438 275.286681)scale(0.17 -0.17)">
       <use xlink:href="#DejaVuSans-48"/>
       <use x="63.623047" xlink:href="#DejaVuSans-46"/>
       <use x="95.410156" xlink:href="#DejaVuSans-50"/>
       <use x="159.033203" xlink:href="#DejaVuSans-53"/>
      </g>
     </g>
    </g>
    <g id="ytick_3">
     <g id="line2d_9">
      <g>
       <use style="stroke:#000000;stroke-width:0.8;" x="57.6" xlink:href="#m5b111041a4" y="230.072018"/>
      </g>
     </g>
     <g id="text_10">
      <!-- 0.50 -->
      <g transform="translate(12.748438 236.53069)scale(0.17 -0.17)">
       <use xlink:href="#DejaVuSans-48"/>
       <use x="63.623047" xlink:href="#DejaVuSans-46"/>
       <use x="95.410156" xlink:href="#DejaVuSans-53"/>
       <use x="159.033203" xlink:href="#DejaVuSans-48"/>
      </g>
     </g>
    </g>
    <g id="ytick_4">
     <g id="line2d_10">
      <g>
       <use style="stroke:#000000;stroke-width:0.8;" x="57.6" xlink:href="#m5b111041a4" y="191.316027"/>
      </g>
     </g>
     <g id="text_11">
      <!-- 0.75 -->
      <defs>
       <path d="M 8.203125 72.90625 
L 55.078125 72.90625 
L 55.078125 68.703125 
L 28.609375 0 
L 18.3125 0 
L 43.21875 64.59375 
L 8.203125 64.59375 
z
" id="DejaVuSans-55"/>
      </defs>
      <g transform="translate(12.748438 197.774699)scale(0.17 -0.17)">
       <use xlink:href="#DejaVuSans-48"/>
       <use x="63.623047" xlink:href="#DejaVuSans-46"/>
       <use x="95.410156" xlink:href="#DejaVuSans-55"/>
       <use x="159.033203" xlink:href="#DejaVuSans-53"/>
      </g>
     </g>
    </g>
    <g id="ytick_5">
     <g id="line2d_11">
      <g>
       <use style="stroke:#000000;stroke-width:0.8;" x="57.6" xlink:href="#m5b111041a4" y="152.560036"/>
      </g>
     </g>
     <g id="text_12">
      <!-- 1.00 -->
      <g transform="translate(12.748438 159.018708)scale(0.17 -0.17)">
       <use xlink:href="#DejaVuSans-49"/>
       <use x="63.623047" xlink:href="#DejaVuSans-46"/>
       <use x="95.410156" xlink:href="#DejaVuSans-48"/>
       <use x="159.033203" xlink:href="#DejaVuSans-48"/>
      </g>
     </g>
    </g>
    <g id="ytick_6">
     <g id="line2d_12">
      <g>
       <use style="stroke:#000000;stroke-width:0.8;" x="57.6" xlink:href="#m5b111041a4" y="113.804045"/>
      </g>
     </g>
     <g id="text_13">
      <!-- 1.25 -->
      <g transform="translate(12.748438 120.262716)scale(0.17 -0.17)">
       <use xlink:href="#DejaVuSans-49"/>
       <use x="63.623047" xlink:href="#DejaVuSans-46"/>
       <use x="95.410156" xlink:href="#DejaVuSans-50"/>
       <use x="159.033203" xlink:href="#DejaVuSans-53"/>
      </g>
     </g>
    </g>
    <g id="ytick_7">
     <g id="line2d_13">
      <g>
       <use style="stroke:#000000;stroke-width:0.8;" x="57.6" xlink:href="#m5b111041a4" y="75.048054"/>
      </g>
     </g>
     <g id="text_14">
      <!-- 1.50 -->
      <g transform="translate(12.748438 81.506725)scale(0.17 -0.17)">
       <use xlink:href="#DejaVuSans-49"/>
       <use x="63.623047" xlink:href="#DejaVuSans-46"/>
       <use x="95.410156" xlink:href="#DejaVuSans-53"/>
       <use x="159.033203" xlink:href="#DejaVuSans-48"/>
      </g>
     </g>
    </g>
    <g id="text_15">
     <!-- Density -->
     <defs>
      <path d="M 19.671875 64.796875 
L 19.671875 8.109375 
L 31.59375 8.109375 
Q 46.6875 8.109375 53.6875 14.9375 
Q 60.6875 21.78125 60.6875 36.53125 
Q 60.6875 51.171875 53.6875 57.984375 
Q 46.6875 64.796875 31.59375 64.796875 
z
M 9.8125 72.90625 
L 30.078125 72.90625 
Q 51.265625 72.90625 61.171875 64.09375 
Q 71.09375 55.28125 71.09375 36.53125 
Q 71.09375 17.671875 61.125 8.828125 
Q 51.171875 0 30.078125 0 
L 9.8125 0 
z
" id="DejaVuSans-68"/>
      <path d="M 54.890625 33.015625 
L 54.890625 0 
L 45.90625 0 
L 45.90625 32.71875 
Q 45.90625 40.484375 42.875 44.328125 
Q 39.84375 48.1875 33.796875 48.1875 
Q 26.515625 48.1875 22.3125 43.546875 
Q 18.109375 38.921875 18.109375 30.90625 
L 18.109375 0 
L 9.078125 0 
L 9.078125 54.6875 
L 18.109375 54.6875 
L 18.109375 46.1875 
Q 21.34375 51.125 25.703125 53.5625 
Q 30.078125 56 35.796875 56 
Q 45.21875 56 50.046875 50.171875 
Q 54.890625 44.34375 54.890625 33.015625 
z
" id="DejaVuSans-110"/>
      <path d="M 9.421875 54.6875 
L 18.40625 54.6875 
L 18.40625 0 
L 9.421875 0 
z
M 9.421875 75.984375 
L 18.40625 75.984375 
L 18.40625 64.59375 
L 9.421875 64.59375 
z
" id="DejaVuSans-105"/>
      <path d="M 18.3125 70.21875 
L 18.3125 54.6875 
L 36.8125 54.6875 
L 36.8125 47.703125 
L 18.3125 47.703125 
L 18.3125 18.015625 
Q 18.3125 11.328125 20.140625 9.421875 
Q 21.96875 7.515625 27.59375 7.515625 
L 36.8125 7.515625 
L 36.8125 0 
L 27.59375 0 
Q 17.1875 0 13.234375 3.875 
Q 9.28125 7.765625 9.28125 18.015625 
L 9.28125 47.703125 
L 2.6875 47.703125 
L 2.6875 54.6875 
L 9.28125 54.6875 
L 9.28125 70.21875 
z
" id="DejaVuSans-116"/>
      <path d="M 32.171875 -5.078125 
Q 28.375 -14.84375 24.75 -17.8125 
Q 21.140625 -20.796875 15.09375 -20.796875 
L 7.90625 -20.796875 
L 7.90625 -13.28125 
L 13.1875 -13.28125 
Q 16.890625 -13.28125 18.9375 -11.515625 
Q 21 -9.765625 23.484375 -3.21875 
L 25.09375 0.875 
L 2.984375 54.6875 
L 12.5 54.6875 
L 29.59375 11.921875 
L 46.6875 54.6875 
L 56.203125 54.6875 
z
" id="DejaVuSans-121"/>
     </defs>
     <g transform="translate(2.509375 231.553781)rotate(-90)scale(0.3 -0.3)">
      <use xlink:href="#DejaVuSans-68"/>
      <use x="77.001953" xlink:href="#DejaVuSans-101"/>
      <use x="138.525391" xlink:href="#DejaVuSans-110"/>
      <use x="201.904297" xlink:href="#DejaVuSans-115"/>
      <use x="254.003906" xlink:href="#DejaVuSans-105"/>
      <use x="281.787109" xlink:href="#DejaVuSans-116"/>
      <use x="320.996094" xlink:href="#DejaVuSans-121"/>
     </g>
    </g>
   </g>
   <g id="line2d_14">
    <path clip-path="url(#p5f4914bfa8)" d="M 73.832727 307.584 
L 184.903035 307.472923 
L 186.082561 307.16967 
L 186.981055 306.694492 
L 188.437583 305.643051 
L 189.372339 304.607097 
L 190.339329 303.626782 
L 191.40352 302.705189 
L 192.214885 301.531653 
L 195.54848 295.877125 
L 196.42985 293.60786 
L 197.929691 289.945666 
L 198.572336 288.234041 
L 199.76546 284.851621 
L 200.811017 282.621342 
L 201.464742 280.269634 
L 202.107387 278.252544 
L 202.534474 277.6142 
L 202.979189 276.930369 
L 203.348861 275.832147 
L 204.501693 272.087586 
L 205.220388 270.224747 
L 206.02722 267.992021 
L 206.326382 267.770782 
L 206.798293 267.78376 
L 207.131703 267.645357 
L 207.548213 267.183099 
L 208.434116 266.192495 
L 209.373406 265.594708 
L 210.101669 265.38664 
L 210.745825 265.136003 
L 211.269108 264.64641 
L 211.973197 264.037039 
L 212.337832 264.008925 
L 212.773985 264.229935 
L 213.462461 264.546756 
L 214.033085 264.539194 
L 214.383115 264.323017 
L 214.776458 263.772215 
L 215.567677 262.654617 
L 216.160462 261.913435 
L 216.740655 260.662373 
L 217.28358 259.722929 
L 218.372954 258.327931 
L 219.267419 256.549514 
L 220.252035 255.293535 
L 220.899213 253.586832 
L 222.201123 249.698009 
L 223.315176 245.055449 
L 223.976455 241.107706 
L 224.981721 235.047763 
L 225.068851 235.13667 
L 225.194761 235.734344 
L 225.386144 237.926599 
L 225.661636 244.070868 
L 226.220676 263.05586 
L 226.699135 275.43216 
L 227.018946 278.908465 
L 227.253643 279.608887 
L 227.387107 279.562958 
L 227.577483 279.15406 
L 227.977877 277.645717 
L 230.129429 267.9492 
L 231.180526 259.255941 
L 231.932964 252.120244 
L 232.699505 242.17887 
L 233.904212 223.54282 
L 234.614849 208.888697 
L 236.25168 168.435433 
L 238.080398 124.304279 
L 238.783479 113.014514 
L 239.285609 107.932577 
L 239.590815 106.631387 
L 239.724783 106.55901 
L 239.750469 106.579864 
L 239.890984 106.88321 
L 240.126184 108.027469 
L 240.552768 111.427165 
L 241.436656 120.470746 
L 242.147796 130.258651 
L 243.064422 142.333716 
L 243.938238 150.397767 
L 244.544621 154.35634 
L 244.895658 155.457339 
L 245.094092 155.555537 
L 245.251228 155.34829 
L 245.490457 154.586387 
L 245.912508 152.3461 
L 247.188732 144.018509 
L 247.874186 136.540037 
L 248.556619 130.286668 
L 249.726072 120.692985 
L 250.912648 108.962436 
L 251.350312 106.91251 
L 251.706385 106.158186 
L 251.981373 106.001124 
L 252.171245 106.131079 
L 252.369176 106.588546 
L 252.604376 107.78373 
L 252.895984 110.589959 
L 253.295874 116.919416 
L 254.07148 133.614207 
L 255.817601 170.880597 
L 256.327285 176.701675 
L 256.796677 179.723518 
L 257.28269 181.522169 
L 257.609553 182.061431 
L 257.790863 182.037567 
L 257.974692 181.729595 
L 258.22903 180.795252 
L 258.569491 178.589254 
L 258.973411 174.387196 
L 259.411074 167.301388 
L 259.933349 154.823031 
L 260.771407 128.465976 
L 262.886192 61.573544 
L 263.297163 56.12906 
L 263.613952 54.358584 
L 263.793752 54.148 
L 263.80735 54.154651 
L 263.929231 54.359088 
L 264.116082 55.203388 
L 264.377471 57.569861 
L 264.729012 63.057967 
L 265.236681 74.948747 
L 265.959909 97.532578 
L 268.233341 172.799309 
L 269.594177 205.912969 
L 270.235311 215.738283 
L 271.100565 225.453655 
L 271.951213 232.641933 
L 273.062747 240.241446 
L 273.544731 242.083617 
L 275.362369 247.07609 
L 277.801499 251.623362 
L 278.427524 252.736466 
L 280.570009 257.296094 
L 281.835154 261.03879 
L 282.225979 261.387503 
L 283.217143 262.021884 
L 283.837124 263.079338 
L 284.769362 264.906722 
L 286.453031 269.11951 
L 288.126124 271.794686 
L 288.42579 271.814168 
L 288.97778 271.788114 
L 289.216002 272.096215 
L 289.539843 272.945911 
L 290.445892 275.50126 
L 290.719368 275.634771 
L 291.377626 275.745535 
L 291.656643 276.245833 
L 292.244895 277.912616 
L 293.038128 279.851366 
L 293.559899 280.648726 
L 293.941659 280.859944 
L 294.585815 281.129592 
L 294.921743 281.637221 
L 296.358125 284.196826 
L 297.753712 285.297478 
L 299.17851 286.801125 
L 300.341919 288.55203 
L 301.241421 289.727448 
L 302.18071 291.052922 
L 302.660176 291.307139 
L 303.924313 291.819117 
L 304.648044 292.351265 
L 305.246368 293.135188 
L 306.4959 294.796464 
L 307.850692 296.221921 
L 308.709399 297.156425 
L 309.174259 297.352548 
L 310.01836 297.607537 
L 311.582163 298.601912 
L 312.387987 298.797431 
L 314.268077 299.849331 
L 315.866631 301.004067 
L 317.205307 301.652159 
L 317.762836 301.519276 
L 318.343534 301.46113 
L 318.88948 301.659637 
L 319.806609 302.263359 
L 320.767051 302.841151 
L 321.397608 302.922366 
L 322.059895 303.060756 
L 323.258559 303.466695 
L 323.87854 303.605548 
L 325.299813 304.197889 
L 326.240613 304.2738 
L 326.836923 304.574612 
L 328.021485 305.261452 
L 329.51629 305.559813 
L 331.325365 305.251354 
L 332.76074 305.625272 
L 335.531769 306.376984 
L 336.2001 306.524111 
L 338.356687 306.600372 
L 339.646006 306.427217 
L 341.482279 306.732749 
L 342.579711 306.798246 
L 347.18248 307.138874 
L 349.356695 306.979332 
L 350.214394 307.070572 
L 352.053688 307.34342 
L 355.714146 307.494109 
L 357.635533 307.4923 
L 360.729899 307.524908 
L 362.565164 307.527013 
L 366.240731 307.53046 
L 370.896382 307.534707 
L 372.388668 307.571443 
L 375.838604 307.584 
L 378.03095 307.584 
L 378.03095 307.584 
" style="fill:none;stroke:#ff7f0e;stroke-linecap:square;stroke-width:1.5;"/>
   </g>
   <g id="patch_103">
    <path d="M 57.6 307.584 
L 57.6 41.472 
" style="fill:none;stroke:#000000;stroke-linecap:square;stroke-linejoin:miter;stroke-width:0.8;"/>
   </g>
   <g id="patch_104">
    <path d="M 414.72 307.584 
L 414.72 41.472 
" style="fill:none;stroke:#000000;stroke-linecap:square;stroke-linejoin:miter;stroke-width:0.8;"/>
   </g>
   <g id="patch_105">
    <path d="M 57.6 307.584 
L 414.72 307.584 
" style="fill:none;stroke:#000000;stroke-linecap:square;stroke-linejoin:miter;stroke-width:0.8;"/>
   </g>
   <g id="patch_106">
    <path d="M 57.6 41.472 
L 414.72 41.472 
" style="fill:none;stroke:#000000;stroke-linecap:square;stroke-linejoin:miter;stroke-width:0.8;"/>
   </g>
  </g>
 </g>
 <defs>
  <clipPath id="p5f4914bfa8">
   <rect height="266.112" width="357.12" x="57.6" y="41.472"/>
  </clipPath>
 </defs>
</svg>
