<?xml version="1.0" encoding="utf-8" standalone="no"?>
<!DOCTYPE svg PUBLIC "-//W3C//DTD SVG 1.1//EN"
  "http://www.w3.org/Graphics/SVG/1.1/DTD/svg11.dtd">
<!-- Created with matplotlib (https://matplotlib.org/) -->
<svg height="345.6pt" version="1.1" viewBox="0 0 460.8 345.6" width="460.8pt" xmlns="http://www.w3.org/2000/svg" xmlns:xlink="http://www.w3.org/1999/xlink">
 <defs>
  <style type="text/css">
*{stroke-linecap:butt;stroke-linejoin:round;}
  </style>
 </defs>
 <g id="figure_1">
  <g id="patch_1">
   <path d="M 0 345.6 
L 460.8 345.6 
L 460.8 0 
L 0 0 
z
" style="fill:#ffffff;"/>
  </g>
  <g id="axes_1">
   <g id="patch_2">
    <path d="M 57.6 307.584 
L 414.72 307.584 
L 414.72 41.472 
L 57.6 41.472 
z
" style="fill:#ffffff;"/>
   </g>
   <g id="patch_3">
    <path clip-path="url(#p09491018d1)" d="M 73.832727 307.584 
L 76.998436 307.584 
L 76.998436 306.963589 
L 73.832727 306.963589 
z
" style="fill:#1f77b4;"/>
   </g>
   <g id="patch_4">
    <path clip-path="url(#p09491018d1)" d="M 76.998436 307.584 
L 80.164145 307.584 
L 80.164145 307.273795 
L 76.998436 307.273795 
z
" style="fill:#1f77b4;"/>
   </g>
   <g id="patch_5">
    <path clip-path="url(#p09491018d1)" d="M 80.164145 307.584 
L 83.329853 307.584 
L 83.329853 307.273795 
L 80.164145 307.273795 
z
" style="fill:#1f77b4;"/>
   </g>
   <g id="patch_6">
    <path clip-path="url(#p09491018d1)" d="M 83.329869 307.584 
L 86.495562 307.584 
L 86.495562 307.584 
L 83.329869 307.584 
z
" style="fill:#1f77b4;"/>
   </g>
   <g id="patch_7">
    <path clip-path="url(#p09491018d1)" d="M 86.495546 307.584 
L 89.661255 307.584 
L 89.661255 306.963589 
L 86.495546 306.963589 
z
" style="fill:#1f77b4;"/>
   </g>
   <g id="patch_8">
    <path clip-path="url(#p09491018d1)" d="M 89.661255 307.584 
L 92.826964 307.584 
L 92.826964 306.343179 
L 89.661255 306.343179 
z
" style="fill:#1f77b4;"/>
   </g>
   <g id="patch_9">
    <path clip-path="url(#p09491018d1)" d="M 92.826964 307.584 
L 95.992672 307.584 
L 95.992672 307.273795 
L 92.826964 307.273795 
z
" style="fill:#1f77b4;"/>
   </g>
   <g id="patch_10">
    <path clip-path="url(#p09491018d1)" d="M 95.992672 307.584 
L 99.158381 307.584 
L 99.158381 306.963589 
L 95.992672 306.963589 
z
" style="fill:#1f77b4;"/>
   </g>
   <g id="patch_11">
    <path clip-path="url(#p09491018d1)" d="M 99.158381 307.584 
L 102.32409 307.584 
L 102.32409 306.343179 
L 99.158381 306.343179 
z
" style="fill:#1f77b4;"/>
   </g>
   <g id="patch_12">
    <path clip-path="url(#p09491018d1)" d="M 102.32409 307.584 
L 105.489798 307.584 
L 105.489798 305.102358 
L 102.32409 305.102358 
z
" style="fill:#1f77b4;"/>
   </g>
   <g id="patch_13">
    <path clip-path="url(#p09491018d1)" d="M 105.489798 307.584 
L 108.655499 307.584 
L 108.655499 305.102352 
L 105.489798 305.102352 
z
" style="fill:#1f77b4;"/>
   </g>
   <g id="patch_14">
    <path clip-path="url(#p09491018d1)" d="M 108.655499 307.584 
L 111.821208 307.584 
L 111.821208 304.792152 
L 108.655499 304.792152 
z
" style="fill:#1f77b4;"/>
   </g>
   <g id="patch_15">
    <path clip-path="url(#p09491018d1)" d="M 111.8212 307.584 
L 114.986901 307.584 
L 114.986901 302.930909 
L 111.8212 302.930909 
z
" style="fill:#1f77b4;"/>
   </g>
   <g id="patch_16">
    <path clip-path="url(#p09491018d1)" d="M 114.986909 307.584 
L 118.152618 307.584 
L 118.152618 303.551331 
L 114.986909 303.551331 
z
" style="fill:#1f77b4;"/>
   </g>
   <g id="patch_17">
    <path clip-path="url(#p09491018d1)" d="M 118.152618 307.584 
L 121.318326 307.584 
L 121.318326 301.069689 
L 118.152618 301.069689 
z
" style="fill:#1f77b4;"/>
   </g>
   <g id="patch_18">
    <path clip-path="url(#p09491018d1)" d="M 121.318326 307.584 
L 124.484035 307.584 
L 124.484035 297.967636 
L 121.318326 297.967636 
z
" style="fill:#1f77b4;"/>
   </g>
   <g id="patch_19">
    <path clip-path="url(#p09491018d1)" d="M 124.484035 307.584 
L 127.649736 307.584 
L 127.649736 297.036995 
L 124.484035 297.036995 
z
" style="fill:#1f77b4;"/>
   </g>
   <g id="patch_20">
    <path clip-path="url(#p09491018d1)" d="M 127.649736 307.584 
L 130.815445 307.584 
L 130.815445 297.347226 
L 127.649736 297.347226 
z
" style="fill:#1f77b4;"/>
   </g>
   <g id="patch_21">
    <path clip-path="url(#p09491018d1)" d="M 130.815445 307.584 
L 133.981153 307.584 
L 133.981153 293.934968 
L 130.815445 293.934968 
z
" style="fill:#1f77b4;"/>
   </g>
   <g id="patch_22">
    <path clip-path="url(#p09491018d1)" d="M 133.981145 307.584 
L 137.146846 307.584 
L 137.146846 286.800195 
L 133.981145 286.800195 
z
" style="fill:#1f77b4;"/>
   </g>
   <g id="patch_23">
    <path clip-path="url(#p09491018d1)" d="M 137.146854 307.584 
L 140.312563 307.584 
L 140.312563 288.661478 
L 137.146854 288.661478 
z
" style="fill:#1f77b4;"/>
   </g>
   <g id="patch_24">
    <path clip-path="url(#p09491018d1)" d="M 140.312563 307.584 
L 143.478271 307.584 
L 143.478271 282.767578 
L 140.312563 282.767578 
z
" style="fill:#1f77b4;"/>
   </g>
   <g id="patch_25">
    <path clip-path="url(#p09491018d1)" d="M 143.478271 307.584 
L 146.64398 307.584 
L 146.64398 283.077783 
L 143.478271 283.077783 
z
" style="fill:#1f77b4;"/>
   </g>
   <g id="patch_26">
    <path clip-path="url(#p09491018d1)" d="M 146.64398 307.584 
L 149.809681 307.584 
L 149.809681 282.457311 
L 146.64398 282.457311 
z
" style="fill:#1f77b4;"/>
   </g>
   <g id="patch_27">
    <path clip-path="url(#p09491018d1)" d="M 149.809681 307.584 
L 152.97539 307.584 
L 152.97539 282.767578 
L 149.809681 282.767578 
z
" style="fill:#1f77b4;"/>
   </g>
   <g id="patch_28">
    <path clip-path="url(#p09491018d1)" d="M 152.97539 307.584 
L 156.141098 307.584 
L 156.141098 279.045114 
L 152.97539 279.045114 
z
" style="fill:#1f77b4;"/>
   </g>
   <g id="patch_29">
    <path clip-path="url(#p09491018d1)" d="M 156.141091 307.584 
L 159.306792 307.584 
L 159.306792 275.012366 
L 156.141091 275.012366 
z
" style="fill:#1f77b4;"/>
   </g>
   <g id="patch_30">
    <path clip-path="url(#p09491018d1)" d="M 159.306799 307.584 
L 162.472508 307.584 
L 162.472508 267.877724 
L 159.306799 267.877724 
z
" style="fill:#1f77b4;"/>
   </g>
   <g id="patch_31">
    <path clip-path="url(#p09491018d1)" d="M 162.472508 307.584 
L 165.638217 307.584 
L 165.638217 266.016493 
L 162.472508 266.016493 
z
" style="fill:#1f77b4;"/>
   </g>
   <g id="patch_32">
    <path clip-path="url(#p09491018d1)" d="M 165.638217 307.584 
L 168.803925 307.584 
L 168.803925 257.951155 
L 165.638217 257.951155 
z
" style="fill:#1f77b4;"/>
   </g>
   <g id="patch_33">
    <path clip-path="url(#p09491018d1)" d="M 168.803925 307.584 
L 171.96963 307.584 
L 171.96963 247.714308 
L 168.803925 247.714308 
z
" style="fill:#1f77b4;"/>
   </g>
   <g id="patch_34">
    <path clip-path="url(#p09491018d1)" d="M 171.969626 307.584 
L 175.135331 307.584 
L 175.135331 234.375465 
L 171.969626 234.375465 
z
" style="fill:#1f77b4;"/>
   </g>
   <g id="patch_35">
    <path clip-path="url(#p09491018d1)" d="M 175.135335 307.584 
L 178.301044 307.584 
L 178.301044 235.616375 
L 175.135335 235.616375 
z
" style="fill:#1f77b4;"/>
   </g>
   <g id="patch_36">
    <path clip-path="url(#p09491018d1)" d="M 178.301044 307.584 
L 181.466748 307.584 
L 181.466748 230.342791 
L 178.301044 230.342791 
z
" style="fill:#1f77b4;"/>
   </g>
   <g id="patch_37">
    <path clip-path="url(#p09491018d1)" d="M 181.466744 307.584 
L 184.632449 307.584 
L 184.632449 223.208061 
L 181.466744 223.208061 
z
" style="fill:#1f77b4;"/>
   </g>
   <g id="patch_38">
    <path clip-path="url(#p09491018d1)" d="M 184.632453 307.584 
L 187.798162 307.584 
L 187.798162 229.102064 
L 184.632453 229.102064 
z
" style="fill:#1f77b4;"/>
   </g>
   <g id="patch_39">
    <path clip-path="url(#p09491018d1)" d="M 187.798162 307.584 
L 190.963867 307.584 
L 190.963867 234.065259 
L 187.798162 234.065259 
z
" style="fill:#1f77b4;"/>
   </g>
   <g id="patch_40">
    <path clip-path="url(#p09491018d1)" d="M 190.963867 307.584 
L 194.129575 307.584 
L 194.129575 231.583707 
L 190.963867 231.583707 
z
" style="fill:#1f77b4;"/>
   </g>
   <g id="patch_41">
    <path clip-path="url(#p09491018d1)" d="M 194.129571 307.584 
L 197.295276 307.584 
L 197.295276 225.689706 
L 194.129571 225.689706 
z
" style="fill:#1f77b4;"/>
   </g>
   <g id="patch_42">
    <path clip-path="url(#p09491018d1)" d="M 197.29528 307.584 
L 200.460989 307.584 
L 200.460989 215.453032 
L 197.29528 215.453032 
z
" style="fill:#1f77b4;"/>
   </g>
   <g id="patch_43">
    <path clip-path="url(#p09491018d1)" d="M 200.460989 307.584 
L 203.626693 307.584 
L 203.626693 218.24477 
L 200.460989 218.24477 
z
" style="fill:#1f77b4;"/>
   </g>
   <g id="patch_44">
    <path clip-path="url(#p09491018d1)" d="M 203.626693 307.584 
L 206.7924 307.584 
L 206.7924 220.726469 
L 203.626693 220.726469 
z
" style="fill:#1f77b4;"/>
   </g>
   <g id="patch_45">
    <path clip-path="url(#p09491018d1)" d="M 206.792398 307.584 
L 209.958105 307.584 
L 209.958105 220.106058 
L 206.792398 220.106058 
z
" style="fill:#1f77b4;"/>
   </g>
   <g id="patch_46">
    <path clip-path="url(#p09491018d1)" d="M 209.958107 307.584 
L 213.123814 307.584 
L 213.123814 219.175441 
L 209.958107 219.175441 
z
" style="fill:#1f77b4;"/>
   </g>
   <g id="patch_47">
    <path clip-path="url(#p09491018d1)" d="M 213.123812 307.584 
L 216.289518 307.584 
L 216.289518 201.803935 
L 213.123812 201.803935 
z
" style="fill:#1f77b4;"/>
   </g>
   <g id="patch_48">
    <path clip-path="url(#p09491018d1)" d="M 216.28952 307.584 
L 219.455225 307.584 
L 219.455225 207.077367 
L 216.28952 207.077367 
z
" style="fill:#1f77b4;"/>
   </g>
   <g id="patch_49">
    <path clip-path="url(#p09491018d1)" d="M 219.455225 307.584 
L 222.620933 307.584 
L 222.620933 199.012119 
L 219.455225 199.012119 
z
" style="fill:#1f77b4;"/>
   </g>
   <g id="patch_50">
    <path clip-path="url(#p09491018d1)" d="M 222.620934 307.584 
L 225.78664 307.584 
L 225.78664 210.799864 
L 222.620934 210.799864 
z
" style="fill:#1f77b4;"/>
   </g>
   <g id="patch_51">
    <path clip-path="url(#p09491018d1)" d="M 225.786639 307.584 
L 228.952345 307.584 
L 228.952345 200.563113 
L 225.786639 200.563113 
z
" style="fill:#1f77b4;"/>
   </g>
   <g id="patch_52">
    <path clip-path="url(#p09491018d1)" d="M 228.952345 307.584 
L 232.118052 307.584 
L 232.118052 202.114141 
L 228.952345 202.114141 
z
" style="fill:#1f77b4;"/>
   </g>
   <g id="patch_53">
    <path clip-path="url(#p09491018d1)" d="M 232.118052 307.584 
L 235.283759 307.584 
L 235.283759 195.289612 
L 232.118052 195.289612 
z
" style="fill:#1f77b4;"/>
   </g>
   <g id="patch_54">
    <path clip-path="url(#p09491018d1)" d="M 235.283759 307.584 
L 238.449465 307.584 
L 238.449465 121.77091 
L 235.283759 121.77091 
z
" style="fill:#1f77b4;"/>
   </g>
   <g id="patch_55">
    <path clip-path="url(#p09491018d1)" d="M 238.449465 307.584 
L 241.615172 307.584 
L 241.615172 211.420305 
L 238.449465 211.420305 
z
" style="fill:#1f77b4;"/>
   </g>
   <g id="patch_56">
    <path clip-path="url(#p09491018d1)" d="M 241.615171 307.584 
L 244.780877 307.584 
L 244.780877 220.106044 
L 241.615171 220.106044 
z
" style="fill:#1f77b4;"/>
   </g>
   <g id="patch_57">
    <path clip-path="url(#p09491018d1)" d="M 244.780878 307.584 
L 247.946585 307.584 
L 247.946585 223.828523 
L 244.780878 223.828523 
z
" style="fill:#1f77b4;"/>
   </g>
   <g id="patch_58">
    <path clip-path="url(#p09491018d1)" d="M 247.946585 307.584 
L 251.112292 307.584 
L 251.112292 219.175441 
L 247.946585 219.175441 
z
" style="fill:#1f77b4;"/>
   </g>
   <g id="patch_59">
    <path clip-path="url(#p09491018d1)" d="M 251.112292 307.584 
L 254.277997 307.584 
L 254.277997 221.036648 
L 251.112292 221.036648 
z
" style="fill:#1f77b4;"/>
   </g>
   <g id="patch_60">
    <path clip-path="url(#p09491018d1)" d="M 254.277997 307.584 
L 257.443704 307.584 
L 257.443704 238.718386 
L 254.277997 238.718386 
z
" style="fill:#1f77b4;"/>
   </g>
   <g id="patch_61">
    <path clip-path="url(#p09491018d1)" d="M 257.443702 307.584 
L 260.609409 307.584 
L 260.609409 253.298043 
L 257.443702 253.298043 
z
" style="fill:#1f77b4;"/>
   </g>
   <g id="patch_62">
    <path clip-path="url(#p09491018d1)" d="M 260.609411 307.584 
L 263.775117 307.584 
L 263.775117 250.195988 
L 260.609411 250.195988 
z
" style="fill:#1f77b4;"/>
   </g>
   <g id="patch_63">
    <path clip-path="url(#p09491018d1)" d="M 263.775116 307.584 
L 266.940822 307.584 
L 266.940822 259.502152 
L 263.775116 259.502152 
z
" style="fill:#1f77b4;"/>
   </g>
   <g id="patch_64">
    <path clip-path="url(#p09491018d1)" d="M 266.940824 307.584 
L 270.106529 307.584 
L 270.106529 266.016442 
L 266.940824 266.016442 
z
" style="fill:#1f77b4;"/>
   </g>
   <g id="patch_65">
    <path clip-path="url(#p09491018d1)" d="M 270.106529 307.584 
L 273.272238 307.584 
L 273.272238 268.498135 
L 270.106529 268.498135 
z
" style="fill:#1f77b4;"/>
   </g>
   <g id="patch_66">
    <path clip-path="url(#p09491018d1)" d="M 273.272234 307.584 
L 276.437939 307.584 
L 276.437939 265.706236 
L 273.272234 265.706236 
z
" style="fill:#1f77b4;"/>
   </g>
   <g id="patch_67">
    <path clip-path="url(#p09491018d1)" d="M 276.437942 307.584 
L 279.603651 307.584 
L 279.603651 272.530803 
L 276.437942 272.530803 
z
" style="fill:#1f77b4;"/>
   </g>
   <g id="patch_68">
    <path clip-path="url(#p09491018d1)" d="M 279.603651 307.584 
L 282.769356 307.584 
L 282.769356 264.155208 
L 279.603651 264.155208 
z
" style="fill:#1f77b4;"/>
   </g>
   <g id="patch_69">
    <path clip-path="url(#p09491018d1)" d="M 282.769352 307.584 
L 285.935057 307.584 
L 285.935057 257.951095 
L 282.769352 257.951095 
z
" style="fill:#1f77b4;"/>
   </g>
   <g id="patch_70">
    <path clip-path="url(#p09491018d1)" d="M 285.935061 307.584 
L 289.100769 307.584 
L 289.100769 264.155261 
L 285.935061 264.155261 
z
" style="fill:#1f77b4;"/>
   </g>
   <g id="patch_71">
    <path clip-path="url(#p09491018d1)" d="M 289.100769 307.584 
L 292.266474 307.584 
L 292.266474 272.220555 
L 289.100769 272.220555 
z
" style="fill:#1f77b4;"/>
   </g>
   <g id="patch_72">
    <path clip-path="url(#p09491018d1)" d="M 292.266474 307.584 
L 295.432183 307.584 
L 295.432183 271.910393 
L 292.266474 271.910393 
z
" style="fill:#1f77b4;"/>
   </g>
   <g id="patch_73">
    <path clip-path="url(#p09491018d1)" d="M 295.432179 307.584 
L 298.597884 307.584 
L 298.597884 270.359321 
L 295.432179 270.359321 
z
" style="fill:#1f77b4;"/>
   </g>
   <g id="patch_74">
    <path clip-path="url(#p09491018d1)" d="M 298.597888 307.584 
L 301.763596 307.584 
L 301.763596 277.494088 
L 298.597888 277.494088 
z
" style="fill:#1f77b4;"/>
   </g>
   <g id="patch_75">
    <path clip-path="url(#p09491018d1)" d="M 301.763596 307.584 
L 304.929305 307.584 
L 304.929305 281.526757 
L 301.763596 281.526757 
z
" style="fill:#1f77b4;"/>
   </g>
   <g id="patch_76">
    <path clip-path="url(#p09491018d1)" d="M 304.929305 307.584 
L 308.095006 307.584 
L 308.095006 280.906281 
L 304.929305 280.906281 
z
" style="fill:#1f77b4;"/>
   </g>
   <g id="patch_77">
    <path clip-path="url(#p09491018d1)" d="M 308.095006 307.584 
L 311.260715 307.584 
L 311.260715 283.387988 
L 308.095006 283.387988 
z
" style="fill:#1f77b4;"/>
   </g>
   <g id="patch_78">
    <path clip-path="url(#p09491018d1)" d="M 311.260715 307.584 
L 314.426423 307.584 
L 314.426423 285.86963 
L 311.260715 285.86963 
z
" style="fill:#1f77b4;"/>
   </g>
   <g id="patch_79">
    <path clip-path="url(#p09491018d1)" d="M 314.426415 307.584 
L 317.592116 307.584 
L 317.592116 286.179783 
L 314.426415 286.179783 
z
" style="fill:#1f77b4;"/>
   </g>
   <g id="patch_80">
    <path clip-path="url(#p09491018d1)" d="M 317.592124 307.584 
L 320.757833 307.584 
L 320.757833 290.212504 
L 317.592124 290.212504 
z
" style="fill:#1f77b4;"/>
   </g>
   <g id="patch_81">
    <path clip-path="url(#p09491018d1)" d="M 320.757833 307.584 
L 323.923541 307.584 
L 323.923541 287.420657 
L 320.757833 287.420657 
z
" style="fill:#1f77b4;"/>
   </g>
   <g id="patch_82">
    <path clip-path="url(#p09491018d1)" d="M 323.923541 307.584 
L 327.08925 307.584 
L 327.08925 292.383941 
L 323.923541 292.383941 
z
" style="fill:#1f77b4;"/>
   </g>
   <g id="patch_83">
    <path clip-path="url(#p09491018d1)" d="M 327.08925 307.584 
L 330.254951 307.584 
L 330.254951 288.971638 
L 327.08925 288.971638 
z
" style="fill:#1f77b4;"/>
   </g>
   <g id="patch_84">
    <path clip-path="url(#p09491018d1)" d="M 330.254951 307.584 
L 333.42066 307.584 
L 333.42066 290.832915 
L 330.254951 290.832915 
z
" style="fill:#1f77b4;"/>
   </g>
   <g id="patch_85">
    <path clip-path="url(#p09491018d1)" d="M 333.42066 307.584 
L 336.586368 307.584 
L 336.586368 291.14312 
L 333.42066 291.14312 
z
" style="fill:#1f77b4;"/>
   </g>
   <g id="patch_86">
    <path clip-path="url(#p09491018d1)" d="M 336.586361 307.584 
L 339.752062 307.584 
L 339.752062 290.522668 
L 336.586361 290.522668 
z
" style="fill:#1f77b4;"/>
   </g>
   <g id="patch_87">
    <path clip-path="url(#p09491018d1)" d="M 339.752069 307.584 
L 342.917778 307.584 
L 342.917778 291.763531 
L 339.752069 291.763531 
z
" style="fill:#1f77b4;"/>
   </g>
   <g id="patch_88">
    <path clip-path="url(#p09491018d1)" d="M 342.917778 307.584 
L 346.083487 307.584 
L 346.083487 291.14312 
L 342.917778 291.14312 
z
" style="fill:#1f77b4;"/>
   </g>
   <g id="patch_89">
    <path clip-path="url(#p09491018d1)" d="M 346.083487 307.584 
L 349.249195 307.584 
L 349.249195 292.383941 
L 346.083487 292.383941 
z
" style="fill:#1f77b4;"/>
   </g>
   <g id="patch_90">
    <path clip-path="url(#p09491018d1)" d="M 349.249195 307.584 
L 352.414896 307.584 
L 352.414896 301.690085 
L 349.249195 301.690085 
z
" style="fill:#1f77b4;"/>
   </g>
   <g id="patch_91">
    <path clip-path="url(#p09491018d1)" d="M 352.414896 307.584 
L 355.580605 307.584 
L 355.580605 303.241126 
L 352.414896 303.241126 
z
" style="fill:#1f77b4;"/>
   </g>
   <g id="patch_92">
    <path clip-path="url(#p09491018d1)" d="M 355.580605 307.584 
L 358.746314 307.584 
L 358.746314 302.000305 
L 355.580605 302.000305 
z
" style="fill:#1f77b4;"/>
   </g>
   <g id="patch_93">
    <path clip-path="url(#p09491018d1)" d="M 358.746314 307.584 
L 361.912022 307.584 
L 361.912022 300.759484 
L 358.746314 300.759484 
z
" style="fill:#1f77b4;"/>
   </g>
   <g id="patch_94">
    <path clip-path="url(#p09491018d1)" d="M 361.912014 307.584 
L 365.077715 307.584 
L 365.077715 302.000291 
L 361.912014 302.000291 
z
" style="fill:#1f77b4;"/>
   </g>
   <g id="patch_95">
    <path clip-path="url(#p09491018d1)" d="M 365.077723 307.584 
L 368.243432 307.584 
L 368.243432 304.171742 
L 365.077723 304.171742 
z
" style="fill:#1f77b4;"/>
   </g>
   <g id="patch_96">
    <path clip-path="url(#p09491018d1)" d="M 368.243432 307.584 
L 371.40914 307.584 
L 371.40914 306.653384 
L 368.243432 306.653384 
z
" style="fill:#1f77b4;"/>
   </g>
   <g id="patch_97">
    <path clip-path="url(#p09491018d1)" d="M 371.40914 307.584 
L 374.574849 307.584 
L 374.574849 306.963589 
L 371.40914 306.963589 
z
" style="fill:#1f77b4;"/>
   </g>
   <g id="patch_98">
    <path clip-path="url(#p09491018d1)" d="M 374.574849 307.584 
L 377.740558 307.584 
L 377.740558 306.963589 
L 374.574849 306.963589 
z
" style="fill:#1f77b4;"/>
   </g>
   <g id="patch_99">
    <path clip-path="url(#p09491018d1)" d="M 377.740558 307.584 
L 380.906251 307.584 
L 380.906251 305.722759 
L 377.740558 305.722759 
z
" style="fill:#1f77b4;"/>
   </g>
   <g id="patch_100">
    <path clip-path="url(#p09491018d1)" d="M 380.906251 307.584 
L 384.07196 307.584 
L 384.07196 306.653384 
L 380.906251 306.653384 
z
" style="fill:#1f77b4;"/>
   </g>
   <g id="patch_101">
    <path clip-path="url(#p09491018d1)" d="M 384.07196 307.584 
L 387.237668 307.584 
L 387.237668 306.653384 
L 384.07196 306.653384 
z
" style="fill:#1f77b4;"/>
   </g>
   <g id="patch_102">
    <path clip-path="url(#p09491018d1)" d="M 387.237668 307.584 
L 390.403377 307.584 
L 390.403377 306.343179 
L 387.237668 306.343179 
z
" style="fill:#1f77b4;"/>
   </g>
   <g id="matplotlib.axis_1">
    <g id="xtick_1">
     <g id="line2d_1">
      <defs>
       <path d="M 0 0 
L 0 3.5 
" id="m5d2b62463e" style="stroke:#000000;stroke-width:0.8;"/>
      </defs>
      <g>
       <use style="stroke:#000000;stroke-width:0.8;" x="106.311978" xlink:href="#m5d2b62463e" y="307.584"/>
      </g>
     </g>
     <g id="text_1">
      <!-- −2 -->
      <defs>
       <path d="M 10.59375 35.5 
L 73.1875 35.5 
L 73.1875 27.203125 
L 10.59375 27.203125 
z
" id="DejaVuSans-8722"/>
       <path d="M 19.1875 8.296875 
L 53.609375 8.296875 
L 53.609375 0 
L 7.328125 0 
L 7.328125 8.296875 
Q 12.9375 14.109375 22.625 23.890625 
Q 32.328125 33.6875 34.8125 36.53125 
Q 39.546875 41.84375 41.421875 45.53125 
Q 43.3125 49.21875 43.3125 52.78125 
Q 43.3125 58.59375 39.234375 62.25 
Q 35.15625 65.921875 28.609375 65.921875 
Q 23.96875 65.921875 18.8125 64.3125 
Q 13.671875 62.703125 7.8125 59.421875 
L 7.8125 69.390625 
Q 13.765625 71.78125 18.9375 73 
Q 24.125 74.21875 28.421875 74.21875 
Q 39.75 74.21875 46.484375 68.546875 
Q 53.21875 62.890625 53.21875 53.421875 
Q 53.21875 48.921875 51.53125 44.890625 
Q 49.859375 40.875 45.40625 35.40625 
Q 44.1875 33.984375 37.640625 27.21875 
Q 31.109375 20.453125 19.1875 8.296875 
z
" id="DejaVuSans-50"/>
      </defs>
      <g transform="translate(93.781119 327.501344)scale(0.17 -0.17)">
       <use xlink:href="#DejaVuSans-8722"/>
       <use x="83.789062" xlink:href="#DejaVuSans-50"/>
      </g>
     </g>
    </g>
    <g id="xtick_2">
     <g id="line2d_2">
      <g>
       <use style="stroke:#000000;stroke-width:0.8;" x="171.242707" xlink:href="#m5d2b62463e" y="307.584"/>
      </g>
     </g>
     <g id="text_2">
      <!-- −1 -->
      <defs>
       <path d="M 12.40625 8.296875 
L 28.515625 8.296875 
L 28.515625 63.921875 
L 10.984375 60.40625 
L 10.984375 69.390625 
L 28.421875 72.90625 
L 38.28125 72.90625 
L 38.28125 8.296875 
L 54.390625 8.296875 
L 54.390625 0 
L 12.40625 0 
z
" id="DejaVuSans-49"/>
      </defs>
      <g transform="translate(158.711848 327.501344)scale(0.17 -0.17)">
       <use xlink:href="#DejaVuSans-8722"/>
       <use x="83.789062" xlink:href="#DejaVuSans-49"/>
      </g>
     </g>
    </g>
    <g id="xtick_3">
     <g id="line2d_3">
      <g>
       <use style="stroke:#000000;stroke-width:0.8;" x="236.173436" xlink:href="#m5d2b62463e" y="307.584"/>
      </g>
     </g>
     <g id="text_3">
      <!-- 0 -->
      <defs>
       <path d="M 31.78125 66.40625 
Q 24.171875 66.40625 20.328125 58.90625 
Q 16.5 51.421875 16.5 36.375 
Q 16.5 21.390625 20.328125 13.890625 
Q 24.171875 6.390625 31.78125 6.390625 
Q 39.453125 6.390625 43.28125 13.890625 
Q 47.125 21.390625 47.125 36.375 
Q 47.125 51.421875 43.28125 58.90625 
Q 39.453125 66.40625 31.78125 66.40625 
z
M 31.78125 74.21875 
Q 44.046875 74.21875 50.515625 64.515625 
Q 56.984375 54.828125 56.984375 36.375 
Q 56.984375 17.96875 50.515625 8.265625 
Q 44.046875 -1.421875 31.78125 -1.421875 
Q 19.53125 -1.421875 13.0625 8.265625 
Q 6.59375 17.96875 6.59375 36.375 
Q 6.59375 54.828125 13.0625 64.515625 
Q 19.53125 74.21875 31.78125 74.21875 
z
" id="DejaVuSans-48"/>
      </defs>
      <g transform="translate(230.765311 327.501344)scale(0.17 -0.17)">
       <use xlink:href="#DejaVuSans-48"/>
      </g>
     </g>
    </g>
    <g id="xtick_4">
     <g id="line2d_4">
      <g>
       <use style="stroke:#000000;stroke-width:0.8;" x="301.104165" xlink:href="#m5d2b62463e" y="307.584"/>
      </g>
     </g>
     <g id="text_4">
      <!-- 1 -->
      <g transform="translate(295.69604 327.501344)scale(0.17 -0.17)">
       <use xlink:href="#DejaVuSans-49"/>
      </g>
     </g>
    </g>
    <g id="xtick_5">
     <g id="line2d_5">
      <g>
       <use style="stroke:#000000;stroke-width:0.8;" x="366.034894" xlink:href="#m5d2b62463e" y="307.584"/>
      </g>
     </g>
     <g id="text_5">
      <!-- 2 -->
      <g transform="translate(360.626769 327.501344)scale(0.17 -0.17)">
       <use xlink:href="#DejaVuSans-50"/>
      </g>
     </g>
    </g>
    <g id="text_6">
     <!-- Position in Radian -->
     <defs>
      <path d="M 19.671875 64.796875 
L 19.671875 37.40625 
L 32.078125 37.40625 
Q 38.96875 37.40625 42.71875 40.96875 
Q 46.484375 44.53125 46.484375 51.125 
Q 46.484375 57.671875 42.71875 61.234375 
Q 38.96875 64.796875 32.078125 64.796875 
z
M 9.8125 72.90625 
L 32.078125 72.90625 
Q 44.34375 72.90625 50.609375 67.359375 
Q 56.890625 61.8125 56.890625 51.125 
Q 56.890625 40.328125 50.609375 34.8125 
Q 44.34375 29.296875 32.078125 29.296875 
L 19.671875 29.296875 
L 19.671875 0 
L 9.8125 0 
z
" id="DejaVuSans-80"/>
      <path d="M 30.609375 48.390625 
Q 23.390625 48.390625 19.1875 42.75 
Q 14.984375 37.109375 14.984375 27.296875 
Q 14.984375 17.484375 19.15625 11.84375 
Q 23.34375 6.203125 30.609375 6.203125 
Q 37.796875 6.203125 41.984375 11.859375 
Q 46.1875 17.53125 46.1875 27.296875 
Q 46.1875 37.015625 41.984375 42.703125 
Q 37.796875 48.390625 30.609375 48.390625 
z
M 30.609375 56 
Q 42.328125 56 49.015625 48.375 
Q 55.71875 40.765625 55.71875 27.296875 
Q 55.71875 13.875 49.015625 6.21875 
Q 42.328125 -1.421875 30.609375 -1.421875 
Q 18.84375 -1.421875 12.171875 6.21875 
Q 5.515625 13.875 5.515625 27.296875 
Q 5.515625 40.765625 12.171875 48.375 
Q 18.84375 56 30.609375 56 
z
" id="DejaVuSans-111"/>
      <path d="M 44.28125 53.078125 
L 44.28125 44.578125 
Q 40.484375 46.53125 36.375 47.5 
Q 32.28125 48.484375 27.875 48.484375 
Q 21.1875 48.484375 17.84375 46.4375 
Q 14.5 44.390625 14.5 40.28125 
Q 14.5 37.15625 16.890625 35.375 
Q 19.28125 33.59375 26.515625 31.984375 
L 29.59375 31.296875 
Q 39.15625 29.25 43.1875 25.515625 
Q 47.21875 21.78125 47.21875 15.09375 
Q 47.21875 7.46875 41.1875 3.015625 
Q 35.15625 -1.421875 24.609375 -1.421875 
Q 20.21875 -1.421875 15.453125 -0.5625 
Q 10.6875 0.296875 5.421875 2 
L 5.421875 11.28125 
Q 10.40625 8.6875 15.234375 7.390625 
Q 20.0625 6.109375 24.8125 6.109375 
Q 31.15625 6.109375 34.5625 8.28125 
Q 37.984375 10.453125 37.984375 14.40625 
Q 37.984375 18.0625 35.515625 20.015625 
Q 33.0625 21.96875 24.703125 23.78125 
L 21.578125 24.515625 
Q 13.234375 26.265625 9.515625 29.90625 
Q 5.8125 33.546875 5.8125 39.890625 
Q 5.8125 47.609375 11.28125 51.796875 
Q 16.75 56 26.8125 56 
Q 31.78125 56 36.171875 55.265625 
Q 40.578125 54.546875 44.28125 53.078125 
z
" id="DejaVuSans-115"/>
      <path d="M 9.421875 54.6875 
L 18.40625 54.6875 
L 18.40625 0 
L 9.421875 0 
z
M 9.421875 75.984375 
L 18.40625 75.984375 
L 18.40625 64.59375 
L 9.421875 64.59375 
z
" id="DejaVuSans-105"/>
      <path d="M 18.3125 70.21875 
L 18.3125 54.6875 
L 36.8125 54.6875 
L 36.8125 47.703125 
L 18.3125 47.703125 
L 18.3125 18.015625 
Q 18.3125 11.328125 20.140625 9.421875 
Q 21.96875 7.515625 27.59375 7.515625 
L 36.8125 7.515625 
L 36.8125 0 
L 27.59375 0 
Q 17.1875 0 13.234375 3.875 
Q 9.28125 7.765625 9.28125 18.015625 
L 9.28125 47.703125 
L 2.6875 47.703125 
L 2.6875 54.6875 
L 9.28125 54.6875 
L 9.28125 70.21875 
z
" id="DejaVuSans-116"/>
      <path d="M 54.890625 33.015625 
L 54.890625 0 
L 45.90625 0 
L 45.90625 32.71875 
Q 45.90625 40.484375 42.875 44.328125 
Q 39.84375 48.1875 33.796875 48.1875 
Q 26.515625 48.1875 22.3125 43.546875 
Q 18.109375 38.921875 18.109375 30.90625 
L 18.109375 0 
L 9.078125 0 
L 9.078125 54.6875 
L 18.109375 54.6875 
L 18.109375 46.1875 
Q 21.34375 51.125 25.703125 53.5625 
Q 30.078125 56 35.796875 56 
Q 45.21875 56 50.046875 50.171875 
Q 54.890625 44.34375 54.890625 33.015625 
z
" id="DejaVuSans-110"/>
      <path id="DejaVuSans-32"/>
      <path d="M 44.390625 34.1875 
Q 47.5625 33.109375 50.5625 29.59375 
Q 53.5625 26.078125 56.59375 19.921875 
L 66.609375 0 
L 56 0 
L 46.6875 18.703125 
Q 43.0625 26.03125 39.671875 28.421875 
Q 36.28125 30.8125 30.421875 30.8125 
L 19.671875 30.8125 
L 19.671875 0 
L 9.8125 0 
L 9.8125 72.90625 
L 32.078125 72.90625 
Q 44.578125 72.90625 50.734375 67.671875 
Q 56.890625 62.453125 56.890625 51.90625 
Q 56.890625 45.015625 53.6875 40.46875 
Q 50.484375 35.9375 44.390625 34.1875 
z
M 19.671875 64.796875 
L 19.671875 38.921875 
L 32.078125 38.921875 
Q 39.203125 38.921875 42.84375 42.21875 
Q 46.484375 45.515625 46.484375 51.90625 
Q 46.484375 58.296875 42.84375 61.546875 
Q 39.203125 64.796875 32.078125 64.796875 
z
" id="DejaVuSans-82"/>
      <path d="M 34.28125 27.484375 
Q 23.390625 27.484375 19.1875 25 
Q 14.984375 22.515625 14.984375 16.5 
Q 14.984375 11.71875 18.140625 8.90625 
Q 21.296875 6.109375 26.703125 6.109375 
Q 34.1875 6.109375 38.703125 11.40625 
Q 43.21875 16.703125 43.21875 25.484375 
L 43.21875 27.484375 
z
M 52.203125 31.203125 
L 52.203125 0 
L 43.21875 0 
L 43.21875 8.296875 
Q 40.140625 3.328125 35.546875 0.953125 
Q 30.953125 -1.421875 24.3125 -1.421875 
Q 15.921875 -1.421875 10.953125 3.296875 
Q 6 8.015625 6 15.921875 
Q 6 25.140625 12.171875 29.828125 
Q 18.359375 34.515625 30.609375 34.515625 
L 43.21875 34.515625 
L 43.21875 35.40625 
Q 43.21875 41.609375 39.140625 45 
Q 35.0625 48.390625 27.6875 48.390625 
Q 23 48.390625 18.546875 47.265625 
Q 14.109375 46.140625 10.015625 43.890625 
L 10.015625 52.203125 
Q 14.9375 54.109375 19.578125 55.046875 
Q 24.21875 56 28.609375 56 
Q 40.484375 56 46.34375 49.84375 
Q 52.203125 43.703125 52.203125 31.203125 
z
" id="DejaVuSans-97"/>
      <path d="M 45.40625 46.390625 
L 45.40625 75.984375 
L 54.390625 75.984375 
L 54.390625 0 
L 45.40625 0 
L 45.40625 8.203125 
Q 42.578125 3.328125 38.25 0.953125 
Q 33.9375 -1.421875 27.875 -1.421875 
Q 17.96875 -1.421875 11.734375 6.484375 
Q 5.515625 14.40625 5.515625 27.296875 
Q 5.515625 40.1875 11.734375 48.09375 
Q 17.96875 56 27.875 56 
Q 33.9375 56 38.25 53.625 
Q 42.578125 51.265625 45.40625 46.390625 
z
M 14.796875 27.296875 
Q 14.796875 17.390625 18.875 11.75 
Q 22.953125 6.109375 30.078125 6.109375 
Q 37.203125 6.109375 41.296875 11.75 
Q 45.40625 17.390625 45.40625 27.296875 
Q 45.40625 37.203125 41.296875 42.84375 
Q 37.203125 48.484375 30.078125 48.484375 
Q 22.953125 48.484375 18.875 42.84375 
Q 14.796875 37.203125 14.796875 27.296875 
z
" id="DejaVuSans-100"/>
     </defs>
     <g transform="translate(102.024844 357.832125)scale(0.3 -0.3)">
      <use xlink:href="#DejaVuSans-80"/>
      <use x="60.255859" xlink:href="#DejaVuSans-111"/>
      <use x="121.4375" xlink:href="#DejaVuSans-115"/>
      <use x="173.537109" xlink:href="#DejaVuSans-105"/>
      <use x="201.320312" xlink:href="#DejaVuSans-116"/>
      <use x="240.529297" xlink:href="#DejaVuSans-105"/>
      <use x="268.3125" xlink:href="#DejaVuSans-111"/>
      <use x="329.494141" xlink:href="#DejaVuSans-110"/>
      <use x="392.873047" xlink:href="#DejaVuSans-32"/>
      <use x="424.660156" xlink:href="#DejaVuSans-105"/>
      <use x="452.443359" xlink:href="#DejaVuSans-110"/>
      <use x="515.822266" xlink:href="#DejaVuSans-32"/>
      <use x="547.609375" xlink:href="#DejaVuSans-82"/>
      <use x="617.060547" xlink:href="#DejaVuSans-97"/>
      <use x="678.339844" xlink:href="#DejaVuSans-100"/>
      <use x="741.816406" xlink:href="#DejaVuSans-105"/>
      <use x="769.599609" xlink:href="#DejaVuSans-97"/>
      <use x="830.878906" xlink:href="#DejaVuSans-110"/>
     </g>
    </g>
   </g>
   <g id="matplotlib.axis_2">
    <g id="ytick_1">
     <g id="line2d_6">
      <defs>
       <path d="M 0 0 
L -3.5 0 
" id="mf0e095b203" style="stroke:#000000;stroke-width:0.8;"/>
      </defs>
      <g>
       <use style="stroke:#000000;stroke-width:0.8;" x="57.6" xlink:href="#mf0e095b203" y="307.584"/>
      </g>
     </g>
     <g id="text_7">
      <!-- 0.00 -->
      <defs>
       <path d="M 10.6875 12.40625 
L 21 12.40625 
L 21 0 
L 10.6875 0 
z
" id="DejaVuSans-46"/>
      </defs>
      <g transform="translate(12.748438 314.042672)scale(0.17 -0.17)">
       <use xlink:href="#DejaVuSans-48"/>
       <use x="63.623047" xlink:href="#DejaVuSans-46"/>
       <use x="95.410156" xlink:href="#DejaVuSans-48"/>
       <use x="159.033203" xlink:href="#DejaVuSans-48"/>
      </g>
     </g>
    </g>
    <g id="ytick_2">
     <g id="line2d_7">
      <g>
       <use style="stroke:#000000;stroke-width:0.8;" x="57.6" xlink:href="#mf0e095b203" y="260.321154"/>
      </g>
     </g>
     <g id="text_8">
      <!-- 0.25 -->
      <defs>
       <path d="M 10.796875 72.90625 
L 49.515625 72.90625 
L 49.515625 64.59375 
L 19.828125 64.59375 
L 19.828125 46.734375 
Q 21.96875 47.46875 24.109375 47.828125 
Q 26.265625 48.1875 28.421875 48.1875 
Q 40.625 48.1875 47.75 41.5 
Q 54.890625 34.8125 54.890625 23.390625 
Q 54.890625 11.625 47.5625 5.09375 
Q 40.234375 -1.421875 26.90625 -1.421875 
Q 22.3125 -1.421875 17.546875 -0.640625 
Q 12.796875 0.140625 7.71875 1.703125 
L 7.71875 11.625 
Q 12.109375 9.234375 16.796875 8.0625 
Q 21.484375 6.890625 26.703125 6.890625 
Q 35.15625 6.890625 40.078125 11.328125 
Q 45.015625 15.765625 45.015625 23.390625 
Q 45.015625 31 40.078125 35.4375 
Q 35.15625 39.890625 26.703125 39.890625 
Q 22.75 39.890625 18.8125 39.015625 
Q 14.890625 38.140625 10.796875 36.28125 
z
" id="DejaVuSans-53"/>
      </defs>
      <g transform="translate(12.748438 266.779826)scale(0.17 -0.17)">
       <use xlink:href="#DejaVuSans-48"/>
       <use x="63.623047" xlink:href="#DejaVuSans-46"/>
       <use x="95.410156" xlink:href="#DejaVuSans-50"/>
       <use x="159.033203" xlink:href="#DejaVuSans-53"/>
      </g>
     </g>
    </g>
    <g id="ytick_3">
     <g id="line2d_8">
      <g>
       <use style="stroke:#000000;stroke-width:0.8;" x="57.6" xlink:href="#mf0e095b203" y="213.058308"/>
      </g>
     </g>
     <g id="text_9">
      <!-- 0.50 -->
      <g transform="translate(12.748438 219.516979)scale(0.17 -0.17)">
       <use xlink:href="#DejaVuSans-48"/>
       <use x="63.623047" xlink:href="#DejaVuSans-46"/>
       <use x="95.410156" xlink:href="#DejaVuSans-53"/>
       <use x="159.033203" xlink:href="#DejaVuSans-48"/>
      </g>
     </g>
    </g>
    <g id="ytick_4">
     <g id="line2d_9">
      <g>
       <use style="stroke:#000000;stroke-width:0.8;" x="57.6" xlink:href="#mf0e095b203" y="165.795461"/>
      </g>
     </g>
     <g id="text_10">
      <!-- 0.75 -->
      <defs>
       <path d="M 8.203125 72.90625 
L 55.078125 72.90625 
L 55.078125 68.703125 
L 28.609375 0 
L 18.3125 0 
L 43.21875 64.59375 
L 8.203125 64.59375 
z
" id="DejaVuSans-55"/>
      </defs>
      <g transform="translate(12.748438 172.254133)scale(0.17 -0.17)">
       <use xlink:href="#DejaVuSans-48"/>
       <use x="63.623047" xlink:href="#DejaVuSans-46"/>
       <use x="95.410156" xlink:href="#DejaVuSans-55"/>
       <use x="159.033203" xlink:href="#DejaVuSans-53"/>
      </g>
     </g>
    </g>
    <g id="ytick_5">
     <g id="line2d_10">
      <g>
       <use style="stroke:#000000;stroke-width:0.8;" x="57.6" xlink:href="#mf0e095b203" y="118.532615"/>
      </g>
     </g>
     <g id="text_11">
      <!-- 1.00 -->
      <g transform="translate(12.748438 124.991287)scale(0.17 -0.17)">
       <use xlink:href="#DejaVuSans-49"/>
       <use x="63.623047" xlink:href="#DejaVuSans-46"/>
       <use x="95.410156" xlink:href="#DejaVuSans-48"/>
       <use x="159.033203" xlink:href="#DejaVuSans-48"/>
      </g>
     </g>
    </g>
    <g id="ytick_6">
     <g id="line2d_11">
      <g>
       <use style="stroke:#000000;stroke-width:0.8;" x="57.6" xlink:href="#mf0e095b203" y="71.269769"/>
      </g>
     </g>
     <g id="text_12">
      <!-- 1.25 -->
      <g transform="translate(12.748438 77.728441)scale(0.17 -0.17)">
       <use xlink:href="#DejaVuSans-49"/>
       <use x="63.623047" xlink:href="#DejaVuSans-46"/>
       <use x="95.410156" xlink:href="#DejaVuSans-50"/>
       <use x="159.033203" xlink:href="#DejaVuSans-53"/>
      </g>
     </g>
    </g>
    <g id="text_13">
     <!-- Density -->
     <defs>
      <path d="M 19.671875 64.796875 
L 19.671875 8.109375 
L 31.59375 8.109375 
Q 46.6875 8.109375 53.6875 14.9375 
Q 60.6875 21.78125 60.6875 36.53125 
Q 60.6875 51.171875 53.6875 57.984375 
Q 46.6875 64.796875 31.59375 64.796875 
z
M 9.8125 72.90625 
L 30.078125 72.90625 
Q 51.265625 72.90625 61.171875 64.09375 
Q 71.09375 55.28125 71.09375 36.53125 
Q 71.09375 17.671875 61.125 8.828125 
Q 51.171875 0 30.078125 0 
L 9.8125 0 
z
" id="DejaVuSans-68"/>
      <path d="M 56.203125 29.59375 
L 56.203125 25.203125 
L 14.890625 25.203125 
Q 15.484375 15.921875 20.484375 11.0625 
Q 25.484375 6.203125 34.421875 6.203125 
Q 39.59375 6.203125 44.453125 7.46875 
Q 49.3125 8.734375 54.109375 11.28125 
L 54.109375 2.78125 
Q 49.265625 0.734375 44.1875 -0.34375 
Q 39.109375 -1.421875 33.890625 -1.421875 
Q 20.796875 -1.421875 13.15625 6.1875 
Q 5.515625 13.8125 5.515625 26.8125 
Q 5.515625 40.234375 12.765625 48.109375 
Q 20.015625 56 32.328125 56 
Q 43.359375 56 49.78125 48.890625 
Q 56.203125 41.796875 56.203125 29.59375 
z
M 47.21875 32.234375 
Q 47.125 39.59375 43.09375 43.984375 
Q 39.0625 48.390625 32.421875 48.390625 
Q 24.90625 48.390625 20.390625 44.140625 
Q 15.875 39.890625 15.1875 32.171875 
z
" id="DejaVuSans-101"/>
      <path d="M 32.171875 -5.078125 
Q 28.375 -14.84375 24.75 -17.8125 
Q 21.140625 -20.796875 15.09375 -20.796875 
L 7.90625 -20.796875 
L 7.90625 -13.28125 
L 13.1875 -13.28125 
Q 16.890625 -13.28125 18.9375 -11.515625 
Q 21 -9.765625 23.484375 -3.21875 
L 25.09375 0.875 
L 2.984375 54.6875 
L 12.5 54.6875 
L 29.59375 11.921875 
L 46.6875 54.6875 
L 56.203125 54.6875 
z
" id="DejaVuSans-121"/>
     </defs>
     <g transform="translate(2.509375 231.553781)rotate(-90)scale(0.3 -0.3)">
      <use xlink:href="#DejaVuSans-68"/>
      <use x="77.001953" xlink:href="#DejaVuSans-101"/>
      <use x="138.525391" xlink:href="#DejaVuSans-110"/>
      <use x="201.904297" xlink:href="#DejaVuSans-115"/>
      <use x="254.003906" xlink:href="#DejaVuSans-105"/>
      <use x="281.787109" xlink:href="#DejaVuSans-116"/>
      <use x="320.996094" xlink:href="#DejaVuSans-121"/>
     </g>
    </g>
   </g>
   <g id="line2d_12">
    <path clip-path="url(#p09491018d1)" d="M 73.846613 306.980032 
L 74.275156 307.098952 
L 75.080297 307.360756 
L 75.534812 307.220787 
L 76.288009 306.974351 
L 76.807455 307.115972 
L 77.339887 307.183597 
L 78.586557 307.088556 
L 79.794268 307.55682 
L 80.976008 307.566681 
L 81.690246 307.40698 
L 82.897957 307.006147 
L 83.443375 307.266777 
L 84.144627 307.531974 
L 85.07963 307.583236 
L 86.936648 307.480797 
L 87.391164 307.202426 
L 88.624847 306.227372 
L 90.014365 306.363646 
L 91.131174 306.885157 
L 93.364791 306.731597 
L 93.962153 306.923754 
L 95.377643 307.556265 
L 96.403549 307.551679 
L 96.948967 307.36938 
L 97.403482 306.963378 
L 98.299526 306.101919 
L 99.36439 305.738413 
L 99.70203 305.806892 
L 100.091614 306.157455 
L 100.740921 306.71522 
L 101.18245 306.772827 
L 101.68891 306.623007 
L 102.039536 306.275687 
L 102.481065 305.458381 
L 103.052455 304.501132 
L 103.286206 304.459227 
L 103.519957 304.671014 
L 104.571834 305.955295 
L 104.92246 305.787179 
L 105.636698 305.452327 
L 106.260033 305.128231 
L 106.727535 304.966885 
L 107.156077 305.098052 
L 107.558648 305.133836 
L 107.883302 304.902589 
L 108.571567 304.349042 
L 108.83129 304.451656 
L 109.74032 305.042594 
L 110.051988 304.762625 
L 110.545462 304.35279 
L 110.792198 304.43117 
L 111.181783 304.86783 
L 111.584353 305.187301 
L 111.844076 305.115876 
L 112.23366 304.701675 
L 112.831023 304.146082 
L 113.311511 303.715572 
L 113.701095 302.968365 
L 114.181582 302.14916 
L 114.363388 302.164641 
L 114.558181 302.451507 
L 114.921793 303.505217 
L 115.389294 304.668666 
L 115.623045 304.779304 
L 115.830823 304.602326 
L 116.207421 303.89737 
L 116.895687 302.6859 
L 117.882634 301.197113 
L 118.272218 300.804042 
L 118.544927 300.811717 
L 119.31111 301.009281 
L 119.687708 300.665933 
L 120.05132 300.446578 
L 120.272085 300.574972 
L 120.570766 301.075499 
L 121.06424 301.851542 
L 121.23306 301.79026 
L 121.427852 301.410806 
L 121.765492 300.128535 
L 122.31091 298.208215 
L 122.54466 298.01632 
L 122.778411 298.134749 
L 123.155009 298.300831 
L 123.336815 298.111958 
L 123.583552 297.45827 
L 123.986122 295.618246 
L 124.739319 292.254081 
L 124.999042 291.904385 
L 125.141889 292.006779 
L 125.336682 292.522157 
L 125.635363 294.108635 
L 126.752172 300.85126 
L 127.024881 301.187198 
L 127.245645 301.138806 
L 127.544326 300.794806 
L 128.752038 299.161433 
L 129.128636 298.755246 
L 129.427318 298.03272 
L 129.933777 296.046015 
L 130.440237 294.427763 
L 130.712946 294.134794 
L 130.920724 294.191516 
L 131.219406 294.566359 
L 131.829755 295.332735 
L 132.063505 295.309533 
L 132.336214 295.023082 
L 132.764757 294.192652 
L 133.323161 292.60428 
L 134.478928 289.135171 
L 135.258097 286.988777 
L 136.141155 284.445444 
L 136.413864 284.249473 
L 136.699559 284.333561 
L 137.43977 284.868977 
L 137.712479 285.450282 
L 138.141021 287.02203 
L 138.75137 289.03731 
L 139.647414 290.899086 
L 139.842206 290.959185 
L 139.99804 290.736789 
L 140.218805 289.933805 
L 140.569431 287.630816 
L 141.439502 281.688419 
L 141.842073 280.446546 
L 142.114782 280.162114 
L 142.296588 280.244013 
L 142.530339 280.664364 
L 143.036798 282.226442 
L 143.530272 283.385818 
L 144.257496 284.879035 
L 144.686039 285.635589 
L 144.867845 285.630213 
L 145.062637 285.345423 
L 145.413263 284.314196 
L 145.841806 283.248194 
L 146.023612 283.223234 
L 146.192432 283.490605 
L 146.491113 284.490875 
L 147.07549 286.397484 
L 147.283268 286.519096 
L 147.452088 286.343841 
L 147.685839 285.715491 
L 148.036465 284.022317 
L 149.023412 278.775507 
L 149.153273 278.798551 
L 149.309107 279.182544 
L 149.56883 280.590885 
L 150.516818 286.503918 
L 150.633694 286.458842 
L 150.776541 286.041125 
L 151.023278 284.467613 
L 151.932308 277.776973 
L 152.036197 277.825693 
L 152.179045 278.277403 
L 152.438768 280.014598 
L 153.14002 284.976444 
L 153.256895 285.082305 
L 153.295854 285.049272 
L 153.425715 284.69376 
L 153.646479 283.308015 
L 154.841205 274.381432 
L 155.282734 273.672057 
L 155.63336 272.870359 
L 156.386556 270.970904 
L 156.516418 271.080381 
L 156.698224 271.623354 
L 156.996905 273.396069 
L 157.698157 277.682726 
L 157.95788 278.110214 
L 158.230589 278.144592 
L 159.087675 277.961211 
L 159.334411 277.423555 
L 159.659065 276.08969 
L 160.048649 273.429619 
L 160.671984 267.236277 
L 161.165458 263.342838 
L 161.477125 262.353865 
L 161.684904 262.241193 
L 161.905668 262.402554 
L 162.567962 262.968067 
L 162.996504 263.187138 
L 163.230255 263.684514 
L 163.541923 265.009674 
L 164.347064 268.726492 
L 164.515884 268.80032 
L 164.658731 268.570888 
L 164.879496 267.696333 
L 165.256094 265.082645 
L 165.879429 260.942748 
L 166.191096 260.176094 
L 166.957279 259.004178 
L 168.061101 255.732478 
L 168.424713 253.523236 
L 169.307771 247.736744 
L 169.51555 247.500476 
L 169.658397 247.629009 
L 169.905134 248.241629 
L 170.541455 249.900433 
L 170.684303 249.858249 
L 170.840137 249.502003 
L 171.073887 248.27747 
L 171.411527 245.0916 
L 172.268613 236.475178 
L 172.437432 236.203238 
L 172.450419 236.208723 
L 172.567294 236.409493 
L 172.801045 237.411345 
L 173.25556 239.240715 
L 173.359449 239.245839 
L 173.385421 239.214261 
L 173.541255 238.756801 
L 173.839936 236.934533 
L 174.294451 234.474213 
L 174.437299 234.346948 
L 174.463271 234.36292 
L 174.606119 234.636405 
L 175.255426 236.458737 
L 175.320357 236.410914 
L 175.502163 236.009764 
L 175.995636 234.834868 
L 176.112512 234.993629 
L 176.294318 235.719166 
L 177.034528 239.658067 
L 177.099459 239.595886 
L 177.242306 239.083315 
L 177.489043 237.149774 
L 178.64481 226.751416 
L 178.969464 225.628448 
L 179.086339 225.615738 
L 179.099325 225.629933 
L 179.242173 225.999707 
L 179.475924 227.381161 
L 180.203148 232.086973 
L 180.307037 232.063322 
L 180.320023 232.043397 
L 180.475857 231.53183 
L 180.774538 229.534957 
L 181.332942 225.97393 
L 181.592665 225.479093 
L 181.826416 225.466171 
L 182.112111 225.42914 
L 182.345862 225.108714 
L 182.969197 224.120945 
L 183.163989 224.22396 
L 184.501562 225.487843 
L 184.761285 225.469682 
L 184.995035 225.172026 
L 185.592398 224.264646 
L 185.735246 224.493087 
L 185.943024 225.380619 
L 186.29365 228.135501 
L 186.916985 232.854638 
L 187.241639 233.789945 
L 187.644209 234.236479 
L 188.371433 234.753838 
L 188.851921 234.771542 
L 189.319422 234.593521 
L 190.046646 234.228501 
L 190.241438 234.470572 
L 190.475189 235.175402 
L 190.799843 236.989418 
L 191.643942 242.135759 
L 191.747831 242.05828 
L 191.890679 241.477563 
L 192.111443 239.470297 
L 192.488042 233.582822 
L 193.26721 221.419328 
L 193.578878 219.544921 
L 193.747698 219.352107 
L 193.760684 219.358683 
L 193.890545 219.575423 
L 194.11131 220.480381 
L 194.539853 223.403206 
L 195.228118 227.843145 
L 195.500827 228.466966 
L 195.617703 228.411856 
L 195.773537 227.989637 
L 196.007287 226.58517 
L 196.43583 222.278902 
L 196.94229 217.915349 
L 197.202013 217.191176 
L 197.34486 217.208736 
L 197.552639 217.557608 
L 198.059098 218.424359 
L 198.227918 218.375427 
L 198.448683 218.011138 
L 199.383685 216.104213 
L 199.552505 216.297263 
L 199.786256 216.974417 
L 200.227785 219.130297 
L 200.656327 220.77903 
L 200.85112 220.89253 
L 201.006953 220.658111 
L 201.305635 219.659962 
L 201.915983 217.685252 
L 202.461402 216.170676 
L 202.954875 214.760037 
L 203.07175 214.808396 
L 203.214598 215.200397 
L 203.448349 216.621537 
L 204.578143 224.754315 
L 204.695019 224.746014 
L 204.708005 224.729718 
L 204.850852 224.339302 
L 205.084603 222.874331 
L 205.980647 215.762522 
L 206.032592 215.799013 
L 206.162453 216.212598 
L 206.40919 217.99951 
L 206.993567 222.324153 
L 207.136414 222.498681 
L 207.162386 222.485212 
L 207.292248 222.235039 
L 207.551971 221.09611 
L 208.370098 217.329741 
L 208.642807 216.834294 
L 208.759682 216.923266 
L 208.915516 217.465378 
L 209.136281 219.214394 
L 209.525865 224.547142 
L 209.98038 229.81204 
L 210.1492 230.260093 
L 210.162186 230.252627 
L 210.253089 230.03641 
L 210.434895 228.81986 
L 210.798507 224.378741 
L 211.525731 215.801131 
L 212.13608 211.355958 
L 212.603582 209.326464 
L 213.421709 206.492806 
L 214.174905 201.999345 
L 214.785254 198.967702 
L 215.006018 198.699661 
L 215.13588 198.882186 
L 215.343658 199.697166 
L 215.798173 202.729634 
L 216.174772 204.510946 
L 216.38255 204.713167 
L 216.55137 204.542861 
L 217.05783 203.918435 
L 217.213663 204.093966 
L 217.4604 204.809666 
L 217.992832 207.268801 
L 218.577209 209.620101 
L 218.772001 209.773797 
L 218.901862 209.581076 
L 219.109641 208.781382 
L 219.512211 206.097536 
L 220.966659 195.968818 
L 221.083535 195.929433 
L 221.109507 195.95831 
L 221.252355 196.362621 
L 221.486105 197.844794 
L 221.953606 202.618436 
L 222.706803 209.733965 
L 223.148332 212.048987 
L 223.472986 212.790679 
L 223.69375 212.885464 
L 223.888542 212.722618 
L 224.135279 212.177858 
L 224.43396 210.89255 
L 224.7716 208.33182 
L 225.84945 198.8448 
L 225.862436 198.846467 
L 225.966326 199.01517 
L 226.148132 199.911595 
L 226.550702 203.429399 
L 226.966259 206.277788 
L 227.148065 206.550783 
L 227.161051 206.543449 
L 227.277926 206.321779 
L 227.485705 205.329782 
L 228.147998 201.842102 
L 228.238901 201.957455 
L 228.394735 202.68183 
L 228.667444 205.287536 
L 229.212862 210.413857 
L 229.316751 210.579606 
L 229.35571 210.549282 
L 229.472585 210.16694 
L 229.693349 208.466981 
L 230.420574 202.331551 
L 230.927033 199.967495 
L 231.17377 196.797585 
L 231.576341 188.066207 
L 232.043842 179.492379 
L 232.238634 178.597042 
L 232.25162 178.601317 
L 232.329537 178.781989 
L 232.498357 179.965892 
L 232.861969 184.65511 
L 233.913847 198.407411 
L 234.160584 199.608939 
L 234.225514 199.549793 
L 234.329403 199.009768 
L 234.498223 196.642377 
L 234.718988 189.711437 
L 234.991697 172.741873 
L 235.342323 134.878879 
L 236.056561 55.985382 
L 236.16045 54.144 
L 236.199408 54.422362 
L 236.303298 57.716147 
L 236.49809 72.862189 
L 236.991563 135.845468 
L 237.433092 177.382714 
L 237.796704 192.791924 
L 238.251219 202.390451 
L 238.796638 209.977062 
L 239.082333 211.503781 
L 239.186222 211.573219 
L 239.22518 211.538558 
L 239.368028 211.163644 
L 239.653723 209.606319 
L 240.160183 207.02618 
L 240.277058 206.93963 
L 240.316017 206.973719 
L 240.445878 207.327109 
L 240.666643 208.764494 
L 241.030255 212.945024 
L 241.913313 223.475628 
L 242.160049 224.289258 
L 242.263939 224.208758 
L 242.419772 223.635627 
L 242.692481 221.571646 
L 243.458664 215.352193 
L 243.588525 215.203399 
L 243.614498 215.220314 
L 243.731373 215.487538 
L 243.939151 216.676889 
L 244.341722 220.637784 
L 244.809223 224.449909 
L 244.978043 224.760875 
L 244.991029 224.755456 
L 245.094918 224.5653 
L 245.289711 223.593293 
L 246.029921 219.300785 
L 246.13381 219.38505 
L 246.30263 219.942813 
L 247.107771 223.165057 
L 247.250619 223.00361 
L 247.860967 221.840782 
L 247.925898 221.903826 
L 248.094718 222.353272 
L 248.393399 223.962569 
L 248.860901 226.22645 
L 248.96479 226.269395 
L 248.990762 226.242579 
L 249.120624 225.874591 
L 249.341388 224.391807 
L 249.743959 219.791867 
L 250.536113 210.966891 
L 250.834795 209.565098 
L 250.938684 209.496389 
L 250.977642 209.532804 
L 251.107504 209.903531 
L 251.328268 211.363987 
L 251.821742 216.686806 
L 252.250285 220.140341 
L 252.548966 221.062647 
L 252.964523 221.995349 
L 253.211259 223.470224 
L 253.548899 227.114445 
L 254.35404 236.166227 
L 254.587791 236.800441 
L 254.717652 236.756701 
L 254.990361 236.268057 
L 255.211126 236.078681 
L 255.340987 236.250365 
L 255.53578 236.979676 
L 255.93835 239.633451 
L 256.366893 241.860897 
L 256.691547 242.505432 
L 256.964256 243.090171 
L 257.210992 244.291373 
L 257.561618 247.388631 
L 258.236898 253.42458 
L 258.470649 253.932307 
L 258.587524 253.839169 
L 258.808288 253.255501 
L 259.301762 251.984779 
L 259.483568 251.986217 
L 259.704332 252.288476 
L 260.75621 254.0001 
L 260.976975 254.045683 
L 261.145795 253.804984 
L 261.379545 252.9696 
L 262.366492 248.70497 
L 262.522326 248.797642 
L 262.782049 249.296214 
L 263.158647 250.524984 
L 263.496287 252.471324 
L 264.015733 257.189475 
L 264.457262 260.272436 
L 264.691012 260.727346 
L 264.820874 260.636466 
L 265.028652 260.12148 
L 265.781849 258.002711 
L 265.91171 258.124934 
L 266.093516 258.726748 
L 266.366225 260.589297 
L 267.366158 268.449848 
L 267.483034 268.438708 
L 267.49602 268.42223 
L 267.651854 268.016234 
L 267.963521 266.404187 
L 268.807621 261.881323 
L 269.054357 261.465034 
L 269.184219 261.554969 
L 269.353039 262.042815 
L 269.612762 263.607004 
L 270.716584 271.357194 
L 270.833459 271.282022 
L 271.015265 270.764681 
L 271.391864 268.802813 
L 271.950268 266.232523 
L 272.31388 265.472872 
L 272.560617 265.354014 
L 272.755409 265.512553 
L 273.015132 266.081597 
L 273.846245 268.170282 
L 274.002079 268.068539 
L 274.222843 267.584601 
L 274.729303 265.733068 
L 275.105901 264.77069 
L 275.261735 264.755806 
L 275.404583 265.0368 
L 275.612361 266.036987 
L 275.924029 268.827908 
L 276.703197 276.257978 
L 276.859031 276.51037 
L 276.885003 276.496211 
L 277.001879 276.242274 
L 277.209657 275.108785 
L 277.612227 271.362288 
L 278.183618 266.555933 
L 278.404382 266.039848 
L 278.508272 266.138635 
L 278.677091 266.712426 
L 279.482232 270.368897 
L 279.534177 270.332627 
L 279.677025 269.98386 
L 279.923761 268.6617 
L 281.001612 262.08425 
L 281.326265 261.505655 
L 281.598974 261.412429 
L 282.131406 261.343612 
L 282.352171 260.943884 
L 282.62488 259.901611 
L 283.053423 257.181961 
L 283.585855 254.135363 
L 283.780647 253.883642 
L 283.897522 254.041053 
L 284.092314 254.789974 
L 284.455926 257.312873 
L 285.131206 261.807658 
L 285.429887 262.550688 
L 285.68961 262.690478 
L 286.053222 262.854022 
L 286.338917 263.327637 
L 287.1051 264.697349 
L 287.481698 265.343542 
L 287.871283 266.589826 
L 288.507604 268.543458 
L 288.975105 269.185466 
L 289.42962 269.926489 
L 290.052955 271.467286 
L 290.884068 273.492515 
L 291.091847 273.542175 
L 291.286639 273.313412 
L 291.598307 272.516321 
L 292.533309 269.984023 
L 293.221575 268.692337 
L 293.403381 268.717958 
L 293.585187 269.05318 
L 293.857896 270.143763 
L 294.805885 274.422047 
L 295.000677 274.491735 
L 295.182483 274.275668 
L 295.442206 273.550507 
L 295.779845 271.867402 
L 296.260333 268.101674 
L 296.766793 264.621681 
L 296.922626 264.377952 
L 296.948599 264.392413 
L 297.065474 264.661718 
L 297.260266 265.828553 
L 297.636864 269.820033 
L 298.169296 274.803938 
L 298.442005 275.699818 
L 298.636798 275.779657 
L 299.312077 275.644017 
L 299.5718 276.147506 
L 300.98729 280.049614 
L 302.117085 283.753442 
L 302.298891 283.680382 
L 302.545627 283.270675 
L 303.571533 281.293113 
L 304.05202 280.548643 
L 305.662302 277.456204 
L 305.857095 277.41135 
L 306.025915 277.658089 
L 306.272651 278.530151 
L 307.298557 282.802599 
L 307.480363 282.802741 
L 307.714113 282.515879 
L 308.220573 281.895722 
L 308.389393 282.003396 
L 308.610158 282.486866 
L 309.025714 284.100254 
L 309.441271 285.348114 
L 309.636063 285.417772 
L 309.804883 285.186386 
L 310.155509 284.199856 
L 310.545093 283.371322 
L 310.726899 283.359496 
L 310.921691 283.62046 
L 311.29829 284.604956 
L 312.337181 287.360375 
L 312.570932 287.529377 
L 312.726766 287.378942 
L 312.94753 286.754369 
L 313.363087 284.688738 
L 313.79163 283.023339 
L 313.986422 282.880841 
L 314.142256 283.065466 
L 314.401979 283.819135 
L 315.583718 287.75374 
L 315.882399 288.045665 
L 316.077191 287.971023 
L 316.323928 287.568964 
L 317.116083 286.064114 
L 317.271917 286.235575 
L 317.492681 286.883639 
L 317.869279 288.821251 
L 318.492614 291.850233 
L 318.726365 292.154698 
L 318.882199 292.045196 
L 319.115949 291.514555 
L 319.843174 288.992687 
L 320.622342 286.725626 
L 320.882065 286.507766 
L 321.050885 286.627272 
L 321.297622 287.147522 
L 322.414431 289.99806 
L 322.609223 289.915948 
L 322.907904 289.474076 
L 323.323461 288.950108 
L 323.492281 289.037269 
L 323.700059 289.489272 
L 324.063671 290.973116 
L 324.557145 292.731406 
L 324.803881 292.970043 
L 325.024646 292.889367 
L 325.518119 292.374298 
L 325.933676 291.688185 
L 326.466108 290.247134 
L 326.933609 289.24876 
L 327.219304 289.076003 
L 328.206252 288.898292 
L 328.530905 288.815943 
L 328.777642 288.997014 
L 329.297088 289.779923 
L 329.894451 290.447799 
L 330.310007 290.673484 
L 330.504799 290.544596 
L 330.73855 290.067725 
L 331.582649 287.903796 
L 331.608622 287.916728 
L 331.764456 288.143121 
L 332.037165 289.0214 
L 332.686472 291.13134 
L 332.920222 291.265985 
L 333.128001 291.103202 
L 333.959114 290.216402 
L 334.166892 290.483357 
L 334.47856 291.344681 
L 335.140853 293.20844 
L 335.322659 293.225467 
L 335.491479 292.955828 
L 335.764188 291.992509 
L 336.686205 288.287747 
L 336.868011 288.258853 
L 337.075789 288.512982 
L 339.374337 292.337258 
L 339.556143 292.129433 
L 339.828852 291.377481 
L 340.478159 289.498293 
L 340.621007 289.536149 
L 340.789827 289.897606 
L 341.088508 291.21573 
L 341.685871 293.842207 
L 341.880663 293.991607 
L 342.036497 293.801411 
L 342.29622 293.025638 
L 342.997472 290.808827 
L 343.218236 290.714204 
L 343.426014 290.913885 
L 343.815599 291.706718 
L 344.724629 293.551836 
L 344.971366 293.664188 
L 345.166158 293.513723 
L 345.477826 292.914891 
L 346.166091 291.596627 
L 346.659565 290.711574 
L 347.217969 289.690499 
L 347.386789 289.739143 
L 347.581581 290.093464 
L 347.932207 291.31751 
L 348.880196 294.704999 
L 349.373669 296.776359 
L 350.594367 302.470219 
L 350.932007 302.908346 
L 351.36055 303.051739 
L 351.737148 303.274478 
L 352.802012 304.169354 
L 353.243541 303.889755 
L 354.347363 303.009952 
L 354.905767 302.374929 
L 355.16549 302.39324 
L 355.879728 302.612577 
L 356.152437 302.282176 
L 357.334177 300.522795 
L 357.684803 300.478472 
L 358.269179 300.460229 
L 358.554874 300.120707 
L 359.373002 298.986135 
L 359.593766 299.075678 
L 359.853489 299.458025 
L 360.217101 300.458077 
L 361.113145 303.117505 
L 361.33391 303.179071 
L 361.580646 302.969996 
L 362.359815 302.175615 
L 362.64551 302.235136 
L 363.022109 302.583181 
L 363.580513 303.058796 
L 363.840236 302.991522 
L 364.177875 302.617482 
L 364.827183 301.906097 
L 365.203781 301.835396 
L 365.580379 301.99636 
L 365.969964 302.424057 
L 366.489409 303.372314 
L 367.619204 305.543761 
L 368.13865 305.900534 
L 368.684068 306.359752 
L 369.320389 306.863838 
L 369.761918 306.900943 
L 372.463037 306.811411 
L 374.073319 307.5601 
L 374.852487 307.501202 
L 375.371933 307.245416 
L 376.748465 306.356371 
L 377.332841 306.184801 
L 377.735412 305.770686 
L 378.6834 304.689047 
L 378.917151 304.777604 
L 379.18986 305.169301 
L 380.462502 307.419042 
L 380.891045 307.521402 
L 381.384519 307.407793 
L 381.890978 307.047215 
L 382.981815 306.187651 
L 384.462235 305.578557 
L 384.825847 305.887694 
L 386.215365 307.32197 
L 386.591963 307.280722 
L 387.150367 306.944839 
L 387.786689 306.647238 
L 388.25419 306.684807 
L 389.319054 306.90475 
L 389.812527 306.57466 
L 390.228084 306.405575 
L 390.539751 306.525984 
L 391.098156 307.070483 
L 391.643574 307.454398 
L 392.22795 307.569926 
L 394.266775 307.584 
L 398.487273 307.584 
L 398.487273 307.584 
" style="fill:none;stroke:#ff7f0e;stroke-linecap:square;stroke-width:1.5;"/>
   </g>
   <g id="patch_103">
    <path d="M 57.6 307.584 
L 57.6 41.472 
" style="fill:none;stroke:#000000;stroke-linecap:square;stroke-linejoin:miter;stroke-width:0.8;"/>
   </g>
   <g id="patch_104">
    <path d="M 414.72 307.584 
L 414.72 41.472 
" style="fill:none;stroke:#000000;stroke-linecap:square;stroke-linejoin:miter;stroke-width:0.8;"/>
   </g>
   <g id="patch_105">
    <path d="M 57.6 307.584 
L 414.72 307.584 
" style="fill:none;stroke:#000000;stroke-linecap:square;stroke-linejoin:miter;stroke-width:0.8;"/>
   </g>
   <g id="patch_106">
    <path d="M 57.6 41.472 
L 414.72 41.472 
" style="fill:none;stroke:#000000;stroke-linecap:square;stroke-linejoin:miter;stroke-width:0.8;"/>
   </g>
  </g>
 </g>
 <defs>
  <clipPath id="p09491018d1">
   <rect height="266.112" width="357.12" x="57.6" y="41.472"/>
  </clipPath>
 </defs>
</svg>
