<?xml version="1.0" encoding="utf-8" standalone="no"?>
<!DOCTYPE svg PUBLIC "-//W3C//DTD SVG 1.1//EN"
  "http://www.w3.org/Graphics/SVG/1.1/DTD/svg11.dtd">
<!-- Created with matplotlib (https://matplotlib.org/) -->
<svg height="345.6pt" version="1.1" viewBox="0 0 460.8 345.6" width="460.8pt" xmlns="http://www.w3.org/2000/svg" xmlns:xlink="http://www.w3.org/1999/xlink">
 <defs>
  <style type="text/css">
*{stroke-linecap:butt;stroke-linejoin:round;}
  </style>
 </defs>
 <g id="figure_1">
  <g id="patch_1">
   <path d="M 0 345.6 
L 460.8 345.6 
L 460.8 0 
L 0 0 
z
" style="fill:#ffffff;"/>
  </g>
  <g id="axes_1">
   <g id="patch_2">
    <path d="M 57.6 307.584 
L 414.72 307.584 
L 414.72 41.472 
L 57.6 41.472 
z
" style="fill:#ffffff;"/>
   </g>
   <g id="patch_3">
    <path clip-path="url(#pfc9c2b8ec1)" d="M 73.832727 307.584 
L 76.998418 307.584 
L 76.998418 306.008894 
L 73.832727 306.008894 
z
" style="fill:#1f77b4;"/>
   </g>
   <g id="patch_4">
    <path clip-path="url(#pfc9c2b8ec1)" d="M 76.998433 307.584 
L 80.164123 307.584 
L 80.164123 306.683939 
L 76.998433 306.683939 
z
" style="fill:#1f77b4;"/>
   </g>
   <g id="patch_5">
    <path clip-path="url(#pfc9c2b8ec1)" d="M 80.164108 307.584 
L 83.329798 307.584 
L 83.329798 307.13397 
L 80.164108 307.13397 
z
" style="fill:#1f77b4;"/>
   </g>
   <g id="patch_6">
    <path clip-path="url(#pfc9c2b8ec1)" d="M 83.329814 307.584 
L 86.495504 307.584 
L 86.495504 307.13397 
L 83.329814 307.13397 
z
" style="fill:#1f77b4;"/>
   </g>
   <g id="patch_7">
    <path clip-path="url(#pfc9c2b8ec1)" d="M 86.495489 307.584 
L 89.661179 307.584 
L 89.661179 306.008894 
L 86.495489 306.008894 
z
" style="fill:#1f77b4;"/>
   </g>
   <g id="patch_8">
    <path clip-path="url(#pfc9c2b8ec1)" d="M 89.661194 307.584 
L 92.826885 307.584 
L 92.826885 305.333848 
L 89.661194 305.333848 
z
" style="fill:#1f77b4;"/>
   </g>
   <g id="patch_9">
    <path clip-path="url(#pfc9c2b8ec1)" d="M 92.826885 307.584 
L 95.99256 307.584 
L 95.99256 305.78387 
L 92.826885 305.78387 
z
" style="fill:#1f77b4;"/>
   </g>
   <g id="patch_10">
    <path clip-path="url(#pfc9c2b8ec1)" d="M 95.992544 307.584 
L 99.158234 307.584 
L 99.158234 306.008894 
L 95.992544 306.008894 
z
" style="fill:#1f77b4;"/>
   </g>
   <g id="patch_11">
    <path clip-path="url(#pfc9c2b8ec1)" d="M 99.15825 307.584 
L 102.32394 307.584 
L 102.32394 305.333848 
L 99.15825 305.333848 
z
" style="fill:#1f77b4;"/>
   </g>
   <g id="patch_12">
    <path clip-path="url(#pfc9c2b8ec1)" d="M 102.323925 307.584 
L 105.489615 307.584 
L 105.489615 302.408651 
L 102.323925 302.408651 
z
" style="fill:#1f77b4;"/>
   </g>
   <g id="patch_13">
    <path clip-path="url(#pfc9c2b8ec1)" d="M 105.48963 307.584 
L 108.655321 307.584 
L 108.655321 302.633666 
L 105.48963 302.633666 
z
" style="fill:#1f77b4;"/>
   </g>
   <g id="patch_14">
    <path clip-path="url(#pfc9c2b8ec1)" d="M 108.655321 307.584 
L 111.821011 307.584 
L 111.821011 301.733606 
L 108.655321 301.733606 
z
" style="fill:#1f77b4;"/>
   </g>
   <g id="patch_15">
    <path clip-path="url(#pfc9c2b8ec1)" d="M 111.821011 307.584 
L 114.986701 307.584 
L 114.986701 300.383514 
L 111.821011 300.383514 
z
" style="fill:#1f77b4;"/>
   </g>
   <g id="patch_16">
    <path clip-path="url(#pfc9c2b8ec1)" d="M 114.986701 307.584 
L 118.152392 307.584 
L 118.152392 301.958621 
L 114.986701 301.958621 
z
" style="fill:#1f77b4;"/>
   </g>
   <g id="patch_17">
    <path clip-path="url(#pfc9c2b8ec1)" d="M 118.152392 307.584 
L 121.318082 307.584 
L 121.318082 297.458317 
L 118.152392 297.458317 
z
" style="fill:#1f77b4;"/>
   </g>
   <g id="patch_18">
    <path clip-path="url(#pfc9c2b8ec1)" d="M 121.318082 307.584 
L 124.483765 307.584 
L 124.483765 294.758104 
L 121.318082 294.758104 
z
" style="fill:#1f77b4;"/>
   </g>
   <g id="patch_19">
    <path clip-path="url(#pfc9c2b8ec1)" d="M 124.483765 307.584 
L 127.649455 307.584 
L 127.649455 294.08309 
L 124.483765 294.08309 
z
" style="fill:#1f77b4;"/>
   </g>
   <g id="patch_20">
    <path clip-path="url(#pfc9c2b8ec1)" d="M 127.649455 307.584 
L 130.815145 307.584 
L 130.815145 296.108226 
L 127.649455 296.108226 
z
" style="fill:#1f77b4;"/>
   </g>
   <g id="patch_21">
    <path clip-path="url(#pfc9c2b8ec1)" d="M 130.815145 307.584 
L 133.980836 307.584 
L 133.980836 291.382908 
L 130.815145 291.382908 
z
" style="fill:#1f77b4;"/>
   </g>
   <g id="patch_22">
    <path clip-path="url(#pfc9c2b8ec1)" d="M 133.980836 307.584 
L 137.146526 307.584 
L 137.146526 286.207559 
L 133.980836 286.207559 
z
" style="fill:#1f77b4;"/>
   </g>
   <g id="patch_23">
    <path clip-path="url(#pfc9c2b8ec1)" d="M 137.146526 307.584 
L 140.312216 307.584 
L 140.312216 285.082483 
L 137.146526 285.082483 
z
" style="fill:#1f77b4;"/>
   </g>
   <g id="patch_24">
    <path clip-path="url(#pfc9c2b8ec1)" d="M 140.312224 307.584 
L 143.477907 307.584 
L 143.477907 281.257161 
L 140.312224 281.257161 
z
" style="fill:#1f77b4;"/>
   </g>
   <g id="patch_25">
    <path clip-path="url(#pfc9c2b8ec1)" d="M 143.477899 307.584 
L 146.643589 307.584 
L 146.643589 278.557043 
L 143.477899 278.557043 
z
" style="fill:#1f77b4;"/>
   </g>
   <g id="patch_26">
    <path clip-path="url(#pfc9c2b8ec1)" d="M 146.643589 307.584 
L 149.809279 307.584 
L 149.809279 274.056739 
L 146.643589 274.056739 
z
" style="fill:#1f77b4;"/>
   </g>
   <g id="patch_27">
    <path clip-path="url(#pfc9c2b8ec1)" d="M 149.809279 307.584 
L 152.97497 307.584 
L 152.97497 273.156679 
L 149.809279 273.156679 
z
" style="fill:#1f77b4;"/>
   </g>
   <g id="patch_28">
    <path clip-path="url(#pfc9c2b8ec1)" d="M 152.97497 307.584 
L 156.14066 307.584 
L 156.14066 271.131542 
L 152.97497 271.131542 
z
" style="fill:#1f77b4;"/>
   </g>
   <g id="patch_29">
    <path clip-path="url(#pfc9c2b8ec1)" d="M 156.14066 307.584 
L 159.30635 307.584 
L 159.30635 265.956193 
L 156.14066 265.956193 
z
" style="fill:#1f77b4;"/>
   </g>
   <g id="patch_30">
    <path clip-path="url(#pfc9c2b8ec1)" d="M 159.30635 307.584 
L 162.472041 307.584 
L 162.472041 263.706041 
L 159.30635 263.706041 
z
" style="fill:#1f77b4;"/>
   </g>
   <g id="patch_31">
    <path clip-path="url(#pfc9c2b8ec1)" d="M 162.472041 307.584 
L 165.637723 307.584 
L 165.637723 251.780101 
L 162.472041 251.780101 
z
" style="fill:#1f77b4;"/>
   </g>
   <g id="patch_32">
    <path clip-path="url(#pfc9c2b8ec1)" d="M 165.637723 307.584 
L 168.803414 307.584 
L 168.803414 248.179995 
L 165.637723 248.179995 
z
" style="fill:#1f77b4;"/>
   </g>
   <g id="patch_33">
    <path clip-path="url(#pfc9c2b8ec1)" d="M 168.803414 307.584 
L 171.969104 307.584 
L 171.969104 240.529479 
L 168.803414 240.529479 
z
" style="fill:#1f77b4;"/>
   </g>
   <g id="patch_34">
    <path clip-path="url(#pfc9c2b8ec1)" d="M 171.969104 307.584 
L 175.134794 307.584 
L 175.134794 226.353523 
L 171.969104 226.353523 
z
" style="fill:#1f77b4;"/>
   </g>
   <g id="patch_35">
    <path clip-path="url(#pfc9c2b8ec1)" d="M 175.134794 307.584 
L 178.300481 307.584 
L 178.300481 232.203825 
L 175.134794 232.203825 
z
" style="fill:#1f77b4;"/>
   </g>
   <g id="patch_36">
    <path clip-path="url(#pfc9c2b8ec1)" d="M 178.300481 307.584 
L 181.466171 307.584 
L 181.466171 226.353523 
L 178.300481 226.353523 
z
" style="fill:#1f77b4;"/>
   </g>
   <g id="patch_37">
    <path clip-path="url(#pfc9c2b8ec1)" d="M 181.466171 307.584 
L 184.631861 307.584 
L 184.631861 227.253584 
L 181.466171 227.253584 
z
" style="fill:#1f77b4;"/>
   </g>
   <g id="patch_38">
    <path clip-path="url(#pfc9c2b8ec1)" d="M 184.631858 307.584 
L 187.797544 307.584 
L 187.797544 223.878254 
L 184.631858 223.878254 
z
" style="fill:#1f77b4;"/>
   </g>
   <g id="patch_39">
    <path clip-path="url(#pfc9c2b8ec1)" d="M 187.797548 307.584 
L 190.963238 307.584 
L 190.963238 227.928629 
L 187.797548 227.928629 
z
" style="fill:#1f77b4;"/>
   </g>
   <g id="patch_40">
    <path clip-path="url(#pfc9c2b8ec1)" d="M 190.963238 307.584 
L 194.128928 307.584 
L 194.128928 228.82869 
L 190.963238 228.82869 
z
" style="fill:#1f77b4;"/>
   </g>
   <g id="patch_41">
    <path clip-path="url(#pfc9c2b8ec1)" d="M 194.128928 307.584 
L 197.294619 307.584 
L 197.294619 225.228447 
L 194.128928 225.228447 
z
" style="fill:#1f77b4;"/>
   </g>
   <g id="patch_42">
    <path clip-path="url(#pfc9c2b8ec1)" d="M 197.294619 307.584 
L 200.460305 307.584 
L 200.460305 218.477883 
L 197.294619 218.477883 
z
" style="fill:#1f77b4;"/>
   </g>
   <g id="patch_43">
    <path clip-path="url(#pfc9c2b8ec1)" d="M 200.460305 307.584 
L 203.625996 307.584 
L 203.625996 220.278113 
L 200.460305 220.278113 
z
" style="fill:#1f77b4;"/>
   </g>
   <g id="patch_44">
    <path clip-path="url(#pfc9c2b8ec1)" d="M 203.625996 307.584 
L 206.791684 307.584 
L 206.791684 223.65329 
L 203.625996 223.65329 
z
" style="fill:#1f77b4;"/>
   </g>
   <g id="patch_45">
    <path clip-path="url(#pfc9c2b8ec1)" d="M 206.791682 307.584 
L 209.95737 307.584 
L 209.95737 223.203259 
L 206.791682 223.203259 
z
" style="fill:#1f77b4;"/>
   </g>
   <g id="patch_46">
    <path clip-path="url(#pfc9c2b8ec1)" d="M 209.957372 307.584 
L 213.123063 307.584 
L 213.123063 221.178174 
L 209.957372 221.178174 
z
" style="fill:#1f77b4;"/>
   </g>
   <g id="patch_47">
    <path clip-path="url(#pfc9c2b8ec1)" d="M 213.123063 307.584 
L 216.288751 307.584 
L 216.288751 203.626927 
L 213.123063 203.626927 
z
" style="fill:#1f77b4;"/>
   </g>
   <g id="patch_48">
    <path clip-path="url(#pfc9c2b8ec1)" d="M 216.288751 307.584 
L 219.454441 307.584 
L 219.454441 210.377446 
L 216.288751 210.377446 
z
" style="fill:#1f77b4;"/>
   </g>
   <g id="patch_49">
    <path clip-path="url(#pfc9c2b8ec1)" d="M 219.454441 307.584 
L 222.62013 307.584 
L 222.62013 204.977019 
L 219.454441 204.977019 
z
" style="fill:#1f77b4;"/>
   </g>
   <g id="patch_50">
    <path clip-path="url(#pfc9c2b8ec1)" d="M 222.62013 307.584 
L 225.785819 307.584 
L 225.785819 216.002797 
L 222.62013 216.002797 
z
" style="fill:#1f77b4;"/>
   </g>
   <g id="patch_51">
    <path clip-path="url(#pfc9c2b8ec1)" d="M 225.785819 307.584 
L 228.951508 307.584 
L 228.951508 202.951897 
L 225.785819 202.951897 
z
" style="fill:#1f77b4;"/>
   </g>
   <g id="patch_52">
    <path clip-path="url(#pfc9c2b8ec1)" d="M 228.951508 307.584 
L 232.117197 307.584 
L 232.117197 200.701744 
L 228.951508 200.701744 
z
" style="fill:#1f77b4;"/>
   </g>
   <g id="patch_53">
    <path clip-path="url(#pfc9c2b8ec1)" d="M 232.117197 307.584 
L 235.282886 307.584 
L 235.282886 193.051234 
L 232.117197 193.051234 
z
" style="fill:#1f77b4;"/>
   </g>
   <g id="patch_54">
    <path clip-path="url(#pfc9c2b8ec1)" d="M 235.282886 307.584 
L 238.448575 307.584 
L 238.448575 121.271366 
L 235.282886 121.271366 
z
" style="fill:#1f77b4;"/>
   </g>
   <g id="patch_55">
    <path clip-path="url(#pfc9c2b8ec1)" d="M 238.448575 307.584 
L 241.614264 307.584 
L 241.614264 205.20205 
L 238.448575 205.20205 
z
" style="fill:#1f77b4;"/>
   </g>
   <g id="patch_56">
    <path clip-path="url(#pfc9c2b8ec1)" d="M 241.614264 307.584 
L 244.779953 307.584 
L 244.779953 222.303224 
L 241.614264 222.303224 
z
" style="fill:#1f77b4;"/>
   </g>
   <g id="patch_57">
    <path clip-path="url(#pfc9c2b8ec1)" d="M 244.779952 307.584 
L 247.945642 307.584 
L 247.945642 228.603651 
L 244.779952 228.603651 
z
" style="fill:#1f77b4;"/>
   </g>
   <g id="patch_58">
    <path clip-path="url(#pfc9c2b8ec1)" d="M 247.945643 307.584 
L 251.111331 307.584 
L 251.111331 220.27806 
L 247.945643 220.27806 
z
" style="fill:#1f77b4;"/>
   </g>
   <g id="patch_59">
    <path clip-path="url(#pfc9c2b8ec1)" d="M 251.111331 307.584 
L 254.277021 307.584 
L 254.277021 223.428326 
L 251.111331 223.428326 
z
" style="fill:#1f77b4;"/>
   </g>
   <g id="patch_60">
    <path clip-path="url(#pfc9c2b8ec1)" d="M 254.277021 307.584 
L 257.44271 307.584 
L 257.44271 237.154208 
L 254.277021 237.154208 
z
" style="fill:#1f77b4;"/>
   </g>
   <g id="patch_61">
    <path clip-path="url(#pfc9c2b8ec1)" d="M 257.442708 307.584 
L 260.608396 307.584 
L 260.608396 247.954943 
L 257.442708 247.954943 
z
" style="fill:#1f77b4;"/>
   </g>
   <g id="patch_62">
    <path clip-path="url(#pfc9c2b8ec1)" d="M 260.608398 307.584 
L 263.774088 307.584 
L 263.774088 247.279934 
L 260.608398 247.279934 
z
" style="fill:#1f77b4;"/>
   </g>
   <g id="patch_63">
    <path clip-path="url(#pfc9c2b8ec1)" d="M 263.774088 307.584 
L 266.939777 307.584 
L 266.939777 257.405586 
L 263.774088 257.405586 
z
" style="fill:#1f77b4;"/>
   </g>
   <g id="patch_64">
    <path clip-path="url(#pfc9c2b8ec1)" d="M 266.939775 307.584 
L 270.105465 307.584 
L 270.105465 265.731152 
L 266.939775 265.731152 
z
" style="fill:#1f77b4;"/>
   </g>
   <g id="patch_65">
    <path clip-path="url(#pfc9c2b8ec1)" d="M 270.105465 307.584 
L 273.271156 307.584 
L 273.271156 267.081269 
L 270.105465 267.081269 
z
" style="fill:#1f77b4;"/>
   </g>
   <g id="patch_66">
    <path clip-path="url(#pfc9c2b8ec1)" d="M 273.271156 307.584 
L 276.436846 307.584 
L 276.436846 264.156072 
L 273.271156 264.156072 
z
" style="fill:#1f77b4;"/>
   </g>
   <g id="patch_67">
    <path clip-path="url(#pfc9c2b8ec1)" d="M 276.436846 307.584 
L 279.602532 307.584 
L 279.602532 267.08122 
L 276.436846 267.08122 
z
" style="fill:#1f77b4;"/>
   </g>
   <g id="patch_68">
    <path clip-path="url(#pfc9c2b8ec1)" d="M 279.602532 307.584 
L 282.768223 307.584 
L 282.768223 262.805981 
L 279.602532 262.805981 
z
" style="fill:#1f77b4;"/>
   </g>
   <g id="patch_69">
    <path clip-path="url(#pfc9c2b8ec1)" d="M 282.768223 307.584 
L 285.933913 307.584 
L 285.933913 263.706041 
L 282.768223 263.706041 
z
" style="fill:#1f77b4;"/>
   </g>
   <g id="patch_70">
    <path clip-path="url(#pfc9c2b8ec1)" d="M 285.933909 307.584 
L 289.099596 307.584 
L 289.099596 269.781405 
L 285.933909 269.781405 
z
" style="fill:#1f77b4;"/>
   </g>
   <g id="patch_71">
    <path clip-path="url(#pfc9c2b8ec1)" d="M 289.099599 307.584 
L 292.26529 307.584 
L 292.26529 278.107012 
L 289.099599 278.107012 
z
" style="fill:#1f77b4;"/>
   </g>
   <g id="patch_72">
    <path clip-path="url(#pfc9c2b8ec1)" d="M 292.26529 307.584 
L 295.43098 307.584 
L 295.43098 280.357164 
L 292.26529 280.357164 
z
" style="fill:#1f77b4;"/>
   </g>
   <g id="patch_73">
    <path clip-path="url(#pfc9c2b8ec1)" d="M 295.43098 307.584 
L 298.596666 307.584 
L 298.596666 278.331992 
L 295.43098 278.331992 
z
" style="fill:#1f77b4;"/>
   </g>
   <g id="patch_74">
    <path clip-path="url(#pfc9c2b8ec1)" d="M 298.596663 307.584 
L 301.762353 307.584 
L 301.762353 281.482208 
L 298.596663 281.482208 
z
" style="fill:#1f77b4;"/>
   </g>
   <g id="patch_75">
    <path clip-path="url(#pfc9c2b8ec1)" d="M 301.762353 307.584 
L 304.928043 307.584 
L 304.928043 285.082483 
L 301.762353 285.082483 
z
" style="fill:#1f77b4;"/>
   </g>
   <g id="patch_76">
    <path clip-path="url(#pfc9c2b8ec1)" d="M 304.928043 307.584 
L 308.093734 307.584 
L 308.093734 283.507377 
L 304.928043 283.507377 
z
" style="fill:#1f77b4;"/>
   </g>
   <g id="patch_77">
    <path clip-path="url(#pfc9c2b8ec1)" d="M 308.093734 307.584 
L 311.259424 307.584 
L 311.259424 288.00768 
L 308.093734 288.00768 
z
" style="fill:#1f77b4;"/>
   </g>
   <g id="patch_78">
    <path clip-path="url(#pfc9c2b8ec1)" d="M 311.259424 307.584 
L 314.425114 307.584 
L 314.425114 286.882604 
L 311.259424 286.882604 
z
" style="fill:#1f77b4;"/>
   </g>
   <g id="patch_79">
    <path clip-path="url(#pfc9c2b8ec1)" d="M 314.425114 307.584 
L 317.590805 307.584 
L 317.590805 285.532513 
L 314.425114 285.532513 
z
" style="fill:#1f77b4;"/>
   </g>
   <g id="patch_80">
    <path clip-path="url(#pfc9c2b8ec1)" d="M 317.590805 307.584 
L 320.756495 307.584 
L 320.756495 288.232695 
L 317.590805 288.232695 
z
" style="fill:#1f77b4;"/>
   </g>
   <g id="patch_81">
    <path clip-path="url(#pfc9c2b8ec1)" d="M 320.756495 307.584 
L 323.922177 307.584 
L 323.922177 288.682679 
L 320.756495 288.682679 
z
" style="fill:#1f77b4;"/>
   </g>
   <g id="patch_82">
    <path clip-path="url(#pfc9c2b8ec1)" d="M 323.922177 307.584 
L 327.087868 307.584 
L 327.087868 293.408044 
L 323.922177 293.408044 
z
" style="fill:#1f77b4;"/>
   </g>
   <g id="patch_83">
    <path clip-path="url(#pfc9c2b8ec1)" d="M 327.087868 307.584 
L 330.253558 307.584 
L 330.253558 289.357771 
L 327.087868 289.357771 
z
" style="fill:#1f77b4;"/>
   </g>
   <g id="patch_84">
    <path clip-path="url(#pfc9c2b8ec1)" d="M 330.253558 307.584 
L 333.419248 307.584 
L 333.419248 290.932877 
L 330.253558 290.932877 
z
" style="fill:#1f77b4;"/>
   </g>
   <g id="patch_85">
    <path clip-path="url(#pfc9c2b8ec1)" d="M 333.419248 307.584 
L 336.584939 307.584 
L 336.584939 291.832938 
L 333.419248 291.832938 
z
" style="fill:#1f77b4;"/>
   </g>
   <g id="patch_86">
    <path clip-path="url(#pfc9c2b8ec1)" d="M 336.584939 307.584 
L 339.750629 307.584 
L 339.750629 293.858075 
L 336.584939 293.858075 
z
" style="fill:#1f77b4;"/>
   </g>
   <g id="patch_87">
    <path clip-path="url(#pfc9c2b8ec1)" d="M 339.750637 307.584 
L 342.916319 307.584 
L 342.916319 294.533088 
L 339.750637 294.533088 
z
" style="fill:#1f77b4;"/>
   </g>
   <g id="patch_88">
    <path clip-path="url(#pfc9c2b8ec1)" d="M 342.916312 307.584 
L 346.082002 307.584 
L 346.082002 294.308105 
L 342.916312 294.308105 
z
" style="fill:#1f77b4;"/>
   </g>
   <g id="patch_89">
    <path clip-path="url(#pfc9c2b8ec1)" d="M 346.082002 307.584 
L 349.247692 307.584 
L 349.247692 295.208166 
L 346.082002 295.208166 
z
" style="fill:#1f77b4;"/>
   </g>
   <g id="patch_90">
    <path clip-path="url(#pfc9c2b8ec1)" d="M 349.247692 307.584 
L 352.413383 307.584 
L 352.413383 302.858681 
L 349.247692 302.858681 
z
" style="fill:#1f77b4;"/>
   </g>
   <g id="patch_91">
    <path clip-path="url(#pfc9c2b8ec1)" d="M 352.413383 307.584 
L 355.579073 307.584 
L 355.579073 304.208772 
L 352.413383 304.208772 
z
" style="fill:#1f77b4;"/>
   </g>
   <g id="patch_92">
    <path clip-path="url(#pfc9c2b8ec1)" d="M 355.579073 307.584 
L 358.744763 307.584 
L 358.744763 302.858681 
L 355.579073 302.858681 
z
" style="fill:#1f77b4;"/>
   </g>
   <g id="patch_93">
    <path clip-path="url(#pfc9c2b8ec1)" d="M 358.744763 307.584 
L 361.910446 307.584 
L 361.910446 302.408638 
L 358.744763 302.408638 
z
" style="fill:#1f77b4;"/>
   </g>
   <g id="patch_94">
    <path clip-path="url(#pfc9c2b8ec1)" d="M 361.910446 307.584 
L 365.076136 307.584 
L 365.076136 303.533727 
L 361.910446 303.533727 
z
" style="fill:#1f77b4;"/>
   </g>
   <g id="patch_95">
    <path clip-path="url(#pfc9c2b8ec1)" d="M 365.076128 307.584 
L 368.241819 307.584 
L 368.241819 304.65881 
L 365.076128 304.65881 
z
" style="fill:#1f77b4;"/>
   </g>
   <g id="patch_96">
    <path clip-path="url(#pfc9c2b8ec1)" d="M 368.241834 307.584 
L 371.407509 307.584 
L 371.407509 306.683935 
L 368.241834 306.683935 
z
" style="fill:#1f77b4;"/>
   </g>
   <g id="patch_97">
    <path clip-path="url(#pfc9c2b8ec1)" d="M 371.407494 307.584 
L 374.573184 307.584 
L 374.573184 306.683939 
L 371.407494 306.683939 
z
" style="fill:#1f77b4;"/>
   </g>
   <g id="patch_98">
    <path clip-path="url(#pfc9c2b8ec1)" d="M 374.573199 307.584 
L 377.73889 307.584 
L 377.73889 306.908954 
L 374.573199 306.908954 
z
" style="fill:#1f77b4;"/>
   </g>
   <g id="patch_99">
    <path clip-path="url(#pfc9c2b8ec1)" d="M 377.738874 307.584 
L 380.904565 307.584 
L 380.904565 306.008894 
L 377.738874 306.008894 
z
" style="fill:#1f77b4;"/>
   </g>
   <g id="patch_100">
    <path clip-path="url(#pfc9c2b8ec1)" d="M 380.90458 307.584 
L 384.07027 307.584 
L 384.07027 306.908954 
L 380.90458 306.908954 
z
" style="fill:#1f77b4;"/>
   </g>
   <g id="patch_101">
    <path clip-path="url(#pfc9c2b8ec1)" d="M 384.070255 307.584 
L 387.235945 307.584 
L 387.235945 306.908954 
L 384.070255 306.908954 
z
" style="fill:#1f77b4;"/>
   </g>
   <g id="patch_102">
    <path clip-path="url(#pfc9c2b8ec1)" d="M 387.235961 307.584 
L 390.401651 307.584 
L 390.401651 306.683939 
L 387.235961 306.683939 
z
" style="fill:#1f77b4;"/>
   </g>
   <g id="matplotlib.axis_1">
    <g id="xtick_1">
     <g id="line2d_1">
      <defs>
       <path d="M 0 0 
L 0 3.5 
" id="ma3a8810fd4" style="stroke:#000000;stroke-width:0.8;"/>
      </defs>
      <g>
       <use style="stroke:#000000;stroke-width:0.8;" x="106.379954" xlink:href="#ma3a8810fd4" y="307.584"/>
      </g>
     </g>
     <g id="text_1">
      <!-- −2 -->
      <defs>
       <path d="M 10.59375 35.5 
L 73.1875 35.5 
L 73.1875 27.203125 
L 10.59375 27.203125 
z
" id="DejaVuSans-8722"/>
       <path d="M 19.1875 8.296875 
L 53.609375 8.296875 
L 53.609375 0 
L 7.328125 0 
L 7.328125 8.296875 
Q 12.9375 14.109375 22.625 23.890625 
Q 32.328125 33.6875 34.8125 36.53125 
Q 39.546875 41.84375 41.421875 45.53125 
Q 43.3125 49.21875 43.3125 52.78125 
Q 43.3125 58.59375 39.234375 62.25 
Q 35.15625 65.921875 28.609375 65.921875 
Q 23.96875 65.921875 18.8125 64.3125 
Q 13.671875 62.703125 7.8125 59.421875 
L 7.8125 69.390625 
Q 13.765625 71.78125 18.9375 73 
Q 24.125 74.21875 28.421875 74.21875 
Q 39.75 74.21875 46.484375 68.546875 
Q 53.21875 62.890625 53.21875 53.421875 
Q 53.21875 48.921875 51.53125 44.890625 
Q 49.859375 40.875 45.40625 35.40625 
Q 44.1875 33.984375 37.640625 27.21875 
Q 31.109375 20.453125 19.1875 8.296875 
z
" id="DejaVuSans-50"/>
      </defs>
      <g transform="translate(93.849095 327.501344)scale(0.17 -0.17)">
       <use xlink:href="#DejaVuSans-8722"/>
       <use x="83.789062" xlink:href="#DejaVuSans-50"/>
      </g>
     </g>
    </g>
    <g id="xtick_2">
     <g id="line2d_2">
      <g>
       <use style="stroke:#000000;stroke-width:0.8;" x="171.294752" xlink:href="#ma3a8810fd4" y="307.584"/>
      </g>
     </g>
     <g id="text_2">
      <!-- −1 -->
      <defs>
       <path d="M 12.40625 8.296875 
L 28.515625 8.296875 
L 28.515625 63.921875 
L 10.984375 60.40625 
L 10.984375 69.390625 
L 28.421875 72.90625 
L 38.28125 72.90625 
L 38.28125 8.296875 
L 54.390625 8.296875 
L 54.390625 0 
L 12.40625 0 
z
" id="DejaVuSans-49"/>
      </defs>
      <g transform="translate(158.763893 327.501344)scale(0.17 -0.17)">
       <use xlink:href="#DejaVuSans-8722"/>
       <use x="83.789062" xlink:href="#DejaVuSans-49"/>
      </g>
     </g>
    </g>
    <g id="xtick_3">
     <g id="line2d_3">
      <g>
       <use style="stroke:#000000;stroke-width:0.8;" x="236.209551" xlink:href="#ma3a8810fd4" y="307.584"/>
      </g>
     </g>
     <g id="text_3">
      <!-- 0 -->
      <defs>
       <path d="M 31.78125 66.40625 
Q 24.171875 66.40625 20.328125 58.90625 
Q 16.5 51.421875 16.5 36.375 
Q 16.5 21.390625 20.328125 13.890625 
Q 24.171875 6.390625 31.78125 6.390625 
Q 39.453125 6.390625 43.28125 13.890625 
Q 47.125 21.390625 47.125 36.375 
Q 47.125 51.421875 43.28125 58.90625 
Q 39.453125 66.40625 31.78125 66.40625 
z
M 31.78125 74.21875 
Q 44.046875 74.21875 50.515625 64.515625 
Q 56.984375 54.828125 56.984375 36.375 
Q 56.984375 17.96875 50.515625 8.265625 
Q 44.046875 -1.421875 31.78125 -1.421875 
Q 19.53125 -1.421875 13.0625 8.265625 
Q 6.59375 17.96875 6.59375 36.375 
Q 6.59375 54.828125 13.0625 64.515625 
Q 19.53125 74.21875 31.78125 74.21875 
z
" id="DejaVuSans-48"/>
      </defs>
      <g transform="translate(230.801426 327.501344)scale(0.17 -0.17)">
       <use xlink:href="#DejaVuSans-48"/>
      </g>
     </g>
    </g>
    <g id="xtick_4">
     <g id="line2d_4">
      <g>
       <use style="stroke:#000000;stroke-width:0.8;" x="301.124349" xlink:href="#ma3a8810fd4" y="307.584"/>
      </g>
     </g>
     <g id="text_4">
      <!-- 1 -->
      <g transform="translate(295.716224 327.501344)scale(0.17 -0.17)">
       <use xlink:href="#DejaVuSans-49"/>
      </g>
     </g>
    </g>
    <g id="xtick_5">
     <g id="line2d_5">
      <g>
       <use style="stroke:#000000;stroke-width:0.8;" x="366.039147" xlink:href="#ma3a8810fd4" y="307.584"/>
      </g>
     </g>
     <g id="text_5">
      <!-- 2 -->
      <g transform="translate(360.631022 327.501344)scale(0.17 -0.17)">
       <use xlink:href="#DejaVuSans-50"/>
      </g>
     </g>
    </g>
    <g id="text_6">
     <!-- Position in Radian -->
     <defs>
      <path d="M 19.671875 64.796875 
L 19.671875 37.40625 
L 32.078125 37.40625 
Q 38.96875 37.40625 42.71875 40.96875 
Q 46.484375 44.53125 46.484375 51.125 
Q 46.484375 57.671875 42.71875 61.234375 
Q 38.96875 64.796875 32.078125 64.796875 
z
M 9.8125 72.90625 
L 32.078125 72.90625 
Q 44.34375 72.90625 50.609375 67.359375 
Q 56.890625 61.8125 56.890625 51.125 
Q 56.890625 40.328125 50.609375 34.8125 
Q 44.34375 29.296875 32.078125 29.296875 
L 19.671875 29.296875 
L 19.671875 0 
L 9.8125 0 
z
" id="DejaVuSans-80"/>
      <path d="M 30.609375 48.390625 
Q 23.390625 48.390625 19.1875 42.75 
Q 14.984375 37.109375 14.984375 27.296875 
Q 14.984375 17.484375 19.15625 11.84375 
Q 23.34375 6.203125 30.609375 6.203125 
Q 37.796875 6.203125 41.984375 11.859375 
Q 46.1875 17.53125 46.1875 27.296875 
Q 46.1875 37.015625 41.984375 42.703125 
Q 37.796875 48.390625 30.609375 48.390625 
z
M 30.609375 56 
Q 42.328125 56 49.015625 48.375 
Q 55.71875 40.765625 55.71875 27.296875 
Q 55.71875 13.875 49.015625 6.21875 
Q 42.328125 -1.421875 30.609375 -1.421875 
Q 18.84375 -1.421875 12.171875 6.21875 
Q 5.515625 13.875 5.515625 27.296875 
Q 5.515625 40.765625 12.171875 48.375 
Q 18.84375 56 30.609375 56 
z
" id="DejaVuSans-111"/>
      <path d="M 44.28125 53.078125 
L 44.28125 44.578125 
Q 40.484375 46.53125 36.375 47.5 
Q 32.28125 48.484375 27.875 48.484375 
Q 21.1875 48.484375 17.84375 46.4375 
Q 14.5 44.390625 14.5 40.28125 
Q 14.5 37.15625 16.890625 35.375 
Q 19.28125 33.59375 26.515625 31.984375 
L 29.59375 31.296875 
Q 39.15625 29.25 43.1875 25.515625 
Q 47.21875 21.78125 47.21875 15.09375 
Q 47.21875 7.46875 41.1875 3.015625 
Q 35.15625 -1.421875 24.609375 -1.421875 
Q 20.21875 -1.421875 15.453125 -0.5625 
Q 10.6875 0.296875 5.421875 2 
L 5.421875 11.28125 
Q 10.40625 8.6875 15.234375 7.390625 
Q 20.0625 6.109375 24.8125 6.109375 
Q 31.15625 6.109375 34.5625 8.28125 
Q 37.984375 10.453125 37.984375 14.40625 
Q 37.984375 18.0625 35.515625 20.015625 
Q 33.0625 21.96875 24.703125 23.78125 
L 21.578125 24.515625 
Q 13.234375 26.265625 9.515625 29.90625 
Q 5.8125 33.546875 5.8125 39.890625 
Q 5.8125 47.609375 11.28125 51.796875 
Q 16.75 56 26.8125 56 
Q 31.78125 56 36.171875 55.265625 
Q 40.578125 54.546875 44.28125 53.078125 
z
" id="DejaVuSans-115"/>
      <path d="M 9.421875 54.6875 
L 18.40625 54.6875 
L 18.40625 0 
L 9.421875 0 
z
M 9.421875 75.984375 
L 18.40625 75.984375 
L 18.40625 64.59375 
L 9.421875 64.59375 
z
" id="DejaVuSans-105"/>
      <path d="M 18.3125 70.21875 
L 18.3125 54.6875 
L 36.8125 54.6875 
L 36.8125 47.703125 
L 18.3125 47.703125 
L 18.3125 18.015625 
Q 18.3125 11.328125 20.140625 9.421875 
Q 21.96875 7.515625 27.59375 7.515625 
L 36.8125 7.515625 
L 36.8125 0 
L 27.59375 0 
Q 17.1875 0 13.234375 3.875 
Q 9.28125 7.765625 9.28125 18.015625 
L 9.28125 47.703125 
L 2.6875 47.703125 
L 2.6875 54.6875 
L 9.28125 54.6875 
L 9.28125 70.21875 
z
" id="DejaVuSans-116"/>
      <path d="M 54.890625 33.015625 
L 54.890625 0 
L 45.90625 0 
L 45.90625 32.71875 
Q 45.90625 40.484375 42.875 44.328125 
Q 39.84375 48.1875 33.796875 48.1875 
Q 26.515625 48.1875 22.3125 43.546875 
Q 18.109375 38.921875 18.109375 30.90625 
L 18.109375 0 
L 9.078125 0 
L 9.078125 54.6875 
L 18.109375 54.6875 
L 18.109375 46.1875 
Q 21.34375 51.125 25.703125 53.5625 
Q 30.078125 56 35.796875 56 
Q 45.21875 56 50.046875 50.171875 
Q 54.890625 44.34375 54.890625 33.015625 
z
" id="DejaVuSans-110"/>
      <path id="DejaVuSans-32"/>
      <path d="M 44.390625 34.1875 
Q 47.5625 33.109375 50.5625 29.59375 
Q 53.5625 26.078125 56.59375 19.921875 
L 66.609375 0 
L 56 0 
L 46.6875 18.703125 
Q 43.0625 26.03125 39.671875 28.421875 
Q 36.28125 30.8125 30.421875 30.8125 
L 19.671875 30.8125 
L 19.671875 0 
L 9.8125 0 
L 9.8125 72.90625 
L 32.078125 72.90625 
Q 44.578125 72.90625 50.734375 67.671875 
Q 56.890625 62.453125 56.890625 51.90625 
Q 56.890625 45.015625 53.6875 40.46875 
Q 50.484375 35.9375 44.390625 34.1875 
z
M 19.671875 64.796875 
L 19.671875 38.921875 
L 32.078125 38.921875 
Q 39.203125 38.921875 42.84375 42.21875 
Q 46.484375 45.515625 46.484375 51.90625 
Q 46.484375 58.296875 42.84375 61.546875 
Q 39.203125 64.796875 32.078125 64.796875 
z
" id="DejaVuSans-82"/>
      <path d="M 34.28125 27.484375 
Q 23.390625 27.484375 19.1875 25 
Q 14.984375 22.515625 14.984375 16.5 
Q 14.984375 11.71875 18.140625 8.90625 
Q 21.296875 6.109375 26.703125 6.109375 
Q 34.1875 6.109375 38.703125 11.40625 
Q 43.21875 16.703125 43.21875 25.484375 
L 43.21875 27.484375 
z
M 52.203125 31.203125 
L 52.203125 0 
L 43.21875 0 
L 43.21875 8.296875 
Q 40.140625 3.328125 35.546875 0.953125 
Q 30.953125 -1.421875 24.3125 -1.421875 
Q 15.921875 -1.421875 10.953125 3.296875 
Q 6 8.015625 6 15.921875 
Q 6 25.140625 12.171875 29.828125 
Q 18.359375 34.515625 30.609375 34.515625 
L 43.21875 34.515625 
L 43.21875 35.40625 
Q 43.21875 41.609375 39.140625 45 
Q 35.0625 48.390625 27.6875 48.390625 
Q 23 48.390625 18.546875 47.265625 
Q 14.109375 46.140625 10.015625 43.890625 
L 10.015625 52.203125 
Q 14.9375 54.109375 19.578125 55.046875 
Q 24.21875 56 28.609375 56 
Q 40.484375 56 46.34375 49.84375 
Q 52.203125 43.703125 52.203125 31.203125 
z
" id="DejaVuSans-97"/>
      <path d="M 45.40625 46.390625 
L 45.40625 75.984375 
L 54.390625 75.984375 
L 54.390625 0 
L 45.40625 0 
L 45.40625 8.203125 
Q 42.578125 3.328125 38.25 0.953125 
Q 33.9375 -1.421875 27.875 -1.421875 
Q 17.96875 -1.421875 11.734375 6.484375 
Q 5.515625 14.40625 5.515625 27.296875 
Q 5.515625 40.1875 11.734375 48.09375 
Q 17.96875 56 27.875 56 
Q 33.9375 56 38.25 53.625 
Q 42.578125 51.265625 45.40625 46.390625 
z
M 14.796875 27.296875 
Q 14.796875 17.390625 18.875 11.75 
Q 22.953125 6.109375 30.078125 6.109375 
Q 37.203125 6.109375 41.296875 11.75 
Q 45.40625 17.390625 45.40625 27.296875 
Q 45.40625 37.203125 41.296875 42.84375 
Q 37.203125 48.484375 30.078125 48.484375 
Q 22.953125 48.484375 18.875 42.84375 
Q 14.796875 37.203125 14.796875 27.296875 
z
" id="DejaVuSans-100"/>
     </defs>
     <g transform="translate(102.024844 357.832125)scale(0.3 -0.3)">
      <use xlink:href="#DejaVuSans-80"/>
      <use x="60.255859" xlink:href="#DejaVuSans-111"/>
      <use x="121.4375" xlink:href="#DejaVuSans-115"/>
      <use x="173.537109" xlink:href="#DejaVuSans-105"/>
      <use x="201.320312" xlink:href="#DejaVuSans-116"/>
      <use x="240.529297" xlink:href="#DejaVuSans-105"/>
      <use x="268.3125" xlink:href="#DejaVuSans-111"/>
      <use x="329.494141" xlink:href="#DejaVuSans-110"/>
      <use x="392.873047" xlink:href="#DejaVuSans-32"/>
      <use x="424.660156" xlink:href="#DejaVuSans-105"/>
      <use x="452.443359" xlink:href="#DejaVuSans-110"/>
      <use x="515.822266" xlink:href="#DejaVuSans-32"/>
      <use x="547.609375" xlink:href="#DejaVuSans-82"/>
      <use x="617.060547" xlink:href="#DejaVuSans-97"/>
      <use x="678.339844" xlink:href="#DejaVuSans-100"/>
      <use x="741.816406" xlink:href="#DejaVuSans-105"/>
      <use x="769.599609" xlink:href="#DejaVuSans-97"/>
      <use x="830.878906" xlink:href="#DejaVuSans-110"/>
     </g>
    </g>
   </g>
   <g id="matplotlib.axis_2">
    <g id="ytick_1">
     <g id="line2d_6">
      <defs>
       <path d="M 0 0 
L -3.5 0 
" id="md4d68d797e" style="stroke:#000000;stroke-width:0.8;"/>
      </defs>
      <g>
       <use style="stroke:#000000;stroke-width:0.8;" x="57.6" xlink:href="#md4d68d797e" y="307.584"/>
      </g>
     </g>
     <g id="text_7">
      <!-- 0.0 -->
      <defs>
       <path d="M 10.6875 12.40625 
L 21 12.40625 
L 21 0 
L 10.6875 0 
z
" id="DejaVuSans-46"/>
      </defs>
      <g transform="translate(23.564687 314.042672)scale(0.17 -0.17)">
       <use xlink:href="#DejaVuSans-48"/>
       <use x="63.623047" xlink:href="#DejaVuSans-46"/>
       <use x="95.410156" xlink:href="#DejaVuSans-48"/>
      </g>
     </g>
    </g>
    <g id="ytick_2">
     <g id="line2d_7">
      <g>
       <use style="stroke:#000000;stroke-width:0.8;" x="57.6" xlink:href="#md4d68d797e" y="269.177515"/>
      </g>
     </g>
     <g id="text_8">
      <!-- 0.2 -->
      <g transform="translate(23.564687 275.636187)scale(0.17 -0.17)">
       <use xlink:href="#DejaVuSans-48"/>
       <use x="63.623047" xlink:href="#DejaVuSans-46"/>
       <use x="95.410156" xlink:href="#DejaVuSans-50"/>
      </g>
     </g>
    </g>
    <g id="ytick_3">
     <g id="line2d_8">
      <g>
       <use style="stroke:#000000;stroke-width:0.8;" x="57.6" xlink:href="#md4d68d797e" y="230.77103"/>
      </g>
     </g>
     <g id="text_9">
      <!-- 0.4 -->
      <defs>
       <path d="M 37.796875 64.3125 
L 12.890625 25.390625 
L 37.796875 25.390625 
z
M 35.203125 72.90625 
L 47.609375 72.90625 
L 47.609375 25.390625 
L 58.015625 25.390625 
L 58.015625 17.1875 
L 47.609375 17.1875 
L 47.609375 0 
L 37.796875 0 
L 37.796875 17.1875 
L 4.890625 17.1875 
L 4.890625 26.703125 
z
" id="DejaVuSans-52"/>
      </defs>
      <g transform="translate(23.564687 237.229702)scale(0.17 -0.17)">
       <use xlink:href="#DejaVuSans-48"/>
       <use x="63.623047" xlink:href="#DejaVuSans-46"/>
       <use x="95.410156" xlink:href="#DejaVuSans-52"/>
      </g>
     </g>
    </g>
    <g id="ytick_4">
     <g id="line2d_9">
      <g>
       <use style="stroke:#000000;stroke-width:0.8;" x="57.6" xlink:href="#md4d68d797e" y="192.364545"/>
      </g>
     </g>
     <g id="text_10">
      <!-- 0.6 -->
      <defs>
       <path d="M 33.015625 40.375 
Q 26.375 40.375 22.484375 35.828125 
Q 18.609375 31.296875 18.609375 23.390625 
Q 18.609375 15.53125 22.484375 10.953125 
Q 26.375 6.390625 33.015625 6.390625 
Q 39.65625 6.390625 43.53125 10.953125 
Q 47.40625 15.53125 47.40625 23.390625 
Q 47.40625 31.296875 43.53125 35.828125 
Q 39.65625 40.375 33.015625 40.375 
z
M 52.59375 71.296875 
L 52.59375 62.3125 
Q 48.875 64.0625 45.09375 64.984375 
Q 41.3125 65.921875 37.59375 65.921875 
Q 27.828125 65.921875 22.671875 59.328125 
Q 17.53125 52.734375 16.796875 39.40625 
Q 19.671875 43.65625 24.015625 45.921875 
Q 28.375 48.1875 33.59375 48.1875 
Q 44.578125 48.1875 50.953125 41.515625 
Q 57.328125 34.859375 57.328125 23.390625 
Q 57.328125 12.15625 50.6875 5.359375 
Q 44.046875 -1.421875 33.015625 -1.421875 
Q 20.359375 -1.421875 13.671875 8.265625 
Q 6.984375 17.96875 6.984375 36.375 
Q 6.984375 53.65625 15.1875 63.9375 
Q 23.390625 74.21875 37.203125 74.21875 
Q 40.921875 74.21875 44.703125 73.484375 
Q 48.484375 72.75 52.59375 71.296875 
z
" id="DejaVuSans-54"/>
      </defs>
      <g transform="translate(23.564687 198.823217)scale(0.17 -0.17)">
       <use xlink:href="#DejaVuSans-48"/>
       <use x="63.623047" xlink:href="#DejaVuSans-46"/>
       <use x="95.410156" xlink:href="#DejaVuSans-54"/>
      </g>
     </g>
    </g>
    <g id="ytick_5">
     <g id="line2d_10">
      <g>
       <use style="stroke:#000000;stroke-width:0.8;" x="57.6" xlink:href="#md4d68d797e" y="153.95806"/>
      </g>
     </g>
     <g id="text_11">
      <!-- 0.8 -->
      <defs>
       <path d="M 31.78125 34.625 
Q 24.75 34.625 20.71875 30.859375 
Q 16.703125 27.09375 16.703125 20.515625 
Q 16.703125 13.921875 20.71875 10.15625 
Q 24.75 6.390625 31.78125 6.390625 
Q 38.8125 6.390625 42.859375 10.171875 
Q 46.921875 13.96875 46.921875 20.515625 
Q 46.921875 27.09375 42.890625 30.859375 
Q 38.875 34.625 31.78125 34.625 
z
M 21.921875 38.8125 
Q 15.578125 40.375 12.03125 44.71875 
Q 8.5 49.078125 8.5 55.328125 
Q 8.5 64.0625 14.71875 69.140625 
Q 20.953125 74.21875 31.78125 74.21875 
Q 42.671875 74.21875 48.875 69.140625 
Q 55.078125 64.0625 55.078125 55.328125 
Q 55.078125 49.078125 51.53125 44.71875 
Q 48 40.375 41.703125 38.8125 
Q 48.828125 37.15625 52.796875 32.3125 
Q 56.78125 27.484375 56.78125 20.515625 
Q 56.78125 9.90625 50.3125 4.234375 
Q 43.84375 -1.421875 31.78125 -1.421875 
Q 19.734375 -1.421875 13.25 4.234375 
Q 6.78125 9.90625 6.78125 20.515625 
Q 6.78125 27.484375 10.78125 32.3125 
Q 14.796875 37.15625 21.921875 38.8125 
z
M 18.3125 54.390625 
Q 18.3125 48.734375 21.84375 45.5625 
Q 25.390625 42.390625 31.78125 42.390625 
Q 38.140625 42.390625 41.71875 45.5625 
Q 45.3125 48.734375 45.3125 54.390625 
Q 45.3125 60.0625 41.71875 63.234375 
Q 38.140625 66.40625 31.78125 66.40625 
Q 25.390625 66.40625 21.84375 63.234375 
Q 18.3125 60.0625 18.3125 54.390625 
z
" id="DejaVuSans-56"/>
      </defs>
      <g transform="translate(23.564687 160.416731)scale(0.17 -0.17)">
       <use xlink:href="#DejaVuSans-48"/>
       <use x="63.623047" xlink:href="#DejaVuSans-46"/>
       <use x="95.410156" xlink:href="#DejaVuSans-56"/>
      </g>
     </g>
    </g>
    <g id="ytick_6">
     <g id="line2d_11">
      <g>
       <use style="stroke:#000000;stroke-width:0.8;" x="57.6" xlink:href="#md4d68d797e" y="115.551574"/>
      </g>
     </g>
     <g id="text_12">
      <!-- 1.0 -->
      <g transform="translate(23.564687 122.010246)scale(0.17 -0.17)">
       <use xlink:href="#DejaVuSans-49"/>
       <use x="63.623047" xlink:href="#DejaVuSans-46"/>
       <use x="95.410156" xlink:href="#DejaVuSans-48"/>
      </g>
     </g>
    </g>
    <g id="ytick_7">
     <g id="line2d_12">
      <g>
       <use style="stroke:#000000;stroke-width:0.8;" x="57.6" xlink:href="#md4d68d797e" y="77.145089"/>
      </g>
     </g>
     <g id="text_13">
      <!-- 1.2 -->
      <g transform="translate(23.564687 83.603761)scale(0.17 -0.17)">
       <use xlink:href="#DejaVuSans-49"/>
       <use x="63.623047" xlink:href="#DejaVuSans-46"/>
       <use x="95.410156" xlink:href="#DejaVuSans-50"/>
      </g>
     </g>
    </g>
    <g id="text_14">
     <!-- Density -->
     <defs>
      <path d="M 19.671875 64.796875 
L 19.671875 8.109375 
L 31.59375 8.109375 
Q 46.6875 8.109375 53.6875 14.9375 
Q 60.6875 21.78125 60.6875 36.53125 
Q 60.6875 51.171875 53.6875 57.984375 
Q 46.6875 64.796875 31.59375 64.796875 
z
M 9.8125 72.90625 
L 30.078125 72.90625 
Q 51.265625 72.90625 61.171875 64.09375 
Q 71.09375 55.28125 71.09375 36.53125 
Q 71.09375 17.671875 61.125 8.828125 
Q 51.171875 0 30.078125 0 
L 9.8125 0 
z
" id="DejaVuSans-68"/>
      <path d="M 56.203125 29.59375 
L 56.203125 25.203125 
L 14.890625 25.203125 
Q 15.484375 15.921875 20.484375 11.0625 
Q 25.484375 6.203125 34.421875 6.203125 
Q 39.59375 6.203125 44.453125 7.46875 
Q 49.3125 8.734375 54.109375 11.28125 
L 54.109375 2.78125 
Q 49.265625 0.734375 44.1875 -0.34375 
Q 39.109375 -1.421875 33.890625 -1.421875 
Q 20.796875 -1.421875 13.15625 6.1875 
Q 5.515625 13.8125 5.515625 26.8125 
Q 5.515625 40.234375 12.765625 48.109375 
Q 20.015625 56 32.328125 56 
Q 43.359375 56 49.78125 48.890625 
Q 56.203125 41.796875 56.203125 29.59375 
z
M 47.21875 32.234375 
Q 47.125 39.59375 43.09375 43.984375 
Q 39.0625 48.390625 32.421875 48.390625 
Q 24.90625 48.390625 20.390625 44.140625 
Q 15.875 39.890625 15.1875 32.171875 
z
" id="DejaVuSans-101"/>
      <path d="M 32.171875 -5.078125 
Q 28.375 -14.84375 24.75 -17.8125 
Q 21.140625 -20.796875 15.09375 -20.796875 
L 7.90625 -20.796875 
L 7.90625 -13.28125 
L 13.1875 -13.28125 
Q 16.890625 -13.28125 18.9375 -11.515625 
Q 21 -9.765625 23.484375 -3.21875 
L 25.09375 0.875 
L 2.984375 54.6875 
L 12.5 54.6875 
L 29.59375 11.921875 
L 46.6875 54.6875 
L 56.203125 54.6875 
z
" id="DejaVuSans-121"/>
     </defs>
     <g transform="translate(13.325625 231.553781)rotate(-90)scale(0.3 -0.3)">
      <use xlink:href="#DejaVuSans-68"/>
      <use x="77.001953" xlink:href="#DejaVuSans-101"/>
      <use x="138.525391" xlink:href="#DejaVuSans-110"/>
      <use x="201.904297" xlink:href="#DejaVuSans-115"/>
      <use x="254.003906" xlink:href="#DejaVuSans-105"/>
      <use x="281.787109" xlink:href="#DejaVuSans-116"/>
      <use x="320.996094" xlink:href="#DejaVuSans-121"/>
     </g>
    </g>
   </g>
   <g id="line2d_13">
    <path clip-path="url(#pfc9c2b8ec1)" d="M 73.922555 305.823041 
L 74.172941 305.923506 
L 74.599524 306.417053 
L 75.053927 306.803899 
L 75.406322 306.814679 
L 77.140474 306.488444 
L 78.271847 306.888199 
L 78.948815 307.032824 
L 79.440313 306.875387 
L 80.005999 306.737902 
L 80.414035 306.899654 
L 81.202286 307.253245 
L 81.619596 307.141265 
L 82.57477 306.796203 
L 83.223918 306.965552 
L 83.669048 306.945998 
L 84.64277 306.754869 
L 85.152815 307.088888 
L 85.653587 307.314083 
L 85.996708 307.225046 
L 86.404744 306.857381 
L 87.174448 306.149288 
L 89.075524 305.464365 
L 89.919416 305.621468 
L 90.420187 306.024354 
L 90.856044 306.26298 
L 91.162071 306.179306 
L 92.376905 305.576505 
L 92.794214 305.842196 
L 93.526824 306.310588 
L 94.055416 306.335173 
L 94.491273 306.162537 
L 94.880761 305.740203 
L 95.706107 304.766658 
L 95.984313 304.792134 
L 96.345981 305.087653 
L 97.31043 305.953674 
L 97.746286 306.004487 
L 98.256331 305.833379 
L 98.692187 305.455236 
L 99.777192 304.328099 
L 100.036851 304.492301 
L 100.42634 305.063501 
L 101.066214 305.946643 
L 101.353694 306.004686 
L 101.60408 305.818882 
L 101.910107 305.274569 
L 102.33669 303.990745 
L 103.087847 301.743153 
L 103.347506 301.553616 
L 103.551524 301.67408 
L 103.876098 302.198338 
L 104.553066 303.283476 
L 104.84982 303.370416 
L 105.202214 303.210678 
L 106.537604 302.469057 
L 106.936367 302.394627 
L 107.260941 302.580279 
L 108.021371 303.110295 
L 108.308851 302.980681 
L 108.763255 302.471538 
L 109.9039 301.160957 
L 110.219201 301.113993 
L 110.525228 301.311625 
L 111.573138 302.21455 
L 111.81425 302.006921 
L 112.148098 301.370976 
L 112.815793 300.07654 
L 113.047631 300.054566 
L 113.344385 300.312616 
L 113.798788 300.646775 
L 114.494304 300.901154 
L 114.809605 301.513876 
L 115.430932 302.725601 
L 115.644223 302.740629 
L 115.876062 302.486377 
L 116.923972 301.030379 
L 117.424744 300.723013 
L 117.73077 300.171367 
L 118.964152 297.508703 
L 119.79877 297.247745 
L 120.114071 297.287405 
L 120.383004 297.577673 
L 121.245443 298.716374 
L 121.430914 298.475019 
L 121.70912 297.665913 
L 122.57156 294.920177 
L 123.025963 294.439299 
L 123.387631 293.911112 
L 123.758573 292.909693 
L 124.305712 290.653997 
L 124.79721 288.974766 
L 124.991954 288.851367 
L 125.131057 289.036748 
L 125.344349 289.782171 
L 125.68747 291.94882 
L 126.522089 297.386134 
L 126.809569 297.990524 
L 127.013587 298.02292 
L 127.291793 297.778472 
L 127.774017 297.400469 
L 128.04295 297.473547 
L 128.469533 297.891564 
L 128.840474 298.119195 
L 129.035219 297.991832 
L 129.257784 297.523312 
L 129.573084 296.24917 
L 130.565353 291.848658 
L 130.917748 291.34194 
L 131.233048 291.235419 
L 131.594717 291.363907 
L 132.568439 291.821393 
L 132.920833 291.680795 
L 133.282501 291.276693 
L 133.755452 290.358904 
L 135.081569 287.050144 
L 136.296403 283.762375 
L 136.518968 283.801512 
L 137.297945 284.15739 
L 137.80799 284.171014 
L 138.967183 284.853452 
L 139.254663 285.451433 
L 140.00582 287.188486 
L 140.154196 287.093028 
L 140.348941 286.622713 
L 140.664241 285.144389 
L 141.610143 280.335135 
L 141.91617 279.866143 
L 142.185102 279.816148 
L 142.556044 280.020081 
L 143.297927 280.434684 
L 143.780152 280.675651 
L 144.113999 281.17694 
L 144.605497 281.868129 
L 144.763147 281.784628 
L 144.948618 281.369942 
L 145.226824 280.103809 
L 146.246914 274.851948 
L 146.423111 274.81385 
L 146.608582 275.067678 
L 147.582304 276.796421 
L 147.786322 276.605177 
L 148.064528 275.966657 
L 148.509658 274.261007 
L 149.112439 272.13079 
L 149.335004 271.94118 
L 149.492654 272.088432 
L 149.724492 272.706273 
L 150.605479 275.59677 
L 150.642573 275.578212 
L 150.79095 275.312534 
L 151.022788 274.332109 
L 151.903775 270.071988 
L 152.024331 270.160946 
L 152.200528 270.691993 
L 152.515829 272.522037 
L 153.072241 275.589352 
L 153.220618 275.729032 
L 153.239165 275.717183 
L 153.359721 275.477309 
L 153.563739 274.465923 
L 154.018143 270.691104 
L 154.435452 268.107556 
L 154.695111 267.607492 
L 154.92695 267.598336 
L 155.232977 267.570682 
L 155.446268 267.272641 
L 155.780116 266.326635 
L 156.336528 264.838978 
L 156.503452 264.838498 
L 156.670376 265.158694 
L 156.939309 266.271934 
L 157.523542 268.697865 
L 157.690465 268.743632 
L 157.857389 268.477625 
L 158.478717 267.312243 
L 158.64564 267.471201 
L 158.979488 268.221028 
L 159.35043 268.831756 
L 159.5359 268.809777 
L 159.730645 268.514729 
L 160.008851 267.627417 
L 160.407613 265.511448 
L 161.826465 257.251822 
L 162.484887 254.943329 
L 164.487972 249.857473 
L 164.775452 249.954424 
L 165.025838 249.935162 
L 165.257676 249.634115 
L 165.71208 249.0413 
L 165.851183 249.197376 
L 166.055201 249.849943 
L 166.852726 252.970728 
L 166.880546 252.959405 
L 167.010376 252.747943 
L 167.232941 251.839158 
L 167.659524 248.915915 
L 169.124744 238.47993 
L 169.40295 237.785817 
L 169.523506 237.835493 
L 169.681156 238.255037 
L 169.940815 239.749914 
L 170.710519 244.647328 
L 170.803255 244.605332 
L 170.812528 244.588768 
L 170.951631 244.061502 
L 171.174196 242.150648 
L 171.563685 236.443251 
L 172.23138 227.123376 
L 172.509587 225.763333 
L 172.64869 225.68714 
L 172.667237 225.701598 
L 172.824887 226.001148 
L 173.585318 227.773283 
L 174.067542 227.971365 
L 174.262286 228.623509 
L 174.540492 230.487157 
L 175.245282 235.49211 
L 175.384385 235.599524 
L 175.402932 235.586973 
L 175.542035 235.32624 
L 176.256098 233.499449 
L 176.293192 233.518639 
L 176.49721 233.796424 
L 176.831057 234.183128 
L 176.960887 234.031763 
L 177.137084 233.397738 
L 177.415291 231.406703 
L 178.324098 224.242873 
L 178.593031 223.710409 
L 178.750681 223.755041 
L 178.926878 224.128277 
L 179.177264 225.288006 
L 179.687309 229.097436 
L 180.011883 230.626957 
L 180.123165 230.685251 
L 180.150986 230.657695 
L 180.290089 230.275116 
L 180.540474 228.74591 
L 181.189622 224.640803 
L 181.319452 224.545631 
L 181.347273 224.56684 
L 181.486376 224.875615 
L 181.755309 226.181063 
L 182.320995 228.843652 
L 182.525013 229.009347 
L 182.682663 228.842075 
L 182.979416 228.1054 
L 184.212797 224.747553 
L 184.843398 223.96816 
L 185.112331 222.807213 
L 185.900582 219.038608 
L 186.011865 219.129508 
L 186.178788 219.677535 
L 186.484815 221.640897 
L 187.217425 226.409464 
L 187.59764 227.465257 
L 188.256062 228.442295 
L 188.868116 229.219433 
L 189.053587 229.146358 
L 189.276152 228.767603 
L 190.147865 226.919683 
L 190.166412 226.929175 
L 190.324062 227.151286 
L 190.5559 227.947286 
L 190.908295 230.118344 
L 191.789282 235.926518 
L 191.900564 235.989043 
L 191.928385 235.963673 
L 192.058214 235.62184 
L 192.271506 234.290442 
L 192.660995 230.116271 
L 193.384331 222.665901 
L 193.764546 220.782635 
L 194.014932 220.377843 
L 194.163309 220.458534 
L 194.358053 220.917542 
L 194.682627 222.390323 
L 195.433784 225.877952 
L 195.702717 226.246616 
L 195.888187 226.195722 
L 196.138573 225.829427 
L 196.945371 224.490193 
L 197.62234 224.007512 
L 197.891273 223.245031 
L 198.271488 221.394968 
L 199.291578 216.105382 
L 199.495596 215.955061 
L 199.634699 216.149745 
L 199.84799 216.917082 
L 200.209658 219.229538 
L 200.803165 222.82924 
L 201.016457 223.12125 
L 201.146286 222.986582 
L 201.387398 222.299531 
L 202.036546 220.384601 
L 202.973174 218.960095 
L 203.112277 219.175942 
L 203.307022 219.987473 
L 203.640869 222.538674 
L 204.215829 226.670184 
L 204.456941 227.169168 
L 204.58677 227.093033 
L 204.762968 226.634478 
L 205.041174 225.172409 
L 205.959255 219.672776 
L 205.968528 219.675408 
L 206.070537 219.835988 
L 206.246735 220.660621 
L 206.589856 223.637132 
L 207.062806 227.200231 
L 207.266824 227.558741 
L 207.38738 227.416597 
L 207.600672 226.698395 
L 208.221999 223.477609 
L 209.056618 219.51506 
L 209.177174 219.476957 
L 209.204995 219.503934 
L 209.353371 219.876638 
L 209.613031 221.314742 
L 210.243631 224.911129 
L 210.382735 225.000187 
L 210.401282 224.98691 
L 210.540385 224.712732 
L 210.79077 223.602363 
L 211.792313 217.379527 
L 212.85877 209.929741 
L 213.647022 204.796906 
L 213.971596 203.975153 
L 214.249802 203.795263 
L 214.722753 203.809845 
L 215.010232 204.0172 
L 215.306986 204.556294 
L 216.178699 206.324944 
L 216.466179 206.3434 
L 216.800026 206.387235 
L 217.013318 206.691893 
L 217.319344 207.605413 
L 218.960761 213.284192 
L 219.099865 213.137481 
L 219.313156 212.485568 
L 219.684098 210.483882 
L 220.954573 203.104617 
L 221.065856 203.167617 
L 221.223506 203.636503 
L 221.483165 205.253756 
L 222.697999 213.951498 
L 223.004026 214.545675 
L 223.254412 214.618995 
L 223.987022 214.579981 
L 224.50634 214.844952 
L 224.66399 214.57804 
L 224.877282 213.677332 
L 225.183309 211.235131 
L 225.925192 205.05708 
L 226.073569 204.879278 
L 226.092116 204.890747 
L 226.212672 205.135974 
L 226.435237 206.230524 
L 227.140026 210.0082 
L 227.242035 209.943586 
L 227.390412 209.420942 
L 227.640797 207.532672 
L 228.289945 202.381752 
L 228.382681 202.309398 
L 228.419775 202.346688 
L 228.549605 202.758511 
L 228.809264 204.556734 
L 229.272941 207.538401 
L 229.384223 207.640481 
L 229.421318 207.606976 
L 229.551147 207.242723 
L 229.82008 205.621982 
L 230.357945 202.556191 
L 230.803075 200.647684 
L 231.044187 198.012725 
L 231.387309 191.317372 
L 232.017909 179.14589 
L 232.221927 178.276971 
L 232.296116 178.408674 
L 232.453766 179.330774 
L 232.815434 183.236238 
L 234.058089 196.675723 
L 234.299201 197.823227 
L 234.364116 197.712019 
L 234.475398 196.914417 
L 234.642322 193.83357 
L 234.864887 184.877842 
L 235.143093 163.423015 
L 235.569676 109.857525 
L 236.0519 57.86069 
L 236.200277 54.144 
L 236.228098 54.30159 
L 236.320833 56.766916 
L 236.497031 68.995763 
L 236.867972 114.485062 
L 237.405838 172.091445 
L 237.767506 189.331537 
L 238.175542 198.452962 
L 238.657766 204.862457 
L 238.908152 205.983891 
L 239.000887 205.908966 
L 239.13999 205.323502 
L 239.399649 203.043848 
L 240.067344 196.967894 
L 240.169353 196.83597 
L 240.215721 196.882329 
L 240.336277 197.319324 
L 240.549569 199.153582 
L 240.929784 204.803364 
L 241.736582 216.641445 
L 242.153892 219.702976 
L 242.497013 220.845683 
L 242.765945 221.122433 
L 243.053425 221.084501 
L 243.340905 221.110993 
L 243.526376 221.39199 
L 243.767488 222.250669 
L 244.119883 224.49707 
L 244.787578 228.747475 
L 244.963775 228.95788 
L 244.973048 228.953754 
L 245.093605 228.765996 
L 245.306896 227.911404 
L 245.983865 224.943568 
L 246.104421 225.019224 
L 246.271344 225.518045 
L 246.642286 227.570573 
L 247.022501 229.124154 
L 247.189425 229.216678 
L 247.198699 229.210785 
L 247.356349 228.961174 
L 248.070412 227.393066 
L 248.116779 227.422696 
L 248.30225 227.7335 
L 248.793748 228.648065 
L 248.803022 228.643582 
L 248.923578 228.449265 
L 249.109048 227.59742 
L 249.387255 225.044928 
L 249.980761 216.839537 
L 250.472259 211.583396 
L 250.722645 210.658641 
L 250.81538 210.691107 
L 250.824654 210.705803 
L 250.963757 211.172828 
L 251.195596 212.899543 
L 251.67782 218.672728 
L 252.160044 223.297891 
L 252.466071 224.443908 
L 252.762824 224.760303 
L 253.01321 225.091298 
L 253.245048 225.857411 
L 253.560349 227.813109 
L 254.441335 233.761174 
L 254.589712 233.853698 
L 254.608259 233.840954 
L 254.765909 233.55311 
L 255.313048 232.248454 
L 255.350143 232.2775 
L 255.489246 232.618525 
L 255.711811 233.909371 
L 256.277497 239.101066 
L 256.787542 242.558452 
L 257.705622 246.854037 
L 257.965282 247.255837 
L 258.113658 247.177727 
L 258.345497 246.713128 
L 258.864815 245.674594 
L 259.022466 245.737775 
L 259.21721 246.131334 
L 259.625246 247.624856 
L 260.098196 249.021675 
L 260.496959 249.519424 
L 260.979183 249.812201 
L 261.164654 249.677851 
L 261.368672 249.19522 
L 261.674699 247.784583 
L 262.286753 244.966525 
L 262.444403 244.886711 
L 262.453676 244.893408 
L 262.602053 245.166958 
L 262.843165 246.194507 
L 263.288295 249.26086 
L 264.484582 257.856235 
L 264.762788 258.37711 
L 264.966806 258.376895 
L 265.402663 258.01329 
L 265.662322 257.970545 
L 265.86634 258.17863 
L 266.116726 258.813512 
L 266.459847 260.402611 
L 267.405748 265.16779 
L 267.656134 265.399983 
L 267.878699 265.305621 
L 268.240367 264.86261 
L 268.676223 263.961951 
L 269.149174 263.071118 
L 269.297551 263.135868 
L 269.464474 263.551266 
L 269.71486 264.887359 
L 270.651488 270.588444 
L 270.76277 270.49352 
L 270.938968 269.90679 
L 271.282089 267.758362 
L 271.875596 264.324073 
L 272.190896 263.629927 
L 272.413461 263.55758 
L 272.636026 263.745569 
L 272.9606 264.367669 
L 273.906501 266.354984 
L 274.147614 266.398544 
L 274.370179 266.200473 
L 274.676205 265.576617 
L 275.445909 263.862074 
L 275.585013 263.993642 
L 275.770483 264.564603 
L 276.057963 266.301688 
L 276.855488 271.444819 
L 276.976044 271.511573 
L 277.003865 271.486322 
L 277.133694 271.163796 
L 277.346986 269.926375 
L 277.717927 266.162229 
L 278.311434 260.466815 
L 278.506179 260.054325 
L 278.515452 260.058498 
L 278.626735 260.267948 
L 278.830753 261.292791 
L 279.563362 265.410445 
L 279.683918 265.3918 
L 279.693192 265.380151 
L 279.850842 264.985011 
L 280.18469 263.359339 
L 280.685461 261.21453 
L 280.94512 260.886886 
L 281.139865 260.952927 
L 281.455165 261.365123 
L 282.132134 262.233588 
L 282.363972 262.226078 
L 282.577264 261.965146 
L 282.85547 261.212621 
L 283.717909 258.501785 
L 283.736457 258.510338 
L 283.866286 258.720158 
L 284.070304 259.591133 
L 284.413425 262.273219 
L 285.21095 268.668017 
L 285.52625 269.582206 
L 285.785909 269.766038 
L 286.240313 269.980881 
L 286.574161 270.52331 
L 287.269676 271.655633 
L 288.521605 273.072697 
L 288.883273 274.19806 
L 290.135201 278.701235 
L 290.357766 278.701686 
L 290.700887 278.413342 
L 291.628241 277.611913 
L 291.943542 277.59011 
L 292.268116 277.826304 
L 292.713246 278.100307 
L 292.972905 277.976545 
L 293.455129 277.706262 
L 293.6406 277.910348 
L 293.890986 278.598309 
L 294.883255 281.770058 
L 295.068726 281.73805 
L 295.282017 281.433881 
L 295.57877 280.569601 
L 295.958986 278.695479 
L 296.839972 274.045338 
L 296.960528 274.021784 
L 296.979075 274.040491 
L 297.118179 274.372326 
L 297.359291 275.670423 
L 298.22173 280.900308 
L 298.37938 280.92917 
L 298.555578 280.639315 
L 299.223273 279.354219 
L 299.380923 279.501737 
L 299.622035 280.123399 
L 300.883237 284.017059 
L 301.328367 285.311292 
L 302.005335 287.2812 
L 302.218627 287.370085 
L 302.404098 287.172792 
L 302.691578 286.46292 
L 303.943506 282.928454 
L 304.305174 282.647937 
L 304.694663 282.646375 
L 305.02851 282.577974 
L 305.278896 282.260043 
L 305.724026 281.207194 
L 306.0486 280.723575 
L 306.20625 280.786654 
L 306.391721 281.166612 
L 306.688475 282.385474 
L 307.662196 286.804027 
L 307.931129 287.067526 
L 308.654466 287.378799 
L 308.969766 288.158726 
L 309.553999 289.588402 
L 309.73947 289.598868 
L 309.934214 289.312988 
L 310.332977 288.191928 
L 310.750286 287.295213 
L 311.000672 287.190092 
L 311.251057 287.359418 
L 311.742555 288.047803 
L 312.298968 288.698037 
L 312.521533 288.678168 
L 312.725551 288.395444 
L 313.003757 287.546148 
L 313.949658 284.237085 
L 314.107309 284.307398 
L 314.3206 284.736383 
L 314.821371 286.438759 
L 315.275775 287.58759 
L 315.544708 287.789681 
L 315.739452 287.680035 
L 315.980564 287.23692 
L 316.351506 285.995775 
L 316.982107 283.944584 
L 317.176851 283.851915 
L 317.334501 284.06473 
L 317.56634 284.838422 
L 317.983649 287.190502 
L 318.567883 290.181182 
L 318.818268 290.58757 
L 318.966645 290.521316 
L 319.170663 290.110082 
L 319.569425 288.6718 
L 320.283488 286.241073 
L 320.608062 285.774462 
L 320.81208 285.78808 
L 321.025371 286.07061 
L 321.359219 286.958926 
L 322.166017 289.179874 
L 322.481318 289.424094 
L 323.130466 289.718344 
L 323.399398 290.295314 
L 323.77034 291.716309 
L 324.540044 294.73946 
L 324.781156 294.961115 
L 324.966627 294.850109 
L 325.244833 294.351073 
L 325.736331 292.931226 
L 326.756421 289.89501 
L 327.006806 289.778494 
L 327.285013 289.938783 
L 327.702322 290.139847 
L 327.952708 289.989064 
L 328.592582 289.505421 
L 328.824421 289.690502 
L 330.169084 291.198999 
L 330.447291 291.221683 
L 330.660582 290.981462 
L 330.966609 290.21796 
L 331.532295 288.848605 
L 331.736313 288.809343 
L 331.949605 289.050845 
L 332.404008 290.02862 
L 332.867685 290.793692 
L 333.118071 290.863963 
L 333.368457 290.676183 
L 333.98051 290.132103 
L 334.165981 290.316283 
L 334.416367 290.954778 
L 335.380815 293.82769 
L 335.547739 293.752496 
L 335.788851 293.326143 
L 336.549282 291.821538 
L 336.744026 291.883003 
L 337.003685 292.268582 
L 337.754842 293.484134 
L 338.209246 293.646355 
L 338.580188 293.90082 
L 339.182968 294.355166 
L 339.386986 294.204257 
L 339.665192 293.656297 
L 340.342161 292.237582 
L 340.499811 292.29394 
L 340.694555 292.674539 
L 341.009856 293.894878 
L 341.686824 296.522877 
L 341.909389 296.678408 
L 342.085587 296.503383 
L 342.38234 295.799368 
L 343.040762 294.233677 
L 343.309694 294.087019 
L 343.569353 294.204196 
L 343.968116 294.668812 
L 344.533802 295.696246 
L 345.034573 296.464201 
L 345.275685 296.501214 
L 345.535344 296.281864 
L 346.008295 295.52352 
L 346.462699 294.411498 
L 347.195309 292.525909 
L 347.352959 292.576176 
L 347.547703 292.967504 
L 347.909371 294.348443 
L 348.577066 296.756835 
L 349.60643 299.720931 
L 350.65434 303.392582 
L 351.053102 303.964489 
L 351.646609 304.338418 
L 352.675972 304.913863 
L 353.046914 304.653612 
L 353.575506 304.338944 
L 354.428672 304.036915 
L 355.022179 303.723028 
L 355.819703 303.580096 
L 356.144277 303.039179 
L 356.923255 301.667494 
L 357.238555 301.547538 
L 357.563129 301.673641 
L 358.314286 302.062249 
L 358.573945 301.84969 
L 359.464205 300.90934 
L 359.696044 301.080876 
L 360.002071 301.625839 
L 360.539936 303.14693 
L 361.022161 304.231394 
L 361.291093 304.387992 
L 361.550753 304.2644 
L 362.450286 303.655999 
L 362.793407 303.779318 
L 363.776403 304.281126 
L 364.119524 304.042168 
L 364.917049 303.430137 
L 365.389999 303.406851 
L 365.909318 303.600476 
L 366.447183 304.04882 
L 367.105605 304.937108 
L 367.699111 305.580668 
L 368.654286 306.421105 
L 369.275614 306.989793 
L 369.683649 307.058237 
L 370.397712 306.899874 
L 371.056134 306.545354 
L 371.714555 306.253 
L 372.131865 306.313096 
L 372.586268 306.627294 
L 373.457981 307.271612 
L 373.884564 307.259656 
L 374.86756 307.143548 
L 375.525981 307.110214 
L 376.054573 306.805261 
L 378.567703 305.144112 
L 378.87373 305.319604 
L 379.235398 305.818463 
L 380.236941 307.337781 
L 380.672797 307.52138 
L 381.22921 307.50002 
L 381.794896 307.256879 
L 383.278663 306.459855 
L 384.400762 306.10955 
L 384.799524 306.332041 
L 386.292564 307.400995 
L 386.746968 307.310832 
L 388.063811 306.901264 
L 388.759327 307.080138 
L 389.269371 307.104398 
L 389.797963 306.858483 
L 390.270914 306.731424 
L 390.641856 306.877095 
L 391.875237 307.54154 
L 392.876779 307.583657 
L 398.487273 307.584 
L 398.487273 307.584 
" style="fill:none;stroke:#ff7f0e;stroke-linecap:square;stroke-width:1.5;"/>
   </g>
   <g id="patch_103">
    <path d="M 57.6 307.584 
L 57.6 41.472 
" style="fill:none;stroke:#000000;stroke-linecap:square;stroke-linejoin:miter;stroke-width:0.8;"/>
   </g>
   <g id="patch_104">
    <path d="M 414.72 307.584 
L 414.72 41.472 
" style="fill:none;stroke:#000000;stroke-linecap:square;stroke-linejoin:miter;stroke-width:0.8;"/>
   </g>
   <g id="patch_105">
    <path d="M 57.6 307.584 
L 414.72 307.584 
" style="fill:none;stroke:#000000;stroke-linecap:square;stroke-linejoin:miter;stroke-width:0.8;"/>
   </g>
   <g id="patch_106">
    <path d="M 57.6 41.472 
L 414.72 41.472 
" style="fill:none;stroke:#000000;stroke-linecap:square;stroke-linejoin:miter;stroke-width:0.8;"/>
   </g>
  </g>
 </g>
 <defs>
  <clipPath id="pfc9c2b8ec1">
   <rect height="266.112" width="357.12" x="57.6" y="41.472"/>
  </clipPath>
 </defs>
</svg>
