<?xml version="1.0" encoding="utf-8" standalone="no"?>
<!DOCTYPE svg PUBLIC "-//W3C//DTD SVG 1.1//EN"
  "http://www.w3.org/Graphics/SVG/1.1/DTD/svg11.dtd">
<!-- Created with matplotlib (https://matplotlib.org/) -->
<svg height="345.6pt" version="1.1" viewBox="0 0 460.8 345.6" width="460.8pt" xmlns="http://www.w3.org/2000/svg" xmlns:xlink="http://www.w3.org/1999/xlink">
 <defs>
  <style type="text/css">
*{stroke-linecap:butt;stroke-linejoin:round;}
  </style>
 </defs>
 <g id="figure_1">
  <g id="patch_1">
   <path d="M 0 345.6 
L 460.8 345.6 
L 460.8 0 
L 0 0 
z
" style="fill:#ffffff;"/>
  </g>
  <g id="axes_1">
   <g id="patch_2">
    <path d="M 57.6 307.584 
L 414.72 307.584 
L 414.72 41.472 
L 57.6 41.472 
z
" style="fill:#ffffff;"/>
   </g>
   <g id="patch_3">
    <path clip-path="url(#p7436323d04)" d="M 110.625414 307.584 
L 113.370407 307.584 
L 113.370407 303.786636 
L 110.625414 303.786636 
z
" style="fill:#1f77b4;"/>
   </g>
   <g id="patch_4">
    <path clip-path="url(#p7436323d04)" d="M 113.370407 307.584 
L 116.1154 307.584 
L 116.1154 302.837295 
L 113.370407 302.837295 
z
" style="fill:#1f77b4;"/>
   </g>
   <g id="patch_5">
    <path clip-path="url(#p7436323d04)" d="M 116.1154 307.584 
L 118.860394 307.584 
L 118.860394 301.887954 
L 116.1154 301.887954 
z
" style="fill:#1f77b4;"/>
   </g>
   <g id="patch_6">
    <path clip-path="url(#p7436323d04)" d="M 118.860394 307.584 
L 121.605387 307.584 
L 121.605387 301.887954 
L 118.860394 301.887954 
z
" style="fill:#1f77b4;"/>
   </g>
   <g id="patch_7">
    <path clip-path="url(#p7436323d04)" d="M 121.605387 307.584 
L 124.35038 307.584 
L 124.35038 296.191909 
L 121.605387 296.191909 
z
" style="fill:#1f77b4;"/>
   </g>
   <g id="patch_8">
    <path clip-path="url(#p7436323d04)" d="M 124.35038 307.584 
L 127.095374 307.584 
L 127.095374 290.495863 
L 124.35038 290.495863 
z
" style="fill:#1f77b4;"/>
   </g>
   <g id="patch_9">
    <path clip-path="url(#p7436323d04)" d="M 127.095374 307.584 
L 129.840367 307.584 
L 129.840367 298.090591 
L 127.095374 298.090591 
z
" style="fill:#1f77b4;"/>
   </g>
   <g id="patch_10">
    <path clip-path="url(#p7436323d04)" d="M 129.840367 307.584 
L 132.58536 307.584 
L 132.58536 291.445204 
L 129.840367 291.445204 
z
" style="fill:#1f77b4;"/>
   </g>
   <g id="patch_11">
    <path clip-path="url(#p7436323d04)" d="M 132.58536 307.584 
L 135.330354 307.584 
L 135.330354 286.6985 
L 132.58536 286.6985 
z
" style="fill:#1f77b4;"/>
   </g>
   <g id="patch_12">
    <path clip-path="url(#p7436323d04)" d="M 135.330354 307.584 
L 138.075347 307.584 
L 138.075347 278.154431 
L 135.330354 278.154431 
z
" style="fill:#1f77b4;"/>
   </g>
   <g id="patch_13">
    <path clip-path="url(#p7436323d04)" d="M 138.075347 307.584 
L 140.820341 307.584 
L 140.820341 285.749159 
L 138.075347 285.749159 
z
" style="fill:#1f77b4;"/>
   </g>
   <g id="patch_14">
    <path clip-path="url(#p7436323d04)" d="M 140.820341 307.584 
L 143.565334 307.584 
L 143.565334 273.407727 
L 140.820341 273.407727 
z
" style="fill:#1f77b4;"/>
   </g>
   <g id="patch_15">
    <path clip-path="url(#p7436323d04)" d="M 143.565334 307.584 
L 146.310327 307.584 
L 146.310327 271.509045 
L 143.565334 271.509045 
z
" style="fill:#1f77b4;"/>
   </g>
   <g id="patch_16">
    <path clip-path="url(#p7436323d04)" d="M 146.310327 307.584 
L 149.055321 307.584 
L 149.055321 279.103772 
L 146.310327 279.103772 
z
" style="fill:#1f77b4;"/>
   </g>
   <g id="patch_17">
    <path clip-path="url(#p7436323d04)" d="M 149.055321 307.584 
L 151.800314 307.584 
L 151.800314 284.799818 
L 149.055321 284.799818 
z
" style="fill:#1f77b4;"/>
   </g>
   <g id="patch_18">
    <path clip-path="url(#p7436323d04)" d="M 151.800314 307.584 
L 154.545307 307.584 
L 154.545307 271.509045 
L 151.800314 271.509045 
z
" style="fill:#1f77b4;"/>
   </g>
   <g id="patch_19">
    <path clip-path="url(#p7436323d04)" d="M 154.545307 307.584 
L 157.290301 307.584 
L 157.290301 255.370249 
L 154.545307 255.370249 
z
" style="fill:#1f77b4;"/>
   </g>
   <g id="patch_20">
    <path clip-path="url(#p7436323d04)" d="M 157.290301 307.584 
L 160.035294 307.584 
L 160.035294 251.572885 
L 157.290301 251.572885 
z
" style="fill:#1f77b4;"/>
   </g>
   <g id="patch_21">
    <path clip-path="url(#p7436323d04)" d="M 160.035294 307.584 
L 162.780287 307.584 
L 162.780287 242.079476 
L 160.035294 242.079476 
z
" style="fill:#1f77b4;"/>
   </g>
   <g id="patch_22">
    <path clip-path="url(#p7436323d04)" d="M 162.780287 307.584 
L 165.525281 307.584 
L 165.525281 235.434089 
L 162.780287 235.434089 
z
" style="fill:#1f77b4;"/>
   </g>
   <g id="patch_23">
    <path clip-path="url(#p7436323d04)" d="M 165.525281 307.584 
L 168.270274 307.584 
L 168.270274 234.484748 
L 165.525281 234.484748 
z
" style="fill:#1f77b4;"/>
   </g>
   <g id="patch_24">
    <path clip-path="url(#p7436323d04)" d="M 168.270274 307.584 
L 171.015267 307.584 
L 171.015267 218.345953 
L 168.270274 218.345953 
z
" style="fill:#1f77b4;"/>
   </g>
   <g id="patch_25">
    <path clip-path="url(#p7436323d04)" d="M 171.015267 307.584 
L 173.760265 307.584 
L 173.760265 209.802022 
L 171.015267 209.802022 
z
" style="fill:#1f77b4;"/>
   </g>
   <g id="patch_26">
    <path clip-path="url(#p7436323d04)" d="M 173.760265 307.584 
L 176.505258 307.584 
L 176.505258 190.815066 
L 173.760265 190.815066 
z
" style="fill:#1f77b4;"/>
   </g>
   <g id="patch_27">
    <path clip-path="url(#p7436323d04)" d="M 176.505258 307.584 
L 179.250251 307.584 
L 179.250251 194.612429 
L 176.505258 194.612429 
z
" style="fill:#1f77b4;"/>
   </g>
   <g id="patch_28">
    <path clip-path="url(#p7436323d04)" d="M 179.250251 307.584 
L 181.995245 307.584 
L 181.995245 191.764407 
L 179.250251 191.764407 
z
" style="fill:#1f77b4;"/>
   </g>
   <g id="patch_29">
    <path clip-path="url(#p7436323d04)" d="M 181.995245 307.584 
L 184.740238 307.584 
L 184.740238 194.612429 
L 181.995245 194.612429 
z
" style="fill:#1f77b4;"/>
   </g>
   <g id="patch_30">
    <path clip-path="url(#p7436323d04)" d="M 184.740238 307.584 
L 187.485231 307.584 
L 187.485231 208.852543 
L 184.740238 208.852543 
z
" style="fill:#1f77b4;"/>
   </g>
   <g id="patch_31">
    <path clip-path="url(#p7436323d04)" d="M 187.485231 307.584 
L 190.230225 307.584 
L 190.230225 216.447271 
L 187.485231 216.447271 
z
" style="fill:#1f77b4;"/>
   </g>
   <g id="patch_32">
    <path clip-path="url(#p7436323d04)" d="M 190.230225 307.584 
L 192.975218 307.584 
L 192.975218 232.586067 
L 190.230225 232.586067 
z
" style="fill:#1f77b4;"/>
   </g>
   <g id="patch_33">
    <path clip-path="url(#p7436323d04)" d="M 192.975218 307.584 
L 195.720211 307.584 
L 195.720211 186.068361 
L 192.975218 186.068361 
z
" style="fill:#1f77b4;"/>
   </g>
   <g id="patch_34">
    <path clip-path="url(#p7436323d04)" d="M 195.720211 307.584 
L 198.465205 307.584 
L 198.465205 207.903202 
L 195.720211 207.903202 
z
" style="fill:#1f77b4;"/>
   </g>
   <g id="patch_35">
    <path clip-path="url(#p7436323d04)" d="M 198.465205 307.584 
L 201.210198 307.584 
L 201.210198 197.460452 
L 198.465205 197.460452 
z
" style="fill:#1f77b4;"/>
   </g>
   <g id="patch_36">
    <path clip-path="url(#p7436323d04)" d="M 201.210198 307.584 
L 203.955193 307.584 
L 203.955193 174.676364 
L 201.210198 174.676364 
z
" style="fill:#1f77b4;"/>
   </g>
   <g id="patch_37">
    <path clip-path="url(#p7436323d04)" d="M 203.955193 307.584 
L 206.700187 307.584 
L 206.700187 206.953862 
L 203.955193 206.953862 
z
" style="fill:#1f77b4;"/>
   </g>
   <g id="patch_38">
    <path clip-path="url(#p7436323d04)" d="M 206.700187 307.584 
L 209.44518 307.584 
L 209.44518 200.308475 
L 206.700187 200.308475 
z
" style="fill:#1f77b4;"/>
   </g>
   <g id="patch_39">
    <path clip-path="url(#p7436323d04)" d="M 209.44518 307.584 
L 212.190173 307.584 
L 212.190173 203.156498 
L 209.44518 203.156498 
z
" style="fill:#1f77b4;"/>
   </g>
   <g id="patch_40">
    <path clip-path="url(#p7436323d04)" d="M 212.190173 307.584 
L 214.935167 307.584 
L 214.935167 177.524293 
L 212.190173 177.524293 
z
" style="fill:#1f77b4;"/>
   </g>
   <g id="patch_41">
    <path clip-path="url(#p7436323d04)" d="M 214.935167 307.584 
L 217.68016 307.584 
L 217.68016 163.284179 
L 214.935167 163.284179 
z
" style="fill:#1f77b4;"/>
   </g>
   <g id="patch_42">
    <path clip-path="url(#p7436323d04)" d="M 217.68016 307.584 
L 220.425153 307.584 
L 220.425153 191.764407 
L 217.68016 191.764407 
z
" style="fill:#1f77b4;"/>
   </g>
   <g id="patch_43">
    <path clip-path="url(#p7436323d04)" d="M 220.425153 307.584 
L 223.170148 307.584 
L 223.170148 168.030933 
L 220.425153 168.030933 
z
" style="fill:#1f77b4;"/>
   </g>
   <g id="patch_44">
    <path clip-path="url(#p7436323d04)" d="M 223.170148 307.584 
L 225.915141 307.584 
L 225.915141 187.017702 
L 223.170148 187.017702 
z
" style="fill:#1f77b4;"/>
   </g>
   <g id="patch_45">
    <path clip-path="url(#p7436323d04)" d="M 225.915141 307.584 
L 228.660134 307.584 
L 228.660134 173.726929 
L 225.915141 173.726929 
z
" style="fill:#1f77b4;"/>
   </g>
   <g id="patch_46">
    <path clip-path="url(#p7436323d04)" d="M 228.660134 307.584 
L 231.405128 307.584 
L 231.405128 201.257816 
L 228.660134 201.257816 
z
" style="fill:#1f77b4;"/>
   </g>
   <g id="patch_47">
    <path clip-path="url(#p7436323d04)" d="M 231.405128 307.584 
L 234.150121 307.584 
L 234.150121 189.865735 
L 231.405128 189.865735 
z
" style="fill:#1f77b4;"/>
   </g>
   <g id="patch_48">
    <path clip-path="url(#p7436323d04)" d="M 234.150121 307.584 
L 236.895115 307.584 
L 236.895115 127.209223 
L 234.150121 127.209223 
z
" style="fill:#1f77b4;"/>
   </g>
   <g id="patch_49">
    <path clip-path="url(#p7436323d04)" d="M 236.895115 307.584 
L 239.640108 307.584 
L 239.640108 213.599248 
L 236.895115 213.599248 
z
" style="fill:#1f77b4;"/>
   </g>
   <g id="patch_50">
    <path clip-path="url(#p7436323d04)" d="M 239.640108 307.584 
L 242.385102 307.584 
L 242.385102 235.434089 
L 239.640108 235.434089 
z
" style="fill:#1f77b4;"/>
   </g>
   <g id="patch_51">
    <path clip-path="url(#p7436323d04)" d="M 242.385102 307.584 
L 245.130096 307.584 
L 245.130096 224.991354 
L 242.385102 224.991354 
z
" style="fill:#1f77b4;"/>
   </g>
   <g id="patch_52">
    <path clip-path="url(#p7436323d04)" d="M 245.130096 307.584 
L 247.875089 307.584 
L 247.875089 235.434089 
L 245.130096 235.434089 
z
" style="fill:#1f77b4;"/>
   </g>
   <g id="patch_53">
    <path clip-path="url(#p7436323d04)" d="M 247.875089 307.584 
L 250.620082 307.584 
L 250.620082 230.687385 
L 247.875089 230.687385 
z
" style="fill:#1f77b4;"/>
   </g>
   <g id="patch_54">
    <path clip-path="url(#p7436323d04)" d="M 250.620082 307.584 
L 253.365076 307.584 
L 253.365076 226.890021 
L 250.620082 226.890021 
z
" style="fill:#1f77b4;"/>
   </g>
   <g id="patch_55">
    <path clip-path="url(#p7436323d04)" d="M 253.365076 307.584 
L 256.110069 307.584 
L 256.110069 234.484748 
L 253.365076 234.484748 
z
" style="fill:#1f77b4;"/>
   </g>
   <g id="patch_56">
    <path clip-path="url(#p7436323d04)" d="M 256.110069 307.584 
L 258.855062 307.584 
L 258.855062 254.420908 
L 256.110069 254.420908 
z
" style="fill:#1f77b4;"/>
   </g>
   <g id="patch_57">
    <path clip-path="url(#p7436323d04)" d="M 258.855062 307.584 
L 261.600056 307.584 
L 261.600056 254.420908 
L 258.855062 254.420908 
z
" style="fill:#1f77b4;"/>
   </g>
   <g id="patch_58">
    <path clip-path="url(#p7436323d04)" d="M 261.600056 307.584 
L 264.345049 307.584 
L 264.345049 267.711681 
L 261.600056 267.711681 
z
" style="fill:#1f77b4;"/>
   </g>
   <g id="patch_59">
    <path clip-path="url(#p7436323d04)" d="M 264.345049 307.584 
L 267.090044 307.584 
L 267.090044 264.863688 
L 264.345049 264.863688 
z
" style="fill:#1f77b4;"/>
   </g>
   <g id="patch_60">
    <path clip-path="url(#p7436323d04)" d="M 267.090042 307.584 
L 269.835036 307.584 
L 269.835036 268.660994 
L 267.090042 268.660994 
z
" style="fill:#1f77b4;"/>
   </g>
   <g id="patch_61">
    <path clip-path="url(#p7436323d04)" d="M 269.835036 307.584 
L 272.580029 307.584 
L 272.580029 281.002454 
L 269.835036 281.002454 
z
" style="fill:#1f77b4;"/>
   </g>
   <g id="patch_62">
    <path clip-path="url(#p7436323d04)" d="M 272.580029 307.584 
L 275.325022 307.584 
L 275.325022 275.306408 
L 272.580029 275.306408 
z
" style="fill:#1f77b4;"/>
   </g>
   <g id="patch_63">
    <path clip-path="url(#p7436323d04)" d="M 275.325022 307.584 
L 278.070016 307.584 
L 278.070016 279.103772 
L 275.325022 279.103772 
z
" style="fill:#1f77b4;"/>
   </g>
   <g id="patch_64">
    <path clip-path="url(#p7436323d04)" d="M 278.070016 307.584 
L 280.815009 307.584 
L 280.815009 273.407727 
L 278.070016 273.407727 
z
" style="fill:#1f77b4;"/>
   </g>
   <g id="patch_65">
    <path clip-path="url(#p7436323d04)" d="M 280.815009 307.584 
L 283.560006 307.584 
L 283.560006 275.306454 
L 280.815009 275.306454 
z
" style="fill:#1f77b4;"/>
   </g>
   <g id="patch_66">
    <path clip-path="url(#p7436323d04)" d="M 283.560006 307.584 
L 286.305 307.584 
L 286.305 274.357067 
L 283.560006 274.357067 
z
" style="fill:#1f77b4;"/>
   </g>
   <g id="patch_67">
    <path clip-path="url(#p7436323d04)" d="M 286.305 307.584 
L 289.049993 307.584 
L 289.049993 284.799818 
L 286.305 284.799818 
z
" style="fill:#1f77b4;"/>
   </g>
   <g id="patch_68">
    <path clip-path="url(#p7436323d04)" d="M 289.049993 307.584 
L 291.794986 307.584 
L 291.794986 283.850477 
L 289.049993 283.850477 
z
" style="fill:#1f77b4;"/>
   </g>
   <g id="patch_69">
    <path clip-path="url(#p7436323d04)" d="M 291.794986 307.584 
L 294.53998 307.584 
L 294.53998 282.901136 
L 291.794986 282.901136 
z
" style="fill:#1f77b4;"/>
   </g>
   <g id="patch_70">
    <path clip-path="url(#p7436323d04)" d="M 294.53998 307.584 
L 297.284973 307.584 
L 297.284973 283.850477 
L 294.53998 283.850477 
z
" style="fill:#1f77b4;"/>
   </g>
   <g id="patch_71">
    <path clip-path="url(#p7436323d04)" d="M 297.284973 307.584 
L 300.029966 307.584 
L 300.029966 290.495863 
L 297.284973 290.495863 
z
" style="fill:#1f77b4;"/>
   </g>
   <g id="patch_72">
    <path clip-path="url(#p7436323d04)" d="M 300.029963 307.584 
L 302.774948 307.584 
L 302.774948 293.343866 
L 300.029963 293.343866 
z
" style="fill:#1f77b4;"/>
   </g>
   <g id="patch_73">
    <path clip-path="url(#p7436323d04)" d="M 302.774956 307.584 
L 305.519949 307.584 
L 305.519949 284.799818 
L 302.774956 284.799818 
z
" style="fill:#1f77b4;"/>
   </g>
   <g id="patch_74">
    <path clip-path="url(#p7436323d04)" d="M 305.519949 307.584 
L 308.264943 307.584 
L 308.264943 286.6985 
L 305.519949 286.6985 
z
" style="fill:#1f77b4;"/>
   </g>
   <g id="patch_75">
    <path clip-path="url(#p7436323d04)" d="M 308.264943 307.584 
L 311.009936 307.584 
L 311.009936 286.6985 
L 308.264943 286.6985 
z
" style="fill:#1f77b4;"/>
   </g>
   <g id="patch_76">
    <path clip-path="url(#p7436323d04)" d="M 311.009936 307.584 
L 313.754929 307.584 
L 313.754929 291.445204 
L 311.009936 291.445204 
z
" style="fill:#1f77b4;"/>
   </g>
   <g id="patch_77">
    <path clip-path="url(#p7436323d04)" d="M 313.754922 307.584 
L 316.499923 307.584 
L 316.499923 299.039956 
L 313.754922 299.039956 
z
" style="fill:#1f77b4;"/>
   </g>
   <g id="patch_78">
    <path clip-path="url(#p7436323d04)" d="M 316.49993 307.584 
L 319.244924 307.584 
L 319.244924 299.989273 
L 316.49993 299.989273 
z
" style="fill:#1f77b4;"/>
   </g>
   <g id="patch_79">
    <path clip-path="url(#p7436323d04)" d="M 319.244924 307.584 
L 321.989917 307.584 
L 321.989917 299.989273 
L 319.244924 299.989273 
z
" style="fill:#1f77b4;"/>
   </g>
   <g id="patch_80">
    <path clip-path="url(#p7436323d04)" d="M 321.989917 307.584 
L 324.73491 307.584 
L 324.73491 304.735977 
L 321.989917 304.735977 
z
" style="fill:#1f77b4;"/>
   </g>
   <g id="patch_81">
    <path clip-path="url(#p7436323d04)" d="M 324.73491 307.584 
L 327.479904 307.584 
L 327.479904 305.685318 
L 324.73491 305.685318 
z
" style="fill:#1f77b4;"/>
   </g>
   <g id="patch_82">
    <path clip-path="url(#p7436323d04)" d="M 327.479904 307.584 
L 330.224897 307.584 
L 330.224897 303.786636 
L 327.479904 303.786636 
z
" style="fill:#1f77b4;"/>
   </g>
   <g id="patch_83">
    <path clip-path="url(#p7436323d04)" d="M 330.224897 307.584 
L 332.96989 307.584 
L 332.96989 303.786636 
L 330.224897 303.786636 
z
" style="fill:#1f77b4;"/>
   </g>
   <g id="patch_84">
    <path clip-path="url(#p7436323d04)" d="M 332.96989 307.584 
L 335.714884 307.584 
L 335.714884 304.735977 
L 332.96989 304.735977 
z
" style="fill:#1f77b4;"/>
   </g>
   <g id="patch_85">
    <path clip-path="url(#p7436323d04)" d="M 335.714884 307.584 
L 338.459877 307.584 
L 338.459877 302.837295 
L 335.714884 302.837295 
z
" style="fill:#1f77b4;"/>
   </g>
   <g id="patch_86">
    <path clip-path="url(#p7436323d04)" d="M 338.459877 307.584 
L 341.20487 307.584 
L 341.20487 301.887954 
L 338.459877 301.887954 
z
" style="fill:#1f77b4;"/>
   </g>
   <g id="patch_87">
    <path clip-path="url(#p7436323d04)" d="M 341.20487 307.584 
L 343.949864 307.584 
L 343.949864 303.786636 
L 341.20487 303.786636 
z
" style="fill:#1f77b4;"/>
   </g>
   <g id="patch_88">
    <path clip-path="url(#p7436323d04)" d="M 343.949864 307.584 
L 346.694857 307.584 
L 346.694857 306.634659 
L 343.949864 306.634659 
z
" style="fill:#1f77b4;"/>
   </g>
   <g id="patch_89">
    <path clip-path="url(#p7436323d04)" d="M 346.694857 307.584 
L 349.439851 307.584 
L 349.439851 301.887954 
L 346.694857 301.887954 
z
" style="fill:#1f77b4;"/>
   </g>
   <g id="patch_90">
    <path clip-path="url(#p7436323d04)" d="M 349.439851 307.584 
L 352.184844 307.584 
L 352.184844 307.584 
L 349.439851 307.584 
z
" style="fill:#1f77b4;"/>
   </g>
   <g id="patch_91">
    <path clip-path="url(#p7436323d04)" d="M 352.184844 307.584 
L 354.929837 307.584 
L 354.929837 307.584 
L 352.184844 307.584 
z
" style="fill:#1f77b4;"/>
   </g>
   <g id="patch_92">
    <path clip-path="url(#p7436323d04)" d="M 354.929837 307.584 
L 357.674831 307.584 
L 357.674831 306.634659 
L 354.929837 306.634659 
z
" style="fill:#1f77b4;"/>
   </g>
   <g id="patch_93">
    <path clip-path="url(#p7436323d04)" d="M 357.674831 307.584 
L 360.419824 307.584 
L 360.419824 306.634659 
L 357.674831 306.634659 
z
" style="fill:#1f77b4;"/>
   </g>
   <g id="patch_94">
    <path clip-path="url(#p7436323d04)" d="M 360.419824 307.584 
L 363.164817 307.584 
L 363.164817 304.735977 
L 360.419824 304.735977 
z
" style="fill:#1f77b4;"/>
   </g>
   <g id="patch_95">
    <path clip-path="url(#p7436323d04)" d="M 363.164817 307.584 
L 365.909811 307.584 
L 365.909811 305.685318 
L 363.164817 305.685318 
z
" style="fill:#1f77b4;"/>
   </g>
   <g id="patch_96">
    <path clip-path="url(#p7436323d04)" d="M 365.909818 307.584 
L 368.654819 307.584 
L 368.654819 306.634659 
L 365.909818 306.634659 
z
" style="fill:#1f77b4;"/>
   </g>
   <g id="patch_97">
    <path clip-path="url(#p7436323d04)" d="M 368.654788 307.584 
L 371.399782 307.584 
L 371.399782 307.584 
L 368.654788 307.584 
z
" style="fill:#1f77b4;"/>
   </g>
   <g id="patch_98">
    <path clip-path="url(#p7436323d04)" d="M 371.399797 307.584 
L 374.144791 307.584 
L 374.144791 306.634659 
L 371.399797 306.634659 
z
" style="fill:#1f77b4;"/>
   </g>
   <g id="patch_99">
    <path clip-path="url(#p7436323d04)" d="M 374.144775 307.584 
L 376.889769 307.584 
L 376.889769 306.634659 
L 374.144775 306.634659 
z
" style="fill:#1f77b4;"/>
   </g>
   <g id="patch_100">
    <path clip-path="url(#p7436323d04)" d="M 376.889784 307.584 
L 379.634777 307.584 
L 379.634777 306.634659 
L 376.889784 306.634659 
z
" style="fill:#1f77b4;"/>
   </g>
   <g id="patch_101">
    <path clip-path="url(#p7436323d04)" d="M 379.634762 307.584 
L 382.379755 307.584 
L 382.379755 307.584 
L 379.634762 307.584 
z
" style="fill:#1f77b4;"/>
   </g>
   <g id="patch_102">
    <path clip-path="url(#p7436323d04)" d="M 382.379771 307.584 
L 385.124764 307.584 
L 385.124764 302.837295 
L 382.379771 302.837295 
z
" style="fill:#1f77b4;"/>
   </g>
   <g id="matplotlib.axis_1">
    <g id="xtick_1">
     <g id="line2d_1">
      <defs>
       <path d="M 0 0 
L 0 3.5 
" id="mdc5a5588f5" style="stroke:#000000;stroke-width:0.8;"/>
      </defs>
      <g>
       <use style="stroke:#000000;stroke-width:0.8;" x="106.301429" xlink:href="#mdc5a5588f5" y="307.584"/>
      </g>
     </g>
     <g id="text_1">
      <!-- −2 -->
      <defs>
       <path d="M 10.59375 35.5 
L 73.1875 35.5 
L 73.1875 27.203125 
L 10.59375 27.203125 
z
" id="DejaVuSans-8722"/>
       <path d="M 19.1875 8.296875 
L 53.609375 8.296875 
L 53.609375 0 
L 7.328125 0 
L 7.328125 8.296875 
Q 12.9375 14.109375 22.625 23.890625 
Q 32.328125 33.6875 34.8125 36.53125 
Q 39.546875 41.84375 41.421875 45.53125 
Q 43.3125 49.21875 43.3125 52.78125 
Q 43.3125 58.59375 39.234375 62.25 
Q 35.15625 65.921875 28.609375 65.921875 
Q 23.96875 65.921875 18.8125 64.3125 
Q 13.671875 62.703125 7.8125 59.421875 
L 7.8125 69.390625 
Q 13.765625 71.78125 18.9375 73 
Q 24.125 74.21875 28.421875 74.21875 
Q 39.75 74.21875 46.484375 68.546875 
Q 53.21875 62.890625 53.21875 53.421875 
Q 53.21875 48.921875 51.53125 44.890625 
Q 49.859375 40.875 45.40625 35.40625 
Q 44.1875 33.984375 37.640625 27.21875 
Q 31.109375 20.453125 19.1875 8.296875 
z
" id="DejaVuSans-50"/>
      </defs>
      <g transform="translate(93.770569 327.501344)scale(0.17 -0.17)">
       <use xlink:href="#DejaVuSans-8722"/>
       <use x="83.789062" xlink:href="#DejaVuSans-50"/>
      </g>
     </g>
    </g>
    <g id="xtick_2">
     <g id="line2d_2">
      <g>
       <use style="stroke:#000000;stroke-width:0.8;" x="171.238832" xlink:href="#mdc5a5588f5" y="307.584"/>
      </g>
     </g>
     <g id="text_2">
      <!-- −1 -->
      <defs>
       <path d="M 12.40625 8.296875 
L 28.515625 8.296875 
L 28.515625 63.921875 
L 10.984375 60.40625 
L 10.984375 69.390625 
L 28.421875 72.90625 
L 38.28125 72.90625 
L 38.28125 8.296875 
L 54.390625 8.296875 
L 54.390625 0 
L 12.40625 0 
z
" id="DejaVuSans-49"/>
      </defs>
      <g transform="translate(158.707972 327.501344)scale(0.17 -0.17)">
       <use xlink:href="#DejaVuSans-8722"/>
       <use x="83.789062" xlink:href="#DejaVuSans-49"/>
      </g>
     </g>
    </g>
    <g id="xtick_3">
     <g id="line2d_3">
      <g>
       <use style="stroke:#000000;stroke-width:0.8;" x="236.176234" xlink:href="#mdc5a5588f5" y="307.584"/>
      </g>
     </g>
     <g id="text_3">
      <!-- 0 -->
      <defs>
       <path d="M 31.78125 66.40625 
Q 24.171875 66.40625 20.328125 58.90625 
Q 16.5 51.421875 16.5 36.375 
Q 16.5 21.390625 20.328125 13.890625 
Q 24.171875 6.390625 31.78125 6.390625 
Q 39.453125 6.390625 43.28125 13.890625 
Q 47.125 21.390625 47.125 36.375 
Q 47.125 51.421875 43.28125 58.90625 
Q 39.453125 66.40625 31.78125 66.40625 
z
M 31.78125 74.21875 
Q 44.046875 74.21875 50.515625 64.515625 
Q 56.984375 54.828125 56.984375 36.375 
Q 56.984375 17.96875 50.515625 8.265625 
Q 44.046875 -1.421875 31.78125 -1.421875 
Q 19.53125 -1.421875 13.0625 8.265625 
Q 6.59375 17.96875 6.59375 36.375 
Q 6.59375 54.828125 13.0625 64.515625 
Q 19.53125 74.21875 31.78125 74.21875 
z
" id="DejaVuSans-48"/>
      </defs>
      <g transform="translate(230.768109 327.501344)scale(0.17 -0.17)">
       <use xlink:href="#DejaVuSans-48"/>
      </g>
     </g>
    </g>
    <g id="xtick_4">
     <g id="line2d_4">
      <g>
       <use style="stroke:#000000;stroke-width:0.8;" x="301.113637" xlink:href="#mdc5a5588f5" y="307.584"/>
      </g>
     </g>
     <g id="text_4">
      <!-- 1 -->
      <g transform="translate(295.705512 327.501344)scale(0.17 -0.17)">
       <use xlink:href="#DejaVuSans-49"/>
      </g>
     </g>
    </g>
    <g id="xtick_5">
     <g id="line2d_5">
      <g>
       <use style="stroke:#000000;stroke-width:0.8;" x="366.05104" xlink:href="#mdc5a5588f5" y="307.584"/>
      </g>
     </g>
     <g id="text_5">
      <!-- 2 -->
      <g transform="translate(360.642915 327.501344)scale(0.17 -0.17)">
       <use xlink:href="#DejaVuSans-50"/>
      </g>
     </g>
    </g>
    <g id="text_6">
     <!-- Position in Radian -->
     <defs>
      <path d="M 19.671875 64.796875 
L 19.671875 37.40625 
L 32.078125 37.40625 
Q 38.96875 37.40625 42.71875 40.96875 
Q 46.484375 44.53125 46.484375 51.125 
Q 46.484375 57.671875 42.71875 61.234375 
Q 38.96875 64.796875 32.078125 64.796875 
z
M 9.8125 72.90625 
L 32.078125 72.90625 
Q 44.34375 72.90625 50.609375 67.359375 
Q 56.890625 61.8125 56.890625 51.125 
Q 56.890625 40.328125 50.609375 34.8125 
Q 44.34375 29.296875 32.078125 29.296875 
L 19.671875 29.296875 
L 19.671875 0 
L 9.8125 0 
z
" id="DejaVuSans-80"/>
      <path d="M 30.609375 48.390625 
Q 23.390625 48.390625 19.1875 42.75 
Q 14.984375 37.109375 14.984375 27.296875 
Q 14.984375 17.484375 19.15625 11.84375 
Q 23.34375 6.203125 30.609375 6.203125 
Q 37.796875 6.203125 41.984375 11.859375 
Q 46.1875 17.53125 46.1875 27.296875 
Q 46.1875 37.015625 41.984375 42.703125 
Q 37.796875 48.390625 30.609375 48.390625 
z
M 30.609375 56 
Q 42.328125 56 49.015625 48.375 
Q 55.71875 40.765625 55.71875 27.296875 
Q 55.71875 13.875 49.015625 6.21875 
Q 42.328125 -1.421875 30.609375 -1.421875 
Q 18.84375 -1.421875 12.171875 6.21875 
Q 5.515625 13.875 5.515625 27.296875 
Q 5.515625 40.765625 12.171875 48.375 
Q 18.84375 56 30.609375 56 
z
" id="DejaVuSans-111"/>
      <path d="M 44.28125 53.078125 
L 44.28125 44.578125 
Q 40.484375 46.53125 36.375 47.5 
Q 32.28125 48.484375 27.875 48.484375 
Q 21.1875 48.484375 17.84375 46.4375 
Q 14.5 44.390625 14.5 40.28125 
Q 14.5 37.15625 16.890625 35.375 
Q 19.28125 33.59375 26.515625 31.984375 
L 29.59375 31.296875 
Q 39.15625 29.25 43.1875 25.515625 
Q 47.21875 21.78125 47.21875 15.09375 
Q 47.21875 7.46875 41.1875 3.015625 
Q 35.15625 -1.421875 24.609375 -1.421875 
Q 20.21875 -1.421875 15.453125 -0.5625 
Q 10.6875 0.296875 5.421875 2 
L 5.421875 11.28125 
Q 10.40625 8.6875 15.234375 7.390625 
Q 20.0625 6.109375 24.8125 6.109375 
Q 31.15625 6.109375 34.5625 8.28125 
Q 37.984375 10.453125 37.984375 14.40625 
Q 37.984375 18.0625 35.515625 20.015625 
Q 33.0625 21.96875 24.703125 23.78125 
L 21.578125 24.515625 
Q 13.234375 26.265625 9.515625 29.90625 
Q 5.8125 33.546875 5.8125 39.890625 
Q 5.8125 47.609375 11.28125 51.796875 
Q 16.75 56 26.8125 56 
Q 31.78125 56 36.171875 55.265625 
Q 40.578125 54.546875 44.28125 53.078125 
z
" id="DejaVuSans-115"/>
      <path d="M 9.421875 54.6875 
L 18.40625 54.6875 
L 18.40625 0 
L 9.421875 0 
z
M 9.421875 75.984375 
L 18.40625 75.984375 
L 18.40625 64.59375 
L 9.421875 64.59375 
z
" id="DejaVuSans-105"/>
      <path d="M 18.3125 70.21875 
L 18.3125 54.6875 
L 36.8125 54.6875 
L 36.8125 47.703125 
L 18.3125 47.703125 
L 18.3125 18.015625 
Q 18.3125 11.328125 20.140625 9.421875 
Q 21.96875 7.515625 27.59375 7.515625 
L 36.8125 7.515625 
L 36.8125 0 
L 27.59375 0 
Q 17.1875 0 13.234375 3.875 
Q 9.28125 7.765625 9.28125 18.015625 
L 9.28125 47.703125 
L 2.6875 47.703125 
L 2.6875 54.6875 
L 9.28125 54.6875 
L 9.28125 70.21875 
z
" id="DejaVuSans-116"/>
      <path d="M 54.890625 33.015625 
L 54.890625 0 
L 45.90625 0 
L 45.90625 32.71875 
Q 45.90625 40.484375 42.875 44.328125 
Q 39.84375 48.1875 33.796875 48.1875 
Q 26.515625 48.1875 22.3125 43.546875 
Q 18.109375 38.921875 18.109375 30.90625 
L 18.109375 0 
L 9.078125 0 
L 9.078125 54.6875 
L 18.109375 54.6875 
L 18.109375 46.1875 
Q 21.34375 51.125 25.703125 53.5625 
Q 30.078125 56 35.796875 56 
Q 45.21875 56 50.046875 50.171875 
Q 54.890625 44.34375 54.890625 33.015625 
z
" id="DejaVuSans-110"/>
      <path id="DejaVuSans-32"/>
      <path d="M 44.390625 34.1875 
Q 47.5625 33.109375 50.5625 29.59375 
Q 53.5625 26.078125 56.59375 19.921875 
L 66.609375 0 
L 56 0 
L 46.6875 18.703125 
Q 43.0625 26.03125 39.671875 28.421875 
Q 36.28125 30.8125 30.421875 30.8125 
L 19.671875 30.8125 
L 19.671875 0 
L 9.8125 0 
L 9.8125 72.90625 
L 32.078125 72.90625 
Q 44.578125 72.90625 50.734375 67.671875 
Q 56.890625 62.453125 56.890625 51.90625 
Q 56.890625 45.015625 53.6875 40.46875 
Q 50.484375 35.9375 44.390625 34.1875 
z
M 19.671875 64.796875 
L 19.671875 38.921875 
L 32.078125 38.921875 
Q 39.203125 38.921875 42.84375 42.21875 
Q 46.484375 45.515625 46.484375 51.90625 
Q 46.484375 58.296875 42.84375 61.546875 
Q 39.203125 64.796875 32.078125 64.796875 
z
" id="DejaVuSans-82"/>
      <path d="M 34.28125 27.484375 
Q 23.390625 27.484375 19.1875 25 
Q 14.984375 22.515625 14.984375 16.5 
Q 14.984375 11.71875 18.140625 8.90625 
Q 21.296875 6.109375 26.703125 6.109375 
Q 34.1875 6.109375 38.703125 11.40625 
Q 43.21875 16.703125 43.21875 25.484375 
L 43.21875 27.484375 
z
M 52.203125 31.203125 
L 52.203125 0 
L 43.21875 0 
L 43.21875 8.296875 
Q 40.140625 3.328125 35.546875 0.953125 
Q 30.953125 -1.421875 24.3125 -1.421875 
Q 15.921875 -1.421875 10.953125 3.296875 
Q 6 8.015625 6 15.921875 
Q 6 25.140625 12.171875 29.828125 
Q 18.359375 34.515625 30.609375 34.515625 
L 43.21875 34.515625 
L 43.21875 35.40625 
Q 43.21875 41.609375 39.140625 45 
Q 35.0625 48.390625 27.6875 48.390625 
Q 23 48.390625 18.546875 47.265625 
Q 14.109375 46.140625 10.015625 43.890625 
L 10.015625 52.203125 
Q 14.9375 54.109375 19.578125 55.046875 
Q 24.21875 56 28.609375 56 
Q 40.484375 56 46.34375 49.84375 
Q 52.203125 43.703125 52.203125 31.203125 
z
" id="DejaVuSans-97"/>
      <path d="M 45.40625 46.390625 
L 45.40625 75.984375 
L 54.390625 75.984375 
L 54.390625 0 
L 45.40625 0 
L 45.40625 8.203125 
Q 42.578125 3.328125 38.25 0.953125 
Q 33.9375 -1.421875 27.875 -1.421875 
Q 17.96875 -1.421875 11.734375 6.484375 
Q 5.515625 14.40625 5.515625 27.296875 
Q 5.515625 40.1875 11.734375 48.09375 
Q 17.96875 56 27.875 56 
Q 33.9375 56 38.25 53.625 
Q 42.578125 51.265625 45.40625 46.390625 
z
M 14.796875 27.296875 
Q 14.796875 17.390625 18.875 11.75 
Q 22.953125 6.109375 30.078125 6.109375 
Q 37.203125 6.109375 41.296875 11.75 
Q 45.40625 17.390625 45.40625 27.296875 
Q 45.40625 37.203125 41.296875 42.84375 
Q 37.203125 48.484375 30.078125 48.484375 
Q 22.953125 48.484375 18.875 42.84375 
Q 14.796875 37.203125 14.796875 27.296875 
z
" id="DejaVuSans-100"/>
     </defs>
     <g transform="translate(102.024844 357.832125)scale(0.3 -0.3)">
      <use xlink:href="#DejaVuSans-80"/>
      <use x="60.255859" xlink:href="#DejaVuSans-111"/>
      <use x="121.4375" xlink:href="#DejaVuSans-115"/>
      <use x="173.537109" xlink:href="#DejaVuSans-105"/>
      <use x="201.320312" xlink:href="#DejaVuSans-116"/>
      <use x="240.529297" xlink:href="#DejaVuSans-105"/>
      <use x="268.3125" xlink:href="#DejaVuSans-111"/>
      <use x="329.494141" xlink:href="#DejaVuSans-110"/>
      <use x="392.873047" xlink:href="#DejaVuSans-32"/>
      <use x="424.660156" xlink:href="#DejaVuSans-105"/>
      <use x="452.443359" xlink:href="#DejaVuSans-110"/>
      <use x="515.822266" xlink:href="#DejaVuSans-32"/>
      <use x="547.609375" xlink:href="#DejaVuSans-82"/>
      <use x="617.060547" xlink:href="#DejaVuSans-97"/>
      <use x="678.339844" xlink:href="#DejaVuSans-100"/>
      <use x="741.816406" xlink:href="#DejaVuSans-105"/>
      <use x="769.599609" xlink:href="#DejaVuSans-97"/>
      <use x="830.878906" xlink:href="#DejaVuSans-110"/>
     </g>
    </g>
   </g>
   <g id="matplotlib.axis_2">
    <g id="ytick_1">
     <g id="line2d_6">
      <defs>
       <path d="M 0 0 
L -3.5 0 
" id="m2f550b35fe" style="stroke:#000000;stroke-width:0.8;"/>
      </defs>
      <g>
       <use style="stroke:#000000;stroke-width:0.8;" x="57.6" xlink:href="#m2f550b35fe" y="307.584"/>
      </g>
     </g>
     <g id="text_7">
      <!-- 0.0 -->
      <defs>
       <path d="M 10.6875 12.40625 
L 21 12.40625 
L 21 0 
L 10.6875 0 
z
" id="DejaVuSans-46"/>
      </defs>
      <g transform="translate(23.564687 314.042672)scale(0.17 -0.17)">
       <use xlink:href="#DejaVuSans-48"/>
       <use x="63.623047" xlink:href="#DejaVuSans-46"/>
       <use x="95.410156" xlink:href="#DejaVuSans-48"/>
      </g>
     </g>
    </g>
    <g id="ytick_2">
     <g id="line2d_7">
      <g>
       <use style="stroke:#000000;stroke-width:0.8;" x="57.6" xlink:href="#m2f550b35fe" y="267.454053"/>
      </g>
     </g>
     <g id="text_8">
      <!-- 0.2 -->
      <g transform="translate(23.564687 273.912725)scale(0.17 -0.17)">
       <use xlink:href="#DejaVuSans-48"/>
       <use x="63.623047" xlink:href="#DejaVuSans-46"/>
       <use x="95.410156" xlink:href="#DejaVuSans-50"/>
      </g>
     </g>
    </g>
    <g id="ytick_3">
     <g id="line2d_8">
      <g>
       <use style="stroke:#000000;stroke-width:0.8;" x="57.6" xlink:href="#m2f550b35fe" y="227.324106"/>
      </g>
     </g>
     <g id="text_9">
      <!-- 0.4 -->
      <defs>
       <path d="M 37.796875 64.3125 
L 12.890625 25.390625 
L 37.796875 25.390625 
z
M 35.203125 72.90625 
L 47.609375 72.90625 
L 47.609375 25.390625 
L 58.015625 25.390625 
L 58.015625 17.1875 
L 47.609375 17.1875 
L 47.609375 0 
L 37.796875 0 
L 37.796875 17.1875 
L 4.890625 17.1875 
L 4.890625 26.703125 
z
" id="DejaVuSans-52"/>
      </defs>
      <g transform="translate(23.564687 233.782778)scale(0.17 -0.17)">
       <use xlink:href="#DejaVuSans-48"/>
       <use x="63.623047" xlink:href="#DejaVuSans-46"/>
       <use x="95.410156" xlink:href="#DejaVuSans-52"/>
      </g>
     </g>
    </g>
    <g id="ytick_4">
     <g id="line2d_9">
      <g>
       <use style="stroke:#000000;stroke-width:0.8;" x="57.6" xlink:href="#m2f550b35fe" y="187.194159"/>
      </g>
     </g>
     <g id="text_10">
      <!-- 0.6 -->
      <defs>
       <path d="M 33.015625 40.375 
Q 26.375 40.375 22.484375 35.828125 
Q 18.609375 31.296875 18.609375 23.390625 
Q 18.609375 15.53125 22.484375 10.953125 
Q 26.375 6.390625 33.015625 6.390625 
Q 39.65625 6.390625 43.53125 10.953125 
Q 47.40625 15.53125 47.40625 23.390625 
Q 47.40625 31.296875 43.53125 35.828125 
Q 39.65625 40.375 33.015625 40.375 
z
M 52.59375 71.296875 
L 52.59375 62.3125 
Q 48.875 64.0625 45.09375 64.984375 
Q 41.3125 65.921875 37.59375 65.921875 
Q 27.828125 65.921875 22.671875 59.328125 
Q 17.53125 52.734375 16.796875 39.40625 
Q 19.671875 43.65625 24.015625 45.921875 
Q 28.375 48.1875 33.59375 48.1875 
Q 44.578125 48.1875 50.953125 41.515625 
Q 57.328125 34.859375 57.328125 23.390625 
Q 57.328125 12.15625 50.6875 5.359375 
Q 44.046875 -1.421875 33.015625 -1.421875 
Q 20.359375 -1.421875 13.671875 8.265625 
Q 6.984375 17.96875 6.984375 36.375 
Q 6.984375 53.65625 15.1875 63.9375 
Q 23.390625 74.21875 37.203125 74.21875 
Q 40.921875 74.21875 44.703125 73.484375 
Q 48.484375 72.75 52.59375 71.296875 
z
" id="DejaVuSans-54"/>
      </defs>
      <g transform="translate(23.564687 193.652831)scale(0.17 -0.17)">
       <use xlink:href="#DejaVuSans-48"/>
       <use x="63.623047" xlink:href="#DejaVuSans-46"/>
       <use x="95.410156" xlink:href="#DejaVuSans-54"/>
      </g>
     </g>
    </g>
    <g id="ytick_5">
     <g id="line2d_10">
      <g>
       <use style="stroke:#000000;stroke-width:0.8;" x="57.6" xlink:href="#m2f550b35fe" y="147.064212"/>
      </g>
     </g>
     <g id="text_11">
      <!-- 0.8 -->
      <defs>
       <path d="M 31.78125 34.625 
Q 24.75 34.625 20.71875 30.859375 
Q 16.703125 27.09375 16.703125 20.515625 
Q 16.703125 13.921875 20.71875 10.15625 
Q 24.75 6.390625 31.78125 6.390625 
Q 38.8125 6.390625 42.859375 10.171875 
Q 46.921875 13.96875 46.921875 20.515625 
Q 46.921875 27.09375 42.890625 30.859375 
Q 38.875 34.625 31.78125 34.625 
z
M 21.921875 38.8125 
Q 15.578125 40.375 12.03125 44.71875 
Q 8.5 49.078125 8.5 55.328125 
Q 8.5 64.0625 14.71875 69.140625 
Q 20.953125 74.21875 31.78125 74.21875 
Q 42.671875 74.21875 48.875 69.140625 
Q 55.078125 64.0625 55.078125 55.328125 
Q 55.078125 49.078125 51.53125 44.71875 
Q 48 40.375 41.703125 38.8125 
Q 48.828125 37.15625 52.796875 32.3125 
Q 56.78125 27.484375 56.78125 20.515625 
Q 56.78125 9.90625 50.3125 4.234375 
Q 43.84375 -1.421875 31.78125 -1.421875 
Q 19.734375 -1.421875 13.25 4.234375 
Q 6.78125 9.90625 6.78125 20.515625 
Q 6.78125 27.484375 10.78125 32.3125 
Q 14.796875 37.15625 21.921875 38.8125 
z
M 18.3125 54.390625 
Q 18.3125 48.734375 21.84375 45.5625 
Q 25.390625 42.390625 31.78125 42.390625 
Q 38.140625 42.390625 41.71875 45.5625 
Q 45.3125 48.734375 45.3125 54.390625 
Q 45.3125 60.0625 41.71875 63.234375 
Q 38.140625 66.40625 31.78125 66.40625 
Q 25.390625 66.40625 21.84375 63.234375 
Q 18.3125 60.0625 18.3125 54.390625 
z
" id="DejaVuSans-56"/>
      </defs>
      <g transform="translate(23.564687 153.522884)scale(0.17 -0.17)">
       <use xlink:href="#DejaVuSans-48"/>
       <use x="63.623047" xlink:href="#DejaVuSans-46"/>
       <use x="95.410156" xlink:href="#DejaVuSans-56"/>
      </g>
     </g>
    </g>
    <g id="ytick_6">
     <g id="line2d_11">
      <g>
       <use style="stroke:#000000;stroke-width:0.8;" x="57.6" xlink:href="#m2f550b35fe" y="106.934265"/>
      </g>
     </g>
     <g id="text_12">
      <!-- 1.0 -->
      <g transform="translate(23.564687 113.392937)scale(0.17 -0.17)">
       <use xlink:href="#DejaVuSans-49"/>
       <use x="63.623047" xlink:href="#DejaVuSans-46"/>
       <use x="95.410156" xlink:href="#DejaVuSans-48"/>
      </g>
     </g>
    </g>
    <g id="ytick_7">
     <g id="line2d_12">
      <g>
       <use style="stroke:#000000;stroke-width:0.8;" x="57.6" xlink:href="#m2f550b35fe" y="66.804318"/>
      </g>
     </g>
     <g id="text_13">
      <!-- 1.2 -->
      <g transform="translate(23.564687 73.26299)scale(0.17 -0.17)">
       <use xlink:href="#DejaVuSans-49"/>
       <use x="63.623047" xlink:href="#DejaVuSans-46"/>
       <use x="95.410156" xlink:href="#DejaVuSans-50"/>
      </g>
     </g>
    </g>
    <g id="text_14">
     <!-- Density -->
     <defs>
      <path d="M 19.671875 64.796875 
L 19.671875 8.109375 
L 31.59375 8.109375 
Q 46.6875 8.109375 53.6875 14.9375 
Q 60.6875 21.78125 60.6875 36.53125 
Q 60.6875 51.171875 53.6875 57.984375 
Q 46.6875 64.796875 31.59375 64.796875 
z
M 9.8125 72.90625 
L 30.078125 72.90625 
Q 51.265625 72.90625 61.171875 64.09375 
Q 71.09375 55.28125 71.09375 36.53125 
Q 71.09375 17.671875 61.125 8.828125 
Q 51.171875 0 30.078125 0 
L 9.8125 0 
z
" id="DejaVuSans-68"/>
      <path d="M 56.203125 29.59375 
L 56.203125 25.203125 
L 14.890625 25.203125 
Q 15.484375 15.921875 20.484375 11.0625 
Q 25.484375 6.203125 34.421875 6.203125 
Q 39.59375 6.203125 44.453125 7.46875 
Q 49.3125 8.734375 54.109375 11.28125 
L 54.109375 2.78125 
Q 49.265625 0.734375 44.1875 -0.34375 
Q 39.109375 -1.421875 33.890625 -1.421875 
Q 20.796875 -1.421875 13.15625 6.1875 
Q 5.515625 13.8125 5.515625 26.8125 
Q 5.515625 40.234375 12.765625 48.109375 
Q 20.015625 56 32.328125 56 
Q 43.359375 56 49.78125 48.890625 
Q 56.203125 41.796875 56.203125 29.59375 
z
M 47.21875 32.234375 
Q 47.125 39.59375 43.09375 43.984375 
Q 39.0625 48.390625 32.421875 48.390625 
Q 24.90625 48.390625 20.390625 44.140625 
Q 15.875 39.890625 15.1875 32.171875 
z
" id="DejaVuSans-101"/>
      <path d="M 32.171875 -5.078125 
Q 28.375 -14.84375 24.75 -17.8125 
Q 21.140625 -20.796875 15.09375 -20.796875 
L 7.90625 -20.796875 
L 7.90625 -13.28125 
L 13.1875 -13.28125 
Q 16.890625 -13.28125 18.9375 -11.515625 
Q 21 -9.765625 23.484375 -3.21875 
L 25.09375 0.875 
L 2.984375 54.6875 
L 12.5 54.6875 
L 29.59375 11.921875 
L 46.6875 54.6875 
L 56.203125 54.6875 
z
" id="DejaVuSans-121"/>
     </defs>
     <g transform="translate(13.325625 231.553781)rotate(-90)scale(0.3 -0.3)">
      <use xlink:href="#DejaVuSans-68"/>
      <use x="77.001953" xlink:href="#DejaVuSans-101"/>
      <use x="138.525391" xlink:href="#DejaVuSans-110"/>
      <use x="201.904297" xlink:href="#DejaVuSans-115"/>
      <use x="254.003906" xlink:href="#DejaVuSans-105"/>
      <use x="281.787109" xlink:href="#DejaVuSans-116"/>
      <use x="320.996094" xlink:href="#DejaVuSans-121"/>
     </g>
    </g>
   </g>
   <g id="line2d_13">
    <path clip-path="url(#p7436323d04)" d="M 73.832727 307.584 
L 109.093737 307.484789 
L 109.51583 307.211197 
L 109.970392 306.610235 
L 110.587297 305.833836 
L 111.041859 305.670666 
L 111.366546 305.477752 
L 111.691233 304.989506 
L 112.600357 303.416151 
L 112.925044 303.369291 
L 113.347137 303.338621 
L 113.639355 303.041943 
L 114.191323 302.436353 
L 114.386135 302.558568 
L 114.678354 303.129437 
L 115.165384 304.078797 
L 115.360196 304.119636 
L 115.587477 303.915873 
L 116.139445 303.350083 
L 116.366726 303.460623 
L 116.723882 304.004772 
L 117.113506 304.463051 
L 117.27585 304.397521 
L 117.470662 304.027115 
L 117.76288 302.877952 
L 118.704473 298.611547 
L 118.931754 298.437845 
L 119.159034 298.565438 
L 120.133095 299.681789 
L 120.52272 300.557647 
L 121.00975 301.626291 
L 121.172094 301.626546 
L 121.334437 301.333657 
L 121.594187 300.280077 
L 122.308498 297.011638 
L 122.503311 296.896077 
L 122.698123 297.100619 
L 123.087747 297.531753 
L 123.217622 297.41111 
L 123.412434 296.821175 
L 123.704653 295.056183 
L 124.548839 289.439628 
L 124.841057 288.803072 
L 125.035869 288.764058 
L 125.230682 289.023846 
L 125.490431 289.862347 
L 125.912524 292.239608 
L 126.626836 296.153121 
L 127.048929 297.33388 
L 127.341147 297.668482 
L 127.535959 297.606921 
L 127.76324 297.230961 
L 128.412614 295.965115 
L 128.574958 296.108145 
L 128.802239 296.723503 
L 129.451613 298.72194 
L 129.581488 298.677887 
L 129.743831 298.290787 
L 130.003581 296.931725 
L 130.490611 292.831087 
L 131.042579 288.79872 
L 131.334797 287.93108 
L 131.52961 287.854092 
L 131.756891 288.091634 
L 132.178984 288.534288 
L 132.341327 288.419065 
L 132.568608 287.871109 
L 133.088107 285.683455 
L 133.380326 284.938905 
L 133.542669 284.942698 
L 133.737481 285.346875 
L 134.419324 287.209825 
L 134.549199 286.999987 
L 134.744011 286.124977 
L 135.068698 283.335087 
L 136.140165 272.990156 
L 136.27004 272.890908 
L 136.399915 273.220359 
L 136.627196 274.782508 
L 137.049289 279.903755 
L 137.666194 286.757889 
L 138.02335 288.594143 
L 138.315568 289.167605 
L 138.542849 289.215775 
L 138.77013 288.99777 
L 139.159755 288.22187 
L 139.646785 286.808428 
L 140.003941 284.99442 
L 140.52344 280.837109 
L 141.400095 274.265724 
L 142.244281 268.474212 
L 142.341687 268.391746 
L 142.374156 268.416176 
L 142.504031 268.787264 
L 142.731312 270.468534 
L 143.185873 276.311644 
L 143.672904 281.494787 
L 143.965122 282.659709 
L 144.127466 282.706022 
L 144.289809 282.362792 
L 144.51709 281.204962 
L 144.809309 278.407037 
L 145.296339 271.024423 
L 145.750901 265.430003 
L 145.913244 264.887887 
L 145.945713 264.894191 
L 146.043119 265.13964 
L 146.237931 266.558501 
L 146.627556 271.722154 
L 147.244461 279.32112 
L 147.569148 280.996176 
L 147.699023 281.108261 
L 147.731492 281.085337 
L 147.861367 280.792949 
L 148.088647 279.562752 
L 148.543209 275.395384 
L 148.965302 272.382127 
L 149.095177 272.192966 
L 149.127646 272.218586 
L 149.257521 272.631 
L 149.452333 274.184203 
L 149.77702 278.857055 
L 150.556269 290.505977 
L 150.751081 291.080335 
L 150.848487 290.827885 
L 151.010831 289.61144 
L 151.303049 285.304541 
L 152.049829 273.323453 
L 152.212172 272.789823 
L 152.244641 272.803471 
L 152.342047 273.063737 
L 152.569328 274.657255 
L 153.088827 278.516685 
L 153.186234 278.588971 
L 153.218702 278.548074 
L 153.348577 278.066168 
L 153.608327 275.839698 
L 154.355107 268.642852 
L 154.7772 267.079802 
L 155.03695 265.736701 
L 155.329168 262.87522 
L 155.848667 254.866797 
L 156.303229 249.202148 
L 156.53051 248.242994 
L 156.627916 248.26237 
L 156.757791 248.642603 
L 157.01754 250.268976 
L 157.666914 254.467873 
L 158.02407 255.363602 
L 158.413694 255.849334 
L 158.576038 255.804343 
L 158.738381 255.455978 
L 158.965662 254.345096 
L 160.459223 243.80382 
L 161.043659 235.897987 
L 161.465752 231.832809 
L 161.693033 231.272392 
L 161.822908 231.447728 
L 162.082658 232.475548 
L 162.504751 233.958169 
L 162.667094 233.963912 
L 162.894375 233.533327 
L 163.186594 233.075282 
L 163.316468 233.216474 
L 163.511281 234.009229 
L 163.835968 236.625476 
L 164.420404 241.268942 
L 164.647685 241.859039 
L 164.77756 241.819945 
L 164.939903 241.425908 
L 165.26459 239.851419 
L 165.751621 237.726764 
L 165.946433 237.617441 
L 166.108777 237.863277 
L 166.628276 238.858271 
L 166.758151 238.721179 
L 166.952963 238.078363 
L 167.310119 235.882895 
L 167.927024 230.621463 
L 168.349117 224.736483 
L 169.095897 213.696848 
L 169.355647 212.56559 
L 169.51799 212.543963 
L 169.712803 212.923581 
L 170.069958 214.234764 
L 170.492051 216.767333 
L 170.946613 219.175847 
L 171.044019 219.20995 
L 171.076488 219.161405 
L 171.206363 218.636203 
L 171.433644 216.381451 
L 171.823268 209.419019 
L 172.375236 200.359844 
L 172.634986 199.03001 
L 172.797329 198.986707 
L 173.02461 199.067076 
L 173.154485 198.775638 
L 173.349297 197.476667 
L 173.673984 193.249839 
L 174.063609 189.01226 
L 174.161015 188.868508 
L 174.193483 188.928294 
L 174.323358 189.704652 
L 174.583108 193.385745 
L 175.167544 202.156563 
L 175.329888 202.677941 
L 175.362357 202.669683 
L 175.492231 202.342195 
L 176.044199 200.179055 
L 176.076668 200.206005 
L 176.206543 200.573902 
L 176.466292 202.265696 
L 176.855917 204.537985 
L 176.920854 204.576622 
L 176.953323 204.54345 
L 177.083198 204.044472 
L 177.310479 201.844498 
L 178.609227 186.243103 
L 178.998851 183.634995 
L 179.063789 183.584451 
L 179.096257 183.621655 
L 179.226132 184.227861 
L 179.420944 186.548653 
L 179.875506 195.876102 
L 180.232662 200.982638 
L 180.362537 201.425751 
L 180.395005 201.410831 
L 180.492411 201.083881 
L 180.687224 199.356226 
L 181.888566 185.894475 
L 182.083378 185.595341 
L 182.213253 185.763618 
L 182.408065 186.621329 
L 182.667814 188.950682 
L 183.609407 198.922905 
L 183.706813 198.836405 
L 183.869156 198.109496 
L 184.323718 194.358335 
L 184.648405 192.673925 
L 184.77828 192.561651 
L 184.810749 192.588381 
L 184.940624 192.916943 
L 185.167904 194.351931 
L 185.460123 197.839071 
L 185.882216 205.927013 
L 186.628996 220.313732 
L 186.856277 221.609816 
L 186.953683 221.619354 
L 187.083558 221.228393 
L 187.408245 219.170114 
L 188.02515 215.600491 
L 188.706993 212.79165 
L 188.804399 212.814357 
L 188.934274 213.207464 
L 189.129086 214.687176 
L 189.421304 218.869411 
L 190.557709 237.433801 
L 190.78499 238.110379 
L 190.914865 238.066869 
L 191.109677 237.580449 
L 191.369426 236.2281 
L 191.629176 233.671138 
L 191.921394 228.30403 
L 192.311019 215.959759 
L 193.252611 183.110775 
L 193.512361 180.277134 
L 193.609767 180.055374 
L 193.642235 180.070444 
L 193.739642 180.355294 
L 193.934454 181.830462 
L 194.29161 186.73394 
L 194.876046 198.478092 
L 195.590358 212.024839 
L 195.850107 213.79915 
L 195.915045 213.811578 
L 195.947513 213.748637 
L 196.077388 213.036812 
L 196.304669 210.184129 
L 197.148855 197.897193 
L 197.213793 197.822892 
L 197.246261 197.845562 
L 197.376136 198.292375 
L 197.668354 200.645411 
L 198.090448 203.547877 
L 198.187854 203.654913 
L 198.220322 203.630558 
L 198.350197 203.234164 
L 198.577478 201.516468 
L 199.486602 193.375683 
L 199.584008 193.383358 
L 199.713883 193.738946 
L 199.973632 195.329375 
L 200.493131 198.456941 
L 200.623006 198.538292 
L 200.752881 198.23861 
L 200.980162 196.930096 
L 201.954223 188.683054 
L 202.311379 183.838266 
L 203.155565 170.848407 
L 203.220502 170.920157 
L 203.350377 171.885933 
L 203.577658 176.190737 
L 203.967283 189.366686 
L 204.681594 213.199081 
L 204.941344 216.100912 
L 205.006281 216.14579 
L 205.03875 216.066101 
L 205.168624 215.093279 
L 205.395905 211.220074 
L 206.337498 192.539218 
L 206.467373 192.236481 
L 206.499841 192.259883 
L 206.629716 192.697989 
L 206.889466 194.817461 
L 207.895995 204.536913 
L 208.02587 204.710876 
L 208.058339 204.694904 
L 208.188214 204.414292 
L 208.480432 202.985121 
L 208.77265 202.027836 
L 208.870056 202.171646 
L 209.0324 203.128079 
L 209.29215 206.43562 
L 209.909055 214.945539 
L 210.006461 215.098818 
L 210.03893 215.03412 
L 210.168805 214.177309 
L 210.396085 210.493272 
L 211.435084 189.55676 
L 211.500021 189.566159 
L 211.629896 190.075611 
L 211.954583 192.906276 
L 212.311739 195.362407 
L 212.441614 195.5715 
L 212.474082 195.559089 
L 212.603957 195.257908 
L 212.831238 193.828894 
L 213.155925 189.926548 
L 213.545549 181.982602 
L 214.065049 165.725389 
L 214.714423 146.579699 
L 214.974172 143.655443 
L 215.071578 143.445238 
L 215.104047 143.475903 
L 215.233922 144.060406 
L 215.461203 146.573493 
L 215.883296 154.45743 
L 217.214513 181.561078 
L 217.636606 185.067299 
L 218.28598 189.581857 
L 218.935354 194.78251 
L 219.097697 195.038482 
L 219.130166 195.026422 
L 219.260041 194.797253 
L 219.519791 193.720692 
L 219.974352 190.73896 
L 220.331508 186.773479 
L 220.78607 178.736504 
L 221.630256 163.700186 
L 221.922474 161.726328 
L 221.987412 161.675875 
L 222.019881 161.709805 
L 222.149755 162.255477 
L 222.344568 164.322151 
L 222.669255 170.651973 
L 223.675784 192.064927 
L 224.03294 195.292347 
L 224.227752 195.788362 
L 224.325158 195.578791 
L 224.487502 194.379135 
L 224.714783 190.645045 
L 225.104407 179.466409 
L 225.591438 166.963797 
L 225.753781 165.880815 
L 225.78625 165.900763 
L 225.883656 166.41375 
L 226.078468 169.182658 
L 226.890186 183.162845 
L 226.987592 183.295132 
L 227.020061 183.251142 
L 227.149935 182.689514 
L 227.442154 179.904315 
L 227.961653 175.107915 
L 228.123996 174.811062 
L 228.221403 175.046818 
L 228.383746 176.182218 
L 228.643496 179.838003 
L 229.650025 196.375456 
L 229.909775 197.317178 
L 230.234462 197.667857 
L 230.52668 197.736838 
L 230.656555 197.525916 
L 230.818899 196.807387 
L 231.04618 194.592015 
L 231.403335 188.237497 
L 231.922834 179.473783 
L 232.085178 178.921176 
L 232.182584 179.275364 
L 232.377396 181.40917 
L 232.734552 188.649426 
L 234.098237 218.359225 
L 234.260581 219.333588 
L 234.29305 219.329998 
L 234.390456 218.83661 
L 234.552799 216.075732 
L 234.78008 206.832137 
L 235.072299 182.701952 
L 235.494392 123.595076 
L 236.013891 58.508565 
L 236.176234 54.144 
L 236.27364 56.416125 
L 236.468453 70.96196 
L 236.890546 127.640928 
L 237.377576 180.139195 
L 237.734732 196.486039 
L 238.2867 208.888984 
L 239.260761 228.511388 
L 239.552979 230.465115 
L 239.845198 231.061731 
L 240.072479 231.525245 
L 240.299759 232.684526 
L 240.624446 235.921603 
L 241.176414 241.516457 
L 241.306289 241.770716 
L 241.338758 241.738488 
L 241.468633 241.217922 
L 241.695914 238.910468 
L 242.150475 231.146135 
L 242.702443 222.826439 
L 242.994662 220.967778 
L 243.124536 220.813088 
L 243.157005 220.834329 
L 243.28688 221.131637 
L 243.54663 222.483452 
L 244.812909 230.053414 
L 245.202533 231.248048 
L 245.722033 232.34147 
L 245.981782 233.99055 
L 246.403875 238.637957 
L 246.7935 242.059028 
L 246.923375 242.310499 
L 246.955843 242.285505 
L 247.085718 241.837364 
L 247.312999 239.914257 
L 247.962373 233.936155 
L 248.059779 233.826706 
L 248.092248 233.848171 
L 248.222123 234.184835 
L 248.77409 236.483447 
L 248.839028 236.404456 
L 248.968903 235.825185 
L 249.196184 233.439649 
L 249.715683 224.353881 
L 250.137776 218.813039 
L 250.397526 217.485331 
L 250.5274 217.411498 
L 250.657275 217.731362 
L 250.852087 218.993406 
L 251.144306 222.745311 
L 252.150835 237.99022 
L 252.215773 238.000997 
L 252.248242 237.946781 
L 252.410585 237.156727 
L 253.28724 231.151105 
L 253.319709 231.157644 
L 253.482052 231.377288 
L 253.871677 231.928955 
L 254.001551 231.760524 
L 254.228832 230.925139 
L 254.748332 228.793844 
L 254.845738 228.899953 
L 254.975612 229.51285 
L 255.202893 232.04357 
L 255.560049 239.205843 
L 256.176954 251.046974 
L 256.436704 252.702138 
L 256.599048 252.828505 
L 256.79386 252.505598 
L 257.215953 251.816034 
L 257.410765 251.847688 
L 257.735452 252.225417 
L 258.384826 253.00756 
L 258.612107 252.976047 
L 258.871857 252.637643 
L 259.29395 252.089952 
L 259.456293 252.196739 
L 259.683574 252.765437 
L 260.560229 255.54862 
L 260.755041 255.512228 
L 261.04726 255.084314 
L 261.339478 254.747151 
L 261.469353 254.86289 
L 261.631696 255.426472 
L 261.858977 257.220143 
L 262.216133 262.290502 
L 262.865507 271.387759 
L 263.125257 272.549025 
L 263.255131 272.60161 
L 263.417475 272.324044 
L 263.709693 271.250135 
L 264.131786 268.825598 
L 264.78116 263.36944 
L 265.235722 260.481831 
L 265.463003 260.08044 
L 265.560409 260.219698 
L 265.722753 260.956978 
L 265.950034 263.181443 
L 266.307189 269.290526 
L 266.989032 281.053777 
L 267.183844 281.849717 
L 267.28125 281.649593 
L 267.443594 280.500358 
L 267.768281 275.999532 
L 268.515061 265.216511 
L 268.839748 263.236682 
L 269.03456 262.947871 
L 269.164435 263.11932 
L 269.359247 263.907498 
L 269.651466 266.171148 
L 270.333308 273.937561 
L 270.820339 278.168398 
L 271.177494 279.624118 
L 271.53465 280.201339 
L 271.891806 280.423049 
L 272.086618 280.336772 
L 272.313899 279.920857 
L 272.703523 278.528656 
L 273.125617 277.267784 
L 273.385366 277.073411 
L 273.807459 276.963344 
L 274.03474 276.56735 
L 274.684114 275.279183 
L 274.846458 275.45654 
L 275.073739 276.163881 
L 275.5283 278.550691 
L 276.080268 281.135337 
L 276.307549 281.463508 
L 276.437424 281.362298 
L 276.632236 280.818416 
L 277.021861 278.826366 
L 277.476423 276.851494 
L 277.768641 276.364505 
L 278.353077 275.750841 
L 278.645296 274.889407 
L 279.262201 272.082754 
L 279.684294 270.685766 
L 280.106387 270.05637 
L 280.950574 269.050632 
L 280.983042 269.08047 
L 281.177855 269.506228 
L 281.470073 270.925566 
L 282.28179 276.769441 
L 282.833758 279.784176 
L 283.125977 280.459451 
L 283.28832 280.430195 
L 283.483132 279.998414 
L 283.775351 278.660462 
L 284.684474 273.957344 
L 284.78188 273.985874 
L 284.911755 274.317828 
L 285.139036 275.668011 
L 285.658535 280.726621 
L 286.242972 285.549257 
L 286.600128 287.041866 
L 286.762471 287.168 
L 286.892346 286.979837 
L 287.119627 286.071077 
L 288.061219 281.338796 
L 288.191094 281.435839 
L 288.385906 282.027758 
L 288.807999 284.363062 
L 289.165155 285.782063 
L 289.29503 285.822395 
L 289.424905 285.545771 
L 289.652186 284.354952 
L 290.496372 279.067316 
L 290.626247 279.088321 
L 290.78859 279.507519 
L 291.113277 281.211824 
L 291.665245 283.918351 
L 291.892526 284.228308 
L 292.054869 284.139467 
L 292.314619 283.622012 
L 293.028931 282.053314 
L 293.256211 281.980523 
L 293.451024 282.158933 
L 293.678305 282.717638 
L 293.970523 284.124095 
L 294.554959 288.524166 
L 294.912115 290.361307 
L 295.106927 290.580394 
L 295.236802 290.383782 
L 295.431614 289.589114 
L 295.756301 287.074759 
L 296.7953 277.804885 
L 296.892706 277.833585 
L 297.022581 278.277968 
L 297.249862 280.097009 
L 297.736892 286.544931 
L 298.223923 291.739816 
L 298.483672 292.782882 
L 298.646016 292.826101 
L 298.808359 292.509605 
L 299.587608 290.463062 
L 299.620077 290.475926 
L 299.78242 290.697109 
L 300.074639 291.582763 
L 301.113637 295.031747 
L 301.373387 295.30261 
L 301.53573 295.15272 
L 301.763011 294.456269 
L 302.672135 290.809824 
L 302.834478 291.017195 
L 303.353978 292.032757 
L 303.386446 292.001384 
L 303.516321 291.652655 
L 303.711133 290.387017 
L 304.03582 286.503543 
L 304.717663 278.264825 
L 304.944944 277.611073 
L 305.04235 277.714934 
L 305.237162 278.47461 
L 305.691724 281.645193 
L 306.308629 285.401635 
L 306.958003 287.985332 
L 307.315159 288.656897 
L 307.54244 288.704306 
L 307.834658 288.481096 
L 308.321689 288.135918 
L 308.678845 288.18544 
L 309.425625 288.393662 
L 309.652906 288.147017 
L 309.945124 287.415088 
L 310.626967 285.486063 
L 310.78931 285.512893 
L 310.984122 285.911362 
L 311.308809 287.256447 
L 312.510151 292.772299 
L 312.737432 292.913518 
L 312.932244 292.731317 
L 313.354338 292.276211 
L 313.516681 292.419569 
L 313.743962 293.073963 
L 314.230993 295.526372 
L 314.685554 297.261919 
L 315.107647 297.974221 
L 316.244052 299.343668 
L 316.731083 299.256043 
L 317.380457 299.258134 
L 317.737612 299.413265 
L 318.062299 299.858828 
L 318.581799 300.591432 
L 318.744142 300.510638 
L 318.971423 300.035726 
L 319.685734 298.19492 
L 319.815609 298.299623 
L 320.010421 298.809657 
L 320.497452 301.023421 
L 320.887076 302.286461 
L 321.146826 302.518662 
L 321.374107 302.413305 
L 322.023481 301.950521 
L 322.250762 302.131539 
L 322.575449 302.783938 
L 323.874197 305.82006 
L 324.263821 306.206428 
L 324.491102 306.173718 
L 324.783321 305.84713 
L 325.562569 304.797458 
L 325.822319 304.836 
L 326.244412 305.234137 
L 326.569099 305.402941 
L 326.79638 305.256139 
L 327.121067 304.670748 
L 327.705504 303.633835 
L 327.932785 303.59502 
L 328.192534 303.801 
L 330.303 306.163335 
L 330.530281 305.990396 
L 330.822499 305.407886 
L 331.731623 303.381103 
L 332.186184 303.043482 
L 332.575809 302.979705 
L 332.835558 303.150097 
L 333.192714 303.70139 
L 333.80962 304.673263 
L 334.0369 304.711737 
L 334.29665 304.498231 
L 335.140836 303.612863 
L 335.465523 303.293916 
L 335.79021 302.61285 
L 336.342178 301.487924 
L 336.53699 301.508366 
L 336.764271 301.858083 
L 337.640926 303.566865 
L 337.933145 303.600921 
L 338.8098 303.484326 
L 339.329299 303.530911 
L 339.621517 303.287679 
L 340.595578 302.179348 
L 340.822859 302.454589 
L 341.569639 303.648464 
L 341.731983 303.511821 
L 342.024201 302.85151 
L 342.511231 301.801557 
L 342.673575 301.81296 
L 342.868387 302.144707 
L 343.193074 303.289342 
L 343.874917 305.727168 
L 344.167135 306.059805 
L 344.426885 306.039099 
L 345.011321 305.903409 
L 345.660696 305.992702 
L 345.887976 305.63153 
L 346.180195 304.652861 
L 346.991912 301.555871 
L 347.154256 301.551855 
L 347.349068 301.923504 
L 347.771161 303.507627 
L 348.193254 304.696265 
L 348.453004 304.860449 
L 348.777691 304.714717 
L 349.102378 304.656651 
L 349.329659 304.847507 
L 349.686814 305.523726 
L 350.498532 307.154063 
L 350.920625 307.474296 
L 351.472593 307.573947 
L 353.485653 307.560395 
L 354.03762 307.389839 
L 354.427245 307.027788 
L 355.368837 305.98306 
L 355.628587 306.10372 
L 356.05068 306.657511 
L 356.635117 307.342927 
L 357.089678 307.53562 
L 357.901396 307.575943 
L 358.583239 307.452462 
L 358.972863 307.163838 
L 359.524831 306.40818 
L 359.946924 305.997493 
L 360.206674 306.036809 
L 360.531361 306.380591 
L 361.148266 307.067165 
L 361.375547 307.045108 
L 361.602828 306.771004 
L 361.895046 305.994842 
L 362.934045 302.678308 
L 363.096388 302.809677 
L 363.388606 303.446661 
L 363.843168 304.359394 
L 364.102918 304.473566 
L 364.687355 304.519105 
L 364.947104 304.897973 
L 365.531541 306.334457 
L 366.018571 307.197096 
L 366.408196 307.45884 
L 366.79782 307.456714 
L 367.187445 307.218839 
L 367.642006 306.635666 
L 368.193974 306.006966 
L 368.453724 306.023538 
L 368.745942 306.310188 
L 369.655066 307.364028 
L 370.012222 307.396805 
L 370.336909 307.206942 
L 370.79147 306.630936 
L 371.343438 306.005876 
L 371.603188 306.024979 
L 371.895406 306.313866 
L 372.836999 307.418489 
L 373.324029 307.55872 
L 374.55784 307.57945 
L 375.337089 307.449445 
L 375.726713 307.156785 
L 376.31115 306.352789 
L 376.700774 305.989471 
L 376.960524 306.020755 
L 377.317679 306.351503 
L 377.772241 306.69682 
L 378.031991 306.632656 
L 378.454084 306.218132 
L 378.843708 305.973718 
L 379.103458 306.082871 
L 379.493082 306.577539 
L 380.109988 307.325458 
L 380.532081 307.505823 
L 380.986643 307.454224 
L 381.343798 307.191684 
L 381.700954 306.631274 
L 382.902296 304.381218 
L 383.324389 304.345206 
L 383.681545 304.206741 
L 384.623137 303.53686 
L 384.850418 303.798009 
L 385.207574 304.630321 
L 386.149166 307.030375 
L 386.538791 307.417422 
L 386.993352 307.556978 
L 388.194694 307.583977 
L 398.487273 307.584 
L 398.487273 307.584 
" style="fill:none;stroke:#ff7f0e;stroke-linecap:square;stroke-width:1.5;"/>
   </g>
   <g id="patch_103">
    <path d="M 57.6 307.584 
L 57.6 41.472 
" style="fill:none;stroke:#000000;stroke-linecap:square;stroke-linejoin:miter;stroke-width:0.8;"/>
   </g>
   <g id="patch_104">
    <path d="M 414.72 307.584 
L 414.72 41.472 
" style="fill:none;stroke:#000000;stroke-linecap:square;stroke-linejoin:miter;stroke-width:0.8;"/>
   </g>
   <g id="patch_105">
    <path d="M 57.6 307.584 
L 414.72 307.584 
" style="fill:none;stroke:#000000;stroke-linecap:square;stroke-linejoin:miter;stroke-width:0.8;"/>
   </g>
   <g id="patch_106">
    <path d="M 57.6 41.472 
L 414.72 41.472 
" style="fill:none;stroke:#000000;stroke-linecap:square;stroke-linejoin:miter;stroke-width:0.8;"/>
   </g>
  </g>
 </g>
 <defs>
  <clipPath id="p7436323d04">
   <rect height="266.112" width="357.12" x="57.6" y="41.472"/>
  </clipPath>
 </defs>
</svg>
