<?xml version="1.0" encoding="utf-8" standalone="no"?>
<!DOCTYPE svg PUBLIC "-//W3C//DTD SVG 1.1//EN"
  "http://www.w3.org/Graphics/SVG/1.1/DTD/svg11.dtd">
<!-- Created with matplotlib (https://matplotlib.org/) -->
<svg height="345.6pt" version="1.1" viewBox="0 0 460.8 345.6" width="460.8pt" xmlns="http://www.w3.org/2000/svg" xmlns:xlink="http://www.w3.org/1999/xlink">
 <defs>
  <style type="text/css">
*{stroke-linecap:butt;stroke-linejoin:round;}
  </style>
 </defs>
 <g id="figure_1">
  <g id="patch_1">
   <path d="M 0 345.6 
L 460.8 345.6 
L 460.8 0 
L 0 0 
z
" style="fill:#ffffff;"/>
  </g>
  <g id="axes_1">
   <g id="patch_2">
    <path d="M 57.6 307.584 
L 414.72 307.584 
L 414.72 41.472 
L 57.6 41.472 
z
" style="fill:#ffffff;"/>
   </g>
   <g id="patch_3">
    <path clip-path="url(#p1de8323ec5)" d="M 105.579329 307.584 
L 108.374679 307.584 
L 108.374679 305.854225 
L 105.579329 305.854225 
z
" style="fill:#1f77b4;"/>
   </g>
   <g id="patch_4">
    <path clip-path="url(#p1de8323ec5)" d="M 108.374671 307.584 
L 111.17002 307.584 
L 111.17002 306.430816 
L 108.374671 306.430816 
z
" style="fill:#1f77b4;"/>
   </g>
   <g id="patch_5">
    <path clip-path="url(#p1de8323ec5)" d="M 111.170028 307.584 
L 113.965385 307.584 
L 113.965385 305.854229 
L 111.170028 305.854229 
z
" style="fill:#1f77b4;"/>
   </g>
   <g id="patch_6">
    <path clip-path="url(#p1de8323ec5)" d="M 113.965385 307.584 
L 116.760734 307.584 
L 116.760734 303.547857 
L 113.965385 303.547857 
z
" style="fill:#1f77b4;"/>
   </g>
   <g id="patch_7">
    <path clip-path="url(#p1de8323ec5)" d="M 116.760726 307.584 
L 119.556075 307.584 
L 119.556075 303.547857 
L 116.760726 303.547857 
z
" style="fill:#1f77b4;"/>
   </g>
   <g id="patch_8">
    <path clip-path="url(#p1de8323ec5)" d="M 119.556083 307.584 
L 122.351432 307.584 
L 122.351432 301.24149 
L 119.556083 301.24149 
z
" style="fill:#1f77b4;"/>
   </g>
   <g id="patch_9">
    <path clip-path="url(#p1de8323ec5)" d="M 122.351425 307.584 
L 125.146774 307.584 
L 125.146774 298.358531 
L 122.351425 298.358531 
z
" style="fill:#1f77b4;"/>
   </g>
   <g id="patch_10">
    <path clip-path="url(#p1de8323ec5)" d="M 125.146781 307.584 
L 127.942131 307.584 
L 127.942131 297.78194 
L 125.146781 297.78194 
z
" style="fill:#1f77b4;"/>
   </g>
   <g id="patch_11">
    <path clip-path="url(#p1de8323ec5)" d="M 127.942131 307.584 
L 130.737488 307.584 
L 130.737488 298.935147 
L 127.942131 298.935147 
z
" style="fill:#1f77b4;"/>
   </g>
   <g id="patch_12">
    <path clip-path="url(#p1de8323ec5)" d="M 130.73748 307.584 
L 133.532829 307.584 
L 133.532829 294.322389 
L 130.73748 294.322389 
z
" style="fill:#1f77b4;"/>
   </g>
   <g id="patch_13">
    <path clip-path="url(#p1de8323ec5)" d="M 133.532837 307.584 
L 136.328186 307.584 
L 136.328186 289.133063 
L 133.532837 289.133063 
z
" style="fill:#1f77b4;"/>
   </g>
   <g id="patch_14">
    <path clip-path="url(#p1de8323ec5)" d="M 136.328178 307.584 
L 139.123527 307.584 
L 139.123527 290.286246 
L 136.328178 290.286246 
z
" style="fill:#1f77b4;"/>
   </g>
   <g id="patch_15">
    <path clip-path="url(#p1de8323ec5)" d="M 139.123535 307.584 
L 141.918884 307.584 
L 141.918884 288.556471 
L 139.123535 288.556471 
z
" style="fill:#1f77b4;"/>
   </g>
   <g id="patch_16">
    <path clip-path="url(#p1de8323ec5)" d="M 141.918884 307.584 
L 144.714241 307.584 
L 144.714241 283.367212 
L 141.918884 283.367212 
z
" style="fill:#1f77b4;"/>
   </g>
   <g id="patch_17">
    <path clip-path="url(#p1de8323ec5)" d="M 144.714233 307.584 
L 147.509583 307.584 
L 147.509583 281.060778 
L 144.714233 281.060778 
z
" style="fill:#1f77b4;"/>
   </g>
   <g id="patch_18">
    <path clip-path="url(#p1de8323ec5)" d="M 147.50959 307.584 
L 150.30494 307.584 
L 150.30494 285.09692 
L 147.50959 285.09692 
z
" style="fill:#1f77b4;"/>
   </g>
   <g id="patch_19">
    <path clip-path="url(#p1de8323ec5)" d="M 150.304932 307.584 
L 153.100281 307.584 
L 153.100281 284.520328 
L 150.304932 284.520328 
z
" style="fill:#1f77b4;"/>
   </g>
   <g id="patch_20">
    <path clip-path="url(#p1de8323ec5)" d="M 153.100289 307.584 
L 155.895638 307.584 
L 155.895638 279.907594 
L 153.100289 279.907594 
z
" style="fill:#1f77b4;"/>
   </g>
   <g id="patch_21">
    <path clip-path="url(#p1de8323ec5)" d="M 155.89563 307.584 
L 158.690979 307.584 
L 158.690979 266.069391 
L 155.89563 266.069391 
z
" style="fill:#1f77b4;"/>
   </g>
   <g id="patch_22">
    <path clip-path="url(#p1de8323ec5)" d="M 158.690987 307.584 
L 161.486344 307.584 
L 161.486344 266.646096 
L 158.690987 266.646096 
z
" style="fill:#1f77b4;"/>
   </g>
   <g id="patch_23">
    <path clip-path="url(#p1de8323ec5)" d="M 161.486344 307.584 
L 164.281693 307.584 
L 164.281693 245.312086 
L 161.486344 245.312086 
z
" style="fill:#1f77b4;"/>
   </g>
   <g id="patch_24">
    <path clip-path="url(#p1de8323ec5)" d="M 164.281686 307.584 
L 167.077035 307.584 
L 167.077035 255.690739 
L 164.281686 255.690739 
z
" style="fill:#1f77b4;"/>
   </g>
   <g id="patch_25">
    <path clip-path="url(#p1de8323ec5)" d="M 167.077042 307.584 
L 169.872392 307.584 
L 169.872392 240.699352 
L 167.077042 240.699352 
z
" style="fill:#1f77b4;"/>
   </g>
   <g id="patch_26">
    <path clip-path="url(#p1de8323ec5)" d="M 169.872392 307.584 
L 172.667745 307.584 
L 172.667745 224.554897 
L 169.872392 224.554897 
z
" style="fill:#1f77b4;"/>
   </g>
   <g id="patch_27">
    <path clip-path="url(#p1de8323ec5)" d="M 172.667745 307.584 
L 175.463094 307.584 
L 175.463094 221.095231 
L 172.667745 221.095231 
z
" style="fill:#1f77b4;"/>
   </g>
   <g id="patch_28">
    <path clip-path="url(#p1de8323ec5)" d="M 175.463094 307.584 
L 178.258443 307.584 
L 178.258443 214.752721 
L 175.463094 214.752721 
z
" style="fill:#1f77b4;"/>
   </g>
   <g id="patch_29">
    <path clip-path="url(#p1de8323ec5)" d="M 178.258439 307.584 
L 181.053792 307.584 
L 181.053792 214.176259 
L 178.258439 214.176259 
z
" style="fill:#1f77b4;"/>
   </g>
   <g id="patch_30">
    <path clip-path="url(#p1de8323ec5)" d="M 181.053796 307.584 
L 183.849145 307.584 
L 183.849145 204.950661 
L 181.053796 204.950661 
z
" style="fill:#1f77b4;"/>
   </g>
   <g id="patch_31">
    <path clip-path="url(#p1de8323ec5)" d="M 183.849145 307.584 
L 186.644494 307.584 
L 186.644494 204.374069 
L 183.849145 204.374069 
z
" style="fill:#1f77b4;"/>
   </g>
   <g id="patch_32">
    <path clip-path="url(#p1de8323ec5)" d="M 186.644494 307.584 
L 189.439847 307.584 
L 189.439847 223.401715 
L 186.644494 223.401715 
z
" style="fill:#1f77b4;"/>
   </g>
   <g id="patch_33">
    <path clip-path="url(#p1de8323ec5)" d="M 189.439847 307.584 
L 192.235197 307.584 
L 192.235197 237.816393 
L 189.439847 237.816393 
z
" style="fill:#1f77b4;"/>
   </g>
   <g id="patch_34">
    <path clip-path="url(#p1de8323ec5)" d="M 192.235193 307.584 
L 195.030546 307.584 
L 195.030546 211.293304 
L 192.235193 211.293304 
z
" style="fill:#1f77b4;"/>
   </g>
   <g id="patch_35">
    <path clip-path="url(#p1de8323ec5)" d="M 195.03055 307.584 
L 197.825899 307.584 
L 197.825899 210.716579 
L 195.03055 210.716579 
z
" style="fill:#1f77b4;"/>
   </g>
   <g id="patch_36">
    <path clip-path="url(#p1de8323ec5)" d="M 197.825899 307.584 
L 200.621248 307.584 
L 200.621248 218.788864 
L 197.825899 218.788864 
z
" style="fill:#1f77b4;"/>
   </g>
   <g id="patch_37">
    <path clip-path="url(#p1de8323ec5)" d="M 200.621248 307.584 
L 203.416601 307.584 
L 203.416601 208.98694 
L 200.621248 208.98694 
z
" style="fill:#1f77b4;"/>
   </g>
   <g id="patch_38">
    <path clip-path="url(#p1de8323ec5)" d="M 203.416601 307.584 
L 206.21195 307.584 
L 206.21195 225.131374 
L 203.416601 225.131374 
z
" style="fill:#1f77b4;"/>
   </g>
   <g id="patch_39">
    <path clip-path="url(#p1de8323ec5)" d="M 206.21195 307.584 
L 209.007301 307.584 
L 209.007301 227.437796 
L 206.21195 227.437796 
z
" style="fill:#1f77b4;"/>
   </g>
   <g id="patch_40">
    <path clip-path="url(#p1de8323ec5)" d="M 209.007301 307.584 
L 211.802651 307.584 
L 211.802651 219.942047 
L 209.007301 219.942047 
z
" style="fill:#1f77b4;"/>
   </g>
   <g id="patch_41">
    <path clip-path="url(#p1de8323ec5)" d="M 211.802653 307.584 
L 214.598004 307.584 
L 214.598004 209.563463 
L 211.802653 209.563463 
z
" style="fill:#1f77b4;"/>
   </g>
   <g id="patch_42">
    <path clip-path="url(#p1de8323ec5)" d="M 214.598002 307.584 
L 217.393353 307.584 
L 217.393353 185.923216 
L 214.598002 185.923216 
z
" style="fill:#1f77b4;"/>
   </g>
   <g id="patch_43">
    <path clip-path="url(#p1de8323ec5)" d="M 217.393353 307.584 
L 220.188703 307.584 
L 220.188703 213.022979 
L 217.393353 213.022979 
z
" style="fill:#1f77b4;"/>
   </g>
   <g id="patch_44">
    <path clip-path="url(#p1de8323ec5)" d="M 220.188704 307.584 
L 222.984054 307.584 
L 222.984054 177.850891 
L 220.188704 177.850891 
z
" style="fill:#1f77b4;"/>
   </g>
   <g id="patch_45">
    <path clip-path="url(#p1de8323ec5)" d="M 222.984053 307.584 
L 225.779404 307.584 
L 225.779404 199.761409 
L 222.984053 199.761409 
z
" style="fill:#1f77b4;"/>
   </g>
   <g id="patch_46">
    <path clip-path="url(#p1de8323ec5)" d="M 225.779404 307.584 
L 228.574755 307.584 
L 228.574755 196.301842 
L 225.779404 196.301842 
z
" style="fill:#1f77b4;"/>
   </g>
   <g id="patch_47">
    <path clip-path="url(#p1de8323ec5)" d="M 228.574754 307.584 
L 231.370105 307.584 
L 231.370105 211.869812 
L 228.574754 211.869812 
z
" style="fill:#1f77b4;"/>
   </g>
   <g id="patch_48">
    <path clip-path="url(#p1de8323ec5)" d="M 231.370106 307.584 
L 234.165456 307.584 
L 234.165456 187.652959 
L 231.370106 187.652959 
z
" style="fill:#1f77b4;"/>
   </g>
   <g id="patch_49">
    <path clip-path="url(#p1de8323ec5)" d="M 234.165456 307.584 
L 236.960807 307.584 
L 236.960807 119.615173 
L 234.165456 119.615173 
z
" style="fill:#1f77b4;"/>
   </g>
   <g id="patch_50">
    <path clip-path="url(#p1de8323ec5)" d="M 236.960806 307.584 
L 239.756157 307.584 
L 239.756157 208.410255 
L 236.960806 208.410255 
z
" style="fill:#1f77b4;"/>
   </g>
   <g id="patch_51">
    <path clip-path="url(#p1de8323ec5)" d="M 239.756157 307.584 
L 242.551508 307.584 
L 242.551508 223.401642 
L 239.756157 223.401642 
z
" style="fill:#1f77b4;"/>
   </g>
   <g id="patch_52">
    <path clip-path="url(#p1de8323ec5)" d="M 242.551507 307.584 
L 245.346858 307.584 
L 245.346858 214.75277 
L 242.551507 214.75277 
z
" style="fill:#1f77b4;"/>
   </g>
   <g id="patch_53">
    <path clip-path="url(#p1de8323ec5)" d="M 245.346858 307.584 
L 248.142208 307.584 
L 248.142208 218.212303 
L 245.346858 218.212303 
z
" style="fill:#1f77b4;"/>
   </g>
   <g id="patch_54">
    <path clip-path="url(#p1de8323ec5)" d="M 248.142208 307.584 
L 250.937559 307.584 
L 250.937559 213.023011 
L 248.142208 213.023011 
z
" style="fill:#1f77b4;"/>
   </g>
   <g id="patch_55">
    <path clip-path="url(#p1de8323ec5)" d="M 250.93756 307.584 
L 253.73291 307.584 
L 253.73291 204.374105 
L 250.93756 204.374105 
z
" style="fill:#1f77b4;"/>
   </g>
   <g id="patch_56">
    <path clip-path="url(#p1de8323ec5)" d="M 253.73291 307.584 
L 256.528261 307.584 
L 256.528261 223.978248 
L 253.73291 223.978248 
z
" style="fill:#1f77b4;"/>
   </g>
   <g id="patch_57">
    <path clip-path="url(#p1de8323ec5)" d="M 256.528263 307.584 
L 259.323614 307.584 
L 259.323614 248.195086 
L 256.528263 248.195086 
z
" style="fill:#1f77b4;"/>
   </g>
   <g id="patch_58">
    <path clip-path="url(#p1de8323ec5)" d="M 259.323612 307.584 
L 262.118961 307.584 
L 262.118961 248.771637 
L 259.323612 248.771637 
z
" style="fill:#1f77b4;"/>
   </g>
   <g id="patch_59">
    <path clip-path="url(#p1de8323ec5)" d="M 262.118961 307.584 
L 264.914312 307.584 
L 264.914312 263.763054 
L 262.118961 263.763054 
z
" style="fill:#1f77b4;"/>
   </g>
   <g id="patch_60">
    <path clip-path="url(#p1de8323ec5)" d="M 264.914314 307.584 
L 267.709665 307.584 
L 267.709665 260.303506 
L 264.914314 260.303506 
z
" style="fill:#1f77b4;"/>
   </g>
   <g id="patch_61">
    <path clip-path="url(#p1de8323ec5)" d="M 267.709663 307.584 
L 270.505012 307.584 
L 270.505012 259.726881 
L 267.709663 259.726881 
z
" style="fill:#1f77b4;"/>
   </g>
   <g id="patch_62">
    <path clip-path="url(#p1de8323ec5)" d="M 270.505009 307.584 
L 273.300362 307.584 
L 273.300362 274.141722 
L 270.505009 274.141722 
z
" style="fill:#1f77b4;"/>
   </g>
   <g id="patch_63">
    <path clip-path="url(#p1de8323ec5)" d="M 273.300366 307.584 
L 276.095715 307.584 
L 276.095715 270.682125 
L 273.300366 270.682125 
z
" style="fill:#1f77b4;"/>
   </g>
   <g id="patch_64">
    <path clip-path="url(#p1de8323ec5)" d="M 276.095715 307.584 
L 278.891064 307.584 
L 278.891064 274.141676 
L 276.095715 274.141676 
z
" style="fill:#1f77b4;"/>
   </g>
   <g id="patch_65">
    <path clip-path="url(#p1de8323ec5)" d="M 278.891064 307.584 
L 281.686417 307.584 
L 281.686417 268.952403 
L 278.891064 268.952403 
z
" style="fill:#1f77b4;"/>
   </g>
   <g id="patch_66">
    <path clip-path="url(#p1de8323ec5)" d="M 281.686417 307.584 
L 284.481766 307.584 
L 284.481766 273.565084 
L 281.686417 273.565084 
z
" style="fill:#1f77b4;"/>
   </g>
   <g id="patch_67">
    <path clip-path="url(#p1de8323ec5)" d="M 284.481766 307.584 
L 287.277115 307.584 
L 287.277115 278.177819 
L 284.481766 278.177819 
z
" style="fill:#1f77b4;"/>
   </g>
   <g id="patch_68">
    <path clip-path="url(#p1de8323ec5)" d="M 287.277111 307.584 
L 290.072464 307.584 
L 290.072464 281.060814 
L 287.277111 281.060814 
z
" style="fill:#1f77b4;"/>
   </g>
   <g id="patch_69">
    <path clip-path="url(#p1de8323ec5)" d="M 290.072468 307.584 
L 292.867818 307.584 
L 292.867818 278.75441 
L 290.072468 278.75441 
z
" style="fill:#1f77b4;"/>
   </g>
   <g id="patch_70">
    <path clip-path="url(#p1de8323ec5)" d="M 292.867818 307.584 
L 295.663167 307.584 
L 295.663167 281.060778 
L 292.867818 281.060778 
z
" style="fill:#1f77b4;"/>
   </g>
   <g id="patch_71">
    <path clip-path="url(#p1de8323ec5)" d="M 295.663167 307.584 
L 298.45852 307.584 
L 298.45852 278.177859 
L 295.663167 278.177859 
z
" style="fill:#1f77b4;"/>
   </g>
   <g id="patch_72">
    <path clip-path="url(#p1de8323ec5)" d="M 298.458516 307.584 
L 301.253865 307.584 
L 301.253865 289.709679 
L 298.458516 289.709679 
z
" style="fill:#1f77b4;"/>
   </g>
   <g id="patch_73">
    <path clip-path="url(#p1de8323ec5)" d="M 301.253865 307.584 
L 304.049214 307.584 
L 304.049214 290.862838 
L 301.253865 290.862838 
z
" style="fill:#1f77b4;"/>
   </g>
   <g id="patch_74">
    <path clip-path="url(#p1de8323ec5)" d="M 304.049222 307.584 
L 306.844571 307.584 
L 306.844571 284.520328 
L 304.049222 284.520328 
z
" style="fill:#1f77b4;"/>
   </g>
   <g id="patch_75">
    <path clip-path="url(#p1de8323ec5)" d="M 306.844563 307.584 
L 309.639913 307.584 
L 309.639913 292.016022 
L 306.844563 292.016022 
z
" style="fill:#1f77b4;"/>
   </g>
   <g id="patch_76">
    <path clip-path="url(#p1de8323ec5)" d="M 309.63992 307.584 
L 312.43527 307.584 
L 312.43527 287.403287 
L 309.63992 287.403287 
z
" style="fill:#1f77b4;"/>
   </g>
   <g id="patch_77">
    <path clip-path="url(#p1de8323ec5)" d="M 312.435262 307.584 
L 315.230611 307.584 
L 315.230611 295.475572 
L 312.435262 295.475572 
z
" style="fill:#1f77b4;"/>
   </g>
   <g id="patch_78">
    <path clip-path="url(#p1de8323ec5)" d="M 315.230619 307.584 
L 318.025976 307.584 
L 318.025976 296.052196 
L 315.230619 296.052196 
z
" style="fill:#1f77b4;"/>
   </g>
   <g id="patch_79">
    <path clip-path="url(#p1de8323ec5)" d="M 318.025976 307.584 
L 320.821325 307.584 
L 320.821325 298.358531 
L 318.025976 298.358531 
z
" style="fill:#1f77b4;"/>
   </g>
   <g id="patch_80">
    <path clip-path="url(#p1de8323ec5)" d="M 320.821317 307.584 
L 323.616666 307.584 
L 323.616666 300.664898 
L 320.821317 300.664898 
z
" style="fill:#1f77b4;"/>
   </g>
   <g id="patch_81">
    <path clip-path="url(#p1de8323ec5)" d="M 323.616674 307.584 
L 326.412023 307.584 
L 326.412023 303.547857 
L 323.616674 303.547857 
z
" style="fill:#1f77b4;"/>
   </g>
   <g id="patch_82">
    <path clip-path="url(#p1de8323ec5)" d="M 326.412015 307.584 
L 329.207365 307.584 
L 329.207365 302.394674 
L 326.412015 302.394674 
z
" style="fill:#1f77b4;"/>
   </g>
   <g id="patch_83">
    <path clip-path="url(#p1de8323ec5)" d="M 329.207372 307.584 
L 332.002729 307.584 
L 332.002729 304.124459 
L 329.207372 304.124459 
z
" style="fill:#1f77b4;"/>
   </g>
   <g id="patch_84">
    <path clip-path="url(#p1de8323ec5)" d="M 332.002729 307.584 
L 334.798078 307.584 
L 334.798078 301.818082 
L 332.002729 301.818082 
z
" style="fill:#1f77b4;"/>
   </g>
   <g id="patch_85">
    <path clip-path="url(#p1de8323ec5)" d="M 334.798071 307.584 
L 337.59342 307.584 
L 337.59342 302.394674 
L 334.798071 302.394674 
z
" style="fill:#1f77b4;"/>
   </g>
   <g id="patch_86">
    <path clip-path="url(#p1de8323ec5)" d="M 337.593428 307.584 
L 340.388777 307.584 
L 340.388777 301.24149 
L 337.593428 301.24149 
z
" style="fill:#1f77b4;"/>
   </g>
   <g id="patch_87">
    <path clip-path="url(#p1de8323ec5)" d="M 340.388769 307.584 
L 343.184118 307.584 
L 343.184118 301.24149 
L 340.388769 301.24149 
z
" style="fill:#1f77b4;"/>
   </g>
   <g id="patch_88">
    <path clip-path="url(#p1de8323ec5)" d="M 343.184126 307.584 
L 345.979475 307.584 
L 345.979475 304.701041 
L 343.184126 304.701041 
z
" style="fill:#1f77b4;"/>
   </g>
   <g id="patch_89">
    <path clip-path="url(#p1de8323ec5)" d="M 345.979475 307.584 
L 348.774832 307.584 
L 348.774832 304.124459 
L 345.979475 304.124459 
z
" style="fill:#1f77b4;"/>
   </g>
   <g id="patch_90">
    <path clip-path="url(#p1de8323ec5)" d="M 348.774824 307.584 
L 351.570174 307.584 
L 351.570174 307.007408 
L 348.774824 307.007408 
z
" style="fill:#1f77b4;"/>
   </g>
   <g id="patch_91">
    <path clip-path="url(#p1de8323ec5)" d="M 351.570181 307.584 
L 354.36553 307.584 
L 354.36553 307.584 
L 351.570181 307.584 
z
" style="fill:#1f77b4;"/>
   </g>
   <g id="patch_92">
    <path clip-path="url(#p1de8323ec5)" d="M 354.365523 307.584 
L 357.160872 307.584 
L 357.160872 306.430816 
L 354.365523 306.430816 
z
" style="fill:#1f77b4;"/>
   </g>
   <g id="patch_93">
    <path clip-path="url(#p1de8323ec5)" d="M 357.16088 307.584 
L 359.956229 307.584 
L 359.956229 307.584 
L 357.16088 307.584 
z
" style="fill:#1f77b4;"/>
   </g>
   <g id="patch_94">
    <path clip-path="url(#p1de8323ec5)" d="M 359.956229 307.584 
L 362.751586 307.584 
L 362.751586 305.854229 
L 359.956229 305.854229 
z
" style="fill:#1f77b4;"/>
   </g>
   <g id="patch_95">
    <path clip-path="url(#p1de8323ec5)" d="M 362.751578 307.584 
L 365.546927 307.584 
L 365.546927 305.277633 
L 362.751578 305.277633 
z
" style="fill:#1f77b4;"/>
   </g>
   <g id="patch_96">
    <path clip-path="url(#p1de8323ec5)" d="M 365.546927 307.584 
L 368.342261 307.584 
L 368.342261 305.85422 
L 365.546927 305.85422 
z
" style="fill:#1f77b4;"/>
   </g>
   <g id="patch_97">
    <path clip-path="url(#p1de8323ec5)" d="M 368.342276 307.584 
L 371.137633 307.584 
L 371.137633 307.584 
L 368.342276 307.584 
z
" style="fill:#1f77b4;"/>
   </g>
   <g id="patch_98">
    <path clip-path="url(#p1de8323ec5)" d="M 371.137633 307.584 
L 373.93299 307.584 
L 373.93299 307.00741 
L 371.137633 307.00741 
z
" style="fill:#1f77b4;"/>
   </g>
   <g id="patch_99">
    <path clip-path="url(#p1de8323ec5)" d="M 373.933006 307.584 
L 376.728347 307.584 
L 376.728347 307.584 
L 373.933006 307.584 
z
" style="fill:#1f77b4;"/>
   </g>
   <g id="patch_100">
    <path clip-path="url(#p1de8323ec5)" d="M 376.728332 307.584 
L 379.523689 307.584 
L 379.523689 306.43082 
L 376.728332 306.43082 
z
" style="fill:#1f77b4;"/>
   </g>
   <g id="patch_101">
    <path clip-path="url(#p1de8323ec5)" d="M 379.523689 307.584 
L 382.31903 307.584 
L 382.31903 307.584 
L 379.523689 307.584 
z
" style="fill:#1f77b4;"/>
   </g>
   <g id="patch_102">
    <path clip-path="url(#p1de8323ec5)" d="M 382.31903 307.584 
L 385.114387 307.584 
L 385.114387 304.701049 
L 382.31903 304.701049 
z
" style="fill:#1f77b4;"/>
   </g>
   <g id="matplotlib.axis_1">
    <g id="xtick_1">
     <g id="line2d_1">
      <defs>
       <path d="M 0 0 
L 0 3.5 
" id="m037c65606a" style="stroke:#000000;stroke-width:0.8;"/>
      </defs>
      <g>
       <use style="stroke:#000000;stroke-width:0.8;" x="106.300346" xlink:href="#m037c65606a" y="307.584"/>
      </g>
     </g>
     <g id="text_1">
      <!-- −2 -->
      <defs>
       <path d="M 10.59375 35.5 
L 73.1875 35.5 
L 73.1875 27.203125 
L 10.59375 27.203125 
z
" id="DejaVuSans-8722"/>
       <path d="M 19.1875 8.296875 
L 53.609375 8.296875 
L 53.609375 0 
L 7.328125 0 
L 7.328125 8.296875 
Q 12.9375 14.109375 22.625 23.890625 
Q 32.328125 33.6875 34.8125 36.53125 
Q 39.546875 41.84375 41.421875 45.53125 
Q 43.3125 49.21875 43.3125 52.78125 
Q 43.3125 58.59375 39.234375 62.25 
Q 35.15625 65.921875 28.609375 65.921875 
Q 23.96875 65.921875 18.8125 64.3125 
Q 13.671875 62.703125 7.8125 59.421875 
L 7.8125 69.390625 
Q 13.765625 71.78125 18.9375 73 
Q 24.125 74.21875 28.421875 74.21875 
Q 39.75 74.21875 46.484375 68.546875 
Q 53.21875 62.890625 53.21875 53.421875 
Q 53.21875 48.921875 51.53125 44.890625 
Q 49.859375 40.875 45.40625 35.40625 
Q 44.1875 33.984375 37.640625 27.21875 
Q 31.109375 20.453125 19.1875 8.296875 
z
" id="DejaVuSans-50"/>
      </defs>
      <g transform="translate(93.769487 327.501344)scale(0.17 -0.17)">
       <use xlink:href="#DejaVuSans-8722"/>
       <use x="83.789062" xlink:href="#DejaVuSans-50"/>
      </g>
     </g>
    </g>
    <g id="xtick_2">
     <g id="line2d_2">
      <g>
       <use style="stroke:#000000;stroke-width:0.8;" x="171.235584" xlink:href="#m037c65606a" y="307.584"/>
      </g>
     </g>
     <g id="text_2">
      <!-- −1 -->
      <defs>
       <path d="M 12.40625 8.296875 
L 28.515625 8.296875 
L 28.515625 63.921875 
L 10.984375 60.40625 
L 10.984375 69.390625 
L 28.421875 72.90625 
L 38.28125 72.90625 
L 38.28125 8.296875 
L 54.390625 8.296875 
L 54.390625 0 
L 12.40625 0 
z
" id="DejaVuSans-49"/>
      </defs>
      <g transform="translate(158.704725 327.501344)scale(0.17 -0.17)">
       <use xlink:href="#DejaVuSans-8722"/>
       <use x="83.789062" xlink:href="#DejaVuSans-49"/>
      </g>
     </g>
    </g>
    <g id="xtick_3">
     <g id="line2d_3">
      <g>
       <use style="stroke:#000000;stroke-width:0.8;" x="236.170823" xlink:href="#m037c65606a" y="307.584"/>
      </g>
     </g>
     <g id="text_3">
      <!-- 0 -->
      <defs>
       <path d="M 31.78125 66.40625 
Q 24.171875 66.40625 20.328125 58.90625 
Q 16.5 51.421875 16.5 36.375 
Q 16.5 21.390625 20.328125 13.890625 
Q 24.171875 6.390625 31.78125 6.390625 
Q 39.453125 6.390625 43.28125 13.890625 
Q 47.125 21.390625 47.125 36.375 
Q 47.125 51.421875 43.28125 58.90625 
Q 39.453125 66.40625 31.78125 66.40625 
z
M 31.78125 74.21875 
Q 44.046875 74.21875 50.515625 64.515625 
Q 56.984375 54.828125 56.984375 36.375 
Q 56.984375 17.96875 50.515625 8.265625 
Q 44.046875 -1.421875 31.78125 -1.421875 
Q 19.53125 -1.421875 13.0625 8.265625 
Q 6.59375 17.96875 6.59375 36.375 
Q 6.59375 54.828125 13.0625 64.515625 
Q 19.53125 74.21875 31.78125 74.21875 
z
" id="DejaVuSans-48"/>
      </defs>
      <g transform="translate(230.762698 327.501344)scale(0.17 -0.17)">
       <use xlink:href="#DejaVuSans-48"/>
      </g>
     </g>
    </g>
    <g id="xtick_4">
     <g id="line2d_4">
      <g>
       <use style="stroke:#000000;stroke-width:0.8;" x="301.106061" xlink:href="#m037c65606a" y="307.584"/>
      </g>
     </g>
     <g id="text_4">
      <!-- 1 -->
      <g transform="translate(295.697936 327.501344)scale(0.17 -0.17)">
       <use xlink:href="#DejaVuSans-49"/>
      </g>
     </g>
    </g>
    <g id="xtick_5">
     <g id="line2d_5">
      <g>
       <use style="stroke:#000000;stroke-width:0.8;" x="366.041299" xlink:href="#m037c65606a" y="307.584"/>
      </g>
     </g>
     <g id="text_5">
      <!-- 2 -->
      <g transform="translate(360.633174 327.501344)scale(0.17 -0.17)">
       <use xlink:href="#DejaVuSans-50"/>
      </g>
     </g>
    </g>
    <g id="text_6">
     <!-- Position in Radian -->
     <defs>
      <path d="M 19.671875 64.796875 
L 19.671875 37.40625 
L 32.078125 37.40625 
Q 38.96875 37.40625 42.71875 40.96875 
Q 46.484375 44.53125 46.484375 51.125 
Q 46.484375 57.671875 42.71875 61.234375 
Q 38.96875 64.796875 32.078125 64.796875 
z
M 9.8125 72.90625 
L 32.078125 72.90625 
Q 44.34375 72.90625 50.609375 67.359375 
Q 56.890625 61.8125 56.890625 51.125 
Q 56.890625 40.328125 50.609375 34.8125 
Q 44.34375 29.296875 32.078125 29.296875 
L 19.671875 29.296875 
L 19.671875 0 
L 9.8125 0 
z
" id="DejaVuSans-80"/>
      <path d="M 30.609375 48.390625 
Q 23.390625 48.390625 19.1875 42.75 
Q 14.984375 37.109375 14.984375 27.296875 
Q 14.984375 17.484375 19.15625 11.84375 
Q 23.34375 6.203125 30.609375 6.203125 
Q 37.796875 6.203125 41.984375 11.859375 
Q 46.1875 17.53125 46.1875 27.296875 
Q 46.1875 37.015625 41.984375 42.703125 
Q 37.796875 48.390625 30.609375 48.390625 
z
M 30.609375 56 
Q 42.328125 56 49.015625 48.375 
Q 55.71875 40.765625 55.71875 27.296875 
Q 55.71875 13.875 49.015625 6.21875 
Q 42.328125 -1.421875 30.609375 -1.421875 
Q 18.84375 -1.421875 12.171875 6.21875 
Q 5.515625 13.875 5.515625 27.296875 
Q 5.515625 40.765625 12.171875 48.375 
Q 18.84375 56 30.609375 56 
z
" id="DejaVuSans-111"/>
      <path d="M 44.28125 53.078125 
L 44.28125 44.578125 
Q 40.484375 46.53125 36.375 47.5 
Q 32.28125 48.484375 27.875 48.484375 
Q 21.1875 48.484375 17.84375 46.4375 
Q 14.5 44.390625 14.5 40.28125 
Q 14.5 37.15625 16.890625 35.375 
Q 19.28125 33.59375 26.515625 31.984375 
L 29.59375 31.296875 
Q 39.15625 29.25 43.1875 25.515625 
Q 47.21875 21.78125 47.21875 15.09375 
Q 47.21875 7.46875 41.1875 3.015625 
Q 35.15625 -1.421875 24.609375 -1.421875 
Q 20.21875 -1.421875 15.453125 -0.5625 
Q 10.6875 0.296875 5.421875 2 
L 5.421875 11.28125 
Q 10.40625 8.6875 15.234375 7.390625 
Q 20.0625 6.109375 24.8125 6.109375 
Q 31.15625 6.109375 34.5625 8.28125 
Q 37.984375 10.453125 37.984375 14.40625 
Q 37.984375 18.0625 35.515625 20.015625 
Q 33.0625 21.96875 24.703125 23.78125 
L 21.578125 24.515625 
Q 13.234375 26.265625 9.515625 29.90625 
Q 5.8125 33.546875 5.8125 39.890625 
Q 5.8125 47.609375 11.28125 51.796875 
Q 16.75 56 26.8125 56 
Q 31.78125 56 36.171875 55.265625 
Q 40.578125 54.546875 44.28125 53.078125 
z
" id="DejaVuSans-115"/>
      <path d="M 9.421875 54.6875 
L 18.40625 54.6875 
L 18.40625 0 
L 9.421875 0 
z
M 9.421875 75.984375 
L 18.40625 75.984375 
L 18.40625 64.59375 
L 9.421875 64.59375 
z
" id="DejaVuSans-105"/>
      <path d="M 18.3125 70.21875 
L 18.3125 54.6875 
L 36.8125 54.6875 
L 36.8125 47.703125 
L 18.3125 47.703125 
L 18.3125 18.015625 
Q 18.3125 11.328125 20.140625 9.421875 
Q 21.96875 7.515625 27.59375 7.515625 
L 36.8125 7.515625 
L 36.8125 0 
L 27.59375 0 
Q 17.1875 0 13.234375 3.875 
Q 9.28125 7.765625 9.28125 18.015625 
L 9.28125 47.703125 
L 2.6875 47.703125 
L 2.6875 54.6875 
L 9.28125 54.6875 
L 9.28125 70.21875 
z
" id="DejaVuSans-116"/>
      <path d="M 54.890625 33.015625 
L 54.890625 0 
L 45.90625 0 
L 45.90625 32.71875 
Q 45.90625 40.484375 42.875 44.328125 
Q 39.84375 48.1875 33.796875 48.1875 
Q 26.515625 48.1875 22.3125 43.546875 
Q 18.109375 38.921875 18.109375 30.90625 
L 18.109375 0 
L 9.078125 0 
L 9.078125 54.6875 
L 18.109375 54.6875 
L 18.109375 46.1875 
Q 21.34375 51.125 25.703125 53.5625 
Q 30.078125 56 35.796875 56 
Q 45.21875 56 50.046875 50.171875 
Q 54.890625 44.34375 54.890625 33.015625 
z
" id="DejaVuSans-110"/>
      <path id="DejaVuSans-32"/>
      <path d="M 44.390625 34.1875 
Q 47.5625 33.109375 50.5625 29.59375 
Q 53.5625 26.078125 56.59375 19.921875 
L 66.609375 0 
L 56 0 
L 46.6875 18.703125 
Q 43.0625 26.03125 39.671875 28.421875 
Q 36.28125 30.8125 30.421875 30.8125 
L 19.671875 30.8125 
L 19.671875 0 
L 9.8125 0 
L 9.8125 72.90625 
L 32.078125 72.90625 
Q 44.578125 72.90625 50.734375 67.671875 
Q 56.890625 62.453125 56.890625 51.90625 
Q 56.890625 45.015625 53.6875 40.46875 
Q 50.484375 35.9375 44.390625 34.1875 
z
M 19.671875 64.796875 
L 19.671875 38.921875 
L 32.078125 38.921875 
Q 39.203125 38.921875 42.84375 42.21875 
Q 46.484375 45.515625 46.484375 51.90625 
Q 46.484375 58.296875 42.84375 61.546875 
Q 39.203125 64.796875 32.078125 64.796875 
z
" id="DejaVuSans-82"/>
      <path d="M 34.28125 27.484375 
Q 23.390625 27.484375 19.1875 25 
Q 14.984375 22.515625 14.984375 16.5 
Q 14.984375 11.71875 18.140625 8.90625 
Q 21.296875 6.109375 26.703125 6.109375 
Q 34.1875 6.109375 38.703125 11.40625 
Q 43.21875 16.703125 43.21875 25.484375 
L 43.21875 27.484375 
z
M 52.203125 31.203125 
L 52.203125 0 
L 43.21875 0 
L 43.21875 8.296875 
Q 40.140625 3.328125 35.546875 0.953125 
Q 30.953125 -1.421875 24.3125 -1.421875 
Q 15.921875 -1.421875 10.953125 3.296875 
Q 6 8.015625 6 15.921875 
Q 6 25.140625 12.171875 29.828125 
Q 18.359375 34.515625 30.609375 34.515625 
L 43.21875 34.515625 
L 43.21875 35.40625 
Q 43.21875 41.609375 39.140625 45 
Q 35.0625 48.390625 27.6875 48.390625 
Q 23 48.390625 18.546875 47.265625 
Q 14.109375 46.140625 10.015625 43.890625 
L 10.015625 52.203125 
Q 14.9375 54.109375 19.578125 55.046875 
Q 24.21875 56 28.609375 56 
Q 40.484375 56 46.34375 49.84375 
Q 52.203125 43.703125 52.203125 31.203125 
z
" id="DejaVuSans-97"/>
      <path d="M 45.40625 46.390625 
L 45.40625 75.984375 
L 54.390625 75.984375 
L 54.390625 0 
L 45.40625 0 
L 45.40625 8.203125 
Q 42.578125 3.328125 38.25 0.953125 
Q 33.9375 -1.421875 27.875 -1.421875 
Q 17.96875 -1.421875 11.734375 6.484375 
Q 5.515625 14.40625 5.515625 27.296875 
Q 5.515625 40.1875 11.734375 48.09375 
Q 17.96875 56 27.875 56 
Q 33.9375 56 38.25 53.625 
Q 42.578125 51.265625 45.40625 46.390625 
z
M 14.796875 27.296875 
Q 14.796875 17.390625 18.875 11.75 
Q 22.953125 6.109375 30.078125 6.109375 
Q 37.203125 6.109375 41.296875 11.75 
Q 45.40625 17.390625 45.40625 27.296875 
Q 45.40625 37.203125 41.296875 42.84375 
Q 37.203125 48.484375 30.078125 48.484375 
Q 22.953125 48.484375 18.875 42.84375 
Q 14.796875 37.203125 14.796875 27.296875 
z
" id="DejaVuSans-100"/>
     </defs>
     <g transform="translate(102.024844 357.832125)scale(0.3 -0.3)">
      <use xlink:href="#DejaVuSans-80"/>
      <use x="60.255859" xlink:href="#DejaVuSans-111"/>
      <use x="121.4375" xlink:href="#DejaVuSans-115"/>
      <use x="173.537109" xlink:href="#DejaVuSans-105"/>
      <use x="201.320312" xlink:href="#DejaVuSans-116"/>
      <use x="240.529297" xlink:href="#DejaVuSans-105"/>
      <use x="268.3125" xlink:href="#DejaVuSans-111"/>
      <use x="329.494141" xlink:href="#DejaVuSans-110"/>
      <use x="392.873047" xlink:href="#DejaVuSans-32"/>
      <use x="424.660156" xlink:href="#DejaVuSans-105"/>
      <use x="452.443359" xlink:href="#DejaVuSans-110"/>
      <use x="515.822266" xlink:href="#DejaVuSans-32"/>
      <use x="547.609375" xlink:href="#DejaVuSans-82"/>
      <use x="617.060547" xlink:href="#DejaVuSans-97"/>
      <use x="678.339844" xlink:href="#DejaVuSans-100"/>
      <use x="741.816406" xlink:href="#DejaVuSans-105"/>
      <use x="769.599609" xlink:href="#DejaVuSans-97"/>
      <use x="830.878906" xlink:href="#DejaVuSans-110"/>
     </g>
    </g>
   </g>
   <g id="matplotlib.axis_2">
    <g id="ytick_1">
     <g id="line2d_6">
      <defs>
       <path d="M 0 0 
L -3.5 0 
" id="m4f99073531" style="stroke:#000000;stroke-width:0.8;"/>
      </defs>
      <g>
       <use style="stroke:#000000;stroke-width:0.8;" x="57.6" xlink:href="#m4f99073531" y="307.584"/>
      </g>
     </g>
     <g id="text_7">
      <!-- 0.00 -->
      <defs>
       <path d="M 10.6875 12.40625 
L 21 12.40625 
L 21 0 
L 10.6875 0 
z
" id="DejaVuSans-46"/>
      </defs>
      <g transform="translate(12.748438 314.042672)scale(0.17 -0.17)">
       <use xlink:href="#DejaVuSans-48"/>
       <use x="63.623047" xlink:href="#DejaVuSans-46"/>
       <use x="95.410156" xlink:href="#DejaVuSans-48"/>
       <use x="159.033203" xlink:href="#DejaVuSans-48"/>
      </g>
     </g>
    </g>
    <g id="ytick_2">
     <g id="line2d_7">
      <g>
       <use style="stroke:#000000;stroke-width:0.8;" x="57.6" xlink:href="#m4f99073531" y="261.04411"/>
      </g>
     </g>
     <g id="text_8">
      <!-- 0.25 -->
      <defs>
       <path d="M 10.796875 72.90625 
L 49.515625 72.90625 
L 49.515625 64.59375 
L 19.828125 64.59375 
L 19.828125 46.734375 
Q 21.96875 47.46875 24.109375 47.828125 
Q 26.265625 48.1875 28.421875 48.1875 
Q 40.625 48.1875 47.75 41.5 
Q 54.890625 34.8125 54.890625 23.390625 
Q 54.890625 11.625 47.5625 5.09375 
Q 40.234375 -1.421875 26.90625 -1.421875 
Q 22.3125 -1.421875 17.546875 -0.640625 
Q 12.796875 0.140625 7.71875 1.703125 
L 7.71875 11.625 
Q 12.109375 9.234375 16.796875 8.0625 
Q 21.484375 6.890625 26.703125 6.890625 
Q 35.15625 6.890625 40.078125 11.328125 
Q 45.015625 15.765625 45.015625 23.390625 
Q 45.015625 31 40.078125 35.4375 
Q 35.15625 39.890625 26.703125 39.890625 
Q 22.75 39.890625 18.8125 39.015625 
Q 14.890625 38.140625 10.796875 36.28125 
z
" id="DejaVuSans-53"/>
      </defs>
      <g transform="translate(12.748438 267.502781)scale(0.17 -0.17)">
       <use xlink:href="#DejaVuSans-48"/>
       <use x="63.623047" xlink:href="#DejaVuSans-46"/>
       <use x="95.410156" xlink:href="#DejaVuSans-50"/>
       <use x="159.033203" xlink:href="#DejaVuSans-53"/>
      </g>
     </g>
    </g>
    <g id="ytick_3">
     <g id="line2d_8">
      <g>
       <use style="stroke:#000000;stroke-width:0.8;" x="57.6" xlink:href="#m4f99073531" y="214.504219"/>
      </g>
     </g>
     <g id="text_9">
      <!-- 0.50 -->
      <g transform="translate(12.748438 220.962891)scale(0.17 -0.17)">
       <use xlink:href="#DejaVuSans-48"/>
       <use x="63.623047" xlink:href="#DejaVuSans-46"/>
       <use x="95.410156" xlink:href="#DejaVuSans-53"/>
       <use x="159.033203" xlink:href="#DejaVuSans-48"/>
      </g>
     </g>
    </g>
    <g id="ytick_4">
     <g id="line2d_9">
      <g>
       <use style="stroke:#000000;stroke-width:0.8;" x="57.6" xlink:href="#m4f99073531" y="167.964329"/>
      </g>
     </g>
     <g id="text_10">
      <!-- 0.75 -->
      <defs>
       <path d="M 8.203125 72.90625 
L 55.078125 72.90625 
L 55.078125 68.703125 
L 28.609375 0 
L 18.3125 0 
L 43.21875 64.59375 
L 8.203125 64.59375 
z
" id="DejaVuSans-55"/>
      </defs>
      <g transform="translate(12.748438 174.423)scale(0.17 -0.17)">
       <use xlink:href="#DejaVuSans-48"/>
       <use x="63.623047" xlink:href="#DejaVuSans-46"/>
       <use x="95.410156" xlink:href="#DejaVuSans-55"/>
       <use x="159.033203" xlink:href="#DejaVuSans-53"/>
      </g>
     </g>
    </g>
    <g id="ytick_5">
     <g id="line2d_10">
      <g>
       <use style="stroke:#000000;stroke-width:0.8;" x="57.6" xlink:href="#m4f99073531" y="121.424438"/>
      </g>
     </g>
     <g id="text_11">
      <!-- 1.00 -->
      <g transform="translate(12.748438 127.88311)scale(0.17 -0.17)">
       <use xlink:href="#DejaVuSans-49"/>
       <use x="63.623047" xlink:href="#DejaVuSans-46"/>
       <use x="95.410156" xlink:href="#DejaVuSans-48"/>
       <use x="159.033203" xlink:href="#DejaVuSans-48"/>
      </g>
     </g>
    </g>
    <g id="ytick_6">
     <g id="line2d_11">
      <g>
       <use style="stroke:#000000;stroke-width:0.8;" x="57.6" xlink:href="#m4f99073531" y="74.884548"/>
      </g>
     </g>
     <g id="text_12">
      <!-- 1.25 -->
      <g transform="translate(12.748438 81.34322)scale(0.17 -0.17)">
       <use xlink:href="#DejaVuSans-49"/>
       <use x="63.623047" xlink:href="#DejaVuSans-46"/>
       <use x="95.410156" xlink:href="#DejaVuSans-50"/>
       <use x="159.033203" xlink:href="#DejaVuSans-53"/>
      </g>
     </g>
    </g>
    <g id="text_13">
     <!-- Density -->
     <defs>
      <path d="M 19.671875 64.796875 
L 19.671875 8.109375 
L 31.59375 8.109375 
Q 46.6875 8.109375 53.6875 14.9375 
Q 60.6875 21.78125 60.6875 36.53125 
Q 60.6875 51.171875 53.6875 57.984375 
Q 46.6875 64.796875 31.59375 64.796875 
z
M 9.8125 72.90625 
L 30.078125 72.90625 
Q 51.265625 72.90625 61.171875 64.09375 
Q 71.09375 55.28125 71.09375 36.53125 
Q 71.09375 17.671875 61.125 8.828125 
Q 51.171875 0 30.078125 0 
L 9.8125 0 
z
" id="DejaVuSans-68"/>
      <path d="M 56.203125 29.59375 
L 56.203125 25.203125 
L 14.890625 25.203125 
Q 15.484375 15.921875 20.484375 11.0625 
Q 25.484375 6.203125 34.421875 6.203125 
Q 39.59375 6.203125 44.453125 7.46875 
Q 49.3125 8.734375 54.109375 11.28125 
L 54.109375 2.78125 
Q 49.265625 0.734375 44.1875 -0.34375 
Q 39.109375 -1.421875 33.890625 -1.421875 
Q 20.796875 -1.421875 13.15625 6.1875 
Q 5.515625 13.8125 5.515625 26.8125 
Q 5.515625 40.234375 12.765625 48.109375 
Q 20.015625 56 32.328125 56 
Q 43.359375 56 49.78125 48.890625 
Q 56.203125 41.796875 56.203125 29.59375 
z
M 47.21875 32.234375 
Q 47.125 39.59375 43.09375 43.984375 
Q 39.0625 48.390625 32.421875 48.390625 
Q 24.90625 48.390625 20.390625 44.140625 
Q 15.875 39.890625 15.1875 32.171875 
z
" id="DejaVuSans-101"/>
      <path d="M 32.171875 -5.078125 
Q 28.375 -14.84375 24.75 -17.8125 
Q 21.140625 -20.796875 15.09375 -20.796875 
L 7.90625 -20.796875 
L 7.90625 -13.28125 
L 13.1875 -13.28125 
Q 16.890625 -13.28125 18.9375 -11.515625 
Q 21 -9.765625 23.484375 -3.21875 
L 25.09375 0.875 
L 2.984375 54.6875 
L 12.5 54.6875 
L 29.59375 11.921875 
L 46.6875 54.6875 
L 56.203125 54.6875 
z
" id="DejaVuSans-121"/>
     </defs>
     <g transform="translate(2.509375 231.553781)rotate(-90)scale(0.3 -0.3)">
      <use xlink:href="#DejaVuSans-68"/>
      <use x="77.001953" xlink:href="#DejaVuSans-101"/>
      <use x="138.525391" xlink:href="#DejaVuSans-110"/>
      <use x="201.904297" xlink:href="#DejaVuSans-115"/>
      <use x="254.003906" xlink:href="#DejaVuSans-105"/>
      <use x="281.787109" xlink:href="#DejaVuSans-116"/>
      <use x="320.996094" xlink:href="#DejaVuSans-121"/>
     </g>
    </g>
   </g>
   <g id="line2d_12">
    <path clip-path="url(#p1de8323ec5)" d="M 73.832727 307.584 
L 104.200774 307.477248 
L 104.65532 307.200462 
L 105.261383 306.508965 
L 105.80251 306.027903 
L 106.148831 306.001961 
L 106.516797 306.223454 
L 107.33931 306.804402 
L 107.707276 306.723457 
L 108.291694 306.577664 
L 108.65966 306.75925 
L 109.244077 307.059052 
L 109.525463 306.932771 
L 109.871784 306.469463 
L 110.542782 305.529478 
L 110.802523 305.51327 
L 111.711616 305.74623 
L 112.166163 305.30297 
L 112.664 304.94508 
L 113.378287 304.605963 
L 113.767899 303.973362 
L 114.179155 303.435724 
L 114.373961 303.479763 
L 114.612057 303.833614 
L 115.369635 305.156433 
L 115.60773 305.130873 
L 116.581759 304.744704 
L 117.122886 304.734476 
L 117.425917 304.465973 
L 117.793883 303.770433 
L 118.681332 301.91616 
L 118.962718 301.840768 
L 120.499518 302.225467 
L 121.278741 303.168691 
L 121.451902 302.95376 
L 121.733288 302.162675 
L 122.404285 300.180312 
L 122.642381 300.047576 
L 123.183508 299.968169 
L 123.399959 299.447396 
L 123.70299 298.003566 
L 124.547148 293.601112 
L 124.828534 293.189067 
L 125.02334 293.216496 
L 125.239791 293.519772 
L 125.542822 294.425046 
L 126.148884 297.241535 
L 126.668366 299.079782 
L 127.101268 299.871907 
L 127.425944 300.076869 
L 127.66404 299.979293 
L 128.594778 299.333505 
L 129.417291 299.736538 
L 129.655387 299.393031 
L 130.023353 298.388096 
L 131.062317 295.28864 
L 131.322058 295.123189 
L 131.560154 295.237839 
L 132.231151 295.699651 
L 132.425957 295.466856 
L 132.707343 294.692178 
L 133.551501 292.029123 
L 133.724662 292.050021 
L 133.941113 292.377254 
L 134.395659 293.093109 
L 134.52553 293.01061 
L 134.69869 292.565249 
L 134.958431 291.152 
L 135.456268 286.844033 
L 135.954105 283.234376 
L 136.192201 282.660206 
L 136.300426 282.712503 
L 136.451942 283.105547 
L 136.711683 284.505645 
L 137.945452 292.249337 
L 138.335064 293.141757 
L 138.65974 293.423762 
L 138.984416 293.408522 
L 139.395673 293.147596 
L 139.698704 292.676885 
L 140.001735 291.697758 
L 140.434636 289.353801 
L 141.733341 281.997771 
L 142.231178 279.848861 
L 142.404339 279.696075 
L 142.425984 279.70922 
L 142.555854 279.950783 
L 142.772305 280.967259 
L 143.183562 284.31408 
L 143.638108 287.378198 
L 143.854559 287.793959 
L 143.98443 287.697091 
L 144.179235 287.158917 
L 144.547202 285.342515 
L 145.261489 280.533259 
L 145.737681 277.856507 
L 145.932487 277.599378 
L 146.040712 277.755502 
L 146.235518 278.572597 
L 146.581839 281.29369 
L 147.296127 286.929373 
L 147.599158 287.877508 
L 147.772318 287.942138 
L 147.923834 287.721018 
L 148.16193 286.894331 
L 148.616476 284.277809 
L 149.027733 282.416126 
L 149.179249 282.313173 
L 149.309119 282.575482 
L 149.503925 283.598841 
L 149.850246 286.878891 
L 150.391373 291.718187 
L 150.564534 292.047537 
L 150.672759 291.815271 
L 150.84592 290.742051 
L 151.148951 287.175264 
L 151.863238 278.490872 
L 152.036399 278.048812 
L 152.058044 278.056909 
L 152.16627 278.299107 
L 152.361075 279.471605 
L 153.205233 285.48981 
L 153.313459 285.32901 
L 153.486619 284.508791 
L 153.854586 281.335912 
L 154.352423 277.585884 
L 154.677099 276.586577 
L 155.02342 275.629947 
L 155.283161 274.025399 
L 155.651127 270.062295 
L 156.278835 263.457375 
L 156.495285 262.931112 
L 156.603511 263.125004 
L 156.798316 264.15713 
L 157.231218 268.179266 
L 157.685765 271.575591 
L 158.010441 272.551414 
L 158.291827 272.811135 
L 158.508278 272.77459 
L 158.703083 272.502275 
L 158.941179 271.738111 
L 159.309146 269.657539 
L 160.131659 263.453337 
L 160.629496 257.799565 
L 161.538589 247.192355 
L 161.84162 245.796918 
L 162.036426 245.621019 
L 162.209586 245.795046 
L 162.815649 247.004881 
L 163.11868 247.945927 
L 163.400066 249.687999 
L 163.876257 254.416832 
L 164.374094 258.490069 
L 164.61219 259.126742 
L 164.720416 259.085905 
L 164.871931 258.695605 
L 165.131672 257.256059 
L 166.040765 251.536427 
L 166.257216 251.360268 
L 166.516957 251.515535 
L 166.776698 251.586474 
L 166.971504 251.39836 
L 167.274535 250.700884 
L 167.685791 249.157167 
L 168.010468 247.011906 
L 168.378434 242.836909 
L 169.244237 232.331262 
L 169.568913 230.90007 
L 169.850299 230.452001 
L 170.045105 230.46179 
L 170.239911 230.765929 
L 170.542942 231.782282 
L 170.932553 232.875884 
L 171.040779 232.775928 
L 171.192294 232.140933 
L 171.43039 229.852953 
L 171.906582 222.201027 
L 172.296193 217.476114 
L 172.490999 216.841519 
L 172.577579 216.931374 
L 172.75074 217.607929 
L 173.226932 219.545476 
L 173.313512 219.438101 
L 173.465028 218.773969 
L 173.789704 215.991062 
L 174.136025 213.696192 
L 174.222605 213.595581 
L 174.265896 213.630531 
L 174.395766 214.058874 
L 174.655507 215.955771 
L 175.066763 218.609241 
L 175.174989 218.703804 
L 175.196634 218.685767 
L 175.326504 218.341797 
L 175.651181 216.483595 
L 175.910922 215.553803 
L 175.997502 215.613826 
L 176.127372 216.125476 
L 176.365468 218.229677 
L 176.97153 223.876559 
L 177.036466 223.938445 
L 177.079756 223.893501 
L 177.209626 223.350939 
L 177.447722 220.99258 
L 178.616556 207.172805 
L 178.876297 206.212167 
L 178.962878 206.226017 
L 178.984523 206.260507 
L 179.114393 206.744171 
L 179.330844 208.593136 
L 180.196647 217.63141 
L 180.218292 217.629473 
L 180.304873 217.460634 
L 180.478033 216.425362 
L 180.867645 212.153689 
L 181.365482 207.588568 
L 181.820028 205.60557 
L 182.772412 202.00527 
L 182.815702 202.028966 
L 182.988863 202.333635 
L 183.443409 203.222853 
L 183.57328 203.064426 
L 183.78973 202.27228 
L 184.417438 199.665658 
L 184.547308 199.725538 
L 184.698824 200.172209 
L 184.958565 201.835639 
L 185.348176 206.06705 
L 186.755106 222.976289 
L 187.014847 223.61216 
L 187.166363 223.594562 
L 187.404459 223.259108 
L 188.789744 220.912323 
L 188.941259 221.125265 
L 189.15771 221.880077 
L 189.504031 224.085269 
L 190.456415 232.372105 
L 191.517024 240.766131 
L 191.625249 240.860448 
L 191.646894 240.836602 
L 191.75512 240.477321 
L 191.92828 238.985978 
L 192.188021 234.550248 
L 192.707503 220.697238 
L 193.20534 210.082785 
L 193.486726 207.896294 
L 193.594951 207.779285 
L 193.616597 207.797558 
L 193.746467 208.161201 
L 193.984563 209.692868 
L 195.175042 218.650384 
L 195.499718 219.400259 
L 195.672879 219.434339 
L 195.824395 219.159857 
L 196.0192 218.258156 
L 196.300586 215.756243 
L 197.16639 207.214555 
L 197.29626 207.094727 
L 197.317905 207.114337 
L 197.447776 207.450138 
L 197.685871 208.838124 
L 198.443449 213.662431 
L 198.70319 214.035609 
L 199.179382 214.341739 
L 199.417478 215.051788 
L 199.828734 217.222109 
L 200.218346 218.793415 
L 200.326571 218.830573 
L 200.348216 218.80973 
L 200.478087 218.475783 
L 200.694537 217.150103 
L 201.603631 210.515006 
L 201.711856 210.58577 
L 201.928307 211.144132 
L 202.252983 211.804552 
L 202.361209 211.698615 
L 202.534369 211.096487 
L 203.162077 208.120974 
L 203.205367 208.171006 
L 203.335237 208.704582 
L 203.551688 210.945406 
L 203.898009 217.512258 
L 204.677232 232.874073 
L 204.893683 233.87007 
L 204.980263 233.65611 
L 205.131779 232.462591 
L 205.413165 228.051222 
L 206.040872 217.94689 
L 206.214033 217.3711 
L 206.235678 217.387416 
L 206.343903 217.744216 
L 206.560354 219.614883 
L 207.620963 230.879319 
L 207.729188 230.948873 
L 207.750833 230.927382 
L 207.880704 230.550501 
L 208.097155 229.034226 
L 208.984603 221.019467 
L 209.027893 221.044264 
L 209.136118 221.374981 
L 209.352569 223.042212 
L 210.045212 229.128809 
L 210.131792 229.041228 
L 210.261663 228.370201 
L 210.499758 225.651002 
L 211.343917 214.745787 
L 211.560367 214.27957 
L 211.820108 214.295104 
L 211.971624 214.177154 
L 212.16643 213.621941 
L 212.469461 211.893385 
L 213.443489 206.003241 
L 213.78981 203.042166 
L 214.222712 197.000907 
L 214.958645 186.668785 
L 215.218386 185.586718 
L 215.326611 185.623181 
L 215.478127 186.076266 
L 215.759513 187.804601 
L 216.452155 193.932751 
L 217.469474 202.640385 
L 217.988956 204.723646 
L 218.356922 206.716838 
L 218.941339 209.866399 
L 219.07121 209.956607 
L 219.092855 209.940148 
L 219.222725 209.648737 
L 219.439176 208.438238 
L 219.742207 205.235404 
L 220.131819 198.355988 
L 221.279008 175.540581 
L 221.495459 174.807512 
L 221.582039 174.931 
L 221.733555 175.693271 
L 221.97165 178.237126 
L 222.317972 184.617198 
L 223.313645 204.65759 
L 223.530096 205.553891 
L 223.638322 205.510993 
L 223.811482 204.988656 
L 224.244384 202.675048 
L 224.61235 199.761354 
L 224.980317 194.670991 
L 225.629669 185.56181 
L 225.759539 185.252036 
L 225.781184 185.27062 
L 225.88941 185.654372 
L 226.084216 187.407868 
L 227.079889 198.22345 
L 227.25305 198.388317 
L 227.404565 198.178284 
L 227.988983 196.874915 
L 228.053918 196.936816 
L 228.205433 197.430888 
L 228.421884 199.122893 
L 228.768205 204.016521 
L 229.374268 212.335954 
L 229.612363 213.302442 
L 229.720589 213.305706 
L 229.742234 213.28085 
L 229.915395 212.859335 
L 230.369941 210.935044 
L 230.694617 208.814235 
L 230.997649 205.112484 
L 231.43055 196.356818 
L 231.971677 186.426067 
L 232.209773 184.978515 
L 232.296353 184.93192 
L 232.317998 184.954523 
L 232.447869 185.333059 
L 232.729255 187.111351 
L 233.227092 191.85924 
L 233.724929 199.096874 
L 234.15783 204.262253 
L 234.24441 204.473725 
L 234.287701 204.414957 
L 234.395926 203.702639 
L 234.569087 200.504228 
L 234.785537 191.840221 
L 235.066923 170.508678 
L 235.47818 118.978739 
L 235.997662 59.031567 
L 236.170823 54.144 
L 236.192468 54.264156 
L 236.279048 56.35619 
L 236.452209 67.628679 
L 236.820175 110.835585 
L 237.361302 167.225015 
L 237.772558 187.786429 
L 238.595071 213.719646 
L 239.006328 221.446606 
L 239.266069 223.14744 
L 239.374294 223.231992 
L 239.395939 223.212469 
L 239.52581 222.881204 
L 239.807196 221.320292 
L 240.348323 218.381631 
L 240.521483 218.190062 
L 240.543129 218.201116 
L 240.672999 218.431039 
L 240.88945 219.39554 
L 241.257416 222.271845 
L 241.993349 228.099939 
L 242.144864 228.320858 
L 242.16651 228.304199 
L 242.274735 228.026347 
L 242.469541 226.697016 
L 242.794217 222.51723 
L 243.486859 213.420725 
L 243.7466 212.351907 
L 243.854826 212.338121 
L 243.876471 212.362891 
L 244.027986 212.769169 
L 244.287727 214.248785 
L 245.088595 219.262754 
L 245.196821 219.190568 
L 245.348336 218.650689 
L 245.673012 216.334344 
L 246.105914 213.744789 
L 246.25743 213.588119 
L 246.279075 213.601481 
L 246.408945 213.847482 
L 246.690331 215.03158 
L 247.188168 216.972853 
L 247.989036 218.982262 
L 248.681678 221.853876 
L 248.789904 221.71374 
L 248.963064 220.907065 
L 249.24445 218.148579 
L 250.867831 198.973102 
L 250.997702 198.742695 
L 251.040992 198.781148 
L 251.170863 199.266112 
L 251.387313 201.254961 
L 252.274762 210.889431 
L 252.361342 210.822268 
L 252.512857 210.274154 
L 253.053984 207.984769 
L 253.16221 208.181923 
L 253.33537 209.150961 
L 253.681692 212.770834 
L 254.201174 217.675804 
L 254.460915 218.528181 
L 254.69901 218.672755 
L 254.872171 218.819492 
L 255.045332 219.370725 
L 255.261783 221.043616 
L 255.564814 225.5557 
L 256.625423 243.437576 
L 256.885163 244.39966 
L 257.079969 244.498459 
L 257.512871 244.481327 
L 257.729322 244.87789 
L 258.097288 246.191699 
L 258.551835 247.573409 
L 258.811576 247.775606 
L 259.179542 247.940477 
L 259.374348 248.386719 
L 259.677379 249.79328 
L 260.456602 253.697428 
L 260.673052 253.927168 
L 260.824568 253.78779 
L 261.062664 253.129423 
L 261.582146 251.613257 
L 261.690371 251.756978 
L 261.841887 252.447065 
L 262.101628 254.974106 
L 262.924141 264.110396 
L 263.097301 264.372857 
L 263.118946 264.364585 
L 263.270462 264.124331 
L 264.02804 261.947863 
L 264.331071 260.594771 
L 264.699037 257.64691 
L 265.34839 252.377216 
L 265.52155 252.042107 
L 265.543195 252.050114 
L 265.651421 252.267717 
L 265.824581 253.244772 
L 266.105967 256.364699 
L 267.036706 268.13937 
L 267.144931 268.262848 
L 267.166576 268.242455 
L 267.296447 267.825162 
L 267.534543 266.00549 
L 268.29212 259.685822 
L 268.508571 259.371994 
L 268.660087 259.517909 
L 268.963118 260.265506 
L 269.807276 262.988692 
L 270.175242 265.394176 
L 271.452302 275.060216 
L 271.647108 275.238139 
L 271.776978 275.091427 
L 271.993429 274.400895 
L 272.38304 272.160683 
L 272.880877 269.613248 
L 273.118973 269.235126 
L 273.313779 269.282227 
L 274.590838 270.435125 
L 274.98045 271.552721 
L 275.478287 273.6532 
L 275.976123 276.868463 
L 276.47396 279.741468 
L 276.647121 279.962399 
L 276.668766 279.949349 
L 276.798637 279.673081 
L 277.015087 278.488744 
L 277.404699 274.720357 
L 278.075696 268.390293 
L 278.335437 267.547959 
L 278.465308 267.574291 
L 278.638468 268.020162 
L 278.963144 269.681878 
L 279.525917 272.397606 
L 279.764012 272.726966 
L 279.915528 272.612764 
L 280.110334 272.101307 
L 280.43501 270.457024 
L 281.192588 266.361281 
L 281.344103 266.292638 
L 281.473974 266.534775 
L 281.71207 267.619293 
L 282.751033 273.296057 
L 282.880904 273.271355 
L 283.054064 272.924601 
L 283.378741 271.628425 
L 283.876577 269.824755 
L 284.093028 269.664901 
L 284.244544 269.829672 
L 284.460995 270.456479 
L 284.764026 272.137354 
L 285.218572 276.239881 
L 285.781344 280.880141 
L 286.06273 281.680357 
L 286.214246 281.673852 
L 286.409052 281.321284 
L 286.755373 280.081585 
L 287.469661 277.503042 
L 287.686111 277.355191 
L 287.859272 277.537262 
L 288.097368 278.198037 
L 288.443689 279.897465 
L 289.396073 285.01382 
L 289.525943 284.957793 
L 289.699104 284.435646 
L 290.002135 282.570861 
L 290.629842 278.651914 
L 290.846293 278.291922 
L 290.976164 278.366304 
L 291.192614 278.852777 
L 291.906902 280.689624 
L 292.080063 280.657227 
L 292.274868 280.324084 
L 292.577899 279.281556 
L 293.378767 276.301625 
L 293.508638 276.315749 
L 293.660153 276.650436 
L 293.898249 277.877468 
L 294.352796 281.780283 
L 294.850633 285.362074 
L 295.088729 285.936567 
L 295.218599 285.874924 
L 295.39176 285.377398 
L 295.651501 283.767208 
L 296.062757 279.458459 
L 296.733755 272.447482 
L 296.906915 271.987805 
L 296.92856 271.993602 
L 297.036786 272.245328 
L 297.209946 273.41303 
L 297.512977 277.305134 
L 298.227265 286.811124 
L 298.465361 287.711461 
L 298.595231 287.68048 
L 298.768392 287.237343 
L 299.374454 285.490107 
L 299.504325 285.636744 
L 299.69913 286.333661 
L 300.088742 288.851347 
L 300.608224 291.782434 
L 300.954545 292.604952 
L 301.409092 293.074392 
L 301.668833 293.10129 
L 301.863638 292.870487 
L 302.145024 292.091913 
L 302.880957 289.87898 
L 303.162343 289.735347 
L 303.443729 289.596946 
L 303.66018 289.158456 
L 303.941566 287.968037 
L 304.742434 284.231178 
L 304.958885 284.107947 
L 305.15369 284.292029 
L 305.608237 285.149969 
L 306.106074 286.481809 
L 307.469714 290.819877 
L 308.162357 291.493444 
L 308.551968 291.676761 
L 308.790064 291.562907 
L 309.049805 291.162206 
L 309.374481 290.211689 
L 309.893963 287.861365 
L 310.413445 285.874456 
L 310.651541 285.646104 
L 310.803056 285.786782 
L 311.019507 286.357218 
L 311.344183 287.923998 
L 311.863665 291.72283 
L 312.426437 295.374198 
L 312.642888 295.743111 
L 312.772758 295.6012 
L 312.989209 294.859692 
L 313.703497 292.080617 
L 313.833367 292.124012 
L 314.006528 292.50163 
L 314.417784 294.171486 
L 314.872331 295.606879 
L 315.240297 296.061564 
L 316.06281 296.562459 
L 316.452422 296.891291 
L 316.842033 297.602994 
L 317.274935 298.264576 
L 317.491386 298.244795 
L 317.859352 297.857241 
L 318.140738 297.734 
L 318.357189 297.89627 
L 318.984896 298.508147 
L 319.201347 298.361471 
L 319.872344 297.746166 
L 320.06715 297.920772 
L 320.370181 298.56802 
L 321.106114 300.267398 
L 321.322565 300.287046 
L 321.560661 300.003662 
L 322.166723 299.17472 
L 322.339884 299.272135 
L 322.577979 299.735244 
L 323.075816 301.389896 
L 323.638588 302.947298 
L 324.006555 303.408388 
L 324.287941 303.448556 
L 324.612617 303.221136 
L 325.153744 302.831418 
L 325.413485 302.925198 
L 326.149417 303.369441 
L 326.387513 303.102792 
L 327.296607 301.768946 
L 327.534703 301.942576 
L 328.422151 302.818297 
L 329.266309 303.087991 
L 329.56934 303.603508 
L 330.586659 305.675485 
L 330.781464 305.531782 
L 331.06285 304.961879 
L 332.080169 302.621581 
L 332.621296 302.109344 
L 333.249004 301.791937 
L 333.725195 301.790691 
L 334.547708 302.068339 
L 335.543382 302.497894 
L 335.846413 302.175238 
L 336.495765 301.431997 
L 336.863732 301.394476 
L 337.599664 301.587408 
L 337.967631 301.991839 
L 338.573693 302.677351 
L 338.833434 302.649946 
L 339.15811 302.343847 
L 340.39188 300.931111 
L 340.651621 301.056684 
L 341.106167 301.640659 
L 341.430844 301.889132 
L 341.668939 301.797776 
L 342.513097 301.182648 
L 342.751193 301.535559 
L 343.227385 302.783749 
L 343.746867 303.873048 
L 344.179769 304.269077 
L 344.894056 304.573564 
L 345.565054 304.614896 
L 345.997955 304.472886 
L 346.365922 304.094799 
L 346.950339 303.477855 
L 347.16679 303.538823 
L 347.448176 303.90093 
L 348.119173 304.828913 
L 348.487139 304.913155 
L 348.920041 305.046947 
L 349.266362 305.4411 
L 350.694937 307.438466 
L 351.236064 307.56583 
L 352.88109 307.582142 
L 353.768539 307.465079 
L 354.15815 307.173373 
L 354.591052 306.514639 
L 355.197114 305.640029 
L 355.43521 305.644177 
L 355.694951 305.922313 
L 356.820495 307.448784 
L 357.339977 307.568282 
L 358.400586 307.531079 
L 358.855132 307.325324 
L 359.244744 306.886816 
L 360.175482 305.675516 
L 360.413578 305.764381 
L 360.759899 306.212491 
L 361.322671 306.921394 
L 361.560767 306.928056 
L 361.798863 306.683846 
L 362.145184 305.937317 
L 362.772892 304.60693 
L 362.989343 304.565368 
L 363.227438 304.79483 
L 363.941726 305.632448 
L 364.266402 305.608272 
L 364.785884 305.565703 
L 366.236104 305.882131 
L 366.690651 306.014432 
L 367.79455 306.520416 
L 368.443903 306.577023 
L 368.898449 306.933309 
L 369.569447 307.423392 
L 370.002348 307.46821 
L 370.43525 307.283098 
L 371.582439 306.616135 
L 371.950405 306.853729 
L 372.816209 307.477942 
L 373.443916 307.575383 
L 375.175522 307.535815 
L 375.695004 307.333834 
L 376.387647 306.752298 
L 376.777258 306.587941 
L 377.123579 306.700594 
L 377.881157 307.033559 
L 378.249124 306.870598 
L 378.855186 306.588008 
L 379.179862 306.707855 
L 380.565147 307.53901 
L 381.106274 307.462466 
L 381.517531 307.187962 
L 381.993722 306.563945 
L 382.686365 305.692809 
L 383.054331 305.582063 
L 383.746974 305.454759 
L 384.591132 305.073222 
L 384.872518 305.277252 
L 385.283774 305.912829 
L 386.106287 307.210913 
L 386.560834 307.492139 
L 387.188541 307.577699 
L 391.106301 307.584 
L 398.487273 307.584 
L 398.487273 307.584 
" style="fill:none;stroke:#ff7f0e;stroke-linecap:square;stroke-width:1.5;"/>
   </g>
   <g id="patch_103">
    <path d="M 57.6 307.584 
L 57.6 41.472 
" style="fill:none;stroke:#000000;stroke-linecap:square;stroke-linejoin:miter;stroke-width:0.8;"/>
   </g>
   <g id="patch_104">
    <path d="M 414.72 307.584 
L 414.72 41.472 
" style="fill:none;stroke:#000000;stroke-linecap:square;stroke-linejoin:miter;stroke-width:0.8;"/>
   </g>
   <g id="patch_105">
    <path d="M 57.6 307.584 
L 414.72 307.584 
" style="fill:none;stroke:#000000;stroke-linecap:square;stroke-linejoin:miter;stroke-width:0.8;"/>
   </g>
   <g id="patch_106">
    <path d="M 57.6 41.472 
L 414.72 41.472 
" style="fill:none;stroke:#000000;stroke-linecap:square;stroke-linejoin:miter;stroke-width:0.8;"/>
   </g>
  </g>
 </g>
 <defs>
  <clipPath id="p1de8323ec5">
   <rect height="266.112" width="357.12" x="57.6" y="41.472"/>
  </clipPath>
 </defs>
</svg>
