<?xml version="1.0" encoding="utf-8" standalone="no"?>
<!DOCTYPE svg PUBLIC "-//W3C//DTD SVG 1.1//EN"
  "http://www.w3.org/Graphics/SVG/1.1/DTD/svg11.dtd">
<!-- Created with matplotlib (https://matplotlib.org/) -->
<svg height="345.6pt" version="1.1" viewBox="0 0 460.8 345.6" width="460.8pt" xmlns="http://www.w3.org/2000/svg" xmlns:xlink="http://www.w3.org/1999/xlink">
 <defs>
  <style type="text/css">
*{stroke-linecap:butt;stroke-linejoin:round;}
  </style>
 </defs>
 <g id="figure_1">
  <g id="patch_1">
   <path d="M 0 345.6 
L 460.8 345.6 
L 460.8 0 
L 0 0 
z
" style="fill:#ffffff;"/>
  </g>
  <g id="axes_1">
   <g id="patch_2">
    <path d="M 57.6 307.584 
L 414.72 307.584 
L 414.72 41.472 
L 57.6 41.472 
z
" style="fill:#ffffff;"/>
   </g>
   <g id="patch_3">
    <path clip-path="url(#pe90370450c)" d="M 99.973892 307.584 
L 102.697728 307.584 
L 102.697728 269.155479 
L 99.973892 269.155479 
z
" style="fill:#1f77b4;"/>
   </g>
   <g id="patch_4">
    <path clip-path="url(#pe90370450c)" d="M 102.697743 307.584 
L 105.421564 307.584 
L 105.421564 285.883065 
L 102.697743 285.883065 
z
" style="fill:#1f77b4;"/>
   </g>
   <g id="patch_5">
    <path clip-path="url(#pe90370450c)" d="M 105.421564 307.584 
L 108.1454 307.584 
L 108.1454 255.140371 
L 105.421564 255.140371 
z
" style="fill:#1f77b4;"/>
   </g>
   <g id="patch_6">
    <path clip-path="url(#pe90370450c)" d="M 108.1454 307.584 
L 110.869236 307.584 
L 110.869236 247.454667 
L 108.1454 247.454667 
z
" style="fill:#1f77b4;"/>
   </g>
   <g id="patch_7">
    <path clip-path="url(#pe90370450c)" d="M 110.869236 307.584 
L 113.593064 307.584 
L 113.593064 205.409053 
L 110.869236 205.409053 
z
" style="fill:#1f77b4;"/>
   </g>
   <g id="patch_8">
    <path clip-path="url(#pe90370450c)" d="M 113.593064 307.584 
L 116.3169 307.584 
L 116.3169 199.532041 
L 113.593064 199.532041 
z
" style="fill:#1f77b4;"/>
   </g>
   <g id="patch_9">
    <path clip-path="url(#pe90370450c)" d="M 116.316908 307.584 
L 119.040736 307.584 
L 119.040736 215.807389 
L 116.316908 215.807389 
z
" style="fill:#1f77b4;"/>
   </g>
   <g id="patch_10">
    <path clip-path="url(#pe90370450c)" d="M 119.040728 307.584 
L 121.764564 307.584 
L 121.764564 233.891659 
L 119.040728 233.891659 
z
" style="fill:#1f77b4;"/>
   </g>
   <g id="patch_11">
    <path clip-path="url(#pe90370450c)" d="M 121.764564 307.584 
L 124.488392 307.584 
L 124.488392 243.837684 
L 121.764564 243.837684 
z
" style="fill:#1f77b4;"/>
   </g>
   <g id="patch_12">
    <path clip-path="url(#pe90370450c)" d="M 124.4884 307.584 
L 127.212228 307.584 
L 127.212228 244.289785 
L 124.4884 244.289785 
z
" style="fill:#1f77b4;"/>
   </g>
   <g id="patch_13">
    <path clip-path="url(#pe90370450c)" d="M 127.21222 307.584 
L 129.936056 307.584 
L 129.936056 243.385765 
L 127.21222 243.385765 
z
" style="fill:#1f77b4;"/>
   </g>
   <g id="patch_14">
    <path clip-path="url(#pe90370450c)" d="M 129.936056 307.584 
L 132.659884 307.584 
L 132.659884 246.550293 
L 129.936056 246.550293 
z
" style="fill:#1f77b4;"/>
   </g>
   <g id="patch_15">
    <path clip-path="url(#pe90370450c)" d="M 132.659884 307.584 
L 135.38372 307.584 
L 135.38372 243.385765 
L 132.659884 243.385765 
z
" style="fill:#1f77b4;"/>
   </g>
   <g id="patch_16">
    <path clip-path="url(#pe90370450c)" d="M 135.383728 307.584 
L 138.107556 307.584 
L 138.107556 247.906598 
L 135.383728 247.906598 
z
" style="fill:#1f77b4;"/>
   </g>
   <g id="patch_17">
    <path clip-path="url(#pe90370450c)" d="M 138.107549 307.584 
L 140.831384 307.584 
L 140.831384 242.933664 
L 138.107549 242.933664 
z
" style="fill:#1f77b4;"/>
   </g>
   <g id="patch_18">
    <path clip-path="url(#pe90370450c)" d="M 140.831384 307.584 
L 143.555213 307.584 
L 143.555213 243.385582 
L 140.831384 243.385582 
z
" style="fill:#1f77b4;"/>
   </g>
   <g id="patch_19">
    <path clip-path="url(#pe90370450c)" d="M 143.55522 307.584 
L 146.279049 307.584 
L 146.279049 232.083044 
L 143.55522 232.083044 
z
" style="fill:#1f77b4;"/>
   </g>
   <g id="patch_20">
    <path clip-path="url(#pe90370450c)" d="M 146.279041 307.584 
L 149.002877 307.584 
L 149.002877 242.481564 
L 146.279041 242.481564 
z
" style="fill:#1f77b4;"/>
   </g>
   <g id="patch_21">
    <path clip-path="url(#pe90370450c)" d="M 149.002877 307.584 
L 151.726705 307.584 
L 151.726705 246.550293 
L 149.002877 246.550293 
z
" style="fill:#1f77b4;"/>
   </g>
   <g id="patch_22">
    <path clip-path="url(#pe90370450c)" d="M 151.726705 307.584 
L 154.450541 307.584 
L 154.450541 243.385765 
L 151.726705 243.385765 
z
" style="fill:#1f77b4;"/>
   </g>
   <g id="patch_23">
    <path clip-path="url(#pe90370450c)" d="M 154.450549 307.584 
L 157.174377 307.584 
L 157.174377 247.906598 
L 154.450549 247.906598 
z
" style="fill:#1f77b4;"/>
   </g>
   <g id="patch_24">
    <path clip-path="url(#pe90370450c)" d="M 157.174369 307.584 
L 159.898205 307.584 
L 159.898205 245.646266 
L 157.174369 245.646266 
z
" style="fill:#1f77b4;"/>
   </g>
   <g id="patch_25">
    <path clip-path="url(#pe90370450c)" d="M 159.898205 307.584 
L 162.622033 307.584 
L 162.622033 257.40073 
L 159.898205 257.40073 
z
" style="fill:#1f77b4;"/>
   </g>
   <g id="patch_26">
    <path clip-path="url(#pe90370450c)" d="M 162.622033 307.584 
L 165.345869 307.584 
L 165.345869 269.155479 
L 162.622033 269.155479 
z
" style="fill:#1f77b4;"/>
   </g>
   <g id="patch_27">
    <path clip-path="url(#pe90370450c)" d="M 165.345877 307.584 
L 168.069705 307.584 
L 168.069705 266.44276 
L 165.345877 266.44276 
z
" style="fill:#1f77b4;"/>
   </g>
   <g id="patch_28">
    <path clip-path="url(#pe90370450c)" d="M 168.069697 307.584 
L 170.793525 307.584 
L 170.793525 268.703268 
L 168.069697 268.703268 
z
" style="fill:#1f77b4;"/>
   </g>
   <g id="patch_29">
    <path clip-path="url(#pe90370450c)" d="M 170.793525 307.584 
L 173.517361 307.584 
L 173.517361 265.538677 
L 170.793525 265.538677 
z
" style="fill:#1f77b4;"/>
   </g>
   <g id="patch_30">
    <path clip-path="url(#pe90370450c)" d="M 173.517361 307.584 
L 176.241193 307.584 
L 176.241193 270.511727 
L 173.517361 270.511727 
z
" style="fill:#1f77b4;"/>
   </g>
   <g id="patch_31">
    <path clip-path="url(#pe90370450c)" d="M 176.24119 307.584 
L 178.965022 307.584 
L 178.965022 266.442819 
L 176.24119 266.442819 
z
" style="fill:#1f77b4;"/>
   </g>
   <g id="patch_32">
    <path clip-path="url(#pe90370450c)" d="M 178.965025 307.584 
L 181.688854 307.584 
L 181.688854 269.15537 
L 178.965025 269.15537 
z
" style="fill:#1f77b4;"/>
   </g>
   <g id="patch_33">
    <path clip-path="url(#pe90370450c)" d="M 181.688854 307.584 
L 184.412686 307.584 
L 184.412686 264.634415 
L 181.688854 264.634415 
z
" style="fill:#1f77b4;"/>
   </g>
   <g id="patch_34">
    <path clip-path="url(#pe90370450c)" d="M 184.412682 307.584 
L 187.136514 307.584 
L 187.136514 269.155424 
L 184.412682 269.155424 
z
" style="fill:#1f77b4;"/>
   </g>
   <g id="patch_35">
    <path clip-path="url(#pe90370450c)" d="M 187.136518 307.584 
L 189.86035 307.584 
L 189.86035 267.799122 
L 187.136518 267.799122 
z
" style="fill:#1f77b4;"/>
   </g>
   <g id="patch_36">
    <path clip-path="url(#pe90370450c)" d="M 189.860346 307.584 
L 192.584178 307.584 
L 192.584178 261.92181 
L 189.860346 261.92181 
z
" style="fill:#1f77b4;"/>
   </g>
   <g id="patch_37">
    <path clip-path="url(#pe90370450c)" d="M 192.584182 307.584 
L 195.308014 307.584 
L 195.308014 267.347021 
L 192.584182 267.347021 
z
" style="fill:#1f77b4;"/>
   </g>
   <g id="patch_38">
    <path clip-path="url(#pe90370450c)" d="M 195.30801 307.584 
L 198.031842 307.584 
L 198.031842 262.373911 
L 195.30801 262.373911 
z
" style="fill:#1f77b4;"/>
   </g>
   <g id="patch_39">
    <path clip-path="url(#pe90370450c)" d="M 198.031846 307.584 
L 200.755678 307.584 
L 200.755678 253.331893 
L 198.031846 253.331893 
z
" style="fill:#1f77b4;"/>
   </g>
   <g id="patch_40">
    <path clip-path="url(#pe90370450c)" d="M 200.755678 307.584 
L 203.479506 307.584 
L 203.479506 250.619207 
L 200.755678 250.619207 
z
" style="fill:#1f77b4;"/>
   </g>
   <g id="patch_41">
    <path clip-path="url(#pe90370450c)" d="M 203.479506 307.584 
L 206.20334 307.584 
L 206.20334 249.263026 
L 203.479506 249.263026 
z
" style="fill:#1f77b4;"/>
   </g>
   <g id="patch_42">
    <path clip-path="url(#pe90370450c)" d="M 206.203342 307.584 
L 208.927172 307.584 
L 208.927172 251.975551 
L 206.203342 251.975551 
z
" style="fill:#1f77b4;"/>
   </g>
   <g id="patch_43">
    <path clip-path="url(#pe90370450c)" d="M 208.92717 307.584 
L 211.651002 307.584 
L 211.651002 242.481472 
L 208.92717 242.481472 
z
" style="fill:#1f77b4;"/>
   </g>
   <g id="patch_44">
    <path clip-path="url(#pe90370450c)" d="M 211.651002 307.584 
L 214.374834 307.584 
L 214.374834 247.454581 
L 211.651002 247.454581 
z
" style="fill:#1f77b4;"/>
   </g>
   <g id="patch_45">
    <path clip-path="url(#pe90370450c)" d="M 214.374834 307.584 
L 217.098667 307.584 
L 217.098667 241.125169 
L 214.374834 241.125169 
z
" style="fill:#1f77b4;"/>
   </g>
   <g id="patch_46">
    <path clip-path="url(#pe90370450c)" d="M 217.098667 307.584 
L 219.822497 307.584 
L 219.822497 242.481425 
L 217.098667 242.481425 
z
" style="fill:#1f77b4;"/>
   </g>
   <g id="patch_47">
    <path clip-path="url(#pe90370450c)" d="M 219.822497 307.584 
L 222.546329 307.584 
L 222.546329 256.044498 
L 219.822497 256.044498 
z
" style="fill:#1f77b4;"/>
   </g>
   <g id="patch_48">
    <path clip-path="url(#pe90370450c)" d="M 222.546329 307.584 
L 225.270161 307.584 
L 225.270161 248.358783 
L 222.546329 248.358783 
z
" style="fill:#1f77b4;"/>
   </g>
   <g id="patch_49">
    <path clip-path="url(#pe90370450c)" d="M 225.270161 307.584 
L 227.993992 307.584 
L 227.993992 248.810863 
L 225.270161 248.810863 
z
" style="fill:#1f77b4;"/>
   </g>
   <g id="patch_50">
    <path clip-path="url(#pe90370450c)" d="M 227.993992 307.584 
L 230.717824 307.584 
L 230.717824 244.741976 
L 227.993992 244.741976 
z
" style="fill:#1f77b4;"/>
   </g>
   <g id="patch_51">
    <path clip-path="url(#pe90370450c)" d="M 230.717824 307.584 
L 233.441655 307.584 
L 233.441655 225.301623 
L 230.717824 225.301623 
z
" style="fill:#1f77b4;"/>
   </g>
   <g id="patch_52">
    <path clip-path="url(#pe90370450c)" d="M 233.441655 307.584 
L 236.165487 307.584 
L 236.165487 239.768854 
L 233.441655 239.768854 
z
" style="fill:#1f77b4;"/>
   </g>
   <g id="patch_53">
    <path clip-path="url(#pe90370450c)" d="M 236.165487 307.584 
L 238.889319 307.584 
L 238.889319 128.552015 
L 236.165487 128.552015 
z
" style="fill:#1f77b4;"/>
   </g>
   <g id="patch_54">
    <path clip-path="url(#pe90370450c)" d="M 238.889318 307.584 
L 241.61315 307.584 
L 241.61315 214.4512 
L 238.889318 214.4512 
z
" style="fill:#1f77b4;"/>
   </g>
   <g id="patch_55">
    <path clip-path="url(#pe90370450c)" d="M 241.61315 307.584 
L 244.336982 307.584 
L 244.336982 224.849537 
L 241.61315 224.849537 
z
" style="fill:#1f77b4;"/>
   </g>
   <g id="patch_56">
    <path clip-path="url(#pe90370450c)" d="M 244.336981 307.584 
L 247.060812 307.584 
L 247.060812 230.27472 
L 244.336981 230.27472 
z
" style="fill:#1f77b4;"/>
   </g>
   <g id="patch_57">
    <path clip-path="url(#pe90370450c)" d="M 247.060813 307.584 
L 249.784645 307.584 
L 249.784645 240.673068 
L 247.060813 240.673068 
z
" style="fill:#1f77b4;"/>
   </g>
   <g id="patch_58">
    <path clip-path="url(#pe90370450c)" d="M 249.784645 307.584 
L 252.508477 307.584 
L 252.508477 246.55038 
L 249.784645 246.55038 
z
" style="fill:#1f77b4;"/>
   </g>
   <g id="patch_59">
    <path clip-path="url(#pe90370450c)" d="M 252.508479 307.584 
L 255.23231 307.584 
L 255.23231 244.28983 
L 252.508479 244.28983 
z
" style="fill:#1f77b4;"/>
   </g>
   <g id="patch_60">
    <path clip-path="url(#pe90370450c)" d="M 255.232308 307.584 
L 257.95614 307.584 
L 257.95614 256.496599 
L 255.232308 256.496599 
z
" style="fill:#1f77b4;"/>
   </g>
   <g id="patch_61">
    <path clip-path="url(#pe90370450c)" d="M 257.95614 307.584 
L 260.679972 307.584 
L 260.679972 247.002481 
L 257.95614 247.002481 
z
" style="fill:#1f77b4;"/>
   </g>
   <g id="patch_62">
    <path clip-path="url(#pe90370450c)" d="M 260.679972 307.584 
L 263.403804 307.584 
L 263.403804 250.167187 
L 260.679972 250.167187 
z
" style="fill:#1f77b4;"/>
   </g>
   <g id="patch_63">
    <path clip-path="url(#pe90370450c)" d="M 263.403804 307.584 
L 266.127634 307.584 
L 266.127634 258.757069 
L 263.403804 258.757069 
z
" style="fill:#1f77b4;"/>
   </g>
   <g id="patch_64">
    <path clip-path="url(#pe90370450c)" d="M 266.127632 307.584 
L 268.851464 307.584 
L 268.851464 247.906725 
L 266.127632 247.906725 
z
" style="fill:#1f77b4;"/>
   </g>
   <g id="patch_65">
    <path clip-path="url(#pe90370450c)" d="M 268.851468 307.584 
L 271.575296 307.584 
L 271.575296 247.906598 
L 268.851468 247.906598 
z
" style="fill:#1f77b4;"/>
   </g>
   <g id="patch_66">
    <path clip-path="url(#pe90370450c)" d="M 271.575292 307.584 
L 274.299124 307.584 
L 274.299124 251.071389 
L 271.575292 251.071389 
z
" style="fill:#1f77b4;"/>
   </g>
   <g id="patch_67">
    <path clip-path="url(#pe90370450c)" d="M 274.299128 307.584 
L 277.02296 307.584 
L 277.02296 255.140297 
L 274.299128 255.140297 
z
" style="fill:#1f77b4;"/>
   </g>
   <g id="patch_68">
    <path clip-path="url(#pe90370450c)" d="M 277.022956 307.584 
L 279.746788 307.584 
L 279.746788 255.592397 
L 277.022956 255.592397 
z
" style="fill:#1f77b4;"/>
   </g>
   <g id="patch_69">
    <path clip-path="url(#pe90370450c)" d="M 279.746792 307.584 
L 282.470624 307.584 
L 282.470624 255.592397 
L 279.746792 255.592397 
z
" style="fill:#1f77b4;"/>
   </g>
   <g id="patch_70">
    <path clip-path="url(#pe90370450c)" d="M 282.47062 307.584 
L 285.194452 307.584 
L 285.194452 253.331893 
L 282.47062 253.331893 
z
" style="fill:#1f77b4;"/>
   </g>
   <g id="patch_71">
    <path clip-path="url(#pe90370450c)" d="M 285.194456 307.584 
L 287.918288 307.584 
L 287.918288 254.236095 
L 285.194456 254.236095 
z
" style="fill:#1f77b4;"/>
   </g>
   <g id="patch_72">
    <path clip-path="url(#pe90370450c)" d="M 287.918285 307.584 
L 290.642117 307.584 
L 290.642117 265.990718 
L 287.918285 265.990718 
z
" style="fill:#1f77b4;"/>
   </g>
   <g id="patch_73">
    <path clip-path="url(#pe90370450c)" d="M 290.64212 307.584 
L 293.365949 307.584 
L 293.365949 261.921745 
L 290.64212 261.921745 
z
" style="fill:#1f77b4;"/>
   </g>
   <g id="patch_74">
    <path clip-path="url(#pe90370450c)" d="M 293.365949 307.584 
L 296.089781 307.584 
L 296.089781 261.017608 
L 293.365949 261.017608 
z
" style="fill:#1f77b4;"/>
   </g>
   <g id="patch_75">
    <path clip-path="url(#pe90370450c)" d="M 296.089777 307.584 
L 298.813609 307.584 
L 298.813609 264.182314 
L 296.089777 264.182314 
z
" style="fill:#1f77b4;"/>
   </g>
   <g id="patch_76">
    <path clip-path="url(#pe90370450c)" d="M 298.813613 307.584 
L 301.537449 307.584 
L 301.537449 258.305073 
L 298.813613 258.305073 
z
" style="fill:#1f77b4;"/>
   </g>
   <g id="patch_77">
    <path clip-path="url(#pe90370450c)" d="M 301.537456 307.584 
L 304.261285 307.584 
L 304.261285 263.27805 
L 301.537456 263.27805 
z
" style="fill:#1f77b4;"/>
   </g>
   <g id="patch_78">
    <path clip-path="url(#pe90370450c)" d="M 304.261277 307.584 
L 306.985105 307.584 
L 306.985105 258.757034 
L 304.261277 258.757034 
z
" style="fill:#1f77b4;"/>
   </g>
   <g id="patch_79">
    <path clip-path="url(#pe90370450c)" d="M 306.985105 307.584 
L 309.708941 307.584 
L 309.708941 262.373975 
L 306.985105 262.373975 
z
" style="fill:#1f77b4;"/>
   </g>
   <g id="patch_80">
    <path clip-path="url(#pe90370450c)" d="M 309.708949 307.584 
L 312.432777 307.584 
L 312.432777 252.879714 
L 309.708949 252.879714 
z
" style="fill:#1f77b4;"/>
   </g>
   <g id="patch_81">
    <path clip-path="url(#pe90370450c)" d="M 312.432769 307.584 
L 315.156605 307.584 
L 315.156605 237.056361 
L 312.432769 237.056361 
z
" style="fill:#1f77b4;"/>
   </g>
   <g id="patch_82">
    <path clip-path="url(#pe90370450c)" d="M 315.156605 307.584 
L 317.880433 307.584 
L 317.880433 233.439348 
L 315.156605 233.439348 
z
" style="fill:#1f77b4;"/>
   </g>
   <g id="patch_83">
    <path clip-path="url(#pe90370450c)" d="M 317.880433 307.584 
L 320.604269 307.584 
L 320.604269 234.79586 
L 317.880433 234.79586 
z
" style="fill:#1f77b4;"/>
   </g>
   <g id="patch_84">
    <path clip-path="url(#pe90370450c)" d="M 320.604277 307.584 
L 323.328105 307.584 
L 323.328105 241.577176 
L 320.604277 241.577176 
z
" style="fill:#1f77b4;"/>
   </g>
   <g id="patch_85">
    <path clip-path="url(#pe90370450c)" d="M 323.328097 307.584 
L 326.051933 307.584 
L 326.051933 253.78407 
L 323.328097 253.78407 
z
" style="fill:#1f77b4;"/>
   </g>
   <g id="patch_86">
    <path clip-path="url(#pe90370450c)" d="M 326.051933 307.584 
L 328.775761 307.584 
L 328.775761 235.699856 
L 326.051933 235.699856 
z
" style="fill:#1f77b4;"/>
   </g>
   <g id="patch_87">
    <path clip-path="url(#pe90370450c)" d="M 328.775769 307.584 
L 331.499597 307.584 
L 331.499597 245.193988 
L 328.775769 245.193988 
z
" style="fill:#1f77b4;"/>
   </g>
   <g id="patch_88">
    <path clip-path="url(#pe90370450c)" d="M 331.49959 307.584 
L 334.223426 307.584 
L 334.223426 252.42777 
L 331.49959 252.42777 
z
" style="fill:#1f77b4;"/>
   </g>
   <g id="patch_89">
    <path clip-path="url(#pe90370450c)" d="M 334.223426 307.584 
L 336.947254 307.584 
L 336.947254 259.661237 
L 334.223426 259.661237 
z
" style="fill:#1f77b4;"/>
   </g>
   <g id="patch_90">
    <path clip-path="url(#pe90370450c)" d="M 336.947254 307.584 
L 339.67109 307.584 
L 339.67109 266.442877 
L 336.947254 266.442877 
z
" style="fill:#1f77b4;"/>
   </g>
   <g id="patch_91">
    <path clip-path="url(#pe90370450c)" d="M 339.671097 307.584 
L 342.394926 307.584 
L 342.394926 270.059573 
L 339.671097 270.059573 
z
" style="fill:#1f77b4;"/>
   </g>
   <g id="patch_92">
    <path clip-path="url(#pe90370450c)" d="M 342.394918 307.584 
L 345.118754 307.584 
L 345.118754 269.607579 
L 342.394918 269.607579 
z
" style="fill:#1f77b4;"/>
   </g>
   <g id="patch_93">
    <path clip-path="url(#pe90370450c)" d="M 345.118754 307.584 
L 347.842582 307.584 
L 347.842582 262.825948 
L 345.118754 262.825948 
z
" style="fill:#1f77b4;"/>
   </g>
   <g id="patch_94">
    <path clip-path="url(#pe90370450c)" d="M 347.84259 307.584 
L 350.566418 307.584 
L 350.566418 266.894862 
L 347.84259 266.894862 
z
" style="fill:#1f77b4;"/>
   </g>
   <g id="patch_95">
    <path clip-path="url(#pe90370450c)" d="M 350.56641 307.584 
L 353.290246 307.584 
L 353.290246 258.305073 
L 350.56641 258.305073 
z
" style="fill:#1f77b4;"/>
   </g>
   <g id="patch_96">
    <path clip-path="url(#pe90370450c)" d="M 353.290246 307.584 
L 356.014074 307.584 
L 356.014074 267.346963 
L 353.290246 267.346963 
z
" style="fill:#1f77b4;"/>
   </g>
   <g id="patch_97">
    <path clip-path="url(#pe90370450c)" d="M 356.014074 307.584 
L 358.73791 307.584 
L 358.73791 256.948772 
L 356.014074 256.948772 
z
" style="fill:#1f77b4;"/>
   </g>
   <g id="patch_98">
    <path clip-path="url(#pe90370450c)" d="M 358.737918 307.584 
L 361.461746 307.584 
L 361.461746 269.15537 
L 358.737918 269.15537 
z
" style="fill:#1f77b4;"/>
   </g>
   <g id="patch_99">
    <path clip-path="url(#pe90370450c)" d="M 361.461738 307.584 
L 364.185574 307.584 
L 364.185574 271.86808 
L 361.461738 271.86808 
z
" style="fill:#1f77b4;"/>
   </g>
   <g id="patch_100">
    <path clip-path="url(#pe90370450c)" d="M 364.185574 307.584 
L 366.90941 307.584 
L 366.90941 274.580682 
L 364.185574 274.580682 
z
" style="fill:#1f77b4;"/>
   </g>
   <g id="patch_101">
    <path clip-path="url(#pe90370450c)" d="M 366.90941 307.584 
L 369.633231 307.584 
L 369.633231 287.239373 
L 366.90941 287.239373 
z
" style="fill:#1f77b4;"/>
   </g>
   <g id="patch_102">
    <path clip-path="url(#pe90370450c)" d="M 369.633231 307.584 
L 372.357067 307.584 
L 372.357067 286.335288 
L 369.633231 286.335288 
z
" style="fill:#1f77b4;"/>
   </g>
   <g id="matplotlib.axis_1">
    <g id="xtick_1">
     <g id="line2d_1">
      <defs>
       <path d="M 0 0 
L 0 3.5 
" id="m9e8734774c" style="stroke:#000000;stroke-width:0.8;"/>
      </defs>
      <g>
       <use style="stroke:#000000;stroke-width:0.8;" x="106.29948" xlink:href="#m9e8734774c" y="307.584"/>
      </g>
     </g>
     <g id="text_1">
      <!-- −2 -->
      <defs>
       <path d="M 10.59375 35.5 
L 73.1875 35.5 
L 73.1875 27.203125 
L 10.59375 27.203125 
z
" id="DejaVuSans-8722"/>
       <path d="M 19.1875 8.296875 
L 53.609375 8.296875 
L 53.609375 0 
L 7.328125 0 
L 7.328125 8.296875 
Q 12.9375 14.109375 22.625 23.890625 
Q 32.328125 33.6875 34.8125 36.53125 
Q 39.546875 41.84375 41.421875 45.53125 
Q 43.3125 49.21875 43.3125 52.78125 
Q 43.3125 58.59375 39.234375 62.25 
Q 35.15625 65.921875 28.609375 65.921875 
Q 23.96875 65.921875 18.8125 64.3125 
Q 13.671875 62.703125 7.8125 59.421875 
L 7.8125 69.390625 
Q 13.765625 71.78125 18.9375 73 
Q 24.125 74.21875 28.421875 74.21875 
Q 39.75 74.21875 46.484375 68.546875 
Q 53.21875 62.890625 53.21875 53.421875 
Q 53.21875 48.921875 51.53125 44.890625 
Q 49.859375 40.875 45.40625 35.40625 
Q 44.1875 33.984375 37.640625 27.21875 
Q 31.109375 20.453125 19.1875 8.296875 
z
" id="DejaVuSans-50"/>
      </defs>
      <g transform="translate(93.768621 327.501344)scale(0.17 -0.17)">
       <use xlink:href="#DejaVuSans-8722"/>
       <use x="83.789062" xlink:href="#DejaVuSans-50"/>
      </g>
     </g>
    </g>
    <g id="xtick_2">
     <g id="line2d_2">
      <g>
       <use style="stroke:#000000;stroke-width:0.8;" x="171.232987" xlink:href="#m9e8734774c" y="307.584"/>
      </g>
     </g>
     <g id="text_2">
      <!-- −1 -->
      <defs>
       <path d="M 12.40625 8.296875 
L 28.515625 8.296875 
L 28.515625 63.921875 
L 10.984375 60.40625 
L 10.984375 69.390625 
L 28.421875 72.90625 
L 38.28125 72.90625 
L 38.28125 8.296875 
L 54.390625 8.296875 
L 54.390625 0 
L 12.40625 0 
z
" id="DejaVuSans-49"/>
      </defs>
      <g transform="translate(158.702128 327.501344)scale(0.17 -0.17)">
       <use xlink:href="#DejaVuSans-8722"/>
       <use x="83.789062" xlink:href="#DejaVuSans-49"/>
      </g>
     </g>
    </g>
    <g id="xtick_3">
     <g id="line2d_3">
      <g>
       <use style="stroke:#000000;stroke-width:0.8;" x="236.166493" xlink:href="#m9e8734774c" y="307.584"/>
      </g>
     </g>
     <g id="text_3">
      <!-- 0 -->
      <defs>
       <path d="M 31.78125 66.40625 
Q 24.171875 66.40625 20.328125 58.90625 
Q 16.5 51.421875 16.5 36.375 
Q 16.5 21.390625 20.328125 13.890625 
Q 24.171875 6.390625 31.78125 6.390625 
Q 39.453125 6.390625 43.28125 13.890625 
Q 47.125 21.390625 47.125 36.375 
Q 47.125 51.421875 43.28125 58.90625 
Q 39.453125 66.40625 31.78125 66.40625 
z
M 31.78125 74.21875 
Q 44.046875 74.21875 50.515625 64.515625 
Q 56.984375 54.828125 56.984375 36.375 
Q 56.984375 17.96875 50.515625 8.265625 
Q 44.046875 -1.421875 31.78125 -1.421875 
Q 19.53125 -1.421875 13.0625 8.265625 
Q 6.59375 17.96875 6.59375 36.375 
Q 6.59375 54.828125 13.0625 64.515625 
Q 19.53125 74.21875 31.78125 74.21875 
z
" id="DejaVuSans-48"/>
      </defs>
      <g transform="translate(230.758368 327.501344)scale(0.17 -0.17)">
       <use xlink:href="#DejaVuSans-48"/>
      </g>
     </g>
    </g>
    <g id="xtick_4">
     <g id="line2d_4">
      <g>
       <use style="stroke:#000000;stroke-width:0.8;" x="301.1" xlink:href="#m9e8734774c" y="307.584"/>
      </g>
     </g>
     <g id="text_4">
      <!-- 1 -->
      <g transform="translate(295.691875 327.501344)scale(0.17 -0.17)">
       <use xlink:href="#DejaVuSans-49"/>
      </g>
     </g>
    </g>
    <g id="xtick_5">
     <g id="line2d_5">
      <g>
       <use style="stroke:#000000;stroke-width:0.8;" x="366.033506" xlink:href="#m9e8734774c" y="307.584"/>
      </g>
     </g>
     <g id="text_5">
      <!-- 2 -->
      <g transform="translate(360.625381 327.501344)scale(0.17 -0.17)">
       <use xlink:href="#DejaVuSans-50"/>
      </g>
     </g>
    </g>
    <g id="text_6">
     <!-- Position in Radian -->
     <defs>
      <path d="M 19.671875 64.796875 
L 19.671875 37.40625 
L 32.078125 37.40625 
Q 38.96875 37.40625 42.71875 40.96875 
Q 46.484375 44.53125 46.484375 51.125 
Q 46.484375 57.671875 42.71875 61.234375 
Q 38.96875 64.796875 32.078125 64.796875 
z
M 9.8125 72.90625 
L 32.078125 72.90625 
Q 44.34375 72.90625 50.609375 67.359375 
Q 56.890625 61.8125 56.890625 51.125 
Q 56.890625 40.328125 50.609375 34.8125 
Q 44.34375 29.296875 32.078125 29.296875 
L 19.671875 29.296875 
L 19.671875 0 
L 9.8125 0 
z
" id="DejaVuSans-80"/>
      <path d="M 30.609375 48.390625 
Q 23.390625 48.390625 19.1875 42.75 
Q 14.984375 37.109375 14.984375 27.296875 
Q 14.984375 17.484375 19.15625 11.84375 
Q 23.34375 6.203125 30.609375 6.203125 
Q 37.796875 6.203125 41.984375 11.859375 
Q 46.1875 17.53125 46.1875 27.296875 
Q 46.1875 37.015625 41.984375 42.703125 
Q 37.796875 48.390625 30.609375 48.390625 
z
M 30.609375 56 
Q 42.328125 56 49.015625 48.375 
Q 55.71875 40.765625 55.71875 27.296875 
Q 55.71875 13.875 49.015625 6.21875 
Q 42.328125 -1.421875 30.609375 -1.421875 
Q 18.84375 -1.421875 12.171875 6.21875 
Q 5.515625 13.875 5.515625 27.296875 
Q 5.515625 40.765625 12.171875 48.375 
Q 18.84375 56 30.609375 56 
z
" id="DejaVuSans-111"/>
      <path d="M 44.28125 53.078125 
L 44.28125 44.578125 
Q 40.484375 46.53125 36.375 47.5 
Q 32.28125 48.484375 27.875 48.484375 
Q 21.1875 48.484375 17.84375 46.4375 
Q 14.5 44.390625 14.5 40.28125 
Q 14.5 37.15625 16.890625 35.375 
Q 19.28125 33.59375 26.515625 31.984375 
L 29.59375 31.296875 
Q 39.15625 29.25 43.1875 25.515625 
Q 47.21875 21.78125 47.21875 15.09375 
Q 47.21875 7.46875 41.1875 3.015625 
Q 35.15625 -1.421875 24.609375 -1.421875 
Q 20.21875 -1.421875 15.453125 -0.5625 
Q 10.6875 0.296875 5.421875 2 
L 5.421875 11.28125 
Q 10.40625 8.6875 15.234375 7.390625 
Q 20.0625 6.109375 24.8125 6.109375 
Q 31.15625 6.109375 34.5625 8.28125 
Q 37.984375 10.453125 37.984375 14.40625 
Q 37.984375 18.0625 35.515625 20.015625 
Q 33.0625 21.96875 24.703125 23.78125 
L 21.578125 24.515625 
Q 13.234375 26.265625 9.515625 29.90625 
Q 5.8125 33.546875 5.8125 39.890625 
Q 5.8125 47.609375 11.28125 51.796875 
Q 16.75 56 26.8125 56 
Q 31.78125 56 36.171875 55.265625 
Q 40.578125 54.546875 44.28125 53.078125 
z
" id="DejaVuSans-115"/>
      <path d="M 9.421875 54.6875 
L 18.40625 54.6875 
L 18.40625 0 
L 9.421875 0 
z
M 9.421875 75.984375 
L 18.40625 75.984375 
L 18.40625 64.59375 
L 9.421875 64.59375 
z
" id="DejaVuSans-105"/>
      <path d="M 18.3125 70.21875 
L 18.3125 54.6875 
L 36.8125 54.6875 
L 36.8125 47.703125 
L 18.3125 47.703125 
L 18.3125 18.015625 
Q 18.3125 11.328125 20.140625 9.421875 
Q 21.96875 7.515625 27.59375 7.515625 
L 36.8125 7.515625 
L 36.8125 0 
L 27.59375 0 
Q 17.1875 0 13.234375 3.875 
Q 9.28125 7.765625 9.28125 18.015625 
L 9.28125 47.703125 
L 2.6875 47.703125 
L 2.6875 54.6875 
L 9.28125 54.6875 
L 9.28125 70.21875 
z
" id="DejaVuSans-116"/>
      <path d="M 54.890625 33.015625 
L 54.890625 0 
L 45.90625 0 
L 45.90625 32.71875 
Q 45.90625 40.484375 42.875 44.328125 
Q 39.84375 48.1875 33.796875 48.1875 
Q 26.515625 48.1875 22.3125 43.546875 
Q 18.109375 38.921875 18.109375 30.90625 
L 18.109375 0 
L 9.078125 0 
L 9.078125 54.6875 
L 18.109375 54.6875 
L 18.109375 46.1875 
Q 21.34375 51.125 25.703125 53.5625 
Q 30.078125 56 35.796875 56 
Q 45.21875 56 50.046875 50.171875 
Q 54.890625 44.34375 54.890625 33.015625 
z
" id="DejaVuSans-110"/>
      <path id="DejaVuSans-32"/>
      <path d="M 44.390625 34.1875 
Q 47.5625 33.109375 50.5625 29.59375 
Q 53.5625 26.078125 56.59375 19.921875 
L 66.609375 0 
L 56 0 
L 46.6875 18.703125 
Q 43.0625 26.03125 39.671875 28.421875 
Q 36.28125 30.8125 30.421875 30.8125 
L 19.671875 30.8125 
L 19.671875 0 
L 9.8125 0 
L 9.8125 72.90625 
L 32.078125 72.90625 
Q 44.578125 72.90625 50.734375 67.671875 
Q 56.890625 62.453125 56.890625 51.90625 
Q 56.890625 45.015625 53.6875 40.46875 
Q 50.484375 35.9375 44.390625 34.1875 
z
M 19.671875 64.796875 
L 19.671875 38.921875 
L 32.078125 38.921875 
Q 39.203125 38.921875 42.84375 42.21875 
Q 46.484375 45.515625 46.484375 51.90625 
Q 46.484375 58.296875 42.84375 61.546875 
Q 39.203125 64.796875 32.078125 64.796875 
z
" id="DejaVuSans-82"/>
      <path d="M 34.28125 27.484375 
Q 23.390625 27.484375 19.1875 25 
Q 14.984375 22.515625 14.984375 16.5 
Q 14.984375 11.71875 18.140625 8.90625 
Q 21.296875 6.109375 26.703125 6.109375 
Q 34.1875 6.109375 38.703125 11.40625 
Q 43.21875 16.703125 43.21875 25.484375 
L 43.21875 27.484375 
z
M 52.203125 31.203125 
L 52.203125 0 
L 43.21875 0 
L 43.21875 8.296875 
Q 40.140625 3.328125 35.546875 0.953125 
Q 30.953125 -1.421875 24.3125 -1.421875 
Q 15.921875 -1.421875 10.953125 3.296875 
Q 6 8.015625 6 15.921875 
Q 6 25.140625 12.171875 29.828125 
Q 18.359375 34.515625 30.609375 34.515625 
L 43.21875 34.515625 
L 43.21875 35.40625 
Q 43.21875 41.609375 39.140625 45 
Q 35.0625 48.390625 27.6875 48.390625 
Q 23 48.390625 18.546875 47.265625 
Q 14.109375 46.140625 10.015625 43.890625 
L 10.015625 52.203125 
Q 14.9375 54.109375 19.578125 55.046875 
Q 24.21875 56 28.609375 56 
Q 40.484375 56 46.34375 49.84375 
Q 52.203125 43.703125 52.203125 31.203125 
z
" id="DejaVuSans-97"/>
      <path d="M 45.40625 46.390625 
L 45.40625 75.984375 
L 54.390625 75.984375 
L 54.390625 0 
L 45.40625 0 
L 45.40625 8.203125 
Q 42.578125 3.328125 38.25 0.953125 
Q 33.9375 -1.421875 27.875 -1.421875 
Q 17.96875 -1.421875 11.734375 6.484375 
Q 5.515625 14.40625 5.515625 27.296875 
Q 5.515625 40.1875 11.734375 48.09375 
Q 17.96875 56 27.875 56 
Q 33.9375 56 38.25 53.625 
Q 42.578125 51.265625 45.40625 46.390625 
z
M 14.796875 27.296875 
Q 14.796875 17.390625 18.875 11.75 
Q 22.953125 6.109375 30.078125 6.109375 
Q 37.203125 6.109375 41.296875 11.75 
Q 45.40625 17.390625 45.40625 27.296875 
Q 45.40625 37.203125 41.296875 42.84375 
Q 37.203125 48.484375 30.078125 48.484375 
Q 22.953125 48.484375 18.875 42.84375 
Q 14.796875 37.203125 14.796875 27.296875 
z
" id="DejaVuSans-100"/>
     </defs>
     <g transform="translate(102.024844 357.832125)scale(0.3 -0.3)">
      <use xlink:href="#DejaVuSans-80"/>
      <use x="60.255859" xlink:href="#DejaVuSans-111"/>
      <use x="121.4375" xlink:href="#DejaVuSans-115"/>
      <use x="173.537109" xlink:href="#DejaVuSans-105"/>
      <use x="201.320312" xlink:href="#DejaVuSans-116"/>
      <use x="240.529297" xlink:href="#DejaVuSans-105"/>
      <use x="268.3125" xlink:href="#DejaVuSans-111"/>
      <use x="329.494141" xlink:href="#DejaVuSans-110"/>
      <use x="392.873047" xlink:href="#DejaVuSans-32"/>
      <use x="424.660156" xlink:href="#DejaVuSans-105"/>
      <use x="452.443359" xlink:href="#DejaVuSans-110"/>
      <use x="515.822266" xlink:href="#DejaVuSans-32"/>
      <use x="547.609375" xlink:href="#DejaVuSans-82"/>
      <use x="617.060547" xlink:href="#DejaVuSans-97"/>
      <use x="678.339844" xlink:href="#DejaVuSans-100"/>
      <use x="741.816406" xlink:href="#DejaVuSans-105"/>
      <use x="769.599609" xlink:href="#DejaVuSans-97"/>
      <use x="830.878906" xlink:href="#DejaVuSans-110"/>
     </g>
    </g>
   </g>
   <g id="matplotlib.axis_2">
    <g id="ytick_1">
     <g id="line2d_6">
      <defs>
       <path d="M 0 0 
L -3.5 0 
" id="m01e6713b30" style="stroke:#000000;stroke-width:0.8;"/>
      </defs>
      <g>
       <use style="stroke:#000000;stroke-width:0.8;" x="57.6" xlink:href="#m01e6713b30" y="307.584"/>
      </g>
     </g>
     <g id="text_7">
      <!-- 0.0 -->
      <defs>
       <path d="M 10.6875 12.40625 
L 21 12.40625 
L 21 0 
L 10.6875 0 
z
" id="DejaVuSans-46"/>
      </defs>
      <g transform="translate(23.564687 314.042672)scale(0.17 -0.17)">
       <use xlink:href="#DejaVuSans-48"/>
       <use x="63.623047" xlink:href="#DejaVuSans-46"/>
       <use x="95.410156" xlink:href="#DejaVuSans-48"/>
      </g>
     </g>
    </g>
    <g id="ytick_2">
     <g id="line2d_7">
      <g>
       <use style="stroke:#000000;stroke-width:0.8;" x="57.6" xlink:href="#m01e6713b30" y="260.172156"/>
      </g>
     </g>
     <g id="text_8">
      <!-- 0.2 -->
      <g transform="translate(23.564687 266.630828)scale(0.17 -0.17)">
       <use xlink:href="#DejaVuSans-48"/>
       <use x="63.623047" xlink:href="#DejaVuSans-46"/>
       <use x="95.410156" xlink:href="#DejaVuSans-50"/>
      </g>
     </g>
    </g>
    <g id="ytick_3">
     <g id="line2d_8">
      <g>
       <use style="stroke:#000000;stroke-width:0.8;" x="57.6" xlink:href="#m01e6713b30" y="212.760313"/>
      </g>
     </g>
     <g id="text_9">
      <!-- 0.4 -->
      <defs>
       <path d="M 37.796875 64.3125 
L 12.890625 25.390625 
L 37.796875 25.390625 
z
M 35.203125 72.90625 
L 47.609375 72.90625 
L 47.609375 25.390625 
L 58.015625 25.390625 
L 58.015625 17.1875 
L 47.609375 17.1875 
L 47.609375 0 
L 37.796875 0 
L 37.796875 17.1875 
L 4.890625 17.1875 
L 4.890625 26.703125 
z
" id="DejaVuSans-52"/>
      </defs>
      <g transform="translate(23.564687 219.218985)scale(0.17 -0.17)">
       <use xlink:href="#DejaVuSans-48"/>
       <use x="63.623047" xlink:href="#DejaVuSans-46"/>
       <use x="95.410156" xlink:href="#DejaVuSans-52"/>
      </g>
     </g>
    </g>
    <g id="ytick_4">
     <g id="line2d_9">
      <g>
       <use style="stroke:#000000;stroke-width:0.8;" x="57.6" xlink:href="#m01e6713b30" y="165.348469"/>
      </g>
     </g>
     <g id="text_10">
      <!-- 0.6 -->
      <defs>
       <path d="M 33.015625 40.375 
Q 26.375 40.375 22.484375 35.828125 
Q 18.609375 31.296875 18.609375 23.390625 
Q 18.609375 15.53125 22.484375 10.953125 
Q 26.375 6.390625 33.015625 6.390625 
Q 39.65625 6.390625 43.53125 10.953125 
Q 47.40625 15.53125 47.40625 23.390625 
Q 47.40625 31.296875 43.53125 35.828125 
Q 39.65625 40.375 33.015625 40.375 
z
M 52.59375 71.296875 
L 52.59375 62.3125 
Q 48.875 64.0625 45.09375 64.984375 
Q 41.3125 65.921875 37.59375 65.921875 
Q 27.828125 65.921875 22.671875 59.328125 
Q 17.53125 52.734375 16.796875 39.40625 
Q 19.671875 43.65625 24.015625 45.921875 
Q 28.375 48.1875 33.59375 48.1875 
Q 44.578125 48.1875 50.953125 41.515625 
Q 57.328125 34.859375 57.328125 23.390625 
Q 57.328125 12.15625 50.6875 5.359375 
Q 44.046875 -1.421875 33.015625 -1.421875 
Q 20.359375 -1.421875 13.671875 8.265625 
Q 6.984375 17.96875 6.984375 36.375 
Q 6.984375 53.65625 15.1875 63.9375 
Q 23.390625 74.21875 37.203125 74.21875 
Q 40.921875 74.21875 44.703125 73.484375 
Q 48.484375 72.75 52.59375 71.296875 
z
" id="DejaVuSans-54"/>
      </defs>
      <g transform="translate(23.564687 171.807141)scale(0.17 -0.17)">
       <use xlink:href="#DejaVuSans-48"/>
       <use x="63.623047" xlink:href="#DejaVuSans-46"/>
       <use x="95.410156" xlink:href="#DejaVuSans-54"/>
      </g>
     </g>
    </g>
    <g id="ytick_5">
     <g id="line2d_10">
      <g>
       <use style="stroke:#000000;stroke-width:0.8;" x="57.6" xlink:href="#m01e6713b30" y="117.936626"/>
      </g>
     </g>
     <g id="text_11">
      <!-- 0.8 -->
      <defs>
       <path d="M 31.78125 34.625 
Q 24.75 34.625 20.71875 30.859375 
Q 16.703125 27.09375 16.703125 20.515625 
Q 16.703125 13.921875 20.71875 10.15625 
Q 24.75 6.390625 31.78125 6.390625 
Q 38.8125 6.390625 42.859375 10.171875 
Q 46.921875 13.96875 46.921875 20.515625 
Q 46.921875 27.09375 42.890625 30.859375 
Q 38.875 34.625 31.78125 34.625 
z
M 21.921875 38.8125 
Q 15.578125 40.375 12.03125 44.71875 
Q 8.5 49.078125 8.5 55.328125 
Q 8.5 64.0625 14.71875 69.140625 
Q 20.953125 74.21875 31.78125 74.21875 
Q 42.671875 74.21875 48.875 69.140625 
Q 55.078125 64.0625 55.078125 55.328125 
Q 55.078125 49.078125 51.53125 44.71875 
Q 48 40.375 41.703125 38.8125 
Q 48.828125 37.15625 52.796875 32.3125 
Q 56.78125 27.484375 56.78125 20.515625 
Q 56.78125 9.90625 50.3125 4.234375 
Q 43.84375 -1.421875 31.78125 -1.421875 
Q 19.734375 -1.421875 13.25 4.234375 
Q 6.78125 9.90625 6.78125 20.515625 
Q 6.78125 27.484375 10.78125 32.3125 
Q 14.796875 37.15625 21.921875 38.8125 
z
M 18.3125 54.390625 
Q 18.3125 48.734375 21.84375 45.5625 
Q 25.390625 42.390625 31.78125 42.390625 
Q 38.140625 42.390625 41.71875 45.5625 
Q 45.3125 48.734375 45.3125 54.390625 
Q 45.3125 60.0625 41.71875 63.234375 
Q 38.140625 66.40625 31.78125 66.40625 
Q 25.390625 66.40625 21.84375 63.234375 
Q 18.3125 60.0625 18.3125 54.390625 
z
" id="DejaVuSans-56"/>
      </defs>
      <g transform="translate(23.564687 124.395297)scale(0.17 -0.17)">
       <use xlink:href="#DejaVuSans-48"/>
       <use x="63.623047" xlink:href="#DejaVuSans-46"/>
       <use x="95.410156" xlink:href="#DejaVuSans-56"/>
      </g>
     </g>
    </g>
    <g id="ytick_6">
     <g id="line2d_11">
      <g>
       <use style="stroke:#000000;stroke-width:0.8;" x="57.6" xlink:href="#m01e6713b30" y="70.524782"/>
      </g>
     </g>
     <g id="text_12">
      <!-- 1.0 -->
      <g transform="translate(23.564687 76.983454)scale(0.17 -0.17)">
       <use xlink:href="#DejaVuSans-49"/>
       <use x="63.623047" xlink:href="#DejaVuSans-46"/>
       <use x="95.410156" xlink:href="#DejaVuSans-48"/>
      </g>
     </g>
    </g>
    <g id="text_13">
     <!-- Density -->
     <defs>
      <path d="M 19.671875 64.796875 
L 19.671875 8.109375 
L 31.59375 8.109375 
Q 46.6875 8.109375 53.6875 14.9375 
Q 60.6875 21.78125 60.6875 36.53125 
Q 60.6875 51.171875 53.6875 57.984375 
Q 46.6875 64.796875 31.59375 64.796875 
z
M 9.8125 72.90625 
L 30.078125 72.90625 
Q 51.265625 72.90625 61.171875 64.09375 
Q 71.09375 55.28125 71.09375 36.53125 
Q 71.09375 17.671875 61.125 8.828125 
Q 51.171875 0 30.078125 0 
L 9.8125 0 
z
" id="DejaVuSans-68"/>
      <path d="M 56.203125 29.59375 
L 56.203125 25.203125 
L 14.890625 25.203125 
Q 15.484375 15.921875 20.484375 11.0625 
Q 25.484375 6.203125 34.421875 6.203125 
Q 39.59375 6.203125 44.453125 7.46875 
Q 49.3125 8.734375 54.109375 11.28125 
L 54.109375 2.78125 
Q 49.265625 0.734375 44.1875 -0.34375 
Q 39.109375 -1.421875 33.890625 -1.421875 
Q 20.796875 -1.421875 13.15625 6.1875 
Q 5.515625 13.8125 5.515625 26.8125 
Q 5.515625 40.234375 12.765625 48.109375 
Q 20.015625 56 32.328125 56 
Q 43.359375 56 49.78125 48.890625 
Q 56.203125 41.796875 56.203125 29.59375 
z
M 47.21875 32.234375 
Q 47.125 39.59375 43.09375 43.984375 
Q 39.0625 48.390625 32.421875 48.390625 
Q 24.90625 48.390625 20.390625 44.140625 
Q 15.875 39.890625 15.1875 32.171875 
z
" id="DejaVuSans-101"/>
      <path d="M 32.171875 -5.078125 
Q 28.375 -14.84375 24.75 -17.8125 
Q 21.140625 -20.796875 15.09375 -20.796875 
L 7.90625 -20.796875 
L 7.90625 -13.28125 
L 13.1875 -13.28125 
Q 16.890625 -13.28125 18.9375 -11.515625 
Q 21 -9.765625 23.484375 -3.21875 
L 25.09375 0.875 
L 2.984375 54.6875 
L 12.5 54.6875 
L 29.59375 11.921875 
L 46.6875 54.6875 
L 56.203125 54.6875 
z
" id="DejaVuSans-121"/>
     </defs>
     <g transform="translate(13.325625 231.553781)rotate(-90)scale(0.3 -0.3)">
      <use xlink:href="#DejaVuSans-68"/>
      <use x="77.001953" xlink:href="#DejaVuSans-101"/>
      <use x="138.525391" xlink:href="#DejaVuSans-110"/>
      <use x="201.904297" xlink:href="#DejaVuSans-115"/>
      <use x="254.003906" xlink:href="#DejaVuSans-105"/>
      <use x="281.787109" xlink:href="#DejaVuSans-116"/>
      <use x="320.996094" xlink:href="#DejaVuSans-121"/>
     </g>
    </g>
   </g>
   <g id="line2d_12">
    <path clip-path="url(#pe90370450c)" d="M 73.832727 307.584 
L 97.832151 307.478725 
L 98.091885 307.203496 
L 98.312659 306.582026 
L 98.54642 305.116495 
L 98.806154 301.798215 
L 99.117835 294.496754 
L 100.156771 266.611292 
L 100.208718 266.699137 
L 100.325598 267.59228 
L 100.559359 271.590048 
L 101.26064 284.274085 
L 101.507388 285.378632 
L 101.624268 285.397403 
L 101.637255 285.385485 
L 101.819069 285.025578 
L 102.48139 283.538919 
L 102.676191 283.543849 
L 102.883978 283.822883 
L 103.208646 284.719327 
L 103.870967 286.56753 
L 104.039794 286.583471 
L 104.195635 286.298015 
L 104.403422 285.363929 
L 104.676143 282.980056 
L 105.052757 277.36785 
L 106.078707 260.760734 
L 106.351427 259.634875 
L 106.624148 259.375274 
L 106.818949 259.089141 
L 107.026736 258.298978 
L 107.338417 256.060747 
L 108.156579 249.865949 
L 108.572153 248.477826 
L 109.156555 247.346863 
L 109.546156 246.430403 
L 109.831863 245.082054 
L 110.143544 242.355347 
L 110.533145 236.691668 
L 112.44219 205.280129 
L 113.442166 191.950823 
L 113.58502 191.650474 
L 113.610993 191.67459 
L 113.714887 192.012591 
L 113.909687 193.596753 
L 114.403182 200.251212 
L 114.779796 203.638517 
L 115.00057 204.130353 
L 115.117451 204.031404 
L 115.377185 203.374346 
L 115.675879 202.838783 
L 115.792759 202.930545 
L 115.9486 203.425619 
L 116.195347 205.13965 
L 116.597935 209.906267 
L 117.351163 218.796824 
L 117.610897 219.778195 
L 117.714791 219.751552 
L 117.727778 219.732291 
L 117.883618 219.257863 
L 118.273219 217.04596 
L 118.558927 216.072055 
L 118.66282 216.11751 
L 118.805674 216.585629 
L 119.052421 218.369658 
L 120.325118 229.11778 
L 120.753679 233.379095 
L 121.766642 244.272232 
L 122.078323 245.312597 
L 122.32507 245.519141 
L 122.623764 245.46145 
L 123.104272 245.126453 
L 123.50686 244.556606 
L 124.545796 242.89004 
L 125.169157 242.363413 
L 125.454865 242.209336 
L 125.610705 242.390443 
L 125.818493 243.083452 
L 126.156147 245.192151 
L 126.727562 248.563058 
L 127.000282 249.053167 
L 127.20807 249.043371 
L 127.51975 248.750985 
L 127.831431 248.164457 
L 128.117139 247.068546 
L 128.532713 244.362533 
L 129.065168 241.273732 
L 129.285942 240.939221 
L 129.428795 241.040352 
L 129.68853 241.611594 
L 130.143064 242.500572 
L 130.402798 242.574553 
L 130.753439 242.655974 
L 130.9872 243.029749 
L 131.415761 244.292511 
L 131.779388 245.047212 
L 131.961202 245.049724 
L 132.143016 244.769823 
L 132.454697 243.790283 
L 133.065072 241.911821 
L 133.272859 241.806844 
L 133.454673 241.996964 
L 133.74038 242.711394 
L 134.480622 245.419064 
L 134.948144 246.712984 
L 135.142944 246.791678 
L 135.298784 246.551946 
L 135.545532 245.631875 
L 136.18188 243.048712 
L 136.29876 243.120474 
L 136.454601 243.626111 
L 136.714335 245.384627 
L 137.623404 252.26253 
L 137.792231 252.408033 
L 137.805218 252.399695 
L 137.948072 252.145304 
L 138.246766 250.992754 
L 138.62338 249.842254 
L 138.805194 249.804598 
L 139.181808 249.938576 
L 139.194795 249.917659 
L 139.337649 249.443922 
L 139.545436 247.784468 
L 139.88309 242.80159 
L 140.441518 234.991938 
L 140.636319 234.352226 
L 140.649305 234.356369 
L 140.740212 234.536487 
L 140.922026 235.575812 
L 141.363574 239.896701 
L 141.857069 243.78658 
L 142.155763 244.735744 
L 142.28563 244.728181 
L 142.428483 244.376619 
L 142.649257 243.077587 
L 142.999898 239.377615 
L 143.74014 231.445878 
L 144.012861 230.521062 
L 144.142728 230.529705 
L 144.298568 230.884168 
L 144.558302 232.184949 
L 145.649185 238.584066 
L 145.882946 238.686677 
L 146.337481 238.749586 
L 146.623188 239.129915 
L 147.129669 240.245436 
L 147.610177 241.820839 
L 148.610153 245.317732 
L 149.090661 246.915574 
L 149.688049 248.910702 
L 149.84389 248.922278 
L 149.99973 248.629302 
L 150.272451 247.522076 
L 151.129573 243.742304 
L 151.726962 242.480187 
L 152.103576 242.029052 
L 152.298376 242.084366 
L 152.51915 242.456284 
L 152.895765 243.651493 
L 153.324326 244.792762 
L 153.480166 244.802062 
L 153.636007 244.490736 
L 153.895741 243.313075 
L 154.493129 240.493599 
L 154.610009 240.470091 
L 154.635983 240.498027 
L 154.791823 240.907621 
L 155.064544 242.424563 
L 156.077507 248.664175 
L 156.480094 249.672753 
L 156.726842 249.862009 
L 156.882682 249.725151 
L 157.077483 249.178655 
L 157.389163 247.46398 
L 157.882658 244.924678 
L 157.986552 244.876602 
L 158.012525 244.902702 
L 158.142392 245.262631 
L 158.376153 246.744672 
L 159.233275 252.82213 
L 159.908583 255.740928 
L 160.467012 258.421888 
L 160.596879 258.500268 
L 160.622852 258.478721 
L 160.765706 258.13599 
L 161.012453 256.769415 
L 161.635815 253.150512 
L 161.726722 253.1612 
L 161.739708 253.18002 
L 161.869575 253.610194 
L 162.090349 255.285824 
L 162.622804 261.740845 
L 163.051365 265.469751 
L 163.363046 266.518681 
L 164.103288 268.065792 
L 164.674703 269.852921 
L 164.778596 269.782982 
L 164.92145 269.319416 
L 165.142224 267.706356 
L 165.570785 262.450531 
L 165.960386 258.777084 
L 166.090253 258.523696 
L 166.116227 258.5465 
L 166.22012 258.886423 
L 166.414921 260.530913 
L 166.804522 266.321001 
L 167.311003 272.797027 
L 167.570737 273.940017 
L 167.687617 273.985251 
L 167.713591 273.96316 
L 167.882418 273.600581 
L 168.713567 271.353891 
L 168.895381 271.468451 
L 169.479782 272.002183 
L 169.648609 271.713605 
L 169.908343 270.734224 
L 170.765466 267.180519 
L 171.596615 265.077836 
L 172.012189 264.156022 
L 172.219976 264.097633 
L 172.427763 264.309099 
L 173.999154 266.920763 
L 174.505636 268.710837 
L 175.064064 270.404725 
L 175.336785 270.679662 
L 175.544572 270.606065 
L 175.869239 270.167862 
L 176.206894 269.846604 
L 176.375721 269.965774 
L 176.596495 270.469018 
L 177.180896 271.92233 
L 177.297776 271.806021 
L 177.47959 271.197568 
L 177.791271 269.18299 
L 178.349699 265.753772 
L 178.531513 265.53176 
L 178.5445 265.537009 
L 178.674367 265.72949 
L 178.934101 266.659444 
L 179.362662 268.023234 
L 179.505516 268.012695 
L 179.674343 267.645518 
L 180.479518 265.299505 
L 180.505492 265.312537 
L 180.687305 265.565257 
L 181.401574 266.78155 
L 182.180776 267.115502 
L 182.609337 267.485889 
L 182.778164 267.335688 
L 182.985952 266.765314 
L 183.284646 265.181789 
L 184.336569 258.931157 
L 184.466436 258.952388 
L 184.609289 259.318733 
L 184.830063 260.60264 
L 185.193691 264.30479 
L 186.167693 274.781018 
L 186.570281 276.792967 
L 186.830015 277.245286 
L 186.972869 277.183271 
L 187.154683 276.78049 
L 187.44039 275.493031 
L 187.972845 271.807119 
L 189.362422 262.035799 
L 190.011757 259.217945 
L 190.414345 258.229879 
L 190.622132 258.131913 
L 190.790959 258.324269 
L 191.011733 258.985188 
L 191.336401 260.799483 
L 192.310403 266.862192 
L 192.427283 266.79516 
L 192.583124 266.304183 
L 192.868831 264.495824 
L 193.401286 261.249287 
L 193.518166 261.137311 
L 193.557126 261.171756 
L 193.686993 261.555316 
L 193.907767 263.104544 
L 194.855797 271.194632 
L 194.88177 271.177816 
L 194.99865 270.875445 
L 195.206437 269.544606 
L 196.115507 262.730728 
L 196.284334 262.672051 
L 196.466148 262.963683 
L 197.258336 264.537292 
L 197.44015 264.450209 
L 197.673911 264.032532 
L 198.011565 262.902566 
L 198.4661 260.539288 
L 199.556982 253.085383 
L 200.193331 247.628827 
L 200.634879 244.618404 
L 200.816692 244.332275 
L 200.829679 244.338602 
L 200.946559 244.55602 
L 201.14136 245.510722 
L 201.543948 248.935786 
L 202.063416 252.784772 
L 202.32315 253.449184 
L 202.453017 253.413037 
L 202.608857 253.055117 
L 202.868591 251.764787 
L 203.881554 245.708603 
L 203.907527 245.719113 
L 204.024408 245.924705 
L 204.232195 246.856607 
L 205.232171 252.215443 
L 205.894493 253.341971 
L 206.25812 255.148973 
L 206.673695 256.898309 
L 206.790575 256.955702 
L 206.816548 256.93189 
L 206.946415 256.603059 
L 207.167189 255.27311 
L 207.660684 250.38864 
L 208.063272 247.533182 
L 208.271059 247.17567 
L 208.387939 247.302861 
L 208.608713 248.004952 
L 209.284022 250.333677 
L 209.530769 250.483909 
L 209.777516 250.366569 
L 210.024264 250.00709 
L 210.258024 249.215697 
L 210.517758 247.395305 
L 210.881386 242.914334 
L 211.439814 236.351744 
L 211.582668 236.017237 
L 211.608641 236.039416 
L 211.712535 236.379539 
L 211.907335 237.976944 
L 212.803418 246.616273 
L 212.907311 246.59646 
L 212.920298 246.577942 
L 213.076138 246.126378 
L 213.439766 244.147262 
L 214.205981 240.178168 
L 214.543636 239.30302 
L 214.712463 239.290417 
L 214.88129 239.607926 
L 215.179984 240.78878 
L 215.712439 242.757761 
L 215.959186 242.96696 
L 216.530601 243.12222 
L 216.803322 243.722585 
L 217.543564 245.46401 
L 217.959138 245.794355 
L 218.270819 245.820653 
L 218.50458 245.59241 
L 219.140928 244.667176 
L 219.192875 244.722334 
L 219.348715 245.140047 
L 219.595463 246.604131 
L 220.530505 253.022517 
L 220.699332 253.056884 
L 220.920106 252.753612 
L 221.29672 252.307639 
L 221.478534 252.388789 
L 221.764242 252.841057 
L 222.153843 253.337018 
L 222.32267 253.249112 
L 222.530457 252.799659 
L 222.855125 251.448071 
L 223.868087 246.853018 
L 224.088861 246.676163 
L 224.257688 246.82369 
L 224.608329 247.552022 
L 224.971957 248.084446 
L 225.192731 248.080912 
L 225.530385 247.782802 
L 226.010893 247.437359 
L 226.231667 247.514757 
L 226.452441 247.868129 
L 226.764122 248.894993 
L 227.296576 250.597595 
L 227.43943 250.575882 
L 227.595271 250.222716 
L 227.867991 248.929826 
L 228.764074 244.326173 
L 229.036794 243.941544 
L 229.218608 243.993496 
L 229.738076 244.316921 
L 229.751063 244.301312 
L 229.906903 243.922414 
L 230.127677 242.667902 
L 230.439358 239.362828 
L 230.971813 230.794879 
L 231.543228 222.647409 
L 231.776988 221.596466 
L 231.867895 221.669601 
L 232.010749 222.284817 
L 232.296456 224.788808 
L 232.880858 229.714523 
L 233.763954 234.610184 
L 234.205501 237.728042 
L 234.257448 237.704936 
L 234.270435 237.675161 
L 234.374329 237.025143 
L 234.530169 234.287688 
L 234.737956 225.984839 
L 234.99769 205.266306 
L 235.348331 156.453151 
L 236.049613 56.640011 
L 236.153507 54.144 
L 236.192467 54.463264 
L 236.29636 58.630139 
L 236.491161 78.153381 
L 236.958682 156.071028 
L 237.413217 213.605771 
L 237.737884 230.852586 
L 237.997618 235.38613 
L 238.153459 235.935198 
L 238.179432 235.922199 
L 238.283326 235.637887 
L 238.491113 234.202478 
L 238.854741 229.817493 
L 239.452129 219.467804 
L 240.140424 208.419587 
L 240.374185 207.277058 
L 240.452105 207.321222 
L 240.465091 207.34877 
L 240.607945 208.005711 
L 240.880666 210.656241 
L 241.984536 222.620193 
L 242.452057 225.37702 
L 242.750751 226.069815 
L 242.958538 226.125262 
L 243.218272 225.912139 
L 243.607873 225.267339 
L 244.036434 224.060664 
L 244.426035 223.193362 
L 244.555902 223.244409 
L 244.711743 223.659752 
L 244.945503 225.072957 
L 245.335104 229.114408 
L 246.14028 237.480281 
L 246.516894 239.242583 
L 246.828575 239.78105 
L 247.841538 240.519612 
L 248.088285 240.521606 
L 248.348019 240.25213 
L 248.828527 239.751843 
L 249.023328 239.847384 
L 249.386955 240.384157 
L 249.659676 240.602803 
L 249.828503 240.480348 
L 250.088237 239.929955 
L 250.490825 239.172884 
L 250.620692 239.265206 
L 250.789519 239.772632 
L 251.049253 241.413084 
L 251.984296 248.169446 
L 252.075202 248.090406 
L 252.231043 247.504058 
L 252.529737 245.238332 
L 252.971285 242.286244 
L 253.088165 242.14974 
L 253.127125 242.181445 
L 253.256992 242.554159 
L 253.50374 244.155059 
L 254.230995 249.155204 
L 254.906303 252.267687 
L 255.958226 259.055654 
L 256.06212 258.961987 
L 256.230947 258.395732 
L 256.542628 256.355902 
L 257.568577 249.196467 
L 257.971165 247.666723 
L 258.152979 247.555508 
L 258.295832 247.793514 
L 258.529593 248.729234 
L 259.152955 251.350928 
L 259.256848 251.285553 
L 259.399702 250.813454 
L 259.633463 249.09188 
L 260.100984 243.438612 
L 260.516558 239.604769 
L 260.659412 239.311465 
L 260.685385 239.329956 
L 260.789279 239.631643 
L 260.971093 241.011366 
L 261.29576 245.561376 
L 261.984056 255.153196 
L 262.269763 256.448289 
L 262.451577 256.565885 
L 262.659364 256.376329 
L 263.165845 255.910282 
L 264.126861 255.670011 
L 264.321662 255.930786 
L 264.581396 256.720387 
L 265.386571 259.475391 
L 265.516438 259.415156 
L 265.685265 259.017228 
L 265.944999 257.741944 
L 266.425507 254.003128 
L 266.996922 250.12374 
L 267.334576 249.157483 
L 267.893005 247.987831 
L 268.65922 245.380749 
L 268.724153 245.43336 
L 268.867007 245.819798 
L 269.126741 247.339462 
L 269.711143 250.787942 
L 269.828023 250.855415 
L 269.853996 250.833303 
L 269.99685 250.492311 
L 270.295544 248.991446 
L 270.711119 247.25361 
L 270.853972 247.181764 
L 270.866959 247.191488 
L 271.009813 247.473213 
L 271.243574 248.551357 
L 271.711095 252.044999 
L 272.178616 254.928386 
L 272.373417 255.228024 
L 272.386403 255.22331 
L 272.503284 255.040551 
L 272.698084 254.213803 
L 273.087685 251.312868 
L 273.607153 247.945724 
L 273.827927 247.570448 
L 273.944807 247.705738 
L 274.126621 248.36571 
L 274.438302 250.517567 
L 275.308411 256.894553 
L 275.568145 257.432983 
L 275.710999 257.395835 
L 275.892813 257.050097 
L 276.243454 255.767258 
L 276.697988 254.346325 
L 276.866815 254.296901 
L 277.022656 254.54075 
L 277.32135 255.555851 
L 277.736924 256.755548 
L 277.879778 256.753491 
L 278.035618 256.438031 
L 278.308339 255.244875 
L 278.931701 252.471225 
L 279.126501 252.364639 
L 279.295328 252.598886 
L 279.931677 253.79587 
L 279.95765 253.778672 
L 280.113491 253.486977 
L 280.360238 252.400111 
L 280.996586 249.380012 
L 281.087493 249.4857 
L 281.230347 250.136199 
L 281.464107 252.489199 
L 282.464083 264.397884 
L 282.55499 264.287912 
L 282.710831 263.552311 
L 283.009525 260.7963 
L 283.957554 251.566663 
L 284.347155 249.806207 
L 284.567929 249.552882 
L 284.710783 249.686788 
L 284.944543 250.300675 
L 285.567905 252.024759 
L 285.736732 252.007466 
L 285.944519 251.661945 
L 286.438014 250.777429 
L 286.554894 250.952407 
L 286.723721 251.704137 
L 286.983455 254.113997 
L 288.009405 265.260595 
L 288.113298 265.296892 
L 288.139272 265.271009 
L 288.295112 264.88307 
L 288.957434 262.868618 
L 288.970421 262.874028 
L 289.113274 263.083019 
L 289.385995 264.023859 
L 289.80157 265.270462 
L 289.95741 265.26418 
L 290.126237 264.901316 
L 290.450905 263.506822 
L 290.853492 262.105338 
L 290.983359 262.098739 
L 290.996346 262.114222 
L 291.1392 262.48384 
L 291.385947 263.887871 
L 291.970349 267.326136 
L 292.048269 267.298145 
L 292.061256 267.275368 
L 292.191123 266.749787 
L 292.411897 264.644374 
L 292.892405 257.106368 
L 293.294992 252.575062 
L 293.489793 252.030599 
L 293.50278 252.034274 
L 293.606673 252.229117 
L 293.801474 253.27492 
L 294.217048 257.132949 
L 295.217024 266.185918 
L 295.736492 269.444035 
L 296.0222 270.120267 
L 296.191027 270.113904 
L 296.385827 269.798882 
L 296.723481 268.721002 
L 297.424763 265.5642 
L 297.892285 262.495297 
L 299.151995 253.077393 
L 299.281862 253.044078 
L 299.294848 253.055513 
L 299.437702 253.355118 
L 299.671463 254.472027 
L 300.203917 258.507874 
L 300.671439 261.203281 
L 300.983119 261.928693 
L 301.17792 261.976581 
L 301.372721 261.758957 
L 302.022056 260.708644 
L 302.074002 260.752601 
L 302.229843 261.11529 
L 302.47659 262.408813 
L 303.281766 267.220411 
L 303.372673 267.12371 
L 303.528513 266.481338 
L 303.788247 264.235779 
L 304.593422 256.588697 
L 304.736276 256.402533 
L 304.76225 256.417925 
L 304.892117 256.700515 
L 305.138864 257.969292 
L 306.073906 263.333048 
L 307.034922 266.278826 
L 307.203749 266.333107 
L 307.346603 266.068498 
L 307.567377 265.047025 
L 307.969965 261.821113 
L 308.54138 257.754378 
L 308.969941 256.275439 
L 309.554342 255.051295 
L 310.424451 253.635021 
L 310.943919 251.443426 
L 311.411441 249.982334 
L 311.801042 248.803865 
L 312.060776 247.084889 
L 312.424403 242.870376 
L 313.112698 234.888857 
L 313.320486 234.336438 
L 313.411393 234.446617 
L 313.58022 235.145959 
L 313.930861 237.863532 
L 314.372408 240.69548 
L 314.489289 240.839423 
L 314.528249 240.810457 
L 314.645129 240.481789 
L 314.852916 239.02156 
L 315.242517 234.18394 
L 315.723025 229.090422 
L 315.904839 228.630198 
L 315.917826 228.635605 
L 316.02172 228.857945 
L 316.203533 229.94258 
L 316.567161 233.806913 
L 317.216496 240.283796 
L 317.541164 241.67219 
L 317.748951 241.844922 
L 317.904791 241.654267 
L 318.177512 240.853062 
L 319.515142 235.574672 
L 320.450185 229.492185 
L 320.463171 229.494372 
L 320.567065 229.663859 
L 320.735892 230.5222 
L 321.008613 233.30478 
L 322.216376 247.560328 
L 322.333256 247.598711 
L 322.35923 247.573176 
L 322.528057 247.18738 
L 323.047525 245.881432 
L 323.177392 245.995454 
L 323.359206 246.563416 
L 323.6579 248.381652 
L 324.307235 254.165899 
L 324.709823 256.715875 
L 324.87865 256.962528 
L 324.891637 256.956864 
L 325.008517 256.745632 
L 325.203317 255.789755 
L 325.553958 252.698002 
L 326.501987 241.748592 
L 327.294176 232.773807 
L 327.527937 232.052314 
L 327.631831 232.11507 
L 327.800658 232.635288 
L 328.164285 234.728649 
L 328.709727 237.475471 
L 329.112314 238.460828 
L 329.774636 239.809216 
L 330.060344 241.331208 
L 330.449945 244.869872 
L 331.112266 250.738621 
L 331.359014 251.395445 
L 331.475894 251.328509 
L 331.644721 250.837781 
L 331.956402 249.06628 
L 332.39795 246.882803 
L 332.488857 246.841455 
L 332.527817 246.88684 
L 332.657684 247.327281 
L 332.878458 249.055919 
L 333.917394 258.765847 
L 334.047261 258.807187 
L 334.060248 258.796561 
L 334.216088 258.489645 
L 334.488809 257.343068 
L 335.268011 253.828894 
L 335.371904 253.94084 
L 335.527745 254.593893 
L 335.774492 256.782214 
L 336.644601 265.476996 
L 336.800442 265.633432 
L 336.813428 265.625896 
L 336.956282 265.379099 
L 337.657564 263.531253 
L 337.735484 263.601395 
L 337.904311 264.078488 
L 338.164045 265.650028 
L 339.371808 274.200493 
L 339.644529 274.577926 
L 339.80037 274.511882 
L 339.982183 274.143411 
L 340.254904 272.974003 
L 341.3328 267.578028 
L 341.592534 267.434155 
L 343.008085 267.179891 
L 343.683393 266.822708 
L 343.865207 267.204771 
L 344.137928 268.432787 
L 344.774276 271.446034 
L 344.930117 271.48976 
L 345.085957 271.219313 
L 345.488545 269.869524 
L 346.046973 268.39958 
L 346.33268 267.251227 
L 346.657348 264.834187 
L 347.462523 258.355079 
L 347.579404 258.242385 
L 347.618364 258.274836 
L 347.748231 258.627158 
L 347.981991 260.067913 
L 348.930021 266.769206 
L 349.150795 267.020685 
L 349.319622 266.906621 
L 349.540396 266.426942 
L 349.83909 265.164119 
L 350.241677 262.321914 
L 350.826079 258.462979 
L 351.046853 258.111807 
L 351.17672 258.230317 
L 351.397494 258.829932 
L 352.423443 262.046179 
L 353.007845 263.308902 
L 353.397446 264.908939 
L 354.293528 268.757659 
L 354.501315 268.907754 
L 354.644169 268.734036 
L 354.864943 268.021516 
L 355.254544 265.811268 
L 356.007773 261.647067 
L 356.3714 260.719566 
L 356.644121 260.518797 
L 356.994762 260.338831 
L 357.189563 259.852588 
L 357.43631 258.514186 
L 358.306419 252.74354 
L 358.345379 252.766866 
L 358.462259 253.080304 
L 358.65706 254.393288 
L 358.994714 258.523913 
L 359.91677 270.42 
L 360.228451 271.840869 
L 360.501171 272.20807 
L 360.877786 272.587403 
L 361.202453 273.39659 
L 361.773868 274.776819 
L 362.033602 274.903976 
L 362.293336 274.768858 
L 362.669951 274.293448 
L 363.059552 273.411181 
L 363.825767 271.560789 
L 364.046541 271.5385 
L 364.423155 271.827782 
L 365.124437 272.523333 
L 365.436118 273.464626 
L 366.319214 277.23211 
L 367.55295 282.817775 
L 367.942551 283.472674 
L 368.202285 284.578947 
L 368.604873 287.536909 
L 369.371088 293.044826 
L 369.825623 294.783558 
L 370.150291 295.331905 
L 370.358078 295.351742 
L 370.552878 295.122538 
L 370.799626 294.449549 
L 371.09832 292.886757 
L 371.461947 289.600906 
L 372.046349 284.419199 
L 372.124269 284.319226 
L 372.176216 284.381014 
L 372.293096 284.915956 
L 372.500883 287.1865 
L 372.916458 294.973021 
L 373.461899 303.841595 
L 373.81254 306.389333 
L 374.124221 307.243378 
L 374.435902 307.506588 
L 374.929397 307.579345 
L 379.046181 307.584 
L 398.487273 307.584 
L 398.487273 307.584 
" style="fill:none;stroke:#ff7f0e;stroke-linecap:square;stroke-width:1.5;"/>
   </g>
   <g id="patch_103">
    <path d="M 57.6 307.584 
L 57.6 41.472 
" style="fill:none;stroke:#000000;stroke-linecap:square;stroke-linejoin:miter;stroke-width:0.8;"/>
   </g>
   <g id="patch_104">
    <path d="M 414.72 307.584 
L 414.72 41.472 
" style="fill:none;stroke:#000000;stroke-linecap:square;stroke-linejoin:miter;stroke-width:0.8;"/>
   </g>
   <g id="patch_105">
    <path d="M 57.6 307.584 
L 414.72 307.584 
" style="fill:none;stroke:#000000;stroke-linecap:square;stroke-linejoin:miter;stroke-width:0.8;"/>
   </g>
   <g id="patch_106">
    <path d="M 57.6 41.472 
L 414.72 41.472 
" style="fill:none;stroke:#000000;stroke-linecap:square;stroke-linejoin:miter;stroke-width:0.8;"/>
   </g>
  </g>
 </g>
 <defs>
  <clipPath id="pe90370450c">
   <rect height="266.112" width="357.12" x="57.6" y="41.472"/>
  </clipPath>
 </defs>
</svg>
