<?xml version="1.0" encoding="utf-8" standalone="no"?>
<!DOCTYPE svg PUBLIC "-//W3C//DTD SVG 1.1//EN"
  "http://www.w3.org/Graphics/SVG/1.1/DTD/svg11.dtd">
<!-- Created with matplotlib (https://matplotlib.org/) -->
<svg height="345.6pt" version="1.1" viewBox="0 0 460.8 345.6" width="460.8pt" xmlns="http://www.w3.org/2000/svg" xmlns:xlink="http://www.w3.org/1999/xlink">
 <defs>
  <style type="text/css">
*{stroke-linecap:butt;stroke-linejoin:round;}
  </style>
 </defs>
 <g id="figure_1">
  <g id="patch_1">
   <path d="M 0 345.6 
L 460.8 345.6 
L 460.8 0 
L 0 0 
z
" style="fill:#ffffff;"/>
  </g>
  <g id="axes_1">
   <g id="patch_2">
    <path d="M 57.6 307.584 
L 414.72 307.584 
L 414.72 41.472 
L 57.6 41.472 
z
" style="fill:#ffffff;"/>
   </g>
   <g id="patch_3">
    <path clip-path="url(#p9c8c73715e)" d="M 99.973718 307.584 
L 102.697535 307.584 
L 102.697535 271.13077 
L 99.973718 271.13077 
z
" style="fill:#1f77b4;"/>
   </g>
   <g id="patch_4">
    <path clip-path="url(#p9c8c73715e)" d="M 102.697551 307.584 
L 105.421353 307.584 
L 105.421353 286.479379 
L 102.697551 286.479379 
z
" style="fill:#1f77b4;"/>
   </g>
   <g id="patch_5">
    <path clip-path="url(#p9c8c73715e)" d="M 105.421353 307.584 
L 108.145171 307.584 
L 108.145171 258.46807 
L 105.421353 258.46807 
z
" style="fill:#1f77b4;"/>
   </g>
   <g id="patch_6">
    <path clip-path="url(#p9c8c73715e)" d="M 108.145171 307.584 
L 110.868989 307.584 
L 110.868989 251.177424 
L 108.145171 251.177424 
z
" style="fill:#1f77b4;"/>
   </g>
   <g id="patch_7">
    <path clip-path="url(#p9c8c73715e)" d="M 110.868989 307.584 
L 113.592799 307.584 
L 113.592799 213.189053 
L 110.868989 213.189053 
z
" style="fill:#1f77b4;"/>
   </g>
   <g id="patch_8">
    <path clip-path="url(#p9c8c73715e)" d="M 113.592799 307.584 
L 116.316617 307.584 
L 116.316617 205.131239 
L 113.592799 205.131239 
z
" style="fill:#1f77b4;"/>
   </g>
   <g id="patch_9">
    <path clip-path="url(#p9c8c73715e)" d="M 116.316624 307.584 
L 119.040434 307.584 
L 119.040434 215.107649 
L 116.316624 215.107649 
z
" style="fill:#1f77b4;"/>
   </g>
   <g id="patch_10">
    <path clip-path="url(#p9c8c73715e)" d="M 119.040427 307.584 
L 121.764244 307.584 
L 121.764244 230.072922 
L 119.040427 230.072922 
z
" style="fill:#1f77b4;"/>
   </g>
   <g id="patch_11">
    <path clip-path="url(#p9c8c73715e)" d="M 121.764244 307.584 
L 124.488054 307.584 
L 124.488054 236.212211 
L 121.764244 236.212211 
z
" style="fill:#1f77b4;"/>
   </g>
   <g id="patch_12">
    <path clip-path="url(#p9c8c73715e)" d="M 124.488062 307.584 
L 127.211872 307.584 
L 127.211872 235.444772 
L 124.488062 235.444772 
z
" style="fill:#1f77b4;"/>
   </g>
   <g id="patch_13">
    <path clip-path="url(#p9c8c73715e)" d="M 127.211864 307.584 
L 129.935682 307.584 
L 129.935682 242.735623 
L 127.211864 242.735623 
z
" style="fill:#1f77b4;"/>
   </g>
   <g id="patch_14">
    <path clip-path="url(#p9c8c73715e)" d="M 129.935682 307.584 
L 132.659492 307.584 
L 132.659492 245.037755 
L 129.935682 245.037755 
z
" style="fill:#1f77b4;"/>
   </g>
   <g id="patch_15">
    <path clip-path="url(#p9c8c73715e)" d="M 132.659492 307.584 
L 135.38331 307.584 
L 135.38331 242.735623 
L 132.659492 242.735623 
z
" style="fill:#1f77b4;"/>
   </g>
   <g id="patch_16">
    <path clip-path="url(#p9c8c73715e)" d="M 135.383318 307.584 
L 138.107128 307.584 
L 138.107128 250.793544 
L 135.383318 250.793544 
z
" style="fill:#1f77b4;"/>
   </g>
   <g id="patch_17">
    <path clip-path="url(#p9c8c73715e)" d="M 138.10712 307.584 
L 140.830938 307.584 
L 140.830938 245.037932 
L 138.10712 245.037932 
z
" style="fill:#1f77b4;"/>
   </g>
   <g id="patch_18">
    <path clip-path="url(#p9c8c73715e)" d="M 140.830938 307.584 
L 143.554748 307.584 
L 143.554748 249.258667 
L 140.830938 249.258667 
z
" style="fill:#1f77b4;"/>
   </g>
   <g id="patch_19">
    <path clip-path="url(#p9c8c73715e)" d="M 143.554756 307.584 
L 146.278566 307.584 
L 146.278566 236.212211 
L 143.554756 236.212211 
z
" style="fill:#1f77b4;"/>
   </g>
   <g id="patch_20">
    <path clip-path="url(#p9c8c73715e)" d="M 146.278558 307.584 
L 149.002376 307.584 
L 149.002376 244.654214 
L 146.278558 244.654214 
z
" style="fill:#1f77b4;"/>
   </g>
   <g id="patch_21">
    <path clip-path="url(#p9c8c73715e)" d="M 149.002376 307.584 
L 151.726186 307.584 
L 151.726186 249.642386 
L 149.002376 249.642386 
z
" style="fill:#1f77b4;"/>
   </g>
   <g id="patch_22">
    <path clip-path="url(#p9c8c73715e)" d="M 151.726186 307.584 
L 154.450003 307.584 
L 154.450003 246.572805 
L 151.726186 246.572805 
z
" style="fill:#1f77b4;"/>
   </g>
   <g id="patch_23">
    <path clip-path="url(#p9c8c73715e)" d="M 154.450011 307.584 
L 157.173821 307.584 
L 157.173821 250.793544 
L 154.450011 250.793544 
z
" style="fill:#1f77b4;"/>
   </g>
   <g id="patch_24">
    <path clip-path="url(#p9c8c73715e)" d="M 157.173813 307.584 
L 159.897631 307.584 
L 159.897631 248.107678 
L 157.173813 248.107678 
z
" style="fill:#1f77b4;"/>
   </g>
   <g id="patch_25">
    <path clip-path="url(#p9c8c73715e)" d="M 159.897631 307.584 
L 162.621441 307.584 
L 162.621441 255.014456 
L 159.897631 255.014456 
z
" style="fill:#1f77b4;"/>
   </g>
   <g id="patch_26">
    <path clip-path="url(#p9c8c73715e)" d="M 162.621441 307.584 
L 165.345259 307.584 
L 165.345259 270.363334 
L 162.621441 270.363334 
z
" style="fill:#1f77b4;"/>
   </g>
   <g id="patch_27">
    <path clip-path="url(#p9c8c73715e)" d="M 165.345267 307.584 
L 168.069077 307.584 
L 168.069077 266.909755 
L 165.345267 266.909755 
z
" style="fill:#1f77b4;"/>
   </g>
   <g id="patch_28">
    <path clip-path="url(#p9c8c73715e)" d="M 168.069069 307.584 
L 170.792879 307.584 
L 170.792879 268.060912 
L 168.069069 268.060912 
z
" style="fill:#1f77b4;"/>
   </g>
   <g id="patch_29">
    <path clip-path="url(#p9c8c73715e)" d="M 170.792879 307.584 
L 173.516697 307.584 
L 173.516697 264.223843 
L 170.792879 264.223843 
z
" style="fill:#1f77b4;"/>
   </g>
   <g id="patch_30">
    <path clip-path="url(#p9c8c73715e)" d="M 173.516697 307.584 
L 176.240511 307.584 
L 176.240511 269.595844 
L 173.516697 269.595844 
z
" style="fill:#1f77b4;"/>
   </g>
   <g id="patch_31">
    <path clip-path="url(#p9c8c73715e)" d="M 176.240507 307.584 
L 178.964321 307.584 
L 178.964321 265.374937 
L 176.240507 265.374937 
z
" style="fill:#1f77b4;"/>
   </g>
   <g id="patch_32">
    <path clip-path="url(#p9c8c73715e)" d="M 178.964325 307.584 
L 181.688135 307.584 
L 181.688135 263.84 
L 178.964325 263.84 
z
" style="fill:#1f77b4;"/>
   </g>
   <g id="patch_33">
    <path clip-path="url(#p9c8c73715e)" d="M 181.688135 307.584 
L 184.411949 307.584 
L 184.411949 261.154031 
L 181.688135 261.154031 
z
" style="fill:#1f77b4;"/>
   </g>
   <g id="patch_34">
    <path clip-path="url(#p9c8c73715e)" d="M 184.411945 307.584 
L 187.135759 307.584 
L 187.135759 258.468 
L 184.411945 258.468 
z
" style="fill:#1f77b4;"/>
   </g>
   <g id="patch_35">
    <path clip-path="url(#p9c8c73715e)" d="M 187.135762 307.584 
L 189.859576 307.584 
L 189.859576 263.072625 
L 187.135762 263.072625 
z
" style="fill:#1f77b4;"/>
   </g>
   <g id="patch_36">
    <path clip-path="url(#p9c8c73715e)" d="M 189.859572 307.584 
L 192.583386 307.584 
L 192.583386 260.002875 
L 189.859572 260.002875 
z
" style="fill:#1f77b4;"/>
   </g>
   <g id="patch_37">
    <path clip-path="url(#p9c8c73715e)" d="M 192.58339 307.584 
L 195.307204 307.584 
L 195.307204 263.072625 
L 192.58339 263.072625 
z
" style="fill:#1f77b4;"/>
   </g>
   <g id="patch_38">
    <path clip-path="url(#p9c8c73715e)" d="M 195.3072 307.584 
L 198.031014 307.584 
L 198.031014 261.53775 
L 195.3072 261.53775 
z
" style="fill:#1f77b4;"/>
   </g>
   <g id="patch_39">
    <path clip-path="url(#p9c8c73715e)" d="M 198.031018 307.584 
L 200.754832 307.584 
L 200.754832 250.793625 
L 198.031018 250.793625 
z
" style="fill:#1f77b4;"/>
   </g>
   <g id="patch_40">
    <path clip-path="url(#p9c8c73715e)" d="M 200.754832 307.584 
L 203.478642 307.584 
L 203.478642 248.491228 
L 200.754832 248.491228 
z
" style="fill:#1f77b4;"/>
   </g>
   <g id="patch_41">
    <path clip-path="url(#p9c8c73715e)" d="M 203.478642 307.584 
L 206.202458 307.584 
L 206.202458 246.572762 
L 203.478642 246.572762 
z
" style="fill:#1f77b4;"/>
   </g>
   <g id="patch_42">
    <path clip-path="url(#p9c8c73715e)" d="M 206.20246 307.584 
L 208.926272 307.584 
L 208.926272 251.944741 
L 206.20246 251.944741 
z
" style="fill:#1f77b4;"/>
   </g>
   <g id="patch_43">
    <path clip-path="url(#p9c8c73715e)" d="M 208.92627 307.584 
L 211.650084 307.584 
L 211.650084 240.816937 
L 208.92627 240.816937 
z
" style="fill:#1f77b4;"/>
   </g>
   <g id="patch_44">
    <path clip-path="url(#p9c8c73715e)" d="M 211.650084 307.584 
L 214.373898 307.584 
L 214.373898 248.875031 
L 211.650084 248.875031 
z
" style="fill:#1f77b4;"/>
   </g>
   <g id="patch_45">
    <path clip-path="url(#p9c8c73715e)" d="M 214.373898 307.584 
L 217.097711 307.584 
L 217.097711 245.421562 
L 214.373898 245.421562 
z
" style="fill:#1f77b4;"/>
   </g>
   <g id="patch_46">
    <path clip-path="url(#p9c8c73715e)" d="M 217.097711 307.584 
L 219.821523 307.584 
L 219.821523 249.258708 
L 217.097711 249.258708 
z
" style="fill:#1f77b4;"/>
   </g>
   <g id="patch_47">
    <path clip-path="url(#p9c8c73715e)" d="M 219.821523 307.584 
L 222.545337 307.584 
L 222.545337 257.316844 
L 219.821523 257.316844 
z
" style="fill:#1f77b4;"/>
   </g>
   <g id="patch_48">
    <path clip-path="url(#p9c8c73715e)" d="M 222.545337 307.584 
L 225.269151 307.584 
L 225.269151 248.875031 
L 222.545337 248.875031 
z
" style="fill:#1f77b4;"/>
   </g>
   <g id="patch_49">
    <path clip-path="url(#p9c8c73715e)" d="M 225.269151 307.584 
L 227.992964 307.584 
L 227.992964 252.32848 
L 225.269151 252.32848 
z
" style="fill:#1f77b4;"/>
   </g>
   <g id="patch_50">
    <path clip-path="url(#p9c8c73715e)" d="M 227.992964 307.584 
L 230.716778 307.584 
L 230.716778 248.107593 
L 227.992964 248.107593 
z
" style="fill:#1f77b4;"/>
   </g>
   <g id="patch_51">
    <path clip-path="url(#p9c8c73715e)" d="M 230.716778 307.584 
L 233.440591 307.584 
L 233.440591 228.921642 
L 230.716778 228.921642 
z
" style="fill:#1f77b4;"/>
   </g>
   <g id="patch_52">
    <path clip-path="url(#p9c8c73715e)" d="M 233.440591 307.584 
L 236.164405 307.584 
L 236.164405 240.433207 
L 233.440591 240.433207 
z
" style="fill:#1f77b4;"/>
   </g>
   <g id="patch_53">
    <path clip-path="url(#p9c8c73715e)" d="M 236.164405 307.584 
L 238.888218 307.584 
L 238.888218 127.619874 
L 236.164405 127.619874 
z
" style="fill:#1f77b4;"/>
   </g>
   <g id="patch_54">
    <path clip-path="url(#p9c8c73715e)" d="M 238.888218 307.584 
L 241.612032 307.584 
L 241.612032 219.328671 
L 238.888218 219.328671 
z
" style="fill:#1f77b4;"/>
   </g>
   <g id="patch_55">
    <path clip-path="url(#p9c8c73715e)" d="M 241.612032 307.584 
L 244.335846 307.584 
L 244.335846 231.223968 
L 241.612032 231.223968 
z
" style="fill:#1f77b4;"/>
   </g>
   <g id="patch_56">
    <path clip-path="url(#p9c8c73715e)" d="M 244.335845 307.584 
L 247.059657 307.584 
L 247.059657 232.375098 
L 244.335845 232.375098 
z
" style="fill:#1f77b4;"/>
   </g>
   <g id="patch_57">
    <path clip-path="url(#p9c8c73715e)" d="M 247.059658 307.584 
L 249.783472 307.584 
L 249.783472 236.97975 
L 247.059658 236.97975 
z
" style="fill:#1f77b4;"/>
   </g>
   <g id="patch_58">
    <path clip-path="url(#p9c8c73715e)" d="M 249.783472 307.584 
L 252.507286 307.584 
L 252.507286 240.433218 
L 249.783472 240.433218 
z
" style="fill:#1f77b4;"/>
   </g>
   <g id="patch_59">
    <path clip-path="url(#p9c8c73715e)" d="M 252.507288 307.584 
L 255.2311 307.584 
L 255.2311 244.270361 
L 252.507288 244.270361 
z
" style="fill:#1f77b4;"/>
   </g>
   <g id="patch_60">
    <path clip-path="url(#p9c8c73715e)" d="M 255.231098 307.584 
L 257.954912 307.584 
L 257.954912 252.712219 
L 255.231098 252.712219 
z
" style="fill:#1f77b4;"/>
   </g>
   <g id="patch_61">
    <path clip-path="url(#p9c8c73715e)" d="M 257.954912 307.584 
L 260.678726 307.584 
L 260.678726 250.793625 
L 257.954912 250.793625 
z
" style="fill:#1f77b4;"/>
   </g>
   <g id="patch_62">
    <path clip-path="url(#p9c8c73715e)" d="M 260.678726 307.584 
L 263.40254 307.584 
L 263.40254 248.107593 
L 260.678726 248.107593 
z
" style="fill:#1f77b4;"/>
   </g>
   <g id="patch_63">
    <path clip-path="url(#p9c8c73715e)" d="M 263.40254 307.584 
L 266.126352 307.584 
L 266.126352 257.316808 
L 263.40254 257.316808 
z
" style="fill:#1f77b4;"/>
   </g>
   <g id="patch_64">
    <path clip-path="url(#p9c8c73715e)" d="M 266.12635 307.584 
L 268.850164 307.584 
L 268.850164 250.793665 
L 266.12635 250.793665 
z
" style="fill:#1f77b4;"/>
   </g>
   <g id="patch_65">
    <path clip-path="url(#p9c8c73715e)" d="M 268.850168 307.584 
L 271.573978 307.584 
L 271.573978 251.177263 
L 268.850168 251.177263 
z
" style="fill:#1f77b4;"/>
   </g>
   <g id="patch_66">
    <path clip-path="url(#p9c8c73715e)" d="M 271.573974 307.584 
L 274.297788 307.584 
L 274.297788 253.095937 
L 271.573974 253.095937 
z
" style="fill:#1f77b4;"/>
   </g>
   <g id="patch_67">
    <path clip-path="url(#p9c8c73715e)" d="M 274.297792 307.584 
L 277.021606 307.584 
L 277.021606 256.933125 
L 274.297792 256.933125 
z
" style="fill:#1f77b4;"/>
   </g>
   <g id="patch_68">
    <path clip-path="url(#p9c8c73715e)" d="M 277.021602 307.584 
L 279.745416 307.584 
L 279.745416 254.630812 
L 277.021602 254.630812 
z
" style="fill:#1f77b4;"/>
   </g>
   <g id="patch_69">
    <path clip-path="url(#p9c8c73715e)" d="M 279.745419 307.584 
L 282.469233 307.584 
L 282.469233 254.247094 
L 279.745419 254.247094 
z
" style="fill:#1f77b4;"/>
   </g>
   <g id="patch_70">
    <path clip-path="url(#p9c8c73715e)" d="M 282.469229 307.584 
L 285.193043 307.584 
L 285.193043 255.39825 
L 282.469229 255.39825 
z
" style="fill:#1f77b4;"/>
   </g>
   <g id="patch_71">
    <path clip-path="url(#p9c8c73715e)" d="M 285.193047 307.584 
L 287.916861 307.584 
L 287.916861 257.700562 
L 285.193047 257.700562 
z
" style="fill:#1f77b4;"/>
   </g>
   <g id="patch_72">
    <path clip-path="url(#p9c8c73715e)" d="M 287.916857 307.584 
L 290.640671 307.584 
L 290.640671 266.526094 
L 287.916857 266.526094 
z
" style="fill:#1f77b4;"/>
   </g>
   <g id="patch_73">
    <path clip-path="url(#p9c8c73715e)" d="M 290.640675 307.584 
L 293.364485 307.584 
L 293.364485 259.619088 
L 290.640675 259.619088 
z
" style="fill:#1f77b4;"/>
   </g>
   <g id="patch_74">
    <path clip-path="url(#p9c8c73715e)" d="M 293.364485 307.584 
L 296.088299 307.584 
L 296.088299 261.154031 
L 293.364485 261.154031 
z
" style="fill:#1f77b4;"/>
   </g>
   <g id="patch_75">
    <path clip-path="url(#p9c8c73715e)" d="M 296.088295 307.584 
L 298.812109 307.584 
L 298.812109 264.6075 
L 296.088295 264.6075 
z
" style="fill:#1f77b4;"/>
   </g>
   <g id="patch_76">
    <path clip-path="url(#p9c8c73715e)" d="M 298.812113 307.584 
L 301.535931 307.584 
L 301.535931 260.002942 
L 298.812113 260.002942 
z
" style="fill:#1f77b4;"/>
   </g>
   <g id="patch_77">
    <path clip-path="url(#p9c8c73715e)" d="M 301.535938 307.584 
L 304.259748 307.584 
L 304.259748 261.537684 
L 301.535938 261.537684 
z
" style="fill:#1f77b4;"/>
   </g>
   <g id="patch_78">
    <path clip-path="url(#p9c8c73715e)" d="M 304.259741 307.584 
L 306.983551 307.584 
L 306.983551 256.549334 
L 304.259741 256.549334 
z
" style="fill:#1f77b4;"/>
   </g>
   <g id="patch_79">
    <path clip-path="url(#p9c8c73715e)" d="M 306.983551 307.584 
L 309.707368 307.584 
L 309.707368 253.863451 
L 306.983551 253.863451 
z
" style="fill:#1f77b4;"/>
   </g>
   <g id="patch_80">
    <path clip-path="url(#p9c8c73715e)" d="M 309.707376 307.584 
L 312.431186 307.584 
L 312.431186 242.35172 
L 309.707376 242.35172 
z
" style="fill:#1f77b4;"/>
   </g>
   <g id="patch_81">
    <path clip-path="url(#p9c8c73715e)" d="M 312.431178 307.584 
L 315.154996 307.584 
L 315.154996 235.061259 
L 312.431178 235.061259 
z
" style="fill:#1f77b4;"/>
   </g>
   <g id="patch_82">
    <path clip-path="url(#p9c8c73715e)" d="M 315.154996 307.584 
L 317.878806 307.584 
L 317.878806 236.212211 
L 315.154996 236.212211 
z
" style="fill:#1f77b4;"/>
   </g>
   <g id="patch_83">
    <path clip-path="url(#p9c8c73715e)" d="M 317.878806 307.584 
L 320.602624 307.584 
L 320.602624 235.061259 
L 317.878806 235.061259 
z
" style="fill:#1f77b4;"/>
   </g>
   <g id="patch_84">
    <path clip-path="url(#p9c8c73715e)" d="M 320.602632 307.584 
L 323.326442 307.584 
L 323.326442 240.433123 
L 320.602632 240.433123 
z
" style="fill:#1f77b4;"/>
   </g>
   <g id="patch_85">
    <path clip-path="url(#p9c8c73715e)" d="M 323.326434 307.584 
L 326.050252 307.584 
L 326.050252 253.863451 
L 323.326434 253.863451 
z
" style="fill:#1f77b4;"/>
   </g>
   <g id="patch_86">
    <path clip-path="url(#p9c8c73715e)" d="M 326.050252 307.584 
L 328.774062 307.584 
L 328.774062 232.375018 
L 326.050252 232.375018 
z
" style="fill:#1f77b4;"/>
   </g>
   <g id="patch_87">
    <path clip-path="url(#p9c8c73715e)" d="M 328.77407 307.584 
L 331.49788 307.584 
L 331.49788 244.654035 
L 328.77407 244.654035 
z
" style="fill:#1f77b4;"/>
   </g>
   <g id="patch_88">
    <path clip-path="url(#p9c8c73715e)" d="M 331.497872 307.584 
L 334.22169 307.584 
L 334.22169 246.956523 
L 331.497872 246.956523 
z
" style="fill:#1f77b4;"/>
   </g>
   <g id="patch_89">
    <path clip-path="url(#p9c8c73715e)" d="M 334.22169 307.584 
L 336.9455 307.584 
L 336.9455 258.46793 
L 334.22169 258.46793 
z
" style="fill:#1f77b4;"/>
   </g>
   <g id="patch_90">
    <path clip-path="url(#p9c8c73715e)" d="M 336.9455 307.584 
L 339.669317 307.584 
L 339.669317 264.607561 
L 336.9455 264.607561 
z
" style="fill:#1f77b4;"/>
   </g>
   <g id="patch_91">
    <path clip-path="url(#p9c8c73715e)" d="M 339.669325 307.584 
L 342.393135 307.584 
L 342.393135 265.374877 
L 339.669325 265.374877 
z
" style="fill:#1f77b4;"/>
   </g>
   <g id="patch_92">
    <path clip-path="url(#p9c8c73715e)" d="M 342.393127 307.584 
L 345.116945 307.584 
L 345.116945 262.68897 
L 342.393127 262.68897 
z
" style="fill:#1f77b4;"/>
   </g>
   <g id="patch_93">
    <path clip-path="url(#p9c8c73715e)" d="M 345.116945 307.584 
L 347.840755 307.584 
L 347.840755 257.700491 
L 345.116945 257.700491 
z
" style="fill:#1f77b4;"/>
   </g>
   <g id="patch_94">
    <path clip-path="url(#p9c8c73715e)" d="M 347.840763 307.584 
L 350.564573 307.584 
L 350.564573 254.247018 
L 347.840763 254.247018 
z
" style="fill:#1f77b4;"/>
   </g>
   <g id="patch_95">
    <path clip-path="url(#p9c8c73715e)" d="M 350.564565 307.584 
L 353.288383 307.584 
L 353.288383 252.328578 
L 350.564565 252.328578 
z
" style="fill:#1f77b4;"/>
   </g>
   <g id="patch_96">
    <path clip-path="url(#p9c8c73715e)" d="M 353.288383 307.584 
L 356.012193 307.584 
L 356.012193 258.46793 
L 353.288383 258.46793 
z
" style="fill:#1f77b4;"/>
   </g>
   <g id="patch_97">
    <path clip-path="url(#p9c8c73715e)" d="M 356.012193 307.584 
L 358.736011 307.584 
L 358.736011 246.189087 
L 356.012193 246.189087 
z
" style="fill:#1f77b4;"/>
   </g>
   <g id="patch_98">
    <path clip-path="url(#p9c8c73715e)" d="M 358.736019 307.584 
L 361.459829 307.584 
L 361.459829 261.921404 
L 358.736019 261.921404 
z
" style="fill:#1f77b4;"/>
   </g>
   <g id="patch_99">
    <path clip-path="url(#p9c8c73715e)" d="M 361.459821 307.584 
L 364.183639 307.584 
L 364.183639 265.758716 
L 361.459821 265.758716 
z
" style="fill:#1f77b4;"/>
   </g>
   <g id="patch_100">
    <path clip-path="url(#p9c8c73715e)" d="M 364.183639 307.584 
L 366.907456 307.584 
L 366.907456 268.061025 
L 364.183639 268.061025 
z
" style="fill:#1f77b4;"/>
   </g>
   <g id="patch_101">
    <path clip-path="url(#p9c8c73715e)" d="M 366.907456 307.584 
L 369.631259 307.584 
L 369.631259 281.874734 
L 366.907456 281.874734 
z
" style="fill:#1f77b4;"/>
   </g>
   <g id="patch_102">
    <path clip-path="url(#p9c8c73715e)" d="M 369.631259 307.584 
L 372.355076 307.584 
L 372.355076 276.119107 
L 369.631259 276.119107 
z
" style="fill:#1f77b4;"/>
   </g>
   <g id="matplotlib.axis_1">
    <g id="xtick_1">
     <g id="line2d_1">
      <defs>
       <path d="M 0 0 
L 0 3.5 
" id="m2b99bd4fd8" style="stroke:#000000;stroke-width:0.8;"/>
      </defs>
      <g>
       <use style="stroke:#000000;stroke-width:0.8;" x="106.299264" xlink:href="#m2b99bd4fd8" y="307.584"/>
      </g>
     </g>
     <g id="text_1">
      <!-- −2 -->
      <defs>
       <path d="M 10.59375 35.5 
L 73.1875 35.5 
L 73.1875 27.203125 
L 10.59375 27.203125 
z
" id="DejaVuSans-8722"/>
       <path d="M 19.1875 8.296875 
L 53.609375 8.296875 
L 53.609375 0 
L 7.328125 0 
L 7.328125 8.296875 
Q 12.9375 14.109375 22.625 23.890625 
Q 32.328125 33.6875 34.8125 36.53125 
Q 39.546875 41.84375 41.421875 45.53125 
Q 43.3125 49.21875 43.3125 52.78125 
Q 43.3125 58.59375 39.234375 62.25 
Q 35.15625 65.921875 28.609375 65.921875 
Q 23.96875 65.921875 18.8125 64.3125 
Q 13.671875 62.703125 7.8125 59.421875 
L 7.8125 69.390625 
Q 13.765625 71.78125 18.9375 73 
Q 24.125 74.21875 28.421875 74.21875 
Q 39.75 74.21875 46.484375 68.546875 
Q 53.21875 62.890625 53.21875 53.421875 
Q 53.21875 48.921875 51.53125 44.890625 
Q 49.859375 40.875 45.40625 35.40625 
Q 44.1875 33.984375 37.640625 27.21875 
Q 31.109375 20.453125 19.1875 8.296875 
z
" id="DejaVuSans-50"/>
      </defs>
      <g transform="translate(93.768405 327.501344)scale(0.17 -0.17)">
       <use xlink:href="#DejaVuSans-8722"/>
       <use x="83.789062" xlink:href="#DejaVuSans-50"/>
      </g>
     </g>
    </g>
    <g id="xtick_2">
     <g id="line2d_2">
      <g>
       <use style="stroke:#000000;stroke-width:0.8;" x="171.232338" xlink:href="#m2b99bd4fd8" y="307.584"/>
      </g>
     </g>
     <g id="text_2">
      <!-- −1 -->
      <defs>
       <path d="M 12.40625 8.296875 
L 28.515625 8.296875 
L 28.515625 63.921875 
L 10.984375 60.40625 
L 10.984375 69.390625 
L 28.421875 72.90625 
L 38.28125 72.90625 
L 38.28125 8.296875 
L 54.390625 8.296875 
L 54.390625 0 
L 12.40625 0 
z
" id="DejaVuSans-49"/>
      </defs>
      <g transform="translate(158.701478 327.501344)scale(0.17 -0.17)">
       <use xlink:href="#DejaVuSans-8722"/>
       <use x="83.789062" xlink:href="#DejaVuSans-49"/>
      </g>
     </g>
    </g>
    <g id="xtick_3">
     <g id="line2d_3">
      <g>
       <use style="stroke:#000000;stroke-width:0.8;" x="236.165411" xlink:href="#m2b99bd4fd8" y="307.584"/>
      </g>
     </g>
     <g id="text_3">
      <!-- 0 -->
      <defs>
       <path d="M 31.78125 66.40625 
Q 24.171875 66.40625 20.328125 58.90625 
Q 16.5 51.421875 16.5 36.375 
Q 16.5 21.390625 20.328125 13.890625 
Q 24.171875 6.390625 31.78125 6.390625 
Q 39.453125 6.390625 43.28125 13.890625 
Q 47.125 21.390625 47.125 36.375 
Q 47.125 51.421875 43.28125 58.90625 
Q 39.453125 66.40625 31.78125 66.40625 
z
M 31.78125 74.21875 
Q 44.046875 74.21875 50.515625 64.515625 
Q 56.984375 54.828125 56.984375 36.375 
Q 56.984375 17.96875 50.515625 8.265625 
Q 44.046875 -1.421875 31.78125 -1.421875 
Q 19.53125 -1.421875 13.0625 8.265625 
Q 6.59375 17.96875 6.59375 36.375 
Q 6.59375 54.828125 13.0625 64.515625 
Q 19.53125 74.21875 31.78125 74.21875 
z
" id="DejaVuSans-48"/>
      </defs>
      <g transform="translate(230.757286 327.501344)scale(0.17 -0.17)">
       <use xlink:href="#DejaVuSans-48"/>
      </g>
     </g>
    </g>
    <g id="xtick_4">
     <g id="line2d_4">
      <g>
       <use style="stroke:#000000;stroke-width:0.8;" x="301.098485" xlink:href="#m2b99bd4fd8" y="307.584"/>
      </g>
     </g>
     <g id="text_4">
      <!-- 1 -->
      <g transform="translate(295.69036 327.501344)scale(0.17 -0.17)">
       <use xlink:href="#DejaVuSans-49"/>
      </g>
     </g>
    </g>
    <g id="xtick_5">
     <g id="line2d_5">
      <g>
       <use style="stroke:#000000;stroke-width:0.8;" x="366.031558" xlink:href="#m2b99bd4fd8" y="307.584"/>
      </g>
     </g>
     <g id="text_5">
      <!-- 2 -->
      <g transform="translate(360.623433 327.501344)scale(0.17 -0.17)">
       <use xlink:href="#DejaVuSans-50"/>
      </g>
     </g>
    </g>
    <g id="text_6">
     <!-- Position in Radian -->
     <defs>
      <path d="M 19.671875 64.796875 
L 19.671875 37.40625 
L 32.078125 37.40625 
Q 38.96875 37.40625 42.71875 40.96875 
Q 46.484375 44.53125 46.484375 51.125 
Q 46.484375 57.671875 42.71875 61.234375 
Q 38.96875 64.796875 32.078125 64.796875 
z
M 9.8125 72.90625 
L 32.078125 72.90625 
Q 44.34375 72.90625 50.609375 67.359375 
Q 56.890625 61.8125 56.890625 51.125 
Q 56.890625 40.328125 50.609375 34.8125 
Q 44.34375 29.296875 32.078125 29.296875 
L 19.671875 29.296875 
L 19.671875 0 
L 9.8125 0 
z
" id="DejaVuSans-80"/>
      <path d="M 30.609375 48.390625 
Q 23.390625 48.390625 19.1875 42.75 
Q 14.984375 37.109375 14.984375 27.296875 
Q 14.984375 17.484375 19.15625 11.84375 
Q 23.34375 6.203125 30.609375 6.203125 
Q 37.796875 6.203125 41.984375 11.859375 
Q 46.1875 17.53125 46.1875 27.296875 
Q 46.1875 37.015625 41.984375 42.703125 
Q 37.796875 48.390625 30.609375 48.390625 
z
M 30.609375 56 
Q 42.328125 56 49.015625 48.375 
Q 55.71875 40.765625 55.71875 27.296875 
Q 55.71875 13.875 49.015625 6.21875 
Q 42.328125 -1.421875 30.609375 -1.421875 
Q 18.84375 -1.421875 12.171875 6.21875 
Q 5.515625 13.875 5.515625 27.296875 
Q 5.515625 40.765625 12.171875 48.375 
Q 18.84375 56 30.609375 56 
z
" id="DejaVuSans-111"/>
      <path d="M 44.28125 53.078125 
L 44.28125 44.578125 
Q 40.484375 46.53125 36.375 47.5 
Q 32.28125 48.484375 27.875 48.484375 
Q 21.1875 48.484375 17.84375 46.4375 
Q 14.5 44.390625 14.5 40.28125 
Q 14.5 37.15625 16.890625 35.375 
Q 19.28125 33.59375 26.515625 31.984375 
L 29.59375 31.296875 
Q 39.15625 29.25 43.1875 25.515625 
Q 47.21875 21.78125 47.21875 15.09375 
Q 47.21875 7.46875 41.1875 3.015625 
Q 35.15625 -1.421875 24.609375 -1.421875 
Q 20.21875 -1.421875 15.453125 -0.5625 
Q 10.6875 0.296875 5.421875 2 
L 5.421875 11.28125 
Q 10.40625 8.6875 15.234375 7.390625 
Q 20.0625 6.109375 24.8125 6.109375 
Q 31.15625 6.109375 34.5625 8.28125 
Q 37.984375 10.453125 37.984375 14.40625 
Q 37.984375 18.0625 35.515625 20.015625 
Q 33.0625 21.96875 24.703125 23.78125 
L 21.578125 24.515625 
Q 13.234375 26.265625 9.515625 29.90625 
Q 5.8125 33.546875 5.8125 39.890625 
Q 5.8125 47.609375 11.28125 51.796875 
Q 16.75 56 26.8125 56 
Q 31.78125 56 36.171875 55.265625 
Q 40.578125 54.546875 44.28125 53.078125 
z
" id="DejaVuSans-115"/>
      <path d="M 9.421875 54.6875 
L 18.40625 54.6875 
L 18.40625 0 
L 9.421875 0 
z
M 9.421875 75.984375 
L 18.40625 75.984375 
L 18.40625 64.59375 
L 9.421875 64.59375 
z
" id="DejaVuSans-105"/>
      <path d="M 18.3125 70.21875 
L 18.3125 54.6875 
L 36.8125 54.6875 
L 36.8125 47.703125 
L 18.3125 47.703125 
L 18.3125 18.015625 
Q 18.3125 11.328125 20.140625 9.421875 
Q 21.96875 7.515625 27.59375 7.515625 
L 36.8125 7.515625 
L 36.8125 0 
L 27.59375 0 
Q 17.1875 0 13.234375 3.875 
Q 9.28125 7.765625 9.28125 18.015625 
L 9.28125 47.703125 
L 2.6875 47.703125 
L 2.6875 54.6875 
L 9.28125 54.6875 
L 9.28125 70.21875 
z
" id="DejaVuSans-116"/>
      <path d="M 54.890625 33.015625 
L 54.890625 0 
L 45.90625 0 
L 45.90625 32.71875 
Q 45.90625 40.484375 42.875 44.328125 
Q 39.84375 48.1875 33.796875 48.1875 
Q 26.515625 48.1875 22.3125 43.546875 
Q 18.109375 38.921875 18.109375 30.90625 
L 18.109375 0 
L 9.078125 0 
L 9.078125 54.6875 
L 18.109375 54.6875 
L 18.109375 46.1875 
Q 21.34375 51.125 25.703125 53.5625 
Q 30.078125 56 35.796875 56 
Q 45.21875 56 50.046875 50.171875 
Q 54.890625 44.34375 54.890625 33.015625 
z
" id="DejaVuSans-110"/>
      <path id="DejaVuSans-32"/>
      <path d="M 44.390625 34.1875 
Q 47.5625 33.109375 50.5625 29.59375 
Q 53.5625 26.078125 56.59375 19.921875 
L 66.609375 0 
L 56 0 
L 46.6875 18.703125 
Q 43.0625 26.03125 39.671875 28.421875 
Q 36.28125 30.8125 30.421875 30.8125 
L 19.671875 30.8125 
L 19.671875 0 
L 9.8125 0 
L 9.8125 72.90625 
L 32.078125 72.90625 
Q 44.578125 72.90625 50.734375 67.671875 
Q 56.890625 62.453125 56.890625 51.90625 
Q 56.890625 45.015625 53.6875 40.46875 
Q 50.484375 35.9375 44.390625 34.1875 
z
M 19.671875 64.796875 
L 19.671875 38.921875 
L 32.078125 38.921875 
Q 39.203125 38.921875 42.84375 42.21875 
Q 46.484375 45.515625 46.484375 51.90625 
Q 46.484375 58.296875 42.84375 61.546875 
Q 39.203125 64.796875 32.078125 64.796875 
z
" id="DejaVuSans-82"/>
      <path d="M 34.28125 27.484375 
Q 23.390625 27.484375 19.1875 25 
Q 14.984375 22.515625 14.984375 16.5 
Q 14.984375 11.71875 18.140625 8.90625 
Q 21.296875 6.109375 26.703125 6.109375 
Q 34.1875 6.109375 38.703125 11.40625 
Q 43.21875 16.703125 43.21875 25.484375 
L 43.21875 27.484375 
z
M 52.203125 31.203125 
L 52.203125 0 
L 43.21875 0 
L 43.21875 8.296875 
Q 40.140625 3.328125 35.546875 0.953125 
Q 30.953125 -1.421875 24.3125 -1.421875 
Q 15.921875 -1.421875 10.953125 3.296875 
Q 6 8.015625 6 15.921875 
Q 6 25.140625 12.171875 29.828125 
Q 18.359375 34.515625 30.609375 34.515625 
L 43.21875 34.515625 
L 43.21875 35.40625 
Q 43.21875 41.609375 39.140625 45 
Q 35.0625 48.390625 27.6875 48.390625 
Q 23 48.390625 18.546875 47.265625 
Q 14.109375 46.140625 10.015625 43.890625 
L 10.015625 52.203125 
Q 14.9375 54.109375 19.578125 55.046875 
Q 24.21875 56 28.609375 56 
Q 40.484375 56 46.34375 49.84375 
Q 52.203125 43.703125 52.203125 31.203125 
z
" id="DejaVuSans-97"/>
      <path d="M 45.40625 46.390625 
L 45.40625 75.984375 
L 54.390625 75.984375 
L 54.390625 0 
L 45.40625 0 
L 45.40625 8.203125 
Q 42.578125 3.328125 38.25 0.953125 
Q 33.9375 -1.421875 27.875 -1.421875 
Q 17.96875 -1.421875 11.734375 6.484375 
Q 5.515625 14.40625 5.515625 27.296875 
Q 5.515625 40.1875 11.734375 48.09375 
Q 17.96875 56 27.875 56 
Q 33.9375 56 38.25 53.625 
Q 42.578125 51.265625 45.40625 46.390625 
z
M 14.796875 27.296875 
Q 14.796875 17.390625 18.875 11.75 
Q 22.953125 6.109375 30.078125 6.109375 
Q 37.203125 6.109375 41.296875 11.75 
Q 45.40625 17.390625 45.40625 27.296875 
Q 45.40625 37.203125 41.296875 42.84375 
Q 37.203125 48.484375 30.078125 48.484375 
Q 22.953125 48.484375 18.875 42.84375 
Q 14.796875 37.203125 14.796875 27.296875 
z
" id="DejaVuSans-100"/>
     </defs>
     <g transform="translate(102.024844 357.832125)scale(0.3 -0.3)">
      <use xlink:href="#DejaVuSans-80"/>
      <use x="60.255859" xlink:href="#DejaVuSans-111"/>
      <use x="121.4375" xlink:href="#DejaVuSans-115"/>
      <use x="173.537109" xlink:href="#DejaVuSans-105"/>
      <use x="201.320312" xlink:href="#DejaVuSans-116"/>
      <use x="240.529297" xlink:href="#DejaVuSans-105"/>
      <use x="268.3125" xlink:href="#DejaVuSans-111"/>
      <use x="329.494141" xlink:href="#DejaVuSans-110"/>
      <use x="392.873047" xlink:href="#DejaVuSans-32"/>
      <use x="424.660156" xlink:href="#DejaVuSans-105"/>
      <use x="452.443359" xlink:href="#DejaVuSans-110"/>
      <use x="515.822266" xlink:href="#DejaVuSans-32"/>
      <use x="547.609375" xlink:href="#DejaVuSans-82"/>
      <use x="617.060547" xlink:href="#DejaVuSans-97"/>
      <use x="678.339844" xlink:href="#DejaVuSans-100"/>
      <use x="741.816406" xlink:href="#DejaVuSans-105"/>
      <use x="769.599609" xlink:href="#DejaVuSans-97"/>
      <use x="830.878906" xlink:href="#DejaVuSans-110"/>
     </g>
    </g>
   </g>
   <g id="matplotlib.axis_2">
    <g id="ytick_1">
     <g id="line2d_6">
      <defs>
       <path d="M 0 0 
L -3.5 0 
" id="m9a24fc526b" style="stroke:#000000;stroke-width:0.8;"/>
      </defs>
      <g>
       <use style="stroke:#000000;stroke-width:0.8;" x="57.6" xlink:href="#m9a24fc526b" y="307.584"/>
      </g>
     </g>
     <g id="text_7">
      <!-- 0.0 -->
      <defs>
       <path d="M 10.6875 12.40625 
L 21 12.40625 
L 21 0 
L 10.6875 0 
z
" id="DejaVuSans-46"/>
      </defs>
      <g transform="translate(23.564687 314.042672)scale(0.17 -0.17)">
       <use xlink:href="#DejaVuSans-48"/>
       <use x="63.623047" xlink:href="#DejaVuSans-46"/>
       <use x="95.410156" xlink:href="#DejaVuSans-48"/>
      </g>
     </g>
    </g>
    <g id="ytick_2">
     <g id="line2d_7">
      <g>
       <use style="stroke:#000000;stroke-width:0.8;" x="57.6" xlink:href="#m9a24fc526b" y="259.295274"/>
      </g>
     </g>
     <g id="text_8">
      <!-- 0.2 -->
      <g transform="translate(23.564687 265.753946)scale(0.17 -0.17)">
       <use xlink:href="#DejaVuSans-48"/>
       <use x="63.623047" xlink:href="#DejaVuSans-46"/>
       <use x="95.410156" xlink:href="#DejaVuSans-50"/>
      </g>
     </g>
    </g>
    <g id="ytick_3">
     <g id="line2d_8">
      <g>
       <use style="stroke:#000000;stroke-width:0.8;" x="57.6" xlink:href="#m9a24fc526b" y="211.006548"/>
      </g>
     </g>
     <g id="text_9">
      <!-- 0.4 -->
      <defs>
       <path d="M 37.796875 64.3125 
L 12.890625 25.390625 
L 37.796875 25.390625 
z
M 35.203125 72.90625 
L 47.609375 72.90625 
L 47.609375 25.390625 
L 58.015625 25.390625 
L 58.015625 17.1875 
L 47.609375 17.1875 
L 47.609375 0 
L 37.796875 0 
L 37.796875 17.1875 
L 4.890625 17.1875 
L 4.890625 26.703125 
z
" id="DejaVuSans-52"/>
      </defs>
      <g transform="translate(23.564687 217.46522)scale(0.17 -0.17)">
       <use xlink:href="#DejaVuSans-48"/>
       <use x="63.623047" xlink:href="#DejaVuSans-46"/>
       <use x="95.410156" xlink:href="#DejaVuSans-52"/>
      </g>
     </g>
    </g>
    <g id="ytick_4">
     <g id="line2d_9">
      <g>
       <use style="stroke:#000000;stroke-width:0.8;" x="57.6" xlink:href="#m9a24fc526b" y="162.717822"/>
      </g>
     </g>
     <g id="text_10">
      <!-- 0.6 -->
      <defs>
       <path d="M 33.015625 40.375 
Q 26.375 40.375 22.484375 35.828125 
Q 18.609375 31.296875 18.609375 23.390625 
Q 18.609375 15.53125 22.484375 10.953125 
Q 26.375 6.390625 33.015625 6.390625 
Q 39.65625 6.390625 43.53125 10.953125 
Q 47.40625 15.53125 47.40625 23.390625 
Q 47.40625 31.296875 43.53125 35.828125 
Q 39.65625 40.375 33.015625 40.375 
z
M 52.59375 71.296875 
L 52.59375 62.3125 
Q 48.875 64.0625 45.09375 64.984375 
Q 41.3125 65.921875 37.59375 65.921875 
Q 27.828125 65.921875 22.671875 59.328125 
Q 17.53125 52.734375 16.796875 39.40625 
Q 19.671875 43.65625 24.015625 45.921875 
Q 28.375 48.1875 33.59375 48.1875 
Q 44.578125 48.1875 50.953125 41.515625 
Q 57.328125 34.859375 57.328125 23.390625 
Q 57.328125 12.15625 50.6875 5.359375 
Q 44.046875 -1.421875 33.015625 -1.421875 
Q 20.359375 -1.421875 13.671875 8.265625 
Q 6.984375 17.96875 6.984375 36.375 
Q 6.984375 53.65625 15.1875 63.9375 
Q 23.390625 74.21875 37.203125 74.21875 
Q 40.921875 74.21875 44.703125 73.484375 
Q 48.484375 72.75 52.59375 71.296875 
z
" id="DejaVuSans-54"/>
      </defs>
      <g transform="translate(23.564687 169.176493)scale(0.17 -0.17)">
       <use xlink:href="#DejaVuSans-48"/>
       <use x="63.623047" xlink:href="#DejaVuSans-46"/>
       <use x="95.410156" xlink:href="#DejaVuSans-54"/>
      </g>
     </g>
    </g>
    <g id="ytick_5">
     <g id="line2d_10">
      <g>
       <use style="stroke:#000000;stroke-width:0.8;" x="57.6" xlink:href="#m9a24fc526b" y="114.429095"/>
      </g>
     </g>
     <g id="text_11">
      <!-- 0.8 -->
      <defs>
       <path d="M 31.78125 34.625 
Q 24.75 34.625 20.71875 30.859375 
Q 16.703125 27.09375 16.703125 20.515625 
Q 16.703125 13.921875 20.71875 10.15625 
Q 24.75 6.390625 31.78125 6.390625 
Q 38.8125 6.390625 42.859375 10.171875 
Q 46.921875 13.96875 46.921875 20.515625 
Q 46.921875 27.09375 42.890625 30.859375 
Q 38.875 34.625 31.78125 34.625 
z
M 21.921875 38.8125 
Q 15.578125 40.375 12.03125 44.71875 
Q 8.5 49.078125 8.5 55.328125 
Q 8.5 64.0625 14.71875 69.140625 
Q 20.953125 74.21875 31.78125 74.21875 
Q 42.671875 74.21875 48.875 69.140625 
Q 55.078125 64.0625 55.078125 55.328125 
Q 55.078125 49.078125 51.53125 44.71875 
Q 48 40.375 41.703125 38.8125 
Q 48.828125 37.15625 52.796875 32.3125 
Q 56.78125 27.484375 56.78125 20.515625 
Q 56.78125 9.90625 50.3125 4.234375 
Q 43.84375 -1.421875 31.78125 -1.421875 
Q 19.734375 -1.421875 13.25 4.234375 
Q 6.78125 9.90625 6.78125 20.515625 
Q 6.78125 27.484375 10.78125 32.3125 
Q 14.796875 37.15625 21.921875 38.8125 
z
M 18.3125 54.390625 
Q 18.3125 48.734375 21.84375 45.5625 
Q 25.390625 42.390625 31.78125 42.390625 
Q 38.140625 42.390625 41.71875 45.5625 
Q 45.3125 48.734375 45.3125 54.390625 
Q 45.3125 60.0625 41.71875 63.234375 
Q 38.140625 66.40625 31.78125 66.40625 
Q 25.390625 66.40625 21.84375 63.234375 
Q 18.3125 60.0625 18.3125 54.390625 
z
" id="DejaVuSans-56"/>
      </defs>
      <g transform="translate(23.564687 120.887767)scale(0.17 -0.17)">
       <use xlink:href="#DejaVuSans-48"/>
       <use x="63.623047" xlink:href="#DejaVuSans-46"/>
       <use x="95.410156" xlink:href="#DejaVuSans-56"/>
      </g>
     </g>
    </g>
    <g id="ytick_6">
     <g id="line2d_11">
      <g>
       <use style="stroke:#000000;stroke-width:0.8;" x="57.6" xlink:href="#m9a24fc526b" y="66.140369"/>
      </g>
     </g>
     <g id="text_12">
      <!-- 1.0 -->
      <g transform="translate(23.564687 72.599041)scale(0.17 -0.17)">
       <use xlink:href="#DejaVuSans-49"/>
       <use x="63.623047" xlink:href="#DejaVuSans-46"/>
       <use x="95.410156" xlink:href="#DejaVuSans-48"/>
      </g>
     </g>
    </g>
    <g id="text_13">
     <!-- Density -->
     <defs>
      <path d="M 19.671875 64.796875 
L 19.671875 8.109375 
L 31.59375 8.109375 
Q 46.6875 8.109375 53.6875 14.9375 
Q 60.6875 21.78125 60.6875 36.53125 
Q 60.6875 51.171875 53.6875 57.984375 
Q 46.6875 64.796875 31.59375 64.796875 
z
M 9.8125 72.90625 
L 30.078125 72.90625 
Q 51.265625 72.90625 61.171875 64.09375 
Q 71.09375 55.28125 71.09375 36.53125 
Q 71.09375 17.671875 61.125 8.828125 
Q 51.171875 0 30.078125 0 
L 9.8125 0 
z
" id="DejaVuSans-68"/>
      <path d="M 56.203125 29.59375 
L 56.203125 25.203125 
L 14.890625 25.203125 
Q 15.484375 15.921875 20.484375 11.0625 
Q 25.484375 6.203125 34.421875 6.203125 
Q 39.59375 6.203125 44.453125 7.46875 
Q 49.3125 8.734375 54.109375 11.28125 
L 54.109375 2.78125 
Q 49.265625 0.734375 44.1875 -0.34375 
Q 39.109375 -1.421875 33.890625 -1.421875 
Q 20.796875 -1.421875 13.15625 6.1875 
Q 5.515625 13.8125 5.515625 26.8125 
Q 5.515625 40.234375 12.765625 48.109375 
Q 20.015625 56 32.328125 56 
Q 43.359375 56 49.78125 48.890625 
Q 56.203125 41.796875 56.203125 29.59375 
z
M 47.21875 32.234375 
Q 47.125 39.59375 43.09375 43.984375 
Q 39.0625 48.390625 32.421875 48.390625 
Q 24.90625 48.390625 20.390625 44.140625 
Q 15.875 39.890625 15.1875 32.171875 
z
" id="DejaVuSans-101"/>
      <path d="M 32.171875 -5.078125 
Q 28.375 -14.84375 24.75 -17.8125 
Q 21.140625 -20.796875 15.09375 -20.796875 
L 7.90625 -20.796875 
L 7.90625 -13.28125 
L 13.1875 -13.28125 
Q 16.890625 -13.28125 18.9375 -11.515625 
Q 21 -9.765625 23.484375 -3.21875 
L 25.09375 0.875 
L 2.984375 54.6875 
L 12.5 54.6875 
L 29.59375 11.921875 
L 46.6875 54.6875 
L 56.203125 54.6875 
z
" id="DejaVuSans-121"/>
     </defs>
     <g transform="translate(13.325625 231.553781)rotate(-90)scale(0.3 -0.3)">
      <use xlink:href="#DejaVuSans-68"/>
      <use x="77.001953" xlink:href="#DejaVuSans-101"/>
      <use x="138.525391" xlink:href="#DejaVuSans-110"/>
      <use x="201.904297" xlink:href="#DejaVuSans-115"/>
      <use x="254.003906" xlink:href="#DejaVuSans-105"/>
      <use x="281.787109" xlink:href="#DejaVuSans-116"/>
      <use x="320.996094" xlink:href="#DejaVuSans-121"/>
     </g>
    </g>
   </g>
   <g id="line2d_12">
    <path clip-path="url(#p9c8c73715e)" d="M 73.832727 307.584 
L 97.83632 307.477093 
L 98.08523 307.217736 
L 98.301674 306.634144 
L 98.52894 305.287554 
L 98.788672 302.149217 
L 99.091693 295.404585 
L 99.708557 274.761189 
L 100.044045 268.092773 
L 100.152266 267.689691 
L 100.195555 267.779047 
L 100.314599 268.708421 
L 100.552687 272.889453 
L 101.256129 286.041328 
L 101.505039 287.241476 
L 101.624083 287.277877 
L 101.645727 287.258161 
L 101.818882 286.904123 
L 102.565612 285.136041 
L 102.749589 285.175282 
L 102.966033 285.520018 
L 103.366454 286.707104 
L 103.788519 287.690455 
L 103.961673 287.701618 
L 104.124006 287.413281 
L 104.351272 286.451829 
L 104.654293 284.048608 
L 105.076358 278.60581 
L 106.050354 265.402673 
L 106.418308 263.50297 
L 106.92695 261.271823 
L 107.359838 257.807188 
L 107.944235 253.555216 
L 108.355478 252.150397 
L 109.275363 249.420078 
L 109.957161 247.083597 
L 110.249359 244.803786 
L 110.606491 239.932097 
L 111.948441 219.362736 
L 112.662705 211.550658 
L 113.636701 199.078635 
L 113.723279 198.978385 
L 113.766567 199.023845 
L 113.896434 199.518885 
L 114.145344 201.643037 
L 114.848785 207.957441 
L 115.097695 208.484462 
L 115.303317 208.472776 
L 115.584694 208.464505 
L 115.757848 208.740149 
L 115.985114 209.602026 
L 116.30978 211.867804 
L 116.840066 217.474058 
L 117.337887 221.93101 
L 117.500219 222.296325 
L 117.521864 222.285854 
L 117.619263 222.055506 
L 117.792418 220.91044 
L 118.106261 216.972791 
L 118.614904 211.086713 
L 118.755592 210.759349 
L 118.788059 210.788241 
L 118.89628 211.15529 
L 119.101902 212.821152 
L 121.515248 237.216494 
L 121.742513 237.716502 
L 121.87238 237.649494 
L 122.099645 237.161703 
L 122.608288 236.103023 
L 122.792265 236.107763 
L 123.008708 236.392353 
L 123.874483 237.797889 
L 124.047637 237.592835 
L 124.30737 236.872099 
L 125.324655 233.606559 
L 125.465343 233.732795 
L 125.660142 234.31433 
L 125.99563 236.205476 
L 126.59085 239.416748 
L 126.915515 240.050892 
L 127.283469 240.695595 
L 127.58649 241.853255 
L 128.322398 244.880517 
L 128.517197 244.972267 
L 128.711997 244.771403 
L 129.263928 244.116655 
L 129.458727 244.251944 
L 130.183813 244.988397 
L 130.411079 244.667542 
L 131.071232 243.623374 
L 131.763851 243.225157 
L 132.034406 242.405331 
L 132.975935 239.149256 
L 133.14909 239.178811 
L 133.365534 239.513955 
L 133.711843 240.5383 
L 134.188019 242.687098 
L 135.248593 247.835479 
L 135.410925 247.863401 
L 135.58408 247.588414 
L 136.1793 246.365719 
L 136.211767 246.386292 
L 136.352455 246.658867 
L 136.579721 247.719811 
L 137.088363 251.582434 
L 137.477962 253.67112 
L 137.661939 253.874889 
L 137.672761 253.86866 
L 137.802627 253.638508 
L 138.029893 252.634122 
L 138.700868 249.377425 
L 138.841556 249.396784 
L 139.047177 249.798615 
L 139.328554 250.186437 
L 139.436776 250.01088 
L 139.609931 249.170516 
L 139.90213 246.351793 
L 140.443239 241.302048 
L 140.583927 241.045763 
L 140.616393 241.066683 
L 140.735437 241.384074 
L 140.962703 242.839916 
L 141.871766 249.449611 
L 142.099032 249.764492 
L 142.228898 249.636364 
L 142.412875 249.041417 
L 142.672607 247.326286 
L 143.08385 242.808644 
L 143.765647 235.553946 
L 144.036202 234.613344 
L 144.155246 234.63402 
L 144.166068 234.648324 
L 144.328401 235.092078 
L 144.598955 236.623433 
L 145.551307 242.624651 
L 145.789395 242.891353 
L 146.059949 242.838468 
L 146.406259 242.82846 
L 146.698458 243.083632 
L 147.120523 243.786838 
L 147.65081 245.143828 
L 148.181096 246.308003 
L 148.852072 247.335772 
L 149.165915 248.780923 
L 149.750312 251.477316 
L 149.891001 251.540766 
L 149.912645 251.522327 
L 150.064156 251.193679 
L 150.345532 249.87666 
L 150.994863 246.827824 
L 151.297884 246.374465 
L 151.741593 246.183554 
L 152.17448 246.157678 
L 152.455857 246.40247 
L 153.289165 247.31815 
L 153.473142 247.105673 
L 153.722052 246.404199 
L 154.403849 244.276323 
L 154.522893 244.384167 
L 154.70687 244.972723 
L 155.042358 246.994573 
L 155.659222 250.50775 
L 155.99471 251.273466 
L 156.449241 251.703464 
L 156.773907 251.819958 
L 156.947061 251.634548 
L 157.163505 250.981118 
L 157.531459 248.940901 
L 157.921057 247.237586 
L 158.040101 247.190751 
L 158.061746 247.212429 
L 158.202434 247.575491 
L 158.462166 249.064695 
L 159.133142 253.066127 
L 159.479451 253.758866 
L 159.825761 254.493832 
L 160.61578 256.64265 
L 160.648247 256.623718 
L 160.788935 256.365442 
L 161.016201 255.384819 
L 161.697998 252.147218 
L 161.795398 252.252509 
L 161.946908 252.878688 
L 162.195818 255.042847 
L 163.310503 266.211236 
L 164.39272 270.702162 
L 164.760675 272.246098 
L 164.858074 272.279095 
L 164.890541 272.242694 
L 165.020407 271.84473 
L 165.23685 270.296784 
L 165.702204 264.775169 
L 166.08098 261.570168 
L 166.221669 261.312916 
L 166.254135 261.336075 
L 166.373179 261.67871 
L 166.589623 263.216148 
L 167.152376 269.577659 
L 167.541975 272.46812 
L 167.758418 272.89329 
L 167.877462 272.793561 
L 168.083083 272.212228 
L 168.808169 269.896829 
L 168.992147 269.909018 
L 169.284345 270.268131 
L 169.576544 270.482038 
L 169.749699 270.350144 
L 170.009431 269.801936 
L 171.416315 265.741657 
L 172.011534 263.504251 
L 172.325378 263.084817 
L 172.671687 262.981523 
L 172.953064 263.099568 
L 173.191152 263.470457 
L 173.494173 264.43271 
L 174.576391 268.346796 
L 174.998456 268.774092 
L 175.983274 269.683252 
L 176.318762 270.347924 
L 176.913981 271.600295 
L 177.033025 271.485132 
L 177.20618 270.90677 
L 177.476735 269.034663 
L 178.353331 262.2577 
L 178.537308 262.095704 
L 178.688819 262.282591 
L 179.251572 263.174465 
L 179.262394 263.167535 
L 179.413905 262.923945 
L 179.684459 261.933446 
L 180.160635 260.285961 
L 180.312146 260.266711 
L 180.474478 260.57993 
L 180.799144 261.862094 
L 181.253675 263.387833 
L 181.491763 263.58485 
L 181.708207 263.481168 
L 182.444115 262.689935 
L 182.801247 262.097323 
L 183.093446 261.10624 
L 183.428933 259.044328 
L 183.95922 254.04855 
L 184.413751 250.611512 
L 184.586906 250.300301 
L 184.608551 250.31374 
L 184.716772 250.56351 
L 184.90075 251.671729 
L 185.225415 255.274844 
L 186.037078 264.564287 
L 186.480788 266.988149 
L 186.870386 268.083567 
L 187.08683 268.218222 
L 187.249162 268.034435 
L 187.476428 267.350468 
L 187.866027 265.301349 
L 188.623579 261.3752 
L 188.980711 260.575825 
L 189.402776 260.218185 
L 189.67333 259.820003 
L 189.976351 258.896402 
L 190.733904 256.426937 
L 190.896237 256.444011 
L 191.058569 256.770899 
L 191.296657 257.840027 
L 191.664611 260.707669 
L 192.292298 265.46648 
L 192.443808 265.673061 
L 192.465453 265.658024 
L 192.584497 265.375843 
L 192.790118 264.169249 
L 193.64507 258.25278 
L 193.655892 258.255671 
L 193.753292 258.413341 
L 193.926447 259.243025 
L 194.261934 262.216624 
L 194.781399 266.351035 
L 194.997842 266.78314 
L 195.116886 266.669377 
L 195.322508 266.051484 
L 196.025949 263.724014 
L 196.826791 262.457666 
L 197.281322 260.47649 
L 198.255318 256.335698 
L 198.947938 253.007892 
L 200.54962 245.33001 
L 200.874286 244.469746 
L 201.036618 244.465853 
L 201.209773 244.777382 
L 201.501972 245.867406 
L 202.421857 249.575998 
L 202.627479 249.707781 
L 202.768167 249.525802 
L 202.984611 248.784501 
L 203.406675 246.285297 
L 203.77463 244.683189 
L 203.915318 244.584825 
L 203.936962 244.599044 
L 204.077651 244.872458 
L 204.337383 246.022496 
L 205.040825 249.289984 
L 205.755088 251.446761 
L 206.685796 255.808147 
L 206.718262 255.789144 
L 206.848128 255.515141 
L 207.064572 254.399106 
L 207.562392 250.207276 
L 207.973635 247.717983 
L 208.211723 247.29792 
L 208.363233 247.365211 
L 208.633788 247.838592 
L 209.109964 248.576993 
L 209.423807 248.657429 
L 209.943272 248.536093 
L 210.138071 248.225828 
L 210.343692 247.402445 
L 210.603424 245.300821 
L 211.155356 238.266252 
L 211.447554 236.190457 
L 211.512488 236.14151 
L 211.555776 236.202869 
L 211.67482 236.756288 
L 211.902086 239.182341 
L 212.713749 248.926528 
L 212.821971 249.061682 
L 212.86526 249.027068 
L 212.995126 248.666112 
L 213.287325 246.985197 
L 213.795967 244.342491 
L 214.0557 243.929549 
L 214.239677 243.977182 
L 214.477765 244.335995 
L 214.89983 245.474183 
L 215.376005 246.569553 
L 215.559982 246.597049 
L 215.754782 246.33737 
L 216.317535 245.459352 
L 216.458223 245.661942 
L 216.674667 246.46466 
L 217.627019 250.655837 
L 217.843462 250.68299 
L 218.341282 250.374015 
L 219.261168 249.904319 
L 219.455967 250.268101 
L 219.758988 251.423078 
L 220.451607 254.147453 
L 220.754628 254.498549 
L 221.20916 254.920689 
L 222.031645 256.160701 
L 222.074934 256.123687 
L 222.258911 255.759535 
L 222.540288 254.604768 
L 224.012104 247.546342 
L 224.206903 247.471645 
L 224.380058 247.707748 
L 224.683079 248.615926 
L 225.386521 250.732827 
L 225.743653 251.156438 
L 226.046674 251.20237 
L 226.457917 251.246933 
L 226.67436 251.56463 
L 227.02067 252.58326 
L 227.410268 253.489326 
L 227.561779 253.450649 
L 227.734934 253.069271 
L 228.037955 251.731299 
L 228.763041 248.461831 
L 229.044417 248.062768 
L 229.271683 248.074705 
L 229.661282 248.124606 
L 229.834436 247.83891 
L 230.05088 246.980547 
L 230.343079 244.751471 
L 230.721855 239.915628 
L 231.869006 223.590288 
L 231.933939 223.602659 
L 231.955583 223.640031 
L 232.08545 224.186213 
L 232.345182 226.520579 
L 233.059446 233.195995 
L 233.546444 235.242057 
L 234.076731 236.893009 
L 234.163308 236.782329 
L 234.293174 236.069881 
L 234.466329 233.547709 
L 234.682773 226.366245 
L 234.931683 209.649864 
L 235.256348 170.164118 
L 236.122122 54.388447 
L 236.154589 54.144 
L 236.197878 54.561114 
L 236.306099 59.260965 
L 236.511721 80.994524 
L 237.669694 228.929159 
L 237.951071 235.501499 
L 238.178336 236.817081 
L 238.254092 236.824117 
L 238.286558 236.780586 
L 238.438069 236.281299 
L 238.708623 234.464577 
L 239.098222 230.133925 
L 239.628508 221.335135 
L 240.202084 212.735897 
L 240.42935 211.805854 
L 240.505105 211.91185 
L 240.645793 212.61605 
L 240.916348 215.358866 
L 242.095965 228.646444 
L 242.539674 231.37574 
L 242.821051 232.020215 
L 243.026673 232.061362 
L 243.26476 231.841819 
L 243.589426 231.210903 
L 243.946558 229.945987 
L 244.520133 227.939168 
L 244.649999 227.973738 
L 244.80151 228.381815 
L 245.05042 229.863848 
L 246.446481 239.812227 
L 246.781969 240.441007 
L 247.052523 240.555554 
L 247.301433 240.421708 
L 247.571988 240.003633 
L 247.864187 239.079541 
L 248.253785 236.95061 
L 248.751605 234.490181 
L 248.903116 234.35777 
L 248.92476 234.370415 
L 249.065448 234.635274 
L 249.336003 235.790887 
L 249.736423 237.265403 
L 249.844645 237.268074 
L 249.86629 237.241641 
L 250.0178 236.810928 
L 250.320821 235.033791 
L 250.688775 233.284093 
L 250.775353 233.249387 
L 250.807819 233.286167 
L 250.937685 233.713732 
L 251.164951 235.458722 
L 252.041548 243.194934 
L 252.128125 243.180968 
L 252.149769 243.149609 
L 252.30128 242.657766 
L 252.734167 240.089836 
L 252.983077 239.355697 
L 253.080477 239.427158 
L 253.231987 239.970657 
L 253.502542 241.999758 
L 254.325027 248.583269 
L 255.796844 255.474116 
L 255.915888 255.395878 
L 256.089042 254.884226 
L 256.392063 253.100668 
L 257.106327 248.834583 
L 257.485104 247.890879 
L 257.755658 247.667879 
L 257.917991 247.789395 
L 258.11279 248.300075 
L 258.394167 249.819729 
L 259.195008 254.56251 
L 259.30323 254.518505 
L 259.443918 254.075978 
L 259.671184 252.478326 
L 260.082427 247.6365 
L 260.634358 241.799756 
L 260.818335 241.306525 
L 260.839979 241.316006 
L 260.937379 241.539044 
L 261.110534 242.633541 
L 261.435199 246.45545 
L 262.030419 253.176278 
L 262.300973 254.162054 
L 262.463306 254.185974 
L 262.658105 253.887775 
L 263.350725 252.698778 
L 263.57799 252.708331 
L 263.805256 252.965147 
L 264.086633 253.65742 
L 264.454587 255.230467 
L 265.396116 259.563462 
L 265.601738 259.705738 
L 265.753248 259.530907 
L 265.969692 258.871757 
L 266.316002 256.963099 
L 267.268353 251.348941 
L 267.690418 250.376285 
L 268.653592 248.611436 
L 268.696881 248.645223 
L 268.870036 248.989787 
L 269.151412 250.165787 
L 269.746632 252.641098 
L 269.930609 252.743021 
L 270.103764 252.534055 
L 270.763917 251.505536 
L 270.774739 251.511337 
L 270.937072 251.734279 
L 271.185982 252.550726 
L 271.618869 254.918184 
L 272.116689 257.264817 
L 272.279022 257.40043 
L 272.289844 257.393606 
L 272.41971 257.150059 
L 272.636154 256.114678 
L 273.166441 251.975051 
L 273.501928 250.342542 
L 273.642617 250.225074 
L 273.664261 250.239444 
L 273.794127 250.50221 
L 274.021393 251.607714 
L 274.594968 256.008804 
L 274.995389 258.085676 
L 275.233477 258.449493 
L 275.384987 258.361483 
L 275.601431 257.887289 
L 275.99103 256.364427 
L 276.651182 253.870284 
L 276.867626 253.69616 
L 277.029959 253.856992 
L 277.322158 254.581125 
L 277.711756 255.386877 
L 277.863266 255.349172 
L 278.047244 254.97649 
L 278.869729 252.747693 
L 278.913018 252.773065 
L 279.096995 253.063864 
L 279.67057 254.089428 
L 279.811259 253.884517 
L 280.01688 253.074224 
L 280.374012 250.526554 
L 280.86101 247.413559 
L 280.969232 247.29099 
L 281.012521 247.331972 
L 281.131565 247.733702 
L 281.326364 249.332267 
L 281.661851 254.297721 
L 282.246249 262.542378 
L 282.462693 263.288878 
L 282.54927 263.173062 
L 282.711603 262.43279 
L 283.090379 259.292035 
L 283.609843 255.626117 
L 284.021086 254.197106 
L 284.334929 253.74999 
L 284.497262 253.799507 
L 284.692061 254.16686 
L 285.016727 255.389389 
L 285.514547 257.077998 
L 285.698524 257.134974 
L 285.860857 256.879505 
L 286.499365 255.347206 
L 286.575121 255.434061 
L 286.726631 255.950268 
L 286.975541 257.793318 
L 287.86296 265.26519 
L 287.960359 265.249238 
L 287.971182 265.234219 
L 288.122692 264.777126 
L 288.45818 262.773547 
L 288.815312 261.160562 
L 288.923533 261.104073 
L 288.956 261.135112 
L 289.096688 261.521017 
L 289.345598 263.03212 
L 290.016573 267.322725 
L 290.168084 267.444591 
L 290.189728 267.428761 
L 290.330417 267.140612 
L 290.600971 265.913655 
L 291.152902 263.487845 
L 291.336879 263.376377 
L 291.520856 263.586173 
L 291.845522 263.912764 
L 291.964566 263.719046 
L 292.13772 262.912602 
L 292.397453 260.451748 
L 293.284871 251.025722 
L 293.382271 250.961403 
L 293.414738 250.997626 
L 293.544604 251.41109 
L 293.782692 253.083847 
L 295.503418 267.523725 
L 295.86055 268.787845 
L 296.087816 268.976909 
L 296.271793 268.843509 
L 296.618103 268.229835 
L 297.505521 266.172046 
L 297.819364 264.54532 
L 298.273896 260.757628 
L 298.847471 256.443027 
L 299.107204 255.812739 
L 299.23707 255.879223 
L 299.410225 256.326705 
L 299.724068 257.891733 
L 300.384221 261.13189 
L 300.643953 261.488794 
L 300.838752 261.429042 
L 301.120129 261.035156 
L 301.910148 259.815668 
L 302.061659 259.979826 
L 302.26728 260.610755 
L 302.61359 262.566187 
L 303.11141 265.096709 
L 303.252098 265.212381 
L 303.273743 265.197019 
L 303.403609 264.913823 
L 303.620052 263.760674 
L 304.604871 257.518055 
L 304.723915 257.625688 
L 304.940358 258.245878 
L 305.492289 259.885862 
L 305.654622 259.86913 
L 305.849421 259.511901 
L 306.542041 258.011964 
L 306.715195 258.134005 
L 307.23466 258.706315 
L 307.267127 258.676771 
L 307.418637 258.341638 
L 307.645903 257.182486 
L 308.046323 253.674984 
L 308.771409 247.605779 
L 309.280052 245.202365 
L 309.66965 244.2468 
L 310.459669 242.930628 
L 310.870912 240.967 
L 311.292977 239.36441 
L 311.498599 239.208063 
L 311.70422 239.364555 
L 311.996419 239.531432 
L 312.147929 239.333099 
L 312.364373 238.563234 
L 312.808082 235.84472 
L 313.197681 234.123901 
L 313.370836 233.99891 
L 313.381658 234.005809 
L 313.522346 234.245453 
L 313.771256 235.241149 
L 314.539631 238.638999 
L 314.680319 238.616843 
L 314.83183 238.251428 
L 315.08074 236.95067 
L 315.978981 231.619752 
L 316.087202 231.673315 
L 316.238713 232.114031 
L 316.498445 233.716499 
L 317.678063 242.162322 
L 317.883684 242.320988 
L 318.067661 242.165028 
L 318.673703 241.142367 
L 318.998369 240.351473 
L 319.268923 238.951026 
L 319.615233 235.759203 
L 320.329497 229.041627 
L 320.481007 228.801412 
L 320.502651 228.817106 
L 320.610873 229.082626 
L 320.805672 230.298215 
L 321.151982 234.206743 
L 321.996112 244.052565 
L 322.299133 245.290548 
L 322.58051 245.61098 
L 322.840242 245.930735 
L 323.07833 246.675572 
L 323.446284 248.736147 
L 324.51768 255.084636 
L 324.755768 255.469498 
L 324.874812 255.363927 
L 325.047967 254.819314 
L 325.318521 253.094362 
L 325.794697 248.331281 
L 326.736226 236.359955 
L 327.244869 231.319436 
L 327.526246 230.292796 
L 327.656112 230.270962 
L 327.666934 230.280716 
L 327.818444 230.581914 
L 328.088999 231.716844 
L 328.630108 235.160043 
L 329.539171 240.815248 
L 330.177679 242.995382 
L 330.913588 245.117837 
L 331.086742 245.140642 
L 331.249075 244.883429 
L 331.497985 243.975514 
L 332.309649 240.379737 
L 332.352937 240.411415 
L 332.471981 240.730513 
L 332.666781 242.020336 
L 332.991446 245.95901 
L 333.770643 255.666707 
L 334.095308 257.183577 
L 334.30093 257.38998 
L 334.441618 257.244931 
L 334.668884 256.595693 
L 335.39397 254.132255 
L 335.415614 254.141782 
L 335.534658 254.347594 
L 335.729457 255.229912 
L 336.205633 258.84963 
L 336.562765 260.612122 
L 336.779209 260.854649 
L 336.98483 260.736572 
L 337.33114 260.562426 
L 337.504295 260.739441 
L 337.73156 261.356348 
L 338.045403 262.969076 
L 338.521579 266.806677 
L 339.181732 271.757266 
L 339.463109 272.529844 
L 339.603797 272.505559 
L 339.755308 272.156318 
L 339.993396 270.930128 
L 340.372172 267.56907 
L 341.01068 262.131065 
L 341.237946 261.617256 
L 341.367812 261.700429 
L 341.584256 262.245105 
L 342.20112 263.884245 
L 342.439208 263.967654 
L 342.677296 263.78951 
L 343.023606 263.216094 
L 344.019246 261.340604 
L 344.214045 261.51859 
L 344.614466 262.321885 
L 345.058175 262.987343 
L 345.664217 263.751908 
L 345.978061 264.036631 
L 346.107927 263.892701 
L 346.281082 263.286796 
L 346.529992 261.410195 
L 346.930412 256.273377 
L 347.547277 248.859133 
L 347.807009 247.850736 
L 347.915231 247.867833 
L 347.926053 247.882474 
L 348.077563 248.30744 
L 348.35894 249.924829 
L 349.343758 256.120708 
L 349.527735 256.294295 
L 349.538557 256.288752 
L 349.668424 256.082292 
L 349.884867 255.194658 
L 350.404332 251.689518 
L 350.728997 250.354379 
L 350.880508 250.268212 
L 350.89133 250.2751 
L 351.04284 250.531301 
L 351.335039 251.606646 
L 352.189991 254.869809 
L 352.947544 256.665355 
L 354.181272 259.208612 
L 354.41936 259.285601 
L 354.603337 259.089389 
L 354.830603 258.4553 
L 355.166091 256.751516 
L 356.172553 251.200599 
L 356.432285 250.858556 
L 356.713662 250.881529 
L 356.908461 250.785567 
L 357.081616 250.364457 
L 357.308882 249.116696 
L 357.774236 244.879537 
L 358.098901 242.934032 
L 358.196301 242.848948 
L 358.228767 242.880911 
L 358.347811 243.258791 
L 358.553433 244.815917 
L 358.943031 249.910556 
L 359.722228 259.904078 
L 360.133471 262.4919 
L 360.707046 264.454259 
L 361.432132 266.584614 
L 361.616109 266.601884 
L 361.821731 266.323044 
L 362.319551 265.602696 
L 362.471061 265.732422 
L 362.687505 266.292994 
L 363.445057 268.525429 
L 363.618212 268.485379 
L 363.888767 268.116348 
L 364.45152 267.386542 
L 364.722074 267.360979 
L 364.960162 267.583614 
L 365.317294 268.304131 
L 365.815115 269.198931 
L 366.453623 269.91119 
L 366.735 271.019432 
L 367.449264 275.232636 
L 368.185172 279.996418 
L 369.310678 288.409197 
L 369.776032 289.866611 
L 370.230564 290.683462 
L 370.436185 290.731511 
L 370.587695 290.517611 
L 370.782495 289.779045 
L 371.031405 287.786807 
L 371.35607 283.096041 
L 372.070334 272.350674 
L 372.124445 272.289997 
L 372.167734 272.37128 
L 372.286778 273.207181 
L 372.492399 276.676729 
L 372.914464 288.768651 
L 373.455573 302.006636 
L 373.801883 305.78256 
L 374.104904 307.05049 
L 374.397102 307.449234 
L 374.765057 307.566058 
L 376.020429 307.583998 
L 398.487273 307.584 
L 398.487273 307.584 
" style="fill:none;stroke:#ff7f0e;stroke-linecap:square;stroke-width:1.5;"/>
   </g>
   <g id="patch_103">
    <path d="M 57.6 307.584 
L 57.6 41.472 
" style="fill:none;stroke:#000000;stroke-linecap:square;stroke-linejoin:miter;stroke-width:0.8;"/>
   </g>
   <g id="patch_104">
    <path d="M 414.72 307.584 
L 414.72 41.472 
" style="fill:none;stroke:#000000;stroke-linecap:square;stroke-linejoin:miter;stroke-width:0.8;"/>
   </g>
   <g id="patch_105">
    <path d="M 57.6 307.584 
L 414.72 307.584 
" style="fill:none;stroke:#000000;stroke-linecap:square;stroke-linejoin:miter;stroke-width:0.8;"/>
   </g>
   <g id="patch_106">
    <path d="M 57.6 41.472 
L 414.72 41.472 
" style="fill:none;stroke:#000000;stroke-linecap:square;stroke-linejoin:miter;stroke-width:0.8;"/>
   </g>
  </g>
 </g>
 <defs>
  <clipPath id="p9c8c73715e">
   <rect height="266.112" width="357.12" x="57.6" y="41.472"/>
  </clipPath>
 </defs>
</svg>
