<?xml version="1.0" encoding="utf-8" standalone="no"?>
<!DOCTYPE svg PUBLIC "-//W3C//DTD SVG 1.1//EN"
  "http://www.w3.org/Graphics/SVG/1.1/DTD/svg11.dtd">
<!-- Created with matplotlib (https://matplotlib.org/) -->
<svg height="345.6pt" version="1.1" viewBox="0 0 460.8 345.6" width="460.8pt" xmlns="http://www.w3.org/2000/svg" xmlns:xlink="http://www.w3.org/1999/xlink">
 <defs>
  <style type="text/css">
*{stroke-linecap:butt;stroke-linejoin:round;}
  </style>
 </defs>
 <g id="figure_1">
  <g id="patch_1">
   <path d="M 0 345.6 
L 460.8 345.6 
L 460.8 0 
L 0 0 
z
" style="fill:#ffffff;"/>
  </g>
  <g id="axes_1">
   <g id="patch_2">
    <path d="M 57.6 307.584 
L 414.72 307.584 
L 414.72 41.472 
L 57.6 41.472 
z
" style="fill:#ffffff;"/>
   </g>
   <g id="patch_3">
    <path clip-path="url(#pdf8bd82c47)" d="M 99.978106 307.584 
L 102.606843 307.584 
L 102.606843 200.609534 
L 99.978106 200.609534 
z
" style="fill:#1f77b4;"/>
   </g>
   <g id="patch_4">
    <path clip-path="url(#pdf8bd82c47)" d="M 102.606827 307.584 
L 105.235549 307.584 
L 105.235549 274.836521 
L 102.606827 274.836521 
z
" style="fill:#1f77b4;"/>
   </g>
   <g id="patch_5">
    <path clip-path="url(#pdf8bd82c47)" d="M 105.235549 307.584 
L 107.864285 307.584 
L 107.864285 228.990514 
L 105.235549 228.990514 
z
" style="fill:#1f77b4;"/>
   </g>
   <g id="patch_6">
    <path clip-path="url(#pdf8bd82c47)" d="M 107.864285 307.584 
L 110.493014 307.584 
L 110.493014 239.906077 
L 107.864285 239.906077 
z
" style="fill:#1f77b4;"/>
   </g>
   <g id="patch_7">
    <path clip-path="url(#pdf8bd82c47)" d="M 110.493022 307.584 
L 113.121751 307.584 
L 113.121751 165.678678 
L 110.493022 165.678678 
z
" style="fill:#1f77b4;"/>
   </g>
   <g id="patch_8">
    <path clip-path="url(#pdf8bd82c47)" d="M 113.121743 307.584 
L 115.750479 307.584 
L 115.750479 174.411705 
L 113.121743 174.411705 
z
" style="fill:#1f77b4;"/>
   </g>
   <g id="patch_9">
    <path clip-path="url(#pdf8bd82c47)" d="M 115.750479 307.584 
L 118.379208 307.584 
L 118.379208 150.396566 
L 115.750479 150.396566 
z
" style="fill:#1f77b4;"/>
   </g>
   <g id="patch_10">
    <path clip-path="url(#pdf8bd82c47)" d="M 118.379216 307.584 
L 121.007945 307.584 
L 121.007945 176.594472 
L 118.379216 176.594472 
z
" style="fill:#1f77b4;"/>
   </g>
   <g id="patch_11">
    <path clip-path="url(#pdf8bd82c47)" d="M 121.007937 307.584 
L 123.636666 307.584 
L 123.636666 224.623965 
L 121.007937 224.623965 
z
" style="fill:#1f77b4;"/>
   </g>
   <g id="patch_12">
    <path clip-path="url(#pdf8bd82c47)" d="M 123.636666 307.584 
L 126.265403 307.584 
L 126.265403 207.158991 
L 123.636666 207.158991 
z
" style="fill:#1f77b4;"/>
   </g>
   <g id="patch_13">
    <path clip-path="url(#pdf8bd82c47)" d="M 126.26541 307.584 
L 128.894139 307.584 
L 128.894139 226.807124 
L 126.26541 226.807124 
z
" style="fill:#1f77b4;"/>
   </g>
   <g id="patch_14">
    <path clip-path="url(#pdf8bd82c47)" d="M 128.894131 307.584 
L 131.52286 307.584 
L 131.52286 222.440807 
L 128.894131 222.440807 
z
" style="fill:#1f77b4;"/>
   </g>
   <g id="patch_15">
    <path clip-path="url(#pdf8bd82c47)" d="M 131.522868 307.584 
L 134.151597 307.584 
L 134.151597 222.440807 
L 131.522868 222.440807 
z
" style="fill:#1f77b4;"/>
   </g>
   <g id="patch_16">
    <path clip-path="url(#pdf8bd82c47)" d="M 134.151589 307.584 
L 136.780326 307.584 
L 136.780326 248.638886 
L 134.151589 248.638886 
z
" style="fill:#1f77b4;"/>
   </g>
   <g id="patch_17">
    <path clip-path="url(#pdf8bd82c47)" d="M 136.780326 307.584 
L 139.409055 307.584 
L 139.409055 272.653459 
L 136.780326 272.653459 
z
" style="fill:#1f77b4;"/>
   </g>
   <g id="patch_18">
    <path clip-path="url(#pdf8bd82c47)" d="M 139.409062 307.584 
L 142.037791 307.584 
L 142.037791 242.089236 
L 139.409062 242.089236 
z
" style="fill:#1f77b4;"/>
   </g>
   <g id="patch_19">
    <path clip-path="url(#pdf8bd82c47)" d="M 142.037783 307.584 
L 144.666512 307.584 
L 144.666512 248.638712 
L 142.037783 248.638712 
z
" style="fill:#1f77b4;"/>
   </g>
   <g id="patch_20">
    <path clip-path="url(#pdf8bd82c47)" d="M 144.666512 307.584 
L 147.295249 307.584 
L 147.295249 248.638886 
L 144.666512 248.638886 
z
" style="fill:#1f77b4;"/>
   </g>
   <g id="patch_21">
    <path clip-path="url(#pdf8bd82c47)" d="M 147.295257 307.584 
L 149.923985 307.584 
L 149.923985 244.272395 
L 147.295257 244.272395 
z
" style="fill:#1f77b4;"/>
   </g>
   <g id="patch_22">
    <path clip-path="url(#pdf8bd82c47)" d="M 149.923978 307.584 
L 152.552706 307.584 
L 152.552706 263.920824 
L 149.923978 263.920824 
z
" style="fill:#1f77b4;"/>
   </g>
   <g id="patch_23">
    <path clip-path="url(#pdf8bd82c47)" d="M 152.552714 307.584 
L 155.181443 307.584 
L 155.181443 257.371347 
L 152.552714 257.371347 
z
" style="fill:#1f77b4;"/>
   </g>
   <g id="patch_24">
    <path clip-path="url(#pdf8bd82c47)" d="M 155.181435 307.584 
L 157.810172 307.584 
L 157.810172 239.906276 
L 155.181435 239.906276 
z
" style="fill:#1f77b4;"/>
   </g>
   <g id="patch_25">
    <path clip-path="url(#pdf8bd82c47)" d="M 157.810172 307.584 
L 160.438901 307.584 
L 160.438901 246.455553 
L 157.810172 246.455553 
z
" style="fill:#1f77b4;"/>
   </g>
   <g id="patch_26">
    <path clip-path="url(#pdf8bd82c47)" d="M 160.438908 307.584 
L 163.067637 307.584 
L 163.067637 248.638712 
L 160.438908 248.638712 
z
" style="fill:#1f77b4;"/>
   </g>
   <g id="patch_27">
    <path clip-path="url(#pdf8bd82c47)" d="M 163.06763 307.584 
L 165.696366 307.584 
L 165.696366 279.203019 
L 163.06763 279.203019 
z
" style="fill:#1f77b4;"/>
   </g>
   <g id="patch_28">
    <path clip-path="url(#pdf8bd82c47)" d="M 165.696366 307.584 
L 168.325095 307.584 
L 168.325095 255.188189 
L 165.696366 255.188189 
z
" style="fill:#1f77b4;"/>
   </g>
   <g id="patch_29">
    <path clip-path="url(#pdf8bd82c47)" d="M 168.325103 307.584 
L 170.953832 307.584 
L 170.953832 259.554506 
L 168.325103 259.554506 
z
" style="fill:#1f77b4;"/>
   </g>
   <g id="patch_30">
    <path clip-path="url(#pdf8bd82c47)" d="M 170.953824 307.584 
L 173.582557 307.584 
L 173.582557 274.836666 
L 170.953824 274.836666 
z
" style="fill:#1f77b4;"/>
   </g>
   <g id="patch_31">
    <path clip-path="url(#pdf8bd82c47)" d="M 173.582557 307.584 
L 176.211285 307.584 
L 176.211285 279.202936 
L 173.582557 279.202936 
z
" style="fill:#1f77b4;"/>
   </g>
   <g id="patch_32">
    <path clip-path="url(#pdf8bd82c47)" d="M 176.211282 307.584 
L 178.840014 307.584 
L 178.840014 255.188266 
L 176.211282 255.188266 
z
" style="fill:#1f77b4;"/>
   </g>
   <g id="patch_33">
    <path clip-path="url(#pdf8bd82c47)" d="M 178.840018 307.584 
L 181.468747 307.584 
L 181.468747 277.019777 
L 178.840018 277.019777 
z
" style="fill:#1f77b4;"/>
   </g>
   <g id="patch_34">
    <path clip-path="url(#pdf8bd82c47)" d="M 181.468747 307.584 
L 184.09748 307.584 
L 184.09748 255.188266 
L 181.468747 255.188266 
z
" style="fill:#1f77b4;"/>
   </g>
   <g id="patch_35">
    <path clip-path="url(#pdf8bd82c47)" d="M 184.09748 307.584 
L 186.726209 307.584 
L 186.726209 261.737665 
L 184.09748 261.737665 
z
" style="fill:#1f77b4;"/>
   </g>
   <g id="patch_36">
    <path clip-path="url(#pdf8bd82c47)" d="M 186.726205 307.584 
L 189.354937 307.584 
L 189.354937 274.836666 
L 186.726205 274.836666 
z
" style="fill:#1f77b4;"/>
   </g>
   <g id="patch_37">
    <path clip-path="url(#pdf8bd82c47)" d="M 189.354941 307.584 
L 191.98367 307.584 
L 191.98367 261.737665 
L 189.354941 261.737665 
z
" style="fill:#1f77b4;"/>
   </g>
   <g id="patch_38">
    <path clip-path="url(#pdf8bd82c47)" d="M 191.98367 307.584 
L 194.612403 307.584 
L 194.612403 259.554577 
L 191.98367 259.554577 
z
" style="fill:#1f77b4;"/>
   </g>
   <g id="patch_39">
    <path clip-path="url(#pdf8bd82c47)" d="M 194.612403 307.584 
L 197.241132 307.584 
L 197.241132 283.569253 
L 194.612403 283.569253 
z
" style="fill:#1f77b4;"/>
   </g>
   <g id="patch_40">
    <path clip-path="url(#pdf8bd82c47)" d="M 197.241128 307.584 
L 199.86986 307.584 
L 199.86986 250.821955 
L 197.241128 250.821955 
z
" style="fill:#1f77b4;"/>
   </g>
   <g id="patch_41">
    <path clip-path="url(#pdf8bd82c47)" d="M 199.869864 307.584 
L 202.498593 307.584 
L 202.498593 259.554506 
L 199.869864 259.554506 
z
" style="fill:#1f77b4;"/>
   </g>
   <g id="patch_42">
    <path clip-path="url(#pdf8bd82c47)" d="M 202.498593 307.584 
L 205.127326 307.584 
L 205.127326 266.104044 
L 202.498593 266.104044 
z
" style="fill:#1f77b4;"/>
   </g>
   <g id="patch_43">
    <path clip-path="url(#pdf8bd82c47)" d="M 205.127326 307.584 
L 207.756057 307.584 
L 207.756057 268.28717 
L 205.127326 268.28717 
z
" style="fill:#1f77b4;"/>
   </g>
   <g id="patch_44">
    <path clip-path="url(#pdf8bd82c47)" d="M 207.756059 307.584 
L 210.384789 307.584 
L 210.384789 246.455598 
L 207.756059 246.455598 
z
" style="fill:#1f77b4;"/>
   </g>
   <g id="patch_45">
    <path clip-path="url(#pdf8bd82c47)" d="M 210.384787 307.584 
L 213.013518 307.584 
L 213.013518 215.891398 
L 210.384787 215.891398 
z
" style="fill:#1f77b4;"/>
   </g>
   <g id="patch_46">
    <path clip-path="url(#pdf8bd82c47)" d="M 213.01352 307.584 
L 215.642251 307.584 
L 215.642251 218.074555 
L 213.01352 218.074555 
z
" style="fill:#1f77b4;"/>
   </g>
   <g id="patch_47">
    <path clip-path="url(#pdf8bd82c47)" d="M 215.642249 307.584 
L 218.27098 307.584 
L 218.27098 222.440869 
L 215.642249 222.440869 
z
" style="fill:#1f77b4;"/>
   </g>
   <g id="patch_48">
    <path clip-path="url(#pdf8bd82c47)" d="M 218.270982 307.584 
L 220.899713 307.584 
L 220.899713 253.00507 
L 218.270982 253.00507 
z
" style="fill:#1f77b4;"/>
   </g>
   <g id="patch_49">
    <path clip-path="url(#pdf8bd82c47)" d="M 220.899711 307.584 
L 223.528441 307.584 
L 223.528441 248.638756 
L 220.899711 248.638756 
z
" style="fill:#1f77b4;"/>
   </g>
   <g id="patch_50">
    <path clip-path="url(#pdf8bd82c47)" d="M 223.528441 307.584 
L 226.157172 307.584 
L 226.157172 239.906127 
L 223.528441 239.906127 
z
" style="fill:#1f77b4;"/>
   </g>
   <g id="patch_51">
    <path clip-path="url(#pdf8bd82c47)" d="M 226.157172 307.584 
L 228.785903 307.584 
L 228.785903 253.00507 
L 226.157172 253.00507 
z
" style="fill:#1f77b4;"/>
   </g>
   <g id="patch_52">
    <path clip-path="url(#pdf8bd82c47)" d="M 228.785903 307.584 
L 231.414634 307.584 
L 231.414634 246.455598 
L 228.785903 246.455598 
z
" style="fill:#1f77b4;"/>
   </g>
   <g id="patch_53">
    <path clip-path="url(#pdf8bd82c47)" d="M 231.414634 307.584 
L 234.043364 307.584 
L 234.043364 242.089284 
L 231.414634 242.089284 
z
" style="fill:#1f77b4;"/>
   </g>
   <g id="patch_54">
    <path clip-path="url(#pdf8bd82c47)" d="M 234.043364 307.584 
L 236.672095 307.584 
L 236.672095 124.198812 
L 234.043364 124.198812 
z
" style="fill:#1f77b4;"/>
   </g>
   <g id="patch_55">
    <path clip-path="url(#pdf8bd82c47)" d="M 236.672095 307.584 
L 239.300826 307.584 
L 239.300826 239.906127 
L 236.672095 239.906127 
z
" style="fill:#1f77b4;"/>
   </g>
   <g id="patch_56">
    <path clip-path="url(#pdf8bd82c47)" d="M 239.300827 307.584 
L 241.929558 307.584 
L 241.929558 244.272447 
L 239.300827 244.272447 
z
" style="fill:#1f77b4;"/>
   </g>
   <g id="patch_57">
    <path clip-path="url(#pdf8bd82c47)" d="M 241.929557 307.584 
L 244.558288 307.584 
L 244.558288 200.609278 
L 241.929557 200.609278 
z
" style="fill:#1f77b4;"/>
   </g>
   <g id="patch_58">
    <path clip-path="url(#pdf8bd82c47)" d="M 244.558288 307.584 
L 247.187018 307.584 
L 247.187018 211.525083 
L 244.558288 211.525083 
z
" style="fill:#1f77b4;"/>
   </g>
   <g id="patch_59">
    <path clip-path="url(#pdf8bd82c47)" d="M 247.187018 307.584 
L 249.81575 307.584 
L 249.81575 244.272465 
L 247.187018 244.272465 
z
" style="fill:#1f77b4;"/>
   </g>
   <g id="patch_60">
    <path clip-path="url(#pdf8bd82c47)" d="M 249.815751 307.584 
L 252.44448 307.584 
L 252.44448 253.00505 
L 249.815751 253.00505 
z
" style="fill:#1f77b4;"/>
   </g>
   <g id="patch_61">
    <path clip-path="url(#pdf8bd82c47)" d="M 252.44448 307.584 
L 255.073211 307.584 
L 255.073211 239.906127 
L 252.44448 239.906127 
z
" style="fill:#1f77b4;"/>
   </g>
   <g id="patch_62">
    <path clip-path="url(#pdf8bd82c47)" d="M 255.073213 307.584 
L 257.701943 307.584 
L 257.701943 266.104013 
L 255.073213 266.104013 
z
" style="fill:#1f77b4;"/>
   </g>
   <g id="patch_63">
    <path clip-path="url(#pdf8bd82c47)" d="M 257.701941 307.584 
L 260.330672 307.584 
L 260.330672 253.00507 
L 257.701941 253.00507 
z
" style="fill:#1f77b4;"/>
   </g>
   <g id="patch_64">
    <path clip-path="url(#pdf8bd82c47)" d="M 260.330674 307.584 
L 262.959405 307.584 
L 262.959405 259.554542 
L 260.330674 259.554542 
z
" style="fill:#1f77b4;"/>
   </g>
   <g id="patch_65">
    <path clip-path="url(#pdf8bd82c47)" d="M 262.959403 307.584 
L 265.588136 307.584 
L 265.588136 259.554577 
L 262.959403 259.554577 
z
" style="fill:#1f77b4;"/>
   </g>
   <g id="patch_66">
    <path clip-path="url(#pdf8bd82c47)" d="M 265.588136 307.584 
L 268.216867 307.584 
L 268.216867 255.188227 
L 265.588136 255.188227 
z
" style="fill:#1f77b4;"/>
   </g>
   <g id="patch_67">
    <path clip-path="url(#pdf8bd82c47)" d="M 268.216868 307.584 
L 270.845597 307.584 
L 270.845597 257.371384 
L 268.216868 257.371384 
z
" style="fill:#1f77b4;"/>
   </g>
   <g id="patch_68">
    <path clip-path="url(#pdf8bd82c47)" d="M 270.845597 307.584 
L 273.474326 307.584 
L 273.474326 255.188189 
L 270.845597 255.188189 
z
" style="fill:#1f77b4;"/>
   </g>
   <g id="patch_69">
    <path clip-path="url(#pdf8bd82c47)" d="M 273.474326 307.584 
L 276.103059 307.584 
L 276.103059 263.920888 
L 273.474326 263.920888 
z
" style="fill:#1f77b4;"/>
   </g>
   <g id="patch_70">
    <path clip-path="url(#pdf8bd82c47)" d="M 276.103059 307.584 
L 278.731788 307.584 
L 278.731788 277.019777 
L 276.103059 277.019777 
z
" style="fill:#1f77b4;"/>
   </g>
   <g id="patch_71">
    <path clip-path="url(#pdf8bd82c47)" d="M 278.731784 307.584 
L 281.360517 307.584 
L 281.360517 266.104044 
L 278.731784 266.104044 
z
" style="fill:#1f77b4;"/>
   </g>
   <g id="patch_72">
    <path clip-path="url(#pdf8bd82c47)" d="M 281.36052 307.584 
L 283.989249 307.584 
L 283.989249 272.653459 
L 281.36052 272.653459 
z
" style="fill:#1f77b4;"/>
   </g>
   <g id="patch_73">
    <path clip-path="url(#pdf8bd82c47)" d="M 283.989249 307.584 
L 286.617982 307.584 
L 286.617982 281.386133 
L 283.989249 281.386133 
z
" style="fill:#1f77b4;"/>
   </g>
   <g id="patch_74">
    <path clip-path="url(#pdf8bd82c47)" d="M 286.617982 307.584 
L 289.246711 307.584 
L 289.246711 281.386094 
L 286.617982 281.386094 
z
" style="fill:#1f77b4;"/>
   </g>
   <g id="patch_75">
    <path clip-path="url(#pdf8bd82c47)" d="M 289.246707 307.584 
L 291.87544 307.584 
L 291.87544 292.301911 
L 289.246707 292.301911 
z
" style="fill:#1f77b4;"/>
   </g>
   <g id="patch_76">
    <path clip-path="url(#pdf8bd82c47)" d="M 291.875444 307.584 
L 294.504172 307.584 
L 294.504172 272.653459 
L 291.875444 272.653459 
z
" style="fill:#1f77b4;"/>
   </g>
   <g id="patch_77">
    <path clip-path="url(#pdf8bd82c47)" d="M 294.504172 307.584 
L 297.132905 307.584 
L 297.132905 285.752444 
L 294.504172 285.752444 
z
" style="fill:#1f77b4;"/>
   </g>
   <g id="patch_78">
    <path clip-path="url(#pdf8bd82c47)" d="M 297.132901 307.584 
L 299.761634 307.584 
L 299.761634 268.287199 
L 297.132901 268.287199 
z
" style="fill:#1f77b4;"/>
   </g>
   <g id="patch_79">
    <path clip-path="url(#pdf8bd82c47)" d="M 299.761638 307.584 
L 302.390367 307.584 
L 302.390367 263.920824 
L 299.761638 263.920824 
z
" style="fill:#1f77b4;"/>
   </g>
   <g id="patch_80">
    <path clip-path="url(#pdf8bd82c47)" d="M 302.390374 307.584 
L 305.019103 307.584 
L 305.019103 277.019777 
L 302.390374 277.019777 
z
" style="fill:#1f77b4;"/>
   </g>
   <g id="patch_81">
    <path clip-path="url(#pdf8bd82c47)" d="M 305.019095 307.584 
L 307.647832 307.584 
L 307.647832 274.836714 
L 305.019095 274.836714 
z
" style="fill:#1f77b4;"/>
   </g>
   <g id="patch_82">
    <path clip-path="url(#pdf8bd82c47)" d="M 307.647832 307.584 
L 310.276561 307.584 
L 310.276561 263.920824 
L 307.647832 263.920824 
z
" style="fill:#1f77b4;"/>
   </g>
   <g id="patch_83">
    <path clip-path="url(#pdf8bd82c47)" d="M 310.276569 307.584 
L 312.905298 307.584 
L 312.905298 272.653459 
L 310.276569 272.653459 
z
" style="fill:#1f77b4;"/>
   </g>
   <g id="patch_84">
    <path clip-path="url(#pdf8bd82c47)" d="M 312.90529 307.584 
L 315.534019 307.584 
L 315.534019 255.188189 
L 312.90529 255.188189 
z
" style="fill:#1f77b4;"/>
   </g>
   <g id="patch_85">
    <path clip-path="url(#pdf8bd82c47)" d="M 315.534019 307.584 
L 318.162755 307.584 
L 318.162755 246.455733 
L 315.534019 246.455733 
z
" style="fill:#1f77b4;"/>
   </g>
   <g id="patch_86">
    <path clip-path="url(#pdf8bd82c47)" d="M 318.162763 307.584 
L 320.791492 307.584 
L 320.791492 277.019777 
L 318.162763 277.019777 
z
" style="fill:#1f77b4;"/>
   </g>
   <g id="patch_87">
    <path clip-path="url(#pdf8bd82c47)" d="M 320.791484 307.584 
L 323.420213 307.584 
L 323.420213 274.836618 
L 320.791484 274.836618 
z
" style="fill:#1f77b4;"/>
   </g>
   <g id="patch_88">
    <path clip-path="url(#pdf8bd82c47)" d="M 323.420221 307.584 
L 326.048949 307.584 
L 326.048949 268.287142 
L 323.420221 268.287142 
z
" style="fill:#1f77b4;"/>
   </g>
   <g id="patch_89">
    <path clip-path="url(#pdf8bd82c47)" d="M 326.048942 307.584 
L 328.677678 307.584 
L 328.677678 239.906276 
L 326.048942 239.906276 
z
" style="fill:#1f77b4;"/>
   </g>
   <g id="patch_90">
    <path clip-path="url(#pdf8bd82c47)" d="M 328.677678 307.584 
L 331.306407 307.584 
L 331.306407 244.272395 
L 328.677678 244.272395 
z
" style="fill:#1f77b4;"/>
   </g>
   <g id="patch_91">
    <path clip-path="url(#pdf8bd82c47)" d="M 331.306415 307.584 
L 333.935144 307.584 
L 333.935144 266.103983 
L 331.306415 266.103983 
z
" style="fill:#1f77b4;"/>
   </g>
   <g id="patch_92">
    <path clip-path="url(#pdf8bd82c47)" d="M 333.935136 307.584 
L 336.563865 307.584 
L 336.563865 250.821871 
L 333.935136 250.821871 
z
" style="fill:#1f77b4;"/>
   </g>
   <g id="patch_93">
    <path clip-path="url(#pdf8bd82c47)" d="M 336.563865 307.584 
L 339.192601 307.584 
L 339.192601 250.822038 
L 336.563865 250.822038 
z
" style="fill:#1f77b4;"/>
   </g>
   <g id="patch_94">
    <path clip-path="url(#pdf8bd82c47)" d="M 339.192609 307.584 
L 341.821338 307.584 
L 341.821338 272.653459 
L 339.192609 272.653459 
z
" style="fill:#1f77b4;"/>
   </g>
   <g id="patch_95">
    <path clip-path="url(#pdf8bd82c47)" d="M 341.82133 307.584 
L 344.450059 307.584 
L 344.450059 292.301888 
L 341.82133 292.301888 
z
" style="fill:#1f77b4;"/>
   </g>
   <g id="patch_96">
    <path clip-path="url(#pdf8bd82c47)" d="M 344.450067 307.584 
L 347.078796 307.584 
L 347.078796 301.034524 
L 344.450067 301.034524 
z
" style="fill:#1f77b4;"/>
   </g>
   <g id="patch_97">
    <path clip-path="url(#pdf8bd82c47)" d="M 347.078788 307.584 
L 349.707525 307.584 
L 349.707525 305.400848 
L 347.078788 305.400848 
z
" style="fill:#1f77b4;"/>
   </g>
   <g id="patch_98">
    <path clip-path="url(#pdf8bd82c47)" d="M 349.707525 307.584 
L 352.336253 307.584 
L 352.336253 296.668206 
L 349.707525 296.668206 
z
" style="fill:#1f77b4;"/>
   </g>
   <g id="patch_99">
    <path clip-path="url(#pdf8bd82c47)" d="M 352.336261 307.584 
L 354.96499 307.584 
L 354.96499 287.935571 
L 352.336261 287.935571 
z
" style="fill:#1f77b4;"/>
   </g>
   <g id="patch_100">
    <path clip-path="url(#pdf8bd82c47)" d="M 354.964982 307.584 
L 357.593711 307.584 
L 357.593711 296.668206 
L 354.964982 296.668206 
z
" style="fill:#1f77b4;"/>
   </g>
   <g id="patch_101">
    <path clip-path="url(#pdf8bd82c47)" d="M 357.593711 307.584 
L 360.222448 307.584 
L 360.222448 307.584 
L 357.593711 307.584 
z
" style="fill:#1f77b4;"/>
   </g>
   <g id="patch_102">
    <path clip-path="url(#pdf8bd82c47)" d="M 360.222455 307.584 
L 362.851184 307.584 
L 362.851184 305.400841 
L 360.222455 305.400841 
z
" style="fill:#1f77b4;"/>
   </g>
   <g id="matplotlib.axis_1">
    <g id="xtick_1">
     <g id="line2d_1">
      <defs>
       <path d="M 0 0 
L 0 3.5 
" id="mf493fec8ec" style="stroke:#000000;stroke-width:0.8;"/>
      </defs>
      <g>
       <use style="stroke:#000000;stroke-width:0.8;" x="106.304676" xlink:href="#mf493fec8ec" y="307.584"/>
      </g>
     </g>
     <g id="text_1">
      <!-- −2 -->
      <defs>
       <path d="M 10.59375 35.5 
L 73.1875 35.5 
L 73.1875 27.203125 
L 10.59375 27.203125 
z
" id="DejaVuSans-8722"/>
       <path d="M 19.1875 8.296875 
L 53.609375 8.296875 
L 53.609375 0 
L 7.328125 0 
L 7.328125 8.296875 
Q 12.9375 14.109375 22.625 23.890625 
Q 32.328125 33.6875 34.8125 36.53125 
Q 39.546875 41.84375 41.421875 45.53125 
Q 43.3125 49.21875 43.3125 52.78125 
Q 43.3125 58.59375 39.234375 62.25 
Q 35.15625 65.921875 28.609375 65.921875 
Q 23.96875 65.921875 18.8125 64.3125 
Q 13.671875 62.703125 7.8125 59.421875 
L 7.8125 69.390625 
Q 13.765625 71.78125 18.9375 73 
Q 24.125 74.21875 28.421875 74.21875 
Q 39.75 74.21875 46.484375 68.546875 
Q 53.21875 62.890625 53.21875 53.421875 
Q 53.21875 48.921875 51.53125 44.890625 
Q 49.859375 40.875 45.40625 35.40625 
Q 44.1875 33.984375 37.640625 27.21875 
Q 31.109375 20.453125 19.1875 8.296875 
z
" id="DejaVuSans-50"/>
      </defs>
      <g transform="translate(93.773817 327.501344)scale(0.17 -0.17)">
       <use xlink:href="#DejaVuSans-8722"/>
       <use x="83.789062" xlink:href="#DejaVuSans-50"/>
      </g>
     </g>
    </g>
    <g id="xtick_2">
     <g id="line2d_2">
      <g>
       <use style="stroke:#000000;stroke-width:0.8;" x="171.248574" xlink:href="#mf493fec8ec" y="307.584"/>
      </g>
     </g>
     <g id="text_2">
      <!-- −1 -->
      <defs>
       <path d="M 12.40625 8.296875 
L 28.515625 8.296875 
L 28.515625 63.921875 
L 10.984375 60.40625 
L 10.984375 69.390625 
L 28.421875 72.90625 
L 38.28125 72.90625 
L 38.28125 8.296875 
L 54.390625 8.296875 
L 54.390625 0 
L 12.40625 0 
z
" id="DejaVuSans-49"/>
      </defs>
      <g transform="translate(158.717715 327.501344)scale(0.17 -0.17)">
       <use xlink:href="#DejaVuSans-8722"/>
       <use x="83.789062" xlink:href="#DejaVuSans-49"/>
      </g>
     </g>
    </g>
    <g id="xtick_3">
     <g id="line2d_3">
      <g>
       <use style="stroke:#000000;stroke-width:0.8;" x="236.192472" xlink:href="#mf493fec8ec" y="307.584"/>
      </g>
     </g>
     <g id="text_3">
      <!-- 0 -->
      <defs>
       <path d="M 31.78125 66.40625 
Q 24.171875 66.40625 20.328125 58.90625 
Q 16.5 51.421875 16.5 36.375 
Q 16.5 21.390625 20.328125 13.890625 
Q 24.171875 6.390625 31.78125 6.390625 
Q 39.453125 6.390625 43.28125 13.890625 
Q 47.125 21.390625 47.125 36.375 
Q 47.125 51.421875 43.28125 58.90625 
Q 39.453125 66.40625 31.78125 66.40625 
z
M 31.78125 74.21875 
Q 44.046875 74.21875 50.515625 64.515625 
Q 56.984375 54.828125 56.984375 36.375 
Q 56.984375 17.96875 50.515625 8.265625 
Q 44.046875 -1.421875 31.78125 -1.421875 
Q 19.53125 -1.421875 13.0625 8.265625 
Q 6.59375 17.96875 6.59375 36.375 
Q 6.59375 54.828125 13.0625 64.515625 
Q 19.53125 74.21875 31.78125 74.21875 
z
" id="DejaVuSans-48"/>
      </defs>
      <g transform="translate(230.784347 327.501344)scale(0.17 -0.17)">
       <use xlink:href="#DejaVuSans-48"/>
      </g>
     </g>
    </g>
    <g id="xtick_4">
     <g id="line2d_4">
      <g>
       <use style="stroke:#000000;stroke-width:0.8;" x="301.13637" xlink:href="#mf493fec8ec" y="307.584"/>
      </g>
     </g>
     <g id="text_4">
      <!-- 1 -->
      <g transform="translate(295.728245 327.501344)scale(0.17 -0.17)">
       <use xlink:href="#DejaVuSans-49"/>
      </g>
     </g>
    </g>
    <g id="xtick_5">
     <g id="line2d_5">
      <g>
       <use style="stroke:#000000;stroke-width:0.8;" x="366.080268" xlink:href="#mf493fec8ec" y="307.584"/>
      </g>
     </g>
     <g id="text_5">
      <!-- 2 -->
      <g transform="translate(360.672143 327.501344)scale(0.17 -0.17)">
       <use xlink:href="#DejaVuSans-50"/>
      </g>
     </g>
    </g>
    <g id="text_6">
     <!-- Position in Radian -->
     <defs>
      <path d="M 19.671875 64.796875 
L 19.671875 37.40625 
L 32.078125 37.40625 
Q 38.96875 37.40625 42.71875 40.96875 
Q 46.484375 44.53125 46.484375 51.125 
Q 46.484375 57.671875 42.71875 61.234375 
Q 38.96875 64.796875 32.078125 64.796875 
z
M 9.8125 72.90625 
L 32.078125 72.90625 
Q 44.34375 72.90625 50.609375 67.359375 
Q 56.890625 61.8125 56.890625 51.125 
Q 56.890625 40.328125 50.609375 34.8125 
Q 44.34375 29.296875 32.078125 29.296875 
L 19.671875 29.296875 
L 19.671875 0 
L 9.8125 0 
z
" id="DejaVuSans-80"/>
      <path d="M 30.609375 48.390625 
Q 23.390625 48.390625 19.1875 42.75 
Q 14.984375 37.109375 14.984375 27.296875 
Q 14.984375 17.484375 19.15625 11.84375 
Q 23.34375 6.203125 30.609375 6.203125 
Q 37.796875 6.203125 41.984375 11.859375 
Q 46.1875 17.53125 46.1875 27.296875 
Q 46.1875 37.015625 41.984375 42.703125 
Q 37.796875 48.390625 30.609375 48.390625 
z
M 30.609375 56 
Q 42.328125 56 49.015625 48.375 
Q 55.71875 40.765625 55.71875 27.296875 
Q 55.71875 13.875 49.015625 6.21875 
Q 42.328125 -1.421875 30.609375 -1.421875 
Q 18.84375 -1.421875 12.171875 6.21875 
Q 5.515625 13.875 5.515625 27.296875 
Q 5.515625 40.765625 12.171875 48.375 
Q 18.84375 56 30.609375 56 
z
" id="DejaVuSans-111"/>
      <path d="M 44.28125 53.078125 
L 44.28125 44.578125 
Q 40.484375 46.53125 36.375 47.5 
Q 32.28125 48.484375 27.875 48.484375 
Q 21.1875 48.484375 17.84375 46.4375 
Q 14.5 44.390625 14.5 40.28125 
Q 14.5 37.15625 16.890625 35.375 
Q 19.28125 33.59375 26.515625 31.984375 
L 29.59375 31.296875 
Q 39.15625 29.25 43.1875 25.515625 
Q 47.21875 21.78125 47.21875 15.09375 
Q 47.21875 7.46875 41.1875 3.015625 
Q 35.15625 -1.421875 24.609375 -1.421875 
Q 20.21875 -1.421875 15.453125 -0.5625 
Q 10.6875 0.296875 5.421875 2 
L 5.421875 11.28125 
Q 10.40625 8.6875 15.234375 7.390625 
Q 20.0625 6.109375 24.8125 6.109375 
Q 31.15625 6.109375 34.5625 8.28125 
Q 37.984375 10.453125 37.984375 14.40625 
Q 37.984375 18.0625 35.515625 20.015625 
Q 33.0625 21.96875 24.703125 23.78125 
L 21.578125 24.515625 
Q 13.234375 26.265625 9.515625 29.90625 
Q 5.8125 33.546875 5.8125 39.890625 
Q 5.8125 47.609375 11.28125 51.796875 
Q 16.75 56 26.8125 56 
Q 31.78125 56 36.171875 55.265625 
Q 40.578125 54.546875 44.28125 53.078125 
z
" id="DejaVuSans-115"/>
      <path d="M 9.421875 54.6875 
L 18.40625 54.6875 
L 18.40625 0 
L 9.421875 0 
z
M 9.421875 75.984375 
L 18.40625 75.984375 
L 18.40625 64.59375 
L 9.421875 64.59375 
z
" id="DejaVuSans-105"/>
      <path d="M 18.3125 70.21875 
L 18.3125 54.6875 
L 36.8125 54.6875 
L 36.8125 47.703125 
L 18.3125 47.703125 
L 18.3125 18.015625 
Q 18.3125 11.328125 20.140625 9.421875 
Q 21.96875 7.515625 27.59375 7.515625 
L 36.8125 7.515625 
L 36.8125 0 
L 27.59375 0 
Q 17.1875 0 13.234375 3.875 
Q 9.28125 7.765625 9.28125 18.015625 
L 9.28125 47.703125 
L 2.6875 47.703125 
L 2.6875 54.6875 
L 9.28125 54.6875 
L 9.28125 70.21875 
z
" id="DejaVuSans-116"/>
      <path d="M 54.890625 33.015625 
L 54.890625 0 
L 45.90625 0 
L 45.90625 32.71875 
Q 45.90625 40.484375 42.875 44.328125 
Q 39.84375 48.1875 33.796875 48.1875 
Q 26.515625 48.1875 22.3125 43.546875 
Q 18.109375 38.921875 18.109375 30.90625 
L 18.109375 0 
L 9.078125 0 
L 9.078125 54.6875 
L 18.109375 54.6875 
L 18.109375 46.1875 
Q 21.34375 51.125 25.703125 53.5625 
Q 30.078125 56 35.796875 56 
Q 45.21875 56 50.046875 50.171875 
Q 54.890625 44.34375 54.890625 33.015625 
z
" id="DejaVuSans-110"/>
      <path id="DejaVuSans-32"/>
      <path d="M 44.390625 34.1875 
Q 47.5625 33.109375 50.5625 29.59375 
Q 53.5625 26.078125 56.59375 19.921875 
L 66.609375 0 
L 56 0 
L 46.6875 18.703125 
Q 43.0625 26.03125 39.671875 28.421875 
Q 36.28125 30.8125 30.421875 30.8125 
L 19.671875 30.8125 
L 19.671875 0 
L 9.8125 0 
L 9.8125 72.90625 
L 32.078125 72.90625 
Q 44.578125 72.90625 50.734375 67.671875 
Q 56.890625 62.453125 56.890625 51.90625 
Q 56.890625 45.015625 53.6875 40.46875 
Q 50.484375 35.9375 44.390625 34.1875 
z
M 19.671875 64.796875 
L 19.671875 38.921875 
L 32.078125 38.921875 
Q 39.203125 38.921875 42.84375 42.21875 
Q 46.484375 45.515625 46.484375 51.90625 
Q 46.484375 58.296875 42.84375 61.546875 
Q 39.203125 64.796875 32.078125 64.796875 
z
" id="DejaVuSans-82"/>
      <path d="M 34.28125 27.484375 
Q 23.390625 27.484375 19.1875 25 
Q 14.984375 22.515625 14.984375 16.5 
Q 14.984375 11.71875 18.140625 8.90625 
Q 21.296875 6.109375 26.703125 6.109375 
Q 34.1875 6.109375 38.703125 11.40625 
Q 43.21875 16.703125 43.21875 25.484375 
L 43.21875 27.484375 
z
M 52.203125 31.203125 
L 52.203125 0 
L 43.21875 0 
L 43.21875 8.296875 
Q 40.140625 3.328125 35.546875 0.953125 
Q 30.953125 -1.421875 24.3125 -1.421875 
Q 15.921875 -1.421875 10.953125 3.296875 
Q 6 8.015625 6 15.921875 
Q 6 25.140625 12.171875 29.828125 
Q 18.359375 34.515625 30.609375 34.515625 
L 43.21875 34.515625 
L 43.21875 35.40625 
Q 43.21875 41.609375 39.140625 45 
Q 35.0625 48.390625 27.6875 48.390625 
Q 23 48.390625 18.546875 47.265625 
Q 14.109375 46.140625 10.015625 43.890625 
L 10.015625 52.203125 
Q 14.9375 54.109375 19.578125 55.046875 
Q 24.21875 56 28.609375 56 
Q 40.484375 56 46.34375 49.84375 
Q 52.203125 43.703125 52.203125 31.203125 
z
" id="DejaVuSans-97"/>
      <path d="M 45.40625 46.390625 
L 45.40625 75.984375 
L 54.390625 75.984375 
L 54.390625 0 
L 45.40625 0 
L 45.40625 8.203125 
Q 42.578125 3.328125 38.25 0.953125 
Q 33.9375 -1.421875 27.875 -1.421875 
Q 17.96875 -1.421875 11.734375 6.484375 
Q 5.515625 14.40625 5.515625 27.296875 
Q 5.515625 40.1875 11.734375 48.09375 
Q 17.96875 56 27.875 56 
Q 33.9375 56 38.25 53.625 
Q 42.578125 51.265625 45.40625 46.390625 
z
M 14.796875 27.296875 
Q 14.796875 17.390625 18.875 11.75 
Q 22.953125 6.109375 30.078125 6.109375 
Q 37.203125 6.109375 41.296875 11.75 
Q 45.40625 17.390625 45.40625 27.296875 
Q 45.40625 37.203125 41.296875 42.84375 
Q 37.203125 48.484375 30.078125 48.484375 
Q 22.953125 48.484375 18.875 42.84375 
Q 14.796875 37.203125 14.796875 27.296875 
z
" id="DejaVuSans-100"/>
     </defs>
     <g transform="translate(102.024844 357.832125)scale(0.3 -0.3)">
      <use xlink:href="#DejaVuSans-80"/>
      <use x="60.255859" xlink:href="#DejaVuSans-111"/>
      <use x="121.4375" xlink:href="#DejaVuSans-115"/>
      <use x="173.537109" xlink:href="#DejaVuSans-105"/>
      <use x="201.320312" xlink:href="#DejaVuSans-116"/>
      <use x="240.529297" xlink:href="#DejaVuSans-105"/>
      <use x="268.3125" xlink:href="#DejaVuSans-111"/>
      <use x="329.494141" xlink:href="#DejaVuSans-110"/>
      <use x="392.873047" xlink:href="#DejaVuSans-32"/>
      <use x="424.660156" xlink:href="#DejaVuSans-105"/>
      <use x="452.443359" xlink:href="#DejaVuSans-110"/>
      <use x="515.822266" xlink:href="#DejaVuSans-32"/>
      <use x="547.609375" xlink:href="#DejaVuSans-82"/>
      <use x="617.060547" xlink:href="#DejaVuSans-97"/>
      <use x="678.339844" xlink:href="#DejaVuSans-100"/>
      <use x="741.816406" xlink:href="#DejaVuSans-105"/>
      <use x="769.599609" xlink:href="#DejaVuSans-97"/>
      <use x="830.878906" xlink:href="#DejaVuSans-110"/>
     </g>
    </g>
   </g>
   <g id="matplotlib.axis_2">
    <g id="ytick_1">
     <g id="line2d_6">
      <defs>
       <path d="M 0 0 
L -3.5 0 
" id="m08dce7a8a2" style="stroke:#000000;stroke-width:0.8;"/>
      </defs>
      <g>
       <use style="stroke:#000000;stroke-width:0.8;" x="57.6" xlink:href="#m08dce7a8a2" y="307.584"/>
      </g>
     </g>
     <g id="text_7">
      <!-- 0.0 -->
      <defs>
       <path d="M 10.6875 12.40625 
L 21 12.40625 
L 21 0 
L 10.6875 0 
z
" id="DejaVuSans-46"/>
      </defs>
      <g transform="translate(23.564687 314.042672)scale(0.17 -0.17)">
       <use xlink:href="#DejaVuSans-48"/>
       <use x="63.623047" xlink:href="#DejaVuSans-46"/>
       <use x="95.410156" xlink:href="#DejaVuSans-48"/>
      </g>
     </g>
    </g>
    <g id="ytick_2">
     <g id="line2d_7">
      <g>
       <use style="stroke:#000000;stroke-width:0.8;" x="57.6" xlink:href="#m08dce7a8a2" y="263.40023"/>
      </g>
     </g>
     <g id="text_8">
      <!-- 0.2 -->
      <g transform="translate(23.564687 269.858902)scale(0.17 -0.17)">
       <use xlink:href="#DejaVuSans-48"/>
       <use x="63.623047" xlink:href="#DejaVuSans-46"/>
       <use x="95.410156" xlink:href="#DejaVuSans-50"/>
      </g>
     </g>
    </g>
    <g id="ytick_3">
     <g id="line2d_8">
      <g>
       <use style="stroke:#000000;stroke-width:0.8;" x="57.6" xlink:href="#m08dce7a8a2" y="219.21646"/>
      </g>
     </g>
     <g id="text_9">
      <!-- 0.4 -->
      <defs>
       <path d="M 37.796875 64.3125 
L 12.890625 25.390625 
L 37.796875 25.390625 
z
M 35.203125 72.90625 
L 47.609375 72.90625 
L 47.609375 25.390625 
L 58.015625 25.390625 
L 58.015625 17.1875 
L 47.609375 17.1875 
L 47.609375 0 
L 37.796875 0 
L 37.796875 17.1875 
L 4.890625 17.1875 
L 4.890625 26.703125 
z
" id="DejaVuSans-52"/>
      </defs>
      <g transform="translate(23.564687 225.675131)scale(0.17 -0.17)">
       <use xlink:href="#DejaVuSans-48"/>
       <use x="63.623047" xlink:href="#DejaVuSans-46"/>
       <use x="95.410156" xlink:href="#DejaVuSans-52"/>
      </g>
     </g>
    </g>
    <g id="ytick_4">
     <g id="line2d_9">
      <g>
       <use style="stroke:#000000;stroke-width:0.8;" x="57.6" xlink:href="#m08dce7a8a2" y="175.032689"/>
      </g>
     </g>
     <g id="text_10">
      <!-- 0.6 -->
      <defs>
       <path d="M 33.015625 40.375 
Q 26.375 40.375 22.484375 35.828125 
Q 18.609375 31.296875 18.609375 23.390625 
Q 18.609375 15.53125 22.484375 10.953125 
Q 26.375 6.390625 33.015625 6.390625 
Q 39.65625 6.390625 43.53125 10.953125 
Q 47.40625 15.53125 47.40625 23.390625 
Q 47.40625 31.296875 43.53125 35.828125 
Q 39.65625 40.375 33.015625 40.375 
z
M 52.59375 71.296875 
L 52.59375 62.3125 
Q 48.875 64.0625 45.09375 64.984375 
Q 41.3125 65.921875 37.59375 65.921875 
Q 27.828125 65.921875 22.671875 59.328125 
Q 17.53125 52.734375 16.796875 39.40625 
Q 19.671875 43.65625 24.015625 45.921875 
Q 28.375 48.1875 33.59375 48.1875 
Q 44.578125 48.1875 50.953125 41.515625 
Q 57.328125 34.859375 57.328125 23.390625 
Q 57.328125 12.15625 50.6875 5.359375 
Q 44.046875 -1.421875 33.015625 -1.421875 
Q 20.359375 -1.421875 13.671875 8.265625 
Q 6.984375 17.96875 6.984375 36.375 
Q 6.984375 53.65625 15.1875 63.9375 
Q 23.390625 74.21875 37.203125 74.21875 
Q 40.921875 74.21875 44.703125 73.484375 
Q 48.484375 72.75 52.59375 71.296875 
z
" id="DejaVuSans-54"/>
      </defs>
      <g transform="translate(23.564687 181.491361)scale(0.17 -0.17)">
       <use xlink:href="#DejaVuSans-48"/>
       <use x="63.623047" xlink:href="#DejaVuSans-46"/>
       <use x="95.410156" xlink:href="#DejaVuSans-54"/>
      </g>
     </g>
    </g>
    <g id="ytick_5">
     <g id="line2d_10">
      <g>
       <use style="stroke:#000000;stroke-width:0.8;" x="57.6" xlink:href="#m08dce7a8a2" y="130.848919"/>
      </g>
     </g>
     <g id="text_11">
      <!-- 0.8 -->
      <defs>
       <path d="M 31.78125 34.625 
Q 24.75 34.625 20.71875 30.859375 
Q 16.703125 27.09375 16.703125 20.515625 
Q 16.703125 13.921875 20.71875 10.15625 
Q 24.75 6.390625 31.78125 6.390625 
Q 38.8125 6.390625 42.859375 10.171875 
Q 46.921875 13.96875 46.921875 20.515625 
Q 46.921875 27.09375 42.890625 30.859375 
Q 38.875 34.625 31.78125 34.625 
z
M 21.921875 38.8125 
Q 15.578125 40.375 12.03125 44.71875 
Q 8.5 49.078125 8.5 55.328125 
Q 8.5 64.0625 14.71875 69.140625 
Q 20.953125 74.21875 31.78125 74.21875 
Q 42.671875 74.21875 48.875 69.140625 
Q 55.078125 64.0625 55.078125 55.328125 
Q 55.078125 49.078125 51.53125 44.71875 
Q 48 40.375 41.703125 38.8125 
Q 48.828125 37.15625 52.796875 32.3125 
Q 56.78125 27.484375 56.78125 20.515625 
Q 56.78125 9.90625 50.3125 4.234375 
Q 43.84375 -1.421875 31.78125 -1.421875 
Q 19.734375 -1.421875 13.25 4.234375 
Q 6.78125 9.90625 6.78125 20.515625 
Q 6.78125 27.484375 10.78125 32.3125 
Q 14.796875 37.15625 21.921875 38.8125 
z
M 18.3125 54.390625 
Q 18.3125 48.734375 21.84375 45.5625 
Q 25.390625 42.390625 31.78125 42.390625 
Q 38.140625 42.390625 41.71875 45.5625 
Q 45.3125 48.734375 45.3125 54.390625 
Q 45.3125 60.0625 41.71875 63.234375 
Q 38.140625 66.40625 31.78125 66.40625 
Q 25.390625 66.40625 21.84375 63.234375 
Q 18.3125 60.0625 18.3125 54.390625 
z
" id="DejaVuSans-56"/>
      </defs>
      <g transform="translate(23.564687 137.307591)scale(0.17 -0.17)">
       <use xlink:href="#DejaVuSans-48"/>
       <use x="63.623047" xlink:href="#DejaVuSans-46"/>
       <use x="95.410156" xlink:href="#DejaVuSans-56"/>
      </g>
     </g>
    </g>
    <g id="ytick_6">
     <g id="line2d_11">
      <g>
       <use style="stroke:#000000;stroke-width:0.8;" x="57.6" xlink:href="#m08dce7a8a2" y="86.665149"/>
      </g>
     </g>
     <g id="text_12">
      <!-- 1.0 -->
      <g transform="translate(23.564687 93.123821)scale(0.17 -0.17)">
       <use xlink:href="#DejaVuSans-49"/>
       <use x="63.623047" xlink:href="#DejaVuSans-46"/>
       <use x="95.410156" xlink:href="#DejaVuSans-48"/>
      </g>
     </g>
    </g>
    <g id="ytick_7">
     <g id="line2d_12">
      <g>
       <use style="stroke:#000000;stroke-width:0.8;" x="57.6" xlink:href="#m08dce7a8a2" y="42.481379"/>
      </g>
     </g>
     <g id="text_13">
      <!-- 1.2 -->
      <g transform="translate(23.564687 48.940051)scale(0.17 -0.17)">
       <use xlink:href="#DejaVuSans-49"/>
       <use x="63.623047" xlink:href="#DejaVuSans-46"/>
       <use x="95.410156" xlink:href="#DejaVuSans-50"/>
      </g>
     </g>
    </g>
    <g id="text_14">
     <!-- Density -->
     <defs>
      <path d="M 19.671875 64.796875 
L 19.671875 8.109375 
L 31.59375 8.109375 
Q 46.6875 8.109375 53.6875 14.9375 
Q 60.6875 21.78125 60.6875 36.53125 
Q 60.6875 51.171875 53.6875 57.984375 
Q 46.6875 64.796875 31.59375 64.796875 
z
M 9.8125 72.90625 
L 30.078125 72.90625 
Q 51.265625 72.90625 61.171875 64.09375 
Q 71.09375 55.28125 71.09375 36.53125 
Q 71.09375 17.671875 61.125 8.828125 
Q 51.171875 0 30.078125 0 
L 9.8125 0 
z
" id="DejaVuSans-68"/>
      <path d="M 56.203125 29.59375 
L 56.203125 25.203125 
L 14.890625 25.203125 
Q 15.484375 15.921875 20.484375 11.0625 
Q 25.484375 6.203125 34.421875 6.203125 
Q 39.59375 6.203125 44.453125 7.46875 
Q 49.3125 8.734375 54.109375 11.28125 
L 54.109375 2.78125 
Q 49.265625 0.734375 44.1875 -0.34375 
Q 39.109375 -1.421875 33.890625 -1.421875 
Q 20.796875 -1.421875 13.15625 6.1875 
Q 5.515625 13.8125 5.515625 26.8125 
Q 5.515625 40.234375 12.765625 48.109375 
Q 20.015625 56 32.328125 56 
Q 43.359375 56 49.78125 48.890625 
Q 56.203125 41.796875 56.203125 29.59375 
z
M 47.21875 32.234375 
Q 47.125 39.59375 43.09375 43.984375 
Q 39.0625 48.390625 32.421875 48.390625 
Q 24.90625 48.390625 20.390625 44.140625 
Q 15.875 39.890625 15.1875 32.171875 
z
" id="DejaVuSans-101"/>
      <path d="M 32.171875 -5.078125 
Q 28.375 -14.84375 24.75 -17.8125 
Q 21.140625 -20.796875 15.09375 -20.796875 
L 7.90625 -20.796875 
L 7.90625 -13.28125 
L 13.1875 -13.28125 
Q 16.890625 -13.28125 18.9375 -11.515625 
Q 21 -9.765625 23.484375 -3.21875 
L 25.09375 0.875 
L 2.984375 54.6875 
L 12.5 54.6875 
L 29.59375 11.921875 
L 46.6875 54.6875 
L 56.203125 54.6875 
z
" id="DejaVuSans-121"/>
     </defs>
     <g transform="translate(13.325625 231.553781)rotate(-90)scale(0.3 -0.3)">
      <use xlink:href="#DejaVuSans-68"/>
      <use x="77.001953" xlink:href="#DejaVuSans-101"/>
      <use x="138.525391" xlink:href="#DejaVuSans-110"/>
      <use x="201.904297" xlink:href="#DejaVuSans-115"/>
      <use x="254.003906" xlink:href="#DejaVuSans-105"/>
      <use x="281.787109" xlink:href="#DejaVuSans-116"/>
      <use x="320.996094" xlink:href="#DejaVuSans-121"/>
     </g>
    </g>
   </g>
   <g id="line2d_13">
    <path clip-path="url(#pdf8bd82c47)" d="M 73.832727 307.584 
L 97.602194 307.502207 
L 97.861969 307.244816 
L 98.056801 306.695353 
L 98.251633 305.453435 
L 98.446465 302.909028 
L 98.70624 295.967562 
L 99.03096 278.511834 
L 99.485567 237.745123 
L 99.940174 202.05802 
L 100.135006 197.395027 
L 100.19995 197.608322 
L 100.329838 200.467156 
L 100.589613 213.310142 
L 101.174108 243.672635 
L 101.433884 248.167507 
L 101.563772 248.534176 
L 101.693659 248.155902 
L 102.148267 246.349038 
L 102.278155 246.757597 
L 102.472986 248.518793 
L 102.797706 254.02767 
L 103.70692 270.935164 
L 104.03164 273.123143 
L 104.161528 273.317757 
L 104.291415 273.13287 
L 104.486247 272.089832 
L 104.746023 268.995589 
L 105.070742 261.968468 
L 106.109845 236.102635 
L 107.148947 225.317239 
L 107.473666 222.869646 
L 107.603554 222.675751 
L 107.733442 222.960089 
L 107.993218 224.611871 
L 108.902432 232.998993 
L 109.746703 244.834392 
L 109.811647 244.698736 
L 109.941534 243.43122 
L 110.136366 238.891666 
L 110.461086 225.153031 
L 111.565132 173.365289 
L 112.084683 160.570478 
L 112.53929 154.157598 
L 113.058842 149.754143 
L 113.318617 148.648663 
L 113.383561 148.637531 
L 113.513449 149.087756 
L 113.708281 151.229172 
L 113.968056 157.168837 
L 115.007159 187.019841 
L 115.072102 187.133072 
L 115.20199 186.378598 
L 115.396822 182.989257 
L 115.851429 168.80581 
L 116.306036 156.708975 
L 116.565812 153.850943 
L 116.760644 153.298606 
L 116.955475 153.350492 
L 117.085363 153.366234 
L 117.215251 153.174518 
L 117.410083 152.308891 
L 117.734802 149.425319 
L 118.254353 144.784911 
L 118.384241 144.456727 
L 118.449185 144.493509 
L 118.579073 145.015451 
L 118.773905 147.019593 
L 119.03368 152.132227 
L 119.423344 164.913123 
L 120.787165 216.511662 
L 121.176829 221.111272 
L 121.69638 225.889853 
L 122.345819 233.241021 
L 122.410763 233.28919 
L 122.540651 232.667469 
L 122.735482 229.853522 
L 123.125146 219.089662 
L 123.644697 205.737434 
L 123.904473 203.761033 
L 123.969416 203.790892 
L 124.099304 204.332886 
L 124.813687 208.830558 
L 124.943575 208.637498 
L 125.463126 206.908301 
L 125.52807 206.959725 
L 125.657958 207.411821 
L 125.917733 209.655479 
L 126.762004 218.617316 
L 127.476387 222.752119 
L 127.86605 227.658296 
L 128.580433 237.08296 
L 128.840209 238.354684 
L 128.970097 238.357808 
L 129.099984 237.953643 
L 129.35976 236.100326 
L 129.814367 230.709467 
L 130.658638 220.652589 
L 130.788526 220.314559 
L 130.85347 220.380861 
L 130.983357 221.013864 
L 131.243133 224.118922 
L 131.827628 232.066725 
L 131.892572 232.129088 
L 132.02246 231.39506 
L 132.217291 228.112912 
L 132.736843 212.447345 
L 133.061562 206.788243 
L 133.126506 206.67124 
L 133.256394 207.561162 
L 133.451226 211.513875 
L 133.840889 225.691369 
L 134.490328 248.753466 
L 134.815047 253.363022 
L 134.944935 253.578139 
L 135.074823 252.952817 
L 135.334599 249.800649 
L 135.919094 242.020234 
L 136.048981 241.777621 
L 136.178869 242.379527 
L 136.373701 244.819424 
L 136.763364 253.450813 
L 137.412803 267.071383 
L 137.802467 270.985159 
L 138.062242 271.873461 
L 138.19213 271.856305 
L 138.386962 271.32073 
L 138.646737 269.764434 
L 138.971457 266.392622 
L 139.296176 260.738874 
L 139.750784 248.089114 
L 140.400223 230.227638 
L 140.595054 228.861239 
L 140.724942 229.585793 
L 140.919774 233.17031 
L 141.244493 244.54892 
L 141.958876 271.110032 
L 142.153708 273.418856 
L 142.218652 273.494624 
L 142.34854 272.610597 
L 142.543371 268.904684 
L 142.933035 255.734371 
L 143.51753 236.758262 
L 143.842249 232.429645 
L 143.972137 232.014667 
L 144.037081 232.048123 
L 144.166969 232.542205 
L 144.426744 234.985115 
L 144.881352 242.497105 
L 145.400903 250.328628 
L 145.595734 251.309019 
L 145.725622 251.267804 
L 145.920454 250.406729 
L 146.829668 245.090798 
L 147.479107 243.412055 
L 148.128546 242.296572 
L 148.388322 242.123134 
L 148.51821 242.275646 
L 148.713042 243.035575 
L 148.972817 245.334397 
L 150.011919 257.465848 
L 150.141807 257.441732 
L 150.401583 256.699569 
L 150.596415 256.342345 
L 150.726302 256.565179 
L 150.921134 257.871382 
L 151.245854 262.455592 
L 152.02518 274.648826 
L 152.3499 277.098386 
L 152.544731 277.607691 
L 152.674619 277.45507 
L 152.869451 276.340415 
L 153.129227 272.965706 
L 153.51889 263.940776 
L 154.428105 240.504907 
L 154.68788 238.401875 
L 154.752824 238.294422 
L 154.817768 238.336616 
L 154.947656 238.817512 
L 155.207431 240.927506 
L 155.791926 246.173514 
L 155.986758 246.588727 
L 156.116646 246.313658 
L 156.376421 244.631942 
L 157.220692 237.787221 
L 157.35058 237.557053 
L 157.415524 237.585169 
L 157.545412 237.963269 
L 157.740243 239.409753 
L 158.064963 244.012465 
L 158.649458 252.638146 
L 158.84429 253.184239 
L 158.974177 252.681388 
L 159.233953 250.17132 
L 159.68856 245.732925 
L 159.818448 245.426365 
L 159.948336 245.668692 
L 160.208111 247.374467 
L 160.597775 250.090036 
L 160.727663 250.32404 
L 160.85755 250.093199 
L 161.052382 248.978894 
L 161.766765 243.831853 
L 161.896653 243.791982 
L 162.026541 244.191449 
L 162.221372 245.626955 
L 162.546092 250.058815 
L 163.780026 270.363558 
L 164.299577 273.41552 
L 164.624296 274.652909 
L 164.754184 274.68362 
L 164.884072 274.220083 
L 165.078904 272.32064 
L 165.403623 265.789294 
L 166.118006 249.876233 
L 166.247894 249.200766 
L 166.312838 249.233379 
L 166.442726 250.006912 
L 166.702501 253.908466 
L 167.67666 272.285699 
L 167.936435 273.448537 
L 168.066323 273.406177 
L 168.261155 272.807511 
L 168.715762 270.20613 
L 169.235313 265.926156 
L 169.689921 259.872324 
L 170.274416 252.130988 
L 170.469247 251.291924 
L 170.534191 251.284791 
L 170.664079 251.657897 
L 170.923855 253.669926 
L 171.378462 259.491142 
L 172.027901 270.912871 
L 172.547452 278.882207 
L 172.807228 280.393385 
L 172.937115 280.503952 
L 173.067003 280.293083 
L 173.391723 279.047701 
L 173.84633 277.496593 
L 174.106106 277.25408 
L 174.300937 277.444769 
L 174.625657 278.342896 
L 174.950376 279.173563 
L 175.080264 279.111257 
L 175.210152 278.620498 
L 175.404984 276.820435 
L 175.664759 272.145621 
L 176.638918 250.916304 
L 176.703861 250.801905 
L 176.833749 251.265956 
L 177.028581 253.413843 
L 178.067683 267.919242 
L 178.327459 268.709278 
L 179.106786 269.992177 
L 179.561393 271.752019 
L 179.951056 274.125788 
L 180.795327 279.881367 
L 180.860271 279.861113 
L 180.990159 279.416962 
L 181.18499 277.673387 
L 181.50971 272.159531 
L 182.548812 251.874587 
L 182.873532 249.607025 
L 183.068363 249.408553 
L 183.263195 249.916373 
L 183.977578 252.554067 
L 184.107466 252.45183 
L 184.497129 251.815817 
L 184.562073 251.858099 
L 184.691961 252.23145 
L 184.886793 253.656707 
L 185.211512 258.22352 
L 186.705222 282.841562 
L 187.029941 284.868246 
L 187.159829 284.918743 
L 187.289717 284.538888 
L 187.549492 282.666189 
L 188.0041 277.084319 
L 188.978258 264.560352 
L 189.757585 258.248779 
L 190.082304 256.788196 
L 190.212192 256.773461 
L 190.34208 257.159483 
L 190.601856 259.040988 
L 191.640958 268.555336 
L 191.900734 269.339504 
L 192.030621 269.409519 
L 192.160509 269.237757 
L 192.355341 268.492709 
L 192.68006 265.967917 
L 193.264555 258.786121 
L 193.654219 254.890526 
L 193.784107 254.487713 
L 193.849051 254.538631 
L 193.978938 255.213563 
L 194.17377 257.745033 
L 194.49849 265.507858 
L 195.277816 285.86084 
L 195.537592 288.54717 
L 195.66748 288.923996 
L 195.732424 288.893253 
L 195.862311 288.441407 
L 196.122087 286.290378 
L 196.706582 278.49899 
L 197.420965 266.517244 
L 198.589955 243.727741 
L 198.784787 243.034408 
L 198.914675 243.171196 
L 199.17445 244.380579 
L 199.758945 247.421783 
L 200.408384 249.295342 
L 200.66816 251.355141 
L 201.122767 257.321872 
L 201.707262 264.328693 
L 201.902094 265.139713 
L 201.967038 265.167996 
L 202.096926 264.842414 
L 202.291757 263.421081 
L 202.681421 258.139498 
L 203.136028 252.83983 
L 203.265916 252.630544 
L 203.395804 253.261638 
L 203.590635 255.796439 
L 204.045243 266.370123 
L 204.434906 273.528175 
L 204.629738 274.442449 
L 204.759625 274.001759 
L 205.019401 271.373349 
L 205.474008 266.837176 
L 205.603896 266.677391 
L 205.733784 267.17924 
L 205.993559 269.802625 
L 206.578055 276.582254 
L 206.707942 276.957744 
L 206.772886 276.89855 
L 206.902774 276.255844 
L 207.097606 273.965384 
L 207.422325 266.987066 
L 208.396484 243.50464 
L 208.591315 242.484483 
L 208.656259 242.490663 
L 208.786147 242.943446 
L 209.045923 245.107666 
L 209.760306 251.589974 
L 209.890193 251.802904 
L 210.020081 251.456027 
L 210.214913 249.669675 
L 210.474688 244.597242 
L 210.864352 231.802783 
L 211.578735 207.546834 
L 211.903454 202.962448 
L 212.098286 202.438754 
L 212.228174 202.820088 
L 212.487949 204.813148 
L 213.137388 212.699383 
L 213.721883 218.511705 
L 214.111547 220.311476 
L 214.306378 220.537755 
L 214.436266 220.398945 
L 214.631098 219.677993 
L 214.890873 217.702405 
L 215.540312 211.975661 
L 215.605256 211.899634 
L 215.6702 211.988877 
L 215.800088 212.688479 
L 216.059864 216.056788 
L 217.098966 233.426648 
L 217.878293 239.079852 
L 218.787507 251.131881 
L 218.852451 251.101985 
L 218.982339 250.546716 
L 219.307059 247.394923 
L 219.631778 244.933626 
L 219.696722 244.828295 
L 219.761666 244.884003 
L 219.891554 245.476715 
L 220.151329 248.258403 
L 220.865712 257.178735 
L 221.190432 258.756262 
L 221.385263 259.0554 
L 221.515151 259.007175 
L 221.709983 258.482881 
L 221.969758 256.67291 
L 222.294478 252.3481 
L 223.33358 236.178488 
L 223.723244 234.027543 
L 223.983019 233.503035 
L 224.112907 233.481399 
L 224.307739 233.772318 
L 224.567514 234.758336 
L 225.411785 238.627523 
L 225.541673 238.554813 
L 225.736504 237.980588 
L 226.256056 235.970204 
L 226.385943 236.081095 
L 226.580775 237.146457 
L 226.840551 240.333875 
L 227.360102 250.66109 
L 227.944597 261.171079 
L 228.204373 263.230257 
L 228.33426 263.494346 
L 228.464148 263.322542 
L 228.788868 261.913894 
L 229.048643 261.107446 
L 229.178531 261.06661 
L 229.568194 261.399741 
L 229.698082 261.033415 
L 229.892914 259.449965 
L 230.217633 254.036743 
L 230.737185 244.937042 
L 230.932016 243.838765 
L 230.99696 243.831314 
L 231.126848 244.278459 
L 231.451567 246.937127 
L 231.776287 249.061713 
L 231.906175 249.205925 
L 232.036062 248.872187 
L 232.295838 246.961157 
L 233.399884 236.565684 
L 233.65966 236.046132 
L 233.854492 236.08152 
L 234.049323 236.07336 
L 234.179211 235.692136 
L 234.374043 233.728885 
L 234.568875 228.744509 
L 234.82865 214.33839 
L 235.15337 179.21403 
L 236.127528 54.144 
L 236.192472 54.983165 
L 236.32236 62.047649 
L 236.582135 93.838517 
L 237.361462 203.107963 
L 237.686182 220.418005 
L 238.140789 231.429406 
L 238.855172 243.53989 
L 239.114947 245.22529 
L 239.244835 245.27855 
L 239.374723 244.796374 
L 239.634499 242.384542 
L 240.348881 234.593619 
L 240.413825 234.611666 
L 240.543713 235.205459 
L 240.803489 238.144654 
L 241.193152 242.5432 
L 241.258096 242.717167 
L 241.32304 242.633544 
L 241.452928 241.605021 
L 241.647759 237.772289 
L 241.972479 226.01259 
L 242.751806 195.815562 
L 242.946637 193.578546 
L 243.011581 193.438382 
L 243.141469 193.932353 
L 243.401245 196.994779 
L 243.855852 202.118184 
L 243.920796 202.281003 
L 243.98574 202.244401 
L 244.115627 201.56464 
L 244.375403 198.103184 
L 244.894954 190.224188 
L 244.959898 190.009636 
L 245.024842 190.094626 
L 245.15473 191.239293 
L 245.349562 195.431568 
L 245.739225 210.41878 
L 246.388664 234.3679 
L 246.713383 239.298804 
L 246.908215 240.043305 
L 247.038103 239.814744 
L 247.232935 238.646392 
L 248.077205 231.56721 
L 248.142149 231.575264 
L 248.272037 232.078291 
L 248.466869 234.113241 
L 248.856532 241.793625 
L 249.376083 251.079654 
L 249.570915 252.131289 
L 249.700803 252.106459 
L 249.960578 251.146783 
L 250.220354 250.432875 
L 250.350242 250.594239 
L 250.545073 251.677316 
L 250.869793 255.371805 
L 251.454288 262.120054 
L 251.584176 262.475417 
L 251.64912 262.404194 
L 251.779007 261.738485 
L 252.038783 258.445478 
L 252.947998 243.529283 
L 253.077885 243.21819 
L 253.207773 243.499085 
L 253.467549 245.267086 
L 253.857212 247.882515 
L 253.9871 248.074343 
L 254.116988 247.871549 
L 254.571595 246.511125 
L 254.701483 246.88908 
L 254.896315 248.673949 
L 255.285978 255.638224 
L 255.740585 262.669786 
L 255.935417 263.444602 
L 256.065305 263.10896 
L 256.260136 261.510395 
L 256.714744 254.847612 
L 257.234295 247.798765 
L 257.49407 246.359556 
L 257.559014 246.324289 
L 257.688902 246.695285 
L 257.883734 248.394965 
L 258.208453 253.836786 
L 258.792948 263.888029 
L 258.98778 264.712211 
L 259.117668 264.302019 
L 259.3125 262.444321 
L 260.416546 248.980877 
L 260.546434 248.930045 
L 260.676321 249.297638 
L 260.871153 250.625735 
L 261.195873 254.783233 
L 262.105087 268.002737 
L 262.234975 268.334056 
L 262.299919 268.306625 
L 262.429807 267.911217 
L 262.689582 266.099272 
L 263.663741 258.193595 
L 263.793629 258.085109 
L 263.923516 258.288352 
L 264.508011 259.990084 
L 264.572955 259.907879 
L 264.767787 259.09019 
L 265.547114 254.229946 
L 265.677002 254.52649 
L 265.936777 256.107673 
L 266.326441 258.491016 
L 266.456328 258.696328 
L 266.586216 258.516669 
L 266.845992 257.258411 
L 267.495431 253.768772 
L 268.209814 251.826002 
L 268.339701 251.838627 
L 268.469589 252.216274 
L 268.664421 253.663404 
L 268.98914 258.3926 
L 269.573635 267.52523 
L 269.768467 268.327961 
L 269.898355 267.970959 
L 270.093187 266.242305 
L 270.547794 259.075244 
L 271.132289 250.567341 
L 271.457008 248.417133 
L 271.586896 248.3376 
L 271.716784 248.741622 
L 271.97656 250.832631 
L 273.470269 266.576212 
L 273.794989 268.023284 
L 273.989821 268.239305 
L 274.119708 268.130253 
L 274.31454 267.638947 
L 274.639259 266.053275 
L 275.028923 262.879924 
L 276.003081 253.511725 
L 276.068025 253.477492 
L 276.197913 253.90977 
L 276.392745 255.928934 
L 276.717464 262.743805 
L 277.561735 282.982597 
L 277.82151 284.636527 
L 277.886454 284.647419 
L 278.016342 284.268143 
L 278.276118 282.310096 
L 279.704884 268.818453 
L 279.899715 268.634515 
L 280.419266 268.735011 
L 280.873874 268.16118 
L 281.003761 268.42668 
L 281.198593 269.689756 
L 281.523313 274.11522 
L 281.97792 280.513246 
L 282.172752 281.171232 
L 282.302639 280.657785 
L 282.562415 277.806774 
L 283.211854 269.844938 
L 283.406686 269.30677 
L 283.536573 269.480625 
L 283.796349 270.721608 
L 284.380844 273.990264 
L 284.575676 274.270414 
L 284.705564 274.174024 
L 285.030283 273.371675 
L 285.290059 273.005912 
L 285.419947 273.240924 
L 285.614778 274.37178 
L 285.939498 278.395616 
L 286.653881 288.167195 
L 286.848712 288.717687 
L 286.9786 288.464912 
L 287.238376 286.875351 
L 288.017702 281.151456 
L 288.277478 280.677776 
L 288.407366 280.842075 
L 288.602198 281.634435 
L 288.926917 284.35555 
L 289.836132 293.332493 
L 290.095907 293.92263 
L 290.225795 293.832075 
L 290.420627 293.282109 
L 290.745346 291.401303 
L 292.174112 281.077895 
L 292.563775 278.682875 
L 293.797709 269.52662 
L 293.927597 269.399656 
L 294.057485 269.595618 
L 294.252317 270.54328 
L 294.577036 273.828153 
L 295.161531 283.224039 
L 295.616139 289.211694 
L 295.81097 290.111639 
L 295.875914 290.143917 
L 296.005802 289.839781 
L 296.265577 288.155823 
L 296.785129 284.512478 
L 297.109848 283.621815 
L 297.369624 282.946912 
L 297.629399 281.497623 
L 297.954119 278.200197 
L 298.408726 271.177783 
L 298.928277 259.48815 
L 299.577716 245.018184 
L 299.772548 243.949365 
L 299.902436 244.579348 
L 300.097267 247.492401 
L 300.486931 258.137847 
L 301.006482 271.070603 
L 301.266258 273.041417 
L 301.331202 272.98926 
L 301.461089 272.314871 
L 301.785809 268.440777 
L 302.175472 264.164165 
L 302.30536 263.84778 
L 302.435248 264.307693 
L 302.630079 266.431578 
L 303.084687 275.446716 
L 303.47435 281.871113 
L 303.669182 283.09127 
L 303.734126 283.159653 
L 303.864014 282.819663 
L 304.058845 281.298601 
L 305.097948 270.912797 
L 305.292779 270.723419 
L 305.487611 270.892869 
L 306.007162 271.779658 
L 306.266938 272.702919 
L 306.591657 274.85404 
L 307.046265 277.865888 
L 307.176152 278.043595 
L 307.30604 277.742367 
L 307.500872 276.419654 
L 308.345142 269.15401 
L 308.47503 269.127173 
L 308.669862 269.522672 
L 309.059525 270.379633 
L 309.254357 270.358168 
L 310.358403 269.018505 
L 310.683123 267.714143 
L 311.13773 265.867843 
L 311.267618 265.786132 
L 311.397506 265.979943 
L 311.657281 267.019549 
L 312.046945 268.608719 
L 312.176832 268.637336 
L 312.30672 268.248681 
L 312.501552 266.807054 
L 312.891215 261.452492 
L 313.410767 254.692297 
L 313.605598 253.897544 
L 313.670542 253.894887 
L 313.80043 254.241722 
L 314.060205 255.924096 
L 314.514813 258.782042 
L 314.644701 258.927434 
L 314.774588 258.663424 
L 314.96942 257.552785 
L 315.424027 253.010719 
L 316.008522 247.88035 
L 316.333242 246.501726 
L 316.528074 246.269598 
L 316.657961 246.420786 
L 316.852793 247.215343 
L 317.112569 249.547581 
L 317.502232 255.952769 
L 318.866054 283.037212 
L 318.995942 283.218271 
L 319.12583 282.645008 
L 319.320661 280.440798 
L 319.775269 271.358105 
L 320.164932 264.756351 
L 320.359764 263.486724 
L 320.424707 263.401329 
L 320.489651 263.470105 
L 320.684483 264.430767 
L 321.593698 270.858508 
L 322.437968 273.352493 
L 322.762688 273.770147 
L 322.95752 273.725584 
L 323.412127 273.4943 
L 323.606958 273.745562 
L 323.931678 274.801172 
L 324.256397 275.740765 
L 324.386285 275.710207 
L 324.516173 275.306527 
L 324.711005 273.90989 
L 325.035724 269.658097 
L 325.879995 257.22993 
L 326.13977 256.250905 
L 326.269658 256.408192 
L 326.789209 258.103891 
L 326.854153 258.014805 
L 326.984041 257.368431 
L 327.178873 255.032642 
L 327.503592 247.638773 
L 328.282919 228.4576 
L 328.542695 226.809511 
L 328.607639 226.847525 
L 328.737526 227.396941 
L 328.997302 230.036425 
L 329.516853 238.614051 
L 330.101348 247.103883 
L 330.426068 249.195371 
L 330.685843 249.776892 
L 331.075507 250.44815 
L 331.400226 251.803908 
L 332.049665 254.787773 
L 332.374385 255.999959 
L 332.63416 258.046345 
L 332.95888 262.764527 
L 333.608319 272.586798 
L 333.80315 273.240834 
L 333.933038 272.87167 
L 334.12787 271.204771 
L 334.452589 265.944832 
L 335.037085 251.382813 
L 335.491692 242.404893 
L 335.686523 241.661692 
L 335.816411 242.418087 
L 336.076187 246.313192 
L 336.660682 256.361659 
L 336.855514 257.147034 
L 336.985401 256.650523 
L 337.180233 254.494311 
L 338.089448 241.087511 
L 338.219336 241.594411 
L 338.414167 243.794943 
L 340.362484 272.804236 
L 341.011923 279.586907 
L 341.856194 286.685061 
L 342.310801 288.338175 
L 342.635521 289.891916 
L 343.090128 293.739782 
L 343.479791 296.347495 
L 343.674623 296.596779 
L 343.804511 296.354036 
L 344.45395 294.16031 
L 344.518894 294.212054 
L 344.713725 294.891023 
L 345.038445 297.451372 
L 345.687884 302.790496 
L 345.947659 303.58341 
L 346.207435 303.753165 
L 346.532154 303.819524 
L 346.79193 304.188418 
L 347.311481 305.643693 
L 347.636201 306.264224 
L 347.831032 306.305787 
L 348.025864 306.076667 
L 348.350584 305.242483 
L 348.935079 303.731556 
L 349.519574 302.738639 
L 349.779349 301.414804 
L 350.169013 297.710891 
L 350.753508 292.068116 
L 350.948339 291.442975 
L 351.078227 291.466485 
L 351.273059 292.005129 
L 351.79261 293.706876 
L 351.922498 293.658103 
L 352.11733 293.126181 
L 352.766769 290.786999 
L 352.896656 290.854528 
L 353.091488 291.360902 
L 353.675983 293.253835 
L 353.805871 293.260161 
L 354.000703 292.901742 
L 354.650142 291.141955 
L 354.780029 291.207978 
L 354.974861 291.69333 
L 355.494412 294.11665 
L 355.819132 295.088109 
L 356.013964 295.221877 
L 356.533515 295.217041 
L 356.728346 295.765824 
L 356.988122 297.326676 
L 358.222056 306.678323 
L 358.546776 307.306269 
L 358.871495 307.516843 
L 359.520934 307.582087 
L 361.079588 307.498622 
L 361.404307 307.289281 
L 361.729027 306.791685 
L 362.11869 305.717754 
L 362.703185 304.148998 
L 362.898017 304.067803 
L 363.092848 304.294476 
L 363.417568 305.17387 
L 364.067007 306.972869 
L 364.45667 307.417992 
L 364.911278 307.560976 
L 366.275099 307.583997 
L 398.487273 307.584 
L 398.487273 307.584 
" style="fill:none;stroke:#ff7f0e;stroke-linecap:square;stroke-width:1.5;"/>
   </g>
   <g id="patch_103">
    <path d="M 57.6 307.584 
L 57.6 41.472 
" style="fill:none;stroke:#000000;stroke-linecap:square;stroke-linejoin:miter;stroke-width:0.8;"/>
   </g>
   <g id="patch_104">
    <path d="M 414.72 307.584 
L 414.72 41.472 
" style="fill:none;stroke:#000000;stroke-linecap:square;stroke-linejoin:miter;stroke-width:0.8;"/>
   </g>
   <g id="patch_105">
    <path d="M 57.6 307.584 
L 414.72 307.584 
" style="fill:none;stroke:#000000;stroke-linecap:square;stroke-linejoin:miter;stroke-width:0.8;"/>
   </g>
   <g id="patch_106">
    <path d="M 57.6 41.472 
L 414.72 41.472 
" style="fill:none;stroke:#000000;stroke-linecap:square;stroke-linejoin:miter;stroke-width:0.8;"/>
   </g>
  </g>
 </g>
 <defs>
  <clipPath id="pdf8bd82c47">
   <rect height="266.112" width="357.12" x="57.6" y="41.472"/>
  </clipPath>
 </defs>
</svg>
