<?xml version="1.0" encoding="utf-8" standalone="no"?>
<!DOCTYPE svg PUBLIC "-//W3C//DTD SVG 1.1//EN"
  "http://www.w3.org/Graphics/SVG/1.1/DTD/svg11.dtd">
<!-- Created with matplotlib (https://matplotlib.org/) -->
<svg height="345.6pt" version="1.1" viewBox="0 0 460.8 345.6" width="460.8pt" xmlns="http://www.w3.org/2000/svg" xmlns:xlink="http://www.w3.org/1999/xlink">
 <defs>
  <style type="text/css">
*{stroke-linecap:butt;stroke-linejoin:round;}
  </style>
 </defs>
 <g id="figure_1">
  <g id="patch_1">
   <path d="M 0 345.6 
L 460.8 345.6 
L 460.8 0 
L 0 0 
z
" style="fill:#ffffff;"/>
  </g>
  <g id="axes_1">
   <g id="patch_2">
    <path d="M 57.6 307.584 
L 414.72 307.584 
L 414.72 41.472 
L 57.6 41.472 
z
" style="fill:#ffffff;"/>
   </g>
   <g id="patch_3">
    <path clip-path="url(#pb342c8c2ba)" d="M 73.832727 307.584 
L 77.07927 307.584 
L 77.07927 306.463515 
L 73.832727 306.463515 
z
" style="fill:#1f77b4;"/>
   </g>
   <g id="patch_4">
    <path clip-path="url(#pb342c8c2ba)" d="M 77.079255 307.584 
L 80.325798 307.584 
L 80.325798 307.303879 
L 77.079255 307.303879 
z
" style="fill:#1f77b4;"/>
   </g>
   <g id="patch_5">
    <path clip-path="url(#pb342c8c2ba)" d="M 80.325798 307.584 
L 83.572354 307.584 
L 83.572354 307.30388 
L 80.325798 307.30388 
z
" style="fill:#1f77b4;"/>
   </g>
   <g id="patch_6">
    <path clip-path="url(#pb342c8c2ba)" d="M 83.572368 307.584 
L 86.81891 307.584 
L 86.81891 307.303879 
L 83.572368 307.303879 
z
" style="fill:#1f77b4;"/>
   </g>
   <g id="patch_7">
    <path clip-path="url(#pb342c8c2ba)" d="M 86.818896 307.584 
L 90.065438 307.584 
L 90.065438 307.023758 
L 86.818896 307.023758 
z
" style="fill:#1f77b4;"/>
   </g>
   <g id="patch_8">
    <path clip-path="url(#pb342c8c2ba)" d="M 90.065452 307.584 
L 93.311995 307.584 
L 93.311995 306.463515 
L 90.065452 306.463515 
z
" style="fill:#1f77b4;"/>
   </g>
   <g id="patch_9">
    <path clip-path="url(#pb342c8c2ba)" d="M 93.311981 307.584 
L 96.558537 307.584 
L 96.558537 307.30388 
L 93.311981 307.30388 
z
" style="fill:#1f77b4;"/>
   </g>
   <g id="patch_10">
    <path clip-path="url(#pb342c8c2ba)" d="M 96.558537 307.584 
L 99.805079 307.584 
L 99.805079 306.743636 
L 96.558537 306.743636 
z
" style="fill:#1f77b4;"/>
   </g>
   <g id="patch_11">
    <path clip-path="url(#pb342c8c2ba)" d="M 99.805093 307.584 
L 103.051635 307.584 
L 103.051635 306.743636 
L 99.805093 306.743636 
z
" style="fill:#1f77b4;"/>
   </g>
   <g id="patch_12">
    <path clip-path="url(#pb342c8c2ba)" d="M 103.051621 307.584 
L 106.298164 307.584 
L 106.298164 307.023758 
L 103.051621 307.023758 
z
" style="fill:#1f77b4;"/>
   </g>
   <g id="patch_13">
    <path clip-path="url(#pb342c8c2ba)" d="M 106.298164 307.584 
L 109.54472 307.584 
L 109.54472 307.02376 
L 106.298164 307.02376 
z
" style="fill:#1f77b4;"/>
   </g>
   <g id="patch_14">
    <path clip-path="url(#pb342c8c2ba)" d="M 109.544734 307.584 
L 112.791276 307.584 
L 112.791276 305.903273 
L 109.544734 305.903273 
z
" style="fill:#1f77b4;"/>
   </g>
   <g id="patch_15">
    <path clip-path="url(#pb342c8c2ba)" d="M 112.791262 307.584 
L 116.037804 307.584 
L 116.037804 304.782788 
L 112.791262 304.782788 
z
" style="fill:#1f77b4;"/>
   </g>
   <g id="patch_16">
    <path clip-path="url(#pb342c8c2ba)" d="M 116.037818 307.584 
L 119.284361 307.584 
L 119.284361 304.782788 
L 116.037818 304.782788 
z
" style="fill:#1f77b4;"/>
   </g>
   <g id="patch_17">
    <path clip-path="url(#pb342c8c2ba)" d="M 119.284347 307.584 
L 122.530903 307.584 
L 122.530903 303.66232 
L 119.284347 303.66232 
z
" style="fill:#1f77b4;"/>
   </g>
   <g id="patch_18">
    <path clip-path="url(#pb342c8c2ba)" d="M 122.530903 307.584 
L 125.777445 307.584 
L 125.777445 303.662303 
L 122.530903 303.662303 
z
" style="fill:#1f77b4;"/>
   </g>
   <g id="patch_19">
    <path clip-path="url(#pb342c8c2ba)" d="M 125.777459 307.584 
L 129.024001 307.584 
L 129.024001 303.382182 
L 125.777459 303.382182 
z
" style="fill:#1f77b4;"/>
   </g>
   <g id="patch_20">
    <path clip-path="url(#pb342c8c2ba)" d="M 129.023987 307.584 
L 132.270536 307.584 
L 132.270536 301.141227 
L 129.023987 301.141227 
z
" style="fill:#1f77b4;"/>
   </g>
   <g id="patch_21">
    <path clip-path="url(#pb342c8c2ba)" d="M 132.270536 307.584 
L 135.517079 307.584 
L 135.517079 296.099032 
L 132.270536 296.099032 
z
" style="fill:#1f77b4;"/>
   </g>
   <g id="patch_22">
    <path clip-path="url(#pb342c8c2ba)" d="M 135.517072 307.584 
L 138.763621 307.584 
L 138.763621 296.659298 
L 135.517072 296.659298 
z
" style="fill:#1f77b4;"/>
   </g>
   <g id="patch_23">
    <path clip-path="url(#pb342c8c2ba)" d="M 138.763628 307.584 
L 142.01017 307.584 
L 142.01017 297.779759 
L 138.763628 297.779759 
z
" style="fill:#1f77b4;"/>
   </g>
   <g id="patch_24">
    <path clip-path="url(#pb342c8c2ba)" d="M 142.01017 307.584 
L 145.256719 307.584 
L 145.256719 294.978574 
L 142.01017 294.978574 
z
" style="fill:#1f77b4;"/>
   </g>
   <g id="patch_25">
    <path clip-path="url(#pb342c8c2ba)" d="M 145.256719 307.584 
L 148.503262 307.584 
L 148.503262 293.858062 
L 145.256719 293.858062 
z
" style="fill:#1f77b4;"/>
   </g>
   <g id="patch_26">
    <path clip-path="url(#pb342c8c2ba)" d="M 148.503255 307.584 
L 151.749804 307.584 
L 151.749804 297.499659 
L 148.503255 297.499659 
z
" style="fill:#1f77b4;"/>
   </g>
   <g id="patch_27">
    <path clip-path="url(#pb342c8c2ba)" d="M 151.749811 307.584 
L 154.996353 307.584 
L 154.996353 292.177335 
L 151.749811 292.177335 
z
" style="fill:#1f77b4;"/>
   </g>
   <g id="patch_28">
    <path clip-path="url(#pb342c8c2ba)" d="M 154.996353 307.584 
L 158.242895 307.584 
L 158.242895 300.58097 
L 154.996353 300.58097 
z
" style="fill:#1f77b4;"/>
   </g>
   <g id="patch_29">
    <path clip-path="url(#pb342c8c2ba)" d="M 158.242895 307.584 
L 161.489445 307.584 
L 161.489445 290.496645 
L 158.242895 290.496645 
z
" style="fill:#1f77b4;"/>
   </g>
   <g id="patch_30">
    <path clip-path="url(#pb342c8c2ba)" d="M 161.489445 307.584 
L 164.735987 307.584 
L 164.735987 292.457456 
L 161.489445 292.457456 
z
" style="fill:#1f77b4;"/>
   </g>
   <g id="patch_31">
    <path clip-path="url(#pb342c8c2ba)" d="M 164.73598 307.584 
L 167.982529 307.584 
L 167.982529 282.653269 
L 164.73598 282.653269 
z
" style="fill:#1f77b4;"/>
   </g>
   <g id="patch_32">
    <path clip-path="url(#pb342c8c2ba)" d="M 167.982536 307.584 
L 171.229078 307.584 
L 171.229078 279.852003 
L 167.982536 279.852003 
z
" style="fill:#1f77b4;"/>
   </g>
   <g id="patch_33">
    <path clip-path="url(#pb342c8c2ba)" d="M 171.229078 307.584 
L 174.475628 307.584 
L 174.475628 291.617127 
L 171.229078 291.617127 
z
" style="fill:#1f77b4;"/>
   </g>
   <g id="patch_34">
    <path clip-path="url(#pb342c8c2ba)" d="M 174.475628 307.584 
L 177.72217 307.584 
L 177.72217 290.776729 
L 174.475628 290.776729 
z
" style="fill:#1f77b4;"/>
   </g>
   <g id="patch_35">
    <path clip-path="url(#pb342c8c2ba)" d="M 177.722163 307.584 
L 180.968712 307.584 
L 180.968712 275.930375 
L 177.722163 275.930375 
z
" style="fill:#1f77b4;"/>
   </g>
   <g id="patch_36">
    <path clip-path="url(#pb342c8c2ba)" d="M 180.968719 307.584 
L 184.215261 307.584 
L 184.215261 280.972488 
L 180.968719 280.972488 
z
" style="fill:#1f77b4;"/>
   </g>
   <g id="patch_37">
    <path clip-path="url(#pb342c8c2ba)" d="M 184.215261 307.584 
L 187.46181 307.584 
L 187.46181 286.855077 
L 184.215261 286.855077 
z
" style="fill:#1f77b4;"/>
   </g>
   <g id="patch_38">
    <path clip-path="url(#pb342c8c2ba)" d="M 187.46181 307.584 
L 190.708356 307.584 
L 190.708356 291.897231 
L 187.46181 291.897231 
z
" style="fill:#1f77b4;"/>
   </g>
   <g id="patch_39">
    <path clip-path="url(#pb342c8c2ba)" d="M 190.70836 307.584 
L 193.954905 307.584 
L 193.954905 283.493604 
L 190.70836 283.493604 
z
" style="fill:#1f77b4;"/>
   </g>
   <g id="patch_40">
    <path clip-path="url(#pb342c8c2ba)" d="M 193.954902 307.584 
L 197.201444 307.584 
L 197.201444 290.496608 
L 193.954902 290.496608 
z
" style="fill:#1f77b4;"/>
   </g>
   <g id="patch_41">
    <path clip-path="url(#pb342c8c2ba)" d="M 197.201444 307.584 
L 200.44799 307.584 
L 200.44799 291.336989 
L 197.201444 291.336989 
z
" style="fill:#1f77b4;"/>
   </g>
   <g id="patch_42">
    <path clip-path="url(#pb342c8c2ba)" d="M 200.447993 307.584 
L 203.694539 307.584 
L 203.694539 296.379165 
L 200.447993 296.379165 
z
" style="fill:#1f77b4;"/>
   </g>
   <g id="patch_43">
    <path clip-path="url(#pb342c8c2ba)" d="M 203.694536 307.584 
L 206.941081 307.584 
L 206.941081 296.379165 
L 203.694536 296.379165 
z
" style="fill:#1f77b4;"/>
   </g>
   <g id="patch_44">
    <path clip-path="url(#pb342c8c2ba)" d="M 206.941085 307.584 
L 210.187631 307.584 
L 210.187631 299.740615 
L 206.941085 299.740615 
z
" style="fill:#1f77b4;"/>
   </g>
   <g id="patch_45">
    <path clip-path="url(#pb342c8c2ba)" d="M 210.187627 307.584 
L 213.434173 307.584 
L 213.434173 286.014692 
L 210.187627 286.014692 
z
" style="fill:#1f77b4;"/>
   </g>
   <g id="patch_46">
    <path clip-path="url(#pb342c8c2ba)" d="M 213.434176 307.584 
L 216.680722 307.584 
L 216.680722 264.725506 
L 213.434176 264.725506 
z
" style="fill:#1f77b4;"/>
   </g>
   <g id="patch_47">
    <path clip-path="url(#pb342c8c2ba)" d="M 216.680719 307.584 
L 219.927264 307.584 
L 219.927264 262.764659 
L 216.680719 262.764659 
z
" style="fill:#1f77b4;"/>
   </g>
   <g id="patch_48">
    <path clip-path="url(#pb342c8c2ba)" d="M 219.927264 307.584 
L 223.17381 307.584 
L 223.17381 262.764659 
L 219.927264 262.764659 
z
" style="fill:#1f77b4;"/>
   </g>
   <g id="patch_49">
    <path clip-path="url(#pb342c8c2ba)" d="M 223.17381 307.584 
L 226.420356 307.584 
L 226.420356 266.966473 
L 223.17381 266.966473 
z
" style="fill:#1f77b4;"/>
   </g>
   <g id="patch_50">
    <path clip-path="url(#pb342c8c2ba)" d="M 226.420356 307.584 
L 229.666902 307.584 
L 229.666902 254.921275 
L 226.420356 254.921275 
z
" style="fill:#1f77b4;"/>
   </g>
   <g id="patch_51">
    <path clip-path="url(#pb342c8c2ba)" d="M 229.666902 307.584 
L 232.913447 307.584 
L 232.913447 236.433297 
L 229.666902 236.433297 
z
" style="fill:#1f77b4;"/>
   </g>
   <g id="patch_52">
    <path clip-path="url(#pb342c8c2ba)" d="M 232.913447 307.584 
L 236.159993 307.584 
L 236.159993 231.391121 
L 232.913447 231.391121 
z
" style="fill:#1f77b4;"/>
   </g>
   <g id="patch_53">
    <path clip-path="url(#pb342c8c2ba)" d="M 236.159993 307.584 
L 239.406539 307.584 
L 239.406539 223.827857 
L 236.159993 223.827857 
z
" style="fill:#1f77b4;"/>
   </g>
   <g id="patch_54">
    <path clip-path="url(#pb342c8c2ba)" d="M 239.406539 307.584 
L 242.653084 307.584 
L 242.653084 200.297689 
L 239.406539 200.297689 
z
" style="fill:#1f77b4;"/>
   </g>
   <g id="patch_55">
    <path clip-path="url(#pb342c8c2ba)" d="M 242.653084 307.584 
L 245.89963 307.584 
L 245.89963 177.047671 
L 242.653084 177.047671 
z
" style="fill:#1f77b4;"/>
   </g>
   <g id="patch_56">
    <path clip-path="url(#pb342c8c2ba)" d="M 245.89963 307.584 
L 249.146175 307.584 
L 249.146175 128.026517 
L 245.89963 128.026517 
z
" style="fill:#1f77b4;"/>
   </g>
   <g id="patch_57">
    <path clip-path="url(#pb342c8c2ba)" d="M 249.146175 307.584 
L 252.392721 307.584 
L 252.392721 123.264437 
L 249.146175 123.264437 
z
" style="fill:#1f77b4;"/>
   </g>
   <g id="patch_58">
    <path clip-path="url(#pb342c8c2ba)" d="M 252.392721 307.584 
L 255.639267 307.584 
L 255.639267 112.339748 
L 252.392721 112.339748 
z
" style="fill:#1f77b4;"/>
   </g>
   <g id="patch_59">
    <path clip-path="url(#pb342c8c2ba)" d="M 255.639267 307.584 
L 258.885812 307.584 
L 258.885812 150.716308 
L 255.639267 150.716308 
z
" style="fill:#1f77b4;"/>
   </g>
   <g id="patch_60">
    <path clip-path="url(#pb342c8c2ba)" d="M 258.885812 307.584 
L 262.132358 307.584 
L 262.132358 158.839813 
L 258.885812 158.839813 
z
" style="fill:#1f77b4;"/>
   </g>
   <g id="patch_61">
    <path clip-path="url(#pb342c8c2ba)" d="M 262.132357 307.584 
L 265.378901 307.584 
L 265.378901 192.454288 
L 262.132357 192.454288 
z
" style="fill:#1f77b4;"/>
   </g>
   <g id="patch_62">
    <path clip-path="url(#pb342c8c2ba)" d="M 265.378903 307.584 
L 268.625449 307.584 
L 268.625449 245.957407 
L 265.378903 245.957407 
z
" style="fill:#1f77b4;"/>
   </g>
   <g id="patch_63">
    <path clip-path="url(#pb342c8c2ba)" d="M 268.625449 307.584 
L 271.871994 307.584 
L 271.871994 261.083934 
L 268.625449 261.083934 
z
" style="fill:#1f77b4;"/>
   </g>
   <g id="patch_64">
    <path clip-path="url(#pb342c8c2ba)" d="M 271.871994 307.584 
L 275.11854 307.584 
L 275.11854 261.644176 
L 271.871994 261.644176 
z
" style="fill:#1f77b4;"/>
   </g>
   <g id="patch_65">
    <path clip-path="url(#pb342c8c2ba)" d="M 275.118542 307.584 
L 278.365084 307.584 
L 278.365084 275.089961 
L 275.118542 275.089961 
z
" style="fill:#1f77b4;"/>
   </g>
   <g id="patch_66">
    <path clip-path="url(#pb342c8c2ba)" d="M 278.365084 307.584 
L 281.61163 307.584 
L 281.61163 271.168286 
L 278.365084 271.168286 
z
" style="fill:#1f77b4;"/>
   </g>
   <g id="patch_67">
    <path clip-path="url(#pb342c8c2ba)" d="M 281.611633 307.584 
L 284.858179 307.584 
L 284.858179 286.574934 
L 281.611633 286.574934 
z
" style="fill:#1f77b4;"/>
   </g>
   <g id="patch_68">
    <path clip-path="url(#pb342c8c2ba)" d="M 284.858176 307.584 
L 288.104721 307.584 
L 288.104721 288.53578 
L 284.858176 288.53578 
z
" style="fill:#1f77b4;"/>
   </g>
   <g id="patch_69">
    <path clip-path="url(#pb342c8c2ba)" d="M 288.104725 307.584 
L 291.35127 307.584 
L 291.35127 291.61711 
L 288.104725 291.61711 
z
" style="fill:#1f77b4;"/>
   </g>
   <g id="patch_70">
    <path clip-path="url(#pb342c8c2ba)" d="M 291.351267 307.584 
L 294.597813 307.584 
L 294.597813 287.975538 
L 291.351267 287.975538 
z
" style="fill:#1f77b4;"/>
   </g>
   <g id="patch_71">
    <path clip-path="url(#pb342c8c2ba)" d="M 294.597816 307.584 
L 297.844362 307.584 
L 297.844362 283.213484 
L 294.597816 283.213484 
z
" style="fill:#1f77b4;"/>
   </g>
   <g id="patch_72">
    <path clip-path="url(#pb342c8c2ba)" d="M 297.844358 307.584 
L 301.090904 307.584 
L 301.090904 293.577956 
L 297.844358 293.577956 
z
" style="fill:#1f77b4;"/>
   </g>
   <g id="patch_73">
    <path clip-path="url(#pb342c8c2ba)" d="M 301.090908 307.584 
L 304.337453 307.584 
L 304.337453 289.096022 
L 301.090908 289.096022 
z
" style="fill:#1f77b4;"/>
   </g>
   <g id="patch_74">
    <path clip-path="url(#pb342c8c2ba)" d="M 304.33745 307.584 
L 307.583999 307.584 
L 307.583999 288.25568 
L 304.33745 288.25568 
z
" style="fill:#1f77b4;"/>
   </g>
   <g id="patch_75">
    <path clip-path="url(#pb342c8c2ba)" d="M 307.583999 307.584 
L 310.830541 307.584 
L 310.830541 280.692367 
L 307.583999 280.692367 
z
" style="fill:#1f77b4;"/>
   </g>
   <g id="patch_76">
    <path clip-path="url(#pb342c8c2ba)" d="M 310.830534 307.584 
L 314.077084 307.584 
L 314.077084 278.45146 
L 310.830534 278.45146 
z
" style="fill:#1f77b4;"/>
   </g>
   <g id="patch_77">
    <path clip-path="url(#pb342c8c2ba)" d="M 314.077091 307.584 
L 317.323633 307.584 
L 317.323633 291.897214 
L 314.077091 291.897214 
z
" style="fill:#1f77b4;"/>
   </g>
   <g id="patch_78">
    <path clip-path="url(#pb342c8c2ba)" d="M 317.323633 307.584 
L 320.570175 307.584 
L 320.570175 292.457456 
L 317.323633 292.457456 
z
" style="fill:#1f77b4;"/>
   </g>
   <g id="patch_79">
    <path clip-path="url(#pb342c8c2ba)" d="M 320.570175 307.584 
L 323.816724 307.584 
L 323.816724 294.418333 
L 320.570175 294.418333 
z
" style="fill:#1f77b4;"/>
   </g>
   <g id="patch_80">
    <path clip-path="url(#pb342c8c2ba)" d="M 323.816724 307.584 
L 327.063267 307.584 
L 327.063267 295.81891 
L 323.816724 295.81891 
z
" style="fill:#1f77b4;"/>
   </g>
   <g id="patch_81">
    <path clip-path="url(#pb342c8c2ba)" d="M 327.06326 307.584 
L 330.309809 307.584 
L 330.309809 291.617127 
L 327.06326 291.617127 
z
" style="fill:#1f77b4;"/>
   </g>
   <g id="patch_82">
    <path clip-path="url(#pb342c8c2ba)" d="M 330.309816 307.584 
L 333.556358 307.584 
L 333.556358 294.978547 
L 330.309816 294.978547 
z
" style="fill:#1f77b4;"/>
   </g>
   <g id="patch_83">
    <path clip-path="url(#pb342c8c2ba)" d="M 333.556358 307.584 
L 336.802907 307.584 
L 336.802907 293.297851 
L 333.556358 293.297851 
z
" style="fill:#1f77b4;"/>
   </g>
   <g id="patch_84">
    <path clip-path="url(#pb342c8c2ba)" d="M 336.802907 307.584 
L 340.049449 307.584 
L 340.049449 296.939395 
L 336.802907 296.939395 
z
" style="fill:#1f77b4;"/>
   </g>
   <g id="patch_85">
    <path clip-path="url(#pb342c8c2ba)" d="M 340.049442 307.584 
L 343.295992 307.584 
L 343.295992 293.858092 
L 340.049442 293.858092 
z
" style="fill:#1f77b4;"/>
   </g>
   <g id="patch_86">
    <path clip-path="url(#pb342c8c2ba)" d="M 343.295999 307.584 
L 346.542541 307.584 
L 346.542541 296.379153 
L 343.295999 296.379153 
z
" style="fill:#1f77b4;"/>
   </g>
   <g id="patch_87">
    <path clip-path="url(#pb342c8c2ba)" d="M 346.542541 307.584 
L 349.78909 307.584 
L 349.78909 295.818936 
L 346.542541 295.818936 
z
" style="fill:#1f77b4;"/>
   </g>
   <g id="patch_88">
    <path clip-path="url(#pb342c8c2ba)" d="M 349.78909 307.584 
L 353.035632 307.584 
L 353.035632 296.939395 
L 349.78909 296.939395 
z
" style="fill:#1f77b4;"/>
   </g>
   <g id="patch_89">
    <path clip-path="url(#pb342c8c2ba)" d="M 353.035625 307.584 
L 356.282175 307.584 
L 356.282175 296.379177 
L 353.035625 296.379177 
z
" style="fill:#1f77b4;"/>
   </g>
   <g id="patch_90">
    <path clip-path="url(#pb342c8c2ba)" d="M 356.282182 307.584 
L 359.528724 307.584 
L 359.528724 299.460486 
L 356.282182 299.460486 
z
" style="fill:#1f77b4;"/>
   </g>
   <g id="patch_91">
    <path clip-path="url(#pb342c8c2ba)" d="M 359.528724 307.584 
L 362.775273 307.584 
L 362.775273 294.978574 
L 359.528724 294.978574 
z
" style="fill:#1f77b4;"/>
   </g>
   <g id="patch_92">
    <path clip-path="url(#pb342c8c2ba)" d="M 362.775273 307.584 
L 366.021815 307.584 
L 366.021815 295.538789 
L 362.775273 295.538789 
z
" style="fill:#1f77b4;"/>
   </g>
   <g id="patch_93">
    <path clip-path="url(#pb342c8c2ba)" d="M 366.021808 307.584 
L 369.268365 307.584 
L 369.268365 298.900262 
L 366.021808 298.900262 
z
" style="fill:#1f77b4;"/>
   </g>
   <g id="patch_94">
    <path clip-path="url(#pb342c8c2ba)" d="M 369.268365 307.584 
L 372.514907 307.584 
L 372.514907 300.861092 
L 369.268365 300.861092 
z
" style="fill:#1f77b4;"/>
   </g>
   <g id="patch_95">
    <path clip-path="url(#pb342c8c2ba)" d="M 372.514921 307.584 
L 375.761463 307.584 
L 375.761463 303.382182 
L 372.514921 303.382182 
z
" style="fill:#1f77b4;"/>
   </g>
   <g id="patch_96">
    <path clip-path="url(#pb342c8c2ba)" d="M 375.761449 307.584 
L 379.008005 307.584 
L 379.008005 302.541841 
L 375.761449 302.541841 
z
" style="fill:#1f77b4;"/>
   </g>
   <g id="patch_97">
    <path clip-path="url(#pb342c8c2ba)" d="M 379.008005 307.584 
L 382.254548 307.584 
L 382.254548 302.261698 
L 379.008005 302.261698 
z
" style="fill:#1f77b4;"/>
   </g>
   <g id="patch_98">
    <path clip-path="url(#pb342c8c2ba)" d="M 382.254562 307.584 
L 385.501104 307.584 
L 385.501104 302.541819 
L 382.254562 302.541819 
z
" style="fill:#1f77b4;"/>
   </g>
   <g id="patch_99">
    <path clip-path="url(#pb342c8c2ba)" d="M 385.50109 307.584 
L 388.747632 307.584 
L 388.747632 302.261698 
L 385.50109 302.261698 
z
" style="fill:#1f77b4;"/>
   </g>
   <g id="patch_100">
    <path clip-path="url(#pb342c8c2ba)" d="M 388.747632 307.584 
L 391.994188 307.584 
L 391.994188 304.50268 
L 388.747632 304.50268 
z
" style="fill:#1f77b4;"/>
   </g>
   <g id="patch_101">
    <path clip-path="url(#pb342c8c2ba)" d="M 391.994202 307.584 
L 395.240745 307.584 
L 395.240745 303.942425 
L 391.994202 303.942425 
z
" style="fill:#1f77b4;"/>
   </g>
   <g id="patch_102">
    <path clip-path="url(#pb342c8c2ba)" d="M 395.24073 307.584 
L 398.487273 307.584 
L 398.487273 304.502667 
L 395.24073 304.502667 
z
" style="fill:#1f77b4;"/>
   </g>
   <g id="matplotlib.axis_1">
    <g id="xtick_1">
     <g id="line2d_1">
      <defs>
       <path d="M 0 0 
L 0 3.5 
" id="m60403ff93e" style="stroke:#000000;stroke-width:0.8;"/>
      </defs>
      <g>
       <use style="stroke:#000000;stroke-width:0.8;" x="71.894147" xlink:href="#m60403ff93e" y="307.584"/>
      </g>
     </g>
     <g id="text_1">
      <!-- −3 -->
      <defs>
       <path d="M 10.59375 35.5 
L 73.1875 35.5 
L 73.1875 27.203125 
L 10.59375 27.203125 
z
" id="DejaVuSans-8722"/>
       <path d="M 40.578125 39.3125 
Q 47.65625 37.796875 51.625 33 
Q 55.609375 28.21875 55.609375 21.1875 
Q 55.609375 10.40625 48.1875 4.484375 
Q 40.765625 -1.421875 27.09375 -1.421875 
Q 22.515625 -1.421875 17.65625 -0.515625 
Q 12.796875 0.390625 7.625 2.203125 
L 7.625 11.71875 
Q 11.71875 9.328125 16.59375 8.109375 
Q 21.484375 6.890625 26.8125 6.890625 
Q 36.078125 6.890625 40.9375 10.546875 
Q 45.796875 14.203125 45.796875 21.1875 
Q 45.796875 27.640625 41.28125 31.265625 
Q 36.765625 34.90625 28.71875 34.90625 
L 20.21875 34.90625 
L 20.21875 43.015625 
L 29.109375 43.015625 
Q 36.375 43.015625 40.234375 45.921875 
Q 44.09375 48.828125 44.09375 54.296875 
Q 44.09375 59.90625 40.109375 62.90625 
Q 36.140625 65.921875 28.71875 65.921875 
Q 24.65625 65.921875 20.015625 65.03125 
Q 15.375 64.15625 9.8125 62.3125 
L 9.8125 71.09375 
Q 15.4375 72.65625 20.34375 73.4375 
Q 25.25 74.21875 29.59375 74.21875 
Q 40.828125 74.21875 47.359375 69.109375 
Q 53.90625 64.015625 53.90625 55.328125 
Q 53.90625 49.265625 50.4375 45.09375 
Q 46.96875 40.921875 40.578125 39.3125 
z
" id="DejaVuSans-51"/>
      </defs>
      <g transform="translate(59.363288 327.501344)scale(0.17 -0.17)">
       <use xlink:href="#DejaVuSans-8722"/>
       <use x="83.789062" xlink:href="#DejaVuSans-51"/>
      </g>
     </g>
    </g>
    <g id="xtick_2">
     <g id="line2d_2">
      <g>
       <use style="stroke:#000000;stroke-width:0.8;" x="130.730829" xlink:href="#m60403ff93e" y="307.584"/>
      </g>
     </g>
     <g id="text_2">
      <!-- −2 -->
      <defs>
       <path d="M 19.1875 8.296875 
L 53.609375 8.296875 
L 53.609375 0 
L 7.328125 0 
L 7.328125 8.296875 
Q 12.9375 14.109375 22.625 23.890625 
Q 32.328125 33.6875 34.8125 36.53125 
Q 39.546875 41.84375 41.421875 45.53125 
Q 43.3125 49.21875 43.3125 52.78125 
Q 43.3125 58.59375 39.234375 62.25 
Q 35.15625 65.921875 28.609375 65.921875 
Q 23.96875 65.921875 18.8125 64.3125 
Q 13.671875 62.703125 7.8125 59.421875 
L 7.8125 69.390625 
Q 13.765625 71.78125 18.9375 73 
Q 24.125 74.21875 28.421875 74.21875 
Q 39.75 74.21875 46.484375 68.546875 
Q 53.21875 62.890625 53.21875 53.421875 
Q 53.21875 48.921875 51.53125 44.890625 
Q 49.859375 40.875 45.40625 35.40625 
Q 44.1875 33.984375 37.640625 27.21875 
Q 31.109375 20.453125 19.1875 8.296875 
z
" id="DejaVuSans-50"/>
      </defs>
      <g transform="translate(118.199969 327.501344)scale(0.17 -0.17)">
       <use xlink:href="#DejaVuSans-8722"/>
       <use x="83.789062" xlink:href="#DejaVuSans-50"/>
      </g>
     </g>
    </g>
    <g id="xtick_3">
     <g id="line2d_3">
      <g>
       <use style="stroke:#000000;stroke-width:0.8;" x="189.56751" xlink:href="#m60403ff93e" y="307.584"/>
      </g>
     </g>
     <g id="text_3">
      <!-- −1 -->
      <defs>
       <path d="M 12.40625 8.296875 
L 28.515625 8.296875 
L 28.515625 63.921875 
L 10.984375 60.40625 
L 10.984375 69.390625 
L 28.421875 72.90625 
L 38.28125 72.90625 
L 38.28125 8.296875 
L 54.390625 8.296875 
L 54.390625 0 
L 12.40625 0 
z
" id="DejaVuSans-49"/>
      </defs>
      <g transform="translate(177.036651 327.501344)scale(0.17 -0.17)">
       <use xlink:href="#DejaVuSans-8722"/>
       <use x="83.789062" xlink:href="#DejaVuSans-49"/>
      </g>
     </g>
    </g>
    <g id="xtick_4">
     <g id="line2d_4">
      <g>
       <use style="stroke:#000000;stroke-width:0.8;" x="248.404192" xlink:href="#m60403ff93e" y="307.584"/>
      </g>
     </g>
     <g id="text_4">
      <!-- 0 -->
      <defs>
       <path d="M 31.78125 66.40625 
Q 24.171875 66.40625 20.328125 58.90625 
Q 16.5 51.421875 16.5 36.375 
Q 16.5 21.390625 20.328125 13.890625 
Q 24.171875 6.390625 31.78125 6.390625 
Q 39.453125 6.390625 43.28125 13.890625 
Q 47.125 21.390625 47.125 36.375 
Q 47.125 51.421875 43.28125 58.90625 
Q 39.453125 66.40625 31.78125 66.40625 
z
M 31.78125 74.21875 
Q 44.046875 74.21875 50.515625 64.515625 
Q 56.984375 54.828125 56.984375 36.375 
Q 56.984375 17.96875 50.515625 8.265625 
Q 44.046875 -1.421875 31.78125 -1.421875 
Q 19.53125 -1.421875 13.0625 8.265625 
Q 6.59375 17.96875 6.59375 36.375 
Q 6.59375 54.828125 13.0625 64.515625 
Q 19.53125 74.21875 31.78125 74.21875 
z
" id="DejaVuSans-48"/>
      </defs>
      <g transform="translate(242.996067 327.501344)scale(0.17 -0.17)">
       <use xlink:href="#DejaVuSans-48"/>
      </g>
     </g>
    </g>
    <g id="xtick_5">
     <g id="line2d_5">
      <g>
       <use style="stroke:#000000;stroke-width:0.8;" x="307.240873" xlink:href="#m60403ff93e" y="307.584"/>
      </g>
     </g>
     <g id="text_5">
      <!-- 1 -->
      <g transform="translate(301.832748 327.501344)scale(0.17 -0.17)">
       <use xlink:href="#DejaVuSans-49"/>
      </g>
     </g>
    </g>
    <g id="xtick_6">
     <g id="line2d_6">
      <g>
       <use style="stroke:#000000;stroke-width:0.8;" x="366.077555" xlink:href="#m60403ff93e" y="307.584"/>
      </g>
     </g>
     <g id="text_6">
      <!-- 2 -->
      <g transform="translate(360.66943 327.501344)scale(0.17 -0.17)">
       <use xlink:href="#DejaVuSans-50"/>
      </g>
     </g>
    </g>
    <g id="text_7">
     <!-- Position in Radian -->
     <defs>
      <path d="M 19.671875 64.796875 
L 19.671875 37.40625 
L 32.078125 37.40625 
Q 38.96875 37.40625 42.71875 40.96875 
Q 46.484375 44.53125 46.484375 51.125 
Q 46.484375 57.671875 42.71875 61.234375 
Q 38.96875 64.796875 32.078125 64.796875 
z
M 9.8125 72.90625 
L 32.078125 72.90625 
Q 44.34375 72.90625 50.609375 67.359375 
Q 56.890625 61.8125 56.890625 51.125 
Q 56.890625 40.328125 50.609375 34.8125 
Q 44.34375 29.296875 32.078125 29.296875 
L 19.671875 29.296875 
L 19.671875 0 
L 9.8125 0 
z
" id="DejaVuSans-80"/>
      <path d="M 30.609375 48.390625 
Q 23.390625 48.390625 19.1875 42.75 
Q 14.984375 37.109375 14.984375 27.296875 
Q 14.984375 17.484375 19.15625 11.84375 
Q 23.34375 6.203125 30.609375 6.203125 
Q 37.796875 6.203125 41.984375 11.859375 
Q 46.1875 17.53125 46.1875 27.296875 
Q 46.1875 37.015625 41.984375 42.703125 
Q 37.796875 48.390625 30.609375 48.390625 
z
M 30.609375 56 
Q 42.328125 56 49.015625 48.375 
Q 55.71875 40.765625 55.71875 27.296875 
Q 55.71875 13.875 49.015625 6.21875 
Q 42.328125 -1.421875 30.609375 -1.421875 
Q 18.84375 -1.421875 12.171875 6.21875 
Q 5.515625 13.875 5.515625 27.296875 
Q 5.515625 40.765625 12.171875 48.375 
Q 18.84375 56 30.609375 56 
z
" id="DejaVuSans-111"/>
      <path d="M 44.28125 53.078125 
L 44.28125 44.578125 
Q 40.484375 46.53125 36.375 47.5 
Q 32.28125 48.484375 27.875 48.484375 
Q 21.1875 48.484375 17.84375 46.4375 
Q 14.5 44.390625 14.5 40.28125 
Q 14.5 37.15625 16.890625 35.375 
Q 19.28125 33.59375 26.515625 31.984375 
L 29.59375 31.296875 
Q 39.15625 29.25 43.1875 25.515625 
Q 47.21875 21.78125 47.21875 15.09375 
Q 47.21875 7.46875 41.1875 3.015625 
Q 35.15625 -1.421875 24.609375 -1.421875 
Q 20.21875 -1.421875 15.453125 -0.5625 
Q 10.6875 0.296875 5.421875 2 
L 5.421875 11.28125 
Q 10.40625 8.6875 15.234375 7.390625 
Q 20.0625 6.109375 24.8125 6.109375 
Q 31.15625 6.109375 34.5625 8.28125 
Q 37.984375 10.453125 37.984375 14.40625 
Q 37.984375 18.0625 35.515625 20.015625 
Q 33.0625 21.96875 24.703125 23.78125 
L 21.578125 24.515625 
Q 13.234375 26.265625 9.515625 29.90625 
Q 5.8125 33.546875 5.8125 39.890625 
Q 5.8125 47.609375 11.28125 51.796875 
Q 16.75 56 26.8125 56 
Q 31.78125 56 36.171875 55.265625 
Q 40.578125 54.546875 44.28125 53.078125 
z
" id="DejaVuSans-115"/>
      <path d="M 9.421875 54.6875 
L 18.40625 54.6875 
L 18.40625 0 
L 9.421875 0 
z
M 9.421875 75.984375 
L 18.40625 75.984375 
L 18.40625 64.59375 
L 9.421875 64.59375 
z
" id="DejaVuSans-105"/>
      <path d="M 18.3125 70.21875 
L 18.3125 54.6875 
L 36.8125 54.6875 
L 36.8125 47.703125 
L 18.3125 47.703125 
L 18.3125 18.015625 
Q 18.3125 11.328125 20.140625 9.421875 
Q 21.96875 7.515625 27.59375 7.515625 
L 36.8125 7.515625 
L 36.8125 0 
L 27.59375 0 
Q 17.1875 0 13.234375 3.875 
Q 9.28125 7.765625 9.28125 18.015625 
L 9.28125 47.703125 
L 2.6875 47.703125 
L 2.6875 54.6875 
L 9.28125 54.6875 
L 9.28125 70.21875 
z
" id="DejaVuSans-116"/>
      <path d="M 54.890625 33.015625 
L 54.890625 0 
L 45.90625 0 
L 45.90625 32.71875 
Q 45.90625 40.484375 42.875 44.328125 
Q 39.84375 48.1875 33.796875 48.1875 
Q 26.515625 48.1875 22.3125 43.546875 
Q 18.109375 38.921875 18.109375 30.90625 
L 18.109375 0 
L 9.078125 0 
L 9.078125 54.6875 
L 18.109375 54.6875 
L 18.109375 46.1875 
Q 21.34375 51.125 25.703125 53.5625 
Q 30.078125 56 35.796875 56 
Q 45.21875 56 50.046875 50.171875 
Q 54.890625 44.34375 54.890625 33.015625 
z
" id="DejaVuSans-110"/>
      <path id="DejaVuSans-32"/>
      <path d="M 44.390625 34.1875 
Q 47.5625 33.109375 50.5625 29.59375 
Q 53.5625 26.078125 56.59375 19.921875 
L 66.609375 0 
L 56 0 
L 46.6875 18.703125 
Q 43.0625 26.03125 39.671875 28.421875 
Q 36.28125 30.8125 30.421875 30.8125 
L 19.671875 30.8125 
L 19.671875 0 
L 9.8125 0 
L 9.8125 72.90625 
L 32.078125 72.90625 
Q 44.578125 72.90625 50.734375 67.671875 
Q 56.890625 62.453125 56.890625 51.90625 
Q 56.890625 45.015625 53.6875 40.46875 
Q 50.484375 35.9375 44.390625 34.1875 
z
M 19.671875 64.796875 
L 19.671875 38.921875 
L 32.078125 38.921875 
Q 39.203125 38.921875 42.84375 42.21875 
Q 46.484375 45.515625 46.484375 51.90625 
Q 46.484375 58.296875 42.84375 61.546875 
Q 39.203125 64.796875 32.078125 64.796875 
z
" id="DejaVuSans-82"/>
      <path d="M 34.28125 27.484375 
Q 23.390625 27.484375 19.1875 25 
Q 14.984375 22.515625 14.984375 16.5 
Q 14.984375 11.71875 18.140625 8.90625 
Q 21.296875 6.109375 26.703125 6.109375 
Q 34.1875 6.109375 38.703125 11.40625 
Q 43.21875 16.703125 43.21875 25.484375 
L 43.21875 27.484375 
z
M 52.203125 31.203125 
L 52.203125 0 
L 43.21875 0 
L 43.21875 8.296875 
Q 40.140625 3.328125 35.546875 0.953125 
Q 30.953125 -1.421875 24.3125 -1.421875 
Q 15.921875 -1.421875 10.953125 3.296875 
Q 6 8.015625 6 15.921875 
Q 6 25.140625 12.171875 29.828125 
Q 18.359375 34.515625 30.609375 34.515625 
L 43.21875 34.515625 
L 43.21875 35.40625 
Q 43.21875 41.609375 39.140625 45 
Q 35.0625 48.390625 27.6875 48.390625 
Q 23 48.390625 18.546875 47.265625 
Q 14.109375 46.140625 10.015625 43.890625 
L 10.015625 52.203125 
Q 14.9375 54.109375 19.578125 55.046875 
Q 24.21875 56 28.609375 56 
Q 40.484375 56 46.34375 49.84375 
Q 52.203125 43.703125 52.203125 31.203125 
z
" id="DejaVuSans-97"/>
      <path d="M 45.40625 46.390625 
L 45.40625 75.984375 
L 54.390625 75.984375 
L 54.390625 0 
L 45.40625 0 
L 45.40625 8.203125 
Q 42.578125 3.328125 38.25 0.953125 
Q 33.9375 -1.421875 27.875 -1.421875 
Q 17.96875 -1.421875 11.734375 6.484375 
Q 5.515625 14.40625 5.515625 27.296875 
Q 5.515625 40.1875 11.734375 48.09375 
Q 17.96875 56 27.875 56 
Q 33.9375 56 38.25 53.625 
Q 42.578125 51.265625 45.40625 46.390625 
z
M 14.796875 27.296875 
Q 14.796875 17.390625 18.875 11.75 
Q 22.953125 6.109375 30.078125 6.109375 
Q 37.203125 6.109375 41.296875 11.75 
Q 45.40625 17.390625 45.40625 27.296875 
Q 45.40625 37.203125 41.296875 42.84375 
Q 37.203125 48.484375 30.078125 48.484375 
Q 22.953125 48.484375 18.875 42.84375 
Q 14.796875 37.203125 14.796875 27.296875 
z
" id="DejaVuSans-100"/>
     </defs>
     <g transform="translate(102.024844 357.832125)scale(0.3 -0.3)">
      <use xlink:href="#DejaVuSans-80"/>
      <use x="60.255859" xlink:href="#DejaVuSans-111"/>
      <use x="121.4375" xlink:href="#DejaVuSans-115"/>
      <use x="173.537109" xlink:href="#DejaVuSans-105"/>
      <use x="201.320312" xlink:href="#DejaVuSans-116"/>
      <use x="240.529297" xlink:href="#DejaVuSans-105"/>
      <use x="268.3125" xlink:href="#DejaVuSans-111"/>
      <use x="329.494141" xlink:href="#DejaVuSans-110"/>
      <use x="392.873047" xlink:href="#DejaVuSans-32"/>
      <use x="424.660156" xlink:href="#DejaVuSans-105"/>
      <use x="452.443359" xlink:href="#DejaVuSans-110"/>
      <use x="515.822266" xlink:href="#DejaVuSans-32"/>
      <use x="547.609375" xlink:href="#DejaVuSans-82"/>
      <use x="617.060547" xlink:href="#DejaVuSans-97"/>
      <use x="678.339844" xlink:href="#DejaVuSans-100"/>
      <use x="741.816406" xlink:href="#DejaVuSans-105"/>
      <use x="769.599609" xlink:href="#DejaVuSans-97"/>
      <use x="830.878906" xlink:href="#DejaVuSans-110"/>
     </g>
    </g>
   </g>
   <g id="matplotlib.axis_2">
    <g id="ytick_1">
     <g id="line2d_7">
      <defs>
       <path d="M 0 0 
L -3.5 0 
" id="mf97e1b4f8c" style="stroke:#000000;stroke-width:0.8;"/>
      </defs>
      <g>
       <use style="stroke:#000000;stroke-width:0.8;" x="57.6" xlink:href="#mf97e1b4f8c" y="307.584"/>
      </g>
     </g>
     <g id="text_8">
      <!-- 0.00 -->
      <defs>
       <path d="M 10.6875 12.40625 
L 21 12.40625 
L 21 0 
L 10.6875 0 
z
" id="DejaVuSans-46"/>
      </defs>
      <g transform="translate(12.748438 314.042672)scale(0.17 -0.17)">
       <use xlink:href="#DejaVuSans-48"/>
       <use x="63.623047" xlink:href="#DejaVuSans-46"/>
       <use x="95.410156" xlink:href="#DejaVuSans-48"/>
       <use x="159.033203" xlink:href="#DejaVuSans-48"/>
      </g>
     </g>
    </g>
    <g id="ytick_2">
     <g id="line2d_8">
      <g>
       <use style="stroke:#000000;stroke-width:0.8;" x="57.6" xlink:href="#mf97e1b4f8c" y="268.942067"/>
      </g>
     </g>
     <g id="text_9">
      <!-- 0.25 -->
      <defs>
       <path d="M 10.796875 72.90625 
L 49.515625 72.90625 
L 49.515625 64.59375 
L 19.828125 64.59375 
L 19.828125 46.734375 
Q 21.96875 47.46875 24.109375 47.828125 
Q 26.265625 48.1875 28.421875 48.1875 
Q 40.625 48.1875 47.75 41.5 
Q 54.890625 34.8125 54.890625 23.390625 
Q 54.890625 11.625 47.5625 5.09375 
Q 40.234375 -1.421875 26.90625 -1.421875 
Q 22.3125 -1.421875 17.546875 -0.640625 
Q 12.796875 0.140625 7.71875 1.703125 
L 7.71875 11.625 
Q 12.109375 9.234375 16.796875 8.0625 
Q 21.484375 6.890625 26.703125 6.890625 
Q 35.15625 6.890625 40.078125 11.328125 
Q 45.015625 15.765625 45.015625 23.390625 
Q 45.015625 31 40.078125 35.4375 
Q 35.15625 39.890625 26.703125 39.890625 
Q 22.75 39.890625 18.8125 39.015625 
Q 14.890625 38.140625 10.796875 36.28125 
z
" id="DejaVuSans-53"/>
      </defs>
      <g transform="translate(12.748438 275.400739)scale(0.17 -0.17)">
       <use xlink:href="#DejaVuSans-48"/>
       <use x="63.623047" xlink:href="#DejaVuSans-46"/>
       <use x="95.410156" xlink:href="#DejaVuSans-50"/>
       <use x="159.033203" xlink:href="#DejaVuSans-53"/>
      </g>
     </g>
    </g>
    <g id="ytick_3">
     <g id="line2d_9">
      <g>
       <use style="stroke:#000000;stroke-width:0.8;" x="57.6" xlink:href="#mf97e1b4f8c" y="230.300134"/>
      </g>
     </g>
     <g id="text_10">
      <!-- 0.50 -->
      <g transform="translate(12.748438 236.758806)scale(0.17 -0.17)">
       <use xlink:href="#DejaVuSans-48"/>
       <use x="63.623047" xlink:href="#DejaVuSans-46"/>
       <use x="95.410156" xlink:href="#DejaVuSans-53"/>
       <use x="159.033203" xlink:href="#DejaVuSans-48"/>
      </g>
     </g>
    </g>
    <g id="ytick_4">
     <g id="line2d_10">
      <g>
       <use style="stroke:#000000;stroke-width:0.8;" x="57.6" xlink:href="#mf97e1b4f8c" y="191.658201"/>
      </g>
     </g>
     <g id="text_11">
      <!-- 0.75 -->
      <defs>
       <path d="M 8.203125 72.90625 
L 55.078125 72.90625 
L 55.078125 68.703125 
L 28.609375 0 
L 18.3125 0 
L 43.21875 64.59375 
L 8.203125 64.59375 
z
" id="DejaVuSans-55"/>
      </defs>
      <g transform="translate(12.748438 198.116873)scale(0.17 -0.17)">
       <use xlink:href="#DejaVuSans-48"/>
       <use x="63.623047" xlink:href="#DejaVuSans-46"/>
       <use x="95.410156" xlink:href="#DejaVuSans-55"/>
       <use x="159.033203" xlink:href="#DejaVuSans-53"/>
      </g>
     </g>
    </g>
    <g id="ytick_5">
     <g id="line2d_11">
      <g>
       <use style="stroke:#000000;stroke-width:0.8;" x="57.6" xlink:href="#mf97e1b4f8c" y="153.016268"/>
      </g>
     </g>
     <g id="text_12">
      <!-- 1.00 -->
      <g transform="translate(12.748438 159.474939)scale(0.17 -0.17)">
       <use xlink:href="#DejaVuSans-49"/>
       <use x="63.623047" xlink:href="#DejaVuSans-46"/>
       <use x="95.410156" xlink:href="#DejaVuSans-48"/>
       <use x="159.033203" xlink:href="#DejaVuSans-48"/>
      </g>
     </g>
    </g>
    <g id="ytick_6">
     <g id="line2d_12">
      <g>
       <use style="stroke:#000000;stroke-width:0.8;" x="57.6" xlink:href="#mf97e1b4f8c" y="114.374334"/>
      </g>
     </g>
     <g id="text_13">
      <!-- 1.25 -->
      <g transform="translate(12.748438 120.833006)scale(0.17 -0.17)">
       <use xlink:href="#DejaVuSans-49"/>
       <use x="63.623047" xlink:href="#DejaVuSans-46"/>
       <use x="95.410156" xlink:href="#DejaVuSans-50"/>
       <use x="159.033203" xlink:href="#DejaVuSans-53"/>
      </g>
     </g>
    </g>
    <g id="ytick_7">
     <g id="line2d_13">
      <g>
       <use style="stroke:#000000;stroke-width:0.8;" x="57.6" xlink:href="#mf97e1b4f8c" y="75.732401"/>
      </g>
     </g>
     <g id="text_14">
      <!-- 1.50 -->
      <g transform="translate(12.748438 82.191073)scale(0.17 -0.17)">
       <use xlink:href="#DejaVuSans-49"/>
       <use x="63.623047" xlink:href="#DejaVuSans-46"/>
       <use x="95.410156" xlink:href="#DejaVuSans-53"/>
       <use x="159.033203" xlink:href="#DejaVuSans-48"/>
      </g>
     </g>
    </g>
    <g id="text_15">
     <!-- Density -->
     <defs>
      <path d="M 19.671875 64.796875 
L 19.671875 8.109375 
L 31.59375 8.109375 
Q 46.6875 8.109375 53.6875 14.9375 
Q 60.6875 21.78125 60.6875 36.53125 
Q 60.6875 51.171875 53.6875 57.984375 
Q 46.6875 64.796875 31.59375 64.796875 
z
M 9.8125 72.90625 
L 30.078125 72.90625 
Q 51.265625 72.90625 61.171875 64.09375 
Q 71.09375 55.28125 71.09375 36.53125 
Q 71.09375 17.671875 61.125 8.828125 
Q 51.171875 0 30.078125 0 
L 9.8125 0 
z
" id="DejaVuSans-68"/>
      <path d="M 56.203125 29.59375 
L 56.203125 25.203125 
L 14.890625 25.203125 
Q 15.484375 15.921875 20.484375 11.0625 
Q 25.484375 6.203125 34.421875 6.203125 
Q 39.59375 6.203125 44.453125 7.46875 
Q 49.3125 8.734375 54.109375 11.28125 
L 54.109375 2.78125 
Q 49.265625 0.734375 44.1875 -0.34375 
Q 39.109375 -1.421875 33.890625 -1.421875 
Q 20.796875 -1.421875 13.15625 6.1875 
Q 5.515625 13.8125 5.515625 26.8125 
Q 5.515625 40.234375 12.765625 48.109375 
Q 20.015625 56 32.328125 56 
Q 43.359375 56 49.78125 48.890625 
Q 56.203125 41.796875 56.203125 29.59375 
z
M 47.21875 32.234375 
Q 47.125 39.59375 43.09375 43.984375 
Q 39.0625 48.390625 32.421875 48.390625 
Q 24.90625 48.390625 20.390625 44.140625 
Q 15.875 39.890625 15.1875 32.171875 
z
" id="DejaVuSans-101"/>
      <path d="M 32.171875 -5.078125 
Q 28.375 -14.84375 24.75 -17.8125 
Q 21.140625 -20.796875 15.09375 -20.796875 
L 7.90625 -20.796875 
L 7.90625 -13.28125 
L 13.1875 -13.28125 
Q 16.890625 -13.28125 18.9375 -11.515625 
Q 21 -9.765625 23.484375 -3.21875 
L 25.09375 0.875 
L 2.984375 54.6875 
L 12.5 54.6875 
L 29.59375 11.921875 
L 46.6875 54.6875 
L 56.203125 54.6875 
z
" id="DejaVuSans-121"/>
     </defs>
     <g transform="translate(2.509375 231.553781)rotate(-90)scale(0.3 -0.3)">
      <use xlink:href="#DejaVuSans-68"/>
      <use x="77.001953" xlink:href="#DejaVuSans-101"/>
      <use x="138.525391" xlink:href="#DejaVuSans-110"/>
      <use x="201.904297" xlink:href="#DejaVuSans-115"/>
      <use x="254.003906" xlink:href="#DejaVuSans-105"/>
      <use x="281.787109" xlink:href="#DejaVuSans-116"/>
      <use x="320.996094" xlink:href="#DejaVuSans-121"/>
     </g>
    </g>
   </g>
   <g id="line2d_14">
    <path clip-path="url(#pb342c8c2ba)" d="M 101.312488 306.67604 
L 101.842018 306.452844 
L 102.430385 306.478406 
L 103.974848 306.849104 
L 105.181 307.314797 
L 105.636984 307.054521 
L 106.357733 306.675292 
L 107.049064 306.622384 
L 107.872778 306.762097 
L 108.917129 307.068852 
L 109.25544 306.782011 
L 110.417464 305.601403 
L 110.814612 305.506099 
L 111.094086 305.674145 
L 111.535361 306.278173 
L 111.976636 306.727259 
L 112.27082 306.728741 
L 112.638549 306.471116 
L 113.15337 305.819842 
L 114.256558 304.29512 
L 114.668415 304.211988 
L 116.154041 304.109845 
L 116.933627 303.382995 
L 117.139555 303.655254 
L 117.521994 304.658184 
L 118.007396 305.736436 
L 118.286871 305.900845 
L 118.551636 305.792916 
L 119.037038 305.28979 
L 120.096099 304.157004 
L 120.331445 304.319515 
L 120.890394 304.780092 
L 121.066904 304.597593 
L 121.346378 303.899156 
L 121.920036 302.451642 
L 122.111255 302.416994 
L 122.317183 302.646886 
L 123.185024 303.862588 
L 123.61159 303.862202 
L 125.332563 303.844285 
L 126.229823 304.395498 
L 126.479878 304.071326 
L 126.950572 302.995324 
L 127.480102 301.993182 
L 127.744867 301.885362 
L 127.980214 302.054943 
L 128.906892 303.001899 
L 129.142238 302.70396 
L 129.524677 301.772646 
L 130.201299 300.185821 
L 130.495482 299.983997 
L 130.745538 300.071633 
L 131.098558 300.480742 
L 131.701634 301.171373 
L 131.936981 301.142168 
L 132.187037 300.860512 
L 132.510638 300.117311 
L 132.937204 298.493873 
L 133.599117 296.032872 
L 133.8933 295.669103 
L 134.290448 295.583115 
L 134.61405 295.396592 
L 135.055325 294.791831 
L 135.364217 294.542341 
L 135.555437 294.659283 
L 135.820202 295.177917 
L 136.55566 296.751517 
L 136.849844 296.860852 
L 137.232282 296.721221 
L 137.820649 296.537339 
L 138.15896 296.673333 
L 138.51198 297.070557 
L 138.953255 297.933902 
L 139.791678 299.65039 
L 139.953479 299.59833 
L 140.144698 299.242635 
L 140.4683 298.035031 
L 141.012539 296.115904 
L 141.189049 296.064094 
L 141.35085 296.337656 
L 141.645033 297.411335 
L 142.218691 299.441647 
L 142.424619 299.571997 
L 142.58642 299.385763 
L 142.821767 298.694776 
L 143.218914 296.703836 
L 143.954373 293.08348 
L 144.248556 292.581426 
L 144.483903 292.550622 
L 144.836923 292.798252 
L 145.307617 293.058775 
L 145.572382 292.947286 
L 146.469641 292.327247 
L 146.734406 292.59403 
L 147.102135 293.317816 
L 147.646375 294.969908 
L 148.26416 296.629696 
L 148.720144 297.262939 
L 149.087873 297.4385 
L 149.440893 297.35756 
L 149.911587 297.00196 
L 150.955938 295.834212 
L 151.27954 295.060455 
L 151.764942 293.135505 
L 152.147381 292.012685 
L 152.3386 291.923157 
L 152.51511 292.109318 
L 152.985803 293.098514 
L 153.427079 293.739125 
L 153.809517 293.937122 
L 154.324338 294.113376 
L 154.544976 294.58253 
L 154.839159 295.874519 
L 155.677582 299.947917 
L 155.986474 300.366277 
L 156.383622 300.525028 
L 156.721933 300.463986 
L 157.030825 300.159435 
L 157.339718 299.524686 
L 157.64861 298.321265 
L 158.01634 295.804059 
L 158.751798 290.542285 
L 158.928308 290.320982 
L 158.943017 290.326738 
L 159.0754 290.52501 
L 159.354874 291.498909 
L 159.707894 292.458597 
L 159.840277 292.418357 
L 160.002078 292.016701 
L 160.399225 290.154958 
L 160.6787 289.371684 
L 160.811082 289.417502 
L 160.987592 289.884213 
L 161.767178 292.40931 
L 161.943688 292.329254 
L 162.517346 291.908956 
L 162.723274 292.118124 
L 163.135131 292.977547 
L 163.444024 293.38506 
L 163.620534 293.323208 
L 163.87059 292.908107 
L 164.414829 291.997691 
L 164.767849 291.535437 
L 165.003196 290.714767 
L 165.341507 288.528585 
L 166.076965 283.657699 
L 167.209571 278.756619 
L 167.739101 275.970013 
L 167.989157 275.553715 
L 168.150958 275.600219 
L 168.386305 275.979086 
L 168.812871 277.189179 
L 169.842513 280.32139 
L 170.224951 281.005763 
L 170.475007 282.113271 
L 170.916282 285.400102 
L 171.342848 287.912822 
L 171.607613 288.415784 
L 171.887087 288.463802 
L 172.122434 288.581699 
L 172.357781 289.014859 
L 172.72551 290.27164 
L 173.79928 294.111665 
L 174.064045 294.389476 
L 174.225846 294.260956 
L 174.446483 293.690273 
L 174.85834 291.791094 
L 175.299615 290.121322 
L 175.505543 289.965974 
L 175.667344 290.161222 
L 175.946818 290.977176 
L 176.461639 292.424725 
L 176.608731 292.398488 
L 176.770532 291.999557 
L 177.020588 290.601742 
L 178.373832 281.429175 
L 178.93278 278.484649 
L 179.874167 273.453985 
L 180.227187 272.64592 
L 180.477243 272.514321 
L 180.69788 272.645937 
L 181.006773 273.130101 
L 181.389211 274.163733 
L 181.801068 275.960813 
L 182.727746 281.50317 
L 183.316113 284.208487 
L 183.595587 284.684803 
L 183.757388 284.63054 
L 183.992735 284.223296 
L 184.478137 283.403704 
L 184.625229 283.477439 
L 184.816448 283.894153 
L 185.125341 285.213712 
L 185.919636 288.787075 
L 186.243238 289.253 
L 186.861023 289.852694 
L 187.390553 291.078184 
L 187.743573 291.580555 
L 187.993629 291.596611 
L 188.802633 291.384638 
L 189.170363 291.761406 
L 189.523383 292.003833 
L 189.685184 291.870123 
L 189.876403 291.375834 
L 190.141168 289.964985 
L 190.582443 286.084529 
L 191.082555 282.312588 
L 191.303192 281.863811 
L 191.420866 281.965688 
L 191.626794 282.57973 
L 192.391671 285.223698 
L 192.58289 285.238204 
L 193.200675 284.992381 
L 193.391895 285.475194 
L 193.715496 287.042948 
L 194.421536 290.479779 
L 194.803975 291.265311 
L 195.24525 291.690565 
L 195.568852 291.744061 
L 195.804198 291.554162 
L 196.1278 290.937118 
L 196.627912 290.035979 
L 196.804422 290.074839 
L 197.039769 290.449181 
L 197.525171 291.233005 
L 197.686972 291.161626 
L 197.90761 290.742492 
L 198.760742 288.798598 
L 198.937252 288.877111 
L 199.14318 289.274082 
L 199.437364 290.39521 
L 200.540551 295.200713 
L 200.717061 295.165695 
L 200.981826 294.783854 
L 201.349556 294.35409 
L 201.526066 294.432346 
L 201.761412 294.857212 
L 203.011692 297.635668 
L 203.320585 297.84115 
L 203.526513 297.718391 
L 203.820696 297.189507 
L 204.276681 296.43569 
L 204.4679 296.469085 
L 204.717956 296.815245 
L 205.262195 297.574822 
L 205.497542 297.56529 
L 205.777016 297.289987 
L 206.291837 296.363027 
L 206.615439 296.02063 
L 206.77724 296.112034 
L 206.997877 296.568017 
L 207.983392 299.053463 
L 208.615886 299.824568 
L 209.042452 300.283685 
L 209.204253 300.196346 
L 209.395472 299.760204 
L 209.645528 298.51298 
L 210.013257 295.318333 
L 210.719297 289.175385 
L 210.954644 288.655591 
L 211.101736 288.721433 
L 211.616557 289.238503 
L 211.645975 289.206892 
L 211.807776 288.829989 
L 212.072541 287.500299 
L 212.734454 282.471522 
L 213.881769 273.214664 
L 214.793737 264.334668 
L 215.573323 260.200783 
L 215.896925 259.278146 
L 216.044017 259.286502 
L 216.220527 259.64924 
L 216.588256 261.11733 
L 217.456097 264.466809 
L 217.735571 264.935004 
L 217.867954 264.853965 
L 218.044464 264.396051 
L 218.397484 262.664824 
L 218.809341 261.048804 
L 219.015269 260.893967 
L 219.221198 261.068347 
L 219.633054 261.409441 
L 219.868401 261.268448 
L 220.206712 261.082206 
L 220.383222 261.273874 
L 220.662696 262.020986 
L 221.059844 262.937618 
L 221.236354 262.94378 
L 221.824721 262.658496 
L 222.030649 263.181477 
L 222.442506 265.039906 
L 223.707495 270.675399 
L 223.898714 270.823138 
L 224.045806 270.648863 
L 224.295861 269.913709 
L 225.296085 265.766732 
L 226.413982 260.13889 
L 227.649552 254.517715 
L 228.0467 253.804567 
L 228.620358 252.909561 
L 228.914541 251.867586 
L 229.223434 249.822393 
L 229.63529 245.319624 
L 230.459004 236.262485 
L 230.914988 233.593039 
L 231.135626 233.200999 
L 231.23859 233.32718 
L 231.4151 234.023617 
L 231.812248 236.876688 
L 232.135849 238.41011 
L 232.238813 238.453975 
L 232.268232 238.421743 
L 232.400614 238.035983 
L 232.635961 236.504551 
L 233.54793 229.711245 
L 233.70973 229.654649 
L 233.886241 229.931919 
L 234.504026 231.044359 
L 234.945301 231.496887 
L 235.298321 232.406479 
L 235.66605 233.13466 
L 235.798433 233.078847 
L 235.960234 232.696056 
L 236.224999 231.378744 
L 237.034003 226.969956 
L 237.254641 226.80825 
L 237.769462 226.799768 
L 237.960681 226.276089 
L 238.240155 224.720221 
L 238.696139 220.643216 
L 239.578689 210.458299 
L 240.078801 205.682814 
L 240.328857 204.894635 
L 240.520076 204.848317 
L 240.740714 204.789176 
L 240.887806 204.426084 
L 241.093734 203.223161 
L 241.432045 199.610996 
L 242.873544 182.431171 
L 243.182436 181.351078 
L 243.535456 180.399223 
L 243.770803 178.788337 
L 244.18266 173.904513 
L 244.550389 170.633351 
L 244.682772 170.394085 
L 244.71219 170.417484 
L 244.829863 170.774882 
L 245.050501 172.411941 
L 245.491776 177.849011 
L 246.227234 186.524426 
L 246.447872 187.222614 
L 246.536127 187.073384 
L 246.683219 186.160462 
L 246.874438 183.373163 
L 247.109785 176.167176 
L 247.37455 160.140675 
L 247.72757 122.307139 
L 248.345355 56.299553 
L 248.463028 54.144 
L 248.492447 54.345342 
L 248.595411 57.284716 
L 248.801339 71.877896 
L 249.610344 137.411621 
L 249.830981 140.666585 
L 249.875109 140.702476 
L 249.904527 140.638951 
L 250.0222 139.813056 
L 250.286966 135.911073 
L 250.978297 121.651424 
L 251.97852 100.323262 
L 252.110903 99.8943 
L 252.140321 99.921617 
L 252.243285 100.35514 
L 252.434504 102.394731 
L 252.86107 110.105011 
L 253.317055 116.813288 
L 253.537692 117.711339 
L 253.611238 117.588349 
L 253.75833 116.728896 
L 254.037804 113.335535 
L 254.537916 107.511516 
L 254.611462 107.405235 
L 254.655589 107.487069 
L 254.773262 108.274608 
L 254.979191 111.656404 
L 255.34692 122.37418 
L 255.979414 139.715156 
L 256.317725 143.599628 
L 256.538363 144.302857 
L 256.641327 144.24609 
L 256.817837 143.741177 
L 257.259112 142.364214 
L 257.273821 142.372463 
L 257.376786 142.613649 
L 257.538586 143.724564 
L 257.803352 147.455326 
L 258.685902 161.295611 
L 258.994794 162.593451 
L 259.892054 164.58036 
L 259.906763 164.571142 
L 260.039145 164.318411 
L 260.245074 163.306135 
L 260.67164 159.699525 
L 261.186461 156.011494 
L 261.436517 155.410439 
L 261.539481 155.534086 
L 261.686573 156.213404 
L 261.90721 158.571684 
L 262.230812 164.940445 
L 262.951561 179.581271 
L 263.878239 190.936847 
L 265.216773 218.636021 
L 265.819849 229.931429 
L 266.540599 242.814194 
L 267.217221 250.057043 
L 268.349827 261.122477 
L 268.599883 261.742144 
L 268.732265 261.683864 
L 268.908775 261.24404 
L 269.629525 258.985322 
L 269.658943 259.000686 
L 269.806035 259.249493 
L 270.114927 260.375042 
L 270.482656 261.425356 
L 270.629748 261.420523 
L 270.791549 261.076399 
L 271.071023 259.816375 
L 271.65939 257.148186 
L 271.806482 257.068643 
L 271.821191 257.079916 
L 271.953573 257.342367 
L 272.174211 258.38175 
L 273.24798 264.453836 
L 273.542164 264.648687 
L 274.130531 264.993284 
L 274.630642 265.428165 
L 274.865989 266.071689 
L 275.219009 267.822194 
L 276.042723 271.939545 
L 277.263584 276.829035 
L 277.557767 277.002754 
L 278.204971 277.050181 
L 278.381481 276.736923 
L 278.602118 275.80728 
L 278.955139 273.140465 
L 279.45525 269.730196 
L 279.64647 269.446246 
L 279.764143 269.584628 
L 279.99949 270.327479 
L 280.440765 271.617273 
L 280.646693 271.686534 
L 280.999713 271.688639 
L 281.161514 272.102018 
L 281.382152 273.456502 
L 281.705753 277.121118 
L 282.514758 286.764839 
L 282.779523 287.662473 
L 282.941324 287.675738 
L 283.132543 287.356195 
L 284.235731 285.044047 
L 284.485787 285.136416 
L 285.015317 285.682456 
L 285.986122 286.915804 
L 286.36856 287.854353 
L 286.9128 289.915945 
L 287.810059 293.181989 
L 288.221916 293.987622 
L 288.457263 294.079763 
L 288.648482 293.899477 
L 288.927956 293.26349 
L 290.045853 290.378589 
L 290.45771 289.804835 
L 290.663638 289.834527 
L 290.913694 290.180614 
L 291.399097 290.852848 
L 291.560898 290.745774 
L 291.766826 290.266368 
L 292.134555 288.692678 
L 292.972978 285.053671 
L 293.223034 284.716555 
L 293.370126 284.815797 
L 293.576054 285.324388 
L 294.223257 287.192068 
L 294.237967 287.184187 
L 294.370349 286.942168 
L 294.590987 285.891864 
L 295.399991 281.393714 
L 295.517664 281.452074 
L 295.694174 281.925943 
L 296.606143 285.0097 
L 297.135673 285.424159 
L 297.37102 286.249765 
L 297.72404 288.504123 
L 298.577172 294.221601 
L 298.856646 294.779561 
L 299.033156 294.763746 
L 299.253794 294.443216 
L 299.66565 293.336212 
L 300.195181 292.096434 
L 300.459946 291.945833 
L 300.842384 291.821377 
L 301.033603 291.401463 
L 301.298368 290.14118 
L 302.1515 285.457665 
L 302.298592 285.468308 
L 302.475102 285.838949 
L 302.783995 287.134041 
L 304.019565 292.961219 
L 304.196075 292.946575 
L 304.46084 292.595708 
L 304.99037 291.939421 
L 305.387518 291.483457 
L 305.681701 290.691819 
L 306.06414 288.926546 
L 307.285001 282.710793 
L 307.549766 282.531784 
L 307.902786 282.354459 
L 308.138133 281.88504 
L 308.491153 280.552311 
L 309.094229 278.363199 
L 309.285448 278.251497 
L 309.43254 278.433446 
L 309.682595 279.183171 
L 310.182707 280.672711 
L 310.300381 280.632864 
L 310.447472 280.253396 
L 310.697528 278.832202 
L 311.403568 274.453054 
L 311.506533 274.407792 
L 311.535951 274.435022 
L 311.668333 274.77045 
L 311.918389 276.192446 
L 312.697975 281.079928 
L 313.036286 281.701221 
L 313.33047 282.337739 
L 313.624653 283.63682 
L 314.698423 289.052635 
L 315.27208 290.918648 
L 315.99283 293.608917 
L 316.213467 293.720199 
L 317.375492 293.35814 
L 317.625547 292.585284 
L 318.508098 289.365222 
L 318.64048 289.452254 
L 318.831699 289.932726 
L 319.214138 291.688909 
L 319.625995 293.225504 
L 319.787796 293.308686 
L 319.802505 293.297124 
L 319.949596 293.003117 
L 320.199652 291.849256 
L 320.846856 288.642473 
L 320.964529 288.647209 
L 320.979238 288.666824 
L 321.12633 289.092467 
L 321.376386 290.645335 
L 322.391319 297.784951 
L 322.773757 298.683886 
L 323.067941 298.933395 
L 323.25916 298.849682 
L 323.479797 298.465561 
L 323.862236 297.232203 
L 324.332929 295.928839 
L 324.524148 295.867174 
L 324.700658 296.116229 
L 325.009551 297.074247 
L 325.494954 298.43325 
L 325.656754 298.448692 
L 325.818555 298.160971 
L 326.08332 297.098475 
L 327.392437 290.899529 
L 327.716038 290.35855 
L 327.877839 290.386423 
L 328.069058 290.714428 
L 328.422079 291.898074 
L 328.863354 293.143191 
L 329.0987 293.276446 
L 329.363465 293.103476 
L 329.657649 293.00297 
L 329.834159 293.209676 
L 330.098924 293.968935 
L 330.775546 296.061488 
L 330.981474 296.134161 
L 331.202112 295.944629 
L 331.672805 295.144257 
L 332.82012 292.757469 
L 333.290814 291.934483 
L 333.54087 291.86135 
L 333.805635 292.054559 
L 334.408711 292.888929 
L 335.526608 294.389178 
L 335.806082 294.313888 
L 336.55625 293.958572 
L 336.776887 294.199681 
L 337.115198 294.980461 
L 337.718274 296.34026 
L 338.012458 296.516586 
L 338.380187 296.435528 
L 338.762625 296.426426 
L 339.02739 296.677758 
L 339.424538 297.446837 
L 339.806976 298.01512 
L 339.968777 297.965587 
L 340.159996 297.593036 
L 340.468889 296.366181 
L 341.116093 293.781638 
L 341.395567 293.461328 
L 342.175153 293.005867 
L 342.5723 292.695559 
L 342.792938 292.796608 
L 343.087121 293.244197 
L 343.82258 294.919198 
L 344.337401 296.614552 
L 344.969895 298.610922 
L 345.175824 298.707917 
L 345.337624 298.506843 
L 345.617099 297.703331 
L 346.146629 296.211766 
L 346.323139 296.171041 
L 346.514358 296.412833 
L 347.235107 297.543421 
L 347.470454 297.447317 
L 348.117658 296.795586 
L 348.441259 296.213967 
L 348.794279 295.014885 
L 349.441483 292.821335 
L 349.662121 292.704111 
L 349.85334 292.877883 
L 350.368161 293.808837 
L 351.221293 295.446343 
L 351.721404 297.486256 
L 352.236225 299.21831 
L 352.50099 299.513985 
L 352.662791 299.434601 
L 352.86872 299.013248 
L 353.177612 297.763322 
L 353.765979 295.395956 
L 353.942489 295.305495 
L 354.10429 295.517436 
L 354.442601 296.464459 
L 354.928004 297.619995 
L 355.207478 297.824394 
L 355.457534 297.733363 
L 356.207701 297.274721 
L 356.487176 297.537266 
L 357.075542 298.127065 
L 357.399144 298.088689 
L 357.737455 298.100577 
L 357.958093 298.376984 
L 358.296404 299.260241 
L 358.781806 300.414854 
L 358.973025 300.455947 
L 359.164245 300.205383 
L 359.473137 299.324358 
L 360.899927 294.688806 
L 361.164692 294.531344 
L 361.414748 294.671953 
L 362.047242 295.109658 
L 362.988629 295.302732 
L 363.297521 295.271171 
L 363.606414 294.976996 
L 364.430128 294.040757 
L 364.621347 294.213565 
L 364.871403 294.80275 
L 365.253841 296.373669 
L 366.151101 300.28541 
L 366.327611 300.332758 
L 366.489411 300.051288 
L 366.783595 298.970592 
L 367.298416 297.200491 
L 367.504344 297.082967 
L 367.680854 297.287674 
L 368.019165 298.153264 
L 368.489859 299.176345 
L 368.798751 299.36296 
L 369.284154 299.576594 
L 369.607756 300.051823 
L 370.049031 301.159141 
L 370.637397 302.576343 
L 370.813908 302.576435 
L 370.990418 302.262099 
L 371.29931 301.114225 
L 371.784713 299.469293 
L 371.961223 299.409367 
L 372.123024 299.660418 
L 372.417207 300.648009 
L 373.034992 302.685605 
L 373.343885 303.022977 
L 374.049925 303.529924 
L 374.535328 303.952345 
L 374.726547 303.84776 
L 374.961894 303.413912 
L 375.491424 301.767123 
L 375.859153 301.046924 
L 376.079791 300.996652 
L 376.315137 301.199636 
L 376.756412 301.945116 
L 377.712508 303.561811 
L 378.109656 303.81784 
L 378.433258 303.778671 
L 378.815696 303.467164 
L 379.521736 302.877689 
L 379.933593 302.868351 
L 380.683761 302.898616 
L 380.992653 302.621787 
L 381.433929 301.847211 
L 381.919331 301.136912 
L 382.242933 301.02936 
L 382.713626 301.15216 
L 383.066646 301.448026 
L 383.419667 302.093781 
L 384.199253 303.602073 
L 384.478727 303.697668 
L 384.787619 303.544979 
L 385.596624 302.751363 
L 386.464465 302.032194 
L 386.861612 302.07432 
L 387.405852 302.081737 
L 387.744163 302.173111 
L 388.038346 302.526166 
L 389.553391 304.80581 
L 389.876992 304.861982 
L 390.156467 304.663985 
L 391.083144 303.761036 
L 391.377328 303.991008 
L 391.803894 304.29274 
L 392.009822 304.181639 
L 392.318715 303.695397 
L 392.715862 303.189985 
L 392.892372 303.265946 
L 393.127719 303.696808 
L 393.789632 305.066254 
L 393.966142 305.010291 
L 394.201488 304.614443 
L 395.142875 302.700272 
L 395.378222 302.73197 
L 395.481186 302.822321 
L 395.481186 302.822321 
" style="fill:none;stroke:#ff7f0e;stroke-linecap:square;stroke-width:1.5;"/>
   </g>
   <g id="patch_103">
    <path d="M 57.6 307.584 
L 57.6 41.472 
" style="fill:none;stroke:#000000;stroke-linecap:square;stroke-linejoin:miter;stroke-width:0.8;"/>
   </g>
   <g id="patch_104">
    <path d="M 414.72 307.584 
L 414.72 41.472 
" style="fill:none;stroke:#000000;stroke-linecap:square;stroke-linejoin:miter;stroke-width:0.8;"/>
   </g>
   <g id="patch_105">
    <path d="M 57.6 307.584 
L 414.72 307.584 
" style="fill:none;stroke:#000000;stroke-linecap:square;stroke-linejoin:miter;stroke-width:0.8;"/>
   </g>
   <g id="patch_106">
    <path d="M 57.6 41.472 
L 414.72 41.472 
" style="fill:none;stroke:#000000;stroke-linecap:square;stroke-linejoin:miter;stroke-width:0.8;"/>
   </g>
  </g>
 </g>
 <defs>
  <clipPath id="pb342c8c2ba">
   <rect height="266.112" width="357.12" x="57.6" y="41.472"/>
  </clipPath>
 </defs>
</svg>
