<?xml version="1.0" encoding="utf-8" standalone="no"?>
<!DOCTYPE svg PUBLIC "-//W3C//DTD SVG 1.1//EN"
  "http://www.w3.org/Graphics/SVG/1.1/DTD/svg11.dtd">
<!-- Created with matplotlib (https://matplotlib.org/) -->
<svg height="345.6pt" version="1.1" viewBox="0 0 460.8 345.6" width="460.8pt" xmlns="http://www.w3.org/2000/svg" xmlns:xlink="http://www.w3.org/1999/xlink">
 <defs>
  <style type="text/css">
*{stroke-linecap:butt;stroke-linejoin:round;}
  </style>
 </defs>
 <g id="figure_1">
  <g id="patch_1">
   <path d="M 0 345.6 
L 460.8 345.6 
L 460.8 0 
L 0 0 
z
" style="fill:#ffffff;"/>
  </g>
  <g id="axes_1">
   <g id="patch_2">
    <path d="M 57.6 307.584 
L 414.72 307.584 
L 414.72 41.472 
L 57.6 41.472 
z
" style="fill:#ffffff;"/>
   </g>
   <g id="patch_3">
    <path clip-path="url(#p5579b99777)" d="M 73.832727 307.584 
L 77.07927 307.584 
L 77.07927 306.741205 
L 73.832727 306.741205 
z
" style="fill:#1f77b4;"/>
   </g>
   <g id="patch_4">
    <path clip-path="url(#p5579b99777)" d="M 77.079255 307.584 
L 80.325798 307.584 
L 80.325798 307.373301 
L 77.079255 307.373301 
z
" style="fill:#1f77b4;"/>
   </g>
   <g id="patch_5">
    <path clip-path="url(#p5579b99777)" d="M 80.325798 307.584 
L 83.572354 307.584 
L 83.572354 307.373302 
L 80.325798 307.373302 
z
" style="fill:#1f77b4;"/>
   </g>
   <g id="patch_6">
    <path clip-path="url(#p5579b99777)" d="M 83.572368 307.584 
L 86.81891 307.584 
L 86.81891 307.373301 
L 83.572368 307.373301 
z
" style="fill:#1f77b4;"/>
   </g>
   <g id="patch_7">
    <path clip-path="url(#p5579b99777)" d="M 86.818896 307.584 
L 90.065438 307.584 
L 90.065438 307.162603 
L 86.818896 307.162603 
z
" style="fill:#1f77b4;"/>
   </g>
   <g id="patch_8">
    <path clip-path="url(#p5579b99777)" d="M 90.065452 307.584 
L 93.311995 307.584 
L 93.311995 306.741205 
L 90.065452 306.741205 
z
" style="fill:#1f77b4;"/>
   </g>
   <g id="patch_9">
    <path clip-path="url(#p5579b99777)" d="M 93.311981 307.584 
L 96.558537 307.584 
L 96.558537 307.373302 
L 93.311981 307.373302 
z
" style="fill:#1f77b4;"/>
   </g>
   <g id="patch_10">
    <path clip-path="url(#p5579b99777)" d="M 96.558537 307.584 
L 99.805079 307.584 
L 99.805079 306.951904 
L 96.558537 306.951904 
z
" style="fill:#1f77b4;"/>
   </g>
   <g id="patch_11">
    <path clip-path="url(#p5579b99777)" d="M 99.805093 307.584 
L 103.051635 307.584 
L 103.051635 306.951904 
L 99.805093 306.951904 
z
" style="fill:#1f77b4;"/>
   </g>
   <g id="patch_12">
    <path clip-path="url(#p5579b99777)" d="M 103.051621 307.584 
L 106.298164 307.584 
L 106.298164 307.162603 
L 103.051621 307.162603 
z
" style="fill:#1f77b4;"/>
   </g>
   <g id="patch_13">
    <path clip-path="url(#p5579b99777)" d="M 106.298164 307.584 
L 109.54472 307.584 
L 109.54472 307.162604 
L 106.298164 307.162604 
z
" style="fill:#1f77b4;"/>
   </g>
   <g id="patch_14">
    <path clip-path="url(#p5579b99777)" d="M 109.544734 307.584 
L 112.791276 307.584 
L 112.791276 306.319808 
L 109.544734 306.319808 
z
" style="fill:#1f77b4;"/>
   </g>
   <g id="patch_15">
    <path clip-path="url(#p5579b99777)" d="M 112.791262 307.584 
L 116.037804 307.584 
L 116.037804 305.477013 
L 112.791262 305.477013 
z
" style="fill:#1f77b4;"/>
   </g>
   <g id="patch_16">
    <path clip-path="url(#p5579b99777)" d="M 116.037818 307.584 
L 119.284361 307.584 
L 119.284361 305.477013 
L 116.037818 305.477013 
z
" style="fill:#1f77b4;"/>
   </g>
   <g id="patch_17">
    <path clip-path="url(#p5579b99777)" d="M 119.284347 307.584 
L 122.530903 307.584 
L 122.530903 304.634231 
L 119.284347 304.634231 
z
" style="fill:#1f77b4;"/>
   </g>
   <g id="patch_18">
    <path clip-path="url(#p5579b99777)" d="M 122.530903 307.584 
L 125.777445 307.584 
L 125.777445 304.634218 
L 122.530903 304.634218 
z
" style="fill:#1f77b4;"/>
   </g>
   <g id="patch_19">
    <path clip-path="url(#p5579b99777)" d="M 125.777459 307.584 
L 129.024001 307.584 
L 129.024001 304.423519 
L 125.777459 304.423519 
z
" style="fill:#1f77b4;"/>
   </g>
   <g id="patch_20">
    <path clip-path="url(#p5579b99777)" d="M 129.023987 307.584 
L 132.270536 307.584 
L 132.270536 302.73794 
L 129.023987 302.73794 
z
" style="fill:#1f77b4;"/>
   </g>
   <g id="patch_21">
    <path clip-path="url(#p5579b99777)" d="M 132.270536 307.584 
L 135.517079 307.584 
L 135.517079 298.945353 
L 132.270536 298.945353 
z
" style="fill:#1f77b4;"/>
   </g>
   <g id="patch_22">
    <path clip-path="url(#p5579b99777)" d="M 135.517072 307.584 
L 138.763621 307.584 
L 138.763621 299.366768 
L 135.517072 299.366768 
z
" style="fill:#1f77b4;"/>
   </g>
   <g id="patch_23">
    <path clip-path="url(#p5579b99777)" d="M 138.763628 307.584 
L 142.01017 307.584 
L 142.01017 300.209545 
L 138.763628 300.209545 
z
" style="fill:#1f77b4;"/>
   </g>
   <g id="patch_24">
    <path clip-path="url(#p5579b99777)" d="M 142.01017 307.584 
L 145.256719 307.584 
L 145.256719 298.102578 
L 142.01017 298.102578 
z
" style="fill:#1f77b4;"/>
   </g>
   <g id="patch_25">
    <path clip-path="url(#p5579b99777)" d="M 145.256719 307.584 
L 148.503262 307.584 
L 148.503262 297.259763 
L 145.256719 297.259763 
z
" style="fill:#1f77b4;"/>
   </g>
   <g id="patch_26">
    <path clip-path="url(#p5579b99777)" d="M 148.503255 307.584 
L 151.749804 307.584 
L 151.749804 299.998863 
L 148.503255 299.998863 
z
" style="fill:#1f77b4;"/>
   </g>
   <g id="patch_27">
    <path clip-path="url(#p5579b99777)" d="M 151.749811 307.584 
L 154.996353 307.584 
L 154.996353 295.995571 
L 151.749811 295.995571 
z
" style="fill:#1f77b4;"/>
   </g>
   <g id="patch_28">
    <path clip-path="url(#p5579b99777)" d="M 154.996353 307.584 
L 158.242895 307.584 
L 158.242895 301.895135 
L 154.996353 301.895135 
z
" style="fill:#1f77b4;"/>
   </g>
   <g id="patch_29">
    <path clip-path="url(#p5579b99777)" d="M 158.242895 307.584 
L 161.489445 307.584 
L 161.489445 293.677915 
L 158.242895 293.677915 
z
" style="fill:#1f77b4;"/>
   </g>
   <g id="patch_30">
    <path clip-path="url(#p5579b99777)" d="M 161.489445 307.584 
L 164.735987 307.584 
L 164.735987 295.574173 
L 161.489445 295.574173 
z
" style="fill:#1f77b4;"/>
   </g>
   <g id="patch_31">
    <path clip-path="url(#p5579b99777)" d="M 164.73598 307.584 
L 167.982529 307.584 
L 167.982529 287.989062 
L 164.73598 287.989062 
z
" style="fill:#1f77b4;"/>
   </g>
   <g id="patch_32">
    <path clip-path="url(#p5579b99777)" d="M 167.982536 307.584 
L 171.229078 307.584 
L 171.229078 284.196443 
L 167.982536 284.196443 
z
" style="fill:#1f77b4;"/>
   </g>
   <g id="patch_33">
    <path clip-path="url(#p5579b99777)" d="M 171.229078 307.584 
L 174.475628 307.584 
L 174.475628 292.203027 
L 171.229078 292.203027 
z
" style="fill:#1f77b4;"/>
   </g>
   <g id="patch_34">
    <path clip-path="url(#p5579b99777)" d="M 174.475628 307.584 
L 177.72217 307.584 
L 177.72217 289.463911 
L 174.475628 289.463911 
z
" style="fill:#1f77b4;"/>
   </g>
   <g id="patch_35">
    <path clip-path="url(#p5579b99777)" d="M 177.722163 307.584 
L 180.968712 307.584 
L 180.968712 282.721606 
L 177.722163 282.721606 
z
" style="fill:#1f77b4;"/>
   </g>
   <g id="patch_36">
    <path clip-path="url(#p5579b99777)" d="M 180.968719 307.584 
L 184.215261 307.584 
L 184.215261 286.30343 
L 180.968719 286.30343 
z
" style="fill:#1f77b4;"/>
   </g>
   <g id="patch_37">
    <path clip-path="url(#p5579b99777)" d="M 184.215261 307.584 
L 187.46181 307.584 
L 187.46181 291.149536 
L 184.215261 291.149536 
z
" style="fill:#1f77b4;"/>
   </g>
   <g id="patch_38">
    <path clip-path="url(#p5579b99777)" d="M 187.46181 307.584 
L 190.708356 307.584 
L 190.708356 294.731392 
L 187.46181 294.731392 
z
" style="fill:#1f77b4;"/>
   </g>
   <g id="patch_39">
    <path clip-path="url(#p5579b99777)" d="M 190.70836 307.584 
L 193.954905 307.584 
L 193.954905 287.567644 
L 190.70836 287.567644 
z
" style="fill:#1f77b4;"/>
   </g>
   <g id="patch_40">
    <path clip-path="url(#p5579b99777)" d="M 193.954902 307.584 
L 197.201444 307.584 
L 197.201444 292.83509 
L 193.954902 292.83509 
z
" style="fill:#1f77b4;"/>
   </g>
   <g id="patch_41">
    <path clip-path="url(#p5579b99777)" d="M 197.201444 307.584 
L 200.44799 307.584 
L 200.44799 292.624408 
L 197.201444 292.624408 
z
" style="fill:#1f77b4;"/>
   </g>
   <g id="patch_42">
    <path clip-path="url(#p5579b99777)" d="M 200.447993 307.584 
L 203.694539 307.584 
L 203.694539 294.942091 
L 200.447993 294.942091 
z
" style="fill:#1f77b4;"/>
   </g>
   <g id="patch_43">
    <path clip-path="url(#p5579b99777)" d="M 203.694536 307.584 
L 206.941081 307.584 
L 206.941081 296.627679 
L 203.694536 296.627679 
z
" style="fill:#1f77b4;"/>
   </g>
   <g id="patch_44">
    <path clip-path="url(#p5579b99777)" d="M 206.941085 307.584 
L 210.187631 307.584 
L 210.187631 297.470473 
L 206.941085 297.470473 
z
" style="fill:#1f77b4;"/>
   </g>
   <g id="patch_45">
    <path clip-path="url(#p5579b99777)" d="M 210.187627 307.584 
L 213.434173 307.584 
L 213.434173 279.982498 
L 210.187627 279.982498 
z
" style="fill:#1f77b4;"/>
   </g>
   <g id="patch_46">
    <path clip-path="url(#p5579b99777)" d="M 213.434176 307.584 
L 216.680722 307.584 
L 216.680722 266.919192 
L 213.434176 266.919192 
z
" style="fill:#1f77b4;"/>
   </g>
   <g id="patch_47">
    <path clip-path="url(#p5579b99777)" d="M 216.680719 307.584 
L 219.927264 307.584 
L 219.927264 268.60478 
L 216.680719 268.60478 
z
" style="fill:#1f77b4;"/>
   </g>
   <g id="patch_48">
    <path clip-path="url(#p5579b99777)" d="M 219.927264 307.584 
L 223.17381 307.584 
L 223.17381 273.661544 
L 219.927264 273.661544 
z
" style="fill:#1f77b4;"/>
   </g>
   <g id="patch_49">
    <path clip-path="url(#p5579b99777)" d="M 223.17381 307.584 
L 226.420356 307.584 
L 226.420356 276.400624 
L 223.17381 276.400624 
z
" style="fill:#1f77b4;"/>
   </g>
   <g id="patch_50">
    <path clip-path="url(#p5579b99777)" d="M 226.420356 307.584 
L 229.666902 307.584 
L 229.666902 267.129891 
L 226.420356 267.129891 
z
" style="fill:#1f77b4;"/>
   </g>
   <g id="patch_51">
    <path clip-path="url(#p5579b99777)" d="M 229.666902 307.584 
L 232.913447 307.584 
L 232.913447 252.170298 
L 229.666902 252.170298 
z
" style="fill:#1f77b4;"/>
   </g>
   <g id="patch_52">
    <path clip-path="url(#p5579b99777)" d="M 232.913447 307.584 
L 236.159993 307.584 
L 236.159993 232.786038 
L 232.913447 232.786038 
z
" style="fill:#1f77b4;"/>
   </g>
   <g id="patch_53">
    <path clip-path="url(#p5579b99777)" d="M 236.159993 307.584 
L 239.406539 307.584 
L 239.406539 219.301335 
L 236.159993 219.301335 
z
" style="fill:#1f77b4;"/>
   </g>
   <g id="patch_54">
    <path clip-path="url(#p5579b99777)" d="M 239.406539 307.584 
L 242.653084 307.584 
L 242.653084 185.168164 
L 239.406539 185.168164 
z
" style="fill:#1f77b4;"/>
   </g>
   <g id="patch_55">
    <path clip-path="url(#p5579b99777)" d="M 242.653084 307.584 
L 245.89963 307.584 
L 245.89963 160.937854 
L 242.653084 160.937854 
z
" style="fill:#1f77b4;"/>
   </g>
   <g id="patch_56">
    <path clip-path="url(#p5579b99777)" d="M 245.89963 307.584 
L 249.146175 307.584 
L 249.146175 124.276318 
L 245.89963 124.276318 
z
" style="fill:#1f77b4;"/>
   </g>
   <g id="patch_57">
    <path clip-path="url(#p5579b99777)" d="M 249.146175 307.584 
L 252.392721 307.584 
L 252.392721 132.493535 
L 249.146175 132.493535 
z
" style="fill:#1f77b4;"/>
   </g>
   <g id="patch_58">
    <path clip-path="url(#p5579b99777)" d="M 252.392721 307.584 
L 255.639267 307.584 
L 255.639267 135.021941 
L 252.392721 135.021941 
z
" style="fill:#1f77b4;"/>
   </g>
   <g id="patch_59">
    <path clip-path="url(#p5579b99777)" d="M 255.639267 307.584 
L 258.885812 307.584 
L 258.885812 166.416015 
L 255.639267 166.416015 
z
" style="fill:#1f77b4;"/>
   </g>
   <g id="patch_60">
    <path clip-path="url(#p5579b99777)" d="M 258.885812 307.584 
L 262.132358 307.584 
L 262.132358 170.208588 
L 258.885812 170.208588 
z
" style="fill:#1f77b4;"/>
   </g>
   <g id="patch_61">
    <path clip-path="url(#p5579b99777)" d="M 262.132357 307.584 
L 265.378901 307.584 
L 265.378901 212.980355 
L 262.132357 212.980355 
z
" style="fill:#1f77b4;"/>
   </g>
   <g id="patch_62">
    <path clip-path="url(#p5579b99777)" d="M 265.378903 307.584 
L 268.625449 307.584 
L 268.625449 259.544745 
L 265.378903 259.544745 
z
" style="fill:#1f77b4;"/>
   </g>
   <g id="patch_63">
    <path clip-path="url(#p5579b99777)" d="M 268.625449 307.584 
L 271.871994 307.584 
L 271.871994 270.501067 
L 268.625449 270.501067 
z
" style="fill:#1f77b4;"/>
   </g>
   <g id="patch_64">
    <path clip-path="url(#p5579b99777)" d="M 271.871994 307.584 
L 275.11854 307.584 
L 275.11854 263.969414 
L 271.871994 263.969414 
z
" style="fill:#1f77b4;"/>
   </g>
   <g id="patch_65">
    <path clip-path="url(#p5579b99777)" d="M 275.118542 307.584 
L 278.365084 307.584 
L 278.365084 272.608033 
L 275.118542 272.608033 
z
" style="fill:#1f77b4;"/>
   </g>
   <g id="patch_66">
    <path clip-path="url(#p5579b99777)" d="M 278.365084 307.584 
L 281.61163 307.584 
L 281.61163 271.554559 
L 278.365084 271.554559 
z
" style="fill:#1f77b4;"/>
   </g>
   <g id="patch_67">
    <path clip-path="url(#p5579b99777)" d="M 281.611633 307.584 
L 284.858179 307.584 
L 284.858179 277.243418 
L 281.611633 277.243418 
z
" style="fill:#1f77b4;"/>
   </g>
   <g id="patch_68">
    <path clip-path="url(#p5579b99777)" d="M 284.858176 307.584 
L 288.104721 307.584 
L 288.104721 280.825292 
L 284.858176 280.825292 
z
" style="fill:#1f77b4;"/>
   </g>
   <g id="patch_69">
    <path clip-path="url(#p5579b99777)" d="M 288.104725 307.584 
L 291.35127 307.584 
L 291.35127 288.199739 
L 288.104725 288.199739 
z
" style="fill:#1f77b4;"/>
   </g>
   <g id="patch_70">
    <path clip-path="url(#p5579b99777)" d="M 291.351267 307.584 
L 294.597813 307.584 
L 294.597813 284.196468 
L 291.351267 284.196468 
z
" style="fill:#1f77b4;"/>
   </g>
   <g id="patch_71">
    <path clip-path="url(#p5579b99777)" d="M 294.597816 307.584 
L 297.844362 307.584 
L 297.844362 284.407167 
L 294.597816 284.407167 
z
" style="fill:#1f77b4;"/>
   </g>
   <g id="patch_72">
    <path clip-path="url(#p5579b99777)" d="M 297.844358 307.584 
L 301.090904 307.584 
L 301.090904 290.517423 
L 297.844358 290.517423 
z
" style="fill:#1f77b4;"/>
   </g>
   <g id="patch_73">
    <path clip-path="url(#p5579b99777)" d="M 301.090908 307.584 
L 304.337453 307.584 
L 304.337453 288.199739 
L 301.090908 288.199739 
z
" style="fill:#1f77b4;"/>
   </g>
   <g id="patch_74">
    <path clip-path="url(#p5579b99777)" d="M 304.33745 307.584 
L 307.583999 307.584 
L 307.583999 291.149536 
L 304.33745 291.149536 
z
" style="fill:#1f77b4;"/>
   </g>
   <g id="patch_75">
    <path clip-path="url(#p5579b99777)" d="M 307.583999 307.584 
L 310.830541 307.584 
L 310.830541 284.61784 
L 307.583999 284.61784 
z
" style="fill:#1f77b4;"/>
   </g>
   <g id="patch_76">
    <path clip-path="url(#p5579b99777)" d="M 310.830534 307.584 
L 314.077084 307.584 
L 314.077084 281.457416 
L 310.830534 281.457416 
z
" style="fill:#1f77b4;"/>
   </g>
   <g id="patch_77">
    <path clip-path="url(#p5579b99777)" d="M 314.077091 307.584 
L 317.323633 307.584 
L 317.323633 293.677885 
L 314.077091 293.677885 
z
" style="fill:#1f77b4;"/>
   </g>
   <g id="patch_78">
    <path clip-path="url(#p5579b99777)" d="M 317.323633 307.584 
L 320.570175 307.584 
L 320.570175 294.309981 
L 317.323633 294.309981 
z
" style="fill:#1f77b4;"/>
   </g>
   <g id="patch_79">
    <path clip-path="url(#p5579b99777)" d="M 320.570175 307.584 
L 323.816724 307.584 
L 323.816724 291.570932 
L 320.570175 291.570932 
z
" style="fill:#1f77b4;"/>
   </g>
   <g id="patch_80">
    <path clip-path="url(#p5579b99777)" d="M 323.816724 307.584 
L 327.063267 307.584 
L 327.063267 294.731379 
L 323.816724 294.731379 
z
" style="fill:#1f77b4;"/>
   </g>
   <g id="patch_81">
    <path clip-path="url(#p5579b99777)" d="M 327.06326 307.584 
L 330.309809 307.584 
L 330.309809 289.885346 
L 327.06326 289.885346 
z
" style="fill:#1f77b4;"/>
   </g>
   <g id="patch_82">
    <path clip-path="url(#p5579b99777)" d="M 330.309816 307.584 
L 333.556358 307.584 
L 333.556358 291.570898 
L 330.309816 291.570898 
z
" style="fill:#1f77b4;"/>
   </g>
   <g id="patch_83">
    <path clip-path="url(#p5579b99777)" d="M 333.556358 307.584 
L 336.802907 307.584 
L 336.802907 292.624424 
L 333.556358 292.624424 
z
" style="fill:#1f77b4;"/>
   </g>
   <g id="patch_84">
    <path clip-path="url(#p5579b99777)" d="M 336.802907 307.584 
L 340.049449 307.584 
L 340.049449 297.681161 
L 336.802907 297.681161 
z
" style="fill:#1f77b4;"/>
   </g>
   <g id="patch_85">
    <path clip-path="url(#p5579b99777)" d="M 340.049442 307.584 
L 343.295992 307.584 
L 343.295992 296.627691 
L 340.049442 296.627691 
z
" style="fill:#1f77b4;"/>
   </g>
   <g id="patch_86">
    <path clip-path="url(#p5579b99777)" d="M 343.295999 307.584 
L 346.542541 307.584 
L 346.542541 297.470462 
L 343.295999 297.470462 
z
" style="fill:#1f77b4;"/>
   </g>
   <g id="patch_87">
    <path clip-path="url(#p5579b99777)" d="M 346.542541 307.584 
L 349.78909 307.584 
L 349.78909 293.888613 
L 346.542541 293.888613 
z
" style="fill:#1f77b4;"/>
   </g>
   <g id="patch_88">
    <path clip-path="url(#p5579b99777)" d="M 349.78909 307.584 
L 353.035632 307.584 
L 353.035632 294.099282 
L 349.78909 294.099282 
z
" style="fill:#1f77b4;"/>
   </g>
   <g id="patch_89">
    <path clip-path="url(#p5579b99777)" d="M 353.035625 307.584 
L 356.282175 307.584 
L 356.282175 293.256518 
L 353.035625 293.256518 
z
" style="fill:#1f77b4;"/>
   </g>
   <g id="patch_90">
    <path clip-path="url(#p5579b99777)" d="M 356.282182 307.584 
L 359.528724 307.584 
L 359.528724 299.577449 
L 356.282182 299.577449 
z
" style="fill:#1f77b4;"/>
   </g>
   <g id="patch_91">
    <path clip-path="url(#p5579b99777)" d="M 359.528724 307.584 
L 362.775273 307.584 
L 362.775273 297.049087 
L 359.528724 297.049087 
z
" style="fill:#1f77b4;"/>
   </g>
   <g id="patch_92">
    <path clip-path="url(#p5579b99777)" d="M 362.775273 307.584 
L 366.021815 307.584 
L 366.021815 296.838366 
L 362.775273 296.838366 
z
" style="fill:#1f77b4;"/>
   </g>
   <g id="patch_93">
    <path clip-path="url(#p5579b99777)" d="M 366.021808 307.584 
L 369.268365 307.584 
L 369.268365 300.209561 
L 366.021808 300.209561 
z
" style="fill:#1f77b4;"/>
   </g>
   <g id="patch_94">
    <path clip-path="url(#p5579b99777)" d="M 369.268365 307.584 
L 372.514907 307.584 
L 372.514907 300.420244 
L 369.268365 300.420244 
z
" style="fill:#1f77b4;"/>
   </g>
   <g id="patch_95">
    <path clip-path="url(#p5579b99777)" d="M 372.514921 307.584 
L 375.761463 307.584 
L 375.761463 303.791423 
L 372.514921 303.791423 
z
" style="fill:#1f77b4;"/>
   </g>
   <g id="patch_96">
    <path clip-path="url(#p5579b99777)" d="M 375.761449 307.584 
L 379.008005 307.584 
L 379.008005 301.684462 
L 375.761449 301.684462 
z
" style="fill:#1f77b4;"/>
   </g>
   <g id="patch_97">
    <path clip-path="url(#p5579b99777)" d="M 379.008005 307.584 
L 382.254548 307.584 
L 382.254548 303.580724 
L 379.008005 303.580724 
z
" style="fill:#1f77b4;"/>
   </g>
   <g id="patch_98">
    <path clip-path="url(#p5579b99777)" d="M 382.254562 307.584 
L 385.501104 307.584 
L 385.501104 303.791423 
L 382.254562 303.791423 
z
" style="fill:#1f77b4;"/>
   </g>
   <g id="patch_99">
    <path clip-path="url(#p5579b99777)" d="M 385.50109 307.584 
L 388.747632 307.584 
L 388.747632 303.580724 
L 385.50109 303.580724 
z
" style="fill:#1f77b4;"/>
   </g>
   <g id="patch_100">
    <path clip-path="url(#p5579b99777)" d="M 388.747632 307.584 
L 391.994188 307.584 
L 391.994188 305.266324 
L 388.747632 305.266324 
z
" style="fill:#1f77b4;"/>
   </g>
   <g id="patch_101">
    <path clip-path="url(#p5579b99777)" d="M 391.994202 307.584 
L 395.240745 307.584 
L 395.240745 304.844917 
L 391.994202 304.844917 
z
" style="fill:#1f77b4;"/>
   </g>
   <g id="patch_102">
    <path clip-path="url(#p5579b99777)" d="M 395.24073 307.584 
L 398.487273 307.584 
L 398.487273 305.266314 
L 395.24073 305.266314 
z
" style="fill:#1f77b4;"/>
   </g>
   <g id="matplotlib.axis_1">
    <g id="xtick_1">
     <g id="line2d_1">
      <defs>
       <path d="M 0 0 
L 0 3.5 
" id="m1f5da67a7c" style="stroke:#000000;stroke-width:0.8;"/>
      </defs>
      <g>
       <use style="stroke:#000000;stroke-width:0.8;" x="71.894147" xlink:href="#m1f5da67a7c" y="307.584"/>
      </g>
     </g>
     <g id="text_1">
      <!-- −3 -->
      <defs>
       <path d="M 10.59375 35.5 
L 73.1875 35.5 
L 73.1875 27.203125 
L 10.59375 27.203125 
z
" id="DejaVuSans-8722"/>
       <path d="M 40.578125 39.3125 
Q 47.65625 37.796875 51.625 33 
Q 55.609375 28.21875 55.609375 21.1875 
Q 55.609375 10.40625 48.1875 4.484375 
Q 40.765625 -1.421875 27.09375 -1.421875 
Q 22.515625 -1.421875 17.65625 -0.515625 
Q 12.796875 0.390625 7.625 2.203125 
L 7.625 11.71875 
Q 11.71875 9.328125 16.59375 8.109375 
Q 21.484375 6.890625 26.8125 6.890625 
Q 36.078125 6.890625 40.9375 10.546875 
Q 45.796875 14.203125 45.796875 21.1875 
Q 45.796875 27.640625 41.28125 31.265625 
Q 36.765625 34.90625 28.71875 34.90625 
L 20.21875 34.90625 
L 20.21875 43.015625 
L 29.109375 43.015625 
Q 36.375 43.015625 40.234375 45.921875 
Q 44.09375 48.828125 44.09375 54.296875 
Q 44.09375 59.90625 40.109375 62.90625 
Q 36.140625 65.921875 28.71875 65.921875 
Q 24.65625 65.921875 20.015625 65.03125 
Q 15.375 64.15625 9.8125 62.3125 
L 9.8125 71.09375 
Q 15.4375 72.65625 20.34375 73.4375 
Q 25.25 74.21875 29.59375 74.21875 
Q 40.828125 74.21875 47.359375 69.109375 
Q 53.90625 64.015625 53.90625 55.328125 
Q 53.90625 49.265625 50.4375 45.09375 
Q 46.96875 40.921875 40.578125 39.3125 
z
" id="DejaVuSans-51"/>
      </defs>
      <g transform="translate(59.363288 327.501344)scale(0.17 -0.17)">
       <use xlink:href="#DejaVuSans-8722"/>
       <use x="83.789062" xlink:href="#DejaVuSans-51"/>
      </g>
     </g>
    </g>
    <g id="xtick_2">
     <g id="line2d_2">
      <g>
       <use style="stroke:#000000;stroke-width:0.8;" x="130.730829" xlink:href="#m1f5da67a7c" y="307.584"/>
      </g>
     </g>
     <g id="text_2">
      <!-- −2 -->
      <defs>
       <path d="M 19.1875 8.296875 
L 53.609375 8.296875 
L 53.609375 0 
L 7.328125 0 
L 7.328125 8.296875 
Q 12.9375 14.109375 22.625 23.890625 
Q 32.328125 33.6875 34.8125 36.53125 
Q 39.546875 41.84375 41.421875 45.53125 
Q 43.3125 49.21875 43.3125 52.78125 
Q 43.3125 58.59375 39.234375 62.25 
Q 35.15625 65.921875 28.609375 65.921875 
Q 23.96875 65.921875 18.8125 64.3125 
Q 13.671875 62.703125 7.8125 59.421875 
L 7.8125 69.390625 
Q 13.765625 71.78125 18.9375 73 
Q 24.125 74.21875 28.421875 74.21875 
Q 39.75 74.21875 46.484375 68.546875 
Q 53.21875 62.890625 53.21875 53.421875 
Q 53.21875 48.921875 51.53125 44.890625 
Q 49.859375 40.875 45.40625 35.40625 
Q 44.1875 33.984375 37.640625 27.21875 
Q 31.109375 20.453125 19.1875 8.296875 
z
" id="DejaVuSans-50"/>
      </defs>
      <g transform="translate(118.199969 327.501344)scale(0.17 -0.17)">
       <use xlink:href="#DejaVuSans-8722"/>
       <use x="83.789062" xlink:href="#DejaVuSans-50"/>
      </g>
     </g>
    </g>
    <g id="xtick_3">
     <g id="line2d_3">
      <g>
       <use style="stroke:#000000;stroke-width:0.8;" x="189.56751" xlink:href="#m1f5da67a7c" y="307.584"/>
      </g>
     </g>
     <g id="text_3">
      <!-- −1 -->
      <defs>
       <path d="M 12.40625 8.296875 
L 28.515625 8.296875 
L 28.515625 63.921875 
L 10.984375 60.40625 
L 10.984375 69.390625 
L 28.421875 72.90625 
L 38.28125 72.90625 
L 38.28125 8.296875 
L 54.390625 8.296875 
L 54.390625 0 
L 12.40625 0 
z
" id="DejaVuSans-49"/>
      </defs>
      <g transform="translate(177.036651 327.501344)scale(0.17 -0.17)">
       <use xlink:href="#DejaVuSans-8722"/>
       <use x="83.789062" xlink:href="#DejaVuSans-49"/>
      </g>
     </g>
    </g>
    <g id="xtick_4">
     <g id="line2d_4">
      <g>
       <use style="stroke:#000000;stroke-width:0.8;" x="248.404192" xlink:href="#m1f5da67a7c" y="307.584"/>
      </g>
     </g>
     <g id="text_4">
      <!-- 0 -->
      <defs>
       <path d="M 31.78125 66.40625 
Q 24.171875 66.40625 20.328125 58.90625 
Q 16.5 51.421875 16.5 36.375 
Q 16.5 21.390625 20.328125 13.890625 
Q 24.171875 6.390625 31.78125 6.390625 
Q 39.453125 6.390625 43.28125 13.890625 
Q 47.125 21.390625 47.125 36.375 
Q 47.125 51.421875 43.28125 58.90625 
Q 39.453125 66.40625 31.78125 66.40625 
z
M 31.78125 74.21875 
Q 44.046875 74.21875 50.515625 64.515625 
Q 56.984375 54.828125 56.984375 36.375 
Q 56.984375 17.96875 50.515625 8.265625 
Q 44.046875 -1.421875 31.78125 -1.421875 
Q 19.53125 -1.421875 13.0625 8.265625 
Q 6.59375 17.96875 6.59375 36.375 
Q 6.59375 54.828125 13.0625 64.515625 
Q 19.53125 74.21875 31.78125 74.21875 
z
" id="DejaVuSans-48"/>
      </defs>
      <g transform="translate(242.996067 327.501344)scale(0.17 -0.17)">
       <use xlink:href="#DejaVuSans-48"/>
      </g>
     </g>
    </g>
    <g id="xtick_5">
     <g id="line2d_5">
      <g>
       <use style="stroke:#000000;stroke-width:0.8;" x="307.240873" xlink:href="#m1f5da67a7c" y="307.584"/>
      </g>
     </g>
     <g id="text_5">
      <!-- 1 -->
      <g transform="translate(301.832748 327.501344)scale(0.17 -0.17)">
       <use xlink:href="#DejaVuSans-49"/>
      </g>
     </g>
    </g>
    <g id="xtick_6">
     <g id="line2d_6">
      <g>
       <use style="stroke:#000000;stroke-width:0.8;" x="366.077555" xlink:href="#m1f5da67a7c" y="307.584"/>
      </g>
     </g>
     <g id="text_6">
      <!-- 2 -->
      <g transform="translate(360.66943 327.501344)scale(0.17 -0.17)">
       <use xlink:href="#DejaVuSans-50"/>
      </g>
     </g>
    </g>
    <g id="text_7">
     <!-- Position in Radian -->
     <defs>
      <path d="M 19.671875 64.796875 
L 19.671875 37.40625 
L 32.078125 37.40625 
Q 38.96875 37.40625 42.71875 40.96875 
Q 46.484375 44.53125 46.484375 51.125 
Q 46.484375 57.671875 42.71875 61.234375 
Q 38.96875 64.796875 32.078125 64.796875 
z
M 9.8125 72.90625 
L 32.078125 72.90625 
Q 44.34375 72.90625 50.609375 67.359375 
Q 56.890625 61.8125 56.890625 51.125 
Q 56.890625 40.328125 50.609375 34.8125 
Q 44.34375 29.296875 32.078125 29.296875 
L 19.671875 29.296875 
L 19.671875 0 
L 9.8125 0 
z
" id="DejaVuSans-80"/>
      <path d="M 30.609375 48.390625 
Q 23.390625 48.390625 19.1875 42.75 
Q 14.984375 37.109375 14.984375 27.296875 
Q 14.984375 17.484375 19.15625 11.84375 
Q 23.34375 6.203125 30.609375 6.203125 
Q 37.796875 6.203125 41.984375 11.859375 
Q 46.1875 17.53125 46.1875 27.296875 
Q 46.1875 37.015625 41.984375 42.703125 
Q 37.796875 48.390625 30.609375 48.390625 
z
M 30.609375 56 
Q 42.328125 56 49.015625 48.375 
Q 55.71875 40.765625 55.71875 27.296875 
Q 55.71875 13.875 49.015625 6.21875 
Q 42.328125 -1.421875 30.609375 -1.421875 
Q 18.84375 -1.421875 12.171875 6.21875 
Q 5.515625 13.875 5.515625 27.296875 
Q 5.515625 40.765625 12.171875 48.375 
Q 18.84375 56 30.609375 56 
z
" id="DejaVuSans-111"/>
      <path d="M 44.28125 53.078125 
L 44.28125 44.578125 
Q 40.484375 46.53125 36.375 47.5 
Q 32.28125 48.484375 27.875 48.484375 
Q 21.1875 48.484375 17.84375 46.4375 
Q 14.5 44.390625 14.5 40.28125 
Q 14.5 37.15625 16.890625 35.375 
Q 19.28125 33.59375 26.515625 31.984375 
L 29.59375 31.296875 
Q 39.15625 29.25 43.1875 25.515625 
Q 47.21875 21.78125 47.21875 15.09375 
Q 47.21875 7.46875 41.1875 3.015625 
Q 35.15625 -1.421875 24.609375 -1.421875 
Q 20.21875 -1.421875 15.453125 -0.5625 
Q 10.6875 0.296875 5.421875 2 
L 5.421875 11.28125 
Q 10.40625 8.6875 15.234375 7.390625 
Q 20.0625 6.109375 24.8125 6.109375 
Q 31.15625 6.109375 34.5625 8.28125 
Q 37.984375 10.453125 37.984375 14.40625 
Q 37.984375 18.0625 35.515625 20.015625 
Q 33.0625 21.96875 24.703125 23.78125 
L 21.578125 24.515625 
Q 13.234375 26.265625 9.515625 29.90625 
Q 5.8125 33.546875 5.8125 39.890625 
Q 5.8125 47.609375 11.28125 51.796875 
Q 16.75 56 26.8125 56 
Q 31.78125 56 36.171875 55.265625 
Q 40.578125 54.546875 44.28125 53.078125 
z
" id="DejaVuSans-115"/>
      <path d="M 9.421875 54.6875 
L 18.40625 54.6875 
L 18.40625 0 
L 9.421875 0 
z
M 9.421875 75.984375 
L 18.40625 75.984375 
L 18.40625 64.59375 
L 9.421875 64.59375 
z
" id="DejaVuSans-105"/>
      <path d="M 18.3125 70.21875 
L 18.3125 54.6875 
L 36.8125 54.6875 
L 36.8125 47.703125 
L 18.3125 47.703125 
L 18.3125 18.015625 
Q 18.3125 11.328125 20.140625 9.421875 
Q 21.96875 7.515625 27.59375 7.515625 
L 36.8125 7.515625 
L 36.8125 0 
L 27.59375 0 
Q 17.1875 0 13.234375 3.875 
Q 9.28125 7.765625 9.28125 18.015625 
L 9.28125 47.703125 
L 2.6875 47.703125 
L 2.6875 54.6875 
L 9.28125 54.6875 
L 9.28125 70.21875 
z
" id="DejaVuSans-116"/>
      <path d="M 54.890625 33.015625 
L 54.890625 0 
L 45.90625 0 
L 45.90625 32.71875 
Q 45.90625 40.484375 42.875 44.328125 
Q 39.84375 48.1875 33.796875 48.1875 
Q 26.515625 48.1875 22.3125 43.546875 
Q 18.109375 38.921875 18.109375 30.90625 
L 18.109375 0 
L 9.078125 0 
L 9.078125 54.6875 
L 18.109375 54.6875 
L 18.109375 46.1875 
Q 21.34375 51.125 25.703125 53.5625 
Q 30.078125 56 35.796875 56 
Q 45.21875 56 50.046875 50.171875 
Q 54.890625 44.34375 54.890625 33.015625 
z
" id="DejaVuSans-110"/>
      <path id="DejaVuSans-32"/>
      <path d="M 44.390625 34.1875 
Q 47.5625 33.109375 50.5625 29.59375 
Q 53.5625 26.078125 56.59375 19.921875 
L 66.609375 0 
L 56 0 
L 46.6875 18.703125 
Q 43.0625 26.03125 39.671875 28.421875 
Q 36.28125 30.8125 30.421875 30.8125 
L 19.671875 30.8125 
L 19.671875 0 
L 9.8125 0 
L 9.8125 72.90625 
L 32.078125 72.90625 
Q 44.578125 72.90625 50.734375 67.671875 
Q 56.890625 62.453125 56.890625 51.90625 
Q 56.890625 45.015625 53.6875 40.46875 
Q 50.484375 35.9375 44.390625 34.1875 
z
M 19.671875 64.796875 
L 19.671875 38.921875 
L 32.078125 38.921875 
Q 39.203125 38.921875 42.84375 42.21875 
Q 46.484375 45.515625 46.484375 51.90625 
Q 46.484375 58.296875 42.84375 61.546875 
Q 39.203125 64.796875 32.078125 64.796875 
z
" id="DejaVuSans-82"/>
      <path d="M 34.28125 27.484375 
Q 23.390625 27.484375 19.1875 25 
Q 14.984375 22.515625 14.984375 16.5 
Q 14.984375 11.71875 18.140625 8.90625 
Q 21.296875 6.109375 26.703125 6.109375 
Q 34.1875 6.109375 38.703125 11.40625 
Q 43.21875 16.703125 43.21875 25.484375 
L 43.21875 27.484375 
z
M 52.203125 31.203125 
L 52.203125 0 
L 43.21875 0 
L 43.21875 8.296875 
Q 40.140625 3.328125 35.546875 0.953125 
Q 30.953125 -1.421875 24.3125 -1.421875 
Q 15.921875 -1.421875 10.953125 3.296875 
Q 6 8.015625 6 15.921875 
Q 6 25.140625 12.171875 29.828125 
Q 18.359375 34.515625 30.609375 34.515625 
L 43.21875 34.515625 
L 43.21875 35.40625 
Q 43.21875 41.609375 39.140625 45 
Q 35.0625 48.390625 27.6875 48.390625 
Q 23 48.390625 18.546875 47.265625 
Q 14.109375 46.140625 10.015625 43.890625 
L 10.015625 52.203125 
Q 14.9375 54.109375 19.578125 55.046875 
Q 24.21875 56 28.609375 56 
Q 40.484375 56 46.34375 49.84375 
Q 52.203125 43.703125 52.203125 31.203125 
z
" id="DejaVuSans-97"/>
      <path d="M 45.40625 46.390625 
L 45.40625 75.984375 
L 54.390625 75.984375 
L 54.390625 0 
L 45.40625 0 
L 45.40625 8.203125 
Q 42.578125 3.328125 38.25 0.953125 
Q 33.9375 -1.421875 27.875 -1.421875 
Q 17.96875 -1.421875 11.734375 6.484375 
Q 5.515625 14.40625 5.515625 27.296875 
Q 5.515625 40.1875 11.734375 48.09375 
Q 17.96875 56 27.875 56 
Q 33.9375 56 38.25 53.625 
Q 42.578125 51.265625 45.40625 46.390625 
z
M 14.796875 27.296875 
Q 14.796875 17.390625 18.875 11.75 
Q 22.953125 6.109375 30.078125 6.109375 
Q 37.203125 6.109375 41.296875 11.75 
Q 45.40625 17.390625 45.40625 27.296875 
Q 45.40625 37.203125 41.296875 42.84375 
Q 37.203125 48.484375 30.078125 48.484375 
Q 22.953125 48.484375 18.875 42.84375 
Q 14.796875 37.203125 14.796875 27.296875 
z
" id="DejaVuSans-100"/>
     </defs>
     <g transform="translate(102.024844 357.832125)scale(0.3 -0.3)">
      <use xlink:href="#DejaVuSans-80"/>
      <use x="60.255859" xlink:href="#DejaVuSans-111"/>
      <use x="121.4375" xlink:href="#DejaVuSans-115"/>
      <use x="173.537109" xlink:href="#DejaVuSans-105"/>
      <use x="201.320312" xlink:href="#DejaVuSans-116"/>
      <use x="240.529297" xlink:href="#DejaVuSans-105"/>
      <use x="268.3125" xlink:href="#DejaVuSans-111"/>
      <use x="329.494141" xlink:href="#DejaVuSans-110"/>
      <use x="392.873047" xlink:href="#DejaVuSans-32"/>
      <use x="424.660156" xlink:href="#DejaVuSans-105"/>
      <use x="452.443359" xlink:href="#DejaVuSans-110"/>
      <use x="515.822266" xlink:href="#DejaVuSans-32"/>
      <use x="547.609375" xlink:href="#DejaVuSans-82"/>
      <use x="617.060547" xlink:href="#DejaVuSans-97"/>
      <use x="678.339844" xlink:href="#DejaVuSans-100"/>
      <use x="741.816406" xlink:href="#DejaVuSans-105"/>
      <use x="769.599609" xlink:href="#DejaVuSans-97"/>
      <use x="830.878906" xlink:href="#DejaVuSans-110"/>
     </g>
    </g>
   </g>
   <g id="matplotlib.axis_2">
    <g id="ytick_1">
     <g id="line2d_7">
      <defs>
       <path d="M 0 0 
L -3.5 0 
" id="m18e0a640d9" style="stroke:#000000;stroke-width:0.8;"/>
      </defs>
      <g>
       <use style="stroke:#000000;stroke-width:0.8;" x="57.6" xlink:href="#m18e0a640d9" y="307.584"/>
      </g>
     </g>
     <g id="text_8">
      <!-- 0.0 -->
      <defs>
       <path d="M 10.6875 12.40625 
L 21 12.40625 
L 21 0 
L 10.6875 0 
z
" id="DejaVuSans-46"/>
      </defs>
      <g transform="translate(23.564687 314.042672)scale(0.17 -0.17)">
       <use xlink:href="#DejaVuSans-48"/>
       <use x="63.623047" xlink:href="#DejaVuSans-46"/>
       <use x="95.410156" xlink:href="#DejaVuSans-48"/>
      </g>
     </g>
    </g>
    <g id="ytick_2">
     <g id="line2d_8">
      <g>
       <use style="stroke:#000000;stroke-width:0.8;" x="57.6" xlink:href="#m18e0a640d9" y="234.920755"/>
      </g>
     </g>
     <g id="text_9">
      <!-- 0.5 -->
      <defs>
       <path d="M 10.796875 72.90625 
L 49.515625 72.90625 
L 49.515625 64.59375 
L 19.828125 64.59375 
L 19.828125 46.734375 
Q 21.96875 47.46875 24.109375 47.828125 
Q 26.265625 48.1875 28.421875 48.1875 
Q 40.625 48.1875 47.75 41.5 
Q 54.890625 34.8125 54.890625 23.390625 
Q 54.890625 11.625 47.5625 5.09375 
Q 40.234375 -1.421875 26.90625 -1.421875 
Q 22.3125 -1.421875 17.546875 -0.640625 
Q 12.796875 0.140625 7.71875 1.703125 
L 7.71875 11.625 
Q 12.109375 9.234375 16.796875 8.0625 
Q 21.484375 6.890625 26.703125 6.890625 
Q 35.15625 6.890625 40.078125 11.328125 
Q 45.015625 15.765625 45.015625 23.390625 
Q 45.015625 31 40.078125 35.4375 
Q 35.15625 39.890625 26.703125 39.890625 
Q 22.75 39.890625 18.8125 39.015625 
Q 14.890625 38.140625 10.796875 36.28125 
z
" id="DejaVuSans-53"/>
      </defs>
      <g transform="translate(23.564687 241.379427)scale(0.17 -0.17)">
       <use xlink:href="#DejaVuSans-48"/>
       <use x="63.623047" xlink:href="#DejaVuSans-46"/>
       <use x="95.410156" xlink:href="#DejaVuSans-53"/>
      </g>
     </g>
    </g>
    <g id="ytick_3">
     <g id="line2d_9">
      <g>
       <use style="stroke:#000000;stroke-width:0.8;" x="57.6" xlink:href="#m18e0a640d9" y="162.257511"/>
      </g>
     </g>
     <g id="text_10">
      <!-- 1.0 -->
      <g transform="translate(23.564687 168.716183)scale(0.17 -0.17)">
       <use xlink:href="#DejaVuSans-49"/>
       <use x="63.623047" xlink:href="#DejaVuSans-46"/>
       <use x="95.410156" xlink:href="#DejaVuSans-48"/>
      </g>
     </g>
    </g>
    <g id="ytick_4">
     <g id="line2d_10">
      <g>
       <use style="stroke:#000000;stroke-width:0.8;" x="57.6" xlink:href="#m18e0a640d9" y="89.594266"/>
      </g>
     </g>
     <g id="text_11">
      <!-- 1.5 -->
      <g transform="translate(23.564687 96.052938)scale(0.17 -0.17)">
       <use xlink:href="#DejaVuSans-49"/>
       <use x="63.623047" xlink:href="#DejaVuSans-46"/>
       <use x="95.410156" xlink:href="#DejaVuSans-53"/>
      </g>
     </g>
    </g>
    <g id="text_12">
     <!-- Density -->
     <defs>
      <path d="M 19.671875 64.796875 
L 19.671875 8.109375 
L 31.59375 8.109375 
Q 46.6875 8.109375 53.6875 14.9375 
Q 60.6875 21.78125 60.6875 36.53125 
Q 60.6875 51.171875 53.6875 57.984375 
Q 46.6875 64.796875 31.59375 64.796875 
z
M 9.8125 72.90625 
L 30.078125 72.90625 
Q 51.265625 72.90625 61.171875 64.09375 
Q 71.09375 55.28125 71.09375 36.53125 
Q 71.09375 17.671875 61.125 8.828125 
Q 51.171875 0 30.078125 0 
L 9.8125 0 
z
" id="DejaVuSans-68"/>
      <path d="M 56.203125 29.59375 
L 56.203125 25.203125 
L 14.890625 25.203125 
Q 15.484375 15.921875 20.484375 11.0625 
Q 25.484375 6.203125 34.421875 6.203125 
Q 39.59375 6.203125 44.453125 7.46875 
Q 49.3125 8.734375 54.109375 11.28125 
L 54.109375 2.78125 
Q 49.265625 0.734375 44.1875 -0.34375 
Q 39.109375 -1.421875 33.890625 -1.421875 
Q 20.796875 -1.421875 13.15625 6.1875 
Q 5.515625 13.8125 5.515625 26.8125 
Q 5.515625 40.234375 12.765625 48.109375 
Q 20.015625 56 32.328125 56 
Q 43.359375 56 49.78125 48.890625 
Q 56.203125 41.796875 56.203125 29.59375 
z
M 47.21875 32.234375 
Q 47.125 39.59375 43.09375 43.984375 
Q 39.0625 48.390625 32.421875 48.390625 
Q 24.90625 48.390625 20.390625 44.140625 
Q 15.875 39.890625 15.1875 32.171875 
z
" id="DejaVuSans-101"/>
      <path d="M 32.171875 -5.078125 
Q 28.375 -14.84375 24.75 -17.8125 
Q 21.140625 -20.796875 15.09375 -20.796875 
L 7.90625 -20.796875 
L 7.90625 -13.28125 
L 13.1875 -13.28125 
Q 16.890625 -13.28125 18.9375 -11.515625 
Q 21 -9.765625 23.484375 -3.21875 
L 25.09375 0.875 
L 2.984375 54.6875 
L 12.5 54.6875 
L 29.59375 11.921875 
L 46.6875 54.6875 
L 56.203125 54.6875 
z
" id="DejaVuSans-121"/>
     </defs>
     <g transform="translate(13.325625 231.553781)rotate(-90)scale(0.3 -0.3)">
      <use xlink:href="#DejaVuSans-68"/>
      <use x="77.001953" xlink:href="#DejaVuSans-101"/>
      <use x="138.525391" xlink:href="#DejaVuSans-110"/>
      <use x="201.904297" xlink:href="#DejaVuSans-115"/>
      <use x="254.003906" xlink:href="#DejaVuSans-105"/>
      <use x="281.787109" xlink:href="#DejaVuSans-116"/>
      <use x="320.996094" xlink:href="#DejaVuSans-121"/>
     </g>
    </g>
   </g>
   <g id="line2d_11">
    <path clip-path="url(#p5579b99777)" d="M 101.312488 306.90106 
L 101.900855 306.727697 
L 102.653964 306.784581 
L 104.242555 307.146916 
L 105.007432 307.404698 
L 105.45459 307.279924 
L 106.548953 306.874362 
L 107.525642 306.894296 
L 108.219914 307.096243 
L 108.808281 307.225482 
L 109.173069 307.048232 
L 110.66752 306.020147 
L 111.008773 306.090759 
L 111.397095 306.446156 
L 111.973695 306.938643 
L 112.30318 306.930816 
L 112.738572 306.669715 
L 113.326938 306.04359 
L 114.162419 305.152757 
L 114.597811 305.048936 
L 115.668638 305.126089 
L 116.05696 305.04059 
L 116.445282 304.670163 
L 116.833605 304.39953 
L 117.045417 304.510396 
L 117.327833 304.965479 
L 118.069175 306.24434 
L 118.363358 306.310451 
L 118.716378 306.128375 
L 119.434186 305.454342 
L 119.987251 305.008414 
L 120.246132 305.066524 
L 120.987474 305.420671 
L 121.222821 305.081771 
L 122.034767 303.683311 
L 122.246579 303.792578 
L 122.681971 304.387731 
L 123.093827 304.757329 
L 123.493917 304.792684 
L 125.329621 304.769493 
L 126.259241 305.167533 
L 126.553424 304.836296 
L 127.683089 303.294607 
L 127.94197 303.393139 
L 128.365594 303.874208 
L 128.753916 304.166444 
L 128.989263 304.082798 
L 129.283446 303.690324 
L 130.424878 301.879705 
L 130.707294 301.913342 
L 131.072081 302.212697 
L 131.74282 302.769081 
L 132.013468 302.694268 
L 132.307652 302.356498 
L 132.672439 301.56363 
L 133.837405 298.649449 
L 134.202193 298.568386 
L 134.61405 298.416999 
L 135.531902 297.841852 
L 135.790783 298.197705 
L 136.60273 299.464386 
L 136.920448 299.510741 
L 138.203087 299.403606 
L 138.603177 299.786219 
L 139.109172 300.613715 
L 139.744608 301.598023 
L 139.944653 301.583917 
L 140.144698 301.309876 
L 140.474183 300.381891 
L 141.015481 298.955103 
L 141.203758 298.928554 
L 141.392035 299.210012 
L 141.756823 300.303597 
L 142.215749 301.455955 
L 142.439328 301.552722 
L 142.627606 301.352344 
L 142.898254 300.659069 
L 143.40425 298.5842 
L 143.945547 296.69591 
L 144.251498 296.29795 
L 144.51038 296.284113 
L 145.004608 296.565221 
L 145.39293 296.649819 
L 145.710648 296.472967 
L 146.346084 296.079966 
L 146.6285 296.20739 
L 146.98152 296.643526 
L 147.452214 297.61643 
L 148.299462 299.394026 
L 148.770155 299.852098 
L 149.158477 299.953446 
L 149.593869 299.824304 
L 150.229305 299.374954 
L 151.100088 298.532015 
L 151.453108 297.697352 
L 152.19445 295.831202 
L 152.394495 295.830634 
L 152.641609 296.123996 
L 153.43002 297.172334 
L 153.841877 297.322582 
L 154.347873 297.473721 
L 154.583219 297.892157 
L 154.900937 299.0095 
L 155.548141 301.284012 
L 155.807022 301.492421 
L 156.12474 301.412754 
L 156.571899 301.361091 
L 157.124964 301.3388 
L 157.360311 301.052854 
L 157.619192 300.332936 
L 157.948678 298.661441 
L 158.807693 293.944499 
L 158.995971 293.830098 
L 159.160713 294.033318 
L 159.772615 295.015042 
L 159.784382 295.008505 
L 159.949125 294.764127 
L 160.255075 293.76512 
L 160.619863 292.839127 
L 160.761071 292.880968 
L 160.937581 293.295528 
L 161.831899 295.929428 
L 162.031943 295.776103 
L 162.632077 295.224389 
L 162.879191 295.337771 
L 163.561697 295.780744 
L 163.879415 295.567661 
L 164.267737 295.378149 
L 164.750198 295.265328 
L 164.950243 294.818554 
L 165.232659 293.52976 
L 166.279952 288.125775 
L 166.915388 285.880625 
L 167.727334 282.686261 
L 168.021517 282.33178 
L 168.280399 282.332294 
L 168.58635 282.577771 
L 168.927602 283.160319 
L 169.621875 284.421687 
L 169.833687 284.354023 
L 170.186707 284.219149 
L 170.339683 284.465739 
L 170.551495 285.311867 
L 170.975119 288.208125 
L 171.386976 290.326041 
L 171.610555 290.619704 
L 171.787065 290.531959 
L 172.304828 290.172162 
L 172.504873 290.368912 
L 172.822591 291.061589 
L 173.881651 293.60114 
L 174.058161 293.560855 
L 174.234671 293.228211 
L 174.493552 292.190437 
L 175.399637 288.031066 
L 175.517311 288.12208 
L 175.705588 288.658253 
L 176.529302 291.617158 
L 176.552836 291.609226 
L 176.694044 291.405431 
L 176.929391 290.553209 
L 177.870778 286.635212 
L 178.694491 285.012596 
L 180.318384 280.282722 
L 180.765543 279.670289 
L 180.989122 279.652396 
L 181.189167 279.8943 
L 181.448048 280.642271 
L 181.83637 282.592287 
L 182.824827 287.751383 
L 183.354357 289.383717 
L 183.625005 289.674679 
L 183.82505 289.593393 
L 184.201605 289.077771 
L 184.507556 288.847347 
L 184.695833 288.977496 
L 184.942947 289.505287 
L 186.060844 292.402056 
L 186.69628 292.772283 
L 187.0493 293.520792 
L 187.567063 294.51366 
L 187.814177 294.576679 
L 188.096593 294.370913 
L 188.614356 294.003614 
L 188.849703 294.107536 
L 189.167421 294.548818 
L 189.61458 295.094323 
L 189.767555 295.001489 
L 189.955832 294.550738 
L 190.226481 293.189895 
L 191.332611 286.670754 
L 191.473819 286.729078 
L 191.685631 287.164125 
L 192.356369 288.691722 
L 192.544646 288.657387 
L 192.874132 288.259404 
L 193.133013 288.11662 
L 193.297756 288.291658 
L 193.533103 288.963837 
L 194.027331 291.29954 
L 194.556861 293.331108 
L 194.992252 294.195333 
L 195.321738 294.455961 
L 195.53355 294.385747 
L 195.768896 294.02722 
L 196.192521 292.834798 
L 196.533773 292.170468 
L 196.698516 292.198995 
L 196.898561 292.548074 
L 197.498695 293.732415 
L 197.639903 293.613367 
L 197.863482 293.039212 
L 198.769567 290.289358 
L 198.957845 290.304166 
L 199.157889 290.599826 
L 199.46384 291.539106 
L 200.205182 293.939883 
L 200.369925 293.944627 
L 200.558202 293.646485 
L 201.27601 292.162065 
L 201.299544 292.17564 
L 201.45252 292.415834 
L 201.711401 293.334905 
L 202.535115 296.534008 
L 202.888135 296.988835 
L 203.299992 297.165854 
L 203.700081 297.103184 
L 204.311983 296.980255 
L 204.747374 297.232506 
L 205.123929 297.340722 
L 205.406345 297.181523 
L 205.7829 296.670335 
L 206.359499 295.925435 
L 206.547776 295.98699 
L 206.771356 296.360882 
L 207.606837 298.054494 
L 207.783347 297.85294 
L 208.195204 296.893403 
L 208.536456 296.386831 
L 208.771803 296.386273 
L 209.18366 296.447642 
L 209.348403 296.128885 
L 209.560215 295.132348 
L 209.854398 292.474726 
L 210.889924 281.81081 
L 211.078201 281.610026 
L 211.242944 281.783983 
L 211.678335 282.30645 
L 211.83131 282.135836 
L 212.05489 281.453899 
L 213.149252 277.474808 
L 213.443436 276.475566 
L 213.737619 274.554122 
L 214.302451 268.873335 
L 214.74961 265.585498 
L 215.185001 264.044681 
L 215.726299 262.801934 
L 215.891042 262.803402 
L 216.067552 263.105995 
L 216.397037 264.261873 
L 217.79735 269.49929 
L 217.985627 269.59718 
L 218.15037 269.372471 
L 218.774039 268.192668 
L 218.809341 268.216349 
L 218.974084 268.515064 
L 219.291802 269.697124 
L 219.78603 271.305166 
L 220.739184 273.31333 
L 221.080437 273.953061 
L 221.280482 273.946054 
L 221.833546 273.714851 
L 222.045358 274.066972 
L 222.504285 275.423219 
L 223.751622 278.962219 
L 223.928132 278.954519 
L 224.139944 278.661193 
L 224.704776 277.313941 
L 225.363747 275.393605 
L 227.022942 269.083806 
L 227.634843 267.013749 
L 228.129071 266.14243 
L 228.717438 265.078483 
L 229.035156 263.970139 
L 229.376409 261.860499 
L 231.000301 250.100567 
L 231.235648 249.672139 
L 231.353321 249.771633 
L 231.541599 250.330374 
L 232.118198 252.227669 
L 232.224104 252.069643 
L 232.388847 251.309773 
L 232.647728 248.863293 
L 233.153724 241.347708 
L 233.659719 235.258939 
L 233.989205 233.622288 
L 234.71878 231.10549 
L 235.318914 228.537472 
L 235.60133 228.208954 
L 235.919048 227.911284 
L 236.142627 227.277427 
L 236.566251 225.172638 
L 236.954573 223.769262 
L 237.213455 223.53397 
L 237.519406 223.323294 
L 237.731218 222.773283 
L 238.025401 221.238822 
L 238.460793 217.625235 
L 238.931486 211.787301 
L 239.496318 201.480109 
L 240.084685 191.971272 
L 240.367101 190.266202 
L 240.59068 189.95523 
L 240.826027 189.714249 
L 241.002537 189.083018 
L 241.237884 187.280517 
L 241.602671 182.460205 
L 242.75587 165.835509 
L 242.920613 165.547487 
L 242.93238 165.553169 
L 243.050054 165.758679 
L 243.450143 166.765564 
L 243.497212 166.708016 
L 243.614886 166.237098 
L 243.803163 164.387774 
L 244.156183 158.08187 
L 244.579807 151.844615 
L 244.697481 151.483506 
L 244.732783 151.519874 
L 244.838689 152.023655 
L 245.038734 154.43536 
L 245.427056 162.574922 
L 246.109561 176.076939 
L 246.427279 178.657782 
L 246.544953 178.845165 
L 246.580255 178.810656 
L 246.686161 178.423355 
L 246.850903 176.781785 
L 247.062715 171.940241 
L 247.309829 160.11113 
L 247.61578 132.760805 
L 248.415959 54.344903 
L 248.451261 54.144 
L 248.49833 54.529365 
L 248.616004 58.61039 
L 248.839583 76.182149 
L 249.580925 139.170746 
L 249.839807 144.876525 
L 249.969247 145.359309 
L 250.004549 145.311575 
L 250.122223 144.763914 
L 250.416406 142.00803 
L 250.969471 134.720014 
L 251.522536 123.62391 
L 251.910858 117.95175 
L 252.028531 117.599341 
L 252.063833 117.644532 
L 252.169739 118.19351 
L 252.369784 120.732923 
L 253.393542 136.180474 
L 253.511216 136.314655 
L 253.546518 136.286069 
L 253.675958 135.941175 
L 253.923072 134.484238 
L 254.452603 131.381639 
L 254.523207 131.406361 
L 254.534974 131.427781 
L 254.652647 131.941198 
L 254.840925 133.991703 
L 255.135108 140.076286 
L 256.064728 161.047149 
L 256.323609 162.513647 
L 256.394213 162.538946 
L 256.429515 162.495655 
L 256.558956 162.038169 
L 256.794302 160.207327 
L 257.370902 155.58105 
L 257.441506 155.656011 
L 257.559179 156.308209 
L 257.759224 158.921693 
L 258.229918 169.119088 
L 258.594705 174.530687 
L 258.782982 175.2113 
L 258.79475 175.209376 
L 258.888888 175.038577 
L 259.088933 174.030785 
L 259.547859 171.799483 
L 259.689067 171.735581 
L 259.700835 171.744115 
L 259.865577 172.02862 
L 260.406875 173.08208 
L 260.571617 172.987649 
L 260.830499 172.497196 
L 261.336494 171.574056 
L 261.454168 171.690231 
L 261.607143 172.269273 
L 261.818955 174.182193 
L 262.101371 179.147437 
L 263.372243 205.259032 
L 263.842937 212.489816 
L 265.207948 236.375986 
L 265.94929 247.848384 
L 266.631796 257.284843 
L 267.843831 269.07087 
L 268.267455 271.765387 
L 268.502802 272.227522 
L 268.632243 272.13947 
L 268.82052 271.624013 
L 269.597164 268.898129 
L 269.632466 268.918009 
L 269.785442 269.203843 
L 270.10316 270.456132 
L 270.467947 271.559726 
L 270.609155 271.549981 
L 270.762131 271.193819 
L 271.009245 269.930607 
L 271.91533 264.661516 
L 272.04477 264.696831 
L 272.209513 265.114756 
L 272.586068 266.926342 
L 272.915553 268.005424 
L 273.056761 268.00652 
L 273.209737 267.678525 
L 273.527455 266.30394 
L 274.03345 264.37593 
L 274.339401 263.964014 
L 274.56298 263.965297 
L 274.774792 264.227949 
L 275.045441 265.007024 
L 275.457298 267.013354 
L 276.163338 271.692057 
L 276.645799 274.326785 
L 276.869378 274.639463 
L 277.010586 274.507839 
L 277.30477 273.783504 
L 277.61072 273.275609 
L 277.751928 273.371193 
L 277.951973 273.899696 
L 278.563875 275.749025 
L 278.575642 275.744753 
L 278.693315 275.566444 
L 278.89336 274.719461 
L 279.905351 269.436104 
L 280.117163 269.441356 
L 280.764367 269.871049 
L 280.987946 270.335885 
L 281.258595 271.524177 
L 281.693986 274.711482 
L 282.199982 277.920818 
L 282.447096 278.408693 
L 282.611838 278.356219 
L 282.87072 277.932199 
L 283.894478 275.594538 
L 284.471077 274.395193 
L 284.765261 274.210599 
L 285.000608 274.323116 
L 285.271256 274.737332 
L 285.612509 275.715942 
L 285.989064 277.562387 
L 286.553896 281.745763 
L 287.15403 285.58836 
L 287.695328 287.578971 
L 288.377833 289.382794 
L 288.636714 289.574035 
L 288.836759 289.442882 
L 289.178012 288.855195 
L 289.754611 287.958953 
L 290.754835 287.011649 
L 290.978414 287.126024 
L 291.755059 287.738998 
L 291.955103 287.371959 
L 292.261054 286.267657 
L 293.390718 281.684247 
L 293.555461 281.697611 
L 293.755506 281.998945 
L 294.485081 283.298055 
L 294.661591 283.16438 
L 294.967541 282.551207 
L 295.332329 281.968839 
L 295.485304 282.027057 
L 295.673582 282.422795 
L 296.014834 283.822782 
L 296.532597 285.745232 
L 296.791479 286.003474 
L 297.073895 285.933693 
L 297.332776 285.950057 
L 297.532821 286.232435 
L 297.791702 287.059346 
L 298.321232 289.750697 
L 298.721322 291.181819 
L 298.933134 291.333671 
L 299.109644 291.162568 
L 299.509733 290.318097 
L 299.909823 289.718197 
L 300.192239 289.645271 
L 300.921814 289.656 
L 301.15716 289.21516 
L 301.545482 287.901833 
L 302.075013 286.306523 
L 302.357429 286.031617 
L 302.569241 286.088444 
L 302.79282 286.406114 
L 303.063469 287.225312 
L 303.49886 289.431077 
L 304.016623 291.708362 
L 304.334341 292.221257 
L 304.910941 292.873664 
L 305.511075 293.741161 
L 305.675817 293.652282 
L 305.88763 293.211412 
L 306.19358 291.962234 
L 307.264408 287.045315 
L 307.558591 286.786058 
L 308.029285 286.482469 
L 308.335235 285.888326 
L 308.900068 284.136853 
L 309.311924 283.234015 
L 309.535504 283.166907 
L 309.782618 283.382195 
L 310.135638 283.637188 
L 310.300381 283.486018 
L 310.52396 282.884352 
L 310.982886 280.75927 
L 311.371208 279.477413 
L 311.559486 279.397386 
L 311.712461 279.623542 
L 311.971342 280.499275 
L 312.783289 283.526963 
L 313.124541 283.850253 
L 313.39519 284.204329 
L 313.654071 285.006212 
L 314.054161 287.142782 
L 314.689597 290.294813 
L 315.536845 293.660053 
L 315.960469 295.09796 
L 316.219351 295.331997 
L 317.301946 295.405112 
L 317.525525 294.948484 
L 317.925615 293.481525 
L 318.408075 291.995754 
L 318.619887 291.861698 
L 318.78463 292.035245 
L 319.031744 292.703687 
L 319.808388 295.062842 
L 319.937829 294.960597 
L 320.114339 294.452422 
L 320.42029 292.739385 
L 321.008657 289.500473 
L 321.173399 289.35873 
L 321.185167 289.366322 
L 321.314607 289.600982 
L 321.549954 290.630179 
L 322.350133 294.56266 
L 322.561945 294.688732 
L 322.76199 294.512264 
L 324.091699 292.890154 
L 324.315278 292.934226 
L 324.515323 293.256204 
L 324.785972 294.194511 
L 325.609685 297.366932 
L 325.762661 297.34987 
L 325.939171 297.034073 
L 326.280423 295.837197 
L 326.904092 293.767962 
L 327.869014 291.318544 
L 328.398544 290.133736 
L 329.010445 288.854915 
L 329.434069 288.081822 
L 329.587045 288.116116 
L 329.763555 288.458263 
L 330.057738 289.637316 
L 330.646105 291.944525 
L 330.893219 292.177473 
L 331.152101 292.10075 
L 331.587492 291.990413 
L 332.222928 291.997345 
L 332.458275 291.584932 
L 333.234919 289.88767 
L 333.258454 289.89916 
L 333.434964 290.145406 
L 334.176306 291.512183 
L 334.188073 291.505556 
L 334.376351 291.254333 
L 335.011787 290.201202 
L 335.023554 290.207186 
L 335.17653 290.424038 
L 335.411876 291.228766 
L 336.376798 295.034775 
L 336.682749 295.225878 
L 337.11814 295.466662 
L 337.612368 296.131381 
L 338.271339 296.861043 
L 338.683196 297.448288 
L 339.118587 298.536143 
L 339.695187 299.862998 
L 339.883464 299.898973 
L 340.059974 299.66059 
L 340.34239 298.795839 
L 341.04843 296.521033 
L 341.307312 296.357512 
L 341.989817 296.224554 
L 342.884135 295.480561 
L 343.225388 295.624302 
L 343.601942 296.033288 
L 343.978497 296.811889 
L 344.543329 298.621338 
L 344.990488 299.739479 
L 345.190533 299.798469 
L 345.367043 299.550917 
L 345.649459 298.661649 
L 346.296662 296.559307 
L 346.520242 296.452584 
L 346.755588 296.64379 
L 347.143911 296.929977 
L 347.320421 296.790891 
L 347.555767 296.258974 
L 349.556215 290.560842 
L 349.873933 290.126879 
L 350.085745 290.135855 
L 350.332859 290.412028 
L 350.721181 291.249065 
L 351.356617 293.207849 
L 352.509816 296.982628 
L 352.686326 296.971978 
L 352.874603 296.66168 
L 353.157019 295.652502 
L 353.980733 292.390758 
L 354.133708 292.417495 
L 354.321986 292.782578 
L 355.251605 295.090623 
L 355.263373 295.085417 
L 355.45165 294.859497 
L 356.110621 293.822812 
L 356.122388 293.829354 
L 356.287131 294.066263 
L 356.55778 294.953861 
L 357.346191 297.718806 
L 358.299345 299.714203 
L 358.781806 300.928964 
L 358.970084 300.976672 
L 359.158361 300.735343 
L 359.511381 299.800282 
L 360.146817 298.243087 
L 360.782253 297.30556 
L 361.088204 297.163889 
L 361.405922 297.290509 
L 361.806012 297.39848 
L 362.07666 297.196645 
L 362.900374 296.419021 
L 363.382835 296.454547 
L 364.583103 296.706956 
L 364.94789 297.266318 
L 365.406817 298.428954 
L 366.242297 300.628507 
L 366.430575 300.620275 
L 366.642387 300.323258 
L 367.348427 299.16691 
L 367.548472 299.264892 
L 367.86619 299.754133 
L 368.336883 300.377456 
L 368.595765 300.388635 
L 369.384176 300.224053 
L 369.878404 300.567951 
L 370.619746 301.053611 
L 370.843326 300.903762 
L 371.137509 300.360769 
L 371.655272 299.439124 
L 371.820015 299.498431 
L 372.02006 299.886681 
L 372.396614 301.248978 
L 372.926144 302.920929 
L 373.243862 303.283803 
L 373.96167 303.825349 
L 374.550037 304.475736 
L 374.726547 304.366622 
L 374.950126 303.897726 
L 375.314914 302.4907 
L 375.856211 300.591532 
L 376.079791 300.427423 
L 376.256301 300.584709 
L 376.574019 301.260277 
L 377.115316 302.315304 
L 377.4095 302.463581 
L 378.339119 302.596326 
L 379.680595 303.919734 
L 380.480774 304.098402 
L 380.845562 303.975394 
L 381.210349 303.590982 
L 381.998761 302.695754 
L 382.375315 302.664493 
L 382.916613 302.846764 
L 383.269633 303.21589 
L 384.38753 304.659143 
L 384.717015 304.585296 
L 385.364219 304.123754 
L 386.50565 303.403569 
L 387.505874 303.445664 
L 387.835359 303.574616 
L 388.200147 303.997473 
L 389.223905 305.291872 
L 389.718133 305.54118 
L 390.035851 305.473996 
L 390.412406 305.124632 
L 390.930169 304.702273 
L 391.212585 304.764819 
L 391.930393 305.07598 
L 392.201041 304.819526 
L 392.754106 304.276623 
L 392.954151 304.396508 
L 393.260102 304.921749 
L 393.742562 305.671532 
L 393.954374 305.656299 
L 394.201488 305.350389 
L 395.154643 303.9073 
L 395.413524 303.953936 
L 395.484128 304.004842 
L 395.484128 304.004842 
" style="fill:none;stroke:#ff7f0e;stroke-linecap:square;stroke-width:1.5;"/>
   </g>
   <g id="patch_103">
    <path d="M 57.6 307.584 
L 57.6 41.472 
" style="fill:none;stroke:#000000;stroke-linecap:square;stroke-linejoin:miter;stroke-width:0.8;"/>
   </g>
   <g id="patch_104">
    <path d="M 414.72 307.584 
L 414.72 41.472 
" style="fill:none;stroke:#000000;stroke-linecap:square;stroke-linejoin:miter;stroke-width:0.8;"/>
   </g>
   <g id="patch_105">
    <path d="M 57.6 307.584 
L 414.72 307.584 
" style="fill:none;stroke:#000000;stroke-linecap:square;stroke-linejoin:miter;stroke-width:0.8;"/>
   </g>
   <g id="patch_106">
    <path d="M 57.6 41.472 
L 414.72 41.472 
" style="fill:none;stroke:#000000;stroke-linecap:square;stroke-linejoin:miter;stroke-width:0.8;"/>
   </g>
  </g>
 </g>
 <defs>
  <clipPath id="p5579b99777">
   <rect height="266.112" width="357.12" x="57.6" y="41.472"/>
  </clipPath>
 </defs>
</svg>
