<?xml version="1.0" encoding="utf-8" standalone="no"?>
<!DOCTYPE svg PUBLIC "-//W3C//DTD SVG 1.1//EN"
  "http://www.w3.org/Graphics/SVG/1.1/DTD/svg11.dtd">
<!-- Created with matplotlib (https://matplotlib.org/) -->
<svg height="345.6pt" version="1.1" viewBox="0 0 460.8 345.6" width="460.8pt" xmlns="http://www.w3.org/2000/svg" xmlns:xlink="http://www.w3.org/1999/xlink">
 <defs>
  <style type="text/css">
*{stroke-linecap:butt;stroke-linejoin:round;}
  </style>
 </defs>
 <g id="figure_1">
  <g id="patch_1">
   <path d="M 0 345.6 
L 460.8 345.6 
L 460.8 0 
L 0 0 
z
" style="fill:#ffffff;"/>
  </g>
  <g id="axes_1">
   <g id="patch_2">
    <path d="M 57.6 307.584 
L 414.72 307.584 
L 414.72 41.472 
L 57.6 41.472 
z
" style="fill:#ffffff;"/>
   </g>
   <g id="patch_3">
    <path clip-path="url(#pfaa53ae4f0)" d="M 73.832727 307.584 
L 77.07927 307.584 
L 77.07927 306.879524 
L 73.832727 306.879524 
z
" style="fill:#1f77b4;"/>
   </g>
   <g id="patch_4">
    <path clip-path="url(#pfaa53ae4f0)" d="M 77.079255 307.584 
L 80.325798 307.584 
L 80.325798 307.407881 
L 77.079255 307.407881 
z
" style="fill:#1f77b4;"/>
   </g>
   <g id="patch_5">
    <path clip-path="url(#pfaa53ae4f0)" d="M 80.325798 307.584 
L 83.572354 307.584 
L 83.572354 307.407882 
L 80.325798 307.407882 
z
" style="fill:#1f77b4;"/>
   </g>
   <g id="patch_6">
    <path clip-path="url(#pfaa53ae4f0)" d="M 83.572368 307.584 
L 86.81891 307.584 
L 86.81891 307.407881 
L 83.572368 307.407881 
z
" style="fill:#1f77b4;"/>
   </g>
   <g id="patch_7">
    <path clip-path="url(#pfaa53ae4f0)" d="M 86.818896 307.584 
L 90.065438 307.584 
L 90.065438 307.231762 
L 86.818896 307.231762 
z
" style="fill:#1f77b4;"/>
   </g>
   <g id="patch_8">
    <path clip-path="url(#pfaa53ae4f0)" d="M 90.065452 307.584 
L 93.311995 307.584 
L 93.311995 306.879524 
L 90.065452 306.879524 
z
" style="fill:#1f77b4;"/>
   </g>
   <g id="patch_9">
    <path clip-path="url(#pfaa53ae4f0)" d="M 93.311981 307.584 
L 96.558537 307.584 
L 96.558537 307.407882 
L 93.311981 307.407882 
z
" style="fill:#1f77b4;"/>
   </g>
   <g id="patch_10">
    <path clip-path="url(#pfaa53ae4f0)" d="M 96.558537 307.584 
L 99.805079 307.584 
L 99.805079 307.055643 
L 96.558537 307.055643 
z
" style="fill:#1f77b4;"/>
   </g>
   <g id="patch_11">
    <path clip-path="url(#pfaa53ae4f0)" d="M 99.805093 307.584 
L 103.051635 307.584 
L 103.051635 307.055643 
L 99.805093 307.055643 
z
" style="fill:#1f77b4;"/>
   </g>
   <g id="patch_12">
    <path clip-path="url(#pfaa53ae4f0)" d="M 103.051621 307.584 
L 106.298164 307.584 
L 106.298164 306.527286 
L 103.051621 306.527286 
z
" style="fill:#1f77b4;"/>
   </g>
   <g id="patch_13">
    <path clip-path="url(#pfaa53ae4f0)" d="M 106.298164 307.584 
L 109.54472 307.584 
L 109.54472 304.237752 
L 106.298164 304.237752 
z
" style="fill:#1f77b4;"/>
   </g>
   <g id="patch_14">
    <path clip-path="url(#pfaa53ae4f0)" d="M 109.544734 307.584 
L 112.791276 307.584 
L 112.791276 305.470571 
L 109.544734 305.470571 
z
" style="fill:#1f77b4;"/>
   </g>
   <g id="patch_15">
    <path clip-path="url(#pfaa53ae4f0)" d="M 112.791262 307.584 
L 116.037804 307.584 
L 116.037804 305.470571 
L 112.791262 305.470571 
z
" style="fill:#1f77b4;"/>
   </g>
   <g id="patch_16">
    <path clip-path="url(#pfaa53ae4f0)" d="M 116.037818 307.584 
L 119.284361 307.584 
L 119.284361 305.470571 
L 116.037818 305.470571 
z
" style="fill:#1f77b4;"/>
   </g>
   <g id="patch_17">
    <path clip-path="url(#pfaa53ae4f0)" d="M 119.284347 307.584 
L 122.530903 307.584 
L 122.530903 304.061634 
L 119.284347 304.061634 
z
" style="fill:#1f77b4;"/>
   </g>
   <g id="patch_18">
    <path clip-path="url(#pfaa53ae4f0)" d="M 122.530903 307.584 
L 125.777445 307.584 
L 125.777445 300.539237 
L 122.530903 300.539237 
z
" style="fill:#1f77b4;"/>
   </g>
   <g id="patch_19">
    <path clip-path="url(#pfaa53ae4f0)" d="M 125.777459 307.584 
L 129.024001 307.584 
L 129.024001 299.130285 
L 125.777459 299.130285 
z
" style="fill:#1f77b4;"/>
   </g>
   <g id="patch_20">
    <path clip-path="url(#pfaa53ae4f0)" d="M 129.023987 307.584 
L 132.270536 307.584 
L 132.270536 300.89149 
L 129.023987 300.89149 
z
" style="fill:#1f77b4;"/>
   </g>
   <g id="patch_21">
    <path clip-path="url(#pfaa53ae4f0)" d="M 132.270536 307.584 
L 135.517079 307.584 
L 135.517079 298.778046 
L 132.270536 298.778046 
z
" style="fill:#1f77b4;"/>
   </g>
   <g id="patch_22">
    <path clip-path="url(#pfaa53ae4f0)" d="M 135.517072 307.584 
L 138.763621 307.584 
L 138.763621 297.897472 
L 135.517072 297.897472 
z
" style="fill:#1f77b4;"/>
   </g>
   <g id="patch_23">
    <path clip-path="url(#pfaa53ae4f0)" d="M 138.763628 307.584 
L 142.01017 307.584 
L 142.01017 297.192975 
L 138.763628 297.192975 
z
" style="fill:#1f77b4;"/>
   </g>
   <g id="patch_24">
    <path clip-path="url(#pfaa53ae4f0)" d="M 142.01017 307.584 
L 145.256719 307.584 
L 145.256719 295.960166 
L 142.01017 295.960166 
z
" style="fill:#1f77b4;"/>
   </g>
   <g id="patch_25">
    <path clip-path="url(#pfaa53ae4f0)" d="M 145.256719 307.584 
L 148.503262 307.584 
L 148.503262 295.431784 
L 145.256719 295.431784 
z
" style="fill:#1f77b4;"/>
   </g>
   <g id="patch_26">
    <path clip-path="url(#pfaa53ae4f0)" d="M 148.503255 307.584 
L 151.749804 307.584 
L 151.749804 294.903454 
L 148.503255 294.903454 
z
" style="fill:#1f77b4;"/>
   </g>
   <g id="patch_27">
    <path clip-path="url(#pfaa53ae4f0)" d="M 151.749811 307.584 
L 154.996353 307.584 
L 154.996353 295.255665 
L 151.749811 295.255665 
z
" style="fill:#1f77b4;"/>
   </g>
   <g id="patch_28">
    <path clip-path="url(#pfaa53ae4f0)" d="M 154.996353 307.584 
L 158.242895 307.584 
L 158.242895 302.124309 
L 154.996353 302.124309 
z
" style="fill:#1f77b4;"/>
   </g>
   <g id="patch_29">
    <path clip-path="url(#pfaa53ae4f0)" d="M 158.242895 307.584 
L 161.489445 307.584 
L 161.489445 295.43181 
L 158.242895 295.43181 
z
" style="fill:#1f77b4;"/>
   </g>
   <g id="patch_30">
    <path clip-path="url(#pfaa53ae4f0)" d="M 161.489445 307.584 
L 164.735987 307.584 
L 164.735987 293.494474 
L 161.489445 293.494474 
z
" style="fill:#1f77b4;"/>
   </g>
   <g id="patch_31">
    <path clip-path="url(#pfaa53ae4f0)" d="M 164.73598 307.584 
L 167.982529 307.584 
L 167.982529 288.563181 
L 164.73598 288.563181 
z
" style="fill:#1f77b4;"/>
   </g>
   <g id="patch_32">
    <path clip-path="url(#pfaa53ae4f0)" d="M 167.982536 307.584 
L 171.229078 307.584 
L 171.229078 287.330307 
L 167.982536 287.330307 
z
" style="fill:#1f77b4;"/>
   </g>
   <g id="patch_33">
    <path clip-path="url(#pfaa53ae4f0)" d="M 171.229078 307.584 
L 174.475628 307.584 
L 174.475628 292.79003 
L 171.229078 292.79003 
z
" style="fill:#1f77b4;"/>
   </g>
   <g id="patch_34">
    <path clip-path="url(#pfaa53ae4f0)" d="M 174.475628 307.584 
L 177.72217 307.584 
L 177.72217 286.449711 
L 174.475628 286.449711 
z
" style="fill:#1f77b4;"/>
   </g>
   <g id="patch_35">
    <path clip-path="url(#pfaa53ae4f0)" d="M 177.722163 307.584 
L 180.968712 307.584 
L 180.968712 280.813959 
L 177.722163 280.813959 
z
" style="fill:#1f77b4;"/>
   </g>
   <g id="patch_36">
    <path clip-path="url(#pfaa53ae4f0)" d="M 180.968719 307.584 
L 184.215261 307.584 
L 184.215261 286.625831 
L 180.968719 286.625831 
z
" style="fill:#1f77b4;"/>
   </g>
   <g id="patch_37">
    <path clip-path="url(#pfaa53ae4f0)" d="M 184.215261 307.584 
L 187.46181 307.584 
L 187.46181 288.563181 
L 184.215261 288.563181 
z
" style="fill:#1f77b4;"/>
   </g>
   <g id="patch_38">
    <path clip-path="url(#pfaa53ae4f0)" d="M 187.46181 307.584 
L 190.708356 307.584 
L 190.708356 293.318371 
L 187.46181 293.318371 
z
" style="fill:#1f77b4;"/>
   </g>
   <g id="patch_39">
    <path clip-path="url(#pfaa53ae4f0)" d="M 190.70836 307.584 
L 193.954905 307.584 
L 193.954905 288.210923 
L 190.70836 288.210923 
z
" style="fill:#1f77b4;"/>
   </g>
   <g id="patch_40">
    <path clip-path="url(#pfaa53ae4f0)" d="M 193.954902 307.584 
L 197.201444 307.584 
L 197.201444 291.028807 
L 193.954902 291.028807 
z
" style="fill:#1f77b4;"/>
   </g>
   <g id="patch_41">
    <path clip-path="url(#pfaa53ae4f0)" d="M 197.201444 307.584 
L 200.44799 307.584 
L 200.44799 287.506448 
L 197.201444 287.506448 
z
" style="fill:#1f77b4;"/>
   </g>
   <g id="patch_42">
    <path clip-path="url(#pfaa53ae4f0)" d="M 200.447993 307.584 
L 203.694539 307.584 
L 203.694539 286.978091 
L 200.447993 286.978091 
z
" style="fill:#1f77b4;"/>
   </g>
   <g id="patch_43">
    <path clip-path="url(#pfaa53ae4f0)" d="M 203.694536 307.584 
L 206.941081 307.584 
L 206.941081 293.49449 
L 203.694536 293.49449 
z
" style="fill:#1f77b4;"/>
   </g>
   <g id="patch_44">
    <path clip-path="url(#pfaa53ae4f0)" d="M 206.941085 307.584 
L 210.187631 307.584 
L 210.187631 297.016867 
L 206.941085 297.016867 
z
" style="fill:#1f77b4;"/>
   </g>
   <g id="patch_45">
    <path clip-path="url(#pfaa53ae4f0)" d="M 210.187627 307.584 
L 213.434173 307.584 
L 213.434173 281.518406 
L 210.187627 281.518406 
z
" style="fill:#1f77b4;"/>
   </g>
   <g id="patch_46">
    <path clip-path="url(#pfaa53ae4f0)" d="M 213.434176 307.584 
L 216.680722 307.584 
L 216.680722 267.428895 
L 213.434176 267.428895 
z
" style="fill:#1f77b4;"/>
   </g>
   <g id="patch_47">
    <path clip-path="url(#pfaa53ae4f0)" d="M 216.680719 307.584 
L 219.927264 307.584 
L 219.927264 270.951273 
L 216.680719 270.951273 
z
" style="fill:#1f77b4;"/>
   </g>
   <g id="patch_48">
    <path clip-path="url(#pfaa53ae4f0)" d="M 219.927264 307.584 
L 223.17381 307.584 
L 223.17381 274.47365 
L 219.927264 274.47365 
z
" style="fill:#1f77b4;"/>
   </g>
   <g id="patch_49">
    <path clip-path="url(#pfaa53ae4f0)" d="M 223.17381 307.584 
L 226.420356 307.584 
L 226.420356 277.819909 
L 223.17381 277.819909 
z
" style="fill:#1f77b4;"/>
   </g>
   <g id="patch_50">
    <path clip-path="url(#pfaa53ae4f0)" d="M 226.420356 307.584 
L 229.666902 307.584 
L 229.666902 261.088615 
L 226.420356 261.088615 
z
" style="fill:#1f77b4;"/>
   </g>
   <g id="patch_51">
    <path clip-path="url(#pfaa53ae4f0)" d="M 229.666902 307.584 
L 232.913447 307.584 
L 232.913447 248.231937 
L 229.666902 248.231937 
z
" style="fill:#1f77b4;"/>
   </g>
   <g id="patch_52">
    <path clip-path="url(#pfaa53ae4f0)" d="M 232.913447 307.584 
L 236.159993 307.584 
L 236.159993 236.255853 
L 232.913447 236.255853 
z
" style="fill:#1f77b4;"/>
   </g>
   <g id="patch_53">
    <path clip-path="url(#pfaa53ae4f0)" d="M 236.159993 307.584 
L 239.406539 307.584 
L 239.406539 223.223056 
L 236.159993 223.223056 
z
" style="fill:#1f77b4;"/>
   </g>
   <g id="patch_54">
    <path clip-path="url(#pfaa53ae4f0)" d="M 239.406539 307.584 
L 242.653084 307.584 
L 242.653084 191.697761 
L 239.406539 191.697761 
z
" style="fill:#1f77b4;"/>
   </g>
   <g id="patch_55">
    <path clip-path="url(#pfaa53ae4f0)" d="M 242.653084 307.584 
L 245.89963 307.584 
L 245.89963 163.694874 
L 242.653084 163.694874 
z
" style="fill:#1f77b4;"/>
   </g>
   <g id="patch_56">
    <path clip-path="url(#pfaa53ae4f0)" d="M 245.89963 307.584 
L 249.146175 307.584 
L 249.146175 121.426343 
L 245.89963 121.426343 
z
" style="fill:#1f77b4;"/>
   </g>
   <g id="patch_57">
    <path clip-path="url(#pfaa53ae4f0)" d="M 249.146175 307.584 
L 252.392721 307.584 
L 252.392721 142.560586 
L 249.146175 142.560586 
z
" style="fill:#1f77b4;"/>
   </g>
   <g id="patch_58">
    <path clip-path="url(#pfaa53ae4f0)" d="M 252.392721 307.584 
L 255.639267 307.584 
L 255.639267 148.372532 
L 252.392721 148.372532 
z
" style="fill:#1f77b4;"/>
   </g>
   <g id="patch_59">
    <path clip-path="url(#pfaa53ae4f0)" d="M 255.639267 307.584 
L 258.885812 307.584 
L 258.885812 173.205294 
L 255.639267 173.205294 
z
" style="fill:#1f77b4;"/>
   </g>
   <g id="patch_60">
    <path clip-path="url(#pfaa53ae4f0)" d="M 258.885812 307.584 
L 262.132358 307.584 
L 262.132358 179.897811 
L 258.885812 179.897811 
z
" style="fill:#1f77b4;"/>
   </g>
   <g id="patch_61">
    <path clip-path="url(#pfaa53ae4f0)" d="M 262.132357 307.584 
L 265.378901 307.584 
L 265.378901 213.008135 
L 262.132357 213.008135 
z
" style="fill:#1f77b4;"/>
   </g>
   <g id="patch_62">
    <path clip-path="url(#pfaa53ae4f0)" d="M 265.378903 307.584 
L 268.625449 307.584 
L 268.625449 258.975189 
L 265.378903 258.975189 
z
" style="fill:#1f77b4;"/>
   </g>
   <g id="patch_63">
    <path clip-path="url(#pfaa53ae4f0)" d="M 268.625449 307.584 
L 271.871994 307.584 
L 271.871994 271.127392 
L 268.625449 271.127392 
z
" style="fill:#1f77b4;"/>
   </g>
   <g id="patch_64">
    <path clip-path="url(#pfaa53ae4f0)" d="M 271.871994 307.584 
L 275.11854 307.584 
L 275.11854 263.730399 
L 271.871994 263.730399 
z
" style="fill:#1f77b4;"/>
   </g>
   <g id="patch_65">
    <path clip-path="url(#pfaa53ae4f0)" d="M 275.118542 307.584 
L 278.365084 307.584 
L 278.365084 265.843803 
L 275.118542 265.843803 
z
" style="fill:#1f77b4;"/>
   </g>
   <g id="patch_66">
    <path clip-path="url(#pfaa53ae4f0)" d="M 278.365084 307.584 
L 281.61163 307.584 
L 281.61163 261.96921 
L 278.365084 261.96921 
z
" style="fill:#1f77b4;"/>
   </g>
   <g id="patch_67">
    <path clip-path="url(#pfaa53ae4f0)" d="M 281.611633 307.584 
L 284.858179 307.584 
L 284.858179 269.894559 
L 281.611633 269.894559 
z
" style="fill:#1f77b4;"/>
   </g>
   <g id="patch_68">
    <path clip-path="url(#pfaa53ae4f0)" d="M 284.858176 307.584 
L 288.104721 307.584 
L 288.104721 280.637811 
L 284.858176 280.637811 
z
" style="fill:#1f77b4;"/>
   </g>
   <g id="patch_69">
    <path clip-path="url(#pfaa53ae4f0)" d="M 288.104725 307.584 
L 291.35127 307.584 
L 291.35127 291.204944 
L 288.104725 291.204944 
z
" style="fill:#1f77b4;"/>
   </g>
   <g id="patch_70">
    <path clip-path="url(#pfaa53ae4f0)" d="M 291.351267 307.584 
L 294.597813 307.584 
L 294.597813 286.625853 
L 291.351267 286.625853 
z
" style="fill:#1f77b4;"/>
   </g>
   <g id="patch_71">
    <path clip-path="url(#pfaa53ae4f0)" d="M 294.597816 307.584 
L 297.844362 307.584 
L 297.844362 281.694525 
L 294.597816 281.694525 
z
" style="fill:#1f77b4;"/>
   </g>
   <g id="patch_72">
    <path clip-path="url(#pfaa53ae4f0)" d="M 297.844358 307.584 
L 301.090904 307.584 
L 301.090904 285.921378 
L 297.844358 285.921378 
z
" style="fill:#1f77b4;"/>
   </g>
   <g id="patch_73">
    <path clip-path="url(#pfaa53ae4f0)" d="M 301.090908 307.584 
L 304.337453 307.584 
L 304.337453 287.330329 
L 301.090908 287.330329 
z
" style="fill:#1f77b4;"/>
   </g>
   <g id="patch_74">
    <path clip-path="url(#pfaa53ae4f0)" d="M 304.33745 307.584 
L 307.583999 307.584 
L 307.583999 290.852724 
L 304.33745 290.852724 
z
" style="fill:#1f77b4;"/>
   </g>
   <g id="patch_75">
    <path clip-path="url(#pfaa53ae4f0)" d="M 307.583999 307.584 
L 310.830541 307.584 
L 310.830541 286.80195 
L 307.583999 286.80195 
z
" style="fill:#1f77b4;"/>
   </g>
   <g id="patch_76">
    <path clip-path="url(#pfaa53ae4f0)" d="M 310.830534 307.584 
L 314.077084 307.584 
L 314.077084 282.751265 
L 310.830534 282.751265 
z
" style="fill:#1f77b4;"/>
   </g>
   <g id="patch_77">
    <path clip-path="url(#pfaa53ae4f0)" d="M 314.077091 307.584 
L 317.323633 307.584 
L 317.323633 293.142236 
L 314.077091 293.142236 
z
" style="fill:#1f77b4;"/>
   </g>
   <g id="patch_78">
    <path clip-path="url(#pfaa53ae4f0)" d="M 317.323633 307.584 
L 320.570175 307.584 
L 320.570175 293.318355 
L 317.323633 293.318355 
z
" style="fill:#1f77b4;"/>
   </g>
   <g id="patch_79">
    <path clip-path="url(#pfaa53ae4f0)" d="M 320.570175 307.584 
L 323.816724 307.584 
L 323.816724 287.506469 
L 320.570175 287.506469 
z
" style="fill:#1f77b4;"/>
   </g>
   <g id="patch_80">
    <path clip-path="url(#pfaa53ae4f0)" d="M 323.816724 307.584 
L 327.063267 307.584 
L 327.063267 292.966117 
L 323.816724 292.966117 
z
" style="fill:#1f77b4;"/>
   </g>
   <g id="patch_81">
    <path clip-path="url(#pfaa53ae4f0)" d="M 327.06326 307.584 
L 330.309809 307.584 
L 330.309809 291.909437 
L 327.06326 291.909437 
z
" style="fill:#1f77b4;"/>
   </g>
   <g id="patch_82">
    <path clip-path="url(#pfaa53ae4f0)" d="M 330.309816 307.584 
L 333.556358 307.584 
L 333.556358 292.261641 
L 330.309816 292.261641 
z
" style="fill:#1f77b4;"/>
   </g>
   <g id="patch_83">
    <path clip-path="url(#pfaa53ae4f0)" d="M 333.556358 307.584 
L 336.802907 307.584 
L 336.802907 294.19898 
L 333.556358 294.19898 
z
" style="fill:#1f77b4;"/>
   </g>
   <g id="patch_84">
    <path clip-path="url(#pfaa53ae4f0)" d="M 336.802907 307.584 
L 340.049449 307.584 
L 340.049449 297.897451 
L 336.802907 297.897451 
z
" style="fill:#1f77b4;"/>
   </g>
   <g id="patch_85">
    <path clip-path="url(#pfaa53ae4f0)" d="M 340.049442 307.584 
L 343.295992 307.584 
L 343.295992 296.664641 
L 340.049442 296.664641 
z
" style="fill:#1f77b4;"/>
   </g>
   <g id="patch_86">
    <path clip-path="url(#pfaa53ae4f0)" d="M 343.295999 307.584 
L 346.542541 307.584 
L 346.542541 298.954166 
L 343.295999 298.954166 
z
" style="fill:#1f77b4;"/>
   </g>
   <g id="patch_87">
    <path clip-path="url(#pfaa53ae4f0)" d="M 346.542541 307.584 
L 349.78909 307.584 
L 349.78909 296.136285 
L 346.542541 296.136285 
z
" style="fill:#1f77b4;"/>
   </g>
   <g id="patch_88">
    <path clip-path="url(#pfaa53ae4f0)" d="M 349.78909 307.584 
L 353.035632 307.584 
L 353.035632 296.312379 
L 349.78909 296.312379 
z
" style="fill:#1f77b4;"/>
   </g>
   <g id="patch_89">
    <path clip-path="url(#pfaa53ae4f0)" d="M 353.035625 307.584 
L 356.282175 307.584 
L 356.282175 295.607929 
L 353.035625 295.607929 
z
" style="fill:#1f77b4;"/>
   </g>
   <g id="patch_90">
    <path clip-path="url(#pfaa53ae4f0)" d="M 356.282182 307.584 
L 359.528724 307.584 
L 359.528724 300.891475 
L 356.282182 300.891475 
z
" style="fill:#1f77b4;"/>
   </g>
   <g id="patch_91">
    <path clip-path="url(#pfaa53ae4f0)" d="M 359.528724 307.584 
L 362.775273 307.584 
L 362.775273 298.778065 
L 359.528724 298.778065 
z
" style="fill:#1f77b4;"/>
   </g>
   <g id="patch_92">
    <path clip-path="url(#pfaa53ae4f0)" d="M 362.775273 307.584 
L 366.021815 307.584 
L 366.021815 298.601927 
L 362.775273 298.601927 
z
" style="fill:#1f77b4;"/>
   </g>
   <g id="patch_93">
    <path clip-path="url(#pfaa53ae4f0)" d="M 366.021808 307.584 
L 369.268365 307.584 
L 369.268365 301.419846 
L 366.021808 301.419846 
z
" style="fill:#1f77b4;"/>
   </g>
   <g id="patch_94">
    <path clip-path="url(#pfaa53ae4f0)" d="M 369.268365 307.584 
L 372.514907 307.584 
L 372.514907 301.595952 
L 369.268365 301.595952 
z
" style="fill:#1f77b4;"/>
   </g>
   <g id="patch_95">
    <path clip-path="url(#pfaa53ae4f0)" d="M 372.514921 307.584 
L 375.761463 307.584 
L 375.761463 304.413857 
L 372.514921 304.413857 
z
" style="fill:#1f77b4;"/>
   </g>
   <g id="patch_96">
    <path clip-path="url(#pfaa53ae4f0)" d="M 375.761449 307.584 
L 379.008005 307.584 
L 379.008005 302.652687 
L 375.761449 302.652687 
z
" style="fill:#1f77b4;"/>
   </g>
   <g id="patch_97">
    <path clip-path="url(#pfaa53ae4f0)" d="M 379.008005 307.584 
L 382.254548 307.584 
L 382.254548 304.237738 
L 379.008005 304.237738 
z
" style="fill:#1f77b4;"/>
   </g>
   <g id="patch_98">
    <path clip-path="url(#pfaa53ae4f0)" d="M 382.254562 307.584 
L 385.501104 307.584 
L 385.501104 304.413857 
L 382.254562 304.413857 
z
" style="fill:#1f77b4;"/>
   </g>
   <g id="patch_99">
    <path clip-path="url(#pfaa53ae4f0)" d="M 385.50109 307.584 
L 388.747632 307.584 
L 388.747632 304.237738 
L 385.50109 304.237738 
z
" style="fill:#1f77b4;"/>
   </g>
   <g id="patch_100">
    <path clip-path="url(#pfaa53ae4f0)" d="M 388.747632 307.584 
L 391.994188 307.584 
L 391.994188 305.646699 
L 388.747632 305.646699 
z
" style="fill:#1f77b4;"/>
   </g>
   <g id="patch_101">
    <path clip-path="url(#pfaa53ae4f0)" d="M 391.994202 307.584 
L 395.240745 307.584 
L 395.240745 305.294452 
L 391.994202 305.294452 
z
" style="fill:#1f77b4;"/>
   </g>
   <g id="patch_102">
    <path clip-path="url(#pfaa53ae4f0)" d="M 395.24073 307.584 
L 398.487273 307.584 
L 398.487273 305.64669 
L 395.24073 305.64669 
z
" style="fill:#1f77b4;"/>
   </g>
   <g id="matplotlib.axis_1">
    <g id="xtick_1">
     <g id="line2d_1">
      <defs>
       <path d="M 0 0 
L 0 3.5 
" id="m5a171fef4e" style="stroke:#000000;stroke-width:0.8;"/>
      </defs>
      <g>
       <use style="stroke:#000000;stroke-width:0.8;" x="71.894147" xlink:href="#m5a171fef4e" y="307.584"/>
      </g>
     </g>
     <g id="text_1">
      <!-- −3 -->
      <defs>
       <path d="M 10.59375 35.5 
L 73.1875 35.5 
L 73.1875 27.203125 
L 10.59375 27.203125 
z
" id="DejaVuSans-8722"/>
       <path d="M 40.578125 39.3125 
Q 47.65625 37.796875 51.625 33 
Q 55.609375 28.21875 55.609375 21.1875 
Q 55.609375 10.40625 48.1875 4.484375 
Q 40.765625 -1.421875 27.09375 -1.421875 
Q 22.515625 -1.421875 17.65625 -0.515625 
Q 12.796875 0.390625 7.625 2.203125 
L 7.625 11.71875 
Q 11.71875 9.328125 16.59375 8.109375 
Q 21.484375 6.890625 26.8125 6.890625 
Q 36.078125 6.890625 40.9375 10.546875 
Q 45.796875 14.203125 45.796875 21.1875 
Q 45.796875 27.640625 41.28125 31.265625 
Q 36.765625 34.90625 28.71875 34.90625 
L 20.21875 34.90625 
L 20.21875 43.015625 
L 29.109375 43.015625 
Q 36.375 43.015625 40.234375 45.921875 
Q 44.09375 48.828125 44.09375 54.296875 
Q 44.09375 59.90625 40.109375 62.90625 
Q 36.140625 65.921875 28.71875 65.921875 
Q 24.65625 65.921875 20.015625 65.03125 
Q 15.375 64.15625 9.8125 62.3125 
L 9.8125 71.09375 
Q 15.4375 72.65625 20.34375 73.4375 
Q 25.25 74.21875 29.59375 74.21875 
Q 40.828125 74.21875 47.359375 69.109375 
Q 53.90625 64.015625 53.90625 55.328125 
Q 53.90625 49.265625 50.4375 45.09375 
Q 46.96875 40.921875 40.578125 39.3125 
z
" id="DejaVuSans-51"/>
      </defs>
      <g transform="translate(59.363288 327.501344)scale(0.17 -0.17)">
       <use xlink:href="#DejaVuSans-8722"/>
       <use x="83.789062" xlink:href="#DejaVuSans-51"/>
      </g>
     </g>
    </g>
    <g id="xtick_2">
     <g id="line2d_2">
      <g>
       <use style="stroke:#000000;stroke-width:0.8;" x="130.730829" xlink:href="#m5a171fef4e" y="307.584"/>
      </g>
     </g>
     <g id="text_2">
      <!-- −2 -->
      <defs>
       <path d="M 19.1875 8.296875 
L 53.609375 8.296875 
L 53.609375 0 
L 7.328125 0 
L 7.328125 8.296875 
Q 12.9375 14.109375 22.625 23.890625 
Q 32.328125 33.6875 34.8125 36.53125 
Q 39.546875 41.84375 41.421875 45.53125 
Q 43.3125 49.21875 43.3125 52.78125 
Q 43.3125 58.59375 39.234375 62.25 
Q 35.15625 65.921875 28.609375 65.921875 
Q 23.96875 65.921875 18.8125 64.3125 
Q 13.671875 62.703125 7.8125 59.421875 
L 7.8125 69.390625 
Q 13.765625 71.78125 18.9375 73 
Q 24.125 74.21875 28.421875 74.21875 
Q 39.75 74.21875 46.484375 68.546875 
Q 53.21875 62.890625 53.21875 53.421875 
Q 53.21875 48.921875 51.53125 44.890625 
Q 49.859375 40.875 45.40625 35.40625 
Q 44.1875 33.984375 37.640625 27.21875 
Q 31.109375 20.453125 19.1875 8.296875 
z
" id="DejaVuSans-50"/>
      </defs>
      <g transform="translate(118.199969 327.501344)scale(0.17 -0.17)">
       <use xlink:href="#DejaVuSans-8722"/>
       <use x="83.789062" xlink:href="#DejaVuSans-50"/>
      </g>
     </g>
    </g>
    <g id="xtick_3">
     <g id="line2d_3">
      <g>
       <use style="stroke:#000000;stroke-width:0.8;" x="189.56751" xlink:href="#m5a171fef4e" y="307.584"/>
      </g>
     </g>
     <g id="text_3">
      <!-- −1 -->
      <defs>
       <path d="M 12.40625 8.296875 
L 28.515625 8.296875 
L 28.515625 63.921875 
L 10.984375 60.40625 
L 10.984375 69.390625 
L 28.421875 72.90625 
L 38.28125 72.90625 
L 38.28125 8.296875 
L 54.390625 8.296875 
L 54.390625 0 
L 12.40625 0 
z
" id="DejaVuSans-49"/>
      </defs>
      <g transform="translate(177.036651 327.501344)scale(0.17 -0.17)">
       <use xlink:href="#DejaVuSans-8722"/>
       <use x="83.789062" xlink:href="#DejaVuSans-49"/>
      </g>
     </g>
    </g>
    <g id="xtick_4">
     <g id="line2d_4">
      <g>
       <use style="stroke:#000000;stroke-width:0.8;" x="248.404192" xlink:href="#m5a171fef4e" y="307.584"/>
      </g>
     </g>
     <g id="text_4">
      <!-- 0 -->
      <defs>
       <path d="M 31.78125 66.40625 
Q 24.171875 66.40625 20.328125 58.90625 
Q 16.5 51.421875 16.5 36.375 
Q 16.5 21.390625 20.328125 13.890625 
Q 24.171875 6.390625 31.78125 6.390625 
Q 39.453125 6.390625 43.28125 13.890625 
Q 47.125 21.390625 47.125 36.375 
Q 47.125 51.421875 43.28125 58.90625 
Q 39.453125 66.40625 31.78125 66.40625 
z
M 31.78125 74.21875 
Q 44.046875 74.21875 50.515625 64.515625 
Q 56.984375 54.828125 56.984375 36.375 
Q 56.984375 17.96875 50.515625 8.265625 
Q 44.046875 -1.421875 31.78125 -1.421875 
Q 19.53125 -1.421875 13.0625 8.265625 
Q 6.59375 17.96875 6.59375 36.375 
Q 6.59375 54.828125 13.0625 64.515625 
Q 19.53125 74.21875 31.78125 74.21875 
z
" id="DejaVuSans-48"/>
      </defs>
      <g transform="translate(242.996067 327.501344)scale(0.17 -0.17)">
       <use xlink:href="#DejaVuSans-48"/>
      </g>
     </g>
    </g>
    <g id="xtick_5">
     <g id="line2d_5">
      <g>
       <use style="stroke:#000000;stroke-width:0.8;" x="307.240873" xlink:href="#m5a171fef4e" y="307.584"/>
      </g>
     </g>
     <g id="text_5">
      <!-- 1 -->
      <g transform="translate(301.832748 327.501344)scale(0.17 -0.17)">
       <use xlink:href="#DejaVuSans-49"/>
      </g>
     </g>
    </g>
    <g id="xtick_6">
     <g id="line2d_6">
      <g>
       <use style="stroke:#000000;stroke-width:0.8;" x="366.077555" xlink:href="#m5a171fef4e" y="307.584"/>
      </g>
     </g>
     <g id="text_6">
      <!-- 2 -->
      <g transform="translate(360.66943 327.501344)scale(0.17 -0.17)">
       <use xlink:href="#DejaVuSans-50"/>
      </g>
     </g>
    </g>
    <g id="text_7">
     <!-- Position in Radian -->
     <defs>
      <path d="M 19.671875 64.796875 
L 19.671875 37.40625 
L 32.078125 37.40625 
Q 38.96875 37.40625 42.71875 40.96875 
Q 46.484375 44.53125 46.484375 51.125 
Q 46.484375 57.671875 42.71875 61.234375 
Q 38.96875 64.796875 32.078125 64.796875 
z
M 9.8125 72.90625 
L 32.078125 72.90625 
Q 44.34375 72.90625 50.609375 67.359375 
Q 56.890625 61.8125 56.890625 51.125 
Q 56.890625 40.328125 50.609375 34.8125 
Q 44.34375 29.296875 32.078125 29.296875 
L 19.671875 29.296875 
L 19.671875 0 
L 9.8125 0 
z
" id="DejaVuSans-80"/>
      <path d="M 30.609375 48.390625 
Q 23.390625 48.390625 19.1875 42.75 
Q 14.984375 37.109375 14.984375 27.296875 
Q 14.984375 17.484375 19.15625 11.84375 
Q 23.34375 6.203125 30.609375 6.203125 
Q 37.796875 6.203125 41.984375 11.859375 
Q 46.1875 17.53125 46.1875 27.296875 
Q 46.1875 37.015625 41.984375 42.703125 
Q 37.796875 48.390625 30.609375 48.390625 
z
M 30.609375 56 
Q 42.328125 56 49.015625 48.375 
Q 55.71875 40.765625 55.71875 27.296875 
Q 55.71875 13.875 49.015625 6.21875 
Q 42.328125 -1.421875 30.609375 -1.421875 
Q 18.84375 -1.421875 12.171875 6.21875 
Q 5.515625 13.875 5.515625 27.296875 
Q 5.515625 40.765625 12.171875 48.375 
Q 18.84375 56 30.609375 56 
z
" id="DejaVuSans-111"/>
      <path d="M 44.28125 53.078125 
L 44.28125 44.578125 
Q 40.484375 46.53125 36.375 47.5 
Q 32.28125 48.484375 27.875 48.484375 
Q 21.1875 48.484375 17.84375 46.4375 
Q 14.5 44.390625 14.5 40.28125 
Q 14.5 37.15625 16.890625 35.375 
Q 19.28125 33.59375 26.515625 31.984375 
L 29.59375 31.296875 
Q 39.15625 29.25 43.1875 25.515625 
Q 47.21875 21.78125 47.21875 15.09375 
Q 47.21875 7.46875 41.1875 3.015625 
Q 35.15625 -1.421875 24.609375 -1.421875 
Q 20.21875 -1.421875 15.453125 -0.5625 
Q 10.6875 0.296875 5.421875 2 
L 5.421875 11.28125 
Q 10.40625 8.6875 15.234375 7.390625 
Q 20.0625 6.109375 24.8125 6.109375 
Q 31.15625 6.109375 34.5625 8.28125 
Q 37.984375 10.453125 37.984375 14.40625 
Q 37.984375 18.0625 35.515625 20.015625 
Q 33.0625 21.96875 24.703125 23.78125 
L 21.578125 24.515625 
Q 13.234375 26.265625 9.515625 29.90625 
Q 5.8125 33.546875 5.8125 39.890625 
Q 5.8125 47.609375 11.28125 51.796875 
Q 16.75 56 26.8125 56 
Q 31.78125 56 36.171875 55.265625 
Q 40.578125 54.546875 44.28125 53.078125 
z
" id="DejaVuSans-115"/>
      <path d="M 9.421875 54.6875 
L 18.40625 54.6875 
L 18.40625 0 
L 9.421875 0 
z
M 9.421875 75.984375 
L 18.40625 75.984375 
L 18.40625 64.59375 
L 9.421875 64.59375 
z
" id="DejaVuSans-105"/>
      <path d="M 18.3125 70.21875 
L 18.3125 54.6875 
L 36.8125 54.6875 
L 36.8125 47.703125 
L 18.3125 47.703125 
L 18.3125 18.015625 
Q 18.3125 11.328125 20.140625 9.421875 
Q 21.96875 7.515625 27.59375 7.515625 
L 36.8125 7.515625 
L 36.8125 0 
L 27.59375 0 
Q 17.1875 0 13.234375 3.875 
Q 9.28125 7.765625 9.28125 18.015625 
L 9.28125 47.703125 
L 2.6875 47.703125 
L 2.6875 54.6875 
L 9.28125 54.6875 
L 9.28125 70.21875 
z
" id="DejaVuSans-116"/>
      <path d="M 54.890625 33.015625 
L 54.890625 0 
L 45.90625 0 
L 45.90625 32.71875 
Q 45.90625 40.484375 42.875 44.328125 
Q 39.84375 48.1875 33.796875 48.1875 
Q 26.515625 48.1875 22.3125 43.546875 
Q 18.109375 38.921875 18.109375 30.90625 
L 18.109375 0 
L 9.078125 0 
L 9.078125 54.6875 
L 18.109375 54.6875 
L 18.109375 46.1875 
Q 21.34375 51.125 25.703125 53.5625 
Q 30.078125 56 35.796875 56 
Q 45.21875 56 50.046875 50.171875 
Q 54.890625 44.34375 54.890625 33.015625 
z
" id="DejaVuSans-110"/>
      <path id="DejaVuSans-32"/>
      <path d="M 44.390625 34.1875 
Q 47.5625 33.109375 50.5625 29.59375 
Q 53.5625 26.078125 56.59375 19.921875 
L 66.609375 0 
L 56 0 
L 46.6875 18.703125 
Q 43.0625 26.03125 39.671875 28.421875 
Q 36.28125 30.8125 30.421875 30.8125 
L 19.671875 30.8125 
L 19.671875 0 
L 9.8125 0 
L 9.8125 72.90625 
L 32.078125 72.90625 
Q 44.578125 72.90625 50.734375 67.671875 
Q 56.890625 62.453125 56.890625 51.90625 
Q 56.890625 45.015625 53.6875 40.46875 
Q 50.484375 35.9375 44.390625 34.1875 
z
M 19.671875 64.796875 
L 19.671875 38.921875 
L 32.078125 38.921875 
Q 39.203125 38.921875 42.84375 42.21875 
Q 46.484375 45.515625 46.484375 51.90625 
Q 46.484375 58.296875 42.84375 61.546875 
Q 39.203125 64.796875 32.078125 64.796875 
z
" id="DejaVuSans-82"/>
      <path d="M 34.28125 27.484375 
Q 23.390625 27.484375 19.1875 25 
Q 14.984375 22.515625 14.984375 16.5 
Q 14.984375 11.71875 18.140625 8.90625 
Q 21.296875 6.109375 26.703125 6.109375 
Q 34.1875 6.109375 38.703125 11.40625 
Q 43.21875 16.703125 43.21875 25.484375 
L 43.21875 27.484375 
z
M 52.203125 31.203125 
L 52.203125 0 
L 43.21875 0 
L 43.21875 8.296875 
Q 40.140625 3.328125 35.546875 0.953125 
Q 30.953125 -1.421875 24.3125 -1.421875 
Q 15.921875 -1.421875 10.953125 3.296875 
Q 6 8.015625 6 15.921875 
Q 6 25.140625 12.171875 29.828125 
Q 18.359375 34.515625 30.609375 34.515625 
L 43.21875 34.515625 
L 43.21875 35.40625 
Q 43.21875 41.609375 39.140625 45 
Q 35.0625 48.390625 27.6875 48.390625 
Q 23 48.390625 18.546875 47.265625 
Q 14.109375 46.140625 10.015625 43.890625 
L 10.015625 52.203125 
Q 14.9375 54.109375 19.578125 55.046875 
Q 24.21875 56 28.609375 56 
Q 40.484375 56 46.34375 49.84375 
Q 52.203125 43.703125 52.203125 31.203125 
z
" id="DejaVuSans-97"/>
      <path d="M 45.40625 46.390625 
L 45.40625 75.984375 
L 54.390625 75.984375 
L 54.390625 0 
L 45.40625 0 
L 45.40625 8.203125 
Q 42.578125 3.328125 38.25 0.953125 
Q 33.9375 -1.421875 27.875 -1.421875 
Q 17.96875 -1.421875 11.734375 6.484375 
Q 5.515625 14.40625 5.515625 27.296875 
Q 5.515625 40.1875 11.734375 48.09375 
Q 17.96875 56 27.875 56 
Q 33.9375 56 38.25 53.625 
Q 42.578125 51.265625 45.40625 46.390625 
z
M 14.796875 27.296875 
Q 14.796875 17.390625 18.875 11.75 
Q 22.953125 6.109375 30.078125 6.109375 
Q 37.203125 6.109375 41.296875 11.75 
Q 45.40625 17.390625 45.40625 27.296875 
Q 45.40625 37.203125 41.296875 42.84375 
Q 37.203125 48.484375 30.078125 48.484375 
Q 22.953125 48.484375 18.875 42.84375 
Q 14.796875 37.203125 14.796875 27.296875 
z
" id="DejaVuSans-100"/>
     </defs>
     <g transform="translate(102.024844 357.832125)scale(0.3 -0.3)">
      <use xlink:href="#DejaVuSans-80"/>
      <use x="60.255859" xlink:href="#DejaVuSans-111"/>
      <use x="121.4375" xlink:href="#DejaVuSans-115"/>
      <use x="173.537109" xlink:href="#DejaVuSans-105"/>
      <use x="201.320312" xlink:href="#DejaVuSans-116"/>
      <use x="240.529297" xlink:href="#DejaVuSans-105"/>
      <use x="268.3125" xlink:href="#DejaVuSans-111"/>
      <use x="329.494141" xlink:href="#DejaVuSans-110"/>
      <use x="392.873047" xlink:href="#DejaVuSans-32"/>
      <use x="424.660156" xlink:href="#DejaVuSans-105"/>
      <use x="452.443359" xlink:href="#DejaVuSans-110"/>
      <use x="515.822266" xlink:href="#DejaVuSans-32"/>
      <use x="547.609375" xlink:href="#DejaVuSans-82"/>
      <use x="617.060547" xlink:href="#DejaVuSans-97"/>
      <use x="678.339844" xlink:href="#DejaVuSans-100"/>
      <use x="741.816406" xlink:href="#DejaVuSans-105"/>
      <use x="769.599609" xlink:href="#DejaVuSans-97"/>
      <use x="830.878906" xlink:href="#DejaVuSans-110"/>
     </g>
    </g>
   </g>
   <g id="matplotlib.axis_2">
    <g id="ytick_1">
     <g id="line2d_7">
      <defs>
       <path d="M 0 0 
L -3.5 0 
" id="m7640a02bbd" style="stroke:#000000;stroke-width:0.8;"/>
      </defs>
      <g>
       <use style="stroke:#000000;stroke-width:0.8;" x="57.6" xlink:href="#m7640a02bbd" y="307.584"/>
      </g>
     </g>
     <g id="text_8">
      <!-- 0.0 -->
      <defs>
       <path d="M 10.6875 12.40625 
L 21 12.40625 
L 21 0 
L 10.6875 0 
z
" id="DejaVuSans-46"/>
      </defs>
      <g transform="translate(23.564687 314.042672)scale(0.17 -0.17)">
       <use xlink:href="#DejaVuSans-48"/>
       <use x="63.623047" xlink:href="#DejaVuSans-46"/>
       <use x="95.410156" xlink:href="#DejaVuSans-48"/>
      </g>
     </g>
    </g>
    <g id="ytick_2">
     <g id="line2d_8">
      <g>
       <use style="stroke:#000000;stroke-width:0.8;" x="57.6" xlink:href="#m7640a02bbd" y="234.698601"/>
      </g>
     </g>
     <g id="text_9">
      <!-- 0.5 -->
      <defs>
       <path d="M 10.796875 72.90625 
L 49.515625 72.90625 
L 49.515625 64.59375 
L 19.828125 64.59375 
L 19.828125 46.734375 
Q 21.96875 47.46875 24.109375 47.828125 
Q 26.265625 48.1875 28.421875 48.1875 
Q 40.625 48.1875 47.75 41.5 
Q 54.890625 34.8125 54.890625 23.390625 
Q 54.890625 11.625 47.5625 5.09375 
Q 40.234375 -1.421875 26.90625 -1.421875 
Q 22.3125 -1.421875 17.546875 -0.640625 
Q 12.796875 0.140625 7.71875 1.703125 
L 7.71875 11.625 
Q 12.109375 9.234375 16.796875 8.0625 
Q 21.484375 6.890625 26.703125 6.890625 
Q 35.15625 6.890625 40.078125 11.328125 
Q 45.015625 15.765625 45.015625 23.390625 
Q 45.015625 31 40.078125 35.4375 
Q 35.15625 39.890625 26.703125 39.890625 
Q 22.75 39.890625 18.8125 39.015625 
Q 14.890625 38.140625 10.796875 36.28125 
z
" id="DejaVuSans-53"/>
      </defs>
      <g transform="translate(23.564687 241.157273)scale(0.17 -0.17)">
       <use xlink:href="#DejaVuSans-48"/>
       <use x="63.623047" xlink:href="#DejaVuSans-46"/>
       <use x="95.410156" xlink:href="#DejaVuSans-53"/>
      </g>
     </g>
    </g>
    <g id="ytick_3">
     <g id="line2d_9">
      <g>
       <use style="stroke:#000000;stroke-width:0.8;" x="57.6" xlink:href="#m7640a02bbd" y="161.813202"/>
      </g>
     </g>
     <g id="text_10">
      <!-- 1.0 -->
      <g transform="translate(23.564687 168.271874)scale(0.17 -0.17)">
       <use xlink:href="#DejaVuSans-49"/>
       <use x="63.623047" xlink:href="#DejaVuSans-46"/>
       <use x="95.410156" xlink:href="#DejaVuSans-48"/>
      </g>
     </g>
    </g>
    <g id="ytick_4">
     <g id="line2d_10">
      <g>
       <use style="stroke:#000000;stroke-width:0.8;" x="57.6" xlink:href="#m7640a02bbd" y="88.927803"/>
      </g>
     </g>
     <g id="text_11">
      <!-- 1.5 -->
      <g transform="translate(23.564687 95.386474)scale(0.17 -0.17)">
       <use xlink:href="#DejaVuSans-49"/>
       <use x="63.623047" xlink:href="#DejaVuSans-46"/>
       <use x="95.410156" xlink:href="#DejaVuSans-53"/>
      </g>
     </g>
    </g>
    <g id="text_12">
     <!-- Density -->
     <defs>
      <path d="M 19.671875 64.796875 
L 19.671875 8.109375 
L 31.59375 8.109375 
Q 46.6875 8.109375 53.6875 14.9375 
Q 60.6875 21.78125 60.6875 36.53125 
Q 60.6875 51.171875 53.6875 57.984375 
Q 46.6875 64.796875 31.59375 64.796875 
z
M 9.8125 72.90625 
L 30.078125 72.90625 
Q 51.265625 72.90625 61.171875 64.09375 
Q 71.09375 55.28125 71.09375 36.53125 
Q 71.09375 17.671875 61.125 8.828125 
Q 51.171875 0 30.078125 0 
L 9.8125 0 
z
" id="DejaVuSans-68"/>
      <path d="M 56.203125 29.59375 
L 56.203125 25.203125 
L 14.890625 25.203125 
Q 15.484375 15.921875 20.484375 11.0625 
Q 25.484375 6.203125 34.421875 6.203125 
Q 39.59375 6.203125 44.453125 7.46875 
Q 49.3125 8.734375 54.109375 11.28125 
L 54.109375 2.78125 
Q 49.265625 0.734375 44.1875 -0.34375 
Q 39.109375 -1.421875 33.890625 -1.421875 
Q 20.796875 -1.421875 13.15625 6.1875 
Q 5.515625 13.8125 5.515625 26.8125 
Q 5.515625 40.234375 12.765625 48.109375 
Q 20.015625 56 32.328125 56 
Q 43.359375 56 49.78125 48.890625 
Q 56.203125 41.796875 56.203125 29.59375 
z
M 47.21875 32.234375 
Q 47.125 39.59375 43.09375 43.984375 
Q 39.0625 48.390625 32.421875 48.390625 
Q 24.90625 48.390625 20.390625 44.140625 
Q 15.875 39.890625 15.1875 32.171875 
z
" id="DejaVuSans-101"/>
      <path d="M 32.171875 -5.078125 
Q 28.375 -14.84375 24.75 -17.8125 
Q 21.140625 -20.796875 15.09375 -20.796875 
L 7.90625 -20.796875 
L 7.90625 -13.28125 
L 13.1875 -13.28125 
Q 16.890625 -13.28125 18.9375 -11.515625 
Q 21 -9.765625 23.484375 -3.21875 
L 25.09375 0.875 
L 2.984375 54.6875 
L 12.5 54.6875 
L 29.59375 11.921875 
L 46.6875 54.6875 
L 56.203125 54.6875 
z
" id="DejaVuSans-121"/>
     </defs>
     <g transform="translate(13.325625 231.553781)rotate(-90)scale(0.3 -0.3)">
      <use xlink:href="#DejaVuSans-68"/>
      <use x="77.001953" xlink:href="#DejaVuSans-101"/>
      <use x="138.525391" xlink:href="#DejaVuSans-110"/>
      <use x="201.904297" xlink:href="#DejaVuSans-115"/>
      <use x="254.003906" xlink:href="#DejaVuSans-105"/>
      <use x="281.787109" xlink:href="#DejaVuSans-116"/>
      <use x="320.996094" xlink:href="#DejaVuSans-121"/>
     </g>
    </g>
   </g>
   <g id="line2d_11">
    <path clip-path="url(#pfaa53ae4f0)" d="M 101.312488 307.012733 
L 101.969498 306.851482 
L 103.93072 306.788137 
L 104.646567 307.047315 
L 104.970168 306.892185 
L 105.401637 306.395793 
L 106.293994 305.334782 
L 106.794105 305.152396 
L 107.274605 304.922645 
L 107.66685 304.444339 
L 108.490563 303.361459 
L 108.72591 303.409485 
L 109.010287 303.73994 
L 110.098766 305.245532 
L 110.373337 305.216145 
L 110.755775 304.899574 
L 111.14802 304.676546 
L 111.383367 304.802089 
L 111.706968 305.295244 
L 112.344366 306.257757 
L 112.638549 306.326313 
L 113.011181 306.151054 
L 114.776282 305.072004 
L 115.246975 305.195983 
L 116.011852 305.429614 
L 116.335454 305.222985 
L 116.923821 304.818593 
L 117.17878 304.946615 
L 117.629861 305.515214 
L 118.080942 305.92748 
L 118.424156 305.948335 
L 119.002717 305.695858 
L 119.453798 305.30732 
L 120.463828 304.214576 
L 121.081613 304.120669 
L 121.473857 303.619238 
L 121.836684 303.302703 
L 122.091643 303.364821 
L 122.601561 303.550331 
L 122.807489 303.318639 
L 123.111478 302.567916 
L 123.856743 300.643052 
L 124.248988 300.309982 
L 124.631426 299.92352 
L 125.141344 298.964815 
L 125.563007 298.409306 
L 125.876802 298.332365 
L 126.327884 298.489114 
L 127.328107 298.905716 
L 128.014535 298.731509 
L 128.269494 299.107522 
L 129.073596 300.468512 
L 129.495258 300.591369 
L 131.240747 301.01803 
L 132.201746 301.743343 
L 132.446899 301.572048 
L 132.711664 301.061622 
L 133.094102 299.725857 
L 133.662857 297.867723 
L 133.917816 297.658278 
L 134.13355 297.770084 
L 134.96707 298.412341 
L 135.986906 298.389704 
L 136.339926 298.323358 
L 137.7422 297.491827 
L 138.487465 296.876547 
L 138.732617 296.992581 
L 139.056219 297.440006 
L 139.63478 298.233523 
L 139.821096 298.163386 
L 140.036831 297.771656 
L 140.458493 296.387483 
L 140.831126 295.502042 
L 141.017442 295.479693 
L 141.203758 295.758694 
L 141.57639 296.850102 
L 142.047084 297.991054 
L 142.341267 298.217732 
L 142.596226 298.158585 
L 142.860991 297.84853 
L 143.174787 297.076822 
L 144.057337 294.629793 
L 144.224041 294.702114 
L 144.459388 295.117375 
L 145.214458 296.602379 
L 145.420387 296.57743 
L 145.655734 296.278823 
L 146.097009 295.259754 
L 146.616733 294.241104 
L 146.852079 294.163673 
L 147.067814 294.349706 
L 147.920946 295.323139 
L 148.205323 295.102684 
L 148.656404 294.794301 
L 148.901557 294.90351 
L 149.686046 295.449724 
L 149.921393 295.16877 
L 150.833362 293.84983 
L 151.304055 293.428992 
L 151.92184 292.799021 
L 152.117962 292.931615 
L 152.382728 293.450988 
L 153.235859 295.943667 
L 154.049767 297.900148 
L 154.628328 299.185935 
L 155.648163 302.029357 
L 155.893316 302.016737 
L 157.266172 301.314579 
L 157.540743 300.75452 
L 157.854539 299.534223 
L 158.83515 295.212788 
L 158.982242 295.267152 
L 159.197976 295.691861 
L 159.727507 296.768964 
L 159.874598 296.6831 
L 160.080527 296.215136 
L 160.717924 294.589872 
L 160.865016 294.684328 
L 161.100362 295.194985 
L 161.580862 296.178262 
L 161.757372 296.157417 
L 161.982913 295.83279 
L 164.267737 291.517792 
L 164.679594 291.334262 
L 164.924747 291.066256 
L 165.248349 290.302782 
L 165.758266 289.194006 
L 166.003419 289.111664 
L 166.591786 289.127554 
L 166.827133 288.708012 
L 167.268408 287.317196 
L 167.739101 286.122268 
L 168.043091 285.860675 
L 168.34708 285.889716 
L 168.719713 286.168105 
L 169.151182 286.814141 
L 169.592457 287.365919 
L 169.83761 287.348847 
L 170.229854 287.287386 
L 170.406364 287.56587 
L 170.661323 288.47891 
L 171.524261 291.976212 
L 171.769414 292.100779 
L 172.504873 292.151665 
L 173.034403 292.734547 
L 173.661994 293.299723 
L 173.877728 293.244492 
L 174.073851 292.930371 
L 174.32881 292.041101 
L 174.750473 289.582116 
L 175.289809 286.815679 
L 175.534962 286.46639 
L 175.701666 286.556273 
L 176.368481 287.218022 
L 176.388094 287.199014 
L 176.584216 286.826257 
L 176.956848 285.48672 
L 177.466766 283.899297 
L 178.574857 281.491951 
L 179.055356 280.376285 
L 179.359346 280.157111 
L 179.673142 280.212177 
L 180.388988 280.659988 
L 180.987161 281.177521 
L 181.330375 281.828191 
L 181.82068 283.341142 
L 183.595587 289.04267 
L 183.752485 288.989665 
L 183.958413 288.58365 
L 184.654647 286.988848 
L 184.801739 287.113609 
L 185.017474 287.669091 
L 185.90983 290.374048 
L 186.105952 290.324554 
L 186.635482 290.065623 
L 186.841411 290.332604 
L 187.214043 291.3075 
L 187.616094 292.112981 
L 187.812216 292.124472 
L 188.037756 291.852421 
L 188.547674 291.218211 
L 188.714378 291.347388 
L 188.939919 291.895755 
L 189.812663 294.47696 
L 189.832275 294.467667 
L 189.979367 294.243341 
L 190.204908 293.387064 
L 190.636377 290.615976 
L 191.10707 288.131775 
L 191.332611 287.810895 
L 191.479702 287.908277 
L 191.734661 288.436973 
L 192.215161 289.362228 
L 192.411283 289.359387 
L 192.64663 289.072739 
L 193.156548 288.440642 
L 193.362476 288.517006 
L 193.65666 288.932889 
L 194.853005 291.258954 
L 195.402148 292.357029 
L 195.617882 292.397704 
L 195.823811 292.164025 
L 196.706361 290.863326 
L 197.020157 291.164418 
L 197.265309 291.246402 
L 197.432013 291.01918 
L 197.66736 290.212489 
L 198.8539 285.29101 
L 199.148083 285.110972 
L 199.354012 285.223456 
L 199.608971 285.678689 
L 200.226756 286.876917 
L 200.383653 286.759334 
L 200.628806 286.199269 
L 201.0995 285.16994 
L 201.256398 285.205463 
L 201.442714 285.5576 
L 201.80554 286.862121 
L 202.33507 288.52817 
L 202.658672 288.897307 
L 203.207814 289.354152 
L 203.560834 290.120892 
L 205.227874 294.198518 
L 205.473026 294.240139 
L 205.757404 294.015455 
L 206.208485 293.691985 
L 206.394801 293.844109 
L 206.630148 294.392642 
L 207.53231 296.859952 
L 207.70882 296.737259 
L 208.169708 295.973597 
L 208.454085 295.775749 
L 208.679626 295.886185 
L 209.238574 296.243926 
L 209.405278 295.968967 
L 209.621012 295.073497 
L 209.925002 292.658911 
L 210.876195 284.248355 
L 211.09193 283.953682 
L 211.288052 284.040082 
L 211.562623 284.110725 
L 211.729327 283.861656 
L 211.964674 283.007682 
L 213.072764 278.22863 
L 213.38656 277.261525 
L 213.670937 275.481696 
L 214.151437 270.639339 
L 214.612324 266.999778 
L 214.935926 266.019161 
L 215.63216 264.45966 
L 215.896925 264.140364 
L 216.034211 264.265272 
L 216.230333 264.830079 
L 216.593159 266.724819 
L 217.465903 271.303742 
L 217.740475 271.811351 
L 217.887566 271.755287 
L 218.093495 271.337661 
L 218.701474 269.974039 
L 218.848565 270.067068 
L 219.083912 270.571587 
L 219.691891 271.925149 
L 220.437156 272.73046 
L 221.339318 274.881406 
L 221.937491 275.17262 
L 222.388572 276.031937 
L 223.241704 277.911299 
L 224.055612 280.400767 
L 224.271346 280.45169 
L 224.477275 280.237294 
L 224.761652 279.563027 
L 225.134284 278.01023 
L 226.340436 271.270867 
L 227.713292 263.462006 
L 228.154567 261.604082 
L 228.57623 258.618787 
L 230.076565 246.979201 
L 230.380555 246.4669 
L 231.204268 245.662382 
L 231.253299 245.726919 
L 231.429809 246.244747 
L 231.723992 247.985418 
L 232.18488 250.44476 
L 232.273135 250.484138 
L 232.312359 250.436327 
L 232.439839 249.990403 
L 232.655573 248.259665 
L 233.116461 242.171168 
L 233.54793 237.819311 
L 233.793082 237.078269 
L 233.930368 237.121702 
L 234.195133 237.605312 
L 234.450092 237.856978 
L 234.587378 237.707659 
L 234.793306 237.068158 
L 237.176192 227.54579 
L 237.754752 226.063914 
L 238.068548 224.219161 
L 238.490211 220.229369 
L 239.068772 212.4199 
L 239.990546 200.054665 
L 240.314148 198.407857 
L 240.922127 196.356713 
L 241.206504 193.611278 
L 241.736034 185.741365 
L 242.334207 178.061568 
L 242.638197 176.450851 
L 242.834319 176.251447 
L 243.197145 176.205049 
L 243.344237 175.638588 
L 243.540359 173.822395 
L 243.814931 168.874504 
L 244.707287 150.852006 
L 244.766124 150.764666 
L 244.815154 150.840024 
L 244.932827 151.543135 
L 245.158368 154.63611 
L 245.756541 167.358523 
L 246.158592 173.116923 
L 246.384132 174.062858 
L 246.462581 173.992581 
L 246.590061 173.443952 
L 246.786183 171.455715 
L 247.02153 166.497259 
L 247.276489 155.627453 
L 247.570672 132.148317 
L 248.43361 54.144 
L 248.443416 54.167685 
L 248.502253 54.982508 
L 248.639538 61.124128 
L 248.91411 86.398948 
L 249.522089 141.728049 
L 249.816272 151.077827 
L 250.032007 152.736442 
L 250.090843 152.758024 
L 250.130068 152.7055 
L 250.286966 152.127363 
L 250.639986 149.755985 
L 250.993006 145.92842 
L 251.424475 138.28704 
L 251.875556 131.524537 
L 251.993229 131.139386 
L 252.032454 131.183113 
L 252.140321 131.750708 
L 252.336443 134.304103 
L 253.307248 149.33358 
L 253.40531 149.414209 
L 253.444534 149.374914 
L 253.58182 148.972647 
L 253.876003 147.236177 
L 254.376115 144.545151 
L 254.474176 144.491491 
L 254.503594 144.525346 
L 254.621268 144.919597 
L 254.807584 146.468688 
L 255.101767 151.141415 
L 256.101991 168.687529 
L 256.386368 170.110132 
L 256.513848 170.201684 
L 256.543266 170.176077 
L 256.680552 169.831887 
L 256.915898 168.498417 
L 257.435622 165.524089 
L 257.514071 165.592206 
L 257.641551 166.187512 
L 257.857285 168.554526 
L 258.406428 178.21425 
L 258.769254 182.278388 
L 259.0046 183.064769 
L 259.161498 183.06588 
L 259.700835 182.795991 
L 260.093079 182.866986 
L 260.279395 182.560795 
L 260.573579 181.52811 
L 261.436517 178.274017 
L 261.55419 178.288367 
L 261.563996 178.301364 
L 261.691476 178.670246 
L 261.877792 180.003664 
L 262.152363 183.894068 
L 264.937299 232.406368 
L 265.623727 243.107239 
L 266.39841 255 
L 266.829879 258.249343 
L 267.428052 262.321458 
L 268.614592 272.236564 
L 268.722459 272.175398 
L 268.879357 271.717669 
L 269.242183 269.740515 
L 269.595203 268.377505 
L 269.732489 268.329638 
L 269.752101 268.346772 
L 269.908999 268.676654 
L 270.232601 270.044609 
L 270.654263 271.505741 
L 270.811161 271.559013 
L 270.820967 271.551032 
L 270.968059 271.270329 
L 271.213212 270.20019 
L 272.056538 266.036037 
L 272.193823 266.056296 
L 272.370333 266.422812 
L 273.08618 268.328134 
L 273.115598 268.313878 
L 273.26269 268.079377 
L 273.507842 267.165994 
L 274.772831 261.646707 
L 274.929729 261.668095 
L 275.106239 261.988013 
L 275.400422 263.081483 
L 276.56735 267.947167 
L 276.734054 267.943248 
L 276.900758 267.629245 
L 277.194941 266.485838 
L 277.734277 264.480512 
L 277.9304 264.370812 
L 278.10691 264.568675 
L 278.665858 265.327204 
L 278.81295 265.121649 
L 279.028684 264.35461 
L 279.420929 261.924295 
L 279.950459 259.002969 
L 280.185806 258.633525 
L 280.332898 258.723167 
L 280.558438 259.217902 
L 281.009519 260.871488 
L 281.490019 263.425241 
L 282.431406 268.896414 
L 282.696171 269.174207 
L 283.078609 269.439636 
L 283.35318 270.044592 
L 283.990578 271.52167 
L 284.176894 271.512392 
L 284.412241 271.207652 
L 284.89274 270.59858 
L 285.049638 270.712688 
L 285.255567 271.221807 
L 285.54975 272.66494 
L 285.961607 275.963597 
L 287.305044 287.820764 
L 288.040503 290.826549 
L 288.471972 291.948011 
L 288.707319 292.077491 
L 288.913247 291.915355 
L 289.933083 290.7936 
L 291.070592 290.325632 
L 291.590316 290.490604 
L 291.796244 290.253952 
L 292.061009 289.5516 
L 292.482672 287.683848 
L 293.276967 284.177959 
L 293.512314 283.924702 
L 293.688824 284.031712 
L 294.090875 284.687586 
L 294.345834 284.85628 
L 294.512538 284.690358 
L 294.747884 284.063597 
L 295.551986 281.649551 
L 295.708884 281.726861 
L 295.963843 282.204851 
L 296.375699 282.892209 
L 296.542403 282.83403 
L 296.758138 282.441343 
L 297.248443 281.520343 
L 297.375923 281.628513 
L 297.562239 282.181298 
L 297.915259 284.151117 
L 298.336922 286.095602 
L 298.503626 286.22876 
L 298.513432 286.223449 
L 298.650718 286.008432 
L 298.915483 285.050176 
L 299.415595 283.334504 
L 299.601911 283.261802 
L 299.768615 283.488296 
L 300.072604 284.381628 
L 300.96496 287.154891 
L 301.180695 287.25341 
L 301.367011 287.080076 
L 301.700419 286.381904 
L 302.337816 285.113217 
L 302.602581 284.979845 
L 302.779092 285.146575 
L 303.004632 285.752878 
L 303.367458 287.535575 
L 303.906795 289.970837 
L 304.17156 290.313105 
L 304.838375 290.638973 
L 305.191395 291.55559 
L 305.691507 292.688795 
L 305.917048 292.770387 
L 306.103364 292.572218 
L 306.368129 291.891265 
L 307.397771 288.811588 
L 308.299933 287.770361 
L 309.466861 285.302552 
L 309.731626 285.41294 
L 310.045422 285.482955 
L 310.221932 285.237946 
L 310.447472 284.460169 
L 310.878941 281.921999 
L 311.271186 280.208332 
L 311.428084 280.099734 
L 311.447696 280.113107 
L 311.594788 280.396366 
L 311.849747 281.52473 
L 312.742103 285.919246 
L 312.997062 286.150921 
L 313.497174 286.358481 
L 313.73252 286.933512 
L 314.163989 288.773837 
L 314.595458 290.187217 
L 315.438784 291.982483 
L 316.144824 294.457488 
L 316.448814 294.730532 
L 317.017568 294.862895 
L 317.252915 294.706806 
L 317.51768 294.211532 
L 318.066823 292.544146 
L 318.557128 291.388545 
L 318.792475 291.262562 
L 318.968985 291.432276 
L 319.23375 292.076051 
L 319.802505 293.486231 
L 319.93979 293.42531 
L 320.106494 293.010335 
L 320.371259 291.621712 
L 321.244003 286.525825 
L 321.391095 286.495434 
L 321.400901 286.504549 
L 321.557799 286.818024 
L 321.871595 288.078263 
L 322.352094 289.768127 
L 322.558023 289.905312 
L 322.734533 289.744851 
L 323.558246 288.713757 
L 323.783787 288.928548 
L 324.146613 289.644697 
L 324.6075 291.063452 
L 325.813652 295.220216 
L 326.058805 295.287976 
L 326.372601 295.091221 
L 327.539528 293.971403 
L 329.569394 290.048267 
L 329.598812 290.06628 
L 329.765516 290.342047 
L 330.059699 291.388076 
L 330.559811 293.031587 
L 330.775546 293.155748 
L 331.001086 292.982931 
L 331.452168 292.641202 
L 331.687514 292.757206 
L 332.207238 293.085506 
L 332.383748 292.873525 
L 332.65832 292.100977 
L 333.138819 290.825701 
L 333.285911 290.86301 
L 333.472227 291.259906 
L 334.207686 293.139189 
L 334.374389 293.008997 
L 335.001981 292.285552 
L 335.021593 292.301837 
L 335.207909 292.636663 
L 335.531511 293.812025 
L 336.090459 295.714138 
L 336.384643 296.032239 
L 337.002428 296.441751 
L 337.816335 297.411225 
L 338.041876 297.253725 
L 338.757722 296.586757 
L 338.944038 296.830434 
L 339.248028 297.692052 
L 339.757946 299.065053 
L 339.914844 299.058275 
L 340.081548 298.731669 
L 340.365925 297.558695 
L 340.905261 295.415354 
L 341.091577 295.33109 
L 341.258281 295.572996 
L 342.150638 297.279775 
L 342.474239 297.131683 
L 342.856678 297.042646 
L 343.209698 297.222331 
L 343.700003 297.738743 
L 344.11186 298.505271 
L 344.749258 300.320639 
L 345.092472 300.920564 
L 345.268982 300.903883 
L 345.465104 300.598557 
L 345.837736 299.478022 
L 346.279011 298.387705 
L 346.514358 298.277696 
L 346.769317 298.452264 
L 347.161562 298.675256 
L 347.357684 298.513147 
L 347.622449 297.941672 
L 348.691315 295.293916 
L 349.250264 294.036858 
L 349.750376 293.080118 
L 350.015141 292.975501 
L 350.260293 293.140938 
L 350.613314 293.705369 
L 351.211486 295.145304 
L 351.986169 297.646774 
L 352.417638 298.641652 
L 352.643179 298.736419 
L 352.819689 298.556681 
L 353.074648 297.906038 
L 354.074872 294.871555 
L 354.241576 295.04903 
L 354.535759 295.797921 
L 355.075095 297.08571 
L 355.281024 297.128342 
L 355.486952 296.891751 
L 356.094931 296.075797 
L 356.261635 296.239622 
L 356.516594 296.889465 
L 357.399144 299.416776 
L 358.183633 300.697507 
L 358.821031 302.050444 
L 359.007347 302.039092 
L 359.223081 301.74426 
L 360.743029 299.025059 
L 361.086243 298.873974 
L 361.439263 298.996287 
L 361.821701 299.065873 
L 362.115885 298.863059 
L 362.861149 298.258041 
L 363.341649 298.27645 
L 364.62625 298.532747 
L 365.008688 299.064283 
L 365.489188 300.146359 
L 366.205034 301.744324 
L 366.410963 301.774286 
L 366.626697 301.539908 
L 367.381768 300.548672 
L 367.607308 300.686878 
L 368.568308 301.576697 
L 369.47047 301.468687 
L 370.147092 301.915665 
L 370.617785 302.125602 
L 370.853132 301.989908 
L 371.166928 301.489031 
L 371.647427 300.778385 
L 371.823937 300.829058 
L 372.029866 301.172612 
L 372.431916 302.406832 
L 372.932028 303.69532 
L 373.265436 303.999764 
L 373.942058 304.419314 
L 374.569649 304.98462 
L 374.765771 304.848558 
L 375.010924 304.344543 
L 375.50123 302.651253 
L 375.893474 301.690663 
L 376.109209 301.610506 
L 376.315137 301.814484 
L 376.834861 302.809584 
L 377.2173 303.251608 
L 377.531095 303.29538 
L 378.178299 303.294975 
L 378.541125 303.630828 
L 379.306002 304.371343 
L 379.972818 304.60078 
L 380.639633 304.649649 
L 381.012266 304.447425 
L 381.590826 303.794755 
L 382.022295 303.490625 
L 382.453764 303.482517 
L 383.002907 303.677888 
L 383.385345 304.08378 
L 384.248283 305.103446 
L 384.591497 305.121343 
L 385.071997 304.877843 
L 386.513495 304.089186 
L 387.641198 304.145118 
L 387.984412 304.351231 
L 388.582585 305.066529 
L 389.219983 305.665469 
L 389.739707 305.878546 
L 390.082921 305.795276 
L 390.56342 305.387169 
L 390.975277 305.170534 
L 391.289073 305.269222 
L 391.887246 305.50254 
L 392.171623 305.304573 
L 392.779602 304.821867 
L 393.005143 304.973399 
L 393.416999 305.625253 
L 393.779826 305.998647 
L 393.99556 305.946152 
L 394.279937 305.597689 
L 395.064426 304.542247 
L 395.35861 304.525822 
L 395.486089 304.593619 
L 395.486089 304.593619 
" style="fill:none;stroke:#ff7f0e;stroke-linecap:square;stroke-width:1.5;"/>
   </g>
   <g id="patch_103">
    <path d="M 57.6 307.584 
L 57.6 41.472 
" style="fill:none;stroke:#000000;stroke-linecap:square;stroke-linejoin:miter;stroke-width:0.8;"/>
   </g>
   <g id="patch_104">
    <path d="M 414.72 307.584 
L 414.72 41.472 
" style="fill:none;stroke:#000000;stroke-linecap:square;stroke-linejoin:miter;stroke-width:0.8;"/>
   </g>
   <g id="patch_105">
    <path d="M 57.6 307.584 
L 414.72 307.584 
" style="fill:none;stroke:#000000;stroke-linecap:square;stroke-linejoin:miter;stroke-width:0.8;"/>
   </g>
   <g id="patch_106">
    <path d="M 57.6 41.472 
L 414.72 41.472 
" style="fill:none;stroke:#000000;stroke-linecap:square;stroke-linejoin:miter;stroke-width:0.8;"/>
   </g>
  </g>
 </g>
 <defs>
  <clipPath id="pfaa53ae4f0">
   <rect height="266.112" width="357.12" x="57.6" y="41.472"/>
  </clipPath>
 </defs>
</svg>
