<?xml version="1.0" encoding="utf-8" standalone="no"?>
<!DOCTYPE svg PUBLIC "-//W3C//DTD SVG 1.1//EN"
  "http://www.w3.org/Graphics/SVG/1.1/DTD/svg11.dtd">
<!-- Created with matplotlib (https://matplotlib.org/) -->
<svg height="345.6pt" version="1.1" viewBox="0 0 460.8 345.6" width="460.8pt" xmlns="http://www.w3.org/2000/svg" xmlns:xlink="http://www.w3.org/1999/xlink">
 <defs>
  <style type="text/css">
*{stroke-linecap:butt;stroke-linejoin:round;}
  </style>
 </defs>
 <g id="figure_1">
  <g id="patch_1">
   <path d="M 0 345.6 
L 460.8 345.6 
L 460.8 0 
L 0 0 
z
" style="fill:#ffffff;"/>
  </g>
  <g id="axes_1">
   <g id="patch_2">
    <path d="M 57.6 307.584 
L 414.72 307.584 
L 414.72 41.472 
L 57.6 41.472 
z
" style="fill:#ffffff;"/>
   </g>
   <g id="patch_3">
    <path clip-path="url(#pebf0aa252c)" d="M 73.832727 307.584 
L 77.07927 307.584 
L 77.07927 307.060297 
L 73.832727 307.060297 
z
" style="fill:#1f77b4;"/>
   </g>
   <g id="patch_4">
    <path clip-path="url(#pebf0aa252c)" d="M 77.079255 307.584 
L 80.325798 307.584 
L 80.325798 307.453074 
L 77.079255 307.453074 
z
" style="fill:#1f77b4;"/>
   </g>
   <g id="patch_5">
    <path clip-path="url(#pebf0aa252c)" d="M 80.325798 307.584 
L 83.572354 307.584 
L 83.572354 307.453075 
L 80.325798 307.453075 
z
" style="fill:#1f77b4;"/>
   </g>
   <g id="patch_6">
    <path clip-path="url(#pebf0aa252c)" d="M 83.572368 307.584 
L 86.81891 307.584 
L 86.81891 307.453074 
L 83.572368 307.453074 
z
" style="fill:#1f77b4;"/>
   </g>
   <g id="patch_7">
    <path clip-path="url(#pebf0aa252c)" d="M 86.818896 307.584 
L 90.065438 307.584 
L 90.065438 306.66752 
L 86.818896 306.66752 
z
" style="fill:#1f77b4;"/>
   </g>
   <g id="patch_8">
    <path clip-path="url(#pebf0aa252c)" d="M 90.065452 307.584 
L 93.311995 307.584 
L 93.311995 306.66752 
L 90.065452 306.66752 
z
" style="fill:#1f77b4;"/>
   </g>
   <g id="patch_9">
    <path clip-path="url(#pebf0aa252c)" d="M 93.311981 307.584 
L 96.558537 307.584 
L 96.558537 306.929374 
L 93.311981 306.929374 
z
" style="fill:#1f77b4;"/>
   </g>
   <g id="patch_10">
    <path clip-path="url(#pebf0aa252c)" d="M 96.558537 307.584 
L 99.805079 307.584 
L 99.805079 306.405668 
L 96.558537 306.405668 
z
" style="fill:#1f77b4;"/>
   </g>
   <g id="patch_11">
    <path clip-path="url(#pebf0aa252c)" d="M 99.805093 307.584 
L 103.051635 307.584 
L 103.051635 306.012891 
L 99.805093 306.012891 
z
" style="fill:#1f77b4;"/>
   </g>
   <g id="patch_12">
    <path clip-path="url(#pebf0aa252c)" d="M 103.051621 307.584 
L 106.298164 307.584 
L 106.298164 305.620113 
L 103.051621 305.620113 
z
" style="fill:#1f77b4;"/>
   </g>
   <g id="patch_13">
    <path clip-path="url(#pebf0aa252c)" d="M 106.298164 307.584 
L 109.54472 307.584 
L 109.54472 301.954216 
L 106.298164 301.954216 
z
" style="fill:#1f77b4;"/>
   </g>
   <g id="patch_14">
    <path clip-path="url(#pebf0aa252c)" d="M 109.544734 307.584 
L 112.791276 307.584 
L 112.791276 303.001598 
L 109.544734 303.001598 
z
" style="fill:#1f77b4;"/>
   </g>
   <g id="patch_15">
    <path clip-path="url(#pebf0aa252c)" d="M 112.791262 307.584 
L 116.037804 307.584 
L 116.037804 304.834559 
L 112.791262 304.834559 
z
" style="fill:#1f77b4;"/>
   </g>
   <g id="patch_16">
    <path clip-path="url(#pebf0aa252c)" d="M 116.037818 307.584 
L 119.284361 307.584 
L 119.284361 304.310856 
L 116.037818 304.310856 
z
" style="fill:#1f77b4;"/>
   </g>
   <g id="patch_17">
    <path clip-path="url(#pebf0aa252c)" d="M 119.284347 307.584 
L 122.530903 307.584 
L 122.530903 302.085141 
L 119.284347 302.085141 
z
" style="fill:#1f77b4;"/>
   </g>
   <g id="patch_18">
    <path clip-path="url(#pebf0aa252c)" d="M 122.530903 307.584 
L 125.777445 307.584 
L 125.777445 297.764567 
L 122.530903 297.764567 
z
" style="fill:#1f77b4;"/>
   </g>
   <g id="patch_19">
    <path clip-path="url(#pebf0aa252c)" d="M 125.777459 307.584 
L 129.024001 307.584 
L 129.024001 297.895493 
L 125.777459 297.895493 
z
" style="fill:#1f77b4;"/>
   </g>
   <g id="patch_20">
    <path clip-path="url(#pebf0aa252c)" d="M 129.023987 307.584 
L 132.270536 307.584 
L 132.270536 300.644949 
L 129.023987 300.644949 
z
" style="fill:#1f77b4;"/>
   </g>
   <g id="patch_21">
    <path clip-path="url(#pebf0aa252c)" d="M 132.270536 307.584 
L 135.517079 307.584 
L 135.517079 298.550122 
L 132.270536 298.550122 
z
" style="fill:#1f77b4;"/>
   </g>
   <g id="patch_22">
    <path clip-path="url(#pebf0aa252c)" d="M 135.517072 307.584 
L 138.763621 307.584 
L 138.763621 298.811992 
L 135.517072 298.811992 
z
" style="fill:#1f77b4;"/>
   </g>
   <g id="patch_23">
    <path clip-path="url(#pebf0aa252c)" d="M 138.763628 307.584 
L 142.01017 307.584 
L 142.01017 295.538829 
L 138.763628 295.538829 
z
" style="fill:#1f77b4;"/>
   </g>
   <g id="patch_24">
    <path clip-path="url(#pebf0aa252c)" d="M 142.01017 307.584 
L 145.256719 307.584 
L 145.256719 295.66978 
L 142.01017 295.66978 
z
" style="fill:#1f77b4;"/>
   </g>
   <g id="patch_25">
    <path clip-path="url(#pebf0aa252c)" d="M 145.256719 307.584 
L 148.503262 307.584 
L 148.503262 295.538829 
L 145.256719 295.538829 
z
" style="fill:#1f77b4;"/>
   </g>
   <g id="patch_26">
    <path clip-path="url(#pebf0aa252c)" d="M 148.503255 307.584 
L 151.749804 307.584 
L 151.749804 295.800706 
L 148.503255 295.800706 
z
" style="fill:#1f77b4;"/>
   </g>
   <g id="patch_27">
    <path clip-path="url(#pebf0aa252c)" d="M 151.749811 307.584 
L 154.996353 307.584 
L 154.996353 296.717161 
L 151.749811 296.717161 
z
" style="fill:#1f77b4;"/>
   </g>
   <g id="patch_28">
    <path clip-path="url(#pebf0aa252c)" d="M 154.996353 307.584 
L 158.242895 307.584 
L 158.242895 301.168637 
L 154.996353 301.168637 
z
" style="fill:#1f77b4;"/>
   </g>
   <g id="patch_29">
    <path clip-path="url(#pebf0aa252c)" d="M 158.242895 307.584 
L 161.489445 307.584 
L 161.489445 296.979035 
L 158.242895 296.979035 
z
" style="fill:#1f77b4;"/>
   </g>
   <g id="patch_30">
    <path clip-path="url(#pebf0aa252c)" d="M 161.489445 307.584 
L 164.735987 307.584 
L 164.735987 294.8842 
L 161.489445 294.8842 
z
" style="fill:#1f77b4;"/>
   </g>
   <g id="patch_31">
    <path clip-path="url(#pebf0aa252c)" d="M 164.73598 307.584 
L 167.982529 307.584 
L 167.982529 289.909059 
L 164.73598 289.909059 
z
" style="fill:#1f77b4;"/>
   </g>
   <g id="patch_32">
    <path clip-path="url(#pebf0aa252c)" d="M 167.982536 307.584 
L 171.229078 307.584 
L 171.229078 288.730688 
L 167.982536 288.730688 
z
" style="fill:#1f77b4;"/>
   </g>
   <g id="patch_33">
    <path clip-path="url(#pebf0aa252c)" d="M 171.229078 307.584 
L 174.475628 307.584 
L 174.475628 294.360525 
L 171.229078 294.360525 
z
" style="fill:#1f77b4;"/>
   </g>
   <g id="patch_34">
    <path clip-path="url(#pebf0aa252c)" d="M 174.475628 307.584 
L 177.72217 307.584 
L 177.72217 288.206985 
L 174.475628 288.206985 
z
" style="fill:#1f77b4;"/>
   </g>
   <g id="patch_35">
    <path clip-path="url(#pebf0aa252c)" d="M 177.722163 307.584 
L 180.968712 307.584 
L 180.968712 283.886486 
L 177.722163 283.886486 
z
" style="fill:#1f77b4;"/>
   </g>
   <g id="patch_36">
    <path clip-path="url(#pebf0aa252c)" d="M 180.968719 307.584 
L 184.215261 307.584 
L 184.215261 288.99254 
L 180.968719 288.99254 
z
" style="fill:#1f77b4;"/>
   </g>
   <g id="patch_37">
    <path clip-path="url(#pebf0aa252c)" d="M 184.215261 307.584 
L 187.46181 307.584 
L 187.46181 290.825537 
L 184.215261 290.825537 
z
" style="fill:#1f77b4;"/>
   </g>
   <g id="patch_38">
    <path clip-path="url(#pebf0aa252c)" d="M 187.46181 307.584 
L 190.708356 307.584 
L 190.708356 292.527552 
L 187.46181 292.527552 
z
" style="fill:#1f77b4;"/>
   </g>
   <g id="patch_39">
    <path clip-path="url(#pebf0aa252c)" d="M 190.70836 307.584 
L 193.954905 307.584 
L 193.954905 287.814229 
L 190.70836 287.814229 
z
" style="fill:#1f77b4;"/>
   </g>
   <g id="patch_40">
    <path clip-path="url(#pebf0aa252c)" d="M 193.954902 307.584 
L 197.201444 307.584 
L 197.201444 287.814208 
L 193.954902 287.814208 
z
" style="fill:#1f77b4;"/>
   </g>
   <g id="patch_41">
    <path clip-path="url(#pebf0aa252c)" d="M 197.201444 307.584 
L 200.44799 307.584 
L 200.44799 287.159601 
L 197.201444 287.159601 
z
" style="fill:#1f77b4;"/>
   </g>
   <g id="patch_42">
    <path clip-path="url(#pebf0aa252c)" d="M 200.447993 307.584 
L 203.694539 307.584 
L 203.694539 287.159601 
L 200.447993 287.159601 
z
" style="fill:#1f77b4;"/>
   </g>
   <g id="patch_43">
    <path clip-path="url(#pebf0aa252c)" d="M 203.694536 307.584 
L 206.941081 307.584 
L 206.941081 293.313106 
L 203.694536 293.313106 
z
" style="fill:#1f77b4;"/>
   </g>
   <g id="patch_44">
    <path clip-path="url(#pebf0aa252c)" d="M 206.941085 307.584 
L 210.187631 307.584 
L 210.187631 295.669767 
L 206.941085 295.669767 
z
" style="fill:#1f77b4;"/>
   </g>
   <g id="patch_45">
    <path clip-path="url(#pebf0aa252c)" d="M 210.187627 307.584 
L 213.434173 307.584 
L 213.434173 281.529799 
L 210.187627 281.529799 
z
" style="fill:#1f77b4;"/>
   </g>
   <g id="patch_46">
    <path clip-path="url(#pebf0aa252c)" d="M 213.434176 307.584 
L 216.680722 307.584 
L 216.680722 268.568161 
L 213.434176 268.568161 
z
" style="fill:#1f77b4;"/>
   </g>
   <g id="patch_47">
    <path clip-path="url(#pebf0aa252c)" d="M 216.680719 307.584 
L 219.927264 307.584 
L 219.927264 267.127979 
L 216.680719 267.127979 
z
" style="fill:#1f77b4;"/>
   </g>
   <g id="patch_48">
    <path clip-path="url(#pebf0aa252c)" d="M 219.927264 307.584 
L 223.17381 307.584 
L 223.17381 271.448525 
L 219.927264 271.448525 
z
" style="fill:#1f77b4;"/>
   </g>
   <g id="patch_49">
    <path clip-path="url(#pebf0aa252c)" d="M 223.17381 307.584 
L 226.420356 307.584 
L 226.420356 277.732956 
L 223.17381 277.732956 
z
" style="fill:#1f77b4;"/>
   </g>
   <g id="patch_50">
    <path clip-path="url(#pebf0aa252c)" d="M 226.420356 307.584 
L 229.666902 307.584 
L 229.666902 266.080574 
L 226.420356 266.080574 
z
" style="fill:#1f77b4;"/>
   </g>
   <g id="patch_51">
    <path clip-path="url(#pebf0aa252c)" d="M 229.666902 307.584 
L 232.913447 307.584 
L 232.913447 256.653929 
L 229.666902 256.653929 
z
" style="fill:#1f77b4;"/>
   </g>
   <g id="patch_52">
    <path clip-path="url(#pebf0aa252c)" d="M 232.913447 307.584 
L 236.159993 307.584 
L 236.159993 237.669712 
L 232.913447 237.669712 
z
" style="fill:#1f77b4;"/>
   </g>
   <g id="patch_53">
    <path clip-path="url(#pebf0aa252c)" d="M 236.159993 307.584 
L 239.406539 307.584 
L 239.406539 225.100851 
L 236.159993 225.100851 
z
" style="fill:#1f77b4;"/>
   </g>
   <g id="patch_54">
    <path clip-path="url(#pebf0aa252c)" d="M 239.406539 307.584 
L 242.653084 307.584 
L 242.653084 199.046635 
L 239.406539 199.046635 
z
" style="fill:#1f77b4;"/>
   </g>
   <g id="patch_55">
    <path clip-path="url(#pebf0aa252c)" d="M 242.653084 307.584 
L 245.89963 307.584 
L 245.89963 162.256547 
L 242.653084 162.256547 
z
" style="fill:#1f77b4;"/>
   </g>
   <g id="patch_56">
    <path clip-path="url(#pebf0aa252c)" d="M 245.89963 307.584 
L 249.146175 307.584 
L 249.146175 120.884047 
L 245.89963 120.884047 
z
" style="fill:#1f77b4;"/>
   </g>
   <g id="patch_57">
    <path clip-path="url(#pebf0aa252c)" d="M 249.146175 307.584 
L 252.392721 307.584 
L 252.392721 145.236192 
L 249.146175 145.236192 
z
" style="fill:#1f77b4;"/>
   </g>
   <g id="patch_58">
    <path clip-path="url(#pebf0aa252c)" d="M 252.392721 307.584 
L 255.639267 307.584 
L 255.639267 153.222678 
L 252.392721 153.222678 
z
" style="fill:#1f77b4;"/>
   </g>
   <g id="patch_59">
    <path clip-path="url(#pebf0aa252c)" d="M 255.639267 307.584 
L 258.885812 307.584 
L 258.885812 168.802828 
L 255.639267 168.802828 
z
" style="fill:#1f77b4;"/>
   </g>
   <g id="patch_60">
    <path clip-path="url(#pebf0aa252c)" d="M 258.885812 307.584 
L 262.132358 307.584 
L 262.132358 170.504862 
L 258.885812 170.504862 
z
" style="fill:#1f77b4;"/>
   </g>
   <g id="patch_61">
    <path clip-path="url(#pebf0aa252c)" d="M 262.132357 307.584 
L 265.378901 307.584 
L 265.378901 209.389748 
L 262.132357 209.389748 
z
" style="fill:#1f77b4;"/>
   </g>
   <g id="patch_62">
    <path clip-path="url(#pebf0aa252c)" d="M 265.378903 307.584 
L 268.625449 307.584 
L 268.625449 243.823216 
L 265.378903 243.823216 
z
" style="fill:#1f77b4;"/>
   </g>
   <g id="patch_63">
    <path clip-path="url(#pebf0aa252c)" d="M 268.625449 307.584 
L 271.871994 307.584 
L 271.871994 261.890954 
L 268.625449 261.890954 
z
" style="fill:#1f77b4;"/>
   </g>
   <g id="patch_64">
    <path clip-path="url(#pebf0aa252c)" d="M 271.871994 307.584 
L 275.11854 307.584 
L 275.11854 263.854838 
L 271.871994 263.854838 
z
" style="fill:#1f77b4;"/>
   </g>
   <g id="patch_65">
    <path clip-path="url(#pebf0aa252c)" d="M 275.118542 307.584 
L 278.365084 307.584 
L 278.365084 269.746471 
L 275.118542 269.746471 
z
" style="fill:#1f77b4;"/>
   </g>
   <g id="patch_66">
    <path clip-path="url(#pebf0aa252c)" d="M 278.365084 307.584 
L 281.61163 307.584 
L 281.61163 267.782607 
L 278.365084 267.782607 
z
" style="fill:#1f77b4;"/>
   </g>
   <g id="patch_67">
    <path clip-path="url(#pebf0aa252c)" d="M 281.611633 307.584 
L 284.858179 307.584 
L 284.858179 274.721666 
L 281.611633 274.721666 
z
" style="fill:#1f77b4;"/>
   </g>
   <g id="patch_68">
    <path clip-path="url(#pebf0aa252c)" d="M 284.858176 307.584 
L 288.104721 307.584 
L 288.104721 283.624609 
L 284.858176 283.624609 
z
" style="fill:#1f77b4;"/>
   </g>
   <g id="patch_69">
    <path clip-path="url(#pebf0aa252c)" d="M 288.104725 307.584 
L 291.35127 307.584 
L 291.35127 291.741998 
L 288.104725 291.741998 
z
" style="fill:#1f77b4;"/>
   </g>
   <g id="patch_70">
    <path clip-path="url(#pebf0aa252c)" d="M 291.351267 307.584 
L 294.597813 307.584 
L 294.597813 289.516263 
L 291.351267 289.516263 
z
" style="fill:#1f77b4;"/>
   </g>
   <g id="patch_71">
    <path clip-path="url(#pebf0aa252c)" d="M 294.597816 307.584 
L 297.844362 307.584 
L 297.844362 286.635899 
L 294.597816 286.635899 
z
" style="fill:#1f77b4;"/>
   </g>
   <g id="patch_72">
    <path clip-path="url(#pebf0aa252c)" d="M 297.844358 307.584 
L 301.090904 307.584 
L 301.090904 291.08737 
L 297.844358 291.08737 
z
" style="fill:#1f77b4;"/>
   </g>
   <g id="patch_73">
    <path clip-path="url(#pebf0aa252c)" d="M 301.090908 307.584 
L 304.337453 307.584 
L 304.337453 291.872924 
L 301.090908 291.872924 
z
" style="fill:#1f77b4;"/>
   </g>
   <g id="patch_74">
    <path clip-path="url(#pebf0aa252c)" d="M 304.33745 307.584 
L 307.583999 307.584 
L 307.583999 292.920345 
L 304.33745 292.920345 
z
" style="fill:#1f77b4;"/>
   </g>
   <g id="patch_75">
    <path clip-path="url(#pebf0aa252c)" d="M 307.583999 307.584 
L 310.830541 307.584 
L 310.830541 288.468837 
L 307.583999 288.468837 
z
" style="fill:#1f77b4;"/>
   </g>
   <g id="patch_76">
    <path clip-path="url(#pebf0aa252c)" d="M 310.830534 307.584 
L 314.077084 307.584 
L 314.077084 285.850368 
L 310.830534 285.850368 
z
" style="fill:#1f77b4;"/>
   </g>
   <g id="patch_77">
    <path clip-path="url(#pebf0aa252c)" d="M 314.077091 307.584 
L 317.323633 307.584 
L 317.323633 292.789387 
L 314.077091 292.789387 
z
" style="fill:#1f77b4;"/>
   </g>
   <g id="patch_78">
    <path clip-path="url(#pebf0aa252c)" d="M 317.323633 307.584 
L 320.570175 307.584 
L 320.570175 292.39661 
L 317.323633 292.39661 
z
" style="fill:#1f77b4;"/>
   </g>
   <g id="patch_79">
    <path clip-path="url(#pebf0aa252c)" d="M 320.570175 307.584 
L 323.816724 307.584 
L 323.816724 288.468878 
L 320.570175 288.468878 
z
" style="fill:#1f77b4;"/>
   </g>
   <g id="patch_80">
    <path clip-path="url(#pebf0aa252c)" d="M 323.816724 307.584 
L 327.063267 307.584 
L 327.063267 292.789387 
L 323.816724 292.789387 
z
" style="fill:#1f77b4;"/>
   </g>
   <g id="patch_81">
    <path clip-path="url(#pebf0aa252c)" d="M 327.06326 307.584 
L 330.309809 307.584 
L 330.309809 294.491451 
L 327.06326 294.491451 
z
" style="fill:#1f77b4;"/>
   </g>
   <g id="patch_82">
    <path clip-path="url(#pebf0aa252c)" d="M 330.309816 307.584 
L 333.556358 307.584 
L 333.556358 294.098645 
L 330.309816 294.098645 
z
" style="fill:#1f77b4;"/>
   </g>
   <g id="patch_83">
    <path clip-path="url(#pebf0aa252c)" d="M 333.556358 307.584 
L 336.802907 307.584 
L 336.802907 295.800706 
L 333.556358 295.800706 
z
" style="fill:#1f77b4;"/>
   </g>
   <g id="patch_84">
    <path clip-path="url(#pebf0aa252c)" d="M 336.802907 307.584 
L 340.049449 307.584 
L 340.049449 298.681047 
L 336.802907 298.681047 
z
" style="fill:#1f77b4;"/>
   </g>
   <g id="patch_85">
    <path clip-path="url(#pebf0aa252c)" d="M 340.049442 307.584 
L 343.295992 307.584 
L 343.295992 298.550141 
L 340.049442 298.550141 
z
" style="fill:#1f77b4;"/>
   </g>
   <g id="patch_86">
    <path clip-path="url(#pebf0aa252c)" d="M 343.295999 307.584 
L 346.542541 307.584 
L 346.542541 300.514008 
L 343.295999 300.514008 
z
" style="fill:#1f77b4;"/>
   </g>
   <g id="patch_87">
    <path clip-path="url(#pebf0aa252c)" d="M 346.542541 307.584 
L 349.78909 307.584 
L 349.78909 298.550141 
L 346.542541 298.550141 
z
" style="fill:#1f77b4;"/>
   </g>
   <g id="patch_88">
    <path clip-path="url(#pebf0aa252c)" d="M 349.78909 307.584 
L 353.035632 307.584 
L 353.035632 296.455309 
L 349.78909 296.455309 
z
" style="fill:#1f77b4;"/>
   </g>
   <g id="patch_89">
    <path clip-path="url(#pebf0aa252c)" d="M 353.035625 307.584 
L 356.282175 307.584 
L 356.282175 296.324408 
L 353.035625 296.324408 
z
" style="fill:#1f77b4;"/>
   </g>
   <g id="patch_90">
    <path clip-path="url(#pebf0aa252c)" d="M 356.282182 307.584 
L 359.528724 307.584 
L 359.528724 299.466602 
L 356.282182 299.466602 
z
" style="fill:#1f77b4;"/>
   </g>
   <g id="patch_91">
    <path clip-path="url(#pebf0aa252c)" d="M 359.528724 307.584 
L 362.775273 307.584 
L 362.775273 295.931631 
L 359.528724 295.931631 
z
" style="fill:#1f77b4;"/>
   </g>
   <g id="patch_92">
    <path clip-path="url(#pebf0aa252c)" d="M 362.775273 307.584 
L 366.021815 307.584 
L 366.021815 295.931606 
L 362.775273 295.931606 
z
" style="fill:#1f77b4;"/>
   </g>
   <g id="patch_93">
    <path clip-path="url(#pebf0aa252c)" d="M 366.021808 307.584 
L 369.268365 307.584 
L 369.268365 298.28829 
L 366.021808 298.28829 
z
" style="fill:#1f77b4;"/>
   </g>
   <g id="patch_94">
    <path clip-path="url(#pebf0aa252c)" d="M 369.268365 307.584 
L 372.514907 307.584 
L 372.514907 299.728454 
L 369.268365 299.728454 
z
" style="fill:#1f77b4;"/>
   </g>
   <g id="patch_95">
    <path clip-path="url(#pebf0aa252c)" d="M 372.514921 307.584 
L 375.761463 307.584 
L 375.761463 303.263449 
L 372.514921 303.263449 
z
" style="fill:#1f77b4;"/>
   </g>
   <g id="patch_96">
    <path clip-path="url(#pebf0aa252c)" d="M 375.761449 307.584 
L 379.008005 307.584 
L 379.008005 303.132543 
L 375.761449 303.132543 
z
" style="fill:#1f77b4;"/>
   </g>
   <g id="patch_97">
    <path clip-path="url(#pebf0aa252c)" d="M 379.008005 307.584 
L 382.254548 307.584 
L 382.254548 304.965485 
L 379.008005 304.965485 
z
" style="fill:#1f77b4;"/>
   </g>
   <g id="patch_98">
    <path clip-path="url(#pebf0aa252c)" d="M 382.254562 307.584 
L 385.501104 307.584 
L 385.501104 305.09641 
L 382.254562 305.09641 
z
" style="fill:#1f77b4;"/>
   </g>
   <g id="patch_99">
    <path clip-path="url(#pebf0aa252c)" d="M 385.50109 307.584 
L 388.747632 307.584 
L 388.747632 304.965485 
L 385.50109 304.965485 
z
" style="fill:#1f77b4;"/>
   </g>
   <g id="patch_100">
    <path clip-path="url(#pebf0aa252c)" d="M 388.747632 307.584 
L 391.994188 307.584 
L 391.994188 306.143823 
L 388.747632 306.143823 
z
" style="fill:#1f77b4;"/>
   </g>
   <g id="patch_101">
    <path clip-path="url(#pebf0aa252c)" d="M 391.994202 307.584 
L 395.240745 307.584 
L 395.240745 305.881965 
L 391.994202 305.881965 
z
" style="fill:#1f77b4;"/>
   </g>
   <g id="patch_102">
    <path clip-path="url(#pebf0aa252c)" d="M 395.24073 307.584 
L 398.487273 307.584 
L 398.487273 306.143816 
L 395.24073 306.143816 
z
" style="fill:#1f77b4;"/>
   </g>
   <g id="matplotlib.axis_1">
    <g id="xtick_1">
     <g id="line2d_1">
      <defs>
       <path d="M 0 0 
L 0 3.5 
" id="m3e2b07d851" style="stroke:#000000;stroke-width:0.8;"/>
      </defs>
      <g>
       <use style="stroke:#000000;stroke-width:0.8;" x="71.894147" xlink:href="#m3e2b07d851" y="307.584"/>
      </g>
     </g>
     <g id="text_1">
      <!-- −3 -->
      <defs>
       <path d="M 10.59375 35.5 
L 73.1875 35.5 
L 73.1875 27.203125 
L 10.59375 27.203125 
z
" id="DejaVuSans-8722"/>
       <path d="M 40.578125 39.3125 
Q 47.65625 37.796875 51.625 33 
Q 55.609375 28.21875 55.609375 21.1875 
Q 55.609375 10.40625 48.1875 4.484375 
Q 40.765625 -1.421875 27.09375 -1.421875 
Q 22.515625 -1.421875 17.65625 -0.515625 
Q 12.796875 0.390625 7.625 2.203125 
L 7.625 11.71875 
Q 11.71875 9.328125 16.59375 8.109375 
Q 21.484375 6.890625 26.8125 6.890625 
Q 36.078125 6.890625 40.9375 10.546875 
Q 45.796875 14.203125 45.796875 21.1875 
Q 45.796875 27.640625 41.28125 31.265625 
Q 36.765625 34.90625 28.71875 34.90625 
L 20.21875 34.90625 
L 20.21875 43.015625 
L 29.109375 43.015625 
Q 36.375 43.015625 40.234375 45.921875 
Q 44.09375 48.828125 44.09375 54.296875 
Q 44.09375 59.90625 40.109375 62.90625 
Q 36.140625 65.921875 28.71875 65.921875 
Q 24.65625 65.921875 20.015625 65.03125 
Q 15.375 64.15625 9.8125 62.3125 
L 9.8125 71.09375 
Q 15.4375 72.65625 20.34375 73.4375 
Q 25.25 74.21875 29.59375 74.21875 
Q 40.828125 74.21875 47.359375 69.109375 
Q 53.90625 64.015625 53.90625 55.328125 
Q 53.90625 49.265625 50.4375 45.09375 
Q 46.96875 40.921875 40.578125 39.3125 
z
" id="DejaVuSans-51"/>
      </defs>
      <g transform="translate(59.363288 327.501344)scale(0.17 -0.17)">
       <use xlink:href="#DejaVuSans-8722"/>
       <use x="83.789062" xlink:href="#DejaVuSans-51"/>
      </g>
     </g>
    </g>
    <g id="xtick_2">
     <g id="line2d_2">
      <g>
       <use style="stroke:#000000;stroke-width:0.8;" x="130.730829" xlink:href="#m3e2b07d851" y="307.584"/>
      </g>
     </g>
     <g id="text_2">
      <!-- −2 -->
      <defs>
       <path d="M 19.1875 8.296875 
L 53.609375 8.296875 
L 53.609375 0 
L 7.328125 0 
L 7.328125 8.296875 
Q 12.9375 14.109375 22.625 23.890625 
Q 32.328125 33.6875 34.8125 36.53125 
Q 39.546875 41.84375 41.421875 45.53125 
Q 43.3125 49.21875 43.3125 52.78125 
Q 43.3125 58.59375 39.234375 62.25 
Q 35.15625 65.921875 28.609375 65.921875 
Q 23.96875 65.921875 18.8125 64.3125 
Q 13.671875 62.703125 7.8125 59.421875 
L 7.8125 69.390625 
Q 13.765625 71.78125 18.9375 73 
Q 24.125 74.21875 28.421875 74.21875 
Q 39.75 74.21875 46.484375 68.546875 
Q 53.21875 62.890625 53.21875 53.421875 
Q 53.21875 48.921875 51.53125 44.890625 
Q 49.859375 40.875 45.40625 35.40625 
Q 44.1875 33.984375 37.640625 27.21875 
Q 31.109375 20.453125 19.1875 8.296875 
z
" id="DejaVuSans-50"/>
      </defs>
      <g transform="translate(118.199969 327.501344)scale(0.17 -0.17)">
       <use xlink:href="#DejaVuSans-8722"/>
       <use x="83.789062" xlink:href="#DejaVuSans-50"/>
      </g>
     </g>
    </g>
    <g id="xtick_3">
     <g id="line2d_3">
      <g>
       <use style="stroke:#000000;stroke-width:0.8;" x="189.56751" xlink:href="#m3e2b07d851" y="307.584"/>
      </g>
     </g>
     <g id="text_3">
      <!-- −1 -->
      <defs>
       <path d="M 12.40625 8.296875 
L 28.515625 8.296875 
L 28.515625 63.921875 
L 10.984375 60.40625 
L 10.984375 69.390625 
L 28.421875 72.90625 
L 38.28125 72.90625 
L 38.28125 8.296875 
L 54.390625 8.296875 
L 54.390625 0 
L 12.40625 0 
z
" id="DejaVuSans-49"/>
      </defs>
      <g transform="translate(177.036651 327.501344)scale(0.17 -0.17)">
       <use xlink:href="#DejaVuSans-8722"/>
       <use x="83.789062" xlink:href="#DejaVuSans-49"/>
      </g>
     </g>
    </g>
    <g id="xtick_4">
     <g id="line2d_4">
      <g>
       <use style="stroke:#000000;stroke-width:0.8;" x="248.404192" xlink:href="#m3e2b07d851" y="307.584"/>
      </g>
     </g>
     <g id="text_4">
      <!-- 0 -->
      <defs>
       <path d="M 31.78125 66.40625 
Q 24.171875 66.40625 20.328125 58.90625 
Q 16.5 51.421875 16.5 36.375 
Q 16.5 21.390625 20.328125 13.890625 
Q 24.171875 6.390625 31.78125 6.390625 
Q 39.453125 6.390625 43.28125 13.890625 
Q 47.125 21.390625 47.125 36.375 
Q 47.125 51.421875 43.28125 58.90625 
Q 39.453125 66.40625 31.78125 66.40625 
z
M 31.78125 74.21875 
Q 44.046875 74.21875 50.515625 64.515625 
Q 56.984375 54.828125 56.984375 36.375 
Q 56.984375 17.96875 50.515625 8.265625 
Q 44.046875 -1.421875 31.78125 -1.421875 
Q 19.53125 -1.421875 13.0625 8.265625 
Q 6.59375 17.96875 6.59375 36.375 
Q 6.59375 54.828125 13.0625 64.515625 
Q 19.53125 74.21875 31.78125 74.21875 
z
" id="DejaVuSans-48"/>
      </defs>
      <g transform="translate(242.996067 327.501344)scale(0.17 -0.17)">
       <use xlink:href="#DejaVuSans-48"/>
      </g>
     </g>
    </g>
    <g id="xtick_5">
     <g id="line2d_5">
      <g>
       <use style="stroke:#000000;stroke-width:0.8;" x="307.240873" xlink:href="#m3e2b07d851" y="307.584"/>
      </g>
     </g>
     <g id="text_5">
      <!-- 1 -->
      <g transform="translate(301.832748 327.501344)scale(0.17 -0.17)">
       <use xlink:href="#DejaVuSans-49"/>
      </g>
     </g>
    </g>
    <g id="xtick_6">
     <g id="line2d_6">
      <g>
       <use style="stroke:#000000;stroke-width:0.8;" x="366.077555" xlink:href="#m3e2b07d851" y="307.584"/>
      </g>
     </g>
     <g id="text_6">
      <!-- 2 -->
      <g transform="translate(360.66943 327.501344)scale(0.17 -0.17)">
       <use xlink:href="#DejaVuSans-50"/>
      </g>
     </g>
    </g>
    <g id="text_7">
     <!-- Position in Radian -->
     <defs>
      <path d="M 19.671875 64.796875 
L 19.671875 37.40625 
L 32.078125 37.40625 
Q 38.96875 37.40625 42.71875 40.96875 
Q 46.484375 44.53125 46.484375 51.125 
Q 46.484375 57.671875 42.71875 61.234375 
Q 38.96875 64.796875 32.078125 64.796875 
z
M 9.8125 72.90625 
L 32.078125 72.90625 
Q 44.34375 72.90625 50.609375 67.359375 
Q 56.890625 61.8125 56.890625 51.125 
Q 56.890625 40.328125 50.609375 34.8125 
Q 44.34375 29.296875 32.078125 29.296875 
L 19.671875 29.296875 
L 19.671875 0 
L 9.8125 0 
z
" id="DejaVuSans-80"/>
      <path d="M 30.609375 48.390625 
Q 23.390625 48.390625 19.1875 42.75 
Q 14.984375 37.109375 14.984375 27.296875 
Q 14.984375 17.484375 19.15625 11.84375 
Q 23.34375 6.203125 30.609375 6.203125 
Q 37.796875 6.203125 41.984375 11.859375 
Q 46.1875 17.53125 46.1875 27.296875 
Q 46.1875 37.015625 41.984375 42.703125 
Q 37.796875 48.390625 30.609375 48.390625 
z
M 30.609375 56 
Q 42.328125 56 49.015625 48.375 
Q 55.71875 40.765625 55.71875 27.296875 
Q 55.71875 13.875 49.015625 6.21875 
Q 42.328125 -1.421875 30.609375 -1.421875 
Q 18.84375 -1.421875 12.171875 6.21875 
Q 5.515625 13.875 5.515625 27.296875 
Q 5.515625 40.765625 12.171875 48.375 
Q 18.84375 56 30.609375 56 
z
" id="DejaVuSans-111"/>
      <path d="M 44.28125 53.078125 
L 44.28125 44.578125 
Q 40.484375 46.53125 36.375 47.5 
Q 32.28125 48.484375 27.875 48.484375 
Q 21.1875 48.484375 17.84375 46.4375 
Q 14.5 44.390625 14.5 40.28125 
Q 14.5 37.15625 16.890625 35.375 
Q 19.28125 33.59375 26.515625 31.984375 
L 29.59375 31.296875 
Q 39.15625 29.25 43.1875 25.515625 
Q 47.21875 21.78125 47.21875 15.09375 
Q 47.21875 7.46875 41.1875 3.015625 
Q 35.15625 -1.421875 24.609375 -1.421875 
Q 20.21875 -1.421875 15.453125 -0.5625 
Q 10.6875 0.296875 5.421875 2 
L 5.421875 11.28125 
Q 10.40625 8.6875 15.234375 7.390625 
Q 20.0625 6.109375 24.8125 6.109375 
Q 31.15625 6.109375 34.5625 8.28125 
Q 37.984375 10.453125 37.984375 14.40625 
Q 37.984375 18.0625 35.515625 20.015625 
Q 33.0625 21.96875 24.703125 23.78125 
L 21.578125 24.515625 
Q 13.234375 26.265625 9.515625 29.90625 
Q 5.8125 33.546875 5.8125 39.890625 
Q 5.8125 47.609375 11.28125 51.796875 
Q 16.75 56 26.8125 56 
Q 31.78125 56 36.171875 55.265625 
Q 40.578125 54.546875 44.28125 53.078125 
z
" id="DejaVuSans-115"/>
      <path d="M 9.421875 54.6875 
L 18.40625 54.6875 
L 18.40625 0 
L 9.421875 0 
z
M 9.421875 75.984375 
L 18.40625 75.984375 
L 18.40625 64.59375 
L 9.421875 64.59375 
z
" id="DejaVuSans-105"/>
      <path d="M 18.3125 70.21875 
L 18.3125 54.6875 
L 36.8125 54.6875 
L 36.8125 47.703125 
L 18.3125 47.703125 
L 18.3125 18.015625 
Q 18.3125 11.328125 20.140625 9.421875 
Q 21.96875 7.515625 27.59375 7.515625 
L 36.8125 7.515625 
L 36.8125 0 
L 27.59375 0 
Q 17.1875 0 13.234375 3.875 
Q 9.28125 7.765625 9.28125 18.015625 
L 9.28125 47.703125 
L 2.6875 47.703125 
L 2.6875 54.6875 
L 9.28125 54.6875 
L 9.28125 70.21875 
z
" id="DejaVuSans-116"/>
      <path d="M 54.890625 33.015625 
L 54.890625 0 
L 45.90625 0 
L 45.90625 32.71875 
Q 45.90625 40.484375 42.875 44.328125 
Q 39.84375 48.1875 33.796875 48.1875 
Q 26.515625 48.1875 22.3125 43.546875 
Q 18.109375 38.921875 18.109375 30.90625 
L 18.109375 0 
L 9.078125 0 
L 9.078125 54.6875 
L 18.109375 54.6875 
L 18.109375 46.1875 
Q 21.34375 51.125 25.703125 53.5625 
Q 30.078125 56 35.796875 56 
Q 45.21875 56 50.046875 50.171875 
Q 54.890625 44.34375 54.890625 33.015625 
z
" id="DejaVuSans-110"/>
      <path id="DejaVuSans-32"/>
      <path d="M 44.390625 34.1875 
Q 47.5625 33.109375 50.5625 29.59375 
Q 53.5625 26.078125 56.59375 19.921875 
L 66.609375 0 
L 56 0 
L 46.6875 18.703125 
Q 43.0625 26.03125 39.671875 28.421875 
Q 36.28125 30.8125 30.421875 30.8125 
L 19.671875 30.8125 
L 19.671875 0 
L 9.8125 0 
L 9.8125 72.90625 
L 32.078125 72.90625 
Q 44.578125 72.90625 50.734375 67.671875 
Q 56.890625 62.453125 56.890625 51.90625 
Q 56.890625 45.015625 53.6875 40.46875 
Q 50.484375 35.9375 44.390625 34.1875 
z
M 19.671875 64.796875 
L 19.671875 38.921875 
L 32.078125 38.921875 
Q 39.203125 38.921875 42.84375 42.21875 
Q 46.484375 45.515625 46.484375 51.90625 
Q 46.484375 58.296875 42.84375 61.546875 
Q 39.203125 64.796875 32.078125 64.796875 
z
" id="DejaVuSans-82"/>
      <path d="M 34.28125 27.484375 
Q 23.390625 27.484375 19.1875 25 
Q 14.984375 22.515625 14.984375 16.5 
Q 14.984375 11.71875 18.140625 8.90625 
Q 21.296875 6.109375 26.703125 6.109375 
Q 34.1875 6.109375 38.703125 11.40625 
Q 43.21875 16.703125 43.21875 25.484375 
L 43.21875 27.484375 
z
M 52.203125 31.203125 
L 52.203125 0 
L 43.21875 0 
L 43.21875 8.296875 
Q 40.140625 3.328125 35.546875 0.953125 
Q 30.953125 -1.421875 24.3125 -1.421875 
Q 15.921875 -1.421875 10.953125 3.296875 
Q 6 8.015625 6 15.921875 
Q 6 25.140625 12.171875 29.828125 
Q 18.359375 34.515625 30.609375 34.515625 
L 43.21875 34.515625 
L 43.21875 35.40625 
Q 43.21875 41.609375 39.140625 45 
Q 35.0625 48.390625 27.6875 48.390625 
Q 23 48.390625 18.546875 47.265625 
Q 14.109375 46.140625 10.015625 43.890625 
L 10.015625 52.203125 
Q 14.9375 54.109375 19.578125 55.046875 
Q 24.21875 56 28.609375 56 
Q 40.484375 56 46.34375 49.84375 
Q 52.203125 43.703125 52.203125 31.203125 
z
" id="DejaVuSans-97"/>
      <path d="M 45.40625 46.390625 
L 45.40625 75.984375 
L 54.390625 75.984375 
L 54.390625 0 
L 45.40625 0 
L 45.40625 8.203125 
Q 42.578125 3.328125 38.25 0.953125 
Q 33.9375 -1.421875 27.875 -1.421875 
Q 17.96875 -1.421875 11.734375 6.484375 
Q 5.515625 14.40625 5.515625 27.296875 
Q 5.515625 40.1875 11.734375 48.09375 
Q 17.96875 56 27.875 56 
Q 33.9375 56 38.25 53.625 
Q 42.578125 51.265625 45.40625 46.390625 
z
M 14.796875 27.296875 
Q 14.796875 17.390625 18.875 11.75 
Q 22.953125 6.109375 30.078125 6.109375 
Q 37.203125 6.109375 41.296875 11.75 
Q 45.40625 17.390625 45.40625 27.296875 
Q 45.40625 37.203125 41.296875 42.84375 
Q 37.203125 48.484375 30.078125 48.484375 
Q 22.953125 48.484375 18.875 42.84375 
Q 14.796875 37.203125 14.796875 27.296875 
z
" id="DejaVuSans-100"/>
     </defs>
     <g transform="translate(102.024844 357.832125)scale(0.3 -0.3)">
      <use xlink:href="#DejaVuSans-80"/>
      <use x="60.255859" xlink:href="#DejaVuSans-111"/>
      <use x="121.4375" xlink:href="#DejaVuSans-115"/>
      <use x="173.537109" xlink:href="#DejaVuSans-105"/>
      <use x="201.320312" xlink:href="#DejaVuSans-116"/>
      <use x="240.529297" xlink:href="#DejaVuSans-105"/>
      <use x="268.3125" xlink:href="#DejaVuSans-111"/>
      <use x="329.494141" xlink:href="#DejaVuSans-110"/>
      <use x="392.873047" xlink:href="#DejaVuSans-32"/>
      <use x="424.660156" xlink:href="#DejaVuSans-105"/>
      <use x="452.443359" xlink:href="#DejaVuSans-110"/>
      <use x="515.822266" xlink:href="#DejaVuSans-32"/>
      <use x="547.609375" xlink:href="#DejaVuSans-82"/>
      <use x="617.060547" xlink:href="#DejaVuSans-97"/>
      <use x="678.339844" xlink:href="#DejaVuSans-100"/>
      <use x="741.816406" xlink:href="#DejaVuSans-105"/>
      <use x="769.599609" xlink:href="#DejaVuSans-97"/>
      <use x="830.878906" xlink:href="#DejaVuSans-110"/>
     </g>
    </g>
   </g>
   <g id="matplotlib.axis_2">
    <g id="ytick_1">
     <g id="line2d_7">
      <defs>
       <path d="M 0 0 
L -3.5 0 
" id="m206549108a" style="stroke:#000000;stroke-width:0.8;"/>
      </defs>
      <g>
       <use style="stroke:#000000;stroke-width:0.8;" x="57.6" xlink:href="#m206549108a" y="307.584"/>
      </g>
     </g>
     <g id="text_8">
      <!-- 0.0 -->
      <defs>
       <path d="M 10.6875 12.40625 
L 21 12.40625 
L 21 0 
L 10.6875 0 
z
" id="DejaVuSans-46"/>
      </defs>
      <g transform="translate(23.564687 314.042672)scale(0.17 -0.17)">
       <use xlink:href="#DejaVuSans-48"/>
       <use x="63.623047" xlink:href="#DejaVuSans-46"/>
       <use x="95.410156" xlink:href="#DejaVuSans-48"/>
      </g>
     </g>
    </g>
    <g id="ytick_2">
     <g id="line2d_8">
      <g>
       <use style="stroke:#000000;stroke-width:0.8;" x="57.6" xlink:href="#m206549108a" y="235.340623"/>
      </g>
     </g>
     <g id="text_9">
      <!-- 0.5 -->
      <defs>
       <path d="M 10.796875 72.90625 
L 49.515625 72.90625 
L 49.515625 64.59375 
L 19.828125 64.59375 
L 19.828125 46.734375 
Q 21.96875 47.46875 24.109375 47.828125 
Q 26.265625 48.1875 28.421875 48.1875 
Q 40.625 48.1875 47.75 41.5 
Q 54.890625 34.8125 54.890625 23.390625 
Q 54.890625 11.625 47.5625 5.09375 
Q 40.234375 -1.421875 26.90625 -1.421875 
Q 22.3125 -1.421875 17.546875 -0.640625 
Q 12.796875 0.140625 7.71875 1.703125 
L 7.71875 11.625 
Q 12.109375 9.234375 16.796875 8.0625 
Q 21.484375 6.890625 26.703125 6.890625 
Q 35.15625 6.890625 40.078125 11.328125 
Q 45.015625 15.765625 45.015625 23.390625 
Q 45.015625 31 40.078125 35.4375 
Q 35.15625 39.890625 26.703125 39.890625 
Q 22.75 39.890625 18.8125 39.015625 
Q 14.890625 38.140625 10.796875 36.28125 
z
" id="DejaVuSans-53"/>
      </defs>
      <g transform="translate(23.564687 241.799295)scale(0.17 -0.17)">
       <use xlink:href="#DejaVuSans-48"/>
       <use x="63.623047" xlink:href="#DejaVuSans-46"/>
       <use x="95.410156" xlink:href="#DejaVuSans-53"/>
      </g>
     </g>
    </g>
    <g id="ytick_3">
     <g id="line2d_9">
      <g>
       <use style="stroke:#000000;stroke-width:0.8;" x="57.6" xlink:href="#m206549108a" y="163.097246"/>
      </g>
     </g>
     <g id="text_10">
      <!-- 1.0 -->
      <g transform="translate(23.564687 169.555918)scale(0.17 -0.17)">
       <use xlink:href="#DejaVuSans-49"/>
       <use x="63.623047" xlink:href="#DejaVuSans-46"/>
       <use x="95.410156" xlink:href="#DejaVuSans-48"/>
      </g>
     </g>
    </g>
    <g id="ytick_4">
     <g id="line2d_10">
      <g>
       <use style="stroke:#000000;stroke-width:0.8;" x="57.6" xlink:href="#m206549108a" y="90.853869"/>
      </g>
     </g>
     <g id="text_11">
      <!-- 1.5 -->
      <g transform="translate(23.564687 97.31254)scale(0.17 -0.17)">
       <use xlink:href="#DejaVuSans-49"/>
       <use x="63.623047" xlink:href="#DejaVuSans-46"/>
       <use x="95.410156" xlink:href="#DejaVuSans-53"/>
      </g>
     </g>
    </g>
    <g id="text_12">
     <!-- Density -->
     <defs>
      <path d="M 19.671875 64.796875 
L 19.671875 8.109375 
L 31.59375 8.109375 
Q 46.6875 8.109375 53.6875 14.9375 
Q 60.6875 21.78125 60.6875 36.53125 
Q 60.6875 51.171875 53.6875 57.984375 
Q 46.6875 64.796875 31.59375 64.796875 
z
M 9.8125 72.90625 
L 30.078125 72.90625 
Q 51.265625 72.90625 61.171875 64.09375 
Q 71.09375 55.28125 71.09375 36.53125 
Q 71.09375 17.671875 61.125 8.828125 
Q 51.171875 0 30.078125 0 
L 9.8125 0 
z
" id="DejaVuSans-68"/>
      <path d="M 56.203125 29.59375 
L 56.203125 25.203125 
L 14.890625 25.203125 
Q 15.484375 15.921875 20.484375 11.0625 
Q 25.484375 6.203125 34.421875 6.203125 
Q 39.59375 6.203125 44.453125 7.46875 
Q 49.3125 8.734375 54.109375 11.28125 
L 54.109375 2.78125 
Q 49.265625 0.734375 44.1875 -0.34375 
Q 39.109375 -1.421875 33.890625 -1.421875 
Q 20.796875 -1.421875 13.15625 6.1875 
Q 5.515625 13.8125 5.515625 26.8125 
Q 5.515625 40.234375 12.765625 48.109375 
Q 20.015625 56 32.328125 56 
Q 43.359375 56 49.78125 48.890625 
Q 56.203125 41.796875 56.203125 29.59375 
z
M 47.21875 32.234375 
Q 47.125 39.59375 43.09375 43.984375 
Q 39.0625 48.390625 32.421875 48.390625 
Q 24.90625 48.390625 20.390625 44.140625 
Q 15.875 39.890625 15.1875 32.171875 
z
" id="DejaVuSans-101"/>
      <path d="M 32.171875 -5.078125 
Q 28.375 -14.84375 24.75 -17.8125 
Q 21.140625 -20.796875 15.09375 -20.796875 
L 7.90625 -20.796875 
L 7.90625 -13.28125 
L 13.1875 -13.28125 
Q 16.890625 -13.28125 18.9375 -11.515625 
Q 21 -9.765625 23.484375 -3.21875 
L 25.09375 0.875 
L 2.984375 54.6875 
L 12.5 54.6875 
L 29.59375 11.921875 
L 46.6875 54.6875 
L 56.203125 54.6875 
z
" id="DejaVuSans-121"/>
     </defs>
     <g transform="translate(13.325625 231.553781)rotate(-90)scale(0.3 -0.3)">
      <use xlink:href="#DejaVuSans-68"/>
      <use x="77.001953" xlink:href="#DejaVuSans-101"/>
      <use x="138.525391" xlink:href="#DejaVuSans-110"/>
      <use x="201.904297" xlink:href="#DejaVuSans-115"/>
      <use x="254.003906" xlink:href="#DejaVuSans-105"/>
      <use x="281.787109" xlink:href="#DejaVuSans-116"/>
      <use x="320.996094" xlink:href="#DejaVuSans-121"/>
     </g>
    </g>
   </g>
   <g id="line2d_11">
    <path clip-path="url(#pebf0aa252c)" d="M 101.312488 305.677632 
L 102.298002 306.131443 
L 103.290871 306.185183 
L 104.188131 306.279875 
L 104.504378 306.044835 
L 104.967717 305.345536 
L 105.43841 304.794038 
L 105.776721 304.728806 
L 106.33567 304.659652 
L 106.644562 304.334212 
L 107.056419 303.527469 
L 107.718332 301.672006 
L 108.380244 299.949466 
L 108.608236 299.846016 
L 108.80681 300.034243 
L 109.218667 300.856871 
L 109.637878 301.458819 
L 109.968835 301.561277 
L 110.601329 301.67903 
L 110.93964 302.050413 
L 111.358851 302.889116 
L 112.594422 305.636886 
L 112.903314 305.721183 
L 113.293107 305.563814 
L 115.903985 304.152168 
L 116.536479 303.977594 
L 116.977754 303.885914 
L 117.271938 304.083923 
L 117.970623 304.631235 
L 118.294225 304.526084 
L 119.375349 303.790841 
L 119.816624 302.995794 
L 120.316736 302.240966 
L 120.632983 302.141147 
L 121.147804 302.030426 
L 121.456697 301.640438 
L 122.125964 300.289565 
L 123.015869 298.72975 
L 123.413016 298.40969 
L 123.7881 298.396773 
L 124.251439 298.358543 
L 124.530913 298.066857 
L 124.94277 297.241218 
L 125.553201 296.12776 
L 125.876802 295.937793 
L 126.119504 296.037917 
L 126.376914 296.424463 
L 126.788771 297.543234 
L 127.266819 298.630465 
L 127.516875 298.741809 
L 127.87725 298.576059 
L 128.156724 298.573728 
L 128.421489 298.829485 
L 130.098334 300.959045 
L 130.436645 301.036415 
L 130.760247 300.862222 
L 131.355968 300.52215 
L 131.628088 300.653116 
L 132.532702 301.295309 
L 132.73863 300.94288 
L 133.054878 299.863911 
L 133.775627 297.329638 
L 134.040392 297.104687 
L 134.275739 297.194579 
L 135.371572 297.902642 
L 135.76872 298.157532 
L 136.842489 299.038004 
L 137.327892 299.083252 
L 137.644139 298.893477 
L 138.041286 298.345927 
L 138.681135 297.512401 
L 139.21802 297.272613 
L 139.526913 296.977428 
L 139.835805 296.315078 
L 140.894865 293.660038 
L 141.071375 293.825826 
L 141.372913 294.507817 
L 141.968635 295.808699 
L 142.358428 296.105346 
L 142.932086 296.271713 
L 143.196851 296.10864 
L 144.005855 295.427498 
L 144.263265 295.70728 
L 144.89576 296.442567 
L 145.167879 296.402901 
L 145.579736 296.060634 
L 146.521123 294.949963 
L 146.903562 294.647297 
L 147.124199 294.735004 
L 147.440446 295.170245 
L 147.881721 295.683538 
L 148.117068 295.653514 
L 148.536279 295.287966 
L 148.918718 295.105605 
L 149.271738 295.205995 
L 149.904232 295.395967 
L 150.566145 295.485253 
L 151.286894 295.775522 
L 151.647269 295.540862 
L 152.051771 295.353581 
L 152.301827 295.489807 
L 152.640138 295.979839 
L 153.412369 297.615189 
L 153.875708 298.332374 
L 154.19931 298.456694 
L 154.64794 298.595854 
L 154.920059 299.000716 
L 155.383398 300.201816 
L 155.934992 301.406315 
L 156.265948 301.669808 
L 156.574841 301.64163 
L 156.979343 301.35523 
L 157.347073 300.82723 
L 157.678029 299.902952 
L 158.715025 296.557734 
L 158.876826 296.690562 
L 159.163655 297.312365 
L 159.619639 298.192614 
L 159.803504 298.180122 
L 160.009432 297.873459 
L 160.730182 296.598954 
L 160.914046 296.754978 
L 161.656859 297.625341 
L 161.862788 297.359069 
L 162.215808 296.444531 
L 163.054231 294.224108 
L 163.399896 293.915868 
L 164.686949 293.222812 
L 165.032614 292.466832 
L 165.753363 290.829313 
L 166.010774 290.745118 
L 166.635914 290.739511 
L 166.87126 290.291015 
L 167.275763 288.908781 
L 167.797938 287.379536 
L 168.128894 287.018304 
L 168.445142 286.977035 
L 168.724616 287.164744 
L 169.033508 287.684445 
L 169.724839 288.925493 
L 169.996959 288.933724 
L 170.283788 288.984487 
L 170.482362 289.299539 
L 170.776545 290.283883 
L 171.467876 292.661122 
L 171.813542 293.032677 
L 172.298944 293.521362 
L 173.284459 294.737082 
L 173.762507 294.966596 
L 173.96108 294.832948 
L 174.174363 294.368802 
L 174.461192 293.112257 
L 175.417288 288.386836 
L 175.579089 288.392412 
L 175.785018 288.715635 
L 176.27042 289.486486 
L 176.417512 289.380793 
L 176.62344 288.876906 
L 177.579536 286.060467 
L 178.22674 285.734289 
L 178.557696 284.910207 
L 179.175481 283.432104 
L 179.477019 283.229304 
L 179.800621 283.301444 
L 181.006773 283.936415 
L 181.389211 284.796074 
L 182.941029 289.301278 
L 183.485268 290.823049 
L 183.698551 290.914124 
L 183.882416 290.710418 
L 184.331046 289.719112 
L 184.617874 289.393506 
L 184.78703 289.477056 
L 185.015022 289.906406 
L 185.993182 292.114669 
L 186.309429 292.113089 
L 186.669804 292.166007 
L 187.00076 292.490908 
L 187.522936 292.969976 
L 187.765637 292.906557 
L 188.126012 292.518666 
L 188.545223 292.175403 
L 188.773215 292.25519 
L 189.111526 292.674364 
L 189.501319 293.036235 
L 189.692538 292.940385 
L 189.913176 292.523372 
L 190.236777 291.344695 
L 191.214937 287.426208 
L 191.42822 287.340171 
L 191.634149 287.532082 
L 192.369607 288.386345 
L 192.590245 288.197829 
L 193.266867 287.483143 
L 193.590468 287.623518 
L 193.884652 287.642916 
L 194.142062 287.389149 
L 194.678947 286.833061 
L 194.877521 286.941786 
L 195.179059 287.425919 
L 195.848326 288.49509 
L 196.583784 289.358433 
L 197.275115 290.460209 
L 197.422207 290.313924 
L 197.628136 289.716913 
L 197.995865 287.797494 
L 198.540104 285.249255 
L 198.841642 284.73066 
L 199.069634 284.698752 
L 199.297626 284.918017 
L 199.635937 285.615304 
L 200.091922 286.439513 
L 200.268432 286.412266 
L 200.489069 286.082714 
L 200.981826 285.332268 
L 201.136273 285.445335 
L 201.342201 285.952666 
L 201.776122 287.807774 
L 202.195333 289.157346 
L 202.438034 289.346226 
L 202.673381 289.226433 
L 203.070529 289.041273 
L 203.276457 289.218306 
L 203.57064 289.839149 
L 204.188426 291.805594 
L 205.129812 294.792731 
L 205.306323 294.789492 
L 205.497542 294.488638 
L 206.291837 292.781691 
L 206.343319 292.820742 
L 206.519829 293.17161 
L 206.843431 294.453271 
L 207.30677 296.051225 
L 207.490634 296.11929 
L 207.652435 295.87348 
L 207.983392 294.833295 
L 208.402603 293.778429 
L 208.601177 293.728996 
L 208.807105 293.965041 
L 209.358699 294.670498 
L 209.505791 294.488716 
L 209.704364 293.803192 
L 209.998548 291.849794 
L 210.93258 285.039698 
L 211.182636 284.703972 
L 211.65333 284.420833 
L 211.866612 283.732542 
L 212.18286 281.808527 
L 213.043346 276.260561 
L 213.984733 272.278973 
L 214.654 268.768106 
L 215.02173 268.030028 
L 215.440941 267.175804 
L 216.213172 265.40411 
L 216.463228 265.35035 
L 216.735348 265.538957 
L 217.051595 266.043925 
L 217.485516 267.246925 
L 217.904727 268.167555 
L 218.103301 268.197125 
L 218.323938 267.947866 
L 218.91966 267.226017 
L 219.265325 267.231073 
L 219.956656 267.453365 
L 220.184648 267.92904 
L 220.493541 269.190949 
L 221.170163 272.01879 
L 221.420219 272.237098 
L 221.912976 272.439696 
L 222.236578 273.04017 
L 222.949972 274.886061 
L 223.361829 276.874108 
L 223.847232 278.919097 
L 224.082578 279.163073 
L 224.273798 279.056584 
L 224.700364 278.456912 
L 225.244603 277.385925 
L 225.766778 275.788726 
L 226.208054 273.717678 
L 227.414206 267.325018 
L 227.583361 267.362912 
L 228.149664 267.783657 
L 228.179082 267.747186 
L 228.362947 267.293039 
L 228.642421 265.888169 
L 229.208724 261.573419 
L 229.819155 257.579825 
L 230.16482 256.570113 
L 230.481068 256.266347 
L 231.326845 255.886259 
L 231.547482 256.226477 
L 232.054949 257.064894 
L 232.062303 257.061088 
L 232.187331 256.861504 
L 232.371196 256.036818 
L 232.643316 253.58414 
L 233.187555 246.018098 
L 233.695021 240.386601 
L 234.018623 238.863092 
L 234.371643 238.246558 
L 234.643763 237.594941 
L 234.967365 236.095775 
L 235.835206 231.806219 
L 237.078131 228.381523 
L 237.850362 226.184546 
L 238.372538 223.8513 
L 238.754976 221.030878 
L 239.233024 215.537038 
L 240.071447 205.994331 
L 240.409758 204.413505 
L 241.049607 202.338957 
L 241.336435 199.710251 
L 241.814483 192.760175 
L 242.424914 184.88597 
L 242.895607 181.77557 
L 243.241273 179.002052 
L 243.564875 174.26124 
L 244.013504 163.751664 
L 244.623935 150.457507 
L 244.859282 149.008606 
L 244.932827 149.094773 
L 245.057855 149.792557 
L 245.285848 152.594314 
L 245.763896 161.994155 
L 246.256653 169.935802 
L 246.499354 171.172608 
L 246.565545 171.128191 
L 246.580255 171.094649 
L 246.705283 170.438464 
L 246.889147 168.058801 
L 247.117139 161.757019 
L 247.381904 147.159571 
L 247.72757 113.389182 
L 248.323291 55.935771 
L 248.426255 54.144 
L 248.470383 54.44471 
L 248.573347 57.573691 
L 248.779276 72.513214 
L 249.713308 150.916778 
L 249.978073 155.704912 
L 250.11781 156.179145 
L 250.147228 156.153914 
L 250.250193 155.797283 
L 250.47083 154.004627 
L 250.904751 148.292105 
L 251.919683 134.474717 
L 251.971166 134.446429 
L 252.015293 134.525126 
L 252.132966 135.208809 
L 252.346249 138.09336 
L 253.397955 154.986746 
L 253.478855 155.039095 
L 253.522983 154.991013 
L 253.66272 154.538112 
L 253.971613 152.549271 
L 254.398179 150.225674 
L 254.501143 150.148308 
L 254.537916 150.186789 
L 254.662944 150.600961 
L 254.861517 152.198674 
L 255.185119 156.99114 
L 256.05296 170.572032 
L 256.303016 171.591557 
L 256.391271 171.542698 
L 256.398626 171.528969 
L 256.538363 170.989248 
L 256.77371 168.968092 
L 257.590069 160.92157 
L 257.597423 160.922331 
L 257.678324 161.057637 
L 257.83277 161.902641 
L 258.193145 165.521338 
L 258.612356 168.763852 
L 258.906539 169.546232 
L 259.252205 170.318473 
L 259.561097 171.806593 
L 260.039145 173.933292 
L 260.178883 173.992095 
L 260.193592 173.980044 
L 260.348038 173.671585 
L 261.112915 171.56276 
L 261.157042 171.591071 
L 261.311489 171.884994 
L 261.524772 172.844547 
L 261.796891 175.250039 
L 262.142557 180.592338 
L 263.253099 199.412952 
L 263.745856 207.417808 
L 264.804917 225.927373 
L 266.069905 239.590229 
L 266.474407 242.023004 
L 266.930392 243.358785 
L 267.276057 244.661677 
L 267.658496 247.141475 
L 268.857293 255.603575 
L 269.114704 256.006832 
L 269.673652 256.378923 
L 269.901644 257.300916 
L 270.254664 259.869004 
L 270.997477 265.301907 
L 271.232824 265.725542 
L 271.365207 265.620664 
L 271.57849 265.064627 
L 272.159502 263.488219 
L 272.291884 263.575552 
L 272.468394 264.058965 
L 272.81406 265.838375 
L 273.233271 267.582822 
L 273.380363 267.66359 
L 273.402427 267.647234 
L 273.549518 267.361251 
L 273.821638 266.224422 
L 274.424714 263.734354 
L 274.645352 263.551067 
L 274.814507 263.702424 
L 275.093981 264.334722 
L 275.748539 266.503446 
L 276.197169 268.762896 
L 276.859082 272.084228 
L 277.06501 272.281067 
L 277.219456 272.135316 
L 277.59454 271.330088 
L 277.910787 270.936305 
L 278.116716 270.988201 
L 278.66831 271.263146 
L 278.852174 270.953719 
L 279.109585 269.995364 
L 279.705306 266.569454 
L 280.095099 265.099448 
L 280.323091 264.882909 
L 280.492247 264.998087 
L 280.742303 265.496248 
L 281.102677 266.767249 
L 281.566016 269.322765 
L 282.235284 272.832728 
L 282.603013 273.629847 
L 283.19138 274.748106 
L 283.845938 276.045014 
L 284.15483 276.207499 
L 284.919707 276.37045 
L 285.191827 276.921904 
L 285.58162 278.296785 
L 286.067022 280.878955 
L 287.44233 288.943812 
L 288.280753 291.177484 
L 288.736737 292.016836 
L 289.008857 292.117518 
L 289.38394 291.953805 
L 289.957598 291.78155 
L 290.545965 291.542231 
L 291.104913 291.37321 
L 291.972754 291.260726 
L 292.259583 290.841628 
L 292.619958 289.852546 
L 293.29658 287.971295 
L 293.502508 287.912192 
L 293.708436 288.127297 
L 294.399767 288.998337 
L 294.583632 288.822972 
L 294.870461 288.158325 
L 295.422055 286.91565 
L 295.620629 286.903288 
L 295.855975 287.185963 
L 296.319314 287.727651 
L 296.495824 287.615568 
L 296.753235 287.099551 
L 297.201864 286.270394 
L 297.334247 286.355848 
L 297.510757 286.820153 
L 297.81965 288.42185 
L 298.356534 291.025186 
L 298.533044 291.163708 
L 298.540399 291.159995 
L 298.687491 290.942794 
L 298.974319 289.982668 
L 299.415595 288.693188 
L 299.592105 288.648991 
L 299.76126 288.887771 
L 300.070153 289.802262 
L 300.857093 292.180306 
L 301.114504 292.37269 
L 301.298368 292.249036 
L 301.570488 291.733716 
L 302.519229 289.71552 
L 302.703094 289.758151 
L 302.894313 290.088 
L 303.188497 291.138049 
L 303.93131 293.930844 
L 304.151947 294.055726 
L 304.394649 293.896734 
L 304.791796 293.677404 
L 305.049207 293.817274 
L 305.586092 294.149007 
L 305.806729 293.986462 
L 306.115622 293.418803 
L 307.196746 291.18837 
L 308.08665 289.858714 
L 309.138356 288.131474 
L 309.520795 287.927568 
L 309.984133 287.712485 
L 310.21948 287.251226 
L 310.543082 286.016179 
L 311.160867 283.657808 
L 311.337377 283.604404 
L 311.499178 283.877837 
L 311.778652 284.90665 
L 312.521465 287.748601 
L 312.793585 288.002667 
L 313.514334 288.271264 
L 313.793809 289.02043 
L 314.654295 291.606291 
L 314.911706 291.670912 
L 315.316208 291.741218 
L 315.639809 292.126377 
L 316.213467 292.77037 
L 316.948926 293.127786 
L 317.169563 293.006911 
L 317.419619 292.565407 
L 317.93444 291.038179 
L 318.346297 290.179574 
L 318.566934 290.114404 
L 318.750799 290.320662 
L 319.015564 291.028132 
L 319.964306 293.976402 
L 319.97166 293.973754 
L 320.111397 293.79182 
L 320.317326 293.070892 
L 320.692409 290.742702 
L 321.199876 287.971865 
L 321.39845 287.740653 
L 321.405804 287.743489 
L 321.538187 287.925471 
L 321.766179 288.717594 
L 322.45751 291.296819 
L 322.604602 291.262244 
L 322.781112 290.876149 
L 323.156196 289.334679 
L 323.560698 288.060879 
L 323.751917 287.972134 
L 323.913718 288.172583 
L 324.178483 288.939897 
L 324.685949 291.254903 
L 325.333153 293.919846 
L 325.6494 294.431662 
L 325.936229 294.505232 
L 326.326022 294.602075 
L 326.590787 294.971969 
L 327.340954 296.171889 
L 327.539528 296.042982 
L 327.899903 295.441965 
L 328.591234 294.398849 
L 329.142828 293.354379 
L 329.473784 292.96283 
L 329.657649 293.033429 
L 329.892996 293.437806 
L 330.613745 294.824439 
L 330.849092 294.797823 
L 331.650741 294.504113 
L 332.180272 294.513265 
L 332.430327 294.222694 
L 333.195204 293.138823 
L 333.386424 293.365345 
L 334.180719 294.576984 
L 334.401356 294.374906 
L 334.894113 293.895523 
L 335.063269 294.050285 
L 335.298616 294.655568 
L 336.298839 297.700149 
L 336.578313 297.731495 
L 337.041652 297.771514 
L 337.850657 298.067666 
L 338.188968 297.751415 
L 338.586115 297.4658 
L 338.777334 297.585224 
L 339.020036 298.065961 
L 339.917295 300.203797 
L 339.92465 300.200788 
L 340.086451 300.007134 
L 340.35857 299.240539 
L 340.917519 297.689823 
L 341.108738 297.645802 
L 341.307312 297.875504 
L 342.108962 299.012415 
L 342.535527 299.006682 
L 342.976803 299.107586 
L 344.006445 299.689414 
L 344.337401 300.233452 
L 345.271433 301.999235 
L 345.462652 301.862839 
L 345.76419 301.294269 
L 346.323139 300.297501 
L 346.609968 300.201279 
L 347.27188 300.137171 
L 347.595482 299.715856 
L 348.60306 298.241331 
L 349.05169 297.515004 
L 349.897467 296.053013 
L 350.265197 295.88645 
L 350.838854 295.928936 
L 351.44193 296.120098 
L 351.817014 296.532361 
L 352.728983 297.643104 
L 352.971684 297.60527 
L 353.214385 297.301335 
L 353.596824 296.37162 
L 354.074872 295.388509 
L 354.310218 295.32257 
L 354.55292 295.525125 
L 355.589916 296.63653 
L 356.112092 296.912828 
L 356.435693 297.437518 
L 357.369726 299.121546 
L 358.325822 300.022606 
L 358.649424 300.255813 
L 358.847997 300.136351 
L 359.112763 299.651674 
L 360.605743 295.853247 
L 361.083791 294.755493 
L 361.341202 294.614986 
L 361.569194 294.747372 
L 361.929569 295.269101 
L 362.745928 296.493607 
L 362.959211 296.445337 
L 363.201912 296.102607 
L 364.099171 294.569455 
L 364.29039 294.734423 
L 364.599283 295.370942 
L 365.378869 297.009821 
L 365.81279 297.426525 
L 366.106973 297.438836 
L 366.526184 297.164363 
L 366.857141 297.07751 
L 367.121906 297.25919 
L 367.519053 297.859452 
L 368.408958 299.24627 
L 368.695787 299.27849 
L 369.335636 299.223261 
L 369.696011 299.564833 
L 370.313796 300.112853 
L 370.637397 300.117748 
L 371.005127 299.869622 
L 371.490529 299.584924 
L 371.718522 299.707876 
L 372.00535 300.167692 
L 372.53488 301.55285 
L 373.108538 302.817312 
L 373.439494 303.072149 
L 374.814802 303.360837 
L 375.072212 303.041931 
L 376.028308 301.575547 
L 376.241591 301.76953 
L 376.616675 302.491783 
L 377.271233 303.666773 
L 377.719863 304.012718 
L 378.447967 304.51937 
L 379.28639 305.18682 
L 380.014494 305.370339 
L 380.639633 305.355619 
L 381.014717 305.110665 
L 381.617793 304.356203 
L 382.02965 304.046674 
L 382.375315 304.06741 
L 382.868073 304.35226 
L 383.397603 304.914236 
L 384.140416 305.691314 
L 384.5155 305.755394 
L 384.94942 305.582141 
L 386.508592 304.767639 
L 388.075119 305.247807 
L 389.523972 306.277503 
L 389.979957 306.290799 
L 390.421232 306.049537 
L 390.98018 305.789703 
L 391.355264 305.893956 
L 391.899503 306.033948 
L 392.23046 305.842014 
L 392.774699 305.530124 
L 393.032109 305.667433 
L 393.951433 306.387346 
L 394.245616 306.147341 
L 395.128166 305.304386 
L 395.459122 305.347631 
L 395.488541 305.362252 
L 395.488541 305.362252 
" style="fill:none;stroke:#ff7f0e;stroke-linecap:square;stroke-width:1.5;"/>
   </g>
   <g id="patch_103">
    <path d="M 57.6 307.584 
L 57.6 41.472 
" style="fill:none;stroke:#000000;stroke-linecap:square;stroke-linejoin:miter;stroke-width:0.8;"/>
   </g>
   <g id="patch_104">
    <path d="M 414.72 307.584 
L 414.72 41.472 
" style="fill:none;stroke:#000000;stroke-linecap:square;stroke-linejoin:miter;stroke-width:0.8;"/>
   </g>
   <g id="patch_105">
    <path d="M 57.6 307.584 
L 414.72 307.584 
" style="fill:none;stroke:#000000;stroke-linecap:square;stroke-linejoin:miter;stroke-width:0.8;"/>
   </g>
   <g id="patch_106">
    <path d="M 57.6 41.472 
L 414.72 41.472 
" style="fill:none;stroke:#000000;stroke-linecap:square;stroke-linejoin:miter;stroke-width:0.8;"/>
   </g>
  </g>
 </g>
 <defs>
  <clipPath id="pebf0aa252c">
   <rect height="266.112" width="357.12" x="57.6" y="41.472"/>
  </clipPath>
 </defs>
</svg>
