<?xml version="1.0" encoding="utf-8" standalone="no"?>
<!DOCTYPE svg PUBLIC "-//W3C//DTD SVG 1.1//EN"
  "http://www.w3.org/Graphics/SVG/1.1/DTD/svg11.dtd">
<!-- Created with matplotlib (https://matplotlib.org/) -->
<svg height="345.6pt" version="1.1" viewBox="0 0 460.8 345.6" width="460.8pt" xmlns="http://www.w3.org/2000/svg" xmlns:xlink="http://www.w3.org/1999/xlink">
 <defs>
  <style type="text/css">
*{stroke-linecap:butt;stroke-linejoin:round;}
  </style>
 </defs>
 <g id="figure_1">
  <g id="patch_1">
   <path d="M 0 345.6 
L 460.8 345.6 
L 460.8 0 
L 0 0 
z
" style="fill:#ffffff;"/>
  </g>
  <g id="axes_1">
   <g id="patch_2">
    <path d="M 57.6 307.584 
L 414.72 307.584 
L 414.72 41.472 
L 57.6 41.472 
z
" style="fill:#ffffff;"/>
   </g>
   <g id="patch_3">
    <path clip-path="url(#p75c2545b93)" d="M 84.345674 307.584 
L 87.487095 307.584 
L 87.487095 305.653166 
L 84.345674 305.653166 
z
" style="fill:#1f77b4;"/>
   </g>
   <g id="patch_4">
    <path clip-path="url(#p75c2545b93)" d="M 87.487095 307.584 
L 90.628502 307.584 
L 90.628502 304.880819 
L 87.487095 304.880819 
z
" style="fill:#1f77b4;"/>
   </g>
   <g id="patch_5">
    <path clip-path="url(#p75c2545b93)" d="M 90.628502 307.584 
L 93.769923 307.584 
L 93.769923 304.880833 
L 90.628502 304.880833 
z
" style="fill:#1f77b4;"/>
   </g>
   <g id="patch_6">
    <path clip-path="url(#p75c2545b93)" d="M 93.769923 307.584 
L 96.911345 307.584 
L 96.911345 304.880833 
L 93.769923 304.880833 
z
" style="fill:#1f77b4;"/>
   </g>
   <g id="patch_7">
    <path clip-path="url(#p75c2545b93)" d="M 96.91133 307.584 
L 100.052736 307.584 
L 100.052736 306.039325 
L 96.91133 306.039325 
z
" style="fill:#1f77b4;"/>
   </g>
   <g id="patch_8">
    <path clip-path="url(#p75c2545b93)" d="M 100.052751 307.584 
L 103.194173 307.584 
L 103.194173 305.266999 
L 100.052751 305.266999 
z
" style="fill:#1f77b4;"/>
   </g>
   <g id="patch_9">
    <path clip-path="url(#p75c2545b93)" d="M 103.194173 307.584 
L 106.335587 307.584 
L 106.335587 303.722323 
L 103.194173 303.722323 
z
" style="fill:#1f77b4;"/>
   </g>
   <g id="patch_10">
    <path clip-path="url(#p75c2545b93)" d="M 106.335579 307.584 
L 109.476993 307.584 
L 109.476993 301.405317 
L 106.335579 301.405317 
z
" style="fill:#1f77b4;"/>
   </g>
   <g id="patch_11">
    <path clip-path="url(#p75c2545b93)" d="M 109.477001 307.584 
L 112.618415 307.584 
L 112.618415 295.998969 
L 109.477001 295.998969 
z
" style="fill:#1f77b4;"/>
   </g>
   <g id="patch_12">
    <path clip-path="url(#p75c2545b93)" d="M 112.618415 307.584 
L 115.759837 307.584 
L 115.759837 297.157497 
L 112.618415 297.157497 
z
" style="fill:#1f77b4;"/>
   </g>
   <g id="patch_13">
    <path clip-path="url(#p75c2545b93)" d="M 115.759829 307.584 
L 118.901243 307.584 
L 118.901243 297.929807 
L 115.759829 297.929807 
z
" style="fill:#1f77b4;"/>
   </g>
   <g id="patch_14">
    <path clip-path="url(#p75c2545b93)" d="M 118.901251 307.584 
L 122.042665 307.584 
L 122.042665 294.454298 
L 118.901251 294.454298 
z
" style="fill:#1f77b4;"/>
   </g>
   <g id="patch_15">
    <path clip-path="url(#p75c2545b93)" d="M 122.042657 307.584 
L 125.184071 307.584 
L 125.184071 294.840466 
L 122.042657 294.840466 
z
" style="fill:#1f77b4;"/>
   </g>
   <g id="patch_16">
    <path clip-path="url(#p75c2545b93)" d="M 125.184079 307.584 
L 128.3255 307.584 
L 128.3255 297.929831 
L 125.184079 297.929831 
z
" style="fill:#1f77b4;"/>
   </g>
   <g id="patch_17">
    <path clip-path="url(#p75c2545b93)" d="M 128.3255 307.584 
L 131.466914 307.584 
L 131.466914 293.681963 
L 128.3255 293.681963 
z
" style="fill:#1f77b4;"/>
   </g>
   <g id="patch_18">
    <path clip-path="url(#p75c2545b93)" d="M 131.466907 307.584 
L 134.608321 307.584 
L 134.608321 299.474478 
L 131.466907 299.474478 
z
" style="fill:#1f77b4;"/>
   </g>
   <g id="patch_19">
    <path clip-path="url(#p75c2545b93)" d="M 134.608328 307.584 
L 137.749742 307.584 
L 137.749742 294.840466 
L 134.608328 294.840466 
z
" style="fill:#1f77b4;"/>
   </g>
   <g id="patch_20">
    <path clip-path="url(#p75c2545b93)" d="M 137.749742 307.584 
L 140.891164 307.584 
L 140.891164 292.909663 
L 137.749742 292.909663 
z
" style="fill:#1f77b4;"/>
   </g>
   <g id="patch_21">
    <path clip-path="url(#p75c2545b93)" d="M 140.891156 307.584 
L 144.03257 307.584 
L 144.03257 294.840466 
L 140.891156 294.840466 
z
" style="fill:#1f77b4;"/>
   </g>
   <g id="patch_22">
    <path clip-path="url(#p75c2545b93)" d="M 144.032578 307.584 
L 147.173992 307.584 
L 147.173992 281.324596 
L 144.032578 281.324596 
z
" style="fill:#1f77b4;"/>
   </g>
   <g id="patch_23">
    <path clip-path="url(#p75c2545b93)" d="M 147.173984 307.584 
L 150.315398 307.584 
L 150.315398 285.186273 
L 147.173984 285.186273 
z
" style="fill:#1f77b4;"/>
   </g>
   <g id="patch_24">
    <path clip-path="url(#p75c2545b93)" d="M 150.315406 307.584 
L 153.456827 307.584 
L 153.456827 293.29583 
L 150.315406 293.29583 
z
" style="fill:#1f77b4;"/>
   </g>
   <g id="patch_25">
    <path clip-path="url(#p75c2545b93)" d="M 153.456827 307.584 
L 156.598241 307.584 
L 156.598241 294.06813 
L 153.456827 294.06813 
z
" style="fill:#1f77b4;"/>
   </g>
   <g id="patch_26">
    <path clip-path="url(#p75c2545b93)" d="M 156.598234 307.584 
L 159.739648 307.584 
L 159.739648 278.621422 
L 156.598234 278.621422 
z
" style="fill:#1f77b4;"/>
   </g>
   <g id="patch_27">
    <path clip-path="url(#p75c2545b93)" d="M 159.739655 307.584 
L 162.881077 307.584 
L 162.881077 273.601325 
L 159.739655 273.601325 
z
" style="fill:#1f77b4;"/>
   </g>
   <g id="patch_28">
    <path clip-path="url(#p75c2545b93)" d="M 162.881077 307.584 
L 166.022491 307.584 
L 166.022491 282.869267 
L 162.881077 282.869267 
z
" style="fill:#1f77b4;"/>
   </g>
   <g id="patch_29">
    <path clip-path="url(#p75c2545b93)" d="M 166.022483 307.584 
L 169.163897 307.584 
L 169.163897 289.820285 
L 166.022483 289.820285 
z
" style="fill:#1f77b4;"/>
   </g>
   <g id="patch_30">
    <path clip-path="url(#p75c2545b93)" d="M 169.163905 307.584 
L 172.305323 307.584 
L 172.305323 285.1863 
L 169.163905 285.1863 
z
" style="fill:#1f77b4;"/>
   </g>
   <g id="patch_31">
    <path clip-path="url(#p75c2545b93)" d="M 172.305323 307.584 
L 175.446737 307.584 
L 175.446737 282.096931 
L 172.305323 282.096931 
z
" style="fill:#1f77b4;"/>
   </g>
   <g id="patch_32">
    <path clip-path="url(#p75c2545b93)" d="M 175.446733 307.584 
L 178.588151 307.584 
L 178.588151 288.275638 
L 175.446733 288.275638 
z
" style="fill:#1f77b4;"/>
   </g>
   <g id="patch_33">
    <path clip-path="url(#p75c2545b93)" d="M 178.588155 307.584 
L 181.729569 307.584 
L 181.729569 287.117112 
L 178.588155 287.117112 
z
" style="fill:#1f77b4;"/>
   </g>
   <g id="patch_34">
    <path clip-path="url(#p75c2545b93)" d="M 181.729569 307.584 
L 184.870987 307.584 
L 184.870987 295.226648 
L 181.729569 295.226648 
z
" style="fill:#1f77b4;"/>
   </g>
   <g id="patch_35">
    <path clip-path="url(#p75c2545b93)" d="M 184.870987 307.584 
L 188.012401 307.584 
L 188.012401 297.157472 
L 184.870987 297.157472 
z
" style="fill:#1f77b4;"/>
   </g>
   <g id="patch_36">
    <path clip-path="url(#p75c2545b93)" d="M 188.012397 307.584 
L 191.153815 307.584 
L 191.153815 296.38515 
L 188.012397 296.38515 
z
" style="fill:#1f77b4;"/>
   </g>
   <g id="patch_37">
    <path clip-path="url(#p75c2545b93)" d="M 191.153818 307.584 
L 194.295232 307.584 
L 194.295232 293.295795 
L 191.153818 293.295795 
z
" style="fill:#1f77b4;"/>
   </g>
   <g id="patch_38">
    <path clip-path="url(#p75c2545b93)" d="M 194.295232 307.584 
L 197.43665 307.584 
L 197.43665 277.849123 
L 194.295232 277.849123 
z
" style="fill:#1f77b4;"/>
   </g>
   <g id="patch_39">
    <path clip-path="url(#p75c2545b93)" d="M 197.43665 307.584 
L 200.578064 307.584 
L 200.578064 250.431179 
L 197.43665 250.431179 
z
" style="fill:#1f77b4;"/>
   </g>
   <g id="patch_40">
    <path clip-path="url(#p75c2545b93)" d="M 200.57806 307.584 
L 203.719478 307.584 
L 203.719478 256.996092 
L 200.57806 256.996092 
z
" style="fill:#1f77b4;"/>
   </g>
   <g id="patch_41">
    <path clip-path="url(#p75c2545b93)" d="M 203.719482 307.584 
L 206.860898 307.584 
L 206.860898 253.906721 
L 203.719482 253.906721 
z
" style="fill:#1f77b4;"/>
   </g>
   <g id="patch_42">
    <path clip-path="url(#p75c2545b93)" d="M 206.8609 307.584 
L 210.002316 307.584 
L 210.002316 262.016238 
L 206.8609 262.016238 
z
" style="fill:#1f77b4;"/>
   </g>
   <g id="patch_43">
    <path clip-path="url(#p75c2545b93)" d="M 210.002314 307.584 
L 213.14373 307.584 
L 213.14373 247.728042 
L 210.002314 247.728042 
z
" style="fill:#1f77b4;"/>
   </g>
   <g id="patch_44">
    <path clip-path="url(#p75c2545b93)" d="M 213.143732 307.584 
L 216.285148 307.584 
L 216.285148 231.895175 
L 213.143732 231.895175 
z
" style="fill:#1f77b4;"/>
   </g>
   <g id="patch_45">
    <path clip-path="url(#p75c2545b93)" d="M 216.285146 307.584 
L 219.426561 307.584 
L 219.426561 227.261141 
L 216.285146 227.261141 
z
" style="fill:#1f77b4;"/>
   </g>
   <g id="patch_46">
    <path clip-path="url(#p75c2545b93)" d="M 219.42656 307.584 
L 222.567977 307.584 
L 222.567977 231.895199 
L 219.42656 231.895199 
z
" style="fill:#1f77b4;"/>
   </g>
   <g id="patch_47">
    <path clip-path="url(#p75c2545b93)" d="M 222.567978 307.584 
L 225.709394 307.584 
L 225.709394 234.984515 
L 222.567978 234.984515 
z
" style="fill:#1f77b4;"/>
   </g>
   <g id="patch_48">
    <path clip-path="url(#p75c2545b93)" d="M 225.709394 307.584 
L 228.850809 307.584 
L 228.850809 200.615594 
L 225.709394 200.615594 
z
" style="fill:#1f77b4;"/>
   </g>
   <g id="patch_49">
    <path clip-path="url(#p75c2545b93)" d="M 228.850809 307.584 
L 231.992225 307.584 
L 231.992225 170.494558 
L 228.850809 170.494558 
z
" style="fill:#1f77b4;"/>
   </g>
   <g id="patch_50">
    <path clip-path="url(#p75c2545b93)" d="M 231.992225 307.584 
L 235.133641 307.584 
L 235.133641 115.658766 
L 231.992225 115.658766 
z
" style="fill:#1f77b4;"/>
   </g>
   <g id="patch_51">
    <path clip-path="url(#p75c2545b93)" d="M 235.133641 307.584 
L 238.275057 307.584 
L 238.275057 145.007507 
L 235.133641 145.007507 
z
" style="fill:#1f77b4;"/>
   </g>
   <g id="patch_52">
    <path clip-path="url(#p75c2545b93)" d="M 238.275057 307.584 
L 241.416473 307.584 
L 241.416473 151.958509 
L 238.275057 151.958509 
z
" style="fill:#1f77b4;"/>
   </g>
   <g id="patch_53">
    <path clip-path="url(#p75c2545b93)" d="M 241.416473 307.584 
L 244.557889 307.584 
L 244.557889 187.485916 
L 241.416473 187.485916 
z
" style="fill:#1f77b4;"/>
   </g>
   <g id="patch_54">
    <path clip-path="url(#p75c2545b93)" d="M 244.557889 307.584 
L 247.699305 307.584 
L 247.699305 214.903807 
L 244.557889 214.903807 
z
" style="fill:#1f77b4;"/>
   </g>
   <g id="patch_55">
    <path clip-path="url(#p75c2545b93)" d="M 247.699305 307.584 
L 250.840721 307.584 
L 250.840721 218.765481 
L 247.699305 218.765481 
z
" style="fill:#1f77b4;"/>
   </g>
   <g id="patch_56">
    <path clip-path="url(#p75c2545b93)" d="M 250.840723 307.584 
L 253.982139 307.584 
L 253.982139 255.451391 
L 250.840723 255.451391 
z
" style="fill:#1f77b4;"/>
   </g>
   <g id="patch_57">
    <path clip-path="url(#p75c2545b93)" d="M 253.982137 307.584 
L 257.123553 307.584 
L 257.123553 270.511923 
L 253.982137 270.511923 
z
" style="fill:#1f77b4;"/>
   </g>
   <g id="patch_58">
    <path clip-path="url(#p75c2545b93)" d="M 257.123555 307.584 
L 260.264971 307.584 
L 260.264971 260.085401 
L 257.123555 260.085401 
z
" style="fill:#1f77b4;"/>
   </g>
   <g id="patch_59">
    <path clip-path="url(#p75c2545b93)" d="M 260.264969 307.584 
L 263.406385 307.584 
L 263.406385 269.739588 
L 260.264969 269.739588 
z
" style="fill:#1f77b4;"/>
   </g>
   <g id="patch_60">
    <path clip-path="url(#p75c2545b93)" d="M 263.406386 307.584 
L 266.547802 307.584 
L 266.547802 273.215095 
L 263.406386 273.215095 
z
" style="fill:#1f77b4;"/>
   </g>
   <g id="patch_61">
    <path clip-path="url(#p75c2545b93)" d="M 266.547802 307.584 
L 269.689222 307.584 
L 269.689222 274.759785 
L 266.547802 274.759785 
z
" style="fill:#1f77b4;"/>
   </g>
   <g id="patch_62">
    <path clip-path="url(#p75c2545b93)" d="M 269.689218 307.584 
L 272.830632 307.584 
L 272.830632 280.938428 
L 269.689218 280.938428 
z
" style="fill:#1f77b4;"/>
   </g>
   <g id="patch_63">
    <path clip-path="url(#p75c2545b93)" d="M 272.830628 307.584 
L 275.972046 307.584 
L 275.972046 284.800133 
L 272.830628 284.800133 
z
" style="fill:#1f77b4;"/>
   </g>
   <g id="patch_64">
    <path clip-path="url(#p75c2545b93)" d="M 275.97205 307.584 
L 279.113464 307.584 
L 279.113464 292.909627 
L 275.97205 292.909627 
z
" style="fill:#1f77b4;"/>
   </g>
   <g id="patch_65">
    <path clip-path="url(#p75c2545b93)" d="M 279.113464 307.584 
L 282.254882 307.584 
L 282.254882 294.068147 
L 279.113464 294.068147 
z
" style="fill:#1f77b4;"/>
   </g>
   <g id="patch_66">
    <path clip-path="url(#p75c2545b93)" d="M 282.254882 307.584 
L 285.396296 307.584 
L 285.396296 286.730944 
L 282.254882 286.730944 
z
" style="fill:#1f77b4;"/>
   </g>
   <g id="patch_67">
    <path clip-path="url(#p75c2545b93)" d="M 285.396292 307.584 
L 288.53771 307.584 
L 288.53771 277.849123 
L 285.396292 277.849123 
z
" style="fill:#1f77b4;"/>
   </g>
   <g id="patch_68">
    <path clip-path="url(#p75c2545b93)" d="M 288.537714 307.584 
L 291.679128 307.584 
L 291.679128 291.364956 
L 288.537714 291.364956 
z
" style="fill:#1f77b4;"/>
   </g>
   <g id="patch_69">
    <path clip-path="url(#p75c2545b93)" d="M 291.679128 307.584 
L 294.820546 307.584 
L 294.820546 286.344802 
L 291.679128 286.344802 
z
" style="fill:#1f77b4;"/>
   </g>
   <g id="patch_70">
    <path clip-path="url(#p75c2545b93)" d="M 294.820546 307.584 
L 297.96196 307.584 
L 297.96196 292.137292 
L 294.820546 292.137292 
z
" style="fill:#1f77b4;"/>
   </g>
   <g id="patch_71">
    <path clip-path="url(#p75c2545b93)" d="M 297.961956 307.584 
L 301.10337 307.584 
L 301.10337 282.096962 
L 297.961956 282.096962 
z
" style="fill:#1f77b4;"/>
   </g>
   <g id="patch_72">
    <path clip-path="url(#p75c2545b93)" d="M 301.10337 307.584 
L 304.244784 307.584 
L 304.244784 282.096931 
L 301.10337 282.096931 
z
" style="fill:#1f77b4;"/>
   </g>
   <g id="patch_73">
    <path clip-path="url(#p75c2545b93)" d="M 304.244791 307.584 
L 307.386205 307.584 
L 307.386205 285.186273 
L 304.244791 285.186273 
z
" style="fill:#1f77b4;"/>
   </g>
   <g id="patch_74">
    <path clip-path="url(#p75c2545b93)" d="M 307.386205 307.584 
L 310.527627 307.584 
L 310.527627 295.61283 
L 307.386205 295.61283 
z
" style="fill:#1f77b4;"/>
   </g>
   <g id="patch_75">
    <path clip-path="url(#p75c2545b93)" d="M 310.527619 307.584 
L 313.669033 307.584 
L 313.669033 290.206453 
L 310.527619 290.206453 
z
" style="fill:#1f77b4;"/>
   </g>
   <g id="patch_76">
    <path clip-path="url(#p75c2545b93)" d="M 313.669041 307.584 
L 316.810455 307.584 
L 316.810455 295.998969 
L 313.669041 295.998969 
z
" style="fill:#1f77b4;"/>
   </g>
   <g id="patch_77">
    <path clip-path="url(#p75c2545b93)" d="M 316.810447 307.584 
L 319.951861 307.584 
L 319.951861 295.998969 
L 316.810447 295.998969 
z
" style="fill:#1f77b4;"/>
   </g>
   <g id="patch_78">
    <path clip-path="url(#p75c2545b93)" d="M 319.951869 307.584 
L 323.093291 307.584 
L 323.093291 288.275662 
L 319.951869 288.275662 
z
" style="fill:#1f77b4;"/>
   </g>
   <g id="patch_79">
    <path clip-path="url(#p75c2545b93)" d="M 323.093291 307.584 
L 326.234705 307.584 
L 326.234705 293.681963 
L 323.093291 293.681963 
z
" style="fill:#1f77b4;"/>
   </g>
   <g id="patch_80">
    <path clip-path="url(#p75c2545b93)" d="M 326.234697 307.584 
L 329.376111 307.584 
L 329.376111 290.978789 
L 326.234697 290.978789 
z
" style="fill:#1f77b4;"/>
   </g>
   <g id="patch_81">
    <path clip-path="url(#p75c2545b93)" d="M 329.376119 307.584 
L 332.51754 307.584 
L 332.51754 296.385164 
L 329.376119 296.385164 
z
" style="fill:#1f77b4;"/>
   </g>
   <g id="patch_82">
    <path clip-path="url(#p75c2545b93)" d="M 332.51754 307.584 
L 335.658954 307.584 
L 335.658954 298.702143 
L 332.51754 298.702143 
z
" style="fill:#1f77b4;"/>
   </g>
   <g id="patch_83">
    <path clip-path="url(#p75c2545b93)" d="M 335.658947 307.584 
L 338.800361 307.584 
L 338.800361 292.137292 
L 335.658947 292.137292 
z
" style="fill:#1f77b4;"/>
   </g>
   <g id="patch_84">
    <path clip-path="url(#p75c2545b93)" d="M 338.800368 307.584 
L 341.941782 307.584 
L 341.941782 299.08831 
L 338.800368 299.08831 
z
" style="fill:#1f77b4;"/>
   </g>
   <g id="patch_85">
    <path clip-path="url(#p75c2545b93)" d="M 341.941782 307.584 
L 345.083204 307.584 
L 345.083204 297.157497 
L 341.941782 297.157497 
z
" style="fill:#1f77b4;"/>
   </g>
   <g id="patch_86">
    <path clip-path="url(#p75c2545b93)" d="M 345.083196 307.584 
L 348.22461 307.584 
L 348.22461 297.157472 
L 345.083196 297.157472 
z
" style="fill:#1f77b4;"/>
   </g>
   <g id="patch_87">
    <path clip-path="url(#p75c2545b93)" d="M 348.224618 307.584 
L 351.366032 307.584 
L 351.366032 301.019149 
L 348.224618 301.019149 
z
" style="fill:#1f77b4;"/>
   </g>
   <g id="patch_88">
    <path clip-path="url(#p75c2545b93)" d="M 351.366024 307.584 
L 354.507438 307.584 
L 354.507438 299.474478 
L 351.366024 299.474478 
z
" style="fill:#1f77b4;"/>
   </g>
   <g id="patch_89">
    <path clip-path="url(#p75c2545b93)" d="M 354.507446 307.584 
L 357.648868 307.584 
L 357.648868 299.088331 
L 354.507446 299.088331 
z
" style="fill:#1f77b4;"/>
   </g>
   <g id="patch_90">
    <path clip-path="url(#p75c2545b93)" d="M 357.648868 307.584 
L 360.790282 307.584 
L 360.790282 294.840466 
L 357.648868 294.840466 
z
" style="fill:#1f77b4;"/>
   </g>
   <g id="patch_91">
    <path clip-path="url(#p75c2545b93)" d="M 360.790274 307.584 
L 363.93168 307.584 
L 363.93168 298.315975 
L 360.790274 298.315975 
z
" style="fill:#1f77b4;"/>
   </g>
   <g id="patch_92">
    <path clip-path="url(#p75c2545b93)" d="M 363.931696 307.584 
L 367.073117 307.584 
L 367.073117 298.702164 
L 363.931696 298.702164 
z
" style="fill:#1f77b4;"/>
   </g>
   <g id="patch_93">
    <path clip-path="url(#p75c2545b93)" d="M 367.073102 307.584 
L 370.214508 307.584 
L 370.214508 301.019133 
L 367.073102 301.019133 
z
" style="fill:#1f77b4;"/>
   </g>
   <g id="patch_94">
    <path clip-path="url(#p75c2545b93)" d="M 370.214524 307.584 
L 373.355945 307.584 
L 373.355945 302.949999 
L 370.214524 302.949999 
z
" style="fill:#1f77b4;"/>
   </g>
   <g id="patch_95">
    <path clip-path="url(#p75c2545b93)" d="M 373.355945 307.584 
L 376.497367 307.584 
L 376.497367 301.019165 
L 373.355945 301.019165 
z
" style="fill:#1f77b4;"/>
   </g>
   <g id="patch_96">
    <path clip-path="url(#p75c2545b93)" d="M 376.497367 307.584 
L 379.638773 307.584 
L 379.638773 303.336145 
L 376.497367 303.336145 
z
" style="fill:#1f77b4;"/>
   </g>
   <g id="patch_97">
    <path clip-path="url(#p75c2545b93)" d="M 379.638773 307.584 
L 382.780195 307.584 
L 382.780195 302.177665 
L 379.638773 302.177665 
z
" style="fill:#1f77b4;"/>
   </g>
   <g id="patch_98">
    <path clip-path="url(#p75c2545b93)" d="M 382.78018 307.584 
L 385.921586 307.584 
L 385.921586 301.405302 
L 382.78018 301.405302 
z
" style="fill:#1f77b4;"/>
   </g>
   <g id="patch_99">
    <path clip-path="url(#p75c2545b93)" d="M 385.921601 307.584 
L 389.063023 307.584 
L 389.063023 302.563832 
L 385.921601 302.563832 
z
" style="fill:#1f77b4;"/>
   </g>
   <g id="patch_100">
    <path clip-path="url(#p75c2545b93)" d="M 389.063023 307.584 
L 392.204445 307.584 
L 392.204445 303.722332 
L 389.063023 303.722332 
z
" style="fill:#1f77b4;"/>
   </g>
   <g id="patch_101">
    <path clip-path="url(#p75c2545b93)" d="M 392.204445 307.584 
L 395.345851 307.584 
L 395.345851 302.177639 
L 392.204445 302.177639 
z
" style="fill:#1f77b4;"/>
   </g>
   <g id="patch_102">
    <path clip-path="url(#p75c2545b93)" d="M 395.345851 307.584 
L 398.487273 307.584 
L 398.487273 304.494666 
L 395.345851 304.494666 
z
" style="fill:#1f77b4;"/>
   </g>
   <g id="matplotlib.axis_1">
    <g id="xtick_1">
     <g id="line2d_1">
      <defs>
       <path d="M 0 0 
L 0 3.5 
" id="m7fa0de1db8" style="stroke:#000000;stroke-width:0.8;"/>
      </defs>
      <g>
       <use style="stroke:#000000;stroke-width:0.8;" x="105.971383" xlink:href="#m7fa0de1db8" y="307.584"/>
      </g>
     </g>
     <g id="text_1">
      <!-- −2 -->
      <defs>
       <path d="M 10.59375 35.5 
L 73.1875 35.5 
L 73.1875 27.203125 
L 10.59375 27.203125 
z
" id="DejaVuSans-8722"/>
       <path d="M 19.1875 8.296875 
L 53.609375 8.296875 
L 53.609375 0 
L 7.328125 0 
L 7.328125 8.296875 
Q 12.9375 14.109375 22.625 23.890625 
Q 32.328125 33.6875 34.8125 36.53125 
Q 39.546875 41.84375 41.421875 45.53125 
Q 43.3125 49.21875 43.3125 52.78125 
Q 43.3125 58.59375 39.234375 62.25 
Q 35.15625 65.921875 28.609375 65.921875 
Q 23.96875 65.921875 18.8125 64.3125 
Q 13.671875 62.703125 7.8125 59.421875 
L 7.8125 69.390625 
Q 13.765625 71.78125 18.9375 73 
Q 24.125 74.21875 28.421875 74.21875 
Q 39.75 74.21875 46.484375 68.546875 
Q 53.21875 62.890625 53.21875 53.421875 
Q 53.21875 48.921875 51.53125 44.890625 
Q 49.859375 40.875 45.40625 35.40625 
Q 44.1875 33.984375 37.640625 27.21875 
Q 31.109375 20.453125 19.1875 8.296875 
z
" id="DejaVuSans-50"/>
      </defs>
      <g transform="translate(93.440523 327.501344)scale(0.17 -0.17)">
       <use xlink:href="#DejaVuSans-8722"/>
       <use x="83.789062" xlink:href="#DejaVuSans-50"/>
      </g>
     </g>
    </g>
    <g id="xtick_2">
     <g id="line2d_2">
      <g>
       <use style="stroke:#000000;stroke-width:0.8;" x="170.248694" xlink:href="#m7fa0de1db8" y="307.584"/>
      </g>
     </g>
     <g id="text_2">
      <!-- −1 -->
      <defs>
       <path d="M 12.40625 8.296875 
L 28.515625 8.296875 
L 28.515625 63.921875 
L 10.984375 60.40625 
L 10.984375 69.390625 
L 28.421875 72.90625 
L 38.28125 72.90625 
L 38.28125 8.296875 
L 54.390625 8.296875 
L 54.390625 0 
L 12.40625 0 
z
" id="DejaVuSans-49"/>
      </defs>
      <g transform="translate(157.717835 327.501344)scale(0.17 -0.17)">
       <use xlink:href="#DejaVuSans-8722"/>
       <use x="83.789062" xlink:href="#DejaVuSans-49"/>
      </g>
     </g>
    </g>
    <g id="xtick_3">
     <g id="line2d_3">
      <g>
       <use style="stroke:#000000;stroke-width:0.8;" x="234.526005" xlink:href="#m7fa0de1db8" y="307.584"/>
      </g>
     </g>
     <g id="text_3">
      <!-- 0 -->
      <defs>
       <path d="M 31.78125 66.40625 
Q 24.171875 66.40625 20.328125 58.90625 
Q 16.5 51.421875 16.5 36.375 
Q 16.5 21.390625 20.328125 13.890625 
Q 24.171875 6.390625 31.78125 6.390625 
Q 39.453125 6.390625 43.28125 13.890625 
Q 47.125 21.390625 47.125 36.375 
Q 47.125 51.421875 43.28125 58.90625 
Q 39.453125 66.40625 31.78125 66.40625 
z
M 31.78125 74.21875 
Q 44.046875 74.21875 50.515625 64.515625 
Q 56.984375 54.828125 56.984375 36.375 
Q 56.984375 17.96875 50.515625 8.265625 
Q 44.046875 -1.421875 31.78125 -1.421875 
Q 19.53125 -1.421875 13.0625 8.265625 
Q 6.59375 17.96875 6.59375 36.375 
Q 6.59375 54.828125 13.0625 64.515625 
Q 19.53125 74.21875 31.78125 74.21875 
z
" id="DejaVuSans-48"/>
      </defs>
      <g transform="translate(229.11788 327.501344)scale(0.17 -0.17)">
       <use xlink:href="#DejaVuSans-48"/>
      </g>
     </g>
    </g>
    <g id="xtick_4">
     <g id="line2d_4">
      <g>
       <use style="stroke:#000000;stroke-width:0.8;" x="298.803316" xlink:href="#m7fa0de1db8" y="307.584"/>
      </g>
     </g>
     <g id="text_4">
      <!-- 1 -->
      <g transform="translate(293.395191 327.501344)scale(0.17 -0.17)">
       <use xlink:href="#DejaVuSans-49"/>
      </g>
     </g>
    </g>
    <g id="xtick_5">
     <g id="line2d_5">
      <g>
       <use style="stroke:#000000;stroke-width:0.8;" x="363.080627" xlink:href="#m7fa0de1db8" y="307.584"/>
      </g>
     </g>
     <g id="text_5">
      <!-- 2 -->
      <g transform="translate(357.672502 327.501344)scale(0.17 -0.17)">
       <use xlink:href="#DejaVuSans-50"/>
      </g>
     </g>
    </g>
    <g id="text_6">
     <!-- Position in Radian -->
     <defs>
      <path d="M 19.671875 64.796875 
L 19.671875 37.40625 
L 32.078125 37.40625 
Q 38.96875 37.40625 42.71875 40.96875 
Q 46.484375 44.53125 46.484375 51.125 
Q 46.484375 57.671875 42.71875 61.234375 
Q 38.96875 64.796875 32.078125 64.796875 
z
M 9.8125 72.90625 
L 32.078125 72.90625 
Q 44.34375 72.90625 50.609375 67.359375 
Q 56.890625 61.8125 56.890625 51.125 
Q 56.890625 40.328125 50.609375 34.8125 
Q 44.34375 29.296875 32.078125 29.296875 
L 19.671875 29.296875 
L 19.671875 0 
L 9.8125 0 
z
" id="DejaVuSans-80"/>
      <path d="M 30.609375 48.390625 
Q 23.390625 48.390625 19.1875 42.75 
Q 14.984375 37.109375 14.984375 27.296875 
Q 14.984375 17.484375 19.15625 11.84375 
Q 23.34375 6.203125 30.609375 6.203125 
Q 37.796875 6.203125 41.984375 11.859375 
Q 46.1875 17.53125 46.1875 27.296875 
Q 46.1875 37.015625 41.984375 42.703125 
Q 37.796875 48.390625 30.609375 48.390625 
z
M 30.609375 56 
Q 42.328125 56 49.015625 48.375 
Q 55.71875 40.765625 55.71875 27.296875 
Q 55.71875 13.875 49.015625 6.21875 
Q 42.328125 -1.421875 30.609375 -1.421875 
Q 18.84375 -1.421875 12.171875 6.21875 
Q 5.515625 13.875 5.515625 27.296875 
Q 5.515625 40.765625 12.171875 48.375 
Q 18.84375 56 30.609375 56 
z
" id="DejaVuSans-111"/>
      <path d="M 44.28125 53.078125 
L 44.28125 44.578125 
Q 40.484375 46.53125 36.375 47.5 
Q 32.28125 48.484375 27.875 48.484375 
Q 21.1875 48.484375 17.84375 46.4375 
Q 14.5 44.390625 14.5 40.28125 
Q 14.5 37.15625 16.890625 35.375 
Q 19.28125 33.59375 26.515625 31.984375 
L 29.59375 31.296875 
Q 39.15625 29.25 43.1875 25.515625 
Q 47.21875 21.78125 47.21875 15.09375 
Q 47.21875 7.46875 41.1875 3.015625 
Q 35.15625 -1.421875 24.609375 -1.421875 
Q 20.21875 -1.421875 15.453125 -0.5625 
Q 10.6875 0.296875 5.421875 2 
L 5.421875 11.28125 
Q 10.40625 8.6875 15.234375 7.390625 
Q 20.0625 6.109375 24.8125 6.109375 
Q 31.15625 6.109375 34.5625 8.28125 
Q 37.984375 10.453125 37.984375 14.40625 
Q 37.984375 18.0625 35.515625 20.015625 
Q 33.0625 21.96875 24.703125 23.78125 
L 21.578125 24.515625 
Q 13.234375 26.265625 9.515625 29.90625 
Q 5.8125 33.546875 5.8125 39.890625 
Q 5.8125 47.609375 11.28125 51.796875 
Q 16.75 56 26.8125 56 
Q 31.78125 56 36.171875 55.265625 
Q 40.578125 54.546875 44.28125 53.078125 
z
" id="DejaVuSans-115"/>
      <path d="M 9.421875 54.6875 
L 18.40625 54.6875 
L 18.40625 0 
L 9.421875 0 
z
M 9.421875 75.984375 
L 18.40625 75.984375 
L 18.40625 64.59375 
L 9.421875 64.59375 
z
" id="DejaVuSans-105"/>
      <path d="M 18.3125 70.21875 
L 18.3125 54.6875 
L 36.8125 54.6875 
L 36.8125 47.703125 
L 18.3125 47.703125 
L 18.3125 18.015625 
Q 18.3125 11.328125 20.140625 9.421875 
Q 21.96875 7.515625 27.59375 7.515625 
L 36.8125 7.515625 
L 36.8125 0 
L 27.59375 0 
Q 17.1875 0 13.234375 3.875 
Q 9.28125 7.765625 9.28125 18.015625 
L 9.28125 47.703125 
L 2.6875 47.703125 
L 2.6875 54.6875 
L 9.28125 54.6875 
L 9.28125 70.21875 
z
" id="DejaVuSans-116"/>
      <path d="M 54.890625 33.015625 
L 54.890625 0 
L 45.90625 0 
L 45.90625 32.71875 
Q 45.90625 40.484375 42.875 44.328125 
Q 39.84375 48.1875 33.796875 48.1875 
Q 26.515625 48.1875 22.3125 43.546875 
Q 18.109375 38.921875 18.109375 30.90625 
L 18.109375 0 
L 9.078125 0 
L 9.078125 54.6875 
L 18.109375 54.6875 
L 18.109375 46.1875 
Q 21.34375 51.125 25.703125 53.5625 
Q 30.078125 56 35.796875 56 
Q 45.21875 56 50.046875 50.171875 
Q 54.890625 44.34375 54.890625 33.015625 
z
" id="DejaVuSans-110"/>
      <path id="DejaVuSans-32"/>
      <path d="M 44.390625 34.1875 
Q 47.5625 33.109375 50.5625 29.59375 
Q 53.5625 26.078125 56.59375 19.921875 
L 66.609375 0 
L 56 0 
L 46.6875 18.703125 
Q 43.0625 26.03125 39.671875 28.421875 
Q 36.28125 30.8125 30.421875 30.8125 
L 19.671875 30.8125 
L 19.671875 0 
L 9.8125 0 
L 9.8125 72.90625 
L 32.078125 72.90625 
Q 44.578125 72.90625 50.734375 67.671875 
Q 56.890625 62.453125 56.890625 51.90625 
Q 56.890625 45.015625 53.6875 40.46875 
Q 50.484375 35.9375 44.390625 34.1875 
z
M 19.671875 64.796875 
L 19.671875 38.921875 
L 32.078125 38.921875 
Q 39.203125 38.921875 42.84375 42.21875 
Q 46.484375 45.515625 46.484375 51.90625 
Q 46.484375 58.296875 42.84375 61.546875 
Q 39.203125 64.796875 32.078125 64.796875 
z
" id="DejaVuSans-82"/>
      <path d="M 34.28125 27.484375 
Q 23.390625 27.484375 19.1875 25 
Q 14.984375 22.515625 14.984375 16.5 
Q 14.984375 11.71875 18.140625 8.90625 
Q 21.296875 6.109375 26.703125 6.109375 
Q 34.1875 6.109375 38.703125 11.40625 
Q 43.21875 16.703125 43.21875 25.484375 
L 43.21875 27.484375 
z
M 52.203125 31.203125 
L 52.203125 0 
L 43.21875 0 
L 43.21875 8.296875 
Q 40.140625 3.328125 35.546875 0.953125 
Q 30.953125 -1.421875 24.3125 -1.421875 
Q 15.921875 -1.421875 10.953125 3.296875 
Q 6 8.015625 6 15.921875 
Q 6 25.140625 12.171875 29.828125 
Q 18.359375 34.515625 30.609375 34.515625 
L 43.21875 34.515625 
L 43.21875 35.40625 
Q 43.21875 41.609375 39.140625 45 
Q 35.0625 48.390625 27.6875 48.390625 
Q 23 48.390625 18.546875 47.265625 
Q 14.109375 46.140625 10.015625 43.890625 
L 10.015625 52.203125 
Q 14.9375 54.109375 19.578125 55.046875 
Q 24.21875 56 28.609375 56 
Q 40.484375 56 46.34375 49.84375 
Q 52.203125 43.703125 52.203125 31.203125 
z
" id="DejaVuSans-97"/>
      <path d="M 45.40625 46.390625 
L 45.40625 75.984375 
L 54.390625 75.984375 
L 54.390625 0 
L 45.40625 0 
L 45.40625 8.203125 
Q 42.578125 3.328125 38.25 0.953125 
Q 33.9375 -1.421875 27.875 -1.421875 
Q 17.96875 -1.421875 11.734375 6.484375 
Q 5.515625 14.40625 5.515625 27.296875 
Q 5.515625 40.1875 11.734375 48.09375 
Q 17.96875 56 27.875 56 
Q 33.9375 56 38.25 53.625 
Q 42.578125 51.265625 45.40625 46.390625 
z
M 14.796875 27.296875 
Q 14.796875 17.390625 18.875 11.75 
Q 22.953125 6.109375 30.078125 6.109375 
Q 37.203125 6.109375 41.296875 11.75 
Q 45.40625 17.390625 45.40625 27.296875 
Q 45.40625 37.203125 41.296875 42.84375 
Q 37.203125 48.484375 30.078125 48.484375 
Q 22.953125 48.484375 18.875 42.84375 
Q 14.796875 37.203125 14.796875 27.296875 
z
" id="DejaVuSans-100"/>
     </defs>
     <g transform="translate(102.024844 357.832125)scale(0.3 -0.3)">
      <use xlink:href="#DejaVuSans-80"/>
      <use x="60.255859" xlink:href="#DejaVuSans-111"/>
      <use x="121.4375" xlink:href="#DejaVuSans-115"/>
      <use x="173.537109" xlink:href="#DejaVuSans-105"/>
      <use x="201.320312" xlink:href="#DejaVuSans-116"/>
      <use x="240.529297" xlink:href="#DejaVuSans-105"/>
      <use x="268.3125" xlink:href="#DejaVuSans-111"/>
      <use x="329.494141" xlink:href="#DejaVuSans-110"/>
      <use x="392.873047" xlink:href="#DejaVuSans-32"/>
      <use x="424.660156" xlink:href="#DejaVuSans-105"/>
      <use x="452.443359" xlink:href="#DejaVuSans-110"/>
      <use x="515.822266" xlink:href="#DejaVuSans-32"/>
      <use x="547.609375" xlink:href="#DejaVuSans-82"/>
      <use x="617.060547" xlink:href="#DejaVuSans-97"/>
      <use x="678.339844" xlink:href="#DejaVuSans-100"/>
      <use x="741.816406" xlink:href="#DejaVuSans-105"/>
      <use x="769.599609" xlink:href="#DejaVuSans-97"/>
      <use x="830.878906" xlink:href="#DejaVuSans-110"/>
     </g>
    </g>
   </g>
   <g id="matplotlib.axis_2">
    <g id="ytick_1">
     <g id="line2d_6">
      <defs>
       <path d="M 0 0 
L -3.5 0 
" id="m71b3b2a0d4" style="stroke:#000000;stroke-width:0.8;"/>
      </defs>
      <g>
       <use style="stroke:#000000;stroke-width:0.8;" x="57.6" xlink:href="#m71b3b2a0d4" y="307.584"/>
      </g>
     </g>
     <g id="text_7">
      <!-- 0.0 -->
      <defs>
       <path d="M 10.6875 12.40625 
L 21 12.40625 
L 21 0 
L 10.6875 0 
z
" id="DejaVuSans-46"/>
      </defs>
      <g transform="translate(23.564687 314.042672)scale(0.17 -0.17)">
       <use xlink:href="#DejaVuSans-48"/>
       <use x="63.623047" xlink:href="#DejaVuSans-46"/>
       <use x="95.410156" xlink:href="#DejaVuSans-48"/>
      </g>
     </g>
    </g>
    <g id="ytick_2">
     <g id="line2d_7">
      <g>
       <use style="stroke:#000000;stroke-width:0.8;" x="57.6" xlink:href="#m71b3b2a0d4" y="236.809845"/>
      </g>
     </g>
     <g id="text_8">
      <!-- 0.5 -->
      <defs>
       <path d="M 10.796875 72.90625 
L 49.515625 72.90625 
L 49.515625 64.59375 
L 19.828125 64.59375 
L 19.828125 46.734375 
Q 21.96875 47.46875 24.109375 47.828125 
Q 26.265625 48.1875 28.421875 48.1875 
Q 40.625 48.1875 47.75 41.5 
Q 54.890625 34.8125 54.890625 23.390625 
Q 54.890625 11.625 47.5625 5.09375 
Q 40.234375 -1.421875 26.90625 -1.421875 
Q 22.3125 -1.421875 17.546875 -0.640625 
Q 12.796875 0.140625 7.71875 1.703125 
L 7.71875 11.625 
Q 12.109375 9.234375 16.796875 8.0625 
Q 21.484375 6.890625 26.703125 6.890625 
Q 35.15625 6.890625 40.078125 11.328125 
Q 45.015625 15.765625 45.015625 23.390625 
Q 45.015625 31 40.078125 35.4375 
Q 35.15625 39.890625 26.703125 39.890625 
Q 22.75 39.890625 18.8125 39.015625 
Q 14.890625 38.140625 10.796875 36.28125 
z
" id="DejaVuSans-53"/>
      </defs>
      <g transform="translate(23.564687 243.268516)scale(0.17 -0.17)">
       <use xlink:href="#DejaVuSans-48"/>
       <use x="63.623047" xlink:href="#DejaVuSans-46"/>
       <use x="95.410156" xlink:href="#DejaVuSans-53"/>
      </g>
     </g>
    </g>
    <g id="ytick_3">
     <g id="line2d_8">
      <g>
       <use style="stroke:#000000;stroke-width:0.8;" x="57.6" xlink:href="#m71b3b2a0d4" y="166.035689"/>
      </g>
     </g>
     <g id="text_9">
      <!-- 1.0 -->
      <g transform="translate(23.564687 172.494361)scale(0.17 -0.17)">
       <use xlink:href="#DejaVuSans-49"/>
       <use x="63.623047" xlink:href="#DejaVuSans-46"/>
       <use x="95.410156" xlink:href="#DejaVuSans-48"/>
      </g>
     </g>
    </g>
    <g id="ytick_4">
     <g id="line2d_9">
      <g>
       <use style="stroke:#000000;stroke-width:0.8;" x="57.6" xlink:href="#m71b3b2a0d4" y="95.261534"/>
      </g>
     </g>
     <g id="text_10">
      <!-- 1.5 -->
      <g transform="translate(23.564687 101.720205)scale(0.17 -0.17)">
       <use xlink:href="#DejaVuSans-49"/>
       <use x="63.623047" xlink:href="#DejaVuSans-46"/>
       <use x="95.410156" xlink:href="#DejaVuSans-53"/>
      </g>
     </g>
    </g>
    <g id="text_11">
     <!-- Density -->
     <defs>
      <path d="M 19.671875 64.796875 
L 19.671875 8.109375 
L 31.59375 8.109375 
Q 46.6875 8.109375 53.6875 14.9375 
Q 60.6875 21.78125 60.6875 36.53125 
Q 60.6875 51.171875 53.6875 57.984375 
Q 46.6875 64.796875 31.59375 64.796875 
z
M 9.8125 72.90625 
L 30.078125 72.90625 
Q 51.265625 72.90625 61.171875 64.09375 
Q 71.09375 55.28125 71.09375 36.53125 
Q 71.09375 17.671875 61.125 8.828125 
Q 51.171875 0 30.078125 0 
L 9.8125 0 
z
" id="DejaVuSans-68"/>
      <path d="M 56.203125 29.59375 
L 56.203125 25.203125 
L 14.890625 25.203125 
Q 15.484375 15.921875 20.484375 11.0625 
Q 25.484375 6.203125 34.421875 6.203125 
Q 39.59375 6.203125 44.453125 7.46875 
Q 49.3125 8.734375 54.109375 11.28125 
L 54.109375 2.78125 
Q 49.265625 0.734375 44.1875 -0.34375 
Q 39.109375 -1.421875 33.890625 -1.421875 
Q 20.796875 -1.421875 13.15625 6.1875 
Q 5.515625 13.8125 5.515625 26.8125 
Q 5.515625 40.234375 12.765625 48.109375 
Q 20.015625 56 32.328125 56 
Q 43.359375 56 49.78125 48.890625 
Q 56.203125 41.796875 56.203125 29.59375 
z
M 47.21875 32.234375 
Q 47.125 39.59375 43.09375 43.984375 
Q 39.0625 48.390625 32.421875 48.390625 
Q 24.90625 48.390625 20.390625 44.140625 
Q 15.875 39.890625 15.1875 32.171875 
z
" id="DejaVuSans-101"/>
      <path d="M 32.171875 -5.078125 
Q 28.375 -14.84375 24.75 -17.8125 
Q 21.140625 -20.796875 15.09375 -20.796875 
L 7.90625 -20.796875 
L 7.90625 -13.28125 
L 13.1875 -13.28125 
Q 16.890625 -13.28125 18.9375 -11.515625 
Q 21 -9.765625 23.484375 -3.21875 
L 25.09375 0.875 
L 2.984375 54.6875 
L 12.5 54.6875 
L 29.59375 11.921875 
L 46.6875 54.6875 
L 56.203125 54.6875 
z
" id="DejaVuSans-121"/>
     </defs>
     <g transform="translate(13.325625 231.553781)rotate(-90)scale(0.3 -0.3)">
      <use xlink:href="#DejaVuSans-68"/>
      <use x="77.001953" xlink:href="#DejaVuSans-101"/>
      <use x="138.525391" xlink:href="#DejaVuSans-110"/>
      <use x="201.904297" xlink:href="#DejaVuSans-115"/>
      <use x="254.003906" xlink:href="#DejaVuSans-105"/>
      <use x="281.787109" xlink:href="#DejaVuSans-116"/>
      <use x="320.996094" xlink:href="#DejaVuSans-121"/>
     </g>
    </g>
   </g>
   <g id="line2d_10">
    <path clip-path="url(#p75c2545b93)" d="M 73.832727 307.584 
L 82.981531 307.478297 
L 83.410047 307.203837 
L 83.967117 306.516835 
L 84.417058 306.110803 
L 84.695593 306.130849 
L 85.145534 306.462526 
L 85.552624 306.637762 
L 85.87401 306.527596 
L 86.323951 306.094661 
L 86.945299 305.157635 
L 87.523795 304.379443 
L 87.80233 304.334776 
L 88.10229 304.55143 
L 88.65936 304.95581 
L 88.937895 304.857333 
L 89.987758 304.233696 
L 90.973344 304.002118 
L 91.273304 304.367796 
L 92.387444 306.020373 
L 92.708831 306.01842 
L 93.051643 305.770261 
L 93.501584 305.122852 
L 94.122932 304.258706 
L 94.358615 304.261729 
L 94.615725 304.547505 
L 95.472755 305.738868 
L 95.772716 305.692547 
L 96.329786 305.567124 
L 96.71545 305.769808 
L 97.27252 306.035691 
L 97.636758 305.92676 
L 98.622344 305.497781 
L 99.093711 305.576876 
L 99.607929 305.939073 
L 100.05787 306.162546 
L 100.400683 306.075665 
L 100.957753 305.636014 
L 101.98619 304.851751 
L 102.414705 304.803439 
L 103.014627 305.010271 
L 103.850232 305.239313 
L 104.321598 305.172956 
L 104.621559 304.896928 
L 104.964372 304.224475 
L 105.88568 302.207978 
L 106.142789 302.142738 
L 106.464176 302.322045 
L 107.171226 302.749452 
L 107.471187 302.674503 
L 107.771148 302.353106 
L 108.11396 301.616306 
L 108.692456 299.691226 
L 109.420932 297.546788 
L 110.277963 295.094363 
L 110.792181 293.803933 
L 111.006439 293.715488 
L 111.177845 293.935661 
L 111.45638 294.793755 
L 112.227708 297.387148 
L 112.484817 297.553921 
L 112.763352 297.433764 
L 113.406125 297.093045 
L 113.748937 297.207245 
L 114.327433 297.712152 
L 115.35587 298.866401 
L 115.741534 299.192865 
L 115.934366 299.10646 
L 116.148624 298.719655 
L 116.491436 297.528496 
L 117.112783 295.400847 
L 117.305615 295.296716 
L 117.477021 295.511711 
L 117.755557 296.362899 
L 118.484033 298.779776 
L 118.69829 298.903045 
L 118.869697 298.7564 
L 119.126806 298.184884 
L 119.555321 296.569112 
L 120.583758 292.454813 
L 120.840867 292.191981 
L 121.033699 292.290053 
L 121.312234 292.7689 
L 121.89073 293.790308 
L 122.104988 293.783804 
L 122.362097 293.491134 
L 122.897741 292.882287 
L 123.111999 292.951694 
L 123.390534 293.340452 
L 123.797624 294.348652 
L 124.290416 296.201801 
L 124.997467 298.803522 
L 125.254576 299.04484 
L 125.447408 298.938579 
L 125.811646 298.379593 
L 126.283013 297.787218 
L 126.818657 297.555284 
L 128.147055 296.851217 
L 128.42559 296.269465 
L 128.83268 294.755981 
L 129.325473 293.140124 
L 129.53973 293.003654 
L 129.711136 293.171723 
L 130.075374 293.96866 
L 130.525316 294.750271 
L 130.846702 294.896302 
L 131.21094 294.790646 
L 131.746585 294.620801 
L 131.939416 294.854081 
L 132.1751 295.577398 
L 132.539338 297.597309 
L 133.182111 301.109307 
L 133.482072 301.737646 
L 133.739181 301.832903 
L 134.039142 301.657782 
L 134.574786 301.023738 
L 135.046153 300.191833 
L 135.346114 299.187697 
L 135.688926 297.108622 
L 136.674512 290.230395 
L 136.803066 290.230236 
L 136.953047 290.5665 
L 137.295859 292.104326 
L 137.660097 293.357456 
L 137.831503 293.414002 
L 138.00291 293.12744 
L 138.667108 291.662953 
L 138.688534 291.671632 
L 138.85994 291.912391 
L 139.245604 293.063307 
L 139.566991 293.650751 
L 139.738397 293.616614 
L 140.016932 293.222974 
L 140.359744 292.871922 
L 140.53115 292.978413 
L 140.766834 293.469516 
L 141.730994 295.907021 
L 141.923825 295.814673 
L 142.223786 295.324175 
L 142.780856 294.464201 
L 143.230797 293.904001 
L 143.487907 293.074934 
L 143.830719 291.066579 
L 144.902008 284.051891 
L 145.330523 283.030418 
L 145.844741 281.797207 
L 146.530366 280.094584 
L 146.76605 279.995215 
L 146.980307 280.178882 
L 147.301694 280.839078 
L 147.858764 282.610331 
L 148.394408 284.083762 
L 148.651517 284.288782 
L 149.015755 284.20519 
L 149.208587 284.304081 
L 149.401419 284.711381 
L 149.679954 285.925501 
L 150.536985 290.06879 
L 150.858372 290.483224 
L 151.244036 290.938813 
L 151.543996 291.743395 
L 152.186769 294.368897 
L 152.700988 295.986318 
L 153.0438 296.454846 
L 153.279484 296.449749 
L 153.515167 296.170743 
L 153.815128 295.426164 
L 154.243643 293.677314 
L 154.907842 291.014493 
L 155.100674 290.868658 
L 155.250655 291.024732 
L 155.52919 291.749749 
L 155.914854 292.598698 
L 156.043408 292.531596 
L 156.193389 292.105164 
L 156.429072 290.611303 
L 156.857587 285.986856 
L 157.393232 280.894177 
L 157.671767 279.89489 
L 157.90745 279.718067 
L 158.271688 279.588564 
L 158.485946 279.145924 
L 158.785907 277.861869 
L 159.342977 274.177746 
L 159.921473 270.942349 
L 160.221433 270.293261 
L 160.39284 270.314831 
L 160.585671 270.641939 
L 160.971335 271.87968 
L 161.892643 275.639663 
L 162.685397 280.542876 
L 163.32817 283.78671 
L 163.606705 284.343022 
L 163.756685 284.286008 
L 163.949517 283.845983 
L 164.785122 281.28617 
L 164.827974 281.311584 
L 164.99938 281.63241 
L 165.299341 282.835588 
L 166.006391 285.73635 
L 166.349204 286.250753 
L 166.799145 286.812219 
L 167.07768 287.638223 
L 167.549047 289.937467 
L 168.020414 291.830595 
L 168.256097 292.075997 
L 168.427503 291.946039 
L 168.727464 291.326688 
L 169.220257 290.409813 
L 169.434515 290.390306 
L 169.670198 290.63838 
L 170.162991 291.177292 
L 170.312971 291.047941 
L 170.505803 290.511502 
L 170.762912 289.046068 
L 171.148576 285.373054 
L 171.898478 278.192733 
L 172.134162 277.620591 
L 172.241291 277.707023 
L 172.434122 278.304399 
L 173.312579 281.680141 
L 173.462559 281.577199 
L 173.719669 281.017854 
L 174.105333 280.286667 
L 174.255313 280.351023 
L 174.426719 280.762714 
L 174.705254 282.119803 
L 175.776543 287.979429 
L 176.312187 289.400218 
L 176.654999 289.813437 
L 176.869257 289.787737 
L 177.10494 289.484858 
L 177.51203 288.488596 
L 177.91912 287.690402 
L 178.133377 287.661857 
L 178.369061 287.93564 
L 178.861854 288.521306 
L 179.03326 288.416221 
L 179.268943 287.942811 
L 180.318806 285.394675 
L 180.511638 285.452053 
L 180.725896 285.817118 
L 181.004431 286.804501 
L 181.454372 289.383242 
L 182.075719 292.662162 
L 182.37568 293.287453 
L 182.632789 293.400756 
L 183.08273 293.510041 
L 183.361265 293.921085 
L 185.139604 297.338168 
L 185.503842 297.61826 
L 185.825229 297.581855 
L 186.318022 297.522394 
L 187.003646 297.624524 
L 187.282181 297.313993 
L 187.903529 296.159326 
L 188.867688 294.45403 
L 189.039094 294.560097 
L 189.253352 295.0385 
L 189.724719 296.854949 
L 190.217512 298.329248 
L 191.267375 300.327507 
L 191.481632 300.398835 
L 191.653038 300.194125 
L 191.867296 299.517584 
L 192.167257 297.667823 
L 192.617198 293.180301 
L 193.238545 287.365009 
L 193.495655 286.557458 
L 193.645635 286.574033 
L 193.859893 286.990597 
L 194.245557 287.705928 
L 194.374111 287.644856 
L 194.545517 287.219854 
L 194.824052 285.729464 
L 195.402548 280.958439 
L 196.666669 269.12905 
L 197.780809 256.405809 
L 198.702117 250.687819 
L 199.023503 249.65268 
L 199.173484 249.636317 
L 199.34489 249.96764 
L 199.666277 251.233802 
L 200.844694 256.175673 
L 201.080377 256.441169 
L 201.230358 256.27545 
L 201.466041 255.560964 
L 202.001686 253.92718 
L 202.151666 253.967603 
L 202.344498 254.388522 
L 202.944419 255.914025 
L 203.072974 255.827021 
L 203.287232 255.290985 
L 203.930005 253.45885 
L 204.101411 253.485924 
L 204.808461 253.964406 
L 205.279828 253.704623 
L 205.451235 253.996 
L 205.708344 255.018433 
L 206.99389 261.113799 
L 207.55096 262.856705 
L 207.743792 262.933137 
L 207.915198 262.701403 
L 208.236585 261.757779 
L 208.943635 259.724723 
L 209.479279 258.207163 
L 210.122053 255.424147 
L 212.178926 246.602297 
L 212.436036 246.418332 
L 212.693145 246.537792 
L 213.035957 246.679704 
L 213.185938 246.507687 
L 213.37877 245.865291 
L 213.635879 244.026013 
L 214.021543 239.193999 
L 214.814296 229.100216 
L 215.285663 226.147149 
L 215.60705 225.175988 
L 215.735604 225.17053 
L 215.885585 225.514809 
L 216.142694 226.902447 
L 216.764041 230.45561 
L 216.892596 230.508411 
L 216.914022 230.485343 
L 217.064002 230.075298 
L 217.321111 228.490077 
L 218.242419 221.94172 
L 218.349548 221.960439 
L 218.499529 222.354289 
L 218.79949 224.018169 
L 219.377985 227.123408 
L 219.849352 228.319411 
L 220.384997 229.886752 
L 220.920641 231.253779 
L 221.306305 231.655727 
L 221.670543 232.046012 
L 221.927652 232.747663 
L 222.227613 234.30411 
L 223.320327 240.917501 
L 223.427456 240.791016 
L 223.598862 240.130368 
L 223.898823 237.850359 
L 225.098666 227.617856 
L 226.534193 216.454981 
L 226.941282 210.294044 
L 227.691184 194.636966 
L 228.41966 181.033009 
L 228.762473 178.052236 
L 229.169562 176.53736 
L 229.426672 175.092958 
L 229.769484 171.521953 
L 230.369406 165.235973 
L 230.583663 164.691498 
L 230.690792 164.823654 
L 230.883624 165.627394 
L 231.226436 168.308219 
L 232.233448 176.822145 
L 232.362002 176.962716 
L 232.383428 176.950723 
L 232.490557 176.728434 
L 232.661963 175.74326 
L 232.876221 173.063674 
L 233.111904 167.1308 
L 233.390439 153.428456 
L 233.733251 123.486564 
L 234.461728 55.981766 
L 234.568857 54.144 
L 234.611708 54.291158 
L 234.718837 56.799619 
L 234.933095 69.699021 
L 235.940106 143.282692 
L 236.197215 147.219999 
L 236.347195 147.628371 
L 236.368621 147.608233 
L 236.497176 147.172923 
L 236.732859 145.347478 
L 237.139949 140.154891 
L 238.211237 125.339503 
L 238.275515 125.350382 
L 238.296941 125.396525 
L 238.425495 126.130435 
L 238.639753 129.048838 
L 239.025417 138.254759 
L 239.882448 158.964762 
L 240.268111 163.364925 
L 240.525221 164.296668 
L 240.653775 164.284076 
L 240.868033 163.872738 
L 241.146568 163.496352 
L 241.253697 163.687285 
L 241.425103 164.66413 
L 241.660787 167.68543 
L 242.003599 175.49707 
L 242.967758 199.017628 
L 243.267719 201.496315 
L 243.4177 201.76687 
L 243.439125 201.75884 
L 243.546254 201.562318 
L 243.760512 200.539601 
L 244.360434 197.43733 
L 244.446137 197.514141 
L 244.596117 198.170758 
L 244.831801 200.522163 
L 245.324593 208.489455 
L 245.838812 215.3599 
L 246.181624 217.399215 
L 246.438733 217.895742 
L 246.631565 217.91268 
L 246.867249 217.659937 
L 247.210061 216.903336 
L 247.895686 215.373802 
L 248.238498 215.168524 
L 248.709865 214.873655 
L 248.966974 214.822254 
L 249.116955 215.055902 
L 249.309787 215.851616 
L 249.588322 218.203864 
L 250.038263 224.378114 
L 251.452364 244.537808 
L 253.29498 264.404689 
L 253.659218 266.161422 
L 253.959179 266.68607 
L 254.216288 266.748096 
L 254.794784 266.758331 
L 255.030467 267.12419 
L 255.330428 268.085619 
L 256.166033 271.019865 
L 256.294588 270.962597 
L 256.465994 270.493316 
L 256.723103 268.900328 
L 257.687263 261.718676 
L 257.794392 261.865701 
L 257.987224 262.655501 
L 258.629997 265.588051 
L 258.758551 265.541033 
L 258.929957 265.081587 
L 259.315621 263.127518 
L 259.701285 261.678062 
L 259.851266 261.630547 
L 260.001246 261.948734 
L 260.236929 263.17989 
L 260.644019 266.858136 
L 261.243941 271.920482 
L 261.479624 272.544334 
L 261.608179 272.498874 
L 261.801011 272.033941 
L 263.065131 268.093995 
L 263.300815 267.975257 
L 263.493646 268.123351 
L 263.815033 268.743445 
L 264.307826 269.587582 
L 264.822044 270.234577 
L 265.100579 271.153259 
L 265.700501 274.226113 
L 266.150442 275.903178 
L 266.536106 276.557113 
L 267.007473 276.919084 
L 267.243156 276.860972 
L 267.457414 276.522795 
L 267.757375 275.546238 
L 268.400148 273.357122 
L 268.59298 273.266402 
L 268.785812 273.467074 
L 269.342882 274.18932 
L 269.514288 274.049943 
L 269.835675 273.380152 
L 270.11421 272.990371 
L 270.242764 273.089428 
L 270.41417 273.630299 
L 270.67128 275.428893 
L 271.078369 280.241384 
L 271.742568 287.674858 
L 272.042529 288.948503 
L 272.235361 289.07035 
L 272.406767 288.845968 
L 272.728154 287.920506 
L 273.735165 284.776615 
L 274.077977 284.418348 
L 274.356512 284.419599 
L 274.635047 284.674357 
L 275.042137 285.426289 
L 277.377546 290.779597 
L 277.956041 293.701717 
L 278.448834 295.752783 
L 278.705943 296.076174 
L 278.87735 295.985353 
L 279.134459 295.52056 
L 279.755806 293.775318 
L 280.29145 292.50524 
L 280.484282 292.445974 
L 280.655689 292.683674 
L 280.912798 293.520336 
L 281.555571 295.76422 
L 281.705551 295.767065 
L 281.876957 295.42279 
L 282.155492 294.181339 
L 282.669711 290.586163 
L 283.591019 284.192084 
L 283.826703 283.730969 
L 283.976683 283.784913 
L 284.255218 284.277497 
L 284.512327 284.552789 
L 284.640882 284.408997 
L 284.833714 283.708079 
L 285.133675 281.565753 
L 285.776448 276.955266 
L 285.947854 276.718586 
L 285.96928 276.727057 
L 286.097834 276.939788 
L 286.333518 277.884562 
L 286.954865 280.487307 
L 287.190549 280.667823 
L 287.726193 280.703739 
L 287.919025 281.214554 
L 288.19756 282.707945 
L 288.711778 287.031886 
L 289.290274 291.197908 
L 289.633086 292.286126 
L 289.890196 292.49981 
L 290.104453 292.408927 
L 290.42584 291.983996 
L 291.240019 290.802683 
L 291.561406 290.806494 
L 291.818515 290.742934 
L 292.011347 290.402801 
L 292.24703 289.443662 
L 292.65412 286.569025 
L 293.146913 283.574549 
L 293.36117 283.26002 
L 293.489725 283.396779 
L 293.703983 284.07679 
L 294.089647 286.221755 
L 294.925252 290.954124 
L 295.182361 291.359617 
L 295.353767 291.285344 
L 296.082243 290.627199 
L 296.317927 290.99255 
L 296.789294 291.738699 
L 296.939274 291.671486 
L 297.132106 291.247518 
L 297.410641 289.982646 
L 298.610484 283.57876 
L 298.803316 283.537739 
L 299.467515 283.708856 
L 299.703198 283.269704 
L 300.645932 281.136856 
L 300.795913 281.285141 
L 301.01017 281.887366 
L 301.352983 283.704692 
L 301.952904 286.920733 
L 302.081459 287.031843 
L 302.102885 287.018643 
L 302.231439 286.741409 
L 302.445697 285.564462 
L 303.024193 280.412349 
L 303.367005 278.552713 
L 303.581263 278.291446 
L 303.731243 278.466912 
L 303.988352 279.253685 
L 305.038215 282.975683 
L 305.809543 284.574354 
L 306.98796 288.53304 
L 307.502179 290.551159 
L 308.444913 294.539383 
L 308.766299 294.938219 
L 309.387647 295.221007 
L 309.62333 295.166438 
L 309.837588 294.85061 
L 310.116123 293.936011 
L 311.165986 289.749621 
L 311.187411 289.75463 
L 311.337392 289.954308 
L 311.573075 290.796828 
L 312.451532 294.53487 
L 312.580086 294.430502 
L 312.772918 293.822435 
L 313.115731 291.781676 
L 313.629949 288.992764 
L 313.801355 288.79626 
L 313.822781 288.807031 
L 313.951336 289.039021 
L 314.165593 290.019265 
L 314.615535 293.50765 
L 315.108327 296.710242 
L 315.45114 297.674323 
L 315.793952 298.022722 
L 316.093913 298.068619 
L 316.30817 297.889024 
L 316.56528 297.328127 
L 317.015221 295.629622 
L 317.42231 294.436731 
L 317.615142 294.369143 
L 317.786549 294.630674 
L 318.086509 295.647409 
L 318.643579 297.491552 
L 318.814986 297.551781 
L 318.964966 297.325527 
L 319.200649 296.474262 
L 319.650591 293.785915 
L 320.379067 289.741107 
L 320.936137 287.827518 
L 321.214672 287.466538 
L 321.364652 287.537074 
L 321.57891 287.970521 
L 322.007425 289.554926 
L 322.435941 290.810884 
L 322.671624 290.979328 
L 322.907308 290.835592 
L 323.271546 290.610833 
L 323.442952 290.783473 
L 323.65721 291.38992 
L 324.085725 293.509638 
L 324.51424 295.189453 
L 324.749924 295.451577 
L 324.942756 295.358941 
L 325.242717 294.892334 
L 325.842638 293.473498 
L 327.171036 290.007552 
L 327.342442 290.115924 
L 327.599551 290.609238 
L 328.52086 292.662516 
L 328.992226 292.940017 
L 329.399316 293.288039 
L 329.977812 294.156397 
L 330.599159 294.947583 
L 331.113378 295.536262 
L 331.413339 296.339488 
L 332.506053 299.795776 
L 332.677459 299.676343 
L 332.998846 299.086058 
L 333.448787 298.37925 
L 333.68447 298.344406 
L 333.984431 298.582241 
L 334.391521 298.859828 
L 334.584353 298.723936 
L 334.820036 298.196386 
L 335.2057 296.606639 
L 335.827047 294.135602 
L 336.191285 293.543845 
L 336.748355 292.828555 
L 337.605386 291.362018 
L 337.776792 291.549004 
L 338.012476 292.20753 
L 338.419565 294.156638 
L 339.25517 298.146742 
L 339.747963 299.391365 
L 340.133627 299.88041 
L 340.347885 299.872594 
L 340.583568 299.585776 
L 341.33347 298.459819 
L 341.526302 298.615262 
L 342.211927 299.360165 
L 342.404759 299.139308 
L 342.768997 298.256379 
L 343.283215 297.149704 
L 343.711731 296.799914 
L 344.011692 296.432821 
L 344.397355 295.489549 
L 344.825871 294.613834 
L 345.018703 294.603183 
L 345.23296 294.891105 
L 346.261397 296.674544 
L 346.775616 297.292067 
L 347.461241 298.632872 
L 348.618232 300.728779 
L 348.853916 300.754237 
L 349.089599 300.507648 
L 349.710946 299.747838 
L 349.903778 299.859754 
L 350.182313 300.369373 
L 351.232176 302.626669 
L 351.489285 302.666931 
L 351.724969 302.455483 
L 352.067781 301.784766 
L 353.524734 298.496654 
L 353.824694 298.349972 
L 354.038952 298.513126 
L 354.296061 299.048898 
L 355.195944 301.229901 
L 355.36735 301.152127 
L 355.603033 300.749395 
L 356.031549 299.484403 
L 356.781451 296.500798 
L 357.317095 294.699677 
L 357.59563 294.368799 
L 357.831313 294.38903 
L 358.602641 294.641973 
L 359.373969 294.593579 
L 359.845336 294.550186 
L 360.552386 294.383097 
L 360.852347 294.648211 
L 361.366566 295.499184 
L 362.095042 297.0544 
L 362.502131 298.603729 
L 363.230608 301.463438 
L 363.444865 301.604895 
L 363.616271 301.418136 
L 363.916232 300.657948 
L 364.516154 299.156604 
L 364.794689 298.954822 
L 365.051798 299.029591 
L 365.95168 299.480477 
L 366.680157 299.501501 
L 366.980117 299.834865 
L 367.365781 300.651073 
L 368.02998 302.091256 
L 368.222812 302.085056 
L 368.415644 301.769415 
L 368.758456 300.625794 
L 369.251249 299.140322 
L 369.444081 299.04017 
L 369.615487 299.222173 
L 369.915448 299.988862 
L 370.622498 301.866298 
L 370.943885 302.118387 
L 371.586658 302.410694 
L 372.122302 303.179507 
L 372.422263 303.396586 
L 372.615095 303.293397 
L 372.850778 302.870122 
L 373.279294 301.522532 
L 373.793512 300.161031 
L 374.050622 299.966886 
L 374.286305 300.070708 
L 374.629117 300.54745 
L 376.107496 302.961379 
L 376.493159 303.068258 
L 376.985952 302.93445 
L 377.457319 302.879809 
L 377.842983 303.090846 
L 379.128529 304.013154 
L 379.364213 303.788985 
L 379.664173 303.130977 
L 380.606907 300.764366 
L 380.821165 300.767 
L 381.056848 301.032391 
L 381.50679 301.974208 
L 382.149563 303.189933 
L 382.492375 303.412645 
L 382.813762 303.357423 
L 383.242277 303.032053 
L 384.206437 301.907266 
L 385.320577 300.813079 
L 385.684815 300.830232 
L 386.284736 300.875557 
L 386.691826 300.934601 
L 386.970361 301.237212 
L 387.420302 302.143712 
L 388.19163 303.637094 
L 388.705848 304.178046 
L 389.048661 304.268552 
L 389.30577 304.110178 
L 389.691434 303.548119 
L 390.184227 302.924275 
L 390.41991 302.925471 
L 390.719871 303.196867 
L 391.169812 303.565119 
L 391.38407 303.459238 
L 391.684031 302.968316 
L 392.155398 302.22793 
L 392.326804 302.261902 
L 392.541061 302.607417 
L 393.46237 304.506852 
L 393.655201 304.287028 
L 393.976588 303.474879 
L 394.640787 301.795696 
L 394.919322 301.599781 
L 395.13358 301.6951 
L 395.197857 301.763382 
L 395.197857 301.763382 
" style="fill:none;stroke:#ff7f0e;stroke-linecap:square;stroke-width:1.5;"/>
   </g>
   <g id="patch_103">
    <path d="M 57.6 307.584 
L 57.6 41.472 
" style="fill:none;stroke:#000000;stroke-linecap:square;stroke-linejoin:miter;stroke-width:0.8;"/>
   </g>
   <g id="patch_104">
    <path d="M 414.72 307.584 
L 414.72 41.472 
" style="fill:none;stroke:#000000;stroke-linecap:square;stroke-linejoin:miter;stroke-width:0.8;"/>
   </g>
   <g id="patch_105">
    <path d="M 57.6 307.584 
L 414.72 307.584 
" style="fill:none;stroke:#000000;stroke-linecap:square;stroke-linejoin:miter;stroke-width:0.8;"/>
   </g>
   <g id="patch_106">
    <path d="M 57.6 41.472 
L 414.72 41.472 
" style="fill:none;stroke:#000000;stroke-linecap:square;stroke-linejoin:miter;stroke-width:0.8;"/>
   </g>
  </g>
 </g>
 <defs>
  <clipPath id="p75c2545b93">
   <rect height="266.112" width="357.12" x="57.6" y="41.472"/>
  </clipPath>
 </defs>
</svg>
