<?xml version="1.0" encoding="utf-8" standalone="no"?>
<!DOCTYPE svg PUBLIC "-//W3C//DTD SVG 1.1//EN"
  "http://www.w3.org/Graphics/SVG/1.1/DTD/svg11.dtd">
<!-- Created with matplotlib (https://matplotlib.org/) -->
<svg height="345.6pt" version="1.1" viewBox="0 0 460.8 345.6" width="460.8pt" xmlns="http://www.w3.org/2000/svg" xmlns:xlink="http://www.w3.org/1999/xlink">
 <defs>
  <style type="text/css">
*{stroke-linecap:butt;stroke-linejoin:round;}
  </style>
 </defs>
 <g id="figure_1">
  <g id="patch_1">
   <path d="M 0 345.6 
L 460.8 345.6 
L 460.8 0 
L 0 0 
z
" style="fill:#ffffff;"/>
  </g>
  <g id="axes_1">
   <g id="patch_2">
    <path d="M 57.6 307.584 
L 414.72 307.584 
L 414.72 41.472 
L 57.6 41.472 
z
" style="fill:#ffffff;"/>
   </g>
   <g id="patch_3">
    <path clip-path="url(#pbc268382e3)" d="M 100.123055 307.584 
L 102.843961 307.584 
L 102.843961 286.618047 
L 100.123055 286.618047 
z
" style="fill:#1f77b4;"/>
   </g>
   <g id="patch_4">
    <path clip-path="url(#pbc268382e3)" d="M 102.843961 307.584 
L 105.564851 307.584 
L 105.564851 294.241954 
L 102.843961 294.241954 
z
" style="fill:#1f77b4;"/>
   </g>
   <g id="patch_5">
    <path clip-path="url(#pbc268382e3)" d="M 105.564851 307.584 
L 108.285758 307.584 
L 108.285758 290.430039 
L 105.564851 290.430039 
z
" style="fill:#1f77b4;"/>
   </g>
   <g id="patch_6">
    <path clip-path="url(#pbc268382e3)" d="M 108.285758 307.584 
L 111.006656 307.584 
L 111.006656 288.523989 
L 108.285758 288.523989 
z
" style="fill:#1f77b4;"/>
   </g>
   <g id="patch_7">
    <path clip-path="url(#pbc268382e3)" d="M 111.006648 307.584 
L 113.727547 307.584 
L 113.727547 284.235486 
L 111.006648 284.235486 
z
" style="fill:#1f77b4;"/>
   </g>
   <g id="patch_8">
    <path clip-path="url(#pbc268382e3)" d="M 113.727555 307.584 
L 116.448453 307.584 
L 116.448453 283.282486 
L 113.727555 283.282486 
z
" style="fill:#1f77b4;"/>
   </g>
   <g id="patch_9">
    <path clip-path="url(#pbc268382e3)" d="M 116.448453 307.584 
L 119.169359 307.584 
L 119.169359 283.759054 
L 116.448453 283.759054 
z
" style="fill:#1f77b4;"/>
   </g>
   <g id="patch_10">
    <path clip-path="url(#pbc268382e3)" d="M 119.169352 307.584 
L 121.89025 307.584 
L 121.89025 277.564482 
L 119.169352 277.564482 
z
" style="fill:#1f77b4;"/>
   </g>
   <g id="patch_11">
    <path clip-path="url(#pbc268382e3)" d="M 121.890258 307.584 
L 124.611156 307.584 
L 124.611156 275.181981 
L 121.890258 275.181981 
z
" style="fill:#1f77b4;"/>
   </g>
   <g id="patch_12">
    <path clip-path="url(#pbc268382e3)" d="M 124.611148 307.584 
L 127.332047 307.584 
L 127.332047 268.987477 
L 124.611148 268.987477 
z
" style="fill:#1f77b4;"/>
   </g>
   <g id="patch_13">
    <path clip-path="url(#pbc268382e3)" d="M 127.332055 307.584 
L 130.052953 307.584 
L 130.052953 271.846479 
L 127.332055 271.846479 
z
" style="fill:#1f77b4;"/>
   </g>
   <g id="patch_14">
    <path clip-path="url(#pbc268382e3)" d="M 130.052953 307.584 
L 132.773859 307.584 
L 132.773859 278.041067 
L 130.052953 278.041067 
z
" style="fill:#1f77b4;"/>
   </g>
   <g id="patch_15">
    <path clip-path="url(#pbc268382e3)" d="M 132.773852 307.584 
L 135.49475 307.584 
L 135.49475 280.899984 
L 132.773852 280.899984 
z
" style="fill:#1f77b4;"/>
   </g>
   <g id="patch_16">
    <path clip-path="url(#pbc268382e3)" d="M 135.494758 307.584 
L 138.215656 307.584 
L 138.215656 280.423484 
L 135.494758 280.423484 
z
" style="fill:#1f77b4;"/>
   </g>
   <g id="patch_17">
    <path clip-path="url(#pbc268382e3)" d="M 138.215648 307.584 
L 140.936547 307.584 
L 140.936547 280.899984 
L 138.215648 280.899984 
z
" style="fill:#1f77b4;"/>
   </g>
   <g id="patch_18">
    <path clip-path="url(#pbc268382e3)" d="M 140.936555 307.584 
L 143.657461 307.584 
L 143.657461 275.182073 
L 140.936555 275.182073 
z
" style="fill:#1f77b4;"/>
   </g>
   <g id="patch_19">
    <path clip-path="url(#pbc268382e3)" d="M 143.657461 307.584 
L 146.378359 307.584 
L 146.378359 279.470483 
L 143.657461 279.470483 
z
" style="fill:#1f77b4;"/>
   </g>
   <g id="patch_20">
    <path clip-path="url(#pbc268382e3)" d="M 146.378352 307.584 
L 149.09925 307.584 
L 149.09925 272.322979 
L 146.378352 272.322979 
z
" style="fill:#1f77b4;"/>
   </g>
   <g id="patch_21">
    <path clip-path="url(#pbc268382e3)" d="M 149.099258 307.584 
L 151.820156 307.584 
L 151.820156 271.846479 
L 149.099258 271.846479 
z
" style="fill:#1f77b4;"/>
   </g>
   <g id="patch_22">
    <path clip-path="url(#pbc268382e3)" d="M 151.820148 307.584 
L 154.541047 307.584 
L 154.541047 272.322979 
L 151.820148 272.322979 
z
" style="fill:#1f77b4;"/>
   </g>
   <g id="patch_23">
    <path clip-path="url(#pbc268382e3)" d="M 154.541055 307.584 
L 157.261961 307.584 
L 157.261961 272.799578 
L 154.541055 272.799578 
z
" style="fill:#1f77b4;"/>
   </g>
   <g id="patch_24">
    <path clip-path="url(#pbc268382e3)" d="M 157.261961 307.584 
L 159.982859 307.584 
L 159.982859 259.457472 
L 157.261961 259.457472 
z
" style="fill:#1f77b4;"/>
   </g>
   <g id="patch_25">
    <path clip-path="url(#pbc268382e3)" d="M 159.982852 307.584 
L 162.70375 307.584 
L 162.70375 255.168969 
L 159.982852 255.168969 
z
" style="fill:#1f77b4;"/>
   </g>
   <g id="patch_26">
    <path clip-path="url(#pbc268382e3)" d="M 162.703758 307.584 
L 165.424656 307.584 
L 165.424656 255.645469 
L 162.703758 255.645469 
z
" style="fill:#1f77b4;"/>
   </g>
   <g id="patch_27">
    <path clip-path="url(#pbc268382e3)" d="M 165.424649 307.584 
L 168.145547 307.584 
L 168.145547 258.980971 
L 165.424649 258.980971 
z
" style="fill:#1f77b4;"/>
   </g>
   <g id="patch_28">
    <path clip-path="url(#pbc268382e3)" d="M 168.145555 307.584 
L 170.866461 307.584 
L 170.866461 253.739621 
L 168.145555 253.739621 
z
" style="fill:#1f77b4;"/>
   </g>
   <g id="patch_29">
    <path clip-path="url(#pbc268382e3)" d="M 170.866461 307.584 
L 173.587359 307.584 
L 173.587359 249.927466 
L 170.866461 249.927466 
z
" style="fill:#1f77b4;"/>
   </g>
   <g id="patch_30">
    <path clip-path="url(#pbc268382e3)" d="M 173.587359 307.584 
L 176.308258 307.584 
L 176.308258 251.356967 
L 173.587359 251.356967 
z
" style="fill:#1f77b4;"/>
   </g>
   <g id="patch_31">
    <path clip-path="url(#pbc268382e3)" d="M 176.308258 307.584 
L 179.02916 307.584 
L 179.02916 258.98104 
L 176.308258 258.98104 
z
" style="fill:#1f77b4;"/>
   </g>
   <g id="patch_32">
    <path clip-path="url(#pbc268382e3)" d="M 179.02916 307.584 
L 181.750059 307.584 
L 181.750059 250.403966 
L 179.02916 250.403966 
z
" style="fill:#1f77b4;"/>
   </g>
   <g id="patch_33">
    <path clip-path="url(#pbc268382e3)" d="M 181.750055 307.584 
L 184.470957 307.584 
L 184.470957 266.128534 
L 181.750055 266.128534 
z
" style="fill:#1f77b4;"/>
   </g>
   <g id="patch_34">
    <path clip-path="url(#pbc268382e3)" d="M 184.470961 307.584 
L 187.191859 307.584 
L 187.191859 252.786468 
L 184.470961 252.786468 
z
" style="fill:#1f77b4;"/>
   </g>
   <g id="patch_35">
    <path clip-path="url(#pbc268382e3)" d="M 187.191859 307.584 
L 189.912762 307.584 
L 189.912762 244.686052 
L 187.191859 244.686052 
z
" style="fill:#1f77b4;"/>
   </g>
   <g id="patch_36">
    <path clip-path="url(#pbc268382e3)" d="M 189.912762 307.584 
L 192.63366 307.584 
L 192.63366 255.168969 
L 189.912762 255.168969 
z
" style="fill:#1f77b4;"/>
   </g>
   <g id="patch_37">
    <path clip-path="url(#pbc268382e3)" d="M 192.63366 307.584 
L 195.354559 307.584 
L 195.354559 245.638963 
L 192.63366 245.638963 
z
" style="fill:#1f77b4;"/>
   </g>
   <g id="patch_38">
    <path clip-path="url(#pbc268382e3)" d="M 195.354555 307.584 
L 198.075457 307.584 
L 198.075457 249.451048 
L 195.354555 249.451048 
z
" style="fill:#1f77b4;"/>
   </g>
   <g id="patch_39">
    <path clip-path="url(#pbc268382e3)" d="M 198.075461 307.584 
L 200.796359 307.584 
L 200.796359 254.692469 
L 198.075461 254.692469 
z
" style="fill:#1f77b4;"/>
   </g>
   <g id="patch_40">
    <path clip-path="url(#pbc268382e3)" d="M 200.796359 307.584 
L 203.517262 307.584 
L 203.517262 235.63256 
L 200.796359 235.63256 
z
" style="fill:#1f77b4;"/>
   </g>
   <g id="patch_41">
    <path clip-path="url(#pbc268382e3)" d="M 203.517262 307.584 
L 206.23816 307.584 
L 206.23816 238.014959 
L 203.517262 238.014959 
z
" style="fill:#1f77b4;"/>
   </g>
   <g id="patch_42">
    <path clip-path="url(#pbc268382e3)" d="M 206.23816 307.584 
L 208.959061 307.584 
L 208.959061 221.81401 
L 206.23816 221.81401 
z
" style="fill:#1f77b4;"/>
   </g>
   <g id="patch_43">
    <path clip-path="url(#pbc268382e3)" d="M 208.959063 307.584 
L 211.679963 307.584 
L 211.679963 222.76701 
L 208.959063 222.76701 
z
" style="fill:#1f77b4;"/>
   </g>
   <g id="patch_44">
    <path clip-path="url(#pbc268382e3)" d="M 211.679961 307.584 
L 214.400861 307.584 
L 214.400861 218.955011 
L 211.679961 218.955011 
z
" style="fill:#1f77b4;"/>
   </g>
   <g id="patch_45">
    <path clip-path="url(#pbc268382e3)" d="M 214.400863 307.584 
L 217.121764 307.584 
L 217.121764 222.76701 
L 214.400863 222.76701 
z
" style="fill:#1f77b4;"/>
   </g>
   <g id="patch_46">
    <path clip-path="url(#pbc268382e3)" d="M 217.121762 307.584 
L 219.842662 307.584 
L 219.842662 231.820509 
L 217.121762 231.820509 
z
" style="fill:#1f77b4;"/>
   </g>
   <g id="patch_47">
    <path clip-path="url(#pbc268382e3)" d="M 219.842662 307.584 
L 222.563562 307.584 
L 222.563562 222.76698 
L 219.842662 222.76698 
z
" style="fill:#1f77b4;"/>
   </g>
   <g id="patch_48">
    <path clip-path="url(#pbc268382e3)" d="M 222.563562 307.584 
L 225.284462 307.584 
L 225.284462 221.81401 
L 222.563562 221.81401 
z
" style="fill:#1f77b4;"/>
   </g>
   <g id="patch_49">
    <path clip-path="url(#pbc268382e3)" d="M 225.284462 307.584 
L 228.005362 307.584 
L 228.005362 224.67301 
L 225.284462 224.67301 
z
" style="fill:#1f77b4;"/>
   </g>
   <g id="patch_50">
    <path clip-path="url(#pbc268382e3)" d="M 228.005362 307.584 
L 230.726262 307.584 
L 230.726262 208.471994 
L 228.005362 208.471994 
z
" style="fill:#1f77b4;"/>
   </g>
   <g id="patch_51">
    <path clip-path="url(#pbc268382e3)" d="M 230.726262 307.584 
L 233.447162 307.584 
L 233.447162 197.989003 
L 230.726262 197.989003 
z
" style="fill:#1f77b4;"/>
   </g>
   <g id="patch_52">
    <path clip-path="url(#pbc268382e3)" d="M 233.447162 307.584 
L 236.168063 307.584 
L 236.168063 208.948503 
L 233.447162 208.948503 
z
" style="fill:#1f77b4;"/>
   </g>
   <g id="patch_53">
    <path clip-path="url(#pbc268382e3)" d="M 236.168063 307.584 
L 238.888963 307.584 
L 238.888963 115.554506 
L 236.168063 115.554506 
z
" style="fill:#1f77b4;"/>
   </g>
   <g id="patch_54">
    <path clip-path="url(#pbc268382e3)" d="M 238.888962 307.584 
L 241.609862 307.584 
L 241.609862 201.801003 
L 238.888962 201.801003 
z
" style="fill:#1f77b4;"/>
   </g>
   <g id="patch_55">
    <path clip-path="url(#pbc268382e3)" d="M 241.609862 307.584 
L 244.330762 307.584 
L 244.330762 206.089494 
L 241.609862 206.089494 
z
" style="fill:#1f77b4;"/>
   </g>
   <g id="patch_56">
    <path clip-path="url(#pbc268382e3)" d="M 244.330763 307.584 
L 247.051663 307.584 
L 247.051663 206.566012 
L 244.330763 206.566012 
z
" style="fill:#1f77b4;"/>
   </g>
   <g id="patch_57">
    <path clip-path="url(#pbc268382e3)" d="M 247.051663 307.584 
L 249.772564 307.584 
L 249.772564 216.572511 
L 247.051663 216.572511 
z
" style="fill:#1f77b4;"/>
   </g>
   <g id="patch_58">
    <path clip-path="url(#pbc268382e3)" d="M 249.772565 307.584 
L 252.493465 307.584 
L 252.493465 224.19648 
L 249.772565 224.19648 
z
" style="fill:#1f77b4;"/>
   </g>
   <g id="patch_59">
    <path clip-path="url(#pbc268382e3)" d="M 252.493465 307.584 
L 255.214365 307.584 
L 255.214365 232.297009 
L 252.493465 232.297009 
z
" style="fill:#1f77b4;"/>
   </g>
   <g id="patch_60">
    <path clip-path="url(#pbc268382e3)" d="M 255.214363 307.584 
L 257.935264 307.584 
L 257.935264 227.05551 
L 255.214363 227.05551 
z
" style="fill:#1f77b4;"/>
   </g>
   <g id="patch_61">
    <path clip-path="url(#pbc268382e3)" d="M 257.935266 307.584 
L 260.656166 307.584 
L 260.656166 231.820509 
L 257.935266 231.820509 
z
" style="fill:#1f77b4;"/>
   </g>
   <g id="patch_62">
    <path clip-path="url(#pbc268382e3)" d="M 260.656164 307.584 
L 263.377065 307.584 
L 263.377065 233.250009 
L 260.656164 233.250009 
z
" style="fill:#1f77b4;"/>
   </g>
   <g id="patch_63">
    <path clip-path="url(#pbc268382e3)" d="M 263.377067 307.584 
L 266.097967 307.584 
L 266.097967 246.115507 
L 263.377067 246.115507 
z
" style="fill:#1f77b4;"/>
   </g>
   <g id="patch_64">
    <path clip-path="url(#pbc268382e3)" d="M 266.097965 307.584 
L 268.818863 307.584 
L 268.818863 239.44446 
L 266.097965 239.44446 
z
" style="fill:#1f77b4;"/>
   </g>
   <g id="patch_65">
    <path clip-path="url(#pbc268382e3)" d="M 268.81886 307.584 
L 271.539762 307.584 
L 271.539762 249.451048 
L 268.81886 249.451048 
z
" style="fill:#1f77b4;"/>
   </g>
   <g id="patch_66">
    <path clip-path="url(#pbc268382e3)" d="M 271.539766 307.584 
L 274.260664 307.584 
L 274.260664 239.92096 
L 271.539766 239.92096 
z
" style="fill:#1f77b4;"/>
   </g>
   <g id="patch_67">
    <path clip-path="url(#pbc268382e3)" d="M 274.260664 307.584 
L 276.981567 307.584 
L 276.981567 234.679561 
L 274.260664 234.679561 
z
" style="fill:#1f77b4;"/>
   </g>
   <g id="patch_68">
    <path clip-path="url(#pbc268382e3)" d="M 276.981567 307.584 
L 279.702465 307.584 
L 279.702465 243.256462 
L 276.981567 243.256462 
z
" style="fill:#1f77b4;"/>
   </g>
   <g id="patch_69">
    <path clip-path="url(#pbc268382e3)" d="M 279.702465 307.584 
L 282.423363 307.584 
L 282.423363 248.021465 
L 279.702465 248.021465 
z
" style="fill:#1f77b4;"/>
   </g>
   <g id="patch_70">
    <path clip-path="url(#pbc268382e3)" d="M 282.42336 307.584 
L 285.144262 307.584 
L 285.144262 249.927548 
L 282.42336 249.927548 
z
" style="fill:#1f77b4;"/>
   </g>
   <g id="patch_71">
    <path clip-path="url(#pbc268382e3)" d="M 285.144266 307.584 
L 287.865164 307.584 
L 287.865164 258.504471 
L 285.144266 258.504471 
z
" style="fill:#1f77b4;"/>
   </g>
   <g id="patch_72">
    <path clip-path="url(#pbc268382e3)" d="M 287.865164 307.584 
L 290.586067 307.584 
L 290.586067 261.840038 
L 287.865164 261.840038 
z
" style="fill:#1f77b4;"/>
   </g>
   <g id="patch_73">
    <path clip-path="url(#pbc268382e3)" d="M 290.586067 307.584 
L 293.306965 307.584 
L 293.306965 252.309967 
L 290.586067 252.309967 
z
" style="fill:#1f77b4;"/>
   </g>
   <g id="patch_74">
    <path clip-path="url(#pbc268382e3)" d="M 293.306961 307.584 
L 296.027863 307.584 
L 296.027863 265.652035 
L 293.306961 265.652035 
z
" style="fill:#1f77b4;"/>
   </g>
   <g id="patch_75">
    <path clip-path="url(#pbc268382e3)" d="M 296.027867 307.584 
L 298.748766 307.584 
L 298.748766 273.27598 
L 296.027867 273.27598 
z
" style="fill:#1f77b4;"/>
   </g>
   <g id="patch_76">
    <path clip-path="url(#pbc268382e3)" d="M 298.748766 307.584 
L 301.469664 307.584 
L 301.469664 271.369979 
L 298.748766 271.369979 
z
" style="fill:#1f77b4;"/>
   </g>
   <g id="patch_77">
    <path clip-path="url(#pbc268382e3)" d="M 301.469664 307.584 
L 304.190563 307.584 
L 304.190563 280.423484 
L 301.469664 280.423484 
z
" style="fill:#1f77b4;"/>
   </g>
   <g id="patch_78">
    <path clip-path="url(#pbc268382e3)" d="M 304.190563 307.584 
L 306.911469 307.584 
L 306.911469 279.470563 
L 304.190563 279.470563 
z
" style="fill:#1f77b4;"/>
   </g>
   <g id="patch_79">
    <path clip-path="url(#pbc268382e3)" d="M 306.911461 307.584 
L 309.63236 307.584 
L 309.63236 276.611482 
L 306.911461 276.611482 
z
" style="fill:#1f77b4;"/>
   </g>
   <g id="patch_80">
    <path clip-path="url(#pbc268382e3)" d="M 309.632367 307.584 
L 312.353266 307.584 
L 312.353266 275.658481 
L 309.632367 275.658481 
z
" style="fill:#1f77b4;"/>
   </g>
   <g id="patch_81">
    <path clip-path="url(#pbc268382e3)" d="M 312.353258 307.584 
L 315.074157 307.584 
L 315.074157 286.617988 
L 312.353258 286.617988 
z
" style="fill:#1f77b4;"/>
   </g>
   <g id="patch_82">
    <path clip-path="url(#pbc268382e3)" d="M 315.074164 307.584 
L 317.79507 307.584 
L 317.79507 282.806056 
L 315.074164 282.806056 
z
" style="fill:#1f77b4;"/>
   </g>
   <g id="patch_83">
    <path clip-path="url(#pbc268382e3)" d="M 317.79507 307.584 
L 320.515969 307.584 
L 320.515969 283.282486 
L 317.79507 283.282486 
z
" style="fill:#1f77b4;"/>
   </g>
   <g id="patch_84">
    <path clip-path="url(#pbc268382e3)" d="M 320.515961 307.584 
L 323.23686 307.584 
L 323.23686 280.423484 
L 320.515961 280.423484 
z
" style="fill:#1f77b4;"/>
   </g>
   <g id="patch_85">
    <path clip-path="url(#pbc268382e3)" d="M 323.236867 307.584 
L 325.957766 307.584 
L 325.957766 282.805985 
L 323.236867 282.805985 
z
" style="fill:#1f77b4;"/>
   </g>
   <g id="patch_86">
    <path clip-path="url(#pbc268382e3)" d="M 325.957758 307.584 
L 328.678657 307.584 
L 328.678657 285.188487 
L 325.957758 285.188487 
z
" style="fill:#1f77b4;"/>
   </g>
   <g id="patch_87">
    <path clip-path="url(#pbc268382e3)" d="M 328.678664 307.584 
L 331.399571 307.584 
L 331.399571 286.141548 
L 328.678664 286.141548 
z
" style="fill:#1f77b4;"/>
   </g>
   <g id="patch_88">
    <path clip-path="url(#pbc268382e3)" d="M 331.399571 307.584 
L 334.120469 307.584 
L 334.120469 289.000489 
L 331.399571 289.000489 
z
" style="fill:#1f77b4;"/>
   </g>
   <g id="patch_89">
    <path clip-path="url(#pbc268382e3)" d="M 334.120461 307.584 
L 336.84136 307.584 
L 336.84136 283.282486 
L 334.120461 283.282486 
z
" style="fill:#1f77b4;"/>
   </g>
   <g id="patch_90">
    <path clip-path="url(#pbc268382e3)" d="M 336.841367 307.584 
L 339.562266 307.584 
L 339.562266 293.288992 
L 336.841367 293.288992 
z
" style="fill:#1f77b4;"/>
   </g>
   <g id="patch_91">
    <path clip-path="url(#pbc268382e3)" d="M 339.562266 307.584 
L 342.283172 307.584 
L 342.283172 289.477041 
L 339.562266 289.477041 
z
" style="fill:#1f77b4;"/>
   </g>
   <g id="patch_92">
    <path clip-path="url(#pbc268382e3)" d="M 342.283164 307.584 
L 345.004063 307.584 
L 345.004063 296.624494 
L 342.283164 296.624494 
z
" style="fill:#1f77b4;"/>
   </g>
   <g id="patch_93">
    <path clip-path="url(#pbc268382e3)" d="M 345.004071 307.584 
L 347.724969 307.584 
L 347.724969 290.42999 
L 345.004071 290.42999 
z
" style="fill:#1f77b4;"/>
   </g>
   <g id="patch_94">
    <path clip-path="url(#pbc268382e3)" d="M 347.724961 307.584 
L 350.44586 307.584 
L 350.44586 294.718492 
L 347.724961 294.718492 
z
" style="fill:#1f77b4;"/>
   </g>
   <g id="patch_95">
    <path clip-path="url(#pbc268382e3)" d="M 350.445867 307.584 
L 353.166766 307.584 
L 353.166766 299.006995 
L 350.445867 299.006995 
z
" style="fill:#1f77b4;"/>
   </g>
   <g id="patch_96">
    <path clip-path="url(#pbc268382e3)" d="M 353.166766 307.584 
L 355.887672 307.584 
L 355.887672 302.342512 
L 353.166766 302.342512 
z
" style="fill:#1f77b4;"/>
   </g>
   <g id="patch_97">
    <path clip-path="url(#pbc268382e3)" d="M 355.887664 307.584 
L 358.608563 307.584 
L 358.608563 298.530495 
L 355.887664 298.530495 
z
" style="fill:#1f77b4;"/>
   </g>
   <g id="patch_98">
    <path clip-path="url(#pbc268382e3)" d="M 358.608571 307.584 
L 361.329469 307.584 
L 361.329469 304.248498 
L 358.608571 304.248498 
z
" style="fill:#1f77b4;"/>
   </g>
   <g id="patch_99">
    <path clip-path="url(#pbc268382e3)" d="M 361.329461 307.584 
L 364.05036 307.584 
L 364.05036 303.771998 
L 361.329461 303.771998 
z
" style="fill:#1f77b4;"/>
   </g>
   <g id="patch_100">
    <path clip-path="url(#pbc268382e3)" d="M 364.050367 307.584 
L 366.771274 307.584 
L 366.771274 304.248508 
L 364.050367 304.248508 
z
" style="fill:#1f77b4;"/>
   </g>
   <g id="patch_101">
    <path clip-path="url(#pbc268382e3)" d="M 366.771274 307.584 
L 369.492164 307.584 
L 369.492164 305.201492 
L 366.771274 305.201492 
z
" style="fill:#1f77b4;"/>
   </g>
   <g id="patch_102">
    <path clip-path="url(#pbc268382e3)" d="M 369.492164 307.584 
L 372.213071 307.584 
L 372.213071 303.29551 
L 369.492164 303.29551 
z
" style="fill:#1f77b4;"/>
   </g>
   <g id="matplotlib.axis_1">
    <g id="xtick_1">
     <g id="line2d_1">
      <defs>
       <path d="M 0 0 
L 0 3.5 
" id="m7c9c5db889" style="stroke:#000000;stroke-width:0.8;"/>
      </defs>
      <g>
       <use style="stroke:#000000;stroke-width:0.8;" x="106.299805" xlink:href="#m7c9c5db889" y="307.584"/>
      </g>
     </g>
     <g id="text_1">
      <!-- −2 -->
      <defs>
       <path d="M 10.59375 35.5 
L 73.1875 35.5 
L 73.1875 27.203125 
L 10.59375 27.203125 
z
" id="DejaVuSans-8722"/>
       <path d="M 19.1875 8.296875 
L 53.609375 8.296875 
L 53.609375 0 
L 7.328125 0 
L 7.328125 8.296875 
Q 12.9375 14.109375 22.625 23.890625 
Q 32.328125 33.6875 34.8125 36.53125 
Q 39.546875 41.84375 41.421875 45.53125 
Q 43.3125 49.21875 43.3125 52.78125 
Q 43.3125 58.59375 39.234375 62.25 
Q 35.15625 65.921875 28.609375 65.921875 
Q 23.96875 65.921875 18.8125 64.3125 
Q 13.671875 62.703125 7.8125 59.421875 
L 7.8125 69.390625 
Q 13.765625 71.78125 18.9375 73 
Q 24.125 74.21875 28.421875 74.21875 
Q 39.75 74.21875 46.484375 68.546875 
Q 53.21875 62.890625 53.21875 53.421875 
Q 53.21875 48.921875 51.53125 44.890625 
Q 49.859375 40.875 45.40625 35.40625 
Q 44.1875 33.984375 37.640625 27.21875 
Q 31.109375 20.453125 19.1875 8.296875 
z
" id="DejaVuSans-50"/>
      </defs>
      <g transform="translate(93.768946 327.501344)scale(0.17 -0.17)">
       <use xlink:href="#DejaVuSans-8722"/>
       <use x="83.789062" xlink:href="#DejaVuSans-50"/>
      </g>
     </g>
    </g>
    <g id="xtick_2">
     <g id="line2d_2">
      <g>
       <use style="stroke:#000000;stroke-width:0.8;" x="171.233961" xlink:href="#m7c9c5db889" y="307.584"/>
      </g>
     </g>
     <g id="text_2">
      <!-- −1 -->
      <defs>
       <path d="M 12.40625 8.296875 
L 28.515625 8.296875 
L 28.515625 63.921875 
L 10.984375 60.40625 
L 10.984375 69.390625 
L 28.421875 72.90625 
L 38.28125 72.90625 
L 38.28125 8.296875 
L 54.390625 8.296875 
L 54.390625 0 
L 12.40625 0 
z
" id="DejaVuSans-49"/>
      </defs>
      <g transform="translate(158.703102 327.501344)scale(0.17 -0.17)">
       <use xlink:href="#DejaVuSans-8722"/>
       <use x="83.789062" xlink:href="#DejaVuSans-49"/>
      </g>
     </g>
    </g>
    <g id="xtick_3">
     <g id="line2d_3">
      <g>
       <use style="stroke:#000000;stroke-width:0.8;" x="236.168117" xlink:href="#m7c9c5db889" y="307.584"/>
      </g>
     </g>
     <g id="text_3">
      <!-- 0 -->
      <defs>
       <path d="M 31.78125 66.40625 
Q 24.171875 66.40625 20.328125 58.90625 
Q 16.5 51.421875 16.5 36.375 
Q 16.5 21.390625 20.328125 13.890625 
Q 24.171875 6.390625 31.78125 6.390625 
Q 39.453125 6.390625 43.28125 13.890625 
Q 47.125 21.390625 47.125 36.375 
Q 47.125 51.421875 43.28125 58.90625 
Q 39.453125 66.40625 31.78125 66.40625 
z
M 31.78125 74.21875 
Q 44.046875 74.21875 50.515625 64.515625 
Q 56.984375 54.828125 56.984375 36.375 
Q 56.984375 17.96875 50.515625 8.265625 
Q 44.046875 -1.421875 31.78125 -1.421875 
Q 19.53125 -1.421875 13.0625 8.265625 
Q 6.59375 17.96875 6.59375 36.375 
Q 6.59375 54.828125 13.0625 64.515625 
Q 19.53125 74.21875 31.78125 74.21875 
z
" id="DejaVuSans-48"/>
      </defs>
      <g transform="translate(230.759992 327.501344)scale(0.17 -0.17)">
       <use xlink:href="#DejaVuSans-48"/>
      </g>
     </g>
    </g>
    <g id="xtick_4">
     <g id="line2d_4">
      <g>
       <use style="stroke:#000000;stroke-width:0.8;" x="301.102273" xlink:href="#m7c9c5db889" y="307.584"/>
      </g>
     </g>
     <g id="text_4">
      <!-- 1 -->
      <g transform="translate(295.694148 327.501344)scale(0.17 -0.17)">
       <use xlink:href="#DejaVuSans-49"/>
      </g>
     </g>
    </g>
    <g id="xtick_5">
     <g id="line2d_5">
      <g>
       <use style="stroke:#000000;stroke-width:0.8;" x="366.036428" xlink:href="#m7c9c5db889" y="307.584"/>
      </g>
     </g>
     <g id="text_5">
      <!-- 2 -->
      <g transform="translate(360.628303 327.501344)scale(0.17 -0.17)">
       <use xlink:href="#DejaVuSans-50"/>
      </g>
     </g>
    </g>
    <g id="text_6">
     <!-- Position in Radian -->
     <defs>
      <path d="M 19.671875 64.796875 
L 19.671875 37.40625 
L 32.078125 37.40625 
Q 38.96875 37.40625 42.71875 40.96875 
Q 46.484375 44.53125 46.484375 51.125 
Q 46.484375 57.671875 42.71875 61.234375 
Q 38.96875 64.796875 32.078125 64.796875 
z
M 9.8125 72.90625 
L 32.078125 72.90625 
Q 44.34375 72.90625 50.609375 67.359375 
Q 56.890625 61.8125 56.890625 51.125 
Q 56.890625 40.328125 50.609375 34.8125 
Q 44.34375 29.296875 32.078125 29.296875 
L 19.671875 29.296875 
L 19.671875 0 
L 9.8125 0 
z
" id="DejaVuSans-80"/>
      <path d="M 30.609375 48.390625 
Q 23.390625 48.390625 19.1875 42.75 
Q 14.984375 37.109375 14.984375 27.296875 
Q 14.984375 17.484375 19.15625 11.84375 
Q 23.34375 6.203125 30.609375 6.203125 
Q 37.796875 6.203125 41.984375 11.859375 
Q 46.1875 17.53125 46.1875 27.296875 
Q 46.1875 37.015625 41.984375 42.703125 
Q 37.796875 48.390625 30.609375 48.390625 
z
M 30.609375 56 
Q 42.328125 56 49.015625 48.375 
Q 55.71875 40.765625 55.71875 27.296875 
Q 55.71875 13.875 49.015625 6.21875 
Q 42.328125 -1.421875 30.609375 -1.421875 
Q 18.84375 -1.421875 12.171875 6.21875 
Q 5.515625 13.875 5.515625 27.296875 
Q 5.515625 40.765625 12.171875 48.375 
Q 18.84375 56 30.609375 56 
z
" id="DejaVuSans-111"/>
      <path d="M 44.28125 53.078125 
L 44.28125 44.578125 
Q 40.484375 46.53125 36.375 47.5 
Q 32.28125 48.484375 27.875 48.484375 
Q 21.1875 48.484375 17.84375 46.4375 
Q 14.5 44.390625 14.5 40.28125 
Q 14.5 37.15625 16.890625 35.375 
Q 19.28125 33.59375 26.515625 31.984375 
L 29.59375 31.296875 
Q 39.15625 29.25 43.1875 25.515625 
Q 47.21875 21.78125 47.21875 15.09375 
Q 47.21875 7.46875 41.1875 3.015625 
Q 35.15625 -1.421875 24.609375 -1.421875 
Q 20.21875 -1.421875 15.453125 -0.5625 
Q 10.6875 0.296875 5.421875 2 
L 5.421875 11.28125 
Q 10.40625 8.6875 15.234375 7.390625 
Q 20.0625 6.109375 24.8125 6.109375 
Q 31.15625 6.109375 34.5625 8.28125 
Q 37.984375 10.453125 37.984375 14.40625 
Q 37.984375 18.0625 35.515625 20.015625 
Q 33.0625 21.96875 24.703125 23.78125 
L 21.578125 24.515625 
Q 13.234375 26.265625 9.515625 29.90625 
Q 5.8125 33.546875 5.8125 39.890625 
Q 5.8125 47.609375 11.28125 51.796875 
Q 16.75 56 26.8125 56 
Q 31.78125 56 36.171875 55.265625 
Q 40.578125 54.546875 44.28125 53.078125 
z
" id="DejaVuSans-115"/>
      <path d="M 9.421875 54.6875 
L 18.40625 54.6875 
L 18.40625 0 
L 9.421875 0 
z
M 9.421875 75.984375 
L 18.40625 75.984375 
L 18.40625 64.59375 
L 9.421875 64.59375 
z
" id="DejaVuSans-105"/>
      <path d="M 18.3125 70.21875 
L 18.3125 54.6875 
L 36.8125 54.6875 
L 36.8125 47.703125 
L 18.3125 47.703125 
L 18.3125 18.015625 
Q 18.3125 11.328125 20.140625 9.421875 
Q 21.96875 7.515625 27.59375 7.515625 
L 36.8125 7.515625 
L 36.8125 0 
L 27.59375 0 
Q 17.1875 0 13.234375 3.875 
Q 9.28125 7.765625 9.28125 18.015625 
L 9.28125 47.703125 
L 2.6875 47.703125 
L 2.6875 54.6875 
L 9.28125 54.6875 
L 9.28125 70.21875 
z
" id="DejaVuSans-116"/>
      <path d="M 54.890625 33.015625 
L 54.890625 0 
L 45.90625 0 
L 45.90625 32.71875 
Q 45.90625 40.484375 42.875 44.328125 
Q 39.84375 48.1875 33.796875 48.1875 
Q 26.515625 48.1875 22.3125 43.546875 
Q 18.109375 38.921875 18.109375 30.90625 
L 18.109375 0 
L 9.078125 0 
L 9.078125 54.6875 
L 18.109375 54.6875 
L 18.109375 46.1875 
Q 21.34375 51.125 25.703125 53.5625 
Q 30.078125 56 35.796875 56 
Q 45.21875 56 50.046875 50.171875 
Q 54.890625 44.34375 54.890625 33.015625 
z
" id="DejaVuSans-110"/>
      <path id="DejaVuSans-32"/>
      <path d="M 44.390625 34.1875 
Q 47.5625 33.109375 50.5625 29.59375 
Q 53.5625 26.078125 56.59375 19.921875 
L 66.609375 0 
L 56 0 
L 46.6875 18.703125 
Q 43.0625 26.03125 39.671875 28.421875 
Q 36.28125 30.8125 30.421875 30.8125 
L 19.671875 30.8125 
L 19.671875 0 
L 9.8125 0 
L 9.8125 72.90625 
L 32.078125 72.90625 
Q 44.578125 72.90625 50.734375 67.671875 
Q 56.890625 62.453125 56.890625 51.90625 
Q 56.890625 45.015625 53.6875 40.46875 
Q 50.484375 35.9375 44.390625 34.1875 
z
M 19.671875 64.796875 
L 19.671875 38.921875 
L 32.078125 38.921875 
Q 39.203125 38.921875 42.84375 42.21875 
Q 46.484375 45.515625 46.484375 51.90625 
Q 46.484375 58.296875 42.84375 61.546875 
Q 39.203125 64.796875 32.078125 64.796875 
z
" id="DejaVuSans-82"/>
      <path d="M 34.28125 27.484375 
Q 23.390625 27.484375 19.1875 25 
Q 14.984375 22.515625 14.984375 16.5 
Q 14.984375 11.71875 18.140625 8.90625 
Q 21.296875 6.109375 26.703125 6.109375 
Q 34.1875 6.109375 38.703125 11.40625 
Q 43.21875 16.703125 43.21875 25.484375 
L 43.21875 27.484375 
z
M 52.203125 31.203125 
L 52.203125 0 
L 43.21875 0 
L 43.21875 8.296875 
Q 40.140625 3.328125 35.546875 0.953125 
Q 30.953125 -1.421875 24.3125 -1.421875 
Q 15.921875 -1.421875 10.953125 3.296875 
Q 6 8.015625 6 15.921875 
Q 6 25.140625 12.171875 29.828125 
Q 18.359375 34.515625 30.609375 34.515625 
L 43.21875 34.515625 
L 43.21875 35.40625 
Q 43.21875 41.609375 39.140625 45 
Q 35.0625 48.390625 27.6875 48.390625 
Q 23 48.390625 18.546875 47.265625 
Q 14.109375 46.140625 10.015625 43.890625 
L 10.015625 52.203125 
Q 14.9375 54.109375 19.578125 55.046875 
Q 24.21875 56 28.609375 56 
Q 40.484375 56 46.34375 49.84375 
Q 52.203125 43.703125 52.203125 31.203125 
z
" id="DejaVuSans-97"/>
      <path d="M 45.40625 46.390625 
L 45.40625 75.984375 
L 54.390625 75.984375 
L 54.390625 0 
L 45.40625 0 
L 45.40625 8.203125 
Q 42.578125 3.328125 38.25 0.953125 
Q 33.9375 -1.421875 27.875 -1.421875 
Q 17.96875 -1.421875 11.734375 6.484375 
Q 5.515625 14.40625 5.515625 27.296875 
Q 5.515625 40.1875 11.734375 48.09375 
Q 17.96875 56 27.875 56 
Q 33.9375 56 38.25 53.625 
Q 42.578125 51.265625 45.40625 46.390625 
z
M 14.796875 27.296875 
Q 14.796875 17.390625 18.875 11.75 
Q 22.953125 6.109375 30.078125 6.109375 
Q 37.203125 6.109375 41.296875 11.75 
Q 45.40625 17.390625 45.40625 27.296875 
Q 45.40625 37.203125 41.296875 42.84375 
Q 37.203125 48.484375 30.078125 48.484375 
Q 22.953125 48.484375 18.875 42.84375 
Q 14.796875 37.203125 14.796875 27.296875 
z
" id="DejaVuSans-100"/>
     </defs>
     <g transform="translate(102.024844 357.832125)scale(0.3 -0.3)">
      <use xlink:href="#DejaVuSans-80"/>
      <use x="60.255859" xlink:href="#DejaVuSans-111"/>
      <use x="121.4375" xlink:href="#DejaVuSans-115"/>
      <use x="173.537109" xlink:href="#DejaVuSans-105"/>
      <use x="201.320312" xlink:href="#DejaVuSans-116"/>
      <use x="240.529297" xlink:href="#DejaVuSans-105"/>
      <use x="268.3125" xlink:href="#DejaVuSans-111"/>
      <use x="329.494141" xlink:href="#DejaVuSans-110"/>
      <use x="392.873047" xlink:href="#DejaVuSans-32"/>
      <use x="424.660156" xlink:href="#DejaVuSans-105"/>
      <use x="452.443359" xlink:href="#DejaVuSans-110"/>
      <use x="515.822266" xlink:href="#DejaVuSans-32"/>
      <use x="547.609375" xlink:href="#DejaVuSans-82"/>
      <use x="617.060547" xlink:href="#DejaVuSans-97"/>
      <use x="678.339844" xlink:href="#DejaVuSans-100"/>
      <use x="741.816406" xlink:href="#DejaVuSans-105"/>
      <use x="769.599609" xlink:href="#DejaVuSans-97"/>
      <use x="830.878906" xlink:href="#DejaVuSans-110"/>
     </g>
    </g>
   </g>
   <g id="matplotlib.axis_2">
    <g id="ytick_1">
     <g id="line2d_6">
      <defs>
       <path d="M 0 0 
L -3.5 0 
" id="m833dfba044" style="stroke:#000000;stroke-width:0.8;"/>
      </defs>
      <g>
       <use style="stroke:#000000;stroke-width:0.8;" x="57.6" xlink:href="#m833dfba044" y="307.584"/>
      </g>
     </g>
     <g id="text_7">
      <!-- 0.0 -->
      <defs>
       <path d="M 10.6875 12.40625 
L 21 12.40625 
L 21 0 
L 10.6875 0 
z
" id="DejaVuSans-46"/>
      </defs>
      <g transform="translate(23.564687 314.042672)scale(0.17 -0.17)">
       <use xlink:href="#DejaVuSans-48"/>
       <use x="63.623047" xlink:href="#DejaVuSans-46"/>
       <use x="95.410156" xlink:href="#DejaVuSans-48"/>
      </g>
     </g>
    </g>
    <g id="ytick_2">
     <g id="line2d_7">
      <g>
       <use style="stroke:#000000;stroke-width:0.8;" x="57.6" xlink:href="#m833dfba044" y="267.650967"/>
      </g>
     </g>
     <g id="text_8">
      <!-- 0.2 -->
      <g transform="translate(23.564687 274.109639)scale(0.17 -0.17)">
       <use xlink:href="#DejaVuSans-48"/>
       <use x="63.623047" xlink:href="#DejaVuSans-46"/>
       <use x="95.410156" xlink:href="#DejaVuSans-50"/>
      </g>
     </g>
    </g>
    <g id="ytick_3">
     <g id="line2d_8">
      <g>
       <use style="stroke:#000000;stroke-width:0.8;" x="57.6" xlink:href="#m833dfba044" y="227.717935"/>
      </g>
     </g>
     <g id="text_9">
      <!-- 0.4 -->
      <defs>
       <path d="M 37.796875 64.3125 
L 12.890625 25.390625 
L 37.796875 25.390625 
z
M 35.203125 72.90625 
L 47.609375 72.90625 
L 47.609375 25.390625 
L 58.015625 25.390625 
L 58.015625 17.1875 
L 47.609375 17.1875 
L 47.609375 0 
L 37.796875 0 
L 37.796875 17.1875 
L 4.890625 17.1875 
L 4.890625 26.703125 
z
" id="DejaVuSans-52"/>
      </defs>
      <g transform="translate(23.564687 234.176607)scale(0.17 -0.17)">
       <use xlink:href="#DejaVuSans-48"/>
       <use x="63.623047" xlink:href="#DejaVuSans-46"/>
       <use x="95.410156" xlink:href="#DejaVuSans-52"/>
      </g>
     </g>
    </g>
    <g id="ytick_4">
     <g id="line2d_9">
      <g>
       <use style="stroke:#000000;stroke-width:0.8;" x="57.6" xlink:href="#m833dfba044" y="187.784902"/>
      </g>
     </g>
     <g id="text_10">
      <!-- 0.6 -->
      <defs>
       <path d="M 33.015625 40.375 
Q 26.375 40.375 22.484375 35.828125 
Q 18.609375 31.296875 18.609375 23.390625 
Q 18.609375 15.53125 22.484375 10.953125 
Q 26.375 6.390625 33.015625 6.390625 
Q 39.65625 6.390625 43.53125 10.953125 
Q 47.40625 15.53125 47.40625 23.390625 
Q 47.40625 31.296875 43.53125 35.828125 
Q 39.65625 40.375 33.015625 40.375 
z
M 52.59375 71.296875 
L 52.59375 62.3125 
Q 48.875 64.0625 45.09375 64.984375 
Q 41.3125 65.921875 37.59375 65.921875 
Q 27.828125 65.921875 22.671875 59.328125 
Q 17.53125 52.734375 16.796875 39.40625 
Q 19.671875 43.65625 24.015625 45.921875 
Q 28.375 48.1875 33.59375 48.1875 
Q 44.578125 48.1875 50.953125 41.515625 
Q 57.328125 34.859375 57.328125 23.390625 
Q 57.328125 12.15625 50.6875 5.359375 
Q 44.046875 -1.421875 33.015625 -1.421875 
Q 20.359375 -1.421875 13.671875 8.265625 
Q 6.984375 17.96875 6.984375 36.375 
Q 6.984375 53.65625 15.1875 63.9375 
Q 23.390625 74.21875 37.203125 74.21875 
Q 40.921875 74.21875 44.703125 73.484375 
Q 48.484375 72.75 52.59375 71.296875 
z
" id="DejaVuSans-54"/>
      </defs>
      <g transform="translate(23.564687 194.243574)scale(0.17 -0.17)">
       <use xlink:href="#DejaVuSans-48"/>
       <use x="63.623047" xlink:href="#DejaVuSans-46"/>
       <use x="95.410156" xlink:href="#DejaVuSans-54"/>
      </g>
     </g>
    </g>
    <g id="ytick_5">
     <g id="line2d_10">
      <g>
       <use style="stroke:#000000;stroke-width:0.8;" x="57.6" xlink:href="#m833dfba044" y="147.85187"/>
      </g>
     </g>
     <g id="text_11">
      <!-- 0.8 -->
      <defs>
       <path d="M 31.78125 34.625 
Q 24.75 34.625 20.71875 30.859375 
Q 16.703125 27.09375 16.703125 20.515625 
Q 16.703125 13.921875 20.71875 10.15625 
Q 24.75 6.390625 31.78125 6.390625 
Q 38.8125 6.390625 42.859375 10.171875 
Q 46.921875 13.96875 46.921875 20.515625 
Q 46.921875 27.09375 42.890625 30.859375 
Q 38.875 34.625 31.78125 34.625 
z
M 21.921875 38.8125 
Q 15.578125 40.375 12.03125 44.71875 
Q 8.5 49.078125 8.5 55.328125 
Q 8.5 64.0625 14.71875 69.140625 
Q 20.953125 74.21875 31.78125 74.21875 
Q 42.671875 74.21875 48.875 69.140625 
Q 55.078125 64.0625 55.078125 55.328125 
Q 55.078125 49.078125 51.53125 44.71875 
Q 48 40.375 41.703125 38.8125 
Q 48.828125 37.15625 52.796875 32.3125 
Q 56.78125 27.484375 56.78125 20.515625 
Q 56.78125 9.90625 50.3125 4.234375 
Q 43.84375 -1.421875 31.78125 -1.421875 
Q 19.734375 -1.421875 13.25 4.234375 
Q 6.78125 9.90625 6.78125 20.515625 
Q 6.78125 27.484375 10.78125 32.3125 
Q 14.796875 37.15625 21.921875 38.8125 
z
M 18.3125 54.390625 
Q 18.3125 48.734375 21.84375 45.5625 
Q 25.390625 42.390625 31.78125 42.390625 
Q 38.140625 42.390625 41.71875 45.5625 
Q 45.3125 48.734375 45.3125 54.390625 
Q 45.3125 60.0625 41.71875 63.234375 
Q 38.140625 66.40625 31.78125 66.40625 
Q 25.390625 66.40625 21.84375 63.234375 
Q 18.3125 60.0625 18.3125 54.390625 
z
" id="DejaVuSans-56"/>
      </defs>
      <g transform="translate(23.564687 154.310541)scale(0.17 -0.17)">
       <use xlink:href="#DejaVuSans-48"/>
       <use x="63.623047" xlink:href="#DejaVuSans-46"/>
       <use x="95.410156" xlink:href="#DejaVuSans-56"/>
      </g>
     </g>
    </g>
    <g id="ytick_6">
     <g id="line2d_11">
      <g>
       <use style="stroke:#000000;stroke-width:0.8;" x="57.6" xlink:href="#m833dfba044" y="107.918837"/>
      </g>
     </g>
     <g id="text_12">
      <!-- 1.0 -->
      <g transform="translate(23.564687 114.377509)scale(0.17 -0.17)">
       <use xlink:href="#DejaVuSans-49"/>
       <use x="63.623047" xlink:href="#DejaVuSans-46"/>
       <use x="95.410156" xlink:href="#DejaVuSans-48"/>
      </g>
     </g>
    </g>
    <g id="ytick_7">
     <g id="line2d_12">
      <g>
       <use style="stroke:#000000;stroke-width:0.8;" x="57.6" xlink:href="#m833dfba044" y="67.985804"/>
      </g>
     </g>
     <g id="text_13">
      <!-- 1.2 -->
      <g transform="translate(23.564687 74.444476)scale(0.17 -0.17)">
       <use xlink:href="#DejaVuSans-49"/>
       <use x="63.623047" xlink:href="#DejaVuSans-46"/>
       <use x="95.410156" xlink:href="#DejaVuSans-50"/>
      </g>
     </g>
    </g>
    <g id="text_14">
     <!-- Density -->
     <defs>
      <path d="M 19.671875 64.796875 
L 19.671875 8.109375 
L 31.59375 8.109375 
Q 46.6875 8.109375 53.6875 14.9375 
Q 60.6875 21.78125 60.6875 36.53125 
Q 60.6875 51.171875 53.6875 57.984375 
Q 46.6875 64.796875 31.59375 64.796875 
z
M 9.8125 72.90625 
L 30.078125 72.90625 
Q 51.265625 72.90625 61.171875 64.09375 
Q 71.09375 55.28125 71.09375 36.53125 
Q 71.09375 17.671875 61.125 8.828125 
Q 51.171875 0 30.078125 0 
L 9.8125 0 
z
" id="DejaVuSans-68"/>
      <path d="M 56.203125 29.59375 
L 56.203125 25.203125 
L 14.890625 25.203125 
Q 15.484375 15.921875 20.484375 11.0625 
Q 25.484375 6.203125 34.421875 6.203125 
Q 39.59375 6.203125 44.453125 7.46875 
Q 49.3125 8.734375 54.109375 11.28125 
L 54.109375 2.78125 
Q 49.265625 0.734375 44.1875 -0.34375 
Q 39.109375 -1.421875 33.890625 -1.421875 
Q 20.796875 -1.421875 13.15625 6.1875 
Q 5.515625 13.8125 5.515625 26.8125 
Q 5.515625 40.234375 12.765625 48.109375 
Q 20.015625 56 32.328125 56 
Q 43.359375 56 49.78125 48.890625 
Q 56.203125 41.796875 56.203125 29.59375 
z
M 47.21875 32.234375 
Q 47.125 39.59375 43.09375 43.984375 
Q 39.0625 48.390625 32.421875 48.390625 
Q 24.90625 48.390625 20.390625 44.140625 
Q 15.875 39.890625 15.1875 32.171875 
z
" id="DejaVuSans-101"/>
      <path d="M 32.171875 -5.078125 
Q 28.375 -14.84375 24.75 -17.8125 
Q 21.140625 -20.796875 15.09375 -20.796875 
L 7.90625 -20.796875 
L 7.90625 -13.28125 
L 13.1875 -13.28125 
Q 16.890625 -13.28125 18.9375 -11.515625 
Q 21 -9.765625 23.484375 -3.21875 
L 25.09375 0.875 
L 2.984375 54.6875 
L 12.5 54.6875 
L 29.59375 11.921875 
L 46.6875 54.6875 
L 56.203125 54.6875 
z
" id="DejaVuSans-121"/>
     </defs>
     <g transform="translate(13.325625 231.553781)rotate(-90)scale(0.3 -0.3)">
      <use xlink:href="#DejaVuSans-68"/>
      <use x="77.001953" xlink:href="#DejaVuSans-101"/>
      <use x="138.525391" xlink:href="#DejaVuSans-110"/>
      <use x="201.904297" xlink:href="#DejaVuSans-115"/>
      <use x="254.003906" xlink:href="#DejaVuSans-105"/>
      <use x="281.787109" xlink:href="#DejaVuSans-116"/>
      <use x="320.996094" xlink:href="#DejaVuSans-121"/>
     </g>
    </g>
   </g>
   <g id="line2d_13">
    <path clip-path="url(#pbc268382e3)" d="M 73.832727 307.584 
L 98.101868 307.476352 
L 98.377838 307.205119 
L 98.621341 306.592028 
L 98.881078 305.205417 
L 99.189515 302.095636 
L 99.692755 294.078838 
L 100.114827 288.783091 
L 100.309629 288.13815 
L 100.325863 288.14267 
L 100.423264 288.343601 
L 100.618067 289.485382 
L 101.381043 294.637168 
L 101.494678 294.654343 
L 101.510911 294.638344 
L 101.673247 294.264323 
L 102.079085 292.480183 
L 102.436223 291.379811 
L 102.647259 291.254559 
L 102.842061 291.413755 
L 103.312834 292.211354 
L 103.816074 293.376637 
L 104.643984 295.511633 
L 104.790086 295.426465 
L 104.984889 294.989608 
L 105.35826 293.44465 
L 105.958901 291.152752 
L 106.251105 290.756511 
L 106.494608 290.758117 
L 106.949147 291.096356 
L 107.225117 291.150619 
L 107.436153 290.941065 
L 107.712123 290.280487 
L 108.410165 288.481597 
L 108.588734 288.494565 
L 108.848471 288.815577 
L 109.205609 289.173498 
L 109.400411 289.076807 
L 109.725082 288.553513 
L 110.065986 288.155973 
L 110.277022 288.21503 
L 110.893897 288.594689 
L 111.072466 288.262377 
L 111.332202 287.22819 
L 112.549718 281.511319 
L 112.728287 281.517511 
L 112.955556 281.807108 
L 113.588664 282.708684 
L 113.832167 282.657584 
L 114.367874 282.44635 
L 114.57891 282.720329 
L 114.903581 283.620886 
L 115.455521 285.097344 
L 115.666557 285.190664 
L 115.86136 284.997185 
L 116.169797 284.278234 
L 117.257444 281.419543 
L 117.436013 281.459898 
L 117.647049 281.806362 
L 118.572361 283.72589 
L 118.767163 283.546918 
L 119.140534 282.792754 
L 119.627541 281.974042 
L 120.211948 281.197823 
L 120.536619 280.114323 
L 121.153493 277.999578 
L 121.299595 277.991135 
L 121.461931 278.30999 
L 121.737901 279.491594 
L 122.322308 282.007648 
L 122.46841 282.071327 
L 122.484644 282.057039 
L 122.630745 281.721214 
L 122.841781 280.546025 
L 123.166452 277.202798 
L 124.043063 267.405247 
L 124.205399 267.180272 
L 124.221632 267.190476 
L 124.3515 267.44284 
L 124.952141 269.197604 
L 125.017076 269.146084 
L 125.179411 268.711177 
L 125.487848 267.025327 
L 125.942387 264.834082 
L 126.088489 264.71538 
L 126.104723 264.72517 
L 126.234591 264.969804 
L 126.445627 265.952049 
L 126.883933 269.389682 
L 127.354705 272.405919 
L 127.581975 272.787943 
L 127.711843 272.662346 
L 127.939113 271.991334 
L 128.588454 269.893126 
L 128.75079 269.906294 
L 128.929358 270.261274 
L 129.221562 271.49282 
L 130.08194 275.468795 
L 130.292976 275.598645 
L 130.504012 275.434016 
L 130.926084 275.106568 
L 131.104653 275.260858 
L 131.348156 275.862061 
L 131.802695 277.78928 
L 132.257234 279.352215 
L 132.500737 279.573232 
L 132.728007 279.462219 
L 133.101378 279.283761 
L 133.29618 279.4571 
L 133.637085 280.165885 
L 134.042923 280.848883 
L 134.30266 280.90777 
L 134.838367 280.920061 
L 135.276672 281.33628 
L 137.013661 282.93484 
L 137.581835 283.132335 
L 137.809104 282.974339 
L 138.085074 282.446846 
L 138.588314 280.836253 
L 139.188955 279.168728 
L 139.529859 278.770356 
L 139.789596 278.776589 
L 140.146734 279.072166 
L 140.63374 279.406253 
L 140.877243 279.307916 
L 141.13698 278.907542 
L 141.477884 277.907293 
L 142.094759 275.243879 
L 142.630465 273.331916 
L 142.857735 273.111963 
L 143.02007 273.217315 
L 143.29604 273.745867 
L 144.042783 275.795439 
L 144.35122 277.504738 
L 145.308999 283.560711 
L 145.422634 283.411222 
L 145.601203 282.678859 
L 145.990808 279.820955 
L 146.461581 276.920963 
L 146.802485 276.063308 
L 147.143389 275.207464 
L 147.46806 273.5823 
L 148.117402 270.234377 
L 148.29597 270.101562 
L 148.442072 270.326573 
L 148.701809 271.279273 
L 149.269983 273.338222 
L 149.481019 273.458287 
L 149.821923 273.267541 
L 150.065426 273.29381 
L 150.601133 273.517004 
L 150.779702 273.107459 
L 151.055672 271.754553 
L 151.851115 267.510923 
L 152.094619 267.221584 
L 152.256954 267.303379 
L 152.46799 267.723731 
L 152.74396 268.839043 
L 153.701739 273.473516 
L 153.734206 273.46144 
L 153.880308 273.214998 
L 154.188745 272.042574 
L 154.513416 271.120737 
L 154.643284 271.171639 
L 154.80562 271.665022 
L 155.097823 273.531016 
L 155.63353 276.830661 
L 155.779632 276.980317 
L 155.795865 276.9708 
L 155.925734 276.714508 
L 156.153003 275.618259 
L 157.695189 265.25685 
L 158.701669 256.43013 
L 158.928938 256.084139 
L 159.07504 256.202127 
L 159.643214 257.048166 
L 159.691915 256.994248 
L 159.85425 256.516685 
L 160.097753 254.872514 
L 160.941897 247.972067 
L 160.958131 247.978096 
L 161.055532 248.192538 
L 161.234101 249.336416 
L 161.591239 253.574589 
L 162.143179 259.475246 
L 162.435383 260.600317 
L 162.662652 260.778498 
L 163.24706 260.698199 
L 163.474329 260.525579 
L 163.685365 260.012922 
L 163.961336 258.63975 
L 165.146384 251.744077 
L 165.341186 251.654091 
L 165.503522 251.852872 
L 165.730791 252.561994 
L 166.055462 254.454178 
L 167.354145 263.167145 
L 167.532714 263.268414 
L 167.678816 263.071255 
L 167.906085 262.303896 
L 168.344391 259.820999 
L 169.318403 254.464605 
L 170.097613 250.772062 
L 170.35735 250.433403 
L 170.535919 250.510648 
L 170.828122 250.968494 
L 171.380063 251.798252 
L 171.574865 251.766933 
L 171.769668 251.445869 
L 172.045638 250.45324 
L 172.954716 246.728554 
L 173.100818 246.788247 
L 173.29562 247.228418 
L 173.636525 248.705063 
L 174.334567 251.733411 
L 174.561836 251.945276 
L 174.740405 251.81204 
L 175.341046 251.188294 
L 175.519615 251.396605 
L 175.779352 252.114295 
L 176.168957 253.928478 
L 177.354005 260.039285 
L 177.483873 259.970205 
L 177.678676 259.526581 
L 178.863724 256.131008 
L 179.058527 256.19331 
L 179.30203 256.595262 
L 179.80527 257.47617 
L 179.935138 257.352122 
L 180.113707 256.76673 
L 180.40591 254.848216 
L 180.925384 251.487296 
L 181.022785 251.416644 
L 181.055252 251.45427 
L 181.18512 251.922061 
L 181.41239 253.867326 
L 182.272767 262.352785 
L 182.402636 262.463803 
L 182.435103 262.441502 
L 182.581205 262.145158 
L 182.954576 260.673483 
L 183.344181 259.548559 
L 183.555217 259.462081 
L 183.782487 259.692818 
L 184.107157 259.957116 
L 184.253259 259.783312 
L 184.448062 259.11874 
L 184.788966 256.964835 
L 185.292206 254.046547 
L 185.503242 253.747872 
L 185.649344 253.868129 
L 186.103883 254.459545 
L 186.13635 254.426056 
L 186.282452 254.023825 
L 186.493488 252.625805 
L 186.850625 248.428392 
L 187.4675 241.574015 
L 187.74347 240.521186 
L 187.873338 240.484601 
L 187.889572 240.499017 
L 188.035674 240.81016 
L 188.262943 241.922434 
L 188.603848 244.908739 
L 189.399291 252.251367 
L 189.626561 252.724582 
L 189.821363 252.699942 
L 190.064866 252.697442 
L 190.227202 252.992322 
L 190.470705 254.021114 
L 191.103813 256.920571 
L 191.217447 256.881587 
L 191.363549 256.468868 
L 191.623286 254.877757 
L 192.24016 249.18951 
L 192.938203 243.50503 
L 193.197939 242.770599 
L 193.311574 242.859535 
L 193.473909 243.442318 
L 193.749879 245.467101 
L 194.431688 250.748029 
L 194.57779 250.922304 
L 194.594024 250.911423 
L 194.707658 250.668246 
L 194.918694 249.515254 
L 195.827772 243.349251 
L 195.844006 243.356921 
L 195.957641 243.589105 
L 196.152443 244.657336 
L 196.558282 248.535994 
L 197.061521 252.627298 
L 197.288791 253.145602 
L 197.402426 253.015178 
L 197.580995 252.317281 
L 197.954366 249.629801 
L 198.327737 247.579687 
L 198.425139 247.51671 
L 198.457606 247.553324 
L 198.587474 248.002175 
L 198.79851 249.735277 
L 199.236816 255.800263 
L 199.658888 260.37507 
L 199.821223 260.807158 
L 199.837457 260.800407 
L 199.934858 260.567209 
L 200.113427 259.318651 
L 200.421864 255.198811 
L 201.395876 241.205284 
L 202.093919 235.52568 
L 202.46729 233.839285 
L 202.662092 233.664357 
L 202.808194 233.83834 
L 203.067931 234.615803 
L 203.554937 236.930682 
L 204.57765 242.290708 
L 204.610117 242.279416 
L 204.723752 242.062272 
L 204.918554 241.041742 
L 205.243225 237.830438 
L 206.103603 228.841858 
L 206.395806 227.875479 
L 206.590609 227.7898 
L 207.045148 227.845606 
L 207.223717 227.405557 
L 207.46722 226.084557 
L 208.441232 219.653801 
L 208.473699 219.675364 
L 208.603568 219.993561 
L 208.830837 221.309118 
L 209.496412 225.469457 
L 209.593814 225.502644 
L 209.626281 225.470163 
L 209.772382 225.083614 
L 210.113287 223.293252 
L 210.519125 221.610056 
L 211.168467 219.841526 
L 211.46067 217.420107 
L 212.321048 209.4142 
L 212.385982 209.40052 
L 212.418449 209.446047 
L 212.548318 209.984565 
L 212.759354 212.03175 
L 213.165192 218.772161 
L 213.733366 227.351789 
L 214.02557 229.081907 
L 214.220372 229.28959 
L 214.366474 229.114996 
L 214.674911 228.270964 
L 215.145684 226.314197 
L 215.519055 223.66475 
L 216.217097 218.463959 
L 216.282032 218.446189 
L 216.314499 218.490609 
L 216.444367 219.045111 
L 216.655403 221.240893 
L 217.028774 228.037806 
L 217.629415 238.225157 
L 217.889152 239.627949 
L 217.954086 239.620618 
L 217.986553 239.563614 
L 218.116421 238.989442 
L 218.343691 236.761293 
L 218.765763 229.843815 
L 219.333937 221.505841 
L 219.593674 220.16827 
L 219.723542 220.093605 
L 219.739775 220.10665 
L 219.885877 220.396992 
L 220.259249 221.841268 
L 220.973524 224.36048 
L 221.249494 224.786111 
L 221.379363 224.713022 
L 221.557932 224.243815 
L 221.866369 222.582114 
L 222.304675 220.495351 
L 222.402076 220.453714 
L 222.434543 220.487678 
L 222.564411 220.866897 
L 222.791681 222.366147 
L 223.554657 227.98475 
L 223.652058 228.028434 
L 223.684525 227.996986 
L 223.830627 227.591643 
L 224.106597 225.931085 
L 224.723472 222.166162 
L 224.902041 221.996512 
L 225.031909 222.188998 
L 225.324113 223.18309 
L 225.63255 223.892743 
L 225.746185 223.804165 
L 225.924754 223.219266 
L 226.785131 219.642395 
L 227.028634 219.822034 
L 227.207203 219.818704 
L 227.353305 219.503402 
L 227.564341 218.389811 
L 227.953946 214.765838 
L 228.554587 209.680502 
L 228.992893 207.815669 
L 229.414965 206.851974 
L 229.609767 206.79161 
L 229.772102 207.017388 
L 230.015606 207.831926 
L 230.697414 210.354244 
L 230.811049 210.239212 
L 230.973384 209.581061 
L 231.200654 207.563657 
L 231.541558 202.174269 
L 232.401936 187.430407 
L 232.548038 187.052016 
L 232.564271 187.065271 
L 232.661672 187.363484 
L 232.856475 188.920101 
L 234.285026 203.218667 
L 234.333727 203.241575 
L 234.366194 203.192365 
L 234.463595 202.662828 
L 234.609697 200.445036 
L 234.804499 193.719943 
L 235.064236 175.636194 
L 235.421374 132.513084 
L 236.054482 57.215816 
L 236.18435 54.144 
L 236.216817 54.345656 
L 236.314219 57.256882 
L 236.509021 72.467943 
L 236.947327 131.279219 
L 237.434333 184.367884 
L 237.791471 202.293569 
L 238.132375 209.575603 
L 238.489513 212.922543 
L 238.781717 214.017226 
L 238.911585 214.075817 
L 238.927818 214.062807 
L 239.057687 213.781327 
L 239.252489 212.704946 
L 239.528459 209.712559 
L 240.567406 196.679304 
L 240.664807 196.660054 
L 240.697274 196.698136 
L 240.875843 197.174727 
L 241.91479 201.234 
L 242.905035 208.433441 
L 243.01867 208.298517 
L 243.229706 207.544087 
L 243.619311 205.1062 
L 244.203719 199.842499 
L 244.609557 197.076858 
L 244.723192 196.95369 
L 244.755659 196.988445 
L 244.885527 197.451528 
L 245.096563 199.264542 
L 245.502402 205.216469 
L 246.200444 214.891337 
L 246.541348 217.039188 
L 246.752384 217.388184 
L 246.898486 217.299757 
L 247.417959 216.732177 
L 247.450426 216.763792 
L 247.612762 217.124655 
L 247.888732 218.432532 
L 248.473139 221.211335 
L 248.619241 221.26226 
L 248.635475 221.24749 
L 248.79781 220.906494 
L 249.495852 219.025055 
L 249.512086 219.033109 
L 249.674421 219.264688 
L 250.339996 220.489358 
L 250.567266 220.335881 
L 250.843236 220.21452 
L 251.005571 220.410158 
L 251.232841 221.116195 
L 252.076985 224.200221 
L 252.223087 224.139302 
L 252.482823 223.674093 
L 252.726326 223.42094 
L 252.839961 223.6049 
L 253.002297 224.405939 
L 253.2458 227.006674 
L 253.716572 235.296152 
L 254.122411 240.596053 
L 254.284746 241.087483 
L 254.30098 241.078917 
L 254.398381 240.817317 
L 254.57695 239.509022 
L 254.982788 234.318726 
L 255.550962 228.007468 
L 256.005501 225.325708 
L 256.362639 224.246945 
L 256.524975 224.180144 
L 256.541208 224.192616 
L 256.68731 224.478263 
L 256.91458 225.551534 
L 257.385352 229.262793 
L 257.774957 231.524387 
L 258.002227 231.860111 
L 258.164562 231.741494 
L 258.667802 231.217741 
L 258.830137 231.411947 
L 259.106107 232.197831 
L 259.625581 233.627419 
L 259.771682 233.594576 
L 259.934018 233.208494 
L 260.193754 231.845829 
L 261.151533 226.06984 
L 261.281402 226.0919 
L 261.427503 226.457227 
L 261.654773 227.743852 
L 261.995677 231.194759 
L 263.391762 247.373655 
L 263.602798 247.666278 
L 263.732666 247.537831 
L 263.959935 246.91148 
L 265.063816 243.329766 
L 265.648224 242.144597 
L 266.800805 239.129789 
L 266.979374 239.244671 
L 267.206643 239.714341 
L 267.547548 241.026013 
L 268.391692 245.583693 
L 269.089734 248.673839 
L 269.414405 249.313254 
L 269.609207 249.328569 
L 269.836477 249.062969 
L 271.18386 246.649196 
L 271.557232 244.840017 
L 272.596178 239.412467 
L 272.839681 239.126625 
L 273.01825 239.221659 
L 273.407855 239.832068 
L 273.667592 240.018691 
L 273.829927 239.882451 
L 274.057197 239.335168 
L 275.014975 236.585029 
L 275.209778 236.694372 
L 275.745485 237.123295 
L 275.940287 236.916765 
L 276.313659 236.055688 
L 276.638329 235.55835 
L 276.784431 235.633492 
L 276.963 236.059712 
L 277.23897 237.421756 
L 278.229216 243.010087 
L 278.424019 243.099457 
L 278.618821 242.894439 
L 279.186995 242.214934 
L 279.381797 242.324098 
L 279.609067 242.772779 
L 279.885037 243.88031 
L 280.242175 246.396561 
L 281.037618 252.389457 
L 281.18372 252.543083 
L 281.199954 252.532999 
L 281.329822 252.262199 
L 281.557092 251.074692 
L 282.449936 245.665163 
L 282.563571 245.734763 
L 282.74214 246.245708 
L 283.748619 249.886071 
L 284.121991 250.63402 
L 284.511596 252.097517 
L 285.096003 254.134086 
L 285.453141 254.625152 
L 285.858979 255.122814 
L 286.13495 255.931317 
L 286.524555 257.91026 
L 287.401166 262.481417 
L 287.74207 263.282157 
L 287.920639 263.317718 
L 288.082974 263.045637 
L 288.326477 262.063093 
L 289.121921 258.319108 
L 289.251789 258.398227 
L 289.479059 258.943907 
L 289.771262 259.476805 
L 289.884897 259.347597 
L 290.047233 258.688428 
L 290.323203 256.393742 
L 290.940077 251.144025 
L 291.086179 250.92896 
L 291.118646 250.949807 
L 291.248514 251.257852 
L 291.508251 252.654072 
L 292.125126 255.981943 
L 292.449796 256.559162 
L 292.774467 257.086504 
L 293.01797 258.069115 
L 293.326407 260.4513 
L 294.267953 268.68462 
L 294.381587 268.769505 
L 294.414055 268.744927 
L 294.560156 268.394553 
L 294.85236 266.888458 
L 295.323133 264.702724 
L 295.469235 264.609318 
L 295.485468 264.621173 
L 295.63157 264.921913 
L 295.891307 266.166292 
L 296.784151 270.925532 
L 298.034134 274.654161 
L 298.228936 274.689633 
L 298.439972 274.454981 
L 298.845811 273.559308 
L 299.949691 271.143047 
L 300.323063 270.594434 
L 300.469165 270.688894 
L 300.647733 271.196532 
L 300.90747 272.781727 
L 301.930183 280.112231 
L 302.092518 280.156133 
L 302.287321 279.883715 
L 302.74186 279.225945 
L 302.904195 279.311404 
L 303.147698 279.768932 
L 303.650938 280.704852 
L 303.829507 280.664474 
L 304.056777 280.30559 
L 304.771052 279.011121 
L 305.07949 278.968857 
L 305.566496 278.914831 
L 306.215837 278.727733 
L 306.881412 278.817163 
L 307.157383 278.467829 
L 308.163862 276.925059 
L 308.943072 276.515125 
L 309.462545 276.170038 
L 309.819683 275.591931 
L 310.420324 274.626797 
L 310.647593 274.613258 
L 310.874863 274.842609 
L 311.167067 275.507913 
L 311.507971 276.908568 
L 312.628085 282.14631 
L 312.855355 282.218547 
L 313.342361 282.180752 
L 313.553397 282.546382 
L 313.878068 283.678417 
L 314.511176 285.860704 
L 314.770912 286.104252 
L 315.046883 286.053245 
L 315.517655 285.966668 
L 316.296865 286.0308 
L 316.540368 285.690966 
L 316.832572 284.862223 
L 317.384512 282.39377 
L 317.725416 281.418966 
L 317.887752 281.409837 
L 318.050087 281.717813 
L 318.358524 282.924933 
L 318.910465 284.969845 
L 319.121501 285.118078 
L 319.283836 284.937073 
L 319.543573 284.219909 
L 320.387717 281.643455 
L 320.679921 281.447494 
L 320.988358 281.512523 
L 321.735101 281.773235 
L 321.946137 281.497804 
L 322.23834 280.6684 
L 322.806514 279.040148 
L 322.952616 279.074362 
L 323.114951 279.437787 
L 323.390922 280.714476 
L 324.153898 284.466514 
L 324.364934 284.66461 
L 324.511036 284.505112 
L 324.722072 283.856139 
L 325.062976 281.929387 
L 325.923354 276.716055 
L 326.069455 276.612446 
L 326.085689 276.625011 
L 326.215557 276.905207 
L 326.426593 278.018201 
L 326.816198 281.565439 
L 327.46554 287.147916 
L 327.806444 288.490888 
L 328.033714 288.738409 
L 328.212283 288.628389 
L 328.553187 288.020745 
L 328.894091 287.611172 
L 329.07266 287.679787 
L 329.332397 288.083186 
L 329.786936 288.743667 
L 329.965505 288.684677 
L 330.176541 288.308728 
L 330.533679 287.099061 
L 331.13432 285.141162 
L 331.312889 285.072667 
L 331.45899 285.309336 
L 331.68626 286.218905 
L 332.157033 289.365525 
L 332.546638 291.276787 
L 332.74144 291.463345 
L 332.871308 291.272777 
L 333.098578 290.418511 
L 333.601818 287.320729 
L 334.07259 285.060132 
L 334.34856 284.61182 
L 334.57583 284.624106 
L 334.965435 284.693647 
L 335.176471 284.436557 
L 335.566076 283.471333 
L 335.858279 283.024722 
L 335.988148 283.118494 
L 336.166717 283.652049 
L 336.426453 285.291655 
L 336.945927 290.447895 
L 337.497867 295.073962 
L 337.790071 296.054757 
L 337.919939 296.074133 
L 337.936172 296.058123 
L 338.082274 295.735252 
L 338.342011 294.463288 
L 339.34849 288.714811 
L 339.527059 288.637876 
L 339.689395 288.856971 
L 339.981598 289.722858 
L 340.501072 291.174046 
L 340.679641 291.211309 
L 340.858209 290.95396 
L 341.556252 289.52499 
L 341.604952 289.560448 
L 341.767288 289.888085 
L 342.043258 291.062526 
L 342.692599 293.91108 
L 342.96857 294.2543 
L 343.471809 294.649601 
L 344.202318 295.742167 
L 344.234786 295.718834 
L 344.413354 295.406297 
L 344.721792 294.286697 
L 345.338666 292.088601 
L 345.760738 291.456624 
L 346.750984 290.388928 
L 346.994487 290.530527 
L 347.302924 291.032167 
L 347.74123 292.255045 
L 348.504206 294.381117 
L 348.861344 294.726791 
L 349.380817 295.145617 
L 349.802889 295.918636 
L 350.306129 296.708394 
L 350.663267 296.85386 
L 350.987938 297.036225 
L 351.263908 297.502447 
L 352.595058 300.294761 
L 353.260633 301.066394 
L 354.267113 302.430269 
L 354.591783 302.454293 
L 354.997622 302.245549 
L 355.338526 301.841594 
L 355.663197 301.071345 
L 356.799545 297.884089 
L 357.010581 297.937767 
L 357.270317 298.284897 
L 357.643689 299.214722 
L 359.104707 303.359028 
L 359.607947 303.940084 
L 359.948851 304.041586 
L 360.370923 303.90788 
L 361.442337 303.525429 
L 361.783241 303.640379 
L 362.221547 304.0744 
L 362.822188 304.614017 
L 363.195559 304.650764 
L 364.413074 304.522361 
L 364.802679 304.480059 
L 365.159817 304.18143 
L 365.776692 303.650972 
L 366.036428 303.720188 
L 366.4098 304.109941 
L 367.042908 304.739001 
L 367.546147 304.881735 
L 368.081854 305.095763 
L 369.137034 305.658139 
L 369.57534 305.562951 
L 370.062346 305.206439 
L 372.107772 303.471784 
L 372.318808 303.812332 
L 372.675946 304.917725 
L 373.341521 306.918362 
L 373.714892 307.387247 
L 374.136964 307.550333 
L 375.094743 307.583869 
L 398.487273 307.584 
L 398.487273 307.584 
" style="fill:none;stroke:#ff7f0e;stroke-linecap:square;stroke-width:1.5;"/>
   </g>
   <g id="patch_103">
    <path d="M 57.6 307.584 
L 57.6 41.472 
" style="fill:none;stroke:#000000;stroke-linecap:square;stroke-linejoin:miter;stroke-width:0.8;"/>
   </g>
   <g id="patch_104">
    <path d="M 414.72 307.584 
L 414.72 41.472 
" style="fill:none;stroke:#000000;stroke-linecap:square;stroke-linejoin:miter;stroke-width:0.8;"/>
   </g>
   <g id="patch_105">
    <path d="M 57.6 307.584 
L 414.72 307.584 
" style="fill:none;stroke:#000000;stroke-linecap:square;stroke-linejoin:miter;stroke-width:0.8;"/>
   </g>
   <g id="patch_106">
    <path d="M 57.6 41.472 
L 414.72 41.472 
" style="fill:none;stroke:#000000;stroke-linecap:square;stroke-linejoin:miter;stroke-width:0.8;"/>
   </g>
  </g>
 </g>
 <defs>
  <clipPath id="pbc268382e3">
   <rect height="266.112" width="357.12" x="57.6" y="41.472"/>
  </clipPath>
 </defs>
</svg>
