<?xml version="1.0" encoding="utf-8" standalone="no"?>
<!DOCTYPE svg PUBLIC "-//W3C//DTD SVG 1.1//EN"
  "http://www.w3.org/Graphics/SVG/1.1/DTD/svg11.dtd">
<!-- Created with matplotlib (https://matplotlib.org/) -->
<svg height="345.6pt" version="1.1" viewBox="0 0 460.8 345.6" width="460.8pt" xmlns="http://www.w3.org/2000/svg" xmlns:xlink="http://www.w3.org/1999/xlink">
 <defs>
  <style type="text/css">
*{stroke-linecap:butt;stroke-linejoin:round;}
  </style>
 </defs>
 <g id="figure_1">
  <g id="patch_1">
   <path d="M 0 345.6 
L 460.8 345.6 
L 460.8 0 
L 0 0 
z
" style="fill:#ffffff;"/>
  </g>
  <g id="axes_1">
   <g id="patch_2">
    <path d="M 57.6 307.584 
L 414.72 307.584 
L 414.72 41.472 
L 57.6 41.472 
z
" style="fill:#ffffff;"/>
   </g>
   <g id="patch_3">
    <path clip-path="url(#p9ac6408ea6)" d="M 100.120323 307.584 
L 102.841176 307.584 
L 102.841176 289.814657 
L 100.120323 289.814657 
z
" style="fill:#1f77b4;"/>
   </g>
   <g id="patch_4">
    <path clip-path="url(#p9ac6408ea6)" d="M 102.841192 307.584 
L 105.562046 307.584 
L 105.562046 296.507007 
L 102.841192 296.507007 
z
" style="fill:#1f77b4;"/>
   </g>
   <g id="patch_5">
    <path clip-path="url(#p9ac6408ea6)" d="M 105.56203 307.584 
L 108.282884 307.584 
L 108.282884 291.660822 
L 105.56203 291.660822 
z
" style="fill:#1f77b4;"/>
   </g>
   <g id="patch_6">
    <path clip-path="url(#p9ac6408ea6)" d="M 108.282884 307.584 
L 111.003737 307.584 
L 111.003737 291.430052 
L 108.282884 291.430052 
z
" style="fill:#1f77b4;"/>
   </g>
   <g id="patch_7">
    <path clip-path="url(#p9ac6408ea6)" d="M 111.003737 307.584 
L 113.724591 307.584 
L 113.724591 285.891555 
L 111.003737 285.891555 
z
" style="fill:#1f77b4;"/>
   </g>
   <g id="patch_8">
    <path clip-path="url(#p9ac6408ea6)" d="M 113.724591 307.584 
L 116.445437 307.584 
L 116.445437 286.583808 
L 113.724591 286.583808 
z
" style="fill:#1f77b4;"/>
   </g>
   <g id="patch_9">
    <path clip-path="url(#p9ac6408ea6)" d="M 116.445437 307.584 
L 119.166291 307.584 
L 119.166291 287.50695 
L 116.445437 287.50695 
z
" style="fill:#1f77b4;"/>
   </g>
   <g id="patch_10">
    <path clip-path="url(#p9ac6408ea6)" d="M 119.166291 307.584 
L 121.887144 307.584 
L 121.887144 282.660766 
L 119.166291 282.660766 
z
" style="fill:#1f77b4;"/>
   </g>
   <g id="patch_11">
    <path clip-path="url(#p9ac6408ea6)" d="M 121.887144 307.584 
L 124.607998 307.584 
L 124.607998 281.276141 
L 121.887144 281.276141 
z
" style="fill:#1f77b4;"/>
   </g>
   <g id="patch_12">
    <path clip-path="url(#p9ac6408ea6)" d="M 124.607998 307.584 
L 127.328852 307.584 
L 127.328852 277.35304 
L 124.607998 277.35304 
z
" style="fill:#1f77b4;"/>
   </g>
   <g id="patch_13">
    <path clip-path="url(#p9ac6408ea6)" d="M 127.328852 307.584 
L 130.049705 307.584 
L 130.049705 278.737664 
L 127.328852 278.737664 
z
" style="fill:#1f77b4;"/>
   </g>
   <g id="patch_14">
    <path clip-path="url(#p9ac6408ea6)" d="M 130.049705 307.584 
L 132.770559 307.584 
L 132.770559 282.891536 
L 130.049705 282.891536 
z
" style="fill:#1f77b4;"/>
   </g>
   <g id="patch_15">
    <path clip-path="url(#p9ac6408ea6)" d="M 132.770559 307.584 
L 135.491413 307.584 
L 135.491413 284.27616 
L 132.770559 284.27616 
z
" style="fill:#1f77b4;"/>
   </g>
   <g id="patch_16">
    <path clip-path="url(#p9ac6408ea6)" d="M 135.491413 307.584 
L 138.212266 307.584 
L 138.212266 280.8146 
L 135.491413 280.8146 
z
" style="fill:#1f77b4;"/>
   </g>
   <g id="patch_17">
    <path clip-path="url(#p9ac6408ea6)" d="M 138.212274 307.584 
L 140.93312 307.584 
L 140.93312 280.352981 
L 138.212274 280.352981 
z
" style="fill:#1f77b4;"/>
   </g>
   <g id="patch_18">
    <path clip-path="url(#p9ac6408ea6)" d="M 140.933112 307.584 
L 143.653966 307.584 
L 143.653966 278.506893 
L 140.933112 278.506893 
z
" style="fill:#1f77b4;"/>
   </g>
   <g id="patch_19">
    <path clip-path="url(#p9ac6408ea6)" d="M 143.653966 307.584 
L 146.374819 307.584 
L 146.374819 281.506912 
L 143.653966 281.506912 
z
" style="fill:#1f77b4;"/>
   </g>
   <g id="patch_20">
    <path clip-path="url(#p9ac6408ea6)" d="M 146.374819 307.584 
L 149.095673 307.584 
L 149.095673 275.737645 
L 146.374819 275.737645 
z
" style="fill:#1f77b4;"/>
   </g>
   <g id="patch_21">
    <path clip-path="url(#p9ac6408ea6)" d="M 149.095673 307.584 
L 151.816527 307.584 
L 151.816527 277.814581 
L 149.095673 277.814581 
z
" style="fill:#1f77b4;"/>
   </g>
   <g id="patch_22">
    <path clip-path="url(#p9ac6408ea6)" d="M 151.816527 307.584 
L 154.53738 307.584 
L 154.53738 276.660728 
L 151.816527 276.660728 
z
" style="fill:#1f77b4;"/>
   </g>
   <g id="patch_23">
    <path clip-path="url(#p9ac6408ea6)" d="M 154.53738 307.584 
L 157.258234 307.584 
L 157.258234 276.891498 
L 154.53738 276.891498 
z
" style="fill:#1f77b4;"/>
   </g>
   <g id="patch_24">
    <path clip-path="url(#p9ac6408ea6)" d="M 157.258234 307.584 
L 159.979088 307.584 
L 159.979088 271.353002 
L 157.258234 271.353002 
z
" style="fill:#1f77b4;"/>
   </g>
   <g id="patch_25">
    <path clip-path="url(#p9ac6408ea6)" d="M 159.979088 307.584 
L 162.699941 307.584 
L 162.699941 266.276047 
L 159.979088 266.276047 
z
" style="fill:#1f77b4;"/>
   </g>
   <g id="patch_26">
    <path clip-path="url(#p9ac6408ea6)" d="M 162.699941 307.584 
L 165.420795 307.584 
L 165.420795 267.891442 
L 162.699941 267.891442 
z
" style="fill:#1f77b4;"/>
   </g>
   <g id="patch_27">
    <path clip-path="url(#p9ac6408ea6)" d="M 165.420795 307.584 
L 168.141649 307.584 
L 168.141649 264.429881 
L 165.420795 264.429881 
z
" style="fill:#1f77b4;"/>
   </g>
   <g id="patch_28">
    <path clip-path="url(#p9ac6408ea6)" d="M 168.141649 307.584 
L 170.862495 307.584 
L 170.862495 262.814359 
L 168.141649 262.814359 
z
" style="fill:#1f77b4;"/>
   </g>
   <g id="patch_29">
    <path clip-path="url(#p9ac6408ea6)" d="M 170.862495 307.584 
L 173.583352 307.584 
L 173.583352 262.58378 
L 170.862495 262.58378 
z
" style="fill:#1f77b4;"/>
   </g>
   <g id="patch_30">
    <path clip-path="url(#p9ac6408ea6)" d="M 173.583348 307.584 
L 176.304198 307.584 
L 176.304198 263.968278 
L 173.583348 263.968278 
z
" style="fill:#1f77b4;"/>
   </g>
   <g id="patch_31">
    <path clip-path="url(#p9ac6408ea6)" d="M 176.304202 307.584 
L 179.025056 307.584 
L 179.025056 265.122193 
L 176.304202 265.122193 
z
" style="fill:#1f77b4;"/>
   </g>
   <g id="patch_32">
    <path clip-path="url(#p9ac6408ea6)" d="M 179.025056 307.584 
L 181.745909 307.584 
L 181.745909 255.891366 
L 179.025056 255.891366 
z
" style="fill:#1f77b4;"/>
   </g>
   <g id="patch_33">
    <path clip-path="url(#p9ac6408ea6)" d="M 181.745909 307.584 
L 184.466763 307.584 
L 184.466763 264.660652 
L 181.745909 264.660652 
z
" style="fill:#1f77b4;"/>
   </g>
   <g id="patch_34">
    <path clip-path="url(#p9ac6408ea6)" d="M 184.466763 307.584 
L 187.187617 307.584 
L 187.187617 257.045219 
L 184.466763 257.045219 
z
" style="fill:#1f77b4;"/>
   </g>
   <g id="patch_35">
    <path clip-path="url(#p9ac6408ea6)" d="M 187.187617 307.584 
L 189.908466 307.584 
L 189.908466 253.352811 
L 187.187617 253.352811 
z
" style="fill:#1f77b4;"/>
   </g>
   <g id="patch_36">
    <path clip-path="url(#p9ac6408ea6)" d="M 189.908466 307.584 
L 192.62932 307.584 
L 192.62932 260.045238 
L 189.908466 260.045238 
z
" style="fill:#1f77b4;"/>
   </g>
   <g id="patch_37">
    <path clip-path="url(#p9ac6408ea6)" d="M 192.62932 307.584 
L 195.350174 307.584 
L 195.350174 252.891347 
L 192.62932 252.891347 
z
" style="fill:#1f77b4;"/>
   </g>
   <g id="patch_38">
    <path clip-path="url(#p9ac6408ea6)" d="M 195.350174 307.584 
L 198.071027 307.584 
L 198.071027 259.122155 
L 195.350174 259.122155 
z
" style="fill:#1f77b4;"/>
   </g>
   <g id="patch_39">
    <path clip-path="url(#p9ac6408ea6)" d="M 198.071027 307.584 
L 200.791881 307.584 
L 200.791881 256.583678 
L 198.071027 256.583678 
z
" style="fill:#1f77b4;"/>
   </g>
   <g id="patch_40">
    <path clip-path="url(#p9ac6408ea6)" d="M 200.791877 307.584 
L 203.512727 307.584 
L 203.512727 241.352718 
L 200.791877 241.352718 
z
" style="fill:#1f77b4;"/>
   </g>
   <g id="patch_41">
    <path clip-path="url(#p9ac6408ea6)" d="M 203.512731 307.584 
L 206.233584 307.584 
L 206.233584 239.968188 
L 203.512731 239.968188 
z
" style="fill:#1f77b4;"/>
   </g>
   <g id="patch_42">
    <path clip-path="url(#p9ac6408ea6)" d="M 206.233584 307.584 
L 208.954438 307.584 
L 208.954438 231.429673 
L 206.233584 231.429673 
z
" style="fill:#1f77b4;"/>
   </g>
   <g id="patch_43">
    <path clip-path="url(#p9ac6408ea6)" d="M 208.954438 307.584 
L 211.675292 307.584 
L 211.675292 224.045011 
L 208.954438 224.045011 
z
" style="fill:#1f77b4;"/>
   </g>
   <g id="patch_44">
    <path clip-path="url(#p9ac6408ea6)" d="M 211.675292 307.584 
L 214.396143 307.584 
L 214.396143 220.814159 
L 211.675292 220.814159 
z
" style="fill:#1f77b4;"/>
   </g>
   <g id="patch_45">
    <path clip-path="url(#p9ac6408ea6)" d="M 214.396143 307.584 
L 217.116997 307.584 
L 217.116997 223.583469 
L 214.396143 223.583469 
z
" style="fill:#1f77b4;"/>
   </g>
   <g id="patch_46">
    <path clip-path="url(#p9ac6408ea6)" d="M 217.116995 307.584 
L 219.837847 307.584 
L 219.837847 230.275764 
L 217.116995 230.275764 
z
" style="fill:#1f77b4;"/>
   </g>
   <g id="patch_47">
    <path clip-path="url(#p9ac6408ea6)" d="M 219.837849 307.584 
L 222.558702 307.584 
L 222.558702 220.814221 
L 219.837849 220.814221 
z
" style="fill:#1f77b4;"/>
   </g>
   <g id="patch_48">
    <path clip-path="url(#p9ac6408ea6)" d="M 222.558702 307.584 
L 225.279555 307.584 
L 225.279555 221.275732 
L 222.558702 221.275732 
z
" style="fill:#1f77b4;"/>
   </g>
   <g id="patch_49">
    <path clip-path="url(#p9ac6408ea6)" d="M 225.279554 307.584 
L 228.000407 307.584 
L 228.000407 220.81419 
L 225.279554 220.81419 
z
" style="fill:#1f77b4;"/>
   </g>
   <g id="patch_50">
    <path clip-path="url(#p9ac6408ea6)" d="M 228.000408 307.584 
L 230.721261 307.584 
L 230.721261 212.506459 
L 228.000408 212.506459 
z
" style="fill:#1f77b4;"/>
   </g>
   <g id="patch_51">
    <path clip-path="url(#p9ac6408ea6)" d="M 230.721261 307.584 
L 233.442114 307.584 
L 233.442114 195.429415 
L 230.721261 195.429415 
z
" style="fill:#1f77b4;"/>
   </g>
   <g id="patch_52">
    <path clip-path="url(#p9ac6408ea6)" d="M 233.442114 307.584 
L 236.162967 307.584 
L 236.162967 206.967953 
L 233.442114 206.967953 
z
" style="fill:#1f77b4;"/>
   </g>
   <g id="patch_53">
    <path clip-path="url(#p9ac6408ea6)" d="M 236.162967 307.584 
L 238.88382 307.584 
L 238.88382 116.73659 
L 236.162967 116.73659 
z
" style="fill:#1f77b4;"/>
   </g>
   <g id="patch_54">
    <path clip-path="url(#p9ac6408ea6)" d="M 238.88382 307.584 
L 241.604673 307.584 
L 241.604673 198.429435 
L 238.88382 198.429435 
z
" style="fill:#1f77b4;"/>
   </g>
   <g id="patch_55">
    <path clip-path="url(#p9ac6408ea6)" d="M 241.604672 307.584 
L 244.325526 307.584 
L 244.325526 207.198733 
L 241.604672 207.198733 
z
" style="fill:#1f77b4;"/>
   </g>
   <g id="patch_56">
    <path clip-path="url(#p9ac6408ea6)" d="M 244.325526 307.584 
L 247.046379 307.584 
L 247.046379 216.891087 
L 244.325526 216.891087 
z
" style="fill:#1f77b4;"/>
   </g>
   <g id="patch_57">
    <path clip-path="url(#p9ac6408ea6)" d="M 247.046378 307.584 
L 249.76723 307.584 
L 249.76723 215.968004 
L 247.046378 215.968004 
z
" style="fill:#1f77b4;"/>
   </g>
   <g id="patch_58">
    <path clip-path="url(#p9ac6408ea6)" d="M 249.767231 307.584 
L 252.488085 307.584 
L 252.488085 224.045011 
L 249.767231 224.045011 
z
" style="fill:#1f77b4;"/>
   </g>
   <g id="patch_59">
    <path clip-path="url(#p9ac6408ea6)" d="M 252.488085 307.584 
L 255.208937 307.584 
L 255.208937 233.045015 
L 252.488085 233.045015 
z
" style="fill:#1f77b4;"/>
   </g>
   <g id="patch_60">
    <path clip-path="url(#p9ac6408ea6)" d="M 255.208937 307.584 
L 257.92979 307.584 
L 257.92979 229.352737 
L 255.208937 229.352737 
z
" style="fill:#1f77b4;"/>
   </g>
   <g id="patch_61">
    <path clip-path="url(#p9ac6408ea6)" d="M 257.929788 307.584 
L 260.65064 307.584 
L 260.65064 234.891181 
L 257.929788 234.891181 
z
" style="fill:#1f77b4;"/>
   </g>
   <g id="patch_62">
    <path clip-path="url(#p9ac6408ea6)" d="M 260.650642 307.584 
L 263.371496 307.584 
L 263.371496 239.275876 
L 260.650642 239.275876 
z
" style="fill:#1f77b4;"/>
   </g>
   <g id="patch_63">
    <path clip-path="url(#p9ac6408ea6)" d="M 263.371496 307.584 
L 266.092349 307.584 
L 266.092349 244.583602 
L 263.371496 244.583602 
z
" style="fill:#1f77b4;"/>
   </g>
   <g id="patch_64">
    <path clip-path="url(#p9ac6408ea6)" d="M 266.092349 307.584 
L 268.813203 307.584 
L 268.813203 238.122023 
L 266.092349 238.122023 
z
" style="fill:#1f77b4;"/>
   </g>
   <g id="patch_65">
    <path clip-path="url(#p9ac6408ea6)" d="M 268.813203 307.584 
L 271.534053 307.584 
L 271.534053 242.737344 
L 268.813203 242.737344 
z
" style="fill:#1f77b4;"/>
   </g>
   <g id="patch_66">
    <path clip-path="url(#p9ac6408ea6)" d="M 271.534053 307.584 
L 274.254906 307.584 
L 274.254906 246.660538 
L 271.534053 246.660538 
z
" style="fill:#1f77b4;"/>
   </g>
   <g id="patch_67">
    <path clip-path="url(#p9ac6408ea6)" d="M 274.254906 307.584 
L 276.97576 307.584 
L 276.97576 245.275914 
L 274.254906 245.275914 
z
" style="fill:#1f77b4;"/>
   </g>
   <g id="patch_68">
    <path clip-path="url(#p9ac6408ea6)" d="M 276.97576 307.584 
L 279.696614 307.584 
L 279.696614 249.199016 
L 276.97576 249.199016 
z
" style="fill:#1f77b4;"/>
   </g>
   <g id="patch_69">
    <path clip-path="url(#p9ac6408ea6)" d="M 279.696614 307.584 
L 282.417467 307.584 
L 282.417467 253.352888 
L 279.696614 253.352888 
z
" style="fill:#1f77b4;"/>
   </g>
   <g id="patch_70">
    <path clip-path="url(#p9ac6408ea6)" d="M 282.417464 307.584 
L 285.138313 307.584 
L 285.138313 258.660544 
L 282.417464 258.660544 
z
" style="fill:#1f77b4;"/>
   </g>
   <g id="patch_71">
    <path clip-path="url(#p9ac6408ea6)" d="M 285.138317 307.584 
L 287.859171 307.584 
L 287.859171 260.73755 
L 285.138317 260.73755 
z
" style="fill:#1f77b4;"/>
   </g>
   <g id="patch_72">
    <path clip-path="url(#p9ac6408ea6)" d="M 287.859171 307.584 
L 290.580024 307.584 
L 290.580024 263.506798 
L 287.859171 263.506798 
z
" style="fill:#1f77b4;"/>
   </g>
   <g id="patch_73">
    <path clip-path="url(#p9ac6408ea6)" d="M 290.580024 307.584 
L 293.300878 307.584 
L 293.300878 260.045238 
L 290.580024 260.045238 
z
" style="fill:#1f77b4;"/>
   </g>
   <g id="patch_74">
    <path clip-path="url(#p9ac6408ea6)" d="M 293.300878 307.584 
L 296.021732 307.584 
L 296.021732 261.891404 
L 293.300878 261.891404 
z
" style="fill:#1f77b4;"/>
   </g>
   <g id="patch_75">
    <path clip-path="url(#p9ac6408ea6)" d="M 296.021732 307.584 
L 298.742582 307.584 
L 298.742582 267.660614 
L 296.021732 267.660614 
z
" style="fill:#1f77b4;"/>
   </g>
   <g id="patch_76">
    <path clip-path="url(#p9ac6408ea6)" d="M 298.742585 307.584 
L 301.463447 307.584 
L 301.463447 267.891498 
L 298.742585 267.891498 
z
" style="fill:#1f77b4;"/>
   </g>
   <g id="patch_77">
    <path clip-path="url(#p9ac6408ea6)" d="M 301.463447 307.584 
L 304.184293 307.584 
L 304.184293 272.968298 
L 301.463447 272.968298 
z
" style="fill:#1f77b4;"/>
   </g>
   <g id="patch_78">
    <path clip-path="url(#p9ac6408ea6)" d="M 304.184285 307.584 
L 306.905139 307.584 
L 306.905139 273.660709 
L 304.184285 273.660709 
z
" style="fill:#1f77b4;"/>
   </g>
   <g id="patch_79">
    <path clip-path="url(#p9ac6408ea6)" d="M 306.905139 307.584 
L 309.625992 307.584 
L 309.625992 274.353021 
L 306.905139 274.353021 
z
" style="fill:#1f77b4;"/>
   </g>
   <g id="patch_80">
    <path clip-path="url(#p9ac6408ea6)" d="M 309.625992 307.584 
L 312.346846 307.584 
L 312.346846 271.353002 
L 309.625992 271.353002 
z
" style="fill:#1f77b4;"/>
   </g>
   <g id="patch_81">
    <path clip-path="url(#p9ac6408ea6)" d="M 312.346846 307.584 
L 315.0677 307.584 
L 315.0677 275.276104 
L 312.346846 275.276104 
z
" style="fill:#1f77b4;"/>
   </g>
   <g id="patch_82">
    <path clip-path="url(#p9ac6408ea6)" d="M 315.0677 307.584 
L 317.788553 307.584 
L 317.788553 275.968416 
L 315.0677 275.968416 
z
" style="fill:#1f77b4;"/>
   </g>
   <g id="patch_83">
    <path clip-path="url(#p9ac6408ea6)" d="M 317.788553 307.584 
L 320.509407 307.584 
L 320.509407 275.737645 
L 317.788553 275.737645 
z
" style="fill:#1f77b4;"/>
   </g>
   <g id="patch_84">
    <path clip-path="url(#p9ac6408ea6)" d="M 320.509407 307.584 
L 323.230261 307.584 
L 323.230261 276.429957 
L 320.509407 276.429957 
z
" style="fill:#1f77b4;"/>
   </g>
   <g id="patch_85">
    <path clip-path="url(#p9ac6408ea6)" d="M 323.230261 307.584 
L 325.951114 307.584 
L 325.951114 278.968435 
L 323.230261 278.968435 
z
" style="fill:#1f77b4;"/>
   </g>
   <g id="patch_86">
    <path clip-path="url(#p9ac6408ea6)" d="M 325.951114 307.584 
L 328.671968 307.584 
L 328.671968 281.506912 
L 325.951114 281.506912 
z
" style="fill:#1f77b4;"/>
   </g>
   <g id="patch_87">
    <path clip-path="url(#p9ac6408ea6)" d="M 328.671968 307.584 
L 331.392822 307.584 
L 331.392822 284.737702 
L 328.671968 284.737702 
z
" style="fill:#1f77b4;"/>
   </g>
   <g id="patch_88">
    <path clip-path="url(#p9ac6408ea6)" d="M 331.392822 307.584 
L 334.113667 307.584 
L 334.113667 286.353036 
L 331.392822 286.353036 
z
" style="fill:#1f77b4;"/>
   </g>
   <g id="patch_89">
    <path clip-path="url(#p9ac6408ea6)" d="M 334.113667 307.584 
L 336.834521 307.584 
L 336.834521 284.737702 
L 334.113667 284.737702 
z
" style="fill:#1f77b4;"/>
   </g>
   <g id="patch_90">
    <path clip-path="url(#p9ac6408ea6)" d="M 336.834521 307.584 
L 339.555375 307.584 
L 339.555375 286.353097 
L 336.834521 286.353097 
z
" style="fill:#1f77b4;"/>
   </g>
   <g id="patch_91">
    <path clip-path="url(#p9ac6408ea6)" d="M 339.555375 307.584 
L 342.276228 307.584 
L 342.276228 287.50695 
L 339.555375 287.50695 
z
" style="fill:#1f77b4;"/>
   </g>
   <g id="patch_92">
    <path clip-path="url(#p9ac6408ea6)" d="M 342.276228 307.584 
L 344.997082 307.584 
L 344.997082 293.737759 
L 342.276228 293.737759 
z
" style="fill:#1f77b4;"/>
   </g>
   <g id="patch_93">
    <path clip-path="url(#p9ac6408ea6)" d="M 344.997082 307.584 
L 347.717936 307.584 
L 347.717936 290.96851 
L 344.997082 290.96851 
z
" style="fill:#1f77b4;"/>
   </g>
   <g id="patch_94">
    <path clip-path="url(#p9ac6408ea6)" d="M 347.717936 307.584 
L 350.438789 307.584 
L 350.438789 289.583886 
L 347.717936 289.583886 
z
" style="fill:#1f77b4;"/>
   </g>
   <g id="patch_95">
    <path clip-path="url(#p9ac6408ea6)" d="M 350.438789 307.584 
L 353.159643 307.584 
L 353.159643 292.353135 
L 350.438789 292.353135 
z
" style="fill:#1f77b4;"/>
   </g>
   <g id="patch_96">
    <path clip-path="url(#p9ac6408ea6)" d="M 353.159643 307.584 
L 355.880497 307.584 
L 355.880497 293.968529 
L 353.159643 293.968529 
z
" style="fill:#1f77b4;"/>
   </g>
   <g id="patch_97">
    <path clip-path="url(#p9ac6408ea6)" d="M 355.880497 307.584 
L 358.60135 307.584 
L 358.60135 295.122383 
L 355.880497 295.122383 
z
" style="fill:#1f77b4;"/>
   </g>
   <g id="patch_98">
    <path clip-path="url(#p9ac6408ea6)" d="M 358.601358 307.584 
L 361.322204 307.584 
L 361.322204 298.814689 
L 358.601358 298.814689 
z
" style="fill:#1f77b4;"/>
   </g>
   <g id="patch_99">
    <path clip-path="url(#p9ac6408ea6)" d="M 361.322196 307.584 
L 364.04305 307.584 
L 364.04305 301.122421 
L 361.322196 301.122421 
z
" style="fill:#1f77b4;"/>
   </g>
   <g id="patch_100">
    <path clip-path="url(#p9ac6408ea6)" d="M 364.04305 307.584 
L 366.763904 307.584 
L 366.763904 302.276274 
L 364.04305 302.276274 
z
" style="fill:#1f77b4;"/>
   </g>
   <g id="patch_101">
    <path clip-path="url(#p9ac6408ea6)" d="M 366.763919 307.584 
L 369.484773 307.584 
L 369.484773 302.737816 
L 366.763919 302.737816 
z
" style="fill:#1f77b4;"/>
   </g>
   <g id="patch_102">
    <path clip-path="url(#p9ac6408ea6)" d="M 369.484757 307.584 
L 372.205611 307.584 
L 372.205611 302.045503 
L 369.484757 302.045503 
z
" style="fill:#1f77b4;"/>
   </g>
   <g id="matplotlib.axis_1">
    <g id="xtick_1">
     <g id="line2d_1">
      <defs>
       <path d="M 0 0 
L 0 3.5 
" id="m50850767b5" style="stroke:#000000;stroke-width:0.8;"/>
      </defs>
      <g>
       <use style="stroke:#000000;stroke-width:0.8;" x="106.298993" xlink:href="#m50850767b5" y="307.584"/>
      </g>
     </g>
     <g id="text_1">
      <!-- −2 -->
      <defs>
       <path d="M 10.59375 35.5 
L 73.1875 35.5 
L 73.1875 27.203125 
L 10.59375 27.203125 
z
" id="DejaVuSans-8722"/>
       <path d="M 19.1875 8.296875 
L 53.609375 8.296875 
L 53.609375 0 
L 7.328125 0 
L 7.328125 8.296875 
Q 12.9375 14.109375 22.625 23.890625 
Q 32.328125 33.6875 34.8125 36.53125 
Q 39.546875 41.84375 41.421875 45.53125 
Q 43.3125 49.21875 43.3125 52.78125 
Q 43.3125 58.59375 39.234375 62.25 
Q 35.15625 65.921875 28.609375 65.921875 
Q 23.96875 65.921875 18.8125 64.3125 
Q 13.671875 62.703125 7.8125 59.421875 
L 7.8125 69.390625 
Q 13.765625 71.78125 18.9375 73 
Q 24.125 74.21875 28.421875 74.21875 
Q 39.75 74.21875 46.484375 68.546875 
Q 53.21875 62.890625 53.21875 53.421875 
Q 53.21875 48.921875 51.53125 44.890625 
Q 49.859375 40.875 45.40625 35.40625 
Q 44.1875 33.984375 37.640625 27.21875 
Q 31.109375 20.453125 19.1875 8.296875 
z
" id="DejaVuSans-50"/>
      </defs>
      <g transform="translate(93.768134 327.501344)scale(0.17 -0.17)">
       <use xlink:href="#DejaVuSans-8722"/>
       <use x="83.789062" xlink:href="#DejaVuSans-50"/>
      </g>
     </g>
    </g>
    <g id="xtick_2">
     <g id="line2d_2">
      <g>
       <use style="stroke:#000000;stroke-width:0.8;" x="171.231526" xlink:href="#m50850767b5" y="307.584"/>
      </g>
     </g>
     <g id="text_2">
      <!-- −1 -->
      <defs>
       <path d="M 12.40625 8.296875 
L 28.515625 8.296875 
L 28.515625 63.921875 
L 10.984375 60.40625 
L 10.984375 69.390625 
L 28.421875 72.90625 
L 38.28125 72.90625 
L 38.28125 8.296875 
L 54.390625 8.296875 
L 54.390625 0 
L 12.40625 0 
z
" id="DejaVuSans-49"/>
      </defs>
      <g transform="translate(158.700667 327.501344)scale(0.17 -0.17)">
       <use xlink:href="#DejaVuSans-8722"/>
       <use x="83.789062" xlink:href="#DejaVuSans-49"/>
      </g>
     </g>
    </g>
    <g id="xtick_3">
     <g id="line2d_3">
      <g>
       <use style="stroke:#000000;stroke-width:0.8;" x="236.164058" xlink:href="#m50850767b5" y="307.584"/>
      </g>
     </g>
     <g id="text_3">
      <!-- 0 -->
      <defs>
       <path d="M 31.78125 66.40625 
Q 24.171875 66.40625 20.328125 58.90625 
Q 16.5 51.421875 16.5 36.375 
Q 16.5 21.390625 20.328125 13.890625 
Q 24.171875 6.390625 31.78125 6.390625 
Q 39.453125 6.390625 43.28125 13.890625 
Q 47.125 21.390625 47.125 36.375 
Q 47.125 51.421875 43.28125 58.90625 
Q 39.453125 66.40625 31.78125 66.40625 
z
M 31.78125 74.21875 
Q 44.046875 74.21875 50.515625 64.515625 
Q 56.984375 54.828125 56.984375 36.375 
Q 56.984375 17.96875 50.515625 8.265625 
Q 44.046875 -1.421875 31.78125 -1.421875 
Q 19.53125 -1.421875 13.0625 8.265625 
Q 6.59375 17.96875 6.59375 36.375 
Q 6.59375 54.828125 13.0625 64.515625 
Q 19.53125 74.21875 31.78125 74.21875 
z
" id="DejaVuSans-48"/>
      </defs>
      <g transform="translate(230.755933 327.501344)scale(0.17 -0.17)">
       <use xlink:href="#DejaVuSans-48"/>
      </g>
     </g>
    </g>
    <g id="xtick_4">
     <g id="line2d_4">
      <g>
       <use style="stroke:#000000;stroke-width:0.8;" x="301.096591" xlink:href="#m50850767b5" y="307.584"/>
      </g>
     </g>
     <g id="text_4">
      <!-- 1 -->
      <g transform="translate(295.688466 327.501344)scale(0.17 -0.17)">
       <use xlink:href="#DejaVuSans-49"/>
      </g>
     </g>
    </g>
    <g id="xtick_5">
     <g id="line2d_5">
      <g>
       <use style="stroke:#000000;stroke-width:0.8;" x="366.029123" xlink:href="#m50850767b5" y="307.584"/>
      </g>
     </g>
     <g id="text_5">
      <!-- 2 -->
      <g transform="translate(360.620998 327.501344)scale(0.17 -0.17)">
       <use xlink:href="#DejaVuSans-50"/>
      </g>
     </g>
    </g>
    <g id="text_6">
     <!-- Position in Radian -->
     <defs>
      <path d="M 19.671875 64.796875 
L 19.671875 37.40625 
L 32.078125 37.40625 
Q 38.96875 37.40625 42.71875 40.96875 
Q 46.484375 44.53125 46.484375 51.125 
Q 46.484375 57.671875 42.71875 61.234375 
Q 38.96875 64.796875 32.078125 64.796875 
z
M 9.8125 72.90625 
L 32.078125 72.90625 
Q 44.34375 72.90625 50.609375 67.359375 
Q 56.890625 61.8125 56.890625 51.125 
Q 56.890625 40.328125 50.609375 34.8125 
Q 44.34375 29.296875 32.078125 29.296875 
L 19.671875 29.296875 
L 19.671875 0 
L 9.8125 0 
z
" id="DejaVuSans-80"/>
      <path d="M 30.609375 48.390625 
Q 23.390625 48.390625 19.1875 42.75 
Q 14.984375 37.109375 14.984375 27.296875 
Q 14.984375 17.484375 19.15625 11.84375 
Q 23.34375 6.203125 30.609375 6.203125 
Q 37.796875 6.203125 41.984375 11.859375 
Q 46.1875 17.53125 46.1875 27.296875 
Q 46.1875 37.015625 41.984375 42.703125 
Q 37.796875 48.390625 30.609375 48.390625 
z
M 30.609375 56 
Q 42.328125 56 49.015625 48.375 
Q 55.71875 40.765625 55.71875 27.296875 
Q 55.71875 13.875 49.015625 6.21875 
Q 42.328125 -1.421875 30.609375 -1.421875 
Q 18.84375 -1.421875 12.171875 6.21875 
Q 5.515625 13.875 5.515625 27.296875 
Q 5.515625 40.765625 12.171875 48.375 
Q 18.84375 56 30.609375 56 
z
" id="DejaVuSans-111"/>
      <path d="M 44.28125 53.078125 
L 44.28125 44.578125 
Q 40.484375 46.53125 36.375 47.5 
Q 32.28125 48.484375 27.875 48.484375 
Q 21.1875 48.484375 17.84375 46.4375 
Q 14.5 44.390625 14.5 40.28125 
Q 14.5 37.15625 16.890625 35.375 
Q 19.28125 33.59375 26.515625 31.984375 
L 29.59375 31.296875 
Q 39.15625 29.25 43.1875 25.515625 
Q 47.21875 21.78125 47.21875 15.09375 
Q 47.21875 7.46875 41.1875 3.015625 
Q 35.15625 -1.421875 24.609375 -1.421875 
Q 20.21875 -1.421875 15.453125 -0.5625 
Q 10.6875 0.296875 5.421875 2 
L 5.421875 11.28125 
Q 10.40625 8.6875 15.234375 7.390625 
Q 20.0625 6.109375 24.8125 6.109375 
Q 31.15625 6.109375 34.5625 8.28125 
Q 37.984375 10.453125 37.984375 14.40625 
Q 37.984375 18.0625 35.515625 20.015625 
Q 33.0625 21.96875 24.703125 23.78125 
L 21.578125 24.515625 
Q 13.234375 26.265625 9.515625 29.90625 
Q 5.8125 33.546875 5.8125 39.890625 
Q 5.8125 47.609375 11.28125 51.796875 
Q 16.75 56 26.8125 56 
Q 31.78125 56 36.171875 55.265625 
Q 40.578125 54.546875 44.28125 53.078125 
z
" id="DejaVuSans-115"/>
      <path d="M 9.421875 54.6875 
L 18.40625 54.6875 
L 18.40625 0 
L 9.421875 0 
z
M 9.421875 75.984375 
L 18.40625 75.984375 
L 18.40625 64.59375 
L 9.421875 64.59375 
z
" id="DejaVuSans-105"/>
      <path d="M 18.3125 70.21875 
L 18.3125 54.6875 
L 36.8125 54.6875 
L 36.8125 47.703125 
L 18.3125 47.703125 
L 18.3125 18.015625 
Q 18.3125 11.328125 20.140625 9.421875 
Q 21.96875 7.515625 27.59375 7.515625 
L 36.8125 7.515625 
L 36.8125 0 
L 27.59375 0 
Q 17.1875 0 13.234375 3.875 
Q 9.28125 7.765625 9.28125 18.015625 
L 9.28125 47.703125 
L 2.6875 47.703125 
L 2.6875 54.6875 
L 9.28125 54.6875 
L 9.28125 70.21875 
z
" id="DejaVuSans-116"/>
      <path d="M 54.890625 33.015625 
L 54.890625 0 
L 45.90625 0 
L 45.90625 32.71875 
Q 45.90625 40.484375 42.875 44.328125 
Q 39.84375 48.1875 33.796875 48.1875 
Q 26.515625 48.1875 22.3125 43.546875 
Q 18.109375 38.921875 18.109375 30.90625 
L 18.109375 0 
L 9.078125 0 
L 9.078125 54.6875 
L 18.109375 54.6875 
L 18.109375 46.1875 
Q 21.34375 51.125 25.703125 53.5625 
Q 30.078125 56 35.796875 56 
Q 45.21875 56 50.046875 50.171875 
Q 54.890625 44.34375 54.890625 33.015625 
z
" id="DejaVuSans-110"/>
      <path id="DejaVuSans-32"/>
      <path d="M 44.390625 34.1875 
Q 47.5625 33.109375 50.5625 29.59375 
Q 53.5625 26.078125 56.59375 19.921875 
L 66.609375 0 
L 56 0 
L 46.6875 18.703125 
Q 43.0625 26.03125 39.671875 28.421875 
Q 36.28125 30.8125 30.421875 30.8125 
L 19.671875 30.8125 
L 19.671875 0 
L 9.8125 0 
L 9.8125 72.90625 
L 32.078125 72.90625 
Q 44.578125 72.90625 50.734375 67.671875 
Q 56.890625 62.453125 56.890625 51.90625 
Q 56.890625 45.015625 53.6875 40.46875 
Q 50.484375 35.9375 44.390625 34.1875 
z
M 19.671875 64.796875 
L 19.671875 38.921875 
L 32.078125 38.921875 
Q 39.203125 38.921875 42.84375 42.21875 
Q 46.484375 45.515625 46.484375 51.90625 
Q 46.484375 58.296875 42.84375 61.546875 
Q 39.203125 64.796875 32.078125 64.796875 
z
" id="DejaVuSans-82"/>
      <path d="M 34.28125 27.484375 
Q 23.390625 27.484375 19.1875 25 
Q 14.984375 22.515625 14.984375 16.5 
Q 14.984375 11.71875 18.140625 8.90625 
Q 21.296875 6.109375 26.703125 6.109375 
Q 34.1875 6.109375 38.703125 11.40625 
Q 43.21875 16.703125 43.21875 25.484375 
L 43.21875 27.484375 
z
M 52.203125 31.203125 
L 52.203125 0 
L 43.21875 0 
L 43.21875 8.296875 
Q 40.140625 3.328125 35.546875 0.953125 
Q 30.953125 -1.421875 24.3125 -1.421875 
Q 15.921875 -1.421875 10.953125 3.296875 
Q 6 8.015625 6 15.921875 
Q 6 25.140625 12.171875 29.828125 
Q 18.359375 34.515625 30.609375 34.515625 
L 43.21875 34.515625 
L 43.21875 35.40625 
Q 43.21875 41.609375 39.140625 45 
Q 35.0625 48.390625 27.6875 48.390625 
Q 23 48.390625 18.546875 47.265625 
Q 14.109375 46.140625 10.015625 43.890625 
L 10.015625 52.203125 
Q 14.9375 54.109375 19.578125 55.046875 
Q 24.21875 56 28.609375 56 
Q 40.484375 56 46.34375 49.84375 
Q 52.203125 43.703125 52.203125 31.203125 
z
" id="DejaVuSans-97"/>
      <path d="M 45.40625 46.390625 
L 45.40625 75.984375 
L 54.390625 75.984375 
L 54.390625 0 
L 45.40625 0 
L 45.40625 8.203125 
Q 42.578125 3.328125 38.25 0.953125 
Q 33.9375 -1.421875 27.875 -1.421875 
Q 17.96875 -1.421875 11.734375 6.484375 
Q 5.515625 14.40625 5.515625 27.296875 
Q 5.515625 40.1875 11.734375 48.09375 
Q 17.96875 56 27.875 56 
Q 33.9375 56 38.25 53.625 
Q 42.578125 51.265625 45.40625 46.390625 
z
M 14.796875 27.296875 
Q 14.796875 17.390625 18.875 11.75 
Q 22.953125 6.109375 30.078125 6.109375 
Q 37.203125 6.109375 41.296875 11.75 
Q 45.40625 17.390625 45.40625 27.296875 
Q 45.40625 37.203125 41.296875 42.84375 
Q 37.203125 48.484375 30.078125 48.484375 
Q 22.953125 48.484375 18.875 42.84375 
Q 14.796875 37.203125 14.796875 27.296875 
z
" id="DejaVuSans-100"/>
     </defs>
     <g transform="translate(102.024844 357.832125)scale(0.3 -0.3)">
      <use xlink:href="#DejaVuSans-80"/>
      <use x="60.255859" xlink:href="#DejaVuSans-111"/>
      <use x="121.4375" xlink:href="#DejaVuSans-115"/>
      <use x="173.537109" xlink:href="#DejaVuSans-105"/>
      <use x="201.320312" xlink:href="#DejaVuSans-116"/>
      <use x="240.529297" xlink:href="#DejaVuSans-105"/>
      <use x="268.3125" xlink:href="#DejaVuSans-111"/>
      <use x="329.494141" xlink:href="#DejaVuSans-110"/>
      <use x="392.873047" xlink:href="#DejaVuSans-32"/>
      <use x="424.660156" xlink:href="#DejaVuSans-105"/>
      <use x="452.443359" xlink:href="#DejaVuSans-110"/>
      <use x="515.822266" xlink:href="#DejaVuSans-32"/>
      <use x="547.609375" xlink:href="#DejaVuSans-82"/>
      <use x="617.060547" xlink:href="#DejaVuSans-97"/>
      <use x="678.339844" xlink:href="#DejaVuSans-100"/>
      <use x="741.816406" xlink:href="#DejaVuSans-105"/>
      <use x="769.599609" xlink:href="#DejaVuSans-97"/>
      <use x="830.878906" xlink:href="#DejaVuSans-110"/>
     </g>
    </g>
   </g>
   <g id="matplotlib.axis_2">
    <g id="ytick_1">
     <g id="line2d_6">
      <defs>
       <path d="M 0 0 
L -3.5 0 
" id="m267d666573" style="stroke:#000000;stroke-width:0.8;"/>
      </defs>
      <g>
       <use style="stroke:#000000;stroke-width:0.8;" x="57.6" xlink:href="#m267d666573" y="307.584"/>
      </g>
     </g>
     <g id="text_7">
      <!-- 0.0 -->
      <defs>
       <path d="M 10.6875 12.40625 
L 21 12.40625 
L 21 0 
L 10.6875 0 
z
" id="DejaVuSans-46"/>
      </defs>
      <g transform="translate(23.564687 314.042672)scale(0.17 -0.17)">
       <use xlink:href="#DejaVuSans-48"/>
       <use x="63.623047" xlink:href="#DejaVuSans-46"/>
       <use x="95.410156" xlink:href="#DejaVuSans-48"/>
      </g>
     </g>
    </g>
    <g id="ytick_2">
     <g id="line2d_7">
      <g>
       <use style="stroke:#000000;stroke-width:0.8;" x="57.6" xlink:href="#m267d666573" y="268.904266"/>
      </g>
     </g>
     <g id="text_8">
      <!-- 0.2 -->
      <g transform="translate(23.564687 275.362938)scale(0.17 -0.17)">
       <use xlink:href="#DejaVuSans-48"/>
       <use x="63.623047" xlink:href="#DejaVuSans-46"/>
       <use x="95.410156" xlink:href="#DejaVuSans-50"/>
      </g>
     </g>
    </g>
    <g id="ytick_3">
     <g id="line2d_8">
      <g>
       <use style="stroke:#000000;stroke-width:0.8;" x="57.6" xlink:href="#m267d666573" y="230.224532"/>
      </g>
     </g>
     <g id="text_9">
      <!-- 0.4 -->
      <defs>
       <path d="M 37.796875 64.3125 
L 12.890625 25.390625 
L 37.796875 25.390625 
z
M 35.203125 72.90625 
L 47.609375 72.90625 
L 47.609375 25.390625 
L 58.015625 25.390625 
L 58.015625 17.1875 
L 47.609375 17.1875 
L 47.609375 0 
L 37.796875 0 
L 37.796875 17.1875 
L 4.890625 17.1875 
L 4.890625 26.703125 
z
" id="DejaVuSans-52"/>
      </defs>
      <g transform="translate(23.564687 236.683204)scale(0.17 -0.17)">
       <use xlink:href="#DejaVuSans-48"/>
       <use x="63.623047" xlink:href="#DejaVuSans-46"/>
       <use x="95.410156" xlink:href="#DejaVuSans-52"/>
      </g>
     </g>
    </g>
    <g id="ytick_4">
     <g id="line2d_9">
      <g>
       <use style="stroke:#000000;stroke-width:0.8;" x="57.6" xlink:href="#m267d666573" y="191.544798"/>
      </g>
     </g>
     <g id="text_10">
      <!-- 0.6 -->
      <defs>
       <path d="M 33.015625 40.375 
Q 26.375 40.375 22.484375 35.828125 
Q 18.609375 31.296875 18.609375 23.390625 
Q 18.609375 15.53125 22.484375 10.953125 
Q 26.375 6.390625 33.015625 6.390625 
Q 39.65625 6.390625 43.53125 10.953125 
Q 47.40625 15.53125 47.40625 23.390625 
Q 47.40625 31.296875 43.53125 35.828125 
Q 39.65625 40.375 33.015625 40.375 
z
M 52.59375 71.296875 
L 52.59375 62.3125 
Q 48.875 64.0625 45.09375 64.984375 
Q 41.3125 65.921875 37.59375 65.921875 
Q 27.828125 65.921875 22.671875 59.328125 
Q 17.53125 52.734375 16.796875 39.40625 
Q 19.671875 43.65625 24.015625 45.921875 
Q 28.375 48.1875 33.59375 48.1875 
Q 44.578125 48.1875 50.953125 41.515625 
Q 57.328125 34.859375 57.328125 23.390625 
Q 57.328125 12.15625 50.6875 5.359375 
Q 44.046875 -1.421875 33.015625 -1.421875 
Q 20.359375 -1.421875 13.671875 8.265625 
Q 6.984375 17.96875 6.984375 36.375 
Q 6.984375 53.65625 15.1875 63.9375 
Q 23.390625 74.21875 37.203125 74.21875 
Q 40.921875 74.21875 44.703125 73.484375 
Q 48.484375 72.75 52.59375 71.296875 
z
" id="DejaVuSans-54"/>
      </defs>
      <g transform="translate(23.564687 198.00347)scale(0.17 -0.17)">
       <use xlink:href="#DejaVuSans-48"/>
       <use x="63.623047" xlink:href="#DejaVuSans-46"/>
       <use x="95.410156" xlink:href="#DejaVuSans-54"/>
      </g>
     </g>
    </g>
    <g id="ytick_5">
     <g id="line2d_10">
      <g>
       <use style="stroke:#000000;stroke-width:0.8;" x="57.6" xlink:href="#m267d666573" y="152.865064"/>
      </g>
     </g>
     <g id="text_11">
      <!-- 0.8 -->
      <defs>
       <path d="M 31.78125 34.625 
Q 24.75 34.625 20.71875 30.859375 
Q 16.703125 27.09375 16.703125 20.515625 
Q 16.703125 13.921875 20.71875 10.15625 
Q 24.75 6.390625 31.78125 6.390625 
Q 38.8125 6.390625 42.859375 10.171875 
Q 46.921875 13.96875 46.921875 20.515625 
Q 46.921875 27.09375 42.890625 30.859375 
Q 38.875 34.625 31.78125 34.625 
z
M 21.921875 38.8125 
Q 15.578125 40.375 12.03125 44.71875 
Q 8.5 49.078125 8.5 55.328125 
Q 8.5 64.0625 14.71875 69.140625 
Q 20.953125 74.21875 31.78125 74.21875 
Q 42.671875 74.21875 48.875 69.140625 
Q 55.078125 64.0625 55.078125 55.328125 
Q 55.078125 49.078125 51.53125 44.71875 
Q 48 40.375 41.703125 38.8125 
Q 48.828125 37.15625 52.796875 32.3125 
Q 56.78125 27.484375 56.78125 20.515625 
Q 56.78125 9.90625 50.3125 4.234375 
Q 43.84375 -1.421875 31.78125 -1.421875 
Q 19.734375 -1.421875 13.25 4.234375 
Q 6.78125 9.90625 6.78125 20.515625 
Q 6.78125 27.484375 10.78125 32.3125 
Q 14.796875 37.15625 21.921875 38.8125 
z
M 18.3125 54.390625 
Q 18.3125 48.734375 21.84375 45.5625 
Q 25.390625 42.390625 31.78125 42.390625 
Q 38.140625 42.390625 41.71875 45.5625 
Q 45.3125 48.734375 45.3125 54.390625 
Q 45.3125 60.0625 41.71875 63.234375 
Q 38.140625 66.40625 31.78125 66.40625 
Q 25.390625 66.40625 21.84375 63.234375 
Q 18.3125 60.0625 18.3125 54.390625 
z
" id="DejaVuSans-56"/>
      </defs>
      <g transform="translate(23.564687 159.323736)scale(0.17 -0.17)">
       <use xlink:href="#DejaVuSans-48"/>
       <use x="63.623047" xlink:href="#DejaVuSans-46"/>
       <use x="95.410156" xlink:href="#DejaVuSans-56"/>
      </g>
     </g>
    </g>
    <g id="ytick_6">
     <g id="line2d_11">
      <g>
       <use style="stroke:#000000;stroke-width:0.8;" x="57.6" xlink:href="#m267d666573" y="114.18533"/>
      </g>
     </g>
     <g id="text_12">
      <!-- 1.0 -->
      <g transform="translate(23.564687 120.644001)scale(0.17 -0.17)">
       <use xlink:href="#DejaVuSans-49"/>
       <use x="63.623047" xlink:href="#DejaVuSans-46"/>
       <use x="95.410156" xlink:href="#DejaVuSans-48"/>
      </g>
     </g>
    </g>
    <g id="ytick_7">
     <g id="line2d_12">
      <g>
       <use style="stroke:#000000;stroke-width:0.8;" x="57.6" xlink:href="#m267d666573" y="75.505595"/>
      </g>
     </g>
     <g id="text_13">
      <!-- 1.2 -->
      <g transform="translate(23.564687 81.964267)scale(0.17 -0.17)">
       <use xlink:href="#DejaVuSans-49"/>
       <use x="63.623047" xlink:href="#DejaVuSans-46"/>
       <use x="95.410156" xlink:href="#DejaVuSans-50"/>
      </g>
     </g>
    </g>
    <g id="text_14">
     <!-- Density -->
     <defs>
      <path d="M 19.671875 64.796875 
L 19.671875 8.109375 
L 31.59375 8.109375 
Q 46.6875 8.109375 53.6875 14.9375 
Q 60.6875 21.78125 60.6875 36.53125 
Q 60.6875 51.171875 53.6875 57.984375 
Q 46.6875 64.796875 31.59375 64.796875 
z
M 9.8125 72.90625 
L 30.078125 72.90625 
Q 51.265625 72.90625 61.171875 64.09375 
Q 71.09375 55.28125 71.09375 36.53125 
Q 71.09375 17.671875 61.125 8.828125 
Q 51.171875 0 30.078125 0 
L 9.8125 0 
z
" id="DejaVuSans-68"/>
      <path d="M 56.203125 29.59375 
L 56.203125 25.203125 
L 14.890625 25.203125 
Q 15.484375 15.921875 20.484375 11.0625 
Q 25.484375 6.203125 34.421875 6.203125 
Q 39.59375 6.203125 44.453125 7.46875 
Q 49.3125 8.734375 54.109375 11.28125 
L 54.109375 2.78125 
Q 49.265625 0.734375 44.1875 -0.34375 
Q 39.109375 -1.421875 33.890625 -1.421875 
Q 20.796875 -1.421875 13.15625 6.1875 
Q 5.515625 13.8125 5.515625 26.8125 
Q 5.515625 40.234375 12.765625 48.109375 
Q 20.015625 56 32.328125 56 
Q 43.359375 56 49.78125 48.890625 
Q 56.203125 41.796875 56.203125 29.59375 
z
M 47.21875 32.234375 
Q 47.125 39.59375 43.09375 43.984375 
Q 39.0625 48.390625 32.421875 48.390625 
Q 24.90625 48.390625 20.390625 44.140625 
Q 15.875 39.890625 15.1875 32.171875 
z
" id="DejaVuSans-101"/>
      <path d="M 32.171875 -5.078125 
Q 28.375 -14.84375 24.75 -17.8125 
Q 21.140625 -20.796875 15.09375 -20.796875 
L 7.90625 -20.796875 
L 7.90625 -13.28125 
L 13.1875 -13.28125 
Q 16.890625 -13.28125 18.9375 -11.515625 
Q 21 -9.765625 23.484375 -3.21875 
L 25.09375 0.875 
L 2.984375 54.6875 
L 12.5 54.6875 
L 29.59375 11.921875 
L 46.6875 54.6875 
L 56.203125 54.6875 
z
" id="DejaVuSans-121"/>
     </defs>
     <g transform="translate(13.325625 231.553781)rotate(-90)scale(0.3 -0.3)">
      <use xlink:href="#DejaVuSans-68"/>
      <use x="77.001953" xlink:href="#DejaVuSans-101"/>
      <use x="138.525391" xlink:href="#DejaVuSans-110"/>
      <use x="201.904297" xlink:href="#DejaVuSans-115"/>
      <use x="254.003906" xlink:href="#DejaVuSans-105"/>
      <use x="281.787109" xlink:href="#DejaVuSans-116"/>
      <use x="320.996094" xlink:href="#DejaVuSans-121"/>
     </g>
    </g>
   </g>
   <g id="line2d_13">
    <path clip-path="url(#p9ac6408ea6)" d="M 73.832727 307.584 
L 98.133728 307.475976 
L 98.409691 307.210326 
L 98.653188 306.62047 
L 98.912918 305.310808 
L 99.221347 302.438329 
L 99.797624 294.27257 
L 100.170986 290.693406 
L 100.341434 290.316897 
L 100.357667 290.323285 
L 100.463182 290.524425 
L 100.674213 291.56769 
L 101.364121 295.232658 
L 101.607618 295.479535 
L 101.875465 295.401864 
L 102.256943 295.343618 
L 102.605956 295.568751 
L 103.247164 295.969425 
L 103.750392 296.260681 
L 104.594514 296.978661 
L 104.789312 296.685493 
L 105.073392 295.774046 
L 106.128546 291.933494 
L 106.412625 291.731492 
L 106.696705 291.801299 
L 107.102534 292.171545 
L 107.922307 292.946899 
L 108.384951 293.028265 
L 108.750197 292.897681 
L 109.034276 292.53336 
L 109.383289 291.656395 
L 110.073197 289.894738 
L 110.34916 289.740811 
L 110.901087 289.596922 
L 111.160817 289.122705 
L 111.566645 287.80774 
L 112.321486 285.438167 
L 112.889646 284.489682 
L 113.8961 283.127888 
L 114.074664 283.281231 
L 114.310045 283.841078 
L 114.69964 285.479641 
L 115.340849 288.031847 
L 115.608695 288.356253 
L 115.811609 288.292175 
L 116.160622 287.854645 
L 116.5908 287.44112 
L 116.866763 287.467156 
L 117.248242 287.779358 
L 117.824518 288.203792 
L 118.068015 288.119624 
L 118.319629 287.755745 
L 118.676757 286.774328 
L 119.488414 284.464767 
L 119.82931 284.17216 
L 120.308187 283.829305 
L 120.770832 283.045622 
L 121.079261 282.749745 
L 121.257826 282.851206 
L 121.493206 283.306874 
L 122.183114 284.785595 
L 122.337329 284.687534 
L 122.540243 284.211032 
L 122.864906 282.755735 
L 123.984992 277.192874 
L 124.196023 277.087566 
L 124.43952 277.271412 
L 124.820998 277.511774 
L 125.040146 277.379743 
L 125.470324 276.750926 
L 125.811219 276.454281 
L 126.030367 276.529421 
L 126.273864 276.89377 
L 126.59041 277.821188 
L 127.13422 280.282435 
L 127.564398 281.771163 
L 127.767312 281.910387 
L 127.921527 281.723316 
L 128.156907 280.997958 
L 128.643901 278.556723 
L 129.114662 276.675842 
L 129.341926 276.441898 
L 129.496141 276.575544 
L 129.739638 277.176277 
L 131.387301 282.103303 
L 132.069092 283.375719 
L 132.483037 283.719447 
L 133.416442 284.288261 
L 133.773571 284.416771 
L 134.049535 284.267863 
L 134.926124 283.623811 
L 135.429351 283.480619 
L 135.745897 283.077931 
L 136.663069 281.758447 
L 136.914683 281.812555 
L 137.263695 282.173177 
L 137.742572 282.589949 
L 138.002302 282.536575 
L 138.335082 282.195231 
L 138.911358 281.236897 
L 139.438935 279.912485 
L 140.60772 276.782661 
L 140.843101 276.694836 
L 141.037898 276.877797 
L 141.346328 277.544079 
L 142.036236 279.060898 
L 142.344666 279.229324 
L 142.985874 279.428569 
L 144.357574 280.787605 
L 144.755286 281.73083 
L 145.19358 282.603176 
L 145.364028 282.586478 
L 145.542593 282.264906 
L 145.826673 281.183769 
L 146.646446 277.83496 
L 148.148011 274.877792 
L 148.318459 274.955713 
L 148.545722 275.368186 
L 149.324913 276.975893 
L 150.079753 277.458969 
L 150.850827 278.731727 
L 151.037508 278.578477 
L 151.313472 277.998994 
L 151.816699 276.328198 
L 152.52284 274.072914 
L 152.701404 274.022079 
L 152.863736 274.277237 
L 153.131582 275.225061 
L 153.772791 277.556917 
L 153.975705 277.660754 
L 154.170503 277.473687 
L 154.763012 276.798532 
L 154.93346 276.976698 
L 155.19319 277.650876 
L 155.883099 279.568184 
L 156.053546 279.548258 
L 156.248344 279.224596 
L 156.621706 278.046243 
L 157.39278 274.856679 
L 158.634615 268.780386 
L 158.813179 268.803441 
L 159.089142 269.164127 
L 159.405688 269.444394 
L 159.551787 269.301174 
L 159.746584 268.706622 
L 160.046897 266.902714 
L 160.704339 262.845632 
L 160.826088 262.752098 
L 160.858554 262.777665 
L 160.988419 263.086076 
L 161.223799 264.350993 
L 162.043573 269.23563 
L 162.254603 269.428375 
L 162.441284 269.297173 
L 162.912045 268.911728 
L 163.09061 269.089306 
L 163.390923 269.800035 
L 163.772401 270.537087 
L 163.918499 270.485893 
L 164.097064 270.090819 
L 164.397377 268.748478 
L 165.282083 264.539269 
L 165.606745 263.983687 
L 165.825893 263.955477 
L 166.085623 264.192952 
L 167.116427 265.339592 
L 167.570954 265.546778 
L 167.838801 265.429585 
L 168.268979 264.924916 
L 169.186151 263.560911 
L 169.876059 262.168621 
L 170.022157 262.269005 
L 170.216955 262.761754 
L 170.549734 264.352171 
L 171.085428 266.713145 
L 171.263992 266.846031 
L 171.272109 266.84149 
L 171.41009 266.622203 
L 171.629238 265.756268 
L 172.018833 263.10777 
L 172.692508 258.713375 
L 172.927888 258.28116 
L 173.049637 258.383218 
L 173.228201 258.925621 
L 173.536631 260.729858 
L 174.210306 264.683323 
L 174.38887 264.847778 
L 174.396987 264.843308 
L 174.534968 264.619559 
L 174.786582 263.655377 
L 175.354742 261.482426 
L 175.541423 261.414091 
L 175.711871 261.657007 
L 176.052766 262.643602 
L 176.685859 264.343917 
L 177.034871 264.715713 
L 177.3433 264.731807 
L 177.952043 264.69427 
L 178.666301 264.88008 
L 178.909798 264.578178 
L 179.218227 263.791491 
L 179.583473 262.186278 
L 180.029884 259.079374 
L 180.687326 254.649591 
L 180.841541 254.444296 
L 180.86589 254.458853 
L 180.979522 254.704572 
L 181.17432 255.787285 
L 181.547682 259.451048 
L 182.026559 263.472776 
L 182.253823 263.994679 
L 182.367455 263.908174 
L 182.554136 263.388003 
L 183.503775 260.212198 
L 183.666106 260.305441 
L 183.942069 260.818591 
L 184.315431 261.379341 
L 184.461529 261.303908 
L 184.64821 260.878997 
L 184.964756 259.469689 
L 185.605965 256.666957 
L 185.906278 256.250334 
L 186.344573 255.807124 
L 186.612419 255.021646 
L 187.180579 252.36157 
L 187.553941 251.251184 
L 187.773089 251.120358 
L 187.95977 251.28334 
L 188.2195 251.869593 
L 188.560395 253.258146 
L 189.639899 258.213648 
L 189.883396 258.308786 
L 190.329807 258.384308 
L 190.65447 258.79945 
L 191.100881 259.279955 
L 191.376844 259.259836 
L 191.798906 258.961638 
L 192.099218 258.490625 
L 192.383298 257.561679 
L 192.845943 255.087597 
L 193.308587 253.096698 
L 193.519618 252.90771 
L 193.665716 253.088945 
L 193.909213 253.84934 
L 194.582888 256.093876 
L 194.761452 256.118593 
L 194.972483 255.851581 
L 195.410778 255.318287 
L 195.556876 255.455078 
L 195.75979 256.030719 
L 196.125035 257.907158 
L 196.612029 260.079544 
L 196.82306 260.290346 
L 196.969158 260.13355 
L 197.196422 259.464568 
L 197.594134 257.4441 
L 198.332742 253.733996 
L 198.543772 253.513116 
L 198.681754 253.683579 
L 198.892785 254.396923 
L 199.347312 256.976312 
L 199.728791 258.551091 
L 199.874889 258.639623 
L 199.891122 258.62698 
L 200.020987 258.354608 
L 200.232018 257.258666 
L 200.564797 254.125308 
L 201.660534 242.942934 
L 202.082595 241.086865 
L 202.447841 240.348607 
L 203.113399 239.315208 
L 203.754608 237.965687 
L 203.89259 238.096745 
L 204.095504 238.701881 
L 205.037026 242.088858 
L 205.199357 241.93145 
L 205.49967 241.229377 
L 206.424958 238.304971 
L 206.993118 235.577451 
L 207.845358 230.268578 
L 208.413517 227.282289 
L 208.697597 226.725958 
L 208.892395 226.719247 
L 209.501137 226.932382 
L 209.712168 226.532232 
L 210.134229 225.096956 
L 210.645573 223.678209 
L 211.100101 222.475799 
L 211.440997 220.713728 
L 212.228304 216.419064 
L 212.358169 216.36707 
L 212.382518 216.389292 
L 212.528616 216.732745 
L 212.772113 218.013964 
L 213.794801 224.192565 
L 214.054531 224.456302 
L 214.874304 224.83768 
L 215.182734 224.990595 
L 215.353182 224.826959 
L 215.580446 224.229368 
L 216.237887 222.211677 
L 216.262237 222.223479 
L 216.383986 222.452815 
L 216.578783 223.431873 
L 216.903446 226.446037 
L 217.633937 233.27011 
L 217.893667 233.992929 
L 218.023532 233.953883 
L 218.185863 233.563652 
L 218.445594 232.248399 
L 218.883888 228.66418 
L 219.549447 223.542773 
L 219.890342 222.434668 
L 220.239355 222.007657 
L 221.505539 220.826557 
L 222.138631 219.95159 
L 222.284729 220.097753 
L 222.487644 220.692914 
L 222.861006 222.670973 
L 223.274951 224.406534 
L 223.437282 224.49601 
L 223.445398 224.49051 
L 223.591497 224.246189 
L 223.883693 223.200519 
L 224.41127 221.471474 
L 224.703466 221.165435 
L 224.963196 221.192973 
L 225.555706 221.34966 
L 225.774853 221.0475 
L 226.748841 219.338225 
L 227.016688 219.099904 
L 227.243952 218.515665 
L 227.560498 216.967502 
L 228.818566 210.099297 
L 229.175694 209.309033 
L 229.362376 209.279919 
L 229.54094 209.533416 
L 229.833136 210.4305 
L 230.328247 211.861721 
L 230.466229 211.825496 
L 230.612327 211.433059 
L 230.831474 210.054083 
L 231.139904 206.438365 
L 231.699947 196.532298 
L 232.186941 189.644603 
L 232.422321 188.595865 
L 232.503487 188.637911 
L 232.511603 188.653015 
L 232.649585 189.190388 
L 232.909315 191.334356 
L 234.183616 203.301853 
L 234.313481 203.622602 
L 234.354064 203.576555 
L 234.451463 203.071417 
L 234.597561 200.905833 
L 234.792359 194.249739 
L 235.043972 176.905676 
L 235.401101 133.919644 
L 236.04231 57.144422 
L 236.172175 54.144 
L 236.204641 54.368972 
L 236.30204 57.359344 
L 236.488721 71.891108 
L 236.902666 127.230447 
L 237.405893 183.146173 
L 237.754905 200.425269 
L 238.071451 206.646846 
L 238.387998 209.070663 
L 238.647728 209.716844 
L 238.769476 209.657973 
L 238.915574 209.235675 
L 239.126605 207.839585 
L 239.426918 204.134972 
L 240.303507 192.258683 
L 240.36844 192.211935 
L 240.409023 192.269019 
L 240.530771 192.815694 
L 240.766152 195.142319 
L 241.683324 205.204653 
L 242.081035 207.077394 
L 242.300183 207.340972 
L 242.430048 207.173205 
L 242.641078 206.433445 
L 243.32287 203.804322 
L 243.460852 203.854544 
L 243.655649 204.262399 
L 244.256275 206.299118 
L 244.580938 207.979519 
L 244.913717 211.122198 
L 245.936404 221.888075 
L 246.204251 222.543277 
L 246.374699 222.55281 
L 246.56138 222.27155 
L 246.837343 221.371434 
L 247.41362 218.472326 
L 247.900614 216.631071 
L 248.290209 215.946242 
L 248.655454 215.689207 
L 248.882718 215.766331 
L 249.093749 216.114728 
L 249.369712 217.080034 
L 249.864823 219.851316 
L 250.351817 222.045119 
L 250.700829 222.695597 
L 251.090424 223.371857 
L 251.398854 224.519923 
L 252.486474 229.154753 
L 253.249431 230.475864 
L 253.63091 232.29501 
L 254.117903 234.346185 
L 254.255885 234.425659 
L 254.280235 234.406782 
L 254.418216 234.107439 
L 254.64548 232.956116 
L 255.676284 226.874393 
L 255.879198 226.797241 
L 256.082113 226.992034 
L 256.366192 227.604609 
L 256.658389 228.798363 
L 256.999285 231.286154 
L 257.88399 238.303863 
L 258.013855 238.405053 
L 258.046322 238.38046 
L 258.19242 238.049949 
L 258.468383 236.722922 
L 259.150175 233.42914 
L 259.418021 233.043936 
L 259.612819 233.077812 
L 259.888782 233.411792 
L 260.546224 234.662808 
L 261.065684 236.082825 
L 261.934157 239.319878 
L 262.559133 241.213965 
L 263.102943 242.138521 
L 263.541237 243.009895 
L 263.955182 244.443625 
L 264.588274 246.564195 
L 264.774955 246.636567 
L 264.92917 246.394205 
L 265.164551 245.500047 
L 266.171005 240.944529 
L 266.179121 240.946832 
L 266.333336 241.122979 
L 266.893379 242.0665 
L 266.942079 242.025309 
L 267.096293 241.670224 
L 267.347907 240.403456 
L 268.175797 235.779188 
L 268.289429 235.795184 
L 268.297545 235.805509 
L 268.443643 236.201412 
L 268.679024 237.618643 
L 269.750411 245.163191 
L 269.864043 245.041822 
L 270.066957 244.40181 
L 270.716282 242.178132 
L 270.878613 242.178487 
L 271.065294 242.469084 
L 271.592871 243.911595 
L 271.9987 244.62433 
L 272.436994 244.924835 
L 272.850939 245.287224 
L 273.264884 246.006601 
L 274.027841 247.353363 
L 274.263222 247.374781 
L 274.514835 247.128049 
L 275.139811 246.443463 
L 275.383308 246.543866 
L 275.854069 246.768279 
L 276.056983 246.554123 
L 276.397879 245.769004 
L 276.771241 245.106082 
L 276.933572 245.152182 
L 277.120253 245.522565 
L 277.453032 246.816867 
L 277.996842 248.76847 
L 278.240339 248.982589 
L 278.47572 248.879258 
L 278.938364 248.667667 
L 279.27926 248.826883 
L 279.928585 249.36506 
L 280.172082 250.036347 
L 280.488628 251.691446 
L 281.316518 256.326882 
L 281.535665 256.525041 
L 281.706113 256.378781 
L 282.355439 255.644917 
L 282.534003 255.911752 
L 282.826199 256.855876 
L 283.507991 259.114245 
L 283.800187 259.380907 
L 284.214132 259.394954 
L 284.798525 259.508952 
L 285.244936 259.492455 
L 286.27574 259.254413 
L 286.673452 259.613538 
L 287.752955 261.010548 
L 288.678244 262.631602 
L 289.5386 264.279598 
L 289.546716 264.275626 
L 289.684698 264.080104 
L 289.887612 263.312242 
L 290.212275 261.027646 
L 290.788551 257.125115 
L 290.934649 256.941075 
L 290.958999 256.954811 
L 291.080748 257.210693 
L 291.291778 258.304734 
L 292.249533 264.092303 
L 292.411864 264.098238 
L 292.606662 263.778691 
L 293.369619 262.305615 
L 293.588767 262.368904 
L 294.262442 262.715179 
L 294.562755 262.472476 
L 295.033515 262.123197 
L 295.220197 262.258096 
L 295.439344 262.750215 
L 295.764006 264.12772 
L 296.575663 267.746964 
L 296.851626 268.089031 
L 297.07889 268.062527 
L 297.403553 267.751501 
L 298.14216 267.000429 
L 298.377541 267.079057 
L 298.694087 267.477548 
L 299.213547 268.091469 
L 299.432695 268.046335 
L 299.684308 267.716578 
L 300.422916 266.601341 
L 300.57713 266.796716 
L 300.796278 267.50969 
L 301.16964 269.647234 
L 301.859548 273.465912 
L 302.192327 274.220188 
L 302.443941 274.34298 
L 302.703671 274.200187 
L 303.109499 273.67266 
L 303.734475 272.451286 
L 304.205236 271.730264 
L 304.4325 271.714612 
L 304.659763 271.966484 
L 305.049359 272.824285 
L 305.552586 273.789204 
L 305.763616 273.820777 
L 305.950297 273.577235 
L 306.218144 272.785205 
L 307.10285 269.824541 
L 307.232715 269.969307 
L 307.427513 270.635573 
L 307.760292 272.752289 
L 308.442083 277.042619 
L 308.750513 277.735284 
L 308.99401 277.826982 
L 309.245624 277.668167 
L 309.521587 277.214592 
L 309.805667 276.275754 
L 310.170912 274.1649 
L 310.933869 269.595255 
L 311.112434 269.434645 
L 311.12055 269.438998 
L 311.258532 269.659213 
L 311.493912 270.56156 
L 312.281219 273.866956 
L 312.459784 273.912966 
L 312.638348 273.674166 
L 313.385072 272.397754 
L 313.401306 272.407808 
L 313.571753 272.660864 
L 313.847717 273.566517 
L 315.227533 278.830412 
L 315.519729 279.08741 
L 315.746993 279.02168 
L 316.031073 278.673337 
L 316.380086 277.863285 
L 316.737214 276.407222 
L 317.686853 271.951163 
L 317.703086 271.956932 
L 317.824834 272.152502 
L 318.027749 273.038669 
L 318.466043 276.29948 
L 318.879988 278.624718 
L 319.074786 278.868706 
L 319.082902 278.865396 
L 319.212767 278.671359 
L 319.431915 277.815006 
L 320.430252 273.197651 
L 320.584467 273.252182 
L 320.803614 273.658209 
L 321.40424 275.462722 
L 322.053566 277.033889 
L 323.189885 279.253594 
L 323.798627 280.830424 
L 324.034008 280.954809 
L 324.228805 280.79863 
L 324.496652 280.242744 
L 324.991763 278.571978 
L 325.438174 277.396596 
L 325.641088 277.322945 
L 325.811536 277.535903 
L 326.087499 278.315335 
L 326.801757 280.431346 
L 327.037137 280.5358 
L 327.378033 280.356847 
L 327.62153 280.366423 
L 327.824444 280.644371 
L 328.116641 281.499111 
L 329.123095 284.762065 
L 329.472107 285.122888 
L 329.780537 285.144437 
L 330.730175 284.992844 
L 331.038605 285.387779 
L 331.525599 286.452634 
L 332.085642 287.522821 
L 332.329139 287.597378 
L 332.54017 287.397362 
L 332.848599 286.7323 
L 333.919986 284.163365 
L 334.131017 284.159089 
L 334.342047 284.426615 
L 334.731642 285.388507 
L 335.129354 286.128481 
L 335.307919 286.117889 
L 335.4946 285.830116 
L 335.803029 284.858228 
L 336.436121 282.884064 
L 336.614686 282.856499 
L 336.777017 283.139912 
L 337.028631 284.12226 
L 337.986386 288.37067 
L 338.132484 288.312911 
L 338.335398 287.885377 
L 339.163288 285.815349 
L 339.341852 285.888292 
L 339.601582 286.305478 
L 340.267141 287.436103 
L 340.470055 287.386237 
L 340.754135 287.011886 
L 341.135613 286.609074 
L 341.297945 286.71096 
L 341.508976 287.183707 
L 341.849871 288.61831 
L 342.556013 291.577434 
L 342.880675 292.056623 
L 343.440718 292.654513 
L 343.943946 293.864303 
L 344.260492 294.308686 
L 344.447173 294.262989 
L 344.682553 293.902368 
L 346.005553 291.384961 
L 346.646762 290.754299 
L 347.734382 289.987158 
L 348.521689 289.190592 
L 348.757069 289.264731 
L 349.024916 289.627965 
L 349.877156 290.966742 
L 350.161235 290.929751 
L 350.729395 290.800301 
L 351.013475 291.02745 
L 353.440328 293.734307 
L 353.935439 293.418178 
L 354.219519 293.417588 
L 354.519832 293.672632 
L 355.18539 294.276413 
L 355.420771 294.182441 
L 355.712967 293.781356 
L 356.370409 292.836573 
L 356.55709 292.915307 
L 356.784354 293.31107 
L 357.165832 294.529696 
L 358.131704 297.710077 
L 358.667397 298.619483 
L 359.722551 299.941302 
L 359.949815 299.850085 
L 360.258244 299.42147 
L 360.802054 298.702631 
L 361.029318 298.727313 
L 361.313398 299.032289 
L 362.555233 300.620889 
L 363.017877 301.390151 
L 364.024331 303.213962 
L 364.348994 303.31637 
L 364.68989 303.182588 
L 365.079485 302.775741 
L 366.175221 301.424995 
L 366.418718 301.613984 
L 367.538804 302.807561 
L 369.162118 302.969033 
L 369.551713 303.368563 
L 370.420186 304.363339 
L 370.663683 304.296757 
L 370.931529 303.955297 
L 371.313008 303.039519 
L 371.864934 301.796751 
L 372.043499 301.800056 
L 372.222063 302.109309 
L 372.506143 303.159704 
L 373.431432 306.914824 
L 373.788561 307.391304 
L 374.186272 307.549936 
L 375.087211 307.583828 
L 398.487273 307.584 
L 398.487273 307.584 
" style="fill:none;stroke:#ff7f0e;stroke-linecap:square;stroke-width:1.5;"/>
   </g>
   <g id="patch_103">
    <path d="M 57.6 307.584 
L 57.6 41.472 
" style="fill:none;stroke:#000000;stroke-linecap:square;stroke-linejoin:miter;stroke-width:0.8;"/>
   </g>
   <g id="patch_104">
    <path d="M 414.72 307.584 
L 414.72 41.472 
" style="fill:none;stroke:#000000;stroke-linecap:square;stroke-linejoin:miter;stroke-width:0.8;"/>
   </g>
   <g id="patch_105">
    <path d="M 57.6 307.584 
L 414.72 307.584 
" style="fill:none;stroke:#000000;stroke-linecap:square;stroke-linejoin:miter;stroke-width:0.8;"/>
   </g>
   <g id="patch_106">
    <path d="M 57.6 41.472 
L 414.72 41.472 
" style="fill:none;stroke:#000000;stroke-linecap:square;stroke-linejoin:miter;stroke-width:0.8;"/>
   </g>
  </g>
 </g>
 <defs>
  <clipPath id="p9ac6408ea6">
   <rect height="266.112" width="357.12" x="57.6" y="41.472"/>
  </clipPath>
 </defs>
</svg>
