<?xml version="1.0" encoding="utf-8" standalone="no"?>
<!DOCTYPE svg PUBLIC "-//W3C//DTD SVG 1.1//EN"
  "http://www.w3.org/Graphics/SVG/1.1/DTD/svg11.dtd">
<!-- Created with matplotlib (https://matplotlib.org/) -->
<svg height="345.6pt" version="1.1" viewBox="0 0 460.8 345.6" width="460.8pt" xmlns="http://www.w3.org/2000/svg" xmlns:xlink="http://www.w3.org/1999/xlink">
 <defs>
  <style type="text/css">
*{stroke-linecap:butt;stroke-linejoin:round;}
  </style>
 </defs>
 <g id="figure_1">
  <g id="patch_1">
   <path d="M 0 345.6 
L 460.8 345.6 
L 460.8 0 
L 0 0 
z
" style="fill:#ffffff;"/>
  </g>
  <g id="axes_1">
   <g id="patch_2">
    <path d="M 57.6 307.584 
L 414.72 307.584 
L 414.72 41.472 
L 57.6 41.472 
z
" style="fill:#ffffff;"/>
   </g>
   <g id="patch_3">
    <path clip-path="url(#pa26799b50a)" d="M 100.14513 307.584 
L 102.866197 307.584 
L 102.866197 289.246639 
L 100.14513 289.246639 
z
" style="fill:#1f77b4;"/>
   </g>
   <g id="patch_4">
    <path clip-path="url(#pa26799b50a)" d="M 102.866197 307.584 
L 105.587264 307.584 
L 105.587264 296.581584 
L 102.866197 296.581584 
z
" style="fill:#1f77b4;"/>
   </g>
   <g id="patch_5">
    <path clip-path="url(#pa26799b50a)" d="M 105.587264 307.584 
L 108.308323 307.584 
L 108.308323 296.581552 
L 105.587264 296.581552 
z
" style="fill:#1f77b4;"/>
   </g>
   <g id="patch_6">
    <path clip-path="url(#pa26799b50a)" d="M 108.308315 307.584 
L 111.029374 307.584 
L 111.029374 300.249035 
L 108.308315 300.249035 
z
" style="fill:#1f77b4;"/>
   </g>
   <g id="patch_7">
    <path clip-path="url(#pa26799b50a)" d="M 111.029382 307.584 
L 113.750448 307.584 
L 113.750448 303.916528 
L 111.029382 303.916528 
z
" style="fill:#1f77b4;"/>
   </g>
   <g id="patch_8">
    <path clip-path="url(#pa26799b50a)" d="M 113.750448 307.584 
L 116.471507 307.584 
L 116.471507 305.750259 
L 113.750448 305.750259 
z
" style="fill:#1f77b4;"/>
   </g>
   <g id="patch_9">
    <path clip-path="url(#pa26799b50a)" d="M 116.471507 307.584 
L 119.192574 307.584 
L 119.192574 294.747847 
L 116.471507 294.747847 
z
" style="fill:#1f77b4;"/>
   </g>
   <g id="patch_10">
    <path clip-path="url(#pa26799b50a)" d="M 119.192574 307.584 
L 121.913641 307.584 
L 121.913641 300.249056 
L 119.192574 300.249056 
z
" style="fill:#1f77b4;"/>
   </g>
   <g id="patch_11">
    <path clip-path="url(#pa26799b50a)" d="M 121.913633 307.584 
L 124.634692 307.584 
L 124.634692 281.911622 
L 121.913633 281.911622 
z
" style="fill:#1f77b4;"/>
   </g>
   <g id="patch_12">
    <path clip-path="url(#pa26799b50a)" d="M 124.6347 307.584 
L 127.355766 307.584 
L 127.355766 285.579167 
L 124.6347 285.579167 
z
" style="fill:#1f77b4;"/>
   </g>
   <g id="patch_13">
    <path clip-path="url(#pa26799b50a)" d="M 127.355766 307.584 
L 130.076825 307.584 
L 130.076825 298.415294 
L 127.355766 298.415294 
z
" style="fill:#1f77b4;"/>
   </g>
   <g id="patch_14">
    <path clip-path="url(#pa26799b50a)" d="M 130.076825 307.584 
L 132.797892 307.584 
L 132.797892 285.579167 
L 130.076825 285.579167 
z
" style="fill:#1f77b4;"/>
   </g>
   <g id="patch_15">
    <path clip-path="url(#pa26799b50a)" d="M 132.797892 307.584 
L 135.518959 307.584 
L 135.518959 287.412903 
L 132.797892 287.412903 
z
" style="fill:#1f77b4;"/>
   </g>
   <g id="patch_16">
    <path clip-path="url(#pa26799b50a)" d="M 135.518951 307.584 
L 138.24001 307.584 
L 138.24001 280.077881 
L 135.518951 280.077881 
z
" style="fill:#1f77b4;"/>
   </g>
   <g id="patch_17">
    <path clip-path="url(#pa26799b50a)" d="M 138.240017 307.584 
L 140.961084 307.584 
L 140.961084 289.246639 
L 138.240017 289.246639 
z
" style="fill:#1f77b4;"/>
   </g>
   <g id="patch_18">
    <path clip-path="url(#pa26799b50a)" d="M 140.961084 307.584 
L 143.682143 307.584 
L 143.682143 280.077881 
L 140.961084 280.077881 
z
" style="fill:#1f77b4;"/>
   </g>
   <g id="patch_19">
    <path clip-path="url(#pa26799b50a)" d="M 143.682143 307.584 
L 146.40321 307.584 
L 146.40321 291.080375 
L 143.682143 291.080375 
z
" style="fill:#1f77b4;"/>
   </g>
   <g id="patch_20">
    <path clip-path="url(#pa26799b50a)" d="M 146.403202 307.584 
L 149.124261 307.584 
L 149.124261 280.077881 
L 146.403202 280.077881 
z
" style="fill:#1f77b4;"/>
   </g>
   <g id="patch_21">
    <path clip-path="url(#pa26799b50a)" d="M 149.124269 307.584 
L 151.845335 307.584 
L 151.845335 281.911695 
L 149.124269 281.911695 
z
" style="fill:#1f77b4;"/>
   </g>
   <g id="patch_22">
    <path clip-path="url(#pa26799b50a)" d="M 151.845335 307.584 
L 154.566402 307.584 
L 154.566402 261.740598 
L 151.845335 261.740598 
z
" style="fill:#1f77b4;"/>
   </g>
   <g id="patch_23">
    <path clip-path="url(#pa26799b50a)" d="M 154.566402 307.584 
L 157.287461 307.584 
L 157.287461 276.410398 
L 154.566402 276.410398 
z
" style="fill:#1f77b4;"/>
   </g>
   <g id="patch_24">
    <path clip-path="url(#pa26799b50a)" d="M 157.287461 307.584 
L 160.008528 307.584 
L 160.008528 241.569501 
L 157.287461 241.569501 
z
" style="fill:#1f77b4;"/>
   </g>
   <g id="patch_25">
    <path clip-path="url(#pa26799b50a)" d="M 160.00852 307.584 
L 162.729579 307.584 
L 162.729579 237.901831 
L 160.00852 237.901831 
z
" style="fill:#1f77b4;"/>
   </g>
   <g id="patch_26">
    <path clip-path="url(#pa26799b50a)" d="M 162.729587 307.584 
L 165.450653 307.584 
L 165.450653 237.902029 
L 162.729587 237.902029 
z
" style="fill:#1f77b4;"/>
   </g>
   <g id="patch_27">
    <path clip-path="url(#pa26799b50a)" d="M 165.450653 307.584 
L 168.17172 307.584 
L 168.17172 259.906862 
L 165.450653 259.906862 
z
" style="fill:#1f77b4;"/>
   </g>
   <g id="patch_28">
    <path clip-path="url(#pa26799b50a)" d="M 168.17172 307.584 
L 170.892779 307.584 
L 170.892779 237.901831 
L 168.17172 237.901831 
z
" style="fill:#1f77b4;"/>
   </g>
   <g id="patch_29">
    <path clip-path="url(#pa26799b50a)" d="M 170.892779 307.584 
L 173.613842 307.584 
L 173.613842 221.398282 
L 170.892779 221.398282 
z
" style="fill:#1f77b4;"/>
   </g>
   <g id="patch_30">
    <path clip-path="url(#pa26799b50a)" d="M 173.613838 307.584 
L 176.334901 307.584 
L 176.334901 245.236885 
L 173.613838 245.236885 
z
" style="fill:#1f77b4;"/>
   </g>
   <g id="patch_31">
    <path clip-path="url(#pa26799b50a)" d="M 176.334904 307.584 
L 179.055971 307.584 
L 179.055971 247.07071 
L 176.334904 247.07071 
z
" style="fill:#1f77b4;"/>
   </g>
   <g id="patch_32">
    <path clip-path="url(#pa26799b50a)" d="M 179.055971 307.584 
L 181.777034 307.584 
L 181.777034 230.566975 
L 179.055971 230.566975 
z
" style="fill:#1f77b4;"/>
   </g>
   <g id="patch_33">
    <path clip-path="url(#pa26799b50a)" d="M 181.77703 307.584 
L 184.498093 307.584 
L 184.498093 256.239317 
L 181.77703 256.239317 
z
" style="fill:#1f77b4;"/>
   </g>
   <g id="patch_34">
    <path clip-path="url(#pa26799b50a)" d="M 184.498097 307.584 
L 187.21916 307.584 
L 187.21916 252.57184 
L 184.498097 252.57184 
z
" style="fill:#1f77b4;"/>
   </g>
   <g id="patch_35">
    <path clip-path="url(#pa26799b50a)" d="M 187.219156 307.584 
L 189.940218 307.584 
L 189.940218 234.234453 
L 187.219156 234.234453 
z
" style="fill:#1f77b4;"/>
   </g>
   <g id="patch_36">
    <path clip-path="url(#pa26799b50a)" d="M 189.940222 307.584 
L 192.661285 307.584 
L 192.661285 261.740533 
L 189.940222 261.740533 
z
" style="fill:#1f77b4;"/>
   </g>
   <g id="patch_37">
    <path clip-path="url(#pa26799b50a)" d="M 192.661285 307.584 
L 195.382352 307.584 
L 195.382352 236.068293 
L 192.661285 236.068293 
z
" style="fill:#1f77b4;"/>
   </g>
   <g id="patch_38">
    <path clip-path="url(#pa26799b50a)" d="M 195.382348 307.584 
L 198.103411 307.584 
L 198.103411 237.90193 
L 195.382348 237.90193 
z
" style="fill:#1f77b4;"/>
   </g>
   <g id="patch_39">
    <path clip-path="url(#pa26799b50a)" d="M 198.103415 307.584 
L 200.824477 307.584 
L 200.824477 245.236885 
L 198.103415 245.236885 
z
" style="fill:#1f77b4;"/>
   </g>
   <g id="patch_40">
    <path clip-path="url(#pa26799b50a)" d="M 200.824474 307.584 
L 203.545536 307.584 
L 203.545536 226.899498 
L 200.824474 226.899498 
z
" style="fill:#1f77b4;"/>
   </g>
   <g id="patch_41">
    <path clip-path="url(#pa26799b50a)" d="M 203.54554 307.584 
L 206.266603 307.584 
L 206.266603 236.068191 
L 203.54554 236.068191 
z
" style="fill:#1f77b4;"/>
   </g>
   <g id="patch_42">
    <path clip-path="url(#pa26799b50a)" d="M 206.266603 307.584 
L 208.987668 307.584 
L 208.987668 247.070667 
L 206.266603 247.070667 
z
" style="fill:#1f77b4;"/>
   </g>
   <g id="patch_43">
    <path clip-path="url(#pa26799b50a)" d="M 208.987668 307.584 
L 211.708731 307.584 
L 211.708731 243.403146 
L 208.987668 243.403146 
z
" style="fill:#1f77b4;"/>
   </g>
   <g id="patch_44">
    <path clip-path="url(#pa26799b50a)" d="M 211.708731 307.584 
L 214.429793 307.584 
L 214.429793 239.735669 
L 211.708731 239.735669 
z
" style="fill:#1f77b4;"/>
   </g>
   <g id="patch_45">
    <path clip-path="url(#pa26799b50a)" d="M 214.429791 307.584 
L 217.150856 307.584 
L 217.150856 226.899555 
L 214.429791 226.899555 
z
" style="fill:#1f77b4;"/>
   </g>
   <g id="patch_46">
    <path clip-path="url(#pa26799b50a)" d="M 217.150858 307.584 
L 219.871921 307.584 
L 219.871921 230.566975 
L 217.150858 230.566975 
z
" style="fill:#1f77b4;"/>
   </g>
   <g id="patch_47">
    <path clip-path="url(#pa26799b50a)" d="M 219.871921 307.584 
L 222.592985 307.584 
L 222.592985 210.395884 
L 219.871921 210.395884 
z
" style="fill:#1f77b4;"/>
   </g>
   <g id="patch_48">
    <path clip-path="url(#pa26799b50a)" d="M 222.592985 307.584 
L 225.314047 307.584 
L 225.314047 215.897066 
L 222.592985 215.897066 
z
" style="fill:#1f77b4;"/>
   </g>
   <g id="patch_49">
    <path clip-path="url(#pa26799b50a)" d="M 225.314048 307.584 
L 228.035112 307.584 
L 228.035112 199.393456 
L 225.314048 199.393456 
z
" style="fill:#1f77b4;"/>
   </g>
   <g id="patch_50">
    <path clip-path="url(#pa26799b50a)" d="M 228.035111 307.584 
L 230.756175 307.584 
L 230.756175 193.892222 
L 228.035111 193.892222 
z
" style="fill:#1f77b4;"/>
   </g>
   <g id="patch_51">
    <path clip-path="url(#pa26799b50a)" d="M 230.756175 307.584 
L 233.477238 307.584 
L 233.477238 199.393447 
L 230.756175 199.393447 
z
" style="fill:#1f77b4;"/>
   </g>
   <g id="patch_52">
    <path clip-path="url(#pa26799b50a)" d="M 233.477238 307.584 
L 236.198302 307.584 
L 236.198302 98.537846 
L 233.477238 98.537846 
z
" style="fill:#1f77b4;"/>
   </g>
   <g id="patch_53">
    <path clip-path="url(#pa26799b50a)" d="M 236.198302 307.584 
L 238.919365 307.584 
L 238.919365 199.393447 
L 236.198302 199.393447 
z
" style="fill:#1f77b4;"/>
   </g>
   <g id="patch_54">
    <path clip-path="url(#pa26799b50a)" d="M 238.919365 307.584 
L 241.640428 307.584 
L 241.640428 179.222327 
L 238.919365 179.222327 
z
" style="fill:#1f77b4;"/>
   </g>
   <g id="patch_55">
    <path clip-path="url(#pa26799b50a)" d="M 241.640429 307.584 
L 244.361492 307.584 
L 244.361492 192.058484 
L 241.640429 192.058484 
z
" style="fill:#1f77b4;"/>
   </g>
   <g id="patch_56">
    <path clip-path="url(#pa26799b50a)" d="M 244.361492 307.584 
L 247.082556 307.584 
L 247.082556 199.393456 
L 244.361492 199.393456 
z
" style="fill:#1f77b4;"/>
   </g>
   <g id="patch_57">
    <path clip-path="url(#pa26799b50a)" d="M 247.082556 307.584 
L 249.803619 307.584 
L 249.803619 217.730805 
L 247.082556 217.730805 
z
" style="fill:#1f77b4;"/>
   </g>
   <g id="patch_58">
    <path clip-path="url(#pa26799b50a)" d="M 249.803619 307.584 
L 252.524682 307.584 
L 252.524682 217.730837 
L 249.803619 217.730837 
z
" style="fill:#1f77b4;"/>
   </g>
   <g id="patch_59">
    <path clip-path="url(#pa26799b50a)" d="M 252.524682 307.584 
L 255.245745 307.584 
L 255.245745 221.398282 
L 252.524682 221.398282 
z
" style="fill:#1f77b4;"/>
   </g>
   <g id="patch_60">
    <path clip-path="url(#pa26799b50a)" d="M 255.245745 307.584 
L 257.96681 307.584 
L 257.96681 245.236929 
L 255.245745 245.236929 
z
" style="fill:#1f77b4;"/>
   </g>
   <g id="patch_61">
    <path clip-path="url(#pa26799b50a)" d="M 257.96681 307.584 
L 260.687873 307.584 
L 260.687873 232.400714 
L 257.96681 232.400714 
z
" style="fill:#1f77b4;"/>
   </g>
   <g id="patch_62">
    <path clip-path="url(#pa26799b50a)" d="M 260.687873 307.584 
L 263.408935 307.584 
L 263.408935 230.566975 
L 260.687873 230.566975 
z
" style="fill:#1f77b4;"/>
   </g>
   <g id="patch_63">
    <path clip-path="url(#pa26799b50a)" d="M 263.408934 307.584 
L 266.129998 307.584 
L 266.129998 247.070667 
L 263.408934 247.070667 
z
" style="fill:#1f77b4;"/>
   </g>
   <g id="patch_64">
    <path clip-path="url(#pa26799b50a)" d="M 266.13 307.584 
L 268.851063 307.584 
L 268.851063 236.068191 
L 266.13 236.068191 
z
" style="fill:#1f77b4;"/>
   </g>
   <g id="patch_65">
    <path clip-path="url(#pa26799b50a)" d="M 268.851063 307.584 
L 271.572126 307.584 
L 271.572126 269.075488 
L 268.851063 269.075488 
z
" style="fill:#1f77b4;"/>
   </g>
   <g id="patch_66">
    <path clip-path="url(#pa26799b50a)" d="M 271.572122 307.584 
L 274.293185 307.584 
L 274.293185 236.068191 
L 271.572122 236.068191 
z
" style="fill:#1f77b4;"/>
   </g>
   <g id="patch_67">
    <path clip-path="url(#pa26799b50a)" d="M 274.293189 307.584 
L 277.014251 307.584 
L 277.014251 219.564543 
L 274.293189 219.564543 
z
" style="fill:#1f77b4;"/>
   </g>
   <g id="patch_68">
    <path clip-path="url(#pa26799b50a)" d="M 277.014251 307.584 
L 279.735318 307.584 
L 279.735318 248.904446 
L 277.014251 248.904446 
z
" style="fill:#1f77b4;"/>
   </g>
   <g id="patch_69">
    <path clip-path="url(#pa26799b50a)" d="M 279.735314 307.584 
L 282.456377 307.584 
L 282.456377 241.569407 
L 279.735314 241.569407 
z
" style="fill:#1f77b4;"/>
   </g>
   <g id="patch_70">
    <path clip-path="url(#pa26799b50a)" d="M 282.456381 307.584 
L 285.177444 307.584 
L 285.177444 250.738101 
L 282.456381 250.738101 
z
" style="fill:#1f77b4;"/>
   </g>
   <g id="patch_71">
    <path clip-path="url(#pa26799b50a)" d="M 285.17744 307.584 
L 287.898503 307.584 
L 287.898503 285.579136 
L 285.17744 285.579136 
z
" style="fill:#1f77b4;"/>
   </g>
   <g id="patch_72">
    <path clip-path="url(#pa26799b50a)" d="M 287.898506 307.584 
L 290.619569 307.584 
L 290.619569 270.909226 
L 287.898506 270.909226 
z
" style="fill:#1f77b4;"/>
   </g>
   <g id="patch_73">
    <path clip-path="url(#pa26799b50a)" d="M 290.619565 307.584 
L 293.340628 307.584 
L 293.340628 276.410442 
L 290.619565 276.410442 
z
" style="fill:#1f77b4;"/>
   </g>
   <g id="patch_74">
    <path clip-path="url(#pa26799b50a)" d="M 293.340632 307.584 
L 296.061699 307.584 
L 296.061699 278.244223 
L 293.340632 278.244223 
z
" style="fill:#1f77b4;"/>
   </g>
   <g id="patch_75">
    <path clip-path="url(#pa26799b50a)" d="M 296.061699 307.584 
L 298.782762 307.584 
L 298.782762 283.745397 
L 296.061699 283.745397 
z
" style="fill:#1f77b4;"/>
   </g>
   <g id="patch_76">
    <path clip-path="url(#pa26799b50a)" d="M 298.782758 307.584 
L 301.503817 307.584 
L 301.503817 280.07792 
L 298.782758 280.07792 
z
" style="fill:#1f77b4;"/>
   </g>
   <g id="patch_77">
    <path clip-path="url(#pa26799b50a)" d="M 301.503817 307.584 
L 304.224876 307.584 
L 304.224876 281.911622 
L 301.503817 281.911622 
z
" style="fill:#1f77b4;"/>
   </g>
   <g id="patch_78">
    <path clip-path="url(#pa26799b50a)" d="M 304.224883 307.584 
L 306.94595 307.584 
L 306.94595 296.581584 
L 304.224883 296.581584 
z
" style="fill:#1f77b4;"/>
   </g>
   <g id="patch_79">
    <path clip-path="url(#pa26799b50a)" d="M 306.94595 307.584 
L 309.667017 307.584 
L 309.667017 294.747847 
L 306.94595 294.747847 
z
" style="fill:#1f77b4;"/>
   </g>
   <g id="patch_80">
    <path clip-path="url(#pa26799b50a)" d="M 309.667017 307.584 
L 312.388076 307.584 
L 312.388076 287.412846 
L 309.667017 287.412846 
z
" style="fill:#1f77b4;"/>
   </g>
   <g id="patch_81">
    <path clip-path="url(#pa26799b50a)" d="M 312.388076 307.584 
L 315.109142 307.584 
L 315.109142 294.747847 
L 312.388076 294.747847 
z
" style="fill:#1f77b4;"/>
   </g>
   <g id="patch_82">
    <path clip-path="url(#pa26799b50a)" d="M 315.109135 307.584 
L 317.830193 307.584 
L 317.830193 287.412846 
L 315.109135 287.412846 
z
" style="fill:#1f77b4;"/>
   </g>
   <g id="patch_83">
    <path clip-path="url(#pa26799b50a)" d="M 317.830201 307.584 
L 320.551268 307.584 
L 320.551268 285.579167 
L 317.830201 285.579167 
z
" style="fill:#1f77b4;"/>
   </g>
   <g id="patch_84">
    <path clip-path="url(#pa26799b50a)" d="M 320.551268 307.584 
L 323.272335 307.584 
L 323.272335 285.579167 
L 320.551268 285.579167 
z
" style="fill:#1f77b4;"/>
   </g>
   <g id="patch_85">
    <path clip-path="url(#pa26799b50a)" d="M 323.272335 307.584 
L 325.993393 307.584 
L 325.993393 285.579105 
L 323.272335 285.579105 
z
" style="fill:#1f77b4;"/>
   </g>
   <g id="patch_86">
    <path clip-path="url(#pa26799b50a)" d="M 325.993393 307.584 
L 328.71446 307.584 
L 328.71446 303.916528 
L 325.993393 303.916528 
z
" style="fill:#1f77b4;"/>
   </g>
   <g id="patch_87">
    <path clip-path="url(#pa26799b50a)" d="M 328.714452 307.584 
L 331.435511 307.584 
L 331.435511 291.080328 
L 328.714452 291.080328 
z
" style="fill:#1f77b4;"/>
   </g>
   <g id="patch_88">
    <path clip-path="url(#pa26799b50a)" d="M 331.435519 307.584 
L 334.156586 307.584 
L 334.156586 292.914111 
L 331.435519 292.914111 
z
" style="fill:#1f77b4;"/>
   </g>
   <g id="patch_89">
    <path clip-path="url(#pa26799b50a)" d="M 334.156586 307.584 
L 336.877645 307.584 
L 336.877645 287.412846 
L 334.156586 287.412846 
z
" style="fill:#1f77b4;"/>
   </g>
   <g id="patch_90">
    <path clip-path="url(#pa26799b50a)" d="M 336.877645 307.584 
L 339.598711 307.584 
L 339.598711 294.747847 
L 336.877645 294.747847 
z
" style="fill:#1f77b4;"/>
   </g>
   <g id="patch_91">
    <path clip-path="url(#pa26799b50a)" d="M 339.598711 307.584 
L 342.319778 307.584 
L 342.319778 283.745431 
L 339.598711 283.745431 
z
" style="fill:#1f77b4;"/>
   </g>
   <g id="patch_92">
    <path clip-path="url(#pa26799b50a)" d="M 342.31977 307.584 
L 345.040829 307.584 
L 345.040829 303.916517 
L 342.31977 303.916517 
z
" style="fill:#1f77b4;"/>
   </g>
   <g id="patch_93">
    <path clip-path="url(#pa26799b50a)" d="M 345.040837 307.584 
L 347.761904 307.584 
L 347.761904 302.082792 
L 345.040837 302.082792 
z
" style="fill:#1f77b4;"/>
   </g>
   <g id="patch_94">
    <path clip-path="url(#pa26799b50a)" d="M 347.761904 307.584 
L 350.482963 307.584 
L 350.482963 302.082776 
L 347.761904 302.082776 
z
" style="fill:#1f77b4;"/>
   </g>
   <g id="patch_95">
    <path clip-path="url(#pa26799b50a)" d="M 350.482963 307.584 
L 353.204029 307.584 
L 353.204029 302.082792 
L 350.482963 302.082792 
z
" style="fill:#1f77b4;"/>
   </g>
   <g id="patch_96">
    <path clip-path="url(#pa26799b50a)" d="M 353.204029 307.584 
L 355.925096 307.584 
L 355.925096 302.082792 
L 353.204029 302.082792 
z
" style="fill:#1f77b4;"/>
   </g>
   <g id="patch_97">
    <path clip-path="url(#pa26799b50a)" d="M 355.925088 307.584 
L 358.646147 307.584 
L 358.646147 302.082776 
L 355.925088 302.082776 
z
" style="fill:#1f77b4;"/>
   </g>
   <g id="patch_98">
    <path clip-path="url(#pa26799b50a)" d="M 358.646155 307.584 
L 361.367222 307.584 
L 361.367222 307.584 
L 358.646155 307.584 
z
" style="fill:#1f77b4;"/>
   </g>
   <g id="patch_99">
    <path clip-path="url(#pa26799b50a)" d="M 361.367222 307.584 
L 364.08828 307.584 
L 364.08828 305.750259 
L 361.367222 305.750259 
z
" style="fill:#1f77b4;"/>
   </g>
   <g id="patch_100">
    <path clip-path="url(#pa26799b50a)" d="M 364.088273 307.584 
L 366.809339 307.584 
L 366.809339 305.750259 
L 364.088273 305.750259 
z
" style="fill:#1f77b4;"/>
   </g>
   <g id="patch_101">
    <path clip-path="url(#pa26799b50a)" d="M 366.809339 307.584 
L 369.530406 307.584 
L 369.530406 305.750264 
L 366.809339 305.750264 
z
" style="fill:#1f77b4;"/>
   </g>
   <g id="patch_102">
    <path clip-path="url(#pa26799b50a)" d="M 369.530406 307.584 
L 372.251473 307.584 
L 372.251473 303.916528 
L 369.530406 303.916528 
z
" style="fill:#1f77b4;"/>
   </g>
   <g id="matplotlib.axis_1">
    <g id="xtick_1">
     <g id="line2d_1">
      <defs>
       <path d="M 0 0 
L 0 3.5 
" id="mc458b9ef6b" style="stroke:#000000;stroke-width:0.8;"/>
      </defs>
      <g>
       <use style="stroke:#000000;stroke-width:0.8;" x="106.304676" xlink:href="#mc458b9ef6b" y="307.584"/>
      </g>
     </g>
     <g id="text_1">
      <!-- −2 -->
      <defs>
       <path d="M 10.59375 35.5 
L 73.1875 35.5 
L 73.1875 27.203125 
L 10.59375 27.203125 
z
" id="DejaVuSans-8722"/>
       <path d="M 19.1875 8.296875 
L 53.609375 8.296875 
L 53.609375 0 
L 7.328125 0 
L 7.328125 8.296875 
Q 12.9375 14.109375 22.625 23.890625 
Q 32.328125 33.6875 34.8125 36.53125 
Q 39.546875 41.84375 41.421875 45.53125 
Q 43.3125 49.21875 43.3125 52.78125 
Q 43.3125 58.59375 39.234375 62.25 
Q 35.15625 65.921875 28.609375 65.921875 
Q 23.96875 65.921875 18.8125 64.3125 
Q 13.671875 62.703125 7.8125 59.421875 
L 7.8125 69.390625 
Q 13.765625 71.78125 18.9375 73 
Q 24.125 74.21875 28.421875 74.21875 
Q 39.75 74.21875 46.484375 68.546875 
Q 53.21875 62.890625 53.21875 53.421875 
Q 53.21875 48.921875 51.53125 44.890625 
Q 49.859375 40.875 45.40625 35.40625 
Q 44.1875 33.984375 37.640625 27.21875 
Q 31.109375 20.453125 19.1875 8.296875 
z
" id="DejaVuSans-50"/>
      </defs>
      <g transform="translate(93.773817 327.501344)scale(0.17 -0.17)">
       <use xlink:href="#DejaVuSans-8722"/>
       <use x="83.789062" xlink:href="#DejaVuSans-50"/>
      </g>
     </g>
    </g>
    <g id="xtick_2">
     <g id="line2d_2">
      <g>
       <use style="stroke:#000000;stroke-width:0.8;" x="171.248574" xlink:href="#mc458b9ef6b" y="307.584"/>
      </g>
     </g>
     <g id="text_2">
      <!-- −1 -->
      <defs>
       <path d="M 12.40625 8.296875 
L 28.515625 8.296875 
L 28.515625 63.921875 
L 10.984375 60.40625 
L 10.984375 69.390625 
L 28.421875 72.90625 
L 38.28125 72.90625 
L 38.28125 8.296875 
L 54.390625 8.296875 
L 54.390625 0 
L 12.40625 0 
z
" id="DejaVuSans-49"/>
      </defs>
      <g transform="translate(158.717715 327.501344)scale(0.17 -0.17)">
       <use xlink:href="#DejaVuSans-8722"/>
       <use x="83.789062" xlink:href="#DejaVuSans-49"/>
      </g>
     </g>
    </g>
    <g id="xtick_3">
     <g id="line2d_3">
      <g>
       <use style="stroke:#000000;stroke-width:0.8;" x="236.192472" xlink:href="#mc458b9ef6b" y="307.584"/>
      </g>
     </g>
     <g id="text_3">
      <!-- 0 -->
      <defs>
       <path d="M 31.78125 66.40625 
Q 24.171875 66.40625 20.328125 58.90625 
Q 16.5 51.421875 16.5 36.375 
Q 16.5 21.390625 20.328125 13.890625 
Q 24.171875 6.390625 31.78125 6.390625 
Q 39.453125 6.390625 43.28125 13.890625 
Q 47.125 21.390625 47.125 36.375 
Q 47.125 51.421875 43.28125 58.90625 
Q 39.453125 66.40625 31.78125 66.40625 
z
M 31.78125 74.21875 
Q 44.046875 74.21875 50.515625 64.515625 
Q 56.984375 54.828125 56.984375 36.375 
Q 56.984375 17.96875 50.515625 8.265625 
Q 44.046875 -1.421875 31.78125 -1.421875 
Q 19.53125 -1.421875 13.0625 8.265625 
Q 6.59375 17.96875 6.59375 36.375 
Q 6.59375 54.828125 13.0625 64.515625 
Q 19.53125 74.21875 31.78125 74.21875 
z
" id="DejaVuSans-48"/>
      </defs>
      <g transform="translate(230.784347 327.501344)scale(0.17 -0.17)">
       <use xlink:href="#DejaVuSans-48"/>
      </g>
     </g>
    </g>
    <g id="xtick_4">
     <g id="line2d_4">
      <g>
       <use style="stroke:#000000;stroke-width:0.8;" x="301.13637" xlink:href="#mc458b9ef6b" y="307.584"/>
      </g>
     </g>
     <g id="text_4">
      <!-- 1 -->
      <g transform="translate(295.728245 327.501344)scale(0.17 -0.17)">
       <use xlink:href="#DejaVuSans-49"/>
      </g>
     </g>
    </g>
    <g id="xtick_5">
     <g id="line2d_5">
      <g>
       <use style="stroke:#000000;stroke-width:0.8;" x="366.080268" xlink:href="#mc458b9ef6b" y="307.584"/>
      </g>
     </g>
     <g id="text_5">
      <!-- 2 -->
      <g transform="translate(360.672143 327.501344)scale(0.17 -0.17)">
       <use xlink:href="#DejaVuSans-50"/>
      </g>
     </g>
    </g>
    <g id="text_6">
     <!-- Position in Radian -->
     <defs>
      <path d="M 19.671875 64.796875 
L 19.671875 37.40625 
L 32.078125 37.40625 
Q 38.96875 37.40625 42.71875 40.96875 
Q 46.484375 44.53125 46.484375 51.125 
Q 46.484375 57.671875 42.71875 61.234375 
Q 38.96875 64.796875 32.078125 64.796875 
z
M 9.8125 72.90625 
L 32.078125 72.90625 
Q 44.34375 72.90625 50.609375 67.359375 
Q 56.890625 61.8125 56.890625 51.125 
Q 56.890625 40.328125 50.609375 34.8125 
Q 44.34375 29.296875 32.078125 29.296875 
L 19.671875 29.296875 
L 19.671875 0 
L 9.8125 0 
z
" id="DejaVuSans-80"/>
      <path d="M 30.609375 48.390625 
Q 23.390625 48.390625 19.1875 42.75 
Q 14.984375 37.109375 14.984375 27.296875 
Q 14.984375 17.484375 19.15625 11.84375 
Q 23.34375 6.203125 30.609375 6.203125 
Q 37.796875 6.203125 41.984375 11.859375 
Q 46.1875 17.53125 46.1875 27.296875 
Q 46.1875 37.015625 41.984375 42.703125 
Q 37.796875 48.390625 30.609375 48.390625 
z
M 30.609375 56 
Q 42.328125 56 49.015625 48.375 
Q 55.71875 40.765625 55.71875 27.296875 
Q 55.71875 13.875 49.015625 6.21875 
Q 42.328125 -1.421875 30.609375 -1.421875 
Q 18.84375 -1.421875 12.171875 6.21875 
Q 5.515625 13.875 5.515625 27.296875 
Q 5.515625 40.765625 12.171875 48.375 
Q 18.84375 56 30.609375 56 
z
" id="DejaVuSans-111"/>
      <path d="M 44.28125 53.078125 
L 44.28125 44.578125 
Q 40.484375 46.53125 36.375 47.5 
Q 32.28125 48.484375 27.875 48.484375 
Q 21.1875 48.484375 17.84375 46.4375 
Q 14.5 44.390625 14.5 40.28125 
Q 14.5 37.15625 16.890625 35.375 
Q 19.28125 33.59375 26.515625 31.984375 
L 29.59375 31.296875 
Q 39.15625 29.25 43.1875 25.515625 
Q 47.21875 21.78125 47.21875 15.09375 
Q 47.21875 7.46875 41.1875 3.015625 
Q 35.15625 -1.421875 24.609375 -1.421875 
Q 20.21875 -1.421875 15.453125 -0.5625 
Q 10.6875 0.296875 5.421875 2 
L 5.421875 11.28125 
Q 10.40625 8.6875 15.234375 7.390625 
Q 20.0625 6.109375 24.8125 6.109375 
Q 31.15625 6.109375 34.5625 8.28125 
Q 37.984375 10.453125 37.984375 14.40625 
Q 37.984375 18.0625 35.515625 20.015625 
Q 33.0625 21.96875 24.703125 23.78125 
L 21.578125 24.515625 
Q 13.234375 26.265625 9.515625 29.90625 
Q 5.8125 33.546875 5.8125 39.890625 
Q 5.8125 47.609375 11.28125 51.796875 
Q 16.75 56 26.8125 56 
Q 31.78125 56 36.171875 55.265625 
Q 40.578125 54.546875 44.28125 53.078125 
z
" id="DejaVuSans-115"/>
      <path d="M 9.421875 54.6875 
L 18.40625 54.6875 
L 18.40625 0 
L 9.421875 0 
z
M 9.421875 75.984375 
L 18.40625 75.984375 
L 18.40625 64.59375 
L 9.421875 64.59375 
z
" id="DejaVuSans-105"/>
      <path d="M 18.3125 70.21875 
L 18.3125 54.6875 
L 36.8125 54.6875 
L 36.8125 47.703125 
L 18.3125 47.703125 
L 18.3125 18.015625 
Q 18.3125 11.328125 20.140625 9.421875 
Q 21.96875 7.515625 27.59375 7.515625 
L 36.8125 7.515625 
L 36.8125 0 
L 27.59375 0 
Q 17.1875 0 13.234375 3.875 
Q 9.28125 7.765625 9.28125 18.015625 
L 9.28125 47.703125 
L 2.6875 47.703125 
L 2.6875 54.6875 
L 9.28125 54.6875 
L 9.28125 70.21875 
z
" id="DejaVuSans-116"/>
      <path d="M 54.890625 33.015625 
L 54.890625 0 
L 45.90625 0 
L 45.90625 32.71875 
Q 45.90625 40.484375 42.875 44.328125 
Q 39.84375 48.1875 33.796875 48.1875 
Q 26.515625 48.1875 22.3125 43.546875 
Q 18.109375 38.921875 18.109375 30.90625 
L 18.109375 0 
L 9.078125 0 
L 9.078125 54.6875 
L 18.109375 54.6875 
L 18.109375 46.1875 
Q 21.34375 51.125 25.703125 53.5625 
Q 30.078125 56 35.796875 56 
Q 45.21875 56 50.046875 50.171875 
Q 54.890625 44.34375 54.890625 33.015625 
z
" id="DejaVuSans-110"/>
      <path id="DejaVuSans-32"/>
      <path d="M 44.390625 34.1875 
Q 47.5625 33.109375 50.5625 29.59375 
Q 53.5625 26.078125 56.59375 19.921875 
L 66.609375 0 
L 56 0 
L 46.6875 18.703125 
Q 43.0625 26.03125 39.671875 28.421875 
Q 36.28125 30.8125 30.421875 30.8125 
L 19.671875 30.8125 
L 19.671875 0 
L 9.8125 0 
L 9.8125 72.90625 
L 32.078125 72.90625 
Q 44.578125 72.90625 50.734375 67.671875 
Q 56.890625 62.453125 56.890625 51.90625 
Q 56.890625 45.015625 53.6875 40.46875 
Q 50.484375 35.9375 44.390625 34.1875 
z
M 19.671875 64.796875 
L 19.671875 38.921875 
L 32.078125 38.921875 
Q 39.203125 38.921875 42.84375 42.21875 
Q 46.484375 45.515625 46.484375 51.90625 
Q 46.484375 58.296875 42.84375 61.546875 
Q 39.203125 64.796875 32.078125 64.796875 
z
" id="DejaVuSans-82"/>
      <path d="M 34.28125 27.484375 
Q 23.390625 27.484375 19.1875 25 
Q 14.984375 22.515625 14.984375 16.5 
Q 14.984375 11.71875 18.140625 8.90625 
Q 21.296875 6.109375 26.703125 6.109375 
Q 34.1875 6.109375 38.703125 11.40625 
Q 43.21875 16.703125 43.21875 25.484375 
L 43.21875 27.484375 
z
M 52.203125 31.203125 
L 52.203125 0 
L 43.21875 0 
L 43.21875 8.296875 
Q 40.140625 3.328125 35.546875 0.953125 
Q 30.953125 -1.421875 24.3125 -1.421875 
Q 15.921875 -1.421875 10.953125 3.296875 
Q 6 8.015625 6 15.921875 
Q 6 25.140625 12.171875 29.828125 
Q 18.359375 34.515625 30.609375 34.515625 
L 43.21875 34.515625 
L 43.21875 35.40625 
Q 43.21875 41.609375 39.140625 45 
Q 35.0625 48.390625 27.6875 48.390625 
Q 23 48.390625 18.546875 47.265625 
Q 14.109375 46.140625 10.015625 43.890625 
L 10.015625 52.203125 
Q 14.9375 54.109375 19.578125 55.046875 
Q 24.21875 56 28.609375 56 
Q 40.484375 56 46.34375 49.84375 
Q 52.203125 43.703125 52.203125 31.203125 
z
" id="DejaVuSans-97"/>
      <path d="M 45.40625 46.390625 
L 45.40625 75.984375 
L 54.390625 75.984375 
L 54.390625 0 
L 45.40625 0 
L 45.40625 8.203125 
Q 42.578125 3.328125 38.25 0.953125 
Q 33.9375 -1.421875 27.875 -1.421875 
Q 17.96875 -1.421875 11.734375 6.484375 
Q 5.515625 14.40625 5.515625 27.296875 
Q 5.515625 40.1875 11.734375 48.09375 
Q 17.96875 56 27.875 56 
Q 33.9375 56 38.25 53.625 
Q 42.578125 51.265625 45.40625 46.390625 
z
M 14.796875 27.296875 
Q 14.796875 17.390625 18.875 11.75 
Q 22.953125 6.109375 30.078125 6.109375 
Q 37.203125 6.109375 41.296875 11.75 
Q 45.40625 17.390625 45.40625 27.296875 
Q 45.40625 37.203125 41.296875 42.84375 
Q 37.203125 48.484375 30.078125 48.484375 
Q 22.953125 48.484375 18.875 42.84375 
Q 14.796875 37.203125 14.796875 27.296875 
z
" id="DejaVuSans-100"/>
     </defs>
     <g transform="translate(102.024844 357.832125)scale(0.3 -0.3)">
      <use xlink:href="#DejaVuSans-80"/>
      <use x="60.255859" xlink:href="#DejaVuSans-111"/>
      <use x="121.4375" xlink:href="#DejaVuSans-115"/>
      <use x="173.537109" xlink:href="#DejaVuSans-105"/>
      <use x="201.320312" xlink:href="#DejaVuSans-116"/>
      <use x="240.529297" xlink:href="#DejaVuSans-105"/>
      <use x="268.3125" xlink:href="#DejaVuSans-111"/>
      <use x="329.494141" xlink:href="#DejaVuSans-110"/>
      <use x="392.873047" xlink:href="#DejaVuSans-32"/>
      <use x="424.660156" xlink:href="#DejaVuSans-105"/>
      <use x="452.443359" xlink:href="#DejaVuSans-110"/>
      <use x="515.822266" xlink:href="#DejaVuSans-32"/>
      <use x="547.609375" xlink:href="#DejaVuSans-82"/>
      <use x="617.060547" xlink:href="#DejaVuSans-97"/>
      <use x="678.339844" xlink:href="#DejaVuSans-100"/>
      <use x="741.816406" xlink:href="#DejaVuSans-105"/>
      <use x="769.599609" xlink:href="#DejaVuSans-97"/>
      <use x="830.878906" xlink:href="#DejaVuSans-110"/>
     </g>
    </g>
   </g>
   <g id="matplotlib.axis_2">
    <g id="ytick_1">
     <g id="line2d_6">
      <defs>
       <path d="M 0 0 
L -3.5 0 
" id="mc02697c7b0" style="stroke:#000000;stroke-width:0.8;"/>
      </defs>
      <g>
       <use style="stroke:#000000;stroke-width:0.8;" x="57.6" xlink:href="#mc02697c7b0" y="307.584"/>
      </g>
     </g>
     <g id="text_7">
      <!-- 0.0 -->
      <defs>
       <path d="M 10.6875 12.40625 
L 21 12.40625 
L 21 0 
L 10.6875 0 
z
" id="DejaVuSans-46"/>
      </defs>
      <g transform="translate(23.564687 314.042672)scale(0.17 -0.17)">
       <use xlink:href="#DejaVuSans-48"/>
       <use x="63.623047" xlink:href="#DejaVuSans-46"/>
       <use x="95.410156" xlink:href="#DejaVuSans-48"/>
      </g>
     </g>
    </g>
    <g id="ytick_2">
     <g id="line2d_7">
      <g>
       <use style="stroke:#000000;stroke-width:0.8;" x="57.6" xlink:href="#mc02697c7b0" y="269.168396"/>
      </g>
     </g>
     <g id="text_8">
      <!-- 0.2 -->
      <g transform="translate(23.564687 275.627068)scale(0.17 -0.17)">
       <use xlink:href="#DejaVuSans-48"/>
       <use x="63.623047" xlink:href="#DejaVuSans-46"/>
       <use x="95.410156" xlink:href="#DejaVuSans-50"/>
      </g>
     </g>
    </g>
    <g id="ytick_3">
     <g id="line2d_8">
      <g>
       <use style="stroke:#000000;stroke-width:0.8;" x="57.6" xlink:href="#mc02697c7b0" y="230.752792"/>
      </g>
     </g>
     <g id="text_9">
      <!-- 0.4 -->
      <defs>
       <path d="M 37.796875 64.3125 
L 12.890625 25.390625 
L 37.796875 25.390625 
z
M 35.203125 72.90625 
L 47.609375 72.90625 
L 47.609375 25.390625 
L 58.015625 25.390625 
L 58.015625 17.1875 
L 47.609375 17.1875 
L 47.609375 0 
L 37.796875 0 
L 37.796875 17.1875 
L 4.890625 17.1875 
L 4.890625 26.703125 
z
" id="DejaVuSans-52"/>
      </defs>
      <g transform="translate(23.564687 237.211464)scale(0.17 -0.17)">
       <use xlink:href="#DejaVuSans-48"/>
       <use x="63.623047" xlink:href="#DejaVuSans-46"/>
       <use x="95.410156" xlink:href="#DejaVuSans-52"/>
      </g>
     </g>
    </g>
    <g id="ytick_4">
     <g id="line2d_9">
      <g>
       <use style="stroke:#000000;stroke-width:0.8;" x="57.6" xlink:href="#mc02697c7b0" y="192.337188"/>
      </g>
     </g>
     <g id="text_10">
      <!-- 0.6 -->
      <defs>
       <path d="M 33.015625 40.375 
Q 26.375 40.375 22.484375 35.828125 
Q 18.609375 31.296875 18.609375 23.390625 
Q 18.609375 15.53125 22.484375 10.953125 
Q 26.375 6.390625 33.015625 6.390625 
Q 39.65625 6.390625 43.53125 10.953125 
Q 47.40625 15.53125 47.40625 23.390625 
Q 47.40625 31.296875 43.53125 35.828125 
Q 39.65625 40.375 33.015625 40.375 
z
M 52.59375 71.296875 
L 52.59375 62.3125 
Q 48.875 64.0625 45.09375 64.984375 
Q 41.3125 65.921875 37.59375 65.921875 
Q 27.828125 65.921875 22.671875 59.328125 
Q 17.53125 52.734375 16.796875 39.40625 
Q 19.671875 43.65625 24.015625 45.921875 
Q 28.375 48.1875 33.59375 48.1875 
Q 44.578125 48.1875 50.953125 41.515625 
Q 57.328125 34.859375 57.328125 23.390625 
Q 57.328125 12.15625 50.6875 5.359375 
Q 44.046875 -1.421875 33.015625 -1.421875 
Q 20.359375 -1.421875 13.671875 8.265625 
Q 6.984375 17.96875 6.984375 36.375 
Q 6.984375 53.65625 15.1875 63.9375 
Q 23.390625 74.21875 37.203125 74.21875 
Q 40.921875 74.21875 44.703125 73.484375 
Q 48.484375 72.75 52.59375 71.296875 
z
" id="DejaVuSans-54"/>
      </defs>
      <g transform="translate(23.564687 198.79586)scale(0.17 -0.17)">
       <use xlink:href="#DejaVuSans-48"/>
       <use x="63.623047" xlink:href="#DejaVuSans-46"/>
       <use x="95.410156" xlink:href="#DejaVuSans-54"/>
      </g>
     </g>
    </g>
    <g id="ytick_5">
     <g id="line2d_10">
      <g>
       <use style="stroke:#000000;stroke-width:0.8;" x="57.6" xlink:href="#mc02697c7b0" y="153.921584"/>
      </g>
     </g>
     <g id="text_11">
      <!-- 0.8 -->
      <defs>
       <path d="M 31.78125 34.625 
Q 24.75 34.625 20.71875 30.859375 
Q 16.703125 27.09375 16.703125 20.515625 
Q 16.703125 13.921875 20.71875 10.15625 
Q 24.75 6.390625 31.78125 6.390625 
Q 38.8125 6.390625 42.859375 10.171875 
Q 46.921875 13.96875 46.921875 20.515625 
Q 46.921875 27.09375 42.890625 30.859375 
Q 38.875 34.625 31.78125 34.625 
z
M 21.921875 38.8125 
Q 15.578125 40.375 12.03125 44.71875 
Q 8.5 49.078125 8.5 55.328125 
Q 8.5 64.0625 14.71875 69.140625 
Q 20.953125 74.21875 31.78125 74.21875 
Q 42.671875 74.21875 48.875 69.140625 
Q 55.078125 64.0625 55.078125 55.328125 
Q 55.078125 49.078125 51.53125 44.71875 
Q 48 40.375 41.703125 38.8125 
Q 48.828125 37.15625 52.796875 32.3125 
Q 56.78125 27.484375 56.78125 20.515625 
Q 56.78125 9.90625 50.3125 4.234375 
Q 43.84375 -1.421875 31.78125 -1.421875 
Q 19.734375 -1.421875 13.25 4.234375 
Q 6.78125 9.90625 6.78125 20.515625 
Q 6.78125 27.484375 10.78125 32.3125 
Q 14.796875 37.15625 21.921875 38.8125 
z
M 18.3125 54.390625 
Q 18.3125 48.734375 21.84375 45.5625 
Q 25.390625 42.390625 31.78125 42.390625 
Q 38.140625 42.390625 41.71875 45.5625 
Q 45.3125 48.734375 45.3125 54.390625 
Q 45.3125 60.0625 41.71875 63.234375 
Q 38.140625 66.40625 31.78125 66.40625 
Q 25.390625 66.40625 21.84375 63.234375 
Q 18.3125 60.0625 18.3125 54.390625 
z
" id="DejaVuSans-56"/>
      </defs>
      <g transform="translate(23.564687 160.380256)scale(0.17 -0.17)">
       <use xlink:href="#DejaVuSans-48"/>
       <use x="63.623047" xlink:href="#DejaVuSans-46"/>
       <use x="95.410156" xlink:href="#DejaVuSans-56"/>
      </g>
     </g>
    </g>
    <g id="ytick_6">
     <g id="line2d_11">
      <g>
       <use style="stroke:#000000;stroke-width:0.8;" x="57.6" xlink:href="#mc02697c7b0" y="115.50598"/>
      </g>
     </g>
     <g id="text_12">
      <!-- 1.0 -->
      <g transform="translate(23.564687 121.964652)scale(0.17 -0.17)">
       <use xlink:href="#DejaVuSans-49"/>
       <use x="63.623047" xlink:href="#DejaVuSans-46"/>
       <use x="95.410156" xlink:href="#DejaVuSans-48"/>
      </g>
     </g>
    </g>
    <g id="ytick_7">
     <g id="line2d_12">
      <g>
       <use style="stroke:#000000;stroke-width:0.8;" x="57.6" xlink:href="#mc02697c7b0" y="77.090376"/>
      </g>
     </g>
     <g id="text_13">
      <!-- 1.2 -->
      <g transform="translate(23.564687 83.549048)scale(0.17 -0.17)">
       <use xlink:href="#DejaVuSans-49"/>
       <use x="63.623047" xlink:href="#DejaVuSans-46"/>
       <use x="95.410156" xlink:href="#DejaVuSans-50"/>
      </g>
     </g>
    </g>
    <g id="text_14">
     <!-- Density -->
     <defs>
      <path d="M 19.671875 64.796875 
L 19.671875 8.109375 
L 31.59375 8.109375 
Q 46.6875 8.109375 53.6875 14.9375 
Q 60.6875 21.78125 60.6875 36.53125 
Q 60.6875 51.171875 53.6875 57.984375 
Q 46.6875 64.796875 31.59375 64.796875 
z
M 9.8125 72.90625 
L 30.078125 72.90625 
Q 51.265625 72.90625 61.171875 64.09375 
Q 71.09375 55.28125 71.09375 36.53125 
Q 71.09375 17.671875 61.125 8.828125 
Q 51.171875 0 30.078125 0 
L 9.8125 0 
z
" id="DejaVuSans-68"/>
      <path d="M 56.203125 29.59375 
L 56.203125 25.203125 
L 14.890625 25.203125 
Q 15.484375 15.921875 20.484375 11.0625 
Q 25.484375 6.203125 34.421875 6.203125 
Q 39.59375 6.203125 44.453125 7.46875 
Q 49.3125 8.734375 54.109375 11.28125 
L 54.109375 2.78125 
Q 49.265625 0.734375 44.1875 -0.34375 
Q 39.109375 -1.421875 33.890625 -1.421875 
Q 20.796875 -1.421875 13.15625 6.1875 
Q 5.515625 13.8125 5.515625 26.8125 
Q 5.515625 40.234375 12.765625 48.109375 
Q 20.015625 56 32.328125 56 
Q 43.359375 56 49.78125 48.890625 
Q 56.203125 41.796875 56.203125 29.59375 
z
M 47.21875 32.234375 
Q 47.125 39.59375 43.09375 43.984375 
Q 39.0625 48.390625 32.421875 48.390625 
Q 24.90625 48.390625 20.390625 44.140625 
Q 15.875 39.890625 15.1875 32.171875 
z
" id="DejaVuSans-101"/>
      <path d="M 32.171875 -5.078125 
Q 28.375 -14.84375 24.75 -17.8125 
Q 21.140625 -20.796875 15.09375 -20.796875 
L 7.90625 -20.796875 
L 7.90625 -13.28125 
L 13.1875 -13.28125 
Q 16.890625 -13.28125 18.9375 -11.515625 
Q 21 -9.765625 23.484375 -3.21875 
L 25.09375 0.875 
L 2.984375 54.6875 
L 12.5 54.6875 
L 29.59375 11.921875 
L 46.6875 54.6875 
L 56.203125 54.6875 
z
" id="DejaVuSans-121"/>
     </defs>
     <g transform="translate(13.325625 231.553781)rotate(-90)scale(0.3 -0.3)">
      <use xlink:href="#DejaVuSans-68"/>
      <use x="77.001953" xlink:href="#DejaVuSans-101"/>
      <use x="138.525391" xlink:href="#DejaVuSans-110"/>
      <use x="201.904297" xlink:href="#DejaVuSans-115"/>
      <use x="254.003906" xlink:href="#DejaVuSans-105"/>
      <use x="281.787109" xlink:href="#DejaVuSans-116"/>
      <use x="320.996094" xlink:href="#DejaVuSans-121"/>
     </g>
    </g>
   </g>
   <g id="line2d_13">
    <path clip-path="url(#pa26799b50a)" d="M 73.832727 307.584 
L 98.121745 307.491574 
L 98.381521 307.283854 
L 98.641296 306.75155 
L 98.901072 305.610275 
L 99.225791 302.915348 
L 100.329838 291.606869 
L 100.459725 291.588442 
L 100.654557 292.077837 
L 101.239052 294.032859 
L 101.433884 294.091896 
L 101.628716 293.811519 
L 102.018379 292.674071 
L 102.53793 291.320729 
L 102.732762 291.218019 
L 102.86265 291.352133 
L 103.057481 291.919464 
L 103.317257 293.412296 
L 103.901752 298.728997 
L 104.291415 301.396106 
L 104.486247 301.800758 
L 104.616135 301.672664 
L 104.810967 300.945497 
L 105.785125 296.118999 
L 105.915013 296.199413 
L 106.174788 296.787453 
L 106.629396 297.75532 
L 106.824227 297.731952 
L 107.084003 297.306323 
L 107.603554 296.358963 
L 107.798386 296.374854 
L 107.993218 296.69131 
L 108.317937 297.811231 
L 108.967376 300.316606 
L 109.162208 300.525607 
L 109.357039 300.402218 
L 110.20131 299.256148 
L 111.435244 299.625439 
L 111.69502 300.356989 
L 112.084683 302.467131 
L 112.734122 306.0456 
L 113.058842 306.77576 
L 113.253673 306.833812 
L 113.448505 306.64848 
L 113.773224 305.940192 
L 114.35772 304.597402 
L 114.552551 304.520664 
L 114.747383 304.704707 
L 115.137046 305.561512 
L 115.461766 306.137431 
L 115.656598 306.129426 
L 115.851429 305.712971 
L 116.111205 304.382893 
L 116.500868 300.674473 
L 117.475027 290.284295 
L 117.669858 290.015372 
L 117.799746 290.379946 
L 118.059522 292.315167 
L 119.098624 302.250421 
L 119.228512 302.337701 
L 119.3584 302.158443 
L 119.748063 300.869105 
L 120.072783 300.087587 
L 120.267614 300.003221 
L 120.52739 300.235832 
L 121.501548 301.457865 
L 121.761324 301.490201 
L 121.956156 301.225866 
L 122.215931 300.239458 
L 122.540651 297.694722 
L 122.930314 292.598244 
L 123.514809 281.296301 
L 124.03436 272.084138 
L 124.294136 270.624679 
L 124.35908 270.697631 
L 124.488968 271.333628 
L 124.748743 274.117167 
L 125.463126 282.532737 
L 125.722902 283.474726 
L 125.852789 283.534152 
L 126.112565 283.258256 
L 126.307397 283.14172 
L 126.437285 283.314749 
L 126.632116 284.154626 
L 126.891892 286.466857 
L 127.801106 296.184929 
L 128.060882 296.851144 
L 128.19077 296.854746 
L 128.385601 296.600328 
L 128.840209 295.459938 
L 129.35976 293.622612 
L 129.749423 291.172098 
L 130.593694 284.883649 
L 130.85347 284.374277 
L 131.048301 284.399514 
L 131.373021 284.812848 
L 132.02246 285.711256 
L 132.152348 285.573966 
L 132.347179 284.949158 
L 133.061562 281.353796 
L 133.126506 281.403487 
L 133.256394 281.888324 
L 133.516169 284.350866 
L 134.295496 293.287407 
L 134.36044 293.366294 
L 134.425384 293.290237 
L 134.555272 292.682726 
L 134.815047 289.867442 
L 135.789206 276.64567 
L 135.85415 276.59154 
L 135.984038 276.97554 
L 136.178869 278.650431 
L 137.153028 289.514003 
L 137.347859 289.684075 
L 137.542691 289.305475 
L 138.127186 287.854798 
L 138.257074 287.85999 
L 138.451906 288.143289 
L 139.166289 289.616976 
L 139.36112 289.556674 
L 140.010559 289.101997 
L 140.465166 289.175236 
L 140.659998 288.737102 
L 140.85483 287.660567 
L 141.179549 284.206861 
L 141.893932 275.366984 
L 142.088764 274.776704 
L 142.218652 274.971783 
L 142.413483 275.968935 
L 143.387642 282.32349 
L 143.51753 282.389251 
L 143.712361 282.128632 
L 144.102025 281.445133 
L 144.231913 281.601074 
L 144.426744 282.553132 
L 144.68652 285.347857 
L 145.725622 299.518094 
L 145.920454 299.809936 
L 146.050342 299.529957 
L 146.310117 298.078947 
L 146.699781 294.124731 
L 147.284276 284.969585 
L 147.803827 277.747127 
L 148.128546 275.525263 
L 148.453266 274.584601 
L 149.037761 273.32607 
L 149.492368 272.204548 
L 149.622256 272.26084 
L 149.752144 272.661892 
L 149.946976 274.03635 
L 150.336639 279.186725 
L 150.791246 285.004726 
L 150.986078 285.718921 
L 151.115966 285.319145 
L 151.310797 283.357834 
L 151.635517 277.044257 
L 152.3499 262.335778 
L 152.544731 261.343984 
L 152.609675 261.393178 
L 152.739563 261.97908 
L 153.129227 265.753959 
L 153.453946 267.870293 
L 153.583834 267.92658 
L 153.713722 267.546418 
L 154.363161 264.451477 
L 154.428105 264.540019 
L 154.557992 265.107711 
L 154.817768 267.72747 
L 155.85687 281.000949 
L 156.051702 281.437889 
L 156.18159 281.28373 
L 156.376421 280.434445 
L 156.701141 277.532455 
L 157.090804 271.809155 
L 157.545412 261.76189 
L 158.649458 234.259288 
L 158.909233 232.310166 
L 159.104065 231.983096 
L 159.298897 232.133571 
L 159.493729 232.247427 
L 159.623616 232.057914 
L 159.818448 231.093789 
L 160.078224 228.382734 
L 160.597775 222.227082 
L 160.727663 222.029416 
L 160.85755 222.814716 
L 161.052382 225.909487 
L 161.506989 238.806742 
L 161.961597 249.27278 
L 162.221372 251.448078 
L 162.35126 251.66602 
L 162.481148 251.484232 
L 162.740923 250.356119 
L 163.065643 247.864353 
L 163.455306 242.677307 
L 164.169689 232.191967 
L 164.299577 231.925066 
L 164.429465 232.423511 
L 164.68924 235.324098 
L 165.468567 246.033871 
L 165.923174 248.606481 
L 166.247894 251.016753 
L 166.637557 256.236809 
L 167.222052 264.358735 
L 167.416884 265.037785 
L 167.546772 264.557529 
L 167.741604 262.367932 
L 168.066323 255.376069 
L 169.040482 232.104085 
L 169.300257 230.258559 
L 169.365201 230.217347 
L 169.495089 230.646301 
L 169.689921 232.502742 
L 170.079584 239.20615 
L 170.469247 245.135975 
L 170.664079 245.846791 
L 170.793967 245.193467 
L 170.988798 242.606855 
L 171.443406 231.956588 
L 172.157789 216.227371 
L 172.417564 213.53752 
L 172.547452 213.250129 
L 172.67734 213.791424 
L 172.872172 216.192281 
L 173.196891 223.658261 
L 174.106106 246.014275 
L 174.430825 248.79129 
L 174.560713 248.914799 
L 174.690601 248.546711 
L 174.950376 246.763014 
L 175.599815 242.060343 
L 175.924535 241.218421 
L 176.573974 240.225416 
L 176.703861 240.322539 
L 176.898693 240.998548 
L 177.158469 243.037352 
L 178.002739 250.884425 
L 178.132627 250.919391 
L 178.262515 250.541736 
L 178.522291 248.893563 
L 179.236674 243.981735 
L 179.691281 241.253874 
L 180.080944 237.139284 
L 180.860271 228.248474 
L 180.990159 228.102456 
L 181.120047 228.647849 
L 181.314878 230.768409 
L 181.704542 238.27839 
L 182.224093 247.530038 
L 182.548812 249.948799 
L 182.808588 250.399221 
L 183.068363 250.287183 
L 183.782746 249.668701 
L 183.977578 248.911449 
L 184.302298 246.428604 
L 184.756905 243.143838 
L 184.821849 243.109669 
L 184.951737 243.586715 
L 185.146568 245.776553 
L 185.471288 252.723513 
L 186.055783 265.431281 
L 186.250614 266.76996 
L 186.315558 266.76578 
L 186.445446 266.097378 
L 186.705222 262.496462 
L 187.874212 241.993387 
L 188.913314 233.098245 
L 189.17309 232.196177 
L 189.367922 232.10011 
L 189.497809 232.325584 
L 189.692641 233.183161 
L 189.952417 235.611413 
L 190.277136 241.291346 
L 191.381182 264.909158 
L 191.446126 265.043987 
L 191.51107 264.959576 
L 191.640958 264.156829 
L 191.900734 260.327775 
L 192.355341 249.075721 
L 193.00478 233.590874 
L 193.264555 230.81872 
L 193.394443 230.404415 
L 193.459387 230.431124 
L 193.589275 230.918821 
L 193.849051 233.368477 
L 194.758265 244.424358 
L 194.823209 244.330577 
L 194.953097 243.438466 
L 195.212872 238.865182 
L 195.927255 222.46058 
L 195.992199 222.212566 
L 196.057143 222.319034 
L 196.187031 223.595495 
L 196.446806 229.83154 
L 197.226133 252.304873 
L 197.356021 253.133754 
L 197.420965 253.098143 
L 197.550853 252.179487 
L 197.810628 247.662902 
L 198.395123 236.412045 
L 198.525011 235.916979 
L 198.654899 236.510123 
L 198.849731 239.291203 
L 199.369282 252.208612 
L 199.758945 258.85022 
L 199.953777 259.519823 
L 200.083665 258.936712 
L 200.34344 255.655427 
L 200.927935 243.187736 
L 201.447487 234.367087 
L 201.967038 229.334567 
L 202.746365 223.82301 
L 203.071084 222.562692 
L 203.200972 222.415012 
L 203.33086 222.594724 
L 203.525691 223.698216 
L 203.785467 227.084177 
L 204.759625 243.878518 
L 204.824569 243.832342 
L 204.954457 243.11053 
L 205.214233 239.787009 
L 205.66884 233.642976 
L 205.798728 233.115516 
L 205.863672 233.167056 
L 205.993559 233.931566 
L 206.253335 237.901524 
L 207.097606 254.483052 
L 207.227493 254.880611 
L 207.357381 254.476952 
L 207.552213 252.592474 
L 208.00682 244.939184 
L 208.526371 237.175255 
L 208.786147 235.543051 
L 208.916035 235.358081 
L 209.045923 235.498499 
L 210.085025 238.102607 
L 210.344801 240.443478 
L 210.799408 248.013354 
L 211.189071 252.913789 
L 211.318959 253.17597 
L 211.448847 252.599044 
L 211.643679 250.274188 
L 212.617837 235.22487 
L 212.682781 235.21254 
L 212.812669 235.629074 
L 213.072444 237.656302 
L 213.527052 241.266404 
L 213.721883 241.733075 
L 213.851771 241.597741 
L 214.046603 240.842838 
L 215.020761 234.839786 
L 215.410425 231.181682 
L 216.059864 224.247044 
L 216.189751 223.891327 
L 216.254695 223.922648 
L 216.384583 224.400474 
L 216.644359 226.758459 
L 217.358742 234.524279 
L 217.553573 234.870094 
L 217.683461 234.477704 
L 217.943237 232.328551 
L 218.397844 225.729255 
L 218.852451 219.682896 
L 219.047283 218.802624 
L 219.112227 218.851762 
L 219.242115 219.495882 
L 219.50189 222.768014 
L 220.346161 235.646431 
L 220.476049 235.835747 
L 220.605936 235.324139 
L 220.800768 233.257379 
L 221.125488 226.594254 
L 221.709983 208.040672 
L 222.16459 197.032067 
L 222.359422 195.935362 
L 222.489309 196.589149 
L 222.749085 200.517625 
L 223.463468 213.488806 
L 223.723244 214.998041 
L 223.853131 215.109378 
L 223.983019 214.890348 
L 224.242795 213.694424 
L 224.697402 210.100001 
L 225.152009 207.047187 
L 225.411785 206.433728 
L 225.67156 205.992359 
L 225.866392 205.083918 
L 226.126168 202.586248 
L 226.905495 193.825956 
L 227.100326 193.535829 
L 227.230214 193.879838 
L 227.425046 195.136751 
L 227.749765 199.061678 
L 228.723924 214.034612 
L 228.788868 213.985822 
L 228.918755 213.068311 
L 229.113587 209.586588 
L 229.50325 196.663702 
L 230.087746 177.477842 
L 230.347521 174.475611 
L 230.412465 174.365974 
L 230.542353 174.818915 
L 230.802128 177.720611 
L 231.451567 186.224623 
L 231.711343 187.190171 
L 232.101006 187.503025 
L 232.295838 188.714193 
L 232.555614 192.513152 
L 233.205053 203.259717 
L 233.269997 203.195149 
L 233.399884 202.065448 
L 233.65966 196.326152 
L 234.374043 177.681247 
L 234.763706 170.006827 
L 235.023482 158.426448 
L 235.348201 130.374091 
L 236.127528 54.813027 
L 236.192472 54.144 
L 236.257416 54.883258 
L 236.387304 60.509941 
L 236.647079 85.675084 
L 237.49135 182.888222 
L 237.816069 195.248837 
L 238.010901 196.487786 
L 238.140789 195.594576 
L 238.465508 190.435705 
L 238.855172 185.118368 
L 239.050003 184.537916 
L 239.179891 184.987222 
L 239.439667 187.241587 
L 239.82933 190.533589 
L 239.959218 190.732799 
L 240.089106 190.272091 
L 240.283938 188.343565 
L 240.673601 181.423081 
L 241.128208 174.209108 
L 241.32304 173.513883 
L 241.452928 174.213062 
L 241.647759 177.032483 
L 242.102367 188.808747 
L 242.49203 196.655111 
L 242.686862 197.575973 
L 242.81675 197.051854 
L 243.076525 194.235611 
L 243.466189 190.219824 
L 243.596076 189.958964 
L 243.725964 190.392512 
L 243.98574 192.890814 
L 244.440347 197.401818 
L 244.570235 197.552535 
L 244.700123 196.990615 
L 244.959898 194.036706 
L 245.544393 186.609271 
L 245.609337 186.479959 
L 245.674281 186.586532 
L 245.804169 187.558667 
L 246.063944 192.56796 
L 246.583496 210.225799 
L 247.038103 222.544966 
L 247.297878 225.394806 
L 247.49271 225.879273 
L 247.622598 225.694143 
L 247.882374 224.666546 
L 248.272037 222.09471 
L 248.6617 217.752334 
L 249.505971 207.214863 
L 249.765747 206.381049 
L 249.895634 206.487783 
L 250.090466 207.19673 
L 250.350242 209.049638 
L 250.674961 212.906467 
L 251.584176 225.820214 
L 251.64912 225.910908 
L 251.714064 225.813278 
L 251.908895 224.485687 
L 252.688222 216.272854 
L 252.753166 216.324154 
L 252.883054 216.965559 
L 253.142829 220.143529 
L 253.922156 231.683254 
L 254.052044 232.042472 
L 254.116988 232.008735 
L 254.311819 231.268356 
L 254.701483 229.37253 
L 254.831371 229.403544 
L 254.961258 229.975699 
L 255.221034 232.633728 
L 256.000361 241.996271 
L 256.195192 242.509581 
L 256.32508 242.405718 
L 256.519912 241.763689 
L 257.104407 238.559789 
L 257.753846 234.266189 
L 258.338341 228.294619 
L 258.792948 224.513862 
L 258.98778 224.105605 
L 259.117668 224.366653 
L 259.3125 225.487792 
L 259.961939 229.862858 
L 260.091826 229.503041 
L 260.286658 227.716663 
L 261.130929 216.88486 
L 261.260817 217.653622 
L 261.455648 220.741433 
L 261.845312 232.101889 
L 262.559694 253.1604 
L 262.949358 258.876391 
L 263.274077 260.977808 
L 263.403965 261.160206 
L 263.533853 260.895218 
L 263.728685 259.526507 
L 263.98846 255.740079 
L 265.092507 235.825771 
L 265.15745 235.786848 
L 265.287338 236.155475 
L 265.547114 238.063323 
L 265.936777 240.862605 
L 266.066665 241.137288 
L 266.131609 241.103094 
L 266.261497 240.684449 
L 266.521272 238.590876 
L 267.365543 230.05542 
L 267.430487 230.036742 
L 267.560375 230.521345 
L 267.755206 232.635023 
L 268.079926 239.556876 
L 269.054084 263.668073 
L 269.31386 265.506389 
L 269.378804 265.572284 
L 269.443748 265.497501 
L 269.638579 264.57429 
L 270.352962 260.073706 
L 270.48285 260.259002 
L 270.742626 261.534281 
L 271.067345 262.810048 
L 271.197233 262.483962 
L 271.392065 260.587685 
L 271.716784 253.711564 
L 272.496111 235.219448 
L 272.690943 233.883676 
L 272.755886 233.784545 
L 272.82083 233.832652 
L 273.015662 234.635914 
L 273.470269 236.920469 
L 273.535213 236.925761 
L 273.665101 236.533717 
L 273.859933 234.930522 
L 274.704203 225.822596 
L 274.769147 225.827292 
L 274.899035 226.195554 
L 275.48353 228.887614 
L 275.613418 228.673772 
L 275.873194 227.283815 
L 276.197913 225.854295 
L 276.262857 225.897386 
L 276.392745 226.462606 
L 276.65252 229.466882 
L 277.431847 240.495059 
L 277.691623 241.317249 
L 278.341062 241.99894 
L 278.665781 243.309339 
L 279.055445 246.030815 
L 280.159491 255.232562 
L 280.289379 255.035485 
L 280.48421 253.789445 
L 280.80893 249.33213 
L 281.718144 235.002504 
L 281.912976 234.521821 
L 282.042864 234.883038 
L 282.302639 236.898417 
L 282.952078 242.764814 
L 283.14691 243.048484 
L 283.341742 242.698 
L 283.601517 242.273647 
L 283.731405 242.565433 
L 283.926237 244.128325 
L 284.186012 248.62744 
L 284.770508 264.788064 
L 285.355003 278.194818 
L 285.80961 283.868254 
L 286.134329 285.686034 
L 286.329161 285.947811 
L 286.459049 285.803483 
L 286.653881 285.173206 
L 287.043544 282.917581 
L 287.952759 276.124884 
L 288.861973 268.642204 
L 288.991861 268.565187 
L 289.121749 268.875025 
L 289.381524 270.45262 
L 290.680402 280.362759 
L 290.875234 280.578316 
L 291.005122 280.371741 
L 291.199953 279.513506 
L 291.524673 276.796967 
L 292.239056 270.165682 
L 292.433888 269.681026 
L 292.563775 269.808402 
L 292.758607 270.57546 
L 293.14827 273.379794 
L 294.317261 282.478552 
L 294.447148 282.547497 
L 294.577036 282.263567 
L 294.836812 280.894374 
L 295.226475 278.850491 
L 295.356363 278.774647 
L 295.486251 279.17205 
L 295.681082 280.672855 
L 296.655241 290.476108 
L 296.785129 290.106947 
L 296.97996 288.583205 
L 297.369624 283.209564 
L 298.278838 270.204861 
L 298.603558 267.970142 
L 298.798389 267.726177 
L 298.928277 268.083851 
L 299.188053 270.011686 
L 299.64266 275.992576 
L 300.357043 284.754728 
L 300.876594 288.56454 
L 301.266258 290.260531 
L 301.526033 290.651818 
L 301.655921 290.586785 
L 301.850753 290.151337 
L 302.110528 288.956048 
L 302.565136 285.48143 
L 303.214575 280.445192 
L 303.409406 280.01486 
L 303.539294 280.225924 
L 303.734126 281.370521 
L 304.058845 285.283255 
L 304.903116 297.022996 
L 305.162891 298.148784 
L 305.292779 298.148372 
L 305.487611 297.564237 
L 305.877274 295.121617 
L 306.396826 291.97624 
L 306.656601 291.439248 
L 306.786489 291.541021 
L 306.981321 292.158216 
L 307.370984 294.590379 
L 307.825591 297.23057 
L 308.020423 297.565142 
L 308.150311 297.431482 
L 308.345142 296.71994 
L 308.734806 293.987297 
L 309.838852 283.791164 
L 310.293459 280.234023 
L 310.423347 280.004972 
L 310.553235 280.275242 
L 310.748067 281.617004 
L 311.13773 286.650118 
L 311.657281 292.991528 
L 311.917057 294.343688 
L 312.111889 294.581359 
L 312.30672 294.436235 
L 312.63144 294.136139 
L 312.826271 294.227424 
L 313.150991 294.82818 
L 313.540654 295.484565 
L 313.735486 295.48381 
L 313.930318 295.201591 
L 314.255037 294.211994 
L 314.774588 292.526997 
L 314.96942 292.443988 
L 315.164252 292.870831 
L 315.488971 294.529849 
L 315.943579 296.729017 
L 316.073466 296.837705 
L 316.203354 296.599736 
L 316.398186 295.548924 
L 316.722905 292.030297 
L 317.826952 277.714465 
L 317.891895 277.691985 
L 318.021783 278.031713 
L 318.281559 279.87227 
L 318.930998 284.874407 
L 319.190773 285.354223 
L 319.385605 285.223933 
L 319.905156 284.649647 
L 320.099988 284.881405 
L 320.359764 285.737969 
L 320.879315 288.613645 
L 321.268978 290.342018 
L 321.46381 290.485183 
L 321.593698 290.192025 
L 321.788529 289.132608 
L 322.178193 285.306619 
L 322.697744 280.466696 
L 322.892576 279.89514 
L 323.022463 280.034139 
L 323.217295 280.982987 
L 323.606958 284.666682 
L 324.191454 290.094404 
L 324.516173 291.421984 
L 324.646061 291.514555 
L 324.775949 291.355586 
L 325.035724 290.407881 
L 325.555275 288.311551 
L 325.685163 288.372546 
L 325.879995 289.212048 
L 326.13977 291.690471 
L 327.243817 304.243575 
L 327.438648 304.625522 
L 327.568536 304.487945 
L 327.763368 303.742098 
L 328.088087 301.300591 
L 329.192134 291.466804 
L 329.451909 290.980634 
L 329.646741 291.025475 
L 330.491012 291.61346 
L 330.750787 291.529789 
L 331.010563 291.182002 
L 331.400226 290.081351 
L 331.854834 288.943431 
L 331.984721 288.930434 
L 332.179553 289.301002 
L 332.439329 290.509115 
L 333.348543 295.476357 
L 333.478431 295.505885 
L 333.673263 295.203114 
L 334.192814 294.213691 
L 334.322702 294.297443 
L 334.582477 294.870031 
L 334.907197 295.43158 
L 335.037085 295.2597 
L 335.231916 294.340819 
L 335.556636 291.138885 
L 336.141131 285.293542 
L 336.271019 285.062096 
L 336.400906 285.390838 
L 336.595738 286.837663 
L 337.764728 298.042322 
L 337.95956 298.16206 
L 338.089448 297.85855 
L 338.284279 296.772207 
L 338.608999 293.35674 
L 339.323382 285.151096 
L 339.518213 284.635943 
L 339.648101 284.827331 
L 339.907877 286.136836 
L 340.427428 288.978545 
L 340.557316 289.083073 
L 340.687204 288.829488 
L 340.946979 287.345182 
L 341.531474 283.225876 
L 341.661362 283.175435 
L 341.79125 283.672103 
L 342.051025 286.251447 
L 343.025184 298.862712 
L 343.414847 300.337203 
L 343.934399 302.069619 
L 344.45395 303.688907 
L 344.713725 303.949918 
L 345.168333 303.967531 
L 345.752828 303.938917 
L 346.012603 303.530536 
L 346.402267 302.319489 
L 346.856874 301.08051 
L 347.11665 300.930558 
L 347.311481 301.094476 
L 347.701145 301.858882 
L 348.415527 303.32742 
L 348.675303 303.439605 
L 348.935079 303.236485 
L 350.428788 301.05818 
L 350.883396 299.186992 
L 351.208115 298.129018 
L 351.338003 298.05615 
L 351.467891 298.250401 
L 351.727666 299.398536 
L 352.506993 303.834926 
L 352.701825 304.028199 
L 352.896656 303.815564 
L 353.870815 302.023437 
L 354.13059 302.171755 
L 355.559356 303.48636 
L 355.754188 303.285324 
L 356.013964 302.625645 
L 356.728346 300.559497 
L 356.923178 300.601032 
L 357.182954 301.104547 
L 357.767449 303.020844 
L 358.936439 306.895434 
L 359.326102 307.384385 
L 359.78071 307.553785 
L 360.754868 307.573029 
L 361.339363 307.434971 
L 361.664083 307.134242 
L 361.988802 306.5269 
L 362.898017 304.524223 
L 363.092848 304.606449 
L 363.352624 305.087542 
L 364.261839 307.15323 
L 364.521614 307.285689 
L 364.78139 307.175566 
L 365.106109 306.689125 
L 365.690604 305.146956 
L 366.015324 304.566617 
L 366.210155 304.541447 
L 366.404987 304.779444 
L 366.794651 305.755874 
L 367.314202 306.884909 
L 367.573977 307.024954 
L 367.768809 306.909519 
L 368.028585 306.479719 
L 368.937799 304.523304 
L 369.132631 304.607866 
L 369.392406 305.089418 
L 370.236677 306.941018 
L 370.431509 306.96869 
L 370.626341 306.770053 
L 370.886116 306.127507 
L 371.27578 304.440726 
L 371.860275 301.966884 
L 372.055106 301.77847 
L 372.184994 301.908146 
L 372.44477 302.710101 
L 373.548816 307.077043 
L 373.873535 307.427437 
L 374.328143 307.563731 
L 375.821852 307.583999 
L 398.487273 307.584 
L 398.487273 307.584 
" style="fill:none;stroke:#ff7f0e;stroke-linecap:square;stroke-width:1.5;"/>
   </g>
   <g id="patch_103">
    <path d="M 57.6 307.584 
L 57.6 41.472 
" style="fill:none;stroke:#000000;stroke-linecap:square;stroke-linejoin:miter;stroke-width:0.8;"/>
   </g>
   <g id="patch_104">
    <path d="M 414.72 307.584 
L 414.72 41.472 
" style="fill:none;stroke:#000000;stroke-linecap:square;stroke-linejoin:miter;stroke-width:0.8;"/>
   </g>
   <g id="patch_105">
    <path d="M 57.6 307.584 
L 414.72 307.584 
" style="fill:none;stroke:#000000;stroke-linecap:square;stroke-linejoin:miter;stroke-width:0.8;"/>
   </g>
   <g id="patch_106">
    <path d="M 57.6 41.472 
L 414.72 41.472 
" style="fill:none;stroke:#000000;stroke-linecap:square;stroke-linejoin:miter;stroke-width:0.8;"/>
   </g>
  </g>
 </g>
 <defs>
  <clipPath id="pa26799b50a">
   <rect height="266.112" width="357.12" x="57.6" y="41.472"/>
  </clipPath>
 </defs>
</svg>
