<?xml version="1.0" encoding="utf-8" standalone="no"?>
<!DOCTYPE svg PUBLIC "-//W3C//DTD SVG 1.1//EN"
  "http://www.w3.org/Graphics/SVG/1.1/DTD/svg11.dtd">
<!-- Created with matplotlib (https://matplotlib.org/) -->
<svg height="345.6pt" version="1.1" viewBox="0 0 460.8 345.6" width="460.8pt" xmlns="http://www.w3.org/2000/svg" xmlns:xlink="http://www.w3.org/1999/xlink">
 <defs>
  <style type="text/css">
*{stroke-linecap:butt;stroke-linejoin:round;}
  </style>
 </defs>
 <g id="figure_1">
  <g id="patch_1">
   <path d="M 0 345.6 
L 460.8 345.6 
L 460.8 0 
L 0 0 
z
" style="fill:#ffffff;"/>
  </g>
  <g id="axes_1">
   <g id="patch_2">
    <path d="M 57.6 307.584 
L 414.72 307.584 
L 414.72 41.472 
L 57.6 41.472 
z
" style="fill:#ffffff;"/>
   </g>
   <g id="patch_3">
    <path clip-path="url(#pb3d4db3833)" d="M 73.832727 307.584 
L 77.079271 307.584 
L 77.079271 307.084759 
L 73.832727 307.084759 
z
" style="fill:#1f77b4;"/>
   </g>
   <g id="patch_4">
    <path clip-path="url(#pb3d4db3833)" d="M 77.079257 307.584 
L 80.3258 307.584 
L 80.3258 307.084759 
L 77.079257 307.084759 
z
" style="fill:#1f77b4;"/>
   </g>
   <g id="patch_5">
    <path clip-path="url(#pb3d4db3833)" d="M 80.325814 307.584 
L 83.572357 307.584 
L 83.572357 306.835139 
L 80.325814 306.835139 
z
" style="fill:#1f77b4;"/>
   </g>
   <g id="patch_6">
    <path clip-path="url(#pb3d4db3833)" d="M 83.572344 307.584 
L 86.818901 307.584 
L 86.818901 307.084762 
L 83.572344 307.084762 
z
" style="fill:#1f77b4;"/>
   </g>
   <g id="patch_7">
    <path clip-path="url(#pb3d4db3833)" d="M 86.818901 307.584 
L 90.065444 307.584 
L 90.065444 306.835139 
L 86.818901 306.835139 
z
" style="fill:#1f77b4;"/>
   </g>
   <g id="patch_8">
    <path clip-path="url(#pb3d4db3833)" d="M 90.065458 307.584 
L 93.312001 307.584 
L 93.312001 306.086278 
L 90.065458 306.086278 
z
" style="fill:#1f77b4;"/>
   </g>
   <g id="patch_9">
    <path clip-path="url(#pb3d4db3833)" d="M 93.311988 307.584 
L 96.558531 307.584 
L 96.558531 306.335899 
L 93.311988 306.335899 
z
" style="fill:#1f77b4;"/>
   </g>
   <g id="patch_10">
    <path clip-path="url(#pb3d4db3833)" d="M 96.558545 307.584 
L 99.805088 307.584 
L 99.805088 302.591594 
L 96.558545 302.591594 
z
" style="fill:#1f77b4;"/>
   </g>
   <g id="patch_11">
    <path clip-path="url(#pb3d4db3833)" d="M 99.805074 307.584 
L 103.051618 307.584 
L 103.051618 302.341974 
L 99.805074 302.341974 
z
" style="fill:#1f77b4;"/>
   </g>
   <g id="patch_12">
    <path clip-path="url(#pb3d4db3833)" d="M 103.051618 307.584 
L 106.298175 307.584 
L 106.298175 301.593138 
L 103.051618 301.593138 
z
" style="fill:#1f77b4;"/>
   </g>
   <g id="patch_13">
    <path clip-path="url(#pb3d4db3833)" d="M 106.298189 307.584 
L 109.544732 307.584 
L 109.544732 300.594632 
L 106.298189 300.594632 
z
" style="fill:#1f77b4;"/>
   </g>
   <g id="patch_14">
    <path clip-path="url(#pb3d4db3833)" d="M 109.544718 307.584 
L 112.791262 307.584 
L 112.791262 298.34805 
L 109.544718 298.34805 
z
" style="fill:#1f77b4;"/>
   </g>
   <g id="patch_15">
    <path clip-path="url(#pb3d4db3833)" d="M 112.791275 307.584 
L 116.037819 307.584 
L 116.037819 299.845771 
L 112.791275 299.845771 
z
" style="fill:#1f77b4;"/>
   </g>
   <g id="patch_16">
    <path clip-path="url(#pb3d4db3833)" d="M 116.037805 307.584 
L 119.284349 307.584 
L 119.284349 301.343493 
L 116.037805 301.343493 
z
" style="fill:#1f77b4;"/>
   </g>
   <g id="patch_17">
    <path clip-path="url(#pb3d4db3833)" d="M 119.284362 307.584 
L 122.530906 307.584 
L 122.530906 299.09691 
L 119.284362 299.09691 
z
" style="fill:#1f77b4;"/>
   </g>
   <g id="patch_18">
    <path clip-path="url(#pb3d4db3833)" d="M 122.530892 307.584 
L 125.777449 307.584 
L 125.777449 301.0939 
L 122.530892 301.0939 
z
" style="fill:#1f77b4;"/>
   </g>
   <g id="patch_19">
    <path clip-path="url(#pb3d4db3833)" d="M 125.777449 307.584 
L 129.023992 307.584 
L 129.023992 300.345012 
L 125.777449 300.345012 
z
" style="fill:#1f77b4;"/>
   </g>
   <g id="patch_20">
    <path clip-path="url(#pb3d4db3833)" d="M 129.023992 307.584 
L 132.270536 307.584 
L 132.270536 302.841215 
L 129.023992 302.841215 
z
" style="fill:#1f77b4;"/>
   </g>
   <g id="patch_21">
    <path clip-path="url(#pb3d4db3833)" d="M 132.270536 307.584 
L 135.517079 307.584 
L 135.517079 299.845771 
L 132.270536 299.845771 
z
" style="fill:#1f77b4;"/>
   </g>
   <g id="patch_22">
    <path clip-path="url(#pb3d4db3833)" d="M 135.517079 307.584 
L 138.763623 307.584 
L 138.763623 297.599189 
L 135.517079 297.599189 
z
" style="fill:#1f77b4;"/>
   </g>
   <g id="patch_23">
    <path clip-path="url(#pb3d4db3833)" d="M 138.763623 307.584 
L 142.010173 307.584 
L 142.010173 298.098449 
L 138.763623 298.098449 
z
" style="fill:#1f77b4;"/>
   </g>
   <g id="patch_24">
    <path clip-path="url(#pb3d4db3833)" d="M 142.010173 307.584 
L 145.256716 307.584 
L 145.256716 291.358682 
L 142.010173 291.358682 
z
" style="fill:#1f77b4;"/>
   </g>
   <g id="patch_25">
    <path clip-path="url(#pb3d4db3833)" d="M 145.256716 307.584 
L 148.50326 307.584 
L 148.50326 292.107543 
L 145.256716 292.107543 
z
" style="fill:#1f77b4;"/>
   </g>
   <g id="patch_26">
    <path clip-path="url(#pb3d4db3833)" d="M 148.503253 307.584 
L 151.749803 307.584 
L 151.749803 294.354153 
L 148.503253 294.354153 
z
" style="fill:#1f77b4;"/>
   </g>
   <g id="patch_27">
    <path clip-path="url(#pb3d4db3833)" d="M 151.74981 307.584 
L 154.996353 307.584 
L 154.996353 292.107543 
L 151.74981 292.107543 
z
" style="fill:#1f77b4;"/>
   </g>
   <g id="patch_28">
    <path clip-path="url(#pb3d4db3833)" d="M 154.996353 307.584 
L 158.242897 307.584 
L 158.242897 286.366276 
L 154.996353 286.366276 
z
" style="fill:#1f77b4;"/>
   </g>
   <g id="patch_29">
    <path clip-path="url(#pb3d4db3833)" d="M 158.242897 307.584 
L 161.489447 307.584 
L 161.489447 279.127348 
L 158.242897 279.127348 
z
" style="fill:#1f77b4;"/>
   </g>
   <g id="patch_30">
    <path clip-path="url(#pb3d4db3833)" d="M 161.489447 307.584 
L 164.73599 307.584 
L 164.73599 281.873111 
L 161.489447 281.873111 
z
" style="fill:#1f77b4;"/>
   </g>
   <g id="patch_31">
    <path clip-path="url(#pb3d4db3833)" d="M 164.73599 307.584 
L 167.982534 307.584 
L 167.982534 281.623491 
L 164.73599 281.623491 
z
" style="fill:#1f77b4;"/>
   </g>
   <g id="patch_32">
    <path clip-path="url(#pb3d4db3833)" d="M 167.982527 307.584 
L 171.229077 307.584 
L 171.229077 283.870123 
L 167.982527 283.870123 
z
" style="fill:#1f77b4;"/>
   </g>
   <g id="patch_33">
    <path clip-path="url(#pb3d4db3833)" d="M 171.229084 307.584 
L 174.475627 307.584 
L 174.475627 280.62501 
L 171.229084 280.62501 
z
" style="fill:#1f77b4;"/>
   </g>
   <g id="patch_34">
    <path clip-path="url(#pb3d4db3833)" d="M 174.475627 307.584 
L 177.722171 307.584 
L 177.722171 277.629566 
L 174.475627 277.629566 
z
" style="fill:#1f77b4;"/>
   </g>
   <g id="patch_35">
    <path clip-path="url(#pb3d4db3833)" d="M 177.722171 307.584 
L 180.968721 307.584 
L 180.968721 282.372405 
L 177.722171 282.372405 
z
" style="fill:#1f77b4;"/>
   </g>
   <g id="patch_36">
    <path clip-path="url(#pb3d4db3833)" d="M 180.968721 307.584 
L 184.215265 307.584 
L 184.215265 278.628047 
L 180.968721 278.628047 
z
" style="fill:#1f77b4;"/>
   </g>
   <g id="patch_37">
    <path clip-path="url(#pb3d4db3833)" d="M 184.215265 307.584 
L 187.461808 307.584 
L 187.461808 269.891337 
L 184.215265 269.891337 
z
" style="fill:#1f77b4;"/>
   </g>
   <g id="patch_38">
    <path clip-path="url(#pb3d4db3833)" d="M 187.461808 307.584 
L 190.708355 307.584 
L 190.708355 272.137957 
L 187.461808 272.137957 
z
" style="fill:#1f77b4;"/>
   </g>
   <g id="patch_39">
    <path clip-path="url(#pb3d4db3833)" d="M 190.708358 307.584 
L 193.954905 307.584 
L 193.954905 268.144037 
L 190.708358 268.144037 
z
" style="fill:#1f77b4;"/>
   </g>
   <g id="patch_40">
    <path clip-path="url(#pb3d4db3833)" d="M 193.954902 307.584 
L 197.201445 307.584 
L 197.201445 268.143995 
L 193.954902 268.143995 
z
" style="fill:#1f77b4;"/>
   </g>
   <g id="patch_41">
    <path clip-path="url(#pb3d4db3833)" d="M 197.201445 307.584 
L 200.447992 307.584 
L 200.447992 263.650877 
L 197.201445 263.650877 
z
" style="fill:#1f77b4;"/>
   </g>
   <g id="patch_42">
    <path clip-path="url(#pb3d4db3833)" d="M 200.447995 307.584 
L 203.694542 307.584 
L 203.694542 255.413416 
L 200.447995 255.413416 
z
" style="fill:#1f77b4;"/>
   </g>
   <g id="patch_43">
    <path clip-path="url(#pb3d4db3833)" d="M 203.694539 307.584 
L 206.941082 307.584 
L 206.941082 253.166779 
L 203.694539 253.166779 
z
" style="fill:#1f77b4;"/>
   </g>
   <g id="patch_44">
    <path clip-path="url(#pb3d4db3833)" d="M 206.941082 307.584 
L 210.187629 307.584 
L 210.187629 251.669116 
L 206.941082 251.669116 
z
" style="fill:#1f77b4;"/>
   </g>
   <g id="patch_45">
    <path clip-path="url(#pb3d4db3833)" d="M 210.187632 307.584 
L 213.434179 307.584 
L 213.434179 249.672156 
L 210.187632 249.672156 
z
" style="fill:#1f77b4;"/>
   </g>
   <g id="patch_46">
    <path clip-path="url(#pb3d4db3833)" d="M 213.434176 307.584 
L 216.680719 307.584 
L 216.680719 244.430069 
L 213.434176 244.430069 
z
" style="fill:#1f77b4;"/>
   </g>
   <g id="patch_47">
    <path clip-path="url(#pb3d4db3833)" d="M 216.680719 307.584 
L 219.927266 307.584 
L 219.927266 239.936975 
L 216.680719 239.936975 
z
" style="fill:#1f77b4;"/>
   </g>
   <g id="patch_48">
    <path clip-path="url(#pb3d4db3833)" d="M 219.927266 307.584 
L 223.173811 307.584 
L 223.173811 240.186559 
L 219.927266 240.186559 
z
" style="fill:#1f77b4;"/>
   </g>
   <g id="patch_49">
    <path clip-path="url(#pb3d4db3833)" d="M 223.173813 307.584 
L 226.420358 307.584 
L 226.420358 228.953653 
L 223.173813 228.953653 
z
" style="fill:#1f77b4;"/>
   </g>
   <g id="patch_50">
    <path clip-path="url(#pb3d4db3833)" d="M 226.420356 307.584 
L 229.666901 307.584 
L 229.666901 222.463529 
L 226.420356 222.463529 
z
" style="fill:#1f77b4;"/>
   </g>
   <g id="patch_51">
    <path clip-path="url(#pb3d4db3833)" d="M 229.666901 307.584 
L 232.913447 307.584 
L 232.913447 223.961272 
L 229.666901 223.961272 
z
" style="fill:#1f77b4;"/>
   </g>
   <g id="patch_52">
    <path clip-path="url(#pb3d4db3833)" d="M 232.913446 307.584 
L 236.159992 307.584 
L 236.159992 216.472669 
L 232.913446 216.472669 
z
" style="fill:#1f77b4;"/>
   </g>
   <g id="patch_53">
    <path clip-path="url(#pb3d4db3833)" d="M 236.159993 307.584 
L 239.406539 307.584 
L 239.406539 201.99469 
L 236.159993 201.99469 
z
" style="fill:#1f77b4;"/>
   </g>
   <g id="patch_54">
    <path clip-path="url(#pb3d4db3833)" d="M 239.406539 307.584 
L 242.653084 307.584 
L 242.653084 195.005327 
L 239.406539 195.005327 
z
" style="fill:#1f77b4;"/>
   </g>
   <g id="patch_55">
    <path clip-path="url(#pb3d4db3833)" d="M 242.653084 307.584 
L 245.89963 307.584 
L 245.89963 129.604856 
L 242.653084 129.604856 
z
" style="fill:#1f77b4;"/>
   </g>
   <g id="patch_56">
    <path clip-path="url(#pb3d4db3833)" d="M 245.89963 307.584 
L 249.146175 307.584 
L 249.146175 204.490885 
L 245.89963 204.490885 
z
" style="fill:#1f77b4;"/>
   </g>
   <g id="patch_57">
    <path clip-path="url(#pb3d4db3833)" d="M 249.146175 307.584 
L 252.392721 307.584 
L 252.392721 218.96887 
L 249.146175 218.96887 
z
" style="fill:#1f77b4;"/>
   </g>
   <g id="patch_58">
    <path clip-path="url(#pb3d4db3833)" d="M 252.392721 307.584 
L 255.639266 307.584 
L 255.639266 210.731382 
L 252.392721 210.731382 
z
" style="fill:#1f77b4;"/>
   </g>
   <g id="patch_59">
    <path clip-path="url(#pb3d4db3833)" d="M 255.639266 307.584 
L 258.885811 307.584 
L 258.885811 225.958232 
L 255.639266 225.958232 
z
" style="fill:#1f77b4;"/>
   </g>
   <g id="patch_60">
    <path clip-path="url(#pb3d4db3833)" d="M 258.885814 307.584 
L 262.132359 307.584 
L 262.132359 223.462009 
L 258.885814 223.462009 
z
" style="fill:#1f77b4;"/>
   </g>
   <g id="patch_61">
    <path clip-path="url(#pb3d4db3833)" d="M 262.132357 307.584 
L 265.378904 307.584 
L 265.378904 237.940015 
L 262.132357 237.940015 
z
" style="fill:#1f77b4;"/>
   </g>
   <g id="patch_62">
    <path clip-path="url(#pb3d4db3833)" d="M 265.378904 307.584 
L 268.625449 307.584 
L 268.625449 239.687319 
L 265.378904 239.687319 
z
" style="fill:#1f77b4;"/>
   </g>
   <g id="patch_63">
    <path clip-path="url(#pb3d4db3833)" d="M 268.625451 307.584 
L 271.871996 307.584 
L 271.871996 248.923265 
L 268.625451 248.923265 
z
" style="fill:#1f77b4;"/>
   </g>
   <g id="patch_64">
    <path clip-path="url(#pb3d4db3833)" d="M 271.871996 307.584 
L 275.118541 307.584 
L 275.118541 254.914176 
L 271.871996 254.914176 
z
" style="fill:#1f77b4;"/>
   </g>
   <g id="patch_65">
    <path clip-path="url(#pb3d4db3833)" d="M 275.118541 307.584 
L 278.365085 307.584 
L 278.365085 253.416399 
L 275.118541 253.416399 
z
" style="fill:#1f77b4;"/>
   </g>
   <g id="patch_66">
    <path clip-path="url(#pb3d4db3833)" d="M 278.365085 307.584 
L 281.611632 307.584 
L 281.611632 255.413416 
L 278.365085 255.413416 
z
" style="fill:#1f77b4;"/>
   </g>
   <g id="patch_67">
    <path clip-path="url(#pb3d4db3833)" d="M 281.611635 307.584 
L 284.858182 307.584 
L 284.858182 260.156196 
L 281.611635 260.156196 
z
" style="fill:#1f77b4;"/>
   </g>
   <g id="patch_68">
    <path clip-path="url(#pb3d4db3833)" d="M 284.858178 307.584 
L 288.104722 307.584 
L 288.104722 265.897413 
L 284.858178 265.897413 
z
" style="fill:#1f77b4;"/>
   </g>
   <g id="patch_69">
    <path clip-path="url(#pb3d4db3833)" d="M 288.104722 307.584 
L 291.351269 307.584 
L 291.351269 267.644797 
L 288.104722 267.644797 
z
" style="fill:#1f77b4;"/>
   </g>
   <g id="patch_70">
    <path clip-path="url(#pb3d4db3833)" d="M 291.351272 307.584 
L 294.597819 307.584 
L 294.597819 259.157716 
L 291.351272 259.157716 
z
" style="fill:#1f77b4;"/>
   </g>
   <g id="patch_71">
    <path clip-path="url(#pb3d4db3833)" d="M 294.597815 307.584 
L 297.844359 307.584 
L 297.844359 262.402729 
L 294.597815 262.402729 
z
" style="fill:#1f77b4;"/>
   </g>
   <g id="patch_72">
    <path clip-path="url(#pb3d4db3833)" d="M 297.844359 307.584 
L 301.090906 307.584 
L 301.090906 272.387577 
L 297.844359 272.387577 
z
" style="fill:#1f77b4;"/>
   </g>
   <g id="patch_73">
    <path clip-path="url(#pb3d4db3833)" d="M 301.090909 307.584 
L 304.337459 307.584 
L 304.337459 274.883778 
L 301.090909 274.883778 
z
" style="fill:#1f77b4;"/>
   </g>
   <g id="patch_74">
    <path clip-path="url(#pb3d4db3833)" d="M 304.337452 307.584 
L 307.583996 307.584 
L 307.583996 273.386021 
L 304.337452 273.386021 
z
" style="fill:#1f77b4;"/>
   </g>
   <g id="patch_75">
    <path clip-path="url(#pb3d4db3833)" d="M 307.583996 307.584 
L 310.830539 307.584 
L 310.830539 281.37387 
L 307.583996 281.37387 
z
" style="fill:#1f77b4;"/>
   </g>
   <g id="patch_76">
    <path clip-path="url(#pb3d4db3833)" d="M 310.830532 307.584 
L 314.077083 307.584 
L 314.077083 285.118222 
L 310.830532 285.118222 
z
" style="fill:#1f77b4;"/>
   </g>
   <g id="patch_77">
    <path clip-path="url(#pb3d4db3833)" d="M 314.07709 307.584 
L 317.323633 307.584 
L 317.323633 285.118175 
L 314.07709 285.118175 
z
" style="fill:#1f77b4;"/>
   </g>
   <g id="patch_78">
    <path clip-path="url(#pb3d4db3833)" d="M 317.323633 307.584 
L 320.570176 307.584 
L 320.570176 282.621972 
L 317.323633 282.621972 
z
" style="fill:#1f77b4;"/>
   </g>
   <g id="patch_79">
    <path clip-path="url(#pb3d4db3833)" d="M 320.570176 307.584 
L 323.816727 307.584 
L 323.816727 286.116701 
L 320.570176 286.116701 
z
" style="fill:#1f77b4;"/>
   </g>
   <g id="patch_80">
    <path clip-path="url(#pb3d4db3833)" d="M 323.816727 307.584 
L 327.06327 307.584 
L 327.06327 286.865517 
L 323.816727 286.865517 
z
" style="fill:#1f77b4;"/>
   </g>
   <g id="patch_81">
    <path clip-path="url(#pb3d4db3833)" d="M 327.06327 307.584 
L 330.309813 307.584 
L 330.309813 292.606783 
L 327.06327 292.606783 
z
" style="fill:#1f77b4;"/>
   </g>
   <g id="patch_82">
    <path clip-path="url(#pb3d4db3833)" d="M 330.309807 307.584 
L 333.556357 307.584 
L 333.556357 297.84883 
L 330.309807 297.84883 
z
" style="fill:#1f77b4;"/>
   </g>
   <g id="patch_83">
    <path clip-path="url(#pb3d4db3833)" d="M 333.556364 307.584 
L 336.802907 307.584 
L 336.802907 296.600708 
L 333.556364 296.600708 
z
" style="fill:#1f77b4;"/>
   </g>
   <g id="patch_84">
    <path clip-path="url(#pb3d4db3833)" d="M 336.802907 307.584 
L 340.04945 307.584 
L 340.04945 299.09691 
L 336.802907 299.09691 
z
" style="fill:#1f77b4;"/>
   </g>
   <g id="patch_85">
    <path clip-path="url(#pb3d4db3833)" d="M 340.04945 307.584 
L 343.296001 307.584 
L 343.296001 303.090844 
L 340.04945 303.090844 
z
" style="fill:#1f77b4;"/>
   </g>
   <g id="patch_86">
    <path clip-path="url(#pb3d4db3833)" d="M 343.296001 307.584 
L 346.542544 307.584 
L 346.542544 304.089316 
L 343.296001 304.089316 
z
" style="fill:#1f77b4;"/>
   </g>
   <g id="patch_87">
    <path clip-path="url(#pb3d4db3833)" d="M 346.542544 307.584 
L 349.789087 307.584 
L 349.789087 302.341974 
L 346.542544 302.341974 
z
" style="fill:#1f77b4;"/>
   </g>
   <g id="patch_88">
    <path clip-path="url(#pb3d4db3833)" d="M 349.789081 307.584 
L 353.035631 307.584 
L 353.035631 299.845788 
L 349.789081 299.845788 
z
" style="fill:#1f77b4;"/>
   </g>
   <g id="patch_89">
    <path clip-path="url(#pb3d4db3833)" d="M 353.035638 307.584 
L 356.282181 307.584 
L 356.282181 300.844252 
L 353.035638 300.844252 
z
" style="fill:#1f77b4;"/>
   </g>
   <g id="patch_90">
    <path clip-path="url(#pb3d4db3833)" d="M 356.282181 307.584 
L 359.528725 307.584 
L 359.528725 302.341974 
L 356.282181 302.341974 
z
" style="fill:#1f77b4;"/>
   </g>
   <g id="patch_91">
    <path clip-path="url(#pb3d4db3833)" d="M 359.528738 307.584 
L 362.775282 307.584 
L 362.775282 304.838177 
L 359.528738 304.838177 
z
" style="fill:#1f77b4;"/>
   </g>
   <g id="patch_92">
    <path clip-path="url(#pb3d4db3833)" d="M 362.775268 307.584 
L 366.021811 307.584 
L 366.021811 305.337417 
L 362.775268 305.337417 
z
" style="fill:#1f77b4;"/>
   </g>
   <g id="patch_93">
    <path clip-path="url(#pb3d4db3833)" d="M 366.021811 307.584 
L 369.268368 307.584 
L 369.268368 305.087808 
L 366.021811 305.087808 
z
" style="fill:#1f77b4;"/>
   </g>
   <g id="patch_94">
    <path clip-path="url(#pb3d4db3833)" d="M 369.268382 307.584 
L 372.514926 307.584 
L 372.514926 303.590075 
L 369.268382 303.590075 
z
" style="fill:#1f77b4;"/>
   </g>
   <g id="patch_95">
    <path clip-path="url(#pb3d4db3833)" d="M 372.514912 307.584 
L 375.761455 307.584 
L 375.761455 306.086278 
L 372.514912 306.086278 
z
" style="fill:#1f77b4;"/>
   </g>
   <g id="patch_96">
    <path clip-path="url(#pb3d4db3833)" d="M 375.761469 307.584 
L 379.008012 307.584 
L 379.008012 305.087797 
L 375.761469 305.087797 
z
" style="fill:#1f77b4;"/>
   </g>
   <g id="patch_97">
    <path clip-path="url(#pb3d4db3833)" d="M 379.007999 307.584 
L 382.254542 307.584 
L 382.254542 307.084759 
L 379.007999 307.084759 
z
" style="fill:#1f77b4;"/>
   </g>
   <g id="patch_98">
    <path clip-path="url(#pb3d4db3833)" d="M 382.254556 307.584 
L 385.501099 307.584 
L 385.501099 307.584 
L 382.254556 307.584 
z
" style="fill:#1f77b4;"/>
   </g>
   <g id="patch_99">
    <path clip-path="url(#pb3d4db3833)" d="M 385.501085 307.584 
L 388.747643 307.584 
L 388.747643 306.835142 
L 385.501085 306.835142 
z
" style="fill:#1f77b4;"/>
   </g>
   <g id="patch_100">
    <path clip-path="url(#pb3d4db3833)" d="M 388.747643 307.584 
L 391.994186 307.584 
L 391.994186 306.835139 
L 388.747643 306.835139 
z
" style="fill:#1f77b4;"/>
   </g>
   <g id="patch_101">
    <path clip-path="url(#pb3d4db3833)" d="M 391.9942 307.584 
L 395.240743 307.584 
L 395.240743 307.084759 
L 391.9942 307.084759 
z
" style="fill:#1f77b4;"/>
   </g>
   <g id="patch_102">
    <path clip-path="url(#pb3d4db3833)" d="M 395.240729 307.584 
L 398.487273 307.584 
L 398.487273 307.084759 
L 395.240729 307.084759 
z
" style="fill:#1f77b4;"/>
   </g>
   <g id="matplotlib.axis_1">
    <g id="xtick_1">
     <g id="line2d_1">
      <defs>
       <path d="M 0 0 
L 0 3.5 
" id="m5c20747eb2" style="stroke:#000000;stroke-width:0.8;"/>
      </defs>
      <g>
       <use style="stroke:#000000;stroke-width:0.8;" x="71.898227" xlink:href="#m5c20747eb2" y="307.584"/>
      </g>
     </g>
     <g id="text_1">
      <!-- −3 -->
      <defs>
       <path d="M 10.59375 35.5 
L 73.1875 35.5 
L 73.1875 27.203125 
L 10.59375 27.203125 
z
" id="DejaVuSans-8722"/>
       <path d="M 40.578125 39.3125 
Q 47.65625 37.796875 51.625 33 
Q 55.609375 28.21875 55.609375 21.1875 
Q 55.609375 10.40625 48.1875 4.484375 
Q 40.765625 -1.421875 27.09375 -1.421875 
Q 22.515625 -1.421875 17.65625 -0.515625 
Q 12.796875 0.390625 7.625 2.203125 
L 7.625 11.71875 
Q 11.71875 9.328125 16.59375 8.109375 
Q 21.484375 6.890625 26.8125 6.890625 
Q 36.078125 6.890625 40.9375 10.546875 
Q 45.796875 14.203125 45.796875 21.1875 
Q 45.796875 27.640625 41.28125 31.265625 
Q 36.765625 34.90625 28.71875 34.90625 
L 20.21875 34.90625 
L 20.21875 43.015625 
L 29.109375 43.015625 
Q 36.375 43.015625 40.234375 45.921875 
Q 44.09375 48.828125 44.09375 54.296875 
Q 44.09375 59.90625 40.109375 62.90625 
Q 36.140625 65.921875 28.71875 65.921875 
Q 24.65625 65.921875 20.015625 65.03125 
Q 15.375 64.15625 9.8125 62.3125 
L 9.8125 71.09375 
Q 15.4375 72.65625 20.34375 73.4375 
Q 25.25 74.21875 29.59375 74.21875 
Q 40.828125 74.21875 47.359375 69.109375 
Q 53.90625 64.015625 53.90625 55.328125 
Q 53.90625 49.265625 50.4375 45.09375 
Q 46.96875 40.921875 40.578125 39.3125 
z
" id="DejaVuSans-51"/>
      </defs>
      <g transform="translate(59.367368 327.501344)scale(0.17 -0.17)">
       <use xlink:href="#DejaVuSans-8722"/>
       <use x="83.789062" xlink:href="#DejaVuSans-51"/>
      </g>
     </g>
    </g>
    <g id="xtick_2">
     <g id="line2d_2">
      <g>
       <use style="stroke:#000000;stroke-width:0.8;" x="129.279068" xlink:href="#m5c20747eb2" y="307.584"/>
      </g>
     </g>
     <g id="text_2">
      <!-- −2 -->
      <defs>
       <path d="M 19.1875 8.296875 
L 53.609375 8.296875 
L 53.609375 0 
L 7.328125 0 
L 7.328125 8.296875 
Q 12.9375 14.109375 22.625 23.890625 
Q 32.328125 33.6875 34.8125 36.53125 
Q 39.546875 41.84375 41.421875 45.53125 
Q 43.3125 49.21875 43.3125 52.78125 
Q 43.3125 58.59375 39.234375 62.25 
Q 35.15625 65.921875 28.609375 65.921875 
Q 23.96875 65.921875 18.8125 64.3125 
Q 13.671875 62.703125 7.8125 59.421875 
L 7.8125 69.390625 
Q 13.765625 71.78125 18.9375 73 
Q 24.125 74.21875 28.421875 74.21875 
Q 39.75 74.21875 46.484375 68.546875 
Q 53.21875 62.890625 53.21875 53.421875 
Q 53.21875 48.921875 51.53125 44.890625 
Q 49.859375 40.875 45.40625 35.40625 
Q 44.1875 33.984375 37.640625 27.21875 
Q 31.109375 20.453125 19.1875 8.296875 
z
" id="DejaVuSans-50"/>
      </defs>
      <g transform="translate(116.748209 327.501344)scale(0.17 -0.17)">
       <use xlink:href="#DejaVuSans-8722"/>
       <use x="83.789062" xlink:href="#DejaVuSans-50"/>
      </g>
     </g>
    </g>
    <g id="xtick_3">
     <g id="line2d_3">
      <g>
       <use style="stroke:#000000;stroke-width:0.8;" x="186.659909" xlink:href="#m5c20747eb2" y="307.584"/>
      </g>
     </g>
     <g id="text_3">
      <!-- −1 -->
      <defs>
       <path d="M 12.40625 8.296875 
L 28.515625 8.296875 
L 28.515625 63.921875 
L 10.984375 60.40625 
L 10.984375 69.390625 
L 28.421875 72.90625 
L 38.28125 72.90625 
L 38.28125 8.296875 
L 54.390625 8.296875 
L 54.390625 0 
L 12.40625 0 
z
" id="DejaVuSans-49"/>
      </defs>
      <g transform="translate(174.12905 327.501344)scale(0.17 -0.17)">
       <use xlink:href="#DejaVuSans-8722"/>
       <use x="83.789062" xlink:href="#DejaVuSans-49"/>
      </g>
     </g>
    </g>
    <g id="xtick_4">
     <g id="line2d_4">
      <g>
       <use style="stroke:#000000;stroke-width:0.8;" x="244.04075" xlink:href="#m5c20747eb2" y="307.584"/>
      </g>
     </g>
     <g id="text_4">
      <!-- 0 -->
      <defs>
       <path d="M 31.78125 66.40625 
Q 24.171875 66.40625 20.328125 58.90625 
Q 16.5 51.421875 16.5 36.375 
Q 16.5 21.390625 20.328125 13.890625 
Q 24.171875 6.390625 31.78125 6.390625 
Q 39.453125 6.390625 43.28125 13.890625 
Q 47.125 21.390625 47.125 36.375 
Q 47.125 51.421875 43.28125 58.90625 
Q 39.453125 66.40625 31.78125 66.40625 
z
M 31.78125 74.21875 
Q 44.046875 74.21875 50.515625 64.515625 
Q 56.984375 54.828125 56.984375 36.375 
Q 56.984375 17.96875 50.515625 8.265625 
Q 44.046875 -1.421875 31.78125 -1.421875 
Q 19.53125 -1.421875 13.0625 8.265625 
Q 6.59375 17.96875 6.59375 36.375 
Q 6.59375 54.828125 13.0625 64.515625 
Q 19.53125 74.21875 31.78125 74.21875 
z
" id="DejaVuSans-48"/>
      </defs>
      <g transform="translate(238.632625 327.501344)scale(0.17 -0.17)">
       <use xlink:href="#DejaVuSans-48"/>
      </g>
     </g>
    </g>
    <g id="xtick_5">
     <g id="line2d_5">
      <g>
       <use style="stroke:#000000;stroke-width:0.8;" x="301.421591" xlink:href="#m5c20747eb2" y="307.584"/>
      </g>
     </g>
     <g id="text_5">
      <!-- 1 -->
      <g transform="translate(296.013466 327.501344)scale(0.17 -0.17)">
       <use xlink:href="#DejaVuSans-49"/>
      </g>
     </g>
    </g>
    <g id="xtick_6">
     <g id="line2d_6">
      <g>
       <use style="stroke:#000000;stroke-width:0.8;" x="358.802432" xlink:href="#m5c20747eb2" y="307.584"/>
      </g>
     </g>
     <g id="text_6">
      <!-- 2 -->
      <g transform="translate(353.394307 327.501344)scale(0.17 -0.17)">
       <use xlink:href="#DejaVuSans-50"/>
      </g>
     </g>
    </g>
    <g id="text_7">
     <!-- Position in Radian -->
     <defs>
      <path d="M 19.671875 64.796875 
L 19.671875 37.40625 
L 32.078125 37.40625 
Q 38.96875 37.40625 42.71875 40.96875 
Q 46.484375 44.53125 46.484375 51.125 
Q 46.484375 57.671875 42.71875 61.234375 
Q 38.96875 64.796875 32.078125 64.796875 
z
M 9.8125 72.90625 
L 32.078125 72.90625 
Q 44.34375 72.90625 50.609375 67.359375 
Q 56.890625 61.8125 56.890625 51.125 
Q 56.890625 40.328125 50.609375 34.8125 
Q 44.34375 29.296875 32.078125 29.296875 
L 19.671875 29.296875 
L 19.671875 0 
L 9.8125 0 
z
" id="DejaVuSans-80"/>
      <path d="M 30.609375 48.390625 
Q 23.390625 48.390625 19.1875 42.75 
Q 14.984375 37.109375 14.984375 27.296875 
Q 14.984375 17.484375 19.15625 11.84375 
Q 23.34375 6.203125 30.609375 6.203125 
Q 37.796875 6.203125 41.984375 11.859375 
Q 46.1875 17.53125 46.1875 27.296875 
Q 46.1875 37.015625 41.984375 42.703125 
Q 37.796875 48.390625 30.609375 48.390625 
z
M 30.609375 56 
Q 42.328125 56 49.015625 48.375 
Q 55.71875 40.765625 55.71875 27.296875 
Q 55.71875 13.875 49.015625 6.21875 
Q 42.328125 -1.421875 30.609375 -1.421875 
Q 18.84375 -1.421875 12.171875 6.21875 
Q 5.515625 13.875 5.515625 27.296875 
Q 5.515625 40.765625 12.171875 48.375 
Q 18.84375 56 30.609375 56 
z
" id="DejaVuSans-111"/>
      <path d="M 44.28125 53.078125 
L 44.28125 44.578125 
Q 40.484375 46.53125 36.375 47.5 
Q 32.28125 48.484375 27.875 48.484375 
Q 21.1875 48.484375 17.84375 46.4375 
Q 14.5 44.390625 14.5 40.28125 
Q 14.5 37.15625 16.890625 35.375 
Q 19.28125 33.59375 26.515625 31.984375 
L 29.59375 31.296875 
Q 39.15625 29.25 43.1875 25.515625 
Q 47.21875 21.78125 47.21875 15.09375 
Q 47.21875 7.46875 41.1875 3.015625 
Q 35.15625 -1.421875 24.609375 -1.421875 
Q 20.21875 -1.421875 15.453125 -0.5625 
Q 10.6875 0.296875 5.421875 2 
L 5.421875 11.28125 
Q 10.40625 8.6875 15.234375 7.390625 
Q 20.0625 6.109375 24.8125 6.109375 
Q 31.15625 6.109375 34.5625 8.28125 
Q 37.984375 10.453125 37.984375 14.40625 
Q 37.984375 18.0625 35.515625 20.015625 
Q 33.0625 21.96875 24.703125 23.78125 
L 21.578125 24.515625 
Q 13.234375 26.265625 9.515625 29.90625 
Q 5.8125 33.546875 5.8125 39.890625 
Q 5.8125 47.609375 11.28125 51.796875 
Q 16.75 56 26.8125 56 
Q 31.78125 56 36.171875 55.265625 
Q 40.578125 54.546875 44.28125 53.078125 
z
" id="DejaVuSans-115"/>
      <path d="M 9.421875 54.6875 
L 18.40625 54.6875 
L 18.40625 0 
L 9.421875 0 
z
M 9.421875 75.984375 
L 18.40625 75.984375 
L 18.40625 64.59375 
L 9.421875 64.59375 
z
" id="DejaVuSans-105"/>
      <path d="M 18.3125 70.21875 
L 18.3125 54.6875 
L 36.8125 54.6875 
L 36.8125 47.703125 
L 18.3125 47.703125 
L 18.3125 18.015625 
Q 18.3125 11.328125 20.140625 9.421875 
Q 21.96875 7.515625 27.59375 7.515625 
L 36.8125 7.515625 
L 36.8125 0 
L 27.59375 0 
Q 17.1875 0 13.234375 3.875 
Q 9.28125 7.765625 9.28125 18.015625 
L 9.28125 47.703125 
L 2.6875 47.703125 
L 2.6875 54.6875 
L 9.28125 54.6875 
L 9.28125 70.21875 
z
" id="DejaVuSans-116"/>
      <path d="M 54.890625 33.015625 
L 54.890625 0 
L 45.90625 0 
L 45.90625 32.71875 
Q 45.90625 40.484375 42.875 44.328125 
Q 39.84375 48.1875 33.796875 48.1875 
Q 26.515625 48.1875 22.3125 43.546875 
Q 18.109375 38.921875 18.109375 30.90625 
L 18.109375 0 
L 9.078125 0 
L 9.078125 54.6875 
L 18.109375 54.6875 
L 18.109375 46.1875 
Q 21.34375 51.125 25.703125 53.5625 
Q 30.078125 56 35.796875 56 
Q 45.21875 56 50.046875 50.171875 
Q 54.890625 44.34375 54.890625 33.015625 
z
" id="DejaVuSans-110"/>
      <path id="DejaVuSans-32"/>
      <path d="M 44.390625 34.1875 
Q 47.5625 33.109375 50.5625 29.59375 
Q 53.5625 26.078125 56.59375 19.921875 
L 66.609375 0 
L 56 0 
L 46.6875 18.703125 
Q 43.0625 26.03125 39.671875 28.421875 
Q 36.28125 30.8125 30.421875 30.8125 
L 19.671875 30.8125 
L 19.671875 0 
L 9.8125 0 
L 9.8125 72.90625 
L 32.078125 72.90625 
Q 44.578125 72.90625 50.734375 67.671875 
Q 56.890625 62.453125 56.890625 51.90625 
Q 56.890625 45.015625 53.6875 40.46875 
Q 50.484375 35.9375 44.390625 34.1875 
z
M 19.671875 64.796875 
L 19.671875 38.921875 
L 32.078125 38.921875 
Q 39.203125 38.921875 42.84375 42.21875 
Q 46.484375 45.515625 46.484375 51.90625 
Q 46.484375 58.296875 42.84375 61.546875 
Q 39.203125 64.796875 32.078125 64.796875 
z
" id="DejaVuSans-82"/>
      <path d="M 34.28125 27.484375 
Q 23.390625 27.484375 19.1875 25 
Q 14.984375 22.515625 14.984375 16.5 
Q 14.984375 11.71875 18.140625 8.90625 
Q 21.296875 6.109375 26.703125 6.109375 
Q 34.1875 6.109375 38.703125 11.40625 
Q 43.21875 16.703125 43.21875 25.484375 
L 43.21875 27.484375 
z
M 52.203125 31.203125 
L 52.203125 0 
L 43.21875 0 
L 43.21875 8.296875 
Q 40.140625 3.328125 35.546875 0.953125 
Q 30.953125 -1.421875 24.3125 -1.421875 
Q 15.921875 -1.421875 10.953125 3.296875 
Q 6 8.015625 6 15.921875 
Q 6 25.140625 12.171875 29.828125 
Q 18.359375 34.515625 30.609375 34.515625 
L 43.21875 34.515625 
L 43.21875 35.40625 
Q 43.21875 41.609375 39.140625 45 
Q 35.0625 48.390625 27.6875 48.390625 
Q 23 48.390625 18.546875 47.265625 
Q 14.109375 46.140625 10.015625 43.890625 
L 10.015625 52.203125 
Q 14.9375 54.109375 19.578125 55.046875 
Q 24.21875 56 28.609375 56 
Q 40.484375 56 46.34375 49.84375 
Q 52.203125 43.703125 52.203125 31.203125 
z
" id="DejaVuSans-97"/>
      <path d="M 45.40625 46.390625 
L 45.40625 75.984375 
L 54.390625 75.984375 
L 54.390625 0 
L 45.40625 0 
L 45.40625 8.203125 
Q 42.578125 3.328125 38.25 0.953125 
Q 33.9375 -1.421875 27.875 -1.421875 
Q 17.96875 -1.421875 11.734375 6.484375 
Q 5.515625 14.40625 5.515625 27.296875 
Q 5.515625 40.1875 11.734375 48.09375 
Q 17.96875 56 27.875 56 
Q 33.9375 56 38.25 53.625 
Q 42.578125 51.265625 45.40625 46.390625 
z
M 14.796875 27.296875 
Q 14.796875 17.390625 18.875 11.75 
Q 22.953125 6.109375 30.078125 6.109375 
Q 37.203125 6.109375 41.296875 11.75 
Q 45.40625 17.390625 45.40625 27.296875 
Q 45.40625 37.203125 41.296875 42.84375 
Q 37.203125 48.484375 30.078125 48.484375 
Q 22.953125 48.484375 18.875 42.84375 
Q 14.796875 37.203125 14.796875 27.296875 
z
" id="DejaVuSans-100"/>
     </defs>
     <g transform="translate(102.024844 357.832125)scale(0.3 -0.3)">
      <use xlink:href="#DejaVuSans-80"/>
      <use x="60.255859" xlink:href="#DejaVuSans-111"/>
      <use x="121.4375" xlink:href="#DejaVuSans-115"/>
      <use x="173.537109" xlink:href="#DejaVuSans-105"/>
      <use x="201.320312" xlink:href="#DejaVuSans-116"/>
      <use x="240.529297" xlink:href="#DejaVuSans-105"/>
      <use x="268.3125" xlink:href="#DejaVuSans-111"/>
      <use x="329.494141" xlink:href="#DejaVuSans-110"/>
      <use x="392.873047" xlink:href="#DejaVuSans-32"/>
      <use x="424.660156" xlink:href="#DejaVuSans-105"/>
      <use x="452.443359" xlink:href="#DejaVuSans-110"/>
      <use x="515.822266" xlink:href="#DejaVuSans-32"/>
      <use x="547.609375" xlink:href="#DejaVuSans-82"/>
      <use x="617.060547" xlink:href="#DejaVuSans-97"/>
      <use x="678.339844" xlink:href="#DejaVuSans-100"/>
      <use x="741.816406" xlink:href="#DejaVuSans-105"/>
      <use x="769.599609" xlink:href="#DejaVuSans-97"/>
      <use x="830.878906" xlink:href="#DejaVuSans-110"/>
     </g>
    </g>
   </g>
   <g id="matplotlib.axis_2">
    <g id="ytick_1">
     <g id="line2d_7">
      <defs>
       <path d="M 0 0 
L -3.5 0 
" id="m50185d869e" style="stroke:#000000;stroke-width:0.8;"/>
      </defs>
      <g>
       <use style="stroke:#000000;stroke-width:0.8;" x="57.6" xlink:href="#m50185d869e" y="307.584"/>
      </g>
     </g>
     <g id="text_8">
      <!-- 0.00 -->
      <defs>
       <path d="M 10.6875 12.40625 
L 21 12.40625 
L 21 0 
L 10.6875 0 
z
" id="DejaVuSans-46"/>
      </defs>
      <g transform="translate(12.748438 314.042672)scale(0.17 -0.17)">
       <use xlink:href="#DejaVuSans-48"/>
       <use x="63.623047" xlink:href="#DejaVuSans-46"/>
       <use x="95.410156" xlink:href="#DejaVuSans-48"/>
       <use x="159.033203" xlink:href="#DejaVuSans-48"/>
      </g>
     </g>
    </g>
    <g id="ytick_2">
     <g id="line2d_8">
      <g>
       <use style="stroke:#000000;stroke-width:0.8;" x="57.6" xlink:href="#m50185d869e" y="263.448892"/>
      </g>
     </g>
     <g id="text_9">
      <!-- 0.25 -->
      <defs>
       <path d="M 10.796875 72.90625 
L 49.515625 72.90625 
L 49.515625 64.59375 
L 19.828125 64.59375 
L 19.828125 46.734375 
Q 21.96875 47.46875 24.109375 47.828125 
Q 26.265625 48.1875 28.421875 48.1875 
Q 40.625 48.1875 47.75 41.5 
Q 54.890625 34.8125 54.890625 23.390625 
Q 54.890625 11.625 47.5625 5.09375 
Q 40.234375 -1.421875 26.90625 -1.421875 
Q 22.3125 -1.421875 17.546875 -0.640625 
Q 12.796875 0.140625 7.71875 1.703125 
L 7.71875 11.625 
Q 12.109375 9.234375 16.796875 8.0625 
Q 21.484375 6.890625 26.703125 6.890625 
Q 35.15625 6.890625 40.078125 11.328125 
Q 45.015625 15.765625 45.015625 23.390625 
Q 45.015625 31 40.078125 35.4375 
Q 35.15625 39.890625 26.703125 39.890625 
Q 22.75 39.890625 18.8125 39.015625 
Q 14.890625 38.140625 10.796875 36.28125 
z
" id="DejaVuSans-53"/>
      </defs>
      <g transform="translate(12.748438 269.907564)scale(0.17 -0.17)">
       <use xlink:href="#DejaVuSans-48"/>
       <use x="63.623047" xlink:href="#DejaVuSans-46"/>
       <use x="95.410156" xlink:href="#DejaVuSans-50"/>
       <use x="159.033203" xlink:href="#DejaVuSans-53"/>
      </g>
     </g>
    </g>
    <g id="ytick_3">
     <g id="line2d_9">
      <g>
       <use style="stroke:#000000;stroke-width:0.8;" x="57.6" xlink:href="#m50185d869e" y="219.313784"/>
      </g>
     </g>
     <g id="text_10">
      <!-- 0.50 -->
      <g transform="translate(12.748438 225.772455)scale(0.17 -0.17)">
       <use xlink:href="#DejaVuSans-48"/>
       <use x="63.623047" xlink:href="#DejaVuSans-46"/>
       <use x="95.410156" xlink:href="#DejaVuSans-53"/>
       <use x="159.033203" xlink:href="#DejaVuSans-48"/>
      </g>
     </g>
    </g>
    <g id="ytick_4">
     <g id="line2d_10">
      <g>
       <use style="stroke:#000000;stroke-width:0.8;" x="57.6" xlink:href="#m50185d869e" y="175.178675"/>
      </g>
     </g>
     <g id="text_11">
      <!-- 0.75 -->
      <defs>
       <path d="M 8.203125 72.90625 
L 55.078125 72.90625 
L 55.078125 68.703125 
L 28.609375 0 
L 18.3125 0 
L 43.21875 64.59375 
L 8.203125 64.59375 
z
" id="DejaVuSans-55"/>
      </defs>
      <g transform="translate(12.748438 181.637347)scale(0.17 -0.17)">
       <use xlink:href="#DejaVuSans-48"/>
       <use x="63.623047" xlink:href="#DejaVuSans-46"/>
       <use x="95.410156" xlink:href="#DejaVuSans-55"/>
       <use x="159.033203" xlink:href="#DejaVuSans-53"/>
      </g>
     </g>
    </g>
    <g id="ytick_5">
     <g id="line2d_11">
      <g>
       <use style="stroke:#000000;stroke-width:0.8;" x="57.6" xlink:href="#m50185d869e" y="131.043567"/>
      </g>
     </g>
     <g id="text_12">
      <!-- 1.00 -->
      <g transform="translate(12.748438 137.502239)scale(0.17 -0.17)">
       <use xlink:href="#DejaVuSans-49"/>
       <use x="63.623047" xlink:href="#DejaVuSans-46"/>
       <use x="95.410156" xlink:href="#DejaVuSans-48"/>
       <use x="159.033203" xlink:href="#DejaVuSans-48"/>
      </g>
     </g>
    </g>
    <g id="ytick_6">
     <g id="line2d_12">
      <g>
       <use style="stroke:#000000;stroke-width:0.8;" x="57.6" xlink:href="#m50185d869e" y="86.908459"/>
      </g>
     </g>
     <g id="text_13">
      <!-- 1.25 -->
      <g transform="translate(12.748438 93.367131)scale(0.17 -0.17)">
       <use xlink:href="#DejaVuSans-49"/>
       <use x="63.623047" xlink:href="#DejaVuSans-46"/>
       <use x="95.410156" xlink:href="#DejaVuSans-50"/>
       <use x="159.033203" xlink:href="#DejaVuSans-53"/>
      </g>
     </g>
    </g>
    <g id="ytick_7">
     <g id="line2d_13">
      <g>
       <use style="stroke:#000000;stroke-width:0.8;" x="57.6" xlink:href="#m50185d869e" y="42.773351"/>
      </g>
     </g>
     <g id="text_14">
      <!-- 1.50 -->
      <g transform="translate(12.748438 49.232023)scale(0.17 -0.17)">
       <use xlink:href="#DejaVuSans-49"/>
       <use x="63.623047" xlink:href="#DejaVuSans-46"/>
       <use x="95.410156" xlink:href="#DejaVuSans-53"/>
       <use x="159.033203" xlink:href="#DejaVuSans-48"/>
      </g>
     </g>
    </g>
    <g id="text_15">
     <!-- Density -->
     <defs>
      <path d="M 19.671875 64.796875 
L 19.671875 8.109375 
L 31.59375 8.109375 
Q 46.6875 8.109375 53.6875 14.9375 
Q 60.6875 21.78125 60.6875 36.53125 
Q 60.6875 51.171875 53.6875 57.984375 
Q 46.6875 64.796875 31.59375 64.796875 
z
M 9.8125 72.90625 
L 30.078125 72.90625 
Q 51.265625 72.90625 61.171875 64.09375 
Q 71.09375 55.28125 71.09375 36.53125 
Q 71.09375 17.671875 61.125 8.828125 
Q 51.171875 0 30.078125 0 
L 9.8125 0 
z
" id="DejaVuSans-68"/>
      <path d="M 56.203125 29.59375 
L 56.203125 25.203125 
L 14.890625 25.203125 
Q 15.484375 15.921875 20.484375 11.0625 
Q 25.484375 6.203125 34.421875 6.203125 
Q 39.59375 6.203125 44.453125 7.46875 
Q 49.3125 8.734375 54.109375 11.28125 
L 54.109375 2.78125 
Q 49.265625 0.734375 44.1875 -0.34375 
Q 39.109375 -1.421875 33.890625 -1.421875 
Q 20.796875 -1.421875 13.15625 6.1875 
Q 5.515625 13.8125 5.515625 26.8125 
Q 5.515625 40.234375 12.765625 48.109375 
Q 20.015625 56 32.328125 56 
Q 43.359375 56 49.78125 48.890625 
Q 56.203125 41.796875 56.203125 29.59375 
z
M 47.21875 32.234375 
Q 47.125 39.59375 43.09375 43.984375 
Q 39.0625 48.390625 32.421875 48.390625 
Q 24.90625 48.390625 20.390625 44.140625 
Q 15.875 39.890625 15.1875 32.171875 
z
" id="DejaVuSans-101"/>
      <path d="M 32.171875 -5.078125 
Q 28.375 -14.84375 24.75 -17.8125 
Q 21.140625 -20.796875 15.09375 -20.796875 
L 7.90625 -20.796875 
L 7.90625 -13.28125 
L 13.1875 -13.28125 
Q 16.890625 -13.28125 18.9375 -11.515625 
Q 21 -9.765625 23.484375 -3.21875 
L 25.09375 0.875 
L 2.984375 54.6875 
L 12.5 54.6875 
L 29.59375 11.921875 
L 46.6875 54.6875 
L 56.203125 54.6875 
z
" id="DejaVuSans-121"/>
     </defs>
     <g transform="translate(2.509375 231.553781)rotate(-90)scale(0.3 -0.3)">
      <use xlink:href="#DejaVuSans-68"/>
      <use x="77.001953" xlink:href="#DejaVuSans-101"/>
      <use x="138.525391" xlink:href="#DejaVuSans-110"/>
      <use x="201.904297" xlink:href="#DejaVuSans-115"/>
      <use x="254.003906" xlink:href="#DejaVuSans-105"/>
      <use x="281.787109" xlink:href="#DejaVuSans-116"/>
      <use x="320.996094" xlink:href="#DejaVuSans-121"/>
     </g>
    </g>
   </g>
   <g id="line2d_14">
    <path clip-path="url(#pb3d4db3833)" d="M 100.588648 302.432306 
L 101.059171 301.955185 
L 101.506741 301.83569 
L 102.195311 301.897033 
L 102.596977 302.150844 
L 103.813451 303.170506 
L 104.134784 302.984031 
L 104.479069 302.503951 
L 104.869259 301.51581 
L 105.534876 299.81957 
L 105.775876 299.722782 
L 106.521827 299.741032 
L 107.279254 299.180591 
L 107.566158 299.337692 
L 107.921919 299.806611 
L 108.403918 300.867764 
L 108.966251 301.979335 
L 109.184298 302.034568 
L 109.35644 301.81651 
L 109.585964 301.094554 
L 109.953201 299.0381 
L 110.492581 296.268727 
L 110.687676 296.089568 
L 110.82539 296.285079 
L 111.077866 297.150634 
L 111.674626 299.230745 
L 111.892674 299.354025 
L 112.110721 299.174416 
L 112.581244 298.757634 
L 112.764862 298.909598 
L 113.017338 299.49285 
L 113.751813 301.353387 
L 113.923955 301.316412 
L 114.153479 300.961248 
L 114.865001 299.716084 
L 115.106001 299.729633 
L 115.415857 300.003249 
L 115.897856 300.767667 
L 116.529046 301.705277 
L 116.861854 301.821625 
L 117.274996 301.707238 
L 118.009471 301.207219 
L 118.88166 300.560616 
L 120.144038 299.040082 
L 120.855561 298.516543 
L 121.33756 298.216776 
L 121.658893 298.286315 
L 122.198273 298.692635 
L 122.599938 299.226084 
L 123.036033 300.260684 
L 123.529508 301.271567 
L 123.770508 301.357436 
L 124.057412 301.179361 
L 124.436125 301.009673 
L 124.711553 301.167489 
L 125.113219 301.372942 
L 125.308314 301.184026 
L 125.595218 300.510345 
L 126.088694 299.424889 
L 126.283788 299.411858 
L 126.513312 299.692698 
L 127.190406 300.622787 
L 128.039642 301.178022 
L 128.475737 302.033436 
L 129.382354 303.883198 
L 129.565973 303.852352 
L 129.772544 303.529857 
L 130.128305 302.448482 
L 130.610304 301.168014 
L 130.828351 301.060036 
L 131.023446 301.225495 
L 131.861206 302.192556 
L 132.102206 301.916935 
L 132.710443 301.144627 
L 133.008823 301.174398 
L 133.456394 301.205749 
L 133.812155 300.970589 
L 134.179392 300.456161 
L 135.877865 297.038937 
L 136.417245 295.564793 
L 136.577911 295.562442 
L 136.750054 295.859725 
L 137.071387 296.998519 
L 137.610766 298.771021 
L 137.84029 298.933955 
L 138.035385 298.776454 
L 138.723955 298.018832 
L 138.930526 298.225884 
L 139.446953 299.21613 
L 139.837143 299.694072 
L 140.05519 299.684203 
L 140.261761 299.417079 
L 140.560142 298.58207 
L 141.37495 295.298502 
L 142.717661 289.87369 
L 142.947185 289.847138 
L 143.19966 290.078402 
L 143.509517 290.694869 
L 143.899707 292.052459 
L 144.51942 294.153986 
L 144.703038 294.208028 
L 144.863705 293.95733 
L 145.150609 292.985247 
L 145.735894 291.052311 
L 145.965417 290.911573 
L 146.183464 291.07317 
L 147.044177 292.274395 
L 147.503223 293.107103 
L 148.031127 294.626917 
L 148.547555 295.913548 
L 148.74265 295.975949 
L 148.903316 295.761259 
L 149.144315 294.980321 
L 149.672219 292.213052 
L 150.005028 291.138437 
L 150.142742 291.122021 
L 150.154218 291.133249 
L 150.314885 291.483585 
L 150.601789 292.810517 
L 151.416597 296.793761 
L 151.749406 297.376319 
L 151.967453 297.410901 
L 152.151072 297.194035 
L 152.380595 296.511108 
L 152.690451 294.740215 
L 153.608545 288.914716 
L 153.826592 288.723432 
L 154.044639 288.848473 
L 154.974209 289.822489 
L 155.307018 290.943218 
L 155.766065 292.322357 
L 155.903779 292.28789 
L 156.052969 291.891678 
L 156.293968 290.473448 
L 156.79892 285.730954 
L 157.384204 281.076556 
L 157.797346 279.370436 
L 158.336726 278.15175 
L 158.876106 277.32411 
L 159.105629 277.28984 
L 159.300724 277.50941 
L 159.564676 278.218438 
L 160.54015 281.287263 
L 160.723769 281.198664 
L 160.976245 280.765397 
L 161.435292 279.44123 
L 161.825481 278.573992 
L 161.963195 278.622644 
L 162.123862 279.029687 
L 162.387814 280.451172 
L 163.019003 283.975981 
L 163.214098 284.150187 
L 163.374764 283.9743 
L 164.109239 282.881314 
L 164.304334 283.091869 
L 165.061761 284.135899 
L 165.245379 283.895768 
L 165.601141 282.942645 
L 166.117568 281.757387 
L 166.611043 280.758713 
L 167.035662 279.127404 
L 167.563565 277.349532 
L 167.793089 277.145519 
L 167.930803 277.284177 
L 168.114421 277.862019 
L 168.378373 279.588293 
L 169.457133 287.861814 
L 169.67518 288.012132 
L 169.870275 287.84937 
L 170.145703 287.278225 
L 170.581798 285.764598 
L 171.121178 284.100195 
L 171.465463 283.710273 
L 171.8327 283.292461 
L 172.165509 282.460267 
L 172.750793 281.020358 
L 173.003269 280.912234 
L 173.324602 280.819816 
L 173.496744 280.42479 
L 173.726268 279.21434 
L 174.150886 275.386061 
L 174.58698 272.29531 
L 174.82798 271.801071 
L 174.965694 271.864751 
L 175.160789 272.292291 
L 175.447693 273.54816 
L 175.849359 276.472505 
L 176.59531 281.891219 
L 176.974023 283.025028 
L 177.834736 284.619415 
L 177.995402 284.582984 
L 178.179021 284.238933 
L 178.477401 283.088476 
L 179.165971 280.391557 
L 179.464352 280.00869 
L 179.716828 280.002566 
L 179.992256 280.2472 
L 180.508683 281.107016 
L 180.864444 281.474481 
L 181.082492 281.420812 
L 181.323491 281.083323 
L 181.667776 280.146408 
L 182.276013 278.506496 
L 182.471108 278.482366 
L 183.010488 278.682947 
L 183.194106 278.224269 
L 183.492487 276.726212 
L 184.41058 271.733447 
L 184.835199 270.746705 
L 185.374578 270.085356 
L 185.78772 269.431979 
L 186.281196 268.67443 
L 186.430386 268.777914 
L 186.614005 269.267875 
L 186.912385 270.852773 
L 187.773098 275.768911 
L 188.037049 276.198036 
L 188.18624 276.128675 
L 188.358382 275.729925 
L 188.622334 274.439154 
L 189.540427 269.338438 
L 189.815856 269.120475 
L 190.045379 268.878229 
L 190.263426 268.252009 
L 190.64214 266.290032 
L 191.055282 264.580085 
L 191.215948 264.490125 
L 191.227424 264.498077 
L 191.376614 264.760635 
L 191.663519 265.84927 
L 192.225851 267.848808 
L 193.557086 270.411401 
L 193.740705 270.208608 
L 194.073514 269.398994 
L 194.555513 268.372016 
L 194.704703 268.403867 
L 194.86537 268.769209 
L 195.106369 270.025516 
L 195.829368 274.312914 
L 195.840844 274.310263 
L 195.932653 274.156004 
L 196.09332 273.327064 
L 196.403176 270.253378 
L 196.873699 266.107363 
L 197.045841 265.809447 
L 197.057318 265.815257 
L 197.172079 266.020765 
L 197.458984 267.192845 
L 197.76884 268.056223 
L 197.895078 268.001411 
L 198.055744 267.560694 
L 198.331172 266.026591 
L 198.985314 260.685727 
L 199.478789 257.65969 
L 199.868979 256.502535 
L 200.190312 256.099815 
L 200.408359 256.122089 
L 200.947739 256.337742 
L 201.131357 255.921743 
L 201.429738 254.52821 
L 201.911737 252.448388 
L 202.060927 252.375811 
L 202.072403 252.38454 
L 202.221593 252.671727 
L 202.508498 253.878504 
L 202.933116 255.425716 
L 203.047877 255.419916 
L 203.059354 255.405465 
L 203.208544 254.985537 
L 203.483972 253.309589 
L 203.897114 251.092775 
L 203.977447 251.057839 
L 204.011876 251.095954 
L 204.138113 251.499907 
L 204.402065 253.329745 
L 204.849636 256.087684 
L 205.021778 256.252052 
L 205.033255 256.246431 
L 205.193921 256.024363 
L 205.698872 255.248178 
L 206.398919 254.884539 
L 206.685823 254.149076 
L 207.064536 252.462021 
L 207.569488 250.369696 
L 207.695726 250.343618 
L 207.707202 250.355218 
L 207.856392 250.707447 
L 208.166248 252.228891 
L 208.544962 253.68999 
L 208.705628 253.756296 
L 208.717105 253.747985 
L 208.889247 253.455854 
L 209.830293 251.387604 
L 210.231959 251.307661 
L 211.012338 251.336281 
L 211.27629 251.73267 
L 211.804194 252.549582 
L 211.953384 252.420113 
L 212.159955 251.851802 
L 212.538669 249.970622 
L 214.615855 238.796817 
L 214.730617 238.883523 
L 214.902759 239.381916 
L 215.212616 241.128369 
L 216.853708 251.607913 
L 216.968469 251.570045 
L 217.11766 251.149764 
L 217.335707 249.742547 
L 217.65704 246.017046 
L 218.632514 233.643552 
L 218.827609 233.277051 
L 218.839085 233.280081 
L 218.965323 233.462108 
L 219.194846 234.313157 
L 219.803083 237.729878 
L 220.503129 241.171135 
L 220.962176 242.331022 
L 221.386794 242.941709 
L 221.535984 242.878732 
L 221.696651 242.489613 
L 221.93765 241.170875 
L 222.385221 237.097032 
L 222.981982 232.305533 
L 223.360695 230.826336 
L 223.624647 230.47946 
L 223.785313 230.552145 
L 223.980408 230.948378 
L 224.416503 232.552135 
L 224.668978 233.033492 
L 224.78374 232.93097 
L 224.944406 232.385952 
L 225.208358 230.548224 
L 225.828071 224.054899 
L 226.195309 221.556893 
L 226.31007 221.426689 
L 226.344499 221.462371 
L 226.470737 221.8957 
L 226.688784 223.668549 
L 227.365878 229.750392 
L 227.434735 229.644482 
L 227.572449 228.815127 
L 227.813448 225.672184 
L 228.490542 216.376117 
L 228.570875 216.234122 
L 228.61678 216.287034 
L 228.731542 216.843568 
L 228.938113 219.241129 
L 229.431588 228.614427 
L 229.798825 233.36981 
L 229.959492 233.850101 
L 229.982444 233.832775 
L 230.08573 233.499867 
L 230.280825 231.845064 
L 230.648062 226.288746 
L 231.267775 217.450752 
L 231.531727 216.263478 
L 231.692393 216.225726 
L 232.128488 216.476521 
L 232.139964 216.461828 
L 232.312106 216.035643 
L 232.644915 214.42246 
L 233.046581 212.854797 
L 233.195771 212.7953 
L 233.207247 212.804899 
L 233.356438 213.105109 
L 233.631866 214.322349 
L 234.251579 217.053784 
L 234.492578 217.303264 
L 234.687673 217.19969 
L 235.29591 216.695401 
L 235.307386 216.706364 
L 235.491005 217.063527 
L 235.858242 218.466209 
L 236.145146 219.164527 
L 236.259908 219.099978 
L 236.409098 218.641666 
L 236.638622 217.084031 
L 236.971431 213.091687 
L 237.476382 203.872653 
L 238.107571 193.159592 
L 238.382999 191.472175 
L 238.497761 191.376294 
L 238.532189 191.405671 
L 238.68138 191.777268 
L 239.27814 193.789876 
L 239.324045 193.75255 
L 239.450283 193.399911 
L 239.66833 191.987811 
L 240.184758 188.522987 
L 240.265091 188.617251 
L 240.391329 189.30774 
L 240.620852 192.067431 
L 241.28647 200.659206 
L 241.43566 200.958404 
L 241.458612 200.944846 
L 241.573374 200.673053 
L 241.802897 199.365125 
L 242.250468 195.302991 
L 242.537372 190.797588 
L 242.778372 182.862377 
L 243.030847 166.141621 
L 243.363656 126.751518 
L 243.960417 56.001241 
L 244.052226 54.144 
L 244.098131 54.561931 
L 244.201417 58.723076 
L 244.407988 78.529496 
L 245.337557 182.384332 
L 245.716271 194.822207 
L 246.49665 211.728768 
L 246.668793 212.687326 
L 246.691745 212.673746 
L 246.772078 212.354524 
L 246.932745 210.489465 
L 247.231125 203.77091 
L 247.736076 193.184488 
L 247.896743 192.468655 
L 247.919695 192.493275 
L 248.022981 192.958789 
L 248.229552 195.240068 
L 249.675549 217.184338 
L 250.134596 224.010488 
L 250.352643 224.903946 
L 250.444452 224.821463 
L 250.605118 224.182356 
L 250.995308 221.376954 
L 251.660926 215.28455 
L 252.670829 203.473114 
L 252.716733 203.508898 
L 252.831495 203.922223 
L 253.061018 205.844412 
L 253.784017 212.37748 
L 254.059445 212.998766 
L 254.40373 213.529572 
L 254.610301 214.471914 
L 254.885729 216.93905 
L 255.402157 224.177819 
L 255.861203 229.159874 
L 256.113679 230.02905 
L 256.228441 229.971439 
L 256.377631 229.503513 
L 256.618631 227.855872 
L 257.020296 223.181911 
L 257.467867 218.813757 
L 257.605581 218.54161 
L 257.64001 218.570501 
L 257.754771 218.927974 
L 257.984295 220.569259 
L 258.546627 224.594802 
L 258.661388 224.703428 
L 258.695817 224.677898 
L 258.833531 224.343523 
L 259.46472 222.079296 
L 259.533577 222.139616 
L 259.694244 222.585543 
L 260.291004 224.592483 
L 260.313957 224.579956 
L 260.440195 224.345821 
L 260.715623 223.190255 
L 261.014003 222.290667 
L 261.117288 222.372569 
L 261.266479 222.948715 
L 261.530431 225.083784 
L 262.379667 232.475628 
L 262.769857 234.02261 
L 263.033809 234.347691 
L 263.423998 234.573428 
L 263.596141 235.175096 
L 263.83714 236.969845 
L 264.674901 244.119183 
L 264.76671 244.017992 
L 264.927376 243.318156 
L 265.260185 240.538421 
L 265.707756 237.329015 
L 265.84547 237.126643 
L 265.879898 237.153667 
L 265.99466 237.471431 
L 266.201231 238.847461 
L 267.084896 245.715667 
L 267.188181 245.665688 
L 267.337372 245.227101 
L 267.624276 243.519218 
L 268.15218 240.546211 
L 268.278417 240.453504 
L 268.30137 240.471937 
L 268.427608 240.760221 
L 268.668607 242.00911 
L 269.230939 244.934008 
L 269.368653 245.015654 
L 269.391606 244.998704 
L 269.540796 244.698822 
L 269.896557 243.253959 
L 270.160509 242.654606 
L 270.252318 242.770501 
L 270.401509 243.445579 
L 270.642508 245.843941 
L 271.44584 254.934167 
L 271.514697 254.949871 
L 271.549125 254.896773 
L 271.686839 254.311611 
L 271.950791 251.952458 
L 272.536076 246.801652 
L 272.627885 246.686605 
L 272.67379 246.73855 
L 272.800028 247.272905 
L 273.018075 249.481422 
L 274.016502 261.517139 
L 274.108311 261.456589 
L 274.257501 260.934288 
L 274.555881 258.842127 
L 275.496927 251.750361 
L 275.714974 251.421263 
L 275.841212 251.544885 
L 276.059259 252.186075 
L 276.874067 254.92825 
L 277.04621 254.90752 
L 277.275733 254.582599 
L 278.905349 251.561163 
L 278.96273 251.615246 
L 279.123396 252.01095 
L 279.364396 253.313051 
L 279.80049 257.223083 
L 280.33987 261.44461 
L 280.58087 261.984251 
L 280.695631 261.889371 
L 280.87925 261.333196 
L 281.26944 259.211607 
L 281.797344 256.738908 
L 282.176057 255.950606 
L 282.967913 254.992538 
L 283.105627 255.148024 
L 283.289245 255.775869 
L 283.57615 257.744406 
L 284.287672 262.880113 
L 284.494243 263.161934 
L 284.643433 263.036288 
L 284.976242 262.313583 
L 285.354956 261.713048 
L 285.561527 261.70612 
L 285.745145 261.959209 
L 285.963193 262.699195 
L 286.250097 264.580293 
L 287.145238 271.16493 
L 287.340333 271.313364 
L 287.500999 271.126321 
L 287.764951 270.407889 
L 288.201045 268.456887 
L 288.648616 266.757136 
L 288.809282 266.681938 
L 288.820758 266.690836 
L 288.969949 266.976725 
L 289.222424 268.073155 
L 290.071661 272.179872 
L 290.174946 272.12192 
L 290.31266 271.687759 
L 290.530708 270.131694 
L 290.94385 265.142418 
L 291.425849 260.284678 
L 291.666848 259.570669 
L 291.78161 259.624088 
L 291.965229 260.070549 
L 292.516085 261.526781 
L 292.642322 261.444652 
L 292.825941 260.947275 
L 293.193179 259.082308 
L 293.640749 257.217745 
L 293.858796 257.026049 
L 294.019463 257.186075 
L 294.294891 257.874725 
L 294.799842 259.853191 
L 295.557269 263.925032 
L 295.924507 265.167908 
L 296.165506 265.369629 
L 296.406506 265.25685 
L 296.99179 264.923417 
L 297.175409 265.109965 
L 297.393456 265.732413 
L 297.749217 267.610082 
L 298.162359 269.416631 
L 298.345978 269.536552 
L 298.506644 269.319761 
L 299.355881 267.826618 
L 299.562452 267.885853 
L 299.746071 268.210809 
L 299.975594 269.144029 
L 300.400212 272.105926 
L 300.801878 274.190824 
L 301.088782 274.644989 
L 301.318306 275.0461 
L 301.547829 276.019917 
L 302.259351 279.725318 
L 302.29378 279.706771 
L 302.408542 279.431976 
L 302.615113 278.193211 
L 303.441397 272.448601 
L 303.567635 272.463294 
L 303.739777 272.851736 
L 304.520157 275.001362 
L 304.680823 274.903138 
L 304.933299 274.406397 
L 305.621869 272.957319 
L 305.885821 272.891356 
L 306.631771 273.110123 
L 306.826866 273.467398 
L 307.05639 274.436636 
L 307.400675 277.075325 
L 308.020388 281.755594 
L 308.19253 282.004005 
L 308.204007 281.997706 
L 308.318768 281.781123 
L 308.525339 280.771255 
L 309.351623 276.073998 
L 309.454909 276.188933 
L 309.627051 276.861986 
L 309.936908 279.208312 
L 310.545145 283.683809 
L 310.786144 284.167057 
L 310.935335 284.109117 
L 311.245191 283.608655 
L 311.509143 283.374739 
L 311.658333 283.494357 
L 311.87638 284.043499 
L 312.323951 286.000869 
L 312.771521 287.519901 
L 313.001045 287.708832 
L 313.150235 287.558049 
L 313.368282 286.927158 
L 313.758472 284.907758 
L 314.194566 283.063813 
L 314.389661 282.910176 
L 314.538851 283.08606 
L 314.814279 283.865157 
L 315.996325 287.634721 
L 316.145515 287.553518 
L 316.352086 287.073379 
L 317.407893 284.039462 
L 317.993178 283.20554 
L 318.314511 282.189546 
L 319.140795 279.208431 
L 319.152271 279.213241 
L 319.278509 279.421025 
L 319.473604 280.291747 
L 319.863793 283.338165 
L 320.311364 286.207106 
L 320.529411 286.569653 
L 320.655649 286.457292 
L 320.873696 285.864428 
L 321.458981 284.210911 
L 321.608171 284.23778 
L 321.79179 284.584393 
L 322.113122 285.785305 
L 322.77874 288.260559 
L 322.973835 288.366738 
L 323.134501 288.155952 
L 323.421406 287.297804 
L 324.810022 282.683503 
L 324.959212 282.667122 
L 325.108402 282.986408 
L 325.337926 284.132354 
L 325.900258 288.554281 
L 326.3134 290.770433 
L 326.565876 291.198185 
L 326.772447 291.17227 
L 327.128208 291.101353 
L 327.30035 291.37497 
L 327.552826 292.300476 
L 328.252872 295.121411 
L 328.37911 295.080479 
L 328.551253 294.680711 
L 329.320156 292.350391 
L 329.354584 292.36835 
L 329.515251 292.636392 
L 329.790679 293.643109 
L 330.938296 298.339811 
L 331.156343 298.429415 
L 331.362914 298.229766 
L 332.281007 297.06543 
L 332.889244 296.889 
L 333.267958 296.309735 
L 333.635195 295.920351 
L 333.910623 295.956716 
L 334.22048 295.956185 
L 334.427051 295.68647 
L 334.817241 294.669298 
L 335.115621 294.1906 
L 335.253335 294.283624 
L 335.436954 294.787544 
L 335.758286 296.501297 
L 336.355047 299.547478 
L 336.58457 299.834811 
L 336.733761 299.731528 
L 336.986236 299.198197 
L 337.525616 298.073016 
L 337.686283 298.106576 
L 337.881377 298.440131 
L 338.673233 300.100778 
L 338.868328 299.931699 
L 339.52247 299.206509 
L 339.729041 299.366219 
L 340.038897 299.947639 
L 341.324228 302.718682 
L 342.150512 303.340865 
L 342.942368 304.401281 
L 343.240748 304.370003 
L 344.032604 304.19332 
L 345.340887 304.234145 
L 345.604839 304.181176 
L 345.822886 303.876209 
L 346.132742 302.99032 
L 346.79836 301.039957 
L 347.004931 300.973632 
L 347.200026 301.18965 
L 347.567263 302.035218 
L 348.244357 303.504089 
L 348.56569 303.749911 
L 348.80669 303.679096 
L 349.082118 303.334482 
L 349.506736 302.378689 
L 350.126449 301.062583 
L 350.33302 301.022146 
L 350.539591 301.242619 
L 351.285542 302.250644 
L 351.457684 302.015204 
L 351.71016 301.20928 
L 352.593825 297.990457 
L 352.743015 298.046795 
L 352.949586 298.445482 
L 353.821775 300.431783 
L 354.590678 300.961683 
L 355.049725 301.13689 
L 355.371058 301.026918 
L 355.69239 300.660934 
L 356.507198 299.497214 
L 356.530151 299.514364 
L 356.702293 299.809666 
L 356.977721 300.820101 
L 357.70072 303.58883 
L 357.987624 303.887616 
L 358.2401 303.852334 
L 358.584385 303.534326 
L 359.433621 302.663234 
L 359.674621 302.747137 
L 359.961525 303.117198 
L 361.063237 304.811172 
L 361.809188 305.420961 
L 362.360044 305.846078 
L 362.669901 305.805652 
L 364.310993 304.904222 
L 364.701183 304.702634 
L 364.930706 304.844298 
L 365.274991 305.39949 
L 365.676657 305.909818 
L 365.871752 305.859583 
L 366.112751 305.49662 
L 366.98494 303.924016 
L 367.191511 304.000373 
L 367.466939 304.391446 
L 368.637508 306.387691 
L 368.855555 306.216837 
L 369.176888 305.615963 
L 370.531076 302.677995 
L 370.795028 302.728134 
L 371.162265 303.059519 
L 371.575407 303.739804 
L 372.929595 306.336424 
L 373.285356 306.373045 
L 373.973926 306.406663 
L 374.375592 306.366509 
L 374.719877 306.077073 
L 375.901923 304.866709 
L 376.65935 304.599116 
L 377.520062 303.833801 
L 377.73811 304.150331 
L 378.105347 305.187295 
L 378.770965 306.978675 
L 379.149678 307.405772 
L 379.56282 307.536981 
L 380.056296 307.461041 
L 380.515342 307.163726 
L 381.341626 306.573358 
L 381.651483 306.666213 
L 382.190863 307.140452 
L 382.741719 307.487484 
L 383.349956 307.577142 
L 384.497573 307.50571 
L 385.025476 307.244272 
L 385.966522 306.716541 
L 386.379664 306.778754 
L 386.941996 307.128462 
L 387.446948 307.340416 
L 387.481376 307.340461 
L 387.481376 307.340461 
" style="fill:none;stroke:#ff7f0e;stroke-linecap:square;stroke-width:1.5;"/>
   </g>
   <g id="patch_103">
    <path d="M 57.6 307.584 
L 57.6 41.472 
" style="fill:none;stroke:#000000;stroke-linecap:square;stroke-linejoin:miter;stroke-width:0.8;"/>
   </g>
   <g id="patch_104">
    <path d="M 414.72 307.584 
L 414.72 41.472 
" style="fill:none;stroke:#000000;stroke-linecap:square;stroke-linejoin:miter;stroke-width:0.8;"/>
   </g>
   <g id="patch_105">
    <path d="M 57.6 307.584 
L 414.72 307.584 
" style="fill:none;stroke:#000000;stroke-linecap:square;stroke-linejoin:miter;stroke-width:0.8;"/>
   </g>
   <g id="patch_106">
    <path d="M 57.6 41.472 
L 414.72 41.472 
" style="fill:none;stroke:#000000;stroke-linecap:square;stroke-linejoin:miter;stroke-width:0.8;"/>
   </g>
  </g>
 </g>
 <defs>
  <clipPath id="pb3d4db3833">
   <rect height="266.112" width="357.12" x="57.6" y="41.472"/>
  </clipPath>
 </defs>
</svg>
