<?xml version="1.0" encoding="utf-8" standalone="no"?>
<!DOCTYPE svg PUBLIC "-//W3C//DTD SVG 1.1//EN"
  "http://www.w3.org/Graphics/SVG/1.1/DTD/svg11.dtd">
<!-- Created with matplotlib (https://matplotlib.org/) -->
<svg height="345.6pt" version="1.1" viewBox="0 0 460.8 345.6" width="460.8pt" xmlns="http://www.w3.org/2000/svg" xmlns:xlink="http://www.w3.org/1999/xlink">
 <defs>
  <style type="text/css">
*{stroke-linecap:butt;stroke-linejoin:round;}
  </style>
 </defs>
 <g id="figure_1">
  <g id="patch_1">
   <path d="M 0 345.6 
L 460.8 345.6 
L 460.8 0 
L 0 0 
z
" style="fill:#ffffff;"/>
  </g>
  <g id="axes_1">
   <g id="patch_2">
    <path d="M 57.6 307.584 
L 414.72 307.584 
L 414.72 41.472 
L 57.6 41.472 
z
" style="fill:#ffffff;"/>
   </g>
   <g id="patch_3">
    <path clip-path="url(#p42313bac32)" d="M 73.832727 307.584 
L 77.079271 307.584 
L 77.079271 307.16092 
L 73.832727 307.16092 
z
" style="fill:#1f77b4;"/>
   </g>
   <g id="patch_4">
    <path clip-path="url(#p42313bac32)" d="M 77.079257 307.584 
L 80.3258 307.584 
L 80.3258 307.16092 
L 77.079257 307.16092 
z
" style="fill:#1f77b4;"/>
   </g>
   <g id="patch_5">
    <path clip-path="url(#p42313bac32)" d="M 80.325814 307.584 
L 83.572357 307.584 
L 83.572357 306.94938 
L 80.325814 306.94938 
z
" style="fill:#1f77b4;"/>
   </g>
   <g id="patch_6">
    <path clip-path="url(#p42313bac32)" d="M 83.572344 307.584 
L 86.818901 307.584 
L 86.818901 307.160921 
L 83.572344 307.160921 
z
" style="fill:#1f77b4;"/>
   </g>
   <g id="patch_7">
    <path clip-path="url(#p42313bac32)" d="M 86.818901 307.584 
L 90.065444 307.584 
L 90.065444 306.94938 
L 86.818901 306.94938 
z
" style="fill:#1f77b4;"/>
   </g>
   <g id="patch_8">
    <path clip-path="url(#p42313bac32)" d="M 90.065458 307.584 
L 93.312001 307.584 
L 93.312001 306.314759 
L 90.065458 306.314759 
z
" style="fill:#1f77b4;"/>
   </g>
   <g id="patch_9">
    <path clip-path="url(#p42313bac32)" d="M 93.311988 307.584 
L 96.558531 307.584 
L 96.558531 306.526299 
L 93.311988 306.526299 
z
" style="fill:#1f77b4;"/>
   </g>
   <g id="patch_10">
    <path clip-path="url(#p42313bac32)" d="M 96.558545 307.584 
L 99.805088 307.584 
L 99.805088 303.353197 
L 96.558545 303.353197 
z
" style="fill:#1f77b4;"/>
   </g>
   <g id="patch_11">
    <path clip-path="url(#p42313bac32)" d="M 99.805074 307.584 
L 103.051618 307.584 
L 103.051618 303.141657 
L 99.805074 303.141657 
z
" style="fill:#1f77b4;"/>
   </g>
   <g id="patch_12">
    <path clip-path="url(#p42313bac32)" d="M 103.051618 307.584 
L 106.298175 307.584 
L 106.298175 302.507058 
L 103.051618 302.507058 
z
" style="fill:#1f77b4;"/>
   </g>
   <g id="patch_13">
    <path clip-path="url(#p42313bac32)" d="M 106.298189 307.584 
L 109.544732 307.584 
L 109.544732 301.660876 
L 106.298189 301.660876 
z
" style="fill:#1f77b4;"/>
   </g>
   <g id="patch_14">
    <path clip-path="url(#p42313bac32)" d="M 109.544718 307.584 
L 112.791262 307.584 
L 112.791262 299.757015 
L 109.544718 299.757015 
z
" style="fill:#1f77b4;"/>
   </g>
   <g id="patch_15">
    <path clip-path="url(#p42313bac32)" d="M 112.791275 307.584 
L 116.037819 307.584 
L 116.037819 301.026255 
L 112.791275 301.026255 
z
" style="fill:#1f77b4;"/>
   </g>
   <g id="patch_16">
    <path clip-path="url(#p42313bac32)" d="M 116.037805 307.584 
L 119.284349 307.584 
L 119.284349 302.295496 
L 116.037805 302.295496 
z
" style="fill:#1f77b4;"/>
   </g>
   <g id="patch_17">
    <path clip-path="url(#p42313bac32)" d="M 119.284362 307.584 
L 122.530906 307.584 
L 122.530906 300.391635 
L 119.284362 300.391635 
z
" style="fill:#1f77b4;"/>
   </g>
   <g id="patch_18">
    <path clip-path="url(#p42313bac32)" d="M 122.530892 307.584 
L 125.777449 307.584 
L 125.777449 302.083979 
L 122.530892 302.083979 
z
" style="fill:#1f77b4;"/>
   </g>
   <g id="patch_19">
    <path clip-path="url(#p42313bac32)" d="M 125.777449 307.584 
L 129.023992 307.584 
L 129.023992 301.449336 
L 125.777449 301.449336 
z
" style="fill:#1f77b4;"/>
   </g>
   <g id="patch_20">
    <path clip-path="url(#p42313bac32)" d="M 129.023992 307.584 
L 132.270536 307.584 
L 132.270536 303.564737 
L 129.023992 303.564737 
z
" style="fill:#1f77b4;"/>
   </g>
   <g id="patch_21">
    <path clip-path="url(#p42313bac32)" d="M 132.270536 307.584 
L 135.517079 307.584 
L 135.517079 301.026255 
L 132.270536 301.026255 
z
" style="fill:#1f77b4;"/>
   </g>
   <g id="patch_22">
    <path clip-path="url(#p42313bac32)" d="M 135.517079 307.584 
L 138.763623 307.584 
L 138.763623 299.122394 
L 135.517079 299.122394 
z
" style="fill:#1f77b4;"/>
   </g>
   <g id="patch_23">
    <path clip-path="url(#p42313bac32)" d="M 138.763623 307.584 
L 142.010173 307.584 
L 142.010173 299.545491 
L 138.763623 299.545491 
z
" style="fill:#1f77b4;"/>
   </g>
   <g id="patch_24">
    <path clip-path="url(#p42313bac32)" d="M 142.010173 307.584 
L 145.256716 307.584 
L 145.256716 293.83389 
L 142.010173 293.83389 
z
" style="fill:#1f77b4;"/>
   </g>
   <g id="patch_25">
    <path clip-path="url(#p42313bac32)" d="M 145.256716 307.584 
L 148.50326 307.584 
L 148.50326 293.83389 
L 145.256716 293.83389 
z
" style="fill:#1f77b4;"/>
   </g>
   <g id="patch_26">
    <path clip-path="url(#p42313bac32)" d="M 148.503253 307.584 
L 151.749803 307.584 
L 151.749803 296.160856 
L 148.503253 296.160856 
z
" style="fill:#1f77b4;"/>
   </g>
   <g id="patch_27">
    <path clip-path="url(#p42313bac32)" d="M 151.74981 307.584 
L 154.996353 307.584 
L 154.996353 292.77619 
L 151.74981 292.77619 
z
" style="fill:#1f77b4;"/>
   </g>
   <g id="patch_28">
    <path clip-path="url(#p42313bac32)" d="M 154.996353 307.584 
L 158.242897 307.584 
L 158.242897 288.122307 
L 154.996353 288.122307 
z
" style="fill:#1f77b4;"/>
   </g>
   <g id="patch_29">
    <path clip-path="url(#p42313bac32)" d="M 158.242897 307.584 
L 161.489447 307.584 
L 161.489447 279.660759 
L 158.242897 279.660759 
z
" style="fill:#1f77b4;"/>
   </g>
   <g id="patch_30">
    <path clip-path="url(#p42313bac32)" d="M 161.489447 307.584 
L 164.73599 307.584 
L 164.73599 278.39146 
L 161.489447 278.39146 
z
" style="fill:#1f77b4;"/>
   </g>
   <g id="patch_31">
    <path clip-path="url(#p42313bac32)" d="M 164.73599 307.584 
L 167.982534 307.584 
L 167.982534 280.506861 
L 164.73599 280.506861 
z
" style="fill:#1f77b4;"/>
   </g>
   <g id="patch_32">
    <path clip-path="url(#p42313bac32)" d="M 167.982527 307.584 
L 171.229077 307.584 
L 171.229077 285.160792 
L 167.982527 285.160792 
z
" style="fill:#1f77b4;"/>
   </g>
   <g id="patch_33">
    <path clip-path="url(#p42313bac32)" d="M 171.229084 307.584 
L 174.475627 307.584 
L 174.475627 281.776102 
L 171.229084 281.776102 
z
" style="fill:#1f77b4;"/>
   </g>
   <g id="patch_34">
    <path clip-path="url(#p42313bac32)" d="M 174.475627 307.584 
L 177.722171 307.584 
L 177.722171 279.23762 
L 174.475627 279.23762 
z
" style="fill:#1f77b4;"/>
   </g>
   <g id="patch_35">
    <path clip-path="url(#p42313bac32)" d="M 177.722171 307.584 
L 180.968721 307.584 
L 180.968721 284.949252 
L 177.722171 284.949252 
z
" style="fill:#1f77b4;"/>
   </g>
   <g id="patch_36">
    <path clip-path="url(#p42313bac32)" d="M 180.968721 307.584 
L 184.215265 307.584 
L 184.215265 278.603 
L 180.968721 278.603 
z
" style="fill:#1f77b4;"/>
   </g>
   <g id="patch_37">
    <path clip-path="url(#p42313bac32)" d="M 184.215265 307.584 
L 187.461808 307.584 
L 187.461808 269.929854 
L 184.215265 269.929854 
z
" style="fill:#1f77b4;"/>
   </g>
   <g id="patch_38">
    <path clip-path="url(#p42313bac32)" d="M 187.461808 307.584 
L 190.708355 307.584 
L 190.708355 273.526072 
L 187.461808 273.526072 
z
" style="fill:#1f77b4;"/>
   </g>
   <g id="patch_39">
    <path clip-path="url(#p42313bac32)" d="M 190.708358 307.584 
L 193.954905 307.584 
L 193.954905 269.718354 
L 190.708358 269.718354 
z
" style="fill:#1f77b4;"/>
   </g>
   <g id="patch_40">
    <path clip-path="url(#p42313bac32)" d="M 193.954902 307.584 
L 197.201445 307.584 
L 197.201445 269.295233 
L 193.954902 269.295233 
z
" style="fill:#1f77b4;"/>
   </g>
   <g id="patch_41">
    <path clip-path="url(#p42313bac32)" d="M 197.201445 307.584 
L 200.447992 307.584 
L 200.447992 266.545255 
L 197.201445 266.545255 
z
" style="fill:#1f77b4;"/>
   </g>
   <g id="patch_42">
    <path clip-path="url(#p42313bac32)" d="M 200.447995 307.584 
L 203.694542 307.584 
L 203.694542 257.449038 
L 200.447995 257.449038 
z
" style="fill:#1f77b4;"/>
   </g>
   <g id="patch_43">
    <path clip-path="url(#p42313bac32)" d="M 203.694539 307.584 
L 206.941082 307.584 
L 206.941082 253.006642 
L 203.694539 253.006642 
z
" style="fill:#1f77b4;"/>
   </g>
   <g id="patch_44">
    <path clip-path="url(#p42313bac32)" d="M 206.941082 307.584 
L 210.187629 307.584 
L 210.187629 251.10284 
L 206.941082 251.10284 
z
" style="fill:#1f77b4;"/>
   </g>
   <g id="patch_45">
    <path clip-path="url(#p42313bac32)" d="M 210.187632 307.584 
L 213.434179 307.584 
L 213.434179 251.52592 
L 210.187632 251.52592 
z
" style="fill:#1f77b4;"/>
   </g>
   <g id="patch_46">
    <path clip-path="url(#p42313bac32)" d="M 213.434176 307.584 
L 216.680719 307.584 
L 216.680719 245.391197 
L 213.434176 245.391197 
z
" style="fill:#1f77b4;"/>
   </g>
   <g id="patch_47">
    <path clip-path="url(#p42313bac32)" d="M 216.680719 307.584 
L 219.927266 307.584 
L 219.927266 236.295046 
L 216.680719 236.295046 
z
" style="fill:#1f77b4;"/>
   </g>
   <g id="patch_48">
    <path clip-path="url(#p42313bac32)" d="M 219.927266 307.584 
L 223.173811 307.584 
L 223.173811 235.871928 
L 219.927266 235.871928 
z
" style="fill:#1f77b4;"/>
   </g>
   <g id="patch_49">
    <path clip-path="url(#p42313bac32)" d="M 223.173813 307.584 
L 226.420358 307.584 
L 226.420358 228.679567 
L 223.173813 228.679567 
z
" style="fill:#1f77b4;"/>
   </g>
   <g id="patch_50">
    <path clip-path="url(#p42313bac32)" d="M 226.420356 307.584 
L 229.666901 307.584 
L 229.666901 221.064126 
L 226.420356 221.064126 
z
" style="fill:#1f77b4;"/>
   </g>
   <g id="patch_51">
    <path clip-path="url(#p42313bac32)" d="M 229.666901 307.584 
L 232.913447 307.584 
L 232.913447 220.429529 
L 229.666901 220.429529 
z
" style="fill:#1f77b4;"/>
   </g>
   <g id="patch_52">
    <path clip-path="url(#p42313bac32)" d="M 232.913446 307.584 
L 236.159992 307.584 
L 236.159992 213.660249 
L 232.913446 213.660249 
z
" style="fill:#1f77b4;"/>
   </g>
   <g id="patch_53">
    <path clip-path="url(#p42313bac32)" d="M 236.159993 307.584 
L 239.406539 307.584 
L 239.406539 200.756296 
L 236.159993 200.756296 
z
" style="fill:#1f77b4;"/>
   </g>
   <g id="patch_54">
    <path clip-path="url(#p42313bac32)" d="M 239.406539 307.584 
L 242.653084 307.584 
L 242.653084 194.621636 
L 239.406539 194.621636 
z
" style="fill:#1f77b4;"/>
   </g>
   <g id="patch_55">
    <path clip-path="url(#p42313bac32)" d="M 242.653084 307.584 
L 245.89963 307.584 
L 245.89963 131.582714 
L 242.653084 131.582714 
z
" style="fill:#1f77b4;"/>
   </g>
   <g id="patch_56">
    <path clip-path="url(#p42313bac32)" d="M 245.89963 307.584 
L 249.146175 307.584 
L 249.146175 205.62171 
L 245.89963 205.62171 
z
" style="fill:#1f77b4;"/>
   </g>
   <g id="patch_57">
    <path clip-path="url(#p42313bac32)" d="M 249.146175 307.584 
L 252.392721 307.584 
L 252.392721 218.948749 
L 249.146175 218.948749 
z
" style="fill:#1f77b4;"/>
   </g>
   <g id="patch_58">
    <path clip-path="url(#p42313bac32)" d="M 252.392721 307.584 
L 255.639266 307.584 
L 255.639266 211.544824 
L 252.392721 211.544824 
z
" style="fill:#1f77b4;"/>
   </g>
   <g id="patch_59">
    <path clip-path="url(#p42313bac32)" d="M 255.639266 307.584 
L 258.885811 307.584 
L 258.885811 222.756468 
L 255.639266 222.756468 
z
" style="fill:#1f77b4;"/>
   </g>
   <g id="patch_60">
    <path clip-path="url(#p42313bac32)" d="M 258.885814 307.584 
L 262.132359 307.584 
L 262.132359 219.794885 
L 258.885814 219.794885 
z
" style="fill:#1f77b4;"/>
   </g>
   <g id="patch_61">
    <path clip-path="url(#p42313bac32)" d="M 262.132357 307.584 
L 265.378904 307.584 
L 265.378904 235.448886 
L 262.132357 235.448886 
z
" style="fill:#1f77b4;"/>
   </g>
   <g id="patch_62">
    <path clip-path="url(#p42313bac32)" d="M 265.378904 307.584 
L 268.625449 307.584 
L 268.625449 236.295008 
L 265.378904 236.295008 
z
" style="fill:#1f77b4;"/>
   </g>
   <g id="patch_63">
    <path clip-path="url(#p42313bac32)" d="M 268.625451 307.584 
L 271.871996 307.584 
L 271.871996 238.621949 
L 268.625451 238.621949 
z
" style="fill:#1f77b4;"/>
   </g>
   <g id="patch_64">
    <path clip-path="url(#p42313bac32)" d="M 271.871996 307.584 
L 275.118541 307.584 
L 275.118541 244.333563 
L 271.871996 244.333563 
z
" style="fill:#1f77b4;"/>
   </g>
   <g id="patch_65">
    <path clip-path="url(#p42313bac32)" d="M 275.118541 307.584 
L 278.365085 307.584 
L 278.365085 251.525861 
L 275.118541 251.525861 
z
" style="fill:#1f77b4;"/>
   </g>
   <g id="patch_66">
    <path clip-path="url(#p42313bac32)" d="M 278.365085 307.584 
L 281.611632 307.584 
L 281.611632 251.52592 
L 278.365085 251.52592 
z
" style="fill:#1f77b4;"/>
   </g>
   <g id="patch_67">
    <path clip-path="url(#p42313bac32)" d="M 281.611635 307.584 
L 284.858182 307.584 
L 284.858182 259.352897 
L 281.611635 259.352897 
z
" style="fill:#1f77b4;"/>
   </g>
   <g id="patch_68">
    <path clip-path="url(#p42313bac32)" d="M 284.858178 307.584 
L 288.104722 307.584 
L 288.104722 265.275971 
L 284.858178 265.275971 
z
" style="fill:#1f77b4;"/>
   </g>
   <g id="patch_69">
    <path clip-path="url(#p42313bac32)" d="M 288.104722 307.584 
L 291.351269 307.584 
L 291.351269 268.449114 
L 288.104722 268.449114 
z
" style="fill:#1f77b4;"/>
   </g>
   <g id="patch_70">
    <path clip-path="url(#p42313bac32)" d="M 291.351272 307.584 
L 294.597819 307.584 
L 294.597819 258.295198 
L 291.351272 258.295198 
z
" style="fill:#1f77b4;"/>
   </g>
   <g id="patch_71">
    <path clip-path="url(#p42313bac32)" d="M 294.597815 307.584 
L 297.844359 307.584 
L 297.844359 263.58365 
L 294.597815 263.58365 
z
" style="fill:#1f77b4;"/>
   </g>
   <g id="patch_72">
    <path clip-path="url(#p42313bac32)" d="M 297.844359 307.584 
L 301.090906 307.584 
L 301.090906 272.045293 
L 297.844359 272.045293 
z
" style="fill:#1f77b4;"/>
   </g>
   <g id="patch_73">
    <path clip-path="url(#p42313bac32)" d="M 301.090909 307.584 
L 304.337459 307.584 
L 304.337459 274.160692 
L 301.090909 274.160692 
z
" style="fill:#1f77b4;"/>
   </g>
   <g id="patch_74">
    <path clip-path="url(#p42313bac32)" d="M 304.337452 307.584 
L 307.583996 307.584 
L 307.583996 271.622175 
L 304.337452 271.622175 
z
" style="fill:#1f77b4;"/>
   </g>
   <g id="patch_75">
    <path clip-path="url(#p42313bac32)" d="M 307.583996 307.584 
L 310.830539 307.584 
L 310.830539 280.295321 
L 307.583996 280.295321 
z
" style="fill:#1f77b4;"/>
   </g>
   <g id="patch_76">
    <path clip-path="url(#p42313bac32)" d="M 310.830532 307.584 
L 314.077083 307.584 
L 314.077083 284.103093 
L 310.830532 284.103093 
z
" style="fill:#1f77b4;"/>
   </g>
   <g id="patch_77">
    <path clip-path="url(#p42313bac32)" d="M 314.07709 307.584 
L 317.323633 307.584 
L 317.323633 284.103044 
L 314.07709 284.103044 
z
" style="fill:#1f77b4;"/>
   </g>
   <g id="patch_78">
    <path clip-path="url(#p42313bac32)" d="M 317.323633 307.584 
L 320.570176 307.584 
L 320.570176 283.468423 
L 317.323633 283.468423 
z
" style="fill:#1f77b4;"/>
   </g>
   <g id="patch_79">
    <path clip-path="url(#p42313bac32)" d="M 320.570176 307.584 
L 323.816727 307.584 
L 323.816727 283.256934 
L 320.570176 283.256934 
z
" style="fill:#1f77b4;"/>
   </g>
   <g id="patch_80">
    <path clip-path="url(#p42313bac32)" d="M 323.816727 307.584 
L 327.06327 307.584 
L 327.06327 285.795365 
L 323.816727 285.795365 
z
" style="fill:#1f77b4;"/>
   </g>
   <g id="patch_81">
    <path clip-path="url(#p42313bac32)" d="M 327.06327 307.584 
L 330.309813 307.584 
L 330.309813 290.449248 
L 327.06327 290.449248 
z
" style="fill:#1f77b4;"/>
   </g>
   <g id="patch_82">
    <path clip-path="url(#p42313bac32)" d="M 330.309807 307.584 
L 333.556357 307.584 
L 333.556357 295.526237 
L 330.309807 295.526237 
z
" style="fill:#1f77b4;"/>
   </g>
   <g id="patch_83">
    <path clip-path="url(#p42313bac32)" d="M 333.556364 307.584 
L 336.802907 307.584 
L 336.802907 292.353109 
L 333.556364 292.353109 
z
" style="fill:#1f77b4;"/>
   </g>
   <g id="patch_84">
    <path clip-path="url(#p42313bac32)" d="M 336.802907 307.584 
L 340.04945 307.584 
L 340.04945 295.314672 
L 336.802907 295.314672 
z
" style="fill:#1f77b4;"/>
   </g>
   <g id="patch_85">
    <path clip-path="url(#p42313bac32)" d="M 340.04945 307.584 
L 343.296001 307.584 
L 343.296001 299.545491 
L 340.04945 299.545491 
z
" style="fill:#1f77b4;"/>
   </g>
   <g id="patch_86">
    <path clip-path="url(#p42313bac32)" d="M 343.296001 307.584 
L 346.542544 307.584 
L 346.542544 300.814715 
L 343.296001 300.814715 
z
" style="fill:#1f77b4;"/>
   </g>
   <g id="patch_87">
    <path clip-path="url(#p42313bac32)" d="M 346.542544 307.584 
L 349.789087 307.584 
L 349.789087 300.814715 
L 346.542544 300.814715 
z
" style="fill:#1f77b4;"/>
   </g>
   <g id="patch_88">
    <path clip-path="url(#p42313bac32)" d="M 349.789081 307.584 
L 353.035631 307.584 
L 353.035631 298.276253 
L 349.789081 298.276253 
z
" style="fill:#1f77b4;"/>
   </g>
   <g id="patch_89">
    <path clip-path="url(#p42313bac32)" d="M 353.035638 307.584 
L 356.282181 307.584 
L 356.282181 299.333934 
L 353.035638 299.333934 
z
" style="fill:#1f77b4;"/>
   </g>
   <g id="patch_90">
    <path clip-path="url(#p42313bac32)" d="M 356.282181 307.584 
L 359.528725 307.584 
L 359.528725 301.237796 
L 356.282181 301.237796 
z
" style="fill:#1f77b4;"/>
   </g>
   <g id="patch_91">
    <path clip-path="url(#p42313bac32)" d="M 359.528738 307.584 
L 362.775282 307.584 
L 362.775282 304.410898 
L 359.528738 304.410898 
z
" style="fill:#1f77b4;"/>
   </g>
   <g id="patch_92">
    <path clip-path="url(#p42313bac32)" d="M 362.775268 307.584 
L 366.021811 307.584 
L 366.021811 303.776277 
L 362.775268 303.776277 
z
" style="fill:#1f77b4;"/>
   </g>
   <g id="patch_93">
    <path clip-path="url(#p42313bac32)" d="M 366.021811 307.584 
L 369.268368 307.584 
L 369.268368 302.295519 
L 366.021811 302.295519 
z
" style="fill:#1f77b4;"/>
   </g>
   <g id="patch_94">
    <path clip-path="url(#p42313bac32)" d="M 369.268382 307.584 
L 372.514926 307.584 
L 372.514926 303.987818 
L 369.268382 303.987818 
z
" style="fill:#1f77b4;"/>
   </g>
   <g id="patch_95">
    <path clip-path="url(#p42313bac32)" d="M 372.514912 307.584 
L 375.761455 307.584 
L 375.761455 306.103219 
L 372.514912 306.103219 
z
" style="fill:#1f77b4;"/>
   </g>
   <g id="patch_96">
    <path clip-path="url(#p42313bac32)" d="M 375.761469 307.584 
L 379.008012 307.584 
L 379.008012 305.257058 
L 375.761469 305.257058 
z
" style="fill:#1f77b4;"/>
   </g>
   <g id="patch_97">
    <path clip-path="url(#p42313bac32)" d="M 379.007999 307.584 
L 382.254542 307.584 
L 382.254542 307.16092 
L 379.007999 307.16092 
z
" style="fill:#1f77b4;"/>
   </g>
   <g id="patch_98">
    <path clip-path="url(#p42313bac32)" d="M 382.254556 307.584 
L 385.501099 307.584 
L 385.501099 307.584 
L 382.254556 307.584 
z
" style="fill:#1f77b4;"/>
   </g>
   <g id="patch_99">
    <path clip-path="url(#p42313bac32)" d="M 385.501085 307.584 
L 388.747643 307.584 
L 388.747643 306.949382 
L 385.501085 306.949382 
z
" style="fill:#1f77b4;"/>
   </g>
   <g id="patch_100">
    <path clip-path="url(#p42313bac32)" d="M 388.747643 307.584 
L 391.994186 307.584 
L 391.994186 306.94938 
L 388.747643 306.94938 
z
" style="fill:#1f77b4;"/>
   </g>
   <g id="patch_101">
    <path clip-path="url(#p42313bac32)" d="M 391.9942 307.584 
L 395.240743 307.584 
L 395.240743 307.16092 
L 391.9942 307.16092 
z
" style="fill:#1f77b4;"/>
   </g>
   <g id="patch_102">
    <path clip-path="url(#p42313bac32)" d="M 395.240729 307.584 
L 398.487273 307.584 
L 398.487273 307.16092 
L 395.240729 307.16092 
z
" style="fill:#1f77b4;"/>
   </g>
   <g id="matplotlib.axis_1">
    <g id="xtick_1">
     <g id="line2d_1">
      <defs>
       <path d="M 0 0 
L 0 3.5 
" id="mc98cc29d60" style="stroke:#000000;stroke-width:0.8;"/>
      </defs>
      <g>
       <use style="stroke:#000000;stroke-width:0.8;" x="71.898227" xlink:href="#mc98cc29d60" y="307.584"/>
      </g>
     </g>
     <g id="text_1">
      <!-- −3 -->
      <defs>
       <path d="M 10.59375 35.5 
L 73.1875 35.5 
L 73.1875 27.203125 
L 10.59375 27.203125 
z
" id="DejaVuSans-8722"/>
       <path d="M 40.578125 39.3125 
Q 47.65625 37.796875 51.625 33 
Q 55.609375 28.21875 55.609375 21.1875 
Q 55.609375 10.40625 48.1875 4.484375 
Q 40.765625 -1.421875 27.09375 -1.421875 
Q 22.515625 -1.421875 17.65625 -0.515625 
Q 12.796875 0.390625 7.625 2.203125 
L 7.625 11.71875 
Q 11.71875 9.328125 16.59375 8.109375 
Q 21.484375 6.890625 26.8125 6.890625 
Q 36.078125 6.890625 40.9375 10.546875 
Q 45.796875 14.203125 45.796875 21.1875 
Q 45.796875 27.640625 41.28125 31.265625 
Q 36.765625 34.90625 28.71875 34.90625 
L 20.21875 34.90625 
L 20.21875 43.015625 
L 29.109375 43.015625 
Q 36.375 43.015625 40.234375 45.921875 
Q 44.09375 48.828125 44.09375 54.296875 
Q 44.09375 59.90625 40.109375 62.90625 
Q 36.140625 65.921875 28.71875 65.921875 
Q 24.65625 65.921875 20.015625 65.03125 
Q 15.375 64.15625 9.8125 62.3125 
L 9.8125 71.09375 
Q 15.4375 72.65625 20.34375 73.4375 
Q 25.25 74.21875 29.59375 74.21875 
Q 40.828125 74.21875 47.359375 69.109375 
Q 53.90625 64.015625 53.90625 55.328125 
Q 53.90625 49.265625 50.4375 45.09375 
Q 46.96875 40.921875 40.578125 39.3125 
z
" id="DejaVuSans-51"/>
      </defs>
      <g transform="translate(59.367368 327.501344)scale(0.17 -0.17)">
       <use xlink:href="#DejaVuSans-8722"/>
       <use x="83.789062" xlink:href="#DejaVuSans-51"/>
      </g>
     </g>
    </g>
    <g id="xtick_2">
     <g id="line2d_2">
      <g>
       <use style="stroke:#000000;stroke-width:0.8;" x="129.279068" xlink:href="#mc98cc29d60" y="307.584"/>
      </g>
     </g>
     <g id="text_2">
      <!-- −2 -->
      <defs>
       <path d="M 19.1875 8.296875 
L 53.609375 8.296875 
L 53.609375 0 
L 7.328125 0 
L 7.328125 8.296875 
Q 12.9375 14.109375 22.625 23.890625 
Q 32.328125 33.6875 34.8125 36.53125 
Q 39.546875 41.84375 41.421875 45.53125 
Q 43.3125 49.21875 43.3125 52.78125 
Q 43.3125 58.59375 39.234375 62.25 
Q 35.15625 65.921875 28.609375 65.921875 
Q 23.96875 65.921875 18.8125 64.3125 
Q 13.671875 62.703125 7.8125 59.421875 
L 7.8125 69.390625 
Q 13.765625 71.78125 18.9375 73 
Q 24.125 74.21875 28.421875 74.21875 
Q 39.75 74.21875 46.484375 68.546875 
Q 53.21875 62.890625 53.21875 53.421875 
Q 53.21875 48.921875 51.53125 44.890625 
Q 49.859375 40.875 45.40625 35.40625 
Q 44.1875 33.984375 37.640625 27.21875 
Q 31.109375 20.453125 19.1875 8.296875 
z
" id="DejaVuSans-50"/>
      </defs>
      <g transform="translate(116.748209 327.501344)scale(0.17 -0.17)">
       <use xlink:href="#DejaVuSans-8722"/>
       <use x="83.789062" xlink:href="#DejaVuSans-50"/>
      </g>
     </g>
    </g>
    <g id="xtick_3">
     <g id="line2d_3">
      <g>
       <use style="stroke:#000000;stroke-width:0.8;" x="186.659909" xlink:href="#mc98cc29d60" y="307.584"/>
      </g>
     </g>
     <g id="text_3">
      <!-- −1 -->
      <defs>
       <path d="M 12.40625 8.296875 
L 28.515625 8.296875 
L 28.515625 63.921875 
L 10.984375 60.40625 
L 10.984375 69.390625 
L 28.421875 72.90625 
L 38.28125 72.90625 
L 38.28125 8.296875 
L 54.390625 8.296875 
L 54.390625 0 
L 12.40625 0 
z
" id="DejaVuSans-49"/>
      </defs>
      <g transform="translate(174.12905 327.501344)scale(0.17 -0.17)">
       <use xlink:href="#DejaVuSans-8722"/>
       <use x="83.789062" xlink:href="#DejaVuSans-49"/>
      </g>
     </g>
    </g>
    <g id="xtick_4">
     <g id="line2d_4">
      <g>
       <use style="stroke:#000000;stroke-width:0.8;" x="244.04075" xlink:href="#mc98cc29d60" y="307.584"/>
      </g>
     </g>
     <g id="text_4">
      <!-- 0 -->
      <defs>
       <path d="M 31.78125 66.40625 
Q 24.171875 66.40625 20.328125 58.90625 
Q 16.5 51.421875 16.5 36.375 
Q 16.5 21.390625 20.328125 13.890625 
Q 24.171875 6.390625 31.78125 6.390625 
Q 39.453125 6.390625 43.28125 13.890625 
Q 47.125 21.390625 47.125 36.375 
Q 47.125 51.421875 43.28125 58.90625 
Q 39.453125 66.40625 31.78125 66.40625 
z
M 31.78125 74.21875 
Q 44.046875 74.21875 50.515625 64.515625 
Q 56.984375 54.828125 56.984375 36.375 
Q 56.984375 17.96875 50.515625 8.265625 
Q 44.046875 -1.421875 31.78125 -1.421875 
Q 19.53125 -1.421875 13.0625 8.265625 
Q 6.59375 17.96875 6.59375 36.375 
Q 6.59375 54.828125 13.0625 64.515625 
Q 19.53125 74.21875 31.78125 74.21875 
z
" id="DejaVuSans-48"/>
      </defs>
      <g transform="translate(238.632625 327.501344)scale(0.17 -0.17)">
       <use xlink:href="#DejaVuSans-48"/>
      </g>
     </g>
    </g>
    <g id="xtick_5">
     <g id="line2d_5">
      <g>
       <use style="stroke:#000000;stroke-width:0.8;" x="301.421591" xlink:href="#mc98cc29d60" y="307.584"/>
      </g>
     </g>
     <g id="text_5">
      <!-- 1 -->
      <g transform="translate(296.013466 327.501344)scale(0.17 -0.17)">
       <use xlink:href="#DejaVuSans-49"/>
      </g>
     </g>
    </g>
    <g id="xtick_6">
     <g id="line2d_6">
      <g>
       <use style="stroke:#000000;stroke-width:0.8;" x="358.802432" xlink:href="#mc98cc29d60" y="307.584"/>
      </g>
     </g>
     <g id="text_6">
      <!-- 2 -->
      <g transform="translate(353.394307 327.501344)scale(0.17 -0.17)">
       <use xlink:href="#DejaVuSans-50"/>
      </g>
     </g>
    </g>
    <g id="text_7">
     <!-- Position in Radian -->
     <defs>
      <path d="M 19.671875 64.796875 
L 19.671875 37.40625 
L 32.078125 37.40625 
Q 38.96875 37.40625 42.71875 40.96875 
Q 46.484375 44.53125 46.484375 51.125 
Q 46.484375 57.671875 42.71875 61.234375 
Q 38.96875 64.796875 32.078125 64.796875 
z
M 9.8125 72.90625 
L 32.078125 72.90625 
Q 44.34375 72.90625 50.609375 67.359375 
Q 56.890625 61.8125 56.890625 51.125 
Q 56.890625 40.328125 50.609375 34.8125 
Q 44.34375 29.296875 32.078125 29.296875 
L 19.671875 29.296875 
L 19.671875 0 
L 9.8125 0 
z
" id="DejaVuSans-80"/>
      <path d="M 30.609375 48.390625 
Q 23.390625 48.390625 19.1875 42.75 
Q 14.984375 37.109375 14.984375 27.296875 
Q 14.984375 17.484375 19.15625 11.84375 
Q 23.34375 6.203125 30.609375 6.203125 
Q 37.796875 6.203125 41.984375 11.859375 
Q 46.1875 17.53125 46.1875 27.296875 
Q 46.1875 37.015625 41.984375 42.703125 
Q 37.796875 48.390625 30.609375 48.390625 
z
M 30.609375 56 
Q 42.328125 56 49.015625 48.375 
Q 55.71875 40.765625 55.71875 27.296875 
Q 55.71875 13.875 49.015625 6.21875 
Q 42.328125 -1.421875 30.609375 -1.421875 
Q 18.84375 -1.421875 12.171875 6.21875 
Q 5.515625 13.875 5.515625 27.296875 
Q 5.515625 40.765625 12.171875 48.375 
Q 18.84375 56 30.609375 56 
z
" id="DejaVuSans-111"/>
      <path d="M 44.28125 53.078125 
L 44.28125 44.578125 
Q 40.484375 46.53125 36.375 47.5 
Q 32.28125 48.484375 27.875 48.484375 
Q 21.1875 48.484375 17.84375 46.4375 
Q 14.5 44.390625 14.5 40.28125 
Q 14.5 37.15625 16.890625 35.375 
Q 19.28125 33.59375 26.515625 31.984375 
L 29.59375 31.296875 
Q 39.15625 29.25 43.1875 25.515625 
Q 47.21875 21.78125 47.21875 15.09375 
Q 47.21875 7.46875 41.1875 3.015625 
Q 35.15625 -1.421875 24.609375 -1.421875 
Q 20.21875 -1.421875 15.453125 -0.5625 
Q 10.6875 0.296875 5.421875 2 
L 5.421875 11.28125 
Q 10.40625 8.6875 15.234375 7.390625 
Q 20.0625 6.109375 24.8125 6.109375 
Q 31.15625 6.109375 34.5625 8.28125 
Q 37.984375 10.453125 37.984375 14.40625 
Q 37.984375 18.0625 35.515625 20.015625 
Q 33.0625 21.96875 24.703125 23.78125 
L 21.578125 24.515625 
Q 13.234375 26.265625 9.515625 29.90625 
Q 5.8125 33.546875 5.8125 39.890625 
Q 5.8125 47.609375 11.28125 51.796875 
Q 16.75 56 26.8125 56 
Q 31.78125 56 36.171875 55.265625 
Q 40.578125 54.546875 44.28125 53.078125 
z
" id="DejaVuSans-115"/>
      <path d="M 9.421875 54.6875 
L 18.40625 54.6875 
L 18.40625 0 
L 9.421875 0 
z
M 9.421875 75.984375 
L 18.40625 75.984375 
L 18.40625 64.59375 
L 9.421875 64.59375 
z
" id="DejaVuSans-105"/>
      <path d="M 18.3125 70.21875 
L 18.3125 54.6875 
L 36.8125 54.6875 
L 36.8125 47.703125 
L 18.3125 47.703125 
L 18.3125 18.015625 
Q 18.3125 11.328125 20.140625 9.421875 
Q 21.96875 7.515625 27.59375 7.515625 
L 36.8125 7.515625 
L 36.8125 0 
L 27.59375 0 
Q 17.1875 0 13.234375 3.875 
Q 9.28125 7.765625 9.28125 18.015625 
L 9.28125 47.703125 
L 2.6875 47.703125 
L 2.6875 54.6875 
L 9.28125 54.6875 
L 9.28125 70.21875 
z
" id="DejaVuSans-116"/>
      <path d="M 54.890625 33.015625 
L 54.890625 0 
L 45.90625 0 
L 45.90625 32.71875 
Q 45.90625 40.484375 42.875 44.328125 
Q 39.84375 48.1875 33.796875 48.1875 
Q 26.515625 48.1875 22.3125 43.546875 
Q 18.109375 38.921875 18.109375 30.90625 
L 18.109375 0 
L 9.078125 0 
L 9.078125 54.6875 
L 18.109375 54.6875 
L 18.109375 46.1875 
Q 21.34375 51.125 25.703125 53.5625 
Q 30.078125 56 35.796875 56 
Q 45.21875 56 50.046875 50.171875 
Q 54.890625 44.34375 54.890625 33.015625 
z
" id="DejaVuSans-110"/>
      <path id="DejaVuSans-32"/>
      <path d="M 44.390625 34.1875 
Q 47.5625 33.109375 50.5625 29.59375 
Q 53.5625 26.078125 56.59375 19.921875 
L 66.609375 0 
L 56 0 
L 46.6875 18.703125 
Q 43.0625 26.03125 39.671875 28.421875 
Q 36.28125 30.8125 30.421875 30.8125 
L 19.671875 30.8125 
L 19.671875 0 
L 9.8125 0 
L 9.8125 72.90625 
L 32.078125 72.90625 
Q 44.578125 72.90625 50.734375 67.671875 
Q 56.890625 62.453125 56.890625 51.90625 
Q 56.890625 45.015625 53.6875 40.46875 
Q 50.484375 35.9375 44.390625 34.1875 
z
M 19.671875 64.796875 
L 19.671875 38.921875 
L 32.078125 38.921875 
Q 39.203125 38.921875 42.84375 42.21875 
Q 46.484375 45.515625 46.484375 51.90625 
Q 46.484375 58.296875 42.84375 61.546875 
Q 39.203125 64.796875 32.078125 64.796875 
z
" id="DejaVuSans-82"/>
      <path d="M 34.28125 27.484375 
Q 23.390625 27.484375 19.1875 25 
Q 14.984375 22.515625 14.984375 16.5 
Q 14.984375 11.71875 18.140625 8.90625 
Q 21.296875 6.109375 26.703125 6.109375 
Q 34.1875 6.109375 38.703125 11.40625 
Q 43.21875 16.703125 43.21875 25.484375 
L 43.21875 27.484375 
z
M 52.203125 31.203125 
L 52.203125 0 
L 43.21875 0 
L 43.21875 8.296875 
Q 40.140625 3.328125 35.546875 0.953125 
Q 30.953125 -1.421875 24.3125 -1.421875 
Q 15.921875 -1.421875 10.953125 3.296875 
Q 6 8.015625 6 15.921875 
Q 6 25.140625 12.171875 29.828125 
Q 18.359375 34.515625 30.609375 34.515625 
L 43.21875 34.515625 
L 43.21875 35.40625 
Q 43.21875 41.609375 39.140625 45 
Q 35.0625 48.390625 27.6875 48.390625 
Q 23 48.390625 18.546875 47.265625 
Q 14.109375 46.140625 10.015625 43.890625 
L 10.015625 52.203125 
Q 14.9375 54.109375 19.578125 55.046875 
Q 24.21875 56 28.609375 56 
Q 40.484375 56 46.34375 49.84375 
Q 52.203125 43.703125 52.203125 31.203125 
z
" id="DejaVuSans-97"/>
      <path d="M 45.40625 46.390625 
L 45.40625 75.984375 
L 54.390625 75.984375 
L 54.390625 0 
L 45.40625 0 
L 45.40625 8.203125 
Q 42.578125 3.328125 38.25 0.953125 
Q 33.9375 -1.421875 27.875 -1.421875 
Q 17.96875 -1.421875 11.734375 6.484375 
Q 5.515625 14.40625 5.515625 27.296875 
Q 5.515625 40.1875 11.734375 48.09375 
Q 17.96875 56 27.875 56 
Q 33.9375 56 38.25 53.625 
Q 42.578125 51.265625 45.40625 46.390625 
z
M 14.796875 27.296875 
Q 14.796875 17.390625 18.875 11.75 
Q 22.953125 6.109375 30.078125 6.109375 
Q 37.203125 6.109375 41.296875 11.75 
Q 45.40625 17.390625 45.40625 27.296875 
Q 45.40625 37.203125 41.296875 42.84375 
Q 37.203125 48.484375 30.078125 48.484375 
Q 22.953125 48.484375 18.875 42.84375 
Q 14.796875 37.203125 14.796875 27.296875 
z
" id="DejaVuSans-100"/>
     </defs>
     <g transform="translate(102.024844 357.832125)scale(0.3 -0.3)">
      <use xlink:href="#DejaVuSans-80"/>
      <use x="60.255859" xlink:href="#DejaVuSans-111"/>
      <use x="121.4375" xlink:href="#DejaVuSans-115"/>
      <use x="173.537109" xlink:href="#DejaVuSans-105"/>
      <use x="201.320312" xlink:href="#DejaVuSans-116"/>
      <use x="240.529297" xlink:href="#DejaVuSans-105"/>
      <use x="268.3125" xlink:href="#DejaVuSans-111"/>
      <use x="329.494141" xlink:href="#DejaVuSans-110"/>
      <use x="392.873047" xlink:href="#DejaVuSans-32"/>
      <use x="424.660156" xlink:href="#DejaVuSans-105"/>
      <use x="452.443359" xlink:href="#DejaVuSans-110"/>
      <use x="515.822266" xlink:href="#DejaVuSans-32"/>
      <use x="547.609375" xlink:href="#DejaVuSans-82"/>
      <use x="617.060547" xlink:href="#DejaVuSans-97"/>
      <use x="678.339844" xlink:href="#DejaVuSans-100"/>
      <use x="741.816406" xlink:href="#DejaVuSans-105"/>
      <use x="769.599609" xlink:href="#DejaVuSans-97"/>
      <use x="830.878906" xlink:href="#DejaVuSans-110"/>
     </g>
    </g>
   </g>
   <g id="matplotlib.axis_2">
    <g id="ytick_1">
     <g id="line2d_7">
      <defs>
       <path d="M 0 0 
L -3.5 0 
" id="me546deaeeb" style="stroke:#000000;stroke-width:0.8;"/>
      </defs>
      <g>
       <use style="stroke:#000000;stroke-width:0.8;" x="57.6" xlink:href="#me546deaeeb" y="307.584"/>
      </g>
     </g>
     <g id="text_8">
      <!-- 0.00 -->
      <defs>
       <path d="M 10.6875 12.40625 
L 21 12.40625 
L 21 0 
L 10.6875 0 
z
" id="DejaVuSans-46"/>
      </defs>
      <g transform="translate(12.748438 314.042672)scale(0.17 -0.17)">
       <use xlink:href="#DejaVuSans-48"/>
       <use x="63.623047" xlink:href="#DejaVuSans-46"/>
       <use x="95.410156" xlink:href="#DejaVuSans-48"/>
       <use x="159.033203" xlink:href="#DejaVuSans-48"/>
      </g>
     </g>
    </g>
    <g id="ytick_2">
     <g id="line2d_8">
      <g>
       <use style="stroke:#000000;stroke-width:0.8;" x="57.6" xlink:href="#me546deaeeb" y="262.701362"/>
      </g>
     </g>
     <g id="text_9">
      <!-- 0.25 -->
      <defs>
       <path d="M 10.796875 72.90625 
L 49.515625 72.90625 
L 49.515625 64.59375 
L 19.828125 64.59375 
L 19.828125 46.734375 
Q 21.96875 47.46875 24.109375 47.828125 
Q 26.265625 48.1875 28.421875 48.1875 
Q 40.625 48.1875 47.75 41.5 
Q 54.890625 34.8125 54.890625 23.390625 
Q 54.890625 11.625 47.5625 5.09375 
Q 40.234375 -1.421875 26.90625 -1.421875 
Q 22.3125 -1.421875 17.546875 -0.640625 
Q 12.796875 0.140625 7.71875 1.703125 
L 7.71875 11.625 
Q 12.109375 9.234375 16.796875 8.0625 
Q 21.484375 6.890625 26.703125 6.890625 
Q 35.15625 6.890625 40.078125 11.328125 
Q 45.015625 15.765625 45.015625 23.390625 
Q 45.015625 31 40.078125 35.4375 
Q 35.15625 39.890625 26.703125 39.890625 
Q 22.75 39.890625 18.8125 39.015625 
Q 14.890625 38.140625 10.796875 36.28125 
z
" id="DejaVuSans-53"/>
      </defs>
      <g transform="translate(12.748438 269.160034)scale(0.17 -0.17)">
       <use xlink:href="#DejaVuSans-48"/>
       <use x="63.623047" xlink:href="#DejaVuSans-46"/>
       <use x="95.410156" xlink:href="#DejaVuSans-50"/>
       <use x="159.033203" xlink:href="#DejaVuSans-53"/>
      </g>
     </g>
    </g>
    <g id="ytick_3">
     <g id="line2d_9">
      <g>
       <use style="stroke:#000000;stroke-width:0.8;" x="57.6" xlink:href="#me546deaeeb" y="217.818724"/>
      </g>
     </g>
     <g id="text_10">
      <!-- 0.50 -->
      <g transform="translate(12.748438 224.277396)scale(0.17 -0.17)">
       <use xlink:href="#DejaVuSans-48"/>
       <use x="63.623047" xlink:href="#DejaVuSans-46"/>
       <use x="95.410156" xlink:href="#DejaVuSans-53"/>
       <use x="159.033203" xlink:href="#DejaVuSans-48"/>
      </g>
     </g>
    </g>
    <g id="ytick_4">
     <g id="line2d_10">
      <g>
       <use style="stroke:#000000;stroke-width:0.8;" x="57.6" xlink:href="#me546deaeeb" y="172.936087"/>
      </g>
     </g>
     <g id="text_11">
      <!-- 0.75 -->
      <defs>
       <path d="M 8.203125 72.90625 
L 55.078125 72.90625 
L 55.078125 68.703125 
L 28.609375 0 
L 18.3125 0 
L 43.21875 64.59375 
L 8.203125 64.59375 
z
" id="DejaVuSans-55"/>
      </defs>
      <g transform="translate(12.748438 179.394758)scale(0.17 -0.17)">
       <use xlink:href="#DejaVuSans-48"/>
       <use x="63.623047" xlink:href="#DejaVuSans-46"/>
       <use x="95.410156" xlink:href="#DejaVuSans-55"/>
       <use x="159.033203" xlink:href="#DejaVuSans-53"/>
      </g>
     </g>
    </g>
    <g id="ytick_5">
     <g id="line2d_11">
      <g>
       <use style="stroke:#000000;stroke-width:0.8;" x="57.6" xlink:href="#me546deaeeb" y="128.053449"/>
      </g>
     </g>
     <g id="text_12">
      <!-- 1.00 -->
      <g transform="translate(12.748438 134.512121)scale(0.17 -0.17)">
       <use xlink:href="#DejaVuSans-49"/>
       <use x="63.623047" xlink:href="#DejaVuSans-46"/>
       <use x="95.410156" xlink:href="#DejaVuSans-48"/>
       <use x="159.033203" xlink:href="#DejaVuSans-48"/>
      </g>
     </g>
    </g>
    <g id="ytick_6">
     <g id="line2d_12">
      <g>
       <use style="stroke:#000000;stroke-width:0.8;" x="57.6" xlink:href="#me546deaeeb" y="83.170811"/>
      </g>
     </g>
     <g id="text_13">
      <!-- 1.25 -->
      <g transform="translate(12.748438 89.629483)scale(0.17 -0.17)">
       <use xlink:href="#DejaVuSans-49"/>
       <use x="63.623047" xlink:href="#DejaVuSans-46"/>
       <use x="95.410156" xlink:href="#DejaVuSans-50"/>
       <use x="159.033203" xlink:href="#DejaVuSans-53"/>
      </g>
     </g>
    </g>
    <g id="text_14">
     <!-- Density -->
     <defs>
      <path d="M 19.671875 64.796875 
L 19.671875 8.109375 
L 31.59375 8.109375 
Q 46.6875 8.109375 53.6875 14.9375 
Q 60.6875 21.78125 60.6875 36.53125 
Q 60.6875 51.171875 53.6875 57.984375 
Q 46.6875 64.796875 31.59375 64.796875 
z
M 9.8125 72.90625 
L 30.078125 72.90625 
Q 51.265625 72.90625 61.171875 64.09375 
Q 71.09375 55.28125 71.09375 36.53125 
Q 71.09375 17.671875 61.125 8.828125 
Q 51.171875 0 30.078125 0 
L 9.8125 0 
z
" id="DejaVuSans-68"/>
      <path d="M 56.203125 29.59375 
L 56.203125 25.203125 
L 14.890625 25.203125 
Q 15.484375 15.921875 20.484375 11.0625 
Q 25.484375 6.203125 34.421875 6.203125 
Q 39.59375 6.203125 44.453125 7.46875 
Q 49.3125 8.734375 54.109375 11.28125 
L 54.109375 2.78125 
Q 49.265625 0.734375 44.1875 -0.34375 
Q 39.109375 -1.421875 33.890625 -1.421875 
Q 20.796875 -1.421875 13.15625 6.1875 
Q 5.515625 13.8125 5.515625 26.8125 
Q 5.515625 40.234375 12.765625 48.109375 
Q 20.015625 56 32.328125 56 
Q 43.359375 56 49.78125 48.890625 
Q 56.203125 41.796875 56.203125 29.59375 
z
M 47.21875 32.234375 
Q 47.125 39.59375 43.09375 43.984375 
Q 39.0625 48.390625 32.421875 48.390625 
Q 24.90625 48.390625 20.390625 44.140625 
Q 15.875 39.890625 15.1875 32.171875 
z
" id="DejaVuSans-101"/>
      <path d="M 32.171875 -5.078125 
Q 28.375 -14.84375 24.75 -17.8125 
Q 21.140625 -20.796875 15.09375 -20.796875 
L 7.90625 -20.796875 
L 7.90625 -13.28125 
L 13.1875 -13.28125 
Q 16.890625 -13.28125 18.9375 -11.515625 
Q 21 -9.765625 23.484375 -3.21875 
L 25.09375 0.875 
L 2.984375 54.6875 
L 12.5 54.6875 
L 29.59375 11.921875 
L 46.6875 54.6875 
L 56.203125 54.6875 
z
" id="DejaVuSans-121"/>
     </defs>
     <g transform="translate(2.509375 231.553781)rotate(-90)scale(0.3 -0.3)">
      <use xlink:href="#DejaVuSans-68"/>
      <use x="77.001953" xlink:href="#DejaVuSans-101"/>
      <use x="138.525391" xlink:href="#DejaVuSans-110"/>
      <use x="201.904297" xlink:href="#DejaVuSans-115"/>
      <use x="254.003906" xlink:href="#DejaVuSans-105"/>
      <use x="281.787109" xlink:href="#DejaVuSans-116"/>
      <use x="320.996094" xlink:href="#DejaVuSans-121"/>
     </g>
    </g>
   </g>
   <g id="line2d_13">
    <path clip-path="url(#p42313bac32)" d="M 100.588648 303.218208 
L 101.066822 302.81031 
L 101.554559 302.710095 
L 102.271819 302.789622 
L 102.692612 303.0626 
L 103.696777 303.851236 
L 104.031498 303.758126 
L 104.385347 303.418009 
L 104.758322 302.718878 
L 105.619035 300.946389 
L 105.877249 300.947414 
L 106.393676 301.01789 
L 106.757088 300.722115 
L 107.187445 300.460906 
L 107.493476 300.545205 
L 107.856888 300.901644 
L 108.306371 301.688861 
L 108.985378 302.848896 
L 109.205338 302.870135 
L 109.396607 302.62037 
L 109.645257 301.857773 
L 110.104304 299.519585 
L 110.50597 297.969419 
L 110.697239 297.84765 
L 110.850255 298.059803 
L 111.137159 298.959195 
L 111.66315 300.490274 
L 111.892674 300.609526 
L 112.122197 300.445298 
L 112.590807 300.105774 
L 112.782077 300.255608 
L 113.049854 300.811235 
L 113.719297 302.287427 
L 113.910566 302.281814 
L 114.14009 301.994966 
L 114.886041 300.909417 
L 115.153818 300.950542 
L 115.51723 301.271738 
L 116.148419 302.192094 
L 116.588339 302.636396 
L 116.951751 302.695144 
L 117.439488 302.522735 
L 118.940954 301.562326 
L 120.040753 300.394482 
L 121.62829 299.691866 
L 122.182971 300.036774 
L 122.613327 300.522154 
L 123.081938 301.481172 
L 123.540984 302.243823 
L 123.799198 302.30058 
L 124.200864 302.066003 
L 124.506895 302.028948 
L 124.927688 302.293663 
L 125.176338 302.291957 
L 125.396298 302.02016 
L 126.266574 300.650296 
L 126.496098 300.872461 
L 127.222922 301.698286 
L 128.007126 302.115191 
L 128.437483 302.805084 
L 129.403394 304.454859 
L 129.594663 304.398981 
L 129.824186 304.042811 
L 130.340614 302.644308 
L 130.684899 302.082759 
L 130.895295 302.082799 
L 131.153509 302.36888 
L 131.727318 303.036601 
L 131.937714 302.964513 
L 132.272436 302.537414 
L 132.683665 302.134715 
L 132.99926 302.149662 
L 133.486997 302.169394 
L 133.879099 301.919803 
L 134.261638 301.406507 
L 135.332747 299.745394 
L 135.657905 299.221521 
L 136.547308 297.37857 
L 136.585562 297.402135 
L 136.767268 297.686457 
L 137.111553 298.754052 
L 137.618417 300.125847 
L 137.847941 300.252172 
L 138.058337 300.093269 
L 138.708653 299.473069 
L 138.928613 299.651054 
L 139.464168 300.518507 
L 139.85627 300.905187 
L 140.085793 300.870083 
L 140.315317 300.566977 
L 140.650038 299.676263 
L 141.635076 296.133616 
L 142.524479 292.798572 
L 142.80182 292.540593 
L 143.040907 292.602047 
L 143.337374 292.940154 
L 143.672096 293.687366 
L 144.676261 296.261424 
L 144.83884 296.083308 
L 145.106617 295.361821 
L 145.766497 293.521956 
L 146.005583 293.418897 
L 146.292488 293.587387 
L 146.894987 293.935323 
L 147.382724 294.199277 
L 147.707882 294.689672 
L 148.128675 295.794141 
L 148.69292 297.160247 
L 148.884189 297.185039 
L 149.056332 296.924315 
L 149.333672 296.000169 
L 150.022242 293.560697 
L 150.184821 293.561829 
L 150.356964 293.884423 
L 150.672559 295.075585 
L 151.437636 297.992527 
L 151.753231 298.449157 
L 151.944501 298.430687 
L 152.13577 298.137204 
L 152.38442 297.258016 
L 152.738269 295.019293 
L 153.455529 290.403255 
L 153.723307 289.932625 
L 153.971957 289.917898 
L 154.411877 289.90243 
L 154.727471 289.919837 
L 154.928304 290.200222 
L 155.205645 291.067475 
L 155.817707 293.061545 
L 155.942032 292.988804 
L 156.104611 292.50291 
L 156.372389 290.84474 
L 157.443498 283.398714 
L 159.241431 276.624491 
L 159.40401 276.624623 
L 159.566589 276.962947 
L 159.824803 278.143603 
L 160.647261 282.2819 
L 160.838531 282.379388 
L 160.991546 282.151125 
L 161.22107 281.309526 
L 161.641863 278.669332 
L 162.024402 276.836908 
L 162.167854 276.731121 
L 162.186981 276.744735 
L 162.330433 277.03622 
L 162.617337 278.297073 
L 163.076384 280.073046 
L 163.267653 280.192065 
L 163.420669 279.995584 
L 163.688446 279.190644 
L 164.310072 277.295888 
L 164.482214 277.2903 
L 164.654357 277.601471 
L 164.950824 278.720276 
L 165.591577 281.128226 
L 165.888045 281.455206 
L 166.222766 281.481166 
L 166.614869 281.304487 
L 166.930463 280.889185 
L 167.944192 279.273652 
L 167.953755 279.279126 
L 168.116334 279.51825 
L 168.326731 280.3038 
L 168.651889 282.538586 
L 169.350022 287.383935 
L 169.67518 288.188029 
L 169.981212 288.414456 
L 170.220298 288.350444 
L 170.459385 288.030368 
L 170.841924 287.053979 
L 172.745055 281.882645 
L 172.955452 281.962425 
L 173.318864 282.102585 
L 173.481443 281.851588 
L 173.701403 280.990463 
L 174.083942 278.331665 
L 174.600369 275.160794 
L 174.87771 274.574394 
L 175.040289 274.590528 
L 175.212432 274.886447 
L 175.451518 275.81122 
L 175.795803 278.181001 
L 176.522627 283.300874 
L 176.799968 283.884315 
L 177.526792 284.685956 
L 178.04322 285.667393 
L 178.196235 285.598165 
L 178.406632 285.168684 
L 179.305598 282.976238 
L 179.659447 282.85257 
L 180.376707 282.655144 
L 180.682738 282.279743 
L 181.084404 281.361463 
L 182.107696 278.928326 
L 182.36591 278.784159 
L 182.61456 278.935026 
L 182.930155 279.066595 
L 183.102297 278.854367 
L 183.331821 278.136149 
L 183.752613 275.901495 
L 184.708961 270.845641 
L 185.081936 269.885066 
L 185.349713 269.701296 
L 185.722689 269.782444 
L 186.506894 270.084547 
L 186.774671 270.756437 
L 187.338916 273.021831 
L 187.884034 274.71274 
L 188.333517 275.499639 
L 188.524787 275.511775 
L 188.706493 275.240756 
L 188.993397 274.309262 
L 189.710657 271.916151 
L 190.255775 270.490082 
L 191.23125 267.180275 
L 191.403392 267.316379 
L 192.713588 269.246031 
L 193.54561 271.767743 
L 193.555174 271.763853 
L 193.698626 271.568581 
L 193.937713 270.764348 
L 194.549775 268.619326 
L 194.6741 268.682389 
L 194.827116 269.13432 
L 195.085329 270.761252 
L 195.7739 275.389755 
L 195.859971 275.419604 
L 195.898225 275.373976 
L 196.032113 274.934555 
L 196.280764 273.15296 
L 196.940643 268.191606 
L 197.112786 268.021218 
L 197.122349 268.02585 
L 197.275365 268.23841 
L 197.724848 268.91559 
L 197.877864 268.754061 
L 198.126514 268.062199 
L 199.035044 264.462086 
L 199.962701 261.149053 
L 200.469565 259.969084 
L 201.024246 258.897655 
L 201.435476 257.253955 
L 201.837142 256.00245 
L 202.028411 255.923879 
L 202.210117 256.14034 
L 202.783926 256.948476 
L 202.927378 256.753381 
L 203.137774 255.999375 
L 203.577694 253.28682 
L 203.883725 252.116767 
L 203.97936 252.118192 
L 203.998487 252.142118 
L 204.141939 252.556101 
L 204.467097 254.42216 
L 204.801818 255.768036 
L 204.926144 255.802573 
L 204.945271 255.785861 
L 205.10785 255.461006 
L 205.777293 253.897119 
L 206.379792 253.27712 
L 206.819711 252.255536 
L 207.508281 250.659983 
L 207.64217 250.754136 
L 207.83344 251.263846 
L 208.598517 253.742463 
L 208.608081 253.738914 
L 208.751533 253.554241 
L 209.01931 252.722673 
L 209.583555 251.010401 
L 209.784388 250.932872 
L 209.975658 251.149398 
L 210.798116 252.376914 
L 211.314544 252.43973 
L 211.96486 253.090938 
L 212.012677 253.035712 
L 212.203947 252.569919 
L 212.529105 251.058057 
L 213.456762 245.304315 
L 214.240967 240.337994 
L 214.47049 239.984558 
L 214.604379 240.076276 
L 214.805212 240.578653 
L 215.111243 242.0506 
L 215.608544 245.718648 
L 216.364058 251.044986 
L 216.622272 251.645627 
L 216.75616 251.586425 
L 216.918739 251.15869 
L 217.157826 249.801194 
L 217.482984 246.499491 
L 217.999412 238.482185 
L 218.554093 231.051537 
L 218.850561 229.475856 
L 219.060957 229.244421 
L 219.2331 229.378737 
L 219.529568 229.956134 
L 219.873853 231.132122 
L 220.265955 233.405755 
L 221.05016 238.010248 
L 221.365755 238.755425 
L 221.528334 238.755679 
L 221.681349 238.455832 
L 221.920436 237.393008 
L 222.484681 233.452067 
L 223.125434 229.827206 
L 223.546227 228.45133 
L 223.737496 228.350389 
L 223.880948 228.573948 
L 224.110471 229.461026 
L 224.856422 232.692641 
L 224.971184 232.563823 
L 225.143327 231.920717 
L 225.430231 229.828316 
L 226.329197 222.623169 
L 226.424832 222.593112 
L 226.453522 222.626202 
L 226.596975 223.059503 
L 226.912569 224.978918 
L 227.2186 226.253443 
L 227.295108 226.221351 
L 227.314235 226.185171 
L 227.448124 225.60403 
L 227.677647 223.371038 
L 228.433161 215.20456 
L 228.490542 215.20627 
L 228.519233 215.258228 
L 228.643558 215.879505 
L 228.853954 218.308757 
L 229.303438 226.866022 
L 229.714667 232.776083 
L 229.886809 233.391348 
L 229.905936 233.382056 
L 229.992008 233.152882 
L 230.16415 231.840331 
L 230.470181 227.368038 
L 231.378711 213.222135 
L 231.665616 211.930154 
L 232.497638 209.825994 
L 232.870613 208.774267 
L 233.004502 208.8102 
L 233.157517 209.203158 
L 233.415731 210.619507 
L 234.085174 214.471579 
L 234.228626 214.554096 
L 234.247753 214.540513 
L 234.400769 214.255333 
L 234.802435 212.802441 
L 235.079776 212.239666 
L 235.204101 212.307885 
L 235.376243 212.774026 
L 235.701401 214.495805 
L 236.103067 216.236516 
L 236.227392 216.301811 
L 236.256083 216.276386 
L 236.389971 215.954349 
L 236.609931 214.722887 
L 236.935089 211.442513 
L 237.441953 203.662185 
L 238.054016 195.207156 
L 238.407864 193.041281 
L 238.713895 192.359091 
L 239.27814 191.515035 
L 239.545918 190.263029 
L 240.091036 187.614646 
L 240.177107 187.73791 
L 240.320559 188.497275 
L 240.578773 191.396305 
L 241.190835 198.386468 
L 241.391668 198.804353 
L 241.50643 198.665536 
L 241.745517 197.890051 
L 242.175873 195.716576 
L 242.424523 193.15957 
L 242.644483 188.280162 
L 242.88357 177.251855 
L 243.160911 152.665743 
L 244.050314 54.144 
L 244.107695 54.935452 
L 244.23202 61.37794 
L 244.471107 88.37075 
L 245.245748 182.173305 
L 245.590033 196.74397 
L 246.068207 206.998484 
L 246.488999 212.591004 
L 246.632452 213.082756 
L 246.670705 213.047625 
L 246.775904 212.566521 
L 246.95761 210.418194 
L 247.301895 203.009324 
L 247.751378 194.688215 
L 247.89483 194.093595 
L 247.92352 194.119212 
L 248.019155 194.529643 
L 248.210425 196.585951 
L 250.190064 223.09429 
L 250.285698 223.176244 
L 250.323952 223.141005 
L 250.457841 222.757803 
L 250.763872 220.996104 
L 251.33768 218.035002 
L 251.672402 216.061523 
L 252.007124 212.400745 
L 252.638313 205.36353 
L 252.753075 205.14653 
L 252.791328 205.175727 
L 252.90609 205.549077 
L 253.135613 207.300643 
L 253.795493 212.637134 
L 254.101524 213.359798 
L 254.369302 214.0464 
L 254.617952 215.462978 
L 254.981364 219.090635 
L 255.756005 227.011416 
L 256.004656 227.703308 
L 256.128981 227.653402 
L 256.29156 227.250079 
L 256.54021 225.957397 
L 256.884495 222.826093 
L 257.573065 216.379127 
L 257.716517 216.159653 
L 257.745208 216.175127 
L 257.869533 216.440007 
L 258.146874 217.758769 
L 258.510286 219.118121 
L 258.60592 219.106705 
L 258.625047 219.080188 
L 258.768499 218.621554 
L 259.026713 216.846942 
L 259.51445 213.69885 
L 259.600522 213.639302 
L 259.638775 213.677055 
L 259.772664 214.105966 
L 260.030878 215.923597 
L 260.719448 220.908131 
L 261.245439 224.045117 
L 262.24004 231.207426 
L 262.584325 231.910312 
L 262.938174 232.178759 
L 263.435474 232.44829 
L 263.645871 233.01436 
L 263.923212 234.538896 
L 264.602218 238.503314 
L 264.697853 238.48161 
L 264.707416 238.467643 
L 264.850869 238.009768 
L 265.118646 236.177154 
L 265.615946 232.930477 
L 265.711581 232.852406 
L 265.749835 232.893391 
L 265.87416 233.318738 
L 266.09412 235.080842 
L 266.97396 243.224129 
L 267.069594 243.182744 
L 267.079158 243.166483 
L 267.232173 242.646743 
L 267.576458 240.426248 
L 267.978124 238.381677 
L 268.140703 238.233733 
L 268.15983 238.244669 
L 268.303282 238.48709 
L 268.81971 239.712429 
L 268.867527 239.667235 
L 269.001416 239.27535 
L 269.221376 237.769602 
L 270.129906 229.985305 
L 270.177723 230.034792 
L 270.302048 230.52378 
L 270.512445 232.480446 
L 271.009745 240.033104 
L 271.344467 243.278534 
L 271.459229 243.496329 
L 271.497483 243.459171 
L 271.612244 243.035405 
L 271.832204 241.134309 
L 272.559028 234.163234 
L 272.616409 234.166283 
L 272.645099 234.21639 
L 272.769425 234.812571 
L 272.989384 237.272884 
L 274.05093 251.419322 
L 274.27089 251.726746 
L 274.481286 251.649497 
L 275.973188 250.719733 
L 276.260092 250.888392 
L 276.594814 251.391873 
L 277.168622 252.25905 
L 277.350328 252.196332 
L 277.551161 251.814459 
L 277.818939 250.745982 
L 278.239731 247.967562 
L 278.746595 244.988863 
L 278.899611 244.799404 
L 278.928301 244.817055 
L 279.052627 245.097548 
L 279.25346 246.238166 
L 279.597745 249.753367 
L 280.43933 258.60348 
L 280.735798 259.671922 
L 280.90794 259.739357 
L 281.07052 259.508164 
L 281.366987 258.597086 
L 282.629366 254.257591 
L 282.849326 254.142578 
L 282.992778 254.329905 
L 283.193611 255.041191 
L 283.499642 257.125778 
L 284.207339 262.115413 
L 284.446426 262.52243 
L 284.618568 262.461569 
L 284.915036 262.020344 
L 285.718368 260.772318 
L 285.852256 260.909359 
L 286.024399 261.4956 
L 286.273049 263.279787 
L 287.219833 271.071228 
L 287.411102 271.212286 
L 287.573682 271.021844 
L 287.822332 270.315887 
L 288.204871 268.434682 
L 288.692608 266.263877 
L 288.826497 266.191885 
L 288.845623 266.207781 
L 288.979512 266.503917 
L 289.209035 267.680748 
L 290.069748 272.665422 
L 290.18451 272.594984 
L 290.337525 272.089802 
L 290.586176 270.339005 
L 291.169548 264.019967 
L 291.580777 260.918615 
L 291.838991 260.2999 
L 292.011133 260.321378 
L 292.517997 260.57784 
L 292.699703 260.244775 
L 292.986608 259.146274 
L 293.656051 256.50192 
L 293.828193 256.449253 
L 293.990772 256.715984 
L 294.268113 257.728697 
L 295.234024 262.658878 
L 295.893903 265.528033 
L 296.180808 265.939133 
L 296.429458 265.94245 
L 297.290171 265.740883 
L 297.500567 266.239545 
L 297.863979 267.85255 
L 298.303899 269.465635 
L 298.590803 269.780848 
L 299.308063 270.014019 
L 299.633222 269.837684 
L 299.872308 269.815858 
L 300.044451 270.066022 
L 300.302665 270.932311 
L 300.962544 273.238845 
L 301.498099 274.432075 
L 302.148415 276.353405 
L 302.27274 276.197352 
L 302.473573 275.449325 
L 303.257778 272.046653 
L 303.382103 272.193298 
L 303.5925 272.897784 
L 304.223689 275.18088 
L 304.367141 275.158399 
L 304.539283 274.809539 
L 304.902695 273.406153 
L 305.352179 271.998132 
L 305.65821 271.686119 
L 306.079003 271.327451 
L 306.662375 270.623573 
L 306.681502 270.638488 
L 306.834517 270.937803 
L 307.054477 271.980658 
L 307.437016 275.129152 
L 307.991697 279.260973 
L 308.240348 279.850197 
L 308.374236 279.803927 
L 308.565506 279.392813 
L 309.368838 277.26157 
L 309.387965 277.269718 
L 309.531417 277.475713 
L 309.76094 278.31092 
L 310.774668 282.705898 
L 311.061572 282.842205 
L 311.444111 283.010804 
L 311.711889 283.438291 
L 312.142245 284.646882 
L 312.658672 285.879038 
L 312.92645 286.056184 
L 313.117719 285.94132 
L 313.347243 285.495103 
L 313.720218 284.160215 
L 314.141011 282.939763 
L 314.313153 282.909394 
L 314.485296 283.171905 
L 314.906089 284.386103 
L 315.346009 285.316104 
L 315.671167 285.571587 
L 315.881563 285.500453 
L 316.111086 285.136174 
L 316.990926 283.397146 
L 317.210886 283.592683 
L 317.736877 284.090204 
L 317.947273 283.972535 
L 318.205487 283.50982 
L 318.607153 282.228245 
L 319.075763 280.936423 
L 319.228779 280.930138 
L 319.381794 281.220815 
L 319.640008 282.299711 
L 320.299888 285.165884 
L 320.462467 285.220481 
L 320.47203 285.213249 
L 320.634609 284.92972 
L 320.950204 283.790976 
L 321.390124 282.450915 
L 321.562266 282.414525 
L 321.724845 282.676925 
L 322.01175 283.661786 
L 322.623812 285.755127 
L 322.776827 285.769057 
L 322.92028 285.475168 
L 323.159366 284.358945 
L 323.876627 280.679808 
L 324.067896 280.596132 
L 324.29742 280.829691 
L 324.928609 281.844899 
L 325.186823 282.928578 
L 325.578925 285.754351 
L 326.124043 289.295549 
L 326.36313 289.752015 
L 326.506582 289.679901 
L 326.755232 289.184151 
L 327.089954 288.673527 
L 327.223843 288.781983 
L 327.415112 289.332326 
L 328.228007 292.268519 
L 328.256698 292.255591 
L 328.409713 292.030534 
L 329.11741 290.549055 
L 329.165228 290.583052 
L 329.33737 290.906702 
L 329.633838 292.049743 
L 330.90578 297.540289 
L 331.116176 297.626195 
L 331.307446 297.429747 
L 331.670858 296.644223 
L 332.665459 293.867142 
L 333.63137 290.588422 
L 333.784385 290.699493 
L 334.119107 291.361297 
L 334.386884 291.650262 
L 334.549463 291.533329 
L 334.807677 290.965443 
L 335.218906 290.166842 
L 335.362359 290.241358 
L 335.544065 290.699307 
L 335.869223 292.291132 
L 336.35696 294.433593 
L 336.548229 294.581598 
L 336.701245 294.387375 
L 337.026403 293.463625 
L 337.361124 292.78107 
L 337.504577 292.819217 
L 337.676719 293.179462 
L 337.98275 294.479822 
L 338.585249 296.973381 
L 338.843463 297.25803 
L 339.08255 297.203401 
L 339.952826 296.582549 
L 340.316238 296.453826 
L 340.536198 296.622527 
L 340.823102 297.190373 
L 342.515837 301.821538 
L 342.898376 302.552272 
L 343.147026 302.634536 
L 343.443494 302.455297 
L 344.112937 301.737167 
L 344.505039 300.910813 
L 345.03103 299.890291 
L 345.25099 299.854518 
L 345.547458 300.098837 
L 345.91087 300.305514 
L 346.140393 300.169985 
L 347.029796 299.387038 
L 347.268883 299.694075 
L 347.689676 300.697376 
L 348.320865 302.070535 
L 348.598206 302.234782 
L 348.808602 302.106359 
L 349.085943 301.628888 
L 349.688442 299.993533 
L 350.090108 299.248572 
L 350.310068 299.21017 
L 350.549154 299.449502 
L 351.094272 300.03303 
L 351.275978 299.910531 
L 351.524629 299.400344 
L 352.385341 297.350806 
L 352.54792 297.470403 
L 352.806134 298.029926 
L 353.351252 299.213376 
L 353.571212 299.241161 
L 354.183274 299.09549 
L 354.55625 299.528343 
L 354.862281 299.711441 
L 355.082241 299.57495 
L 355.436089 299.018594 
L 356.354183 297.543061 
L 356.526325 297.601374 
L 356.708031 297.957068 
L 356.994936 299.127661 
L 357.836521 302.861006 
L 358.152116 303.297477 
L 358.41033 303.324447 
L 358.68767 303.101826 
L 359.395367 302.446772 
L 359.624891 302.588694 
L 359.969176 303.138609 
L 360.542984 303.998617 
L 360.906396 304.135463 
L 361.394133 304.325203 
L 362.149648 304.735097 
L 362.417425 304.580697 
L 362.780837 304.063866 
L 363.306828 303.379467 
L 363.555478 303.385627 
L 364.473572 303.701325 
L 364.875238 303.680941 
L 365.257777 303.967087 
L 365.554244 304.058205 
L 365.755077 303.866452 
L 366.041981 303.211171 
L 366.740115 301.533325 
L 366.979202 301.459934 
L 367.246979 301.64901 
L 367.74428 302.337903 
L 368.643246 303.579193 
L 369.073603 303.744584 
L 369.570903 303.707157 
L 370.125585 303.396783 
L 370.508124 303.309807 
L 370.871536 303.478005 
L 371.397527 303.987433 
L 372.038279 304.982025 
L 372.793794 305.998057 
L 373.281531 306.315261 
L 374.237878 306.580028 
L 374.5726 306.423478 
L 375.002956 305.927614 
L 375.911486 304.838682 
L 376.294025 304.779023 
L 376.762635 304.68675 
L 377.508586 304.370918 
L 377.747673 304.681893 
L 378.149339 305.673245 
L 378.770965 307.071006 
L 379.163067 307.440121 
L 379.602987 307.545835 
L 380.138541 307.449363 
L 380.654969 307.118507 
L 381.305285 306.730695 
L 381.640007 306.800234 
L 382.204252 307.218287 
L 382.77806 307.512174 
L 383.485757 307.580908 
L 384.614247 307.485795 
L 385.207182 307.183118 
L 385.924443 306.853874 
L 386.38349 306.902919 
L 387.033806 307.249143 
L 387.483289 307.37756 
L 387.483289 307.37756 
" style="fill:none;stroke:#ff7f0e;stroke-linecap:square;stroke-width:1.5;"/>
   </g>
   <g id="patch_103">
    <path d="M 57.6 307.584 
L 57.6 41.472 
" style="fill:none;stroke:#000000;stroke-linecap:square;stroke-linejoin:miter;stroke-width:0.8;"/>
   </g>
   <g id="patch_104">
    <path d="M 414.72 307.584 
L 414.72 41.472 
" style="fill:none;stroke:#000000;stroke-linecap:square;stroke-linejoin:miter;stroke-width:0.8;"/>
   </g>
   <g id="patch_105">
    <path d="M 57.6 307.584 
L 414.72 307.584 
" style="fill:none;stroke:#000000;stroke-linecap:square;stroke-linejoin:miter;stroke-width:0.8;"/>
   </g>
   <g id="patch_106">
    <path d="M 57.6 41.472 
L 414.72 41.472 
" style="fill:none;stroke:#000000;stroke-linecap:square;stroke-linejoin:miter;stroke-width:0.8;"/>
   </g>
  </g>
 </g>
 <defs>
  <clipPath id="p42313bac32">
   <rect height="266.112" width="357.12" x="57.6" y="41.472"/>
  </clipPath>
 </defs>
</svg>
