<?xml version="1.0" encoding="utf-8" standalone="no"?>
<!DOCTYPE svg PUBLIC "-//W3C//DTD SVG 1.1//EN"
  "http://www.w3.org/Graphics/SVG/1.1/DTD/svg11.dtd">
<!-- Created with matplotlib (https://matplotlib.org/) -->
<svg height="345.6pt" version="1.1" viewBox="0 0 460.8 345.6" width="460.8pt" xmlns="http://www.w3.org/2000/svg" xmlns:xlink="http://www.w3.org/1999/xlink">
 <defs>
  <style type="text/css">
*{stroke-linecap:butt;stroke-linejoin:round;}
  </style>
 </defs>
 <g id="figure_1">
  <g id="patch_1">
   <path d="M 0 345.6 
L 460.8 345.6 
L 460.8 0 
L 0 0 
z
" style="fill:#ffffff;"/>
  </g>
  <g id="axes_1">
   <g id="patch_2">
    <path d="M 57.6 307.584 
L 414.72 307.584 
L 414.72 41.472 
L 57.6 41.472 
z
" style="fill:#ffffff;"/>
   </g>
   <g id="patch_3">
    <path clip-path="url(#p6260c86112)" d="M 73.832727 307.584 
L 77.079276 307.584 
L 77.079276 307.233101 
L 73.832727 307.233101 
z
" style="fill:#1f77b4;"/>
   </g>
   <g id="patch_4">
    <path clip-path="url(#p6260c86112)" d="M 77.07929 307.584 
L 80.325826 307.584 
L 80.325826 307.2331 
L 77.07929 307.2331 
z
" style="fill:#1f77b4;"/>
   </g>
   <g id="patch_5">
    <path clip-path="url(#p6260c86112)" d="M 80.325812 307.584 
L 83.572362 307.584 
L 83.572362 307.057652 
L 80.325812 307.057652 
z
" style="fill:#1f77b4;"/>
   </g>
   <g id="patch_6">
    <path clip-path="url(#p6260c86112)" d="M 83.572362 307.584 
L 86.818911 307.584 
L 86.818911 307.057652 
L 83.572362 307.057652 
z
" style="fill:#1f77b4;"/>
   </g>
   <g id="patch_7">
    <path clip-path="url(#p6260c86112)" d="M 86.818911 307.584 
L 90.06546 307.584 
L 90.06546 307.233101 
L 86.818911 307.233101 
z
" style="fill:#1f77b4;"/>
   </g>
   <g id="patch_8">
    <path clip-path="url(#p6260c86112)" d="M 90.06546 307.584 
L 93.311996 307.584 
L 93.311996 306.531299 
L 90.06546 306.531299 
z
" style="fill:#1f77b4;"/>
   </g>
   <g id="patch_9">
    <path clip-path="url(#p6260c86112)" d="M 93.311996 307.584 
L 96.558545 307.584 
L 96.558545 306.355854 
L 93.311996 306.355854 
z
" style="fill:#1f77b4;"/>
   </g>
   <g id="patch_10">
    <path clip-path="url(#p6260c86112)" d="M 96.558545 307.584 
L 99.805094 307.584 
L 99.805094 303.724113 
L 96.558545 303.724113 
z
" style="fill:#1f77b4;"/>
   </g>
   <g id="patch_11">
    <path clip-path="url(#p6260c86112)" d="M 99.805107 307.584 
L 103.051643 307.584 
L 103.051643 303.899547 
L 99.805107 303.899547 
z
" style="fill:#1f77b4;"/>
   </g>
   <g id="patch_12">
    <path clip-path="url(#p6260c86112)" d="M 103.05163 307.584 
L 106.298179 307.584 
L 106.298179 301.969619 
L 103.05163 301.969619 
z
" style="fill:#1f77b4;"/>
   </g>
   <g id="patch_13">
    <path clip-path="url(#p6260c86112)" d="M 106.298179 307.584 
L 109.544728 307.584 
L 109.544728 301.79417 
L 106.298179 301.79417 
z
" style="fill:#1f77b4;"/>
   </g>
   <g id="patch_14">
    <path clip-path="url(#p6260c86112)" d="M 109.544728 307.584 
L 112.791277 307.584 
L 112.791277 301.969619 
L 109.544728 301.969619 
z
" style="fill:#1f77b4;"/>
   </g>
   <g id="patch_15">
    <path clip-path="url(#p6260c86112)" d="M 112.791277 307.584 
L 116.037813 307.584 
L 116.037813 302.495946 
L 112.791277 302.495946 
z
" style="fill:#1f77b4;"/>
   </g>
   <g id="patch_16">
    <path clip-path="url(#p6260c86112)" d="M 116.037813 307.584 
L 119.284363 307.584 
L 119.284363 301.969619 
L 116.037813 301.969619 
z
" style="fill:#1f77b4;"/>
   </g>
   <g id="patch_17">
    <path clip-path="url(#p6260c86112)" d="M 119.284363 307.584 
L 122.530912 307.584 
L 122.530912 301.61872 
L 119.284363 301.61872 
z
" style="fill:#1f77b4;"/>
   </g>
   <g id="patch_18">
    <path clip-path="url(#p6260c86112)" d="M 122.530912 307.584 
L 125.777461 307.584 
L 125.777461 301.969619 
L 122.530912 301.969619 
z
" style="fill:#1f77b4;"/>
   </g>
   <g id="patch_19">
    <path clip-path="url(#p6260c86112)" d="M 125.777461 307.584 
L 129.023997 307.584 
L 129.023997 304.074998 
L 125.777461 304.074998 
z
" style="fill:#1f77b4;"/>
   </g>
   <g id="patch_20">
    <path clip-path="url(#p6260c86112)" d="M 129.023997 307.584 
L 132.270546 307.584 
L 132.270546 303.022315 
L 129.023997 303.022315 
z
" style="fill:#1f77b4;"/>
   </g>
   <g id="patch_21">
    <path clip-path="url(#p6260c86112)" d="M 132.270546 307.584 
L 135.517089 307.584 
L 135.517089 299.86421 
L 132.270546 299.86421 
z
" style="fill:#1f77b4;"/>
   </g>
   <g id="patch_22">
    <path clip-path="url(#p6260c86112)" d="M 135.517089 307.584 
L 138.763638 307.584 
L 138.763638 300.039675 
L 135.517089 300.039675 
z
" style="fill:#1f77b4;"/>
   </g>
   <g id="patch_23">
    <path clip-path="url(#p6260c86112)" d="M 138.763631 307.584 
L 142.010174 307.584 
L 142.010174 295.477966 
L 138.763631 295.477966 
z
" style="fill:#1f77b4;"/>
   </g>
   <g id="patch_24">
    <path clip-path="url(#p6260c86112)" d="M 142.01018 307.584 
L 145.256729 307.584 
L 145.256729 296.004339 
L 142.01018 296.004339 
z
" style="fill:#1f77b4;"/>
   </g>
   <g id="patch_25">
    <path clip-path="url(#p6260c86112)" d="M 145.256729 307.584 
L 148.503272 307.584 
L 148.503272 296.530665 
L 145.256729 296.530665 
z
" style="fill:#1f77b4;"/>
   </g>
   <g id="patch_26">
    <path clip-path="url(#p6260c86112)" d="M 148.503272 307.584 
L 151.749821 307.584 
L 151.749821 295.302541 
L 148.503272 295.302541 
z
" style="fill:#1f77b4;"/>
   </g>
   <g id="patch_27">
    <path clip-path="url(#p6260c86112)" d="M 151.749814 307.584 
L 154.996357 307.584 
L 154.996357 290.565373 
L 151.749814 290.565373 
z
" style="fill:#1f77b4;"/>
   </g>
   <g id="patch_28">
    <path clip-path="url(#p6260c86112)" d="M 154.996364 307.584 
L 158.242906 307.584 
L 158.242906 281.792885 
L 154.996364 281.792885 
z
" style="fill:#1f77b4;"/>
   </g>
   <g id="patch_29">
    <path clip-path="url(#p6260c86112)" d="M 158.242906 307.584 
L 161.489455 307.584 
L 161.489455 281.617488 
L 158.242906 281.617488 
z
" style="fill:#1f77b4;"/>
   </g>
   <g id="patch_30">
    <path clip-path="url(#p6260c86112)" d="M 161.489449 307.584 
L 164.735991 307.584 
L 164.735991 282.494684 
L 161.489449 282.494684 
z
" style="fill:#1f77b4;"/>
   </g>
   <g id="patch_31">
    <path clip-path="url(#p6260c86112)" d="M 164.735998 307.584 
L 167.982547 307.584 
L 167.982547 286.354622 
L 164.735998 286.354622 
z
" style="fill:#1f77b4;"/>
   </g>
   <g id="patch_32">
    <path clip-path="url(#p6260c86112)" d="M 167.982547 307.584 
L 171.22909 307.584 
L 171.22909 282.143784 
L 167.982547 282.143784 
z
" style="fill:#1f77b4;"/>
   </g>
   <g id="patch_33">
    <path clip-path="url(#p6260c86112)" d="M 171.22909 307.584 
L 174.475639 307.584 
L 174.475639 283.021083 
L 171.22909 283.021083 
z
" style="fill:#1f77b4;"/>
   </g>
   <g id="patch_34">
    <path clip-path="url(#p6260c86112)" d="M 174.475632 307.584 
L 177.722175 307.584 
L 177.722175 284.249181 
L 174.475632 284.249181 
z
" style="fill:#1f77b4;"/>
   </g>
   <g id="patch_35">
    <path clip-path="url(#p6260c86112)" d="M 177.722181 307.584 
L 180.96873 307.584 
L 180.96873 278.634848 
L 177.722181 278.634848 
z
" style="fill:#1f77b4;"/>
   </g>
   <g id="patch_36">
    <path clip-path="url(#p6260c86112)" d="M 180.96873 307.584 
L 184.215273 307.584 
L 184.215273 272.494047 
L 180.96873 272.494047 
z
" style="fill:#1f77b4;"/>
   </g>
   <g id="patch_37">
    <path clip-path="url(#p6260c86112)" d="M 184.215273 307.584 
L 187.461819 307.584 
L 187.461819 273.897679 
L 184.215273 273.897679 
z
" style="fill:#1f77b4;"/>
   </g>
   <g id="patch_38">
    <path clip-path="url(#p6260c86112)" d="M 187.461816 307.584 
L 190.708361 307.584 
L 190.708361 272.494083 
L 187.461816 272.494083 
z
" style="fill:#1f77b4;"/>
   </g>
   <g id="patch_39">
    <path clip-path="url(#p6260c86112)" d="M 190.708365 307.584 
L 193.954911 307.584 
L 193.954911 272.844982 
L 190.708365 272.844982 
z
" style="fill:#1f77b4;"/>
   </g>
   <g id="patch_40">
    <path clip-path="url(#p6260c86112)" d="M 193.954911 307.584 
L 197.201453 307.584 
L 197.201453 264.949707 
L 193.954911 264.949707 
z
" style="fill:#1f77b4;"/>
   </g>
   <g id="patch_41">
    <path clip-path="url(#p6260c86112)" d="M 197.20145 307.584 
L 200.447996 307.584 
L 200.447996 261.08986 
L 197.20145 261.08986 
z
" style="fill:#1f77b4;"/>
   </g>
   <g id="patch_42">
    <path clip-path="url(#p6260c86112)" d="M 200.447999 307.584 
L 203.694545 307.584 
L 203.694545 255.300023 
L 200.447999 255.300023 
z
" style="fill:#1f77b4;"/>
   </g>
   <g id="patch_43">
    <path clip-path="url(#p6260c86112)" d="M 203.694541 307.584 
L 206.941087 307.584 
L 206.941087 254.773674 
L 203.694541 254.773674 
z
" style="fill:#1f77b4;"/>
   </g>
   <g id="patch_44">
    <path clip-path="url(#p6260c86112)" d="M 206.941091 307.584 
L 210.187636 307.584 
L 210.187636 248.983838 
L 206.941091 248.983838 
z
" style="fill:#1f77b4;"/>
   </g>
   <g id="patch_45">
    <path clip-path="url(#p6260c86112)" d="M 210.187636 307.584 
L 213.434182 307.584 
L 213.434182 249.861086 
L 210.187636 249.861086 
z
" style="fill:#1f77b4;"/>
   </g>
   <g id="patch_46">
    <path clip-path="url(#p6260c86112)" d="M 213.434182 307.584 
L 216.680727 307.584 
L 216.680727 236.000532 
L 213.434182 236.000532 
z
" style="fill:#1f77b4;"/>
   </g>
   <g id="patch_47">
    <path clip-path="url(#p6260c86112)" d="M 216.680727 307.584 
L 219.927272 307.584 
L 219.927272 232.491577 
L 216.680727 232.491577 
z
" style="fill:#1f77b4;"/>
   </g>
   <g id="patch_48">
    <path clip-path="url(#p6260c86112)" d="M 219.927272 307.584 
L 223.173818 307.584 
L 223.173818 226.70174 
L 219.927272 226.70174 
z
" style="fill:#1f77b4;"/>
   </g>
   <g id="patch_49">
    <path clip-path="url(#p6260c86112)" d="M 223.173818 307.584 
L 226.420363 307.584 
L 226.420363 225.824472 
L 223.173818 225.824472 
z
" style="fill:#1f77b4;"/>
   </g>
   <g id="patch_50">
    <path clip-path="url(#p6260c86112)" d="M 226.420363 307.584 
L 229.666909 307.584 
L 229.666909 216.701114 
L 226.420363 216.701114 
z
" style="fill:#1f77b4;"/>
   </g>
   <g id="patch_51">
    <path clip-path="url(#p6260c86112)" d="M 229.666909 307.584 
L 232.913455 307.584 
L 232.913455 205.823227 
L 229.666909 205.823227 
z
" style="fill:#1f77b4;"/>
   </g>
   <g id="patch_52">
    <path clip-path="url(#p6260c86112)" d="M 232.913454 307.584 
L 236.16 307.584 
L 236.16 191.787258 
L 232.913454 191.787258 
z
" style="fill:#1f77b4;"/>
   </g>
   <g id="patch_53">
    <path clip-path="url(#p6260c86112)" d="M 236.16 307.584 
L 239.406545 307.584 
L 239.406545 137.748778 
L 236.16 137.748778 
z
" style="fill:#1f77b4;"/>
   </g>
   <g id="patch_54">
    <path clip-path="url(#p6260c86112)" d="M 239.406545 307.584 
L 242.653091 307.584 
L 242.653091 202.138785 
L 239.406545 202.138785 
z
" style="fill:#1f77b4;"/>
   </g>
   <g id="patch_55">
    <path clip-path="url(#p6260c86112)" d="M 242.653091 307.584 
L 245.899637 307.584 
L 245.899637 222.84185 
L 242.653091 222.84185 
z
" style="fill:#1f77b4;"/>
   </g>
   <g id="patch_56">
    <path clip-path="url(#p6260c86112)" d="M 245.899636 307.584 
L 249.146181 307.584 
L 249.146181 213.016649 
L 245.899636 213.016649 
z
" style="fill:#1f77b4;"/>
   </g>
   <g id="patch_57">
    <path clip-path="url(#p6260c86112)" d="M 249.146182 307.584 
L 252.392728 307.584 
L 252.392728 225.824493 
L 249.146182 225.824493 
z
" style="fill:#1f77b4;"/>
   </g>
   <g id="patch_58">
    <path clip-path="url(#p6260c86112)" d="M 252.392728 307.584 
L 255.639273 307.584 
L 255.639273 216.701114 
L 252.392728 216.701114 
z
" style="fill:#1f77b4;"/>
   </g>
   <g id="patch_59">
    <path clip-path="url(#p6260c86112)" d="M 255.639275 307.584 
L 258.885819 307.584 
L 258.885819 232.666988 
L 255.639275 232.666988 
z
" style="fill:#1f77b4;"/>
   </g>
   <g id="patch_60">
    <path clip-path="url(#p6260c86112)" d="M 258.885818 307.584 
L 262.132364 307.584 
L 262.132364 238.105964 
L 258.885818 238.105964 
z
" style="fill:#1f77b4;"/>
   </g>
   <g id="patch_61">
    <path clip-path="url(#p6260c86112)" d="M 262.132364 307.584 
L 265.378909 307.584 
L 265.378909 237.579615 
L 262.132364 237.579615 
z
" style="fill:#1f77b4;"/>
   </g>
   <g id="patch_62">
    <path clip-path="url(#p6260c86112)" d="M 265.378911 307.584 
L 268.625459 307.584 
L 268.625459 247.404792 
L 265.378911 247.404792 
z
" style="fill:#1f77b4;"/>
   </g>
   <g id="patch_63">
    <path clip-path="url(#p6260c86112)" d="M 268.625452 307.584 
L 271.871998 307.584 
L 271.871998 251.615582 
L 268.625452 251.615582 
z
" style="fill:#1f77b4;"/>
   </g>
   <g id="patch_64">
    <path clip-path="url(#p6260c86112)" d="M 271.872001 307.584 
L 275.118547 307.584 
L 275.118547 254.071876 
L 271.872001 254.071876 
z
" style="fill:#1f77b4;"/>
   </g>
   <g id="patch_65">
    <path clip-path="url(#p6260c86112)" d="M 275.118547 307.584 
L 278.365089 307.584 
L 278.365089 255.29997 
L 275.118547 255.29997 
z
" style="fill:#1f77b4;"/>
   </g>
   <g id="patch_66">
    <path clip-path="url(#p6260c86112)" d="M 278.365086 307.584 
L 281.611632 307.584 
L 281.611632 260.73896 
L 278.365086 260.73896 
z
" style="fill:#1f77b4;"/>
   </g>
   <g id="patch_67">
    <path clip-path="url(#p6260c86112)" d="M 281.611635 307.584 
L 284.858181 307.584 
L 284.858181 265.30065 
L 281.611635 265.30065 
z
" style="fill:#1f77b4;"/>
   </g>
   <g id="patch_68">
    <path clip-path="url(#p6260c86112)" d="M 284.858178 307.584 
L 288.104724 307.584 
L 288.104724 257.405418 
L 284.858178 257.405418 
z
" style="fill:#1f77b4;"/>
   </g>
   <g id="patch_69">
    <path clip-path="url(#p6260c86112)" d="M 288.104727 307.584 
L 291.351273 307.584 
L 291.351273 262.844355 
L 288.104727 262.844355 
z
" style="fill:#1f77b4;"/>
   </g>
   <g id="patch_70">
    <path clip-path="url(#p6260c86112)" d="M 291.35127 307.584 
L 294.597819 307.584 
L 294.597819 270.564137 
L 291.35127 270.564137 
z
" style="fill:#1f77b4;"/>
   </g>
   <g id="patch_71">
    <path clip-path="url(#p6260c86112)" d="M 294.597819 307.584 
L 297.844361 307.584 
L 297.844361 270.38865 
L 294.597819 270.38865 
z
" style="fill:#1f77b4;"/>
   </g>
   <g id="patch_72">
    <path clip-path="url(#p6260c86112)" d="M 297.844361 307.584 
L 301.09091 307.584 
L 301.09091 275.476758 
L 297.844361 275.476758 
z
" style="fill:#1f77b4;"/>
   </g>
   <g id="patch_73">
    <path clip-path="url(#p6260c86112)" d="M 301.090904 307.584 
L 304.337446 307.584 
L 304.337446 282.319234 
L 301.090904 282.319234 
z
" style="fill:#1f77b4;"/>
   </g>
   <g id="patch_74">
    <path clip-path="url(#p6260c86112)" d="M 304.337453 307.584 
L 307.584002 307.584 
L 307.584002 283.371982 
L 304.337453 283.371982 
z
" style="fill:#1f77b4;"/>
   </g>
   <g id="patch_75">
    <path clip-path="url(#p6260c86112)" d="M 307.584002 307.584 
L 310.830545 307.584 
L 310.830545 279.687487 
L 307.584002 279.687487 
z
" style="fill:#1f77b4;"/>
   </g>
   <g id="patch_76">
    <path clip-path="url(#p6260c86112)" d="M 310.830545 307.584 
L 314.077094 307.584 
L 314.077094 282.670184 
L 310.830545 282.670184 
z
" style="fill:#1f77b4;"/>
   </g>
   <g id="patch_77">
    <path clip-path="url(#p6260c86112)" d="M 314.077087 307.584 
L 317.32363 307.584 
L 317.32363 281.617435 
L 314.077087 281.617435 
z
" style="fill:#1f77b4;"/>
   </g>
   <g id="patch_78">
    <path clip-path="url(#p6260c86112)" d="M 317.323636 307.584 
L 320.570179 307.584 
L 320.570179 284.600081 
L 317.323636 284.600081 
z
" style="fill:#1f77b4;"/>
   </g>
   <g id="patch_79">
    <path clip-path="url(#p6260c86112)" d="M 320.570179 307.584 
L 323.816728 307.584 
L 323.816728 293.723497 
L 320.570179 293.723497 
z
" style="fill:#1f77b4;"/>
   </g>
   <g id="patch_80">
    <path clip-path="url(#p6260c86112)" d="M 323.816721 307.584 
L 327.063264 307.584 
L 327.063264 288.459976 
L 323.816721 288.459976 
z
" style="fill:#1f77b4;"/>
   </g>
   <g id="patch_81">
    <path clip-path="url(#p6260c86112)" d="M 327.063271 307.584 
L 330.30982 307.584 
L 330.30982 293.548047 
L 327.063271 293.548047 
z
" style="fill:#1f77b4;"/>
   </g>
   <g id="patch_82">
    <path clip-path="url(#p6260c86112)" d="M 330.30982 307.584 
L 333.556362 307.584 
L 333.556362 296.355215 
L 330.30982 296.355215 
z
" style="fill:#1f77b4;"/>
   </g>
   <g id="patch_83">
    <path clip-path="url(#p6260c86112)" d="M 333.556362 307.584 
L 336.802911 307.584 
L 336.802911 296.355238 
L 333.556362 296.355238 
z
" style="fill:#1f77b4;"/>
   </g>
   <g id="patch_84">
    <path clip-path="url(#p6260c86112)" d="M 336.802905 307.584 
L 340.049447 307.584 
L 340.049447 298.811512 
L 336.802905 298.811512 
z
" style="fill:#1f77b4;"/>
   </g>
   <g id="patch_85">
    <path clip-path="url(#p6260c86112)" d="M 340.049454 307.584 
L 343.296003 307.584 
L 343.296003 294.776193 
L 340.049454 294.776193 
z
" style="fill:#1f77b4;"/>
   </g>
   <g id="patch_86">
    <path clip-path="url(#p6260c86112)" d="M 343.296003 307.584 
L 346.542546 307.584 
L 346.542546 296.706115 
L 343.296003 296.706115 
z
" style="fill:#1f77b4;"/>
   </g>
   <g id="patch_87">
    <path clip-path="url(#p6260c86112)" d="M 346.542539 307.584 
L 349.789075 307.584 
L 349.789075 297.407914 
L 346.542539 297.407914 
z
" style="fill:#1f77b4;"/>
   </g>
   <g id="patch_88">
    <path clip-path="url(#p6260c86112)" d="M 349.789088 307.584 
L 353.035637 307.584 
L 353.035637 299.864226 
L 349.789088 299.864226 
z
" style="fill:#1f77b4;"/>
   </g>
   <g id="patch_89">
    <path clip-path="url(#p6260c86112)" d="M 353.035637 307.584 
L 356.282187 307.584 
L 356.282187 301.267821 
L 353.035637 301.267821 
z
" style="fill:#1f77b4;"/>
   </g>
   <g id="patch_90">
    <path clip-path="url(#p6260c86112)" d="M 356.2822 307.584 
L 359.528736 307.584 
L 359.528736 300.039645 
L 356.2822 300.039645 
z
" style="fill:#1f77b4;"/>
   </g>
   <g id="patch_91">
    <path clip-path="url(#p6260c86112)" d="M 359.528723 307.584 
L 362.775272 307.584 
L 362.775272 302.495967 
L 359.528723 302.495967 
z
" style="fill:#1f77b4;"/>
   </g>
   <g id="patch_92">
    <path clip-path="url(#p6260c86112)" d="M 362.775272 307.584 
L 366.021821 307.584 
L 366.021821 303.548664 
L 362.775272 303.548664 
z
" style="fill:#1f77b4;"/>
   </g>
   <g id="patch_93">
    <path clip-path="url(#p6260c86112)" d="M 366.021821 307.584 
L 369.26837 307.584 
L 369.26837 301.79417 
L 366.021821 301.79417 
z
" style="fill:#1f77b4;"/>
   </g>
   <g id="patch_94">
    <path clip-path="url(#p6260c86112)" d="M 369.26837 307.584 
L 372.514906 307.584 
L 372.514906 304.425898 
L 369.26837 304.425898 
z
" style="fill:#1f77b4;"/>
   </g>
   <g id="patch_95">
    <path clip-path="url(#p6260c86112)" d="M 372.514906 307.584 
L 375.761455 307.584 
L 375.761455 306.004955 
L 372.514906 306.004955 
z
" style="fill:#1f77b4;"/>
   </g>
   <g id="patch_96">
    <path clip-path="url(#p6260c86112)" d="M 375.761455 307.584 
L 379.008004 307.584 
L 379.008004 306.531304 
L 375.761455 306.531304 
z
" style="fill:#1f77b4;"/>
   </g>
   <g id="patch_97">
    <path clip-path="url(#p6260c86112)" d="M 379.008017 307.584 
L 382.254553 307.584 
L 382.254553 306.531299 
L 379.008017 306.531299 
z
" style="fill:#1f77b4;"/>
   </g>
   <g id="patch_98">
    <path clip-path="url(#p6260c86112)" d="M 382.25454 307.584 
L 385.501089 307.584 
L 385.501089 306.531304 
L 382.25454 306.531304 
z
" style="fill:#1f77b4;"/>
   </g>
   <g id="patch_99">
    <path clip-path="url(#p6260c86112)" d="M 385.501089 307.584 
L 388.747638 307.584 
L 388.747638 307.233101 
L 385.501089 307.233101 
z
" style="fill:#1f77b4;"/>
   </g>
   <g id="patch_100">
    <path clip-path="url(#p6260c86112)" d="M 388.747638 307.584 
L 391.994188 307.584 
L 391.994188 306.355854 
L 388.747638 306.355854 
z
" style="fill:#1f77b4;"/>
   </g>
   <g id="patch_101">
    <path clip-path="url(#p6260c86112)" d="M 391.994188 307.584 
L 395.240724 307.584 
L 395.240724 307.05765 
L 391.994188 307.05765 
z
" style="fill:#1f77b4;"/>
   </g>
   <g id="patch_102">
    <path clip-path="url(#p6260c86112)" d="M 395.240724 307.584 
L 398.487273 307.584 
L 398.487273 306.882202 
L 395.240724 306.882202 
z
" style="fill:#1f77b4;"/>
   </g>
   <g id="matplotlib.axis_1">
    <g id="xtick_1">
     <g id="line2d_1">
      <defs>
       <path d="M 0 0 
L 0 3.5 
" id="m0913ea6371" style="stroke:#000000;stroke-width:0.8;"/>
      </defs>
      <g>
       <use style="stroke:#000000;stroke-width:0.8;" x="71.966415" xlink:href="#m0913ea6371" y="307.584"/>
      </g>
     </g>
     <g id="text_1">
      <!-- −3 -->
      <defs>
       <path d="M 10.59375 35.5 
L 73.1875 35.5 
L 73.1875 27.203125 
L 10.59375 27.203125 
z
" id="DejaVuSans-8722"/>
       <path d="M 40.578125 39.3125 
Q 47.65625 37.796875 51.625 33 
Q 55.609375 28.21875 55.609375 21.1875 
Q 55.609375 10.40625 48.1875 4.484375 
Q 40.765625 -1.421875 27.09375 -1.421875 
Q 22.515625 -1.421875 17.65625 -0.515625 
Q 12.796875 0.390625 7.625 2.203125 
L 7.625 11.71875 
Q 11.71875 9.328125 16.59375 8.109375 
Q 21.484375 6.890625 26.8125 6.890625 
Q 36.078125 6.890625 40.9375 10.546875 
Q 45.796875 14.203125 45.796875 21.1875 
Q 45.796875 27.640625 41.28125 31.265625 
Q 36.765625 34.90625 28.71875 34.90625 
L 20.21875 34.90625 
L 20.21875 43.015625 
L 29.109375 43.015625 
Q 36.375 43.015625 40.234375 45.921875 
Q 44.09375 48.828125 44.09375 54.296875 
Q 44.09375 59.90625 40.109375 62.90625 
Q 36.140625 65.921875 28.71875 65.921875 
Q 24.65625 65.921875 20.015625 65.03125 
Q 15.375 64.15625 9.8125 62.3125 
L 9.8125 71.09375 
Q 15.4375 72.65625 20.34375 73.4375 
Q 25.25 74.21875 29.59375 74.21875 
Q 40.828125 74.21875 47.359375 69.109375 
Q 53.90625 64.015625 53.90625 55.328125 
Q 53.90625 49.265625 50.4375 45.09375 
Q 46.96875 40.921875 40.578125 39.3125 
z
" id="DejaVuSans-51"/>
      </defs>
      <g transform="translate(59.435556 327.501344)scale(0.17 -0.17)">
       <use xlink:href="#DejaVuSans-8722"/>
       <use x="83.789062" xlink:href="#DejaVuSans-51"/>
      </g>
     </g>
    </g>
    <g id="xtick_2">
     <g id="line2d_2">
      <g>
       <use style="stroke:#000000;stroke-width:0.8;" x="127.325081" xlink:href="#m0913ea6371" y="307.584"/>
      </g>
     </g>
     <g id="text_2">
      <!-- −2 -->
      <defs>
       <path d="M 19.1875 8.296875 
L 53.609375 8.296875 
L 53.609375 0 
L 7.328125 0 
L 7.328125 8.296875 
Q 12.9375 14.109375 22.625 23.890625 
Q 32.328125 33.6875 34.8125 36.53125 
Q 39.546875 41.84375 41.421875 45.53125 
Q 43.3125 49.21875 43.3125 52.78125 
Q 43.3125 58.59375 39.234375 62.25 
Q 35.15625 65.921875 28.609375 65.921875 
Q 23.96875 65.921875 18.8125 64.3125 
Q 13.671875 62.703125 7.8125 59.421875 
L 7.8125 69.390625 
Q 13.765625 71.78125 18.9375 73 
Q 24.125 74.21875 28.421875 74.21875 
Q 39.75 74.21875 46.484375 68.546875 
Q 53.21875 62.890625 53.21875 53.421875 
Q 53.21875 48.921875 51.53125 44.890625 
Q 49.859375 40.875 45.40625 35.40625 
Q 44.1875 33.984375 37.640625 27.21875 
Q 31.109375 20.453125 19.1875 8.296875 
z
" id="DejaVuSans-50"/>
      </defs>
      <g transform="translate(114.794222 327.501344)scale(0.17 -0.17)">
       <use xlink:href="#DejaVuSans-8722"/>
       <use x="83.789062" xlink:href="#DejaVuSans-50"/>
      </g>
     </g>
    </g>
    <g id="xtick_3">
     <g id="line2d_3">
      <g>
       <use style="stroke:#000000;stroke-width:0.8;" x="182.683748" xlink:href="#m0913ea6371" y="307.584"/>
      </g>
     </g>
     <g id="text_3">
      <!-- −1 -->
      <defs>
       <path d="M 12.40625 8.296875 
L 28.515625 8.296875 
L 28.515625 63.921875 
L 10.984375 60.40625 
L 10.984375 69.390625 
L 28.421875 72.90625 
L 38.28125 72.90625 
L 38.28125 8.296875 
L 54.390625 8.296875 
L 54.390625 0 
L 12.40625 0 
z
" id="DejaVuSans-49"/>
      </defs>
      <g transform="translate(170.152889 327.501344)scale(0.17 -0.17)">
       <use xlink:href="#DejaVuSans-8722"/>
       <use x="83.789062" xlink:href="#DejaVuSans-49"/>
      </g>
     </g>
    </g>
    <g id="xtick_4">
     <g id="line2d_4">
      <g>
       <use style="stroke:#000000;stroke-width:0.8;" x="238.042415" xlink:href="#m0913ea6371" y="307.584"/>
      </g>
     </g>
     <g id="text_4">
      <!-- 0 -->
      <defs>
       <path d="M 31.78125 66.40625 
Q 24.171875 66.40625 20.328125 58.90625 
Q 16.5 51.421875 16.5 36.375 
Q 16.5 21.390625 20.328125 13.890625 
Q 24.171875 6.390625 31.78125 6.390625 
Q 39.453125 6.390625 43.28125 13.890625 
Q 47.125 21.390625 47.125 36.375 
Q 47.125 51.421875 43.28125 58.90625 
Q 39.453125 66.40625 31.78125 66.40625 
z
M 31.78125 74.21875 
Q 44.046875 74.21875 50.515625 64.515625 
Q 56.984375 54.828125 56.984375 36.375 
Q 56.984375 17.96875 50.515625 8.265625 
Q 44.046875 -1.421875 31.78125 -1.421875 
Q 19.53125 -1.421875 13.0625 8.265625 
Q 6.59375 17.96875 6.59375 36.375 
Q 6.59375 54.828125 13.0625 64.515625 
Q 19.53125 74.21875 31.78125 74.21875 
z
" id="DejaVuSans-48"/>
      </defs>
      <g transform="translate(232.63429 327.501344)scale(0.17 -0.17)">
       <use xlink:href="#DejaVuSans-48"/>
      </g>
     </g>
    </g>
    <g id="xtick_5">
     <g id="line2d_5">
      <g>
       <use style="stroke:#000000;stroke-width:0.8;" x="293.401081" xlink:href="#m0913ea6371" y="307.584"/>
      </g>
     </g>
     <g id="text_5">
      <!-- 1 -->
      <g transform="translate(287.992956 327.501344)scale(0.17 -0.17)">
       <use xlink:href="#DejaVuSans-49"/>
      </g>
     </g>
    </g>
    <g id="xtick_6">
     <g id="line2d_6">
      <g>
       <use style="stroke:#000000;stroke-width:0.8;" x="348.759748" xlink:href="#m0913ea6371" y="307.584"/>
      </g>
     </g>
     <g id="text_6">
      <!-- 2 -->
      <g transform="translate(343.351623 327.501344)scale(0.17 -0.17)">
       <use xlink:href="#DejaVuSans-50"/>
      </g>
     </g>
    </g>
    <g id="xtick_7">
     <g id="line2d_7">
      <g>
       <use style="stroke:#000000;stroke-width:0.8;" x="404.118414" xlink:href="#m0913ea6371" y="307.584"/>
      </g>
     </g>
     <g id="text_7">
      <!-- 3 -->
      <g transform="translate(398.710289 327.501344)scale(0.17 -0.17)">
       <use xlink:href="#DejaVuSans-51"/>
      </g>
     </g>
    </g>
    <g id="text_8">
     <!-- Position in Radian -->
     <defs>
      <path d="M 19.671875 64.796875 
L 19.671875 37.40625 
L 32.078125 37.40625 
Q 38.96875 37.40625 42.71875 40.96875 
Q 46.484375 44.53125 46.484375 51.125 
Q 46.484375 57.671875 42.71875 61.234375 
Q 38.96875 64.796875 32.078125 64.796875 
z
M 9.8125 72.90625 
L 32.078125 72.90625 
Q 44.34375 72.90625 50.609375 67.359375 
Q 56.890625 61.8125 56.890625 51.125 
Q 56.890625 40.328125 50.609375 34.8125 
Q 44.34375 29.296875 32.078125 29.296875 
L 19.671875 29.296875 
L 19.671875 0 
L 9.8125 0 
z
" id="DejaVuSans-80"/>
      <path d="M 30.609375 48.390625 
Q 23.390625 48.390625 19.1875 42.75 
Q 14.984375 37.109375 14.984375 27.296875 
Q 14.984375 17.484375 19.15625 11.84375 
Q 23.34375 6.203125 30.609375 6.203125 
Q 37.796875 6.203125 41.984375 11.859375 
Q 46.1875 17.53125 46.1875 27.296875 
Q 46.1875 37.015625 41.984375 42.703125 
Q 37.796875 48.390625 30.609375 48.390625 
z
M 30.609375 56 
Q 42.328125 56 49.015625 48.375 
Q 55.71875 40.765625 55.71875 27.296875 
Q 55.71875 13.875 49.015625 6.21875 
Q 42.328125 -1.421875 30.609375 -1.421875 
Q 18.84375 -1.421875 12.171875 6.21875 
Q 5.515625 13.875 5.515625 27.296875 
Q 5.515625 40.765625 12.171875 48.375 
Q 18.84375 56 30.609375 56 
z
" id="DejaVuSans-111"/>
      <path d="M 44.28125 53.078125 
L 44.28125 44.578125 
Q 40.484375 46.53125 36.375 47.5 
Q 32.28125 48.484375 27.875 48.484375 
Q 21.1875 48.484375 17.84375 46.4375 
Q 14.5 44.390625 14.5 40.28125 
Q 14.5 37.15625 16.890625 35.375 
Q 19.28125 33.59375 26.515625 31.984375 
L 29.59375 31.296875 
Q 39.15625 29.25 43.1875 25.515625 
Q 47.21875 21.78125 47.21875 15.09375 
Q 47.21875 7.46875 41.1875 3.015625 
Q 35.15625 -1.421875 24.609375 -1.421875 
Q 20.21875 -1.421875 15.453125 -0.5625 
Q 10.6875 0.296875 5.421875 2 
L 5.421875 11.28125 
Q 10.40625 8.6875 15.234375 7.390625 
Q 20.0625 6.109375 24.8125 6.109375 
Q 31.15625 6.109375 34.5625 8.28125 
Q 37.984375 10.453125 37.984375 14.40625 
Q 37.984375 18.0625 35.515625 20.015625 
Q 33.0625 21.96875 24.703125 23.78125 
L 21.578125 24.515625 
Q 13.234375 26.265625 9.515625 29.90625 
Q 5.8125 33.546875 5.8125 39.890625 
Q 5.8125 47.609375 11.28125 51.796875 
Q 16.75 56 26.8125 56 
Q 31.78125 56 36.171875 55.265625 
Q 40.578125 54.546875 44.28125 53.078125 
z
" id="DejaVuSans-115"/>
      <path d="M 9.421875 54.6875 
L 18.40625 54.6875 
L 18.40625 0 
L 9.421875 0 
z
M 9.421875 75.984375 
L 18.40625 75.984375 
L 18.40625 64.59375 
L 9.421875 64.59375 
z
" id="DejaVuSans-105"/>
      <path d="M 18.3125 70.21875 
L 18.3125 54.6875 
L 36.8125 54.6875 
L 36.8125 47.703125 
L 18.3125 47.703125 
L 18.3125 18.015625 
Q 18.3125 11.328125 20.140625 9.421875 
Q 21.96875 7.515625 27.59375 7.515625 
L 36.8125 7.515625 
L 36.8125 0 
L 27.59375 0 
Q 17.1875 0 13.234375 3.875 
Q 9.28125 7.765625 9.28125 18.015625 
L 9.28125 47.703125 
L 2.6875 47.703125 
L 2.6875 54.6875 
L 9.28125 54.6875 
L 9.28125 70.21875 
z
" id="DejaVuSans-116"/>
      <path d="M 54.890625 33.015625 
L 54.890625 0 
L 45.90625 0 
L 45.90625 32.71875 
Q 45.90625 40.484375 42.875 44.328125 
Q 39.84375 48.1875 33.796875 48.1875 
Q 26.515625 48.1875 22.3125 43.546875 
Q 18.109375 38.921875 18.109375 30.90625 
L 18.109375 0 
L 9.078125 0 
L 9.078125 54.6875 
L 18.109375 54.6875 
L 18.109375 46.1875 
Q 21.34375 51.125 25.703125 53.5625 
Q 30.078125 56 35.796875 56 
Q 45.21875 56 50.046875 50.171875 
Q 54.890625 44.34375 54.890625 33.015625 
z
" id="DejaVuSans-110"/>
      <path id="DejaVuSans-32"/>
      <path d="M 44.390625 34.1875 
Q 47.5625 33.109375 50.5625 29.59375 
Q 53.5625 26.078125 56.59375 19.921875 
L 66.609375 0 
L 56 0 
L 46.6875 18.703125 
Q 43.0625 26.03125 39.671875 28.421875 
Q 36.28125 30.8125 30.421875 30.8125 
L 19.671875 30.8125 
L 19.671875 0 
L 9.8125 0 
L 9.8125 72.90625 
L 32.078125 72.90625 
Q 44.578125 72.90625 50.734375 67.671875 
Q 56.890625 62.453125 56.890625 51.90625 
Q 56.890625 45.015625 53.6875 40.46875 
Q 50.484375 35.9375 44.390625 34.1875 
z
M 19.671875 64.796875 
L 19.671875 38.921875 
L 32.078125 38.921875 
Q 39.203125 38.921875 42.84375 42.21875 
Q 46.484375 45.515625 46.484375 51.90625 
Q 46.484375 58.296875 42.84375 61.546875 
Q 39.203125 64.796875 32.078125 64.796875 
z
" id="DejaVuSans-82"/>
      <path d="M 34.28125 27.484375 
Q 23.390625 27.484375 19.1875 25 
Q 14.984375 22.515625 14.984375 16.5 
Q 14.984375 11.71875 18.140625 8.90625 
Q 21.296875 6.109375 26.703125 6.109375 
Q 34.1875 6.109375 38.703125 11.40625 
Q 43.21875 16.703125 43.21875 25.484375 
L 43.21875 27.484375 
z
M 52.203125 31.203125 
L 52.203125 0 
L 43.21875 0 
L 43.21875 8.296875 
Q 40.140625 3.328125 35.546875 0.953125 
Q 30.953125 -1.421875 24.3125 -1.421875 
Q 15.921875 -1.421875 10.953125 3.296875 
Q 6 8.015625 6 15.921875 
Q 6 25.140625 12.171875 29.828125 
Q 18.359375 34.515625 30.609375 34.515625 
L 43.21875 34.515625 
L 43.21875 35.40625 
Q 43.21875 41.609375 39.140625 45 
Q 35.0625 48.390625 27.6875 48.390625 
Q 23 48.390625 18.546875 47.265625 
Q 14.109375 46.140625 10.015625 43.890625 
L 10.015625 52.203125 
Q 14.9375 54.109375 19.578125 55.046875 
Q 24.21875 56 28.609375 56 
Q 40.484375 56 46.34375 49.84375 
Q 52.203125 43.703125 52.203125 31.203125 
z
" id="DejaVuSans-97"/>
      <path d="M 45.40625 46.390625 
L 45.40625 75.984375 
L 54.390625 75.984375 
L 54.390625 0 
L 45.40625 0 
L 45.40625 8.203125 
Q 42.578125 3.328125 38.25 0.953125 
Q 33.9375 -1.421875 27.875 -1.421875 
Q 17.96875 -1.421875 11.734375 6.484375 
Q 5.515625 14.40625 5.515625 27.296875 
Q 5.515625 40.1875 11.734375 48.09375 
Q 17.96875 56 27.875 56 
Q 33.9375 56 38.25 53.625 
Q 42.578125 51.265625 45.40625 46.390625 
z
M 14.796875 27.296875 
Q 14.796875 17.390625 18.875 11.75 
Q 22.953125 6.109375 30.078125 6.109375 
Q 37.203125 6.109375 41.296875 11.75 
Q 45.40625 17.390625 45.40625 27.296875 
Q 45.40625 37.203125 41.296875 42.84375 
Q 37.203125 48.484375 30.078125 48.484375 
Q 22.953125 48.484375 18.875 42.84375 
Q 14.796875 37.203125 14.796875 27.296875 
z
" id="DejaVuSans-100"/>
     </defs>
     <g transform="translate(102.024844 357.832125)scale(0.3 -0.3)">
      <use xlink:href="#DejaVuSans-80"/>
      <use x="60.255859" xlink:href="#DejaVuSans-111"/>
      <use x="121.4375" xlink:href="#DejaVuSans-115"/>
      <use x="173.537109" xlink:href="#DejaVuSans-105"/>
      <use x="201.320312" xlink:href="#DejaVuSans-116"/>
      <use x="240.529297" xlink:href="#DejaVuSans-105"/>
      <use x="268.3125" xlink:href="#DejaVuSans-111"/>
      <use x="329.494141" xlink:href="#DejaVuSans-110"/>
      <use x="392.873047" xlink:href="#DejaVuSans-32"/>
      <use x="424.660156" xlink:href="#DejaVuSans-105"/>
      <use x="452.443359" xlink:href="#DejaVuSans-110"/>
      <use x="515.822266" xlink:href="#DejaVuSans-32"/>
      <use x="547.609375" xlink:href="#DejaVuSans-82"/>
      <use x="617.060547" xlink:href="#DejaVuSans-97"/>
      <use x="678.339844" xlink:href="#DejaVuSans-100"/>
      <use x="741.816406" xlink:href="#DejaVuSans-105"/>
      <use x="769.599609" xlink:href="#DejaVuSans-97"/>
      <use x="830.878906" xlink:href="#DejaVuSans-110"/>
     </g>
    </g>
   </g>
   <g id="matplotlib.axis_2">
    <g id="ytick_1">
     <g id="line2d_8">
      <defs>
       <path d="M 0 0 
L -3.5 0 
" id="ma3f2650a18" style="stroke:#000000;stroke-width:0.8;"/>
      </defs>
      <g>
       <use style="stroke:#000000;stroke-width:0.8;" x="57.6" xlink:href="#ma3f2650a18" y="307.584"/>
      </g>
     </g>
     <g id="text_9">
      <!-- 0.00 -->
      <defs>
       <path d="M 10.6875 12.40625 
L 21 12.40625 
L 21 0 
L 10.6875 0 
z
" id="DejaVuSans-46"/>
      </defs>
      <g transform="translate(12.748438 314.042672)scale(0.17 -0.17)">
       <use xlink:href="#DejaVuSans-48"/>
       <use x="63.623047" xlink:href="#DejaVuSans-46"/>
       <use x="95.410156" xlink:href="#DejaVuSans-48"/>
       <use x="159.033203" xlink:href="#DejaVuSans-48"/>
      </g>
     </g>
    </g>
    <g id="ytick_2">
     <g id="line2d_9">
      <g>
       <use style="stroke:#000000;stroke-width:0.8;" x="57.6" xlink:href="#ma3f2650a18" y="262.56806"/>
      </g>
     </g>
     <g id="text_10">
      <!-- 0.25 -->
      <defs>
       <path d="M 10.796875 72.90625 
L 49.515625 72.90625 
L 49.515625 64.59375 
L 19.828125 64.59375 
L 19.828125 46.734375 
Q 21.96875 47.46875 24.109375 47.828125 
Q 26.265625 48.1875 28.421875 48.1875 
Q 40.625 48.1875 47.75 41.5 
Q 54.890625 34.8125 54.890625 23.390625 
Q 54.890625 11.625 47.5625 5.09375 
Q 40.234375 -1.421875 26.90625 -1.421875 
Q 22.3125 -1.421875 17.546875 -0.640625 
Q 12.796875 0.140625 7.71875 1.703125 
L 7.71875 11.625 
Q 12.109375 9.234375 16.796875 8.0625 
Q 21.484375 6.890625 26.703125 6.890625 
Q 35.15625 6.890625 40.078125 11.328125 
Q 45.015625 15.765625 45.015625 23.390625 
Q 45.015625 31 40.078125 35.4375 
Q 35.15625 39.890625 26.703125 39.890625 
Q 22.75 39.890625 18.8125 39.015625 
Q 14.890625 38.140625 10.796875 36.28125 
z
" id="DejaVuSans-53"/>
      </defs>
      <g transform="translate(12.748438 269.026731)scale(0.17 -0.17)">
       <use xlink:href="#DejaVuSans-48"/>
       <use x="63.623047" xlink:href="#DejaVuSans-46"/>
       <use x="95.410156" xlink:href="#DejaVuSans-50"/>
       <use x="159.033203" xlink:href="#DejaVuSans-53"/>
      </g>
     </g>
    </g>
    <g id="ytick_3">
     <g id="line2d_10">
      <g>
       <use style="stroke:#000000;stroke-width:0.8;" x="57.6" xlink:href="#ma3f2650a18" y="217.552119"/>
      </g>
     </g>
     <g id="text_11">
      <!-- 0.50 -->
      <g transform="translate(12.748438 224.010791)scale(0.17 -0.17)">
       <use xlink:href="#DejaVuSans-48"/>
       <use x="63.623047" xlink:href="#DejaVuSans-46"/>
       <use x="95.410156" xlink:href="#DejaVuSans-53"/>
       <use x="159.033203" xlink:href="#DejaVuSans-48"/>
      </g>
     </g>
    </g>
    <g id="ytick_4">
     <g id="line2d_11">
      <g>
       <use style="stroke:#000000;stroke-width:0.8;" x="57.6" xlink:href="#ma3f2650a18" y="172.536179"/>
      </g>
     </g>
     <g id="text_12">
      <!-- 0.75 -->
      <defs>
       <path d="M 8.203125 72.90625 
L 55.078125 72.90625 
L 55.078125 68.703125 
L 28.609375 0 
L 18.3125 0 
L 43.21875 64.59375 
L 8.203125 64.59375 
z
" id="DejaVuSans-55"/>
      </defs>
      <g transform="translate(12.748438 178.994851)scale(0.17 -0.17)">
       <use xlink:href="#DejaVuSans-48"/>
       <use x="63.623047" xlink:href="#DejaVuSans-46"/>
       <use x="95.410156" xlink:href="#DejaVuSans-55"/>
       <use x="159.033203" xlink:href="#DejaVuSans-53"/>
      </g>
     </g>
    </g>
    <g id="ytick_5">
     <g id="line2d_12">
      <g>
       <use style="stroke:#000000;stroke-width:0.8;" x="57.6" xlink:href="#ma3f2650a18" y="127.520238"/>
      </g>
     </g>
     <g id="text_13">
      <!-- 1.00 -->
      <g transform="translate(12.748438 133.97891)scale(0.17 -0.17)">
       <use xlink:href="#DejaVuSans-49"/>
       <use x="63.623047" xlink:href="#DejaVuSans-46"/>
       <use x="95.410156" xlink:href="#DejaVuSans-48"/>
       <use x="159.033203" xlink:href="#DejaVuSans-48"/>
      </g>
     </g>
    </g>
    <g id="ytick_6">
     <g id="line2d_13">
      <g>
       <use style="stroke:#000000;stroke-width:0.8;" x="57.6" xlink:href="#ma3f2650a18" y="82.504298"/>
      </g>
     </g>
     <g id="text_14">
      <!-- 1.25 -->
      <g transform="translate(12.748438 88.96297)scale(0.17 -0.17)">
       <use xlink:href="#DejaVuSans-49"/>
       <use x="63.623047" xlink:href="#DejaVuSans-46"/>
       <use x="95.410156" xlink:href="#DejaVuSans-50"/>
       <use x="159.033203" xlink:href="#DejaVuSans-53"/>
      </g>
     </g>
    </g>
    <g id="text_15">
     <!-- Density -->
     <defs>
      <path d="M 19.671875 64.796875 
L 19.671875 8.109375 
L 31.59375 8.109375 
Q 46.6875 8.109375 53.6875 14.9375 
Q 60.6875 21.78125 60.6875 36.53125 
Q 60.6875 51.171875 53.6875 57.984375 
Q 46.6875 64.796875 31.59375 64.796875 
z
M 9.8125 72.90625 
L 30.078125 72.90625 
Q 51.265625 72.90625 61.171875 64.09375 
Q 71.09375 55.28125 71.09375 36.53125 
Q 71.09375 17.671875 61.125 8.828125 
Q 51.171875 0 30.078125 0 
L 9.8125 0 
z
" id="DejaVuSans-68"/>
      <path d="M 56.203125 29.59375 
L 56.203125 25.203125 
L 14.890625 25.203125 
Q 15.484375 15.921875 20.484375 11.0625 
Q 25.484375 6.203125 34.421875 6.203125 
Q 39.59375 6.203125 44.453125 7.46875 
Q 49.3125 8.734375 54.109375 11.28125 
L 54.109375 2.78125 
Q 49.265625 0.734375 44.1875 -0.34375 
Q 39.109375 -1.421875 33.890625 -1.421875 
Q 20.796875 -1.421875 13.15625 6.1875 
Q 5.515625 13.8125 5.515625 26.8125 
Q 5.515625 40.234375 12.765625 48.109375 
Q 20.015625 56 32.328125 56 
Q 43.359375 56 49.78125 48.890625 
Q 56.203125 41.796875 56.203125 29.59375 
z
M 47.21875 32.234375 
Q 47.125 39.59375 43.09375 43.984375 
Q 39.0625 48.390625 32.421875 48.390625 
Q 24.90625 48.390625 20.390625 44.140625 
Q 15.875 39.890625 15.1875 32.171875 
z
" id="DejaVuSans-101"/>
      <path d="M 32.171875 -5.078125 
Q 28.375 -14.84375 24.75 -17.8125 
Q 21.140625 -20.796875 15.09375 -20.796875 
L 7.90625 -20.796875 
L 7.90625 -13.28125 
L 13.1875 -13.28125 
Q 16.890625 -13.28125 18.9375 -11.515625 
Q 21 -9.765625 23.484375 -3.21875 
L 25.09375 0.875 
L 2.984375 54.6875 
L 12.5 54.6875 
L 29.59375 11.921875 
L 46.6875 54.6875 
L 56.203125 54.6875 
z
" id="DejaVuSans-121"/>
     </defs>
     <g transform="translate(2.509375 231.553781)rotate(-90)scale(0.3 -0.3)">
      <use xlink:href="#DejaVuSans-68"/>
      <use x="77.001953" xlink:href="#DejaVuSans-101"/>
      <use x="138.525391" xlink:href="#DejaVuSans-110"/>
      <use x="201.904297" xlink:href="#DejaVuSans-115"/>
      <use x="254.003906" xlink:href="#DejaVuSans-105"/>
      <use x="281.787109" xlink:href="#DejaVuSans-116"/>
      <use x="320.996094" xlink:href="#DejaVuSans-121"/>
     </g>
    </g>
   </g>
   <g id="line2d_14">
    <path clip-path="url(#p6260c86112)" d="M 99.645748 303.830779 
L 100.128159 303.471763 
L 100.650113 303.392058 
L 101.34605 303.490858 
L 101.788919 303.796059 
L 102.571849 304.366472 
L 102.919818 304.318392 
L 103.283603 304.032177 
L 103.647389 303.445793 
L 104.525219 301.867869 
L 104.802013 301.89697 
L 105.244882 301.939731 
L 105.624484 301.661487 
L 106.03572 301.458901 
L 106.352055 301.55951 
L 106.731657 301.93248 
L 107.245702 302.803022 
L 107.751839 303.516578 
L 107.973273 303.523168 
L 108.170983 303.263273 
L 108.431959 302.477542 
L 109.373057 299.20527 
L 109.523316 299.355008 
L 109.776384 300.018423 
L 110.353696 301.511802 
L 110.575131 301.582084 
L 110.844016 301.377517 
L 111.223618 301.154823 
L 111.421327 301.298752 
L 111.706029 301.853012 
L 112.299158 303.021951 
L 112.504776 303.021822 
L 112.742027 302.743998 
L 113.422148 301.850875 
L 113.698941 301.88192 
L 114.078543 302.189893 
L 115.312251 303.381891 
L 115.731395 303.281486 
L 116.213806 302.924545 
L 117.162812 302.189308 
L 119.12409 300.754511 
L 119.61441 300.356517 
L 119.883295 300.413785 
L 120.310348 300.797431 
L 121.014193 301.680326 
L 121.852482 302.940844 
L 122.081825 302.861522 
L 122.801488 302.43043 
L 123.552784 302.668944 
L 123.861211 302.164539 
L 124.272446 301.61308 
L 124.478064 301.649985 
L 124.778583 301.997412 
L 125.268902 302.494555 
L 126.25745 303.076965 
L 126.803128 304.011081 
L 127.372532 304.86255 
L 127.593966 304.870086 
L 127.807493 304.619445 
L 128.187095 303.731024 
L 128.637873 302.872985 
L 128.875124 302.817331 
L 129.144009 303.027934 
L 129.62642 303.381302 
L 129.863672 303.262028 
L 130.678235 302.638803 
L 131.563974 302.839085 
L 131.943576 302.530603 
L 132.378537 301.849149 
L 132.955849 301.034616 
L 133.461985 300.427647 
L 133.920671 299.297464 
L 134.260732 298.753975 
L 134.442624 298.794614 
L 134.671967 299.149395 
L 135.375813 300.35987 
L 135.58934 300.324258 
L 135.874041 299.995829 
L 136.356452 299.481187 
L 136.569979 299.555063 
L 136.902131 299.979583 
L 137.408267 300.538486 
L 137.724602 300.582957 
L 138.009304 300.391606 
L 138.380998 299.832002 
L 138.918768 298.595401 
L 139.34582 296.990022 
L 140.0813 294.182084 
L 140.334368 293.950144 
L 140.547894 294.039644 
L 140.872138 294.467417 
L 141.338732 295.478566 
L 141.971403 296.817214 
L 142.153296 296.799501 
L 142.351005 296.487103 
L 143.300011 294.601488 
L 143.553079 294.779176 
L 144.399276 295.486183 
L 144.81842 295.909124 
L 145.229656 296.684454 
L 146.107486 298.486738 
L 146.265654 298.386131 
L 146.47918 297.918051 
L 146.929958 296.203276 
L 147.285835 295.287056 
L 147.451911 295.278156 
L 147.625895 295.576811 
L 147.942231 296.683693 
L 148.661893 299.193211 
L 148.946595 299.520346 
L 149.120579 299.444594 
L 149.318289 299.052208 
L 149.579265 297.96156 
L 149.974684 295.179956 
L 150.575721 291.219753 
L 150.82879 290.720179 
L 151.010682 290.744532 
L 151.501002 291.227753 
L 151.95178 291.756583 
L 152.260207 292.603703 
L 152.884969 294.382683 
L 153.019411 294.319839 
L 153.185487 293.893774 
L 153.46228 292.443134 
L 154.601087 285.77622 
L 155.56591 281.350702 
L 156.166947 278.713051 
L 156.380473 278.506016 
L 156.514916 278.693714 
L 156.720533 279.462405 
L 157.171311 282.301134 
L 157.582547 284.214709 
L 157.81189 284.502658 
L 157.954241 284.383018 
L 158.159859 283.822733 
L 158.539461 281.945949 
L 158.919063 280.51537 
L 159.053506 280.475046 
L 159.069323 280.488821 
L 159.219582 280.793309 
L 159.575459 282.204548 
L 159.923428 283.167795 
L 160.097412 283.195784 
L 160.271396 282.926061 
L 160.611457 281.872613 
L 161.062235 280.706168 
L 161.252036 280.657628 
L 161.42602 280.890378 
L 161.734447 281.778796 
L 162.30385 283.33526 
L 162.628094 283.611937 
L 163.031421 283.653214 
L 163.28449 283.469879 
L 163.561283 282.940933 
L 164.352121 281.252877 
L 164.526105 281.325777 
L 164.723815 281.713477 
L 164.9927 282.810961 
L 166.060331 287.909984 
L 166.36085 288.034088 
L 166.851169 288.019025 
L 167.064696 287.727577 
L 167.381031 286.825982 
L 167.942526 285.310182 
L 169.1446 283.684016 
L 169.761454 283.111706 
L 170.014522 282.241597 
L 170.465299 279.663224 
L 170.908169 277.682247 
L 171.169145 277.315191 
L 171.366855 277.359005 
L 171.580381 277.679001 
L 171.833449 278.518932 
L 172.181418 280.597894 
L 172.798272 284.200342 
L 173.043432 284.580169 
L 173.264866 284.550952 
L 173.549568 284.548394 
L 173.747278 284.833116 
L 174.07943 285.826453 
L 174.46694 286.749079 
L 174.640925 286.756563 
L 174.846543 286.462469 
L 175.510847 285.387283 
L 176.444035 284.709986 
L 176.799913 283.949876 
L 177.219057 282.42693 
L 177.938719 279.852833 
L 178.239238 279.473141 
L 178.421131 279.526616 
L 178.642565 279.878656 
L 179.275236 281.004157 
L 179.425495 280.864504 
L 179.639021 280.287773 
L 179.98699 278.582371 
L 180.754103 273.352718 
L 181.212789 271.055145 
L 181.457949 270.680511 
L 181.616117 270.764358 
L 181.869185 271.244693 
L 182.67584 272.87437 
L 183.316419 274.117406 
L 184.297058 276.050057 
L 184.510584 276.067258 
L 184.72411 275.810562 
L 185.783833 274.18745 
L 186.084352 273.578288 
L 187.057083 271.25505 
L 187.246884 271.431456 
L 188.085172 272.452625 
L 188.496408 272.686601 
L 188.860194 273.269591 
L 189.239796 273.732461 
L 189.421689 273.669048 
L 189.65894 273.283301 
L 190.307427 272.121143 
L 190.449778 272.268254 
L 190.647488 272.884958 
L 190.995456 274.884646 
L 191.438326 277.057138 
L 191.56486 277.151291 
L 191.596493 277.124524 
L 191.730936 276.780258 
L 191.960279 275.41342 
L 192.695758 270.573006 
L 192.822292 270.546719 
L 192.838109 270.561009 
L 193.020002 270.912511 
L 193.415421 271.627637 
L 193.549863 271.510904 
L 193.739665 270.950295 
L 194.063908 269.152949 
L 194.965464 263.850238 
L 195.265982 263.367335 
L 195.922378 262.951211 
L 196.49969 262.528063 
L 196.776483 261.858579 
L 197.432878 260.145564 
L 197.598954 260.195992 
L 197.828298 260.589447 
L 198.286984 261.339017 
L 198.429334 261.246171 
L 198.619136 260.775975 
L 199.299256 258.50222 
L 199.362523 258.563529 
L 199.512783 259.007536 
L 199.884477 261.089451 
L 200.16127 261.976737 
L 200.271987 261.923316 
L 200.430155 261.469824 
L 201.877389 256.079224 
L 202.549601 254.127253 
L 202.74731 254.043731 
L 202.89757 254.263323 
L 203.158546 255.148038 
L 203.585599 256.448548 
L 203.720041 256.406214 
L 203.886117 255.993305 
L 204.676955 253.510476 
L 204.692772 253.516561 
L 204.858848 253.722664 
L 205.262176 254.743356 
L 205.602236 255.282218 
L 205.807854 255.269134 
L 206.361441 255.060104 
L 206.590784 255.436692 
L 206.994111 256.053085 
L 207.120645 255.920429 
L 207.302538 255.31919 
L 207.626782 253.303627 
L 208.441345 248.195971 
L 209.184733 244.939054 
L 209.421984 244.64969 
L 209.572243 244.759845 
L 209.777861 245.265342 
L 210.094196 246.730116 
L 210.647783 250.567351 
L 211.351629 255.077324 
L 211.604697 255.606457 
L 211.723323 255.525621 
L 211.88149 255.054046 
L 212.118742 253.520613 
L 212.442986 249.758055 
L 213.004481 239.968379 
L 213.463167 233.757431 
L 213.732052 232.503446 
L 213.898128 232.428989 
L 214.095837 232.679036 
L 214.736416 233.968649 
L 215.10811 235.427093 
L 215.637971 237.31185 
L 216.104566 238.026808 
L 216.436718 238.291543 
L 216.586977 238.153375 
L 216.792595 237.574267 
L 217.148472 235.740143 
L 218.287279 229.607773 
L 218.453355 229.47003 
L 218.469172 229.480906 
L 218.595706 229.727946 
L 218.809232 230.757689 
L 219.560528 234.951341 
L 219.568437 234.948573 
L 219.671246 234.771396 
L 219.84523 233.894887 
L 220.169474 230.824104 
L 220.746785 225.610562 
L 220.92077 225.266719 
L 220.936587 225.27374 
L 221.039396 225.470894 
L 221.229197 226.441814 
L 221.877684 230.317178 
L 221.901409 230.30622 
L 221.99631 230.084907 
L 222.170294 228.96942 
L 222.565713 224.478152 
L 222.913682 221.741909 
L 223.008582 221.610846 
L 223.056033 221.661615 
L 223.174658 222.127836 
L 223.388185 224.08838 
L 223.878504 231.422153 
L 224.24229 235.137147 
L 224.376732 235.438429 
L 224.408366 235.414042 
L 224.511175 235.087852 
L 224.700976 233.564789 
L 225.033128 228.743545 
L 225.8556 216.420209 
L 226.124485 215.24382 
L 226.330102 215.106231 
L 226.717613 215.032619 
L 226.986498 214.573158 
L 227.374009 214.006781 
L 227.51636 214.111176 
L 227.698252 214.60571 
L 228.030404 216.317246 
L 228.449549 218.095969 
L 228.599808 218.173901 
L 228.615625 218.162525 
L 228.765884 217.892703 
L 229.105944 216.666193 
L 229.485546 215.649543 
L 229.667439 215.612179 
L 229.873057 215.872351 
L 230.236843 216.290962 
L 230.363377 216.137393 
L 230.537361 215.49195 
L 230.782521 213.596073 
L 231.13049 208.923146 
L 232.221846 192.813981 
L 232.482823 191.972382 
L 232.664716 191.918809 
L 232.894059 192.163204 
L 233.226211 192.43707 
L 233.360653 192.257871 
L 233.542546 191.554738 
L 233.890515 189.031476 
L 234.175216 187.68373 
L 234.2543 187.766882 
L 234.380834 188.44284 
L 234.602269 191.126238 
L 235.314023 200.582289 
L 235.480099 200.87575 
L 235.495916 200.869756 
L 235.62245 200.677152 
L 236.081136 199.319009 
L 236.334204 198.139189 
L 236.524005 195.965632 
L 236.729623 190.621074 
L 236.958966 178.066901 
L 237.243668 148.533425 
L 238.050323 54.144 
L 238.058231 54.158395 
L 238.11359 55.076241 
L 238.240124 62.327242 
L 238.485284 92.20525 
L 239.181221 179.850867 
L 239.513373 194.887481 
L 239.940426 204.012304 
L 240.391204 209.990291 
L 240.541463 210.50274 
L 240.573097 210.475124 
L 240.667997 210.090983 
L 240.841981 208.229457 
L 241.182042 201.567281 
L 241.585369 195.190352 
L 241.688178 194.862848 
L 241.735629 194.92768 
L 241.846346 195.582166 
L 242.067781 198.574742 
L 243.515014 221.534749 
L 243.910433 225.274844 
L 244.131868 225.83677 
L 244.234677 225.726766 
L 244.41657 225.072314 
L 244.851531 222.369948 
L 245.58701 216.862643 
L 246.441115 208.802075 
L 246.528107 208.913412 
L 246.686275 209.669807 
L 247.081694 213.08997 
L 247.508747 215.832245 
L 248.212592 219.248725 
L 248.726637 223.96451 
L 249.343491 229.04931 
L 249.588651 229.694168 
L 249.707276 229.632889 
L 249.865444 229.187047 
L 250.110604 227.718973 
L 250.498115 223.777825 
L 251.012159 219.027316 
L 251.20196 218.654902 
L 251.209869 218.657755 
L 251.328495 218.845205 
L 251.629013 219.944386 
L 251.882081 220.438371 
L 251.98489 220.293486 
L 252.150966 219.543763 
L 252.443576 216.941805 
L 252.957621 212.684271 
L 253.10788 212.458068 
L 253.131605 212.47194 
L 253.250231 212.718633 
L 253.503299 213.922687 
L 254.238779 217.492121 
L 254.555114 219.505603 
L 254.990075 224.089037 
L 255.519936 228.913989 
L 255.828363 230.03559 
L 256.057706 230.235115 
L 256.255416 230.125987 
L 256.816911 229.678033 
L 256.824819 229.686239 
L 256.975079 230.008613 
L 257.196513 231.138682 
L 257.639383 234.972814 
L 257.971535 236.878973 
L 258.074344 236.967225 
L 258.113885 236.931516 
L 258.248328 236.542876 
L 258.53303 234.805282 
L 258.904724 232.985717 
L 258.975899 232.968991 
L 259.015441 233.02297 
L 259.141975 233.51231 
L 259.36341 235.452204 
L 260.122614 242.856513 
L 260.19379 242.828329 
L 260.209606 242.799157 
L 260.344049 242.237678 
L 260.605025 239.923803 
L 261.198154 234.644869 
L 261.332596 234.440233 
L 261.36423 234.46289 
L 261.482856 234.768421 
L 261.735924 236.237649 
L 262.131343 238.199261 
L 262.210427 238.221903 
L 262.249969 238.172415 
L 262.384411 237.706258 
L 262.637479 235.826814 
L 263.191066 231.768634 
L 263.285967 231.691294 
L 263.325508 231.737494 
L 263.452043 232.198431 
L 263.673477 234.036636 
L 264.472224 241.452546 
L 264.559216 241.481783 
L 264.590849 241.446105 
L 264.7332 241.019884 
L 265.049536 239.1295 
L 265.429138 237.360626 
L 265.508222 237.336949 
L 265.547764 237.388337 
L 265.674298 237.859831 
L 265.879916 239.645242 
L 266.275335 245.558046 
L 266.757746 251.676523 
L 267.018722 252.757195 
L 267.153165 252.784922 
L 267.168982 252.771134 
L 267.358783 252.422858 
L 267.975636 251.190141 
L 268.149621 251.243589 
L 268.371056 251.609564 
L 269.723389 254.376026 
L 269.992274 254.538987 
L 270.174166 254.393747 
L 270.387693 253.882497 
L 270.664486 252.563925 
L 271.059905 249.388727 
L 271.660942 244.787772 
L 271.827018 244.514497 
L 271.850743 244.527681 
L 271.96146 244.768494 
L 272.151262 245.858125 
L 272.459688 249.174211 
L 273.369152 259.685029 
L 273.57477 260.092706 
L 273.685487 259.945201 
L 273.883197 259.191768 
L 274.365608 256.169949 
L 275.290889 250.822644 
L 275.599316 249.962107 
L 275.717941 250.008299 
L 275.868201 250.44691 
L 276.121269 252.062836 
L 276.89629 257.430873 
L 277.173083 257.930549 
L 277.362885 257.917196 
L 277.552686 257.63291 
L 277.813662 256.770336 
L 278.470058 254.334658 
L 278.485875 254.339809 
L 278.596592 254.531965 
L 278.778485 255.451348 
L 279.118545 258.63067 
L 279.664223 263.22079 
L 280.028009 264.530576 
L 280.328527 264.945298 
L 280.51042 264.898432 
L 280.747672 264.531835 
L 281.119366 264.045065 
L 281.253808 264.192439 
L 281.443609 264.84661 
L 281.759944 266.928614 
L 282.321439 270.429006 
L 282.455882 270.573886 
L 282.487515 270.551968 
L 282.61405 270.247185 
L 282.827576 268.997606 
L 283.262537 264.746667 
L 283.73704 260.956298 
L 284.005925 260.227866 
L 284.195726 260.197262 
L 284.591145 260.247855 
L 284.780946 259.899734 
L 285.073556 258.787382 
L 285.729952 256.270828 
L 285.967203 256.070163 
L 286.172821 256.177589 
L 287.034835 257.149189 
L 287.327445 257.752838 
L 287.699139 259.158988 
L 288.189458 260.800905 
L 288.442526 261.001244 
L 288.893304 261.178814 
L 289.130555 261.692924 
L 289.478524 263.080991 
L 290.071653 265.363566 
L 290.245637 265.42263 
L 290.42753 265.17052 
L 290.846674 264.587212 
L 290.996933 264.728942 
L 291.265818 265.408657 
L 291.756138 266.527601 
L 292.214824 267.391272 
L 292.950303 269.064104 
L 293.250822 269.599716 
L 293.519707 270.677617 
L 294.104927 273.096942 
L 294.223553 273.032592 
L 294.38172 272.55964 
L 294.705964 270.695075 
L 295.156742 268.497194 
L 295.346543 268.326876 
L 295.488894 268.525798 
L 295.741962 269.38478 
L 296.469533 271.983136 
L 296.801685 272.351161 
L 297.331547 272.545811 
L 297.592523 272.456562 
L 297.821866 272.091395 
L 298.225194 270.883578 
L 298.501987 270.395379 
L 298.620613 270.49837 
L 298.786689 271.052255 
L 299.063482 272.938915 
L 299.830595 278.495041 
L 300.059938 278.860561 
L 300.210197 278.772185 
L 300.463265 278.271522 
L 300.92986 277.426204 
L 301.080119 277.486902 
L 301.254103 277.873105 
L 301.538805 279.178769 
L 302.187292 282.219125 
L 302.432452 282.477877 
L 303.088848 282.736727 
L 303.365641 283.440356 
L 304.393731 286.517678 
L 304.401639 286.514798 
L 304.559807 286.328546 
L 304.797058 285.620408 
L 305.287378 283.222638 
L 305.643255 282.055988 
L 305.817239 282.005095 
L 305.991224 282.262228 
L 306.639711 283.387722 
L 306.884871 283.30365 
L 307.920869 282.52811 
L 308.545631 281.781256 
L 309.03595 281.275663 
L 309.455094 280.402624 
L 310.3092 278.587527 
L 310.45155 278.678686 
L 310.633443 279.154187 
L 310.926053 280.69107 
L 311.534999 283.883864 
L 311.716891 284.026398 
L 311.7248 284.021753 
L 311.867151 283.796311 
L 312.128127 282.845196 
L 312.744981 280.577881 
L 312.934782 280.497917 
L 313.100858 280.71293 
L 313.369743 281.503932 
L 314.01823 283.486823 
L 314.136856 283.409762 
L 314.302932 282.935127 
L 314.627176 281.13679 
L 315.070045 279.059272 
L 315.307296 278.766709 
L 315.512914 278.831739 
L 315.813433 279.192447 
L 316.090226 279.884088 
L 316.422378 281.435952 
L 317.197399 285.271559 
L 317.395109 285.414638 
L 317.553277 285.223484 
L 317.845887 284.406 
L 318.217581 283.582428 
L 318.352023 283.6416 
L 318.526007 284.080959 
L 318.913518 285.912107 
L 319.229853 286.882842 
L 319.380113 286.890832 
L 319.562005 286.578547 
L 319.973241 285.884246 
L 320.099775 286.038577 
L 320.289576 286.749556 
L 320.629637 289.110428 
L 321.293941 293.541291 
L 321.618184 294.45712 
L 321.800077 294.505121 
L 321.966153 294.242607 
L 322.258763 293.237399 
L 322.772808 291.578829 
L 322.986334 291.474293 
L 323.231494 291.671774 
L 323.516196 291.810176 
L 323.682272 291.631623 
L 323.927432 290.957584 
L 324.631278 288.856227 
L 325.920344 287.47227 
L 326.08642 287.745647 
L 326.331579 288.679325 
L 327.359669 293.270929 
L 327.509928 293.139267 
L 327.786722 292.490761 
L 328.205866 291.655443 
L 328.371942 291.676014 
L 328.561743 291.998693 
L 328.957162 293.27097 
L 329.320947 294.088836 
L 329.518657 294.119356 
L 329.771725 293.857983 
L 330.246228 293.408213 
L 330.53093 293.437672 
L 330.82354 293.70232 
L 331.124058 294.31394 
L 331.559019 295.822497 
L 332.096789 297.448249 
L 332.460575 297.87836 
L 333.11697 298.571863 
L 333.441214 298.743819 
L 333.710099 298.618961 
L 334.872631 297.562449 
L 335.916537 295.595539 
L 336.217056 295.637241 
L 336.525482 295.916146 
L 336.936718 296.657972 
L 337.569389 297.704801 
L 338.68447 298.853356 
L 338.937539 298.894774 
L 339.12734 298.665865 
L 339.380408 297.921638 
L 340.305689 294.741346 
L 340.471765 294.83957 
L 340.811825 295.432076 
L 341.136069 295.776531 
L 341.341686 295.701201 
L 341.658022 295.271523 
L 342.132525 294.70789 
L 342.338142 294.763721 
L 342.567485 295.116833 
L 343.532308 296.954308 
L 344.149162 297.049055 
L 344.481314 297.665413 
L 344.829282 298.142554 
L 344.995358 298.072414 
L 345.208885 297.65813 
L 345.659662 296.130017 
L 346.284425 294.298423 
L 346.561218 294.001497 
L 346.727294 294.089589 
L 346.94082 294.51755 
L 347.344148 295.964377 
L 348.040085 298.284126 
L 348.482954 299.066926 
L 348.759748 299.19672 
L 348.989091 299.050529 
L 349.33706 298.487207 
L 349.787837 297.865427 
L 350.01718 297.876 
L 350.349332 298.184962 
L 351.108537 299.18902 
L 351.527681 300.399728 
L 352.010092 301.575561 
L 352.239435 301.676088 
L 352.46087 301.504168 
L 353.133082 300.868083 
L 353.409876 300.987786 
L 354.042546 301.318007 
L 354.857109 301.393747 
L 355.252529 301.515567 
L 355.458146 301.31665 
L 355.742848 300.659763 
L 356.517869 298.724105 
L 356.755121 298.656744 
L 356.992372 298.841979 
L 357.403608 299.512903 
L 358.115362 300.60907 
L 358.890384 301.629436 
L 359.44397 302.31989 
L 359.784031 302.398934 
L 360.218992 302.247372 
L 360.994013 301.943732 
L 362.006286 302.124147 
L 362.306804 302.527385 
L 362.828757 303.692343 
L 363.50097 305.085494 
L 363.730313 305.141301 
L 363.951748 304.924425 
L 364.402525 304.064806 
L 365.430615 302.189287 
L 366.150277 301.000108 
L 366.719681 300.040729 
L 366.933207 300.045705 
L 367.154642 300.322666 
L 367.486794 301.166206 
L 368.538608 304.132762 
L 368.854944 304.251763 
L 369.416439 304.430107 
L 369.716957 304.43484 
L 369.962117 304.177032 
L 370.705505 303.227355 
L 370.92694 303.375413 
L 371.306542 303.974395 
L 372.042021 305.104162 
L 372.295089 305.13195 
L 372.674692 304.868825 
L 372.959393 304.813899 
L 373.188736 305.03145 
L 373.631606 305.87646 
L 374.090292 306.535061 
L 374.509436 306.751136 
L 375.545434 306.924337 
L 376.431173 306.986766 
L 376.431173 306.986766 
" style="fill:none;stroke:#ff7f0e;stroke-linecap:square;stroke-width:1.5;"/>
   </g>
   <g id="patch_103">
    <path d="M 57.6 307.584 
L 57.6 41.472 
" style="fill:none;stroke:#000000;stroke-linecap:square;stroke-linejoin:miter;stroke-width:0.8;"/>
   </g>
   <g id="patch_104">
    <path d="M 414.72 307.584 
L 414.72 41.472 
" style="fill:none;stroke:#000000;stroke-linecap:square;stroke-linejoin:miter;stroke-width:0.8;"/>
   </g>
   <g id="patch_105">
    <path d="M 57.6 307.584 
L 414.72 307.584 
" style="fill:none;stroke:#000000;stroke-linecap:square;stroke-linejoin:miter;stroke-width:0.8;"/>
   </g>
   <g id="patch_106">
    <path d="M 57.6 41.472 
L 414.72 41.472 
" style="fill:none;stroke:#000000;stroke-linecap:square;stroke-linejoin:miter;stroke-width:0.8;"/>
   </g>
  </g>
 </g>
 <defs>
  <clipPath id="p6260c86112">
   <rect height="266.112" width="357.12" x="57.6" y="41.472"/>
  </clipPath>
 </defs>
</svg>
