<?xml version="1.0" encoding="utf-8" standalone="no"?>
<!DOCTYPE svg PUBLIC "-//W3C//DTD SVG 1.1//EN"
  "http://www.w3.org/Graphics/SVG/1.1/DTD/svg11.dtd">
<!-- Created with matplotlib (https://matplotlib.org/) -->
<svg height="345.6pt" version="1.1" viewBox="0 0 460.8 345.6" width="460.8pt" xmlns="http://www.w3.org/2000/svg" xmlns:xlink="http://www.w3.org/1999/xlink">
 <defs>
  <style type="text/css">
*{stroke-linecap:butt;stroke-linejoin:round;}
  </style>
 </defs>
 <g id="figure_1">
  <g id="patch_1">
   <path d="M 0 345.6 
L 460.8 345.6 
L 460.8 0 
L 0 0 
z
" style="fill:#ffffff;"/>
  </g>
  <g id="axes_1">
   <g id="patch_2">
    <path d="M 57.6 307.584 
L 414.72 307.584 
L 414.72 41.472 
L 57.6 41.472 
z
" style="fill:#ffffff;"/>
   </g>
   <g id="patch_3">
    <path clip-path="url(#p03b6d52e14)" d="M 73.832727 307.584 
L 77.079276 307.584 
L 77.079276 307.274669 
L 73.832727 307.274669 
z
" style="fill:#1f77b4;"/>
   </g>
   <g id="patch_4">
    <path clip-path="url(#p03b6d52e14)" d="M 77.07929 307.584 
L 80.325826 307.584 
L 80.325826 307.274667 
L 77.07929 307.274667 
z
" style="fill:#1f77b4;"/>
   </g>
   <g id="patch_5">
    <path clip-path="url(#p03b6d52e14)" d="M 80.325812 307.584 
L 83.572362 307.584 
L 83.572362 307.120003 
L 80.325812 307.120003 
z
" style="fill:#1f77b4;"/>
   </g>
   <g id="patch_6">
    <path clip-path="url(#p03b6d52e14)" d="M 83.572362 307.584 
L 86.818911 307.584 
L 86.818911 307.120003 
L 83.572362 307.120003 
z
" style="fill:#1f77b4;"/>
   </g>
   <g id="patch_7">
    <path clip-path="url(#p03b6d52e14)" d="M 86.818911 307.584 
L 90.06546 307.584 
L 90.06546 307.274669 
L 86.818911 307.274669 
z
" style="fill:#1f77b4;"/>
   </g>
   <g id="patch_8">
    <path clip-path="url(#p03b6d52e14)" d="M 90.06546 307.584 
L 93.311996 307.584 
L 93.311996 306.656002 
L 90.06546 306.656002 
z
" style="fill:#1f77b4;"/>
   </g>
   <g id="patch_9">
    <path clip-path="url(#p03b6d52e14)" d="M 93.311996 307.584 
L 96.558545 307.584 
L 96.558545 306.50134 
L 93.311996 306.50134 
z
" style="fill:#1f77b4;"/>
   </g>
   <g id="patch_10">
    <path clip-path="url(#p03b6d52e14)" d="M 96.558545 307.584 
L 99.805094 307.584 
L 99.805094 304.181355 
L 96.558545 304.181355 
z
" style="fill:#1f77b4;"/>
   </g>
   <g id="patch_11">
    <path clip-path="url(#p03b6d52e14)" d="M 99.805107 307.584 
L 103.051643 307.584 
L 103.051643 304.336008 
L 99.805107 304.336008 
z
" style="fill:#1f77b4;"/>
   </g>
   <g id="patch_12">
    <path clip-path="url(#p03b6d52e14)" d="M 103.05163 307.584 
L 106.298179 307.584 
L 106.298179 302.634698 
L 103.05163 302.634698 
z
" style="fill:#1f77b4;"/>
   </g>
   <g id="patch_13">
    <path clip-path="url(#p03b6d52e14)" d="M 106.298179 307.584 
L 109.544728 307.584 
L 109.544728 302.480033 
L 106.298179 302.480033 
z
" style="fill:#1f77b4;"/>
   </g>
   <g id="patch_14">
    <path clip-path="url(#p03b6d52e14)" d="M 109.544728 307.584 
L 112.791277 307.584 
L 112.791277 302.634698 
L 109.544728 302.634698 
z
" style="fill:#1f77b4;"/>
   </g>
   <g id="patch_15">
    <path clip-path="url(#p03b6d52e14)" d="M 112.791277 307.584 
L 116.037813 307.584 
L 116.037813 303.098677 
L 112.791277 303.098677 
z
" style="fill:#1f77b4;"/>
   </g>
   <g id="patch_16">
    <path clip-path="url(#p03b6d52e14)" d="M 116.037813 307.584 
L 119.284363 307.584 
L 119.284363 302.634698 
L 116.037813 302.634698 
z
" style="fill:#1f77b4;"/>
   </g>
   <g id="patch_17">
    <path clip-path="url(#p03b6d52e14)" d="M 119.284363 307.584 
L 122.530912 307.584 
L 122.530912 302.325367 
L 119.284363 302.325367 
z
" style="fill:#1f77b4;"/>
   </g>
   <g id="patch_18">
    <path clip-path="url(#p03b6d52e14)" d="M 122.530912 307.584 
L 125.777461 307.584 
L 125.777461 302.634698 
L 122.530912 302.634698 
z
" style="fill:#1f77b4;"/>
   </g>
   <g id="patch_19">
    <path clip-path="url(#p03b6d52e14)" d="M 125.777461 307.584 
L 129.023997 307.584 
L 129.023997 304.490674 
L 125.777461 304.490674 
z
" style="fill:#1f77b4;"/>
   </g>
   <g id="patch_20">
    <path clip-path="url(#p03b6d52e14)" d="M 129.023997 307.584 
L 132.270546 307.584 
L 132.270546 303.562692 
L 129.023997 303.562692 
z
" style="fill:#1f77b4;"/>
   </g>
   <g id="patch_21">
    <path clip-path="url(#p03b6d52e14)" d="M 132.270546 307.584 
L 135.517089 307.584 
L 135.517089 300.778696 
L 132.270546 300.778696 
z
" style="fill:#1f77b4;"/>
   </g>
   <g id="patch_22">
    <path clip-path="url(#p03b6d52e14)" d="M 135.517089 307.584 
L 138.763638 307.584 
L 138.763638 300.933376 
L 135.517089 300.933376 
z
" style="fill:#1f77b4;"/>
   </g>
   <g id="patch_23">
    <path clip-path="url(#p03b6d52e14)" d="M 138.763631 307.584 
L 142.010174 307.584 
L 142.010174 296.912047 
L 138.763631 296.912047 
z
" style="fill:#1f77b4;"/>
   </g>
   <g id="patch_24">
    <path clip-path="url(#p03b6d52e14)" d="M 142.01018 307.584 
L 145.256729 307.584 
L 145.256729 296.757403 
L 142.01018 296.757403 
z
" style="fill:#1f77b4;"/>
   </g>
   <g id="patch_25">
    <path clip-path="url(#p03b6d52e14)" d="M 145.256729 307.584 
L 148.503272 307.584 
L 148.503272 297.376045 
L 145.256729 297.376045 
z
" style="fill:#1f77b4;"/>
   </g>
   <g id="patch_26">
    <path clip-path="url(#p03b6d52e14)" d="M 148.503272 307.584 
L 151.749821 307.584 
L 151.749821 295.210746 
L 148.503272 295.210746 
z
" style="fill:#1f77b4;"/>
   </g>
   <g id="patch_27">
    <path clip-path="url(#p03b6d52e14)" d="M 151.749814 307.584 
L 154.996357 307.584 
L 154.996357 291.808069 
L 151.749814 291.808069 
z
" style="fill:#1f77b4;"/>
   </g>
   <g id="patch_28">
    <path clip-path="url(#p03b6d52e14)" d="M 154.996364 307.584 
L 158.242906 307.584 
L 158.242906 283.456106 
L 154.996364 283.456106 
z
" style="fill:#1f77b4;"/>
   </g>
   <g id="patch_29">
    <path clip-path="url(#p03b6d52e14)" d="M 158.242906 307.584 
L 161.489455 307.584 
L 161.489455 283.920152 
L 158.242906 283.920152 
z
" style="fill:#1f77b4;"/>
   </g>
   <g id="patch_30">
    <path clip-path="url(#p03b6d52e14)" d="M 161.489449 307.584 
L 164.735991 307.584 
L 164.735991 284.229436 
L 161.489449 284.229436 
z
" style="fill:#1f77b4;"/>
   </g>
   <g id="patch_31">
    <path clip-path="url(#p03b6d52e14)" d="M 164.735998 307.584 
L 167.982547 307.584 
L 167.982547 287.168131 
L 164.735998 287.168131 
z
" style="fill:#1f77b4;"/>
   </g>
   <g id="patch_32">
    <path clip-path="url(#p03b6d52e14)" d="M 167.982547 307.584 
L 171.22909 307.584 
L 171.22909 284.8481 
L 167.982547 284.8481 
z
" style="fill:#1f77b4;"/>
   </g>
   <g id="patch_33">
    <path clip-path="url(#p03b6d52e14)" d="M 171.22909 307.584 
L 174.475639 307.584 
L 174.475639 284.074817 
L 171.22909 284.074817 
z
" style="fill:#1f77b4;"/>
   </g>
   <g id="patch_34">
    <path clip-path="url(#p03b6d52e14)" d="M 174.475632 307.584 
L 177.722175 307.584 
L 177.722175 285.466764 
L 174.475632 285.466764 
z
" style="fill:#1f77b4;"/>
   </g>
   <g id="patch_35">
    <path clip-path="url(#p03b6d52e14)" d="M 177.722181 307.584 
L 180.96873 307.584 
L 180.96873 280.208176 
L 177.722181 280.208176 
z
" style="fill:#1f77b4;"/>
   </g>
   <g id="patch_36">
    <path clip-path="url(#p03b6d52e14)" d="M 180.96873 307.584 
L 184.215273 307.584 
L 184.215273 275.722806 
L 180.96873 275.722806 
z
" style="fill:#1f77b4;"/>
   </g>
   <g id="patch_37">
    <path clip-path="url(#p03b6d52e14)" d="M 184.215273 307.584 
L 187.461819 307.584 
L 187.461819 275.258841 
L 184.215273 275.258841 
z
" style="fill:#1f77b4;"/>
   </g>
   <g id="patch_38">
    <path clip-path="url(#p03b6d52e14)" d="M 187.461816 307.584 
L 190.708361 307.584 
L 190.708361 272.784188 
L 187.461816 272.784188 
z
" style="fill:#1f77b4;"/>
   </g>
   <g id="patch_39">
    <path clip-path="url(#p03b6d52e14)" d="M 190.708365 307.584 
L 193.954911 307.584 
L 193.954911 272.165525 
L 190.708365 272.165525 
z
" style="fill:#1f77b4;"/>
   </g>
   <g id="patch_40">
    <path clip-path="url(#p03b6d52e14)" d="M 193.954911 307.584 
L 197.201453 307.584 
L 197.201453 265.824183 
L 193.954911 265.824183 
z
" style="fill:#1f77b4;"/>
   </g>
   <g id="patch_41">
    <path clip-path="url(#p03b6d52e14)" d="M 197.20145 307.584 
L 200.447996 307.584 
L 200.447996 262.730909 
L 197.20145 262.730909 
z
" style="fill:#1f77b4;"/>
   </g>
   <g id="patch_42">
    <path clip-path="url(#p03b6d52e14)" d="M 200.447999 307.584 
L 203.694545 307.584 
L 203.694545 256.38961 
L 200.447999 256.38961 
z
" style="fill:#1f77b4;"/>
   </g>
   <g id="patch_43">
    <path clip-path="url(#p03b6d52e14)" d="M 203.694541 307.584 
L 206.941087 307.584 
L 206.941087 255.616281 
L 203.694541 255.616281 
z
" style="fill:#1f77b4;"/>
   </g>
   <g id="patch_44">
    <path clip-path="url(#p03b6d52e14)" d="M 206.941091 307.584 
L 210.187636 307.584 
L 210.187636 250.357642 
L 206.941091 250.357642 
z
" style="fill:#1f77b4;"/>
   </g>
   <g id="patch_45">
    <path clip-path="url(#p03b6d52e14)" d="M 210.187636 307.584 
L 213.434182 307.584 
L 213.434182 250.048311 
L 210.187636 250.048311 
z
" style="fill:#1f77b4;"/>
   </g>
   <g id="patch_46">
    <path clip-path="url(#p03b6d52e14)" d="M 213.434182 307.584 
L 216.680727 307.584 
L 216.680727 234.58169 
L 213.434182 234.58169 
z
" style="fill:#1f77b4;"/>
   </g>
   <g id="patch_47">
    <path clip-path="url(#p03b6d52e14)" d="M 216.680727 307.584 
L 219.927272 307.584 
L 219.927272 229.632421 
L 216.680727 229.632421 
z
" style="fill:#1f77b4;"/>
   </g>
   <g id="patch_48">
    <path clip-path="url(#p03b6d52e14)" d="M 219.927272 307.584 
L 223.173818 307.584 
L 223.173818 224.064451 
L 219.927272 224.064451 
z
" style="fill:#1f77b4;"/>
   </g>
   <g id="patch_49">
    <path clip-path="url(#p03b6d52e14)" d="M 223.173818 307.584 
L 226.420363 307.584 
L 226.420363 221.744442 
L 223.173818 221.744442 
z
" style="fill:#1f77b4;"/>
   </g>
   <g id="patch_50">
    <path clip-path="url(#p03b6d52e14)" d="M 226.420363 307.584 
L 229.666909 307.584 
L 229.666909 215.403164 
L 226.420363 215.403164 
z
" style="fill:#1f77b4;"/>
   </g>
   <g id="patch_51">
    <path clip-path="url(#p03b6d52e14)" d="M 229.666909 307.584 
L 232.913455 307.584 
L 232.913455 203.648548 
L 229.666909 203.648548 
z
" style="fill:#1f77b4;"/>
   </g>
   <g id="patch_52">
    <path clip-path="url(#p03b6d52e14)" d="M 232.913454 307.584 
L 236.16 307.584 
L 236.16 193.595267 
L 232.913454 193.595267 
z
" style="fill:#1f77b4;"/>
   </g>
   <g id="patch_53">
    <path clip-path="url(#p03b6d52e14)" d="M 236.16 307.584 
L 239.406545 307.584 
L 239.406545 136.059571 
L 236.16 136.059571 
z
" style="fill:#1f77b4;"/>
   </g>
   <g id="patch_54">
    <path clip-path="url(#p03b6d52e14)" d="M 239.406545 307.584 
L 242.653091 307.584 
L 242.653091 202.565887 
L 239.406545 202.565887 
z
" style="fill:#1f77b4;"/>
   </g>
   <g id="patch_55">
    <path clip-path="url(#p03b6d52e14)" d="M 242.653091 307.584 
L 245.899637 307.584 
L 245.899637 220.971134 
L 242.653091 220.971134 
z
" style="fill:#1f77b4;"/>
   </g>
   <g id="patch_56">
    <path clip-path="url(#p03b6d52e14)" d="M 245.899636 307.584 
L 249.146181 307.584 
L 249.146181 211.072496 
L 245.899636 211.072496 
z
" style="fill:#1f77b4;"/>
   </g>
   <g id="patch_57">
    <path clip-path="url(#p03b6d52e14)" d="M 249.146182 307.584 
L 252.392728 307.584 
L 252.392728 222.827124 
L 249.146182 222.827124 
z
" style="fill:#1f77b4;"/>
   </g>
   <g id="patch_58">
    <path clip-path="url(#p03b6d52e14)" d="M 252.392728 307.584 
L 255.639273 307.584 
L 255.639273 219.115144 
L 252.392728 219.115144 
z
" style="fill:#1f77b4;"/>
   </g>
   <g id="patch_59">
    <path clip-path="url(#p03b6d52e14)" d="M 255.639275 307.584 
L 258.885819 307.584 
L 258.885819 233.963027 
L 255.639275 233.963027 
z
" style="fill:#1f77b4;"/>
   </g>
   <g id="patch_60">
    <path clip-path="url(#p03b6d52e14)" d="M 258.885818 307.584 
L 262.132364 307.584 
L 262.132364 237.365712 
L 258.885818 237.365712 
z
" style="fill:#1f77b4;"/>
   </g>
   <g id="patch_61">
    <path clip-path="url(#p03b6d52e14)" d="M 262.132364 307.584 
L 265.378909 307.584 
L 265.378909 235.355057 
L 262.132364 235.355057 
z
" style="fill:#1f77b4;"/>
   </g>
   <g id="patch_62">
    <path clip-path="url(#p03b6d52e14)" d="M 265.378911 307.584 
L 268.625459 307.584 
L 268.625459 244.016343 
L 265.378911 244.016343 
z
" style="fill:#1f77b4;"/>
   </g>
   <g id="patch_63">
    <path clip-path="url(#p03b6d52e14)" d="M 268.625452 307.584 
L 271.871998 307.584 
L 271.871998 251.285637 
L 268.625452 251.285637 
z
" style="fill:#1f77b4;"/>
   </g>
   <g id="patch_64">
    <path clip-path="url(#p03b6d52e14)" d="M 271.872001 307.584 
L 275.118547 307.584 
L 275.118547 251.904301 
L 271.872001 251.904301 
z
" style="fill:#1f77b4;"/>
   </g>
   <g id="patch_65">
    <path clip-path="url(#p03b6d52e14)" d="M 275.118547 307.584 
L 278.365089 307.584 
L 278.365089 253.760236 
L 275.118547 253.760236 
z
" style="fill:#1f77b4;"/>
   </g>
   <g id="patch_66">
    <path clip-path="url(#p03b6d52e14)" d="M 278.365086 307.584 
L 281.611632 307.584 
L 281.611632 259.173595 
L 278.365086 259.173595 
z
" style="fill:#1f77b4;"/>
   </g>
   <g id="patch_67">
    <path clip-path="url(#p03b6d52e14)" d="M 281.611635 307.584 
L 284.858181 307.584 
L 284.858181 264.122901 
L 281.611635 264.122901 
z
" style="fill:#1f77b4;"/>
   </g>
   <g id="patch_68">
    <path clip-path="url(#p03b6d52e14)" d="M 284.858178 307.584 
L 288.104724 307.584 
L 288.104724 256.544276 
L 284.858178 256.544276 
z
" style="fill:#1f77b4;"/>
   </g>
   <g id="patch_69">
    <path clip-path="url(#p03b6d52e14)" d="M 288.104727 307.584 
L 291.351273 307.584 
L 291.351273 261.648248 
L 288.104727 261.648248 
z
" style="fill:#1f77b4;"/>
   </g>
   <g id="patch_70">
    <path clip-path="url(#p03b6d52e14)" d="M 291.35127 307.584 
L 294.597819 307.584 
L 294.597819 264.432233 
L 291.35127 264.432233 
z
" style="fill:#1f77b4;"/>
   </g>
   <g id="patch_71">
    <path clip-path="url(#p03b6d52e14)" d="M 294.597819 307.584 
L 297.844361 307.584 
L 297.844361 267.370843 
L 294.597819 267.370843 
z
" style="fill:#1f77b4;"/>
   </g>
   <g id="patch_72">
    <path clip-path="url(#p03b6d52e14)" d="M 297.844361 307.584 
L 301.09091 307.584 
L 301.09091 269.69091 
L 297.844361 269.69091 
z
" style="fill:#1f77b4;"/>
   </g>
   <g id="patch_73">
    <path clip-path="url(#p03b6d52e14)" d="M 301.090904 307.584 
L 304.337446 307.584 
L 304.337446 279.280124 
L 301.090904 279.280124 
z
" style="fill:#1f77b4;"/>
   </g>
   <g id="patch_74">
    <path clip-path="url(#p03b6d52e14)" d="M 304.337453 307.584 
L 307.584002 307.584 
L 307.584002 280.362841 
L 304.337453 280.362841 
z
" style="fill:#1f77b4;"/>
   </g>
   <g id="patch_75">
    <path clip-path="url(#p03b6d52e14)" d="M 307.584002 307.584 
L 310.830545 307.584 
L 310.830545 278.042796 
L 307.584002 278.042796 
z
" style="fill:#1f77b4;"/>
   </g>
   <g id="patch_76">
    <path clip-path="url(#p03b6d52e14)" d="M 310.830545 307.584 
L 314.077094 307.584 
L 314.077094 280.362841 
L 310.830545 280.362841 
z
" style="fill:#1f77b4;"/>
   </g>
   <g id="patch_77">
    <path clip-path="url(#p03b6d52e14)" d="M 314.077087 307.584 
L 317.32363 307.584 
L 317.32363 279.898788 
L 314.077087 279.898788 
z
" style="fill:#1f77b4;"/>
   </g>
   <g id="patch_78">
    <path clip-path="url(#p03b6d52e14)" d="M 317.323636 307.584 
L 320.570179 307.584 
L 320.570179 282.064112 
L 317.323636 282.064112 
z
" style="fill:#1f77b4;"/>
   </g>
   <g id="patch_79">
    <path clip-path="url(#p03b6d52e14)" d="M 320.570179 307.584 
L 323.816728 307.584 
L 323.816728 291.344104 
L 320.570179 291.344104 
z
" style="fill:#1f77b4;"/>
   </g>
   <g id="patch_80">
    <path clip-path="url(#p03b6d52e14)" d="M 323.816721 307.584 
L 327.063264 307.584 
L 327.063264 289.488079 
L 323.816721 289.488079 
z
" style="fill:#1f77b4;"/>
   </g>
   <g id="patch_81">
    <path clip-path="url(#p03b6d52e14)" d="M 327.063271 307.584 
L 330.30982 307.584 
L 330.30982 293.818755 
L 327.063271 293.818755 
z
" style="fill:#1f77b4;"/>
   </g>
   <g id="patch_82">
    <path clip-path="url(#p03b6d52e14)" d="M 330.30982 307.584 
L 333.556362 307.584 
L 333.556362 295.365387 
L 330.30982 295.365387 
z
" style="fill:#1f77b4;"/>
   </g>
   <g id="patch_83">
    <path clip-path="url(#p03b6d52e14)" d="M 333.556362 307.584 
L 336.802911 307.584 
L 336.802911 296.448071 
L 333.556362 296.448071 
z
" style="fill:#1f77b4;"/>
   </g>
   <g id="patch_84">
    <path clip-path="url(#p03b6d52e14)" d="M 336.802905 307.584 
L 340.049447 307.584 
L 340.049447 298.458707 
L 336.802905 298.458707 
z
" style="fill:#1f77b4;"/>
   </g>
   <g id="patch_85">
    <path clip-path="url(#p03b6d52e14)" d="M 340.049454 307.584 
L 343.296003 307.584 
L 343.296003 295.829409 
L 340.049454 295.829409 
z
" style="fill:#1f77b4;"/>
   </g>
   <g id="patch_86">
    <path clip-path="url(#p03b6d52e14)" d="M 343.296003 307.584 
L 346.542546 307.584 
L 346.542546 297.221379 
L 343.296003 297.221379 
z
" style="fill:#1f77b4;"/>
   </g>
   <g id="patch_87">
    <path clip-path="url(#p03b6d52e14)" d="M 346.542539 307.584 
L 349.789075 307.584 
L 349.789075 298.613373 
L 346.542539 298.613373 
z
" style="fill:#1f77b4;"/>
   </g>
   <g id="patch_88">
    <path clip-path="url(#p03b6d52e14)" d="M 349.789088 307.584 
L 353.035637 307.584 
L 353.035637 300.160048 
L 349.789088 300.160048 
z
" style="fill:#1f77b4;"/>
   </g>
   <g id="patch_89">
    <path clip-path="url(#p03b6d52e14)" d="M 353.035637 307.584 
L 356.282187 307.584 
L 356.282187 300.933376 
L 353.035637 300.933376 
z
" style="fill:#1f77b4;"/>
   </g>
   <g id="patch_90">
    <path clip-path="url(#p03b6d52e14)" d="M 356.2822 307.584 
L 359.528736 307.584 
L 359.528736 299.541352 
L 356.2822 299.541352 
z
" style="fill:#1f77b4;"/>
   </g>
   <g id="patch_91">
    <path clip-path="url(#p03b6d52e14)" d="M 359.528723 307.584 
L 362.775272 307.584 
L 362.775272 302.634698 
L 359.528723 302.634698 
z
" style="fill:#1f77b4;"/>
   </g>
   <g id="patch_92">
    <path clip-path="url(#p03b6d52e14)" d="M 362.775272 307.584 
L 366.021821 307.584 
L 366.021821 303.717358 
L 362.775272 303.717358 
z
" style="fill:#1f77b4;"/>
   </g>
   <g id="patch_93">
    <path clip-path="url(#p03b6d52e14)" d="M 366.021821 307.584 
L 369.26837 307.584 
L 369.26837 302.480033 
L 366.021821 302.480033 
z
" style="fill:#1f77b4;"/>
   </g>
   <g id="patch_94">
    <path clip-path="url(#p03b6d52e14)" d="M 369.26837 307.584 
L 372.514906 307.584 
L 372.514906 304.800007 
L 369.26837 304.800007 
z
" style="fill:#1f77b4;"/>
   </g>
   <g id="patch_95">
    <path clip-path="url(#p03b6d52e14)" d="M 372.514906 307.584 
L 375.761455 307.584 
L 375.761455 306.192009 
L 372.514906 306.192009 
z
" style="fill:#1f77b4;"/>
   </g>
   <g id="patch_96">
    <path clip-path="url(#p03b6d52e14)" d="M 375.761455 307.584 
L 379.008004 307.584 
L 379.008004 306.656006 
L 375.761455 306.656006 
z
" style="fill:#1f77b4;"/>
   </g>
   <g id="patch_97">
    <path clip-path="url(#p03b6d52e14)" d="M 379.008017 307.584 
L 382.254553 307.584 
L 382.254553 306.656002 
L 379.008017 306.656002 
z
" style="fill:#1f77b4;"/>
   </g>
   <g id="patch_98">
    <path clip-path="url(#p03b6d52e14)" d="M 382.25454 307.584 
L 385.501089 307.584 
L 385.501089 306.656006 
L 382.25454 306.656006 
z
" style="fill:#1f77b4;"/>
   </g>
   <g id="patch_99">
    <path clip-path="url(#p03b6d52e14)" d="M 385.501089 307.584 
L 388.747638 307.584 
L 388.747638 307.274669 
L 385.501089 307.274669 
z
" style="fill:#1f77b4;"/>
   </g>
   <g id="patch_100">
    <path clip-path="url(#p03b6d52e14)" d="M 388.747638 307.584 
L 391.994188 307.584 
L 391.994188 306.50134 
L 388.747638 306.50134 
z
" style="fill:#1f77b4;"/>
   </g>
   <g id="patch_101">
    <path clip-path="url(#p03b6d52e14)" d="M 391.994188 307.584 
L 395.240724 307.584 
L 395.240724 307.120001 
L 391.994188 307.120001 
z
" style="fill:#1f77b4;"/>
   </g>
   <g id="patch_102">
    <path clip-path="url(#p03b6d52e14)" d="M 395.240724 307.584 
L 398.487273 307.584 
L 398.487273 306.965337 
L 395.240724 306.965337 
z
" style="fill:#1f77b4;"/>
   </g>
   <g id="matplotlib.axis_1">
    <g id="xtick_1">
     <g id="line2d_1">
      <defs>
       <path d="M 0 0 
L 0 3.5 
" id="me02d920330" style="stroke:#000000;stroke-width:0.8;"/>
      </defs>
      <g>
       <use style="stroke:#000000;stroke-width:0.8;" x="71.966415" xlink:href="#me02d920330" y="307.584"/>
      </g>
     </g>
     <g id="text_1">
      <!-- −3 -->
      <defs>
       <path d="M 10.59375 35.5 
L 73.1875 35.5 
L 73.1875 27.203125 
L 10.59375 27.203125 
z
" id="DejaVuSans-8722"/>
       <path d="M 40.578125 39.3125 
Q 47.65625 37.796875 51.625 33 
Q 55.609375 28.21875 55.609375 21.1875 
Q 55.609375 10.40625 48.1875 4.484375 
Q 40.765625 -1.421875 27.09375 -1.421875 
Q 22.515625 -1.421875 17.65625 -0.515625 
Q 12.796875 0.390625 7.625 2.203125 
L 7.625 11.71875 
Q 11.71875 9.328125 16.59375 8.109375 
Q 21.484375 6.890625 26.8125 6.890625 
Q 36.078125 6.890625 40.9375 10.546875 
Q 45.796875 14.203125 45.796875 21.1875 
Q 45.796875 27.640625 41.28125 31.265625 
Q 36.765625 34.90625 28.71875 34.90625 
L 20.21875 34.90625 
L 20.21875 43.015625 
L 29.109375 43.015625 
Q 36.375 43.015625 40.234375 45.921875 
Q 44.09375 48.828125 44.09375 54.296875 
Q 44.09375 59.90625 40.109375 62.90625 
Q 36.140625 65.921875 28.71875 65.921875 
Q 24.65625 65.921875 20.015625 65.03125 
Q 15.375 64.15625 9.8125 62.3125 
L 9.8125 71.09375 
Q 15.4375 72.65625 20.34375 73.4375 
Q 25.25 74.21875 29.59375 74.21875 
Q 40.828125 74.21875 47.359375 69.109375 
Q 53.90625 64.015625 53.90625 55.328125 
Q 53.90625 49.265625 50.4375 45.09375 
Q 46.96875 40.921875 40.578125 39.3125 
z
" id="DejaVuSans-51"/>
      </defs>
      <g transform="translate(59.435556 327.501344)scale(0.17 -0.17)">
       <use xlink:href="#DejaVuSans-8722"/>
       <use x="83.789062" xlink:href="#DejaVuSans-51"/>
      </g>
     </g>
    </g>
    <g id="xtick_2">
     <g id="line2d_2">
      <g>
       <use style="stroke:#000000;stroke-width:0.8;" x="127.325081" xlink:href="#me02d920330" y="307.584"/>
      </g>
     </g>
     <g id="text_2">
      <!-- −2 -->
      <defs>
       <path d="M 19.1875 8.296875 
L 53.609375 8.296875 
L 53.609375 0 
L 7.328125 0 
L 7.328125 8.296875 
Q 12.9375 14.109375 22.625 23.890625 
Q 32.328125 33.6875 34.8125 36.53125 
Q 39.546875 41.84375 41.421875 45.53125 
Q 43.3125 49.21875 43.3125 52.78125 
Q 43.3125 58.59375 39.234375 62.25 
Q 35.15625 65.921875 28.609375 65.921875 
Q 23.96875 65.921875 18.8125 64.3125 
Q 13.671875 62.703125 7.8125 59.421875 
L 7.8125 69.390625 
Q 13.765625 71.78125 18.9375 73 
Q 24.125 74.21875 28.421875 74.21875 
Q 39.75 74.21875 46.484375 68.546875 
Q 53.21875 62.890625 53.21875 53.421875 
Q 53.21875 48.921875 51.53125 44.890625 
Q 49.859375 40.875 45.40625 35.40625 
Q 44.1875 33.984375 37.640625 27.21875 
Q 31.109375 20.453125 19.1875 8.296875 
z
" id="DejaVuSans-50"/>
      </defs>
      <g transform="translate(114.794222 327.501344)scale(0.17 -0.17)">
       <use xlink:href="#DejaVuSans-8722"/>
       <use x="83.789062" xlink:href="#DejaVuSans-50"/>
      </g>
     </g>
    </g>
    <g id="xtick_3">
     <g id="line2d_3">
      <g>
       <use style="stroke:#000000;stroke-width:0.8;" x="182.683748" xlink:href="#me02d920330" y="307.584"/>
      </g>
     </g>
     <g id="text_3">
      <!-- −1 -->
      <defs>
       <path d="M 12.40625 8.296875 
L 28.515625 8.296875 
L 28.515625 63.921875 
L 10.984375 60.40625 
L 10.984375 69.390625 
L 28.421875 72.90625 
L 38.28125 72.90625 
L 38.28125 8.296875 
L 54.390625 8.296875 
L 54.390625 0 
L 12.40625 0 
z
" id="DejaVuSans-49"/>
      </defs>
      <g transform="translate(170.152889 327.501344)scale(0.17 -0.17)">
       <use xlink:href="#DejaVuSans-8722"/>
       <use x="83.789062" xlink:href="#DejaVuSans-49"/>
      </g>
     </g>
    </g>
    <g id="xtick_4">
     <g id="line2d_4">
      <g>
       <use style="stroke:#000000;stroke-width:0.8;" x="238.042415" xlink:href="#me02d920330" y="307.584"/>
      </g>
     </g>
     <g id="text_4">
      <!-- 0 -->
      <defs>
       <path d="M 31.78125 66.40625 
Q 24.171875 66.40625 20.328125 58.90625 
Q 16.5 51.421875 16.5 36.375 
Q 16.5 21.390625 20.328125 13.890625 
Q 24.171875 6.390625 31.78125 6.390625 
Q 39.453125 6.390625 43.28125 13.890625 
Q 47.125 21.390625 47.125 36.375 
Q 47.125 51.421875 43.28125 58.90625 
Q 39.453125 66.40625 31.78125 66.40625 
z
M 31.78125 74.21875 
Q 44.046875 74.21875 50.515625 64.515625 
Q 56.984375 54.828125 56.984375 36.375 
Q 56.984375 17.96875 50.515625 8.265625 
Q 44.046875 -1.421875 31.78125 -1.421875 
Q 19.53125 -1.421875 13.0625 8.265625 
Q 6.59375 17.96875 6.59375 36.375 
Q 6.59375 54.828125 13.0625 64.515625 
Q 19.53125 74.21875 31.78125 74.21875 
z
" id="DejaVuSans-48"/>
      </defs>
      <g transform="translate(232.63429 327.501344)scale(0.17 -0.17)">
       <use xlink:href="#DejaVuSans-48"/>
      </g>
     </g>
    </g>
    <g id="xtick_5">
     <g id="line2d_5">
      <g>
       <use style="stroke:#000000;stroke-width:0.8;" x="293.401081" xlink:href="#me02d920330" y="307.584"/>
      </g>
     </g>
     <g id="text_5">
      <!-- 1 -->
      <g transform="translate(287.992956 327.501344)scale(0.17 -0.17)">
       <use xlink:href="#DejaVuSans-49"/>
      </g>
     </g>
    </g>
    <g id="xtick_6">
     <g id="line2d_6">
      <g>
       <use style="stroke:#000000;stroke-width:0.8;" x="348.759748" xlink:href="#me02d920330" y="307.584"/>
      </g>
     </g>
     <g id="text_6">
      <!-- 2 -->
      <g transform="translate(343.351623 327.501344)scale(0.17 -0.17)">
       <use xlink:href="#DejaVuSans-50"/>
      </g>
     </g>
    </g>
    <g id="xtick_7">
     <g id="line2d_7">
      <g>
       <use style="stroke:#000000;stroke-width:0.8;" x="404.118414" xlink:href="#me02d920330" y="307.584"/>
      </g>
     </g>
     <g id="text_7">
      <!-- 3 -->
      <g transform="translate(398.710289 327.501344)scale(0.17 -0.17)">
       <use xlink:href="#DejaVuSans-51"/>
      </g>
     </g>
    </g>
    <g id="text_8">
     <!-- Position in Radian -->
     <defs>
      <path d="M 19.671875 64.796875 
L 19.671875 37.40625 
L 32.078125 37.40625 
Q 38.96875 37.40625 42.71875 40.96875 
Q 46.484375 44.53125 46.484375 51.125 
Q 46.484375 57.671875 42.71875 61.234375 
Q 38.96875 64.796875 32.078125 64.796875 
z
M 9.8125 72.90625 
L 32.078125 72.90625 
Q 44.34375 72.90625 50.609375 67.359375 
Q 56.890625 61.8125 56.890625 51.125 
Q 56.890625 40.328125 50.609375 34.8125 
Q 44.34375 29.296875 32.078125 29.296875 
L 19.671875 29.296875 
L 19.671875 0 
L 9.8125 0 
z
" id="DejaVuSans-80"/>
      <path d="M 30.609375 48.390625 
Q 23.390625 48.390625 19.1875 42.75 
Q 14.984375 37.109375 14.984375 27.296875 
Q 14.984375 17.484375 19.15625 11.84375 
Q 23.34375 6.203125 30.609375 6.203125 
Q 37.796875 6.203125 41.984375 11.859375 
Q 46.1875 17.53125 46.1875 27.296875 
Q 46.1875 37.015625 41.984375 42.703125 
Q 37.796875 48.390625 30.609375 48.390625 
z
M 30.609375 56 
Q 42.328125 56 49.015625 48.375 
Q 55.71875 40.765625 55.71875 27.296875 
Q 55.71875 13.875 49.015625 6.21875 
Q 42.328125 -1.421875 30.609375 -1.421875 
Q 18.84375 -1.421875 12.171875 6.21875 
Q 5.515625 13.875 5.515625 27.296875 
Q 5.515625 40.765625 12.171875 48.375 
Q 18.84375 56 30.609375 56 
z
" id="DejaVuSans-111"/>
      <path d="M 44.28125 53.078125 
L 44.28125 44.578125 
Q 40.484375 46.53125 36.375 47.5 
Q 32.28125 48.484375 27.875 48.484375 
Q 21.1875 48.484375 17.84375 46.4375 
Q 14.5 44.390625 14.5 40.28125 
Q 14.5 37.15625 16.890625 35.375 
Q 19.28125 33.59375 26.515625 31.984375 
L 29.59375 31.296875 
Q 39.15625 29.25 43.1875 25.515625 
Q 47.21875 21.78125 47.21875 15.09375 
Q 47.21875 7.46875 41.1875 3.015625 
Q 35.15625 -1.421875 24.609375 -1.421875 
Q 20.21875 -1.421875 15.453125 -0.5625 
Q 10.6875 0.296875 5.421875 2 
L 5.421875 11.28125 
Q 10.40625 8.6875 15.234375 7.390625 
Q 20.0625 6.109375 24.8125 6.109375 
Q 31.15625 6.109375 34.5625 8.28125 
Q 37.984375 10.453125 37.984375 14.40625 
Q 37.984375 18.0625 35.515625 20.015625 
Q 33.0625 21.96875 24.703125 23.78125 
L 21.578125 24.515625 
Q 13.234375 26.265625 9.515625 29.90625 
Q 5.8125 33.546875 5.8125 39.890625 
Q 5.8125 47.609375 11.28125 51.796875 
Q 16.75 56 26.8125 56 
Q 31.78125 56 36.171875 55.265625 
Q 40.578125 54.546875 44.28125 53.078125 
z
" id="DejaVuSans-115"/>
      <path d="M 9.421875 54.6875 
L 18.40625 54.6875 
L 18.40625 0 
L 9.421875 0 
z
M 9.421875 75.984375 
L 18.40625 75.984375 
L 18.40625 64.59375 
L 9.421875 64.59375 
z
" id="DejaVuSans-105"/>
      <path d="M 18.3125 70.21875 
L 18.3125 54.6875 
L 36.8125 54.6875 
L 36.8125 47.703125 
L 18.3125 47.703125 
L 18.3125 18.015625 
Q 18.3125 11.328125 20.140625 9.421875 
Q 21.96875 7.515625 27.59375 7.515625 
L 36.8125 7.515625 
L 36.8125 0 
L 27.59375 0 
Q 17.1875 0 13.234375 3.875 
Q 9.28125 7.765625 9.28125 18.015625 
L 9.28125 47.703125 
L 2.6875 47.703125 
L 2.6875 54.6875 
L 9.28125 54.6875 
L 9.28125 70.21875 
z
" id="DejaVuSans-116"/>
      <path d="M 54.890625 33.015625 
L 54.890625 0 
L 45.90625 0 
L 45.90625 32.71875 
Q 45.90625 40.484375 42.875 44.328125 
Q 39.84375 48.1875 33.796875 48.1875 
Q 26.515625 48.1875 22.3125 43.546875 
Q 18.109375 38.921875 18.109375 30.90625 
L 18.109375 0 
L 9.078125 0 
L 9.078125 54.6875 
L 18.109375 54.6875 
L 18.109375 46.1875 
Q 21.34375 51.125 25.703125 53.5625 
Q 30.078125 56 35.796875 56 
Q 45.21875 56 50.046875 50.171875 
Q 54.890625 44.34375 54.890625 33.015625 
z
" id="DejaVuSans-110"/>
      <path id="DejaVuSans-32"/>
      <path d="M 44.390625 34.1875 
Q 47.5625 33.109375 50.5625 29.59375 
Q 53.5625 26.078125 56.59375 19.921875 
L 66.609375 0 
L 56 0 
L 46.6875 18.703125 
Q 43.0625 26.03125 39.671875 28.421875 
Q 36.28125 30.8125 30.421875 30.8125 
L 19.671875 30.8125 
L 19.671875 0 
L 9.8125 0 
L 9.8125 72.90625 
L 32.078125 72.90625 
Q 44.578125 72.90625 50.734375 67.671875 
Q 56.890625 62.453125 56.890625 51.90625 
Q 56.890625 45.015625 53.6875 40.46875 
Q 50.484375 35.9375 44.390625 34.1875 
z
M 19.671875 64.796875 
L 19.671875 38.921875 
L 32.078125 38.921875 
Q 39.203125 38.921875 42.84375 42.21875 
Q 46.484375 45.515625 46.484375 51.90625 
Q 46.484375 58.296875 42.84375 61.546875 
Q 39.203125 64.796875 32.078125 64.796875 
z
" id="DejaVuSans-82"/>
      <path d="M 34.28125 27.484375 
Q 23.390625 27.484375 19.1875 25 
Q 14.984375 22.515625 14.984375 16.5 
Q 14.984375 11.71875 18.140625 8.90625 
Q 21.296875 6.109375 26.703125 6.109375 
Q 34.1875 6.109375 38.703125 11.40625 
Q 43.21875 16.703125 43.21875 25.484375 
L 43.21875 27.484375 
z
M 52.203125 31.203125 
L 52.203125 0 
L 43.21875 0 
L 43.21875 8.296875 
Q 40.140625 3.328125 35.546875 0.953125 
Q 30.953125 -1.421875 24.3125 -1.421875 
Q 15.921875 -1.421875 10.953125 3.296875 
Q 6 8.015625 6 15.921875 
Q 6 25.140625 12.171875 29.828125 
Q 18.359375 34.515625 30.609375 34.515625 
L 43.21875 34.515625 
L 43.21875 35.40625 
Q 43.21875 41.609375 39.140625 45 
Q 35.0625 48.390625 27.6875 48.390625 
Q 23 48.390625 18.546875 47.265625 
Q 14.109375 46.140625 10.015625 43.890625 
L 10.015625 52.203125 
Q 14.9375 54.109375 19.578125 55.046875 
Q 24.21875 56 28.609375 56 
Q 40.484375 56 46.34375 49.84375 
Q 52.203125 43.703125 52.203125 31.203125 
z
" id="DejaVuSans-97"/>
      <path d="M 45.40625 46.390625 
L 45.40625 75.984375 
L 54.390625 75.984375 
L 54.390625 0 
L 45.40625 0 
L 45.40625 8.203125 
Q 42.578125 3.328125 38.25 0.953125 
Q 33.9375 -1.421875 27.875 -1.421875 
Q 17.96875 -1.421875 11.734375 6.484375 
Q 5.515625 14.40625 5.515625 27.296875 
Q 5.515625 40.1875 11.734375 48.09375 
Q 17.96875 56 27.875 56 
Q 33.9375 56 38.25 53.625 
Q 42.578125 51.265625 45.40625 46.390625 
z
M 14.796875 27.296875 
Q 14.796875 17.390625 18.875 11.75 
Q 22.953125 6.109375 30.078125 6.109375 
Q 37.203125 6.109375 41.296875 11.75 
Q 45.40625 17.390625 45.40625 27.296875 
Q 45.40625 37.203125 41.296875 42.84375 
Q 37.203125 48.484375 30.078125 48.484375 
Q 22.953125 48.484375 18.875 42.84375 
Q 14.796875 37.203125 14.796875 27.296875 
z
" id="DejaVuSans-100"/>
     </defs>
     <g transform="translate(102.024844 357.832125)scale(0.3 -0.3)">
      <use xlink:href="#DejaVuSans-80"/>
      <use x="60.255859" xlink:href="#DejaVuSans-111"/>
      <use x="121.4375" xlink:href="#DejaVuSans-115"/>
      <use x="173.537109" xlink:href="#DejaVuSans-105"/>
      <use x="201.320312" xlink:href="#DejaVuSans-116"/>
      <use x="240.529297" xlink:href="#DejaVuSans-105"/>
      <use x="268.3125" xlink:href="#DejaVuSans-111"/>
      <use x="329.494141" xlink:href="#DejaVuSans-110"/>
      <use x="392.873047" xlink:href="#DejaVuSans-32"/>
      <use x="424.660156" xlink:href="#DejaVuSans-105"/>
      <use x="452.443359" xlink:href="#DejaVuSans-110"/>
      <use x="515.822266" xlink:href="#DejaVuSans-32"/>
      <use x="547.609375" xlink:href="#DejaVuSans-82"/>
      <use x="617.060547" xlink:href="#DejaVuSans-97"/>
      <use x="678.339844" xlink:href="#DejaVuSans-100"/>
      <use x="741.816406" xlink:href="#DejaVuSans-105"/>
      <use x="769.599609" xlink:href="#DejaVuSans-97"/>
      <use x="830.878906" xlink:href="#DejaVuSans-110"/>
     </g>
    </g>
   </g>
   <g id="matplotlib.axis_2">
    <g id="ytick_1">
     <g id="line2d_8">
      <defs>
       <path d="M 0 0 
L -3.5 0 
" id="mb9fa988704" style="stroke:#000000;stroke-width:0.8;"/>
      </defs>
      <g>
       <use style="stroke:#000000;stroke-width:0.8;" x="57.6" xlink:href="#mb9fa988704" y="307.584"/>
      </g>
     </g>
     <g id="text_9">
      <!-- 0.00 -->
      <defs>
       <path d="M 10.6875 12.40625 
L 21 12.40625 
L 21 0 
L 10.6875 0 
z
" id="DejaVuSans-46"/>
      </defs>
      <g transform="translate(12.748438 314.042672)scale(0.17 -0.17)">
       <use xlink:href="#DejaVuSans-48"/>
       <use x="63.623047" xlink:href="#DejaVuSans-46"/>
       <use x="95.410156" xlink:href="#DejaVuSans-48"/>
       <use x="159.033203" xlink:href="#DejaVuSans-48"/>
      </g>
     </g>
    </g>
    <g id="ytick_2">
     <g id="line2d_9">
      <g>
       <use style="stroke:#000000;stroke-width:0.8;" x="57.6" xlink:href="#mb9fa988704" y="262.231597"/>
      </g>
     </g>
     <g id="text_10">
      <!-- 0.25 -->
      <defs>
       <path d="M 10.796875 72.90625 
L 49.515625 72.90625 
L 49.515625 64.59375 
L 19.828125 64.59375 
L 19.828125 46.734375 
Q 21.96875 47.46875 24.109375 47.828125 
Q 26.265625 48.1875 28.421875 48.1875 
Q 40.625 48.1875 47.75 41.5 
Q 54.890625 34.8125 54.890625 23.390625 
Q 54.890625 11.625 47.5625 5.09375 
Q 40.234375 -1.421875 26.90625 -1.421875 
Q 22.3125 -1.421875 17.546875 -0.640625 
Q 12.796875 0.140625 7.71875 1.703125 
L 7.71875 11.625 
Q 12.109375 9.234375 16.796875 8.0625 
Q 21.484375 6.890625 26.703125 6.890625 
Q 35.15625 6.890625 40.078125 11.328125 
Q 45.015625 15.765625 45.015625 23.390625 
Q 45.015625 31 40.078125 35.4375 
Q 35.15625 39.890625 26.703125 39.890625 
Q 22.75 39.890625 18.8125 39.015625 
Q 14.890625 38.140625 10.796875 36.28125 
z
" id="DejaVuSans-53"/>
      </defs>
      <g transform="translate(12.748438 268.690269)scale(0.17 -0.17)">
       <use xlink:href="#DejaVuSans-48"/>
       <use x="63.623047" xlink:href="#DejaVuSans-46"/>
       <use x="95.410156" xlink:href="#DejaVuSans-50"/>
       <use x="159.033203" xlink:href="#DejaVuSans-53"/>
      </g>
     </g>
    </g>
    <g id="ytick_3">
     <g id="line2d_10">
      <g>
       <use style="stroke:#000000;stroke-width:0.8;" x="57.6" xlink:href="#mb9fa988704" y="216.879193"/>
      </g>
     </g>
     <g id="text_11">
      <!-- 0.50 -->
      <g transform="translate(12.748438 223.337865)scale(0.17 -0.17)">
       <use xlink:href="#DejaVuSans-48"/>
       <use x="63.623047" xlink:href="#DejaVuSans-46"/>
       <use x="95.410156" xlink:href="#DejaVuSans-53"/>
       <use x="159.033203" xlink:href="#DejaVuSans-48"/>
      </g>
     </g>
    </g>
    <g id="ytick_4">
     <g id="line2d_11">
      <g>
       <use style="stroke:#000000;stroke-width:0.8;" x="57.6" xlink:href="#mb9fa988704" y="171.52679"/>
      </g>
     </g>
     <g id="text_12">
      <!-- 0.75 -->
      <defs>
       <path d="M 8.203125 72.90625 
L 55.078125 72.90625 
L 55.078125 68.703125 
L 28.609375 0 
L 18.3125 0 
L 43.21875 64.59375 
L 8.203125 64.59375 
z
" id="DejaVuSans-55"/>
      </defs>
      <g transform="translate(12.748438 177.985462)scale(0.17 -0.17)">
       <use xlink:href="#DejaVuSans-48"/>
       <use x="63.623047" xlink:href="#DejaVuSans-46"/>
       <use x="95.410156" xlink:href="#DejaVuSans-55"/>
       <use x="159.033203" xlink:href="#DejaVuSans-53"/>
      </g>
     </g>
    </g>
    <g id="ytick_5">
     <g id="line2d_12">
      <g>
       <use style="stroke:#000000;stroke-width:0.8;" x="57.6" xlink:href="#mb9fa988704" y="126.174387"/>
      </g>
     </g>
     <g id="text_13">
      <!-- 1.00 -->
      <g transform="translate(12.748438 132.633059)scale(0.17 -0.17)">
       <use xlink:href="#DejaVuSans-49"/>
       <use x="63.623047" xlink:href="#DejaVuSans-46"/>
       <use x="95.410156" xlink:href="#DejaVuSans-48"/>
       <use x="159.033203" xlink:href="#DejaVuSans-48"/>
      </g>
     </g>
    </g>
    <g id="ytick_6">
     <g id="line2d_13">
      <g>
       <use style="stroke:#000000;stroke-width:0.8;" x="57.6" xlink:href="#mb9fa988704" y="80.821984"/>
      </g>
     </g>
     <g id="text_14">
      <!-- 1.25 -->
      <g transform="translate(12.748438 87.280655)scale(0.17 -0.17)">
       <use xlink:href="#DejaVuSans-49"/>
       <use x="63.623047" xlink:href="#DejaVuSans-46"/>
       <use x="95.410156" xlink:href="#DejaVuSans-50"/>
       <use x="159.033203" xlink:href="#DejaVuSans-53"/>
      </g>
     </g>
    </g>
    <g id="text_15">
     <!-- Density -->
     <defs>
      <path d="M 19.671875 64.796875 
L 19.671875 8.109375 
L 31.59375 8.109375 
Q 46.6875 8.109375 53.6875 14.9375 
Q 60.6875 21.78125 60.6875 36.53125 
Q 60.6875 51.171875 53.6875 57.984375 
Q 46.6875 64.796875 31.59375 64.796875 
z
M 9.8125 72.90625 
L 30.078125 72.90625 
Q 51.265625 72.90625 61.171875 64.09375 
Q 71.09375 55.28125 71.09375 36.53125 
Q 71.09375 17.671875 61.125 8.828125 
Q 51.171875 0 30.078125 0 
L 9.8125 0 
z
" id="DejaVuSans-68"/>
      <path d="M 56.203125 29.59375 
L 56.203125 25.203125 
L 14.890625 25.203125 
Q 15.484375 15.921875 20.484375 11.0625 
Q 25.484375 6.203125 34.421875 6.203125 
Q 39.59375 6.203125 44.453125 7.46875 
Q 49.3125 8.734375 54.109375 11.28125 
L 54.109375 2.78125 
Q 49.265625 0.734375 44.1875 -0.34375 
Q 39.109375 -1.421875 33.890625 -1.421875 
Q 20.796875 -1.421875 13.15625 6.1875 
Q 5.515625 13.8125 5.515625 26.8125 
Q 5.515625 40.234375 12.765625 48.109375 
Q 20.015625 56 32.328125 56 
Q 43.359375 56 49.78125 48.890625 
Q 56.203125 41.796875 56.203125 29.59375 
z
M 47.21875 32.234375 
Q 47.125 39.59375 43.09375 43.984375 
Q 39.0625 48.390625 32.421875 48.390625 
Q 24.90625 48.390625 20.390625 44.140625 
Q 15.875 39.890625 15.1875 32.171875 
z
" id="DejaVuSans-101"/>
      <path d="M 32.171875 -5.078125 
Q 28.375 -14.84375 24.75 -17.8125 
Q 21.140625 -20.796875 15.09375 -20.796875 
L 7.90625 -20.796875 
L 7.90625 -13.28125 
L 13.1875 -13.28125 
Q 16.890625 -13.28125 18.9375 -11.515625 
Q 21 -9.765625 23.484375 -3.21875 
L 25.09375 0.875 
L 2.984375 54.6875 
L 12.5 54.6875 
L 29.59375 11.921875 
L 46.6875 54.6875 
L 56.203125 54.6875 
z
" id="DejaVuSans-121"/>
     </defs>
     <g transform="translate(2.509375 231.553781)rotate(-90)scale(0.3 -0.3)">
      <use xlink:href="#DejaVuSans-68"/>
      <use x="77.001953" xlink:href="#DejaVuSans-101"/>
      <use x="138.525391" xlink:href="#DejaVuSans-110"/>
      <use x="201.904297" xlink:href="#DejaVuSans-115"/>
      <use x="254.003906" xlink:href="#DejaVuSans-105"/>
      <use x="281.787109" xlink:href="#DejaVuSans-116"/>
      <use x="320.996094" xlink:href="#DejaVuSans-121"/>
     </g>
    </g>
   </g>
   <g id="line2d_14">
    <path clip-path="url(#p03b6d52e14)" d="M 99.645748 304.275385 
L 100.143976 303.953716 
L 100.718322 303.88835 
L 101.410306 304.001659 
L 101.901614 304.338584 
L 102.545158 304.742646 
L 102.918829 304.70563 
L 103.29942 304.436578 
L 103.680011 303.875253 
L 104.496551 302.554571 
L 104.780264 302.56386 
L 105.264653 302.60079 
L 105.735201 302.286984 
L 106.101953 302.187159 
L 106.454864 302.339418 
L 106.870054 302.77956 
L 107.901109 304.029411 
L 108.101784 303.883635 
L 108.337059 303.38456 
L 108.71765 301.934431 
L 109.208958 300.304297 
L 109.402713 300.207352 
L 109.568789 300.407361 
L 109.894021 301.257203 
L 110.336891 302.215107 
L 110.572165 302.293871 
L 110.855878 302.102351 
L 111.229549 301.917407 
L 111.444064 302.070356 
L 111.755456 302.639777 
L 112.288284 303.555888 
L 112.502798 303.563325 
L 112.751912 303.303317 
L 113.423136 302.529745 
L 113.713769 302.563847 
L 114.122039 302.871767 
L 115.263812 303.876937 
L 115.699761 303.804088 
L 116.197989 303.489459 
L 117.229045 302.789058 
L 119.242716 301.446186 
L 119.650986 301.208032 
L 119.941619 301.296898 
L 120.529805 301.803472 
L 121.062632 302.456345 
L 121.823814 303.485275 
L 122.066008 303.4314 
L 122.841029 303.059238 
L 123.505333 303.291587 
L 123.775207 302.950296 
L 124.287275 302.315922 
L 124.508709 302.373609 
L 124.89622 302.800046 
L 125.31833 303.116086 
L 126.176389 303.518536 
L 126.674617 304.219502 
L 127.39428 305.195656 
L 127.622634 305.174871 
L 127.857909 304.888343 
L 128.847445 303.375025 
L 129.117318 303.542945 
L 129.643226 303.878349 
L 129.89234 303.749138 
L 130.639682 303.214636 
L 131.691496 303.334679 
L 132.085927 302.963404 
L 133.795126 300.566135 
L 134.231075 299.815103 
L 134.42483 299.822846 
L 134.653185 300.114923 
L 135.400527 301.222364 
L 135.628881 301.157805 
L 135.981793 300.754353 
L 136.362384 300.440209 
L 136.590738 300.522147 
L 136.985169 300.987556 
L 137.441878 301.387922 
L 137.76711 301.399856 
L 138.078502 301.172669 
L 138.507532 300.533214 
L 139.01268 299.40248 
L 139.476309 297.714655 
L 140.043735 295.833973 
L 140.313609 295.568234 
L 140.541963 295.639627 
L 140.881035 296.034513 
L 141.358503 296.956698 
L 141.953609 298.055471 
L 142.140445 298.032095 
L 142.34112 297.718617 
L 142.783989 296.450393 
L 143.136901 295.790542 
L 143.358335 295.756073 
L 143.683567 296.00656 
L 144.071078 296.201688 
L 144.479348 296.109065 
L 144.8115 296.12992 
L 145.053694 296.392166 
L 145.351247 297.104476 
L 146.174707 299.298006 
L 146.326944 299.219689 
L 146.527619 298.797862 
L 146.942809 297.244638 
L 147.33032 296.163499 
L 147.510235 296.123105 
L 147.676311 296.379539 
L 147.973864 297.349178 
L 148.638168 299.49225 
L 148.894202 299.701394 
L 149.074118 299.58839 
L 149.295552 299.138056 
L 149.586185 297.975353 
L 150.015215 295.166966 
L 150.61724 291.519803 
L 150.894034 290.970871 
L 151.101629 290.95454 
L 151.399182 291.208176 
L 151.752093 291.792015 
L 152.111924 292.884797 
L 152.790068 294.986778 
L 152.949224 294.97896 
L 153.1153 294.646219 
L 153.385174 293.478556 
L 155.260449 283.881441 
L 155.862474 281.988561 
L 156.215386 281.453498 
L 156.395301 281.489296 
L 156.582137 281.821025 
L 156.87969 282.904848 
L 157.543994 285.352721 
L 157.800027 285.595573 
L 157.973023 285.496125 
L 158.194458 285.053666 
L 158.976399 282.99767 
L 159.031758 283.035865 
L 159.204754 283.373386 
L 160.042053 285.387637 
L 160.221969 285.212361 
L 160.526442 284.514485 
L 161.093868 283.267681 
L 161.294543 283.244865 
L 161.495218 283.504811 
L 161.896569 284.520436 
L 162.339438 285.380963 
L 162.68543 285.591501 
L 163.017582 285.556475 
L 163.245936 285.297195 
L 163.52273 284.579623 
L 164.256232 282.49079 
L 164.422308 282.519376 
L 164.616063 282.836227 
L 164.906696 283.804411 
L 165.391085 286.365417 
L 165.847794 288.29992 
L 166.117667 288.656423 
L 166.39446 288.662129 
L 166.80965 288.441016 
L 167.127963 287.981137 
L 167.764587 287.007251 
L 168.027541 287.032733 
L 168.394292 287.057364 
L 168.650326 286.792576 
L 169.31463 286.030807 
L 169.695221 285.732544 
L 169.930495 285.137613 
L 170.255727 283.568349 
L 170.98231 279.951256 
L 171.259103 279.546691 
L 171.452859 279.576298 
L 171.653534 279.872226 
L 171.916487 280.717558 
L 172.504673 283.68794 
L 172.857585 284.734872 
L 173.162057 285.003079 
L 173.45269 285.296093 
L 173.715644 285.954076 
L 174.559864 288.366219 
L 174.71902 288.254757 
L 174.981974 287.711569 
L 175.736235 286.090455 
L 176.303662 285.43681 
L 176.919527 284.821838 
L 177.265519 283.956914 
L 178.01978 282.023671 
L 178.372692 281.690422 
L 178.670245 281.693718 
L 179.147713 281.736201 
L 179.369148 281.459515 
L 179.673621 280.654828 
L 180.199528 278.508124 
L 181.244423 274.194524 
L 181.445098 274.101287 
L 181.618094 274.307301 
L 182.054043 275.332639 
L 182.441554 275.918978 
L 183.237335 276.75599 
L 184.469065 278.700847 
L 184.6905 278.644062 
L 184.988053 278.272297 
L 185.749234 276.874915 
L 186.060627 275.641229 
L 186.586534 272.358079 
L 186.960205 270.735608 
L 187.147041 270.597469 
L 187.299277 270.794648 
L 188.143497 272.261776 
L 188.717843 272.205496 
L 188.994636 272.628488 
L 189.617421 273.596935 
L 189.887295 273.634414 
L 190.537759 273.555578 
L 190.752274 274.01122 
L 191.146704 275.543378 
L 191.471936 276.400901 
L 191.596493 276.349106 
L 191.74873 275.906938 
L 191.997844 274.335017 
L 192.703667 269.533765 
L 192.848983 269.449148 
L 192.862823 269.458697 
L 193.021979 269.728226 
L 193.527127 270.666492 
L 193.665524 270.519077 
L 193.873119 269.881612 
L 194.267549 267.760661 
L 194.765777 265.454794 
L 195.014891 265.134243 
L 195.250165 265.191099 
L 195.582317 265.235987 
L 195.845271 264.992407 
L 196.412697 264.065044 
L 196.904006 262.834631 
L 197.312276 262.05069 
L 197.526791 262.023559 
L 198.225694 262.228094 
L 198.454048 261.729463 
L 199.166791 259.74694 
L 199.21523 259.781388 
L 199.360546 260.120723 
L 199.61658 261.436406 
L 200.05945 263.499248 
L 200.149407 263.502067 
L 200.177087 263.464409 
L 200.315483 263.012486 
L 200.585357 261.169931 
L 201.152783 257.437833 
L 201.401897 256.995454 
L 201.602572 257.018586 
L 202.080041 257.163307 
L 202.329155 256.900168 
L 202.765104 256.459517 
L 202.93118 256.601138 
L 203.304851 257.367469 
L 203.512446 257.509305 
L 203.650843 257.307655 
L 203.886117 256.454128 
L 204.384345 254.696502 
L 204.522742 254.722206 
L 204.695738 255.10038 
L 205.394641 256.900882 
L 205.539957 256.74679 
L 205.789071 256.049845 
L 206.24578 254.851966 
L 206.384177 254.904037 
L 206.571013 255.332298 
L 207.09 256.600499 
L 207.214557 256.454252 
L 207.415232 255.75991 
L 209.58114 246.205539 
L 209.726457 246.29455 
L 209.913292 246.748747 
L 210.210845 248.16159 
L 211.442575 254.744396 
L 211.66401 254.94806 
L 211.802407 254.78532 
L 211.989242 254.134582 
L 212.238356 252.327254 
L 212.563588 248.055515 
L 213.663842 231.692409 
L 213.878357 231.301961 
L 214.051352 231.375763 
L 214.598019 232.016457 
L 214.874813 232.713355 
L 215.82283 235.541133 
L 216.134222 235.64109 
L 216.341817 235.492576 
L 216.549412 235.013221 
L 216.874644 233.573389 
L 217.448991 231.19213 
L 218.106375 229.78424 
L 218.424687 229.401393 
L 218.576923 229.496705 
L 218.770679 229.965151 
L 219.14435 231.630644 
L 219.490341 232.735659 
L 219.607979 232.724147 
L 219.621818 232.70612 
L 219.767135 232.29458 
L 220.002409 230.800081 
L 220.950426 223.670484 
L 220.964266 223.67522 
L 221.074983 223.866587 
L 221.289498 224.836151 
L 221.718528 226.661166 
L 221.808486 226.595559 
L 221.939962 226.075765 
L 222.168317 224.039695 
L 223.012537 215.522189 
L 223.074815 215.520822 
L 223.109414 215.576527 
L 223.240891 216.157815 
L 223.462326 218.379157 
L 224.396503 229.708115 
L 224.424183 229.694765 
L 224.52106 229.428331 
L 224.707896 228.061601 
L 225.081567 223.258966 
L 225.683592 216.176827 
L 225.960386 215.060722 
L 226.154141 214.961376 
L 226.576251 214.965262 
L 226.804605 214.556148 
L 227.365112 213.500643 
L 227.503508 213.610272 
L 227.690344 214.130021 
L 228.029416 215.914048 
L 228.430766 217.61601 
L 228.555323 217.664694 
L 228.576083 217.64629 
L 228.721399 217.323912 
L 229.032792 215.914949 
L 229.441062 214.421696 
L 229.648657 214.280184 
L 229.877011 214.444038 
L 230.126125 214.517951 
L 230.271442 214.27744 
L 230.465197 213.440383 
L 230.735071 211.123541 
L 231.122581 205.578453 
L 232.02216 192.120793 
L 232.250514 191.358978 
L 232.361231 191.431334 
L 232.541147 191.969915 
L 233.163932 194.01425 
L 233.274649 193.865788 
L 233.440725 193.160314 
L 233.731358 190.721695 
L 234.160388 187.560178 
L 234.215747 187.52985 
L 234.257266 187.590663 
L 234.374903 188.166586 
L 234.582498 190.539053 
L 235.482076 202.380714 
L 235.634313 202.565946 
L 235.655072 202.554479 
L 235.786549 202.318042 
L 236.021823 201.345818 
L 236.312456 199.152692 
L 236.55465 195.446351 
L 236.783005 188.068913 
L 237.032119 171.738234 
L 237.350431 133.565234 
L 237.987056 55.158605 
L 238.056254 54.144 
L 238.104693 54.756674 
L 238.21541 60.123123 
L 238.436845 84.441774 
L 239.239546 181.742257 
L 239.585537 195.793384 
L 240.063006 205.951165 
L 240.402078 209.700256 
L 240.498955 209.910931 
L 240.547394 209.843901 
L 240.658112 209.247867 
L 240.858787 206.691189 
L 241.654568 194.33085 
L 241.689167 194.365056 
L 241.786044 194.820876 
L 241.9798 197.065727 
L 243.543682 219.132489 
L 243.986551 223.373987 
L 244.242585 224.197402 
L 244.380982 224.180108 
L 244.553978 223.811379 
L 244.86537 222.513804 
L 245.266721 219.889926 
L 245.626552 215.915928 
L 246.373894 207.13224 
L 246.443092 207.069757 
L 246.491531 207.139368 
L 246.623008 207.764564 
L 246.899801 210.507033 
L 247.37035 214.645934 
L 247.591785 215.104667 
L 247.78554 215.052228 
L 247.979295 215.079082 
L 248.131532 215.412068 
L 248.346046 216.539894 
L 248.678198 219.718605 
L 249.43246 227.19078 
L 249.591616 227.46398 
L 249.612376 227.453024 
L 249.723093 227.222588 
L 249.923768 226.151354 
L 250.2836 222.777733 
L 250.954824 216.600185 
L 251.162419 216.211637 
L 251.280056 216.372666 
L 251.51533 217.219845 
L 251.972039 218.739353 
L 252.110436 218.729082 
L 252.262672 218.3877 
L 252.560225 217.011027 
L 252.954655 215.512428 
L 253.086132 215.485438 
L 253.099972 215.49867 
L 253.252208 215.822089 
L 253.653559 217.427837 
L 254.047989 218.50508 
L 254.359382 219.364281 
L 254.608496 220.910431 
L 254.996006 225.055417 
L 255.584192 230.827952 
L 255.930184 232.275832 
L 256.206977 232.649663 
L 256.449171 232.637223 
L 256.843602 232.591136 
L 257.030437 232.881094 
L 257.286471 233.791657 
L 257.978454 236.466797 
L 258.109931 236.417161 
L 258.296767 235.993683 
L 258.836514 234.649407 
L 258.843434 234.652375 
L 258.961071 234.839194 
L 259.140986 235.647477 
L 259.466219 238.373776 
L 259.909088 241.551128 
L 260.012885 241.666989 
L 260.054404 241.62383 
L 260.178961 241.187476 
L 260.400396 239.405105 
L 261.237696 231.766642 
L 261.320734 231.851031 
L 261.459131 232.457856 
L 261.749764 235.029523 
L 262.164954 238.122974 
L 262.268751 238.237387 
L 262.31027 238.191352 
L 262.434827 237.752082 
L 262.677021 235.867802 
L 263.292886 230.940573 
L 263.389764 230.855068 
L 263.431283 230.901273 
L 263.56276 231.367927 
L 263.804954 233.274776 
L 264.3793 237.868472 
L 264.469258 237.95325 
L 264.510777 237.913276 
L 264.635334 237.511042 
L 264.884448 235.743882 
L 265.396516 232.256617 
L 265.479554 232.204535 
L 265.521073 232.25918 
L 265.64563 232.76029 
L 265.860145 234.774831 
L 266.289174 241.542308 
L 266.759723 247.562701 
L 267.036516 248.803616 
L 267.230272 248.937269 
L 267.500145 248.762487 
L 267.811538 248.670338 
L 268.039892 248.846175 
L 268.316685 249.387686 
L 268.718036 250.751085 
L 269.465378 253.255304 
L 269.749091 253.544974 
L 269.977445 253.490694 
L 270.295758 253.145986 
L 270.593311 252.489013 
L 270.877024 251.228492 
L 271.306053 248.046261 
L 271.728163 245.540533 
L 271.86656 245.390472 
L 271.894239 245.412019 
L 272.018796 245.725271 
L 272.226391 246.984662 
L 272.620822 251.080532 
L 273.222847 256.8402 
L 273.465041 257.55911 
L 273.575759 257.495394 
L 273.734915 257.013917 
L 274.032468 255.222885 
L 274.842088 250.152052 
L 275.319557 248.730416 
L 275.624029 248.323574 
L 275.769346 248.407568 
L 275.956181 248.861667 
L 276.267574 250.343622 
L 277.347068 255.84479 
L 277.596182 256.241387 
L 277.720739 256.139689 
L 277.914494 255.587846 
L 278.49576 253.644156 
L 278.52344 253.657733 
L 278.641077 253.897218 
L 278.841752 254.958636 
L 279.33306 259.259394 
L 279.824368 262.502907 
L 280.239558 263.965199 
L 280.447153 264.132458 
L 280.59247 263.965383 
L 280.862343 263.206978 
L 281.229094 262.388395 
L 281.353651 262.45743 
L 281.519727 262.908733 
L 281.8242 264.562605 
L 282.294749 266.841783 
L 282.419306 266.91607 
L 282.446985 266.892624 
L 282.585382 266.562388 
L 282.827576 265.270128 
L 283.581838 260.916528 
L 283.768673 260.801013 
L 283.934749 261.01912 
L 284.439897 261.801711 
L 284.453737 261.793918 
L 284.592133 261.56898 
L 284.806648 260.686989 
L 285.304876 257.318648 
L 285.671627 255.667388 
L 285.886142 255.449111 
L 286.052218 255.589773 
L 286.861839 256.564607 
L 287.21475 256.641346 
L 287.422345 257.009027 
L 287.872134 258.453529 
L 288.183527 259.015742 
L 288.48108 259.080723 
L 288.674835 259.247763 
L 288.87551 259.786218 
L 289.186903 261.38856 
L 289.844287 264.772271 
L 290.017283 264.908175 
L 290.031122 264.899608 
L 290.169519 264.663327 
L 290.432473 263.643985 
L 290.94454 261.779102 
L 291.193654 261.581512 
L 291.837199 261.581862 
L 292.058634 261.817558 
L 292.722938 262.702546 
L 293.235005 262.486315 
L 293.255765 262.525887 
L 293.43568 263.159739 
L 293.781672 265.446952 
L 294.148423 267.254362 
L 294.27298 267.332293 
L 294.30066 267.310451 
L 294.445976 266.999158 
L 295.09644 265.108347 
L 295.144879 265.142611 
L 295.297116 265.481021 
L 295.566989 266.760962 
L 296.162095 269.554472 
L 296.36277 269.705978 
L 296.528846 269.5309 
L 297.241589 268.566742 
L 297.822855 268.521653 
L 298.078889 267.999494 
L 298.618636 266.89145 
L 298.763952 266.975559 
L 298.957707 267.443433 
L 299.303699 269.014365 
L 300.002602 272.100851 
L 300.313995 272.593117 
L 300.971379 273.179418 
L 301.227413 274.216382 
L 301.76716 277.700383 
L 302.16851 279.47375 
L 302.438383 279.861274 
L 302.652898 279.838519 
L 302.957371 279.52284 
L 303.39332 279.125757 
L 303.573236 279.246977 
L 303.81543 279.761498 
L 304.500494 281.353229 
L 304.687329 281.334074 
L 304.901844 281.028511 
L 305.379313 279.792887 
L 305.656106 279.423807 
L 305.808342 279.507204 
L 306.036697 279.967865 
L 306.597203 281.116242 
L 306.853237 281.159869 
L 307.870453 280.871902 
L 308.368681 280.046449 
L 309.316698 278.227163 
L 309.925643 277.060444 
L 310.188597 276.935005 
L 310.368512 277.090811 
L 310.596867 277.651331 
L 310.970538 279.3072 
L 311.461846 281.204581 
L 311.669441 281.366573 
L 311.828597 281.209982 
L 312.11923 280.517018 
L 312.679737 279.254467 
L 312.935771 279.143682 
L 313.157205 279.301753 
L 313.440918 279.821625 
L 314.22286 281.433935 
L 314.382016 281.267059 
L 314.672649 280.53215 
L 315.281594 279.072779 
L 315.994337 277.98426 
L 316.146573 278.082946 
L 316.347248 278.554879 
L 316.69324 280.076693 
L 317.322945 282.723899 
L 317.551299 282.955703 
L 317.710456 282.817828 
L 318.014928 282.135474 
L 318.333241 281.64653 
L 318.478557 281.72781 
L 318.693072 282.196454 
L 319.1913 283.298749 
L 319.329697 283.221079 
L 319.537292 282.763309 
L 319.987081 281.803314 
L 320.104718 281.915407 
L 320.277714 282.487856 
L 320.575267 284.426484 
L 321.571723 291.437646 
L 321.855436 292.085382 
L 322.021512 292.075034 
L 322.229107 291.759835 
L 322.838052 290.758022 
L 323.038727 290.824043 
L 323.76531 291.309333 
L 323.986744 290.895912 
L 324.907082 288.846237 
L 325.702863 288.246433 
L 325.882779 288.421598 
L 326.111133 289.031891 
L 326.484804 290.818462 
L 327.017631 293.122869 
L 327.239066 293.339048 
L 327.398222 293.199026 
L 327.702695 292.530922 
L 328.117885 291.793422 
L 328.290881 291.820691 
L 328.484636 292.144589 
L 328.823708 293.257047 
L 329.308096 294.654948 
L 329.522611 294.759075 
L 329.716366 294.571375 
L 330.055438 293.846965 
L 330.82354 292.172343 
L 330.982696 292.219313 
L 331.162612 292.581442 
L 331.460164 293.802958 
L 332.186747 296.867753 
L 332.719574 297.890498 
L 333.217802 298.564075 
L 333.411557 298.517016 
L 333.646832 298.165067 
L 334.269617 297.161633 
L 334.53257 297.187255 
L 334.878562 297.189849 
L 335.155355 296.898433 
L 335.660503 296.384299 
L 335.958056 296.42447 
L 336.912993 296.914863 
L 337.708774 297.698212 
L 338.636032 298.675507 
L 338.878226 298.630898 
L 339.09966 298.323421 
L 339.411053 297.429392 
L 340.068437 295.512249 
L 340.255273 295.488349 
L 340.449028 295.751638 
L 341.147931 296.876474 
L 341.341686 296.75251 
L 341.694598 296.179333 
L 342.137467 295.608203 
L 342.351982 295.631605 
L 342.587256 295.92379 
L 343.590632 297.468822 
L 344.012742 297.754472 
L 344.365654 298.389725 
L 344.753164 298.943897 
L 344.91924 298.877273 
L 345.126835 298.474074 
L 345.562785 296.968214 
L 346.095612 295.453907 
L 346.413924 295.082069 
L 346.60768 295.136343 
L 346.822194 295.490458 
L 347.168186 296.589956 
L 348.012406 299.320685 
L 348.462195 300.048644 
L 348.745908 300.163673 
L 348.974263 300.007496 
L 349.292575 299.453765 
L 349.90152 298.408397 
L 350.157554 298.378069 
L 350.510466 298.612116 
L 350.925656 299.130194 
L 351.278567 299.997776 
L 352.012069 301.884037 
L 352.254264 301.97102 
L 352.524137 301.789112 
L 353.2438 301.239727 
L 353.963462 300.857704 
L 354.49629 300.580545 
L 354.786923 300.693243 
L 355.395868 300.997768 
L 355.610383 300.776227 
L 355.942535 300.034145 
L 356.440763 299.036265 
L 356.682957 298.96748 
L 356.97359 299.163841 
L 357.582535 299.575736 
L 358.433675 299.906874 
L 358.793506 300.49905 
L 359.547768 301.775631 
L 359.935279 301.972145 
L 360.364308 301.933927 
L 360.959414 301.875282 
L 361.602958 302.181236 
L 362.011229 302.529187 
L 362.419499 303.234715 
L 363.533592 305.292302 
L 363.727347 305.226436 
L 363.969541 304.84726 
L 365.049035 302.830229 
L 366.156209 301.752102 
L 366.737475 300.925253 
L 366.95199 300.950093 
L 367.187264 301.237598 
L 367.540175 302.078384 
L 368.481273 304.492471 
L 368.792665 304.638902 
L 369.879079 304.682026 
L 370.280429 304.080755 
L 370.626421 303.747302 
L 370.854776 303.810912 
L 371.173088 304.191396 
L 372.121105 305.429826 
L 372.384059 305.383123 
L 373.006844 305.163923 
L 373.262878 305.437355 
L 374.273173 306.769497 
L 374.854439 306.913844 
L 376.432161 307.057506 
L 376.432161 307.057506 
" style="fill:none;stroke:#ff7f0e;stroke-linecap:square;stroke-width:1.5;"/>
   </g>
   <g id="patch_103">
    <path d="M 57.6 307.584 
L 57.6 41.472 
" style="fill:none;stroke:#000000;stroke-linecap:square;stroke-linejoin:miter;stroke-width:0.8;"/>
   </g>
   <g id="patch_104">
    <path d="M 414.72 307.584 
L 414.72 41.472 
" style="fill:none;stroke:#000000;stroke-linecap:square;stroke-linejoin:miter;stroke-width:0.8;"/>
   </g>
   <g id="patch_105">
    <path d="M 57.6 307.584 
L 414.72 307.584 
" style="fill:none;stroke:#000000;stroke-linecap:square;stroke-linejoin:miter;stroke-width:0.8;"/>
   </g>
   <g id="patch_106">
    <path d="M 57.6 41.472 
L 414.72 41.472 
" style="fill:none;stroke:#000000;stroke-linecap:square;stroke-linejoin:miter;stroke-width:0.8;"/>
   </g>
  </g>
 </g>
 <defs>
  <clipPath id="p03b6d52e14">
   <rect height="266.112" width="357.12" x="57.6" y="41.472"/>
  </clipPath>
 </defs>
</svg>
