<?xml version="1.0" encoding="utf-8" standalone="no"?>
<!DOCTYPE svg PUBLIC "-//W3C//DTD SVG 1.1//EN"
  "http://www.w3.org/Graphics/SVG/1.1/DTD/svg11.dtd">
<!-- Created with matplotlib (https://matplotlib.org/) -->
<svg height="345.6pt" version="1.1" viewBox="0 0 460.8 345.6" width="460.8pt" xmlns="http://www.w3.org/2000/svg" xmlns:xlink="http://www.w3.org/1999/xlink">
 <defs>
  <style type="text/css">
*{stroke-linecap:butt;stroke-linejoin:round;}
  </style>
 </defs>
 <g id="figure_1">
  <g id="patch_1">
   <path d="M 0 345.6 
L 460.8 345.6 
L 460.8 0 
L 0 0 
z
" style="fill:#ffffff;"/>
  </g>
  <g id="axes_1">
   <g id="patch_2">
    <path d="M 57.6 307.584 
L 414.72 307.584 
L 414.72 41.472 
L 57.6 41.472 
z
" style="fill:#ffffff;"/>
   </g>
   <g id="patch_3">
    <path clip-path="url(#p3c77ee6f18)" d="M 120.337131 307.584 
L 122.864673 307.584 
L 122.864673 300.930819 
L 120.337131 300.930819 
z
" style="fill:#1f77b4;"/>
   </g>
   <g id="patch_4">
    <path clip-path="url(#p3c77ee6f18)" d="M 122.864673 307.584 
L 125.392223 307.584 
L 125.392223 305.92071 
L 122.864673 305.92071 
z
" style="fill:#1f77b4;"/>
   </g>
   <g id="patch_5">
    <path clip-path="url(#p3c77ee6f18)" d="M 125.392215 307.584 
L 127.919757 307.584 
L 127.919757 302.594114 
L 125.392215 302.594114 
z
" style="fill:#1f77b4;"/>
   </g>
   <g id="patch_6">
    <path clip-path="url(#p3c77ee6f18)" d="M 127.919765 307.584 
L 130.447315 307.584 
L 130.447315 304.25742 
L 127.919765 304.25742 
z
" style="fill:#1f77b4;"/>
   </g>
   <g id="patch_7">
    <path clip-path="url(#p3c77ee6f18)" d="M 130.447315 307.584 
L 132.974857 307.584 
L 132.974857 307.584 
L 130.447315 307.584 
z
" style="fill:#1f77b4;"/>
   </g>
   <g id="patch_8">
    <path clip-path="url(#p3c77ee6f18)" d="M 132.974849 307.584 
L 135.502391 307.584 
L 135.502391 307.584 
L 132.974849 307.584 
z
" style="fill:#1f77b4;"/>
   </g>
   <g id="patch_9">
    <path clip-path="url(#p3c77ee6f18)" d="M 135.502399 307.584 
L 138.029948 307.584 
L 138.029948 305.92071 
L 135.502399 305.92071 
z
" style="fill:#1f77b4;"/>
   </g>
   <g id="patch_10">
    <path clip-path="url(#p3c77ee6f18)" d="M 138.029948 307.584 
L 140.55749 307.584 
L 140.55749 299.267523 
L 138.029948 299.267523 
z
" style="fill:#1f77b4;"/>
   </g>
   <g id="patch_11">
    <path clip-path="url(#p3c77ee6f18)" d="M 140.55749 307.584 
L 143.08504 307.584 
L 143.08504 300.930839 
L 140.55749 300.930839 
z
" style="fill:#1f77b4;"/>
   </g>
   <g id="patch_12">
    <path clip-path="url(#p3c77ee6f18)" d="M 143.085032 307.584 
L 145.612574 307.584 
L 145.612574 299.267523 
L 143.085032 299.267523 
z
" style="fill:#1f77b4;"/>
   </g>
   <g id="patch_13">
    <path clip-path="url(#p3c77ee6f18)" d="M 145.612582 307.584 
L 148.140124 307.584 
L 148.140124 302.594114 
L 145.612582 302.594114 
z
" style="fill:#1f77b4;"/>
   </g>
   <g id="patch_14">
    <path clip-path="url(#p3c77ee6f18)" d="M 148.140124 307.584 
L 150.667674 307.584 
L 150.667674 305.92071 
L 148.140124 305.92071 
z
" style="fill:#1f77b4;"/>
   </g>
   <g id="patch_15">
    <path clip-path="url(#p3c77ee6f18)" d="M 150.667666 307.584 
L 153.195208 307.584 
L 153.195208 307.584 
L 150.667666 307.584 
z
" style="fill:#1f77b4;"/>
   </g>
   <g id="patch_16">
    <path clip-path="url(#p3c77ee6f18)" d="M 153.195216 307.584 
L 155.722766 307.584 
L 155.722766 302.594129 
L 153.195216 302.594129 
z
" style="fill:#1f77b4;"/>
   </g>
   <g id="patch_17">
    <path clip-path="url(#p3c77ee6f18)" d="M 155.722766 307.584 
L 158.250308 307.584 
L 158.250308 295.940933 
L 155.722766 295.940933 
z
" style="fill:#1f77b4;"/>
   </g>
   <g id="patch_18">
    <path clip-path="url(#p3c77ee6f18)" d="M 158.2503 307.584 
L 160.777842 307.584 
L 160.777842 292.614342 
L 158.2503 292.614342 
z
" style="fill:#1f77b4;"/>
   </g>
   <g id="patch_19">
    <path clip-path="url(#p3c77ee6f18)" d="M 160.77785 307.584 
L 163.305399 307.584 
L 163.305399 295.940968 
L 160.77785 295.940968 
z
" style="fill:#1f77b4;"/>
   </g>
   <g id="patch_20">
    <path clip-path="url(#p3c77ee6f18)" d="M 163.305399 307.584 
L 165.832941 307.584 
L 165.832941 297.604228 
L 163.305399 297.604228 
z
" style="fill:#1f77b4;"/>
   </g>
   <g id="patch_21">
    <path clip-path="url(#p3c77ee6f18)" d="M 165.832941 307.584 
L 168.360491 307.584 
L 168.360491 295.940968 
L 165.832941 295.940968 
z
" style="fill:#1f77b4;"/>
   </g>
   <g id="patch_22">
    <path clip-path="url(#p3c77ee6f18)" d="M 168.360483 307.584 
L 170.888025 307.584 
L 170.888025 289.287751 
L 168.360483 289.287751 
z
" style="fill:#1f77b4;"/>
   </g>
   <g id="patch_23">
    <path clip-path="url(#p3c77ee6f18)" d="M 170.888033 307.584 
L 173.415579 307.584 
L 173.415579 289.287779 
L 170.888033 289.287779 
z
" style="fill:#1f77b4;"/>
   </g>
   <g id="patch_24">
    <path clip-path="url(#p3c77ee6f18)" d="M 173.415575 307.584 
L 175.943121 307.584 
L 175.943121 292.614365 
L 173.415575 292.614365 
z
" style="fill:#1f77b4;"/>
   </g>
   <g id="patch_25">
    <path clip-path="url(#p3c77ee6f18)" d="M 175.943125 307.584 
L 178.470667 307.584 
L 178.470667 279.307979 
L 175.943125 279.307979 
z
" style="fill:#1f77b4;"/>
   </g>
   <g id="patch_26">
    <path clip-path="url(#p3c77ee6f18)" d="M 178.470667 307.584 
L 180.998213 307.584 
L 180.998213 287.624487 
L 178.470667 287.624487 
z
" style="fill:#1f77b4;"/>
   </g>
   <g id="patch_27">
    <path clip-path="url(#p3c77ee6f18)" d="M 180.998209 307.584 
L 183.525755 307.584 
L 183.525755 289.287779 
L 180.998209 289.287779 
z
" style="fill:#1f77b4;"/>
   </g>
   <g id="patch_28">
    <path clip-path="url(#p3c77ee6f18)" d="M 183.525759 307.584 
L 186.053304 307.584 
L 186.053304 287.624487 
L 183.525759 287.624487 
z
" style="fill:#1f77b4;"/>
   </g>
   <g id="patch_29">
    <path clip-path="url(#p3c77ee6f18)" d="M 186.053301 307.584 
L 188.580846 307.584 
L 188.580846 289.287779 
L 186.053301 289.287779 
z
" style="fill:#1f77b4;"/>
   </g>
   <g id="patch_30">
    <path clip-path="url(#p3c77ee6f18)" d="M 188.58085 307.584 
L 191.108392 307.584 
L 191.108392 285.961161 
L 188.58085 285.961161 
z
" style="fill:#1f77b4;"/>
   </g>
   <g id="patch_31">
    <path clip-path="url(#p3c77ee6f18)" d="M 191.108392 307.584 
L 193.635938 307.584 
L 193.635938 279.308023 
L 191.108392 279.308023 
z
" style="fill:#1f77b4;"/>
   </g>
   <g id="patch_32">
    <path clip-path="url(#p3c77ee6f18)" d="M 193.635934 307.584 
L 196.16348 307.584 
L 196.16348 285.961194 
L 193.635934 285.961194 
z
" style="fill:#1f77b4;"/>
   </g>
   <g id="patch_33">
    <path clip-path="url(#p3c77ee6f18)" d="M 196.163484 307.584 
L 198.69103 307.584 
L 198.69103 267.664973 
L 196.163484 267.664973 
z
" style="fill:#1f77b4;"/>
   </g>
   <g id="patch_34">
    <path clip-path="url(#p3c77ee6f18)" d="M 198.691026 307.584 
L 201.218572 307.584 
L 201.218572 266.001681 
L 198.691026 266.001681 
z
" style="fill:#1f77b4;"/>
   </g>
   <g id="patch_35">
    <path clip-path="url(#p3c77ee6f18)" d="M 201.218576 307.584 
L 203.74612 307.584 
L 203.74612 257.685178 
L 201.218576 257.685178 
z
" style="fill:#1f77b4;"/>
   </g>
   <g id="patch_36">
    <path clip-path="url(#p3c77ee6f18)" d="M 203.746122 307.584 
L 206.273666 307.584 
L 206.273666 266.001649 
L 203.746122 266.001649 
z
" style="fill:#1f77b4;"/>
   </g>
   <g id="patch_37">
    <path clip-path="url(#p3c77ee6f18)" d="M 206.273664 307.584 
L 208.80121 307.584 
L 208.80121 246.042167 
L 206.273664 246.042167 
z
" style="fill:#1f77b4;"/>
   </g>
   <g id="patch_38">
    <path clip-path="url(#p3c77ee6f18)" d="M 208.80121 307.584 
L 211.328755 307.584 
L 211.328755 266.001681 
L 208.80121 266.001681 
z
" style="fill:#1f77b4;"/>
   </g>
   <g id="patch_39">
    <path clip-path="url(#p3c77ee6f18)" d="M 211.328755 307.584 
L 213.856299 307.584 
L 213.856299 251.032002 
L 211.328755 251.032002 
z
" style="fill:#1f77b4;"/>
   </g>
   <g id="patch_40">
    <path clip-path="url(#p3c77ee6f18)" d="M 213.856299 307.584 
L 216.383845 307.584 
L 216.383845 222.756068 
L 213.856299 222.756068 
z
" style="fill:#1f77b4;"/>
   </g>
   <g id="patch_41">
    <path clip-path="url(#p3c77ee6f18)" d="M 216.383847 307.584 
L 218.911391 307.584 
L 218.911391 244.378826 
L 216.383847 244.378826 
z
" style="fill:#1f77b4;"/>
   </g>
   <g id="patch_42">
    <path clip-path="url(#p3c77ee6f18)" d="M 218.911389 307.584 
L 221.438935 307.584 
L 221.438935 241.052289 
L 218.911389 241.052289 
z
" style="fill:#1f77b4;"/>
   </g>
   <g id="patch_43">
    <path clip-path="url(#p3c77ee6f18)" d="M 221.438935 307.584 
L 223.96648 307.584 
L 223.96648 231.072503 
L 221.438935 231.072503 
z
" style="fill:#1f77b4;"/>
   </g>
   <g id="patch_44">
    <path clip-path="url(#p3c77ee6f18)" d="M 223.966479 307.584 
L 226.494024 307.584 
L 226.494024 224.419329 
L 223.966479 224.419329 
z
" style="fill:#1f77b4;"/>
   </g>
   <g id="patch_45">
    <path clip-path="url(#p3c77ee6f18)" d="M 226.494025 307.584 
L 229.02157 307.584 
L 229.02157 231.072518 
L 226.494025 231.072518 
z
" style="fill:#1f77b4;"/>
   </g>
   <g id="patch_46">
    <path clip-path="url(#p3c77ee6f18)" d="M 229.02157 307.584 
L 231.549115 307.584 
L 231.549115 186.163604 
L 229.02157 186.163604 
z
" style="fill:#1f77b4;"/>
   </g>
   <g id="patch_47">
    <path clip-path="url(#p3c77ee6f18)" d="M 231.549116 307.584 
L 234.076661 307.584 
L 234.076661 192.816754 
L 231.549116 192.816754 
z
" style="fill:#1f77b4;"/>
   </g>
   <g id="patch_48">
    <path clip-path="url(#p3c77ee6f18)" d="M 234.076661 307.584 
L 236.604206 307.584 
L 236.604206 116.305275 
L 234.076661 116.305275 
z
" style="fill:#1f77b4;"/>
   </g>
   <g id="patch_49">
    <path clip-path="url(#p3c77ee6f18)" d="M 236.604206 307.584 
L 239.131751 307.584 
L 239.131751 162.877487 
L 236.604206 162.877487 
z
" style="fill:#1f77b4;"/>
   </g>
   <g id="patch_50">
    <path clip-path="url(#p3c77ee6f18)" d="M 239.131751 307.584 
L 241.659296 307.584 
L 241.659296 192.816754 
L 239.131751 192.816754 
z
" style="fill:#1f77b4;"/>
   </g>
   <g id="patch_51">
    <path clip-path="url(#p3c77ee6f18)" d="M 241.659295 307.584 
L 244.186841 307.584 
L 244.186841 192.816776 
L 241.659295 192.816776 
z
" style="fill:#1f77b4;"/>
   </g>
   <g id="patch_52">
    <path clip-path="url(#p3c77ee6f18)" d="M 244.186841 307.584 
L 246.714386 307.584 
L 246.714386 201.133221 
L 244.186841 201.133221 
z
" style="fill:#1f77b4;"/>
   </g>
   <g id="patch_53">
    <path clip-path="url(#p3c77ee6f18)" d="M 246.714386 307.584 
L 249.241931 307.584 
L 249.241931 196.143341 
L 246.714386 196.143341 
z
" style="fill:#1f77b4;"/>
   </g>
   <g id="patch_54">
    <path clip-path="url(#p3c77ee6f18)" d="M 249.24193 307.584 
L 251.769475 307.584 
L 251.769475 217.766156 
L 249.24193 217.766156 
z
" style="fill:#1f77b4;"/>
   </g>
   <g id="patch_55">
    <path clip-path="url(#p3c77ee6f18)" d="M 251.769476 307.584 
L 254.297022 307.584 
L 254.297022 186.163627 
L 251.769476 186.163627 
z
" style="fill:#1f77b4;"/>
   </g>
   <g id="patch_56">
    <path clip-path="url(#p3c77ee6f18)" d="M 254.297024 307.584 
L 256.824568 307.584 
L 256.824568 206.123063 
L 254.297024 206.123063 
z
" style="fill:#1f77b4;"/>
   </g>
   <g id="patch_57">
    <path clip-path="url(#p3c77ee6f18)" d="M 256.824566 307.584 
L 259.352112 307.584 
L 259.352112 221.092775 
L 256.824566 221.092775 
z
" style="fill:#1f77b4;"/>
   </g>
   <g id="patch_58">
    <path clip-path="url(#p3c77ee6f18)" d="M 259.352112 307.584 
L 261.879657 307.584 
L 261.879657 219.429483 
L 259.352112 219.429483 
z
" style="fill:#1f77b4;"/>
   </g>
   <g id="patch_59">
    <path clip-path="url(#p3c77ee6f18)" d="M 261.879657 307.584 
L 264.407201 307.584 
L 264.407201 224.419297 
L 261.879657 224.419297 
z
" style="fill:#1f77b4;"/>
   </g>
   <g id="patch_60">
    <path clip-path="url(#p3c77ee6f18)" d="M 264.407201 307.584 
L 266.934747 307.584 
L 266.934747 237.725703 
L 264.407201 237.725703 
z
" style="fill:#1f77b4;"/>
   </g>
   <g id="patch_61">
    <path clip-path="url(#p3c77ee6f18)" d="M 266.934749 307.584 
L 269.462295 307.584 
L 269.462295 249.368708 
L 266.934749 249.368708 
z
" style="fill:#1f77b4;"/>
   </g>
   <g id="patch_62">
    <path clip-path="url(#p3c77ee6f18)" d="M 269.462287 307.584 
L 271.989833 307.584 
L 271.989833 247.70546 
L 269.462287 247.70546 
z
" style="fill:#1f77b4;"/>
   </g>
   <g id="patch_63">
    <path clip-path="url(#p3c77ee6f18)" d="M 271.989837 307.584 
L 274.517383 307.584 
L 274.517383 214.439604 
L 271.989837 214.439604 
z
" style="fill:#1f77b4;"/>
   </g>
   <g id="patch_64">
    <path clip-path="url(#p3c77ee6f18)" d="M 274.517379 307.584 
L 277.044925 307.584 
L 277.044925 237.725703 
L 274.517379 237.725703 
z
" style="fill:#1f77b4;"/>
   </g>
   <g id="patch_65">
    <path clip-path="url(#p3c77ee6f18)" d="M 277.044929 307.584 
L 279.572471 307.584 
L 279.572471 241.052187 
L 277.044929 241.052187 
z
" style="fill:#1f77b4;"/>
   </g>
   <g id="patch_66">
    <path clip-path="url(#p3c77ee6f18)" d="M 279.572471 307.584 
L 282.100017 307.584 
L 282.100017 244.378874 
L 279.572471 244.378874 
z
" style="fill:#1f77b4;"/>
   </g>
   <g id="patch_67">
    <path clip-path="url(#p3c77ee6f18)" d="M 282.100013 307.584 
L 284.627559 307.584 
L 284.627559 257.685217 
L 282.100013 257.685217 
z
" style="fill:#1f77b4;"/>
   </g>
   <g id="patch_68">
    <path clip-path="url(#p3c77ee6f18)" d="M 284.627562 307.584 
L 287.155108 307.584 
L 287.155108 264.338388 
L 284.627562 264.338388 
z
" style="fill:#1f77b4;"/>
   </g>
   <g id="patch_69">
    <path clip-path="url(#p3c77ee6f18)" d="M 287.155104 307.584 
L 289.68265 307.584 
L 289.68265 252.695338 
L 287.155104 252.695338 
z
" style="fill:#1f77b4;"/>
   </g>
   <g id="patch_70">
    <path clip-path="url(#p3c77ee6f18)" d="M 289.682654 307.584 
L 292.210196 307.584 
L 292.210196 269.328207 
L 289.682654 269.328207 
z
" style="fill:#1f77b4;"/>
   </g>
   <g id="patch_71">
    <path clip-path="url(#p3c77ee6f18)" d="M 292.210196 307.584 
L 294.737742 307.584 
L 294.737742 244.378874 
L 292.210196 244.378874 
z
" style="fill:#1f77b4;"/>
   </g>
   <g id="patch_72">
    <path clip-path="url(#p3c77ee6f18)" d="M 294.737738 307.584 
L 297.265284 307.584 
L 297.265284 257.685217 
L 294.737738 257.685217 
z
" style="fill:#1f77b4;"/>
   </g>
   <g id="patch_73">
    <path clip-path="url(#p3c77ee6f18)" d="M 297.265288 307.584 
L 299.792834 307.584 
L 299.792834 257.685217 
L 297.265288 257.685217 
z
" style="fill:#1f77b4;"/>
   </g>
   <g id="patch_74">
    <path clip-path="url(#p3c77ee6f18)" d="M 299.79283 307.584 
L 302.320372 307.584 
L 302.320372 274.318144 
L 299.79283 274.318144 
z
" style="fill:#1f77b4;"/>
   </g>
   <g id="patch_75">
    <path clip-path="url(#p3c77ee6f18)" d="M 302.320372 307.584 
L 304.847914 307.584 
L 304.847914 266.001617 
L 302.320372 266.001617 
z
" style="fill:#1f77b4;"/>
   </g>
   <g id="patch_76">
    <path clip-path="url(#p3c77ee6f18)" d="M 304.847922 307.584 
L 307.375471 307.584 
L 307.375471 252.695422 
L 304.847922 252.695422 
z
" style="fill:#1f77b4;"/>
   </g>
   <g id="patch_77">
    <path clip-path="url(#p3c77ee6f18)" d="M 307.375471 307.584 
L 309.903013 307.584 
L 309.903013 266.001617 
L 307.375471 266.001617 
z
" style="fill:#1f77b4;"/>
   </g>
   <g id="patch_78">
    <path clip-path="url(#p3c77ee6f18)" d="M 309.903006 307.584 
L 312.430548 307.584 
L 312.430548 256.021845 
L 309.903006 256.021845 
z
" style="fill:#1f77b4;"/>
   </g>
   <g id="patch_79">
    <path clip-path="url(#p3c77ee6f18)" d="M 312.430555 307.584 
L 314.958105 307.584 
L 314.958105 280.971356 
L 312.430555 280.971356 
z
" style="fill:#1f77b4;"/>
   </g>
   <g id="patch_80">
    <path clip-path="url(#p3c77ee6f18)" d="M 314.958105 307.584 
L 317.485647 307.584 
L 317.485647 287.624456 
L 314.958105 287.624456 
z
" style="fill:#1f77b4;"/>
   </g>
   <g id="patch_81">
    <path clip-path="url(#p3c77ee6f18)" d="M 317.485647 307.584 
L 320.013197 307.584 
L 320.013197 274.318195 
L 317.485647 274.318195 
z
" style="fill:#1f77b4;"/>
   </g>
   <g id="patch_82">
    <path clip-path="url(#p3c77ee6f18)" d="M 320.013189 307.584 
L 322.540731 307.584 
L 322.540731 290.951047 
L 320.013189 290.951047 
z
" style="fill:#1f77b4;"/>
   </g>
   <g id="patch_83">
    <path clip-path="url(#p3c77ee6f18)" d="M 322.540739 307.584 
L 325.068281 307.584 
L 325.068281 275.981389 
L 322.540739 275.981389 
z
" style="fill:#1f77b4;"/>
   </g>
   <g id="patch_84">
    <path clip-path="url(#p3c77ee6f18)" d="M 325.068281 307.584 
L 327.595831 307.584 
L 327.595831 279.308066 
L 325.068281 279.308066 
z
" style="fill:#1f77b4;"/>
   </g>
   <g id="patch_85">
    <path clip-path="url(#p3c77ee6f18)" d="M 327.595823 307.584 
L 330.123365 307.584 
L 330.123365 287.624456 
L 327.595823 287.624456 
z
" style="fill:#1f77b4;"/>
   </g>
   <g id="patch_86">
    <path clip-path="url(#p3c77ee6f18)" d="M 330.123373 307.584 
L 332.650922 307.584 
L 332.650922 294.277678 
L 330.123373 294.277678 
z
" style="fill:#1f77b4;"/>
   </g>
   <g id="patch_87">
    <path clip-path="url(#p3c77ee6f18)" d="M 332.650922 307.584 
L 335.178464 307.584 
L 335.178464 285.961161 
L 332.650922 285.961161 
z
" style="fill:#1f77b4;"/>
   </g>
   <g id="patch_88">
    <path clip-path="url(#p3c77ee6f18)" d="M 335.178457 307.584 
L 337.705999 307.584 
L 337.705999 290.951047 
L 335.178457 290.951047 
z
" style="fill:#1f77b4;"/>
   </g>
   <g id="patch_89">
    <path clip-path="url(#p3c77ee6f18)" d="M 337.706006 307.584 
L 340.233556 307.584 
L 340.233556 280.971356 
L 337.706006 280.971356 
z
" style="fill:#1f77b4;"/>
   </g>
   <g id="patch_90">
    <path clip-path="url(#p3c77ee6f18)" d="M 340.233556 307.584 
L 342.761098 307.584 
L 342.761098 284.297865 
L 340.233556 284.297865 
z
" style="fill:#1f77b4;"/>
   </g>
   <g id="patch_91">
    <path clip-path="url(#p3c77ee6f18)" d="M 342.761098 307.584 
L 345.288648 307.584 
L 345.288648 294.277678 
L 342.761098 294.277678 
z
" style="fill:#1f77b4;"/>
   </g>
   <g id="patch_92">
    <path clip-path="url(#p3c77ee6f18)" d="M 345.28864 307.584 
L 347.816182 307.584 
L 347.816182 297.604228 
L 345.28864 297.604228 
z
" style="fill:#1f77b4;"/>
   </g>
   <g id="patch_93">
    <path clip-path="url(#p3c77ee6f18)" d="M 347.81619 307.584 
L 350.343732 307.584 
L 350.343732 305.920705 
L 347.81619 305.920705 
z
" style="fill:#1f77b4;"/>
   </g>
   <g id="patch_94">
    <path clip-path="url(#p3c77ee6f18)" d="M 350.343732 307.584 
L 352.871282 307.584 
L 352.871282 297.604259 
L 350.343732 297.604259 
z
" style="fill:#1f77b4;"/>
   </g>
   <g id="patch_95">
    <path clip-path="url(#p3c77ee6f18)" d="M 352.871274 307.584 
L 355.398816 307.584 
L 355.398816 302.594114 
L 352.871274 302.594114 
z
" style="fill:#1f77b4;"/>
   </g>
   <g id="patch_96">
    <path clip-path="url(#p3c77ee6f18)" d="M 355.398824 307.584 
L 357.926373 307.584 
L 357.926373 292.614388 
L 355.398824 292.614388 
z
" style="fill:#1f77b4;"/>
   </g>
   <g id="patch_97">
    <path clip-path="url(#p3c77ee6f18)" d="M 357.926373 307.584 
L 360.453915 307.584 
L 360.453915 290.951047 
L 357.926373 290.951047 
z
" style="fill:#1f77b4;"/>
   </g>
   <g id="patch_98">
    <path clip-path="url(#p3c77ee6f18)" d="M 360.453908 307.584 
L 362.98145 307.584 
L 362.98145 297.604228 
L 360.453908 297.604228 
z
" style="fill:#1f77b4;"/>
   </g>
   <g id="patch_99">
    <path clip-path="url(#p3c77ee6f18)" d="M 362.981457 307.584 
L 365.509007 307.584 
L 365.509007 294.277678 
L 362.981457 294.277678 
z
" style="fill:#1f77b4;"/>
   </g>
   <g id="patch_100">
    <path clip-path="url(#p3c77ee6f18)" d="M 365.509007 307.584 
L 368.036557 307.584 
L 368.036557 295.940968 
L 365.509007 295.940968 
z
" style="fill:#1f77b4;"/>
   </g>
   <g id="patch_101">
    <path clip-path="url(#p3c77ee6f18)" d="M 368.036557 307.584 
L 370.564091 307.584 
L 370.564091 304.257399 
L 368.036557 304.257399 
z
" style="fill:#1f77b4;"/>
   </g>
   <g id="patch_102">
    <path clip-path="url(#p3c77ee6f18)" d="M 370.564091 307.584 
L 373.091641 307.584 
L 373.091641 304.25742 
L 370.564091 304.25742 
z
" style="fill:#1f77b4;"/>
   </g>
   <g id="matplotlib.axis_1">
    <g id="xtick_1">
     <g id="line2d_1">
      <defs>
       <path d="M 0 0 
L 0 3.5 
" id="m496b2d52f0" style="stroke:#000000;stroke-width:0.8;"/>
      </defs>
      <g>
       <use style="stroke:#000000;stroke-width:0.8;" x="106.304676" xlink:href="#m496b2d52f0" y="307.584"/>
      </g>
     </g>
     <g id="text_1">
      <!-- −2 -->
      <defs>
       <path d="M 10.59375 35.5 
L 73.1875 35.5 
L 73.1875 27.203125 
L 10.59375 27.203125 
z
" id="DejaVuSans-8722"/>
       <path d="M 19.1875 8.296875 
L 53.609375 8.296875 
L 53.609375 0 
L 7.328125 0 
L 7.328125 8.296875 
Q 12.9375 14.109375 22.625 23.890625 
Q 32.328125 33.6875 34.8125 36.53125 
Q 39.546875 41.84375 41.421875 45.53125 
Q 43.3125 49.21875 43.3125 52.78125 
Q 43.3125 58.59375 39.234375 62.25 
Q 35.15625 65.921875 28.609375 65.921875 
Q 23.96875 65.921875 18.8125 64.3125 
Q 13.671875 62.703125 7.8125 59.421875 
L 7.8125 69.390625 
Q 13.765625 71.78125 18.9375 73 
Q 24.125 74.21875 28.421875 74.21875 
Q 39.75 74.21875 46.484375 68.546875 
Q 53.21875 62.890625 53.21875 53.421875 
Q 53.21875 48.921875 51.53125 44.890625 
Q 49.859375 40.875 45.40625 35.40625 
Q 44.1875 33.984375 37.640625 27.21875 
Q 31.109375 20.453125 19.1875 8.296875 
z
" id="DejaVuSans-50"/>
      </defs>
      <g transform="translate(93.773817 327.501344)scale(0.17 -0.17)">
       <use xlink:href="#DejaVuSans-8722"/>
       <use x="83.789062" xlink:href="#DejaVuSans-50"/>
      </g>
     </g>
    </g>
    <g id="xtick_2">
     <g id="line2d_2">
      <g>
       <use style="stroke:#000000;stroke-width:0.8;" x="171.248574" xlink:href="#m496b2d52f0" y="307.584"/>
      </g>
     </g>
     <g id="text_2">
      <!-- −1 -->
      <defs>
       <path d="M 12.40625 8.296875 
L 28.515625 8.296875 
L 28.515625 63.921875 
L 10.984375 60.40625 
L 10.984375 69.390625 
L 28.421875 72.90625 
L 38.28125 72.90625 
L 38.28125 8.296875 
L 54.390625 8.296875 
L 54.390625 0 
L 12.40625 0 
z
" id="DejaVuSans-49"/>
      </defs>
      <g transform="translate(158.717715 327.501344)scale(0.17 -0.17)">
       <use xlink:href="#DejaVuSans-8722"/>
       <use x="83.789062" xlink:href="#DejaVuSans-49"/>
      </g>
     </g>
    </g>
    <g id="xtick_3">
     <g id="line2d_3">
      <g>
       <use style="stroke:#000000;stroke-width:0.8;" x="236.192472" xlink:href="#m496b2d52f0" y="307.584"/>
      </g>
     </g>
     <g id="text_3">
      <!-- 0 -->
      <defs>
       <path d="M 31.78125 66.40625 
Q 24.171875 66.40625 20.328125 58.90625 
Q 16.5 51.421875 16.5 36.375 
Q 16.5 21.390625 20.328125 13.890625 
Q 24.171875 6.390625 31.78125 6.390625 
Q 39.453125 6.390625 43.28125 13.890625 
Q 47.125 21.390625 47.125 36.375 
Q 47.125 51.421875 43.28125 58.90625 
Q 39.453125 66.40625 31.78125 66.40625 
z
M 31.78125 74.21875 
Q 44.046875 74.21875 50.515625 64.515625 
Q 56.984375 54.828125 56.984375 36.375 
Q 56.984375 17.96875 50.515625 8.265625 
Q 44.046875 -1.421875 31.78125 -1.421875 
Q 19.53125 -1.421875 13.0625 8.265625 
Q 6.59375 17.96875 6.59375 36.375 
Q 6.59375 54.828125 13.0625 64.515625 
Q 19.53125 74.21875 31.78125 74.21875 
z
" id="DejaVuSans-48"/>
      </defs>
      <g transform="translate(230.784347 327.501344)scale(0.17 -0.17)">
       <use xlink:href="#DejaVuSans-48"/>
      </g>
     </g>
    </g>
    <g id="xtick_4">
     <g id="line2d_4">
      <g>
       <use style="stroke:#000000;stroke-width:0.8;" x="301.13637" xlink:href="#m496b2d52f0" y="307.584"/>
      </g>
     </g>
     <g id="text_4">
      <!-- 1 -->
      <g transform="translate(295.728245 327.501344)scale(0.17 -0.17)">
       <use xlink:href="#DejaVuSans-49"/>
      </g>
     </g>
    </g>
    <g id="xtick_5">
     <g id="line2d_5">
      <g>
       <use style="stroke:#000000;stroke-width:0.8;" x="366.080268" xlink:href="#m496b2d52f0" y="307.584"/>
      </g>
     </g>
     <g id="text_5">
      <!-- 2 -->
      <g transform="translate(360.672143 327.501344)scale(0.17 -0.17)">
       <use xlink:href="#DejaVuSans-50"/>
      </g>
     </g>
    </g>
    <g id="text_6">
     <!-- Position in Radian -->
     <defs>
      <path d="M 19.671875 64.796875 
L 19.671875 37.40625 
L 32.078125 37.40625 
Q 38.96875 37.40625 42.71875 40.96875 
Q 46.484375 44.53125 46.484375 51.125 
Q 46.484375 57.671875 42.71875 61.234375 
Q 38.96875 64.796875 32.078125 64.796875 
z
M 9.8125 72.90625 
L 32.078125 72.90625 
Q 44.34375 72.90625 50.609375 67.359375 
Q 56.890625 61.8125 56.890625 51.125 
Q 56.890625 40.328125 50.609375 34.8125 
Q 44.34375 29.296875 32.078125 29.296875 
L 19.671875 29.296875 
L 19.671875 0 
L 9.8125 0 
z
" id="DejaVuSans-80"/>
      <path d="M 30.609375 48.390625 
Q 23.390625 48.390625 19.1875 42.75 
Q 14.984375 37.109375 14.984375 27.296875 
Q 14.984375 17.484375 19.15625 11.84375 
Q 23.34375 6.203125 30.609375 6.203125 
Q 37.796875 6.203125 41.984375 11.859375 
Q 46.1875 17.53125 46.1875 27.296875 
Q 46.1875 37.015625 41.984375 42.703125 
Q 37.796875 48.390625 30.609375 48.390625 
z
M 30.609375 56 
Q 42.328125 56 49.015625 48.375 
Q 55.71875 40.765625 55.71875 27.296875 
Q 55.71875 13.875 49.015625 6.21875 
Q 42.328125 -1.421875 30.609375 -1.421875 
Q 18.84375 -1.421875 12.171875 6.21875 
Q 5.515625 13.875 5.515625 27.296875 
Q 5.515625 40.765625 12.171875 48.375 
Q 18.84375 56 30.609375 56 
z
" id="DejaVuSans-111"/>
      <path d="M 44.28125 53.078125 
L 44.28125 44.578125 
Q 40.484375 46.53125 36.375 47.5 
Q 32.28125 48.484375 27.875 48.484375 
Q 21.1875 48.484375 17.84375 46.4375 
Q 14.5 44.390625 14.5 40.28125 
Q 14.5 37.15625 16.890625 35.375 
Q 19.28125 33.59375 26.515625 31.984375 
L 29.59375 31.296875 
Q 39.15625 29.25 43.1875 25.515625 
Q 47.21875 21.78125 47.21875 15.09375 
Q 47.21875 7.46875 41.1875 3.015625 
Q 35.15625 -1.421875 24.609375 -1.421875 
Q 20.21875 -1.421875 15.453125 -0.5625 
Q 10.6875 0.296875 5.421875 2 
L 5.421875 11.28125 
Q 10.40625 8.6875 15.234375 7.390625 
Q 20.0625 6.109375 24.8125 6.109375 
Q 31.15625 6.109375 34.5625 8.28125 
Q 37.984375 10.453125 37.984375 14.40625 
Q 37.984375 18.0625 35.515625 20.015625 
Q 33.0625 21.96875 24.703125 23.78125 
L 21.578125 24.515625 
Q 13.234375 26.265625 9.515625 29.90625 
Q 5.8125 33.546875 5.8125 39.890625 
Q 5.8125 47.609375 11.28125 51.796875 
Q 16.75 56 26.8125 56 
Q 31.78125 56 36.171875 55.265625 
Q 40.578125 54.546875 44.28125 53.078125 
z
" id="DejaVuSans-115"/>
      <path d="M 9.421875 54.6875 
L 18.40625 54.6875 
L 18.40625 0 
L 9.421875 0 
z
M 9.421875 75.984375 
L 18.40625 75.984375 
L 18.40625 64.59375 
L 9.421875 64.59375 
z
" id="DejaVuSans-105"/>
      <path d="M 18.3125 70.21875 
L 18.3125 54.6875 
L 36.8125 54.6875 
L 36.8125 47.703125 
L 18.3125 47.703125 
L 18.3125 18.015625 
Q 18.3125 11.328125 20.140625 9.421875 
Q 21.96875 7.515625 27.59375 7.515625 
L 36.8125 7.515625 
L 36.8125 0 
L 27.59375 0 
Q 17.1875 0 13.234375 3.875 
Q 9.28125 7.765625 9.28125 18.015625 
L 9.28125 47.703125 
L 2.6875 47.703125 
L 2.6875 54.6875 
L 9.28125 54.6875 
L 9.28125 70.21875 
z
" id="DejaVuSans-116"/>
      <path d="M 54.890625 33.015625 
L 54.890625 0 
L 45.90625 0 
L 45.90625 32.71875 
Q 45.90625 40.484375 42.875 44.328125 
Q 39.84375 48.1875 33.796875 48.1875 
Q 26.515625 48.1875 22.3125 43.546875 
Q 18.109375 38.921875 18.109375 30.90625 
L 18.109375 0 
L 9.078125 0 
L 9.078125 54.6875 
L 18.109375 54.6875 
L 18.109375 46.1875 
Q 21.34375 51.125 25.703125 53.5625 
Q 30.078125 56 35.796875 56 
Q 45.21875 56 50.046875 50.171875 
Q 54.890625 44.34375 54.890625 33.015625 
z
" id="DejaVuSans-110"/>
      <path id="DejaVuSans-32"/>
      <path d="M 44.390625 34.1875 
Q 47.5625 33.109375 50.5625 29.59375 
Q 53.5625 26.078125 56.59375 19.921875 
L 66.609375 0 
L 56 0 
L 46.6875 18.703125 
Q 43.0625 26.03125 39.671875 28.421875 
Q 36.28125 30.8125 30.421875 30.8125 
L 19.671875 30.8125 
L 19.671875 0 
L 9.8125 0 
L 9.8125 72.90625 
L 32.078125 72.90625 
Q 44.578125 72.90625 50.734375 67.671875 
Q 56.890625 62.453125 56.890625 51.90625 
Q 56.890625 45.015625 53.6875 40.46875 
Q 50.484375 35.9375 44.390625 34.1875 
z
M 19.671875 64.796875 
L 19.671875 38.921875 
L 32.078125 38.921875 
Q 39.203125 38.921875 42.84375 42.21875 
Q 46.484375 45.515625 46.484375 51.90625 
Q 46.484375 58.296875 42.84375 61.546875 
Q 39.203125 64.796875 32.078125 64.796875 
z
" id="DejaVuSans-82"/>
      <path d="M 34.28125 27.484375 
Q 23.390625 27.484375 19.1875 25 
Q 14.984375 22.515625 14.984375 16.5 
Q 14.984375 11.71875 18.140625 8.90625 
Q 21.296875 6.109375 26.703125 6.109375 
Q 34.1875 6.109375 38.703125 11.40625 
Q 43.21875 16.703125 43.21875 25.484375 
L 43.21875 27.484375 
z
M 52.203125 31.203125 
L 52.203125 0 
L 43.21875 0 
L 43.21875 8.296875 
Q 40.140625 3.328125 35.546875 0.953125 
Q 30.953125 -1.421875 24.3125 -1.421875 
Q 15.921875 -1.421875 10.953125 3.296875 
Q 6 8.015625 6 15.921875 
Q 6 25.140625 12.171875 29.828125 
Q 18.359375 34.515625 30.609375 34.515625 
L 43.21875 34.515625 
L 43.21875 35.40625 
Q 43.21875 41.609375 39.140625 45 
Q 35.0625 48.390625 27.6875 48.390625 
Q 23 48.390625 18.546875 47.265625 
Q 14.109375 46.140625 10.015625 43.890625 
L 10.015625 52.203125 
Q 14.9375 54.109375 19.578125 55.046875 
Q 24.21875 56 28.609375 56 
Q 40.484375 56 46.34375 49.84375 
Q 52.203125 43.703125 52.203125 31.203125 
z
" id="DejaVuSans-97"/>
      <path d="M 45.40625 46.390625 
L 45.40625 75.984375 
L 54.390625 75.984375 
L 54.390625 0 
L 45.40625 0 
L 45.40625 8.203125 
Q 42.578125 3.328125 38.25 0.953125 
Q 33.9375 -1.421875 27.875 -1.421875 
Q 17.96875 -1.421875 11.734375 6.484375 
Q 5.515625 14.40625 5.515625 27.296875 
Q 5.515625 40.1875 11.734375 48.09375 
Q 17.96875 56 27.875 56 
Q 33.9375 56 38.25 53.625 
Q 42.578125 51.265625 45.40625 46.390625 
z
M 14.796875 27.296875 
Q 14.796875 17.390625 18.875 11.75 
Q 22.953125 6.109375 30.078125 6.109375 
Q 37.203125 6.109375 41.296875 11.75 
Q 45.40625 17.390625 45.40625 27.296875 
Q 45.40625 37.203125 41.296875 42.84375 
Q 37.203125 48.484375 30.078125 48.484375 
Q 22.953125 48.484375 18.875 42.84375 
Q 14.796875 37.203125 14.796875 27.296875 
z
" id="DejaVuSans-100"/>
     </defs>
     <g transform="translate(102.024844 357.832125)scale(0.3 -0.3)">
      <use xlink:href="#DejaVuSans-80"/>
      <use x="60.255859" xlink:href="#DejaVuSans-111"/>
      <use x="121.4375" xlink:href="#DejaVuSans-115"/>
      <use x="173.537109" xlink:href="#DejaVuSans-105"/>
      <use x="201.320312" xlink:href="#DejaVuSans-116"/>
      <use x="240.529297" xlink:href="#DejaVuSans-105"/>
      <use x="268.3125" xlink:href="#DejaVuSans-111"/>
      <use x="329.494141" xlink:href="#DejaVuSans-110"/>
      <use x="392.873047" xlink:href="#DejaVuSans-32"/>
      <use x="424.660156" xlink:href="#DejaVuSans-105"/>
      <use x="452.443359" xlink:href="#DejaVuSans-110"/>
      <use x="515.822266" xlink:href="#DejaVuSans-32"/>
      <use x="547.609375" xlink:href="#DejaVuSans-82"/>
      <use x="617.060547" xlink:href="#DejaVuSans-97"/>
      <use x="678.339844" xlink:href="#DejaVuSans-100"/>
      <use x="741.816406" xlink:href="#DejaVuSans-105"/>
      <use x="769.599609" xlink:href="#DejaVuSans-97"/>
      <use x="830.878906" xlink:href="#DejaVuSans-110"/>
     </g>
    </g>
   </g>
   <g id="matplotlib.axis_2">
    <g id="ytick_1">
     <g id="line2d_6">
      <defs>
       <path d="M 0 0 
L -3.5 0 
" id="mbec2fd9e3a" style="stroke:#000000;stroke-width:0.8;"/>
      </defs>
      <g>
       <use style="stroke:#000000;stroke-width:0.8;" x="57.6" xlink:href="#mbec2fd9e3a" y="307.584"/>
      </g>
     </g>
     <g id="text_7">
      <!-- 0.00 -->
      <defs>
       <path d="M 10.6875 12.40625 
L 21 12.40625 
L 21 0 
L 10.6875 0 
z
" id="DejaVuSans-46"/>
      </defs>
      <g transform="translate(12.748438 314.042672)scale(0.17 -0.17)">
       <use xlink:href="#DejaVuSans-48"/>
       <use x="63.623047" xlink:href="#DejaVuSans-46"/>
       <use x="95.410156" xlink:href="#DejaVuSans-48"/>
       <use x="159.033203" xlink:href="#DejaVuSans-48"/>
      </g>
     </g>
    </g>
    <g id="ytick_2">
     <g id="line2d_7">
      <g>
       <use style="stroke:#000000;stroke-width:0.8;" x="57.6" xlink:href="#mbec2fd9e3a" y="267.125534"/>
      </g>
     </g>
     <g id="text_8">
      <!-- 0.25 -->
      <defs>
       <path d="M 10.796875 72.90625 
L 49.515625 72.90625 
L 49.515625 64.59375 
L 19.828125 64.59375 
L 19.828125 46.734375 
Q 21.96875 47.46875 24.109375 47.828125 
Q 26.265625 48.1875 28.421875 48.1875 
Q 40.625 48.1875 47.75 41.5 
Q 54.890625 34.8125 54.890625 23.390625 
Q 54.890625 11.625 47.5625 5.09375 
Q 40.234375 -1.421875 26.90625 -1.421875 
Q 22.3125 -1.421875 17.546875 -0.640625 
Q 12.796875 0.140625 7.71875 1.703125 
L 7.71875 11.625 
Q 12.109375 9.234375 16.796875 8.0625 
Q 21.484375 6.890625 26.703125 6.890625 
Q 35.15625 6.890625 40.078125 11.328125 
Q 45.015625 15.765625 45.015625 23.390625 
Q 45.015625 31 40.078125 35.4375 
Q 35.15625 39.890625 26.703125 39.890625 
Q 22.75 39.890625 18.8125 39.015625 
Q 14.890625 38.140625 10.796875 36.28125 
z
" id="DejaVuSans-53"/>
      </defs>
      <g transform="translate(12.748438 273.584206)scale(0.17 -0.17)">
       <use xlink:href="#DejaVuSans-48"/>
       <use x="63.623047" xlink:href="#DejaVuSans-46"/>
       <use x="95.410156" xlink:href="#DejaVuSans-50"/>
       <use x="159.033203" xlink:href="#DejaVuSans-53"/>
      </g>
     </g>
    </g>
    <g id="ytick_3">
     <g id="line2d_8">
      <g>
       <use style="stroke:#000000;stroke-width:0.8;" x="57.6" xlink:href="#mbec2fd9e3a" y="226.667068"/>
      </g>
     </g>
     <g id="text_9">
      <!-- 0.50 -->
      <g transform="translate(12.748438 233.125739)scale(0.17 -0.17)">
       <use xlink:href="#DejaVuSans-48"/>
       <use x="63.623047" xlink:href="#DejaVuSans-46"/>
       <use x="95.410156" xlink:href="#DejaVuSans-53"/>
       <use x="159.033203" xlink:href="#DejaVuSans-48"/>
      </g>
     </g>
    </g>
    <g id="ytick_4">
     <g id="line2d_9">
      <g>
       <use style="stroke:#000000;stroke-width:0.8;" x="57.6" xlink:href="#mbec2fd9e3a" y="186.208601"/>
      </g>
     </g>
     <g id="text_10">
      <!-- 0.75 -->
      <defs>
       <path d="M 8.203125 72.90625 
L 55.078125 72.90625 
L 55.078125 68.703125 
L 28.609375 0 
L 18.3125 0 
L 43.21875 64.59375 
L 8.203125 64.59375 
z
" id="DejaVuSans-55"/>
      </defs>
      <g transform="translate(12.748438 192.667273)scale(0.17 -0.17)">
       <use xlink:href="#DejaVuSans-48"/>
       <use x="63.623047" xlink:href="#DejaVuSans-46"/>
       <use x="95.410156" xlink:href="#DejaVuSans-55"/>
       <use x="159.033203" xlink:href="#DejaVuSans-53"/>
      </g>
     </g>
    </g>
    <g id="ytick_5">
     <g id="line2d_10">
      <g>
       <use style="stroke:#000000;stroke-width:0.8;" x="57.6" xlink:href="#mbec2fd9e3a" y="145.750135"/>
      </g>
     </g>
     <g id="text_11">
      <!-- 1.00 -->
      <g transform="translate(12.748438 152.208807)scale(0.17 -0.17)">
       <use xlink:href="#DejaVuSans-49"/>
       <use x="63.623047" xlink:href="#DejaVuSans-46"/>
       <use x="95.410156" xlink:href="#DejaVuSans-48"/>
       <use x="159.033203" xlink:href="#DejaVuSans-48"/>
      </g>
     </g>
    </g>
    <g id="ytick_6">
     <g id="line2d_11">
      <g>
       <use style="stroke:#000000;stroke-width:0.8;" x="57.6" xlink:href="#mbec2fd9e3a" y="105.291669"/>
      </g>
     </g>
     <g id="text_12">
      <!-- 1.25 -->
      <g transform="translate(12.748438 111.750341)scale(0.17 -0.17)">
       <use xlink:href="#DejaVuSans-49"/>
       <use x="63.623047" xlink:href="#DejaVuSans-46"/>
       <use x="95.410156" xlink:href="#DejaVuSans-50"/>
       <use x="159.033203" xlink:href="#DejaVuSans-53"/>
      </g>
     </g>
    </g>
    <g id="ytick_7">
     <g id="line2d_12">
      <g>
       <use style="stroke:#000000;stroke-width:0.8;" x="57.6" xlink:href="#mbec2fd9e3a" y="64.833203"/>
      </g>
     </g>
     <g id="text_13">
      <!-- 1.50 -->
      <g transform="translate(12.748438 71.291874)scale(0.17 -0.17)">
       <use xlink:href="#DejaVuSans-49"/>
       <use x="63.623047" xlink:href="#DejaVuSans-46"/>
       <use x="95.410156" xlink:href="#DejaVuSans-53"/>
       <use x="159.033203" xlink:href="#DejaVuSans-48"/>
      </g>
     </g>
    </g>
    <g id="text_14">
     <!-- Density -->
     <defs>
      <path d="M 19.671875 64.796875 
L 19.671875 8.109375 
L 31.59375 8.109375 
Q 46.6875 8.109375 53.6875 14.9375 
Q 60.6875 21.78125 60.6875 36.53125 
Q 60.6875 51.171875 53.6875 57.984375 
Q 46.6875 64.796875 31.59375 64.796875 
z
M 9.8125 72.90625 
L 30.078125 72.90625 
Q 51.265625 72.90625 61.171875 64.09375 
Q 71.09375 55.28125 71.09375 36.53125 
Q 71.09375 17.671875 61.125 8.828125 
Q 51.171875 0 30.078125 0 
L 9.8125 0 
z
" id="DejaVuSans-68"/>
      <path d="M 56.203125 29.59375 
L 56.203125 25.203125 
L 14.890625 25.203125 
Q 15.484375 15.921875 20.484375 11.0625 
Q 25.484375 6.203125 34.421875 6.203125 
Q 39.59375 6.203125 44.453125 7.46875 
Q 49.3125 8.734375 54.109375 11.28125 
L 54.109375 2.78125 
Q 49.265625 0.734375 44.1875 -0.34375 
Q 39.109375 -1.421875 33.890625 -1.421875 
Q 20.796875 -1.421875 13.15625 6.1875 
Q 5.515625 13.8125 5.515625 26.8125 
Q 5.515625 40.234375 12.765625 48.109375 
Q 20.015625 56 32.328125 56 
Q 43.359375 56 49.78125 48.890625 
Q 56.203125 41.796875 56.203125 29.59375 
z
M 47.21875 32.234375 
Q 47.125 39.59375 43.09375 43.984375 
Q 39.0625 48.390625 32.421875 48.390625 
Q 24.90625 48.390625 20.390625 44.140625 
Q 15.875 39.890625 15.1875 32.171875 
z
" id="DejaVuSans-101"/>
      <path d="M 32.171875 -5.078125 
Q 28.375 -14.84375 24.75 -17.8125 
Q 21.140625 -20.796875 15.09375 -20.796875 
L 7.90625 -20.796875 
L 7.90625 -13.28125 
L 13.1875 -13.28125 
Q 16.890625 -13.28125 18.9375 -11.515625 
Q 21 -9.765625 23.484375 -3.21875 
L 25.09375 0.875 
L 2.984375 54.6875 
L 12.5 54.6875 
L 29.59375 11.921875 
L 46.6875 54.6875 
L 56.203125 54.6875 
z
" id="DejaVuSans-121"/>
     </defs>
     <g transform="translate(2.509375 231.553781)rotate(-90)scale(0.3 -0.3)">
      <use xlink:href="#DejaVuSans-68"/>
      <use x="77.001953" xlink:href="#DejaVuSans-101"/>
      <use x="138.525391" xlink:href="#DejaVuSans-110"/>
      <use x="201.904297" xlink:href="#DejaVuSans-115"/>
      <use x="254.003906" xlink:href="#DejaVuSans-105"/>
      <use x="281.787109" xlink:href="#DejaVuSans-116"/>
      <use x="320.996094" xlink:href="#DejaVuSans-121"/>
     </g>
    </g>
   </g>
   <g id="line2d_13">
    <path clip-path="url(#p3c77ee6f18)" d="M 73.832727 307.584 
L 118.644017 307.49749 
L 119.03368 307.237316 
L 119.3584 306.742265 
L 119.942895 305.279138 
L 120.462446 304.255994 
L 121.826268 302.469087 
L 122.215931 302.035877 
L 122.410763 302.040889 
L 122.605595 302.263632 
L 122.86537 302.922073 
L 123.969416 306.35272 
L 124.164248 306.330351 
L 124.424024 305.982037 
L 125.073463 304.905867 
L 125.333238 304.873897 
L 125.852789 305.029937 
L 126.047621 304.834479 
L 126.307397 304.219199 
L 127.541331 300.53959 
L 127.736163 300.501049 
L 127.930994 300.672697 
L 128.255714 301.376141 
L 129.229872 303.877425 
L 129.879311 305.011443 
L 130.918414 307.256085 
L 131.308077 307.503412 
L 131.957516 307.580495 
L 134.230552 307.522802 
L 134.620216 307.320089 
L 134.944935 306.906417 
L 135.464486 305.762892 
L 135.85415 305.07233 
L 136.048981 305.006801 
L 136.243813 305.167125 
L 136.568533 305.805574 
L 137.217972 307.100179 
L 137.542691 307.288226 
L 137.737523 307.1996 
L 137.997298 306.761208 
L 138.257074 305.807675 
L 138.581793 303.699664 
L 139.68584 295.190214 
L 139.945615 294.679975 
L 140.140447 294.604813 
L 140.335279 294.733722 
L 140.595054 295.293592 
L 140.85483 296.480599 
L 141.309437 300.03318 
L 141.828988 303.866644 
L 142.088764 304.515499 
L 142.218652 304.423632 
L 142.413483 303.795719 
L 142.803147 301.299999 
L 143.322698 298.132165 
L 143.51753 297.761015 
L 143.647417 297.824657 
L 143.842249 298.30352 
L 144.621576 300.810125 
L 144.881352 300.978702 
L 145.530791 301.167436 
L 146.050342 301.738913 
L 146.699781 302.790782 
L 147.414164 303.861563 
L 147.933715 304.532328 
L 148.453266 305.727415 
L 148.907873 306.537106 
L 149.102705 306.59118 
L 149.297537 306.441986 
L 149.6872 305.722818 
L 150.141807 305.022198 
L 150.336639 305.031173 
L 150.596415 305.371973 
L 151.700461 307.381648 
L 152.155068 307.550901 
L 152.934395 307.546802 
L 153.324058 307.389208 
L 153.648778 306.975396 
L 153.973497 306.057414 
L 154.363161 304.094018 
L 155.272375 299.05592 
L 155.597095 298.518428 
L 155.986758 298.167328 
L 156.246534 297.47127 
L 156.636197 295.435538 
L 157.090804 293.235317 
L 157.285636 293.039257 
L 157.415524 293.223467 
L 157.675299 294.177423 
L 158.259795 296.483182 
L 158.389682 296.564588 
L 158.51957 296.41001 
L 158.714402 295.738125 
L 159.104065 293.220563 
L 159.623616 290.09631 
L 159.818448 289.835896 
L 159.948336 290.050057 
L 160.143168 290.934705 
L 160.532831 294.103888 
L 161.052382 298.123555 
L 161.312158 298.931144 
L 161.442046 298.971793 
L 161.636877 298.630969 
L 161.961597 297.276223 
L 163.000699 292.320775 
L 163.195531 292.160573 
L 163.325419 292.306774 
L 163.52025 292.924932 
L 163.909914 295.269017 
L 164.429465 298.226101 
L 164.68924 298.728469 
L 164.884072 298.690037 
L 165.143848 298.270278 
L 165.468567 297.302595 
L 165.988118 294.824928 
L 166.377782 293.389257 
L 166.50767 293.294886 
L 166.637557 293.434912 
L 166.897333 294.314216 
L 167.67666 297.623461 
L 167.871491 297.845851 
L 168.001379 297.803069 
L 168.196211 297.445942 
L 168.455986 296.439322 
L 168.975538 293.183992 
L 169.560033 289.985885 
L 170.01464 288.727821 
L 171.118686 286.305875 
L 171.313518 286.496256 
L 171.638237 287.343069 
L 172.742284 291.303475 
L 173.391723 294.0442 
L 173.521611 294.123291 
L 173.651498 293.954123 
L 173.911274 292.963994 
L 174.625657 289.744842 
L 174.820488 289.587792 
L 175.01532 289.713999 
L 175.534871 290.218344 
L 175.729703 290.144224 
L 175.989479 289.739032 
L 176.314198 288.690937 
L 176.638918 286.750505 
L 177.028581 282.884429 
L 177.67802 276.154667 
L 177.872852 275.501106 
L 177.937796 275.50267 
L 178.067683 275.84209 
L 178.262515 277.145313 
L 178.652178 281.911219 
L 179.431505 292.330458 
L 179.691281 293.347347 
L 179.821169 293.068636 
L 180.016 291.700859 
L 180.535551 285.204358 
L 180.860271 282.46188 
L 181.055103 282.145474 
L 181.18499 282.475177 
L 181.444766 284.053798 
L 182.094205 288.382914 
L 182.353981 288.892975 
L 182.483868 288.857487 
L 182.6787 288.516189 
L 183.00342 287.403261 
L 183.912634 283.883674 
L 184.042522 283.882956 
L 184.237354 284.320111 
L 184.497129 285.646597 
L 185.731063 293.327763 
L 185.925895 293.475618 
L 186.055783 293.314148 
L 186.315558 292.416242 
L 186.770166 289.630926 
L 187.354661 286.302305 
L 187.67938 285.598912 
L 187.939156 285.513391 
L 188.588595 285.624019 
L 188.783427 286.039679 
L 189.043202 287.261029 
L 189.692641 290.952093 
L 189.822529 290.965121 
L 189.952417 290.550738 
L 190.212192 288.459465 
L 191.381182 275.959675 
L 191.640958 275.506971 
L 191.83579 275.518746 
L 192.030621 275.763803 
L 192.290397 276.606119 
L 192.550173 278.356073 
L 192.939836 282.759139 
L 193.589275 289.865495 
L 193.913994 291.223958 
L 194.108826 291.41742 
L 194.303658 291.28935 
L 194.563433 290.708968 
L 194.888153 289.315472 
L 195.34276 286.155114 
L 196.122087 278.805595 
L 196.641638 271.955052 
L 197.420965 261.090378 
L 197.615797 260.30643 
L 197.680741 260.342218 
L 197.810628 260.873879 
L 198.070404 263.600118 
L 198.979618 275.52157 
L 199.109506 275.807397 
L 199.17445 275.771503 
L 199.304338 275.353532 
L 199.564114 273.197963 
L 199.888833 268.209849 
L 201.057823 247.105299 
L 201.187711 246.922357 
L 201.317599 247.362486 
L 201.577374 249.764006 
L 202.356701 261.165445 
L 202.876252 267.021147 
L 203.200972 268.561592 
L 203.33086 268.599421 
L 203.525691 268.115442 
L 204.369962 264.783156 
L 204.49985 264.844357 
L 204.824569 265.487523 
L 205.019401 265.735434 
L 205.149289 265.647642 
L 205.34412 265.000176 
L 205.603896 263.154991 
L 206.058503 257.945135 
L 207.422325 240.150208 
L 207.487269 240.073348 
L 207.552213 240.144106 
L 207.682101 240.740677 
L 207.941876 243.696548 
L 208.396484 252.836072 
L 209.110867 266.947925 
L 209.435586 270.271019 
L 209.630418 270.986602 
L 209.760306 270.927371 
L 209.955137 270.128719 
L 210.344801 266.936093 
L 210.99424 261.840902 
L 211.708622 257.236992 
L 212.16323 251.869111 
L 212.682781 246.075433 
L 212.877613 245.40557 
L 213.0075 245.574268 
L 213.202332 246.599177 
L 213.721883 249.733586 
L 213.786827 249.687276 
L 213.916715 249.057355 
L 214.111547 246.631353 
L 214.436266 238.932829 
L 215.345481 214.776759 
L 215.605256 212.690584 
L 215.6702 212.599783 
L 215.735144 212.672355 
L 215.865032 213.282546 
L 216.124808 216.153655 
L 216.579415 224.73131 
L 217.16391 235.027497 
L 217.553573 238.189649 
L 218.203012 242.262081 
L 219.436946 251.435036 
L 219.696722 252.192266 
L 219.82661 252.010686 
L 220.021441 250.931695 
L 220.930656 243.876954 
L 221.060544 244.141781 
L 221.515151 245.678719 
L 221.580095 245.626671 
L 221.709983 245.09545 
L 221.904814 243.077108 
L 222.229534 236.638609 
L 223.008861 219.158166 
L 223.203692 217.817223 
L 223.268636 217.772514 
L 223.398524 218.256548 
L 223.6583 221.110722 
L 224.567514 233.509938 
L 224.697402 233.869548 
L 224.762346 233.844801 
L 224.892234 233.373463 
L 225.087065 231.623101 
L 225.476729 225.173329 
L 225.99628 216.838959 
L 226.191112 215.867378 
L 226.256056 215.881191 
L 226.385943 216.369724 
L 226.645719 218.698804 
L 227.295158 225.067911 
L 227.619877 226.281508 
L 227.749765 226.343451 
L 227.879653 226.108649 
L 228.074485 225.027884 
L 228.33426 221.766737 
L 228.65898 214.371427 
L 229.568194 191.12081 
L 229.892914 188.624349 
L 230.152689 188.175549 
L 230.412465 188.168623 
L 230.737185 188.39393 
L 231.451567 189.112289 
L 231.906175 189.0131 
L 232.101006 189.479237 
L 232.360782 191.164137 
L 232.815389 196.487438 
L 233.205053 200.023261 
L 233.399884 200.377381 
L 233.529772 200.09821 
L 233.919436 198.140329 
L 234.438987 195.180897 
L 234.633818 192.091637 
L 234.893594 182.799166 
L 235.218313 158.724562 
L 235.802809 88.287369 
L 236.192472 56.46122 
L 236.32236 54.144 
L 236.387304 54.6816 
L 236.517191 58.868279 
L 236.776967 76.568956 
L 237.556294 135.209066 
L 238.465508 174.278672 
L 238.98506 192.723618 
L 239.244835 196.672664 
L 239.374723 197.230751 
L 239.439667 197.217782 
L 239.569555 196.738493 
L 240.348881 192.330429 
L 240.478769 192.520352 
L 240.933376 193.515885 
L 241.063264 193.149904 
L 241.258096 191.698942 
L 241.907535 185.729726 
L 241.972479 185.829375 
L 242.102367 186.648636 
L 242.362142 190.41068 
L 243.076525 202.179166 
L 243.725964 209.021456 
L 244.635179 224.982891 
L 244.700123 224.946626 
L 244.83001 223.970157 
L 245.024842 220.258584 
L 245.414505 206.609787 
L 246.128888 181.340169 
L 246.388664 178.011505 
L 246.518552 177.809248 
L 246.64844 178.457281 
L 246.908215 181.589344 
L 247.622598 191.135097 
L 248.466869 197.832392 
L 248.856532 205.277015 
L 249.570915 220.055332 
L 249.830691 222.055985 
L 249.960578 222.158839 
L 250.090466 221.712345 
L 250.350242 219.362578 
L 250.739905 212.865333 
L 251.714064 195.018964 
L 251.973839 193.738444 
L 252.103727 193.786829 
L 252.298559 194.470832 
L 252.688222 196.000311 
L 252.753166 196.009263 
L 252.883054 195.667418 
L 253.077885 194.239253 
L 253.792268 187.653743 
L 253.857212 187.666719 
L 253.9871 188.140691 
L 254.246876 190.579788 
L 255.48081 205.051258 
L 255.805529 206.365813 
L 256.260136 207.59894 
L 256.519912 209.41639 
L 256.909575 214.549172 
L 257.364183 220.063237 
L 257.559014 220.507573 
L 257.688902 220.035178 
L 258.338341 215.918541 
L 258.468229 216.51149 
L 258.663061 218.829721 
L 259.442387 230.6472 
L 259.507331 230.596478 
L 259.637219 229.754165 
L 259.896995 225.516113 
L 260.676321 210.100741 
L 260.806209 209.673534 
L 260.936097 210.198479 
L 261.130929 212.645854 
L 261.65048 224.040552 
L 262.040143 229.803774 
L 262.234975 230.678587 
L 262.364863 230.690332 
L 262.559694 230.204852 
L 263.209133 227.517277 
L 263.728685 224.253527 
L 264.053404 222.614363 
L 264.248236 222.436893 
L 264.378124 222.716149 
L 264.702843 224.329263 
L 265.092507 226.046219 
L 265.547114 227.259727 
L 265.741945 228.963203 
L 266.001721 233.749054 
L 266.456328 248.459908 
L 266.97588 263.796094 
L 267.235655 266.293063 
L 267.300599 266.259004 
L 267.430487 265.441649 
L 267.690262 261.233 
L 268.729365 239.925404 
L 268.859253 239.688298 
L 268.98914 240.047028 
L 269.31386 242.401381 
L 269.703523 244.87635 
L 269.898355 245.220348 
L 270.028243 245.143482 
L 270.352962 244.450646 
L 270.80757 243.672129 
L 271.067345 243.02602 
L 271.327121 241.36495 
L 271.65184 237.10574 
L 272.885774 217.308036 
L 273.210494 216.096839 
L 273.340382 216.018714 
L 273.470269 216.184514 
L 273.665101 216.978835 
L 273.924877 219.256951 
L 274.379484 226.139963 
L 274.963979 234.365597 
L 275.288698 236.279251 
L 275.548474 236.682632 
L 275.80825 236.625628 
L 276.262857 236.485269 
L 276.522633 236.613118 
L 276.782408 236.958053 
L 277.042184 237.654681 
L 277.366903 239.331015 
L 278.276118 245.352208 
L 278.406006 245.267332 
L 278.665781 244.371578 
L 278.925557 243.602225 
L 279.055445 243.704889 
L 279.250276 244.73641 
L 279.63994 249.049421 
L 279.964659 251.710943 
L 280.029603 251.831507 
L 280.094547 251.782253 
L 280.224435 251.172156 
L 280.48421 248.21932 
L 281.133649 239.625641 
L 281.328481 238.943766 
L 281.458369 239.095577 
L 281.6532 240.036856 
L 282.757247 248.438812 
L 283.211854 252.773745 
L 283.796349 261.123942 
L 284.445788 269.628483 
L 284.705564 271.088407 
L 284.835451 271.252541 
L 284.965339 271.062748 
L 285.225115 269.835683 
L 285.744666 265.644487 
L 286.329161 259.220754 
L 286.913656 253.02341 
L 287.108488 252.333079 
L 287.238376 252.399466 
L 287.433207 253.160795 
L 288.14759 256.721016 
L 288.277478 256.658667 
L 288.47231 256.044908 
L 289.31658 252.09076 
L 289.446468 252.409043 
L 289.6413 253.722321 
L 289.966019 257.802828 
L 290.745346 268.377549 
L 291.005122 269.710126 
L 291.13501 269.773762 
L 291.264897 269.417952 
L 291.459729 268.116096 
L 291.784449 264.247292 
L 293.408046 241.685464 
L 293.47299 241.558016 
L 293.537934 241.61944 
L 293.667822 242.345573 
L 293.927597 246.152042 
L 294.9667 265.956759 
L 295.161531 266.554916 
L 295.291419 266.503469 
L 295.486251 265.981392 
L 295.746026 264.629173 
L 296.070746 261.544069 
L 296.590297 253.349967 
L 296.97996 248.755314 
L 297.109848 248.335404 
L 297.174792 248.364629 
L 297.30468 248.873477 
L 297.564455 251.308081 
L 298.278838 259.057266 
L 298.47367 259.68548 
L 298.603558 259.636637 
L 298.798389 258.98978 
L 299.317941 256.69917 
L 299.382885 256.686234 
L 299.512772 257.016302 
L 299.707604 258.479347 
L 300.097267 264.106027 
L 300.616819 270.94313 
L 300.876594 272.185063 
L 301.13637 272.515851 
L 301.396145 272.84644 
L 302.045584 274.335126 
L 302.110528 274.274253 
L 302.30536 273.593273 
L 302.565136 271.553427 
L 303.539294 262.617144 
L 304.318621 257.954441 
L 305.097948 252.626256 
L 305.292779 252.254499 
L 305.422667 252.381604 
L 305.617499 253.126651 
L 306.007162 256.011344 
L 307.565816 268.584637 
L 307.890535 270.243667 
L 308.085367 270.400276 
L 308.215255 270.137342 
L 308.47503 268.83252 
L 308.864694 265.271735 
L 309.384245 258.06408 
L 310.033684 249.37246 
L 310.228516 248.495481 
L 310.293459 248.492275 
L 310.423347 248.94572 
L 310.618179 250.724431 
L 311.072786 258.01655 
L 311.592337 265.04818 
L 313.150991 277.878431 
L 313.280879 277.958351 
L 313.410767 277.733918 
L 313.995262 276.011172 
L 314.060205 276.07051 
L 314.255037 276.805685 
L 314.579757 279.579984 
L 315.229196 285.264318 
L 316.46313 291.377495 
L 316.657961 291.669123 
L 316.787849 291.514339 
L 316.982681 290.728022 
L 317.3074 288.109095 
L 317.956839 280.201173 
L 318.606278 273.100832 
L 318.930998 271.602253 
L 319.060886 271.599146 
L 319.190773 271.974283 
L 319.450549 273.817183 
L 320.554595 284.148765 
L 321.333922 286.961244 
L 321.788529 288.909142 
L 321.918417 289.034336 
L 322.048305 288.848177 
L 322.243137 287.942659 
L 322.567856 285.00475 
L 323.412127 276.584728 
L 323.736846 275.42007 
L 323.866734 275.38266 
L 323.996622 275.589058 
L 324.256397 276.668745 
L 325.425388 282.958854 
L 325.555275 282.969673 
L 325.750107 282.676751 
L 326.074827 281.548377 
L 327.113929 277.273136 
L 327.373705 276.954356 
L 327.568536 277.018836 
L 327.828312 277.469332 
L 328.153031 278.533057 
L 328.542695 280.699501 
L 328.997302 284.868493 
L 329.711685 291.676198 
L 330.101348 293.501198 
L 330.620899 295.624006 
L 331.335282 298.883753 
L 331.46517 298.808202 
L 331.660002 297.948493 
L 331.919777 295.360981 
L 333.023824 282.062506 
L 333.153711 281.911227 
L 333.283599 282.081139 
L 333.543375 283.157164 
L 333.933038 285.975889 
L 335.037085 294.894758 
L 335.426748 296.210406 
L 335.816411 296.91414 
L 336.011243 296.969335 
L 336.141131 296.788666 
L 336.335962 296.037416 
L 336.595738 293.914026 
L 337.050345 287.620124 
L 337.504953 282.014967 
L 337.764728 280.862165 
L 337.894616 280.848705 
L 338.089448 281.251385 
L 338.479111 282.051332 
L 338.608999 282.007746 
L 338.803831 281.622379 
L 339.258438 280.516398 
L 339.388326 280.558507 
L 339.583157 281.158574 
L 339.842933 282.939907 
L 340.557316 288.627205 
L 340.687204 288.85199 
L 340.752148 288.81694 
L 340.882035 288.458151 
L 341.141811 286.774092 
L 341.79125 281.80889 
L 341.986082 281.583639 
L 342.115969 281.916534 
L 342.375745 283.544655 
L 343.090128 288.689914 
L 343.349903 289.162769 
L 343.674623 289.406383 
L 343.869455 289.914393 
L 344.12923 291.309714 
L 345.038445 296.990183 
L 345.29822 297.252982 
L 345.493052 297.128796 
L 346.402267 296.20447 
L 346.597098 296.364427 
L 346.856874 297.022837 
L 347.181593 298.644329 
L 348.025864 303.436423 
L 348.415527 304.25091 
L 349.064966 304.927241 
L 349.259798 304.872905 
L 349.45463 304.508875 
L 349.714405 303.467094 
L 350.493732 299.698886 
L 350.688564 299.606411 
L 350.883396 299.897319 
L 351.402947 300.890407 
L 351.597778 300.842895 
L 351.922498 300.300057 
L 352.247217 299.8388 
L 352.442049 299.846489 
L 352.701825 300.155698 
L 353.091488 300.608411 
L 353.28632 300.579567 
L 353.935759 300.158804 
L 354.13059 300.510975 
L 354.45531 301.768457 
L 354.909917 303.522366 
L 355.039805 303.629397 
L 355.169693 303.442361 
L 355.364525 302.539816 
L 355.689244 299.451123 
L 356.598459 289.277983 
L 356.858234 288.544232 
L 356.988122 288.608226 
L 357.182954 289.093178 
L 357.832393 291.130872 
L 358.027224 291.171973 
L 358.351944 290.782952 
L 358.546776 290.6579 
L 358.676663 290.768243 
L 358.871495 291.312807 
L 359.326102 293.73737 
L 359.650822 294.782651 
L 359.78071 294.713451 
L 359.975541 294.07794 
L 360.689924 290.957916 
L 360.819812 291.062128 
L 361.014644 291.734748 
L 361.469251 294.685782 
L 361.988802 297.575434 
L 362.183634 297.954108 
L 362.313522 297.887107 
L 362.508353 297.230417 
L 362.768129 295.322641 
L 363.482512 289.5203 
L 363.547456 289.49211 
L 363.677343 289.836293 
L 363.872175 291.280776 
L 364.976221 301.908008 
L 365.171053 302.16332 
L 365.300941 302.106472 
L 365.560717 301.60363 
L 366.080268 299.784302 
L 367.184314 295.913907 
L 367.44409 295.614175 
L 367.573977 295.725732 
L 367.768809 296.263341 
L 368.093529 297.970235 
L 368.872855 302.327431 
L 369.262519 303.359551 
L 369.78207 304.014549 
L 370.626341 304.785511 
L 371.016004 304.718414 
L 371.340723 304.728873 
L 371.665443 305.024797 
L 372.184994 305.507662 
L 372.44477 305.410376 
L 373.094209 304.935592 
L 373.28904 305.090121 
L 373.61376 305.709178 
L 374.328143 307.162365 
L 374.717806 307.471647 
L 375.237357 307.572994 
L 377.705225 307.584 
L 398.487273 307.584 
L 398.487273 307.584 
" style="fill:none;stroke:#ff7f0e;stroke-linecap:square;stroke-width:1.5;"/>
   </g>
   <g id="patch_103">
    <path d="M 57.6 307.584 
L 57.6 41.472 
" style="fill:none;stroke:#000000;stroke-linecap:square;stroke-linejoin:miter;stroke-width:0.8;"/>
   </g>
   <g id="patch_104">
    <path d="M 414.72 307.584 
L 414.72 41.472 
" style="fill:none;stroke:#000000;stroke-linecap:square;stroke-linejoin:miter;stroke-width:0.8;"/>
   </g>
   <g id="patch_105">
    <path d="M 57.6 307.584 
L 414.72 307.584 
" style="fill:none;stroke:#000000;stroke-linecap:square;stroke-linejoin:miter;stroke-width:0.8;"/>
   </g>
   <g id="patch_106">
    <path d="M 57.6 41.472 
L 414.72 41.472 
" style="fill:none;stroke:#000000;stroke-linecap:square;stroke-linejoin:miter;stroke-width:0.8;"/>
   </g>
  </g>
 </g>
 <defs>
  <clipPath id="p3c77ee6f18">
   <rect height="266.112" width="357.12" x="57.6" y="41.472"/>
  </clipPath>
 </defs>
</svg>
