<?xml version="1.0" encoding="utf-8" standalone="no"?>
<!DOCTYPE svg PUBLIC "-//W3C//DTD SVG 1.1//EN"
  "http://www.w3.org/Graphics/SVG/1.1/DTD/svg11.dtd">
<!-- Created with matplotlib (https://matplotlib.org/) -->
<svg height="345.6pt" version="1.1" viewBox="0 0 460.8 345.6" width="460.8pt" xmlns="http://www.w3.org/2000/svg" xmlns:xlink="http://www.w3.org/1999/xlink">
 <defs>
  <style type="text/css">
*{stroke-linecap:butt;stroke-linejoin:round;}
  </style>
 </defs>
 <g id="figure_1">
  <g id="patch_1">
   <path d="M 0 345.6 
L 460.8 345.6 
L 460.8 0 
L 0 0 
z
" style="fill:#ffffff;"/>
  </g>
  <g id="axes_1">
   <g id="patch_2">
    <path d="M 57.6 307.584 
L 414.72 307.584 
L 414.72 41.472 
L 57.6 41.472 
z
" style="fill:#ffffff;"/>
   </g>
   <g id="patch_3">
    <path clip-path="url(#p6d561948c6)" d="M 100.171279 307.584 
L 102.891226 307.584 
L 102.891226 305.354128 
L 100.171279 305.354128 
z
" style="fill:#1f77b4;"/>
   </g>
   <g id="patch_4">
    <path clip-path="url(#p6d561948c6)" d="M 102.89121 307.584 
L 105.611172 307.584 
L 105.611172 303.124281 
L 102.89121 303.124281 
z
" style="fill:#1f77b4;"/>
   </g>
   <g id="patch_5">
    <path clip-path="url(#p6d561948c6)" d="M 105.611188 307.584 
L 108.331142 307.584 
L 108.331142 302.232322 
L 105.611188 302.232322 
z
" style="fill:#1f77b4;"/>
   </g>
   <g id="patch_6">
    <path clip-path="url(#p6d561948c6)" d="M 108.331149 307.584 
L 111.051104 307.584 
L 111.051104 304.462188 
L 108.331149 304.462188 
z
" style="fill:#1f77b4;"/>
   </g>
   <g id="patch_7">
    <path clip-path="url(#p6d561948c6)" d="M 111.051096 307.584 
L 113.77105 307.584 
L 113.77105 303.124268 
L 111.051096 303.124268 
z
" style="fill:#1f77b4;"/>
   </g>
   <g id="patch_8">
    <path clip-path="url(#p6d561948c6)" d="M 113.771058 307.584 
L 116.491012 307.584 
L 116.491012 301.340375 
L 113.771058 301.340375 
z
" style="fill:#1f77b4;"/>
   </g>
   <g id="patch_9">
    <path clip-path="url(#p6d561948c6)" d="M 116.491004 307.584 
L 119.21095 307.584 
L 119.21095 294.204766 
L 116.491004 294.204766 
z
" style="fill:#1f77b4;"/>
   </g>
   <g id="patch_10">
    <path clip-path="url(#p6d561948c6)" d="M 119.21095 307.584 
L 121.930904 307.584 
L 121.930904 297.77259 
L 119.21095 297.77259 
z
" style="fill:#1f77b4;"/>
   </g>
   <g id="patch_11">
    <path clip-path="url(#p6d561948c6)" d="M 121.930912 307.584 
L 124.650866 307.584 
L 124.650866 295.988697 
L 121.930912 295.988697 
z
" style="fill:#1f77b4;"/>
   </g>
   <g id="patch_12">
    <path clip-path="url(#p6d561948c6)" d="M 124.650859 307.584 
L 127.370813 307.584 
L 127.370813 297.77259 
L 124.650859 297.77259 
z
" style="fill:#1f77b4;"/>
   </g>
   <g id="patch_13">
    <path clip-path="url(#p6d561948c6)" d="M 127.37082 307.584 
L 130.090774 307.584 
L 130.090774 297.326617 
L 127.37082 297.326617 
z
" style="fill:#1f77b4;"/>
   </g>
   <g id="patch_14">
    <path clip-path="url(#p6d561948c6)" d="M 130.090767 307.584 
L 132.810721 307.584 
L 132.810721 290.191045 
L 130.090767 290.191045 
z
" style="fill:#1f77b4;"/>
   </g>
   <g id="patch_15">
    <path clip-path="url(#p6d561948c6)" d="M 132.810728 307.584 
L 135.530683 307.584 
L 135.530683 286.62326 
L 132.810728 286.62326 
z
" style="fill:#1f77b4;"/>
   </g>
   <g id="patch_16">
    <path clip-path="url(#p6d561948c6)" d="M 135.530675 307.584 
L 138.250629 307.584 
L 138.250629 284.839367 
L 135.530675 284.839367 
z
" style="fill:#1f77b4;"/>
   </g>
   <g id="patch_17">
    <path clip-path="url(#p6d561948c6)" d="M 138.250637 307.584 
L 140.970591 307.584 
L 140.970591 289.745072 
L 138.250637 289.745072 
z
" style="fill:#1f77b4;"/>
   </g>
   <g id="patch_18">
    <path clip-path="url(#p6d561948c6)" d="M 140.970583 307.584 
L 143.690537 307.584 
L 143.690537 281.271582 
L 140.970583 281.271582 
z
" style="fill:#1f77b4;"/>
   </g>
   <g id="patch_19">
    <path clip-path="url(#p6d561948c6)" d="M 143.690545 307.584 
L 146.410499 307.584 
L 146.410499 287.515206 
L 143.690545 287.515206 
z
" style="fill:#1f77b4;"/>
   </g>
   <g id="patch_20">
    <path clip-path="url(#p6d561948c6)" d="M 146.410491 307.584 
L 149.130445 307.584 
L 149.130445 280.379635 
L 146.410491 280.379635 
z
" style="fill:#1f77b4;"/>
   </g>
   <g id="patch_21">
    <path clip-path="url(#p6d561948c6)" d="M 149.130445 307.584 
L 151.850392 307.584 
L 151.850392 272.797992 
L 149.130445 272.797992 
z
" style="fill:#1f77b4;"/>
   </g>
   <g id="patch_22">
    <path clip-path="url(#p6d561948c6)" d="M 151.850399 307.584 
L 154.570353 307.584 
L 154.570353 278.149769 
L 151.850399 278.149769 
z
" style="fill:#1f77b4;"/>
   </g>
   <g id="patch_23">
    <path clip-path="url(#p6d561948c6)" d="M 154.570346 307.584 
L 157.2903 307.584 
L 157.2903 282.609501 
L 154.570346 282.609501 
z
" style="fill:#1f77b4;"/>
   </g>
   <g id="patch_24">
    <path clip-path="url(#p6d561948c6)" d="M 157.290308 307.584 
L 160.010262 307.584 
L 160.010262 272.798091 
L 157.290308 272.798091 
z
" style="fill:#1f77b4;"/>
   </g>
   <g id="patch_25">
    <path clip-path="url(#p6d561948c6)" d="M 160.010254 307.584 
L 162.730208 307.584 
L 162.730208 275.47393 
L 160.010254 275.47393 
z
" style="fill:#1f77b4;"/>
   </g>
   <g id="patch_26">
    <path clip-path="url(#p6d561948c6)" d="M 162.730216 307.584 
L 165.45017 307.584 
L 165.45017 271.014198 
L 162.730216 271.014198 
z
" style="fill:#1f77b4;"/>
   </g>
   <g id="patch_27">
    <path clip-path="url(#p6d561948c6)" d="M 165.450162 307.584 
L 168.170116 307.584 
L 168.170116 277.257823 
L 165.450162 277.257823 
z
" style="fill:#1f77b4;"/>
   </g>
   <g id="patch_28">
    <path clip-path="url(#p6d561948c6)" d="M 168.170124 307.584 
L 170.890078 307.584 
L 170.890078 269.230305 
L 168.170124 269.230305 
z
" style="fill:#1f77b4;"/>
   </g>
   <g id="patch_29">
    <path clip-path="url(#p6d561948c6)" d="M 170.89007 307.584 
L 173.610024 307.584 
L 173.610024 274.13601 
L 170.89007 274.13601 
z
" style="fill:#1f77b4;"/>
   </g>
   <g id="patch_30">
    <path clip-path="url(#p6d561948c6)" d="M 173.610024 307.584 
L 176.329978 307.584 
L 176.329978 271.460171 
L 173.610024 271.460171 
z
" style="fill:#1f77b4;"/>
   </g>
   <g id="patch_31">
    <path clip-path="url(#p6d561948c6)" d="M 176.329978 307.584 
L 179.049929 307.584 
L 179.049929 263.878565 
L 176.329978 263.878565 
z
" style="fill:#1f77b4;"/>
   </g>
   <g id="patch_32">
    <path clip-path="url(#p6d561948c6)" d="M 179.049929 307.584 
L 181.769883 307.584 
L 181.769883 265.216547 
L 179.049929 265.216547 
z
" style="fill:#1f77b4;"/>
   </g>
   <g id="patch_33">
    <path clip-path="url(#p6d561948c6)" d="M 181.769883 307.584 
L 184.489837 307.584 
L 184.489837 250.053458 
L 181.769883 250.053458 
z
" style="fill:#1f77b4;"/>
   </g>
   <g id="patch_34">
    <path clip-path="url(#p6d561948c6)" d="M 184.489837 307.584 
L 187.209791 307.584 
L 187.209791 254.067217 
L 184.489837 254.067217 
z
" style="fill:#1f77b4;"/>
   </g>
   <g id="patch_35">
    <path clip-path="url(#p6d561948c6)" d="M 187.209791 307.584 
L 189.929745 307.584 
L 189.929745 254.959163 
L 187.209791 254.959163 
z
" style="fill:#1f77b4;"/>
   </g>
   <g id="patch_36">
    <path clip-path="url(#p6d561948c6)" d="M 189.929745 307.584 
L 192.649699 307.584 
L 192.649699 234.890369 
L 189.929745 234.890369 
z
" style="fill:#1f77b4;"/>
   </g>
   <g id="patch_37">
    <path clip-path="url(#p6d561948c6)" d="M 192.649703 307.584 
L 195.369653 307.584 
L 195.369653 238.012083 
L 192.649703 238.012083 
z
" style="fill:#1f77b4;"/>
   </g>
   <g id="patch_38">
    <path clip-path="url(#p6d561948c6)" d="M 195.369649 307.584 
L 198.089603 307.584 
L 198.089603 225.078959 
L 195.369649 225.078959 
z
" style="fill:#1f77b4;"/>
   </g>
   <g id="patch_39">
    <path clip-path="url(#p6d561948c6)" d="M 198.089603 307.584 
L 200.809557 307.584 
L 200.809557 232.660503 
L 198.089603 232.660503 
z
" style="fill:#1f77b4;"/>
   </g>
   <g id="patch_40">
    <path clip-path="url(#p6d561948c6)" d="M 200.809557 307.584 
L 203.529511 307.584 
L 203.529511 224.187013 
L 200.809557 224.187013 
z
" style="fill:#1f77b4;"/>
   </g>
   <g id="patch_41">
    <path clip-path="url(#p6d561948c6)" d="M 203.529511 307.584 
L 206.249466 307.584 
L 206.249466 220.173254 
L 203.529511 220.173254 
z
" style="fill:#1f77b4;"/>
   </g>
   <g id="patch_42">
    <path clip-path="url(#p6d561948c6)" d="M 206.249466 307.584 
L 208.969418 307.584 
L 208.969418 225.0789 
L 206.249466 225.0789 
z
" style="fill:#1f77b4;"/>
   </g>
   <g id="patch_43">
    <path clip-path="url(#p6d561948c6)" d="M 208.969418 307.584 
L 211.689372 307.584 
L 211.689372 235.336343 
L 208.969418 235.336343 
z
" style="fill:#1f77b4;"/>
   </g>
   <g id="patch_44">
    <path clip-path="url(#p6d561948c6)" d="M 211.689372 307.584 
L 214.409326 307.584 
L 214.409326 233.998423 
L 211.689372 233.998423 
z
" style="fill:#1f77b4;"/>
   </g>
   <g id="patch_45">
    <path clip-path="url(#p6d561948c6)" d="M 214.409324 307.584 
L 217.129276 307.584 
L 217.129276 238.904079 
L 214.409324 238.904079 
z
" style="fill:#1f77b4;"/>
   </g>
   <g id="patch_46">
    <path clip-path="url(#p6d561948c6)" d="M 217.129278 307.584 
L 219.849232 307.584 
L 219.849232 218.835334 
L 217.129278 218.835334 
z
" style="fill:#1f77b4;"/>
   </g>
   <g id="patch_47">
    <path clip-path="url(#p6d561948c6)" d="M 219.849232 307.584 
L 222.569185 307.584 
L 222.569185 205.456102 
L 219.849232 205.456102 
z
" style="fill:#1f77b4;"/>
   </g>
   <g id="patch_48">
    <path clip-path="url(#p6d561948c6)" d="M 222.569185 307.584 
L 225.289139 307.584 
L 225.289139 225.524932 
L 222.569185 225.524932 
z
" style="fill:#1f77b4;"/>
   </g>
   <g id="patch_49">
    <path clip-path="url(#p6d561948c6)" d="M 225.289138 307.584 
L 228.009091 307.584 
L 228.009091 207.239996 
L 225.289138 207.239996 
z
" style="fill:#1f77b4;"/>
   </g>
   <g id="patch_50">
    <path clip-path="url(#p6d561948c6)" d="M 228.009092 307.584 
L 230.729046 307.584 
L 230.729046 209.915853 
L 228.009092 209.915853 
z
" style="fill:#1f77b4;"/>
   </g>
   <g id="patch_51">
    <path clip-path="url(#p6d561948c6)" d="M 230.729046 307.584 
L 233.448999 307.584 
L 233.448999 195.644698 
L 230.729046 195.644698 
z
" style="fill:#1f77b4;"/>
   </g>
   <g id="patch_52">
    <path clip-path="url(#p6d561948c6)" d="M 233.448999 307.584 
L 236.168953 307.584 
L 236.168953 107.787956 
L 233.448999 107.787956 
z
" style="fill:#1f77b4;"/>
   </g>
   <g id="patch_53">
    <path clip-path="url(#p6d561948c6)" d="M 236.168953 307.584 
L 238.888906 307.584 
L 238.888906 188.063152 
L 236.168953 188.063152 
z
" style="fill:#1f77b4;"/>
   </g>
   <g id="patch_54">
    <path clip-path="url(#p6d561948c6)" d="M 238.888906 307.584 
L 241.60886 307.584 
L 241.60886 171.116166 
L 238.888906 171.116166 
z
" style="fill:#1f77b4;"/>
   </g>
   <g id="patch_55">
    <path clip-path="url(#p6d561948c6)" d="M 241.608859 307.584 
L 244.328813 307.584 
L 244.328813 200.550414 
L 241.608859 200.550414 
z
" style="fill:#1f77b4;"/>
   </g>
   <g id="patch_56">
    <path clip-path="url(#p6d561948c6)" d="M 244.328813 307.584 
L 247.048766 307.584 
L 247.048766 209.915836 
L 244.328813 209.915836 
z
" style="fill:#1f77b4;"/>
   </g>
   <g id="patch_57">
    <path clip-path="url(#p6d561948c6)" d="M 247.048766 307.584 
L 249.76872 307.584 
L 249.76872 207.686004 
L 247.048766 207.686004 
z
" style="fill:#1f77b4;"/>
   </g>
   <g id="patch_58">
    <path clip-path="url(#p6d561948c6)" d="M 249.768719 307.584 
L 252.488673 307.584 
L 252.488673 209.023889 
L 249.768719 209.023889 
z
" style="fill:#1f77b4;"/>
   </g>
   <g id="patch_59">
    <path clip-path="url(#p6d561948c6)" d="M 252.488673 307.584 
L 255.208627 307.584 
L 255.208627 207.686004 
L 252.488673 207.686004 
z
" style="fill:#1f77b4;"/>
   </g>
   <g id="patch_60">
    <path clip-path="url(#p6d561948c6)" d="M 255.208627 307.584 
L 257.92858 307.584 
L 257.92858 212.591642 
L 255.208627 212.591642 
z
" style="fill:#1f77b4;"/>
   </g>
   <g id="patch_61">
    <path clip-path="url(#p6d561948c6)" d="M 257.92858 307.584 
L 260.648534 307.584 
L 260.648534 209.91587 
L 257.92858 209.91587 
z
" style="fill:#1f77b4;"/>
   </g>
   <g id="patch_62">
    <path clip-path="url(#p6d561948c6)" d="M 260.648534 307.584 
L 263.368488 307.584 
L 263.368488 217.497415 
L 260.648534 217.497415 
z
" style="fill:#1f77b4;"/>
   </g>
   <g id="patch_63">
    <path clip-path="url(#p6d561948c6)" d="M 263.368486 307.584 
L 266.088438 307.584 
L 266.088438 226.416821 
L 263.368486 226.416821 
z
" style="fill:#1f77b4;"/>
   </g>
   <g id="patch_64">
    <path clip-path="url(#p6d561948c6)" d="M 266.08844 307.584 
L 268.808394 307.584 
L 268.808394 240.688021 
L 266.08844 240.688021 
z
" style="fill:#1f77b4;"/>
   </g>
   <g id="patch_65">
    <path clip-path="url(#p6d561948c6)" d="M 268.808394 307.584 
L 271.528348 307.584 
L 271.528348 234.890369 
L 268.808394 234.890369 
z
" style="fill:#1f77b4;"/>
   </g>
   <g id="patch_66">
    <path clip-path="url(#p6d561948c6)" d="M 271.528348 307.584 
L 274.248302 307.584 
L 274.248302 236.228289 
L 271.528348 236.228289 
z
" style="fill:#1f77b4;"/>
   </g>
   <g id="patch_67">
    <path clip-path="url(#p6d561948c6)" d="M 274.248302 307.584 
L 276.968256 307.584 
L 276.968256 248.269565 
L 274.248302 248.269565 
z
" style="fill:#1f77b4;"/>
   </g>
   <g id="patch_68">
    <path clip-path="url(#p6d561948c6)" d="M 276.968256 307.584 
L 279.688207 307.584 
L 279.688207 249.607402 
L 276.968256 249.607402 
z
" style="fill:#1f77b4;"/>
   </g>
   <g id="patch_69">
    <path clip-path="url(#p6d561948c6)" d="M 279.688207 307.584 
L 282.408161 307.584 
L 282.408161 250.945404 
L 279.688207 250.945404 
z
" style="fill:#1f77b4;"/>
   </g>
   <g id="patch_70">
    <path clip-path="url(#p6d561948c6)" d="M 282.408161 307.584 
L 285.128115 307.584 
L 285.128115 253.17527 
L 282.408161 253.17527 
z
" style="fill:#1f77b4;"/>
   </g>
   <g id="patch_71">
    <path clip-path="url(#p6d561948c6)" d="M 285.128115 307.584 
L 287.848069 307.584 
L 287.848069 255.851109 
L 285.128115 255.851109 
z
" style="fill:#1f77b4;"/>
   </g>
   <g id="patch_72">
    <path clip-path="url(#p6d561948c6)" d="M 287.848069 307.584 
L 290.568023 307.584 
L 290.568023 267.892386 
L 287.848069 267.892386 
z
" style="fill:#1f77b4;"/>
   </g>
   <g id="patch_73">
    <path clip-path="url(#p6d561948c6)" d="M 290.568023 307.584 
L 293.287977 307.584 
L 293.287977 263.878627 
L 290.568023 263.878627 
z
" style="fill:#1f77b4;"/>
   </g>
   <g id="patch_74">
    <path clip-path="url(#p6d561948c6)" d="M 293.287981 307.584 
L 296.007931 307.584 
L 296.007931 276.365832 
L 293.287981 276.365832 
z
" style="fill:#1f77b4;"/>
   </g>
   <g id="patch_75">
    <path clip-path="url(#p6d561948c6)" d="M 296.007927 307.584 
L 298.727881 307.584 
L 298.727881 270.568225 
L 296.007927 270.568225 
z
" style="fill:#1f77b4;"/>
   </g>
   <g id="patch_76">
    <path clip-path="url(#p6d561948c6)" d="M 298.727881 307.584 
L 301.447835 307.584 
L 301.447835 271.460171 
L 298.727881 271.460171 
z
" style="fill:#1f77b4;"/>
   </g>
   <g id="patch_77">
    <path clip-path="url(#p6d561948c6)" d="M 301.447835 307.584 
L 304.167789 307.584 
L 304.167789 280.825608 
L 301.447835 280.825608 
z
" style="fill:#1f77b4;"/>
   </g>
   <g id="patch_78">
    <path clip-path="url(#p6d561948c6)" d="M 304.167797 307.584 
L 306.887751 307.584 
L 306.887751 282.609501 
L 304.167797 282.609501 
z
" style="fill:#1f77b4;"/>
   </g>
   <g id="patch_79">
    <path clip-path="url(#p6d561948c6)" d="M 306.887744 307.584 
L 309.607698 307.584 
L 309.607698 287.069233 
L 306.887744 287.069233 
z
" style="fill:#1f77b4;"/>
   </g>
   <g id="patch_80">
    <path clip-path="url(#p6d561948c6)" d="M 309.607705 307.584 
L 312.327659 307.584 
L 312.327659 285.731313 
L 309.607705 285.731313 
z
" style="fill:#1f77b4;"/>
   </g>
   <g id="patch_81">
    <path clip-path="url(#p6d561948c6)" d="M 312.327652 307.584 
L 315.047606 307.584 
L 315.047606 290.637019 
L 312.327652 290.637019 
z
" style="fill:#1f77b4;"/>
   </g>
   <g id="patch_82">
    <path clip-path="url(#p6d561948c6)" d="M 315.047614 307.584 
L 317.767568 307.584 
L 317.767568 290.637019 
L 315.047614 290.637019 
z
" style="fill:#1f77b4;"/>
   </g>
   <g id="patch_83">
    <path clip-path="url(#p6d561948c6)" d="M 317.76756 307.584 
L 320.487514 307.584 
L 320.487514 292.420911 
L 317.76756 292.420911 
z
" style="fill:#1f77b4;"/>
   </g>
   <g id="patch_84">
    <path clip-path="url(#p6d561948c6)" d="M 320.487514 307.584 
L 323.20746 307.584 
L 323.20746 285.285277 
L 320.487514 285.285277 
z
" style="fill:#1f77b4;"/>
   </g>
   <g id="patch_85">
    <path clip-path="url(#p6d561948c6)" d="M 323.207468 307.584 
L 325.927422 307.584 
L 325.927422 291.974938 
L 323.207468 291.974938 
z
" style="fill:#1f77b4;"/>
   </g>
   <g id="patch_86">
    <path clip-path="url(#p6d561948c6)" d="M 325.927414 307.584 
L 328.647368 307.584 
L 328.647368 286.62326 
L 325.927414 286.62326 
z
" style="fill:#1f77b4;"/>
   </g>
   <g id="patch_87">
    <path clip-path="url(#p6d561948c6)" d="M 328.647376 307.584 
L 331.36733 307.584 
L 331.36733 297.326617 
L 328.647376 297.326617 
z
" style="fill:#1f77b4;"/>
   </g>
   <g id="patch_88">
    <path clip-path="url(#p6d561948c6)" d="M 331.367323 307.584 
L 334.087277 307.584 
L 334.087277 299.110509 
L 331.367323 299.110509 
z
" style="fill:#1f77b4;"/>
   </g>
   <g id="patch_89">
    <path clip-path="url(#p6d561948c6)" d="M 334.087284 307.584 
L 336.807238 307.584 
L 336.807238 297.77259 
L 334.087284 297.77259 
z
" style="fill:#1f77b4;"/>
   </g>
   <g id="patch_90">
    <path clip-path="url(#p6d561948c6)" d="M 336.807231 307.584 
L 339.527185 307.584 
L 339.527185 296.880643 
L 336.807231 296.880643 
z
" style="fill:#1f77b4;"/>
   </g>
   <g id="patch_91">
    <path clip-path="url(#p6d561948c6)" d="M 339.527193 307.584 
L 342.247147 307.584 
L 342.247147 296.880643 
L 339.527193 296.880643 
z
" style="fill:#1f77b4;"/>
   </g>
   <g id="patch_92">
    <path clip-path="url(#p6d561948c6)" d="M 342.247139 307.584 
L 344.967093 307.584 
L 344.967093 299.556483 
L 342.247139 299.556483 
z
" style="fill:#1f77b4;"/>
   </g>
   <g id="patch_93">
    <path clip-path="url(#p6d561948c6)" d="M 344.967101 307.584 
L 347.687055 307.584 
L 347.687055 300.002456 
L 344.967101 300.002456 
z
" style="fill:#1f77b4;"/>
   </g>
   <g id="patch_94">
    <path clip-path="url(#p6d561948c6)" d="M 347.687047 307.584 
L 350.407001 307.584 
L 350.407001 303.570241 
L 347.687047 303.570241 
z
" style="fill:#1f77b4;"/>
   </g>
   <g id="patch_95">
    <path clip-path="url(#p6d561948c6)" d="M 350.407009 307.584 
L 353.126963 307.584 
L 353.126963 300.894402 
L 350.407009 300.894402 
z
" style="fill:#1f77b4;"/>
   </g>
   <g id="patch_96">
    <path clip-path="url(#p6d561948c6)" d="M 353.126955 307.584 
L 355.846902 307.584 
L 355.846902 305.354128 
L 353.126955 305.354128 
z
" style="fill:#1f77b4;"/>
   </g>
   <g id="patch_97">
    <path clip-path="url(#p6d561948c6)" d="M 355.846902 307.584 
L 358.566856 307.584 
L 358.566856 304.016214 
L 355.846902 304.016214 
z
" style="fill:#1f77b4;"/>
   </g>
   <g id="patch_98">
    <path clip-path="url(#p6d561948c6)" d="M 358.566863 307.584 
L 361.286817 307.584 
L 361.286817 305.354134 
L 358.566863 305.354134 
z
" style="fill:#1f77b4;"/>
   </g>
   <g id="patch_99">
    <path clip-path="url(#p6d561948c6)" d="M 361.28681 307.584 
L 364.006764 307.584 
L 364.006764 303.570241 
L 361.28681 303.570241 
z
" style="fill:#1f77b4;"/>
   </g>
   <g id="patch_100">
    <path clip-path="url(#p6d561948c6)" d="M 364.006772 307.584 
L 366.726718 307.584 
L 366.726718 306.692054 
L 364.006772 306.692054 
z
" style="fill:#1f77b4;"/>
   </g>
   <g id="patch_101">
    <path clip-path="url(#p6d561948c6)" d="M 366.726718 307.584 
L 369.44668 307.584 
L 369.44668 306.246084 
L 366.726718 306.246084 
z
" style="fill:#1f77b4;"/>
   </g>
   <g id="patch_102">
    <path clip-path="url(#p6d561948c6)" d="M 369.44668 307.584 
L 372.166626 307.584 
L 372.166626 306.246077 
L 369.44668 306.246077 
z
" style="fill:#1f77b4;"/>
   </g>
   <g id="matplotlib.axis_1">
    <g id="xtick_1">
     <g id="line2d_1">
      <defs>
       <path d="M 0 0 
L 0 3.5 
" id="m1add4087ad" style="stroke:#000000;stroke-width:0.8;"/>
      </defs>
      <g>
       <use style="stroke:#000000;stroke-width:0.8;" x="106.299805" xlink:href="#m1add4087ad" y="307.584"/>
      </g>
     </g>
     <g id="text_1">
      <!-- −2 -->
      <defs>
       <path d="M 10.59375 35.5 
L 73.1875 35.5 
L 73.1875 27.203125 
L 10.59375 27.203125 
z
" id="DejaVuSans-8722"/>
       <path d="M 19.1875 8.296875 
L 53.609375 8.296875 
L 53.609375 0 
L 7.328125 0 
L 7.328125 8.296875 
Q 12.9375 14.109375 22.625 23.890625 
Q 32.328125 33.6875 34.8125 36.53125 
Q 39.546875 41.84375 41.421875 45.53125 
Q 43.3125 49.21875 43.3125 52.78125 
Q 43.3125 58.59375 39.234375 62.25 
Q 35.15625 65.921875 28.609375 65.921875 
Q 23.96875 65.921875 18.8125 64.3125 
Q 13.671875 62.703125 7.8125 59.421875 
L 7.8125 69.390625 
Q 13.765625 71.78125 18.9375 73 
Q 24.125 74.21875 28.421875 74.21875 
Q 39.75 74.21875 46.484375 68.546875 
Q 53.21875 62.890625 53.21875 53.421875 
Q 53.21875 48.921875 51.53125 44.890625 
Q 49.859375 40.875 45.40625 35.40625 
Q 44.1875 33.984375 37.640625 27.21875 
Q 31.109375 20.453125 19.1875 8.296875 
z
" id="DejaVuSans-50"/>
      </defs>
      <g transform="translate(93.768946 327.501344)scale(0.17 -0.17)">
       <use xlink:href="#DejaVuSans-8722"/>
       <use x="83.789062" xlink:href="#DejaVuSans-50"/>
      </g>
     </g>
    </g>
    <g id="xtick_2">
     <g id="line2d_2">
      <g>
       <use style="stroke:#000000;stroke-width:0.8;" x="171.233961" xlink:href="#m1add4087ad" y="307.584"/>
      </g>
     </g>
     <g id="text_2">
      <!-- −1 -->
      <defs>
       <path d="M 12.40625 8.296875 
L 28.515625 8.296875 
L 28.515625 63.921875 
L 10.984375 60.40625 
L 10.984375 69.390625 
L 28.421875 72.90625 
L 38.28125 72.90625 
L 38.28125 8.296875 
L 54.390625 8.296875 
L 54.390625 0 
L 12.40625 0 
z
" id="DejaVuSans-49"/>
      </defs>
      <g transform="translate(158.703102 327.501344)scale(0.17 -0.17)">
       <use xlink:href="#DejaVuSans-8722"/>
       <use x="83.789062" xlink:href="#DejaVuSans-49"/>
      </g>
     </g>
    </g>
    <g id="xtick_3">
     <g id="line2d_3">
      <g>
       <use style="stroke:#000000;stroke-width:0.8;" x="236.168117" xlink:href="#m1add4087ad" y="307.584"/>
      </g>
     </g>
     <g id="text_3">
      <!-- 0 -->
      <defs>
       <path d="M 31.78125 66.40625 
Q 24.171875 66.40625 20.328125 58.90625 
Q 16.5 51.421875 16.5 36.375 
Q 16.5 21.390625 20.328125 13.890625 
Q 24.171875 6.390625 31.78125 6.390625 
Q 39.453125 6.390625 43.28125 13.890625 
Q 47.125 21.390625 47.125 36.375 
Q 47.125 51.421875 43.28125 58.90625 
Q 39.453125 66.40625 31.78125 66.40625 
z
M 31.78125 74.21875 
Q 44.046875 74.21875 50.515625 64.515625 
Q 56.984375 54.828125 56.984375 36.375 
Q 56.984375 17.96875 50.515625 8.265625 
Q 44.046875 -1.421875 31.78125 -1.421875 
Q 19.53125 -1.421875 13.0625 8.265625 
Q 6.59375 17.96875 6.59375 36.375 
Q 6.59375 54.828125 13.0625 64.515625 
Q 19.53125 74.21875 31.78125 74.21875 
z
" id="DejaVuSans-48"/>
      </defs>
      <g transform="translate(230.759992 327.501344)scale(0.17 -0.17)">
       <use xlink:href="#DejaVuSans-48"/>
      </g>
     </g>
    </g>
    <g id="xtick_4">
     <g id="line2d_4">
      <g>
       <use style="stroke:#000000;stroke-width:0.8;" x="301.102273" xlink:href="#m1add4087ad" y="307.584"/>
      </g>
     </g>
     <g id="text_4">
      <!-- 1 -->
      <g transform="translate(295.694148 327.501344)scale(0.17 -0.17)">
       <use xlink:href="#DejaVuSans-49"/>
      </g>
     </g>
    </g>
    <g id="xtick_5">
     <g id="line2d_5">
      <g>
       <use style="stroke:#000000;stroke-width:0.8;" x="366.036428" xlink:href="#m1add4087ad" y="307.584"/>
      </g>
     </g>
     <g id="text_5">
      <!-- 2 -->
      <g transform="translate(360.628303 327.501344)scale(0.17 -0.17)">
       <use xlink:href="#DejaVuSans-50"/>
      </g>
     </g>
    </g>
    <g id="text_6">
     <!-- Position in Radian -->
     <defs>
      <path d="M 19.671875 64.796875 
L 19.671875 37.40625 
L 32.078125 37.40625 
Q 38.96875 37.40625 42.71875 40.96875 
Q 46.484375 44.53125 46.484375 51.125 
Q 46.484375 57.671875 42.71875 61.234375 
Q 38.96875 64.796875 32.078125 64.796875 
z
M 9.8125 72.90625 
L 32.078125 72.90625 
Q 44.34375 72.90625 50.609375 67.359375 
Q 56.890625 61.8125 56.890625 51.125 
Q 56.890625 40.328125 50.609375 34.8125 
Q 44.34375 29.296875 32.078125 29.296875 
L 19.671875 29.296875 
L 19.671875 0 
L 9.8125 0 
z
" id="DejaVuSans-80"/>
      <path d="M 30.609375 48.390625 
Q 23.390625 48.390625 19.1875 42.75 
Q 14.984375 37.109375 14.984375 27.296875 
Q 14.984375 17.484375 19.15625 11.84375 
Q 23.34375 6.203125 30.609375 6.203125 
Q 37.796875 6.203125 41.984375 11.859375 
Q 46.1875 17.53125 46.1875 27.296875 
Q 46.1875 37.015625 41.984375 42.703125 
Q 37.796875 48.390625 30.609375 48.390625 
z
M 30.609375 56 
Q 42.328125 56 49.015625 48.375 
Q 55.71875 40.765625 55.71875 27.296875 
Q 55.71875 13.875 49.015625 6.21875 
Q 42.328125 -1.421875 30.609375 -1.421875 
Q 18.84375 -1.421875 12.171875 6.21875 
Q 5.515625 13.875 5.515625 27.296875 
Q 5.515625 40.765625 12.171875 48.375 
Q 18.84375 56 30.609375 56 
z
" id="DejaVuSans-111"/>
      <path d="M 44.28125 53.078125 
L 44.28125 44.578125 
Q 40.484375 46.53125 36.375 47.5 
Q 32.28125 48.484375 27.875 48.484375 
Q 21.1875 48.484375 17.84375 46.4375 
Q 14.5 44.390625 14.5 40.28125 
Q 14.5 37.15625 16.890625 35.375 
Q 19.28125 33.59375 26.515625 31.984375 
L 29.59375 31.296875 
Q 39.15625 29.25 43.1875 25.515625 
Q 47.21875 21.78125 47.21875 15.09375 
Q 47.21875 7.46875 41.1875 3.015625 
Q 35.15625 -1.421875 24.609375 -1.421875 
Q 20.21875 -1.421875 15.453125 -0.5625 
Q 10.6875 0.296875 5.421875 2 
L 5.421875 11.28125 
Q 10.40625 8.6875 15.234375 7.390625 
Q 20.0625 6.109375 24.8125 6.109375 
Q 31.15625 6.109375 34.5625 8.28125 
Q 37.984375 10.453125 37.984375 14.40625 
Q 37.984375 18.0625 35.515625 20.015625 
Q 33.0625 21.96875 24.703125 23.78125 
L 21.578125 24.515625 
Q 13.234375 26.265625 9.515625 29.90625 
Q 5.8125 33.546875 5.8125 39.890625 
Q 5.8125 47.609375 11.28125 51.796875 
Q 16.75 56 26.8125 56 
Q 31.78125 56 36.171875 55.265625 
Q 40.578125 54.546875 44.28125 53.078125 
z
" id="DejaVuSans-115"/>
      <path d="M 9.421875 54.6875 
L 18.40625 54.6875 
L 18.40625 0 
L 9.421875 0 
z
M 9.421875 75.984375 
L 18.40625 75.984375 
L 18.40625 64.59375 
L 9.421875 64.59375 
z
" id="DejaVuSans-105"/>
      <path d="M 18.3125 70.21875 
L 18.3125 54.6875 
L 36.8125 54.6875 
L 36.8125 47.703125 
L 18.3125 47.703125 
L 18.3125 18.015625 
Q 18.3125 11.328125 20.140625 9.421875 
Q 21.96875 7.515625 27.59375 7.515625 
L 36.8125 7.515625 
L 36.8125 0 
L 27.59375 0 
Q 17.1875 0 13.234375 3.875 
Q 9.28125 7.765625 9.28125 18.015625 
L 9.28125 47.703125 
L 2.6875 47.703125 
L 2.6875 54.6875 
L 9.28125 54.6875 
L 9.28125 70.21875 
z
" id="DejaVuSans-116"/>
      <path d="M 54.890625 33.015625 
L 54.890625 0 
L 45.90625 0 
L 45.90625 32.71875 
Q 45.90625 40.484375 42.875 44.328125 
Q 39.84375 48.1875 33.796875 48.1875 
Q 26.515625 48.1875 22.3125 43.546875 
Q 18.109375 38.921875 18.109375 30.90625 
L 18.109375 0 
L 9.078125 0 
L 9.078125 54.6875 
L 18.109375 54.6875 
L 18.109375 46.1875 
Q 21.34375 51.125 25.703125 53.5625 
Q 30.078125 56 35.796875 56 
Q 45.21875 56 50.046875 50.171875 
Q 54.890625 44.34375 54.890625 33.015625 
z
" id="DejaVuSans-110"/>
      <path id="DejaVuSans-32"/>
      <path d="M 44.390625 34.1875 
Q 47.5625 33.109375 50.5625 29.59375 
Q 53.5625 26.078125 56.59375 19.921875 
L 66.609375 0 
L 56 0 
L 46.6875 18.703125 
Q 43.0625 26.03125 39.671875 28.421875 
Q 36.28125 30.8125 30.421875 30.8125 
L 19.671875 30.8125 
L 19.671875 0 
L 9.8125 0 
L 9.8125 72.90625 
L 32.078125 72.90625 
Q 44.578125 72.90625 50.734375 67.671875 
Q 56.890625 62.453125 56.890625 51.90625 
Q 56.890625 45.015625 53.6875 40.46875 
Q 50.484375 35.9375 44.390625 34.1875 
z
M 19.671875 64.796875 
L 19.671875 38.921875 
L 32.078125 38.921875 
Q 39.203125 38.921875 42.84375 42.21875 
Q 46.484375 45.515625 46.484375 51.90625 
Q 46.484375 58.296875 42.84375 61.546875 
Q 39.203125 64.796875 32.078125 64.796875 
z
" id="DejaVuSans-82"/>
      <path d="M 34.28125 27.484375 
Q 23.390625 27.484375 19.1875 25 
Q 14.984375 22.515625 14.984375 16.5 
Q 14.984375 11.71875 18.140625 8.90625 
Q 21.296875 6.109375 26.703125 6.109375 
Q 34.1875 6.109375 38.703125 11.40625 
Q 43.21875 16.703125 43.21875 25.484375 
L 43.21875 27.484375 
z
M 52.203125 31.203125 
L 52.203125 0 
L 43.21875 0 
L 43.21875 8.296875 
Q 40.140625 3.328125 35.546875 0.953125 
Q 30.953125 -1.421875 24.3125 -1.421875 
Q 15.921875 -1.421875 10.953125 3.296875 
Q 6 8.015625 6 15.921875 
Q 6 25.140625 12.171875 29.828125 
Q 18.359375 34.515625 30.609375 34.515625 
L 43.21875 34.515625 
L 43.21875 35.40625 
Q 43.21875 41.609375 39.140625 45 
Q 35.0625 48.390625 27.6875 48.390625 
Q 23 48.390625 18.546875 47.265625 
Q 14.109375 46.140625 10.015625 43.890625 
L 10.015625 52.203125 
Q 14.9375 54.109375 19.578125 55.046875 
Q 24.21875 56 28.609375 56 
Q 40.484375 56 46.34375 49.84375 
Q 52.203125 43.703125 52.203125 31.203125 
z
" id="DejaVuSans-97"/>
      <path d="M 45.40625 46.390625 
L 45.40625 75.984375 
L 54.390625 75.984375 
L 54.390625 0 
L 45.40625 0 
L 45.40625 8.203125 
Q 42.578125 3.328125 38.25 0.953125 
Q 33.9375 -1.421875 27.875 -1.421875 
Q 17.96875 -1.421875 11.734375 6.484375 
Q 5.515625 14.40625 5.515625 27.296875 
Q 5.515625 40.1875 11.734375 48.09375 
Q 17.96875 56 27.875 56 
Q 33.9375 56 38.25 53.625 
Q 42.578125 51.265625 45.40625 46.390625 
z
M 14.796875 27.296875 
Q 14.796875 17.390625 18.875 11.75 
Q 22.953125 6.109375 30.078125 6.109375 
Q 37.203125 6.109375 41.296875 11.75 
Q 45.40625 17.390625 45.40625 27.296875 
Q 45.40625 37.203125 41.296875 42.84375 
Q 37.203125 48.484375 30.078125 48.484375 
Q 22.953125 48.484375 18.875 42.84375 
Q 14.796875 37.203125 14.796875 27.296875 
z
" id="DejaVuSans-100"/>
     </defs>
     <g transform="translate(102.024844 357.832125)scale(0.3 -0.3)">
      <use xlink:href="#DejaVuSans-80"/>
      <use x="60.255859" xlink:href="#DejaVuSans-111"/>
      <use x="121.4375" xlink:href="#DejaVuSans-115"/>
      <use x="173.537109" xlink:href="#DejaVuSans-105"/>
      <use x="201.320312" xlink:href="#DejaVuSans-116"/>
      <use x="240.529297" xlink:href="#DejaVuSans-105"/>
      <use x="268.3125" xlink:href="#DejaVuSans-111"/>
      <use x="329.494141" xlink:href="#DejaVuSans-110"/>
      <use x="392.873047" xlink:href="#DejaVuSans-32"/>
      <use x="424.660156" xlink:href="#DejaVuSans-105"/>
      <use x="452.443359" xlink:href="#DejaVuSans-110"/>
      <use x="515.822266" xlink:href="#DejaVuSans-32"/>
      <use x="547.609375" xlink:href="#DejaVuSans-82"/>
      <use x="617.060547" xlink:href="#DejaVuSans-97"/>
      <use x="678.339844" xlink:href="#DejaVuSans-100"/>
      <use x="741.816406" xlink:href="#DejaVuSans-105"/>
      <use x="769.599609" xlink:href="#DejaVuSans-97"/>
      <use x="830.878906" xlink:href="#DejaVuSans-110"/>
     </g>
    </g>
   </g>
   <g id="matplotlib.axis_2">
    <g id="ytick_1">
     <g id="line2d_6">
      <defs>
       <path d="M 0 0 
L -3.5 0 
" id="m865d094a64" style="stroke:#000000;stroke-width:0.8;"/>
      </defs>
      <g>
       <use style="stroke:#000000;stroke-width:0.8;" x="57.6" xlink:href="#m865d094a64" y="307.584"/>
      </g>
     </g>
     <g id="text_7">
      <!-- 0.00 -->
      <defs>
       <path d="M 10.6875 12.40625 
L 21 12.40625 
L 21 0 
L 10.6875 0 
z
" id="DejaVuSans-46"/>
      </defs>
      <g transform="translate(12.748438 314.042672)scale(0.17 -0.17)">
       <use xlink:href="#DejaVuSans-48"/>
       <use x="63.623047" xlink:href="#DejaVuSans-46"/>
       <use x="95.410156" xlink:href="#DejaVuSans-48"/>
       <use x="159.033203" xlink:href="#DejaVuSans-48"/>
      </g>
     </g>
    </g>
    <g id="ytick_2">
     <g id="line2d_7">
      <g>
       <use style="stroke:#000000;stroke-width:0.8;" x="57.6" xlink:href="#m865d094a64" y="260.881822"/>
      </g>
     </g>
     <g id="text_8">
      <!-- 0.25 -->
      <defs>
       <path d="M 10.796875 72.90625 
L 49.515625 72.90625 
L 49.515625 64.59375 
L 19.828125 64.59375 
L 19.828125 46.734375 
Q 21.96875 47.46875 24.109375 47.828125 
Q 26.265625 48.1875 28.421875 48.1875 
Q 40.625 48.1875 47.75 41.5 
Q 54.890625 34.8125 54.890625 23.390625 
Q 54.890625 11.625 47.5625 5.09375 
Q 40.234375 -1.421875 26.90625 -1.421875 
Q 22.3125 -1.421875 17.546875 -0.640625 
Q 12.796875 0.140625 7.71875 1.703125 
L 7.71875 11.625 
Q 12.109375 9.234375 16.796875 8.0625 
Q 21.484375 6.890625 26.703125 6.890625 
Q 35.15625 6.890625 40.078125 11.328125 
Q 45.015625 15.765625 45.015625 23.390625 
Q 45.015625 31 40.078125 35.4375 
Q 35.15625 39.890625 26.703125 39.890625 
Q 22.75 39.890625 18.8125 39.015625 
Q 14.890625 38.140625 10.796875 36.28125 
z
" id="DejaVuSans-53"/>
      </defs>
      <g transform="translate(12.748438 267.340493)scale(0.17 -0.17)">
       <use xlink:href="#DejaVuSans-48"/>
       <use x="63.623047" xlink:href="#DejaVuSans-46"/>
       <use x="95.410156" xlink:href="#DejaVuSans-50"/>
       <use x="159.033203" xlink:href="#DejaVuSans-53"/>
      </g>
     </g>
    </g>
    <g id="ytick_3">
     <g id="line2d_8">
      <g>
       <use style="stroke:#000000;stroke-width:0.8;" x="57.6" xlink:href="#m865d094a64" y="214.179643"/>
      </g>
     </g>
     <g id="text_9">
      <!-- 0.50 -->
      <g transform="translate(12.748438 220.638315)scale(0.17 -0.17)">
       <use xlink:href="#DejaVuSans-48"/>
       <use x="63.623047" xlink:href="#DejaVuSans-46"/>
       <use x="95.410156" xlink:href="#DejaVuSans-53"/>
       <use x="159.033203" xlink:href="#DejaVuSans-48"/>
      </g>
     </g>
    </g>
    <g id="ytick_4">
     <g id="line2d_9">
      <g>
       <use style="stroke:#000000;stroke-width:0.8;" x="57.6" xlink:href="#m865d094a64" y="167.477465"/>
      </g>
     </g>
     <g id="text_10">
      <!-- 0.75 -->
      <defs>
       <path d="M 8.203125 72.90625 
L 55.078125 72.90625 
L 55.078125 68.703125 
L 28.609375 0 
L 18.3125 0 
L 43.21875 64.59375 
L 8.203125 64.59375 
z
" id="DejaVuSans-55"/>
      </defs>
      <g transform="translate(12.748438 173.936137)scale(0.17 -0.17)">
       <use xlink:href="#DejaVuSans-48"/>
       <use x="63.623047" xlink:href="#DejaVuSans-46"/>
       <use x="95.410156" xlink:href="#DejaVuSans-55"/>
       <use x="159.033203" xlink:href="#DejaVuSans-53"/>
      </g>
     </g>
    </g>
    <g id="ytick_5">
     <g id="line2d_10">
      <g>
       <use style="stroke:#000000;stroke-width:0.8;" x="57.6" xlink:href="#m865d094a64" y="120.775286"/>
      </g>
     </g>
     <g id="text_11">
      <!-- 1.00 -->
      <g transform="translate(12.748438 127.233958)scale(0.17 -0.17)">
       <use xlink:href="#DejaVuSans-49"/>
       <use x="63.623047" xlink:href="#DejaVuSans-46"/>
       <use x="95.410156" xlink:href="#DejaVuSans-48"/>
       <use x="159.033203" xlink:href="#DejaVuSans-48"/>
      </g>
     </g>
    </g>
    <g id="ytick_6">
     <g id="line2d_11">
      <g>
       <use style="stroke:#000000;stroke-width:0.8;" x="57.6" xlink:href="#m865d094a64" y="74.073108"/>
      </g>
     </g>
     <g id="text_12">
      <!-- 1.25 -->
      <g transform="translate(12.748438 80.53178)scale(0.17 -0.17)">
       <use xlink:href="#DejaVuSans-49"/>
       <use x="63.623047" xlink:href="#DejaVuSans-46"/>
       <use x="95.410156" xlink:href="#DejaVuSans-50"/>
       <use x="159.033203" xlink:href="#DejaVuSans-53"/>
      </g>
     </g>
    </g>
    <g id="text_13">
     <!-- Density -->
     <defs>
      <path d="M 19.671875 64.796875 
L 19.671875 8.109375 
L 31.59375 8.109375 
Q 46.6875 8.109375 53.6875 14.9375 
Q 60.6875 21.78125 60.6875 36.53125 
Q 60.6875 51.171875 53.6875 57.984375 
Q 46.6875 64.796875 31.59375 64.796875 
z
M 9.8125 72.90625 
L 30.078125 72.90625 
Q 51.265625 72.90625 61.171875 64.09375 
Q 71.09375 55.28125 71.09375 36.53125 
Q 71.09375 17.671875 61.125 8.828125 
Q 51.171875 0 30.078125 0 
L 9.8125 0 
z
" id="DejaVuSans-68"/>
      <path d="M 56.203125 29.59375 
L 56.203125 25.203125 
L 14.890625 25.203125 
Q 15.484375 15.921875 20.484375 11.0625 
Q 25.484375 6.203125 34.421875 6.203125 
Q 39.59375 6.203125 44.453125 7.46875 
Q 49.3125 8.734375 54.109375 11.28125 
L 54.109375 2.78125 
Q 49.265625 0.734375 44.1875 -0.34375 
Q 39.109375 -1.421875 33.890625 -1.421875 
Q 20.796875 -1.421875 13.15625 6.1875 
Q 5.515625 13.8125 5.515625 26.8125 
Q 5.515625 40.234375 12.765625 48.109375 
Q 20.015625 56 32.328125 56 
Q 43.359375 56 49.78125 48.890625 
Q 56.203125 41.796875 56.203125 29.59375 
z
M 47.21875 32.234375 
Q 47.125 39.59375 43.09375 43.984375 
Q 39.0625 48.390625 32.421875 48.390625 
Q 24.90625 48.390625 20.390625 44.140625 
Q 15.875 39.890625 15.1875 32.171875 
z
" id="DejaVuSans-101"/>
      <path d="M 32.171875 -5.078125 
Q 28.375 -14.84375 24.75 -17.8125 
Q 21.140625 -20.796875 15.09375 -20.796875 
L 7.90625 -20.796875 
L 7.90625 -13.28125 
L 13.1875 -13.28125 
Q 16.890625 -13.28125 18.9375 -11.515625 
Q 21 -9.765625 23.484375 -3.21875 
L 25.09375 0.875 
L 2.984375 54.6875 
L 12.5 54.6875 
L 29.59375 11.921875 
L 46.6875 54.6875 
L 56.203125 54.6875 
z
" id="DejaVuSans-121"/>
     </defs>
     <g transform="translate(2.509375 231.553781)rotate(-90)scale(0.3 -0.3)">
      <use xlink:href="#DejaVuSans-68"/>
      <use x="77.001953" xlink:href="#DejaVuSans-101"/>
      <use x="138.525391" xlink:href="#DejaVuSans-110"/>
      <use x="201.904297" xlink:href="#DejaVuSans-115"/>
      <use x="254.003906" xlink:href="#DejaVuSans-105"/>
      <use x="281.787109" xlink:href="#DejaVuSans-116"/>
      <use x="320.996094" xlink:href="#DejaVuSans-121"/>
     </g>
    </g>
   </g>
   <g id="line2d_12">
    <path clip-path="url(#p6d561948c6)" d="M 73.832727 307.584 
L 98.556407 307.474366 
L 98.913545 307.194221 
L 99.238216 306.624434 
L 99.725222 305.207229 
L 100.179761 304.128652 
L 100.390797 304.053123 
L 100.585599 304.273097 
L 100.91027 305.091397 
L 101.592079 306.8187 
L 101.884283 307.038862 
L 102.111552 306.952964 
L 102.387522 306.570206 
L 102.793361 305.563743 
L 103.816074 302.869737 
L 104.124511 302.641355 
L 104.368014 302.724479 
L 104.692685 303.117363 
L 105.682931 304.470636 
L 105.958901 304.475711 
L 106.218637 304.244967 
L 106.543308 303.615147 
L 107.663422 301.084653 
L 107.858225 301.198987 
L 108.117962 301.681837 
L 109.221842 304.135047 
L 109.546513 304.200963 
L 110.033519 304.046566 
L 110.374423 303.721241 
L 110.764028 302.975059 
L 111.251035 302.138311 
L 111.445837 302.151561 
L 111.656873 302.455125 
L 112.176346 303.799672 
L 112.533484 304.375036 
L 112.793221 304.445358 
L 113.117892 304.27136 
L 113.7997 303.60515 
L 114.173072 302.929052 
L 114.627611 301.539094 
L 115.179551 300.009102 
L 115.439288 299.828854 
L 115.715258 299.946714 
L 116.039929 300.033287 
L 116.234731 299.849805 
L 116.494468 299.246723 
L 116.981474 297.394119 
L 118.085354 293.270987 
L 118.442492 292.592846 
L 118.653528 292.54789 
L 118.848331 292.770735 
L 119.124301 293.507142 
L 119.595074 295.574775 
L 120.147014 297.690192 
L 120.406751 298.012292 
L 120.601553 297.963026 
L 120.877523 297.604561 
L 121.867769 296.091521 
L 122.046338 296.251937 
L 122.306075 296.86796 
L 123.02035 298.72762 
L 123.198919 298.72582 
L 123.409955 298.441579 
L 123.815794 297.397891 
L 124.286566 296.399999 
L 124.481369 296.35985 
L 124.659938 296.576818 
L 124.968375 297.403482 
L 125.504082 298.776278 
L 125.698884 298.822429 
L 125.893687 298.568014 
L 126.250825 297.596537 
L 126.721597 296.48941 
L 126.948867 296.405811 
L 127.143669 296.607516 
L 127.452106 297.328531 
L 128.263783 299.349599 
L 128.426119 299.334134 
L 128.604688 299.027456 
L 128.864424 298.028752 
L 129.367664 294.923016 
L 129.887137 292.265807 
L 130.195575 291.638277 
L 130.406611 291.610555 
L 130.650114 291.869005 
L 131.18582 292.479716 
L 131.348156 292.357254 
L 131.559192 291.856881 
L 131.96503 290.133705 
L 132.387102 288.691766 
L 132.614372 288.52075 
L 132.825408 288.679323 
L 133.29618 289.082561 
L 133.474749 288.952727 
L 133.718252 288.441605 
L 134.107857 286.993271 
L 135.536409 281.12652 
L 135.763678 280.983577 
L 135.926014 281.159735 
L 136.13705 281.791498 
L 136.461721 283.587299 
L 137.143529 287.419974 
L 137.354565 287.657582 
L 137.500667 287.518135 
L 137.776637 286.839124 
L 138.231176 285.835724 
L 138.425979 285.82163 
L 138.620781 286.10942 
L 138.945452 287.098631 
L 139.789596 289.79033 
L 140.016866 289.953784 
L 140.179201 289.801403 
L 140.390237 289.190522 
L 140.698674 287.435858 
L 141.445417 282.922562 
L 141.591519 282.835663 
L 141.607752 282.846673 
L 141.770088 283.145513 
L 142.451896 284.803618 
L 142.46813 284.796669 
L 142.630465 284.583348 
L 143.24734 283.440795 
L 143.279807 283.461609 
L 143.442142 283.762162 
L 143.718112 284.908319 
L 144.334987 287.531938 
L 144.529789 287.643028 
L 144.692125 287.439009 
L 145.049263 286.489181 
L 145.455101 285.653511 
L 145.714838 285.545947 
L 146.18561 285.469236 
L 146.396646 285.072617 
L 146.672617 284.002855 
L 147.19209 280.840103 
L 147.662862 278.589902 
L 147.890132 278.288091 
L 148.036234 278.391103 
L 148.263503 278.907012 
L 148.945312 280.61016 
L 149.091414 280.566828 
L 149.269983 280.195252 
L 149.513486 279.083793 
L 149.870624 276.26202 
L 150.812169 268.236692 
L 150.958271 268.060202 
L 150.990738 268.081634 
L 151.120606 268.378948 
L 151.347876 269.591323 
L 152.727727 278.404328 
L 153.068631 279.329853 
L 153.2472 279.380921 
L 153.425769 279.149329 
L 154.058877 278.150647 
L 154.221212 278.324989 
L 154.480949 279.034042 
L 154.984188 281.241781 
L 155.714698 284.305232 
L 155.925734 284.497217 
L 156.071836 284.316745 
L 156.299105 283.546992 
L 156.737411 281.020704 
L 158.506866 270.346702 
L 158.636735 270.306641 
L 158.652968 270.320902 
L 158.79907 270.642601 
L 159.042573 271.885247 
L 160.211388 279.030884 
L 160.373723 279.027783 
L 160.568526 278.718676 
L 161.834742 275.65079 
L 162.224347 273.103169 
L 162.727587 270.206699 
L 163.003557 269.670911 
L 163.279527 269.582339 
L 163.928868 269.657157 
L 164.172372 270.021032 
L 164.529509 271.055855 
L 165.584689 274.286433 
L 166.039229 275.124684 
L 166.266498 275.172494 
L 166.526235 274.931901 
L 166.818438 274.750797 
L 166.96454 274.940404 
L 167.159343 275.663437 
L 167.46778 277.873353 
L 168.01972 281.777837 
L 168.133355 281.921822 
L 168.165822 281.899441 
L 168.279457 281.588116 
L 168.474259 280.218491 
L 168.79893 276.027494 
L 169.610607 265.073152 
L 169.870344 264.017328 
L 169.983978 264.006757 
L 170.000212 264.025239 
L 170.162547 264.449127 
L 170.454751 266.014551 
L 171.834602 274.35923 
L 172.143039 274.911203 
L 172.337842 274.912142 
L 172.548878 274.632473 
L 172.841081 273.799969 
L 173.279387 271.752372 
L 173.831327 269.379905 
L 174.02613 269.216195 
L 174.172232 269.418553 
L 174.399501 270.222154 
L 175.373513 274.236636 
L 175.535849 274.223486 
L 175.730651 273.895191 
L 176.071556 272.74529 
L 177.694909 265.793761 
L 178.636455 260.280561 
L 178.75009 260.289576 
L 178.766323 260.310574 
L 178.912425 260.713404 
L 179.188395 262.319958 
L 179.80527 265.956908 
L 179.951371 266.083912 
L 179.967605 266.074578 
L 180.097473 265.839363 
L 180.324743 264.856093 
L 181.298755 258.82079 
L 181.639659 255.321217 
L 182.516271 245.282729 
L 182.581205 245.249295 
L 182.613672 245.288105 
L 182.74354 245.796026 
L 182.987043 247.987994 
L 183.847421 256.631088 
L 184.123391 257.372355 
L 184.35066 257.460963 
L 184.724032 257.265108 
L 185.324673 256.802565 
L 185.584409 256.150616 
L 185.941547 254.485583 
L 186.525955 251.837565 
L 186.753224 251.59262 
L 186.91556 251.703199 
L 187.19153 252.248475 
L 187.646069 253.694086 
L 188.587614 256.890379 
L 188.717482 256.762291 
L 188.896051 256.173104 
L 189.172022 254.370873 
L 189.659028 249.408217 
L 191.266148 231.967015 
L 191.558352 231.24483 
L 192.175226 230.642084 
L 192.46743 230.460179 
L 192.613532 230.623298 
L 192.808334 231.277697 
L 193.100538 233.242025 
L 194.123251 240.957293 
L 194.934928 244.204185 
L 195.064796 244.294194 
L 195.097263 244.266299 
L 195.227132 243.907917 
L 195.421934 242.500437 
L 195.697904 238.555933 
L 196.834252 219.655493 
L 196.931653 219.548579 
L 196.980354 219.594117 
L 197.126456 220.063797 
L 197.418659 222.02805 
L 198.701109 231.734288 
L 198.960845 232.131619 
L 199.155648 232.098009 
L 199.496552 231.732342 
L 200.08096 231.1607 
L 200.308229 231.216021 
L 200.551732 231.554344 
L 201.022505 232.211705 
L 201.152373 232.018103 
L 201.330942 231.224367 
L 201.590679 228.830585 
L 202.662092 217.108001 
L 202.775727 217.13983 
L 202.938063 217.581327 
L 203.668572 219.972209 
L 203.863374 219.940315 
L 204.399081 219.691139 
L 204.642584 219.955678 
L 205.145824 220.525172 
L 205.35686 220.419572 
L 205.973734 219.915131 
L 206.152303 220.156741 
L 206.395806 220.923571 
L 206.736711 222.854909 
L 207.645789 228.546336 
L 207.759424 228.504206 
L 207.921759 228.067352 
L 208.619801 225.58463 
L 208.652268 225.601599 
L 208.782137 225.851558 
L 208.993173 226.843898 
L 209.382778 230.026374 
L 210.048353 235.256315 
L 210.308089 235.89953 
L 210.454191 235.882044 
L 210.681461 235.523082 
L 211.136 234.829727 
L 211.314569 234.885023 
L 211.525605 235.246263 
L 211.882743 236.400377 
L 212.418449 238.024726 
L 212.597018 238.086505 
L 212.759354 237.831488 
L 213.01909 236.885095 
L 213.619731 234.597272 
L 213.765833 234.603007 
L 213.928168 234.992445 
L 214.204139 236.441319 
L 215.032049 241.209175 
L 215.243085 241.415994 
L 215.372953 241.256671 
L 215.567756 240.591425 
L 215.843726 238.7332 
L 216.217097 234.479665 
L 217.272277 221.162471 
L 217.46708 220.803673 
L 217.596948 220.921484 
L 218.083954 221.632559 
L 218.116421 221.6077 
L 218.278757 221.275416 
L 218.570961 219.990551 
L 219.236536 217.049173 
L 220.454051 213.254471 
L 220.85989 210.119828 
L 221.41183 206.109328 
L 221.541698 205.929047 
L 221.574165 205.953689 
L 221.6878 206.272803 
L 221.882602 207.667295 
L 222.207273 211.99395 
L 222.97025 222.508963 
L 223.181286 223.172326 
L 223.278687 223.095654 
L 223.457256 222.512438 
L 224.009196 220.557566 
L 224.139064 220.615487 
L 224.333867 221.070291 
L 224.80464 222.214156 
L 224.918274 222.142057 
L 225.08061 221.679656 
L 225.340346 220.070263 
L 225.746185 215.872141 
L 226.801365 204.377821 
L 227.450706 200.353922 
L 227.677976 199.883846 
L 227.775377 200.018778 
L 227.937713 200.795208 
L 228.197449 203.460106 
L 229.057827 213.425569 
L 229.171461 213.528076 
L 229.203929 213.495006 
L 229.35003 213.06367 
L 230.324043 209.261249 
L 230.518845 208.572618 
L 230.729881 206.857733 
L 231.022085 202.250649 
L 231.849995 187.658679 
L 231.947397 187.47175 
L 231.996097 187.538503 
L 232.125966 188.167837 
L 232.46687 191.426956 
L 232.759074 193.190126 
L 232.824008 193.20149 
L 232.856475 193.147537 
L 232.986343 192.543207 
L 233.229846 190.053074 
L 233.781787 184.310303 
L 233.895421 184.130792 
L 233.927888 184.163384 
L 234.057757 184.631803 
L 234.512296 187.406646 
L 234.593463 187.183817 
L 234.723332 185.598694 
L 234.901901 179.95123 
L 235.145404 163.697532 
L 235.502542 122.022308 
L 236.070716 58.166583 
L 236.233051 54.144 
L 236.249284 54.227433 
L 236.330452 55.951343 
L 236.492788 65.434371 
L 236.833692 102.666608 
L 237.434333 164.381648 
L 237.775237 179.537694 
L 238.067441 184.193 
L 238.278477 184.936191 
L 238.375878 184.824131 
L 238.554447 184.080755 
L 238.846651 181.703379 
L 239.317423 175.686268 
L 240.064166 166.224212 
L 240.275202 165.585258 
L 240.372603 165.781361 
L 240.534939 166.794072 
L 240.810909 170.181258 
L 241.41155 181.095653 
L 242.223227 194.763856 
L 242.580365 197.467697 
L 243.197239 200.804956 
L 243.554377 205.27796 
L 244.317353 215.129112 
L 244.57709 216.140663 
L 244.674491 216.135554 
L 244.690725 216.115405 
L 244.836827 215.702586 
L 245.096563 214.098934 
L 245.713438 208.308925 
L 246.492648 202.100139 
L 246.979654 199.377236 
L 247.125756 199.202175 
L 247.141989 199.212032 
L 247.255624 199.464749 
L 247.434193 200.548897 
L 247.726397 203.997784 
L 248.586774 215.129549 
L 248.781577 215.595292 
L 248.79781 215.591549 
L 248.911445 215.40501 
L 249.122481 214.481676 
L 249.804289 211.212379 
L 250.015325 211.078101 
L 250.242595 211.265638 
L 250.551032 211.438881 
L 250.713368 211.253072 
L 250.940637 210.54924 
L 251.378943 208.203318 
L 251.752314 206.716339 
L 251.898416 206.647071 
L 251.91465 206.66192 
L 252.060751 207.003107 
L 252.304254 208.323314 
L 253.067231 212.965496 
L 253.164632 212.912879 
L 253.310734 212.396269 
L 253.554237 210.461203 
L 254.398381 202.736066 
L 254.479549 202.72272 
L 254.512016 202.768515 
L 254.658118 203.308574 
L 254.950321 205.557487 
L 255.469795 209.282532 
L 255.648364 209.535805 
L 255.664597 209.527408 
L 255.794465 209.288109 
L 256.037968 208.206141 
L 256.557442 205.905634 
L 256.671076 205.898509 
L 256.68731 205.919007 
L 256.833412 206.347164 
L 257.093148 208.028397 
L 257.774957 212.660929 
L 258.01846 213.041093 
L 258.684035 213.440505 
L 259.34961 214.505421 
L 259.495712 214.303697 
L 259.722982 213.514853 
L 260.339856 211.169401 
L 260.437257 211.281088 
L 260.599593 211.931777 
L 260.90803 214.38191 
L 261.346336 217.401759 
L 261.45997 217.538667 
L 261.492438 217.517535 
L 261.622306 217.186986 
L 261.91451 215.534451 
L 262.222947 214.259571 
L 262.304114 214.290186 
L 262.320348 214.320534 
L 262.450216 214.871369 
L 262.677486 217.126504 
L 263.164492 225.113168 
L 263.619031 230.796963 
L 263.862534 231.805438 
L 263.959935 231.811192 
L 263.976169 231.792224 
L 264.122271 231.393729 
L 264.398241 229.807036 
L 265.12875 225.401124 
L 265.35602 225.085201 
L 265.485888 225.189394 
L 265.680691 225.710942 
L 265.972894 227.239931 
L 266.394966 230.786807 
L 267.19041 239.908828 
L 267.580015 242.882487 
L 267.74235 243.162758 
L 267.758584 243.15504 
L 267.872218 242.92237 
L 268.067021 241.86273 
L 268.456626 238.175153 
L 269.089734 232.628457 
L 269.34947 231.825414 
L 269.463105 231.864175 
L 269.609207 232.27317 
L 269.868944 233.85719 
L 270.615686 238.795458 
L 270.745555 238.8736 
L 270.761788 238.861669 
L 270.90789 238.554888 
L 271.167627 237.320224 
L 272.060471 232.627654 
L 272.287741 232.344528 
L 272.417609 232.460134 
L 272.596178 232.995297 
L 272.872148 234.700891 
L 273.326687 239.27846 
L 274.235766 248.521089 
L 274.511736 249.476118 
L 274.641604 249.444379 
L 274.803939 249.001262 
L 275.096143 247.384119 
L 275.696784 244.110001 
L 275.875353 243.952547 
L 276.005221 244.162338 
L 276.232491 245.11024 
L 277.498707 251.609953 
L 277.807144 251.944083 
L 278.050647 251.930696 
L 278.277917 251.670901 
L 278.537653 250.994585 
L 278.878558 249.386905 
L 279.641534 245.556546 
L 279.755169 245.546618 
L 279.771402 245.563905 
L 279.917504 245.923067 
L 280.193474 247.390817 
L 280.794115 250.631104 
L 281.037618 250.983751 
L 281.248654 250.941082 
L 281.800595 250.725452 
L 282.092798 250.935189 
L 282.709673 251.436412 
L 282.920709 251.286346 
L 283.29408 250.615321 
L 283.537583 250.4059 
L 283.667452 250.578912 
L 283.846021 251.278341 
L 284.121991 253.448633 
L 284.998602 261.100272 
L 285.160937 261.25197 
L 285.177171 261.241552 
L 285.323273 260.974727 
L 285.63171 259.787218 
L 286.232351 257.634095 
L 286.816758 256.376666 
L 286.995327 256.339244 
L 287.141429 256.605647 
L 287.352465 257.601554 
L 287.677136 260.516609 
L 288.440112 267.703513 
L 288.651148 268.152145 
L 288.764783 268.057666 
L 288.959585 267.46021 
L 290.063466 263.223525 
L 290.469305 263.086895 
L 290.745275 262.820695 
L 291.394616 262.056597 
L 291.556952 262.266486 
L 291.800455 263.026764 
L 293.959515 272.333063 
L 294.933528 278.489366 
L 295.144564 278.75604 
L 295.274432 278.611051 
L 295.469235 277.960596 
L 295.793905 275.918764 
L 296.735451 269.467973 
L 296.946487 269.221351 
L 297.076355 269.38525 
L 297.303624 270.160523 
L 298.131535 273.436728 
L 298.29387 273.431945 
L 298.488673 273.139034 
L 298.975679 271.825378 
L 299.446452 270.878916 
L 299.771122 270.648476 
L 300.063326 270.698792 
L 300.306829 270.980872 
L 300.566566 271.691909 
L 300.875003 273.322578 
L 301.345776 277.314574 
L 301.995117 282.419076 
L 302.271087 283.185167 
L 302.417189 283.1797 
L 302.595758 282.851417 
L 302.952896 281.569919 
L 303.439902 280.066536 
L 303.634705 279.986317 
L 303.79704 280.215669 
L 304.089244 281.141724 
L 304.527549 282.391819 
L 304.689885 282.388608 
L 304.868454 282.023214 
L 305.306759 280.340739 
L 305.598963 279.709474 
L 305.728831 279.75296 
L 305.9074 280.161213 
L 306.199604 281.528378 
L 307.319718 287.35647 
L 307.709323 288.167332 
L 307.96906 288.316322 
L 308.180096 288.190515 
L 308.439832 287.729635 
L 308.845671 286.463993 
L 309.689815 283.777974 
L 309.933318 283.577579 
L 310.111887 283.69577 
L 310.339156 284.177391 
L 310.712528 285.605752 
L 311.556672 288.905997 
L 312.676786 291.665098 
L 312.887822 291.714553 
L 313.082624 291.47451 
L 313.472229 290.500419 
L 313.959235 289.494718 
L 314.30014 289.255155 
L 314.641044 289.278881 
L 315.014415 289.541417 
L 315.501422 290.203756 
L 316.313099 291.34014 
L 316.524135 291.289185 
L 316.767638 290.950291 
L 317.433213 289.898837 
L 317.611782 290.002008 
L 317.887752 290.516934 
L 318.358524 291.35058 
L 318.553327 291.326908 
L 318.813064 290.980852 
L 319.235136 290.47091 
L 319.446172 290.522211 
L 319.900711 290.730553 
L 320.063046 290.463226 
L 320.290316 289.558546 
L 320.761088 286.411107 
L 321.13446 284.641357 
L 321.329262 284.447214 
L 321.475364 284.605752 
L 321.751334 285.343982 
L 323.439622 291.159449 
L 323.926628 292.944456 
L 324.121431 293.080655 
L 324.267533 292.898473 
L 324.511036 292.13109 
L 325.63115 287.996312 
L 326.085689 287.330643 
L 326.507761 287.072923 
L 326.946067 287.05694 
L 327.319438 287.267264 
L 327.676576 287.746634 
L 328.001247 288.574258 
L 328.374618 290.231245 
L 329.770702 297.384374 
L 330.095373 297.782384 
L 330.35511 297.800252 
L 330.663547 297.574635 
L 331.426523 296.939168 
L 331.637559 297.07645 
L 331.913529 297.569206 
L 333.309614 300.587662 
L 333.699219 300.886682 
L 333.958955 300.840023 
L 334.267393 300.51603 
L 334.803099 299.543404 
L 336.361519 296.58997 
L 337.595268 295.486464 
L 337.806304 295.576987 
L 338.066041 295.97421 
L 338.682915 296.991923 
L 338.845251 296.881285 
L 339.056287 296.363372 
L 339.429658 294.680292 
L 339.884197 292.938728 
L 340.062766 292.843702 
L 340.208868 293.091846 
L 340.436137 294.020034 
L 340.890677 297.075804 
L 341.475084 300.557727 
L 341.815988 301.449452 
L 342.108192 301.664087 
L 342.530264 301.638699 
L 342.903635 301.439897 
L 343.195839 300.991923 
L 343.634145 299.806787 
L 344.202318 298.439339 
L 344.526989 298.149687 
L 344.835426 298.159545 
L 345.143864 298.403203 
L 345.533469 299.039094 
L 346.150343 300.023851 
L 346.426313 300.079706 
L 347.205523 299.98557 
L 347.46526 300.403695 
L 347.838631 301.524875 
L 348.699009 304.25279 
L 348.991212 304.530222 
L 349.250949 304.4863 
L 349.559386 304.164683 
L 349.932758 303.407345 
L 350.517165 301.572747 
L 350.939237 300.601172 
L 351.150273 300.525705 
L 351.345076 300.724889 
L 351.68598 301.484904 
L 352.23792 302.612501 
L 352.627525 302.899474 
L 353.065831 303.237176 
L 353.52037 303.964601 
L 354.267113 305.108612 
L 354.62425 305.302563 
L 354.867754 305.198156 
L 355.143724 304.802536 
L 356.215137 302.919615 
L 356.426173 303.076641 
L 356.783311 303.696165 
L 357.46512 304.835867 
L 357.903425 305.169457 
L 358.211863 305.166908 
L 358.5203 304.917954 
L 359.234576 304.240625 
L 359.461845 304.36403 
L 359.770282 304.840421 
L 360.533259 306.095938 
L 360.760528 306.108999 
L 360.987798 305.873888 
L 361.344936 305.107731 
L 361.945577 303.876879 
L 362.205313 303.76025 
L 362.46505 303.894684 
L 364.331907 305.662205 
L 364.818913 306.110139 
L 365.176051 306.140125 
L 367.091608 305.90635 
L 367.724716 306.325688 
L 368.341591 306.582659 
L 369.283136 306.732928 
L 369.948711 306.822001 
L 370.987658 307.168954 
L 371.328562 306.894232 
L 372.172706 306.09276 
L 372.432443 306.21313 
L 372.854515 306.733572 
L 373.455156 307.375907 
L 373.925928 307.546042 
L 374.899941 307.583788 
L 398.487273 307.584 
L 398.487273 307.584 
" style="fill:none;stroke:#ff7f0e;stroke-linecap:square;stroke-width:1.5;"/>
   </g>
   <g id="patch_103">
    <path d="M 57.6 307.584 
L 57.6 41.472 
" style="fill:none;stroke:#000000;stroke-linecap:square;stroke-linejoin:miter;stroke-width:0.8;"/>
   </g>
   <g id="patch_104">
    <path d="M 414.72 307.584 
L 414.72 41.472 
" style="fill:none;stroke:#000000;stroke-linecap:square;stroke-linejoin:miter;stroke-width:0.8;"/>
   </g>
   <g id="patch_105">
    <path d="M 57.6 307.584 
L 414.72 307.584 
" style="fill:none;stroke:#000000;stroke-linecap:square;stroke-linejoin:miter;stroke-width:0.8;"/>
   </g>
   <g id="patch_106">
    <path d="M 57.6 41.472 
L 414.72 41.472 
" style="fill:none;stroke:#000000;stroke-linecap:square;stroke-linejoin:miter;stroke-width:0.8;"/>
   </g>
  </g>
 </g>
 <defs>
  <clipPath id="p6d561948c6">
   <rect height="266.112" width="357.12" x="57.6" y="41.472"/>
  </clipPath>
 </defs>
</svg>
