<?xml version="1.0" encoding="utf-8" standalone="no"?>
<!DOCTYPE svg PUBLIC "-//W3C//DTD SVG 1.1//EN"
  "http://www.w3.org/Graphics/SVG/1.1/DTD/svg11.dtd">
<!-- Created with matplotlib (https://matplotlib.org/) -->
<svg height="345.6pt" version="1.1" viewBox="0 0 460.8 345.6" width="460.8pt" xmlns="http://www.w3.org/2000/svg" xmlns:xlink="http://www.w3.org/1999/xlink">
 <defs>
  <style type="text/css">
*{stroke-linecap:butt;stroke-linejoin:round;}
  </style>
 </defs>
 <g id="figure_1">
  <g id="patch_1">
   <path d="M 0 345.6 
L 460.8 345.6 
L 460.8 0 
L 0 0 
z
" style="fill:#ffffff;"/>
  </g>
  <g id="axes_1">
   <g id="patch_2">
    <path d="M 57.6 307.584 
L 414.72 307.584 
L 414.72 41.472 
L 57.6 41.472 
z
" style="fill:#ffffff;"/>
   </g>
   <g id="patch_3">
    <path clip-path="url(#pc8efb1b614)" d="M 100.169979 307.584 
L 102.889913 307.584 
L 102.889913 303.21899 
L 100.169979 303.21899 
z
" style="fill:#1f77b4;"/>
   </g>
   <g id="patch_4">
    <path clip-path="url(#pc8efb1b614)" d="M 102.889929 307.584 
L 105.609864 307.584 
L 105.609864 302.855239 
L 102.889929 302.855239 
z
" style="fill:#1f77b4;"/>
   </g>
   <g id="patch_5">
    <path clip-path="url(#pc8efb1b614)" d="M 105.609864 307.584 
L 108.329806 307.584 
L 108.329806 298.126504 
L 105.609864 298.126504 
z
" style="fill:#1f77b4;"/>
   </g>
   <g id="patch_6">
    <path clip-path="url(#pc8efb1b614)" d="M 108.329806 307.584 
L 111.049741 307.584 
L 111.049741 300.308983 
L 108.329806 300.308983 
z
" style="fill:#1f77b4;"/>
   </g>
   <g id="patch_7">
    <path clip-path="url(#pc8efb1b614)" d="M 111.049741 307.584 
L 113.769675 307.584 
L 113.769675 296.671474 
L 111.049741 296.671474 
z
" style="fill:#1f77b4;"/>
   </g>
   <g id="patch_8">
    <path clip-path="url(#pc8efb1b614)" d="M 113.769675 307.584 
L 116.48961 307.584 
L 116.48961 296.671474 
L 113.769675 296.671474 
z
" style="fill:#1f77b4;"/>
   </g>
   <g id="patch_9">
    <path clip-path="url(#pc8efb1b614)" d="M 116.489602 307.584 
L 119.209544 307.584 
L 119.209544 290.124008 
L 116.489602 290.124008 
z
" style="fill:#1f77b4;"/>
   </g>
   <g id="patch_10">
    <path clip-path="url(#pc8efb1b614)" d="M 119.209552 307.584 
L 121.929487 307.584 
L 121.929487 293.761467 
L 119.209552 293.761467 
z
" style="fill:#1f77b4;"/>
   </g>
   <g id="patch_11">
    <path clip-path="url(#pc8efb1b614)" d="M 121.929487 307.584 
L 124.649421 307.584 
L 124.649421 288.305204 
L 121.929487 288.305204 
z
" style="fill:#1f77b4;"/>
   </g>
   <g id="patch_12">
    <path clip-path="url(#pc8efb1b614)" d="M 124.649421 307.584 
L 127.369356 307.584 
L 127.369356 290.85146 
L 124.649421 290.85146 
z
" style="fill:#1f77b4;"/>
   </g>
   <g id="patch_13">
    <path clip-path="url(#pc8efb1b614)" d="M 127.369356 307.584 
L 130.089298 307.584 
L 130.089298 295.216506 
L 127.369356 295.216506 
z
" style="fill:#1f77b4;"/>
   </g>
   <g id="patch_14">
    <path clip-path="url(#pc8efb1b614)" d="M 130.089298 307.584 
L 132.809233 307.584 
L 132.809233 285.758948 
L 130.089298 285.758948 
z
" style="fill:#1f77b4;"/>
   </g>
   <g id="patch_15">
    <path clip-path="url(#pc8efb1b614)" d="M 132.809233 307.584 
L 135.529168 307.584 
L 135.529168 281.757688 
L 132.809233 281.757688 
z
" style="fill:#1f77b4;"/>
   </g>
   <g id="patch_16">
    <path clip-path="url(#pc8efb1b614)" d="M 135.529168 307.584 
L 138.249102 307.584 
L 138.249102 285.031446 
L 135.529168 285.031446 
z
" style="fill:#1f77b4;"/>
   </g>
   <g id="patch_17">
    <path clip-path="url(#pc8efb1b614)" d="M 138.249095 307.584 
L 140.969037 307.584 
L 140.969037 286.12276 
L 138.249095 286.12276 
z
" style="fill:#1f77b4;"/>
   </g>
   <g id="patch_18">
    <path clip-path="url(#pc8efb1b614)" d="M 140.969045 307.584 
L 143.688979 307.584 
L 143.688979 282.48519 
L 140.969045 282.48519 
z
" style="fill:#1f77b4;"/>
   </g>
   <g id="patch_19">
    <path clip-path="url(#pc8efb1b614)" d="M 143.688979 307.584 
L 146.408914 307.584 
L 146.408914 286.48645 
L 143.688979 286.48645 
z
" style="fill:#1f77b4;"/>
   </g>
   <g id="patch_20">
    <path clip-path="url(#pc8efb1b614)" d="M 146.408914 307.584 
L 149.128849 307.584 
L 149.128849 282.121439 
L 146.408914 282.121439 
z
" style="fill:#1f77b4;"/>
   </g>
   <g id="patch_21">
    <path clip-path="url(#pc8efb1b614)" d="M 149.128849 307.584 
L 151.848791 307.584 
L 151.848791 272.664016 
L 149.128849 272.664016 
z
" style="fill:#1f77b4;"/>
   </g>
   <g id="patch_22">
    <path clip-path="url(#pc8efb1b614)" d="M 151.848791 307.584 
L 154.568726 307.584 
L 154.568726 277.756429 
L 151.848791 277.756429 
z
" style="fill:#1f77b4;"/>
   </g>
   <g id="patch_23">
    <path clip-path="url(#pc8efb1b614)" d="M 154.568726 307.584 
L 157.28866 307.584 
L 157.28866 281.757688 
L 154.568726 281.757688 
z
" style="fill:#1f77b4;"/>
   </g>
   <g id="patch_24">
    <path clip-path="url(#pc8efb1b614)" d="M 157.28866 307.584 
L 160.008595 307.584 
L 160.008595 270.481411 
L 157.28866 270.481411 
z
" style="fill:#1f77b4;"/>
   </g>
   <g id="patch_25">
    <path clip-path="url(#pc8efb1b614)" d="M 160.008587 307.584 
L 162.728529 307.584 
L 162.728529 275.210265 
L 160.008587 275.210265 
z
" style="fill:#1f77b4;"/>
   </g>
   <g id="patch_26">
    <path clip-path="url(#pc8efb1b614)" d="M 162.728537 307.584 
L 165.448472 307.584 
L 165.448472 265.75265 
L 162.728537 265.75265 
z
" style="fill:#1f77b4;"/>
   </g>
   <g id="patch_27">
    <path clip-path="url(#pc8efb1b614)" d="M 165.448472 307.584 
L 168.168406 307.584 
L 168.168406 274.482671 
L 165.448472 274.482671 
z
" style="fill:#1f77b4;"/>
   </g>
   <g id="patch_28">
    <path clip-path="url(#pc8efb1b614)" d="M 168.168406 307.584 
L 170.888341 307.584 
L 170.888341 266.480152 
L 168.168406 266.480152 
z
" style="fill:#1f77b4;"/>
   </g>
   <g id="patch_29">
    <path clip-path="url(#pc8efb1b614)" d="M 170.888341 307.584 
L 173.60828 307.584 
L 173.60828 265.025209 
L 170.888341 265.025209 
z
" style="fill:#1f77b4;"/>
   </g>
   <g id="patch_30">
    <path clip-path="url(#pc8efb1b614)" d="M 173.60828 307.584 
L 176.328214 307.584 
L 176.328214 263.206394 
L 173.60828 263.206394 
z
" style="fill:#1f77b4;"/>
   </g>
   <g id="patch_31">
    <path clip-path="url(#pc8efb1b614)" d="M 176.328218 307.584 
L 179.048156 307.584 
L 179.048156 260.660205 
L 176.328218 260.660205 
z
" style="fill:#1f77b4;"/>
   </g>
   <g id="patch_32">
    <path clip-path="url(#pc8efb1b614)" d="M 179.048153 307.584 
L 181.768087 307.584 
L 181.768087 264.661397 
L 179.048153 264.661397 
z
" style="fill:#1f77b4;"/>
   </g>
   <g id="patch_33">
    <path clip-path="url(#pc8efb1b614)" d="M 181.768087 307.584 
L 184.488026 307.584 
L 184.488026 251.202695 
L 181.768087 251.202695 
z
" style="fill:#1f77b4;"/>
   </g>
   <g id="patch_34">
    <path clip-path="url(#pc8efb1b614)" d="M 184.488026 307.584 
L 187.20796 307.584 
L 187.20796 255.931377 
L 184.488026 255.931377 
z
" style="fill:#1f77b4;"/>
   </g>
   <g id="patch_35">
    <path clip-path="url(#pc8efb1b614)" d="M 187.207964 307.584 
L 189.927903 307.584 
L 189.927903 252.657697 
L 187.207964 252.657697 
z
" style="fill:#1f77b4;"/>
   </g>
   <g id="patch_36">
    <path clip-path="url(#pc8efb1b614)" d="M 189.927899 307.584 
L 192.647833 307.584 
L 192.647833 237.380082 
L 189.927899 237.380082 
z
" style="fill:#1f77b4;"/>
   </g>
   <g id="patch_37">
    <path clip-path="url(#pc8efb1b614)" d="M 192.647833 307.584 
L 195.367772 307.584 
L 195.367772 237.380182 
L 192.647833 237.380182 
z
" style="fill:#1f77b4;"/>
   </g>
   <g id="patch_38">
    <path clip-path="url(#pc8efb1b614)" d="M 195.367772 307.584 
L 198.087707 307.584 
L 198.087707 226.467556 
L 195.367772 226.467556 
z
" style="fill:#1f77b4;"/>
   </g>
   <g id="patch_39">
    <path clip-path="url(#pc8efb1b614)" d="M 198.08771 307.584 
L 200.807649 307.584 
L 200.807649 229.741425 
L 198.08771 229.741425 
z
" style="fill:#1f77b4;"/>
   </g>
   <g id="patch_40">
    <path clip-path="url(#pc8efb1b614)" d="M 200.807645 307.584 
L 203.52758 307.584 
L 203.52758 223.557549 
L 200.807645 223.557549 
z
" style="fill:#1f77b4;"/>
   </g>
   <g id="patch_41">
    <path clip-path="url(#pc8efb1b614)" d="M 203.52758 307.584 
L 206.247516 307.584 
L 206.247516 217.737599 
L 203.52758 217.737599 
z
" style="fill:#1f77b4;"/>
   </g>
   <g id="patch_42">
    <path clip-path="url(#pc8efb1b614)" d="M 206.247518 307.584 
L 208.967455 307.584 
L 208.967455 218.10135 
L 206.247518 218.10135 
z
" style="fill:#1f77b4;"/>
   </g>
   <g id="patch_43">
    <path clip-path="url(#pc8efb1b614)" d="M 208.967453 307.584 
L 211.687389 307.584 
L 211.687389 225.376362 
L 208.967453 225.376362 
z
" style="fill:#1f77b4;"/>
   </g>
   <g id="patch_44">
    <path clip-path="url(#pc8efb1b614)" d="M 211.687391 307.584 
L 214.407328 307.584 
L 214.407328 231.923873 
L 211.687391 231.923873 
z
" style="fill:#1f77b4;"/>
   </g>
   <g id="patch_45">
    <path clip-path="url(#pc8efb1b614)" d="M 214.407326 307.584 
L 217.127263 307.584 
L 217.127263 231.923873 
L 214.407326 231.923873 
z
" style="fill:#1f77b4;"/>
   </g>
   <g id="patch_46">
    <path clip-path="url(#pc8efb1b614)" d="M 217.127264 307.584 
L 219.847201 307.584 
L 219.847201 218.10135 
L 217.127264 218.10135 
z
" style="fill:#1f77b4;"/>
   </g>
   <g id="patch_47">
    <path clip-path="url(#pc8efb1b614)" d="M 219.847199 307.584 
L 222.567136 307.584 
L 222.567136 202.460074 
L 219.847199 202.460074 
z
" style="fill:#1f77b4;"/>
   </g>
   <g id="patch_48">
    <path clip-path="url(#pc8efb1b614)" d="M 222.567136 307.584 
L 225.287072 307.584 
L 225.287072 220.283853 
L 222.567136 220.283853 
z
" style="fill:#1f77b4;"/>
   </g>
   <g id="patch_49">
    <path clip-path="url(#pc8efb1b614)" d="M 225.287072 307.584 
L 228.007009 307.584 
L 228.007009 209.735086 
L 225.287072 209.735086 
z
" style="fill:#1f77b4;"/>
   </g>
   <g id="patch_50">
    <path clip-path="url(#pc8efb1b614)" d="M 228.007009 307.584 
L 230.726945 307.584 
L 230.726945 207.916333 
L 228.007009 207.916333 
z
" style="fill:#1f77b4;"/>
   </g>
   <g id="patch_51">
    <path clip-path="url(#pc8efb1b614)" d="M 230.726945 307.584 
L 233.446882 307.584 
L 233.446882 196.640064 
L 230.726945 196.640064 
z
" style="fill:#1f77b4;"/>
   </g>
   <g id="patch_52">
    <path clip-path="url(#pc8efb1b614)" d="M 233.446882 307.584 
L 236.166818 307.584 
L 236.166818 109.339917 
L 233.446882 109.339917 
z
" style="fill:#1f77b4;"/>
   </g>
   <g id="patch_53">
    <path clip-path="url(#pc8efb1b614)" d="M 236.166818 307.584 
L 238.886755 307.584 
L 238.886755 187.546299 
L 236.166818 187.546299 
z
" style="fill:#1f77b4;"/>
   </g>
   <g id="patch_54">
    <path clip-path="url(#pc8efb1b614)" d="M 238.886755 307.584 
L 241.606692 307.584 
L 241.606692 171.541272 
L 238.886755 171.541272 
z
" style="fill:#1f77b4;"/>
   </g>
   <g id="patch_55">
    <path clip-path="url(#pc8efb1b614)" d="M 241.606692 307.584 
L 244.326628 307.584 
L 244.326628 197.367565 
L 241.606692 197.367565 
z
" style="fill:#1f77b4;"/>
   </g>
   <g id="patch_56">
    <path clip-path="url(#pc8efb1b614)" d="M 244.326628 307.584 
L 247.046565 307.584 
L 247.046565 214.463844 
L 244.326628 214.463844 
z
" style="fill:#1f77b4;"/>
   </g>
   <g id="patch_57">
    <path clip-path="url(#pc8efb1b614)" d="M 247.046565 307.584 
L 249.766501 307.584 
L 249.766501 206.46133 
L 247.046565 206.46133 
z
" style="fill:#1f77b4;"/>
   </g>
   <g id="patch_58">
    <path clip-path="url(#pc8efb1b614)" d="M 249.766501 307.584 
L 252.486438 307.584 
L 252.486438 206.825081 
L 249.766501 206.825081 
z
" style="fill:#1f77b4;"/>
   </g>
   <g id="patch_59">
    <path clip-path="url(#pc8efb1b614)" d="M 252.486438 307.584 
L 255.206374 307.584 
L 255.206374 207.552582 
L 252.486438 207.552582 
z
" style="fill:#1f77b4;"/>
   </g>
   <g id="patch_60">
    <path clip-path="url(#pc8efb1b614)" d="M 255.206376 307.584 
L 257.926313 307.584 
L 257.926313 211.917589 
L 255.206376 211.917589 
z
" style="fill:#1f77b4;"/>
   </g>
   <g id="patch_61">
    <path clip-path="url(#pc8efb1b614)" d="M 257.926311 307.584 
L 260.646248 307.584 
L 260.646248 210.826338 
L 257.926311 210.826338 
z
" style="fill:#1f77b4;"/>
   </g>
   <g id="patch_62">
    <path clip-path="url(#pc8efb1b614)" d="M 260.646249 307.584 
L 263.366186 307.584 
L 263.366186 218.4651 
L 260.646249 218.4651 
z
" style="fill:#1f77b4;"/>
   </g>
   <g id="patch_63">
    <path clip-path="url(#pc8efb1b614)" d="M 263.366184 307.584 
L 266.086121 307.584 
L 266.086121 225.740113 
L 263.366184 225.740113 
z
" style="fill:#1f77b4;"/>
   </g>
   <g id="patch_64">
    <path clip-path="url(#pc8efb1b614)" d="M 266.086123 307.584 
L 268.806057 307.584 
L 268.806057 241.381389 
L 266.086123 241.381389 
z
" style="fill:#1f77b4;"/>
   </g>
   <g id="patch_65">
    <path clip-path="url(#pc8efb1b614)" d="M 268.806057 307.584 
L 271.525992 307.584 
L 271.525992 237.016331 
L 268.806057 237.016331 
z
" style="fill:#1f77b4;"/>
   </g>
   <g id="patch_66">
    <path clip-path="url(#pc8efb1b614)" d="M 271.525992 307.584 
L 274.24593 307.584 
L 274.24593 239.926435 
L 271.525992 239.926435 
z
" style="fill:#1f77b4;"/>
   </g>
   <g id="patch_67">
    <path clip-path="url(#pc8efb1b614)" d="M 274.24593 307.584 
L 276.965865 307.584 
L 276.965865 245.01885 
L 274.24593 245.01885 
z
" style="fill:#1f77b4;"/>
   </g>
   <g id="patch_68">
    <path clip-path="url(#pc8efb1b614)" d="M 276.965869 307.584 
L 279.685807 307.584 
L 279.685807 248.656443 
L 276.965869 248.656443 
z
" style="fill:#1f77b4;"/>
   </g>
   <g id="patch_69">
    <path clip-path="url(#pc8efb1b614)" d="M 279.685803 307.584 
L 282.405738 307.584 
L 282.405738 257.022629 
L 279.685803 257.022629 
z
" style="fill:#1f77b4;"/>
   </g>
   <g id="patch_70">
    <path clip-path="url(#pc8efb1b614)" d="M 282.405738 307.584 
L 285.125677 307.584 
L 285.125677 252.657697 
L 282.405738 252.657697 
z
" style="fill:#1f77b4;"/>
   </g>
   <g id="patch_71">
    <path clip-path="url(#pc8efb1b614)" d="M 285.125677 307.584 
L 287.845611 307.584 
L 287.845611 258.113882 
L 285.125677 258.113882 
z
" style="fill:#1f77b4;"/>
   </g>
   <g id="patch_72">
    <path clip-path="url(#pc8efb1b614)" d="M 287.845615 307.584 
L 290.565554 307.584 
L 290.565554 265.025209 
L 287.845615 265.025209 
z
" style="fill:#1f77b4;"/>
   </g>
   <g id="patch_73">
    <path clip-path="url(#pc8efb1b614)" d="M 290.56555 307.584 
L 293.285484 307.584 
L 293.285484 265.75265 
L 290.56555 265.75265 
z
" style="fill:#1f77b4;"/>
   </g>
   <g id="patch_74">
    <path clip-path="url(#pc8efb1b614)" d="M 293.285484 307.584 
L 296.005423 307.584 
L 296.005423 277.02897 
L 293.285484 277.02897 
z
" style="fill:#1f77b4;"/>
   </g>
   <g id="patch_75">
    <path clip-path="url(#pc8efb1b614)" d="M 296.005423 307.584 
L 298.725357 307.584 
L 298.725357 271.936415 
L 296.005423 271.936415 
z
" style="fill:#1f77b4;"/>
   </g>
   <g id="patch_76">
    <path clip-path="url(#pc8efb1b614)" d="M 298.725361 307.584 
L 301.445296 307.584 
L 301.445296 274.118968 
L 298.725361 274.118968 
z
" style="fill:#1f77b4;"/>
   </g>
   <g id="patch_77">
    <path clip-path="url(#pc8efb1b614)" d="M 301.445296 307.584 
L 304.165231 307.584 
L 304.165231 282.121439 
L 301.445296 282.121439 
z
" style="fill:#1f77b4;"/>
   </g>
   <g id="patch_78">
    <path clip-path="url(#pc8efb1b614)" d="M 304.165231 307.584 
L 306.885165 307.584 
L 306.885165 285.758948 
L 304.165231 285.758948 
z
" style="fill:#1f77b4;"/>
   </g>
   <g id="patch_79">
    <path clip-path="url(#pc8efb1b614)" d="M 306.885165 307.584 
L 309.6051 307.584 
L 309.6051 290.487709 
L 306.885165 290.487709 
z
" style="fill:#1f77b4;"/>
   </g>
   <g id="patch_80">
    <path clip-path="url(#pc8efb1b614)" d="M 309.6051 307.584 
L 312.325042 307.584 
L 312.325042 288.669009 
L 309.6051 288.669009 
z
" style="fill:#1f77b4;"/>
   </g>
   <g id="patch_81">
    <path clip-path="url(#pc8efb1b614)" d="M 312.325042 307.584 
L 315.044977 307.584 
L 315.044977 293.033965 
L 312.325042 293.033965 
z
" style="fill:#1f77b4;"/>
   </g>
   <g id="patch_82">
    <path clip-path="url(#pc8efb1b614)" d="M 315.044977 307.584 
L 317.764911 307.584 
L 317.764911 293.033965 
L 315.044977 293.033965 
z
" style="fill:#1f77b4;"/>
   </g>
   <g id="patch_83">
    <path clip-path="url(#pc8efb1b614)" d="M 317.764911 307.584 
L 320.484846 307.584 
L 320.484846 295.21647 
L 317.764911 295.21647 
z
" style="fill:#1f77b4;"/>
   </g>
   <g id="patch_84">
    <path clip-path="url(#pc8efb1b614)" d="M 320.484838 307.584 
L 323.204781 307.584 
L 323.204781 289.032758 
L 320.484838 289.032758 
z
" style="fill:#1f77b4;"/>
   </g>
   <g id="patch_85">
    <path clip-path="url(#pc8efb1b614)" d="M 323.204788 307.584 
L 325.924723 307.584 
L 325.924723 294.488969 
L 323.204788 294.488969 
z
" style="fill:#1f77b4;"/>
   </g>
   <g id="patch_86">
    <path clip-path="url(#pc8efb1b614)" d="M 325.924723 307.584 
L 328.644658 307.584 
L 328.644658 289.760207 
L 325.924723 289.760207 
z
" style="fill:#1f77b4;"/>
   </g>
   <g id="patch_87">
    <path clip-path="url(#pc8efb1b614)" d="M 328.644658 307.584 
L 331.364592 307.584 
L 331.364592 298.490228 
L 328.644658 298.490228 
z
" style="fill:#1f77b4;"/>
   </g>
   <g id="patch_88">
    <path clip-path="url(#pc8efb1b614)" d="M 331.364592 307.584 
L 334.084535 307.584 
L 334.084535 300.309003 
L 331.364592 300.309003 
z
" style="fill:#1f77b4;"/>
   </g>
   <g id="patch_89">
    <path clip-path="url(#pc8efb1b614)" d="M 334.084535 307.584 
L 336.804469 307.584 
L 336.804469 298.490228 
L 334.084535 298.490228 
z
" style="fill:#1f77b4;"/>
   </g>
   <g id="patch_90">
    <path clip-path="url(#pc8efb1b614)" d="M 336.804469 307.584 
L 339.524404 307.584 
L 339.524404 297.398976 
L 336.804469 297.398976 
z
" style="fill:#1f77b4;"/>
   </g>
   <g id="patch_91">
    <path clip-path="url(#pc8efb1b614)" d="M 339.524404 307.584 
L 342.244339 307.584 
L 342.244339 296.671474 
L 339.524404 296.671474 
z
" style="fill:#1f77b4;"/>
   </g>
   <g id="patch_92">
    <path clip-path="url(#pc8efb1b614)" d="M 342.244331 307.584 
L 344.964273 307.584 
L 344.964273 298.854004 
L 342.244331 298.854004 
z
" style="fill:#1f77b4;"/>
   </g>
   <g id="patch_93">
    <path clip-path="url(#pc8efb1b614)" d="M 344.964281 307.584 
L 347.684216 307.584 
L 347.684216 300.308983 
L 344.964281 300.308983 
z
" style="fill:#1f77b4;"/>
   </g>
   <g id="patch_94">
    <path clip-path="url(#pc8efb1b614)" d="M 347.684216 307.584 
L 350.40415 307.584 
L 350.40415 300.308983 
L 347.684216 300.308983 
z
" style="fill:#1f77b4;"/>
   </g>
   <g id="patch_95">
    <path clip-path="url(#pc8efb1b614)" d="M 350.40415 307.584 
L 353.124085 307.584 
L 353.124085 301.400235 
L 350.40415 301.400235 
z
" style="fill:#1f77b4;"/>
   </g>
   <g id="patch_96">
    <path clip-path="url(#pc8efb1b614)" d="M 353.124085 307.584 
L 355.844027 307.584 
L 355.844027 305.765251 
L 353.124085 305.765251 
z
" style="fill:#1f77b4;"/>
   </g>
   <g id="patch_97">
    <path clip-path="url(#pc8efb1b614)" d="M 355.844027 307.584 
L 358.563962 307.584 
L 358.563962 303.946491 
L 355.844027 303.946491 
z
" style="fill:#1f77b4;"/>
   </g>
   <g id="patch_98">
    <path clip-path="url(#pc8efb1b614)" d="M 358.563962 307.584 
L 361.283896 307.584 
L 361.283896 305.765246 
L 358.563962 305.765246 
z
" style="fill:#1f77b4;"/>
   </g>
   <g id="patch_99">
    <path clip-path="url(#pc8efb1b614)" d="M 361.283896 307.584 
L 364.003831 307.584 
L 364.003831 304.310242 
L 361.283896 304.310242 
z
" style="fill:#1f77b4;"/>
   </g>
   <g id="patch_100">
    <path clip-path="url(#pc8efb1b614)" d="M 364.003823 307.584 
L 366.723758 307.584 
L 366.723758 305.765251 
L 364.003823 305.765251 
z
" style="fill:#1f77b4;"/>
   </g>
   <g id="patch_101">
    <path clip-path="url(#pc8efb1b614)" d="M 366.723758 307.584 
L 369.443693 307.584 
L 369.443693 305.401495 
L 366.723758 305.401495 
z
" style="fill:#1f77b4;"/>
   </g>
   <g id="patch_102">
    <path clip-path="url(#pc8efb1b614)" d="M 369.443708 307.584 
L 372.163643 307.584 
L 372.163643 306.492747 
L 369.443708 306.492747 
z
" style="fill:#1f77b4;"/>
   </g>
   <g id="matplotlib.axis_1">
    <g id="xtick_1">
     <g id="line2d_1">
      <defs>
       <path d="M 0 0 
L 0 3.5 
" id="mdd8321027f" style="stroke:#000000;stroke-width:0.8;"/>
      </defs>
      <g>
       <use style="stroke:#000000;stroke-width:0.8;" x="106.29948" xlink:href="#mdd8321027f" y="307.584"/>
      </g>
     </g>
     <g id="text_1">
      <!-- −2 -->
      <defs>
       <path d="M 10.59375 35.5 
L 73.1875 35.5 
L 73.1875 27.203125 
L 10.59375 27.203125 
z
" id="DejaVuSans-8722"/>
       <path d="M 19.1875 8.296875 
L 53.609375 8.296875 
L 53.609375 0 
L 7.328125 0 
L 7.328125 8.296875 
Q 12.9375 14.109375 22.625 23.890625 
Q 32.328125 33.6875 34.8125 36.53125 
Q 39.546875 41.84375 41.421875 45.53125 
Q 43.3125 49.21875 43.3125 52.78125 
Q 43.3125 58.59375 39.234375 62.25 
Q 35.15625 65.921875 28.609375 65.921875 
Q 23.96875 65.921875 18.8125 64.3125 
Q 13.671875 62.703125 7.8125 59.421875 
L 7.8125 69.390625 
Q 13.765625 71.78125 18.9375 73 
Q 24.125 74.21875 28.421875 74.21875 
Q 39.75 74.21875 46.484375 68.546875 
Q 53.21875 62.890625 53.21875 53.421875 
Q 53.21875 48.921875 51.53125 44.890625 
Q 49.859375 40.875 45.40625 35.40625 
Q 44.1875 33.984375 37.640625 27.21875 
Q 31.109375 20.453125 19.1875 8.296875 
z
" id="DejaVuSans-50"/>
      </defs>
      <g transform="translate(93.768621 327.501344)scale(0.17 -0.17)">
       <use xlink:href="#DejaVuSans-8722"/>
       <use x="83.789062" xlink:href="#DejaVuSans-50"/>
      </g>
     </g>
    </g>
    <g id="xtick_2">
     <g id="line2d_2">
      <g>
       <use style="stroke:#000000;stroke-width:0.8;" x="171.232987" xlink:href="#mdd8321027f" y="307.584"/>
      </g>
     </g>
     <g id="text_2">
      <!-- −1 -->
      <defs>
       <path d="M 12.40625 8.296875 
L 28.515625 8.296875 
L 28.515625 63.921875 
L 10.984375 60.40625 
L 10.984375 69.390625 
L 28.421875 72.90625 
L 38.28125 72.90625 
L 38.28125 8.296875 
L 54.390625 8.296875 
L 54.390625 0 
L 12.40625 0 
z
" id="DejaVuSans-49"/>
      </defs>
      <g transform="translate(158.702128 327.501344)scale(0.17 -0.17)">
       <use xlink:href="#DejaVuSans-8722"/>
       <use x="83.789062" xlink:href="#DejaVuSans-49"/>
      </g>
     </g>
    </g>
    <g id="xtick_3">
     <g id="line2d_3">
      <g>
       <use style="stroke:#000000;stroke-width:0.8;" x="236.166493" xlink:href="#mdd8321027f" y="307.584"/>
      </g>
     </g>
     <g id="text_3">
      <!-- 0 -->
      <defs>
       <path d="M 31.78125 66.40625 
Q 24.171875 66.40625 20.328125 58.90625 
Q 16.5 51.421875 16.5 36.375 
Q 16.5 21.390625 20.328125 13.890625 
Q 24.171875 6.390625 31.78125 6.390625 
Q 39.453125 6.390625 43.28125 13.890625 
Q 47.125 21.390625 47.125 36.375 
Q 47.125 51.421875 43.28125 58.90625 
Q 39.453125 66.40625 31.78125 66.40625 
z
M 31.78125 74.21875 
Q 44.046875 74.21875 50.515625 64.515625 
Q 56.984375 54.828125 56.984375 36.375 
Q 56.984375 17.96875 50.515625 8.265625 
Q 44.046875 -1.421875 31.78125 -1.421875 
Q 19.53125 -1.421875 13.0625 8.265625 
Q 6.59375 17.96875 6.59375 36.375 
Q 6.59375 54.828125 13.0625 64.515625 
Q 19.53125 74.21875 31.78125 74.21875 
z
" id="DejaVuSans-48"/>
      </defs>
      <g transform="translate(230.758368 327.501344)scale(0.17 -0.17)">
       <use xlink:href="#DejaVuSans-48"/>
      </g>
     </g>
    </g>
    <g id="xtick_4">
     <g id="line2d_4">
      <g>
       <use style="stroke:#000000;stroke-width:0.8;" x="301.1" xlink:href="#mdd8321027f" y="307.584"/>
      </g>
     </g>
     <g id="text_4">
      <!-- 1 -->
      <g transform="translate(295.691875 327.501344)scale(0.17 -0.17)">
       <use xlink:href="#DejaVuSans-49"/>
      </g>
     </g>
    </g>
    <g id="xtick_5">
     <g id="line2d_5">
      <g>
       <use style="stroke:#000000;stroke-width:0.8;" x="366.033506" xlink:href="#mdd8321027f" y="307.584"/>
      </g>
     </g>
     <g id="text_5">
      <!-- 2 -->
      <g transform="translate(360.625381 327.501344)scale(0.17 -0.17)">
       <use xlink:href="#DejaVuSans-50"/>
      </g>
     </g>
    </g>
    <g id="text_6">
     <!-- Position in Radian -->
     <defs>
      <path d="M 19.671875 64.796875 
L 19.671875 37.40625 
L 32.078125 37.40625 
Q 38.96875 37.40625 42.71875 40.96875 
Q 46.484375 44.53125 46.484375 51.125 
Q 46.484375 57.671875 42.71875 61.234375 
Q 38.96875 64.796875 32.078125 64.796875 
z
M 9.8125 72.90625 
L 32.078125 72.90625 
Q 44.34375 72.90625 50.609375 67.359375 
Q 56.890625 61.8125 56.890625 51.125 
Q 56.890625 40.328125 50.609375 34.8125 
Q 44.34375 29.296875 32.078125 29.296875 
L 19.671875 29.296875 
L 19.671875 0 
L 9.8125 0 
z
" id="DejaVuSans-80"/>
      <path d="M 30.609375 48.390625 
Q 23.390625 48.390625 19.1875 42.75 
Q 14.984375 37.109375 14.984375 27.296875 
Q 14.984375 17.484375 19.15625 11.84375 
Q 23.34375 6.203125 30.609375 6.203125 
Q 37.796875 6.203125 41.984375 11.859375 
Q 46.1875 17.53125 46.1875 27.296875 
Q 46.1875 37.015625 41.984375 42.703125 
Q 37.796875 48.390625 30.609375 48.390625 
z
M 30.609375 56 
Q 42.328125 56 49.015625 48.375 
Q 55.71875 40.765625 55.71875 27.296875 
Q 55.71875 13.875 49.015625 6.21875 
Q 42.328125 -1.421875 30.609375 -1.421875 
Q 18.84375 -1.421875 12.171875 6.21875 
Q 5.515625 13.875 5.515625 27.296875 
Q 5.515625 40.765625 12.171875 48.375 
Q 18.84375 56 30.609375 56 
z
" id="DejaVuSans-111"/>
      <path d="M 44.28125 53.078125 
L 44.28125 44.578125 
Q 40.484375 46.53125 36.375 47.5 
Q 32.28125 48.484375 27.875 48.484375 
Q 21.1875 48.484375 17.84375 46.4375 
Q 14.5 44.390625 14.5 40.28125 
Q 14.5 37.15625 16.890625 35.375 
Q 19.28125 33.59375 26.515625 31.984375 
L 29.59375 31.296875 
Q 39.15625 29.25 43.1875 25.515625 
Q 47.21875 21.78125 47.21875 15.09375 
Q 47.21875 7.46875 41.1875 3.015625 
Q 35.15625 -1.421875 24.609375 -1.421875 
Q 20.21875 -1.421875 15.453125 -0.5625 
Q 10.6875 0.296875 5.421875 2 
L 5.421875 11.28125 
Q 10.40625 8.6875 15.234375 7.390625 
Q 20.0625 6.109375 24.8125 6.109375 
Q 31.15625 6.109375 34.5625 8.28125 
Q 37.984375 10.453125 37.984375 14.40625 
Q 37.984375 18.0625 35.515625 20.015625 
Q 33.0625 21.96875 24.703125 23.78125 
L 21.578125 24.515625 
Q 13.234375 26.265625 9.515625 29.90625 
Q 5.8125 33.546875 5.8125 39.890625 
Q 5.8125 47.609375 11.28125 51.796875 
Q 16.75 56 26.8125 56 
Q 31.78125 56 36.171875 55.265625 
Q 40.578125 54.546875 44.28125 53.078125 
z
" id="DejaVuSans-115"/>
      <path d="M 9.421875 54.6875 
L 18.40625 54.6875 
L 18.40625 0 
L 9.421875 0 
z
M 9.421875 75.984375 
L 18.40625 75.984375 
L 18.40625 64.59375 
L 9.421875 64.59375 
z
" id="DejaVuSans-105"/>
      <path d="M 18.3125 70.21875 
L 18.3125 54.6875 
L 36.8125 54.6875 
L 36.8125 47.703125 
L 18.3125 47.703125 
L 18.3125 18.015625 
Q 18.3125 11.328125 20.140625 9.421875 
Q 21.96875 7.515625 27.59375 7.515625 
L 36.8125 7.515625 
L 36.8125 0 
L 27.59375 0 
Q 17.1875 0 13.234375 3.875 
Q 9.28125 7.765625 9.28125 18.015625 
L 9.28125 47.703125 
L 2.6875 47.703125 
L 2.6875 54.6875 
L 9.28125 54.6875 
L 9.28125 70.21875 
z
" id="DejaVuSans-116"/>
      <path d="M 54.890625 33.015625 
L 54.890625 0 
L 45.90625 0 
L 45.90625 32.71875 
Q 45.90625 40.484375 42.875 44.328125 
Q 39.84375 48.1875 33.796875 48.1875 
Q 26.515625 48.1875 22.3125 43.546875 
Q 18.109375 38.921875 18.109375 30.90625 
L 18.109375 0 
L 9.078125 0 
L 9.078125 54.6875 
L 18.109375 54.6875 
L 18.109375 46.1875 
Q 21.34375 51.125 25.703125 53.5625 
Q 30.078125 56 35.796875 56 
Q 45.21875 56 50.046875 50.171875 
Q 54.890625 44.34375 54.890625 33.015625 
z
" id="DejaVuSans-110"/>
      <path id="DejaVuSans-32"/>
      <path d="M 44.390625 34.1875 
Q 47.5625 33.109375 50.5625 29.59375 
Q 53.5625 26.078125 56.59375 19.921875 
L 66.609375 0 
L 56 0 
L 46.6875 18.703125 
Q 43.0625 26.03125 39.671875 28.421875 
Q 36.28125 30.8125 30.421875 30.8125 
L 19.671875 30.8125 
L 19.671875 0 
L 9.8125 0 
L 9.8125 72.90625 
L 32.078125 72.90625 
Q 44.578125 72.90625 50.734375 67.671875 
Q 56.890625 62.453125 56.890625 51.90625 
Q 56.890625 45.015625 53.6875 40.46875 
Q 50.484375 35.9375 44.390625 34.1875 
z
M 19.671875 64.796875 
L 19.671875 38.921875 
L 32.078125 38.921875 
Q 39.203125 38.921875 42.84375 42.21875 
Q 46.484375 45.515625 46.484375 51.90625 
Q 46.484375 58.296875 42.84375 61.546875 
Q 39.203125 64.796875 32.078125 64.796875 
z
" id="DejaVuSans-82"/>
      <path d="M 34.28125 27.484375 
Q 23.390625 27.484375 19.1875 25 
Q 14.984375 22.515625 14.984375 16.5 
Q 14.984375 11.71875 18.140625 8.90625 
Q 21.296875 6.109375 26.703125 6.109375 
Q 34.1875 6.109375 38.703125 11.40625 
Q 43.21875 16.703125 43.21875 25.484375 
L 43.21875 27.484375 
z
M 52.203125 31.203125 
L 52.203125 0 
L 43.21875 0 
L 43.21875 8.296875 
Q 40.140625 3.328125 35.546875 0.953125 
Q 30.953125 -1.421875 24.3125 -1.421875 
Q 15.921875 -1.421875 10.953125 3.296875 
Q 6 8.015625 6 15.921875 
Q 6 25.140625 12.171875 29.828125 
Q 18.359375 34.515625 30.609375 34.515625 
L 43.21875 34.515625 
L 43.21875 35.40625 
Q 43.21875 41.609375 39.140625 45 
Q 35.0625 48.390625 27.6875 48.390625 
Q 23 48.390625 18.546875 47.265625 
Q 14.109375 46.140625 10.015625 43.890625 
L 10.015625 52.203125 
Q 14.9375 54.109375 19.578125 55.046875 
Q 24.21875 56 28.609375 56 
Q 40.484375 56 46.34375 49.84375 
Q 52.203125 43.703125 52.203125 31.203125 
z
" id="DejaVuSans-97"/>
      <path d="M 45.40625 46.390625 
L 45.40625 75.984375 
L 54.390625 75.984375 
L 54.390625 0 
L 45.40625 0 
L 45.40625 8.203125 
Q 42.578125 3.328125 38.25 0.953125 
Q 33.9375 -1.421875 27.875 -1.421875 
Q 17.96875 -1.421875 11.734375 6.484375 
Q 5.515625 14.40625 5.515625 27.296875 
Q 5.515625 40.1875 11.734375 48.09375 
Q 17.96875 56 27.875 56 
Q 33.9375 56 38.25 53.625 
Q 42.578125 51.265625 45.40625 46.390625 
z
M 14.796875 27.296875 
Q 14.796875 17.390625 18.875 11.75 
Q 22.953125 6.109375 30.078125 6.109375 
Q 37.203125 6.109375 41.296875 11.75 
Q 45.40625 17.390625 45.40625 27.296875 
Q 45.40625 37.203125 41.296875 42.84375 
Q 37.203125 48.484375 30.078125 48.484375 
Q 22.953125 48.484375 18.875 42.84375 
Q 14.796875 37.203125 14.796875 27.296875 
z
" id="DejaVuSans-100"/>
     </defs>
     <g transform="translate(102.024844 357.832125)scale(0.3 -0.3)">
      <use xlink:href="#DejaVuSans-80"/>
      <use x="60.255859" xlink:href="#DejaVuSans-111"/>
      <use x="121.4375" xlink:href="#DejaVuSans-115"/>
      <use x="173.537109" xlink:href="#DejaVuSans-105"/>
      <use x="201.320312" xlink:href="#DejaVuSans-116"/>
      <use x="240.529297" xlink:href="#DejaVuSans-105"/>
      <use x="268.3125" xlink:href="#DejaVuSans-111"/>
      <use x="329.494141" xlink:href="#DejaVuSans-110"/>
      <use x="392.873047" xlink:href="#DejaVuSans-32"/>
      <use x="424.660156" xlink:href="#DejaVuSans-105"/>
      <use x="452.443359" xlink:href="#DejaVuSans-110"/>
      <use x="515.822266" xlink:href="#DejaVuSans-32"/>
      <use x="547.609375" xlink:href="#DejaVuSans-82"/>
      <use x="617.060547" xlink:href="#DejaVuSans-97"/>
      <use x="678.339844" xlink:href="#DejaVuSans-100"/>
      <use x="741.816406" xlink:href="#DejaVuSans-105"/>
      <use x="769.599609" xlink:href="#DejaVuSans-97"/>
      <use x="830.878906" xlink:href="#DejaVuSans-110"/>
     </g>
    </g>
   </g>
   <g id="matplotlib.axis_2">
    <g id="ytick_1">
     <g id="line2d_6">
      <defs>
       <path d="M 0 0 
L -3.5 0 
" id="m954cde0c4b" style="stroke:#000000;stroke-width:0.8;"/>
      </defs>
      <g>
       <use style="stroke:#000000;stroke-width:0.8;" x="57.6" xlink:href="#m954cde0c4b" y="307.584"/>
      </g>
     </g>
     <g id="text_7">
      <!-- 0.0 -->
      <defs>
       <path d="M 10.6875 12.40625 
L 21 12.40625 
L 21 0 
L 10.6875 0 
z
" id="DejaVuSans-46"/>
      </defs>
      <g transform="translate(23.564687 314.042672)scale(0.17 -0.17)">
       <use xlink:href="#DejaVuSans-48"/>
       <use x="63.623047" xlink:href="#DejaVuSans-46"/>
       <use x="95.410156" xlink:href="#DejaVuSans-48"/>
      </g>
     </g>
    </g>
    <g id="ytick_2">
     <g id="line2d_7">
      <g>
       <use style="stroke:#000000;stroke-width:0.8;" x="57.6" xlink:href="#m954cde0c4b" y="269.49201"/>
      </g>
     </g>
     <g id="text_8">
      <!-- 0.2 -->
      <g transform="translate(23.564687 275.950682)scale(0.17 -0.17)">
       <use xlink:href="#DejaVuSans-48"/>
       <use x="63.623047" xlink:href="#DejaVuSans-46"/>
       <use x="95.410156" xlink:href="#DejaVuSans-50"/>
      </g>
     </g>
    </g>
    <g id="ytick_3">
     <g id="line2d_8">
      <g>
       <use style="stroke:#000000;stroke-width:0.8;" x="57.6" xlink:href="#m954cde0c4b" y="231.400021"/>
      </g>
     </g>
     <g id="text_9">
      <!-- 0.4 -->
      <defs>
       <path d="M 37.796875 64.3125 
L 12.890625 25.390625 
L 37.796875 25.390625 
z
M 35.203125 72.90625 
L 47.609375 72.90625 
L 47.609375 25.390625 
L 58.015625 25.390625 
L 58.015625 17.1875 
L 47.609375 17.1875 
L 47.609375 0 
L 37.796875 0 
L 37.796875 17.1875 
L 4.890625 17.1875 
L 4.890625 26.703125 
z
" id="DejaVuSans-52"/>
      </defs>
      <g transform="translate(23.564687 237.858692)scale(0.17 -0.17)">
       <use xlink:href="#DejaVuSans-48"/>
       <use x="63.623047" xlink:href="#DejaVuSans-46"/>
       <use x="95.410156" xlink:href="#DejaVuSans-52"/>
      </g>
     </g>
    </g>
    <g id="ytick_4">
     <g id="line2d_9">
      <g>
       <use style="stroke:#000000;stroke-width:0.8;" x="57.6" xlink:href="#m954cde0c4b" y="193.308031"/>
      </g>
     </g>
     <g id="text_10">
      <!-- 0.6 -->
      <defs>
       <path d="M 33.015625 40.375 
Q 26.375 40.375 22.484375 35.828125 
Q 18.609375 31.296875 18.609375 23.390625 
Q 18.609375 15.53125 22.484375 10.953125 
Q 26.375 6.390625 33.015625 6.390625 
Q 39.65625 6.390625 43.53125 10.953125 
Q 47.40625 15.53125 47.40625 23.390625 
Q 47.40625 31.296875 43.53125 35.828125 
Q 39.65625 40.375 33.015625 40.375 
z
M 52.59375 71.296875 
L 52.59375 62.3125 
Q 48.875 64.0625 45.09375 64.984375 
Q 41.3125 65.921875 37.59375 65.921875 
Q 27.828125 65.921875 22.671875 59.328125 
Q 17.53125 52.734375 16.796875 39.40625 
Q 19.671875 43.65625 24.015625 45.921875 
Q 28.375 48.1875 33.59375 48.1875 
Q 44.578125 48.1875 50.953125 41.515625 
Q 57.328125 34.859375 57.328125 23.390625 
Q 57.328125 12.15625 50.6875 5.359375 
Q 44.046875 -1.421875 33.015625 -1.421875 
Q 20.359375 -1.421875 13.671875 8.265625 
Q 6.984375 17.96875 6.984375 36.375 
Q 6.984375 53.65625 15.1875 63.9375 
Q 23.390625 74.21875 37.203125 74.21875 
Q 40.921875 74.21875 44.703125 73.484375 
Q 48.484375 72.75 52.59375 71.296875 
z
" id="DejaVuSans-54"/>
      </defs>
      <g transform="translate(23.564687 199.766703)scale(0.17 -0.17)">
       <use xlink:href="#DejaVuSans-48"/>
       <use x="63.623047" xlink:href="#DejaVuSans-46"/>
       <use x="95.410156" xlink:href="#DejaVuSans-54"/>
      </g>
     </g>
    </g>
    <g id="ytick_5">
     <g id="line2d_10">
      <g>
       <use style="stroke:#000000;stroke-width:0.8;" x="57.6" xlink:href="#m954cde0c4b" y="155.216041"/>
      </g>
     </g>
     <g id="text_11">
      <!-- 0.8 -->
      <defs>
       <path d="M 31.78125 34.625 
Q 24.75 34.625 20.71875 30.859375 
Q 16.703125 27.09375 16.703125 20.515625 
Q 16.703125 13.921875 20.71875 10.15625 
Q 24.75 6.390625 31.78125 6.390625 
Q 38.8125 6.390625 42.859375 10.171875 
Q 46.921875 13.96875 46.921875 20.515625 
Q 46.921875 27.09375 42.890625 30.859375 
Q 38.875 34.625 31.78125 34.625 
z
M 21.921875 38.8125 
Q 15.578125 40.375 12.03125 44.71875 
Q 8.5 49.078125 8.5 55.328125 
Q 8.5 64.0625 14.71875 69.140625 
Q 20.953125 74.21875 31.78125 74.21875 
Q 42.671875 74.21875 48.875 69.140625 
Q 55.078125 64.0625 55.078125 55.328125 
Q 55.078125 49.078125 51.53125 44.71875 
Q 48 40.375 41.703125 38.8125 
Q 48.828125 37.15625 52.796875 32.3125 
Q 56.78125 27.484375 56.78125 20.515625 
Q 56.78125 9.90625 50.3125 4.234375 
Q 43.84375 -1.421875 31.78125 -1.421875 
Q 19.734375 -1.421875 13.25 4.234375 
Q 6.78125 9.90625 6.78125 20.515625 
Q 6.78125 27.484375 10.78125 32.3125 
Q 14.796875 37.15625 21.921875 38.8125 
z
M 18.3125 54.390625 
Q 18.3125 48.734375 21.84375 45.5625 
Q 25.390625 42.390625 31.78125 42.390625 
Q 38.140625 42.390625 41.71875 45.5625 
Q 45.3125 48.734375 45.3125 54.390625 
Q 45.3125 60.0625 41.71875 63.234375 
Q 38.140625 66.40625 31.78125 66.40625 
Q 25.390625 66.40625 21.84375 63.234375 
Q 18.3125 60.0625 18.3125 54.390625 
z
" id="DejaVuSans-56"/>
      </defs>
      <g transform="translate(23.564687 161.674713)scale(0.17 -0.17)">
       <use xlink:href="#DejaVuSans-48"/>
       <use x="63.623047" xlink:href="#DejaVuSans-46"/>
       <use x="95.410156" xlink:href="#DejaVuSans-56"/>
      </g>
     </g>
    </g>
    <g id="ytick_6">
     <g id="line2d_11">
      <g>
       <use style="stroke:#000000;stroke-width:0.8;" x="57.6" xlink:href="#m954cde0c4b" y="117.124051"/>
      </g>
     </g>
     <g id="text_12">
      <!-- 1.0 -->
      <g transform="translate(23.564687 123.582723)scale(0.17 -0.17)">
       <use xlink:href="#DejaVuSans-49"/>
       <use x="63.623047" xlink:href="#DejaVuSans-46"/>
       <use x="95.410156" xlink:href="#DejaVuSans-48"/>
      </g>
     </g>
    </g>
    <g id="ytick_7">
     <g id="line2d_12">
      <g>
       <use style="stroke:#000000;stroke-width:0.8;" x="57.6" xlink:href="#m954cde0c4b" y="79.032062"/>
      </g>
     </g>
     <g id="text_13">
      <!-- 1.2 -->
      <g transform="translate(23.564687 85.490733)scale(0.17 -0.17)">
       <use xlink:href="#DejaVuSans-49"/>
       <use x="63.623047" xlink:href="#DejaVuSans-46"/>
       <use x="95.410156" xlink:href="#DejaVuSans-50"/>
      </g>
     </g>
    </g>
    <g id="text_14">
     <!-- Density -->
     <defs>
      <path d="M 19.671875 64.796875 
L 19.671875 8.109375 
L 31.59375 8.109375 
Q 46.6875 8.109375 53.6875 14.9375 
Q 60.6875 21.78125 60.6875 36.53125 
Q 60.6875 51.171875 53.6875 57.984375 
Q 46.6875 64.796875 31.59375 64.796875 
z
M 9.8125 72.90625 
L 30.078125 72.90625 
Q 51.265625 72.90625 61.171875 64.09375 
Q 71.09375 55.28125 71.09375 36.53125 
Q 71.09375 17.671875 61.125 8.828125 
Q 51.171875 0 30.078125 0 
L 9.8125 0 
z
" id="DejaVuSans-68"/>
      <path d="M 56.203125 29.59375 
L 56.203125 25.203125 
L 14.890625 25.203125 
Q 15.484375 15.921875 20.484375 11.0625 
Q 25.484375 6.203125 34.421875 6.203125 
Q 39.59375 6.203125 44.453125 7.46875 
Q 49.3125 8.734375 54.109375 11.28125 
L 54.109375 2.78125 
Q 49.265625 0.734375 44.1875 -0.34375 
Q 39.109375 -1.421875 33.890625 -1.421875 
Q 20.796875 -1.421875 13.15625 6.1875 
Q 5.515625 13.8125 5.515625 26.8125 
Q 5.515625 40.234375 12.765625 48.109375 
Q 20.015625 56 32.328125 56 
Q 43.359375 56 49.78125 48.890625 
Q 56.203125 41.796875 56.203125 29.59375 
z
M 47.21875 32.234375 
Q 47.125 39.59375 43.09375 43.984375 
Q 39.0625 48.390625 32.421875 48.390625 
Q 24.90625 48.390625 20.390625 44.140625 
Q 15.875 39.890625 15.1875 32.171875 
z
" id="DejaVuSans-101"/>
      <path d="M 32.171875 -5.078125 
Q 28.375 -14.84375 24.75 -17.8125 
Q 21.140625 -20.796875 15.09375 -20.796875 
L 7.90625 -20.796875 
L 7.90625 -13.28125 
L 13.1875 -13.28125 
Q 16.890625 -13.28125 18.9375 -11.515625 
Q 21 -9.765625 23.484375 -3.21875 
L 25.09375 0.875 
L 2.984375 54.6875 
L 12.5 54.6875 
L 29.59375 11.921875 
L 46.6875 54.6875 
L 56.203125 54.6875 
z
" id="DejaVuSans-121"/>
     </defs>
     <g transform="translate(13.325625 231.553781)rotate(-90)scale(0.3 -0.3)">
      <use xlink:href="#DejaVuSans-68"/>
      <use x="77.001953" xlink:href="#DejaVuSans-101"/>
      <use x="138.525391" xlink:href="#DejaVuSans-110"/>
      <use x="201.904297" xlink:href="#DejaVuSans-115"/>
      <use x="254.003906" xlink:href="#DejaVuSans-105"/>
      <use x="281.787109" xlink:href="#DejaVuSans-116"/>
      <use x="320.996094" xlink:href="#DejaVuSans-121"/>
     </g>
    </g>
   </g>
   <g id="line2d_13">
    <path clip-path="url(#pc8efb1b614)" d="M 73.832727 307.584 
L 98.533433 307.473615 
L 98.871087 307.208344 
L 99.182768 306.658706 
L 99.598343 305.386758 
L 100.195731 303.636154 
L 100.416505 303.517585 
L 100.598319 303.691682 
L 100.94896 304.438469 
L 101.351547 305.093416 
L 101.546348 305.08502 
L 101.767122 304.803247 
L 102.221656 303.733362 
L 102.767098 302.670936 
L 103.130725 302.395513 
L 103.46838 302.410048 
L 104.039794 302.720717 
L 104.481342 302.844421 
L 104.754063 302.698616 
L 105.052757 302.255694 
L 105.585212 300.948385 
L 106.039746 300.112982 
L 106.403374 299.893502 
L 106.754015 299.639759 
L 107.078683 299.056699 
L 107.689058 297.939643 
L 107.883858 297.956588 
L 108.104632 298.261561 
L 108.520206 299.346293 
L 109.026688 300.458082 
L 109.260448 300.56405 
L 109.468236 300.399821 
L 109.779916 299.794103 
L 111.02664 297.026034 
L 111.247414 297.024212 
L 111.468188 297.295996 
L 112.351283 298.668777 
L 112.559071 298.434782 
L 113.610993 296.847946 
L 114.234355 296.668258 
L 114.546036 296.184876 
L 115.234331 295.024255 
L 115.429131 295.083243 
L 115.714839 295.490836 
L 116.091453 295.931393 
L 116.26028 295.844406 
L 116.468068 295.425545 
L 116.844682 294.031431 
L 118.156339 288.858062 
L 118.364126 288.715236 
L 118.519966 288.874265 
L 118.753727 289.500751 
L 119.234235 291.613767 
L 119.792663 293.700713 
L 120.078371 294.082184 
L 120.286158 294.054505 
L 120.571865 293.737702 
L 121.195227 292.623762 
L 121.857549 291.55391 
L 122.24715 291.359641 
L 122.584804 291.119931 
L 122.896485 290.549965 
L 124.389955 287.293222 
L 124.558782 287.367204 
L 124.76657 287.785146 
L 125.130197 289.159653 
L 125.636679 290.851404 
L 125.883426 291.072111 
L 126.117187 290.980498 
L 126.493801 290.842804 
L 126.688602 291.056148 
L 126.948336 291.765191 
L 127.493777 294.152678 
L 128.000258 295.894628 
L 128.285966 296.265905 
L 128.46778 296.209124 
L 128.675567 295.832947 
L 128.961274 294.76993 
L 129.441782 291.934887 
L 130.117091 288.203637 
L 130.402798 287.626452 
L 130.571625 287.64096 
L 130.805386 287.965232 
L 131.207974 288.482284 
L 131.363814 288.373285 
L 131.571601 287.844932 
L 131.987176 285.942757 
L 132.40275 284.463325 
L 132.662484 284.209008 
L 132.961178 284.279591 
L 133.246886 284.26584 
L 133.46766 284.01074 
L 133.766354 283.257575 
L 134.311795 281.090996 
L 134.72737 279.890608 
L 134.92217 279.800045 
L 135.090997 279.989977 
L 135.376705 280.741053 
L 136.065 283.391999 
L 136.974069 286.836206 
L 137.129909 286.847704 
L 137.28575 286.571015 
L 137.55847 285.504856 
L 138.298712 282.414614 
L 138.46754 282.366953 
L 138.62338 282.616234 
L 138.896101 283.58154 
L 139.636343 286.363763 
L 139.909063 286.626955 
L 140.116851 286.554017 
L 140.363598 286.19552 
L 140.714239 285.212189 
L 141.29864 283.582288 
L 141.467468 283.588185 
L 141.649281 283.921021 
L 142.337577 285.542736 
L 142.36355 285.528176 
L 142.51939 285.274156 
L 142.831071 284.185551 
L 143.220672 283.092876 
L 143.376513 283.075571 
L 143.54534 283.357592 
L 143.882994 284.5096 
L 144.363502 285.92487 
L 144.610249 286.11413 
L 144.84401 286.018144 
L 145.493345 285.657099 
L 146.168653 285.622325 
L 146.402414 285.175244 
L 146.727082 283.965359 
L 147.636151 280.259728 
L 147.830951 280.165273 
L 147.999778 280.353166 
L 148.285486 281.094336 
L 148.856901 282.557544 
L 149.025728 282.554427 
L 149.194555 282.233469 
L 149.441302 281.150372 
L 149.791943 278.443822 
L 151.02568 267.85515 
L 151.14256 267.813137 
L 151.168533 267.83972 
L 151.311387 268.207094 
L 151.571121 269.668634 
L 152.921738 278.57706 
L 153.142512 278.827903 
L 153.311339 278.707967 
L 153.921714 278.032326 
L 153.934701 278.043185 
L 154.116515 278.361834 
L 154.441182 279.519373 
L 155.233371 282.375077 
L 155.648945 283.16848 
L 155.843746 283.197725 
L 156.012573 282.943324 
L 156.246334 282.106836 
L 156.635935 279.706944 
L 157.48007 274.474552 
L 158.090445 272.308822 
L 158.77874 270.465221 
L 158.999514 270.34886 
L 159.168341 270.536442 
L 159.402102 271.199071 
L 159.830663 273.254746 
L 160.376105 275.57987 
L 160.661812 275.998765 
L 160.921546 276.013622 
L 161.479974 275.760739 
L 161.700748 275.361704 
L 161.960482 274.312267 
L 162.376057 271.449784 
L 163.038378 267.206815 
L 163.765634 264.256309 
L 164.051341 263.744374 
L 164.194195 263.796961 
L 164.376009 264.197416 
L 164.674703 265.538906 
L 165.999346 272.268937 
L 166.349987 272.937227 
L 166.713615 273.133644 
L 166.934389 273.381128 
L 167.155163 274.015647 
L 167.47983 275.764131 
L 168.038258 278.700516 
L 168.155139 278.779513 
L 168.181112 278.757628 
L 168.310979 278.419913 
L 168.518766 277.084966 
L 168.856421 273.175737 
L 169.856397 260.784842 
L 170.129117 259.811393 
L 170.284958 259.790321 
L 170.466772 260.119989 
L 170.934293 261.656736 
L 171.492721 263.120386 
L 172.921258 265.820111 
L 173.090085 265.744435 
L 173.297872 265.32614 
L 174.103048 263.106724 
L 174.167981 263.152524 
L 174.349795 263.53627 
L 175.103024 265.646747 
L 175.141984 265.626108 
L 175.297824 265.360889 
L 175.570545 264.347089 
L 176.21988 261.897801 
L 176.440654 261.753473 
L 176.622468 261.924946 
L 176.960122 262.650232 
L 177.40167 263.442001 
L 177.583484 263.429862 
L 177.765298 263.140335 
L 178.063992 262.148295 
L 178.570473 260.552173 
L 178.726314 260.541055 
L 178.882154 260.841612 
L 179.154875 261.965776 
L 179.76525 264.474676 
L 179.947063 264.542658 
L 180.102904 264.285086 
L 180.388611 263.268688 
L 181.089893 260.762002 
L 181.414561 259.488919 
L 181.700268 257.268978 
L 182.622324 249.027871 
L 182.713231 249.089639 
L 182.856085 249.582259 
L 183.167765 251.700423 
L 183.648273 254.590729 
L 183.908007 255.071582 
L 184.115795 255.065579 
L 184.544356 254.994474 
L 184.76513 255.25935 
L 185.167717 256.204338 
L 185.557318 256.887184 
L 185.739132 256.861307 
L 185.933933 256.53221 
L 186.2586 255.430086 
L 187.089749 252.472651 
L 187.32351 252.282163 
L 187.492337 252.413722 
L 187.752071 252.99276 
L 188.388419 254.506101 
L 188.557246 254.47736 
L 188.73906 254.155238 
L 189.024768 253.090807 
L 189.531249 250.128659 
L 190.609145 242.427488 
L 191.855869 232.697643 
L 192.32339 230.595278 
L 192.531177 230.344047 
L 192.661044 230.501031 
L 192.855845 231.217814 
L 193.180512 233.472681 
L 194.141528 240.592214 
L 194.751903 243.020901 
L 195.03761 243.531045 
L 195.154491 243.432371 
L 195.310331 242.875566 
L 195.531105 241.058285 
L 195.855773 236.154624 
L 196.712895 222.356564 
L 196.972629 221.307778 
L 197.102496 221.309102 
L 197.271323 221.673404 
L 197.583004 223.033565 
L 198.751807 228.781905 
L 198.972581 228.851622 
L 200.492025 228.423263 
L 200.868639 227.960136 
L 201.14136 227.194941 
L 201.453041 225.541085 
L 202.582884 218.669497 
L 202.738724 218.692593 
L 202.972485 219.070102 
L 203.375073 219.648915 
L 203.569873 219.593441 
L 203.868567 219.180044 
L 204.349075 218.603702 
L 205.089317 218.016046 
L 206.154227 216.573317 
L 206.375001 216.64889 
L 206.595775 217.01207 
L 206.881482 217.99857 
L 207.55679 220.452061 
L 207.712631 220.440321 
L 207.920418 220.085153 
L 208.387939 219.276279 
L 208.569753 219.338161 
L 209.348955 219.937816 
L 209.699596 219.894563 
L 209.88141 220.173124 
L 210.115171 221.040253 
L 210.465812 223.384661 
L 211.751495 232.989586 
L 212.024216 233.458177 
L 212.219016 233.445406 
L 212.47875 233.139164 
L 212.998218 232.083494 
L 213.66054 230.881917 
L 213.998194 230.674523 
L 214.257928 230.748709 
L 214.504676 231.079544 
L 214.76441 231.856225 
L 215.128037 233.787549 
L 215.608545 236.107833 
L 215.699452 236.154377 
L 215.738412 236.112153 
L 215.868279 235.671109 
L 216.076066 233.93074 
L 216.400734 228.874314 
L 217.192923 215.922077 
L 217.40071 215.277583 
L 217.491617 215.430397 
L 217.673431 216.32543 
L 218.413673 220.50634 
L 218.5825 220.562953 
L 218.751327 220.322175 
L 219.037034 219.458289 
L 219.426635 217.532605 
L 220.03701 213.130988 
L 221.33568 203.961081 
L 221.491521 203.779546 
L 221.517494 203.795734 
L 221.647361 204.087428 
L 221.855149 205.288571 
L 222.192803 208.880861 
L 222.907071 216.616853 
L 223.088885 216.97707 
L 223.101872 216.969914 
L 223.218752 216.730888 
L 223.465499 215.504519 
L 223.868087 213.75699 
L 223.958994 213.746673 
L 223.984968 213.778323 
L 224.127821 214.224537 
L 224.387555 216.003576 
L 224.99793 220.316191 
L 225.140784 220.470172 
L 225.166757 220.449549 
L 225.296624 220.124125 
L 225.517398 218.789698 
L 225.932973 214.527899 
L 226.582308 208.315229 
L 227.010869 206.260532 
L 227.47839 204.995711 
L 227.673191 204.895245 
L 227.816044 205.107256 
L 228.023832 205.911937 
L 228.426419 208.633572 
L 228.81602 210.673751 
L 228.971861 210.831196 
L 228.997834 210.815146 
L 229.140688 210.527413 
L 229.413409 209.292103 
L 229.99781 206.677995 
L 230.530265 205.018536 
L 230.777012 202.893044 
L 231.127653 197.503095 
L 231.738028 188.264354 
L 231.880882 187.813747 
L 231.919842 187.847161 
L 232.023736 188.246383 
L 232.231523 190.142236 
L 232.815924 195.778601 
L 232.880858 195.833068 
L 232.932805 195.7624 
L 233.062672 195.169099 
L 233.335392 192.557278 
L 233.77694 188.84011 
L 233.880834 188.711277 
L 233.919794 188.753387 
L 234.049661 189.214751 
L 234.478222 191.600136 
L 234.556142 191.418706 
L 234.673023 190.209438 
L 234.84185 185.665407 
L 235.07561 171.952698 
L 235.400278 136.972989 
L 236.114547 56.227726 
L 236.231427 54.144 
L 236.270387 54.478659 
L 236.374281 57.804557 
L 236.582068 73.63646 
L 237.698924 175.484173 
L 237.984632 181.0062 
L 238.218392 182.185872 
L 238.309299 182.165718 
L 238.322286 182.146009 
L 238.465139 181.686717 
L 238.711887 179.976679 
L 239.075514 175.656418 
L 239.95861 164.613642 
L 240.088477 164.365662 
L 240.127437 164.404297 
L 240.244318 164.837432 
L 240.452105 166.71714 
L 240.828719 172.658631 
L 241.750775 187.325826 
L 242.348163 193.620178 
L 242.841658 196.468256 
L 243.179312 198.912298 
L 243.54294 203.471472 
L 244.529929 216.820585 
L 244.76369 217.556732 
L 244.867583 217.496157 
L 245.023424 217.024521 
L 245.322118 215.247188 
L 246.633775 205.170389 
L 247.114283 201.479735 
L 247.24415 201.26677 
L 247.28311 201.297598 
L 247.39999 201.662649 
L 247.607777 203.266291 
L 248.049325 209.011047 
L 248.477886 213.348841 
L 248.711647 214.038499 
L 248.81554 213.973637 
L 248.997354 213.457545 
L 249.88045 210.406234 
L 250.581732 209.409466 
L 250.880426 208.162475 
L 251.789495 203.575381 
L 251.828455 203.596359 
L 251.945335 203.86538 
L 252.140136 204.99901 
L 252.503764 208.776812 
L 252.997258 213.244241 
L 253.153099 213.566545 
L 253.179072 213.553394 
L 253.282966 213.308279 
L 253.464779 212.178347 
L 253.802434 208.347219 
L 254.425795 201.543246 
L 254.633583 201.006819 
L 254.724489 201.135019 
L 254.893317 201.908054 
L 255.217984 204.731367 
L 255.750439 209.018332 
L 255.971213 209.502953 
L 256.10108 209.412844 
L 256.33484 208.828172 
L 256.711455 208.028128 
L 256.854308 208.092569 
L 257.036122 208.516023 
L 257.47767 210.341905 
L 258.828287 215.533987 
L 259.075034 215.869605 
L 259.204901 215.75621 
L 259.399702 215.19799 
L 259.750343 213.324267 
L 260.204877 211.225183 
L 260.321758 211.157268 
L 260.347731 211.179398 
L 260.477598 211.499387 
L 260.698372 212.772675 
L 261.425627 217.448052 
L 261.529521 217.444624 
L 261.542508 217.429675 
L 261.698348 217.045362 
L 262.191843 215.567381 
L 262.217816 215.580685 
L 262.334696 215.844265 
L 262.51651 216.964325 
L 262.815204 220.474056 
L 263.65934 231.045384 
L 263.906087 231.811081 
L 264.009981 231.736996 
L 264.165821 231.224108 
L 264.438542 229.395573 
L 265.230731 223.663985 
L 265.360598 223.542573 
L 265.386571 223.559198 
L 265.516438 223.844922 
L 265.737212 225.049811 
L 266.113827 228.644245 
L 267.59431 244.117568 
L 267.711191 244.250903 
L 267.750151 244.222203 
L 267.880018 243.865647 
L 268.100792 242.435701 
L 268.69818 236.389112 
L 269.074794 233.914848 
L 269.282582 233.586136 
L 269.399462 233.753126 
L 269.594262 234.552792 
L 269.95789 237.239172 
L 270.464371 240.527137 
L 270.646185 240.783658 
L 270.659172 240.778378 
L 270.776052 240.59477 
L 270.983839 239.745825 
L 271.905895 235.305556 
L 272.061736 235.303271 
L 272.24355 235.605241 
L 272.529257 236.623767 
L 272.957818 239.110127 
L 274.256488 247.345002 
L 274.477262 247.550751 
L 274.633103 247.387737 
L 274.866863 246.740449 
L 275.347371 244.56167 
L 275.788919 242.985858 
L 275.957746 242.895616 
L 275.970733 242.904945 
L 276.113587 243.171794 
L 276.33436 244.168319 
L 276.749935 247.370493 
L 277.28239 250.962686 
L 277.542124 251.540471 
L 277.684977 251.504995 
L 277.879778 251.137128 
L 278.282366 249.743919 
L 278.840794 248.042486 
L 279.074554 247.845405 
L 279.230395 247.990696 
L 279.425195 248.564442 
L 279.697916 250.18919 
L 280.295304 255.673859 
L 280.632959 257.577811 
L 280.788799 257.745686 
L 280.814772 257.729683 
L 280.957626 257.442766 
L 281.230347 256.221485 
L 282.035522 252.434624 
L 282.490057 251.414591 
L 282.931605 250.919253 
L 283.256272 250.823842 
L 283.451073 250.983419 
L 283.65886 251.490713 
L 283.918594 252.815555 
L 284.295208 256.10292 
L 284.99649 262.148015 
L 285.243238 262.759301 
L 285.373105 262.698739 
L 285.554918 262.254085 
L 285.905559 260.657995 
L 286.762682 256.692223 
L 286.957482 256.543099 
L 287.087349 256.75245 
L 287.28215 257.575211 
L 287.606817 260.138122 
L 288.334072 266.081789 
L 288.515886 266.351141 
L 288.528873 266.343836 
L 288.645753 266.124112 
L 288.85354 265.131929 
L 289.749623 260.088816 
L 289.866503 260.160667 
L 290.048317 260.646864 
L 291.087253 264.112563 
L 291.619708 264.68623 
L 291.957362 265.629997 
L 293.73654 272.15934 
L 294.983263 279.104897 
L 295.152091 279.127914 
L 295.320918 278.816054 
L 295.593638 277.705626 
L 296.788415 272.002449 
L 296.957242 271.994409 
L 297.152043 272.272025 
L 298.074098 273.95573 
L 298.333832 273.805761 
L 299.061088 273.293694 
L 299.437702 273.330491 
L 299.91821 273.632755 
L 300.398718 274.159976 
L 300.684425 274.84908 
L 301.02208 276.358765 
L 302.164909 282.179193 
L 302.424643 282.380178 
L 302.788271 282.307647 
L 303.086965 282.363481 
L 303.333712 282.677878 
L 303.632407 283.492301 
L 304.151875 285.758878 
L 304.515502 286.875687 
L 304.697316 286.927446 
L 304.866143 286.645352 
L 305.190811 285.523281 
L 305.658332 284.109174 
L 305.879106 283.968343 
L 306.06092 284.127224 
L 306.33364 284.741281 
L 306.762202 286.344364 
L 307.943991 291.085453 
L 308.203725 291.306804 
L 308.385539 291.199326 
L 308.632287 290.745524 
L 309.060848 289.380871 
L 309.80109 287.081078 
L 310.07381 286.832523 
L 310.255624 286.945975 
L 310.489385 287.427811 
L 310.865999 288.830779 
L 311.749095 292.214615 
L 312.32051 293.439484 
L 312.632191 293.695428 
L 312.839978 293.600176 
L 313.138672 293.146852 
L 313.723073 292.265307 
L 314.034754 292.184713 
L 315.307451 292.389895 
L 315.697052 292.714577 
L 316.554174 293.546463 
L 316.813908 293.415236 
L 317.424283 293.013822 
L 317.645057 293.205702 
L 318.086605 294.022409 
L 318.398286 294.353853 
L 318.606073 294.28178 
L 319.060608 293.729996 
L 319.333328 293.624386 
L 319.645009 293.802601 
L 319.891757 293.837346 
L 320.060584 293.610237 
L 320.294344 292.828445 
L 320.748879 290.253013 
L 321.151467 288.542496 
L 321.37224 288.31533 
L 321.541068 288.452236 
L 321.839762 289.085409 
L 322.956618 292.253909 
L 324.021528 295.647466 
L 324.177368 295.574458 
L 324.372168 295.152951 
L 324.748783 293.663813 
L 325.333184 291.572066 
L 325.748759 290.866376 
L 326.774708 289.83139 
L 327.112362 289.682585 
L 327.346123 289.816104 
L 327.631831 290.279126 
L 328.021432 291.38557 
L 328.527913 293.567667 
L 329.618796 298.51149 
L 329.982423 299.159064 
L 330.242157 299.242278 
L 330.501891 299.073873 
L 331.436934 298.269648 
L 331.683681 298.461992 
L 332.047309 299.091187 
L 333.307019 301.466919 
L 333.683633 301.78934 
L 333.930381 301.728123 
L 334.229075 301.374332 
L 335.151131 299.715874 
L 335.891373 298.088837 
L 336.410841 297.185395 
L 336.826415 296.900091 
L 337.618604 296.660542 
L 337.917298 296.825571 
L 338.631566 297.332818 
L 338.826367 297.122906 
L 339.099088 296.42216 
L 340.060104 293.555425 
L 340.202957 293.686269 
L 340.423731 294.285336 
L 340.813332 296.151589 
L 341.488641 299.23116 
L 341.800322 299.788808 
L 342.060056 299.860883 
L 342.47563 299.66825 
L 343.488593 298.995164 
L 343.943127 298.727488 
L 344.241821 298.807457 
L 344.87817 299.324732 
L 345.540492 299.991392 
L 346.202813 300.718873 
L 346.436574 300.650965 
L 346.735268 300.271874 
L 347.423563 299.343603 
L 347.657324 299.375184 
L 347.930045 299.677022 
L 348.826127 300.836247 
L 349.137808 300.807895 
L 350.540372 300.380538 
L 350.865039 300.550313 
L 351.189707 301.005011 
L 352.410457 303.045848 
L 352.981871 303.581135 
L 353.566273 304.596866 
L 354.176648 305.476369 
L 354.579236 305.718178 
L 354.851956 305.646074 
L 355.150651 305.295889 
L 355.786999 304.042315 
L 356.163613 303.607886 
L 356.423347 303.604832 
L 356.773988 303.86957 
L 357.735004 304.649693 
L 358.254472 304.819609 
L 358.69602 304.711315 
L 359.163541 304.639397 
L 359.449249 304.843459 
L 359.864823 305.478889 
L 360.475198 306.337076 
L 360.747919 306.384301 
L 360.994666 306.176578 
L 361.384267 305.476967 
L 361.942695 304.560338 
L 362.228403 304.46828 
L 362.540084 304.633454 
L 363.604993 305.35142 
L 364.319262 305.848884 
L 364.656916 305.930443 
L 364.942623 305.757945 
L 365.514038 305.038163 
L 365.981559 304.650565 
L 366.514014 304.529799 
L 367.124389 304.57991 
L 367.539964 304.858548 
L 368.7737 306.150097 
L 369.436022 306.663735 
L 370.851572 307.274625 
L 371.202213 307.12494 
L 372.332056 306.40825 
L 372.682697 306.700748 
L 373.513846 307.444067 
L 374.059288 307.566855 
L 375.760545 307.584 
L 398.487273 307.584 
L 398.487273 307.584 
" style="fill:none;stroke:#ff7f0e;stroke-linecap:square;stroke-width:1.5;"/>
   </g>
   <g id="patch_103">
    <path d="M 57.6 307.584 
L 57.6 41.472 
" style="fill:none;stroke:#000000;stroke-linecap:square;stroke-linejoin:miter;stroke-width:0.8;"/>
   </g>
   <g id="patch_104">
    <path d="M 414.72 307.584 
L 414.72 41.472 
" style="fill:none;stroke:#000000;stroke-linecap:square;stroke-linejoin:miter;stroke-width:0.8;"/>
   </g>
   <g id="patch_105">
    <path d="M 57.6 307.584 
L 414.72 307.584 
" style="fill:none;stroke:#000000;stroke-linecap:square;stroke-linejoin:miter;stroke-width:0.8;"/>
   </g>
   <g id="patch_106">
    <path d="M 57.6 41.472 
L 414.72 41.472 
" style="fill:none;stroke:#000000;stroke-linecap:square;stroke-linejoin:miter;stroke-width:0.8;"/>
   </g>
  </g>
 </g>
 <defs>
  <clipPath id="pc8efb1b614">
   <rect height="266.112" width="357.12" x="57.6" y="41.472"/>
  </clipPath>
 </defs>
</svg>
