<?xml version="1.0" encoding="utf-8" standalone="no"?>
<!DOCTYPE svg PUBLIC "-//W3C//DTD SVG 1.1//EN"
  "http://www.w3.org/Graphics/SVG/1.1/DTD/svg11.dtd">
<!-- Created with matplotlib (https://matplotlib.org/) -->
<svg height="345.6pt" version="1.1" viewBox="0 0 460.8 345.6" width="460.8pt" xmlns="http://www.w3.org/2000/svg" xmlns:xlink="http://www.w3.org/1999/xlink">
 <defs>
  <style type="text/css">
*{stroke-linecap:butt;stroke-linejoin:round;}
  </style>
 </defs>
 <g id="figure_1">
  <g id="patch_1">
   <path d="M 0 345.6 
L 460.8 345.6 
L 460.8 0 
L 0 0 
z
" style="fill:#ffffff;"/>
  </g>
  <g id="axes_1">
   <g id="patch_2">
    <path d="M 57.6 307.584 
L 414.72 307.584 
L 414.72 41.472 
L 57.6 41.472 
z
" style="fill:#ffffff;"/>
   </g>
   <g id="patch_3">
    <path clip-path="url(#pbd3c4903be)" d="M 100.169803 307.584 
L 102.88972 307.584 
L 102.88972 303.939172 
L 100.169803 303.939172 
z
" style="fill:#1f77b4;"/>
   </g>
   <g id="patch_4">
    <path clip-path="url(#pbd3c4903be)" d="M 102.889735 307.584 
L 105.609652 307.584 
L 105.609652 303.635437 
L 102.889735 303.635437 
z
" style="fill:#1f77b4;"/>
   </g>
   <g id="patch_5">
    <path clip-path="url(#pbd3c4903be)" d="M 105.609652 307.584 
L 108.329576 307.584 
L 108.329576 299.686896 
L 105.609652 299.686896 
z
" style="fill:#1f77b4;"/>
   </g>
   <g id="patch_6">
    <path clip-path="url(#pbd3c4903be)" d="M 108.329576 307.584 
L 111.049492 307.584 
L 111.049492 301.205552 
L 108.329576 301.205552 
z
" style="fill:#1f77b4;"/>
   </g>
   <g id="patch_7">
    <path clip-path="url(#pbd3c4903be)" d="M 111.049492 307.584 
L 113.769409 307.584 
L 113.769409 298.168195 
L 111.049492 298.168195 
z
" style="fill:#1f77b4;"/>
   </g>
   <g id="patch_8">
    <path clip-path="url(#pbd3c4903be)" d="M 113.769409 307.584 
L 116.489325 307.584 
L 116.489325 298.471931 
L 113.769409 298.471931 
z
" style="fill:#1f77b4;"/>
   </g>
   <g id="patch_9">
    <path clip-path="url(#pbd3c4903be)" d="M 116.489318 307.584 
L 119.209242 307.584 
L 119.209242 291.789792 
L 116.489318 291.789792 
z
" style="fill:#1f77b4;"/>
   </g>
   <g id="patch_10">
    <path clip-path="url(#pbd3c4903be)" d="M 119.20925 307.584 
L 121.929166 307.584 
L 121.929166 293.915896 
L 119.20925 293.915896 
z
" style="fill:#1f77b4;"/>
   </g>
   <g id="patch_11">
    <path clip-path="url(#pbd3c4903be)" d="M 121.929166 307.584 
L 124.649083 307.584 
L 124.649083 288.752391 
L 121.929166 288.752391 
z
" style="fill:#1f77b4;"/>
   </g>
   <g id="patch_12">
    <path clip-path="url(#pbd3c4903be)" d="M 124.649083 307.584 
L 127.368999 307.584 
L 127.368999 292.700954 
L 124.649083 292.700954 
z
" style="fill:#1f77b4;"/>
   </g>
   <g id="patch_13">
    <path clip-path="url(#pbd3c4903be)" d="M 127.368999 307.584 
L 130.088923 307.584 
L 130.088923 295.434609 
L 127.368999 295.434609 
z
" style="fill:#1f77b4;"/>
   </g>
   <g id="patch_14">
    <path clip-path="url(#pbd3c4903be)" d="M 130.088923 307.584 
L 132.80884 307.584 
L 132.80884 288.144919 
L 130.088923 288.144919 
z
" style="fill:#1f77b4;"/>
   </g>
   <g id="patch_15">
    <path clip-path="url(#pbd3c4903be)" d="M 132.80884 307.584 
L 135.528756 307.584 
L 135.528756 286.01877 
L 132.80884 286.01877 
z
" style="fill:#1f77b4;"/>
   </g>
   <g id="patch_16">
    <path clip-path="url(#pbd3c4903be)" d="M 135.528756 307.584 
L 138.248673 307.584 
L 138.248673 287.841184 
L 135.528756 287.841184 
z
" style="fill:#1f77b4;"/>
   </g>
   <g id="patch_17">
    <path clip-path="url(#pbd3c4903be)" d="M 138.248665 307.584 
L 140.968589 307.584 
L 140.968589 288.448709 
L 138.248665 288.448709 
z
" style="fill:#1f77b4;"/>
   </g>
   <g id="patch_18">
    <path clip-path="url(#pbd3c4903be)" d="M 140.968597 307.584 
L 143.688514 307.584 
L 143.688514 284.803827 
L 140.968597 284.803827 
z
" style="fill:#1f77b4;"/>
   </g>
   <g id="patch_19">
    <path clip-path="url(#pbd3c4903be)" d="M 143.688514 307.584 
L 146.40843 307.584 
L 146.40843 288.448655 
L 143.688514 288.448655 
z
" style="fill:#1f77b4;"/>
   </g>
   <g id="patch_20">
    <path clip-path="url(#pbd3c4903be)" d="M 146.40843 307.584 
L 149.128347 307.584 
L 149.128347 285.107563 
L 146.40843 285.107563 
z
" style="fill:#1f77b4;"/>
   </g>
   <g id="patch_21">
    <path clip-path="url(#pbd3c4903be)" d="M 149.128347 307.584 
L 151.848271 307.584 
L 151.848271 276.906788 
L 149.128347 276.906788 
z
" style="fill:#1f77b4;"/>
   </g>
   <g id="patch_22">
    <path clip-path="url(#pbd3c4903be)" d="M 151.848271 307.584 
L 154.568187 307.584 
L 154.568187 279.336586 
L 151.848271 279.336586 
z
" style="fill:#1f77b4;"/>
   </g>
   <g id="patch_23">
    <path clip-path="url(#pbd3c4903be)" d="M 154.568187 307.584 
L 157.288104 307.584 
L 157.288104 285.107563 
L 154.568187 285.107563 
z
" style="fill:#1f77b4;"/>
   </g>
   <g id="patch_24">
    <path clip-path="url(#pbd3c4903be)" d="M 157.288104 307.584 
L 160.00802 307.584 
L 160.00802 275.691758 
L 157.288104 275.691758 
z
" style="fill:#1f77b4;"/>
   </g>
   <g id="patch_25">
    <path clip-path="url(#pbd3c4903be)" d="M 160.008013 307.584 
L 162.727937 307.584 
L 162.727937 279.032932 
L 160.008013 279.032932 
z
" style="fill:#1f77b4;"/>
   </g>
   <g id="patch_26">
    <path clip-path="url(#pbd3c4903be)" d="M 162.727944 307.584 
L 165.447861 307.584 
L 165.447861 272.350666 
L 162.727944 272.350666 
z
" style="fill:#1f77b4;"/>
   </g>
   <g id="patch_27">
    <path clip-path="url(#pbd3c4903be)" d="M 165.447861 307.584 
L 168.167777 307.584 
L 168.167777 278.729115 
L 165.447861 278.729115 
z
" style="fill:#1f77b4;"/>
   </g>
   <g id="patch_28">
    <path clip-path="url(#pbd3c4903be)" d="M 168.167777 307.584 
L 170.887694 307.584 
L 170.887694 272.046931 
L 168.167777 272.046931 
z
" style="fill:#1f77b4;"/>
   </g>
   <g id="patch_29">
    <path clip-path="url(#pbd3c4903be)" d="M 170.887694 307.584 
L 173.607614 307.584 
L 173.607614 269.6171 
L 170.887694 269.6171 
z
" style="fill:#1f77b4;"/>
   </g>
   <g id="patch_30">
    <path clip-path="url(#pbd3c4903be)" d="M 173.607614 307.584 
L 176.327531 307.584 
L 176.327531 267.794632 
L 173.607614 267.794632 
z
" style="fill:#1f77b4;"/>
   </g>
   <g id="patch_31">
    <path clip-path="url(#pbd3c4903be)" d="M 176.327535 307.584 
L 179.047455 307.584 
L 179.047455 265.972277 
L 176.327535 265.972277 
z
" style="fill:#1f77b4;"/>
   </g>
   <g id="patch_32">
    <path clip-path="url(#pbd3c4903be)" d="M 179.047451 307.584 
L 181.767368 307.584 
L 181.767368 269.009574 
L 179.047451 269.009574 
z
" style="fill:#1f77b4;"/>
   </g>
   <g id="patch_33">
    <path clip-path="url(#pbd3c4903be)" d="M 181.767368 307.584 
L 184.487288 307.584 
L 184.487288 257.771427 
L 181.767368 257.771427 
z
" style="fill:#1f77b4;"/>
   </g>
   <g id="patch_34">
    <path clip-path="url(#pbd3c4903be)" d="M 184.487288 307.584 
L 187.207205 307.584 
L 187.207205 260.808712 
L 184.487288 260.808712 
z
" style="fill:#1f77b4;"/>
   </g>
   <g id="patch_35">
    <path clip-path="url(#pbd3c4903be)" d="M 187.207208 307.584 
L 189.927129 307.584 
L 189.927129 257.163956 
L 187.207208 257.163956 
z
" style="fill:#1f77b4;"/>
   </g>
   <g id="patch_36">
    <path clip-path="url(#pbd3c4903be)" d="M 189.927125 307.584 
L 192.647041 307.584 
L 192.647041 243.799517 
L 189.927125 243.799517 
z
" style="fill:#1f77b4;"/>
   </g>
   <g id="patch_37">
    <path clip-path="url(#pbd3c4903be)" d="M 192.647041 307.584 
L 195.366962 307.584 
L 195.366962 241.977196 
L 192.647041 241.977196 
z
" style="fill:#1f77b4;"/>
   </g>
   <g id="patch_38">
    <path clip-path="url(#pbd3c4903be)" d="M 195.366962 307.584 
L 198.086878 307.584 
L 198.086878 227.701528 
L 195.366962 227.701528 
z
" style="fill:#1f77b4;"/>
   </g>
   <g id="patch_39">
    <path clip-path="url(#pbd3c4903be)" d="M 198.086882 307.584 
L 200.806802 307.584 
L 200.806802 231.953934 
L 198.086882 231.953934 
z
" style="fill:#1f77b4;"/>
   </g>
   <g id="patch_40">
    <path clip-path="url(#pbd3c4903be)" d="M 200.806799 307.584 
L 203.526715 307.584 
L 203.526715 226.486585 
L 200.806799 226.486585 
z
" style="fill:#1f77b4;"/>
   </g>
   <g id="patch_41">
    <path clip-path="url(#pbd3c4903be)" d="M 203.526715 307.584 
L 206.246633 307.584 
L 206.246633 221.019405 
L 203.526715 221.019405 
z
" style="fill:#1f77b4;"/>
   </g>
   <g id="patch_42">
    <path clip-path="url(#pbd3c4903be)" d="M 206.246635 307.584 
L 208.966554 307.584 
L 208.966554 222.841818 
L 206.246635 222.841818 
z
" style="fill:#1f77b4;"/>
   </g>
   <g id="patch_43">
    <path clip-path="url(#pbd3c4903be)" d="M 208.966552 307.584 
L 211.68647 307.584 
L 211.68647 226.486643 
L 208.966552 226.486643 
z
" style="fill:#1f77b4;"/>
   </g>
   <g id="patch_44">
    <path clip-path="url(#pbd3c4903be)" d="M 211.686472 307.584 
L 214.406391 307.584 
L 214.406391 233.776293 
L 211.686472 233.776293 
z
" style="fill:#1f77b4;"/>
   </g>
   <g id="patch_45">
    <path clip-path="url(#pbd3c4903be)" d="M 214.406389 307.584 
L 217.126307 307.584 
L 217.126307 233.472558 
L 214.406389 233.472558 
z
" style="fill:#1f77b4;"/>
   </g>
   <g id="patch_46">
    <path clip-path="url(#pbd3c4903be)" d="M 217.126309 307.584 
L 219.846228 307.584 
L 219.846228 221.323141 
L 217.126309 221.323141 
z
" style="fill:#1f77b4;"/>
   </g>
   <g id="patch_47">
    <path clip-path="url(#pbd3c4903be)" d="M 219.846226 307.584 
L 222.566144 307.584 
L 222.566144 208.566253 
L 219.846226 208.566253 
z
" style="fill:#1f77b4;"/>
   </g>
   <g id="patch_48">
    <path clip-path="url(#pbd3c4903be)" d="M 222.566144 307.584 
L 225.286062 307.584 
L 225.286062 221.930612 
L 222.566144 221.930612 
z
" style="fill:#1f77b4;"/>
   </g>
   <g id="patch_49">
    <path clip-path="url(#pbd3c4903be)" d="M 225.286062 307.584 
L 228.005981 307.584 
L 228.005981 214.640962 
L 225.286062 214.640962 
z
" style="fill:#1f77b4;"/>
   </g>
   <g id="patch_50">
    <path clip-path="url(#pbd3c4903be)" d="M 228.005981 307.584 
L 230.725899 307.584 
L 230.725899 207.047576 
L 228.005981 207.047576 
z
" style="fill:#1f77b4;"/>
   </g>
   <g id="patch_51">
    <path clip-path="url(#pbd3c4903be)" d="M 230.725899 307.584 
L 233.445818 307.584 
L 233.445818 196.416836 
L 230.725899 196.416836 
z
" style="fill:#1f77b4;"/>
   </g>
   <g id="patch_52">
    <path clip-path="url(#pbd3c4903be)" d="M 233.445818 307.584 
L 236.165736 307.584 
L 236.165736 107.118623 
L 233.445818 107.118623 
z
" style="fill:#1f77b4;"/>
   </g>
   <g id="patch_53">
    <path clip-path="url(#pbd3c4903be)" d="M 236.165736 307.584 
L 238.885655 307.584 
L 238.885655 193.075747 
L 236.165736 193.075747 
z
" style="fill:#1f77b4;"/>
   </g>
   <g id="patch_54">
    <path clip-path="url(#pbd3c4903be)" d="M 238.885655 307.584 
L 241.605573 307.584 
L 241.605573 172.421738 
L 238.885655 172.421738 
z
" style="fill:#1f77b4;"/>
   </g>
   <g id="patch_55">
    <path clip-path="url(#pbd3c4903be)" d="M 241.605573 307.584 
L 244.325491 307.584 
L 244.325491 202.491545 
L 241.605573 202.491545 
z
" style="fill:#1f77b4;"/>
   </g>
   <g id="patch_56">
    <path clip-path="url(#pbd3c4903be)" d="M 244.325491 307.584 
L 247.04541 307.584 
L 247.04541 212.818549 
L 244.325491 212.818549 
z
" style="fill:#1f77b4;"/>
   </g>
   <g id="patch_57">
    <path clip-path="url(#pbd3c4903be)" d="M 247.04541 307.584 
L 249.765328 307.584 
L 249.765328 202.491545 
L 247.04541 202.491545 
z
" style="fill:#1f77b4;"/>
   </g>
   <g id="patch_58">
    <path clip-path="url(#pbd3c4903be)" d="M 249.765328 307.584 
L 252.485247 307.584 
L 252.485247 204.921428 
L 249.765328 204.921428 
z
" style="fill:#1f77b4;"/>
   </g>
   <g id="patch_59">
    <path clip-path="url(#pbd3c4903be)" d="M 252.485247 307.584 
L 255.205165 307.584 
L 255.205165 208.566253 
L 252.485247 208.566253 
z
" style="fill:#1f77b4;"/>
   </g>
   <g id="patch_60">
    <path clip-path="url(#pbd3c4903be)" d="M 255.205167 307.584 
L 257.925086 307.584 
L 257.925086 214.337226 
L 255.205167 214.337226 
z
" style="fill:#1f77b4;"/>
   </g>
   <g id="patch_61">
    <path clip-path="url(#pbd3c4903be)" d="M 257.925084 307.584 
L 260.645002 307.584 
L 260.645002 209.173724 
L 257.925084 209.173724 
z
" style="fill:#1f77b4;"/>
   </g>
   <g id="patch_62">
    <path clip-path="url(#pbd3c4903be)" d="M 260.645004 307.584 
L 263.364922 307.584 
L 263.364922 219.196993 
L 260.645004 219.196993 
z
" style="fill:#1f77b4;"/>
   </g>
   <g id="patch_63">
    <path clip-path="url(#pbd3c4903be)" d="M 263.36492 307.584 
L 266.084839 307.584 
L 266.084839 223.145553 
L 263.36492 223.145553 
z
" style="fill:#1f77b4;"/>
   </g>
   <g id="patch_64">
    <path clip-path="url(#pbd3c4903be)" d="M 266.084841 307.584 
L 268.804757 307.584 
L 268.804757 236.206176 
L 266.084841 236.206176 
z
" style="fill:#1f77b4;"/>
   </g>
   <g id="patch_65">
    <path clip-path="url(#pbd3c4903be)" d="M 268.804757 307.584 
L 271.524674 307.584 
L 271.524674 231.346355 
L 268.804757 231.346355 
z
" style="fill:#1f77b4;"/>
   </g>
   <g id="patch_66">
    <path clip-path="url(#pbd3c4903be)" d="M 271.524674 307.584 
L 274.244594 307.584 
L 274.244594 233.168875 
L 271.524674 233.168875 
z
" style="fill:#1f77b4;"/>
   </g>
   <g id="patch_67">
    <path clip-path="url(#pbd3c4903be)" d="M 274.244594 307.584 
L 276.964511 307.584 
L 276.964511 235.90239 
L 274.244594 235.90239 
z
" style="fill:#1f77b4;"/>
   </g>
   <g id="patch_68">
    <path clip-path="url(#pbd3c4903be)" d="M 276.964515 307.584 
L 279.684435 307.584 
L 279.684435 242.888402 
L 276.964515 242.888402 
z
" style="fill:#1f77b4;"/>
   </g>
   <g id="patch_69">
    <path clip-path="url(#pbd3c4903be)" d="M 279.684431 307.584 
L 282.404348 307.584 
L 282.404348 252.000379 
L 279.684431 252.000379 
z
" style="fill:#1f77b4;"/>
   </g>
   <g id="patch_70">
    <path clip-path="url(#pbd3c4903be)" d="M 282.404348 307.584 
L 285.124268 307.584 
L 285.124268 247.140695 
L 282.404348 247.140695 
z
" style="fill:#1f77b4;"/>
   </g>
   <g id="patch_71">
    <path clip-path="url(#pbd3c4903be)" d="M 285.124268 307.584 
L 287.844184 307.584 
L 287.844184 249.570494 
L 285.124268 249.570494 
z
" style="fill:#1f77b4;"/>
   </g>
   <g id="patch_72">
    <path clip-path="url(#pbd3c4903be)" d="M 287.844188 307.584 
L 290.564109 307.584 
L 290.564109 251.696723 
L 287.844188 251.696723 
z
" style="fill:#1f77b4;"/>
   </g>
   <g id="patch_73">
    <path clip-path="url(#pbd3c4903be)" d="M 290.564105 307.584 
L 293.284021 307.584 
L 293.284021 256.556413 
L 290.564105 256.556413 
z
" style="fill:#1f77b4;"/>
   </g>
   <g id="patch_74">
    <path clip-path="url(#pbd3c4903be)" d="M 293.284021 307.584 
L 296.003942 307.584 
L 296.003942 270.22457 
L 293.284021 270.22457 
z
" style="fill:#1f77b4;"/>
   </g>
   <g id="patch_75">
    <path clip-path="url(#pbd3c4903be)" d="M 296.003942 307.584 
L 298.723858 307.584 
L 298.723858 265.364747 
L 296.003942 265.364747 
z
" style="fill:#1f77b4;"/>
   </g>
   <g id="patch_76">
    <path clip-path="url(#pbd3c4903be)" d="M 298.723862 307.584 
L 301.443778 307.584 
L 301.443778 269.6171 
L 298.723862 269.6171 
z
" style="fill:#1f77b4;"/>
   </g>
   <g id="patch_77">
    <path clip-path="url(#pbd3c4903be)" d="M 301.443778 307.584 
L 304.163695 307.584 
L 304.163695 275.691758 
L 301.443778 275.691758 
z
" style="fill:#1f77b4;"/>
   </g>
   <g id="patch_78">
    <path clip-path="url(#pbd3c4903be)" d="M 304.163695 307.584 
L 306.883611 307.584 
L 306.883611 280.855264 
L 304.163695 280.855264 
z
" style="fill:#1f77b4;"/>
   </g>
   <g id="patch_79">
    <path clip-path="url(#pbd3c4903be)" d="M 306.883611 307.584 
L 309.603528 307.584 
L 309.603528 286.626241 
L 306.883611 286.626241 
z
" style="fill:#1f77b4;"/>
   </g>
   <g id="patch_80">
    <path clip-path="url(#pbd3c4903be)" d="M 309.603528 307.584 
L 312.323452 307.584 
L 312.323452 286.626301 
L 309.603528 286.626301 
z
" style="fill:#1f77b4;"/>
   </g>
   <g id="patch_81">
    <path clip-path="url(#pbd3c4903be)" d="M 312.323452 307.584 
L 315.043369 307.584 
L 315.043369 291.486011 
L 312.323452 291.486011 
z
" style="fill:#1f77b4;"/>
   </g>
   <g id="patch_82">
    <path clip-path="url(#pbd3c4903be)" d="M 315.043369 307.584 
L 317.763285 307.584 
L 317.763285 292.093483 
L 315.043369 292.093483 
z
" style="fill:#1f77b4;"/>
   </g>
   <g id="patch_83">
    <path clip-path="url(#pbd3c4903be)" d="M 317.763285 307.584 
L 320.483202 307.584 
L 320.483202 292.093483 
L 317.763285 292.093483 
z
" style="fill:#1f77b4;"/>
   </g>
   <g id="patch_84">
    <path clip-path="url(#pbd3c4903be)" d="M 320.483194 307.584 
L 323.203118 307.584 
L 323.203118 284.500157 
L 320.483194 284.500157 
z
" style="fill:#1f77b4;"/>
   </g>
   <g id="patch_85">
    <path clip-path="url(#pbd3c4903be)" d="M 323.203126 307.584 
L 325.923042 307.584 
L 325.923042 290.574804 
L 323.203126 290.574804 
z
" style="fill:#1f77b4;"/>
   </g>
   <g id="patch_86">
    <path clip-path="url(#pbd3c4903be)" d="M 325.923042 307.584 
L 328.642959 307.584 
L 328.642959 287.233712 
L 325.923042 287.233712 
z
" style="fill:#1f77b4;"/>
   </g>
   <g id="patch_87">
    <path clip-path="url(#pbd3c4903be)" d="M 328.642959 307.584 
L 331.362875 307.584 
L 331.362875 293.612161 
L 328.642959 293.612161 
z
" style="fill:#1f77b4;"/>
   </g>
   <g id="patch_88">
    <path clip-path="url(#pbd3c4903be)" d="M 331.362875 307.584 
L 334.0828 307.584 
L 334.0828 297.560753 
L 331.362875 297.560753 
z
" style="fill:#1f77b4;"/>
   </g>
   <g id="patch_89">
    <path clip-path="url(#pbd3c4903be)" d="M 334.0828 307.584 
L 336.802716 307.584 
L 336.802716 295.434575 
L 334.0828 295.434575 
z
" style="fill:#1f77b4;"/>
   </g>
   <g id="patch_90">
    <path clip-path="url(#pbd3c4903be)" d="M 336.802716 307.584 
L 339.522633 307.584 
L 339.522633 296.345781 
L 336.802716 296.345781 
z
" style="fill:#1f77b4;"/>
   </g>
   <g id="patch_91">
    <path clip-path="url(#pbd3c4903be)" d="M 339.522633 307.584 
L 342.242549 307.584 
L 342.242549 295.130839 
L 339.522633 295.130839 
z
" style="fill:#1f77b4;"/>
   </g>
   <g id="patch_92">
    <path clip-path="url(#pbd3c4903be)" d="M 342.242541 307.584 
L 344.962466 307.584 
L 344.962466 298.168222 
L 342.242541 298.168222 
z
" style="fill:#1f77b4;"/>
   </g>
   <g id="patch_93">
    <path clip-path="url(#pbd3c4903be)" d="M 344.962473 307.584 
L 347.68239 307.584 
L 347.68239 297.560724 
L 344.962473 297.560724 
z
" style="fill:#1f77b4;"/>
   </g>
   <g id="patch_94">
    <path clip-path="url(#pbd3c4903be)" d="M 347.68239 307.584 
L 350.402306 307.584 
L 350.402306 299.079402 
L 347.68239 299.079402 
z
" style="fill:#1f77b4;"/>
   </g>
   <g id="patch_95">
    <path clip-path="url(#pbd3c4903be)" d="M 350.402306 307.584 
L 353.122223 307.584 
L 353.122223 300.901816 
L 350.402306 300.901816 
z
" style="fill:#1f77b4;"/>
   </g>
   <g id="patch_96">
    <path clip-path="url(#pbd3c4903be)" d="M 353.122223 307.584 
L 355.842147 307.584 
L 355.842147 302.724244 
L 353.122223 302.724244 
z
" style="fill:#1f77b4;"/>
   </g>
   <g id="patch_97">
    <path clip-path="url(#pbd3c4903be)" d="M 355.842147 307.584 
L 358.562063 307.584 
L 358.562063 300.59808 
L 355.842147 300.59808 
z
" style="fill:#1f77b4;"/>
   </g>
   <g id="patch_98">
    <path clip-path="url(#pbd3c4903be)" d="M 358.562063 307.584 
L 361.28198 307.584 
L 361.28198 304.546644 
L 358.562063 304.546644 
z
" style="fill:#1f77b4;"/>
   </g>
   <g id="patch_99">
    <path clip-path="url(#pbd3c4903be)" d="M 361.28198 307.584 
L 364.001896 307.584 
L 364.001896 303.331701 
L 361.28198 303.331701 
z
" style="fill:#1f77b4;"/>
   </g>
   <g id="patch_100">
    <path clip-path="url(#pbd3c4903be)" d="M 364.001889 307.584 
L 366.721805 307.584 
L 366.721805 304.546652 
L 364.001889 304.546652 
z
" style="fill:#1f77b4;"/>
   </g>
   <g id="patch_101">
    <path clip-path="url(#pbd3c4903be)" d="M 366.721805 307.584 
L 369.441722 307.584 
L 369.441722 305.457851 
L 366.721805 305.457851 
z
" style="fill:#1f77b4;"/>
   </g>
   <g id="patch_102">
    <path clip-path="url(#pbd3c4903be)" d="M 369.441737 307.584 
L 372.161654 307.584 
L 372.161654 304.850379 
L 369.441737 304.850379 
z
" style="fill:#1f77b4;"/>
   </g>
   <g id="matplotlib.axis_1">
    <g id="xtick_1">
     <g id="line2d_1">
      <defs>
       <path d="M 0 0 
L 0 3.5 
" id="mf4c5b67cb3" style="stroke:#000000;stroke-width:0.8;"/>
      </defs>
      <g>
       <use style="stroke:#000000;stroke-width:0.8;" x="106.299264" xlink:href="#mf4c5b67cb3" y="307.584"/>
      </g>
     </g>
     <g id="text_1">
      <!-- −2 -->
      <defs>
       <path d="M 10.59375 35.5 
L 73.1875 35.5 
L 73.1875 27.203125 
L 10.59375 27.203125 
z
" id="DejaVuSans-8722"/>
       <path d="M 19.1875 8.296875 
L 53.609375 8.296875 
L 53.609375 0 
L 7.328125 0 
L 7.328125 8.296875 
Q 12.9375 14.109375 22.625 23.890625 
Q 32.328125 33.6875 34.8125 36.53125 
Q 39.546875 41.84375 41.421875 45.53125 
Q 43.3125 49.21875 43.3125 52.78125 
Q 43.3125 58.59375 39.234375 62.25 
Q 35.15625 65.921875 28.609375 65.921875 
Q 23.96875 65.921875 18.8125 64.3125 
Q 13.671875 62.703125 7.8125 59.421875 
L 7.8125 69.390625 
Q 13.765625 71.78125 18.9375 73 
Q 24.125 74.21875 28.421875 74.21875 
Q 39.75 74.21875 46.484375 68.546875 
Q 53.21875 62.890625 53.21875 53.421875 
Q 53.21875 48.921875 51.53125 44.890625 
Q 49.859375 40.875 45.40625 35.40625 
Q 44.1875 33.984375 37.640625 27.21875 
Q 31.109375 20.453125 19.1875 8.296875 
z
" id="DejaVuSans-50"/>
      </defs>
      <g transform="translate(93.768405 327.501344)scale(0.17 -0.17)">
       <use xlink:href="#DejaVuSans-8722"/>
       <use x="83.789062" xlink:href="#DejaVuSans-50"/>
      </g>
     </g>
    </g>
    <g id="xtick_2">
     <g id="line2d_2">
      <g>
       <use style="stroke:#000000;stroke-width:0.8;" x="171.232338" xlink:href="#mf4c5b67cb3" y="307.584"/>
      </g>
     </g>
     <g id="text_2">
      <!-- −1 -->
      <defs>
       <path d="M 12.40625 8.296875 
L 28.515625 8.296875 
L 28.515625 63.921875 
L 10.984375 60.40625 
L 10.984375 69.390625 
L 28.421875 72.90625 
L 38.28125 72.90625 
L 38.28125 8.296875 
L 54.390625 8.296875 
L 54.390625 0 
L 12.40625 0 
z
" id="DejaVuSans-49"/>
      </defs>
      <g transform="translate(158.701478 327.501344)scale(0.17 -0.17)">
       <use xlink:href="#DejaVuSans-8722"/>
       <use x="83.789062" xlink:href="#DejaVuSans-49"/>
      </g>
     </g>
    </g>
    <g id="xtick_3">
     <g id="line2d_3">
      <g>
       <use style="stroke:#000000;stroke-width:0.8;" x="236.165411" xlink:href="#mf4c5b67cb3" y="307.584"/>
      </g>
     </g>
     <g id="text_3">
      <!-- 0 -->
      <defs>
       <path d="M 31.78125 66.40625 
Q 24.171875 66.40625 20.328125 58.90625 
Q 16.5 51.421875 16.5 36.375 
Q 16.5 21.390625 20.328125 13.890625 
Q 24.171875 6.390625 31.78125 6.390625 
Q 39.453125 6.390625 43.28125 13.890625 
Q 47.125 21.390625 47.125 36.375 
Q 47.125 51.421875 43.28125 58.90625 
Q 39.453125 66.40625 31.78125 66.40625 
z
M 31.78125 74.21875 
Q 44.046875 74.21875 50.515625 64.515625 
Q 56.984375 54.828125 56.984375 36.375 
Q 56.984375 17.96875 50.515625 8.265625 
Q 44.046875 -1.421875 31.78125 -1.421875 
Q 19.53125 -1.421875 13.0625 8.265625 
Q 6.59375 17.96875 6.59375 36.375 
Q 6.59375 54.828125 13.0625 64.515625 
Q 19.53125 74.21875 31.78125 74.21875 
z
" id="DejaVuSans-48"/>
      </defs>
      <g transform="translate(230.757286 327.501344)scale(0.17 -0.17)">
       <use xlink:href="#DejaVuSans-48"/>
      </g>
     </g>
    </g>
    <g id="xtick_4">
     <g id="line2d_4">
      <g>
       <use style="stroke:#000000;stroke-width:0.8;" x="301.098485" xlink:href="#mf4c5b67cb3" y="307.584"/>
      </g>
     </g>
     <g id="text_4">
      <!-- 1 -->
      <g transform="translate(295.69036 327.501344)scale(0.17 -0.17)">
       <use xlink:href="#DejaVuSans-49"/>
      </g>
     </g>
    </g>
    <g id="xtick_5">
     <g id="line2d_5">
      <g>
       <use style="stroke:#000000;stroke-width:0.8;" x="366.031558" xlink:href="#mf4c5b67cb3" y="307.584"/>
      </g>
     </g>
     <g id="text_5">
      <!-- 2 -->
      <g transform="translate(360.623433 327.501344)scale(0.17 -0.17)">
       <use xlink:href="#DejaVuSans-50"/>
      </g>
     </g>
    </g>
    <g id="text_6">
     <!-- Position in Radian -->
     <defs>
      <path d="M 19.671875 64.796875 
L 19.671875 37.40625 
L 32.078125 37.40625 
Q 38.96875 37.40625 42.71875 40.96875 
Q 46.484375 44.53125 46.484375 51.125 
Q 46.484375 57.671875 42.71875 61.234375 
Q 38.96875 64.796875 32.078125 64.796875 
z
M 9.8125 72.90625 
L 32.078125 72.90625 
Q 44.34375 72.90625 50.609375 67.359375 
Q 56.890625 61.8125 56.890625 51.125 
Q 56.890625 40.328125 50.609375 34.8125 
Q 44.34375 29.296875 32.078125 29.296875 
L 19.671875 29.296875 
L 19.671875 0 
L 9.8125 0 
z
" id="DejaVuSans-80"/>
      <path d="M 30.609375 48.390625 
Q 23.390625 48.390625 19.1875 42.75 
Q 14.984375 37.109375 14.984375 27.296875 
Q 14.984375 17.484375 19.15625 11.84375 
Q 23.34375 6.203125 30.609375 6.203125 
Q 37.796875 6.203125 41.984375 11.859375 
Q 46.1875 17.53125 46.1875 27.296875 
Q 46.1875 37.015625 41.984375 42.703125 
Q 37.796875 48.390625 30.609375 48.390625 
z
M 30.609375 56 
Q 42.328125 56 49.015625 48.375 
Q 55.71875 40.765625 55.71875 27.296875 
Q 55.71875 13.875 49.015625 6.21875 
Q 42.328125 -1.421875 30.609375 -1.421875 
Q 18.84375 -1.421875 12.171875 6.21875 
Q 5.515625 13.875 5.515625 27.296875 
Q 5.515625 40.765625 12.171875 48.375 
Q 18.84375 56 30.609375 56 
z
" id="DejaVuSans-111"/>
      <path d="M 44.28125 53.078125 
L 44.28125 44.578125 
Q 40.484375 46.53125 36.375 47.5 
Q 32.28125 48.484375 27.875 48.484375 
Q 21.1875 48.484375 17.84375 46.4375 
Q 14.5 44.390625 14.5 40.28125 
Q 14.5 37.15625 16.890625 35.375 
Q 19.28125 33.59375 26.515625 31.984375 
L 29.59375 31.296875 
Q 39.15625 29.25 43.1875 25.515625 
Q 47.21875 21.78125 47.21875 15.09375 
Q 47.21875 7.46875 41.1875 3.015625 
Q 35.15625 -1.421875 24.609375 -1.421875 
Q 20.21875 -1.421875 15.453125 -0.5625 
Q 10.6875 0.296875 5.421875 2 
L 5.421875 11.28125 
Q 10.40625 8.6875 15.234375 7.390625 
Q 20.0625 6.109375 24.8125 6.109375 
Q 31.15625 6.109375 34.5625 8.28125 
Q 37.984375 10.453125 37.984375 14.40625 
Q 37.984375 18.0625 35.515625 20.015625 
Q 33.0625 21.96875 24.703125 23.78125 
L 21.578125 24.515625 
Q 13.234375 26.265625 9.515625 29.90625 
Q 5.8125 33.546875 5.8125 39.890625 
Q 5.8125 47.609375 11.28125 51.796875 
Q 16.75 56 26.8125 56 
Q 31.78125 56 36.171875 55.265625 
Q 40.578125 54.546875 44.28125 53.078125 
z
" id="DejaVuSans-115"/>
      <path d="M 9.421875 54.6875 
L 18.40625 54.6875 
L 18.40625 0 
L 9.421875 0 
z
M 9.421875 75.984375 
L 18.40625 75.984375 
L 18.40625 64.59375 
L 9.421875 64.59375 
z
" id="DejaVuSans-105"/>
      <path d="M 18.3125 70.21875 
L 18.3125 54.6875 
L 36.8125 54.6875 
L 36.8125 47.703125 
L 18.3125 47.703125 
L 18.3125 18.015625 
Q 18.3125 11.328125 20.140625 9.421875 
Q 21.96875 7.515625 27.59375 7.515625 
L 36.8125 7.515625 
L 36.8125 0 
L 27.59375 0 
Q 17.1875 0 13.234375 3.875 
Q 9.28125 7.765625 9.28125 18.015625 
L 9.28125 47.703125 
L 2.6875 47.703125 
L 2.6875 54.6875 
L 9.28125 54.6875 
L 9.28125 70.21875 
z
" id="DejaVuSans-116"/>
      <path d="M 54.890625 33.015625 
L 54.890625 0 
L 45.90625 0 
L 45.90625 32.71875 
Q 45.90625 40.484375 42.875 44.328125 
Q 39.84375 48.1875 33.796875 48.1875 
Q 26.515625 48.1875 22.3125 43.546875 
Q 18.109375 38.921875 18.109375 30.90625 
L 18.109375 0 
L 9.078125 0 
L 9.078125 54.6875 
L 18.109375 54.6875 
L 18.109375 46.1875 
Q 21.34375 51.125 25.703125 53.5625 
Q 30.078125 56 35.796875 56 
Q 45.21875 56 50.046875 50.171875 
Q 54.890625 44.34375 54.890625 33.015625 
z
" id="DejaVuSans-110"/>
      <path id="DejaVuSans-32"/>
      <path d="M 44.390625 34.1875 
Q 47.5625 33.109375 50.5625 29.59375 
Q 53.5625 26.078125 56.59375 19.921875 
L 66.609375 0 
L 56 0 
L 46.6875 18.703125 
Q 43.0625 26.03125 39.671875 28.421875 
Q 36.28125 30.8125 30.421875 30.8125 
L 19.671875 30.8125 
L 19.671875 0 
L 9.8125 0 
L 9.8125 72.90625 
L 32.078125 72.90625 
Q 44.578125 72.90625 50.734375 67.671875 
Q 56.890625 62.453125 56.890625 51.90625 
Q 56.890625 45.015625 53.6875 40.46875 
Q 50.484375 35.9375 44.390625 34.1875 
z
M 19.671875 64.796875 
L 19.671875 38.921875 
L 32.078125 38.921875 
Q 39.203125 38.921875 42.84375 42.21875 
Q 46.484375 45.515625 46.484375 51.90625 
Q 46.484375 58.296875 42.84375 61.546875 
Q 39.203125 64.796875 32.078125 64.796875 
z
" id="DejaVuSans-82"/>
      <path d="M 34.28125 27.484375 
Q 23.390625 27.484375 19.1875 25 
Q 14.984375 22.515625 14.984375 16.5 
Q 14.984375 11.71875 18.140625 8.90625 
Q 21.296875 6.109375 26.703125 6.109375 
Q 34.1875 6.109375 38.703125 11.40625 
Q 43.21875 16.703125 43.21875 25.484375 
L 43.21875 27.484375 
z
M 52.203125 31.203125 
L 52.203125 0 
L 43.21875 0 
L 43.21875 8.296875 
Q 40.140625 3.328125 35.546875 0.953125 
Q 30.953125 -1.421875 24.3125 -1.421875 
Q 15.921875 -1.421875 10.953125 3.296875 
Q 6 8.015625 6 15.921875 
Q 6 25.140625 12.171875 29.828125 
Q 18.359375 34.515625 30.609375 34.515625 
L 43.21875 34.515625 
L 43.21875 35.40625 
Q 43.21875 41.609375 39.140625 45 
Q 35.0625 48.390625 27.6875 48.390625 
Q 23 48.390625 18.546875 47.265625 
Q 14.109375 46.140625 10.015625 43.890625 
L 10.015625 52.203125 
Q 14.9375 54.109375 19.578125 55.046875 
Q 24.21875 56 28.609375 56 
Q 40.484375 56 46.34375 49.84375 
Q 52.203125 43.703125 52.203125 31.203125 
z
" id="DejaVuSans-97"/>
      <path d="M 45.40625 46.390625 
L 45.40625 75.984375 
L 54.390625 75.984375 
L 54.390625 0 
L 45.40625 0 
L 45.40625 8.203125 
Q 42.578125 3.328125 38.25 0.953125 
Q 33.9375 -1.421875 27.875 -1.421875 
Q 17.96875 -1.421875 11.734375 6.484375 
Q 5.515625 14.40625 5.515625 27.296875 
Q 5.515625 40.1875 11.734375 48.09375 
Q 17.96875 56 27.875 56 
Q 33.9375 56 38.25 53.625 
Q 42.578125 51.265625 45.40625 46.390625 
z
M 14.796875 27.296875 
Q 14.796875 17.390625 18.875 11.75 
Q 22.953125 6.109375 30.078125 6.109375 
Q 37.203125 6.109375 41.296875 11.75 
Q 45.40625 17.390625 45.40625 27.296875 
Q 45.40625 37.203125 41.296875 42.84375 
Q 37.203125 48.484375 30.078125 48.484375 
Q 22.953125 48.484375 18.875 42.84375 
Q 14.796875 37.203125 14.796875 27.296875 
z
" id="DejaVuSans-100"/>
     </defs>
     <g transform="translate(102.024844 357.832125)scale(0.3 -0.3)">
      <use xlink:href="#DejaVuSans-80"/>
      <use x="60.255859" xlink:href="#DejaVuSans-111"/>
      <use x="121.4375" xlink:href="#DejaVuSans-115"/>
      <use x="173.537109" xlink:href="#DejaVuSans-105"/>
      <use x="201.320312" xlink:href="#DejaVuSans-116"/>
      <use x="240.529297" xlink:href="#DejaVuSans-105"/>
      <use x="268.3125" xlink:href="#DejaVuSans-111"/>
      <use x="329.494141" xlink:href="#DejaVuSans-110"/>
      <use x="392.873047" xlink:href="#DejaVuSans-32"/>
      <use x="424.660156" xlink:href="#DejaVuSans-105"/>
      <use x="452.443359" xlink:href="#DejaVuSans-110"/>
      <use x="515.822266" xlink:href="#DejaVuSans-32"/>
      <use x="547.609375" xlink:href="#DejaVuSans-82"/>
      <use x="617.060547" xlink:href="#DejaVuSans-97"/>
      <use x="678.339844" xlink:href="#DejaVuSans-100"/>
      <use x="741.816406" xlink:href="#DejaVuSans-105"/>
      <use x="769.599609" xlink:href="#DejaVuSans-97"/>
      <use x="830.878906" xlink:href="#DejaVuSans-110"/>
     </g>
    </g>
   </g>
   <g id="matplotlib.axis_2">
    <g id="ytick_1">
     <g id="line2d_6">
      <defs>
       <path d="M 0 0 
L -3.5 0 
" id="m19942c3275" style="stroke:#000000;stroke-width:0.8;"/>
      </defs>
      <g>
       <use style="stroke:#000000;stroke-width:0.8;" x="57.6" xlink:href="#m19942c3275" y="307.584"/>
      </g>
     </g>
     <g id="text_7">
      <!-- 0.0 -->
      <defs>
       <path d="M 10.6875 12.40625 
L 21 12.40625 
L 21 0 
L 10.6875 0 
z
" id="DejaVuSans-46"/>
      </defs>
      <g transform="translate(23.564687 314.042672)scale(0.17 -0.17)">
       <use xlink:href="#DejaVuSans-48"/>
       <use x="63.623047" xlink:href="#DejaVuSans-46"/>
       <use x="95.410156" xlink:href="#DejaVuSans-48"/>
      </g>
     </g>
    </g>
    <g id="ytick_2">
     <g id="line2d_7">
      <g>
       <use style="stroke:#000000;stroke-width:0.8;" x="57.6" xlink:href="#m19942c3275" y="269.415366"/>
      </g>
     </g>
     <g id="text_8">
      <!-- 0.2 -->
      <g transform="translate(23.564687 275.874038)scale(0.17 -0.17)">
       <use xlink:href="#DejaVuSans-48"/>
       <use x="63.623047" xlink:href="#DejaVuSans-46"/>
       <use x="95.410156" xlink:href="#DejaVuSans-50"/>
      </g>
     </g>
    </g>
    <g id="ytick_3">
     <g id="line2d_8">
      <g>
       <use style="stroke:#000000;stroke-width:0.8;" x="57.6" xlink:href="#m19942c3275" y="231.246733"/>
      </g>
     </g>
     <g id="text_9">
      <!-- 0.4 -->
      <defs>
       <path d="M 37.796875 64.3125 
L 12.890625 25.390625 
L 37.796875 25.390625 
z
M 35.203125 72.90625 
L 47.609375 72.90625 
L 47.609375 25.390625 
L 58.015625 25.390625 
L 58.015625 17.1875 
L 47.609375 17.1875 
L 47.609375 0 
L 37.796875 0 
L 37.796875 17.1875 
L 4.890625 17.1875 
L 4.890625 26.703125 
z
" id="DejaVuSans-52"/>
      </defs>
      <g transform="translate(23.564687 237.705405)scale(0.17 -0.17)">
       <use xlink:href="#DejaVuSans-48"/>
       <use x="63.623047" xlink:href="#DejaVuSans-46"/>
       <use x="95.410156" xlink:href="#DejaVuSans-52"/>
      </g>
     </g>
    </g>
    <g id="ytick_4">
     <g id="line2d_9">
      <g>
       <use style="stroke:#000000;stroke-width:0.8;" x="57.6" xlink:href="#m19942c3275" y="193.078099"/>
      </g>
     </g>
     <g id="text_10">
      <!-- 0.6 -->
      <defs>
       <path d="M 33.015625 40.375 
Q 26.375 40.375 22.484375 35.828125 
Q 18.609375 31.296875 18.609375 23.390625 
Q 18.609375 15.53125 22.484375 10.953125 
Q 26.375 6.390625 33.015625 6.390625 
Q 39.65625 6.390625 43.53125 10.953125 
Q 47.40625 15.53125 47.40625 23.390625 
Q 47.40625 31.296875 43.53125 35.828125 
Q 39.65625 40.375 33.015625 40.375 
z
M 52.59375 71.296875 
L 52.59375 62.3125 
Q 48.875 64.0625 45.09375 64.984375 
Q 41.3125 65.921875 37.59375 65.921875 
Q 27.828125 65.921875 22.671875 59.328125 
Q 17.53125 52.734375 16.796875 39.40625 
Q 19.671875 43.65625 24.015625 45.921875 
Q 28.375 48.1875 33.59375 48.1875 
Q 44.578125 48.1875 50.953125 41.515625 
Q 57.328125 34.859375 57.328125 23.390625 
Q 57.328125 12.15625 50.6875 5.359375 
Q 44.046875 -1.421875 33.015625 -1.421875 
Q 20.359375 -1.421875 13.671875 8.265625 
Q 6.984375 17.96875 6.984375 36.375 
Q 6.984375 53.65625 15.1875 63.9375 
Q 23.390625 74.21875 37.203125 74.21875 
Q 40.921875 74.21875 44.703125 73.484375 
Q 48.484375 72.75 52.59375 71.296875 
z
" id="DejaVuSans-54"/>
      </defs>
      <g transform="translate(23.564687 199.536771)scale(0.17 -0.17)">
       <use xlink:href="#DejaVuSans-48"/>
       <use x="63.623047" xlink:href="#DejaVuSans-46"/>
       <use x="95.410156" xlink:href="#DejaVuSans-54"/>
      </g>
     </g>
    </g>
    <g id="ytick_5">
     <g id="line2d_10">
      <g>
       <use style="stroke:#000000;stroke-width:0.8;" x="57.6" xlink:href="#m19942c3275" y="154.909465"/>
      </g>
     </g>
     <g id="text_11">
      <!-- 0.8 -->
      <defs>
       <path d="M 31.78125 34.625 
Q 24.75 34.625 20.71875 30.859375 
Q 16.703125 27.09375 16.703125 20.515625 
Q 16.703125 13.921875 20.71875 10.15625 
Q 24.75 6.390625 31.78125 6.390625 
Q 38.8125 6.390625 42.859375 10.171875 
Q 46.921875 13.96875 46.921875 20.515625 
Q 46.921875 27.09375 42.890625 30.859375 
Q 38.875 34.625 31.78125 34.625 
z
M 21.921875 38.8125 
Q 15.578125 40.375 12.03125 44.71875 
Q 8.5 49.078125 8.5 55.328125 
Q 8.5 64.0625 14.71875 69.140625 
Q 20.953125 74.21875 31.78125 74.21875 
Q 42.671875 74.21875 48.875 69.140625 
Q 55.078125 64.0625 55.078125 55.328125 
Q 55.078125 49.078125 51.53125 44.71875 
Q 48 40.375 41.703125 38.8125 
Q 48.828125 37.15625 52.796875 32.3125 
Q 56.78125 27.484375 56.78125 20.515625 
Q 56.78125 9.90625 50.3125 4.234375 
Q 43.84375 -1.421875 31.78125 -1.421875 
Q 19.734375 -1.421875 13.25 4.234375 
Q 6.78125 9.90625 6.78125 20.515625 
Q 6.78125 27.484375 10.78125 32.3125 
Q 14.796875 37.15625 21.921875 38.8125 
z
M 18.3125 54.390625 
Q 18.3125 48.734375 21.84375 45.5625 
Q 25.390625 42.390625 31.78125 42.390625 
Q 38.140625 42.390625 41.71875 45.5625 
Q 45.3125 48.734375 45.3125 54.390625 
Q 45.3125 60.0625 41.71875 63.234375 
Q 38.140625 66.40625 31.78125 66.40625 
Q 25.390625 66.40625 21.84375 63.234375 
Q 18.3125 60.0625 18.3125 54.390625 
z
" id="DejaVuSans-56"/>
      </defs>
      <g transform="translate(23.564687 161.368137)scale(0.17 -0.17)">
       <use xlink:href="#DejaVuSans-48"/>
       <use x="63.623047" xlink:href="#DejaVuSans-46"/>
       <use x="95.410156" xlink:href="#DejaVuSans-56"/>
      </g>
     </g>
    </g>
    <g id="ytick_6">
     <g id="line2d_11">
      <g>
       <use style="stroke:#000000;stroke-width:0.8;" x="57.6" xlink:href="#m19942c3275" y="116.740832"/>
      </g>
     </g>
     <g id="text_12">
      <!-- 1.0 -->
      <g transform="translate(23.564687 123.199504)scale(0.17 -0.17)">
       <use xlink:href="#DejaVuSans-49"/>
       <use x="63.623047" xlink:href="#DejaVuSans-46"/>
       <use x="95.410156" xlink:href="#DejaVuSans-48"/>
      </g>
     </g>
    </g>
    <g id="ytick_7">
     <g id="line2d_12">
      <g>
       <use style="stroke:#000000;stroke-width:0.8;" x="57.6" xlink:href="#m19942c3275" y="78.572198"/>
      </g>
     </g>
     <g id="text_13">
      <!-- 1.2 -->
      <g transform="translate(23.564687 85.03087)scale(0.17 -0.17)">
       <use xlink:href="#DejaVuSans-49"/>
       <use x="63.623047" xlink:href="#DejaVuSans-46"/>
       <use x="95.410156" xlink:href="#DejaVuSans-50"/>
      </g>
     </g>
    </g>
    <g id="text_14">
     <!-- Density -->
     <defs>
      <path d="M 19.671875 64.796875 
L 19.671875 8.109375 
L 31.59375 8.109375 
Q 46.6875 8.109375 53.6875 14.9375 
Q 60.6875 21.78125 60.6875 36.53125 
Q 60.6875 51.171875 53.6875 57.984375 
Q 46.6875 64.796875 31.59375 64.796875 
z
M 9.8125 72.90625 
L 30.078125 72.90625 
Q 51.265625 72.90625 61.171875 64.09375 
Q 71.09375 55.28125 71.09375 36.53125 
Q 71.09375 17.671875 61.125 8.828125 
Q 51.171875 0 30.078125 0 
L 9.8125 0 
z
" id="DejaVuSans-68"/>
      <path d="M 56.203125 29.59375 
L 56.203125 25.203125 
L 14.890625 25.203125 
Q 15.484375 15.921875 20.484375 11.0625 
Q 25.484375 6.203125 34.421875 6.203125 
Q 39.59375 6.203125 44.453125 7.46875 
Q 49.3125 8.734375 54.109375 11.28125 
L 54.109375 2.78125 
Q 49.265625 0.734375 44.1875 -0.34375 
Q 39.109375 -1.421875 33.890625 -1.421875 
Q 20.796875 -1.421875 13.15625 6.1875 
Q 5.515625 13.8125 5.515625 26.8125 
Q 5.515625 40.234375 12.765625 48.109375 
Q 20.015625 56 32.328125 56 
Q 43.359375 56 49.78125 48.890625 
Q 56.203125 41.796875 56.203125 29.59375 
z
M 47.21875 32.234375 
Q 47.125 39.59375 43.09375 43.984375 
Q 39.0625 48.390625 32.421875 48.390625 
Q 24.90625 48.390625 20.390625 44.140625 
Q 15.875 39.890625 15.1875 32.171875 
z
" id="DejaVuSans-101"/>
      <path d="M 32.171875 -5.078125 
Q 28.375 -14.84375 24.75 -17.8125 
Q 21.140625 -20.796875 15.09375 -20.796875 
L 7.90625 -20.796875 
L 7.90625 -13.28125 
L 13.1875 -13.28125 
Q 16.890625 -13.28125 18.9375 -11.515625 
Q 21 -9.765625 23.484375 -3.21875 
L 25.09375 0.875 
L 2.984375 54.6875 
L 12.5 54.6875 
L 29.59375 11.921875 
L 46.6875 54.6875 
L 56.203125 54.6875 
z
" id="DejaVuSans-121"/>
     </defs>
     <g transform="translate(13.325625 231.553781)rotate(-90)scale(0.3 -0.3)">
      <use xlink:href="#DejaVuSans-68"/>
      <use x="77.001953" xlink:href="#DejaVuSans-101"/>
      <use x="138.525391" xlink:href="#DejaVuSans-110"/>
      <use x="201.904297" xlink:href="#DejaVuSans-115"/>
      <use x="254.003906" xlink:href="#DejaVuSans-105"/>
      <use x="281.787109" xlink:href="#DejaVuSans-116"/>
      <use x="320.996094" xlink:href="#DejaVuSans-121"/>
     </g>
    </g>
   </g>
   <g id="line2d_13">
    <path clip-path="url(#pbd3c4903be)" d="M 73.832727 307.584 
L 98.572228 307.476419 
L 98.92936 307.206319 
L 99.264848 306.638837 
L 99.77349 305.225556 
L 100.217199 304.26379 
L 100.433643 304.19408 
L 100.639264 304.390244 
L 101.526683 305.507085 
L 101.753949 305.281485 
L 102.186836 304.4411 
L 102.760412 303.488348 
L 103.139188 303.249471 
L 103.507142 303.275388 
L 104.686759 303.552594 
L 104.98978 303.233427 
L 105.43349 302.369649 
L 106.007065 301.37551 
L 106.385841 301.168138 
L 106.77544 300.927377 
L 107.12175 300.381254 
L 107.684503 299.53244 
L 107.900947 299.554778 
L 108.139034 299.854427 
L 109.21043 301.535871 
L 109.426874 301.340952 
L 109.773183 300.652966 
L 110.638958 298.870629 
L 110.99609 298.578751 
L 111.234178 298.63676 
L 111.504732 298.977887 
L 112.208174 299.965248 
L 112.402973 299.850617 
L 112.68435 299.35383 
L 113.301214 298.259977 
L 113.560946 298.208157 
L 114.329321 298.273958 
L 114.643164 297.854207 
L 115.249206 297.03795 
L 115.476472 297.077858 
L 116.147447 297.397079 
L 116.36389 297.041532 
L 116.7102 295.937975 
L 118.160372 290.875452 
L 118.430927 290.577945 
L 118.614904 290.659295 
L 118.852992 291.077921 
L 119.264234 292.352487 
L 119.891921 294.173794 
L 120.151653 294.377272 
L 120.357274 294.267322 
L 120.660295 293.793708 
L 121.17976 292.512303 
L 122.067179 290.290845 
L 122.337733 290.155993 
L 122.684043 290.277483 
L 123.138574 290.378142 
L 123.452418 290.210411 
L 123.820372 289.722914 
L 124.372303 289.010937 
L 124.545458 289.088873 
L 124.751079 289.480202 
L 125.108211 290.762566 
L 125.681786 292.674159 
L 125.973985 292.98095 
L 126.655783 293.352812 
L 126.969626 294.121136 
L 127.792111 296.287122 
L 128.051844 296.410215 
L 128.279109 296.255985 
L 128.560486 295.750045 
L 128.939262 294.544725 
L 129.566949 291.627878 
L 130.097235 289.601068 
L 130.356968 289.299855 
L 130.530123 289.402861 
L 130.811499 289.92035 
L 131.21192 290.531265 
L 131.374253 290.461471 
L 131.579874 290.040601 
L 132.55387 287.565998 
L 132.791958 287.709424 
L 133.24649 287.987677 
L 133.462933 287.841738 
L 133.733488 287.332991 
L 134.177197 285.921192 
L 134.696662 284.474522 
L 134.923927 284.333047 
L 135.118727 284.490518 
L 135.443392 285.132087 
L 136.265877 287.367414 
L 136.969319 289.319933 
L 137.142474 289.336272 
L 137.315629 289.056059 
L 137.597005 288.06012 
L 138.322091 285.344971 
L 138.495246 285.294026 
L 138.657579 285.535854 
L 138.928133 286.435261 
L 139.685686 289.094293 
L 139.912952 289.23461 
L 140.096929 289.087027 
L 140.356661 288.525473 
L 140.778726 286.957072 
L 141.287368 285.284413 
L 141.482168 285.188287 
L 141.6445 285.401129 
L 141.969166 286.328009 
L 142.33712 287.140572 
L 142.510275 287.142858 
L 142.715896 286.844661 
L 143.278649 285.939593 
L 143.451804 286.023657 
L 143.722359 286.484028 
L 144.252646 287.349412 
L 144.512378 287.381464 
L 145.161709 287.298122 
L 145.453907 287.643065 
L 146.038305 288.359082 
L 146.222282 288.263419 
L 146.449548 287.817673 
L 146.828324 286.450001 
L 147.45601 284.293606 
L 147.737387 283.994357 
L 147.943009 284.062403 
L 148.278496 284.48186 
L 148.722205 284.945524 
L 148.938649 284.891308 
L 149.155093 284.568532 
L 149.436469 283.684786 
L 149.793601 281.721279 
L 150.33471 277.242816 
L 150.908286 273.0498 
L 151.157196 272.455066 
L 151.287062 272.521303 
L 151.471039 273.002104 
L 151.817349 274.708086 
L 152.953677 280.620055 
L 153.180943 280.867771 
L 153.343276 280.756158 
L 153.949318 280.117639 
L 153.96014 280.126744 
L 154.133295 280.428427 
L 154.414672 281.466468 
L 155.6484 286.645011 
L 155.854021 286.759912 
L 156.005532 286.561961 
L 156.232798 285.790537 
L 156.611574 283.515803 
L 157.477348 278.231576 
L 157.975168 276.606134 
L 158.440522 275.760007 
L 158.732721 275.590661 
L 158.949164 275.717302 
L 159.208897 276.193185 
L 159.587673 277.438178 
L 160.388514 280.111668 
L 160.669891 280.350984 
L 160.972912 280.289949 
L 161.45991 279.963043 
L 161.697998 279.47439 
L 161.979375 278.294578 
L 163.256392 271.959019 
L 163.905722 270.485895 
L 164.100522 270.449257 
L 164.273677 270.700647 
L 164.533409 271.552728 
L 166.135091 277.81074 
L 166.438112 278.105868 
L 166.762778 278.074314 
L 167.011688 278.152335 
L 167.217309 278.51137 
L 167.509508 279.573017 
L 168.11555 281.824285 
L 168.245416 281.811721 
L 168.386105 281.473988 
L 168.61337 280.195818 
L 168.970502 276.670603 
L 169.944498 266.541216 
L 170.215053 265.745607 
L 170.366563 265.750819 
L 170.561362 266.091131 
L 171.74098 268.691228 
L 172.920597 270.11243 
L 173.104575 269.881479 
L 173.375129 269.104108 
L 173.970349 267.331551 
L 174.111037 267.375052 
L 174.284192 267.770685 
L 174.652146 269.364916 
L 175.009278 270.473423 
L 175.160789 270.483483 
L 175.323121 270.158858 
L 175.626142 268.890319 
L 176.188896 266.639276 
L 176.405339 266.44862 
L 176.567672 266.584992 
L 176.838226 267.187723 
L 177.45509 268.573457 
L 177.628245 268.555132 
L 177.812222 268.241553 
L 178.126066 267.153129 
L 178.602241 265.682968 
L 178.764574 265.671631 
L 178.926907 265.982472 
L 179.219106 267.15673 
L 179.781859 269.336754 
L 179.965836 269.421013 
L 180.117346 269.184124 
L 180.377079 268.261293 
L 181.77314 261.57239 
L 182.51987 255.924456 
L 182.61727 255.865443 
L 182.649736 255.895499 
L 182.779602 256.246322 
L 183.039335 257.767619 
L 183.602088 260.983451 
L 183.807709 261.210977 
L 183.95922 261.064523 
L 184.337996 260.224908 
L 184.641017 259.838832 
L 184.824994 259.905923 
L 185.084727 260.318963 
L 185.604191 261.132725 
L 185.788168 261.083141 
L 186.004612 260.736682 
L 186.39421 259.585076 
L 187.140941 257.43381 
L 187.368206 257.289995 
L 187.541361 257.452457 
L 187.801093 258.089594 
L 188.450424 259.757573 
L 188.601935 259.712911 
L 188.77509 259.347307 
L 189.034822 258.175305 
L 189.489353 254.861687 
L 190.355128 248.7644 
L 191.794478 240.704537 
L 192.368053 238.72948 
L 192.595319 238.514805 
L 192.746829 238.662388 
L 192.963273 239.286468 
L 193.363693 241.313915 
L 193.969735 244.109123 
L 194.33769 244.856533 
L 194.705644 245.146159 
L 194.932909 245.096101 
L 195.116886 244.780503 
L 195.33333 243.875554 
L 195.614707 241.537317 
L 196.047594 235.62037 
L 196.783502 225.89944 
L 197.238034 222.676653 
L 197.541055 221.721468 
L 197.670921 221.718469 
L 197.681743 221.731019 
L 197.833253 222.120252 
L 198.082163 223.558339 
L 199.20767 231.146503 
L 199.629735 232.179239 
L 199.911112 232.392337 
L 200.1492 232.284825 
L 200.820175 231.560678 
L 201.112374 230.994812 
L 201.39375 229.861641 
L 201.772526 227.231628 
L 202.573368 221.519823 
L 202.822278 221.038768 
L 202.995433 221.07118 
L 203.82874 221.598796 
L 204.239983 221.624324 
L 204.986714 221.878822 
L 205.354668 221.53235 
L 205.7118 221.319522 
L 205.939065 221.433078 
L 206.220442 221.860714 
L 206.588396 222.869014 
L 207.45417 225.46447 
L 207.594859 225.320128 
L 207.822124 224.641094 
L 208.471455 222.529786 
L 208.687899 222.458725 
L 209.326407 222.514304 
L 209.748472 222.379538 
L 209.943272 222.604627 
L 210.203004 223.317539 
L 210.603424 225.183507 
L 211.415088 230.31638 
L 212.075241 233.780027 
L 212.508128 235.073461 
L 212.76786 235.312407 
L 212.941015 235.200451 
L 213.168281 234.727368 
L 213.557879 233.284153 
L 214.142277 231.276927 
L 214.347898 231.144595 
L 214.499409 231.343069 
L 214.715852 232.087214 
L 215.083807 234.347206 
L 215.603271 237.24766 
L 215.733137 237.360184 
L 215.754782 237.342222 
L 215.873826 237.039783 
L 216.068625 235.772114 
L 216.382468 231.917702 
L 217.150843 221.958319 
L 217.345642 221.473787 
L 217.356464 221.476432 
L 217.464686 221.646901 
L 217.691952 222.588265 
L 218.114017 224.150904 
L 218.243883 224.152303 
L 218.254705 224.1402 
L 218.417038 223.755679 
L 218.741703 222.22975 
L 219.975431 216.150215 
L 220.76545 211.881124 
L 221.284915 209.338028 
L 221.447248 209.19926 
L 221.45807 209.206088 
L 221.587936 209.452531 
L 221.793557 210.45304 
L 222.139867 213.474197 
L 222.810842 219.224089 
L 223.005642 219.566515 
L 223.113863 219.415477 
L 223.319485 218.603721 
L 223.871416 216.329698 
L 223.979638 216.411397 
L 224.131148 216.93617 
L 224.412525 218.914068 
L 225.040211 223.333433 
L 225.23501 223.617022 
L 225.245833 223.613278 
L 225.364877 223.439676 
L 225.559676 222.662954 
L 225.884341 220.274676 
L 226.955737 211.690378 
L 227.496846 209.665846 
L 227.832333 209.060391 
L 228.01631 209.082755 
L 228.232754 209.409416 
L 228.730574 210.186299 
L 228.871262 210.063603 
L 229.066062 209.522838 
L 229.45566 207.590051 
L 229.866903 206.015873 
L 230.094169 205.834761 
L 230.451301 205.757615 
L 230.602811 205.293367 
L 230.808433 203.802635 
L 231.111454 199.605376 
L 231.825717 189.231719 
L 231.955583 188.93003 
L 231.98805 188.954027 
L 232.096272 189.289818 
L 232.33436 191.000801 
L 232.767247 193.836165 
L 232.853824 193.905216 
L 232.897113 193.858868 
L 233.026979 193.411197 
L 233.286711 191.481937 
L 233.752065 188.290223 
L 233.849465 188.192296 
L 233.892754 188.230927 
L 234.02262 188.623441 
L 234.444685 190.567858 
L 234.52044 190.379845 
L 234.639484 189.202436 
L 234.812639 184.724881 
L 235.039904 171.95366 
L 235.353748 139.509861 
L 236.122122 55.176627 
L 236.197878 54.144 
L 236.251989 54.621993 
L 236.371032 59.12183 
L 236.598298 78.785116 
L 237.572294 175.653756 
L 237.864493 183.199814 
L 238.102581 184.990889 
L 238.221625 185.119615 
L 238.254092 185.095727 
L 238.39478 184.756559 
L 238.622046 183.484857 
L 238.925067 180.305976 
L 239.379598 172.628092 
L 239.931529 164.324422 
L 240.115506 163.616112 
L 240.137151 163.628927 
L 240.223728 163.890209 
L 240.386061 165.271652 
L 240.667438 170.019991 
L 242.095965 197.829294 
L 242.463919 200.582509 
L 242.799407 201.577231 
L 243.069961 202.505054 
L 243.329694 204.40926 
L 243.70847 209.223352 
L 244.401089 217.932213 
L 244.639177 218.761622 
L 244.736577 218.664183 
L 244.888087 218.042188 
L 245.169464 215.703375 
L 246.132638 206.957035 
L 247.258144 200.95189 
L 247.366366 200.946519 
L 247.388011 200.972658 
L 247.528699 201.363666 
L 247.777609 202.869095 
L 248.502695 207.60317 
L 248.654206 207.711504 
L 248.67585 207.697227 
L 248.82736 207.427603 
L 249.541624 205.737768 
L 249.574091 205.754484 
L 249.747246 206.013097 
L 250.136844 207.165147 
L 250.450687 207.770705 
L 250.580553 207.719905 
L 250.742886 207.314075 
L 250.980974 205.987936 
L 251.846748 200.039934 
L 251.890037 200.074354 
L 252.009081 200.45329 
L 252.214702 202.053193 
L 252.615123 207.435815 
L 253.112943 213.135367 
L 253.329387 213.79048 
L 253.415964 213.678934 
L 253.567475 213.005317 
L 253.848851 210.478635 
L 254.660515 202.628563 
L 254.822848 202.374879 
L 254.844492 202.38866 
L 254.963536 202.658976 
L 255.169157 203.823135 
L 255.602044 207.943086 
L 256.153976 212.458446 
L 256.565218 214.104041 
L 257.030572 215.113994 
L 257.26866 215.24424 
L 257.441815 215.081979 
L 257.723192 214.419366 
L 258.231834 213.278276 
L 258.437455 213.249835 
L 258.697188 213.505981 
L 259.043497 213.763652 
L 259.20583 213.626785 
L 259.422274 213.082701 
L 260.14736 210.651463 
L 260.212293 210.704599 
L 260.352981 211.110775 
L 260.591069 212.661218 
L 261.337799 218.073478 
L 261.424377 218.075326 
L 261.446021 218.048516 
L 261.586709 217.637052 
L 261.943841 215.60929 
L 262.225218 214.647859 
L 262.322618 214.718385 
L 262.463306 215.267589 
L 262.701394 217.341087 
L 263.307436 225.513905 
L 263.718679 229.274203 
L 263.956767 229.977373 
L 264.064988 229.920954 
L 264.216499 229.467674 
L 264.476231 227.828238 
L 265.36365 221.549958 
L 265.482694 221.503101 
L 265.504338 221.523488 
L 265.645026 221.86477 
L 265.883114 223.174016 
L 266.316002 227.08248 
L 267.365753 236.772948 
L 267.636307 237.572787 
L 267.766174 237.537634 
L 267.928506 237.142554 
L 268.220705 235.706553 
L 269.357034 229.523244 
L 269.551833 229.37247 
L 269.692521 229.557968 
L 269.930609 230.356441 
L 270.644873 232.979093 
L 270.796384 232.955249 
L 270.980361 232.595763 
L 271.380781 231.141454 
L 271.802846 229.955365 
L 272.030112 229.806683 
L 272.214089 229.947165 
L 272.473821 230.491005 
L 272.841775 231.847024 
L 273.404529 234.906485 
L 274.064682 238.218623 
L 274.291947 238.527312 
L 274.421814 238.39604 
L 274.616613 237.781443 
L 274.995389 235.631354 
L 275.449921 233.466914 
L 275.64472 233.272306 
L 275.774586 233.439578 
L 275.980207 234.15475 
L 276.315695 236.263941 
L 277.700934 246.047102 
L 277.852444 246.054933 
L 278.014777 245.742598 
L 278.317798 244.554407 
L 278.869729 242.50622 
L 279.064528 242.379537 
L 279.205217 242.56281 
L 279.410838 243.269651 
L 279.713859 245.230593 
L 280.687855 252.219262 
L 280.806899 252.232512 
L 280.828543 252.209247 
L 280.990876 251.818998 
L 281.348008 250.178007 
L 281.85665 248.182149 
L 282.192138 247.664719 
L 283.068735 246.816908 
L 283.523266 246.15585 
L 283.663954 246.264836 
L 283.847931 246.788902 
L 284.14013 248.461077 
L 284.854394 252.705226 
L 285.049193 252.891434 
L 285.189882 252.721269 
L 285.438792 251.972816 
L 286.347855 248.946758 
L 286.629231 248.679909 
L 286.791564 248.775672 
L 286.986363 249.210635 
L 287.256918 250.45701 
L 288.230914 255.723213 
L 288.252558 255.71636 
L 288.371602 255.514592 
L 288.566401 254.600522 
L 288.912711 251.634489 
L 289.497109 246.887332 
L 289.735197 246.363145 
L 289.854241 246.451921 
L 290.04904 246.985591 
L 290.568505 249.345878 
L 291.780589 255.322083 
L 292.862806 261.75337 
L 293.317338 263.112008 
L 293.880091 264.6353 
L 294.226401 266.523415 
L 295.276152 272.953132 
L 295.406019 272.969466 
L 295.416841 272.958711 
L 295.568351 272.618479 
L 295.828083 271.331972 
L 296.693858 266.581467 
L 296.921124 266.376981 
L 297.105101 266.502673 
L 298.176496 267.626022 
L 298.64185 267.815195 
L 298.966515 268.238205 
L 299.972978 269.812826 
L 300.211066 269.567135 
L 300.557376 269.280459 
L 300.708886 269.453662 
L 300.914508 270.132778 
L 301.260817 272.232255 
L 301.877681 275.783877 
L 302.159058 276.328474 
L 302.36468 276.341739 
L 302.732634 276.036076 
L 303.057299 275.912329 
L 303.284565 276.07044 
L 303.555119 276.572005 
L 303.966362 277.900501 
L 304.518293 279.535793 
L 304.745559 279.67914 
L 304.962002 279.53647 
L 305.405712 279.222497 
L 305.589689 279.390085 
L 305.838599 279.992092 
L 306.358064 282.018766 
L 307.072327 284.452445 
L 307.808236 286.1608 
L 308.230301 286.6828 
L 308.522499 286.733491 
L 308.836343 286.544335 
L 309.334163 285.93665 
L 309.994316 285.174543 
L 310.210759 285.22575 
L 310.427203 285.546511 
L 310.751868 286.510058 
L 311.650109 289.384352 
L 312.20204 290.14987 
L 312.678216 290.549547 
L 312.981237 290.514137 
L 313.457413 290.432828 
L 313.706323 290.675765 
L 314.528809 291.675883 
L 314.788541 291.551193 
L 315.470338 291.130044 
L 315.708426 291.296533 
L 316.054736 291.870533 
L 316.606667 292.722219 
L 316.844755 292.740958 
L 317.126132 292.490526 
L 317.797107 291.840296 
L 318.70617 291.44649 
L 319.149879 291.155067 
L 319.431256 291.256104 
L 319.810032 291.378684 
L 319.983187 291.160137 
L 320.19963 290.452348 
L 320.524296 288.465853 
L 321.346781 283.130649 
L 321.606514 282.69698 
L 321.768846 282.759899 
L 321.996112 283.174036 
L 322.450644 284.603455 
L 323.522039 288.674837 
L 324.26877 292.02005 
L 324.463569 292.131533 
L 324.625902 291.919097 
L 324.928923 291.043247 
L 325.578253 289.221705 
L 326.01114 288.704035 
L 326.541427 288.066389 
L 327.212402 287.192683 
L 327.45049 287.234564 
L 327.753511 287.570417 
L 328.305442 288.568419 
L 328.716685 289.751672 
L 329.214505 291.988329 
L 329.907125 294.93872 
L 330.199324 295.378682 
L 330.404945 295.360959 
L 330.729611 295.031336 
L 331.151675 294.702242 
L 331.400586 294.770313 
L 331.703607 295.124282 
L 332.158138 296.057952 
L 333.619132 299.353283 
L 333.824754 299.265365 
L 334.095308 298.844236 
L 336.378788 294.340837 
L 336.725098 294.245852 
L 337.13634 294.372293 
L 337.461006 294.695276 
L 337.818138 295.414867 
L 338.42418 296.631087 
L 338.608157 296.625879 
L 338.802956 296.337757 
L 339.105977 295.391563 
L 339.895996 292.745849 
L 340.079973 292.711512 
L 340.253128 292.98008 
L 340.523682 293.902717 
L 341.638367 298.226713 
L 342.006321 298.607572 
L 342.947851 299.100697 
L 343.207583 298.966035 
L 343.521426 298.503288 
L 344.181579 296.997167 
L 344.776799 295.874943 
L 345.014887 295.791427 
L 345.209686 295.98015 
L 345.491063 296.64772 
L 346.313548 298.813556 
L 346.51917 298.833358 
L 346.746435 298.580102 
L 347.752898 297.147126 
L 347.969342 297.329546 
L 348.283185 297.947007 
L 349.30047 300.179139 
L 349.679246 300.386537 
L 350.599131 300.750314 
L 351.551483 301.215632 
L 352.060125 301.163761 
L 352.882611 301.079209 
L 353.618519 301.215341 
L 353.932362 301.545926 
L 354.365249 302.403016 
L 354.830603 303.165811 
L 355.047047 303.185688 
L 355.26349 302.943611 
L 355.620622 302.126476 
L 356.259131 300.723071 
L 356.540507 300.565155 
L 356.811062 300.677623 
L 358.73741 302.266206 
L 359.246052 303.136963 
L 360.349914 305.239204 
L 360.620469 305.25022 
L 360.912668 305.004682 
L 361.475421 304.139211 
L 361.886664 303.71885 
L 362.178862 303.714542 
L 363.271903 303.995224 
L 363.791367 303.919789 
L 364.083566 304.140799 
L 364.938518 304.942512 
L 365.176606 304.779731 
L 365.555382 304.1907 
L 366.150602 303.33613 
L 366.442801 303.262485 
L 366.713355 303.434801 
L 367.102954 303.998288 
L 368.195994 305.726143 
L 368.607237 305.931667 
L 368.953546 305.869349 
L 369.408078 305.510788 
L 369.851787 305.260903 
L 370.143986 305.357436 
L 370.706739 305.888338 
L 371.074694 306.054698 
L 371.399359 305.95157 
L 372.04869 305.690532 
L 372.319244 305.870613 
L 372.741309 306.484075 
L 373.368995 307.306703 
L 373.812705 307.523239 
L 374.548613 307.582226 
L 386.095878 307.584 
L 398.487273 307.584 
L 398.487273 307.584 
" style="fill:none;stroke:#ff7f0e;stroke-linecap:square;stroke-width:1.5;"/>
   </g>
   <g id="patch_103">
    <path d="M 57.6 307.584 
L 57.6 41.472 
" style="fill:none;stroke:#000000;stroke-linecap:square;stroke-linejoin:miter;stroke-width:0.8;"/>
   </g>
   <g id="patch_104">
    <path d="M 414.72 307.584 
L 414.72 41.472 
" style="fill:none;stroke:#000000;stroke-linecap:square;stroke-linejoin:miter;stroke-width:0.8;"/>
   </g>
   <g id="patch_105">
    <path d="M 57.6 307.584 
L 414.72 307.584 
" style="fill:none;stroke:#000000;stroke-linecap:square;stroke-linejoin:miter;stroke-width:0.8;"/>
   </g>
   <g id="patch_106">
    <path d="M 57.6 41.472 
L 414.72 41.472 
" style="fill:none;stroke:#000000;stroke-linecap:square;stroke-linejoin:miter;stroke-width:0.8;"/>
   </g>
  </g>
 </g>
 <defs>
  <clipPath id="pbd3c4903be">
   <rect height="266.112" width="357.12" x="57.6" y="41.472"/>
  </clipPath>
 </defs>
</svg>
