<?xml version="1.0" encoding="utf-8" standalone="no"?>
<!DOCTYPE svg PUBLIC "-//W3C//DTD SVG 1.1//EN"
  "http://www.w3.org/Graphics/SVG/1.1/DTD/svg11.dtd">
<!-- Created with matplotlib (https://matplotlib.org/) -->
<svg height="345.6pt" version="1.1" viewBox="0 0 460.8 345.6" width="460.8pt" xmlns="http://www.w3.org/2000/svg" xmlns:xlink="http://www.w3.org/1999/xlink">
 <defs>
  <style type="text/css">
*{stroke-linecap:butt;stroke-linejoin:round;}
  </style>
 </defs>
 <g id="figure_1">
  <g id="patch_1">
   <path d="M 0 345.6 
L 460.8 345.6 
L 460.8 0 
L 0 0 
z
" style="fill:#ffffff;"/>
  </g>
  <g id="axes_1">
   <g id="patch_2">
    <path d="M 57.6 307.584 
L 414.72 307.584 
L 414.72 41.472 
L 57.6 41.472 
z
" style="fill:#ffffff;"/>
   </g>
   <g id="patch_3">
    <path clip-path="url(#p9ecabe6fbf)" d="M 100.169678 307.584 
L 102.889581 307.584 
L 102.889581 304.193968 
L 100.169678 304.193968 
z
" style="fill:#1f77b4;"/>
   </g>
   <g id="patch_4">
    <path clip-path="url(#p9ecabe6fbf)" d="M 102.889597 307.584 
L 105.6095 307.584 
L 105.6095 303.933196 
L 102.889597 303.933196 
z
" style="fill:#1f77b4;"/>
   </g>
   <g id="patch_5">
    <path clip-path="url(#p9ecabe6fbf)" d="M 105.6095 307.584 
L 108.329412 307.584 
L 108.329412 300.021642 
L 105.6095 300.021642 
z
" style="fill:#1f77b4;"/>
   </g>
   <g id="patch_6">
    <path clip-path="url(#p9ecabe6fbf)" d="M 108.329412 307.584 
L 111.049315 307.584 
L 111.049315 300.803935 
L 108.329412 300.803935 
z
" style="fill:#1f77b4;"/>
   </g>
   <g id="patch_7">
    <path clip-path="url(#p9ecabe6fbf)" d="M 111.049315 307.584 
L 113.769219 307.584 
L 113.769219 298.45699 
L 111.049315 298.45699 
z
" style="fill:#1f77b4;"/>
   </g>
   <g id="patch_8">
    <path clip-path="url(#p9ecabe6fbf)" d="M 113.769219 307.584 
L 116.489122 307.584 
L 116.489122 298.196218 
L 113.769219 298.196218 
z
" style="fill:#1f77b4;"/>
   </g>
   <g id="patch_9">
    <path clip-path="url(#p9ecabe6fbf)" d="M 116.489115 307.584 
L 119.209026 307.584 
L 119.209026 292.980825 
L 116.489115 292.980825 
z
" style="fill:#1f77b4;"/>
   </g>
   <g id="patch_10">
    <path clip-path="url(#p9ecabe6fbf)" d="M 119.209034 307.584 
L 121.928937 307.584 
L 121.928937 294.545414 
L 119.209034 294.545414 
z
" style="fill:#1f77b4;"/>
   </g>
   <g id="patch_11">
    <path clip-path="url(#p9ecabe6fbf)" d="M 121.928937 307.584 
L 124.648841 307.584 
L 124.648841 289.069208 
L 121.928937 289.069208 
z
" style="fill:#1f77b4;"/>
   </g>
   <g id="patch_12">
    <path clip-path="url(#p9ecabe6fbf)" d="M 124.648841 307.584 
L 127.368744 307.584 
L 127.368744 291.937697 
L 124.648841 291.937697 
z
" style="fill:#1f77b4;"/>
   </g>
   <g id="patch_13">
    <path clip-path="url(#p9ecabe6fbf)" d="M 127.368744 307.584 
L 130.088655 307.584 
L 130.088655 294.28468 
L 127.368744 294.28468 
z
" style="fill:#1f77b4;"/>
   </g>
   <g id="patch_14">
    <path clip-path="url(#p9ecabe6fbf)" d="M 130.088655 307.584 
L 132.808559 307.584 
L 132.808559 287.504578 
L 130.088655 287.504578 
z
" style="fill:#1f77b4;"/>
   </g>
   <g id="patch_15">
    <path clip-path="url(#p9ecabe6fbf)" d="M 132.808559 307.584 
L 135.528463 307.584 
L 135.528463 285.157632 
L 132.808559 285.157632 
z
" style="fill:#1f77b4;"/>
   </g>
   <g id="patch_16">
    <path clip-path="url(#p9ecabe6fbf)" d="M 135.528463 307.584 
L 138.248366 307.584 
L 138.248366 287.243806 
L 135.528463 287.243806 
z
" style="fill:#1f77b4;"/>
   </g>
   <g id="patch_17">
    <path clip-path="url(#p9ecabe6fbf)" d="M 138.248358 307.584 
L 140.96827 307.584 
L 140.96827 290.112344 
L 138.248358 290.112344 
z
" style="fill:#1f77b4;"/>
   </g>
   <g id="patch_18">
    <path clip-path="url(#p9ecabe6fbf)" d="M 140.968277 307.584 
L 143.688181 307.584 
L 143.688181 284.114545 
L 140.968277 284.114545 
z
" style="fill:#1f77b4;"/>
   </g>
   <g id="patch_19">
    <path clip-path="url(#p9ecabe6fbf)" d="M 143.688181 307.584 
L 146.408084 307.584 
L 146.408084 288.026121 
L 143.688181 288.026121 
z
" style="fill:#1f77b4;"/>
   </g>
   <g id="patch_20">
    <path clip-path="url(#p9ecabe6fbf)" d="M 146.408084 307.584 
L 149.127988 307.584 
L 149.127988 286.722262 
L 146.408084 286.722262 
z
" style="fill:#1f77b4;"/>
   </g>
   <g id="patch_21">
    <path clip-path="url(#p9ecabe6fbf)" d="M 149.127988 307.584 
L 151.847899 307.584 
L 151.847899 280.463818 
L 149.127988 280.463818 
z
" style="fill:#1f77b4;"/>
   </g>
   <g id="patch_22">
    <path clip-path="url(#p9ecabe6fbf)" d="M 151.847899 307.584 
L 154.567803 307.584 
L 154.567803 282.028371 
L 151.847899 282.028371 
z
" style="fill:#1f77b4;"/>
   </g>
   <g id="patch_23">
    <path clip-path="url(#p9ecabe6fbf)" d="M 154.567803 307.584 
L 157.287706 307.584 
L 157.287706 286.461491 
L 154.567803 286.461491 
z
" style="fill:#1f77b4;"/>
   </g>
   <g id="patch_24">
    <path clip-path="url(#p9ecabe6fbf)" d="M 157.287706 307.584 
L 160.00761 307.584 
L 160.00761 278.116796 
L 157.287706 278.116796 
z
" style="fill:#1f77b4;"/>
   </g>
   <g id="patch_25">
    <path clip-path="url(#p9ecabe6fbf)" d="M 160.007602 307.584 
L 162.727513 307.584 
L 162.727513 279.681505 
L 160.007602 279.681505 
z
" style="fill:#1f77b4;"/>
   </g>
   <g id="patch_26">
    <path clip-path="url(#p9ecabe6fbf)" d="M 162.727521 307.584 
L 165.447425 307.584 
L 165.447425 271.858274 
L 162.727521 271.858274 
z
" style="fill:#1f77b4;"/>
   </g>
   <g id="patch_27">
    <path clip-path="url(#p9ecabe6fbf)" d="M 165.447425 307.584 
L 168.167328 307.584 
L 168.167328 278.899111 
L 165.447425 278.899111 
z
" style="fill:#1f77b4;"/>
   </g>
   <g id="patch_28">
    <path clip-path="url(#p9ecabe6fbf)" d="M 168.167328 307.584 
L 170.887232 307.584 
L 170.887232 270.293644 
L 168.167328 270.293644 
z
" style="fill:#1f77b4;"/>
   </g>
   <g id="patch_29">
    <path clip-path="url(#p9ecabe6fbf)" d="M 170.887232 307.584 
L 173.607139 307.584 
L 173.607139 265.860584 
L 170.887232 265.860584 
z
" style="fill:#1f77b4;"/>
   </g>
   <g id="patch_30">
    <path clip-path="url(#p9ecabe6fbf)" d="M 173.607139 307.584 
L 176.327043 307.584 
L 176.327043 265.338981 
L 173.607139 265.338981 
z
" style="fill:#1f77b4;"/>
   </g>
   <g id="patch_31">
    <path clip-path="url(#p9ecabe6fbf)" d="M 176.327047 307.584 
L 179.046954 307.584 
L 179.046954 263.252871 
L 176.327047 263.252871 
z
" style="fill:#1f77b4;"/>
   </g>
   <g id="patch_32">
    <path clip-path="url(#p9ecabe6fbf)" d="M 179.04695 307.584 
L 181.766854 307.584 
L 181.766854 268.20747 
L 179.04695 268.20747 
z
" style="fill:#1f77b4;"/>
   </g>
   <g id="patch_33">
    <path clip-path="url(#p9ecabe6fbf)" d="M 181.766854 307.584 
L 184.486761 307.584 
L 184.486761 257.515901 
L 181.766854 257.515901 
z
" style="fill:#1f77b4;"/>
   </g>
   <g id="patch_34">
    <path clip-path="url(#p9ecabe6fbf)" d="M 184.486761 307.584 
L 187.206665 307.584 
L 187.206665 260.905862 
L 184.486761 260.905862 
z
" style="fill:#1f77b4;"/>
   </g>
   <g id="patch_35">
    <path clip-path="url(#p9ecabe6fbf)" d="M 187.206668 307.584 
L 189.926576 307.584 
L 189.926576 253.082788 
L 187.206668 253.082788 
z
" style="fill:#1f77b4;"/>
   </g>
   <g id="patch_36">
    <path clip-path="url(#p9ecabe6fbf)" d="M 189.926572 307.584 
L 192.646476 307.584 
L 192.646476 246.041874 
L 189.926572 246.041874 
z
" style="fill:#1f77b4;"/>
   </g>
   <g id="patch_37">
    <path clip-path="url(#p9ecabe6fbf)" d="M 192.646476 307.584 
L 195.366383 307.584 
L 195.366383 242.391163 
L 192.646476 242.391163 
z
" style="fill:#1f77b4;"/>
   </g>
   <g id="patch_38">
    <path clip-path="url(#p9ecabe6fbf)" d="M 195.366383 307.584 
L 198.086287 307.584 
L 198.086287 233.26406 
L 195.366383 233.26406 
z
" style="fill:#1f77b4;"/>
   </g>
   <g id="patch_39">
    <path clip-path="url(#p9ecabe6fbf)" d="M 198.08629 307.584 
L 200.806198 307.584 
L 200.806198 234.307251 
L 198.08629 234.307251 
z
" style="fill:#1f77b4;"/>
   </g>
   <g id="patch_40">
    <path clip-path="url(#p9ecabe6fbf)" d="M 200.806194 307.584 
L 203.526097 307.584 
L 203.526097 228.570169 
L 200.806194 228.570169 
z
" style="fill:#1f77b4;"/>
   </g>
   <g id="patch_41">
    <path clip-path="url(#p9ecabe6fbf)" d="M 203.526097 307.584 
L 206.246003 307.584 
L 206.246003 219.703993 
L 203.526097 219.703993 
z
" style="fill:#1f77b4;"/>
   </g>
   <g id="patch_42">
    <path clip-path="url(#p9ecabe6fbf)" d="M 206.246005 307.584 
L 208.96591 307.584 
L 208.96591 221.790165 
L 206.246005 221.790165 
z
" style="fill:#1f77b4;"/>
   </g>
   <g id="patch_43">
    <path clip-path="url(#p9ecabe6fbf)" d="M 208.965908 307.584 
L 211.685814 307.584 
L 211.685814 226.744824 
L 208.965908 226.744824 
z
" style="fill:#1f77b4;"/>
   </g>
   <g id="patch_44">
    <path clip-path="url(#p9ecabe6fbf)" d="M 211.685816 307.584 
L 214.405721 307.584 
L 214.405721 234.046427 
L 211.685816 234.046427 
z
" style="fill:#1f77b4;"/>
   </g>
   <g id="patch_45">
    <path clip-path="url(#p9ecabe6fbf)" d="M 214.405719 307.584 
L 217.125625 307.584 
L 217.125625 231.17794 
L 214.405719 231.17794 
z
" style="fill:#1f77b4;"/>
   </g>
   <g id="patch_46">
    <path clip-path="url(#p9ecabe6fbf)" d="M 217.125627 307.584 
L 219.845532 307.584 
L 219.845532 219.443221 
L 217.125627 219.443221 
z
" style="fill:#1f77b4;"/>
   </g>
   <g id="patch_47">
    <path clip-path="url(#p9ecabe6fbf)" d="M 219.84553 307.584 
L 222.565436 307.584 
L 222.565436 210.316217 
L 219.84553 210.316217 
z
" style="fill:#1f77b4;"/>
   </g>
   <g id="patch_48">
    <path clip-path="url(#p9ecabe6fbf)" d="M 222.565436 307.584 
L 225.285341 307.584 
L 225.285341 218.660907 
L 222.565436 218.660907 
z
" style="fill:#1f77b4;"/>
   </g>
   <g id="patch_49">
    <path clip-path="url(#p9ecabe6fbf)" d="M 225.285341 307.584 
L 228.005247 307.584 
L 228.005247 214.488562 
L 225.285341 214.488562 
z
" style="fill:#1f77b4;"/>
   </g>
   <g id="patch_50">
    <path clip-path="url(#p9ecabe6fbf)" d="M 228.005247 307.584 
L 230.725152 307.584 
L 230.725152 210.83776 
L 228.005247 210.83776 
z
" style="fill:#1f77b4;"/>
   </g>
   <g id="patch_51">
    <path clip-path="url(#p9ecabe6fbf)" d="M 230.725152 307.584 
L 233.445058 307.584 
L 233.445058 195.45224 
L 230.725152 195.45224 
z
" style="fill:#1f77b4;"/>
   </g>
   <g id="patch_52">
    <path clip-path="url(#p9ecabe6fbf)" d="M 233.445058 307.584 
L 236.164963 307.584 
L 236.164963 109.397633 
L 233.445058 109.397633 
z
" style="fill:#1f77b4;"/>
   </g>
   <g id="patch_53">
    <path clip-path="url(#p9ecabe6fbf)" d="M 236.164963 307.584 
L 238.884869 307.584 
L 238.884869 195.191468 
L 236.164963 195.191468 
z
" style="fill:#1f77b4;"/>
   </g>
   <g id="patch_54">
    <path clip-path="url(#p9ecabe6fbf)" d="M 238.884869 307.584 
L 241.604774 307.584 
L 241.604774 173.547431 
L 238.884869 173.547431 
z
" style="fill:#1f77b4;"/>
   </g>
   <g id="patch_55">
    <path clip-path="url(#p9ecabe6fbf)" d="M 241.604774 307.584 
L 244.32468 307.584 
L 244.32468 201.449985 
L 241.604774 201.449985 
z
" style="fill:#1f77b4;"/>
   </g>
   <g id="patch_56">
    <path clip-path="url(#p9ecabe6fbf)" d="M 244.32468 307.584 
L 247.044585 307.584 
L 247.044585 213.184704 
L 244.32468 213.184704 
z
" style="fill:#1f77b4;"/>
   </g>
   <g id="patch_57">
    <path clip-path="url(#p9ecabe6fbf)" d="M 247.044585 307.584 
L 249.764491 307.584 
L 249.764491 205.361558 
L 247.044585 205.361558 
z
" style="fill:#1f77b4;"/>
   </g>
   <g id="patch_58">
    <path clip-path="url(#p9ecabe6fbf)" d="M 249.764491 307.584 
L 252.484396 307.584 
L 252.484396 204.579244 
L 249.764491 204.579244 
z
" style="fill:#1f77b4;"/>
   </g>
   <g id="patch_59">
    <path clip-path="url(#p9ecabe6fbf)" d="M 252.484396 307.584 
L 255.204301 307.584 
L 255.204301 204.579244 
L 252.484396 204.579244 
z
" style="fill:#1f77b4;"/>
   </g>
   <g id="patch_60">
    <path clip-path="url(#p9ecabe6fbf)" d="M 255.204303 307.584 
L 257.924209 307.584 
L 257.924209 213.445476 
L 255.204303 213.445476 
z
" style="fill:#1f77b4;"/>
   </g>
   <g id="patch_61">
    <path clip-path="url(#p9ecabe6fbf)" d="M 257.924207 307.584 
L 260.644112 307.584 
L 260.644112 213.967019 
L 257.924207 213.967019 
z
" style="fill:#1f77b4;"/>
   </g>
   <g id="patch_62">
    <path clip-path="url(#p9ecabe6fbf)" d="M 260.644114 307.584 
L 263.36402 307.584 
L 263.36402 215.79242 
L 260.644114 215.79242 
z
" style="fill:#1f77b4;"/>
   </g>
   <g id="patch_63">
    <path clip-path="url(#p9ecabe6fbf)" d="M 263.364018 307.584 
L 266.083923 307.584 
L 266.083923 221.529393 
L 263.364018 221.529393 
z
" style="fill:#1f77b4;"/>
   </g>
   <g id="patch_64">
    <path clip-path="url(#p9ecabe6fbf)" d="M 266.083925 307.584 
L 268.803829 307.584 
L 268.803829 236.654142 
L 266.083925 236.654142 
z
" style="fill:#1f77b4;"/>
   </g>
   <g id="patch_65">
    <path clip-path="url(#p9ecabe6fbf)" d="M 268.803829 307.584 
L 271.523732 307.584 
L 271.523732 230.395571 
L 268.803829 230.395571 
z
" style="fill:#1f77b4;"/>
   </g>
   <g id="patch_66">
    <path clip-path="url(#p9ecabe6fbf)" d="M 271.523732 307.584 
L 274.24364 307.584 
L 274.24364 235.089565 
L 271.523732 235.089565 
z
" style="fill:#1f77b4;"/>
   </g>
   <g id="patch_67">
    <path clip-path="url(#p9ecabe6fbf)" d="M 274.24364 307.584 
L 276.963543 307.584 
L 276.963543 234.567918 
L 274.24364 234.567918 
z
" style="fill:#1f77b4;"/>
   </g>
   <g id="patch_68">
    <path clip-path="url(#p9ecabe6fbf)" d="M 276.963547 307.584 
L 279.683455 307.584 
L 279.683455 244.216562 
L 276.963547 244.216562 
z
" style="fill:#1f77b4;"/>
   </g>
   <g id="patch_69">
    <path clip-path="url(#p9ecabe6fbf)" d="M 279.683451 307.584 
L 282.403354 307.584 
L 282.403354 252.300395 
L 279.683451 252.300395 
z
" style="fill:#1f77b4;"/>
   </g>
   <g id="patch_70">
    <path clip-path="url(#p9ecabe6fbf)" d="M 282.403354 307.584 
L 285.123262 307.584 
L 285.123262 248.910446 
L 282.403354 248.910446 
z
" style="fill:#1f77b4;"/>
   </g>
   <g id="patch_71">
    <path clip-path="url(#p9ecabe6fbf)" d="M 285.123262 307.584 
L 287.843165 307.584 
L 287.843165 253.604254 
L 285.123262 253.604254 
z
" style="fill:#1f77b4;"/>
   </g>
   <g id="patch_72">
    <path clip-path="url(#p9ecabe6fbf)" d="M 287.843169 307.584 
L 290.563077 307.584 
L 290.563077 254.386645 
L 287.843169 254.386645 
z
" style="fill:#1f77b4;"/>
   </g>
   <g id="patch_73">
    <path clip-path="url(#p9ecabe6fbf)" d="M 290.563073 307.584 
L 293.282976 307.584 
L 293.282976 258.037373 
L 290.563073 258.037373 
z
" style="fill:#1f77b4;"/>
   </g>
   <g id="patch_74">
    <path clip-path="url(#p9ecabe6fbf)" d="M 293.282976 307.584 
L 296.002884 307.584 
L 296.002884 270.81524 
L 293.282976 270.81524 
z
" style="fill:#1f77b4;"/>
   </g>
   <g id="patch_75">
    <path clip-path="url(#p9ecabe6fbf)" d="M 296.002884 307.584 
L 298.722787 307.584 
L 298.722787 267.164383 
L 296.002884 267.164383 
z
" style="fill:#1f77b4;"/>
   </g>
   <g id="patch_76">
    <path clip-path="url(#p9ecabe6fbf)" d="M 298.722791 307.584 
L 301.442695 307.584 
L 301.442695 269.772154 
L 298.722791 269.772154 
z
" style="fill:#1f77b4;"/>
   </g>
   <g id="patch_77">
    <path clip-path="url(#p9ecabe6fbf)" d="M 301.442695 307.584 
L 304.162598 307.584 
L 304.162598 274.465991 
L 301.442695 274.465991 
z
" style="fill:#1f77b4;"/>
   </g>
   <g id="patch_78">
    <path clip-path="url(#p9ecabe6fbf)" d="M 304.162598 307.584 
L 306.882502 307.584 
L 306.882502 279.681426 
L 304.162598 279.681426 
z
" style="fill:#1f77b4;"/>
   </g>
   <g id="patch_79">
    <path clip-path="url(#p9ecabe6fbf)" d="M 306.882502 307.584 
L 309.602405 307.584 
L 309.602405 285.939947 
L 306.882502 285.939947 
z
" style="fill:#1f77b4;"/>
   </g>
   <g id="patch_80">
    <path clip-path="url(#p9ecabe6fbf)" d="M 309.602405 307.584 
L 312.322316 307.584 
L 312.322316 285.940009 
L 309.602405 285.940009 
z
" style="fill:#1f77b4;"/>
   </g>
   <g id="patch_81">
    <path clip-path="url(#p9ecabe6fbf)" d="M 312.322316 307.584 
L 315.04222 307.584 
L 315.04222 289.851523 
L 312.322316 289.851523 
z
" style="fill:#1f77b4;"/>
   </g>
   <g id="patch_82">
    <path clip-path="url(#p9ecabe6fbf)" d="M 315.04222 307.584 
L 317.762124 307.584 
L 317.762124 290.373066 
L 315.04222 290.373066 
z
" style="fill:#1f77b4;"/>
   </g>
   <g id="patch_83">
    <path clip-path="url(#p9ecabe6fbf)" d="M 317.762124 307.584 
L 320.482027 307.584 
L 320.482027 291.416153 
L 317.762124 291.416153 
z
" style="fill:#1f77b4;"/>
   </g>
   <g id="patch_84">
    <path clip-path="url(#p9ecabe6fbf)" d="M 320.482019 307.584 
L 323.201931 307.584 
L 323.201931 283.332299 
L 320.482019 283.332299 
z
" style="fill:#1f77b4;"/>
   </g>
   <g id="patch_85">
    <path clip-path="url(#p9ecabe6fbf)" d="M 323.201938 307.584 
L 325.921842 307.584 
L 325.921842 291.416153 
L 323.201938 291.416153 
z
" style="fill:#1f77b4;"/>
   </g>
   <g id="patch_86">
    <path clip-path="url(#p9ecabe6fbf)" d="M 325.921842 307.584 
L 328.641745 307.584 
L 328.641745 286.200719 
L 325.921842 286.200719 
z
" style="fill:#1f77b4;"/>
   </g>
   <g id="patch_87">
    <path clip-path="url(#p9ecabe6fbf)" d="M 328.641745 307.584 
L 331.361649 307.584 
L 331.361649 291.155382 
L 328.641745 291.155382 
z
" style="fill:#1f77b4;"/>
   </g>
   <g id="patch_88">
    <path clip-path="url(#p9ecabe6fbf)" d="M 331.361649 307.584 
L 334.08156 307.584 
L 334.08156 295.849306 
L 331.361649 295.849306 
z
" style="fill:#1f77b4;"/>
   </g>
   <g id="patch_89">
    <path clip-path="url(#p9ecabe6fbf)" d="M 334.08156 307.584 
L 336.801464 307.584 
L 336.801464 293.763099 
L 334.08156 293.763099 
z
" style="fill:#1f77b4;"/>
   </g>
   <g id="patch_90">
    <path clip-path="url(#p9ecabe6fbf)" d="M 336.801464 307.584 
L 339.521367 307.584 
L 339.521367 295.327729 
L 336.801464 295.327729 
z
" style="fill:#1f77b4;"/>
   </g>
   <g id="patch_91">
    <path clip-path="url(#p9ecabe6fbf)" d="M 339.521367 307.584 
L 342.241271 307.584 
L 342.241271 294.806186 
L 339.521367 294.806186 
z
" style="fill:#1f77b4;"/>
   </g>
   <g id="patch_92">
    <path clip-path="url(#p9ecabe6fbf)" d="M 342.241263 307.584 
L 344.961174 307.584 
L 344.961174 295.588535 
L 342.241263 295.588535 
z
" style="fill:#1f77b4;"/>
   </g>
   <g id="patch_93">
    <path clip-path="url(#p9ecabe6fbf)" d="M 344.961182 307.584 
L 347.681086 307.584 
L 347.681086 295.588501 
L 344.961182 295.588501 
z
" style="fill:#1f77b4;"/>
   </g>
   <g id="patch_94">
    <path clip-path="url(#p9ecabe6fbf)" d="M 347.681086 307.584 
L 350.400989 307.584 
L 350.400989 296.892359 
L 347.681086 296.892359 
z
" style="fill:#1f77b4;"/>
   </g>
   <g id="patch_95">
    <path clip-path="url(#p9ecabe6fbf)" d="M 350.400989 307.584 
L 353.120893 307.584 
L 353.120893 300.282392 
L 350.400989 300.282392 
z
" style="fill:#1f77b4;"/>
   </g>
   <g id="patch_96">
    <path clip-path="url(#p9ecabe6fbf)" d="M 353.120893 307.584 
L 355.840804 307.584 
L 355.840804 302.36858 
L 353.120893 302.36858 
z
" style="fill:#1f77b4;"/>
   </g>
   <g id="patch_97">
    <path clip-path="url(#p9ecabe6fbf)" d="M 355.840804 307.584 
L 358.560708 307.584 
L 358.560708 299.500077 
L 355.840804 299.500077 
z
" style="fill:#1f77b4;"/>
   </g>
   <g id="patch_98">
    <path clip-path="url(#p9ecabe6fbf)" d="M 358.560708 307.584 
L 361.280611 307.584 
L 361.280611 303.672424 
L 358.560708 303.672424 
z
" style="fill:#1f77b4;"/>
   </g>
   <g id="patch_99">
    <path clip-path="url(#p9ecabe6fbf)" d="M 361.280611 307.584 
L 364.000515 307.584 
L 364.000515 303.150881 
L 361.280611 303.150881 
z
" style="fill:#1f77b4;"/>
   </g>
   <g id="patch_100">
    <path clip-path="url(#p9ecabe6fbf)" d="M 364.000507 307.584 
L 366.72041 307.584 
L 366.72041 304.193977 
L 364.000507 304.193977 
z
" style="fill:#1f77b4;"/>
   </g>
   <g id="patch_101">
    <path clip-path="url(#p9ecabe6fbf)" d="M 366.72041 307.584 
L 369.440314 307.584 
L 369.440314 305.497826 
L 366.72041 305.497826 
z
" style="fill:#1f77b4;"/>
   </g>
   <g id="patch_102">
    <path clip-path="url(#p9ecabe6fbf)" d="M 369.440329 307.584 
L 372.160233 307.584 
L 372.160233 304.193968 
L 369.440329 304.193968 
z
" style="fill:#1f77b4;"/>
   </g>
   <g id="matplotlib.axis_1">
    <g id="xtick_1">
     <g id="line2d_1">
      <defs>
       <path d="M 0 0 
L 0 3.5 
" id="maf2eb2305e" style="stroke:#000000;stroke-width:0.8;"/>
      </defs>
      <g>
       <use style="stroke:#000000;stroke-width:0.8;" x="106.299109" xlink:href="#maf2eb2305e" y="307.584"/>
      </g>
     </g>
     <g id="text_1">
      <!-- −2 -->
      <defs>
       <path d="M 10.59375 35.5 
L 73.1875 35.5 
L 73.1875 27.203125 
L 10.59375 27.203125 
z
" id="DejaVuSans-8722"/>
       <path d="M 19.1875 8.296875 
L 53.609375 8.296875 
L 53.609375 0 
L 7.328125 0 
L 7.328125 8.296875 
Q 12.9375 14.109375 22.625 23.890625 
Q 32.328125 33.6875 34.8125 36.53125 
Q 39.546875 41.84375 41.421875 45.53125 
Q 43.3125 49.21875 43.3125 52.78125 
Q 43.3125 58.59375 39.234375 62.25 
Q 35.15625 65.921875 28.609375 65.921875 
Q 23.96875 65.921875 18.8125 64.3125 
Q 13.671875 62.703125 7.8125 59.421875 
L 7.8125 69.390625 
Q 13.765625 71.78125 18.9375 73 
Q 24.125 74.21875 28.421875 74.21875 
Q 39.75 74.21875 46.484375 68.546875 
Q 53.21875 62.890625 53.21875 53.421875 
Q 53.21875 48.921875 51.53125 44.890625 
Q 49.859375 40.875 45.40625 35.40625 
Q 44.1875 33.984375 37.640625 27.21875 
Q 31.109375 20.453125 19.1875 8.296875 
z
" id="DejaVuSans-50"/>
      </defs>
      <g transform="translate(93.76825 327.501344)scale(0.17 -0.17)">
       <use xlink:href="#DejaVuSans-8722"/>
       <use x="83.789062" xlink:href="#DejaVuSans-50"/>
      </g>
     </g>
    </g>
    <g id="xtick_2">
     <g id="line2d_2">
      <g>
       <use style="stroke:#000000;stroke-width:0.8;" x="171.231874" xlink:href="#maf2eb2305e" y="307.584"/>
      </g>
     </g>
     <g id="text_2">
      <!-- −1 -->
      <defs>
       <path d="M 12.40625 8.296875 
L 28.515625 8.296875 
L 28.515625 63.921875 
L 10.984375 60.40625 
L 10.984375 69.390625 
L 28.421875 72.90625 
L 38.28125 72.90625 
L 38.28125 8.296875 
L 54.390625 8.296875 
L 54.390625 0 
L 12.40625 0 
z
" id="DejaVuSans-49"/>
      </defs>
      <g transform="translate(158.701014 327.501344)scale(0.17 -0.17)">
       <use xlink:href="#DejaVuSans-8722"/>
       <use x="83.789062" xlink:href="#DejaVuSans-49"/>
      </g>
     </g>
    </g>
    <g id="xtick_3">
     <g id="line2d_3">
      <g>
       <use style="stroke:#000000;stroke-width:0.8;" x="236.164638" xlink:href="#maf2eb2305e" y="307.584"/>
      </g>
     </g>
     <g id="text_3">
      <!-- 0 -->
      <defs>
       <path d="M 31.78125 66.40625 
Q 24.171875 66.40625 20.328125 58.90625 
Q 16.5 51.421875 16.5 36.375 
Q 16.5 21.390625 20.328125 13.890625 
Q 24.171875 6.390625 31.78125 6.390625 
Q 39.453125 6.390625 43.28125 13.890625 
Q 47.125 21.390625 47.125 36.375 
Q 47.125 51.421875 43.28125 58.90625 
Q 39.453125 66.40625 31.78125 66.40625 
z
M 31.78125 74.21875 
Q 44.046875 74.21875 50.515625 64.515625 
Q 56.984375 54.828125 56.984375 36.375 
Q 56.984375 17.96875 50.515625 8.265625 
Q 44.046875 -1.421875 31.78125 -1.421875 
Q 19.53125 -1.421875 13.0625 8.265625 
Q 6.59375 17.96875 6.59375 36.375 
Q 6.59375 54.828125 13.0625 64.515625 
Q 19.53125 74.21875 31.78125 74.21875 
z
" id="DejaVuSans-48"/>
      </defs>
      <g transform="translate(230.756513 327.501344)scale(0.17 -0.17)">
       <use xlink:href="#DejaVuSans-48"/>
      </g>
     </g>
    </g>
    <g id="xtick_4">
     <g id="line2d_4">
      <g>
       <use style="stroke:#000000;stroke-width:0.8;" x="301.097402" xlink:href="#maf2eb2305e" y="307.584"/>
      </g>
     </g>
     <g id="text_4">
      <!-- 1 -->
      <g transform="translate(295.689277 327.501344)scale(0.17 -0.17)">
       <use xlink:href="#DejaVuSans-49"/>
      </g>
     </g>
    </g>
    <g id="xtick_5">
     <g id="line2d_5">
      <g>
       <use style="stroke:#000000;stroke-width:0.8;" x="366.030167" xlink:href="#maf2eb2305e" y="307.584"/>
      </g>
     </g>
     <g id="text_5">
      <!-- 2 -->
      <g transform="translate(360.622042 327.501344)scale(0.17 -0.17)">
       <use xlink:href="#DejaVuSans-50"/>
      </g>
     </g>
    </g>
    <g id="text_6">
     <!-- Position in Radian -->
     <defs>
      <path d="M 19.671875 64.796875 
L 19.671875 37.40625 
L 32.078125 37.40625 
Q 38.96875 37.40625 42.71875 40.96875 
Q 46.484375 44.53125 46.484375 51.125 
Q 46.484375 57.671875 42.71875 61.234375 
Q 38.96875 64.796875 32.078125 64.796875 
z
M 9.8125 72.90625 
L 32.078125 72.90625 
Q 44.34375 72.90625 50.609375 67.359375 
Q 56.890625 61.8125 56.890625 51.125 
Q 56.890625 40.328125 50.609375 34.8125 
Q 44.34375 29.296875 32.078125 29.296875 
L 19.671875 29.296875 
L 19.671875 0 
L 9.8125 0 
z
" id="DejaVuSans-80"/>
      <path d="M 30.609375 48.390625 
Q 23.390625 48.390625 19.1875 42.75 
Q 14.984375 37.109375 14.984375 27.296875 
Q 14.984375 17.484375 19.15625 11.84375 
Q 23.34375 6.203125 30.609375 6.203125 
Q 37.796875 6.203125 41.984375 11.859375 
Q 46.1875 17.53125 46.1875 27.296875 
Q 46.1875 37.015625 41.984375 42.703125 
Q 37.796875 48.390625 30.609375 48.390625 
z
M 30.609375 56 
Q 42.328125 56 49.015625 48.375 
Q 55.71875 40.765625 55.71875 27.296875 
Q 55.71875 13.875 49.015625 6.21875 
Q 42.328125 -1.421875 30.609375 -1.421875 
Q 18.84375 -1.421875 12.171875 6.21875 
Q 5.515625 13.875 5.515625 27.296875 
Q 5.515625 40.765625 12.171875 48.375 
Q 18.84375 56 30.609375 56 
z
" id="DejaVuSans-111"/>
      <path d="M 44.28125 53.078125 
L 44.28125 44.578125 
Q 40.484375 46.53125 36.375 47.5 
Q 32.28125 48.484375 27.875 48.484375 
Q 21.1875 48.484375 17.84375 46.4375 
Q 14.5 44.390625 14.5 40.28125 
Q 14.5 37.15625 16.890625 35.375 
Q 19.28125 33.59375 26.515625 31.984375 
L 29.59375 31.296875 
Q 39.15625 29.25 43.1875 25.515625 
Q 47.21875 21.78125 47.21875 15.09375 
Q 47.21875 7.46875 41.1875 3.015625 
Q 35.15625 -1.421875 24.609375 -1.421875 
Q 20.21875 -1.421875 15.453125 -0.5625 
Q 10.6875 0.296875 5.421875 2 
L 5.421875 11.28125 
Q 10.40625 8.6875 15.234375 7.390625 
Q 20.0625 6.109375 24.8125 6.109375 
Q 31.15625 6.109375 34.5625 8.28125 
Q 37.984375 10.453125 37.984375 14.40625 
Q 37.984375 18.0625 35.515625 20.015625 
Q 33.0625 21.96875 24.703125 23.78125 
L 21.578125 24.515625 
Q 13.234375 26.265625 9.515625 29.90625 
Q 5.8125 33.546875 5.8125 39.890625 
Q 5.8125 47.609375 11.28125 51.796875 
Q 16.75 56 26.8125 56 
Q 31.78125 56 36.171875 55.265625 
Q 40.578125 54.546875 44.28125 53.078125 
z
" id="DejaVuSans-115"/>
      <path d="M 9.421875 54.6875 
L 18.40625 54.6875 
L 18.40625 0 
L 9.421875 0 
z
M 9.421875 75.984375 
L 18.40625 75.984375 
L 18.40625 64.59375 
L 9.421875 64.59375 
z
" id="DejaVuSans-105"/>
      <path d="M 18.3125 70.21875 
L 18.3125 54.6875 
L 36.8125 54.6875 
L 36.8125 47.703125 
L 18.3125 47.703125 
L 18.3125 18.015625 
Q 18.3125 11.328125 20.140625 9.421875 
Q 21.96875 7.515625 27.59375 7.515625 
L 36.8125 7.515625 
L 36.8125 0 
L 27.59375 0 
Q 17.1875 0 13.234375 3.875 
Q 9.28125 7.765625 9.28125 18.015625 
L 9.28125 47.703125 
L 2.6875 47.703125 
L 2.6875 54.6875 
L 9.28125 54.6875 
L 9.28125 70.21875 
z
" id="DejaVuSans-116"/>
      <path d="M 54.890625 33.015625 
L 54.890625 0 
L 45.90625 0 
L 45.90625 32.71875 
Q 45.90625 40.484375 42.875 44.328125 
Q 39.84375 48.1875 33.796875 48.1875 
Q 26.515625 48.1875 22.3125 43.546875 
Q 18.109375 38.921875 18.109375 30.90625 
L 18.109375 0 
L 9.078125 0 
L 9.078125 54.6875 
L 18.109375 54.6875 
L 18.109375 46.1875 
Q 21.34375 51.125 25.703125 53.5625 
Q 30.078125 56 35.796875 56 
Q 45.21875 56 50.046875 50.171875 
Q 54.890625 44.34375 54.890625 33.015625 
z
" id="DejaVuSans-110"/>
      <path id="DejaVuSans-32"/>
      <path d="M 44.390625 34.1875 
Q 47.5625 33.109375 50.5625 29.59375 
Q 53.5625 26.078125 56.59375 19.921875 
L 66.609375 0 
L 56 0 
L 46.6875 18.703125 
Q 43.0625 26.03125 39.671875 28.421875 
Q 36.28125 30.8125 30.421875 30.8125 
L 19.671875 30.8125 
L 19.671875 0 
L 9.8125 0 
L 9.8125 72.90625 
L 32.078125 72.90625 
Q 44.578125 72.90625 50.734375 67.671875 
Q 56.890625 62.453125 56.890625 51.90625 
Q 56.890625 45.015625 53.6875 40.46875 
Q 50.484375 35.9375 44.390625 34.1875 
z
M 19.671875 64.796875 
L 19.671875 38.921875 
L 32.078125 38.921875 
Q 39.203125 38.921875 42.84375 42.21875 
Q 46.484375 45.515625 46.484375 51.90625 
Q 46.484375 58.296875 42.84375 61.546875 
Q 39.203125 64.796875 32.078125 64.796875 
z
" id="DejaVuSans-82"/>
      <path d="M 34.28125 27.484375 
Q 23.390625 27.484375 19.1875 25 
Q 14.984375 22.515625 14.984375 16.5 
Q 14.984375 11.71875 18.140625 8.90625 
Q 21.296875 6.109375 26.703125 6.109375 
Q 34.1875 6.109375 38.703125 11.40625 
Q 43.21875 16.703125 43.21875 25.484375 
L 43.21875 27.484375 
z
M 52.203125 31.203125 
L 52.203125 0 
L 43.21875 0 
L 43.21875 8.296875 
Q 40.140625 3.328125 35.546875 0.953125 
Q 30.953125 -1.421875 24.3125 -1.421875 
Q 15.921875 -1.421875 10.953125 3.296875 
Q 6 8.015625 6 15.921875 
Q 6 25.140625 12.171875 29.828125 
Q 18.359375 34.515625 30.609375 34.515625 
L 43.21875 34.515625 
L 43.21875 35.40625 
Q 43.21875 41.609375 39.140625 45 
Q 35.0625 48.390625 27.6875 48.390625 
Q 23 48.390625 18.546875 47.265625 
Q 14.109375 46.140625 10.015625 43.890625 
L 10.015625 52.203125 
Q 14.9375 54.109375 19.578125 55.046875 
Q 24.21875 56 28.609375 56 
Q 40.484375 56 46.34375 49.84375 
Q 52.203125 43.703125 52.203125 31.203125 
z
" id="DejaVuSans-97"/>
      <path d="M 45.40625 46.390625 
L 45.40625 75.984375 
L 54.390625 75.984375 
L 54.390625 0 
L 45.40625 0 
L 45.40625 8.203125 
Q 42.578125 3.328125 38.25 0.953125 
Q 33.9375 -1.421875 27.875 -1.421875 
Q 17.96875 -1.421875 11.734375 6.484375 
Q 5.515625 14.40625 5.515625 27.296875 
Q 5.515625 40.1875 11.734375 48.09375 
Q 17.96875 56 27.875 56 
Q 33.9375 56 38.25 53.625 
Q 42.578125 51.265625 45.40625 46.390625 
z
M 14.796875 27.296875 
Q 14.796875 17.390625 18.875 11.75 
Q 22.953125 6.109375 30.078125 6.109375 
Q 37.203125 6.109375 41.296875 11.75 
Q 45.40625 17.390625 45.40625 27.296875 
Q 45.40625 37.203125 41.296875 42.84375 
Q 37.203125 48.484375 30.078125 48.484375 
Q 22.953125 48.484375 18.875 42.84375 
Q 14.796875 37.203125 14.796875 27.296875 
z
" id="DejaVuSans-100"/>
     </defs>
     <g transform="translate(102.024844 357.832125)scale(0.3 -0.3)">
      <use xlink:href="#DejaVuSans-80"/>
      <use x="60.255859" xlink:href="#DejaVuSans-111"/>
      <use x="121.4375" xlink:href="#DejaVuSans-115"/>
      <use x="173.537109" xlink:href="#DejaVuSans-105"/>
      <use x="201.320312" xlink:href="#DejaVuSans-116"/>
      <use x="240.529297" xlink:href="#DejaVuSans-105"/>
      <use x="268.3125" xlink:href="#DejaVuSans-111"/>
      <use x="329.494141" xlink:href="#DejaVuSans-110"/>
      <use x="392.873047" xlink:href="#DejaVuSans-32"/>
      <use x="424.660156" xlink:href="#DejaVuSans-105"/>
      <use x="452.443359" xlink:href="#DejaVuSans-110"/>
      <use x="515.822266" xlink:href="#DejaVuSans-32"/>
      <use x="547.609375" xlink:href="#DejaVuSans-82"/>
      <use x="617.060547" xlink:href="#DejaVuSans-97"/>
      <use x="678.339844" xlink:href="#DejaVuSans-100"/>
      <use x="741.816406" xlink:href="#DejaVuSans-105"/>
      <use x="769.599609" xlink:href="#DejaVuSans-97"/>
      <use x="830.878906" xlink:href="#DejaVuSans-110"/>
     </g>
    </g>
   </g>
   <g id="matplotlib.axis_2">
    <g id="ytick_1">
     <g id="line2d_6">
      <defs>
       <path d="M 0 0 
L -3.5 0 
" id="mbf1dd3479d" style="stroke:#000000;stroke-width:0.8;"/>
      </defs>
      <g>
       <use style="stroke:#000000;stroke-width:0.8;" x="57.6" xlink:href="#mbf1dd3479d" y="307.584"/>
      </g>
     </g>
     <g id="text_7">
      <!-- 0.0 -->
      <defs>
       <path d="M 10.6875 12.40625 
L 21 12.40625 
L 21 0 
L 10.6875 0 
z
" id="DejaVuSans-46"/>
      </defs>
      <g transform="translate(23.564687 314.042672)scale(0.17 -0.17)">
       <use xlink:href="#DejaVuSans-48"/>
       <use x="63.623047" xlink:href="#DejaVuSans-46"/>
       <use x="95.410156" xlink:href="#DejaVuSans-48"/>
      </g>
     </g>
    </g>
    <g id="ytick_2">
     <g id="line2d_7">
      <g>
       <use style="stroke:#000000;stroke-width:0.8;" x="57.6" xlink:href="#mbf1dd3479d" y="269.352781"/>
      </g>
     </g>
     <g id="text_8">
      <!-- 0.2 -->
      <g transform="translate(23.564687 275.811453)scale(0.17 -0.17)">
       <use xlink:href="#DejaVuSans-48"/>
       <use x="63.623047" xlink:href="#DejaVuSans-46"/>
       <use x="95.410156" xlink:href="#DejaVuSans-50"/>
      </g>
     </g>
    </g>
    <g id="ytick_3">
     <g id="line2d_8">
      <g>
       <use style="stroke:#000000;stroke-width:0.8;" x="57.6" xlink:href="#mbf1dd3479d" y="231.121562"/>
      </g>
     </g>
     <g id="text_9">
      <!-- 0.4 -->
      <defs>
       <path d="M 37.796875 64.3125 
L 12.890625 25.390625 
L 37.796875 25.390625 
z
M 35.203125 72.90625 
L 47.609375 72.90625 
L 47.609375 25.390625 
L 58.015625 25.390625 
L 58.015625 17.1875 
L 47.609375 17.1875 
L 47.609375 0 
L 37.796875 0 
L 37.796875 17.1875 
L 4.890625 17.1875 
L 4.890625 26.703125 
z
" id="DejaVuSans-52"/>
      </defs>
      <g transform="translate(23.564687 237.580234)scale(0.17 -0.17)">
       <use xlink:href="#DejaVuSans-48"/>
       <use x="63.623047" xlink:href="#DejaVuSans-46"/>
       <use x="95.410156" xlink:href="#DejaVuSans-52"/>
      </g>
     </g>
    </g>
    <g id="ytick_4">
     <g id="line2d_9">
      <g>
       <use style="stroke:#000000;stroke-width:0.8;" x="57.6" xlink:href="#mbf1dd3479d" y="192.890343"/>
      </g>
     </g>
     <g id="text_10">
      <!-- 0.6 -->
      <defs>
       <path d="M 33.015625 40.375 
Q 26.375 40.375 22.484375 35.828125 
Q 18.609375 31.296875 18.609375 23.390625 
Q 18.609375 15.53125 22.484375 10.953125 
Q 26.375 6.390625 33.015625 6.390625 
Q 39.65625 6.390625 43.53125 10.953125 
Q 47.40625 15.53125 47.40625 23.390625 
Q 47.40625 31.296875 43.53125 35.828125 
Q 39.65625 40.375 33.015625 40.375 
z
M 52.59375 71.296875 
L 52.59375 62.3125 
Q 48.875 64.0625 45.09375 64.984375 
Q 41.3125 65.921875 37.59375 65.921875 
Q 27.828125 65.921875 22.671875 59.328125 
Q 17.53125 52.734375 16.796875 39.40625 
Q 19.671875 43.65625 24.015625 45.921875 
Q 28.375 48.1875 33.59375 48.1875 
Q 44.578125 48.1875 50.953125 41.515625 
Q 57.328125 34.859375 57.328125 23.390625 
Q 57.328125 12.15625 50.6875 5.359375 
Q 44.046875 -1.421875 33.015625 -1.421875 
Q 20.359375 -1.421875 13.671875 8.265625 
Q 6.984375 17.96875 6.984375 36.375 
Q 6.984375 53.65625 15.1875 63.9375 
Q 23.390625 74.21875 37.203125 74.21875 
Q 40.921875 74.21875 44.703125 73.484375 
Q 48.484375 72.75 52.59375 71.296875 
z
" id="DejaVuSans-54"/>
      </defs>
      <g transform="translate(23.564687 199.349015)scale(0.17 -0.17)">
       <use xlink:href="#DejaVuSans-48"/>
       <use x="63.623047" xlink:href="#DejaVuSans-46"/>
       <use x="95.410156" xlink:href="#DejaVuSans-54"/>
      </g>
     </g>
    </g>
    <g id="ytick_5">
     <g id="line2d_10">
      <g>
       <use style="stroke:#000000;stroke-width:0.8;" x="57.6" xlink:href="#mbf1dd3479d" y="154.659124"/>
      </g>
     </g>
     <g id="text_11">
      <!-- 0.8 -->
      <defs>
       <path d="M 31.78125 34.625 
Q 24.75 34.625 20.71875 30.859375 
Q 16.703125 27.09375 16.703125 20.515625 
Q 16.703125 13.921875 20.71875 10.15625 
Q 24.75 6.390625 31.78125 6.390625 
Q 38.8125 6.390625 42.859375 10.171875 
Q 46.921875 13.96875 46.921875 20.515625 
Q 46.921875 27.09375 42.890625 30.859375 
Q 38.875 34.625 31.78125 34.625 
z
M 21.921875 38.8125 
Q 15.578125 40.375 12.03125 44.71875 
Q 8.5 49.078125 8.5 55.328125 
Q 8.5 64.0625 14.71875 69.140625 
Q 20.953125 74.21875 31.78125 74.21875 
Q 42.671875 74.21875 48.875 69.140625 
Q 55.078125 64.0625 55.078125 55.328125 
Q 55.078125 49.078125 51.53125 44.71875 
Q 48 40.375 41.703125 38.8125 
Q 48.828125 37.15625 52.796875 32.3125 
Q 56.78125 27.484375 56.78125 20.515625 
Q 56.78125 9.90625 50.3125 4.234375 
Q 43.84375 -1.421875 31.78125 -1.421875 
Q 19.734375 -1.421875 13.25 4.234375 
Q 6.78125 9.90625 6.78125 20.515625 
Q 6.78125 27.484375 10.78125 32.3125 
Q 14.796875 37.15625 21.921875 38.8125 
z
M 18.3125 54.390625 
Q 18.3125 48.734375 21.84375 45.5625 
Q 25.390625 42.390625 31.78125 42.390625 
Q 38.140625 42.390625 41.71875 45.5625 
Q 45.3125 48.734375 45.3125 54.390625 
Q 45.3125 60.0625 41.71875 63.234375 
Q 38.140625 66.40625 31.78125 66.40625 
Q 25.390625 66.40625 21.84375 63.234375 
Q 18.3125 60.0625 18.3125 54.390625 
z
" id="DejaVuSans-56"/>
      </defs>
      <g transform="translate(23.564687 161.117795)scale(0.17 -0.17)">
       <use xlink:href="#DejaVuSans-48"/>
       <use x="63.623047" xlink:href="#DejaVuSans-46"/>
       <use x="95.410156" xlink:href="#DejaVuSans-56"/>
      </g>
     </g>
    </g>
    <g id="ytick_6">
     <g id="line2d_11">
      <g>
       <use style="stroke:#000000;stroke-width:0.8;" x="57.6" xlink:href="#mbf1dd3479d" y="116.427904"/>
      </g>
     </g>
     <g id="text_12">
      <!-- 1.0 -->
      <g transform="translate(23.564687 122.886576)scale(0.17 -0.17)">
       <use xlink:href="#DejaVuSans-49"/>
       <use x="63.623047" xlink:href="#DejaVuSans-46"/>
       <use x="95.410156" xlink:href="#DejaVuSans-48"/>
      </g>
     </g>
    </g>
    <g id="ytick_7">
     <g id="line2d_12">
      <g>
       <use style="stroke:#000000;stroke-width:0.8;" x="57.6" xlink:href="#mbf1dd3479d" y="78.196685"/>
      </g>
     </g>
     <g id="text_13">
      <!-- 1.2 -->
      <g transform="translate(23.564687 84.655357)scale(0.17 -0.17)">
       <use xlink:href="#DejaVuSans-49"/>
       <use x="63.623047" xlink:href="#DejaVuSans-46"/>
       <use x="95.410156" xlink:href="#DejaVuSans-50"/>
      </g>
     </g>
    </g>
    <g id="text_14">
     <!-- Density -->
     <defs>
      <path d="M 19.671875 64.796875 
L 19.671875 8.109375 
L 31.59375 8.109375 
Q 46.6875 8.109375 53.6875 14.9375 
Q 60.6875 21.78125 60.6875 36.53125 
Q 60.6875 51.171875 53.6875 57.984375 
Q 46.6875 64.796875 31.59375 64.796875 
z
M 9.8125 72.90625 
L 30.078125 72.90625 
Q 51.265625 72.90625 61.171875 64.09375 
Q 71.09375 55.28125 71.09375 36.53125 
Q 71.09375 17.671875 61.125 8.828125 
Q 51.171875 0 30.078125 0 
L 9.8125 0 
z
" id="DejaVuSans-68"/>
      <path d="M 56.203125 29.59375 
L 56.203125 25.203125 
L 14.890625 25.203125 
Q 15.484375 15.921875 20.484375 11.0625 
Q 25.484375 6.203125 34.421875 6.203125 
Q 39.59375 6.203125 44.453125 7.46875 
Q 49.3125 8.734375 54.109375 11.28125 
L 54.109375 2.78125 
Q 49.265625 0.734375 44.1875 -0.34375 
Q 39.109375 -1.421875 33.890625 -1.421875 
Q 20.796875 -1.421875 13.15625 6.1875 
Q 5.515625 13.8125 5.515625 26.8125 
Q 5.515625 40.234375 12.765625 48.109375 
Q 20.015625 56 32.328125 56 
Q 43.359375 56 49.78125 48.890625 
Q 56.203125 41.796875 56.203125 29.59375 
z
M 47.21875 32.234375 
Q 47.125 39.59375 43.09375 43.984375 
Q 39.0625 48.390625 32.421875 48.390625 
Q 24.90625 48.390625 20.390625 44.140625 
Q 15.875 39.890625 15.1875 32.171875 
z
" id="DejaVuSans-101"/>
      <path d="M 32.171875 -5.078125 
Q 28.375 -14.84375 24.75 -17.8125 
Q 21.140625 -20.796875 15.09375 -20.796875 
L 7.90625 -20.796875 
L 7.90625 -13.28125 
L 13.1875 -13.28125 
Q 16.890625 -13.28125 18.9375 -11.515625 
Q 21 -9.765625 23.484375 -3.21875 
L 25.09375 0.875 
L 2.984375 54.6875 
L 12.5 54.6875 
L 29.59375 11.921875 
L 46.6875 54.6875 
L 56.203125 54.6875 
z
" id="DejaVuSans-121"/>
     </defs>
     <g transform="translate(13.325625 231.553781)rotate(-90)scale(0.3 -0.3)">
      <use xlink:href="#DejaVuSans-68"/>
      <use x="77.001953" xlink:href="#DejaVuSans-101"/>
      <use x="138.525391" xlink:href="#DejaVuSans-110"/>
      <use x="201.904297" xlink:href="#DejaVuSans-115"/>
      <use x="254.003906" xlink:href="#DejaVuSans-105"/>
      <use x="281.787109" xlink:href="#DejaVuSans-116"/>
      <use x="320.996094" xlink:href="#DejaVuSans-121"/>
     </g>
    </g>
   </g>
   <g id="line2d_13">
    <path clip-path="url(#p9ecabe6fbf)" d="M 73.832727 307.584 
L 98.618491 307.473172 
L 98.980259 307.202889 
L 99.332751 306.625147 
L 100.473713 304.414442 
L 100.696339 304.557434 
L 101.633227 305.426606 
L 101.91151 305.177636 
L 103.071023 303.874824 
L 103.479172 303.869428 
L 104.50882 303.985737 
L 104.84276 303.680114 
L 105.334394 302.856858 
L 105.881685 302.072822 
L 106.234177 301.940995 
L 106.688706 301.786657 
L 106.966989 301.370059 
L 107.486451 300.036995 
L 107.857496 299.39929 
L 108.070846 299.37202 
L 108.302749 299.606171 
L 109.165427 300.683502 
L 109.406606 300.564162 
L 109.749822 300.094493 
L 110.90006 298.352204 
L 111.178343 298.314247 
L 111.428798 298.533216 
L 111.892603 299.345449 
L 112.263648 299.772551 
L 112.49555 299.742266 
L 112.810938 299.417044 
L 113.386057 298.857503 
L 114.369324 298.298782 
L 115.389696 297.013744 
L 115.66798 297.190897 
L 116.076129 297.413469 
L 116.280203 297.250554 
L 116.54921 296.679821 
L 117.235642 294.456821 
L 118.033388 292.274442 
L 118.330223 291.976274 
L 118.525021 292.051134 
L 118.784752 292.450905 
L 119.332043 293.843135 
L 119.795848 294.732062 
L 120.046303 294.82351 
L 120.287482 294.647022 
L 120.834773 293.847363 
L 121.743831 292.294068 
L 122.550853 290.89188 
L 124.480283 288.416969 
L 124.675082 288.648568 
L 124.953365 289.400574 
L 125.853148 292.102462 
L 126.196364 292.332548 
L 126.558132 292.60025 
L 126.882796 293.186869 
L 127.726922 294.842197 
L 128.060862 294.98592 
L 128.394802 294.891813 
L 128.700913 294.568376 
L 129.007025 293.877656 
L 129.396621 292.358228 
L 130.231471 288.991035 
L 130.463374 288.816129 
L 130.648896 288.958261 
L 131.3075 289.637674 
L 131.493022 289.376916 
L 131.80841 288.4451 
L 132.327872 287.049412 
L 132.569051 286.92932 
L 132.884438 287.092529 
L 133.162722 287.121646 
L 133.366796 286.884956 
L 133.635803 286.170821 
L 134.674727 282.955815 
L 134.832421 283.091542 
L 135.092152 283.692011 
L 137.07724 289.126948 
L 137.225657 289.048713 
L 137.429732 288.598293 
L 137.865709 286.898798 
L 138.236753 285.872055 
L 138.412999 285.835474 
L 138.579969 286.11529 
L 138.848977 287.116152 
L 139.776587 290.953823 
L 139.999214 291.094354 
L 140.17546 290.933429 
L 140.416639 290.338757 
L 140.796959 288.686059 
L 141.418459 286.085641 
L 141.659638 285.84201 
L 141.854436 285.956795 
L 142.34607 286.318714 
L 142.540868 286.121251 
L 142.958293 285.230477 
L 143.245852 284.903805 
L 143.412822 284.99722 
L 143.654001 285.470653 
L 144.414642 287.131004 
L 144.674373 287.184509 
L 145.481395 287.112377 
L 145.824611 287.568751 
L 146.251312 288.039326 
L 146.44611 287.962222 
L 146.678013 287.571822 
L 147.596348 285.742776 
L 147.818974 285.830182 
L 148.32916 286.405703 
L 148.653824 286.558788 
L 148.913555 286.433249 
L 149.228943 286.000168 
L 149.572159 285.12276 
L 149.933927 283.504851 
L 150.49977 279.68164 
L 150.954299 277.292668 
L 151.176926 276.996447 
L 151.316067 277.140997 
L 151.538694 277.795479 
L 152.197298 280.775561 
L 152.772416 282.764805 
L 153.0507 283.098577 
L 153.236222 283.014962 
L 153.922654 282.380231 
L 153.959758 282.420875 
L 154.163833 282.860237 
L 154.525601 284.31072 
L 155.425384 287.980965 
L 155.722219 288.4702 
L 155.870637 288.420046 
L 156.046883 288.045499 
L 156.31589 286.832456 
L 157.595993 280.083711 
L 158.672022 277.37649 
L 158.950305 277.142536 
L 159.145103 277.240045 
L 159.404835 277.683854 
L 159.961401 279.242038 
L 160.425207 280.208077 
L 160.796251 280.501444 
L 161.556892 280.76871 
L 161.742414 280.491357 
L 161.983593 279.642746 
L 162.391742 277.196932 
L 163.170935 272.740814 
L 163.885195 269.851481 
L 164.098546 269.652623 
L 164.237687 269.817169 
L 164.451038 270.508676 
L 164.877739 272.867167 
L 165.545619 276.20645 
L 166.037253 277.634293 
L 166.334088 277.957315 
L 166.593819 277.92472 
L 166.909207 277.915106 
L 167.094729 278.193129 
L 167.345184 279.077832 
L 168.124377 282.302199 
L 168.142929 282.295459 
L 168.254243 282.109556 
L 168.439765 281.229383 
L 168.727324 278.580757 
L 170.128017 263.729701 
L 170.378472 263.280639 
L 170.554718 263.319688 
L 170.823725 263.686014 
L 171.445224 264.525533 
L 171.834821 264.643677 
L 172.196589 264.812331 
L 172.530529 265.278145 
L 172.994334 265.872497 
L 173.170581 265.804507 
L 173.402483 265.407087 
L 173.921945 264.4763 
L 174.061087 264.591985 
L 174.255885 265.146501 
L 174.645482 267.14731 
L 175.016526 268.559538 
L 175.155668 268.624482 
L 175.17422 268.610459 
L 175.322638 268.312303 
L 175.573093 267.183792 
L 176.491428 262.58979 
L 176.72333 262.393754 
L 176.8903 262.533306 
L 177.150031 263.111434 
L 177.89212 264.898629 
L 178.151851 264.968789 
L 178.532172 265.035493 
L 178.754798 265.38719 
L 179.088738 266.435077 
L 179.710238 268.341768 
L 179.914312 268.432228 
L 180.081282 268.232414 
L 180.350289 267.484764 
L 181.584012 262.822087 
L 181.964332 259.097936 
L 182.474518 254.559501 
L 182.641488 254.233403 
L 182.66004 254.242923 
L 182.771354 254.483983 
L 182.975428 255.623628 
L 183.847382 261.246587 
L 184.023628 261.308223 
L 184.218427 261.050269 
L 184.784269 260.231068 
L 184.979068 260.312947 
L 185.294455 260.76286 
L 185.71188 261.238224 
L 185.915955 261.176734 
L 186.138581 260.82844 
L 186.444693 259.879226 
L 186.899222 257.631718 
L 187.54855 254.601493 
L 187.817557 254.208909 
L 188.012355 254.255354 
L 188.327743 254.648324 
L 188.735892 255.053585 
L 188.921414 254.971171 
L 189.134764 254.575395 
L 189.477981 253.358233 
L 190.359211 250.141781 
L 190.841569 248.208951 
L 191.509448 244.329722 
L 192.418507 239.322215 
L 192.65041 238.993756 
L 192.780275 239.120605 
L 192.975074 239.711315 
L 193.346118 241.723371 
L 194.023274 245.196609 
L 194.431423 246.200592 
L 194.765363 246.533572 
L 194.978713 246.488885 
L 195.173512 246.171076 
L 195.405414 245.287672 
L 195.70225 243.150973 
L 196.20316 237.533029 
L 196.880316 230.667474 
L 197.390502 227.634931 
L 197.668785 226.968101 
L 197.79865 227.018153 
L 197.956344 227.417158 
L 198.234628 228.881801 
L 199.097306 233.79679 
L 199.459074 234.565526 
L 199.709529 234.693366 
L 199.922879 234.554265 
L 200.312476 233.945921 
L 200.785558 233.372847 
L 201.110221 232.937226 
L 201.360676 232.11703 
L 201.676064 230.184348 
L 202.650056 223.581782 
L 202.863406 223.377153 
L 203.086033 223.497516 
L 203.382868 223.591868 
L 203.56839 223.382931 
L 203.85595 222.643493 
L 205.275194 218.534104 
L 205.711172 217.636651 
L 205.961627 217.516212 
L 206.156425 217.658294 
L 206.379051 218.142763 
L 206.648059 219.350316 
L 207.056207 222.457337 
L 207.547841 225.736268 
L 207.761192 226.086989 
L 207.891057 225.968991 
L 208.141512 225.315344 
L 208.679527 223.983896 
L 209.737003 222.643931 
L 209.903973 222.737085 
L 210.108047 223.170664 
L 210.404883 224.411222 
L 210.905793 227.645745 
L 211.898336 234.070613 
L 212.371418 235.753465 
L 212.640425 236.087414 
L 212.788843 235.998073 
L 212.983641 235.540953 
L 213.271201 234.18255 
L 214.291573 228.725609 
L 214.421438 228.778219 
L 214.588408 229.224906 
L 214.866691 230.76698 
L 215.580952 234.931978 
L 215.692265 234.991296 
L 215.720093 234.966777 
L 215.849959 234.635908 
L 216.063309 233.320159 
L 216.406525 229.503547 
L 217.185719 220.560673 
L 217.426897 219.883876 
L 217.556763 219.941494 
L 217.797942 220.433695 
L 218.131882 220.945331 
L 218.298852 220.888762 
L 218.567859 220.469837 
L 219.04094 219.809233 
L 219.847962 219.141962 
L 220.135521 218.302323 
L 220.460185 216.589997 
L 221.508386 210.037966 
L 221.536214 210.05155 
L 221.656803 210.29611 
L 221.860878 211.355072 
L 222.25975 214.939233 
L 222.705004 218.230619 
L 222.853421 218.461448 
L 222.88125 218.441905 
L 223.001839 218.128146 
L 223.21519 216.767555 
L 223.938726 211.641218 
L 224.031487 211.727469 
L 224.179905 212.34868 
L 224.458188 214.744877 
L 225.163173 220.965637 
L 225.404351 221.506601 
L 225.524941 221.423939 
L 225.701187 220.920529 
L 225.988746 219.279286 
L 226.693731 213.406051 
L 227.213193 210.232675 
L 227.537857 209.360285 
L 227.704826 209.349394 
L 227.86252 209.649966 
L 228.112975 210.70592 
L 228.86434 214.186376 
L 228.98493 214.136619 
L 229.142623 213.713047 
L 229.439459 212.111228 
L 230.014578 209.142378 
L 230.58042 207.124593 
L 230.830875 204.517288 
L 231.211196 197.711449 
L 231.730658 189.408523 
L 231.91618 188.71774 
L 231.925456 188.720801 
L 232.008941 188.895555 
L 232.185187 189.983455 
L 232.834515 194.485743 
L 232.927276 194.40547 
L 233.08497 193.791872 
L 233.771402 190.19447 
L 233.827059 190.243413 
L 233.9662 190.686845 
L 234.430006 193.043652 
L 234.513491 192.821318 
L 234.63408 191.537382 
L 234.810326 186.721844 
L 235.042229 173.05751 
L 235.366893 138.072037 
L 236.099705 55.585719 
L 236.192466 54.144 
L 236.238847 54.56621 
L 236.35016 58.606422 
L 236.563511 76.673173 
L 237.620987 181.872833 
L 237.880718 186.837859 
L 238.038412 187.414354 
L 238.056964 187.406601 
L 238.159002 187.162783 
L 238.381628 185.846165 
L 238.761949 182.104825 
L 239.18865 175.429061 
L 239.921462 163.879268 
L 240.06988 163.422132 
L 240.097708 163.449299 
L 240.199746 163.864007 
L 240.385268 165.857681 
L 240.700655 172.2089 
L 241.702475 193.860384 
L 242.147728 198.470651 
L 242.481668 199.994874 
L 243.130996 201.905025 
L 243.409279 204.517457 
L 243.910189 211.944706 
L 244.411099 217.982833 
L 244.652278 218.891102 
L 244.745039 218.81782 
L 244.884181 218.278202 
L 245.12536 216.278217 
L 246.284873 205.093945 
L 246.730126 203.978907 
L 247.128999 203.370411 
L 247.268141 203.438368 
L 247.435111 203.849438 
L 247.685566 205.174868 
L 248.520415 210.091392 
L 248.641005 210.053454 
L 248.798699 209.646126 
L 249.123363 208.00231 
L 249.60572 205.87969 
L 249.828347 205.650568 
L 250.004593 205.780713 
L 250.542607 206.319803 
L 250.551883 206.31218 
L 250.709577 206.021555 
L 250.94148 205.020472 
L 251.77633 200.760998 
L 251.794882 200.769393 
L 251.906195 200.96928 
L 252.100994 201.895645 
L 252.499866 205.203718 
L 252.982224 208.574604 
L 253.214127 209.027431 
L 253.334716 208.906038 
L 253.520238 208.278081 
L 253.844902 206.221999 
L 254.466401 202.380776 
L 254.624095 202.198614 
L 254.642648 202.208624 
L 254.763237 202.439317 
L 254.967311 203.456217 
L 255.32908 206.676115 
L 256.052616 213.014546 
L 256.386556 214.20113 
L 256.627735 214.426179 
L 256.822533 214.328876 
L 257.082264 213.896444 
L 257.787249 212.529339 
L 257.805801 212.541002 
L 257.944942 212.784579 
L 258.158293 213.709679 
L 258.640651 217.187595 
L 258.983867 218.796093 
L 259.123008 218.890265 
L 259.141561 218.876003 
L 259.280702 218.575381 
L 259.521881 217.3645 
L 260.291798 213.091091 
L 260.412387 213.107766 
L 260.421664 213.119658 
L 260.579357 213.528326 
L 261.256513 216.034483 
L 261.339998 215.949154 
L 261.497692 215.420082 
L 261.822356 213.316182 
L 262.184124 211.50639 
L 262.267609 211.467135 
L 262.304714 211.510226 
L 262.434579 211.967652 
L 262.64793 213.719621 
L 263.065355 219.484263 
L 263.603369 225.976807 
L 263.8631 227.077491 
L 263.955861 227.088206 
L 263.98369 227.053278 
L 264.122831 226.62906 
L 264.373286 224.97924 
L 265.180308 219.137399 
L 265.263793 219.127492 
L 265.291621 219.161336 
L 265.430763 219.603235 
L 265.671941 221.322226 
L 266.163575 226.899964 
L 267.063358 236.581149 
L 267.425126 238.565839 
L 267.58282 238.73298 
L 267.601372 238.720999 
L 267.721962 238.480963 
L 267.935312 237.419336 
L 268.334185 234.013008 
L 269.020617 228.502081 
L 269.308176 227.602896 
L 269.447318 227.599222 
L 269.456594 227.609284 
L 269.614288 227.968468 
L 269.892571 229.30857 
L 270.588279 232.787896 
L 270.792354 232.94893 
L 270.950048 232.764204 
L 271.237607 231.977773 
L 271.766345 230.619916 
L 271.979696 230.541672 
L 272.174494 230.745409 
L 272.462053 231.439092 
L 272.888754 233.126524 
L 273.974059 237.766265 
L 274.113201 237.728445 
L 274.280171 237.375264 
L 274.56773 236.138195 
L 275.28199 232.955155 
L 275.486065 232.816576 
L 275.634483 233.022616 
L 275.857109 233.814876 
L 276.181773 235.928872 
L 276.729064 241.269669 
L 277.434048 247.627571 
L 277.740159 248.759722 
L 277.879301 248.800982 
L 277.888577 248.792949 
L 278.036995 248.487899 
L 278.28745 247.317499 
L 279.196509 242.490254 
L 279.307822 242.546065 
L 279.45624 242.983788 
L 279.697418 244.563635 
L 280.189052 249.773332 
L 280.587925 252.831912 
L 280.764171 253.130519 
L 280.782723 253.121284 
L 280.903313 252.889445 
L 281.125939 251.845279 
L 281.849476 248.1872 
L 282.05355 248.038141 
L 282.229796 248.204287 
L 282.962609 249.123307 
L 283.175959 248.89186 
L 283.649041 248.361395 
L 283.797459 248.541875 
L 284.001533 249.222313 
L 284.354025 251.340143 
L 284.956972 254.749134 
L 285.22598 255.239649 
L 285.411502 255.22064 
L 285.671233 254.896521 
L 286.209247 253.782659 
L 286.830746 252.571954 
L 286.979164 252.623728 
L 287.15541 253.007676 
L 287.424417 254.254834 
L 288.185058 258.082502 
L 288.314924 258.102252 
L 288.3242 258.09308 
L 288.472618 257.755892 
L 288.713797 256.515408 
L 289.901139 249.323805 
L 290.105213 249.247665 
L 290.300011 249.449278 
L 290.587571 250.13016 
L 290.958615 251.646582 
L 291.431697 254.647281 
L 292.786009 263.900656 
L 293.119948 264.647633 
L 293.416784 264.827108 
L 293.722896 265.030226 
L 293.936246 265.513344 
L 294.214529 266.807874 
L 295.336939 272.924216 
L 295.466804 272.796477 
L 295.670878 272.183203 
L 296.626318 268.769704 
L 296.821116 268.807387 
L 297.182884 269.211423 
L 297.563205 269.488821 
L 297.897145 269.440142 
L 298.407331 269.37091 
L 298.759823 269.591071 
L 299.631777 270.24124 
L 299.826575 269.989951 
L 300.104859 269.182115 
L 300.596492 267.811137 
L 300.726358 267.858506 
L 300.884052 268.262095 
L 301.153059 269.717033 
L 302.034289 274.952913 
L 302.321849 275.426791 
L 302.563028 275.445832 
L 303.147422 275.347179 
L 303.370049 275.663542 
L 303.666885 276.558227 
L 304.557391 279.546076 
L 304.733637 279.515868 
L 304.96554 279.167127 
L 305.494278 278.359195 
L 305.670524 278.418838 
L 305.883875 278.777635 
L 306.236367 279.897722 
L 307.330948 283.629559 
L 307.739097 284.151605 
L 308.471909 284.935548 
L 309.093408 285.685089 
L 309.325311 285.647913 
L 309.659251 285.300958 
L 310.021019 285.030514 
L 310.215818 285.134117 
L 310.466273 285.575259 
L 311.004287 287.142922 
L 311.542301 288.369255 
L 312.479188 289.690399 
L 312.822404 289.900304 
L 313.156344 289.820052 
L 313.629426 289.733179 
L 314.260201 289.742729 
L 314.575589 289.385201 
L 315.104327 288.809739 
L 315.317678 288.886513 
L 315.577409 289.28242 
L 316.588505 291.122553 
L 316.83896 291.041163 
L 318.916808 289.683318 
L 319.130159 289.813579 
L 319.408442 290.311413 
L 319.927904 291.228525 
L 320.076322 291.138576 
L 320.261844 290.658094 
L 320.540127 289.182767 
L 321.829506 281.259499 
L 322.005752 281.205824 
L 322.163446 281.467042 
L 322.413901 282.409914 
L 322.905535 285.34196 
L 324.046496 292.084833 
L 324.306228 292.557706 
L 324.454645 292.505225 
L 324.65872 292.107315 
L 325.066869 290.680658 
L 325.901718 287.881553 
L 326.430457 286.837666 
L 326.838605 286.450001 
L 327.144717 286.434585 
L 327.599246 286.702789 
L 328.053776 286.850943 
L 328.434096 286.995431 
L 328.665999 287.369936 
L 328.962834 288.353173 
L 330.187281 293.084878 
L 330.419184 293.115713 
L 331.272586 292.912567 
L 331.578697 293.333945 
L 332.246577 294.762024 
L 333.619441 297.552831 
L 333.86062 297.584553 
L 334.092523 297.361348 
L 334.454291 296.64259 
L 336.040506 293.140411 
L 336.337341 293.003856 
L 336.624901 293.126773 
L 337.765862 294.102431 
L 338.702749 295.013728 
L 338.925376 294.83453 
L 339.240763 294.22379 
L 339.852987 293.02608 
L 340.038509 293.050755 
L 340.233307 293.366872 
L 340.557971 294.425335 
L 341.235127 296.638414 
L 341.494858 296.856485 
L 341.708208 296.763616 
L 342.199842 296.184215 
L 342.552334 295.977712 
L 342.886274 296.060173 
L 343.405736 296.181866 
L 343.693296 295.992001 
L 344.073616 295.432797 
L 344.982675 294.008066 
L 345.242406 293.999716 
L 345.511413 294.251158 
L 345.956666 295.045781 
L 346.578166 296.051125 
L 346.837897 296.116695 
L 347.088352 295.926776 
L 347.737679 295.344023 
L 347.932478 295.517546 
L 348.210761 296.141737 
L 349.082715 298.3381 
L 349.305342 298.353089 
L 349.574349 298.094869 
L 350.177296 297.492124 
L 350.409199 297.568821 
L 350.659654 297.926226 
L 351.030698 298.91705 
L 351.921205 301.401357 
L 352.282973 301.754814 
L 352.654017 301.822351 
L 353.025062 301.669709 
L 354.036158 301.071794 
L 354.295889 301.432908 
L 355.195671 302.931751 
L 355.399746 302.813402 
L 355.687305 302.322259 
L 357.143654 299.364102 
L 357.459042 299.241783 
L 357.718773 299.382623 
L 358.043437 299.860636 
L 359.462681 302.758039 
L 360.241875 304.619167 
L 360.492329 304.706587 
L 360.733508 304.526455 
L 361.150933 303.860921 
L 361.800261 302.902689 
L 362.08782 302.831626 
L 362.356827 303.011345 
L 363.729692 304.284831 
L 364.165669 304.668273 
L 364.722235 305.134168 
L 364.944862 305.040126 
L 365.204593 304.636637 
L 365.751883 303.213733 
L 366.14148 302.535772 
L 366.373383 302.484508 
L 366.605285 302.688429 
L 366.97633 303.378022 
L 368.1915 305.841386 
L 368.590373 306.107484 
L 368.915037 306.075915 
L 369.276805 305.791578 
L 369.972513 305.21831 
L 370.278625 305.283482 
L 371.039266 305.56814 
L 371.336101 305.314262 
L 371.985429 304.692195 
L 372.198779 304.815263 
L 372.477063 305.29177 
L 373.506711 307.317851 
L 373.914859 307.525806 
L 374.619844 307.582313 
L 386.33557 307.584 
L 398.487273 307.584 
L 398.487273 307.584 
" style="fill:none;stroke:#ff7f0e;stroke-linecap:square;stroke-width:1.5;"/>
   </g>
   <g id="patch_103">
    <path d="M 57.6 307.584 
L 57.6 41.472 
" style="fill:none;stroke:#000000;stroke-linecap:square;stroke-linejoin:miter;stroke-width:0.8;"/>
   </g>
   <g id="patch_104">
    <path d="M 414.72 307.584 
L 414.72 41.472 
" style="fill:none;stroke:#000000;stroke-linecap:square;stroke-linejoin:miter;stroke-width:0.8;"/>
   </g>
   <g id="patch_105">
    <path d="M 57.6 307.584 
L 414.72 307.584 
" style="fill:none;stroke:#000000;stroke-linecap:square;stroke-linejoin:miter;stroke-width:0.8;"/>
   </g>
   <g id="patch_106">
    <path d="M 57.6 41.472 
L 414.72 41.472 
" style="fill:none;stroke:#000000;stroke-linecap:square;stroke-linejoin:miter;stroke-width:0.8;"/>
   </g>
  </g>
 </g>
 <defs>
  <clipPath id="p9ecabe6fbf">
   <rect height="266.112" width="357.12" x="57.6" y="41.472"/>
  </clipPath>
 </defs>
</svg>
