<?xml version="1.0" encoding="utf-8" standalone="no"?>
<!DOCTYPE svg PUBLIC "-//W3C//DTD SVG 1.1//EN"
  "http://www.w3.org/Graphics/SVG/1.1/DTD/svg11.dtd">
<!-- Created with matplotlib (https://matplotlib.org/) -->
<svg height="345.6pt" version="1.1" viewBox="0 0 460.8 345.6" width="460.8pt" xmlns="http://www.w3.org/2000/svg" xmlns:xlink="http://www.w3.org/1999/xlink">
 <defs>
  <style type="text/css">
*{stroke-linecap:butt;stroke-linejoin:round;}
  </style>
 </defs>
 <g id="figure_1">
  <g id="patch_1">
   <path d="M 0 345.6 
L 460.8 345.6 
L 460.8 0 
L 0 0 
z
" style="fill:#ffffff;"/>
  </g>
  <g id="axes_1">
   <g id="patch_2">
    <path d="M 57.6 307.584 
L 414.72 307.584 
L 414.72 41.472 
L 57.6 41.472 
z
" style="fill:#ffffff;"/>
   </g>
   <g id="patch_3">
    <path clip-path="url(#pc09ebeecdb)" d="M 100.169026 307.584 
L 102.88892 307.584 
L 102.88892 298.807108 
L 100.169026 298.807108 
z
" style="fill:#1f77b4;"/>
   </g>
   <g id="patch_4">
    <path clip-path="url(#pc09ebeecdb)" d="M 102.888936 307.584 
L 105.608845 307.584 
L 105.608845 301.578792 
L 102.888936 301.578792 
z
" style="fill:#1f77b4;"/>
   </g>
   <g id="patch_5">
    <path clip-path="url(#pc09ebeecdb)" d="M 105.608845 307.584 
L 108.328747 307.584 
L 108.328747 297.652282 
L 105.608845 297.652282 
z
" style="fill:#1f77b4;"/>
   </g>
   <g id="patch_6">
    <path clip-path="url(#pc09ebeecdb)" d="M 108.328739 307.584 
L 111.04864 307.584 
L 111.04864 298.345192 
L 108.328739 298.345192 
z
" style="fill:#1f77b4;"/>
   </g>
   <g id="patch_7">
    <path clip-path="url(#pc09ebeecdb)" d="M 111.048648 307.584 
L 113.76855 307.584 
L 113.76855 294.649669 
L 111.048648 294.649669 
z
" style="fill:#1f77b4;"/>
   </g>
   <g id="patch_8">
    <path clip-path="url(#pc09ebeecdb)" d="M 113.768542 307.584 
L 116.488444 307.584 
L 116.488444 291.878027 
L 113.768542 291.878027 
z
" style="fill:#1f77b4;"/>
   </g>
   <g id="patch_9">
    <path clip-path="url(#pc09ebeecdb)" d="M 116.488451 307.584 
L 119.208353 307.584 
L 119.208353 288.413474 
L 116.488451 288.413474 
z
" style="fill:#1f77b4;"/>
   </g>
   <g id="patch_10">
    <path clip-path="url(#pc09ebeecdb)" d="M 119.208345 307.584 
L 121.928247 307.584 
L 121.928247 288.644444 
L 119.208345 288.644444 
z
" style="fill:#1f77b4;"/>
   </g>
   <g id="patch_11">
    <path clip-path="url(#pc09ebeecdb)" d="M 121.928254 307.584 
L 124.648156 307.584 
L 124.648156 284.717951 
L 121.928254 284.717951 
z
" style="fill:#1f77b4;"/>
   </g>
   <g id="patch_12">
    <path clip-path="url(#pc09ebeecdb)" d="M 124.648148 307.584 
L 127.36805 307.584 
L 127.36805 286.334743 
L 124.648148 286.334743 
z
" style="fill:#1f77b4;"/>
   </g>
   <g id="patch_13">
    <path clip-path="url(#pc09ebeecdb)" d="M 127.368058 307.584 
L 130.087959 307.584 
L 130.087959 287.489594 
L 127.368058 287.489594 
z
" style="fill:#1f77b4;"/>
   </g>
   <g id="patch_14">
    <path clip-path="url(#pc09ebeecdb)" d="M 130.087951 307.584 
L 132.807853 307.584 
L 132.807853 279.405637 
L 130.087951 279.405637 
z
" style="fill:#1f77b4;"/>
   </g>
   <g id="patch_15">
    <path clip-path="url(#pc09ebeecdb)" d="M 132.807861 307.584 
L 135.527755 307.584 
L 135.527755 277.788761 
L 132.807861 277.788761 
z
" style="fill:#1f77b4;"/>
   </g>
   <g id="patch_16">
    <path clip-path="url(#pc09ebeecdb)" d="M 135.527755 307.584 
L 138.247656 307.584 
L 138.247656 280.329518 
L 135.527755 280.329518 
z
" style="fill:#1f77b4;"/>
   </g>
   <g id="patch_17">
    <path clip-path="url(#pc09ebeecdb)" d="M 138.247648 307.584 
L 140.96755 307.584 
L 140.96755 284.256011 
L 138.247648 284.256011 
z
" style="fill:#1f77b4;"/>
   </g>
   <g id="patch_18">
    <path clip-path="url(#pc09ebeecdb)" d="M 140.967558 307.584 
L 143.687459 307.584 
L 143.687459 278.712726 
L 140.967558 278.712726 
z
" style="fill:#1f77b4;"/>
   </g>
   <g id="patch_19">
    <path clip-path="url(#pc09ebeecdb)" d="M 143.687451 307.584 
L 146.407353 307.584 
L 146.407353 283.10116 
L 143.687451 283.10116 
z
" style="fill:#1f77b4;"/>
   </g>
   <g id="patch_20">
    <path clip-path="url(#pc09ebeecdb)" d="M 146.407361 307.584 
L 149.127262 307.584 
L 149.127262 281.715339 
L 146.407361 281.715339 
z
" style="fill:#1f77b4;"/>
   </g>
   <g id="patch_21">
    <path clip-path="url(#pc09ebeecdb)" d="M 149.127255 307.584 
L 151.847156 307.584 
L 151.847156 276.633995 
L 149.127255 276.633995 
z
" style="fill:#1f77b4;"/>
   </g>
   <g id="patch_22">
    <path clip-path="url(#pc09ebeecdb)" d="M 151.847164 307.584 
L 154.567065 307.584 
L 154.567065 274.786233 
L 151.847164 274.786233 
z
" style="fill:#1f77b4;"/>
   </g>
   <g id="patch_23">
    <path clip-path="url(#pc09ebeecdb)" d="M 154.567058 307.584 
L 157.286959 307.584 
L 157.286959 280.329518 
L 154.567058 280.329518 
z
" style="fill:#1f77b4;"/>
   </g>
   <g id="patch_24">
    <path clip-path="url(#pc09ebeecdb)" d="M 157.286967 307.584 
L 160.006869 307.584 
L 160.006869 272.938472 
L 157.286967 272.938472 
z
" style="fill:#1f77b4;"/>
   </g>
   <g id="patch_25">
    <path clip-path="url(#pc09ebeecdb)" d="M 160.006861 307.584 
L 162.726762 307.584 
L 162.726762 272.938472 
L 160.006861 272.938472 
z
" style="fill:#1f77b4;"/>
   </g>
   <g id="patch_26">
    <path clip-path="url(#pc09ebeecdb)" d="M 162.72677 307.584 
L 165.446672 307.584 
L 165.446672 268.550038 
L 162.72677 268.550038 
z
" style="fill:#1f77b4;"/>
   </g>
   <g id="patch_27">
    <path clip-path="url(#pc09ebeecdb)" d="M 165.446664 307.584 
L 168.166566 307.584 
L 168.166566 273.400412 
L 165.446664 273.400412 
z
" style="fill:#1f77b4;"/>
   </g>
   <g id="patch_28">
    <path clip-path="url(#pc09ebeecdb)" d="M 168.166573 307.584 
L 170.886475 307.584 
L 170.886475 266.471306 
L 168.166573 266.471306 
z
" style="fill:#1f77b4;"/>
   </g>
   <g id="patch_29">
    <path clip-path="url(#pc09ebeecdb)" d="M 170.886475 307.584 
L 173.606376 307.584 
L 173.606376 259.773171 
L 170.886475 259.773171 
z
" style="fill:#1f77b4;"/>
   </g>
   <g id="patch_30">
    <path clip-path="url(#pc09ebeecdb)" d="M 173.606376 307.584 
L 176.326278 307.584 
L 176.326278 257.463469 
L 173.606376 257.463469 
z
" style="fill:#1f77b4;"/>
   </g>
   <g id="patch_31">
    <path clip-path="url(#pc09ebeecdb)" d="M 176.326278 307.584 
L 179.04618 307.584 
L 179.04618 257.925409 
L 176.326278 257.925409 
z
" style="fill:#1f77b4;"/>
   </g>
   <g id="patch_32">
    <path clip-path="url(#pc09ebeecdb)" d="M 179.04618 307.584 
L 181.766081 307.584 
L 181.766081 263.006753 
L 179.04618 263.006753 
z
" style="fill:#1f77b4;"/>
   </g>
   <g id="patch_33">
    <path clip-path="url(#pc09ebeecdb)" d="M 181.766081 307.584 
L 184.485983 307.584 
L 184.485983 253.536976 
L 181.766081 253.536976 
z
" style="fill:#1f77b4;"/>
   </g>
   <g id="patch_34">
    <path clip-path="url(#pc09ebeecdb)" d="M 184.485983 307.584 
L 187.20588 307.584 
L 187.20588 251.920105 
L 184.485983 251.920105 
z
" style="fill:#1f77b4;"/>
   </g>
   <g id="patch_35">
    <path clip-path="url(#pc09ebeecdb)" d="M 187.20588 307.584 
L 189.925782 307.584 
L 189.925782 246.3769 
L 187.20588 246.3769 
z
" style="fill:#1f77b4;"/>
   </g>
   <g id="patch_36">
    <path clip-path="url(#pc09ebeecdb)" d="M 189.925782 307.584 
L 192.645684 307.584 
L 192.645684 242.681377 
L 189.925782 242.681377 
z
" style="fill:#1f77b4;"/>
   </g>
   <g id="patch_37">
    <path clip-path="url(#pc09ebeecdb)" d="M 192.645684 307.584 
L 195.365585 307.584 
L 195.365585 243.374287 
L 192.645684 243.374287 
z
" style="fill:#1f77b4;"/>
   </g>
   <g id="patch_38">
    <path clip-path="url(#pc09ebeecdb)" d="M 195.365585 307.584 
L 198.085487 307.584 
L 198.085487 229.054136 
L 195.365585 229.054136 
z
" style="fill:#1f77b4;"/>
   </g>
   <g id="patch_39">
    <path clip-path="url(#pc09ebeecdb)" d="M 198.085487 307.584 
L 200.805388 307.584 
L 200.805388 235.059361 
L 198.085487 235.059361 
z
" style="fill:#1f77b4;"/>
   </g>
   <g id="patch_40">
    <path clip-path="url(#pc09ebeecdb)" d="M 200.805388 307.584 
L 203.52529 307.584 
L 203.52529 228.130255 
L 200.805388 228.130255 
z
" style="fill:#1f77b4;"/>
   </g>
   <g id="patch_41">
    <path clip-path="url(#pc09ebeecdb)" d="M 203.52529 307.584 
L 206.245191 307.584 
L 206.245191 220.739209 
L 203.52529 220.739209 
z
" style="fill:#1f77b4;"/>
   </g>
   <g id="patch_42">
    <path clip-path="url(#pc09ebeecdb)" d="M 206.245191 307.584 
L 208.965093 307.584 
L 208.965093 221.432119 
L 206.245191 221.432119 
z
" style="fill:#1f77b4;"/>
   </g>
   <g id="patch_43">
    <path clip-path="url(#pc09ebeecdb)" d="M 208.965093 307.584 
L 211.684993 307.584 
L 211.684993 227.899228 
L 208.965093 227.899228 
z
" style="fill:#1f77b4;"/>
   </g>
   <g id="patch_44">
    <path clip-path="url(#pc09ebeecdb)" d="M 211.684993 307.584 
L 214.404894 307.584 
L 214.404894 233.673539 
L 211.684993 233.673539 
z
" style="fill:#1f77b4;"/>
   </g>
   <g id="patch_45">
    <path clip-path="url(#pc09ebeecdb)" d="M 214.404894 307.584 
L 217.124796 307.584 
L 217.124796 229.747046 
L 214.404894 229.747046 
z
" style="fill:#1f77b4;"/>
   </g>
   <g id="patch_46">
    <path clip-path="url(#pc09ebeecdb)" d="M 217.124796 307.584 
L 219.844697 307.584 
L 219.844697 222.356 
L 217.124796 222.356 
z
" style="fill:#1f77b4;"/>
   </g>
   <g id="patch_47">
    <path clip-path="url(#pc09ebeecdb)" d="M 219.844697 307.584 
L 222.564599 307.584 
L 222.564599 212.193312 
L 219.844697 212.193312 
z
" style="fill:#1f77b4;"/>
   </g>
   <g id="patch_48">
    <path clip-path="url(#pc09ebeecdb)" d="M 222.564599 307.584 
L 225.284499 307.584 
L 225.284499 219.122386 
L 222.564599 219.122386 
z
" style="fill:#1f77b4;"/>
   </g>
   <g id="patch_49">
    <path clip-path="url(#pc09ebeecdb)" d="M 225.284499 307.584 
L 228.004401 307.584 
L 228.004401 214.503014 
L 225.284499 214.503014 
z
" style="fill:#1f77b4;"/>
   </g>
   <g id="patch_50">
    <path clip-path="url(#pc09ebeecdb)" d="M 228.004401 307.584 
L 230.724302 307.584 
L 230.724302 213.810086 
L 228.004401 213.810086 
z
" style="fill:#1f77b4;"/>
   </g>
   <g id="patch_51">
    <path clip-path="url(#pc09ebeecdb)" d="M 230.724302 307.584 
L 233.444203 307.584 
L 233.444203 195.563448 
L 230.724302 195.563448 
z
" style="fill:#1f77b4;"/>
   </g>
   <g id="patch_52">
    <path clip-path="url(#pc09ebeecdb)" d="M 233.444203 307.584 
L 236.164105 307.584 
L 236.164105 114.492905 
L 233.444203 114.492905 
z
" style="fill:#1f77b4;"/>
   </g>
   <g id="patch_53">
    <path clip-path="url(#pc09ebeecdb)" d="M 236.164105 307.584 
L 238.884006 307.584 
L 238.884006 197.18024 
L 236.164105 197.18024 
z
" style="fill:#1f77b4;"/>
   </g>
   <g id="patch_54">
    <path clip-path="url(#pc09ebeecdb)" d="M 238.884006 307.584 
L 241.603907 307.584 
L 241.603907 178.240683 
L 238.884006 178.240683 
z
" style="fill:#1f77b4;"/>
   </g>
   <g id="patch_55">
    <path clip-path="url(#pc09ebeecdb)" d="M 241.603907 307.584 
L 244.323807 307.584 
L 244.323807 204.109337 
L 241.603907 204.109337 
z
" style="fill:#1f77b4;"/>
   </g>
   <g id="patch_56">
    <path clip-path="url(#pc09ebeecdb)" d="M 244.323808 307.584 
L 247.04371 307.584 
L 247.04371 217.505626 
L 244.323808 217.505626 
z
" style="fill:#1f77b4;"/>
   </g>
   <g id="patch_57">
    <path clip-path="url(#pc09ebeecdb)" d="M 247.043709 307.584 
L 249.76361 307.584 
L 249.76361 209.883575 
L 247.043709 209.883575 
z
" style="fill:#1f77b4;"/>
   </g>
   <g id="patch_58">
    <path clip-path="url(#pc09ebeecdb)" d="M 249.763611 307.584 
L 252.483512 307.584 
L 252.483512 207.573908 
L 249.763611 207.573908 
z
" style="fill:#1f77b4;"/>
   </g>
   <g id="patch_59">
    <path clip-path="url(#pc09ebeecdb)" d="M 252.483512 307.584 
L 255.203414 307.584 
L 255.203414 208.266819 
L 252.483512 208.266819 
z
" style="fill:#1f77b4;"/>
   </g>
   <g id="patch_60">
    <path clip-path="url(#pc09ebeecdb)" d="M 255.203414 307.584 
L 257.923315 307.584 
L 257.923315 216.350775 
L 255.203414 216.350775 
z
" style="fill:#1f77b4;"/>
   </g>
   <g id="patch_61">
    <path clip-path="url(#pc09ebeecdb)" d="M 257.923315 307.584 
L 260.643217 307.584 
L 260.643217 215.195924 
L 257.923315 215.195924 
z
" style="fill:#1f77b4;"/>
   </g>
   <g id="patch_62">
    <path clip-path="url(#pc09ebeecdb)" d="M 260.643215 307.584 
L 263.363115 307.584 
L 263.363115 219.353325 
L 260.643215 219.353325 
z
" style="fill:#1f77b4;"/>
   </g>
   <g id="patch_63">
    <path clip-path="url(#pc09ebeecdb)" d="M 263.363117 307.584 
L 266.083018 307.584 
L 266.083018 225.358613 
L 263.363117 225.358613 
z
" style="fill:#1f77b4;"/>
   </g>
   <g id="patch_64">
    <path clip-path="url(#pc09ebeecdb)" d="M 266.083018 307.584 
L 268.80292 307.584 
L 268.80292 238.523913 
L 266.083018 238.523913 
z
" style="fill:#1f77b4;"/>
   </g>
   <g id="patch_65">
    <path clip-path="url(#pc09ebeecdb)" d="M 268.80292 307.584 
L 271.522821 307.584 
L 271.522821 235.752271 
L 268.80292 235.752271 
z
" style="fill:#1f77b4;"/>
   </g>
   <g id="patch_66">
    <path clip-path="url(#pc09ebeecdb)" d="M 271.522821 307.584 
L 274.242723 307.584 
L 274.242723 239.909735 
L 271.522821 239.909735 
z
" style="fill:#1f77b4;"/>
   </g>
   <g id="patch_67">
    <path clip-path="url(#pc09ebeecdb)" d="M 274.242723 307.584 
L 276.962624 307.584 
L 276.962624 237.831003 
L 274.242723 237.831003 
z
" style="fill:#1f77b4;"/>
   </g>
   <g id="patch_68">
    <path clip-path="url(#pc09ebeecdb)" d="M 276.962624 307.584 
L 279.682526 307.584 
L 279.682526 247.531751 
L 276.962624 247.531751 
z
" style="fill:#1f77b4;"/>
   </g>
   <g id="patch_69">
    <path clip-path="url(#pc09ebeecdb)" d="M 279.682526 307.584 
L 282.402427 307.584 
L 282.402427 254.922797 
L 279.682526 254.922797 
z
" style="fill:#1f77b4;"/>
   </g>
   <g id="patch_70">
    <path clip-path="url(#pc09ebeecdb)" d="M 282.402427 307.584 
L 285.122329 307.584 
L 285.122329 253.306006 
L 282.402427 253.306006 
z
" style="fill:#1f77b4;"/>
   </g>
   <g id="patch_71">
    <path clip-path="url(#pc09ebeecdb)" d="M 285.122333 307.584 
L 287.842231 307.584 
L 287.842231 256.770486 
L 285.122333 256.770486 
z
" style="fill:#1f77b4;"/>
   </g>
   <g id="patch_72">
    <path clip-path="url(#pc09ebeecdb)" d="M 287.842227 307.584 
L 290.562128 307.584 
L 290.562128 258.38735 
L 287.842227 258.38735 
z
" style="fill:#1f77b4;"/>
   </g>
   <g id="patch_73">
    <path clip-path="url(#pc09ebeecdb)" d="M 290.562128 307.584 
L 293.28203 307.584 
L 293.28203 262.082873 
L 290.562128 262.082873 
z
" style="fill:#1f77b4;"/>
   </g>
   <g id="patch_74">
    <path clip-path="url(#pc09ebeecdb)" d="M 293.28203 307.584 
L 296.001931 307.584 
L 296.001931 273.169442 
L 293.28203 273.169442 
z
" style="fill:#1f77b4;"/>
   </g>
   <g id="patch_75">
    <path clip-path="url(#pc09ebeecdb)" d="M 296.001931 307.584 
L 298.721833 307.584 
L 298.721833 270.62877 
L 296.001931 270.62877 
z
" style="fill:#1f77b4;"/>
   </g>
   <g id="patch_76">
    <path clip-path="url(#pc09ebeecdb)" d="M 298.721833 307.584 
L 301.441735 307.584 
L 301.441735 272.938472 
L 298.721833 272.938472 
z
" style="fill:#1f77b4;"/>
   </g>
   <g id="patch_77">
    <path clip-path="url(#pc09ebeecdb)" d="M 301.441727 307.584 
L 304.161628 307.584 
L 304.161628 277.095935 
L 301.441727 277.095935 
z
" style="fill:#1f77b4;"/>
   </g>
   <g id="patch_78">
    <path clip-path="url(#pc09ebeecdb)" d="M 304.161636 307.584 
L 306.881538 307.584 
L 306.881538 282.177279 
L 304.161636 282.177279 
z
" style="fill:#1f77b4;"/>
   </g>
   <g id="patch_79">
    <path clip-path="url(#pc09ebeecdb)" d="M 306.88153 307.584 
L 309.601432 307.584 
L 309.601432 287.258623 
L 306.88153 287.258623 
z
" style="fill:#1f77b4;"/>
   </g>
   <g id="patch_80">
    <path clip-path="url(#pc09ebeecdb)" d="M 309.601439 307.584 
L 312.321341 307.584 
L 312.321341 287.489594 
L 309.601439 287.489594 
z
" style="fill:#1f77b4;"/>
   </g>
   <g id="patch_81">
    <path clip-path="url(#pc09ebeecdb)" d="M 312.321333 307.584 
L 315.041235 307.584 
L 315.041235 290.030266 
L 312.321333 290.030266 
z
" style="fill:#1f77b4;"/>
   </g>
   <g id="patch_82">
    <path clip-path="url(#pc09ebeecdb)" d="M 315.041242 307.584 
L 317.761144 307.584 
L 317.761144 291.647057 
L 315.041242 291.647057 
z
" style="fill:#1f77b4;"/>
   </g>
   <g id="patch_83">
    <path clip-path="url(#pc09ebeecdb)" d="M 317.761136 307.584 
L 320.481038 307.584 
L 320.481038 293.032878 
L 317.761136 293.032878 
z
" style="fill:#1f77b4;"/>
   </g>
   <g id="patch_84">
    <path clip-path="url(#pc09ebeecdb)" d="M 320.481046 307.584 
L 323.200947 307.584 
L 323.200947 286.103772 
L 320.481046 286.103772 
z
" style="fill:#1f77b4;"/>
   </g>
   <g id="patch_85">
    <path clip-path="url(#pc09ebeecdb)" d="M 323.200939 307.584 
L 325.920841 307.584 
L 325.920841 293.263848 
L 323.200939 293.263848 
z
" style="fill:#1f77b4;"/>
   </g>
   <g id="patch_86">
    <path clip-path="url(#pc09ebeecdb)" d="M 325.920849 307.584 
L 328.64075 307.584 
L 328.64075 288.644444 
L 325.920849 288.644444 
z
" style="fill:#1f77b4;"/>
   </g>
   <g id="patch_87">
    <path clip-path="url(#pc09ebeecdb)" d="M 328.640742 307.584 
L 331.360644 307.584 
L 331.360644 293.032878 
L 328.640742 293.032878 
z
" style="fill:#1f77b4;"/>
   </g>
   <g id="patch_88">
    <path clip-path="url(#pc09ebeecdb)" d="M 331.360652 307.584 
L 334.080553 307.584 
L 334.080553 297.190341 
L 331.360652 297.190341 
z
" style="fill:#1f77b4;"/>
   </g>
   <g id="patch_89">
    <path clip-path="url(#pc09ebeecdb)" d="M 334.080546 307.584 
L 336.800447 307.584 
L 336.800447 295.34258 
L 334.080546 295.34258 
z
" style="fill:#1f77b4;"/>
   </g>
   <g id="patch_90">
    <path clip-path="url(#pc09ebeecdb)" d="M 336.800455 307.584 
L 339.520349 307.584 
L 339.520349 296.72837 
L 336.800455 296.72837 
z
" style="fill:#1f77b4;"/>
   </g>
   <g id="patch_91">
    <path clip-path="url(#pc09ebeecdb)" d="M 339.520349 307.584 
L 342.24025 307.584 
L 342.24025 296.266461 
L 339.520349 296.266461 
z
" style="fill:#1f77b4;"/>
   </g>
   <g id="patch_92">
    <path clip-path="url(#pc09ebeecdb)" d="M 342.240243 307.584 
L 344.960144 307.584 
L 344.960144 296.959371 
L 342.240243 296.959371 
z
" style="fill:#1f77b4;"/>
   </g>
   <g id="patch_93">
    <path clip-path="url(#pc09ebeecdb)" d="M 344.960152 307.584 
L 347.680053 307.584 
L 347.680053 296.959371 
L 344.960152 296.959371 
z
" style="fill:#1f77b4;"/>
   </g>
   <g id="patch_94">
    <path clip-path="url(#pc09ebeecdb)" d="M 347.680046 307.584 
L 350.399947 307.584 
L 350.399947 298.114222 
L 347.680046 298.114222 
z
" style="fill:#1f77b4;"/>
   </g>
   <g id="patch_95">
    <path clip-path="url(#pc09ebeecdb)" d="M 350.399955 307.584 
L 353.119857 307.584 
L 353.119857 301.116835 
L 350.399955 301.116835 
z
" style="fill:#1f77b4;"/>
   </g>
   <g id="patch_96">
    <path clip-path="url(#pc09ebeecdb)" d="M 353.119849 307.584 
L 355.83975 307.584 
L 355.83975 302.964596 
L 353.119849 302.964596 
z
" style="fill:#1f77b4;"/>
   </g>
   <g id="patch_97">
    <path clip-path="url(#pc09ebeecdb)" d="M 355.839758 307.584 
L 358.55966 307.584 
L 358.55966 300.423924 
L 355.839758 300.423924 
z
" style="fill:#1f77b4;"/>
   </g>
   <g id="patch_98">
    <path clip-path="url(#pc09ebeecdb)" d="M 358.559652 307.584 
L 361.279554 307.584 
L 361.279554 304.119447 
L 358.559652 304.119447 
z
" style="fill:#1f77b4;"/>
   </g>
   <g id="patch_99">
    <path clip-path="url(#pc09ebeecdb)" d="M 361.279561 307.584 
L 363.999463 307.584 
L 363.999463 303.657507 
L 361.279561 303.657507 
z
" style="fill:#1f77b4;"/>
   </g>
   <g id="patch_100">
    <path clip-path="url(#pc09ebeecdb)" d="M 363.999455 307.584 
L 366.719364 307.584 
L 366.719364 304.581388 
L 363.999455 304.581388 
z
" style="fill:#1f77b4;"/>
   </g>
   <g id="patch_101">
    <path clip-path="url(#pc09ebeecdb)" d="M 366.719364 307.584 
L 369.439274 307.584 
L 369.439274 305.736244 
L 366.719364 305.736244 
z
" style="fill:#1f77b4;"/>
   </g>
   <g id="patch_102">
    <path clip-path="url(#pc09ebeecdb)" d="M 369.439274 307.584 
L 372.159168 307.584 
L 372.159168 304.581379 
L 369.439274 304.581379 
z
" style="fill:#1f77b4;"/>
   </g>
   <g id="matplotlib.axis_1">
    <g id="xtick_1">
     <g id="line2d_1">
      <defs>
       <path d="M 0 0 
L 0 3.5 
" id="m728b747521" style="stroke:#000000;stroke-width:0.8;"/>
      </defs>
      <g>
       <use style="stroke:#000000;stroke-width:0.8;" x="106.298993" xlink:href="#m728b747521" y="307.584"/>
      </g>
     </g>
     <g id="text_1">
      <!-- −2 -->
      <defs>
       <path d="M 10.59375 35.5 
L 73.1875 35.5 
L 73.1875 27.203125 
L 10.59375 27.203125 
z
" id="DejaVuSans-8722"/>
       <path d="M 19.1875 8.296875 
L 53.609375 8.296875 
L 53.609375 0 
L 7.328125 0 
L 7.328125 8.296875 
Q 12.9375 14.109375 22.625 23.890625 
Q 32.328125 33.6875 34.8125 36.53125 
Q 39.546875 41.84375 41.421875 45.53125 
Q 43.3125 49.21875 43.3125 52.78125 
Q 43.3125 58.59375 39.234375 62.25 
Q 35.15625 65.921875 28.609375 65.921875 
Q 23.96875 65.921875 18.8125 64.3125 
Q 13.671875 62.703125 7.8125 59.421875 
L 7.8125 69.390625 
Q 13.765625 71.78125 18.9375 73 
Q 24.125 74.21875 28.421875 74.21875 
Q 39.75 74.21875 46.484375 68.546875 
Q 53.21875 62.890625 53.21875 53.421875 
Q 53.21875 48.921875 51.53125 44.890625 
Q 49.859375 40.875 45.40625 35.40625 
Q 44.1875 33.984375 37.640625 27.21875 
Q 31.109375 20.453125 19.1875 8.296875 
z
" id="DejaVuSans-50"/>
      </defs>
      <g transform="translate(93.768134 327.501344)scale(0.17 -0.17)">
       <use xlink:href="#DejaVuSans-8722"/>
       <use x="83.789062" xlink:href="#DejaVuSans-50"/>
      </g>
     </g>
    </g>
    <g id="xtick_2">
     <g id="line2d_2">
      <g>
       <use style="stroke:#000000;stroke-width:0.8;" x="171.231526" xlink:href="#m728b747521" y="307.584"/>
      </g>
     </g>
     <g id="text_2">
      <!-- −1 -->
      <defs>
       <path d="M 12.40625 8.296875 
L 28.515625 8.296875 
L 28.515625 63.921875 
L 10.984375 60.40625 
L 10.984375 69.390625 
L 28.421875 72.90625 
L 38.28125 72.90625 
L 38.28125 8.296875 
L 54.390625 8.296875 
L 54.390625 0 
L 12.40625 0 
z
" id="DejaVuSans-49"/>
      </defs>
      <g transform="translate(158.700667 327.501344)scale(0.17 -0.17)">
       <use xlink:href="#DejaVuSans-8722"/>
       <use x="83.789062" xlink:href="#DejaVuSans-49"/>
      </g>
     </g>
    </g>
    <g id="xtick_3">
     <g id="line2d_3">
      <g>
       <use style="stroke:#000000;stroke-width:0.8;" x="236.164058" xlink:href="#m728b747521" y="307.584"/>
      </g>
     </g>
     <g id="text_3">
      <!-- 0 -->
      <defs>
       <path d="M 31.78125 66.40625 
Q 24.171875 66.40625 20.328125 58.90625 
Q 16.5 51.421875 16.5 36.375 
Q 16.5 21.390625 20.328125 13.890625 
Q 24.171875 6.390625 31.78125 6.390625 
Q 39.453125 6.390625 43.28125 13.890625 
Q 47.125 21.390625 47.125 36.375 
Q 47.125 51.421875 43.28125 58.90625 
Q 39.453125 66.40625 31.78125 66.40625 
z
M 31.78125 74.21875 
Q 44.046875 74.21875 50.515625 64.515625 
Q 56.984375 54.828125 56.984375 36.375 
Q 56.984375 17.96875 50.515625 8.265625 
Q 44.046875 -1.421875 31.78125 -1.421875 
Q 19.53125 -1.421875 13.0625 8.265625 
Q 6.59375 17.96875 6.59375 36.375 
Q 6.59375 54.828125 13.0625 64.515625 
Q 19.53125 74.21875 31.78125 74.21875 
z
" id="DejaVuSans-48"/>
      </defs>
      <g transform="translate(230.755933 327.501344)scale(0.17 -0.17)">
       <use xlink:href="#DejaVuSans-48"/>
      </g>
     </g>
    </g>
    <g id="xtick_4">
     <g id="line2d_4">
      <g>
       <use style="stroke:#000000;stroke-width:0.8;" x="301.096591" xlink:href="#m728b747521" y="307.584"/>
      </g>
     </g>
     <g id="text_4">
      <!-- 1 -->
      <g transform="translate(295.688466 327.501344)scale(0.17 -0.17)">
       <use xlink:href="#DejaVuSans-49"/>
      </g>
     </g>
    </g>
    <g id="xtick_5">
     <g id="line2d_5">
      <g>
       <use style="stroke:#000000;stroke-width:0.8;" x="366.029123" xlink:href="#m728b747521" y="307.584"/>
      </g>
     </g>
     <g id="text_5">
      <!-- 2 -->
      <g transform="translate(360.620998 327.501344)scale(0.17 -0.17)">
       <use xlink:href="#DejaVuSans-50"/>
      </g>
     </g>
    </g>
    <g id="text_6">
     <!-- Position in Radian -->
     <defs>
      <path d="M 19.671875 64.796875 
L 19.671875 37.40625 
L 32.078125 37.40625 
Q 38.96875 37.40625 42.71875 40.96875 
Q 46.484375 44.53125 46.484375 51.125 
Q 46.484375 57.671875 42.71875 61.234375 
Q 38.96875 64.796875 32.078125 64.796875 
z
M 9.8125 72.90625 
L 32.078125 72.90625 
Q 44.34375 72.90625 50.609375 67.359375 
Q 56.890625 61.8125 56.890625 51.125 
Q 56.890625 40.328125 50.609375 34.8125 
Q 44.34375 29.296875 32.078125 29.296875 
L 19.671875 29.296875 
L 19.671875 0 
L 9.8125 0 
z
" id="DejaVuSans-80"/>
      <path d="M 30.609375 48.390625 
Q 23.390625 48.390625 19.1875 42.75 
Q 14.984375 37.109375 14.984375 27.296875 
Q 14.984375 17.484375 19.15625 11.84375 
Q 23.34375 6.203125 30.609375 6.203125 
Q 37.796875 6.203125 41.984375 11.859375 
Q 46.1875 17.53125 46.1875 27.296875 
Q 46.1875 37.015625 41.984375 42.703125 
Q 37.796875 48.390625 30.609375 48.390625 
z
M 30.609375 56 
Q 42.328125 56 49.015625 48.375 
Q 55.71875 40.765625 55.71875 27.296875 
Q 55.71875 13.875 49.015625 6.21875 
Q 42.328125 -1.421875 30.609375 -1.421875 
Q 18.84375 -1.421875 12.171875 6.21875 
Q 5.515625 13.875 5.515625 27.296875 
Q 5.515625 40.765625 12.171875 48.375 
Q 18.84375 56 30.609375 56 
z
" id="DejaVuSans-111"/>
      <path d="M 44.28125 53.078125 
L 44.28125 44.578125 
Q 40.484375 46.53125 36.375 47.5 
Q 32.28125 48.484375 27.875 48.484375 
Q 21.1875 48.484375 17.84375 46.4375 
Q 14.5 44.390625 14.5 40.28125 
Q 14.5 37.15625 16.890625 35.375 
Q 19.28125 33.59375 26.515625 31.984375 
L 29.59375 31.296875 
Q 39.15625 29.25 43.1875 25.515625 
Q 47.21875 21.78125 47.21875 15.09375 
Q 47.21875 7.46875 41.1875 3.015625 
Q 35.15625 -1.421875 24.609375 -1.421875 
Q 20.21875 -1.421875 15.453125 -0.5625 
Q 10.6875 0.296875 5.421875 2 
L 5.421875 11.28125 
Q 10.40625 8.6875 15.234375 7.390625 
Q 20.0625 6.109375 24.8125 6.109375 
Q 31.15625 6.109375 34.5625 8.28125 
Q 37.984375 10.453125 37.984375 14.40625 
Q 37.984375 18.0625 35.515625 20.015625 
Q 33.0625 21.96875 24.703125 23.78125 
L 21.578125 24.515625 
Q 13.234375 26.265625 9.515625 29.90625 
Q 5.8125 33.546875 5.8125 39.890625 
Q 5.8125 47.609375 11.28125 51.796875 
Q 16.75 56 26.8125 56 
Q 31.78125 56 36.171875 55.265625 
Q 40.578125 54.546875 44.28125 53.078125 
z
" id="DejaVuSans-115"/>
      <path d="M 9.421875 54.6875 
L 18.40625 54.6875 
L 18.40625 0 
L 9.421875 0 
z
M 9.421875 75.984375 
L 18.40625 75.984375 
L 18.40625 64.59375 
L 9.421875 64.59375 
z
" id="DejaVuSans-105"/>
      <path d="M 18.3125 70.21875 
L 18.3125 54.6875 
L 36.8125 54.6875 
L 36.8125 47.703125 
L 18.3125 47.703125 
L 18.3125 18.015625 
Q 18.3125 11.328125 20.140625 9.421875 
Q 21.96875 7.515625 27.59375 7.515625 
L 36.8125 7.515625 
L 36.8125 0 
L 27.59375 0 
Q 17.1875 0 13.234375 3.875 
Q 9.28125 7.765625 9.28125 18.015625 
L 9.28125 47.703125 
L 2.6875 47.703125 
L 2.6875 54.6875 
L 9.28125 54.6875 
L 9.28125 70.21875 
z
" id="DejaVuSans-116"/>
      <path d="M 54.890625 33.015625 
L 54.890625 0 
L 45.90625 0 
L 45.90625 32.71875 
Q 45.90625 40.484375 42.875 44.328125 
Q 39.84375 48.1875 33.796875 48.1875 
Q 26.515625 48.1875 22.3125 43.546875 
Q 18.109375 38.921875 18.109375 30.90625 
L 18.109375 0 
L 9.078125 0 
L 9.078125 54.6875 
L 18.109375 54.6875 
L 18.109375 46.1875 
Q 21.34375 51.125 25.703125 53.5625 
Q 30.078125 56 35.796875 56 
Q 45.21875 56 50.046875 50.171875 
Q 54.890625 44.34375 54.890625 33.015625 
z
" id="DejaVuSans-110"/>
      <path id="DejaVuSans-32"/>
      <path d="M 44.390625 34.1875 
Q 47.5625 33.109375 50.5625 29.59375 
Q 53.5625 26.078125 56.59375 19.921875 
L 66.609375 0 
L 56 0 
L 46.6875 18.703125 
Q 43.0625 26.03125 39.671875 28.421875 
Q 36.28125 30.8125 30.421875 30.8125 
L 19.671875 30.8125 
L 19.671875 0 
L 9.8125 0 
L 9.8125 72.90625 
L 32.078125 72.90625 
Q 44.578125 72.90625 50.734375 67.671875 
Q 56.890625 62.453125 56.890625 51.90625 
Q 56.890625 45.015625 53.6875 40.46875 
Q 50.484375 35.9375 44.390625 34.1875 
z
M 19.671875 64.796875 
L 19.671875 38.921875 
L 32.078125 38.921875 
Q 39.203125 38.921875 42.84375 42.21875 
Q 46.484375 45.515625 46.484375 51.90625 
Q 46.484375 58.296875 42.84375 61.546875 
Q 39.203125 64.796875 32.078125 64.796875 
z
" id="DejaVuSans-82"/>
      <path d="M 34.28125 27.484375 
Q 23.390625 27.484375 19.1875 25 
Q 14.984375 22.515625 14.984375 16.5 
Q 14.984375 11.71875 18.140625 8.90625 
Q 21.296875 6.109375 26.703125 6.109375 
Q 34.1875 6.109375 38.703125 11.40625 
Q 43.21875 16.703125 43.21875 25.484375 
L 43.21875 27.484375 
z
M 52.203125 31.203125 
L 52.203125 0 
L 43.21875 0 
L 43.21875 8.296875 
Q 40.140625 3.328125 35.546875 0.953125 
Q 30.953125 -1.421875 24.3125 -1.421875 
Q 15.921875 -1.421875 10.953125 3.296875 
Q 6 8.015625 6 15.921875 
Q 6 25.140625 12.171875 29.828125 
Q 18.359375 34.515625 30.609375 34.515625 
L 43.21875 34.515625 
L 43.21875 35.40625 
Q 43.21875 41.609375 39.140625 45 
Q 35.0625 48.390625 27.6875 48.390625 
Q 23 48.390625 18.546875 47.265625 
Q 14.109375 46.140625 10.015625 43.890625 
L 10.015625 52.203125 
Q 14.9375 54.109375 19.578125 55.046875 
Q 24.21875 56 28.609375 56 
Q 40.484375 56 46.34375 49.84375 
Q 52.203125 43.703125 52.203125 31.203125 
z
" id="DejaVuSans-97"/>
      <path d="M 45.40625 46.390625 
L 45.40625 75.984375 
L 54.390625 75.984375 
L 54.390625 0 
L 45.40625 0 
L 45.40625 8.203125 
Q 42.578125 3.328125 38.25 0.953125 
Q 33.9375 -1.421875 27.875 -1.421875 
Q 17.96875 -1.421875 11.734375 6.484375 
Q 5.515625 14.40625 5.515625 27.296875 
Q 5.515625 40.1875 11.734375 48.09375 
Q 17.96875 56 27.875 56 
Q 33.9375 56 38.25 53.625 
Q 42.578125 51.265625 45.40625 46.390625 
z
M 14.796875 27.296875 
Q 14.796875 17.390625 18.875 11.75 
Q 22.953125 6.109375 30.078125 6.109375 
Q 37.203125 6.109375 41.296875 11.75 
Q 45.40625 17.390625 45.40625 27.296875 
Q 45.40625 37.203125 41.296875 42.84375 
Q 37.203125 48.484375 30.078125 48.484375 
Q 22.953125 48.484375 18.875 42.84375 
Q 14.796875 37.203125 14.796875 27.296875 
z
" id="DejaVuSans-100"/>
     </defs>
     <g transform="translate(102.024844 357.832125)scale(0.3 -0.3)">
      <use xlink:href="#DejaVuSans-80"/>
      <use x="60.255859" xlink:href="#DejaVuSans-111"/>
      <use x="121.4375" xlink:href="#DejaVuSans-115"/>
      <use x="173.537109" xlink:href="#DejaVuSans-105"/>
      <use x="201.320312" xlink:href="#DejaVuSans-116"/>
      <use x="240.529297" xlink:href="#DejaVuSans-105"/>
      <use x="268.3125" xlink:href="#DejaVuSans-111"/>
      <use x="329.494141" xlink:href="#DejaVuSans-110"/>
      <use x="392.873047" xlink:href="#DejaVuSans-32"/>
      <use x="424.660156" xlink:href="#DejaVuSans-105"/>
      <use x="452.443359" xlink:href="#DejaVuSans-110"/>
      <use x="515.822266" xlink:href="#DejaVuSans-32"/>
      <use x="547.609375" xlink:href="#DejaVuSans-82"/>
      <use x="617.060547" xlink:href="#DejaVuSans-97"/>
      <use x="678.339844" xlink:href="#DejaVuSans-100"/>
      <use x="741.816406" xlink:href="#DejaVuSans-105"/>
      <use x="769.599609" xlink:href="#DejaVuSans-97"/>
      <use x="830.878906" xlink:href="#DejaVuSans-110"/>
     </g>
    </g>
   </g>
   <g id="matplotlib.axis_2">
    <g id="ytick_1">
     <g id="line2d_6">
      <defs>
       <path d="M 0 0 
L -3.5 0 
" id="m46cc6acce0" style="stroke:#000000;stroke-width:0.8;"/>
      </defs>
      <g>
       <use style="stroke:#000000;stroke-width:0.8;" x="57.6" xlink:href="#m46cc6acce0" y="307.584"/>
      </g>
     </g>
     <g id="text_7">
      <!-- 0.0 -->
      <defs>
       <path d="M 10.6875 12.40625 
L 21 12.40625 
L 21 0 
L 10.6875 0 
z
" id="DejaVuSans-46"/>
      </defs>
      <g transform="translate(23.564687 314.042672)scale(0.17 -0.17)">
       <use xlink:href="#DejaVuSans-48"/>
       <use x="63.623047" xlink:href="#DejaVuSans-46"/>
       <use x="95.410156" xlink:href="#DejaVuSans-48"/>
      </g>
     </g>
    </g>
    <g id="ytick_2">
     <g id="line2d_7">
      <g>
       <use style="stroke:#000000;stroke-width:0.8;" x="57.6" xlink:href="#m46cc6acce0" y="268.884374"/>
      </g>
     </g>
     <g id="text_8">
      <!-- 0.2 -->
      <g transform="translate(23.564687 275.343046)scale(0.17 -0.17)">
       <use xlink:href="#DejaVuSans-48"/>
       <use x="63.623047" xlink:href="#DejaVuSans-46"/>
       <use x="95.410156" xlink:href="#DejaVuSans-50"/>
      </g>
     </g>
    </g>
    <g id="ytick_3">
     <g id="line2d_8">
      <g>
       <use style="stroke:#000000;stroke-width:0.8;" x="57.6" xlink:href="#m46cc6acce0" y="230.184748"/>
      </g>
     </g>
     <g id="text_9">
      <!-- 0.4 -->
      <defs>
       <path d="M 37.796875 64.3125 
L 12.890625 25.390625 
L 37.796875 25.390625 
z
M 35.203125 72.90625 
L 47.609375 72.90625 
L 47.609375 25.390625 
L 58.015625 25.390625 
L 58.015625 17.1875 
L 47.609375 17.1875 
L 47.609375 0 
L 37.796875 0 
L 37.796875 17.1875 
L 4.890625 17.1875 
L 4.890625 26.703125 
z
" id="DejaVuSans-52"/>
      </defs>
      <g transform="translate(23.564687 236.64342)scale(0.17 -0.17)">
       <use xlink:href="#DejaVuSans-48"/>
       <use x="63.623047" xlink:href="#DejaVuSans-46"/>
       <use x="95.410156" xlink:href="#DejaVuSans-52"/>
      </g>
     </g>
    </g>
    <g id="ytick_4">
     <g id="line2d_9">
      <g>
       <use style="stroke:#000000;stroke-width:0.8;" x="57.6" xlink:href="#m46cc6acce0" y="191.485122"/>
      </g>
     </g>
     <g id="text_10">
      <!-- 0.6 -->
      <defs>
       <path d="M 33.015625 40.375 
Q 26.375 40.375 22.484375 35.828125 
Q 18.609375 31.296875 18.609375 23.390625 
Q 18.609375 15.53125 22.484375 10.953125 
Q 26.375 6.390625 33.015625 6.390625 
Q 39.65625 6.390625 43.53125 10.953125 
Q 47.40625 15.53125 47.40625 23.390625 
Q 47.40625 31.296875 43.53125 35.828125 
Q 39.65625 40.375 33.015625 40.375 
z
M 52.59375 71.296875 
L 52.59375 62.3125 
Q 48.875 64.0625 45.09375 64.984375 
Q 41.3125 65.921875 37.59375 65.921875 
Q 27.828125 65.921875 22.671875 59.328125 
Q 17.53125 52.734375 16.796875 39.40625 
Q 19.671875 43.65625 24.015625 45.921875 
Q 28.375 48.1875 33.59375 48.1875 
Q 44.578125 48.1875 50.953125 41.515625 
Q 57.328125 34.859375 57.328125 23.390625 
Q 57.328125 12.15625 50.6875 5.359375 
Q 44.046875 -1.421875 33.015625 -1.421875 
Q 20.359375 -1.421875 13.671875 8.265625 
Q 6.984375 17.96875 6.984375 36.375 
Q 6.984375 53.65625 15.1875 63.9375 
Q 23.390625 74.21875 37.203125 74.21875 
Q 40.921875 74.21875 44.703125 73.484375 
Q 48.484375 72.75 52.59375 71.296875 
z
" id="DejaVuSans-54"/>
      </defs>
      <g transform="translate(23.564687 197.943794)scale(0.17 -0.17)">
       <use xlink:href="#DejaVuSans-48"/>
       <use x="63.623047" xlink:href="#DejaVuSans-46"/>
       <use x="95.410156" xlink:href="#DejaVuSans-54"/>
      </g>
     </g>
    </g>
    <g id="ytick_5">
     <g id="line2d_10">
      <g>
       <use style="stroke:#000000;stroke-width:0.8;" x="57.6" xlink:href="#m46cc6acce0" y="152.785496"/>
      </g>
     </g>
     <g id="text_11">
      <!-- 0.8 -->
      <defs>
       <path d="M 31.78125 34.625 
Q 24.75 34.625 20.71875 30.859375 
Q 16.703125 27.09375 16.703125 20.515625 
Q 16.703125 13.921875 20.71875 10.15625 
Q 24.75 6.390625 31.78125 6.390625 
Q 38.8125 6.390625 42.859375 10.171875 
Q 46.921875 13.96875 46.921875 20.515625 
Q 46.921875 27.09375 42.890625 30.859375 
Q 38.875 34.625 31.78125 34.625 
z
M 21.921875 38.8125 
Q 15.578125 40.375 12.03125 44.71875 
Q 8.5 49.078125 8.5 55.328125 
Q 8.5 64.0625 14.71875 69.140625 
Q 20.953125 74.21875 31.78125 74.21875 
Q 42.671875 74.21875 48.875 69.140625 
Q 55.078125 64.0625 55.078125 55.328125 
Q 55.078125 49.078125 51.53125 44.71875 
Q 48 40.375 41.703125 38.8125 
Q 48.828125 37.15625 52.796875 32.3125 
Q 56.78125 27.484375 56.78125 20.515625 
Q 56.78125 9.90625 50.3125 4.234375 
Q 43.84375 -1.421875 31.78125 -1.421875 
Q 19.734375 -1.421875 13.25 4.234375 
Q 6.78125 9.90625 6.78125 20.515625 
Q 6.78125 27.484375 10.78125 32.3125 
Q 14.796875 37.15625 21.921875 38.8125 
z
M 18.3125 54.390625 
Q 18.3125 48.734375 21.84375 45.5625 
Q 25.390625 42.390625 31.78125 42.390625 
Q 38.140625 42.390625 41.71875 45.5625 
Q 45.3125 48.734375 45.3125 54.390625 
Q 45.3125 60.0625 41.71875 63.234375 
Q 38.140625 66.40625 31.78125 66.40625 
Q 25.390625 66.40625 21.84375 63.234375 
Q 18.3125 60.0625 18.3125 54.390625 
z
" id="DejaVuSans-56"/>
      </defs>
      <g transform="translate(23.564687 159.244168)scale(0.17 -0.17)">
       <use xlink:href="#DejaVuSans-48"/>
       <use x="63.623047" xlink:href="#DejaVuSans-46"/>
       <use x="95.410156" xlink:href="#DejaVuSans-56"/>
      </g>
     </g>
    </g>
    <g id="ytick_6">
     <g id="line2d_11">
      <g>
       <use style="stroke:#000000;stroke-width:0.8;" x="57.6" xlink:href="#m46cc6acce0" y="114.08587"/>
      </g>
     </g>
     <g id="text_12">
      <!-- 1.0 -->
      <g transform="translate(23.564687 120.544542)scale(0.17 -0.17)">
       <use xlink:href="#DejaVuSans-49"/>
       <use x="63.623047" xlink:href="#DejaVuSans-46"/>
       <use x="95.410156" xlink:href="#DejaVuSans-48"/>
      </g>
     </g>
    </g>
    <g id="ytick_7">
     <g id="line2d_12">
      <g>
       <use style="stroke:#000000;stroke-width:0.8;" x="57.6" xlink:href="#m46cc6acce0" y="75.386244"/>
      </g>
     </g>
     <g id="text_13">
      <!-- 1.2 -->
      <g transform="translate(23.564687 81.844916)scale(0.17 -0.17)">
       <use xlink:href="#DejaVuSans-49"/>
       <use x="63.623047" xlink:href="#DejaVuSans-46"/>
       <use x="95.410156" xlink:href="#DejaVuSans-50"/>
      </g>
     </g>
    </g>
    <g id="text_14">
     <!-- Density -->
     <defs>
      <path d="M 19.671875 64.796875 
L 19.671875 8.109375 
L 31.59375 8.109375 
Q 46.6875 8.109375 53.6875 14.9375 
Q 60.6875 21.78125 60.6875 36.53125 
Q 60.6875 51.171875 53.6875 57.984375 
Q 46.6875 64.796875 31.59375 64.796875 
z
M 9.8125 72.90625 
L 30.078125 72.90625 
Q 51.265625 72.90625 61.171875 64.09375 
Q 71.09375 55.28125 71.09375 36.53125 
Q 71.09375 17.671875 61.125 8.828125 
Q 51.171875 0 30.078125 0 
L 9.8125 0 
z
" id="DejaVuSans-68"/>
      <path d="M 56.203125 29.59375 
L 56.203125 25.203125 
L 14.890625 25.203125 
Q 15.484375 15.921875 20.484375 11.0625 
Q 25.484375 6.203125 34.421875 6.203125 
Q 39.59375 6.203125 44.453125 7.46875 
Q 49.3125 8.734375 54.109375 11.28125 
L 54.109375 2.78125 
Q 49.265625 0.734375 44.1875 -0.34375 
Q 39.109375 -1.421875 33.890625 -1.421875 
Q 20.796875 -1.421875 13.15625 6.1875 
Q 5.515625 13.8125 5.515625 26.8125 
Q 5.515625 40.234375 12.765625 48.109375 
Q 20.015625 56 32.328125 56 
Q 43.359375 56 49.78125 48.890625 
Q 56.203125 41.796875 56.203125 29.59375 
z
M 47.21875 32.234375 
Q 47.125 39.59375 43.09375 43.984375 
Q 39.0625 48.390625 32.421875 48.390625 
Q 24.90625 48.390625 20.390625 44.140625 
Q 15.875 39.890625 15.1875 32.171875 
z
" id="DejaVuSans-101"/>
      <path d="M 32.171875 -5.078125 
Q 28.375 -14.84375 24.75 -17.8125 
Q 21.140625 -20.796875 15.09375 -20.796875 
L 7.90625 -20.796875 
L 7.90625 -13.28125 
L 13.1875 -13.28125 
Q 16.890625 -13.28125 18.9375 -11.515625 
Q 21 -9.765625 23.484375 -3.21875 
L 25.09375 0.875 
L 2.984375 54.6875 
L 12.5 54.6875 
L 29.59375 11.921875 
L 46.6875 54.6875 
L 56.203125 54.6875 
z
" id="DejaVuSans-121"/>
     </defs>
     <g transform="translate(13.325625 231.553781)rotate(-90)scale(0.3 -0.3)">
      <use xlink:href="#DejaVuSans-68"/>
      <use x="77.001953" xlink:href="#DejaVuSans-101"/>
      <use x="138.525391" xlink:href="#DejaVuSans-110"/>
      <use x="201.904297" xlink:href="#DejaVuSans-115"/>
      <use x="254.003906" xlink:href="#DejaVuSans-105"/>
      <use x="281.787109" xlink:href="#DejaVuSans-116"/>
      <use x="320.996094" xlink:href="#DejaVuSans-121"/>
     </g>
    </g>
   </g>
   <g id="line2d_13">
    <path clip-path="url(#pc09ebeecdb)" d="M 73.832727 307.584 
L 98.336642 307.476295 
L 98.645071 307.20279 
L 98.912918 306.627485 
L 99.213231 305.375607 
L 99.643409 302.440843 
L 100.179102 299.164229 
L 100.390133 298.854227 
L 100.511882 298.984411 
L 100.722912 299.63319 
L 101.493986 302.284466 
L 101.688784 302.302174 
L 101.932281 302.030071 
L 102.476091 301.419487 
L 102.752054 301.449159 
L 103.547477 301.698382 
L 104.002005 301.430785 
L 104.992226 300.590657 
L 105.795766 299.76862 
L 106.185362 299.756722 
L 106.518141 299.674603 
L 106.769754 299.339524 
L 107.11065 298.440089 
L 107.808675 296.580229 
L 108.027822 296.505435 
L 108.230736 296.711304 
L 108.595982 297.501004 
L 109.107326 298.457071 
L 109.350822 298.527418 
L 109.578086 298.334334 
L 109.918982 297.688515 
L 111.160817 295.068351 
L 111.396197 295.05122 
L 111.631578 295.294231 
L 112.362069 296.190941 
L 112.54875 295.999024 
L 112.824713 295.313753 
L 113.790584 292.633134 
L 114.293812 292.149072 
L 115.292149 291.389643 
L 115.535646 291.658902 
L 116.217438 292.529525 
L 116.404119 292.404146 
L 116.663849 291.895521 
L 117.102144 290.440142 
L 118.035549 287.284817 
L 118.311512 287.045593 
L 118.546892 287.129597 
L 119.123169 287.702621 
L 119.821193 288.210777 
L 120.300071 288.300223 
L 121.444507 288.206577 
L 121.736703 287.712313 
L 122.223697 286.33702 
L 122.78374 284.971061 
L 123.075937 284.740746 
L 123.3519 284.810876 
L 123.911943 284.992865 
L 124.488219 284.985106 
L 124.715483 285.351973 
L 125.113195 286.543592 
L 125.52714 287.5023 
L 125.721937 287.538725 
L 125.924851 287.29119 
L 126.679692 286.153743 
L 126.87449 286.303987 
L 127.191036 286.907077 
L 127.96211 288.40138 
L 128.327355 288.658568 
L 128.546502 288.581802 
L 128.757533 288.234827 
L 129.017263 287.295134 
L 129.374392 285.002709 
L 130.169816 279.670145 
L 130.364613 279.445623 
L 130.37273 279.448952 
L 130.510711 279.645917 
L 130.762325 280.512098 
L 131.257436 282.112507 
L 131.41165 282.108981 
L 131.573982 281.78767 
L 131.906761 280.485675 
L 132.353172 279.031651 
L 132.588553 278.863385 
L 132.880749 278.991509 
L 133.124246 278.983671 
L 133.310927 278.71484 
L 133.570657 277.881408 
L 134.41478 274.853104 
L 134.544645 274.970606 
L 134.739443 275.554204 
L 135.169621 277.798394 
L 135.607915 279.553531 
L 135.981277 280.166232 
L 136.33029 280.810729 
L 137.150063 282.696818 
L 137.174413 282.684368 
L 137.336744 282.445889 
L 137.637057 281.483463 
L 138.091585 280.205935 
L 138.262033 280.186702 
L 138.43248 280.479765 
L 138.724677 281.548567 
L 139.447051 284.266937 
L 139.706781 284.508827 
L 139.917812 284.423144 
L 140.210009 284.010703 
L 140.615837 283.003298 
L 141.516776 280.608297 
L 141.74404 280.578827 
L 142.320316 280.690649 
L 142.555696 280.287039 
L 143.213138 279.017092 
L 143.367353 279.136296 
L 143.602733 279.686948 
L 144.471206 282.00724 
L 144.787752 282.168929 
L 145.420844 282.38305 
L 146.30555 283.007281 
L 146.549047 282.714308 
L 147.620434 281.094881 
L 147.945096 281.128615 
L 148.326575 281.41397 
L 149.121999 282.078504 
L 149.324913 281.926697 
L 149.560293 281.418237 
L 149.868723 280.125133 
L 150.331367 277.034727 
L 150.972576 273.034624 
L 151.232306 272.512059 
L 151.386521 272.561709 
L 151.597551 272.960144 
L 152.133245 274.644889 
L 152.725754 276.171855 
L 152.977368 276.361626 
L 153.155932 276.239487 
L 153.456245 275.682959 
L 153.805257 275.190333 
L 153.951356 275.270918 
L 154.138037 275.708228 
L 154.43835 277.094213 
L 155.436687 282.096692 
L 155.663951 282.326962 
L 155.801933 282.180207 
L 156.004847 281.554694 
L 156.345743 279.633107 
L 157.043768 275.752893 
L 157.384663 275.03425 
L 158.074572 273.985694 
L 159.040443 271.814362 
L 159.227124 271.932243 
L 159.51932 272.456266 
L 160.055014 273.367616 
L 160.282278 273.38625 
L 160.615057 273.114143 
L 160.91537 272.997659 
L 161.126401 273.173986 
L 161.74326 273.851158 
L 161.751376 273.845109 
L 161.921824 273.560014 
L 162.181554 272.58351 
L 163.520788 266.704408 
L 163.829217 266.20356 
L 163.975315 266.275011 
L 164.15388 266.703398 
L 164.43796 268.102619 
L 165.273966 272.569463 
L 165.549929 272.942788 
L 165.809659 272.949416 
L 166.166788 272.710465 
L 167.010911 271.989146 
L 167.027144 272.006429 
L 167.213825 272.391416 
L 167.497905 273.609141 
L 168.155347 276.536679 
L 168.277096 276.55029 
L 168.293329 276.532838 
L 168.439427 276.166256 
L 168.674807 274.812393 
L 169.064403 270.994487 
L 170.014041 261.391742 
L 170.354937 260.063561 
L 170.647133 259.687892 
L 171.142244 259.216109 
L 171.523722 258.351331 
L 171.9539 257.550662 
L 172.132465 257.567737 
L 172.335379 257.882556 
L 172.952238 258.999197 
L 172.960355 258.995081 
L 173.106453 258.778691 
L 173.333717 257.934504 
L 174.031741 255.085257 
L 174.145373 255.187936 
L 174.315821 255.758788 
L 174.6486 257.85977 
L 175.143711 260.612045 
L 175.362858 260.915009 
L 175.508956 260.803859 
L 175.76057 260.23964 
L 176.442362 258.667666 
L 176.767024 258.45486 
L 177.099803 258.511632 
L 177.88711 258.990836 
L 178.268589 259.364708 
L 178.577019 260.04674 
L 179.648405 262.85931 
L 179.818853 262.710323 
L 180.070467 262.126869 
L 180.841541 260.168415 
L 181.17432 260.087111 
L 181.344768 259.896615 
L 181.531449 259.277397 
L 181.783062 257.536112 
L 182.684001 250.391367 
L 182.7814 250.482436 
L 182.943731 251.078383 
L 183.365793 253.833353 
L 183.698572 255.222897 
L 183.84467 255.298317 
L 183.860903 255.286477 
L 184.015118 254.999536 
L 184.339781 253.76681 
L 184.778075 252.395662 
L 185.013456 252.234086 
L 185.248836 252.365792 
L 185.719597 252.630983 
L 185.963094 252.494143 
L 186.27964 252.018755 
L 186.644886 251.0378 
L 187.058831 249.192631 
L 187.740622 246.194426 
L 187.951653 246.029611 
L 188.105868 246.207473 
L 188.365598 246.936023 
L 188.97434 248.670501 
L 189.161021 248.696014 
L 189.363936 248.435673 
L 190.045727 247.423018 
L 190.459672 247.099752 
L 190.686936 246.477615 
L 190.995365 244.860283 
L 191.750206 239.180992 
L 192.2859 236.1372 
L 192.529397 235.673158 
L 192.643028 235.760112 
L 192.80536 236.261318 
L 193.06509 237.956064 
L 193.600783 243.415744 
L 194.095894 247.421895 
L 194.38809 248.359657 
L 194.566655 248.414247 
L 194.728986 248.17064 
L 194.972483 247.336091 
L 195.289029 245.356564 
L 195.654275 241.486018 
L 196.384766 230.414134 
L 196.82306 225.882723 
L 197.139606 224.514824 
L 197.350637 224.323903 
L 197.496735 224.492161 
L 197.707766 225.166158 
L 198.032429 227.108478 
L 198.892785 232.567325 
L 199.322963 233.644134 
L 199.996638 234.76203 
L 200.264484 234.831891 
L 200.564797 234.648823 
L 200.921926 234.171674 
L 201.189773 233.412359 
L 201.481969 231.807275 
L 201.912147 227.925658 
L 202.464074 223.446581 
L 202.715688 222.830113 
L 202.861786 222.869594 
L 203.421829 223.373663 
L 203.462412 223.325093 
L 203.657209 222.848218 
L 204.030571 221.16817 
L 204.517565 219.317337 
L 204.761062 219.063619 
L 204.939627 219.159466 
L 205.231823 219.641777 
L 205.775633 220.484109 
L 206.027247 220.500745 
L 206.457425 220.461444 
L 206.635989 220.785374 
L 206.879486 221.783462 
L 207.772308 225.999796 
L 207.918407 225.927519 
L 208.178137 225.430467 
L 208.583965 224.785068 
L 208.843695 224.752342 
L 209.874499 225.103266 
L 210.174812 225.79607 
L 210.994585 228.530115 
L 211.522162 230.845915 
L 212.54485 235.725802 
L 212.707181 235.767367 
L 212.715298 235.760654 
L 212.869512 235.47508 
L 213.121126 234.425798 
L 213.705519 230.659599 
L 214.15193 228.580541 
L 214.38731 228.258129 
L 214.525292 228.367069 
L 214.720089 228.895021 
L 215.052869 230.583986 
L 215.580446 233.064492 
L 215.718427 233.156983 
L 215.742777 233.137507 
L 215.872642 232.840847 
L 216.083673 231.663166 
L 216.432685 228.173584 
L 217.08201 221.803889 
L 217.301158 221.303628 
L 217.41479 221.427273 
L 217.62582 222.120815 
L 218.129047 223.757519 
L 218.307612 223.788282 
L 218.526759 223.511933 
L 218.965054 222.995841 
L 219.200434 223.050245 
L 219.630612 223.179798 
L 219.809177 222.940513 
L 220.036441 222.184172 
L 220.336754 220.273178 
L 220.848097 215.224029 
L 221.335091 211.325684 
L 221.570472 210.777386 
L 221.684104 210.873926 
L 221.854551 211.418441 
L 222.162981 213.309241 
L 222.796073 217.162721 
L 222.934055 217.298598 
L 222.966521 217.275756 
L 223.096386 216.977466 
L 223.331767 215.722158 
L 223.932392 212.385593 
L 224.021675 212.379457 
L 224.046024 212.409662 
L 224.184006 212.831252 
L 224.43562 214.4899 
L 225.101178 219.055651 
L 225.312209 219.32501 
L 225.45019 219.178611 
L 225.685571 218.51167 
L 226.416062 215.414052 
L 226.951755 213.818145 
L 227.552381 212.682243 
L 227.763412 212.636526 
L 227.93386 212.882626 
L 228.185473 213.742471 
L 228.980897 216.787058 
L 229.118879 216.716161 
L 229.30556 216.261617 
L 229.719504 214.464779 
L 230.60421 209.955138 
L 230.896407 205.818935 
L 231.95156 188.553552 
L 232.024609 188.654461 
L 232.170708 189.431443 
L 232.527836 193.007594 
L 232.909315 195.851644 
L 233.120346 196.223804 
L 233.274561 196.116997 
L 233.60734 195.877372 
L 233.745321 196.137617 
L 233.956352 197.149105 
L 234.418996 199.745731 
L 234.459579 199.682947 
L 234.556978 199.06188 
L 234.711193 196.222733 
L 234.914107 187.563487 
L 235.181954 165.010704 
L 235.636481 102.935118 
L 236.058543 57.613128 
L 236.196525 54.144 
L 236.228991 54.330322 
L 236.318273 56.783602 
L 236.496838 69.442018 
L 236.878316 116.964834 
L 237.397776 172.171879 
L 237.714322 185.96632 
L 237.965936 189.302185 
L 238.095801 189.594016 
L 238.128267 189.575858 
L 238.250016 189.286402 
L 238.509746 187.945862 
L 238.866875 184.897748 
L 239.288936 179.065758 
L 239.970728 169.778855 
L 240.116826 169.348022 
L 240.149292 169.372345 
L 240.246691 169.719748 
L 240.425256 171.417623 
L 240.725569 176.86535 
L 241.74014 196.856609 
L 242.162201 200.511561 
L 242.551796 202.175154 
L 242.981974 203.887094 
L 243.274171 206.339921 
L 243.688115 212.088347 
L 244.369907 221.196102 
L 244.629637 222.296662 
L 244.718919 222.271752 
L 244.735153 222.245589 
L 244.881251 221.727607 
L 245.132864 219.833841 
L 246.228601 210.449555 
L 247.10519 207.256458 
L 247.259405 207.143001 
L 247.283754 207.1607 
L 247.41362 207.443058 
L 247.616534 208.538256 
L 248.006129 212.208063 
L 248.444423 215.585415 
L 248.614871 215.885401 
L 248.631105 215.878867 
L 248.744736 215.670797 
L 248.947651 214.696562 
L 249.881056 209.476383 
L 250.08397 209.393867 
L 250.546614 209.399338 
L 250.733295 208.942833 
L 251.001142 207.566381 
L 251.755983 203.311632 
L 251.861498 203.337678 
L 251.869615 203.349121 
L 252.015713 203.777708 
L 252.275443 205.403373 
L 253.070866 210.766262 
L 253.273781 210.989593 
L 253.411762 210.817399 
L 253.639026 210.075771 
L 254.418216 207.21941 
L 254.539965 207.317195 
L 254.710413 207.841919 
L 254.994493 209.597707 
L 255.99283 216.463212 
L 256.260677 216.883159 
L 256.471708 216.856651 
L 256.804487 216.519824 
L 257.664843 215.606362 
L 257.827174 215.781384 
L 258.038205 216.409172 
L 258.395334 218.353176 
L 258.857978 220.55208 
L 259.004077 220.664323 
L 259.028426 220.646035 
L 259.158291 220.366532 
L 259.377439 219.254535 
L 260.213445 214.255382 
L 260.229678 214.260724 
L 260.335193 214.445342 
L 260.521875 215.355765 
L 261.292948 220.004549 
L 261.325415 219.983266 
L 261.447163 219.675644 
L 261.674427 218.305858 
L 262.266936 214.61413 
L 262.339985 214.609107 
L 262.372452 214.654923 
L 262.502317 215.139396 
L 262.721464 216.986655 
L 263.167875 223.173616 
L 263.662986 228.886427 
L 263.906483 229.78075 
L 264.003882 229.721793 
L 264.14998 229.220117 
L 264.417826 227.299354 
L 265.083385 222.349914 
L 265.21325 222.207426 
L 265.245716 222.231912 
L 265.367465 222.534042 
L 265.586612 223.830527 
L 266.008673 228.020454 
L 267.047594 238.321445 
L 267.445306 240.493845 
L 267.631987 240.720312 
L 267.640103 240.716531 
L 267.761852 240.522472 
L 267.964766 239.662626 
L 268.338128 236.867827 
L 269.028036 231.909655 
L 269.271533 231.40254 
L 269.385165 231.503811 
L 269.555613 232.068489 
L 269.847809 233.999277 
L 270.610767 239.305595 
L 270.821797 239.567796 
L 270.959779 239.405282 
L 271.203276 238.659791 
L 271.933767 236.276741 
L 272.169148 236.147054 
L 272.372062 236.29935 
L 272.639908 236.825582 
L 273.005154 238.096232 
L 273.857393 241.268628 
L 274.011608 241.262329 
L 274.173939 240.956863 
L 274.458019 239.836465 
L 275.131694 237.132573 
L 275.350842 236.963469 
L 275.521289 237.114091 
L 275.764786 237.703724 
L 276.097566 239.182047 
L 276.503394 242.132985 
L 277.680296 251.54588 
L 277.842628 251.676845 
L 277.858861 251.666869 
L 277.996842 251.422973 
L 278.232223 250.451616 
L 279.141278 246.204729 
L 279.271143 246.255168 
L 279.433475 246.680571 
L 279.685088 248.104303 
L 280.310064 253.516101 
L 280.634726 255.115254 
L 280.780825 255.226318 
L 280.797058 255.215524 
L 280.935039 254.958335 
L 281.211003 253.823009 
L 281.746696 251.733612 
L 281.965843 251.553969 
L 282.144408 251.698421 
L 282.534003 252.432012 
L 282.874899 252.838843 
L 283.094046 252.794945 
L 283.613506 252.57927 
L 283.792071 252.895295 
L 284.051801 253.90954 
L 285.017672 258.202895 
L 285.228703 258.279125 
L 285.464084 258.088054 
L 286.097176 257.171206 
L 286.876366 256.068949 
L 287.030581 256.252504 
L 287.241612 256.931089 
L 287.614974 259.062074 
L 288.101968 261.474136 
L 288.296765 261.674795 
L 288.304882 261.671038 
L 288.434747 261.479631 
L 288.645778 260.681334 
L 289.051606 258.050701 
L 289.627882 254.71256 
L 289.920079 254.087942 
L 290.114876 254.064745 
L 290.325907 254.308528 
L 290.642453 255.073528 
L 291.040165 256.674777 
L 291.519042 259.634643 
L 292.590429 266.585313 
L 292.939441 267.4246 
L 293.231638 267.626142 
L 293.726748 267.852524 
L 293.954012 268.347034 
L 294.246209 269.60796 
L 295.333828 274.999003 
L 295.47181 274.915264 
L 295.666608 274.438817 
L 296.591896 271.727228 
L 296.770461 271.851938 
L 297.12759 272.479026 
L 297.557768 273.059672 
L 297.849964 273.10853 
L 299.246014 272.923683 
L 299.724891 272.964336 
L 299.960271 272.704746 
L 300.674529 271.596472 
L 300.723229 271.640963 
L 300.893677 272.013779 
L 301.177756 273.297954 
L 302.103045 277.879791 
L 302.395241 278.297626 
L 302.630622 278.301508 
L 303.32053 278.124289 
L 303.539677 278.501808 
L 303.86434 279.600168 
L 304.473082 281.629184 
L 304.684113 281.729568 
L 304.878911 281.528621 
L 305.528236 280.721126 
L 305.7068 280.896522 
L 305.966531 281.537995 
L 306.477874 283.561509 
L 307.110967 285.754409 
L 307.459979 286.283088 
L 307.768408 286.381924 
L 308.661231 286.459611 
L 309.22939 286.611397 
L 310.138446 286.583474 
L 310.438759 287.07022 
L 311.615661 289.328032 
L 313.896416 290.371364 
L 314.204846 290.419792 
L 314.472692 290.206406 
L 315.081435 289.657456 
L 315.284349 289.801333 
L 315.560312 290.328173 
L 316.477484 292.29204 
L 316.737214 292.329025 
L 317.134926 292.094654 
L 317.613804 291.907039 
L 318.279362 291.732977 
L 318.96927 291.348715 
L 319.188418 291.577715 
L 319.553663 292.380933 
L 319.927025 293.00573 
L 320.08124 292.950609 
L 320.259804 292.562425 
L 320.527651 291.341236 
L 321.233792 286.585585 
L 321.672087 284.57886 
L 321.9237 284.201538 
L 322.069799 284.285005 
L 322.264596 284.72949 
L 322.597375 286.169451 
L 324.253155 294.242615 
L 324.43172 294.24767 
L 324.626517 293.94805 
L 324.991763 292.866068 
L 325.925168 290.078718 
L 326.452745 289.180047 
L 326.866689 288.854646 
L 327.191352 288.867172 
L 328.563052 289.499145 
L 328.830899 290.10414 
L 329.220494 291.649093 
L 329.926635 294.379763 
L 330.218831 294.760003 
L 330.462328 294.75271 
L 331.209053 294.545988 
L 331.501249 294.847024 
L 332.020709 295.782926 
L 333.611556 298.694798 
L 333.86317 298.725898 
L 334.114783 298.498989 
L 334.512495 297.766586 
L 335.973477 294.854594 
L 336.29814 294.670693 
L 336.598453 294.762882 
L 337.677956 295.559408 
L 338.773693 296.421914 
L 339.025306 296.152973 
L 339.471717 295.24553 
L 339.853196 294.689171 
L 340.047994 294.719956 
L 340.259024 295.04933 
L 340.608037 296.107019 
L 341.224896 297.875451 
L 341.492742 298.082344 
L 341.728123 297.983573 
L 342.702111 297.315681 
L 343.5787 297.407108 
L 343.919596 297.051001 
L 345.145197 295.52802 
L 345.404927 295.662285 
L 345.770173 296.155283 
L 346.646762 297.40922 
L 346.898376 297.404263 
L 347.198689 297.136537 
L 347.685683 296.736183 
L 347.888597 296.844848 
L 348.14021 297.280274 
L 349.187247 299.430142 
L 349.414511 299.337962 
L 350.372266 298.688857 
L 350.62388 298.970956 
L 350.972892 299.749425 
L 351.979346 302.182604 
L 352.352708 302.448608 
L 352.75042 302.464464 
L 353.148132 302.256278 
L 353.935439 301.764449 
L 354.170819 301.951665 
L 354.527948 302.584441 
L 355.055525 303.419645 
L 355.290906 303.438368 
L 355.526286 303.200611 
L 355.923998 302.411086 
L 356.800587 300.671693 
L 357.246998 300.239316 
L 357.547311 300.214826 
L 357.823274 300.428301 
L 358.237219 301.088675 
L 359.852416 304.302556 
L 360.258244 304.972497 
L 360.509858 305.030462 
L 360.769588 304.835614 
L 361.256582 304.113892 
L 361.808508 303.431724 
L 362.100705 303.378111 
L 362.392901 303.569136 
L 363.586037 304.596637 
L 364.081147 304.920092 
L 364.762939 305.413858 
L 364.998319 305.278593 
L 365.290516 304.799434 
L 366.215804 303.070907 
L 366.443068 303.100589 
L 366.719031 303.403776 
L 367.214142 304.356334 
L 368.050148 305.88807 
L 368.488443 306.24412 
L 368.845572 306.271067 
L 369.202701 306.061671 
L 370.038707 305.484358 
L 370.379603 305.60023 
L 370.972112 305.817881 
L 371.264309 305.644893 
L 372.059732 305.037893 
L 372.295112 305.247508 
L 372.660358 305.944151 
L 373.34215 307.194891 
L 373.747978 307.483857 
L 374.299904 307.575439 
L 377.092003 307.584 
L 398.487273 307.584 
L 398.487273 307.584 
" style="fill:none;stroke:#ff7f0e;stroke-linecap:square;stroke-width:1.5;"/>
   </g>
   <g id="patch_103">
    <path d="M 57.6 307.584 
L 57.6 41.472 
" style="fill:none;stroke:#000000;stroke-linecap:square;stroke-linejoin:miter;stroke-width:0.8;"/>
   </g>
   <g id="patch_104">
    <path d="M 414.72 307.584 
L 414.72 41.472 
" style="fill:none;stroke:#000000;stroke-linecap:square;stroke-linejoin:miter;stroke-width:0.8;"/>
   </g>
   <g id="patch_105">
    <path d="M 57.6 307.584 
L 414.72 307.584 
" style="fill:none;stroke:#000000;stroke-linecap:square;stroke-linejoin:miter;stroke-width:0.8;"/>
   </g>
   <g id="patch_106">
    <path d="M 57.6 41.472 
L 414.72 41.472 
" style="fill:none;stroke:#000000;stroke-linecap:square;stroke-linejoin:miter;stroke-width:0.8;"/>
   </g>
  </g>
 </g>
 <defs>
  <clipPath id="pc09ebeecdb">
   <rect height="266.112" width="357.12" x="57.6" y="41.472"/>
  </clipPath>
 </defs>
</svg>
