<?xml version="1.0" encoding="utf-8" standalone="no"?>
<!DOCTYPE svg PUBLIC "-//W3C//DTD SVG 1.1//EN"
  "http://www.w3.org/Graphics/SVG/1.1/DTD/svg11.dtd">
<!-- Created with matplotlib (https://matplotlib.org/) -->
<svg height="345.6pt" version="1.1" viewBox="0 0 460.8 345.6" width="460.8pt" xmlns="http://www.w3.org/2000/svg" xmlns:xlink="http://www.w3.org/1999/xlink">
 <defs>
  <style type="text/css">
*{stroke-linecap:butt;stroke-linejoin:round;}
  </style>
 </defs>
 <g id="figure_1">
  <g id="patch_1">
   <path d="M 0 345.6 
L 460.8 345.6 
L 460.8 0 
L 0 0 
z
" style="fill:#ffffff;"/>
  </g>
  <g id="axes_1">
   <g id="patch_2">
    <path d="M 57.6 307.584 
L 414.72 307.584 
L 414.72 41.472 
L 57.6 41.472 
z
" style="fill:#ffffff;"/>
   </g>
   <g id="patch_3">
    <path clip-path="url(#p1777d159f9)" d="M 124.99346 307.584 
L 127.46564 307.584 
L 127.46564 305.698358 
L 124.99346 305.698358 
z
" style="fill:#1f77b4;"/>
   </g>
   <g id="patch_4">
    <path clip-path="url(#p1777d159f9)" d="M 127.46564 307.584 
L 129.937819 307.584 
L 129.937819 307.584 
L 127.46564 307.584 
z
" style="fill:#1f77b4;"/>
   </g>
   <g id="patch_5">
    <path clip-path="url(#p1777d159f9)" d="M 129.937819 307.584 
L 132.409999 307.584 
L 132.409999 307.584 
L 129.937819 307.584 
z
" style="fill:#1f77b4;"/>
   </g>
   <g id="patch_6">
    <path clip-path="url(#p1777d159f9)" d="M 132.409999 307.584 
L 134.882178 307.584 
L 134.882178 305.698358 
L 132.409999 305.698358 
z
" style="fill:#1f77b4;"/>
   </g>
   <g id="patch_7">
    <path clip-path="url(#p1777d159f9)" d="M 134.882178 307.584 
L 137.354358 307.584 
L 137.354358 303.812717 
L 134.882178 303.812717 
z
" style="fill:#1f77b4;"/>
   </g>
   <g id="patch_8">
    <path clip-path="url(#p1777d159f9)" d="M 137.354358 307.584 
L 139.826537 307.584 
L 139.826537 301.927075 
L 137.354358 301.927075 
z
" style="fill:#1f77b4;"/>
   </g>
   <g id="patch_9">
    <path clip-path="url(#p1777d159f9)" d="M 139.826537 307.584 
L 142.298717 307.584 
L 142.298717 305.698358 
L 139.826537 305.698358 
z
" style="fill:#1f77b4;"/>
   </g>
   <g id="patch_10">
    <path clip-path="url(#p1777d159f9)" d="M 142.298717 307.584 
L 144.770896 307.584 
L 144.770896 301.927075 
L 142.298717 301.927075 
z
" style="fill:#1f77b4;"/>
   </g>
   <g id="patch_11">
    <path clip-path="url(#p1777d159f9)" d="M 144.770896 307.584 
L 147.243076 307.584 
L 147.243076 303.812717 
L 144.770896 303.812717 
z
" style="fill:#1f77b4;"/>
   </g>
   <g id="patch_12">
    <path clip-path="url(#p1777d159f9)" d="M 147.243076 307.584 
L 149.715256 307.584 
L 149.715256 303.812717 
L 147.243076 303.812717 
z
" style="fill:#1f77b4;"/>
   </g>
   <g id="patch_13">
    <path clip-path="url(#p1777d159f9)" d="M 149.715256 307.584 
L 152.187435 307.584 
L 152.187435 305.698358 
L 149.715256 305.698358 
z
" style="fill:#1f77b4;"/>
   </g>
   <g id="patch_14">
    <path clip-path="url(#p1777d159f9)" d="M 152.187435 307.584 
L 154.659615 307.584 
L 154.659615 305.698358 
L 152.187435 305.698358 
z
" style="fill:#1f77b4;"/>
   </g>
   <g id="patch_15">
    <path clip-path="url(#p1777d159f9)" d="M 154.659615 307.584 
L 157.131787 307.584 
L 157.131787 300.04141 
L 154.659615 300.04141 
z
" style="fill:#1f77b4;"/>
   </g>
   <g id="patch_16">
    <path clip-path="url(#p1777d159f9)" d="M 157.131787 307.584 
L 159.603966 307.584 
L 159.603966 303.812717 
L 157.131787 303.812717 
z
" style="fill:#1f77b4;"/>
   </g>
   <g id="patch_17">
    <path clip-path="url(#p1777d159f9)" d="M 159.603966 307.584 
L 162.076146 307.584 
L 162.076146 303.812717 
L 159.603966 303.812717 
z
" style="fill:#1f77b4;"/>
   </g>
   <g id="patch_18">
    <path clip-path="url(#p1777d159f9)" d="M 162.076146 307.584 
L 164.548325 307.584 
L 164.548325 301.927075 
L 162.076146 301.927075 
z
" style="fill:#1f77b4;"/>
   </g>
   <g id="patch_19">
    <path clip-path="url(#p1777d159f9)" d="M 164.548325 307.584 
L 167.020505 307.584 
L 167.020505 301.927075 
L 164.548325 301.927075 
z
" style="fill:#1f77b4;"/>
   </g>
   <g id="patch_20">
    <path clip-path="url(#p1777d159f9)" d="M 167.020505 307.584 
L 169.492684 307.584 
L 169.492684 296.270151 
L 167.020505 296.270151 
z
" style="fill:#1f77b4;"/>
   </g>
   <g id="patch_21">
    <path clip-path="url(#p1777d159f9)" d="M 169.492684 307.584 
L 171.964864 307.584 
L 171.964864 286.841943 
L 169.492684 286.841943 
z
" style="fill:#1f77b4;"/>
   </g>
   <g id="patch_22">
    <path clip-path="url(#p1777d159f9)" d="M 171.964864 307.584 
L 174.437043 307.584 
L 174.437043 301.927075 
L 171.964864 301.927075 
z
" style="fill:#1f77b4;"/>
   </g>
   <g id="patch_23">
    <path clip-path="url(#p1777d159f9)" d="M 174.437043 307.584 
L 176.909223 307.584 
L 176.909223 288.727585 
L 174.437043 288.727585 
z
" style="fill:#1f77b4;"/>
   </g>
   <g id="patch_24">
    <path clip-path="url(#p1777d159f9)" d="M 176.909223 307.584 
L 179.381403 307.584 
L 179.381403 279.299377 
L 176.909223 279.299377 
z
" style="fill:#1f77b4;"/>
   </g>
   <g id="patch_25">
    <path clip-path="url(#p1777d159f9)" d="M 179.381403 307.584 
L 181.853582 307.584 
L 181.853582 281.185019 
L 179.381403 281.185019 
z
" style="fill:#1f77b4;"/>
   </g>
   <g id="patch_26">
    <path clip-path="url(#p1777d159f9)" d="M 181.853582 307.584 
L 184.325762 307.584 
L 184.325762 252.900396 
L 181.853582 252.900396 
z
" style="fill:#1f77b4;"/>
   </g>
   <g id="patch_27">
    <path clip-path="url(#p1777d159f9)" d="M 184.325762 307.584 
L 186.797941 307.584 
L 186.797941 266.099887 
L 184.325762 266.099887 
z
" style="fill:#1f77b4;"/>
   </g>
   <g id="patch_28">
    <path clip-path="url(#p1777d159f9)" d="M 186.797941 307.584 
L 189.270121 307.584 
L 189.270121 283.07066 
L 186.797941 283.07066 
z
" style="fill:#1f77b4;"/>
   </g>
   <g id="patch_29">
    <path clip-path="url(#p1777d159f9)" d="M 189.270121 307.584 
L 191.7423 307.584 
L 191.7423 277.413736 
L 189.270121 277.413736 
z
" style="fill:#1f77b4;"/>
   </g>
   <g id="patch_30">
    <path clip-path="url(#p1777d159f9)" d="M 191.7423 307.584 
L 194.21448 307.584 
L 194.21448 266.099887 
L 191.7423 266.099887 
z
" style="fill:#1f77b4;"/>
   </g>
   <g id="patch_31">
    <path clip-path="url(#p1777d159f9)" d="M 194.21448 307.584 
L 196.686659 307.584 
L 196.686659 258.557321 
L 194.21448 258.557321 
z
" style="fill:#1f77b4;"/>
   </g>
   <g id="patch_32">
    <path clip-path="url(#p1777d159f9)" d="M 196.686659 307.584 
L 199.158839 307.584 
L 199.158839 254.786038 
L 196.686659 254.786038 
z
" style="fill:#1f77b4;"/>
   </g>
   <g id="patch_33">
    <path clip-path="url(#p1777d159f9)" d="M 199.158839 307.584 
L 201.631019 307.584 
L 201.631019 258.557321 
L 199.158839 258.557321 
z
" style="fill:#1f77b4;"/>
   </g>
   <g id="patch_34">
    <path clip-path="url(#p1777d159f9)" d="M 201.631019 307.584 
L 204.103196 307.584 
L 204.103196 260.442925 
L 201.631019 260.442925 
z
" style="fill:#1f77b4;"/>
   </g>
   <g id="patch_35">
    <path clip-path="url(#p1777d159f9)" d="M 204.103196 307.584 
L 206.575376 307.584 
L 206.575376 243.472189 
L 204.103196 243.472189 
z
" style="fill:#1f77b4;"/>
   </g>
   <g id="patch_36">
    <path clip-path="url(#p1777d159f9)" d="M 206.575376 307.584 
L 209.047555 307.584 
L 209.047555 235.929623 
L 206.575376 235.929623 
z
" style="fill:#1f77b4;"/>
   </g>
   <g id="patch_37">
    <path clip-path="url(#p1777d159f9)" d="M 209.047553 307.584 
L 211.519731 307.584 
L 211.519731 260.442925 
L 209.047553 260.442925 
z
" style="fill:#1f77b4;"/>
   </g>
   <g id="patch_38">
    <path clip-path="url(#p1777d159f9)" d="M 211.519733 307.584 
L 213.991913 307.584 
L 213.991913 256.671679 
L 211.519733 256.671679 
z
" style="fill:#1f77b4;"/>
   </g>
   <g id="patch_39">
    <path clip-path="url(#p1777d159f9)" d="M 213.991913 307.584 
L 216.464092 307.584 
L 216.464092 264.214245 
L 213.991913 264.214245 
z
" style="fill:#1f77b4;"/>
   </g>
   <g id="patch_40">
    <path clip-path="url(#p1777d159f9)" d="M 216.464092 307.584 
L 218.936272 307.584 
L 218.936272 254.786038 
L 216.464092 254.786038 
z
" style="fill:#1f77b4;"/>
   </g>
   <g id="patch_41">
    <path clip-path="url(#p1777d159f9)" d="M 218.936272 307.584 
L 221.408451 307.584 
L 221.408451 224.615773 
L 218.936272 224.615773 
z
" style="fill:#1f77b4;"/>
   </g>
   <g id="patch_42">
    <path clip-path="url(#p1777d159f9)" d="M 221.408451 307.584 
L 223.88063 307.584 
L 223.88063 232.15831 
L 221.408451 232.15831 
z
" style="fill:#1f77b4;"/>
   </g>
   <g id="patch_43">
    <path clip-path="url(#p1777d159f9)" d="M 223.88063 307.584 
L 226.352809 307.584 
L 226.352809 249.129113 
L 223.88063 249.129113 
z
" style="fill:#1f77b4;"/>
   </g>
   <g id="patch_44">
    <path clip-path="url(#p1777d159f9)" d="M 226.352809 307.584 
L 228.824988 307.584 
L 228.824988 218.958832 
L 226.352809 218.958832 
z
" style="fill:#1f77b4;"/>
   </g>
   <g id="patch_45">
    <path clip-path="url(#p1777d159f9)" d="M 228.824988 307.584 
L 231.297167 307.584 
L 231.297167 234.043967 
L 228.824988 234.043967 
z
" style="fill:#1f77b4;"/>
   </g>
   <g id="patch_46">
    <path clip-path="url(#p1777d159f9)" d="M 231.297168 307.584 
L 233.769347 307.584 
L 233.769347 175.589094 
L 231.297168 175.589094 
z
" style="fill:#1f77b4;"/>
   </g>
   <g id="patch_47">
    <path clip-path="url(#p1777d159f9)" d="M 233.769347 307.584 
L 236.241526 307.584 
L 236.241526 109.591602 
L 233.769347 109.591602 
z
" style="fill:#1f77b4;"/>
   </g>
   <g id="patch_48">
    <path clip-path="url(#p1777d159f9)" d="M 236.241526 307.584 
L 238.713706 307.584 
L 238.713706 177.474723 
L 236.241526 177.474723 
z
" style="fill:#1f77b4;"/>
   </g>
   <g id="patch_49">
    <path clip-path="url(#p1777d159f9)" d="M 238.713705 307.584 
L 241.185885 307.584 
L 241.185885 188.788573 
L 238.713705 188.788573 
z
" style="fill:#1f77b4;"/>
   </g>
   <g id="patch_50">
    <path clip-path="url(#p1777d159f9)" d="M 241.185885 307.584 
L 243.658064 307.584 
L 243.658064 203.873697 
L 241.185885 203.873697 
z
" style="fill:#1f77b4;"/>
   </g>
   <g id="patch_51">
    <path clip-path="url(#p1777d159f9)" d="M 243.658063 307.584 
L 246.130243 307.584 
L 246.130243 228.387041 
L 243.658063 228.387041 
z
" style="fill:#1f77b4;"/>
   </g>
   <g id="patch_52">
    <path clip-path="url(#p1777d159f9)" d="M 246.130243 307.584 
L 248.602423 307.584 
L 248.602423 211.416283 
L 246.130243 211.416283 
z
" style="fill:#1f77b4;"/>
   </g>
   <g id="patch_53">
    <path clip-path="url(#p1777d159f9)" d="M 248.602423 307.584 
L 251.074602 307.584 
L 251.074602 209.530641 
L 248.602423 209.530641 
z
" style="fill:#1f77b4;"/>
   </g>
   <g id="patch_54">
    <path clip-path="url(#p1777d159f9)" d="M 251.074602 307.584 
L 253.546782 307.584 
L 253.546782 194.445509 
L 251.074602 194.445509 
z
" style="fill:#1f77b4;"/>
   </g>
   <g id="patch_55">
    <path clip-path="url(#p1777d159f9)" d="M 253.546782 307.584 
L 256.018961 307.584 
L 256.018961 188.788585 
L 253.546782 188.788585 
z
" style="fill:#1f77b4;"/>
   </g>
   <g id="patch_56">
    <path clip-path="url(#p1777d159f9)" d="M 256.018961 307.584 
L 258.491139 307.584 
L 258.491139 188.788492 
L 256.018961 188.788492 
z
" style="fill:#1f77b4;"/>
   </g>
   <g id="patch_57">
    <path clip-path="url(#p1777d159f9)" d="M 258.491139 307.584 
L 260.963318 307.584 
L 260.963318 171.817811 
L 258.491139 171.817811 
z
" style="fill:#1f77b4;"/>
   </g>
   <g id="patch_58">
    <path clip-path="url(#p1777d159f9)" d="M 260.963318 307.584 
L 263.435498 307.584 
L 263.435498 190.674226 
L 260.963318 190.674226 
z
" style="fill:#1f77b4;"/>
   </g>
   <g id="patch_59">
    <path clip-path="url(#p1777d159f9)" d="M 263.435498 307.584 
L 265.907678 307.584 
L 265.907678 201.988075 
L 263.435498 201.988075 
z
" style="fill:#1f77b4;"/>
   </g>
   <g id="patch_60">
    <path clip-path="url(#p1777d159f9)" d="M 265.907678 307.584 
L 268.379857 307.584 
L 268.379857 230.272698 
L 265.907678 230.272698 
z
" style="fill:#1f77b4;"/>
   </g>
   <g id="patch_61">
    <path clip-path="url(#p1777d159f9)" d="M 268.379855 307.584 
L 270.852031 307.584 
L 270.852031 232.15828 
L 268.379855 232.15828 
z
" style="fill:#1f77b4;"/>
   </g>
   <g id="patch_62">
    <path clip-path="url(#p1777d159f9)" d="M 270.852035 307.584 
L 273.324214 307.584 
L 273.324214 224.615773 
L 270.852035 224.615773 
z
" style="fill:#1f77b4;"/>
   </g>
   <g id="patch_63">
    <path clip-path="url(#p1777d159f9)" d="M 273.324214 307.584 
L 275.796394 307.584 
L 275.796394 226.501415 
L 273.324214 226.501415 
z
" style="fill:#1f77b4;"/>
   </g>
   <g id="patch_64">
    <path clip-path="url(#p1777d159f9)" d="M 275.796394 307.584 
L 278.268573 307.584 
L 278.268573 260.442962 
L 275.796394 260.442962 
z
" style="fill:#1f77b4;"/>
   </g>
   <g id="patch_65">
    <path clip-path="url(#p1777d159f9)" d="M 278.268573 307.584 
L 280.740753 307.584 
L 280.740753 245.35783 
L 278.268573 245.35783 
z
" style="fill:#1f77b4;"/>
   </g>
   <g id="patch_66">
    <path clip-path="url(#p1777d159f9)" d="M 280.740753 307.584 
L 283.212933 307.584 
L 283.212933 243.472189 
L 280.740753 243.472189 
z
" style="fill:#1f77b4;"/>
   </g>
   <g id="patch_67">
    <path clip-path="url(#p1777d159f9)" d="M 283.212933 307.584 
L 285.685112 307.584 
L 285.685112 230.272698 
L 283.212933 230.272698 
z
" style="fill:#1f77b4;"/>
   </g>
   <g id="patch_68">
    <path clip-path="url(#p1777d159f9)" d="M 285.685112 307.584 
L 288.157292 307.584 
L 288.157292 239.700906 
L 285.685112 239.700906 
z
" style="fill:#1f77b4;"/>
   </g>
   <g id="patch_69">
    <path clip-path="url(#p1777d159f9)" d="M 288.157292 307.584 
L 290.629471 307.584 
L 290.629471 264.214245 
L 288.157292 264.214245 
z
" style="fill:#1f77b4;"/>
   </g>
   <g id="patch_70">
    <path clip-path="url(#p1777d159f9)" d="M 290.629471 307.584 
L 293.101651 307.584 
L 293.101651 260.442962 
L 290.629471 260.442962 
z
" style="fill:#1f77b4;"/>
   </g>
   <g id="patch_71">
    <path clip-path="url(#p1777d159f9)" d="M 293.101647 307.584 
L 295.573823 307.584 
L 295.573823 267.985466 
L 293.101647 267.985466 
z
" style="fill:#1f77b4;"/>
   </g>
   <g id="patch_72">
    <path clip-path="url(#p1777d159f9)" d="M 295.573826 307.584 
L 298.046006 307.584 
L 298.046006 256.671679 
L 295.573826 256.671679 
z
" style="fill:#1f77b4;"/>
   </g>
   <g id="patch_73">
    <path clip-path="url(#p1777d159f9)" d="M 298.046006 307.584 
L 300.518186 307.584 
L 300.518186 264.214245 
L 298.046006 264.214245 
z
" style="fill:#1f77b4;"/>
   </g>
   <g id="patch_74">
    <path clip-path="url(#p1777d159f9)" d="M 300.518186 307.584 
L 302.990365 307.584 
L 302.990365 251.014755 
L 300.518186 251.014755 
z
" style="fill:#1f77b4;"/>
   </g>
   <g id="patch_75">
    <path clip-path="url(#p1777d159f9)" d="M 302.990365 307.584 
L 305.462545 307.584 
L 305.462545 256.671679 
L 302.990365 256.671679 
z
" style="fill:#1f77b4;"/>
   </g>
   <g id="patch_76">
    <path clip-path="url(#p1777d159f9)" d="M 305.462545 307.584 
L 307.934724 307.584 
L 307.934724 256.671679 
L 305.462545 256.671679 
z
" style="fill:#1f77b4;"/>
   </g>
   <g id="patch_77">
    <path clip-path="url(#p1777d159f9)" d="M 307.934724 307.584 
L 310.406904 307.584 
L 310.406904 258.557321 
L 307.934724 258.557321 
z
" style="fill:#1f77b4;"/>
   </g>
   <g id="patch_78">
    <path clip-path="url(#p1777d159f9)" d="M 310.406904 307.584 
L 312.879083 307.584 
L 312.879083 267.985528 
L 310.406904 267.985528 
z
" style="fill:#1f77b4;"/>
   </g>
   <g id="patch_79">
    <path clip-path="url(#p1777d159f9)" d="M 312.879083 307.584 
L 315.351263 307.584 
L 315.351263 273.642453 
L 312.879083 273.642453 
z
" style="fill:#1f77b4;"/>
   </g>
   <g id="patch_80">
    <path clip-path="url(#p1777d159f9)" d="M 315.351263 307.584 
L 317.823443 307.584 
L 317.823443 249.129113 
L 315.351263 249.129113 
z
" style="fill:#1f77b4;"/>
   </g>
   <g id="patch_81">
    <path clip-path="url(#p1777d159f9)" d="M 317.823443 307.584 
L 320.295622 307.584 
L 320.295622 262.328604 
L 317.823443 262.328604 
z
" style="fill:#1f77b4;"/>
   </g>
   <g id="patch_82">
    <path clip-path="url(#p1777d159f9)" d="M 320.295622 307.584 
L 322.767802 307.584 
L 322.767802 241.586547 
L 320.295622 241.586547 
z
" style="fill:#1f77b4;"/>
   </g>
   <g id="patch_83">
    <path clip-path="url(#p1777d159f9)" d="M 322.767802 307.584 
L 325.239981 307.584 
L 325.239981 269.87117 
L 322.767802 269.87117 
z
" style="fill:#1f77b4;"/>
   </g>
   <g id="patch_84">
    <path clip-path="url(#p1777d159f9)" d="M 325.239981 307.584 
L 327.712161 307.584 
L 327.712161 251.014755 
L 325.239981 251.014755 
z
" style="fill:#1f77b4;"/>
   </g>
   <g id="patch_85">
    <path clip-path="url(#p1777d159f9)" d="M 327.712161 307.584 
L 330.18434 307.584 
L 330.18434 266.099887 
L 327.712161 266.099887 
z
" style="fill:#1f77b4;"/>
   </g>
   <g id="patch_86">
    <path clip-path="url(#p1777d159f9)" d="M 330.18434 307.584 
L 332.65652 307.584 
L 332.65652 279.299377 
L 330.18434 279.299377 
z
" style="fill:#1f77b4;"/>
   </g>
   <g id="patch_87">
    <path clip-path="url(#p1777d159f9)" d="M 332.65652 307.584 
L 335.128699 307.584 
L 335.128699 281.185019 
L 332.65652 281.185019 
z
" style="fill:#1f77b4;"/>
   </g>
   <g id="patch_88">
    <path clip-path="url(#p1777d159f9)" d="M 335.128699 307.584 
L 337.600879 307.584 
L 337.600879 269.87117 
L 335.128699 269.87117 
z
" style="fill:#1f77b4;"/>
   </g>
   <g id="patch_89">
    <path clip-path="url(#p1777d159f9)" d="M 337.600879 307.584 
L 340.073059 307.584 
L 340.073059 266.099887 
L 337.600879 266.099887 
z
" style="fill:#1f77b4;"/>
   </g>
   <g id="patch_90">
    <path clip-path="url(#p1777d159f9)" d="M 340.073051 307.584 
L 342.545223 307.584 
L 342.545223 279.299289 
L 340.073051 279.299289 
z
" style="fill:#1f77b4;"/>
   </g>
   <g id="patch_91">
    <path clip-path="url(#p1777d159f9)" d="M 342.54523 307.584 
L 345.01741 307.584 
L 345.01741 277.413736 
L 342.54523 277.413736 
z
" style="fill:#1f77b4;"/>
   </g>
   <g id="patch_92">
    <path clip-path="url(#p1777d159f9)" d="M 345.01741 307.584 
L 347.489589 307.584 
L 347.489589 279.299377 
L 345.01741 279.299377 
z
" style="fill:#1f77b4;"/>
   </g>
   <g id="patch_93">
    <path clip-path="url(#p1777d159f9)" d="M 347.489589 307.584 
L 349.961769 307.584 
L 349.961769 290.613226 
L 347.489589 290.613226 
z
" style="fill:#1f77b4;"/>
   </g>
   <g id="patch_94">
    <path clip-path="url(#p1777d159f9)" d="M 349.961769 307.584 
L 352.433949 307.584 
L 352.433949 284.956302 
L 349.961769 284.956302 
z
" style="fill:#1f77b4;"/>
   </g>
   <g id="patch_95">
    <path clip-path="url(#p1777d159f9)" d="M 352.433949 307.584 
L 354.906128 307.584 
L 354.906128 294.384509 
L 352.433949 294.384509 
z
" style="fill:#1f77b4;"/>
   </g>
   <g id="patch_96">
    <path clip-path="url(#p1777d159f9)" d="M 354.906128 307.584 
L 357.378308 307.584 
L 357.378308 294.384509 
L 354.906128 294.384509 
z
" style="fill:#1f77b4;"/>
   </g>
   <g id="patch_97">
    <path clip-path="url(#p1777d159f9)" d="M 357.378308 307.584 
L 359.850487 307.584 
L 359.850487 294.384509 
L 357.378308 294.384509 
z
" style="fill:#1f77b4;"/>
   </g>
   <g id="patch_98">
    <path clip-path="url(#p1777d159f9)" d="M 359.850487 307.584 
L 362.322667 307.584 
L 362.322667 298.155792 
L 359.850487 298.155792 
z
" style="fill:#1f77b4;"/>
   </g>
   <g id="patch_99">
    <path clip-path="url(#p1777d159f9)" d="M 362.322667 307.584 
L 364.794846 307.584 
L 364.794846 298.155792 
L 362.322667 298.155792 
z
" style="fill:#1f77b4;"/>
   </g>
   <g id="patch_100">
    <path clip-path="url(#p1777d159f9)" d="M 364.794846 307.584 
L 367.267026 307.584 
L 367.267026 300.041434 
L 364.794846 300.041434 
z
" style="fill:#1f77b4;"/>
   </g>
   <g id="patch_101">
    <path clip-path="url(#p1777d159f9)" d="M 367.267026 307.584 
L 369.739206 307.584 
L 369.739206 305.698358 
L 367.267026 305.698358 
z
" style="fill:#1f77b4;"/>
   </g>
   <g id="patch_102">
    <path clip-path="url(#p1777d159f9)" d="M 369.739206 307.584 
L 372.211385 307.584 
L 372.211385 301.927075 
L 369.739206 301.927075 
z
" style="fill:#1f77b4;"/>
   </g>
   <g id="matplotlib.axis_1">
    <g id="xtick_1">
     <g id="line2d_1">
      <defs>
       <path d="M 0 0 
L 0 3.5 
" id="md1812c34ba" style="stroke:#000000;stroke-width:0.8;"/>
      </defs>
      <g>
       <use style="stroke:#000000;stroke-width:0.8;" x="106.304676" xlink:href="#md1812c34ba" y="307.584"/>
      </g>
     </g>
     <g id="text_1">
      <!-- −2 -->
      <defs>
       <path d="M 10.59375 35.5 
L 73.1875 35.5 
L 73.1875 27.203125 
L 10.59375 27.203125 
z
" id="DejaVuSans-8722"/>
       <path d="M 19.1875 8.296875 
L 53.609375 8.296875 
L 53.609375 0 
L 7.328125 0 
L 7.328125 8.296875 
Q 12.9375 14.109375 22.625 23.890625 
Q 32.328125 33.6875 34.8125 36.53125 
Q 39.546875 41.84375 41.421875 45.53125 
Q 43.3125 49.21875 43.3125 52.78125 
Q 43.3125 58.59375 39.234375 62.25 
Q 35.15625 65.921875 28.609375 65.921875 
Q 23.96875 65.921875 18.8125 64.3125 
Q 13.671875 62.703125 7.8125 59.421875 
L 7.8125 69.390625 
Q 13.765625 71.78125 18.9375 73 
Q 24.125 74.21875 28.421875 74.21875 
Q 39.75 74.21875 46.484375 68.546875 
Q 53.21875 62.890625 53.21875 53.421875 
Q 53.21875 48.921875 51.53125 44.890625 
Q 49.859375 40.875 45.40625 35.40625 
Q 44.1875 33.984375 37.640625 27.21875 
Q 31.109375 20.453125 19.1875 8.296875 
z
" id="DejaVuSans-50"/>
      </defs>
      <g transform="translate(93.773817 327.501344)scale(0.17 -0.17)">
       <use xlink:href="#DejaVuSans-8722"/>
       <use x="83.789062" xlink:href="#DejaVuSans-50"/>
      </g>
     </g>
    </g>
    <g id="xtick_2">
     <g id="line2d_2">
      <g>
       <use style="stroke:#000000;stroke-width:0.8;" x="171.248574" xlink:href="#md1812c34ba" y="307.584"/>
      </g>
     </g>
     <g id="text_2">
      <!-- −1 -->
      <defs>
       <path d="M 12.40625 8.296875 
L 28.515625 8.296875 
L 28.515625 63.921875 
L 10.984375 60.40625 
L 10.984375 69.390625 
L 28.421875 72.90625 
L 38.28125 72.90625 
L 38.28125 8.296875 
L 54.390625 8.296875 
L 54.390625 0 
L 12.40625 0 
z
" id="DejaVuSans-49"/>
      </defs>
      <g transform="translate(158.717715 327.501344)scale(0.17 -0.17)">
       <use xlink:href="#DejaVuSans-8722"/>
       <use x="83.789062" xlink:href="#DejaVuSans-49"/>
      </g>
     </g>
    </g>
    <g id="xtick_3">
     <g id="line2d_3">
      <g>
       <use style="stroke:#000000;stroke-width:0.8;" x="236.192472" xlink:href="#md1812c34ba" y="307.584"/>
      </g>
     </g>
     <g id="text_3">
      <!-- 0 -->
      <defs>
       <path d="M 31.78125 66.40625 
Q 24.171875 66.40625 20.328125 58.90625 
Q 16.5 51.421875 16.5 36.375 
Q 16.5 21.390625 20.328125 13.890625 
Q 24.171875 6.390625 31.78125 6.390625 
Q 39.453125 6.390625 43.28125 13.890625 
Q 47.125 21.390625 47.125 36.375 
Q 47.125 51.421875 43.28125 58.90625 
Q 39.453125 66.40625 31.78125 66.40625 
z
M 31.78125 74.21875 
Q 44.046875 74.21875 50.515625 64.515625 
Q 56.984375 54.828125 56.984375 36.375 
Q 56.984375 17.96875 50.515625 8.265625 
Q 44.046875 -1.421875 31.78125 -1.421875 
Q 19.53125 -1.421875 13.0625 8.265625 
Q 6.59375 17.96875 6.59375 36.375 
Q 6.59375 54.828125 13.0625 64.515625 
Q 19.53125 74.21875 31.78125 74.21875 
z
" id="DejaVuSans-48"/>
      </defs>
      <g transform="translate(230.784347 327.501344)scale(0.17 -0.17)">
       <use xlink:href="#DejaVuSans-48"/>
      </g>
     </g>
    </g>
    <g id="xtick_4">
     <g id="line2d_4">
      <g>
       <use style="stroke:#000000;stroke-width:0.8;" x="301.13637" xlink:href="#md1812c34ba" y="307.584"/>
      </g>
     </g>
     <g id="text_4">
      <!-- 1 -->
      <g transform="translate(295.728245 327.501344)scale(0.17 -0.17)">
       <use xlink:href="#DejaVuSans-49"/>
      </g>
     </g>
    </g>
    <g id="xtick_5">
     <g id="line2d_5">
      <g>
       <use style="stroke:#000000;stroke-width:0.8;" x="366.080268" xlink:href="#md1812c34ba" y="307.584"/>
      </g>
     </g>
     <g id="text_5">
      <!-- 2 -->
      <g transform="translate(360.672143 327.501344)scale(0.17 -0.17)">
       <use xlink:href="#DejaVuSans-50"/>
      </g>
     </g>
    </g>
    <g id="text_6">
     <!-- Position in Radian -->
     <defs>
      <path d="M 19.671875 64.796875 
L 19.671875 37.40625 
L 32.078125 37.40625 
Q 38.96875 37.40625 42.71875 40.96875 
Q 46.484375 44.53125 46.484375 51.125 
Q 46.484375 57.671875 42.71875 61.234375 
Q 38.96875 64.796875 32.078125 64.796875 
z
M 9.8125 72.90625 
L 32.078125 72.90625 
Q 44.34375 72.90625 50.609375 67.359375 
Q 56.890625 61.8125 56.890625 51.125 
Q 56.890625 40.328125 50.609375 34.8125 
Q 44.34375 29.296875 32.078125 29.296875 
L 19.671875 29.296875 
L 19.671875 0 
L 9.8125 0 
z
" id="DejaVuSans-80"/>
      <path d="M 30.609375 48.390625 
Q 23.390625 48.390625 19.1875 42.75 
Q 14.984375 37.109375 14.984375 27.296875 
Q 14.984375 17.484375 19.15625 11.84375 
Q 23.34375 6.203125 30.609375 6.203125 
Q 37.796875 6.203125 41.984375 11.859375 
Q 46.1875 17.53125 46.1875 27.296875 
Q 46.1875 37.015625 41.984375 42.703125 
Q 37.796875 48.390625 30.609375 48.390625 
z
M 30.609375 56 
Q 42.328125 56 49.015625 48.375 
Q 55.71875 40.765625 55.71875 27.296875 
Q 55.71875 13.875 49.015625 6.21875 
Q 42.328125 -1.421875 30.609375 -1.421875 
Q 18.84375 -1.421875 12.171875 6.21875 
Q 5.515625 13.875 5.515625 27.296875 
Q 5.515625 40.765625 12.171875 48.375 
Q 18.84375 56 30.609375 56 
z
" id="DejaVuSans-111"/>
      <path d="M 44.28125 53.078125 
L 44.28125 44.578125 
Q 40.484375 46.53125 36.375 47.5 
Q 32.28125 48.484375 27.875 48.484375 
Q 21.1875 48.484375 17.84375 46.4375 
Q 14.5 44.390625 14.5 40.28125 
Q 14.5 37.15625 16.890625 35.375 
Q 19.28125 33.59375 26.515625 31.984375 
L 29.59375 31.296875 
Q 39.15625 29.25 43.1875 25.515625 
Q 47.21875 21.78125 47.21875 15.09375 
Q 47.21875 7.46875 41.1875 3.015625 
Q 35.15625 -1.421875 24.609375 -1.421875 
Q 20.21875 -1.421875 15.453125 -0.5625 
Q 10.6875 0.296875 5.421875 2 
L 5.421875 11.28125 
Q 10.40625 8.6875 15.234375 7.390625 
Q 20.0625 6.109375 24.8125 6.109375 
Q 31.15625 6.109375 34.5625 8.28125 
Q 37.984375 10.453125 37.984375 14.40625 
Q 37.984375 18.0625 35.515625 20.015625 
Q 33.0625 21.96875 24.703125 23.78125 
L 21.578125 24.515625 
Q 13.234375 26.265625 9.515625 29.90625 
Q 5.8125 33.546875 5.8125 39.890625 
Q 5.8125 47.609375 11.28125 51.796875 
Q 16.75 56 26.8125 56 
Q 31.78125 56 36.171875 55.265625 
Q 40.578125 54.546875 44.28125 53.078125 
z
" id="DejaVuSans-115"/>
      <path d="M 9.421875 54.6875 
L 18.40625 54.6875 
L 18.40625 0 
L 9.421875 0 
z
M 9.421875 75.984375 
L 18.40625 75.984375 
L 18.40625 64.59375 
L 9.421875 64.59375 
z
" id="DejaVuSans-105"/>
      <path d="M 18.3125 70.21875 
L 18.3125 54.6875 
L 36.8125 54.6875 
L 36.8125 47.703125 
L 18.3125 47.703125 
L 18.3125 18.015625 
Q 18.3125 11.328125 20.140625 9.421875 
Q 21.96875 7.515625 27.59375 7.515625 
L 36.8125 7.515625 
L 36.8125 0 
L 27.59375 0 
Q 17.1875 0 13.234375 3.875 
Q 9.28125 7.765625 9.28125 18.015625 
L 9.28125 47.703125 
L 2.6875 47.703125 
L 2.6875 54.6875 
L 9.28125 54.6875 
L 9.28125 70.21875 
z
" id="DejaVuSans-116"/>
      <path d="M 54.890625 33.015625 
L 54.890625 0 
L 45.90625 0 
L 45.90625 32.71875 
Q 45.90625 40.484375 42.875 44.328125 
Q 39.84375 48.1875 33.796875 48.1875 
Q 26.515625 48.1875 22.3125 43.546875 
Q 18.109375 38.921875 18.109375 30.90625 
L 18.109375 0 
L 9.078125 0 
L 9.078125 54.6875 
L 18.109375 54.6875 
L 18.109375 46.1875 
Q 21.34375 51.125 25.703125 53.5625 
Q 30.078125 56 35.796875 56 
Q 45.21875 56 50.046875 50.171875 
Q 54.890625 44.34375 54.890625 33.015625 
z
" id="DejaVuSans-110"/>
      <path id="DejaVuSans-32"/>
      <path d="M 44.390625 34.1875 
Q 47.5625 33.109375 50.5625 29.59375 
Q 53.5625 26.078125 56.59375 19.921875 
L 66.609375 0 
L 56 0 
L 46.6875 18.703125 
Q 43.0625 26.03125 39.671875 28.421875 
Q 36.28125 30.8125 30.421875 30.8125 
L 19.671875 30.8125 
L 19.671875 0 
L 9.8125 0 
L 9.8125 72.90625 
L 32.078125 72.90625 
Q 44.578125 72.90625 50.734375 67.671875 
Q 56.890625 62.453125 56.890625 51.90625 
Q 56.890625 45.015625 53.6875 40.46875 
Q 50.484375 35.9375 44.390625 34.1875 
z
M 19.671875 64.796875 
L 19.671875 38.921875 
L 32.078125 38.921875 
Q 39.203125 38.921875 42.84375 42.21875 
Q 46.484375 45.515625 46.484375 51.90625 
Q 46.484375 58.296875 42.84375 61.546875 
Q 39.203125 64.796875 32.078125 64.796875 
z
" id="DejaVuSans-82"/>
      <path d="M 34.28125 27.484375 
Q 23.390625 27.484375 19.1875 25 
Q 14.984375 22.515625 14.984375 16.5 
Q 14.984375 11.71875 18.140625 8.90625 
Q 21.296875 6.109375 26.703125 6.109375 
Q 34.1875 6.109375 38.703125 11.40625 
Q 43.21875 16.703125 43.21875 25.484375 
L 43.21875 27.484375 
z
M 52.203125 31.203125 
L 52.203125 0 
L 43.21875 0 
L 43.21875 8.296875 
Q 40.140625 3.328125 35.546875 0.953125 
Q 30.953125 -1.421875 24.3125 -1.421875 
Q 15.921875 -1.421875 10.953125 3.296875 
Q 6 8.015625 6 15.921875 
Q 6 25.140625 12.171875 29.828125 
Q 18.359375 34.515625 30.609375 34.515625 
L 43.21875 34.515625 
L 43.21875 35.40625 
Q 43.21875 41.609375 39.140625 45 
Q 35.0625 48.390625 27.6875 48.390625 
Q 23 48.390625 18.546875 47.265625 
Q 14.109375 46.140625 10.015625 43.890625 
L 10.015625 52.203125 
Q 14.9375 54.109375 19.578125 55.046875 
Q 24.21875 56 28.609375 56 
Q 40.484375 56 46.34375 49.84375 
Q 52.203125 43.703125 52.203125 31.203125 
z
" id="DejaVuSans-97"/>
      <path d="M 45.40625 46.390625 
L 45.40625 75.984375 
L 54.390625 75.984375 
L 54.390625 0 
L 45.40625 0 
L 45.40625 8.203125 
Q 42.578125 3.328125 38.25 0.953125 
Q 33.9375 -1.421875 27.875 -1.421875 
Q 17.96875 -1.421875 11.734375 6.484375 
Q 5.515625 14.40625 5.515625 27.296875 
Q 5.515625 40.1875 11.734375 48.09375 
Q 17.96875 56 27.875 56 
Q 33.9375 56 38.25 53.625 
Q 42.578125 51.265625 45.40625 46.390625 
z
M 14.796875 27.296875 
Q 14.796875 17.390625 18.875 11.75 
Q 22.953125 6.109375 30.078125 6.109375 
Q 37.203125 6.109375 41.296875 11.75 
Q 45.40625 17.390625 45.40625 27.296875 
Q 45.40625 37.203125 41.296875 42.84375 
Q 37.203125 48.484375 30.078125 48.484375 
Q 22.953125 48.484375 18.875 42.84375 
Q 14.796875 37.203125 14.796875 27.296875 
z
" id="DejaVuSans-100"/>
     </defs>
     <g transform="translate(102.024844 357.832125)scale(0.3 -0.3)">
      <use xlink:href="#DejaVuSans-80"/>
      <use x="60.255859" xlink:href="#DejaVuSans-111"/>
      <use x="121.4375" xlink:href="#DejaVuSans-115"/>
      <use x="173.537109" xlink:href="#DejaVuSans-105"/>
      <use x="201.320312" xlink:href="#DejaVuSans-116"/>
      <use x="240.529297" xlink:href="#DejaVuSans-105"/>
      <use x="268.3125" xlink:href="#DejaVuSans-111"/>
      <use x="329.494141" xlink:href="#DejaVuSans-110"/>
      <use x="392.873047" xlink:href="#DejaVuSans-32"/>
      <use x="424.660156" xlink:href="#DejaVuSans-105"/>
      <use x="452.443359" xlink:href="#DejaVuSans-110"/>
      <use x="515.822266" xlink:href="#DejaVuSans-32"/>
      <use x="547.609375" xlink:href="#DejaVuSans-82"/>
      <use x="617.060547" xlink:href="#DejaVuSans-97"/>
      <use x="678.339844" xlink:href="#DejaVuSans-100"/>
      <use x="741.816406" xlink:href="#DejaVuSans-105"/>
      <use x="769.599609" xlink:href="#DejaVuSans-97"/>
      <use x="830.878906" xlink:href="#DejaVuSans-110"/>
     </g>
    </g>
   </g>
   <g id="matplotlib.axis_2">
    <g id="ytick_1">
     <g id="line2d_6">
      <defs>
       <path d="M 0 0 
L -3.5 0 
" id="m7fe338270c" style="stroke:#000000;stroke-width:0.8;"/>
      </defs>
      <g>
       <use style="stroke:#000000;stroke-width:0.8;" x="57.6" xlink:href="#m7fe338270c" y="307.584"/>
      </g>
     </g>
     <g id="text_7">
      <!-- 0.00 -->
      <defs>
       <path d="M 10.6875 12.40625 
L 21 12.40625 
L 21 0 
L 10.6875 0 
z
" id="DejaVuSans-46"/>
      </defs>
      <g transform="translate(12.748438 314.042672)scale(0.17 -0.17)">
       <use xlink:href="#DejaVuSans-48"/>
       <use x="63.623047" xlink:href="#DejaVuSans-46"/>
       <use x="95.410156" xlink:href="#DejaVuSans-48"/>
       <use x="159.033203" xlink:href="#DejaVuSans-48"/>
      </g>
     </g>
    </g>
    <g id="ytick_2">
     <g id="line2d_7">
      <g>
       <use style="stroke:#000000;stroke-width:0.8;" x="57.6" xlink:href="#m7fe338270c" y="262.721775"/>
      </g>
     </g>
     <g id="text_8">
      <!-- 0.25 -->
      <defs>
       <path d="M 10.796875 72.90625 
L 49.515625 72.90625 
L 49.515625 64.59375 
L 19.828125 64.59375 
L 19.828125 46.734375 
Q 21.96875 47.46875 24.109375 47.828125 
Q 26.265625 48.1875 28.421875 48.1875 
Q 40.625 48.1875 47.75 41.5 
Q 54.890625 34.8125 54.890625 23.390625 
Q 54.890625 11.625 47.5625 5.09375 
Q 40.234375 -1.421875 26.90625 -1.421875 
Q 22.3125 -1.421875 17.546875 -0.640625 
Q 12.796875 0.140625 7.71875 1.703125 
L 7.71875 11.625 
Q 12.109375 9.234375 16.796875 8.0625 
Q 21.484375 6.890625 26.703125 6.890625 
Q 35.15625 6.890625 40.078125 11.328125 
Q 45.015625 15.765625 45.015625 23.390625 
Q 45.015625 31 40.078125 35.4375 
Q 35.15625 39.890625 26.703125 39.890625 
Q 22.75 39.890625 18.8125 39.015625 
Q 14.890625 38.140625 10.796875 36.28125 
z
" id="DejaVuSans-53"/>
      </defs>
      <g transform="translate(12.748438 269.180447)scale(0.17 -0.17)">
       <use xlink:href="#DejaVuSans-48"/>
       <use x="63.623047" xlink:href="#DejaVuSans-46"/>
       <use x="95.410156" xlink:href="#DejaVuSans-50"/>
       <use x="159.033203" xlink:href="#DejaVuSans-53"/>
      </g>
     </g>
    </g>
    <g id="ytick_3">
     <g id="line2d_8">
      <g>
       <use style="stroke:#000000;stroke-width:0.8;" x="57.6" xlink:href="#m7fe338270c" y="217.85955"/>
      </g>
     </g>
     <g id="text_9">
      <!-- 0.50 -->
      <g transform="translate(12.748438 224.318222)scale(0.17 -0.17)">
       <use xlink:href="#DejaVuSans-48"/>
       <use x="63.623047" xlink:href="#DejaVuSans-46"/>
       <use x="95.410156" xlink:href="#DejaVuSans-53"/>
       <use x="159.033203" xlink:href="#DejaVuSans-48"/>
      </g>
     </g>
    </g>
    <g id="ytick_4">
     <g id="line2d_9">
      <g>
       <use style="stroke:#000000;stroke-width:0.8;" x="57.6" xlink:href="#m7fe338270c" y="172.997325"/>
      </g>
     </g>
     <g id="text_10">
      <!-- 0.75 -->
      <defs>
       <path d="M 8.203125 72.90625 
L 55.078125 72.90625 
L 55.078125 68.703125 
L 28.609375 0 
L 18.3125 0 
L 43.21875 64.59375 
L 8.203125 64.59375 
z
" id="DejaVuSans-55"/>
      </defs>
      <g transform="translate(12.748438 179.455997)scale(0.17 -0.17)">
       <use xlink:href="#DejaVuSans-48"/>
       <use x="63.623047" xlink:href="#DejaVuSans-46"/>
       <use x="95.410156" xlink:href="#DejaVuSans-55"/>
       <use x="159.033203" xlink:href="#DejaVuSans-53"/>
      </g>
     </g>
    </g>
    <g id="ytick_5">
     <g id="line2d_10">
      <g>
       <use style="stroke:#000000;stroke-width:0.8;" x="57.6" xlink:href="#m7fe338270c" y="128.1351"/>
      </g>
     </g>
     <g id="text_11">
      <!-- 1.00 -->
      <g transform="translate(12.748438 134.593772)scale(0.17 -0.17)">
       <use xlink:href="#DejaVuSans-49"/>
       <use x="63.623047" xlink:href="#DejaVuSans-46"/>
       <use x="95.410156" xlink:href="#DejaVuSans-48"/>
       <use x="159.033203" xlink:href="#DejaVuSans-48"/>
      </g>
     </g>
    </g>
    <g id="ytick_6">
     <g id="line2d_11">
      <g>
       <use style="stroke:#000000;stroke-width:0.8;" x="57.6" xlink:href="#m7fe338270c" y="83.272875"/>
      </g>
     </g>
     <g id="text_12">
      <!-- 1.25 -->
      <g transform="translate(12.748438 89.731547)scale(0.17 -0.17)">
       <use xlink:href="#DejaVuSans-49"/>
       <use x="63.623047" xlink:href="#DejaVuSans-46"/>
       <use x="95.410156" xlink:href="#DejaVuSans-50"/>
       <use x="159.033203" xlink:href="#DejaVuSans-53"/>
      </g>
     </g>
    </g>
    <g id="text_13">
     <!-- Density -->
     <defs>
      <path d="M 19.671875 64.796875 
L 19.671875 8.109375 
L 31.59375 8.109375 
Q 46.6875 8.109375 53.6875 14.9375 
Q 60.6875 21.78125 60.6875 36.53125 
Q 60.6875 51.171875 53.6875 57.984375 
Q 46.6875 64.796875 31.59375 64.796875 
z
M 9.8125 72.90625 
L 30.078125 72.90625 
Q 51.265625 72.90625 61.171875 64.09375 
Q 71.09375 55.28125 71.09375 36.53125 
Q 71.09375 17.671875 61.125 8.828125 
Q 51.171875 0 30.078125 0 
L 9.8125 0 
z
" id="DejaVuSans-68"/>
      <path d="M 56.203125 29.59375 
L 56.203125 25.203125 
L 14.890625 25.203125 
Q 15.484375 15.921875 20.484375 11.0625 
Q 25.484375 6.203125 34.421875 6.203125 
Q 39.59375 6.203125 44.453125 7.46875 
Q 49.3125 8.734375 54.109375 11.28125 
L 54.109375 2.78125 
Q 49.265625 0.734375 44.1875 -0.34375 
Q 39.109375 -1.421875 33.890625 -1.421875 
Q 20.796875 -1.421875 13.15625 6.1875 
Q 5.515625 13.8125 5.515625 26.8125 
Q 5.515625 40.234375 12.765625 48.109375 
Q 20.015625 56 32.328125 56 
Q 43.359375 56 49.78125 48.890625 
Q 56.203125 41.796875 56.203125 29.59375 
z
M 47.21875 32.234375 
Q 47.125 39.59375 43.09375 43.984375 
Q 39.0625 48.390625 32.421875 48.390625 
Q 24.90625 48.390625 20.390625 44.140625 
Q 15.875 39.890625 15.1875 32.171875 
z
" id="DejaVuSans-101"/>
      <path d="M 32.171875 -5.078125 
Q 28.375 -14.84375 24.75 -17.8125 
Q 21.140625 -20.796875 15.09375 -20.796875 
L 7.90625 -20.796875 
L 7.90625 -13.28125 
L 13.1875 -13.28125 
Q 16.890625 -13.28125 18.9375 -11.515625 
Q 21 -9.765625 23.484375 -3.21875 
L 25.09375 0.875 
L 2.984375 54.6875 
L 12.5 54.6875 
L 29.59375 11.921875 
L 46.6875 54.6875 
L 56.203125 54.6875 
z
" id="DejaVuSans-121"/>
     </defs>
     <g transform="translate(2.509375 231.553781)rotate(-90)scale(0.3 -0.3)">
      <use xlink:href="#DejaVuSans-68"/>
      <use x="77.001953" xlink:href="#DejaVuSans-101"/>
      <use x="138.525391" xlink:href="#DejaVuSans-110"/>
      <use x="201.904297" xlink:href="#DejaVuSans-115"/>
      <use x="254.003906" xlink:href="#DejaVuSans-105"/>
      <use x="281.787109" xlink:href="#DejaVuSans-116"/>
      <use x="320.996094" xlink:href="#DejaVuSans-121"/>
     </g>
    </g>
   </g>
   <g id="line2d_12">
    <path clip-path="url(#p1777d159f9)" d="M 73.832727 307.584 
L 123.319977 307.480471 
L 123.644697 307.252623 
L 123.969416 306.757944 
L 125.008519 304.72118 
L 125.20335 304.866123 
L 125.52807 305.543373 
L 126.242453 307.133433 
L 126.632116 307.465301 
L 127.151667 307.572549 
L 129.554592 307.584 
L 132.86673 307.481701 
L 133.19145 307.241455 
L 133.516169 306.671221 
L 133.905833 305.354379 
L 135.074823 300.605901 
L 135.204711 300.57998 
L 135.399542 300.856863 
L 135.724262 302.010611 
L 136.308757 304.130067 
L 136.438645 304.186423 
L 136.568533 304.010395 
L 136.828308 302.99376 
L 137.607635 299.217748 
L 137.737523 299.304091 
L 137.932354 299.980736 
L 138.322018 302.61488 
L 138.906513 306.205838 
L 139.231232 307.098709 
L 139.555952 307.433773 
L 139.880671 307.477854 
L 140.205391 307.316604 
L 140.53011 306.892025 
L 140.984718 305.822421 
L 141.439325 304.830473 
L 141.634157 304.707631 
L 141.828988 304.824607 
L 142.153708 305.394615 
L 142.543371 306.02041 
L 142.738203 306.044088 
L 142.933035 305.799352 
L 143.257754 304.836062 
L 144.621576 299.664384 
L 144.816408 299.645642 
L 145.011239 299.89858 
L 145.400903 300.911821 
L 146.050342 302.523264 
L 146.634837 303.358728 
L 146.959556 303.588283 
L 147.219332 303.497208 
L 147.544051 303.0184 
L 147.998659 302.369779 
L 148.19349 302.415475 
L 148.388322 302.743225 
L 148.713042 303.816672 
L 149.427424 306.35429 
L 149.6872 306.671629 
L 149.882032 306.625572 
L 150.141807 306.238663 
L 150.921134 304.730435 
L 151.115966 304.780838 
L 151.375741 305.20301 
L 152.3499 307.249779 
L 152.674619 307.386476 
L 152.934395 307.274528 
L 153.19417 306.91713 
L 153.51889 305.992699 
L 153.908553 304.080296 
L 154.68788 299.974725 
L 154.882712 299.671732 
L 155.0126 299.701578 
L 155.207431 300.024897 
L 155.85687 301.347022 
L 156.116646 301.355621 
L 156.376421 301.346837 
L 156.571253 301.566017 
L 156.831029 302.28337 
L 157.545412 304.513272 
L 157.740243 304.494662 
L 158.000019 304.001857 
L 158.649458 302.519397 
L 158.84429 302.52141 
L 159.104065 302.903116 
L 159.623616 303.85991 
L 159.818448 303.829057 
L 160.01328 303.481148 
L 160.727663 301.780952 
L 160.85755 301.893517 
L 161.052382 302.420917 
L 161.571933 304.893167 
L 161.961597 306.177298 
L 162.156428 306.350149 
L 162.35126 306.216665 
L 162.611036 305.667221 
L 163.390362 303.15131 
L 164.624296 299.381982 
L 164.819128 299.502175 
L 165.533511 300.423 
L 165.728343 300.139431 
L 166.118006 298.877108 
L 166.50767 297.834831 
L 166.702501 297.808585 
L 166.897333 298.201572 
L 167.222052 299.599132 
L 167.741604 301.718391 
L 167.871491 301.77551 
L 168.001379 301.533534 
L 168.196211 300.569032 
L 168.52093 297.494704 
L 169.560033 286.166433 
L 170.079584 283.836133 
L 170.404303 282.936607 
L 170.534191 282.883985 
L 170.664079 283.130552 
L 170.858911 284.191411 
L 171.18363 287.805868 
L 172.222733 301.534741 
L 172.547452 303.146878 
L 172.742284 303.413315 
L 172.872172 303.333901 
L 173.067003 302.882047 
L 173.391723 301.40311 
L 173.84633 298.071243 
L 174.820488 290.232602 
L 175.01532 290.079947 
L 175.210152 290.581714 
L 175.924535 293.331878 
L 176.054423 293.254726 
L 176.249254 292.698512 
L 176.638918 290.550798 
L 177.3533 285.133353 
L 178.392403 276.758596 
L 178.652178 276.227188 
L 178.782066 276.395401 
L 178.976898 277.184483 
L 179.366561 280.077316 
L 179.821169 282.968172 
L 180.016 283.183069 
L 180.145888 282.877326 
L 180.405664 281.253086 
L 180.860271 276.344432 
L 182.743644 254.68996 
L 183.00342 254.095023 
L 183.133307 254.210718 
L 183.328139 254.839962 
L 183.717802 257.274833 
L 184.237354 260.456909 
L 184.432185 260.789198 
L 184.562073 260.65495 
L 184.821849 259.72982 
L 185.211512 258.354565 
L 185.3414 258.4235 
L 185.536232 259.334312 
L 185.796007 262.039071 
L 186.900053 275.638719 
L 187.484549 281.435287 
L 188.0041 286.600786 
L 188.198931 287.222378 
L 188.328819 287.053855 
L 188.523651 285.99333 
L 189.302978 280.274178 
L 189.432865 280.446372 
L 189.627697 281.466157 
L 190.147248 284.644818 
L 190.212192 284.636771 
L 190.34208 284.160181 
L 190.536912 282.302672 
L 191.576014 269.230009 
L 191.900734 268.599682 
L 192.160509 267.974512 
L 192.485229 266.376854 
L 192.874892 264.601914 
L 193.00478 264.530292 
L 193.134668 264.867403 
L 193.329499 266.195851 
L 193.719163 271.169958 
L 194.238714 277.449931 
L 194.433546 278.070091 
L 194.563433 277.743067 
L 194.758265 276.142584 
L 195.082985 270.903549 
L 195.602536 257.854089 
L 196.446806 236.217166 
L 196.641638 234.871697 
L 196.706582 234.899091 
L 196.83647 235.621825 
L 197.096245 239.155759 
L 198.135348 255.774825 
L 198.979618 264.413888 
L 199.304338 265.993469 
L 199.434226 266.12366 
L 199.564114 265.94547 
L 199.758945 265.113306 
L 200.083665 262.449053 
L 200.992879 254.006009 
L 201.902094 249.543588 
L 202.031982 249.292422 
L 202.096926 249.317911 
L 202.226813 249.752631 
L 202.421645 251.49974 
L 202.811308 258.191875 
L 203.200972 264.204302 
L 203.395804 264.945079 
L 203.525691 264.407999 
L 203.785467 261.40441 
L 204.49985 252.003339 
L 205.279177 245.188011 
L 206.188391 235.1109 
L 206.83783 230.945838 
L 207.032662 230.651031 
L 207.16255 230.97918 
L 207.357381 232.301325 
L 207.876932 238.359941 
L 208.396484 243.036084 
L 208.851091 247.09415 
L 209.305698 253.562709 
L 209.955137 262.799646 
L 210.149969 263.685251 
L 210.214913 263.698574 
L 210.344801 263.32087 
L 210.604576 261.245369 
L 211.643679 251.051706 
L 211.773566 250.978592 
L 211.903454 251.383651 
L 212.16323 253.570573 
L 213.202332 264.989109 
L 213.462108 265.453307 
L 213.656939 265.308426 
L 213.981659 264.57494 
L 214.890873 262.23981 
L 215.085705 262.247429 
L 215.280537 262.564075 
L 215.929976 264.068192 
L 216.059864 263.884784 
L 216.254695 262.925365 
L 216.514471 260.182815 
L 217.423685 248.029576 
L 217.553573 247.955319 
L 217.748405 248.703189 
L 218.138068 250.453917 
L 218.203012 250.417735 
L 218.3329 249.874795 
L 218.527732 247.859895 
L 219.436946 235.825051 
L 219.566834 235.674508 
L 219.956497 235.86606 
L 220.086385 235.410792 
L 220.281217 233.726443 
L 220.67088 227.252828 
L 221.060544 221.351141 
L 221.255375 220.662584 
L 221.385263 221.282219 
L 221.645039 224.64978 
L 222.294478 234.439945 
L 222.554253 235.472753 
L 222.684141 235.451879 
L 223.073805 235.137701 
L 223.203692 235.432501 
L 223.398524 236.524687 
L 223.723244 239.918544 
L 224.567514 249.485708 
L 224.82729 250.452098 
L 224.892234 250.451594 
L 225.022122 250.10939 
L 225.216953 248.644892 
L 225.476729 244.802628 
L 226.645719 223.117605 
L 226.840551 222.562966 
L 227.035382 222.556418 
L 227.360102 222.654083 
L 227.944597 222.464278 
L 228.139429 223.081773 
L 228.399204 224.853369 
L 228.918755 230.537245 
L 229.50325 236.21833 
L 229.763026 237.117167 
L 229.892914 236.882856 
L 230.087746 235.373735 
L 230.347521 230.645541 
L 230.672241 219.674108 
L 231.841231 172.608309 
L 231.906175 172.317905 
L 231.971119 172.367987 
L 232.101006 173.386215 
L 232.360782 178.049672 
L 232.880333 187.78144 
L 233.075165 188.566442 
L 233.205053 187.95993 
L 233.464828 184.778116 
L 233.919436 179.516633 
L 233.984379 179.4058 
L 234.049323 179.514145 
L 234.179211 180.357867 
L 234.698762 185.851223 
L 234.763706 185.575185 
L 234.893594 183.372995 
L 235.088426 174.714865 
L 235.348201 151.448662 
L 236.257416 54.144 
L 236.32236 54.231476 
L 236.452248 58.569274 
L 236.712023 80.695078 
L 237.556294 164.528666 
L 237.881013 176.319034 
L 238.205733 181.030974 
L 238.530452 182.864186 
L 238.725284 183.241657 
L 238.855172 183.216359 
L 239.050003 182.759952 
L 239.699442 180.079704 
L 239.764386 180.101693 
L 239.894274 180.520267 
L 240.089106 182.194822 
L 240.413825 187.424985 
L 241.063264 197.979841 
L 241.452928 200.502284 
L 241.777647 202.564543 
L 242.81675 210.55946 
L 243.141469 211.816236 
L 243.401245 213.946573 
L 243.725964 218.617941 
L 244.765066 236.450708 
L 244.83001 236.494408 
L 244.959898 235.803935 
L 245.15473 232.806828 
L 245.544393 221.600234 
L 246.063944 207.922323 
L 246.258776 206.260527 
L 246.32372 206.191092 
L 246.453608 206.678799 
L 246.713383 209.379929 
L 247.297878 215.78466 
L 247.557654 216.622361 
L 247.687542 216.534992 
L 247.882374 215.874566 
L 248.272037 213.314519 
L 248.791588 210.123235 
L 249.051364 209.661841 
L 249.181252 209.773381 
L 249.376083 210.324261 
L 249.765747 212.404759 
L 250.220354 214.56515 
L 250.350242 214.582807 
L 250.480129 214.15103 
L 250.674961 212.541168 
L 250.999681 207.382696 
L 251.973839 189.303701 
L 252.168671 188.506074 
L 252.233615 188.527003 
L 252.363503 188.941192 
L 252.623278 190.820503 
L 253.142829 194.631522 
L 253.272717 194.788034 
L 253.402605 194.414213 
L 253.597437 192.762169 
L 253.922156 187.495879 
L 254.441707 179.255704 
L 254.571595 178.799093 
L 254.701483 179.298673 
L 254.896315 181.750769 
L 255.740585 195.337524 
L 255.870473 194.680425 
L 256.130249 190.683729 
L 256.779688 178.841784 
L 256.909575 178.480356 
L 257.039463 179.068959 
L 257.299239 182.600973 
L 257.948678 193.040743 
L 258.078566 193.322434 
L 258.208453 192.674333 
L 258.403285 190.074965 
L 259.377443 173.557507 
L 259.507331 173.468447 
L 259.702163 173.92787 
L 260.026882 174.659357 
L 260.15677 174.637629 
L 260.611378 174.185887 
L 260.741265 174.459662 
L 260.936097 175.503656 
L 261.32576 179.407638 
L 261.910256 185.072576 
L 262.624638 190.52955 
L 263.079246 197.250717 
L 263.728685 206.364644 
L 264.118348 209.006401 
L 264.378124 209.619301 
L 264.508011 209.60161 
L 264.702843 209.202309 
L 265.352282 207.052114 
L 265.417226 207.083708 
L 265.547114 207.443204 
L 265.741945 208.809063 
L 266.066665 213.213206 
L 266.716104 226.453424 
L 267.300599 236.728005 
L 267.560375 238.506525 
L 267.690262 238.572181 
L 267.82015 238.15945 
L 268.14487 235.845897 
L 268.729365 231.791959 
L 269.443748 228.665609 
L 269.703523 228.314483 
L 269.833411 228.418836 
L 270.158131 229.193241 
L 270.547794 230.026754 
L 270.872513 230.211956 
L 271.197233 230.139601 
L 271.457008 229.827824 
L 271.716784 228.981092 
L 272.041504 226.881978 
L 272.82083 221.301565 
L 272.950718 221.144777 
L 273.080606 221.346881 
L 273.275438 222.360089 
L 273.600157 225.910538 
L 274.379484 236.163895 
L 274.444428 236.296945 
L 274.509372 236.238456 
L 274.639259 235.560095 
L 274.899035 232.460171 
L 275.353642 227.289202 
L 275.418586 227.176123 
L 275.48353 227.293608 
L 275.613418 228.238981 
L 275.873194 232.671825 
L 276.97724 256.087945 
L 277.496791 261.774223 
L 277.756567 263.017715 
L 277.886454 263.03432 
L 278.016342 262.618155 
L 278.276118 260.575641 
L 278.665781 255.251448 
L 279.574996 241.716316 
L 279.834771 240.619166 
L 279.964659 240.778553 
L 280.159491 241.699212 
L 280.743986 245.068874 
L 280.938818 245.191553 
L 281.133649 244.698287 
L 281.523313 242.653928 
L 282.172752 239.425312 
L 282.562415 237.389306 
L 282.887135 234.375856 
L 283.666461 226.300562 
L 283.796349 226.033829 
L 283.861293 226.058513 
L 283.991181 226.383517 
L 284.3159 228.20032 
L 284.770508 230.591962 
L 285.030283 230.977629 
L 285.225115 230.828636 
L 285.549834 230.530116 
L 285.679722 230.724964 
L 285.874554 231.664764 
L 286.199273 235.080179 
L 286.9786 244.438125 
L 287.628039 249.932943 
L 288.082646 256.94197 
L 288.797029 267.721134 
L 289.056805 269.077732 
L 289.186693 269.092543 
L 289.381524 268.464571 
L 291.070066 260.249647 
L 291.199953 260.217481 
L 291.329841 260.488895 
L 291.654561 262.061025 
L 292.044224 263.58768 
L 292.239056 263.685813 
L 292.693663 263.521648 
L 292.953439 263.992087 
L 293.278158 264.491827 
L 293.408046 264.312579 
L 293.602878 263.451764 
L 294.317261 259.119714 
L 294.447148 259.306621 
L 294.706924 260.720816 
L 295.096587 262.820953 
L 295.226475 262.791725 
L 295.356363 262.250014 
L 295.616139 259.848833 
L 296.200634 253.903199 
L 296.330521 253.612615 
L 296.460409 253.888447 
L 296.655241 255.326913 
L 297.044904 260.7997 
L 297.629399 268.893707 
L 297.954119 270.659113 
L 298.084007 270.752682 
L 298.213894 270.540983 
L 298.408726 269.719581 
L 298.733446 267.202196 
L 299.317941 260.252256 
L 300.292099 248.951938 
L 300.551875 247.594212 
L 300.681763 247.519564 
L 300.81165 247.884964 
L 301.071426 249.777476 
L 301.98064 258.234652 
L 302.175472 258.560255 
L 302.30536 258.322537 
L 302.500192 257.306675 
L 302.889855 253.585826 
L 303.344462 249.466527 
L 303.539294 248.90102 
L 303.669182 249.119327 
L 303.864014 250.353401 
L 304.318621 255.765921 
L 304.64334 258.459134 
L 304.773228 258.569985 
L 304.903116 258.037464 
L 305.162891 255.353554 
L 305.747387 248.863789 
L 305.81233 248.751791 
L 305.877274 248.828025 
L 306.007162 249.555203 
L 306.266938 253.09263 
L 307.30604 271.209025 
L 307.565816 272.14175 
L 307.695704 272.018611 
L 307.890535 271.231525 
L 308.215255 268.714196 
L 309.64402 255.800777 
L 309.838852 255.588157 
L 309.96874 255.713811 
L 310.228516 256.417001 
L 310.942898 259.369517 
L 311.267618 261.472717 
L 311.657281 265.635029 
L 312.566496 276.182541 
L 312.761328 276.688016 
L 312.891215 276.541622 
L 313.086047 275.700803 
L 313.605598 271.732446 
L 313.995262 269.493727 
L 314.319981 268.787716 
L 314.644701 268.67252 
L 314.904476 268.499059 
L 315.099308 268.072793 
L 315.359083 266.92363 
L 315.748747 264.034196 
L 316.333242 258.005925 
L 317.372344 245.980742 
L 317.502232 245.876701 
L 317.63212 246.335826 
L 317.891895 248.664532 
L 318.541334 255.152944 
L 318.736166 255.62377 
L 318.930998 255.630205 
L 319.12583 255.657327 
L 319.320661 256.046014 
L 319.775269 257.456148 
L 319.840212 257.414112 
L 319.9701 256.907603 
L 320.164932 254.888148 
L 320.489651 248.46571 
L 321.009203 238.2486 
L 321.204034 237.193599 
L 321.268978 237.273235 
L 321.398866 238.010737 
L 321.723585 242.156474 
L 323.412127 270.333107 
L 323.80179 276.559778 
L 323.996622 277.380499 
L 324.12651 276.904607 
L 324.321341 274.794795 
L 324.775949 266.088585 
L 325.360444 255.775935 
L 325.750107 251.939145 
L 326.009883 250.848806 
L 326.204714 250.689763 
L 326.724266 250.924563 
L 326.919097 250.481019 
L 327.308761 248.65937 
L 327.63348 247.676821 
L 327.763368 247.831471 
L 327.9582 248.867495 
L 328.217975 251.795128 
L 328.672583 260.163273 
L 329.711685 280.817303 
L 330.036404 283.335333 
L 330.166292 283.529292 
L 330.29618 283.310309 
L 330.555956 281.91464 
L 331.530114 275.315619 
L 331.660002 275.302482 
L 331.854834 275.829961 
L 332.244497 278.040194 
L 332.764048 280.583836 
L 333.413487 283.365159 
L 333.80315 284.819752 
L 333.997982 284.905935 
L 334.192814 284.438701 
L 334.517533 282.671435 
L 335.231916 276.944383 
L 336.46585 266.195923 
L 336.79057 265.432135 
L 336.985401 265.362305 
L 337.180233 265.531459 
L 337.375065 265.994757 
L 337.63484 267.273005 
L 338.024504 270.827857 
L 338.544055 275.682968 
L 338.673943 276.021078 
L 338.738887 275.969999 
L 338.868774 275.384386 
L 339.063606 273.283431 
L 339.45327 265.86966 
L 339.907877 258.192401 
L 340.102709 257.422498 
L 340.232596 258.025128 
L 340.427428 260.517973 
L 340.817091 269.48279 
L 341.46653 284.44868 
L 341.79125 287.909634 
L 342.051025 288.77589 
L 342.180913 288.801155 
L 342.375745 288.547823 
L 342.700464 287.595072 
L 343.025184 285.689808 
L 343.414847 281.600898 
L 344.194174 273.004959 
L 344.45395 272.029573 
L 344.583837 271.954027 
L 344.713725 272.116932 
L 344.973501 273.062438 
L 345.363164 275.74809 
L 346.012603 280.397964 
L 346.207435 280.724709 
L 346.337323 280.582714 
L 346.597098 279.70425 
L 346.986762 278.379996 
L 347.11665 278.321394 
L 347.246537 278.565215 
L 347.441369 279.558351 
L 347.766088 282.809613 
L 348.805191 295.153201 
L 349.064966 295.880222 
L 349.194854 295.849033 
L 349.389686 295.402814 
L 349.649462 294.156435 
L 350.039125 290.865074 
L 351.078227 280.468098 
L 351.208115 280.490916 
L 351.402947 281.331029 
L 351.79261 284.78747 
L 352.247217 288.325887 
L 352.571937 289.390812 
L 353.026544 290.536344 
L 353.351264 292.240223 
L 354.390366 298.352524 
L 354.650142 298.81491 
L 354.780029 298.737806 
L 354.974861 298.159862 
L 355.234637 296.521184 
L 356.143851 289.704748 
L 356.273739 289.677439 
L 356.403627 289.992537 
L 356.663402 291.433044 
L 357.572617 297.292436 
L 357.96228 298.327731 
L 358.157112 298.400489 
L 358.351944 298.093383 
L 358.611719 297.117668 
L 359.196215 294.778385 
L 359.326102 294.76555 
L 359.45599 295.037654 
L 359.715766 296.353376 
L 360.62498 301.955322 
L 360.754868 301.985679 
L 360.884756 301.701958 
L 361.144531 300.234418 
L 362.11869 292.974724 
L 362.248578 292.891585 
L 362.378466 293.054642 
L 362.638241 293.886019 
L 363.352624 296.399885 
L 363.872175 297.820667 
L 364.391726 300.280153 
L 364.78139 301.761971 
L 365.041165 302.081187 
L 365.235997 302.024858 
L 366.859594 300.851467 
L 367.054426 301.011123 
L 367.379146 301.693996 
L 368.093529 303.376027 
L 368.678024 304.032155 
L 369.132631 304.308671 
L 369.847014 304.455772 
L 370.171733 305.006719 
L 370.756228 306.115981 
L 370.95106 306.093947 
L 371.145892 305.743717 
L 371.470611 304.485226 
L 372.055106 302.012824 
L 372.249938 301.864397 
L 372.379826 302.045119 
L 372.639601 302.975624 
L 373.548816 306.896927 
L 373.873535 307.367466 
L 374.263199 307.545056 
L 375.172413 307.583825 
L 398.487273 307.584 
L 398.487273 307.584 
" style="fill:none;stroke:#ff7f0e;stroke-linecap:square;stroke-width:1.5;"/>
   </g>
   <g id="patch_103">
    <path d="M 57.6 307.584 
L 57.6 41.472 
" style="fill:none;stroke:#000000;stroke-linecap:square;stroke-linejoin:miter;stroke-width:0.8;"/>
   </g>
   <g id="patch_104">
    <path d="M 414.72 307.584 
L 414.72 41.472 
" style="fill:none;stroke:#000000;stroke-linecap:square;stroke-linejoin:miter;stroke-width:0.8;"/>
   </g>
   <g id="patch_105">
    <path d="M 57.6 307.584 
L 414.72 307.584 
" style="fill:none;stroke:#000000;stroke-linecap:square;stroke-linejoin:miter;stroke-width:0.8;"/>
   </g>
   <g id="patch_106">
    <path d="M 57.6 41.472 
L 414.72 41.472 
" style="fill:none;stroke:#000000;stroke-linecap:square;stroke-linejoin:miter;stroke-width:0.8;"/>
   </g>
  </g>
 </g>
 <defs>
  <clipPath id="p1777d159f9">
   <rect height="266.112" width="357.12" x="57.6" y="41.472"/>
  </clipPath>
 </defs>
</svg>
