<?xml version="1.0" encoding="utf-8" standalone="no"?>
<!DOCTYPE svg PUBLIC "-//W3C//DTD SVG 1.1//EN"
  "http://www.w3.org/Graphics/SVG/1.1/DTD/svg11.dtd">
<!-- Created with matplotlib (https://matplotlib.org/) -->
<svg height="345.6pt" version="1.1" viewBox="0 0 460.8 345.6" width="460.8pt" xmlns="http://www.w3.org/2000/svg" xmlns:xlink="http://www.w3.org/1999/xlink">
 <defs>
  <style type="text/css">
*{stroke-linecap:butt;stroke-linejoin:round;}
  </style>
 </defs>
 <g id="figure_1">
  <g id="patch_1">
   <path d="M 0 345.6 
L 460.8 345.6 
L 460.8 0 
L 0 0 
z
" style="fill:#ffffff;"/>
  </g>
  <g id="axes_1">
   <g id="patch_2">
    <path d="M 57.6 307.584 
L 414.72 307.584 
L 414.72 41.472 
L 57.6 41.472 
z
" style="fill:#ffffff;"/>
   </g>
   <g id="patch_3">
    <path clip-path="url(#p0fb74617c5)" d="M 103.311397 307.584 
L 106.000097 307.584 
L 106.000097 301.246271 
L 103.311397 301.246271 
z
" style="fill:#1f77b4;"/>
   </g>
   <g id="patch_4">
    <path clip-path="url(#p0fb74617c5)" d="M 106.000112 307.584 
L 108.688812 307.584 
L 108.688812 300.340881 
L 106.000112 300.340881 
z
" style="fill:#1f77b4;"/>
   </g>
   <g id="patch_5">
    <path clip-path="url(#p0fb74617c5)" d="M 108.688812 307.584 
L 111.37752 307.584 
L 111.37752 303.057064 
L 108.688812 303.057064 
z
" style="fill:#1f77b4;"/>
   </g>
   <g id="patch_6">
    <path clip-path="url(#p0fb74617c5)" d="M 111.37752 307.584 
L 114.06622 307.584 
L 114.06622 304.867831 
L 111.37752 304.867831 
z
" style="fill:#1f77b4;"/>
   </g>
   <g id="patch_7">
    <path clip-path="url(#p0fb74617c5)" d="M 114.06622 307.584 
L 116.754919 307.584 
L 116.754919 303.962441 
L 114.06622 303.962441 
z
" style="fill:#1f77b4;"/>
   </g>
   <g id="patch_8">
    <path clip-path="url(#p0fb74617c5)" d="M 116.754919 307.584 
L 119.443619 307.584 
L 119.443619 299.435492 
L 116.754919 299.435492 
z
" style="fill:#1f77b4;"/>
   </g>
   <g id="patch_9">
    <path clip-path="url(#p0fb74617c5)" d="M 119.443619 307.584 
L 122.132319 307.584 
L 122.132319 303.057051 
L 119.443619 303.057051 
z
" style="fill:#1f77b4;"/>
   </g>
   <g id="patch_10">
    <path clip-path="url(#p0fb74617c5)" d="M 122.132311 307.584 
L 124.821019 307.584 
L 124.821019 300.340902 
L 122.132311 300.340902 
z
" style="fill:#1f77b4;"/>
   </g>
   <g id="patch_11">
    <path clip-path="url(#p0fb74617c5)" d="M 124.821026 307.584 
L 127.509726 307.584 
L 127.509726 299.435492 
L 124.821026 299.435492 
z
" style="fill:#1f77b4;"/>
   </g>
   <g id="patch_12">
    <path clip-path="url(#p0fb74617c5)" d="M 127.509726 307.584 
L 130.198426 307.584 
L 130.198426 303.057051 
L 127.509726 303.057051 
z
" style="fill:#1f77b4;"/>
   </g>
   <g id="patch_13">
    <path clip-path="url(#p0fb74617c5)" d="M 130.198426 307.584 
L 132.887126 307.584 
L 132.887126 299.435492 
L 130.198426 299.435492 
z
" style="fill:#1f77b4;"/>
   </g>
   <g id="patch_14">
    <path clip-path="url(#p0fb74617c5)" d="M 132.887126 307.584 
L 135.575825 307.584 
L 135.575825 292.192373 
L 132.887126 292.192373 
z
" style="fill:#1f77b4;"/>
   </g>
   <g id="patch_15">
    <path clip-path="url(#p0fb74617c5)" d="M 135.575825 307.584 
L 138.264533 307.584 
L 138.264533 291.28703 
L 135.575825 291.28703 
z
" style="fill:#1f77b4;"/>
   </g>
   <g id="patch_16">
    <path clip-path="url(#p0fb74617c5)" d="M 138.264533 307.584 
L 140.953233 307.584 
L 140.953233 294.003153 
L 138.264533 294.003153 
z
" style="fill:#1f77b4;"/>
   </g>
   <g id="patch_17">
    <path clip-path="url(#p0fb74617c5)" d="M 140.953233 307.584 
L 143.641932 307.584 
L 143.641932 287.665424 
L 140.953233 287.665424 
z
" style="fill:#1f77b4;"/>
   </g>
   <g id="patch_18">
    <path clip-path="url(#p0fb74617c5)" d="M 143.641932 307.584 
L 146.330632 307.584 
L 146.330632 294.908542 
L 143.641932 294.908542 
z
" style="fill:#1f77b4;"/>
   </g>
   <g id="patch_19">
    <path clip-path="url(#p0fb74617c5)" d="M 146.330632 307.584 
L 149.019332 307.584 
L 149.019332 287.665424 
L 146.330632 287.665424 
z
" style="fill:#1f77b4;"/>
   </g>
   <g id="patch_20">
    <path clip-path="url(#p0fb74617c5)" d="M 149.019324 307.584 
L 151.708032 307.584 
L 151.708032 284.043932 
L 149.019324 284.043932 
z
" style="fill:#1f77b4;"/>
   </g>
   <g id="patch_21">
    <path clip-path="url(#p0fb74617c5)" d="M 151.708039 307.584 
L 154.396739 307.584 
L 154.396739 282.233085 
L 151.708039 282.233085 
z
" style="fill:#1f77b4;"/>
   </g>
   <g id="patch_22">
    <path clip-path="url(#p0fb74617c5)" d="M 154.396739 307.584 
L 157.085439 307.584 
L 157.085439 291.286983 
L 154.396739 291.286983 
z
" style="fill:#1f77b4;"/>
   </g>
   <g id="patch_23">
    <path clip-path="url(#p0fb74617c5)" d="M 157.085439 307.584 
L 159.774139 307.584 
L 159.774139 292.192373 
L 157.085439 292.192373 
z
" style="fill:#1f77b4;"/>
   </g>
   <g id="patch_24">
    <path clip-path="url(#p0fb74617c5)" d="M 159.774139 307.584 
L 162.462839 307.584 
L 162.462839 285.854644 
L 159.774139 285.854644 
z
" style="fill:#1f77b4;"/>
   </g>
   <g id="patch_25">
    <path clip-path="url(#p0fb74617c5)" d="M 162.462839 307.584 
L 165.151546 307.584 
L 165.151546 282.233158 
L 162.462839 282.233158 
z
" style="fill:#1f77b4;"/>
   </g>
   <g id="patch_26">
    <path clip-path="url(#p0fb74617c5)" d="M 165.151546 307.584 
L 167.840246 307.584 
L 167.840246 277.706136 
L 165.151546 277.706136 
z
" style="fill:#1f77b4;"/>
   </g>
   <g id="patch_27">
    <path clip-path="url(#p0fb74617c5)" d="M 167.840246 307.584 
L 170.528946 307.584 
L 170.528946 274.989966 
L 167.840246 274.989966 
z
" style="fill:#1f77b4;"/>
   </g>
   <g id="patch_28">
    <path clip-path="url(#p0fb74617c5)" d="M 170.528946 307.584 
L 173.217645 307.584 
L 173.217645 282.233085 
L 170.528946 282.233085 
z
" style="fill:#1f77b4;"/>
   </g>
   <g id="patch_29">
    <path clip-path="url(#p0fb74617c5)" d="M 173.217645 307.584 
L 175.906349 307.584 
L 175.906349 282.233121 
L 173.217645 282.233121 
z
" style="fill:#1f77b4;"/>
   </g>
   <g id="patch_30">
    <path clip-path="url(#p0fb74617c5)" d="M 175.906349 307.584 
L 178.595049 307.584 
L 178.595049 274.989966 
L 175.906349 274.989966 
z
" style="fill:#1f77b4;"/>
   </g>
   <g id="patch_31">
    <path clip-path="url(#p0fb74617c5)" d="M 178.595053 307.584 
L 181.283756 307.584 
L 181.283756 262.314574 
L 178.595053 262.314574 
z
" style="fill:#1f77b4;"/>
   </g>
   <g id="patch_32">
    <path clip-path="url(#p0fb74617c5)" d="M 181.283752 307.584 
L 183.972452 307.584 
L 183.972452 251.449831 
L 181.283752 251.449831 
z
" style="fill:#1f77b4;"/>
   </g>
   <g id="patch_33">
    <path clip-path="url(#p0fb74617c5)" d="M 183.972452 307.584 
L 186.661152 307.584 
L 186.661152 247.828272 
L 183.972452 247.828272 
z
" style="fill:#1f77b4;"/>
   </g>
   <g id="patch_34">
    <path clip-path="url(#p0fb74617c5)" d="M 186.661152 307.584 
L 189.349856 307.584 
L 189.349856 252.3553 
L 186.661152 252.3553 
z
" style="fill:#1f77b4;"/>
   </g>
   <g id="patch_35">
    <path clip-path="url(#p0fb74617c5)" d="M 189.349856 307.584 
L 192.038555 307.584 
L 192.038555 237.868984 
L 189.349856 237.868984 
z
" style="fill:#1f77b4;"/>
   </g>
   <g id="patch_36">
    <path clip-path="url(#p0fb74617c5)" d="M 192.038559 307.584 
L 194.727263 307.584 
L 194.727263 235.152918 
L 192.038559 235.152918 
z
" style="fill:#1f77b4;"/>
   </g>
   <g id="patch_37">
    <path clip-path="url(#p0fb74617c5)" d="M 194.727259 307.584 
L 197.415959 307.584 
L 197.415959 230.625865 
L 194.727259 230.625865 
z
" style="fill:#1f77b4;"/>
   </g>
   <g id="patch_38">
    <path clip-path="url(#p0fb74617c5)" d="M 197.415959 307.584 
L 200.104659 307.584 
L 200.104659 227.909695 
L 197.415959 227.909695 
z
" style="fill:#1f77b4;"/>
   </g>
   <g id="patch_39">
    <path clip-path="url(#p0fb74617c5)" d="M 200.104659 307.584 
L 202.793362 307.584 
L 202.793362 231.531364 
L 200.104659 231.531364 
z
" style="fill:#1f77b4;"/>
   </g>
   <g id="patch_40">
    <path clip-path="url(#p0fb74617c5)" d="M 202.793362 307.584 
L 205.482062 307.584 
L 205.482062 236.963594 
L 202.793362 236.963594 
z
" style="fill:#1f77b4;"/>
   </g>
   <g id="patch_41">
    <path clip-path="url(#p0fb74617c5)" d="M 205.482062 307.584 
L 208.170764 307.584 
L 208.170764 231.531309 
L 205.482062 231.531309 
z
" style="fill:#1f77b4;"/>
   </g>
   <g id="patch_42">
    <path clip-path="url(#p0fb74617c5)" d="M 208.170766 307.584 
L 210.859467 307.584 
L 210.859467 227.909753 
L 208.170766 227.909753 
z
" style="fill:#1f77b4;"/>
   </g>
   <g id="patch_43">
    <path clip-path="url(#p0fb74617c5)" d="M 210.859465 307.584 
L 213.548167 307.584 
L 213.548167 246.922925 
L 210.859465 246.922925 
z
" style="fill:#1f77b4;"/>
   </g>
   <g id="patch_44">
    <path clip-path="url(#p0fb74617c5)" d="M 213.548169 307.584 
L 216.236871 307.584 
L 216.236871 241.49059 
L 213.548169 241.49059 
z
" style="fill:#1f77b4;"/>
   </g>
   <g id="patch_45">
    <path clip-path="url(#p0fb74617c5)" d="M 216.236869 307.584 
L 218.925569 307.584 
L 218.925569 243.301322 
L 216.236869 243.301322 
z
" style="fill:#1f77b4;"/>
   </g>
   <g id="patch_46">
    <path clip-path="url(#p0fb74617c5)" d="M 218.925569 307.584 
L 221.61427 307.584 
L 221.61427 208.89658 
L 218.925569 208.89658 
z
" style="fill:#1f77b4;"/>
   </g>
   <g id="patch_47">
    <path clip-path="url(#p0fb74617c5)" d="M 221.61427 307.584 
L 224.302972 307.584 
L 224.302972 219.76125 
L 221.61427 219.76125 
z
" style="fill:#1f77b4;"/>
   </g>
   <g id="patch_48">
    <path clip-path="url(#p0fb74617c5)" d="M 224.302972 307.584 
L 226.991674 307.584 
L 226.991674 212.518137 
L 224.302972 212.518137 
z
" style="fill:#1f77b4;"/>
   </g>
   <g id="patch_49">
    <path clip-path="url(#p0fb74617c5)" d="M 226.991674 307.584 
L 229.680374 307.584 
L 229.680374 209.801934 
L 226.991674 209.801934 
z
" style="fill:#1f77b4;"/>
   </g>
   <g id="patch_50">
    <path clip-path="url(#p0fb74617c5)" d="M 229.680374 307.584 
L 232.369076 307.584 
L 232.369076 197.126511 
L 229.680374 197.126511 
z
" style="fill:#1f77b4;"/>
   </g>
   <g id="patch_51">
    <path clip-path="url(#p0fb74617c5)" d="M 232.369076 307.584 
L 235.057777 307.584 
L 235.057777 194.410333 
L 232.369076 194.410333 
z
" style="fill:#1f77b4;"/>
   </g>
   <g id="patch_52">
    <path clip-path="url(#p0fb74617c5)" d="M 235.057777 307.584 
L 237.746478 307.584 
L 237.746478 114.736071 
L 235.057777 114.736071 
z
" style="fill:#1f77b4;"/>
   </g>
   <g id="patch_53">
    <path clip-path="url(#p0fb74617c5)" d="M 237.746478 307.584 
L 240.43518 307.584 
L 240.43518 184.45105 
L 237.746478 184.45105 
z
" style="fill:#1f77b4;"/>
   </g>
   <g id="patch_54">
    <path clip-path="url(#p0fb74617c5)" d="M 240.435179 307.584 
L 243.12388 307.584 
L 243.12388 191.694165 
L 240.435179 191.694165 
z
" style="fill:#1f77b4;"/>
   </g>
   <g id="patch_55">
    <path clip-path="url(#p0fb74617c5)" d="M 243.123881 307.584 
L 245.812583 307.584 
L 245.812583 232.436699 
L 243.123881 232.436699 
z
" style="fill:#1f77b4;"/>
   </g>
   <g id="patch_56">
    <path clip-path="url(#p0fb74617c5)" d="M 245.812584 307.584 
L 248.501284 307.584 
L 248.501284 198.031871 
L 245.812584 198.031871 
z
" style="fill:#1f77b4;"/>
   </g>
   <g id="patch_57">
    <path clip-path="url(#p0fb74617c5)" d="M 248.501283 307.584 
L 251.189985 307.584 
L 251.189985 214.328915 
L 248.501283 214.328915 
z
" style="fill:#1f77b4;"/>
   </g>
   <g id="patch_58">
    <path clip-path="url(#p0fb74617c5)" d="M 251.189984 307.584 
L 253.878685 307.584 
L 253.878685 211.612748 
L 251.189984 211.612748 
z
" style="fill:#1f77b4;"/>
   </g>
   <g id="patch_59">
    <path clip-path="url(#p0fb74617c5)" d="M 253.878689 307.584 
L 256.56739 307.584 
L 256.56739 216.139694 
L 253.878689 216.139694 
z
" style="fill:#1f77b4;"/>
   </g>
   <g id="patch_60">
    <path clip-path="url(#p0fb74617c5)" d="M 256.567388 307.584 
L 259.256088 307.584 
L 259.256088 207.991119 
L 256.567388 207.991119 
z
" style="fill:#1f77b4;"/>
   </g>
   <g id="patch_61">
    <path clip-path="url(#p0fb74617c5)" d="M 259.256088 307.584 
L 261.94479 307.584 
L 261.94479 214.328915 
L 259.256088 214.328915 
z
" style="fill:#1f77b4;"/>
   </g>
   <g id="patch_62">
    <path clip-path="url(#p0fb74617c5)" d="M 261.944792 307.584 
L 264.633494 307.584 
L 264.633494 223.382807 
L 261.944792 223.382807 
z
" style="fill:#1f77b4;"/>
   </g>
   <g id="patch_63">
    <path clip-path="url(#p0fb74617c5)" d="M 264.633492 307.584 
L 267.322193 307.584 
L 267.322193 228.815142 
L 264.633492 228.815142 
z
" style="fill:#1f77b4;"/>
   </g>
   <g id="patch_64">
    <path clip-path="url(#p0fb74617c5)" d="M 267.322195 307.584 
L 270.010899 307.584 
L 270.010899 237.869034 
L 267.322195 237.869034 
z
" style="fill:#1f77b4;"/>
   </g>
   <g id="patch_65">
    <path clip-path="url(#p0fb74617c5)" d="M 270.010895 307.584 
L 272.699595 307.584 
L 272.699595 236.963594 
L 270.010895 236.963594 
z
" style="fill:#1f77b4;"/>
   </g>
   <g id="patch_66">
    <path clip-path="url(#p0fb74617c5)" d="M 272.699599 307.584 
L 275.388302 307.584 
L 275.388302 239.679861 
L 272.699599 239.679861 
z
" style="fill:#1f77b4;"/>
   </g>
   <g id="patch_67">
    <path clip-path="url(#p0fb74617c5)" d="M 275.388298 307.584 
L 278.076998 307.584 
L 278.076998 251.449831 
L 275.388298 251.449831 
z
" style="fill:#1f77b4;"/>
   </g>
   <g id="patch_68">
    <path clip-path="url(#p0fb74617c5)" d="M 278.076998 307.584 
L 280.765698 307.584 
L 280.765698 251.449831 
L 278.076998 251.449831 
z
" style="fill:#1f77b4;"/>
   </g>
   <g id="patch_69">
    <path clip-path="url(#p0fb74617c5)" d="M 280.765698 307.584 
L 283.454402 307.584 
L 283.454402 236.058307 
L 280.765698 236.058307 
z
" style="fill:#1f77b4;"/>
   </g>
   <g id="patch_70">
    <path clip-path="url(#p0fb74617c5)" d="M 283.454402 307.584 
L 286.143101 307.584 
L 286.143101 244.206712 
L 283.454402 244.206712 
z
" style="fill:#1f77b4;"/>
   </g>
   <g id="patch_71">
    <path clip-path="url(#p0fb74617c5)" d="M 286.143105 307.584 
L 288.831809 307.584 
L 288.831809 262.314574 
L 286.143105 262.314574 
z
" style="fill:#1f77b4;"/>
   </g>
   <g id="patch_72">
    <path clip-path="url(#p0fb74617c5)" d="M 288.831805 307.584 
L 291.520505 307.584 
L 291.520505 265.030678 
L 288.831805 265.030678 
z
" style="fill:#1f77b4;"/>
   </g>
   <g id="patch_73">
    <path clip-path="url(#p0fb74617c5)" d="M 291.520505 307.584 
L 294.209205 307.584 
L 294.209205 259.598339 
L 291.520505 259.598339 
z
" style="fill:#1f77b4;"/>
   </g>
   <g id="patch_74">
    <path clip-path="url(#p0fb74617c5)" d="M 294.209205 307.584 
L 296.897908 307.584 
L 296.897908 269.557682 
L 294.209205 269.557682 
z
" style="fill:#1f77b4;"/>
   </g>
   <g id="patch_75">
    <path clip-path="url(#p0fb74617c5)" d="M 296.897908 307.584 
L 299.586608 307.584 
L 299.586608 265.030678 
L 296.897908 265.030678 
z
" style="fill:#1f77b4;"/>
   </g>
   <g id="patch_76">
    <path clip-path="url(#p0fb74617c5)" d="M 299.586612 307.584 
L 302.275319 307.584 
L 302.275319 259.598408 
L 299.586612 259.598408 
z
" style="fill:#1f77b4;"/>
   </g>
   <g id="patch_77">
    <path clip-path="url(#p0fb74617c5)" d="M 302.275312 307.584 
L 304.964011 307.584 
L 304.964011 270.463017 
L 302.275312 270.463017 
z
" style="fill:#1f77b4;"/>
   </g>
   <g id="patch_78">
    <path clip-path="url(#p0fb74617c5)" d="M 304.964011 307.584 
L 307.652711 307.584 
L 307.652711 264.125288 
L 304.964011 264.125288 
z
" style="fill:#1f77b4;"/>
   </g>
   <g id="patch_79">
    <path clip-path="url(#p0fb74617c5)" d="M 307.652711 307.584 
L 310.341411 307.584 
L 310.341411 274.989966 
L 307.652711 274.989966 
z
" style="fill:#1f77b4;"/>
   </g>
   <g id="patch_80">
    <path clip-path="url(#p0fb74617c5)" d="M 310.341403 307.584 
L 313.030111 307.584 
L 313.030111 284.043932 
L 310.341403 284.043932 
z
" style="fill:#1f77b4;"/>
   </g>
   <g id="patch_81">
    <path clip-path="url(#p0fb74617c5)" d="M 313.030118 307.584 
L 315.718818 307.584 
L 315.718818 280.422305 
L 313.030118 280.422305 
z
" style="fill:#1f77b4;"/>
   </g>
   <g id="patch_82">
    <path clip-path="url(#p0fb74617c5)" d="M 315.718818 307.584 
L 318.407518 307.584 
L 318.407518 274.989966 
L 315.718818 274.989966 
z
" style="fill:#1f77b4;"/>
   </g>
   <g id="patch_83">
    <path clip-path="url(#p0fb74617c5)" d="M 318.407518 307.584 
L 321.096218 307.584 
L 321.096218 274.084576 
L 318.407518 274.084576 
z
" style="fill:#1f77b4;"/>
   </g>
   <g id="patch_84">
    <path clip-path="url(#p0fb74617c5)" d="M 321.096218 307.584 
L 323.784917 307.584 
L 323.784917 274.989966 
L 321.096218 274.989966 
z
" style="fill:#1f77b4;"/>
   </g>
   <g id="patch_85">
    <path clip-path="url(#p0fb74617c5)" d="M 323.784917 307.584 
L 326.473625 307.584 
L 326.473625 276.800835 
L 323.784917 276.800835 
z
" style="fill:#1f77b4;"/>
   </g>
   <g id="patch_86">
    <path clip-path="url(#p0fb74617c5)" d="M 326.473625 307.584 
L 329.162325 307.584 
L 329.162325 274.989966 
L 326.473625 274.989966 
z
" style="fill:#1f77b4;"/>
   </g>
   <g id="patch_87">
    <path clip-path="url(#p0fb74617c5)" d="M 329.162325 307.584 
L 331.851025 307.584 
L 331.851025 287.665424 
L 329.162325 287.665424 
z
" style="fill:#1f77b4;"/>
   </g>
   <g id="patch_88">
    <path clip-path="url(#p0fb74617c5)" d="M 331.851025 307.584 
L 334.539724 307.584 
L 334.539724 293.097763 
L 331.851025 293.097763 
z
" style="fill:#1f77b4;"/>
   </g>
   <g id="patch_89">
    <path clip-path="url(#p0fb74617c5)" d="M 334.539724 307.584 
L 337.228424 307.584 
L 337.228424 288.570814 
L 334.539724 288.570814 
z
" style="fill:#1f77b4;"/>
   </g>
   <g id="patch_90">
    <path clip-path="url(#p0fb74617c5)" d="M 337.228416 307.584 
L 339.917124 307.584 
L 339.917124 283.138545 
L 337.228416 283.138545 
z
" style="fill:#1f77b4;"/>
   </g>
   <g id="patch_91">
    <path clip-path="url(#p0fb74617c5)" d="M 339.917132 307.584 
L 342.605831 307.584 
L 342.605831 286.760034 
L 339.917132 286.760034 
z
" style="fill:#1f77b4;"/>
   </g>
   <g id="patch_92">
    <path clip-path="url(#p0fb74617c5)" d="M 342.605831 307.584 
L 345.294531 307.584 
L 345.294531 294.003153 
L 342.605831 294.003153 
z
" style="fill:#1f77b4;"/>
   </g>
   <g id="patch_93">
    <path clip-path="url(#p0fb74617c5)" d="M 345.294531 307.584 
L 347.983231 307.584 
L 347.983231 289.476204 
L 345.294531 289.476204 
z
" style="fill:#1f77b4;"/>
   </g>
   <g id="patch_94">
    <path clip-path="url(#p0fb74617c5)" d="M 347.983231 307.584 
L 350.671931 307.584 
L 350.671931 302.151661 
L 347.983231 302.151661 
z
" style="fill:#1f77b4;"/>
   </g>
   <g id="patch_95">
    <path clip-path="url(#p0fb74617c5)" d="M 350.671931 307.584 
L 353.360638 307.584 
L 353.360638 294.908579 
L 350.671931 294.908579 
z
" style="fill:#1f77b4;"/>
   </g>
   <g id="patch_96">
    <path clip-path="url(#p0fb74617c5)" d="M 353.360638 307.584 
L 356.049338 307.584 
L 356.049338 302.151661 
L 353.360638 302.151661 
z
" style="fill:#1f77b4;"/>
   </g>
   <g id="patch_97">
    <path clip-path="url(#p0fb74617c5)" d="M 356.049338 307.584 
L 358.738038 307.584 
L 358.738038 301.246271 
L 356.049338 301.246271 
z
" style="fill:#1f77b4;"/>
   </g>
   <g id="patch_98">
    <path clip-path="url(#p0fb74617c5)" d="M 358.738038 307.584 
L 361.426737 307.584 
L 361.426737 303.057051 
L 358.738038 303.057051 
z
" style="fill:#1f77b4;"/>
   </g>
   <g id="patch_99">
    <path clip-path="url(#p0fb74617c5)" d="M 361.426737 307.584 
L 364.115437 307.584 
L 364.115437 299.435492 
L 361.426737 299.435492 
z
" style="fill:#1f77b4;"/>
   </g>
   <g id="patch_100">
    <path clip-path="url(#p0fb74617c5)" d="M 364.115429 307.584 
L 366.804129 307.584 
L 366.804129 305.773226 
L 364.115429 305.773226 
z
" style="fill:#1f77b4;"/>
   </g>
   <g id="patch_101">
    <path clip-path="url(#p0fb74617c5)" d="M 366.804129 307.584 
L 369.492829 307.584 
L 369.492829 304.867831 
L 366.804129 304.867831 
z
" style="fill:#1f77b4;"/>
   </g>
   <g id="patch_102">
    <path clip-path="url(#p0fb74617c5)" d="M 369.492844 307.584 
L 372.181544 307.584 
L 372.181544 304.867831 
L 369.492844 304.867831 
z
" style="fill:#1f77b4;"/>
   </g>
   <g id="matplotlib.axis_1">
    <g id="xtick_1">
     <g id="line2d_1">
      <defs>
       <path d="M 0 0 
L 0 3.5 
" id="m8f6ccf3ec4" style="stroke:#000000;stroke-width:0.8;"/>
      </defs>
      <g>
       <use style="stroke:#000000;stroke-width:0.8;" x="106.301429" xlink:href="#m8f6ccf3ec4" y="307.584"/>
      </g>
     </g>
     <g id="text_1">
      <!-- −2 -->
      <defs>
       <path d="M 10.59375 35.5 
L 73.1875 35.5 
L 73.1875 27.203125 
L 10.59375 27.203125 
z
" id="DejaVuSans-8722"/>
       <path d="M 19.1875 8.296875 
L 53.609375 8.296875 
L 53.609375 0 
L 7.328125 0 
L 7.328125 8.296875 
Q 12.9375 14.109375 22.625 23.890625 
Q 32.328125 33.6875 34.8125 36.53125 
Q 39.546875 41.84375 41.421875 45.53125 
Q 43.3125 49.21875 43.3125 52.78125 
Q 43.3125 58.59375 39.234375 62.25 
Q 35.15625 65.921875 28.609375 65.921875 
Q 23.96875 65.921875 18.8125 64.3125 
Q 13.671875 62.703125 7.8125 59.421875 
L 7.8125 69.390625 
Q 13.765625 71.78125 18.9375 73 
Q 24.125 74.21875 28.421875 74.21875 
Q 39.75 74.21875 46.484375 68.546875 
Q 53.21875 62.890625 53.21875 53.421875 
Q 53.21875 48.921875 51.53125 44.890625 
Q 49.859375 40.875 45.40625 35.40625 
Q 44.1875 33.984375 37.640625 27.21875 
Q 31.109375 20.453125 19.1875 8.296875 
z
" id="DejaVuSans-50"/>
      </defs>
      <g transform="translate(93.770569 327.501344)scale(0.17 -0.17)">
       <use xlink:href="#DejaVuSans-8722"/>
       <use x="83.789062" xlink:href="#DejaVuSans-50"/>
      </g>
     </g>
    </g>
    <g id="xtick_2">
     <g id="line2d_2">
      <g>
       <use style="stroke:#000000;stroke-width:0.8;" x="171.238832" xlink:href="#m8f6ccf3ec4" y="307.584"/>
      </g>
     </g>
     <g id="text_2">
      <!-- −1 -->
      <defs>
       <path d="M 12.40625 8.296875 
L 28.515625 8.296875 
L 28.515625 63.921875 
L 10.984375 60.40625 
L 10.984375 69.390625 
L 28.421875 72.90625 
L 38.28125 72.90625 
L 38.28125 8.296875 
L 54.390625 8.296875 
L 54.390625 0 
L 12.40625 0 
z
" id="DejaVuSans-49"/>
      </defs>
      <g transform="translate(158.707972 327.501344)scale(0.17 -0.17)">
       <use xlink:href="#DejaVuSans-8722"/>
       <use x="83.789062" xlink:href="#DejaVuSans-49"/>
      </g>
     </g>
    </g>
    <g id="xtick_3">
     <g id="line2d_3">
      <g>
       <use style="stroke:#000000;stroke-width:0.8;" x="236.176234" xlink:href="#m8f6ccf3ec4" y="307.584"/>
      </g>
     </g>
     <g id="text_3">
      <!-- 0 -->
      <defs>
       <path d="M 31.78125 66.40625 
Q 24.171875 66.40625 20.328125 58.90625 
Q 16.5 51.421875 16.5 36.375 
Q 16.5 21.390625 20.328125 13.890625 
Q 24.171875 6.390625 31.78125 6.390625 
Q 39.453125 6.390625 43.28125 13.890625 
Q 47.125 21.390625 47.125 36.375 
Q 47.125 51.421875 43.28125 58.90625 
Q 39.453125 66.40625 31.78125 66.40625 
z
M 31.78125 74.21875 
Q 44.046875 74.21875 50.515625 64.515625 
Q 56.984375 54.828125 56.984375 36.375 
Q 56.984375 17.96875 50.515625 8.265625 
Q 44.046875 -1.421875 31.78125 -1.421875 
Q 19.53125 -1.421875 13.0625 8.265625 
Q 6.59375 17.96875 6.59375 36.375 
Q 6.59375 54.828125 13.0625 64.515625 
Q 19.53125 74.21875 31.78125 74.21875 
z
" id="DejaVuSans-48"/>
      </defs>
      <g transform="translate(230.768109 327.501344)scale(0.17 -0.17)">
       <use xlink:href="#DejaVuSans-48"/>
      </g>
     </g>
    </g>
    <g id="xtick_4">
     <g id="line2d_4">
      <g>
       <use style="stroke:#000000;stroke-width:0.8;" x="301.113637" xlink:href="#m8f6ccf3ec4" y="307.584"/>
      </g>
     </g>
     <g id="text_4">
      <!-- 1 -->
      <g transform="translate(295.705512 327.501344)scale(0.17 -0.17)">
       <use xlink:href="#DejaVuSans-49"/>
      </g>
     </g>
    </g>
    <g id="xtick_5">
     <g id="line2d_5">
      <g>
       <use style="stroke:#000000;stroke-width:0.8;" x="366.05104" xlink:href="#m8f6ccf3ec4" y="307.584"/>
      </g>
     </g>
     <g id="text_5">
      <!-- 2 -->
      <g transform="translate(360.642915 327.501344)scale(0.17 -0.17)">
       <use xlink:href="#DejaVuSans-50"/>
      </g>
     </g>
    </g>
    <g id="text_6">
     <!-- Position in Radian -->
     <defs>
      <path d="M 19.671875 64.796875 
L 19.671875 37.40625 
L 32.078125 37.40625 
Q 38.96875 37.40625 42.71875 40.96875 
Q 46.484375 44.53125 46.484375 51.125 
Q 46.484375 57.671875 42.71875 61.234375 
Q 38.96875 64.796875 32.078125 64.796875 
z
M 9.8125 72.90625 
L 32.078125 72.90625 
Q 44.34375 72.90625 50.609375 67.359375 
Q 56.890625 61.8125 56.890625 51.125 
Q 56.890625 40.328125 50.609375 34.8125 
Q 44.34375 29.296875 32.078125 29.296875 
L 19.671875 29.296875 
L 19.671875 0 
L 9.8125 0 
z
" id="DejaVuSans-80"/>
      <path d="M 30.609375 48.390625 
Q 23.390625 48.390625 19.1875 42.75 
Q 14.984375 37.109375 14.984375 27.296875 
Q 14.984375 17.484375 19.15625 11.84375 
Q 23.34375 6.203125 30.609375 6.203125 
Q 37.796875 6.203125 41.984375 11.859375 
Q 46.1875 17.53125 46.1875 27.296875 
Q 46.1875 37.015625 41.984375 42.703125 
Q 37.796875 48.390625 30.609375 48.390625 
z
M 30.609375 56 
Q 42.328125 56 49.015625 48.375 
Q 55.71875 40.765625 55.71875 27.296875 
Q 55.71875 13.875 49.015625 6.21875 
Q 42.328125 -1.421875 30.609375 -1.421875 
Q 18.84375 -1.421875 12.171875 6.21875 
Q 5.515625 13.875 5.515625 27.296875 
Q 5.515625 40.765625 12.171875 48.375 
Q 18.84375 56 30.609375 56 
z
" id="DejaVuSans-111"/>
      <path d="M 44.28125 53.078125 
L 44.28125 44.578125 
Q 40.484375 46.53125 36.375 47.5 
Q 32.28125 48.484375 27.875 48.484375 
Q 21.1875 48.484375 17.84375 46.4375 
Q 14.5 44.390625 14.5 40.28125 
Q 14.5 37.15625 16.890625 35.375 
Q 19.28125 33.59375 26.515625 31.984375 
L 29.59375 31.296875 
Q 39.15625 29.25 43.1875 25.515625 
Q 47.21875 21.78125 47.21875 15.09375 
Q 47.21875 7.46875 41.1875 3.015625 
Q 35.15625 -1.421875 24.609375 -1.421875 
Q 20.21875 -1.421875 15.453125 -0.5625 
Q 10.6875 0.296875 5.421875 2 
L 5.421875 11.28125 
Q 10.40625 8.6875 15.234375 7.390625 
Q 20.0625 6.109375 24.8125 6.109375 
Q 31.15625 6.109375 34.5625 8.28125 
Q 37.984375 10.453125 37.984375 14.40625 
Q 37.984375 18.0625 35.515625 20.015625 
Q 33.0625 21.96875 24.703125 23.78125 
L 21.578125 24.515625 
Q 13.234375 26.265625 9.515625 29.90625 
Q 5.8125 33.546875 5.8125 39.890625 
Q 5.8125 47.609375 11.28125 51.796875 
Q 16.75 56 26.8125 56 
Q 31.78125 56 36.171875 55.265625 
Q 40.578125 54.546875 44.28125 53.078125 
z
" id="DejaVuSans-115"/>
      <path d="M 9.421875 54.6875 
L 18.40625 54.6875 
L 18.40625 0 
L 9.421875 0 
z
M 9.421875 75.984375 
L 18.40625 75.984375 
L 18.40625 64.59375 
L 9.421875 64.59375 
z
" id="DejaVuSans-105"/>
      <path d="M 18.3125 70.21875 
L 18.3125 54.6875 
L 36.8125 54.6875 
L 36.8125 47.703125 
L 18.3125 47.703125 
L 18.3125 18.015625 
Q 18.3125 11.328125 20.140625 9.421875 
Q 21.96875 7.515625 27.59375 7.515625 
L 36.8125 7.515625 
L 36.8125 0 
L 27.59375 0 
Q 17.1875 0 13.234375 3.875 
Q 9.28125 7.765625 9.28125 18.015625 
L 9.28125 47.703125 
L 2.6875 47.703125 
L 2.6875 54.6875 
L 9.28125 54.6875 
L 9.28125 70.21875 
z
" id="DejaVuSans-116"/>
      <path d="M 54.890625 33.015625 
L 54.890625 0 
L 45.90625 0 
L 45.90625 32.71875 
Q 45.90625 40.484375 42.875 44.328125 
Q 39.84375 48.1875 33.796875 48.1875 
Q 26.515625 48.1875 22.3125 43.546875 
Q 18.109375 38.921875 18.109375 30.90625 
L 18.109375 0 
L 9.078125 0 
L 9.078125 54.6875 
L 18.109375 54.6875 
L 18.109375 46.1875 
Q 21.34375 51.125 25.703125 53.5625 
Q 30.078125 56 35.796875 56 
Q 45.21875 56 50.046875 50.171875 
Q 54.890625 44.34375 54.890625 33.015625 
z
" id="DejaVuSans-110"/>
      <path id="DejaVuSans-32"/>
      <path d="M 44.390625 34.1875 
Q 47.5625 33.109375 50.5625 29.59375 
Q 53.5625 26.078125 56.59375 19.921875 
L 66.609375 0 
L 56 0 
L 46.6875 18.703125 
Q 43.0625 26.03125 39.671875 28.421875 
Q 36.28125 30.8125 30.421875 30.8125 
L 19.671875 30.8125 
L 19.671875 0 
L 9.8125 0 
L 9.8125 72.90625 
L 32.078125 72.90625 
Q 44.578125 72.90625 50.734375 67.671875 
Q 56.890625 62.453125 56.890625 51.90625 
Q 56.890625 45.015625 53.6875 40.46875 
Q 50.484375 35.9375 44.390625 34.1875 
z
M 19.671875 64.796875 
L 19.671875 38.921875 
L 32.078125 38.921875 
Q 39.203125 38.921875 42.84375 42.21875 
Q 46.484375 45.515625 46.484375 51.90625 
Q 46.484375 58.296875 42.84375 61.546875 
Q 39.203125 64.796875 32.078125 64.796875 
z
" id="DejaVuSans-82"/>
      <path d="M 34.28125 27.484375 
Q 23.390625 27.484375 19.1875 25 
Q 14.984375 22.515625 14.984375 16.5 
Q 14.984375 11.71875 18.140625 8.90625 
Q 21.296875 6.109375 26.703125 6.109375 
Q 34.1875 6.109375 38.703125 11.40625 
Q 43.21875 16.703125 43.21875 25.484375 
L 43.21875 27.484375 
z
M 52.203125 31.203125 
L 52.203125 0 
L 43.21875 0 
L 43.21875 8.296875 
Q 40.140625 3.328125 35.546875 0.953125 
Q 30.953125 -1.421875 24.3125 -1.421875 
Q 15.921875 -1.421875 10.953125 3.296875 
Q 6 8.015625 6 15.921875 
Q 6 25.140625 12.171875 29.828125 
Q 18.359375 34.515625 30.609375 34.515625 
L 43.21875 34.515625 
L 43.21875 35.40625 
Q 43.21875 41.609375 39.140625 45 
Q 35.0625 48.390625 27.6875 48.390625 
Q 23 48.390625 18.546875 47.265625 
Q 14.109375 46.140625 10.015625 43.890625 
L 10.015625 52.203125 
Q 14.9375 54.109375 19.578125 55.046875 
Q 24.21875 56 28.609375 56 
Q 40.484375 56 46.34375 49.84375 
Q 52.203125 43.703125 52.203125 31.203125 
z
" id="DejaVuSans-97"/>
      <path d="M 45.40625 46.390625 
L 45.40625 75.984375 
L 54.390625 75.984375 
L 54.390625 0 
L 45.40625 0 
L 45.40625 8.203125 
Q 42.578125 3.328125 38.25 0.953125 
Q 33.9375 -1.421875 27.875 -1.421875 
Q 17.96875 -1.421875 11.734375 6.484375 
Q 5.515625 14.40625 5.515625 27.296875 
Q 5.515625 40.1875 11.734375 48.09375 
Q 17.96875 56 27.875 56 
Q 33.9375 56 38.25 53.625 
Q 42.578125 51.265625 45.40625 46.390625 
z
M 14.796875 27.296875 
Q 14.796875 17.390625 18.875 11.75 
Q 22.953125 6.109375 30.078125 6.109375 
Q 37.203125 6.109375 41.296875 11.75 
Q 45.40625 17.390625 45.40625 27.296875 
Q 45.40625 37.203125 41.296875 42.84375 
Q 37.203125 48.484375 30.078125 48.484375 
Q 22.953125 48.484375 18.875 42.84375 
Q 14.796875 37.203125 14.796875 27.296875 
z
" id="DejaVuSans-100"/>
     </defs>
     <g transform="translate(102.024844 357.832125)scale(0.3 -0.3)">
      <use xlink:href="#DejaVuSans-80"/>
      <use x="60.255859" xlink:href="#DejaVuSans-111"/>
      <use x="121.4375" xlink:href="#DejaVuSans-115"/>
      <use x="173.537109" xlink:href="#DejaVuSans-105"/>
      <use x="201.320312" xlink:href="#DejaVuSans-116"/>
      <use x="240.529297" xlink:href="#DejaVuSans-105"/>
      <use x="268.3125" xlink:href="#DejaVuSans-111"/>
      <use x="329.494141" xlink:href="#DejaVuSans-110"/>
      <use x="392.873047" xlink:href="#DejaVuSans-32"/>
      <use x="424.660156" xlink:href="#DejaVuSans-105"/>
      <use x="452.443359" xlink:href="#DejaVuSans-110"/>
      <use x="515.822266" xlink:href="#DejaVuSans-32"/>
      <use x="547.609375" xlink:href="#DejaVuSans-82"/>
      <use x="617.060547" xlink:href="#DejaVuSans-97"/>
      <use x="678.339844" xlink:href="#DejaVuSans-100"/>
      <use x="741.816406" xlink:href="#DejaVuSans-105"/>
      <use x="769.599609" xlink:href="#DejaVuSans-97"/>
      <use x="830.878906" xlink:href="#DejaVuSans-110"/>
     </g>
    </g>
   </g>
   <g id="matplotlib.axis_2">
    <g id="ytick_1">
     <g id="line2d_6">
      <defs>
       <path d="M 0 0 
L -3.5 0 
" id="mcd22b9edd8" style="stroke:#000000;stroke-width:0.8;"/>
      </defs>
      <g>
       <use style="stroke:#000000;stroke-width:0.8;" x="57.6" xlink:href="#mcd22b9edd8" y="307.584"/>
      </g>
     </g>
     <g id="text_7">
      <!-- 0.00 -->
      <defs>
       <path d="M 10.6875 12.40625 
L 21 12.40625 
L 21 0 
L 10.6875 0 
z
" id="DejaVuSans-46"/>
      </defs>
      <g transform="translate(12.748438 314.042672)scale(0.17 -0.17)">
       <use xlink:href="#DejaVuSans-48"/>
       <use x="63.623047" xlink:href="#DejaVuSans-46"/>
       <use x="95.410156" xlink:href="#DejaVuSans-48"/>
       <use x="159.033203" xlink:href="#DejaVuSans-48"/>
      </g>
     </g>
    </g>
    <g id="ytick_2">
     <g id="line2d_7">
      <g>
       <use style="stroke:#000000;stroke-width:0.8;" x="57.6" xlink:href="#mcd22b9edd8" y="260.725"/>
      </g>
     </g>
     <g id="text_8">
      <!-- 0.25 -->
      <defs>
       <path d="M 10.796875 72.90625 
L 49.515625 72.90625 
L 49.515625 64.59375 
L 19.828125 64.59375 
L 19.828125 46.734375 
Q 21.96875 47.46875 24.109375 47.828125 
Q 26.265625 48.1875 28.421875 48.1875 
Q 40.625 48.1875 47.75 41.5 
Q 54.890625 34.8125 54.890625 23.390625 
Q 54.890625 11.625 47.5625 5.09375 
Q 40.234375 -1.421875 26.90625 -1.421875 
Q 22.3125 -1.421875 17.546875 -0.640625 
Q 12.796875 0.140625 7.71875 1.703125 
L 7.71875 11.625 
Q 12.109375 9.234375 16.796875 8.0625 
Q 21.484375 6.890625 26.703125 6.890625 
Q 35.15625 6.890625 40.078125 11.328125 
Q 45.015625 15.765625 45.015625 23.390625 
Q 45.015625 31 40.078125 35.4375 
Q 35.15625 39.890625 26.703125 39.890625 
Q 22.75 39.890625 18.8125 39.015625 
Q 14.890625 38.140625 10.796875 36.28125 
z
" id="DejaVuSans-53"/>
      </defs>
      <g transform="translate(12.748438 267.183672)scale(0.17 -0.17)">
       <use xlink:href="#DejaVuSans-48"/>
       <use x="63.623047" xlink:href="#DejaVuSans-46"/>
       <use x="95.410156" xlink:href="#DejaVuSans-50"/>
       <use x="159.033203" xlink:href="#DejaVuSans-53"/>
      </g>
     </g>
    </g>
    <g id="ytick_3">
     <g id="line2d_8">
      <g>
       <use style="stroke:#000000;stroke-width:0.8;" x="57.6" xlink:href="#mcd22b9edd8" y="213.866"/>
      </g>
     </g>
     <g id="text_9">
      <!-- 0.50 -->
      <g transform="translate(12.748438 220.324672)scale(0.17 -0.17)">
       <use xlink:href="#DejaVuSans-48"/>
       <use x="63.623047" xlink:href="#DejaVuSans-46"/>
       <use x="95.410156" xlink:href="#DejaVuSans-53"/>
       <use x="159.033203" xlink:href="#DejaVuSans-48"/>
      </g>
     </g>
    </g>
    <g id="ytick_4">
     <g id="line2d_9">
      <g>
       <use style="stroke:#000000;stroke-width:0.8;" x="57.6" xlink:href="#mcd22b9edd8" y="167.007"/>
      </g>
     </g>
     <g id="text_10">
      <!-- 0.75 -->
      <defs>
       <path d="M 8.203125 72.90625 
L 55.078125 72.90625 
L 55.078125 68.703125 
L 28.609375 0 
L 18.3125 0 
L 43.21875 64.59375 
L 8.203125 64.59375 
z
" id="DejaVuSans-55"/>
      </defs>
      <g transform="translate(12.748438 173.465672)scale(0.17 -0.17)">
       <use xlink:href="#DejaVuSans-48"/>
       <use x="63.623047" xlink:href="#DejaVuSans-46"/>
       <use x="95.410156" xlink:href="#DejaVuSans-55"/>
       <use x="159.033203" xlink:href="#DejaVuSans-53"/>
      </g>
     </g>
    </g>
    <g id="ytick_5">
     <g id="line2d_10">
      <g>
       <use style="stroke:#000000;stroke-width:0.8;" x="57.6" xlink:href="#mcd22b9edd8" y="120.148"/>
      </g>
     </g>
     <g id="text_11">
      <!-- 1.00 -->
      <g transform="translate(12.748438 126.606672)scale(0.17 -0.17)">
       <use xlink:href="#DejaVuSans-49"/>
       <use x="63.623047" xlink:href="#DejaVuSans-46"/>
       <use x="95.410156" xlink:href="#DejaVuSans-48"/>
       <use x="159.033203" xlink:href="#DejaVuSans-48"/>
      </g>
     </g>
    </g>
    <g id="ytick_6">
     <g id="line2d_11">
      <g>
       <use style="stroke:#000000;stroke-width:0.8;" x="57.6" xlink:href="#mcd22b9edd8" y="73.289"/>
      </g>
     </g>
     <g id="text_12">
      <!-- 1.25 -->
      <g transform="translate(12.748438 79.747672)scale(0.17 -0.17)">
       <use xlink:href="#DejaVuSans-49"/>
       <use x="63.623047" xlink:href="#DejaVuSans-46"/>
       <use x="95.410156" xlink:href="#DejaVuSans-50"/>
       <use x="159.033203" xlink:href="#DejaVuSans-53"/>
      </g>
     </g>
    </g>
    <g id="text_13">
     <!-- Density -->
     <defs>
      <path d="M 19.671875 64.796875 
L 19.671875 8.109375 
L 31.59375 8.109375 
Q 46.6875 8.109375 53.6875 14.9375 
Q 60.6875 21.78125 60.6875 36.53125 
Q 60.6875 51.171875 53.6875 57.984375 
Q 46.6875 64.796875 31.59375 64.796875 
z
M 9.8125 72.90625 
L 30.078125 72.90625 
Q 51.265625 72.90625 61.171875 64.09375 
Q 71.09375 55.28125 71.09375 36.53125 
Q 71.09375 17.671875 61.125 8.828125 
Q 51.171875 0 30.078125 0 
L 9.8125 0 
z
" id="DejaVuSans-68"/>
      <path d="M 56.203125 29.59375 
L 56.203125 25.203125 
L 14.890625 25.203125 
Q 15.484375 15.921875 20.484375 11.0625 
Q 25.484375 6.203125 34.421875 6.203125 
Q 39.59375 6.203125 44.453125 7.46875 
Q 49.3125 8.734375 54.109375 11.28125 
L 54.109375 2.78125 
Q 49.265625 0.734375 44.1875 -0.34375 
Q 39.109375 -1.421875 33.890625 -1.421875 
Q 20.796875 -1.421875 13.15625 6.1875 
Q 5.515625 13.8125 5.515625 26.8125 
Q 5.515625 40.234375 12.765625 48.109375 
Q 20.015625 56 32.328125 56 
Q 43.359375 56 49.78125 48.890625 
Q 56.203125 41.796875 56.203125 29.59375 
z
M 47.21875 32.234375 
Q 47.125 39.59375 43.09375 43.984375 
Q 39.0625 48.390625 32.421875 48.390625 
Q 24.90625 48.390625 20.390625 44.140625 
Q 15.875 39.890625 15.1875 32.171875 
z
" id="DejaVuSans-101"/>
      <path d="M 32.171875 -5.078125 
Q 28.375 -14.84375 24.75 -17.8125 
Q 21.140625 -20.796875 15.09375 -20.796875 
L 7.90625 -20.796875 
L 7.90625 -13.28125 
L 13.1875 -13.28125 
Q 16.890625 -13.28125 18.9375 -11.515625 
Q 21 -9.765625 23.484375 -3.21875 
L 25.09375 0.875 
L 2.984375 54.6875 
L 12.5 54.6875 
L 29.59375 11.921875 
L 46.6875 54.6875 
L 56.203125 54.6875 
z
" id="DejaVuSans-121"/>
     </defs>
     <g transform="translate(2.509375 231.553781)rotate(-90)scale(0.3 -0.3)">
      <use xlink:href="#DejaVuSans-68"/>
      <use x="77.001953" xlink:href="#DejaVuSans-101"/>
      <use x="138.525391" xlink:href="#DejaVuSans-110"/>
      <use x="201.904297" xlink:href="#DejaVuSans-115"/>
      <use x="254.003906" xlink:href="#DejaVuSans-105"/>
      <use x="281.787109" xlink:href="#DejaVuSans-116"/>
      <use x="320.996094" xlink:href="#DejaVuSans-121"/>
     </g>
    </g>
   </g>
   <g id="line2d_12">
    <path clip-path="url(#p0fb74617c5)" d="M 73.832727 307.584 
L 101.723342 307.47753 
L 102.048029 307.226568 
L 102.340247 306.699594 
L 102.664934 305.594035 
L 103.119496 303.112818 
L 103.736401 299.909466 
L 103.963682 299.522807 
L 104.093557 299.569068 
L 104.288369 299.975019 
L 104.645525 301.427643 
L 105.26243 303.877195 
L 105.554649 304.299604 
L 105.749461 304.253802 
L 105.976742 303.892776 
L 106.333897 302.779736 
L 107.340427 299.227145 
L 107.535239 299.194286 
L 107.730052 299.51868 
L 108.02227 300.594052 
L 108.898925 304.219844 
L 109.126206 304.354346 
L 109.321018 304.180649 
L 109.710642 303.417113 
L 110.976922 300.853917 
L 111.171734 300.831924 
L 111.366546 301.101814 
L 111.658764 302.015091 
L 112.535419 305.051564 
L 112.957512 305.616797 
L 113.314668 305.769701 
L 113.574418 305.625893 
L 113.931574 305.081952 
L 114.386135 304.493001 
L 114.580948 304.523191 
L 114.873166 304.877679 
L 115.327728 305.397925 
L 115.52254 305.339186 
L 115.78229 304.96781 
L 116.983631 302.411285 
L 117.373256 300.63478 
L 118.087567 297.289658 
L 118.28238 297.097551 
L 118.444723 297.266195 
L 118.704473 298.055584 
L 120.035689 303.079065 
L 120.327908 303.269025 
L 120.587657 303.147779 
L 120.977282 302.629007 
L 121.724062 301.60139 
L 122.146155 301.414361 
L 122.76306 301.433031 
L 123.28256 301.663227 
L 123.607247 301.728906 
L 123.802059 301.558418 
L 124.061808 300.955634 
L 124.613776 298.791861 
L 124.938463 297.977434 
L 125.133276 297.939061 
L 125.328088 298.258885 
L 125.652775 299.387885 
L 126.237211 301.368597 
L 126.432024 301.481545 
L 126.626836 301.272501 
L 127.308679 300.208405 
L 127.471022 300.34899 
L 127.76324 300.996508 
L 128.315208 302.208213 
L 128.607427 302.358282 
L 129.419144 302.452564 
L 130.912704 303.486906 
L 131.107517 303.295352 
L 131.334797 302.720383 
L 131.659484 301.176461 
L 132.471202 297.010315 
L 132.666014 296.872063 
L 132.828358 297.061321 
L 133.412794 298.044545 
L 133.445263 298.017618 
L 133.607607 297.634129 
L 133.834887 296.352468 
L 134.224512 292.515263 
L 134.906355 285.827302 
L 135.166104 284.96759 
L 135.295979 285.013347 
L 135.458323 285.469233 
L 135.78301 287.276676 
L 136.52979 291.554449 
L 136.886945 292.475248 
L 137.081758 292.542121 
L 137.27657 292.297896 
L 137.7636 291.050966 
L 138.02335 290.719635 
L 138.185693 290.798579 
L 138.412974 291.250236 
L 139.224692 293.185114 
L 139.51691 293.289797 
L 139.939003 293.186146 
L 140.198753 292.897185 
L 140.426034 292.271529 
L 140.750721 290.601613 
L 141.367626 287.293529 
L 141.562438 287.110406 
L 141.724782 287.341226 
L 142.081938 288.49203 
L 142.504031 289.559124 
L 142.861186 289.856359 
L 143.315748 290.206991 
L 143.672904 290.834232 
L 144.062528 292.054601 
L 145.296339 296.561034 
L 145.491151 296.547257 
L 145.685964 296.246565 
L 146.010651 295.24597 
L 146.660025 293.235547 
L 147.147055 292.095527 
L 147.439273 290.518669 
L 148.445803 284.046344 
L 148.575678 284.168715 
L 148.802959 284.919402 
L 149.452333 287.349272 
L 149.614676 287.390521 
L 149.77702 287.114854 
L 150.036769 286.04078 
L 150.458863 283.07364 
L 150.978362 279.871231 
L 151.173174 279.559541 
L 151.303049 279.668685 
L 151.53033 280.329073 
L 152.342047 283.983003 
L 152.894015 285.970732 
L 153.056359 286.07512 
L 153.186234 285.897092 
L 153.413514 285.05248 
L 154.095357 282.148177 
L 154.225232 282.19125 
L 154.387575 282.585414 
L 154.712262 284.173839 
L 156.043479 291.583311 
L 156.335698 291.999961 
L 156.595447 292.018201 
L 157.731852 291.756864 
L 158.056539 292.045259 
L 158.640975 292.630244 
L 158.835788 292.553815 
L 159.095537 292.173874 
L 159.77738 290.597299 
L 160.134536 289.27476 
L 160.556629 286.618051 
L 161.076128 283.594341 
L 161.303409 283.217151 
L 161.465752 283.328147 
L 161.757971 283.970819 
L 162.245001 284.938248 
L 162.699563 285.333628 
L 162.991781 285.373597 
L 163.186594 285.170749 
L 163.446343 284.499992 
L 163.933374 282.375825 
L 165.167184 277.018762 
L 165.394465 276.787238 
L 165.556809 276.899913 
L 165.946433 277.62016 
L 166.336058 278.11592 
L 166.628276 278.487966 
L 166.855557 279.244261 
L 167.147775 281.165533 
L 167.829618 285.969332 
L 167.927024 285.96308 
L 168.056899 285.498652 
L 168.28418 283.429176 
L 168.673804 277.181598 
L 169.258241 268.401747 
L 169.51799 266.907653 
L 169.647865 266.78675 
L 169.680334 266.813802 
L 169.842677 267.240581 
L 170.134896 268.897368 
L 170.751801 274.073607 
L 171.628456 281.243588 
L 172.407705 285.203171 
L 173.057079 287.892911 
L 173.349297 288.336672 
L 173.511641 288.266698 
L 173.706453 287.837503 
L 173.966202 286.646135 
L 174.420764 283.242491 
L 175.03767 279.032911 
L 175.329888 278.264619 
L 175.5247 278.213827 
L 175.719512 278.441425 
L 176.563699 279.773335 
L 176.726042 279.526329 
L 176.953323 278.696636 
L 177.342947 276.171246 
L 178.804039 265.604968 
L 179.03132 265.281331 
L 179.193663 265.412516 
L 179.550819 266.237269 
L 179.7781 266.534538 
L 179.907975 266.413784 
L 180.070318 265.865138 
L 180.330068 264.072157 
L 182.635346 244.386757 
L 182.732752 244.504671 
L 182.927564 245.376577 
L 183.934094 251.284876 
L 184.063969 251.136929 
L 184.258781 250.433712 
L 185.167904 246.201195 
L 185.200373 246.216246 
L 185.362717 246.508585 
L 185.719872 247.877624 
L 186.109497 249.009269 
L 186.336778 249.123054 
L 186.596527 248.925461 
L 186.953683 248.716661 
L 187.148495 248.885139 
L 187.408245 249.529595 
L 187.862807 251.486415 
L 188.447243 253.771679 
L 188.674524 254.02147 
L 188.804399 253.913548 
L 188.999211 253.395248 
L 189.323898 251.75459 
L 189.875866 247.715977 
L 190.330428 242.754907 
L 191.077208 234.241945 
L 191.336958 233.412994 
L 191.499301 233.432077 
L 191.856457 233.622781 
L 192.0188 233.292119 
L 192.27855 232.021979 
L 192.798049 229.429172 
L 192.895455 229.413529 
L 192.927924 229.457512 
L 193.090268 230.048917 
L 193.350017 232.115856 
L 194.51889 242.912994 
L 194.811109 243.686936 
L 194.940984 243.661775 
L 195.103327 243.2237 
L 195.330608 241.671928 
L 195.622826 237.788266 
L 196.207263 225.78334 
L 196.596887 220.270718 
L 196.7917 219.661628 
L 196.889106 219.903036 
L 197.083918 221.267105 
L 198.02551 229.540928 
L 198.122916 229.398665 
L 198.28526 228.566894 
L 198.609947 225.363125 
L 199.03204 221.906913 
L 199.129446 221.763779 
L 199.161915 221.785398 
L 199.29179 222.210575 
L 199.51907 224.046077 
L 200.330788 231.447122 
L 200.687944 232.462194 
L 201.142506 233.11539 
L 201.369786 233.157717 
L 201.597067 232.930153 
L 201.954223 232.57167 
L 202.084098 232.713106 
L 202.27891 233.431481 
L 202.571128 235.692623 
L 203.220502 241.097537 
L 203.350377 241.309512 
L 203.382846 241.297427 
L 203.512721 240.996904 
L 203.740002 239.629246 
L 204.259501 234.526994 
L 205.201093 225.989856 
L 205.558249 224.13535 
L 205.753061 223.954208 
L 205.915405 224.251989 
L 207.27909 228.681666 
L 207.766121 230.69594 
L 207.928464 230.798193 
L 208.090808 230.616695 
L 208.545369 230.016773 
L 208.707713 230.193617 
L 208.967463 230.988724 
L 209.486962 233.561657 
L 210.461023 238.334915 
L 210.850647 239.138323 
L 211.27274 239.943124 
L 211.53249 241.01024 
L 211.857177 243.401713 
L 212.701363 250.261318 
L 212.863707 250.408686 
L 212.993582 250.187568 
L 213.253331 249.098427 
L 214.097517 245.080546 
L 214.389736 244.686396 
L 214.617017 244.708978 
L 215.753421 245.227519 
L 215.948233 245.069047 
L 216.143046 244.543145 
L 216.370326 243.141903 
L 216.695014 239.453294 
L 217.246981 233.366058 
L 217.376856 233.127163 
L 217.409325 233.161582 
L 217.5392 233.636494 
L 218.123636 237.277735 
L 218.221042 237.13223 
L 218.383386 236.036142 
L 218.675604 231.82613 
L 219.29251 222.754731 
L 219.519791 221.88537 
L 219.649665 221.931817 
L 220.006821 222.373372 
L 220.03929 222.330847 
L 220.169165 221.870069 
L 220.363977 220.134282 
L 220.688664 214.585763 
L 221.305569 203.89906 
L 221.500381 203.093472 
L 221.597787 203.286509 
L 221.760131 204.400679 
L 222.052349 208.301866 
L 223.091348 223.699356 
L 223.351097 224.755911 
L 223.54591 224.889645 
L 224.195284 224.776673 
L 224.714783 225.296801 
L 224.747251 225.266542 
L 224.909595 224.852884 
L 225.104407 223.621262 
L 225.396625 219.948112 
L 225.851187 210.553941 
L 226.403155 200.059684 
L 226.662905 198.238632 
L 226.760311 198.128702 
L 226.79278 198.150087 
L 226.922654 198.468713 
L 227.312279 200.427092 
L 227.864247 202.631304 
L 228.156465 204.297258 
L 228.481152 207.612797 
L 229.747431 222.55231 
L 229.974712 223.088573 
L 230.072118 222.904061 
L 230.234462 221.875302 
L 230.461743 218.56773 
L 230.78643 209.540352 
L 231.79296 177.348742 
L 231.857897 177.20179 
L 231.890366 177.257795 
L 232.020241 178.293655 
L 232.247521 182.626901 
L 232.929364 197.084765 
L 233.059239 197.585917 
L 233.091708 197.561229 
L 233.189114 197.153979 
L 233.416395 194.668693 
L 234.000831 187.761017 
L 234.098237 187.62472 
L 234.130706 187.658622 
L 234.260581 188.114357 
L 234.552799 189.424735 
L 234.585268 189.402802 
L 234.682674 188.865675 
L 234.845018 185.714063 
L 235.03983 176.593146 
L 235.332048 149.47175 
L 236.208703 54.361667 
L 236.241172 54.144 
L 236.27364 54.297069 
L 236.371047 56.934499 
L 236.565859 70.972353 
L 237.052889 130.95774 
L 237.507451 173.746515 
L 237.832138 187.669765 
L 238.124356 192.616435 
L 238.351637 193.667693 
L 238.449043 193.59121 
L 238.611387 192.870148 
L 238.871137 190.398187 
L 239.423104 182.239362 
L 239.942604 175.934504 
L 240.202353 174.679396 
L 240.299759 174.614876 
L 240.332228 174.643376 
L 240.462103 175.003256 
L 240.689384 176.529381 
L 241.04654 180.914362 
L 241.630976 191.644789 
L 242.247882 201.721499 
L 242.702443 205.381152 
L 243.059599 208.674757 
L 243.416755 214.49617 
L 244.715503 238.81003 
L 244.78044 238.869765 
L 244.812909 238.821918 
L 244.942784 238.105137 
L 245.170065 234.917419 
L 245.592158 224.547805 
L 246.306469 207.818207 
L 246.858437 200.144523 
L 247.312999 196.265599 
L 247.572749 195.453669 
L 247.670155 195.473366 
L 247.800029 195.789751 
L 248.02731 197.143333 
L 248.351997 200.701932 
L 249.618277 216.715624 
L 249.813089 216.975852 
L 249.942964 216.787924 
L 250.235182 215.787785 
L 250.754681 214.177593 
L 251.0469 213.260933 
L 251.306649 211.543212 
L 251.728742 206.676754 
L 252.118367 203.036041 
L 252.248242 202.746874 
L 252.28071 202.765953 
L 252.410585 203.207982 
L 252.637866 205.235929 
L 253.579458 215.571549 
L 253.709333 215.689207 
L 253.741802 215.664764 
L 253.904145 215.310377 
L 254.326238 214.27279 
L 254.423645 214.356391 
L 254.585988 214.914577 
L 254.878206 217.00709 
L 255.332768 220.02466 
L 255.430174 220.09849 
L 255.462643 220.055628 
L 255.592518 219.525466 
L 255.819799 217.243041 
L 256.761391 204.953231 
L 256.79386 204.957138 
L 256.891266 205.228183 
L 257.086078 206.819661 
L 257.54064 213.349157 
L 257.930264 217.550221 
L 258.125077 218.168476 
L 258.222483 218.081154 
L 258.384826 217.428202 
L 258.774451 214.468748 
L 259.131606 212.467055 
L 259.326418 212.280947 
L 259.488762 212.540933 
L 260.073199 213.726892 
L 260.235542 213.621452 
L 260.917385 212.794901 
L 260.949854 212.823679 
L 261.144666 213.204912 
L 261.501821 214.594669 
L 262.021321 216.414461 
L 262.573289 217.808244 
L 262.865507 219.663849 
L 264.03438 228.438281 
L 264.359067 229.054882 
L 264.521411 229.058029 
L 264.683754 228.8134 
L 264.911035 228.00093 
L 265.365597 225.200787 
L 265.690284 223.782115 
L 265.78769 223.745255 
L 265.820159 223.786502 
L 265.950034 224.24509 
L 266.177314 226.243822 
L 266.502001 231.508879 
L 267.476063 248.808636 
L 267.670875 249.380257 
L 267.768281 249.144858 
L 267.963093 247.763537 
L 268.352717 242.683295 
L 269.229372 231.117591 
L 269.489122 229.790639 
L 269.586528 229.772561 
L 269.716403 230.182336 
L 269.943684 231.939154 
L 270.657995 238.087188 
L 270.755401 238.16988 
L 270.78787 238.146874 
L 270.917745 237.830803 
L 271.209963 236.228139 
L 272.054149 231.313735 
L 272.411305 230.222624 
L 272.573649 230.155641 
L 272.703523 230.361768 
L 272.930804 231.300902 
L 273.28796 234.012275 
L 274.489302 244.350467 
L 274.619177 244.313452 
L 274.78152 243.823613 
L 275.495832 241.086059 
L 275.625707 241.298143 
L 275.852987 242.320736 
L 276.307549 245.793354 
L 277.671235 256.613001 
L 277.866047 256.767865 
L 278.02839 256.575552 
L 278.645296 255.172323 
L 279.067389 254.005369 
L 279.489482 252.00236 
L 280.463543 247.212984 
L 281.210323 243.606106 
L 281.664885 240.112879 
L 282.509071 233.216274 
L 282.768821 232.616929 
L 282.931164 232.653287 
L 283.125977 233.008685 
L 283.450664 234.145485 
L 283.840288 236.350543 
L 284.29485 240.420421 
L 285.431254 251.576103 
L 285.950754 253.751138 
L 286.307909 254.57216 
L 286.470253 254.570959 
L 286.665065 254.250927 
L 287.022221 253.665106 
L 287.119627 253.794896 
L 287.28197 254.537774 
L 287.509251 256.870826 
L 287.898876 263.714652 
L 288.515781 273.840367 
L 288.775531 275.284077 
L 288.872937 275.294704 
L 289.002812 274.890099 
L 289.230092 273.215621 
L 290.983402 257.13899 
L 291.308089 255.740949 
L 291.470433 255.614065 
L 291.600308 255.806415 
L 291.860057 256.772287 
L 292.509431 259.35281 
L 293.126337 261.200736 
L 293.613367 263.76046 
L 294.230272 268.110087 
L 294.977053 273.505327 
L 295.139396 273.692971 
L 295.269271 273.40846 
L 295.464083 272.269218 
L 295.821239 268.551202 
L 296.503082 261.623153 
L 296.762831 260.767134 
L 296.860237 260.78599 
L 297.022581 261.217771 
L 297.28233 262.783872 
L 298.061579 267.945866 
L 298.223923 268.075684 
L 298.353798 267.907422 
L 298.613547 267.057704 
L 299.230452 263.981728 
L 299.749952 260.444534 
L 300.561669 254.617001 
L 300.691544 254.502507 
L 300.724013 254.537151 
L 300.853888 254.941118 
L 301.081168 256.648398 
L 301.470793 261.782378 
L 302.152636 270.641811 
L 302.444854 272.066799 
L 302.574729 272.132209 
L 302.704604 271.889893 
L 302.964353 270.701505 
L 303.743602 266.59699 
L 303.938414 266.440538 
L 304.133226 266.601194 
L 304.425445 266.807396 
L 304.55532 266.641754 
L 304.750132 265.91441 
L 305.074819 263.552435 
L 305.594318 259.983883 
L 305.724193 259.798718 
L 305.756661 259.815315 
L 305.886536 260.140887 
L 306.113817 261.670035 
L 306.503442 266.427099 
L 307.412565 278.087809 
L 307.769721 280.222819 
L 307.997002 280.675573 
L 308.126877 280.61957 
L 308.28922 280.236768 
L 308.54897 278.967858 
L 309.685374 272.366897 
L 309.815249 272.435169 
L 310.010061 272.903999 
L 310.432154 274.738964 
L 312.640026 284.771229 
L 312.769901 284.702633 
L 312.964713 284.153542 
L 313.321869 282.20494 
L 313.841368 279.619788 
L 314.133586 279.095309 
L 314.328399 279.079686 
L 314.588148 279.331257 
L 315.594678 280.618831 
L 315.821959 280.517009 
L 316.04924 280.151134 
L 316.308989 279.291386 
L 316.698614 277.04169 
L 317.250582 273.972945 
L 317.412925 273.791522 
L 317.5428 273.981918 
L 317.770081 274.928952 
L 318.386986 277.770345 
L 318.516861 277.765924 
L 318.679205 277.413776 
L 319.361047 275.523451 
L 319.55586 275.657855 
L 319.815609 275.834168 
L 319.945484 275.649697 
L 320.140296 274.7691 
L 320.432515 272.061904 
L 321.016951 266.495261 
L 321.179295 266.229548 
L 321.276701 266.422198 
L 321.471513 267.477648 
L 321.958543 271.938245 
L 322.640386 277.228295 
L 323.874197 285.441821 
L 323.906666 285.434547 
L 324.03654 285.146612 
L 324.231353 283.956241 
L 324.620977 279.719162 
L 325.172945 274.22343 
L 325.530101 272.606662 
L 325.822319 272.122746 
L 326.082069 272.080663 
L 326.991192 272.311698 
L 327.478223 272.129155 
L 327.673035 272.337654 
L 327.900316 273.00675 
L 328.192534 274.711911 
L 328.647096 279.032249 
L 329.523751 287.390396 
L 329.913375 289.186798 
L 330.140656 289.525017 
L 330.303 289.454247 
L 330.530281 288.985009 
L 331.504342 286.408082 
L 331.666685 286.62002 
L 331.926435 287.516236 
L 333.322589 293.544344 
L 333.679745 294.125342 
L 333.874557 294.137896 
L 334.069369 293.903086 
L 334.394056 293.047154 
L 335.04343 290.494201 
L 336.244772 285.811689 
L 336.861677 284.628885 
L 337.640926 283.307766 
L 337.80327 283.459734 
L 338.030551 284.09688 
L 338.712393 286.328342 
L 338.842268 286.1514 
L 339.03708 285.280577 
L 339.361767 282.508924 
L 339.881267 278.254185 
L 340.04361 277.974256 
L 340.141016 278.152987 
L 340.30336 279.026374 
L 340.595578 282.112822 
L 341.634577 294.465585 
L 341.926795 295.49948 
L 342.186544 295.724058 
L 342.511231 295.667806 
L 342.80345 295.440891 
L 343.063199 294.887332 
L 343.387886 293.492677 
L 344.329479 288.946837 
L 344.621697 288.610144 
L 344.848978 288.671798 
L 345.108728 289.051255 
L 345.433415 290.003458 
L 346.212663 292.472436 
L 346.407476 292.537489 
L 346.667225 292.329403 
L 346.991912 292.111942 
L 347.154256 292.227321 
L 347.349068 292.673425 
L 347.641286 294.023355 
L 348.225723 298.228453 
L 348.680285 300.787312 
L 348.972503 301.431712 
L 349.167315 301.455359 
L 349.362127 301.22232 
L 349.654346 300.463099 
L 350.011502 298.852465 
L 351.082969 293.40305 
L 351.212843 293.474342 
L 351.407656 293.988309 
L 351.862217 296.164877 
L 352.284311 297.681965 
L 352.641466 298.183488 
L 352.998622 298.680784 
L 353.355778 299.680698 
L 354.329839 302.707799 
L 354.622057 303.004303 
L 354.784401 302.934467 
L 354.979213 302.582578 
L 355.271431 301.524327 
L 356.083149 298.279141 
L 356.245492 298.232218 
L 356.407836 298.46332 
L 356.700054 299.394642 
L 357.511772 302.140958 
L 357.901396 302.726402 
L 358.128677 302.78787 
L 358.323489 302.627482 
L 358.615707 302.036966 
L 359.167675 300.89621 
L 359.330019 300.91104 
L 359.524831 301.232401 
L 359.849518 302.336057 
L 360.498892 304.530505 
L 360.693704 304.671458 
L 360.856048 304.512077 
L 361.083329 303.871926 
L 361.570359 301.552253 
L 361.992452 300.082912 
L 362.219733 299.91082 
L 362.414545 300.077944 
L 362.80417 300.851452 
L 363.356138 301.783563 
L 363.908106 302.617926 
L 364.979573 304.704136 
L 365.271791 304.653245 
L 366.732883 304.063515 
L 367.025101 304.151285 
L 367.382257 304.553849 
L 368.096568 305.410808 
L 368.843348 305.8135 
L 369.330379 305.874638 
L 369.817409 305.950269 
L 370.174565 306.27598 
L 370.759002 306.826347 
L 370.986283 306.764519 
L 371.246032 306.405768 
L 372.252562 304.609709 
L 372.447374 304.833054 
L 372.80453 305.696172 
L 373.421435 307.100767 
L 373.81106 307.455636 
L 374.29809 307.569245 
L 376.116337 307.584 
L 398.487273 307.584 
L 398.487273 307.584 
" style="fill:none;stroke:#ff7f0e;stroke-linecap:square;stroke-width:1.5;"/>
   </g>
   <g id="patch_103">
    <path d="M 57.6 307.584 
L 57.6 41.472 
" style="fill:none;stroke:#000000;stroke-linecap:square;stroke-linejoin:miter;stroke-width:0.8;"/>
   </g>
   <g id="patch_104">
    <path d="M 414.72 307.584 
L 414.72 41.472 
" style="fill:none;stroke:#000000;stroke-linecap:square;stroke-linejoin:miter;stroke-width:0.8;"/>
   </g>
   <g id="patch_105">
    <path d="M 57.6 307.584 
L 414.72 307.584 
" style="fill:none;stroke:#000000;stroke-linecap:square;stroke-linejoin:miter;stroke-width:0.8;"/>
   </g>
   <g id="patch_106">
    <path d="M 57.6 41.472 
L 414.72 41.472 
" style="fill:none;stroke:#000000;stroke-linecap:square;stroke-linejoin:miter;stroke-width:0.8;"/>
   </g>
  </g>
 </g>
 <defs>
  <clipPath id="p0fb74617c5">
   <rect height="266.112" width="357.12" x="57.6" y="41.472"/>
  </clipPath>
 </defs>
</svg>
