<?xml version="1.0" encoding="utf-8" standalone="no"?>
<!DOCTYPE svg PUBLIC "-//W3C//DTD SVG 1.1//EN"
  "http://www.w3.org/Graphics/SVG/1.1/DTD/svg11.dtd">
<!-- Created with matplotlib (https://matplotlib.org/) -->
<svg height="345.6pt" version="1.1" viewBox="0 0 460.8 345.6" width="460.8pt" xmlns="http://www.w3.org/2000/svg" xmlns:xlink="http://www.w3.org/1999/xlink">
 <defs>
  <style type="text/css">
*{stroke-linecap:butt;stroke-linejoin:round;}
  </style>
 </defs>
 <g id="figure_1">
  <g id="patch_1">
   <path d="M 0 345.6 
L 460.8 345.6 
L 460.8 0 
L 0 0 
z
" style="fill:#ffffff;"/>
  </g>
  <g id="axes_1">
   <g id="patch_2">
    <path d="M 57.6 307.584 
L 414.72 307.584 
L 414.72 41.472 
L 57.6 41.472 
z
" style="fill:#ffffff;"/>
   </g>
   <g id="patch_3">
    <path clip-path="url(#p2ae33bdd47)" d="M 100.183934 307.584 
L 102.903817 307.584 
L 102.903817 305.806967 
L 100.183934 305.806967 
z
" style="fill:#1f77b4;"/>
   </g>
   <g id="patch_4">
    <path clip-path="url(#p2ae33bdd47)" d="M 102.903817 307.584 
L 105.623685 307.584 
L 105.623685 302.252871 
L 102.903817 302.252871 
z
" style="fill:#1f77b4;"/>
   </g>
   <g id="patch_5">
    <path clip-path="url(#p2ae33bdd47)" d="M 105.623685 307.584 
L 108.34356 307.584 
L 108.34356 300.475848 
L 105.623685 300.475848 
z
" style="fill:#1f77b4;"/>
   </g>
   <g id="patch_6">
    <path clip-path="url(#p2ae33bdd47)" d="M 108.34356 307.584 
L 111.063444 307.584 
L 111.063444 303.43759 
L 108.34356 303.43759 
z
" style="fill:#1f77b4;"/>
   </g>
   <g id="patch_7">
    <path clip-path="url(#p2ae33bdd47)" d="M 111.063451 307.584 
L 113.783327 307.584 
L 113.783327 302.252886 
L 111.063451 302.252886 
z
" style="fill:#1f77b4;"/>
   </g>
   <g id="patch_8">
    <path clip-path="url(#p2ae33bdd47)" d="M 113.783319 307.584 
L 116.503195 307.584 
L 116.503195 301.66054 
L 113.783319 301.66054 
z
" style="fill:#1f77b4;"/>
   </g>
   <g id="patch_9">
    <path clip-path="url(#p2ae33bdd47)" d="M 116.503202 307.584 
L 119.223078 307.584 
L 119.223078 293.367696 
L 116.503202 293.367696 
z
" style="fill:#1f77b4;"/>
   </g>
   <g id="patch_10">
    <path clip-path="url(#p2ae33bdd47)" d="M 119.22307 307.584 
L 121.942946 307.584 
L 121.942946 298.106464 
L 119.22307 298.106464 
z
" style="fill:#1f77b4;"/>
   </g>
   <g id="patch_11">
    <path clip-path="url(#p2ae33bdd47)" d="M 121.942954 307.584 
L 124.662829 307.584 
L 124.662829 295.144734 
L 121.942954 295.144734 
z
" style="fill:#1f77b4;"/>
   </g>
   <g id="patch_12">
    <path clip-path="url(#p2ae33bdd47)" d="M 124.662821 307.584 
L 127.382697 307.584 
L 127.382697 297.514118 
L 124.662821 297.514118 
z
" style="fill:#1f77b4;"/>
   </g>
   <g id="patch_13">
    <path clip-path="url(#p2ae33bdd47)" d="M 127.382697 307.584 
L 130.10258 307.584 
L 130.10258 299.291179 
L 127.382697 299.291179 
z
" style="fill:#1f77b4;"/>
   </g>
   <g id="patch_14">
    <path clip-path="url(#p2ae33bdd47)" d="M 130.102588 307.584 
L 132.822464 307.584 
L 132.822464 292.77535 
L 130.102588 292.77535 
z
" style="fill:#1f77b4;"/>
   </g>
   <g id="patch_15">
    <path clip-path="url(#p2ae33bdd47)" d="M 132.822456 307.584 
L 135.542331 307.584 
L 135.542331 284.482505 
L 132.822456 284.482505 
z
" style="fill:#1f77b4;"/>
   </g>
   <g id="patch_16">
    <path clip-path="url(#p2ae33bdd47)" d="M 135.542339 307.584 
L 138.262215 307.584 
L 138.262215 283.890159 
L 135.542339 283.890159 
z
" style="fill:#1f77b4;"/>
   </g>
   <g id="patch_17">
    <path clip-path="url(#p2ae33bdd47)" d="M 138.262207 307.584 
L 140.982083 307.584 
L 140.982083 289.81362 
L 138.262207 289.81362 
z
" style="fill:#1f77b4;"/>
   </g>
   <g id="patch_18">
    <path clip-path="url(#p2ae33bdd47)" d="M 140.98209 307.584 
L 143.701966 307.584 
L 143.701966 282.705467 
L 140.98209 282.705467 
z
" style="fill:#1f77b4;"/>
   </g>
   <g id="patch_19">
    <path clip-path="url(#p2ae33bdd47)" d="M 143.701958 307.584 
L 146.421834 307.584 
L 146.421834 288.628928 
L 143.701958 288.628928 
z
" style="fill:#1f77b4;"/>
   </g>
   <g id="patch_20">
    <path clip-path="url(#p2ae33bdd47)" d="M 146.421834 307.584 
L 149.141717 307.584 
L 149.141717 286.259604 
L 146.421834 286.259604 
z
" style="fill:#1f77b4;"/>
   </g>
   <g id="patch_21">
    <path clip-path="url(#p2ae33bdd47)" d="M 149.141725 307.584 
L 151.8616 307.584 
L 151.8616 282.705467 
L 149.141725 282.705467 
z
" style="fill:#1f77b4;"/>
   </g>
   <g id="patch_22">
    <path clip-path="url(#p2ae33bdd47)" d="M 151.861593 307.584 
L 154.581468 307.584 
L 154.581468 288.036582 
L 151.861593 288.036582 
z
" style="fill:#1f77b4;"/>
   </g>
   <g id="patch_23">
    <path clip-path="url(#p2ae33bdd47)" d="M 154.581476 307.584 
L 157.301351 307.584 
L 157.301351 289.81362 
L 154.581476 289.81362 
z
" style="fill:#1f77b4;"/>
   </g>
   <g id="patch_24">
    <path clip-path="url(#p2ae33bdd47)" d="M 157.301344 307.584 
L 160.021219 307.584 
L 160.021219 288.628928 
L 157.301344 288.628928 
z
" style="fill:#1f77b4;"/>
   </g>
   <g id="patch_25">
    <path clip-path="url(#p2ae33bdd47)" d="M 160.021227 307.584 
L 162.741103 307.584 
L 162.741103 284.482505 
L 160.021227 284.482505 
z
" style="fill:#1f77b4;"/>
   </g>
   <g id="patch_26">
    <path clip-path="url(#p2ae33bdd47)" d="M 162.741095 307.584 
L 165.46097 307.584 
L 165.46097 275.597315 
L 162.741095 275.597315 
z
" style="fill:#1f77b4;"/>
   </g>
   <g id="patch_27">
    <path clip-path="url(#p2ae33bdd47)" d="M 165.460978 307.584 
L 168.180854 307.584 
L 168.180854 278.559045 
L 165.460978 278.559045 
z
" style="fill:#1f77b4;"/>
   </g>
   <g id="patch_28">
    <path clip-path="url(#p2ae33bdd47)" d="M 168.180846 307.584 
L 170.900729 307.584 
L 170.900729 273.228029 
L 168.180846 273.228029 
z
" style="fill:#1f77b4;"/>
   </g>
   <g id="patch_29">
    <path clip-path="url(#p2ae33bdd47)" d="M 170.900729 307.584 
L 173.620605 307.584 
L 173.620605 278.559045 
L 170.900729 278.559045 
z
" style="fill:#1f77b4;"/>
   </g>
   <g id="patch_30">
    <path clip-path="url(#p2ae33bdd47)" d="M 173.620605 307.584 
L 176.34048 307.584 
L 176.34048 273.227931 
L 173.620605 273.227931 
z
" style="fill:#1f77b4;"/>
   </g>
   <g id="patch_31">
    <path clip-path="url(#p2ae33bdd47)" d="M 176.34048 307.584 
L 179.060356 307.584 
L 179.060356 268.489163 
L 176.34048 268.489163 
z
" style="fill:#1f77b4;"/>
   </g>
   <g id="patch_32">
    <path clip-path="url(#p2ae33bdd47)" d="M 179.060356 307.584 
L 181.780232 307.584 
L 181.780232 266.712125 
L 179.060356 266.712125 
z
" style="fill:#1f77b4;"/>
   </g>
   <g id="patch_33">
    <path clip-path="url(#p2ae33bdd47)" d="M 181.780232 307.584 
L 184.500111 307.584 
L 184.500111 249.534173 
L 181.780232 249.534173 
z
" style="fill:#1f77b4;"/>
   </g>
   <g id="patch_34">
    <path clip-path="url(#p2ae33bdd47)" d="M 184.500111 307.584 
L 187.219987 307.584 
L 187.219987 250.126437 
L 184.500111 250.126437 
z
" style="fill:#1f77b4;"/>
   </g>
   <g id="patch_35">
    <path clip-path="url(#p2ae33bdd47)" d="M 187.219987 307.584 
L 189.939862 307.584 
L 189.939862 256.049897 
L 187.219987 256.049897 
z
" style="fill:#1f77b4;"/>
   </g>
   <g id="patch_36">
    <path clip-path="url(#p2ae33bdd47)" d="M 189.939858 307.584 
L 192.659738 307.584 
L 192.659738 238.279615 
L 189.939858 238.279615 
z
" style="fill:#1f77b4;"/>
   </g>
   <g id="patch_37">
    <path clip-path="url(#p2ae33bdd47)" d="M 192.659742 307.584 
L 195.379617 307.584 
L 195.379617 244.795323 
L 192.659742 244.795323 
z
" style="fill:#1f77b4;"/>
   </g>
   <g id="patch_38">
    <path clip-path="url(#p2ae33bdd47)" d="M 195.379617 307.584 
L 198.099493 307.584 
L 198.099493 224.655558 
L 195.379617 224.655558 
z
" style="fill:#1f77b4;"/>
   </g>
   <g id="patch_39">
    <path clip-path="url(#p2ae33bdd47)" d="M 198.099493 307.584 
L 200.819368 307.584 
L 200.819368 227.024942 
L 198.099493 227.024942 
z
" style="fill:#1f77b4;"/>
   </g>
   <g id="patch_40">
    <path clip-path="url(#p2ae33bdd47)" d="M 200.819368 307.584 
L 203.539248 307.584 
L 203.539248 226.432712 
L 200.819368 226.432712 
z
" style="fill:#1f77b4;"/>
   </g>
   <g id="patch_41">
    <path clip-path="url(#p2ae33bdd47)" d="M 203.539248 307.584 
L 206.259123 307.584 
L 206.259123 213.99333 
L 203.539248 213.99333 
z
" style="fill:#1f77b4;"/>
   </g>
   <g id="patch_42">
    <path clip-path="url(#p2ae33bdd47)" d="M 206.259123 307.584 
L 208.978999 307.584 
L 208.978999 223.470866 
L 206.259123 223.470866 
z
" style="fill:#1f77b4;"/>
   </g>
   <g id="patch_43">
    <path clip-path="url(#p2ae33bdd47)" d="M 208.978999 307.584 
L 211.698876 307.584 
L 211.698876 237.094875 
L 208.978999 237.094875 
z
" style="fill:#1f77b4;"/>
   </g>
   <g id="patch_44">
    <path clip-path="url(#p2ae33bdd47)" d="M 211.698878 307.584 
L 214.418756 307.584 
L 214.418756 237.094875 
L 211.698878 237.094875 
z
" style="fill:#1f77b4;"/>
   </g>
   <g id="patch_45">
    <path clip-path="url(#p2ae33bdd47)" d="M 214.418754 307.584 
L 217.138629 307.584 
L 217.138629 241.833593 
L 214.418754 241.833593 
z
" style="fill:#1f77b4;"/>
   </g>
   <g id="patch_46">
    <path clip-path="url(#p2ae33bdd47)" d="M 217.138629 307.584 
L 219.858507 307.584 
L 219.858507 224.655617 
L 217.138629 224.655617 
z
" style="fill:#1f77b4;"/>
   </g>
   <g id="patch_47">
    <path clip-path="url(#p2ae33bdd47)" d="M 219.858507 307.584 
L 222.578382 307.584 
L 222.578382 201.554064 
L 219.858507 201.554064 
z
" style="fill:#1f77b4;"/>
   </g>
   <g id="patch_48">
    <path clip-path="url(#p2ae33bdd47)" d="M 222.578382 307.584 
L 225.29826 307.584 
L 225.29826 224.655617 
L 222.578382 224.655617 
z
" style="fill:#1f77b4;"/>
   </g>
   <g id="patch_49">
    <path clip-path="url(#p2ae33bdd47)" d="M 225.29826 307.584 
L 228.018137 307.584 
L 228.018137 202.738793 
L 225.29826 202.738793 
z
" style="fill:#1f77b4;"/>
   </g>
   <g id="patch_50">
    <path clip-path="url(#p2ae33bdd47)" d="M 228.018137 307.584 
L 230.738013 307.584 
L 230.738013 209.846943 
L 228.018137 209.846943 
z
" style="fill:#1f77b4;"/>
   </g>
   <g id="patch_51">
    <path clip-path="url(#p2ae33bdd47)" d="M 230.738013 307.584 
L 233.45789 307.584 
L 233.45789 198.592372 
L 230.738013 198.592372 
z
" style="fill:#1f77b4;"/>
   </g>
   <g id="patch_52">
    <path clip-path="url(#p2ae33bdd47)" d="M 233.45789 307.584 
L 236.177766 307.584 
L 236.177766 105.594081 
L 233.45789 105.594081 
z
" style="fill:#1f77b4;"/>
   </g>
   <g id="patch_53">
    <path clip-path="url(#p2ae33bdd47)" d="M 236.177766 307.584 
L 238.897643 307.584 
L 238.897643 194.445952 
L 236.177766 194.445952 
z
" style="fill:#1f77b4;"/>
   </g>
   <g id="patch_54">
    <path clip-path="url(#p2ae33bdd47)" d="M 238.897643 307.584 
L 241.617519 307.584 
L 241.617519 176.083232 
L 238.897643 176.083232 
z
" style="fill:#1f77b4;"/>
   </g>
   <g id="patch_55">
    <path clip-path="url(#p2ae33bdd47)" d="M 241.617519 307.584 
L 244.337396 307.584 
L 244.337396 212.808672 
L 241.617519 212.808672 
z
" style="fill:#1f77b4;"/>
   </g>
   <g id="patch_56">
    <path clip-path="url(#p2ae33bdd47)" d="M 244.337397 307.584 
L 247.057273 307.584 
L 247.057273 221.101513 
L 244.337397 221.101513 
z
" style="fill:#1f77b4;"/>
   </g>
   <g id="patch_57">
    <path clip-path="url(#p2ae33bdd47)" d="M 247.057272 307.584 
L 249.77715 307.584 
L 249.77715 209.254632 
L 247.057272 209.254632 
z
" style="fill:#1f77b4;"/>
   </g>
   <g id="patch_58">
    <path clip-path="url(#p2ae33bdd47)" d="M 249.77715 307.584 
L 252.497025 307.584 
L 252.497025 214.585676 
L 249.77715 214.585676 
z
" style="fill:#1f77b4;"/>
   </g>
   <g id="patch_59">
    <path clip-path="url(#p2ae33bdd47)" d="M 252.497027 307.584 
L 255.216905 307.584 
L 255.216905 215.178088 
L 252.497027 215.178088 
z
" style="fill:#1f77b4;"/>
   </g>
   <g id="patch_60">
    <path clip-path="url(#p2ae33bdd47)" d="M 255.216903 307.584 
L 257.936778 307.584 
L 257.936778 208.662216 
L 255.216903 208.662216 
z
" style="fill:#1f77b4;"/>
   </g>
   <g id="patch_61">
    <path clip-path="url(#p2ae33bdd47)" d="M 257.936778 307.584 
L 260.656656 307.584 
L 260.656656 211.031669 
L 257.936778 211.031669 
z
" style="fill:#1f77b4;"/>
   </g>
   <g id="patch_62">
    <path clip-path="url(#p2ae33bdd47)" d="M 260.656658 307.584 
L 263.376535 307.584 
L 263.376535 209.846977 
L 260.656658 209.846977 
z
" style="fill:#1f77b4;"/>
   </g>
   <g id="patch_63">
    <path clip-path="url(#p2ae33bdd47)" d="M 263.376533 307.584 
L 266.096409 307.584 
L 266.096409 225.84025 
L 263.376533 225.84025 
z
" style="fill:#1f77b4;"/>
   </g>
   <g id="patch_64">
    <path clip-path="url(#p2ae33bdd47)" d="M 266.096409 307.584 
L 268.816285 307.584 
L 268.816285 240.648901 
L 266.096409 240.648901 
z
" style="fill:#1f77b4;"/>
   </g>
   <g id="patch_65">
    <path clip-path="url(#p2ae33bdd47)" d="M 268.816281 307.584 
L 271.53616 307.584 
L 271.53616 230.579128 
L 268.816281 230.579128 
z
" style="fill:#1f77b4;"/>
   </g>
   <g id="patch_66">
    <path clip-path="url(#p2ae33bdd47)" d="M 271.536164 307.584 
L 274.25604 307.584 
L 274.25604 228.80198 
L 271.536164 228.80198 
z
" style="fill:#1f77b4;"/>
   </g>
   <g id="patch_67">
    <path clip-path="url(#p2ae33bdd47)" d="M 274.25604 307.584 
L 276.975915 307.584 
L 276.975915 242.425939 
L 274.25604 242.425939 
z
" style="fill:#1f77b4;"/>
   </g>
   <g id="patch_68">
    <path clip-path="url(#p2ae33bdd47)" d="M 276.975915 307.584 
L 279.695791 307.584 
L 279.695791 253.680513 
L 276.975915 253.680513 
z
" style="fill:#1f77b4;"/>
   </g>
   <g id="patch_69">
    <path clip-path="url(#p2ae33bdd47)" d="M 279.695791 307.584 
L 282.41567 307.584 
L 282.41567 251.903554 
L 279.695791 251.903554 
z
" style="fill:#1f77b4;"/>
   </g>
   <g id="patch_70">
    <path clip-path="url(#p2ae33bdd47)" d="M 282.41567 307.584 
L 285.135546 307.584 
L 285.135546 245.980015 
L 282.41567 245.980015 
z
" style="fill:#1f77b4;"/>
   </g>
   <g id="patch_71">
    <path clip-path="url(#p2ae33bdd47)" d="M 285.135546 307.584 
L 287.855421 307.584 
L 287.855421 253.088167 
L 285.135546 253.088167 
z
" style="fill:#1f77b4;"/>
   </g>
   <g id="patch_72">
    <path clip-path="url(#p2ae33bdd47)" d="M 287.855417 307.584 
L 290.575297 307.584 
L 290.575297 267.304528 
L 287.855417 267.304528 
z
" style="fill:#1f77b4;"/>
   </g>
   <g id="patch_73">
    <path clip-path="url(#p2ae33bdd47)" d="M 290.575301 307.584 
L 293.295176 307.584 
L 293.295176 264.935087 
L 290.575301 264.935087 
z
" style="fill:#1f77b4;"/>
   </g>
   <g id="patch_74">
    <path clip-path="url(#p2ae33bdd47)" d="M 293.295176 307.584 
L 296.015052 307.584 
L 296.015052 277.966699 
L 293.295176 277.966699 
z
" style="fill:#1f77b4;"/>
   </g>
   <g id="patch_75">
    <path clip-path="url(#p2ae33bdd47)" d="M 296.015052 307.584 
L 298.734927 307.584 
L 298.734927 266.712125 
L 296.015052 266.712125 
z
" style="fill:#1f77b4;"/>
   </g>
   <g id="patch_76">
    <path clip-path="url(#p2ae33bdd47)" d="M 298.734927 307.584 
L 301.454803 307.584 
L 301.454803 266.119779 
L 298.734927 266.119779 
z
" style="fill:#1f77b4;"/>
   </g>
   <g id="patch_77">
    <path clip-path="url(#p2ae33bdd47)" d="M 301.454803 307.584 
L 304.174686 307.584 
L 304.174686 273.820373 
L 301.454803 273.820373 
z
" style="fill:#1f77b4;"/>
   </g>
   <g id="patch_78">
    <path clip-path="url(#p2ae33bdd47)" d="M 304.174686 307.584 
L 306.894562 307.584 
L 306.894562 275.004969 
L 304.174686 275.004969 
z
" style="fill:#1f77b4;"/>
   </g>
   <g id="patch_79">
    <path clip-path="url(#p2ae33bdd47)" d="M 306.89457 307.584 
L 309.614445 307.584 
L 309.614445 283.297813 
L 306.89457 283.297813 
z
" style="fill:#1f77b4;"/>
   </g>
   <g id="patch_80">
    <path clip-path="url(#p2ae33bdd47)" d="M 309.614437 307.584 
L 312.334313 307.584 
L 312.334313 282.113121 
L 309.614437 282.113121 
z
" style="fill:#1f77b4;"/>
   </g>
   <g id="patch_81">
    <path clip-path="url(#p2ae33bdd47)" d="M 312.334321 307.584 
L 315.054196 307.584 
L 315.054196 288.628928 
L 312.334321 288.628928 
z
" style="fill:#1f77b4;"/>
   </g>
   <g id="patch_82">
    <path clip-path="url(#p2ae33bdd47)" d="M 315.054189 307.584 
L 317.774064 307.584 
L 317.774064 285.074852 
L 315.054189 285.074852 
z
" style="fill:#1f77b4;"/>
   </g>
   <g id="patch_83">
    <path clip-path="url(#p2ae33bdd47)" d="M 317.774072 307.584 
L 320.493947 307.584 
L 320.493947 288.628928 
L 317.774072 288.628928 
z
" style="fill:#1f77b4;"/>
   </g>
   <g id="patch_84">
    <path clip-path="url(#p2ae33bdd47)" d="M 320.49394 307.584 
L 323.213815 307.584 
L 323.213815 282.113121 
L 320.49394 282.113121 
z
" style="fill:#1f77b4;"/>
   </g>
   <g id="patch_85">
    <path clip-path="url(#p2ae33bdd47)" d="M 323.213815 307.584 
L 325.933699 307.584 
L 325.933699 290.406015 
L 323.213815 290.406015 
z
" style="fill:#1f77b4;"/>
   </g>
   <g id="patch_86">
    <path clip-path="url(#p2ae33bdd47)" d="M 325.933706 307.584 
L 328.653582 307.584 
L 328.653582 283.890159 
L 325.933706 283.890159 
z
" style="fill:#1f77b4;"/>
   </g>
   <g id="patch_87">
    <path clip-path="url(#p2ae33bdd47)" d="M 328.653574 307.584 
L 331.37345 307.584 
L 331.37345 294.552388 
L 328.653574 294.552388 
z
" style="fill:#1f77b4;"/>
   </g>
   <g id="patch_88">
    <path clip-path="url(#p2ae33bdd47)" d="M 331.373457 307.584 
L 334.093333 307.584 
L 334.093333 296.329426 
L 331.373457 296.329426 
z
" style="fill:#1f77b4;"/>
   </g>
   <g id="patch_89">
    <path clip-path="url(#p2ae33bdd47)" d="M 334.093325 307.584 
L 336.813201 307.584 
L 336.813201 294.552388 
L 334.093325 294.552388 
z
" style="fill:#1f77b4;"/>
   </g>
   <g id="patch_90">
    <path clip-path="url(#p2ae33bdd47)" d="M 336.813209 307.584 
L 339.533084 307.584 
L 339.533084 293.367696 
L 336.813209 293.367696 
z
" style="fill:#1f77b4;"/>
   </g>
   <g id="patch_91">
    <path clip-path="url(#p2ae33bdd47)" d="M 339.533076 307.584 
L 342.252952 307.584 
L 342.252952 293.367696 
L 339.533076 293.367696 
z
" style="fill:#1f77b4;"/>
   </g>
   <g id="patch_92">
    <path clip-path="url(#p2ae33bdd47)" d="M 342.252952 307.584 
L 344.972835 307.584 
L 344.972835 296.921802 
L 342.252952 296.921802 
z
" style="fill:#1f77b4;"/>
   </g>
   <g id="patch_93">
    <path clip-path="url(#p2ae33bdd47)" d="M 344.972843 307.584 
L 347.692719 307.584 
L 347.692719 297.514118 
L 344.972843 297.514118 
z
" style="fill:#1f77b4;"/>
   </g>
   <g id="patch_94">
    <path clip-path="url(#p2ae33bdd47)" d="M 347.692711 307.584 
L 350.412586 307.584 
L 350.412586 302.252886 
L 347.692711 302.252886 
z
" style="fill:#1f77b4;"/>
   </g>
   <g id="patch_95">
    <path clip-path="url(#p2ae33bdd47)" d="M 350.412594 307.584 
L 353.13247 307.584 
L 353.13247 298.69881 
L 350.412594 298.69881 
z
" style="fill:#1f77b4;"/>
   </g>
   <g id="patch_96">
    <path clip-path="url(#p2ae33bdd47)" d="M 353.132462 307.584 
L 355.852337 307.584 
L 355.852337 304.62227 
L 353.132462 304.62227 
z
" style="fill:#1f77b4;"/>
   </g>
   <g id="patch_97">
    <path clip-path="url(#p2ae33bdd47)" d="M 355.852345 307.584 
L 358.572221 307.584 
L 358.572221 302.845232 
L 355.852345 302.845232 
z
" style="fill:#1f77b4;"/>
   </g>
   <g id="patch_98">
    <path clip-path="url(#p2ae33bdd47)" d="M 358.572213 307.584 
L 361.292089 307.584 
L 361.292089 304.62227 
L 358.572213 304.62227 
z
" style="fill:#1f77b4;"/>
   </g>
   <g id="patch_99">
    <path clip-path="url(#p2ae33bdd47)" d="M 361.292089 307.584 
L 364.011972 307.584 
L 364.011972 302.252901 
L 361.292089 302.252901 
z
" style="fill:#1f77b4;"/>
   </g>
   <g id="patch_100">
    <path clip-path="url(#p2ae33bdd47)" d="M 364.01198 307.584 
L 366.731847 307.584 
L 366.731847 306.399308 
L 364.01198 306.399308 
z
" style="fill:#1f77b4;"/>
   </g>
   <g id="patch_101">
    <path clip-path="url(#p2ae33bdd47)" d="M 366.731847 307.584 
L 369.451715 307.584 
L 369.451715 305.806957 
L 366.731847 305.806957 
z
" style="fill:#1f77b4;"/>
   </g>
   <g id="patch_102">
    <path clip-path="url(#p2ae33bdd47)" d="M 369.451715 307.584 
L 372.171599 307.584 
L 372.171599 305.806967 
L 369.451715 305.806967 
z
" style="fill:#1f77b4;"/>
   </g>
   <g id="matplotlib.axis_1">
    <g id="xtick_1">
     <g id="line2d_1">
      <defs>
       <path d="M 0 0 
L 0 3.5 
" id="m8900ccf712" style="stroke:#000000;stroke-width:0.8;"/>
      </defs>
      <g>
       <use style="stroke:#000000;stroke-width:0.8;" x="106.300346" xlink:href="#m8900ccf712" y="307.584"/>
      </g>
     </g>
     <g id="text_1">
      <!-- −2 -->
      <defs>
       <path d="M 10.59375 35.5 
L 73.1875 35.5 
L 73.1875 27.203125 
L 10.59375 27.203125 
z
" id="DejaVuSans-8722"/>
       <path d="M 19.1875 8.296875 
L 53.609375 8.296875 
L 53.609375 0 
L 7.328125 0 
L 7.328125 8.296875 
Q 12.9375 14.109375 22.625 23.890625 
Q 32.328125 33.6875 34.8125 36.53125 
Q 39.546875 41.84375 41.421875 45.53125 
Q 43.3125 49.21875 43.3125 52.78125 
Q 43.3125 58.59375 39.234375 62.25 
Q 35.15625 65.921875 28.609375 65.921875 
Q 23.96875 65.921875 18.8125 64.3125 
Q 13.671875 62.703125 7.8125 59.421875 
L 7.8125 69.390625 
Q 13.765625 71.78125 18.9375 73 
Q 24.125 74.21875 28.421875 74.21875 
Q 39.75 74.21875 46.484375 68.546875 
Q 53.21875 62.890625 53.21875 53.421875 
Q 53.21875 48.921875 51.53125 44.890625 
Q 49.859375 40.875 45.40625 35.40625 
Q 44.1875 33.984375 37.640625 27.21875 
Q 31.109375 20.453125 19.1875 8.296875 
z
" id="DejaVuSans-50"/>
      </defs>
      <g transform="translate(93.769487 327.501344)scale(0.17 -0.17)">
       <use xlink:href="#DejaVuSans-8722"/>
       <use x="83.789062" xlink:href="#DejaVuSans-50"/>
      </g>
     </g>
    </g>
    <g id="xtick_2">
     <g id="line2d_2">
      <g>
       <use style="stroke:#000000;stroke-width:0.8;" x="171.235584" xlink:href="#m8900ccf712" y="307.584"/>
      </g>
     </g>
     <g id="text_2">
      <!-- −1 -->
      <defs>
       <path d="M 12.40625 8.296875 
L 28.515625 8.296875 
L 28.515625 63.921875 
L 10.984375 60.40625 
L 10.984375 69.390625 
L 28.421875 72.90625 
L 38.28125 72.90625 
L 38.28125 8.296875 
L 54.390625 8.296875 
L 54.390625 0 
L 12.40625 0 
z
" id="DejaVuSans-49"/>
      </defs>
      <g transform="translate(158.704725 327.501344)scale(0.17 -0.17)">
       <use xlink:href="#DejaVuSans-8722"/>
       <use x="83.789062" xlink:href="#DejaVuSans-49"/>
      </g>
     </g>
    </g>
    <g id="xtick_3">
     <g id="line2d_3">
      <g>
       <use style="stroke:#000000;stroke-width:0.8;" x="236.170823" xlink:href="#m8900ccf712" y="307.584"/>
      </g>
     </g>
     <g id="text_3">
      <!-- 0 -->
      <defs>
       <path d="M 31.78125 66.40625 
Q 24.171875 66.40625 20.328125 58.90625 
Q 16.5 51.421875 16.5 36.375 
Q 16.5 21.390625 20.328125 13.890625 
Q 24.171875 6.390625 31.78125 6.390625 
Q 39.453125 6.390625 43.28125 13.890625 
Q 47.125 21.390625 47.125 36.375 
Q 47.125 51.421875 43.28125 58.90625 
Q 39.453125 66.40625 31.78125 66.40625 
z
M 31.78125 74.21875 
Q 44.046875 74.21875 50.515625 64.515625 
Q 56.984375 54.828125 56.984375 36.375 
Q 56.984375 17.96875 50.515625 8.265625 
Q 44.046875 -1.421875 31.78125 -1.421875 
Q 19.53125 -1.421875 13.0625 8.265625 
Q 6.59375 17.96875 6.59375 36.375 
Q 6.59375 54.828125 13.0625 64.515625 
Q 19.53125 74.21875 31.78125 74.21875 
z
" id="DejaVuSans-48"/>
      </defs>
      <g transform="translate(230.762698 327.501344)scale(0.17 -0.17)">
       <use xlink:href="#DejaVuSans-48"/>
      </g>
     </g>
    </g>
    <g id="xtick_4">
     <g id="line2d_4">
      <g>
       <use style="stroke:#000000;stroke-width:0.8;" x="301.106061" xlink:href="#m8900ccf712" y="307.584"/>
      </g>
     </g>
     <g id="text_4">
      <!-- 1 -->
      <g transform="translate(295.697936 327.501344)scale(0.17 -0.17)">
       <use xlink:href="#DejaVuSans-49"/>
      </g>
     </g>
    </g>
    <g id="xtick_5">
     <g id="line2d_5">
      <g>
       <use style="stroke:#000000;stroke-width:0.8;" x="366.041299" xlink:href="#m8900ccf712" y="307.584"/>
      </g>
     </g>
     <g id="text_5">
      <!-- 2 -->
      <g transform="translate(360.633174 327.501344)scale(0.17 -0.17)">
       <use xlink:href="#DejaVuSans-50"/>
      </g>
     </g>
    </g>
    <g id="text_6">
     <!-- Position in Radian -->
     <defs>
      <path d="M 19.671875 64.796875 
L 19.671875 37.40625 
L 32.078125 37.40625 
Q 38.96875 37.40625 42.71875 40.96875 
Q 46.484375 44.53125 46.484375 51.125 
Q 46.484375 57.671875 42.71875 61.234375 
Q 38.96875 64.796875 32.078125 64.796875 
z
M 9.8125 72.90625 
L 32.078125 72.90625 
Q 44.34375 72.90625 50.609375 67.359375 
Q 56.890625 61.8125 56.890625 51.125 
Q 56.890625 40.328125 50.609375 34.8125 
Q 44.34375 29.296875 32.078125 29.296875 
L 19.671875 29.296875 
L 19.671875 0 
L 9.8125 0 
z
" id="DejaVuSans-80"/>
      <path d="M 30.609375 48.390625 
Q 23.390625 48.390625 19.1875 42.75 
Q 14.984375 37.109375 14.984375 27.296875 
Q 14.984375 17.484375 19.15625 11.84375 
Q 23.34375 6.203125 30.609375 6.203125 
Q 37.796875 6.203125 41.984375 11.859375 
Q 46.1875 17.53125 46.1875 27.296875 
Q 46.1875 37.015625 41.984375 42.703125 
Q 37.796875 48.390625 30.609375 48.390625 
z
M 30.609375 56 
Q 42.328125 56 49.015625 48.375 
Q 55.71875 40.765625 55.71875 27.296875 
Q 55.71875 13.875 49.015625 6.21875 
Q 42.328125 -1.421875 30.609375 -1.421875 
Q 18.84375 -1.421875 12.171875 6.21875 
Q 5.515625 13.875 5.515625 27.296875 
Q 5.515625 40.765625 12.171875 48.375 
Q 18.84375 56 30.609375 56 
z
" id="DejaVuSans-111"/>
      <path d="M 44.28125 53.078125 
L 44.28125 44.578125 
Q 40.484375 46.53125 36.375 47.5 
Q 32.28125 48.484375 27.875 48.484375 
Q 21.1875 48.484375 17.84375 46.4375 
Q 14.5 44.390625 14.5 40.28125 
Q 14.5 37.15625 16.890625 35.375 
Q 19.28125 33.59375 26.515625 31.984375 
L 29.59375 31.296875 
Q 39.15625 29.25 43.1875 25.515625 
Q 47.21875 21.78125 47.21875 15.09375 
Q 47.21875 7.46875 41.1875 3.015625 
Q 35.15625 -1.421875 24.609375 -1.421875 
Q 20.21875 -1.421875 15.453125 -0.5625 
Q 10.6875 0.296875 5.421875 2 
L 5.421875 11.28125 
Q 10.40625 8.6875 15.234375 7.390625 
Q 20.0625 6.109375 24.8125 6.109375 
Q 31.15625 6.109375 34.5625 8.28125 
Q 37.984375 10.453125 37.984375 14.40625 
Q 37.984375 18.0625 35.515625 20.015625 
Q 33.0625 21.96875 24.703125 23.78125 
L 21.578125 24.515625 
Q 13.234375 26.265625 9.515625 29.90625 
Q 5.8125 33.546875 5.8125 39.890625 
Q 5.8125 47.609375 11.28125 51.796875 
Q 16.75 56 26.8125 56 
Q 31.78125 56 36.171875 55.265625 
Q 40.578125 54.546875 44.28125 53.078125 
z
" id="DejaVuSans-115"/>
      <path d="M 9.421875 54.6875 
L 18.40625 54.6875 
L 18.40625 0 
L 9.421875 0 
z
M 9.421875 75.984375 
L 18.40625 75.984375 
L 18.40625 64.59375 
L 9.421875 64.59375 
z
" id="DejaVuSans-105"/>
      <path d="M 18.3125 70.21875 
L 18.3125 54.6875 
L 36.8125 54.6875 
L 36.8125 47.703125 
L 18.3125 47.703125 
L 18.3125 18.015625 
Q 18.3125 11.328125 20.140625 9.421875 
Q 21.96875 7.515625 27.59375 7.515625 
L 36.8125 7.515625 
L 36.8125 0 
L 27.59375 0 
Q 17.1875 0 13.234375 3.875 
Q 9.28125 7.765625 9.28125 18.015625 
L 9.28125 47.703125 
L 2.6875 47.703125 
L 2.6875 54.6875 
L 9.28125 54.6875 
L 9.28125 70.21875 
z
" id="DejaVuSans-116"/>
      <path d="M 54.890625 33.015625 
L 54.890625 0 
L 45.90625 0 
L 45.90625 32.71875 
Q 45.90625 40.484375 42.875 44.328125 
Q 39.84375 48.1875 33.796875 48.1875 
Q 26.515625 48.1875 22.3125 43.546875 
Q 18.109375 38.921875 18.109375 30.90625 
L 18.109375 0 
L 9.078125 0 
L 9.078125 54.6875 
L 18.109375 54.6875 
L 18.109375 46.1875 
Q 21.34375 51.125 25.703125 53.5625 
Q 30.078125 56 35.796875 56 
Q 45.21875 56 50.046875 50.171875 
Q 54.890625 44.34375 54.890625 33.015625 
z
" id="DejaVuSans-110"/>
      <path id="DejaVuSans-32"/>
      <path d="M 44.390625 34.1875 
Q 47.5625 33.109375 50.5625 29.59375 
Q 53.5625 26.078125 56.59375 19.921875 
L 66.609375 0 
L 56 0 
L 46.6875 18.703125 
Q 43.0625 26.03125 39.671875 28.421875 
Q 36.28125 30.8125 30.421875 30.8125 
L 19.671875 30.8125 
L 19.671875 0 
L 9.8125 0 
L 9.8125 72.90625 
L 32.078125 72.90625 
Q 44.578125 72.90625 50.734375 67.671875 
Q 56.890625 62.453125 56.890625 51.90625 
Q 56.890625 45.015625 53.6875 40.46875 
Q 50.484375 35.9375 44.390625 34.1875 
z
M 19.671875 64.796875 
L 19.671875 38.921875 
L 32.078125 38.921875 
Q 39.203125 38.921875 42.84375 42.21875 
Q 46.484375 45.515625 46.484375 51.90625 
Q 46.484375 58.296875 42.84375 61.546875 
Q 39.203125 64.796875 32.078125 64.796875 
z
" id="DejaVuSans-82"/>
      <path d="M 34.28125 27.484375 
Q 23.390625 27.484375 19.1875 25 
Q 14.984375 22.515625 14.984375 16.5 
Q 14.984375 11.71875 18.140625 8.90625 
Q 21.296875 6.109375 26.703125 6.109375 
Q 34.1875 6.109375 38.703125 11.40625 
Q 43.21875 16.703125 43.21875 25.484375 
L 43.21875 27.484375 
z
M 52.203125 31.203125 
L 52.203125 0 
L 43.21875 0 
L 43.21875 8.296875 
Q 40.140625 3.328125 35.546875 0.953125 
Q 30.953125 -1.421875 24.3125 -1.421875 
Q 15.921875 -1.421875 10.953125 3.296875 
Q 6 8.015625 6 15.921875 
Q 6 25.140625 12.171875 29.828125 
Q 18.359375 34.515625 30.609375 34.515625 
L 43.21875 34.515625 
L 43.21875 35.40625 
Q 43.21875 41.609375 39.140625 45 
Q 35.0625 48.390625 27.6875 48.390625 
Q 23 48.390625 18.546875 47.265625 
Q 14.109375 46.140625 10.015625 43.890625 
L 10.015625 52.203125 
Q 14.9375 54.109375 19.578125 55.046875 
Q 24.21875 56 28.609375 56 
Q 40.484375 56 46.34375 49.84375 
Q 52.203125 43.703125 52.203125 31.203125 
z
" id="DejaVuSans-97"/>
      <path d="M 45.40625 46.390625 
L 45.40625 75.984375 
L 54.390625 75.984375 
L 54.390625 0 
L 45.40625 0 
L 45.40625 8.203125 
Q 42.578125 3.328125 38.25 0.953125 
Q 33.9375 -1.421875 27.875 -1.421875 
Q 17.96875 -1.421875 11.734375 6.484375 
Q 5.515625 14.40625 5.515625 27.296875 
Q 5.515625 40.1875 11.734375 48.09375 
Q 17.96875 56 27.875 56 
Q 33.9375 56 38.25 53.625 
Q 42.578125 51.265625 45.40625 46.390625 
z
M 14.796875 27.296875 
Q 14.796875 17.390625 18.875 11.75 
Q 22.953125 6.109375 30.078125 6.109375 
Q 37.203125 6.109375 41.296875 11.75 
Q 45.40625 17.390625 45.40625 27.296875 
Q 45.40625 37.203125 41.296875 42.84375 
Q 37.203125 48.484375 30.078125 48.484375 
Q 22.953125 48.484375 18.875 42.84375 
Q 14.796875 37.203125 14.796875 27.296875 
z
" id="DejaVuSans-100"/>
     </defs>
     <g transform="translate(102.024844 357.832125)scale(0.3 -0.3)">
      <use xlink:href="#DejaVuSans-80"/>
      <use x="60.255859" xlink:href="#DejaVuSans-111"/>
      <use x="121.4375" xlink:href="#DejaVuSans-115"/>
      <use x="173.537109" xlink:href="#DejaVuSans-105"/>
      <use x="201.320312" xlink:href="#DejaVuSans-116"/>
      <use x="240.529297" xlink:href="#DejaVuSans-105"/>
      <use x="268.3125" xlink:href="#DejaVuSans-111"/>
      <use x="329.494141" xlink:href="#DejaVuSans-110"/>
      <use x="392.873047" xlink:href="#DejaVuSans-32"/>
      <use x="424.660156" xlink:href="#DejaVuSans-105"/>
      <use x="452.443359" xlink:href="#DejaVuSans-110"/>
      <use x="515.822266" xlink:href="#DejaVuSans-32"/>
      <use x="547.609375" xlink:href="#DejaVuSans-82"/>
      <use x="617.060547" xlink:href="#DejaVuSans-97"/>
      <use x="678.339844" xlink:href="#DejaVuSans-100"/>
      <use x="741.816406" xlink:href="#DejaVuSans-105"/>
      <use x="769.599609" xlink:href="#DejaVuSans-97"/>
      <use x="830.878906" xlink:href="#DejaVuSans-110"/>
     </g>
    </g>
   </g>
   <g id="matplotlib.axis_2">
    <g id="ytick_1">
     <g id="line2d_6">
      <defs>
       <path d="M 0 0 
L -3.5 0 
" id="m92988a3855" style="stroke:#000000;stroke-width:0.8;"/>
      </defs>
      <g>
       <use style="stroke:#000000;stroke-width:0.8;" x="57.6" xlink:href="#m92988a3855" y="307.584"/>
      </g>
     </g>
     <g id="text_7">
      <!-- 0.00 -->
      <defs>
       <path d="M 10.6875 12.40625 
L 21 12.40625 
L 21 0 
L 10.6875 0 
z
" id="DejaVuSans-46"/>
      </defs>
      <g transform="translate(12.748438 314.042672)scale(0.17 -0.17)">
       <use xlink:href="#DejaVuSans-48"/>
       <use x="63.623047" xlink:href="#DejaVuSans-46"/>
       <use x="95.410156" xlink:href="#DejaVuSans-48"/>
       <use x="159.033203" xlink:href="#DejaVuSans-48"/>
      </g>
     </g>
    </g>
    <g id="ytick_2">
     <g id="line2d_7">
      <g>
       <use style="stroke:#000000;stroke-width:0.8;" x="57.6" xlink:href="#m92988a3855" y="261.063397"/>
      </g>
     </g>
     <g id="text_8">
      <!-- 0.25 -->
      <defs>
       <path d="M 10.796875 72.90625 
L 49.515625 72.90625 
L 49.515625 64.59375 
L 19.828125 64.59375 
L 19.828125 46.734375 
Q 21.96875 47.46875 24.109375 47.828125 
Q 26.265625 48.1875 28.421875 48.1875 
Q 40.625 48.1875 47.75 41.5 
Q 54.890625 34.8125 54.890625 23.390625 
Q 54.890625 11.625 47.5625 5.09375 
Q 40.234375 -1.421875 26.90625 -1.421875 
Q 22.3125 -1.421875 17.546875 -0.640625 
Q 12.796875 0.140625 7.71875 1.703125 
L 7.71875 11.625 
Q 12.109375 9.234375 16.796875 8.0625 
Q 21.484375 6.890625 26.703125 6.890625 
Q 35.15625 6.890625 40.078125 11.328125 
Q 45.015625 15.765625 45.015625 23.390625 
Q 45.015625 31 40.078125 35.4375 
Q 35.15625 39.890625 26.703125 39.890625 
Q 22.75 39.890625 18.8125 39.015625 
Q 14.890625 38.140625 10.796875 36.28125 
z
" id="DejaVuSans-53"/>
      </defs>
      <g transform="translate(12.748438 267.522068)scale(0.17 -0.17)">
       <use xlink:href="#DejaVuSans-48"/>
       <use x="63.623047" xlink:href="#DejaVuSans-46"/>
       <use x="95.410156" xlink:href="#DejaVuSans-50"/>
       <use x="159.033203" xlink:href="#DejaVuSans-53"/>
      </g>
     </g>
    </g>
    <g id="ytick_3">
     <g id="line2d_8">
      <g>
       <use style="stroke:#000000;stroke-width:0.8;" x="57.6" xlink:href="#m92988a3855" y="214.542793"/>
      </g>
     </g>
     <g id="text_9">
      <!-- 0.50 -->
      <g transform="translate(12.748438 221.001465)scale(0.17 -0.17)">
       <use xlink:href="#DejaVuSans-48"/>
       <use x="63.623047" xlink:href="#DejaVuSans-46"/>
       <use x="95.410156" xlink:href="#DejaVuSans-53"/>
       <use x="159.033203" xlink:href="#DejaVuSans-48"/>
      </g>
     </g>
    </g>
    <g id="ytick_4">
     <g id="line2d_9">
      <g>
       <use style="stroke:#000000;stroke-width:0.8;" x="57.6" xlink:href="#m92988a3855" y="168.02219"/>
      </g>
     </g>
     <g id="text_10">
      <!-- 0.75 -->
      <defs>
       <path d="M 8.203125 72.90625 
L 55.078125 72.90625 
L 55.078125 68.703125 
L 28.609375 0 
L 18.3125 0 
L 43.21875 64.59375 
L 8.203125 64.59375 
z
" id="DejaVuSans-55"/>
      </defs>
      <g transform="translate(12.748438 174.480861)scale(0.17 -0.17)">
       <use xlink:href="#DejaVuSans-48"/>
       <use x="63.623047" xlink:href="#DejaVuSans-46"/>
       <use x="95.410156" xlink:href="#DejaVuSans-55"/>
       <use x="159.033203" xlink:href="#DejaVuSans-53"/>
      </g>
     </g>
    </g>
    <g id="ytick_5">
     <g id="line2d_10">
      <g>
       <use style="stroke:#000000;stroke-width:0.8;" x="57.6" xlink:href="#m92988a3855" y="121.501586"/>
      </g>
     </g>
     <g id="text_11">
      <!-- 1.00 -->
      <g transform="translate(12.748438 127.960258)scale(0.17 -0.17)">
       <use xlink:href="#DejaVuSans-49"/>
       <use x="63.623047" xlink:href="#DejaVuSans-46"/>
       <use x="95.410156" xlink:href="#DejaVuSans-48"/>
       <use x="159.033203" xlink:href="#DejaVuSans-48"/>
      </g>
     </g>
    </g>
    <g id="ytick_6">
     <g id="line2d_11">
      <g>
       <use style="stroke:#000000;stroke-width:0.8;" x="57.6" xlink:href="#m92988a3855" y="74.980983"/>
      </g>
     </g>
     <g id="text_12">
      <!-- 1.25 -->
      <g transform="translate(12.748438 81.439654)scale(0.17 -0.17)">
       <use xlink:href="#DejaVuSans-49"/>
       <use x="63.623047" xlink:href="#DejaVuSans-46"/>
       <use x="95.410156" xlink:href="#DejaVuSans-50"/>
       <use x="159.033203" xlink:href="#DejaVuSans-53"/>
      </g>
     </g>
    </g>
    <g id="text_13">
     <!-- Density -->
     <defs>
      <path d="M 19.671875 64.796875 
L 19.671875 8.109375 
L 31.59375 8.109375 
Q 46.6875 8.109375 53.6875 14.9375 
Q 60.6875 21.78125 60.6875 36.53125 
Q 60.6875 51.171875 53.6875 57.984375 
Q 46.6875 64.796875 31.59375 64.796875 
z
M 9.8125 72.90625 
L 30.078125 72.90625 
Q 51.265625 72.90625 61.171875 64.09375 
Q 71.09375 55.28125 71.09375 36.53125 
Q 71.09375 17.671875 61.125 8.828125 
Q 51.171875 0 30.078125 0 
L 9.8125 0 
z
" id="DejaVuSans-68"/>
      <path d="M 56.203125 29.59375 
L 56.203125 25.203125 
L 14.890625 25.203125 
Q 15.484375 15.921875 20.484375 11.0625 
Q 25.484375 6.203125 34.421875 6.203125 
Q 39.59375 6.203125 44.453125 7.46875 
Q 49.3125 8.734375 54.109375 11.28125 
L 54.109375 2.78125 
Q 49.265625 0.734375 44.1875 -0.34375 
Q 39.109375 -1.421875 33.890625 -1.421875 
Q 20.796875 -1.421875 13.15625 6.1875 
Q 5.515625 13.8125 5.515625 26.8125 
Q 5.515625 40.234375 12.765625 48.109375 
Q 20.015625 56 32.328125 56 
Q 43.359375 56 49.78125 48.890625 
Q 56.203125 41.796875 56.203125 29.59375 
z
M 47.21875 32.234375 
Q 47.125 39.59375 43.09375 43.984375 
Q 39.0625 48.390625 32.421875 48.390625 
Q 24.90625 48.390625 20.390625 44.140625 
Q 15.875 39.890625 15.1875 32.171875 
z
" id="DejaVuSans-101"/>
      <path d="M 32.171875 -5.078125 
Q 28.375 -14.84375 24.75 -17.8125 
Q 21.140625 -20.796875 15.09375 -20.796875 
L 7.90625 -20.796875 
L 7.90625 -13.28125 
L 13.1875 -13.28125 
Q 16.890625 -13.28125 18.9375 -11.515625 
Q 21 -9.765625 23.484375 -3.21875 
L 25.09375 0.875 
L 2.984375 54.6875 
L 12.5 54.6875 
L 29.59375 11.921875 
L 46.6875 54.6875 
L 56.203125 54.6875 
z
" id="DejaVuSans-121"/>
     </defs>
     <g transform="translate(2.509375 231.553781)rotate(-90)scale(0.3 -0.3)">
      <use xlink:href="#DejaVuSans-68"/>
      <use x="77.001953" xlink:href="#DejaVuSans-101"/>
      <use x="138.525391" xlink:href="#DejaVuSans-110"/>
      <use x="201.904297" xlink:href="#DejaVuSans-115"/>
      <use x="254.003906" xlink:href="#DejaVuSans-105"/>
      <use x="281.787109" xlink:href="#DejaVuSans-116"/>
      <use x="320.996094" xlink:href="#DejaVuSans-121"/>
     </g>
    </g>
   </g>
   <g id="line2d_12">
    <path clip-path="url(#p2ae33bdd47)" d="M 73.832727 307.584 
L 98.573053 307.480903 
L 98.941019 307.209026 
L 99.287341 306.635316 
L 100.304659 304.663571 
L 100.499465 304.823202 
L 100.802496 305.453682 
L 101.516784 306.985855 
L 101.79817 307.113588 
L 102.036266 306.956082 
L 102.317652 306.453888 
L 102.707263 305.240675 
L 103.832807 301.43485 
L 104.070903 301.307117 
L 104.265709 301.468581 
L 104.56874 302.107138 
L 105.391253 304.028531 
L 105.650994 304.132284 
L 105.88909 303.971666 
L 106.192121 303.446675 
L 106.581732 302.262351 
L 107.555761 299.005587 
L 107.750567 298.980944 
L 107.945372 299.267784 
L 108.270049 300.282693 
L 109.027626 302.760444 
L 109.330657 303.067289 
L 109.655334 303.069361 
L 110.088235 302.840759 
L 110.391266 302.422742 
L 110.780878 301.414256 
L 111.235424 300.367024 
L 111.408585 300.341842 
L 111.581746 300.595623 
L 111.884777 301.560554 
L 112.555774 303.741959 
L 112.967031 304.317299 
L 113.443223 304.627499 
L 113.702963 304.556395 
L 113.941059 304.225716 
L 114.265736 303.331976 
L 115.239764 300.336897 
L 115.629376 300.009801 
L 115.932407 299.663021 
L 116.235438 298.885774 
L 116.863145 296.371458 
L 117.404272 294.739291 
L 118.33501 292.858115 
L 118.638042 292.636501 
L 118.832847 292.731052 
L 119.070943 293.1355 
L 119.417264 294.270925 
L 120.477873 298.167459 
L 120.715969 298.315366 
L 120.93242 298.189552 
L 121.300386 297.625512 
L 121.776578 296.998091 
L 121.993029 297.023457 
L 122.25277 297.348535 
L 122.837187 298.153782 
L 123.010348 298.07739 
L 123.226798 297.69027 
L 123.594765 296.450102 
L 124.265762 294.177144 
L 124.460568 294.062458 
L 124.612083 294.250672 
L 124.850179 295.030303 
L 125.304726 297.559069 
L 125.802563 299.911402 
L 126.040659 300.257349 
L 126.192174 300.163404 
L 126.43027 299.627435 
L 126.993042 298.264898 
L 127.144558 298.290364 
L 127.339363 298.64176 
L 128.183522 300.662785 
L 128.205167 300.651962 
L 128.378327 300.396642 
L 128.638068 299.510518 
L 129.741967 295.083255 
L 129.958418 295.054147 
L 130.304739 295.339674 
L 130.672706 295.526013 
L 130.889156 295.409644 
L 131.127252 295.005683 
L 131.430283 293.981211 
L 131.97141 291.088339 
L 132.425957 289.235466 
L 132.750633 288.729769 
L 133.140245 288.206953 
L 133.464921 287.24098 
L 134.763626 281.870417 
L 135.348043 279.896569 
L 135.564494 279.717131 
L 135.716009 279.861685 
L 135.93246 280.474411 
L 136.257136 282.197496 
L 137.101294 287.004491 
L 137.2961 287.13188 
L 137.469261 286.880279 
L 138.161903 285.487154 
L 138.183548 285.497934 
L 138.335064 285.713561 
L 138.594805 286.579621 
L 139.482253 289.949872 
L 139.698704 290.05069 
L 139.871864 289.861364 
L 140.10996 289.19391 
L 140.434636 287.474883 
L 141.38702 281.781137 
L 141.495245 281.862945 
L 141.668406 282.392846 
L 142.469274 285.445685 
L 142.642435 285.37274 
L 143.096981 285.067388 
L 143.270142 285.310084 
L 143.551528 286.200756 
L 144.287461 288.672182 
L 144.612137 289.020661 
L 144.893523 289.029843 
L 145.218199 288.803694 
L 146.473614 287.642236 
L 146.79829 287.482722 
L 147.036386 287.083195 
L 147.361062 286.00522 
L 147.945479 284.021301 
L 148.11864 283.988201 
L 148.2918 284.3185 
L 148.594831 285.538434 
L 149.114313 287.52517 
L 149.330764 287.701558 
L 149.48228 287.542749 
L 149.720376 286.8594 
L 150.066697 285.060107 
L 150.997435 279.755433 
L 151.127306 279.7689 
L 151.278821 280.161301 
L 151.538562 281.62156 
L 152.642461 288.774801 
L 152.923847 289.318829 
L 153.075363 289.271344 
L 153.270169 288.871849 
L 154.114327 286.687269 
L 154.287487 286.845239 
L 154.698744 287.669949 
L 155.304806 288.658278 
L 156.127319 289.67404 
L 157.209573 290.367331 
L 157.599184 290.620873 
L 157.83728 290.529537 
L 158.097021 290.150401 
L 158.551568 288.971216 
L 158.98447 288.078183 
L 159.20092 288.013549 
L 159.439016 288.221631 
L 159.893563 288.63801 
L 160.066723 288.506953 
L 160.304819 287.943056 
L 161.430363 284.601471 
L 161.79833 284.179078 
L 162.079716 283.408867 
L 163.378421 278.381733 
L 164.265869 274.808792 
L 164.785351 273.905206 
L 165.218252 273.44256 
L 165.434703 273.501598 
L 165.716089 273.903545 
L 166.127346 274.432109 
L 166.322151 274.361976 
L 166.776698 274.058775 
L 166.928214 274.41646 
L 167.144664 275.714403 
L 167.512631 279.747658 
L 167.967177 284.109317 
L 168.118693 284.446556 
L 168.140338 284.435856 
L 168.248563 284.16353 
L 168.443369 282.835911 
L 168.854626 277.92392 
L 169.395753 272.244478 
L 169.720429 270.827764 
L 169.915235 270.64618 
L 170.06675 270.775837 
L 170.304846 271.350433 
L 170.716103 273.06544 
L 171.711776 277.407962 
L 172.361129 279.0968 
L 172.685805 279.468456 
L 172.88061 279.404582 
L 173.118706 279.011396 
L 173.508318 277.826008 
L 174.287541 275.492493 
L 175.910922 272.278965 
L 176.192308 272.113727 
L 176.473694 272.242718 
L 176.79837 272.334524 
L 176.97153 272.133202 
L 177.209626 271.445037 
L 177.599238 269.496206 
L 178.573266 264.43494 
L 178.789717 264.191928 
L 178.919588 264.336922 
L 179.136038 265.036274 
L 179.958551 268.242586 
L 180.088422 268.056437 
L 180.304873 267.188772 
L 180.910935 263.284163 
L 181.430417 259.377828 
L 181.798383 254.259965 
L 182.469381 244.663044 
L 182.620896 244.23596 
L 182.642541 244.248312 
L 182.750767 244.572107 
L 182.945572 246.102749 
L 183.984536 256.015815 
L 184.157697 256.111909 
L 184.309212 255.868123 
L 184.633889 254.761105 
L 185.283241 252.641379 
L 186.127399 251.034145 
L 186.38714 250.879132 
L 186.560301 251.060376 
L 186.798396 251.725388 
L 187.317878 254.095767 
L 187.945586 256.490083 
L 188.378487 257.484373 
L 188.551648 257.493744 
L 188.703163 257.199472 
L 188.941259 256.118071 
L 189.417451 252.533185 
L 190.326544 244.351472 
L 191.127412 236.012588 
L 191.408798 235.065977 
L 191.733475 234.747221 
L 191.993216 234.371341 
L 192.512697 233.497678 
L 192.642568 233.685446 
L 192.837374 234.548358 
L 193.140405 237.247225 
L 194.265949 248.680001 
L 194.56898 249.667069 
L 194.742141 249.746841 
L 194.893656 249.512464 
L 195.110107 248.616518 
L 195.369848 246.454348 
L 195.694524 241.637362 
L 196.214006 229.751688 
L 196.733488 219.565268 
L 197.014874 217.52555 
L 197.101454 217.441696 
L 197.144744 217.487165 
L 197.274615 217.939018 
L 197.534356 219.948599 
L 198.356869 227.06807 
L 198.57332 227.401206 
L 198.724835 227.300445 
L 199.265962 226.796763 
L 199.590638 227.020965 
L 199.828734 227.047669 
L 200.045185 226.79492 
L 200.499732 226.229358 
L 200.651247 226.390405 
L 200.889343 227.082692 
L 201.322245 228.307948 
L 201.452115 228.240537 
L 201.625276 227.69779 
L 201.949952 225.643213 
L 202.447789 222.748697 
L 202.902336 221.620754 
L 203.140431 220.504969 
L 203.443463 217.78976 
L 204.15775 210.936783 
L 204.309266 210.679106 
L 204.330911 210.688143 
L 204.439136 210.891353 
L 204.655587 211.931593 
L 205.4781 216.409868 
L 205.889357 217.162472 
L 206.430483 218.126443 
L 206.690224 219.171302 
L 206.993256 221.542212 
L 207.794123 228.649881 
L 207.923994 228.773706 
L 207.945639 228.762306 
L 208.097155 228.490842 
L 208.616637 227.342934 
L 208.746507 227.47221 
L 208.941313 228.062332 
L 209.287634 229.988975 
L 210.391533 236.748453 
L 210.543049 236.750075 
L 210.716209 236.36535 
L 211.06253 234.825415 
L 211.495432 233.228402 
L 211.625303 233.18471 
L 211.646948 233.204972 
L 211.798463 233.582465 
L 212.036559 234.988201 
L 213.053878 242.239738 
L 213.183748 242.225747 
L 213.356909 241.900184 
L 214.092842 240.222057 
L 214.266002 240.305545 
L 214.569033 240.798172 
L 215.001935 241.409659 
L 215.218386 241.401226 
L 215.478127 241.106884 
L 215.867738 240.276074 
L 216.192414 239.063558 
L 216.51709 236.830334 
L 217.361249 230.304528 
L 217.491119 230.241988 
L 217.512764 230.258196 
L 217.70757 230.606769 
L 217.967311 230.961441 
L 218.075536 230.81731 
L 218.248697 230.048476 
L 218.530083 227.438417 
L 220.196754 209.222484 
L 220.975977 201.657914 
L 221.192428 201.109707 
L 221.279008 201.209145 
L 221.430523 201.835993 
L 221.690264 204.148286 
L 222.144811 210.75478 
L 222.815809 220.056413 
L 223.07555 221.356042 
L 223.183775 221.426347 
L 223.227065 221.389403 
L 223.400226 220.9727 
L 223.854772 219.806327 
L 223.962998 219.895488 
L 224.136158 220.425549 
L 224.763866 222.925213 
L 224.807156 222.879006 
L 224.937026 222.420064 
L 225.153477 220.512366 
L 225.478153 215.228686 
L 226.387247 199.259197 
L 226.646988 198.007834 
L 226.841793 197.849476 
L 227.123179 197.762583 
L 227.317985 197.324612 
L 227.880757 195.534721 
L 227.945692 195.605309 
L 228.075563 196.102204 
L 228.292014 198.079545 
L 228.65998 204.110175 
L 229.352623 215.22324 
L 229.720589 217.907381 
L 230.02362 218.798954 
L 230.15349 218.821228 
L 230.175136 218.798352 
L 230.305006 218.466422 
L 230.499812 217.18241 
L 230.759553 213.564452 
L 231.149164 204.096723 
L 231.733581 190.415686 
L 231.950032 189.071841 
L 232.014967 189.145617 
L 232.144838 189.829607 
L 232.7509 194.381634 
L 232.815835 194.246765 
L 232.967351 193.179868 
L 233.248737 188.954238 
L 233.789864 181.095515 
L 233.919734 180.739492 
L 233.963024 180.784772 
L 234.092895 181.350449 
L 234.547442 184.491399 
L 234.612377 184.31521 
L 234.720602 183.146904 
L 234.893763 178.208197 
L 235.131859 163.34202 
L 235.47818 124.523972 
L 236.084242 57.32621 
L 236.214113 54.144 
L 236.257403 54.362222 
L 236.365628 57.664905 
L 236.560434 72.438836 
L 237.079916 136.855839 
L 237.512817 175.770564 
L 237.837494 188.398485 
L 238.11888 192.113435 
L 238.29204 192.554166 
L 238.400266 192.363295 
L 238.595071 191.325746 
L 238.919748 188.096243 
L 240.066937 175.336231 
L 240.196807 175.115284 
L 240.240097 175.142642 
L 240.369968 175.540994 
L 240.586419 177.251136 
L 240.93274 182.289169 
L 242.469541 207.751037 
L 243.227118 212.780604 
L 243.66002 219.152847 
L 244.287727 227.818853 
L 244.547468 229.089309 
L 244.634049 229.109674 
L 244.655694 229.083232 
L 244.785564 228.668464 
L 245.02366 226.892417 
L 245.521497 220.827924 
L 246.452235 210.28665 
L 247.296393 201.308788 
L 247.404619 201.151659 
L 247.447909 201.196635 
L 247.577779 201.701908 
L 247.79423 203.67171 
L 248.270422 210.791441 
L 248.789904 217.25089 
L 249.11458 218.9164 
L 249.374321 219.284466 
L 249.828868 219.655092 
L 250.456575 220.531692 
L 250.47822 220.515178 
L 250.629736 220.217623 
L 250.846186 219.171214 
L 251.170863 216.259978 
L 252.079956 207.31261 
L 252.231471 207.092135 
L 252.253117 207.104597 
L 252.382987 207.398927 
L 252.621083 208.760062 
L 253.421951 213.935692 
L 253.573466 214.000324 
L 253.746627 213.729837 
L 254.222819 212.8999 
L 254.352689 213.05455 
L 254.56914 213.767199 
L 255.088622 215.609345 
L 255.196847 215.530542 
L 255.348363 214.973756 
L 255.586459 213.050477 
L 256.127586 206.119552 
L 256.495552 202.887362 
L 256.625423 202.618242 
L 256.668713 202.649547 
L 256.776938 202.996346 
L 256.971744 204.534178 
L 257.33971 209.676071 
L 257.989063 218.288011 
L 258.270449 219.673776 
L 258.378674 219.74977 
L 258.421964 219.712409 
L 258.57348 219.299908 
L 258.833221 217.75202 
L 259.352703 212.95814 
L 260.348376 203.679579 
L 260.499892 203.44209 
L 260.521537 203.453493 
L 260.651407 203.745923 
L 260.889503 205.04244 
L 261.365695 207.530699 
L 261.495565 207.595369 
L 261.51721 207.575348 
L 261.668726 207.230048 
L 262.166563 205.811663 
L 262.188208 205.827462 
L 262.296433 206.085806 
L 262.469594 207.176186 
L 262.75098 210.641242 
L 263.941459 227.431134 
L 264.309426 229.126986 
L 264.612457 229.648374 
L 264.850553 229.708112 
L 265.131939 229.521626 
L 265.716356 229.067522 
L 265.889517 229.239361 
L 266.105967 229.853187 
L 266.387353 231.436376 
L 266.776965 235.110758 
L 267.621123 243.470469 
L 267.750993 243.662416 
L 267.772638 243.650127 
L 267.880864 243.402205 
L 268.07567 242.241084 
L 268.465281 238.129023 
L 269.136278 231.295184 
L 269.396019 230.340573 
L 269.504245 230.349255 
L 269.65576 230.746309 
L 269.937146 232.331508 
L 270.370048 234.530281 
L 270.478273 234.609097 
L 270.521563 234.568445 
L 270.673079 234.10383 
L 270.93282 232.346345 
L 271.755333 226.277101 
L 272.123299 225.189834 
L 272.38304 224.919154 
L 272.534556 225.00462 
L 272.729362 225.459612 
L 272.989103 226.749847 
L 273.378714 230.036587 
L 274.460968 240.010167 
L 274.634129 240.224212 
L 274.655774 240.214407 
L 274.807289 239.958428 
L 275.478287 238.178915 
L 275.543222 238.242685 
L 275.694737 238.679114 
L 275.932833 240.170635 
L 276.38738 244.815009 
L 276.993442 250.325778 
L 277.361409 251.899155 
L 277.66444 252.379611 
L 278.378727 253.086903 
L 279.093015 254.284716 
L 279.287821 254.176739 
L 280.196914 253.303117 
L 280.456655 253.109446 
L 280.694751 252.57576 
L 281.062717 251.076241 
L 281.690424 248.632736 
L 282.036746 248.080626 
L 282.534583 247.440507 
L 282.794324 246.549514 
L 283.227225 244.027573 
L 283.573546 242.503959 
L 283.681772 242.454564 
L 283.703417 242.477781 
L 283.833287 242.866063 
L 284.049738 244.461774 
L 284.460995 249.714944 
L 284.958831 255.114588 
L 285.218572 256.008255 
L 285.348443 255.998612 
L 285.543249 255.638829 
L 286.214246 254.240659 
L 286.863598 253.594301 
L 287.015114 253.721006 
L 287.188275 254.236537 
L 287.42637 255.748664 
L 287.837627 260.155095 
L 288.465334 266.404721 
L 288.768365 267.647222 
L 288.963171 267.815543 
L 289.114687 267.674255 
L 289.396073 267.016707 
L 289.872264 266.005194 
L 290.06707 265.980062 
L 290.391746 266.272663 
L 290.629842 266.326132 
L 290.803003 266.098766 
L 291.106034 265.208494 
L 291.560581 264.002774 
L 291.755386 263.941575 
L 291.971837 264.160794 
L 292.577899 265.249735 
L 292.88093 266.253704 
L 293.205607 268.233929 
L 294.677472 278.737153 
L 294.893923 278.978151 
L 295.023793 278.814474 
L 295.218599 278.091994 
L 295.52163 275.892813 
L 296.7554 265.508663 
L 296.950205 265.308847 
L 297.080076 265.489234 
L 297.296527 266.276316 
L 298.20562 270.230076 
L 298.357136 270.216962 
L 298.551941 269.918273 
L 298.919908 268.833774 
L 299.590905 266.073646 
L 300.218612 263.706144 
L 300.391773 263.626088 
L 300.521644 263.862993 
L 300.738094 264.886526 
L 301.06277 267.741061 
L 302.036799 277.077663 
L 302.274895 277.624 
L 302.404765 277.528411 
L 302.599571 276.941352 
L 303.010828 274.703454 
L 303.465374 272.649003 
L 303.66018 272.434823 
L 303.79005 272.563837 
L 304.028146 273.254277 
L 304.547628 274.790878 
L 304.677499 274.739544 
L 304.850659 274.311421 
L 305.629882 271.583127 
L 305.694817 271.634674 
L 305.846333 272.014992 
L 306.106074 273.422601 
L 306.625556 277.833115 
L 307.318198 283.147814 
L 307.70781 284.722994 
L 307.989196 285.127658 
L 308.162357 285.084881 
L 308.378807 284.746506 
L 308.703484 283.748436 
L 309.699157 280.364581 
L 309.872318 280.344602 
L 310.045478 280.578877 
L 310.326864 281.402528 
L 311.214313 284.238633 
L 311.863665 285.489083 
L 312.231631 287.154584 
L 312.772758 289.493765 
L 312.945919 289.614655 
L 313.097435 289.396072 
L 313.357176 288.485037 
L 314.049818 285.916283 
L 314.331204 285.612742 
L 314.61259 285.619816 
L 316.517357 286.142 
L 316.798743 285.670961 
L 317.318225 284.808718 
L 317.469741 284.873401 
L 317.686191 285.29454 
L 318.400479 286.936623 
L 318.57364 286.7968 
L 319.309572 285.789055 
L 319.331217 285.804253 
L 319.612604 286.17988 
L 319.872344 286.368403 
L 320.002215 286.202052 
L 320.197021 285.497799 
L 320.543342 283.141612 
L 320.997889 280.417306 
L 321.171049 280.212963 
L 321.30092 280.419125 
L 321.51737 281.314987 
L 323.725169 292.763963 
L 323.898329 292.924334 
L 323.919974 292.911712 
L 324.049845 292.6752 
L 324.266296 291.697819 
L 324.742487 288.114593 
L 325.218679 285.279284 
L 325.565 284.361474 
L 325.868031 284.092035 
L 326.171063 284.114733 
L 326.88535 284.271043 
L 327.577993 284.171851 
L 327.794444 284.466162 
L 328.054184 285.245053 
L 328.422151 287.198741 
L 329.720856 294.970322 
L 330.045532 295.587433 
L 330.240337 295.618405 
L 330.456788 295.387744 
L 330.8464 294.532918 
L 331.322591 293.623258 
L 331.539042 293.587489 
L 331.733848 293.838383 
L 332.036879 294.689299 
L 333.032553 297.769688 
L 333.552035 298.594696 
L 333.833421 298.694697 
L 334.071517 298.516045 
L 334.396193 297.938907 
L 335.088835 296.118889 
L 336.214379 293.209204 
L 336.820442 292.432655 
L 337.6646 291.523214 
L 337.859405 291.705999 
L 338.140791 292.35986 
L 338.638628 293.499002 
L 338.790144 293.461206 
L 338.963304 293.067396 
L 339.24469 291.684061 
L 339.937333 288.042259 
L 340.067204 288.006682 
L 340.197074 288.280547 
L 340.413525 289.381979 
L 340.824781 292.945378 
L 341.474134 298.223608 
L 341.820455 299.436403 
L 342.101841 299.718116 
L 342.448162 299.710769 
L 342.837774 299.505976 
L 343.097515 299.088005 
L 343.443836 298.019389 
L 344.266349 295.33131 
L 344.56938 295.037913 
L 344.829121 295.061219 
L 345.110507 295.333456 
L 345.456828 296.027859 
L 346.192761 297.574675 
L 346.430857 297.617176 
L 347.188435 297.465305 
L 347.42653 297.924756 
L 347.772852 299.207436 
L 348.768525 303.287216 
L 349.028266 303.538525 
L 349.244717 303.478183 
L 349.526103 303.114186 
L 349.872424 302.252002 
L 350.348616 300.357602 
L 350.889743 298.402188 
L 351.106194 298.195367 
L 351.25771 298.309965 
L 351.495805 298.850585 
L 352.361609 301.141079 
L 353.357282 302.377851 
L 354.352956 304.393091 
L 354.655987 304.552901 
L 354.872438 304.415243 
L 355.132179 303.930864 
L 355.651661 302.313472 
L 356.041272 301.454823 
L 356.236078 301.394502 
L 356.430884 301.597554 
L 356.777205 302.391441 
L 357.469847 303.934068 
L 357.902749 304.374495 
L 358.184135 304.389513 
L 358.443876 304.158935 
L 359.309679 303.162044 
L 359.52613 303.397991 
L 359.872451 304.198121 
L 360.478513 305.551321 
L 360.716609 305.64891 
L 360.911415 305.461144 
L 361.192801 304.798381 
L 362.036959 302.565106 
L 362.25341 302.51566 
L 362.513151 302.735484 
L 363.70363 304.05694 
L 364.136532 304.678912 
L 364.785884 305.603311 
L 365.11056 305.679009 
L 365.803203 305.468171 
L 366.950392 305.285822 
L 367.318358 305.528234 
L 368.205807 306.19903 
L 369.1149 306.453054 
L 369.980703 306.588 
L 370.933087 307.061285 
L 371.214473 306.831362 
L 371.71231 306.030955 
L 372.101921 305.614127 
L 372.318372 305.65385 
L 372.599758 305.99109 
L 373.573786 307.391675 
L 374.028333 307.550798 
L 375.045652 307.58389 
L 398.487273 307.584 
L 398.487273 307.584 
" style="fill:none;stroke:#ff7f0e;stroke-linecap:square;stroke-width:1.5;"/>
   </g>
   <g id="patch_103">
    <path d="M 57.6 307.584 
L 57.6 41.472 
" style="fill:none;stroke:#000000;stroke-linecap:square;stroke-linejoin:miter;stroke-width:0.8;"/>
   </g>
   <g id="patch_104">
    <path d="M 414.72 307.584 
L 414.72 41.472 
" style="fill:none;stroke:#000000;stroke-linecap:square;stroke-linejoin:miter;stroke-width:0.8;"/>
   </g>
   <g id="patch_105">
    <path d="M 57.6 307.584 
L 414.72 307.584 
" style="fill:none;stroke:#000000;stroke-linecap:square;stroke-linejoin:miter;stroke-width:0.8;"/>
   </g>
   <g id="patch_106">
    <path d="M 57.6 41.472 
L 414.72 41.472 
" style="fill:none;stroke:#000000;stroke-linecap:square;stroke-linejoin:miter;stroke-width:0.8;"/>
   </g>
  </g>
 </g>
 <defs>
  <clipPath id="p2ae33bdd47">
   <rect height="266.112" width="357.12" x="57.6" y="41.472"/>
  </clipPath>
 </defs>
</svg>
