<?xml version="1.0" encoding="utf-8" standalone="no"?>
<!DOCTYPE svg PUBLIC "-//W3C//DTD SVG 1.1//EN"
  "http://www.w3.org/Graphics/SVG/1.1/DTD/svg11.dtd">
<!-- Created with matplotlib (https://matplotlib.org/) -->
<svg height="345.6pt" version="1.1" viewBox="0 0 460.8 345.6" width="460.8pt" xmlns="http://www.w3.org/2000/svg" xmlns:xlink="http://www.w3.org/1999/xlink">
 <defs>
  <style type="text/css">
*{stroke-linecap:butt;stroke-linejoin:round;}
  </style>
 </defs>
 <g id="figure_1">
  <g id="patch_1">
   <path d="M 0 345.6 
L 460.8 345.6 
L 460.8 0 
L 0 0 
z
" style="fill:#ffffff;"/>
  </g>
  <g id="axes_1">
   <g id="patch_2">
    <path d="M 57.6 307.584 
L 414.72 307.584 
L 414.72 41.472 
L 57.6 41.472 
z
" style="fill:#ffffff;"/>
   </g>
   <g id="patch_3">
    <path clip-path="url(#p5d463f619c)" d="M 97.034246 307.584 
L 99.878852 307.584 
L 99.878852 305.970092 
L 97.034246 305.970092 
z
" style="fill:#1f77b4;"/>
   </g>
   <g id="patch_4">
    <path clip-path="url(#p5d463f619c)" d="M 99.878852 307.584 
L 102.723458 307.584 
L 102.723458 307.261218 
L 99.878852 307.261218 
z
" style="fill:#1f77b4;"/>
   </g>
   <g id="patch_5">
    <path clip-path="url(#p5d463f619c)" d="M 102.723442 307.584 
L 105.568033 307.584 
L 105.568033 305.324517 
L 102.723442 305.324517 
z
" style="fill:#1f77b4;"/>
   </g>
   <g id="patch_6">
    <path clip-path="url(#p5d463f619c)" d="M 105.568048 307.584 
L 108.412654 307.584 
L 108.412654 302.742277 
L 105.568048 302.742277 
z
" style="fill:#1f77b4;"/>
   </g>
   <g id="patch_7">
    <path clip-path="url(#p5d463f619c)" d="M 108.412654 307.584 
L 111.25726 307.584 
L 111.25726 303.065058 
L 108.412654 303.065058 
z
" style="fill:#1f77b4;"/>
   </g>
   <g id="patch_8">
    <path clip-path="url(#p5d463f619c)" d="M 111.25726 307.584 
L 114.101866 307.584 
L 114.101866 302.096714 
L 111.25726 302.096714 
z
" style="fill:#1f77b4;"/>
   </g>
   <g id="patch_9">
    <path clip-path="url(#p5d463f619c)" d="M 114.101866 307.584 
L 116.946465 307.584 
L 116.946465 299.837222 
L 114.101866 299.837222 
z
" style="fill:#1f77b4;"/>
   </g>
   <g id="patch_10">
    <path clip-path="url(#p5d463f619c)" d="M 116.946465 307.584 
L 119.791071 307.584 
L 119.791071 300.160024 
L 116.946465 300.160024 
z
" style="fill:#1f77b4;"/>
   </g>
   <g id="patch_11">
    <path clip-path="url(#p5d463f619c)" d="M 119.791071 307.584 
L 122.635677 307.584 
L 122.635677 300.160024 
L 119.791071 300.160024 
z
" style="fill:#1f77b4;"/>
   </g>
   <g id="patch_12">
    <path clip-path="url(#p5d463f619c)" d="M 122.635669 307.584 
L 125.480267 307.584 
L 125.480267 299.191657 
L 122.635669 299.191657 
z
" style="fill:#1f77b4;"/>
   </g>
   <g id="patch_13">
    <path clip-path="url(#p5d463f619c)" d="M 125.480275 307.584 
L 128.324881 307.584 
L 128.324881 298.868898 
L 125.480275 298.868898 
z
" style="fill:#1f77b4;"/>
   </g>
   <g id="patch_14">
    <path clip-path="url(#p5d463f619c)" d="M 128.324881 307.584 
L 131.169479 307.584 
L 131.169479 297.900527 
L 128.324881 297.900527 
z
" style="fill:#1f77b4;"/>
   </g>
   <g id="patch_15">
    <path clip-path="url(#p5d463f619c)" d="M 131.169479 307.584 
L 134.014085 307.584 
L 134.014085 298.223335 
L 131.169479 298.223335 
z
" style="fill:#1f77b4;"/>
   </g>
   <g id="patch_16">
    <path clip-path="url(#p5d463f619c)" d="M 134.014085 307.584 
L 136.858691 307.584 
L 136.858691 296.286646 
L 134.014085 296.286646 
z
" style="fill:#1f77b4;"/>
   </g>
   <g id="patch_17">
    <path clip-path="url(#p5d463f619c)" d="M 136.858683 307.584 
L 139.703281 307.584 
L 139.703281 291.122096 
L 136.858683 291.122096 
z
" style="fill:#1f77b4;"/>
   </g>
   <g id="patch_18">
    <path clip-path="url(#p5d463f619c)" d="M 139.703289 307.584 
L 142.547895 307.584 
L 142.547895 295.641082 
L 139.703289 295.641082 
z
" style="fill:#1f77b4;"/>
   </g>
   <g id="patch_19">
    <path clip-path="url(#p5d463f619c)" d="M 142.547895 307.584 
L 145.392501 307.584 
L 145.392501 293.381612 
L 142.547895 293.381612 
z
" style="fill:#1f77b4;"/>
   </g>
   <g id="patch_20">
    <path clip-path="url(#p5d463f619c)" d="M 145.392501 307.584 
L 148.237099 307.584 
L 148.237099 294.34992 
L 145.392501 294.34992 
z
" style="fill:#1f77b4;"/>
   </g>
   <g id="patch_21">
    <path clip-path="url(#p5d463f619c)" d="M 148.237099 307.584 
L 151.081705 307.584 
L 151.081705 290.153796 
L 148.237099 290.153796 
z
" style="fill:#1f77b4;"/>
   </g>
   <g id="patch_22">
    <path clip-path="url(#p5d463f619c)" d="M 151.081698 307.584 
L 153.926296 307.584 
L 153.926296 287.571489 
L 151.081698 287.571489 
z
" style="fill:#1f77b4;"/>
   </g>
   <g id="patch_23">
    <path clip-path="url(#p5d463f619c)" d="M 153.926303 307.584 
L 156.770909 307.584 
L 156.770909 289.831014 
L 153.926303 289.831014 
z
" style="fill:#1f77b4;"/>
   </g>
   <g id="patch_24">
    <path clip-path="url(#p5d463f619c)" d="M 156.770909 307.584 
L 159.615515 307.584 
L 159.615515 289.508233 
L 156.770909 289.508233 
z
" style="fill:#1f77b4;"/>
   </g>
   <g id="patch_25">
    <path clip-path="url(#p5d463f619c)" d="M 159.615515 307.584 
L 162.460114 307.584 
L 162.460114 289.830966 
L 159.615515 289.830966 
z
" style="fill:#1f77b4;"/>
   </g>
   <g id="patch_26">
    <path clip-path="url(#p5d463f619c)" d="M 162.460114 307.584 
L 165.30472 307.584 
L 165.30472 289.508233 
L 162.460114 289.508233 
z
" style="fill:#1f77b4;"/>
   </g>
   <g id="patch_27">
    <path clip-path="url(#p5d463f619c)" d="M 165.304712 307.584 
L 168.14931 307.584 
L 168.14931 285.957577 
L 165.304712 285.957577 
z
" style="fill:#1f77b4;"/>
   </g>
   <g id="patch_28">
    <path clip-path="url(#p5d463f619c)" d="M 168.149318 307.584 
L 170.993924 307.584 
L 170.993924 283.375383 
L 168.149318 283.375383 
z
" style="fill:#1f77b4;"/>
   </g>
   <g id="patch_29">
    <path clip-path="url(#p5d463f619c)" d="M 170.993924 307.584 
L 173.838526 307.584 
L 173.838526 278.53362 
L 170.993924 278.53362 
z
" style="fill:#1f77b4;"/>
   </g>
   <g id="patch_30">
    <path clip-path="url(#p5d463f619c)" d="M 173.838526 307.584 
L 176.683132 307.584 
L 176.683132 278.53366 
L 173.838526 278.53366 
z
" style="fill:#1f77b4;"/>
   </g>
   <g id="patch_31">
    <path clip-path="url(#p5d463f619c)" d="M 176.683128 307.584 
L 179.52773 307.584 
L 179.52773 274.660237 
L 176.683128 274.660237 
z
" style="fill:#1f77b4;"/>
   </g>
   <g id="patch_32">
    <path clip-path="url(#p5d463f619c)" d="M 179.527734 307.584 
L 182.372336 307.584 
L 182.372336 276.274146 
L 179.527734 276.274146 
z
" style="fill:#1f77b4;"/>
   </g>
   <g id="patch_33">
    <path clip-path="url(#p5d463f619c)" d="M 182.372332 307.584 
L 185.216934 307.584 
L 185.216934 280.470312 
L 182.372332 280.470312 
z
" style="fill:#1f77b4;"/>
   </g>
   <g id="patch_34">
    <path clip-path="url(#p5d463f619c)" d="M 185.216938 307.584 
L 188.061544 307.584 
L 188.061544 269.495776 
L 185.216938 269.495776 
z
" style="fill:#1f77b4;"/>
   </g>
   <g id="patch_35">
    <path clip-path="url(#p5d463f619c)" d="M 188.061544 307.584 
L 190.906146 307.584 
L 190.906146 262.394521 
L 188.061544 262.394521 
z
" style="fill:#1f77b4;"/>
   </g>
   <g id="patch_36">
    <path clip-path="url(#p5d463f619c)" d="M 190.906142 307.584 
L 193.750745 307.584 
L 193.750745 265.622341 
L 190.906142 265.622341 
z
" style="fill:#1f77b4;"/>
   </g>
   <g id="patch_37">
    <path clip-path="url(#p5d463f619c)" d="M 193.750748 307.584 
L 196.59535 307.584 
L 196.59535 266.267905 
L 193.750748 266.267905 
z
" style="fill:#1f77b4;"/>
   </g>
   <g id="patch_38">
    <path clip-path="url(#p5d463f619c)" d="M 196.59535 307.584 
L 199.439956 307.584 
L 199.439956 256.584514 
L 196.59535 256.584514 
z
" style="fill:#1f77b4;"/>
   </g>
   <g id="patch_39">
    <path clip-path="url(#p5d463f619c)" d="M 199.439953 307.584 
L 202.284555 307.584 
L 202.284555 252.388279 
L 199.439953 252.388279 
z
" style="fill:#1f77b4;"/>
   </g>
   <g id="patch_40">
    <path clip-path="url(#p5d463f619c)" d="M 202.284559 307.584 
L 205.129161 307.584 
L 205.129161 234.958051 
L 202.284559 234.958051 
z
" style="fill:#1f77b4;"/>
   </g>
   <g id="patch_41">
    <path clip-path="url(#p5d463f619c)" d="M 205.129161 307.584 
L 207.973765 307.584 
L 207.973765 249.160499 
L 205.129161 249.160499 
z
" style="fill:#1f77b4;"/>
   </g>
   <g id="patch_42">
    <path clip-path="url(#p5d463f619c)" d="M 207.973765 307.584 
L 210.818367 307.584 
L 210.818367 241.413691 
L 207.973765 241.413691 
z
" style="fill:#1f77b4;"/>
   </g>
   <g id="patch_43">
    <path clip-path="url(#p5d463f619c)" d="M 210.818365 307.584 
L 213.662969 307.584 
L 213.662969 233.344192 
L 210.818365 233.344192 
z
" style="fill:#1f77b4;"/>
   </g>
   <g id="patch_44">
    <path clip-path="url(#p5d463f619c)" d="M 213.662971 307.584 
L 216.507573 307.584 
L 216.507573 226.242937 
L 213.662971 226.242937 
z
" style="fill:#1f77b4;"/>
   </g>
   <g id="patch_45">
    <path clip-path="url(#p5d463f619c)" d="M 216.507573 307.584 
L 219.352177 307.584 
L 219.352177 220.755702 
L 216.507573 220.755702 
z
" style="fill:#1f77b4;"/>
   </g>
   <g id="patch_46">
    <path clip-path="url(#p5d463f619c)" d="M 219.352177 307.584 
L 222.196779 307.584 
L 222.196779 213.654439 
L 219.352177 213.654439 
z
" style="fill:#1f77b4;"/>
   </g>
   <g id="patch_47">
    <path clip-path="url(#p5d463f619c)" d="M 222.196779 307.584 
L 225.041382 307.584 
L 225.041382 210.749434 
L 222.196779 210.749434 
z
" style="fill:#1f77b4;"/>
   </g>
   <g id="patch_48">
    <path clip-path="url(#p5d463f619c)" d="M 225.041383 307.584 
L 227.885986 307.584 
L 227.885986 204.939361 
L 225.041383 204.939361 
z
" style="fill:#1f77b4;"/>
   </g>
   <g id="patch_49">
    <path clip-path="url(#p5d463f619c)" d="M 227.885985 307.584 
L 230.730588 307.584 
L 230.730588 209.458307 
L 227.885985 209.458307 
z
" style="fill:#1f77b4;"/>
   </g>
   <g id="patch_50">
    <path clip-path="url(#p5d463f619c)" d="M 230.730588 307.584 
L 233.575191 307.584 
L 233.575191 193.319213 
L 230.730588 193.319213 
z
" style="fill:#1f77b4;"/>
   </g>
   <g id="patch_51">
    <path clip-path="url(#p5d463f619c)" d="M 233.575191 307.584 
L 236.419794 307.584 
L 236.419794 116.497124 
L 233.575191 116.497124 
z
" style="fill:#1f77b4;"/>
   </g>
   <g id="patch_52">
    <path clip-path="url(#p5d463f619c)" d="M 236.419794 307.584 
L 239.264398 307.584 
L 239.264398 190.414176 
L 236.419794 190.414176 
z
" style="fill:#1f77b4;"/>
   </g>
   <g id="patch_53">
    <path clip-path="url(#p5d463f619c)" d="M 239.264398 307.584 
L 242.109001 307.584 
L 242.109001 173.9523 
L 239.264398 173.9523 
z
" style="fill:#1f77b4;"/>
   </g>
   <g id="patch_54">
    <path clip-path="url(#p5d463f619c)" d="M 242.109001 307.584 
L 244.953604 307.584 
L 244.953604 196.869813 
L 242.109001 196.869813 
z
" style="fill:#1f77b4;"/>
   </g>
   <g id="patch_55">
    <path clip-path="url(#p5d463f619c)" d="M 244.953604 307.584 
L 247.798207 307.584 
L 247.798207 195.255904 
L 244.953604 195.255904 
z
" style="fill:#1f77b4;"/>
   </g>
   <g id="patch_56">
    <path clip-path="url(#p5d463f619c)" d="M 247.798208 307.584 
L 250.642811 307.584 
L 250.642811 200.743196 
L 247.798208 200.743196 
z
" style="fill:#1f77b4;"/>
   </g>
   <g id="patch_57">
    <path clip-path="url(#p5d463f619c)" d="M 250.64281 307.584 
L 253.487412 307.584 
L 253.487412 190.091354 
L 250.64281 190.091354 
z
" style="fill:#1f77b4;"/>
   </g>
   <g id="patch_58">
    <path clip-path="url(#p5d463f619c)" d="M 253.487412 307.584 
L 256.332016 307.584 
L 256.332016 207.844431 
L 253.487412 207.844431 
z
" style="fill:#1f77b4;"/>
   </g>
   <g id="patch_59">
    <path clip-path="url(#p5d463f619c)" d="M 256.332016 307.584 
L 259.176618 307.584 
L 259.176618 209.781056 
L 256.332016 209.781056 
z
" style="fill:#1f77b4;"/>
   </g>
   <g id="patch_60">
    <path clip-path="url(#p5d463f619c)" d="M 259.176616 307.584 
L 262.02122 307.584 
L 262.02122 216.559539 
L 259.176616 216.559539 
z
" style="fill:#1f77b4;"/>
   </g>
   <g id="patch_61">
    <path clip-path="url(#p5d463f619c)" d="M 262.021222 307.584 
L 264.865824 307.584 
L 264.865824 228.825193 
L 262.021222 228.825193 
z
" style="fill:#1f77b4;"/>
   </g>
   <g id="patch_62">
    <path clip-path="url(#p5d463f619c)" d="M 264.865824 307.584 
L 267.710428 307.584 
L 267.710428 232.375846 
L 264.865824 232.375846 
z
" style="fill:#1f77b4;"/>
   </g>
   <g id="patch_63">
    <path clip-path="url(#p5d463f619c)" d="M 267.710426 307.584 
L 270.555032 307.584 
L 270.555032 226.242993 
L 267.710426 226.242993 
z
" style="fill:#1f77b4;"/>
   </g>
   <g id="patch_64">
    <path clip-path="url(#p5d463f619c)" d="M 270.555032 307.584 
L 273.399634 307.584 
L 273.399634 231.407449 
L 270.555032 231.407449 
z
" style="fill:#1f77b4;"/>
   </g>
   <g id="patch_65">
    <path clip-path="url(#p5d463f619c)" d="M 273.39963 307.584 
L 276.244233 307.584 
L 276.244233 231.730231 
L 273.39963 231.730231 
z
" style="fill:#1f77b4;"/>
   </g>
   <g id="patch_66">
    <path clip-path="url(#p5d463f619c)" d="M 276.244236 307.584 
L 279.088839 307.584 
L 279.088839 245.287075 
L 276.244236 245.287075 
z
" style="fill:#1f77b4;"/>
   </g>
   <g id="patch_67">
    <path clip-path="url(#p5d463f619c)" d="M 279.088839 307.584 
L 281.933445 307.584 
L 281.933445 250.128883 
L 279.088839 250.128883 
z
" style="fill:#1f77b4;"/>
   </g>
   <g id="patch_68">
    <path clip-path="url(#p5d463f619c)" d="M 281.933441 307.584 
L 284.778043 307.584 
L 284.778043 250.774369 
L 281.933441 250.774369 
z
" style="fill:#1f77b4;"/>
   </g>
   <g id="patch_69">
    <path clip-path="url(#p5d463f619c)" d="M 284.778047 307.584 
L 287.622649 307.584 
L 287.622649 256.907227 
L 284.778047 256.907227 
z
" style="fill:#1f77b4;"/>
   </g>
   <g id="patch_70">
    <path clip-path="url(#p5d463f619c)" d="M 287.622645 307.584 
L 290.467247 307.584 
L 290.467247 267.881815 
L 287.622645 267.881815 
z
" style="fill:#1f77b4;"/>
   </g>
   <g id="patch_71">
    <path clip-path="url(#p5d463f619c)" d="M 290.467251 307.584 
L 293.311857 307.584 
L 293.311857 270.786903 
L 290.467251 270.786903 
z
" style="fill:#1f77b4;"/>
   </g>
   <g id="patch_72">
    <path clip-path="url(#p5d463f619c)" d="M 293.311857 307.584 
L 296.156459 307.584 
L 296.156459 272.077981 
L 293.311857 272.077981 
z
" style="fill:#1f77b4;"/>
   </g>
   <g id="patch_73">
    <path clip-path="url(#p5d463f619c)" d="M 296.156455 307.584 
L 299.001057 307.584 
L 299.001057 264.976777 
L 296.156455 264.976777 
z
" style="fill:#1f77b4;"/>
   </g>
   <g id="patch_74">
    <path clip-path="url(#p5d463f619c)" d="M 299.001061 307.584 
L 301.845667 307.584 
L 301.845667 274.983063 
L 299.001061 274.983063 
z
" style="fill:#1f77b4;"/>
   </g>
   <g id="patch_75">
    <path clip-path="url(#p5d463f619c)" d="M 301.845659 307.584 
L 304.690257 307.584 
L 304.690257 275.305757 
L 301.845659 275.305757 
z
" style="fill:#1f77b4;"/>
   </g>
   <g id="patch_76">
    <path clip-path="url(#p5d463f619c)" d="M 304.690265 307.584 
L 307.534871 307.584 
L 307.534871 281.438694 
L 304.690265 281.438694 
z
" style="fill:#1f77b4;"/>
   </g>
   <g id="patch_77">
    <path clip-path="url(#p5d463f619c)" d="M 307.534871 307.584 
L 310.379477 307.584 
L 310.379477 286.280417 
L 307.534871 286.280417 
z
" style="fill:#1f77b4;"/>
   </g>
   <g id="patch_78">
    <path clip-path="url(#p5d463f619c)" d="M 310.379477 307.584 
L 313.224075 307.584 
L 313.224075 285.312012 
L 310.379477 285.312012 
z
" style="fill:#1f77b4;"/>
   </g>
   <g id="patch_79">
    <path clip-path="url(#p5d463f619c)" d="M 313.224075 307.584 
L 316.068681 307.584 
L 316.068681 286.92598 
L 313.224075 286.92598 
z
" style="fill:#1f77b4;"/>
   </g>
   <g id="patch_80">
    <path clip-path="url(#p5d463f619c)" d="M 316.068674 307.584 
L 318.913272 307.584 
L 318.913272 287.571489 
L 316.068674 287.571489 
z
" style="fill:#1f77b4;"/>
   </g>
   <g id="patch_81">
    <path clip-path="url(#p5d463f619c)" d="M 318.91328 307.584 
L 321.757886 307.584 
L 321.757886 291.767704 
L 318.91328 291.767704 
z
" style="fill:#1f77b4;"/>
   </g>
   <g id="patch_82">
    <path clip-path="url(#p5d463f619c)" d="M 321.757886 307.584 
L 324.602492 307.584 
L 324.602492 289.831014 
L 321.757886 289.831014 
z
" style="fill:#1f77b4;"/>
   </g>
   <g id="patch_83">
    <path clip-path="url(#p5d463f619c)" d="M 324.602492 307.584 
L 327.44709 307.584 
L 327.44709 284.343665 
L 324.602492 284.343665 
z
" style="fill:#1f77b4;"/>
   </g>
   <g id="patch_84">
    <path clip-path="url(#p5d463f619c)" d="M 327.44709 307.584 
L 330.291696 307.584 
L 330.291696 288.217107 
L 327.44709 288.217107 
z
" style="fill:#1f77b4;"/>
   </g>
   <g id="patch_85">
    <path clip-path="url(#p5d463f619c)" d="M 330.291688 307.584 
L 333.136286 307.584 
L 333.136286 287.571489 
L 330.291688 287.571489 
z
" style="fill:#1f77b4;"/>
   </g>
   <g id="patch_86">
    <path clip-path="url(#p5d463f619c)" d="M 333.136294 307.584 
L 335.9809 307.584 
L 335.9809 290.799359 
L 333.136294 290.799359 
z
" style="fill:#1f77b4;"/>
   </g>
   <g id="patch_87">
    <path clip-path="url(#p5d463f619c)" d="M 335.9809 307.584 
L 338.825506 307.584 
L 338.825506 292.736048 
L 335.9809 292.736048 
z
" style="fill:#1f77b4;"/>
   </g>
   <g id="patch_88">
    <path clip-path="url(#p5d463f619c)" d="M 338.825506 307.584 
L 341.670104 307.584 
L 341.670104 291.767661 
L 338.825506 291.767661 
z
" style="fill:#1f77b4;"/>
   </g>
   <g id="patch_89">
    <path clip-path="url(#p5d463f619c)" d="M 341.670104 307.584 
L 344.51471 307.584 
L 344.51471 290.153796 
L 341.670104 290.153796 
z
" style="fill:#1f77b4;"/>
   </g>
   <g id="patch_90">
    <path clip-path="url(#p5d463f619c)" d="M 344.51471 307.584 
L 347.359316 307.584 
L 347.359316 294.027175 
L 344.51471 294.027175 
z
" style="fill:#1f77b4;"/>
   </g>
   <g id="patch_91">
    <path clip-path="url(#p5d463f619c)" d="M 347.359308 307.584 
L 350.203907 307.584 
L 350.203907 295.64105 
L 347.359308 295.64105 
z
" style="fill:#1f77b4;"/>
   </g>
   <g id="patch_92">
    <path clip-path="url(#p5d463f619c)" d="M 350.203914 307.584 
L 353.04852 307.584 
L 353.04852 298.223335 
L 350.203914 298.223335 
z
" style="fill:#1f77b4;"/>
   </g>
   <g id="patch_93">
    <path clip-path="url(#p5d463f619c)" d="M 353.04852 307.584 
L 355.893118 307.584 
L 355.893118 293.704355 
L 353.04852 293.704355 
z
" style="fill:#1f77b4;"/>
   </g>
   <g id="patch_94">
    <path clip-path="url(#p5d463f619c)" d="M 355.893118 307.584 
L 358.737724 307.584 
L 358.737724 296.609427 
L 355.893118 296.609427 
z
" style="fill:#1f77b4;"/>
   </g>
   <g id="patch_95">
    <path clip-path="url(#p5d463f619c)" d="M 358.737724 307.584 
L 361.58233 307.584 
L 361.58233 301.45115 
L 358.737724 301.45115 
z
" style="fill:#1f77b4;"/>
   </g>
   <g id="patch_96">
    <path clip-path="url(#p5d463f619c)" d="M 361.582323 307.584 
L 364.426921 307.584 
L 364.426921 300.482786 
L 361.582323 300.482786 
z
" style="fill:#1f77b4;"/>
   </g>
   <g id="patch_97">
    <path clip-path="url(#p5d463f619c)" d="M 364.426929 307.584 
L 367.271535 307.584 
L 367.271535 304.033403 
L 364.426929 304.033403 
z
" style="fill:#1f77b4;"/>
   </g>
   <g id="patch_98">
    <path clip-path="url(#p5d463f619c)" d="M 367.271535 307.584 
L 370.116141 307.584 
L 370.116141 304.356184 
L 367.271535 304.356184 
z
" style="fill:#1f77b4;"/>
   </g>
   <g id="patch_99">
    <path clip-path="url(#p5d463f619c)" d="M 370.116141 307.584 
L 372.960747 307.584 
L 372.960747 305.647311 
L 370.116141 305.647311 
z
" style="fill:#1f77b4;"/>
   </g>
   <g id="patch_100">
    <path clip-path="url(#p5d463f619c)" d="M 372.960731 307.584 
L 375.805322 307.584 
L 375.805322 306.292867 
L 372.960731 306.292867 
z
" style="fill:#1f77b4;"/>
   </g>
   <g id="patch_101">
    <path clip-path="url(#p5d463f619c)" d="M 375.805337 307.584 
L 378.649943 307.584 
L 378.649943 307.584 
L 375.805337 307.584 
z
" style="fill:#1f77b4;"/>
   </g>
   <g id="patch_102">
    <path clip-path="url(#p5d463f619c)" d="M 378.649943 307.584 
L 381.494549 307.584 
L 381.494549 306.615655 
L 378.649943 306.615655 
z
" style="fill:#1f77b4;"/>
   </g>
   <g id="matplotlib.axis_1">
    <g id="xtick_1">
     <g id="line2d_1">
      <defs>
       <path d="M 0 0 
L 0 3.5 
" id="m7798a5eab7" style="stroke:#000000;stroke-width:0.8;"/>
      </defs>
      <g>
       <use style="stroke:#000000;stroke-width:0.8;" x="106.29948" xlink:href="#m7798a5eab7" y="307.584"/>
      </g>
     </g>
     <g id="text_1">
      <!-- −2 -->
      <defs>
       <path d="M 10.59375 35.5 
L 73.1875 35.5 
L 73.1875 27.203125 
L 10.59375 27.203125 
z
" id="DejaVuSans-8722"/>
       <path d="M 19.1875 8.296875 
L 53.609375 8.296875 
L 53.609375 0 
L 7.328125 0 
L 7.328125 8.296875 
Q 12.9375 14.109375 22.625 23.890625 
Q 32.328125 33.6875 34.8125 36.53125 
Q 39.546875 41.84375 41.421875 45.53125 
Q 43.3125 49.21875 43.3125 52.78125 
Q 43.3125 58.59375 39.234375 62.25 
Q 35.15625 65.921875 28.609375 65.921875 
Q 23.96875 65.921875 18.8125 64.3125 
Q 13.671875 62.703125 7.8125 59.421875 
L 7.8125 69.390625 
Q 13.765625 71.78125 18.9375 73 
Q 24.125 74.21875 28.421875 74.21875 
Q 39.75 74.21875 46.484375 68.546875 
Q 53.21875 62.890625 53.21875 53.421875 
Q 53.21875 48.921875 51.53125 44.890625 
Q 49.859375 40.875 45.40625 35.40625 
Q 44.1875 33.984375 37.640625 27.21875 
Q 31.109375 20.453125 19.1875 8.296875 
z
" id="DejaVuSans-50"/>
      </defs>
      <g transform="translate(93.768621 327.501344)scale(0.17 -0.17)">
       <use xlink:href="#DejaVuSans-8722"/>
       <use x="83.789062" xlink:href="#DejaVuSans-50"/>
      </g>
     </g>
    </g>
    <g id="xtick_2">
     <g id="line2d_2">
      <g>
       <use style="stroke:#000000;stroke-width:0.8;" x="171.232987" xlink:href="#m7798a5eab7" y="307.584"/>
      </g>
     </g>
     <g id="text_2">
      <!-- −1 -->
      <defs>
       <path d="M 12.40625 8.296875 
L 28.515625 8.296875 
L 28.515625 63.921875 
L 10.984375 60.40625 
L 10.984375 69.390625 
L 28.421875 72.90625 
L 38.28125 72.90625 
L 38.28125 8.296875 
L 54.390625 8.296875 
L 54.390625 0 
L 12.40625 0 
z
" id="DejaVuSans-49"/>
      </defs>
      <g transform="translate(158.702128 327.501344)scale(0.17 -0.17)">
       <use xlink:href="#DejaVuSans-8722"/>
       <use x="83.789062" xlink:href="#DejaVuSans-49"/>
      </g>
     </g>
    </g>
    <g id="xtick_3">
     <g id="line2d_3">
      <g>
       <use style="stroke:#000000;stroke-width:0.8;" x="236.166493" xlink:href="#m7798a5eab7" y="307.584"/>
      </g>
     </g>
     <g id="text_3">
      <!-- 0 -->
      <defs>
       <path d="M 31.78125 66.40625 
Q 24.171875 66.40625 20.328125 58.90625 
Q 16.5 51.421875 16.5 36.375 
Q 16.5 21.390625 20.328125 13.890625 
Q 24.171875 6.390625 31.78125 6.390625 
Q 39.453125 6.390625 43.28125 13.890625 
Q 47.125 21.390625 47.125 36.375 
Q 47.125 51.421875 43.28125 58.90625 
Q 39.453125 66.40625 31.78125 66.40625 
z
M 31.78125 74.21875 
Q 44.046875 74.21875 50.515625 64.515625 
Q 56.984375 54.828125 56.984375 36.375 
Q 56.984375 17.96875 50.515625 8.265625 
Q 44.046875 -1.421875 31.78125 -1.421875 
Q 19.53125 -1.421875 13.0625 8.265625 
Q 6.59375 17.96875 6.59375 36.375 
Q 6.59375 54.828125 13.0625 64.515625 
Q 19.53125 74.21875 31.78125 74.21875 
z
" id="DejaVuSans-48"/>
      </defs>
      <g transform="translate(230.758368 327.501344)scale(0.17 -0.17)">
       <use xlink:href="#DejaVuSans-48"/>
      </g>
     </g>
    </g>
    <g id="xtick_4">
     <g id="line2d_4">
      <g>
       <use style="stroke:#000000;stroke-width:0.8;" x="301.1" xlink:href="#m7798a5eab7" y="307.584"/>
      </g>
     </g>
     <g id="text_4">
      <!-- 1 -->
      <g transform="translate(295.691875 327.501344)scale(0.17 -0.17)">
       <use xlink:href="#DejaVuSans-49"/>
      </g>
     </g>
    </g>
    <g id="xtick_5">
     <g id="line2d_5">
      <g>
       <use style="stroke:#000000;stroke-width:0.8;" x="366.033506" xlink:href="#m7798a5eab7" y="307.584"/>
      </g>
     </g>
     <g id="text_5">
      <!-- 2 -->
      <g transform="translate(360.625381 327.501344)scale(0.17 -0.17)">
       <use xlink:href="#DejaVuSans-50"/>
      </g>
     </g>
    </g>
    <g id="text_6">
     <!-- Position in Radian -->
     <defs>
      <path d="M 19.671875 64.796875 
L 19.671875 37.40625 
L 32.078125 37.40625 
Q 38.96875 37.40625 42.71875 40.96875 
Q 46.484375 44.53125 46.484375 51.125 
Q 46.484375 57.671875 42.71875 61.234375 
Q 38.96875 64.796875 32.078125 64.796875 
z
M 9.8125 72.90625 
L 32.078125 72.90625 
Q 44.34375 72.90625 50.609375 67.359375 
Q 56.890625 61.8125 56.890625 51.125 
Q 56.890625 40.328125 50.609375 34.8125 
Q 44.34375 29.296875 32.078125 29.296875 
L 19.671875 29.296875 
L 19.671875 0 
L 9.8125 0 
z
" id="DejaVuSans-80"/>
      <path d="M 30.609375 48.390625 
Q 23.390625 48.390625 19.1875 42.75 
Q 14.984375 37.109375 14.984375 27.296875 
Q 14.984375 17.484375 19.15625 11.84375 
Q 23.34375 6.203125 30.609375 6.203125 
Q 37.796875 6.203125 41.984375 11.859375 
Q 46.1875 17.53125 46.1875 27.296875 
Q 46.1875 37.015625 41.984375 42.703125 
Q 37.796875 48.390625 30.609375 48.390625 
z
M 30.609375 56 
Q 42.328125 56 49.015625 48.375 
Q 55.71875 40.765625 55.71875 27.296875 
Q 55.71875 13.875 49.015625 6.21875 
Q 42.328125 -1.421875 30.609375 -1.421875 
Q 18.84375 -1.421875 12.171875 6.21875 
Q 5.515625 13.875 5.515625 27.296875 
Q 5.515625 40.765625 12.171875 48.375 
Q 18.84375 56 30.609375 56 
z
" id="DejaVuSans-111"/>
      <path d="M 44.28125 53.078125 
L 44.28125 44.578125 
Q 40.484375 46.53125 36.375 47.5 
Q 32.28125 48.484375 27.875 48.484375 
Q 21.1875 48.484375 17.84375 46.4375 
Q 14.5 44.390625 14.5 40.28125 
Q 14.5 37.15625 16.890625 35.375 
Q 19.28125 33.59375 26.515625 31.984375 
L 29.59375 31.296875 
Q 39.15625 29.25 43.1875 25.515625 
Q 47.21875 21.78125 47.21875 15.09375 
Q 47.21875 7.46875 41.1875 3.015625 
Q 35.15625 -1.421875 24.609375 -1.421875 
Q 20.21875 -1.421875 15.453125 -0.5625 
Q 10.6875 0.296875 5.421875 2 
L 5.421875 11.28125 
Q 10.40625 8.6875 15.234375 7.390625 
Q 20.0625 6.109375 24.8125 6.109375 
Q 31.15625 6.109375 34.5625 8.28125 
Q 37.984375 10.453125 37.984375 14.40625 
Q 37.984375 18.0625 35.515625 20.015625 
Q 33.0625 21.96875 24.703125 23.78125 
L 21.578125 24.515625 
Q 13.234375 26.265625 9.515625 29.90625 
Q 5.8125 33.546875 5.8125 39.890625 
Q 5.8125 47.609375 11.28125 51.796875 
Q 16.75 56 26.8125 56 
Q 31.78125 56 36.171875 55.265625 
Q 40.578125 54.546875 44.28125 53.078125 
z
" id="DejaVuSans-115"/>
      <path d="M 9.421875 54.6875 
L 18.40625 54.6875 
L 18.40625 0 
L 9.421875 0 
z
M 9.421875 75.984375 
L 18.40625 75.984375 
L 18.40625 64.59375 
L 9.421875 64.59375 
z
" id="DejaVuSans-105"/>
      <path d="M 18.3125 70.21875 
L 18.3125 54.6875 
L 36.8125 54.6875 
L 36.8125 47.703125 
L 18.3125 47.703125 
L 18.3125 18.015625 
Q 18.3125 11.328125 20.140625 9.421875 
Q 21.96875 7.515625 27.59375 7.515625 
L 36.8125 7.515625 
L 36.8125 0 
L 27.59375 0 
Q 17.1875 0 13.234375 3.875 
Q 9.28125 7.765625 9.28125 18.015625 
L 9.28125 47.703125 
L 2.6875 47.703125 
L 2.6875 54.6875 
L 9.28125 54.6875 
L 9.28125 70.21875 
z
" id="DejaVuSans-116"/>
      <path d="M 54.890625 33.015625 
L 54.890625 0 
L 45.90625 0 
L 45.90625 32.71875 
Q 45.90625 40.484375 42.875 44.328125 
Q 39.84375 48.1875 33.796875 48.1875 
Q 26.515625 48.1875 22.3125 43.546875 
Q 18.109375 38.921875 18.109375 30.90625 
L 18.109375 0 
L 9.078125 0 
L 9.078125 54.6875 
L 18.109375 54.6875 
L 18.109375 46.1875 
Q 21.34375 51.125 25.703125 53.5625 
Q 30.078125 56 35.796875 56 
Q 45.21875 56 50.046875 50.171875 
Q 54.890625 44.34375 54.890625 33.015625 
z
" id="DejaVuSans-110"/>
      <path id="DejaVuSans-32"/>
      <path d="M 44.390625 34.1875 
Q 47.5625 33.109375 50.5625 29.59375 
Q 53.5625 26.078125 56.59375 19.921875 
L 66.609375 0 
L 56 0 
L 46.6875 18.703125 
Q 43.0625 26.03125 39.671875 28.421875 
Q 36.28125 30.8125 30.421875 30.8125 
L 19.671875 30.8125 
L 19.671875 0 
L 9.8125 0 
L 9.8125 72.90625 
L 32.078125 72.90625 
Q 44.578125 72.90625 50.734375 67.671875 
Q 56.890625 62.453125 56.890625 51.90625 
Q 56.890625 45.015625 53.6875 40.46875 
Q 50.484375 35.9375 44.390625 34.1875 
z
M 19.671875 64.796875 
L 19.671875 38.921875 
L 32.078125 38.921875 
Q 39.203125 38.921875 42.84375 42.21875 
Q 46.484375 45.515625 46.484375 51.90625 
Q 46.484375 58.296875 42.84375 61.546875 
Q 39.203125 64.796875 32.078125 64.796875 
z
" id="DejaVuSans-82"/>
      <path d="M 34.28125 27.484375 
Q 23.390625 27.484375 19.1875 25 
Q 14.984375 22.515625 14.984375 16.5 
Q 14.984375 11.71875 18.140625 8.90625 
Q 21.296875 6.109375 26.703125 6.109375 
Q 34.1875 6.109375 38.703125 11.40625 
Q 43.21875 16.703125 43.21875 25.484375 
L 43.21875 27.484375 
z
M 52.203125 31.203125 
L 52.203125 0 
L 43.21875 0 
L 43.21875 8.296875 
Q 40.140625 3.328125 35.546875 0.953125 
Q 30.953125 -1.421875 24.3125 -1.421875 
Q 15.921875 -1.421875 10.953125 3.296875 
Q 6 8.015625 6 15.921875 
Q 6 25.140625 12.171875 29.828125 
Q 18.359375 34.515625 30.609375 34.515625 
L 43.21875 34.515625 
L 43.21875 35.40625 
Q 43.21875 41.609375 39.140625 45 
Q 35.0625 48.390625 27.6875 48.390625 
Q 23 48.390625 18.546875 47.265625 
Q 14.109375 46.140625 10.015625 43.890625 
L 10.015625 52.203125 
Q 14.9375 54.109375 19.578125 55.046875 
Q 24.21875 56 28.609375 56 
Q 40.484375 56 46.34375 49.84375 
Q 52.203125 43.703125 52.203125 31.203125 
z
" id="DejaVuSans-97"/>
      <path d="M 45.40625 46.390625 
L 45.40625 75.984375 
L 54.390625 75.984375 
L 54.390625 0 
L 45.40625 0 
L 45.40625 8.203125 
Q 42.578125 3.328125 38.25 0.953125 
Q 33.9375 -1.421875 27.875 -1.421875 
Q 17.96875 -1.421875 11.734375 6.484375 
Q 5.515625 14.40625 5.515625 27.296875 
Q 5.515625 40.1875 11.734375 48.09375 
Q 17.96875 56 27.875 56 
Q 33.9375 56 38.25 53.625 
Q 42.578125 51.265625 45.40625 46.390625 
z
M 14.796875 27.296875 
Q 14.796875 17.390625 18.875 11.75 
Q 22.953125 6.109375 30.078125 6.109375 
Q 37.203125 6.109375 41.296875 11.75 
Q 45.40625 17.390625 45.40625 27.296875 
Q 45.40625 37.203125 41.296875 42.84375 
Q 37.203125 48.484375 30.078125 48.484375 
Q 22.953125 48.484375 18.875 42.84375 
Q 14.796875 37.203125 14.796875 27.296875 
z
" id="DejaVuSans-100"/>
     </defs>
     <g transform="translate(102.024844 357.832125)scale(0.3 -0.3)">
      <use xlink:href="#DejaVuSans-80"/>
      <use x="60.255859" xlink:href="#DejaVuSans-111"/>
      <use x="121.4375" xlink:href="#DejaVuSans-115"/>
      <use x="173.537109" xlink:href="#DejaVuSans-105"/>
      <use x="201.320312" xlink:href="#DejaVuSans-116"/>
      <use x="240.529297" xlink:href="#DejaVuSans-105"/>
      <use x="268.3125" xlink:href="#DejaVuSans-111"/>
      <use x="329.494141" xlink:href="#DejaVuSans-110"/>
      <use x="392.873047" xlink:href="#DejaVuSans-32"/>
      <use x="424.660156" xlink:href="#DejaVuSans-105"/>
      <use x="452.443359" xlink:href="#DejaVuSans-110"/>
      <use x="515.822266" xlink:href="#DejaVuSans-32"/>
      <use x="547.609375" xlink:href="#DejaVuSans-82"/>
      <use x="617.060547" xlink:href="#DejaVuSans-97"/>
      <use x="678.339844" xlink:href="#DejaVuSans-100"/>
      <use x="741.816406" xlink:href="#DejaVuSans-105"/>
      <use x="769.599609" xlink:href="#DejaVuSans-97"/>
      <use x="830.878906" xlink:href="#DejaVuSans-110"/>
     </g>
    </g>
   </g>
   <g id="matplotlib.axis_2">
    <g id="ytick_1">
     <g id="line2d_6">
      <defs>
       <path d="M 0 0 
L -3.5 0 
" id="md28c10485e" style="stroke:#000000;stroke-width:0.8;"/>
      </defs>
      <g>
       <use style="stroke:#000000;stroke-width:0.8;" x="57.6" xlink:href="#md28c10485e" y="307.584"/>
      </g>
     </g>
     <g id="text_7">
      <!-- 0.00 -->
      <defs>
       <path d="M 10.6875 12.40625 
L 21 12.40625 
L 21 0 
L 10.6875 0 
z
" id="DejaVuSans-46"/>
      </defs>
      <g transform="translate(12.748438 314.042672)scale(0.17 -0.17)">
       <use xlink:href="#DejaVuSans-48"/>
       <use x="63.623047" xlink:href="#DejaVuSans-46"/>
       <use x="95.410156" xlink:href="#DejaVuSans-48"/>
       <use x="159.033203" xlink:href="#DejaVuSans-48"/>
      </g>
     </g>
    </g>
    <g id="ytick_2">
     <g id="line2d_7">
      <g>
       <use style="stroke:#000000;stroke-width:0.8;" x="57.6" xlink:href="#md28c10485e" y="263.395222"/>
      </g>
     </g>
     <g id="text_8">
      <!-- 0.25 -->
      <defs>
       <path d="M 10.796875 72.90625 
L 49.515625 72.90625 
L 49.515625 64.59375 
L 19.828125 64.59375 
L 19.828125 46.734375 
Q 21.96875 47.46875 24.109375 47.828125 
Q 26.265625 48.1875 28.421875 48.1875 
Q 40.625 48.1875 47.75 41.5 
Q 54.890625 34.8125 54.890625 23.390625 
Q 54.890625 11.625 47.5625 5.09375 
Q 40.234375 -1.421875 26.90625 -1.421875 
Q 22.3125 -1.421875 17.546875 -0.640625 
Q 12.796875 0.140625 7.71875 1.703125 
L 7.71875 11.625 
Q 12.109375 9.234375 16.796875 8.0625 
Q 21.484375 6.890625 26.703125 6.890625 
Q 35.15625 6.890625 40.078125 11.328125 
Q 45.015625 15.765625 45.015625 23.390625 
Q 45.015625 31 40.078125 35.4375 
Q 35.15625 39.890625 26.703125 39.890625 
Q 22.75 39.890625 18.8125 39.015625 
Q 14.890625 38.140625 10.796875 36.28125 
z
" id="DejaVuSans-53"/>
      </defs>
      <g transform="translate(12.748438 269.853894)scale(0.17 -0.17)">
       <use xlink:href="#DejaVuSans-48"/>
       <use x="63.623047" xlink:href="#DejaVuSans-46"/>
       <use x="95.410156" xlink:href="#DejaVuSans-50"/>
       <use x="159.033203" xlink:href="#DejaVuSans-53"/>
      </g>
     </g>
    </g>
    <g id="ytick_3">
     <g id="line2d_8">
      <g>
       <use style="stroke:#000000;stroke-width:0.8;" x="57.6" xlink:href="#md28c10485e" y="219.206444"/>
      </g>
     </g>
     <g id="text_9">
      <!-- 0.50 -->
      <g transform="translate(12.748438 225.665115)scale(0.17 -0.17)">
       <use xlink:href="#DejaVuSans-48"/>
       <use x="63.623047" xlink:href="#DejaVuSans-46"/>
       <use x="95.410156" xlink:href="#DejaVuSans-53"/>
       <use x="159.033203" xlink:href="#DejaVuSans-48"/>
      </g>
     </g>
    </g>
    <g id="ytick_4">
     <g id="line2d_9">
      <g>
       <use style="stroke:#000000;stroke-width:0.8;" x="57.6" xlink:href="#md28c10485e" y="175.017665"/>
      </g>
     </g>
     <g id="text_10">
      <!-- 0.75 -->
      <defs>
       <path d="M 8.203125 72.90625 
L 55.078125 72.90625 
L 55.078125 68.703125 
L 28.609375 0 
L 18.3125 0 
L 43.21875 64.59375 
L 8.203125 64.59375 
z
" id="DejaVuSans-55"/>
      </defs>
      <g transform="translate(12.748438 181.476337)scale(0.17 -0.17)">
       <use xlink:href="#DejaVuSans-48"/>
       <use x="63.623047" xlink:href="#DejaVuSans-46"/>
       <use x="95.410156" xlink:href="#DejaVuSans-55"/>
       <use x="159.033203" xlink:href="#DejaVuSans-53"/>
      </g>
     </g>
    </g>
    <g id="ytick_5">
     <g id="line2d_10">
      <g>
       <use style="stroke:#000000;stroke-width:0.8;" x="57.6" xlink:href="#md28c10485e" y="130.828887"/>
      </g>
     </g>
     <g id="text_11">
      <!-- 1.00 -->
      <g transform="translate(12.748438 137.287559)scale(0.17 -0.17)">
       <use xlink:href="#DejaVuSans-49"/>
       <use x="63.623047" xlink:href="#DejaVuSans-46"/>
       <use x="95.410156" xlink:href="#DejaVuSans-48"/>
       <use x="159.033203" xlink:href="#DejaVuSans-48"/>
      </g>
     </g>
    </g>
    <g id="ytick_6">
     <g id="line2d_11">
      <g>
       <use style="stroke:#000000;stroke-width:0.8;" x="57.6" xlink:href="#md28c10485e" y="86.640109"/>
      </g>
     </g>
     <g id="text_12">
      <!-- 1.25 -->
      <g transform="translate(12.748438 93.098781)scale(0.17 -0.17)">
       <use xlink:href="#DejaVuSans-49"/>
       <use x="63.623047" xlink:href="#DejaVuSans-46"/>
       <use x="95.410156" xlink:href="#DejaVuSans-50"/>
       <use x="159.033203" xlink:href="#DejaVuSans-53"/>
      </g>
     </g>
    </g>
    <g id="ytick_7">
     <g id="line2d_12">
      <g>
       <use style="stroke:#000000;stroke-width:0.8;" x="57.6" xlink:href="#md28c10485e" y="42.451331"/>
      </g>
     </g>
     <g id="text_13">
      <!-- 1.50 -->
      <g transform="translate(12.748438 48.910002)scale(0.17 -0.17)">
       <use xlink:href="#DejaVuSans-49"/>
       <use x="63.623047" xlink:href="#DejaVuSans-46"/>
       <use x="95.410156" xlink:href="#DejaVuSans-53"/>
       <use x="159.033203" xlink:href="#DejaVuSans-48"/>
      </g>
     </g>
    </g>
    <g id="text_14">
     <!-- Density -->
     <defs>
      <path d="M 19.671875 64.796875 
L 19.671875 8.109375 
L 31.59375 8.109375 
Q 46.6875 8.109375 53.6875 14.9375 
Q 60.6875 21.78125 60.6875 36.53125 
Q 60.6875 51.171875 53.6875 57.984375 
Q 46.6875 64.796875 31.59375 64.796875 
z
M 9.8125 72.90625 
L 30.078125 72.90625 
Q 51.265625 72.90625 61.171875 64.09375 
Q 71.09375 55.28125 71.09375 36.53125 
Q 71.09375 17.671875 61.125 8.828125 
Q 51.171875 0 30.078125 0 
L 9.8125 0 
z
" id="DejaVuSans-68"/>
      <path d="M 56.203125 29.59375 
L 56.203125 25.203125 
L 14.890625 25.203125 
Q 15.484375 15.921875 20.484375 11.0625 
Q 25.484375 6.203125 34.421875 6.203125 
Q 39.59375 6.203125 44.453125 7.46875 
Q 49.3125 8.734375 54.109375 11.28125 
L 54.109375 2.78125 
Q 49.265625 0.734375 44.1875 -0.34375 
Q 39.109375 -1.421875 33.890625 -1.421875 
Q 20.796875 -1.421875 13.15625 6.1875 
Q 5.515625 13.8125 5.515625 26.8125 
Q 5.515625 40.234375 12.765625 48.109375 
Q 20.015625 56 32.328125 56 
Q 43.359375 56 49.78125 48.890625 
Q 56.203125 41.796875 56.203125 29.59375 
z
M 47.21875 32.234375 
Q 47.125 39.59375 43.09375 43.984375 
Q 39.0625 48.390625 32.421875 48.390625 
Q 24.90625 48.390625 20.390625 44.140625 
Q 15.875 39.890625 15.1875 32.171875 
z
" id="DejaVuSans-101"/>
      <path d="M 32.171875 -5.078125 
Q 28.375 -14.84375 24.75 -17.8125 
Q 21.140625 -20.796875 15.09375 -20.796875 
L 7.90625 -20.796875 
L 7.90625 -13.28125 
L 13.1875 -13.28125 
Q 16.890625 -13.28125 18.9375 -11.515625 
Q 21 -9.765625 23.484375 -3.21875 
L 25.09375 0.875 
L 2.984375 54.6875 
L 12.5 54.6875 
L 29.59375 11.921875 
L 46.6875 54.6875 
L 56.203125 54.6875 
z
" id="DejaVuSans-121"/>
     </defs>
     <g transform="translate(2.509375 231.553781)rotate(-90)scale(0.3 -0.3)">
      <use xlink:href="#DejaVuSans-68"/>
      <use x="77.001953" xlink:href="#DejaVuSans-101"/>
      <use x="138.525391" xlink:href="#DejaVuSans-110"/>
      <use x="201.904297" xlink:href="#DejaVuSans-115"/>
      <use x="254.003906" xlink:href="#DejaVuSans-105"/>
      <use x="281.787109" xlink:href="#DejaVuSans-116"/>
      <use x="320.996094" xlink:href="#DejaVuSans-121"/>
     </g>
    </g>
   </g>
   <g id="line2d_13">
    <path clip-path="url(#p5d463f619c)" d="M 73.832727 307.584 
L 95.845186 307.473531 
L 96.403614 307.178415 
L 98.013965 306.148272 
L 99.351595 305.900604 
L 99.702236 306.080224 
L 100.195731 306.644049 
L 100.871039 307.338665 
L 101.351547 307.512233 
L 101.871015 307.461064 
L 102.338537 307.194894 
L 102.870991 306.609603 
L 104.182648 305.048011 
L 104.546276 304.978597 
L 104.870943 305.148551 
L 105.792999 305.809242 
L 106.013773 305.578069 
L 106.29948 304.91249 
L 106.754015 303.172959 
L 107.429324 300.702767 
L 107.702044 300.383126 
L 107.883858 300.449274 
L 108.117619 300.820622 
L 108.520206 301.978683 
L 109.260448 304.092643 
L 109.533169 304.317275 
L 109.740956 304.221836 
L 110.013677 303.793336 
L 110.494185 302.5253 
L 111.156507 300.934845 
L 111.455201 300.703464 
L 111.662988 300.795692 
L 111.922722 301.193427 
L 112.546084 302.741576 
L 112.909711 303.269899 
L 113.143472 303.27731 
L 113.403206 303.021809 
L 113.935661 302.094481 
L 114.559023 300.638301 
L 115.416145 298.492579 
L 115.623932 298.441979 
L 115.818733 298.655354 
L 116.10444 299.381345 
L 117.130389 302.384413 
L 117.28623 302.308168 
L 117.507004 301.869852 
L 117.974525 300.253375 
L 118.429059 299.060135 
L 118.714767 298.830535 
L 118.974501 298.895818 
L 119.416049 299.295799 
L 119.948504 299.693746 
L 120.247198 299.645836 
L 120.740692 299.254119 
L 121.078347 299.135865 
L 121.325094 299.287725 
L 121.636775 299.791042 
L 122.55883 301.466676 
L 122.753631 301.388281 
L 122.974405 301.004763 
L 123.312059 299.88393 
L 124.078275 297.24696 
L 124.260088 297.191946 
L 124.428915 297.422725 
L 124.714623 298.295566 
L 125.363958 300.333125 
L 125.571745 300.424458 
L 125.753559 300.236685 
L 126.130173 299.414772 
L 126.532761 298.75742 
L 126.779508 298.717986 
L 127.117163 298.955484 
L 127.636631 299.258641 
L 127.987272 299.204328 
L 128.285966 298.929957 
L 128.62362 298.265288 
L 129.480742 296.38302 
L 129.68853 296.411347 
L 129.974237 296.74731 
L 130.558638 297.435953 
L 131.428747 298.018501 
L 132.389763 299.413661 
L 132.610537 299.275282 
L 133.000138 298.682103 
L 133.480646 298.088623 
L 134.078035 297.81339 
L 135.311771 297.044111 
L 135.688385 296.360493 
L 136.610441 294.605848 
L 137.000042 293.717242 
L 138.025992 291.00422 
L 138.311699 290.962979 
L 138.727274 291.148888 
L 138.974021 291.497193 
L 139.246742 292.34887 
L 139.740236 294.895516 
L 140.090877 296.136007 
L 140.272691 296.207786 
L 140.441518 295.927376 
L 140.831119 294.644871 
L 141.207734 293.77471 
L 141.441494 293.682967 
L 141.753175 293.862504 
L 142.155763 294.025874 
L 142.428483 293.885605 
L 142.779124 293.39455 
L 143.389499 292.549757 
L 143.597287 292.585388 
L 143.844034 292.902331 
L 144.88297 294.555628 
L 145.129717 294.454624 
L 145.921906 293.955976 
L 146.18164 294.217865 
L 146.753055 294.84579 
L 146.934869 294.731036 
L 147.181616 294.240449 
L 147.675111 292.603411 
L 148.324446 290.712734 
L 148.6621 290.289109 
L 148.895861 290.30508 
L 149.220528 290.617785 
L 149.610129 290.89957 
L 149.830903 290.792054 
L 150.103624 290.356461 
L 150.545172 289.14831 
L 151.155547 286.769421 
L 151.817868 284.352067 
L 152.025656 284.183283 
L 152.168509 284.34684 
L 152.376297 285.023315 
L 152.713951 287.056431 
L 153.363286 290.962873 
L 153.571073 291.218595 
L 153.70094 291.06052 
L 153.934701 290.310022 
L 154.493129 288.477078 
L 154.635983 288.503723 
L 154.80481 288.885576 
L 155.129477 290.362922 
L 155.609985 292.28183 
L 155.817772 292.426493 
L 155.999586 292.231248 
L 156.571001 291.477559 
L 156.752815 291.638432 
L 157.36319 292.447671 
L 157.40215 292.414456 
L 157.570977 292.069556 
L 157.856685 290.853323 
L 158.480046 288.189341 
L 158.713807 287.954513 
L 158.908607 288.041358 
L 159.285222 288.531617 
L 159.895597 289.655311 
L 160.505972 291.42302 
L 160.869599 292.12891 
L 161.051413 292.133744 
L 161.246214 291.847773 
L 161.622828 290.75603 
L 162.064376 289.716852 
L 162.350083 289.538746 
L 162.765658 289.356493 
L 163.012405 288.888439 
L 163.869527 286.86377 
L 163.895501 286.876465 
L 164.064328 287.123821 
L 164.337049 288.034769 
L 165.285078 291.558279 
L 165.466892 291.593767 
L 165.622732 291.333647 
L 165.843506 290.458386 
L 166.18116 288.063722 
L 166.999322 281.999371 
L 167.24607 281.564907 
L 167.40191 281.644052 
L 167.674631 282.151452 
L 168.310979 283.318247 
L 169.038234 284.052425 
L 169.284982 284.054948 
L 169.531729 283.797203 
L 169.96029 282.922039 
L 170.570665 281.823183 
L 171.440774 280.62595 
L 171.804402 279.251907 
L 172.388803 277.115602 
L 172.570617 277.046665 
L 172.726458 277.295581 
L 172.986192 278.228155 
L 173.73942 281.119027 
L 173.895261 281.117474 
L 174.051101 280.806972 
L 174.310835 279.692311 
L 175.103024 275.975843 
L 175.297824 275.865246 
L 175.479638 276.044841 
L 176.375721 277.231176 
L 176.674415 277.524917 
L 176.960122 278.194872 
L 177.505564 279.482893 
L 177.635431 279.374558 
L 177.817244 278.78585 
L 178.115939 276.861629 
L 178.77826 272.498568 
L 178.986048 272.200705 
L 179.115915 272.332238 
L 179.336689 272.986381 
L 180.154851 275.73524 
L 180.453545 275.922248 
L 181.193787 276.19653 
L 181.700268 276.656158 
L 182.024936 277.306771 
L 183.037898 279.678859 
L 183.323606 279.654413 
L 183.77814 279.632623 
L 184.154755 279.618902 
L 184.336569 279.329915 
L 184.557342 278.497993 
L 184.869023 276.300167 
L 185.868999 268.475084 
L 186.076786 268.263376 
L 186.21964 268.432156 
L 186.479374 269.181683 
L 187.128709 271.11285 
L 187.297536 271.134523 
L 187.466364 270.852649 
L 187.713111 269.907469 
L 188.154659 267.138469 
L 188.907887 262.666884 
L 189.310475 261.462419 
L 189.557222 261.243582 
L 189.72605 261.351451 
L 189.946823 261.809841 
L 190.310451 263.177729 
L 191.06368 266.035824 
L 191.323414 266.321636 
L 191.518214 266.242549 
L 191.842882 265.775282 
L 192.375337 265.088972 
L 192.712991 264.982682 
L 192.946751 265.122209 
L 193.180512 265.572449 
L 193.453233 266.661197 
L 193.868807 269.432717 
L 194.401262 272.661162 
L 194.570089 272.866991 
L 194.583076 272.858696 
L 194.699956 272.620439 
L 194.894757 271.577131 
L 195.232411 268.240822 
L 196.06356 259.69549 
L 196.349267 258.680508 
L 196.518094 258.635229 
L 196.686921 258.916402 
L 197.349243 260.397093 
L 197.388203 260.369541 
L 197.531057 260.073896 
L 197.764818 258.935944 
L 198.297272 254.748043 
L 198.6609 252.843699 
L 198.855701 252.642611 
L 198.998554 252.841329 
L 199.284262 253.766674 
L 199.673863 254.78666 
L 199.816716 254.764618 
L 199.985544 254.402754 
L 200.284238 253.087307 
L 201.011493 249.832994 
L 202.141336 246.181939 
L 202.959498 242.533917 
L 203.284166 239.283153 
L 204.193235 229.195881 
L 204.271155 229.133141 
L 204.310115 229.173813 
L 204.439982 229.64912 
L 204.660756 231.545941 
L 205.07633 237.552678 
L 205.764626 246.969564 
L 206.076306 248.649157 
L 206.25812 248.819322 
L 206.426947 248.63651 
L 206.842522 248.148436 
L 206.998362 248.318244 
L 207.258096 249.044584 
L 207.634711 249.933223 
L 207.751591 249.872768 
L 207.907431 249.43945 
L 208.167165 247.893938 
L 209.115195 241.54613 
L 209.491809 240.779769 
L 210.491785 239.341545 
L 210.504772 239.350595 
L 210.725546 239.665749 
L 211.115147 240.182646 
L 211.232027 240.007501 
L 211.400854 239.259459 
L 211.660588 236.860983 
L 212.530697 227.679778 
L 212.621604 227.630178 
L 212.660564 227.677911 
L 212.803418 228.166065 
L 213.102112 230.217753 
L 213.556646 232.957634 
L 213.712487 233.151792 
L 213.73846 233.138327 
L 213.868327 232.881874 
L 214.089101 231.823467 
L 215.231931 225.345751 
L 215.543612 224.958622 
L 215.803346 224.93197 
L 216.06308 225.153523 
L 216.673455 225.775306 
L 216.829295 225.511149 
L 217.037082 224.62502 
L 217.36175 222.042724 
L 218.076018 216.207191 
L 218.270819 215.914699 
L 218.400686 216.068458 
L 218.673407 216.898972 
L 219.050021 217.804748 
L 219.205861 217.771152 
L 219.387675 217.384049 
L 219.686369 216.097815 
L 220.777252 210.848713 
L 220.907119 210.895408 
L 221.06296 211.285286 
L 221.322694 212.652736 
L 222.088909 217.05523 
L 222.231763 217.120933 
L 222.24475 217.110734 
L 222.387603 216.830009 
L 222.634351 215.713533 
L 223.075898 212.434576 
L 223.803154 207.215814 
L 224.075874 206.597911 
L 224.257688 206.604671 
L 224.582356 206.966803 
L 224.95897 207.242886 
L 225.192731 207.168912 
L 225.426491 206.823002 
L 225.699212 205.945316 
L 226.543348 202.620313 
L 226.582308 202.643036 
L 226.725162 202.950513 
L 226.958922 204.13009 
L 227.997858 210.240113 
L 228.231619 210.464591 
L 228.387459 210.338998 
L 228.608233 209.810276 
L 229.426395 207.300176 
L 229.478342 207.332127 
L 229.621196 207.630881 
L 229.854957 208.760455 
L 230.556238 212.821961 
L 230.595198 212.791658 
L 230.699092 212.43597 
L 230.867919 210.90377 
L 231.127653 206.174301 
L 232.257496 182.326837 
L 232.387363 182.068031 
L 232.426323 182.093158 
L 232.55619 182.459948 
L 232.815924 184.072588 
L 233.517206 188.497502 
L 234.127581 190.400457 
L 234.296408 190.60568 
L 234.322382 190.583166 
L 234.426275 190.253226 
L 234.569129 188.877944 
L 234.750943 184.672452 
L 234.984704 173.171576 
L 235.283398 145.845398 
L 236.17948 54.273323 
L 236.205453 54.144 
L 236.244414 54.372133 
L 236.348307 57.409049 
L 236.543108 71.627854 
L 236.984656 125.756775 
L 237.491137 176.802141 
L 237.828791 192.383458 
L 238.088525 196.298556 
L 238.166445 196.450828 
L 238.205405 196.381585 
L 238.322286 195.666688 
L 238.556046 192.49228 
L 240.283278 164.22905 
L 240.348211 164.161835 
L 240.387171 164.213508 
L 240.504052 164.795945 
L 240.711839 167.357145 
L 241.127413 176.168958 
L 241.633895 185.280289 
L 241.958562 187.678754 
L 242.646857 190.997513 
L 243.023472 195.453623 
L 243.646833 202.571209 
L 243.867607 203.26499 
L 243.958514 203.188562 
L 244.114355 202.613199 
L 244.413049 200.401958 
L 244.984464 196.327772 
L 245.192251 195.982349 
L 245.322118 196.115469 
L 245.555878 196.824217 
L 246.036386 198.250628 
L 246.166253 198.201112 
L 246.322094 197.776281 
L 246.594814 196.206254 
L 247.127269 193.186716 
L 247.231163 193.12795 
L 247.257136 193.152476 
L 247.387003 193.509508 
L 247.620764 195.007259 
L 248.451913 200.995849 
L 248.685673 201.278497 
L 248.919434 201.20475 
L 249.373969 200.814237 
L 249.581756 200.248692 
L 249.815516 198.8523 
L 250.153171 195.209973 
L 250.802506 188.217017 
L 250.932373 187.951134 
L 250.971333 187.982453 
L 251.088213 188.388712 
L 251.296 190.191784 
L 251.737548 196.687475 
L 252.153123 201.366864 
L 252.36091 201.963083 
L 252.464803 201.834001 
L 252.672591 201.01327 
L 253.101152 199.396863 
L 253.218032 199.440671 
L 253.373873 199.900846 
L 253.724513 201.900993 
L 254.101128 203.476529 
L 254.321902 203.662914 
L 254.633583 203.526177 
L 254.906303 203.536442 
L 255.490705 203.676857 
L 255.867319 203.656793 
L 256.036146 203.946495 
L 256.25692 204.839671 
L 256.607561 207.392026 
L 257.230923 211.800052 
L 257.464683 212.241732 
L 257.59455 212.165303 
L 257.802338 211.689087 
L 258.85426 208.777479 
L 259.010101 208.886521 
L 259.191915 209.360821 
L 259.451649 210.802206 
L 259.854236 214.623079 
L 260.451625 219.948345 
L 260.737332 220.834235 
L 260.958106 220.943617 
L 261.321734 221.02801 
L 261.529521 221.414191 
L 261.815228 222.502243 
L 262.32171 225.51644 
L 263.035978 229.463174 
L 263.334672 230.108905 
L 263.516486 230.119521 
L 263.73726 229.841466 
L 264.165821 229.320242 
L 264.308675 229.448192 
L 264.516462 230.035134 
L 265.282678 232.806669 
L 265.321638 232.786754 
L 265.464491 232.51198 
L 265.711239 231.414763 
L 266.607321 226.969048 
L 266.880042 226.647816 
L 267.087829 226.703049 
L 267.789111 227.097682 
L 267.996898 226.776255 
L 268.360526 225.691768 
L 268.763114 224.732307 
L 268.918954 224.750154 
L 269.087781 225.104264 
L 269.360502 226.324045 
L 269.99685 229.266391 
L 270.139704 229.331526 
L 270.152691 229.32227 
L 270.295544 229.061349 
L 270.555278 227.996067 
L 271.06176 225.962542 
L 271.165653 225.953109 
L 271.191627 225.984791 
L 271.33448 226.418058 
L 271.568241 228.048246 
L 272.568217 236.431888 
L 272.581204 236.427268 
L 272.685097 236.235726 
L 272.866911 235.287434 
L 273.217552 231.94846 
L 273.840914 226.331971 
L 274.100648 225.551859 
L 274.230515 225.577433 
L 274.386355 225.959953 
L 274.633103 227.313043 
L 274.983743 230.725865 
L 275.555158 239.026095 
L 276.048653 244.9078 
L 276.2954 245.814821 
L 276.399294 245.749593 
L 276.568121 245.200855 
L 277.39927 241.835035 
L 277.412257 241.839848 
L 277.542124 242.024036 
L 277.749911 242.797108 
L 278.139512 245.306998 
L 278.7369 248.81616 
L 279.113515 249.798759 
L 279.619996 250.461831 
L 279.95765 250.628094 
L 280.243358 250.514359 
L 280.827759 250.218731 
L 281.035546 250.411189 
L 281.33424 251.055693 
L 281.931629 252.34802 
L 282.100456 252.329319 
L 282.28227 252.036435 
L 282.580964 251.045498 
L 283.243286 248.79119 
L 283.438086 248.724124 
L 283.606913 248.958191 
L 283.892621 249.826631 
L 284.983503 253.515932 
L 285.814652 255.40566 
L 286.230227 257.524548 
L 287.087349 261.937345 
L 287.697724 263.809909 
L 288.632767 265.874613 
L 289.321062 267.503279 
L 290.126237 269.542436 
L 290.450905 269.762685 
L 291.06128 270.04243 
L 291.554774 270.694611 
L 292.762538 272.570589 
L 293.762514 275.22915 
L 293.918354 275.128216 
L 294.126141 274.644436 
L 294.463795 273.151752 
L 295.320918 269.170913 
L 295.619612 268.76052 
L 295.944279 268.714794 
L 296.217 268.591003 
L 296.463747 268.183494 
L 296.827375 267.061224 
L 297.918258 263.424545 
L 298.061112 263.448449 
L 298.216952 263.816289 
L 298.437726 265.03863 
L 298.801354 268.606502 
L 299.411729 274.40382 
L 299.645489 274.988963 
L 299.76237 274.877832 
L 299.95717 274.241468 
L 300.658452 271.64321 
L 300.801306 271.695098 
L 300.983119 272.111261 
L 301.33376 273.636767 
L 301.866215 275.714061 
L 302.086989 275.898651 
L 302.242829 275.739878 
L 302.502564 275.062408 
L 303.086965 273.491177 
L 303.242805 273.516105 
L 303.411633 273.85209 
L 303.710327 275.072232 
L 304.307715 277.479727 
L 304.528489 277.661539 
L 304.710303 277.513234 
L 305.385611 276.709374 
L 305.398598 276.719115 
L 305.567425 277.005507 
L 305.801186 277.920829 
L 306.1778 280.465455 
L 307.008949 286.187114 
L 307.346603 287.104897 
L 307.580364 287.241599 
L 307.827111 287.109722 
L 308.372553 286.786558 
L 308.684233 286.914578 
L 309.099808 287.045944 
L 309.333568 286.856188 
L 309.671223 286.225535 
L 310.346531 284.972577 
L 310.606265 284.899803 
L 310.840026 285.096345 
L 311.190667 285.757738 
L 311.762082 286.777505 
L 311.956882 286.769571 
L 312.151683 286.490907 
L 312.47635 285.53197 
L 313.086725 283.773682 
L 313.333472 283.622954 
L 313.554246 283.756737 
L 313.930861 284.31253 
L 314.385395 285.358664 
L 314.774996 286.869153 
L 315.904839 291.822172 
L 316.034706 291.733044 
L 316.229507 291.219621 
L 316.567161 289.532273 
L 317.28143 285.988371 
L 317.567137 285.530671 
L 317.735964 285.569782 
L 317.943751 285.907534 
L 318.268419 286.95897 
L 319.255408 290.463117 
L 319.450209 290.498341 
L 319.645009 290.249241 
L 320.346291 289.132228 
L 320.502132 289.353107 
L 320.735892 290.154807 
L 321.800802 294.482794 
L 321.956642 294.410273 
L 322.177416 293.987981 
L 322.55403 292.676644 
L 324.138408 286.531358 
L 324.87865 284.910184 
L 325.281238 284.442972 
L 325.540972 284.432186 
L 325.839666 284.694192 
L 326.346147 285.129027 
L 326.566921 285.025129 
L 326.865615 284.565458 
L 327.488977 283.586008 
L 327.670791 283.6387 
L 327.865591 283.980727 
L 328.151299 285.034531 
L 328.787647 288.59961 
L 329.216208 290.244827 
L 329.462955 290.525792 
L 329.631783 290.423929 
L 329.852556 289.947699 
L 330.190211 288.566208 
L 330.969413 285.195758 
L 331.13824 285.154698 
L 331.29408 285.430409 
L 331.566801 286.483745 
L 332.39795 289.954864 
L 332.683657 290.268118 
L 332.995338 290.264587 
L 333.475846 290.277804 
L 334.112194 290.603423 
L 334.605689 291.078386 
L 335.099184 291.494436 
L 335.345931 291.435317 
L 335.696572 291.062727 
L 336.151107 290.662156 
L 336.384867 290.727783 
L 336.657588 291.0779 
L 337.164069 292.187151 
L 338.423779 294.989514 
L 338.566633 294.875191 
L 338.761434 294.356432 
L 339.060128 292.800712 
L 339.76141 288.972779 
L 339.91725 288.873511 
L 339.930237 288.883126 
L 340.07309 289.163037 
L 340.319838 290.264138 
L 340.982159 293.368417 
L 341.138 293.421347 
L 341.150987 293.410608 
L 341.306827 293.119608 
L 341.631494 291.885249 
L 342.112002 290.281013 
L 342.371736 290.035351 
L 342.618484 290.100744 
L 343.280806 290.626087 
L 343.709367 291.205028 
L 345.449585 293.996883 
L 345.956066 294.509713 
L 346.423587 294.971458 
L 346.787215 295.751 
L 347.462523 297.227879 
L 347.670311 297.264992 
L 347.878098 297.03934 
L 348.202765 296.286736 
L 349.163781 293.899337 
L 349.566369 293.521846 
L 349.942983 293.442168 
L 350.215704 293.589906 
L 350.475438 294.00283 
L 350.800106 295.004542 
L 352.059816 299.540989 
L 352.228643 299.479943 
L 352.423443 299.101664 
L 352.709151 297.957592 
L 353.215632 294.74811 
L 353.69614 292.239041 
L 353.929901 291.88803 
L 354.059768 291.987058 
L 354.254568 292.486673 
L 354.631182 294.233958 
L 355.267531 297.02287 
L 355.553238 297.44932 
L 355.761025 297.421836 
L 356.085693 297.071401 
L 356.605161 296.580527 
L 356.994762 296.519478 
L 357.35839 296.67654 
L 357.696044 297.084506 
L 358.098632 297.972317 
L 359.085621 300.315518 
L 359.384315 300.450517 
L 359.79989 300.336079 
L 360.280398 300.279991 
L 360.669999 300.480858 
L 361.514134 300.99997 
L 361.773868 300.852389 
L 362.098536 300.368528 
L 362.799818 299.264026 
L 362.981631 299.323258 
L 363.202405 299.687647 
L 363.57902 300.851789 
L 364.215368 302.701385 
L 364.630942 303.224342 
L 366.669855 305.164678 
L 367.176336 305.705735 
L 367.43607 305.693806 
L 367.695804 305.41884 
L 368.137352 304.528721 
L 368.65682 303.63726 
L 368.942527 303.531509 
L 369.228235 303.686028 
L 370.03341 304.235755 
L 370.942479 304.40195 
L 371.319094 304.955148 
L 372.150243 306.221271 
L 372.487897 306.343871 
L 372.877498 306.226852 
L 373.461899 306.065071 
L 373.825527 306.226107 
L 374.91641 306.87328 
L 375.721585 307.142554 
L 376.669615 307.53347 
L 377.55271 307.569209 
L 378.253992 307.420216 
L 378.786447 307.057742 
L 379.539676 306.553681 
L 379.903303 306.60624 
L 381.085093 307.002249 
L 381.747415 307.050985 
L 383.513606 307.579514 
L 389.045941 307.584 
L 398.487273 307.584 
L 398.487273 307.584 
" style="fill:none;stroke:#ff7f0e;stroke-linecap:square;stroke-width:1.5;"/>
   </g>
   <g id="patch_103">
    <path d="M 57.6 307.584 
L 57.6 41.472 
" style="fill:none;stroke:#000000;stroke-linecap:square;stroke-linejoin:miter;stroke-width:0.8;"/>
   </g>
   <g id="patch_104">
    <path d="M 414.72 307.584 
L 414.72 41.472 
" style="fill:none;stroke:#000000;stroke-linecap:square;stroke-linejoin:miter;stroke-width:0.8;"/>
   </g>
   <g id="patch_105">
    <path d="M 57.6 307.584 
L 414.72 307.584 
" style="fill:none;stroke:#000000;stroke-linecap:square;stroke-linejoin:miter;stroke-width:0.8;"/>
   </g>
   <g id="patch_106">
    <path d="M 57.6 41.472 
L 414.72 41.472 
" style="fill:none;stroke:#000000;stroke-linecap:square;stroke-linejoin:miter;stroke-width:0.8;"/>
   </g>
  </g>
 </g>
 <defs>
  <clipPath id="p5d463f619c">
   <rect height="266.112" width="357.12" x="57.6" y="41.472"/>
  </clipPath>
 </defs>
</svg>
