<?xml version="1.0" encoding="utf-8" standalone="no"?>
<!DOCTYPE svg PUBLIC "-//W3C//DTD SVG 1.1//EN"
  "http://www.w3.org/Graphics/SVG/1.1/DTD/svg11.dtd">
<!-- Created with matplotlib (https://matplotlib.org/) -->
<svg height="345.6pt" version="1.1" viewBox="0 0 460.8 345.6" width="460.8pt" xmlns="http://www.w3.org/2000/svg" xmlns:xlink="http://www.w3.org/1999/xlink">
 <defs>
  <style type="text/css">
*{stroke-linecap:butt;stroke-linejoin:round;}
  </style>
 </defs>
 <g id="figure_1">
  <g id="patch_1">
   <path d="M 0 345.6 
L 460.8 345.6 
L 460.8 0 
L 0 0 
z
" style="fill:#ffffff;"/>
  </g>
  <g id="axes_1">
   <g id="patch_2">
    <path d="M 57.6 307.584 
L 414.72 307.584 
L 414.72 41.472 
L 57.6 41.472 
z
" style="fill:#ffffff;"/>
   </g>
   <g id="patch_3">
    <path clip-path="url(#p96a445ee89)" d="M 84.065111 307.584 
L 87.209335 307.584 
L 87.209335 306.741212 
L 84.065111 306.741212 
z
" style="fill:#1f77b4;"/>
   </g>
   <g id="patch_4">
    <path clip-path="url(#p96a445ee89)" d="M 87.209335 307.584 
L 90.35356 307.584 
L 90.35356 307.373303 
L 87.209335 307.373303 
z
" style="fill:#1f77b4;"/>
   </g>
   <g id="patch_5">
    <path clip-path="url(#p96a445ee89)" d="M 90.353574 307.584 
L 93.497784 307.584 
L 93.497784 307.162604 
L 90.353574 307.162604 
z
" style="fill:#1f77b4;"/>
   </g>
   <g id="patch_6">
    <path clip-path="url(#p96a445ee89)" d="M 93.497769 307.584 
L 96.641994 307.584 
L 96.641994 305.898424 
L 93.497769 305.898424 
z
" style="fill:#1f77b4;"/>
   </g>
   <g id="patch_7">
    <path clip-path="url(#p96a445ee89)" d="M 96.641994 307.584 
L 99.786218 307.584 
L 99.786218 305.055636 
L 96.641994 305.055636 
z
" style="fill:#1f77b4;"/>
   </g>
   <g id="patch_8">
    <path clip-path="url(#p96a445ee89)" d="M 99.786218 307.584 
L 102.930442 307.584 
L 102.930442 305.055636 
L 99.786218 305.055636 
z
" style="fill:#1f77b4;"/>
   </g>
   <g id="patch_9">
    <path clip-path="url(#p96a445ee89)" d="M 102.930442 307.584 
L 106.074659 307.584 
L 106.074659 304.423537 
L 102.930442 304.423537 
z
" style="fill:#1f77b4;"/>
   </g>
   <g id="patch_10">
    <path clip-path="url(#p96a445ee89)" d="M 106.074659 307.584 
L 109.218884 307.584 
L 109.218884 302.737969 
L 106.074659 302.737969 
z
" style="fill:#1f77b4;"/>
   </g>
   <g id="patch_11">
    <path clip-path="url(#p96a445ee89)" d="M 109.218884 307.584 
L 112.363108 307.584 
L 112.363108 302.527272 
L 109.218884 302.527272 
z
" style="fill:#1f77b4;"/>
   </g>
   <g id="patch_12">
    <path clip-path="url(#p96a445ee89)" d="M 112.363101 307.584 
L 115.507318 307.584 
L 115.507318 301.473772 
L 112.363101 301.473772 
z
" style="fill:#1f77b4;"/>
   </g>
   <g id="patch_13">
    <path clip-path="url(#p96a445ee89)" d="M 115.507325 307.584 
L 118.65155 307.584 
L 118.65155 301.26309 
L 115.507325 301.26309 
z
" style="fill:#1f77b4;"/>
   </g>
   <g id="patch_14">
    <path clip-path="url(#p96a445ee89)" d="M 118.65155 307.584 
L 121.795767 307.584 
L 121.795767 301.263075 
L 118.65155 301.263075 
z
" style="fill:#1f77b4;"/>
   </g>
   <g id="patch_15">
    <path clip-path="url(#p96a445ee89)" d="M 121.795767 307.584 
L 124.939991 307.584 
L 124.939991 299.366817 
L 121.795767 299.366817 
z
" style="fill:#1f77b4;"/>
   </g>
   <g id="patch_16">
    <path clip-path="url(#p96a445ee89)" d="M 124.939991 307.584 
L 128.084216 307.584 
L 128.084216 296.838452 
L 124.939991 296.838452 
z
" style="fill:#1f77b4;"/>
   </g>
   <g id="patch_17">
    <path clip-path="url(#p96a445ee89)" d="M 128.084208 307.584 
L 131.228425 307.584 
L 131.228425 299.366797 
L 128.084208 299.366797 
z
" style="fill:#1f77b4;"/>
   </g>
   <g id="patch_18">
    <path clip-path="url(#p96a445ee89)" d="M 131.228433 307.584 
L 134.372657 307.584 
L 134.372657 297.259846 
L 131.228433 297.259846 
z
" style="fill:#1f77b4;"/>
   </g>
   <g id="patch_19">
    <path clip-path="url(#p96a445ee89)" d="M 134.372657 307.584 
L 137.516882 307.584 
L 137.516882 293.045906 
L 134.372657 293.045906 
z
" style="fill:#1f77b4;"/>
   </g>
   <g id="patch_20">
    <path clip-path="url(#p96a445ee89)" d="M 137.516882 307.584 
L 140.661099 307.584 
L 140.661099 294.520754 
L 137.516882 294.520754 
z
" style="fill:#1f77b4;"/>
   </g>
   <g id="patch_21">
    <path clip-path="url(#p96a445ee89)" d="M 140.661099 307.584 
L 143.805323 307.584 
L 143.805323 294.520785 
L 140.661099 294.520785 
z
" style="fill:#1f77b4;"/>
   </g>
   <g id="patch_22">
    <path clip-path="url(#p96a445ee89)" d="M 143.805316 307.584 
L 146.949533 307.584 
L 146.949533 291.570989 
L 143.805316 291.570989 
z
" style="fill:#1f77b4;"/>
   </g>
   <g id="patch_23">
    <path clip-path="url(#p96a445ee89)" d="M 146.94954 307.584 
L 150.093765 307.584 
L 150.093765 285.671511 
L 146.94954 285.671511 
z
" style="fill:#1f77b4;"/>
   </g>
   <g id="patch_24">
    <path clip-path="url(#p96a445ee89)" d="M 150.093765 307.584 
L 153.237989 307.584 
L 153.237989 290.728239 
L 150.093765 290.728239 
z
" style="fill:#1f77b4;"/>
   </g>
   <g id="patch_25">
    <path clip-path="url(#p96a445ee89)" d="M 153.237989 307.584 
L 156.382206 307.584 
L 156.382206 288.199829 
L 153.237989 288.199829 
z
" style="fill:#1f77b4;"/>
   </g>
   <g id="patch_26">
    <path clip-path="url(#p96a445ee89)" d="M 156.382206 307.584 
L 159.52643 307.584 
L 159.52643 289.042663 
L 156.382206 289.042663 
z
" style="fill:#1f77b4;"/>
   </g>
   <g id="patch_27">
    <path clip-path="url(#p96a445ee89)" d="M 159.526423 307.584 
L 162.67064 307.584 
L 162.67064 287.357039 
L 159.526423 287.357039 
z
" style="fill:#1f77b4;"/>
   </g>
   <g id="patch_28">
    <path clip-path="url(#p96a445ee89)" d="M 162.670647 307.584 
L 165.814872 307.584 
L 165.814872 281.668268 
L 162.670647 281.668268 
z
" style="fill:#1f77b4;"/>
   </g>
   <g id="patch_29">
    <path clip-path="url(#p96a445ee89)" d="M 165.814872 307.584 
L 168.959093 307.584 
L 168.959093 275.558016 
L 165.814872 275.558016 
z
" style="fill:#1f77b4;"/>
   </g>
   <g id="patch_30">
    <path clip-path="url(#p96a445ee89)" d="M 168.959093 307.584 
L 172.103317 307.584 
L 172.103317 277.665024 
L 168.959093 277.665024 
z
" style="fill:#1f77b4;"/>
   </g>
   <g id="patch_31">
    <path clip-path="url(#p96a445ee89)" d="M 172.103313 307.584 
L 175.247534 307.584 
L 175.247534 273.451044 
L 172.103313 273.451044 
z
" style="fill:#1f77b4;"/>
   </g>
   <g id="patch_32">
    <path clip-path="url(#p96a445ee89)" d="M 175.247538 307.584 
L 178.391759 307.584 
L 178.391759 274.293833 
L 175.247538 274.293833 
z
" style="fill:#1f77b4;"/>
   </g>
   <g id="patch_33">
    <path clip-path="url(#p96a445ee89)" d="M 178.391755 307.584 
L 181.535976 307.584 
L 181.535976 276.8222 
L 178.391755 276.8222 
z
" style="fill:#1f77b4;"/>
   </g>
   <g id="patch_34">
    <path clip-path="url(#p96a445ee89)" d="M 181.535979 307.584 
L 184.680204 307.584 
L 184.680204 267.972962 
L 181.535979 267.972962 
z
" style="fill:#1f77b4;"/>
   </g>
   <g id="patch_35">
    <path clip-path="url(#p96a445ee89)" d="M 184.680204 307.584 
L 187.824424 307.584 
L 187.824424 262.705483 
L 184.680204 262.705483 
z
" style="fill:#1f77b4;"/>
   </g>
   <g id="patch_36">
    <path clip-path="url(#p96a445ee89)" d="M 187.824421 307.584 
L 190.968641 307.584 
L 190.968641 265.233851 
L 187.824421 265.233851 
z
" style="fill:#1f77b4;"/>
   </g>
   <g id="patch_37">
    <path clip-path="url(#p96a445ee89)" d="M 190.968645 307.584 
L 194.112866 307.584 
L 194.112866 259.12363 
L 190.968645 259.12363 
z
" style="fill:#1f77b4;"/>
   </g>
   <g id="patch_38">
    <path clip-path="url(#p96a445ee89)" d="M 194.112866 307.584 
L 197.25709 307.584 
L 197.25709 252.802777 
L 194.112866 252.802777 
z
" style="fill:#1f77b4;"/>
   </g>
   <g id="patch_39">
    <path clip-path="url(#p96a445ee89)" d="M 197.25709 307.584 
L 200.401311 307.584 
L 200.401311 238.685996 
L 197.25709 238.685996 
z
" style="fill:#1f77b4;"/>
   </g>
   <g id="patch_40">
    <path clip-path="url(#p96a445ee89)" d="M 200.401311 307.584 
L 203.545532 307.584 
L 203.545532 248.588767 
L 200.401311 248.588767 
z
" style="fill:#1f77b4;"/>
   </g>
   <g id="patch_41">
    <path clip-path="url(#p96a445ee89)" d="M 203.545532 307.584 
L 206.689754 307.584 
L 206.689754 241.214402 
L 203.545532 241.214402 
z
" style="fill:#1f77b4;"/>
   </g>
   <g id="patch_42">
    <path clip-path="url(#p96a445ee89)" d="M 206.689754 307.584 
L 209.833975 307.584 
L 209.833975 232.154381 
L 206.689754 232.154381 
z
" style="fill:#1f77b4;"/>
   </g>
   <g id="patch_43">
    <path clip-path="url(#p96a445ee89)" d="M 209.833973 307.584 
L 212.978196 307.584 
L 212.978196 224.780025 
L 209.833973 224.780025 
z
" style="fill:#1f77b4;"/>
   </g>
   <g id="patch_44">
    <path clip-path="url(#p96a445ee89)" d="M 212.978198 307.584 
L 216.122418 307.584 
L 216.122418 219.301848 
L 212.978198 219.301848 
z
" style="fill:#1f77b4;"/>
   </g>
   <g id="patch_45">
    <path clip-path="url(#p96a445ee89)" d="M 216.122418 307.584 
L 219.26664 307.584 
L 219.26664 211.084683 
L 216.122418 211.084683 
z
" style="fill:#1f77b4;"/>
   </g>
   <g id="patch_46">
    <path clip-path="url(#p96a445ee89)" d="M 219.266641 307.584 
L 222.410863 307.584 
L 222.410863 208.556317 
L 219.266641 208.556317 
z
" style="fill:#1f77b4;"/>
   </g>
   <g id="patch_47">
    <path clip-path="url(#p96a445ee89)" d="M 222.410862 307.584 
L 225.555083 307.584 
L 225.555083 205.185161 
L 222.410862 205.185161 
z
" style="fill:#1f77b4;"/>
   </g>
   <g id="patch_48">
    <path clip-path="url(#p96a445ee89)" d="M 225.555083 307.584 
L 228.699305 307.584 
L 228.699305 195.282401 
L 225.555083 195.282401 
z
" style="fill:#1f77b4;"/>
   </g>
   <g id="patch_49">
    <path clip-path="url(#p96a445ee89)" d="M 228.699305 307.584 
L 231.843527 307.584 
L 231.843527 128.491368 
L 228.699305 128.491368 
z
" style="fill:#1f77b4;"/>
   </g>
   <g id="patch_50">
    <path clip-path="url(#p96a445ee89)" d="M 231.843527 307.584 
L 234.987748 307.584 
L 234.987748 171.895004 
L 231.843527 171.895004 
z
" style="fill:#1f77b4;"/>
   </g>
   <g id="patch_51">
    <path clip-path="url(#p96a445ee89)" d="M 234.987748 307.584 
L 238.13197 307.584 
L 238.13197 197.389365 
L 234.987748 197.389365 
z
" style="fill:#1f77b4;"/>
   </g>
   <g id="patch_52">
    <path clip-path="url(#p96a445ee89)" d="M 238.131971 307.584 
L 241.276193 307.584 
L 241.276193 202.446098 
L 238.131971 202.446098 
z
" style="fill:#1f77b4;"/>
   </g>
   <g id="patch_53">
    <path clip-path="url(#p96a445ee89)" d="M 241.276192 307.584 
L 244.420413 307.584 
L 244.420413 198.864246 
L 241.276192 198.864246 
z
" style="fill:#1f77b4;"/>
   </g>
   <g id="patch_54">
    <path clip-path="url(#p96a445ee89)" d="M 244.420414 307.584 
L 247.564637 307.584 
L 247.564637 204.342373 
L 244.420414 204.342373 
z
" style="fill:#1f77b4;"/>
   </g>
   <g id="patch_55">
    <path clip-path="url(#p96a445ee89)" d="M 247.564635 307.584 
L 250.708856 307.584 
L 250.708856 213.402324 
L 247.564635 213.402324 
z
" style="fill:#1f77b4;"/>
   </g>
   <g id="patch_56">
    <path clip-path="url(#p96a445ee89)" d="M 250.708854 307.584 
L 253.853076 307.584 
L 253.853076 211.9275 
L 250.708854 211.9275 
z
" style="fill:#1f77b4;"/>
   </g>
   <g id="patch_57">
    <path clip-path="url(#p96a445ee89)" d="M 253.853078 307.584 
L 256.997299 307.584 
L 256.997299 224.569279 
L 253.853078 224.569279 
z
" style="fill:#1f77b4;"/>
   </g>
   <g id="patch_58">
    <path clip-path="url(#p96a445ee89)" d="M 256.997299 307.584 
L 260.141522 307.584 
L 260.141522 227.308391 
L 256.997299 227.308391 
z
" style="fill:#1f77b4;"/>
   </g>
   <g id="patch_59">
    <path clip-path="url(#p96a445ee89)" d="M 260.14152 307.584 
L 263.285741 307.584 
L 263.285741 225.412117 
L 260.14152 225.412117 
z
" style="fill:#1f77b4;"/>
   </g>
   <g id="patch_60">
    <path clip-path="url(#p96a445ee89)" d="M 263.285741 307.584 
L 266.429961 307.584 
L 266.429961 228.36183 
L 263.285741 228.36183 
z
" style="fill:#1f77b4;"/>
   </g>
   <g id="patch_61">
    <path clip-path="url(#p96a445ee89)" d="M 266.429965 307.584 
L 269.574186 307.584 
L 269.574186 236.368326 
L 266.429965 236.368326 
z
" style="fill:#1f77b4;"/>
   </g>
   <g id="patch_62">
    <path clip-path="url(#p96a445ee89)" d="M 269.574182 307.584 
L 272.718403 307.584 
L 272.718403 239.950179 
L 269.574182 239.950179 
z
" style="fill:#1f77b4;"/>
   </g>
   <g id="patch_63">
    <path clip-path="url(#p96a445ee89)" d="M 272.718406 307.584 
L 275.862631 307.584 
L 275.862631 238.686077 
L 272.718406 238.686077 
z
" style="fill:#1f77b4;"/>
   </g>
   <g id="patch_64">
    <path clip-path="url(#p96a445ee89)" d="M 275.862631 307.584 
L 279.006852 307.584 
L 279.006852 246.903189 
L 275.862631 246.903189 
z
" style="fill:#1f77b4;"/>
   </g>
   <g id="patch_65">
    <path clip-path="url(#p96a445ee89)" d="M 279.006848 307.584 
L 282.151069 307.584 
L 282.151069 254.909685 
L 279.006848 254.909685 
z
" style="fill:#1f77b4;"/>
   </g>
   <g id="patch_66">
    <path clip-path="url(#p96a445ee89)" d="M 282.151072 307.584 
L 285.295293 307.584 
L 285.295293 260.177116 
L 282.151072 260.177116 
z
" style="fill:#1f77b4;"/>
   </g>
   <g id="patch_67">
    <path clip-path="url(#p96a445ee89)" d="M 285.295293 307.584 
L 288.439517 307.584 
L 288.439517 260.809263 
L 285.295293 260.809263 
z
" style="fill:#1f77b4;"/>
   </g>
   <g id="patch_68">
    <path clip-path="url(#p96a445ee89)" d="M 288.439514 307.584 
L 291.583735 307.584 
L 291.583735 258.912933 
L 288.439514 258.912933 
z
" style="fill:#1f77b4;"/>
   </g>
   <g id="patch_69">
    <path clip-path="url(#p96a445ee89)" d="M 291.583738 307.584 
L 294.727963 307.584 
L 294.727963 263.337627 
L 291.583738 263.337627 
z
" style="fill:#1f77b4;"/>
   </g>
   <g id="patch_70">
    <path clip-path="url(#p96a445ee89)" d="M 294.727955 307.584 
L 297.872172 307.584 
L 297.872172 272.397516 
L 294.727955 272.397516 
z
" style="fill:#1f77b4;"/>
   </g>
   <g id="patch_71">
    <path clip-path="url(#p96a445ee89)" d="M 297.87218 307.584 
L 301.016404 307.584 
L 301.016404 276.400842 
L 297.87218 276.400842 
z
" style="fill:#1f77b4;"/>
   </g>
   <g id="patch_72">
    <path clip-path="url(#p96a445ee89)" d="M 301.016404 307.584 
L 304.160621 307.584 
L 304.160621 276.400769 
L 301.016404 276.400769 
z
" style="fill:#1f77b4;"/>
   </g>
   <g id="patch_73">
    <path clip-path="url(#p96a445ee89)" d="M 304.160621 307.584 
L 307.304846 307.584 
L 307.304846 282.721753 
L 304.160621 282.721753 
z
" style="fill:#1f77b4;"/>
   </g>
   <g id="patch_74">
    <path clip-path="url(#p96a445ee89)" d="M 307.304846 307.584 
L 310.44907 307.584 
L 310.44907 282.300359 
L 307.304846 282.300359 
z
" style="fill:#1f77b4;"/>
   </g>
   <g id="patch_75">
    <path clip-path="url(#p96a445ee89)" d="M 310.449063 307.584 
L 313.59328 307.584 
L 313.59328 285.882157 
L 310.449063 285.882157 
z
" style="fill:#1f77b4;"/>
   </g>
   <g id="patch_76">
    <path clip-path="url(#p96a445ee89)" d="M 313.593287 307.584 
L 316.737511 307.584 
L 316.737511 278.507812 
L 313.593287 278.507812 
z
" style="fill:#1f77b4;"/>
   </g>
   <g id="patch_77">
    <path clip-path="url(#p96a445ee89)" d="M 316.737511 307.584 
L 319.881736 307.584 
L 319.881736 282.511056 
L 316.737511 282.511056 
z
" style="fill:#1f77b4;"/>
   </g>
   <g id="patch_78">
    <path clip-path="url(#p96a445ee89)" d="M 319.881736 307.584 
L 323.025953 307.584 
L 323.025953 282.300299 
L 319.881736 282.300299 
z
" style="fill:#1f77b4;"/>
   </g>
   <g id="patch_79">
    <path clip-path="url(#p96a445ee89)" d="M 323.025953 307.584 
L 326.170177 307.584 
L 326.170177 286.092905 
L 323.025953 286.092905 
z
" style="fill:#1f77b4;"/>
   </g>
   <g id="patch_80">
    <path clip-path="url(#p96a445ee89)" d="M 326.17017 307.584 
L 329.314387 307.584 
L 329.314387 289.464014 
L 326.17017 289.464014 
z
" style="fill:#1f77b4;"/>
   </g>
   <g id="patch_81">
    <path clip-path="url(#p96a445ee89)" d="M 329.314394 307.584 
L 332.458619 307.584 
L 332.458619 289.674754 
L 329.314394 289.674754 
z
" style="fill:#1f77b4;"/>
   </g>
   <g id="patch_82">
    <path clip-path="url(#p96a445ee89)" d="M 332.458619 307.584 
L 335.602843 307.584 
L 335.602843 291.571027 
L 332.458619 291.571027 
z
" style="fill:#1f77b4;"/>
   </g>
   <g id="patch_83">
    <path clip-path="url(#p96a445ee89)" d="M 335.602843 307.584 
L 338.74706 307.584 
L 338.74706 293.677964 
L 335.602843 293.677964 
z
" style="fill:#1f77b4;"/>
   </g>
   <g id="patch_84">
    <path clip-path="url(#p96a445ee89)" d="M 338.74706 307.584 
L 341.891285 307.584 
L 341.891285 295.784967 
L 338.74706 295.784967 
z
" style="fill:#1f77b4;"/>
   </g>
   <g id="patch_85">
    <path clip-path="url(#p96a445ee89)" d="M 341.891277 307.584 
L 345.035494 307.584 
L 345.035494 293.256569 
L 341.891277 293.256569 
z
" style="fill:#1f77b4;"/>
   </g>
   <g id="patch_86">
    <path clip-path="url(#p96a445ee89)" d="M 345.035502 307.584 
L 348.179726 307.584 
L 348.179726 297.049149 
L 345.035502 297.049149 
z
" style="fill:#1f77b4;"/>
   </g>
   <g id="patch_87">
    <path clip-path="url(#p96a445ee89)" d="M 348.179726 307.584 
L 351.323951 307.584 
L 351.323951 297.259846 
L 348.179726 297.259846 
z
" style="fill:#1f77b4;"/>
   </g>
   <g id="patch_88">
    <path clip-path="url(#p96a445ee89)" d="M 351.323951 307.584 
L 354.468175 307.584 
L 354.468175 299.788211 
L 351.323951 299.788211 
z
" style="fill:#1f77b4;"/>
   </g>
   <g id="patch_89">
    <path clip-path="url(#p96a445ee89)" d="M 354.46819 307.584 
L 357.6124 307.584 
L 357.6124 302.527248 
L 354.46819 302.527248 
z
" style="fill:#1f77b4;"/>
   </g>
   <g id="patch_90">
    <path clip-path="url(#p96a445ee89)" d="M 357.612385 307.584 
L 360.756609 307.584 
L 360.756609 302.105878 
L 357.612385 302.105878 
z
" style="fill:#1f77b4;"/>
   </g>
   <g id="patch_91">
    <path clip-path="url(#p96a445ee89)" d="M 360.756609 307.584 
L 363.900834 307.584 
L 363.900834 302.527272 
L 360.756609 302.527272 
z
" style="fill:#1f77b4;"/>
   </g>
   <g id="patch_92">
    <path clip-path="url(#p96a445ee89)" d="M 363.900834 307.584 
L 367.045058 307.584 
L 367.045058 304.423545 
L 363.900834 304.423545 
z
" style="fill:#1f77b4;"/>
   </g>
   <g id="patch_93">
    <path clip-path="url(#p96a445ee89)" d="M 367.045058 307.584 
L 370.189282 307.584 
L 370.189282 304.212848 
L 367.045058 304.212848 
z
" style="fill:#1f77b4;"/>
   </g>
   <g id="patch_94">
    <path clip-path="url(#p96a445ee89)" d="M 370.189282 307.584 
L 373.333507 307.584 
L 373.333507 305.687727 
L 370.189282 305.687727 
z
" style="fill:#1f77b4;"/>
   </g>
   <g id="patch_95">
    <path clip-path="url(#p96a445ee89)" d="M 373.333507 307.584 
L 376.477716 307.584 
L 376.477716 306.319812 
L 373.333507 306.319812 
z
" style="fill:#1f77b4;"/>
   </g>
   <g id="patch_96">
    <path clip-path="url(#p96a445ee89)" d="M 376.477716 307.584 
L 379.621941 307.584 
L 379.621941 306.951909 
L 376.477716 306.951909 
z
" style="fill:#1f77b4;"/>
   </g>
   <g id="patch_97">
    <path clip-path="url(#p96a445ee89)" d="M 379.621941 307.584 
L 382.766165 307.584 
L 382.766165 306.319818 
L 379.621941 306.319818 
z
" style="fill:#1f77b4;"/>
   </g>
   <g id="patch_98">
    <path clip-path="url(#p96a445ee89)" d="M 382.766165 307.584 
L 385.91039 307.584 
L 385.91039 306.530515 
L 382.766165 306.530515 
z
" style="fill:#1f77b4;"/>
   </g>
   <g id="patch_99">
    <path clip-path="url(#p96a445ee89)" d="M 385.91039 307.584 
L 389.054614 307.584 
L 389.054614 306.530515 
L 385.91039 306.530515 
z
" style="fill:#1f77b4;"/>
   </g>
   <g id="patch_100">
    <path clip-path="url(#p96a445ee89)" d="M 389.054629 307.584 
L 392.198839 307.584 
L 392.198839 306.319812 
L 389.054629 306.319812 
z
" style="fill:#1f77b4;"/>
   </g>
   <g id="patch_101">
    <path clip-path="url(#p96a445ee89)" d="M 392.198824 307.584 
L 395.343048 307.584 
L 395.343048 305.687727 
L 392.198824 305.687727 
z
" style="fill:#1f77b4;"/>
   </g>
   <g id="patch_102">
    <path clip-path="url(#p96a445ee89)" d="M 395.343048 307.584 
L 398.487273 307.584 
L 398.487273 306.951909 
L 395.343048 306.951909 
z
" style="fill:#1f77b4;"/>
   </g>
   <g id="matplotlib.axis_1">
    <g id="xtick_1">
     <g id="line2d_1">
      <defs>
       <path d="M 0 0 
L 0 3.5 
" id="m68f22c90f8" style="stroke:#000000;stroke-width:0.8;"/>
      </defs>
      <g>
       <use style="stroke:#000000;stroke-width:0.8;" x="104.974006" xlink:href="#m68f22c90f8" y="307.584"/>
      </g>
     </g>
     <g id="text_1">
      <!-- −2 -->
      <defs>
       <path d="M 10.59375 35.5 
L 73.1875 35.5 
L 73.1875 27.203125 
L 10.59375 27.203125 
z
" id="DejaVuSans-8722"/>
       <path d="M 19.1875 8.296875 
L 53.609375 8.296875 
L 53.609375 0 
L 7.328125 0 
L 7.328125 8.296875 
Q 12.9375 14.109375 22.625 23.890625 
Q 32.328125 33.6875 34.8125 36.53125 
Q 39.546875 41.84375 41.421875 45.53125 
Q 43.3125 49.21875 43.3125 52.78125 
Q 43.3125 58.59375 39.234375 62.25 
Q 35.15625 65.921875 28.609375 65.921875 
Q 23.96875 65.921875 18.8125 64.3125 
Q 13.671875 62.703125 7.8125 59.421875 
L 7.8125 69.390625 
Q 13.765625 71.78125 18.9375 73 
Q 24.125 74.21875 28.421875 74.21875 
Q 39.75 74.21875 46.484375 68.546875 
Q 53.21875 62.890625 53.21875 53.421875 
Q 53.21875 48.921875 51.53125 44.890625 
Q 49.859375 40.875 45.40625 35.40625 
Q 44.1875 33.984375 37.640625 27.21875 
Q 31.109375 20.453125 19.1875 8.296875 
z
" id="DejaVuSans-50"/>
      </defs>
      <g transform="translate(92.443146 327.501344)scale(0.17 -0.17)">
       <use xlink:href="#DejaVuSans-8722"/>
       <use x="83.789062" xlink:href="#DejaVuSans-50"/>
      </g>
     </g>
    </g>
    <g id="xtick_2">
     <g id="line2d_2">
      <g>
       <use style="stroke:#000000;stroke-width:0.8;" x="167.256563" xlink:href="#m68f22c90f8" y="307.584"/>
      </g>
     </g>
     <g id="text_2">
      <!-- −1 -->
      <defs>
       <path d="M 12.40625 8.296875 
L 28.515625 8.296875 
L 28.515625 63.921875 
L 10.984375 60.40625 
L 10.984375 69.390625 
L 28.421875 72.90625 
L 38.28125 72.90625 
L 38.28125 8.296875 
L 54.390625 8.296875 
L 54.390625 0 
L 12.40625 0 
z
" id="DejaVuSans-49"/>
      </defs>
      <g transform="translate(154.725703 327.501344)scale(0.17 -0.17)">
       <use xlink:href="#DejaVuSans-8722"/>
       <use x="83.789062" xlink:href="#DejaVuSans-49"/>
      </g>
     </g>
    </g>
    <g id="xtick_3">
     <g id="line2d_3">
      <g>
       <use style="stroke:#000000;stroke-width:0.8;" x="229.539119" xlink:href="#m68f22c90f8" y="307.584"/>
      </g>
     </g>
     <g id="text_3">
      <!-- 0 -->
      <defs>
       <path d="M 31.78125 66.40625 
Q 24.171875 66.40625 20.328125 58.90625 
Q 16.5 51.421875 16.5 36.375 
Q 16.5 21.390625 20.328125 13.890625 
Q 24.171875 6.390625 31.78125 6.390625 
Q 39.453125 6.390625 43.28125 13.890625 
Q 47.125 21.390625 47.125 36.375 
Q 47.125 51.421875 43.28125 58.90625 
Q 39.453125 66.40625 31.78125 66.40625 
z
M 31.78125 74.21875 
Q 44.046875 74.21875 50.515625 64.515625 
Q 56.984375 54.828125 56.984375 36.375 
Q 56.984375 17.96875 50.515625 8.265625 
Q 44.046875 -1.421875 31.78125 -1.421875 
Q 19.53125 -1.421875 13.0625 8.265625 
Q 6.59375 17.96875 6.59375 36.375 
Q 6.59375 54.828125 13.0625 64.515625 
Q 19.53125 74.21875 31.78125 74.21875 
z
" id="DejaVuSans-48"/>
      </defs>
      <g transform="translate(224.130994 327.501344)scale(0.17 -0.17)">
       <use xlink:href="#DejaVuSans-48"/>
      </g>
     </g>
    </g>
    <g id="xtick_4">
     <g id="line2d_4">
      <g>
       <use style="stroke:#000000;stroke-width:0.8;" x="291.821676" xlink:href="#m68f22c90f8" y="307.584"/>
      </g>
     </g>
     <g id="text_4">
      <!-- 1 -->
      <g transform="translate(286.413551 327.501344)scale(0.17 -0.17)">
       <use xlink:href="#DejaVuSans-49"/>
      </g>
     </g>
    </g>
    <g id="xtick_5">
     <g id="line2d_5">
      <g>
       <use style="stroke:#000000;stroke-width:0.8;" x="354.104233" xlink:href="#m68f22c90f8" y="307.584"/>
      </g>
     </g>
     <g id="text_5">
      <!-- 2 -->
      <g transform="translate(348.696108 327.501344)scale(0.17 -0.17)">
       <use xlink:href="#DejaVuSans-50"/>
      </g>
     </g>
    </g>
    <g id="text_6">
     <!-- Position in Radian -->
     <defs>
      <path d="M 19.671875 64.796875 
L 19.671875 37.40625 
L 32.078125 37.40625 
Q 38.96875 37.40625 42.71875 40.96875 
Q 46.484375 44.53125 46.484375 51.125 
Q 46.484375 57.671875 42.71875 61.234375 
Q 38.96875 64.796875 32.078125 64.796875 
z
M 9.8125 72.90625 
L 32.078125 72.90625 
Q 44.34375 72.90625 50.609375 67.359375 
Q 56.890625 61.8125 56.890625 51.125 
Q 56.890625 40.328125 50.609375 34.8125 
Q 44.34375 29.296875 32.078125 29.296875 
L 19.671875 29.296875 
L 19.671875 0 
L 9.8125 0 
z
" id="DejaVuSans-80"/>
      <path d="M 30.609375 48.390625 
Q 23.390625 48.390625 19.1875 42.75 
Q 14.984375 37.109375 14.984375 27.296875 
Q 14.984375 17.484375 19.15625 11.84375 
Q 23.34375 6.203125 30.609375 6.203125 
Q 37.796875 6.203125 41.984375 11.859375 
Q 46.1875 17.53125 46.1875 27.296875 
Q 46.1875 37.015625 41.984375 42.703125 
Q 37.796875 48.390625 30.609375 48.390625 
z
M 30.609375 56 
Q 42.328125 56 49.015625 48.375 
Q 55.71875 40.765625 55.71875 27.296875 
Q 55.71875 13.875 49.015625 6.21875 
Q 42.328125 -1.421875 30.609375 -1.421875 
Q 18.84375 -1.421875 12.171875 6.21875 
Q 5.515625 13.875 5.515625 27.296875 
Q 5.515625 40.765625 12.171875 48.375 
Q 18.84375 56 30.609375 56 
z
" id="DejaVuSans-111"/>
      <path d="M 44.28125 53.078125 
L 44.28125 44.578125 
Q 40.484375 46.53125 36.375 47.5 
Q 32.28125 48.484375 27.875 48.484375 
Q 21.1875 48.484375 17.84375 46.4375 
Q 14.5 44.390625 14.5 40.28125 
Q 14.5 37.15625 16.890625 35.375 
Q 19.28125 33.59375 26.515625 31.984375 
L 29.59375 31.296875 
Q 39.15625 29.25 43.1875 25.515625 
Q 47.21875 21.78125 47.21875 15.09375 
Q 47.21875 7.46875 41.1875 3.015625 
Q 35.15625 -1.421875 24.609375 -1.421875 
Q 20.21875 -1.421875 15.453125 -0.5625 
Q 10.6875 0.296875 5.421875 2 
L 5.421875 11.28125 
Q 10.40625 8.6875 15.234375 7.390625 
Q 20.0625 6.109375 24.8125 6.109375 
Q 31.15625 6.109375 34.5625 8.28125 
Q 37.984375 10.453125 37.984375 14.40625 
Q 37.984375 18.0625 35.515625 20.015625 
Q 33.0625 21.96875 24.703125 23.78125 
L 21.578125 24.515625 
Q 13.234375 26.265625 9.515625 29.90625 
Q 5.8125 33.546875 5.8125 39.890625 
Q 5.8125 47.609375 11.28125 51.796875 
Q 16.75 56 26.8125 56 
Q 31.78125 56 36.171875 55.265625 
Q 40.578125 54.546875 44.28125 53.078125 
z
" id="DejaVuSans-115"/>
      <path d="M 9.421875 54.6875 
L 18.40625 54.6875 
L 18.40625 0 
L 9.421875 0 
z
M 9.421875 75.984375 
L 18.40625 75.984375 
L 18.40625 64.59375 
L 9.421875 64.59375 
z
" id="DejaVuSans-105"/>
      <path d="M 18.3125 70.21875 
L 18.3125 54.6875 
L 36.8125 54.6875 
L 36.8125 47.703125 
L 18.3125 47.703125 
L 18.3125 18.015625 
Q 18.3125 11.328125 20.140625 9.421875 
Q 21.96875 7.515625 27.59375 7.515625 
L 36.8125 7.515625 
L 36.8125 0 
L 27.59375 0 
Q 17.1875 0 13.234375 3.875 
Q 9.28125 7.765625 9.28125 18.015625 
L 9.28125 47.703125 
L 2.6875 47.703125 
L 2.6875 54.6875 
L 9.28125 54.6875 
L 9.28125 70.21875 
z
" id="DejaVuSans-116"/>
      <path d="M 54.890625 33.015625 
L 54.890625 0 
L 45.90625 0 
L 45.90625 32.71875 
Q 45.90625 40.484375 42.875 44.328125 
Q 39.84375 48.1875 33.796875 48.1875 
Q 26.515625 48.1875 22.3125 43.546875 
Q 18.109375 38.921875 18.109375 30.90625 
L 18.109375 0 
L 9.078125 0 
L 9.078125 54.6875 
L 18.109375 54.6875 
L 18.109375 46.1875 
Q 21.34375 51.125 25.703125 53.5625 
Q 30.078125 56 35.796875 56 
Q 45.21875 56 50.046875 50.171875 
Q 54.890625 44.34375 54.890625 33.015625 
z
" id="DejaVuSans-110"/>
      <path id="DejaVuSans-32"/>
      <path d="M 44.390625 34.1875 
Q 47.5625 33.109375 50.5625 29.59375 
Q 53.5625 26.078125 56.59375 19.921875 
L 66.609375 0 
L 56 0 
L 46.6875 18.703125 
Q 43.0625 26.03125 39.671875 28.421875 
Q 36.28125 30.8125 30.421875 30.8125 
L 19.671875 30.8125 
L 19.671875 0 
L 9.8125 0 
L 9.8125 72.90625 
L 32.078125 72.90625 
Q 44.578125 72.90625 50.734375 67.671875 
Q 56.890625 62.453125 56.890625 51.90625 
Q 56.890625 45.015625 53.6875 40.46875 
Q 50.484375 35.9375 44.390625 34.1875 
z
M 19.671875 64.796875 
L 19.671875 38.921875 
L 32.078125 38.921875 
Q 39.203125 38.921875 42.84375 42.21875 
Q 46.484375 45.515625 46.484375 51.90625 
Q 46.484375 58.296875 42.84375 61.546875 
Q 39.203125 64.796875 32.078125 64.796875 
z
" id="DejaVuSans-82"/>
      <path d="M 34.28125 27.484375 
Q 23.390625 27.484375 19.1875 25 
Q 14.984375 22.515625 14.984375 16.5 
Q 14.984375 11.71875 18.140625 8.90625 
Q 21.296875 6.109375 26.703125 6.109375 
Q 34.1875 6.109375 38.703125 11.40625 
Q 43.21875 16.703125 43.21875 25.484375 
L 43.21875 27.484375 
z
M 52.203125 31.203125 
L 52.203125 0 
L 43.21875 0 
L 43.21875 8.296875 
Q 40.140625 3.328125 35.546875 0.953125 
Q 30.953125 -1.421875 24.3125 -1.421875 
Q 15.921875 -1.421875 10.953125 3.296875 
Q 6 8.015625 6 15.921875 
Q 6 25.140625 12.171875 29.828125 
Q 18.359375 34.515625 30.609375 34.515625 
L 43.21875 34.515625 
L 43.21875 35.40625 
Q 43.21875 41.609375 39.140625 45 
Q 35.0625 48.390625 27.6875 48.390625 
Q 23 48.390625 18.546875 47.265625 
Q 14.109375 46.140625 10.015625 43.890625 
L 10.015625 52.203125 
Q 14.9375 54.109375 19.578125 55.046875 
Q 24.21875 56 28.609375 56 
Q 40.484375 56 46.34375 49.84375 
Q 52.203125 43.703125 52.203125 31.203125 
z
" id="DejaVuSans-97"/>
      <path d="M 45.40625 46.390625 
L 45.40625 75.984375 
L 54.390625 75.984375 
L 54.390625 0 
L 45.40625 0 
L 45.40625 8.203125 
Q 42.578125 3.328125 38.25 0.953125 
Q 33.9375 -1.421875 27.875 -1.421875 
Q 17.96875 -1.421875 11.734375 6.484375 
Q 5.515625 14.40625 5.515625 27.296875 
Q 5.515625 40.1875 11.734375 48.09375 
Q 17.96875 56 27.875 56 
Q 33.9375 56 38.25 53.625 
Q 42.578125 51.265625 45.40625 46.390625 
z
M 14.796875 27.296875 
Q 14.796875 17.390625 18.875 11.75 
Q 22.953125 6.109375 30.078125 6.109375 
Q 37.203125 6.109375 41.296875 11.75 
Q 45.40625 17.390625 45.40625 27.296875 
Q 45.40625 37.203125 41.296875 42.84375 
Q 37.203125 48.484375 30.078125 48.484375 
Q 22.953125 48.484375 18.875 42.84375 
Q 14.796875 37.203125 14.796875 27.296875 
z
" id="DejaVuSans-100"/>
     </defs>
     <g transform="translate(102.024844 357.832125)scale(0.3 -0.3)">
      <use xlink:href="#DejaVuSans-80"/>
      <use x="60.255859" xlink:href="#DejaVuSans-111"/>
      <use x="121.4375" xlink:href="#DejaVuSans-115"/>
      <use x="173.537109" xlink:href="#DejaVuSans-105"/>
      <use x="201.320312" xlink:href="#DejaVuSans-116"/>
      <use x="240.529297" xlink:href="#DejaVuSans-105"/>
      <use x="268.3125" xlink:href="#DejaVuSans-111"/>
      <use x="329.494141" xlink:href="#DejaVuSans-110"/>
      <use x="392.873047" xlink:href="#DejaVuSans-32"/>
      <use x="424.660156" xlink:href="#DejaVuSans-105"/>
      <use x="452.443359" xlink:href="#DejaVuSans-110"/>
      <use x="515.822266" xlink:href="#DejaVuSans-32"/>
      <use x="547.609375" xlink:href="#DejaVuSans-82"/>
      <use x="617.060547" xlink:href="#DejaVuSans-97"/>
      <use x="678.339844" xlink:href="#DejaVuSans-100"/>
      <use x="741.816406" xlink:href="#DejaVuSans-105"/>
      <use x="769.599609" xlink:href="#DejaVuSans-97"/>
      <use x="830.878906" xlink:href="#DejaVuSans-110"/>
     </g>
    </g>
   </g>
   <g id="matplotlib.axis_2">
    <g id="ytick_1">
     <g id="line2d_6">
      <defs>
       <path d="M 0 0 
L -3.5 0 
" id="maef49f0d96" style="stroke:#000000;stroke-width:0.8;"/>
      </defs>
      <g>
       <use style="stroke:#000000;stroke-width:0.8;" x="57.6" xlink:href="#maef49f0d96" y="307.584"/>
      </g>
     </g>
     <g id="text_7">
      <!-- 0.00 -->
      <defs>
       <path d="M 10.6875 12.40625 
L 21 12.40625 
L 21 0 
L 10.6875 0 
z
" id="DejaVuSans-46"/>
      </defs>
      <g transform="translate(12.748438 314.042672)scale(0.17 -0.17)">
       <use xlink:href="#DejaVuSans-48"/>
       <use x="63.623047" xlink:href="#DejaVuSans-46"/>
       <use x="95.410156" xlink:href="#DejaVuSans-48"/>
       <use x="159.033203" xlink:href="#DejaVuSans-48"/>
      </g>
     </g>
    </g>
    <g id="ytick_2">
     <g id="line2d_7">
      <g>
       <use style="stroke:#000000;stroke-width:0.8;" x="57.6" xlink:href="#maef49f0d96" y="261.04859"/>
      </g>
     </g>
     <g id="text_8">
      <!-- 0.25 -->
      <defs>
       <path d="M 10.796875 72.90625 
L 49.515625 72.90625 
L 49.515625 64.59375 
L 19.828125 64.59375 
L 19.828125 46.734375 
Q 21.96875 47.46875 24.109375 47.828125 
Q 26.265625 48.1875 28.421875 48.1875 
Q 40.625 48.1875 47.75 41.5 
Q 54.890625 34.8125 54.890625 23.390625 
Q 54.890625 11.625 47.5625 5.09375 
Q 40.234375 -1.421875 26.90625 -1.421875 
Q 22.3125 -1.421875 17.546875 -0.640625 
Q 12.796875 0.140625 7.71875 1.703125 
L 7.71875 11.625 
Q 12.109375 9.234375 16.796875 8.0625 
Q 21.484375 6.890625 26.703125 6.890625 
Q 35.15625 6.890625 40.078125 11.328125 
Q 45.015625 15.765625 45.015625 23.390625 
Q 45.015625 31 40.078125 35.4375 
Q 35.15625 39.890625 26.703125 39.890625 
Q 22.75 39.890625 18.8125 39.015625 
Q 14.890625 38.140625 10.796875 36.28125 
z
" id="DejaVuSans-53"/>
      </defs>
      <g transform="translate(12.748438 267.507262)scale(0.17 -0.17)">
       <use xlink:href="#DejaVuSans-48"/>
       <use x="63.623047" xlink:href="#DejaVuSans-46"/>
       <use x="95.410156" xlink:href="#DejaVuSans-50"/>
       <use x="159.033203" xlink:href="#DejaVuSans-53"/>
      </g>
     </g>
    </g>
    <g id="ytick_3">
     <g id="line2d_8">
      <g>
       <use style="stroke:#000000;stroke-width:0.8;" x="57.6" xlink:href="#maef49f0d96" y="214.513181"/>
      </g>
     </g>
     <g id="text_9">
      <!-- 0.50 -->
      <g transform="translate(12.748438 220.971853)scale(0.17 -0.17)">
       <use xlink:href="#DejaVuSans-48"/>
       <use x="63.623047" xlink:href="#DejaVuSans-46"/>
       <use x="95.410156" xlink:href="#DejaVuSans-53"/>
       <use x="159.033203" xlink:href="#DejaVuSans-48"/>
      </g>
     </g>
    </g>
    <g id="ytick_4">
     <g id="line2d_9">
      <g>
       <use style="stroke:#000000;stroke-width:0.8;" x="57.6" xlink:href="#maef49f0d96" y="167.977771"/>
      </g>
     </g>
     <g id="text_10">
      <!-- 0.75 -->
      <defs>
       <path d="M 8.203125 72.90625 
L 55.078125 72.90625 
L 55.078125 68.703125 
L 28.609375 0 
L 18.3125 0 
L 43.21875 64.59375 
L 8.203125 64.59375 
z
" id="DejaVuSans-55"/>
      </defs>
      <g transform="translate(12.748438 174.436443)scale(0.17 -0.17)">
       <use xlink:href="#DejaVuSans-48"/>
       <use x="63.623047" xlink:href="#DejaVuSans-46"/>
       <use x="95.410156" xlink:href="#DejaVuSans-55"/>
       <use x="159.033203" xlink:href="#DejaVuSans-53"/>
      </g>
     </g>
    </g>
    <g id="ytick_5">
     <g id="line2d_10">
      <g>
       <use style="stroke:#000000;stroke-width:0.8;" x="57.6" xlink:href="#maef49f0d96" y="121.442362"/>
      </g>
     </g>
     <g id="text_11">
      <!-- 1.00 -->
      <g transform="translate(12.748438 127.901034)scale(0.17 -0.17)">
       <use xlink:href="#DejaVuSans-49"/>
       <use x="63.623047" xlink:href="#DejaVuSans-46"/>
       <use x="95.410156" xlink:href="#DejaVuSans-48"/>
       <use x="159.033203" xlink:href="#DejaVuSans-48"/>
      </g>
     </g>
    </g>
    <g id="ytick_6">
     <g id="line2d_11">
      <g>
       <use style="stroke:#000000;stroke-width:0.8;" x="57.6" xlink:href="#maef49f0d96" y="74.906952"/>
      </g>
     </g>
     <g id="text_12">
      <!-- 1.25 -->
      <g transform="translate(12.748438 81.365624)scale(0.17 -0.17)">
       <use xlink:href="#DejaVuSans-49"/>
       <use x="63.623047" xlink:href="#DejaVuSans-46"/>
       <use x="95.410156" xlink:href="#DejaVuSans-50"/>
       <use x="159.033203" xlink:href="#DejaVuSans-53"/>
      </g>
     </g>
    </g>
    <g id="text_13">
     <!-- Density -->
     <defs>
      <path d="M 19.671875 64.796875 
L 19.671875 8.109375 
L 31.59375 8.109375 
Q 46.6875 8.109375 53.6875 14.9375 
Q 60.6875 21.78125 60.6875 36.53125 
Q 60.6875 51.171875 53.6875 57.984375 
Q 46.6875 64.796875 31.59375 64.796875 
z
M 9.8125 72.90625 
L 30.078125 72.90625 
Q 51.265625 72.90625 61.171875 64.09375 
Q 71.09375 55.28125 71.09375 36.53125 
Q 71.09375 17.671875 61.125 8.828125 
Q 51.171875 0 30.078125 0 
L 9.8125 0 
z
" id="DejaVuSans-68"/>
      <path d="M 56.203125 29.59375 
L 56.203125 25.203125 
L 14.890625 25.203125 
Q 15.484375 15.921875 20.484375 11.0625 
Q 25.484375 6.203125 34.421875 6.203125 
Q 39.59375 6.203125 44.453125 7.46875 
Q 49.3125 8.734375 54.109375 11.28125 
L 54.109375 2.78125 
Q 49.265625 0.734375 44.1875 -0.34375 
Q 39.109375 -1.421875 33.890625 -1.421875 
Q 20.796875 -1.421875 13.15625 6.1875 
Q 5.515625 13.8125 5.515625 26.8125 
Q 5.515625 40.234375 12.765625 48.109375 
Q 20.015625 56 32.328125 56 
Q 43.359375 56 49.78125 48.890625 
Q 56.203125 41.796875 56.203125 29.59375 
z
M 47.21875 32.234375 
Q 47.125 39.59375 43.09375 43.984375 
Q 39.0625 48.390625 32.421875 48.390625 
Q 24.90625 48.390625 20.390625 44.140625 
Q 15.875 39.890625 15.1875 32.171875 
z
" id="DejaVuSans-101"/>
      <path d="M 32.171875 -5.078125 
Q 28.375 -14.84375 24.75 -17.8125 
Q 21.140625 -20.796875 15.09375 -20.796875 
L 7.90625 -20.796875 
L 7.90625 -13.28125 
L 13.1875 -13.28125 
Q 16.890625 -13.28125 18.9375 -11.515625 
Q 21 -9.765625 23.484375 -3.21875 
L 25.09375 0.875 
L 2.984375 54.6875 
L 12.5 54.6875 
L 29.59375 11.921875 
L 46.6875 54.6875 
L 56.203125 54.6875 
z
" id="DejaVuSans-121"/>
     </defs>
     <g transform="translate(2.509375 231.553781)rotate(-90)scale(0.3 -0.3)">
      <use xlink:href="#DejaVuSans-68"/>
      <use x="77.001953" xlink:href="#DejaVuSans-101"/>
      <use x="138.525391" xlink:href="#DejaVuSans-110"/>
      <use x="201.904297" xlink:href="#DejaVuSans-115"/>
      <use x="254.003906" xlink:href="#DejaVuSans-105"/>
      <use x="281.787109" xlink:href="#DejaVuSans-116"/>
      <use x="320.996094" xlink:href="#DejaVuSans-121"/>
     </g>
    </g>
   </g>
   <g id="line2d_12">
    <path clip-path="url(#p96a445ee89)" d="M 73.832727 307.584 
L 83.006058 307.475563 
L 83.637781 307.161588 
L 84.376274 306.83069 
L 84.92792 306.869192 
L 85.648618 306.88201 
L 86.467189 306.863947 
L 87.917483 307.118099 
L 88.504718 307.27489 
L 89.243211 307.450944 
L 89.777062 307.314393 
L 90.60453 307.103833 
L 92.090414 307.192583 
L 92.731035 307.26939 
L 93.060242 307.062564 
L 93.478425 306.489538 
L 94.110148 305.660405 
L 94.368176 305.659086 
L 94.661794 305.921887 
L 95.275722 306.489443 
L 95.542647 306.425912 
L 95.934137 306.050052 
L 96.628143 305.423456 
L 97.135301 305.282795 
L 97.793717 305.103863 
L 98.550005 304.781424 
L 98.85252 304.978352 
L 99.902426 305.870688 
L 100.222736 305.745593 
L 100.640919 305.304115 
L 101.45949 304.403169 
L 101.7798 304.39991 
L 103.354659 305.018007 
L 103.790637 305.510819 
L 104.28 305.979531 
L 104.484643 305.907676 
L 104.70708 305.54841 
L 105.027391 304.519017 
L 106.068399 300.782659 
L 106.299734 300.697293 
L 106.53107 300.884736 
L 106.92256 301.558856 
L 108.310571 304.189643 
L 108.541906 304.140253 
L 108.799934 303.818577 
L 109.235912 302.831996 
L 109.823148 301.640921 
L 110.072278 301.541081 
L 110.285818 301.713497 
L 110.606128 302.330926 
L 111.353519 303.816817 
L 111.620444 303.902343 
L 111.88737 303.731253 
L 112.27886 303.166377 
L 112.786018 302.021709 
L 113.613486 300.106307 
L 113.844821 300.035835 
L 114.067259 300.229918 
L 114.414262 300.902383 
L 115.143857 302.330362 
L 115.375193 302.372666 
L 115.588733 302.147933 
L 115.926838 301.385306 
L 116.505176 300.142385 
L 116.745409 300.053918 
L 116.985642 300.227912 
L 117.555082 301.048466 
L 117.95547 301.404337 
L 118.222395 301.375255 
L 118.551603 301.071946 
L 119.121044 300.565087 
L 119.361276 300.638632 
L 119.637099 301.000617 
L 120.606927 302.525338 
L 120.793775 302.330771 
L 121.051803 301.659525 
L 121.576756 299.455514 
L 121.968246 298.311741 
L 122.155094 298.243874 
L 122.324147 298.474244 
L 122.617764 299.355598 
L 123.213897 301.108489 
L 123.436335 301.225857 
L 123.63208 301.06253 
L 124.139238 300.187941 
L 124.459548 299.920606 
L 124.726474 299.984469 
L 125.313709 300.193819 
L 125.553942 299.9755 
L 125.838662 299.363932 
L 126.221255 297.943477 
L 127.146596 294.30062 
L 127.315649 294.273147 
L 127.484701 294.543305 
L 127.778319 295.538649 
L 128.463427 297.874125 
L 129.13074 298.996274 
L 129.860336 300.116998 
L 130.091671 300.115013 
L 130.349699 299.854898 
L 132.111405 297.510179 
L 132.707539 297.026408 
L 133.152414 296.207483 
L 133.641777 295.476451 
L 134.220115 294.809693 
L 134.567118 293.831991 
L 135.136558 292.309403 
L 135.367893 292.205015 
L 135.652614 292.370985 
L 136.56016 293.180684 
L 136.871572 294.329495 
L 137.423218 296.310327 
L 137.59227 296.341052 
L 137.761323 296.046581 
L 138.659971 294.033606 
L 138.909102 294.199334 
L 139.478542 294.599391 
L 139.763262 294.514342 
L 140.243728 294.061551 
L 140.546243 293.935435 
L 140.759783 294.086429 
L 141.071196 294.645695 
L 141.631739 295.610682 
L 141.836382 295.609083 
L 142.049922 295.347014 
L 142.432515 294.42939 
L 142.939673 293.372666 
L 143.224393 293.217202 
L 143.953989 293.062758 
L 144.309889 292.524757 
L 145.288615 290.938165 
L 145.840261 290.617778 
L 146.116083 290.286437 
L 146.409701 289.532262 
L 147.343939 286.795816 
L 147.655352 286.705961 
L 147.940072 286.55537 
L 148.206998 286.104503 
L 148.838721 284.947575 
L 148.981081 285.062251 
L 149.167929 285.570741 
L 149.461546 287.140082 
L 150.253425 291.675843 
L 150.431375 291.78855 
L 150.582632 291.570818 
L 150.91184 290.561918 
L 151.258843 289.791649 
L 151.427896 289.80818 
L 151.623641 290.140509 
L 152.290954 291.440805 
L 152.486699 291.344265 
L 153.05614 290.928688 
L 153.26968 291.186282 
L 153.759043 291.821105 
L 153.892505 291.624137 
L 154.088251 290.829405 
L 154.408561 288.366457 
L 155.004694 283.931573 
L 155.209337 283.615342 
L 155.333902 283.760907 
L 155.556339 284.470669 
L 156.677425 288.593972 
L 157.451509 290.397942 
L 157.691741 290.498356 
L 157.896384 290.311208 
L 158.225592 289.621466 
L 160.005093 285.4356 
L 160.218634 285.368212 
L 160.396584 285.595376 
L 160.663509 286.382489 
L 161.526567 289.191238 
L 161.686722 289.158127 
L 161.855775 288.815561 
L 162.104905 287.723317 
L 162.531986 284.636116 
L 163.101426 280.926907 
L 163.377249 280.311864 
L 163.555199 280.325899 
L 163.786534 280.649835 
L 165.210136 283.082543 
L 165.388086 282.969771 
L 165.610524 282.497142 
L 165.939731 281.17337 
L 167.131997 275.831969 
L 167.398923 275.61798 
L 167.69254 275.693049 
L 168.546701 276.216456 
L 168.840319 276.852104 
L 169.783455 279.209944 
L 169.94361 279.075345 
L 170.183843 278.502666 
L 171.207056 275.648098 
L 171.998934 274.699774 
L 172.40822 274.139791 
L 172.559477 274.236462 
L 172.755223 274.714059 
L 173.475921 277.010517 
L 173.529306 276.9703 
L 173.680563 276.606287 
L 173.947489 275.216232 
L 174.703777 271.031063 
L 174.952907 270.707455 
L 175.210935 270.742955 
L 175.504553 270.721268 
L 175.780375 270.408734 
L 176.118481 270.116935 
L 176.269738 270.252735 
L 176.483278 270.817283 
L 177.026026 273.177517 
L 178.983478 280.758924 
L 179.348276 281.218226 
L 179.526226 281.169978 
L 179.704176 280.814793 
L 179.935512 279.76376 
L 180.273617 277.019529 
L 181.172265 269.23275 
L 181.394703 268.835091 
L 181.519268 268.958495 
L 181.723911 269.591733 
L 182.480199 272.262211 
L 182.604764 272.154144 
L 182.782714 271.614996 
L 183.08523 269.826511 
L 184.357573 261.333697 
L 184.633396 260.888706 
L 184.820244 260.920283 
L 185.051579 261.243303 
L 186.22605 263.270864 
L 186.51077 263.156314 
L 186.893363 263.042143 
L 187.106903 263.253481 
L 187.462804 264.0216 
L 187.889884 264.752005 
L 188.156809 264.818381 
L 188.58389 264.869831 
L 188.806327 265.209546 
L 189.11774 266.18473 
L 189.704976 268.011036 
L 189.847336 267.976728 
L 190.007491 267.586488 
L 190.274416 266.190681 
L 191.057397 261.727029 
L 191.208654 261.637486 
L 191.226449 261.649468 
L 191.36881 261.904455 
L 191.635735 262.972737 
L 192.133995 264.887879 
L 192.240765 264.886718 
L 192.25856 264.86467 
L 192.400921 264.449532 
L 192.632256 262.891936 
L 193.157209 257.229472 
L 193.539802 254.419426 
L 193.744444 254.062212 
L 193.860112 254.192096 
L 194.08255 254.900267 
L 194.607503 256.556651 
L 194.749863 256.530866 
L 194.918915 256.16742 
L 195.230328 254.823604 
L 196.324722 249.814025 
L 197.499193 243.527363 
L 197.846195 240.779873 
L 198.460124 233.355763 
L 198.771536 231.247388 
L 198.860511 231.169105 
L 198.896101 231.209699 
L 199.020667 231.671625 
L 199.234207 233.517052 
L 199.661287 239.640554 
L 200.248523 247.094772 
L 200.568833 248.795983 
L 200.809066 249.14218 
L 201.280634 249.473678 
L 201.520866 250.241516 
L 202.116999 252.269193 
L 202.223769 252.163643 
L 202.392822 251.56359 
L 202.704235 249.420602 
L 203.380446 244.861083 
L 204.741764 239.143282 
L 204.875227 239.178078 
L 205.04428 239.541698 
L 205.658208 241.261434 
L 205.702695 241.228632 
L 205.836158 240.906596 
L 206.058595 239.665575 
L 206.859371 234.652495 
L 206.983936 234.678175 
L 207.152989 235.066911 
L 207.784712 236.763268 
L 207.909277 236.60124 
L 208.105022 235.892486 
L 208.487615 233.446821 
L 209.003671 230.571027 
L 209.270596 230.088879 
L 209.475239 230.102922 
L 209.955704 230.242809 
L 210.160347 229.967353 
L 210.436169 229.161779 
L 210.809865 227.311246 
L 211.281433 223.722651 
L 212.011028 218.262589 
L 212.233466 217.859411 
L 212.358031 217.95991 
L 212.580469 218.528846 
L 213.034242 219.608935 
L 213.194397 219.580633 
L 213.407937 219.231951 
L 213.915095 218.402206 
L 214.11084 218.449959 
L 214.440048 218.841972 
L 215.685699 220.708361 
L 215.988215 221.035551 
L 216.14837 220.933065 
L 216.344115 220.471858 
L 216.619938 219.152506 
L 217.011428 216.004438 
L 217.838896 209.103731 
L 218.088026 208.586895 
L 218.292669 208.592062 
L 218.657467 208.636626 
L 218.853212 208.359692 
L 219.11124 207.528398 
L 219.449345 205.565988 
L 220.321301 199.983039 
L 220.410276 200.071283 
L 220.561534 200.685069 
L 220.819561 202.898868 
L 221.82498 212.622302 
L 222.056315 213.086155 
L 222.18088 212.991468 
L 222.35883 212.475962 
L 222.705833 210.606991 
L 223.150709 208.582884 
L 223.284171 208.497276 
L 223.310864 208.519252 
L 223.444326 208.827979 
L 223.675662 210.057656 
L 224.21841 213.031098 
L 224.298487 212.912644 
L 224.43195 212.122674 
L 224.64549 209.170224 
L 225.010288 200.248204 
L 225.579728 187.321706 
L 225.819961 185.679125 
L 225.873346 185.660363 
L 225.917834 185.73039 
L 226.051296 186.34922 
L 226.336016 189.029594 
L 226.96774 194.828171 
L 227.314742 196.086711 
L 227.617258 196.531883 
L 227.724028 196.436757 
L 227.848593 195.913896 
L 228.008748 194.062119 
L 228.204493 188.667085 
L 228.444726 174.614404 
L 228.756139 141.178601 
L 229.512427 54.992933 
L 229.583607 54.144 
L 229.628094 54.579486 
L 229.734865 58.571441 
L 229.939507 76.287935 
L 231.060593 190.949847 
L 231.345314 197.060684 
L 231.514366 197.821144 
L 231.532161 197.80882 
L 231.621136 197.524229 
L 231.799086 196.007772 
L 232.119397 190.956986 
L 232.64435 178.604854 
L 233.46292 159.411564 
L 233.623076 158.624242 
L 233.649768 158.652849 
L 233.738743 159.082968 
L 233.907796 161.249937 
L 234.228106 168.943314 
L 234.948804 186.334678 
L 235.295807 189.747816 
L 235.740683 191.717745 
L 236.043198 193.696617 
L 236.479176 198.426325 
L 236.959641 202.811692 
L 237.173181 203.30584 
L 237.279951 203.201266 
L 237.484594 202.565043 
L 237.947265 201.174983 
L 238.080727 201.209314 
L 238.24978 201.576725 
L 239.059453 203.966886 
L 239.112838 203.93163 
L 239.272993 203.608049 
L 239.548816 202.414305 
L 240.127154 199.924518 
L 240.260617 199.898061 
L 240.269514 199.906701 
L 240.411874 200.218189 
L 240.661005 201.427184 
L 241.452883 205.617905 
L 241.719808 205.934977 
L 241.977836 205.911936 
L 242.209171 205.672955 
L 242.422711 205.083644 
L 242.671841 203.615542 
L 243.027742 199.890859 
L 243.632772 193.724061 
L 243.757337 193.47069 
L 243.792927 193.496593 
L 243.899698 193.845887 
L 244.086545 195.403391 
L 244.451343 200.813548 
L 244.914013 206.613448 
L 245.091964 207.147307 
L 245.109759 207.141522 
L 245.207631 206.936241 
L 245.403376 205.830975 
L 246.035099 201.982313 
L 246.221947 201.87367 
L 246.42659 202.109151 
L 246.96044 202.716033 
L 247.200673 203.117791 
L 247.467598 204.104058 
L 248.375144 207.939873 
L 248.837815 208.97859 
L 249.131432 210.509742 
L 249.896618 214.876078 
L 250.003388 214.875531 
L 250.021183 214.854627 
L 250.172441 214.454959 
L 250.466059 212.867131 
L 251.026602 210.018338 
L 251.275732 209.666254 
L 251.444784 209.731155 
L 251.658325 210.104397 
L 251.943045 211.114784 
L 252.334535 213.47491 
L 253.233184 219.057742 
L 253.793727 221.037061 
L 254.345372 222.175162 
L 254.71017 223.157721 
L 255.795666 226.595175 
L 255.955821 226.480426 
L 256.204951 225.952634 
L 256.676519 224.994597 
L 256.818879 225.06902 
L 257.005727 225.530381 
L 257.379422 227.25182 
L 257.806503 228.802224 
L 258.020043 228.963607 
L 258.189096 228.811831 
L 258.473816 228.171255 
L 259.505927 224.928837 
L 259.950802 222.872513 
L 260.546935 220.216701 
L 260.680398 220.156523 
L 260.698193 220.172359 
L 260.831655 220.481162 
L 261.045196 221.658479 
L 261.498969 225.81515 
L 261.881561 228.347044 
L 262.050614 228.578987 
L 262.068409 228.569345 
L 262.192974 228.337176 
L 262.433207 227.269501 
L 262.99375 224.780379 
L 263.10052 224.766047 
L 263.127213 224.797143 
L 263.269573 225.205736 
L 263.500908 226.694443 
L 264.444044 233.698784 
L 264.541916 233.579973 
L 264.710969 232.898355 
L 265.040177 230.410687 
L 265.591822 226.567026 
L 265.805363 226.191726 
L 265.92103 226.315154 
L 266.107878 226.955847 
L 266.445983 229.114669 
L 267.878482 239.185432 
L 268.056432 239.367156 
L 268.06533 239.362659 
L 268.189895 239.165725 
L 268.403435 238.313921 
L 269.239801 234.470891 
L 269.355468 234.571809 
L 269.533418 235.144886 
L 269.871524 237.208192 
L 270.423169 240.288106 
L 270.698992 240.797934 
L 270.92143 240.822302 
L 271.357408 240.541403 
L 271.793385 240.395376 
L 272.113696 240.519433 
L 272.451801 240.914509 
L 273.047934 242.077352 
L 273.305962 242.30113 
L 273.448322 242.165783 
L 273.63517 241.600187 
L 273.910992 239.918028 
L 274.667281 234.904425 
L 274.756256 234.91279 
L 274.774051 234.938008 
L 274.907513 235.374083 
L 275.147746 237.12221 
L 276.081984 244.831226 
L 276.27773 244.992811 
L 276.437885 244.796835 
L 277.034018 243.911219 
L 277.194173 244.134042 
L 277.452201 244.98574 
L 278.546594 249.097953 
L 279.302882 250.966153 
L 279.712168 251.379749 
L 280.094761 251.80352 
L 280.379481 252.531836 
L 280.770971 254.266832 
L 281.447182 257.190401 
L 281.7408 257.606045 
L 282.123392 257.69975 
L 282.38142 257.907716 
L 282.683935 258.512032 
L 284.240999 262.774791 
L 285.041775 265.45269 
L 285.20193 265.44988 
L 285.362085 265.132332 
L 285.620113 264.004836 
L 286.687814 258.620827 
L 286.963637 258.386358 
L 287.648745 258.111231 
L 287.995748 257.480225 
L 288.627471 256.339078 
L 288.796524 256.382562 
L 288.974474 256.718032 
L 289.232501 257.771973 
L 289.819737 261.501436 
L 290.157842 262.804766 
L 290.317997 262.882718 
L 290.326895 262.876381 
L 290.478153 262.611712 
L 290.762873 261.528789 
L 291.252236 259.829409 
L 291.403493 259.808613 
L 291.554751 260.11547 
L 291.803881 261.244867 
L 292.542374 264.846269 
L 292.711427 264.904106 
L 292.88048 264.654219 
L 293.280868 263.500064 
L 293.636768 262.797517 
L 293.805821 262.810164 
L 293.974873 263.112628 
L 294.232901 264.137687 
L 295.407372 269.632068 
L 296.039095 270.892986 
L 297.498286 274.922352 
L 297.800802 275.113346 
L 298.049932 275.006784 
L 298.565987 274.723456 
L 298.761733 274.946447 
L 299.064248 275.732439 
L 299.544713 276.876014 
L 299.740459 276.900198 
L 299.962896 276.636177 
L 300.487849 275.988283 
L 300.692492 276.059964 
L 300.95052 276.440118 
L 301.359805 277.51763 
L 301.991528 279.10898 
L 302.169478 279.121344 
L 302.338531 278.852846 
L 302.614354 277.909984 
L 303.326154 275.353952 
L 303.539694 275.232043 
L 303.717645 275.394409 
L 303.993467 276.012455 
L 304.429445 277.602976 
L 304.927706 280.292401 
L 305.870842 285.67821 
L 306.084382 285.875879 
L 306.235639 285.702177 
L 306.475872 284.99814 
L 307.543573 281.371305 
L 307.774908 281.305179 
L 308.006244 281.49556 
L 308.326554 282.101012 
L 308.833712 283.639946 
L 309.242997 284.600904 
L 309.41205 284.602983 
L 309.581102 284.302462 
L 309.928105 283.070374 
L 310.248416 282.304438 
L 310.364083 282.368196 
L 310.524238 282.834747 
L 310.791164 284.468768 
L 311.520759 289.201646 
L 311.707607 289.380194 
L 311.84107 289.186077 
L 312.063507 288.365341 
L 312.543973 285.476919 
L 313.068926 282.883049 
L 313.496006 281.868613 
L 313.994267 280.661899 
L 315.19543 277.270668 
L 315.462355 277.182798 
L 315.844948 277.362654 
L 316.174156 277.403163 
L 316.494466 277.176014 
L 316.894854 276.951853 
L 317.081702 277.11445 
L 317.30414 277.671153 
L 317.62445 279.181142 
L 318.718843 284.891343 
L 319.039154 285.410769 
L 319.226001 285.394946 
L 319.403951 285.105144 
L 319.653082 284.188761 
L 320.533935 280.084139 
L 320.596218 280.129526 
L 320.738578 280.503207 
L 320.996605 281.966874 
L 321.646124 285.795515 
L 321.806279 285.921514 
L 321.824074 285.910259 
L 321.966434 285.660132 
L 322.260052 284.555463 
L 322.713824 283.085761 
L 322.936262 282.955596 
L 323.149802 283.12134 
L 323.72814 283.983016 
L 324.199708 284.995097 
L 325.071664 287.642615 
L 326.032595 290.108801 
L 326.904551 292.088413 
L 327.180374 292.228281 
L 327.393914 292.09933 
L 327.643044 291.643309 
L 327.954457 290.526339 
L 329.01326 286.098388 
L 329.022158 286.101378 
L 329.15562 286.271045 
L 329.378058 287.003465 
L 330.161039 289.901219 
L 330.330091 289.882466 
L 330.543632 289.539795 
L 331.282125 288.186307 
L 331.531255 288.180509 
L 331.83377 288.429261 
L 332.216363 289.055773 
L 332.768009 290.467468 
L 333.284064 291.553373 
L 333.586579 291.737813 
L 334.004762 291.666038 
L 334.40515 291.707657 
L 334.894513 292.025049 
L 335.303798 292.529182 
L 335.721981 293.464333 
L 336.282524 294.627817 
L 336.487167 294.660567 
L 336.69181 294.419024 
L 337.11889 293.430543 
L 337.492585 292.844166 
L 337.715023 292.835907 
L 338.017538 293.111336 
L 338.489106 293.474668 
L 338.871699 293.441265 
L 339.200907 293.495113 
L 339.450037 293.790774 
L 339.779245 294.593894 
L 340.775766 297.30538 
L 340.935921 297.2201 
L 341.131666 296.791992 
L 341.451977 295.44659 
L 342.288342 291.734438 
L 342.519678 291.509928 
L 342.679833 291.635146 
L 342.911168 292.182762 
L 343.347146 293.951623 
L 343.889894 295.846675 
L 344.183512 296.190661 
L 344.432642 296.165674 
L 345.527035 295.532425 
L 346.238836 295.138812 
L 346.452376 295.331466 
L 346.719301 295.924544 
L 347.253152 297.825631 
L 347.715822 299.070491 
L 347.97385 299.257142 
L 348.160698 299.133681 
L 348.418725 298.643819 
L 349.619889 295.91328 
L 349.851224 295.977398 
L 350.162637 296.348038 
L 352.431502 299.618677 
L 353.321252 300.057251 
L 353.677153 300.744039 
L 354.388953 302.788206 
L 354.816034 303.601462 
L 355.082959 303.71906 
L 355.323192 303.570746 
L 355.643502 303.066946 
L 356.711203 301.150232 
L 356.906948 301.264006 
L 357.173873 301.731347 
L 358.028034 303.413221 
L 358.286062 303.436754 
L 358.659757 303.199576 
L 359.18471 302.620615 
L 359.611791 301.737635 
L 360.110051 300.830453 
L 360.323591 300.805808 
L 360.554927 301.043396 
L 361.480267 302.213266 
L 362.14758 302.424378 
L 362.636943 302.375661 
L 363.117409 302.361739 
L 363.411027 302.602306 
L 363.838107 303.303021 
L 364.496523 304.310133 
L 364.879115 304.498987 
L 366.249332 304.61945 
L 366.623027 304.393675 
L 367.521675 303.748626 
L 367.877576 303.848769 
L 368.705044 304.168016 
L 370.32439 304.203008 
L 370.626906 304.525267 
L 371.062884 305.393972 
L 371.623427 306.378548 
L 371.970429 306.568993 
L 372.424202 306.528755 
L 375.369278 305.991133 
L 375.725178 306.407039 
L 376.517056 307.370817 
L 376.953034 307.516757 
L 377.442397 307.440737 
L 377.922862 307.135229 
L 378.937178 306.399012 
L 379.328669 306.495893 
L 379.898109 306.622033 
L 380.280702 306.432555 
L 381.03699 306.022099 
L 381.517456 306.082941 
L 382.184769 306.139025 
L 383.332547 306.028365 
L 383.866398 306.496806 
L 384.507018 306.94661 
L 384.925201 306.994665 
L 385.236614 306.831177 
L 385.236614 306.831177 
" style="fill:none;stroke:#ff7f0e;stroke-linecap:square;stroke-width:1.5;"/>
   </g>
   <g id="patch_103">
    <path d="M 57.6 307.584 
L 57.6 41.472 
" style="fill:none;stroke:#000000;stroke-linecap:square;stroke-linejoin:miter;stroke-width:0.8;"/>
   </g>
   <g id="patch_104">
    <path d="M 414.72 307.584 
L 414.72 41.472 
" style="fill:none;stroke:#000000;stroke-linecap:square;stroke-linejoin:miter;stroke-width:0.8;"/>
   </g>
   <g id="patch_105">
    <path d="M 57.6 307.584 
L 414.72 307.584 
" style="fill:none;stroke:#000000;stroke-linecap:square;stroke-linejoin:miter;stroke-width:0.8;"/>
   </g>
   <g id="patch_106">
    <path d="M 57.6 41.472 
L 414.72 41.472 
" style="fill:none;stroke:#000000;stroke-linecap:square;stroke-linejoin:miter;stroke-width:0.8;"/>
   </g>
  </g>
 </g>
 <defs>
  <clipPath id="p96a445ee89">
   <rect height="266.112" width="357.12" x="57.6" y="41.472"/>
  </clipPath>
 </defs>
</svg>
