<?xml version="1.0" encoding="utf-8" standalone="no"?>
<!DOCTYPE svg PUBLIC "-//W3C//DTD SVG 1.1//EN"
  "http://www.w3.org/Graphics/SVG/1.1/DTD/svg11.dtd">
<!-- Created with matplotlib (https://matplotlib.org/) -->
<svg height="345.6pt" version="1.1" viewBox="0 0 460.8 345.6" width="460.8pt" xmlns="http://www.w3.org/2000/svg" xmlns:xlink="http://www.w3.org/1999/xlink">
 <defs>
  <style type="text/css">
*{stroke-linecap:butt;stroke-linejoin:round;}
  </style>
 </defs>
 <g id="figure_1">
  <g id="patch_1">
   <path d="M 0 345.6 
L 460.8 345.6 
L 460.8 0 
L 0 0 
z
" style="fill:#ffffff;"/>
  </g>
  <g id="axes_1">
   <g id="patch_2">
    <path d="M 57.6 307.584 
L 414.72 307.584 
L 414.72 41.472 
L 57.6 41.472 
z
" style="fill:#ffffff;"/>
   </g>
   <g id="patch_3">
    <path clip-path="url(#p0aabf25b6e)" d="M 73.832727 307.584 
L 77.079273 307.584 
L 77.079273 306.716977 
L 73.832727 306.716977 
z
" style="fill:#1f77b4;"/>
   </g>
   <g id="patch_4">
    <path clip-path="url(#p0aabf25b6e)" d="M 77.079288 307.584 
L 80.325834 307.584 
L 80.325834 307.410595 
L 77.079288 307.410595 
z
" style="fill:#1f77b4;"/>
   </g>
   <g id="patch_5">
    <path clip-path="url(#p0aabf25b6e)" d="M 80.32582 307.584 
L 83.572366 307.584 
L 83.572366 306.370168 
L 80.32582 306.370168 
z
" style="fill:#1f77b4;"/>
   </g>
   <g id="patch_6">
    <path clip-path="url(#p0aabf25b6e)" d="M 83.57238 307.584 
L 86.818926 307.584 
L 86.818926 306.543572 
L 83.57238 306.543572 
z
" style="fill:#1f77b4;"/>
   </g>
   <g id="patch_7">
    <path clip-path="url(#p0aabf25b6e)" d="M 86.818912 307.584 
L 90.065458 307.584 
L 90.065458 306.543572 
L 86.818912 306.543572 
z
" style="fill:#1f77b4;"/>
   </g>
   <g id="patch_8">
    <path clip-path="url(#p0aabf25b6e)" d="M 90.065473 307.584 
L 93.312019 307.584 
L 93.312019 307.063786 
L 90.065473 307.063786 
z
" style="fill:#1f77b4;"/>
   </g>
   <g id="patch_9">
    <path clip-path="url(#p0aabf25b6e)" d="M 93.312004 307.584 
L 96.55855 307.584 
L 96.55855 306.890381 
L 93.312004 306.890381 
z
" style="fill:#1f77b4;"/>
   </g>
   <g id="patch_10">
    <path clip-path="url(#p0aabf25b6e)" d="M 96.558565 307.584 
L 99.805111 307.584 
L 99.805111 306.023358 
L 96.558565 306.023358 
z
" style="fill:#1f77b4;"/>
   </g>
   <g id="patch_11">
    <path clip-path="url(#p0aabf25b6e)" d="M 99.805097 307.584 
L 103.051643 307.584 
L 103.051643 305.849954 
L 99.805097 305.849954 
z
" style="fill:#1f77b4;"/>
   </g>
   <g id="patch_12">
    <path clip-path="url(#p0aabf25b6e)" d="M 103.051657 307.584 
L 106.298203 307.584 
L 106.298203 305.156335 
L 103.051657 305.156335 
z
" style="fill:#1f77b4;"/>
   </g>
   <g id="patch_13">
    <path clip-path="url(#p0aabf25b6e)" d="M 106.298189 307.584 
L 109.544721 307.584 
L 109.544721 304.982919 
L 106.298189 304.982919 
z
" style="fill:#1f77b4;"/>
   </g>
   <g id="patch_14">
    <path clip-path="url(#p0aabf25b6e)" d="M 109.544721 307.584 
L 112.791274 307.584 
L 112.791274 302.555277 
L 109.544721 302.555277 
z
" style="fill:#1f77b4;"/>
   </g>
   <g id="patch_15">
    <path clip-path="url(#p0aabf25b6e)" d="M 112.791274 307.584 
L 116.03782 307.584 
L 116.03782 303.595693 
L 112.791274 303.595693 
z
" style="fill:#1f77b4;"/>
   </g>
   <g id="patch_16">
    <path clip-path="url(#p0aabf25b6e)" d="M 116.03782 307.584 
L 119.284367 307.584 
L 119.284367 301.861647 
L 116.03782 301.861647 
z
" style="fill:#1f77b4;"/>
   </g>
   <g id="patch_17">
    <path clip-path="url(#p0aabf25b6e)" d="M 119.284374 307.584 
L 122.530913 307.584 
L 122.530913 302.38185 
L 119.284374 302.38185 
z
" style="fill:#1f77b4;"/>
   </g>
   <g id="patch_18">
    <path clip-path="url(#p0aabf25b6e)" d="M 122.530905 307.584 
L 125.777452 307.584 
L 125.777452 301.514838 
L 122.530905 301.514838 
z
" style="fill:#1f77b4;"/>
   </g>
   <g id="patch_19">
    <path clip-path="url(#p0aabf25b6e)" d="M 125.777452 307.584 
L 129.023998 307.584 
L 129.023998 299.607387 
L 125.777452 299.607387 
z
" style="fill:#1f77b4;"/>
   </g>
   <g id="patch_20">
    <path clip-path="url(#p0aabf25b6e)" d="M 129.023998 307.584 
L 132.270544 307.584 
L 132.270544 298.046745 
L 129.023998 298.046745 
z
" style="fill:#1f77b4;"/>
   </g>
   <g id="patch_21">
    <path clip-path="url(#p0aabf25b6e)" d="M 132.270544 307.584 
L 135.51709 307.584 
L 135.51709 299.780792 
L 132.270544 299.780792 
z
" style="fill:#1f77b4;"/>
   </g>
   <g id="patch_22">
    <path clip-path="url(#p0aabf25b6e)" d="M 135.51709 307.584 
L 138.763636 307.584 
L 138.763636 296.139294 
L 135.51709 296.139294 
z
" style="fill:#1f77b4;"/>
   </g>
   <g id="patch_23">
    <path clip-path="url(#p0aabf25b6e)" d="M 138.763636 307.584 
L 142.010183 307.584 
L 142.010183 293.36482 
L 138.763636 293.36482 
z
" style="fill:#1f77b4;"/>
   </g>
   <g id="patch_24">
    <path clip-path="url(#p0aabf25b6e)" d="M 142.010183 307.584 
L 145.256729 307.584 
L 145.256729 295.96589 
L 142.010183 295.96589 
z
" style="fill:#1f77b4;"/>
   </g>
   <g id="patch_25">
    <path clip-path="url(#p0aabf25b6e)" d="M 145.256729 307.584 
L 148.503275 307.584 
L 148.503275 295.272271 
L 145.256729 295.272271 
z
" style="fill:#1f77b4;"/>
   </g>
   <g id="patch_26">
    <path clip-path="url(#p0aabf25b6e)" d="M 148.503275 307.584 
L 151.749821 307.584 
L 151.749821 290.070132 
L 148.503275 290.070132 
z
" style="fill:#1f77b4;"/>
   </g>
   <g id="patch_27">
    <path clip-path="url(#p0aabf25b6e)" d="M 151.749821 307.584 
L 154.996367 307.584 
L 154.996367 287.989277 
L 151.749821 287.989277 
z
" style="fill:#1f77b4;"/>
   </g>
   <g id="patch_28">
    <path clip-path="url(#p0aabf25b6e)" d="M 154.996367 307.584 
L 158.242906 307.584 
L 158.242906 290.937118 
L 154.996367 290.937118 
z
" style="fill:#1f77b4;"/>
   </g>
   <g id="patch_29">
    <path clip-path="url(#p0aabf25b6e)" d="M 158.242906 307.584 
L 161.489452 307.584 
L 161.489452 290.416942 
L 158.242906 290.416942 
z
" style="fill:#1f77b4;"/>
   </g>
   <g id="patch_30">
    <path clip-path="url(#p0aabf25b6e)" d="M 161.489452 307.584 
L 164.735999 307.584 
L 164.735999 287.122254 
L 161.489452 287.122254 
z
" style="fill:#1f77b4;"/>
   </g>
   <g id="patch_31">
    <path clip-path="url(#p0aabf25b6e)" d="M 164.735999 307.584 
L 167.982545 307.584 
L 167.982545 282.960542 
L 164.735999 282.960542 
z
" style="fill:#1f77b4;"/>
   </g>
   <g id="patch_32">
    <path clip-path="url(#p0aabf25b6e)" d="M 167.982545 307.584 
L 171.229091 307.584 
L 171.229091 279.665854 
L 167.982545 279.665854 
z
" style="fill:#1f77b4;"/>
   </g>
   <g id="patch_33">
    <path clip-path="url(#p0aabf25b6e)" d="M 171.229091 307.584 
L 174.475637 307.584 
L 174.475637 278.452022 
L 171.229091 278.452022 
z
" style="fill:#1f77b4;"/>
   </g>
   <g id="patch_34">
    <path clip-path="url(#p0aabf25b6e)" d="M 174.475637 307.584 
L 177.722183 307.584 
L 177.722183 273.423288 
L 174.475637 273.423288 
z
" style="fill:#1f77b4;"/>
   </g>
   <g id="patch_35">
    <path clip-path="url(#p0aabf25b6e)" d="M 177.722183 307.584 
L 180.968726 307.584 
L 180.968726 277.75837 
L 177.722183 277.75837 
z
" style="fill:#1f77b4;"/>
   </g>
   <g id="patch_36">
    <path clip-path="url(#p0aabf25b6e)" d="M 180.968726 307.584 
L 184.215272 307.584 
L 184.215272 275.157334 
L 180.968726 275.157334 
z
" style="fill:#1f77b4;"/>
   </g>
   <g id="patch_37">
    <path clip-path="url(#p0aabf25b6e)" d="M 184.215272 307.584 
L 187.461818 307.584 
L 187.461818 270.648814 
L 184.215272 270.648814 
z
" style="fill:#1f77b4;"/>
   </g>
   <g id="patch_38">
    <path clip-path="url(#p0aabf25b6e)" d="M 187.461818 307.584 
L 190.708364 307.584 
L 190.708364 265.099865 
L 187.461818 265.099865 
z
" style="fill:#1f77b4;"/>
   </g>
   <g id="patch_39">
    <path clip-path="url(#p0aabf25b6e)" d="M 190.708364 307.584 
L 193.954911 307.584 
L 193.954911 263.712628 
L 190.708364 263.712628 
z
" style="fill:#1f77b4;"/>
   </g>
   <g id="patch_40">
    <path clip-path="url(#p0aabf25b6e)" d="M 193.954907 307.584 
L 197.20145 307.584 
L 197.20145 257.123196 
L 193.954907 257.123196 
z
" style="fill:#1f77b4;"/>
   </g>
   <g id="patch_41">
    <path clip-path="url(#p0aabf25b6e)" d="M 197.201453 307.584 
L 200.447999 307.584 
L 200.447999 248.626425 
L 197.201453 248.626425 
z
" style="fill:#1f77b4;"/>
   </g>
   <g id="patch_42">
    <path clip-path="url(#p0aabf25b6e)" d="M 200.447999 307.584 
L 203.694545 307.584 
L 203.694545 245.505142 
L 200.447999 245.505142 
z
" style="fill:#1f77b4;"/>
   </g>
   <g id="patch_43">
    <path clip-path="url(#p0aabf25b6e)" d="M 203.694545 307.584 
L 206.941092 307.584 
L 206.941092 244.29131 
L 203.694545 244.29131 
z
" style="fill:#1f77b4;"/>
   </g>
   <g id="patch_44">
    <path clip-path="url(#p0aabf25b6e)" d="M 206.941092 307.584 
L 210.187636 307.584 
L 210.187636 243.077441 
L 206.941092 243.077441 
z
" style="fill:#1f77b4;"/>
   </g>
   <g id="patch_45">
    <path clip-path="url(#p0aabf25b6e)" d="M 210.187636 307.584 
L 213.434182 307.584 
L 213.434182 229.725321 
L 210.187636 229.725321 
z
" style="fill:#1f77b4;"/>
   </g>
   <g id="patch_46">
    <path clip-path="url(#p0aabf25b6e)" d="M 213.434182 307.584 
L 216.680727 307.584 
L 216.680727 223.656135 
L 213.434182 223.656135 
z
" style="fill:#1f77b4;"/>
   </g>
   <g id="patch_47">
    <path clip-path="url(#p0aabf25b6e)" d="M 216.680727 307.584 
L 219.927272 307.584 
L 219.927272 218.107186 
L 216.680727 218.107186 
z
" style="fill:#1f77b4;"/>
   </g>
   <g id="patch_48">
    <path clip-path="url(#p0aabf25b6e)" d="M 219.927273 307.584 
L 223.173818 307.584 
L 223.173818 208.569928 
L 219.927273 208.569928 
z
" style="fill:#1f77b4;"/>
   </g>
   <g id="patch_49">
    <path clip-path="url(#p0aabf25b6e)" d="M 223.173818 307.584 
L 226.420364 307.584 
L 226.420364 212.038035 
L 223.173818 212.038035 
z
" style="fill:#1f77b4;"/>
   </g>
   <g id="patch_50">
    <path clip-path="url(#p0aabf25b6e)" d="M 226.420364 307.584 
L 229.666909 307.584 
L 229.666909 197.125219 
L 226.420364 197.125219 
z
" style="fill:#1f77b4;"/>
   </g>
   <g id="patch_51">
    <path clip-path="url(#p0aabf25b6e)" d="M 229.666909 307.584 
L 232.913454 307.584 
L 232.913454 133.138893 
L 229.666909 133.138893 
z
" style="fill:#1f77b4;"/>
   </g>
   <g id="patch_52">
    <path clip-path="url(#p0aabf25b6e)" d="M 232.913455 307.584 
L 236.16 307.584 
L 236.16 178.224118 
L 232.913455 178.224118 
z
" style="fill:#1f77b4;"/>
   </g>
   <g id="patch_53">
    <path clip-path="url(#p0aabf25b6e)" d="M 236.16 307.584 
L 239.406545 307.584 
L 239.406545 203.020978 
L 236.16 203.020978 
z
" style="fill:#1f77b4;"/>
   </g>
   <g id="patch_54">
    <path clip-path="url(#p0aabf25b6e)" d="M 239.406544 307.584 
L 242.65309 307.584 
L 242.65309 206.835881 
L 239.406544 206.835881 
z
" style="fill:#1f77b4;"/>
   </g>
   <g id="patch_55">
    <path clip-path="url(#p0aabf25b6e)" d="M 242.653091 307.584 
L 245.899637 307.584 
L 245.899637 204.581649 
L 242.653091 204.581649 
z
" style="fill:#1f77b4;"/>
   </g>
   <g id="patch_56">
    <path clip-path="url(#p0aabf25b6e)" d="M 245.899635 307.584 
L 249.146179 307.584 
L 249.146179 205.62202 
L 245.899635 205.62202 
z
" style="fill:#1f77b4;"/>
   </g>
   <g id="patch_57">
    <path clip-path="url(#p0aabf25b6e)" d="M 249.146181 307.584 
L 252.392727 307.584 
L 252.392727 213.945499 
L 249.146181 213.945499 
z
" style="fill:#1f77b4;"/>
   </g>
   <g id="patch_58">
    <path clip-path="url(#p0aabf25b6e)" d="M 252.392727 307.584 
L 255.639273 307.584 
L 255.639273 221.922112 
L 252.392727 221.922112 
z
" style="fill:#1f77b4;"/>
   </g>
   <g id="patch_59">
    <path clip-path="url(#p0aabf25b6e)" d="M 255.639273 307.584 
L 258.885818 307.584 
L 258.885818 227.297611 
L 255.639273 227.297611 
z
" style="fill:#1f77b4;"/>
   </g>
   <g id="patch_60">
    <path clip-path="url(#p0aabf25b6e)" d="M 258.885816 307.584 
L 262.132362 307.584 
L 262.132362 222.789088 
L 258.885816 222.789088 
z
" style="fill:#1f77b4;"/>
   </g>
   <g id="patch_61">
    <path clip-path="url(#p0aabf25b6e)" d="M 262.132362 307.584 
L 265.378908 307.584 
L 265.378908 226.777442 
L 262.132362 226.777442 
z
" style="fill:#1f77b4;"/>
   </g>
   <g id="patch_62">
    <path clip-path="url(#p0aabf25b6e)" d="M 265.378908 307.584 
L 268.625455 307.584 
L 268.625455 229.898725 
L 265.378908 229.898725 
z
" style="fill:#1f77b4;"/>
   </g>
   <g id="patch_63">
    <path clip-path="url(#p0aabf25b6e)" d="M 268.625455 307.584 
L 271.872001 307.584 
L 271.872001 238.742361 
L 268.625455 238.742361 
z
" style="fill:#1f77b4;"/>
   </g>
   <g id="patch_64">
    <path clip-path="url(#p0aabf25b6e)" d="M 271.872001 307.584 
L 275.118547 307.584 
L 275.118547 238.915766 
L 271.872001 238.915766 
z
" style="fill:#1f77b4;"/>
   </g>
   <g id="patch_65">
    <path clip-path="url(#p0aabf25b6e)" d="M 275.118547 307.584 
L 278.365089 307.584 
L 278.365089 247.759336 
L 275.118547 247.759336 
z
" style="fill:#1f77b4;"/>
   </g>
   <g id="patch_66">
    <path clip-path="url(#p0aabf25b6e)" d="M 278.365089 307.584 
L 281.611636 307.584 
L 281.611636 255.215801 
L 278.365089 255.215801 
z
" style="fill:#1f77b4;"/>
   </g>
   <g id="patch_67">
    <path clip-path="url(#p0aabf25b6e)" d="M 281.611636 307.584 
L 284.858182 307.584 
L 284.858182 261.978582 
L 281.611636 261.978582 
z
" style="fill:#1f77b4;"/>
   </g>
   <g id="patch_68">
    <path clip-path="url(#p0aabf25b6e)" d="M 284.858182 307.584 
L 288.104728 307.584 
L 288.104728 257.990275 
L 284.858182 257.990275 
z
" style="fill:#1f77b4;"/>
   </g>
   <g id="patch_69">
    <path clip-path="url(#p0aabf25b6e)" d="M 288.104724 307.584 
L 291.351263 307.584 
L 291.351263 260.591293 
L 288.104724 260.591293 
z
" style="fill:#1f77b4;"/>
   </g>
   <g id="patch_70">
    <path clip-path="url(#p0aabf25b6e)" d="M 291.351271 307.584 
L 294.597817 307.584 
L 294.597817 265.099865 
L 291.351271 265.099865 
z
" style="fill:#1f77b4;"/>
   </g>
   <g id="patch_71">
    <path clip-path="url(#p0aabf25b6e)" d="M 294.597817 307.584 
L 297.844363 307.584 
L 297.844363 272.38286 
L 294.597817 272.38286 
z
" style="fill:#1f77b4;"/>
   </g>
   <g id="patch_72">
    <path clip-path="url(#p0aabf25b6e)" d="M 297.844363 307.584 
L 301.090909 307.584 
L 301.090909 276.371166 
L 297.844363 276.371166 
z
" style="fill:#1f77b4;"/>
   </g>
   <g id="patch_73">
    <path clip-path="url(#p0aabf25b6e)" d="M 301.090909 307.584 
L 304.337455 307.584 
L 304.337455 274.116906 
L 301.090909 274.116906 
z
" style="fill:#1f77b4;"/>
   </g>
   <g id="patch_74">
    <path clip-path="url(#p0aabf25b6e)" d="M 304.337455 307.584 
L 307.584001 307.584 
L 307.584001 276.717976 
L 304.337455 276.717976 
z
" style="fill:#1f77b4;"/>
   </g>
   <g id="patch_75">
    <path clip-path="url(#p0aabf25b6e)" d="M 307.584001 307.584 
L 310.830548 307.584 
L 310.830548 283.133947 
L 307.584001 283.133947 
z
" style="fill:#1f77b4;"/>
   </g>
   <g id="patch_76">
    <path clip-path="url(#p0aabf25b6e)" d="M 310.830548 307.584 
L 314.077094 307.584 
L 314.077094 274.116906 
L 310.830548 274.116906 
z
" style="fill:#1f77b4;"/>
   </g>
   <g id="patch_77">
    <path clip-path="url(#p0aabf25b6e)" d="M 314.077101 307.584 
L 317.32364 307.584 
L 317.32364 274.810452 
L 314.077101 274.810452 
z
" style="fill:#1f77b4;"/>
   </g>
   <g id="patch_78">
    <path clip-path="url(#p0aabf25b6e)" d="M 317.323633 307.584 
L 320.570179 307.584 
L 320.570179 283.654161 
L 317.323633 283.654161 
z
" style="fill:#1f77b4;"/>
   </g>
   <g id="patch_79">
    <path clip-path="url(#p0aabf25b6e)" d="M 320.570179 307.584 
L 323.816725 307.584 
L 323.816725 284.694589 
L 320.570179 284.694589 
z
" style="fill:#1f77b4;"/>
   </g>
   <g id="patch_80">
    <path clip-path="url(#p0aabf25b6e)" d="M 323.816725 307.584 
L 327.063271 307.584 
L 327.063271 289.896728 
L 323.816725 289.896728 
z
" style="fill:#1f77b4;"/>
   </g>
   <g id="patch_81">
    <path clip-path="url(#p0aabf25b6e)" d="M 327.063271 307.584 
L 330.309817 307.584 
L 330.309817 288.336086 
L 327.063271 288.336086 
z
" style="fill:#1f77b4;"/>
   </g>
   <g id="patch_82">
    <path clip-path="url(#p0aabf25b6e)" d="M 330.309817 307.584 
L 333.556364 307.584 
L 333.556364 290.937155 
L 330.309817 290.937155 
z
" style="fill:#1f77b4;"/>
   </g>
   <g id="patch_83">
    <path clip-path="url(#p0aabf25b6e)" d="M 333.556364 307.584 
L 336.80291 307.584 
L 336.80291 292.150988 
L 333.556364 292.150988 
z
" style="fill:#1f77b4;"/>
   </g>
   <g id="patch_84">
    <path clip-path="url(#p0aabf25b6e)" d="M 336.80291 307.584 
L 340.049456 307.584 
L 340.049456 292.324392 
L 336.80291 292.324392 
z
" style="fill:#1f77b4;"/>
   </g>
   <g id="patch_85">
    <path clip-path="url(#p0aabf25b6e)" d="M 340.049456 307.584 
L 343.296002 307.584 
L 343.296002 292.324392 
L 340.049456 292.324392 
z
" style="fill:#1f77b4;"/>
   </g>
   <g id="patch_86">
    <path clip-path="url(#p0aabf25b6e)" d="M 343.296002 307.584 
L 346.542548 307.584 
L 346.542548 294.578653 
L 343.296002 294.578653 
z
" style="fill:#1f77b4;"/>
   </g>
   <g id="patch_87">
    <path clip-path="url(#p0aabf25b6e)" d="M 346.542548 307.584 
L 349.789095 307.584 
L 349.789095 295.272271 
L 346.542548 295.272271 
z
" style="fill:#1f77b4;"/>
   </g>
   <g id="patch_88">
    <path clip-path="url(#p0aabf25b6e)" d="M 349.789102 307.584 
L 353.035641 307.584 
L 353.035641 297.526531 
L 349.789102 297.526531 
z
" style="fill:#1f77b4;"/>
   </g>
   <g id="patch_89">
    <path clip-path="url(#p0aabf25b6e)" d="M 353.035641 307.584 
L 356.282187 307.584 
L 356.282187 300.127601 
L 353.035641 300.127601 
z
" style="fill:#1f77b4;"/>
   </g>
   <g id="patch_90">
    <path clip-path="url(#p0aabf25b6e)" d="M 356.282201 307.584 
L 359.528747 307.584 
L 359.528747 299.607387 
L 356.282201 299.607387 
z
" style="fill:#1f77b4;"/>
   </g>
   <g id="patch_91">
    <path clip-path="url(#p0aabf25b6e)" d="M 359.528733 307.584 
L 362.775279 307.584 
L 362.775279 300.994624 
L 359.528733 300.994624 
z
" style="fill:#1f77b4;"/>
   </g>
   <g id="patch_92">
    <path clip-path="url(#p0aabf25b6e)" d="M 362.775294 307.584 
L 366.02184 307.584 
L 366.02184 302.555266 
L 362.775294 302.555266 
z
" style="fill:#1f77b4;"/>
   </g>
   <g id="patch_93">
    <path clip-path="url(#p0aabf25b6e)" d="M 366.021825 307.584 
L 369.268357 307.584 
L 369.268357 304.115892 
L 366.021825 304.115892 
z
" style="fill:#1f77b4;"/>
   </g>
   <g id="patch_94">
    <path clip-path="url(#p0aabf25b6e)" d="M 369.268357 307.584 
L 372.514903 307.584 
L 372.514903 304.809526 
L 369.268357 304.809526 
z
" style="fill:#1f77b4;"/>
   </g>
   <g id="patch_95">
    <path clip-path="url(#p0aabf25b6e)" d="M 372.514918 307.584 
L 375.761464 307.584 
L 375.761464 304.636121 
L 372.514918 304.636121 
z
" style="fill:#1f77b4;"/>
   </g>
   <g id="patch_96">
    <path clip-path="url(#p0aabf25b6e)" d="M 375.76145 307.584 
L 379.007996 307.584 
L 379.007996 303.942503 
L 375.76145 303.942503 
z
" style="fill:#1f77b4;"/>
   </g>
   <g id="patch_97">
    <path clip-path="url(#p0aabf25b6e)" d="M 379.00801 307.584 
L 382.254556 307.584 
L 382.254556 304.115907 
L 379.00801 304.115907 
z
" style="fill:#1f77b4;"/>
   </g>
   <g id="patch_98">
    <path clip-path="url(#p0aabf25b6e)" d="M 382.254542 307.584 
L 385.501088 307.584 
L 385.501088 305.676549 
L 382.254542 305.676549 
z
" style="fill:#1f77b4;"/>
   </g>
   <g id="patch_99">
    <path clip-path="url(#p0aabf25b6e)" d="M 385.501102 307.584 
L 388.747649 307.584 
L 388.747649 305.503144 
L 385.501102 305.503144 
z
" style="fill:#1f77b4;"/>
   </g>
   <g id="patch_100">
    <path clip-path="url(#p0aabf25b6e)" d="M 388.747634 307.584 
L 391.99418 307.584 
L 391.99418 305.32974 
L 388.747634 305.32974 
z
" style="fill:#1f77b4;"/>
   </g>
   <g id="patch_101">
    <path clip-path="url(#p0aabf25b6e)" d="M 391.994195 307.584 
L 395.240741 307.584 
L 395.240741 306.890381 
L 391.994195 306.890381 
z
" style="fill:#1f77b4;"/>
   </g>
   <g id="patch_102">
    <path clip-path="url(#p0aabf25b6e)" d="M 395.240727 307.584 
L 398.487273 307.584 
L 398.487273 307.410595 
L 395.240727 307.410595 
z
" style="fill:#1f77b4;"/>
   </g>
   <g id="matplotlib.axis_1">
    <g id="xtick_1">
     <g id="line2d_1">
      <defs>
       <path d="M 0 0 
L 0 3.5 
" id="m38f93484b7" style="stroke:#000000;stroke-width:0.8;"/>
      </defs>
      <g>
       <use style="stroke:#000000;stroke-width:0.8;" x="109.618512" xlink:href="#m38f93484b7" y="307.584"/>
      </g>
     </g>
     <g id="text_1">
      <!-- −2 -->
      <defs>
       <path d="M 10.59375 35.5 
L 73.1875 35.5 
L 73.1875 27.203125 
L 10.59375 27.203125 
z
" id="DejaVuSans-8722"/>
       <path d="M 19.1875 8.296875 
L 53.609375 8.296875 
L 53.609375 0 
L 7.328125 0 
L 7.328125 8.296875 
Q 12.9375 14.109375 22.625 23.890625 
Q 32.328125 33.6875 34.8125 36.53125 
Q 39.546875 41.84375 41.421875 45.53125 
Q 43.3125 49.21875 43.3125 52.78125 
Q 43.3125 58.59375 39.234375 62.25 
Q 35.15625 65.921875 28.609375 65.921875 
Q 23.96875 65.921875 18.8125 64.3125 
Q 13.671875 62.703125 7.8125 59.421875 
L 7.8125 69.390625 
Q 13.765625 71.78125 18.9375 73 
Q 24.125 74.21875 28.421875 74.21875 
Q 39.75 74.21875 46.484375 68.546875 
Q 53.21875 62.890625 53.21875 53.421875 
Q 53.21875 48.921875 51.53125 44.890625 
Q 49.859375 40.875 45.40625 35.40625 
Q 44.1875 33.984375 37.640625 27.21875 
Q 31.109375 20.453125 19.1875 8.296875 
z
" id="DejaVuSans-50"/>
      </defs>
      <g transform="translate(97.087653 327.501344)scale(0.17 -0.17)">
       <use xlink:href="#DejaVuSans-8722"/>
       <use x="83.789062" xlink:href="#DejaVuSans-50"/>
      </g>
     </g>
    </g>
    <g id="xtick_2">
     <g id="line2d_2">
      <g>
       <use style="stroke:#000000;stroke-width:0.8;" x="170.021204" xlink:href="#m38f93484b7" y="307.584"/>
      </g>
     </g>
     <g id="text_2">
      <!-- −1 -->
      <defs>
       <path d="M 12.40625 8.296875 
L 28.515625 8.296875 
L 28.515625 63.921875 
L 10.984375 60.40625 
L 10.984375 69.390625 
L 28.421875 72.90625 
L 38.28125 72.90625 
L 38.28125 8.296875 
L 54.390625 8.296875 
L 54.390625 0 
L 12.40625 0 
z
" id="DejaVuSans-49"/>
      </defs>
      <g transform="translate(157.490344 327.501344)scale(0.17 -0.17)">
       <use xlink:href="#DejaVuSans-8722"/>
       <use x="83.789062" xlink:href="#DejaVuSans-49"/>
      </g>
     </g>
    </g>
    <g id="xtick_3">
     <g id="line2d_3">
      <g>
       <use style="stroke:#000000;stroke-width:0.8;" x="230.423896" xlink:href="#m38f93484b7" y="307.584"/>
      </g>
     </g>
     <g id="text_3">
      <!-- 0 -->
      <defs>
       <path d="M 31.78125 66.40625 
Q 24.171875 66.40625 20.328125 58.90625 
Q 16.5 51.421875 16.5 36.375 
Q 16.5 21.390625 20.328125 13.890625 
Q 24.171875 6.390625 31.78125 6.390625 
Q 39.453125 6.390625 43.28125 13.890625 
Q 47.125 21.390625 47.125 36.375 
Q 47.125 51.421875 43.28125 58.90625 
Q 39.453125 66.40625 31.78125 66.40625 
z
M 31.78125 74.21875 
Q 44.046875 74.21875 50.515625 64.515625 
Q 56.984375 54.828125 56.984375 36.375 
Q 56.984375 17.96875 50.515625 8.265625 
Q 44.046875 -1.421875 31.78125 -1.421875 
Q 19.53125 -1.421875 13.0625 8.265625 
Q 6.59375 17.96875 6.59375 36.375 
Q 6.59375 54.828125 13.0625 64.515625 
Q 19.53125 74.21875 31.78125 74.21875 
z
" id="DejaVuSans-48"/>
      </defs>
      <g transform="translate(225.015771 327.501344)scale(0.17 -0.17)">
       <use xlink:href="#DejaVuSans-48"/>
      </g>
     </g>
    </g>
    <g id="xtick_4">
     <g id="line2d_4">
      <g>
       <use style="stroke:#000000;stroke-width:0.8;" x="290.826587" xlink:href="#m38f93484b7" y="307.584"/>
      </g>
     </g>
     <g id="text_4">
      <!-- 1 -->
      <g transform="translate(285.418462 327.501344)scale(0.17 -0.17)">
       <use xlink:href="#DejaVuSans-49"/>
      </g>
     </g>
    </g>
    <g id="xtick_5">
     <g id="line2d_5">
      <g>
       <use style="stroke:#000000;stroke-width:0.8;" x="351.229279" xlink:href="#m38f93484b7" y="307.584"/>
      </g>
     </g>
     <g id="text_5">
      <!-- 2 -->
      <g transform="translate(345.821154 327.501344)scale(0.17 -0.17)">
       <use xlink:href="#DejaVuSans-50"/>
      </g>
     </g>
    </g>
    <g id="xtick_6">
     <g id="line2d_6">
      <g>
       <use style="stroke:#000000;stroke-width:0.8;" x="411.631971" xlink:href="#m38f93484b7" y="307.584"/>
      </g>
     </g>
     <g id="text_6">
      <!-- 3 -->
      <defs>
       <path d="M 40.578125 39.3125 
Q 47.65625 37.796875 51.625 33 
Q 55.609375 28.21875 55.609375 21.1875 
Q 55.609375 10.40625 48.1875 4.484375 
Q 40.765625 -1.421875 27.09375 -1.421875 
Q 22.515625 -1.421875 17.65625 -0.515625 
Q 12.796875 0.390625 7.625 2.203125 
L 7.625 11.71875 
Q 11.71875 9.328125 16.59375 8.109375 
Q 21.484375 6.890625 26.8125 6.890625 
Q 36.078125 6.890625 40.9375 10.546875 
Q 45.796875 14.203125 45.796875 21.1875 
Q 45.796875 27.640625 41.28125 31.265625 
Q 36.765625 34.90625 28.71875 34.90625 
L 20.21875 34.90625 
L 20.21875 43.015625 
L 29.109375 43.015625 
Q 36.375 43.015625 40.234375 45.921875 
Q 44.09375 48.828125 44.09375 54.296875 
Q 44.09375 59.90625 40.109375 62.90625 
Q 36.140625 65.921875 28.71875 65.921875 
Q 24.65625 65.921875 20.015625 65.03125 
Q 15.375 64.15625 9.8125 62.3125 
L 9.8125 71.09375 
Q 15.4375 72.65625 20.34375 73.4375 
Q 25.25 74.21875 29.59375 74.21875 
Q 40.828125 74.21875 47.359375 69.109375 
Q 53.90625 64.015625 53.90625 55.328125 
Q 53.90625 49.265625 50.4375 45.09375 
Q 46.96875 40.921875 40.578125 39.3125 
z
" id="DejaVuSans-51"/>
      </defs>
      <g transform="translate(406.223846 327.501344)scale(0.17 -0.17)">
       <use xlink:href="#DejaVuSans-51"/>
      </g>
     </g>
    </g>
    <g id="text_7">
     <!-- Position in Radian -->
     <defs>
      <path d="M 19.671875 64.796875 
L 19.671875 37.40625 
L 32.078125 37.40625 
Q 38.96875 37.40625 42.71875 40.96875 
Q 46.484375 44.53125 46.484375 51.125 
Q 46.484375 57.671875 42.71875 61.234375 
Q 38.96875 64.796875 32.078125 64.796875 
z
M 9.8125 72.90625 
L 32.078125 72.90625 
Q 44.34375 72.90625 50.609375 67.359375 
Q 56.890625 61.8125 56.890625 51.125 
Q 56.890625 40.328125 50.609375 34.8125 
Q 44.34375 29.296875 32.078125 29.296875 
L 19.671875 29.296875 
L 19.671875 0 
L 9.8125 0 
z
" id="DejaVuSans-80"/>
      <path d="M 30.609375 48.390625 
Q 23.390625 48.390625 19.1875 42.75 
Q 14.984375 37.109375 14.984375 27.296875 
Q 14.984375 17.484375 19.15625 11.84375 
Q 23.34375 6.203125 30.609375 6.203125 
Q 37.796875 6.203125 41.984375 11.859375 
Q 46.1875 17.53125 46.1875 27.296875 
Q 46.1875 37.015625 41.984375 42.703125 
Q 37.796875 48.390625 30.609375 48.390625 
z
M 30.609375 56 
Q 42.328125 56 49.015625 48.375 
Q 55.71875 40.765625 55.71875 27.296875 
Q 55.71875 13.875 49.015625 6.21875 
Q 42.328125 -1.421875 30.609375 -1.421875 
Q 18.84375 -1.421875 12.171875 6.21875 
Q 5.515625 13.875 5.515625 27.296875 
Q 5.515625 40.765625 12.171875 48.375 
Q 18.84375 56 30.609375 56 
z
" id="DejaVuSans-111"/>
      <path d="M 44.28125 53.078125 
L 44.28125 44.578125 
Q 40.484375 46.53125 36.375 47.5 
Q 32.28125 48.484375 27.875 48.484375 
Q 21.1875 48.484375 17.84375 46.4375 
Q 14.5 44.390625 14.5 40.28125 
Q 14.5 37.15625 16.890625 35.375 
Q 19.28125 33.59375 26.515625 31.984375 
L 29.59375 31.296875 
Q 39.15625 29.25 43.1875 25.515625 
Q 47.21875 21.78125 47.21875 15.09375 
Q 47.21875 7.46875 41.1875 3.015625 
Q 35.15625 -1.421875 24.609375 -1.421875 
Q 20.21875 -1.421875 15.453125 -0.5625 
Q 10.6875 0.296875 5.421875 2 
L 5.421875 11.28125 
Q 10.40625 8.6875 15.234375 7.390625 
Q 20.0625 6.109375 24.8125 6.109375 
Q 31.15625 6.109375 34.5625 8.28125 
Q 37.984375 10.453125 37.984375 14.40625 
Q 37.984375 18.0625 35.515625 20.015625 
Q 33.0625 21.96875 24.703125 23.78125 
L 21.578125 24.515625 
Q 13.234375 26.265625 9.515625 29.90625 
Q 5.8125 33.546875 5.8125 39.890625 
Q 5.8125 47.609375 11.28125 51.796875 
Q 16.75 56 26.8125 56 
Q 31.78125 56 36.171875 55.265625 
Q 40.578125 54.546875 44.28125 53.078125 
z
" id="DejaVuSans-115"/>
      <path d="M 9.421875 54.6875 
L 18.40625 54.6875 
L 18.40625 0 
L 9.421875 0 
z
M 9.421875 75.984375 
L 18.40625 75.984375 
L 18.40625 64.59375 
L 9.421875 64.59375 
z
" id="DejaVuSans-105"/>
      <path d="M 18.3125 70.21875 
L 18.3125 54.6875 
L 36.8125 54.6875 
L 36.8125 47.703125 
L 18.3125 47.703125 
L 18.3125 18.015625 
Q 18.3125 11.328125 20.140625 9.421875 
Q 21.96875 7.515625 27.59375 7.515625 
L 36.8125 7.515625 
L 36.8125 0 
L 27.59375 0 
Q 17.1875 0 13.234375 3.875 
Q 9.28125 7.765625 9.28125 18.015625 
L 9.28125 47.703125 
L 2.6875 47.703125 
L 2.6875 54.6875 
L 9.28125 54.6875 
L 9.28125 70.21875 
z
" id="DejaVuSans-116"/>
      <path d="M 54.890625 33.015625 
L 54.890625 0 
L 45.90625 0 
L 45.90625 32.71875 
Q 45.90625 40.484375 42.875 44.328125 
Q 39.84375 48.1875 33.796875 48.1875 
Q 26.515625 48.1875 22.3125 43.546875 
Q 18.109375 38.921875 18.109375 30.90625 
L 18.109375 0 
L 9.078125 0 
L 9.078125 54.6875 
L 18.109375 54.6875 
L 18.109375 46.1875 
Q 21.34375 51.125 25.703125 53.5625 
Q 30.078125 56 35.796875 56 
Q 45.21875 56 50.046875 50.171875 
Q 54.890625 44.34375 54.890625 33.015625 
z
" id="DejaVuSans-110"/>
      <path id="DejaVuSans-32"/>
      <path d="M 44.390625 34.1875 
Q 47.5625 33.109375 50.5625 29.59375 
Q 53.5625 26.078125 56.59375 19.921875 
L 66.609375 0 
L 56 0 
L 46.6875 18.703125 
Q 43.0625 26.03125 39.671875 28.421875 
Q 36.28125 30.8125 30.421875 30.8125 
L 19.671875 30.8125 
L 19.671875 0 
L 9.8125 0 
L 9.8125 72.90625 
L 32.078125 72.90625 
Q 44.578125 72.90625 50.734375 67.671875 
Q 56.890625 62.453125 56.890625 51.90625 
Q 56.890625 45.015625 53.6875 40.46875 
Q 50.484375 35.9375 44.390625 34.1875 
z
M 19.671875 64.796875 
L 19.671875 38.921875 
L 32.078125 38.921875 
Q 39.203125 38.921875 42.84375 42.21875 
Q 46.484375 45.515625 46.484375 51.90625 
Q 46.484375 58.296875 42.84375 61.546875 
Q 39.203125 64.796875 32.078125 64.796875 
z
" id="DejaVuSans-82"/>
      <path d="M 34.28125 27.484375 
Q 23.390625 27.484375 19.1875 25 
Q 14.984375 22.515625 14.984375 16.5 
Q 14.984375 11.71875 18.140625 8.90625 
Q 21.296875 6.109375 26.703125 6.109375 
Q 34.1875 6.109375 38.703125 11.40625 
Q 43.21875 16.703125 43.21875 25.484375 
L 43.21875 27.484375 
z
M 52.203125 31.203125 
L 52.203125 0 
L 43.21875 0 
L 43.21875 8.296875 
Q 40.140625 3.328125 35.546875 0.953125 
Q 30.953125 -1.421875 24.3125 -1.421875 
Q 15.921875 -1.421875 10.953125 3.296875 
Q 6 8.015625 6 15.921875 
Q 6 25.140625 12.171875 29.828125 
Q 18.359375 34.515625 30.609375 34.515625 
L 43.21875 34.515625 
L 43.21875 35.40625 
Q 43.21875 41.609375 39.140625 45 
Q 35.0625 48.390625 27.6875 48.390625 
Q 23 48.390625 18.546875 47.265625 
Q 14.109375 46.140625 10.015625 43.890625 
L 10.015625 52.203125 
Q 14.9375 54.109375 19.578125 55.046875 
Q 24.21875 56 28.609375 56 
Q 40.484375 56 46.34375 49.84375 
Q 52.203125 43.703125 52.203125 31.203125 
z
" id="DejaVuSans-97"/>
      <path d="M 45.40625 46.390625 
L 45.40625 75.984375 
L 54.390625 75.984375 
L 54.390625 0 
L 45.40625 0 
L 45.40625 8.203125 
Q 42.578125 3.328125 38.25 0.953125 
Q 33.9375 -1.421875 27.875 -1.421875 
Q 17.96875 -1.421875 11.734375 6.484375 
Q 5.515625 14.40625 5.515625 27.296875 
Q 5.515625 40.1875 11.734375 48.09375 
Q 17.96875 56 27.875 56 
Q 33.9375 56 38.25 53.625 
Q 42.578125 51.265625 45.40625 46.390625 
z
M 14.796875 27.296875 
Q 14.796875 17.390625 18.875 11.75 
Q 22.953125 6.109375 30.078125 6.109375 
Q 37.203125 6.109375 41.296875 11.75 
Q 45.40625 17.390625 45.40625 27.296875 
Q 45.40625 37.203125 41.296875 42.84375 
Q 37.203125 48.484375 30.078125 48.484375 
Q 22.953125 48.484375 18.875 42.84375 
Q 14.796875 37.203125 14.796875 27.296875 
z
" id="DejaVuSans-100"/>
     </defs>
     <g transform="translate(102.024844 357.832125)scale(0.3 -0.3)">
      <use xlink:href="#DejaVuSans-80"/>
      <use x="60.255859" xlink:href="#DejaVuSans-111"/>
      <use x="121.4375" xlink:href="#DejaVuSans-115"/>
      <use x="173.537109" xlink:href="#DejaVuSans-105"/>
      <use x="201.320312" xlink:href="#DejaVuSans-116"/>
      <use x="240.529297" xlink:href="#DejaVuSans-105"/>
      <use x="268.3125" xlink:href="#DejaVuSans-111"/>
      <use x="329.494141" xlink:href="#DejaVuSans-110"/>
      <use x="392.873047" xlink:href="#DejaVuSans-32"/>
      <use x="424.660156" xlink:href="#DejaVuSans-105"/>
      <use x="452.443359" xlink:href="#DejaVuSans-110"/>
      <use x="515.822266" xlink:href="#DejaVuSans-32"/>
      <use x="547.609375" xlink:href="#DejaVuSans-82"/>
      <use x="617.060547" xlink:href="#DejaVuSans-97"/>
      <use x="678.339844" xlink:href="#DejaVuSans-100"/>
      <use x="741.816406" xlink:href="#DejaVuSans-105"/>
      <use x="769.599609" xlink:href="#DejaVuSans-97"/>
      <use x="830.878906" xlink:href="#DejaVuSans-110"/>
     </g>
    </g>
   </g>
   <g id="matplotlib.axis_2">
    <g id="ytick_1">
     <g id="line2d_7">
      <defs>
       <path d="M 0 0 
L -3.5 0 
" id="ma1e49b52db" style="stroke:#000000;stroke-width:0.8;"/>
      </defs>
      <g>
       <use style="stroke:#000000;stroke-width:0.8;" x="57.6" xlink:href="#ma1e49b52db" y="307.584"/>
      </g>
     </g>
     <g id="text_8">
      <!-- 0.00 -->
      <defs>
       <path d="M 10.6875 12.40625 
L 21 12.40625 
L 21 0 
L 10.6875 0 
z
" id="DejaVuSans-46"/>
      </defs>
      <g transform="translate(12.748438 314.042672)scale(0.17 -0.17)">
       <use xlink:href="#DejaVuSans-48"/>
       <use x="63.623047" xlink:href="#DejaVuSans-46"/>
       <use x="95.410156" xlink:href="#DejaVuSans-48"/>
       <use x="159.033203" xlink:href="#DejaVuSans-48"/>
      </g>
     </g>
    </g>
    <g id="ytick_2">
     <g id="line2d_8">
      <g>
       <use style="stroke:#000000;stroke-width:0.8;" x="57.6" xlink:href="#ma1e49b52db" y="260.982919"/>
      </g>
     </g>
     <g id="text_9">
      <!-- 0.25 -->
      <defs>
       <path d="M 10.796875 72.90625 
L 49.515625 72.90625 
L 49.515625 64.59375 
L 19.828125 64.59375 
L 19.828125 46.734375 
Q 21.96875 47.46875 24.109375 47.828125 
Q 26.265625 48.1875 28.421875 48.1875 
Q 40.625 48.1875 47.75 41.5 
Q 54.890625 34.8125 54.890625 23.390625 
Q 54.890625 11.625 47.5625 5.09375 
Q 40.234375 -1.421875 26.90625 -1.421875 
Q 22.3125 -1.421875 17.546875 -0.640625 
Q 12.796875 0.140625 7.71875 1.703125 
L 7.71875 11.625 
Q 12.109375 9.234375 16.796875 8.0625 
Q 21.484375 6.890625 26.703125 6.890625 
Q 35.15625 6.890625 40.078125 11.328125 
Q 45.015625 15.765625 45.015625 23.390625 
Q 45.015625 31 40.078125 35.4375 
Q 35.15625 39.890625 26.703125 39.890625 
Q 22.75 39.890625 18.8125 39.015625 
Q 14.890625 38.140625 10.796875 36.28125 
z
" id="DejaVuSans-53"/>
      </defs>
      <g transform="translate(12.748438 267.441591)scale(0.17 -0.17)">
       <use xlink:href="#DejaVuSans-48"/>
       <use x="63.623047" xlink:href="#DejaVuSans-46"/>
       <use x="95.410156" xlink:href="#DejaVuSans-50"/>
       <use x="159.033203" xlink:href="#DejaVuSans-53"/>
      </g>
     </g>
    </g>
    <g id="ytick_3">
     <g id="line2d_9">
      <g>
       <use style="stroke:#000000;stroke-width:0.8;" x="57.6" xlink:href="#ma1e49b52db" y="214.381839"/>
      </g>
     </g>
     <g id="text_10">
      <!-- 0.50 -->
      <g transform="translate(12.748438 220.84051)scale(0.17 -0.17)">
       <use xlink:href="#DejaVuSans-48"/>
       <use x="63.623047" xlink:href="#DejaVuSans-46"/>
       <use x="95.410156" xlink:href="#DejaVuSans-53"/>
       <use x="159.033203" xlink:href="#DejaVuSans-48"/>
      </g>
     </g>
    </g>
    <g id="ytick_4">
     <g id="line2d_10">
      <g>
       <use style="stroke:#000000;stroke-width:0.8;" x="57.6" xlink:href="#ma1e49b52db" y="167.780758"/>
      </g>
     </g>
     <g id="text_11">
      <!-- 0.75 -->
      <defs>
       <path d="M 8.203125 72.90625 
L 55.078125 72.90625 
L 55.078125 68.703125 
L 28.609375 0 
L 18.3125 0 
L 43.21875 64.59375 
L 8.203125 64.59375 
z
" id="DejaVuSans-55"/>
      </defs>
      <g transform="translate(12.748438 174.23943)scale(0.17 -0.17)">
       <use xlink:href="#DejaVuSans-48"/>
       <use x="63.623047" xlink:href="#DejaVuSans-46"/>
       <use x="95.410156" xlink:href="#DejaVuSans-55"/>
       <use x="159.033203" xlink:href="#DejaVuSans-53"/>
      </g>
     </g>
    </g>
    <g id="ytick_5">
     <g id="line2d_11">
      <g>
       <use style="stroke:#000000;stroke-width:0.8;" x="57.6" xlink:href="#ma1e49b52db" y="121.179677"/>
      </g>
     </g>
     <g id="text_12">
      <!-- 1.00 -->
      <g transform="translate(12.748438 127.638349)scale(0.17 -0.17)">
       <use xlink:href="#DejaVuSans-49"/>
       <use x="63.623047" xlink:href="#DejaVuSans-46"/>
       <use x="95.410156" xlink:href="#DejaVuSans-48"/>
       <use x="159.033203" xlink:href="#DejaVuSans-48"/>
      </g>
     </g>
    </g>
    <g id="ytick_6">
     <g id="line2d_12">
      <g>
       <use style="stroke:#000000;stroke-width:0.8;" x="57.6" xlink:href="#ma1e49b52db" y="74.578597"/>
      </g>
     </g>
     <g id="text_13">
      <!-- 1.25 -->
      <g transform="translate(12.748438 81.037268)scale(0.17 -0.17)">
       <use xlink:href="#DejaVuSans-49"/>
       <use x="63.623047" xlink:href="#DejaVuSans-46"/>
       <use x="95.410156" xlink:href="#DejaVuSans-50"/>
       <use x="159.033203" xlink:href="#DejaVuSans-53"/>
      </g>
     </g>
    </g>
    <g id="text_14">
     <!-- Density -->
     <defs>
      <path d="M 19.671875 64.796875 
L 19.671875 8.109375 
L 31.59375 8.109375 
Q 46.6875 8.109375 53.6875 14.9375 
Q 60.6875 21.78125 60.6875 36.53125 
Q 60.6875 51.171875 53.6875 57.984375 
Q 46.6875 64.796875 31.59375 64.796875 
z
M 9.8125 72.90625 
L 30.078125 72.90625 
Q 51.265625 72.90625 61.171875 64.09375 
Q 71.09375 55.28125 71.09375 36.53125 
Q 71.09375 17.671875 61.125 8.828125 
Q 51.171875 0 30.078125 0 
L 9.8125 0 
z
" id="DejaVuSans-68"/>
      <path d="M 56.203125 29.59375 
L 56.203125 25.203125 
L 14.890625 25.203125 
Q 15.484375 15.921875 20.484375 11.0625 
Q 25.484375 6.203125 34.421875 6.203125 
Q 39.59375 6.203125 44.453125 7.46875 
Q 49.3125 8.734375 54.109375 11.28125 
L 54.109375 2.78125 
Q 49.265625 0.734375 44.1875 -0.34375 
Q 39.109375 -1.421875 33.890625 -1.421875 
Q 20.796875 -1.421875 13.15625 6.1875 
Q 5.515625 13.8125 5.515625 26.8125 
Q 5.515625 40.234375 12.765625 48.109375 
Q 20.015625 56 32.328125 56 
Q 43.359375 56 49.78125 48.890625 
Q 56.203125 41.796875 56.203125 29.59375 
z
M 47.21875 32.234375 
Q 47.125 39.59375 43.09375 43.984375 
Q 39.0625 48.390625 32.421875 48.390625 
Q 24.90625 48.390625 20.390625 44.140625 
Q 15.875 39.890625 15.1875 32.171875 
z
" id="DejaVuSans-101"/>
      <path d="M 32.171875 -5.078125 
Q 28.375 -14.84375 24.75 -17.8125 
Q 21.140625 -20.796875 15.09375 -20.796875 
L 7.90625 -20.796875 
L 7.90625 -13.28125 
L 13.1875 -13.28125 
Q 16.890625 -13.28125 18.9375 -11.515625 
Q 21 -9.765625 23.484375 -3.21875 
L 25.09375 0.875 
L 2.984375 54.6875 
L 12.5 54.6875 
L 29.59375 11.921875 
L 46.6875 54.6875 
L 56.203125 54.6875 
z
" id="DejaVuSans-121"/>
     </defs>
     <g transform="translate(2.509375 231.553781)rotate(-90)scale(0.3 -0.3)">
      <use xlink:href="#DejaVuSans-68"/>
      <use x="77.001953" xlink:href="#DejaVuSans-101"/>
      <use x="138.525391" xlink:href="#DejaVuSans-110"/>
      <use x="201.904297" xlink:href="#DejaVuSans-115"/>
      <use x="254.003906" xlink:href="#DejaVuSans-105"/>
      <use x="281.787109" xlink:href="#DejaVuSans-116"/>
      <use x="320.996094" xlink:href="#DejaVuSans-121"/>
     </g>
    </g>
   </g>
   <g id="line2d_13">
    <path clip-path="url(#p0aabf25b6e)" d="M 79.417166 307.427928 
L 79.885287 307.134149 
L 80.85173 306.463263 
L 81.380254 306.458324 
L 82.233442 306.444917 
L 82.784616 306.473987 
L 83.403744 306.822602 
L 83.788811 306.882316 
L 84.181429 306.689933 
L 84.823207 306.38757 
L 85.238476 306.475089 
L 85.948207 306.639574 
L 86.997704 306.594447 
L 88.0321 307.119556 
L 88.500221 306.953143 
L 89.126899 306.48042 
L 89.678074 306.13488 
L 89.980087 306.203695 
L 90.553913 306.659271 
L 91.022033 306.854674 
L 94.07992 307.240455 
L 94.472537 306.985639 
L 95.355927 306.33153 
L 95.808947 306.375427 
L 97.726732 306.705035 
L 98.096699 306.443688 
L 99.138645 305.545015 
L 99.425558 305.706667 
L 100.225894 306.280886 
L 100.550558 306.141189 
L 102.105927 305.193274 
L 103.06482 304.725801 
L 103.404585 304.690638 
L 103.691498 304.908501 
L 104.786297 305.9966 
L 105.07321 305.848127 
L 105.458277 305.360278 
L 106.228411 304.352888 
L 106.553076 304.312844 
L 108.131096 304.706916 
L 109.157942 305.682975 
L 109.369351 305.414555 
L 109.656264 304.620627 
L 110.720861 301.251069 
L 110.91717 301.278836 
L 111.181432 301.601213 
L 111.747707 302.74545 
L 112.638647 304.464651 
L 112.93311 304.617799 
L 113.16717 304.493546 
L 113.469184 304.036178 
L 114.480929 302.286612 
L 114.692338 302.35912 
L 114.96415 302.742211 
L 115.870191 304.220989 
L 116.104251 304.168202 
L 116.413815 303.822235 
L 117.063144 302.67148 
L 118.037137 300.9513 
L 118.263647 300.964103 
L 118.512809 301.236945 
L 118.973379 302.159359 
L 119.471701 302.973294 
L 119.705762 303.01764 
L 119.924721 302.803084 
L 120.279587 302.058134 
L 120.808111 301.053784 
L 121.057272 300.979225 
L 121.321534 301.160188 
L 122.114319 301.81017 
L 122.386131 301.699203 
L 122.8014 301.221293 
L 123.216668 300.869326 
L 123.450729 300.9343 
L 123.722541 301.288814 
L 124.696534 302.81686 
L 124.877742 302.60707 
L 125.134454 301.895928 
L 126.206601 298.409757 
L 126.365158 298.56847 
L 126.62942 299.238488 
L 127.316501 301.067373 
L 127.535461 301.137017 
L 127.761971 300.939723 
L 128.479253 300.181477 
L 128.743514 300.295479 
L 129.415494 300.687356 
L 129.634454 300.492238 
L 129.891166 299.917775 
L 130.253582 298.464682 
L 131.11432 294.818567 
L 131.295528 294.748351 
L 131.454085 294.968931 
L 131.733448 295.829643 
L 132.45828 298.120527 
L 133.945696 300.914243 
L 134.157106 300.75782 
L 134.48177 300.174999 
L 135.81818 297.496622 
L 136.225898 297.255341 
L 136.626066 296.971388 
L 138.06818 295.15299 
L 138.430596 293.92824 
L 138.944019 292.352665 
L 139.170529 292.211417 
L 139.389489 292.36179 
L 139.850059 293.039129 
L 140.204925 293.904947 
L 140.642845 295.718087 
L 141.050563 297.037309 
L 141.224221 297.085165 
L 141.390328 296.815537 
L 141.828247 295.463713 
L 142.130261 294.960718 
L 142.319019 294.995953 
L 142.598382 295.358149 
L 143.119355 295.974961 
L 143.383617 295.972906 
L 143.708281 295.702374 
L 144.161301 295.378302 
L 144.380261 295.497834 
L 144.682275 295.986627 
L 145.241 296.865164 
L 145.444859 296.843281 
L 145.671369 296.540802 
L 146.094188 295.491286 
L 146.584959 294.496716 
L 146.909624 294.295877 
L 147.694859 294.028015 
L 148.117678 293.46882 
L 149.861805 290.426666 
L 150.722544 287.879635 
L 150.994356 287.775713 
L 151.379423 287.661878 
L 151.643685 287.26265 
L 152.285463 286.193275 
L 152.42892 286.34479 
L 152.632779 286.968038 
L 153.002745 289.013971 
L 153.463316 291.177136 
L 153.667175 291.362832 
L 153.818182 291.179829 
L 154.135296 290.315267 
L 154.497712 289.585933 
L 154.663819 289.605249 
L 154.860128 289.924953 
L 155.849222 291.943149 
L 156.226739 292.347826 
L 156.92137 293.483659 
L 156.981773 293.420917 
L 157.14033 292.991145 
L 157.381941 291.575544 
L 158.287981 285.506551 
L 158.416337 285.540173 
L 158.582444 285.92859 
L 158.952411 287.526778 
L 159.60929 290.104786 
L 160.228417 291.610546 
L 160.560632 291.975333 
L 160.764491 291.92251 
L 161.006102 291.572605 
L 161.451572 290.42156 
L 162.410465 287.346817 
L 163.067344 285.104891 
L 163.248552 285.040512 
L 163.407109 285.269567 
L 163.686472 286.165253 
L 164.282948 288.038507 
L 164.479257 288.112107 
L 164.645364 287.888825 
L 164.879425 287.127158 
L 165.241841 285.047888 
L 165.989324 280.673292 
L 166.208284 280.411382 
L 166.35174 280.546021 
L 166.593351 281.166802 
L 167.657949 284.293638 
L 167.876908 284.37118 
L 168.058116 284.174439 
L 168.314828 283.491456 
L 168.798049 281.401523 
L 169.651237 277.898656 
L 170.013654 277.219744 
L 170.353419 277.036269 
L 170.881942 276.764141 
L 171.229258 276.656177 
L 171.433117 276.837909 
L 171.697379 277.435912 
L 172.641171 279.894098 
L 172.822379 279.823667 
L 173.07909 279.418166 
L 174.053084 277.134084 
L 174.709963 275.185163 
L 175.004426 274.701799 
L 175.140332 274.779935 
L 175.32154 275.226463 
L 176.038822 277.63649 
L 176.106775 277.578106 
L 176.265332 277.142264 
L 176.559795 275.494428 
L 177.11852 272.51978 
L 177.32993 272.290094 
L 177.480936 272.442914 
L 177.813151 273.235734 
L 178.190668 273.880307 
L 178.802245 274.51661 
L 179.157111 275.691789 
L 179.670534 277.180358 
L 180.493521 278.881156 
L 181.127749 280.393107 
L 181.784628 281.294297 
L 181.973386 281.279319 
L 182.139494 280.99458 
L 182.366004 280.082842 
L 182.705769 277.624614 
L 183.611809 270.665641 
L 183.808118 270.406887 
L 183.815669 270.41022 
L 183.944024 270.610383 
L 184.170534 271.516297 
L 184.827414 274.347445 
L 184.955769 274.316829 
L 185.106776 273.941674 
L 185.363488 272.588344 
L 186.669696 264.613832 
L 186.941508 264.269974 
L 187.145367 264.312963 
L 187.43983 264.661085 
L 188.11936 265.485664 
L 188.383622 265.481946 
L 188.693186 265.212663 
L 189.138656 264.87784 
L 189.365166 264.986391 
L 190.089998 265.507052 
L 190.459965 265.256214 
L 190.739327 265.199229 
L 190.943186 265.409488 
L 191.237649 266.115134 
L 191.71332 267.171547 
L 191.849227 267.099287 
L 192.015334 266.660451 
L 192.294696 265.153242 
L 192.989327 261.260122 
L 193.200737 261.034162 
L 193.351744 261.17713 
L 193.631106 261.850995 
L 194.016173 262.600353 
L 194.144529 262.528382 
L 194.303086 262.101615 
L 194.552247 260.646051 
L 195.586643 253.53937 
L 195.594193 253.541162 
L 195.707448 253.694859 
L 195.911308 254.473996 
L 196.64369 257.621966 
L 196.787147 257.582746 
L 196.968355 257.197356 
L 197.330771 255.768921 
L 198.591677 249.557783 
L 199.724227 243.649525 
L 200.630268 235.006839 
L 200.66802 235.032794 
L 200.773724 235.377414 
L 200.962483 236.926313 
L 201.332449 242.264314 
L 201.913825 249.903122 
L 202.200738 251.285882 
L 202.374396 251.398235 
L 202.381946 251.394067 
L 202.563154 251.1544 
L 202.955771 250.662014 
L 203.099228 250.793926 
L 203.333288 251.410851 
L 203.748557 252.416153 
L 203.861812 252.322997 
L 204.027919 251.769053 
L 204.322382 249.790806 
L 205.024564 245.034429 
L 206.421376 239.405855 
L 206.444027 239.415433 
L 206.572383 239.623139 
L 206.798893 240.525103 
L 207.357618 242.792722 
L 207.478423 242.738738 
L 207.63698 242.276727 
L 207.984296 240.335398 
L 208.339161 238.9033 
L 208.467517 238.861722 
L 208.490168 238.883215 
L 208.641175 239.222035 
L 209.011141 240.809873 
L 209.320705 241.656675 
L 209.456611 241.6214 
L 209.615168 241.231602 
L 209.894531 239.804305 
L 211.132786 232.677027 
L 212.046377 228.785665 
L 212.657954 226.845628 
L 213.133625 223.99642 
L 213.511142 222.371907 
L 213.654598 222.288164 
L 213.677249 222.30548 
L 213.820706 222.592126 
L 214.115169 223.827886 
L 214.58329 225.549794 
L 214.832451 225.774227 
L 215.119364 225.695189 
L 215.71584 225.294104 
L 216.070706 224.6454 
L 216.485974 224.021615 
L 216.682283 224.063964 
L 217.27876 224.419713 
L 217.28631 224.409953 
L 217.467518 223.983973 
L 217.73933 222.666543 
L 218.19235 219.155333 
L 218.977585 213.143921 
L 219.226747 212.625175 
L 219.407955 212.646424 
L 219.853424 212.804851 
L 220.049733 212.534608 
L 220.321545 211.709715 
L 220.676411 209.835467 
L 221.529599 204.949413 
L 221.635304 205.009757 
L 221.786311 205.4906 
L 222.050572 207.243121 
L 222.89621 213.285034 
L 223.12272 213.61696 
L 223.258626 213.492682 
L 223.470036 212.898262 
L 224.202418 210.565744 
L 224.323224 210.719507 
L 224.511982 211.429376 
L 224.874398 213.912707 
L 225.214163 215.589954 
L 225.274566 215.574575 
L 225.297217 215.533378 
L 225.410472 215.004179 
L 225.599231 212.797193 
L 225.893694 206.204771 
L 226.633627 188.900657 
L 226.814835 188.10797 
L 226.829935 188.116938 
L 226.912989 188.352065 
L 227.086647 189.699565 
L 228.113493 199.376007 
L 228.309801 199.479075 
L 228.49856 199.300962 
L 228.672217 198.788319 
L 228.838325 197.47543 
L 229.019533 194.010697 
L 229.230942 185.087352 
L 229.495204 162.897691 
L 229.918023 103.939157 
L 230.340842 56.937984 
L 230.461647 54.144 
L 230.499399 54.483273 
L 230.597553 58.012179 
L 230.793862 75.139872 
L 231.933963 194.760373 
L 232.198225 199.597707 
L 232.31903 200.000198 
L 232.356782 199.954586 
L 232.470037 199.417197 
L 232.696547 196.970785 
L 233.104265 189.71461 
L 233.723393 174.251283 
L 234.199064 164.468662 
L 234.35007 163.699914 
L 234.380272 163.73037 
L 234.470876 164.19737 
L 234.644534 166.583221 
L 234.976748 174.979308 
L 235.618527 190.491076 
L 235.965842 194.091008 
L 236.35846 195.896721 
L 236.705775 197.783709 
L 237.090843 201.424326 
L 237.672219 206.607828 
L 237.898729 207.096029 
L 238.027084 206.992694 
L 238.563158 206.156543 
L 238.631111 206.230644 
L 238.804769 206.704285 
L 239.136984 208.425643 
L 239.582454 210.393542 
L 239.71836 210.471487 
L 239.741011 210.451724 
L 239.876917 210.129402 
L 240.103427 208.870036 
L 240.956615 203.437226 
L 241.07742 203.499497 
L 241.251078 203.982308 
L 242.157118 207.052365 
L 242.428931 207.110892 
L 242.685642 206.953036 
L 242.897051 206.521441 
L 243.146212 205.402162 
L 243.523729 202.446045 
L 244.059803 198.640417 
L 244.20326 198.43043 
L 244.233461 198.449879 
L 244.346716 198.729101 
L 244.543025 199.962147 
L 244.928092 204.20752 
L 245.350911 207.935678 
L 245.509468 208.236509 
L 245.532119 208.223834 
L 245.645374 207.971286 
L 245.871884 206.761404 
L 246.400407 203.983881 
L 246.596716 203.82994 
L 246.785475 204.011027 
L 247.623562 205.351013 
L 247.933126 206.813018 
L 248.620206 210.147232 
L 249.458294 212.625049 
L 250.100072 215.373795 
L 250.235978 215.38915 
L 250.251079 215.373869 
L 250.409636 215.025807 
L 250.741851 213.585224 
L 251.149569 212.182449 
L 251.323227 212.12269 
L 251.481784 212.370302 
L 251.761146 213.322431 
L 252.357623 216.332806 
L 253.120207 219.954911 
L 253.482623 220.678725 
L 253.897892 221.009022 
L 254.32071 221.387012 
L 254.600073 222.005416 
L 254.97759 223.488768 
L 255.64957 226.057189 
L 255.944033 226.430947 
L 256.170543 226.407083 
L 256.706617 226.237654 
L 256.902925 226.568 
L 257.22759 227.679546 
L 257.665509 228.956783 
L 257.831617 228.972113 
L 257.997724 228.6743 
L 258.292187 227.570099 
L 258.918865 225.242337 
L 259.160476 225.046247 
L 259.69655 224.940317 
L 259.900409 224.300265 
L 260.225074 222.368018 
L 260.685644 219.942031 
L 260.798899 219.864146 
L 260.8291 219.890687 
L 260.957456 220.223612 
L 261.191517 221.599903 
L 261.833295 225.532868 
L 261.969201 225.61533 
L 261.991852 225.598498 
L 262.142859 225.295961 
L 262.490174 223.911085 
L 262.814839 223.037701 
L 262.935644 223.091469 
L 263.086651 223.540369 
L 263.328262 225.118073 
L 264.143698 231.049388 
L 264.241853 230.972417 
L 264.385309 230.424127 
L 264.64202 228.368533 
L 265.419705 221.626715 
L 265.53296 221.52007 
L 265.570712 221.55683 
L 265.699067 221.945261 
L 265.925578 223.503789 
L 266.544705 230.043052 
L 267.027927 233.651695 
L 267.435645 235.223572 
L 267.669705 235.491639 
L 267.813162 235.366849 
L 268.024571 234.793177 
L 268.734303 232.566146 
L 268.741853 232.568427 
L 268.862658 232.729198 
L 269.051417 233.450604 
L 269.368531 235.73461 
L 270.24437 242.411486 
L 270.501081 242.939778 
L 270.636988 242.883207 
L 270.825746 242.469434 
L 271.203263 240.941296 
L 271.671384 239.358785 
L 271.905444 239.169991 
L 272.079102 239.311107 
L 272.335813 239.874552 
L 273.136149 241.840978 
L 273.272055 241.689929 
L 273.468364 241.034913 
L 273.83078 238.829735 
L 274.223397 236.940635 
L 274.329102 236.876795 
L 274.366854 236.913981 
L 274.50276 237.313022 
L 274.73682 238.866588 
L 275.63531 245.614097 
L 275.831619 245.761571 
L 276.012827 245.564677 
L 276.488498 245.009741 
L 276.647055 245.160803 
L 276.881116 245.770095 
L 277.386988 247.901956 
L 278.746049 253.566443 
L 278.99521 253.672281 
L 279.501083 253.737798 
L 279.750244 254.139021 
L 280.165512 255.337904 
L 280.694036 256.668395 
L 280.958297 256.83927 
L 281.199908 256.714464 
L 281.713331 256.404037 
L 281.90964 256.591051 
L 282.166351 257.215257 
L 282.58917 258.959182 
L 283.404606 262.272028 
L 283.93313 263.403419 
L 284.287996 263.778282 
L 284.461654 263.700704 
L 284.657962 263.30932 
L 284.959976 262.103202 
L 285.775412 258.655132 
L 286.054775 258.350828 
L 286.303936 258.38921 
L 287.036318 258.65067 
L 287.30058 258.382103 
L 288.002761 257.546914 
L 288.168869 257.735369 
L 288.402929 258.408014 
L 288.916352 260.822162 
L 289.256117 261.819074 
L 289.422225 261.832926 
L 289.595882 261.522106 
L 290.260312 259.940659 
L 290.305614 259.971304 
L 290.456621 260.288963 
L 290.705782 261.4713 
L 291.423064 265.148022 
L 291.56652 265.179625 
L 291.581621 265.166239 
L 291.747728 264.843996 
L 292.170547 263.334744 
L 292.548064 262.412718 
L 292.736822 262.36452 
L 292.90293 262.603901 
L 293.144541 263.442661 
L 293.605111 266.098385 
L 294.050581 268.087292 
L 294.360145 268.583015 
L 294.71501 269.083109 
L 294.986823 270.002854 
L 295.560648 273.055482 
L 295.983467 274.609958 
L 296.240178 274.8955 
L 296.406286 274.801852 
L 296.625246 274.363434 
L 297.478434 272.146468 
L 297.531286 272.179633 
L 297.704944 272.490288 
L 298.157964 273.977235 
L 298.467528 274.545472 
L 298.686487 274.562894 
L 299.124407 274.510554 
L 299.343367 274.817446 
L 299.690682 275.782672 
L 300.491018 278.052823 
L 300.687327 278.122749 
L 300.845884 277.897182 
L 301.072394 277.095823 
L 301.510313 274.485936 
L 301.933132 272.532894 
L 302.152092 272.302762 
L 302.310649 272.454321 
L 302.642864 273.208486 
L 303.080783 273.989959 
L 303.518703 274.643986 
L 303.805616 275.674602 
L 304.560649 278.606452 
L 304.734307 278.631061 
L 304.930616 278.363846 
L 305.776253 276.952854 
L 306.093368 276.97507 
L 307.029609 277.363229 
L 307.301421 277.920293 
L 308.116858 279.853341 
L 308.282965 279.698605 
L 308.83414 278.98437 
L 308.856791 279.001968 
L 309.015348 279.300449 
L 309.272059 280.371238 
L 309.989341 283.548597 
L 310.140348 283.577305 
L 310.147898 283.570291 
L 310.298905 283.260459 
L 310.540516 282.143396 
L 311.627764 276.251123 
L 311.899576 276.099823 
L 312.231791 275.918016 
L 312.496053 275.445472 
L 312.949073 274.050152 
L 313.432295 272.829968 
L 313.704107 272.650699 
L 314.534644 272.51057 
L 314.987664 272.196178 
L 315.168872 272.339398 
L 315.395382 272.857948 
L 315.727597 274.28167 
L 316.913 279.954546 
L 317.456624 281.057838 
L 317.705785 281.197773 
L 317.886993 281.03056 
L 318.181456 280.360011 
L 318.536322 279.736312 
L 318.664678 279.82012 
L 318.838335 280.302531 
L 319.125248 281.922062 
L 319.789678 285.74608 
L 319.963336 285.890777 
L 319.970886 285.886738 
L 320.114342 285.664202 
L 320.393705 284.678819 
L 320.907128 283.009307 
L 321.156289 282.810459 
L 321.382799 282.904308 
L 321.692363 283.307567 
L 322.069879 284.202782 
L 323.542195 288.179358 
L 324.221725 289.997775 
L 324.833303 291.473467 
L 325.135316 291.717453 
L 325.354276 291.640083 
L 325.595887 291.280258 
L 325.913001 290.33533 
L 326.879444 287.093451 
L 327.0229 287.190037 
L 327.23431 287.686469 
L 328.019545 289.805809 
L 328.185652 289.717988 
L 328.442363 289.250422 
L 329.099243 288.027272 
L 329.506961 287.78007 
L 329.899578 287.769073 
L 330.15629 287.99127 
L 330.450753 288.590153 
L 331.696558 291.60886 
L 332.028773 291.6645 
L 332.912163 291.652764 
L 333.199075 292.122028 
L 333.886156 293.338051 
L 334.067364 293.271261 
L 334.301425 292.878397 
L 335.275418 290.922963 
L 335.509478 290.997128 
L 336.309814 291.431486 
L 337.011995 291.332311 
L 337.261156 291.71583 
L 337.661324 292.848311 
L 338.204949 294.225778 
L 338.423908 294.32771 
L 338.605116 294.143963 
L 338.869378 293.478658 
L 340.009479 290.116843 
L 340.168036 290.223355 
L 340.394546 290.719947 
L 341.466694 293.577501 
L 341.791358 293.586622 
L 342.289681 293.630207 
L 342.886157 293.707669 
L 343.361828 293.445501 
L 343.671392 293.406037 
L 343.890352 293.633199 
L 344.177265 294.327352 
L 344.97005 296.417055 
L 345.158808 296.411759 
L 345.362667 296.127578 
L 345.679782 295.218415 
L 346.502768 292.702717 
L 346.714178 292.645793 
L 346.955788 292.857459 
L 347.582466 293.44875 
L 348.148742 293.789982 
L 348.458305 294.370861 
L 348.918876 295.808018 
L 349.553104 297.641241 
L 349.824916 297.868547 
L 350.051426 297.779087 
L 350.421393 297.324945 
L 350.934816 296.785177 
L 351.176427 296.820073 
L 351.448239 297.127015 
L 352.82995 299.067674 
L 353.079111 298.949422 
L 353.849246 298.395293 
L 354.053105 298.71595 
L 354.38532 299.750117 
L 354.966695 301.470052 
L 355.223407 301.660532 
L 355.472568 301.563607 
L 356.091696 300.976757 
L 356.514514 300.310408 
L 357.254447 299.081581 
L 357.564011 299.016317 
L 358.243541 299.207204 
L 358.621058 299.515988 
L 359.308139 300.136147 
L 359.56485 300.041616 
L 360.304783 299.626901 
L 360.531293 299.893582 
L 360.89371 300.746915 
L 361.505287 302.099891 
L 361.829951 302.33142 
L 362.184817 302.30418 
L 362.735992 302.015956 
L 363.36267 301.413406 
L 363.838341 301.072578 
L 364.079952 301.14198 
L 364.329113 301.475402 
L 364.71418 302.439759 
L 365.363509 303.982634 
L 365.718375 304.292287 
L 366.088341 304.326738 
L 366.480959 304.136684 
L 367.145388 303.779747 
L 367.4021 303.954267 
L 368.142033 304.601524 
L 368.391194 304.42285 
L 369.131127 303.764106 
L 369.387838 303.894595 
L 369.810657 304.425472 
L 370.444885 305.131558 
L 370.845053 305.265787 
L 371.23012 305.150694 
L 372.068208 304.566302 
L 373.147906 303.780518 
L 373.412167 304.059286 
L 374.499416 305.46998 
L 374.80898 305.404318 
L 375.72257 304.804246 
L 376.809819 304.274847 
L 377.217537 304.523059 
L 377.579953 304.639089 
L 377.829114 304.477682 
L 378.221732 303.886059 
L 378.682302 303.32819 
L 378.939014 303.32448 
L 379.286329 303.590806 
L 379.762 303.892576 
L 380.048913 303.805275 
L 380.8719 303.386253 
L 381.158813 303.650705 
L 381.423074 304.033757 
L 381.423074 304.033757 
" style="fill:none;stroke:#ff7f0e;stroke-linecap:square;stroke-width:1.5;"/>
   </g>
   <g id="patch_103">
    <path d="M 57.6 307.584 
L 57.6 41.472 
" style="fill:none;stroke:#000000;stroke-linecap:square;stroke-linejoin:miter;stroke-width:0.8;"/>
   </g>
   <g id="patch_104">
    <path d="M 414.72 307.584 
L 414.72 41.472 
" style="fill:none;stroke:#000000;stroke-linecap:square;stroke-linejoin:miter;stroke-width:0.8;"/>
   </g>
   <g id="patch_105">
    <path d="M 57.6 307.584 
L 414.72 307.584 
" style="fill:none;stroke:#000000;stroke-linecap:square;stroke-linejoin:miter;stroke-width:0.8;"/>
   </g>
   <g id="patch_106">
    <path d="M 57.6 41.472 
L 414.72 41.472 
" style="fill:none;stroke:#000000;stroke-linecap:square;stroke-linejoin:miter;stroke-width:0.8;"/>
   </g>
  </g>
 </g>
 <defs>
  <clipPath id="p0aabf25b6e">
   <rect height="266.112" width="357.12" x="57.6" y="41.472"/>
  </clipPath>
 </defs>
</svg>
