<?xml version="1.0" encoding="utf-8" standalone="no"?>
<!DOCTYPE svg PUBLIC "-//W3C//DTD SVG 1.1//EN"
  "http://www.w3.org/Graphics/SVG/1.1/DTD/svg11.dtd">
<!-- Created with matplotlib (https://matplotlib.org/) -->
<svg height="345.6pt" version="1.1" viewBox="0 0 460.8 345.6" width="460.8pt" xmlns="http://www.w3.org/2000/svg" xmlns:xlink="http://www.w3.org/1999/xlink">
 <defs>
  <style type="text/css">
*{stroke-linecap:butt;stroke-linejoin:round;}
  </style>
 </defs>
 <g id="figure_1">
  <g id="patch_1">
   <path d="M 0 345.6 
L 460.8 345.6 
L 460.8 0 
L 0 0 
z
" style="fill:#ffffff;"/>
  </g>
  <g id="axes_1">
   <g id="patch_2">
    <path d="M 57.6 307.584 
L 414.72 307.584 
L 414.72 41.472 
L 57.6 41.472 
z
" style="fill:#ffffff;"/>
   </g>
   <g id="patch_3">
    <path clip-path="url(#p3065c0c0a7)" d="M 103.064687 307.584 
L 105.849176 307.584 
L 105.849176 304.379842 
L 103.064687 304.379842 
z
" style="fill:#1f77b4;"/>
   </g>
   <g id="patch_4">
    <path clip-path="url(#p3065c0c0a7)" d="M 105.849176 307.584 
L 108.633657 307.584 
L 108.633657 297.170457 
L 105.849176 297.170457 
z
" style="fill:#1f77b4;"/>
   </g>
   <g id="patch_5">
    <path clip-path="url(#p3065c0c0a7)" d="M 108.633649 307.584 
L 111.41813 307.584 
L 111.41813 303.578791 
L 108.633649 303.578791 
z
" style="fill:#1f77b4;"/>
   </g>
   <g id="patch_6">
    <path clip-path="url(#p3065c0c0a7)" d="M 111.418138 307.584 
L 114.202618 307.584 
L 114.202618 297.971499 
L 111.418138 297.971499 
z
" style="fill:#1f77b4;"/>
   </g>
   <g id="patch_7">
    <path clip-path="url(#p3065c0c0a7)" d="M 114.202611 307.584 
L 116.987092 307.584 
L 116.987092 291.563165 
L 114.202611 291.563165 
z
" style="fill:#1f77b4;"/>
   </g>
   <g id="patch_8">
    <path clip-path="url(#p3065c0c0a7)" d="M 116.987099 307.584 
L 119.771588 307.584 
L 119.771588 297.170486 
L 116.987099 297.170486 
z
" style="fill:#1f77b4;"/>
   </g>
   <g id="patch_9">
    <path clip-path="url(#p3065c0c0a7)" d="M 119.771588 307.584 
L 122.556069 307.584 
L 122.556069 297.971499 
L 119.771588 297.971499 
z
" style="fill:#1f77b4;"/>
   </g>
   <g id="patch_10">
    <path clip-path="url(#p3065c0c0a7)" d="M 122.556061 307.584 
L 125.340542 307.584 
L 125.340542 294.767332 
L 122.556061 294.767332 
z
" style="fill:#1f77b4;"/>
   </g>
   <g id="patch_11">
    <path clip-path="url(#p3065c0c0a7)" d="M 125.34055 307.584 
L 128.125038 307.584 
L 128.125038 300.374644 
L 125.34055 300.374644 
z
" style="fill:#1f77b4;"/>
   </g>
   <g id="patch_12">
    <path clip-path="url(#p3065c0c0a7)" d="M 128.125038 307.584 
L 130.909519 307.584 
L 130.909519 297.971499 
L 128.125038 297.971499 
z
" style="fill:#1f77b4;"/>
   </g>
   <g id="patch_13">
    <path clip-path="url(#p3065c0c0a7)" d="M 130.909512 307.584 
L 133.693993 307.584 
L 133.693993 300.374624 
L 130.909512 300.374624 
z
" style="fill:#1f77b4;"/>
   </g>
   <g id="patch_14">
    <path clip-path="url(#p3065c0c0a7)" d="M 133.694 307.584 
L 136.478489 307.584 
L 136.478489 301.175684 
L 133.694 301.175684 
z
" style="fill:#1f77b4;"/>
   </g>
   <g id="patch_15">
    <path clip-path="url(#p3065c0c0a7)" d="M 136.478489 307.584 
L 139.26297 307.584 
L 139.26297 287.557956 
L 136.478489 287.557956 
z
" style="fill:#1f77b4;"/>
   </g>
   <g id="patch_16">
    <path clip-path="url(#p3065c0c0a7)" d="M 139.262962 307.584 
L 142.047443 307.584 
L 142.047443 296.369415 
L 139.262962 296.369415 
z
" style="fill:#1f77b4;"/>
   </g>
   <g id="patch_17">
    <path clip-path="url(#p3065c0c0a7)" d="M 142.047451 307.584 
L 144.831939 307.584 
L 144.831939 295.568407 
L 142.047451 295.568407 
z
" style="fill:#1f77b4;"/>
   </g>
   <g id="patch_18">
    <path clip-path="url(#p3065c0c0a7)" d="M 144.831939 307.584 
L 147.61642 307.584 
L 147.61642 301.175666 
L 144.831939 301.175666 
z
" style="fill:#1f77b4;"/>
   </g>
   <g id="patch_19">
    <path clip-path="url(#p3065c0c0a7)" d="M 147.616413 307.584 
L 150.400894 307.584 
L 150.400894 296.369415 
L 147.616413 296.369415 
z
" style="fill:#1f77b4;"/>
   </g>
   <g id="patch_20">
    <path clip-path="url(#p3065c0c0a7)" d="M 150.400901 307.584 
L 153.185382 307.584 
L 153.185382 293.96629 
L 150.400901 293.96629 
z
" style="fill:#1f77b4;"/>
   </g>
   <g id="patch_21">
    <path clip-path="url(#p3065c0c0a7)" d="M 153.185382 307.584 
L 155.969871 307.584 
L 155.969871 294.767367 
L 153.185382 294.767367 
z
" style="fill:#1f77b4;"/>
   </g>
   <g id="patch_22">
    <path clip-path="url(#p3065c0c0a7)" d="M 155.969863 307.584 
L 158.754344 307.584 
L 158.754344 293.96629 
L 155.969863 293.96629 
z
" style="fill:#1f77b4;"/>
   </g>
   <g id="patch_23">
    <path clip-path="url(#p3065c0c0a7)" d="M 158.754352 307.584 
L 161.538833 307.584 
L 161.538833 293.96629 
L 158.754352 293.96629 
z
" style="fill:#1f77b4;"/>
   </g>
   <g id="patch_24">
    <path clip-path="url(#p3065c0c0a7)" d="M 161.538833 307.584 
L 164.323321 307.584 
L 164.323321 284.353853 
L 161.538833 284.353853 
z
" style="fill:#1f77b4;"/>
   </g>
   <g id="patch_25">
    <path clip-path="url(#p3065c0c0a7)" d="M 164.323314 307.584 
L 167.107794 307.584 
L 167.107794 295.568374 
L 164.323314 295.568374 
z
" style="fill:#1f77b4;"/>
   </g>
   <g id="patch_26">
    <path clip-path="url(#p3065c0c0a7)" d="M 167.107802 307.584 
L 169.892283 307.584 
L 169.892283 287.557956 
L 167.107802 287.557956 
z
" style="fill:#1f77b4;"/>
   </g>
   <g id="patch_27">
    <path clip-path="url(#p3065c0c0a7)" d="M 169.892283 307.584 
L 172.676768 307.584 
L 172.676768 283.55278 
L 169.892283 283.55278 
z
" style="fill:#1f77b4;"/>
   </g>
   <g id="patch_28">
    <path clip-path="url(#p3065c0c0a7)" d="M 172.676764 307.584 
L 175.461249 307.584 
L 175.461249 287.557984 
L 172.676764 287.557984 
z
" style="fill:#1f77b4;"/>
   </g>
   <g id="patch_29">
    <path clip-path="url(#p3065c0c0a7)" d="M 175.461253 307.584 
L 178.245734 307.584 
L 178.245734 290.762123 
L 175.461253 290.762123 
z
" style="fill:#1f77b4;"/>
   </g>
   <g id="patch_30">
    <path clip-path="url(#p3065c0c0a7)" d="M 178.245734 307.584 
L 181.030218 307.584 
L 181.030218 289.961106 
L 178.245734 289.961106 
z
" style="fill:#1f77b4;"/>
   </g>
   <g id="patch_31">
    <path clip-path="url(#p3065c0c0a7)" d="M 181.030218 307.584 
L 183.814699 307.584 
L 183.814699 277.945455 
L 181.030218 277.945455 
z
" style="fill:#1f77b4;"/>
   </g>
   <g id="patch_32">
    <path clip-path="url(#p3065c0c0a7)" d="M 183.814695 307.584 
L 186.59918 307.584 
L 186.59918 280.348618 
L 183.814695 280.348618 
z
" style="fill:#1f77b4;"/>
   </g>
   <g id="patch_33">
    <path clip-path="url(#p3065c0c0a7)" d="M 186.599184 307.584 
L 189.383669 307.584 
L 189.383669 273.940293 
L 186.599184 273.940293 
z
" style="fill:#1f77b4;"/>
   </g>
   <g id="patch_34">
    <path clip-path="url(#p3065c0c0a7)" d="M 189.383669 307.584 
L 192.16815 307.584 
L 192.16815 264.327745 
L 189.383669 264.327745 
z
" style="fill:#1f77b4;"/>
   </g>
   <g id="patch_35">
    <path clip-path="url(#p3065c0c0a7)" d="M 192.168146 307.584 
L 194.952631 307.584 
L 194.952631 271.537171 
L 192.168146 271.537171 
z
" style="fill:#1f77b4;"/>
   </g>
   <g id="patch_36">
    <path clip-path="url(#p3065c0c0a7)" d="M 194.952635 307.584 
L 197.737116 307.584 
L 197.737116 271.537121 
L 194.952635 271.537121 
z
" style="fill:#1f77b4;"/>
   </g>
   <g id="patch_37">
    <path clip-path="url(#p3065c0c0a7)" d="M 197.737116 307.584 
L 200.5216 307.584 
L 200.5216 248.306992 
L 197.737116 248.306992 
z
" style="fill:#1f77b4;"/>
   </g>
   <g id="patch_38">
    <path clip-path="url(#p3065c0c0a7)" d="M 200.521596 307.584 
L 203.306081 307.584 
L 203.306081 239.495545 
L 200.521596 239.495545 
z
" style="fill:#1f77b4;"/>
   </g>
   <g id="patch_39">
    <path clip-path="url(#p3065c0c0a7)" d="M 203.306085 307.584 
L 206.090566 307.584 
L 206.090566 237.893367 
L 203.306085 237.893367 
z
" style="fill:#1f77b4;"/>
   </g>
   <g id="patch_40">
    <path clip-path="url(#p3065c0c0a7)" d="M 206.090566 307.584 
L 208.875051 307.584 
L 208.875051 257.91948 
L 206.090566 257.91948 
z
" style="fill:#1f77b4;"/>
   </g>
   <g id="patch_41">
    <path clip-path="url(#p3065c0c0a7)" d="M 208.875051 307.584 
L 211.659534 307.584 
L 211.659534 241.09758 
L 208.875051 241.09758 
z
" style="fill:#1f77b4;"/>
   </g>
   <g id="patch_42">
    <path clip-path="url(#p3065c0c0a7)" d="M 211.659536 307.584 
L 214.444018 307.584 
L 214.444018 225.076756 
L 211.659536 225.076756 
z
" style="fill:#1f77b4;"/>
   </g>
   <g id="patch_43">
    <path clip-path="url(#p3065c0c0a7)" d="M 214.444016 307.584 
L 217.228499 307.584 
L 217.228499 229.081962 
L 214.444016 229.081962 
z
" style="fill:#1f77b4;"/>
   </g>
   <g id="patch_44">
    <path clip-path="url(#p3065c0c0a7)" d="M 217.228499 307.584 
L 220.012983 307.584 
L 220.012983 205.851802 
L 217.228499 205.851802 
z
" style="fill:#1f77b4;"/>
   </g>
   <g id="patch_45">
    <path clip-path="url(#p3065c0c0a7)" d="M 220.012983 307.584 
L 222.797466 307.584 
L 222.797466 210.658014 
L 220.012983 210.658014 
z
" style="fill:#1f77b4;"/>
   </g>
   <g id="patch_46">
    <path clip-path="url(#p3065c0c0a7)" d="M 222.797465 307.584 
L 225.581949 307.584 
L 225.581949 200.244516 
L 222.797465 200.244516 
z
" style="fill:#1f77b4;"/>
   </g>
   <g id="patch_47">
    <path clip-path="url(#p3065c0c0a7)" d="M 225.58195 307.584 
L 228.366433 307.584 
L 228.366433 208.25489 
L 225.58195 208.25489 
z
" style="fill:#1f77b4;"/>
   </g>
   <g id="patch_48">
    <path clip-path="url(#p3065c0c0a7)" d="M 228.366433 307.584 
L 231.150916 307.584 
L 231.150916 209.055949 
L 228.366433 209.055949 
z
" style="fill:#1f77b4;"/>
   </g>
   <g id="patch_49">
    <path clip-path="url(#p3065c0c0a7)" d="M 231.150916 307.584 
L 233.935399 307.584 
L 233.935399 190.631994 
L 231.150916 190.631994 
z
" style="fill:#1f77b4;"/>
   </g>
   <g id="patch_50">
    <path clip-path="url(#p3065c0c0a7)" d="M 233.935399 307.584 
L 236.719882 307.584 
L 236.719882 112.129979 
L 233.935399 112.129979 
z
" style="fill:#1f77b4;"/>
   </g>
   <g id="patch_51">
    <path clip-path="url(#p3065c0c0a7)" d="M 236.719882 307.584 
L 239.504365 307.584 
L 239.504365 177.815336 
L 236.719882 177.815336 
z
" style="fill:#1f77b4;"/>
   </g>
   <g id="patch_52">
    <path clip-path="url(#p3065c0c0a7)" d="M 239.504366 307.584 
L 242.288849 307.584 
L 242.288849 183.422634 
L 239.504366 183.422634 
z
" style="fill:#1f77b4;"/>
   </g>
   <g id="patch_53">
    <path clip-path="url(#p3065c0c0a7)" d="M 242.288849 307.584 
L 245.073332 307.584 
L 245.073332 201.846561 
L 242.288849 201.846561 
z
" style="fill:#1f77b4;"/>
   </g>
   <g id="patch_54">
    <path clip-path="url(#p3065c0c0a7)" d="M 245.073332 307.584 
L 247.857815 307.584 
L 247.857815 184.223697 
L 245.073332 184.223697 
z
" style="fill:#1f77b4;"/>
   </g>
   <g id="patch_55">
    <path clip-path="url(#p3065c0c0a7)" d="M 247.857815 307.584 
L 250.642298 307.584 
L 250.642298 201.045519 
L 247.857815 201.045519 
z
" style="fill:#1f77b4;"/>
   </g>
   <g id="patch_56">
    <path clip-path="url(#p3065c0c0a7)" d="M 250.642297 307.584 
L 253.42678 307.584 
L 253.42678 193.836188 
L 250.642297 193.836188 
z
" style="fill:#1f77b4;"/>
   </g>
   <g id="patch_57">
    <path clip-path="url(#p3065c0c0a7)" d="M 253.426784 307.584 
L 256.211267 307.584 
L 256.211267 208.25489 
L 253.426784 208.25489 
z
" style="fill:#1f77b4;"/>
   </g>
   <g id="patch_58">
    <path clip-path="url(#p3065c0c0a7)" d="M 256.211265 307.584 
L 258.995748 307.584 
L 258.995748 211.459055 
L 256.211265 211.459055 
z
" style="fill:#1f77b4;"/>
   </g>
   <g id="patch_59">
    <path clip-path="url(#p3065c0c0a7)" d="M 258.99575 307.584 
L 261.780233 307.584 
L 261.780233 212.260096 
L 258.99575 212.260096 
z
" style="fill:#1f77b4;"/>
   </g>
   <g id="patch_60">
    <path clip-path="url(#p3065c0c0a7)" d="M 261.780231 307.584 
L 264.564715 307.584 
L 264.564715 222.673691 
L 261.780231 222.673691 
z
" style="fill:#1f77b4;"/>
   </g>
   <g id="patch_61">
    <path clip-path="url(#p3065c0c0a7)" d="M 264.564715 307.584 
L 267.349198 307.584 
L 267.349198 236.291333 
L 264.564715 236.291333 
z
" style="fill:#1f77b4;"/>
   </g>
   <g id="patch_62">
    <path clip-path="url(#p3065c0c0a7)" d="M 267.3492 307.584 
L 270.133681 307.584 
L 270.133681 236.291333 
L 267.3492 236.291333 
z
" style="fill:#1f77b4;"/>
   </g>
   <g id="patch_63">
    <path clip-path="url(#p3065c0c0a7)" d="M 270.133681 307.584 
L 272.918166 307.584 
L 272.918166 232.286179 
L 270.133681 232.286179 
z
" style="fill:#1f77b4;"/>
   </g>
   <g id="patch_64">
    <path clip-path="url(#p3065c0c0a7)" d="M 272.918166 307.584 
L 275.702647 307.584 
L 275.702647 227.479824 
L 272.918166 227.479824 
z
" style="fill:#1f77b4;"/>
   </g>
   <g id="patch_65">
    <path clip-path="url(#p3065c0c0a7)" d="M 275.702643 307.584 
L 278.487128 307.584 
L 278.487128 241.097626 
L 275.702643 241.097626 
z
" style="fill:#1f77b4;"/>
   </g>
   <g id="patch_66">
    <path clip-path="url(#p3065c0c0a7)" d="M 278.487132 307.584 
L 281.271613 307.584 
L 281.271613 246.704826 
L 278.487132 246.704826 
z
" style="fill:#1f77b4;"/>
   </g>
   <g id="patch_67">
    <path clip-path="url(#p3065c0c0a7)" d="M 281.271613 307.584 
L 284.056097 307.584 
L 284.056097 265.128846 
L 281.271613 265.128846 
z
" style="fill:#1f77b4;"/>
   </g>
   <g id="patch_68">
    <path clip-path="url(#p3065c0c0a7)" d="M 284.056093 307.584 
L 286.840578 307.584 
L 286.840578 266.730927 
L 284.056093 266.730927 
z
" style="fill:#1f77b4;"/>
   </g>
   <g id="patch_69">
    <path clip-path="url(#p3065c0c0a7)" d="M 286.840582 307.584 
L 289.625063 307.584 
L 289.625063 276.343371 
L 286.840582 276.343371 
z
" style="fill:#1f77b4;"/>
   </g>
   <g id="patch_70">
    <path clip-path="url(#p3065c0c0a7)" d="M 289.625063 307.584 
L 292.409548 307.584 
L 292.409548 276.343415 
L 289.625063 276.343415 
z
" style="fill:#1f77b4;"/>
   </g>
   <g id="patch_71">
    <path clip-path="url(#p3065c0c0a7)" d="M 292.409548 307.584 
L 295.194029 307.584 
L 295.194029 274.741288 
L 292.409548 274.741288 
z
" style="fill:#1f77b4;"/>
   </g>
   <g id="patch_72">
    <path clip-path="url(#p3065c0c0a7)" d="M 295.194025 307.584 
L 297.97851 307.584 
L 297.97851 265.929886 
L 295.194025 265.929886 
z
" style="fill:#1f77b4;"/>
   </g>
   <g id="patch_73">
    <path clip-path="url(#p3065c0c0a7)" d="M 297.978514 307.584 
L 300.762998 307.584 
L 300.762998 269.935089 
L 297.978514 269.935089 
z
" style="fill:#1f77b4;"/>
   </g>
   <g id="patch_74">
    <path clip-path="url(#p3065c0c0a7)" d="M 300.762994 307.584 
L 303.547483 307.584 
L 303.547483 273.940293 
L 300.762994 273.940293 
z
" style="fill:#1f77b4;"/>
   </g>
   <g id="patch_75">
    <path clip-path="url(#p3065c0c0a7)" d="M 303.547483 307.584 
L 306.331964 307.584 
L 306.331964 279.547538 
L 303.547483 279.547538 
z
" style="fill:#1f77b4;"/>
   </g>
   <g id="patch_76">
    <path clip-path="url(#p3065c0c0a7)" d="M 306.331956 307.584 
L 309.116437 307.584 
L 309.116437 287.557956 
L 306.331956 287.557956 
z
" style="fill:#1f77b4;"/>
   </g>
   <g id="patch_77">
    <path clip-path="url(#p3065c0c0a7)" d="M 309.116445 307.584 
L 311.900934 307.584 
L 311.900934 283.552814 
L 309.116445 283.552814 
z
" style="fill:#1f77b4;"/>
   </g>
   <g id="patch_78">
    <path clip-path="url(#p3065c0c0a7)" d="M 311.900934 307.584 
L 314.685414 307.584 
L 314.685414 278.746496 
L 311.900934 278.746496 
z
" style="fill:#1f77b4;"/>
   </g>
   <g id="patch_79">
    <path clip-path="url(#p3065c0c0a7)" d="M 314.685407 307.584 
L 317.469888 307.584 
L 317.469888 285.154831 
L 314.685407 285.154831 
z
" style="fill:#1f77b4;"/>
   </g>
   <g id="patch_80">
    <path clip-path="url(#p3065c0c0a7)" d="M 317.469895 307.584 
L 320.254376 307.584 
L 320.254376 286.756914 
L 317.469895 286.756914 
z
" style="fill:#1f77b4;"/>
   </g>
   <g id="patch_81">
    <path clip-path="url(#p3065c0c0a7)" d="M 320.254376 307.584 
L 323.038865 307.584 
L 323.038865 294.767367 
L 320.254376 294.767367 
z
" style="fill:#1f77b4;"/>
   </g>
   <g id="patch_82">
    <path clip-path="url(#p3065c0c0a7)" d="M 323.038857 307.584 
L 325.823338 307.584 
L 325.823338 284.353789 
L 323.038857 284.353789 
z
" style="fill:#1f77b4;"/>
   </g>
   <g id="patch_83">
    <path clip-path="url(#p3065c0c0a7)" d="M 325.823346 307.584 
L 328.607827 307.584 
L 328.607827 280.34858 
L 325.823346 280.34858 
z
" style="fill:#1f77b4;"/>
   </g>
   <g id="patch_84">
    <path clip-path="url(#p3065c0c0a7)" d="M 328.607827 307.584 
L 331.392315 307.584 
L 331.392315 289.96113 
L 328.607827 289.96113 
z
" style="fill:#1f77b4;"/>
   </g>
   <g id="patch_85">
    <path clip-path="url(#p3065c0c0a7)" d="M 331.392308 307.584 
L 334.176789 307.584 
L 334.176789 291.563165 
L 331.392308 291.563165 
z
" style="fill:#1f77b4;"/>
   </g>
   <g id="patch_86">
    <path clip-path="url(#p3065c0c0a7)" d="M 334.176796 307.584 
L 336.961277 307.584 
L 336.961277 286.756914 
L 334.176796 286.756914 
z
" style="fill:#1f77b4;"/>
   </g>
   <g id="patch_87">
    <path clip-path="url(#p3065c0c0a7)" d="M 336.96127 307.584 
L 339.74575 307.584 
L 339.74575 291.563165 
L 336.96127 291.563165 
z
" style="fill:#1f77b4;"/>
   </g>
   <g id="patch_88">
    <path clip-path="url(#p3065c0c0a7)" d="M 339.745758 307.584 
L 342.530247 307.584 
L 342.530247 289.96113 
L 339.745758 289.96113 
z
" style="fill:#1f77b4;"/>
   </g>
   <g id="patch_89">
    <path clip-path="url(#p3065c0c0a7)" d="M 342.530247 307.584 
L 345.314728 307.584 
L 345.314728 296.369415 
L 342.530247 296.369415 
z
" style="fill:#1f77b4;"/>
   </g>
   <g id="patch_90">
    <path clip-path="url(#p3065c0c0a7)" d="M 345.31472 307.584 
L 348.099201 307.584 
L 348.099201 298.772541 
L 345.31472 298.772541 
z
" style="fill:#1f77b4;"/>
   </g>
   <g id="patch_91">
    <path clip-path="url(#p3065c0c0a7)" d="M 348.099209 307.584 
L 350.883697 307.584 
L 350.883697 298.772565 
L 348.099209 298.772565 
z
" style="fill:#1f77b4;"/>
   </g>
   <g id="patch_92">
    <path clip-path="url(#p3065c0c0a7)" d="M 350.883697 307.584 
L 353.668178 307.584 
L 353.668178 305.981916 
L 350.883697 305.981916 
z
" style="fill:#1f77b4;"/>
   </g>
   <g id="patch_93">
    <path clip-path="url(#p3065c0c0a7)" d="M 353.66817 307.584 
L 356.452651 307.584 
L 356.452651 301.175666 
L 353.66817 301.175666 
z
" style="fill:#1f77b4;"/>
   </g>
   <g id="patch_94">
    <path clip-path="url(#p3065c0c0a7)" d="M 356.452659 307.584 
L 359.237148 307.584 
L 359.237148 301.175684 
L 356.452659 301.175684 
z
" style="fill:#1f77b4;"/>
   </g>
   <g id="patch_95">
    <path clip-path="url(#p3065c0c0a7)" d="M 359.237148 307.584 
L 362.021629 307.584 
L 362.021629 300.374624 
L 359.237148 300.374624 
z
" style="fill:#1f77b4;"/>
   </g>
   <g id="patch_96">
    <path clip-path="url(#p3065c0c0a7)" d="M 362.021621 307.584 
L 364.806102 307.584 
L 364.806102 301.175666 
L 362.021621 301.175666 
z
" style="fill:#1f77b4;"/>
   </g>
   <g id="patch_97">
    <path clip-path="url(#p3065c0c0a7)" d="M 364.80611 307.584 
L 367.590598 307.584 
L 367.590598 305.981921 
L 364.80611 305.981921 
z
" style="fill:#1f77b4;"/>
   </g>
   <g id="patch_98">
    <path clip-path="url(#p3065c0c0a7)" d="M 367.590598 307.584 
L 370.375071 307.584 
L 370.375071 306.782956 
L 367.590598 306.782956 
z
" style="fill:#1f77b4;"/>
   </g>
   <g id="patch_99">
    <path clip-path="url(#p3065c0c0a7)" d="M 370.375071 307.584 
L 373.15956 307.584 
L 373.15956 306.78296 
L 370.375071 306.78296 
z
" style="fill:#1f77b4;"/>
   </g>
   <g id="patch_100">
    <path clip-path="url(#p3065c0c0a7)" d="M 373.15956 307.584 
L 375.944049 307.584 
L 375.944049 306.78296 
L 373.15956 306.78296 
z
" style="fill:#1f77b4;"/>
   </g>
   <g id="patch_101">
    <path clip-path="url(#p3065c0c0a7)" d="M 375.944064 307.584 
L 378.728537 307.584 
L 378.728537 307.584 
L 375.944064 307.584 
z
" style="fill:#1f77b4;"/>
   </g>
   <g id="patch_102">
    <path clip-path="url(#p3065c0c0a7)" d="M 378.728522 307.584 
L 381.513011 307.584 
L 381.513011 305.981921 
L 378.728522 305.981921 
z
" style="fill:#1f77b4;"/>
   </g>
   <g id="matplotlib.axis_1">
    <g id="xtick_1">
     <g id="line2d_1">
      <defs>
       <path d="M 0 0 
L 0 3.5 
" id="m67b1b8b21d" style="stroke:#000000;stroke-width:0.8;"/>
      </defs>
      <g>
       <use style="stroke:#000000;stroke-width:0.8;" x="106.301429" xlink:href="#m67b1b8b21d" y="307.584"/>
      </g>
     </g>
     <g id="text_1">
      <!-- −2 -->
      <defs>
       <path d="M 10.59375 35.5 
L 73.1875 35.5 
L 73.1875 27.203125 
L 10.59375 27.203125 
z
" id="DejaVuSans-8722"/>
       <path d="M 19.1875 8.296875 
L 53.609375 8.296875 
L 53.609375 0 
L 7.328125 0 
L 7.328125 8.296875 
Q 12.9375 14.109375 22.625 23.890625 
Q 32.328125 33.6875 34.8125 36.53125 
Q 39.546875 41.84375 41.421875 45.53125 
Q 43.3125 49.21875 43.3125 52.78125 
Q 43.3125 58.59375 39.234375 62.25 
Q 35.15625 65.921875 28.609375 65.921875 
Q 23.96875 65.921875 18.8125 64.3125 
Q 13.671875 62.703125 7.8125 59.421875 
L 7.8125 69.390625 
Q 13.765625 71.78125 18.9375 73 
Q 24.125 74.21875 28.421875 74.21875 
Q 39.75 74.21875 46.484375 68.546875 
Q 53.21875 62.890625 53.21875 53.421875 
Q 53.21875 48.921875 51.53125 44.890625 
Q 49.859375 40.875 45.40625 35.40625 
Q 44.1875 33.984375 37.640625 27.21875 
Q 31.109375 20.453125 19.1875 8.296875 
z
" id="DejaVuSans-50"/>
      </defs>
      <g transform="translate(93.770569 327.501344)scale(0.17 -0.17)">
       <use xlink:href="#DejaVuSans-8722"/>
       <use x="83.789062" xlink:href="#DejaVuSans-50"/>
      </g>
     </g>
    </g>
    <g id="xtick_2">
     <g id="line2d_2">
      <g>
       <use style="stroke:#000000;stroke-width:0.8;" x="171.238832" xlink:href="#m67b1b8b21d" y="307.584"/>
      </g>
     </g>
     <g id="text_2">
      <!-- −1 -->
      <defs>
       <path d="M 12.40625 8.296875 
L 28.515625 8.296875 
L 28.515625 63.921875 
L 10.984375 60.40625 
L 10.984375 69.390625 
L 28.421875 72.90625 
L 38.28125 72.90625 
L 38.28125 8.296875 
L 54.390625 8.296875 
L 54.390625 0 
L 12.40625 0 
z
" id="DejaVuSans-49"/>
      </defs>
      <g transform="translate(158.707972 327.501344)scale(0.17 -0.17)">
       <use xlink:href="#DejaVuSans-8722"/>
       <use x="83.789062" xlink:href="#DejaVuSans-49"/>
      </g>
     </g>
    </g>
    <g id="xtick_3">
     <g id="line2d_3">
      <g>
       <use style="stroke:#000000;stroke-width:0.8;" x="236.176234" xlink:href="#m67b1b8b21d" y="307.584"/>
      </g>
     </g>
     <g id="text_3">
      <!-- 0 -->
      <defs>
       <path d="M 31.78125 66.40625 
Q 24.171875 66.40625 20.328125 58.90625 
Q 16.5 51.421875 16.5 36.375 
Q 16.5 21.390625 20.328125 13.890625 
Q 24.171875 6.390625 31.78125 6.390625 
Q 39.453125 6.390625 43.28125 13.890625 
Q 47.125 21.390625 47.125 36.375 
Q 47.125 51.421875 43.28125 58.90625 
Q 39.453125 66.40625 31.78125 66.40625 
z
M 31.78125 74.21875 
Q 44.046875 74.21875 50.515625 64.515625 
Q 56.984375 54.828125 56.984375 36.375 
Q 56.984375 17.96875 50.515625 8.265625 
Q 44.046875 -1.421875 31.78125 -1.421875 
Q 19.53125 -1.421875 13.0625 8.265625 
Q 6.59375 17.96875 6.59375 36.375 
Q 6.59375 54.828125 13.0625 64.515625 
Q 19.53125 74.21875 31.78125 74.21875 
z
" id="DejaVuSans-48"/>
      </defs>
      <g transform="translate(230.768109 327.501344)scale(0.17 -0.17)">
       <use xlink:href="#DejaVuSans-48"/>
      </g>
     </g>
    </g>
    <g id="xtick_4">
     <g id="line2d_4">
      <g>
       <use style="stroke:#000000;stroke-width:0.8;" x="301.113637" xlink:href="#m67b1b8b21d" y="307.584"/>
      </g>
     </g>
     <g id="text_4">
      <!-- 1 -->
      <g transform="translate(295.705512 327.501344)scale(0.17 -0.17)">
       <use xlink:href="#DejaVuSans-49"/>
      </g>
     </g>
    </g>
    <g id="xtick_5">
     <g id="line2d_5">
      <g>
       <use style="stroke:#000000;stroke-width:0.8;" x="366.05104" xlink:href="#m67b1b8b21d" y="307.584"/>
      </g>
     </g>
     <g id="text_5">
      <!-- 2 -->
      <g transform="translate(360.642915 327.501344)scale(0.17 -0.17)">
       <use xlink:href="#DejaVuSans-50"/>
      </g>
     </g>
    </g>
    <g id="text_6">
     <!-- Position in Radian -->
     <defs>
      <path d="M 19.671875 64.796875 
L 19.671875 37.40625 
L 32.078125 37.40625 
Q 38.96875 37.40625 42.71875 40.96875 
Q 46.484375 44.53125 46.484375 51.125 
Q 46.484375 57.671875 42.71875 61.234375 
Q 38.96875 64.796875 32.078125 64.796875 
z
M 9.8125 72.90625 
L 32.078125 72.90625 
Q 44.34375 72.90625 50.609375 67.359375 
Q 56.890625 61.8125 56.890625 51.125 
Q 56.890625 40.328125 50.609375 34.8125 
Q 44.34375 29.296875 32.078125 29.296875 
L 19.671875 29.296875 
L 19.671875 0 
L 9.8125 0 
z
" id="DejaVuSans-80"/>
      <path d="M 30.609375 48.390625 
Q 23.390625 48.390625 19.1875 42.75 
Q 14.984375 37.109375 14.984375 27.296875 
Q 14.984375 17.484375 19.15625 11.84375 
Q 23.34375 6.203125 30.609375 6.203125 
Q 37.796875 6.203125 41.984375 11.859375 
Q 46.1875 17.53125 46.1875 27.296875 
Q 46.1875 37.015625 41.984375 42.703125 
Q 37.796875 48.390625 30.609375 48.390625 
z
M 30.609375 56 
Q 42.328125 56 49.015625 48.375 
Q 55.71875 40.765625 55.71875 27.296875 
Q 55.71875 13.875 49.015625 6.21875 
Q 42.328125 -1.421875 30.609375 -1.421875 
Q 18.84375 -1.421875 12.171875 6.21875 
Q 5.515625 13.875 5.515625 27.296875 
Q 5.515625 40.765625 12.171875 48.375 
Q 18.84375 56 30.609375 56 
z
" id="DejaVuSans-111"/>
      <path d="M 44.28125 53.078125 
L 44.28125 44.578125 
Q 40.484375 46.53125 36.375 47.5 
Q 32.28125 48.484375 27.875 48.484375 
Q 21.1875 48.484375 17.84375 46.4375 
Q 14.5 44.390625 14.5 40.28125 
Q 14.5 37.15625 16.890625 35.375 
Q 19.28125 33.59375 26.515625 31.984375 
L 29.59375 31.296875 
Q 39.15625 29.25 43.1875 25.515625 
Q 47.21875 21.78125 47.21875 15.09375 
Q 47.21875 7.46875 41.1875 3.015625 
Q 35.15625 -1.421875 24.609375 -1.421875 
Q 20.21875 -1.421875 15.453125 -0.5625 
Q 10.6875 0.296875 5.421875 2 
L 5.421875 11.28125 
Q 10.40625 8.6875 15.234375 7.390625 
Q 20.0625 6.109375 24.8125 6.109375 
Q 31.15625 6.109375 34.5625 8.28125 
Q 37.984375 10.453125 37.984375 14.40625 
Q 37.984375 18.0625 35.515625 20.015625 
Q 33.0625 21.96875 24.703125 23.78125 
L 21.578125 24.515625 
Q 13.234375 26.265625 9.515625 29.90625 
Q 5.8125 33.546875 5.8125 39.890625 
Q 5.8125 47.609375 11.28125 51.796875 
Q 16.75 56 26.8125 56 
Q 31.78125 56 36.171875 55.265625 
Q 40.578125 54.546875 44.28125 53.078125 
z
" id="DejaVuSans-115"/>
      <path d="M 9.421875 54.6875 
L 18.40625 54.6875 
L 18.40625 0 
L 9.421875 0 
z
M 9.421875 75.984375 
L 18.40625 75.984375 
L 18.40625 64.59375 
L 9.421875 64.59375 
z
" id="DejaVuSans-105"/>
      <path d="M 18.3125 70.21875 
L 18.3125 54.6875 
L 36.8125 54.6875 
L 36.8125 47.703125 
L 18.3125 47.703125 
L 18.3125 18.015625 
Q 18.3125 11.328125 20.140625 9.421875 
Q 21.96875 7.515625 27.59375 7.515625 
L 36.8125 7.515625 
L 36.8125 0 
L 27.59375 0 
Q 17.1875 0 13.234375 3.875 
Q 9.28125 7.765625 9.28125 18.015625 
L 9.28125 47.703125 
L 2.6875 47.703125 
L 2.6875 54.6875 
L 9.28125 54.6875 
L 9.28125 70.21875 
z
" id="DejaVuSans-116"/>
      <path d="M 54.890625 33.015625 
L 54.890625 0 
L 45.90625 0 
L 45.90625 32.71875 
Q 45.90625 40.484375 42.875 44.328125 
Q 39.84375 48.1875 33.796875 48.1875 
Q 26.515625 48.1875 22.3125 43.546875 
Q 18.109375 38.921875 18.109375 30.90625 
L 18.109375 0 
L 9.078125 0 
L 9.078125 54.6875 
L 18.109375 54.6875 
L 18.109375 46.1875 
Q 21.34375 51.125 25.703125 53.5625 
Q 30.078125 56 35.796875 56 
Q 45.21875 56 50.046875 50.171875 
Q 54.890625 44.34375 54.890625 33.015625 
z
" id="DejaVuSans-110"/>
      <path id="DejaVuSans-32"/>
      <path d="M 44.390625 34.1875 
Q 47.5625 33.109375 50.5625 29.59375 
Q 53.5625 26.078125 56.59375 19.921875 
L 66.609375 0 
L 56 0 
L 46.6875 18.703125 
Q 43.0625 26.03125 39.671875 28.421875 
Q 36.28125 30.8125 30.421875 30.8125 
L 19.671875 30.8125 
L 19.671875 0 
L 9.8125 0 
L 9.8125 72.90625 
L 32.078125 72.90625 
Q 44.578125 72.90625 50.734375 67.671875 
Q 56.890625 62.453125 56.890625 51.90625 
Q 56.890625 45.015625 53.6875 40.46875 
Q 50.484375 35.9375 44.390625 34.1875 
z
M 19.671875 64.796875 
L 19.671875 38.921875 
L 32.078125 38.921875 
Q 39.203125 38.921875 42.84375 42.21875 
Q 46.484375 45.515625 46.484375 51.90625 
Q 46.484375 58.296875 42.84375 61.546875 
Q 39.203125 64.796875 32.078125 64.796875 
z
" id="DejaVuSans-82"/>
      <path d="M 34.28125 27.484375 
Q 23.390625 27.484375 19.1875 25 
Q 14.984375 22.515625 14.984375 16.5 
Q 14.984375 11.71875 18.140625 8.90625 
Q 21.296875 6.109375 26.703125 6.109375 
Q 34.1875 6.109375 38.703125 11.40625 
Q 43.21875 16.703125 43.21875 25.484375 
L 43.21875 27.484375 
z
M 52.203125 31.203125 
L 52.203125 0 
L 43.21875 0 
L 43.21875 8.296875 
Q 40.140625 3.328125 35.546875 0.953125 
Q 30.953125 -1.421875 24.3125 -1.421875 
Q 15.921875 -1.421875 10.953125 3.296875 
Q 6 8.015625 6 15.921875 
Q 6 25.140625 12.171875 29.828125 
Q 18.359375 34.515625 30.609375 34.515625 
L 43.21875 34.515625 
L 43.21875 35.40625 
Q 43.21875 41.609375 39.140625 45 
Q 35.0625 48.390625 27.6875 48.390625 
Q 23 48.390625 18.546875 47.265625 
Q 14.109375 46.140625 10.015625 43.890625 
L 10.015625 52.203125 
Q 14.9375 54.109375 19.578125 55.046875 
Q 24.21875 56 28.609375 56 
Q 40.484375 56 46.34375 49.84375 
Q 52.203125 43.703125 52.203125 31.203125 
z
" id="DejaVuSans-97"/>
      <path d="M 45.40625 46.390625 
L 45.40625 75.984375 
L 54.390625 75.984375 
L 54.390625 0 
L 45.40625 0 
L 45.40625 8.203125 
Q 42.578125 3.328125 38.25 0.953125 
Q 33.9375 -1.421875 27.875 -1.421875 
Q 17.96875 -1.421875 11.734375 6.484375 
Q 5.515625 14.40625 5.515625 27.296875 
Q 5.515625 40.1875 11.734375 48.09375 
Q 17.96875 56 27.875 56 
Q 33.9375 56 38.25 53.625 
Q 42.578125 51.265625 45.40625 46.390625 
z
M 14.796875 27.296875 
Q 14.796875 17.390625 18.875 11.75 
Q 22.953125 6.109375 30.078125 6.109375 
Q 37.203125 6.109375 41.296875 11.75 
Q 45.40625 17.390625 45.40625 27.296875 
Q 45.40625 37.203125 41.296875 42.84375 
Q 37.203125 48.484375 30.078125 48.484375 
Q 22.953125 48.484375 18.875 42.84375 
Q 14.796875 37.203125 14.796875 27.296875 
z
" id="DejaVuSans-100"/>
     </defs>
     <g transform="translate(102.024844 357.832125)scale(0.3 -0.3)">
      <use xlink:href="#DejaVuSans-80"/>
      <use x="60.255859" xlink:href="#DejaVuSans-111"/>
      <use x="121.4375" xlink:href="#DejaVuSans-115"/>
      <use x="173.537109" xlink:href="#DejaVuSans-105"/>
      <use x="201.320312" xlink:href="#DejaVuSans-116"/>
      <use x="240.529297" xlink:href="#DejaVuSans-105"/>
      <use x="268.3125" xlink:href="#DejaVuSans-111"/>
      <use x="329.494141" xlink:href="#DejaVuSans-110"/>
      <use x="392.873047" xlink:href="#DejaVuSans-32"/>
      <use x="424.660156" xlink:href="#DejaVuSans-105"/>
      <use x="452.443359" xlink:href="#DejaVuSans-110"/>
      <use x="515.822266" xlink:href="#DejaVuSans-32"/>
      <use x="547.609375" xlink:href="#DejaVuSans-82"/>
      <use x="617.060547" xlink:href="#DejaVuSans-97"/>
      <use x="678.339844" xlink:href="#DejaVuSans-100"/>
      <use x="741.816406" xlink:href="#DejaVuSans-105"/>
      <use x="769.599609" xlink:href="#DejaVuSans-97"/>
      <use x="830.878906" xlink:href="#DejaVuSans-110"/>
     </g>
    </g>
   </g>
   <g id="matplotlib.axis_2">
    <g id="ytick_1">
     <g id="line2d_6">
      <defs>
       <path d="M 0 0 
L -3.5 0 
" id="m0dbad8c82f" style="stroke:#000000;stroke-width:0.8;"/>
      </defs>
      <g>
       <use style="stroke:#000000;stroke-width:0.8;" x="57.6" xlink:href="#m0dbad8c82f" y="307.584"/>
      </g>
     </g>
     <g id="text_7">
      <!-- 0.00 -->
      <defs>
       <path d="M 10.6875 12.40625 
L 21 12.40625 
L 21 0 
L 10.6875 0 
z
" id="DejaVuSans-46"/>
      </defs>
      <g transform="translate(12.748438 314.042672)scale(0.17 -0.17)">
       <use xlink:href="#DejaVuSans-48"/>
       <use x="63.623047" xlink:href="#DejaVuSans-46"/>
       <use x="95.410156" xlink:href="#DejaVuSans-48"/>
       <use x="159.033203" xlink:href="#DejaVuSans-48"/>
      </g>
     </g>
    </g>
    <g id="ytick_2">
     <g id="line2d_7">
      <g>
       <use style="stroke:#000000;stroke-width:0.8;" x="57.6" xlink:href="#m0dbad8c82f" y="264.6487"/>
      </g>
     </g>
     <g id="text_8">
      <!-- 0.25 -->
      <defs>
       <path d="M 10.796875 72.90625 
L 49.515625 72.90625 
L 49.515625 64.59375 
L 19.828125 64.59375 
L 19.828125 46.734375 
Q 21.96875 47.46875 24.109375 47.828125 
Q 26.265625 48.1875 28.421875 48.1875 
Q 40.625 48.1875 47.75 41.5 
Q 54.890625 34.8125 54.890625 23.390625 
Q 54.890625 11.625 47.5625 5.09375 
Q 40.234375 -1.421875 26.90625 -1.421875 
Q 22.3125 -1.421875 17.546875 -0.640625 
Q 12.796875 0.140625 7.71875 1.703125 
L 7.71875 11.625 
Q 12.109375 9.234375 16.796875 8.0625 
Q 21.484375 6.890625 26.703125 6.890625 
Q 35.15625 6.890625 40.078125 11.328125 
Q 45.015625 15.765625 45.015625 23.390625 
Q 45.015625 31 40.078125 35.4375 
Q 35.15625 39.890625 26.703125 39.890625 
Q 22.75 39.890625 18.8125 39.015625 
Q 14.890625 38.140625 10.796875 36.28125 
z
" id="DejaVuSans-53"/>
      </defs>
      <g transform="translate(12.748438 271.107372)scale(0.17 -0.17)">
       <use xlink:href="#DejaVuSans-48"/>
       <use x="63.623047" xlink:href="#DejaVuSans-46"/>
       <use x="95.410156" xlink:href="#DejaVuSans-50"/>
       <use x="159.033203" xlink:href="#DejaVuSans-53"/>
      </g>
     </g>
    </g>
    <g id="ytick_3">
     <g id="line2d_8">
      <g>
       <use style="stroke:#000000;stroke-width:0.8;" x="57.6" xlink:href="#m0dbad8c82f" y="221.7134"/>
      </g>
     </g>
     <g id="text_9">
      <!-- 0.50 -->
      <g transform="translate(12.748438 228.172072)scale(0.17 -0.17)">
       <use xlink:href="#DejaVuSans-48"/>
       <use x="63.623047" xlink:href="#DejaVuSans-46"/>
       <use x="95.410156" xlink:href="#DejaVuSans-53"/>
       <use x="159.033203" xlink:href="#DejaVuSans-48"/>
      </g>
     </g>
    </g>
    <g id="ytick_4">
     <g id="line2d_9">
      <g>
       <use style="stroke:#000000;stroke-width:0.8;" x="57.6" xlink:href="#m0dbad8c82f" y="178.7781"/>
      </g>
     </g>
     <g id="text_10">
      <!-- 0.75 -->
      <defs>
       <path d="M 8.203125 72.90625 
L 55.078125 72.90625 
L 55.078125 68.703125 
L 28.609375 0 
L 18.3125 0 
L 43.21875 64.59375 
L 8.203125 64.59375 
z
" id="DejaVuSans-55"/>
      </defs>
      <g transform="translate(12.748438 185.236772)scale(0.17 -0.17)">
       <use xlink:href="#DejaVuSans-48"/>
       <use x="63.623047" xlink:href="#DejaVuSans-46"/>
       <use x="95.410156" xlink:href="#DejaVuSans-55"/>
       <use x="159.033203" xlink:href="#DejaVuSans-53"/>
      </g>
     </g>
    </g>
    <g id="ytick_5">
     <g id="line2d_10">
      <g>
       <use style="stroke:#000000;stroke-width:0.8;" x="57.6" xlink:href="#m0dbad8c82f" y="135.8428"/>
      </g>
     </g>
     <g id="text_11">
      <!-- 1.00 -->
      <g transform="translate(12.748438 142.301472)scale(0.17 -0.17)">
       <use xlink:href="#DejaVuSans-49"/>
       <use x="63.623047" xlink:href="#DejaVuSans-46"/>
       <use x="95.410156" xlink:href="#DejaVuSans-48"/>
       <use x="159.033203" xlink:href="#DejaVuSans-48"/>
      </g>
     </g>
    </g>
    <g id="ytick_6">
     <g id="line2d_11">
      <g>
       <use style="stroke:#000000;stroke-width:0.8;" x="57.6" xlink:href="#m0dbad8c82f" y="92.9075"/>
      </g>
     </g>
     <g id="text_12">
      <!-- 1.25 -->
      <g transform="translate(12.748438 99.366171)scale(0.17 -0.17)">
       <use xlink:href="#DejaVuSans-49"/>
       <use x="63.623047" xlink:href="#DejaVuSans-46"/>
       <use x="95.410156" xlink:href="#DejaVuSans-50"/>
       <use x="159.033203" xlink:href="#DejaVuSans-53"/>
      </g>
     </g>
    </g>
    <g id="ytick_7">
     <g id="line2d_12">
      <g>
       <use style="stroke:#000000;stroke-width:0.8;" x="57.6" xlink:href="#m0dbad8c82f" y="49.972199"/>
      </g>
     </g>
     <g id="text_13">
      <!-- 1.50 -->
      <g transform="translate(12.748438 56.430871)scale(0.17 -0.17)">
       <use xlink:href="#DejaVuSans-49"/>
       <use x="63.623047" xlink:href="#DejaVuSans-46"/>
       <use x="95.410156" xlink:href="#DejaVuSans-53"/>
       <use x="159.033203" xlink:href="#DejaVuSans-48"/>
      </g>
     </g>
    </g>
    <g id="text_14">
     <!-- Density -->
     <defs>
      <path d="M 19.671875 64.796875 
L 19.671875 8.109375 
L 31.59375 8.109375 
Q 46.6875 8.109375 53.6875 14.9375 
Q 60.6875 21.78125 60.6875 36.53125 
Q 60.6875 51.171875 53.6875 57.984375 
Q 46.6875 64.796875 31.59375 64.796875 
z
M 9.8125 72.90625 
L 30.078125 72.90625 
Q 51.265625 72.90625 61.171875 64.09375 
Q 71.09375 55.28125 71.09375 36.53125 
Q 71.09375 17.671875 61.125 8.828125 
Q 51.171875 0 30.078125 0 
L 9.8125 0 
z
" id="DejaVuSans-68"/>
      <path d="M 56.203125 29.59375 
L 56.203125 25.203125 
L 14.890625 25.203125 
Q 15.484375 15.921875 20.484375 11.0625 
Q 25.484375 6.203125 34.421875 6.203125 
Q 39.59375 6.203125 44.453125 7.46875 
Q 49.3125 8.734375 54.109375 11.28125 
L 54.109375 2.78125 
Q 49.265625 0.734375 44.1875 -0.34375 
Q 39.109375 -1.421875 33.890625 -1.421875 
Q 20.796875 -1.421875 13.15625 6.1875 
Q 5.515625 13.8125 5.515625 26.8125 
Q 5.515625 40.234375 12.765625 48.109375 
Q 20.015625 56 32.328125 56 
Q 43.359375 56 49.78125 48.890625 
Q 56.203125 41.796875 56.203125 29.59375 
z
M 47.21875 32.234375 
Q 47.125 39.59375 43.09375 43.984375 
Q 39.0625 48.390625 32.421875 48.390625 
Q 24.90625 48.390625 20.390625 44.140625 
Q 15.875 39.890625 15.1875 32.171875 
z
" id="DejaVuSans-101"/>
      <path d="M 32.171875 -5.078125 
Q 28.375 -14.84375 24.75 -17.8125 
Q 21.140625 -20.796875 15.09375 -20.796875 
L 7.90625 -20.796875 
L 7.90625 -13.28125 
L 13.1875 -13.28125 
Q 16.890625 -13.28125 18.9375 -11.515625 
Q 21 -9.765625 23.484375 -3.21875 
L 25.09375 0.875 
L 2.984375 54.6875 
L 12.5 54.6875 
L 29.59375 11.921875 
L 46.6875 54.6875 
L 56.203125 54.6875 
z
" id="DejaVuSans-121"/>
     </defs>
     <g transform="translate(2.509375 231.553781)rotate(-90)scale(0.3 -0.3)">
      <use xlink:href="#DejaVuSans-68"/>
      <use x="77.001953" xlink:href="#DejaVuSans-101"/>
      <use x="138.525391" xlink:href="#DejaVuSans-110"/>
      <use x="201.904297" xlink:href="#DejaVuSans-115"/>
      <use x="254.003906" xlink:href="#DejaVuSans-105"/>
      <use x="281.787109" xlink:href="#DejaVuSans-116"/>
      <use x="320.996094" xlink:href="#DejaVuSans-121"/>
     </g>
    </g>
   </g>
   <g id="line2d_13">
    <path clip-path="url(#p3065c0c0a7)" d="M 73.832727 307.584 
L 101.593467 307.473558 
L 101.983091 307.208318 
L 102.372716 306.655108 
L 103.76887 304.304736 
L 104.093557 304.273207 
L 104.483181 304.505016 
L 105.294899 305.072168 
L 105.52218 304.944634 
L 105.749461 304.538037 
L 106.074148 303.391255 
L 106.593647 300.47521 
L 107.307958 296.691837 
L 107.632645 295.92884 
L 107.859926 295.847352 
L 108.054739 296.083208 
L 108.314488 296.854772 
L 108.704113 298.881595 
L 109.450893 302.783579 
L 109.77558 303.385477 
L 110.002861 303.419502 
L 110.230142 303.188498 
L 110.52236 302.481869 
L 110.879516 300.914875 
L 111.723702 296.864375 
L 111.886045 296.797106 
L 112.048389 297.067605 
L 112.340607 298.185389 
L 112.892575 300.286495 
L 113.087387 300.439127 
L 113.249731 300.282608 
L 113.50948 299.609982 
L 113.931574 297.806241 
L 114.386135 294.874524 
L 115.295259 288.522745 
L 115.457602 288.344141 
L 115.490071 288.361507 
L 115.619946 288.603753 
L 115.847227 289.638278 
L 116.236851 292.746663 
L 116.983631 298.898127 
L 117.210912 299.467881 
L 117.340787 299.399576 
L 117.535599 298.835567 
L 118.477192 295.354785 
L 118.639535 295.437011 
L 119.483721 296.217773 
L 119.808408 295.912792 
L 120.165564 295.666775 
L 120.360376 295.801261 
L 120.587657 296.297912 
L 121.00975 297.924619 
L 121.464312 299.399179 
L 121.724062 299.643215 
L 121.918874 299.545341 
L 122.211092 299.087386 
L 122.633186 297.981712 
L 123.055279 296.205432 
L 123.964402 291.97921 
L 124.094277 292.008726 
L 124.256621 292.423076 
L 124.51637 293.865829 
L 125.5229 300.296254 
L 125.717712 300.438267 
L 125.912524 300.238293 
L 126.594367 299.262869 
L 126.821648 299.365812 
L 127.730772 300.090783 
L 128.02299 299.886225 
L 128.445083 299.281129 
L 129.061988 297.96036 
L 129.646425 296.818171 
L 129.906175 296.693816 
L 130.133456 296.84152 
L 130.52308 297.462421 
L 132.730952 301.350549 
L 133.899825 302.53709 
L 134.159575 302.500504 
L 134.451793 302.193314 
L 134.873886 301.335449 
L 135.945353 298.481712 
L 136.367446 296.650121 
L 136.822008 293.585006 
L 137.666194 287.600283 
L 137.861006 287.31001 
L 137.990881 287.422148 
L 138.218162 288.052332 
L 138.835068 290.75691 
L 139.322098 293.742697 
L 139.874066 297.05315 
L 140.036409 297.290937 
L 140.068878 297.278226 
L 140.198753 297.026008 
L 140.426034 295.916557 
L 141.107877 292.167713 
L 141.27022 292.104819 
L 141.432564 292.391995 
L 141.854657 293.859973 
L 142.341687 295.162315 
L 142.796249 295.781557 
L 143.088467 295.901634 
L 143.380686 295.765118 
L 143.900185 295.463188 
L 144.127466 295.589952 
L 144.484622 296.129532 
L 145.26387 297.803825 
L 145.78337 299.579309 
L 146.53015 302.054472 
L 146.822368 302.395292 
L 147.01718 302.34661 
L 147.27693 301.970429 
L 149.289989 297.565644 
L 150.426394 292.996143 
L 150.751081 292.779906 
L 151.238111 292.501051 
L 151.627736 292.30922 
L 151.822548 292.47818 
L 152.049829 293.033953 
L 152.406985 294.645442 
L 153.251171 298.690427 
L 153.445983 298.796029 
L 153.608327 298.499831 
L 153.868076 297.373582 
L 154.874606 292.194467 
L 155.101887 292.011948 
L 155.329168 292.139969 
L 156.660385 293.652921 
L 157.27729 294.658423 
L 157.472102 294.606599 
L 157.731852 294.212931 
L 158.413694 293.049027 
L 159.063068 292.303734 
L 159.77738 291.215165 
L 159.939723 291.286167 
L 160.134536 291.675451 
L 160.426754 292.922594 
L 161.238471 296.843651 
L 161.368346 296.773348 
L 161.53069 296.273772 
L 161.822908 294.435281 
L 163.641155 280.981841 
L 163.738561 281.050222 
L 163.900905 281.700442 
L 164.160655 284.014132 
L 165.26459 295.575739 
L 165.52434 296.230587 
L 165.686684 296.21133 
L 165.881496 295.7894 
L 166.173714 294.462604 
L 167.5374 287.215641 
L 167.991961 285.950416 
L 168.186774 285.835111 
L 168.349117 286.051161 
L 168.576398 286.84189 
L 169.453053 290.437137 
L 169.582928 290.377412 
L 169.77774 289.978324 
L 170.52452 288.155375 
L 170.719332 288.197065 
L 171.108957 288.357094 
L 171.2713 288.033934 
L 171.466112 287.050816 
L 171.790799 283.940064 
L 172.375236 278.312028 
L 172.505111 278.060041 
L 172.53758 278.077773 
L 172.667454 278.463131 
L 172.894735 280.162907 
L 173.706453 287.234303 
L 173.901265 287.511374 
L 174.03114 287.396047 
L 174.388296 286.566462 
L 174.648045 286.232344 
L 174.810389 286.345083 
L 175.03767 286.909111 
L 175.979262 289.712779 
L 176.726042 290.852226 
L 177.472822 292.406894 
L 177.602697 292.320811 
L 177.797509 291.836979 
L 178.089728 290.336533 
L 178.966382 285.195928 
L 179.096257 285.241583 
L 179.258601 285.759322 
L 179.550819 287.692099 
L 180.102787 291.316314 
L 180.265131 291.504534 
L 180.395005 291.233273 
L 180.589818 290.131249 
L 180.946973 286.480459 
L 181.563879 280.307883 
L 181.856097 279.272594 
L 182.050909 279.197108 
L 182.310659 279.46063 
L 183.057439 280.63061 
L 183.349657 281.723753 
L 184.258781 285.86476 
L 184.291249 285.855959 
L 184.421124 285.617925 
L 184.615937 284.647903 
L 184.973092 281.353162 
L 185.622466 275.320395 
L 185.882216 274.480318 
L 186.044559 274.463263 
L 186.239372 274.814898 
L 187.245901 277.237875 
L 187.440714 277.163274 
L 187.635526 276.78418 
L 187.895275 275.723792 
L 188.252431 273.211874 
L 189.356367 264.592282 
L 189.616117 264.039616 
L 189.77846 264.051182 
L 189.973272 264.377701 
L 190.297959 265.46847 
L 192.213613 272.807199 
L 192.343487 272.799613 
L 192.473362 272.435188 
L 192.700643 270.848529 
L 193.122736 265.623771 
L 193.512361 261.74966 
L 193.642235 261.422262 
L 193.674704 261.438134 
L 193.77211 261.727267 
L 193.966923 263.345725 
L 194.356547 269.32958 
L 194.811109 275.325727 
L 195.03839 276.149413 
L 195.135796 276.014905 
L 195.330608 275.038248 
L 195.78517 270.981281 
L 196.304669 267.15019 
L 196.596887 266.203242 
L 196.7917 266.106306 
L 196.986512 266.336442 
L 197.311199 266.73796 
L 197.441074 266.577741 
L 197.603417 265.869452 
L 197.830698 263.697244 
L 198.187854 257.698553 
L 198.902165 245.454248 
L 199.161915 244.15064 
L 199.259321 244.200196 
L 199.421664 244.811232 
L 200.168444 248.842249 
L 200.200913 248.818386 
L 200.330788 248.452048 
L 200.558069 246.859005 
L 201.629536 237.767873 
L 201.986692 236.9532 
L 202.246441 236.7603 
L 202.408785 236.88793 
L 202.636066 237.480633 
L 203.317909 239.759033 
L 203.350377 239.739607 
L 203.480252 239.459459 
L 203.707533 238.258029 
L 204.324438 234.616424 
L 204.421844 234.649295 
L 204.551719 235.105171 
L 204.779 236.985387 
L 205.201093 242.867452 
L 205.947873 252.804659 
L 206.240092 254.245899 
L 206.337498 254.267231 
L 206.369966 254.22553 
L 206.53231 253.703585 
L 207.214153 250.834628 
L 207.344027 251.002826 
L 207.603777 251.956326 
L 207.960933 253.068795 
L 208.090808 253.010999 
L 208.253151 252.466496 
L 208.512901 250.597386 
L 209.746711 240.11235 
L 210.071398 239.201941 
L 210.233742 239.138359 
L 210.396085 239.341346 
L 210.948053 240.531262 
L 211.012991 240.477758 
L 211.142866 240.092248 
L 211.337678 238.724449 
L 211.694833 234.161682 
L 212.246801 227.595122 
L 212.506551 226.65484 
L 212.636426 226.671505 
L 212.831238 227.094588 
L 214.000111 230.456765 
L 214.259861 230.491833 
L 214.552079 230.245213 
L 215.006641 229.476254 
L 215.493672 228.742038 
L 215.688484 228.735889 
L 215.883296 228.968634 
L 216.597607 230.249274 
L 216.630076 230.220522 
L 216.79242 229.813661 
L 217.019701 228.368801 
L 217.344388 224.424067 
L 218.448323 209.192983 
L 219.617197 199.800493 
L 219.714603 199.934676 
L 219.909415 200.876181 
L 220.396445 205.060695 
L 220.948413 208.816064 
L 221.467913 211.035878 
L 221.695194 211.3503 
L 221.825068 211.213162 
L 222.019881 210.524889 
L 222.377036 208.099681 
L 223.221222 202.24749 
L 224.03294 197.644043 
L 224.195284 197.536869 
L 224.325158 197.779617 
L 224.552439 198.849599 
L 224.974532 202.272442 
L 225.591438 207.037911 
L 225.818719 207.60339 
L 225.916125 207.560443 
L 226.078468 207.134639 
L 226.760311 204.366601 
L 226.825248 204.418551 
L 226.955123 204.816102 
L 227.214873 206.633943 
L 227.799309 210.969497 
L 227.896715 211.081088 
L 227.929184 211.063464 
L 228.059059 210.726176 
L 228.28634 209.25653 
L 229.130526 202.782263 
L 229.260401 202.681038 
L 229.29287 202.706998 
L 229.455213 203.124751 
L 229.714963 204.627971 
L 230.559149 210.184416 
L 230.656555 210.001439 
L 230.818899 208.92731 
L 231.078648 205.191479 
L 232.052709 188.683145 
L 232.27999 188.087005 
L 232.409865 188.133075 
L 232.734552 188.664049 
L 233.091708 189.049585 
L 233.28652 188.962642 
L 233.513801 188.501482 
L 233.903425 187.010319 
L 234.487862 184.252348 
L 234.682674 181.549597 
L 234.909955 174.266165 
L 235.169705 157.158673 
L 235.559329 112.851494 
L 236.078828 58.12491 
L 236.241172 54.144 
L 236.306109 54.925884 
L 236.435984 60.38954 
L 236.695734 83.816438 
L 237.604857 177.177415 
L 237.929544 189.03668 
L 238.124356 190.728584 
L 238.189294 190.52606 
L 238.351637 188.606725 
L 238.643856 181.485274 
L 239.423104 161.483469 
L 239.747792 158.29693 
L 239.942604 157.837525 
L 240.04001 158.047928 
L 240.202353 159.183711 
L 240.429634 162.751907 
L 240.754321 172.02379 
L 241.728382 202.684959 
L 242.118007 207.590075 
L 242.475162 209.686815 
L 242.669975 210.02399 
L 242.799849 209.892739 
L 242.994662 209.15525 
L 243.351817 206.589701 
L 244.066129 201.64029 
L 244.520691 198.213722 
L 245.202533 190.481421 
L 245.78697 185.179419 
L 246.890906 178.190996 
L 246.955843 178.158028 
L 246.988312 178.193092 
L 247.118187 178.724121 
L 247.312999 180.828372 
L 247.637686 187.603158 
L 248.416935 205.209753 
L 248.676684 207.06805 
L 248.806559 207.186346 
L 248.936434 206.885247 
L 249.163715 205.620277 
L 249.553339 202.029772 
L 250.689744 190.471013 
L 250.78715 190.616916 
L 250.949493 191.594741 
L 251.209243 194.851794 
L 251.956023 205.250316 
L 252.085898 205.553031 
L 252.118367 205.532039 
L 252.248242 205.096958 
L 252.507991 203.038433 
L 252.930084 200.055533 
L 253.02749 199.997382 
L 253.059959 200.047527 
L 253.189834 200.586336 
L 253.449584 202.930214 
L 253.969083 207.601672 
L 254.163895 207.967905 
L 254.29377 207.793391 
L 254.553519 206.881419 
L 255.170425 203.811975 
L 255.949674 199.183255 
L 255.982142 199.189467 
L 256.079548 199.392481 
L 256.241892 200.359396 
L 256.53411 203.794337 
L 257.313359 213.808636 
L 257.573109 214.825607 
L 257.702983 214.866398 
L 257.865327 214.581236 
L 258.157545 213.405036 
L 259.099138 208.645398 
L 259.164075 208.69899 
L 259.29395 209.14508 
L 259.521231 211.067948 
L 260.008261 218.126806 
L 260.332948 221.096303 
L 260.397886 221.200727 
L 260.430354 221.18165 
L 260.52776 220.837455 
L 260.722573 218.945839 
L 261.209603 210.716161 
L 261.53429 207.04217 
L 261.696634 206.634423 
L 261.79404 206.866131 
L 261.988852 208.266967 
L 262.346008 213.036288 
L 263.385006 227.862169 
L 263.774631 230.395915 
L 264.424005 233.638456 
L 264.878566 238.39427 
L 265.268191 241.460695 
L 265.398066 241.635925 
L 265.430534 241.601457 
L 265.560409 241.16562 
L 265.820159 239.174258 
L 266.437064 234.218888 
L 266.631876 233.897539 
L 266.761751 234.061131 
L 266.989032 234.86885 
L 267.638406 237.391062 
L 267.80075 237.455277 
L 267.963093 237.189544 
L 268.190374 236.246078 
L 268.54753 233.560847 
L 269.164435 228.845693 
L 269.359247 228.546538 
L 269.489122 228.760036 
L 269.748872 229.862094 
L 270.203433 231.672619 
L 270.365777 231.741589 
L 270.52812 231.483391 
L 271.112557 230.175127 
L 271.145026 230.189442 
L 271.274901 230.402622 
L 271.502181 231.331994 
L 272.184024 234.562208 
L 272.313899 234.550222 
L 272.476243 234.126574 
L 272.735992 232.631137 
L 273.774991 225.56193 
L 273.904865 225.531038 
L 274.03474 225.777223 
L 274.262021 226.791232 
L 274.716583 230.163274 
L 276.177674 241.496432 
L 276.404955 242.028457 
L 276.53483 241.984361 
L 276.697174 241.593963 
L 276.989392 240.157317 
L 277.736172 236.243228 
L 277.866047 236.224639 
L 277.995922 236.523764 
L 278.223203 237.733706 
L 279.392076 245.217208 
L 279.814169 248.100226 
L 280.853167 256.034206 
L 281.664885 259.587335 
L 282.671415 262.775874 
L 283.255851 264.219046 
L 284.29485 266.205598 
L 284.457193 266.000527 
L 284.684474 265.284343 
L 285.463723 262.140959 
L 285.528661 262.179398 
L 285.658535 262.539677 
L 285.885816 264.11202 
L 286.340378 269.531546 
L 286.762471 273.387388 
L 287.022221 274.131991 
L 287.217033 274.147761 
L 287.54172 274.087083 
L 287.736532 274.372174 
L 287.996282 275.241999 
L 289.100218 279.564392 
L 289.262561 279.513362 
L 289.457373 279.05934 
L 289.749592 277.660683 
L 290.496372 273.753206 
L 290.691184 273.584201 
L 290.821059 273.749825 
L 291.04834 274.513754 
L 291.957463 278.240203 
L 292.087338 278.146037 
L 292.347088 277.523158 
L 292.736712 276.687155 
L 292.899056 276.698805 
L 293.158805 277.080173 
L 293.451024 277.380813 
L 293.580898 277.245643 
L 293.775711 276.615648 
L 294.100398 274.621447 
L 294.912115 269.490821 
L 295.593958 266.815836 
L 295.886176 266.296464 
L 296.04852 266.321116 
L 296.243332 266.670911 
L 296.665425 268.134317 
L 296.925175 268.688435 
L 297.05505 268.614297 
L 297.217393 268.102334 
L 297.509611 266.157763 
L 297.996642 262.98391 
L 298.094048 262.89322 
L 298.126517 262.925166 
L 298.256391 263.382175 
L 298.483672 265.417897 
L 299.457733 276.709221 
L 299.490202 276.70008 
L 299.587608 276.458847 
L 299.78242 275.136164 
L 300.756481 266.773978 
L 300.886356 266.770037 
L 301.0487 267.165534 
L 301.340918 268.740932 
L 302.574729 276.585011 
L 302.737072 276.596665 
L 303.029291 276.224331 
L 303.256571 276.106276 
L 303.386446 276.299028 
L 303.581258 277.075132 
L 303.905946 279.55102 
L 304.490382 283.949636 
L 304.685194 284.261202 
L 304.815069 284.061897 
L 305.04235 283.079893 
L 305.78913 279.347619 
L 305.919005 279.366625 
L 306.081348 279.783662 
L 306.373567 281.389206 
L 307.087878 285.547116 
L 307.380097 286.115685 
L 307.672315 286.224888 
L 307.964533 286.356243 
L 308.224283 286.753483 
L 308.873657 287.898489 
L 309.036 287.776369 
L 309.263281 287.211165 
L 309.750312 285.134397 
L 310.367217 282.843527 
L 310.724373 282.225716 
L 310.951654 282.170492 
L 311.53609 282.247497 
L 311.730903 281.764343 
L 311.990652 280.364619 
L 312.899776 274.457494 
L 312.997182 274.548245 
L 313.159525 275.159853 
L 313.451744 277.410902 
L 314.328399 284.87186 
L 314.750492 286.42137 
L 315.757022 289.132136 
L 315.78949 289.119635 
L 315.919365 288.911003 
L 316.114177 288.088589 
L 316.438864 285.547726 
L 317.088238 280.479213 
L 317.315519 279.991421 
L 317.445394 280.067353 
L 317.640206 280.59624 
L 317.964893 282.339563 
L 318.581799 287.262954 
L 319.101298 290.675112 
L 319.361047 291.243125 
L 319.490922 291.164374 
L 319.685734 290.636553 
L 320.432515 288.002533 
L 320.464983 288.02414 
L 320.594858 288.304508 
L 320.822139 289.497996 
L 321.7962 295.769659 
L 322.023481 295.941749 
L 322.250762 295.79373 
L 322.54298 295.300223 
L 322.835198 294.300563 
L 323.159885 292.23783 
L 323.776791 286.294554 
L 324.198884 283.404962 
L 324.393696 283.064056 
L 324.523571 283.200465 
L 324.750852 283.960784 
L 325.367757 286.228726 
L 325.530101 286.290791 
L 325.692444 286.064609 
L 325.952194 285.158657 
L 326.374287 282.607456 
L 327.023661 278.780478 
L 327.283411 278.286339 
L 327.445754 278.323627 
L 327.640566 278.660035 
L 327.932785 279.699507 
L 328.28994 281.962108 
L 328.906846 287.873288 
L 329.328939 290.892085 
L 329.588688 291.570109 
L 329.751032 291.553299 
L 329.945844 291.175246 
L 330.303 289.846044 
L 330.822499 288.060458 
L 331.017311 287.958975 
L 331.179655 288.212107 
L 331.439404 289.175967 
L 332.316059 292.853098 
L 332.54334 293.014533 
L 332.738152 292.875353 
L 333.030371 292.320119 
L 333.712213 290.348392 
L 334.848618 287.336893 
L 335.335648 286.395373 
L 335.595398 286.266537 
L 335.822679 286.394963 
L 336.147366 286.879253 
L 336.634397 288.048956 
L 337.381177 290.519926 
L 338.2903 293.582331 
L 338.420175 293.563586 
L 338.582519 293.160028 
L 338.8098 291.828837 
L 339.264361 287.388155 
L 339.653986 284.424798 
L 339.816329 284.109702 
L 339.848798 284.125704 
L 339.978673 284.450456 
L 340.205954 285.906767 
L 341.180015 293.445999 
L 341.342358 293.539109 
L 341.53717 293.313831 
L 341.926795 292.822703 
L 342.089138 292.923543 
L 342.316419 293.446957 
L 342.998262 295.299807 
L 343.160606 295.217218 
L 343.387886 294.683661 
L 343.972323 293.149174 
L 344.102198 293.258898 
L 344.29701 293.924925 
L 344.621697 296.196468 
L 345.368477 301.673946 
L 345.595758 302.064993 
L 345.725633 301.936425 
L 345.920445 301.318368 
L 346.342538 298.959461 
L 346.7971 296.916258 
L 347.05685 296.549218 
L 347.381537 296.534335 
L 347.641286 296.421343 
L 347.933505 295.978297 
L 348.420535 295.269011 
L 348.582879 295.378358 
L 348.777691 295.900032 
L 349.069909 297.487829 
L 349.881627 302.374442 
L 350.076439 302.574239 
L 350.238782 302.447159 
L 350.855688 301.712421 
L 351.0505 301.954874 
L 351.342718 302.811394 
L 352.349248 306.181337 
L 352.608998 306.379054 
L 352.80381 306.234439 
L 353.063559 305.654652 
L 354.070089 302.841752 
L 354.264901 302.931128 
L 354.589588 303.451333 
L 354.979213 303.93503 
L 355.141556 303.878656 
L 355.336369 303.540687 
L 355.661056 302.405363 
L 356.407836 299.65588 
L 356.732523 299.253467 
L 357.122147 299.139926 
L 357.54424 299.204278 
L 357.836459 299.489957 
L 358.226083 300.275037 
L 358.713113 301.144148 
L 358.907926 301.125921 
L 359.135207 300.764878 
L 359.914455 299.137994 
L 360.076799 299.260251 
L 360.30408 299.791408 
L 361.375547 302.912225 
L 361.537891 302.850923 
L 361.765171 302.468636 
L 362.154796 301.222588 
L 362.739232 299.394165 
L 362.966513 299.227795 
L 363.128857 299.372393 
L 363.388606 300.005912 
L 364.719823 304.021835 
L 365.661416 305.469182 
L 367.05757 306.691127 
L 367.349788 306.666324 
L 367.869287 306.28593 
L 368.193974 306.206418 
L 368.486193 306.387182 
L 369.622597 307.381948 
L 369.947284 307.279957 
L 370.369377 306.866608 
L 371.018751 306.227391 
L 371.278501 306.25802 
L 371.603188 306.553014 
L 372.349968 307.285164 
L 372.674655 307.283657 
L 373.031811 307.016833 
L 373.908466 306.213577 
L 374.168215 306.318359 
L 374.590308 306.793283 
L 375.174745 307.378767 
L 375.661776 307.548076 
L 376.700774 307.583545 
L 377.902116 307.47201 
L 378.324209 307.195655 
L 379.460614 306.222279 
L 379.785301 306.443545 
L 380.402206 306.892997 
L 380.694424 306.801392 
L 381.636017 306.235194 
L 381.960704 306.503114 
L 382.902296 307.445035 
L 383.454264 307.568287 
L 385.30498 307.584 
L 398.487273 307.584 
L 398.487273 307.584 
" style="fill:none;stroke:#ff7f0e;stroke-linecap:square;stroke-width:1.5;"/>
   </g>
   <g id="patch_103">
    <path d="M 57.6 307.584 
L 57.6 41.472 
" style="fill:none;stroke:#000000;stroke-linecap:square;stroke-linejoin:miter;stroke-width:0.8;"/>
   </g>
   <g id="patch_104">
    <path d="M 414.72 307.584 
L 414.72 41.472 
" style="fill:none;stroke:#000000;stroke-linecap:square;stroke-linejoin:miter;stroke-width:0.8;"/>
   </g>
   <g id="patch_105">
    <path d="M 57.6 307.584 
L 414.72 307.584 
" style="fill:none;stroke:#000000;stroke-linecap:square;stroke-linejoin:miter;stroke-width:0.8;"/>
   </g>
   <g id="patch_106">
    <path d="M 57.6 41.472 
L 414.72 41.472 
" style="fill:none;stroke:#000000;stroke-linecap:square;stroke-linejoin:miter;stroke-width:0.8;"/>
   </g>
  </g>
 </g>
 <defs>
  <clipPath id="p3065c0c0a7">
   <rect height="266.112" width="357.12" x="57.6" y="41.472"/>
  </clipPath>
 </defs>
</svg>
