<?xml version="1.0" encoding="utf-8" standalone="no"?>
<!DOCTYPE svg PUBLIC "-//W3C//DTD SVG 1.1//EN"
  "http://www.w3.org/Graphics/SVG/1.1/DTD/svg11.dtd">
<!-- Created with matplotlib (https://matplotlib.org/) -->
<svg height="345.6pt" version="1.1" viewBox="0 0 460.8 345.6" width="460.8pt" xmlns="http://www.w3.org/2000/svg" xmlns:xlink="http://www.w3.org/1999/xlink">
 <defs>
  <style type="text/css">
*{stroke-linecap:butt;stroke-linejoin:round;}
  </style>
 </defs>
 <g id="figure_1">
  <g id="patch_1">
   <path d="M 0 345.6 
L 460.8 345.6 
L 460.8 0 
L 0 0 
z
" style="fill:#ffffff;"/>
  </g>
  <g id="axes_1">
   <g id="patch_2">
    <path d="M 57.6 307.584 
L 414.72 307.584 
L 414.72 41.472 
L 57.6 41.472 
z
" style="fill:#ffffff;"/>
   </g>
   <g id="patch_3">
    <path clip-path="url(#pde247d4178)" d="M 97.864827 307.584 
L 100.70121 307.584 
L 100.70121 306.00504 
L 97.864827 306.00504 
z
" style="fill:#1f77b4;"/>
   </g>
   <g id="patch_4">
    <path clip-path="url(#pde247d4178)" d="M 100.70121 307.584 
L 103.537579 307.584 
L 103.537579 307.057677 
L 100.70121 307.057677 
z
" style="fill:#1f77b4;"/>
   </g>
   <g id="patch_5">
    <path clip-path="url(#pde247d4178)" d="M 103.537579 307.584 
L 106.373962 307.584 
L 106.373962 303.89976 
L 103.537579 303.89976 
z
" style="fill:#1f77b4;"/>
   </g>
   <g id="patch_6">
    <path clip-path="url(#pde247d4178)" d="M 106.373962 307.584 
L 109.210346 307.584 
L 109.210346 299.689201 
L 106.373962 299.689201 
z
" style="fill:#1f77b4;"/>
   </g>
   <g id="patch_7">
    <path clip-path="url(#pde247d4178)" d="M 109.210346 307.584 
L 112.046722 307.584 
L 112.046722 300.741822 
L 109.210346 300.741822 
z
" style="fill:#1f77b4;"/>
   </g>
   <g id="patch_8">
    <path clip-path="url(#pde247d4178)" d="M 112.046722 307.584 
L 114.883105 307.584 
L 114.883105 301.79448 
L 112.046722 301.79448 
z
" style="fill:#1f77b4;"/>
   </g>
   <g id="patch_9">
    <path clip-path="url(#pde247d4178)" d="M 114.883097 307.584 
L 117.719473 307.584 
L 117.719473 298.636536 
L 114.883097 298.636536 
z
" style="fill:#1f77b4;"/>
   </g>
   <g id="patch_10">
    <path clip-path="url(#pde247d4178)" d="M 117.719481 307.584 
L 120.555865 307.584 
L 120.555865 297.057601 
L 117.719481 297.057601 
z
" style="fill:#1f77b4;"/>
   </g>
   <g id="patch_11">
    <path clip-path="url(#pde247d4178)" d="M 120.555865 307.584 
L 123.392241 307.584 
L 123.392241 298.110215 
L 120.555865 298.110215 
z
" style="fill:#1f77b4;"/>
   </g>
   <g id="patch_12">
    <path clip-path="url(#pde247d4178)" d="M 123.392233 307.584 
L 126.228609 307.584 
L 126.228609 295.478608 
L 123.392233 295.478608 
z
" style="fill:#1f77b4;"/>
   </g>
   <g id="patch_13">
    <path clip-path="url(#pde247d4178)" d="M 126.228616 307.584 
L 129.065 307.584 
L 129.065 294.952321 
L 126.228616 294.952321 
z
" style="fill:#1f77b4;"/>
   </g>
   <g id="patch_14">
    <path clip-path="url(#pde247d4178)" d="M 129.065 307.584 
L 131.901376 307.584 
L 131.901376 293.373322 
L 129.065 293.373322 
z
" style="fill:#1f77b4;"/>
   </g>
   <g id="patch_15">
    <path clip-path="url(#pde247d4178)" d="M 131.901376 307.584 
L 134.737759 307.584 
L 134.737759 295.478641 
L 131.901376 295.478641 
z
" style="fill:#1f77b4;"/>
   </g>
   <g id="patch_16">
    <path clip-path="url(#pde247d4178)" d="M 134.737752 307.584 
L 137.574128 307.584 
L 137.574128 293.373322 
L 134.737752 293.373322 
z
" style="fill:#1f77b4;"/>
   </g>
   <g id="patch_17">
    <path clip-path="url(#pde247d4178)" d="M 137.574135 307.584 
L 140.410519 307.584 
L 140.410519 287.057521 
L 137.574135 287.057521 
z
" style="fill:#1f77b4;"/>
   </g>
   <g id="patch_18">
    <path clip-path="url(#pde247d4178)" d="M 140.410519 307.584 
L 143.246895 307.584 
L 143.246895 291.268037 
L 140.410519 291.268037 
z
" style="fill:#1f77b4;"/>
   </g>
   <g id="patch_19">
    <path clip-path="url(#pde247d4178)" d="M 143.246887 307.584 
L 146.083263 307.584 
L 146.083263 291.794358 
L 143.246887 291.794358 
z
" style="fill:#1f77b4;"/>
   </g>
   <g id="patch_20">
    <path clip-path="url(#pde247d4178)" d="M 146.083271 307.584 
L 148.919654 307.584 
L 148.919654 290.741761 
L 146.083271 290.741761 
z
" style="fill:#1f77b4;"/>
   </g>
   <g id="patch_21">
    <path clip-path="url(#pde247d4178)" d="M 148.919654 307.584 
L 151.75603 307.584 
L 151.75603 282.846894 
L 148.919654 282.846894 
z
" style="fill:#1f77b4;"/>
   </g>
   <g id="patch_22">
    <path clip-path="url(#pde247d4178)" d="M 151.75603 307.584 
L 154.592414 307.584 
L 154.592414 284.952242 
L 151.75603 284.952242 
z
" style="fill:#1f77b4;"/>
   </g>
   <g id="patch_23">
    <path clip-path="url(#pde247d4178)" d="M 154.592406 307.584 
L 157.428782 307.584 
L 157.428782 285.478501 
L 154.592406 285.478501 
z
" style="fill:#1f77b4;"/>
   </g>
   <g id="patch_24">
    <path clip-path="url(#pde247d4178)" d="M 157.42879 307.584 
L 160.265173 307.584 
L 160.265173 285.478562 
L 157.42879 285.478562 
z
" style="fill:#1f77b4;"/>
   </g>
   <g id="patch_25">
    <path clip-path="url(#pde247d4178)" d="M 160.265173 307.584 
L 163.101549 307.584 
L 163.101549 288.63643 
L 160.265173 288.63643 
z
" style="fill:#1f77b4;"/>
   </g>
   <g id="patch_26">
    <path clip-path="url(#pde247d4178)" d="M 163.101549 307.584 
L 165.937933 307.584 
L 165.937933 287.057521 
L 163.101549 287.057521 
z
" style="fill:#1f77b4;"/>
   </g>
   <g id="patch_27">
    <path clip-path="url(#pde247d4178)" d="M 165.937925 307.584 
L 168.774301 307.584 
L 168.774301 278.636323 
L 165.937925 278.636323 
z
" style="fill:#1f77b4;"/>
   </g>
   <g id="patch_28">
    <path clip-path="url(#pde247d4178)" d="M 168.774309 307.584 
L 171.610688 307.584 
L 171.610688 282.320607 
L 168.774309 282.320607 
z
" style="fill:#1f77b4;"/>
   </g>
   <g id="patch_29">
    <path clip-path="url(#pde247d4178)" d="M 171.610684 307.584 
L 174.447064 307.584 
L 174.447064 278.636363 
L 171.610684 278.636363 
z
" style="fill:#1f77b4;"/>
   </g>
   <g id="patch_30">
    <path clip-path="url(#pde247d4178)" d="M 174.447068 307.584 
L 177.283448 307.584 
L 177.283448 280.215325 
L 174.447068 280.215325 
z
" style="fill:#1f77b4;"/>
   </g>
   <g id="patch_31">
    <path clip-path="url(#pde247d4178)" d="M 177.283444 307.584 
L 180.119824 307.584 
L 180.119824 279.689004 
L 177.283444 279.689004 
z
" style="fill:#1f77b4;"/>
   </g>
   <g id="patch_32">
    <path clip-path="url(#pde247d4178)" d="M 180.119828 307.584 
L 182.956203 307.584 
L 182.956203 280.741609 
L 180.119828 280.741609 
z
" style="fill:#1f77b4;"/>
   </g>
   <g id="patch_33">
    <path clip-path="url(#pde247d4178)" d="M 182.956203 307.584 
L 185.792583 307.584 
L 185.792583 277.583721 
L 182.956203 277.583721 
z
" style="fill:#1f77b4;"/>
   </g>
   <g id="patch_34">
    <path clip-path="url(#pde247d4178)" d="M 185.792579 307.584 
L 188.628959 307.584 
L 188.628959 276.004759 
L 185.792579 276.004759 
z
" style="fill:#1f77b4;"/>
   </g>
   <g id="patch_35">
    <path clip-path="url(#pde247d4178)" d="M 188.628963 307.584 
L 191.465343 307.584 
L 191.465343 264.425704 
L 188.628963 264.425704 
z
" style="fill:#1f77b4;"/>
   </g>
   <g id="patch_36">
    <path clip-path="url(#pde247d4178)" d="M 191.465339 307.584 
L 194.301718 307.584 
L 194.301718 264.952025 
L 191.465339 264.952025 
z
" style="fill:#1f77b4;"/>
   </g>
   <g id="patch_37">
    <path clip-path="url(#pde247d4178)" d="M 194.301722 307.584 
L 197.138102 307.584 
L 197.138102 271.267873 
L 194.301722 271.267873 
z
" style="fill:#1f77b4;"/>
   </g>
   <g id="patch_38">
    <path clip-path="url(#pde247d4178)" d="M 197.138098 307.584 
L 199.974478 307.584 
L 199.974478 256.530894 
L 197.138098 256.530894 
z
" style="fill:#1f77b4;"/>
   </g>
   <g id="patch_39">
    <path clip-path="url(#pde247d4178)" d="M 199.974482 307.584 
L 202.810862 307.584 
L 202.810862 240.741274 
L 199.974482 240.741274 
z
" style="fill:#1f77b4;"/>
   </g>
   <g id="patch_40">
    <path clip-path="url(#pde247d4178)" d="M 202.810862 307.584 
L 205.647239 307.584 
L 205.647239 240.214907 
L 202.810862 240.214907 
z
" style="fill:#1f77b4;"/>
   </g>
   <g id="patch_41">
    <path clip-path="url(#pde247d4178)" d="M 205.647239 307.584 
L 208.483619 307.584 
L 208.483619 248.636084 
L 205.647239 248.636084 
z
" style="fill:#1f77b4;"/>
   </g>
   <g id="patch_42">
    <path clip-path="url(#pde247d4178)" d="M 208.483621 307.584 
L 211.319999 307.584 
L 211.319999 230.214807 
L 208.483621 230.214807 
z
" style="fill:#1f77b4;"/>
   </g>
   <g id="patch_43">
    <path clip-path="url(#pde247d4178)" d="M 211.319997 307.584 
L 214.156377 307.584 
L 214.156377 225.477974 
L 211.319997 225.477974 
z
" style="fill:#1f77b4;"/>
   </g>
   <g id="patch_44">
    <path clip-path="url(#pde247d4178)" d="M 214.156377 307.584 
L 216.992756 307.584 
L 216.992756 231.267501 
L 214.156377 231.267501 
z
" style="fill:#1f77b4;"/>
   </g>
   <g id="patch_45">
    <path clip-path="url(#pde247d4178)" d="M 216.992756 307.584 
L 219.829136 307.584 
L 219.829136 210.740995 
L 216.992756 210.740995 
z
" style="fill:#1f77b4;"/>
   </g>
   <g id="patch_46">
    <path clip-path="url(#pde247d4178)" d="M 219.829136 307.584 
L 222.665515 307.584 
L 222.665515 205.477753 
L 219.829136 205.477753 
z
" style="fill:#1f77b4;"/>
   </g>
   <g id="patch_47">
    <path clip-path="url(#pde247d4178)" d="M 222.665514 307.584 
L 225.501893 307.584 
L 225.501893 200.740865 
L 222.665514 200.740865 
z
" style="fill:#1f77b4;"/>
   </g>
   <g id="patch_48">
    <path clip-path="url(#pde247d4178)" d="M 225.501894 307.584 
L 228.338273 307.584 
L 228.338273 204.425147 
L 225.501894 204.425147 
z
" style="fill:#1f77b4;"/>
   </g>
   <g id="patch_49">
    <path clip-path="url(#pde247d4178)" d="M 228.338273 307.584 
L 231.174653 307.584 
L 231.174653 208.635695 
L 228.338273 208.635695 
z
" style="fill:#1f77b4;"/>
   </g>
   <g id="patch_50">
    <path clip-path="url(#pde247d4178)" d="M 231.174653 307.584 
L 234.011032 307.584 
L 234.011032 191.793431 
L 231.174653 191.793431 
z
" style="fill:#1f77b4;"/>
   </g>
   <g id="patch_51">
    <path clip-path="url(#pde247d4178)" d="M 234.011032 307.584 
L 236.847411 307.584 
L 236.847411 113.371636 
L 234.011032 113.371636 
z
" style="fill:#1f77b4;"/>
   </g>
   <g id="patch_52">
    <path clip-path="url(#pde247d4178)" d="M 236.847411 307.584 
L 239.68379 307.584 
L 239.68379 176.003807 
L 236.847411 176.003807 
z
" style="fill:#1f77b4;"/>
   </g>
   <g id="patch_53">
    <path clip-path="url(#pde247d4178)" d="M 239.683791 307.584 
L 242.52017 307.584 
L 242.52017 174.951166 
L 239.683791 174.951166 
z
" style="fill:#1f77b4;"/>
   </g>
   <g id="patch_54">
    <path clip-path="url(#pde247d4178)" d="M 242.520169 307.584 
L 245.356548 307.584 
L 245.356548 202.846167 
L 242.520169 202.846167 
z
" style="fill:#1f77b4;"/>
   </g>
   <g id="patch_55">
    <path clip-path="url(#pde247d4178)" d="M 245.356549 307.584 
L 248.192929 307.584 
L 248.192929 189.161847 
L 245.356549 189.161847 
z
" style="fill:#1f77b4;"/>
   </g>
   <g id="patch_56">
    <path clip-path="url(#pde247d4178)" d="M 248.192928 307.584 
L 251.029306 307.584 
L 251.029306 201.793507 
L 248.192928 201.793507 
z
" style="fill:#1f77b4;"/>
   </g>
   <g id="patch_57">
    <path clip-path="url(#pde247d4178)" d="M 251.029307 307.584 
L 253.865687 307.584 
L 253.865687 193.372412 
L 251.029307 193.372412 
z
" style="fill:#1f77b4;"/>
   </g>
   <g id="patch_58">
    <path clip-path="url(#pde247d4178)" d="M 253.865687 307.584 
L 256.702067 307.584 
L 256.702067 203.898826 
L 253.865687 203.898826 
z
" style="fill:#1f77b4;"/>
   </g>
   <g id="patch_59">
    <path clip-path="url(#pde247d4178)" d="M 256.702069 307.584 
L 259.538447 307.584 
L 259.538447 211.793571 
L 256.702069 211.793571 
z
" style="fill:#1f77b4;"/>
   </g>
   <g id="patch_60">
    <path clip-path="url(#pde247d4178)" d="M 259.538445 307.584 
L 262.374824 307.584 
L 262.374824 219.162126 
L 259.538445 219.162126 
z
" style="fill:#1f77b4;"/>
   </g>
   <g id="patch_61">
    <path clip-path="url(#pde247d4178)" d="M 262.374824 307.584 
L 265.211204 307.584 
L 265.211204 231.267501 
L 262.374824 231.267501 
z
" style="fill:#1f77b4;"/>
   </g>
   <g id="patch_62">
    <path clip-path="url(#pde247d4178)" d="M 265.211204 307.584 
L 268.047584 307.584 
L 268.047584 235.478067 
L 265.211204 235.478067 
z
" style="fill:#1f77b4;"/>
   </g>
   <g id="patch_63">
    <path clip-path="url(#pde247d4178)" d="M 268.047582 307.584 
L 270.883964 307.584 
L 270.883964 247.583442 
L 268.047582 247.583442 
z
" style="fill:#1f77b4;"/>
   </g>
   <g id="patch_64">
    <path clip-path="url(#pde247d4178)" d="M 270.883964 307.584 
L 273.720343 307.584 
L 273.720343 240.214953 
L 270.883964 240.214953 
z
" style="fill:#1f77b4;"/>
   </g>
   <g id="patch_65">
    <path clip-path="url(#pde247d4178)" d="M 273.720343 307.584 
L 276.556719 307.584 
L 276.556719 246.530718 
L 273.720343 246.530718 
z
" style="fill:#1f77b4;"/>
   </g>
   <g id="patch_66">
    <path clip-path="url(#pde247d4178)" d="M 276.556715 307.584 
L 279.393095 307.584 
L 279.393095 251.267687 
L 276.556715 251.267687 
z
" style="fill:#1f77b4;"/>
   </g>
   <g id="patch_67">
    <path clip-path="url(#pde247d4178)" d="M 279.393099 307.584 
L 282.229479 307.584 
L 282.229479 264.952025 
L 279.393099 264.952025 
z
" style="fill:#1f77b4;"/>
   </g>
   <g id="patch_68">
    <path clip-path="url(#pde247d4178)" d="M 282.229475 307.584 
L 285.065854 307.584 
L 285.065854 268.109949 
L 282.229475 268.109949 
z
" style="fill:#1f77b4;"/>
   </g>
   <g id="patch_69">
    <path clip-path="url(#pde247d4178)" d="M 285.065858 307.584 
L 287.902238 307.584 
L 287.902238 272.320514 
L 285.065858 272.320514 
z
" style="fill:#1f77b4;"/>
   </g>
   <g id="patch_70">
    <path clip-path="url(#pde247d4178)" d="M 287.902234 307.584 
L 290.738614 307.584 
L 290.738614 277.583721 
L 287.902234 277.583721 
z
" style="fill:#1f77b4;"/>
   </g>
   <g id="patch_71">
    <path clip-path="url(#pde247d4178)" d="M 290.738618 307.584 
L 293.574998 307.584 
L 293.574998 279.689004 
L 290.738618 279.689004 
z
" style="fill:#1f77b4;"/>
   </g>
   <g id="patch_72">
    <path clip-path="url(#pde247d4178)" d="M 293.574994 307.584 
L 296.411373 307.584 
L 296.411373 277.057401 
L 293.574994 277.057401 
z
" style="fill:#1f77b4;"/>
   </g>
   <g id="patch_73">
    <path clip-path="url(#pde247d4178)" d="M 296.411377 307.584 
L 299.247753 307.584 
L 299.247753 271.794145 
L 296.411377 271.794145 
z
" style="fill:#1f77b4;"/>
   </g>
   <g id="patch_74">
    <path clip-path="url(#pde247d4178)" d="M 299.247753 307.584 
L 302.084137 307.584 
L 302.084137 274.952162 
L 299.247753 274.952162 
z
" style="fill:#1f77b4;"/>
   </g>
   <g id="patch_75">
    <path clip-path="url(#pde247d4178)" d="M 302.084137 307.584 
L 304.920513 307.584 
L 304.920513 284.425858 
L 302.084137 284.425858 
z
" style="fill:#1f77b4;"/>
   </g>
   <g id="patch_76">
    <path clip-path="url(#pde247d4178)" d="M 304.920513 307.584 
L 307.756896 307.584 
L 307.756896 284.952242 
L 304.920513 284.952242 
z
" style="fill:#1f77b4;"/>
   </g>
   <g id="patch_77">
    <path clip-path="url(#pde247d4178)" d="M 307.756889 307.584 
L 310.593264 307.584 
L 310.593264 290.741715 
L 307.756889 290.741715 
z
" style="fill:#1f77b4;"/>
   </g>
   <g id="patch_78">
    <path clip-path="url(#pde247d4178)" d="M 310.593272 307.584 
L 313.429648 307.584 
L 313.429648 284.425858 
L 310.593272 284.425858 
z
" style="fill:#1f77b4;"/>
   </g>
   <g id="patch_79">
    <path clip-path="url(#pde247d4178)" d="M 313.429648 307.584 
L 316.266032 307.584 
L 316.266032 290.741761 
L 313.429648 290.741761 
z
" style="fill:#1f77b4;"/>
   </g>
   <g id="patch_80">
    <path clip-path="url(#pde247d4178)" d="M 316.266024 307.584 
L 319.1024 307.584 
L 319.1024 287.057465 
L 316.266024 287.057465 
z
" style="fill:#1f77b4;"/>
   </g>
   <g id="patch_81">
    <path clip-path="url(#pde247d4178)" d="M 319.102407 307.584 
L 321.938791 307.584 
L 321.938791 295.478641 
L 319.102407 295.478641 
z
" style="fill:#1f77b4;"/>
   </g>
   <g id="patch_82">
    <path clip-path="url(#pde247d4178)" d="M 321.938791 307.584 
L 324.775167 307.584 
L 324.775167 292.847001 
L 321.938791 292.847001 
z
" style="fill:#1f77b4;"/>
   </g>
   <g id="patch_83">
    <path clip-path="url(#pde247d4178)" d="M 324.775167 307.584 
L 327.611551 307.584 
L 327.611551 290.215441 
L 324.775167 290.215441 
z
" style="fill:#1f77b4;"/>
   </g>
   <g id="patch_84">
    <path clip-path="url(#pde247d4178)" d="M 327.611543 307.584 
L 330.447919 307.584 
L 330.447919 288.63643 
L 327.611543 288.63643 
z
" style="fill:#1f77b4;"/>
   </g>
   <g id="patch_85">
    <path clip-path="url(#pde247d4178)" d="M 330.447926 307.584 
L 333.28431 307.584 
L 333.28431 292.320721 
L 330.447926 292.320721 
z
" style="fill:#1f77b4;"/>
   </g>
   <g id="patch_86">
    <path clip-path="url(#pde247d4178)" d="M 333.28431 307.584 
L 336.120686 307.584 
L 336.120686 289.162751 
L 333.28431 289.162751 
z
" style="fill:#1f77b4;"/>
   </g>
   <g id="patch_87">
    <path clip-path="url(#pde247d4178)" d="M 336.120678 307.584 
L 338.957054 307.584 
L 338.957054 294.952286 
L 336.120678 294.952286 
z
" style="fill:#1f77b4;"/>
   </g>
   <g id="patch_88">
    <path clip-path="url(#pde247d4178)" d="M 338.957062 307.584 
L 341.793445 307.584 
L 341.793445 291.794401 
L 338.957062 291.794401 
z
" style="fill:#1f77b4;"/>
   </g>
   <g id="patch_89">
    <path clip-path="url(#pde247d4178)" d="M 341.793445 307.584 
L 344.629821 307.584 
L 344.629821 296.004929 
L 341.793445 296.004929 
z
" style="fill:#1f77b4;"/>
   </g>
   <g id="patch_90">
    <path clip-path="url(#pde247d4178)" d="M 344.629821 307.584 
L 347.466205 307.584 
L 347.466205 300.74184 
L 344.629821 300.74184 
z
" style="fill:#1f77b4;"/>
   </g>
   <g id="patch_91">
    <path clip-path="url(#pde247d4178)" d="M 347.466197 307.584 
L 350.302573 307.584 
L 350.302573 298.636536 
L 347.466197 298.636536 
z
" style="fill:#1f77b4;"/>
   </g>
   <g id="patch_92">
    <path clip-path="url(#pde247d4178)" d="M 350.302581 307.584 
L 353.138964 307.584 
L 353.138964 303.89976 
L 350.302581 303.89976 
z
" style="fill:#1f77b4;"/>
   </g>
   <g id="patch_93">
    <path clip-path="url(#pde247d4178)" d="M 353.138964 307.584 
L 355.97534 307.584 
L 355.97534 300.2155 
L 353.138964 300.2155 
z
" style="fill:#1f77b4;"/>
   </g>
   <g id="patch_94">
    <path clip-path="url(#pde247d4178)" d="M 355.975332 307.584 
L 358.811708 307.584 
L 358.811708 299.689179 
L 355.975332 299.689179 
z
" style="fill:#1f77b4;"/>
   </g>
   <g id="patch_95">
    <path clip-path="url(#pde247d4178)" d="M 358.811716 307.584 
L 361.6481 307.584 
L 361.6481 302.3208 
L 358.811716 302.3208 
z
" style="fill:#1f77b4;"/>
   </g>
   <g id="patch_96">
    <path clip-path="url(#pde247d4178)" d="M 361.6481 307.584 
L 364.484475 307.584 
L 364.484475 301.268143 
L 361.6481 301.268143 
z
" style="fill:#1f77b4;"/>
   </g>
   <g id="patch_97">
    <path clip-path="url(#pde247d4178)" d="M 364.484468 307.584 
L 367.320836 307.584 
L 367.320836 305.478714 
L 364.484468 305.478714 
z
" style="fill:#1f77b4;"/>
   </g>
   <g id="patch_98">
    <path clip-path="url(#pde247d4178)" d="M 367.320851 307.584 
L 370.157235 307.584 
L 370.157235 304.42608 
L 367.320851 304.42608 
z
" style="fill:#1f77b4;"/>
   </g>
   <g id="patch_99">
    <path clip-path="url(#pde247d4178)" d="M 370.157235 307.584 
L 372.993619 307.584 
L 372.993619 306.00504 
L 370.157235 306.00504 
z
" style="fill:#1f77b4;"/>
   </g>
   <g id="patch_100">
    <path clip-path="url(#pde247d4178)" d="M 372.993619 307.584 
L 375.830002 307.584 
L 375.830002 305.47872 
L 372.993619 305.47872 
z
" style="fill:#1f77b4;"/>
   </g>
   <g id="patch_101">
    <path clip-path="url(#pde247d4178)" d="M 375.829987 307.584 
L 378.666355 307.584 
L 378.666355 307.584 
L 375.829987 307.584 
z
" style="fill:#1f77b4;"/>
   </g>
   <g id="patch_102">
    <path clip-path="url(#pde247d4178)" d="M 378.66637 307.584 
L 381.502754 307.584 
L 381.502754 306.00504 
L 378.66637 306.00504 
z
" style="fill:#1f77b4;"/>
   </g>
   <g id="matplotlib.axis_1">
    <g id="xtick_1">
     <g id="line2d_1">
      <defs>
       <path d="M 0 0 
L 0 3.5 
" id="mb60bb7c6ef" style="stroke:#000000;stroke-width:0.8;"/>
      </defs>
      <g>
       <use style="stroke:#000000;stroke-width:0.8;" x="106.300346" xlink:href="#mb60bb7c6ef" y="307.584"/>
      </g>
     </g>
     <g id="text_1">
      <!-- −2 -->
      <defs>
       <path d="M 10.59375 35.5 
L 73.1875 35.5 
L 73.1875 27.203125 
L 10.59375 27.203125 
z
" id="DejaVuSans-8722"/>
       <path d="M 19.1875 8.296875 
L 53.609375 8.296875 
L 53.609375 0 
L 7.328125 0 
L 7.328125 8.296875 
Q 12.9375 14.109375 22.625 23.890625 
Q 32.328125 33.6875 34.8125 36.53125 
Q 39.546875 41.84375 41.421875 45.53125 
Q 43.3125 49.21875 43.3125 52.78125 
Q 43.3125 58.59375 39.234375 62.25 
Q 35.15625 65.921875 28.609375 65.921875 
Q 23.96875 65.921875 18.8125 64.3125 
Q 13.671875 62.703125 7.8125 59.421875 
L 7.8125 69.390625 
Q 13.765625 71.78125 18.9375 73 
Q 24.125 74.21875 28.421875 74.21875 
Q 39.75 74.21875 46.484375 68.546875 
Q 53.21875 62.890625 53.21875 53.421875 
Q 53.21875 48.921875 51.53125 44.890625 
Q 49.859375 40.875 45.40625 35.40625 
Q 44.1875 33.984375 37.640625 27.21875 
Q 31.109375 20.453125 19.1875 8.296875 
z
" id="DejaVuSans-50"/>
      </defs>
      <g transform="translate(93.769487 327.501344)scale(0.17 -0.17)">
       <use xlink:href="#DejaVuSans-8722"/>
       <use x="83.789062" xlink:href="#DejaVuSans-50"/>
      </g>
     </g>
    </g>
    <g id="xtick_2">
     <g id="line2d_2">
      <g>
       <use style="stroke:#000000;stroke-width:0.8;" x="171.235584" xlink:href="#mb60bb7c6ef" y="307.584"/>
      </g>
     </g>
     <g id="text_2">
      <!-- −1 -->
      <defs>
       <path d="M 12.40625 8.296875 
L 28.515625 8.296875 
L 28.515625 63.921875 
L 10.984375 60.40625 
L 10.984375 69.390625 
L 28.421875 72.90625 
L 38.28125 72.90625 
L 38.28125 8.296875 
L 54.390625 8.296875 
L 54.390625 0 
L 12.40625 0 
z
" id="DejaVuSans-49"/>
      </defs>
      <g transform="translate(158.704725 327.501344)scale(0.17 -0.17)">
       <use xlink:href="#DejaVuSans-8722"/>
       <use x="83.789062" xlink:href="#DejaVuSans-49"/>
      </g>
     </g>
    </g>
    <g id="xtick_3">
     <g id="line2d_3">
      <g>
       <use style="stroke:#000000;stroke-width:0.8;" x="236.170823" xlink:href="#mb60bb7c6ef" y="307.584"/>
      </g>
     </g>
     <g id="text_3">
      <!-- 0 -->
      <defs>
       <path d="M 31.78125 66.40625 
Q 24.171875 66.40625 20.328125 58.90625 
Q 16.5 51.421875 16.5 36.375 
Q 16.5 21.390625 20.328125 13.890625 
Q 24.171875 6.390625 31.78125 6.390625 
Q 39.453125 6.390625 43.28125 13.890625 
Q 47.125 21.390625 47.125 36.375 
Q 47.125 51.421875 43.28125 58.90625 
Q 39.453125 66.40625 31.78125 66.40625 
z
M 31.78125 74.21875 
Q 44.046875 74.21875 50.515625 64.515625 
Q 56.984375 54.828125 56.984375 36.375 
Q 56.984375 17.96875 50.515625 8.265625 
Q 44.046875 -1.421875 31.78125 -1.421875 
Q 19.53125 -1.421875 13.0625 8.265625 
Q 6.59375 17.96875 6.59375 36.375 
Q 6.59375 54.828125 13.0625 64.515625 
Q 19.53125 74.21875 31.78125 74.21875 
z
" id="DejaVuSans-48"/>
      </defs>
      <g transform="translate(230.762698 327.501344)scale(0.17 -0.17)">
       <use xlink:href="#DejaVuSans-48"/>
      </g>
     </g>
    </g>
    <g id="xtick_4">
     <g id="line2d_4">
      <g>
       <use style="stroke:#000000;stroke-width:0.8;" x="301.106061" xlink:href="#mb60bb7c6ef" y="307.584"/>
      </g>
     </g>
     <g id="text_4">
      <!-- 1 -->
      <g transform="translate(295.697936 327.501344)scale(0.17 -0.17)">
       <use xlink:href="#DejaVuSans-49"/>
      </g>
     </g>
    </g>
    <g id="xtick_5">
     <g id="line2d_5">
      <g>
       <use style="stroke:#000000;stroke-width:0.8;" x="366.041299" xlink:href="#mb60bb7c6ef" y="307.584"/>
      </g>
     </g>
     <g id="text_5">
      <!-- 2 -->
      <g transform="translate(360.633174 327.501344)scale(0.17 -0.17)">
       <use xlink:href="#DejaVuSans-50"/>
      </g>
     </g>
    </g>
    <g id="text_6">
     <!-- Position in Radian -->
     <defs>
      <path d="M 19.671875 64.796875 
L 19.671875 37.40625 
L 32.078125 37.40625 
Q 38.96875 37.40625 42.71875 40.96875 
Q 46.484375 44.53125 46.484375 51.125 
Q 46.484375 57.671875 42.71875 61.234375 
Q 38.96875 64.796875 32.078125 64.796875 
z
M 9.8125 72.90625 
L 32.078125 72.90625 
Q 44.34375 72.90625 50.609375 67.359375 
Q 56.890625 61.8125 56.890625 51.125 
Q 56.890625 40.328125 50.609375 34.8125 
Q 44.34375 29.296875 32.078125 29.296875 
L 19.671875 29.296875 
L 19.671875 0 
L 9.8125 0 
z
" id="DejaVuSans-80"/>
      <path d="M 30.609375 48.390625 
Q 23.390625 48.390625 19.1875 42.75 
Q 14.984375 37.109375 14.984375 27.296875 
Q 14.984375 17.484375 19.15625 11.84375 
Q 23.34375 6.203125 30.609375 6.203125 
Q 37.796875 6.203125 41.984375 11.859375 
Q 46.1875 17.53125 46.1875 27.296875 
Q 46.1875 37.015625 41.984375 42.703125 
Q 37.796875 48.390625 30.609375 48.390625 
z
M 30.609375 56 
Q 42.328125 56 49.015625 48.375 
Q 55.71875 40.765625 55.71875 27.296875 
Q 55.71875 13.875 49.015625 6.21875 
Q 42.328125 -1.421875 30.609375 -1.421875 
Q 18.84375 -1.421875 12.171875 6.21875 
Q 5.515625 13.875 5.515625 27.296875 
Q 5.515625 40.765625 12.171875 48.375 
Q 18.84375 56 30.609375 56 
z
" id="DejaVuSans-111"/>
      <path d="M 44.28125 53.078125 
L 44.28125 44.578125 
Q 40.484375 46.53125 36.375 47.5 
Q 32.28125 48.484375 27.875 48.484375 
Q 21.1875 48.484375 17.84375 46.4375 
Q 14.5 44.390625 14.5 40.28125 
Q 14.5 37.15625 16.890625 35.375 
Q 19.28125 33.59375 26.515625 31.984375 
L 29.59375 31.296875 
Q 39.15625 29.25 43.1875 25.515625 
Q 47.21875 21.78125 47.21875 15.09375 
Q 47.21875 7.46875 41.1875 3.015625 
Q 35.15625 -1.421875 24.609375 -1.421875 
Q 20.21875 -1.421875 15.453125 -0.5625 
Q 10.6875 0.296875 5.421875 2 
L 5.421875 11.28125 
Q 10.40625 8.6875 15.234375 7.390625 
Q 20.0625 6.109375 24.8125 6.109375 
Q 31.15625 6.109375 34.5625 8.28125 
Q 37.984375 10.453125 37.984375 14.40625 
Q 37.984375 18.0625 35.515625 20.015625 
Q 33.0625 21.96875 24.703125 23.78125 
L 21.578125 24.515625 
Q 13.234375 26.265625 9.515625 29.90625 
Q 5.8125 33.546875 5.8125 39.890625 
Q 5.8125 47.609375 11.28125 51.796875 
Q 16.75 56 26.8125 56 
Q 31.78125 56 36.171875 55.265625 
Q 40.578125 54.546875 44.28125 53.078125 
z
" id="DejaVuSans-115"/>
      <path d="M 9.421875 54.6875 
L 18.40625 54.6875 
L 18.40625 0 
L 9.421875 0 
z
M 9.421875 75.984375 
L 18.40625 75.984375 
L 18.40625 64.59375 
L 9.421875 64.59375 
z
" id="DejaVuSans-105"/>
      <path d="M 18.3125 70.21875 
L 18.3125 54.6875 
L 36.8125 54.6875 
L 36.8125 47.703125 
L 18.3125 47.703125 
L 18.3125 18.015625 
Q 18.3125 11.328125 20.140625 9.421875 
Q 21.96875 7.515625 27.59375 7.515625 
L 36.8125 7.515625 
L 36.8125 0 
L 27.59375 0 
Q 17.1875 0 13.234375 3.875 
Q 9.28125 7.765625 9.28125 18.015625 
L 9.28125 47.703125 
L 2.6875 47.703125 
L 2.6875 54.6875 
L 9.28125 54.6875 
L 9.28125 70.21875 
z
" id="DejaVuSans-116"/>
      <path d="M 54.890625 33.015625 
L 54.890625 0 
L 45.90625 0 
L 45.90625 32.71875 
Q 45.90625 40.484375 42.875 44.328125 
Q 39.84375 48.1875 33.796875 48.1875 
Q 26.515625 48.1875 22.3125 43.546875 
Q 18.109375 38.921875 18.109375 30.90625 
L 18.109375 0 
L 9.078125 0 
L 9.078125 54.6875 
L 18.109375 54.6875 
L 18.109375 46.1875 
Q 21.34375 51.125 25.703125 53.5625 
Q 30.078125 56 35.796875 56 
Q 45.21875 56 50.046875 50.171875 
Q 54.890625 44.34375 54.890625 33.015625 
z
" id="DejaVuSans-110"/>
      <path id="DejaVuSans-32"/>
      <path d="M 44.390625 34.1875 
Q 47.5625 33.109375 50.5625 29.59375 
Q 53.5625 26.078125 56.59375 19.921875 
L 66.609375 0 
L 56 0 
L 46.6875 18.703125 
Q 43.0625 26.03125 39.671875 28.421875 
Q 36.28125 30.8125 30.421875 30.8125 
L 19.671875 30.8125 
L 19.671875 0 
L 9.8125 0 
L 9.8125 72.90625 
L 32.078125 72.90625 
Q 44.578125 72.90625 50.734375 67.671875 
Q 56.890625 62.453125 56.890625 51.90625 
Q 56.890625 45.015625 53.6875 40.46875 
Q 50.484375 35.9375 44.390625 34.1875 
z
M 19.671875 64.796875 
L 19.671875 38.921875 
L 32.078125 38.921875 
Q 39.203125 38.921875 42.84375 42.21875 
Q 46.484375 45.515625 46.484375 51.90625 
Q 46.484375 58.296875 42.84375 61.546875 
Q 39.203125 64.796875 32.078125 64.796875 
z
" id="DejaVuSans-82"/>
      <path d="M 34.28125 27.484375 
Q 23.390625 27.484375 19.1875 25 
Q 14.984375 22.515625 14.984375 16.5 
Q 14.984375 11.71875 18.140625 8.90625 
Q 21.296875 6.109375 26.703125 6.109375 
Q 34.1875 6.109375 38.703125 11.40625 
Q 43.21875 16.703125 43.21875 25.484375 
L 43.21875 27.484375 
z
M 52.203125 31.203125 
L 52.203125 0 
L 43.21875 0 
L 43.21875 8.296875 
Q 40.140625 3.328125 35.546875 0.953125 
Q 30.953125 -1.421875 24.3125 -1.421875 
Q 15.921875 -1.421875 10.953125 3.296875 
Q 6 8.015625 6 15.921875 
Q 6 25.140625 12.171875 29.828125 
Q 18.359375 34.515625 30.609375 34.515625 
L 43.21875 34.515625 
L 43.21875 35.40625 
Q 43.21875 41.609375 39.140625 45 
Q 35.0625 48.390625 27.6875 48.390625 
Q 23 48.390625 18.546875 47.265625 
Q 14.109375 46.140625 10.015625 43.890625 
L 10.015625 52.203125 
Q 14.9375 54.109375 19.578125 55.046875 
Q 24.21875 56 28.609375 56 
Q 40.484375 56 46.34375 49.84375 
Q 52.203125 43.703125 52.203125 31.203125 
z
" id="DejaVuSans-97"/>
      <path d="M 45.40625 46.390625 
L 45.40625 75.984375 
L 54.390625 75.984375 
L 54.390625 0 
L 45.40625 0 
L 45.40625 8.203125 
Q 42.578125 3.328125 38.25 0.953125 
Q 33.9375 -1.421875 27.875 -1.421875 
Q 17.96875 -1.421875 11.734375 6.484375 
Q 5.515625 14.40625 5.515625 27.296875 
Q 5.515625 40.1875 11.734375 48.09375 
Q 17.96875 56 27.875 56 
Q 33.9375 56 38.25 53.625 
Q 42.578125 51.265625 45.40625 46.390625 
z
M 14.796875 27.296875 
Q 14.796875 17.390625 18.875 11.75 
Q 22.953125 6.109375 30.078125 6.109375 
Q 37.203125 6.109375 41.296875 11.75 
Q 45.40625 17.390625 45.40625 27.296875 
Q 45.40625 37.203125 41.296875 42.84375 
Q 37.203125 48.484375 30.078125 48.484375 
Q 22.953125 48.484375 18.875 42.84375 
Q 14.796875 37.203125 14.796875 27.296875 
z
" id="DejaVuSans-100"/>
     </defs>
     <g transform="translate(102.024844 357.832125)scale(0.3 -0.3)">
      <use xlink:href="#DejaVuSans-80"/>
      <use x="60.255859" xlink:href="#DejaVuSans-111"/>
      <use x="121.4375" xlink:href="#DejaVuSans-115"/>
      <use x="173.537109" xlink:href="#DejaVuSans-105"/>
      <use x="201.320312" xlink:href="#DejaVuSans-116"/>
      <use x="240.529297" xlink:href="#DejaVuSans-105"/>
      <use x="268.3125" xlink:href="#DejaVuSans-111"/>
      <use x="329.494141" xlink:href="#DejaVuSans-110"/>
      <use x="392.873047" xlink:href="#DejaVuSans-32"/>
      <use x="424.660156" xlink:href="#DejaVuSans-105"/>
      <use x="452.443359" xlink:href="#DejaVuSans-110"/>
      <use x="515.822266" xlink:href="#DejaVuSans-32"/>
      <use x="547.609375" xlink:href="#DejaVuSans-82"/>
      <use x="617.060547" xlink:href="#DejaVuSans-97"/>
      <use x="678.339844" xlink:href="#DejaVuSans-100"/>
      <use x="741.816406" xlink:href="#DejaVuSans-105"/>
      <use x="769.599609" xlink:href="#DejaVuSans-97"/>
      <use x="830.878906" xlink:href="#DejaVuSans-110"/>
     </g>
    </g>
   </g>
   <g id="matplotlib.axis_2">
    <g id="ytick_1">
     <g id="line2d_6">
      <defs>
       <path d="M 0 0 
L -3.5 0 
" id="medd6a7a49f" style="stroke:#000000;stroke-width:0.8;"/>
      </defs>
      <g>
       <use style="stroke:#000000;stroke-width:0.8;" x="57.6" xlink:href="#medd6a7a49f" y="307.584"/>
      </g>
     </g>
     <g id="text_7">
      <!-- 0.00 -->
      <defs>
       <path d="M 10.6875 12.40625 
L 21 12.40625 
L 21 0 
L 10.6875 0 
z
" id="DejaVuSans-46"/>
      </defs>
      <g transform="translate(12.748438 314.042672)scale(0.17 -0.17)">
       <use xlink:href="#DejaVuSans-48"/>
       <use x="63.623047" xlink:href="#DejaVuSans-46"/>
       <use x="95.410156" xlink:href="#DejaVuSans-48"/>
       <use x="159.033203" xlink:href="#DejaVuSans-48"/>
      </g>
     </g>
    </g>
    <g id="ytick_2">
     <g id="line2d_7">
      <g>
       <use style="stroke:#000000;stroke-width:0.8;" x="57.6" xlink:href="#medd6a7a49f" y="264.478207"/>
      </g>
     </g>
     <g id="text_8">
      <!-- 0.25 -->
      <defs>
       <path d="M 10.796875 72.90625 
L 49.515625 72.90625 
L 49.515625 64.59375 
L 19.828125 64.59375 
L 19.828125 46.734375 
Q 21.96875 47.46875 24.109375 47.828125 
Q 26.265625 48.1875 28.421875 48.1875 
Q 40.625 48.1875 47.75 41.5 
Q 54.890625 34.8125 54.890625 23.390625 
Q 54.890625 11.625 47.5625 5.09375 
Q 40.234375 -1.421875 26.90625 -1.421875 
Q 22.3125 -1.421875 17.546875 -0.640625 
Q 12.796875 0.140625 7.71875 1.703125 
L 7.71875 11.625 
Q 12.109375 9.234375 16.796875 8.0625 
Q 21.484375 6.890625 26.703125 6.890625 
Q 35.15625 6.890625 40.078125 11.328125 
Q 45.015625 15.765625 45.015625 23.390625 
Q 45.015625 31 40.078125 35.4375 
Q 35.15625 39.890625 26.703125 39.890625 
Q 22.75 39.890625 18.8125 39.015625 
Q 14.890625 38.140625 10.796875 36.28125 
z
" id="DejaVuSans-53"/>
      </defs>
      <g transform="translate(12.748438 270.936878)scale(0.17 -0.17)">
       <use xlink:href="#DejaVuSans-48"/>
       <use x="63.623047" xlink:href="#DejaVuSans-46"/>
       <use x="95.410156" xlink:href="#DejaVuSans-50"/>
       <use x="159.033203" xlink:href="#DejaVuSans-53"/>
      </g>
     </g>
    </g>
    <g id="ytick_3">
     <g id="line2d_8">
      <g>
       <use style="stroke:#000000;stroke-width:0.8;" x="57.6" xlink:href="#medd6a7a49f" y="221.372413"/>
      </g>
     </g>
     <g id="text_9">
      <!-- 0.50 -->
      <g transform="translate(12.748438 227.831085)scale(0.17 -0.17)">
       <use xlink:href="#DejaVuSans-48"/>
       <use x="63.623047" xlink:href="#DejaVuSans-46"/>
       <use x="95.410156" xlink:href="#DejaVuSans-53"/>
       <use x="159.033203" xlink:href="#DejaVuSans-48"/>
      </g>
     </g>
    </g>
    <g id="ytick_4">
     <g id="line2d_9">
      <g>
       <use style="stroke:#000000;stroke-width:0.8;" x="57.6" xlink:href="#medd6a7a49f" y="178.26662"/>
      </g>
     </g>
     <g id="text_10">
      <!-- 0.75 -->
      <defs>
       <path d="M 8.203125 72.90625 
L 55.078125 72.90625 
L 55.078125 68.703125 
L 28.609375 0 
L 18.3125 0 
L 43.21875 64.59375 
L 8.203125 64.59375 
z
" id="DejaVuSans-55"/>
      </defs>
      <g transform="translate(12.748438 184.725292)scale(0.17 -0.17)">
       <use xlink:href="#DejaVuSans-48"/>
       <use x="63.623047" xlink:href="#DejaVuSans-46"/>
       <use x="95.410156" xlink:href="#DejaVuSans-55"/>
       <use x="159.033203" xlink:href="#DejaVuSans-53"/>
      </g>
     </g>
    </g>
    <g id="ytick_5">
     <g id="line2d_10">
      <g>
       <use style="stroke:#000000;stroke-width:0.8;" x="57.6" xlink:href="#medd6a7a49f" y="135.160826"/>
      </g>
     </g>
     <g id="text_11">
      <!-- 1.00 -->
      <g transform="translate(12.748438 141.619498)scale(0.17 -0.17)">
       <use xlink:href="#DejaVuSans-49"/>
       <use x="63.623047" xlink:href="#DejaVuSans-46"/>
       <use x="95.410156" xlink:href="#DejaVuSans-48"/>
       <use x="159.033203" xlink:href="#DejaVuSans-48"/>
      </g>
     </g>
    </g>
    <g id="ytick_6">
     <g id="line2d_11">
      <g>
       <use style="stroke:#000000;stroke-width:0.8;" x="57.6" xlink:href="#medd6a7a49f" y="92.055033"/>
      </g>
     </g>
     <g id="text_12">
      <!-- 1.25 -->
      <g transform="translate(12.748438 98.513705)scale(0.17 -0.17)">
       <use xlink:href="#DejaVuSans-49"/>
       <use x="63.623047" xlink:href="#DejaVuSans-46"/>
       <use x="95.410156" xlink:href="#DejaVuSans-50"/>
       <use x="159.033203" xlink:href="#DejaVuSans-53"/>
      </g>
     </g>
    </g>
    <g id="ytick_7">
     <g id="line2d_12">
      <g>
       <use style="stroke:#000000;stroke-width:0.8;" x="57.6" xlink:href="#medd6a7a49f" y="48.949239"/>
      </g>
     </g>
     <g id="text_13">
      <!-- 1.50 -->
      <g transform="translate(12.748438 55.407911)scale(0.17 -0.17)">
       <use xlink:href="#DejaVuSans-49"/>
       <use x="63.623047" xlink:href="#DejaVuSans-46"/>
       <use x="95.410156" xlink:href="#DejaVuSans-53"/>
       <use x="159.033203" xlink:href="#DejaVuSans-48"/>
      </g>
     </g>
    </g>
    <g id="text_14">
     <!-- Density -->
     <defs>
      <path d="M 19.671875 64.796875 
L 19.671875 8.109375 
L 31.59375 8.109375 
Q 46.6875 8.109375 53.6875 14.9375 
Q 60.6875 21.78125 60.6875 36.53125 
Q 60.6875 51.171875 53.6875 57.984375 
Q 46.6875 64.796875 31.59375 64.796875 
z
M 9.8125 72.90625 
L 30.078125 72.90625 
Q 51.265625 72.90625 61.171875 64.09375 
Q 71.09375 55.28125 71.09375 36.53125 
Q 71.09375 17.671875 61.125 8.828125 
Q 51.171875 0 30.078125 0 
L 9.8125 0 
z
" id="DejaVuSans-68"/>
      <path d="M 56.203125 29.59375 
L 56.203125 25.203125 
L 14.890625 25.203125 
Q 15.484375 15.921875 20.484375 11.0625 
Q 25.484375 6.203125 34.421875 6.203125 
Q 39.59375 6.203125 44.453125 7.46875 
Q 49.3125 8.734375 54.109375 11.28125 
L 54.109375 2.78125 
Q 49.265625 0.734375 44.1875 -0.34375 
Q 39.109375 -1.421875 33.890625 -1.421875 
Q 20.796875 -1.421875 13.15625 6.1875 
Q 5.515625 13.8125 5.515625 26.8125 
Q 5.515625 40.234375 12.765625 48.109375 
Q 20.015625 56 32.328125 56 
Q 43.359375 56 49.78125 48.890625 
Q 56.203125 41.796875 56.203125 29.59375 
z
M 47.21875 32.234375 
Q 47.125 39.59375 43.09375 43.984375 
Q 39.0625 48.390625 32.421875 48.390625 
Q 24.90625 48.390625 20.390625 44.140625 
Q 15.875 39.890625 15.1875 32.171875 
z
" id="DejaVuSans-101"/>
      <path d="M 32.171875 -5.078125 
Q 28.375 -14.84375 24.75 -17.8125 
Q 21.140625 -20.796875 15.09375 -20.796875 
L 7.90625 -20.796875 
L 7.90625 -13.28125 
L 13.1875 -13.28125 
Q 16.890625 -13.28125 18.9375 -11.515625 
Q 21 -9.765625 23.484375 -3.21875 
L 25.09375 0.875 
L 2.984375 54.6875 
L 12.5 54.6875 
L 29.59375 11.921875 
L 46.6875 54.6875 
L 56.203125 54.6875 
z
" id="DejaVuSans-121"/>
     </defs>
     <g transform="translate(2.509375 231.553781)rotate(-90)scale(0.3 -0.3)">
      <use xlink:href="#DejaVuSans-68"/>
      <use x="77.001953" xlink:href="#DejaVuSans-101"/>
      <use x="138.525391" xlink:href="#DejaVuSans-110"/>
      <use x="201.904297" xlink:href="#DejaVuSans-115"/>
      <use x="254.003906" xlink:href="#DejaVuSans-105"/>
      <use x="281.787109" xlink:href="#DejaVuSans-116"/>
      <use x="320.996094" xlink:href="#DejaVuSans-121"/>
     </g>
    </g>
   </g>
   <g id="line2d_13">
    <path clip-path="url(#pde247d4178)" d="M 73.832727 307.584 
L 96.51677 307.477427 
L 97.014607 307.190464 
L 98.075216 306.457555 
L 99.0276 306.118517 
L 99.503791 305.993952 
L 99.828468 306.137281 
L 100.304659 306.648763 
L 100.997302 307.346951 
L 101.451849 307.486655 
L 101.863105 307.389412 
L 102.252716 307.061155 
L 102.707263 306.338411 
L 104.330644 303.36471 
L 104.590385 303.364131 
L 104.850126 303.595986 
L 105.369608 304.482159 
L 105.694284 304.79166 
L 105.88909 304.689806 
L 106.127186 304.213792 
L 106.473507 302.921399 
L 107.512471 298.730234 
L 107.793857 298.427526 
L 108.010308 298.488095 
L 108.248403 298.838175 
L 108.594725 299.837415 
L 109.460528 302.549868 
L 109.720269 302.697254 
L 109.958365 302.545694 
L 110.304686 302.004541 
L 110.932393 300.537794 
L 111.451875 299.510052 
L 111.668326 299.439149 
L 111.863132 299.650941 
L 112.144518 300.392327 
L 112.945386 302.733923 
L 113.140191 302.776745 
L 113.356642 302.542815 
L 113.702963 301.750675 
L 114.179155 300.066834 
L 114.741927 297.077988 
L 115.218119 294.981624 
L 115.456215 294.70649 
L 115.60773 294.85984 
L 115.824181 295.486529 
L 116.192148 297.384302 
L 117.014661 301.827515 
L 117.231111 302.080041 
L 117.382627 301.921147 
L 117.620723 301.202143 
L 118.638042 297.555841 
L 119.070943 297.131697 
L 120.261423 296.329257 
L 120.564454 296.44039 
L 120.910775 296.842147 
L 122.42593 298.951623 
L 122.620736 298.899452 
L 122.815542 298.584004 
L 123.075283 297.662641 
L 123.508184 295.087004 
L 123.984376 292.618555 
L 124.179182 292.361464 
L 124.309052 292.50534 
L 124.525503 293.245194 
L 125.521177 297.43302 
L 125.672692 297.335433 
L 125.910788 296.791516 
L 126.690011 294.76697 
L 126.993042 294.609862 
L 127.512524 294.658103 
L 127.88049 294.876212 
L 128.659713 295.499095 
L 128.854519 295.240934 
L 129.179195 294.353212 
L 129.698677 293.012912 
L 129.936773 292.895727 
L 130.153224 293.0631 
L 130.672706 293.886003 
L 131.322058 295.191851 
L 132.122926 297.022375 
L 132.317732 297.018503 
L 132.534183 296.715751 
L 133.486566 294.992172 
L 133.746307 295.136481 
L 134.309079 295.490629 
L 134.56882 295.391865 
L 134.850206 295.017349 
L 135.174882 294.15528 
L 136.278781 290.719534 
L 136.884843 290.36295 
L 137.122939 289.574654 
L 138.205193 285.200817 
L 138.443289 285.145018 
L 138.65974 285.357417 
L 138.897836 285.967598 
L 139.200867 287.497321 
L 140.06667 292.528677 
L 140.196541 292.497609 
L 140.369701 292.046536 
L 141.083989 289.584241 
L 141.105634 289.59065 
L 141.235504 289.771746 
L 141.4736 290.619309 
L 142.187888 293.41137 
L 142.425984 293.59852 
L 142.62079 293.478332 
L 142.923821 292.965288 
L 143.854559 291.228229 
L 144.265816 290.986216 
L 144.677072 291.002367 
L 145.066683 291.260011 
L 145.586165 291.921653 
L 146.343743 293.270931 
L 146.71171 293.704139 
L 146.906515 293.634077 
L 147.122966 293.238743 
L 147.447642 292.08077 
L 148.032059 288.998465 
L 148.724702 285.655602 
L 149.027733 285.094167 
L 149.287474 285.022935 
L 149.742021 284.979061 
L 150.023407 284.639617 
L 150.369728 283.832451 
L 150.759339 282.328538 
L 151.798303 277.483078 
L 151.841593 277.502558 
L 151.971464 277.778157 
L 152.16627 278.821618 
L 152.490946 282.019028 
L 153.270169 290.063519 
L 153.464974 290.477743 
L 153.5732 290.317588 
L 153.768005 289.398148 
L 154.179262 285.90428 
L 154.590518 283.161777 
L 154.785324 282.886877 
L 154.915195 283.095919 
L 155.15329 284.066421 
L 155.737708 286.519198 
L 155.975803 286.71447 
L 156.495285 286.786538 
L 156.755026 287.314072 
L 157.187928 288.136914 
L 157.317798 288.05343 
L 157.490959 287.592547 
L 157.83728 285.79793 
L 158.248537 283.99081 
L 158.443343 283.836348 
L 158.594858 284.036763 
L 158.919534 284.980732 
L 159.395726 286.163786 
L 159.871918 286.682737 
L 160.218239 287.211496 
L 160.60785 288.287272 
L 161.192268 289.834729 
L 161.387073 289.886379 
L 161.581879 289.638317 
L 161.97149 288.62455 
L 162.923874 285.639054 
L 163.854612 280.842045 
L 163.897903 280.877913 
L 164.027773 281.239286 
L 164.244224 282.651764 
L 164.677125 287.383492 
L 165.174962 291.99232 
L 165.413058 292.673355 
L 165.521283 292.564072 
L 165.672799 291.958809 
L 165.93254 289.768427 
L 166.452022 282.768452 
L 166.906569 277.888183 
L 167.16631 276.917058 
L 167.29618 276.912057 
L 167.469341 277.25683 
L 168.52995 279.993228 
L 169.612203 281.682081 
L 169.871944 281.550878 
L 170.802683 280.848605 
L 171.365455 280.90921 
L 171.560261 280.527297 
L 171.820002 279.421967 
L 172.70745 275.092716 
L 172.83732 275.159193 
L 173.010481 275.602198 
L 173.356802 277.28545 
L 173.962864 280.045278 
L 174.265896 280.517825 
L 174.612217 280.60215 
L 174.893603 280.774937 
L 175.196634 281.285334 
L 175.759406 282.230451 
L 175.997502 282.23223 
L 176.668499 281.992181 
L 176.906595 282.383039 
L 177.382787 283.176249 
L 177.512657 283.057577 
L 177.685818 282.525333 
L 177.988849 280.660702 
L 178.681492 276.232589 
L 178.876297 275.982501 
L 179.006168 276.128898 
L 179.222619 276.857867 
L 179.65552 279.396004 
L 180.153357 281.907895 
L 180.391453 282.28598 
L 180.542969 282.190436 
L 180.759419 281.651129 
L 181.170676 279.836085 
L 181.668513 277.925635 
L 181.906609 277.687065 
L 182.058124 277.831593 
L 182.29622 278.479753 
L 183.378474 282.073924 
L 183.70315 282.248122 
L 183.984536 282.169197 
L 184.200987 281.853124 
L 184.439083 281.025516 
L 184.742114 278.984846 
L 185.781078 270.804322 
L 185.889303 270.787968 
L 185.910948 270.810773 
L 186.062464 271.195151 
L 186.34385 272.738466 
L 187.166363 277.743061 
L 187.339523 277.875408 
L 187.469394 277.64311 
L 187.685845 276.637312 
L 188.053811 273.551008 
L 188.919614 266.013375 
L 189.287581 264.609701 
L 189.547322 264.304372 
L 189.720482 264.384655 
L 189.958578 264.818409 
L 190.43477 266.332125 
L 190.889316 267.487291 
L 191.170703 267.691917 
L 191.495379 267.599932 
L 191.79841 267.612472 
L 192.079796 267.911459 
L 192.447762 268.247969 
L 192.599278 268.121861 
L 192.794083 267.610786 
L 193.16205 265.836866 
L 193.530016 264.481589 
L 193.638242 264.4851 
L 193.768112 264.835517 
L 193.984563 266.296303 
L 194.417464 271.377067 
L 194.828721 275.120068 
L 195.001882 275.509066 
L 195.023527 275.502844 
L 195.131752 275.302959 
L 195.348203 274.211032 
L 196.387167 267.865393 
L 196.863358 266.850588 
L 197.188035 265.947507 
L 197.469421 264.383195 
L 197.815742 260.983629 
L 198.984576 247.945902 
L 199.136092 247.780492 
L 199.157737 247.791719 
L 199.309252 248.069929 
L 199.677219 249.495723 
L 200.02354 250.437503 
L 200.196701 250.461015 
L 200.369861 250.173669 
L 200.672892 249.092608 
L 201.192374 246.265734 
L 201.820082 241.547619 
L 202.274628 238.751646 
L 202.491079 238.407623 
L 202.62095 238.52129 
L 203.097141 239.290231 
L 203.162077 239.219562 
L 203.313592 238.740895 
L 203.573333 236.938664 
L 204.24433 231.950025 
L 204.352556 231.890639 
L 204.374201 231.91452 
L 204.504071 232.304381 
L 204.720522 233.808377 
L 205.131779 238.572044 
L 205.889357 247.140499 
L 206.214033 248.730601 
L 206.408838 248.93221 
L 206.581999 248.786519 
L 207.014901 248.355902 
L 207.209706 248.527094 
L 207.599318 248.911175 
L 207.729188 248.663894 
L 207.923994 247.609117 
L 208.20538 244.475698 
L 208.898023 232.887233 
L 209.309279 228.332423 
L 209.56902 227.325908 
L 209.677245 227.310457 
L 209.69889 227.333231 
L 209.850406 227.712813 
L 210.110147 229.119327 
L 211.06253 235.5043 
L 211.105821 235.480071 
L 211.214046 235.172693 
L 211.408852 233.703514 
L 211.755173 228.817267 
L 212.274655 222.142911 
L 212.469461 221.521896 
L 212.556041 221.617493 
L 212.729202 222.356338 
L 213.227038 226.082036 
L 213.61665 228.027992 
L 213.898036 228.523629 
L 214.157777 228.574258 
L 215.456482 228.372748 
L 215.737868 228.718176 
L 216.452155 229.987637 
L 216.51709 229.92372 
L 216.668606 229.478526 
L 216.885057 227.953873 
L 217.188088 223.880877 
L 218.205407 208.242905 
L 218.443503 207.664634 
L 218.898049 207.342724 
L 219.1145 206.457857 
L 220.088529 201.577562 
L 220.261689 201.585016 
L 220.47814 201.90205 
L 220.802816 202.862874 
L 221.214073 204.901456 
L 221.84178 207.955277 
L 222.036586 208.092723 
L 222.188101 207.85963 
L 222.469487 206.869512 
L 223.378581 202.415044 
L 223.768192 201.003607 
L 223.919708 200.93404 
L 224.049578 201.146805 
L 224.287674 202.101029 
L 225.131832 205.969872 
L 225.348283 206.152299 
L 225.499798 206.018602 
L 225.716249 205.419126 
L 226.040925 203.670597 
L 226.625343 200.554205 
L 226.755213 200.48567 
L 226.776858 200.506569 
L 226.928374 200.904729 
L 227.20976 202.556661 
L 227.772532 205.800606 
L 227.967337 206.026463 
L 228.118853 205.867746 
L 228.400239 205.083861 
L 229.114527 203.003139 
L 229.330977 202.876848 
L 229.482493 203.055732 
L 229.677299 203.709034 
L 229.958685 205.616198 
L 230.716263 211.492744 
L 230.802843 211.330429 
L 230.954358 210.291391 
L 231.214099 206.399991 
L 232.144838 190.343402 
L 232.382934 189.599087 
L 232.491159 189.65686 
L 232.685965 190.163686 
L 233.421897 192.431077 
L 233.551768 192.332547 
L 233.746574 191.826614 
L 234.11454 190.12582 
L 234.417571 187.767805 
L 234.634022 184.140792 
L 234.872118 175.78224 
L 235.153504 156.436067 
L 235.56476 109.196876 
L 236.062597 58.16511 
L 236.214113 54.144 
L 236.235758 54.160936 
L 236.300693 55.101642 
L 236.452209 62.233733 
L 236.733595 89.605172 
L 237.534463 172.200347 
L 237.837494 183.492987 
L 238.032299 185.299349 
L 238.097235 185.156089 
L 238.227105 183.968148 
L 238.486846 178.963714 
L 239.48252 157.534182 
L 239.763906 155.726475 
L 239.872131 155.583361 
L 239.915421 155.615821 
L 240.045292 156.045117 
L 240.240097 157.733024 
L 240.521483 162.608331 
L 241.776898 188.748801 
L 242.534476 195.166869 
L 243.57344 207.150096 
L 243.70331 207.340977 
L 243.7466 207.312397 
L 243.876471 206.960335 
L 244.092922 205.577773 
L 244.547468 200.764794 
L 245.06695 196.133088 
L 245.391626 194.958901 
L 245.997689 193.558189 
L 246.279075 191.631213 
L 247.101588 184.739066 
L 247.144878 184.769227 
L 247.253103 185.165551 
L 247.447909 187.044931 
L 247.772585 192.866147 
L 248.508518 206.293047 
L 248.789904 207.939957 
L 248.898129 207.998494 
L 248.919774 207.976367 
L 249.049645 207.629827 
L 249.287741 206.183057 
L 249.655707 202.346793 
L 250.261769 193.169688 
L 250.759606 186.95006 
L 250.954412 186.329048 
L 251.040992 186.509784 
L 251.192508 187.509078 
L 251.473894 191.238957 
L 252.058311 199.145497 
L 252.209826 199.588619 
L 252.231471 199.581614 
L 252.339697 199.306786 
L 252.556148 197.859934 
L 252.989049 195.075902 
L 253.053984 195.050717 
L 253.097275 195.116097 
L 253.227145 195.710607 
L 253.465241 198.135866 
L 254.179529 206.134599 
L 254.417624 206.73307 
L 254.547495 206.686946 
L 254.742301 206.283189 
L 255.023687 205.090341 
L 255.391653 202.393517 
L 255.8462 199.334054 
L 255.93278 199.23099 
L 255.97607 199.269511 
L 256.105941 199.772404 
L 256.322391 201.884985 
L 256.776938 209.377328 
L 257.20984 214.819564 
L 257.42629 215.635171 
L 257.534516 215.565709 
L 257.686031 215.022987 
L 257.989063 212.871346 
L 258.74664 207.277247 
L 258.963091 206.933943 
L 259.071317 207.091546 
L 259.244477 207.836489 
L 259.504218 210.101417 
L 259.98041 216.797865 
L 260.434957 221.960208 
L 260.651407 222.554246 
L 260.759633 222.369858 
L 260.976083 221.322553 
L 261.495565 218.707501 
L 261.603791 218.660626 
L 261.625436 218.679792 
L 261.755306 218.992724 
L 261.993402 220.362421 
L 262.447949 224.744263 
L 263.075656 230.382637 
L 263.335397 231.20601 
L 263.465268 231.157331 
L 263.638428 230.682232 
L 264.179555 228.880008 
L 264.2012 228.894269 
L 264.309426 229.151883 
L 264.482586 230.252871 
L 264.785617 233.903722 
L 265.326744 240.217746 
L 265.499905 240.699015 
L 265.52155 240.693636 
L 265.629776 240.466171 
L 265.846226 239.205122 
L 266.625449 234.009834 
L 266.79861 233.902713 
L 266.950125 234.168905 
L 267.209866 235.239045 
L 267.750993 238.736806 
L 268.29212 241.743795 
L 268.530216 242.182846 
L 268.681732 242.12038 
L 268.941473 241.631186 
L 269.244504 241.217409 
L 269.374374 241.332417 
L 269.56918 241.954428 
L 269.915501 244.096181 
L 270.370048 246.538209 
L 270.521563 246.69016 
L 270.543209 246.678123 
L 270.673079 246.439353 
L 270.93282 245.319745 
L 271.409012 243.392496 
L 271.560527 243.362307 
L 271.712043 243.660306 
L 272.123299 245.238378 
L 272.38304 245.742277 
L 272.491266 245.636048 
L 272.664426 244.990404 
L 272.924167 242.947478 
L 273.898196 234.02405 
L 273.984776 233.997236 
L 274.006421 234.018902 
L 274.136292 234.37744 
L 274.374388 235.924461 
L 274.828934 240.795747 
L 276.062704 254.394164 
L 276.38738 255.872064 
L 276.560541 255.987213 
L 276.712056 255.740643 
L 276.971797 254.76501 
L 277.75102 251.576156 
L 277.967471 251.443134 
L 278.162277 251.623405 
L 278.595178 252.467857 
L 279.07137 253.766109 
L 279.417691 255.547451 
L 280.997782 265.175686 
L 281.79865 268.072568 
L 282.253197 268.890465 
L 282.642808 269.195438 
L 282.945839 269.160272 
L 283.33545 269.115021 
L 283.573546 269.349553 
L 284.157964 270.036824 
L 284.331124 269.848099 
L 284.590865 269.112962 
L 285.305153 266.85546 
L 285.456668 266.866676 
L 285.629829 267.226826 
L 285.88957 268.457749 
L 287.16663 275.744409 
L 287.729402 277.417336 
L 288.595205 280.348297 
L 288.79001 280.427872 
L 288.963171 280.240727 
L 289.222912 279.568105 
L 290.326811 276.205446 
L 290.499972 276.2894 
L 290.716423 276.718828 
L 291.668806 279.137116 
L 291.690451 279.129166 
L 291.863612 278.926695 
L 292.534609 277.714626 
L 292.599544 277.770208 
L 292.772705 278.182117 
L 293.075736 279.667606 
L 293.595218 282.137605 
L 293.768379 282.265782 
L 293.898249 282.058602 
L 294.1147 281.205823 
L 294.569247 278.257911 
L 295.283534 273.969895 
L 295.629856 273.009243 
L 295.824661 272.934577 
L 295.997822 273.136422 
L 296.300853 273.91497 
L 296.777045 275.054765 
L 296.92856 275.027884 
L 297.080076 274.674198 
L 297.318172 273.382797 
L 298.183975 267.215292 
L 298.24891 267.285464 
L 298.378781 267.810865 
L 298.616877 269.959648 
L 299.374454 277.573396 
L 299.461035 277.651964 
L 299.504325 277.609752 
L 299.634195 277.186889 
L 299.915581 275.211504 
L 300.413418 271.925992 
L 300.608224 271.671391 
L 300.738094 271.857291 
L 300.97619 272.747578 
L 301.603897 276.366091 
L 302.599571 281.717563 
L 302.989183 282.675924 
L 303.5736 283.841027 
L 304.417758 286.119756 
L 304.569273 285.992645 
L 304.785724 285.412499 
L 305.694817 282.359435 
L 305.716463 282.37058 
L 305.867978 282.636299 
L 306.106074 283.688953 
L 306.625556 287.45235 
L 307.080103 289.928438 
L 307.383134 290.561423 
L 307.70781 290.74401 
L 308.119066 291.002544 
L 308.595258 291.305352 
L 308.790064 291.167727 
L 309.049805 290.633824 
L 309.547642 288.915047 
L 310.60825 285.385165 
L 310.867991 285.095836 
L 311.041152 285.20084 
L 311.279248 285.692221 
L 311.820375 286.873748 
L 311.97189 286.815043 
L 312.166696 286.385155 
L 312.945919 284.058818 
L 312.989209 284.07899 
L 313.140725 284.338553 
L 313.400466 285.356527 
L 314.43943 290.013255 
L 315.240297 291.829776 
L 315.543329 292.153656 
L 315.716489 292.062526 
L 315.911295 291.635729 
L 316.192681 290.374883 
L 317.29658 284.517329 
L 317.42645 284.562466 
L 317.599611 284.947597 
L 317.880997 286.236632 
L 318.465414 290.278902 
L 319.028186 293.527971 
L 319.309572 294.137611 
L 319.461088 294.109541 
L 319.655894 293.74997 
L 320.391826 292.038207 
L 320.543342 292.261676 
L 320.781438 293.183495 
L 321.755466 297.731959 
L 321.971917 297.789667 
L 322.231658 297.558786 
L 322.772785 296.715247 
L 323.140751 295.694505 
L 323.595298 293.621884 
L 324.179715 291.173053 
L 324.396166 290.945242 
L 324.569327 291.076379 
L 324.894003 291.74747 
L 325.261969 292.333353 
L 325.456775 292.3147 
L 325.651581 292.025759 
L 325.932967 291.122785 
L 326.279288 289.164652 
L 326.863705 284.225467 
L 327.339897 280.966469 
L 327.577993 280.428942 
L 327.686218 280.501167 
L 327.837734 280.953972 
L 328.07583 282.470559 
L 328.508731 287.056416 
L 329.136438 293.245364 
L 329.43947 294.478512 
L 329.65592 294.662672 
L 329.829081 294.485272 
L 330.088822 293.790812 
L 330.521724 291.82578 
L 331.01956 289.816879 
L 331.214366 289.647103 
L 331.365882 289.825935 
L 331.603977 290.564713 
L 332.491426 293.744453 
L 332.707877 293.810276 
L 332.924327 293.56475 
L 333.313939 292.666404 
L 334.049871 291.045 
L 334.655934 290.338686 
L 335.132125 289.625806 
L 335.738188 288.736371 
L 335.954638 288.748892 
L 336.171089 289.018323 
L 336.495765 289.85675 
L 337.036892 291.996647 
L 338.075856 296.113654 
L 338.270662 296.263669 
L 338.400532 296.102188 
L 338.595338 295.40634 
L 338.898369 293.310827 
L 339.591012 288.233842 
L 339.742527 288.059012 
L 339.764172 288.074549 
L 339.894043 288.375904 
L 340.110494 289.579531 
L 341.214393 296.91409 
L 341.387553 296.955323 
L 341.604004 296.70309 
L 342.058551 296.179656 
L 342.253357 296.265656 
L 342.556388 296.739981 
L 343.010934 297.370078 
L 343.227385 297.345427 
L 343.552061 296.99507 
L 343.876737 296.770958 
L 344.049898 296.913382 
L 344.266349 297.440127 
L 344.634315 299.058275 
L 345.197087 301.390278 
L 345.413538 301.629599 
L 345.565054 301.509954 
L 345.80315 300.906804 
L 346.647308 298.357126 
L 346.842113 298.385656 
L 347.16679 298.785229 
L 347.491466 299.039902 
L 347.707917 298.929718 
L 348.032593 298.432081 
L 348.53043 297.759502 
L 348.74688 297.778808 
L 348.984976 298.069719 
L 349.959005 299.578592 
L 350.478487 299.830483 
L 350.738228 300.340426 
L 351.127839 301.695909 
L 352.101868 305.283983 
L 352.361609 305.571598 
L 352.534769 305.472937 
L 352.75122 304.985272 
L 353.075896 303.544317 
L 353.941699 299.31208 
L 354.136505 299.212621 
L 354.309666 299.452743 
L 354.677632 300.512179 
L 355.067244 301.349298 
L 355.262049 301.360996 
L 355.456855 301.080958 
L 355.868111 299.938007 
L 356.279368 299.052376 
L 356.517464 298.967152 
L 356.75556 299.162825 
L 357.621363 300.433747 
L 358.184135 301.426853 
L 358.725262 302.338693 
L 358.920068 302.351907 
L 359.136518 302.097466 
L 360.002322 300.770589 
L 360.218772 300.987621 
L 360.630029 301.856366 
L 361.127866 302.745513 
L 361.409252 302.885905 
L 361.668993 302.763396 
L 361.972024 302.340277 
L 362.469861 301.17727 
L 362.946052 300.254982 
L 363.184148 300.183575 
L 363.400599 300.391006 
L 363.768565 301.146422 
L 365.976364 306.129199 
L 366.669006 306.771452 
L 367.058617 306.923542 
L 367.318358 306.804227 
L 367.62139 306.379536 
L 368.075936 305.273336 
L 368.746934 303.727354 
L 369.006675 303.573697 
L 369.223125 303.696515 
L 369.569447 304.234303 
L 370.218799 305.239646 
L 370.52183 305.332292 
L 370.911442 305.170725 
L 371.344343 305.064424 
L 371.690664 305.23696 
L 372.383307 305.641622 
L 372.707983 305.522699 
L 373.487206 305.118925 
L 373.768592 305.305616 
L 375.024007 306.459087 
L 375.586779 306.74629 
L 376.712323 307.510977 
L 377.404965 307.569142 
L 378.054318 307.440653 
L 378.487219 307.1149 
L 379.158217 306.22523 
L 379.547828 305.908887 
L 379.829214 305.94443 
L 380.240471 306.291331 
L 380.738308 306.634799 
L 381.149564 306.629594 
L 381.647401 306.663048 
L 382.101948 306.981798 
L 382.816235 307.46539 
L 383.443943 307.573483 
L 386.062997 307.584 
L 398.487273 307.584 
L 398.487273 307.584 
" style="fill:none;stroke:#ff7f0e;stroke-linecap:square;stroke-width:1.5;"/>
   </g>
   <g id="patch_103">
    <path d="M 57.6 307.584 
L 57.6 41.472 
" style="fill:none;stroke:#000000;stroke-linecap:square;stroke-linejoin:miter;stroke-width:0.8;"/>
   </g>
   <g id="patch_104">
    <path d="M 414.72 307.584 
L 414.72 41.472 
" style="fill:none;stroke:#000000;stroke-linecap:square;stroke-linejoin:miter;stroke-width:0.8;"/>
   </g>
   <g id="patch_105">
    <path d="M 57.6 307.584 
L 414.72 307.584 
" style="fill:none;stroke:#000000;stroke-linecap:square;stroke-linejoin:miter;stroke-width:0.8;"/>
   </g>
   <g id="patch_106">
    <path d="M 57.6 41.472 
L 414.72 41.472 
" style="fill:none;stroke:#000000;stroke-linecap:square;stroke-linejoin:miter;stroke-width:0.8;"/>
   </g>
  </g>
 </g>
 <defs>
  <clipPath id="pde247d4178">
   <rect height="266.112" width="357.12" x="57.6" y="41.472"/>
  </clipPath>
 </defs>
</svg>
