<?xml version="1.0" encoding="utf-8" standalone="no"?>
<!DOCTYPE svg PUBLIC "-//W3C//DTD SVG 1.1//EN"
  "http://www.w3.org/Graphics/SVG/1.1/DTD/svg11.dtd">
<!-- Created with matplotlib (https://matplotlib.org/) -->
<svg height="345.6pt" version="1.1" viewBox="0 0 460.8 345.6" width="460.8pt" xmlns="http://www.w3.org/2000/svg" xmlns:xlink="http://www.w3.org/1999/xlink">
 <defs>
  <style type="text/css">
*{stroke-linecap:butt;stroke-linejoin:round;}
  </style>
 </defs>
 <g id="figure_1">
  <g id="patch_1">
   <path d="M 0 345.6 
L 460.8 345.6 
L 460.8 0 
L 0 0 
z
" style="fill:#ffffff;"/>
  </g>
  <g id="axes_1">
   <g id="patch_2">
    <path d="M 57.6 307.584 
L 414.72 307.584 
L 414.72 41.472 
L 57.6 41.472 
z
" style="fill:#ffffff;"/>
   </g>
   <g id="patch_3">
    <path clip-path="url(#p7105384e61)" d="M 73.832727 307.584 
L 77.079274 307.584 
L 77.079274 307.255357 
L 73.832727 307.255357 
z
" style="fill:#1f77b4;"/>
   </g>
   <g id="patch_4">
    <path clip-path="url(#p7105384e61)" d="M 77.079274 307.584 
L 80.325821 307.584 
L 80.325821 305.940787 
L 77.079274 305.940787 
z
" style="fill:#1f77b4;"/>
   </g>
   <g id="patch_5">
    <path clip-path="url(#p7105384e61)" d="M 80.325821 307.584 
L 83.572369 307.584 
L 83.572369 306.926715 
L 80.325821 306.926715 
z
" style="fill:#1f77b4;"/>
   </g>
   <g id="patch_6">
    <path clip-path="url(#p7105384e61)" d="M 83.572369 307.584 
L 86.818916 307.584 
L 86.818916 305.283502 
L 83.572369 305.283502 
z
" style="fill:#1f77b4;"/>
   </g>
   <g id="patch_7">
    <path clip-path="url(#p7105384e61)" d="M 86.818929 307.584 
L 90.065463 307.584 
L 90.065463 304.626204 
L 86.818929 304.626204 
z
" style="fill:#1f77b4;"/>
   </g>
   <g id="patch_8">
    <path clip-path="url(#p7105384e61)" d="M 90.065449 307.584 
L 93.311996 307.584 
L 93.311996 306.26943 
L 90.065449 306.26943 
z
" style="fill:#1f77b4;"/>
   </g>
   <g id="patch_9">
    <path clip-path="url(#p7105384e61)" d="M 93.311996 307.584 
L 96.558543 307.584 
L 96.558543 304.626217 
L 93.311996 304.626217 
z
" style="fill:#1f77b4;"/>
   </g>
   <g id="patch_10">
    <path clip-path="url(#p7105384e61)" d="M 96.558543 307.584 
L 99.80509 307.584 
L 99.80509 304.954859 
L 96.558543 304.954859 
z
" style="fill:#1f77b4;"/>
   </g>
   <g id="patch_11">
    <path clip-path="url(#p7105384e61)" d="M 99.80509 307.584 
L 103.051637 307.584 
L 103.051637 305.283502 
L 99.80509 305.283502 
z
" style="fill:#1f77b4;"/>
   </g>
   <g id="patch_12">
    <path clip-path="url(#p7105384e61)" d="M 103.051637 307.584 
L 106.298185 307.584 
L 106.298185 305.940787 
L 103.051637 305.940787 
z
" style="fill:#1f77b4;"/>
   </g>
   <g id="patch_13">
    <path clip-path="url(#p7105384e61)" d="M 106.298185 307.584 
L 109.544732 307.584 
L 109.544732 303.968931 
L 106.298185 303.968931 
z
" style="fill:#1f77b4;"/>
   </g>
   <g id="patch_14">
    <path clip-path="url(#p7105384e61)" d="M 109.544732 307.584 
L 112.791279 307.584 
L 112.791279 306.26943 
L 109.544732 306.26943 
z
" style="fill:#1f77b4;"/>
   </g>
   <g id="patch_15">
    <path clip-path="url(#p7105384e61)" d="M 112.791279 307.584 
L 116.037819 307.584 
L 116.037819 303.968924 
L 112.791279 303.968924 
z
" style="fill:#1f77b4;"/>
   </g>
   <g id="patch_16">
    <path clip-path="url(#p7105384e61)" d="M 116.037819 307.584 
L 119.284366 307.584 
L 119.284366 304.297574 
L 116.037819 304.297574 
z
" style="fill:#1f77b4;"/>
   </g>
   <g id="patch_17">
    <path clip-path="url(#p7105384e61)" d="M 119.284359 307.584 
L 122.530899 307.584 
L 122.530899 303.968924 
L 119.284359 303.968924 
z
" style="fill:#1f77b4;"/>
   </g>
   <g id="patch_18">
    <path clip-path="url(#p7105384e61)" d="M 122.530906 307.584 
L 125.777453 307.584 
L 125.777453 303.968931 
L 122.530906 303.968931 
z
" style="fill:#1f77b4;"/>
   </g>
   <g id="patch_19">
    <path clip-path="url(#p7105384e61)" d="M 125.777453 307.584 
L 129.024001 307.584 
L 129.024001 300.682505 
L 125.777453 300.682505 
z
" style="fill:#1f77b4;"/>
   </g>
   <g id="patch_20">
    <path clip-path="url(#p7105384e61)" d="M 129.024001 307.584 
L 132.270548 307.584 
L 132.270548 303.311646 
L 129.024001 303.311646 
z
" style="fill:#1f77b4;"/>
   </g>
   <g id="patch_21">
    <path clip-path="url(#p7105384e61)" d="M 132.270548 307.584 
L 135.517088 307.584 
L 135.517088 302.654351 
L 132.270548 302.654351 
z
" style="fill:#1f77b4;"/>
   </g>
   <g id="patch_22">
    <path clip-path="url(#p7105384e61)" d="M 135.517088 307.584 
L 138.763635 307.584 
L 138.763635 300.353863 
L 135.517088 300.353863 
z
" style="fill:#1f77b4;"/>
   </g>
   <g id="patch_23">
    <path clip-path="url(#p7105384e61)" d="M 138.763635 307.584 
L 142.010182 307.584 
L 142.010182 303.311646 
L 138.763635 303.311646 
z
" style="fill:#1f77b4;"/>
   </g>
   <g id="patch_24">
    <path clip-path="url(#p7105384e61)" d="M 142.010182 307.584 
L 145.256729 307.584 
L 145.256729 302.654361 
L 142.010182 302.654361 
z
" style="fill:#1f77b4;"/>
   </g>
   <g id="patch_25">
    <path clip-path="url(#p7105384e61)" d="M 145.256722 307.584 
L 148.503263 307.584 
L 148.503263 300.682491 
L 145.256722 300.682491 
z
" style="fill:#1f77b4;"/>
   </g>
   <g id="patch_26">
    <path clip-path="url(#p7105384e61)" d="M 148.503269 307.584 
L 151.749817 307.584 
L 151.749817 300.682505 
L 148.503269 300.682505 
z
" style="fill:#1f77b4;"/>
   </g>
   <g id="patch_27">
    <path clip-path="url(#p7105384e61)" d="M 151.749817 307.584 
L 154.996364 307.584 
L 154.996364 298.382007 
L 151.749817 298.382007 
z
" style="fill:#1f77b4;"/>
   </g>
   <g id="patch_28">
    <path clip-path="url(#p7105384e61)" d="M 154.996364 307.584 
L 158.242911 307.584 
L 158.242911 293.123726 
L 154.996364 293.123726 
z
" style="fill:#1f77b4;"/>
   </g>
   <g id="patch_29">
    <path clip-path="url(#p7105384e61)" d="M 158.242911 307.584 
L 161.489458 307.584 
L 161.489458 291.15187 
L 158.242911 291.15187 
z
" style="fill:#1f77b4;"/>
   </g>
   <g id="patch_30">
    <path clip-path="url(#p7105384e61)" d="M 161.489458 307.584 
L 164.735998 307.584 
L 164.735998 290.165906 
L 161.489458 290.165906 
z
" style="fill:#1f77b4;"/>
   </g>
   <g id="patch_31">
    <path clip-path="url(#p7105384e61)" d="M 164.735998 307.584 
L 167.982545 307.584 
L 167.982545 286.879516 
L 164.735998 286.879516 
z
" style="fill:#1f77b4;"/>
   </g>
   <g id="patch_32">
    <path clip-path="url(#p7105384e61)" d="M 167.982545 307.584 
L 171.229092 307.584 
L 171.229092 282.935805 
L 167.982545 282.935805 
z
" style="fill:#1f77b4;"/>
   </g>
   <g id="patch_33">
    <path clip-path="url(#p7105384e61)" d="M 171.229092 307.584 
L 174.475636 307.584 
L 174.475636 282.607136 
L 171.229092 282.607136 
z
" style="fill:#1f77b4;"/>
   </g>
   <g id="patch_34">
    <path clip-path="url(#p7105384e61)" d="M 174.475636 307.584 
L 177.722183 307.584 
L 177.722183 283.264448 
L 174.475636 283.264448 
z
" style="fill:#1f77b4;"/>
   </g>
   <g id="patch_35">
    <path clip-path="url(#p7105384e61)" d="M 177.72218 307.584 
L 180.968723 307.584 
L 180.968723 280.963921 
L 177.72218 280.963921 
z
" style="fill:#1f77b4;"/>
   </g>
   <g id="patch_36">
    <path clip-path="url(#p7105384e61)" d="M 180.968727 307.584 
L 184.215274 307.584 
L 184.215274 272.747885 
L 180.968727 272.747885 
z
" style="fill:#1f77b4;"/>
   </g>
   <g id="patch_37">
    <path clip-path="url(#p7105384e61)" d="M 184.215274 307.584 
L 187.461817 307.584 
L 187.461817 272.090562 
L 184.215274 272.090562 
z
" style="fill:#1f77b4;"/>
   </g>
   <g id="patch_38">
    <path clip-path="url(#p7105384e61)" d="M 187.461817 307.584 
L 190.708365 307.584 
L 190.708365 257.958968 
L 187.461817 257.958968 
z
" style="fill:#1f77b4;"/>
   </g>
   <g id="patch_39">
    <path clip-path="url(#p7105384e61)" d="M 190.708361 307.584 
L 193.954905 307.584 
L 193.954905 261.245345 
L 190.708361 261.245345 
z
" style="fill:#1f77b4;"/>
   </g>
   <g id="patch_40">
    <path clip-path="url(#p7105384e61)" d="M 193.954908 307.584 
L 197.201455 307.584 
L 197.201455 253.357971 
L 193.954908 253.357971 
z
" style="fill:#1f77b4;"/>
   </g>
   <g id="patch_41">
    <path clip-path="url(#p7105384e61)" d="M 197.201455 307.584 
L 200.448001 307.584 
L 200.448001 246.456444 
L 197.201455 246.456444 
z
" style="fill:#1f77b4;"/>
   </g>
   <g id="patch_42">
    <path clip-path="url(#p7105384e61)" d="M 200.447999 307.584 
L 203.694544 307.584 
L 203.694544 247.442373 
L 200.447999 247.442373 
z
" style="fill:#1f77b4;"/>
   </g>
   <g id="patch_43">
    <path clip-path="url(#p7105384e61)" d="M 203.694546 307.584 
L 206.941092 307.584 
L 206.941092 240.212232 
L 203.694546 240.212232 
z
" style="fill:#1f77b4;"/>
   </g>
   <g id="patch_44">
    <path clip-path="url(#p7105384e61)" d="M 206.94109 307.584 
L 210.187635 307.584 
L 210.187635 238.569018 
L 206.94109 238.569018 
z
" style="fill:#1f77b4;"/>
   </g>
   <g id="patch_45">
    <path clip-path="url(#p7105384e61)" d="M 210.187637 307.584 
L 213.434182 307.584 
L 213.434182 237.911732 
L 210.187637 237.911732 
z
" style="fill:#1f77b4;"/>
   </g>
   <g id="patch_46">
    <path clip-path="url(#p7105384e61)" d="M 213.434182 307.584 
L 216.680728 307.584 
L 216.680728 237.254447 
L 213.434182 237.254447 
z
" style="fill:#1f77b4;"/>
   </g>
   <g id="patch_47">
    <path clip-path="url(#p7105384e61)" d="M 216.680728 307.584 
L 219.927273 307.584 
L 219.927273 228.709735 
L 216.680728 228.709735 
z
" style="fill:#1f77b4;"/>
   </g>
   <g id="patch_48">
    <path clip-path="url(#p7105384e61)" d="M 219.927273 307.584 
L 223.173818 307.584 
L 223.173818 210.305727 
L 219.927273 210.305727 
z
" style="fill:#1f77b4;"/>
   </g>
   <g id="patch_49">
    <path clip-path="url(#p7105384e61)" d="M 223.173818 307.584 
L 226.420364 307.584 
L 226.420364 194.202251 
L 223.173818 194.202251 
z
" style="fill:#1f77b4;"/>
   </g>
   <g id="patch_50">
    <path clip-path="url(#p7105384e61)" d="M 226.420364 307.584 
L 229.666909 307.584 
L 229.666909 132.746045 
L 226.420364 132.746045 
z
" style="fill:#1f77b4;"/>
   </g>
   <g id="patch_51">
    <path clip-path="url(#p7105384e61)" d="M 229.666909 307.584 
L 232.913455 307.584 
L 232.913455 186.64346 
L 229.666909 186.64346 
z
" style="fill:#1f77b4;"/>
   </g>
   <g id="patch_52">
    <path clip-path="url(#p7105384e61)" d="M 232.913455 307.584 
L 236.16 307.584 
L 236.16 218.193166 
L 232.913455 218.193166 
z
" style="fill:#1f77b4;"/>
   </g>
   <g id="patch_53">
    <path clip-path="url(#p7105384e61)" d="M 236.16 307.584 
L 239.406545 307.584 
L 239.406545 220.165023 
L 236.16 220.165023 
z
" style="fill:#1f77b4;"/>
   </g>
   <g id="patch_54">
    <path clip-path="url(#p7105384e61)" d="M 239.406545 307.584 
L 242.653091 307.584 
L 242.653091 206.033383 
L 239.406545 206.033383 
z
" style="fill:#1f77b4;"/>
   </g>
   <g id="patch_55">
    <path clip-path="url(#p7105384e61)" d="M 242.653091 307.584 
L 245.899636 307.584 
L 245.899636 223.45145 
L 242.653091 223.45145 
z
" style="fill:#1f77b4;"/>
   </g>
   <g id="patch_56">
    <path clip-path="url(#p7105384e61)" d="M 245.899634 307.584 
L 249.14618 307.584 
L 249.14618 219.179094 
L 245.899634 219.179094 
z
" style="fill:#1f77b4;"/>
   </g>
   <g id="patch_57">
    <path clip-path="url(#p7105384e61)" d="M 249.146182 307.584 
L 252.392727 307.584 
L 252.392727 230.024306 
L 249.146182 230.024306 
z
" style="fill:#1f77b4;"/>
   </g>
   <g id="patch_58">
    <path clip-path="url(#p7105384e61)" d="M 252.392725 307.584 
L 255.639271 307.584 
L 255.639271 227.395164 
L 252.392725 227.395164 
z
" style="fill:#1f77b4;"/>
   </g>
   <g id="patch_59">
    <path clip-path="url(#p7105384e61)" d="M 255.639272 307.584 
L 258.885819 307.584 
L 258.885819 234.2967 
L 255.639272 234.2967 
z
" style="fill:#1f77b4;"/>
   </g>
   <g id="patch_60">
    <path clip-path="url(#p7105384e61)" d="M 258.885816 307.584 
L 262.13236 307.584 
L 262.13236 229.038336 
L 258.885816 229.038336 
z
" style="fill:#1f77b4;"/>
   </g>
   <g id="patch_61">
    <path clip-path="url(#p7105384e61)" d="M 262.132363 307.584 
L 265.37891 307.584 
L 265.37891 232.324845 
L 262.132363 232.324845 
z
" style="fill:#1f77b4;"/>
   </g>
   <g id="patch_62">
    <path clip-path="url(#p7105384e61)" d="M 265.37891 307.584 
L 268.625454 307.584 
L 268.625454 237.911696 
L 265.37891 237.911696 
z
" style="fill:#1f77b4;"/>
   </g>
   <g id="patch_63">
    <path clip-path="url(#p7105384e61)" d="M 268.625454 307.584 
L 271.872001 307.584 
L 271.872001 242.512765 
L 268.625454 242.512765 
z
" style="fill:#1f77b4;"/>
   </g>
   <g id="patch_64">
    <path clip-path="url(#p7105384e61)" d="M 271.871998 307.584 
L 275.118541 307.584 
L 275.118541 237.25441 
L 271.871998 237.25441 
z
" style="fill:#1f77b4;"/>
   </g>
   <g id="patch_65">
    <path clip-path="url(#p7105384e61)" d="M 275.118545 307.584 
L 278.365092 307.584 
L 278.365092 252.372043 
L 275.118545 252.372043 
z
" style="fill:#1f77b4;"/>
   </g>
   <g id="patch_66">
    <path clip-path="url(#p7105384e61)" d="M 278.365092 307.584 
L 281.611635 307.584 
L 281.611635 241.198125 
L 278.365092 241.198125 
z
" style="fill:#1f77b4;"/>
   </g>
   <g id="patch_67">
    <path clip-path="url(#p7105384e61)" d="M 281.611635 307.584 
L 284.858183 307.584 
L 284.858183 251.714758 
L 281.611635 251.714758 
z
" style="fill:#1f77b4;"/>
   </g>
   <g id="patch_68">
    <path clip-path="url(#p7105384e61)" d="M 284.858179 307.584 
L 288.104726 307.584 
L 288.104726 255.329772 
L 284.858179 255.329772 
z
" style="fill:#1f77b4;"/>
   </g>
   <g id="patch_69">
    <path clip-path="url(#p7105384e61)" d="M 288.104726 307.584 
L 291.351273 307.584 
L 291.351273 263.217249 
L 288.104726 263.217249 
z
" style="fill:#1f77b4;"/>
   </g>
   <g id="patch_70">
    <path clip-path="url(#p7105384e61)" d="M 291.351273 307.584 
L 294.59782 307.584 
L 294.59782 275.377025 
L 291.351273 275.377025 
z
" style="fill:#1f77b4;"/>
   </g>
   <g id="patch_71">
    <path clip-path="url(#p7105384e61)" d="M 294.59782 307.584 
L 297.844361 307.584 
L 297.844361 264.531729 
L 294.59782 264.531729 
z
" style="fill:#1f77b4;"/>
   </g>
   <g id="patch_72">
    <path clip-path="url(#p7105384e61)" d="M 297.844361 307.584 
L 301.090908 307.584 
L 301.090908 270.776029 
L 297.844361 270.776029 
z
" style="fill:#1f77b4;"/>
   </g>
   <g id="patch_73">
    <path clip-path="url(#p7105384e61)" d="M 301.090908 307.584 
L 304.337455 307.584 
L 304.337455 268.475531 
L 301.090908 268.475531 
z
" style="fill:#1f77b4;"/>
   </g>
   <g id="patch_74">
    <path clip-path="url(#p7105384e61)" d="M 304.337455 307.584 
L 307.584002 307.584 
L 307.584002 272.090599 
L 304.337455 272.090599 
z
" style="fill:#1f77b4;"/>
   </g>
   <g id="patch_75">
    <path clip-path="url(#p7105384e61)" d="M 307.583995 307.584 
L 310.830535 307.584 
L 310.830535 269.790021 
L 307.583995 269.790021 
z
" style="fill:#1f77b4;"/>
   </g>
   <g id="patch_76">
    <path clip-path="url(#p7105384e61)" d="M 310.830542 307.584 
L 314.077089 307.584 
L 314.077089 276.362953 
L 310.830542 276.362953 
z
" style="fill:#1f77b4;"/>
   </g>
   <g id="patch_77">
    <path clip-path="url(#p7105384e61)" d="M 314.077089 307.584 
L 317.323636 307.584 
L 317.323636 275.377025 
L 314.077089 275.377025 
z
" style="fill:#1f77b4;"/>
   </g>
   <g id="patch_78">
    <path clip-path="url(#p7105384e61)" d="M 317.323636 307.584 
L 320.570183 307.584 
L 320.570183 278.334809 
L 317.323636 278.334809 
z
" style="fill:#1f77b4;"/>
   </g>
   <g id="patch_79">
    <path clip-path="url(#p7105384e61)" d="M 320.570183 307.584 
L 323.816731 307.584 
L 323.816731 279.649379 
L 320.570183 279.649379 
z
" style="fill:#1f77b4;"/>
   </g>
   <g id="patch_80">
    <path clip-path="url(#p7105384e61)" d="M 323.816731 307.584 
L 327.063271 307.584 
L 327.063271 285.236256 
L 323.816731 285.236256 
z
" style="fill:#1f77b4;"/>
   </g>
   <g id="patch_81">
    <path clip-path="url(#p7105384e61)" d="M 327.063271 307.584 
L 330.309818 307.584 
L 330.309818 283.264448 
L 327.063271 283.264448 
z
" style="fill:#1f77b4;"/>
   </g>
   <g id="patch_82">
    <path clip-path="url(#p7105384e61)" d="M 330.309818 307.584 
L 333.556365 307.584 
L 333.556365 291.15187 
L 330.309818 291.15187 
z
" style="fill:#1f77b4;"/>
   </g>
   <g id="patch_83">
    <path clip-path="url(#p7105384e61)" d="M 333.556365 307.584 
L 336.802912 307.584 
L 336.802912 293.781011 
L 333.556365 293.781011 
z
" style="fill:#1f77b4;"/>
   </g>
   <g id="patch_84">
    <path clip-path="url(#p7105384e61)" d="M 336.802905 307.584 
L 340.049446 307.584 
L 340.049446 298.053345 
L 336.802905 298.053345 
z
" style="fill:#1f77b4;"/>
   </g>
   <g id="patch_85">
    <path clip-path="url(#p7105384e61)" d="M 340.049452 307.584 
L 343.295999 307.584 
L 343.295999 301.011148 
L 340.049452 301.011148 
z
" style="fill:#1f77b4;"/>
   </g>
   <g id="patch_86">
    <path clip-path="url(#p7105384e61)" d="M 343.295999 307.584 
L 346.542547 307.584 
L 346.542547 300.353863 
L 343.295999 300.353863 
z
" style="fill:#1f77b4;"/>
   </g>
   <g id="patch_87">
    <path clip-path="url(#p7105384e61)" d="M 346.542547 307.584 
L 349.789094 307.584 
L 349.789094 304.297574 
L 346.542547 304.297574 
z
" style="fill:#1f77b4;"/>
   </g>
   <g id="patch_88">
    <path clip-path="url(#p7105384e61)" d="M 349.789094 307.584 
L 353.035641 307.584 
L 353.035641 300.353863 
L 349.789094 300.353863 
z
" style="fill:#1f77b4;"/>
   </g>
   <g id="patch_89">
    <path clip-path="url(#p7105384e61)" d="M 353.035641 307.584 
L 356.282188 307.584 
L 356.282188 298.71065 
L 353.035641 298.71065 
z
" style="fill:#1f77b4;"/>
   </g>
   <g id="patch_90">
    <path clip-path="url(#p7105384e61)" d="M 356.282202 307.584 
L 359.528735 307.584 
L 359.528735 298.381968 
L 356.282202 298.381968 
z
" style="fill:#1f77b4;"/>
   </g>
   <g id="patch_91">
    <path clip-path="url(#p7105384e61)" d="M 359.528721 307.584 
L 362.775268 307.584 
L 362.775268 300.353863 
L 359.528721 300.353863 
z
" style="fill:#1f77b4;"/>
   </g>
   <g id="patch_92">
    <path clip-path="url(#p7105384e61)" d="M 362.775268 307.584 
L 366.021815 307.584 
L 366.021815 302.654361 
L 362.775268 302.654361 
z
" style="fill:#1f77b4;"/>
   </g>
   <g id="patch_93">
    <path clip-path="url(#p7105384e61)" d="M 366.021815 307.584 
L 369.268363 307.584 
L 369.268363 304.626217 
L 366.021815 304.626217 
z
" style="fill:#1f77b4;"/>
   </g>
   <g id="patch_94">
    <path clip-path="url(#p7105384e61)" d="M 369.268363 307.584 
L 372.51491 307.584 
L 372.51491 304.954859 
L 369.268363 304.954859 
z
" style="fill:#1f77b4;"/>
   </g>
   <g id="patch_95">
    <path clip-path="url(#p7105384e61)" d="M 372.51491 307.584 
L 375.761457 307.584 
L 375.761457 306.26943 
L 372.51491 306.26943 
z
" style="fill:#1f77b4;"/>
   </g>
   <g id="patch_96">
    <path clip-path="url(#p7105384e61)" d="M 375.761457 307.584 
L 379.008004 307.584 
L 379.008004 304.297574 
L 375.761457 304.297574 
z
" style="fill:#1f77b4;"/>
   </g>
   <g id="patch_97">
    <path clip-path="url(#p7105384e61)" d="M 379.008004 307.584 
L 382.254551 307.584 
L 382.254551 305.283502 
L 379.008004 305.283502 
z
" style="fill:#1f77b4;"/>
   </g>
   <g id="patch_98">
    <path clip-path="url(#p7105384e61)" d="M 382.254551 307.584 
L 385.501084 307.584 
L 385.501084 305.94078 
L 382.254551 305.94078 
z
" style="fill:#1f77b4;"/>
   </g>
   <g id="patch_99">
    <path clip-path="url(#p7105384e61)" d="M 385.501084 307.584 
L 388.747631 307.584 
L 388.747631 305.940787 
L 385.501084 305.940787 
z
" style="fill:#1f77b4;"/>
   </g>
   <g id="patch_100">
    <path clip-path="url(#p7105384e61)" d="M 388.747631 307.584 
L 391.994179 307.584 
L 391.994179 306.26943 
L 388.747631 306.26943 
z
" style="fill:#1f77b4;"/>
   </g>
   <g id="patch_101">
    <path clip-path="url(#p7105384e61)" d="M 391.994179 307.584 
L 395.240726 307.584 
L 395.240726 306.926715 
L 391.994179 306.926715 
z
" style="fill:#1f77b4;"/>
   </g>
   <g id="patch_102">
    <path clip-path="url(#p7105384e61)" d="M 395.240726 307.584 
L 398.487273 307.584 
L 398.487273 306.26943 
L 395.240726 306.26943 
z
" style="fill:#1f77b4;"/>
   </g>
   <g id="matplotlib.axis_1">
    <g id="xtick_1">
     <g id="line2d_1">
      <defs>
       <path d="M 0 0 
L 0 3.5 
" id="m0db6069431" style="stroke:#000000;stroke-width:0.8;"/>
      </defs>
      <g>
       <use style="stroke:#000000;stroke-width:0.8;" x="113.119186" xlink:href="#m0db6069431" y="307.584"/>
      </g>
     </g>
     <g id="text_1">
      <!-- −2 -->
      <defs>
       <path d="M 10.59375 35.5 
L 73.1875 35.5 
L 73.1875 27.203125 
L 10.59375 27.203125 
z
" id="DejaVuSans-8722"/>
       <path d="M 19.1875 8.296875 
L 53.609375 8.296875 
L 53.609375 0 
L 7.328125 0 
L 7.328125 8.296875 
Q 12.9375 14.109375 22.625 23.890625 
Q 32.328125 33.6875 34.8125 36.53125 
Q 39.546875 41.84375 41.421875 45.53125 
Q 43.3125 49.21875 43.3125 52.78125 
Q 43.3125 58.59375 39.234375 62.25 
Q 35.15625 65.921875 28.609375 65.921875 
Q 23.96875 65.921875 18.8125 64.3125 
Q 13.671875 62.703125 7.8125 59.421875 
L 7.8125 69.390625 
Q 13.765625 71.78125 18.9375 73 
Q 24.125 74.21875 28.421875 74.21875 
Q 39.75 74.21875 46.484375 68.546875 
Q 53.21875 62.890625 53.21875 53.421875 
Q 53.21875 48.921875 51.53125 44.890625 
Q 49.859375 40.875 45.40625 35.40625 
Q 44.1875 33.984375 37.640625 27.21875 
Q 31.109375 20.453125 19.1875 8.296875 
z
" id="DejaVuSans-50"/>
      </defs>
      <g transform="translate(100.588327 327.501344)scale(0.17 -0.17)">
       <use xlink:href="#DejaVuSans-8722"/>
       <use x="83.789062" xlink:href="#DejaVuSans-50"/>
      </g>
     </g>
    </g>
    <g id="xtick_2">
     <g id="line2d_2">
      <g>
       <use style="stroke:#000000;stroke-width:0.8;" x="170.588" xlink:href="#m0db6069431" y="307.584"/>
      </g>
     </g>
     <g id="text_2">
      <!-- −1 -->
      <defs>
       <path d="M 12.40625 8.296875 
L 28.515625 8.296875 
L 28.515625 63.921875 
L 10.984375 60.40625 
L 10.984375 69.390625 
L 28.421875 72.90625 
L 38.28125 72.90625 
L 38.28125 8.296875 
L 54.390625 8.296875 
L 54.390625 0 
L 12.40625 0 
z
" id="DejaVuSans-49"/>
      </defs>
      <g transform="translate(158.05714 327.501344)scale(0.17 -0.17)">
       <use xlink:href="#DejaVuSans-8722"/>
       <use x="83.789062" xlink:href="#DejaVuSans-49"/>
      </g>
     </g>
    </g>
    <g id="xtick_3">
     <g id="line2d_3">
      <g>
       <use style="stroke:#000000;stroke-width:0.8;" x="228.056813" xlink:href="#m0db6069431" y="307.584"/>
      </g>
     </g>
     <g id="text_3">
      <!-- 0 -->
      <defs>
       <path d="M 31.78125 66.40625 
Q 24.171875 66.40625 20.328125 58.90625 
Q 16.5 51.421875 16.5 36.375 
Q 16.5 21.390625 20.328125 13.890625 
Q 24.171875 6.390625 31.78125 6.390625 
Q 39.453125 6.390625 43.28125 13.890625 
Q 47.125 21.390625 47.125 36.375 
Q 47.125 51.421875 43.28125 58.90625 
Q 39.453125 66.40625 31.78125 66.40625 
z
M 31.78125 74.21875 
Q 44.046875 74.21875 50.515625 64.515625 
Q 56.984375 54.828125 56.984375 36.375 
Q 56.984375 17.96875 50.515625 8.265625 
Q 44.046875 -1.421875 31.78125 -1.421875 
Q 19.53125 -1.421875 13.0625 8.265625 
Q 6.59375 17.96875 6.59375 36.375 
Q 6.59375 54.828125 13.0625 64.515625 
Q 19.53125 74.21875 31.78125 74.21875 
z
" id="DejaVuSans-48"/>
      </defs>
      <g transform="translate(222.648688 327.501344)scale(0.17 -0.17)">
       <use xlink:href="#DejaVuSans-48"/>
      </g>
     </g>
    </g>
    <g id="xtick_4">
     <g id="line2d_4">
      <g>
       <use style="stroke:#000000;stroke-width:0.8;" x="285.525627" xlink:href="#m0db6069431" y="307.584"/>
      </g>
     </g>
     <g id="text_4">
      <!-- 1 -->
      <g transform="translate(280.117502 327.501344)scale(0.17 -0.17)">
       <use xlink:href="#DejaVuSans-49"/>
      </g>
     </g>
    </g>
    <g id="xtick_5">
     <g id="line2d_5">
      <g>
       <use style="stroke:#000000;stroke-width:0.8;" x="342.99444" xlink:href="#m0db6069431" y="307.584"/>
      </g>
     </g>
     <g id="text_5">
      <!-- 2 -->
      <g transform="translate(337.586315 327.501344)scale(0.17 -0.17)">
       <use xlink:href="#DejaVuSans-50"/>
      </g>
     </g>
    </g>
    <g id="xtick_6">
     <g id="line2d_6">
      <g>
       <use style="stroke:#000000;stroke-width:0.8;" x="400.463254" xlink:href="#m0db6069431" y="307.584"/>
      </g>
     </g>
     <g id="text_6">
      <!-- 3 -->
      <defs>
       <path d="M 40.578125 39.3125 
Q 47.65625 37.796875 51.625 33 
Q 55.609375 28.21875 55.609375 21.1875 
Q 55.609375 10.40625 48.1875 4.484375 
Q 40.765625 -1.421875 27.09375 -1.421875 
Q 22.515625 -1.421875 17.65625 -0.515625 
Q 12.796875 0.390625 7.625 2.203125 
L 7.625 11.71875 
Q 11.71875 9.328125 16.59375 8.109375 
Q 21.484375 6.890625 26.8125 6.890625 
Q 36.078125 6.890625 40.9375 10.546875 
Q 45.796875 14.203125 45.796875 21.1875 
Q 45.796875 27.640625 41.28125 31.265625 
Q 36.765625 34.90625 28.71875 34.90625 
L 20.21875 34.90625 
L 20.21875 43.015625 
L 29.109375 43.015625 
Q 36.375 43.015625 40.234375 45.921875 
Q 44.09375 48.828125 44.09375 54.296875 
Q 44.09375 59.90625 40.109375 62.90625 
Q 36.140625 65.921875 28.71875 65.921875 
Q 24.65625 65.921875 20.015625 65.03125 
Q 15.375 64.15625 9.8125 62.3125 
L 9.8125 71.09375 
Q 15.4375 72.65625 20.34375 73.4375 
Q 25.25 74.21875 29.59375 74.21875 
Q 40.828125 74.21875 47.359375 69.109375 
Q 53.90625 64.015625 53.90625 55.328125 
Q 53.90625 49.265625 50.4375 45.09375 
Q 46.96875 40.921875 40.578125 39.3125 
z
" id="DejaVuSans-51"/>
      </defs>
      <g transform="translate(395.055129 327.501344)scale(0.17 -0.17)">
       <use xlink:href="#DejaVuSans-51"/>
      </g>
     </g>
    </g>
    <g id="text_7">
     <!-- Position in Radian -->
     <defs>
      <path d="M 19.671875 64.796875 
L 19.671875 37.40625 
L 32.078125 37.40625 
Q 38.96875 37.40625 42.71875 40.96875 
Q 46.484375 44.53125 46.484375 51.125 
Q 46.484375 57.671875 42.71875 61.234375 
Q 38.96875 64.796875 32.078125 64.796875 
z
M 9.8125 72.90625 
L 32.078125 72.90625 
Q 44.34375 72.90625 50.609375 67.359375 
Q 56.890625 61.8125 56.890625 51.125 
Q 56.890625 40.328125 50.609375 34.8125 
Q 44.34375 29.296875 32.078125 29.296875 
L 19.671875 29.296875 
L 19.671875 0 
L 9.8125 0 
z
" id="DejaVuSans-80"/>
      <path d="M 30.609375 48.390625 
Q 23.390625 48.390625 19.1875 42.75 
Q 14.984375 37.109375 14.984375 27.296875 
Q 14.984375 17.484375 19.15625 11.84375 
Q 23.34375 6.203125 30.609375 6.203125 
Q 37.796875 6.203125 41.984375 11.859375 
Q 46.1875 17.53125 46.1875 27.296875 
Q 46.1875 37.015625 41.984375 42.703125 
Q 37.796875 48.390625 30.609375 48.390625 
z
M 30.609375 56 
Q 42.328125 56 49.015625 48.375 
Q 55.71875 40.765625 55.71875 27.296875 
Q 55.71875 13.875 49.015625 6.21875 
Q 42.328125 -1.421875 30.609375 -1.421875 
Q 18.84375 -1.421875 12.171875 6.21875 
Q 5.515625 13.875 5.515625 27.296875 
Q 5.515625 40.765625 12.171875 48.375 
Q 18.84375 56 30.609375 56 
z
" id="DejaVuSans-111"/>
      <path d="M 44.28125 53.078125 
L 44.28125 44.578125 
Q 40.484375 46.53125 36.375 47.5 
Q 32.28125 48.484375 27.875 48.484375 
Q 21.1875 48.484375 17.84375 46.4375 
Q 14.5 44.390625 14.5 40.28125 
Q 14.5 37.15625 16.890625 35.375 
Q 19.28125 33.59375 26.515625 31.984375 
L 29.59375 31.296875 
Q 39.15625 29.25 43.1875 25.515625 
Q 47.21875 21.78125 47.21875 15.09375 
Q 47.21875 7.46875 41.1875 3.015625 
Q 35.15625 -1.421875 24.609375 -1.421875 
Q 20.21875 -1.421875 15.453125 -0.5625 
Q 10.6875 0.296875 5.421875 2 
L 5.421875 11.28125 
Q 10.40625 8.6875 15.234375 7.390625 
Q 20.0625 6.109375 24.8125 6.109375 
Q 31.15625 6.109375 34.5625 8.28125 
Q 37.984375 10.453125 37.984375 14.40625 
Q 37.984375 18.0625 35.515625 20.015625 
Q 33.0625 21.96875 24.703125 23.78125 
L 21.578125 24.515625 
Q 13.234375 26.265625 9.515625 29.90625 
Q 5.8125 33.546875 5.8125 39.890625 
Q 5.8125 47.609375 11.28125 51.796875 
Q 16.75 56 26.8125 56 
Q 31.78125 56 36.171875 55.265625 
Q 40.578125 54.546875 44.28125 53.078125 
z
" id="DejaVuSans-115"/>
      <path d="M 9.421875 54.6875 
L 18.40625 54.6875 
L 18.40625 0 
L 9.421875 0 
z
M 9.421875 75.984375 
L 18.40625 75.984375 
L 18.40625 64.59375 
L 9.421875 64.59375 
z
" id="DejaVuSans-105"/>
      <path d="M 18.3125 70.21875 
L 18.3125 54.6875 
L 36.8125 54.6875 
L 36.8125 47.703125 
L 18.3125 47.703125 
L 18.3125 18.015625 
Q 18.3125 11.328125 20.140625 9.421875 
Q 21.96875 7.515625 27.59375 7.515625 
L 36.8125 7.515625 
L 36.8125 0 
L 27.59375 0 
Q 17.1875 0 13.234375 3.875 
Q 9.28125 7.765625 9.28125 18.015625 
L 9.28125 47.703125 
L 2.6875 47.703125 
L 2.6875 54.6875 
L 9.28125 54.6875 
L 9.28125 70.21875 
z
" id="DejaVuSans-116"/>
      <path d="M 54.890625 33.015625 
L 54.890625 0 
L 45.90625 0 
L 45.90625 32.71875 
Q 45.90625 40.484375 42.875 44.328125 
Q 39.84375 48.1875 33.796875 48.1875 
Q 26.515625 48.1875 22.3125 43.546875 
Q 18.109375 38.921875 18.109375 30.90625 
L 18.109375 0 
L 9.078125 0 
L 9.078125 54.6875 
L 18.109375 54.6875 
L 18.109375 46.1875 
Q 21.34375 51.125 25.703125 53.5625 
Q 30.078125 56 35.796875 56 
Q 45.21875 56 50.046875 50.171875 
Q 54.890625 44.34375 54.890625 33.015625 
z
" id="DejaVuSans-110"/>
      <path id="DejaVuSans-32"/>
      <path d="M 44.390625 34.1875 
Q 47.5625 33.109375 50.5625 29.59375 
Q 53.5625 26.078125 56.59375 19.921875 
L 66.609375 0 
L 56 0 
L 46.6875 18.703125 
Q 43.0625 26.03125 39.671875 28.421875 
Q 36.28125 30.8125 30.421875 30.8125 
L 19.671875 30.8125 
L 19.671875 0 
L 9.8125 0 
L 9.8125 72.90625 
L 32.078125 72.90625 
Q 44.578125 72.90625 50.734375 67.671875 
Q 56.890625 62.453125 56.890625 51.90625 
Q 56.890625 45.015625 53.6875 40.46875 
Q 50.484375 35.9375 44.390625 34.1875 
z
M 19.671875 64.796875 
L 19.671875 38.921875 
L 32.078125 38.921875 
Q 39.203125 38.921875 42.84375 42.21875 
Q 46.484375 45.515625 46.484375 51.90625 
Q 46.484375 58.296875 42.84375 61.546875 
Q 39.203125 64.796875 32.078125 64.796875 
z
" id="DejaVuSans-82"/>
      <path d="M 34.28125 27.484375 
Q 23.390625 27.484375 19.1875 25 
Q 14.984375 22.515625 14.984375 16.5 
Q 14.984375 11.71875 18.140625 8.90625 
Q 21.296875 6.109375 26.703125 6.109375 
Q 34.1875 6.109375 38.703125 11.40625 
Q 43.21875 16.703125 43.21875 25.484375 
L 43.21875 27.484375 
z
M 52.203125 31.203125 
L 52.203125 0 
L 43.21875 0 
L 43.21875 8.296875 
Q 40.140625 3.328125 35.546875 0.953125 
Q 30.953125 -1.421875 24.3125 -1.421875 
Q 15.921875 -1.421875 10.953125 3.296875 
Q 6 8.015625 6 15.921875 
Q 6 25.140625 12.171875 29.828125 
Q 18.359375 34.515625 30.609375 34.515625 
L 43.21875 34.515625 
L 43.21875 35.40625 
Q 43.21875 41.609375 39.140625 45 
Q 35.0625 48.390625 27.6875 48.390625 
Q 23 48.390625 18.546875 47.265625 
Q 14.109375 46.140625 10.015625 43.890625 
L 10.015625 52.203125 
Q 14.9375 54.109375 19.578125 55.046875 
Q 24.21875 56 28.609375 56 
Q 40.484375 56 46.34375 49.84375 
Q 52.203125 43.703125 52.203125 31.203125 
z
" id="DejaVuSans-97"/>
      <path d="M 45.40625 46.390625 
L 45.40625 75.984375 
L 54.390625 75.984375 
L 54.390625 0 
L 45.40625 0 
L 45.40625 8.203125 
Q 42.578125 3.328125 38.25 0.953125 
Q 33.9375 -1.421875 27.875 -1.421875 
Q 17.96875 -1.421875 11.734375 6.484375 
Q 5.515625 14.40625 5.515625 27.296875 
Q 5.515625 40.1875 11.734375 48.09375 
Q 17.96875 56 27.875 56 
Q 33.9375 56 38.25 53.625 
Q 42.578125 51.265625 45.40625 46.390625 
z
M 14.796875 27.296875 
Q 14.796875 17.390625 18.875 11.75 
Q 22.953125 6.109375 30.078125 6.109375 
Q 37.203125 6.109375 41.296875 11.75 
Q 45.40625 17.390625 45.40625 27.296875 
Q 45.40625 37.203125 41.296875 42.84375 
Q 37.203125 48.484375 30.078125 48.484375 
Q 22.953125 48.484375 18.875 42.84375 
Q 14.796875 37.203125 14.796875 27.296875 
z
" id="DejaVuSans-100"/>
     </defs>
     <g transform="translate(102.024844 357.832125)scale(0.3 -0.3)">
      <use xlink:href="#DejaVuSans-80"/>
      <use x="60.255859" xlink:href="#DejaVuSans-111"/>
      <use x="121.4375" xlink:href="#DejaVuSans-115"/>
      <use x="173.537109" xlink:href="#DejaVuSans-105"/>
      <use x="201.320312" xlink:href="#DejaVuSans-116"/>
      <use x="240.529297" xlink:href="#DejaVuSans-105"/>
      <use x="268.3125" xlink:href="#DejaVuSans-111"/>
      <use x="329.494141" xlink:href="#DejaVuSans-110"/>
      <use x="392.873047" xlink:href="#DejaVuSans-32"/>
      <use x="424.660156" xlink:href="#DejaVuSans-105"/>
      <use x="452.443359" xlink:href="#DejaVuSans-110"/>
      <use x="515.822266" xlink:href="#DejaVuSans-32"/>
      <use x="547.609375" xlink:href="#DejaVuSans-82"/>
      <use x="617.060547" xlink:href="#DejaVuSans-97"/>
      <use x="678.339844" xlink:href="#DejaVuSans-100"/>
      <use x="741.816406" xlink:href="#DejaVuSans-105"/>
      <use x="769.599609" xlink:href="#DejaVuSans-97"/>
      <use x="830.878906" xlink:href="#DejaVuSans-110"/>
     </g>
    </g>
   </g>
   <g id="matplotlib.axis_2">
    <g id="ytick_1">
     <g id="line2d_7">
      <defs>
       <path d="M 0 0 
L -3.5 0 
" id="m9dd79801c7" style="stroke:#000000;stroke-width:0.8;"/>
      </defs>
      <g>
       <use style="stroke:#000000;stroke-width:0.8;" x="57.6" xlink:href="#m9dd79801c7" y="307.584"/>
      </g>
     </g>
     <g id="text_8">
      <!-- 0.00 -->
      <defs>
       <path d="M 10.6875 12.40625 
L 21 12.40625 
L 21 0 
L 10.6875 0 
z
" id="DejaVuSans-46"/>
      </defs>
      <g transform="translate(12.748438 314.042672)scale(0.17 -0.17)">
       <use xlink:href="#DejaVuSans-48"/>
       <use x="63.623047" xlink:href="#DejaVuSans-46"/>
       <use x="95.410156" xlink:href="#DejaVuSans-48"/>
       <use x="159.033203" xlink:href="#DejaVuSans-48"/>
      </g>
     </g>
    </g>
    <g id="ytick_2">
     <g id="line2d_8">
      <g>
       <use style="stroke:#000000;stroke-width:0.8;" x="57.6" xlink:href="#m9dd79801c7" y="261.169536"/>
      </g>
     </g>
     <g id="text_9">
      <!-- 0.25 -->
      <defs>
       <path d="M 10.796875 72.90625 
L 49.515625 72.90625 
L 49.515625 64.59375 
L 19.828125 64.59375 
L 19.828125 46.734375 
Q 21.96875 47.46875 24.109375 47.828125 
Q 26.265625 48.1875 28.421875 48.1875 
Q 40.625 48.1875 47.75 41.5 
Q 54.890625 34.8125 54.890625 23.390625 
Q 54.890625 11.625 47.5625 5.09375 
Q 40.234375 -1.421875 26.90625 -1.421875 
Q 22.3125 -1.421875 17.546875 -0.640625 
Q 12.796875 0.140625 7.71875 1.703125 
L 7.71875 11.625 
Q 12.109375 9.234375 16.796875 8.0625 
Q 21.484375 6.890625 26.703125 6.890625 
Q 35.15625 6.890625 40.078125 11.328125 
Q 45.015625 15.765625 45.015625 23.390625 
Q 45.015625 31 40.078125 35.4375 
Q 35.15625 39.890625 26.703125 39.890625 
Q 22.75 39.890625 18.8125 39.015625 
Q 14.890625 38.140625 10.796875 36.28125 
z
" id="DejaVuSans-53"/>
      </defs>
      <g transform="translate(12.748438 267.628208)scale(0.17 -0.17)">
       <use xlink:href="#DejaVuSans-48"/>
       <use x="63.623047" xlink:href="#DejaVuSans-46"/>
       <use x="95.410156" xlink:href="#DejaVuSans-50"/>
       <use x="159.033203" xlink:href="#DejaVuSans-53"/>
      </g>
     </g>
    </g>
    <g id="ytick_3">
     <g id="line2d_9">
      <g>
       <use style="stroke:#000000;stroke-width:0.8;" x="57.6" xlink:href="#m9dd79801c7" y="214.755072"/>
      </g>
     </g>
     <g id="text_10">
      <!-- 0.50 -->
      <g transform="translate(12.748438 221.213743)scale(0.17 -0.17)">
       <use xlink:href="#DejaVuSans-48"/>
       <use x="63.623047" xlink:href="#DejaVuSans-46"/>
       <use x="95.410156" xlink:href="#DejaVuSans-53"/>
       <use x="159.033203" xlink:href="#DejaVuSans-48"/>
      </g>
     </g>
    </g>
    <g id="ytick_4">
     <g id="line2d_10">
      <g>
       <use style="stroke:#000000;stroke-width:0.8;" x="57.6" xlink:href="#m9dd79801c7" y="168.340607"/>
      </g>
     </g>
     <g id="text_11">
      <!-- 0.75 -->
      <defs>
       <path d="M 8.203125 72.90625 
L 55.078125 72.90625 
L 55.078125 68.703125 
L 28.609375 0 
L 18.3125 0 
L 43.21875 64.59375 
L 8.203125 64.59375 
z
" id="DejaVuSans-55"/>
      </defs>
      <g transform="translate(12.748438 174.799279)scale(0.17 -0.17)">
       <use xlink:href="#DejaVuSans-48"/>
       <use x="63.623047" xlink:href="#DejaVuSans-46"/>
       <use x="95.410156" xlink:href="#DejaVuSans-55"/>
       <use x="159.033203" xlink:href="#DejaVuSans-53"/>
      </g>
     </g>
    </g>
    <g id="ytick_5">
     <g id="line2d_11">
      <g>
       <use style="stroke:#000000;stroke-width:0.8;" x="57.6" xlink:href="#m9dd79801c7" y="121.926143"/>
      </g>
     </g>
     <g id="text_12">
      <!-- 1.00 -->
      <g transform="translate(12.748438 128.384815)scale(0.17 -0.17)">
       <use xlink:href="#DejaVuSans-49"/>
       <use x="63.623047" xlink:href="#DejaVuSans-46"/>
       <use x="95.410156" xlink:href="#DejaVuSans-48"/>
       <use x="159.033203" xlink:href="#DejaVuSans-48"/>
      </g>
     </g>
    </g>
    <g id="ytick_6">
     <g id="line2d_12">
      <g>
       <use style="stroke:#000000;stroke-width:0.8;" x="57.6" xlink:href="#m9dd79801c7" y="75.511679"/>
      </g>
     </g>
     <g id="text_13">
      <!-- 1.25 -->
      <g transform="translate(12.748438 81.970351)scale(0.17 -0.17)">
       <use xlink:href="#DejaVuSans-49"/>
       <use x="63.623047" xlink:href="#DejaVuSans-46"/>
       <use x="95.410156" xlink:href="#DejaVuSans-50"/>
       <use x="159.033203" xlink:href="#DejaVuSans-53"/>
      </g>
     </g>
    </g>
    <g id="text_14">
     <!-- Density -->
     <defs>
      <path d="M 19.671875 64.796875 
L 19.671875 8.109375 
L 31.59375 8.109375 
Q 46.6875 8.109375 53.6875 14.9375 
Q 60.6875 21.78125 60.6875 36.53125 
Q 60.6875 51.171875 53.6875 57.984375 
Q 46.6875 64.796875 31.59375 64.796875 
z
M 9.8125 72.90625 
L 30.078125 72.90625 
Q 51.265625 72.90625 61.171875 64.09375 
Q 71.09375 55.28125 71.09375 36.53125 
Q 71.09375 17.671875 61.125 8.828125 
Q 51.171875 0 30.078125 0 
L 9.8125 0 
z
" id="DejaVuSans-68"/>
      <path d="M 56.203125 29.59375 
L 56.203125 25.203125 
L 14.890625 25.203125 
Q 15.484375 15.921875 20.484375 11.0625 
Q 25.484375 6.203125 34.421875 6.203125 
Q 39.59375 6.203125 44.453125 7.46875 
Q 49.3125 8.734375 54.109375 11.28125 
L 54.109375 2.78125 
Q 49.265625 0.734375 44.1875 -0.34375 
Q 39.109375 -1.421875 33.890625 -1.421875 
Q 20.796875 -1.421875 13.15625 6.1875 
Q 5.515625 13.8125 5.515625 26.8125 
Q 5.515625 40.234375 12.765625 48.109375 
Q 20.015625 56 32.328125 56 
Q 43.359375 56 49.78125 48.890625 
Q 56.203125 41.796875 56.203125 29.59375 
z
M 47.21875 32.234375 
Q 47.125 39.59375 43.09375 43.984375 
Q 39.0625 48.390625 32.421875 48.390625 
Q 24.90625 48.390625 20.390625 44.140625 
Q 15.875 39.890625 15.1875 32.171875 
z
" id="DejaVuSans-101"/>
      <path d="M 32.171875 -5.078125 
Q 28.375 -14.84375 24.75 -17.8125 
Q 21.140625 -20.796875 15.09375 -20.796875 
L 7.90625 -20.796875 
L 7.90625 -13.28125 
L 13.1875 -13.28125 
Q 16.890625 -13.28125 18.9375 -11.515625 
Q 21 -9.765625 23.484375 -3.21875 
L 25.09375 0.875 
L 2.984375 54.6875 
L 12.5 54.6875 
L 29.59375 11.921875 
L 46.6875 54.6875 
L 56.203125 54.6875 
z
" id="DejaVuSans-121"/>
     </defs>
     <g transform="translate(2.509375 231.553781)rotate(-90)scale(0.3 -0.3)">
      <use xlink:href="#DejaVuSans-68"/>
      <use x="77.001953" xlink:href="#DejaVuSans-101"/>
      <use x="138.525391" xlink:href="#DejaVuSans-110"/>
      <use x="201.904297" xlink:href="#DejaVuSans-115"/>
      <use x="254.003906" xlink:href="#DejaVuSans-105"/>
      <use x="281.787109" xlink:href="#DejaVuSans-116"/>
      <use x="320.996094" xlink:href="#DejaVuSans-121"/>
     </g>
    </g>
   </g>
   <g id="line2d_13">
    <path clip-path="url(#p7105384e61)" d="M 84.384779 304.755774 
L 84.58592 304.780874 
L 84.873264 305.111342 
L 85.404851 305.697709 
L 85.835867 305.788642 
L 86.468024 305.97213 
L 86.855938 305.980302 
L 87.114548 305.746289 
L 87.430627 305.094211 
L 88.249557 303.223929 
L 88.436331 303.281377 
L 88.680573 303.675653 
L 89.556973 305.314389 
L 90.433372 305.905903 
L 90.878755 306.030815 
L 91.26667 305.890044 
L 91.956296 305.594152 
L 92.24364 305.783562 
L 92.918898 306.325227 
L 93.148774 306.16049 
L 93.522321 305.534412 
L 94.111376 304.637279 
L 94.413087 304.541218 
L 94.700432 304.70315 
L 95.418792 305.199621 
L 95.806706 305.069679 
L 96.165886 305.041464 
L 96.525066 305.285941 
L 96.927348 305.479801 
L 97.200325 305.348088 
L 97.68881 304.771573 
L 98.14856 304.380118 
L 98.421537 304.413594 
L 98.780717 304.730081 
L 99.412874 305.258039 
L 99.815156 305.323376 
L 100.1025 305.155337 
L 100.950165 304.44603 
L 101.208775 304.76222 
L 101.79783 305.516965 
L 102.070807 305.500722 
L 102.789167 305.325089 
L 103.076511 305.598845 
L 103.579363 306.494491 
L 103.996012 307.019862 
L 104.225887 307.019877 
L 104.47013 306.754494 
L 104.843677 305.934991 
L 105.490201 304.574712 
L 106.539007 303.418322 
L 106.768882 303.405023 
L 106.998758 303.664981 
L 107.760219 304.741705 
L 107.975727 304.598519 
L 108.636619 303.997904 
L 108.83776 304.239661 
L 109.182573 305.112067 
L 109.728526 306.357612 
L 110.044605 306.572499 
L 110.489988 306.549275 
L 111.466958 306.296067 
L 111.783036 305.930155 
L 112.156584 305.08814 
L 112.903678 303.339214 
L 113.162288 303.229162 
L 113.463999 303.378341 
L 114.828883 304.533959 
L 115.791486 305.941058 
L 116.006994 305.845591 
L 116.279971 305.439653 
L 116.754089 304.233108 
L 117.242574 303.210716 
L 117.501183 303.08908 
L 117.745426 303.238566 
L 118.147707 303.811504 
L 119.024107 305.086761 
L 119.282716 305.101119 
L 119.570061 304.85652 
L 120.633234 303.729712 
L 120.978046 303.770404 
L 121.926282 304.029825 
L 122.644642 303.752473 
L 124.311238 303.189922 
L 125.043965 303.480205 
L 125.331309 303.202686 
L 125.877263 302.676539 
L 126.107138 302.771554 
L 126.739295 303.198414 
L 126.911701 302.879309 
L 127.170311 301.837457 
L 127.888671 298.691225 
L 128.032343 298.71558 
L 128.20475 299.110536 
L 128.520828 300.545396 
L 129.296657 304.141945 
L 129.584001 304.574849 
L 129.770775 304.53003 
L 130.015017 304.179434 
L 130.87705 302.748278 
L 131.207495 302.714441 
L 132.299403 302.972723 
L 132.716052 303.163005 
L 132.93156 303.00934 
L 133.262005 302.4279 
L 133.894162 301.340113 
L 134.138405 301.274413 
L 134.353913 301.450678 
L 134.72746 302.134079 
L 135.072273 302.587461 
L 135.230312 302.506468 
L 135.417086 302.089886 
L 135.761899 300.61274 
L 136.178548 299.110458 
L 136.365321 299.026166 
L 136.552095 299.285142 
L 137.112416 300.176405 
L 137.744573 300.451189 
L 138.060651 301.285264 
L 138.750277 303.121418 
L 139.138192 303.552341 
L 139.439903 303.603471 
L 139.741614 303.411794 
L 140.732951 302.562876 
L 140.977194 302.799632 
L 141.365108 303.55687 
L 141.997265 304.720031 
L 142.212773 304.747981 
L 142.413914 304.497622 
L 142.701258 303.694543 
L 143.505821 301.214824 
L 143.706962 301.167351 
L 143.92247 301.382071 
L 144.468424 302.384415 
L 145.431027 303.985236 
L 145.689636 304.040677 
L 145.919512 303.830112 
L 146.221223 303.192673 
L 146.695341 301.564507 
L 147.815982 297.55324 
L 148.117694 297.155641 
L 148.275733 297.21455 
L 148.462507 297.586518 
L 148.735483 298.726759 
L 149.62625 302.892907 
L 149.813024 302.959771 
L 149.999797 302.736305 
L 150.330243 301.904245 
L 151.479619 298.778046 
L 151.752596 298.603276 
L 151.968104 298.713267 
L 152.29855 299.201686 
L 152.772668 299.825693 
L 152.973808 299.782417 
L 153.218051 299.432815 
L 153.850208 297.934306 
L 154.381794 296.328 
L 154.913381 294.782267 
L 155.114522 294.699471 
L 155.33003 294.905327 
L 155.717944 295.243035 
L 155.890351 295.087005 
L 156.14896 294.44673 
L 156.795484 292.752002 
L 157.183399 292.473344 
L 157.456376 292.134814 
L 158.20347 290.958375 
L 158.217838 290.967251 
L 158.390244 291.215967 
L 158.735057 292.232614 
L 159.094237 293.017017 
L 159.252276 292.996845 
L 159.43905 292.652804 
L 159.870066 291.17907 
L 160.229246 290.372718 
L 160.430387 290.346734 
L 160.645895 290.609589 
L 161.49356 291.880559 
L 161.680334 291.733731 
L 161.938943 291.172767 
L 162.369959 289.582337 
L 163.059585 287.147914 
L 163.260726 287.036877 
L 163.418765 287.270145 
L 163.663008 288.153044 
L 164.496305 291.549166 
L 164.639978 291.525308 
L 164.812384 291.174629 
L 165.085361 289.984806 
L 166.019229 285.325626 
L 166.177268 285.32741 
L 166.421511 285.672699 
L 166.751956 286.020379 
L 166.924363 285.920029 
L 167.211707 285.402265 
L 168.231778 282.925072 
L 169.007607 279.987065 
L 169.122545 280.133686 
L 169.323686 280.876774 
L 170.817875 287.822565 
L 171.133953 288.304482 
L 171.320727 288.289526 
L 171.521868 288.004647 
L 171.780478 287.192483 
L 172.12529 285.281087 
L 173.00169 280.016313 
L 173.188464 279.895372 
L 173.36087 280.104285 
L 174.064863 281.194793 
L 174.309105 281.137345 
L 174.596449 280.810398 
L 174.926895 280.045659 
L 175.458482 278.829228 
L 175.587787 278.886911 
L 175.745826 279.276899 
L 176.004435 280.640963 
L 176.780264 285.109955 
L 176.981405 285.247998 
L 177.168179 285.053727 
L 177.929641 284.039737 
L 178.145149 284.172855 
L 178.461227 284.711258 
L 178.978446 285.541018 
L 179.136486 285.483533 
L 179.308892 285.120527 
L 179.553135 283.975546 
L 179.926682 280.908822 
L 180.630675 275.134783 
L 180.889285 274.504282 
L 181.104793 274.470017 
L 181.377769 274.43344 
L 181.564543 274.119935 
L 181.894989 272.988247 
L 182.340372 271.677282 
L 182.613349 271.464485 
L 183.101834 271.469744 
L 183.374811 271.639879 
L 183.63342 272.112426 
L 184.078804 273.518914 
L 184.481085 274.480394 
L 184.639125 274.46026 
L 184.797164 274.124925 
L 185.070141 272.876285 
L 185.903439 268.724879 
L 186.176415 268.336846 
L 186.348822 268.381102 
L 186.578697 268.740683 
L 187.081549 269.575185 
L 187.225221 269.481278 
L 187.455096 268.967673 
L 188.015417 267.65854 
L 188.388965 267.082421 
L 188.604473 266.0526 
L 188.87745 263.432818 
L 190.069928 249.966239 
L 190.170498 249.910382 
L 190.199232 249.937385 
L 190.328537 250.293555 
L 190.544045 251.681044 
L 191.564117 259.472027 
L 192.023867 260.708864 
L 192.98647 264.434898 
L 193.245079 264.441521 
L 193.661728 264.202189 
L 193.877236 263.805023 
L 194.107112 262.85136 
L 194.394456 260.575211 
L 195.471996 250.666603 
L 195.644402 250.610488 
L 195.917379 250.934851 
L 196.147255 251.025841 
L 196.305294 250.813338 
L 196.563903 249.988314 
L 197.411568 246.064118 
L 197.828217 243.207004 
L 198.417273 239.2693 
L 198.517843 239.182514 
L 198.560945 239.227511 
L 198.69025 239.668935 
L 198.905758 241.375661 
L 199.40861 247.840735 
L 199.739055 250.540146 
L 199.825259 250.66805 
L 199.86836 250.629702 
L 199.983298 250.201412 
L 200.198806 248.31184 
L 200.931533 241.141577 
L 201.046471 241.016561 
L 201.075205 241.038604 
L 201.20451 241.380958 
L 201.434385 242.811042 
L 201.894136 247.470258 
L 202.483191 252.839189 
L 202.698699 253.36001 
L 202.79927 253.225672 
L 202.971676 252.45098 
L 203.25902 249.915971 
L 204.264724 240.131277 
L 204.465865 239.802206 
L 204.59517 239.918484 
L 205.227327 240.917531 
L 205.270429 240.886378 
L 205.730179 240.557876 
L 205.744546 240.575239 
L 205.902586 240.968422 
L 206.161195 242.356027 
L 206.850821 246.268861 
L 206.980126 246.353763 
L 207.00886 246.329204 
L 207.138165 246.007863 
L 207.339306 244.782272 
L 207.641017 241.342507 
L 208.517417 230.441315 
L 208.617987 230.302123 
L 208.661089 230.349506 
L 208.790393 230.866506 
L 209.020269 232.995042 
L 210.097809 244.695908 
L 210.255848 244.839002 
L 210.270215 244.829638 
L 210.413887 244.553058 
L 210.65813 243.460893 
L 212.597702 232.913675 
L 212.698273 232.929102 
L 212.71264 232.950121 
L 212.856312 233.417873 
L 213.114922 235.220891 
L 213.818915 240.297453 
L 214.838986 245.037923 
L 214.910822 244.942314 
L 215.054494 244.310668 
L 215.284369 242.072989 
L 215.672284 235.626175 
L 216.476847 222.066668 
L 216.706723 221.083089 
L 216.792926 221.154776 
L 216.936598 221.721069 
L 217.252676 224.156701 
L 217.769896 227.744282 
L 218.114708 228.703458 
L 219.005475 230.218137 
L 219.019842 230.207903 
L 219.163514 229.932838 
L 219.364655 228.943452 
L 219.666366 226.09603 
L 220.844477 213.37376 
L 221.4479 209.727016 
L 222.008221 206.09609 
L 222.108791 206.02213 
L 222.137525 206.050635 
L 222.26683 206.454972 
L 222.496706 208.137763 
L 223.013925 211.971726 
L 223.085761 211.904899 
L 223.200698 211.275679 
L 223.401839 208.529968 
L 223.746652 199.920743 
L 224.306973 186.951405 
L 224.522481 185.62374 
L 224.57995 185.64511 
L 224.594317 185.672096 
L 224.723622 186.252071 
L 225.010966 188.939494 
L 225.973569 198.400007 
L 226.246546 199.550391 
L 226.318382 199.482049 
L 226.433319 198.840292 
L 226.591358 196.421827 
L 226.792499 189.399148 
L 227.036742 172.049281 
L 227.381555 128.353898 
L 227.956243 56.636714 
L 228.07118 54.144 
L 228.099915 54.407724 
L 228.200485 58.050272 
L 228.401626 76.221955 
L 229.335494 175.027937 
L 229.622838 182.197997 
L 229.867081 184.016887 
L 230.053854 184.238643 
L 230.211894 184.064143 
L 230.499238 183.328041 
L 230.815316 181.8915 
L 231.203231 178.87439 
L 231.576778 176.535618 
L 231.634247 176.536962 
L 231.662981 176.59468 
L 231.777919 177.255515 
L 231.964693 179.970068 
L 232.266404 188.426711 
L 233.171538 216.04084 
L 233.530718 220.328426 
L 233.77496 221.265206 
L 233.875531 221.223123 
L 234.019203 220.781975 
L 234.320914 218.908261 
L 234.737563 216.760871 
L 234.8525 216.686612 
L 234.881235 216.712218 
L 235.01054 217.044128 
L 235.240415 218.422022 
L 235.714533 223.061138 
L 236.203018 226.988734 
L 236.44726 227.637985 
L 236.576565 227.587121 
L 236.748971 227.150839 
L 237.050683 225.632003 
L 237.725941 220.734837 
L 239.047724 211.54496 
L 239.464373 210.406771 
L 239.751717 209.32683 
L 240.153998 206.681454 
L 240.786155 202.852013 
L 241.217172 201.475731 
L 241.375211 201.39087 
L 241.389578 201.401957 
L 241.518883 201.678971 
L 241.705656 202.752445 
L 241.978633 205.950012 
L 243.12801 221.845174 
L 243.343518 222.142739 
L 243.58776 222.052327 
L 243.817635 222.070097 
L 244.061878 222.385039 
L 244.521628 222.958844 
L 244.866441 223.20216 
L 245.053215 223.812736 
L 245.326192 225.676896 
L 245.742841 228.280623 
L 245.800309 228.280374 
L 245.829044 228.230117 
L 245.943981 227.677193 
L 246.159489 225.195374 
L 246.920951 215.020425 
L 246.97842 214.979404 
L 247.021522 215.032343 
L 247.150827 215.566229 
L 247.481272 218.289377 
L 247.811718 220.228919 
L 247.941023 220.346575 
L 247.969757 220.324193 
L 248.113429 219.999403 
L 248.645016 218.404954 
L 248.688117 218.434385 
L 248.817422 218.781574 
L 249.018563 220.14543 
L 249.363376 224.421376 
L 249.938064 231.160951 
L 250.182306 231.942076 
L 250.311611 231.89703 
L 250.541487 231.43364 
L 250.972503 230.678614 
L 251.690863 229.987087 
L 251.949472 228.97853 
L 252.265551 226.738355 
L 253.156318 219.760073 
L 253.256888 219.81949 
L 253.414927 220.358536 
L 253.788474 222.756262 
L 254.866015 230.671848 
L 255.512539 237.363463 
L 255.742414 237.961647 
L 255.871719 237.910013 
L 256.101594 237.465054 
L 256.676282 236.384063 
L 257.193502 235.573883 
L 257.523947 234.449918 
L 258.500917 229.783956 
L 258.989402 226.047054 
L 259.334215 224.255634 
L 259.420418 224.210521 
L 259.46352 224.261357 
L 259.607192 224.781338 
L 259.865801 226.84476 
L 260.699099 234.127745 
L 261.273787 236.641698 
L 262.107085 239.920216 
L 262.538101 241.736584 
L 262.638672 241.754653 
L 262.667406 241.717857 
L 262.811078 241.241233 
L 263.055321 239.401474 
L 263.744946 231.557385 
L 264.707549 222.021865 
L 264.894323 221.629754 
L 264.90869 221.638399 
L 265.00926 221.857771 
L 265.196034 222.969583 
L 265.52648 226.623391 
L 266.259207 234.808589 
L 266.718958 237.188571 
L 267.609724 240.742718 
L 268.055107 241.430089 
L 268.270615 241.49031 
L 268.443022 241.2707 
L 268.715999 240.449597 
L 269.147015 239.296888 
L 269.37689 239.223452 
L 269.664234 239.156785 
L 269.894109 238.755466 
L 270.267657 238.152576 
L 270.382594 238.31035 
L 270.555001 239.045584 
L 270.842345 241.50154 
L 271.417033 246.411748 
L 271.503236 246.503208 
L 271.546338 246.447367 
L 271.661275 245.948105 
L 271.862416 243.843963 
L 272.207229 237.377795 
L 272.796285 226.869282 
L 272.954324 226.223067 
L 272.983058 226.248285 
L 273.083629 226.686848 
L 273.270402 228.862134 
L 273.629582 236.450958 
L 274.20427 247.643341 
L 274.46288 249.37547 
L 274.577818 249.47481 
L 274.606552 249.447913 
L 274.750224 249.076777 
L 275.411116 246.888685 
L 275.43985 246.901709 
L 275.569155 247.12261 
L 275.784663 248.042051 
L 276.172577 250.916348 
L 276.732898 254.714317 
L 276.934039 255.00968 
L 277.063344 254.860143 
L 277.336321 254.049833 
L 278.126517 250.969502 
L 278.500064 247.567104 
L 279.132221 242.086159 
L 279.750011 237.396478 
L 280.123558 234.987328 
L 280.195394 234.925337 
L 280.238496 234.977317 
L 280.353434 235.463787 
L 280.554574 237.510168 
L 280.971223 244.772921 
L 281.50281 252.683906 
L 281.804521 254.515351 
L 281.976927 254.710984 
L 281.991295 254.703135 
L 282.1206 254.487428 
L 282.364842 253.509566 
L 282.996999 249.615382 
L 283.327445 248.419012 
L 283.456749 248.397691 
L 283.471117 248.412714 
L 283.629156 248.793955 
L 283.945234 250.370608 
L 284.37625 252.195108 
L 284.563024 252.328283 
L 284.721063 252.122556 
L 285.008407 251.262343 
L 285.798604 248.799975 
L 285.97101 248.769659 
L 286.114682 249.070642 
L 286.315823 250.12483 
L 286.617534 253.140397 
L 287.695074 265.224352 
L 287.996786 266.219057 
L 288.226661 266.376918 
L 288.427802 266.235105 
L 288.772615 265.650403 
L 289.376037 264.130712 
L 290.525413 260.910864 
L 290.568515 260.935532 
L 290.712187 261.230836 
L 290.927695 262.339584 
L 291.301242 265.754107 
L 292.03397 272.246856 
L 292.809799 276.711312 
L 293.154612 277.735267 
L 293.312651 277.745745 
L 293.47069 277.400098 
L 293.714933 276.170542 
L 294.131582 272.664602 
L 295.295325 262.504558 
L 295.668872 260.968111 
L 295.870013 260.785055 
L 296.013685 260.953246 
L 296.229193 261.67155 
L 296.530905 263.607064 
L 296.976288 268.17128 
L 297.594078 274.019584 
L 297.881422 274.986233 
L 298.053828 275.031986 
L 298.226235 274.755458 
L 298.499211 273.796002 
L 299.289408 269.743029 
L 299.921564 267.147193 
L 300.093971 267.022796 
L 300.108338 267.031718 
L 300.25201 267.281866 
L 300.539354 268.395179 
L 300.884167 269.44017 
L 301.013472 269.412043 
L 301.171511 269.014648 
L 301.501957 267.361201 
L 301.889871 265.84467 
L 302.004809 265.816753 
L 302.019176 265.830931 
L 302.148481 266.139568 
L 302.378356 267.41851 
L 303.053615 271.575064 
L 303.154185 271.593831 
L 303.18292 271.562779 
L 303.340959 271.148877 
L 304.159889 268.44263 
L 304.36103 268.4929 
L 304.763312 268.911058 
L 305.079391 269.513208 
L 305.366735 270.61191 
L 305.840852 273.560834 
L 306.257501 275.584276 
L 306.444275 275.776074 
L 306.458642 275.769191 
L 306.602314 275.537176 
L 306.832189 274.62241 
L 307.205737 272.088692 
L 307.766058 266.532011 
L 308.211441 262.907563 
L 308.355113 262.650271 
L 308.383847 262.672589 
L 308.498785 263.017759 
L 308.699926 264.563067 
L 309.102207 269.925195 
L 309.561958 274.964945 
L 309.777466 275.632515 
L 309.878036 275.549961 
L 310.050443 274.939925 
L 310.524561 271.996009 
L 310.840639 270.824563 
L 310.955577 270.799153 
L 310.969944 270.813122 
L 311.113616 271.163217 
L 311.357858 272.550315 
L 312.234258 278.268214 
L 312.37793 278.296879 
L 312.550336 277.985224 
L 313.081923 276.868789 
L 313.211228 277.027303 
L 313.426736 277.767952 
L 314.030158 280.000537 
L 314.145096 279.93255 
L 314.317502 279.438185 
L 314.633581 277.652555 
L 315.481246 272.695694 
L 315.739855 272.169712 
L 315.854793 272.23559 
L 316.012832 272.689699 
L 316.271442 274.297473 
L 317.032904 279.523141 
L 317.262779 279.809532 
L 317.449553 279.699195 
L 317.765631 279.173688 
L 318.110444 278.176422 
L 318.54146 276.086525 
L 318.943742 274.527802 
L 319.073047 274.493332 
L 319.087414 274.507999 
L 319.231086 274.856328 
L 319.504063 276.3075 
L 319.963813 278.540132 
L 320.078751 278.587427 
L 320.107485 278.557642 
L 320.251157 278.173235 
L 320.538501 276.566416 
L 320.983885 274.351635 
L 321.127557 274.254967 
L 321.141924 274.266524 
L 321.271229 274.541057 
L 321.501104 275.70404 
L 321.960854 279.537104 
L 322.564277 284.067473 
L 322.894723 285.100829 
L 323.943529 286.71234 
L 324.072833 286.554282 
L 324.273974 285.85306 
L 325.006702 282.563279 
L 325.049803 282.595823 
L 325.179108 282.93483 
L 325.42335 284.400545 
L 325.983671 287.850631 
L 326.084242 287.893985 
L 326.112976 287.859687 
L 326.242281 287.449608 
L 326.472156 285.798443 
L 327.463493 277.418449 
L 327.564064 277.512507 
L 327.722103 278.156264 
L 328.038182 280.690346 
L 328.526666 284.15987 
L 328.770909 284.617708 
L 329.015151 284.594866 
L 329.201925 284.666261 
L 329.388699 285.057848 
L 329.661675 286.274749 
L 330.380036 289.65804 
L 330.66738 290.002786 
L 330.983458 290.336782 
L 331.227701 291.046559 
L 331.64435 293.155385 
L 332.046631 294.742942 
L 332.20467 294.835328 
L 332.219038 294.825406 
L 332.36271 294.563103 
L 332.621319 293.495621 
L 333.138539 291.419279 
L 333.296578 291.370378 
L 333.468984 291.650003 
L 334.086774 292.871895 
L 334.259181 292.764279 
L 334.920072 292.133358 
L 335.121213 292.430358 
L 335.954511 294.052915 
L 335.968878 294.04595 
L 336.184386 293.795693 
L 336.672871 293.200393 
L 336.83091 293.314726 
L 337.046418 293.800928 
L 337.4487 295.393024 
L 338.080857 297.692455 
L 338.411302 298.174729 
L 339.14403 298.784659 
L 340.020429 300.548858 
L 340.235937 300.355948 
L 340.781891 299.82713 
L 341.026133 299.915961 
L 341.428415 300.364664 
L 341.974369 301.303133 
L 342.735831 302.69037 
L 342.922604 302.640611 
L 343.181214 302.262874 
L 343.655332 301.595015 
L 343.899574 301.619067 
L 344.301856 301.697538 
L 344.502997 301.4532 
L 344.847809 300.585034 
L 345.30756 299.594278 
L 345.508701 299.557173 
L 345.695474 299.81073 
L 345.954084 300.623459 
L 346.887952 304.073739 
L 346.90232 304.070082 
L 347.045992 303.898467 
L 347.304601 303.109569 
L 347.864922 301.410952 
L 348.022961 301.406566 
L 348.195368 301.7242 
L 348.482712 302.844108 
L 349.086134 305.168616 
L 349.287275 305.273735 
L 349.459682 305.054285 
L 349.790127 304.139951 
L 350.479753 302.283799 
L 351.068809 301.393196 
L 352.404958 299.897456 
L 352.735404 299.986539 
L 353.152053 300.06428 
L 353.367561 299.851592 
L 353.654905 299.200844 
L 354.315796 297.635956 
L 354.531305 297.620897 
L 354.86175 297.927198 
L 355.206563 298.113011 
L 355.896189 298.211214 
L 356.600182 298.900174 
L 356.614549 298.887627 
L 356.801323 298.565807 
L 357.17487 297.323385 
L 357.53405 296.432177 
L 357.706456 296.419531 
L 357.89323 296.714239 
L 359.071341 299.147757 
L 359.459255 299.410876 
L 359.703498 299.323824 
L 360.019576 298.91965 
L 360.56553 298.248094 
L 360.737936 298.320176 
L 360.939077 298.700628 
L 361.255156 299.905095 
L 362.059719 303.164924 
L 362.447634 303.803875 
L 362.72061 303.912808 
L 362.950486 303.762346 
L 363.941823 302.810957 
L 365.75209 303.401215 
L 366.125638 303.988191 
L 366.671591 304.792562 
L 366.944568 304.840422 
L 367.24628 304.637804 
L 367.648561 304.052801 
L 368.251984 303.178682 
L 368.467492 303.206213 
L 368.740469 303.521646 
L 369.315157 304.181067 
L 369.789275 304.267235 
L 370.105353 304.468142 
L 370.4789 305.033581 
L 371.139792 306.027844 
L 371.384034 306.046564 
L 371.657011 305.812354 
L 371.71448 305.739513 
L 371.71448 305.739513 
" style="fill:none;stroke:#ff7f0e;stroke-linecap:square;stroke-width:1.5;"/>
   </g>
   <g id="patch_103">
    <path d="M 57.6 307.584 
L 57.6 41.472 
" style="fill:none;stroke:#000000;stroke-linecap:square;stroke-linejoin:miter;stroke-width:0.8;"/>
   </g>
   <g id="patch_104">
    <path d="M 414.72 307.584 
L 414.72 41.472 
" style="fill:none;stroke:#000000;stroke-linecap:square;stroke-linejoin:miter;stroke-width:0.8;"/>
   </g>
   <g id="patch_105">
    <path d="M 57.6 307.584 
L 414.72 307.584 
" style="fill:none;stroke:#000000;stroke-linecap:square;stroke-linejoin:miter;stroke-width:0.8;"/>
   </g>
   <g id="patch_106">
    <path d="M 57.6 41.472 
L 414.72 41.472 
" style="fill:none;stroke:#000000;stroke-linecap:square;stroke-linejoin:miter;stroke-width:0.8;"/>
   </g>
  </g>
 </g>
 <defs>
  <clipPath id="p7105384e61">
   <rect height="266.112" width="357.12" x="57.6" y="41.472"/>
  </clipPath>
 </defs>
</svg>
