<?xml version="1.0" encoding="utf-8" standalone="no"?>
<!DOCTYPE svg PUBLIC "-//W3C//DTD SVG 1.1//EN"
  "http://www.w3.org/Graphics/SVG/1.1/DTD/svg11.dtd">
<!-- Created with matplotlib (https://matplotlib.org/) -->
<svg height="345.6pt" version="1.1" viewBox="0 0 460.8 345.6" width="460.8pt" xmlns="http://www.w3.org/2000/svg" xmlns:xlink="http://www.w3.org/1999/xlink">
 <defs>
  <style type="text/css">
*{stroke-linecap:butt;stroke-linejoin:round;}
  </style>
 </defs>
 <g id="figure_1">
  <g id="patch_1">
   <path d="M 0 345.6 
L 460.8 345.6 
L 460.8 0 
L 0 0 
z
" style="fill:#ffffff;"/>
  </g>
  <g id="axes_1">
   <g id="patch_2">
    <path d="M 57.6 307.584 
L 414.72 307.584 
L 414.72 41.472 
L 57.6 41.472 
z
" style="fill:#ffffff;"/>
   </g>
   <g id="patch_3">
    <path clip-path="url(#p7d66b7f19b)" d="M 73.832727 307.584 
L 77.079275 307.584 
L 77.079275 306.92868 
L 73.832727 306.92868 
z
" style="fill:#1f77b4;"/>
   </g>
   <g id="patch_4">
    <path clip-path="url(#p7d66b7f19b)" d="M 77.079275 307.584 
L 80.325823 307.584 
L 80.325823 306.71024 
L 77.079275 306.71024 
z
" style="fill:#1f77b4;"/>
   </g>
   <g id="patch_5">
    <path clip-path="url(#p7d66b7f19b)" d="M 80.325823 307.584 
L 83.572357 307.584 
L 83.572357 305.618033 
L 80.325823 305.618033 
z
" style="fill:#1f77b4;"/>
   </g>
   <g id="patch_6">
    <path clip-path="url(#p7d66b7f19b)" d="M 83.572357 307.584 
L 86.818905 307.584 
L 86.818905 304.744281 
L 83.572357 304.744281 
z
" style="fill:#1f77b4;"/>
   </g>
   <g id="patch_7">
    <path clip-path="url(#p7d66b7f19b)" d="M 86.818905 307.584 
L 90.065453 307.584 
L 90.065453 304.307402 
L 86.818905 304.307402 
z
" style="fill:#1f77b4;"/>
   </g>
   <g id="patch_8">
    <path clip-path="url(#p7d66b7f19b)" d="M 90.065453 307.584 
L 93.312 307.584 
L 93.312 304.744281 
L 90.065453 304.744281 
z
" style="fill:#1f77b4;"/>
   </g>
   <g id="patch_9">
    <path clip-path="url(#p7d66b7f19b)" d="M 93.312 307.584 
L 96.558548 307.584 
L 96.558548 304.307402 
L 93.312 304.307402 
z
" style="fill:#1f77b4;"/>
   </g>
   <g id="patch_10">
    <path clip-path="url(#p7d66b7f19b)" d="M 96.558548 307.584 
L 99.805096 307.584 
L 99.805096 304.962721 
L 96.558548 304.962721 
z
" style="fill:#1f77b4;"/>
   </g>
   <g id="patch_11">
    <path clip-path="url(#p7d66b7f19b)" d="M 99.805109 307.584 
L 103.051643 307.584 
L 103.051643 305.181151 
L 99.805109 305.181151 
z
" style="fill:#1f77b4;"/>
   </g>
   <g id="patch_12">
    <path clip-path="url(#p7d66b7f19b)" d="M 103.05163 307.584 
L 106.298178 307.584 
L 106.298178 304.525841 
L 103.05163 304.525841 
z
" style="fill:#1f77b4;"/>
   </g>
   <g id="patch_13">
    <path clip-path="url(#p7d66b7f19b)" d="M 106.298178 307.584 
L 109.544726 307.584 
L 109.544726 305.399601 
L 106.298178 305.399601 
z
" style="fill:#1f77b4;"/>
   </g>
   <g id="patch_14">
    <path clip-path="url(#p7d66b7f19b)" d="M 109.544726 307.584 
L 112.791273 307.584 
L 112.791273 305.399601 
L 109.544726 305.399601 
z
" style="fill:#1f77b4;"/>
   </g>
   <g id="patch_15">
    <path clip-path="url(#p7d66b7f19b)" d="M 112.791273 307.584 
L 116.037821 307.584 
L 116.037821 303.652082 
L 112.791273 303.652082 
z
" style="fill:#1f77b4;"/>
   </g>
   <g id="patch_16">
    <path clip-path="url(#p7d66b7f19b)" d="M 116.037821 307.584 
L 119.284369 307.584 
L 119.284369 306.054921 
L 116.037821 306.054921 
z
" style="fill:#1f77b4;"/>
   </g>
   <g id="patch_17">
    <path clip-path="url(#p7d66b7f19b)" d="M 119.284369 307.584 
L 122.53091 307.584 
L 122.53091 303.652074 
L 119.284369 303.652074 
z
" style="fill:#1f77b4;"/>
   </g>
   <g id="patch_18">
    <path clip-path="url(#p7d66b7f19b)" d="M 122.53091 307.584 
L 125.777457 307.584 
L 125.777457 303.433642 
L 122.53091 303.433642 
z
" style="fill:#1f77b4;"/>
   </g>
   <g id="patch_19">
    <path clip-path="url(#p7d66b7f19b)" d="M 125.777451 307.584 
L 129.023992 307.584 
L 129.023992 302.778312 
L 125.777451 302.778312 
z
" style="fill:#1f77b4;"/>
   </g>
   <g id="patch_20">
    <path clip-path="url(#p7d66b7f19b)" d="M 129.023999 307.584 
L 132.270546 307.584 
L 132.270546 302.559882 
L 129.023999 302.559882 
z
" style="fill:#1f77b4;"/>
   </g>
   <g id="patch_21">
    <path clip-path="url(#p7d66b7f19b)" d="M 132.270546 307.584 
L 135.517094 307.584 
L 135.517094 299.501724 
L 132.270546 299.501724 
z
" style="fill:#1f77b4;"/>
   </g>
   <g id="patch_22">
    <path clip-path="url(#p7d66b7f19b)" d="M 135.517094 307.584 
L 138.763635 307.584 
L 138.763635 300.593909 
L 135.517094 300.593909 
z
" style="fill:#1f77b4;"/>
   </g>
   <g id="patch_23">
    <path clip-path="url(#p7d66b7f19b)" d="M 138.763635 307.584 
L 142.010183 307.584 
L 142.010183 297.754205 
L 138.763635 297.754205 
z
" style="fill:#1f77b4;"/>
   </g>
   <g id="patch_24">
    <path clip-path="url(#p7d66b7f19b)" d="M 142.010183 307.584 
L 145.25673 307.584 
L 145.25673 299.501724 
L 142.010183 299.501724 
z
" style="fill:#1f77b4;"/>
   </g>
   <g id="patch_25">
    <path clip-path="url(#p7d66b7f19b)" d="M 145.256724 307.584 
L 148.503265 307.584 
L 148.503265 298.409506 
L 145.256724 298.409506 
z
" style="fill:#1f77b4;"/>
   </g>
   <g id="patch_26">
    <path clip-path="url(#p7d66b7f19b)" d="M 148.503272 307.584 
L 151.749819 307.584 
L 151.749819 297.972645 
L 148.503272 297.972645 
z
" style="fill:#1f77b4;"/>
   </g>
   <g id="patch_27">
    <path clip-path="url(#p7d66b7f19b)" d="M 151.749819 307.584 
L 154.996367 307.584 
L 154.996367 292.511647 
L 151.749819 292.511647 
z
" style="fill:#1f77b4;"/>
   </g>
   <g id="patch_28">
    <path clip-path="url(#p7d66b7f19b)" d="M 154.996367 307.584 
L 158.242908 307.584 
L 158.242908 294.477579 
L 154.996367 294.477579 
z
" style="fill:#1f77b4;"/>
   </g>
   <g id="patch_29">
    <path clip-path="url(#p7d66b7f19b)" d="M 158.242908 307.584 
L 161.489456 307.584 
L 161.489456 289.235049 
L 158.242908 289.235049 
z
" style="fill:#1f77b4;"/>
   </g>
   <g id="patch_30">
    <path clip-path="url(#p7d66b7f19b)" d="M 161.489449 307.584 
L 164.73599 307.584 
L 164.73599 286.832167 
L 161.489449 286.832167 
z
" style="fill:#1f77b4;"/>
   </g>
   <g id="patch_31">
    <path clip-path="url(#p7d66b7f19b)" d="M 164.735997 307.584 
L 167.982545 307.584 
L 167.982545 285.303131 
L 164.735997 285.303131 
z
" style="fill:#1f77b4;"/>
   </g>
   <g id="patch_32">
    <path clip-path="url(#p7d66b7f19b)" d="M 167.982545 307.584 
L 171.229092 307.584 
L 171.229092 288.579729 
L 167.982545 288.579729 
z
" style="fill:#1f77b4;"/>
   </g>
   <g id="patch_33">
    <path clip-path="url(#p7d66b7f19b)" d="M 171.229092 307.584 
L 174.475633 307.584 
L 174.475633 282.02648 
L 171.229092 282.02648 
z
" style="fill:#1f77b4;"/>
   </g>
   <g id="patch_34">
    <path clip-path="url(#p7d66b7f19b)" d="M 174.475633 307.584 
L 177.722181 307.584 
L 177.722181 280.934333 
L 174.475633 280.934333 
z
" style="fill:#1f77b4;"/>
   </g>
   <g id="patch_35">
    <path clip-path="url(#p7d66b7f19b)" d="M 177.722181 307.584 
L 180.968729 307.584 
L 180.968729 279.405254 
L 177.722181 279.405254 
z
" style="fill:#1f77b4;"/>
   </g>
   <g id="patch_36">
    <path clip-path="url(#p7d66b7f19b)" d="M 180.968729 307.584 
L 184.215273 307.584 
L 184.215273 275.473303 
L 180.968729 275.473303 
z
" style="fill:#1f77b4;"/>
   </g>
   <g id="patch_37">
    <path clip-path="url(#p7d66b7f19b)" d="M 184.21527 307.584 
L 187.461814 307.584 
L 187.461814 272.196701 
L 184.21527 272.196701 
z
" style="fill:#1f77b4;"/>
   </g>
   <g id="patch_38">
    <path clip-path="url(#p7d66b7f19b)" d="M 187.461818 307.584 
L 190.708365 307.584 
L 190.708365 266.29886 
L 187.461818 266.29886 
z
" style="fill:#1f77b4;"/>
   </g>
   <g id="patch_39">
    <path clip-path="url(#p7d66b7f19b)" d="M 190.708365 307.584 
L 193.95491 307.584 
L 193.95491 257.124333 
L 190.708365 257.124333 
z
" style="fill:#1f77b4;"/>
   </g>
   <g id="patch_40">
    <path clip-path="url(#p7d66b7f19b)" d="M 193.954906 307.584 
L 197.201451 307.584 
L 197.201451 252.75553 
L 193.954906 252.75553 
z
" style="fill:#1f77b4;"/>
   </g>
   <g id="patch_41">
    <path clip-path="url(#p7d66b7f19b)" d="M 197.201454 307.584 
L 200.447998 307.584 
L 200.447998 260.400935 
L 197.201454 260.400935 
z
" style="fill:#1f77b4;"/>
   </g>
   <g id="patch_42">
    <path clip-path="url(#p7d66b7f19b)" d="M 200.447998 307.584 
L 203.694546 307.584 
L 203.694546 246.42083 
L 200.447998 246.42083 
z
" style="fill:#1f77b4;"/>
   </g>
   <g id="patch_43">
    <path clip-path="url(#p7d66b7f19b)" d="M 203.694546 307.584 
L 206.941091 307.584 
L 206.941091 244.891686 
L 203.694546 244.891686 
z
" style="fill:#1f77b4;"/>
   </g>
   <g id="patch_44">
    <path clip-path="url(#p7d66b7f19b)" d="M 206.941091 307.584 
L 210.187637 307.584 
L 210.187637 241.833558 
L 206.941091 241.833558 
z
" style="fill:#1f77b4;"/>
   </g>
   <g id="patch_45">
    <path clip-path="url(#p7d66b7f19b)" d="M 210.187635 307.584 
L 213.434181 307.584 
L 213.434181 235.935678 
L 210.187635 235.935678 
z
" style="fill:#1f77b4;"/>
   </g>
   <g id="patch_46">
    <path clip-path="url(#p7d66b7f19b)" d="M 213.434183 307.584 
L 216.680727 307.584 
L 216.680727 235.280321 
L 213.434183 235.280321 
z
" style="fill:#1f77b4;"/>
   </g>
   <g id="patch_47">
    <path clip-path="url(#p7d66b7f19b)" d="M 216.680727 307.584 
L 219.927273 307.584 
L 219.927273 230.693118 
L 216.680727 230.693118 
z
" style="fill:#1f77b4;"/>
   </g>
   <g id="patch_48">
    <path clip-path="url(#p7d66b7f19b)" d="M 219.927273 307.584 
L 223.173818 307.584 
L 223.173818 220.644855 
L 219.927273 220.644855 
z
" style="fill:#1f77b4;"/>
   </g>
   <g id="patch_49">
    <path clip-path="url(#p7d66b7f19b)" d="M 223.173819 307.584 
L 226.420364 307.584 
L 226.420364 214.965414 
L 223.173819 214.965414 
z
" style="fill:#1f77b4;"/>
   </g>
   <g id="patch_50">
    <path clip-path="url(#p7d66b7f19b)" d="M 226.420364 307.584 
L 229.666909 307.584 
L 229.666909 197.271783 
L 226.420364 197.271783 
z
" style="fill:#1f77b4;"/>
   </g>
   <g id="patch_51">
    <path clip-path="url(#p7d66b7f19b)" d="M 229.666909 307.584 
L 232.913455 307.584 
L 232.913455 135.890122 
L 229.666909 135.890122 
z
" style="fill:#1f77b4;"/>
   </g>
   <g id="patch_52">
    <path clip-path="url(#p7d66b7f19b)" d="M 232.913455 307.584 
L 236.16 307.584 
L 236.16 192.684535 
L 232.913455 192.684535 
z
" style="fill:#1f77b4;"/>
   </g>
   <g id="patch_53">
    <path clip-path="url(#p7d66b7f19b)" d="M 236.16 307.584 
L 239.406546 307.584 
L 239.406546 213.436345 
L 236.16 213.436345 
z
" style="fill:#1f77b4;"/>
   </g>
   <g id="patch_54">
    <path clip-path="url(#p7d66b7f19b)" d="M 239.406545 307.584 
L 242.65309 307.584 
L 242.65309 226.979628 
L 239.406545 226.979628 
z
" style="fill:#1f77b4;"/>
   </g>
   <g id="patch_55">
    <path clip-path="url(#p7d66b7f19b)" d="M 242.653092 307.584 
L 245.899637 307.584 
L 245.899637 200.76681 
L 242.653092 200.76681 
z
" style="fill:#1f77b4;"/>
   </g>
   <g id="patch_56">
    <path clip-path="url(#p7d66b7f19b)" d="M 245.899637 307.584 
L 249.146184 307.584 
L 249.146184 212.125718 
L 245.899637 212.125718 
z
" style="fill:#1f77b4;"/>
   </g>
   <g id="patch_57">
    <path clip-path="url(#p7d66b7f19b)" d="M 249.146183 307.584 
L 252.392727 307.584 
L 252.392727 211.688788 
L 249.146183 211.688788 
z
" style="fill:#1f77b4;"/>
   </g>
   <g id="patch_58">
    <path clip-path="url(#p7d66b7f19b)" d="M 252.392725 307.584 
L 255.639271 307.584 
L 255.639271 218.023598 
L 252.392725 218.023598 
z
" style="fill:#1f77b4;"/>
   </g>
   <g id="patch_59">
    <path clip-path="url(#p7d66b7f19b)" d="M 255.639273 307.584 
L 258.885817 307.584 
L 258.885817 212.780989 
L 255.639273 212.780989 
z
" style="fill:#1f77b4;"/>
   </g>
   <g id="patch_60">
    <path clip-path="url(#p7d66b7f19b)" d="M 258.885817 307.584 
L 262.132365 307.584 
L 262.132365 221.955562 
L 258.885817 221.955562 
z
" style="fill:#1f77b4;"/>
   </g>
   <g id="patch_61">
    <path clip-path="url(#p7d66b7f19b)" d="M 262.132362 307.584 
L 265.378906 307.584 
L 265.378906 225.668956 
L 262.132362 225.668956 
z
" style="fill:#1f77b4;"/>
   </g>
   <g id="patch_62">
    <path clip-path="url(#p7d66b7f19b)" d="M 265.378909 307.584 
L 268.625454 307.584 
L 268.625454 231.348399 
L 265.378909 231.348399 
z
" style="fill:#1f77b4;"/>
   </g>
   <g id="patch_63">
    <path clip-path="url(#p7d66b7f19b)" d="M 268.625454 307.584 
L 271.872002 307.584 
L 271.872002 240.959833 
L 268.625454 240.959833 
z
" style="fill:#1f77b4;"/>
   </g>
   <g id="patch_64">
    <path clip-path="url(#p7d66b7f19b)" d="M 271.871998 307.584 
L 275.118543 307.584 
L 275.118543 242.051965 
L 271.871998 242.051965 
z
" style="fill:#1f77b4;"/>
   </g>
   <g id="patch_65">
    <path clip-path="url(#p7d66b7f19b)" d="M 275.118546 307.584 
L 278.36509 307.584 
L 278.36509 245.110126 
L 275.118546 245.110126 
z
" style="fill:#1f77b4;"/>
   </g>
   <g id="patch_66">
    <path clip-path="url(#p7d66b7f19b)" d="M 278.365087 307.584 
L 281.611631 307.584 
L 281.611631 249.697369 
L 278.365087 249.697369 
z
" style="fill:#1f77b4;"/>
   </g>
   <g id="patch_67">
    <path clip-path="url(#p7d66b7f19b)" d="M 281.611635 307.584 
L 284.858182 307.584 
L 284.858182 251.881827 
L 281.611635 251.881827 
z
" style="fill:#1f77b4;"/>
   </g>
   <g id="patch_68">
    <path clip-path="url(#p7d66b7f19b)" d="M 284.858182 307.584 
L 288.104727 307.584 
L 288.104727 261.274695 
L 284.858182 261.274695 
z
" style="fill:#1f77b4;"/>
   </g>
   <g id="patch_69">
    <path clip-path="url(#p7d66b7f19b)" d="M 288.104724 307.584 
L 291.351265 307.584 
L 291.351265 266.298818 
L 288.104724 266.298818 
z
" style="fill:#1f77b4;"/>
   </g>
   <g id="patch_70">
    <path clip-path="url(#p7d66b7f19b)" d="M 291.351271 307.584 
L 294.597819 307.584 
L 294.597819 268.920139 
L 291.351271 268.920139 
z
" style="fill:#1f77b4;"/>
   </g>
   <g id="patch_71">
    <path clip-path="url(#p7d66b7f19b)" d="M 294.597819 307.584 
L 297.844367 307.584 
L 297.844367 279.842134 
L 294.597819 279.842134 
z
" style="fill:#1f77b4;"/>
   </g>
   <g id="patch_72">
    <path clip-path="url(#p7d66b7f19b)" d="M 297.84436 307.584 
L 301.090901 307.584 
L 301.090901 275.036389 
L 297.84436 275.036389 
z
" style="fill:#1f77b4;"/>
   </g>
   <g id="patch_73">
    <path clip-path="url(#p7d66b7f19b)" d="M 301.090908 307.584 
L 304.337455 307.584 
L 304.337455 275.036456 
L 301.090908 275.036456 
z
" style="fill:#1f77b4;"/>
   </g>
   <g id="patch_74">
    <path clip-path="url(#p7d66b7f19b)" d="M 304.337455 307.584 
L 307.584003 307.584 
L 307.584003 274.818016 
L 304.337455 274.818016 
z
" style="fill:#1f77b4;"/>
   </g>
   <g id="patch_75">
    <path clip-path="url(#p7d66b7f19b)" d="M 307.584003 307.584 
L 310.830544 307.584 
L 310.830544 278.312994 
L 307.584003 278.312994 
z
" style="fill:#1f77b4;"/>
   </g>
   <g id="patch_76">
    <path clip-path="url(#p7d66b7f19b)" d="M 310.830544 307.584 
L 314.077092 307.584 
L 314.077092 279.186814 
L 310.830544 279.186814 
z
" style="fill:#1f77b4;"/>
   </g>
   <g id="patch_77">
    <path clip-path="url(#p7d66b7f19b)" d="M 314.077085 307.584 
L 317.323626 307.584 
L 317.323626 280.715838 
L 314.077085 280.715838 
z
" style="fill:#1f77b4;"/>
   </g>
   <g id="patch_78">
    <path clip-path="url(#p7d66b7f19b)" d="M 317.323633 307.584 
L 320.570181 307.584 
L 320.570181 282.463412 
L 317.323633 282.463412 
z
" style="fill:#1f77b4;"/>
   </g>
   <g id="patch_79">
    <path clip-path="url(#p7d66b7f19b)" d="M 320.570181 307.584 
L 323.816728 307.584 
L 323.816728 282.244972 
L 320.570181 282.244972 
z
" style="fill:#1f77b4;"/>
   </g>
   <g id="patch_80">
    <path clip-path="url(#p7d66b7f19b)" d="M 323.816728 307.584 
L 327.06327 307.584 
L 327.06327 287.269048 
L 323.816728 287.269048 
z
" style="fill:#1f77b4;"/>
   </g>
   <g id="patch_81">
    <path clip-path="url(#p7d66b7f19b)" d="M 327.06327 307.584 
L 330.309817 307.584 
L 330.309817 288.579729 
L 327.06327 288.579729 
z
" style="fill:#1f77b4;"/>
   </g>
   <g id="patch_82">
    <path clip-path="url(#p7d66b7f19b)" d="M 330.309817 307.584 
L 333.556365 307.584 
L 333.556365 290.982568 
L 330.309817 290.982568 
z
" style="fill:#1f77b4;"/>
   </g>
   <g id="patch_83">
    <path clip-path="url(#p7d66b7f19b)" d="M 333.556358 307.584 
L 336.802899 307.584 
L 336.802899 294.477579 
L 333.556358 294.477579 
z
" style="fill:#1f77b4;"/>
   </g>
   <g id="patch_84">
    <path clip-path="url(#p7d66b7f19b)" d="M 336.802906 307.584 
L 340.049454 307.584 
L 340.049454 296.662005 
L 336.802906 296.662005 
z
" style="fill:#1f77b4;"/>
   </g>
   <g id="patch_85">
    <path clip-path="url(#p7d66b7f19b)" d="M 340.049454 307.584 
L 343.296001 307.584 
L 343.296001 301.249243 
L 340.049454 301.249243 
z
" style="fill:#1f77b4;"/>
   </g>
   <g id="patch_86">
    <path clip-path="url(#p7d66b7f19b)" d="M 343.296001 307.584 
L 346.542549 307.584 
L 346.542549 303.215202 
L 343.296001 303.215202 
z
" style="fill:#1f77b4;"/>
   </g>
   <g id="patch_87">
    <path clip-path="url(#p7d66b7f19b)" d="M 346.542549 307.584 
L 349.789097 307.584 
L 349.789097 302.559882 
L 346.542549 302.559882 
z
" style="fill:#1f77b4;"/>
   </g>
   <g id="patch_88">
    <path clip-path="url(#p7d66b7f19b)" d="M 349.789097 307.584 
L 353.035631 307.584 
L 353.035631 304.525829 
L 349.789097 304.525829 
z
" style="fill:#1f77b4;"/>
   </g>
   <g id="patch_89">
    <path clip-path="url(#p7d66b7f19b)" d="M 353.035631 307.584 
L 356.282179 307.584 
L 356.282179 301.030803 
L 353.035631 301.030803 
z
" style="fill:#1f77b4;"/>
   </g>
   <g id="patch_90">
    <path clip-path="url(#p7d66b7f19b)" d="M 356.282179 307.584 
L 359.528727 307.584 
L 359.528727 299.501724 
L 356.282179 299.501724 
z
" style="fill:#1f77b4;"/>
   </g>
   <g id="patch_91">
    <path clip-path="url(#p7d66b7f19b)" d="M 359.528727 307.584 
L 362.775274 307.584 
L 362.775274 301.249243 
L 359.528727 301.249243 
z
" style="fill:#1f77b4;"/>
   </g>
   <g id="patch_92">
    <path clip-path="url(#p7d66b7f19b)" d="M 362.775274 307.584 
L 366.021822 307.584 
L 366.021822 303.652082 
L 362.775274 303.652082 
z
" style="fill:#1f77b4;"/>
   </g>
   <g id="patch_93">
    <path clip-path="url(#p7d66b7f19b)" d="M 366.021822 307.584 
L 369.26837 307.584 
L 369.26837 303.433642 
L 366.021822 303.433642 
z
" style="fill:#1f77b4;"/>
   </g>
   <g id="patch_94">
    <path clip-path="url(#p7d66b7f19b)" d="M 369.268383 307.584 
L 372.514918 307.584 
L 372.514918 305.399592 
L 369.268383 305.399592 
z
" style="fill:#1f77b4;"/>
   </g>
   <g id="patch_95">
    <path clip-path="url(#p7d66b7f19b)" d="M 372.514904 307.584 
L 375.761452 307.584 
L 375.761452 306.491801 
L 372.514904 306.491801 
z
" style="fill:#1f77b4;"/>
   </g>
   <g id="patch_96">
    <path clip-path="url(#p7d66b7f19b)" d="M 375.761452 307.584 
L 379.008 307.584 
L 379.008 305.181161 
L 375.761452 305.181161 
z
" style="fill:#1f77b4;"/>
   </g>
   <g id="patch_97">
    <path clip-path="url(#p7d66b7f19b)" d="M 379.008 307.584 
L 382.254547 307.584 
L 382.254547 305.618041 
L 379.008 305.618041 
z
" style="fill:#1f77b4;"/>
   </g>
   <g id="patch_98">
    <path clip-path="url(#p7d66b7f19b)" d="M 382.254547 307.584 
L 385.501095 307.584 
L 385.501095 306.491801 
L 382.254547 306.491801 
z
" style="fill:#1f77b4;"/>
   </g>
   <g id="patch_99">
    <path clip-path="url(#p7d66b7f19b)" d="M 385.501095 307.584 
L 388.747643 307.584 
L 388.747643 306.273361 
L 385.501095 306.273361 
z
" style="fill:#1f77b4;"/>
   </g>
   <g id="patch_100">
    <path clip-path="url(#p7d66b7f19b)" d="M 388.747643 307.584 
L 391.994177 307.584 
L 391.994177 306.710237 
L 388.747643 306.710237 
z
" style="fill:#1f77b4;"/>
   </g>
   <g id="patch_101">
    <path clip-path="url(#p7d66b7f19b)" d="M 391.994177 307.584 
L 395.240725 307.584 
L 395.240725 307.14712 
L 391.994177 307.14712 
z
" style="fill:#1f77b4;"/>
   </g>
   <g id="patch_102">
    <path clip-path="url(#p7d66b7f19b)" d="M 395.240725 307.584 
L 398.487273 307.584 
L 398.487273 306.71024 
L 395.240725 306.71024 
z
" style="fill:#1f77b4;"/>
   </g>
   <g id="matplotlib.axis_1">
    <g id="xtick_1">
     <g id="line2d_1">
      <defs>
       <path d="M 0 0 
L 0 3.5 
" id="m033e51a78b" style="stroke:#000000;stroke-width:0.8;"/>
      </defs>
      <g>
       <use style="stroke:#000000;stroke-width:0.8;" x="64.491237" xlink:href="#m033e51a78b" y="307.584"/>
      </g>
     </g>
     <g id="text_1">
      <!-- −3 -->
      <defs>
       <path d="M 10.59375 35.5 
L 73.1875 35.5 
L 73.1875 27.203125 
L 10.59375 27.203125 
z
" id="DejaVuSans-8722"/>
       <path d="M 40.578125 39.3125 
Q 47.65625 37.796875 51.625 33 
Q 55.609375 28.21875 55.609375 21.1875 
Q 55.609375 10.40625 48.1875 4.484375 
Q 40.765625 -1.421875 27.09375 -1.421875 
Q 22.515625 -1.421875 17.65625 -0.515625 
Q 12.796875 0.390625 7.625 2.203125 
L 7.625 11.71875 
Q 11.71875 9.328125 16.59375 8.109375 
Q 21.484375 6.890625 26.8125 6.890625 
Q 36.078125 6.890625 40.9375 10.546875 
Q 45.796875 14.203125 45.796875 21.1875 
Q 45.796875 27.640625 41.28125 31.265625 
Q 36.765625 34.90625 28.71875 34.90625 
L 20.21875 34.90625 
L 20.21875 43.015625 
L 29.109375 43.015625 
Q 36.375 43.015625 40.234375 45.921875 
Q 44.09375 48.828125 44.09375 54.296875 
Q 44.09375 59.90625 40.109375 62.90625 
Q 36.140625 65.921875 28.71875 65.921875 
Q 24.65625 65.921875 20.015625 65.03125 
Q 15.375 64.15625 9.8125 62.3125 
L 9.8125 71.09375 
Q 15.4375 72.65625 20.34375 73.4375 
Q 25.25 74.21875 29.59375 74.21875 
Q 40.828125 74.21875 47.359375 69.109375 
Q 53.90625 64.015625 53.90625 55.328125 
Q 53.90625 49.265625 50.4375 45.09375 
Q 46.96875 40.921875 40.578125 39.3125 
z
" id="DejaVuSans-51"/>
      </defs>
      <g transform="translate(51.960378 327.501344)scale(0.17 -0.17)">
       <use xlink:href="#DejaVuSans-8722"/>
       <use x="83.789062" xlink:href="#DejaVuSans-51"/>
      </g>
     </g>
    </g>
    <g id="xtick_2">
     <g id="line2d_2">
      <g>
       <use style="stroke:#000000;stroke-width:0.8;" x="120.478081" xlink:href="#m033e51a78b" y="307.584"/>
      </g>
     </g>
     <g id="text_2">
      <!-- −2 -->
      <defs>
       <path d="M 19.1875 8.296875 
L 53.609375 8.296875 
L 53.609375 0 
L 7.328125 0 
L 7.328125 8.296875 
Q 12.9375 14.109375 22.625 23.890625 
Q 32.328125 33.6875 34.8125 36.53125 
Q 39.546875 41.84375 41.421875 45.53125 
Q 43.3125 49.21875 43.3125 52.78125 
Q 43.3125 58.59375 39.234375 62.25 
Q 35.15625 65.921875 28.609375 65.921875 
Q 23.96875 65.921875 18.8125 64.3125 
Q 13.671875 62.703125 7.8125 59.421875 
L 7.8125 69.390625 
Q 13.765625 71.78125 18.9375 73 
Q 24.125 74.21875 28.421875 74.21875 
Q 39.75 74.21875 46.484375 68.546875 
Q 53.21875 62.890625 53.21875 53.421875 
Q 53.21875 48.921875 51.53125 44.890625 
Q 49.859375 40.875 45.40625 35.40625 
Q 44.1875 33.984375 37.640625 27.21875 
Q 31.109375 20.453125 19.1875 8.296875 
z
" id="DejaVuSans-50"/>
      </defs>
      <g transform="translate(107.947221 327.501344)scale(0.17 -0.17)">
       <use xlink:href="#DejaVuSans-8722"/>
       <use x="83.789062" xlink:href="#DejaVuSans-50"/>
      </g>
     </g>
    </g>
    <g id="xtick_3">
     <g id="line2d_3">
      <g>
       <use style="stroke:#000000;stroke-width:0.8;" x="176.464924" xlink:href="#m033e51a78b" y="307.584"/>
      </g>
     </g>
     <g id="text_3">
      <!-- −1 -->
      <defs>
       <path d="M 12.40625 8.296875 
L 28.515625 8.296875 
L 28.515625 63.921875 
L 10.984375 60.40625 
L 10.984375 69.390625 
L 28.421875 72.90625 
L 38.28125 72.90625 
L 38.28125 8.296875 
L 54.390625 8.296875 
L 54.390625 0 
L 12.40625 0 
z
" id="DejaVuSans-49"/>
      </defs>
      <g transform="translate(163.934065 327.501344)scale(0.17 -0.17)">
       <use xlink:href="#DejaVuSans-8722"/>
       <use x="83.789062" xlink:href="#DejaVuSans-49"/>
      </g>
     </g>
    </g>
    <g id="xtick_4">
     <g id="line2d_4">
      <g>
       <use style="stroke:#000000;stroke-width:0.8;" x="232.451768" xlink:href="#m033e51a78b" y="307.584"/>
      </g>
     </g>
     <g id="text_4">
      <!-- 0 -->
      <defs>
       <path d="M 31.78125 66.40625 
Q 24.171875 66.40625 20.328125 58.90625 
Q 16.5 51.421875 16.5 36.375 
Q 16.5 21.390625 20.328125 13.890625 
Q 24.171875 6.390625 31.78125 6.390625 
Q 39.453125 6.390625 43.28125 13.890625 
Q 47.125 21.390625 47.125 36.375 
Q 47.125 51.421875 43.28125 58.90625 
Q 39.453125 66.40625 31.78125 66.40625 
z
M 31.78125 74.21875 
Q 44.046875 74.21875 50.515625 64.515625 
Q 56.984375 54.828125 56.984375 36.375 
Q 56.984375 17.96875 50.515625 8.265625 
Q 44.046875 -1.421875 31.78125 -1.421875 
Q 19.53125 -1.421875 13.0625 8.265625 
Q 6.59375 17.96875 6.59375 36.375 
Q 6.59375 54.828125 13.0625 64.515625 
Q 19.53125 74.21875 31.78125 74.21875 
z
" id="DejaVuSans-48"/>
      </defs>
      <g transform="translate(227.043643 327.501344)scale(0.17 -0.17)">
       <use xlink:href="#DejaVuSans-48"/>
      </g>
     </g>
    </g>
    <g id="xtick_5">
     <g id="line2d_5">
      <g>
       <use style="stroke:#000000;stroke-width:0.8;" x="288.438611" xlink:href="#m033e51a78b" y="307.584"/>
      </g>
     </g>
     <g id="text_5">
      <!-- 1 -->
      <g transform="translate(283.030486 327.501344)scale(0.17 -0.17)">
       <use xlink:href="#DejaVuSans-49"/>
      </g>
     </g>
    </g>
    <g id="xtick_6">
     <g id="line2d_6">
      <g>
       <use style="stroke:#000000;stroke-width:0.8;" x="344.425455" xlink:href="#m033e51a78b" y="307.584"/>
      </g>
     </g>
     <g id="text_6">
      <!-- 2 -->
      <g transform="translate(339.01733 327.501344)scale(0.17 -0.17)">
       <use xlink:href="#DejaVuSans-50"/>
      </g>
     </g>
    </g>
    <g id="xtick_7">
     <g id="line2d_7">
      <g>
       <use style="stroke:#000000;stroke-width:0.8;" x="400.412298" xlink:href="#m033e51a78b" y="307.584"/>
      </g>
     </g>
     <g id="text_7">
      <!-- 3 -->
      <g transform="translate(395.004173 327.501344)scale(0.17 -0.17)">
       <use xlink:href="#DejaVuSans-51"/>
      </g>
     </g>
    </g>
    <g id="text_8">
     <!-- Position in Radian -->
     <defs>
      <path d="M 19.671875 64.796875 
L 19.671875 37.40625 
L 32.078125 37.40625 
Q 38.96875 37.40625 42.71875 40.96875 
Q 46.484375 44.53125 46.484375 51.125 
Q 46.484375 57.671875 42.71875 61.234375 
Q 38.96875 64.796875 32.078125 64.796875 
z
M 9.8125 72.90625 
L 32.078125 72.90625 
Q 44.34375 72.90625 50.609375 67.359375 
Q 56.890625 61.8125 56.890625 51.125 
Q 56.890625 40.328125 50.609375 34.8125 
Q 44.34375 29.296875 32.078125 29.296875 
L 19.671875 29.296875 
L 19.671875 0 
L 9.8125 0 
z
" id="DejaVuSans-80"/>
      <path d="M 30.609375 48.390625 
Q 23.390625 48.390625 19.1875 42.75 
Q 14.984375 37.109375 14.984375 27.296875 
Q 14.984375 17.484375 19.15625 11.84375 
Q 23.34375 6.203125 30.609375 6.203125 
Q 37.796875 6.203125 41.984375 11.859375 
Q 46.1875 17.53125 46.1875 27.296875 
Q 46.1875 37.015625 41.984375 42.703125 
Q 37.796875 48.390625 30.609375 48.390625 
z
M 30.609375 56 
Q 42.328125 56 49.015625 48.375 
Q 55.71875 40.765625 55.71875 27.296875 
Q 55.71875 13.875 49.015625 6.21875 
Q 42.328125 -1.421875 30.609375 -1.421875 
Q 18.84375 -1.421875 12.171875 6.21875 
Q 5.515625 13.875 5.515625 27.296875 
Q 5.515625 40.765625 12.171875 48.375 
Q 18.84375 56 30.609375 56 
z
" id="DejaVuSans-111"/>
      <path d="M 44.28125 53.078125 
L 44.28125 44.578125 
Q 40.484375 46.53125 36.375 47.5 
Q 32.28125 48.484375 27.875 48.484375 
Q 21.1875 48.484375 17.84375 46.4375 
Q 14.5 44.390625 14.5 40.28125 
Q 14.5 37.15625 16.890625 35.375 
Q 19.28125 33.59375 26.515625 31.984375 
L 29.59375 31.296875 
Q 39.15625 29.25 43.1875 25.515625 
Q 47.21875 21.78125 47.21875 15.09375 
Q 47.21875 7.46875 41.1875 3.015625 
Q 35.15625 -1.421875 24.609375 -1.421875 
Q 20.21875 -1.421875 15.453125 -0.5625 
Q 10.6875 0.296875 5.421875 2 
L 5.421875 11.28125 
Q 10.40625 8.6875 15.234375 7.390625 
Q 20.0625 6.109375 24.8125 6.109375 
Q 31.15625 6.109375 34.5625 8.28125 
Q 37.984375 10.453125 37.984375 14.40625 
Q 37.984375 18.0625 35.515625 20.015625 
Q 33.0625 21.96875 24.703125 23.78125 
L 21.578125 24.515625 
Q 13.234375 26.265625 9.515625 29.90625 
Q 5.8125 33.546875 5.8125 39.890625 
Q 5.8125 47.609375 11.28125 51.796875 
Q 16.75 56 26.8125 56 
Q 31.78125 56 36.171875 55.265625 
Q 40.578125 54.546875 44.28125 53.078125 
z
" id="DejaVuSans-115"/>
      <path d="M 9.421875 54.6875 
L 18.40625 54.6875 
L 18.40625 0 
L 9.421875 0 
z
M 9.421875 75.984375 
L 18.40625 75.984375 
L 18.40625 64.59375 
L 9.421875 64.59375 
z
" id="DejaVuSans-105"/>
      <path d="M 18.3125 70.21875 
L 18.3125 54.6875 
L 36.8125 54.6875 
L 36.8125 47.703125 
L 18.3125 47.703125 
L 18.3125 18.015625 
Q 18.3125 11.328125 20.140625 9.421875 
Q 21.96875 7.515625 27.59375 7.515625 
L 36.8125 7.515625 
L 36.8125 0 
L 27.59375 0 
Q 17.1875 0 13.234375 3.875 
Q 9.28125 7.765625 9.28125 18.015625 
L 9.28125 47.703125 
L 2.6875 47.703125 
L 2.6875 54.6875 
L 9.28125 54.6875 
L 9.28125 70.21875 
z
" id="DejaVuSans-116"/>
      <path d="M 54.890625 33.015625 
L 54.890625 0 
L 45.90625 0 
L 45.90625 32.71875 
Q 45.90625 40.484375 42.875 44.328125 
Q 39.84375 48.1875 33.796875 48.1875 
Q 26.515625 48.1875 22.3125 43.546875 
Q 18.109375 38.921875 18.109375 30.90625 
L 18.109375 0 
L 9.078125 0 
L 9.078125 54.6875 
L 18.109375 54.6875 
L 18.109375 46.1875 
Q 21.34375 51.125 25.703125 53.5625 
Q 30.078125 56 35.796875 56 
Q 45.21875 56 50.046875 50.171875 
Q 54.890625 44.34375 54.890625 33.015625 
z
" id="DejaVuSans-110"/>
      <path id="DejaVuSans-32"/>
      <path d="M 44.390625 34.1875 
Q 47.5625 33.109375 50.5625 29.59375 
Q 53.5625 26.078125 56.59375 19.921875 
L 66.609375 0 
L 56 0 
L 46.6875 18.703125 
Q 43.0625 26.03125 39.671875 28.421875 
Q 36.28125 30.8125 30.421875 30.8125 
L 19.671875 30.8125 
L 19.671875 0 
L 9.8125 0 
L 9.8125 72.90625 
L 32.078125 72.90625 
Q 44.578125 72.90625 50.734375 67.671875 
Q 56.890625 62.453125 56.890625 51.90625 
Q 56.890625 45.015625 53.6875 40.46875 
Q 50.484375 35.9375 44.390625 34.1875 
z
M 19.671875 64.796875 
L 19.671875 38.921875 
L 32.078125 38.921875 
Q 39.203125 38.921875 42.84375 42.21875 
Q 46.484375 45.515625 46.484375 51.90625 
Q 46.484375 58.296875 42.84375 61.546875 
Q 39.203125 64.796875 32.078125 64.796875 
z
" id="DejaVuSans-82"/>
      <path d="M 34.28125 27.484375 
Q 23.390625 27.484375 19.1875 25 
Q 14.984375 22.515625 14.984375 16.5 
Q 14.984375 11.71875 18.140625 8.90625 
Q 21.296875 6.109375 26.703125 6.109375 
Q 34.1875 6.109375 38.703125 11.40625 
Q 43.21875 16.703125 43.21875 25.484375 
L 43.21875 27.484375 
z
M 52.203125 31.203125 
L 52.203125 0 
L 43.21875 0 
L 43.21875 8.296875 
Q 40.140625 3.328125 35.546875 0.953125 
Q 30.953125 -1.421875 24.3125 -1.421875 
Q 15.921875 -1.421875 10.953125 3.296875 
Q 6 8.015625 6 15.921875 
Q 6 25.140625 12.171875 29.828125 
Q 18.359375 34.515625 30.609375 34.515625 
L 43.21875 34.515625 
L 43.21875 35.40625 
Q 43.21875 41.609375 39.140625 45 
Q 35.0625 48.390625 27.6875 48.390625 
Q 23 48.390625 18.546875 47.265625 
Q 14.109375 46.140625 10.015625 43.890625 
L 10.015625 52.203125 
Q 14.9375 54.109375 19.578125 55.046875 
Q 24.21875 56 28.609375 56 
Q 40.484375 56 46.34375 49.84375 
Q 52.203125 43.703125 52.203125 31.203125 
z
" id="DejaVuSans-97"/>
      <path d="M 45.40625 46.390625 
L 45.40625 75.984375 
L 54.390625 75.984375 
L 54.390625 0 
L 45.40625 0 
L 45.40625 8.203125 
Q 42.578125 3.328125 38.25 0.953125 
Q 33.9375 -1.421875 27.875 -1.421875 
Q 17.96875 -1.421875 11.734375 6.484375 
Q 5.515625 14.40625 5.515625 27.296875 
Q 5.515625 40.1875 11.734375 48.09375 
Q 17.96875 56 27.875 56 
Q 33.9375 56 38.25 53.625 
Q 42.578125 51.265625 45.40625 46.390625 
z
M 14.796875 27.296875 
Q 14.796875 17.390625 18.875 11.75 
Q 22.953125 6.109375 30.078125 6.109375 
Q 37.203125 6.109375 41.296875 11.75 
Q 45.40625 17.390625 45.40625 27.296875 
Q 45.40625 37.203125 41.296875 42.84375 
Q 37.203125 48.484375 30.078125 48.484375 
Q 22.953125 48.484375 18.875 42.84375 
Q 14.796875 37.203125 14.796875 27.296875 
z
" id="DejaVuSans-100"/>
     </defs>
     <g transform="translate(102.024844 357.832125)scale(0.3 -0.3)">
      <use xlink:href="#DejaVuSans-80"/>
      <use x="60.255859" xlink:href="#DejaVuSans-111"/>
      <use x="121.4375" xlink:href="#DejaVuSans-115"/>
      <use x="173.537109" xlink:href="#DejaVuSans-105"/>
      <use x="201.320312" xlink:href="#DejaVuSans-116"/>
      <use x="240.529297" xlink:href="#DejaVuSans-105"/>
      <use x="268.3125" xlink:href="#DejaVuSans-111"/>
      <use x="329.494141" xlink:href="#DejaVuSans-110"/>
      <use x="392.873047" xlink:href="#DejaVuSans-32"/>
      <use x="424.660156" xlink:href="#DejaVuSans-105"/>
      <use x="452.443359" xlink:href="#DejaVuSans-110"/>
      <use x="515.822266" xlink:href="#DejaVuSans-32"/>
      <use x="547.609375" xlink:href="#DejaVuSans-82"/>
      <use x="617.060547" xlink:href="#DejaVuSans-97"/>
      <use x="678.339844" xlink:href="#DejaVuSans-100"/>
      <use x="741.816406" xlink:href="#DejaVuSans-105"/>
      <use x="769.599609" xlink:href="#DejaVuSans-97"/>
      <use x="830.878906" xlink:href="#DejaVuSans-110"/>
     </g>
    </g>
   </g>
   <g id="matplotlib.axis_2">
    <g id="ytick_1">
     <g id="line2d_8">
      <defs>
       <path d="M 0 0 
L -3.5 0 
" id="m379ab4298a" style="stroke:#000000;stroke-width:0.8;"/>
      </defs>
      <g>
       <use style="stroke:#000000;stroke-width:0.8;" x="57.6" xlink:href="#m379ab4298a" y="307.584"/>
      </g>
     </g>
     <g id="text_9">
      <!-- 0.00 -->
      <defs>
       <path d="M 10.6875 12.40625 
L 21 12.40625 
L 21 0 
L 10.6875 0 
z
" id="DejaVuSans-46"/>
      </defs>
      <g transform="translate(12.748438 314.042672)scale(0.17 -0.17)">
       <use xlink:href="#DejaVuSans-48"/>
       <use x="63.623047" xlink:href="#DejaVuSans-46"/>
       <use x="95.410156" xlink:href="#DejaVuSans-48"/>
       <use x="159.033203" xlink:href="#DejaVuSans-48"/>
      </g>
     </g>
    </g>
    <g id="ytick_2">
     <g id="line2d_9">
      <g>
       <use style="stroke:#000000;stroke-width:0.8;" x="57.6" xlink:href="#m379ab4298a" y="260.083407"/>
      </g>
     </g>
     <g id="text_10">
      <!-- 0.25 -->
      <defs>
       <path d="M 10.796875 72.90625 
L 49.515625 72.90625 
L 49.515625 64.59375 
L 19.828125 64.59375 
L 19.828125 46.734375 
Q 21.96875 47.46875 24.109375 47.828125 
Q 26.265625 48.1875 28.421875 48.1875 
Q 40.625 48.1875 47.75 41.5 
Q 54.890625 34.8125 54.890625 23.390625 
Q 54.890625 11.625 47.5625 5.09375 
Q 40.234375 -1.421875 26.90625 -1.421875 
Q 22.3125 -1.421875 17.546875 -0.640625 
Q 12.796875 0.140625 7.71875 1.703125 
L 7.71875 11.625 
Q 12.109375 9.234375 16.796875 8.0625 
Q 21.484375 6.890625 26.703125 6.890625 
Q 35.15625 6.890625 40.078125 11.328125 
Q 45.015625 15.765625 45.015625 23.390625 
Q 45.015625 31 40.078125 35.4375 
Q 35.15625 39.890625 26.703125 39.890625 
Q 22.75 39.890625 18.8125 39.015625 
Q 14.890625 38.140625 10.796875 36.28125 
z
" id="DejaVuSans-53"/>
      </defs>
      <g transform="translate(12.748438 266.542079)scale(0.17 -0.17)">
       <use xlink:href="#DejaVuSans-48"/>
       <use x="63.623047" xlink:href="#DejaVuSans-46"/>
       <use x="95.410156" xlink:href="#DejaVuSans-50"/>
       <use x="159.033203" xlink:href="#DejaVuSans-53"/>
      </g>
     </g>
    </g>
    <g id="ytick_3">
     <g id="line2d_10">
      <g>
       <use style="stroke:#000000;stroke-width:0.8;" x="57.6" xlink:href="#m379ab4298a" y="212.582814"/>
      </g>
     </g>
     <g id="text_11">
      <!-- 0.50 -->
      <g transform="translate(12.748438 219.041486)scale(0.17 -0.17)">
       <use xlink:href="#DejaVuSans-48"/>
       <use x="63.623047" xlink:href="#DejaVuSans-46"/>
       <use x="95.410156" xlink:href="#DejaVuSans-53"/>
       <use x="159.033203" xlink:href="#DejaVuSans-48"/>
      </g>
     </g>
    </g>
    <g id="ytick_4">
     <g id="line2d_11">
      <g>
       <use style="stroke:#000000;stroke-width:0.8;" x="57.6" xlink:href="#m379ab4298a" y="165.082221"/>
      </g>
     </g>
     <g id="text_12">
      <!-- 0.75 -->
      <defs>
       <path d="M 8.203125 72.90625 
L 55.078125 72.90625 
L 55.078125 68.703125 
L 28.609375 0 
L 18.3125 0 
L 43.21875 64.59375 
L 8.203125 64.59375 
z
" id="DejaVuSans-55"/>
      </defs>
      <g transform="translate(12.748438 171.540893)scale(0.17 -0.17)">
       <use xlink:href="#DejaVuSans-48"/>
       <use x="63.623047" xlink:href="#DejaVuSans-46"/>
       <use x="95.410156" xlink:href="#DejaVuSans-55"/>
       <use x="159.033203" xlink:href="#DejaVuSans-53"/>
      </g>
     </g>
    </g>
    <g id="ytick_5">
     <g id="line2d_12">
      <g>
       <use style="stroke:#000000;stroke-width:0.8;" x="57.6" xlink:href="#m379ab4298a" y="117.581628"/>
      </g>
     </g>
     <g id="text_13">
      <!-- 1.00 -->
      <g transform="translate(12.748438 124.0403)scale(0.17 -0.17)">
       <use xlink:href="#DejaVuSans-49"/>
       <use x="63.623047" xlink:href="#DejaVuSans-46"/>
       <use x="95.410156" xlink:href="#DejaVuSans-48"/>
       <use x="159.033203" xlink:href="#DejaVuSans-48"/>
      </g>
     </g>
    </g>
    <g id="ytick_6">
     <g id="line2d_13">
      <g>
       <use style="stroke:#000000;stroke-width:0.8;" x="57.6" xlink:href="#m379ab4298a" y="70.081035"/>
      </g>
     </g>
     <g id="text_14">
      <!-- 1.25 -->
      <g transform="translate(12.748438 76.539707)scale(0.17 -0.17)">
       <use xlink:href="#DejaVuSans-49"/>
       <use x="63.623047" xlink:href="#DejaVuSans-46"/>
       <use x="95.410156" xlink:href="#DejaVuSans-50"/>
       <use x="159.033203" xlink:href="#DejaVuSans-53"/>
      </g>
     </g>
    </g>
    <g id="text_15">
     <!-- Density -->
     <defs>
      <path d="M 19.671875 64.796875 
L 19.671875 8.109375 
L 31.59375 8.109375 
Q 46.6875 8.109375 53.6875 14.9375 
Q 60.6875 21.78125 60.6875 36.53125 
Q 60.6875 51.171875 53.6875 57.984375 
Q 46.6875 64.796875 31.59375 64.796875 
z
M 9.8125 72.90625 
L 30.078125 72.90625 
Q 51.265625 72.90625 61.171875 64.09375 
Q 71.09375 55.28125 71.09375 36.53125 
Q 71.09375 17.671875 61.125 8.828125 
Q 51.171875 0 30.078125 0 
L 9.8125 0 
z
" id="DejaVuSans-68"/>
      <path d="M 56.203125 29.59375 
L 56.203125 25.203125 
L 14.890625 25.203125 
Q 15.484375 15.921875 20.484375 11.0625 
Q 25.484375 6.203125 34.421875 6.203125 
Q 39.59375 6.203125 44.453125 7.46875 
Q 49.3125 8.734375 54.109375 11.28125 
L 54.109375 2.78125 
Q 49.265625 0.734375 44.1875 -0.34375 
Q 39.109375 -1.421875 33.890625 -1.421875 
Q 20.796875 -1.421875 13.15625 6.1875 
Q 5.515625 13.8125 5.515625 26.8125 
Q 5.515625 40.234375 12.765625 48.109375 
Q 20.015625 56 32.328125 56 
Q 43.359375 56 49.78125 48.890625 
Q 56.203125 41.796875 56.203125 29.59375 
z
M 47.21875 32.234375 
Q 47.125 39.59375 43.09375 43.984375 
Q 39.0625 48.390625 32.421875 48.390625 
Q 24.90625 48.390625 20.390625 44.140625 
Q 15.875 39.890625 15.1875 32.171875 
z
" id="DejaVuSans-101"/>
      <path d="M 32.171875 -5.078125 
Q 28.375 -14.84375 24.75 -17.8125 
Q 21.140625 -20.796875 15.09375 -20.796875 
L 7.90625 -20.796875 
L 7.90625 -13.28125 
L 13.1875 -13.28125 
Q 16.890625 -13.28125 18.9375 -11.515625 
Q 21 -9.765625 23.484375 -3.21875 
L 25.09375 0.875 
L 2.984375 54.6875 
L 12.5 54.6875 
L 29.59375 11.921875 
L 46.6875 54.6875 
L 56.203125 54.6875 
z
" id="DejaVuSans-121"/>
     </defs>
     <g transform="translate(2.509375 231.553781)rotate(-90)scale(0.3 -0.3)">
      <use xlink:href="#DejaVuSans-68"/>
      <use x="77.001953" xlink:href="#DejaVuSans-101"/>
      <use x="138.525391" xlink:href="#DejaVuSans-110"/>
      <use x="201.904297" xlink:href="#DejaVuSans-115"/>
      <use x="254.003906" xlink:href="#DejaVuSans-105"/>
      <use x="281.787109" xlink:href="#DejaVuSans-116"/>
      <use x="320.996094" xlink:href="#DejaVuSans-121"/>
     </g>
    </g>
   </g>
   <g id="line2d_14">
    <path clip-path="url(#p7d66b7f19b)" d="M 92.484659 303.526924 
L 92.689944 303.513084 
L 92.923223 303.786463 
L 93.64172 304.745937 
L 94.117609 304.860027 
L 94.770788 304.834139 
L 95.134703 304.587306 
L 95.573267 303.970764 
L 96.049155 303.407885 
L 96.273102 303.437365 
L 96.525043 303.734608 
L 97.504813 305.138089 
L 98.605887 305.456006 
L 98.913815 305.310757 
L 99.884254 304.652115 
L 100.192181 304.902182 
L 100.985328 305.633571 
L 101.237269 305.545602 
L 101.563859 305.149706 
L 102.123727 304.498931 
L 102.338344 304.555737 
L 102.618278 304.918461 
L 103.252795 305.770032 
L 103.551392 305.79137 
L 104.241896 305.513629 
L 104.577817 305.161231 
L 105.156348 304.083179 
L 105.510931 303.698137 
L 105.753541 303.715808 
L 106.024144 303.997295 
L 106.500032 304.908794 
L 107.041238 305.764711 
L 107.414484 305.975245 
L 107.694418 305.897967 
L 107.974352 305.552802 
L 108.991447 304.01311 
L 109.290043 304.137989 
L 110.3258 304.985223 
L 111.016304 305.477189 
L 111.902763 305.696682 
L 112.136041 305.525566 
L 112.397313 304.997643 
L 113.237116 303.047962 
L 113.442401 303.106638 
L 113.806315 303.527464 
L 115.038026 305.009009 
L 115.252642 304.888682 
L 115.56057 304.400621 
L 116.045789 303.694096 
L 116.232412 303.74004 
L 116.447028 304.081217 
L 116.876261 305.318941 
L 117.36148 306.449562 
L 117.706732 306.752366 
L 118.163958 306.832981 
L 118.789144 306.731126 
L 119.125065 306.461085 
L 119.442324 305.886233 
L 119.946206 304.387707 
L 120.440756 303.198741 
L 120.739353 302.981875 
L 121.075274 303.037188 
L 121.653805 303.373806 
L 122.008388 303.866879 
L 122.773541 305.05046 
L 122.960164 304.949253 
L 123.212105 304.491006 
L 124.387829 301.91812 
L 124.593114 302.021222 
L 124.901041 302.496419 
L 125.610208 303.617676 
L 125.908805 303.702092 
L 126.188739 303.53054 
L 127.569748 302.313041 
L 128.166941 302.164929 
L 128.465537 302.340832 
L 128.838783 302.874536 
L 129.482631 303.781733 
L 129.687917 303.73611 
L 129.902533 303.40735 
L 130.28511 302.301298 
L 130.733004 301.239506 
L 130.966283 301.139195 
L 131.199561 301.309084 
L 131.92739 301.965188 
L 132.142007 301.821525 
L 132.459265 301.276648 
L 132.981809 300.437837 
L 133.243081 300.395423 
L 133.746963 300.402948 
L 133.980241 300.058479 
L 134.353487 299.00198 
L 134.801382 297.937618 
L 134.997336 297.898555 
L 135.174627 298.141673 
L 135.454561 298.978501 
L 136.387676 302.068422 
L 136.602292 302.136642 
L 136.807577 301.944277 
L 137.124836 301.279788 
L 137.955307 298.78046 
L 138.748454 296.816053 
L 138.96307 296.739235 
L 139.140362 296.956979 
L 139.44829 297.792642 
L 139.970833 299.088641 
L 140.204112 299.188369 
L 140.437391 299.01713 
L 141.081239 298.4565 
L 141.314518 298.591457 
L 142.275625 299.423175 
L 142.648871 299.113551 
L 143.031448 298.912414 
L 143.927237 298.728807 
L 144.225834 298.724007 
L 145.046974 298.967115 
L 145.448213 298.839313 
L 145.653498 299.073133 
L 146.082731 300.063436 
L 146.353334 300.363743 
L 146.502632 300.244879 
L 146.717248 299.715241 
L 147.54772 297.287632 
L 147.557051 297.290709 
L 147.697018 297.471572 
L 147.911634 298.217568 
L 148.882073 302.330272 
L 148.900735 302.322884 
L 149.040702 302.125117 
L 149.273981 301.315029 
L 150.449704 296.483714 
L 151.214858 295.47203 
L 151.588104 295.220885 
L 152.4559 294.944671 
L 152.903794 294.294044 
L 153.286371 293.34913 
L 153.799584 291.352425 
L 154.294134 289.755389 
L 154.499419 289.636401 
L 154.648718 289.847142 
L 154.872665 290.646172 
L 155.329891 293.37083 
L 155.777786 295.433641 
L 156.05772 295.874391 
L 156.290998 295.888244 
L 156.645582 295.638642 
L 157.03749 295.113469 
L 157.345417 294.279826 
L 158.306525 291.239739 
L 158.493148 291.372482 
L 158.997029 291.815865 
L 159.174321 291.640298 
L 159.435593 290.999681 
L 160.368707 288.423892 
L 160.844595 287.458095 
L 161.572424 285.782411 
L 161.78704 285.768257 
L 162.076306 286.029071 
L 163.429321 287.539861 
L 163.457314 287.513952 
L 163.643937 287.147291 
L 163.923871 285.998043 
L 164.521064 283.540709 
L 164.670363 283.504172 
L 164.679694 283.511953 
L 164.838323 283.805986 
L 165.192906 285.106485 
L 165.556821 286.078341 
L 165.743444 286.12541 
L 165.948729 285.886662 
L 166.592578 285.034175 
L 166.891174 285.036745 
L 167.199102 285.26202 
L 167.507029 285.795946 
L 168.020242 287.270818 
L 168.449475 288.188922 
L 168.682753 288.275653 
L 168.934694 288.089757 
L 169.373257 287.788796 
L 169.569211 287.944403 
L 169.849146 288.538115 
L 170.418345 289.749893 
L 170.595637 289.719128 
L 170.791591 289.375793 
L 171.090187 288.309913 
L 172.051295 284.522702 
L 172.601832 283.403999 
L 172.956415 281.739706 
L 173.600264 278.824449 
L 174.664014 275.94286 
L 174.775988 276.088927 
L 174.95328 276.797173 
L 175.289201 279.337873 
L 175.765089 282.452097 
L 176.026361 282.973633 
L 176.259639 283.007923 
L 176.679541 283.038626 
L 177.052786 283.393247 
L 177.351383 283.551323 
L 177.519343 283.4005 
L 177.733959 282.842934 
L 178.06988 281.216805 
L 178.657742 278.489395 
L 178.872359 278.297288 
L 179.04965 278.444174 
L 179.581525 278.968353 
L 179.805473 278.82647 
L 180.244036 278.202869 
L 180.673269 277.255114 
L 181.447753 275.382492 
L 181.606383 275.43546 
L 181.811668 275.80817 
L 182.819431 278.08698 
L 182.996723 277.929514 
L 183.267326 277.30945 
L 183.78987 276.140144 
L 183.948499 276.181362 
L 184.153784 276.551305 
L 184.69499 277.590889 
L 184.825626 277.428981 
L 185.012249 276.7162 
L 185.292183 274.576613 
L 186.197304 266.889403 
L 186.393258 266.711976 
L 186.635868 266.892038 
L 186.831822 266.899986 
L 186.999782 266.617542 
L 187.363697 265.390022 
L 187.662293 264.785159 
L 187.830254 264.829655 
L 188.343466 265.174683 
L 188.567414 264.835075 
L 188.894004 264.435273 
L 189.033971 264.571271 
L 189.248587 265.20309 
L 189.827118 267.04033 
L 189.939091 266.945029 
L 190.097721 266.397051 
L 190.349662 264.541099 
L 191.40408 255.556406 
L 191.506723 255.590308 
L 191.516054 255.604812 
L 191.665352 256.089057 
L 191.917293 257.842975 
L 192.598466 262.88984 
L 192.691778 262.930248 
L 192.719771 262.899514 
L 192.850407 262.512618 
L 193.111679 260.839464 
L 193.85817 255.874088 
L 195.061888 250.854368 
L 195.444464 250.314172 
L 195.621756 250.334075 
L 195.780385 250.654314 
L 196.004333 251.745026 
L 196.946778 257.214563 
L 197.413335 258.153465 
L 198.533072 262.066317 
L 198.906317 262.959225 
L 199.046285 262.932569 
L 199.204914 262.562171 
L 199.447524 261.288476 
L 199.895418 257.441713 
L 200.427293 253.502549 
L 200.72589 252.673219 
L 201.005824 252.4992 
L 201.267096 252.284871 
L 201.500375 251.717213 
L 201.845627 250.165598 
L 202.564125 245.698609 
L 203.049344 241.085431 
L 203.469245 237.786123 
L 203.571888 237.639233 
L 203.609212 237.675507 
L 203.721186 238.082561 
L 203.91714 239.821637 
L 204.32771 246.043732 
L 204.747611 251.037569 
L 204.887579 251.423497 
L 204.924903 251.389191 
L 205.027546 250.994144 
L 205.2235 249.115461 
L 206.100627 238.861902 
L 206.119289 238.870237 
L 206.2126 239.097818 
L 206.389892 240.271998 
L 206.809793 245.040267 
L 207.295013 249.514892 
L 207.546954 250.283657 
L 207.649596 250.218876 
L 207.798894 249.714189 
L 208.032173 247.981308 
L 208.433412 243.002755 
L 209.15191 234.361349 
L 209.422513 233.247186 
L 209.525155 233.239211 
L 209.543818 233.25991 
L 209.702447 233.659699 
L 210.402283 235.775466 
L 210.812853 236.11703 
L 211.055462 236.917359 
L 211.736636 239.399306 
L 211.895265 239.383329 
L 212.063226 239.040552 
L 212.305835 237.951128 
L 212.66975 235.108714 
L 213.350923 229.767368 
L 213.537546 229.47514 
L 213.546877 229.47963 
L 213.658851 229.677795 
L 213.845473 230.589386 
L 214.14407 233.395012 
L 215.077184 243.108736 
L 215.151833 243.149562 
L 215.189158 243.106145 
L 215.319794 242.627888 
L 215.553072 240.682722 
L 216.467524 232.042749 
L 217.279333 228.715006 
L 217.820539 225.991529 
L 218.07248 225.626598 
L 218.23111 225.693629 
L 218.427064 226.08822 
L 218.669673 227.15341 
L 219.024257 229.909727 
L 219.46282 232.87274 
L 219.556132 232.959002 
L 219.593456 232.91831 
L 219.714761 232.483444 
L 219.929377 230.675473 
L 220.423928 223.952045 
L 220.871822 219.320818 
L 221.114432 218.551755 
L 221.226406 218.605838 
L 221.403697 219.064031 
L 222.038215 220.885794 
L 222.215507 220.85734 
L 222.784706 220.553477 
L 222.98066 220.923803 
L 223.680496 222.809562 
L 223.755145 222.732709 
L 223.904443 222.235126 
L 224.12839 220.52765 
L 224.482974 215.753079 
L 225.080167 208.068516 
L 225.304114 207.359918 
L 225.406757 207.448773 
L 225.621373 208.082289 
L 225.919969 208.715151 
L 226.022612 208.603885 
L 226.190572 207.981631 
L 226.881077 204.521539 
L 226.946395 204.591049 
L 227.095693 205.099239 
L 227.608906 207.424426 
L 227.664893 207.352593 
L 227.786198 206.765748 
L 227.982151 204.470346 
L 228.346066 196.856978 
L 228.793961 188.920047 
L 228.980584 188.128389 
L 228.989915 188.130245 
L 229.073895 188.299873 
L 229.251187 189.355908 
L 230.10032 195.167934 
L 230.660189 197.200665 
L 230.744169 197.150415 
L 230.7535 197.130267 
L 230.865474 196.583943 
L 231.024103 194.421419 
L 231.220057 188.034484 
L 231.453336 172.011727 
L 231.770595 132.119763 
L 232.377119 55.456752 
L 232.451768 54.144 
L 232.498424 54.664889 
L 232.610397 60.001967 
L 232.825013 83.56764 
L 233.627492 180.753469 
L 233.907426 189.812979 
L 234.140704 191.752454 
L 234.252678 191.857549 
L 234.290003 191.831817 
L 234.476625 191.476876 
L 234.933851 190.0619 
L 235.223117 188.32605 
L 235.913621 183.043048 
L 235.978939 183.152579 
L 236.100244 183.975887 
L 236.296198 187.176502 
L 236.622788 196.930872 
L 237.359948 219.177932 
L 237.7052 223.412919 
L 237.957141 224.385239 
L 238.059783 224.37112 
L 238.078446 224.345902 
L 238.237075 223.883704 
L 238.563665 222.033935 
L 238.992897 220.007938 
L 239.198182 219.810793 
L 239.347481 219.973491 
L 239.59009 220.658562 
L 239.935343 222.393181 
L 240.429893 226.248655 
L 240.905781 229.352501 
L 241.111066 229.674847 
L 241.22304 229.532349 
L 241.409663 228.846406 
L 241.745584 226.580153 
L 242.240134 221.622884 
L 243.331878 209.883874 
L 243.751779 206.047654 
L 244.722218 195.816139 
L 245.31008 193.533817 
L 245.534027 193.203651 
L 245.636669 193.368199 
L 245.795299 194.171565 
L 246.028577 196.724946 
L 246.429816 204.169503 
L 246.989685 213.634744 
L 247.260288 215.195015 
L 247.456242 215.371469 
L 247.736176 215.46247 
L 247.93213 215.907675 
L 248.352031 216.872137 
L 248.464005 216.696539 
L 248.650628 215.85448 
L 249.173172 213.351702 
L 249.266483 213.494747 
L 249.434444 214.303286 
L 249.994312 217.290018 
L 250.087624 217.153357 
L 250.264915 216.32692 
L 250.899433 212.995102 
L 251.067393 212.976388 
L 251.393983 213.057547 
L 251.552613 212.714832 
L 251.813885 211.471137 
L 252.252448 209.578581 
L 252.34576 209.599994 
L 252.364422 209.630326 
L 252.504389 210.145853 
L 252.737667 212.06289 
L 253.605464 220.189279 
L 253.689444 220.183345 
L 253.717437 220.142254 
L 253.866735 219.641547 
L 254.650551 216.127343 
L 254.706538 216.16017 
L 254.855836 216.480347 
L 255.126439 217.717273 
L 255.695639 220.315183 
L 255.779619 220.313271 
L 255.807613 220.273224 
L 255.938249 219.795826 
L 256.143534 218.018227 
L 256.535442 212.128714 
L 256.92735 207.608595 
L 257.057986 207.301141 
L 257.09531 207.337645 
L 257.207284 207.750977 
L 257.440562 209.723911 
L 258.448325 219.256905 
L 259.017525 222.85914 
L 259.185486 223.065484 
L 259.204148 223.055006 
L 259.334784 222.809208 
L 259.596056 221.669672 
L 260.127931 219.467765 
L 260.361209 219.234852 
L 260.557163 219.33715 
L 261.994159 220.672442 
L 262.00349 220.663091 
L 262.162119 220.32815 
L 262.41406 219.139886 
L 262.843293 217.277233 
L 262.936604 217.330762 
L 263.06724 217.801142 
L 263.30985 219.716276 
L 264.04701 225.926364 
L 265.19474 231.179587 
L 265.76394 232.12913 
L 266.127854 233.916201 
L 266.510431 235.369704 
L 266.706385 235.480033 
L 266.874345 235.2637 
L 267.144949 234.481534 
L 267.490201 232.745242 
L 268.367328 227.703156 
L 268.38599 227.711657 
L 268.497964 227.938275 
L 268.684587 228.953495 
L 269.076495 232.67496 
L 269.524389 236.085923 
L 270.336199 240.207606 
L 271.148008 247.369228 
L 271.241319 247.415502 
L 271.278644 247.371488 
L 271.418611 246.899423 
L 271.661221 245.084007 
L 272.417043 238.866569 
L 272.519685 238.827355 
L 272.547679 238.854418 
L 272.706308 239.229453 
L 273.182196 240.404331 
L 273.37815 240.353651 
L 273.583436 240.357471 
L 273.723403 240.669392 
L 273.919357 241.77158 
L 274.255278 245.263579 
L 274.749828 249.871575 
L 274.871133 250.07982 
L 274.908457 250.039533 
L 275.020431 249.611621 
L 275.216385 247.784792 
L 275.598962 241.533829 
L 276.018863 235.948768 
L 276.149499 235.574551 
L 276.186824 235.618174 
L 276.298797 236.145856 
L 276.504083 238.482403 
L 277.539839 252.452692 
L 277.651813 252.526767 
L 277.679806 252.50215 
L 277.829104 252.138732 
L 278.193019 250.423994 
L 278.640914 248.735125 
L 278.874192 248.4852 
L 279.02349 248.603529 
L 279.228776 249.131605 
L 280.012591 251.680997 
L 280.049916 251.660657 
L 280.227208 251.375285 
L 280.721758 250.518204 
L 281.234971 250.28913 
L 281.468249 249.480056 
L 282.056111 247.325862 
L 282.233403 247.313421 
L 283.11053 248.028903 
L 283.297153 248.868113 
L 283.558425 251.267236 
L 284.50087 261.010862 
L 284.790135 261.761401 
L 284.99542 261.825795 
L 285.182043 261.610457 
L 285.452646 260.882923 
L 286.273787 258.377091 
L 286.283118 258.380641 
L 286.413754 258.564811 
L 286.619039 259.341243 
L 287.076265 262.252909 
L 287.533491 264.517197 
L 287.804094 264.992137 
L 287.962723 264.948721 
L 288.149346 264.600199 
L 288.447942 263.475762 
L 289.035804 261.285131 
L 289.157109 261.325821 
L 289.306407 261.760517 
L 289.549017 263.333101 
L 290.519456 270.529866 
L 290.687416 270.616296 
L 290.696747 270.61026 
L 290.855377 270.362897 
L 291.163304 269.352246 
L 291.891133 266.929498 
L 292.124412 266.773268 
L 292.311035 266.936713 
L 292.656287 267.647147 
L 293.141506 268.479018 
L 293.505421 269.050715 
L 293.74803 270.022618 
L 294.07462 272.436556 
L 294.979741 279.557181 
L 295.492954 281.571515 
L 295.856868 282.30853 
L 296.043491 282.319411 
L 296.211451 282.051628 
L 296.454061 281.17351 
L 296.836638 278.80325 
L 297.75109 272.963299 
L 298.189653 271.611899 
L 298.478919 271.266806 
L 298.646879 271.342633 
L 298.842833 271.756193 
L 299.113436 272.952697 
L 299.626649 276.533232 
L 300.065212 278.858839 
L 300.354478 279.393109 
L 300.606419 279.449546 
L 300.905015 279.272204 
L 301.212943 278.810053 
L 301.604851 277.769641 
L 302.034083 275.969576 
L 302.715256 273.067572 
L 302.883217 273.030645 
L 303.060509 273.323678 
L 303.601715 274.315114 
L 303.741682 274.154503 
L 303.965629 273.467758 
L 304.572153 271.489703 
L 304.702789 271.556034 
L 304.880081 272.009165 
L 305.943831 275.426092 
L 306.326408 276.189163 
L 307.763403 280.150313 
L 308.621868 284.050935 
L 308.771167 284.063251 
L 308.780498 284.054086 
L 308.939127 283.724986 
L 309.200399 282.546855 
L 309.592307 279.603756 
L 310.161507 273.337111 
L 310.544083 270.248065 
L 310.656057 270.081861 
L 310.693382 270.121405 
L 310.814686 270.583131 
L 311.029303 272.532714 
L 311.934423 282.04134 
L 312.018404 282.0476 
L 312.046397 282.011556 
L 312.195695 281.549827 
L 312.624928 279.140459 
L 312.951518 278.033944 
L 313.128809 277.976641 
L 313.29677 278.233129 
L 313.604697 279.222653 
L 314.192559 281.046571 
L 314.416507 281.165491 
L 314.631123 280.987112 
L 315.125673 280.532797 
L 315.302965 280.684295 
L 315.582899 281.310333 
L 315.984138 282.083276 
L 316.124105 282.007073 
L 316.301397 281.557515 
L 316.627987 279.962088 
L 317.178524 277.472284 
L 317.46779 277.022276 
L 317.682406 277.013315 
L 317.87836 277.242294 
L 318.102307 277.898485 
L 318.391573 279.549287 
L 319.259369 285.001931 
L 319.464654 285.176949 
L 319.623283 285.030106 
L 319.884555 284.406706 
L 320.873656 281.570098 
L 320.901649 281.584255 
L 321.050948 281.823258 
L 321.293557 282.746624 
L 321.937406 285.374054 
L 322.068042 285.326377 
L 322.236003 284.89011 
L 322.62791 283.001958 
L 322.991825 281.772253 
L 323.187779 281.680292 
L 323.365071 281.898655 
L 323.682329 282.739241 
L 324.186211 284.777017 
L 324.895378 287.565108 
L 325.97779 290.265794 
L 326.005783 290.249042 
L 326.155082 289.992595 
L 326.444347 288.906588 
L 326.817593 287.771331 
L 326.948229 287.815196 
L 327.106858 288.257308 
L 327.414786 289.990876 
L 327.853349 292.120456 
L 327.983985 292.206582 
L 328.011979 292.18243 
L 328.151946 291.836861 
L 328.385224 290.51553 
L 329.383656 283.830239 
L 329.402318 283.837104 
L 329.514292 284.031107 
L 329.719577 284.963393 
L 330.466069 288.748633 
L 330.811321 289.139161 
L 331.05393 289.58955 
L 331.38052 290.789887 
L 331.912395 292.615811 
L 332.108349 292.716347 
L 332.294972 292.523882 
L 332.817516 291.902966 
L 332.985476 292.07767 
L 333.237417 292.756404 
L 333.927922 294.770709 
L 334.07722 294.734475 
L 334.263843 294.377623 
L 334.926354 292.889388 
L 335.075652 293.064184 
L 335.374248 293.880666 
L 335.738163 294.636391 
L 335.906123 294.611083 
L 336.111409 294.271966 
L 336.708602 293.182896 
L 336.867231 293.297363 
L 337.100509 293.820509 
L 337.996299 296.086999 
L 338.584161 297.338223 
L 339.349314 298.975554 
L 339.750553 299.341042 
L 340.04915 299.344074 
L 340.562363 299.276097 
L 340.776979 299.590257 
L 341.131562 300.62345 
L 341.60745 301.797156 
L 341.906047 302.002831 
L 343.119095 302.391859 
L 343.464347 302.881982 
L 344.266825 304.151526 
L 344.481442 304.055416 
L 345.414556 303.328563 
L 345.713152 303.166884 
L 346.011749 302.682553 
L 346.730247 301.432216 
L 346.944863 301.435719 
L 347.159479 301.698389 
L 347.458076 302.493396 
L 348.185904 304.575754 
L 348.363196 304.565708 
L 348.568481 304.247834 
L 349.352297 302.789727 
L 349.520258 302.955254 
L 349.78153 303.599676 
L 350.462703 305.355924 
L 350.667988 305.38472 
L 350.882604 305.145909 
L 351.33983 304.188345 
L 351.955685 303.084684 
L 352.562209 302.494932 
L 353.420674 301.879989 
L 354.372451 301.602823 
L 354.699041 300.986445 
L 355.333558 299.763296 
L 355.520181 299.795147 
L 355.772122 300.129921 
L 356.257341 300.747263 
L 356.509282 300.715608 
L 357.050488 300.567888 
L 357.63835 300.661173 
L 357.852966 300.295103 
L 358.282199 298.968084 
L 358.61812 298.286564 
L 358.795411 298.300574 
L 359.000696 298.619533 
L 359.532571 300.044718 
L 360.223076 301.576051 
L 360.540335 301.859059 
L 360.764282 301.795829 
L 361.062878 301.432848 
L 361.688065 300.657252 
L 361.884019 300.743036 
L 362.126629 301.160196 
L 362.751815 302.903464 
L 363.404995 304.324253 
L 363.69426 304.545693 
L 363.890214 304.429939 
L 364.188811 303.919853 
L 364.711354 303.09825 
L 365.093931 302.95377 
L 365.476508 302.726872 
L 366.241662 302.157841 
L 366.512265 302.269805 
L 366.820192 302.673761 
L 367.893273 304.335541 
L 368.285181 304.427498 
L 368.882374 304.279104 
L 369.227627 304.34439 
L 370.328701 304.801303 
L 370.692616 304.993229 
L 371.821684 305.83339 
L 372.194929 305.600643 
L 372.409545 305.432711 
L 372.409545 305.432711 
" style="fill:none;stroke:#ff7f0e;stroke-linecap:square;stroke-width:1.5;"/>
   </g>
   <g id="patch_103">
    <path d="M 57.6 307.584 
L 57.6 41.472 
" style="fill:none;stroke:#000000;stroke-linecap:square;stroke-linejoin:miter;stroke-width:0.8;"/>
   </g>
   <g id="patch_104">
    <path d="M 414.72 307.584 
L 414.72 41.472 
" style="fill:none;stroke:#000000;stroke-linecap:square;stroke-linejoin:miter;stroke-width:0.8;"/>
   </g>
   <g id="patch_105">
    <path d="M 57.6 307.584 
L 414.72 307.584 
" style="fill:none;stroke:#000000;stroke-linecap:square;stroke-linejoin:miter;stroke-width:0.8;"/>
   </g>
   <g id="patch_106">
    <path d="M 57.6 41.472 
L 414.72 41.472 
" style="fill:none;stroke:#000000;stroke-linecap:square;stroke-linejoin:miter;stroke-width:0.8;"/>
   </g>
  </g>
 </g>
 <defs>
  <clipPath id="p7d66b7f19b">
   <rect height="266.112" width="357.12" x="57.6" y="41.472"/>
  </clipPath>
 </defs>
</svg>
