<?xml version="1.0" encoding="utf-8" standalone="no"?>
<!DOCTYPE svg PUBLIC "-//W3C//DTD SVG 1.1//EN"
  "http://www.w3.org/Graphics/SVG/1.1/DTD/svg11.dtd">
<!-- Created with matplotlib (https://matplotlib.org/) -->
<svg height="345.6pt" version="1.1" viewBox="0 0 460.8 345.6" width="460.8pt" xmlns="http://www.w3.org/2000/svg" xmlns:xlink="http://www.w3.org/1999/xlink">
 <defs>
  <style type="text/css">
*{stroke-linecap:butt;stroke-linejoin:round;}
  </style>
 </defs>
 <g id="figure_1">
  <g id="patch_1">
   <path d="M 0 345.6 
L 460.8 345.6 
L 460.8 0 
L 0 0 
z
" style="fill:#ffffff;"/>
  </g>
  <g id="axes_1">
   <g id="patch_2">
    <path d="M 57.6 307.584 
L 414.72 307.584 
L 414.72 41.472 
L 57.6 41.472 
z
" style="fill:#ffffff;"/>
   </g>
   <g id="patch_3">
    <path clip-path="url(#p82f02d550d)" d="M 73.832727 307.584 
L 77.079275 307.584 
L 77.079275 307.034488 
L 73.832727 307.034488 
z
" style="fill:#1f77b4;"/>
   </g>
   <g id="patch_4">
    <path clip-path="url(#p82f02d550d)" d="M 77.079275 307.584 
L 80.325823 307.584 
L 80.325823 306.851317 
L 77.079275 306.851317 
z
" style="fill:#1f77b4;"/>
   </g>
   <g id="patch_5">
    <path clip-path="url(#p82f02d550d)" d="M 80.325823 307.584 
L 83.572357 307.584 
L 83.572357 305.935457 
L 80.325823 305.935457 
z
" style="fill:#1f77b4;"/>
   </g>
   <g id="patch_6">
    <path clip-path="url(#p82f02d550d)" d="M 83.572357 307.584 
L 86.818905 307.584 
L 86.818905 305.202781 
L 83.572357 305.202781 
z
" style="fill:#1f77b4;"/>
   </g>
   <g id="patch_7">
    <path clip-path="url(#p82f02d550d)" d="M 86.818905 307.584 
L 90.065453 307.584 
L 90.065453 304.83644 
L 86.818905 304.83644 
z
" style="fill:#1f77b4;"/>
   </g>
   <g id="patch_8">
    <path clip-path="url(#p82f02d550d)" d="M 90.065453 307.584 
L 93.312 307.584 
L 93.312 305.202781 
L 90.065453 305.202781 
z
" style="fill:#1f77b4;"/>
   </g>
   <g id="patch_9">
    <path clip-path="url(#p82f02d550d)" d="M 93.312 307.584 
L 96.558548 307.584 
L 96.558548 304.83644 
L 93.312 304.83644 
z
" style="fill:#1f77b4;"/>
   </g>
   <g id="patch_10">
    <path clip-path="url(#p82f02d550d)" d="M 96.558548 307.584 
L 99.805096 307.584 
L 99.805096 305.385952 
L 96.558548 305.385952 
z
" style="fill:#1f77b4;"/>
   </g>
   <g id="patch_11">
    <path clip-path="url(#p82f02d550d)" d="M 99.805109 307.584 
L 103.051643 307.584 
L 103.051643 305.569114 
L 99.805109 305.569114 
z
" style="fill:#1f77b4;"/>
   </g>
   <g id="patch_12">
    <path clip-path="url(#p82f02d550d)" d="M 103.05163 307.584 
L 106.298178 307.584 
L 106.298178 304.83644 
L 103.05163 304.83644 
z
" style="fill:#1f77b4;"/>
   </g>
   <g id="patch_13">
    <path clip-path="url(#p82f02d550d)" d="M 106.298178 307.584 
L 109.544726 307.584 
L 109.544726 305.752293 
L 106.298178 305.752293 
z
" style="fill:#1f77b4;"/>
   </g>
   <g id="patch_14">
    <path clip-path="url(#p82f02d550d)" d="M 109.544726 307.584 
L 112.791273 307.584 
L 112.791273 305.019611 
L 109.544726 305.019611 
z
" style="fill:#1f77b4;"/>
   </g>
   <g id="patch_15">
    <path clip-path="url(#p82f02d550d)" d="M 112.791273 307.584 
L 116.037821 307.584 
L 116.037821 303.371075 
L 112.791273 303.371075 
z
" style="fill:#1f77b4;"/>
   </g>
   <g id="patch_16">
    <path clip-path="url(#p82f02d550d)" d="M 116.037821 307.584 
L 119.284369 307.584 
L 119.284369 305.569123 
L 116.037821 305.569123 
z
" style="fill:#1f77b4;"/>
   </g>
   <g id="patch_17">
    <path clip-path="url(#p82f02d550d)" d="M 119.284369 307.584 
L 122.53091 307.584 
L 122.53091 304.10375 
L 119.284369 304.10375 
z
" style="fill:#1f77b4;"/>
   </g>
   <g id="patch_18">
    <path clip-path="url(#p82f02d550d)" d="M 122.53091 307.584 
L 125.777457 307.584 
L 125.777457 304.103757 
L 122.53091 304.103757 
z
" style="fill:#1f77b4;"/>
   </g>
   <g id="patch_19">
    <path clip-path="url(#p82f02d550d)" d="M 125.777451 307.584 
L 129.023992 307.584 
L 129.023992 302.088869 
L 125.777451 302.088869 
z
" style="fill:#1f77b4;"/>
   </g>
   <g id="patch_20">
    <path clip-path="url(#p82f02d550d)" d="M 129.023999 307.584 
L 132.270546 307.584 
L 132.270546 301.356197 
L 129.023999 301.356197 
z
" style="fill:#1f77b4;"/>
   </g>
   <g id="patch_21">
    <path clip-path="url(#p82f02d550d)" d="M 132.270546 307.584 
L 135.517094 307.584 
L 135.517094 299.707661 
L 132.270546 299.707661 
z
" style="fill:#1f77b4;"/>
   </g>
   <g id="patch_22">
    <path clip-path="url(#p82f02d550d)" d="M 135.517094 307.584 
L 138.763635 307.584 
L 138.763635 300.440329 
L 135.517094 300.440329 
z
" style="fill:#1f77b4;"/>
   </g>
   <g id="patch_23">
    <path clip-path="url(#p82f02d550d)" d="M 138.763635 307.584 
L 142.010183 307.584 
L 142.010183 298.608637 
L 138.763635 298.608637 
z
" style="fill:#1f77b4;"/>
   </g>
   <g id="patch_24">
    <path clip-path="url(#p82f02d550d)" d="M 142.010183 307.584 
L 145.25673 307.584 
L 145.25673 300.074003 
L 142.010183 300.074003 
z
" style="fill:#1f77b4;"/>
   </g>
   <g id="patch_25">
    <path clip-path="url(#p82f02d550d)" d="M 145.256724 307.584 
L 148.503265 307.584 
L 148.503265 298.425448 
L 145.256724 298.425448 
z
" style="fill:#1f77b4;"/>
   </g>
   <g id="patch_26">
    <path clip-path="url(#p82f02d550d)" d="M 148.503272 307.584 
L 151.749819 307.584 
L 151.749819 297.326443 
L 148.503272 297.326443 
z
" style="fill:#1f77b4;"/>
   </g>
   <g id="patch_27">
    <path clip-path="url(#p82f02d550d)" d="M 151.749819 307.584 
L 154.996367 307.584 
L 154.996367 292.197664 
L 151.749819 292.197664 
z
" style="fill:#1f77b4;"/>
   </g>
   <g id="patch_28">
    <path clip-path="url(#p82f02d550d)" d="M 154.996367 307.584 
L 158.242908 307.584 
L 158.242908 295.128369 
L 154.996367 295.128369 
z
" style="fill:#1f77b4;"/>
   </g>
   <g id="patch_29">
    <path clip-path="url(#p82f02d550d)" d="M 158.242908 307.584 
L 161.489456 307.584 
L 161.489456 289.999616 
L 158.242908 289.999616 
z
" style="fill:#1f77b4;"/>
   </g>
   <g id="patch_30">
    <path clip-path="url(#p82f02d550d)" d="M 161.489449 307.584 
L 164.73599 307.584 
L 164.73599 287.984698 
L 161.489449 287.984698 
z
" style="fill:#1f77b4;"/>
   </g>
   <g id="patch_31">
    <path clip-path="url(#p82f02d550d)" d="M 164.735997 307.584 
L 167.982545 307.584 
L 167.982545 285.420349 
L 164.735997 285.420349 
z
" style="fill:#1f77b4;"/>
   </g>
   <g id="patch_32">
    <path clip-path="url(#p82f02d550d)" d="M 167.982545 307.584 
L 171.229092 307.584 
L 171.229092 288.717421 
L 167.982545 288.717421 
z
" style="fill:#1f77b4;"/>
   </g>
   <g id="patch_33">
    <path clip-path="url(#p82f02d550d)" d="M 171.229092 307.584 
L 174.475633 307.584 
L 174.475633 281.940054 
L 171.229092 281.940054 
z
" style="fill:#1f77b4;"/>
   </g>
   <g id="patch_34">
    <path clip-path="url(#p82f02d550d)" d="M 174.475633 307.584 
L 177.722181 307.584 
L 177.722181 281.756936 
L 174.475633 281.756936 
z
" style="fill:#1f77b4;"/>
   </g>
   <g id="patch_35">
    <path clip-path="url(#p82f02d550d)" d="M 177.722181 307.584 
L 180.968729 307.584 
L 180.968729 281.207424 
L 177.722181 281.207424 
z
" style="fill:#1f77b4;"/>
   </g>
   <g id="patch_36">
    <path clip-path="url(#p82f02d550d)" d="M 180.968729 307.584 
L 184.215273 307.584 
L 184.215273 278.093492 
L 180.968729 278.093492 
z
" style="fill:#1f77b4;"/>
   </g>
   <g id="patch_37">
    <path clip-path="url(#p82f02d550d)" d="M 184.21527 307.584 
L 187.461814 307.584 
L 187.461814 274.613246 
L 184.21527 274.613246 
z
" style="fill:#1f77b4;"/>
   </g>
   <g id="patch_38">
    <path clip-path="url(#p82f02d550d)" d="M 187.461818 307.584 
L 190.708365 307.584 
L 190.708365 268.568648 
L 187.461818 268.568648 
z
" style="fill:#1f77b4;"/>
   </g>
   <g id="patch_39">
    <path clip-path="url(#p82f02d550d)" d="M 190.708365 307.584 
L 193.95491 307.584 
L 193.95491 255.746648 
L 190.708365 255.746648 
z
" style="fill:#1f77b4;"/>
   </g>
   <g id="patch_40">
    <path clip-path="url(#p82f02d550d)" d="M 193.954906 307.584 
L 197.201451 307.584 
L 197.201451 251.90006 
L 193.954906 251.90006 
z
" style="fill:#1f77b4;"/>
   </g>
   <g id="patch_41">
    <path clip-path="url(#p82f02d550d)" d="M 197.201454 307.584 
L 200.447998 307.584 
L 200.447998 259.043723 
L 197.201454 259.043723 
z
" style="fill:#1f77b4;"/>
   </g>
   <g id="patch_42">
    <path clip-path="url(#p82f02d550d)" d="M 200.447998 307.584 
L 203.694546 307.584 
L 203.694546 247.320851 
L 200.447998 247.320851 
z
" style="fill:#1f77b4;"/>
   </g>
   <g id="patch_43">
    <path clip-path="url(#p82f02d550d)" d="M 203.694546 307.584 
L 206.941091 307.584 
L 206.941091 243.840542 
L 203.694546 243.840542 
z
" style="fill:#1f77b4;"/>
   </g>
   <g id="patch_44">
    <path clip-path="url(#p82f02d550d)" d="M 206.941091 307.584 
L 210.187637 307.584 
L 210.187637 239.261306 
L 206.941091 239.261306 
z
" style="fill:#1f77b4;"/>
   </g>
   <g id="patch_45">
    <path clip-path="url(#p82f02d550d)" d="M 210.187635 307.584 
L 213.434181 307.584 
L 213.434181 230.102768 
L 210.187635 230.102768 
z
" style="fill:#1f77b4;"/>
   </g>
   <g id="patch_46">
    <path clip-path="url(#p82f02d550d)" d="M 213.434183 307.584 
L 216.680727 307.584 
L 216.680727 233.216633 
L 213.434183 233.216633 
z
" style="fill:#1f77b4;"/>
   </g>
   <g id="patch_47">
    <path clip-path="url(#p82f02d550d)" d="M 216.680727 307.584 
L 219.927273 307.584 
L 219.927273 225.88984 
L 216.680727 225.88984 
z
" style="fill:#1f77b4;"/>
   </g>
   <g id="patch_48">
    <path clip-path="url(#p82f02d550d)" d="M 219.927273 307.584 
L 223.173818 307.584 
L 223.173818 217.647133 
L 219.927273 217.647133 
z
" style="fill:#1f77b4;"/>
   </g>
   <g id="patch_49">
    <path clip-path="url(#p82f02d550d)" d="M 223.173819 307.584 
L 226.420364 307.584 
L 226.420364 213.983717 
L 223.173819 213.983717 
z
" style="fill:#1f77b4;"/>
   </g>
   <g id="patch_50">
    <path clip-path="url(#p82f02d550d)" d="M 226.420364 307.584 
L 229.666909 307.584 
L 229.666909 197.498358 
L 226.420364 197.498358 
z
" style="fill:#1f77b4;"/>
   </g>
   <g id="patch_51">
    <path clip-path="url(#p82f02d550d)" d="M 229.666909 307.584 
L 232.913455 307.584 
L 232.913455 135.22028 
L 229.666909 135.22028 
z
" style="fill:#1f77b4;"/>
   </g>
   <g id="patch_52">
    <path clip-path="url(#p82f02d550d)" d="M 232.913455 307.584 
L 236.16 307.584 
L 236.16 195.666643 
L 232.913455 195.666643 
z
" style="fill:#1f77b4;"/>
   </g>
   <g id="patch_53">
    <path clip-path="url(#p82f02d550d)" d="M 236.16 307.584 
L 239.406546 307.584 
L 239.406546 211.236167 
L 236.16 211.236167 
z
" style="fill:#1f77b4;"/>
   </g>
   <g id="patch_54">
    <path clip-path="url(#p82f02d550d)" d="M 239.406545 307.584 
L 242.65309 307.584 
L 242.65309 224.607634 
L 239.406545 224.607634 
z
" style="fill:#1f77b4;"/>
   </g>
   <g id="patch_55">
    <path clip-path="url(#p82f02d550d)" d="M 242.653092 307.584 
L 245.899637 307.584 
L 245.899637 205.374689 
L 242.653092 205.374689 
z
" style="fill:#1f77b4;"/>
   </g>
   <g id="patch_56">
    <path clip-path="url(#p82f02d550d)" d="M 245.899637 307.584 
L 249.146184 307.584 
L 249.146184 218.379839 
L 245.899637 218.379839 
z
" style="fill:#1f77b4;"/>
   </g>
   <g id="patch_57">
    <path clip-path="url(#p82f02d550d)" d="M 249.146183 307.584 
L 252.392727 307.584 
L 252.392727 217.280768 
L 249.146183 217.280768 
z
" style="fill:#1f77b4;"/>
   </g>
   <g id="patch_58">
    <path clip-path="url(#p82f02d550d)" d="M 252.392725 307.584 
L 255.639271 307.584 
L 255.639271 221.860084 
L 252.392725 221.860084 
z
" style="fill:#1f77b4;"/>
   </g>
   <g id="patch_59">
    <path clip-path="url(#p82f02d550d)" d="M 255.639273 307.584 
L 258.885817 307.584 
L 258.885817 216.548085 
L 255.639273 216.548085 
z
" style="fill:#1f77b4;"/>
   </g>
   <g id="patch_60">
    <path clip-path="url(#p82f02d550d)" d="M 258.885817 307.584 
L 262.132365 307.584 
L 262.132365 226.256224 
L 258.885817 226.256224 
z
" style="fill:#1f77b4;"/>
   </g>
   <g id="patch_61">
    <path clip-path="url(#p82f02d550d)" d="M 262.132362 307.584 
L 265.378906 307.584 
L 265.378906 230.102728 
L 262.132362 230.102728 
z
" style="fill:#1f77b4;"/>
   </g>
   <g id="patch_62">
    <path clip-path="url(#p82f02d550d)" d="M 265.378909 307.584 
L 268.625454 307.584 
L 268.625454 233.033462 
L 265.378909 233.033462 
z
" style="fill:#1f77b4;"/>
   </g>
   <g id="patch_63">
    <path clip-path="url(#p82f02d550d)" d="M 268.625454 307.584 
L 271.872002 307.584 
L 271.872002 243.474266 
L 268.625454 243.474266 
z
" style="fill:#1f77b4;"/>
   </g>
   <g id="patch_64">
    <path clip-path="url(#p82f02d550d)" d="M 271.871998 307.584 
L 275.118543 307.584 
L 275.118543 244.390055 
L 271.871998 244.390055 
z
" style="fill:#1f77b4;"/>
   </g>
   <g id="patch_65">
    <path clip-path="url(#p82f02d550d)" d="M 275.118546 307.584 
L 278.36509 307.584 
L 278.36509 246.588105 
L 275.118546 246.588105 
z
" style="fill:#1f77b4;"/>
   </g>
   <g id="patch_66">
    <path clip-path="url(#p82f02d550d)" d="M 278.365087 307.584 
L 281.611631 307.584 
L 281.611631 250.434693 
L 278.365087 250.434693 
z
" style="fill:#1f77b4;"/>
   </g>
   <g id="patch_67">
    <path clip-path="url(#p82f02d550d)" d="M 281.611635 307.584 
L 284.858182 307.584 
L 284.858182 251.350605 
L 281.611635 251.350605 
z
" style="fill:#1f77b4;"/>
   </g>
   <g id="patch_68">
    <path clip-path="url(#p82f02d550d)" d="M 284.858182 307.584 
L 288.104727 307.584 
L 288.104727 260.142748 
L 284.858182 260.142748 
z
" style="fill:#1f77b4;"/>
   </g>
   <g id="patch_69">
    <path clip-path="url(#p82f02d550d)" d="M 288.104724 307.584 
L 291.351265 307.584 
L 291.351265 269.667633 
L 288.104724 269.667633 
z
" style="fill:#1f77b4;"/>
   </g>
   <g id="patch_70">
    <path clip-path="url(#p82f02d550d)" d="M 291.351271 307.584 
L 294.597819 307.584 
L 294.597819 270.949867 
L 291.351271 270.949867 
z
" style="fill:#1f77b4;"/>
   </g>
   <g id="patch_71">
    <path clip-path="url(#p82f02d550d)" d="M 294.597819 307.584 
L 297.844367 307.584 
L 297.844367 281.207424 
L 294.597819 281.207424 
z
" style="fill:#1f77b4;"/>
   </g>
   <g id="patch_72">
    <path clip-path="url(#p82f02d550d)" d="M 297.84436 307.584 
L 301.090901 307.584 
L 301.090901 277.72712 
L 297.84436 277.72712 
z
" style="fill:#1f77b4;"/>
   </g>
   <g id="patch_73">
    <path clip-path="url(#p82f02d550d)" d="M 301.090908 307.584 
L 304.337455 307.584 
L 304.337455 277.177669 
L 301.090908 277.177669 
z
" style="fill:#1f77b4;"/>
   </g>
   <g id="patch_74">
    <path clip-path="url(#p82f02d550d)" d="M 304.337455 307.584 
L 307.584003 307.584 
L 307.584003 276.444987 
L 304.337455 276.444987 
z
" style="fill:#1f77b4;"/>
   </g>
   <g id="patch_75">
    <path clip-path="url(#p82f02d550d)" d="M 307.584003 307.584 
L 310.830544 307.584 
L 310.830544 277.72712 
L 307.584003 277.72712 
z
" style="fill:#1f77b4;"/>
   </g>
   <g id="patch_76">
    <path clip-path="url(#p82f02d550d)" d="M 310.830544 307.584 
L 314.077092 307.584 
L 314.077092 280.291571 
L 310.830544 280.291571 
z
" style="fill:#1f77b4;"/>
   </g>
   <g id="patch_77">
    <path clip-path="url(#p82f02d550d)" d="M 314.077085 307.584 
L 317.323626 307.584 
L 317.323626 282.855909 
L 314.077085 282.855909 
z
" style="fill:#1f77b4;"/>
   </g>
   <g id="patch_78">
    <path clip-path="url(#p82f02d550d)" d="M 317.323633 307.584 
L 320.570181 307.584 
L 320.570181 284.138155 
L 317.323633 284.138155 
z
" style="fill:#1f77b4;"/>
   </g>
   <g id="patch_79">
    <path clip-path="url(#p82f02d550d)" d="M 320.570181 307.584 
L 323.816728 307.584 
L 323.816728 286.153032 
L 320.570181 286.153032 
z
" style="fill:#1f77b4;"/>
   </g>
   <g id="patch_80">
    <path clip-path="url(#p82f02d550d)" d="M 323.816728 307.584 
L 327.06327 307.584 
L 327.06327 289.99958 
L 323.816728 289.99958 
z
" style="fill:#1f77b4;"/>
   </g>
   <g id="patch_81">
    <path clip-path="url(#p82f02d550d)" d="M 327.06327 307.584 
L 330.309817 307.584 
L 330.309817 291.281811 
L 327.06327 291.281811 
z
" style="fill:#1f77b4;"/>
   </g>
   <g id="patch_82">
    <path clip-path="url(#p82f02d550d)" d="M 330.309817 307.584 
L 333.556365 307.584 
L 333.556365 293.296688 
L 330.309817 293.296688 
z
" style="fill:#1f77b4;"/>
   </g>
   <g id="patch_83">
    <path clip-path="url(#p82f02d550d)" d="M 333.556358 307.584 
L 336.802899 307.584 
L 336.802899 296.044224 
L 333.556358 296.044224 
z
" style="fill:#1f77b4;"/>
   </g>
   <g id="patch_84">
    <path clip-path="url(#p82f02d550d)" d="M 336.802906 307.584 
L 340.049454 307.584 
L 340.049454 297.692784 
L 336.802906 297.692784 
z
" style="fill:#1f77b4;"/>
   </g>
   <g id="patch_85">
    <path clip-path="url(#p82f02d550d)" d="M 340.049454 307.584 
L 343.296001 307.584 
L 343.296001 301.905709 
L 340.049454 301.905709 
z
" style="fill:#1f77b4;"/>
   </g>
   <g id="patch_86">
    <path clip-path="url(#p82f02d550d)" d="M 343.296001 307.584 
L 346.542549 307.584 
L 346.542549 303.737416 
L 343.296001 303.737416 
z
" style="fill:#1f77b4;"/>
   </g>
   <g id="patch_87">
    <path clip-path="url(#p82f02d550d)" d="M 346.542549 307.584 
L 349.789097 307.584 
L 349.789097 303.371075 
L 346.542549 303.371075 
z
" style="fill:#1f77b4;"/>
   </g>
   <g id="patch_88">
    <path clip-path="url(#p82f02d550d)" d="M 349.789097 307.584 
L 353.035631 307.584 
L 353.035631 305.0196 
L 349.789097 305.0196 
z
" style="fill:#1f77b4;"/>
   </g>
   <g id="patch_89">
    <path clip-path="url(#p82f02d550d)" d="M 353.035631 307.584 
L 356.282179 307.584 
L 356.282179 302.08888 
L 353.035631 302.08888 
z
" style="fill:#1f77b4;"/>
   </g>
   <g id="patch_90">
    <path clip-path="url(#p82f02d550d)" d="M 356.282179 307.584 
L 359.528727 307.584 
L 359.528727 300.806685 
L 356.282179 300.806685 
z
" style="fill:#1f77b4;"/>
   </g>
   <g id="patch_91">
    <path clip-path="url(#p82f02d550d)" d="M 359.528727 307.584 
L 362.775274 307.584 
L 362.775274 302.272051 
L 359.528727 302.272051 
z
" style="fill:#1f77b4;"/>
   </g>
   <g id="patch_92">
    <path clip-path="url(#p82f02d550d)" d="M 362.775274 307.584 
L 366.021822 307.584 
L 366.021822 304.286928 
L 362.775274 304.286928 
z
" style="fill:#1f77b4;"/>
   </g>
   <g id="patch_93">
    <path clip-path="url(#p82f02d550d)" d="M 366.021822 307.584 
L 369.26837 307.584 
L 369.26837 304.103757 
L 366.021822 304.103757 
z
" style="fill:#1f77b4;"/>
   </g>
   <g id="patch_94">
    <path clip-path="url(#p82f02d550d)" d="M 369.268383 307.584 
L 372.514918 307.584 
L 372.514918 305.752286 
L 369.268383 305.752286 
z
" style="fill:#1f77b4;"/>
   </g>
   <g id="patch_95">
    <path clip-path="url(#p82f02d550d)" d="M 372.514904 307.584 
L 375.761452 307.584 
L 375.761452 306.668147 
L 372.514904 306.668147 
z
" style="fill:#1f77b4;"/>
   </g>
   <g id="patch_96">
    <path clip-path="url(#p82f02d550d)" d="M 375.761452 307.584 
L 379.008 307.584 
L 379.008 305.569123 
L 375.761452 305.569123 
z
" style="fill:#1f77b4;"/>
   </g>
   <g id="patch_97">
    <path clip-path="url(#p82f02d550d)" d="M 379.008 307.584 
L 382.254547 307.584 
L 382.254547 305.935464 
L 379.008 305.935464 
z
" style="fill:#1f77b4;"/>
   </g>
   <g id="patch_98">
    <path clip-path="url(#p82f02d550d)" d="M 382.254547 307.584 
L 385.501095 307.584 
L 385.501095 306.668147 
L 382.254547 306.668147 
z
" style="fill:#1f77b4;"/>
   </g>
   <g id="patch_99">
    <path clip-path="url(#p82f02d550d)" d="M 385.501095 307.584 
L 388.747643 307.584 
L 388.747643 306.484976 
L 385.501095 306.484976 
z
" style="fill:#1f77b4;"/>
   </g>
   <g id="patch_100">
    <path clip-path="url(#p82f02d550d)" d="M 388.747643 307.584 
L 391.994177 307.584 
L 391.994177 306.851314 
L 388.747643 306.851314 
z
" style="fill:#1f77b4;"/>
   </g>
   <g id="patch_101">
    <path clip-path="url(#p82f02d550d)" d="M 391.994177 307.584 
L 395.240725 307.584 
L 395.240725 307.217659 
L 391.994177 307.217659 
z
" style="fill:#1f77b4;"/>
   </g>
   <g id="patch_102">
    <path clip-path="url(#p82f02d550d)" d="M 395.240725 307.584 
L 398.487273 307.584 
L 398.487273 306.851317 
L 395.240725 306.851317 
z
" style="fill:#1f77b4;"/>
   </g>
   <g id="matplotlib.axis_1">
    <g id="xtick_1">
     <g id="line2d_1">
      <defs>
       <path d="M 0 0 
L 0 3.5 
" id="me943157ca8" style="stroke:#000000;stroke-width:0.8;"/>
      </defs>
      <g>
       <use style="stroke:#000000;stroke-width:0.8;" x="64.491237" xlink:href="#me943157ca8" y="307.584"/>
      </g>
     </g>
     <g id="text_1">
      <!-- −3 -->
      <defs>
       <path d="M 10.59375 35.5 
L 73.1875 35.5 
L 73.1875 27.203125 
L 10.59375 27.203125 
z
" id="DejaVuSans-8722"/>
       <path d="M 40.578125 39.3125 
Q 47.65625 37.796875 51.625 33 
Q 55.609375 28.21875 55.609375 21.1875 
Q 55.609375 10.40625 48.1875 4.484375 
Q 40.765625 -1.421875 27.09375 -1.421875 
Q 22.515625 -1.421875 17.65625 -0.515625 
Q 12.796875 0.390625 7.625 2.203125 
L 7.625 11.71875 
Q 11.71875 9.328125 16.59375 8.109375 
Q 21.484375 6.890625 26.8125 6.890625 
Q 36.078125 6.890625 40.9375 10.546875 
Q 45.796875 14.203125 45.796875 21.1875 
Q 45.796875 27.640625 41.28125 31.265625 
Q 36.765625 34.90625 28.71875 34.90625 
L 20.21875 34.90625 
L 20.21875 43.015625 
L 29.109375 43.015625 
Q 36.375 43.015625 40.234375 45.921875 
Q 44.09375 48.828125 44.09375 54.296875 
Q 44.09375 59.90625 40.109375 62.90625 
Q 36.140625 65.921875 28.71875 65.921875 
Q 24.65625 65.921875 20.015625 65.03125 
Q 15.375 64.15625 9.8125 62.3125 
L 9.8125 71.09375 
Q 15.4375 72.65625 20.34375 73.4375 
Q 25.25 74.21875 29.59375 74.21875 
Q 40.828125 74.21875 47.359375 69.109375 
Q 53.90625 64.015625 53.90625 55.328125 
Q 53.90625 49.265625 50.4375 45.09375 
Q 46.96875 40.921875 40.578125 39.3125 
z
" id="DejaVuSans-51"/>
      </defs>
      <g transform="translate(51.960378 327.501344)scale(0.17 -0.17)">
       <use xlink:href="#DejaVuSans-8722"/>
       <use x="83.789062" xlink:href="#DejaVuSans-51"/>
      </g>
     </g>
    </g>
    <g id="xtick_2">
     <g id="line2d_2">
      <g>
       <use style="stroke:#000000;stroke-width:0.8;" x="120.478081" xlink:href="#me943157ca8" y="307.584"/>
      </g>
     </g>
     <g id="text_2">
      <!-- −2 -->
      <defs>
       <path d="M 19.1875 8.296875 
L 53.609375 8.296875 
L 53.609375 0 
L 7.328125 0 
L 7.328125 8.296875 
Q 12.9375 14.109375 22.625 23.890625 
Q 32.328125 33.6875 34.8125 36.53125 
Q 39.546875 41.84375 41.421875 45.53125 
Q 43.3125 49.21875 43.3125 52.78125 
Q 43.3125 58.59375 39.234375 62.25 
Q 35.15625 65.921875 28.609375 65.921875 
Q 23.96875 65.921875 18.8125 64.3125 
Q 13.671875 62.703125 7.8125 59.421875 
L 7.8125 69.390625 
Q 13.765625 71.78125 18.9375 73 
Q 24.125 74.21875 28.421875 74.21875 
Q 39.75 74.21875 46.484375 68.546875 
Q 53.21875 62.890625 53.21875 53.421875 
Q 53.21875 48.921875 51.53125 44.890625 
Q 49.859375 40.875 45.40625 35.40625 
Q 44.1875 33.984375 37.640625 27.21875 
Q 31.109375 20.453125 19.1875 8.296875 
z
" id="DejaVuSans-50"/>
      </defs>
      <g transform="translate(107.947221 327.501344)scale(0.17 -0.17)">
       <use xlink:href="#DejaVuSans-8722"/>
       <use x="83.789062" xlink:href="#DejaVuSans-50"/>
      </g>
     </g>
    </g>
    <g id="xtick_3">
     <g id="line2d_3">
      <g>
       <use style="stroke:#000000;stroke-width:0.8;" x="176.464924" xlink:href="#me943157ca8" y="307.584"/>
      </g>
     </g>
     <g id="text_3">
      <!-- −1 -->
      <defs>
       <path d="M 12.40625 8.296875 
L 28.515625 8.296875 
L 28.515625 63.921875 
L 10.984375 60.40625 
L 10.984375 69.390625 
L 28.421875 72.90625 
L 38.28125 72.90625 
L 38.28125 8.296875 
L 54.390625 8.296875 
L 54.390625 0 
L 12.40625 0 
z
" id="DejaVuSans-49"/>
      </defs>
      <g transform="translate(163.934065 327.501344)scale(0.17 -0.17)">
       <use xlink:href="#DejaVuSans-8722"/>
       <use x="83.789062" xlink:href="#DejaVuSans-49"/>
      </g>
     </g>
    </g>
    <g id="xtick_4">
     <g id="line2d_4">
      <g>
       <use style="stroke:#000000;stroke-width:0.8;" x="232.451768" xlink:href="#me943157ca8" y="307.584"/>
      </g>
     </g>
     <g id="text_4">
      <!-- 0 -->
      <defs>
       <path d="M 31.78125 66.40625 
Q 24.171875 66.40625 20.328125 58.90625 
Q 16.5 51.421875 16.5 36.375 
Q 16.5 21.390625 20.328125 13.890625 
Q 24.171875 6.390625 31.78125 6.390625 
Q 39.453125 6.390625 43.28125 13.890625 
Q 47.125 21.390625 47.125 36.375 
Q 47.125 51.421875 43.28125 58.90625 
Q 39.453125 66.40625 31.78125 66.40625 
z
M 31.78125 74.21875 
Q 44.046875 74.21875 50.515625 64.515625 
Q 56.984375 54.828125 56.984375 36.375 
Q 56.984375 17.96875 50.515625 8.265625 
Q 44.046875 -1.421875 31.78125 -1.421875 
Q 19.53125 -1.421875 13.0625 8.265625 
Q 6.59375 17.96875 6.59375 36.375 
Q 6.59375 54.828125 13.0625 64.515625 
Q 19.53125 74.21875 31.78125 74.21875 
z
" id="DejaVuSans-48"/>
      </defs>
      <g transform="translate(227.043643 327.501344)scale(0.17 -0.17)">
       <use xlink:href="#DejaVuSans-48"/>
      </g>
     </g>
    </g>
    <g id="xtick_5">
     <g id="line2d_5">
      <g>
       <use style="stroke:#000000;stroke-width:0.8;" x="288.438611" xlink:href="#me943157ca8" y="307.584"/>
      </g>
     </g>
     <g id="text_5">
      <!-- 1 -->
      <g transform="translate(283.030486 327.501344)scale(0.17 -0.17)">
       <use xlink:href="#DejaVuSans-49"/>
      </g>
     </g>
    </g>
    <g id="xtick_6">
     <g id="line2d_6">
      <g>
       <use style="stroke:#000000;stroke-width:0.8;" x="344.425455" xlink:href="#me943157ca8" y="307.584"/>
      </g>
     </g>
     <g id="text_6">
      <!-- 2 -->
      <g transform="translate(339.01733 327.501344)scale(0.17 -0.17)">
       <use xlink:href="#DejaVuSans-50"/>
      </g>
     </g>
    </g>
    <g id="xtick_7">
     <g id="line2d_7">
      <g>
       <use style="stroke:#000000;stroke-width:0.8;" x="400.412298" xlink:href="#me943157ca8" y="307.584"/>
      </g>
     </g>
     <g id="text_7">
      <!-- 3 -->
      <g transform="translate(395.004173 327.501344)scale(0.17 -0.17)">
       <use xlink:href="#DejaVuSans-51"/>
      </g>
     </g>
    </g>
    <g id="text_8">
     <!-- Position in Radian -->
     <defs>
      <path d="M 19.671875 64.796875 
L 19.671875 37.40625 
L 32.078125 37.40625 
Q 38.96875 37.40625 42.71875 40.96875 
Q 46.484375 44.53125 46.484375 51.125 
Q 46.484375 57.671875 42.71875 61.234375 
Q 38.96875 64.796875 32.078125 64.796875 
z
M 9.8125 72.90625 
L 32.078125 72.90625 
Q 44.34375 72.90625 50.609375 67.359375 
Q 56.890625 61.8125 56.890625 51.125 
Q 56.890625 40.328125 50.609375 34.8125 
Q 44.34375 29.296875 32.078125 29.296875 
L 19.671875 29.296875 
L 19.671875 0 
L 9.8125 0 
z
" id="DejaVuSans-80"/>
      <path d="M 30.609375 48.390625 
Q 23.390625 48.390625 19.1875 42.75 
Q 14.984375 37.109375 14.984375 27.296875 
Q 14.984375 17.484375 19.15625 11.84375 
Q 23.34375 6.203125 30.609375 6.203125 
Q 37.796875 6.203125 41.984375 11.859375 
Q 46.1875 17.53125 46.1875 27.296875 
Q 46.1875 37.015625 41.984375 42.703125 
Q 37.796875 48.390625 30.609375 48.390625 
z
M 30.609375 56 
Q 42.328125 56 49.015625 48.375 
Q 55.71875 40.765625 55.71875 27.296875 
Q 55.71875 13.875 49.015625 6.21875 
Q 42.328125 -1.421875 30.609375 -1.421875 
Q 18.84375 -1.421875 12.171875 6.21875 
Q 5.515625 13.875 5.515625 27.296875 
Q 5.515625 40.765625 12.171875 48.375 
Q 18.84375 56 30.609375 56 
z
" id="DejaVuSans-111"/>
      <path d="M 44.28125 53.078125 
L 44.28125 44.578125 
Q 40.484375 46.53125 36.375 47.5 
Q 32.28125 48.484375 27.875 48.484375 
Q 21.1875 48.484375 17.84375 46.4375 
Q 14.5 44.390625 14.5 40.28125 
Q 14.5 37.15625 16.890625 35.375 
Q 19.28125 33.59375 26.515625 31.984375 
L 29.59375 31.296875 
Q 39.15625 29.25 43.1875 25.515625 
Q 47.21875 21.78125 47.21875 15.09375 
Q 47.21875 7.46875 41.1875 3.015625 
Q 35.15625 -1.421875 24.609375 -1.421875 
Q 20.21875 -1.421875 15.453125 -0.5625 
Q 10.6875 0.296875 5.421875 2 
L 5.421875 11.28125 
Q 10.40625 8.6875 15.234375 7.390625 
Q 20.0625 6.109375 24.8125 6.109375 
Q 31.15625 6.109375 34.5625 8.28125 
Q 37.984375 10.453125 37.984375 14.40625 
Q 37.984375 18.0625 35.515625 20.015625 
Q 33.0625 21.96875 24.703125 23.78125 
L 21.578125 24.515625 
Q 13.234375 26.265625 9.515625 29.90625 
Q 5.8125 33.546875 5.8125 39.890625 
Q 5.8125 47.609375 11.28125 51.796875 
Q 16.75 56 26.8125 56 
Q 31.78125 56 36.171875 55.265625 
Q 40.578125 54.546875 44.28125 53.078125 
z
" id="DejaVuSans-115"/>
      <path d="M 9.421875 54.6875 
L 18.40625 54.6875 
L 18.40625 0 
L 9.421875 0 
z
M 9.421875 75.984375 
L 18.40625 75.984375 
L 18.40625 64.59375 
L 9.421875 64.59375 
z
" id="DejaVuSans-105"/>
      <path d="M 18.3125 70.21875 
L 18.3125 54.6875 
L 36.8125 54.6875 
L 36.8125 47.703125 
L 18.3125 47.703125 
L 18.3125 18.015625 
Q 18.3125 11.328125 20.140625 9.421875 
Q 21.96875 7.515625 27.59375 7.515625 
L 36.8125 7.515625 
L 36.8125 0 
L 27.59375 0 
Q 17.1875 0 13.234375 3.875 
Q 9.28125 7.765625 9.28125 18.015625 
L 9.28125 47.703125 
L 2.6875 47.703125 
L 2.6875 54.6875 
L 9.28125 54.6875 
L 9.28125 70.21875 
z
" id="DejaVuSans-116"/>
      <path d="M 54.890625 33.015625 
L 54.890625 0 
L 45.90625 0 
L 45.90625 32.71875 
Q 45.90625 40.484375 42.875 44.328125 
Q 39.84375 48.1875 33.796875 48.1875 
Q 26.515625 48.1875 22.3125 43.546875 
Q 18.109375 38.921875 18.109375 30.90625 
L 18.109375 0 
L 9.078125 0 
L 9.078125 54.6875 
L 18.109375 54.6875 
L 18.109375 46.1875 
Q 21.34375 51.125 25.703125 53.5625 
Q 30.078125 56 35.796875 56 
Q 45.21875 56 50.046875 50.171875 
Q 54.890625 44.34375 54.890625 33.015625 
z
" id="DejaVuSans-110"/>
      <path id="DejaVuSans-32"/>
      <path d="M 44.390625 34.1875 
Q 47.5625 33.109375 50.5625 29.59375 
Q 53.5625 26.078125 56.59375 19.921875 
L 66.609375 0 
L 56 0 
L 46.6875 18.703125 
Q 43.0625 26.03125 39.671875 28.421875 
Q 36.28125 30.8125 30.421875 30.8125 
L 19.671875 30.8125 
L 19.671875 0 
L 9.8125 0 
L 9.8125 72.90625 
L 32.078125 72.90625 
Q 44.578125 72.90625 50.734375 67.671875 
Q 56.890625 62.453125 56.890625 51.90625 
Q 56.890625 45.015625 53.6875 40.46875 
Q 50.484375 35.9375 44.390625 34.1875 
z
M 19.671875 64.796875 
L 19.671875 38.921875 
L 32.078125 38.921875 
Q 39.203125 38.921875 42.84375 42.21875 
Q 46.484375 45.515625 46.484375 51.90625 
Q 46.484375 58.296875 42.84375 61.546875 
Q 39.203125 64.796875 32.078125 64.796875 
z
" id="DejaVuSans-82"/>
      <path d="M 34.28125 27.484375 
Q 23.390625 27.484375 19.1875 25 
Q 14.984375 22.515625 14.984375 16.5 
Q 14.984375 11.71875 18.140625 8.90625 
Q 21.296875 6.109375 26.703125 6.109375 
Q 34.1875 6.109375 38.703125 11.40625 
Q 43.21875 16.703125 43.21875 25.484375 
L 43.21875 27.484375 
z
M 52.203125 31.203125 
L 52.203125 0 
L 43.21875 0 
L 43.21875 8.296875 
Q 40.140625 3.328125 35.546875 0.953125 
Q 30.953125 -1.421875 24.3125 -1.421875 
Q 15.921875 -1.421875 10.953125 3.296875 
Q 6 8.015625 6 15.921875 
Q 6 25.140625 12.171875 29.828125 
Q 18.359375 34.515625 30.609375 34.515625 
L 43.21875 34.515625 
L 43.21875 35.40625 
Q 43.21875 41.609375 39.140625 45 
Q 35.0625 48.390625 27.6875 48.390625 
Q 23 48.390625 18.546875 47.265625 
Q 14.109375 46.140625 10.015625 43.890625 
L 10.015625 52.203125 
Q 14.9375 54.109375 19.578125 55.046875 
Q 24.21875 56 28.609375 56 
Q 40.484375 56 46.34375 49.84375 
Q 52.203125 43.703125 52.203125 31.203125 
z
" id="DejaVuSans-97"/>
      <path d="M 45.40625 46.390625 
L 45.40625 75.984375 
L 54.390625 75.984375 
L 54.390625 0 
L 45.40625 0 
L 45.40625 8.203125 
Q 42.578125 3.328125 38.25 0.953125 
Q 33.9375 -1.421875 27.875 -1.421875 
Q 17.96875 -1.421875 11.734375 6.484375 
Q 5.515625 14.40625 5.515625 27.296875 
Q 5.515625 40.1875 11.734375 48.09375 
Q 17.96875 56 27.875 56 
Q 33.9375 56 38.25 53.625 
Q 42.578125 51.265625 45.40625 46.390625 
z
M 14.796875 27.296875 
Q 14.796875 17.390625 18.875 11.75 
Q 22.953125 6.109375 30.078125 6.109375 
Q 37.203125 6.109375 41.296875 11.75 
Q 45.40625 17.390625 45.40625 27.296875 
Q 45.40625 37.203125 41.296875 42.84375 
Q 37.203125 48.484375 30.078125 48.484375 
Q 22.953125 48.484375 18.875 42.84375 
Q 14.796875 37.203125 14.796875 27.296875 
z
" id="DejaVuSans-100"/>
     </defs>
     <g transform="translate(102.024844 357.832125)scale(0.3 -0.3)">
      <use xlink:href="#DejaVuSans-80"/>
      <use x="60.255859" xlink:href="#DejaVuSans-111"/>
      <use x="121.4375" xlink:href="#DejaVuSans-115"/>
      <use x="173.537109" xlink:href="#DejaVuSans-105"/>
      <use x="201.320312" xlink:href="#DejaVuSans-116"/>
      <use x="240.529297" xlink:href="#DejaVuSans-105"/>
      <use x="268.3125" xlink:href="#DejaVuSans-111"/>
      <use x="329.494141" xlink:href="#DejaVuSans-110"/>
      <use x="392.873047" xlink:href="#DejaVuSans-32"/>
      <use x="424.660156" xlink:href="#DejaVuSans-105"/>
      <use x="452.443359" xlink:href="#DejaVuSans-110"/>
      <use x="515.822266" xlink:href="#DejaVuSans-32"/>
      <use x="547.609375" xlink:href="#DejaVuSans-82"/>
      <use x="617.060547" xlink:href="#DejaVuSans-97"/>
      <use x="678.339844" xlink:href="#DejaVuSans-100"/>
      <use x="741.816406" xlink:href="#DejaVuSans-105"/>
      <use x="769.599609" xlink:href="#DejaVuSans-97"/>
      <use x="830.878906" xlink:href="#DejaVuSans-110"/>
     </g>
    </g>
   </g>
   <g id="matplotlib.axis_2">
    <g id="ytick_1">
     <g id="line2d_8">
      <defs>
       <path d="M 0 0 
L -3.5 0 
" id="m8dc0a19faf" style="stroke:#000000;stroke-width:0.8;"/>
      </defs>
      <g>
       <use style="stroke:#000000;stroke-width:0.8;" x="57.6" xlink:href="#m8dc0a19faf" y="307.584"/>
      </g>
     </g>
     <g id="text_9">
      <!-- 0.00 -->
      <defs>
       <path d="M 10.6875 12.40625 
L 21 12.40625 
L 21 0 
L 10.6875 0 
z
" id="DejaVuSans-46"/>
      </defs>
      <g transform="translate(12.748438 314.042672)scale(0.17 -0.17)">
       <use xlink:href="#DejaVuSans-48"/>
       <use x="63.623047" xlink:href="#DejaVuSans-46"/>
       <use x="95.410156" xlink:href="#DejaVuSans-48"/>
       <use x="159.033203" xlink:href="#DejaVuSans-48"/>
      </g>
     </g>
    </g>
    <g id="ytick_2">
     <g id="line2d_9">
      <g>
       <use style="stroke:#000000;stroke-width:0.8;" x="57.6" xlink:href="#m8dc0a19faf" y="261.114308"/>
      </g>
     </g>
     <g id="text_10">
      <!-- 0.25 -->
      <defs>
       <path d="M 10.796875 72.90625 
L 49.515625 72.90625 
L 49.515625 64.59375 
L 19.828125 64.59375 
L 19.828125 46.734375 
Q 21.96875 47.46875 24.109375 47.828125 
Q 26.265625 48.1875 28.421875 48.1875 
Q 40.625 48.1875 47.75 41.5 
Q 54.890625 34.8125 54.890625 23.390625 
Q 54.890625 11.625 47.5625 5.09375 
Q 40.234375 -1.421875 26.90625 -1.421875 
Q 22.3125 -1.421875 17.546875 -0.640625 
Q 12.796875 0.140625 7.71875 1.703125 
L 7.71875 11.625 
Q 12.109375 9.234375 16.796875 8.0625 
Q 21.484375 6.890625 26.703125 6.890625 
Q 35.15625 6.890625 40.078125 11.328125 
Q 45.015625 15.765625 45.015625 23.390625 
Q 45.015625 31 40.078125 35.4375 
Q 35.15625 39.890625 26.703125 39.890625 
Q 22.75 39.890625 18.8125 39.015625 
Q 14.890625 38.140625 10.796875 36.28125 
z
" id="DejaVuSans-53"/>
      </defs>
      <g transform="translate(12.748438 267.57298)scale(0.17 -0.17)">
       <use xlink:href="#DejaVuSans-48"/>
       <use x="63.623047" xlink:href="#DejaVuSans-46"/>
       <use x="95.410156" xlink:href="#DejaVuSans-50"/>
       <use x="159.033203" xlink:href="#DejaVuSans-53"/>
      </g>
     </g>
    </g>
    <g id="ytick_3">
     <g id="line2d_10">
      <g>
       <use style="stroke:#000000;stroke-width:0.8;" x="57.6" xlink:href="#m8dc0a19faf" y="214.644616"/>
      </g>
     </g>
     <g id="text_11">
      <!-- 0.50 -->
      <g transform="translate(12.748438 221.103288)scale(0.17 -0.17)">
       <use xlink:href="#DejaVuSans-48"/>
       <use x="63.623047" xlink:href="#DejaVuSans-46"/>
       <use x="95.410156" xlink:href="#DejaVuSans-53"/>
       <use x="159.033203" xlink:href="#DejaVuSans-48"/>
      </g>
     </g>
    </g>
    <g id="ytick_4">
     <g id="line2d_11">
      <g>
       <use style="stroke:#000000;stroke-width:0.8;" x="57.6" xlink:href="#m8dc0a19faf" y="168.174924"/>
      </g>
     </g>
     <g id="text_12">
      <!-- 0.75 -->
      <defs>
       <path d="M 8.203125 72.90625 
L 55.078125 72.90625 
L 55.078125 68.703125 
L 28.609375 0 
L 18.3125 0 
L 43.21875 64.59375 
L 8.203125 64.59375 
z
" id="DejaVuSans-55"/>
      </defs>
      <g transform="translate(12.748438 174.633596)scale(0.17 -0.17)">
       <use xlink:href="#DejaVuSans-48"/>
       <use x="63.623047" xlink:href="#DejaVuSans-46"/>
       <use x="95.410156" xlink:href="#DejaVuSans-55"/>
       <use x="159.033203" xlink:href="#DejaVuSans-53"/>
      </g>
     </g>
    </g>
    <g id="ytick_5">
     <g id="line2d_12">
      <g>
       <use style="stroke:#000000;stroke-width:0.8;" x="57.6" xlink:href="#m8dc0a19faf" y="121.705232"/>
      </g>
     </g>
     <g id="text_13">
      <!-- 1.00 -->
      <g transform="translate(12.748438 128.163904)scale(0.17 -0.17)">
       <use xlink:href="#DejaVuSans-49"/>
       <use x="63.623047" xlink:href="#DejaVuSans-46"/>
       <use x="95.410156" xlink:href="#DejaVuSans-48"/>
       <use x="159.033203" xlink:href="#DejaVuSans-48"/>
      </g>
     </g>
    </g>
    <g id="ytick_6">
     <g id="line2d_13">
      <g>
       <use style="stroke:#000000;stroke-width:0.8;" x="57.6" xlink:href="#m8dc0a19faf" y="75.235541"/>
      </g>
     </g>
     <g id="text_14">
      <!-- 1.25 -->
      <g transform="translate(12.748438 81.694212)scale(0.17 -0.17)">
       <use xlink:href="#DejaVuSans-49"/>
       <use x="63.623047" xlink:href="#DejaVuSans-46"/>
       <use x="95.410156" xlink:href="#DejaVuSans-50"/>
       <use x="159.033203" xlink:href="#DejaVuSans-53"/>
      </g>
     </g>
    </g>
    <g id="text_15">
     <!-- Density -->
     <defs>
      <path d="M 19.671875 64.796875 
L 19.671875 8.109375 
L 31.59375 8.109375 
Q 46.6875 8.109375 53.6875 14.9375 
Q 60.6875 21.78125 60.6875 36.53125 
Q 60.6875 51.171875 53.6875 57.984375 
Q 46.6875 64.796875 31.59375 64.796875 
z
M 9.8125 72.90625 
L 30.078125 72.90625 
Q 51.265625 72.90625 61.171875 64.09375 
Q 71.09375 55.28125 71.09375 36.53125 
Q 71.09375 17.671875 61.125 8.828125 
Q 51.171875 0 30.078125 0 
L 9.8125 0 
z
" id="DejaVuSans-68"/>
      <path d="M 56.203125 29.59375 
L 56.203125 25.203125 
L 14.890625 25.203125 
Q 15.484375 15.921875 20.484375 11.0625 
Q 25.484375 6.203125 34.421875 6.203125 
Q 39.59375 6.203125 44.453125 7.46875 
Q 49.3125 8.734375 54.109375 11.28125 
L 54.109375 2.78125 
Q 49.265625 0.734375 44.1875 -0.34375 
Q 39.109375 -1.421875 33.890625 -1.421875 
Q 20.796875 -1.421875 13.15625 6.1875 
Q 5.515625 13.8125 5.515625 26.8125 
Q 5.515625 40.234375 12.765625 48.109375 
Q 20.015625 56 32.328125 56 
Q 43.359375 56 49.78125 48.890625 
Q 56.203125 41.796875 56.203125 29.59375 
z
M 47.21875 32.234375 
Q 47.125 39.59375 43.09375 43.984375 
Q 39.0625 48.390625 32.421875 48.390625 
Q 24.90625 48.390625 20.390625 44.140625 
Q 15.875 39.890625 15.1875 32.171875 
z
" id="DejaVuSans-101"/>
      <path d="M 32.171875 -5.078125 
Q 28.375 -14.84375 24.75 -17.8125 
Q 21.140625 -20.796875 15.09375 -20.796875 
L 7.90625 -20.796875 
L 7.90625 -13.28125 
L 13.1875 -13.28125 
Q 16.890625 -13.28125 18.9375 -11.515625 
Q 21 -9.765625 23.484375 -3.21875 
L 25.09375 0.875 
L 2.984375 54.6875 
L 12.5 54.6875 
L 29.59375 11.921875 
L 46.6875 54.6875 
L 56.203125 54.6875 
z
" id="DejaVuSans-121"/>
     </defs>
     <g transform="translate(2.509375 231.553781)rotate(-90)scale(0.3 -0.3)">
      <use xlink:href="#DejaVuSans-68"/>
      <use x="77.001953" xlink:href="#DejaVuSans-101"/>
      <use x="138.525391" xlink:href="#DejaVuSans-110"/>
      <use x="201.904297" xlink:href="#DejaVuSans-115"/>
      <use x="254.003906" xlink:href="#DejaVuSans-105"/>
      <use x="281.787109" xlink:href="#DejaVuSans-116"/>
      <use x="320.996094" xlink:href="#DejaVuSans-121"/>
     </g>
    </g>
   </g>
   <g id="line2d_14">
    <path clip-path="url(#p82f02d550d)" d="M 92.484659 304.181978 
L 92.700608 304.175926 
L 92.956548 304.445839 
L 93.612394 305.190883 
L 94.092281 305.297106 
L 94.812112 305.264501 
L 95.20402 305.007011 
L 96.26777 304.103992 
L 96.539706 304.376374 
L 97.491482 305.528371 
L 98.595223 305.800499 
L 98.931144 305.665672 
L 99.874922 305.122315 
L 100.210843 305.352841 
L 100.986661 305.948577 
L 101.266595 305.854431 
L 101.642507 305.441244 
L 102.122394 304.997333 
L 102.362338 305.061369 
L 102.682263 305.44072 
L 103.234133 306.054987 
L 103.562056 306.078602 
L 104.297883 305.809987 
L 104.633804 305.453251 
L 105.769537 303.949484 
L 106.001483 304.125979 
L 106.337404 304.718451 
L 107.065233 306.016274 
L 107.433146 306.223033 
L 107.721079 306.149719 
L 108.017009 305.816374 
L 108.952789 304.558341 
L 109.336699 304.591072 
L 109.936558 304.601125 
L 110.560411 304.646555 
L 111.656154 305.015514 
L 112.120045 305.286252 
L 112.319998 305.122087 
L 112.599932 304.528 
L 113.175797 303.310179 
L 113.407742 303.267041 
L 113.75966 303.505657 
L 114.471492 303.919681 
L 115.079349 304.13596 
L 115.415271 303.98642 
L 116.151098 303.580504 
L 116.391041 303.769717 
L 116.702968 304.360839 
L 117.590759 306.21615 
L 117.862695 306.272303 
L 119.33435 305.864072 
L 119.662273 305.190684 
L 120.374105 303.688639 
L 120.662038 303.571663 
L 121.045947 303.708063 
L 121.821765 304.215144 
L 122.26966 304.905373 
L 122.709556 305.445791 
L 122.917508 305.41042 
L 123.157451 305.095771 
L 123.621342 304.009856 
L 124.157216 302.96176 
L 124.429152 302.831267 
L 124.669096 302.978482 
L 125.580882 303.778071 
L 125.820825 303.546199 
L 126.164744 302.841948 
L 126.964557 301.128762 
L 127.244491 301.00499 
L 127.508429 301.134252 
L 127.900337 301.622207 
L 128.764134 302.735767 
L 129.060064 302.772954 
L 129.339998 302.574975 
L 129.691916 302.01432 
L 130.659688 300.278344 
L 130.891634 300.322214 
L 131.20356 300.653829 
L 131.875403 301.388656 
L 132.09935 301.311211 
L 132.371286 300.926183 
L 132.995139 300.001472 
L 133.203091 300.067468 
L 133.946916 300.55464 
L 134.170863 300.125096 
L 135.018664 298.179368 
L 135.186624 298.31465 
L 135.442564 298.879939 
L 136.634284 301.977096 
L 136.850233 301.963904 
L 137.074181 301.682654 
L 137.394106 300.852426 
L 138.337884 298.201639 
L 138.681803 297.869048 
L 138.90575 297.917528 
L 139.153692 298.251628 
L 140.105469 299.817061 
L 140.369406 299.730439 
L 141.257198 299.262643 
L 141.585121 299.465145 
L 142.336944 300.014332 
L 142.664867 299.879139 
L 143.256728 299.642688 
L 143.664632 299.434002 
L 144.224501 299.108365 
L 144.624407 299.270004 
L 144.888345 299.234846 
L 145.216268 298.89528 
L 145.536192 298.694129 
L 145.744143 298.835008 
L 146.352001 299.393205 
L 146.543956 299.156052 
L 146.95186 298.158327 
L 147.295779 297.61235 
L 147.463739 297.651766 
L 147.655694 297.989137 
L 147.959623 299.066551 
L 148.631465 301.48476 
L 148.831418 301.586401 
L 148.999379 301.385156 
L 149.255318 300.641794 
L 149.727207 298.423913 
L 150.319068 295.978163 
L 150.662988 295.38166 
L 151.070892 295.136145 
L 152.710506 294.521092 
L 152.958448 294.363123 
L 153.190394 293.90573 
L 153.510318 292.690578 
L 154.318129 289.43179 
L 154.494087 289.37251 
L 154.638053 289.617411 
L 154.862001 290.530144 
L 155.301897 293.525501 
L 155.765788 296.065031 
L 156.037725 296.573649 
L 156.237678 296.577713 
L 156.533608 296.297018 
L 157.173458 295.350375 
L 157.525375 294.343326 
L 158.22921 292.25014 
L 158.501146 292.09951 
L 159.005027 291.942012 
L 159.316954 291.491281 
L 159.980798 289.987265 
L 160.564661 289.023807 
L 160.988561 288.115562 
L 161.524435 287.031179 
L 161.756381 286.980169 
L 162.036315 287.200921 
L 163.41999 288.509341 
L 163.58795 288.407247 
L 163.787903 287.965863 
L 164.155817 286.458853 
L 164.579717 285.052046 
L 164.77967 284.945516 
L 164.963627 285.14782 
L 165.595479 286.007357 
L 165.779435 285.820971 
L 166.61124 284.67164 
L 166.843185 284.933616 
L 167.251089 285.798194 
L 168.378824 288.392255 
L 168.562781 288.256755 
L 169.218627 287.467642 
L 169.258618 287.507257 
L 169.450573 287.920603 
L 169.850479 289.505869 
L 170.194398 290.434655 
L 170.346362 290.423026 
L 170.506325 290.087376 
L 170.770263 288.910876 
L 171.778026 283.873195 
L 171.985977 283.785932 
L 172.385883 283.772497 
L 172.56984 283.353528 
L 172.849774 282.031285 
L 173.425639 279.364271 
L 173.63359 279.207259 
L 173.865535 279.373299 
L 174.153467 279.483751 
L 174.369417 279.281853 
L 174.713336 278.993554 
L 174.849304 279.176664 
L 175.049257 279.926848 
L 175.457161 282.618122 
L 175.849069 284.527449 
L 176.065018 284.760711 
L 176.216983 284.615209 
L 176.496917 283.938725 
L 177.112772 282.482234 
L 177.488684 282.191553 
L 177.832603 281.859822 
L 178.288496 280.980019 
L 178.592424 280.654233 
L 178.768383 280.750619 
L 179.064313 281.263101 
L 179.408233 281.693998 
L 179.576193 281.607486 
L 179.800141 281.169436 
L 180.376005 279.337808 
L 180.871889 278.165559 
L 181.167819 277.929344 
L 181.391767 278.012359 
L 181.679699 278.401741 
L 182.591485 279.803343 
L 182.82343 279.745546 
L 183.087368 279.404575 
L 183.88718 278.199551 
L 184.14312 278.281646 
L 184.623007 278.449256 
L 184.82296 278.246296 
L 185.054906 277.632139 
L 185.350836 276.114382 
L 186.310611 270.552991 
L 186.52656 270.459663 
L 186.82249 270.379319 
L 187.022443 269.985966 
L 187.88624 267.869104 
L 188.294145 267.739512 
L 188.886005 267.068362 
L 188.941992 267.131975 
L 189.133947 267.608106 
L 189.741804 269.312586 
L 189.749802 269.309214 
L 189.869774 269.122801 
L 190.053731 268.320648 
L 190.349662 265.822086 
L 191.309436 256.908054 
L 191.493393 256.651131 
L 191.501391 256.654213 
L 191.621363 256.835437 
L 191.829314 257.668671 
L 192.509154 260.700996 
L 192.61313 260.568939 
L 192.78109 259.879431 
L 193.117011 257.301925 
L 193.668882 253.475701 
L 194.076786 252.222022 
L 194.580667 250.611678 
L 195.124539 249.027312 
L 195.356485 248.87474 
L 195.508449 249.048786 
L 195.708402 249.704389 
L 196.004333 251.601991 
L 196.700169 256.228859 
L 196.980103 256.694163 
L 197.29203 257.163996 
L 197.603957 258.222723 
L 198.22781 260.30668 
L 198.563731 260.743519 
L 198.771682 260.727935 
L 198.971635 260.439775 
L 199.259568 259.543472 
L 199.867425 256.681181 
L 200.619248 253.582459 
L 201.619013 250.469134 
L 201.994925 250.112298 
L 202.210874 249.738766 
L 202.426823 248.805384 
L 202.706758 246.400244 
L 203.570555 238.072294 
L 203.650536 238.18643 
L 203.794502 238.918908 
L 204.082434 241.849712 
L 204.674295 247.672102 
L 204.842256 248.022014 
L 204.858252 248.013302 
L 204.962228 247.775064 
L 205.146184 246.620792 
L 205.530094 242.350273 
L 205.898008 239.313762 
L 206.009981 239.14051 
L 206.049972 239.178094 
L 206.169944 239.591901 
L 206.393891 241.359092 
L 207.201701 248.387823 
L 207.361664 248.575121 
L 207.37766 248.565809 
L 207.497632 248.336155 
L 207.697585 247.347181 
L 208.009512 244.468485 
L 209.233224 231.776782 
L 209.441175 231.434206 
L 209.553149 231.583158 
L 209.7611 232.361718 
L 210.280978 234.362787 
L 210.40095 234.314173 
L 210.56891 233.886242 
L 211.392717 231.356141 
L 211.968581 230.721653 
L 212.232519 229.803706 
L 212.608431 227.543339 
L 213.152303 224.495305 
L 213.288271 224.370493 
L 213.312265 224.388444 
L 213.432237 224.668068 
L 213.63219 225.838171 
L 213.952115 229.292492 
L 214.943882 240.939982 
L 215.071852 241.132745 
L 215.103844 241.108706 
L 215.223816 240.768488 
L 215.431767 239.345832 
L 215.999634 233.203651 
L 216.367547 230.712155 
L 216.671476 229.980591 
L 216.991401 229.269756 
L 217.279333 227.891922 
L 218.551034 220.802467 
L 218.679004 220.840998 
L 218.830969 221.24335 
L 219.110903 222.792268 
L 219.518807 224.726288 
L 219.606786 224.739885 
L 219.638779 224.696905 
L 219.774747 224.230607 
L 220.022689 222.387117 
L 220.742519 216.686783 
L 220.862491 216.566534 
L 220.902482 216.598423 
L 221.03845 216.952855 
L 221.318384 218.496855 
L 221.726288 220.412671 
L 221.84626 220.478316 
L 221.878253 220.448953 
L 222.022219 220.091486 
L 222.326147 218.551159 
L 222.718055 216.950078 
L 222.870019 216.873177 
L 222.886016 216.884413 
L 223.045978 217.169167 
L 223.437886 218.527892 
L 223.749813 219.2028 
L 223.877783 219.142239 
L 224.029747 218.71302 
L 224.253694 217.271732 
L 224.61361 213.18625 
L 225.16548 207.361053 
L 225.381429 206.806272 
L 225.493403 206.907596 
L 225.757341 207.627796 
L 226.005283 207.988739 
L 226.125255 207.814426 
L 226.325208 206.990788 
L 226.853083 204.696857 
L 226.949061 204.818264 
L 227.117021 205.549978 
L 227.596909 208.065228 
L 227.636899 208.026049 
L 227.740875 207.587155 
L 227.916833 205.643285 
L 228.22876 199.101717 
L 228.74064 189.198162 
L 228.900602 188.55468 
L 228.924597 188.575267 
L 229.020574 188.925552 
L 229.228525 190.767986 
L 229.836382 196.342784 
L 230.092322 196.942949 
L 230.276279 196.944019 
L 230.48423 196.673341 
L 230.684183 196.016516 
L 230.876138 194.46439 
L 231.068093 190.810135 
L 231.284042 181.764332 
L 231.539982 160.205132 
L 231.939888 102.991585 
L 232.347792 56.216207 
L 232.44377 54.144 
L 232.491758 54.73726 
L 232.603732 60.244076 
L 232.819681 84.40095 
L 233.627492 184.202 
L 233.907426 193.21856 
L 234.115377 194.732458 
L 234.171364 194.738209 
L 234.211354 194.676921 
L 234.379315 194.050201 
L 235.243112 189.34684 
L 235.643018 185.048076 
L 235.978939 182.382295 
L 236.026928 182.354262 
L 236.066918 182.426955 
L 236.178892 183.137564 
L 236.370847 186.188167 
L 236.69877 195.775891 
L 237.490584 219.287215 
L 237.866495 224.480293 
L 238.090443 225.389525 
L 238.170424 225.295304 
L 238.31439 224.599501 
L 238.578328 221.932629 
L 239.290161 214.432499 
L 239.434127 214.176373 
L 239.46612 214.200151 
L 239.578093 214.511111 
L 239.778046 215.875463 
L 240.169954 220.483299 
L 240.793808 227.182742 
L 241.137727 228.840907 
L 241.345678 229.0742 
L 241.473648 228.922716 
L 241.673601 228.239044 
L 241.969531 226.294003 
L 242.409428 221.696001 
L 243.385199 211.102098 
L 244.121026 204.417242 
L 244.52893 201.652653 
L 244.82486 200.935964 
L 245.216768 200.587951 
L 245.408723 200.634118 
L 245.568685 200.967461 
L 245.776637 202.020376 
L 246.064569 204.851723 
L 246.592445 212.873926 
L 247.08033 218.77253 
L 247.416251 220.475905 
L 247.944127 222.705258 
L 248.344033 224.258368 
L 248.448009 224.249836 
L 248.464005 224.22855 
L 248.607971 223.812115 
L 249.247821 221.153172 
L 249.327802 221.231439 
L 249.503761 221.760308 
L 249.935659 223.040431 
L 250.047633 222.933296 
L 250.23159 222.314449 
L 250.91143 219.740605 
L 251.279343 218.992712 
L 251.543281 217.639304 
L 252.167135 214.258191 
L 252.27111 214.319251 
L 252.415077 214.82513 
L 252.671016 216.728369 
L 253.46283 223.101558 
L 253.5908 223.217103 
L 253.622793 223.190077 
L 253.758761 222.843467 
L 254.022699 221.369419 
L 254.534579 218.629424 
L 254.678545 218.523554 
L 254.702539 218.541674 
L 254.846505 218.845509 
L 255.126439 220.114947 
L 255.654315 222.359218 
L 255.782285 222.415529 
L 255.80628 222.392067 
L 255.93425 222.062292 
L 256.134203 220.80225 
L 256.478122 216.85089 
L 256.942013 212.176163 
L 257.077981 211.896745 
L 257.109973 211.919299 
L 257.221947 212.244809 
L 257.437896 213.740242 
L 259.181487 228.29529 
L 259.301458 228.239097 
L 259.469419 227.768756 
L 260.589156 223.852467 
L 260.853094 223.722884 
L 261.077041 223.860334 
L 261.364973 224.344013 
L 262.132793 226.029728 
L 262.196778 225.975199 
L 262.372737 225.568767 
L 262.900613 224.149754 
L 262.916609 224.157912 
L 263.036581 224.370386 
L 263.25253 225.342365 
L 263.972361 228.893741 
L 264.468244 230.529059 
L 265.100096 232.896344 
L 265.420021 233.165129 
L 265.619974 233.485866 
L 265.867915 234.418008 
L 266.467774 236.798924 
L 266.587746 236.731486 
L 266.755707 236.265407 
L 267.12362 234.385991 
L 267.731477 231.5775 
L 267.979419 231.217935 
L 268.099391 231.334304 
L 268.27535 231.910184 
L 268.547286 233.726323 
L 269.459071 240.536004 
L 269.627032 240.598191 
L 270.082925 240.341258 
L 270.114917 240.396624 
L 270.290876 241.009996 
L 270.586806 243.064395 
L 271.186665 247.133924 
L 271.330632 247.31565 
L 271.362624 247.294285 
L 271.482596 247.0063 
L 271.690547 245.768366 
L 272.466365 240.321029 
L 272.482361 240.326516 
L 272.586336 240.508916 
L 272.810284 241.512898 
L 273.266177 243.395395 
L 273.866036 244.702314 
L 274.153968 246.877448 
L 274.753827 251.41761 
L 274.833808 251.477193 
L 274.873799 251.429981 
L 274.993771 250.964724 
L 275.193724 249.119735 
L 275.577634 242.990246 
L 276.001534 237.531124 
L 276.129504 237.191107 
L 276.161496 237.225659 
L 276.265472 237.665123 
L 276.457427 239.662556 
L 276.91332 247.560152 
L 277.33722 253.044816 
L 277.585162 254.059064 
L 277.697135 254.065162 
L 277.713132 254.048746 
L 277.88909 253.670832 
L 278.640914 251.822352 
L 278.968837 251.627254 
L 279.216778 251.723277 
L 279.824636 252.100327 
L 280.008592 251.737283 
L 280.416496 250.232495 
L 280.728423 249.542243 
L 280.968367 249.487062 
L 281.200312 249.387781 
L 281.392267 248.98659 
L 281.744184 247.574923 
L 282.168085 246.221425 
L 282.432023 245.995704 
L 282.663968 246.072056 
L 282.863921 246.39235 
L 283.079871 247.248972 
L 283.343809 249.383138 
L 284.471544 260.164384 
L 284.663498 260.29167 
L 284.839457 260.110665 
L 285.119391 259.430341 
L 285.895209 257.379098 
L 286.039175 257.444529 
L 286.223132 257.849448 
L 286.527061 259.189254 
L 287.742775 265.151961 
L 288.246656 266.777021 
L 288.470604 266.927583 
L 288.670557 266.76507 
L 289.110453 266.379356 
L 289.270416 266.571084 
L 289.494363 267.291926 
L 289.886271 269.497861 
L 290.430143 272.21597 
L 290.654091 272.48767 
L 290.790059 272.356444 
L 291.014006 271.737098 
L 292.013771 268.471188 
L 292.165735 268.582177 
L 292.405679 269.117126 
L 292.981544 270.42869 
L 293.25348 270.508373 
L 293.477427 270.633196 
L 293.661384 271.062708 
L 293.909326 272.322605 
L 294.48519 276.894587 
L 295.109044 280.801075 
L 295.700905 283.398421 
L 295.948846 283.739289 
L 296.100811 283.640854 
L 296.308762 283.150401 
L 296.660679 281.627953 
L 297.732427 276.707092 
L 298.612221 273.716752 
L 298.732192 273.790285 
L 298.892155 274.236244 
L 299.156093 275.764486 
L 300.035886 281.365748 
L 300.299824 281.694489 
L 300.763715 281.777731 
L 301.107634 281.721518 
L 301.355576 281.406763 
L 301.659505 280.606761 
L 302.01942 278.969549 
L 302.867221 274.779668 
L 303.043179 274.741792 
L 303.283123 275.017877 
L 303.579053 275.236188 
L 303.747014 275.088515 
L 304.002954 274.488696 
L 304.490839 273.391852 
L 304.626807 273.453662 
L 304.794768 273.857642 
L 305.098696 275.309714 
L 305.666563 277.876021 
L 305.962493 278.322827 
L 306.242428 278.385857 
L 306.546356 278.221464 
L 307.322174 277.678283 
L 307.514129 277.94111 
L 307.76207 278.724937 
L 308.137982 280.812251 
L 308.689852 283.657054 
L 308.857813 283.801781 
L 308.873809 283.791482 
L 309.009777 283.536019 
L 309.233725 282.508591 
L 309.585642 279.662487 
L 310.617399 270.32315 
L 310.633396 270.328858 
L 310.729373 270.539718 
L 310.897334 271.610126 
L 311.217259 275.440801 
L 311.785125 281.804579 
L 312.017071 282.5053 
L 312.129044 282.431201 
L 312.313001 281.908721 
L 312.952851 279.923306 
L 313.120811 279.942502 
L 313.312766 280.255683 
L 313.640689 281.307543 
L 314.472494 284.108009 
L 314.752428 284.330916 
L 315.872165 284.438052 
L 316.056121 284.071443 
L 316.304063 282.987791 
L 317.255839 278.170874 
L 317.415802 278.217237 
L 317.655746 278.623649 
L 318.079646 279.828487 
L 318.455558 281.643219 
L 319.239373 285.602748 
L 319.559298 286.132117 
L 319.815238 286.199926 
L 320.055182 286.0233 
L 320.463086 285.363108 
L 320.783011 285.03504 
L 320.942973 285.139471 
L 321.142926 285.611686 
L 321.494843 287.162277 
L 321.910746 288.667801 
L 322.070708 288.722813 
L 322.078706 288.716361 
L 322.238669 288.419966 
L 322.566592 287.18089 
L 322.990492 285.894627 
L 323.206441 285.78285 
L 323.406394 285.95988 
L 323.742315 286.617686 
L 324.166216 287.958643 
L 325.101996 291.124884 
L 325.885812 292.798082 
L 326.02178 292.678305 
L 326.221733 292.11073 
L 326.901573 289.807443 
L 326.925567 289.820259 
L 327.053537 290.058053 
L 327.277484 291.072539 
L 327.941328 294.295525 
L 328.0613 294.261585 
L 328.213265 293.850397 
L 328.477203 292.333241 
L 329.269016 287.399012 
L 329.388988 287.344109 
L 329.412983 287.365332 
L 329.556949 287.703314 
L 329.836883 289.109229 
L 330.356761 291.531708 
L 330.628697 291.886629 
L 331.052597 292.257856 
L 331.348528 293.018695 
L 331.964383 294.635176 
L 332.156338 294.658754 
L 332.380285 294.397711 
L 332.836178 293.88324 
L 333.012137 293.993962 
L 333.268077 294.495396 
L 333.939919 295.900684 
L 334.123876 295.872019 
L 334.355821 295.545283 
L 334.851705 294.840861 
L 335.019665 294.939617 
L 335.275605 295.432596 
L 335.755492 296.307595 
L 335.947447 296.285721 
L 336.187391 295.961262 
L 336.723265 295.216034 
L 336.907222 295.302574 
L 337.163161 295.739883 
L 337.882992 297.051866 
L 338.642814 297.979697 
L 339.258669 299.423426 
L 339.754552 300.320896 
L 340.026489 300.435849 
L 340.36241 300.282057 
L 340.634346 300.267822 
L 340.850295 300.52354 
L 341.258199 301.484468 
L 341.6821 302.220837 
L 342.113998 302.485113 
L 343.513669 303.310189 
L 344.441451 304.484126 
L 344.729383 304.300484 
L 345.209271 304.030704 
L 345.745145 303.849419 
L 346.073068 303.363952 
L 346.696921 302.442855 
L 346.944863 302.428418 
L 347.16881 302.663414 
L 347.480737 303.379659 
L 348.176573 305.055481 
L 348.368528 305.04931 
L 348.584477 304.756858 
L 349.336301 303.560687 
L 349.520258 303.70261 
L 349.792194 304.270795 
L 350.456038 305.710819 
L 350.671987 305.737991 
L 350.911931 305.498576 
L 351.495793 304.455245 
L 352.055662 303.711163 
L 352.967448 303.009496 
L 353.455333 302.796305 
L 354.351122 302.591409 
L 354.679045 302.090996 
L 355.350887 301.020259 
L 355.55084 301.074627 
L 355.862767 301.464397 
L 356.262673 301.85267 
L 356.534609 301.813765 
L 357.054487 301.701887 
L 357.646348 301.772106 
L 357.878294 301.419488 
L 358.758087 299.778165 
L 358.95804 299.993417 
L 359.365944 300.8774 
L 360.14976 302.44617 
L 360.509675 302.776248 
L 360.757617 302.734495 
L 361.077542 302.406694 
L 361.685399 301.775987 
L 361.89335 301.855905 
L 362.14929 302.242334 
L 363.63694 305.029155 
L 363.85289 304.97169 
L 364.132824 304.606499 
L 364.740681 303.805279 
L 366.364299 303.05311 
L 366.66023 303.260948 
L 367.068134 303.872009 
L 367.691987 304.733208 
L 368.10789 304.926877 
L 368.555784 304.889886 
L 369.155643 304.83994 
L 370.811254 305.506272 
L 371.691048 306.131496 
L 372.026969 306.028297 
L 372.410878 305.779272 
L 372.410878 305.779272 
" style="fill:none;stroke:#ff7f0e;stroke-linecap:square;stroke-width:1.5;"/>
   </g>
   <g id="patch_103">
    <path d="M 57.6 307.584 
L 57.6 41.472 
" style="fill:none;stroke:#000000;stroke-linecap:square;stroke-linejoin:miter;stroke-width:0.8;"/>
   </g>
   <g id="patch_104">
    <path d="M 414.72 307.584 
L 414.72 41.472 
" style="fill:none;stroke:#000000;stroke-linecap:square;stroke-linejoin:miter;stroke-width:0.8;"/>
   </g>
   <g id="patch_105">
    <path d="M 57.6 307.584 
L 414.72 307.584 
" style="fill:none;stroke:#000000;stroke-linecap:square;stroke-linejoin:miter;stroke-width:0.8;"/>
   </g>
   <g id="patch_106">
    <path d="M 57.6 41.472 
L 414.72 41.472 
" style="fill:none;stroke:#000000;stroke-linecap:square;stroke-linejoin:miter;stroke-width:0.8;"/>
   </g>
  </g>
 </g>
 <defs>
  <clipPath id="p82f02d550d">
   <rect height="266.112" width="357.12" x="57.6" y="41.472"/>
  </clipPath>
 </defs>
</svg>
