<?xml version="1.0" encoding="utf-8" standalone="no"?>
<!DOCTYPE svg PUBLIC "-//W3C//DTD SVG 1.1//EN"
  "http://www.w3.org/Graphics/SVG/1.1/DTD/svg11.dtd">
<!-- Created with matplotlib (https://matplotlib.org/) -->
<svg height="345.6pt" version="1.1" viewBox="0 0 460.8 345.6" width="460.8pt" xmlns="http://www.w3.org/2000/svg" xmlns:xlink="http://www.w3.org/1999/xlink">
 <defs>
  <style type="text/css">
*{stroke-linecap:butt;stroke-linejoin:round;}
  </style>
 </defs>
 <g id="figure_1">
  <g id="patch_1">
   <path d="M 0 345.6 
L 460.8 345.6 
L 460.8 0 
L 0 0 
z
" style="fill:#ffffff;"/>
  </g>
  <g id="axes_1">
   <g id="patch_2">
    <path d="M 57.6 307.584 
L 414.72 307.584 
L 414.72 41.472 
L 57.6 41.472 
z
" style="fill:#ffffff;"/>
   </g>
   <g id="patch_3">
    <path clip-path="url(#pa4ebe5a9c1)" d="M 111.707944 307.584 
L 114.575735 307.584 
L 114.575735 304.708335 
L 111.707944 304.708335 
z
" style="fill:#1f77b4;"/>
   </g>
   <g id="patch_4">
    <path clip-path="url(#pa4ebe5a9c1)" d="M 114.575735 307.584 
L 117.443533 307.584 
L 117.443533 300.394855 
L 114.575735 300.394855 
z
" style="fill:#1f77b4;"/>
   </g>
   <g id="patch_5">
    <path clip-path="url(#pa4ebe5a9c1)" d="M 117.443533 307.584 
L 120.311323 307.584 
L 120.311323 298.957004 
L 117.443533 298.957004 
z
" style="fill:#1f77b4;"/>
   </g>
   <g id="patch_6">
    <path clip-path="url(#pa4ebe5a9c1)" d="M 120.311323 307.584 
L 123.179114 307.584 
L 123.179114 303.270502 
L 120.311323 303.270502 
z
" style="fill:#1f77b4;"/>
   </g>
   <g id="patch_7">
    <path clip-path="url(#pa4ebe5a9c1)" d="M 123.179121 307.584 
L 126.046919 307.584 
L 126.046919 306.146171 
L 123.179121 306.146171 
z
" style="fill:#1f77b4;"/>
   </g>
   <g id="patch_8">
    <path clip-path="url(#pa4ebe5a9c1)" d="M 126.046912 307.584 
L 128.914703 307.584 
L 128.914703 306.146167 
L 126.046912 306.146167 
z
" style="fill:#1f77b4;"/>
   </g>
   <g id="patch_9">
    <path clip-path="url(#pa4ebe5a9c1)" d="M 128.914703 307.584 
L 131.7825 307.584 
L 131.7825 307.584 
L 128.914703 307.584 
z
" style="fill:#1f77b4;"/>
   </g>
   <g id="patch_10">
    <path clip-path="url(#pa4ebe5a9c1)" d="M 131.7825 307.584 
L 134.650291 307.584 
L 134.650291 307.584 
L 131.7825 307.584 
z
" style="fill:#1f77b4;"/>
   </g>
   <g id="patch_11">
    <path clip-path="url(#pa4ebe5a9c1)" d="M 134.650291 307.584 
L 137.518082 307.584 
L 137.518082 303.270502 
L 134.650291 303.270502 
z
" style="fill:#1f77b4;"/>
   </g>
   <g id="patch_12">
    <path clip-path="url(#pa4ebe5a9c1)" d="M 137.518089 307.584 
L 140.385887 307.584 
L 140.385887 304.708342 
L 137.518089 304.708342 
z
" style="fill:#1f77b4;"/>
   </g>
   <g id="patch_13">
    <path clip-path="url(#pa4ebe5a9c1)" d="M 140.38588 307.584 
L 143.25367 307.584 
L 143.25367 304.708335 
L 140.38588 304.708335 
z
" style="fill:#1f77b4;"/>
   </g>
   <g id="patch_14">
    <path clip-path="url(#pa4ebe5a9c1)" d="M 143.25367 307.584 
L 146.121461 307.584 
L 146.121461 303.270502 
L 143.25367 303.270502 
z
" style="fill:#1f77b4;"/>
   </g>
   <g id="patch_15">
    <path clip-path="url(#pa4ebe5a9c1)" d="M 146.121461 307.584 
L 148.989259 307.584 
L 148.989259 298.957026 
L 146.121461 298.957026 
z
" style="fill:#1f77b4;"/>
   </g>
   <g id="patch_16">
    <path clip-path="url(#pa4ebe5a9c1)" d="M 148.989259 307.584 
L 151.85705 307.584 
L 151.85705 296.081339 
L 148.989259 296.081339 
z
" style="fill:#1f77b4;"/>
   </g>
   <g id="patch_17">
    <path clip-path="url(#pa4ebe5a9c1)" d="M 151.85705 307.584 
L 154.724841 307.584 
L 154.724841 296.081339 
L 151.85705 296.081339 
z
" style="fill:#1f77b4;"/>
   </g>
   <g id="patch_18">
    <path clip-path="url(#pa4ebe5a9c1)" d="M 154.724848 307.584 
L 157.592645 307.584 
L 157.592645 297.519197 
L 154.724848 297.519197 
z
" style="fill:#1f77b4;"/>
   </g>
   <g id="patch_19">
    <path clip-path="url(#pa4ebe5a9c1)" d="M 157.592638 307.584 
L 160.460429 307.584 
L 160.460429 301.83267 
L 157.592638 301.83267 
z
" style="fill:#1f77b4;"/>
   </g>
   <g id="patch_20">
    <path clip-path="url(#pa4ebe5a9c1)" d="M 160.460429 307.584 
L 163.328223 307.584 
L 163.328223 297.519184 
L 160.460429 297.519184 
z
" style="fill:#1f77b4;"/>
   </g>
   <g id="patch_21">
    <path clip-path="url(#pa4ebe5a9c1)" d="M 163.328227 307.584 
L 166.196021 307.584 
L 166.196021 296.081353 
L 163.328227 296.081353 
z
" style="fill:#1f77b4;"/>
   </g>
   <g id="patch_22">
    <path clip-path="url(#pa4ebe5a9c1)" d="M 166.196018 307.584 
L 169.063808 307.584 
L 169.063808 274.51385 
L 166.196018 274.51385 
z
" style="fill:#1f77b4;"/>
   </g>
   <g id="patch_23">
    <path clip-path="url(#pa4ebe5a9c1)" d="M 169.063808 307.584 
L 171.931603 307.584 
L 171.931603 290.33003 
L 169.063808 290.33003 
z
" style="fill:#1f77b4;"/>
   </g>
   <g id="patch_24">
    <path clip-path="url(#pa4ebe5a9c1)" d="M 171.931606 307.584 
L 174.7994 307.584 
L 174.7994 287.454368 
L 171.931606 287.454368 
z
" style="fill:#1f77b4;"/>
   </g>
   <g id="patch_25">
    <path clip-path="url(#pa4ebe5a9c1)" d="M 174.799397 307.584 
L 177.667191 307.584 
L 177.667191 280.265214 
L 174.799397 280.265214 
z
" style="fill:#1f77b4;"/>
   </g>
   <g id="patch_26">
    <path clip-path="url(#pa4ebe5a9c1)" d="M 177.667191 307.584 
L 180.534982 307.584 
L 180.534982 277.389515 
L 177.667191 277.389515 
z
" style="fill:#1f77b4;"/>
   </g>
   <g id="patch_27">
    <path clip-path="url(#pa4ebe5a9c1)" d="M 180.534985 307.584 
L 183.40278 307.584 
L 183.40278 255.82209 
L 180.534985 255.82209 
z
" style="fill:#1f77b4;"/>
   </g>
   <g id="patch_28">
    <path clip-path="url(#pa4ebe5a9c1)" d="M 183.402776 307.584 
L 186.27057 307.584 
L 186.27057 270.200398 
L 183.402776 270.200398 
z
" style="fill:#1f77b4;"/>
   </g>
   <g id="patch_29">
    <path clip-path="url(#pa4ebe5a9c1)" d="M 186.27057 307.584 
L 189.138361 307.584 
L 189.138361 254.384194 
L 186.27057 254.384194 
z
" style="fill:#1f77b4;"/>
   </g>
   <g id="patch_30">
    <path clip-path="url(#pa4ebe5a9c1)" d="M 189.138365 307.584 
L 192.006159 307.584 
L 192.006159 271.638229 
L 189.138365 271.638229 
z
" style="fill:#1f77b4;"/>
   </g>
   <g id="patch_31">
    <path clip-path="url(#pa4ebe5a9c1)" d="M 192.006155 307.584 
L 194.87395 307.584 
L 194.87395 255.82209 
L 192.006155 255.82209 
z
" style="fill:#1f77b4;"/>
   </g>
   <g id="patch_32">
    <path clip-path="url(#pa4ebe5a9c1)" d="M 194.87395 307.584 
L 197.741742 307.584 
L 197.741742 258.697722 
L 194.87395 258.697722 
z
" style="fill:#1f77b4;"/>
   </g>
   <g id="patch_33">
    <path clip-path="url(#pa4ebe5a9c1)" d="M 197.741742 307.584 
L 200.609537 307.584 
L 200.609537 240.005951 
L 197.741742 240.005951 
z
" style="fill:#1f77b4;"/>
   </g>
   <g id="patch_34">
    <path clip-path="url(#pa4ebe5a9c1)" d="M 200.609538 307.584 
L 203.477331 307.584 
L 203.477331 240.005909 
L 200.609538 240.005909 
z
" style="fill:#1f77b4;"/>
   </g>
   <g id="patch_35">
    <path clip-path="url(#pa4ebe5a9c1)" d="M 203.477329 307.584 
L 206.345123 307.584 
L 206.345123 245.757274 
L 203.477329 245.757274 
z
" style="fill:#1f77b4;"/>
   </g>
   <g id="patch_36">
    <path clip-path="url(#pa4ebe5a9c1)" d="M 206.345123 307.584 
L 209.212916 307.584 
L 209.212916 234.254582 
L 206.345123 234.254582 
z
" style="fill:#1f77b4;"/>
   </g>
   <g id="patch_37">
    <path clip-path="url(#pa4ebe5a9c1)" d="M 209.212916 307.584 
L 212.080709 307.584 
L 212.080709 224.189786 
L 209.212916 224.189786 
z
" style="fill:#1f77b4;"/>
   </g>
   <g id="patch_38">
    <path clip-path="url(#pa4ebe5a9c1)" d="M 212.080709 307.584 
L 214.948502 307.584 
L 214.948502 198.308806 
L 212.080709 198.308806 
z
" style="fill:#1f77b4;"/>
   </g>
   <g id="patch_39">
    <path clip-path="url(#pa4ebe5a9c1)" d="M 214.948502 307.584 
L 217.816296 307.584 
L 217.816296 201.184486 
L 214.948502 201.184486 
z
" style="fill:#1f77b4;"/>
   </g>
   <g id="patch_40">
    <path clip-path="url(#pa4ebe5a9c1)" d="M 217.816296 307.584 
L 220.684089 307.584 
L 220.684089 188.244004 
L 217.816296 188.244004 
z
" style="fill:#1f77b4;"/>
   </g>
   <g id="patch_41">
    <path clip-path="url(#pa4ebe5a9c1)" d="M 220.684089 307.584 
L 223.551882 307.584 
L 223.551882 120.665934 
L 220.684089 120.665934 
z
" style="fill:#1f77b4;"/>
   </g>
   <g id="patch_42">
    <path clip-path="url(#pa4ebe5a9c1)" d="M 223.551882 307.584 
L 226.419675 307.584 
L 226.419675 172.427839 
L 223.551882 172.427839 
z
" style="fill:#1f77b4;"/>
   </g>
   <g id="patch_43">
    <path clip-path="url(#pa4ebe5a9c1)" d="M 226.419675 307.584 
L 229.287469 307.584 
L 229.287469 217.00063 
L 226.419675 217.00063 
z
" style="fill:#1f77b4;"/>
   </g>
   <g id="patch_44">
    <path clip-path="url(#pa4ebe5a9c1)" d="M 229.287469 307.584 
L 232.155263 307.584 
L 232.155263 217.00063 
L 229.287469 217.00063 
z
" style="fill:#1f77b4;"/>
   </g>
   <g id="patch_45">
    <path clip-path="url(#pa4ebe5a9c1)" d="M 232.155261 307.584 
L 235.023055 307.584 
L 235.023055 206.935811 
L 232.155261 206.935811 
z
" style="fill:#1f77b4;"/>
   </g>
   <g id="patch_46">
    <path clip-path="url(#pa4ebe5a9c1)" d="M 235.023056 307.584 
L 237.890848 307.584 
L 237.890848 212.687107 
L 235.023056 212.687107 
z
" style="fill:#1f77b4;"/>
   </g>
   <g id="patch_47">
    <path clip-path="url(#pa4ebe5a9c1)" d="M 237.890848 307.584 
L 240.758642 307.584 
L 240.758642 235.692459 
L 237.890848 235.692459 
z
" style="fill:#1f77b4;"/>
   </g>
   <g id="patch_48">
    <path clip-path="url(#pa4ebe5a9c1)" d="M 240.758644 307.584 
L 243.626437 307.584 
L 243.626437 245.757236 
L 240.758644 245.757236 
z
" style="fill:#1f77b4;"/>
   </g>
   <g id="patch_49">
    <path clip-path="url(#pa4ebe5a9c1)" d="M 243.626435 307.584 
L 246.494229 307.584 
L 246.494229 257.259921 
L 243.626435 257.259921 
z
" style="fill:#1f77b4;"/>
   </g>
   <g id="patch_50">
    <path clip-path="url(#pa4ebe5a9c1)" d="M 246.494229 307.584 
L 249.362022 307.584 
L 249.362022 227.065424 
L 246.494229 227.065424 
z
" style="fill:#1f77b4;"/>
   </g>
   <g id="patch_51">
    <path clip-path="url(#pa4ebe5a9c1)" d="M 249.362023 307.584 
L 252.229818 307.584 
L 252.229818 260.135553 
L 249.362023 260.135553 
z
" style="fill:#1f77b4;"/>
   </g>
   <g id="patch_52">
    <path clip-path="url(#pa4ebe5a9c1)" d="M 252.229818 307.584 
L 255.097612 307.584 
L 255.097612 232.816797 
L 252.229818 232.816797 
z
" style="fill:#1f77b4;"/>
   </g>
   <g id="patch_53">
    <path clip-path="url(#pa4ebe5a9c1)" d="M 255.097608 307.584 
L 257.965403 307.584 
L 257.965403 242.881613 
L 255.097608 242.881613 
z
" style="fill:#1f77b4;"/>
   </g>
   <g id="patch_54">
    <path clip-path="url(#pa4ebe5a9c1)" d="M 257.965403 307.584 
L 260.833193 307.584 
L 260.833193 242.881533 
L 257.965403 242.881533 
z
" style="fill:#1f77b4;"/>
   </g>
   <g id="patch_55">
    <path clip-path="url(#pa4ebe5a9c1)" d="M 260.833197 307.584 
L 263.700991 307.584 
L 263.700991 225.627643 
L 260.833197 225.627643 
z
" style="fill:#1f77b4;"/>
   </g>
   <g id="patch_56">
    <path clip-path="url(#pa4ebe5a9c1)" d="M 263.700988 307.584 
L 266.568782 307.584 
L 266.568782 245.757274 
L 263.700988 245.757274 
z
" style="fill:#1f77b4;"/>
   </g>
   <g id="patch_57">
    <path clip-path="url(#pa4ebe5a9c1)" d="M 266.568785 307.584 
L 269.43658 307.584 
L 269.43658 227.065474 
L 266.568785 227.065474 
z
" style="fill:#1f77b4;"/>
   </g>
   <g id="patch_58">
    <path clip-path="url(#pa4ebe5a9c1)" d="M 269.436576 307.584 
L 272.304367 307.584 
L 272.304367 248.632863 
L 269.436576 248.632863 
z
" style="fill:#1f77b4;"/>
   </g>
   <g id="patch_59">
    <path clip-path="url(#pa4ebe5a9c1)" d="M 272.304367 307.584 
L 275.172161 307.584 
L 275.172161 245.757274 
L 272.304367 245.757274 
z
" style="fill:#1f77b4;"/>
   </g>
   <g id="patch_60">
    <path clip-path="url(#pa4ebe5a9c1)" d="M 275.172165 307.584 
L 278.039959 307.584 
L 278.039959 224.189812 
L 275.172165 224.189812 
z
" style="fill:#1f77b4;"/>
   </g>
   <g id="patch_61">
    <path clip-path="url(#pa4ebe5a9c1)" d="M 278.039956 307.584 
L 280.907746 307.584 
L 280.907746 260.135524 
L 278.039956 260.135524 
z
" style="fill:#1f77b4;"/>
   </g>
   <g id="patch_62">
    <path clip-path="url(#pa4ebe5a9c1)" d="M 280.90775 307.584 
L 283.775544 307.584 
L 283.775544 242.881693 
L 280.90775 242.881693 
z
" style="fill:#1f77b4;"/>
   </g>
   <g id="patch_63">
    <path clip-path="url(#pa4ebe5a9c1)" d="M 283.775544 307.584 
L 286.643335 307.584 
L 286.643335 257.259859 
L 283.775544 257.259859 
z
" style="fill:#1f77b4;"/>
   </g>
   <g id="patch_64">
    <path clip-path="url(#pa4ebe5a9c1)" d="M 286.643335 307.584 
L 289.511126 307.584 
L 289.511126 255.822026 
L 286.643335 255.822026 
z
" style="fill:#1f77b4;"/>
   </g>
   <g id="patch_65">
    <path clip-path="url(#pa4ebe5a9c1)" d="M 289.511126 307.584 
L 292.378923 307.584 
L 292.378923 263.011299 
L 289.511126 263.011299 
z
" style="fill:#1f77b4;"/>
   </g>
   <g id="patch_66">
    <path clip-path="url(#pa4ebe5a9c1)" d="M 292.378923 307.584 
L 295.246714 307.584 
L 295.246714 257.259859 
L 292.378923 257.259859 
z
" style="fill:#1f77b4;"/>
   </g>
   <g id="patch_67">
    <path clip-path="url(#pa4ebe5a9c1)" d="M 295.246714 307.584 
L 298.114505 307.584 
L 298.114505 271.638185 
L 295.246714 271.638185 
z
" style="fill:#1f77b4;"/>
   </g>
   <g id="patch_68">
    <path clip-path="url(#pa4ebe5a9c1)" d="M 298.114512 307.584 
L 300.98231 307.584 
L 300.98231 274.513932 
L 298.114512 274.513932 
z
" style="fill:#1f77b4;"/>
   </g>
   <g id="patch_69">
    <path clip-path="url(#pa4ebe5a9c1)" d="M 300.982303 307.584 
L 303.850093 307.584 
L 303.850093 275.951683 
L 300.982303 275.951683 
z
" style="fill:#1f77b4;"/>
   </g>
   <g id="patch_70">
    <path clip-path="url(#pa4ebe5a9c1)" d="M 303.850093 307.584 
L 306.717884 307.584 
L 306.717884 245.757198 
L 303.850093 245.757198 
z
" style="fill:#1f77b4;"/>
   </g>
   <g id="patch_71">
    <path clip-path="url(#pa4ebe5a9c1)" d="M 306.717884 307.584 
L 309.585682 307.584 
L 309.585682 263.011299 
L 306.717884 263.011299 
z
" style="fill:#1f77b4;"/>
   </g>
   <g id="patch_72">
    <path clip-path="url(#pa4ebe5a9c1)" d="M 309.585682 307.584 
L 312.453473 307.584 
L 312.453473 277.389515 
L 309.585682 277.389515 
z
" style="fill:#1f77b4;"/>
   </g>
   <g id="patch_73">
    <path clip-path="url(#pa4ebe5a9c1)" d="M 312.45348 307.584 
L 315.321278 307.584 
L 315.321278 274.513932 
L 312.45348 274.513932 
z
" style="fill:#1f77b4;"/>
   </g>
   <g id="patch_74">
    <path clip-path="url(#pa4ebe5a9c1)" d="M 315.321271 307.584 
L 318.189061 307.584 
L 318.189061 277.389515 
L 315.321271 277.389515 
z
" style="fill:#1f77b4;"/>
   </g>
   <g id="patch_75">
    <path clip-path="url(#pa4ebe5a9c1)" d="M 318.189061 307.584 
L 321.056852 307.584 
L 321.056852 277.389515 
L 318.189061 277.389515 
z
" style="fill:#1f77b4;"/>
   </g>
   <g id="patch_76">
    <path clip-path="url(#pa4ebe5a9c1)" d="M 321.056852 307.584 
L 323.92465 307.584 
L 323.92465 296.081368 
L 321.056852 296.081368 
z
" style="fill:#1f77b4;"/>
   </g>
   <g id="patch_77">
    <path clip-path="url(#pa4ebe5a9c1)" d="M 323.92465 307.584 
L 326.792441 307.584 
L 326.792441 294.643507 
L 323.92465 294.643507 
z
" style="fill:#1f77b4;"/>
   </g>
   <g id="patch_78">
    <path clip-path="url(#pa4ebe5a9c1)" d="M 326.792441 307.584 
L 329.660231 307.584 
L 329.660231 298.957004 
L 326.792441 298.957004 
z
" style="fill:#1f77b4;"/>
   </g>
   <g id="patch_79">
    <path clip-path="url(#pa4ebe5a9c1)" d="M 329.660238 307.584 
L 332.528036 307.584 
L 332.528036 304.708342 
L 329.660238 304.708342 
z
" style="fill:#1f77b4;"/>
   </g>
   <g id="patch_80">
    <path clip-path="url(#pa4ebe5a9c1)" d="M 332.528029 307.584 
L 335.39582 307.584 
L 335.39582 301.83267 
L 332.528029 301.83267 
z
" style="fill:#1f77b4;"/>
   </g>
   <g id="patch_81">
    <path clip-path="url(#pa4ebe5a9c1)" d="M 335.39582 307.584 
L 338.263611 307.584 
L 338.263611 303.270502 
L 335.39582 303.270502 
z
" style="fill:#1f77b4;"/>
   </g>
   <g id="patch_82">
    <path clip-path="url(#pa4ebe5a9c1)" d="M 338.263611 307.584 
L 341.131401 307.584 
L 341.131401 303.270502 
L 338.263611 303.270502 
z
" style="fill:#1f77b4;"/>
   </g>
   <g id="patch_83">
    <path clip-path="url(#pa4ebe5a9c1)" d="M 341.131415 307.584 
L 343.99922 307.584 
L 343.99922 304.708349 
L 341.131415 304.708349 
z
" style="fill:#1f77b4;"/>
   </g>
   <g id="patch_84">
    <path clip-path="url(#pa4ebe5a9c1)" d="M 343.999206 307.584 
L 346.866997 307.584 
L 346.866997 303.270502 
L 343.999206 303.270502 
z
" style="fill:#1f77b4;"/>
   </g>
   <g id="patch_85">
    <path clip-path="url(#pa4ebe5a9c1)" d="M 346.866997 307.584 
L 349.734788 307.584 
L 349.734788 304.708335 
L 346.866997 304.708335 
z
" style="fill:#1f77b4;"/>
   </g>
   <g id="patch_86">
    <path clip-path="url(#pa4ebe5a9c1)" d="M 349.734788 307.584 
L 352.602578 307.584 
L 352.602578 304.708335 
L 349.734788 304.708335 
z
" style="fill:#1f77b4;"/>
   </g>
   <g id="patch_87">
    <path clip-path="url(#pa4ebe5a9c1)" d="M 352.602578 307.584 
L 355.470369 307.584 
L 355.470369 303.270502 
L 352.602578 303.270502 
z
" style="fill:#1f77b4;"/>
   </g>
   <g id="patch_88">
    <path clip-path="url(#pa4ebe5a9c1)" d="M 355.470369 307.584 
L 358.33816 307.584 
L 358.33816 304.708335 
L 355.470369 304.708335 
z
" style="fill:#1f77b4;"/>
   </g>
   <g id="patch_89">
    <path clip-path="url(#pa4ebe5a9c1)" d="M 358.33816 307.584 
L 361.205965 307.584 
L 361.205965 297.519221 
L 358.33816 297.519221 
z
" style="fill:#1f77b4;"/>
   </g>
   <g id="patch_90">
    <path clip-path="url(#pa4ebe5a9c1)" d="M 361.205965 307.584 
L 364.073756 307.584 
L 364.073756 301.83267 
L 361.205965 301.83267 
z
" style="fill:#1f77b4;"/>
   </g>
   <g id="patch_91">
    <path clip-path="url(#pa4ebe5a9c1)" d="M 364.073756 307.584 
L 366.941546 307.584 
L 366.941546 303.270502 
L 364.073756 303.270502 
z
" style="fill:#1f77b4;"/>
   </g>
   <g id="patch_92">
    <path clip-path="url(#pa4ebe5a9c1)" d="M 366.941546 307.584 
L 369.809337 307.584 
L 369.809337 306.146167 
L 366.941546 306.146167 
z
" style="fill:#1f77b4;"/>
   </g>
   <g id="patch_93">
    <path clip-path="url(#pa4ebe5a9c1)" d="M 369.809337 307.584 
L 372.677128 307.584 
L 372.677128 307.584 
L 369.809337 307.584 
z
" style="fill:#1f77b4;"/>
   </g>
   <g id="patch_94">
    <path clip-path="url(#pa4ebe5a9c1)" d="M 372.677142 307.584 
L 375.544947 307.584 
L 375.544947 306.146174 
L 372.677142 306.146174 
z
" style="fill:#1f77b4;"/>
   </g>
   <g id="patch_95">
    <path clip-path="url(#pa4ebe5a9c1)" d="M 375.544933 307.584 
L 378.412723 307.584 
L 378.412723 306.146167 
L 375.544933 306.146167 
z
" style="fill:#1f77b4;"/>
   </g>
   <g id="patch_96">
    <path clip-path="url(#pa4ebe5a9c1)" d="M 378.412723 307.584 
L 381.280514 307.584 
L 381.280514 306.146167 
L 378.412723 306.146167 
z
" style="fill:#1f77b4;"/>
   </g>
   <g id="patch_97">
    <path clip-path="url(#pa4ebe5a9c1)" d="M 381.280514 307.584 
L 384.148305 307.584 
L 384.148305 306.146167 
L 381.280514 306.146167 
z
" style="fill:#1f77b4;"/>
   </g>
   <g id="patch_98">
    <path clip-path="url(#pa4ebe5a9c1)" d="M 384.148305 307.584 
L 387.016096 307.584 
L 387.016096 306.146167 
L 384.148305 306.146167 
z
" style="fill:#1f77b4;"/>
   </g>
   <g id="patch_99">
    <path clip-path="url(#pa4ebe5a9c1)" d="M 387.016096 307.584 
L 389.883886 307.584 
L 389.883886 306.146167 
L 387.016096 306.146167 
z
" style="fill:#1f77b4;"/>
   </g>
   <g id="patch_100">
    <path clip-path="url(#pa4ebe5a9c1)" d="M 389.883886 307.584 
L 392.751691 307.584 
L 392.751691 306.146174 
L 389.883886 306.146174 
z
" style="fill:#1f77b4;"/>
   </g>
   <g id="patch_101">
    <path clip-path="url(#pa4ebe5a9c1)" d="M 392.751691 307.584 
L 395.619482 307.584 
L 395.619482 306.146167 
L 392.751691 306.146167 
z
" style="fill:#1f77b4;"/>
   </g>
   <g id="patch_102">
    <path clip-path="url(#pa4ebe5a9c1)" d="M 395.619482 307.584 
L 398.487273 307.584 
L 398.487273 304.708335 
L 395.619482 304.708335 
z
" style="fill:#1f77b4;"/>
   </g>
   <g id="matplotlib.axis_1">
    <g id="xtick_1">
     <g id="line2d_1">
      <defs>
       <path d="M 0 0 
L 0 3.5 
" id="m87976cb9cd" style="stroke:#000000;stroke-width:0.8;"/>
      </defs>
      <g>
       <use style="stroke:#000000;stroke-width:0.8;" x="103.532446" xlink:href="#m87976cb9cd" y="307.584"/>
      </g>
     </g>
     <g id="text_1">
      <!-- −2 -->
      <defs>
       <path d="M 10.59375 35.5 
L 73.1875 35.5 
L 73.1875 27.203125 
L 10.59375 27.203125 
z
" id="DejaVuSans-8722"/>
       <path d="M 19.1875 8.296875 
L 53.609375 8.296875 
L 53.609375 0 
L 7.328125 0 
L 7.328125 8.296875 
Q 12.9375 14.109375 22.625 23.890625 
Q 32.328125 33.6875 34.8125 36.53125 
Q 39.546875 41.84375 41.421875 45.53125 
Q 43.3125 49.21875 43.3125 52.78125 
Q 43.3125 58.59375 39.234375 62.25 
Q 35.15625 65.921875 28.609375 65.921875 
Q 23.96875 65.921875 18.8125 64.3125 
Q 13.671875 62.703125 7.8125 59.421875 
L 7.8125 69.390625 
Q 13.765625 71.78125 18.9375 73 
Q 24.125 74.21875 28.421875 74.21875 
Q 39.75 74.21875 46.484375 68.546875 
Q 53.21875 62.890625 53.21875 53.421875 
Q 53.21875 48.921875 51.53125 44.890625 
Q 49.859375 40.875 45.40625 35.40625 
Q 44.1875 33.984375 37.640625 27.21875 
Q 31.109375 20.453125 19.1875 8.296875 
z
" id="DejaVuSans-50"/>
      </defs>
      <g transform="translate(91.001587 327.501344)scale(0.17 -0.17)">
       <use xlink:href="#DejaVuSans-8722"/>
       <use x="83.789062" xlink:href="#DejaVuSans-50"/>
      </g>
     </g>
    </g>
    <g id="xtick_2">
     <g id="line2d_2">
      <g>
       <use style="stroke:#000000;stroke-width:0.8;" x="162.931884" xlink:href="#m87976cb9cd" y="307.584"/>
      </g>
     </g>
     <g id="text_2">
      <!-- −1 -->
      <defs>
       <path d="M 12.40625 8.296875 
L 28.515625 8.296875 
L 28.515625 63.921875 
L 10.984375 60.40625 
L 10.984375 69.390625 
L 28.421875 72.90625 
L 38.28125 72.90625 
L 38.28125 8.296875 
L 54.390625 8.296875 
L 54.390625 0 
L 12.40625 0 
z
" id="DejaVuSans-49"/>
      </defs>
      <g transform="translate(150.401025 327.501344)scale(0.17 -0.17)">
       <use xlink:href="#DejaVuSans-8722"/>
       <use x="83.789062" xlink:href="#DejaVuSans-49"/>
      </g>
     </g>
    </g>
    <g id="xtick_3">
     <g id="line2d_3">
      <g>
       <use style="stroke:#000000;stroke-width:0.8;" x="222.331322" xlink:href="#m87976cb9cd" y="307.584"/>
      </g>
     </g>
     <g id="text_3">
      <!-- 0 -->
      <defs>
       <path d="M 31.78125 66.40625 
Q 24.171875 66.40625 20.328125 58.90625 
Q 16.5 51.421875 16.5 36.375 
Q 16.5 21.390625 20.328125 13.890625 
Q 24.171875 6.390625 31.78125 6.390625 
Q 39.453125 6.390625 43.28125 13.890625 
Q 47.125 21.390625 47.125 36.375 
Q 47.125 51.421875 43.28125 58.90625 
Q 39.453125 66.40625 31.78125 66.40625 
z
M 31.78125 74.21875 
Q 44.046875 74.21875 50.515625 64.515625 
Q 56.984375 54.828125 56.984375 36.375 
Q 56.984375 17.96875 50.515625 8.265625 
Q 44.046875 -1.421875 31.78125 -1.421875 
Q 19.53125 -1.421875 13.0625 8.265625 
Q 6.59375 17.96875 6.59375 36.375 
Q 6.59375 54.828125 13.0625 64.515625 
Q 19.53125 74.21875 31.78125 74.21875 
z
" id="DejaVuSans-48"/>
      </defs>
      <g transform="translate(216.923197 327.501344)scale(0.17 -0.17)">
       <use xlink:href="#DejaVuSans-48"/>
      </g>
     </g>
    </g>
    <g id="xtick_4">
     <g id="line2d_4">
      <g>
       <use style="stroke:#000000;stroke-width:0.8;" x="281.73076" xlink:href="#m87976cb9cd" y="307.584"/>
      </g>
     </g>
     <g id="text_4">
      <!-- 1 -->
      <g transform="translate(276.322635 327.501344)scale(0.17 -0.17)">
       <use xlink:href="#DejaVuSans-49"/>
      </g>
     </g>
    </g>
    <g id="xtick_5">
     <g id="line2d_5">
      <g>
       <use style="stroke:#000000;stroke-width:0.8;" x="341.130198" xlink:href="#m87976cb9cd" y="307.584"/>
      </g>
     </g>
     <g id="text_5">
      <!-- 2 -->
      <g transform="translate(335.722073 327.501344)scale(0.17 -0.17)">
       <use xlink:href="#DejaVuSans-50"/>
      </g>
     </g>
    </g>
    <g id="xtick_6">
     <g id="line2d_6">
      <g>
       <use style="stroke:#000000;stroke-width:0.8;" x="400.529635" xlink:href="#m87976cb9cd" y="307.584"/>
      </g>
     </g>
     <g id="text_6">
      <!-- 3 -->
      <defs>
       <path d="M 40.578125 39.3125 
Q 47.65625 37.796875 51.625 33 
Q 55.609375 28.21875 55.609375 21.1875 
Q 55.609375 10.40625 48.1875 4.484375 
Q 40.765625 -1.421875 27.09375 -1.421875 
Q 22.515625 -1.421875 17.65625 -0.515625 
Q 12.796875 0.390625 7.625 2.203125 
L 7.625 11.71875 
Q 11.71875 9.328125 16.59375 8.109375 
Q 21.484375 6.890625 26.8125 6.890625 
Q 36.078125 6.890625 40.9375 10.546875 
Q 45.796875 14.203125 45.796875 21.1875 
Q 45.796875 27.640625 41.28125 31.265625 
Q 36.765625 34.90625 28.71875 34.90625 
L 20.21875 34.90625 
L 20.21875 43.015625 
L 29.109375 43.015625 
Q 36.375 43.015625 40.234375 45.921875 
Q 44.09375 48.828125 44.09375 54.296875 
Q 44.09375 59.90625 40.109375 62.90625 
Q 36.140625 65.921875 28.71875 65.921875 
Q 24.65625 65.921875 20.015625 65.03125 
Q 15.375 64.15625 9.8125 62.3125 
L 9.8125 71.09375 
Q 15.4375 72.65625 20.34375 73.4375 
Q 25.25 74.21875 29.59375 74.21875 
Q 40.828125 74.21875 47.359375 69.109375 
Q 53.90625 64.015625 53.90625 55.328125 
Q 53.90625 49.265625 50.4375 45.09375 
Q 46.96875 40.921875 40.578125 39.3125 
z
" id="DejaVuSans-51"/>
      </defs>
      <g transform="translate(395.12151 327.501344)scale(0.17 -0.17)">
       <use xlink:href="#DejaVuSans-51"/>
      </g>
     </g>
    </g>
    <g id="text_7">
     <!-- Position in Radian -->
     <defs>
      <path d="M 19.671875 64.796875 
L 19.671875 37.40625 
L 32.078125 37.40625 
Q 38.96875 37.40625 42.71875 40.96875 
Q 46.484375 44.53125 46.484375 51.125 
Q 46.484375 57.671875 42.71875 61.234375 
Q 38.96875 64.796875 32.078125 64.796875 
z
M 9.8125 72.90625 
L 32.078125 72.90625 
Q 44.34375 72.90625 50.609375 67.359375 
Q 56.890625 61.8125 56.890625 51.125 
Q 56.890625 40.328125 50.609375 34.8125 
Q 44.34375 29.296875 32.078125 29.296875 
L 19.671875 29.296875 
L 19.671875 0 
L 9.8125 0 
z
" id="DejaVuSans-80"/>
      <path d="M 30.609375 48.390625 
Q 23.390625 48.390625 19.1875 42.75 
Q 14.984375 37.109375 14.984375 27.296875 
Q 14.984375 17.484375 19.15625 11.84375 
Q 23.34375 6.203125 30.609375 6.203125 
Q 37.796875 6.203125 41.984375 11.859375 
Q 46.1875 17.53125 46.1875 27.296875 
Q 46.1875 37.015625 41.984375 42.703125 
Q 37.796875 48.390625 30.609375 48.390625 
z
M 30.609375 56 
Q 42.328125 56 49.015625 48.375 
Q 55.71875 40.765625 55.71875 27.296875 
Q 55.71875 13.875 49.015625 6.21875 
Q 42.328125 -1.421875 30.609375 -1.421875 
Q 18.84375 -1.421875 12.171875 6.21875 
Q 5.515625 13.875 5.515625 27.296875 
Q 5.515625 40.765625 12.171875 48.375 
Q 18.84375 56 30.609375 56 
z
" id="DejaVuSans-111"/>
      <path d="M 44.28125 53.078125 
L 44.28125 44.578125 
Q 40.484375 46.53125 36.375 47.5 
Q 32.28125 48.484375 27.875 48.484375 
Q 21.1875 48.484375 17.84375 46.4375 
Q 14.5 44.390625 14.5 40.28125 
Q 14.5 37.15625 16.890625 35.375 
Q 19.28125 33.59375 26.515625 31.984375 
L 29.59375 31.296875 
Q 39.15625 29.25 43.1875 25.515625 
Q 47.21875 21.78125 47.21875 15.09375 
Q 47.21875 7.46875 41.1875 3.015625 
Q 35.15625 -1.421875 24.609375 -1.421875 
Q 20.21875 -1.421875 15.453125 -0.5625 
Q 10.6875 0.296875 5.421875 2 
L 5.421875 11.28125 
Q 10.40625 8.6875 15.234375 7.390625 
Q 20.0625 6.109375 24.8125 6.109375 
Q 31.15625 6.109375 34.5625 8.28125 
Q 37.984375 10.453125 37.984375 14.40625 
Q 37.984375 18.0625 35.515625 20.015625 
Q 33.0625 21.96875 24.703125 23.78125 
L 21.578125 24.515625 
Q 13.234375 26.265625 9.515625 29.90625 
Q 5.8125 33.546875 5.8125 39.890625 
Q 5.8125 47.609375 11.28125 51.796875 
Q 16.75 56 26.8125 56 
Q 31.78125 56 36.171875 55.265625 
Q 40.578125 54.546875 44.28125 53.078125 
z
" id="DejaVuSans-115"/>
      <path d="M 9.421875 54.6875 
L 18.40625 54.6875 
L 18.40625 0 
L 9.421875 0 
z
M 9.421875 75.984375 
L 18.40625 75.984375 
L 18.40625 64.59375 
L 9.421875 64.59375 
z
" id="DejaVuSans-105"/>
      <path d="M 18.3125 70.21875 
L 18.3125 54.6875 
L 36.8125 54.6875 
L 36.8125 47.703125 
L 18.3125 47.703125 
L 18.3125 18.015625 
Q 18.3125 11.328125 20.140625 9.421875 
Q 21.96875 7.515625 27.59375 7.515625 
L 36.8125 7.515625 
L 36.8125 0 
L 27.59375 0 
Q 17.1875 0 13.234375 3.875 
Q 9.28125 7.765625 9.28125 18.015625 
L 9.28125 47.703125 
L 2.6875 47.703125 
L 2.6875 54.6875 
L 9.28125 54.6875 
L 9.28125 70.21875 
z
" id="DejaVuSans-116"/>
      <path d="M 54.890625 33.015625 
L 54.890625 0 
L 45.90625 0 
L 45.90625 32.71875 
Q 45.90625 40.484375 42.875 44.328125 
Q 39.84375 48.1875 33.796875 48.1875 
Q 26.515625 48.1875 22.3125 43.546875 
Q 18.109375 38.921875 18.109375 30.90625 
L 18.109375 0 
L 9.078125 0 
L 9.078125 54.6875 
L 18.109375 54.6875 
L 18.109375 46.1875 
Q 21.34375 51.125 25.703125 53.5625 
Q 30.078125 56 35.796875 56 
Q 45.21875 56 50.046875 50.171875 
Q 54.890625 44.34375 54.890625 33.015625 
z
" id="DejaVuSans-110"/>
      <path id="DejaVuSans-32"/>
      <path d="M 44.390625 34.1875 
Q 47.5625 33.109375 50.5625 29.59375 
Q 53.5625 26.078125 56.59375 19.921875 
L 66.609375 0 
L 56 0 
L 46.6875 18.703125 
Q 43.0625 26.03125 39.671875 28.421875 
Q 36.28125 30.8125 30.421875 30.8125 
L 19.671875 30.8125 
L 19.671875 0 
L 9.8125 0 
L 9.8125 72.90625 
L 32.078125 72.90625 
Q 44.578125 72.90625 50.734375 67.671875 
Q 56.890625 62.453125 56.890625 51.90625 
Q 56.890625 45.015625 53.6875 40.46875 
Q 50.484375 35.9375 44.390625 34.1875 
z
M 19.671875 64.796875 
L 19.671875 38.921875 
L 32.078125 38.921875 
Q 39.203125 38.921875 42.84375 42.21875 
Q 46.484375 45.515625 46.484375 51.90625 
Q 46.484375 58.296875 42.84375 61.546875 
Q 39.203125 64.796875 32.078125 64.796875 
z
" id="DejaVuSans-82"/>
      <path d="M 34.28125 27.484375 
Q 23.390625 27.484375 19.1875 25 
Q 14.984375 22.515625 14.984375 16.5 
Q 14.984375 11.71875 18.140625 8.90625 
Q 21.296875 6.109375 26.703125 6.109375 
Q 34.1875 6.109375 38.703125 11.40625 
Q 43.21875 16.703125 43.21875 25.484375 
L 43.21875 27.484375 
z
M 52.203125 31.203125 
L 52.203125 0 
L 43.21875 0 
L 43.21875 8.296875 
Q 40.140625 3.328125 35.546875 0.953125 
Q 30.953125 -1.421875 24.3125 -1.421875 
Q 15.921875 -1.421875 10.953125 3.296875 
Q 6 8.015625 6 15.921875 
Q 6 25.140625 12.171875 29.828125 
Q 18.359375 34.515625 30.609375 34.515625 
L 43.21875 34.515625 
L 43.21875 35.40625 
Q 43.21875 41.609375 39.140625 45 
Q 35.0625 48.390625 27.6875 48.390625 
Q 23 48.390625 18.546875 47.265625 
Q 14.109375 46.140625 10.015625 43.890625 
L 10.015625 52.203125 
Q 14.9375 54.109375 19.578125 55.046875 
Q 24.21875 56 28.609375 56 
Q 40.484375 56 46.34375 49.84375 
Q 52.203125 43.703125 52.203125 31.203125 
z
" id="DejaVuSans-97"/>
      <path d="M 45.40625 46.390625 
L 45.40625 75.984375 
L 54.390625 75.984375 
L 54.390625 0 
L 45.40625 0 
L 45.40625 8.203125 
Q 42.578125 3.328125 38.25 0.953125 
Q 33.9375 -1.421875 27.875 -1.421875 
Q 17.96875 -1.421875 11.734375 6.484375 
Q 5.515625 14.40625 5.515625 27.296875 
Q 5.515625 40.1875 11.734375 48.09375 
Q 17.96875 56 27.875 56 
Q 33.9375 56 38.25 53.625 
Q 42.578125 51.265625 45.40625 46.390625 
z
M 14.796875 27.296875 
Q 14.796875 17.390625 18.875 11.75 
Q 22.953125 6.109375 30.078125 6.109375 
Q 37.203125 6.109375 41.296875 11.75 
Q 45.40625 17.390625 45.40625 27.296875 
Q 45.40625 37.203125 41.296875 42.84375 
Q 37.203125 48.484375 30.078125 48.484375 
Q 22.953125 48.484375 18.875 42.84375 
Q 14.796875 37.203125 14.796875 27.296875 
z
" id="DejaVuSans-100"/>
     </defs>
     <g transform="translate(102.024844 357.832125)scale(0.3 -0.3)">
      <use xlink:href="#DejaVuSans-80"/>
      <use x="60.255859" xlink:href="#DejaVuSans-111"/>
      <use x="121.4375" xlink:href="#DejaVuSans-115"/>
      <use x="173.537109" xlink:href="#DejaVuSans-105"/>
      <use x="201.320312" xlink:href="#DejaVuSans-116"/>
      <use x="240.529297" xlink:href="#DejaVuSans-105"/>
      <use x="268.3125" xlink:href="#DejaVuSans-111"/>
      <use x="329.494141" xlink:href="#DejaVuSans-110"/>
      <use x="392.873047" xlink:href="#DejaVuSans-32"/>
      <use x="424.660156" xlink:href="#DejaVuSans-105"/>
      <use x="452.443359" xlink:href="#DejaVuSans-110"/>
      <use x="515.822266" xlink:href="#DejaVuSans-32"/>
      <use x="547.609375" xlink:href="#DejaVuSans-82"/>
      <use x="617.060547" xlink:href="#DejaVuSans-97"/>
      <use x="678.339844" xlink:href="#DejaVuSans-100"/>
      <use x="741.816406" xlink:href="#DejaVuSans-105"/>
      <use x="769.599609" xlink:href="#DejaVuSans-97"/>
      <use x="830.878906" xlink:href="#DejaVuSans-110"/>
     </g>
    </g>
   </g>
   <g id="matplotlib.axis_2">
    <g id="ytick_1">
     <g id="line2d_7">
      <defs>
       <path d="M 0 0 
L -3.5 0 
" id="m54641ccb56" style="stroke:#000000;stroke-width:0.8;"/>
      </defs>
      <g>
       <use style="stroke:#000000;stroke-width:0.8;" x="57.6" xlink:href="#m54641ccb56" y="307.584"/>
      </g>
     </g>
     <g id="text_8">
      <!-- 0.00 -->
      <defs>
       <path d="M 10.6875 12.40625 
L 21 12.40625 
L 21 0 
L 10.6875 0 
z
" id="DejaVuSans-46"/>
      </defs>
      <g transform="translate(12.748438 314.042672)scale(0.17 -0.17)">
       <use xlink:href="#DejaVuSans-48"/>
       <use x="63.623047" xlink:href="#DejaVuSans-46"/>
       <use x="95.410156" xlink:href="#DejaVuSans-48"/>
       <use x="159.033203" xlink:href="#DejaVuSans-48"/>
      </g>
     </g>
    </g>
    <g id="ytick_2">
     <g id="line2d_8">
      <g>
       <use style="stroke:#000000;stroke-width:0.8;" x="57.6" xlink:href="#m54641ccb56" y="264.197615"/>
      </g>
     </g>
     <g id="text_9">
      <!-- 0.25 -->
      <defs>
       <path d="M 10.796875 72.90625 
L 49.515625 72.90625 
L 49.515625 64.59375 
L 19.828125 64.59375 
L 19.828125 46.734375 
Q 21.96875 47.46875 24.109375 47.828125 
Q 26.265625 48.1875 28.421875 48.1875 
Q 40.625 48.1875 47.75 41.5 
Q 54.890625 34.8125 54.890625 23.390625 
Q 54.890625 11.625 47.5625 5.09375 
Q 40.234375 -1.421875 26.90625 -1.421875 
Q 22.3125 -1.421875 17.546875 -0.640625 
Q 12.796875 0.140625 7.71875 1.703125 
L 7.71875 11.625 
Q 12.109375 9.234375 16.796875 8.0625 
Q 21.484375 6.890625 26.703125 6.890625 
Q 35.15625 6.890625 40.078125 11.328125 
Q 45.015625 15.765625 45.015625 23.390625 
Q 45.015625 31 40.078125 35.4375 
Q 35.15625 39.890625 26.703125 39.890625 
Q 22.75 39.890625 18.8125 39.015625 
Q 14.890625 38.140625 10.796875 36.28125 
z
" id="DejaVuSans-53"/>
      </defs>
      <g transform="translate(12.748438 270.656287)scale(0.17 -0.17)">
       <use xlink:href="#DejaVuSans-48"/>
       <use x="63.623047" xlink:href="#DejaVuSans-46"/>
       <use x="95.410156" xlink:href="#DejaVuSans-50"/>
       <use x="159.033203" xlink:href="#DejaVuSans-53"/>
      </g>
     </g>
    </g>
    <g id="ytick_3">
     <g id="line2d_9">
      <g>
       <use style="stroke:#000000;stroke-width:0.8;" x="57.6" xlink:href="#m54641ccb56" y="220.81123"/>
      </g>
     </g>
     <g id="text_10">
      <!-- 0.50 -->
      <g transform="translate(12.748438 227.269901)scale(0.17 -0.17)">
       <use xlink:href="#DejaVuSans-48"/>
       <use x="63.623047" xlink:href="#DejaVuSans-46"/>
       <use x="95.410156" xlink:href="#DejaVuSans-53"/>
       <use x="159.033203" xlink:href="#DejaVuSans-48"/>
      </g>
     </g>
    </g>
    <g id="ytick_4">
     <g id="line2d_10">
      <g>
       <use style="stroke:#000000;stroke-width:0.8;" x="57.6" xlink:href="#m54641ccb56" y="177.424844"/>
      </g>
     </g>
     <g id="text_11">
      <!-- 0.75 -->
      <defs>
       <path d="M 8.203125 72.90625 
L 55.078125 72.90625 
L 55.078125 68.703125 
L 28.609375 0 
L 18.3125 0 
L 43.21875 64.59375 
L 8.203125 64.59375 
z
" id="DejaVuSans-55"/>
      </defs>
      <g transform="translate(12.748438 183.883516)scale(0.17 -0.17)">
       <use xlink:href="#DejaVuSans-48"/>
       <use x="63.623047" xlink:href="#DejaVuSans-46"/>
       <use x="95.410156" xlink:href="#DejaVuSans-55"/>
       <use x="159.033203" xlink:href="#DejaVuSans-53"/>
      </g>
     </g>
    </g>
    <g id="ytick_5">
     <g id="line2d_11">
      <g>
       <use style="stroke:#000000;stroke-width:0.8;" x="57.6" xlink:href="#m54641ccb56" y="134.038459"/>
      </g>
     </g>
     <g id="text_12">
      <!-- 1.00 -->
      <g transform="translate(12.748438 140.497131)scale(0.17 -0.17)">
       <use xlink:href="#DejaVuSans-49"/>
       <use x="63.623047" xlink:href="#DejaVuSans-46"/>
       <use x="95.410156" xlink:href="#DejaVuSans-48"/>
       <use x="159.033203" xlink:href="#DejaVuSans-48"/>
      </g>
     </g>
    </g>
    <g id="ytick_6">
     <g id="line2d_12">
      <g>
       <use style="stroke:#000000;stroke-width:0.8;" x="57.6" xlink:href="#m54641ccb56" y="90.652074"/>
      </g>
     </g>
     <g id="text_13">
      <!-- 1.25 -->
      <g transform="translate(12.748438 97.110746)scale(0.17 -0.17)">
       <use xlink:href="#DejaVuSans-49"/>
       <use x="63.623047" xlink:href="#DejaVuSans-46"/>
       <use x="95.410156" xlink:href="#DejaVuSans-50"/>
       <use x="159.033203" xlink:href="#DejaVuSans-53"/>
      </g>
     </g>
    </g>
    <g id="ytick_7">
     <g id="line2d_13">
      <g>
       <use style="stroke:#000000;stroke-width:0.8;" x="57.6" xlink:href="#m54641ccb56" y="47.265689"/>
      </g>
     </g>
     <g id="text_14">
      <!-- 1.50 -->
      <g transform="translate(12.748438 53.724361)scale(0.17 -0.17)">
       <use xlink:href="#DejaVuSans-49"/>
       <use x="63.623047" xlink:href="#DejaVuSans-46"/>
       <use x="95.410156" xlink:href="#DejaVuSans-53"/>
       <use x="159.033203" xlink:href="#DejaVuSans-48"/>
      </g>
     </g>
    </g>
    <g id="text_15">
     <!-- Density -->
     <defs>
      <path d="M 19.671875 64.796875 
L 19.671875 8.109375 
L 31.59375 8.109375 
Q 46.6875 8.109375 53.6875 14.9375 
Q 60.6875 21.78125 60.6875 36.53125 
Q 60.6875 51.171875 53.6875 57.984375 
Q 46.6875 64.796875 31.59375 64.796875 
z
M 9.8125 72.90625 
L 30.078125 72.90625 
Q 51.265625 72.90625 61.171875 64.09375 
Q 71.09375 55.28125 71.09375 36.53125 
Q 71.09375 17.671875 61.125 8.828125 
Q 51.171875 0 30.078125 0 
L 9.8125 0 
z
" id="DejaVuSans-68"/>
      <path d="M 56.203125 29.59375 
L 56.203125 25.203125 
L 14.890625 25.203125 
Q 15.484375 15.921875 20.484375 11.0625 
Q 25.484375 6.203125 34.421875 6.203125 
Q 39.59375 6.203125 44.453125 7.46875 
Q 49.3125 8.734375 54.109375 11.28125 
L 54.109375 2.78125 
Q 49.265625 0.734375 44.1875 -0.34375 
Q 39.109375 -1.421875 33.890625 -1.421875 
Q 20.796875 -1.421875 13.15625 6.1875 
Q 5.515625 13.8125 5.515625 26.8125 
Q 5.515625 40.234375 12.765625 48.109375 
Q 20.015625 56 32.328125 56 
Q 43.359375 56 49.78125 48.890625 
Q 56.203125 41.796875 56.203125 29.59375 
z
M 47.21875 32.234375 
Q 47.125 39.59375 43.09375 43.984375 
Q 39.0625 48.390625 32.421875 48.390625 
Q 24.90625 48.390625 20.390625 44.140625 
Q 15.875 39.890625 15.1875 32.171875 
z
" id="DejaVuSans-101"/>
      <path d="M 32.171875 -5.078125 
Q 28.375 -14.84375 24.75 -17.8125 
Q 21.140625 -20.796875 15.09375 -20.796875 
L 7.90625 -20.796875 
L 7.90625 -13.28125 
L 13.1875 -13.28125 
Q 16.890625 -13.28125 18.9375 -11.515625 
Q 21 -9.765625 23.484375 -3.21875 
L 25.09375 0.875 
L 2.984375 54.6875 
L 12.5 54.6875 
L 29.59375 11.921875 
L 46.6875 54.6875 
L 56.203125 54.6875 
z
" id="DejaVuSans-121"/>
     </defs>
     <g transform="translate(2.509375 231.553781)rotate(-90)scale(0.3 -0.3)">
      <use xlink:href="#DejaVuSans-68"/>
      <use x="77.001953" xlink:href="#DejaVuSans-101"/>
      <use x="138.525391" xlink:href="#DejaVuSans-110"/>
      <use x="201.904297" xlink:href="#DejaVuSans-115"/>
      <use x="254.003906" xlink:href="#DejaVuSans-105"/>
      <use x="281.787109" xlink:href="#DejaVuSans-116"/>
      <use x="320.996094" xlink:href="#DejaVuSans-121"/>
     </g>
    </g>
   </g>
   <g id="line2d_14">
    <path clip-path="url(#pa4ebe5a9c1)" d="M 73.832727 307.584 
L 110.185183 307.480095 
L 110.54158 307.177706 
L 110.897976 306.465082 
L 111.967166 303.808798 
L 112.264164 303.717534 
L 112.501761 303.850755 
L 112.798758 304.325454 
L 113.333353 305.835905 
L 113.68975 306.539735 
L 113.867948 306.596817 
L 114.046147 306.437641 
L 114.402543 305.657268 
L 114.818339 304.810411 
L 115.055937 304.728534 
L 115.590532 304.857416 
L 115.76873 304.438866 
L 116.006328 303.199588 
L 116.956719 297.078501 
L 117.075518 297.206297 
L 117.313116 298.007296 
L 117.669512 299.043106 
L 117.788311 298.961356 
L 117.96651 298.307069 
L 118.679303 294.288771 
L 118.738702 294.316416 
L 118.857501 294.645406 
L 119.095099 296.228494 
L 119.867292 302.138099 
L 120.164289 302.818491 
L 120.520685 303.069343 
L 120.995881 303.428735 
L 121.471076 303.795405 
L 121.708674 303.74774 
L 122.12447 303.341235 
L 122.480867 303.130105 
L 122.718465 303.257961 
L 123.015462 303.750681 
L 123.668856 304.9461 
L 123.906453 304.936136 
L 124.441048 304.688923 
L 124.678646 304.977728 
L 125.094442 306.05557 
L 125.569638 307.122178 
L 125.926034 307.459949 
L 126.40123 307.56699 
L 126.995224 307.4812 
L 127.351621 307.184305 
L 127.708017 306.496956 
L 128.420811 304.853237 
L 128.599009 304.838781 
L 128.836607 305.180561 
L 129.905797 307.401576 
L 130.321593 307.556099 
L 131.390783 307.583976 
L 133.647961 307.487423 
L 133.944958 307.266552 
L 134.241956 306.760847 
L 134.598352 305.669453 
L 135.370545 303.131689 
L 135.608143 302.989789 
L 135.786341 303.159928 
L 136.083338 303.839694 
L 136.617933 305.04101 
L 136.796131 305.09249 
L 137.033729 304.858164 
L 138.340517 302.554198 
L 138.637514 302.168074 
L 138.815712 302.24662 
L 139.05331 302.818421 
L 139.528506 304.977315 
L 140.003701 306.758398 
L 140.360098 307.320354 
L 140.657095 307.408452 
L 140.954092 307.220577 
L 141.251089 306.720504 
L 141.726285 305.35428 
L 142.20148 304.173648 
L 142.557877 303.844148 
L 142.973673 303.802083 
L 143.567667 303.832408 
L 143.805265 303.515196 
L 144.161662 302.43552 
L 144.636857 301.1365 
L 144.874455 301.046293 
L 145.40905 301.132309 
L 145.646648 300.787198 
L 146.240642 299.781731 
L 146.537639 299.752983 
L 146.775237 299.720755 
L 147.012835 299.388622 
L 147.785027 297.612747 
L 147.844427 297.653244 
L 148.022625 298.008559 
L 148.854217 300.374222 
L 149.032416 300.108474 
L 149.270013 299.200116 
L 150.161005 294.999975 
L 150.339203 294.934222 
L 150.576801 295.231394 
L 150.814399 295.50236 
L 150.933198 295.428518 
L 151.111396 294.865635 
L 151.348994 293.16371 
L 152.002387 287.760101 
L 152.061787 287.733324 
L 152.180586 288.073949 
L 152.358784 289.542348 
L 152.77458 295.731982 
L 153.190376 300.963143 
L 153.427974 302.073855 
L 153.546773 302.121993 
L 153.724971 301.707852 
L 154.021968 300.199166 
L 155.209957 293.356654 
L 155.328756 293.56685 
L 155.566354 294.718204 
L 156.516745 300.362497 
L 157.110739 303.286474 
L 157.585935 305.394284 
L 157.823532 305.687272 
L 158.001731 305.502795 
L 158.239328 304.812317 
L 158.833323 302.080418 
L 159.427317 299.709304 
L 159.664915 299.330523 
L 159.843113 299.360557 
L 160.14011 299.812076 
L 160.437108 300.09714 
L 160.615306 299.881358 
L 160.912303 298.856385 
L 161.446898 296.949731 
L 162.516088 294.97575 
L 162.694286 295.050348 
L 163.228881 295.499266 
L 163.763476 295.180445 
L 163.941674 295.575377 
L 164.595068 297.986754 
L 164.654468 297.958541 
L 164.832666 297.447416 
L 165.189063 295.109576 
L 166.258253 286.254232 
L 167.089845 277.056855 
L 167.743238 272.57811 
L 167.921437 272.30329 
L 168.040236 272.580337 
L 168.218434 273.758767 
L 168.574831 278.386898 
L 169.168825 286.459141 
L 169.406423 287.552081 
L 169.525222 287.509722 
L 169.70342 286.866304 
L 170.238015 284.502383 
L 170.356814 284.662135 
L 170.535012 285.620558 
L 170.891409 289.386287 
L 171.366604 293.976754 
L 171.604202 294.825162 
L 171.723001 294.876609 
L 171.901199 294.56123 
L 172.138797 293.527872 
L 172.554593 290.38879 
L 173.445585 282.841732 
L 173.623783 282.590803 
L 173.742582 282.87592 
L 173.980179 284.518518 
L 174.811772 292.124273 
L 174.93057 292.078426 
L 175.108769 291.28627 
L 175.405766 288.548684 
L 176.593755 276.295183 
L 176.950151 274.184439 
L 177.12835 273.896014 
L 177.247149 274.070704 
L 177.425347 274.871028 
L 177.841143 278.335876 
L 178.256939 281.238136 
L 178.375738 281.470487 
L 178.435137 281.445712 
L 178.553936 281.090219 
L 178.791534 279.148268 
L 179.801324 268.145656 
L 179.920123 268.27425 
L 180.157721 269.193562 
L 180.573517 270.794199 
L 180.811115 271.062769 
L 181.108112 271.030209 
L 181.405109 270.849083 
L 181.583308 270.393757 
L 181.761506 269.238911 
L 181.999104 265.935552 
L 182.3555 256.86333 
L 182.890095 243.426369 
L 183.068293 242.236405 
L 183.127693 242.325842 
L 183.246492 243.179985 
L 183.48409 247.004076 
L 184.553279 267.340665 
L 185.087874 273.134938 
L 185.384872 274.522628 
L 185.50367 274.50657 
L 185.681869 273.789697 
L 185.919466 271.588909 
L 187.048056 258.821983 
L 187.226254 258.768405 
L 187.523251 258.932669 
L 187.64205 258.721316 
L 187.820248 257.857561 
L 188.473642 252.970454 
L 188.533042 253.011219 
L 188.651841 253.590328 
L 188.889438 256.718868 
L 189.899229 273.81862 
L 190.018028 274.038968 
L 190.136827 273.829381 
L 190.374424 272.351605 
L 191.324815 264.50267 
L 191.85941 262.271679 
L 192.631603 258.005905 
L 192.750402 258.184786 
L 192.988 259.325991 
L 193.463195 261.694495 
L 193.581994 261.70304 
L 193.760192 261.135798 
L 194.116589 258.634486 
L 194.532385 256.278 
L 194.651184 256.153191 
L 194.769983 256.322091 
L 195.00758 257.443634 
L 195.779773 262.0431 
L 195.898572 261.784196 
L 196.07677 260.550477 
L 196.433167 255.630253 
L 197.027161 247.418396 
L 197.324159 245.657606 
L 197.561756 245.253383 
L 197.680555 245.342797 
L 197.858753 245.833382 
L 198.27455 248.070947 
L 198.512147 248.899502 
L 198.630946 248.828736 
L 198.809144 247.958423 
L 199.106142 244.850755 
L 199.581337 239.901033 
L 199.818935 239.15667 
L 199.937734 239.281261 
L 200.115932 239.965659 
L 200.769326 243.350485 
L 200.828725 243.32119 
L 200.947524 242.913607 
L 201.185122 240.631317 
L 202.076114 229.454233 
L 202.194912 229.71469 
L 202.373111 231.100965 
L 202.729507 236.510847 
L 203.323502 245.850734 
L 203.5611 247.091174 
L 203.679898 247.105451 
L 203.858097 246.638632 
L 204.452091 244.720823 
L 204.986686 243.368655 
L 205.758879 240.928885 
L 205.996476 238.774863 
L 206.887468 228.566056 
L 206.946867 228.559901 
L 207.065666 228.881848 
L 207.303264 230.562419 
L 207.837859 236.584496 
L 208.550652 244.320421 
L 208.669451 244.618457 
L 208.728851 244.592704 
L 208.847649 244.198435 
L 209.085247 242.229339 
L 209.501043 236.204623 
L 209.976239 225.673513 
L 210.510834 214.194321 
L 210.689032 212.993409 
L 210.748431 213.008482 
L 210.86723 213.645258 
L 211.104828 216.942025 
L 211.99582 232.004101 
L 212.352216 234.110246 
L 212.589814 234.569061 
L 212.708613 234.433431 
L 212.886811 233.547792 
L 213.124409 230.538603 
L 213.421406 222.573808 
L 213.777803 205.315762 
L 214.668794 157.202454 
L 214.787593 156.128727 
L 214.846993 156.266098 
L 214.965792 157.770901 
L 215.203389 164.605738 
L 216.331979 202.945536 
L 216.688375 208.074591 
L 216.866574 208.827219 
L 216.985372 208.49769 
L 217.163571 206.673229 
L 217.460568 200.570341 
L 218.113962 186.128998 
L 218.35156 184.338981 
L 218.470358 184.185756 
L 218.589157 184.408266 
L 218.826755 185.612945 
L 219.420749 190.390651 
L 220.074143 197.029296 
L 220.608738 202.698948 
L 220.668138 202.744528 
L 220.786936 201.993957 
L 220.965135 197.962266 
L 221.202733 184.922059 
L 221.49973 153.422168 
L 222.271922 56.491442 
L 222.390721 54.144 
L 222.50952 56.763229 
L 222.747118 73.516683 
L 223.459911 133.3824 
L 223.994506 154.786772 
L 224.588501 171.092731 
L 225.004297 176.955943 
L 225.479492 180.785215 
L 226.073486 184.656767 
L 226.311084 188.836862 
L 226.667481 200.295366 
L 227.380274 225.036652 
L 227.677271 228.499108 
L 227.79607 228.637394 
L 227.914869 228.201599 
L 228.152467 225.982609 
L 228.568263 219.135039 
L 229.578053 201.026794 
L 229.696852 200.73671 
L 229.815651 201.16753 
L 229.993849 203.146429 
L 230.350246 210.452459 
L 230.884841 220.430064 
L 231.300637 224.014262 
L 231.775832 226.621973 
L 231.954031 226.845625 
L 232.07283 226.603187 
L 232.310427 225.161544 
L 232.666824 221.129083 
L 233.201419 212.214804 
L 233.676615 204.985744 
L 233.914212 203.902388 
L 234.033011 204.17051 
L 234.211209 205.458169 
L 234.627006 210.975567 
L 235.102201 216.433079 
L 235.221 216.733184 
L 235.339799 216.397253 
L 235.517997 214.670152 
L 235.874394 208.023241 
L 236.349589 199.986751 
L 236.527788 199.092702 
L 236.587187 199.119593 
L 236.705986 199.654796 
L 236.943584 202.479334 
L 237.418779 212.407119 
L 237.893975 221.033899 
L 238.190972 223.399734 
L 238.42857 223.935621 
L 238.784966 224.237939 
L 238.963164 224.924302 
L 239.200762 227.006774 
L 239.497759 231.851093 
L 240.032354 245.379642 
L 240.50755 255.367568 
L 240.685748 256.554561 
L 240.745148 256.572736 
L 240.863946 256.086493 
L 241.101544 253.535495 
L 241.636139 247.379825 
L 241.814337 246.923223 
L 241.933136 247.090676 
L 242.527131 248.94702 
L 242.58653 248.898218 
L 242.764728 248.400829 
L 243.358723 246.273941 
L 243.477522 246.403534 
L 243.65572 247.091992 
L 243.952717 249.310579 
L 244.784309 256.101443 
L 244.962508 256.320837 
L 245.081307 256.091024 
L 245.318904 254.753352 
L 245.675301 250.907966 
L 246.447494 241.988129 
L 246.685091 241.373268 
L 246.86329 241.477007 
L 247.041488 241.528242 
L 247.160287 241.249122 
L 247.338485 240.033337 
L 247.635482 235.756962 
L 248.229477 226.745628 
L 248.407675 226.133925 
L 248.526474 226.407117 
L 248.704672 227.768023 
L 249.001669 232.37369 
L 249.417466 243.164344 
L 250.130259 262.596023 
L 250.427256 265.42653 
L 250.486655 265.488967 
L 250.546055 265.393196 
L 250.724253 264.246465 
L 251.02125 260.220401 
L 251.674644 251.082107 
L 251.912242 250.240653 
L 252.031041 250.315201 
L 252.446837 250.939178 
L 252.565636 250.643178 
L 252.743834 249.487787 
L 253.040831 245.782098 
L 253.872423 230.823777 
L 254.347619 224.612606 
L 254.585217 223.637473 
L 254.704015 223.743734 
L 254.882214 224.56156 
L 255.29801 228.269575 
L 255.713806 231.185211 
L 256.070203 232.076152 
L 256.3078 232.994167 
L 256.545398 235.019243 
L 256.901795 240.499763 
L 257.792786 255.960307 
L 257.970985 256.425733 
L 258.089783 256.018407 
L 258.327381 253.830862 
L 260.346962 229.867384 
L 260.822158 226.524565 
L 261.356753 224.341517 
L 261.772549 223.415238 
L 261.891347 223.394835 
L 262.010146 223.594401 
L 262.188345 224.465552 
L 262.485342 227.687227 
L 263.257535 237.71006 
L 264.564322 245.87505 
L 264.683121 245.591362 
L 264.920719 244.036519 
L 265.633512 238.544008 
L 265.87111 238.238896 
L 266.049308 238.396363 
L 266.405705 239.137317 
L 266.762101 240.412063 
L 267.177897 241.85138 
L 267.296696 241.822354 
L 267.474895 241.127298 
L 267.712492 238.885 
L 268.128288 232.004874 
L 268.722283 221.90517 
L 268.841082 221.336621 
L 268.900481 221.38028 
L 269.01928 222.185636 
L 269.256878 226.650494 
L 270.266668 252.463474 
L 270.444867 252.873806 
L 270.563665 252.613724 
L 270.979461 250.613894 
L 271.454657 248.915835 
L 271.632855 248.765844 
L 271.751654 248.95656 
L 271.929852 249.849106 
L 272.22685 253.119102 
L 272.761445 259.5684 
L 272.820844 259.704539 
L 272.880243 259.64593 
L 272.999042 258.919926 
L 273.23664 255.220227 
L 274.365229 233.084819 
L 274.662227 231.193459 
L 274.781025 231.125692 
L 274.899824 231.436047 
L 275.37502 233.376572 
L 275.493819 232.932343 
L 275.672017 230.933983 
L 276.028414 223.333575 
L 276.44421 216.228407 
L 276.563009 215.729614 
L 276.622408 215.761189 
L 276.741207 216.339128 
L 276.978805 219.20756 
L 277.335201 226.850739 
L 277.810397 242.587742 
L 278.344992 259.259143 
L 278.58259 261.872851 
L 278.641989 261.950814 
L 278.760788 261.499237 
L 278.998386 258.828478 
L 279.651779 250.829014 
L 279.948777 249.529278 
L 280.423972 248.519315 
L 280.780369 248.156363 
L 281.017966 248.251474 
L 281.374363 248.757668 
L 281.790159 249.261543 
L 281.908958 249.218671 
L 282.087156 248.828616 
L 282.324754 247.49247 
L 282.79995 242.674244 
L 283.096947 240.739871 
L 283.156346 240.69233 
L 283.215746 240.783491 
L 283.393944 241.910894 
L 283.690941 246.240113 
L 284.641332 262.312763 
L 284.938329 264.112743 
L 285.057128 264.194273 
L 285.175927 263.886215 
L 285.413525 262.141034 
L 285.829321 256.591945 
L 286.363916 249.971423 
L 286.779712 247.436308 
L 287.01731 246.900296 
L 287.136109 246.980842 
L 287.314307 247.710403 
L 287.551905 249.979444 
L 288.502296 261.428635 
L 289.09629 263.971496 
L 289.393287 267.506507 
L 289.927882 274.029793 
L 290.046681 274.37288 
L 290.10608 274.319515 
L 290.224879 273.763473 
L 290.462477 271.069943 
L 291.056471 260.110206 
L 292.006862 244.228289 
L 292.363259 240.722945 
L 292.541457 240.293184 
L 292.660256 240.698887 
L 292.838455 242.495837 
L 293.135452 248.482933 
L 293.848245 263.989494 
L 294.085843 265.068709 
L 294.204642 264.921076 
L 294.739237 263.53081 
L 294.917435 263.678979 
L 295.333231 264.230169 
L 295.511429 264.043551 
L 295.808426 263.121903 
L 296.105424 262.3245 
L 296.224223 262.366443 
L 296.343021 262.752124 
L 296.52122 264.113497 
L 296.818217 268.568754 
L 297.709208 284.137592 
L 297.768608 284.277239 
L 297.828007 284.237304 
L 297.946806 283.633143 
L 298.184404 280.655368 
L 298.837798 270.92604 
L 298.956597 270.527088 
L 299.015996 270.547597 
L 299.134795 270.981249 
L 299.431792 273.486854 
L 299.788189 276.088238 
L 299.966387 276.396887 
L 300.085186 276.266442 
L 300.73858 274.98279 
L 300.916778 275.214796 
L 301.154376 275.986613 
L 301.510773 278.098358 
L 302.164166 282.3869 
L 302.282965 282.504965 
L 302.401764 282.267897 
L 302.579962 281.226037 
L 302.87696 277.836769 
L 303.411555 268.35389 
L 305.015339 238.916733 
L 305.312337 236.28787 
L 305.371736 236.269771 
L 305.490535 236.786583 
L 305.728133 239.870618 
L 306.262728 252.067062 
L 306.737923 260.468696 
L 307.03492 262.604708 
L 307.213119 262.901834 
L 307.331917 262.808234 
L 307.925912 261.732034 
L 307.985311 261.801453 
L 308.16351 262.380012 
L 308.460507 264.447736 
L 309.113901 269.380578 
L 309.351498 269.82595 
L 309.470297 269.658969 
L 309.707895 268.625279 
L 310.18309 266.20323 
L 310.24249 266.189338 
L 310.361289 266.520466 
L 310.539487 267.989485 
L 310.895884 273.710335 
L 311.430479 281.892596 
L 311.668076 282.994202 
L 311.786875 282.84159 
L 311.965074 281.792647 
L 312.262071 278.241741 
L 312.974864 268.849754 
L 313.093663 268.506987 
L 313.153062 268.537041 
L 313.271861 268.989866 
L 313.509459 271.234232 
L 314.341051 280.828649 
L 314.45985 281.035349 
L 314.578649 280.821041 
L 314.756847 279.788069 
L 315.232043 274.883672 
L 315.52904 272.703118 
L 315.647839 272.481801 
L 315.766638 272.726005 
L 315.944836 273.988667 
L 316.301233 278.978054 
L 316.717029 284.372208 
L 316.895227 284.835007 
L 317.014026 284.321079 
L 317.251624 281.593161 
L 318.142615 268.877334 
L 318.439612 267.498173 
L 318.558411 267.397408 
L 318.67721 267.56876 
L 318.855408 268.361577 
L 319.152406 271.082893 
L 319.687 278.812532 
L 320.75619 293.950093 
L 321.112587 296.769345 
L 321.290785 297.203227 
L 321.409584 297.135416 
L 321.587783 296.621625 
L 322.359975 293.777071 
L 322.597573 293.614568 
L 322.775771 293.751423 
L 323.013369 294.351488 
L 323.310366 295.853846 
L 323.904361 299.095355 
L 324.023159 299.169011 
L 324.141958 298.929306 
L 324.379556 297.593905 
L 325.03295 293.255736 
L 325.151749 293.186353 
L 325.329947 293.562117 
L 325.923941 295.396681 
L 326.04274 295.343017 
L 326.517936 294.716508 
L 326.577335 294.79139 
L 326.755534 295.436823 
L 327.052531 297.794118 
L 327.527726 301.634863 
L 327.705925 301.885589 
L 327.824723 301.546639 
L 328.062321 299.81787 
L 328.715715 294.147014 
L 328.893913 293.948944 
L 329.072112 294.447871 
L 329.428508 296.598418 
L 330.735296 304.70513 
L 331.151092 306.422685 
L 331.38869 306.802093 
L 331.566888 306.80029 
L 331.804486 306.470539 
L 332.339081 305.053196 
L 332.754877 304.302427 
L 333.230072 303.611418 
L 333.586469 302.400134 
L 334.061664 300.819433 
L 334.239863 300.704065 
L 334.418061 300.923272 
L 334.715058 301.851788 
L 335.368452 304.115056 
L 335.60605 304.342067 
L 335.784248 304.249804 
L 336.140645 303.659148 
L 336.972237 302.198548 
L 337.209835 302.084089 
L 337.388033 302.229953 
L 337.625631 302.786296 
L 338.576022 305.57834 
L 338.75422 305.451213 
L 339.051217 304.801911 
L 340.001608 301.818792 
L 340.476804 300.505465 
L 340.655002 300.439362 
L 340.8332 300.688492 
L 341.130198 301.682961 
L 341.96179 304.87282 
L 342.199387 305.057561 
L 342.436985 304.907594 
L 342.852781 304.578637 
L 343.090379 304.654907 
L 343.624974 304.963545 
L 343.921971 304.779389 
L 344.337767 304.546251 
L 344.634764 304.712649 
L 344.991161 304.881944 
L 345.169359 304.742557 
L 345.466357 304.125812 
L 346.000951 302.956669 
L 346.17915 302.918098 
L 346.357348 303.131757 
L 346.654345 303.976648 
L 347.545337 306.898625 
L 347.782935 307.072813 
L 347.961133 306.971169 
L 348.198731 306.504028 
L 348.555127 305.107753 
L 349.267921 302.103295 
L 349.446119 301.952116 
L 349.624317 302.075673 
L 350.39651 303.022185 
L 351.049904 303.118923 
L 351.287501 303.482476 
L 351.643898 304.507912 
L 352.356691 306.731544 
L 352.594289 306.982419 
L 352.772487 306.92617 
L 353.010085 306.486116 
L 353.307082 305.300712 
L 354.376272 299.888646 
L 354.495071 299.945701 
L 354.673269 300.354544 
L 356.574051 306.441603 
L 356.811649 306.627516 
L 356.989847 306.473387 
L 357.227445 305.852591 
L 357.583842 304.172179 
L 358.653032 298.677393 
L 359.009428 297.818245 
L 359.187627 297.842728 
L 359.365825 298.229673 
L 360.197417 300.684697 
L 360.375615 300.423557 
L 360.850811 299.529258 
L 360.96961 299.60212 
L 361.147808 300.044209 
L 361.563604 302.003568 
L 361.9794 303.502345 
L 362.276397 303.8692 
L 362.513995 303.897183 
L 362.751593 303.671426 
L 362.989191 303.010629 
L 363.345587 301.047132 
L 363.820783 298.38708 
L 363.998981 298.111315 
L 364.11778 298.231523 
L 364.355378 299.109578 
L 365.246369 303.495604 
L 365.424568 303.586637 
L 365.602766 303.401068 
L 366.19676 302.589475 
L 366.374959 302.773179 
L 366.612556 303.428216 
L 367.503548 306.44099 
L 367.681746 306.497047 
L 367.859945 306.318258 
L 368.275741 305.379511 
L 368.632137 304.823225 
L 368.810336 304.868632 
L 369.047933 305.272429 
L 369.998324 307.338491 
L 370.41412 307.542844 
L 370.770517 307.577971 
L 370.770517 307.577971 
" style="fill:none;stroke:#ff7f0e;stroke-linecap:square;stroke-width:1.5;"/>
   </g>
   <g id="patch_103">
    <path d="M 57.6 307.584 
L 57.6 41.472 
" style="fill:none;stroke:#000000;stroke-linecap:square;stroke-linejoin:miter;stroke-width:0.8;"/>
   </g>
   <g id="patch_104">
    <path d="M 414.72 307.584 
L 414.72 41.472 
" style="fill:none;stroke:#000000;stroke-linecap:square;stroke-linejoin:miter;stroke-width:0.8;"/>
   </g>
   <g id="patch_105">
    <path d="M 57.6 307.584 
L 414.72 307.584 
" style="fill:none;stroke:#000000;stroke-linecap:square;stroke-linejoin:miter;stroke-width:0.8;"/>
   </g>
   <g id="patch_106">
    <path d="M 57.6 41.472 
L 414.72 41.472 
" style="fill:none;stroke:#000000;stroke-linecap:square;stroke-linejoin:miter;stroke-width:0.8;"/>
   </g>
  </g>
 </g>
 <defs>
  <clipPath id="pa4ebe5a9c1">
   <rect height="266.112" width="357.12" x="57.6" y="41.472"/>
  </clipPath>
 </defs>
</svg>
