<?xml version="1.0" encoding="utf-8" standalone="no"?>
<!DOCTYPE svg PUBLIC "-//W3C//DTD SVG 1.1//EN"
  "http://www.w3.org/Graphics/SVG/1.1/DTD/svg11.dtd">
<!-- Created with matplotlib (https://matplotlib.org/) -->
<svg height="345.6pt" version="1.1" viewBox="0 0 460.8 345.6" width="460.8pt" xmlns="http://www.w3.org/2000/svg" xmlns:xlink="http://www.w3.org/1999/xlink">
 <defs>
  <style type="text/css">
*{stroke-linecap:butt;stroke-linejoin:round;}
  </style>
 </defs>
 <g id="figure_1">
  <g id="patch_1">
   <path d="M 0 345.6 
L 460.8 345.6 
L 460.8 0 
L 0 0 
z
" style="fill:#ffffff;"/>
  </g>
  <g id="axes_1">
   <g id="patch_2">
    <path d="M 57.6 307.584 
L 414.72 307.584 
L 414.72 41.472 
L 57.6 41.472 
z
" style="fill:#ffffff;"/>
   </g>
   <g id="patch_3">
    <path clip-path="url(#p9731c79392)" d="M 111.707944 307.584 
L 114.575735 307.584 
L 114.575735 306.065341 
L 111.707944 306.065341 
z
" style="fill:#1f77b4;"/>
   </g>
   <g id="patch_4">
    <path clip-path="url(#p9731c79392)" d="M 114.575735 307.584 
L 117.443533 307.584 
L 117.443533 303.787361 
L 114.575735 303.787361 
z
" style="fill:#1f77b4;"/>
   </g>
   <g id="patch_5">
    <path clip-path="url(#p9731c79392)" d="M 117.443533 307.584 
L 120.311323 307.584 
L 120.311323 303.028022 
L 117.443533 303.028022 
z
" style="fill:#1f77b4;"/>
   </g>
   <g id="patch_6">
    <path clip-path="url(#p9731c79392)" d="M 120.311323 307.584 
L 123.179114 307.584 
L 123.179114 305.306011 
L 120.311323 305.306011 
z
" style="fill:#1f77b4;"/>
   </g>
   <g id="patch_7">
    <path clip-path="url(#p9731c79392)" d="M 123.179121 307.584 
L 126.046919 307.584 
L 126.046919 306.824672 
L 123.179121 306.824672 
z
" style="fill:#1f77b4;"/>
   </g>
   <g id="patch_8">
    <path clip-path="url(#p9731c79392)" d="M 126.046912 307.584 
L 128.914703 307.584 
L 128.914703 306.82467 
L 126.046912 306.82467 
z
" style="fill:#1f77b4;"/>
   </g>
   <g id="patch_9">
    <path clip-path="url(#p9731c79392)" d="M 128.914703 307.584 
L 131.7825 307.584 
L 131.7825 307.584 
L 128.914703 307.584 
z
" style="fill:#1f77b4;"/>
   </g>
   <g id="patch_10">
    <path clip-path="url(#p9731c79392)" d="M 131.7825 307.584 
L 134.650291 307.584 
L 134.650291 307.584 
L 131.7825 307.584 
z
" style="fill:#1f77b4;"/>
   </g>
   <g id="patch_11">
    <path clip-path="url(#p9731c79392)" d="M 134.650291 307.584 
L 137.518082 307.584 
L 137.518082 303.787352 
L 134.650291 303.787352 
z
" style="fill:#1f77b4;"/>
   </g>
   <g id="patch_12">
    <path clip-path="url(#p9731c79392)" d="M 137.518089 307.584 
L 140.385887 307.584 
L 140.385887 305.306017 
L 137.518089 305.306017 
z
" style="fill:#1f77b4;"/>
   </g>
   <g id="patch_13">
    <path clip-path="url(#p9731c79392)" d="M 140.38588 307.584 
L 143.25367 307.584 
L 143.25367 303.028022 
L 140.38588 303.028022 
z
" style="fill:#1f77b4;"/>
   </g>
   <g id="patch_14">
    <path clip-path="url(#p9731c79392)" d="M 143.25367 307.584 
L 146.121461 307.584 
L 146.121461 303.028022 
L 143.25367 303.028022 
z
" style="fill:#1f77b4;"/>
   </g>
   <g id="patch_15">
    <path clip-path="url(#p9731c79392)" d="M 146.121461 307.584 
L 148.989259 307.584 
L 148.989259 300.75005 
L 146.121461 300.75005 
z
" style="fill:#1f77b4;"/>
   </g>
   <g id="patch_16">
    <path clip-path="url(#p9731c79392)" d="M 148.989259 307.584 
L 151.85705 307.584 
L 151.85705 299.231374 
L 148.989259 299.231374 
z
" style="fill:#1f77b4;"/>
   </g>
   <g id="patch_17">
    <path clip-path="url(#p9731c79392)" d="M 151.85705 307.584 
L 154.724841 307.584 
L 154.724841 297.712714 
L 151.85705 297.712714 
z
" style="fill:#1f77b4;"/>
   </g>
   <g id="patch_18">
    <path clip-path="url(#p9731c79392)" d="M 154.724848 307.584 
L 157.592645 307.584 
L 157.592645 296.953411 
L 154.724848 296.953411 
z
" style="fill:#1f77b4;"/>
   </g>
   <g id="patch_19">
    <path clip-path="url(#p9731c79392)" d="M 157.592638 307.584 
L 160.460429 307.584 
L 160.460429 296.953385 
L 157.592638 296.953385 
z
" style="fill:#1f77b4;"/>
   </g>
   <g id="patch_20">
    <path clip-path="url(#p9731c79392)" d="M 160.460429 307.584 
L 163.328223 307.584 
L 163.328223 290.119439 
L 160.460429 290.119439 
z
" style="fill:#1f77b4;"/>
   </g>
   <g id="patch_21">
    <path clip-path="url(#p9731c79392)" d="M 163.328227 307.584 
L 166.196021 307.584 
L 166.196021 292.397425 
L 163.328227 292.397425 
z
" style="fill:#1f77b4;"/>
   </g>
   <g id="patch_22">
    <path clip-path="url(#p9731c79392)" d="M 166.196018 307.584 
L 169.063808 307.584 
L 169.063808 276.451484 
L 166.196018 276.451484 
z
" style="fill:#1f77b4;"/>
   </g>
   <g id="patch_23">
    <path clip-path="url(#p9731c79392)" d="M 169.063808 307.584 
L 171.931603 307.584 
L 171.931603 287.841453 
L 169.063808 287.841453 
z
" style="fill:#1f77b4;"/>
   </g>
   <g id="patch_24">
    <path clip-path="url(#p9731c79392)" d="M 171.931606 307.584 
L 174.7994 307.584 
L 174.7994 285.563467 
L 171.931606 285.563467 
z
" style="fill:#1f77b4;"/>
   </g>
   <g id="patch_25">
    <path clip-path="url(#p9731c79392)" d="M 174.799397 307.584 
L 177.667191 307.584 
L 177.667191 278.729508 
L 174.799397 278.729508 
z
" style="fill:#1f77b4;"/>
   </g>
   <g id="patch_26">
    <path clip-path="url(#p9731c79392)" d="M 177.667191 307.584 
L 180.534982 307.584 
L 180.534982 276.451484 
L 177.667191 276.451484 
z
" style="fill:#1f77b4;"/>
   </g>
   <g id="patch_27">
    <path clip-path="url(#p9731c79392)" d="M 180.534985 307.584 
L 183.40278 307.584 
L 183.40278 266.580249 
L 180.534985 266.580249 
z
" style="fill:#1f77b4;"/>
   </g>
   <g id="patch_28">
    <path clip-path="url(#p9731c79392)" d="M 183.402776 307.584 
L 186.27057 307.584 
L 186.27057 269.617564 
L 183.402776 269.617564 
z
" style="fill:#1f77b4;"/>
   </g>
   <g id="patch_29">
    <path clip-path="url(#p9731c79392)" d="M 186.27057 307.584 
L 189.138361 307.584 
L 189.138361 268.098858 
L 186.27057 268.098858 
z
" style="fill:#1f77b4;"/>
   </g>
   <g id="patch_30">
    <path clip-path="url(#p9731c79392)" d="M 189.138365 307.584 
L 192.006159 307.584 
L 192.006159 265.061591 
L 189.138365 265.061591 
z
" style="fill:#1f77b4;"/>
   </g>
   <g id="patch_31">
    <path clip-path="url(#p9731c79392)" d="M 192.006155 307.584 
L 194.87395 307.584 
L 194.87395 255.949647 
L 192.006155 255.949647 
z
" style="fill:#1f77b4;"/>
   </g>
   <g id="patch_32">
    <path clip-path="url(#p9731c79392)" d="M 194.87395 307.584 
L 197.741742 307.584 
L 197.741742 263.542907 
L 194.87395 263.542907 
z
" style="fill:#1f77b4;"/>
   </g>
   <g id="patch_33">
    <path clip-path="url(#p9731c79392)" d="M 197.741742 307.584 
L 200.609537 307.584 
L 200.609537 249.875017 
L 197.741742 249.875017 
z
" style="fill:#1f77b4;"/>
   </g>
   <g id="patch_34">
    <path clip-path="url(#p9731c79392)" d="M 200.609538 307.584 
L 203.477331 307.584 
L 203.477331 247.596994 
L 200.609538 247.596994 
z
" style="fill:#1f77b4;"/>
   </g>
   <g id="patch_35">
    <path clip-path="url(#p9731c79392)" d="M 203.477329 307.584 
L 206.345123 307.584 
L 206.345123 253.671661 
L 203.477329 253.671661 
z
" style="fill:#1f77b4;"/>
   </g>
   <g id="patch_36">
    <path clip-path="url(#p9731c79392)" d="M 206.345123 307.584 
L 209.212916 307.584 
L 209.212916 248.356323 
L 206.345123 248.356323 
z
" style="fill:#1f77b4;"/>
   </g>
   <g id="patch_37">
    <path clip-path="url(#p9731c79392)" d="M 209.212916 307.584 
L 212.080709 307.584 
L 212.080709 239.244394 
L 209.212916 239.244394 
z
" style="fill:#1f77b4;"/>
   </g>
   <g id="patch_38">
    <path clip-path="url(#p9731c79392)" d="M 212.080709 307.584 
L 214.948502 307.584 
L 214.948502 217.983169 
L 212.080709 217.983169 
z
" style="fill:#1f77b4;"/>
   </g>
   <g id="patch_39">
    <path clip-path="url(#p9731c79392)" d="M 214.948502 307.584 
L 217.816296 307.584 
L 217.816296 203.555933 
L 214.948502 203.555933 
z
" style="fill:#1f77b4;"/>
   </g>
   <g id="patch_40">
    <path clip-path="url(#p9731c79392)" d="M 217.816296 307.584 
L 220.684089 307.584 
L 220.684089 180.776064 
L 217.816296 180.776064 
z
" style="fill:#1f77b4;"/>
   </g>
   <g id="patch_41">
    <path clip-path="url(#p9731c79392)" d="M 220.684089 307.584 
L 223.551882 307.584 
L 223.551882 123.067063 
L 220.684089 123.067063 
z
" style="fill:#1f77b4;"/>
   </g>
   <g id="patch_42">
    <path clip-path="url(#p9731c79392)" d="M 223.551882 307.584 
L 226.419675 307.584 
L 226.419675 170.145437 
L 223.551882 170.145437 
z
" style="fill:#1f77b4;"/>
   </g>
   <g id="patch_43">
    <path clip-path="url(#p9731c79392)" d="M 226.419675 307.584 
L 229.287469 307.584 
L 229.287469 198.999959 
L 226.419675 198.999959 
z
" style="fill:#1f77b4;"/>
   </g>
   <g id="patch_44">
    <path clip-path="url(#p9731c79392)" d="M 229.287469 307.584 
L 232.155263 307.584 
L 232.155263 209.630564 
L 229.287469 209.630564 
z
" style="fill:#1f77b4;"/>
   </g>
   <g id="patch_45">
    <path clip-path="url(#p9731c79392)" d="M 232.155261 307.584 
L 235.023055 307.584 
L 235.023055 204.315262 
L 232.155261 204.315262 
z
" style="fill:#1f77b4;"/>
   </g>
   <g id="patch_46">
    <path clip-path="url(#p9731c79392)" d="M 235.023056 307.584 
L 237.890848 307.584 
L 237.890848 210.389863 
L 235.023056 210.389863 
z
" style="fill:#1f77b4;"/>
   </g>
   <g id="patch_47">
    <path clip-path="url(#p9731c79392)" d="M 237.890848 307.584 
L 240.758642 307.584 
L 240.758642 225.576498 
L 237.890848 225.576498 
z
" style="fill:#1f77b4;"/>
   </g>
   <g id="patch_48">
    <path clip-path="url(#p9731c79392)" d="M 240.758644 307.584 
L 243.626437 307.584 
L 243.626437 228.613764 
L 240.758644 228.613764 
z
" style="fill:#1f77b4;"/>
   </g>
   <g id="patch_49">
    <path clip-path="url(#p9731c79392)" d="M 243.626435 307.584 
L 246.494229 307.584 
L 246.494229 234.688442 
L 243.626435 234.688442 
z
" style="fill:#1f77b4;"/>
   </g>
   <g id="patch_50">
    <path clip-path="url(#p9731c79392)" d="M 246.494229 307.584 
L 249.362022 307.584 
L 249.362022 215.705168 
L 246.494229 215.705168 
z
" style="fill:#1f77b4;"/>
   </g>
   <g id="patch_51">
    <path clip-path="url(#p9731c79392)" d="M 249.362023 307.584 
L 252.229818 307.584 
L 252.229818 224.057789 
L 249.362023 224.057789 
z
" style="fill:#1f77b4;"/>
   </g>
   <g id="patch_52">
    <path clip-path="url(#p9731c79392)" d="M 252.229818 307.584 
L 255.097612 307.584 
L 255.097612 221.020525 
L 252.229818 221.020525 
z
" style="fill:#1f77b4;"/>
   </g>
   <g id="patch_53">
    <path clip-path="url(#p9731c79392)" d="M 255.097608 307.584 
L 257.965403 307.584 
L 257.965403 235.447771 
L 255.097608 235.447771 
z
" style="fill:#1f77b4;"/>
   </g>
   <g id="patch_54">
    <path clip-path="url(#p9731c79392)" d="M 257.965403 307.584 
L 260.833193 307.584 
L 260.833193 233.169693 
L 257.965403 233.169693 
z
" style="fill:#1f77b4;"/>
   </g>
   <g id="patch_55">
    <path clip-path="url(#p9731c79392)" d="M 260.833197 307.584 
L 263.700991 307.584 
L 263.700991 230.13247 
L 260.833197 230.13247 
z
" style="fill:#1f77b4;"/>
   </g>
   <g id="patch_56">
    <path clip-path="url(#p9731c79392)" d="M 263.700988 307.584 
L 266.568782 307.584 
L 266.568782 238.485086 
L 263.700988 238.485086 
z
" style="fill:#1f77b4;"/>
   </g>
   <g id="patch_57">
    <path clip-path="url(#p9731c79392)" d="M 266.568785 307.584 
L 269.43658 307.584 
L 269.43658 221.020525 
L 266.568785 221.020525 
z
" style="fill:#1f77b4;"/>
   </g>
   <g id="patch_58">
    <path clip-path="url(#p9731c79392)" d="M 269.436576 307.584 
L 272.304367 307.584 
L 272.304367 230.891704 
L 269.436576 230.891704 
z
" style="fill:#1f77b4;"/>
   </g>
   <g id="patch_59">
    <path clip-path="url(#p9731c79392)" d="M 272.304367 307.584 
L 275.172161 307.584 
L 275.172161 251.393674 
L 272.304367 251.393674 
z
" style="fill:#1f77b4;"/>
   </g>
   <g id="patch_60">
    <path clip-path="url(#p9731c79392)" d="M 275.172165 307.584 
L 278.039959 307.584 
L 278.039959 224.817169 
L 275.172165 224.817169 
z
" style="fill:#1f77b4;"/>
   </g>
   <g id="patch_61">
    <path clip-path="url(#p9731c79392)" d="M 278.039956 307.584 
L 280.907746 307.584 
L 280.907746 241.522319 
L 278.039956 241.522319 
z
" style="fill:#1f77b4;"/>
   </g>
   <g id="patch_62">
    <path clip-path="url(#p9731c79392)" d="M 280.90775 307.584 
L 283.775544 307.584 
L 283.775544 232.410549 
L 280.90775 232.410549 
z
" style="fill:#1f77b4;"/>
   </g>
   <g id="patch_63">
    <path clip-path="url(#p9731c79392)" d="M 283.775544 307.584 
L 286.643335 307.584 
L 286.643335 247.596957 
L 283.775544 247.596957 
z
" style="fill:#1f77b4;"/>
   </g>
   <g id="patch_64">
    <path clip-path="url(#p9731c79392)" d="M 286.643335 307.584 
L 289.511126 307.584 
L 289.511126 258.986902 
L 286.643335 258.986902 
z
" style="fill:#1f77b4;"/>
   </g>
   <g id="patch_65">
    <path clip-path="url(#p9731c79392)" d="M 289.511126 307.584 
L 292.378923 307.584 
L 292.378923 265.820972 
L 289.511126 265.820972 
z
" style="fill:#1f77b4;"/>
   </g>
   <g id="patch_66">
    <path clip-path="url(#p9731c79392)" d="M 292.378923 307.584 
L 295.246714 307.584 
L 295.246714 268.098858 
L 292.378923 268.098858 
z
" style="fill:#1f77b4;"/>
   </g>
   <g id="patch_67">
    <path clip-path="url(#p9731c79392)" d="M 295.246714 307.584 
L 298.114505 307.584 
L 298.114505 269.617517 
L 295.246714 269.617517 
z
" style="fill:#1f77b4;"/>
   </g>
   <g id="patch_68">
    <path clip-path="url(#p9731c79392)" d="M 298.114512 307.584 
L 300.98231 307.584 
L 300.98231 265.820972 
L 298.114512 265.820972 
z
" style="fill:#1f77b4;"/>
   </g>
   <g id="patch_69">
    <path clip-path="url(#p9731c79392)" d="M 300.982303 307.584 
L 303.850093 307.584 
L 303.850093 274.173495 
L 300.982303 274.173495 
z
" style="fill:#1f77b4;"/>
   </g>
   <g id="patch_70">
    <path clip-path="url(#p9731c79392)" d="M 303.850093 307.584 
L 306.717884 307.584 
L 306.717884 256.708913 
L 303.850093 256.708913 
z
" style="fill:#1f77b4;"/>
   </g>
   <g id="patch_71">
    <path clip-path="url(#p9731c79392)" d="M 306.717884 307.584 
L 309.585682 307.584 
L 309.585682 268.858283 
L 306.717884 268.858283 
z
" style="fill:#1f77b4;"/>
   </g>
   <g id="patch_72">
    <path clip-path="url(#p9731c79392)" d="M 309.585682 307.584 
L 312.453473 307.584 
L 312.453473 274.173495 
L 309.585682 274.173495 
z
" style="fill:#1f77b4;"/>
   </g>
   <g id="patch_73">
    <path clip-path="url(#p9731c79392)" d="M 312.45348 307.584 
L 315.321278 307.584 
L 315.321278 269.617611 
L 312.45348 269.617611 
z
" style="fill:#1f77b4;"/>
   </g>
   <g id="patch_74">
    <path clip-path="url(#p9731c79392)" d="M 315.321271 307.584 
L 318.189061 307.584 
L 318.189061 268.098858 
L 315.321271 268.098858 
z
" style="fill:#1f77b4;"/>
   </g>
   <g id="patch_75">
    <path clip-path="url(#p9731c79392)" d="M 318.189061 307.584 
L 321.056852 307.584 
L 321.056852 272.654836 
L 318.189061 272.654836 
z
" style="fill:#1f77b4;"/>
   </g>
   <g id="patch_76">
    <path clip-path="url(#p9731c79392)" d="M 321.056852 307.584 
L 323.92465 307.584 
L 323.92465 281.007527 
L 321.056852 281.007527 
z
" style="fill:#1f77b4;"/>
   </g>
   <g id="patch_77">
    <path clip-path="url(#p9731c79392)" d="M 323.92465 307.584 
L 326.792441 307.584 
L 326.792441 274.173495 
L 323.92465 274.173495 
z
" style="fill:#1f77b4;"/>
   </g>
   <g id="patch_78">
    <path clip-path="url(#p9731c79392)" d="M 326.792441 307.584 
L 329.660231 307.584 
L 329.660231 288.600758 
L 326.792441 288.600758 
z
" style="fill:#1f77b4;"/>
   </g>
   <g id="patch_79">
    <path clip-path="url(#p9731c79392)" d="M 329.660238 307.584 
L 332.528036 307.584 
L 332.528036 296.194083 
L 329.660238 296.194083 
z
" style="fill:#1f77b4;"/>
   </g>
   <g id="patch_80">
    <path clip-path="url(#p9731c79392)" d="M 332.528029 307.584 
L 335.39582 307.584 
L 335.39582 297.712714 
L 332.528029 297.712714 
z
" style="fill:#1f77b4;"/>
   </g>
   <g id="patch_81">
    <path clip-path="url(#p9731c79392)" d="M 335.39582 307.584 
L 338.263611 307.584 
L 338.263611 302.268692 
L 335.39582 302.268692 
z
" style="fill:#1f77b4;"/>
   </g>
   <g id="patch_82">
    <path clip-path="url(#p9731c79392)" d="M 338.263611 307.584 
L 341.131401 307.584 
L 341.131401 302.268692 
L 338.263611 302.268692 
z
" style="fill:#1f77b4;"/>
   </g>
   <g id="patch_83">
    <path clip-path="url(#p9731c79392)" d="M 341.131415 307.584 
L 343.99922 307.584 
L 343.99922 301.509393 
L 341.131415 301.509393 
z
" style="fill:#1f77b4;"/>
   </g>
   <g id="patch_84">
    <path clip-path="url(#p9731c79392)" d="M 343.999206 307.584 
L 346.866997 307.584 
L 346.866997 301.509363 
L 343.999206 301.509363 
z
" style="fill:#1f77b4;"/>
   </g>
   <g id="patch_85">
    <path clip-path="url(#p9731c79392)" d="M 346.866997 307.584 
L 349.734788 307.584 
L 349.734788 304.546681 
L 346.866997 304.546681 
z
" style="fill:#1f77b4;"/>
   </g>
   <g id="patch_86">
    <path clip-path="url(#p9731c79392)" d="M 349.734788 307.584 
L 352.602578 307.584 
L 352.602578 303.028022 
L 349.734788 303.028022 
z
" style="fill:#1f77b4;"/>
   </g>
   <g id="patch_87">
    <path clip-path="url(#p9731c79392)" d="M 352.602578 307.584 
L 355.470369 307.584 
L 355.470369 300.750033 
L 352.602578 300.750033 
z
" style="fill:#1f77b4;"/>
   </g>
   <g id="patch_88">
    <path clip-path="url(#p9731c79392)" d="M 355.470369 307.584 
L 358.33816 307.584 
L 358.33816 300.750033 
L 355.470369 300.750033 
z
" style="fill:#1f77b4;"/>
   </g>
   <g id="patch_89">
    <path clip-path="url(#p9731c79392)" d="M 358.33816 307.584 
L 361.205965 307.584 
L 361.205965 297.712763 
L 358.33816 297.712763 
z
" style="fill:#1f77b4;"/>
   </g>
   <g id="patch_90">
    <path clip-path="url(#p9731c79392)" d="M 361.205965 307.584 
L 364.073756 307.584 
L 364.073756 303.028022 
L 361.205965 303.028022 
z
" style="fill:#1f77b4;"/>
   </g>
   <g id="patch_91">
    <path clip-path="url(#p9731c79392)" d="M 364.073756 307.584 
L 366.941546 307.584 
L 366.941546 303.787352 
L 364.073756 303.787352 
z
" style="fill:#1f77b4;"/>
   </g>
   <g id="patch_92">
    <path clip-path="url(#p9731c79392)" d="M 366.941546 307.584 
L 369.809337 307.584 
L 369.809337 305.306011 
L 366.941546 305.306011 
z
" style="fill:#1f77b4;"/>
   </g>
   <g id="patch_93">
    <path clip-path="url(#p9731c79392)" d="M 369.809337 307.584 
L 372.677128 307.584 
L 372.677128 306.82467 
L 369.809337 306.82467 
z
" style="fill:#1f77b4;"/>
   </g>
   <g id="patch_94">
    <path clip-path="url(#p9731c79392)" d="M 372.677142 307.584 
L 375.544947 307.584 
L 375.544947 306.824674 
L 372.677142 306.824674 
z
" style="fill:#1f77b4;"/>
   </g>
   <g id="patch_95">
    <path clip-path="url(#p9731c79392)" d="M 375.544933 307.584 
L 378.412723 307.584 
L 378.412723 304.546681 
L 375.544933 304.546681 
z
" style="fill:#1f77b4;"/>
   </g>
   <g id="patch_96">
    <path clip-path="url(#p9731c79392)" d="M 378.412723 307.584 
L 381.280514 307.584 
L 381.280514 306.82467 
L 378.412723 306.82467 
z
" style="fill:#1f77b4;"/>
   </g>
   <g id="patch_97">
    <path clip-path="url(#p9731c79392)" d="M 381.280514 307.584 
L 384.148305 307.584 
L 384.148305 306.82467 
L 381.280514 306.82467 
z
" style="fill:#1f77b4;"/>
   </g>
   <g id="patch_98">
    <path clip-path="url(#p9731c79392)" d="M 384.148305 307.584 
L 387.016096 307.584 
L 387.016096 305.306011 
L 384.148305 305.306011 
z
" style="fill:#1f77b4;"/>
   </g>
   <g id="patch_99">
    <path clip-path="url(#p9731c79392)" d="M 387.016096 307.584 
L 389.883886 307.584 
L 389.883886 306.82467 
L 387.016096 306.82467 
z
" style="fill:#1f77b4;"/>
   </g>
   <g id="patch_100">
    <path clip-path="url(#p9731c79392)" d="M 389.883886 307.584 
L 392.751691 307.584 
L 392.751691 306.065348 
L 389.883886 306.065348 
z
" style="fill:#1f77b4;"/>
   </g>
   <g id="patch_101">
    <path clip-path="url(#p9731c79392)" d="M 392.751691 307.584 
L 395.619482 307.584 
L 395.619482 306.065341 
L 392.751691 306.065341 
z
" style="fill:#1f77b4;"/>
   </g>
   <g id="patch_102">
    <path clip-path="url(#p9731c79392)" d="M 395.619482 307.584 
L 398.487273 307.584 
L 398.487273 304.546681 
L 395.619482 304.546681 
z
" style="fill:#1f77b4;"/>
   </g>
   <g id="matplotlib.axis_1">
    <g id="xtick_1">
     <g id="line2d_1">
      <defs>
       <path d="M 0 0 
L 0 3.5 
" id="m5c41a02ffe" style="stroke:#000000;stroke-width:0.8;"/>
      </defs>
      <g>
       <use style="stroke:#000000;stroke-width:0.8;" x="103.532446" xlink:href="#m5c41a02ffe" y="307.584"/>
      </g>
     </g>
     <g id="text_1">
      <!-- −2 -->
      <defs>
       <path d="M 10.59375 35.5 
L 73.1875 35.5 
L 73.1875 27.203125 
L 10.59375 27.203125 
z
" id="DejaVuSans-8722"/>
       <path d="M 19.1875 8.296875 
L 53.609375 8.296875 
L 53.609375 0 
L 7.328125 0 
L 7.328125 8.296875 
Q 12.9375 14.109375 22.625 23.890625 
Q 32.328125 33.6875 34.8125 36.53125 
Q 39.546875 41.84375 41.421875 45.53125 
Q 43.3125 49.21875 43.3125 52.78125 
Q 43.3125 58.59375 39.234375 62.25 
Q 35.15625 65.921875 28.609375 65.921875 
Q 23.96875 65.921875 18.8125 64.3125 
Q 13.671875 62.703125 7.8125 59.421875 
L 7.8125 69.390625 
Q 13.765625 71.78125 18.9375 73 
Q 24.125 74.21875 28.421875 74.21875 
Q 39.75 74.21875 46.484375 68.546875 
Q 53.21875 62.890625 53.21875 53.421875 
Q 53.21875 48.921875 51.53125 44.890625 
Q 49.859375 40.875 45.40625 35.40625 
Q 44.1875 33.984375 37.640625 27.21875 
Q 31.109375 20.453125 19.1875 8.296875 
z
" id="DejaVuSans-50"/>
      </defs>
      <g transform="translate(91.001587 327.501344)scale(0.17 -0.17)">
       <use xlink:href="#DejaVuSans-8722"/>
       <use x="83.789062" xlink:href="#DejaVuSans-50"/>
      </g>
     </g>
    </g>
    <g id="xtick_2">
     <g id="line2d_2">
      <g>
       <use style="stroke:#000000;stroke-width:0.8;" x="162.931884" xlink:href="#m5c41a02ffe" y="307.584"/>
      </g>
     </g>
     <g id="text_2">
      <!-- −1 -->
      <defs>
       <path d="M 12.40625 8.296875 
L 28.515625 8.296875 
L 28.515625 63.921875 
L 10.984375 60.40625 
L 10.984375 69.390625 
L 28.421875 72.90625 
L 38.28125 72.90625 
L 38.28125 8.296875 
L 54.390625 8.296875 
L 54.390625 0 
L 12.40625 0 
z
" id="DejaVuSans-49"/>
      </defs>
      <g transform="translate(150.401025 327.501344)scale(0.17 -0.17)">
       <use xlink:href="#DejaVuSans-8722"/>
       <use x="83.789062" xlink:href="#DejaVuSans-49"/>
      </g>
     </g>
    </g>
    <g id="xtick_3">
     <g id="line2d_3">
      <g>
       <use style="stroke:#000000;stroke-width:0.8;" x="222.331322" xlink:href="#m5c41a02ffe" y="307.584"/>
      </g>
     </g>
     <g id="text_3">
      <!-- 0 -->
      <defs>
       <path d="M 31.78125 66.40625 
Q 24.171875 66.40625 20.328125 58.90625 
Q 16.5 51.421875 16.5 36.375 
Q 16.5 21.390625 20.328125 13.890625 
Q 24.171875 6.390625 31.78125 6.390625 
Q 39.453125 6.390625 43.28125 13.890625 
Q 47.125 21.390625 47.125 36.375 
Q 47.125 51.421875 43.28125 58.90625 
Q 39.453125 66.40625 31.78125 66.40625 
z
M 31.78125 74.21875 
Q 44.046875 74.21875 50.515625 64.515625 
Q 56.984375 54.828125 56.984375 36.375 
Q 56.984375 17.96875 50.515625 8.265625 
Q 44.046875 -1.421875 31.78125 -1.421875 
Q 19.53125 -1.421875 13.0625 8.265625 
Q 6.59375 17.96875 6.59375 36.375 
Q 6.59375 54.828125 13.0625 64.515625 
Q 19.53125 74.21875 31.78125 74.21875 
z
" id="DejaVuSans-48"/>
      </defs>
      <g transform="translate(216.923197 327.501344)scale(0.17 -0.17)">
       <use xlink:href="#DejaVuSans-48"/>
      </g>
     </g>
    </g>
    <g id="xtick_4">
     <g id="line2d_4">
      <g>
       <use style="stroke:#000000;stroke-width:0.8;" x="281.73076" xlink:href="#m5c41a02ffe" y="307.584"/>
      </g>
     </g>
     <g id="text_4">
      <!-- 1 -->
      <g transform="translate(276.322635 327.501344)scale(0.17 -0.17)">
       <use xlink:href="#DejaVuSans-49"/>
      </g>
     </g>
    </g>
    <g id="xtick_5">
     <g id="line2d_5">
      <g>
       <use style="stroke:#000000;stroke-width:0.8;" x="341.130198" xlink:href="#m5c41a02ffe" y="307.584"/>
      </g>
     </g>
     <g id="text_5">
      <!-- 2 -->
      <g transform="translate(335.722073 327.501344)scale(0.17 -0.17)">
       <use xlink:href="#DejaVuSans-50"/>
      </g>
     </g>
    </g>
    <g id="xtick_6">
     <g id="line2d_6">
      <g>
       <use style="stroke:#000000;stroke-width:0.8;" x="400.529635" xlink:href="#m5c41a02ffe" y="307.584"/>
      </g>
     </g>
     <g id="text_6">
      <!-- 3 -->
      <defs>
       <path d="M 40.578125 39.3125 
Q 47.65625 37.796875 51.625 33 
Q 55.609375 28.21875 55.609375 21.1875 
Q 55.609375 10.40625 48.1875 4.484375 
Q 40.765625 -1.421875 27.09375 -1.421875 
Q 22.515625 -1.421875 17.65625 -0.515625 
Q 12.796875 0.390625 7.625 2.203125 
L 7.625 11.71875 
Q 11.71875 9.328125 16.59375 8.109375 
Q 21.484375 6.890625 26.8125 6.890625 
Q 36.078125 6.890625 40.9375 10.546875 
Q 45.796875 14.203125 45.796875 21.1875 
Q 45.796875 27.640625 41.28125 31.265625 
Q 36.765625 34.90625 28.71875 34.90625 
L 20.21875 34.90625 
L 20.21875 43.015625 
L 29.109375 43.015625 
Q 36.375 43.015625 40.234375 45.921875 
Q 44.09375 48.828125 44.09375 54.296875 
Q 44.09375 59.90625 40.109375 62.90625 
Q 36.140625 65.921875 28.71875 65.921875 
Q 24.65625 65.921875 20.015625 65.03125 
Q 15.375 64.15625 9.8125 62.3125 
L 9.8125 71.09375 
Q 15.4375 72.65625 20.34375 73.4375 
Q 25.25 74.21875 29.59375 74.21875 
Q 40.828125 74.21875 47.359375 69.109375 
Q 53.90625 64.015625 53.90625 55.328125 
Q 53.90625 49.265625 50.4375 45.09375 
Q 46.96875 40.921875 40.578125 39.3125 
z
" id="DejaVuSans-51"/>
      </defs>
      <g transform="translate(395.12151 327.501344)scale(0.17 -0.17)">
       <use xlink:href="#DejaVuSans-51"/>
      </g>
     </g>
    </g>
    <g id="text_7">
     <!-- Position in Radian -->
     <defs>
      <path d="M 19.671875 64.796875 
L 19.671875 37.40625 
L 32.078125 37.40625 
Q 38.96875 37.40625 42.71875 40.96875 
Q 46.484375 44.53125 46.484375 51.125 
Q 46.484375 57.671875 42.71875 61.234375 
Q 38.96875 64.796875 32.078125 64.796875 
z
M 9.8125 72.90625 
L 32.078125 72.90625 
Q 44.34375 72.90625 50.609375 67.359375 
Q 56.890625 61.8125 56.890625 51.125 
Q 56.890625 40.328125 50.609375 34.8125 
Q 44.34375 29.296875 32.078125 29.296875 
L 19.671875 29.296875 
L 19.671875 0 
L 9.8125 0 
z
" id="DejaVuSans-80"/>
      <path d="M 30.609375 48.390625 
Q 23.390625 48.390625 19.1875 42.75 
Q 14.984375 37.109375 14.984375 27.296875 
Q 14.984375 17.484375 19.15625 11.84375 
Q 23.34375 6.203125 30.609375 6.203125 
Q 37.796875 6.203125 41.984375 11.859375 
Q 46.1875 17.53125 46.1875 27.296875 
Q 46.1875 37.015625 41.984375 42.703125 
Q 37.796875 48.390625 30.609375 48.390625 
z
M 30.609375 56 
Q 42.328125 56 49.015625 48.375 
Q 55.71875 40.765625 55.71875 27.296875 
Q 55.71875 13.875 49.015625 6.21875 
Q 42.328125 -1.421875 30.609375 -1.421875 
Q 18.84375 -1.421875 12.171875 6.21875 
Q 5.515625 13.875 5.515625 27.296875 
Q 5.515625 40.765625 12.171875 48.375 
Q 18.84375 56 30.609375 56 
z
" id="DejaVuSans-111"/>
      <path d="M 44.28125 53.078125 
L 44.28125 44.578125 
Q 40.484375 46.53125 36.375 47.5 
Q 32.28125 48.484375 27.875 48.484375 
Q 21.1875 48.484375 17.84375 46.4375 
Q 14.5 44.390625 14.5 40.28125 
Q 14.5 37.15625 16.890625 35.375 
Q 19.28125 33.59375 26.515625 31.984375 
L 29.59375 31.296875 
Q 39.15625 29.25 43.1875 25.515625 
Q 47.21875 21.78125 47.21875 15.09375 
Q 47.21875 7.46875 41.1875 3.015625 
Q 35.15625 -1.421875 24.609375 -1.421875 
Q 20.21875 -1.421875 15.453125 -0.5625 
Q 10.6875 0.296875 5.421875 2 
L 5.421875 11.28125 
Q 10.40625 8.6875 15.234375 7.390625 
Q 20.0625 6.109375 24.8125 6.109375 
Q 31.15625 6.109375 34.5625 8.28125 
Q 37.984375 10.453125 37.984375 14.40625 
Q 37.984375 18.0625 35.515625 20.015625 
Q 33.0625 21.96875 24.703125 23.78125 
L 21.578125 24.515625 
Q 13.234375 26.265625 9.515625 29.90625 
Q 5.8125 33.546875 5.8125 39.890625 
Q 5.8125 47.609375 11.28125 51.796875 
Q 16.75 56 26.8125 56 
Q 31.78125 56 36.171875 55.265625 
Q 40.578125 54.546875 44.28125 53.078125 
z
" id="DejaVuSans-115"/>
      <path d="M 9.421875 54.6875 
L 18.40625 54.6875 
L 18.40625 0 
L 9.421875 0 
z
M 9.421875 75.984375 
L 18.40625 75.984375 
L 18.40625 64.59375 
L 9.421875 64.59375 
z
" id="DejaVuSans-105"/>
      <path d="M 18.3125 70.21875 
L 18.3125 54.6875 
L 36.8125 54.6875 
L 36.8125 47.703125 
L 18.3125 47.703125 
L 18.3125 18.015625 
Q 18.3125 11.328125 20.140625 9.421875 
Q 21.96875 7.515625 27.59375 7.515625 
L 36.8125 7.515625 
L 36.8125 0 
L 27.59375 0 
Q 17.1875 0 13.234375 3.875 
Q 9.28125 7.765625 9.28125 18.015625 
L 9.28125 47.703125 
L 2.6875 47.703125 
L 2.6875 54.6875 
L 9.28125 54.6875 
L 9.28125 70.21875 
z
" id="DejaVuSans-116"/>
      <path d="M 54.890625 33.015625 
L 54.890625 0 
L 45.90625 0 
L 45.90625 32.71875 
Q 45.90625 40.484375 42.875 44.328125 
Q 39.84375 48.1875 33.796875 48.1875 
Q 26.515625 48.1875 22.3125 43.546875 
Q 18.109375 38.921875 18.109375 30.90625 
L 18.109375 0 
L 9.078125 0 
L 9.078125 54.6875 
L 18.109375 54.6875 
L 18.109375 46.1875 
Q 21.34375 51.125 25.703125 53.5625 
Q 30.078125 56 35.796875 56 
Q 45.21875 56 50.046875 50.171875 
Q 54.890625 44.34375 54.890625 33.015625 
z
" id="DejaVuSans-110"/>
      <path id="DejaVuSans-32"/>
      <path d="M 44.390625 34.1875 
Q 47.5625 33.109375 50.5625 29.59375 
Q 53.5625 26.078125 56.59375 19.921875 
L 66.609375 0 
L 56 0 
L 46.6875 18.703125 
Q 43.0625 26.03125 39.671875 28.421875 
Q 36.28125 30.8125 30.421875 30.8125 
L 19.671875 30.8125 
L 19.671875 0 
L 9.8125 0 
L 9.8125 72.90625 
L 32.078125 72.90625 
Q 44.578125 72.90625 50.734375 67.671875 
Q 56.890625 62.453125 56.890625 51.90625 
Q 56.890625 45.015625 53.6875 40.46875 
Q 50.484375 35.9375 44.390625 34.1875 
z
M 19.671875 64.796875 
L 19.671875 38.921875 
L 32.078125 38.921875 
Q 39.203125 38.921875 42.84375 42.21875 
Q 46.484375 45.515625 46.484375 51.90625 
Q 46.484375 58.296875 42.84375 61.546875 
Q 39.203125 64.796875 32.078125 64.796875 
z
" id="DejaVuSans-82"/>
      <path d="M 34.28125 27.484375 
Q 23.390625 27.484375 19.1875 25 
Q 14.984375 22.515625 14.984375 16.5 
Q 14.984375 11.71875 18.140625 8.90625 
Q 21.296875 6.109375 26.703125 6.109375 
Q 34.1875 6.109375 38.703125 11.40625 
Q 43.21875 16.703125 43.21875 25.484375 
L 43.21875 27.484375 
z
M 52.203125 31.203125 
L 52.203125 0 
L 43.21875 0 
L 43.21875 8.296875 
Q 40.140625 3.328125 35.546875 0.953125 
Q 30.953125 -1.421875 24.3125 -1.421875 
Q 15.921875 -1.421875 10.953125 3.296875 
Q 6 8.015625 6 15.921875 
Q 6 25.140625 12.171875 29.828125 
Q 18.359375 34.515625 30.609375 34.515625 
L 43.21875 34.515625 
L 43.21875 35.40625 
Q 43.21875 41.609375 39.140625 45 
Q 35.0625 48.390625 27.6875 48.390625 
Q 23 48.390625 18.546875 47.265625 
Q 14.109375 46.140625 10.015625 43.890625 
L 10.015625 52.203125 
Q 14.9375 54.109375 19.578125 55.046875 
Q 24.21875 56 28.609375 56 
Q 40.484375 56 46.34375 49.84375 
Q 52.203125 43.703125 52.203125 31.203125 
z
" id="DejaVuSans-97"/>
      <path d="M 45.40625 46.390625 
L 45.40625 75.984375 
L 54.390625 75.984375 
L 54.390625 0 
L 45.40625 0 
L 45.40625 8.203125 
Q 42.578125 3.328125 38.25 0.953125 
Q 33.9375 -1.421875 27.875 -1.421875 
Q 17.96875 -1.421875 11.734375 6.484375 
Q 5.515625 14.40625 5.515625 27.296875 
Q 5.515625 40.1875 11.734375 48.09375 
Q 17.96875 56 27.875 56 
Q 33.9375 56 38.25 53.625 
Q 42.578125 51.265625 45.40625 46.390625 
z
M 14.796875 27.296875 
Q 14.796875 17.390625 18.875 11.75 
Q 22.953125 6.109375 30.078125 6.109375 
Q 37.203125 6.109375 41.296875 11.75 
Q 45.40625 17.390625 45.40625 27.296875 
Q 45.40625 37.203125 41.296875 42.84375 
Q 37.203125 48.484375 30.078125 48.484375 
Q 22.953125 48.484375 18.875 42.84375 
Q 14.796875 37.203125 14.796875 27.296875 
z
" id="DejaVuSans-100"/>
     </defs>
     <g transform="translate(102.024844 357.832125)scale(0.3 -0.3)">
      <use xlink:href="#DejaVuSans-80"/>
      <use x="60.255859" xlink:href="#DejaVuSans-111"/>
      <use x="121.4375" xlink:href="#DejaVuSans-115"/>
      <use x="173.537109" xlink:href="#DejaVuSans-105"/>
      <use x="201.320312" xlink:href="#DejaVuSans-116"/>
      <use x="240.529297" xlink:href="#DejaVuSans-105"/>
      <use x="268.3125" xlink:href="#DejaVuSans-111"/>
      <use x="329.494141" xlink:href="#DejaVuSans-110"/>
      <use x="392.873047" xlink:href="#DejaVuSans-32"/>
      <use x="424.660156" xlink:href="#DejaVuSans-105"/>
      <use x="452.443359" xlink:href="#DejaVuSans-110"/>
      <use x="515.822266" xlink:href="#DejaVuSans-32"/>
      <use x="547.609375" xlink:href="#DejaVuSans-82"/>
      <use x="617.060547" xlink:href="#DejaVuSans-97"/>
      <use x="678.339844" xlink:href="#DejaVuSans-100"/>
      <use x="741.816406" xlink:href="#DejaVuSans-105"/>
      <use x="769.599609" xlink:href="#DejaVuSans-97"/>
      <use x="830.878906" xlink:href="#DejaVuSans-110"/>
     </g>
    </g>
   </g>
   <g id="matplotlib.axis_2">
    <g id="ytick_1">
     <g id="line2d_7">
      <defs>
       <path d="M 0 0 
L -3.5 0 
" id="mf5cd9db99f" style="stroke:#000000;stroke-width:0.8;"/>
      </defs>
      <g>
       <use style="stroke:#000000;stroke-width:0.8;" x="57.6" xlink:href="#mf5cd9db99f" y="307.584"/>
      </g>
     </g>
     <g id="text_8">
      <!-- 0.00 -->
      <defs>
       <path d="M 10.6875 12.40625 
L 21 12.40625 
L 21 0 
L 10.6875 0 
z
" id="DejaVuSans-46"/>
      </defs>
      <g transform="translate(12.748438 314.042672)scale(0.17 -0.17)">
       <use xlink:href="#DejaVuSans-48"/>
       <use x="63.623047" xlink:href="#DejaVuSans-46"/>
       <use x="95.410156" xlink:href="#DejaVuSans-48"/>
       <use x="159.033203" xlink:href="#DejaVuSans-48"/>
      </g>
     </g>
    </g>
    <g id="ytick_2">
     <g id="line2d_8">
      <g>
       <use style="stroke:#000000;stroke-width:0.8;" x="57.6" xlink:href="#mf5cd9db99f" y="261.758681"/>
      </g>
     </g>
     <g id="text_9">
      <!-- 0.25 -->
      <defs>
       <path d="M 10.796875 72.90625 
L 49.515625 72.90625 
L 49.515625 64.59375 
L 19.828125 64.59375 
L 19.828125 46.734375 
Q 21.96875 47.46875 24.109375 47.828125 
Q 26.265625 48.1875 28.421875 48.1875 
Q 40.625 48.1875 47.75 41.5 
Q 54.890625 34.8125 54.890625 23.390625 
Q 54.890625 11.625 47.5625 5.09375 
Q 40.234375 -1.421875 26.90625 -1.421875 
Q 22.3125 -1.421875 17.546875 -0.640625 
Q 12.796875 0.140625 7.71875 1.703125 
L 7.71875 11.625 
Q 12.109375 9.234375 16.796875 8.0625 
Q 21.484375 6.890625 26.703125 6.890625 
Q 35.15625 6.890625 40.078125 11.328125 
Q 45.015625 15.765625 45.015625 23.390625 
Q 45.015625 31 40.078125 35.4375 
Q 35.15625 39.890625 26.703125 39.890625 
Q 22.75 39.890625 18.8125 39.015625 
Q 14.890625 38.140625 10.796875 36.28125 
z
" id="DejaVuSans-53"/>
      </defs>
      <g transform="translate(12.748438 268.217352)scale(0.17 -0.17)">
       <use xlink:href="#DejaVuSans-48"/>
       <use x="63.623047" xlink:href="#DejaVuSans-46"/>
       <use x="95.410156" xlink:href="#DejaVuSans-50"/>
       <use x="159.033203" xlink:href="#DejaVuSans-53"/>
      </g>
     </g>
    </g>
    <g id="ytick_3">
     <g id="line2d_9">
      <g>
       <use style="stroke:#000000;stroke-width:0.8;" x="57.6" xlink:href="#mf5cd9db99f" y="215.933361"/>
      </g>
     </g>
     <g id="text_10">
      <!-- 0.50 -->
      <g transform="translate(12.748438 222.392033)scale(0.17 -0.17)">
       <use xlink:href="#DejaVuSans-48"/>
       <use x="63.623047" xlink:href="#DejaVuSans-46"/>
       <use x="95.410156" xlink:href="#DejaVuSans-53"/>
       <use x="159.033203" xlink:href="#DejaVuSans-48"/>
      </g>
     </g>
    </g>
    <g id="ytick_4">
     <g id="line2d_10">
      <g>
       <use style="stroke:#000000;stroke-width:0.8;" x="57.6" xlink:href="#mf5cd9db99f" y="170.108042"/>
      </g>
     </g>
     <g id="text_11">
      <!-- 0.75 -->
      <defs>
       <path d="M 8.203125 72.90625 
L 55.078125 72.90625 
L 55.078125 68.703125 
L 28.609375 0 
L 18.3125 0 
L 43.21875 64.59375 
L 8.203125 64.59375 
z
" id="DejaVuSans-55"/>
      </defs>
      <g transform="translate(12.748438 176.566713)scale(0.17 -0.17)">
       <use xlink:href="#DejaVuSans-48"/>
       <use x="63.623047" xlink:href="#DejaVuSans-46"/>
       <use x="95.410156" xlink:href="#DejaVuSans-55"/>
       <use x="159.033203" xlink:href="#DejaVuSans-53"/>
      </g>
     </g>
    </g>
    <g id="ytick_5">
     <g id="line2d_11">
      <g>
       <use style="stroke:#000000;stroke-width:0.8;" x="57.6" xlink:href="#mf5cd9db99f" y="124.282722"/>
      </g>
     </g>
     <g id="text_12">
      <!-- 1.00 -->
      <g transform="translate(12.748438 130.741394)scale(0.17 -0.17)">
       <use xlink:href="#DejaVuSans-49"/>
       <use x="63.623047" xlink:href="#DejaVuSans-46"/>
       <use x="95.410156" xlink:href="#DejaVuSans-48"/>
       <use x="159.033203" xlink:href="#DejaVuSans-48"/>
      </g>
     </g>
    </g>
    <g id="ytick_6">
     <g id="line2d_12">
      <g>
       <use style="stroke:#000000;stroke-width:0.8;" x="57.6" xlink:href="#mf5cd9db99f" y="78.457403"/>
      </g>
     </g>
     <g id="text_13">
      <!-- 1.25 -->
      <g transform="translate(12.748438 84.916074)scale(0.17 -0.17)">
       <use xlink:href="#DejaVuSans-49"/>
       <use x="63.623047" xlink:href="#DejaVuSans-46"/>
       <use x="95.410156" xlink:href="#DejaVuSans-50"/>
       <use x="159.033203" xlink:href="#DejaVuSans-53"/>
      </g>
     </g>
    </g>
    <g id="text_14">
     <!-- Density -->
     <defs>
      <path d="M 19.671875 64.796875 
L 19.671875 8.109375 
L 31.59375 8.109375 
Q 46.6875 8.109375 53.6875 14.9375 
Q 60.6875 21.78125 60.6875 36.53125 
Q 60.6875 51.171875 53.6875 57.984375 
Q 46.6875 64.796875 31.59375 64.796875 
z
M 9.8125 72.90625 
L 30.078125 72.90625 
Q 51.265625 72.90625 61.171875 64.09375 
Q 71.09375 55.28125 71.09375 36.53125 
Q 71.09375 17.671875 61.125 8.828125 
Q 51.171875 0 30.078125 0 
L 9.8125 0 
z
" id="DejaVuSans-68"/>
      <path d="M 56.203125 29.59375 
L 56.203125 25.203125 
L 14.890625 25.203125 
Q 15.484375 15.921875 20.484375 11.0625 
Q 25.484375 6.203125 34.421875 6.203125 
Q 39.59375 6.203125 44.453125 7.46875 
Q 49.3125 8.734375 54.109375 11.28125 
L 54.109375 2.78125 
Q 49.265625 0.734375 44.1875 -0.34375 
Q 39.109375 -1.421875 33.890625 -1.421875 
Q 20.796875 -1.421875 13.15625 6.1875 
Q 5.515625 13.8125 5.515625 26.8125 
Q 5.515625 40.234375 12.765625 48.109375 
Q 20.015625 56 32.328125 56 
Q 43.359375 56 49.78125 48.890625 
Q 56.203125 41.796875 56.203125 29.59375 
z
M 47.21875 32.234375 
Q 47.125 39.59375 43.09375 43.984375 
Q 39.0625 48.390625 32.421875 48.390625 
Q 24.90625 48.390625 20.390625 44.140625 
Q 15.875 39.890625 15.1875 32.171875 
z
" id="DejaVuSans-101"/>
      <path d="M 32.171875 -5.078125 
Q 28.375 -14.84375 24.75 -17.8125 
Q 21.140625 -20.796875 15.09375 -20.796875 
L 7.90625 -20.796875 
L 7.90625 -13.28125 
L 13.1875 -13.28125 
Q 16.890625 -13.28125 18.9375 -11.515625 
Q 21 -9.765625 23.484375 -3.21875 
L 25.09375 0.875 
L 2.984375 54.6875 
L 12.5 54.6875 
L 29.59375 11.921875 
L 46.6875 54.6875 
L 56.203125 54.6875 
z
" id="DejaVuSans-121"/>
     </defs>
     <g transform="translate(2.509375 231.553781)rotate(-90)scale(0.3 -0.3)">
      <use xlink:href="#DejaVuSans-68"/>
      <use x="77.001953" xlink:href="#DejaVuSans-101"/>
      <use x="138.525391" xlink:href="#DejaVuSans-110"/>
      <use x="201.904297" xlink:href="#DejaVuSans-115"/>
      <use x="254.003906" xlink:href="#DejaVuSans-105"/>
      <use x="281.787109" xlink:href="#DejaVuSans-116"/>
      <use x="320.996094" xlink:href="#DejaVuSans-121"/>
     </g>
    </g>
   </g>
   <g id="line2d_13">
    <path clip-path="url(#p9731c79392)" d="M 73.832727 307.584 
L 110.333682 307.482881 
L 110.719778 307.212215 
L 111.165274 306.571539 
L 111.818668 305.676583 
L 112.175064 305.540828 
L 112.531461 305.628823 
L 112.887858 305.975656 
L 113.808549 307.065621 
L 114.046147 306.9786 
L 114.432243 306.526065 
L 114.877739 306.091958 
L 115.174736 306.107992 
L 115.590532 306.144072 
L 115.79843 305.864272 
L 116.065728 305.043355 
L 116.89732 302.054078 
L 117.045818 302.074644 
L 117.253716 302.399817 
L 117.669512 303.073493 
L 117.818011 302.995773 
L 118.025909 302.503213 
L 118.709003 300.563891 
L 118.857501 300.751036 
L 119.095099 301.587076 
L 119.896991 304.763227 
L 120.223688 305.101076 
L 121.500776 305.585808 
L 121.857173 305.494957 
L 122.569966 305.241689 
L 122.896663 305.435344 
L 123.817354 306.203889 
L 124.648946 306.178988 
L 125.064742 306.732227 
L 125.629037 307.383188 
L 126.074533 307.549704 
L 126.846726 307.555969 
L 127.321921 307.392931 
L 127.708017 307.009924 
L 128.48021 306.124805 
L 128.717808 306.200074 
L 129.074204 306.637057 
L 129.697899 307.379008 
L 130.143394 307.549015 
L 131.093785 307.583877 
L 133.826159 307.476304 
L 134.182556 307.213301 
L 134.538953 306.655118 
L 135.103247 305.259215 
L 135.90514 303.402725 
L 136.172437 303.208021 
L 136.380335 303.301267 
L 136.677333 303.734398 
L 137.508925 305.06803 
L 137.835622 305.209468 
L 138.132619 305.075411 
L 138.875112 304.579064 
L 139.320607 304.773857 
L 139.647304 304.770522 
L 140.300698 304.590932 
L 140.567996 304.896445 
L 141.043191 305.462192 
L 141.22139 305.377313 
L 141.429288 304.97499 
L 141.815384 303.611012 
L 142.409378 301.682669 
L 142.765775 301.179229 
L 143.033072 301.115459 
L 143.27067 301.28632 
L 143.627067 301.869184 
L 144.250761 302.867143 
L 144.696257 303.155105 
L 144.993254 303.144488 
L 145.260551 302.877588 
L 145.616948 302.106578 
L 146.389141 300.337588 
L 146.656438 300.196057 
L 146.923736 300.320495 
L 147.933526 300.984226 
L 148.854217 301.482212 
L 149.121515 301.251491 
L 150.339203 299.834752 
L 150.6659 299.576403 
L 150.903498 299.065097 
L 151.200495 297.793315 
L 152.002387 293.932793 
L 152.121186 294.057369 
L 152.299385 294.752662 
L 152.685481 297.552962 
L 153.101277 299.947897 
L 153.309175 300.217444 
L 153.457674 300.019743 
L 153.695271 299.145274 
L 154.051668 296.846841 
L 154.94266 290.553737 
L 155.031759 290.558584 
L 155.150558 290.891707 
L 155.358456 292.324363 
L 155.92275 298.690565 
L 156.308847 301.616785 
L 156.635544 302.640078 
L 157.110739 303.291464 
L 157.407736 303.431692 
L 157.585935 303.269035 
L 157.823532 302.673593 
L 158.387827 300.330144 
L 159.635215 294.926938 
L 160.22921 292.21351 
L 160.823204 289.685925 
L 161.417198 287.132692 
L 161.625096 286.956969 
L 161.803295 287.138846 
L 162.100292 287.917789 
L 162.664587 290.235918 
L 163.110082 291.720873 
L 163.436779 292.106678 
L 163.822876 292.486248 
L 164.565369 293.640332 
L 164.595068 293.616198 
L 164.773267 293.277445 
L 165.070264 292.088895 
L 165.545459 289.167792 
L 165.990955 284.922827 
L 166.674049 278.305352 
L 166.911646 277.635809 
L 167.119544 277.590054 
L 167.386842 277.546256 
L 167.62444 277.145039 
L 167.951137 276.618691 
L 168.069935 276.748791 
L 168.248134 277.506831 
L 168.515431 279.95742 
L 169.317324 288.145747 
L 169.465822 288.344808 
L 169.495522 288.322991 
L 169.644021 287.950118 
L 169.970717 286.207046 
L 170.356814 284.575171 
L 170.535012 284.494693 
L 170.71321 284.83596 
L 171.188406 286.582473 
L 171.633902 287.731895 
L 172.019998 288.1849 
L 172.227896 288.166023 
L 172.406094 287.878796 
L 172.643692 286.954682 
L 173.029788 284.290389 
L 173.445585 281.979507 
L 173.564383 281.877824 
L 173.594083 281.901071 
L 173.742582 282.296568 
L 174.009879 283.89087 
L 174.514774 286.822336 
L 174.692973 287.046633 
L 174.811772 286.91847 
L 175.01967 286.246028 
L 175.376066 284.128644 
L 175.880961 279.599336 
L 176.474956 274.664482 
L 176.712554 274.152037 
L 176.831352 274.285153 
L 177.039251 274.988616 
L 177.692644 277.438946 
L 177.900542 277.542019 
L 178.13814 277.361274 
L 178.524236 276.73122 
L 178.910333 275.600929 
L 179.444928 274.094886 
L 179.593426 274.078831 
L 179.771625 274.349659 
L 180.24682 275.751708 
L 180.929914 277.335308 
L 181.28631 277.868796 
L 181.405109 277.759492 
L 181.553608 277.240766 
L 181.761506 275.578807 
L 182.058503 271.063736 
L 183.127693 252.082077 
L 183.216792 251.988879 
L 183.246492 252.03244 
L 183.365291 252.562661 
L 183.602888 255.090055 
L 184.998775 273.547621 
L 185.325472 274.784666 
L 185.50367 274.84852 
L 185.652169 274.565568 
L 185.949166 273.334406 
L 186.394662 271.612144 
L 186.57286 271.535297 
L 186.721359 271.797714 
L 187.077756 273.117994 
L 187.345053 273.756791 
L 187.434152 273.707587 
L 187.582651 273.21654 
L 187.820248 271.290668 
L 188.71124 262.414349 
L 188.800339 262.476718 
L 188.948838 263.000856 
L 189.869529 267.255734 
L 190.018028 267.128502 
L 190.225926 266.544373 
L 190.582322 264.67661 
L 191.384215 260.276868 
L 192.156407 257.368794 
L 192.542504 256.040272 
L 192.691002 256.029663 
L 192.869201 256.441024 
L 193.700793 259.038146 
L 194.146289 259.237455 
L 194.354187 259.896083 
L 194.651184 261.874473 
L 195.690674 270.02395 
L 195.779773 270.072854 
L 195.809473 270.047072 
L 195.928272 269.717612 
L 196.13617 268.20924 
L 196.433167 264.039244 
L 197.621156 244.885738 
L 197.799354 244.539924 
L 197.918153 244.816977 
L 198.126051 246.15424 
L 199.195241 254.806881 
L 199.521938 255.340053 
L 200.115932 256.12346 
L 200.591128 256.797587 
L 200.709927 256.637224 
L 200.888125 255.835962 
L 201.125723 253.490963 
L 201.660318 244.956285 
L 202.016714 241.20373 
L 202.194912 240.811727 
L 202.313711 241.084726 
L 202.521609 242.348811 
L 203.323502 247.941505 
L 203.5611 248.242178 
L 203.917496 248.459488 
L 204.125394 248.979019 
L 204.481791 250.667568 
L 205.046085 253.145393 
L 205.283683 253.418715 
L 205.432182 253.284339 
L 205.64008 252.658176 
L 205.937077 250.854539 
L 206.738969 245.395919 
L 206.887468 245.307165 
L 207.035967 245.559161 
L 207.332964 246.703046 
L 207.897258 249.843901 
L 208.669451 254.479745 
L 208.78825 254.548369 
L 208.81795 254.524731 
L 208.966448 254.173343 
L 209.204046 252.894303 
L 209.560443 249.513326 
L 210.005939 242.658968 
L 210.629633 233.396581 
L 210.837531 232.680113 
L 210.92663 232.803724 
L 211.134528 233.760832 
L 211.520624 235.534259 
L 211.609723 235.567321 
L 211.639423 235.537107 
L 211.787922 235.099501 
L 212.144318 232.959011 
L 212.500715 231.439408 
L 212.708613 231.280169 
L 213.154109 231.3591 
L 213.302607 230.876851 
L 213.510505 229.124992 
L 213.777803 224.324102 
L 214.223299 210.743789 
L 214.698494 198.572582 
L 214.936092 196.80667 
L 214.995491 196.800583 
L 215.025191 196.849816 
L 215.17369 197.495674 
L 215.827083 200.980589 
L 216.064681 201.122852 
L 216.272579 201.234994 
L 216.450778 201.619204 
L 216.747775 202.934221 
L 217.104171 204.284154 
L 217.193271 204.287746 
L 217.22297 204.24523 
L 217.371469 203.674586 
L 217.609067 201.503397 
L 217.995163 195.384293 
L 219.094053 176.714463 
L 219.39105 175.058283 
L 219.480149 174.975382 
L 219.509849 174.993536 
L 219.628647 175.312897 
L 219.806846 176.628568 
L 220.044444 180.221188 
L 220.489939 191.485719 
L 220.786936 196.681588 
L 220.816636 196.75978 
L 220.846336 196.72305 
L 220.935435 195.83643 
L 221.083934 191.282013 
L 221.291832 177.129557 
L 221.618529 136.378175 
L 222.242223 57.178855 
L 222.361022 54.144 
L 222.390721 54.240227 
L 222.47982 56.504409 
L 222.658019 68.772267 
L 223.786608 166.972671 
L 224.083605 172.605237 
L 224.232104 173.207939 
L 224.261804 173.189765 
L 224.380602 172.756057 
L 225.004297 168.998276 
L 225.093396 169.088817 
L 225.301294 169.8175 
L 225.568591 170.524709 
L 225.65769 170.41653 
L 225.835889 169.587091 
L 226.221985 167.416927 
L 226.251685 167.429076 
L 226.340784 167.768708 
L 226.489283 169.51388 
L 226.72688 175.556488 
L 227.82577 209.657714 
L 228.003968 210.296589 
L 228.093067 210.051944 
L 228.271266 208.573234 
L 228.597963 203.278122 
L 229.221657 193.045396 
L 229.370155 192.513522 
L 229.399855 192.535287 
L 229.518654 193.047482 
L 229.726552 195.437157 
L 230.142348 203.699483 
L 230.706643 213.829494 
L 231.063039 216.735831 
L 231.300637 217.363605 
L 231.449136 217.351022 
L 231.627334 216.994803 
L 231.954031 215.643865 
L 232.577725 213.089864 
L 232.874722 211.826224 
L 233.14202 209.366233 
L 234.062711 198.631556 
L 234.092411 198.668777 
L 234.211209 199.154049 
L 234.448807 201.442814 
L 235.221 209.852824 
L 235.310099 209.943857 
L 235.339799 209.911347 
L 235.458598 209.469333 
L 235.696195 207.281848 
L 236.29019 201.156582 
L 236.349589 201.099426 
L 236.379289 201.131497 
L 236.498088 201.674209 
L 236.705986 204.137502 
L 237.715776 219.091207 
L 237.804875 218.931426 
L 237.983074 217.893881 
L 238.636468 213.289674 
L 238.725567 213.364469 
L 238.874065 214.082302 
L 239.111663 216.715457 
L 239.527459 224.465092 
L 240.388751 240.761998 
L 240.626349 242.043858 
L 240.715448 241.891555 
L 240.863946 240.879811 
L 241.160944 236.719152 
L 241.725238 228.983796 
L 241.962836 228.137241 
L 242.081635 228.1978 
L 242.55683 228.921354 
L 242.58653 228.889193 
L 242.735029 228.493717 
L 243.002326 226.961821 
L 243.477522 224.413555 
L 243.596321 224.358837 
L 243.715119 224.627816 
L 243.923018 225.854054 
L 244.279414 229.642734 
L 244.932808 236.512725 
L 245.170406 237.19338 
L 245.259505 237.113512 
L 245.437703 236.451797 
L 245.7644 233.980259 
L 246.417794 228.998618 
L 247.071188 225.523216 
L 247.397885 221.208031 
L 248.110678 211.209604 
L 248.318576 210.667221 
L 248.437375 210.887649 
L 248.674973 212.055248 
L 249.506565 216.474793 
L 249.833262 218.838949 
L 250.546055 224.457348 
L 250.664854 224.50597 
L 250.813352 224.172404 
L 251.258848 222.91237 
L 251.377647 223.12083 
L 251.555845 224.094478 
L 251.941942 227.952827 
L 252.328038 230.840845 
L 252.446837 231.018177 
L 252.476537 231.001694 
L 252.595335 230.699468 
L 252.803233 229.371347 
L 253.308129 224.084955 
L 253.931823 218.485506 
L 254.19912 217.410952 
L 254.288219 217.381642 
L 254.317919 217.414549 
L 254.466418 217.9107 
L 254.704015 219.782158 
L 255.26831 226.84723 
L 255.862305 232.932347 
L 256.248401 235.06492 
L 256.515698 235.544616 
L 256.693897 235.497602 
L 256.961194 235.41432 
L 257.109693 235.697692 
L 257.317591 236.821352 
L 257.673987 240.527149 
L 258.149183 244.854527 
L 258.327381 245.237197 
L 258.357081 245.226885 
L 258.47588 244.992142 
L 258.683778 243.932392 
L 259.010475 240.874182 
L 259.396571 234.952089 
L 260.287563 219.866479 
L 260.436061 219.465308 
L 260.465761 219.487857 
L 260.58456 219.889393 
L 260.822158 221.868492 
L 261.831948 231.783482 
L 262.247744 233.388554 
L 262.604141 234.088117 
L 262.782339 234.123826 
L 262.990237 233.882983 
L 263.287234 233.550888 
L 263.406033 233.691197 
L 263.584231 234.423605 
L 263.881229 237.002482 
L 264.445523 242.021134 
L 264.594022 242.333215 
L 264.623722 242.32427 
L 264.74252 242.044412 
L 264.950419 240.635365 
L 265.306815 236.067429 
L 265.87111 229.079052 
L 266.049308 228.549452 
L 266.138407 228.700597 
L 266.286906 229.548317 
L 266.554203 232.626242 
L 267.237297 241.156974 
L 267.326396 241.270652 
L 267.356096 241.220607 
L 267.474895 240.554773 
L 267.682793 237.557054 
L 268.00949 228.691819 
L 268.811382 205.450999 
L 268.930181 204.968009 
L 268.959881 205.036589 
L 269.078679 206.055832 
L 269.286577 210.363453 
L 270.147869 231.123765 
L 270.236968 231.312139 
L 270.266668 231.283617 
L 270.385467 230.788384 
L 270.741864 227.613305 
L 271.009161 226.335898 
L 271.09826 226.463458 
L 271.246759 227.355866 
L 271.514056 230.821794 
L 271.989252 240.604592 
L 273.028742 263.138291 
L 273.117841 263.328558 
L 273.147541 263.290484 
L 273.26634 262.654628 
L 273.474238 259.957008 
L 274.008833 248.850299 
L 274.781025 234.567209 
L 275.582918 221.036774 
L 276.176912 209.761437 
L 276.266011 209.405637 
L 276.325411 209.479444 
L 276.44421 210.384661 
L 276.652108 214.157682 
L 277.750997 238.350718 
L 278.018295 239.502034 
L 278.255893 239.697033 
L 278.731088 239.806194 
L 279.028085 240.239913 
L 279.443881 241.353059 
L 279.948777 242.607158 
L 280.097275 242.611127 
L 280.275473 242.284093 
L 280.542771 241.186932 
L 281.077366 237.809822 
L 282.116856 231.031571 
L 282.324754 230.797717 
L 282.473253 230.987772 
L 282.681151 231.730743 
L 282.978148 233.74571 
L 283.364244 238.114321 
L 284.463134 251.874107 
L 284.641332 252.172358 
L 284.760131 251.95274 
L 284.968029 250.900625 
L 286.007519 244.366615 
L 286.156018 244.326067 
L 286.334216 244.589764 
L 286.660913 245.643555 
L 287.076709 247.72885 
L 287.403406 250.593511 
L 287.967701 258.217116 
L 288.502296 264.036769 
L 289.274488 271.417513 
L 289.779384 275.879025 
L 289.927882 276.178865 
L 289.957582 276.16107 
L 290.076381 275.820598 
L 290.284279 274.219853 
L 290.640675 269.206747 
L 291.442568 257.711576 
L 291.709865 256.332915 
L 291.858364 256.20835 
L 292.006862 256.448068 
L 292.30386 257.553741 
L 293.254251 262.121917 
L 294.41254 269.926334 
L 294.739237 270.441452 
L 294.976834 270.453991 
L 295.214432 270.192678 
L 295.600528 269.369656 
L 296.105424 267.751023 
L 296.49152 266.674306 
L 296.610319 266.688674 
L 296.758817 267.102838 
L 296.996415 268.757434 
L 297.679509 274.383248 
L 297.768608 274.271578 
L 297.917107 273.395503 
L 298.184404 270.008434 
L 298.778398 262.291664 
L 298.897197 262.036443 
L 298.926897 262.065183 
L 299.045696 262.531583 
L 299.283294 264.79693 
L 299.847588 270.465912 
L 300.025787 270.782052 
L 300.144585 270.59196 
L 300.441583 269.418311 
L 300.827679 268.241428 
L 301.005877 268.190164 
L 301.184076 268.455278 
L 301.451373 269.356004 
L 301.985968 272.198869 
L 302.609662 275.110749 
L 302.87696 275.608387 
L 302.995758 275.538068 
L 303.144257 275.117905 
L 303.381855 273.608415 
L 303.797651 269.03002 
L 304.540144 258.122521 
L 305.193538 248.563008 
L 305.342036 248.141697 
L 305.371736 248.184834 
L 305.490535 248.796528 
L 305.698433 251.46191 
L 306.143929 261.184627 
L 306.619124 269.60037 
L 306.886422 271.41012 
L 307.03492 271.602014 
L 307.06462 271.584729 
L 307.213119 271.276054 
L 307.510116 269.934439 
L 308.044711 267.643073 
L 308.193209 267.564172 
L 308.341708 267.818512 
L 308.609005 268.916611 
L 309.113901 270.923145 
L 309.292099 271.030369 
L 309.470297 270.810554 
L 309.975192 269.982806 
L 310.093991 270.154985 
L 310.27219 270.901799 
L 310.569187 273.375621 
L 311.163181 278.394137 
L 311.31168 278.61781 
L 311.341379 278.596366 
L 311.460178 278.302971 
L 311.697776 276.892673 
L 312.262071 271.591577 
L 313.034263 264.74759 
L 313.212462 264.354066 
L 313.242161 264.368859 
L 313.36096 264.662369 
L 313.568858 265.973133 
L 314.341051 271.68831 
L 314.519249 271.860647 
L 314.667748 271.684027 
L 314.905346 270.941642 
L 315.261742 268.93994 
L 316.123034 263.49025 
L 316.212133 263.557478 
L 316.360632 264.128928 
L 316.627929 266.372829 
L 317.192224 271.162058 
L 317.311023 271.30454 
L 317.340723 271.276148 
L 317.459522 270.919371 
L 317.697119 269.276739 
L 318.261414 265.183866 
L 318.380213 265.064745 
L 318.409913 265.091196 
L 318.558411 265.547786 
L 318.825709 267.487911 
L 321.290785 289.9271 
L 321.320485 289.8964 
L 321.439284 289.425022 
L 321.647182 287.277488 
L 322.062978 279.673309 
L 322.508474 272.861435 
L 322.716372 271.957517 
L 322.805471 272.070863 
L 322.983669 273.038315 
L 323.696463 278.045997 
L 323.785562 277.928211 
L 323.93406 277.204578 
L 324.201358 274.51042 
L 324.943851 266.158755 
L 325.03295 266.039446 
L 325.06265 266.071854 
L 325.181448 266.571941 
L 325.389347 268.78102 
L 326.280338 280.292703 
L 326.488236 280.532411 
L 326.725834 280.612099 
L 326.874332 280.998182 
L 327.11193 282.471871 
L 328.15142 290.384192 
L 329.25031 293.455348 
L 329.784905 295.139609 
L 330.200701 295.711588 
L 330.557098 296.269483 
L 331.240191 297.561532 
L 331.38869 297.382997 
L 331.596588 296.623944 
L 331.982684 294.031413 
L 332.42818 291.51552 
L 332.576679 291.342488 
L 332.606378 291.359432 
L 332.754877 291.700324 
L 332.992475 293.019868 
L 334.061664 300.076782 
L 334.833857 302.434392 
L 335.309053 303.445353 
L 335.516951 303.525897 
L 335.695149 303.361758 
L 335.992146 302.707291 
L 336.61584 301.291044 
L 336.853438 301.171855 
L 337.091036 301.296259 
L 337.774129 301.784492 
L 338.902719 301.862898 
L 339.734311 302.16117 
L 340.506503 302.429528 
L 341.189597 303.078503 
L 341.872691 303.610868 
L 342.110288 303.546701 
L 342.347886 303.200001 
L 342.674583 302.209567 
L 343.743773 298.301768 
L 343.773473 298.313189 
L 343.921971 298.554607 
L 344.159569 299.544234 
L 345.08026 304.233858 
L 345.228759 304.240803 
L 345.406957 303.96008 
L 346.387048 301.905156 
L 346.565246 302.114447 
L 346.832544 302.889759 
L 347.634436 305.559268 
L 347.842334 305.63013 
L 348.050232 305.432233 
L 348.406629 304.688502 
L 349.238221 302.793134 
L 349.446119 302.780702 
L 350.129212 303.078588 
L 350.36681 302.633653 
L 351.228102 300.588306 
L 351.4063 300.696102 
L 351.703297 301.267571 
L 352.059694 301.812423 
L 352.208193 301.749905 
L 352.416091 301.32278 
L 353.039785 299.77083 
L 353.188283 299.852464 
L 353.425881 300.387727 
L 354.138674 302.18984 
L 354.495071 302.448163 
L 354.821768 302.441262 
L 355.089065 302.181085 
L 355.445462 301.443594 
L 355.980057 300.426475 
L 356.217655 300.355161 
L 356.514652 300.547031 
L 356.960148 300.812566 
L 357.76204 300.979359 
L 358.266935 301.429993 
L 358.415434 301.286978 
L 358.623332 300.692824 
L 358.950029 298.918592 
L 359.454924 296.339008 
L 359.633122 296.206 
L 359.781621 296.487486 
L 360.078618 297.781576 
L 360.613213 300.004351 
L 360.99931 300.66405 
L 362.187298 302.443391 
L 363.07829 304.093122 
L 363.10799 304.074902 
L 363.286188 303.80948 
L 363.701984 302.603755 
L 364.058381 301.895153 
L 364.266279 301.876616 
L 364.503876 302.181879 
L 365.365168 303.62134 
L 365.602766 303.501471 
L 366.167061 303.11602 
L 366.404658 303.299613 
L 366.761055 303.942222 
L 367.592647 305.524791 
L 367.800545 305.556179 
L 368.038143 305.31725 
L 368.632137 304.59716 
L 368.810336 304.737497 
L 369.077633 305.31968 
L 369.849826 307.193284 
L 370.176523 307.438507 
L 370.50322 307.42202 
L 370.800217 307.216848 
L 370.800217 307.216848 
" style="fill:none;stroke:#ff7f0e;stroke-linecap:square;stroke-width:1.5;"/>
   </g>
   <g id="patch_103">
    <path d="M 57.6 307.584 
L 57.6 41.472 
" style="fill:none;stroke:#000000;stroke-linecap:square;stroke-linejoin:miter;stroke-width:0.8;"/>
   </g>
   <g id="patch_104">
    <path d="M 414.72 307.584 
L 414.72 41.472 
" style="fill:none;stroke:#000000;stroke-linecap:square;stroke-linejoin:miter;stroke-width:0.8;"/>
   </g>
   <g id="patch_105">
    <path d="M 57.6 307.584 
L 414.72 307.584 
" style="fill:none;stroke:#000000;stroke-linecap:square;stroke-linejoin:miter;stroke-width:0.8;"/>
   </g>
   <g id="patch_106">
    <path d="M 57.6 41.472 
L 414.72 41.472 
" style="fill:none;stroke:#000000;stroke-linecap:square;stroke-linejoin:miter;stroke-width:0.8;"/>
   </g>
  </g>
 </g>
 <defs>
  <clipPath id="p9731c79392">
   <rect height="266.112" width="357.12" x="57.6" y="41.472"/>
  </clipPath>
 </defs>
</svg>
