<?xml version="1.0" encoding="utf-8" standalone="no"?>
<!DOCTYPE svg PUBLIC "-//W3C//DTD SVG 1.1//EN"
  "http://www.w3.org/Graphics/SVG/1.1/DTD/svg11.dtd">
<!-- Created with matplotlib (https://matplotlib.org/) -->
<svg height="345.6pt" version="1.1" viewBox="0 0 460.8 345.6" width="460.8pt" xmlns="http://www.w3.org/2000/svg" xmlns:xlink="http://www.w3.org/1999/xlink">
 <defs>
  <style type="text/css">
*{stroke-linecap:butt;stroke-linejoin:round;}
  </style>
 </defs>
 <g id="figure_1">
  <g id="patch_1">
   <path d="M 0 345.6 
L 460.8 345.6 
L 460.8 0 
L 0 0 
z
" style="fill:#ffffff;"/>
  </g>
  <g id="axes_1">
   <g id="patch_2">
    <path d="M 57.6 307.584 
L 414.72 307.584 
L 414.72 41.472 
L 57.6 41.472 
z
" style="fill:#ffffff;"/>
   </g>
   <g id="patch_3">
    <path clip-path="url(#p52af12cab5)" d="M 99.974306 307.584 
L 102.698155 307.584 
L 102.698155 288.362516 
L 99.974306 288.362516 
z
" style="fill:#1f77b4;"/>
   </g>
   <g id="patch_4">
    <path clip-path="url(#p52af12cab5)" d="M 102.69817 307.584 
L 105.422019 307.584 
L 105.422019 290.175863 
L 102.69817 290.175863 
z
" style="fill:#1f77b4;"/>
   </g>
   <g id="patch_5">
    <path clip-path="url(#p52af12cab5)" d="M 105.422003 307.584 
L 108.14586 307.584 
L 108.14586 279.295858 
L 105.422003 279.295858 
z
" style="fill:#1f77b4;"/>
   </g>
   <g id="patch_6">
    <path clip-path="url(#p52af12cab5)" d="M 108.145852 307.584 
L 110.869709 307.584 
L 110.869709 266.96513 
L 108.145852 266.96513 
z
" style="fill:#1f77b4;"/>
   </g>
   <g id="patch_7">
    <path clip-path="url(#p52af12cab5)" d="M 110.869716 307.584 
L 113.593565 307.584 
L 113.593565 254.271582 
L 110.869716 254.271582 
z
" style="fill:#1f77b4;"/>
   </g>
   <g id="patch_8">
    <path clip-path="url(#p52af12cab5)" d="M 113.593565 307.584 
L 116.317422 307.584 
L 116.317422 247.381032 
L 113.593565 247.381032 
z
" style="fill:#1f77b4;"/>
   </g>
   <g id="patch_9">
    <path clip-path="url(#p52af12cab5)" d="M 116.317422 307.584 
L 119.04127 307.584 
L 119.04127 252.820903 
L 116.317422 252.820903 
z
" style="fill:#1f77b4;"/>
   </g>
   <g id="patch_10">
    <path clip-path="url(#p52af12cab5)" d="M 119.041263 307.584 
L 121.765119 307.584 
L 121.765119 253.909065 
L 119.041263 253.909065 
z
" style="fill:#1f77b4;"/>
   </g>
   <g id="patch_11">
    <path clip-path="url(#p52af12cab5)" d="M 121.765127 307.584 
L 124.488976 307.584 
L 124.488976 258.986285 
L 121.765127 258.986285 
z
" style="fill:#1f77b4;"/>
   </g>
   <g id="patch_12">
    <path clip-path="url(#p52af12cab5)" d="M 124.488976 307.584 
L 127.212832 307.584 
L 127.212832 256.810412 
L 124.488976 256.810412 
z
" style="fill:#1f77b4;"/>
   </g>
   <g id="patch_13">
    <path clip-path="url(#p52af12cab5)" d="M 127.212832 307.584 
L 129.936681 307.584 
L 129.936681 252.095564 
L 127.212832 252.095564 
z
" style="fill:#1f77b4;"/>
   </g>
   <g id="patch_14">
    <path clip-path="url(#p52af12cab5)" d="M 129.936673 307.584 
L 132.660529 307.584 
L 132.660529 248.469037 
L 129.936673 248.469037 
z
" style="fill:#1f77b4;"/>
   </g>
   <g id="patch_15">
    <path clip-path="url(#p52af12cab5)" d="M 132.660537 307.584 
L 135.384386 307.584 
L 135.384386 243.754166 
L 132.660537 243.754166 
z
" style="fill:#1f77b4;"/>
   </g>
   <g id="patch_16">
    <path clip-path="url(#p52af12cab5)" d="M 135.384386 307.584 
L 138.108235 307.584 
L 138.108235 245.567513 
L 135.384386 245.567513 
z
" style="fill:#1f77b4;"/>
   </g>
   <g id="patch_17">
    <path clip-path="url(#p52af12cab5)" d="M 138.108235 307.584 
L 140.832091 307.584 
L 140.832091 257.535749 
L 138.108235 257.535749 
z
" style="fill:#1f77b4;"/>
   </g>
   <g id="patch_18">
    <path clip-path="url(#p52af12cab5)" d="M 140.832091 307.584 
L 143.55594 307.584 
L 143.55594 251.007556 
L 140.832091 251.007556 
z
" style="fill:#1f77b4;"/>
   </g>
   <g id="patch_19">
    <path clip-path="url(#p52af12cab5)" d="M 143.555932 307.584 
L 146.279789 307.584 
L 146.279789 245.205021 
L 143.555932 245.205021 
z
" style="fill:#1f77b4;"/>
   </g>
   <g id="patch_20">
    <path clip-path="url(#p52af12cab5)" d="M 146.279796 307.584 
L 149.003645 307.584 
L 149.003645 254.271582 
L 146.279796 254.271582 
z
" style="fill:#1f77b4;"/>
   </g>
   <g id="patch_21">
    <path clip-path="url(#p52af12cab5)" d="M 149.003645 307.584 
L 151.727502 307.584 
L 151.727502 244.479684 
L 149.003645 244.479684 
z
" style="fill:#1f77b4;"/>
   </g>
   <g id="patch_22">
    <path clip-path="url(#p52af12cab5)" d="M 151.727502 307.584 
L 154.45135 307.584 
L 154.45135 243.028827 
L 151.727502 243.028827 
z
" style="fill:#1f77b4;"/>
   </g>
   <g id="patch_23">
    <path clip-path="url(#p52af12cab5)" d="M 154.451343 307.584 
L 157.175199 307.584 
L 157.175199 249.919711 
L 154.451343 249.919711 
z
" style="fill:#1f77b4;"/>
   </g>
   <g id="patch_24">
    <path clip-path="url(#p52af12cab5)" d="M 157.175207 307.584 
L 159.899055 307.584 
L 159.899055 254.271582 
L 157.175207 254.271582 
z
" style="fill:#1f77b4;"/>
   </g>
   <g id="patch_25">
    <path clip-path="url(#p52af12cab5)" d="M 159.899055 307.584 
L 162.622912 307.584 
L 162.622912 252.095722 
L 159.899055 252.095722 
z
" style="fill:#1f77b4;"/>
   </g>
   <g id="patch_26">
    <path clip-path="url(#p52af12cab5)" d="M 162.622912 307.584 
L 165.346761 307.584 
L 165.346761 250.644886 
L 162.622912 250.644886 
z
" style="fill:#1f77b4;"/>
   </g>
   <g id="patch_27">
    <path clip-path="url(#p52af12cab5)" d="M 165.346753 307.584 
L 168.070609 307.584 
L 168.070609 245.930358 
L 165.346753 245.930358 
z
" style="fill:#1f77b4;"/>
   </g>
   <g id="patch_28">
    <path clip-path="url(#p52af12cab5)" d="M 168.070617 307.584 
L 170.794466 307.584 
L 170.794466 261.524972 
L 168.070617 261.524972 
z
" style="fill:#1f77b4;"/>
   </g>
   <g id="patch_29">
    <path clip-path="url(#p52af12cab5)" d="M 170.794466 307.584 
L 173.518318 307.584 
L 173.518318 256.447671 
L 170.794466 256.447671 
z
" style="fill:#1f77b4;"/>
   </g>
   <g id="patch_30">
    <path clip-path="url(#p52af12cab5)" d="M 173.518322 307.584 
L 176.242175 307.584 
L 176.242175 252.820981 
L 173.518322 252.820981 
z
" style="fill:#1f77b4;"/>
   </g>
   <g id="patch_31">
    <path clip-path="url(#p52af12cab5)" d="M 176.242171 307.584 
L 178.966024 307.584 
L 178.966024 255.359664 
L 176.242171 255.359664 
z
" style="fill:#1f77b4;"/>
   </g>
   <g id="patch_32">
    <path clip-path="url(#p52af12cab5)" d="M 178.966028 307.584 
L 181.68988 307.584 
L 181.68988 256.085002 
L 178.966028 256.085002 
z
" style="fill:#1f77b4;"/>
   </g>
   <g id="patch_33">
    <path clip-path="url(#p52af12cab5)" d="M 181.689876 307.584 
L 184.413729 307.584 
L 184.413729 252.820981 
L 181.689876 252.820981 
z
" style="fill:#1f77b4;"/>
   </g>
   <g id="patch_34">
    <path clip-path="url(#p52af12cab5)" d="M 184.413729 307.584 
L 187.137578 307.584 
L 187.137578 248.831539 
L 184.413729 248.831539 
z
" style="fill:#1f77b4;"/>
   </g>
   <g id="patch_35">
    <path clip-path="url(#p52af12cab5)" d="M 187.137581 307.584 
L 189.861434 307.584 
L 189.861434 250.644967 
L 187.137581 250.644967 
z
" style="fill:#1f77b4;"/>
   </g>
   <g id="patch_36">
    <path clip-path="url(#p52af12cab5)" d="M 189.86143 307.584 
L 192.585283 307.584 
L 192.585283 244.116925 
L 189.86143 244.116925 
z
" style="fill:#1f77b4;"/>
   </g>
   <g id="patch_37">
    <path clip-path="url(#p52af12cab5)" d="M 192.585287 307.584 
L 195.309139 307.584 
L 195.309139 245.93027 
L 192.585287 245.93027 
z
" style="fill:#1f77b4;"/>
   </g>
   <g id="patch_38">
    <path clip-path="url(#p52af12cab5)" d="M 195.309135 307.584 
L 198.032988 307.584 
L 198.032988 244.116925 
L 195.309135 244.116925 
z
" style="fill:#1f77b4;"/>
   </g>
   <g id="patch_39">
    <path clip-path="url(#p52af12cab5)" d="M 198.032992 307.584 
L 200.756844 307.584 
L 200.756844 263.701051 
L 198.032992 263.701051 
z
" style="fill:#1f77b4;"/>
   </g>
   <g id="patch_40">
    <path clip-path="url(#p52af12cab5)" d="M 200.756841 307.584 
L 203.480693 307.584 
L 203.480693 261.162368 
L 200.756841 261.162368 
z
" style="fill:#1f77b4;"/>
   </g>
   <g id="patch_41">
    <path clip-path="url(#p52af12cab5)" d="M 203.480693 307.584 
L 206.204546 307.584 
L 206.204546 262.975713 
L 203.480693 262.975713 
z
" style="fill:#1f77b4;"/>
   </g>
   <g id="patch_42">
    <path clip-path="url(#p52af12cab5)" d="M 206.204546 307.584 
L 208.928398 307.584 
L 208.928398 258.623685 
L 206.204546 258.623685 
z
" style="fill:#1f77b4;"/>
   </g>
   <g id="patch_43">
    <path clip-path="url(#p52af12cab5)" d="M 208.928398 307.584 
L 211.652249 307.584 
L 211.652249 258.98632 
L 208.928398 258.98632 
z
" style="fill:#1f77b4;"/>
   </g>
   <g id="patch_44">
    <path clip-path="url(#p52af12cab5)" d="M 211.652249 307.584 
L 214.376102 307.584 
L 214.376102 256.447671 
L 211.652249 256.447671 
z
" style="fill:#1f77b4;"/>
   </g>
   <g id="patch_45">
    <path clip-path="url(#p52af12cab5)" d="M 214.376102 307.584 
L 217.099954 307.584 
L 217.099954 253.546319 
L 214.376102 253.546319 
z
" style="fill:#1f77b4;"/>
   </g>
   <g id="patch_46">
    <path clip-path="url(#p52af12cab5)" d="M 217.099954 307.584 
L 219.823807 307.584 
L 219.823807 256.447671 
L 217.099954 256.447671 
z
" style="fill:#1f77b4;"/>
   </g>
   <g id="patch_47">
    <path clip-path="url(#p52af12cab5)" d="M 219.823807 307.584 
L 222.547659 307.584 
L 222.547659 244.842263 
L 219.823807 244.842263 
z
" style="fill:#1f77b4;"/>
   </g>
   <g id="patch_48">
    <path clip-path="url(#p52af12cab5)" d="M 222.547659 307.584 
L 225.271511 307.584 
L 225.271511 260.799683 
L 222.547659 260.799683 
z
" style="fill:#1f77b4;"/>
   </g>
   <g id="patch_49">
    <path clip-path="url(#p52af12cab5)" d="M 225.271511 307.584 
L 227.995364 307.584 
L 227.995364 241.215573 
L 225.271511 241.215573 
z
" style="fill:#1f77b4;"/>
   </g>
   <g id="patch_50">
    <path clip-path="url(#p52af12cab5)" d="M 227.995364 307.584 
L 230.719216 307.584 
L 230.719216 240.127554 
L 227.995364 240.127554 
z
" style="fill:#1f77b4;"/>
   </g>
   <g id="patch_51">
    <path clip-path="url(#p52af12cab5)" d="M 230.719216 307.584 
L 233.443068 307.584 
L 233.443068 219.455426 
L 230.719216 219.455426 
z
" style="fill:#1f77b4;"/>
   </g>
   <g id="patch_52">
    <path clip-path="url(#p52af12cab5)" d="M 233.443068 307.584 
L 236.166921 307.584 
L 236.166921 122.622794 
L 233.443068 122.622794 
z
" style="fill:#1f77b4;"/>
   </g>
   <g id="patch_53">
    <path clip-path="url(#p52af12cab5)" d="M 236.166921 307.584 
L 238.890773 307.584 
L 238.890773 240.490229 
L 236.166921 240.490229 
z
" style="fill:#1f77b4;"/>
   </g>
   <g id="patch_54">
    <path clip-path="url(#p52af12cab5)" d="M 238.890773 307.584 
L 241.614625 307.584 
L 241.614625 217.64208 
L 238.890773 217.64208 
z
" style="fill:#1f77b4;"/>
   </g>
   <g id="patch_55">
    <path clip-path="url(#p52af12cab5)" d="M 241.614625 307.584 
L 244.338476 307.584 
L 244.338476 245.930259 
L 241.614625 245.930259 
z
" style="fill:#1f77b4;"/>
   </g>
   <g id="patch_56">
    <path clip-path="url(#p52af12cab5)" d="M 244.338477 307.584 
L 247.06233 307.584 
L 247.06233 256.447671 
L 244.338477 256.447671 
z
" style="fill:#1f77b4;"/>
   </g>
   <g id="patch_57">
    <path clip-path="url(#p52af12cab5)" d="M 247.062329 307.584 
L 249.786181 307.584 
L 249.786181 258.260999 
L 247.062329 258.260999 
z
" style="fill:#1f77b4;"/>
   </g>
   <g id="patch_58">
    <path clip-path="url(#p52af12cab5)" d="M 249.786182 307.584 
L 252.510034 307.584 
L 252.510034 250.644967 
L 249.786182 250.644967 
z
" style="fill:#1f77b4;"/>
   </g>
   <g id="patch_59">
    <path clip-path="url(#p52af12cab5)" d="M 252.510034 307.584 
L 255.233887 307.584 
L 255.233887 247.018277 
L 252.510034 247.018277 
z
" style="fill:#1f77b4;"/>
   </g>
   <g id="patch_60">
    <path clip-path="url(#p52af12cab5)" d="M 255.233887 307.584 
L 257.957739 307.584 
L 257.957739 248.468953 
L 255.233887 248.468953 
z
" style="fill:#1f77b4;"/>
   </g>
   <g id="patch_61">
    <path clip-path="url(#p52af12cab5)" d="M 257.957739 307.584 
L 260.681592 307.584 
L 260.681592 246.292939 
L 257.957739 246.292939 
z
" style="fill:#1f77b4;"/>
   </g>
   <g id="patch_62">
    <path clip-path="url(#p52af12cab5)" d="M 260.681594 307.584 
L 263.405445 307.584 
L 263.405445 263.338351 
L 260.681594 263.338351 
z
" style="fill:#1f77b4;"/>
   </g>
   <g id="patch_63">
    <path clip-path="url(#p52af12cab5)" d="M 263.405443 307.584 
L 266.129295 307.584 
L 266.129295 261.887706 
L 263.405443 261.887706 
z
" style="fill:#1f77b4;"/>
   </g>
   <g id="patch_64">
    <path clip-path="url(#p52af12cab5)" d="M 266.129295 307.584 
L 268.853148 307.584 
L 268.853148 266.965072 
L 266.129295 266.965072 
z
" style="fill:#1f77b4;"/>
   </g>
   <g id="patch_65">
    <path clip-path="url(#p52af12cab5)" d="M 268.853152 307.584 
L 271.577004 307.584 
L 271.577004 257.898347 
L 268.853152 257.898347 
z
" style="fill:#1f77b4;"/>
   </g>
   <g id="patch_66">
    <path clip-path="url(#p52af12cab5)" d="M 271.577 307.584 
L 274.300853 307.584 
L 274.300853 253.18365 
L 271.577 253.18365 
z
" style="fill:#1f77b4;"/>
   </g>
   <g id="patch_67">
    <path clip-path="url(#p52af12cab5)" d="M 274.300857 307.584 
L 277.02471 307.584 
L 277.02471 260.074361 
L 274.300857 260.074361 
z
" style="fill:#1f77b4;"/>
   </g>
   <g id="patch_68">
    <path clip-path="url(#p52af12cab5)" d="M 277.024706 307.584 
L 279.748558 307.584 
L 279.748558 268.415748 
L 277.024706 268.415748 
z
" style="fill:#1f77b4;"/>
   </g>
   <g id="patch_69">
    <path clip-path="url(#p52af12cab5)" d="M 279.748562 307.584 
L 282.472415 307.584 
L 282.472415 264.426389 
L 279.748562 264.426389 
z
" style="fill:#1f77b4;"/>
   </g>
   <g id="patch_70">
    <path clip-path="url(#p52af12cab5)" d="M 282.472411 307.584 
L 285.196263 307.584 
L 285.196263 274.94379 
L 282.472411 274.94379 
z
" style="fill:#1f77b4;"/>
   </g>
   <g id="patch_71">
    <path clip-path="url(#p52af12cab5)" d="M 285.196263 307.584 
L 287.920112 307.584 
L 287.920112 269.503701 
L 285.196263 269.503701 
z
" style="fill:#1f77b4;"/>
   </g>
   <g id="patch_72">
    <path clip-path="url(#p52af12cab5)" d="M 287.920116 307.584 
L 290.643969 307.584 
L 290.643969 271.3171 
L 287.920116 271.3171 
z
" style="fill:#1f77b4;"/>
   </g>
   <g id="patch_73">
    <path clip-path="url(#p52af12cab5)" d="M 290.643965 307.584 
L 293.367817 307.584 
L 293.367817 270.229093 
L 290.643965 270.229093 
z
" style="fill:#1f77b4;"/>
   </g>
   <g id="patch_74">
    <path clip-path="url(#p52af12cab5)" d="M 293.367821 307.584 
L 296.091674 307.584 
L 296.091674 269.503755 
L 293.367821 269.503755 
z
" style="fill:#1f77b4;"/>
   </g>
   <g id="patch_75">
    <path clip-path="url(#p52af12cab5)" d="M 296.09167 307.584 
L 298.815523 307.584 
L 298.815523 269.141086 
L 296.09167 269.141086 
z
" style="fill:#1f77b4;"/>
   </g>
   <g id="patch_76">
    <path clip-path="url(#p52af12cab5)" d="M 298.815526 307.584 
L 301.539375 307.584 
L 301.539375 268.778417 
L 298.815526 268.778417 
z
" style="fill:#1f77b4;"/>
   </g>
   <g id="patch_77">
    <path clip-path="url(#p52af12cab5)" d="M 301.539375 307.584 
L 304.263224 307.584 
L 304.263224 276.394422 
L 301.539375 276.394422 
z
" style="fill:#1f77b4;"/>
   </g>
   <g id="patch_78">
    <path clip-path="url(#p52af12cab5)" d="M 304.263224 307.584 
L 306.98708 307.584 
L 306.98708 272.042489 
L 304.263224 272.042489 
z
" style="fill:#1f77b4;"/>
   </g>
   <g id="patch_79">
    <path clip-path="url(#p52af12cab5)" d="M 306.98708 307.584 
L 309.710929 307.584 
L 309.710929 268.778362 
L 306.98708 268.778362 
z
" style="fill:#1f77b4;"/>
   </g>
   <g id="patch_80">
    <path clip-path="url(#p52af12cab5)" d="M 309.710921 307.584 
L 312.434778 307.584 
L 312.434778 264.063782 
L 309.710921 264.063782 
z
" style="fill:#1f77b4;"/>
   </g>
   <g id="patch_81">
    <path clip-path="url(#p52af12cab5)" d="M 312.434786 307.584 
L 315.158634 307.584 
L 315.158634 266.602345 
L 312.434786 266.602345 
z
" style="fill:#1f77b4;"/>
   </g>
   <g id="patch_82">
    <path clip-path="url(#p52af12cab5)" d="M 315.158634 307.584 
L 317.882491 307.584 
L 317.882491 269.503809 
L 315.158634 269.503809 
z
" style="fill:#1f77b4;"/>
   </g>
   <g id="patch_83">
    <path clip-path="url(#p52af12cab5)" d="M 317.882491 307.584 
L 320.606339 307.584 
L 320.606339 256.810268 
L 317.882491 256.810268 
z
" style="fill:#1f77b4;"/>
   </g>
   <g id="patch_84">
    <path clip-path="url(#p52af12cab5)" d="M 320.606332 307.584 
L 323.330188 307.584 
L 323.330188 266.239793 
L 320.606332 266.239793 
z
" style="fill:#1f77b4;"/>
   </g>
   <g id="patch_85">
    <path clip-path="url(#p52af12cab5)" d="M 323.330196 307.584 
L 326.054045 307.584 
L 326.054045 261.162302 
L 323.330196 261.162302 
z
" style="fill:#1f77b4;"/>
   </g>
   <g id="patch_86">
    <path clip-path="url(#p52af12cab5)" d="M 326.054045 307.584 
L 328.777901 307.584 
L 328.777901 260.074429 
L 326.054045 260.074429 
z
" style="fill:#1f77b4;"/>
   </g>
   <g id="patch_87">
    <path clip-path="url(#p52af12cab5)" d="M 328.777901 307.584 
L 331.50175 307.584 
L 331.50175 270.22904 
L 328.777901 270.22904 
z
" style="fill:#1f77b4;"/>
   </g>
   <g id="patch_88">
    <path clip-path="url(#p52af12cab5)" d="M 331.501742 307.584 
L 334.225599 307.584 
L 334.225599 255.359738 
L 331.501742 255.359738 
z
" style="fill:#1f77b4;"/>
   </g>
   <g id="patch_89">
    <path clip-path="url(#p52af12cab5)" d="M 334.225606 307.584 
L 336.949455 307.584 
L 336.949455 258.623616 
L 334.225606 258.623616 
z
" style="fill:#1f77b4;"/>
   </g>
   <g id="patch_90">
    <path clip-path="url(#p52af12cab5)" d="M 336.949455 307.584 
L 339.673304 307.584 
L 339.673304 249.556878 
L 336.949455 249.556878 
z
" style="fill:#1f77b4;"/>
   </g>
   <g id="patch_91">
    <path clip-path="url(#p52af12cab5)" d="M 339.673304 307.584 
L 342.39716 307.584 
L 342.39716 250.645048 
L 339.673304 250.645048 
z
" style="fill:#1f77b4;"/>
   </g>
   <g id="patch_92">
    <path clip-path="url(#p52af12cab5)" d="M 342.39716 307.584 
L 345.121009 307.584 
L 345.121009 231.786072 
L 342.39716 231.786072 
z
" style="fill:#1f77b4;"/>
   </g>
   <g id="patch_93">
    <path clip-path="url(#p52af12cab5)" d="M 345.121001 307.584 
L 347.844858 307.584 
L 347.844858 225.983591 
L 345.121001 225.983591 
z
" style="fill:#1f77b4;"/>
   </g>
   <g id="patch_94">
    <path clip-path="url(#p52af12cab5)" d="M 347.844865 307.584 
L 350.568714 307.584 
L 350.568714 229.247385 
L 347.844865 229.247385 
z
" style="fill:#1f77b4;"/>
   </g>
   <g id="patch_95">
    <path clip-path="url(#p52af12cab5)" d="M 350.568714 307.584 
L 353.292571 307.584 
L 353.292571 217.279548 
L 350.568714 217.279548 
z
" style="fill:#1f77b4;"/>
   </g>
   <g id="patch_96">
    <path clip-path="url(#p52af12cab5)" d="M 353.292571 307.584 
L 356.016419 307.584 
L 356.016419 206.761875 
L 353.292571 206.761875 
z
" style="fill:#1f77b4;"/>
   </g>
   <g id="patch_97">
    <path clip-path="url(#p52af12cab5)" d="M 356.016412 307.584 
L 358.740268 307.584 
L 358.740268 209.300841 
L 356.016412 209.300841 
z
" style="fill:#1f77b4;"/>
   </g>
   <g id="patch_98">
    <path clip-path="url(#p52af12cab5)" d="M 358.740276 307.584 
L 361.464125 307.584 
L 361.464125 233.23675 
L 358.740276 233.23675 
z
" style="fill:#1f77b4;"/>
   </g>
   <g id="patch_99">
    <path clip-path="url(#p52af12cab5)" d="M 361.464125 307.584 
L 364.187981 307.584 
L 364.187981 246.293026 
L 361.464125 246.293026 
z
" style="fill:#1f77b4;"/>
   </g>
   <g id="patch_100">
    <path clip-path="url(#p52af12cab5)" d="M 364.187973 307.584 
L 366.911822 307.584 
L 366.911822 259.349092 
L 364.187973 259.349092 
z
" style="fill:#1f77b4;"/>
   </g>
   <g id="patch_101">
    <path clip-path="url(#p52af12cab5)" d="M 366.911853 307.584 
L 369.635702 307.584 
L 369.635702 280.746456 
L 366.911853 280.746456 
z
" style="fill:#1f77b4;"/>
   </g>
   <g id="patch_102">
    <path clip-path="url(#p52af12cab5)" d="M 369.635686 307.584 
L 372.359535 307.584 
L 372.359535 274.581074 
L 369.635686 274.581074 
z
" style="fill:#1f77b4;"/>
   </g>
   <g id="matplotlib.axis_1">
    <g id="xtick_1">
     <g id="line2d_1">
      <defs>
       <path d="M 0 0 
L 0 3.5 
" id="mbdb2ddc53c" style="stroke:#000000;stroke-width:0.8;"/>
      </defs>
      <g>
       <use style="stroke:#000000;stroke-width:0.8;" x="106.299264" xlink:href="#mbdb2ddc53c" y="307.584"/>
      </g>
     </g>
     <g id="text_1">
      <!-- −2 -->
      <defs>
       <path d="M 10.59375 35.5 
L 73.1875 35.5 
L 73.1875 27.203125 
L 10.59375 27.203125 
z
" id="DejaVuSans-8722"/>
       <path d="M 19.1875 8.296875 
L 53.609375 8.296875 
L 53.609375 0 
L 7.328125 0 
L 7.328125 8.296875 
Q 12.9375 14.109375 22.625 23.890625 
Q 32.328125 33.6875 34.8125 36.53125 
Q 39.546875 41.84375 41.421875 45.53125 
Q 43.3125 49.21875 43.3125 52.78125 
Q 43.3125 58.59375 39.234375 62.25 
Q 35.15625 65.921875 28.609375 65.921875 
Q 23.96875 65.921875 18.8125 64.3125 
Q 13.671875 62.703125 7.8125 59.421875 
L 7.8125 69.390625 
Q 13.765625 71.78125 18.9375 73 
Q 24.125 74.21875 28.421875 74.21875 
Q 39.75 74.21875 46.484375 68.546875 
Q 53.21875 62.890625 53.21875 53.421875 
Q 53.21875 48.921875 51.53125 44.890625 
Q 49.859375 40.875 45.40625 35.40625 
Q 44.1875 33.984375 37.640625 27.21875 
Q 31.109375 20.453125 19.1875 8.296875 
z
" id="DejaVuSans-50"/>
      </defs>
      <g transform="translate(93.768405 327.501344)scale(0.17 -0.17)">
       <use xlink:href="#DejaVuSans-8722"/>
       <use x="83.789062" xlink:href="#DejaVuSans-50"/>
      </g>
     </g>
    </g>
    <g id="xtick_2">
     <g id="line2d_2">
      <g>
       <use style="stroke:#000000;stroke-width:0.8;" x="171.232338" xlink:href="#mbdb2ddc53c" y="307.584"/>
      </g>
     </g>
     <g id="text_2">
      <!-- −1 -->
      <defs>
       <path d="M 12.40625 8.296875 
L 28.515625 8.296875 
L 28.515625 63.921875 
L 10.984375 60.40625 
L 10.984375 69.390625 
L 28.421875 72.90625 
L 38.28125 72.90625 
L 38.28125 8.296875 
L 54.390625 8.296875 
L 54.390625 0 
L 12.40625 0 
z
" id="DejaVuSans-49"/>
      </defs>
      <g transform="translate(158.701478 327.501344)scale(0.17 -0.17)">
       <use xlink:href="#DejaVuSans-8722"/>
       <use x="83.789062" xlink:href="#DejaVuSans-49"/>
      </g>
     </g>
    </g>
    <g id="xtick_3">
     <g id="line2d_3">
      <g>
       <use style="stroke:#000000;stroke-width:0.8;" x="236.165411" xlink:href="#mbdb2ddc53c" y="307.584"/>
      </g>
     </g>
     <g id="text_3">
      <!-- 0 -->
      <defs>
       <path d="M 31.78125 66.40625 
Q 24.171875 66.40625 20.328125 58.90625 
Q 16.5 51.421875 16.5 36.375 
Q 16.5 21.390625 20.328125 13.890625 
Q 24.171875 6.390625 31.78125 6.390625 
Q 39.453125 6.390625 43.28125 13.890625 
Q 47.125 21.390625 47.125 36.375 
Q 47.125 51.421875 43.28125 58.90625 
Q 39.453125 66.40625 31.78125 66.40625 
z
M 31.78125 74.21875 
Q 44.046875 74.21875 50.515625 64.515625 
Q 56.984375 54.828125 56.984375 36.375 
Q 56.984375 17.96875 50.515625 8.265625 
Q 44.046875 -1.421875 31.78125 -1.421875 
Q 19.53125 -1.421875 13.0625 8.265625 
Q 6.59375 17.96875 6.59375 36.375 
Q 6.59375 54.828125 13.0625 64.515625 
Q 19.53125 74.21875 31.78125 74.21875 
z
" id="DejaVuSans-48"/>
      </defs>
      <g transform="translate(230.757286 327.501344)scale(0.17 -0.17)">
       <use xlink:href="#DejaVuSans-48"/>
      </g>
     </g>
    </g>
    <g id="xtick_4">
     <g id="line2d_4">
      <g>
       <use style="stroke:#000000;stroke-width:0.8;" x="301.098485" xlink:href="#mbdb2ddc53c" y="307.584"/>
      </g>
     </g>
     <g id="text_4">
      <!-- 1 -->
      <g transform="translate(295.69036 327.501344)scale(0.17 -0.17)">
       <use xlink:href="#DejaVuSans-49"/>
      </g>
     </g>
    </g>
    <g id="xtick_5">
     <g id="line2d_5">
      <g>
       <use style="stroke:#000000;stroke-width:0.8;" x="366.031558" xlink:href="#mbdb2ddc53c" y="307.584"/>
      </g>
     </g>
     <g id="text_5">
      <!-- 2 -->
      <g transform="translate(360.623433 327.501344)scale(0.17 -0.17)">
       <use xlink:href="#DejaVuSans-50"/>
      </g>
     </g>
    </g>
    <g id="text_6">
     <!-- Position in Radian -->
     <defs>
      <path d="M 19.671875 64.796875 
L 19.671875 37.40625 
L 32.078125 37.40625 
Q 38.96875 37.40625 42.71875 40.96875 
Q 46.484375 44.53125 46.484375 51.125 
Q 46.484375 57.671875 42.71875 61.234375 
Q 38.96875 64.796875 32.078125 64.796875 
z
M 9.8125 72.90625 
L 32.078125 72.90625 
Q 44.34375 72.90625 50.609375 67.359375 
Q 56.890625 61.8125 56.890625 51.125 
Q 56.890625 40.328125 50.609375 34.8125 
Q 44.34375 29.296875 32.078125 29.296875 
L 19.671875 29.296875 
L 19.671875 0 
L 9.8125 0 
z
" id="DejaVuSans-80"/>
      <path d="M 30.609375 48.390625 
Q 23.390625 48.390625 19.1875 42.75 
Q 14.984375 37.109375 14.984375 27.296875 
Q 14.984375 17.484375 19.15625 11.84375 
Q 23.34375 6.203125 30.609375 6.203125 
Q 37.796875 6.203125 41.984375 11.859375 
Q 46.1875 17.53125 46.1875 27.296875 
Q 46.1875 37.015625 41.984375 42.703125 
Q 37.796875 48.390625 30.609375 48.390625 
z
M 30.609375 56 
Q 42.328125 56 49.015625 48.375 
Q 55.71875 40.765625 55.71875 27.296875 
Q 55.71875 13.875 49.015625 6.21875 
Q 42.328125 -1.421875 30.609375 -1.421875 
Q 18.84375 -1.421875 12.171875 6.21875 
Q 5.515625 13.875 5.515625 27.296875 
Q 5.515625 40.765625 12.171875 48.375 
Q 18.84375 56 30.609375 56 
z
" id="DejaVuSans-111"/>
      <path d="M 44.28125 53.078125 
L 44.28125 44.578125 
Q 40.484375 46.53125 36.375 47.5 
Q 32.28125 48.484375 27.875 48.484375 
Q 21.1875 48.484375 17.84375 46.4375 
Q 14.5 44.390625 14.5 40.28125 
Q 14.5 37.15625 16.890625 35.375 
Q 19.28125 33.59375 26.515625 31.984375 
L 29.59375 31.296875 
Q 39.15625 29.25 43.1875 25.515625 
Q 47.21875 21.78125 47.21875 15.09375 
Q 47.21875 7.46875 41.1875 3.015625 
Q 35.15625 -1.421875 24.609375 -1.421875 
Q 20.21875 -1.421875 15.453125 -0.5625 
Q 10.6875 0.296875 5.421875 2 
L 5.421875 11.28125 
Q 10.40625 8.6875 15.234375 7.390625 
Q 20.0625 6.109375 24.8125 6.109375 
Q 31.15625 6.109375 34.5625 8.28125 
Q 37.984375 10.453125 37.984375 14.40625 
Q 37.984375 18.0625 35.515625 20.015625 
Q 33.0625 21.96875 24.703125 23.78125 
L 21.578125 24.515625 
Q 13.234375 26.265625 9.515625 29.90625 
Q 5.8125 33.546875 5.8125 39.890625 
Q 5.8125 47.609375 11.28125 51.796875 
Q 16.75 56 26.8125 56 
Q 31.78125 56 36.171875 55.265625 
Q 40.578125 54.546875 44.28125 53.078125 
z
" id="DejaVuSans-115"/>
      <path d="M 9.421875 54.6875 
L 18.40625 54.6875 
L 18.40625 0 
L 9.421875 0 
z
M 9.421875 75.984375 
L 18.40625 75.984375 
L 18.40625 64.59375 
L 9.421875 64.59375 
z
" id="DejaVuSans-105"/>
      <path d="M 18.3125 70.21875 
L 18.3125 54.6875 
L 36.8125 54.6875 
L 36.8125 47.703125 
L 18.3125 47.703125 
L 18.3125 18.015625 
Q 18.3125 11.328125 20.140625 9.421875 
Q 21.96875 7.515625 27.59375 7.515625 
L 36.8125 7.515625 
L 36.8125 0 
L 27.59375 0 
Q 17.1875 0 13.234375 3.875 
Q 9.28125 7.765625 9.28125 18.015625 
L 9.28125 47.703125 
L 2.6875 47.703125 
L 2.6875 54.6875 
L 9.28125 54.6875 
L 9.28125 70.21875 
z
" id="DejaVuSans-116"/>
      <path d="M 54.890625 33.015625 
L 54.890625 0 
L 45.90625 0 
L 45.90625 32.71875 
Q 45.90625 40.484375 42.875 44.328125 
Q 39.84375 48.1875 33.796875 48.1875 
Q 26.515625 48.1875 22.3125 43.546875 
Q 18.109375 38.921875 18.109375 30.90625 
L 18.109375 0 
L 9.078125 0 
L 9.078125 54.6875 
L 18.109375 54.6875 
L 18.109375 46.1875 
Q 21.34375 51.125 25.703125 53.5625 
Q 30.078125 56 35.796875 56 
Q 45.21875 56 50.046875 50.171875 
Q 54.890625 44.34375 54.890625 33.015625 
z
" id="DejaVuSans-110"/>
      <path id="DejaVuSans-32"/>
      <path d="M 44.390625 34.1875 
Q 47.5625 33.109375 50.5625 29.59375 
Q 53.5625 26.078125 56.59375 19.921875 
L 66.609375 0 
L 56 0 
L 46.6875 18.703125 
Q 43.0625 26.03125 39.671875 28.421875 
Q 36.28125 30.8125 30.421875 30.8125 
L 19.671875 30.8125 
L 19.671875 0 
L 9.8125 0 
L 9.8125 72.90625 
L 32.078125 72.90625 
Q 44.578125 72.90625 50.734375 67.671875 
Q 56.890625 62.453125 56.890625 51.90625 
Q 56.890625 45.015625 53.6875 40.46875 
Q 50.484375 35.9375 44.390625 34.1875 
z
M 19.671875 64.796875 
L 19.671875 38.921875 
L 32.078125 38.921875 
Q 39.203125 38.921875 42.84375 42.21875 
Q 46.484375 45.515625 46.484375 51.90625 
Q 46.484375 58.296875 42.84375 61.546875 
Q 39.203125 64.796875 32.078125 64.796875 
z
" id="DejaVuSans-82"/>
      <path d="M 34.28125 27.484375 
Q 23.390625 27.484375 19.1875 25 
Q 14.984375 22.515625 14.984375 16.5 
Q 14.984375 11.71875 18.140625 8.90625 
Q 21.296875 6.109375 26.703125 6.109375 
Q 34.1875 6.109375 38.703125 11.40625 
Q 43.21875 16.703125 43.21875 25.484375 
L 43.21875 27.484375 
z
M 52.203125 31.203125 
L 52.203125 0 
L 43.21875 0 
L 43.21875 8.296875 
Q 40.140625 3.328125 35.546875 0.953125 
Q 30.953125 -1.421875 24.3125 -1.421875 
Q 15.921875 -1.421875 10.953125 3.296875 
Q 6 8.015625 6 15.921875 
Q 6 25.140625 12.171875 29.828125 
Q 18.359375 34.515625 30.609375 34.515625 
L 43.21875 34.515625 
L 43.21875 35.40625 
Q 43.21875 41.609375 39.140625 45 
Q 35.0625 48.390625 27.6875 48.390625 
Q 23 48.390625 18.546875 47.265625 
Q 14.109375 46.140625 10.015625 43.890625 
L 10.015625 52.203125 
Q 14.9375 54.109375 19.578125 55.046875 
Q 24.21875 56 28.609375 56 
Q 40.484375 56 46.34375 49.84375 
Q 52.203125 43.703125 52.203125 31.203125 
z
" id="DejaVuSans-97"/>
      <path d="M 45.40625 46.390625 
L 45.40625 75.984375 
L 54.390625 75.984375 
L 54.390625 0 
L 45.40625 0 
L 45.40625 8.203125 
Q 42.578125 3.328125 38.25 0.953125 
Q 33.9375 -1.421875 27.875 -1.421875 
Q 17.96875 -1.421875 11.734375 6.484375 
Q 5.515625 14.40625 5.515625 27.296875 
Q 5.515625 40.1875 11.734375 48.09375 
Q 17.96875 56 27.875 56 
Q 33.9375 56 38.25 53.625 
Q 42.578125 51.265625 45.40625 46.390625 
z
M 14.796875 27.296875 
Q 14.796875 17.390625 18.875 11.75 
Q 22.953125 6.109375 30.078125 6.109375 
Q 37.203125 6.109375 41.296875 11.75 
Q 45.40625 17.390625 45.40625 27.296875 
Q 45.40625 37.203125 41.296875 42.84375 
Q 37.203125 48.484375 30.078125 48.484375 
Q 22.953125 48.484375 18.875 42.84375 
Q 14.796875 37.203125 14.796875 27.296875 
z
" id="DejaVuSans-100"/>
     </defs>
     <g transform="translate(102.024844 357.832125)scale(0.3 -0.3)">
      <use xlink:href="#DejaVuSans-80"/>
      <use x="60.255859" xlink:href="#DejaVuSans-111"/>
      <use x="121.4375" xlink:href="#DejaVuSans-115"/>
      <use x="173.537109" xlink:href="#DejaVuSans-105"/>
      <use x="201.320312" xlink:href="#DejaVuSans-116"/>
      <use x="240.529297" xlink:href="#DejaVuSans-105"/>
      <use x="268.3125" xlink:href="#DejaVuSans-111"/>
      <use x="329.494141" xlink:href="#DejaVuSans-110"/>
      <use x="392.873047" xlink:href="#DejaVuSans-32"/>
      <use x="424.660156" xlink:href="#DejaVuSans-105"/>
      <use x="452.443359" xlink:href="#DejaVuSans-110"/>
      <use x="515.822266" xlink:href="#DejaVuSans-32"/>
      <use x="547.609375" xlink:href="#DejaVuSans-82"/>
      <use x="617.060547" xlink:href="#DejaVuSans-97"/>
      <use x="678.339844" xlink:href="#DejaVuSans-100"/>
      <use x="741.816406" xlink:href="#DejaVuSans-105"/>
      <use x="769.599609" xlink:href="#DejaVuSans-97"/>
      <use x="830.878906" xlink:href="#DejaVuSans-110"/>
     </g>
    </g>
   </g>
   <g id="matplotlib.axis_2">
    <g id="ytick_1">
     <g id="line2d_6">
      <defs>
       <path d="M 0 0 
L -3.5 0 
" id="m37431d3959" style="stroke:#000000;stroke-width:0.8;"/>
      </defs>
      <g>
       <use style="stroke:#000000;stroke-width:0.8;" x="57.6" xlink:href="#m37431d3959" y="307.584"/>
      </g>
     </g>
     <g id="text_7">
      <!-- 0.0 -->
      <defs>
       <path d="M 10.6875 12.40625 
L 21 12.40625 
L 21 0 
L 10.6875 0 
z
" id="DejaVuSans-46"/>
      </defs>
      <g transform="translate(23.564687 314.042672)scale(0.17 -0.17)">
       <use xlink:href="#DejaVuSans-48"/>
       <use x="63.623047" xlink:href="#DejaVuSans-46"/>
       <use x="95.410156" xlink:href="#DejaVuSans-48"/>
      </g>
     </g>
    </g>
    <g id="ytick_2">
     <g id="line2d_7">
      <g>
       <use style="stroke:#000000;stroke-width:0.8;" x="57.6" xlink:href="#m37431d3959" y="261.943612"/>
      </g>
     </g>
     <g id="text_8">
      <!-- 0.2 -->
      <g transform="translate(23.564687 268.402284)scale(0.17 -0.17)">
       <use xlink:href="#DejaVuSans-48"/>
       <use x="63.623047" xlink:href="#DejaVuSans-46"/>
       <use x="95.410156" xlink:href="#DejaVuSans-50"/>
      </g>
     </g>
    </g>
    <g id="ytick_3">
     <g id="line2d_8">
      <g>
       <use style="stroke:#000000;stroke-width:0.8;" x="57.6" xlink:href="#m37431d3959" y="216.303224"/>
      </g>
     </g>
     <g id="text_9">
      <!-- 0.4 -->
      <defs>
       <path d="M 37.796875 64.3125 
L 12.890625 25.390625 
L 37.796875 25.390625 
z
M 35.203125 72.90625 
L 47.609375 72.90625 
L 47.609375 25.390625 
L 58.015625 25.390625 
L 58.015625 17.1875 
L 47.609375 17.1875 
L 47.609375 0 
L 37.796875 0 
L 37.796875 17.1875 
L 4.890625 17.1875 
L 4.890625 26.703125 
z
" id="DejaVuSans-52"/>
      </defs>
      <g transform="translate(23.564687 222.761896)scale(0.17 -0.17)">
       <use xlink:href="#DejaVuSans-48"/>
       <use x="63.623047" xlink:href="#DejaVuSans-46"/>
       <use x="95.410156" xlink:href="#DejaVuSans-52"/>
      </g>
     </g>
    </g>
    <g id="ytick_4">
     <g id="line2d_9">
      <g>
       <use style="stroke:#000000;stroke-width:0.8;" x="57.6" xlink:href="#m37431d3959" y="170.662835"/>
      </g>
     </g>
     <g id="text_10">
      <!-- 0.6 -->
      <defs>
       <path d="M 33.015625 40.375 
Q 26.375 40.375 22.484375 35.828125 
Q 18.609375 31.296875 18.609375 23.390625 
Q 18.609375 15.53125 22.484375 10.953125 
Q 26.375 6.390625 33.015625 6.390625 
Q 39.65625 6.390625 43.53125 10.953125 
Q 47.40625 15.53125 47.40625 23.390625 
Q 47.40625 31.296875 43.53125 35.828125 
Q 39.65625 40.375 33.015625 40.375 
z
M 52.59375 71.296875 
L 52.59375 62.3125 
Q 48.875 64.0625 45.09375 64.984375 
Q 41.3125 65.921875 37.59375 65.921875 
Q 27.828125 65.921875 22.671875 59.328125 
Q 17.53125 52.734375 16.796875 39.40625 
Q 19.671875 43.65625 24.015625 45.921875 
Q 28.375 48.1875 33.59375 48.1875 
Q 44.578125 48.1875 50.953125 41.515625 
Q 57.328125 34.859375 57.328125 23.390625 
Q 57.328125 12.15625 50.6875 5.359375 
Q 44.046875 -1.421875 33.015625 -1.421875 
Q 20.359375 -1.421875 13.671875 8.265625 
Q 6.984375 17.96875 6.984375 36.375 
Q 6.984375 53.65625 15.1875 63.9375 
Q 23.390625 74.21875 37.203125 74.21875 
Q 40.921875 74.21875 44.703125 73.484375 
Q 48.484375 72.75 52.59375 71.296875 
z
" id="DejaVuSans-54"/>
      </defs>
      <g transform="translate(23.564687 177.121507)scale(0.17 -0.17)">
       <use xlink:href="#DejaVuSans-48"/>
       <use x="63.623047" xlink:href="#DejaVuSans-46"/>
       <use x="95.410156" xlink:href="#DejaVuSans-54"/>
      </g>
     </g>
    </g>
    <g id="ytick_5">
     <g id="line2d_10">
      <g>
       <use style="stroke:#000000;stroke-width:0.8;" x="57.6" xlink:href="#m37431d3959" y="125.022447"/>
      </g>
     </g>
     <g id="text_11">
      <!-- 0.8 -->
      <defs>
       <path d="M 31.78125 34.625 
Q 24.75 34.625 20.71875 30.859375 
Q 16.703125 27.09375 16.703125 20.515625 
Q 16.703125 13.921875 20.71875 10.15625 
Q 24.75 6.390625 31.78125 6.390625 
Q 38.8125 6.390625 42.859375 10.171875 
Q 46.921875 13.96875 46.921875 20.515625 
Q 46.921875 27.09375 42.890625 30.859375 
Q 38.875 34.625 31.78125 34.625 
z
M 21.921875 38.8125 
Q 15.578125 40.375 12.03125 44.71875 
Q 8.5 49.078125 8.5 55.328125 
Q 8.5 64.0625 14.71875 69.140625 
Q 20.953125 74.21875 31.78125 74.21875 
Q 42.671875 74.21875 48.875 69.140625 
Q 55.078125 64.0625 55.078125 55.328125 
Q 55.078125 49.078125 51.53125 44.71875 
Q 48 40.375 41.703125 38.8125 
Q 48.828125 37.15625 52.796875 32.3125 
Q 56.78125 27.484375 56.78125 20.515625 
Q 56.78125 9.90625 50.3125 4.234375 
Q 43.84375 -1.421875 31.78125 -1.421875 
Q 19.734375 -1.421875 13.25 4.234375 
Q 6.78125 9.90625 6.78125 20.515625 
Q 6.78125 27.484375 10.78125 32.3125 
Q 14.796875 37.15625 21.921875 38.8125 
z
M 18.3125 54.390625 
Q 18.3125 48.734375 21.84375 45.5625 
Q 25.390625 42.390625 31.78125 42.390625 
Q 38.140625 42.390625 41.71875 45.5625 
Q 45.3125 48.734375 45.3125 54.390625 
Q 45.3125 60.0625 41.71875 63.234375 
Q 38.140625 66.40625 31.78125 66.40625 
Q 25.390625 66.40625 21.84375 63.234375 
Q 18.3125 60.0625 18.3125 54.390625 
z
" id="DejaVuSans-56"/>
      </defs>
      <g transform="translate(23.564687 131.481119)scale(0.17 -0.17)">
       <use xlink:href="#DejaVuSans-48"/>
       <use x="63.623047" xlink:href="#DejaVuSans-46"/>
       <use x="95.410156" xlink:href="#DejaVuSans-56"/>
      </g>
     </g>
    </g>
    <g id="ytick_6">
     <g id="line2d_11">
      <g>
       <use style="stroke:#000000;stroke-width:0.8;" x="57.6" xlink:href="#m37431d3959" y="79.382059"/>
      </g>
     </g>
     <g id="text_12">
      <!-- 1.0 -->
      <g transform="translate(23.564687 85.840731)scale(0.17 -0.17)">
       <use xlink:href="#DejaVuSans-49"/>
       <use x="63.623047" xlink:href="#DejaVuSans-46"/>
       <use x="95.410156" xlink:href="#DejaVuSans-48"/>
      </g>
     </g>
    </g>
    <g id="text_13">
     <!-- Density -->
     <defs>
      <path d="M 19.671875 64.796875 
L 19.671875 8.109375 
L 31.59375 8.109375 
Q 46.6875 8.109375 53.6875 14.9375 
Q 60.6875 21.78125 60.6875 36.53125 
Q 60.6875 51.171875 53.6875 57.984375 
Q 46.6875 64.796875 31.59375 64.796875 
z
M 9.8125 72.90625 
L 30.078125 72.90625 
Q 51.265625 72.90625 61.171875 64.09375 
Q 71.09375 55.28125 71.09375 36.53125 
Q 71.09375 17.671875 61.125 8.828125 
Q 51.171875 0 30.078125 0 
L 9.8125 0 
z
" id="DejaVuSans-68"/>
      <path d="M 56.203125 29.59375 
L 56.203125 25.203125 
L 14.890625 25.203125 
Q 15.484375 15.921875 20.484375 11.0625 
Q 25.484375 6.203125 34.421875 6.203125 
Q 39.59375 6.203125 44.453125 7.46875 
Q 49.3125 8.734375 54.109375 11.28125 
L 54.109375 2.78125 
Q 49.265625 0.734375 44.1875 -0.34375 
Q 39.109375 -1.421875 33.890625 -1.421875 
Q 20.796875 -1.421875 13.15625 6.1875 
Q 5.515625 13.8125 5.515625 26.8125 
Q 5.515625 40.234375 12.765625 48.109375 
Q 20.015625 56 32.328125 56 
Q 43.359375 56 49.78125 48.890625 
Q 56.203125 41.796875 56.203125 29.59375 
z
M 47.21875 32.234375 
Q 47.125 39.59375 43.09375 43.984375 
Q 39.0625 48.390625 32.421875 48.390625 
Q 24.90625 48.390625 20.390625 44.140625 
Q 15.875 39.890625 15.1875 32.171875 
z
" id="DejaVuSans-101"/>
      <path d="M 32.171875 -5.078125 
Q 28.375 -14.84375 24.75 -17.8125 
Q 21.140625 -20.796875 15.09375 -20.796875 
L 7.90625 -20.796875 
L 7.90625 -13.28125 
L 13.1875 -13.28125 
Q 16.890625 -13.28125 18.9375 -11.515625 
Q 21 -9.765625 23.484375 -3.21875 
L 25.09375 0.875 
L 2.984375 54.6875 
L 12.5 54.6875 
L 29.59375 11.921875 
L 46.6875 54.6875 
L 56.203125 54.6875 
z
" id="DejaVuSans-121"/>
     </defs>
     <g transform="translate(13.325625 231.553781)rotate(-90)scale(0.3 -0.3)">
      <use xlink:href="#DejaVuSans-68"/>
      <use x="77.001953" xlink:href="#DejaVuSans-101"/>
      <use x="138.525391" xlink:href="#DejaVuSans-110"/>
      <use x="201.904297" xlink:href="#DejaVuSans-115"/>
      <use x="254.003906" xlink:href="#DejaVuSans-105"/>
      <use x="281.787109" xlink:href="#DejaVuSans-116"/>
      <use x="320.996094" xlink:href="#DejaVuSans-121"/>
     </g>
    </g>
   </g>
   <g id="line2d_12">
    <path clip-path="url(#p52af12cab5)" d="M 73.832727 307.584 
L 97.977008 307.472897 
L 98.247563 307.196938 
L 98.485651 306.575689 
L 98.734561 305.20047 
L 99.02676 302.133218 
L 99.448825 294.84204 
L 99.979112 286.56303 
L 100.163089 285.855951 
L 100.173911 285.859813 
L 100.260488 286.067013 
L 100.422821 287.220128 
L 100.779953 291.853055 
L 101.266951 297.219516 
L 101.515861 298.094989 
L 101.634905 298.07627 
L 101.645727 298.062514 
L 101.80806 297.652825 
L 102.132725 296.06424 
L 102.933566 292.086803 
L 103.344809 291.146896 
L 103.864274 290.545457 
L 104.34045 289.90503 
L 104.719226 288.968077 
L 105.281979 286.851738 
L 106.959417 279.505731 
L 107.435593 275.015374 
L 108.128212 268.822219 
L 108.452878 267.617516 
L 108.690966 267.404642 
L 108.907409 267.516984 
L 109.470162 267.89448 
L 109.664962 267.702497 
L 109.913872 267.066766 
L 110.335937 265.210704 
L 110.99609 262.524323 
L 111.439799 260.687658 
L 111.818575 257.878248 
L 112.727638 250.692397 
L 113.009015 250.046684 
L 113.236281 249.989594 
L 113.669168 249.979808 
L 113.885611 249.647442 
L 114.221099 248.624553 
L 114.881252 246.618958 
L 115.065229 246.561911 
L 115.216739 246.792826 
L 115.433183 247.605619 
L 115.768671 249.897752 
L 116.537045 255.357983 
L 116.721022 255.592912 
L 116.731845 255.58854 
L 116.861711 255.384538 
L 117.078154 254.493519 
L 117.532686 251.373921 
L 118.05215 248.39727 
L 118.311883 247.88835 
L 118.463393 247.933004 
L 118.64737 248.290634 
L 118.950391 249.469243 
L 119.459034 252.524018 
L 120.162475 256.509789 
L 120.411385 256.933521 
L 120.541251 256.84295 
L 120.725229 256.355334 
L 121.060716 254.677667 
L 121.591003 252.241742 
L 121.807446 252.038351 
L 121.958957 252.205213 
L 122.218689 252.917311 
L 123.008708 256.050553 
L 124.339836 261.34782 
L 124.502169 261.277641 
L 124.751079 260.850389 
L 125.324655 259.28862 
L 125.909052 257.064507 
L 126.460983 255.250836 
L 126.915515 253.878504 
L 127.218536 251.946173 
L 127.986911 246.587771 
L 128.073488 246.657409 
L 128.214176 247.241166 
L 128.452264 249.430235 
L 129.447905 259.965945 
L 129.556127 260.051594 
L 129.588593 260.024379 
L 129.718459 259.684348 
L 129.945725 258.309197 
L 130.400256 253.817214 
L 130.973832 248.86358 
L 131.352608 247.333897 
L 131.80714 246.425849 
L 132.153449 246.096252 
L 132.359071 246.15879 
L 132.640448 246.541808 
L 133.008402 246.956758 
L 133.159912 246.840023 
L 133.354711 246.303706 
L 133.657732 244.665294 
L 134.285419 241.28375 
L 134.469396 241.142039 
L 134.620906 241.352826 
L 135.281059 242.735528 
L 135.33517 242.693507 
L 135.508325 242.321008 
L 135.843812 240.892932 
L 136.211767 239.684951 
L 136.319988 239.697249 
L 136.330811 239.711182 
L 136.471499 240.11871 
L 136.687942 241.573008 
L 137.088363 246.158978 
L 137.683583 252.387009 
L 138.051537 254.132239 
L 139.220332 258.127669 
L 139.544998 258.926743 
L 139.685686 258.904285 
L 139.848019 258.544275 
L 140.096929 257.335251 
L 140.605571 253.434948 
L 141.125036 250.170515 
L 141.39559 249.594281 
L 141.557923 249.635689 
L 141.785189 250.033283 
L 142.715896 251.925433 
L 143.062206 252.154083 
L 143.257005 252.051784 
L 143.473449 251.640274 
L 143.808936 250.426767 
L 145.302397 244.505164 
L 145.51884 244.227225 
L 145.637884 244.401751 
L 145.811039 245.15531 
L 146.081594 247.531118 
L 146.655169 255.269431 
L 147.066412 259.263643 
L 147.282856 259.82588 
L 147.380255 259.697907 
L 147.55341 258.939606 
L 147.856431 256.365252 
L 148.830427 247.424531 
L 149.100982 246.764209 
L 149.295781 246.751431 
L 149.642091 246.808927 
L 149.804423 246.476621 
L 150.020867 245.413887 
L 150.410465 242.076154 
L 150.875819 238.70558 
L 151.103085 238.241743 
L 151.243773 238.322952 
L 151.471039 238.827704 
L 152.336813 240.959674 
L 152.888744 241.998686 
L 153.299987 243.52412 
L 153.678763 244.634704 
L 153.819452 244.626372 
L 153.970962 244.280657 
L 154.252339 242.925676 
L 154.663582 241.240693 
L 154.760981 241.255195 
L 154.771803 241.270736 
L 154.90167 241.686769 
L 155.118113 243.311113 
L 155.507712 248.338892 
L 156.135398 255.910601 
L 156.416775 257.178766 
L 156.557463 257.251458 
L 156.568285 257.243293 
L 156.719796 256.952279 
L 157.011994 255.753115 
L 157.563926 253.607377 
L 157.769547 253.457951 
L 157.93188 253.642918 
L 158.191612 254.372849 
L 159.122319 257.28267 
L 159.42534 257.511741 
L 159.67425 257.43188 
L 159.933983 257.079412 
L 160.226182 256.253362 
L 160.583314 254.471836 
L 161.405799 250.11299 
L 161.600598 249.995431 
L 161.784575 250.207499 
L 162.260751 250.815818 
L 162.40144 250.668676 
L 162.607061 250.0409 
L 162.942549 248.126643 
L 163.516124 245.002263 
L 163.656812 244.887339 
L 163.678457 244.903394 
L 163.808323 245.191195 
L 164.035589 246.402526 
L 164.771497 250.755638 
L 164.868896 250.692787 
L 165.020407 250.185929 
L 165.312606 248.178594 
L 165.842892 244.723131 
L 166.02687 244.49091 
L 166.037692 244.496377 
L 166.167558 244.716563 
L 166.394824 245.679762 
L 166.881822 249.001752 
L 168.21295 258.08638 
L 168.699948 259.741311 
L 169.197768 260.753222 
L 169.435856 260.864435 
L 169.619833 260.688834 
L 169.868743 260.078836 
L 170.334097 258.191997 
L 170.864383 256.326693 
L 171.091649 256.124359 
L 171.253982 256.260796 
L 171.535359 256.892108 
L 172.011534 257.859226 
L 172.195511 257.860739 
L 172.390311 257.589301 
L 172.671687 256.746125 
L 173.050464 254.83162 
L 174.100215 248.973645 
L 174.230081 248.99711 
L 174.381592 249.363889 
L 174.630502 250.666645 
L 175.71272 257.198219 
L 175.875052 257.229485 
L 176.037385 256.961931 
L 176.340406 255.906778 
L 177.119603 253.111641 
L 177.40098 252.766866 
L 177.55249 252.843694 
L 177.725645 253.239456 
L 177.974555 254.469845 
L 178.829507 259.745375 
L 178.883618 259.698243 
L 179.013484 259.265984 
L 179.24075 257.540876 
L 179.944192 251.655525 
L 180.019947 251.637828 
L 180.052413 251.682596 
L 180.18228 252.158588 
L 180.442012 254.203794 
L 181.004765 258.570183 
L 181.134631 258.728859 
L 181.167098 258.701654 
L 181.286142 258.377855 
L 181.502585 256.98084 
L 181.967939 252.046454 
L 182.390004 248.642582 
L 182.552337 248.327015 
L 182.573981 248.335799 
L 182.682203 248.558145 
L 182.877002 249.641528 
L 183.385644 254.344291 
L 183.699488 256.051281 
L 183.818532 256.14747 
L 183.850998 256.120374 
L 183.991687 255.768026 
L 184.283885 254.239364 
L 184.738417 252.162492 
L 184.965683 251.923515 
L 185.192948 252.030868 
L 185.463503 252.08746 
L 185.636658 251.865475 
L 185.885568 251.101007 
L 186.383388 248.613972 
L 186.827097 246.872343 
L 187.011074 246.743791 
L 187.140941 246.952457 
L 187.346562 247.804602 
L 187.73616 250.626623 
L 188.201514 253.460305 
L 188.407136 253.741888 
L 188.526179 253.57749 
L 188.731801 252.784001 
L 189.110577 250.18776 
L 189.911418 244.746285 
L 190.225262 243.853946 
L 190.398416 243.828341 
L 190.560749 244.119503 
L 190.842126 245.190077 
L 191.339946 246.983463 
L 191.45899 246.983867 
L 191.469812 246.97121 
L 191.6105 246.600517 
L 191.837766 245.200018 
L 192.346409 240.094268 
L 192.681896 237.955509 
L 192.779296 237.851179 
L 192.822585 237.891088 
L 192.952451 238.328126 
L 193.179716 240.11847 
L 194.305223 250.65241 
L 194.500022 250.804606 
L 194.651533 250.598292 
L 194.889621 249.801543 
L 195.268397 247.607715 
L 196.123349 242.458673 
L 196.372259 242.073277 
L 196.52377 242.140054 
L 196.729391 242.555666 
L 197.02159 243.748942 
L 197.411188 246.415582 
L 198.547517 256.764198 
L 199.9544 268.281088 
L 200.073444 268.228301 
L 200.224955 267.765772 
L 200.495509 266.052666 
L 201.437039 259.462099 
L 201.685949 259.065273 
L 201.859104 259.118123 
L 202.08637 259.498464 
L 202.400213 260.523117 
L 202.843922 262.863865 
L 203.363387 265.294177 
L 203.558186 265.475727 
L 203.698874 265.29087 
L 203.936962 264.48269 
L 204.791914 261.219239 
L 204.965069 261.207203 
L 205.149046 261.485898 
L 205.571111 262.702553 
L 205.86331 263.194597 
L 205.993176 263.122548 
L 206.166331 262.683871 
L 206.447708 261.23375 
L 207.172794 257.323859 
L 207.378415 257.141604 
L 207.529926 257.311023 
L 207.789658 258.041018 
L 208.363233 260.521247 
L 209.272296 264.281364 
L 209.553673 264.68759 
L 209.705184 264.627118 
L 209.878338 264.252827 
L 210.105604 263.151314 
L 210.408625 260.416848 
L 210.917268 253.286165 
L 211.436732 247.190193 
L 211.67482 246.37329 
L 211.761398 246.461204 
L 211.912908 247.0881 
L 212.17264 249.329206 
L 213.319791 260.624693 
L 213.568702 261.124288 
L 213.720212 261.064092 
L 213.925833 260.642342 
L 214.488587 258.723615 
L 214.921474 257.742018 
L 215.765604 256.311001 
L 216.155202 254.717211 
L 217.150843 250.341651 
L 217.367286 250.180531 
L 217.529619 250.330674 
L 217.767707 250.930793 
L 218.168128 252.666907 
L 219.152946 257.100008 
L 219.358567 257.274491 
L 219.488433 257.100494 
L 219.683233 256.372662 
L 219.986254 254.189306 
L 221.090116 245.279094 
L 221.349848 244.775616 
L 221.479714 244.841758 
L 221.642047 245.264795 
L 221.880135 246.636188 
L 222.248089 250.332323 
L 222.929886 257.096845 
L 223.200441 257.969677 
L 223.39524 258.036037 
L 223.979638 257.903361 
L 224.293481 258.354643 
L 224.58568 258.614164 
L 224.726368 258.465876 
L 224.910345 257.86592 
L 225.180899 256.084401 
L 225.711186 250.671011 
L 226.512027 243.224296 
L 227.085603 239.623656 
L 227.36698 238.931507 
L 227.507668 238.979528 
L 227.680823 239.409747 
L 227.994666 240.971869 
L 228.492486 243.244782 
L 228.633175 243.337218 
L 228.654819 243.32182 
L 228.795507 243.027989 
L 229.022773 241.909109 
L 229.55306 237.771334 
L 230.040058 234.868295 
L 230.700211 231.786095 
L 230.970765 228.420479 
L 231.349541 220.418851 
L 231.977228 207.687058 
L 232.161205 206.808177 
L 232.172027 206.811862 
L 232.247782 207.007708 
L 232.399293 208.241253 
L 232.680669 212.829662 
L 233.600555 229.01855 
L 233.957687 231.572778 
L 234.098375 231.827114 
L 234.130841 231.800715 
L 234.228241 231.477364 
L 234.379752 230.022432 
L 234.574551 225.620209 
L 234.812639 214.251918 
L 235.094015 188.696885 
L 235.51608 125.63847 
L 236.024723 58.589048 
L 236.165411 54.144 
L 236.197878 54.297297 
L 236.284455 56.867239 
L 236.45761 70.752845 
L 236.80392 121.664955 
L 237.420784 206.073828 
L 237.777916 228.115804 
L 238.091759 236.06529 
L 238.329847 237.866166 
L 238.39478 237.90681 
L 238.438069 237.844575 
L 238.567935 237.281481 
L 238.816845 234.980863 
L 239.282199 228.180614 
L 240.267017 213.23642 
L 240.321128 213.183864 
L 240.364417 213.249282 
L 240.48346 213.925431 
L 240.689082 216.689568 
L 241.111147 226.246263 
L 241.749655 239.290371 
L 242.150076 243.452371 
L 242.474741 244.920308 
L 242.76694 245.371275 
L 243.45956 246.046103 
L 243.805869 247.016804 
L 244.70411 249.761667 
L 245.385908 250.845734 
L 245.656462 252.249396 
L 246.002772 255.40751 
L 246.955123 264.872484 
L 247.063345 264.989628 
L 247.106634 264.952526 
L 247.2365 264.568865 
L 247.474588 263.004731 
L 248.264607 257.337113 
L 248.545984 256.812347 
L 249.043804 256.171214 
L 249.357647 255.128132 
L 249.985334 252.00479 
L 250.569731 249.617929 
L 250.926863 248.916254 
L 251.143307 248.854306 
L 251.327284 249.050473 
L 251.60866 249.758194 
L 252.506901 252.275675 
L 253.513364 253.575746 
L 253.654052 253.433106 
L 253.827207 252.870422 
L 254.076117 251.160574 
L 254.573937 245.642731 
L 254.941892 242.808146 
L 255.104224 242.529548 
L 255.125869 242.539796 
L 255.244913 242.77851 
L 255.461356 243.861211 
L 256.002465 248.125208 
L 256.478641 251.075952 
L 256.662618 251.379687 
L 256.684262 251.370431 
L 256.792484 251.168434 
L 256.976461 250.218951 
L 257.290304 247.142815 
L 257.950457 240.693784 
L 258.188545 240.088219 
L 258.307589 240.169592 
L 258.491566 240.704591 
L 258.827054 242.549198 
L 259.865983 250.129583 
L 260.99149 258.610155 
L 261.370266 259.402365 
L 261.684109 260.242887 
L 262.192751 262.513588 
L 262.603994 263.813867 
L 262.852904 264.022636 
L 263.047704 263.909089 
L 263.32908 263.418391 
L 263.891833 262.41817 
L 264.032522 262.503341 
L 264.216499 262.94869 
L 264.551986 264.504964 
L 264.974051 266.137594 
L 265.136384 266.201704 
L 265.287895 265.947819 
L 265.645026 264.728847 
L 265.969692 263.987895 
L 266.132025 263.990962 
L 266.326824 264.292095 
L 267.45233 266.519903 
L 267.70124 266.508119 
L 267.917684 266.246753 
L 268.188239 265.507 
L 268.577837 263.660734 
L 269.714166 257.850186 
L 270.049653 257.280396 
L 270.320208 257.181706 
L 270.558296 257.330068 
L 270.839672 257.817169 
L 271.42407 258.885461 
L 271.553936 258.722195 
L 271.737913 258.035498 
L 272.040934 255.852404 
L 272.701087 251.045272 
L 272.939175 250.61753 
L 273.11233 250.685226 
L 273.61015 251.017761 
L 273.826594 250.76814 
L 274.281125 250.220285 
L 274.421814 250.410073 
L 274.616613 251.154116 
L 274.919634 253.362886 
L 276.380628 265.429636 
L 276.965026 268.756141 
L 277.300513 269.588013 
L 277.646823 269.882431 
L 278.090532 270.283316 
L 278.436842 270.526545 
L 278.599175 270.376756 
L 278.804796 269.789199 
L 279.129461 268.025564 
L 279.692215 265.09672 
L 279.887014 264.920945 
L 280.027702 265.126342 
L 280.276612 266.001548 
L 280.871832 268.117387 
L 281.023343 268.103033 
L 281.185675 267.72388 
L 281.45623 266.358014 
L 282.181316 262.451137 
L 282.30036 262.425838 
L 282.322004 262.449596 
L 282.462693 262.817815 
L 282.70078 264.229502 
L 283.112023 268.336529 
L 284.118486 278.730997 
L 284.38904 279.624546 
L 284.529729 279.630244 
L 284.692061 279.321327 
L 285.060015 277.975167 
L 286.044834 273.612753 
L 286.466899 269.615946 
L 287.17034 263.072959 
L 287.440895 262.241376 
L 287.581583 262.260225 
L 287.743916 262.615471 
L 288.01447 263.852982 
L 288.436535 266.974498 
L 289.637797 276.534764 
L 289.897529 277.017314 
L 290.04904 276.960948 
L 290.254661 276.555575 
L 290.590149 275.292935 
L 291.185369 272.006098 
L 291.899633 268.411191 
L 292.375808 267.121022 
L 292.971028 266.16325 
L 293.360627 265.876301 
L 293.642003 265.926335 
L 293.92338 266.218655 
L 294.215579 266.865202 
L 294.551066 268.212631 
L 295.687395 273.400507 
L 295.925483 273.498569 
L 296.282615 273.321341 
L 297.083456 272.767254 
L 297.332366 272.001525 
L 297.667854 270.1319 
L 298.652672 264.117704 
L 298.815005 264.015613 
L 298.825827 264.022178 
L 298.966515 264.25332 
L 299.204603 265.174273 
L 300.189422 269.552691 
L 301.390683 271.623152 
L 302.029192 272.348016 
L 302.288924 273.426653 
L 302.7651 276.675823 
L 303.165521 278.697034 
L 303.317031 278.841619 
L 303.338676 278.827476 
L 303.468542 278.552902 
L 303.674163 277.466991 
L 304.031295 274.127598 
L 304.626515 268.857958 
L 304.842959 268.374281 
L 304.95118 268.492404 
L 305.135157 269.166929 
L 305.503111 271.607123 
L 306.119976 275.367664 
L 306.412174 276.050801 
L 306.596152 276.076096 
L 306.801773 275.808164 
L 307.353704 274.515022 
L 308.219478 272.408834 
L 308.57661 270.268104 
L 309.550606 263.878024 
L 309.799516 263.529974 
L 309.994316 263.579195 
L 310.383914 264.000754 
L 311.011601 264.58876 
L 311.249688 264.550691 
L 311.487776 264.241906 
L 312.223685 263.116783 
L 312.407662 263.281528 
L 313.29508 264.392591 
L 313.760434 264.35437 
L 313.944411 264.701218 
L 314.193321 265.751323 
L 314.593742 268.64045 
L 315.178139 272.561902 
L 315.405405 272.9813 
L 315.524449 272.880543 
L 315.708426 272.340777 
L 316.087202 270.338333 
L 316.606667 267.940741 
L 316.909688 267.435849 
L 317.41833 266.911272 
L 317.645596 266.062283 
L 317.959439 263.851322 
L 318.965902 255.952708 
L 319.236456 255.457336 
L 319.442078 255.441582 
L 319.647699 255.675728 
L 319.874965 256.309941 
L 320.14552 257.834952 
L 320.502651 261.348968 
L 321.314315 269.66519 
L 321.509114 270.04654 
L 321.519936 270.041665 
L 321.628158 269.846173 
L 321.822957 268.876167 
L 322.180089 265.65353 
L 322.872709 259.556907 
L 323.132441 258.810075 
L 323.273129 258.826206 
L 323.446284 259.18675 
L 323.770949 260.528314 
L 324.344525 262.767035 
L 324.51768 262.85627 
L 324.528502 262.848745 
L 324.680012 262.580401 
L 324.928923 261.562433 
L 325.76223 257.775308 
L 325.978674 257.636655 
L 326.173473 257.79299 
L 326.541427 258.465035 
L 327.775156 261.303957 
L 328.413664 263.576892 
L 328.814085 265.912207 
L 329.950414 273.335503 
L 330.101924 273.350039 
L 330.264257 273.035589 
L 330.534811 271.915722 
L 331.054276 268.623221 
L 331.660318 263.454062 
L 332.731714 253.474048 
L 332.937335 253.211793 
L 333.088846 253.356668 
L 333.922153 254.508224 
L 334.160241 254.318089 
L 335.015193 253.406071 
L 335.026016 253.415572 
L 335.220815 253.758342 
L 335.523836 254.867694 
L 336.086589 256.876505 
L 336.227277 256.886695 
L 336.2381 256.875311 
L 336.38961 256.530633 
L 336.63852 255.296214 
L 337.569228 250.106057 
L 337.796493 249.89076 
L 337.948004 250.015111 
L 338.164447 250.557562 
L 338.478291 252.050711 
L 339.398176 256.808594 
L 339.549686 256.847715 
L 339.560509 256.838267 
L 339.712019 256.535747 
L 339.950107 255.462024 
L 340.36135 252.37848 
L 341.227124 245.869605 
L 341.779055 243.668228 
L 342.320164 241.203203 
L 343.846091 233.798671 
L 344.105824 233.400439 
L 344.268156 233.475774 
L 344.506244 233.922691 
L 345.004064 234.847761 
L 345.166397 234.790627 
L 345.361196 234.40021 
L 345.685862 233.124351 
L 346.248615 229.896858 
L 346.67068 226.128822 
L 347.633854 216.683371 
L 347.774542 216.518295 
L 347.807009 216.540652 
L 347.936875 216.840528 
L 348.164141 218.06397 
L 348.564561 221.688215 
L 349.635957 231.866512 
L 349.9498 232.90976 
L 350.133777 232.983125 
L 350.285288 232.74327 
L 350.501731 231.905307 
L 350.79393 229.755467 
L 351.183529 225.005039 
L 352.23328 211.230255 
L 352.471368 210.541446 
L 352.590412 210.612161 
L 352.774389 211.118553 
L 353.412898 213.087705 
L 353.531941 212.96351 
L 353.715919 212.317896 
L 354.01894 210.232659 
L 354.733203 205.13286 
L 354.906358 204.929208 
L 354.91718 204.935043 
L 355.047047 205.167599 
L 355.26349 206.133536 
L 355.804599 209.964943 
L 356.291597 212.583162 
L 356.594618 213.245592 
L 356.778595 213.259631 
L 356.95175 212.993486 
L 357.20066 212.11338 
L 357.568614 209.819851 
L 358.196301 205.988539 
L 358.304522 205.915756 
L 358.336989 205.951414 
L 358.466855 206.381935 
L 358.672476 208.034675 
L 359.007964 212.891148 
L 360.122648 230.247694 
L 361.291444 243.71102 
L 361.507887 244.133522 
L 361.637754 244.01877 
L 362.178862 243.158647 
L 362.232973 243.21518 
L 362.395306 243.64938 
L 362.655038 245.129786 
L 363.196147 249.909167 
L 363.70479 253.537766 
L 363.964522 254.160385 
L 364.10521 254.117453 
L 364.321654 253.700369 
L 364.743719 252.941065 
L 364.884407 253.032889 
L 365.068384 253.510152 
L 365.360583 254.999055 
L 365.815115 258.621775 
L 366.572667 266.935395 
L 367.276109 273.224866 
L 368.066128 280.945425 
L 368.596415 284.915213 
L 369.040124 286.726447 
L 369.353967 287.268975 
L 369.537944 287.242979 
L 369.743566 286.921219 
L 370.198097 285.645196 
L 371.128804 282.68586 
L 371.485936 279.756797 
L 371.962112 276.221328 
L 372.027045 276.176447 
L 372.070334 276.241189 
L 372.189378 276.845538 
L 372.384177 279.242551 
L 372.719665 286.705782 
L 373.444751 302.816355 
L 373.79106 306.034439 
L 374.094081 307.122238 
L 374.38628 307.466632 
L 374.786701 307.571008 
L 376.431672 307.584 
L 398.487273 307.584 
L 398.487273 307.584 
" style="fill:none;stroke:#ff7f0e;stroke-linecap:square;stroke-width:1.5;"/>
   </g>
   <g id="patch_103">
    <path d="M 57.6 307.584 
L 57.6 41.472 
" style="fill:none;stroke:#000000;stroke-linecap:square;stroke-linejoin:miter;stroke-width:0.8;"/>
   </g>
   <g id="patch_104">
    <path d="M 414.72 307.584 
L 414.72 41.472 
" style="fill:none;stroke:#000000;stroke-linecap:square;stroke-linejoin:miter;stroke-width:0.8;"/>
   </g>
   <g id="patch_105">
    <path d="M 57.6 307.584 
L 414.72 307.584 
" style="fill:none;stroke:#000000;stroke-linecap:square;stroke-linejoin:miter;stroke-width:0.8;"/>
   </g>
   <g id="patch_106">
    <path d="M 57.6 41.472 
L 414.72 41.472 
" style="fill:none;stroke:#000000;stroke-linecap:square;stroke-linejoin:miter;stroke-width:0.8;"/>
   </g>
  </g>
 </g>
 <defs>
  <clipPath id="p52af12cab5">
   <rect height="266.112" width="357.12" x="57.6" y="41.472"/>
  </clipPath>
 </defs>
</svg>
