<?xml version="1.0" encoding="utf-8" standalone="no"?>
<!DOCTYPE svg PUBLIC "-//W3C//DTD SVG 1.1//EN"
  "http://www.w3.org/Graphics/SVG/1.1/DTD/svg11.dtd">
<!-- Created with matplotlib (https://matplotlib.org/) -->
<svg height="345.6pt" version="1.1" viewBox="0 0 460.8 345.6" width="460.8pt" xmlns="http://www.w3.org/2000/svg" xmlns:xlink="http://www.w3.org/1999/xlink">
 <defs>
  <style type="text/css">
*{stroke-linecap:butt;stroke-linejoin:round;}
  </style>
 </defs>
 <g id="figure_1">
  <g id="patch_1">
   <path d="M 0 345.6 
L 460.8 345.6 
L 460.8 0 
L 0 0 
z
" style="fill:#ffffff;"/>
  </g>
  <g id="axes_1">
   <g id="patch_2">
    <path d="M 57.6 307.584 
L 414.72 307.584 
L 414.72 41.472 
L 57.6 41.472 
z
" style="fill:#ffffff;"/>
   </g>
   <g id="patch_3">
    <path clip-path="url(#p3f856a4ecc)" d="M 99.974088 307.584 
L 102.697914 307.584 
L 102.697914 286.568224 
L 99.974088 286.568224 
z
" style="fill:#1f77b4;"/>
   </g>
   <g id="patch_4">
    <path clip-path="url(#p3f856a4ecc)" d="M 102.69793 307.584 
L 105.421756 307.584 
L 105.421756 287.38702 
L 102.69793 287.38702 
z
" style="fill:#1f77b4;"/>
   </g>
   <g id="patch_5">
    <path clip-path="url(#p3f856a4ecc)" d="M 105.42174 307.584 
L 108.145574 307.584 
L 108.145574 276.469822 
L 105.42174 276.469822 
z
" style="fill:#1f77b4;"/>
   </g>
   <g id="patch_6">
    <path clip-path="url(#p3f856a4ecc)" d="M 108.145566 307.584 
L 110.8694 307.584 
L 110.8694 260.366871 
L 108.145566 260.366871 
z
" style="fill:#1f77b4;"/>
   </g>
   <g id="patch_7">
    <path clip-path="url(#p3f856a4ecc)" d="M 110.869408 307.584 
L 113.593234 307.584 
L 113.593234 245.901332 
L 110.869408 245.901332 
z
" style="fill:#1f77b4;"/>
   </g>
   <g id="patch_8">
    <path clip-path="url(#p3f856a4ecc)" d="M 113.593234 307.584 
L 116.317068 307.584 
L 116.317068 236.348909 
L 113.593234 236.348909 
z
" style="fill:#1f77b4;"/>
   </g>
   <g id="patch_9">
    <path clip-path="url(#p3f856a4ecc)" d="M 116.317068 307.584 
L 119.040894 307.584 
L 119.040894 245.901332 
L 116.317068 245.901332 
z
" style="fill:#1f77b4;"/>
   </g>
   <g id="patch_10">
    <path clip-path="url(#p3f856a4ecc)" d="M 119.040886 307.584 
L 121.76472 307.584 
L 121.76472 243.445125 
L 119.040886 243.445125 
z
" style="fill:#1f77b4;"/>
   </g>
   <g id="patch_11">
    <path clip-path="url(#p3f856a4ecc)" d="M 121.764727 307.584 
L 124.488553 307.584 
L 124.488553 251.90584 
L 121.764727 251.90584 
z
" style="fill:#1f77b4;"/>
   </g>
   <g id="patch_12">
    <path clip-path="url(#p3f856a4ecc)" d="M 124.488553 307.584 
L 127.212387 307.584 
L 127.212387 246.993233 
L 124.488553 246.993233 
z
" style="fill:#1f77b4;"/>
   </g>
   <g id="patch_13">
    <path clip-path="url(#p3f856a4ecc)" d="M 127.212387 307.584 
L 129.936213 307.584 
L 129.936213 242.353214 
L 127.212387 242.353214 
z
" style="fill:#1f77b4;"/>
   </g>
   <g id="patch_14">
    <path clip-path="url(#p3f856a4ecc)" d="M 129.936205 307.584 
L 132.660039 307.584 
L 132.660039 242.353399 
L 129.936205 242.353399 
z
" style="fill:#1f77b4;"/>
   </g>
   <g id="patch_15">
    <path clip-path="url(#p3f856a4ecc)" d="M 132.660047 307.584 
L 135.383873 307.584 
L 135.383873 237.713367 
L 132.660047 237.713367 
z
" style="fill:#1f77b4;"/>
   </g>
   <g id="patch_16">
    <path clip-path="url(#p3f856a4ecc)" d="M 135.383873 307.584 
L 138.107699 307.584 
L 138.107699 243.172011 
L 135.383873 243.172011 
z
" style="fill:#1f77b4;"/>
   </g>
   <g id="patch_17">
    <path clip-path="url(#p3f856a4ecc)" d="M 138.107699 307.584 
L 140.831533 307.584 
L 140.831533 255.999969 
L 138.107699 255.999969 
z
" style="fill:#1f77b4;"/>
   </g>
   <g id="patch_18">
    <path clip-path="url(#p3f856a4ecc)" d="M 140.831533 307.584 
L 143.555359 307.584 
L 143.555359 246.993061 
L 140.831533 246.993061 
z
" style="fill:#1f77b4;"/>
   </g>
   <g id="patch_19">
    <path clip-path="url(#p3f856a4ecc)" d="M 143.555351 307.584 
L 146.279185 307.584 
L 146.279185 241.261674 
L 143.555351 241.261674 
z
" style="fill:#1f77b4;"/>
   </g>
   <g id="patch_20">
    <path clip-path="url(#p3f856a4ecc)" d="M 146.279193 307.584 
L 149.003019 307.584 
L 149.003019 252.451704 
L 146.279193 252.451704 
z
" style="fill:#1f77b4;"/>
   </g>
   <g id="patch_21">
    <path clip-path="url(#p3f856a4ecc)" d="M 149.003019 307.584 
L 151.726852 307.584 
L 151.726852 245.355645 
L 149.003019 245.355645 
z
" style="fill:#1f77b4;"/>
   </g>
   <g id="patch_22">
    <path clip-path="url(#p3f856a4ecc)" d="M 151.726852 307.584 
L 154.450678 307.584 
L 154.450678 242.626146 
L 151.726852 242.626146 
z
" style="fill:#1f77b4;"/>
   </g>
   <g id="patch_23">
    <path clip-path="url(#p3f856a4ecc)" d="M 154.450671 307.584 
L 157.174504 307.584 
L 157.174504 246.993233 
L 154.450671 246.993233 
z
" style="fill:#1f77b4;"/>
   </g>
   <g id="patch_24">
    <path clip-path="url(#p3f856a4ecc)" d="M 157.174512 307.584 
L 159.898338 307.584 
L 159.898338 257.091551 
L 157.174512 257.091551 
z
" style="fill:#1f77b4;"/>
   </g>
   <g id="patch_25">
    <path clip-path="url(#p3f856a4ecc)" d="M 159.898338 307.584 
L 162.622172 307.584 
L 162.622172 254.635312 
L 159.898338 254.635312 
z
" style="fill:#1f77b4;"/>
   </g>
   <g id="patch_26">
    <path clip-path="url(#p3f856a4ecc)" d="M 162.622172 307.584 
L 165.345998 307.584 
L 165.345998 252.451704 
L 162.622172 252.451704 
z
" style="fill:#1f77b4;"/>
   </g>
   <g id="patch_27">
    <path clip-path="url(#p3f856a4ecc)" d="M 165.34599 307.584 
L 168.069824 307.584 
L 168.069824 249.722547 
L 165.34599 249.722547 
z
" style="fill:#1f77b4;"/>
   </g>
   <g id="patch_28">
    <path clip-path="url(#p3f856a4ecc)" d="M 168.069832 307.584 
L 170.793658 307.584 
L 170.793658 262.550194 
L 168.069832 262.550194 
z
" style="fill:#1f77b4;"/>
   </g>
   <g id="patch_29">
    <path clip-path="url(#p3f856a4ecc)" d="M 170.793658 307.584 
L 173.517488 307.584 
L 173.517488 257.364554 
L 170.793658 257.364554 
z
" style="fill:#1f77b4;"/>
   </g>
   <g id="patch_30">
    <path clip-path="url(#p3f856a4ecc)" d="M 173.517492 307.584 
L 176.241321 307.584 
L 176.241321 251.087123 
L 173.517492 251.087123 
z
" style="fill:#1f77b4;"/>
   </g>
   <g id="patch_31">
    <path clip-path="url(#p3f856a4ecc)" d="M 176.241318 307.584 
L 178.965148 307.584 
L 178.965148 258.456281 
L 176.241318 258.456281 
z
" style="fill:#1f77b4;"/>
   </g>
   <g id="patch_32">
    <path clip-path="url(#p3f856a4ecc)" d="M 178.965151 307.584 
L 181.688981 307.584 
L 181.688981 252.451782 
L 178.965151 252.451782 
z
" style="fill:#1f77b4;"/>
   </g>
   <g id="patch_33">
    <path clip-path="url(#p3f856a4ecc)" d="M 181.688977 307.584 
L 184.412807 307.584 
L 184.412807 252.997646 
L 181.688977 252.997646 
z
" style="fill:#1f77b4;"/>
   </g>
   <g id="patch_34">
    <path clip-path="url(#p3f856a4ecc)" d="M 184.412807 307.584 
L 187.136633 307.584 
L 187.136633 244.536671 
L 184.412807 244.536671 
z
" style="fill:#1f77b4;"/>
   </g>
   <g id="patch_35">
    <path clip-path="url(#p3f856a4ecc)" d="M 187.136637 307.584 
L 189.860467 307.584 
L 189.860467 251.087123 
L 187.136637 251.087123 
z
" style="fill:#1f77b4;"/>
   </g>
   <g id="patch_36">
    <path clip-path="url(#p3f856a4ecc)" d="M 189.860463 307.584 
L 192.584293 307.584 
L 192.584293 243.172102 
L 189.860463 243.172102 
z
" style="fill:#1f77b4;"/>
   </g>
   <g id="patch_37">
    <path clip-path="url(#p3f856a4ecc)" d="M 192.584297 307.584 
L 195.308127 307.584 
L 195.308127 245.628488 
L 192.584297 245.628488 
z
" style="fill:#1f77b4;"/>
   </g>
   <g id="patch_38">
    <path clip-path="url(#p3f856a4ecc)" d="M 195.308123 307.584 
L 198.031953 307.584 
L 198.031953 248.084874 
L 195.308123 248.084874 
z
" style="fill:#1f77b4;"/>
   </g>
   <g id="patch_39">
    <path clip-path="url(#p3f856a4ecc)" d="M 198.031957 307.584 
L 200.755787 307.584 
L 200.755787 255.999895 
L 198.031957 255.999895 
z
" style="fill:#1f77b4;"/>
   </g>
   <g id="patch_40">
    <path clip-path="url(#p3f856a4ecc)" d="M 200.755783 307.584 
L 203.479613 307.584 
L 203.479613 257.364554 
L 200.755783 257.364554 
z
" style="fill:#1f77b4;"/>
   </g>
   <g id="patch_41">
    <path clip-path="url(#p3f856a4ecc)" d="M 203.479613 307.584 
L 206.203443 307.584 
L 206.203443 258.183349 
L 203.479613 258.183349 
z
" style="fill:#1f77b4;"/>
   </g>
   <g id="patch_42">
    <path clip-path="url(#p3f856a4ecc)" d="M 206.203443 307.584 
L 208.927273 307.584 
L 208.927273 253.816441 
L 206.203443 253.816441 
z
" style="fill:#1f77b4;"/>
   </g>
   <g id="patch_43">
    <path clip-path="url(#p3f856a4ecc)" d="M 208.927273 307.584 
L 211.651101 307.584 
L 211.651101 254.908131 
L 208.927273 254.908131 
z
" style="fill:#1f77b4;"/>
   </g>
   <g id="patch_44">
    <path clip-path="url(#p3f856a4ecc)" d="M 211.651101 307.584 
L 214.37493 307.584 
L 214.37493 255.454032 
L 211.651101 255.454032 
z
" style="fill:#1f77b4;"/>
   </g>
   <g id="patch_45">
    <path clip-path="url(#p3f856a4ecc)" d="M 214.37493 307.584 
L 217.09876 307.584 
L 217.09876 252.178851 
L 214.37493 252.178851 
z
" style="fill:#1f77b4;"/>
   </g>
   <g id="patch_46">
    <path clip-path="url(#p3f856a4ecc)" d="M 217.09876 307.584 
L 219.82259 307.584 
L 219.82259 250.814192 
L 217.09876 250.814192 
z
" style="fill:#1f77b4;"/>
   </g>
   <g id="patch_47">
    <path clip-path="url(#p3f856a4ecc)" d="M 219.82259 307.584 
L 222.54642 307.584 
L 222.54642 244.536761 
L 219.82259 244.536761 
z
" style="fill:#1f77b4;"/>
   </g>
   <g id="patch_48">
    <path clip-path="url(#p3f856a4ecc)" d="M 222.54642 307.584 
L 225.270249 307.584 
L 225.270249 254.362286 
L 222.54642 254.362286 
z
" style="fill:#1f77b4;"/>
   </g>
   <g id="patch_49">
    <path clip-path="url(#p3f856a4ecc)" d="M 225.270249 307.584 
L 227.994079 307.584 
L 227.994079 241.26158 
L 225.270249 241.26158 
z
" style="fill:#1f77b4;"/>
   </g>
   <g id="patch_50">
    <path clip-path="url(#p3f856a4ecc)" d="M 227.994079 307.584 
L 230.717908 307.584 
L 230.717908 237.713454 
L 227.994079 237.713454 
z
" style="fill:#1f77b4;"/>
   </g>
   <g id="patch_51">
    <path clip-path="url(#p3f856a4ecc)" d="M 230.717908 307.584 
L 233.441738 307.584 
L 233.441738 220.245826 
L 230.717908 220.245826 
z
" style="fill:#1f77b4;"/>
   </g>
   <g id="patch_52">
    <path clip-path="url(#p3f856a4ecc)" d="M 233.441738 307.584 
L 236.165568 307.584 
L 236.165568 127.449015 
L 233.441738 127.449015 
z
" style="fill:#1f77b4;"/>
   </g>
   <g id="patch_53">
    <path clip-path="url(#p3f856a4ecc)" d="M 236.165568 307.584 
L 238.889397 307.584 
L 238.889397 241.261574 
L 236.165568 241.261574 
z
" style="fill:#1f77b4;"/>
   </g>
   <g id="patch_54">
    <path clip-path="url(#p3f856a4ecc)" d="M 238.889397 307.584 
L 241.613227 307.584 
L 241.613227 222.156348 
L 238.889397 222.156348 
z
" style="fill:#1f77b4;"/>
   </g>
   <g id="patch_55">
    <path clip-path="url(#p3f856a4ecc)" d="M 241.613227 307.584 
L 244.337055 307.584 
L 244.337055 243.445022 
L 241.613227 243.445022 
z
" style="fill:#1f77b4;"/>
   </g>
   <g id="patch_56">
    <path clip-path="url(#p3f856a4ecc)" d="M 244.337056 307.584 
L 247.060886 307.584 
L 247.060886 257.091622 
L 244.337056 257.091622 
z
" style="fill:#1f77b4;"/>
   </g>
   <g id="patch_57">
    <path clip-path="url(#p3f856a4ecc)" d="M 247.060885 307.584 
L 249.784714 307.584 
L 249.784714 256.818673 
L 247.060885 256.818673 
z
" style="fill:#1f77b4;"/>
   </g>
   <g id="patch_58">
    <path clip-path="url(#p3f856a4ecc)" d="M 249.784715 307.584 
L 252.508545 307.584 
L 252.508545 248.084874 
L 249.784715 248.084874 
z
" style="fill:#1f77b4;"/>
   </g>
   <g id="patch_59">
    <path clip-path="url(#p3f856a4ecc)" d="M 252.508545 307.584 
L 255.232375 307.584 
L 255.232375 249.449533 
L 252.508545 249.449533 
z
" style="fill:#1f77b4;"/>
   </g>
   <g id="patch_60">
    <path clip-path="url(#p3f856a4ecc)" d="M 255.232375 307.584 
L 257.956205 307.584 
L 257.956205 252.724714 
L 255.232375 252.724714 
z
" style="fill:#1f77b4;"/>
   </g>
   <g id="patch_61">
    <path clip-path="url(#p3f856a4ecc)" d="M 257.956205 307.584 
L 260.680035 307.584 
L 260.680035 252.997646 
L 257.956205 252.997646 
z
" style="fill:#1f77b4;"/>
   </g>
   <g id="patch_62">
    <path clip-path="url(#p3f856a4ecc)" d="M 260.680037 307.584 
L 263.403865 307.584 
L 263.403865 264.187818 
L 260.680037 264.187818 
z
" style="fill:#1f77b4;"/>
   </g>
   <g id="patch_63">
    <path clip-path="url(#p3f856a4ecc)" d="M 263.403863 307.584 
L 266.127693 307.584 
L 266.127693 263.914917 
L 263.403863 263.914917 
z
" style="fill:#1f77b4;"/>
   </g>
   <g id="patch_64">
    <path clip-path="url(#p3f856a4ecc)" d="M 266.127693 307.584 
L 268.851523 307.584 
L 268.851523 269.646484 
L 266.127693 269.646484 
z
" style="fill:#1f77b4;"/>
   </g>
   <g id="patch_65">
    <path clip-path="url(#p3f856a4ecc)" d="M 268.851526 307.584 
L 271.575356 307.584 
L 271.575356 262.82319 
L 268.851526 262.82319 
z
" style="fill:#1f77b4;"/>
   </g>
   <g id="patch_66">
    <path clip-path="url(#p3f856a4ecc)" d="M 271.575353 307.584 
L 274.299182 307.584 
L 274.299182 260.912667 
L 271.575353 260.912667 
z
" style="fill:#1f77b4;"/>
   </g>
   <g id="patch_67">
    <path clip-path="url(#p3f856a4ecc)" d="M 274.299186 307.584 
L 277.023016 307.584 
L 277.023016 263.914917 
L 274.299186 263.914917 
z
" style="fill:#1f77b4;"/>
   </g>
   <g id="patch_68">
    <path clip-path="url(#p3f856a4ecc)" d="M 277.023012 307.584 
L 279.746842 307.584 
L 279.746842 270.192347 
L 277.023012 270.192347 
z
" style="fill:#1f77b4;"/>
   </g>
   <g id="patch_69">
    <path clip-path="url(#p3f856a4ecc)" d="M 279.746846 307.584 
L 282.470676 307.584 
L 282.470676 266.098371 
L 279.746846 266.098371 
z
" style="fill:#1f77b4;"/>
   </g>
   <g id="patch_70">
    <path clip-path="url(#p3f856a4ecc)" d="M 282.470672 307.584 
L 285.194502 307.584 
L 285.194502 274.832187 
L 282.470672 274.832187 
z
" style="fill:#1f77b4;"/>
   </g>
   <g id="patch_71">
    <path clip-path="url(#p3f856a4ecc)" d="M 285.194502 307.584 
L 287.918328 307.584 
L 287.918328 267.190041 
L 285.194502 267.190041 
z
" style="fill:#1f77b4;"/>
   </g>
   <g id="patch_72">
    <path clip-path="url(#p3f856a4ecc)" d="M 287.918332 307.584 
L 290.642162 307.584 
L 290.642162 272.648733 
L 287.918332 272.648733 
z
" style="fill:#1f77b4;"/>
   </g>
   <g id="patch_73">
    <path clip-path="url(#p3f856a4ecc)" d="M 290.642158 307.584 
L 293.365988 307.584 
L 293.365988 271.284074 
L 290.642158 271.284074 
z
" style="fill:#1f77b4;"/>
   </g>
   <g id="patch_74">
    <path clip-path="url(#p3f856a4ecc)" d="M 293.365992 307.584 
L 296.089822 307.584 
L 296.089822 272.10287 
L 293.365992 272.10287 
z
" style="fill:#1f77b4;"/>
   </g>
   <g id="patch_75">
    <path clip-path="url(#p3f856a4ecc)" d="M 296.089818 307.584 
L 298.813648 307.584 
L 298.813648 271.829938 
L 296.089818 271.829938 
z
" style="fill:#1f77b4;"/>
   </g>
   <g id="patch_76">
    <path clip-path="url(#p3f856a4ecc)" d="M 298.813652 307.584 
L 301.537478 307.584 
L 301.537478 271.011143 
L 298.813652 271.011143 
z
" style="fill:#1f77b4;"/>
   </g>
   <g id="patch_77">
    <path clip-path="url(#p3f856a4ecc)" d="M 301.537478 307.584 
L 304.261304 307.584 
L 304.261304 272.648684 
L 301.537478 272.648684 
z
" style="fill:#1f77b4;"/>
   </g>
   <g id="patch_78">
    <path clip-path="url(#p3f856a4ecc)" d="M 304.261304 307.584 
L 306.985137 307.584 
L 306.985137 273.467577 
L 304.261304 273.467577 
z
" style="fill:#1f77b4;"/>
   </g>
   <g id="patch_79">
    <path clip-path="url(#p3f856a4ecc)" d="M 306.985137 307.584 
L 309.708963 307.584 
L 309.708963 269.64643 
L 306.985137 269.64643 
z
" style="fill:#1f77b4;"/>
   </g>
   <g id="patch_80">
    <path clip-path="url(#p3f856a4ecc)" d="M 309.708956 307.584 
L 312.432789 307.584 
L 312.432789 265.552567 
L 309.708956 265.552567 
z
" style="fill:#1f77b4;"/>
   </g>
   <g id="patch_81">
    <path clip-path="url(#p3f856a4ecc)" d="M 312.432797 307.584 
L 315.156623 307.584 
L 315.156623 269.64643 
L 312.432797 269.64643 
z
" style="fill:#1f77b4;"/>
   </g>
   <g id="patch_82">
    <path clip-path="url(#p3f856a4ecc)" d="M 315.156623 307.584 
L 317.880457 307.584 
L 317.880457 264.18791 
L 315.156623 264.18791 
z
" style="fill:#1f77b4;"/>
   </g>
   <g id="patch_83">
    <path clip-path="url(#p3f856a4ecc)" d="M 317.880457 307.584 
L 320.604283 307.584 
L 320.604283 255.453958 
L 317.880457 255.453958 
z
" style="fill:#1f77b4;"/>
   </g>
   <g id="patch_84">
    <path clip-path="url(#p3f856a4ecc)" d="M 320.604275 307.584 
L 323.328109 307.584 
L 323.328109 266.09843 
L 320.604275 266.09843 
z
" style="fill:#1f77b4;"/>
   </g>
   <g id="patch_85">
    <path clip-path="url(#p3f856a4ecc)" d="M 323.328117 307.584 
L 326.051943 307.584 
L 326.051943 263.36899 
L 323.328117 263.36899 
z
" style="fill:#1f77b4;"/>
   </g>
   <g id="patch_86">
    <path clip-path="url(#p3f856a4ecc)" d="M 326.051943 307.584 
L 328.775777 307.584 
L 328.775777 264.460841 
L 326.051943 264.460841 
z
" style="fill:#1f77b4;"/>
   </g>
   <g id="patch_87">
    <path clip-path="url(#p3f856a4ecc)" d="M 328.775777 307.584 
L 331.499603 307.584 
L 331.499603 264.460719 
L 328.775777 264.460719 
z
" style="fill:#1f77b4;"/>
   </g>
   <g id="patch_88">
    <path clip-path="url(#p3f856a4ecc)" d="M 331.499595 307.584 
L 334.223429 307.584 
L 334.223429 256.2729 
L 331.499595 256.2729 
z
" style="fill:#1f77b4;"/>
   </g>
   <g id="patch_89">
    <path clip-path="url(#p3f856a4ecc)" d="M 334.223436 307.584 
L 336.947262 307.584 
L 336.947262 258.456211 
L 334.223436 258.456211 
z
" style="fill:#1f77b4;"/>
   </g>
   <g id="patch_90">
    <path clip-path="url(#p3f856a4ecc)" d="M 336.947262 307.584 
L 339.671088 307.584 
L 339.671088 254.362229 
L 336.947262 254.362229 
z
" style="fill:#1f77b4;"/>
   </g>
   <g id="patch_91">
    <path clip-path="url(#p3f856a4ecc)" d="M 339.671088 307.584 
L 342.394922 307.584 
L 342.394922 250.814272 
L 339.671088 250.814272 
z
" style="fill:#1f77b4;"/>
   </g>
   <g id="patch_92">
    <path clip-path="url(#p3f856a4ecc)" d="M 342.394922 307.584 
L 345.118748 307.584 
L 345.118748 239.896825 
L 342.394922 239.896825 
z
" style="fill:#1f77b4;"/>
   </g>
   <g id="patch_93">
    <path clip-path="url(#p3f856a4ecc)" d="M 345.11874 307.584 
L 347.842574 307.584 
L 347.842574 234.711321 
L 345.11874 234.711321 
z
" style="fill:#1f77b4;"/>
   </g>
   <g id="patch_94">
    <path clip-path="url(#p3f856a4ecc)" d="M 347.842582 307.584 
L 350.566408 307.584 
L 350.566408 237.713367 
L 347.842582 237.713367 
z
" style="fill:#1f77b4;"/>
   </g>
   <g id="patch_95">
    <path clip-path="url(#p3f856a4ecc)" d="M 350.566408 307.584 
L 353.290242 307.584 
L 353.290242 224.61286 
L 350.566408 224.61286 
z
" style="fill:#1f77b4;"/>
   </g>
   <g id="patch_96">
    <path clip-path="url(#p3f856a4ecc)" d="M 353.290242 307.584 
L 356.014068 307.584 
L 356.014068 212.330677 
L 353.290242 212.330677 
z
" style="fill:#1f77b4;"/>
   </g>
   <g id="patch_97">
    <path clip-path="url(#p3f856a4ecc)" d="M 356.01406 307.584 
L 358.737894 307.584 
L 358.737894 213.968536 
L 356.01406 213.968536 
z
" style="fill:#1f77b4;"/>
   </g>
   <g id="patch_98">
    <path clip-path="url(#p3f856a4ecc)" d="M 358.737902 307.584 
L 361.461728 307.584 
L 361.461728 236.894571 
L 358.737902 236.894571 
z
" style="fill:#1f77b4;"/>
   </g>
   <g id="patch_99">
    <path clip-path="url(#p3f856a4ecc)" d="M 361.461728 307.584 
L 364.185561 307.584 
L 364.185561 255.454106 
L 361.461728 255.454106 
z
" style="fill:#1f77b4;"/>
   </g>
   <g id="patch_100">
    <path clip-path="url(#p3f856a4ecc)" d="M 364.185554 307.584 
L 366.90938 307.584 
L 366.90938 265.825498 
L 364.185554 265.825498 
z
" style="fill:#1f77b4;"/>
   </g>
   <g id="patch_101">
    <path clip-path="url(#p3f856a4ecc)" d="M 366.909411 307.584 
L 369.633237 307.584 
L 369.633237 283.020106 
L 366.909411 283.020106 
z
" style="fill:#1f77b4;"/>
   </g>
   <g id="patch_102">
    <path clip-path="url(#p3f856a4ecc)" d="M 369.633221 307.584 
L 372.357047 307.584 
L 372.357047 275.650937 
L 369.633221 275.650937 
z
" style="fill:#1f77b4;"/>
   </g>
   <g id="matplotlib.axis_1">
    <g id="xtick_1">
     <g id="line2d_1">
      <defs>
       <path d="M 0 0 
L 0 3.5 
" id="m74938fadf2" style="stroke:#000000;stroke-width:0.8;"/>
      </defs>
      <g>
       <use style="stroke:#000000;stroke-width:0.8;" x="106.298993" xlink:href="#m74938fadf2" y="307.584"/>
      </g>
     </g>
     <g id="text_1">
      <!-- −2 -->
      <defs>
       <path d="M 10.59375 35.5 
L 73.1875 35.5 
L 73.1875 27.203125 
L 10.59375 27.203125 
z
" id="DejaVuSans-8722"/>
       <path d="M 19.1875 8.296875 
L 53.609375 8.296875 
L 53.609375 0 
L 7.328125 0 
L 7.328125 8.296875 
Q 12.9375 14.109375 22.625 23.890625 
Q 32.328125 33.6875 34.8125 36.53125 
Q 39.546875 41.84375 41.421875 45.53125 
Q 43.3125 49.21875 43.3125 52.78125 
Q 43.3125 58.59375 39.234375 62.25 
Q 35.15625 65.921875 28.609375 65.921875 
Q 23.96875 65.921875 18.8125 64.3125 
Q 13.671875 62.703125 7.8125 59.421875 
L 7.8125 69.390625 
Q 13.765625 71.78125 18.9375 73 
Q 24.125 74.21875 28.421875 74.21875 
Q 39.75 74.21875 46.484375 68.546875 
Q 53.21875 62.890625 53.21875 53.421875 
Q 53.21875 48.921875 51.53125 44.890625 
Q 49.859375 40.875 45.40625 35.40625 
Q 44.1875 33.984375 37.640625 27.21875 
Q 31.109375 20.453125 19.1875 8.296875 
z
" id="DejaVuSans-50"/>
      </defs>
      <g transform="translate(93.768134 327.501344)scale(0.17 -0.17)">
       <use xlink:href="#DejaVuSans-8722"/>
       <use x="83.789062" xlink:href="#DejaVuSans-50"/>
      </g>
     </g>
    </g>
    <g id="xtick_2">
     <g id="line2d_2">
      <g>
       <use style="stroke:#000000;stroke-width:0.8;" x="171.231526" xlink:href="#m74938fadf2" y="307.584"/>
      </g>
     </g>
     <g id="text_2">
      <!-- −1 -->
      <defs>
       <path d="M 12.40625 8.296875 
L 28.515625 8.296875 
L 28.515625 63.921875 
L 10.984375 60.40625 
L 10.984375 69.390625 
L 28.421875 72.90625 
L 38.28125 72.90625 
L 38.28125 8.296875 
L 54.390625 8.296875 
L 54.390625 0 
L 12.40625 0 
z
" id="DejaVuSans-49"/>
      </defs>
      <g transform="translate(158.700667 327.501344)scale(0.17 -0.17)">
       <use xlink:href="#DejaVuSans-8722"/>
       <use x="83.789062" xlink:href="#DejaVuSans-49"/>
      </g>
     </g>
    </g>
    <g id="xtick_3">
     <g id="line2d_3">
      <g>
       <use style="stroke:#000000;stroke-width:0.8;" x="236.164058" xlink:href="#m74938fadf2" y="307.584"/>
      </g>
     </g>
     <g id="text_3">
      <!-- 0 -->
      <defs>
       <path d="M 31.78125 66.40625 
Q 24.171875 66.40625 20.328125 58.90625 
Q 16.5 51.421875 16.5 36.375 
Q 16.5 21.390625 20.328125 13.890625 
Q 24.171875 6.390625 31.78125 6.390625 
Q 39.453125 6.390625 43.28125 13.890625 
Q 47.125 21.390625 47.125 36.375 
Q 47.125 51.421875 43.28125 58.90625 
Q 39.453125 66.40625 31.78125 66.40625 
z
M 31.78125 74.21875 
Q 44.046875 74.21875 50.515625 64.515625 
Q 56.984375 54.828125 56.984375 36.375 
Q 56.984375 17.96875 50.515625 8.265625 
Q 44.046875 -1.421875 31.78125 -1.421875 
Q 19.53125 -1.421875 13.0625 8.265625 
Q 6.59375 17.96875 6.59375 36.375 
Q 6.59375 54.828125 13.0625 64.515625 
Q 19.53125 74.21875 31.78125 74.21875 
z
" id="DejaVuSans-48"/>
      </defs>
      <g transform="translate(230.755933 327.501344)scale(0.17 -0.17)">
       <use xlink:href="#DejaVuSans-48"/>
      </g>
     </g>
    </g>
    <g id="xtick_4">
     <g id="line2d_4">
      <g>
       <use style="stroke:#000000;stroke-width:0.8;" x="301.096591" xlink:href="#m74938fadf2" y="307.584"/>
      </g>
     </g>
     <g id="text_4">
      <!-- 1 -->
      <g transform="translate(295.688466 327.501344)scale(0.17 -0.17)">
       <use xlink:href="#DejaVuSans-49"/>
      </g>
     </g>
    </g>
    <g id="xtick_5">
     <g id="line2d_5">
      <g>
       <use style="stroke:#000000;stroke-width:0.8;" x="366.029123" xlink:href="#m74938fadf2" y="307.584"/>
      </g>
     </g>
     <g id="text_5">
      <!-- 2 -->
      <g transform="translate(360.620998 327.501344)scale(0.17 -0.17)">
       <use xlink:href="#DejaVuSans-50"/>
      </g>
     </g>
    </g>
    <g id="text_6">
     <!-- Position in Radian -->
     <defs>
      <path d="M 19.671875 64.796875 
L 19.671875 37.40625 
L 32.078125 37.40625 
Q 38.96875 37.40625 42.71875 40.96875 
Q 46.484375 44.53125 46.484375 51.125 
Q 46.484375 57.671875 42.71875 61.234375 
Q 38.96875 64.796875 32.078125 64.796875 
z
M 9.8125 72.90625 
L 32.078125 72.90625 
Q 44.34375 72.90625 50.609375 67.359375 
Q 56.890625 61.8125 56.890625 51.125 
Q 56.890625 40.328125 50.609375 34.8125 
Q 44.34375 29.296875 32.078125 29.296875 
L 19.671875 29.296875 
L 19.671875 0 
L 9.8125 0 
z
" id="DejaVuSans-80"/>
      <path d="M 30.609375 48.390625 
Q 23.390625 48.390625 19.1875 42.75 
Q 14.984375 37.109375 14.984375 27.296875 
Q 14.984375 17.484375 19.15625 11.84375 
Q 23.34375 6.203125 30.609375 6.203125 
Q 37.796875 6.203125 41.984375 11.859375 
Q 46.1875 17.53125 46.1875 27.296875 
Q 46.1875 37.015625 41.984375 42.703125 
Q 37.796875 48.390625 30.609375 48.390625 
z
M 30.609375 56 
Q 42.328125 56 49.015625 48.375 
Q 55.71875 40.765625 55.71875 27.296875 
Q 55.71875 13.875 49.015625 6.21875 
Q 42.328125 -1.421875 30.609375 -1.421875 
Q 18.84375 -1.421875 12.171875 6.21875 
Q 5.515625 13.875 5.515625 27.296875 
Q 5.515625 40.765625 12.171875 48.375 
Q 18.84375 56 30.609375 56 
z
" id="DejaVuSans-111"/>
      <path d="M 44.28125 53.078125 
L 44.28125 44.578125 
Q 40.484375 46.53125 36.375 47.5 
Q 32.28125 48.484375 27.875 48.484375 
Q 21.1875 48.484375 17.84375 46.4375 
Q 14.5 44.390625 14.5 40.28125 
Q 14.5 37.15625 16.890625 35.375 
Q 19.28125 33.59375 26.515625 31.984375 
L 29.59375 31.296875 
Q 39.15625 29.25 43.1875 25.515625 
Q 47.21875 21.78125 47.21875 15.09375 
Q 47.21875 7.46875 41.1875 3.015625 
Q 35.15625 -1.421875 24.609375 -1.421875 
Q 20.21875 -1.421875 15.453125 -0.5625 
Q 10.6875 0.296875 5.421875 2 
L 5.421875 11.28125 
Q 10.40625 8.6875 15.234375 7.390625 
Q 20.0625 6.109375 24.8125 6.109375 
Q 31.15625 6.109375 34.5625 8.28125 
Q 37.984375 10.453125 37.984375 14.40625 
Q 37.984375 18.0625 35.515625 20.015625 
Q 33.0625 21.96875 24.703125 23.78125 
L 21.578125 24.515625 
Q 13.234375 26.265625 9.515625 29.90625 
Q 5.8125 33.546875 5.8125 39.890625 
Q 5.8125 47.609375 11.28125 51.796875 
Q 16.75 56 26.8125 56 
Q 31.78125 56 36.171875 55.265625 
Q 40.578125 54.546875 44.28125 53.078125 
z
" id="DejaVuSans-115"/>
      <path d="M 9.421875 54.6875 
L 18.40625 54.6875 
L 18.40625 0 
L 9.421875 0 
z
M 9.421875 75.984375 
L 18.40625 75.984375 
L 18.40625 64.59375 
L 9.421875 64.59375 
z
" id="DejaVuSans-105"/>
      <path d="M 18.3125 70.21875 
L 18.3125 54.6875 
L 36.8125 54.6875 
L 36.8125 47.703125 
L 18.3125 47.703125 
L 18.3125 18.015625 
Q 18.3125 11.328125 20.140625 9.421875 
Q 21.96875 7.515625 27.59375 7.515625 
L 36.8125 7.515625 
L 36.8125 0 
L 27.59375 0 
Q 17.1875 0 13.234375 3.875 
Q 9.28125 7.765625 9.28125 18.015625 
L 9.28125 47.703125 
L 2.6875 47.703125 
L 2.6875 54.6875 
L 9.28125 54.6875 
L 9.28125 70.21875 
z
" id="DejaVuSans-116"/>
      <path d="M 54.890625 33.015625 
L 54.890625 0 
L 45.90625 0 
L 45.90625 32.71875 
Q 45.90625 40.484375 42.875 44.328125 
Q 39.84375 48.1875 33.796875 48.1875 
Q 26.515625 48.1875 22.3125 43.546875 
Q 18.109375 38.921875 18.109375 30.90625 
L 18.109375 0 
L 9.078125 0 
L 9.078125 54.6875 
L 18.109375 54.6875 
L 18.109375 46.1875 
Q 21.34375 51.125 25.703125 53.5625 
Q 30.078125 56 35.796875 56 
Q 45.21875 56 50.046875 50.171875 
Q 54.890625 44.34375 54.890625 33.015625 
z
" id="DejaVuSans-110"/>
      <path id="DejaVuSans-32"/>
      <path d="M 44.390625 34.1875 
Q 47.5625 33.109375 50.5625 29.59375 
Q 53.5625 26.078125 56.59375 19.921875 
L 66.609375 0 
L 56 0 
L 46.6875 18.703125 
Q 43.0625 26.03125 39.671875 28.421875 
Q 36.28125 30.8125 30.421875 30.8125 
L 19.671875 30.8125 
L 19.671875 0 
L 9.8125 0 
L 9.8125 72.90625 
L 32.078125 72.90625 
Q 44.578125 72.90625 50.734375 67.671875 
Q 56.890625 62.453125 56.890625 51.90625 
Q 56.890625 45.015625 53.6875 40.46875 
Q 50.484375 35.9375 44.390625 34.1875 
z
M 19.671875 64.796875 
L 19.671875 38.921875 
L 32.078125 38.921875 
Q 39.203125 38.921875 42.84375 42.21875 
Q 46.484375 45.515625 46.484375 51.90625 
Q 46.484375 58.296875 42.84375 61.546875 
Q 39.203125 64.796875 32.078125 64.796875 
z
" id="DejaVuSans-82"/>
      <path d="M 34.28125 27.484375 
Q 23.390625 27.484375 19.1875 25 
Q 14.984375 22.515625 14.984375 16.5 
Q 14.984375 11.71875 18.140625 8.90625 
Q 21.296875 6.109375 26.703125 6.109375 
Q 34.1875 6.109375 38.703125 11.40625 
Q 43.21875 16.703125 43.21875 25.484375 
L 43.21875 27.484375 
z
M 52.203125 31.203125 
L 52.203125 0 
L 43.21875 0 
L 43.21875 8.296875 
Q 40.140625 3.328125 35.546875 0.953125 
Q 30.953125 -1.421875 24.3125 -1.421875 
Q 15.921875 -1.421875 10.953125 3.296875 
Q 6 8.015625 6 15.921875 
Q 6 25.140625 12.171875 29.828125 
Q 18.359375 34.515625 30.609375 34.515625 
L 43.21875 34.515625 
L 43.21875 35.40625 
Q 43.21875 41.609375 39.140625 45 
Q 35.0625 48.390625 27.6875 48.390625 
Q 23 48.390625 18.546875 47.265625 
Q 14.109375 46.140625 10.015625 43.890625 
L 10.015625 52.203125 
Q 14.9375 54.109375 19.578125 55.046875 
Q 24.21875 56 28.609375 56 
Q 40.484375 56 46.34375 49.84375 
Q 52.203125 43.703125 52.203125 31.203125 
z
" id="DejaVuSans-97"/>
      <path d="M 45.40625 46.390625 
L 45.40625 75.984375 
L 54.390625 75.984375 
L 54.390625 0 
L 45.40625 0 
L 45.40625 8.203125 
Q 42.578125 3.328125 38.25 0.953125 
Q 33.9375 -1.421875 27.875 -1.421875 
Q 17.96875 -1.421875 11.734375 6.484375 
Q 5.515625 14.40625 5.515625 27.296875 
Q 5.515625 40.1875 11.734375 48.09375 
Q 17.96875 56 27.875 56 
Q 33.9375 56 38.25 53.625 
Q 42.578125 51.265625 45.40625 46.390625 
z
M 14.796875 27.296875 
Q 14.796875 17.390625 18.875 11.75 
Q 22.953125 6.109375 30.078125 6.109375 
Q 37.203125 6.109375 41.296875 11.75 
Q 45.40625 17.390625 45.40625 27.296875 
Q 45.40625 37.203125 41.296875 42.84375 
Q 37.203125 48.484375 30.078125 48.484375 
Q 22.953125 48.484375 18.875 42.84375 
Q 14.796875 37.203125 14.796875 27.296875 
z
" id="DejaVuSans-100"/>
     </defs>
     <g transform="translate(102.024844 357.832125)scale(0.3 -0.3)">
      <use xlink:href="#DejaVuSans-80"/>
      <use x="60.255859" xlink:href="#DejaVuSans-111"/>
      <use x="121.4375" xlink:href="#DejaVuSans-115"/>
      <use x="173.537109" xlink:href="#DejaVuSans-105"/>
      <use x="201.320312" xlink:href="#DejaVuSans-116"/>
      <use x="240.529297" xlink:href="#DejaVuSans-105"/>
      <use x="268.3125" xlink:href="#DejaVuSans-111"/>
      <use x="329.494141" xlink:href="#DejaVuSans-110"/>
      <use x="392.873047" xlink:href="#DejaVuSans-32"/>
      <use x="424.660156" xlink:href="#DejaVuSans-105"/>
      <use x="452.443359" xlink:href="#DejaVuSans-110"/>
      <use x="515.822266" xlink:href="#DejaVuSans-32"/>
      <use x="547.609375" xlink:href="#DejaVuSans-82"/>
      <use x="617.060547" xlink:href="#DejaVuSans-97"/>
      <use x="678.339844" xlink:href="#DejaVuSans-100"/>
      <use x="741.816406" xlink:href="#DejaVuSans-105"/>
      <use x="769.599609" xlink:href="#DejaVuSans-97"/>
      <use x="830.878906" xlink:href="#DejaVuSans-110"/>
     </g>
    </g>
   </g>
   <g id="matplotlib.axis_2">
    <g id="ytick_1">
     <g id="line2d_6">
      <defs>
       <path d="M 0 0 
L -3.5 0 
" id="m8e89c8f977" style="stroke:#000000;stroke-width:0.8;"/>
      </defs>
      <g>
       <use style="stroke:#000000;stroke-width:0.8;" x="57.6" xlink:href="#m8e89c8f977" y="307.584"/>
      </g>
     </g>
     <g id="text_7">
      <!-- 0.0 -->
      <defs>
       <path d="M 10.6875 12.40625 
L 21 12.40625 
L 21 0 
L 10.6875 0 
z
" id="DejaVuSans-46"/>
      </defs>
      <g transform="translate(23.564687 314.042672)scale(0.17 -0.17)">
       <use xlink:href="#DejaVuSans-48"/>
       <use x="63.623047" xlink:href="#DejaVuSans-46"/>
       <use x="95.410156" xlink:href="#DejaVuSans-48"/>
      </g>
     </g>
    </g>
    <g id="ytick_2">
     <g id="line2d_7">
      <g>
       <use style="stroke:#000000;stroke-width:0.8;" x="57.6" xlink:href="#m8e89c8f977" y="261.787559"/>
      </g>
     </g>
     <g id="text_8">
      <!-- 0.2 -->
      <g transform="translate(23.564687 268.246231)scale(0.17 -0.17)">
       <use xlink:href="#DejaVuSans-48"/>
       <use x="63.623047" xlink:href="#DejaVuSans-46"/>
       <use x="95.410156" xlink:href="#DejaVuSans-50"/>
      </g>
     </g>
    </g>
    <g id="ytick_3">
     <g id="line2d_8">
      <g>
       <use style="stroke:#000000;stroke-width:0.8;" x="57.6" xlink:href="#m8e89c8f977" y="215.991118"/>
      </g>
     </g>
     <g id="text_9">
      <!-- 0.4 -->
      <defs>
       <path d="M 37.796875 64.3125 
L 12.890625 25.390625 
L 37.796875 25.390625 
z
M 35.203125 72.90625 
L 47.609375 72.90625 
L 47.609375 25.390625 
L 58.015625 25.390625 
L 58.015625 17.1875 
L 47.609375 17.1875 
L 47.609375 0 
L 37.796875 0 
L 37.796875 17.1875 
L 4.890625 17.1875 
L 4.890625 26.703125 
z
" id="DejaVuSans-52"/>
      </defs>
      <g transform="translate(23.564687 222.44979)scale(0.17 -0.17)">
       <use xlink:href="#DejaVuSans-48"/>
       <use x="63.623047" xlink:href="#DejaVuSans-46"/>
       <use x="95.410156" xlink:href="#DejaVuSans-52"/>
      </g>
     </g>
    </g>
    <g id="ytick_4">
     <g id="line2d_9">
      <g>
       <use style="stroke:#000000;stroke-width:0.8;" x="57.6" xlink:href="#m8e89c8f977" y="170.194678"/>
      </g>
     </g>
     <g id="text_10">
      <!-- 0.6 -->
      <defs>
       <path d="M 33.015625 40.375 
Q 26.375 40.375 22.484375 35.828125 
Q 18.609375 31.296875 18.609375 23.390625 
Q 18.609375 15.53125 22.484375 10.953125 
Q 26.375 6.390625 33.015625 6.390625 
Q 39.65625 6.390625 43.53125 10.953125 
Q 47.40625 15.53125 47.40625 23.390625 
Q 47.40625 31.296875 43.53125 35.828125 
Q 39.65625 40.375 33.015625 40.375 
z
M 52.59375 71.296875 
L 52.59375 62.3125 
Q 48.875 64.0625 45.09375 64.984375 
Q 41.3125 65.921875 37.59375 65.921875 
Q 27.828125 65.921875 22.671875 59.328125 
Q 17.53125 52.734375 16.796875 39.40625 
Q 19.671875 43.65625 24.015625 45.921875 
Q 28.375 48.1875 33.59375 48.1875 
Q 44.578125 48.1875 50.953125 41.515625 
Q 57.328125 34.859375 57.328125 23.390625 
Q 57.328125 12.15625 50.6875 5.359375 
Q 44.046875 -1.421875 33.015625 -1.421875 
Q 20.359375 -1.421875 13.671875 8.265625 
Q 6.984375 17.96875 6.984375 36.375 
Q 6.984375 53.65625 15.1875 63.9375 
Q 23.390625 74.21875 37.203125 74.21875 
Q 40.921875 74.21875 44.703125 73.484375 
Q 48.484375 72.75 52.59375 71.296875 
z
" id="DejaVuSans-54"/>
      </defs>
      <g transform="translate(23.564687 176.65335)scale(0.17 -0.17)">
       <use xlink:href="#DejaVuSans-48"/>
       <use x="63.623047" xlink:href="#DejaVuSans-46"/>
       <use x="95.410156" xlink:href="#DejaVuSans-54"/>
      </g>
     </g>
    </g>
    <g id="ytick_5">
     <g id="line2d_10">
      <g>
       <use style="stroke:#000000;stroke-width:0.8;" x="57.6" xlink:href="#m8e89c8f977" y="124.398237"/>
      </g>
     </g>
     <g id="text_11">
      <!-- 0.8 -->
      <defs>
       <path d="M 31.78125 34.625 
Q 24.75 34.625 20.71875 30.859375 
Q 16.703125 27.09375 16.703125 20.515625 
Q 16.703125 13.921875 20.71875 10.15625 
Q 24.75 6.390625 31.78125 6.390625 
Q 38.8125 6.390625 42.859375 10.171875 
Q 46.921875 13.96875 46.921875 20.515625 
Q 46.921875 27.09375 42.890625 30.859375 
Q 38.875 34.625 31.78125 34.625 
z
M 21.921875 38.8125 
Q 15.578125 40.375 12.03125 44.71875 
Q 8.5 49.078125 8.5 55.328125 
Q 8.5 64.0625 14.71875 69.140625 
Q 20.953125 74.21875 31.78125 74.21875 
Q 42.671875 74.21875 48.875 69.140625 
Q 55.078125 64.0625 55.078125 55.328125 
Q 55.078125 49.078125 51.53125 44.71875 
Q 48 40.375 41.703125 38.8125 
Q 48.828125 37.15625 52.796875 32.3125 
Q 56.78125 27.484375 56.78125 20.515625 
Q 56.78125 9.90625 50.3125 4.234375 
Q 43.84375 -1.421875 31.78125 -1.421875 
Q 19.734375 -1.421875 13.25 4.234375 
Q 6.78125 9.90625 6.78125 20.515625 
Q 6.78125 27.484375 10.78125 32.3125 
Q 14.796875 37.15625 21.921875 38.8125 
z
M 18.3125 54.390625 
Q 18.3125 48.734375 21.84375 45.5625 
Q 25.390625 42.390625 31.78125 42.390625 
Q 38.140625 42.390625 41.71875 45.5625 
Q 45.3125 48.734375 45.3125 54.390625 
Q 45.3125 60.0625 41.71875 63.234375 
Q 38.140625 66.40625 31.78125 66.40625 
Q 25.390625 66.40625 21.84375 63.234375 
Q 18.3125 60.0625 18.3125 54.390625 
z
" id="DejaVuSans-56"/>
      </defs>
      <g transform="translate(23.564687 130.856909)scale(0.17 -0.17)">
       <use xlink:href="#DejaVuSans-48"/>
       <use x="63.623047" xlink:href="#DejaVuSans-46"/>
       <use x="95.410156" xlink:href="#DejaVuSans-56"/>
      </g>
     </g>
    </g>
    <g id="ytick_6">
     <g id="line2d_11">
      <g>
       <use style="stroke:#000000;stroke-width:0.8;" x="57.6" xlink:href="#m8e89c8f977" y="78.601796"/>
      </g>
     </g>
     <g id="text_12">
      <!-- 1.0 -->
      <g transform="translate(23.564687 85.060468)scale(0.17 -0.17)">
       <use xlink:href="#DejaVuSans-49"/>
       <use x="63.623047" xlink:href="#DejaVuSans-46"/>
       <use x="95.410156" xlink:href="#DejaVuSans-48"/>
      </g>
     </g>
    </g>
    <g id="text_13">
     <!-- Density -->
     <defs>
      <path d="M 19.671875 64.796875 
L 19.671875 8.109375 
L 31.59375 8.109375 
Q 46.6875 8.109375 53.6875 14.9375 
Q 60.6875 21.78125 60.6875 36.53125 
Q 60.6875 51.171875 53.6875 57.984375 
Q 46.6875 64.796875 31.59375 64.796875 
z
M 9.8125 72.90625 
L 30.078125 72.90625 
Q 51.265625 72.90625 61.171875 64.09375 
Q 71.09375 55.28125 71.09375 36.53125 
Q 71.09375 17.671875 61.125 8.828125 
Q 51.171875 0 30.078125 0 
L 9.8125 0 
z
" id="DejaVuSans-68"/>
      <path d="M 56.203125 29.59375 
L 56.203125 25.203125 
L 14.890625 25.203125 
Q 15.484375 15.921875 20.484375 11.0625 
Q 25.484375 6.203125 34.421875 6.203125 
Q 39.59375 6.203125 44.453125 7.46875 
Q 49.3125 8.734375 54.109375 11.28125 
L 54.109375 2.78125 
Q 49.265625 0.734375 44.1875 -0.34375 
Q 39.109375 -1.421875 33.890625 -1.421875 
Q 20.796875 -1.421875 13.15625 6.1875 
Q 5.515625 13.8125 5.515625 26.8125 
Q 5.515625 40.234375 12.765625 48.109375 
Q 20.015625 56 32.328125 56 
Q 43.359375 56 49.78125 48.890625 
Q 56.203125 41.796875 56.203125 29.59375 
z
M 47.21875 32.234375 
Q 47.125 39.59375 43.09375 43.984375 
Q 39.0625 48.390625 32.421875 48.390625 
Q 24.90625 48.390625 20.390625 44.140625 
Q 15.875 39.890625 15.1875 32.171875 
z
" id="DejaVuSans-101"/>
      <path d="M 32.171875 -5.078125 
Q 28.375 -14.84375 24.75 -17.8125 
Q 21.140625 -20.796875 15.09375 -20.796875 
L 7.90625 -20.796875 
L 7.90625 -13.28125 
L 13.1875 -13.28125 
Q 16.890625 -13.28125 18.9375 -11.515625 
Q 21 -9.765625 23.484375 -3.21875 
L 25.09375 0.875 
L 2.984375 54.6875 
L 12.5 54.6875 
L 29.59375 11.921875 
L 46.6875 54.6875 
L 56.203125 54.6875 
z
" id="DejaVuSans-121"/>
     </defs>
     <g transform="translate(13.325625 231.553781)rotate(-90)scale(0.3 -0.3)">
      <use xlink:href="#DejaVuSans-68"/>
      <use x="77.001953" xlink:href="#DejaVuSans-101"/>
      <use x="138.525391" xlink:href="#DejaVuSans-110"/>
      <use x="201.904297" xlink:href="#DejaVuSans-115"/>
      <use x="254.003906" xlink:href="#DejaVuSans-105"/>
      <use x="281.787109" xlink:href="#DejaVuSans-116"/>
      <use x="320.996094" xlink:href="#DejaVuSans-121"/>
     </g>
    </g>
   </g>
   <g id="line2d_12">
    <path clip-path="url(#p3f856a4ecc)" d="M 73.832727 307.584 
L 97.96328 307.476037 
L 98.231126 307.208513 
L 98.466507 306.605692 
L 98.710004 305.282692 
L 98.994084 302.333145 
L 99.383679 295.534021 
L 100.000538 285.14239 
L 100.179102 284.464019 
L 100.195335 284.472993 
L 100.284618 284.723989 
L 100.463182 286.128992 
L 100.909593 292.146032 
L 101.307305 295.986827 
L 101.542685 296.642165 
L 101.656317 296.568242 
L 101.834882 296.054709 
L 102.192011 294.158483 
L 102.963085 290.144759 
L 103.466312 288.729928 
L 104.213036 287.390097 
L 104.659447 286.294379 
L 105.454871 283.506935 
L 106.217828 280.365213 
L 106.810337 276.836373 
L 107.354147 272.14024 
L 108.344368 263.344012 
L 108.750197 261.675033 
L 109.074859 261.135068 
L 109.415755 260.989377 
L 109.716068 260.794666 
L 109.943332 260.311033 
L 110.227412 259.077093 
L 110.714406 255.708874 
L 111.688394 249.207853 
L 112.297136 246.465672 
L 115.186634 236.039112 
L 115.381431 235.966157 
L 115.535646 236.204813 
L 115.76291 237.074974 
L 116.152505 239.664355 
L 116.704432 242.949244 
L 116.964162 243.440609 
L 117.150843 243.422244 
L 117.994966 242.989168 
L 118.538776 243.124679 
L 119.269267 242.951577 
L 119.488414 243.447612 
L 119.902359 245.107511 
L 120.316304 246.390677 
L 120.519218 246.498254 
L 120.697783 246.306626 
L 121.119844 245.37164 
L 121.428274 244.985824 
L 121.614955 245.052345 
L 121.866568 245.448925 
L 122.491544 246.99829 
L 122.962305 248.662801 
L 123.782078 251.7097 
L 123.968759 251.765388 
L 124.13109 251.526399 
L 124.39082 250.666139 
L 125.50279 246.426315 
L 125.681354 246.423648 
L 125.868035 246.700398 
L 126.192698 247.689433 
L 126.630993 248.844208 
L 126.760858 248.789819 
L 126.906956 248.365617 
L 127.13422 246.855404 
L 127.523815 242.397756 
L 128.010809 237.553912 
L 128.181257 237.141081 
L 128.205607 237.15298 
L 128.311122 237.40842 
L 128.497803 238.609018 
L 128.871165 242.862698 
L 129.414975 248.41399 
L 129.674705 249.278191 
L 129.796454 249.22945 
L 129.950668 248.793655 
L 130.218515 247.228041 
L 131.273669 240.227338 
L 131.436 240.196694 
L 131.614565 240.491943 
L 132.49927 242.331263 
L 132.694068 242.223584 
L 132.937565 241.78923 
L 133.254111 240.697776 
L 133.724872 238.095524 
L 134.187516 235.975398 
L 134.382314 235.805068 
L 134.520295 235.999706 
L 134.763792 236.849169 
L 135.461817 239.44576 
L 135.632265 239.468815 
L 135.802713 239.190297 
L 136.200425 237.935609 
L 136.452038 237.525223 
L 136.56567 237.656292 
L 136.728001 238.29683 
L 136.979615 240.359057 
L 138.091585 250.875847 
L 138.773376 253.913455 
L 139.706781 259.581675 
L 139.812297 259.477286 
L 139.974628 258.875584 
L 140.250591 256.812445 
L 141.524892 245.885605 
L 141.776506 245.502992 
L 141.971303 245.545933 
L 142.23915 245.893636 
L 142.685561 246.899978 
L 143.172555 247.856964 
L 143.32677 247.817384 
L 143.497218 247.459901 
L 143.756948 246.293204 
L 144.868918 240.543798 
L 145.047482 240.480306 
L 145.19358 240.717816 
L 145.404611 241.566146 
L 145.704924 243.825452 
L 146.183802 249.433515 
L 146.841243 256.609674 
L 147.100974 257.522895 
L 147.206489 257.474263 
L 147.352587 257.025816 
L 147.604201 255.368813 
L 148.123661 250.034619 
L 148.643121 245.631044 
L 148.902851 244.882189 
L 149.032716 244.933126 
L 149.203164 245.360912 
L 149.884956 247.574181 
L 149.933655 247.539359 
L 150.071637 247.207208 
L 150.307017 245.917457 
L 151.15114 240.723058 
L 151.362171 240.56816 
L 151.573202 240.736515 
L 152.043963 241.118967 
L 152.279343 240.996217 
L 152.80692 240.655596 
L 152.993601 240.871365 
L 153.318264 241.698656 
L 153.659159 242.339106 
L 153.789024 242.267886 
L 153.959472 241.834687 
L 154.332834 240.054303 
L 154.625031 239.169117 
L 154.730546 239.226968 
L 154.868528 239.685454 
L 155.095792 241.362599 
L 155.574669 247.073659 
L 156.06978 251.865644 
L 156.345743 252.852491 
L 156.491841 252.881062 
L 156.499958 252.874181 
L 156.670405 252.569885 
L 157.254798 251.320592 
L 157.271031 251.329157 
L 157.400896 251.547238 
L 157.603811 252.446262 
L 157.93659 255.159415 
L 158.699547 261.479147 
L 158.97551 262.215224 
L 159.137842 262.216786 
L 159.316406 261.914549 
L 159.616719 260.878646 
L 160.241695 257.718181 
L 161.110167 253.567082 
L 161.353664 253.253384 
L 161.499763 253.35951 
L 161.74326 253.900989 
L 162.197787 254.847427 
L 162.335769 254.781554 
L 162.506217 254.356427 
L 162.774064 252.946785 
L 163.691236 247.536052 
L 163.804867 247.607208 
L 163.967199 248.106504 
L 164.291861 250.047114 
L 164.72204 252.19602 
L 164.851905 252.282923 
L 164.876254 252.262357 
L 165.014236 251.932083 
L 165.257733 250.622843 
L 165.882709 247.145318 
L 166.004457 247.083431 
L 166.028807 247.104855 
L 166.166788 247.434123 
L 166.402169 248.714659 
L 166.889163 252.947472 
L 167.790102 260.370141 
L 168.244629 262.551998 
L 168.536826 263.095103 
L 168.723507 263.084007 
L 168.926421 262.787798 
L 169.242967 261.855085 
L 170.119556 258.240654 
L 171.15036 254.330064 
L 171.272109 254.405353 
L 171.442557 254.876182 
L 171.74287 256.522155 
L 172.311029 259.519691 
L 172.473361 259.669202 
L 172.489594 259.659678 
L 172.619459 259.417948 
L 172.822373 258.461625 
L 173.155152 255.627839 
L 173.991159 248.206946 
L 174.218422 247.74778 
L 174.332054 247.850156 
L 174.510619 248.408752 
L 174.827165 250.29014 
L 175.882319 257.111152 
L 176.093349 257.348681 
L 176.239447 257.201757 
L 176.482944 256.542032 
L 177.08357 254.891256 
L 177.245902 254.912047 
L 177.41635 255.251173 
L 177.67608 256.375544 
L 178.544552 260.876503 
L 178.585135 260.850882 
L 178.706884 260.527609 
L 178.901681 259.214592 
L 179.23446 255.122631 
L 179.794504 248.614977 
L 179.964951 248.182471 
L 179.981185 248.190947 
L 180.078583 248.416439 
L 180.265264 249.58727 
L 180.792841 255.028659 
L 181.117504 256.974009 
L 181.239252 257.098539 
L 181.271719 257.072827 
L 181.401584 256.730109 
L 181.620731 255.376771 
L 182.594719 248.005332 
L 182.635302 248.030059 
L 182.75705 248.343896 
L 182.976198 249.684627 
L 183.706689 254.640643 
L 183.795971 254.621334 
L 183.812204 254.596811 
L 183.950186 254.139601 
L 184.209916 252.320481 
L 184.851125 247.760553 
L 185.078388 247.420855 
L 185.256953 247.50649 
L 185.630315 247.692529 
L 185.816996 247.472291 
L 186.133542 246.653171 
L 186.596186 245.619433 
L 186.774751 245.60434 
L 186.945199 245.862908 
L 187.196812 246.729466 
L 187.659457 249.332467 
L 188.203267 251.953188 
L 188.487346 252.440155 
L 188.665911 252.411148 
L 188.876942 252.091704 
L 189.209721 251.106761 
L 189.712948 248.836953 
L 190.622003 244.628226 
L 190.833034 244.492398 
L 191.035948 244.676642 
L 191.384961 244.956078 
L 191.522942 244.77656 
L 191.71774 244.072521 
L 192.042403 241.857653 
L 192.578096 238.431236 
L 192.724194 238.266055 
L 192.748544 238.282377 
L 192.870292 238.549875 
L 193.081323 239.672028 
L 193.5602 243.821849 
L 194.095894 247.600296 
L 194.469256 248.855664 
L 194.712753 249.084221 
L 194.875084 248.95698 
L 195.094232 248.419319 
L 195.467594 246.766773 
L 196.035753 244.466405 
L 196.263017 244.241966 
L 196.409115 244.376128 
L 196.620146 244.960738 
L 196.936692 246.628014 
L 197.91068 252.25179 
L 198.186643 252.579948 
L 198.551889 252.911828 
L 198.771036 253.554396 
L 199.071349 255.25991 
L 200.053454 261.516912 
L 200.256368 261.661632 
L 200.426816 261.480716 
L 200.735245 260.735582 
L 201.847215 257.842952 
L 202.902369 255.770628 
L 203.129632 255.809288 
L 203.486761 256.167513 
L 204.15232 256.774016 
L 204.590614 257.241264 
L 204.996443 258.076078 
L 205.540253 259.107386 
L 205.718817 259.085472 
L 205.897382 258.775647 
L 206.157112 257.788769 
L 206.611639 254.965783 
L 207.147333 252.091233 
L 207.39083 251.71814 
L 207.536928 251.809693 
L 207.756075 252.289183 
L 208.226836 254.002461 
L 209.80145 259.935217 
L 209.923199 259.811629 
L 210.093647 259.240159 
L 210.34526 257.484519 
L 210.791671 252.408204 
L 211.327365 247.115959 
L 211.570862 246.351971 
L 211.676377 246.410815 
L 211.830592 246.893512 
L 212.098438 248.639143 
L 213.429555 258.627407 
L 213.786684 259.61016 
L 213.981482 259.687799 
L 214.15193 259.469488 
L 214.41166 258.685619 
L 214.898654 256.342015 
L 215.775243 252.261115 
L 216.708648 248.829346 
L 217.601471 244.115831 
L 217.715103 244.186449 
L 217.869317 244.658732 
L 218.137164 246.363987 
L 219.2816 254.721023 
L 219.411465 254.777496 
L 219.435815 254.756232 
L 219.581913 254.421405 
L 219.82541 253.17042 
L 220.91303 246.732664 
L 221.383791 245.663064 
L 221.594821 245.568768 
L 221.74092 245.7822 
L 221.95195 246.590486 
L 222.317196 249.103331 
L 222.787957 251.878518 
L 222.990871 252.130792 
L 223.128852 251.969065 
L 223.421049 251.146094 
L 223.761945 250.436671 
L 223.908043 250.489972 
L 224.078491 250.885959 
L 224.370687 252.250533 
L 224.93073 254.803862 
L 225.052479 254.856261 
L 225.076828 254.833678 
L 225.21481 254.488249 
L 225.433957 253.204488 
L 225.831669 249.239351 
L 226.651442 241.201919 
L 227.13032 238.665695 
L 227.487449 237.737495 
L 227.698479 237.640824 
L 227.88516 237.829078 
L 228.534486 238.705544 
L 228.550719 238.693786 
L 228.721167 238.405141 
L 228.99713 237.37686 
L 229.84937 233.932023 
L 230.36883 232.401677 
L 230.636676 230.585558 
L 230.945106 226.757303 
L 231.513266 216.035336 
L 231.886628 211.194924 
L 232.024609 210.775946 
L 232.057076 210.800971 
L 232.154474 211.15445 
L 232.341155 212.903201 
L 232.698284 218.878171 
L 233.445008 231.048617 
L 233.899536 235.013036 
L 234.118684 235.679321 
L 234.1268 235.677483 
L 234.207966 235.517661 
L 234.337831 234.593452 
L 234.516395 231.389276 
L 234.735543 222.809066 
L 235.003389 202.125565 
L 235.352402 155.207267 
L 236.066659 56.564965 
L 236.172175 54.144 
L 236.220874 54.644134 
L 236.32639 59.176369 
L 236.529304 79.645841 
L 237.064997 166.006836 
L 237.511408 217.553855 
L 237.860421 235.679207 
L 238.152617 241.266471 
L 238.331182 242.028489 
L 238.347415 242.023612 
L 238.436697 241.810598 
L 238.615261 240.589231 
L 238.939924 236.507859 
L 239.5162 226.063447 
L 240.10871 216.381534 
L 240.279158 215.714792 
L 240.303507 215.736195 
L 240.392789 216.071115 
L 240.563237 217.782179 
L 240.879783 223.732615 
L 241.626508 237.812001 
L 242.032336 241.360286 
L 242.462514 243.302016 
L 242.917042 244.408499 
L 243.60695 245.890959 
L 243.972195 247.527583 
L 244.848784 251.738454 
L 245.165331 252.164024 
L 245.489993 252.58498 
L 245.725374 253.382462 
L 246.01757 255.320572 
L 246.999675 262.826543 
L 247.007791 262.824808 
L 247.10519 262.681732 
L 247.283754 261.895512 
L 247.778865 258.219565 
L 248.135994 256.567443 
L 248.42819 256.123684 
L 248.76097 255.660092 
L 249.036933 254.748925 
L 249.450878 252.450073 
L 250.530381 246.140465 
L 250.749528 245.925655 
L 250.895627 246.073829 
L 251.131007 246.713084 
L 251.626118 248.889498 
L 252.364725 251.81776 
L 253.419879 254.865615 
L 253.622793 254.97383 
L 253.760775 254.774171 
L 253.955572 254.018081 
L 254.247769 251.834458 
L 255.010726 245.760771 
L 255.156824 245.61136 
L 255.181174 245.628917 
L 255.311039 245.912996 
L 255.538303 247.061531 
L 256.000947 250.82108 
L 256.609689 255.283273 
L 256.84507 255.784128 
L 256.958702 255.676373 
L 257.137266 255.082593 
L 257.502512 252.876984 
L 258.046322 250.009874 
L 258.387217 249.239676 
L 258.622598 249.131488 
L 258.793046 249.308178 
L 259.012193 249.919559 
L 259.328739 251.58416 
L 259.961831 256.460768 
L 260.60304 260.693076 
L 260.943936 261.676494 
L 261.284832 262.002426 
L 261.577028 262.381927 
L 261.934157 263.325776 
L 262.380568 264.324281 
L 262.583482 264.363557 
L 262.794513 264.125043 
L 263.200341 263.23275 
L 263.719802 262.250914 
L 263.898366 262.26014 
L 264.068814 262.562282 
L 264.320428 263.565662 
L 265.253833 267.827568 
L 265.489213 267.932587 
L 266.057373 268.010173 
L 266.576833 268.224182 
L 266.86903 268.033072 
L 267.356024 267.730122 
L 267.656336 267.843719 
L 268.037815 267.948511 
L 268.240729 267.746134 
L 268.500459 267.112489 
L 269.084852 264.860369 
L 269.482564 263.854992 
L 269.758527 263.664212 
L 270.764981 263.633249 
L 271.032828 263.85582 
L 271.503589 264.263105 
L 271.657804 264.08517 
L 271.868835 263.42725 
L 272.25843 261.290722 
L 272.75354 258.988134 
L 273.045737 258.517692 
L 273.711295 257.887242 
L 274.336271 256.870456 
L 274.474252 257.040957 
L 274.677167 257.739759 
L 275.009946 259.880076 
L 275.959584 266.323992 
L 277.201419 272.100426 
L 277.526081 272.649639 
L 277.769578 272.696371 
L 278.037425 272.493314 
L 278.362088 271.945772 
L 278.68675 270.913197 
L 279.100695 268.705417 
L 279.717554 265.565822 
L 279.928585 265.323225 
L 280.066567 265.467107 
L 280.293831 266.130732 
L 281.024322 268.479391 
L 281.162303 268.417816 
L 281.348984 267.993941 
L 281.730463 266.392749 
L 282.120058 265.155387 
L 282.282389 265.119397 
L 282.436604 265.407208 
L 282.680101 266.450656 
L 283.110279 269.480339 
L 284.303414 278.237032 
L 284.555028 278.702706 
L 284.69301 278.62974 
L 284.887807 278.185443 
L 285.21247 276.777746 
L 285.642648 273.860861 
L 286.145875 268.712779 
L 286.787084 262.54753 
L 287.038697 261.810204 
L 287.152329 261.878142 
L 287.314661 262.355558 
L 287.62309 264.129275 
L 289.449318 276.004879 
L 289.741514 276.514523 
L 289.960661 276.530114 
L 290.244741 276.277816 
L 290.715502 275.534373 
L 291.113214 274.470351 
L 291.632674 272.321882 
L 293.028724 266.293783 
L 293.255987 266.089962 
L 293.410202 266.222688 
L 293.637466 266.789923 
L 294.035178 268.512002 
L 295.366295 274.675417 
L 295.601675 274.846699 
L 295.820822 274.719832 
L 297.533418 272.827328 
L 297.979829 271.859306 
L 298.897001 269.710529 
L 299.132382 269.68251 
L 299.424578 269.927708 
L 300.098253 270.499357 
L 300.447265 270.88378 
L 301.283272 272.037805 
L 301.478069 271.785317 
L 302.119278 270.758483 
L 302.135511 270.768853 
L 302.297843 271.034821 
L 302.557573 271.995962 
L 303.174432 274.327355 
L 303.312413 274.323809 
L 303.32053 274.314669 
L 303.474745 273.948629 
L 303.726358 272.627418 
L 304.602947 267.441347 
L 304.708463 267.528159 
L 304.870794 268.092267 
L 305.154874 270.097484 
L 306.128862 277.648777 
L 306.421058 278.309644 
L 306.615856 278.332152 
L 306.835003 278.072685 
L 307.273298 277.112319 
L 307.817108 275.461968 
L 308.182353 273.501523 
L 308.669347 269.427822 
L 309.302439 264.561541 
L 309.594636 263.74014 
L 309.7732 263.715352 
L 309.976114 263.994509 
L 311.136784 266.02772 
L 311.364047 265.912945 
L 312.191937 265.265694 
L 312.427318 265.611323 
L 314.12368 269.291136 
L 315.000269 272.363875 
L 315.170717 272.367937 
L 315.333048 272.05049 
L 315.560312 271.021079 
L 315.901208 268.259534 
L 316.826497 260.25703 
L 317.094343 259.666687 
L 317.370307 259.578108 
L 317.581337 259.412395 
L 317.784252 258.885608 
L 318.076448 257.366689 
L 318.766356 253.644564 
L 318.920571 253.561414 
L 318.936804 253.573577 
L 319.082902 253.845343 
L 319.358865 254.952891 
L 320.552001 261.359173 
L 321.607154 268.097595 
L 321.761369 268.172793 
L 321.777602 268.159858 
L 321.9237 267.870603 
L 322.167197 266.784454 
L 323.108719 262.005654 
L 323.262934 262.015726 
L 323.433382 262.345675 
L 323.733695 263.524654 
L 324.326204 265.794358 
L 324.472302 265.819439 
L 324.480419 265.811581 
L 324.626517 265.504593 
L 324.886247 264.313997 
L 325.49499 261.469369 
L 325.665438 261.38573 
L 325.673554 261.391561 
L 325.827769 261.655559 
L 326.103732 262.676366 
L 326.826107 265.444096 
L 327.053371 265.621875 
L 327.231935 265.478396 
L 327.499782 264.897917 
L 328.42507 262.620854 
L 328.563052 262.756935 
L 328.757849 263.338748 
L 329.074396 265.142465 
L 329.756187 269.078306 
L 329.918519 269.231005 
L 329.934752 269.221897 
L 330.064617 268.987253 
L 330.275647 268.020679 
L 330.640893 265.058065 
L 331.420083 258.712472 
L 331.850261 257.101955 
L 332.605102 255.222833 
L 332.840482 255.101593 
L 333.05963 255.262029 
L 333.741421 255.895197 
L 333.960569 255.747862 
L 334.268998 255.211661 
L 334.918324 254.037876 
L 335.072538 254.111224 
L 335.259219 254.512652 
L 335.559532 255.801261 
L 336.184508 258.478708 
L 336.354956 258.554575 
L 336.363072 258.548869 
L 336.517287 258.293262 
L 336.809484 257.259248 
L 337.393876 255.291138 
L 337.677956 255.0053 
L 337.913337 255.055783 
L 338.1893 255.371821 
L 338.611361 256.25903 
L 339.074006 257.083202 
L 339.260687 257.077011 
L 339.447368 256.791934 
L 339.739564 255.839836 
L 340.754135 251.225192 
L 342.158301 245.189385 
L 342.539779 244.620464 
L 343.043007 243.993201 
L 343.335203 243.070918 
L 344.219909 239.888803 
L 344.374124 239.959643 
L 344.617621 240.418974 
L 345.023449 241.093017 
L 345.177664 241.032507 
L 345.380578 240.631147 
L 345.786406 239.177116 
L 346.549363 235.726925 
L 347.085057 231.646969 
L 347.499002 229.276337 
L 347.701916 229.021824 
L 347.831781 229.198288 
L 348.050928 229.992578 
L 348.481106 232.605919 
L 349.422628 238.27581 
L 349.804107 239.408836 
L 350.007021 239.518972 
L 350.161235 239.314308 
L 350.372266 238.585883 
L 350.672579 236.625069 
L 351.102757 232.104822 
L 352.25531 219.134931 
L 352.555623 218.103161 
L 352.791003 217.92507 
L 353.351046 217.785572 
L 353.57831 217.244199 
L 353.88674 215.818992 
L 354.755212 211.384812 
L 354.885077 211.433695 
L 355.047409 211.876204 
L 355.331488 213.445236 
L 356.135028 218.117967 
L 356.386642 218.504354 
L 356.548973 218.438517 
L 356.760004 218.041327 
L 357.084667 216.873232 
L 357.514845 214.402429 
L 358.326501 209.514195 
L 358.407667 209.507129 
L 358.440133 209.550982 
L 358.569998 210.011499 
L 358.781029 211.758011 
L 359.121925 216.788777 
L 361.256582 252.522933 
L 361.532545 253.889452 
L 361.68676 253.981737 
L 361.694877 253.976718 
L 361.865324 253.726525 
L 362.279269 253.1356 
L 362.417251 253.277682 
L 362.620165 253.910118 
L 362.952944 255.844756 
L 363.902583 261.724235 
L 364.137963 262.021994 
L 364.308411 261.916129 
L 364.909037 261.375732 
L 365.087601 261.651913 
L 365.355448 262.5646 
L 365.745043 264.801787 
L 366.329436 269.68451 
L 367.068044 275.315086 
L 367.733602 280.289471 
L 368.512792 286.247034 
L 368.845572 287.266414 
L 369.097185 287.467487 
L 369.316333 287.36779 
L 369.649112 286.911729 
L 370.972112 284.440972 
L 371.256192 282.812817 
L 372.027266 277.245859 
L 372.092198 277.339369 
L 372.213947 278.005185 
L 372.416861 280.592083 
L 372.782106 288.803697 
L 373.431432 302.726563 
L 373.780444 306.002216 
L 374.088874 307.119887 
L 374.389187 307.470332 
L 374.795015 307.571852 
L 376.53196 307.584 
L 398.487273 307.584 
L 398.487273 307.584 
" style="fill:none;stroke:#ff7f0e;stroke-linecap:square;stroke-width:1.5;"/>
   </g>
   <g id="patch_103">
    <path d="M 57.6 307.584 
L 57.6 41.472 
" style="fill:none;stroke:#000000;stroke-linecap:square;stroke-linejoin:miter;stroke-width:0.8;"/>
   </g>
   <g id="patch_104">
    <path d="M 414.72 307.584 
L 414.72 41.472 
" style="fill:none;stroke:#000000;stroke-linecap:square;stroke-linejoin:miter;stroke-width:0.8;"/>
   </g>
   <g id="patch_105">
    <path d="M 57.6 307.584 
L 414.72 307.584 
" style="fill:none;stroke:#000000;stroke-linecap:square;stroke-linejoin:miter;stroke-width:0.8;"/>
   </g>
   <g id="patch_106">
    <path d="M 57.6 41.472 
L 414.72 41.472 
" style="fill:none;stroke:#000000;stroke-linecap:square;stroke-linejoin:miter;stroke-width:0.8;"/>
   </g>
  </g>
 </g>
 <defs>
  <clipPath id="p3f856a4ecc">
   <rect height="266.112" width="357.12" x="57.6" y="41.472"/>
  </clipPath>
 </defs>
</svg>
