<?xml version="1.0" encoding="utf-8" standalone="no"?>
<!DOCTYPE svg PUBLIC "-//W3C//DTD SVG 1.1//EN"
  "http://www.w3.org/Graphics/SVG/1.1/DTD/svg11.dtd">
<!-- Created with matplotlib (https://matplotlib.org/) -->
<svg height="345.6pt" version="1.1" viewBox="0 0 460.8 345.6" width="460.8pt" xmlns="http://www.w3.org/2000/svg" xmlns:xlink="http://www.w3.org/1999/xlink">
 <defs>
  <style type="text/css">
*{stroke-linecap:butt;stroke-linejoin:round;}
  </style>
 </defs>
 <g id="figure_1">
  <g id="patch_1">
   <path d="M 0 345.6 
L 460.8 345.6 
L 460.8 0 
L 0 0 
z
" style="fill:#ffffff;"/>
  </g>
  <g id="axes_1">
   <g id="patch_2">
    <path d="M 57.6 307.584 
L 414.72 307.584 
L 414.72 41.472 
L 57.6 41.472 
z
" style="fill:#ffffff;"/>
   </g>
   <g id="patch_3">
    <path clip-path="url(#p64d38dd659)" d="M 99.984343 307.584 
L 102.708034 307.584 
L 102.708034 285.511734 
L 99.984343 285.511734 
z
" style="fill:#1f77b4;"/>
   </g>
   <g id="patch_4">
    <path clip-path="url(#p64d38dd659)" d="M 102.70805 307.584 
L 105.431742 307.584 
L 105.431742 295.858109 
L 102.70805 295.858109 
z
" style="fill:#1f77b4;"/>
   </g>
   <g id="patch_5">
    <path clip-path="url(#p64d38dd659)" d="M 105.431726 307.584 
L 108.15541 307.584 
L 108.15541 291.719514 
L 105.431726 291.719514 
z
" style="fill:#1f77b4;"/>
   </g>
   <g id="patch_6">
    <path clip-path="url(#p64d38dd659)" d="M 108.15541 307.584 
L 110.879102 307.584 
L 110.879102 289.650284 
L 108.15541 289.650284 
z
" style="fill:#1f77b4;"/>
   </g>
   <g id="patch_7">
    <path clip-path="url(#p64d38dd659)" d="M 110.87911 307.584 
L 113.602794 307.584 
L 113.602794 285.511671 
L 110.87911 285.511671 
z
" style="fill:#1f77b4;"/>
   </g>
   <g id="patch_8">
    <path clip-path="url(#p64d38dd659)" d="M 113.602786 307.584 
L 116.326478 307.584 
L 116.326478 277.924393 
L 113.602786 277.924393 
z
" style="fill:#1f77b4;"/>
   </g>
   <g id="patch_9">
    <path clip-path="url(#p64d38dd659)" d="M 116.326478 307.584 
L 119.05017 307.584 
L 119.05017 279.993668 
L 116.326478 279.993668 
z
" style="fill:#1f77b4;"/>
   </g>
   <g id="patch_10">
    <path clip-path="url(#p64d38dd659)" d="M 119.05017 307.584 
L 121.773862 307.584 
L 121.773862 280.683426 
L 119.05017 280.683426 
z
" style="fill:#1f77b4;"/>
   </g>
   <g id="patch_11">
    <path clip-path="url(#p64d38dd659)" d="M 121.773862 307.584 
L 124.497546 307.584 
L 124.497546 286.891192 
L 121.773862 286.891192 
z
" style="fill:#1f77b4;"/>
   </g>
   <g id="patch_12">
    <path clip-path="url(#p64d38dd659)" d="M 124.497546 307.584 
L 127.221238 307.584 
L 127.221238 282.062943 
L 124.497546 282.062943 
z
" style="fill:#1f77b4;"/>
   </g>
   <g id="patch_13">
    <path clip-path="url(#p64d38dd659)" d="M 127.221238 307.584 
L 129.944929 307.584 
L 129.944929 277.924393 
L 127.221238 277.924393 
z
" style="fill:#1f77b4;"/>
   </g>
   <g id="patch_14">
    <path clip-path="url(#p64d38dd659)" d="M 129.944937 307.584 
L 132.668621 307.584 
L 132.668621 266.888144 
L 129.944937 266.888144 
z
" style="fill:#1f77b4;"/>
   </g>
   <g id="patch_15">
    <path clip-path="url(#p64d38dd659)" d="M 132.668614 307.584 
L 135.392305 307.584 
L 135.392305 252.403335 
L 132.668614 252.403335 
z
" style="fill:#1f77b4;"/>
   </g>
   <g id="patch_16">
    <path clip-path="url(#p64d38dd659)" d="M 135.392305 307.584 
L 138.115997 307.584 
L 138.115997 249.644302 
L 135.392305 249.644302 
z
" style="fill:#1f77b4;"/>
   </g>
   <g id="patch_17">
    <path clip-path="url(#p64d38dd659)" d="M 138.115997 307.584 
L 140.839689 307.584 
L 140.839689 266.198501 
L 138.115997 266.198501 
z
" style="fill:#1f77b4;"/>
   </g>
   <g id="patch_18">
    <path clip-path="url(#p64d38dd659)" d="M 140.839689 307.584 
L 143.563373 307.584 
L 143.563373 262.749582 
L 140.839689 262.749582 
z
" style="fill:#1f77b4;"/>
   </g>
   <g id="patch_19">
    <path clip-path="url(#p64d38dd659)" d="M 143.563373 307.584 
L 146.287065 307.584 
L 146.287065 240.677444 
L 143.563373 240.677444 
z
" style="fill:#1f77b4;"/>
   </g>
   <g id="patch_20">
    <path clip-path="url(#p64d38dd659)" d="M 146.287065 307.584 
L 149.010757 307.584 
L 149.010757 258.61116 
L 146.287065 258.61116 
z
" style="fill:#1f77b4;"/>
   </g>
   <g id="patch_21">
    <path clip-path="url(#p64d38dd659)" d="M 149.010764 307.584 
L 151.734449 307.584 
L 151.734449 243.436295 
L 149.010764 243.436295 
z
" style="fill:#1f77b4;"/>
   </g>
   <g id="patch_22">
    <path clip-path="url(#p64d38dd659)" d="M 151.734441 307.584 
L 154.458133 307.584 
L 154.458133 231.020828 
L 151.734441 231.020828 
z
" style="fill:#1f77b4;"/>
   </g>
   <g id="patch_23">
    <path clip-path="url(#p64d38dd659)" d="M 154.458133 307.584 
L 157.181824 307.584 
L 157.181824 247.575027 
L 154.458133 247.575027 
z
" style="fill:#1f77b4;"/>
   </g>
   <g id="patch_24">
    <path clip-path="url(#p64d38dd659)" d="M 157.181824 307.584 
L 159.905509 307.584 
L 159.905509 257.2315 
L 157.181824 257.2315 
z
" style="fill:#1f77b4;"/>
   </g>
   <g id="patch_25">
    <path clip-path="url(#p64d38dd659)" d="M 159.905509 307.584 
L 162.6292 307.584 
L 162.6292 255.162368 
L 159.905509 255.162368 
z
" style="fill:#1f77b4;"/>
   </g>
   <g id="patch_26">
    <path clip-path="url(#p64d38dd659)" d="M 162.6292 307.584 
L 165.352892 307.584 
L 165.352892 253.782852 
L 162.6292 253.782852 
z
" style="fill:#1f77b4;"/>
   </g>
   <g id="patch_27">
    <path clip-path="url(#p64d38dd659)" d="M 165.3529 307.584 
L 168.076584 307.584 
L 168.076584 253.092939 
L 165.3529 253.092939 
z
" style="fill:#1f77b4;"/>
   </g>
   <g id="patch_28">
    <path clip-path="url(#p64d38dd659)" d="M 168.076576 307.584 
L 170.800268 307.584 
L 170.800268 259.300918 
L 168.076576 259.300918 
z
" style="fill:#1f77b4;"/>
   </g>
   <g id="patch_29">
    <path clip-path="url(#p64d38dd659)" d="M 170.800268 307.584 
L 173.52396 307.584 
L 173.52396 257.231643 
L 170.800268 257.231643 
z
" style="fill:#1f77b4;"/>
   </g>
   <g id="patch_30">
    <path clip-path="url(#p64d38dd659)" d="M 173.52396 307.584 
L 176.247648 307.584 
L 176.247648 254.472535 
L 173.52396 254.472535 
z
" style="fill:#1f77b4;"/>
   </g>
   <g id="patch_31">
    <path clip-path="url(#p64d38dd659)" d="M 176.247648 307.584 
L 178.97134 307.584 
L 178.97134 251.713577 
L 176.247648 251.713577 
z
" style="fill:#1f77b4;"/>
   </g>
   <g id="patch_32">
    <path clip-path="url(#p64d38dd659)" d="M 178.971336 307.584 
L 181.695024 307.584 
L 181.695024 251.713498 
L 178.971336 251.713498 
z
" style="fill:#1f77b4;"/>
   </g>
   <g id="patch_33">
    <path clip-path="url(#p64d38dd659)" d="M 181.695028 307.584 
L 184.418716 307.584 
L 184.418716 243.436386 
L 181.695028 243.436386 
z
" style="fill:#1f77b4;"/>
   </g>
   <g id="patch_34">
    <path clip-path="url(#p64d38dd659)" d="M 184.418716 307.584 
L 187.142407 307.584 
L 187.142407 236.538894 
L 184.418716 236.538894 
z
" style="fill:#1f77b4;"/>
   </g>
   <g id="patch_35">
    <path clip-path="url(#p64d38dd659)" d="M 187.142404 307.584 
L 189.866092 307.584 
L 189.866092 241.367108 
L 187.142404 241.367108 
z
" style="fill:#1f77b4;"/>
   </g>
   <g id="patch_36">
    <path clip-path="url(#p64d38dd659)" d="M 189.866095 307.584 
L 192.589787 307.584 
L 192.589787 242.056961 
L 189.866095 242.056961 
z
" style="fill:#1f77b4;"/>
   </g>
   <g id="patch_37">
    <path clip-path="url(#p64d38dd659)" d="M 192.589787 307.584 
L 195.313475 307.584 
L 195.313475 241.367108 
L 192.589787 241.367108 
z
" style="fill:#1f77b4;"/>
   </g>
   <g id="patch_38">
    <path clip-path="url(#p64d38dd659)" d="M 195.313471 307.584 
L 198.037159 307.584 
L 198.037159 236.538793 
L 195.313471 236.538793 
z
" style="fill:#1f77b4;"/>
   </g>
   <g id="patch_39">
    <path clip-path="url(#p64d38dd659)" d="M 198.037163 307.584 
L 200.760855 307.584 
L 200.760855 262.059952 
L 198.037163 262.059952 
z
" style="fill:#1f77b4;"/>
   </g>
   <g id="patch_40">
    <path clip-path="url(#p64d38dd659)" d="M 200.760855 307.584 
L 203.484543 307.584 
L 203.484543 262.749646 
L 200.760855 262.749646 
z
" style="fill:#1f77b4;"/>
   </g>
   <g id="patch_41">
    <path clip-path="url(#p64d38dd659)" d="M 203.484543 307.584 
L 206.208233 307.584 
L 206.208233 268.267748 
L 203.484543 268.267748 
z
" style="fill:#1f77b4;"/>
   </g>
   <g id="patch_42">
    <path clip-path="url(#p64d38dd659)" d="M 206.208231 307.584 
L 208.931921 307.584 
L 208.931921 263.439437 
L 206.208231 263.439437 
z
" style="fill:#1f77b4;"/>
   </g>
   <g id="patch_43">
    <path clip-path="url(#p64d38dd659)" d="M 208.931923 307.584 
L 211.655613 307.584 
L 211.655613 266.888231 
L 208.931923 266.888231 
z
" style="fill:#1f77b4;"/>
   </g>
   <g id="patch_44">
    <path clip-path="url(#p64d38dd659)" d="M 211.655611 307.584 
L 214.3793 307.584 
L 214.3793 256.541849 
L 211.655611 256.541849 
z
" style="fill:#1f77b4;"/>
   </g>
   <g id="patch_45">
    <path clip-path="url(#p64d38dd659)" d="M 214.379302 307.584 
L 217.10299 307.584 
L 217.10299 251.023738 
L 214.379302 251.023738 
z
" style="fill:#1f77b4;"/>
   </g>
   <g id="patch_46">
    <path clip-path="url(#p64d38dd659)" d="M 217.10299 307.584 
L 219.82668 307.584 
L 219.82668 255.162331 
L 217.10299 255.162331 
z
" style="fill:#1f77b4;"/>
   </g>
   <g id="patch_47">
    <path clip-path="url(#p64d38dd659)" d="M 219.82668 307.584 
L 222.55037 307.584 
L 222.55037 235.159326 
L 219.82668 235.159326 
z
" style="fill:#1f77b4;"/>
   </g>
   <g id="patch_48">
    <path clip-path="url(#p64d38dd659)" d="M 222.55037 307.584 
L 225.27406 307.584 
L 225.27406 256.541849 
L 222.55037 256.541849 
z
" style="fill:#1f77b4;"/>
   </g>
   <g id="patch_49">
    <path clip-path="url(#p64d38dd659)" d="M 225.27406 307.584 
L 227.997749 307.584 
L 227.997749 230.330987 
L 225.27406 230.330987 
z
" style="fill:#1f77b4;"/>
   </g>
   <g id="patch_50">
    <path clip-path="url(#p64d38dd659)" d="M 227.997749 307.584 
L 230.721439 307.584 
L 230.721439 240.677396 
L 227.997749 240.677396 
z
" style="fill:#1f77b4;"/>
   </g>
   <g id="patch_51">
    <path clip-path="url(#p64d38dd659)" d="M 230.721439 307.584 
L 233.445128 307.584 
L 233.445128 222.053894 
L 230.721439 222.053894 
z
" style="fill:#1f77b4;"/>
   </g>
   <g id="patch_52">
    <path clip-path="url(#p64d38dd659)" d="M 233.445128 307.584 
L 236.168818 307.584 
L 236.168818 224.12317 
L 233.445128 224.12317 
z
" style="fill:#1f77b4;"/>
   </g>
   <g id="patch_53">
    <path clip-path="url(#p64d38dd659)" d="M 236.168818 307.584 
L 238.892507 307.584 
L 238.892507 133.074993 
L 236.168818 133.074993 
z
" style="fill:#1f77b4;"/>
   </g>
   <g id="patch_54">
    <path clip-path="url(#p64d38dd659)" d="M 238.892507 307.584 
L 241.616196 307.584 
L 241.616196 204.120162 
L 238.892507 204.120162 
z
" style="fill:#1f77b4;"/>
   </g>
   <g id="patch_55">
    <path clip-path="url(#p64d38dd659)" d="M 241.616196 307.584 
L 244.339886 307.584 
L 244.339886 239.987638 
L 241.616196 239.987638 
z
" style="fill:#1f77b4;"/>
   </g>
   <g id="patch_56">
    <path clip-path="url(#p64d38dd659)" d="M 244.339887 307.584 
L 247.063576 307.584 
L 247.063576 247.574963 
L 244.339887 247.574963 
z
" style="fill:#1f77b4;"/>
   </g>
   <g id="patch_57">
    <path clip-path="url(#p64d38dd659)" d="M 247.063575 307.584 
L 249.787265 307.584 
L 249.787265 255.85209 
L 247.063575 255.85209 
z
" style="fill:#1f77b4;"/>
   </g>
   <g id="patch_58">
    <path clip-path="url(#p64d38dd659)" d="M 249.787265 307.584 
L 252.510955 307.584 
L 252.510955 245.505708 
L 249.787265 245.505708 
z
" style="fill:#1f77b4;"/>
   </g>
   <g id="patch_59">
    <path clip-path="url(#p64d38dd659)" d="M 252.510953 307.584 
L 255.234643 307.584 
L 255.234643 246.885226 
L 252.510953 246.885226 
z
" style="fill:#1f77b4;"/>
   </g>
   <g id="patch_60">
    <path clip-path="url(#p64d38dd659)" d="M 255.234645 307.584 
L 257.958333 307.584 
L 257.958333 246.885182 
L 255.234645 246.885182 
z
" style="fill:#1f77b4;"/>
   </g>
   <g id="patch_61">
    <path clip-path="url(#p64d38dd659)" d="M 257.958333 307.584 
L 260.682023 307.584 
L 260.682023 243.436432 
L 257.958333 243.436432 
z
" style="fill:#1f77b4;"/>
   </g>
   <g id="patch_62">
    <path clip-path="url(#p64d38dd659)" d="M 260.682021 307.584 
L 263.405711 307.584 
L 263.405711 271.716542 
L 260.682021 271.716542 
z
" style="fill:#1f77b4;"/>
   </g>
   <g id="patch_63">
    <path clip-path="url(#p64d38dd659)" d="M 263.405713 307.584 
L 266.129403 307.584 
L 266.129403 262.059919 
L 263.405713 262.059919 
z
" style="fill:#1f77b4;"/>
   </g>
   <g id="patch_64">
    <path clip-path="url(#p64d38dd659)" d="M 266.129401 307.584 
L 268.853089 307.584 
L 268.853089 271.026784 
L 266.129401 271.026784 
z
" style="fill:#1f77b4;"/>
   </g>
   <g id="patch_65">
    <path clip-path="url(#p64d38dd659)" d="M 268.853089 307.584 
L 271.576777 307.584 
L 271.576777 275.165313 
L 268.853089 275.165313 
z
" style="fill:#1f77b4;"/>
   </g>
   <g id="patch_66">
    <path clip-path="url(#p64d38dd659)" d="M 271.57678 307.584 
L 274.300472 307.584 
L 274.300472 271.02681 
L 271.57678 271.02681 
z
" style="fill:#1f77b4;"/>
   </g>
   <g id="patch_67">
    <path clip-path="url(#p64d38dd659)" d="M 274.300472 307.584 
L 277.02416 307.584 
L 277.02416 265.508683 
L 274.300472 265.508683 
z
" style="fill:#1f77b4;"/>
   </g>
   <g id="patch_68">
    <path clip-path="url(#p64d38dd659)" d="M 277.024156 307.584 
L 279.747844 307.584 
L 279.747844 269.647239 
L 277.024156 269.647239 
z
" style="fill:#1f77b4;"/>
   </g>
   <g id="patch_69">
    <path clip-path="url(#p64d38dd659)" d="M 279.747848 307.584 
L 282.47154 307.584 
L 282.47154 271.02681 
L 279.747848 271.02681 
z
" style="fill:#1f77b4;"/>
   </g>
   <g id="patch_70">
    <path clip-path="url(#p64d38dd659)" d="M 282.47154 307.584 
L 285.195228 307.584 
L 285.195228 274.475554 
L 282.47154 274.475554 
z
" style="fill:#1f77b4;"/>
   </g>
   <g id="patch_71">
    <path clip-path="url(#p64d38dd659)" d="M 285.195228 307.584 
L 287.91892 307.584 
L 287.91892 273.785843 
L 285.195228 273.785843 
z
" style="fill:#1f77b4;"/>
   </g>
   <g id="patch_72">
    <path clip-path="url(#p64d38dd659)" d="M 287.918916 307.584 
L 290.642604 307.584 
L 290.642604 266.888202 
L 287.918916 266.888202 
z
" style="fill:#1f77b4;"/>
   </g>
   <g id="patch_73">
    <path clip-path="url(#p64d38dd659)" d="M 290.642608 307.584 
L 293.366296 307.584 
L 293.366296 271.716517 
L 290.642608 271.716517 
z
" style="fill:#1f77b4;"/>
   </g>
   <g id="patch_74">
    <path clip-path="url(#p64d38dd659)" d="M 293.366296 307.584 
L 296.089987 307.584 
L 296.089987 268.267776 
L 293.366296 268.267776 
z
" style="fill:#1f77b4;"/>
   </g>
   <g id="patch_75">
    <path clip-path="url(#p64d38dd659)" d="M 296.089984 307.584 
L 298.813672 307.584 
L 298.813672 266.888202 
L 296.089984 266.888202 
z
" style="fill:#1f77b4;"/>
   </g>
   <g id="patch_76">
    <path clip-path="url(#p64d38dd659)" d="M 298.813675 307.584 
L 301.537367 307.584 
L 301.537367 267.578018 
L 298.813675 267.578018 
z
" style="fill:#1f77b4;"/>
   </g>
   <g id="patch_77">
    <path clip-path="url(#p64d38dd659)" d="M 301.537367 307.584 
L 304.261059 307.584 
L 304.261059 279.303909 
L 301.537367 279.303909 
z
" style="fill:#1f77b4;"/>
   </g>
   <g id="patch_78">
    <path clip-path="url(#p64d38dd659)" d="M 304.261059 307.584 
L 306.984743 307.584 
L 306.984743 274.475507 
L 304.261059 274.475507 
z
" style="fill:#1f77b4;"/>
   </g>
   <g id="patch_79">
    <path clip-path="url(#p64d38dd659)" d="M 306.984743 307.584 
L 309.708435 307.584 
L 309.708435 267.578018 
L 306.984743 267.578018 
z
" style="fill:#1f77b4;"/>
   </g>
   <g id="patch_80">
    <path clip-path="url(#p64d38dd659)" d="M 309.708435 307.584 
L 312.432127 307.584 
L 312.432127 270.337051 
L 309.708435 270.337051 
z
" style="fill:#1f77b4;"/>
   </g>
   <g id="patch_81">
    <path clip-path="url(#p64d38dd659)" d="M 312.432134 307.584 
L 315.155819 307.584 
L 315.155819 276.544788 
L 312.432134 276.544788 
z
" style="fill:#1f77b4;"/>
   </g>
   <g id="patch_82">
    <path clip-path="url(#p64d38dd659)" d="M 315.155811 307.584 
L 317.879503 307.584 
L 317.879503 275.165359 
L 315.155811 275.165359 
z
" style="fill:#1f77b4;"/>
   </g>
   <g id="patch_83">
    <path clip-path="url(#p64d38dd659)" d="M 317.879503 307.584 
L 320.603194 307.584 
L 320.603194 271.02681 
L 317.879503 271.02681 
z
" style="fill:#1f77b4;"/>
   </g>
   <g id="patch_84">
    <path clip-path="url(#p64d38dd659)" d="M 320.603194 307.584 
L 323.326879 307.584 
L 323.326879 266.198384 
L 320.603194 266.198384 
z
" style="fill:#1f77b4;"/>
   </g>
   <g id="patch_85">
    <path clip-path="url(#p64d38dd659)" d="M 323.326879 307.584 
L 326.05057 307.584 
L 326.05057 262.059952 
L 323.326879 262.059952 
z
" style="fill:#1f77b4;"/>
   </g>
   <g id="patch_86">
    <path clip-path="url(#p64d38dd659)" d="M 326.05057 307.584 
L 328.774262 307.584 
L 328.774262 257.231643 
L 326.05057 257.231643 
z
" style="fill:#1f77b4;"/>
   </g>
   <g id="patch_87">
    <path clip-path="url(#p64d38dd659)" d="M 328.77427 307.584 
L 331.497954 307.584 
L 331.497954 264.129103 
L 328.77427 264.129103 
z
" style="fill:#1f77b4;"/>
   </g>
   <g id="patch_88">
    <path clip-path="url(#p64d38dd659)" d="M 331.497946 307.584 
L 334.221638 307.584 
L 334.221638 253.782852 
L 331.497946 253.782852 
z
" style="fill:#1f77b4;"/>
   </g>
   <g id="patch_89">
    <path clip-path="url(#p64d38dd659)" d="M 334.221638 307.584 
L 336.94533 307.584 
L 336.94533 259.300918 
L 334.221638 259.300918 
z
" style="fill:#1f77b4;"/>
   </g>
   <g id="patch_90">
    <path clip-path="url(#p64d38dd659)" d="M 336.94533 307.584 
L 339.669022 307.584 
L 339.669022 246.885269 
L 336.94533 246.885269 
z
" style="fill:#1f77b4;"/>
   </g>
   <g id="patch_91">
    <path clip-path="url(#p64d38dd659)" d="M 339.669022 307.584 
L 342.392706 307.584 
L 342.392706 248.954377 
L 339.669022 248.954377 
z
" style="fill:#1f77b4;"/>
   </g>
   <g id="patch_92">
    <path clip-path="url(#p64d38dd659)" d="M 342.392706 307.584 
L 345.116398 307.584 
L 345.116398 224.123245 
L 342.392706 224.123245 
z
" style="fill:#1f77b4;"/>
   </g>
   <g id="patch_93">
    <path clip-path="url(#p64d38dd659)" d="M 345.116398 307.584 
L 347.840089 307.584 
L 347.840089 224.813003 
L 345.116398 224.813003 
z
" style="fill:#1f77b4;"/>
   </g>
   <g id="patch_94">
    <path clip-path="url(#p64d38dd659)" d="M 347.840097 307.584 
L 350.563781 307.584 
L 350.563781 215.845884 
L 347.840097 215.845884 
z
" style="fill:#1f77b4;"/>
   </g>
   <g id="patch_95">
    <path clip-path="url(#p64d38dd659)" d="M 350.563774 307.584 
L 353.287465 307.584 
L 353.287465 207.569045 
L 350.563774 207.569045 
z
" style="fill:#1f77b4;"/>
   </g>
   <g id="patch_96">
    <path clip-path="url(#p64d38dd659)" d="M 353.287465 307.584 
L 356.011157 307.584 
L 356.011157 217.91542 
L 353.287465 217.91542 
z
" style="fill:#1f77b4;"/>
   </g>
   <g id="patch_97">
    <path clip-path="url(#p64d38dd659)" d="M 356.011157 307.584 
L 358.734849 307.584 
L 358.734849 222.743728 
L 356.011157 222.743728 
z
" style="fill:#1f77b4;"/>
   </g>
   <g id="patch_98">
    <path clip-path="url(#p64d38dd659)" d="M 358.734849 307.584 
L 361.458533 307.584 
L 361.458533 242.056774 
L 358.734849 242.056774 
z
" style="fill:#1f77b4;"/>
   </g>
   <g id="patch_99">
    <path clip-path="url(#p64d38dd659)" d="M 361.458533 307.584 
L 364.182225 307.584 
L 364.182225 250.33406 
L 361.458533 250.33406 
z
" style="fill:#1f77b4;"/>
   </g>
   <g id="patch_100">
    <path clip-path="url(#p64d38dd659)" d="M 364.182233 307.584 
L 366.905924 307.584 
L 366.905924 262.749582 
L 364.182233 262.749582 
z
" style="fill:#1f77b4;"/>
   </g>
   <g id="patch_101">
    <path clip-path="url(#p64d38dd659)" d="M 366.905924 307.584 
L 369.629616 307.584 
L 369.629616 277.234634 
L 366.905924 277.234634 
z
" style="fill:#1f77b4;"/>
   </g>
   <g id="patch_102">
    <path clip-path="url(#p64d38dd659)" d="M 369.629601 307.584 
L 372.353293 307.584 
L 372.353293 273.785843 
L 369.629601 273.785843 
z
" style="fill:#1f77b4;"/>
   </g>
   <g id="matplotlib.axis_1">
    <g id="xtick_1">
     <g id="line2d_1">
      <defs>
       <path d="M 0 0 
L 0 3.5 
" id="mf5c389ed96" style="stroke:#000000;stroke-width:0.8;"/>
      </defs>
      <g>
       <use style="stroke:#000000;stroke-width:0.8;" x="106.300346" xlink:href="#mf5c389ed96" y="307.584"/>
      </g>
     </g>
     <g id="text_1">
      <!-- −2 -->
      <defs>
       <path d="M 10.59375 35.5 
L 73.1875 35.5 
L 73.1875 27.203125 
L 10.59375 27.203125 
z
" id="DejaVuSans-8722"/>
       <path d="M 19.1875 8.296875 
L 53.609375 8.296875 
L 53.609375 0 
L 7.328125 0 
L 7.328125 8.296875 
Q 12.9375 14.109375 22.625 23.890625 
Q 32.328125 33.6875 34.8125 36.53125 
Q 39.546875 41.84375 41.421875 45.53125 
Q 43.3125 49.21875 43.3125 52.78125 
Q 43.3125 58.59375 39.234375 62.25 
Q 35.15625 65.921875 28.609375 65.921875 
Q 23.96875 65.921875 18.8125 64.3125 
Q 13.671875 62.703125 7.8125 59.421875 
L 7.8125 69.390625 
Q 13.765625 71.78125 18.9375 73 
Q 24.125 74.21875 28.421875 74.21875 
Q 39.75 74.21875 46.484375 68.546875 
Q 53.21875 62.890625 53.21875 53.421875 
Q 53.21875 48.921875 51.53125 44.890625 
Q 49.859375 40.875 45.40625 35.40625 
Q 44.1875 33.984375 37.640625 27.21875 
Q 31.109375 20.453125 19.1875 8.296875 
z
" id="DejaVuSans-50"/>
      </defs>
      <g transform="translate(93.769487 327.501344)scale(0.17 -0.17)">
       <use xlink:href="#DejaVuSans-8722"/>
       <use x="83.789062" xlink:href="#DejaVuSans-50"/>
      </g>
     </g>
    </g>
    <g id="xtick_2">
     <g id="line2d_2">
      <g>
       <use style="stroke:#000000;stroke-width:0.8;" x="171.235584" xlink:href="#mf5c389ed96" y="307.584"/>
      </g>
     </g>
     <g id="text_2">
      <!-- −1 -->
      <defs>
       <path d="M 12.40625 8.296875 
L 28.515625 8.296875 
L 28.515625 63.921875 
L 10.984375 60.40625 
L 10.984375 69.390625 
L 28.421875 72.90625 
L 38.28125 72.90625 
L 38.28125 8.296875 
L 54.390625 8.296875 
L 54.390625 0 
L 12.40625 0 
z
" id="DejaVuSans-49"/>
      </defs>
      <g transform="translate(158.704725 327.501344)scale(0.17 -0.17)">
       <use xlink:href="#DejaVuSans-8722"/>
       <use x="83.789062" xlink:href="#DejaVuSans-49"/>
      </g>
     </g>
    </g>
    <g id="xtick_3">
     <g id="line2d_3">
      <g>
       <use style="stroke:#000000;stroke-width:0.8;" x="236.170823" xlink:href="#mf5c389ed96" y="307.584"/>
      </g>
     </g>
     <g id="text_3">
      <!-- 0 -->
      <defs>
       <path d="M 31.78125 66.40625 
Q 24.171875 66.40625 20.328125 58.90625 
Q 16.5 51.421875 16.5 36.375 
Q 16.5 21.390625 20.328125 13.890625 
Q 24.171875 6.390625 31.78125 6.390625 
Q 39.453125 6.390625 43.28125 13.890625 
Q 47.125 21.390625 47.125 36.375 
Q 47.125 51.421875 43.28125 58.90625 
Q 39.453125 66.40625 31.78125 66.40625 
z
M 31.78125 74.21875 
Q 44.046875 74.21875 50.515625 64.515625 
Q 56.984375 54.828125 56.984375 36.375 
Q 56.984375 17.96875 50.515625 8.265625 
Q 44.046875 -1.421875 31.78125 -1.421875 
Q 19.53125 -1.421875 13.0625 8.265625 
Q 6.59375 17.96875 6.59375 36.375 
Q 6.59375 54.828125 13.0625 64.515625 
Q 19.53125 74.21875 31.78125 74.21875 
z
" id="DejaVuSans-48"/>
      </defs>
      <g transform="translate(230.762698 327.501344)scale(0.17 -0.17)">
       <use xlink:href="#DejaVuSans-48"/>
      </g>
     </g>
    </g>
    <g id="xtick_4">
     <g id="line2d_4">
      <g>
       <use style="stroke:#000000;stroke-width:0.8;" x="301.106061" xlink:href="#mf5c389ed96" y="307.584"/>
      </g>
     </g>
     <g id="text_4">
      <!-- 1 -->
      <g transform="translate(295.697936 327.501344)scale(0.17 -0.17)">
       <use xlink:href="#DejaVuSans-49"/>
      </g>
     </g>
    </g>
    <g id="xtick_5">
     <g id="line2d_5">
      <g>
       <use style="stroke:#000000;stroke-width:0.8;" x="366.041299" xlink:href="#mf5c389ed96" y="307.584"/>
      </g>
     </g>
     <g id="text_5">
      <!-- 2 -->
      <g transform="translate(360.633174 327.501344)scale(0.17 -0.17)">
       <use xlink:href="#DejaVuSans-50"/>
      </g>
     </g>
    </g>
    <g id="text_6">
     <!-- Position in Radian -->
     <defs>
      <path d="M 19.671875 64.796875 
L 19.671875 37.40625 
L 32.078125 37.40625 
Q 38.96875 37.40625 42.71875 40.96875 
Q 46.484375 44.53125 46.484375 51.125 
Q 46.484375 57.671875 42.71875 61.234375 
Q 38.96875 64.796875 32.078125 64.796875 
z
M 9.8125 72.90625 
L 32.078125 72.90625 
Q 44.34375 72.90625 50.609375 67.359375 
Q 56.890625 61.8125 56.890625 51.125 
Q 56.890625 40.328125 50.609375 34.8125 
Q 44.34375 29.296875 32.078125 29.296875 
L 19.671875 29.296875 
L 19.671875 0 
L 9.8125 0 
z
" id="DejaVuSans-80"/>
      <path d="M 30.609375 48.390625 
Q 23.390625 48.390625 19.1875 42.75 
Q 14.984375 37.109375 14.984375 27.296875 
Q 14.984375 17.484375 19.15625 11.84375 
Q 23.34375 6.203125 30.609375 6.203125 
Q 37.796875 6.203125 41.984375 11.859375 
Q 46.1875 17.53125 46.1875 27.296875 
Q 46.1875 37.015625 41.984375 42.703125 
Q 37.796875 48.390625 30.609375 48.390625 
z
M 30.609375 56 
Q 42.328125 56 49.015625 48.375 
Q 55.71875 40.765625 55.71875 27.296875 
Q 55.71875 13.875 49.015625 6.21875 
Q 42.328125 -1.421875 30.609375 -1.421875 
Q 18.84375 -1.421875 12.171875 6.21875 
Q 5.515625 13.875 5.515625 27.296875 
Q 5.515625 40.765625 12.171875 48.375 
Q 18.84375 56 30.609375 56 
z
" id="DejaVuSans-111"/>
      <path d="M 44.28125 53.078125 
L 44.28125 44.578125 
Q 40.484375 46.53125 36.375 47.5 
Q 32.28125 48.484375 27.875 48.484375 
Q 21.1875 48.484375 17.84375 46.4375 
Q 14.5 44.390625 14.5 40.28125 
Q 14.5 37.15625 16.890625 35.375 
Q 19.28125 33.59375 26.515625 31.984375 
L 29.59375 31.296875 
Q 39.15625 29.25 43.1875 25.515625 
Q 47.21875 21.78125 47.21875 15.09375 
Q 47.21875 7.46875 41.1875 3.015625 
Q 35.15625 -1.421875 24.609375 -1.421875 
Q 20.21875 -1.421875 15.453125 -0.5625 
Q 10.6875 0.296875 5.421875 2 
L 5.421875 11.28125 
Q 10.40625 8.6875 15.234375 7.390625 
Q 20.0625 6.109375 24.8125 6.109375 
Q 31.15625 6.109375 34.5625 8.28125 
Q 37.984375 10.453125 37.984375 14.40625 
Q 37.984375 18.0625 35.515625 20.015625 
Q 33.0625 21.96875 24.703125 23.78125 
L 21.578125 24.515625 
Q 13.234375 26.265625 9.515625 29.90625 
Q 5.8125 33.546875 5.8125 39.890625 
Q 5.8125 47.609375 11.28125 51.796875 
Q 16.75 56 26.8125 56 
Q 31.78125 56 36.171875 55.265625 
Q 40.578125 54.546875 44.28125 53.078125 
z
" id="DejaVuSans-115"/>
      <path d="M 9.421875 54.6875 
L 18.40625 54.6875 
L 18.40625 0 
L 9.421875 0 
z
M 9.421875 75.984375 
L 18.40625 75.984375 
L 18.40625 64.59375 
L 9.421875 64.59375 
z
" id="DejaVuSans-105"/>
      <path d="M 18.3125 70.21875 
L 18.3125 54.6875 
L 36.8125 54.6875 
L 36.8125 47.703125 
L 18.3125 47.703125 
L 18.3125 18.015625 
Q 18.3125 11.328125 20.140625 9.421875 
Q 21.96875 7.515625 27.59375 7.515625 
L 36.8125 7.515625 
L 36.8125 0 
L 27.59375 0 
Q 17.1875 0 13.234375 3.875 
Q 9.28125 7.765625 9.28125 18.015625 
L 9.28125 47.703125 
L 2.6875 47.703125 
L 2.6875 54.6875 
L 9.28125 54.6875 
L 9.28125 70.21875 
z
" id="DejaVuSans-116"/>
      <path d="M 54.890625 33.015625 
L 54.890625 0 
L 45.90625 0 
L 45.90625 32.71875 
Q 45.90625 40.484375 42.875 44.328125 
Q 39.84375 48.1875 33.796875 48.1875 
Q 26.515625 48.1875 22.3125 43.546875 
Q 18.109375 38.921875 18.109375 30.90625 
L 18.109375 0 
L 9.078125 0 
L 9.078125 54.6875 
L 18.109375 54.6875 
L 18.109375 46.1875 
Q 21.34375 51.125 25.703125 53.5625 
Q 30.078125 56 35.796875 56 
Q 45.21875 56 50.046875 50.171875 
Q 54.890625 44.34375 54.890625 33.015625 
z
" id="DejaVuSans-110"/>
      <path id="DejaVuSans-32"/>
      <path d="M 44.390625 34.1875 
Q 47.5625 33.109375 50.5625 29.59375 
Q 53.5625 26.078125 56.59375 19.921875 
L 66.609375 0 
L 56 0 
L 46.6875 18.703125 
Q 43.0625 26.03125 39.671875 28.421875 
Q 36.28125 30.8125 30.421875 30.8125 
L 19.671875 30.8125 
L 19.671875 0 
L 9.8125 0 
L 9.8125 72.90625 
L 32.078125 72.90625 
Q 44.578125 72.90625 50.734375 67.671875 
Q 56.890625 62.453125 56.890625 51.90625 
Q 56.890625 45.015625 53.6875 40.46875 
Q 50.484375 35.9375 44.390625 34.1875 
z
M 19.671875 64.796875 
L 19.671875 38.921875 
L 32.078125 38.921875 
Q 39.203125 38.921875 42.84375 42.21875 
Q 46.484375 45.515625 46.484375 51.90625 
Q 46.484375 58.296875 42.84375 61.546875 
Q 39.203125 64.796875 32.078125 64.796875 
z
" id="DejaVuSans-82"/>
      <path d="M 34.28125 27.484375 
Q 23.390625 27.484375 19.1875 25 
Q 14.984375 22.515625 14.984375 16.5 
Q 14.984375 11.71875 18.140625 8.90625 
Q 21.296875 6.109375 26.703125 6.109375 
Q 34.1875 6.109375 38.703125 11.40625 
Q 43.21875 16.703125 43.21875 25.484375 
L 43.21875 27.484375 
z
M 52.203125 31.203125 
L 52.203125 0 
L 43.21875 0 
L 43.21875 8.296875 
Q 40.140625 3.328125 35.546875 0.953125 
Q 30.953125 -1.421875 24.3125 -1.421875 
Q 15.921875 -1.421875 10.953125 3.296875 
Q 6 8.015625 6 15.921875 
Q 6 25.140625 12.171875 29.828125 
Q 18.359375 34.515625 30.609375 34.515625 
L 43.21875 34.515625 
L 43.21875 35.40625 
Q 43.21875 41.609375 39.140625 45 
Q 35.0625 48.390625 27.6875 48.390625 
Q 23 48.390625 18.546875 47.265625 
Q 14.109375 46.140625 10.015625 43.890625 
L 10.015625 52.203125 
Q 14.9375 54.109375 19.578125 55.046875 
Q 24.21875 56 28.609375 56 
Q 40.484375 56 46.34375 49.84375 
Q 52.203125 43.703125 52.203125 31.203125 
z
" id="DejaVuSans-97"/>
      <path d="M 45.40625 46.390625 
L 45.40625 75.984375 
L 54.390625 75.984375 
L 54.390625 0 
L 45.40625 0 
L 45.40625 8.203125 
Q 42.578125 3.328125 38.25 0.953125 
Q 33.9375 -1.421875 27.875 -1.421875 
Q 17.96875 -1.421875 11.734375 6.484375 
Q 5.515625 14.40625 5.515625 27.296875 
Q 5.515625 40.1875 11.734375 48.09375 
Q 17.96875 56 27.875 56 
Q 33.9375 56 38.25 53.625 
Q 42.578125 51.265625 45.40625 46.390625 
z
M 14.796875 27.296875 
Q 14.796875 17.390625 18.875 11.75 
Q 22.953125 6.109375 30.078125 6.109375 
Q 37.203125 6.109375 41.296875 11.75 
Q 45.40625 17.390625 45.40625 27.296875 
Q 45.40625 37.203125 41.296875 42.84375 
Q 37.203125 48.484375 30.078125 48.484375 
Q 22.953125 48.484375 18.875 42.84375 
Q 14.796875 37.203125 14.796875 27.296875 
z
" id="DejaVuSans-100"/>
     </defs>
     <g transform="translate(102.024844 357.832125)scale(0.3 -0.3)">
      <use xlink:href="#DejaVuSans-80"/>
      <use x="60.255859" xlink:href="#DejaVuSans-111"/>
      <use x="121.4375" xlink:href="#DejaVuSans-115"/>
      <use x="173.537109" xlink:href="#DejaVuSans-105"/>
      <use x="201.320312" xlink:href="#DejaVuSans-116"/>
      <use x="240.529297" xlink:href="#DejaVuSans-105"/>
      <use x="268.3125" xlink:href="#DejaVuSans-111"/>
      <use x="329.494141" xlink:href="#DejaVuSans-110"/>
      <use x="392.873047" xlink:href="#DejaVuSans-32"/>
      <use x="424.660156" xlink:href="#DejaVuSans-105"/>
      <use x="452.443359" xlink:href="#DejaVuSans-110"/>
      <use x="515.822266" xlink:href="#DejaVuSans-32"/>
      <use x="547.609375" xlink:href="#DejaVuSans-82"/>
      <use x="617.060547" xlink:href="#DejaVuSans-97"/>
      <use x="678.339844" xlink:href="#DejaVuSans-100"/>
      <use x="741.816406" xlink:href="#DejaVuSans-105"/>
      <use x="769.599609" xlink:href="#DejaVuSans-97"/>
      <use x="830.878906" xlink:href="#DejaVuSans-110"/>
     </g>
    </g>
   </g>
   <g id="matplotlib.axis_2">
    <g id="ytick_1">
     <g id="line2d_6">
      <defs>
       <path d="M 0 0 
L -3.5 0 
" id="m7acc6f6f3f" style="stroke:#000000;stroke-width:0.8;"/>
      </defs>
      <g>
       <use style="stroke:#000000;stroke-width:0.8;" x="57.6" xlink:href="#m7acc6f6f3f" y="307.584"/>
      </g>
     </g>
     <g id="text_7">
      <!-- 0.0 -->
      <defs>
       <path d="M 10.6875 12.40625 
L 21 12.40625 
L 21 0 
L 10.6875 0 
z
" id="DejaVuSans-46"/>
      </defs>
      <g transform="translate(23.564687 314.042672)scale(0.17 -0.17)">
       <use xlink:href="#DejaVuSans-48"/>
       <use x="63.623047" xlink:href="#DejaVuSans-46"/>
       <use x="95.410156" xlink:href="#DejaVuSans-48"/>
      </g>
     </g>
    </g>
    <g id="ytick_2">
     <g id="line2d_7">
      <g>
       <use style="stroke:#000000;stroke-width:0.8;" x="57.6" xlink:href="#m7acc6f6f3f" y="264.186398"/>
      </g>
     </g>
     <g id="text_8">
      <!-- 0.2 -->
      <g transform="translate(23.564687 270.64507)scale(0.17 -0.17)">
       <use xlink:href="#DejaVuSans-48"/>
       <use x="63.623047" xlink:href="#DejaVuSans-46"/>
       <use x="95.410156" xlink:href="#DejaVuSans-50"/>
      </g>
     </g>
    </g>
    <g id="ytick_3">
     <g id="line2d_8">
      <g>
       <use style="stroke:#000000;stroke-width:0.8;" x="57.6" xlink:href="#m7acc6f6f3f" y="220.788797"/>
      </g>
     </g>
     <g id="text_9">
      <!-- 0.4 -->
      <defs>
       <path d="M 37.796875 64.3125 
L 12.890625 25.390625 
L 37.796875 25.390625 
z
M 35.203125 72.90625 
L 47.609375 72.90625 
L 47.609375 25.390625 
L 58.015625 25.390625 
L 58.015625 17.1875 
L 47.609375 17.1875 
L 47.609375 0 
L 37.796875 0 
L 37.796875 17.1875 
L 4.890625 17.1875 
L 4.890625 26.703125 
z
" id="DejaVuSans-52"/>
      </defs>
      <g transform="translate(23.564687 227.247468)scale(0.17 -0.17)">
       <use xlink:href="#DejaVuSans-48"/>
       <use x="63.623047" xlink:href="#DejaVuSans-46"/>
       <use x="95.410156" xlink:href="#DejaVuSans-52"/>
      </g>
     </g>
    </g>
    <g id="ytick_4">
     <g id="line2d_9">
      <g>
       <use style="stroke:#000000;stroke-width:0.8;" x="57.6" xlink:href="#m7acc6f6f3f" y="177.391195"/>
      </g>
     </g>
     <g id="text_10">
      <!-- 0.6 -->
      <defs>
       <path d="M 33.015625 40.375 
Q 26.375 40.375 22.484375 35.828125 
Q 18.609375 31.296875 18.609375 23.390625 
Q 18.609375 15.53125 22.484375 10.953125 
Q 26.375 6.390625 33.015625 6.390625 
Q 39.65625 6.390625 43.53125 10.953125 
Q 47.40625 15.53125 47.40625 23.390625 
Q 47.40625 31.296875 43.53125 35.828125 
Q 39.65625 40.375 33.015625 40.375 
z
M 52.59375 71.296875 
L 52.59375 62.3125 
Q 48.875 64.0625 45.09375 64.984375 
Q 41.3125 65.921875 37.59375 65.921875 
Q 27.828125 65.921875 22.671875 59.328125 
Q 17.53125 52.734375 16.796875 39.40625 
Q 19.671875 43.65625 24.015625 45.921875 
Q 28.375 48.1875 33.59375 48.1875 
Q 44.578125 48.1875 50.953125 41.515625 
Q 57.328125 34.859375 57.328125 23.390625 
Q 57.328125 12.15625 50.6875 5.359375 
Q 44.046875 -1.421875 33.015625 -1.421875 
Q 20.359375 -1.421875 13.671875 8.265625 
Q 6.984375 17.96875 6.984375 36.375 
Q 6.984375 53.65625 15.1875 63.9375 
Q 23.390625 74.21875 37.203125 74.21875 
Q 40.921875 74.21875 44.703125 73.484375 
Q 48.484375 72.75 52.59375 71.296875 
z
" id="DejaVuSans-54"/>
      </defs>
      <g transform="translate(23.564687 183.849867)scale(0.17 -0.17)">
       <use xlink:href="#DejaVuSans-48"/>
       <use x="63.623047" xlink:href="#DejaVuSans-46"/>
       <use x="95.410156" xlink:href="#DejaVuSans-54"/>
      </g>
     </g>
    </g>
    <g id="ytick_5">
     <g id="line2d_10">
      <g>
       <use style="stroke:#000000;stroke-width:0.8;" x="57.6" xlink:href="#m7acc6f6f3f" y="133.993593"/>
      </g>
     </g>
     <g id="text_11">
      <!-- 0.8 -->
      <defs>
       <path d="M 31.78125 34.625 
Q 24.75 34.625 20.71875 30.859375 
Q 16.703125 27.09375 16.703125 20.515625 
Q 16.703125 13.921875 20.71875 10.15625 
Q 24.75 6.390625 31.78125 6.390625 
Q 38.8125 6.390625 42.859375 10.171875 
Q 46.921875 13.96875 46.921875 20.515625 
Q 46.921875 27.09375 42.890625 30.859375 
Q 38.875 34.625 31.78125 34.625 
z
M 21.921875 38.8125 
Q 15.578125 40.375 12.03125 44.71875 
Q 8.5 49.078125 8.5 55.328125 
Q 8.5 64.0625 14.71875 69.140625 
Q 20.953125 74.21875 31.78125 74.21875 
Q 42.671875 74.21875 48.875 69.140625 
Q 55.078125 64.0625 55.078125 55.328125 
Q 55.078125 49.078125 51.53125 44.71875 
Q 48 40.375 41.703125 38.8125 
Q 48.828125 37.15625 52.796875 32.3125 
Q 56.78125 27.484375 56.78125 20.515625 
Q 56.78125 9.90625 50.3125 4.234375 
Q 43.84375 -1.421875 31.78125 -1.421875 
Q 19.734375 -1.421875 13.25 4.234375 
Q 6.78125 9.90625 6.78125 20.515625 
Q 6.78125 27.484375 10.78125 32.3125 
Q 14.796875 37.15625 21.921875 38.8125 
z
M 18.3125 54.390625 
Q 18.3125 48.734375 21.84375 45.5625 
Q 25.390625 42.390625 31.78125 42.390625 
Q 38.140625 42.390625 41.71875 45.5625 
Q 45.3125 48.734375 45.3125 54.390625 
Q 45.3125 60.0625 41.71875 63.234375 
Q 38.140625 66.40625 31.78125 66.40625 
Q 25.390625 66.40625 21.84375 63.234375 
Q 18.3125 60.0625 18.3125 54.390625 
z
" id="DejaVuSans-56"/>
      </defs>
      <g transform="translate(23.564687 140.452265)scale(0.17 -0.17)">
       <use xlink:href="#DejaVuSans-48"/>
       <use x="63.623047" xlink:href="#DejaVuSans-46"/>
       <use x="95.410156" xlink:href="#DejaVuSans-56"/>
      </g>
     </g>
    </g>
    <g id="ytick_6">
     <g id="line2d_11">
      <g>
       <use style="stroke:#000000;stroke-width:0.8;" x="57.6" xlink:href="#m7acc6f6f3f" y="90.595991"/>
      </g>
     </g>
     <g id="text_12">
      <!-- 1.0 -->
      <g transform="translate(23.564687 97.054663)scale(0.17 -0.17)">
       <use xlink:href="#DejaVuSans-49"/>
       <use x="63.623047" xlink:href="#DejaVuSans-46"/>
       <use x="95.410156" xlink:href="#DejaVuSans-48"/>
      </g>
     </g>
    </g>
    <g id="ytick_7">
     <g id="line2d_12">
      <g>
       <use style="stroke:#000000;stroke-width:0.8;" x="57.6" xlink:href="#m7acc6f6f3f" y="47.19839"/>
      </g>
     </g>
     <g id="text_13">
      <!-- 1.2 -->
      <g transform="translate(23.564687 53.657062)scale(0.17 -0.17)">
       <use xlink:href="#DejaVuSans-49"/>
       <use x="63.623047" xlink:href="#DejaVuSans-46"/>
       <use x="95.410156" xlink:href="#DejaVuSans-50"/>
      </g>
     </g>
    </g>
    <g id="text_14">
     <!-- Density -->
     <defs>
      <path d="M 19.671875 64.796875 
L 19.671875 8.109375 
L 31.59375 8.109375 
Q 46.6875 8.109375 53.6875 14.9375 
Q 60.6875 21.78125 60.6875 36.53125 
Q 60.6875 51.171875 53.6875 57.984375 
Q 46.6875 64.796875 31.59375 64.796875 
z
M 9.8125 72.90625 
L 30.078125 72.90625 
Q 51.265625 72.90625 61.171875 64.09375 
Q 71.09375 55.28125 71.09375 36.53125 
Q 71.09375 17.671875 61.125 8.828125 
Q 51.171875 0 30.078125 0 
L 9.8125 0 
z
" id="DejaVuSans-68"/>
      <path d="M 56.203125 29.59375 
L 56.203125 25.203125 
L 14.890625 25.203125 
Q 15.484375 15.921875 20.484375 11.0625 
Q 25.484375 6.203125 34.421875 6.203125 
Q 39.59375 6.203125 44.453125 7.46875 
Q 49.3125 8.734375 54.109375 11.28125 
L 54.109375 2.78125 
Q 49.265625 0.734375 44.1875 -0.34375 
Q 39.109375 -1.421875 33.890625 -1.421875 
Q 20.796875 -1.421875 13.15625 6.1875 
Q 5.515625 13.8125 5.515625 26.8125 
Q 5.515625 40.234375 12.765625 48.109375 
Q 20.015625 56 32.328125 56 
Q 43.359375 56 49.78125 48.890625 
Q 56.203125 41.796875 56.203125 29.59375 
z
M 47.21875 32.234375 
Q 47.125 39.59375 43.09375 43.984375 
Q 39.0625 48.390625 32.421875 48.390625 
Q 24.90625 48.390625 20.390625 44.140625 
Q 15.875 39.890625 15.1875 32.171875 
z
" id="DejaVuSans-101"/>
      <path d="M 32.171875 -5.078125 
Q 28.375 -14.84375 24.75 -17.8125 
Q 21.140625 -20.796875 15.09375 -20.796875 
L 7.90625 -20.796875 
L 7.90625 -13.28125 
L 13.1875 -13.28125 
Q 16.890625 -13.28125 18.9375 -11.515625 
Q 21 -9.765625 23.484375 -3.21875 
L 25.09375 0.875 
L 2.984375 54.6875 
L 12.5 54.6875 
L 29.59375 11.921875 
L 46.6875 54.6875 
L 56.203125 54.6875 
z
" id="DejaVuSans-121"/>
     </defs>
     <g transform="translate(13.325625 231.553781)rotate(-90)scale(0.3 -0.3)">
      <use xlink:href="#DejaVuSans-68"/>
      <use x="77.001953" xlink:href="#DejaVuSans-101"/>
      <use x="138.525391" xlink:href="#DejaVuSans-110"/>
      <use x="201.904297" xlink:href="#DejaVuSans-115"/>
      <use x="254.003906" xlink:href="#DejaVuSans-105"/>
      <use x="281.787109" xlink:href="#DejaVuSans-116"/>
      <use x="320.996094" xlink:href="#DejaVuSans-121"/>
     </g>
    </g>
   </g>
   <g id="line2d_13">
    <path clip-path="url(#p64d38dd659)" d="M 73.832727 307.584 
L 97.945346 307.482023 
L 98.205087 307.231564 
L 98.443183 306.627422 
L 98.681278 305.308869 
L 98.962664 302.239268 
L 99.330631 295.201108 
L 100.023273 281.595794 
L 100.153144 281.076245 
L 100.196434 281.114906 
L 100.304659 281.661718 
L 100.52111 284.414672 
L 101.473494 298.896197 
L 101.603364 299.127325 
L 101.646654 299.098379 
L 101.776525 298.729348 
L 102.014621 297.190384 
L 102.880424 290.94557 
L 103.031939 290.824812 
L 103.053584 290.83782 
L 103.2051 291.120143 
L 103.464841 292.213566 
L 104.503805 297.133214 
L 104.871771 297.737674 
L 105.153157 297.845648 
L 105.412898 297.714891 
L 105.759219 297.245065 
L 106.170476 296.280373 
L 106.581732 294.726163 
L 107.101214 291.723624 
L 107.620696 289.118315 
L 107.837147 288.856983 
L 107.988663 289.016522 
L 108.270049 289.798278 
L 108.681305 290.800449 
L 108.854466 290.817096 
L 109.049271 290.514421 
L 109.417238 289.3769 
L 110.304686 285.818681 
L 110.715943 284.480431 
L 110.889103 284.414523 
L 111.040619 284.673431 
L 111.30036 285.687217 
L 111.906422 288.145608 
L 112.079583 288.223754 
L 112.231098 287.987581 
L 112.469194 287.111307 
L 112.967031 284.150063 
L 113.551448 281.154818 
L 114.092575 279.635737 
L 114.958378 277.709835 
L 115.131539 277.725549 
L 115.326344 278.008254 
L 115.629376 278.923832 
L 116.75492 282.837573 
L 116.88479 282.76695 
L 117.057951 282.334382 
L 117.339337 280.852111 
L 118.16185 275.971563 
L 118.356656 275.82055 
L 118.508171 276.013475 
L 118.767912 276.791957 
L 120.196487 281.802592 
L 120.434583 281.880709 
L 120.651034 281.699029 
L 120.997355 281.032428 
L 121.430257 280.290191 
L 121.581772 280.327714 
L 121.754933 280.674281 
L 122.014674 281.813455 
L 122.599091 285.794682 
L 123.075283 288.234434 
L 123.335024 288.682379 
L 123.486539 288.619829 
L 123.681345 288.226269 
L 124.049311 286.829593 
L 124.93676 283.344413 
L 125.283081 282.792279 
L 125.521177 282.75623 
L 125.824208 282.978271 
L 126.603431 283.594303 
L 126.993042 283.674193 
L 127.231138 283.487265 
L 127.490879 282.940819 
L 129.222485 277.664865 
L 130.131579 273.342351 
L 130.737641 271.562061 
L 131.040672 269.573257 
L 131.430283 265.334707 
L 132.231151 256.23566 
L 132.447602 255.696903 
L 132.555828 255.798763 
L 132.772278 256.464405 
L 133.140245 257.501392 
L 133.24847 257.471865 
L 133.399986 257.066095 
L 133.638082 255.619763 
L 134.785271 247.364032 
L 135.629429 244.719378 
L 136.213846 242.273542 
L 136.322071 242.321478 
L 136.451942 242.771933 
L 136.668393 244.576552 
L 137.014714 249.794031 
L 137.772292 261.438288 
L 138.183548 264.385507 
L 139.352383 269.88156 
L 139.482253 269.929693 
L 139.503898 269.905774 
L 139.633769 269.555147 
L 139.850219 268.186161 
L 140.283121 263.514148 
L 140.802603 258.668506 
L 141.105634 257.550487 
L 141.278795 257.494603 
L 141.43031 257.755167 
L 141.690051 258.768225 
L 142.772305 263.873134 
L 142.79395 263.861716 
L 142.923821 263.623137 
L 143.118626 262.702831 
L 143.421657 260.002614 
L 143.962784 252.692381 
L 145.088329 237.536455 
L 145.326424 236.536941 
L 145.413005 236.635836 
L 145.56452 237.462393 
L 145.802616 240.371453 
L 146.257163 249.496897 
L 146.88487 260.943124 
L 147.166256 262.969899 
L 147.274482 263.106241 
L 147.317772 263.064824 
L 147.447642 262.636714 
L 147.685738 260.878972 
L 149.69873 242.702195 
L 150.326438 237.935679 
L 150.564534 237.360702 
L 150.716049 237.406902 
L 151.192241 237.971966 
L 151.257176 237.892406 
L 151.430337 237.316154 
L 151.690078 235.460607 
L 152.534236 228.632641 
L 152.642461 228.560776 
L 152.664106 228.579776 
L 152.793977 228.925008 
L 153.010428 230.297177 
L 153.832941 236.449222 
L 153.941166 236.367391 
L 154.114327 235.720104 
L 154.677099 233.14515 
L 154.698744 233.155614 
L 154.806969 233.427109 
L 154.98013 234.673854 
L 155.261516 238.73297 
L 156.51693 260.022798 
L 156.798316 261.10436 
L 156.971477 261.204523 
L 157.144638 260.99519 
L 157.447669 260.136907 
L 158.118666 258.136457 
L 158.335117 258.019371 
L 158.573213 258.182152 
L 159.265856 258.764282 
L 159.568887 259.06322 
L 160.261529 260.138301 
L 160.326464 260.065697 
L 160.499625 259.537868 
L 160.759366 257.803777 
L 161.603524 251.421734 
L 161.776685 251.2986 
L 161.949845 251.510608 
L 162.339457 252.027827 
L 162.469327 251.886835 
L 162.642488 251.290031 
L 162.923874 249.318799 
L 163.616516 244.118893 
L 163.681452 244.098396 
L 163.724742 244.15903 
L 163.854612 244.708992 
L 164.071063 246.794871 
L 165.088382 258.681083 
L 165.174962 258.608751 
L 165.326478 258.030327 
L 165.694444 255.375351 
L 166.06241 253.3609 
L 166.257216 253.144392 
L 166.387087 253.318673 
L 166.646828 254.18277 
L 167.729082 258.245636 
L 167.988823 258.531078 
L 168.140338 258.413184 
L 168.356789 257.87921 
L 169.071076 255.868833 
L 169.200947 255.979548 
L 169.417398 256.581687 
L 170.218266 259.268768 
L 170.369781 259.178237 
L 170.607877 258.664737 
L 171.019134 257.837303 
L 171.170649 257.891833 
L 171.365455 258.327107 
L 172.058097 260.339755 
L 172.079743 260.330215 
L 172.209613 260.107965 
L 172.404419 259.222673 
L 172.70745 256.6283 
L 173.789704 246.195267 
L 173.876284 246.174672 
L 173.897929 246.200538 
L 174.0278 246.616721 
L 174.24425 248.253123 
L 174.633862 253.317123 
L 175.261569 261.000408 
L 175.52131 262.06544 
L 175.629536 262.046046 
L 175.759406 261.676023 
L 175.997502 260.112874 
L 176.430403 255.319433 
L 176.993176 249.689637 
L 177.252916 248.762824 
L 177.382787 248.775578 
L 177.534303 249.157307 
L 177.794043 250.55009 
L 178.594911 255.300982 
L 178.703137 255.266608 
L 178.833007 254.855835 
L 179.049458 253.303874 
L 179.828681 246.736728 
L 179.915261 246.88561 
L 180.066777 247.758556 
L 180.391453 251.376984 
L 180.80271 255.247127 
L 180.93258 255.531404 
L 180.97587 255.503433 
L 181.084096 255.171194 
L 181.300546 253.50287 
L 181.690158 248.29599 
L 182.3828 239.247208 
L 182.620896 238.355752 
L 182.707476 238.465894 
L 182.858992 239.203213 
L 183.140378 242.001038 
L 183.74644 248.002615 
L 183.897956 248.306567 
L 183.919601 248.299791 
L 184.027826 248.090321 
L 184.244277 246.948937 
L 185.15337 241.299554 
L 185.737788 239.278431 
L 186.149044 236.485578 
L 186.798396 232.255768 
L 187.036492 231.792878 
L 187.166363 231.89538 
L 187.339523 232.42524 
L 187.62091 234.127562 
L 188.378487 240.788781 
L 188.811389 243.338211 
L 189.07113 243.868117 
L 189.222645 243.826917 
L 189.417451 243.443046 
L 189.763772 242.112852 
L 190.326544 240.022082 
L 190.52135 239.893137 
L 190.672866 240.093723 
L 190.910962 240.890041 
L 191.820055 244.530991 
L 191.8417 244.524304 
L 191.97157 244.323442 
L 192.188021 243.394798 
L 193.07547 238.388454 
L 193.11876 238.422985 
L 193.24863 238.770875 
L 193.486726 240.207571 
L 194.179369 244.740094 
L 194.374174 244.937259 
L 194.52569 244.756553 
L 194.785431 243.956383 
L 195.131752 242.060503 
L 195.543009 238.345675 
L 196.278941 231.621869 
L 196.473747 231.210238 
L 196.581972 231.360983 
L 196.755133 232.194987 
L 197.014874 234.79128 
L 197.447776 241.906691 
L 198.226998 254.574078 
L 198.594965 257.304607 
L 199.633929 262.822607 
L 200.06683 265.137052 
L 200.239991 265.340822 
L 200.261636 265.33181 
L 200.391506 265.125367 
L 200.629602 264.18941 
L 201.452115 260.523748 
L 201.690211 260.335128 
L 201.863372 260.461463 
L 202.101468 260.990539 
L 202.382854 262.234169 
L 202.79411 265.295451 
L 203.400172 269.576044 
L 203.616623 269.978548 
L 203.746494 269.888287 
L 203.962944 269.33466 
L 204.742167 267.067935 
L 204.980263 266.98833 
L 205.326584 267.194546 
L 205.56468 267.223655 
L 205.737841 266.999406 
L 205.954292 266.284824 
L 206.278968 264.305614 
L 206.863385 260.780957 
L 207.014901 260.643366 
L 207.036546 260.661859 
L 207.166416 260.971542 
L 207.404512 262.307753 
L 208.24867 267.780701 
L 208.530056 268.200709 
L 208.919668 268.64982 
L 209.222699 269.520077 
L 209.828761 271.325718 
L 209.958631 271.260207 
L 210.110147 270.797292 
L 210.326598 269.297659 
L 210.651274 265.221271 
L 211.776818 249.317269 
L 211.993269 248.799446 
L 212.101494 248.979003 
L 212.2963 249.969414 
L 212.642621 253.28089 
L 213.638295 263.474583 
L 213.941326 264.579105 
L 214.092842 264.635752 
L 214.244357 264.406087 
L 214.525743 263.452102 
L 215.261676 259.881336 
L 215.651287 256.858193 
L 216.105834 251.255007 
L 216.755186 243.620042 
L 216.993282 242.770216 
L 217.079863 242.819922 
L 217.231378 243.350371 
L 217.491119 245.369396 
L 218.595018 255.419572 
L 218.768179 255.585145 
L 218.898049 255.416028 
L 219.1145 254.682173 
L 219.504111 252.412067 
L 220.218399 246.701999 
L 220.867751 239.836051 
L 221.473814 233.700978 
L 221.625329 233.364187 
L 221.646974 233.382594 
L 221.7552 233.746655 
L 221.92836 235.29855 
L 222.231391 240.53611 
L 223.053904 255.803502 
L 223.292 256.914151 
L 223.378581 256.919267 
L 223.400226 256.892755 
L 223.551741 256.450703 
L 223.876417 254.59552 
L 225.218412 245.033893 
L 226.01928 237.146193 
L 226.971664 226.96531 
L 227.058244 226.907516 
L 227.079889 226.934861 
L 227.188115 227.330683 
L 227.38292 229.118314 
L 227.729242 234.920311 
L 228.313659 244.146849 
L 228.508464 244.927491 
L 228.53011 244.923702 
L 228.61669 244.735282 
L 228.78985 243.611042 
L 229.157817 239.200145 
L 229.655654 234.008614 
L 229.915395 233.088008 
L 230.1102 233.003261 
L 230.348296 232.963845 
L 230.499812 232.613443 
L 230.694617 231.435983 
L 230.954358 228.280782 
L 231.993322 213.120664 
L 232.014967 213.139833 
L 232.123193 213.547165 
L 232.317998 215.466794 
L 232.7509 222.828631 
L 233.227092 229.473125 
L 233.508478 230.979621 
L 233.681638 231.140307 
L 233.811509 230.955819 
L 234.006315 230.169939 
L 234.222765 228.216272 
L 234.460861 223.552459 
L 234.720602 212.878617 
L 235.001988 190.836909 
L 235.3916 139.244188 
L 236.019307 57.761947 
L 236.149177 54.144 
L 236.192468 54.441471 
L 236.300693 58.455792 
L 236.495499 76.274506 
L 236.993336 151.405458 
L 237.447882 202.590977 
L 237.794203 219.999907 
L 238.11888 226.708518 
L 238.400266 228.895952 
L 238.530136 229.122083 
L 238.573426 229.09495 
L 238.703297 228.706401 
L 238.898103 227.244958 
L 239.179489 223.19762 
L 239.590745 213.414473 
L 240.196807 199.620683 
L 240.348323 198.796213 
L 240.369968 198.799898 
L 240.456548 199.114299 
L 240.629709 201.065129 
L 240.97603 208.499876 
L 241.950059 230.087398 
L 242.361315 235.158394 
L 242.642701 236.514792 
L 243.292054 238.273977 
L 243.638375 241.055357 
L 244.244437 245.76858 
L 244.547468 246.600499 
L 244.763919 246.68864 
L 245.002015 246.516428 
L 245.651367 245.930924 
L 245.802883 246.142605 
L 245.997689 246.86627 
L 246.279075 248.962906 
L 247.426264 259.146382 
L 247.556134 259.139902 
L 247.729295 258.776688 
L 248.162197 257.108475 
L 248.789904 254.123378 
L 249.266096 250.297433 
L 249.915448 245.483645 
L 250.261769 244.326506 
L 250.52151 244.061336 
L 250.716316 244.124656 
L 250.976057 244.497697 
L 251.300733 245.400862 
L 251.75528 247.40836 
L 252.534503 252.001893 
L 253.11892 255.081042 
L 253.313725 255.297425 
L 253.443596 255.061176 
L 253.638402 254.071837 
L 253.941433 251.084388 
L 255.066977 238.40096 
L 255.283428 238.034138 
L 255.413298 238.158431 
L 255.608104 238.782032 
L 255.88949 240.603331 
L 256.322391 245.245635 
L 256.798583 249.624622 
L 256.950099 249.906976 
L 256.971744 249.888633 
L 257.079969 249.576108 
L 257.274775 248.16333 
L 257.750967 242.348955 
L 258.140578 238.894172 
L 258.335384 238.433441 
L 258.443609 238.568041 
L 258.61677 239.29521 
L 258.963091 242.000092 
L 260.413311 256.114102 
L 261.25747 267.026995 
L 261.690371 269.752486 
L 262.015047 270.662902 
L 262.209853 270.752099 
L 262.383014 270.559451 
L 262.642755 269.859729 
L 263.032366 268.063619 
L 263.854879 263.972918 
L 263.98475 263.963308 
L 264.136265 264.309666 
L 264.417651 265.724772 
L 264.893843 267.968466 
L 265.067003 268.102438 
L 265.240164 267.894808 
L 265.629776 267.405921 
L 265.759646 267.601799 
L 265.976097 268.491902 
L 266.690384 271.917097 
L 266.79861 271.809586 
L 266.97177 271.198997 
L 267.426317 268.374124 
L 267.729348 267.202751 
L 267.837574 267.157381 
L 267.859219 267.175268 
L 267.989089 267.472778 
L 268.20554 268.643842 
L 268.703377 273.054218 
L 269.071343 275.293155 
L 269.201214 275.435156 
L 269.222859 275.419811 
L 269.352729 275.093593 
L 269.56918 273.745924 
L 270.348403 268.160566 
L 270.434983 268.268541 
L 270.586499 268.97652 
L 270.867885 271.676093 
L 271.473947 277.546047 
L 271.690398 278.003067 
L 271.820268 277.850862 
L 272.080009 276.997448 
L 272.945812 273.110107 
L 273.292134 269.813649 
L 274.417678 257.867639 
L 274.634129 257.450044 
L 274.742354 257.581903 
L 274.915515 258.269875 
L 275.196901 260.534938 
L 275.781318 267.722478 
L 276.365735 273.758073 
L 276.755346 275.803268 
L 276.993442 276.193622 
L 277.123313 276.125731 
L 277.318118 275.666888 
L 277.642795 274.141286 
L 278.595178 269.329119 
L 279.049725 268.165666 
L 279.24453 268.083157 
L 279.396046 268.306951 
L 279.612497 269.125638 
L 280.002108 271.735801 
L 280.543235 275.035484 
L 280.759686 275.425792 
L 280.867911 275.341438 
L 281.041072 274.780198 
L 281.279168 273.112039 
L 281.668779 268.437786 
L 282.296487 261.166142 
L 282.491292 260.668789 
L 282.577873 260.819693 
L 282.751033 261.764503 
L 283.054064 265.004137 
L 284.460995 282.088753 
L 284.828961 283.661409 
L 285.088702 284.027477 
L 285.240217 283.973578 
L 285.413378 283.60465 
L 285.629829 282.523939 
L 285.911215 279.824919 
L 286.387407 272.490425 
L 286.928534 265.205954 
L 287.231565 263.626636 
L 287.491306 263.269147 
L 287.815982 262.906281 
L 288.400399 261.896268 
L 288.443689 261.93347 
L 288.595205 262.315578 
L 288.833301 263.759032 
L 289.266202 268.265145 
L 289.850619 273.781166 
L 290.15365 274.952464 
L 290.305166 275.02239 
L 290.456682 274.764183 
L 290.716423 273.69049 
L 291.43071 270.409003 
L 291.582226 270.375692 
L 291.733741 270.643677 
L 292.036772 271.802448 
L 292.577899 273.810721 
L 292.79435 273.980937 
L 292.945866 273.816937 
L 293.162317 273.181523 
L 293.486993 271.384644 
L 294.02812 266.784407 
L 294.461021 263.844496 
L 294.655827 263.486751 
L 294.764052 263.610391 
L 294.937213 264.258043 
L 295.261889 266.535615 
L 295.911242 270.961524 
L 296.214273 271.704473 
L 296.495659 271.875728 
L 296.88527 271.836377 
L 297.101721 271.576723 
L 297.318172 270.908859 
L 297.599558 269.228684 
L 298.746747 261.233506 
L 298.919908 261.148428 
L 299.071423 261.336818 
L 299.331164 262.107006 
L 299.807356 264.399876 
L 300.608224 269.414594 
L 301.279221 273.292552 
L 301.820348 274.888183 
L 302.123379 276.284954 
L 303.140698 281.96074 
L 303.162343 281.954193 
L 303.292214 281.758898 
L 303.508664 280.910714 
L 303.898276 278.269197 
L 304.98053 270.458705 
L 305.175336 270.199192 
L 305.305206 270.349513 
L 305.500012 271.033241 
L 305.846333 273.250912 
L 306.47404 277.133195 
L 306.668846 277.412617 
L 306.798717 277.26552 
L 307.015167 276.496521 
L 307.491359 273.628404 
L 308.097421 270.538751 
L 308.876644 266.736035 
L 309.309546 265.041668 
L 309.504351 264.885558 
L 309.655867 265.072025 
L 309.915608 265.890747 
L 311.214313 271.627773 
L 312.361502 276.260139 
L 312.729468 277.269181 
L 312.880984 277.253524 
L 313.032499 276.903167 
L 313.29224 275.607394 
L 313.898303 272.44523 
L 314.006528 272.400483 
L 314.028173 272.419998 
L 314.158044 272.737188 
L 314.396139 274.120465 
L 315.326878 280.582551 
L 315.435103 280.59441 
L 315.456748 280.569981 
L 315.608264 280.156467 
L 315.868005 278.581045 
L 316.842033 271.707996 
L 316.971904 271.69082 
L 317.123419 271.994484 
L 317.513031 273.540866 
L 317.794417 274.162055 
L 317.902642 274.077491 
L 318.075803 273.498423 
L 318.357189 271.555678 
L 319.028186 266.710137 
L 319.222992 266.426919 
L 319.352863 266.572722 
L 319.590958 267.338773 
L 320.564987 270.927744 
L 321.3875 272.997633 
L 321.51737 272.895542 
L 321.690531 272.32509 
L 321.928627 270.625265 
L 322.339884 265.660002 
L 322.902656 259.479505 
L 323.119106 258.867515 
L 323.205687 258.97181 
L 323.378847 259.711098 
L 323.746814 262.678299 
L 324.15807 265.340044 
L 324.309586 265.541367 
L 324.331231 265.52786 
L 324.461101 265.225037 
L 324.677552 263.943593 
L 325.110454 259.591734 
L 325.651581 254.774789 
L 325.932967 253.842442 
L 326.062837 253.846034 
L 326.214353 254.163206 
L 326.495739 255.395876 
L 327.145091 258.268242 
L 327.469767 258.751389 
L 327.772798 258.836559 
L 328.357216 258.887015 
L 328.552021 259.350755 
L 328.790117 260.645303 
L 329.158084 264.205356 
L 329.720856 269.410798 
L 329.937306 269.978185 
L 330.045532 269.910244 
L 330.218692 269.414544 
L 330.651594 267.211291 
L 331.690558 261.189135 
L 332.16675 255.283525 
L 332.621296 250.721854 
L 332.837747 250.218502 
L 332.945972 250.368408 
L 333.184068 251.26053 
L 333.61697 252.705236 
L 333.79013 252.73588 
L 333.984936 252.434986 
L 334.677579 251.132199 
L 334.829094 251.203393 
L 335.0239 251.607992 
L 335.283641 252.742692 
L 335.759833 256.123479 
L 336.171089 258.469419 
L 336.322605 258.644308 
L 336.34425 258.627401 
L 336.47412 258.289494 
L 336.690571 256.823574 
L 337.058537 252.358473 
L 337.62131 246.017707 
L 337.816115 245.451878 
L 337.902696 245.561002 
L 338.054211 246.254587 
L 338.357242 249.048239 
L 338.941659 254.396092 
L 339.179755 255.050392 
L 339.309626 255.018381 
L 339.482786 254.6512 
L 339.785817 253.38423 
L 340.197074 250.622689 
L 341.430844 241.221149 
L 341.733875 240.904557 
L 341.950325 240.559633 
L 342.166776 239.723179 
L 342.491452 237.373099 
L 343.573706 228.586081 
L 343.811802 228.236486 
L 344.028253 228.31697 
L 344.287994 228.368681 
L 344.461155 228.121215 
L 344.720896 227.259012 
L 345.240377 225.545603 
L 345.413538 225.50597 
L 345.608344 225.765603 
L 345.97631 226.242976 
L 346.106181 226.113955 
L 346.279341 225.553947 
L 346.582372 223.594319 
L 347.29666 218.778427 
L 348.487139 214.710192 
L 348.61701 214.736571 
L 348.768525 215.114106 
L 349.136492 216.909836 
L 349.439523 217.824838 
L 349.569393 217.767139 
L 349.742554 217.286943 
L 351.041259 211.81446 
L 351.365935 207.628463 
L 351.950352 200.03599 
L 352.080223 199.725913 
L 352.101868 199.749596 
L 352.210093 200.204302 
L 352.404899 202.413403 
L 352.729575 209.315753 
L 353.552088 227.661131 
L 353.768539 228.849527 
L 353.833474 228.784671 
L 353.963344 228.098204 
L 354.20144 225.213232 
L 355.088889 212.838308 
L 355.197114 212.655647 
L 355.240404 212.688961 
L 355.370275 213.128295 
L 355.60837 215.029138 
L 356.560754 223.860611 
L 356.690624 223.932103 
L 356.71227 223.911934 
L 356.863785 223.553426 
L 357.210106 221.904916 
L 357.643008 220.21462 
L 357.859459 220.024639 
L 358.010974 220.177235 
L 358.227425 220.785006 
L 358.530456 222.417541 
L 358.920068 225.917239 
L 360.283708 239.553221 
L 360.759899 244.678041 
L 361.430897 251.868604 
L 361.668993 252.646971 
L 361.777218 252.61978 
L 361.928734 252.25518 
L 362.275055 250.635593 
L 362.686311 249.051508 
L 362.881117 248.915164 
L 363.032633 249.150852 
L 363.270729 250.096984 
L 363.725275 253.146174 
L 364.288047 256.436151 
L 364.98069 258.768855 
L 366.322685 263.956897 
L 367.123553 268.265006 
L 367.534809 272.013896 
L 368.746934 284.249684 
L 369.24477 286.898879 
L 369.482866 287.308184 
L 369.612737 287.190751 
L 369.807543 286.580883 
L 370.716636 283.065536 
L 371.062957 282.728188 
L 371.257763 281.956131 
L 371.517504 279.817466 
L 372.058631 275.154097 
L 372.101921 275.135474 
L 372.145211 275.207901 
L 372.275082 276.009951 
L 372.491532 279.306767 
L 372.924434 290.619121 
L 373.443916 302.293652 
L 373.790237 305.862098 
L 374.093268 307.071261 
L 374.396299 307.460838 
L 374.785911 307.569657 
L 376.344357 307.584 
L 398.487273 307.584 
L 398.487273 307.584 
" style="fill:none;stroke:#ff7f0e;stroke-linecap:square;stroke-width:1.5;"/>
   </g>
   <g id="patch_103">
    <path d="M 57.6 307.584 
L 57.6 41.472 
" style="fill:none;stroke:#000000;stroke-linecap:square;stroke-linejoin:miter;stroke-width:0.8;"/>
   </g>
   <g id="patch_104">
    <path d="M 414.72 307.584 
L 414.72 41.472 
" style="fill:none;stroke:#000000;stroke-linecap:square;stroke-linejoin:miter;stroke-width:0.8;"/>
   </g>
   <g id="patch_105">
    <path d="M 57.6 307.584 
L 414.72 307.584 
" style="fill:none;stroke:#000000;stroke-linecap:square;stroke-linejoin:miter;stroke-width:0.8;"/>
   </g>
   <g id="patch_106">
    <path d="M 57.6 41.472 
L 414.72 41.472 
" style="fill:none;stroke:#000000;stroke-linecap:square;stroke-linejoin:miter;stroke-width:0.8;"/>
   </g>
  </g>
 </g>
 <defs>
  <clipPath id="p64d38dd659">
   <rect height="266.112" width="357.12" x="57.6" y="41.472"/>
  </clipPath>
 </defs>
</svg>
