<?xml version="1.0" encoding="utf-8" standalone="no"?>
<!DOCTYPE svg PUBLIC "-//W3C//DTD SVG 1.1//EN"
  "http://www.w3.org/Graphics/SVG/1.1/DTD/svg11.dtd">
<!-- Created with matplotlib (https://matplotlib.org/) -->
<svg height="345.6pt" version="1.1" viewBox="0 0 460.8 345.6" width="460.8pt" xmlns="http://www.w3.org/2000/svg" xmlns:xlink="http://www.w3.org/1999/xlink">
 <defs>
  <style type="text/css">
*{stroke-linecap:butt;stroke-linejoin:round;}
  </style>
 </defs>
 <g id="figure_1">
  <g id="patch_1">
   <path d="M 0 345.6 
L 460.8 345.6 
L 460.8 0 
L 0 0 
z
" style="fill:#ffffff;"/>
  </g>
  <g id="axes_1">
   <g id="patch_2">
    <path d="M 57.6 307.584 
L 414.72 307.584 
L 414.72 41.472 
L 57.6 41.472 
z
" style="fill:#ffffff;"/>
   </g>
   <g id="patch_3">
    <path clip-path="url(#pc672e85bde)" d="M 73.832727 307.584 
L 77.079268 307.584 
L 77.079268 306.93141 
L 73.832727 306.93141 
z
" style="fill:#1f77b4;"/>
   </g>
   <g id="patch_4">
    <path clip-path="url(#pc672e85bde)" d="M 77.079268 307.584 
L 80.325822 307.584 
L 80.325822 306.931412 
L 77.079268 306.931412 
z
" style="fill:#1f77b4;"/>
   </g>
   <g id="patch_5">
    <path clip-path="url(#pc672e85bde)" d="M 80.325835 307.584 
L 83.572375 307.584 
L 83.572375 307.257705 
L 80.325835 307.257705 
z
" style="fill:#1f77b4;"/>
   </g>
   <g id="patch_6">
    <path clip-path="url(#pc672e85bde)" d="M 83.572362 307.584 
L 86.818903 307.584 
L 86.818903 306.93141 
L 83.572362 306.93141 
z
" style="fill:#1f77b4;"/>
   </g>
   <g id="patch_7">
    <path clip-path="url(#pc672e85bde)" d="M 86.818903 307.584 
L 90.065457 307.584 
L 90.065457 305.95253 
L 86.818903 305.95253 
z
" style="fill:#1f77b4;"/>
   </g>
   <g id="patch_8">
    <path clip-path="url(#pc672e85bde)" d="M 90.06547 307.584 
L 93.31201 307.584 
L 93.31201 306.278819 
L 90.06547 306.278819 
z
" style="fill:#1f77b4;"/>
   </g>
   <g id="patch_9">
    <path clip-path="url(#pc672e85bde)" d="M 93.311997 307.584 
L 96.558551 307.584 
L 96.558551 306.278824 
L 93.311997 306.278824 
z
" style="fill:#1f77b4;"/>
   </g>
   <g id="patch_10">
    <path clip-path="url(#pc672e85bde)" d="M 96.558551 307.584 
L 99.805091 307.584 
L 99.805091 306.93141 
L 96.558551 306.93141 
z
" style="fill:#1f77b4;"/>
   </g>
   <g id="patch_11">
    <path clip-path="url(#pc672e85bde)" d="M 99.805105 307.584 
L 103.051645 307.584 
L 103.051645 304.973638 
L 99.805105 304.973638 
z
" style="fill:#1f77b4;"/>
   </g>
   <g id="patch_12">
    <path clip-path="url(#pc672e85bde)" d="M 103.051632 307.584 
L 106.298186 307.584 
L 106.298186 306.605118 
L 103.051632 306.605118 
z
" style="fill:#1f77b4;"/>
   </g>
   <g id="patch_13">
    <path clip-path="url(#pc672e85bde)" d="M 106.298186 307.584 
L 109.544726 307.584 
L 109.544726 306.278819 
L 106.298186 306.278819 
z
" style="fill:#1f77b4;"/>
   </g>
   <g id="patch_14">
    <path clip-path="url(#pc672e85bde)" d="M 109.54474 307.584 
L 112.79128 307.584 
L 112.79128 307.584 
L 109.54474 307.584 
z
" style="fill:#1f77b4;"/>
   </g>
   <g id="patch_15">
    <path clip-path="url(#pc672e85bde)" d="M 112.791267 307.584 
L 116.037821 307.584 
L 116.037821 304.973649 
L 112.791267 304.973649 
z
" style="fill:#1f77b4;"/>
   </g>
   <g id="patch_16">
    <path clip-path="url(#pc672e85bde)" d="M 116.037821 307.584 
L 119.284361 307.584 
L 119.284361 305.299933 
L 116.037821 305.299933 
z
" style="fill:#1f77b4;"/>
   </g>
   <g id="patch_17">
    <path clip-path="url(#pc672e85bde)" d="M 119.284361 307.584 
L 122.530915 307.584 
L 122.530915 302.689591 
L 119.284361 302.689591 
z
" style="fill:#1f77b4;"/>
   </g>
   <g id="patch_18">
    <path clip-path="url(#pc672e85bde)" d="M 122.530915 307.584 
L 125.777456 307.584 
L 125.777456 303.668457 
L 122.530915 303.668457 
z
" style="fill:#1f77b4;"/>
   </g>
   <g id="patch_19">
    <path clip-path="url(#pc672e85bde)" d="M 125.777456 307.584 
L 129.024003 307.584 
L 129.024003 303.015876 
L 125.777456 303.015876 
z
" style="fill:#1f77b4;"/>
   </g>
   <g id="patch_20">
    <path clip-path="url(#pc672e85bde)" d="M 129.024003 307.584 
L 132.270543 307.584 
L 132.270543 299.426619 
L 129.024003 299.426619 
z
" style="fill:#1f77b4;"/>
   </g>
   <g id="patch_21">
    <path clip-path="url(#pc672e85bde)" d="M 132.270537 307.584 
L 135.517084 307.584 
L 135.517084 300.731814 
L 132.270537 300.731814 
z
" style="fill:#1f77b4;"/>
   </g>
   <g id="patch_22">
    <path clip-path="url(#pc672e85bde)" d="M 135.517091 307.584 
L 138.763638 307.584 
L 138.763638 294.532217 
L 135.517091 294.532217 
z
" style="fill:#1f77b4;"/>
   </g>
   <g id="patch_23">
    <path clip-path="url(#pc672e85bde)" d="M 138.763631 307.584 
L 142.010178 307.584 
L 142.010178 295.837395 
L 138.763631 295.837395 
z
" style="fill:#1f77b4;"/>
   </g>
   <g id="patch_24">
    <path clip-path="url(#pc672e85bde)" d="M 142.010185 307.584 
L 145.256725 307.584 
L 145.256725 295.511076 
L 142.010185 295.511076 
z
" style="fill:#1f77b4;"/>
   </g>
   <g id="patch_25">
    <path clip-path="url(#pc672e85bde)" d="M 145.256725 307.584 
L 148.503273 307.584 
L 148.503273 288.006325 
L 145.256725 288.006325 
z
" style="fill:#1f77b4;"/>
   </g>
   <g id="patch_26">
    <path clip-path="url(#pc672e85bde)" d="M 148.503266 307.584 
L 151.749813 307.584 
L 151.749813 286.701146 
L 148.503266 286.701146 
z
" style="fill:#1f77b4;"/>
   </g>
   <g id="patch_27">
    <path clip-path="url(#pc672e85bde)" d="M 151.74982 307.584 
L 154.99636 307.584 
L 154.99636 285.722218 
L 151.74982 285.722218 
z
" style="fill:#1f77b4;"/>
   </g>
   <g id="patch_28">
    <path clip-path="url(#pc672e85bde)" d="M 154.99636 307.584 
L 158.242908 307.584 
L 158.242908 287.68003 
L 154.99636 287.68003 
z
" style="fill:#1f77b4;"/>
   </g>
   <g id="patch_29">
    <path clip-path="url(#pc672e85bde)" d="M 158.242901 307.584 
L 161.489448 307.584 
L 161.489448 294.205922 
L 158.242901 294.205922 
z
" style="fill:#1f77b4;"/>
   </g>
   <g id="patch_30">
    <path clip-path="url(#pc672e85bde)" d="M 161.489455 307.584 
L 164.736002 307.584 
L 164.736002 287.68003 
L 161.489455 287.68003 
z
" style="fill:#1f77b4;"/>
   </g>
   <g id="patch_31">
    <path clip-path="url(#pc672e85bde)" d="M 164.736002 307.584 
L 167.982542 307.584 
L 167.982542 287.027399 
L 164.736002 287.027399 
z
" style="fill:#1f77b4;"/>
   </g>
   <g id="patch_32">
    <path clip-path="url(#pc672e85bde)" d="M 167.982536 307.584 
L 171.229083 307.584 
L 171.229083 284.417084 
L 167.982536 284.417084 
z
" style="fill:#1f77b4;"/>
   </g>
   <g id="patch_33">
    <path clip-path="url(#pc672e85bde)" d="M 171.22909 307.584 
L 174.475637 307.584 
L 174.475637 277.238603 
L 171.22909 277.238603 
z
" style="fill:#1f77b4;"/>
   </g>
   <g id="patch_34">
    <path clip-path="url(#pc672e85bde)" d="M 174.47563 307.584 
L 177.722177 307.584 
L 177.722177 277.238603 
L 174.47563 277.238603 
z
" style="fill:#1f77b4;"/>
   </g>
   <g id="patch_35">
    <path clip-path="url(#pc672e85bde)" d="M 177.722184 307.584 
L 180.968728 307.584 
L 180.968728 272.344149 
L 177.722184 272.344149 
z
" style="fill:#1f77b4;"/>
   </g>
   <g id="patch_36">
    <path clip-path="url(#pc672e85bde)" d="M 180.968731 307.584 
L 184.215275 307.584 
L 184.215275 278.543752 
L 180.968731 278.543752 
z
" style="fill:#1f77b4;"/>
   </g>
   <g id="patch_37">
    <path clip-path="url(#pc672e85bde)" d="M 184.215272 307.584 
L 187.461819 307.584 
L 187.461819 278.217487 
L 184.215272 278.217487 
z
" style="fill:#1f77b4;"/>
   </g>
   <g id="patch_38">
    <path clip-path="url(#pc672e85bde)" d="M 187.461819 307.584 
L 190.708363 307.584 
L 190.708363 269.407495 
L 187.461819 269.407495 
z
" style="fill:#1f77b4;"/>
   </g>
   <g id="patch_39">
    <path clip-path="url(#pc672e85bde)" d="M 190.708363 307.584 
L 193.95491 307.584 
L 193.95491 270.386417 
L 190.708363 270.386417 
z
" style="fill:#1f77b4;"/>
   </g>
   <g id="patch_40">
    <path clip-path="url(#pc672e85bde)" d="M 193.954913 307.584 
L 197.201457 307.584 
L 197.201457 274.628213 
L 193.954913 274.628213 
z
" style="fill:#1f77b4;"/>
   </g>
   <g id="patch_41">
    <path clip-path="url(#pc672e85bde)" d="M 197.201454 307.584 
L 200.448001 307.584 
L 200.448001 272.01789 
L 197.201454 272.01789 
z
" style="fill:#1f77b4;"/>
   </g>
   <g id="patch_42">
    <path clip-path="url(#pc672e85bde)" d="M 200.448001 307.584 
L 203.694545 307.584 
L 203.694545 268.102315 
L 200.448001 268.102315 
z
" style="fill:#1f77b4;"/>
   </g>
   <g id="patch_43">
    <path clip-path="url(#pc672e85bde)" d="M 203.694545 307.584 
L 206.94109 307.584 
L 206.94109 258.966082 
L 203.694545 258.966082 
z
" style="fill:#1f77b4;"/>
   </g>
   <g id="patch_44">
    <path clip-path="url(#pc672e85bde)" d="M 206.941089 307.584 
L 210.187634 307.584 
L 210.187634 259.944966 
L 206.941089 259.944966 
z
" style="fill:#1f77b4;"/>
   </g>
   <g id="patch_45">
    <path clip-path="url(#pc672e85bde)" d="M 210.187636 307.584 
L 213.434181 307.584 
L 213.434181 247.219471 
L 210.187636 247.219471 
z
" style="fill:#1f77b4;"/>
   </g>
   <g id="patch_46">
    <path clip-path="url(#pc672e85bde)" d="M 213.43418 307.584 
L 216.680725 307.584 
L 216.680725 234.167681 
L 213.43418 234.167681 
z
" style="fill:#1f77b4;"/>
   </g>
   <g id="patch_47">
    <path clip-path="url(#pc672e85bde)" d="M 216.680727 307.584 
L 219.927272 307.584 
L 219.927272 230.904733 
L 216.680727 230.904733 
z
" style="fill:#1f77b4;"/>
   </g>
   <g id="patch_48">
    <path clip-path="url(#pc672e85bde)" d="M 219.927272 307.584 
L 223.173818 307.584 
L 223.173818 205.127448 
L 219.927272 205.127448 
z
" style="fill:#1f77b4;"/>
   </g>
   <g id="patch_49">
    <path clip-path="url(#pc672e85bde)" d="M 223.173818 307.584 
L 226.420363 307.584 
L 226.420363 208.71669 
L 223.173818 208.71669 
z
" style="fill:#1f77b4;"/>
   </g>
   <g id="patch_50">
    <path clip-path="url(#pc672e85bde)" d="M 226.420363 307.584 
L 229.666909 307.584 
L 229.666909 195.6649 
L 226.420363 195.6649 
z
" style="fill:#1f77b4;"/>
   </g>
   <g id="patch_51">
    <path clip-path="url(#pc672e85bde)" d="M 229.666909 307.584 
L 232.913454 307.584 
L 232.913454 181.96052 
L 229.666909 181.96052 
z
" style="fill:#1f77b4;"/>
   </g>
   <g id="patch_52">
    <path clip-path="url(#pc672e85bde)" d="M 232.913455 307.584 
L 236.16 307.584 
L 236.16 138.563318 
L 232.913455 138.563318 
z
" style="fill:#1f77b4;"/>
   </g>
   <g id="patch_53">
    <path clip-path="url(#pc672e85bde)" d="M 236.16 307.584 
L 239.406546 307.584 
L 239.406546 194.359721 
L 236.16 194.359721 
z
" style="fill:#1f77b4;"/>
   </g>
   <g id="patch_54">
    <path clip-path="url(#pc672e85bde)" d="M 239.406546 307.584 
L 242.653091 307.584 
L 242.653091 204.148564 
L 239.406546 204.148564 
z
" style="fill:#1f77b4;"/>
   </g>
   <g id="patch_55">
    <path clip-path="url(#pc672e85bde)" d="M 242.653091 307.584 
L 245.899637 307.584 
L 245.899637 218.505533 
L 242.653091 218.505533 
z
" style="fill:#1f77b4;"/>
   </g>
   <g id="patch_56">
    <path clip-path="url(#pc672e85bde)" d="M 245.899637 307.584 
L 249.146182 307.584 
L 249.146182 222.747364 
L 245.899637 222.747364 
z
" style="fill:#1f77b4;"/>
   </g>
   <g id="patch_57">
    <path clip-path="url(#pc672e85bde)" d="M 249.146182 307.584 
L 252.392728 307.584 
L 252.392728 224.378838 
L 249.146182 224.378838 
z
" style="fill:#1f77b4;"/>
   </g>
   <g id="patch_58">
    <path clip-path="url(#pc672e85bde)" d="M 252.392726 307.584 
L 255.639271 307.584 
L 255.639271 212.958522 
L 252.392726 212.958522 
z
" style="fill:#1f77b4;"/>
   </g>
   <g id="patch_59">
    <path clip-path="url(#pc672e85bde)" d="M 255.639273 307.584 
L 258.885819 307.584 
L 258.885819 222.094775 
L 255.639273 222.094775 
z
" style="fill:#1f77b4;"/>
   </g>
   <g id="patch_60">
    <path clip-path="url(#pc672e85bde)" d="M 258.885817 307.584 
L 262.132363 307.584 
L 262.132363 242.651344 
L 258.885817 242.651344 
z
" style="fill:#1f77b4;"/>
   </g>
   <g id="patch_61">
    <path clip-path="url(#pc672e85bde)" d="M 262.132363 307.584 
L 265.378905 307.584 
L 265.378905 242.651311 
L 262.132363 242.651311 
z
" style="fill:#1f77b4;"/>
   </g>
   <g id="patch_62">
    <path clip-path="url(#pc672e85bde)" d="M 265.378908 307.584 
L 268.625455 307.584 
L 268.625455 241.346199 
L 265.378908 241.346199 
z
" style="fill:#1f77b4;"/>
   </g>
   <g id="patch_63">
    <path clip-path="url(#pc672e85bde)" d="M 268.625458 307.584 
L 271.872002 307.584 
L 271.872002 245.914261 
L 268.625458 245.914261 
z
" style="fill:#1f77b4;"/>
   </g>
   <g id="patch_64">
    <path clip-path="url(#pc672e85bde)" d="M 271.871999 307.584 
L 275.118546 307.584 
L 275.118546 246.893207 
L 271.871999 246.893207 
z
" style="fill:#1f77b4;"/>
   </g>
   <g id="patch_65">
    <path clip-path="url(#pc672e85bde)" d="M 275.118546 307.584 
L 278.36509 307.584 
L 278.36509 257.334583 
L 275.118546 257.334583 
z
" style="fill:#1f77b4;"/>
   </g>
   <g id="patch_66">
    <path clip-path="url(#pc672e85bde)" d="M 278.36509 307.584 
L 281.611637 307.584 
L 281.611637 254.724277 
L 278.36509 254.724277 
z
" style="fill:#1f77b4;"/>
   </g>
   <g id="patch_67">
    <path clip-path="url(#pc672e85bde)" d="M 281.611641 307.584 
L 284.858184 307.584 
L 284.858184 254.071633 
L 281.611641 254.071633 
z
" style="fill:#1f77b4;"/>
   </g>
   <g id="patch_68">
    <path clip-path="url(#pc672e85bde)" d="M 284.858181 307.584 
L 288.104728 307.584 
L 288.104728 258.966107 
L 284.858181 258.966107 
z
" style="fill:#1f77b4;"/>
   </g>
   <g id="patch_69">
    <path clip-path="url(#pc672e85bde)" d="M 288.104728 307.584 
L 291.351275 307.584 
L 291.351275 262.555347 
L 288.104728 262.555347 
z
" style="fill:#1f77b4;"/>
   </g>
   <g id="patch_70">
    <path clip-path="url(#pc672e85bde)" d="M 291.351275 307.584 
L 294.597816 307.584 
L 294.597816 257.660827 
L 291.351275 257.660827 
z
" style="fill:#1f77b4;"/>
   </g>
   <g id="patch_71">
    <path clip-path="url(#pc672e85bde)" d="M 294.597816 307.584 
L 297.844363 307.584 
L 297.844363 269.081239 
L 294.597816 269.081239 
z
" style="fill:#1f77b4;"/>
   </g>
   <g id="patch_72">
    <path clip-path="url(#pc672e85bde)" d="M 297.844357 307.584 
L 301.090904 307.584 
L 301.090904 267.449766 
L 297.844357 267.449766 
z
" style="fill:#1f77b4;"/>
   </g>
   <g id="patch_73">
    <path clip-path="url(#pc672e85bde)" d="M 301.09091 307.584 
L 304.337458 307.584 
L 304.337458 268.754944 
L 301.09091 268.754944 
z
" style="fill:#1f77b4;"/>
   </g>
   <g id="patch_74">
    <path clip-path="url(#pc672e85bde)" d="M 304.337458 307.584 
L 307.583998 307.584 
L 307.583998 268.754865 
L 304.337458 268.754865 
z
" style="fill:#1f77b4;"/>
   </g>
   <g id="patch_75">
    <path clip-path="url(#pc672e85bde)" d="M 307.583992 307.584 
L 310.830539 307.584 
L 310.830539 279.522666 
L 307.583992 279.522666 
z
" style="fill:#1f77b4;"/>
   </g>
   <g id="patch_76">
    <path clip-path="url(#pc672e85bde)" d="M 310.830545 307.584 
L 314.077092 307.584 
L 314.077092 279.84896 
L 310.830545 279.84896 
z
" style="fill:#1f77b4;"/>
   </g>
   <g id="patch_77">
    <path clip-path="url(#pc672e85bde)" d="M 314.077086 307.584 
L 317.323633 307.584 
L 317.323633 284.09079 
L 314.077086 284.09079 
z
" style="fill:#1f77b4;"/>
   </g>
   <g id="patch_78">
    <path clip-path="url(#pc672e85bde)" d="M 317.32364 307.584 
L 320.57018 307.584 
L 320.57018 280.82779 
L 317.32364 280.82779 
z
" style="fill:#1f77b4;"/>
   </g>
   <g id="patch_79">
    <path clip-path="url(#pc672e85bde)" d="M 320.57018 307.584 
L 323.816727 307.584 
L 323.816727 287.027441 
L 320.57018 287.027441 
z
" style="fill:#1f77b4;"/>
   </g>
   <g id="patch_80">
    <path clip-path="url(#pc672e85bde)" d="M 323.816721 307.584 
L 327.063268 307.584 
L 327.063268 282.785611 
L 323.816721 282.785611 
z
" style="fill:#1f77b4;"/>
   </g>
   <g id="patch_81">
    <path clip-path="url(#pc672e85bde)" d="M 327.063275 307.584 
L 330.309815 307.584 
L 330.309815 287.67999 
L 327.063275 287.67999 
z
" style="fill:#1f77b4;"/>
   </g>
   <g id="patch_82">
    <path clip-path="url(#pc672e85bde)" d="M 330.309815 307.584 
L 333.556362 307.584 
L 333.556362 288.332619 
L 330.309815 288.332619 
z
" style="fill:#1f77b4;"/>
   </g>
   <g id="patch_83">
    <path clip-path="url(#pc672e85bde)" d="M 333.556356 307.584 
L 336.802903 307.584 
L 336.802903 293.879627 
L 333.556356 293.879627 
z
" style="fill:#1f77b4;"/>
   </g>
   <g id="patch_84">
    <path clip-path="url(#pc672e85bde)" d="M 336.802909 307.584 
L 340.049457 307.584 
L 340.049457 294.858511 
L 336.802909 294.858511 
z
" style="fill:#1f77b4;"/>
   </g>
   <g id="patch_85">
    <path clip-path="url(#pc672e85bde)" d="M 340.049457 307.584 
L 343.295997 307.584 
L 343.295997 294.205895 
L 340.049457 294.205895 
z
" style="fill:#1f77b4;"/>
   </g>
   <g id="patch_86">
    <path clip-path="url(#pc672e85bde)" d="M 343.295991 307.584 
L 346.542531 307.584 
L 346.542531 294.532217 
L 343.295991 294.532217 
z
" style="fill:#1f77b4;"/>
   </g>
   <g id="patch_87">
    <path clip-path="url(#pc672e85bde)" d="M 346.542558 307.584 
L 349.789098 307.584 
L 349.789098 298.774028 
L 346.542558 298.774028 
z
" style="fill:#1f77b4;"/>
   </g>
   <g id="patch_88">
    <path clip-path="url(#pc672e85bde)" d="M 349.789085 307.584 
L 353.035639 307.584 
L 353.035639 300.405534 
L 349.789085 300.405534 
z
" style="fill:#1f77b4;"/>
   </g>
   <g id="patch_89">
    <path clip-path="url(#pc672e85bde)" d="M 353.035639 307.584 
L 356.282179 307.584 
L 356.282179 298.447733 
L 353.035639 298.447733 
z
" style="fill:#1f77b4;"/>
   </g>
   <g id="patch_90">
    <path clip-path="url(#pc672e85bde)" d="M 356.282179 307.584 
L 359.528733 307.584 
L 359.528733 299.752946 
L 356.282179 299.752946 
z
" style="fill:#1f77b4;"/>
   </g>
   <g id="patch_91">
    <path clip-path="url(#pc672e85bde)" d="M 359.528746 307.584 
L 362.775287 307.584 
L 362.775287 300.405505 
L 359.528746 300.405505 
z
" style="fill:#1f77b4;"/>
   </g>
   <g id="patch_92">
    <path clip-path="url(#pc672e85bde)" d="M 362.775274 307.584 
L 366.021814 307.584 
L 366.021814 299.752914 
L 362.775274 299.752914 
z
" style="fill:#1f77b4;"/>
   </g>
   <g id="patch_93">
    <path clip-path="url(#pc672e85bde)" d="M 366.021814 307.584 
L 369.268368 307.584 
L 369.268368 297.468888 
L 366.021814 297.468888 
z
" style="fill:#1f77b4;"/>
   </g>
   <g id="patch_94">
    <path clip-path="url(#pc672e85bde)" d="M 369.268381 307.584 
L 372.514922 307.584 
L 372.514922 296.816257 
L 369.268381 296.816257 
z
" style="fill:#1f77b4;"/>
   </g>
   <g id="patch_95">
    <path clip-path="url(#pc672e85bde)" d="M 372.514909 307.584 
L 375.761449 307.584 
L 375.761449 300.079209 
L 372.514909 300.079209 
z
" style="fill:#1f77b4;"/>
   </g>
   <g id="patch_96">
    <path clip-path="url(#pc672e85bde)" d="M 375.761449 307.584 
L 379.008003 307.584 
L 379.008003 302.037003 
L 375.761449 302.037003 
z
" style="fill:#1f77b4;"/>
   </g>
   <g id="patch_97">
    <path clip-path="url(#pc672e85bde)" d="M 379.008016 307.584 
L 382.254557 307.584 
L 382.254557 303.342162 
L 379.008016 303.342162 
z
" style="fill:#1f77b4;"/>
   </g>
   <g id="patch_98">
    <path clip-path="url(#pc672e85bde)" d="M 382.254543 307.584 
L 385.501097 307.584 
L 385.501097 303.342179 
L 382.254543 303.342179 
z
" style="fill:#1f77b4;"/>
   </g>
   <g id="patch_99">
    <path clip-path="url(#pc672e85bde)" d="M 385.501097 307.584 
L 388.747638 307.584 
L 388.747638 305.626229 
L 385.501097 305.626229 
z
" style="fill:#1f77b4;"/>
   </g>
   <g id="patch_100">
    <path clip-path="url(#pc672e85bde)" d="M 388.747651 307.584 
L 391.994192 307.584 
L 391.994192 305.952524 
L 388.747651 305.952524 
z
" style="fill:#1f77b4;"/>
   </g>
   <g id="patch_101">
    <path clip-path="url(#pc672e85bde)" d="M 391.994178 307.584 
L 395.240732 307.584 
L 395.240732 305.299943 
L 391.994178 305.299943 
z
" style="fill:#1f77b4;"/>
   </g>
   <g id="patch_102">
    <path clip-path="url(#pc672e85bde)" d="M 395.240732 307.584 
L 398.487273 307.584 
L 398.487273 306.93141 
L 395.240732 306.93141 
z
" style="fill:#1f77b4;"/>
   </g>
   <g id="matplotlib.axis_1">
    <g id="xtick_1">
     <g id="line2d_1">
      <defs>
       <path d="M 0 0 
L 0 3.5 
" id="mb1276b8cd2" style="stroke:#000000;stroke-width:0.8;"/>
      </defs>
      <g>
       <use style="stroke:#000000;stroke-width:0.8;" x="68.746619" xlink:href="#mb1276b8cd2" y="307.584"/>
      </g>
     </g>
     <g id="text_1">
      <!-- −3 -->
      <defs>
       <path d="M 10.59375 35.5 
L 73.1875 35.5 
L 73.1875 27.203125 
L 10.59375 27.203125 
z
" id="DejaVuSans-8722"/>
       <path d="M 40.578125 39.3125 
Q 47.65625 37.796875 51.625 33 
Q 55.609375 28.21875 55.609375 21.1875 
Q 55.609375 10.40625 48.1875 4.484375 
Q 40.765625 -1.421875 27.09375 -1.421875 
Q 22.515625 -1.421875 17.65625 -0.515625 
Q 12.796875 0.390625 7.625 2.203125 
L 7.625 11.71875 
Q 11.71875 9.328125 16.59375 8.109375 
Q 21.484375 6.890625 26.8125 6.890625 
Q 36.078125 6.890625 40.9375 10.546875 
Q 45.796875 14.203125 45.796875 21.1875 
Q 45.796875 27.640625 41.28125 31.265625 
Q 36.765625 34.90625 28.71875 34.90625 
L 20.21875 34.90625 
L 20.21875 43.015625 
L 29.109375 43.015625 
Q 36.375 43.015625 40.234375 45.921875 
Q 44.09375 48.828125 44.09375 54.296875 
Q 44.09375 59.90625 40.109375 62.90625 
Q 36.140625 65.921875 28.71875 65.921875 
Q 24.65625 65.921875 20.015625 65.03125 
Q 15.375 64.15625 9.8125 62.3125 
L 9.8125 71.09375 
Q 15.4375 72.65625 20.34375 73.4375 
Q 25.25 74.21875 29.59375 74.21875 
Q 40.828125 74.21875 47.359375 69.109375 
Q 53.90625 64.015625 53.90625 55.328125 
Q 53.90625 49.265625 50.4375 45.09375 
Q 46.96875 40.921875 40.578125 39.3125 
z
" id="DejaVuSans-51"/>
      </defs>
      <g transform="translate(56.215759 327.501344)scale(0.17 -0.17)">
       <use xlink:href="#DejaVuSans-8722"/>
       <use x="83.789062" xlink:href="#DejaVuSans-51"/>
      </g>
     </g>
    </g>
    <g id="xtick_2">
     <g id="line2d_2">
      <g>
       <use style="stroke:#000000;stroke-width:0.8;" x="124.009207" xlink:href="#mb1276b8cd2" y="307.584"/>
      </g>
     </g>
     <g id="text_2">
      <!-- −2 -->
      <defs>
       <path d="M 19.1875 8.296875 
L 53.609375 8.296875 
L 53.609375 0 
L 7.328125 0 
L 7.328125 8.296875 
Q 12.9375 14.109375 22.625 23.890625 
Q 32.328125 33.6875 34.8125 36.53125 
Q 39.546875 41.84375 41.421875 45.53125 
Q 43.3125 49.21875 43.3125 52.78125 
Q 43.3125 58.59375 39.234375 62.25 
Q 35.15625 65.921875 28.609375 65.921875 
Q 23.96875 65.921875 18.8125 64.3125 
Q 13.671875 62.703125 7.8125 59.421875 
L 7.8125 69.390625 
Q 13.765625 71.78125 18.9375 73 
Q 24.125 74.21875 28.421875 74.21875 
Q 39.75 74.21875 46.484375 68.546875 
Q 53.21875 62.890625 53.21875 53.421875 
Q 53.21875 48.921875 51.53125 44.890625 
Q 49.859375 40.875 45.40625 35.40625 
Q 44.1875 33.984375 37.640625 27.21875 
Q 31.109375 20.453125 19.1875 8.296875 
z
" id="DejaVuSans-50"/>
      </defs>
      <g transform="translate(111.478348 327.501344)scale(0.17 -0.17)">
       <use xlink:href="#DejaVuSans-8722"/>
       <use x="83.789062" xlink:href="#DejaVuSans-50"/>
      </g>
     </g>
    </g>
    <g id="xtick_3">
     <g id="line2d_3">
      <g>
       <use style="stroke:#000000;stroke-width:0.8;" x="179.271796" xlink:href="#mb1276b8cd2" y="307.584"/>
      </g>
     </g>
     <g id="text_3">
      <!-- −1 -->
      <defs>
       <path d="M 12.40625 8.296875 
L 28.515625 8.296875 
L 28.515625 63.921875 
L 10.984375 60.40625 
L 10.984375 69.390625 
L 28.421875 72.90625 
L 38.28125 72.90625 
L 38.28125 8.296875 
L 54.390625 8.296875 
L 54.390625 0 
L 12.40625 0 
z
" id="DejaVuSans-49"/>
      </defs>
      <g transform="translate(166.740936 327.501344)scale(0.17 -0.17)">
       <use xlink:href="#DejaVuSans-8722"/>
       <use x="83.789062" xlink:href="#DejaVuSans-49"/>
      </g>
     </g>
    </g>
    <g id="xtick_4">
     <g id="line2d_4">
      <g>
       <use style="stroke:#000000;stroke-width:0.8;" x="234.534384" xlink:href="#mb1276b8cd2" y="307.584"/>
      </g>
     </g>
     <g id="text_4">
      <!-- 0 -->
      <defs>
       <path d="M 31.78125 66.40625 
Q 24.171875 66.40625 20.328125 58.90625 
Q 16.5 51.421875 16.5 36.375 
Q 16.5 21.390625 20.328125 13.890625 
Q 24.171875 6.390625 31.78125 6.390625 
Q 39.453125 6.390625 43.28125 13.890625 
Q 47.125 21.390625 47.125 36.375 
Q 47.125 51.421875 43.28125 58.90625 
Q 39.453125 66.40625 31.78125 66.40625 
z
M 31.78125 74.21875 
Q 44.046875 74.21875 50.515625 64.515625 
Q 56.984375 54.828125 56.984375 36.375 
Q 56.984375 17.96875 50.515625 8.265625 
Q 44.046875 -1.421875 31.78125 -1.421875 
Q 19.53125 -1.421875 13.0625 8.265625 
Q 6.59375 17.96875 6.59375 36.375 
Q 6.59375 54.828125 13.0625 64.515625 
Q 19.53125 74.21875 31.78125 74.21875 
z
" id="DejaVuSans-48"/>
      </defs>
      <g transform="translate(229.126259 327.501344)scale(0.17 -0.17)">
       <use xlink:href="#DejaVuSans-48"/>
      </g>
     </g>
    </g>
    <g id="xtick_5">
     <g id="line2d_5">
      <g>
       <use style="stroke:#000000;stroke-width:0.8;" x="289.796973" xlink:href="#mb1276b8cd2" y="307.584"/>
      </g>
     </g>
     <g id="text_5">
      <!-- 1 -->
      <g transform="translate(284.388848 327.501344)scale(0.17 -0.17)">
       <use xlink:href="#DejaVuSans-49"/>
      </g>
     </g>
    </g>
    <g id="xtick_6">
     <g id="line2d_6">
      <g>
       <use style="stroke:#000000;stroke-width:0.8;" x="345.059562" xlink:href="#mb1276b8cd2" y="307.584"/>
      </g>
     </g>
     <g id="text_6">
      <!-- 2 -->
      <g transform="translate(339.651437 327.501344)scale(0.17 -0.17)">
       <use xlink:href="#DejaVuSans-50"/>
      </g>
     </g>
    </g>
    <g id="xtick_7">
     <g id="line2d_7">
      <g>
       <use style="stroke:#000000;stroke-width:0.8;" x="400.32215" xlink:href="#mb1276b8cd2" y="307.584"/>
      </g>
     </g>
     <g id="text_7">
      <!-- 3 -->
      <g transform="translate(394.914025 327.501344)scale(0.17 -0.17)">
       <use xlink:href="#DejaVuSans-51"/>
      </g>
     </g>
    </g>
    <g id="text_8">
     <!-- Position in Radian -->
     <defs>
      <path d="M 19.671875 64.796875 
L 19.671875 37.40625 
L 32.078125 37.40625 
Q 38.96875 37.40625 42.71875 40.96875 
Q 46.484375 44.53125 46.484375 51.125 
Q 46.484375 57.671875 42.71875 61.234375 
Q 38.96875 64.796875 32.078125 64.796875 
z
M 9.8125 72.90625 
L 32.078125 72.90625 
Q 44.34375 72.90625 50.609375 67.359375 
Q 56.890625 61.8125 56.890625 51.125 
Q 56.890625 40.328125 50.609375 34.8125 
Q 44.34375 29.296875 32.078125 29.296875 
L 19.671875 29.296875 
L 19.671875 0 
L 9.8125 0 
z
" id="DejaVuSans-80"/>
      <path d="M 30.609375 48.390625 
Q 23.390625 48.390625 19.1875 42.75 
Q 14.984375 37.109375 14.984375 27.296875 
Q 14.984375 17.484375 19.15625 11.84375 
Q 23.34375 6.203125 30.609375 6.203125 
Q 37.796875 6.203125 41.984375 11.859375 
Q 46.1875 17.53125 46.1875 27.296875 
Q 46.1875 37.015625 41.984375 42.703125 
Q 37.796875 48.390625 30.609375 48.390625 
z
M 30.609375 56 
Q 42.328125 56 49.015625 48.375 
Q 55.71875 40.765625 55.71875 27.296875 
Q 55.71875 13.875 49.015625 6.21875 
Q 42.328125 -1.421875 30.609375 -1.421875 
Q 18.84375 -1.421875 12.171875 6.21875 
Q 5.515625 13.875 5.515625 27.296875 
Q 5.515625 40.765625 12.171875 48.375 
Q 18.84375 56 30.609375 56 
z
" id="DejaVuSans-111"/>
      <path d="M 44.28125 53.078125 
L 44.28125 44.578125 
Q 40.484375 46.53125 36.375 47.5 
Q 32.28125 48.484375 27.875 48.484375 
Q 21.1875 48.484375 17.84375 46.4375 
Q 14.5 44.390625 14.5 40.28125 
Q 14.5 37.15625 16.890625 35.375 
Q 19.28125 33.59375 26.515625 31.984375 
L 29.59375 31.296875 
Q 39.15625 29.25 43.1875 25.515625 
Q 47.21875 21.78125 47.21875 15.09375 
Q 47.21875 7.46875 41.1875 3.015625 
Q 35.15625 -1.421875 24.609375 -1.421875 
Q 20.21875 -1.421875 15.453125 -0.5625 
Q 10.6875 0.296875 5.421875 2 
L 5.421875 11.28125 
Q 10.40625 8.6875 15.234375 7.390625 
Q 20.0625 6.109375 24.8125 6.109375 
Q 31.15625 6.109375 34.5625 8.28125 
Q 37.984375 10.453125 37.984375 14.40625 
Q 37.984375 18.0625 35.515625 20.015625 
Q 33.0625 21.96875 24.703125 23.78125 
L 21.578125 24.515625 
Q 13.234375 26.265625 9.515625 29.90625 
Q 5.8125 33.546875 5.8125 39.890625 
Q 5.8125 47.609375 11.28125 51.796875 
Q 16.75 56 26.8125 56 
Q 31.78125 56 36.171875 55.265625 
Q 40.578125 54.546875 44.28125 53.078125 
z
" id="DejaVuSans-115"/>
      <path d="M 9.421875 54.6875 
L 18.40625 54.6875 
L 18.40625 0 
L 9.421875 0 
z
M 9.421875 75.984375 
L 18.40625 75.984375 
L 18.40625 64.59375 
L 9.421875 64.59375 
z
" id="DejaVuSans-105"/>
      <path d="M 18.3125 70.21875 
L 18.3125 54.6875 
L 36.8125 54.6875 
L 36.8125 47.703125 
L 18.3125 47.703125 
L 18.3125 18.015625 
Q 18.3125 11.328125 20.140625 9.421875 
Q 21.96875 7.515625 27.59375 7.515625 
L 36.8125 7.515625 
L 36.8125 0 
L 27.59375 0 
Q 17.1875 0 13.234375 3.875 
Q 9.28125 7.765625 9.28125 18.015625 
L 9.28125 47.703125 
L 2.6875 47.703125 
L 2.6875 54.6875 
L 9.28125 54.6875 
L 9.28125 70.21875 
z
" id="DejaVuSans-116"/>
      <path d="M 54.890625 33.015625 
L 54.890625 0 
L 45.90625 0 
L 45.90625 32.71875 
Q 45.90625 40.484375 42.875 44.328125 
Q 39.84375 48.1875 33.796875 48.1875 
Q 26.515625 48.1875 22.3125 43.546875 
Q 18.109375 38.921875 18.109375 30.90625 
L 18.109375 0 
L 9.078125 0 
L 9.078125 54.6875 
L 18.109375 54.6875 
L 18.109375 46.1875 
Q 21.34375 51.125 25.703125 53.5625 
Q 30.078125 56 35.796875 56 
Q 45.21875 56 50.046875 50.171875 
Q 54.890625 44.34375 54.890625 33.015625 
z
" id="DejaVuSans-110"/>
      <path id="DejaVuSans-32"/>
      <path d="M 44.390625 34.1875 
Q 47.5625 33.109375 50.5625 29.59375 
Q 53.5625 26.078125 56.59375 19.921875 
L 66.609375 0 
L 56 0 
L 46.6875 18.703125 
Q 43.0625 26.03125 39.671875 28.421875 
Q 36.28125 30.8125 30.421875 30.8125 
L 19.671875 30.8125 
L 19.671875 0 
L 9.8125 0 
L 9.8125 72.90625 
L 32.078125 72.90625 
Q 44.578125 72.90625 50.734375 67.671875 
Q 56.890625 62.453125 56.890625 51.90625 
Q 56.890625 45.015625 53.6875 40.46875 
Q 50.484375 35.9375 44.390625 34.1875 
z
M 19.671875 64.796875 
L 19.671875 38.921875 
L 32.078125 38.921875 
Q 39.203125 38.921875 42.84375 42.21875 
Q 46.484375 45.515625 46.484375 51.90625 
Q 46.484375 58.296875 42.84375 61.546875 
Q 39.203125 64.796875 32.078125 64.796875 
z
" id="DejaVuSans-82"/>
      <path d="M 34.28125 27.484375 
Q 23.390625 27.484375 19.1875 25 
Q 14.984375 22.515625 14.984375 16.5 
Q 14.984375 11.71875 18.140625 8.90625 
Q 21.296875 6.109375 26.703125 6.109375 
Q 34.1875 6.109375 38.703125 11.40625 
Q 43.21875 16.703125 43.21875 25.484375 
L 43.21875 27.484375 
z
M 52.203125 31.203125 
L 52.203125 0 
L 43.21875 0 
L 43.21875 8.296875 
Q 40.140625 3.328125 35.546875 0.953125 
Q 30.953125 -1.421875 24.3125 -1.421875 
Q 15.921875 -1.421875 10.953125 3.296875 
Q 6 8.015625 6 15.921875 
Q 6 25.140625 12.171875 29.828125 
Q 18.359375 34.515625 30.609375 34.515625 
L 43.21875 34.515625 
L 43.21875 35.40625 
Q 43.21875 41.609375 39.140625 45 
Q 35.0625 48.390625 27.6875 48.390625 
Q 23 48.390625 18.546875 47.265625 
Q 14.109375 46.140625 10.015625 43.890625 
L 10.015625 52.203125 
Q 14.9375 54.109375 19.578125 55.046875 
Q 24.21875 56 28.609375 56 
Q 40.484375 56 46.34375 49.84375 
Q 52.203125 43.703125 52.203125 31.203125 
z
" id="DejaVuSans-97"/>
      <path d="M 45.40625 46.390625 
L 45.40625 75.984375 
L 54.390625 75.984375 
L 54.390625 0 
L 45.40625 0 
L 45.40625 8.203125 
Q 42.578125 3.328125 38.25 0.953125 
Q 33.9375 -1.421875 27.875 -1.421875 
Q 17.96875 -1.421875 11.734375 6.484375 
Q 5.515625 14.40625 5.515625 27.296875 
Q 5.515625 40.1875 11.734375 48.09375 
Q 17.96875 56 27.875 56 
Q 33.9375 56 38.25 53.625 
Q 42.578125 51.265625 45.40625 46.390625 
z
M 14.796875 27.296875 
Q 14.796875 17.390625 18.875 11.75 
Q 22.953125 6.109375 30.078125 6.109375 
Q 37.203125 6.109375 41.296875 11.75 
Q 45.40625 17.390625 45.40625 27.296875 
Q 45.40625 37.203125 41.296875 42.84375 
Q 37.203125 48.484375 30.078125 48.484375 
Q 22.953125 48.484375 18.875 42.84375 
Q 14.796875 37.203125 14.796875 27.296875 
z
" id="DejaVuSans-100"/>
     </defs>
     <g transform="translate(102.024844 357.832125)scale(0.3 -0.3)">
      <use xlink:href="#DejaVuSans-80"/>
      <use x="60.255859" xlink:href="#DejaVuSans-111"/>
      <use x="121.4375" xlink:href="#DejaVuSans-115"/>
      <use x="173.537109" xlink:href="#DejaVuSans-105"/>
      <use x="201.320312" xlink:href="#DejaVuSans-116"/>
      <use x="240.529297" xlink:href="#DejaVuSans-105"/>
      <use x="268.3125" xlink:href="#DejaVuSans-111"/>
      <use x="329.494141" xlink:href="#DejaVuSans-110"/>
      <use x="392.873047" xlink:href="#DejaVuSans-32"/>
      <use x="424.660156" xlink:href="#DejaVuSans-105"/>
      <use x="452.443359" xlink:href="#DejaVuSans-110"/>
      <use x="515.822266" xlink:href="#DejaVuSans-32"/>
      <use x="547.609375" xlink:href="#DejaVuSans-82"/>
      <use x="617.060547" xlink:href="#DejaVuSans-97"/>
      <use x="678.339844" xlink:href="#DejaVuSans-100"/>
      <use x="741.816406" xlink:href="#DejaVuSans-105"/>
      <use x="769.599609" xlink:href="#DejaVuSans-97"/>
      <use x="830.878906" xlink:href="#DejaVuSans-110"/>
     </g>
    </g>
   </g>
   <g id="matplotlib.axis_2">
    <g id="ytick_1">
     <g id="line2d_8">
      <defs>
       <path d="M 0 0 
L -3.5 0 
" id="m5428a75c25" style="stroke:#000000;stroke-width:0.8;"/>
      </defs>
      <g>
       <use style="stroke:#000000;stroke-width:0.8;" x="57.6" xlink:href="#m5428a75c25" y="307.584"/>
      </g>
     </g>
     <g id="text_9">
      <!-- 0.0 -->
      <defs>
       <path d="M 10.6875 12.40625 
L 21 12.40625 
L 21 0 
L 10.6875 0 
z
" id="DejaVuSans-46"/>
      </defs>
      <g transform="translate(23.564687 314.042672)scale(0.17 -0.17)">
       <use xlink:href="#DejaVuSans-48"/>
       <use x="63.623047" xlink:href="#DejaVuSans-46"/>
       <use x="95.410156" xlink:href="#DejaVuSans-48"/>
      </g>
     </g>
    </g>
    <g id="ytick_2">
     <g id="line2d_9">
      <g>
       <use style="stroke:#000000;stroke-width:0.8;" x="57.6" xlink:href="#m5428a75c25" y="269.24592"/>
      </g>
     </g>
     <g id="text_10">
      <!-- 0.2 -->
      <g transform="translate(23.564687 275.704592)scale(0.17 -0.17)">
       <use xlink:href="#DejaVuSans-48"/>
       <use x="63.623047" xlink:href="#DejaVuSans-46"/>
       <use x="95.410156" xlink:href="#DejaVuSans-50"/>
      </g>
     </g>
    </g>
    <g id="ytick_3">
     <g id="line2d_10">
      <g>
       <use style="stroke:#000000;stroke-width:0.8;" x="57.6" xlink:href="#m5428a75c25" y="230.90784"/>
      </g>
     </g>
     <g id="text_11">
      <!-- 0.4 -->
      <defs>
       <path d="M 37.796875 64.3125 
L 12.890625 25.390625 
L 37.796875 25.390625 
z
M 35.203125 72.90625 
L 47.609375 72.90625 
L 47.609375 25.390625 
L 58.015625 25.390625 
L 58.015625 17.1875 
L 47.609375 17.1875 
L 47.609375 0 
L 37.796875 0 
L 37.796875 17.1875 
L 4.890625 17.1875 
L 4.890625 26.703125 
z
" id="DejaVuSans-52"/>
      </defs>
      <g transform="translate(23.564687 237.366512)scale(0.17 -0.17)">
       <use xlink:href="#DejaVuSans-48"/>
       <use x="63.623047" xlink:href="#DejaVuSans-46"/>
       <use x="95.410156" xlink:href="#DejaVuSans-52"/>
      </g>
     </g>
    </g>
    <g id="ytick_4">
     <g id="line2d_11">
      <g>
       <use style="stroke:#000000;stroke-width:0.8;" x="57.6" xlink:href="#m5428a75c25" y="192.56976"/>
      </g>
     </g>
     <g id="text_12">
      <!-- 0.6 -->
      <defs>
       <path d="M 33.015625 40.375 
Q 26.375 40.375 22.484375 35.828125 
Q 18.609375 31.296875 18.609375 23.390625 
Q 18.609375 15.53125 22.484375 10.953125 
Q 26.375 6.390625 33.015625 6.390625 
Q 39.65625 6.390625 43.53125 10.953125 
Q 47.40625 15.53125 47.40625 23.390625 
Q 47.40625 31.296875 43.53125 35.828125 
Q 39.65625 40.375 33.015625 40.375 
z
M 52.59375 71.296875 
L 52.59375 62.3125 
Q 48.875 64.0625 45.09375 64.984375 
Q 41.3125 65.921875 37.59375 65.921875 
Q 27.828125 65.921875 22.671875 59.328125 
Q 17.53125 52.734375 16.796875 39.40625 
Q 19.671875 43.65625 24.015625 45.921875 
Q 28.375 48.1875 33.59375 48.1875 
Q 44.578125 48.1875 50.953125 41.515625 
Q 57.328125 34.859375 57.328125 23.390625 
Q 57.328125 12.15625 50.6875 5.359375 
Q 44.046875 -1.421875 33.015625 -1.421875 
Q 20.359375 -1.421875 13.671875 8.265625 
Q 6.984375 17.96875 6.984375 36.375 
Q 6.984375 53.65625 15.1875 63.9375 
Q 23.390625 74.21875 37.203125 74.21875 
Q 40.921875 74.21875 44.703125 73.484375 
Q 48.484375 72.75 52.59375 71.296875 
z
" id="DejaVuSans-54"/>
      </defs>
      <g transform="translate(23.564687 199.028432)scale(0.17 -0.17)">
       <use xlink:href="#DejaVuSans-48"/>
       <use x="63.623047" xlink:href="#DejaVuSans-46"/>
       <use x="95.410156" xlink:href="#DejaVuSans-54"/>
      </g>
     </g>
    </g>
    <g id="ytick_5">
     <g id="line2d_12">
      <g>
       <use style="stroke:#000000;stroke-width:0.8;" x="57.6" xlink:href="#m5428a75c25" y="154.231681"/>
      </g>
     </g>
     <g id="text_13">
      <!-- 0.8 -->
      <defs>
       <path d="M 31.78125 34.625 
Q 24.75 34.625 20.71875 30.859375 
Q 16.703125 27.09375 16.703125 20.515625 
Q 16.703125 13.921875 20.71875 10.15625 
Q 24.75 6.390625 31.78125 6.390625 
Q 38.8125 6.390625 42.859375 10.171875 
Q 46.921875 13.96875 46.921875 20.515625 
Q 46.921875 27.09375 42.890625 30.859375 
Q 38.875 34.625 31.78125 34.625 
z
M 21.921875 38.8125 
Q 15.578125 40.375 12.03125 44.71875 
Q 8.5 49.078125 8.5 55.328125 
Q 8.5 64.0625 14.71875 69.140625 
Q 20.953125 74.21875 31.78125 74.21875 
Q 42.671875 74.21875 48.875 69.140625 
Q 55.078125 64.0625 55.078125 55.328125 
Q 55.078125 49.078125 51.53125 44.71875 
Q 48 40.375 41.703125 38.8125 
Q 48.828125 37.15625 52.796875 32.3125 
Q 56.78125 27.484375 56.78125 20.515625 
Q 56.78125 9.90625 50.3125 4.234375 
Q 43.84375 -1.421875 31.78125 -1.421875 
Q 19.734375 -1.421875 13.25 4.234375 
Q 6.78125 9.90625 6.78125 20.515625 
Q 6.78125 27.484375 10.78125 32.3125 
Q 14.796875 37.15625 21.921875 38.8125 
z
M 18.3125 54.390625 
Q 18.3125 48.734375 21.84375 45.5625 
Q 25.390625 42.390625 31.78125 42.390625 
Q 38.140625 42.390625 41.71875 45.5625 
Q 45.3125 48.734375 45.3125 54.390625 
Q 45.3125 60.0625 41.71875 63.234375 
Q 38.140625 66.40625 31.78125 66.40625 
Q 25.390625 66.40625 21.84375 63.234375 
Q 18.3125 60.0625 18.3125 54.390625 
z
" id="DejaVuSans-56"/>
      </defs>
      <g transform="translate(23.564687 160.690353)scale(0.17 -0.17)">
       <use xlink:href="#DejaVuSans-48"/>
       <use x="63.623047" xlink:href="#DejaVuSans-46"/>
       <use x="95.410156" xlink:href="#DejaVuSans-56"/>
      </g>
     </g>
    </g>
    <g id="ytick_6">
     <g id="line2d_13">
      <g>
       <use style="stroke:#000000;stroke-width:0.8;" x="57.6" xlink:href="#m5428a75c25" y="115.893601"/>
      </g>
     </g>
     <g id="text_14">
      <!-- 1.0 -->
      <g transform="translate(23.564687 122.352273)scale(0.17 -0.17)">
       <use xlink:href="#DejaVuSans-49"/>
       <use x="63.623047" xlink:href="#DejaVuSans-46"/>
       <use x="95.410156" xlink:href="#DejaVuSans-48"/>
      </g>
     </g>
    </g>
    <g id="ytick_7">
     <g id="line2d_14">
      <g>
       <use style="stroke:#000000;stroke-width:0.8;" x="57.6" xlink:href="#m5428a75c25" y="77.555521"/>
      </g>
     </g>
     <g id="text_15">
      <!-- 1.2 -->
      <g transform="translate(23.564687 84.014193)scale(0.17 -0.17)">
       <use xlink:href="#DejaVuSans-49"/>
       <use x="63.623047" xlink:href="#DejaVuSans-46"/>
       <use x="95.410156" xlink:href="#DejaVuSans-50"/>
      </g>
     </g>
    </g>
    <g id="text_16">
     <!-- Density -->
     <defs>
      <path d="M 19.671875 64.796875 
L 19.671875 8.109375 
L 31.59375 8.109375 
Q 46.6875 8.109375 53.6875 14.9375 
Q 60.6875 21.78125 60.6875 36.53125 
Q 60.6875 51.171875 53.6875 57.984375 
Q 46.6875 64.796875 31.59375 64.796875 
z
M 9.8125 72.90625 
L 30.078125 72.90625 
Q 51.265625 72.90625 61.171875 64.09375 
Q 71.09375 55.28125 71.09375 36.53125 
Q 71.09375 17.671875 61.125 8.828125 
Q 51.171875 0 30.078125 0 
L 9.8125 0 
z
" id="DejaVuSans-68"/>
      <path d="M 56.203125 29.59375 
L 56.203125 25.203125 
L 14.890625 25.203125 
Q 15.484375 15.921875 20.484375 11.0625 
Q 25.484375 6.203125 34.421875 6.203125 
Q 39.59375 6.203125 44.453125 7.46875 
Q 49.3125 8.734375 54.109375 11.28125 
L 54.109375 2.78125 
Q 49.265625 0.734375 44.1875 -0.34375 
Q 39.109375 -1.421875 33.890625 -1.421875 
Q 20.796875 -1.421875 13.15625 6.1875 
Q 5.515625 13.8125 5.515625 26.8125 
Q 5.515625 40.234375 12.765625 48.109375 
Q 20.015625 56 32.328125 56 
Q 43.359375 56 49.78125 48.890625 
Q 56.203125 41.796875 56.203125 29.59375 
z
M 47.21875 32.234375 
Q 47.125 39.59375 43.09375 43.984375 
Q 39.0625 48.390625 32.421875 48.390625 
Q 24.90625 48.390625 20.390625 44.140625 
Q 15.875 39.890625 15.1875 32.171875 
z
" id="DejaVuSans-101"/>
      <path d="M 32.171875 -5.078125 
Q 28.375 -14.84375 24.75 -17.8125 
Q 21.140625 -20.796875 15.09375 -20.796875 
L 7.90625 -20.796875 
L 7.90625 -13.28125 
L 13.1875 -13.28125 
Q 16.890625 -13.28125 18.9375 -11.515625 
Q 21 -9.765625 23.484375 -3.21875 
L 25.09375 0.875 
L 2.984375 54.6875 
L 12.5 54.6875 
L 29.59375 11.921875 
L 46.6875 54.6875 
L 56.203125 54.6875 
z
" id="DejaVuSans-121"/>
     </defs>
     <g transform="translate(13.325625 231.553781)rotate(-90)scale(0.3 -0.3)">
      <use xlink:href="#DejaVuSans-68"/>
      <use x="77.001953" xlink:href="#DejaVuSans-101"/>
      <use x="138.525391" xlink:href="#DejaVuSans-110"/>
      <use x="201.904297" xlink:href="#DejaVuSans-115"/>
      <use x="254.003906" xlink:href="#DejaVuSans-105"/>
      <use x="281.787109" xlink:href="#DejaVuSans-116"/>
      <use x="320.996094" xlink:href="#DejaVuSans-121"/>
     </g>
    </g>
   </g>
   <g id="line2d_15">
    <path clip-path="url(#pc672e85bde)" d="M 96.377913 305.867512 
L 97.303561 306.610063 
L 98.243025 306.993831 
L 98.823283 307.328901 
L 99.141042 307.24036 
L 99.541696 306.853068 
L 101.33773 304.830718 
L 101.917988 304.715311 
L 102.277194 304.847676 
L 102.636401 305.252544 
L 103.340999 306.098705 
L 103.658759 306.073559 
L 104.059413 306.067656 
L 104.349541 306.337219 
L 105.040324 307.065669 
L 105.261374 306.983773 
L 105.537687 306.602367 
L 106.394257 305.233301 
L 106.615308 305.315246 
L 106.946883 305.733571 
L 107.831084 306.90978 
L 108.148844 306.983316 
L 109.129755 306.942822 
L 110.152113 307.545959 
L 111.063946 307.583552 
L 112.100119 307.477171 
L 112.445511 307.205989 
L 112.804717 306.598187 
L 113.702735 304.906941 
L 113.937601 304.939693 
L 114.738908 305.310543 
L 115.098115 304.919791 
L 115.512584 304.587296 
L 115.775082 304.655199 
L 116.189551 305.065749 
L 116.673099 305.438617 
L 117.142831 305.480478 
L 117.5573 305.605979 
L 118.137557 305.83164 
L 118.358608 305.618074 
L 118.690183 304.90798 
L 119.201362 303.899166 
L 119.463859 303.804169 
L 119.878329 303.719956 
L 120.085563 303.345021 
L 120.403323 302.198279 
L 120.928318 300.389718 
L 121.107921 300.334342 
L 121.273709 300.612072 
L 121.550022 301.633968 
L 122.544749 305.770046 
L 122.724352 305.807648 
L 122.903956 305.531529 
L 123.235531 304.465058 
L 123.74671 302.973267 
L 124.050654 302.698157 
L 124.976303 302.509062 
L 125.708532 302.399552 
L 126.026292 302.589652 
L 126.675627 303.05691 
L 126.910493 302.86781 
L 127.463119 302.364561 
L 127.670354 302.531078 
L 128.333505 303.254602 
L 128.513108 302.989849 
L 128.775606 302.123509 
L 129.908489 297.763769 
L 130.060461 297.835712 
L 130.267695 298.278049 
L 131.303869 301.017045 
L 132.28478 301.863483 
L 132.699249 302.098703 
L 133.168981 302.074443 
L 133.804501 301.84486 
L 134.09463 301.484272 
L 134.384758 300.721219 
L 134.826859 298.787607 
L 135.517641 295.961338 
L 136.056452 294.69061 
L 136.595262 293.919992 
L 136.940653 293.761688 
L 137.368938 293.845808 
L 137.672882 294.094103 
L 137.921564 294.655268 
L 138.239324 296.031756 
L 138.971553 299.350149 
L 139.206419 299.601015 
L 139.372207 299.490534 
L 139.593257 298.999451 
L 139.938648 297.588136 
L 140.72614 294.276931 
L 141.030085 293.883637 
L 141.306398 293.861051 
L 141.58271 294.056826 
L 141.859023 294.557289 
L 142.577437 296.070007 
L 142.729409 295.909979 
L 143.019538 295.152109 
L 143.406376 294.319832 
L 143.599795 294.31587 
L 144.221499 294.626061 
L 144.414918 294.149806 
L 144.691231 292.761331 
L 145.147147 289.053511 
L 145.630695 285.662514 
L 145.824114 285.353277 
L 145.934639 285.501961 
L 146.141874 286.284142 
L 147.053707 290.297407 
L 147.426729 290.844027 
L 148.076065 291.549534 
L 148.50435 292.135799 
L 148.642506 292.008265 
L 148.835925 291.401131 
L 149.153685 289.486731 
L 150.106965 283.450371 
L 150.424725 282.626456 
L 150.590512 282.600732 
L 150.770116 282.877805 
L 151.129323 284.006584 
L 151.460898 284.749303 
L 151.599055 284.711446 
L 151.778658 284.317786 
L 152.400362 282.667652 
L 152.414178 282.673065 
L 152.552334 282.863659 
L 152.828647 283.770866 
L 153.491798 285.915339 
L 153.975346 287.634205 
L 154.320737 288.539493 
L 154.445078 288.506226 
L 154.59705 288.12284 
L 154.845732 286.753591 
L 155.605592 282.211756 
L 155.702302 282.216096 
L 155.716117 282.233172 
L 155.854274 282.62814 
L 156.08914 284.127477 
L 157.04242 291.050832 
L 157.788465 293.968316 
L 158.147671 295.075036 
L 158.327275 295.128942 
L 158.506878 294.875978 
L 158.97661 293.639255 
L 159.39108 292.862525 
L 159.598314 292.809817 
L 159.777918 293.022358 
L 160.068046 293.8133 
L 160.441069 294.664367 
L 160.551594 294.581331 
L 160.703566 294.054394 
L 160.938432 292.213838 
L 161.463427 285.555588 
L 161.808818 282.778759 
L 161.933159 282.585733 
L 161.96079 282.604786 
L 162.071315 282.895315 
L 162.27855 284.240885 
L 162.789729 289.639769 
L 163.190383 292.651034 
L 163.411433 293.082159 
L 163.535774 292.971002 
L 163.784455 292.312229 
L 164.198925 291.378439 
L 164.419975 291.333986 
L 164.710104 291.295502 
L 164.875892 290.947493 
L 165.096942 289.843664 
L 165.497596 286.339956 
L 165.912065 283.409702 
L 166.105484 283.113193 
L 166.229825 283.294853 
L 166.464691 284.181469 
L 167.141658 286.862573 
L 167.348892 287.016774 
L 167.487049 286.860983 
L 167.694284 286.195408 
L 168.05349 284.059429 
L 168.440329 282.213129 
L 168.537038 282.166497 
L 168.564669 282.193564 
L 168.68901 282.538544 
L 168.923876 284.033899 
L 169.476502 287.669562 
L 169.573212 287.73198 
L 169.614659 287.688532 
L 169.752815 287.268033 
L 170.084391 285.257795 
L 170.443597 283.674922 
L 170.609385 283.583093 
L 170.775173 283.802938 
L 171.231089 284.472555 
L 171.369246 284.316693 
L 171.562665 283.629022 
L 171.838978 281.65543 
L 172.695548 274.876791 
L 172.902783 274.655701 
L 173.123833 274.786525 
L 173.455408 274.919456 
L 173.731721 274.735963 
L 174.077113 274.576237 
L 174.270532 274.742976 
L 174.546845 275.350686 
L 175.223811 276.933346 
L 175.403415 276.913884 
L 176.025119 276.558329 
L 176.038934 276.578573 
L 176.246169 277.111038 
L 176.881689 279.068996 
L 176.895505 279.061829 
L 177.00603 278.863243 
L 177.185633 277.97493 
L 177.489577 275.087726 
L 178.056019 269.789285 
L 178.207991 269.522587 
L 178.235622 269.544879 
L 178.359963 269.899246 
L 178.594829 271.469617 
L 179.216533 275.832369 
L 179.382321 276.006 
L 179.396137 275.999168 
L 179.534293 275.783489 
L 179.852053 274.704561 
L 180.363232 273.19386 
L 180.667176 272.864084 
L 180.860595 272.925083 
L 181.095461 273.302464 
L 181.827691 274.688929 
L 182.076372 274.6073 
L 182.311238 274.603629 
L 182.46321 274.877622 
L 182.670445 275.826741 
L 182.988205 278.56818 
L 183.609909 283.860069 
L 183.789512 284.190897 
L 183.803328 284.186162 
L 183.913853 283.992246 
L 184.093457 283.106596 
L 184.411217 280.157591 
L 184.991474 274.852937 
L 185.143446 274.588027 
L 185.171077 274.608233 
L 185.295418 274.943316 
L 185.530284 276.434055 
L 186.234882 281.197566 
L 186.414485 281.409609 
L 186.428301 281.402992 
L 186.552642 281.188987 
L 186.746061 280.283577 
L 187.03619 277.658571 
L 187.975654 268.207973 
L 188.21052 267.739373 
L 188.348676 267.789997 
L 188.528279 268.171298 
L 188.790777 269.375979 
L 189.619716 273.861938 
L 189.633531 273.859206 
L 189.744056 273.711529 
L 189.965107 272.896238 
L 190.531548 270.738115 
L 190.835493 270.487732 
L 191.015096 270.17086 
L 191.208515 269.249023 
L 191.498644 266.515883 
L 191.996007 262.023531 
L 192.078901 261.941456 
L 192.120348 262.005288 
L 192.244689 262.617433 
L 192.479555 265.253305 
L 193.225599 274.454839 
L 193.432834 274.914364 
L 193.570991 274.842504 
L 193.916382 274.595334 
L 194.054538 274.85556 
L 194.261773 275.844199 
L 194.745321 279.729457 
L 195.035449 281.056942 
L 195.118343 281.064331 
L 195.145974 281.025293 
L 195.284131 280.524285 
L 195.532813 278.552984 
L 196.265042 272.365996 
L 196.568986 271.611115 
L 196.983456 270.761781 
L 197.370294 269.193897 
L 197.784763 267.837616 
L 197.92292 267.836298 
L 198.074892 268.198715 
L 198.323573 269.528865 
L 199.014356 273.483725 
L 199.290669 273.85482 
L 199.580797 274.200121 
L 199.843294 274.986201 
L 200.313026 276.379514 
L 200.423552 276.327851 
L 200.575524 275.887162 
L 200.824205 274.282325 
L 201.293937 269.386729 
L 201.860379 264.110875 
L 202.095245 263.482738 
L 202.20577 263.598461 
L 202.385374 264.245597 
L 203.034709 266.884053 
L 203.145234 266.725559 
L 203.324838 265.936677 
L 203.684044 263.035173 
L 204.098514 260.267279 
L 204.23667 260.079057 
L 204.264302 260.097093 
L 204.388642 260.403422 
L 204.609693 261.717271 
L 205.245213 265.741386 
L 205.328106 265.754531 
L 205.355738 265.721365 
L 205.493894 265.279263 
L 205.72876 263.57891 
L 206.157045 258.441451 
L 206.834012 250.709079 
L 207.096509 249.688358 
L 207.207034 249.664863 
L 207.234666 249.695672 
L 207.372822 250.069161 
L 207.593873 251.442993 
L 207.911632 255.045375 
L 208.71294 264.670538 
L 208.93399 265.195112 
L 209.058331 265.095472 
L 209.320828 264.440017 
L 209.652404 263.829834 
L 209.804376 263.887489 
L 210.011611 264.307839 
L 210.398449 265.071219 
L 210.495158 264.906672 
L 210.647131 264.056986 
L 210.868181 261.212931 
L 211.227388 252.924209 
L 211.849092 239.110193 
L 212.153036 236.575976 
L 212.360271 236.199863 
L 212.498427 236.321592 
L 212.843818 237.106884 
L 213.147763 237.539661 
L 213.31355 237.48865 
L 213.534601 237.10618 
L 214.322093 235.459603 
L 214.501696 235.567644 
L 214.847087 236.147428 
L 215.178663 236.515131 
L 215.330635 236.398213 
L 215.510238 235.886265 
L 215.75892 234.36233 
L 216.187205 229.95235 
L 216.61549 226.407249 
L 216.739831 226.185645 
L 216.781278 226.218479 
L 216.891803 226.573039 
L 217.099038 228.21561 
L 218.01087 237.383489 
L 218.052317 237.339195 
L 218.176658 236.838482 
L 218.397709 234.749577 
L 219.309541 224.754578 
L 219.516776 224.450465 
L 219.682564 224.565194 
L 220.041771 224.836938 
L 220.179927 224.611925 
L 220.373346 223.736997 
L 220.649659 221.188961 
L 221.09176 214.547889 
L 222.100302 199.032544 
L 222.597665 194.870929 
L 222.818716 194.258252 
L 222.90161 194.403969 
L 223.039766 195.223183 
L 223.260816 198.115263 
L 223.75818 208.707314 
L 224.145018 214.505472 
L 224.352253 215.322488 
L 224.435146 215.20285 
L 224.587119 214.405906 
L 224.863431 211.484374 
L 225.858158 199.829109 
L 226.01013 199.648482 
L 226.023946 199.656831 
L 226.162102 199.907077 
L 226.562756 200.7797 
L 226.590387 200.763046 
L 226.714728 200.48399 
L 226.935779 199.221681 
L 227.446957 196.179991 
L 227.529851 196.195506 
L 227.543667 196.216929 
L 227.681823 196.699487 
L 228.220634 199.399396 
L 228.289712 199.281869 
L 228.427868 198.485143 
L 228.67655 195.339818 
L 229.464042 184.389936 
L 229.94759 179.846184 
L 230.375875 172.316895 
L 230.721266 167.950079 
L 230.776528 167.85795 
L 230.817975 167.936926 
L 230.928501 168.805875 
L 231.12192 172.620581 
L 231.550205 187.178905 
L 231.923227 196.317466 
L 232.116646 197.433674 
L 232.185724 197.282323 
L 232.337697 196.20008 
L 232.876507 189.751909 
L 233.180451 184.91287 
L 233.387686 177.407209 
L 233.622552 159.872 
L 233.967943 113.524582 
L 234.437675 56.163738 
L 234.534384 54.144 
L 234.575831 54.702238 
L 234.686357 60.30019 
L 234.907407 86.505382 
L 235.694899 190.298965 
L 235.985027 200.633068 
L 236.219893 202.86573 
L 236.316603 202.991313 
L 236.35805 202.949394 
L 236.482391 202.53141 
L 236.689625 200.926201 
L 236.979754 196.640866 
L 237.919218 179.450884 
L 237.974481 179.556566 
L 238.098821 180.557378 
L 238.319872 184.674045 
L 238.900129 201.633034 
L 239.328414 210.328064 
L 239.577096 212.058911 
L 239.646174 212.109995 
L 239.687621 212.058199 
L 239.811962 211.563453 
L 240.046828 209.520635 
L 240.875766 201.525222 
L 241.027739 201.339178 
L 241.05537 201.35596 
L 241.193526 201.641692 
L 241.456024 202.871067 
L 242.105359 207.336958 
L 242.602722 210.20068 
L 242.713248 210.308831 
L 242.754694 210.272337 
L 242.892851 209.849494 
L 243.417846 207.17106 
L 243.514555 207.410434 
L 243.666527 208.720448 
L 243.929025 213.480563 
L 244.592176 226.18282 
L 244.771779 226.825286 
L 244.785595 226.816242 
L 244.882304 226.544289 
L 245.075723 225.103406 
L 245.946109 217.484949 
L 246.139528 217.312989 
L 246.636891 217.279125 
L 247.161886 216.543423 
L 247.217149 216.60673 
L 247.369121 217.065999 
L 247.617802 218.727178 
L 248.543451 225.872614 
L 248.64016 225.871602 
L 248.653976 225.853639 
L 248.792132 225.432609 
L 249.040814 223.72101 
L 249.759228 218.381112 
L 249.952647 218.164029 
L 250.104619 218.321647 
L 250.367116 219.019194 
L 250.67106 220.502508 
L 250.975005 223.314665 
L 251.9421 233.883411 
L 251.955915 233.879304 
L 252.052625 233.664537 
L 252.218413 232.568947 
L 252.494726 228.942737 
L 252.936826 219.617022 
L 253.544715 207.463696 
L 253.738134 206.500985 
L 253.75195 206.504843 
L 253.834844 206.720382 
L 254.000631 208.013497 
L 254.857201 216.225051 
L 254.953911 216.072943 
L 255.133514 215.225244 
L 255.865744 211.282108 
L 255.990084 211.353842 
L 256.183504 211.885783 
L 256.694682 214.235364 
L 257.040074 216.661413 
L 257.385465 221.042069 
L 258.642689 239.012737 
L 259.084789 241.964897 
L 259.361102 242.635357 
L 259.499259 242.58102 
L 259.678862 242.141093 
L 260.107147 240.222632 
L 260.369645 239.578862 
L 260.48017 239.642792 
L 260.645958 240.126931 
L 261.088058 242.472151 
L 261.433449 243.620297 
L 261.668315 243.820259 
L 261.847919 243.715764 
L 262.068969 243.260056 
L 262.400545 241.923246 
L 262.815014 240.491231 
L 262.925539 240.505288 
L 262.939355 240.523566 
L 263.091327 240.967256 
L 263.381456 242.725431 
L 263.754478 244.567321 
L 263.865003 244.615196 
L 263.892635 244.586696 
L 264.044607 244.192067 
L 264.514339 242.787528 
L 264.528154 242.793905 
L 264.63868 242.994011 
L 264.845914 243.997431 
L 265.412356 246.95439 
L 265.509065 246.945128 
L 265.522881 246.926976 
L 265.661037 246.524189 
L 265.923535 244.8595 
L 266.807736 238.644264 
L 267.028787 238.326762 
L 267.166943 238.450495 
L 267.401809 239.073258 
L 267.899172 240.362006 
L 268.051144 240.341993 
L 268.258379 239.98854 
L 268.617586 239.432626 
L 268.728111 239.593324 
L 268.893899 240.339372 
L 269.156396 242.752679 
L 269.847179 249.449441 
L 270.026782 249.74675 
L 270.040598 249.741188 
L 270.164938 249.531357 
L 270.399804 248.522938 
L 271.076771 245.378603 
L 271.187296 245.434359 
L 271.339268 245.922892 
L 271.601766 247.713416 
L 272.12676 251.25416 
L 272.22347 251.32386 
L 272.251101 251.295172 
L 272.375442 250.900002 
L 272.596492 249.267102 
L 273.342537 243.123027 
L 273.480694 242.992052 
L 273.508325 243.01235 
L 273.646482 243.321646 
L 273.908979 244.619777 
L 274.57213 247.97563 
L 275.359622 250.380471 
L 275.74646 253.311513 
L 276.616846 260.273666 
L 276.741186 260.415269 
L 276.782633 260.38393 
L 276.92079 260.006909 
L 277.183287 258.403385 
L 277.735913 255.108828 
L 277.943148 254.866699 
L 278.081304 255.002274 
L 278.31617 255.6308 
L 279.034584 257.884748 
L 279.062215 257.8721 
L 279.186556 257.64538 
L 279.393791 256.680301 
L 280.098389 252.93377 
L 280.208914 253.01012 
L 280.388517 253.566895 
L 281.024037 255.834585 
L 281.162194 255.769621 
L 281.466138 255.22444 
L 281.714819 255.00209 
L 281.880607 255.126336 
L 282.281261 255.856474 
L 282.889149 256.701876 
L 283.165462 256.865296 
L 283.33125 256.69546 
L 283.566116 256.027122 
L 284.270714 253.780927 
L 284.408871 253.814633 
L 284.574658 254.165971 
L 284.82334 255.323583 
L 285.431229 259.716299 
L 285.762804 261.135538 
L 285.887145 261.215855 
L 285.914776 261.194273 
L 286.052933 260.858832 
L 286.260167 259.632131 
L 286.63319 255.75784 
L 287.033844 252.334239 
L 287.144369 252.162911 
L 287.185816 252.211765 
L 287.310157 252.724513 
L 287.545023 254.938482 
L 288.277252 262.424122 
L 289.575923 268.53833 
L 289.61737 268.512159 
L 289.74171 268.165552 
L 289.948945 266.730104 
L 290.349599 261.956475 
L 291.01275 254.572516 
L 291.344326 252.872464 
L 291.454851 252.78265 
L 291.482482 252.805925 
L 291.606823 253.152909 
L 291.814058 254.607122 
L 292.601549 261.559908 
L 292.642996 261.530595 
L 292.753522 261.181474 
L 292.988388 259.473102 
L 293.430488 256.51132 
L 293.513382 256.460425 
L 293.554829 256.514571 
L 293.692986 257.070351 
L 293.941667 259.295946 
L 294.729159 267.133622 
L 294.812053 267.192258 
L 294.8535 267.138733 
L 294.991656 266.58653 
L 295.281785 264.16055 
L 295.654807 261.601817 
L 295.751517 261.509622 
L 295.792964 261.559422 
L 295.917305 262.020155 
L 296.152171 263.949306 
L 297.409395 276.048828 
L 297.630445 276.369868 
L 297.754786 276.229684 
L 297.96202 275.546229 
L 298.404121 273.04896 
L 299.039641 269.942066 
L 299.606083 267.001457 
L 300.794228 260.409704 
L 300.890938 260.413907 
L 300.904753 260.43229 
L 301.04291 260.873539 
L 301.277776 262.609961 
L 302.023821 268.664449 
L 302.272502 269.092719 
L 302.769866 269.567649 
L 303.115257 270.547823 
L 303.557358 271.596988 
L 303.888933 271.790422 
L 304.096168 272.041423 
L 304.344849 272.791899 
L 304.897475 274.57202 
L 305.008001 274.494476 
L 305.173788 273.967336 
L 305.463917 272.087959 
L 306.209962 267.063848 
L 307.011269 264.085859 
L 307.13561 263.996846 
L 307.163241 264.021929 
L 307.287582 264.382309 
L 307.481001 265.844484 
L 307.826393 270.68177 
L 308.337571 277.057156 
L 308.682963 278.685137 
L 309.028354 280.393753 
L 309.58098 283.285883 
L 309.677689 283.217558 
L 309.815846 282.677127 
L 310.078343 280.490398 
L 310.617153 276.029689 
L 310.741494 275.868716 
L 310.769125 275.892522 
L 310.893466 276.253972 
L 311.128332 277.840767 
L 311.92964 283.760662 
L 312.357925 285.155409 
L 312.551344 285.285226 
L 312.675685 285.069147 
L 312.869104 284.149249 
L 313.186864 281.243592 
L 313.794752 275.818299 
L 314.001987 275.387689 
L 314.112512 275.498057 
L 314.305931 276.154622 
L 314.678954 278.426099 
L 316.171043 288.139112 
L 316.295384 287.976369 
L 316.53025 287.153825 
L 317.06906 285.300925 
L 317.635502 283.991151 
L 317.967078 282.179262 
L 318.547335 279.083815 
L 318.699307 278.977946 
L 318.713123 278.988083 
L 318.851279 279.25742 
L 319.127592 280.44094 
L 319.542061 281.983981 
L 319.707849 282.030972 
L 319.873637 281.745694 
L 320.495341 280.438382 
L 320.509157 280.445016 
L 320.647313 280.648469 
L 320.854548 281.430006 
L 321.186123 283.706388 
L 321.807827 287.948179 
L 321.987431 288.153435 
L 322.125587 287.950737 
L 322.761107 286.527775 
L 322.802554 286.557828 
L 322.995973 286.90985 
L 323.410443 287.646619 
L 323.534783 287.496005 
L 323.714387 286.825148 
L 324.045962 284.506273 
L 324.52951 281.517379 
L 324.736745 281.262558 
L 324.874901 281.43951 
L 325.220292 282.4349 
L 325.510421 282.953348 
L 325.676209 282.911953 
L 326.159756 282.527202 
L 326.187388 282.559815 
L 326.353175 282.980946 
L 326.643304 284.488518 
L 327.085405 286.496622 
L 327.209745 286.555954 
L 327.237377 286.53201 
L 327.389349 286.180483 
L 327.720924 284.63502 
L 328.0525 283.53189 
L 328.163025 283.544509 
L 328.176841 283.562581 
L 328.328813 284.003172 
L 328.59131 285.650671 
L 329.420249 291.301453 
L 329.586037 291.466081 
L 329.599852 291.458162 
L 329.724193 291.237761 
L 329.945244 290.25459 
L 330.843261 285.604932 
L 331.299177 284.897298 
L 331.534043 284.800824 
L 331.686015 285.020318 
L 331.89325 285.846525 
L 332.21101 288.23778 
L 332.915608 293.579319 
L 333.205736 294.284516 
L 333.412971 294.33925 
L 333.689284 294.122015 
L 334.214279 293.730969 
L 334.46296 293.829188 
L 334.78072 294.257969 
L 335.236636 294.81476 
L 335.41624 294.740644 
L 335.651106 294.332651 
L 336.949777 291.569764 
L 337.198458 291.429818 
L 337.364246 291.593623 
L 337.599112 292.234826 
L 337.999766 294.149938 
L 338.71818 297.427348 
L 339.022124 298.01794 
L 339.187912 297.986808 
L 339.367515 297.62739 
L 339.685275 296.351933 
L 340.279348 294.077607 
L 340.624739 293.554441 
L 340.887236 293.487473 
L 341.094471 293.671478 
L 341.384599 294.294227 
L 341.951041 295.511762 
L 342.130644 295.503576 
L 342.351695 295.212949 
L 343.31879 293.216597 
L 343.705628 291.74869 
L 344.189176 290.106247 
L 344.341148 290.082201 
L 344.49312 290.398073 
L 344.727986 291.517057 
L 345.916132 298.269317 
L 346.123366 298.342134 
L 346.330601 298.129307 
L 346.924674 297.423124 
L 347.118093 297.548206 
L 347.435853 298.092664 
L 348.292423 299.604218 
L 348.623999 299.757925 
L 349.107546 299.918782 
L 349.480569 300.40344 
L 350.088457 301.13206 
L 350.447664 301.255601 
L 350.68253 301.117097 
L 350.945027 300.668506 
L 351.442391 299.223773 
L 351.801597 298.52918 
L 351.981201 298.526234 
L 352.202251 298.816108 
L 352.727246 299.552602 
L 352.906849 299.462481 
L 353.639078 298.826547 
L 353.956838 299.18887 
L 354.288414 299.437867 
L 354.495649 299.338482 
L 354.868671 298.820868 
L 355.200247 298.537015 
L 355.37985 298.642702 
L 355.628532 299.112225 
L 356.23642 300.319349 
L 356.416024 300.265887 
L 356.719968 299.837175 
L 357.023912 299.573398 
L 357.203515 299.709934 
L 357.50746 300.342519 
L 357.866667 300.912114 
L 358.032454 300.852725 
L 358.253505 300.444284 
L 359.317309 298.050471 
L 359.552175 297.98828 
L 359.731779 298.174619 
L 359.966645 298.790879 
L 361.002818 302.076212 
L 361.223869 301.992663 
L 361.583076 301.557893 
L 362.025176 300.676347 
L 362.840299 298.958791 
L 363.171875 298.774644 
L 363.544897 298.830809 
L 363.945551 299.10519 
L 364.290942 299.632248 
L 365.147513 301.120452 
L 366.335658 301.607011 
L 366.542893 301.207135 
L 366.833022 300.063837 
L 367.952089 294.999439 
L 368.269849 294.701898 
L 368.739581 294.611585 
L 368.988262 294.75026 
L 369.209313 295.17606 
L 369.499441 296.309516 
L 370.480352 300.648676 
L 370.659956 300.667414 
L 370.839559 300.371873 
L 371.115872 299.372654 
L 371.50271 297.023281 
L 372.317833 291.859069 
L 372.483621 291.708065 
L 372.497437 291.716116 
L 372.635593 291.971496 
L 372.67704 292.109329 
L 372.67704 292.109329 
" style="fill:none;stroke:#ff7f0e;stroke-linecap:square;stroke-width:1.5;"/>
   </g>
   <g id="patch_103">
    <path d="M 57.6 307.584 
L 57.6 41.472 
" style="fill:none;stroke:#000000;stroke-linecap:square;stroke-linejoin:miter;stroke-width:0.8;"/>
   </g>
   <g id="patch_104">
    <path d="M 414.72 307.584 
L 414.72 41.472 
" style="fill:none;stroke:#000000;stroke-linecap:square;stroke-linejoin:miter;stroke-width:0.8;"/>
   </g>
   <g id="patch_105">
    <path d="M 57.6 307.584 
L 414.72 307.584 
" style="fill:none;stroke:#000000;stroke-linecap:square;stroke-linejoin:miter;stroke-width:0.8;"/>
   </g>
   <g id="patch_106">
    <path d="M 57.6 41.472 
L 414.72 41.472 
" style="fill:none;stroke:#000000;stroke-linecap:square;stroke-linejoin:miter;stroke-width:0.8;"/>
   </g>
  </g>
 </g>
 <defs>
  <clipPath id="pc672e85bde">
   <rect height="266.112" width="357.12" x="57.6" y="41.472"/>
  </clipPath>
 </defs>
</svg>
