<?xml version="1.0" encoding="utf-8" standalone="no"?>
<!DOCTYPE svg PUBLIC "-//W3C//DTD SVG 1.1//EN"
  "http://www.w3.org/Graphics/SVG/1.1/DTD/svg11.dtd">
<!-- Created with matplotlib (https://matplotlib.org/) -->
<svg height="345.6pt" version="1.1" viewBox="0 0 460.8 345.6" width="460.8pt" xmlns="http://www.w3.org/2000/svg" xmlns:xlink="http://www.w3.org/1999/xlink">
 <defs>
  <style type="text/css">
*{stroke-linecap:butt;stroke-linejoin:round;}
  </style>
 </defs>
 <g id="figure_1">
  <g id="patch_1">
   <path d="M 0 345.6 
L 460.8 345.6 
L 460.8 0 
L 0 0 
z
" style="fill:#ffffff;"/>
  </g>
  <g id="axes_1">
   <g id="patch_2">
    <path d="M 57.6 307.584 
L 414.72 307.584 
L 414.72 41.472 
L 57.6 41.472 
z
" style="fill:#ffffff;"/>
   </g>
   <g id="patch_3">
    <path clip-path="url(#pb77e667f6f)" d="M 73.832727 307.584 
L 77.079268 307.584 
L 77.079268 307.066758 
L 73.832727 307.066758 
z
" style="fill:#1f77b4;"/>
   </g>
   <g id="patch_4">
    <path clip-path="url(#pb77e667f6f)" d="M 77.079268 307.584 
L 80.325822 307.584 
L 80.325822 307.06676 
L 77.079268 307.06676 
z
" style="fill:#1f77b4;"/>
   </g>
   <g id="patch_5">
    <path clip-path="url(#pb77e667f6f)" d="M 80.325835 307.584 
L 83.572375 307.584 
L 83.572375 307.325379 
L 80.325835 307.325379 
z
" style="fill:#1f77b4;"/>
   </g>
   <g id="patch_6">
    <path clip-path="url(#pb77e667f6f)" d="M 83.572362 307.584 
L 86.818903 307.584 
L 86.818903 307.066758 
L 83.572362 307.066758 
z
" style="fill:#1f77b4;"/>
   </g>
   <g id="patch_7">
    <path clip-path="url(#pb77e667f6f)" d="M 86.818903 307.584 
L 90.065457 307.584 
L 90.065457 306.290901 
L 86.818903 306.290901 
z
" style="fill:#1f77b4;"/>
   </g>
   <g id="patch_8">
    <path clip-path="url(#pb77e667f6f)" d="M 90.06547 307.584 
L 93.31201 307.584 
L 93.31201 306.549516 
L 90.06547 306.549516 
z
" style="fill:#1f77b4;"/>
   </g>
   <g id="patch_9">
    <path clip-path="url(#pb77e667f6f)" d="M 93.311997 307.584 
L 96.558551 307.584 
L 96.558551 306.549521 
L 93.311997 306.549521 
z
" style="fill:#1f77b4;"/>
   </g>
   <g id="patch_10">
    <path clip-path="url(#pb77e667f6f)" d="M 96.558551 307.584 
L 99.805091 307.584 
L 99.805091 307.066758 
L 96.558551 307.066758 
z
" style="fill:#1f77b4;"/>
   </g>
   <g id="patch_11">
    <path clip-path="url(#pb77e667f6f)" d="M 99.805105 307.584 
L 103.051645 307.584 
L 103.051645 305.515033 
L 99.805105 305.515033 
z
" style="fill:#1f77b4;"/>
   </g>
   <g id="patch_12">
    <path clip-path="url(#pb77e667f6f)" d="M 103.051632 307.584 
L 106.298186 307.584 
L 106.298186 306.80814 
L 103.051632 306.80814 
z
" style="fill:#1f77b4;"/>
   </g>
   <g id="patch_13">
    <path clip-path="url(#pb77e667f6f)" d="M 106.298186 307.584 
L 109.544726 307.584 
L 109.544726 306.549516 
L 106.298186 306.549516 
z
" style="fill:#1f77b4;"/>
   </g>
   <g id="patch_14">
    <path clip-path="url(#pb77e667f6f)" d="M 109.54474 307.584 
L 112.79128 307.584 
L 112.79128 307.584 
L 109.54474 307.584 
z
" style="fill:#1f77b4;"/>
   </g>
   <g id="patch_15">
    <path clip-path="url(#pb77e667f6f)" d="M 112.791267 307.584 
L 116.037821 307.584 
L 116.037821 305.515041 
L 112.791267 305.515041 
z
" style="fill:#1f77b4;"/>
   </g>
   <g id="patch_16">
    <path clip-path="url(#pb77e667f6f)" d="M 116.037821 307.584 
L 119.284361 307.584 
L 119.284361 305.773654 
L 116.037821 305.773654 
z
" style="fill:#1f77b4;"/>
   </g>
   <g id="patch_17">
    <path clip-path="url(#pb77e667f6f)" d="M 119.284361 307.584 
L 122.530915 307.584 
L 122.530915 303.704702 
L 119.284361 303.704702 
z
" style="fill:#1f77b4;"/>
   </g>
   <g id="patch_18">
    <path clip-path="url(#pb77e667f6f)" d="M 122.530915 307.584 
L 125.777456 307.584 
L 125.777456 304.480549 
L 122.530915 304.480549 
z
" style="fill:#1f77b4;"/>
   </g>
   <g id="patch_19">
    <path clip-path="url(#pb77e667f6f)" d="M 125.777456 307.584 
L 129.024003 307.584 
L 129.024003 303.704694 
L 125.777456 303.704694 
z
" style="fill:#1f77b4;"/>
   </g>
   <g id="patch_20">
    <path clip-path="url(#pb77e667f6f)" d="M 129.024003 307.584 
L 132.270543 307.584 
L 132.270543 300.342614 
L 129.024003 300.342614 
z
" style="fill:#1f77b4;"/>
   </g>
   <g id="patch_21">
    <path clip-path="url(#pb77e667f6f)" d="M 132.270537 307.584 
L 135.517084 307.584 
L 135.517084 301.377111 
L 132.270537 301.377111 
z
" style="fill:#1f77b4;"/>
   </g>
   <g id="patch_22">
    <path clip-path="url(#pb77e667f6f)" d="M 135.517091 307.584 
L 138.763638 307.584 
L 138.763638 295.946082 
L 135.517091 295.946082 
z
" style="fill:#1f77b4;"/>
   </g>
   <g id="patch_23">
    <path clip-path="url(#pb77e667f6f)" d="M 138.763631 307.584 
L 142.010178 307.584 
L 142.010178 296.463323 
L 138.763631 296.463323 
z
" style="fill:#1f77b4;"/>
   </g>
   <g id="patch_24">
    <path clip-path="url(#pb77e667f6f)" d="M 142.010185 307.584 
L 145.256725 307.584 
L 145.256725 296.980542 
L 142.010185 296.980542 
z
" style="fill:#1f77b4;"/>
   </g>
   <g id="patch_25">
    <path clip-path="url(#pb77e667f6f)" d="M 145.256725 307.584 
L 148.503273 307.584 
L 148.503273 291.290915 
L 145.256725 291.290915 
z
" style="fill:#1f77b4;"/>
   </g>
   <g id="patch_26">
    <path clip-path="url(#pb77e667f6f)" d="M 148.503266 307.584 
L 151.749813 307.584 
L 151.749813 289.480572 
L 148.503266 289.480572 
z
" style="fill:#1f77b4;"/>
   </g>
   <g id="patch_27">
    <path clip-path="url(#pb77e667f6f)" d="M 151.74982 307.584 
L 154.99636 307.584 
L 154.99636 289.480536 
L 151.74982 289.480536 
z
" style="fill:#1f77b4;"/>
   </g>
   <g id="patch_28">
    <path clip-path="url(#pb77e667f6f)" d="M 154.99636 307.584 
L 158.242908 307.584 
L 158.242908 289.997813 
L 154.99636 289.997813 
z
" style="fill:#1f77b4;"/>
   </g>
   <g id="patch_29">
    <path clip-path="url(#pb77e667f6f)" d="M 158.242901 307.584 
L 161.489448 307.584 
L 161.489448 294.65298 
L 158.242901 294.65298 
z
" style="fill:#1f77b4;"/>
   </g>
   <g id="patch_30">
    <path clip-path="url(#pb77e667f6f)" d="M 161.489455 307.584 
L 164.736002 307.584 
L 164.736002 287.92885 
L 161.489455 287.92885 
z
" style="fill:#1f77b4;"/>
   </g>
   <g id="patch_31">
    <path clip-path="url(#pb77e667f6f)" d="M 164.736002 307.584 
L 167.982542 307.584 
L 167.982542 286.894326 
L 164.736002 286.894326 
z
" style="fill:#1f77b4;"/>
   </g>
   <g id="patch_32">
    <path clip-path="url(#pb77e667f6f)" d="M 167.982536 307.584 
L 171.229083 307.584 
L 171.229083 283.532303 
L 167.982536 283.532303 
z
" style="fill:#1f77b4;"/>
   </g>
   <g id="patch_33">
    <path clip-path="url(#pb77e667f6f)" d="M 171.22909 307.584 
L 174.475637 307.584 
L 174.475637 277.066793 
L 171.22909 277.066793 
z
" style="fill:#1f77b4;"/>
   </g>
   <g id="patch_34">
    <path clip-path="url(#pb77e667f6f)" d="M 174.47563 307.584 
L 177.722177 307.584 
L 177.722177 277.842655 
L 174.47563 277.842655 
z
" style="fill:#1f77b4;"/>
   </g>
   <g id="patch_35">
    <path clip-path="url(#pb77e667f6f)" d="M 177.722184 307.584 
L 180.968728 307.584 
L 180.968728 273.704694 
L 177.722184 273.704694 
z
" style="fill:#1f77b4;"/>
   </g>
   <g id="patch_36">
    <path clip-path="url(#pb77e667f6f)" d="M 180.968731 307.584 
L 184.215275 307.584 
L 184.215275 279.652969 
L 180.968731 279.652969 
z
" style="fill:#1f77b4;"/>
   </g>
   <g id="patch_37">
    <path clip-path="url(#pb77e667f6f)" d="M 184.215272 307.584 
L 187.461819 307.584 
L 187.461819 276.032312 
L 184.215272 276.032312 
z
" style="fill:#1f77b4;"/>
   </g>
   <g id="patch_38">
    <path clip-path="url(#pb77e667f6f)" d="M 187.461819 307.584 
L 190.708363 307.584 
L 190.708363 264.911592 
L 187.461819 264.911592 
z
" style="fill:#1f77b4;"/>
   </g>
   <g id="patch_39">
    <path clip-path="url(#pb77e667f6f)" d="M 190.708363 307.584 
L 193.95491 307.584 
L 193.95491 267.756459 
L 190.708363 267.756459 
z
" style="fill:#1f77b4;"/>
   </g>
   <g id="patch_40">
    <path clip-path="url(#pb77e667f6f)" d="M 193.954913 307.584 
L 197.201457 307.584 
L 197.201457 274.221935 
L 193.954913 274.221935 
z
" style="fill:#1f77b4;"/>
   </g>
   <g id="patch_41">
    <path clip-path="url(#pb77e667f6f)" d="M 197.201454 307.584 
L 200.448001 307.584 
L 200.448001 272.153006 
L 197.201454 272.153006 
z
" style="fill:#1f77b4;"/>
   </g>
   <g id="patch_42">
    <path clip-path="url(#pb77e667f6f)" d="M 200.448001 307.584 
L 203.694545 307.584 
L 203.694545 266.204695 
L 200.448001 266.204695 
z
" style="fill:#1f77b4;"/>
   </g>
   <g id="patch_43">
    <path clip-path="url(#pb77e667f6f)" d="M 203.694545 307.584 
L 206.94109 307.584 
L 206.94109 258.4461 
L 203.694545 258.4461 
z
" style="fill:#1f77b4;"/>
   </g>
   <g id="patch_44">
    <path clip-path="url(#pb77e667f6f)" d="M 206.941089 307.584 
L 210.187634 307.584 
L 210.187634 253.790931 
L 206.941089 253.790931 
z
" style="fill:#1f77b4;"/>
   </g>
   <g id="patch_45">
    <path clip-path="url(#pb77e667f6f)" d="M 210.187636 307.584 
L 213.434181 307.584 
L 213.434181 239.566802 
L 210.187636 239.566802 
z
" style="fill:#1f77b4;"/>
   </g>
   <g id="patch_46">
    <path clip-path="url(#pb77e667f6f)" d="M 213.43418 307.584 
L 216.680725 307.584 
L 216.680725 230.256463 
L 213.43418 230.256463 
z
" style="fill:#1f77b4;"/>
   </g>
   <g id="patch_47">
    <path clip-path="url(#pb77e667f6f)" d="M 216.680727 307.584 
L 219.927272 307.584 
L 219.927272 225.859914 
L 216.680727 225.859914 
z
" style="fill:#1f77b4;"/>
   </g>
   <g id="patch_48">
    <path clip-path="url(#pb77e667f6f)" d="M 219.927272 307.584 
L 223.173818 307.584 
L 223.173818 205.687513 
L 219.927272 205.687513 
z
" style="fill:#1f77b4;"/>
   </g>
   <g id="patch_49">
    <path clip-path="url(#pb77e667f6f)" d="M 223.173818 307.584 
L 226.420363 307.584 
L 226.420363 208.273718 
L 223.173818 208.273718 
z
" style="fill:#1f77b4;"/>
   </g>
   <g id="patch_50">
    <path clip-path="url(#pb77e667f6f)" d="M 226.420363 307.584 
L 229.666909 307.584 
L 229.666909 198.187518 
L 226.420363 198.187518 
z
" style="fill:#1f77b4;"/>
   </g>
   <g id="patch_51">
    <path clip-path="url(#pb77e667f6f)" d="M 229.666909 307.584 
L 232.913454 307.584 
L 232.913454 185.515112 
L 229.666909 185.515112 
z
" style="fill:#1f77b4;"/>
   </g>
   <g id="patch_52">
    <path clip-path="url(#pb77e667f6f)" d="M 232.913455 307.584 
L 236.16 307.584 
L 236.16 138.963417 
L 232.913455 138.963417 
z
" style="fill:#1f77b4;"/>
   </g>
   <g id="patch_53">
    <path clip-path="url(#pb77e667f6f)" d="M 236.16 307.584 
L 239.406546 307.584 
L 239.406546 193.532348 
L 236.16 193.532348 
z
" style="fill:#1f77b4;"/>
   </g>
   <g id="patch_54">
    <path clip-path="url(#pb77e667f6f)" d="M 239.406546 307.584 
L 242.653091 307.584 
L 242.653091 210.859923 
L 239.406546 210.859923 
z
" style="fill:#1f77b4;"/>
   </g>
   <g id="patch_55">
    <path clip-path="url(#pb77e667f6f)" d="M 242.653091 307.584 
L 245.899637 307.584 
L 245.899637 219.911642 
L 242.653091 219.911642 
z
" style="fill:#1f77b4;"/>
   </g>
   <g id="patch_56">
    <path clip-path="url(#pb77e667f6f)" d="M 245.899637 307.584 
L 249.146182 307.584 
L 249.146182 219.13578 
L 245.899637 219.13578 
z
" style="fill:#1f77b4;"/>
   </g>
   <g id="patch_57">
    <path clip-path="url(#pb77e667f6f)" d="M 249.146182 307.584 
L 252.392728 307.584 
L 252.392728 226.118534 
L 249.146182 226.118534 
z
" style="fill:#1f77b4;"/>
   </g>
   <g id="patch_58">
    <path clip-path="url(#pb77e667f6f)" d="M 252.392726 307.584 
L 255.639271 307.584 
L 255.639271 220.428883 
L 252.392726 220.428883 
z
" style="fill:#1f77b4;"/>
   </g>
   <g id="patch_59">
    <path clip-path="url(#pb77e667f6f)" d="M 255.639273 307.584 
L 258.885819 307.584 
L 258.885819 229.221981 
L 255.639273 229.221981 
z
" style="fill:#1f77b4;"/>
   </g>
   <g id="patch_60">
    <path clip-path="url(#pb77e667f6f)" d="M 258.885817 307.584 
L 262.132363 307.584 
L 262.132363 243.70473 
L 258.885817 243.70473 
z
" style="fill:#1f77b4;"/>
   </g>
   <g id="patch_61">
    <path clip-path="url(#pb77e667f6f)" d="M 262.132363 307.584 
L 265.378905 307.584 
L 265.378905 243.704698 
L 262.132363 243.704698 
z
" style="fill:#1f77b4;"/>
   </g>
   <g id="patch_62">
    <path clip-path="url(#pb77e667f6f)" d="M 265.378908 307.584 
L 268.625455 307.584 
L 268.625455 239.825457 
L 265.378908 239.825457 
z
" style="fill:#1f77b4;"/>
   </g>
   <g id="patch_63">
    <path clip-path="url(#pb77e667f6f)" d="M 268.625458 307.584 
L 271.872002 307.584 
L 271.872002 243.187456 
L 268.625458 243.187456 
z
" style="fill:#1f77b4;"/>
   </g>
   <g id="patch_64">
    <path clip-path="url(#pb77e667f6f)" d="M 271.871999 307.584 
L 275.118546 307.584 
L 275.118546 240.342697 
L 271.871999 240.342697 
z
" style="fill:#1f77b4;"/>
   </g>
   <g id="patch_65">
    <path clip-path="url(#pb77e667f6f)" d="M 275.118546 307.584 
L 278.36509 307.584 
L 278.36509 259.221937 
L 275.118546 259.221937 
z
" style="fill:#1f77b4;"/>
   </g>
   <g id="patch_66">
    <path clip-path="url(#pb77e667f6f)" d="M 278.36509 307.584 
L 281.611637 307.584 
L 281.611637 254.566819 
L 278.36509 254.566819 
z
" style="fill:#1f77b4;"/>
   </g>
   <g id="patch_67">
    <path clip-path="url(#pb77e667f6f)" d="M 281.611641 307.584 
L 284.858184 307.584 
L 284.858184 251.463317 
L 281.611641 251.463317 
z
" style="fill:#1f77b4;"/>
   </g>
   <g id="patch_68">
    <path clip-path="url(#pb77e667f6f)" d="M 284.858181 307.584 
L 288.104728 307.584 
L 288.104728 256.377162 
L 284.858181 256.377162 
z
" style="fill:#1f77b4;"/>
   </g>
   <g id="patch_69">
    <path clip-path="url(#pb77e667f6f)" d="M 288.104728 307.584 
L 291.351275 307.584 
L 291.351275 261.80819 
L 288.104728 261.80819 
z
" style="fill:#1f77b4;"/>
   </g>
   <g id="patch_70">
    <path clip-path="url(#pb77e667f6f)" d="M 291.351275 307.584 
L 294.597816 307.584 
L 294.597816 255.601195 
L 291.351275 255.601195 
z
" style="fill:#1f77b4;"/>
   </g>
   <g id="patch_71">
    <path clip-path="url(#pb77e667f6f)" d="M 294.597816 307.584 
L 297.844363 307.584 
L 297.844363 267.239218 
L 294.597816 267.239218 
z
" style="fill:#1f77b4;"/>
   </g>
   <g id="patch_72">
    <path clip-path="url(#pb77e667f6f)" d="M 297.844357 307.584 
L 301.090904 307.584 
L 301.090904 265.170255 
L 297.844357 265.170255 
z
" style="fill:#1f77b4;"/>
   </g>
   <g id="patch_73">
    <path clip-path="url(#pb77e667f6f)" d="M 301.09091 307.584 
L 304.337458 307.584 
L 304.337458 270.342663 
L 301.09091 270.342663 
z
" style="fill:#1f77b4;"/>
   </g>
   <g id="patch_74">
    <path clip-path="url(#pb77e667f6f)" d="M 304.337458 307.584 
L 307.583998 307.584 
L 307.583998 271.377071 
L 304.337458 271.377071 
z
" style="fill:#1f77b4;"/>
   </g>
   <g id="patch_75">
    <path clip-path="url(#pb77e667f6f)" d="M 307.583992 307.584 
L 310.830539 307.584 
L 310.830539 281.20472 
L 307.583992 281.20472 
z
" style="fill:#1f77b4;"/>
   </g>
   <g id="patch_76">
    <path clip-path="url(#pb77e667f6f)" d="M 310.830545 307.584 
L 314.077092 307.584 
L 314.077092 282.239201 
L 310.830545 282.239201 
z
" style="fill:#1f77b4;"/>
   </g>
   <g id="patch_77">
    <path clip-path="url(#pb77e667f6f)" d="M 314.077086 307.584 
L 317.323633 307.584 
L 317.323633 286.377128 
L 314.077086 286.377128 
z
" style="fill:#1f77b4;"/>
   </g>
   <g id="patch_78">
    <path clip-path="url(#pb77e667f6f)" d="M 317.32364 307.584 
L 320.57018 307.584 
L 320.57018 281.980529 
L 317.32364 281.980529 
z
" style="fill:#1f77b4;"/>
   </g>
   <g id="patch_79">
    <path clip-path="url(#pb77e667f6f)" d="M 320.57018 307.584 
L 323.816727 307.584 
L 323.816727 286.377128 
L 320.57018 286.377128 
z
" style="fill:#1f77b4;"/>
   </g>
   <g id="patch_80">
    <path clip-path="url(#pb77e667f6f)" d="M 323.816721 307.584 
L 327.063268 307.584 
L 327.063268 281.46334 
L 323.816721 281.46334 
z
" style="fill:#1f77b4;"/>
   </g>
   <g id="patch_81">
    <path clip-path="url(#pb77e667f6f)" d="M 327.063275 307.584 
L 330.309815 307.584 
L 330.309815 288.446052 
L 327.063275 288.446052 
z
" style="fill:#1f77b4;"/>
   </g>
   <g id="patch_82">
    <path clip-path="url(#pb77e667f6f)" d="M 330.309815 307.584 
L 333.556362 307.584 
L 333.556362 288.704711 
L 330.309815 288.704711 
z
" style="fill:#1f77b4;"/>
   </g>
   <g id="patch_83">
    <path clip-path="url(#pb77e667f6f)" d="M 333.556356 307.584 
L 336.802903 307.584 
L 336.802903 290.773674 
L 333.556356 290.773674 
z
" style="fill:#1f77b4;"/>
   </g>
   <g id="patch_84">
    <path clip-path="url(#pb77e667f6f)" d="M 336.802909 307.584 
L 340.049457 307.584 
L 340.049457 296.204703 
L 336.802909 296.204703 
z
" style="fill:#1f77b4;"/>
   </g>
   <g id="patch_85">
    <path clip-path="url(#pb77e667f6f)" d="M 340.049457 307.584 
L 343.295997 307.584 
L 343.295997 295.428817 
L 340.049457 295.428817 
z
" style="fill:#1f77b4;"/>
   </g>
   <g id="patch_86">
    <path clip-path="url(#pb77e667f6f)" d="M 343.295991 307.584 
L 346.542531 307.584 
L 346.542531 296.980564 
L 343.295991 296.980564 
z
" style="fill:#1f77b4;"/>
   </g>
   <g id="patch_87">
    <path clip-path="url(#pb77e667f6f)" d="M 346.542558 307.584 
L 349.789098 307.584 
L 349.789098 299.825372 
L 346.542558 299.825372 
z
" style="fill:#1f77b4;"/>
   </g>
   <g id="patch_88">
    <path clip-path="url(#pb77e667f6f)" d="M 349.789085 307.584 
L 353.035639 307.584 
L 353.035639 301.377123 
L 349.789085 301.377123 
z
" style="fill:#1f77b4;"/>
   </g>
   <g id="patch_89">
    <path clip-path="url(#pb77e667f6f)" d="M 353.035639 307.584 
L 356.282179 307.584 
L 356.282179 300.342614 
L 353.035639 300.342614 
z
" style="fill:#1f77b4;"/>
   </g>
   <g id="patch_90">
    <path clip-path="url(#pb77e667f6f)" d="M 356.282179 307.584 
L 359.528733 307.584 
L 359.528733 301.377123 
L 356.282179 301.377123 
z
" style="fill:#1f77b4;"/>
   </g>
   <g id="patch_91">
    <path clip-path="url(#pb77e667f6f)" d="M 359.528746 307.584 
L 362.775287 307.584 
L 362.775287 301.89434 
L 359.528746 301.89434 
z
" style="fill:#1f77b4;"/>
   </g>
   <g id="patch_92">
    <path clip-path="url(#pb77e667f6f)" d="M 362.775274 307.584 
L 366.021814 307.584 
L 366.021814 301.377098 
L 362.775274 301.377098 
z
" style="fill:#1f77b4;"/>
   </g>
   <g id="patch_93">
    <path clip-path="url(#pb77e667f6f)" d="M 366.021814 307.584 
L 369.268368 307.584 
L 369.268368 299.566784 
L 366.021814 299.566784 
z
" style="fill:#1f77b4;"/>
   </g>
   <g id="patch_94">
    <path clip-path="url(#pb77e667f6f)" d="M 369.268381 307.584 
L 372.514922 307.584 
L 372.514922 299.04951 
L 369.268381 299.04951 
z
" style="fill:#1f77b4;"/>
   </g>
   <g id="patch_95">
    <path clip-path="url(#pb77e667f6f)" d="M 372.514909 307.584 
L 375.761449 307.584 
L 375.761449 301.635719 
L 372.514909 301.635719 
z
" style="fill:#1f77b4;"/>
   </g>
   <g id="patch_96">
    <path clip-path="url(#pb77e667f6f)" d="M 375.761449 307.584 
L 379.008003 307.584 
L 379.008003 303.187462 
L 375.761449 303.187462 
z
" style="fill:#1f77b4;"/>
   </g>
   <g id="patch_97">
    <path clip-path="url(#pb77e667f6f)" d="M 379.008016 307.584 
L 382.254557 307.584 
L 382.254557 304.221928 
L 379.008016 304.221928 
z
" style="fill:#1f77b4;"/>
   </g>
   <g id="patch_98">
    <path clip-path="url(#pb77e667f6f)" d="M 382.254543 307.584 
L 385.501097 307.584 
L 385.501097 304.221942 
L 382.254543 304.221942 
z
" style="fill:#1f77b4;"/>
   </g>
   <g id="patch_99">
    <path clip-path="url(#pb77e667f6f)" d="M 385.501097 307.584 
L 388.747638 307.584 
L 388.747638 306.032274 
L 385.501097 306.032274 
z
" style="fill:#1f77b4;"/>
   </g>
   <g id="patch_100">
    <path clip-path="url(#pb77e667f6f)" d="M 388.747651 307.584 
L 391.994192 307.584 
L 391.994192 306.290895 
L 388.747651 306.290895 
z
" style="fill:#1f77b4;"/>
   </g>
   <g id="patch_101">
    <path clip-path="url(#pb77e667f6f)" d="M 391.994178 307.584 
L 395.240732 307.584 
L 395.240732 305.773661 
L 391.994178 305.773661 
z
" style="fill:#1f77b4;"/>
   </g>
   <g id="patch_102">
    <path clip-path="url(#pb77e667f6f)" d="M 395.240732 307.584 
L 398.487273 307.584 
L 398.487273 307.066758 
L 395.240732 307.066758 
z
" style="fill:#1f77b4;"/>
   </g>
   <g id="matplotlib.axis_1">
    <g id="xtick_1">
     <g id="line2d_1">
      <defs>
       <path d="M 0 0 
L 0 3.5 
" id="m7c26ffd8a4" style="stroke:#000000;stroke-width:0.8;"/>
      </defs>
      <g>
       <use style="stroke:#000000;stroke-width:0.8;" x="68.746619" xlink:href="#m7c26ffd8a4" y="307.584"/>
      </g>
     </g>
     <g id="text_1">
      <!-- −3 -->
      <defs>
       <path d="M 10.59375 35.5 
L 73.1875 35.5 
L 73.1875 27.203125 
L 10.59375 27.203125 
z
" id="DejaVuSans-8722"/>
       <path d="M 40.578125 39.3125 
Q 47.65625 37.796875 51.625 33 
Q 55.609375 28.21875 55.609375 21.1875 
Q 55.609375 10.40625 48.1875 4.484375 
Q 40.765625 -1.421875 27.09375 -1.421875 
Q 22.515625 -1.421875 17.65625 -0.515625 
Q 12.796875 0.390625 7.625 2.203125 
L 7.625 11.71875 
Q 11.71875 9.328125 16.59375 8.109375 
Q 21.484375 6.890625 26.8125 6.890625 
Q 36.078125 6.890625 40.9375 10.546875 
Q 45.796875 14.203125 45.796875 21.1875 
Q 45.796875 27.640625 41.28125 31.265625 
Q 36.765625 34.90625 28.71875 34.90625 
L 20.21875 34.90625 
L 20.21875 43.015625 
L 29.109375 43.015625 
Q 36.375 43.015625 40.234375 45.921875 
Q 44.09375 48.828125 44.09375 54.296875 
Q 44.09375 59.90625 40.109375 62.90625 
Q 36.140625 65.921875 28.71875 65.921875 
Q 24.65625 65.921875 20.015625 65.03125 
Q 15.375 64.15625 9.8125 62.3125 
L 9.8125 71.09375 
Q 15.4375 72.65625 20.34375 73.4375 
Q 25.25 74.21875 29.59375 74.21875 
Q 40.828125 74.21875 47.359375 69.109375 
Q 53.90625 64.015625 53.90625 55.328125 
Q 53.90625 49.265625 50.4375 45.09375 
Q 46.96875 40.921875 40.578125 39.3125 
z
" id="DejaVuSans-51"/>
      </defs>
      <g transform="translate(56.215759 327.501344)scale(0.17 -0.17)">
       <use xlink:href="#DejaVuSans-8722"/>
       <use x="83.789062" xlink:href="#DejaVuSans-51"/>
      </g>
     </g>
    </g>
    <g id="xtick_2">
     <g id="line2d_2">
      <g>
       <use style="stroke:#000000;stroke-width:0.8;" x="124.009207" xlink:href="#m7c26ffd8a4" y="307.584"/>
      </g>
     </g>
     <g id="text_2">
      <!-- −2 -->
      <defs>
       <path d="M 19.1875 8.296875 
L 53.609375 8.296875 
L 53.609375 0 
L 7.328125 0 
L 7.328125 8.296875 
Q 12.9375 14.109375 22.625 23.890625 
Q 32.328125 33.6875 34.8125 36.53125 
Q 39.546875 41.84375 41.421875 45.53125 
Q 43.3125 49.21875 43.3125 52.78125 
Q 43.3125 58.59375 39.234375 62.25 
Q 35.15625 65.921875 28.609375 65.921875 
Q 23.96875 65.921875 18.8125 64.3125 
Q 13.671875 62.703125 7.8125 59.421875 
L 7.8125 69.390625 
Q 13.765625 71.78125 18.9375 73 
Q 24.125 74.21875 28.421875 74.21875 
Q 39.75 74.21875 46.484375 68.546875 
Q 53.21875 62.890625 53.21875 53.421875 
Q 53.21875 48.921875 51.53125 44.890625 
Q 49.859375 40.875 45.40625 35.40625 
Q 44.1875 33.984375 37.640625 27.21875 
Q 31.109375 20.453125 19.1875 8.296875 
z
" id="DejaVuSans-50"/>
      </defs>
      <g transform="translate(111.478348 327.501344)scale(0.17 -0.17)">
       <use xlink:href="#DejaVuSans-8722"/>
       <use x="83.789062" xlink:href="#DejaVuSans-50"/>
      </g>
     </g>
    </g>
    <g id="xtick_3">
     <g id="line2d_3">
      <g>
       <use style="stroke:#000000;stroke-width:0.8;" x="179.271796" xlink:href="#m7c26ffd8a4" y="307.584"/>
      </g>
     </g>
     <g id="text_3">
      <!-- −1 -->
      <defs>
       <path d="M 12.40625 8.296875 
L 28.515625 8.296875 
L 28.515625 63.921875 
L 10.984375 60.40625 
L 10.984375 69.390625 
L 28.421875 72.90625 
L 38.28125 72.90625 
L 38.28125 8.296875 
L 54.390625 8.296875 
L 54.390625 0 
L 12.40625 0 
z
" id="DejaVuSans-49"/>
      </defs>
      <g transform="translate(166.740936 327.501344)scale(0.17 -0.17)">
       <use xlink:href="#DejaVuSans-8722"/>
       <use x="83.789062" xlink:href="#DejaVuSans-49"/>
      </g>
     </g>
    </g>
    <g id="xtick_4">
     <g id="line2d_4">
      <g>
       <use style="stroke:#000000;stroke-width:0.8;" x="234.534384" xlink:href="#m7c26ffd8a4" y="307.584"/>
      </g>
     </g>
     <g id="text_4">
      <!-- 0 -->
      <defs>
       <path d="M 31.78125 66.40625 
Q 24.171875 66.40625 20.328125 58.90625 
Q 16.5 51.421875 16.5 36.375 
Q 16.5 21.390625 20.328125 13.890625 
Q 24.171875 6.390625 31.78125 6.390625 
Q 39.453125 6.390625 43.28125 13.890625 
Q 47.125 21.390625 47.125 36.375 
Q 47.125 51.421875 43.28125 58.90625 
Q 39.453125 66.40625 31.78125 66.40625 
z
M 31.78125 74.21875 
Q 44.046875 74.21875 50.515625 64.515625 
Q 56.984375 54.828125 56.984375 36.375 
Q 56.984375 17.96875 50.515625 8.265625 
Q 44.046875 -1.421875 31.78125 -1.421875 
Q 19.53125 -1.421875 13.0625 8.265625 
Q 6.59375 17.96875 6.59375 36.375 
Q 6.59375 54.828125 13.0625 64.515625 
Q 19.53125 74.21875 31.78125 74.21875 
z
" id="DejaVuSans-48"/>
      </defs>
      <g transform="translate(229.126259 327.501344)scale(0.17 -0.17)">
       <use xlink:href="#DejaVuSans-48"/>
      </g>
     </g>
    </g>
    <g id="xtick_5">
     <g id="line2d_5">
      <g>
       <use style="stroke:#000000;stroke-width:0.8;" x="289.796973" xlink:href="#m7c26ffd8a4" y="307.584"/>
      </g>
     </g>
     <g id="text_5">
      <!-- 1 -->
      <g transform="translate(284.388848 327.501344)scale(0.17 -0.17)">
       <use xlink:href="#DejaVuSans-49"/>
      </g>
     </g>
    </g>
    <g id="xtick_6">
     <g id="line2d_6">
      <g>
       <use style="stroke:#000000;stroke-width:0.8;" x="345.059562" xlink:href="#m7c26ffd8a4" y="307.584"/>
      </g>
     </g>
     <g id="text_6">
      <!-- 2 -->
      <g transform="translate(339.651437 327.501344)scale(0.17 -0.17)">
       <use xlink:href="#DejaVuSans-50"/>
      </g>
     </g>
    </g>
    <g id="xtick_7">
     <g id="line2d_7">
      <g>
       <use style="stroke:#000000;stroke-width:0.8;" x="400.32215" xlink:href="#m7c26ffd8a4" y="307.584"/>
      </g>
     </g>
     <g id="text_7">
      <!-- 3 -->
      <g transform="translate(394.914025 327.501344)scale(0.17 -0.17)">
       <use xlink:href="#DejaVuSans-51"/>
      </g>
     </g>
    </g>
    <g id="text_8">
     <!-- Position in Radian -->
     <defs>
      <path d="M 19.671875 64.796875 
L 19.671875 37.40625 
L 32.078125 37.40625 
Q 38.96875 37.40625 42.71875 40.96875 
Q 46.484375 44.53125 46.484375 51.125 
Q 46.484375 57.671875 42.71875 61.234375 
Q 38.96875 64.796875 32.078125 64.796875 
z
M 9.8125 72.90625 
L 32.078125 72.90625 
Q 44.34375 72.90625 50.609375 67.359375 
Q 56.890625 61.8125 56.890625 51.125 
Q 56.890625 40.328125 50.609375 34.8125 
Q 44.34375 29.296875 32.078125 29.296875 
L 19.671875 29.296875 
L 19.671875 0 
L 9.8125 0 
z
" id="DejaVuSans-80"/>
      <path d="M 30.609375 48.390625 
Q 23.390625 48.390625 19.1875 42.75 
Q 14.984375 37.109375 14.984375 27.296875 
Q 14.984375 17.484375 19.15625 11.84375 
Q 23.34375 6.203125 30.609375 6.203125 
Q 37.796875 6.203125 41.984375 11.859375 
Q 46.1875 17.53125 46.1875 27.296875 
Q 46.1875 37.015625 41.984375 42.703125 
Q 37.796875 48.390625 30.609375 48.390625 
z
M 30.609375 56 
Q 42.328125 56 49.015625 48.375 
Q 55.71875 40.765625 55.71875 27.296875 
Q 55.71875 13.875 49.015625 6.21875 
Q 42.328125 -1.421875 30.609375 -1.421875 
Q 18.84375 -1.421875 12.171875 6.21875 
Q 5.515625 13.875 5.515625 27.296875 
Q 5.515625 40.765625 12.171875 48.375 
Q 18.84375 56 30.609375 56 
z
" id="DejaVuSans-111"/>
      <path d="M 44.28125 53.078125 
L 44.28125 44.578125 
Q 40.484375 46.53125 36.375 47.5 
Q 32.28125 48.484375 27.875 48.484375 
Q 21.1875 48.484375 17.84375 46.4375 
Q 14.5 44.390625 14.5 40.28125 
Q 14.5 37.15625 16.890625 35.375 
Q 19.28125 33.59375 26.515625 31.984375 
L 29.59375 31.296875 
Q 39.15625 29.25 43.1875 25.515625 
Q 47.21875 21.78125 47.21875 15.09375 
Q 47.21875 7.46875 41.1875 3.015625 
Q 35.15625 -1.421875 24.609375 -1.421875 
Q 20.21875 -1.421875 15.453125 -0.5625 
Q 10.6875 0.296875 5.421875 2 
L 5.421875 11.28125 
Q 10.40625 8.6875 15.234375 7.390625 
Q 20.0625 6.109375 24.8125 6.109375 
Q 31.15625 6.109375 34.5625 8.28125 
Q 37.984375 10.453125 37.984375 14.40625 
Q 37.984375 18.0625 35.515625 20.015625 
Q 33.0625 21.96875 24.703125 23.78125 
L 21.578125 24.515625 
Q 13.234375 26.265625 9.515625 29.90625 
Q 5.8125 33.546875 5.8125 39.890625 
Q 5.8125 47.609375 11.28125 51.796875 
Q 16.75 56 26.8125 56 
Q 31.78125 56 36.171875 55.265625 
Q 40.578125 54.546875 44.28125 53.078125 
z
" id="DejaVuSans-115"/>
      <path d="M 9.421875 54.6875 
L 18.40625 54.6875 
L 18.40625 0 
L 9.421875 0 
z
M 9.421875 75.984375 
L 18.40625 75.984375 
L 18.40625 64.59375 
L 9.421875 64.59375 
z
" id="DejaVuSans-105"/>
      <path d="M 18.3125 70.21875 
L 18.3125 54.6875 
L 36.8125 54.6875 
L 36.8125 47.703125 
L 18.3125 47.703125 
L 18.3125 18.015625 
Q 18.3125 11.328125 20.140625 9.421875 
Q 21.96875 7.515625 27.59375 7.515625 
L 36.8125 7.515625 
L 36.8125 0 
L 27.59375 0 
Q 17.1875 0 13.234375 3.875 
Q 9.28125 7.765625 9.28125 18.015625 
L 9.28125 47.703125 
L 2.6875 47.703125 
L 2.6875 54.6875 
L 9.28125 54.6875 
L 9.28125 70.21875 
z
" id="DejaVuSans-116"/>
      <path d="M 54.890625 33.015625 
L 54.890625 0 
L 45.90625 0 
L 45.90625 32.71875 
Q 45.90625 40.484375 42.875 44.328125 
Q 39.84375 48.1875 33.796875 48.1875 
Q 26.515625 48.1875 22.3125 43.546875 
Q 18.109375 38.921875 18.109375 30.90625 
L 18.109375 0 
L 9.078125 0 
L 9.078125 54.6875 
L 18.109375 54.6875 
L 18.109375 46.1875 
Q 21.34375 51.125 25.703125 53.5625 
Q 30.078125 56 35.796875 56 
Q 45.21875 56 50.046875 50.171875 
Q 54.890625 44.34375 54.890625 33.015625 
z
" id="DejaVuSans-110"/>
      <path id="DejaVuSans-32"/>
      <path d="M 44.390625 34.1875 
Q 47.5625 33.109375 50.5625 29.59375 
Q 53.5625 26.078125 56.59375 19.921875 
L 66.609375 0 
L 56 0 
L 46.6875 18.703125 
Q 43.0625 26.03125 39.671875 28.421875 
Q 36.28125 30.8125 30.421875 30.8125 
L 19.671875 30.8125 
L 19.671875 0 
L 9.8125 0 
L 9.8125 72.90625 
L 32.078125 72.90625 
Q 44.578125 72.90625 50.734375 67.671875 
Q 56.890625 62.453125 56.890625 51.90625 
Q 56.890625 45.015625 53.6875 40.46875 
Q 50.484375 35.9375 44.390625 34.1875 
z
M 19.671875 64.796875 
L 19.671875 38.921875 
L 32.078125 38.921875 
Q 39.203125 38.921875 42.84375 42.21875 
Q 46.484375 45.515625 46.484375 51.90625 
Q 46.484375 58.296875 42.84375 61.546875 
Q 39.203125 64.796875 32.078125 64.796875 
z
" id="DejaVuSans-82"/>
      <path d="M 34.28125 27.484375 
Q 23.390625 27.484375 19.1875 25 
Q 14.984375 22.515625 14.984375 16.5 
Q 14.984375 11.71875 18.140625 8.90625 
Q 21.296875 6.109375 26.703125 6.109375 
Q 34.1875 6.109375 38.703125 11.40625 
Q 43.21875 16.703125 43.21875 25.484375 
L 43.21875 27.484375 
z
M 52.203125 31.203125 
L 52.203125 0 
L 43.21875 0 
L 43.21875 8.296875 
Q 40.140625 3.328125 35.546875 0.953125 
Q 30.953125 -1.421875 24.3125 -1.421875 
Q 15.921875 -1.421875 10.953125 3.296875 
Q 6 8.015625 6 15.921875 
Q 6 25.140625 12.171875 29.828125 
Q 18.359375 34.515625 30.609375 34.515625 
L 43.21875 34.515625 
L 43.21875 35.40625 
Q 43.21875 41.609375 39.140625 45 
Q 35.0625 48.390625 27.6875 48.390625 
Q 23 48.390625 18.546875 47.265625 
Q 14.109375 46.140625 10.015625 43.890625 
L 10.015625 52.203125 
Q 14.9375 54.109375 19.578125 55.046875 
Q 24.21875 56 28.609375 56 
Q 40.484375 56 46.34375 49.84375 
Q 52.203125 43.703125 52.203125 31.203125 
z
" id="DejaVuSans-97"/>
      <path d="M 45.40625 46.390625 
L 45.40625 75.984375 
L 54.390625 75.984375 
L 54.390625 0 
L 45.40625 0 
L 45.40625 8.203125 
Q 42.578125 3.328125 38.25 0.953125 
Q 33.9375 -1.421875 27.875 -1.421875 
Q 17.96875 -1.421875 11.734375 6.484375 
Q 5.515625 14.40625 5.515625 27.296875 
Q 5.515625 40.1875 11.734375 48.09375 
Q 17.96875 56 27.875 56 
Q 33.9375 56 38.25 53.625 
Q 42.578125 51.265625 45.40625 46.390625 
z
M 14.796875 27.296875 
Q 14.796875 17.390625 18.875 11.75 
Q 22.953125 6.109375 30.078125 6.109375 
Q 37.203125 6.109375 41.296875 11.75 
Q 45.40625 17.390625 45.40625 27.296875 
Q 45.40625 37.203125 41.296875 42.84375 
Q 37.203125 48.484375 30.078125 48.484375 
Q 22.953125 48.484375 18.875 42.84375 
Q 14.796875 37.203125 14.796875 27.296875 
z
" id="DejaVuSans-100"/>
     </defs>
     <g transform="translate(102.024844 357.832125)scale(0.3 -0.3)">
      <use xlink:href="#DejaVuSans-80"/>
      <use x="60.255859" xlink:href="#DejaVuSans-111"/>
      <use x="121.4375" xlink:href="#DejaVuSans-115"/>
      <use x="173.537109" xlink:href="#DejaVuSans-105"/>
      <use x="201.320312" xlink:href="#DejaVuSans-116"/>
      <use x="240.529297" xlink:href="#DejaVuSans-105"/>
      <use x="268.3125" xlink:href="#DejaVuSans-111"/>
      <use x="329.494141" xlink:href="#DejaVuSans-110"/>
      <use x="392.873047" xlink:href="#DejaVuSans-32"/>
      <use x="424.660156" xlink:href="#DejaVuSans-105"/>
      <use x="452.443359" xlink:href="#DejaVuSans-110"/>
      <use x="515.822266" xlink:href="#DejaVuSans-32"/>
      <use x="547.609375" xlink:href="#DejaVuSans-82"/>
      <use x="617.060547" xlink:href="#DejaVuSans-97"/>
      <use x="678.339844" xlink:href="#DejaVuSans-100"/>
      <use x="741.816406" xlink:href="#DejaVuSans-105"/>
      <use x="769.599609" xlink:href="#DejaVuSans-97"/>
      <use x="830.878906" xlink:href="#DejaVuSans-110"/>
     </g>
    </g>
   </g>
   <g id="matplotlib.axis_2">
    <g id="ytick_1">
     <g id="line2d_8">
      <defs>
       <path d="M 0 0 
L -3.5 0 
" id="m37a0b5403e" style="stroke:#000000;stroke-width:0.8;"/>
      </defs>
      <g>
       <use style="stroke:#000000;stroke-width:0.8;" x="57.6" xlink:href="#m37a0b5403e" y="307.584"/>
      </g>
     </g>
     <g id="text_9">
      <!-- 0.00 -->
      <defs>
       <path d="M 10.6875 12.40625 
L 21 12.40625 
L 21 0 
L 10.6875 0 
z
" id="DejaVuSans-46"/>
      </defs>
      <g transform="translate(12.748438 314.042672)scale(0.17 -0.17)">
       <use xlink:href="#DejaVuSans-48"/>
       <use x="63.623047" xlink:href="#DejaVuSans-46"/>
       <use x="95.410156" xlink:href="#DejaVuSans-48"/>
       <use x="159.033203" xlink:href="#DejaVuSans-48"/>
      </g>
     </g>
    </g>
    <g id="ytick_2">
     <g id="line2d_9">
      <g>
       <use style="stroke:#000000;stroke-width:0.8;" x="57.6" xlink:href="#m37a0b5403e" y="260.104812"/>
      </g>
     </g>
     <g id="text_10">
      <!-- 0.25 -->
      <defs>
       <path d="M 10.796875 72.90625 
L 49.515625 72.90625 
L 49.515625 64.59375 
L 19.828125 64.59375 
L 19.828125 46.734375 
Q 21.96875 47.46875 24.109375 47.828125 
Q 26.265625 48.1875 28.421875 48.1875 
Q 40.625 48.1875 47.75 41.5 
Q 54.890625 34.8125 54.890625 23.390625 
Q 54.890625 11.625 47.5625 5.09375 
Q 40.234375 -1.421875 26.90625 -1.421875 
Q 22.3125 -1.421875 17.546875 -0.640625 
Q 12.796875 0.140625 7.71875 1.703125 
L 7.71875 11.625 
Q 12.109375 9.234375 16.796875 8.0625 
Q 21.484375 6.890625 26.703125 6.890625 
Q 35.15625 6.890625 40.078125 11.328125 
Q 45.015625 15.765625 45.015625 23.390625 
Q 45.015625 31 40.078125 35.4375 
Q 35.15625 39.890625 26.703125 39.890625 
Q 22.75 39.890625 18.8125 39.015625 
Q 14.890625 38.140625 10.796875 36.28125 
z
" id="DejaVuSans-53"/>
      </defs>
      <g transform="translate(12.748438 266.563484)scale(0.17 -0.17)">
       <use xlink:href="#DejaVuSans-48"/>
       <use x="63.623047" xlink:href="#DejaVuSans-46"/>
       <use x="95.410156" xlink:href="#DejaVuSans-50"/>
       <use x="159.033203" xlink:href="#DejaVuSans-53"/>
      </g>
     </g>
    </g>
    <g id="ytick_3">
     <g id="line2d_10">
      <g>
       <use style="stroke:#000000;stroke-width:0.8;" x="57.6" xlink:href="#m37a0b5403e" y="212.625624"/>
      </g>
     </g>
     <g id="text_11">
      <!-- 0.50 -->
      <g transform="translate(12.748438 219.084295)scale(0.17 -0.17)">
       <use xlink:href="#DejaVuSans-48"/>
       <use x="63.623047" xlink:href="#DejaVuSans-46"/>
       <use x="95.410156" xlink:href="#DejaVuSans-53"/>
       <use x="159.033203" xlink:href="#DejaVuSans-48"/>
      </g>
     </g>
    </g>
    <g id="ytick_4">
     <g id="line2d_11">
      <g>
       <use style="stroke:#000000;stroke-width:0.8;" x="57.6" xlink:href="#m37a0b5403e" y="165.146435"/>
      </g>
     </g>
     <g id="text_12">
      <!-- 0.75 -->
      <defs>
       <path d="M 8.203125 72.90625 
L 55.078125 72.90625 
L 55.078125 68.703125 
L 28.609375 0 
L 18.3125 0 
L 43.21875 64.59375 
L 8.203125 64.59375 
z
" id="DejaVuSans-55"/>
      </defs>
      <g transform="translate(12.748438 171.605107)scale(0.17 -0.17)">
       <use xlink:href="#DejaVuSans-48"/>
       <use x="63.623047" xlink:href="#DejaVuSans-46"/>
       <use x="95.410156" xlink:href="#DejaVuSans-55"/>
       <use x="159.033203" xlink:href="#DejaVuSans-53"/>
      </g>
     </g>
    </g>
    <g id="ytick_5">
     <g id="line2d_12">
      <g>
       <use style="stroke:#000000;stroke-width:0.8;" x="57.6" xlink:href="#m37a0b5403e" y="117.667247"/>
      </g>
     </g>
     <g id="text_13">
      <!-- 1.00 -->
      <g transform="translate(12.748438 124.125919)scale(0.17 -0.17)">
       <use xlink:href="#DejaVuSans-49"/>
       <use x="63.623047" xlink:href="#DejaVuSans-46"/>
       <use x="95.410156" xlink:href="#DejaVuSans-48"/>
       <use x="159.033203" xlink:href="#DejaVuSans-48"/>
      </g>
     </g>
    </g>
    <g id="ytick_6">
     <g id="line2d_13">
      <g>
       <use style="stroke:#000000;stroke-width:0.8;" x="57.6" xlink:href="#m37a0b5403e" y="70.188059"/>
      </g>
     </g>
     <g id="text_14">
      <!-- 1.25 -->
      <g transform="translate(12.748438 76.646731)scale(0.17 -0.17)">
       <use xlink:href="#DejaVuSans-49"/>
       <use x="63.623047" xlink:href="#DejaVuSans-46"/>
       <use x="95.410156" xlink:href="#DejaVuSans-50"/>
       <use x="159.033203" xlink:href="#DejaVuSans-53"/>
      </g>
     </g>
    </g>
    <g id="text_15">
     <!-- Density -->
     <defs>
      <path d="M 19.671875 64.796875 
L 19.671875 8.109375 
L 31.59375 8.109375 
Q 46.6875 8.109375 53.6875 14.9375 
Q 60.6875 21.78125 60.6875 36.53125 
Q 60.6875 51.171875 53.6875 57.984375 
Q 46.6875 64.796875 31.59375 64.796875 
z
M 9.8125 72.90625 
L 30.078125 72.90625 
Q 51.265625 72.90625 61.171875 64.09375 
Q 71.09375 55.28125 71.09375 36.53125 
Q 71.09375 17.671875 61.125 8.828125 
Q 51.171875 0 30.078125 0 
L 9.8125 0 
z
" id="DejaVuSans-68"/>
      <path d="M 56.203125 29.59375 
L 56.203125 25.203125 
L 14.890625 25.203125 
Q 15.484375 15.921875 20.484375 11.0625 
Q 25.484375 6.203125 34.421875 6.203125 
Q 39.59375 6.203125 44.453125 7.46875 
Q 49.3125 8.734375 54.109375 11.28125 
L 54.109375 2.78125 
Q 49.265625 0.734375 44.1875 -0.34375 
Q 39.109375 -1.421875 33.890625 -1.421875 
Q 20.796875 -1.421875 13.15625 6.1875 
Q 5.515625 13.8125 5.515625 26.8125 
Q 5.515625 40.234375 12.765625 48.109375 
Q 20.015625 56 32.328125 56 
Q 43.359375 56 49.78125 48.890625 
Q 56.203125 41.796875 56.203125 29.59375 
z
M 47.21875 32.234375 
Q 47.125 39.59375 43.09375 43.984375 
Q 39.0625 48.390625 32.421875 48.390625 
Q 24.90625 48.390625 20.390625 44.140625 
Q 15.875 39.890625 15.1875 32.171875 
z
" id="DejaVuSans-101"/>
      <path d="M 32.171875 -5.078125 
Q 28.375 -14.84375 24.75 -17.8125 
Q 21.140625 -20.796875 15.09375 -20.796875 
L 7.90625 -20.796875 
L 7.90625 -13.28125 
L 13.1875 -13.28125 
Q 16.890625 -13.28125 18.9375 -11.515625 
Q 21 -9.765625 23.484375 -3.21875 
L 25.09375 0.875 
L 2.984375 54.6875 
L 12.5 54.6875 
L 29.59375 11.921875 
L 46.6875 54.6875 
L 56.203125 54.6875 
z
" id="DejaVuSans-121"/>
     </defs>
     <g transform="translate(2.509375 231.553781)rotate(-90)scale(0.3 -0.3)">
      <use xlink:href="#DejaVuSans-68"/>
      <use x="77.001953" xlink:href="#DejaVuSans-101"/>
      <use x="138.525391" xlink:href="#DejaVuSans-110"/>
      <use x="201.904297" xlink:href="#DejaVuSans-115"/>
      <use x="254.003906" xlink:href="#DejaVuSans-105"/>
      <use x="281.787109" xlink:href="#DejaVuSans-116"/>
      <use x="320.996094" xlink:href="#DejaVuSans-121"/>
     </g>
    </g>
   </g>
   <g id="line2d_14">
    <path clip-path="url(#pb77e667f6f)" d="M 96.377913 306.223515 
L 97.339482 306.819973 
L 98.234736 307.110826 
L 98.853677 307.382997 
L 99.207358 307.274986 
L 99.704721 306.841313 
L 101.196811 305.453802 
L 101.826804 305.309542 
L 102.257852 305.404352 
L 102.633638 305.732876 
L 103.352052 306.409282 
L 103.716785 306.373424 
L 104.103623 306.402044 
L 104.446251 306.699705 
L 105.009929 307.169152 
L 105.264137 307.106395 
L 105.562555 306.769017 
L 106.380442 305.722645 
L 106.634649 305.798957 
L 107.021488 306.210304 
L 107.817269 307.042517 
L 108.170949 307.105086 
L 109.121466 307.071187 
L 110.226718 307.562536 
L 111.530915 307.579147 
L 112.216171 307.449431 
L 112.580904 307.135873 
L 113.011952 306.420312 
L 113.597736 305.515896 
L 113.862996 305.460262 
L 114.205624 305.671778 
L 114.592462 305.831169 
L 114.868775 305.690432 
L 115.598241 305.20668 
L 115.907712 305.348075 
L 116.836123 305.911205 
L 117.687167 306.082519 
L 118.129268 306.197717 
L 118.372423 306.008835 
L 118.737156 305.368689 
L 119.212415 304.655608 
L 119.49978 304.590338 
L 119.886618 304.514238 
L 120.118721 304.152695 
L 120.472402 303.076694 
L 120.925555 301.884833 
L 121.113448 301.841356 
L 121.290288 302.092666 
L 121.588706 303.012206 
L 122.517117 306.11866 
L 122.716063 306.180387 
L 122.903956 305.957216 
L 123.235531 305.111933 
L 123.754999 303.918965 
L 124.06447 303.707595 
L 125.412877 303.271656 
L 125.943398 303.04008 
L 126.219711 303.181605 
L 126.838652 303.577057 
L 127.214437 303.410585 
L 127.501803 303.403025 
L 127.789168 303.668704 
L 128.187059 303.987927 
L 128.363899 303.861467 
L 128.596002 303.347609 
L 129.038103 301.664279 
L 129.579676 299.901034 
L 129.855989 299.597958 
L 130.032829 299.681266 
L 130.275985 300.109759 
L 131.005451 301.536781 
L 131.248606 301.532879 
L 131.856495 301.39877 
L 132.276491 301.700625 
L 132.851221 302.020141 
L 133.525425 302.391605 
L 133.923316 302.534405 
L 134.133314 302.376397 
L 134.376469 301.860296 
L 134.752255 300.422348 
L 135.481721 297.696936 
L 136.476447 295.271468 
L 136.774865 295.009593 
L 137.029073 295.081347 
L 137.758539 295.677665 
L 138.06801 296.251775 
L 138.963264 298.206014 
L 139.184314 298.16209 
L 139.482732 297.828059 
L 139.980095 296.872776 
L 140.499564 296.016585 
L 140.764824 295.952541 
L 141.107452 296.162573 
L 141.649026 296.428553 
L 142.002706 296.681457 
L 142.67691 297.273192 
L 142.909013 297.098944 
L 143.505849 296.571683 
L 144.169 296.462942 
L 144.412155 295.905462 
L 144.754783 294.47672 
L 145.83793 289.425651 
L 145.97056 289.577077 
L 146.202663 290.310395 
L 146.998444 293.097967 
L 147.274757 293.319138 
L 147.971066 293.534979 
L 148.578954 294.476591 
L 148.623164 294.436295 
L 148.777899 294.078852 
L 149.032107 292.820716 
L 150.148412 286.535073 
L 150.44683 286.010467 
L 150.62367 286.045431 
L 150.833668 286.396835 
L 151.706817 288.273505 
L 151.728922 288.261613 
L 151.93892 287.993779 
L 152.369968 287.457629 
L 152.546808 287.565137 
L 152.889436 288.153147 
L 153.851005 290.126606 
L 154.359421 291.589302 
L 154.503104 291.573916 
L 154.668891 291.230584 
L 154.956257 289.976455 
L 155.564145 287.340529 
L 155.718881 287.277892 
L 155.729933 287.286857 
L 155.873616 287.562538 
L 156.127824 288.654227 
L 156.879395 292.129231 
L 157.233076 292.625538 
L 157.730439 293.316637 
L 158.238855 293.935121 
L 158.680955 294.099703 
L 159.023583 294.024392 
L 159.786207 293.681793 
L 160.029363 294.081065 
L 160.460411 294.766032 
L 160.593041 294.643378 
L 160.769881 294.065197 
L 161.046194 292.214159 
L 161.875133 286.069556 
L 161.996711 285.997276 
L 162.018816 286.015672 
L 162.151446 286.316298 
L 162.394601 287.560782 
L 163.22354 292.290873 
L 163.35617 292.312299 
L 163.367223 292.301139 
L 163.521958 291.952358 
L 163.820376 290.553893 
L 164.350897 288.249241 
L 164.660367 287.821572 
L 164.93668 287.407368 
L 165.179836 286.522755 
L 165.931407 283.420606 
L 166.052985 283.578777 
L 166.262983 284.335011 
L 167.036659 287.449729 
L 167.279814 287.65134 
L 167.445602 287.540368 
L 167.6556 287.070603 
L 167.976123 285.68512 
L 168.506644 283.506756 
L 168.661379 283.445708 
L 168.672431 283.454507 
L 168.827167 283.745747 
L 169.1919 285.121971 
L 169.468213 285.748526 
L 169.58979 285.669306 
L 169.755578 285.169939 
L 170.164521 282.918844 
L 170.462939 281.923268 
L 170.617674 281.911207 
L 170.805567 282.235324 
L 171.225563 282.926022 
L 171.358193 282.810528 
L 171.535033 282.284335 
L 171.811346 280.605158 
L 172.739758 274.20422 
L 172.883441 274.212874 
L 173.071333 274.584214 
L 173.657117 275.851206 
L 173.878167 275.853483 
L 174.342373 275.761134 
L 174.552371 276.047835 
L 175.359205 277.525119 
L 175.392362 277.50473 
L 175.679728 277.150783 
L 175.91183 277.034175 
L 176.066566 277.245692 
L 176.309721 278.071584 
L 176.796032 279.693567 
L 176.906557 279.612312 
L 177.05024 279.0984 
L 177.293395 277.190314 
L 178.056019 270.466331 
L 178.133387 270.464353 
L 178.155492 270.495742 
L 178.288122 270.959639 
L 178.553382 272.923857 
L 179.094956 276.759607 
L 179.271796 276.993645 
L 179.282848 276.989189 
L 179.415479 276.787488 
L 179.713897 275.743888 
L 180.067577 274.813524 
L 180.244417 274.797765 
L 180.465468 275.095212 
L 180.907568 275.657493 
L 181.139671 275.617237 
L 181.648087 275.446548 
L 181.858085 275.698027 
L 182.134398 276.445306 
L 182.510184 278.195294 
L 183.438595 282.937327 
L 183.560173 282.888624 
L 183.714908 282.476474 
L 183.980168 280.975737 
L 184.499637 276.395826 
L 184.974895 272.971364 
L 185.162788 272.634388 
L 185.17384 272.638214 
L 185.284366 272.820257 
L 185.483311 273.736527 
L 186.389617 278.747819 
L 186.500142 278.635373 
L 186.66593 278.008287 
L 186.909086 276.047949 
L 187.329081 270.425839 
L 187.826445 264.770012 
L 188.080652 263.851452 
L 188.235388 263.831878 
L 188.434333 264.138415 
L 188.810119 265.201902 
L 189.970633 268.935732 
L 190.302209 269.082215 
L 190.523259 268.977015 
L 190.722204 268.59692 
L 190.954307 267.586268 
L 191.27483 265.000831 
L 191.882719 260.070176 
L 191.971139 259.97689 
L 192.015349 260.023748 
L 192.136926 260.480722 
L 192.357977 262.445143 
L 193.363756 272.998356 
L 193.562701 273.179179 
L 193.971644 273.243891 
L 194.159537 273.769762 
L 194.469008 275.463833 
L 194.955319 277.865249 
L 195.099001 277.954144 
L 195.121106 277.935768 
L 195.264789 277.622433 
L 195.541102 276.331018 
L 196.10478 273.806635 
L 196.403198 273.398639 
L 196.778984 272.998015 
L 197.044244 272.253166 
L 197.873183 269.587417 
L 198.005813 269.698025 
L 198.204759 270.264618 
L 199.08896 273.341709 
L 199.2658 273.205982 
L 200.017372 272.404387 
L 200.227369 272.076982 
L 200.459472 271.198906 
L 200.8021 268.843076 
L 201.586829 263.355203 
L 201.85209 262.726941 
L 201.973667 262.774529 
L 202.128403 263.168735 
L 202.38261 264.548775 
L 203.056814 268.465179 
L 203.145234 268.460687 
L 203.167339 268.430177 
L 203.311022 267.948085 
L 203.56523 266.08414 
L 204.217328 261.102737 
L 204.394169 260.891336 
L 204.405221 260.896235 
L 204.548904 261.114111 
L 205.27837 262.768151 
L 205.333633 262.72873 
L 205.49942 262.405221 
L 205.742576 261.363127 
L 206.074151 258.830261 
L 207.411506 247.121453 
L 207.510979 247.108715 
L 207.533084 247.137135 
L 207.665714 247.566353 
L 207.875712 249.192777 
L 208.240445 254.194106 
L 208.748861 260.425822 
L 208.936753 260.970295 
L 208.947806 260.965338 
L 209.047279 260.743454 
L 209.235171 259.554778 
L 209.721482 254.380776 
L 210.097268 251.764786 
L 210.694104 249.074953 
L 210.959364 245.241622 
L 211.865671 230.359086 
L 211.954091 230.252879 
L 211.998301 230.300569 
L 212.130931 230.774334 
L 212.495664 233.268739 
L 212.82724 234.744943 
L 212.948817 234.79709 
L 212.970922 234.777205 
L 213.114605 234.449851 
L 213.413023 233.030279 
L 213.921439 230.831056 
L 214.208804 230.43826 
L 214.474065 230.419173 
L 214.728273 230.621562 
L 214.993533 231.168438 
L 215.634579 232.829219 
L 215.678789 232.796694 
L 215.811419 232.454787 
L 216.021417 231.099602 
L 216.43036 226.510568 
L 216.784041 223.628348 
L 216.894566 223.470921 
L 216.927724 223.505743 
L 217.049301 223.949892 
L 217.270352 225.83536 
L 217.944555 232.102957 
L 218.01087 232.146336 
L 218.055081 232.090484 
L 218.176658 231.59445 
L 218.408761 229.460684 
L 219.204542 221.305389 
L 219.436645 220.858898 
L 219.602433 220.918956 
L 220.132954 221.269638 
L 220.298742 220.990887 
L 220.519792 220.073755 
L 220.807157 217.785469 
L 221.216101 212.43721 
L 222.277142 197.53115 
L 222.61977 195.822185 
L 222.785558 195.622999 
L 222.807663 195.635692 
L 222.918188 195.864876 
L 223.095029 196.900804 
L 223.349237 200.022759 
L 223.835547 209.608795 
L 224.266595 216.093977 
L 224.476593 216.903981 
L 224.553961 216.766056 
L 224.708696 215.83745 
L 224.973957 212.594719 
L 225.946578 199.318677 
L 226.090261 199.0983 
L 226.112366 199.108804 
L 226.244996 199.351915 
L 226.653939 200.25188 
L 226.676044 200.237909 
L 226.797622 199.982954 
L 227.029725 198.795666 
L 227.449721 196.792444 
L 227.538141 196.781133 
L 227.571298 196.823293 
L 227.726034 197.31079 
L 228.267607 199.445664 
L 228.300764 199.426002 
L 228.41129 199.160087 
L 228.610235 197.948038 
L 229.074441 193.215828 
L 230.102325 181.532047 
L 230.743371 171.579337 
L 230.776528 171.545657 
L 230.820738 171.631514 
L 230.931264 172.533108 
L 231.130209 176.605064 
L 231.583362 192.365093 
L 231.948095 200.979888 
L 232.124936 201.950047 
L 232.135988 201.946152 
L 232.213356 201.737923 
L 232.390196 200.334568 
L 232.975979 192.937056 
L 233.219135 187.616776 
L 233.440185 177.133251 
L 233.705446 152.068642 
L 234.534384 54.144 
L 234.589647 55.034316 
L 234.711225 62.12852 
L 234.95438 93.035271 
L 235.639636 184.038533 
L 235.927002 196.091099 
L 236.170157 198.979126 
L 236.324892 199.295386 
L 236.346997 199.28768 
L 236.468575 199.06835 
L 236.656468 198.171438 
L 236.899623 195.769926 
L 237.231199 189.890556 
L 237.783825 180.351839 
L 237.883297 180.065024 
L 237.927507 180.150965 
L 238.038033 180.952089 
L 238.236978 184.359905 
L 238.656974 196.505084 
L 239.242757 211.306926 
L 239.596438 215.438578 
L 239.82854 216.254246 
L 239.939066 216.192619 
L 240.093801 215.699953 
L 240.392219 213.80999 
L 241.077475 209.444223 
L 241.331683 208.965218 
L 241.486418 209.017069 
L 241.674311 209.415078 
L 241.950624 210.650466 
L 242.68009 214.46272 
L 242.713248 214.447204 
L 242.823773 214.18514 
L 243.033771 212.923383 
L 243.442714 210.569794 
L 243.509029 210.65064 
L 243.630607 211.337892 
L 243.840604 214.145799 
L 244.680596 227.244453 
L 244.735858 227.277229 
L 244.780068 227.211783 
L 244.912699 226.571014 
L 245.166906 223.927553 
L 246.161633 212.411216 
L 246.471104 211.313177 
L 246.658996 211.21732 
L 246.813732 211.435684 
L 247.023729 212.2004 
L 247.300042 214.193503 
L 247.720038 219.223803 
L 248.261611 225.052397 
L 248.493714 225.777316 
L 248.593187 225.711325 
L 248.758975 225.194849 
L 249.797911 221.103083 
L 250.328432 220.690851 
L 250.49422 220.773768 
L 250.660008 221.192669 
L 250.870006 222.458415 
L 251.168424 225.885348 
L 251.997362 236.195569 
L 252.107888 236.370983 
L 252.152098 236.325729 
L 252.273675 235.86345 
L 252.483673 233.950786 
L 252.826301 228.323426 
L 253.577872 215.579288 
L 253.754713 215.011021 
L 253.765765 215.016357 
L 253.854185 215.216943 
L 254.031026 216.321128 
L 254.848912 222.252605 
L 254.981542 222.226853 
L 255.158383 221.817243 
L 255.876796 219.880684 
L 256.020479 219.978483 
L 256.241529 220.481762 
L 256.661525 222.125513 
L 257.048363 224.460808 
L 257.413096 228.228998 
L 258.827818 244.811231 
L 259.070974 245.353241 
L 259.192551 245.263185 
L 259.369392 244.74108 
L 259.689915 242.937142 
L 260.242541 239.9827 
L 260.375171 239.871895 
L 260.408328 239.897836 
L 260.540959 240.214718 
L 260.784114 241.517933 
L 261.369897 244.683769 
L 261.55779 244.83016 
L 261.701473 244.634926 
L 261.933576 243.85605 
L 262.331467 241.57449 
L 262.817777 239.092526 
L 262.939355 239.002321 
L 262.972513 239.034006 
L 263.105143 239.414695 
L 263.337246 240.971317 
L 264.011449 245.90215 
L 264.199342 246.054334 
L 264.475655 245.834023 
L 264.6746 245.834564 
L 264.906703 246.134896 
L 265.282489 246.560957 
L 265.448277 246.462005 
L 265.680379 245.991182 
L 266.045112 244.671142 
L 266.443003 242.362286 
L 267.448782 235.771345 
L 267.559307 235.837661 
L 267.736148 236.319767 
L 268.200353 238.525697 
L 268.962977 242.63027 
L 269.902441 249.601098 
L 270.012966 249.524988 
L 270.167702 249.006039 
L 270.432962 247.172468 
L 271.471899 238.853175 
L 271.482951 238.85648 
L 271.582424 239.024453 
L 271.770317 239.935805 
L 272.378205 243.224041 
L 272.466625 243.121694 
L 272.632413 242.439037 
L 273.383984 238.590507 
L 273.406089 238.599798 
L 273.527667 238.808202 
L 273.75977 239.774218 
L 274.268186 241.824748 
L 274.422921 241.847543 
L 274.831864 241.515127 
L 274.887127 241.611611 
L 275.041862 242.268962 
L 275.273965 244.454469 
L 275.682908 250.928837 
L 276.368164 261.19313 
L 276.666582 263.016744 
L 276.777107 263.131406 
L 276.810265 263.106939 
L 276.931842 262.799386 
L 277.163945 261.436179 
L 278.059199 255.524601 
L 278.224987 255.387763 
L 278.236039 255.394701 
L 278.36867 255.636688 
L 278.600773 256.67832 
L 279.131293 259.119291 
L 279.241819 259.061702 
L 279.396554 258.536552 
L 279.706024 256.442263 
L 280.192335 253.566745 
L 280.446543 253.143526 
L 280.645488 253.185431 
L 281.242324 253.466796 
L 281.463375 253.237433 
L 281.761793 252.536555 
L 282.347576 251.124284 
L 282.469154 251.245092 
L 282.645994 251.861128 
L 282.999675 254.184793 
L 283.353355 255.887155 
L 283.46388 255.94913 
L 283.497038 255.919115 
L 283.640721 255.555509 
L 283.950191 253.949049 
L 284.370187 252.127789 
L 284.502817 252.06267 
L 284.524922 252.083504 
L 284.657552 252.402528 
L 284.889655 253.678832 
L 285.641226 258.26619 
L 285.751752 258.297578 
L 285.773857 258.276656 
L 285.917539 257.925189 
L 286.149642 256.631862 
L 286.613848 252.414455 
L 286.967528 250.125823 
L 287.067001 250.020358 
L 287.111211 250.068093 
L 287.243841 250.561802 
L 287.475944 252.520103 
L 288.437513 261.742444 
L 289.598028 267.917484 
L 289.631185 267.900781 
L 289.752763 267.632236 
L 289.951708 266.495707 
L 290.283284 263.028844 
L 291.211695 252.745438 
L 291.476956 251.812594 
L 291.576428 251.821252 
L 291.598533 251.851696 
L 291.742216 252.302175 
L 291.996424 254.022321 
L 292.537997 257.661871 
L 292.626418 257.703043 
L 292.659575 257.664377 
L 292.792205 257.240162 
L 293.123781 255.126205 
L 293.411146 253.948229 
L 293.488514 253.961338 
L 293.510619 253.995805 
L 293.643249 254.494088 
L 293.875352 256.479506 
L 294.836921 266.299682 
L 294.847974 266.295702 
L 294.947446 266.091666 
L 295.135339 265.025865 
L 295.699017 261.595316 
L 295.787438 261.613422 
L 295.809543 261.648799 
L 295.964278 262.207702 
L 296.284801 264.493197 
L 296.992162 269.405599 
L 297.345843 270.583209 
L 297.544788 270.708297 
L 297.699523 270.505255 
L 297.931626 269.732732 
L 298.882143 266.026871 
L 299.125298 266.032982 
L 299.379506 265.987402 
L 299.578451 265.666335 
L 299.887922 264.645611 
L 300.606335 262.243954 
L 300.772123 262.201263 
L 300.904753 262.462737 
L 301.103699 263.435466 
L 301.468432 266.637456 
L 301.94369 270.222578 
L 302.197898 270.784282 
L 302.407896 270.786703 
L 302.662104 270.819202 
L 302.849996 271.14237 
L 303.203677 272.36268 
L 303.5242 273.09811 
L 303.667883 273.044433 
L 303.877881 272.607968 
L 304.264719 271.875337 
L 304.408401 271.958512 
L 304.618399 272.436852 
L 305.137868 273.642239 
L 305.303655 273.615033 
L 305.524706 273.286947 
L 306.298382 271.491199 
L 306.72943 269.982267 
L 307.094163 268.982465 
L 307.193636 269.056362 
L 307.337319 269.589548 
L 307.558369 271.45337 
L 308.475728 280.441862 
L 309.304667 282.787301 
L 309.592032 283.52728 
L 309.702557 283.462104 
L 309.857293 282.989652 
L 310.155711 281.149096 
L 310.608864 278.666114 
L 310.730442 278.56415 
L 310.763599 278.591087 
L 310.896229 278.928049 
L 311.139385 280.330035 
L 311.957271 285.474467 
L 312.310952 286.290689 
L 312.498844 286.338909 
L 312.65358 286.081138 
L 312.87463 285.168918 
L 313.847252 280.30201 
L 313.858304 280.304794 
L 313.990934 280.462779 
L 314.211985 281.160772 
L 314.654085 283.485106 
L 315.516182 287.844856 
L 315.836705 288.615759 
L 315.980387 288.574799 
L 316.146175 288.188795 
L 316.521961 286.535361 
L 316.908799 285.29029 
L 317.70458 283.645752 
L 318.566677 280.658632 
L 318.710359 280.713767 
L 318.898252 281.115671 
L 319.694033 283.236622 
L 319.705086 283.232728 
L 319.870874 283.037903 
L 320.213502 282.152354 
L 320.55613 281.512423 
L 320.699813 281.562509 
L 320.8656 281.954671 
L 321.119808 283.280742 
L 321.937695 288.129448 
L 322.070325 288.113767 
L 322.247165 287.75973 
L 322.799791 286.547241 
L 322.976631 286.60893 
L 323.595572 287.125137 
L 323.617677 287.098929 
L 323.80557 286.657053 
L 324.092936 285.285865 
L 324.999242 280.584233 
L 325.308712 280.097515 
L 325.739761 279.894612 
L 326.115546 279.861284 
L 326.303439 280.112878 
L 326.546594 280.879638 
L 327.486058 284.311007 
L 327.762371 284.363456 
L 327.983422 284.48943 
L 328.171315 284.919709 
L 328.436575 286.210267 
L 329.586037 292.773162 
L 329.707615 292.698824 
L 329.884455 292.2224 
L 330.227083 290.470193 
L 330.812866 287.713826 
L 331.321282 286.428658 
L 331.57549 286.194162 
L 331.719173 286.321278 
L 331.918118 286.883301 
L 332.260746 288.686911 
L 332.824424 291.436064 
L 333.089685 291.840595 
L 333.277578 291.797385 
L 333.553891 291.42605 
L 334.084412 290.730913 
L 334.272304 290.79087 
L 334.493355 291.146343 
L 335.289136 292.785782 
L 335.322294 292.763855 
L 335.488081 292.474469 
L 335.786499 291.376155 
L 336.283863 289.708437 
L 336.504913 289.557302 
L 336.692806 289.698153 
L 336.958066 290.220731 
L 337.300694 291.447093 
L 337.787005 294.185346 
L 338.450156 297.610768 
L 338.870152 298.724861 
L 339.102255 298.889725 
L 339.25699 298.739946 
L 339.47804 298.125326 
L 339.920141 296.007612 
L 340.362242 294.357927 
L 340.616449 294.068266 
L 340.79329 294.152398 
L 341.025393 294.583652 
L 341.401178 295.86634 
L 341.931699 297.517293 
L 342.141697 297.640759 
L 342.32959 297.469615 
L 342.716428 296.694453 
L 343.677997 294.363606 
L 344.17536 293.034537 
L 344.330095 293.054536 
L 344.495883 293.413226 
L 344.761144 294.641964 
L 345.733765 299.716884 
L 345.965868 299.921027 
L 346.142708 299.796965 
L 346.474284 299.191379 
L 346.861122 298.6399 
L 347.060067 298.666876 
L 347.303223 298.985855 
L 347.855849 300.223345 
L 348.331107 301.042298 
L 348.60742 301.137841 
L 349.414254 301.122506 
L 350.464243 301.77553 
L 350.740556 301.651958 
L 351.016869 301.249413 
L 351.867913 299.791522 
L 352.055805 299.980022 
L 352.884744 301.112496 
L 353.17211 300.833827 
L 353.514738 300.605659 
L 353.746841 300.719818 
L 354.354729 301.120096 
L 354.608937 300.944893 
L 355.249983 300.419632 
L 355.459981 300.588299 
L 355.813661 301.25141 
L 356.200499 301.812298 
L 356.410497 301.7875 
L 356.73102 301.430542 
L 357.029438 301.235284 
L 357.228384 301.37232 
L 357.626274 302.053845 
L 357.91364 302.301603 
L 358.101533 302.175837 
L 358.388898 301.631421 
L 359.118364 300.216379 
L 359.460992 299.969732 
L 359.67099 300.055043 
L 359.903093 300.449793 
L 360.278879 301.661071 
L 360.765189 303.03465 
L 361.019397 303.220031 
L 361.273605 303.11756 
L 361.693601 302.663478 
L 362.190964 301.777003 
L 362.798853 300.783949 
L 363.152533 300.604286 
L 363.572529 300.655274 
L 364.003577 300.915765 
L 364.379363 301.428134 
L 365.075671 302.425783 
L 365.561982 302.574187 
L 366.379868 302.802608 
L 366.611971 302.360584 
L 366.954599 301.116762 
L 367.816696 297.827081 
L 368.148271 297.430631 
L 368.579319 297.306607 
L 368.944052 297.375949 
L 369.176155 297.680211 
L 369.463521 298.510451 
L 370.535615 302.119264 
L 370.701403 302.069194 
L 370.911401 301.709565 
L 371.220871 300.650921 
L 371.674024 298.18424 
L 372.259808 295.24587 
L 372.469806 294.996919 
L 372.602436 295.138146 
L 372.679803 295.326874 
L 372.679803 295.326874 
" style="fill:none;stroke:#ff7f0e;stroke-linecap:square;stroke-width:1.5;"/>
   </g>
   <g id="patch_103">
    <path d="M 57.6 307.584 
L 57.6 41.472 
" style="fill:none;stroke:#000000;stroke-linecap:square;stroke-linejoin:miter;stroke-width:0.8;"/>
   </g>
   <g id="patch_104">
    <path d="M 414.72 307.584 
L 414.72 41.472 
" style="fill:none;stroke:#000000;stroke-linecap:square;stroke-linejoin:miter;stroke-width:0.8;"/>
   </g>
   <g id="patch_105">
    <path d="M 57.6 307.584 
L 414.72 307.584 
" style="fill:none;stroke:#000000;stroke-linecap:square;stroke-linejoin:miter;stroke-width:0.8;"/>
   </g>
   <g id="patch_106">
    <path d="M 57.6 41.472 
L 414.72 41.472 
" style="fill:none;stroke:#000000;stroke-linecap:square;stroke-linejoin:miter;stroke-width:0.8;"/>
   </g>
  </g>
 </g>
 <defs>
  <clipPath id="pb77e667f6f">
   <rect height="266.112" width="357.12" x="57.6" y="41.472"/>
  </clipPath>
 </defs>
</svg>
