<?xml version="1.0" encoding="utf-8" standalone="no"?>
<!DOCTYPE svg PUBLIC "-//W3C//DTD SVG 1.1//EN"
  "http://www.w3.org/Graphics/SVG/1.1/DTD/svg11.dtd">
<!-- Created with matplotlib (https://matplotlib.org/) -->
<svg height="345.6pt" version="1.1" viewBox="0 0 460.8 345.6" width="460.8pt" xmlns="http://www.w3.org/2000/svg" xmlns:xlink="http://www.w3.org/1999/xlink">
 <defs>
  <style type="text/css">
*{stroke-linecap:butt;stroke-linejoin:round;}
  </style>
 </defs>
 <g id="figure_1">
  <g id="patch_1">
   <path d="M 0 345.6 
L 460.8 345.6 
L 460.8 0 
L 0 0 
z
" style="fill:#ffffff;"/>
  </g>
  <g id="axes_1">
   <g id="patch_2">
    <path d="M 57.6 307.584 
L 414.72 307.584 
L 414.72 41.472 
L 57.6 41.472 
z
" style="fill:#ffffff;"/>
   </g>
   <g id="patch_3">
    <path clip-path="url(#p2256cea2e7)" d="M 73.832727 307.584 
L 77.079268 307.584 
L 77.079268 307.15671 
L 73.832727 307.15671 
z
" style="fill:#1f77b4;"/>
   </g>
   <g id="patch_4">
    <path clip-path="url(#p2256cea2e7)" d="M 77.079268 307.584 
L 80.325822 307.584 
L 80.325822 307.156712 
L 77.079268 307.156712 
z
" style="fill:#1f77b4;"/>
   </g>
   <g id="patch_5">
    <path clip-path="url(#p2256cea2e7)" d="M 80.325835 307.584 
L 83.572375 307.584 
L 83.572375 307.370355 
L 80.325835 307.370355 
z
" style="fill:#1f77b4;"/>
   </g>
   <g id="patch_6">
    <path clip-path="url(#p2256cea2e7)" d="M 83.572362 307.584 
L 86.818903 307.584 
L 86.818903 307.15671 
L 83.572362 307.15671 
z
" style="fill:#1f77b4;"/>
   </g>
   <g id="patch_7">
    <path clip-path="url(#p2256cea2e7)" d="M 86.818903 307.584 
L 90.065457 307.584 
L 90.065457 306.515779 
L 86.818903 306.515779 
z
" style="fill:#1f77b4;"/>
   </g>
   <g id="patch_8">
    <path clip-path="url(#p2256cea2e7)" d="M 90.06547 307.584 
L 93.31201 307.584 
L 93.31201 306.72942 
L 90.06547 306.72942 
z
" style="fill:#1f77b4;"/>
   </g>
   <g id="patch_9">
    <path clip-path="url(#p2256cea2e7)" d="M 93.311997 307.584 
L 96.558551 307.584 
L 96.558551 306.729423 
L 93.311997 306.729423 
z
" style="fill:#1f77b4;"/>
   </g>
   <g id="patch_10">
    <path clip-path="url(#p2256cea2e7)" d="M 96.558551 307.584 
L 99.805091 307.584 
L 99.805091 307.15671 
L 96.558551 307.15671 
z
" style="fill:#1f77b4;"/>
   </g>
   <g id="patch_11">
    <path clip-path="url(#p2256cea2e7)" d="M 99.805105 307.584 
L 103.051645 307.584 
L 103.051645 305.87484 
L 99.805105 305.87484 
z
" style="fill:#1f77b4;"/>
   </g>
   <g id="patch_12">
    <path clip-path="url(#p2256cea2e7)" d="M 103.051632 307.584 
L 106.298186 307.584 
L 106.298186 306.943067 
L 103.051632 306.943067 
z
" style="fill:#1f77b4;"/>
   </g>
   <g id="patch_13">
    <path clip-path="url(#p2256cea2e7)" d="M 106.298186 307.584 
L 109.544726 307.584 
L 109.544726 306.72942 
L 106.298186 306.72942 
z
" style="fill:#1f77b4;"/>
   </g>
   <g id="patch_14">
    <path clip-path="url(#p2256cea2e7)" d="M 109.54474 307.584 
L 112.79128 307.584 
L 112.79128 307.584 
L 109.54474 307.584 
z
" style="fill:#1f77b4;"/>
   </g>
   <g id="patch_15">
    <path clip-path="url(#p2256cea2e7)" d="M 112.791267 307.584 
L 116.037821 307.584 
L 116.037821 305.874847 
L 112.791267 305.874847 
z
" style="fill:#1f77b4;"/>
   </g>
   <g id="patch_16">
    <path clip-path="url(#p2256cea2e7)" d="M 116.037821 307.584 
L 119.284361 307.584 
L 119.284361 306.088485 
L 116.037821 306.088485 
z
" style="fill:#1f77b4;"/>
   </g>
   <g id="patch_17">
    <path clip-path="url(#p2256cea2e7)" d="M 119.284361 307.584 
L 122.530915 307.584 
L 122.530915 304.379337 
L 119.284361 304.379337 
z
" style="fill:#1f77b4;"/>
   </g>
   <g id="patch_18">
    <path clip-path="url(#p2256cea2e7)" d="M 122.530915 307.584 
L 125.777456 307.584 
L 125.777456 305.020259 
L 122.530915 305.020259 
z
" style="fill:#1f77b4;"/>
   </g>
   <g id="patch_19">
    <path clip-path="url(#p2256cea2e7)" d="M 125.777456 307.584 
L 129.024003 307.584 
L 129.024003 304.165686 
L 125.777456 304.165686 
z
" style="fill:#1f77b4;"/>
   </g>
   <g id="patch_20">
    <path clip-path="url(#p2256cea2e7)" d="M 129.024003 307.584 
L 132.270543 307.584 
L 132.270543 301.388294 
L 129.024003 301.388294 
z
" style="fill:#1f77b4;"/>
   </g>
   <g id="patch_21">
    <path clip-path="url(#p2256cea2e7)" d="M 132.270537 307.584 
L 135.517084 307.584 
L 135.517084 302.456529 
L 132.270537 302.456529 
z
" style="fill:#1f77b4;"/>
   </g>
   <g id="patch_22">
    <path clip-path="url(#p2256cea2e7)" d="M 135.517091 307.584 
L 138.763638 307.584 
L 138.763638 297.542703 
L 135.517091 297.542703 
z
" style="fill:#1f77b4;"/>
   </g>
   <g id="patch_23">
    <path clip-path="url(#p2256cea2e7)" d="M 138.763631 307.584 
L 142.010178 307.584 
L 142.010178 298.183637 
L 138.763631 298.183637 
z
" style="fill:#1f77b4;"/>
   </g>
   <g id="patch_24">
    <path clip-path="url(#p2256cea2e7)" d="M 142.010185 307.584 
L 145.256725 307.584 
L 145.256725 298.824553 
L 142.010185 298.824553 
z
" style="fill:#1f77b4;"/>
   </g>
   <g id="patch_25">
    <path clip-path="url(#p2256cea2e7)" d="M 145.256725 307.584 
L 148.503273 307.584 
L 148.503273 293.910745 
L 145.256725 293.910745 
z
" style="fill:#1f77b4;"/>
   </g>
   <g id="patch_26">
    <path clip-path="url(#p2256cea2e7)" d="M 148.503266 307.584 
L 151.749813 307.584 
L 151.749813 292.415232 
L 148.503266 292.415232 
z
" style="fill:#1f77b4;"/>
   </g>
   <g id="patch_27">
    <path clip-path="url(#p2256cea2e7)" d="M 151.74982 307.584 
L 154.99636 307.584 
L 154.99636 292.201557 
L 151.74982 292.201557 
z
" style="fill:#1f77b4;"/>
   </g>
   <g id="patch_28">
    <path clip-path="url(#p2256cea2e7)" d="M 154.99636 307.584 
L 158.242908 307.584 
L 158.242908 292.415232 
L 154.99636 292.415232 
z
" style="fill:#1f77b4;"/>
   </g>
   <g id="patch_29">
    <path clip-path="url(#p2256cea2e7)" d="M 158.242901 307.584 
L 161.489448 307.584 
L 161.489448 294.765323 
L 158.242901 294.765323 
z
" style="fill:#1f77b4;"/>
   </g>
   <g id="patch_30">
    <path clip-path="url(#p2256cea2e7)" d="M 161.489455 307.584 
L 164.736002 307.584 
L 164.736002 288.996919 
L 161.489455 288.996919 
z
" style="fill:#1f77b4;"/>
   </g>
   <g id="patch_31">
    <path clip-path="url(#p2256cea2e7)" d="M 164.736002 307.584 
L 167.982542 307.584 
L 167.982542 287.28772 
L 164.736002 287.28772 
z
" style="fill:#1f77b4;"/>
   </g>
   <g id="patch_32">
    <path clip-path="url(#p2256cea2e7)" d="M 167.982536 307.584 
L 171.229083 307.584 
L 171.229083 284.510382 
L 167.982536 284.510382 
z
" style="fill:#1f77b4;"/>
   </g>
   <g id="patch_33">
    <path clip-path="url(#p2256cea2e7)" d="M 171.22909 307.584 
L 174.475637 307.584 
L 174.475637 276.605531 
L 171.22909 276.605531 
z
" style="fill:#1f77b4;"/>
   </g>
   <g id="patch_34">
    <path clip-path="url(#p2256cea2e7)" d="M 174.47563 307.584 
L 177.722177 307.584 
L 177.722177 276.819176 
L 174.47563 276.819176 
z
" style="fill:#1f77b4;"/>
   </g>
   <g id="patch_35">
    <path clip-path="url(#p2256cea2e7)" d="M 177.722184 307.584 
L 180.968728 307.584 
L 180.968728 275.537275 
L 177.722184 275.537275 
z
" style="fill:#1f77b4;"/>
   </g>
   <g id="patch_36">
    <path clip-path="url(#p2256cea2e7)" d="M 180.968731 307.584 
L 184.215275 307.584 
L 184.215275 277.673724 
L 180.968731 277.673724 
z
" style="fill:#1f77b4;"/>
   </g>
   <g id="patch_37">
    <path clip-path="url(#p2256cea2e7)" d="M 184.215272 307.584 
L 187.461819 307.584 
L 187.461819 276.178242 
L 184.215272 276.178242 
z
" style="fill:#1f77b4;"/>
   </g>
   <g id="patch_38">
    <path clip-path="url(#p2256cea2e7)" d="M 187.461819 307.584 
L 190.708363 307.584 
L 190.708363 266.136903 
L 187.461819 266.136903 
z
" style="fill:#1f77b4;"/>
   </g>
   <g id="patch_39">
    <path clip-path="url(#p2256cea2e7)" d="M 190.708363 307.584 
L 193.95491 307.584 
L 193.95491 265.068722 
L 190.708363 265.068722 
z
" style="fill:#1f77b4;"/>
   </g>
   <g id="patch_40">
    <path clip-path="url(#p2256cea2e7)" d="M 193.954913 307.584 
L 197.201457 307.584 
L 197.201457 270.623444 
L 193.954913 270.623444 
z
" style="fill:#1f77b4;"/>
   </g>
   <g id="patch_41">
    <path clip-path="url(#p2256cea2e7)" d="M 197.201454 307.584 
L 200.448001 307.584 
L 200.448001 266.777879 
L 197.201454 266.777879 
z
" style="fill:#1f77b4;"/>
   </g>
   <g id="patch_42">
    <path clip-path="url(#p2256cea2e7)" d="M 200.448001 307.584 
L 203.694545 307.584 
L 203.694545 264.427744 
L 200.448001 264.427744 
z
" style="fill:#1f77b4;"/>
   </g>
   <g id="patch_43">
    <path clip-path="url(#p2256cea2e7)" d="M 203.694545 307.584 
L 206.94109 307.584 
L 206.94109 252.463662 
L 203.694545 252.463662 
z
" style="fill:#1f77b4;"/>
   </g>
   <g id="patch_44">
    <path clip-path="url(#p2256cea2e7)" d="M 206.941089 307.584 
L 210.187634 307.584 
L 210.187634 249.472636 
L 206.941089 249.472636 
z
" style="fill:#1f77b4;"/>
   </g>
   <g id="patch_45">
    <path clip-path="url(#p2256cea2e7)" d="M 210.187636 307.584 
L 213.434181 307.584 
L 213.434181 236.013018 
L 210.187636 236.013018 
z
" style="fill:#1f77b4;"/>
   </g>
   <g id="patch_46">
    <path clip-path="url(#p2256cea2e7)" d="M 213.43418 307.584 
L 216.680725 307.584 
L 216.680725 227.253584 
L 213.43418 227.253584 
z
" style="fill:#1f77b4;"/>
   </g>
   <g id="patch_47">
    <path clip-path="url(#p2256cea2e7)" d="M 216.680727 307.584 
L 219.927272 307.584 
L 219.927272 220.844243 
L 216.680727 220.844243 
z
" style="fill:#1f77b4;"/>
   </g>
   <g id="patch_48">
    <path clip-path="url(#p2256cea2e7)" d="M 219.927272 307.584 
L 223.173818 307.584 
L 223.173818 199.90706 
L 219.927272 199.90706 
z
" style="fill:#1f77b4;"/>
   </g>
   <g id="patch_49">
    <path clip-path="url(#p2256cea2e7)" d="M 223.173818 307.584 
L 226.420363 307.584 
L 226.420363 205.675467 
L 223.173818 205.675467 
z
" style="fill:#1f77b4;"/>
   </g>
   <g id="patch_50">
    <path clip-path="url(#p2256cea2e7)" d="M 226.420363 307.584 
L 229.666909 307.584 
L 229.666909 197.984257 
L 226.420363 197.984257 
z
" style="fill:#1f77b4;"/>
   </g>
   <g id="patch_51">
    <path clip-path="url(#p2256cea2e7)" d="M 229.666909 307.584 
L 232.913454 307.584 
L 232.913454 185.165574 
L 229.666909 185.165574 
z
" style="fill:#1f77b4;"/>
   </g>
   <g id="patch_52">
    <path clip-path="url(#p2256cea2e7)" d="M 232.913455 307.584 
L 236.16 307.584 
L 236.16 137.095512 
L 232.913455 137.095512 
z
" style="fill:#1f77b4;"/>
   </g>
   <g id="patch_53">
    <path clip-path="url(#p2256cea2e7)" d="M 236.16 307.584 
L 239.406546 307.584 
L 239.406546 195.634165 
L 236.16 195.634165 
z
" style="fill:#1f77b4;"/>
   </g>
   <g id="patch_54">
    <path clip-path="url(#p2256cea2e7)" d="M 239.406546 307.584 
L 242.653091 307.584 
L 242.653091 211.016585 
L 239.406546 211.016585 
z
" style="fill:#1f77b4;"/>
   </g>
   <g id="patch_55">
    <path clip-path="url(#p2256cea2e7)" d="M 242.653091 307.584 
L 245.899637 307.584 
L 245.899637 218.066861 
L 242.653091 218.066861 
z
" style="fill:#1f77b4;"/>
   </g>
   <g id="patch_56">
    <path clip-path="url(#p2256cea2e7)" d="M 245.899637 307.584 
L 249.146182 307.584 
L 249.146182 221.698822 
L 245.899637 221.698822 
z
" style="fill:#1f77b4;"/>
   </g>
   <g id="patch_57">
    <path clip-path="url(#p2256cea2e7)" d="M 249.146182 307.584 
L 252.392728 307.584 
L 252.392728 230.6719 
L 249.146182 230.6719 
z
" style="fill:#1f77b4;"/>
   </g>
   <g id="patch_58">
    <path clip-path="url(#p2256cea2e7)" d="M 252.392726 307.584 
L 255.639271 307.584 
L 255.639271 223.407979 
L 252.392726 223.407979 
z
" style="fill:#1f77b4;"/>
   </g>
   <g id="patch_59">
    <path clip-path="url(#p2256cea2e7)" d="M 255.639273 307.584 
L 258.885819 307.584 
L 258.885819 235.158439 
L 255.639273 235.158439 
z
" style="fill:#1f77b4;"/>
   </g>
   <g id="patch_60">
    <path clip-path="url(#p2256cea2e7)" d="M 258.885817 307.584 
L 262.132363 307.584 
L 262.132363 246.695254 
L 258.885817 246.695254 
z
" style="fill:#1f77b4;"/>
   </g>
   <g id="patch_61">
    <path clip-path="url(#p2256cea2e7)" d="M 262.132363 307.584 
L 265.378905 307.584 
L 265.378905 245.840644 
L 262.132363 245.840644 
z
" style="fill:#1f77b4;"/>
   </g>
   <g id="patch_62">
    <path clip-path="url(#p2256cea2e7)" d="M 265.378908 307.584 
L 268.625455 307.584 
L 268.625455 243.917905 
L 265.378908 243.917905 
z
" style="fill:#1f77b4;"/>
   </g>
   <g id="patch_63">
    <path clip-path="url(#p2256cea2e7)" d="M 268.625458 307.584 
L 271.872002 307.584 
L 271.872002 247.549803 
L 268.625458 247.549803 
z
" style="fill:#1f77b4;"/>
   </g>
   <g id="patch_64">
    <path clip-path="url(#p2256cea2e7)" d="M 271.871999 307.584 
L 275.118546 307.584 
L 275.118546 241.995104 
L 271.871999 241.995104 
z
" style="fill:#1f77b4;"/>
   </g>
   <g id="patch_65">
    <path clip-path="url(#p2256cea2e7)" d="M 275.118546 307.584 
L 278.36509 307.584 
L 278.36509 261.009427 
L 275.118546 261.009427 
z
" style="fill:#1f77b4;"/>
   </g>
   <g id="patch_66">
    <path clip-path="url(#p2256cea2e7)" d="M 278.36509 307.584 
L 281.611637 307.584 
L 281.611637 255.027425 
L 278.36509 255.027425 
z
" style="fill:#1f77b4;"/>
   </g>
   <g id="patch_67">
    <path clip-path="url(#p2256cea2e7)" d="M 281.611641 307.584 
L 284.858184 307.584 
L 284.858184 255.027372 
L 281.611641 255.027372 
z
" style="fill:#1f77b4;"/>
   </g>
   <g id="patch_68">
    <path clip-path="url(#p2256cea2e7)" d="M 284.858181 307.584 
L 288.104728 307.584 
L 288.104728 258.659383 
L 284.858181 258.659383 
z
" style="fill:#1f77b4;"/>
   </g>
   <g id="patch_69">
    <path clip-path="url(#p2256cea2e7)" d="M 288.104728 307.584 
L 291.351275 307.584 
L 291.351275 263.359565 
L 288.104728 263.359565 
z
" style="fill:#1f77b4;"/>
   </g>
   <g id="patch_70">
    <path clip-path="url(#p2256cea2e7)" d="M 291.351275 307.584 
L 294.597816 307.584 
L 294.597816 256.095544 
L 291.351275 256.095544 
z
" style="fill:#1f77b4;"/>
   </g>
   <g id="patch_71">
    <path clip-path="url(#p2256cea2e7)" d="M 294.597816 307.584 
L 297.844363 307.584 
L 297.844363 266.564234 
L 294.597816 266.564234 
z
" style="fill:#1f77b4;"/>
   </g>
   <g id="patch_72">
    <path clip-path="url(#p2256cea2e7)" d="M 297.844357 307.584 
L 301.090904 307.584 
L 301.090904 266.35059 
L 297.844357 266.35059 
z
" style="fill:#1f77b4;"/>
   </g>
   <g id="patch_73">
    <path clip-path="url(#p2256cea2e7)" d="M 301.09091 307.584 
L 304.337458 307.584 
L 304.337458 270.837126 
L 301.09091 270.837126 
z
" style="fill:#1f77b4;"/>
   </g>
   <g id="patch_74">
    <path clip-path="url(#p2256cea2e7)" d="M 304.337458 307.584 
L 307.583998 307.584 
L 307.583998 272.759857 
L 304.337458 272.759857 
z
" style="fill:#1f77b4;"/>
   </g>
   <g id="patch_75">
    <path clip-path="url(#p2256cea2e7)" d="M 307.583992 307.584 
L 310.830539 307.584 
L 310.830539 282.160291 
L 307.583992 282.160291 
z
" style="fill:#1f77b4;"/>
   </g>
   <g id="patch_76">
    <path clip-path="url(#p2256cea2e7)" d="M 310.830545 307.584 
L 314.077092 307.584 
L 314.077092 282.58758 
L 310.830545 282.58758 
z
" style="fill:#1f77b4;"/>
   </g>
   <g id="patch_77">
    <path clip-path="url(#p2256cea2e7)" d="M 314.077086 307.584 
L 317.323633 307.584 
L 317.323633 287.287762 
L 314.077086 287.287762 
z
" style="fill:#1f77b4;"/>
   </g>
   <g id="patch_78">
    <path clip-path="url(#p2256cea2e7)" d="M 317.32364 307.584 
L 320.57018 307.584 
L 320.57018 281.519304 
L 317.32364 281.519304 
z
" style="fill:#1f77b4;"/>
   </g>
   <g id="patch_79">
    <path clip-path="url(#p2256cea2e7)" d="M 320.57018 307.584 
L 323.816727 307.584 
L 323.816727 286.219539 
L 320.57018 286.219539 
z
" style="fill:#1f77b4;"/>
   </g>
   <g id="patch_80">
    <path clip-path="url(#p2256cea2e7)" d="M 323.816721 307.584 
L 327.063268 307.584 
L 327.063268 283.442159 
L 323.816721 283.442159 
z
" style="fill:#1f77b4;"/>
   </g>
   <g id="patch_81">
    <path clip-path="url(#p2256cea2e7)" d="M 327.063275 307.584 
L 330.309815 307.584 
L 330.309815 288.783236 
L 327.063275 288.783236 
z
" style="fill:#1f77b4;"/>
   </g>
   <g id="patch_82">
    <path clip-path="url(#p2256cea2e7)" d="M 330.309815 307.584 
L 333.556362 307.584 
L 333.556362 290.065142 
L 330.309815 290.065142 
z
" style="fill:#1f77b4;"/>
   </g>
   <g id="patch_83">
    <path clip-path="url(#p2256cea2e7)" d="M 333.556356 307.584 
L 336.802903 307.584 
L 336.802903 290.065142 
L 333.556356 290.065142 
z
" style="fill:#1f77b4;"/>
   </g>
   <g id="patch_84">
    <path clip-path="url(#p2256cea2e7)" d="M 336.802909 307.584 
L 340.049457 307.584 
L 340.049457 295.406257 
L 336.802909 295.406257 
z
" style="fill:#1f77b4;"/>
   </g>
   <g id="patch_85">
    <path clip-path="url(#p2256cea2e7)" d="M 340.049457 307.584 
L 343.295997 307.584 
L 343.295997 295.192587 
L 340.049457 295.192587 
z
" style="fill:#1f77b4;"/>
   </g>
   <g id="patch_86">
    <path clip-path="url(#p2256cea2e7)" d="M 343.295991 307.584 
L 346.542531 307.584 
L 346.542531 296.688125 
L 343.295991 296.688125 
z
" style="fill:#1f77b4;"/>
   </g>
   <g id="patch_87">
    <path clip-path="url(#p2256cea2e7)" d="M 346.542558 307.584 
L 349.789098 307.584 
L 349.789098 299.465488 
L 346.542558 299.465488 
z
" style="fill:#1f77b4;"/>
   </g>
   <g id="patch_88">
    <path clip-path="url(#p2256cea2e7)" d="M 349.789085 307.584 
L 353.035639 307.584 
L 353.035639 301.601963 
L 349.789085 301.601963 
z
" style="fill:#1f77b4;"/>
   </g>
   <g id="patch_89">
    <path clip-path="url(#p2256cea2e7)" d="M 353.035639 307.584 
L 356.282179 307.584 
L 356.282179 300.320068 
L 353.035639 300.320068 
z
" style="fill:#1f77b4;"/>
   </g>
   <g id="patch_90">
    <path clip-path="url(#p2256cea2e7)" d="M 356.282179 307.584 
L 359.528733 307.584 
L 359.528733 301.601963 
L 356.282179 301.601963 
z
" style="fill:#1f77b4;"/>
   </g>
   <g id="patch_91">
    <path clip-path="url(#p2256cea2e7)" d="M 359.528746 307.584 
L 362.775287 307.584 
L 362.775287 301.601939 
L 359.528746 301.601939 
z
" style="fill:#1f77b4;"/>
   </g>
   <g id="patch_92">
    <path clip-path="url(#p2256cea2e7)" d="M 362.775274 307.584 
L 366.021814 307.584 
L 366.021814 300.961004 
L 362.775274 300.961004 
z
" style="fill:#1f77b4;"/>
   </g>
   <g id="patch_93">
    <path clip-path="url(#p2256cea2e7)" d="M 366.021814 307.584 
L 369.268368 307.584 
L 369.268368 300.533742 
L 366.021814 300.533742 
z
" style="fill:#1f77b4;"/>
   </g>
   <g id="patch_94">
    <path clip-path="url(#p2256cea2e7)" d="M 369.268381 307.584 
L 372.514922 307.584 
L 372.514922 300.106423 
L 369.268381 300.106423 
z
" style="fill:#1f77b4;"/>
   </g>
   <g id="patch_95">
    <path clip-path="url(#p2256cea2e7)" d="M 372.514909 307.584 
L 375.761449 307.584 
L 375.761449 301.815584 
L 372.514909 301.815584 
z
" style="fill:#1f77b4;"/>
   </g>
   <g id="patch_96">
    <path clip-path="url(#p2256cea2e7)" d="M 375.761449 307.584 
L 379.008003 307.584 
L 379.008003 303.952049 
L 375.761449 303.952049 
z
" style="fill:#1f77b4;"/>
   </g>
   <g id="patch_97">
    <path clip-path="url(#p2256cea2e7)" d="M 379.008016 307.584 
L 382.254557 307.584 
L 382.254557 304.592969 
L 379.008016 304.592969 
z
" style="fill:#1f77b4;"/>
   </g>
   <g id="patch_98">
    <path clip-path="url(#p2256cea2e7)" d="M 382.254543 307.584 
L 385.501097 307.584 
L 385.501097 304.592981 
L 382.254543 304.592981 
z
" style="fill:#1f77b4;"/>
   </g>
   <g id="patch_99">
    <path clip-path="url(#p2256cea2e7)" d="M 385.501097 307.584 
L 388.747638 307.584 
L 388.747638 305.661195 
L 385.501097 305.661195 
z
" style="fill:#1f77b4;"/>
   </g>
   <g id="patch_100">
    <path clip-path="url(#p2256cea2e7)" d="M 388.747651 307.584 
L 391.994192 307.584 
L 391.994192 306.088485 
L 388.747651 306.088485 
z
" style="fill:#1f77b4;"/>
   </g>
   <g id="patch_101">
    <path clip-path="url(#p2256cea2e7)" d="M 391.994178 307.584 
L 395.240732 307.584 
L 395.240732 305.874847 
L 391.994178 305.874847 
z
" style="fill:#1f77b4;"/>
   </g>
   <g id="patch_102">
    <path clip-path="url(#p2256cea2e7)" d="M 395.240732 307.584 
L 398.487273 307.584 
L 398.487273 306.943065 
L 395.240732 306.943065 
z
" style="fill:#1f77b4;"/>
   </g>
   <g id="matplotlib.axis_1">
    <g id="xtick_1">
     <g id="line2d_1">
      <defs>
       <path d="M 0 0 
L 0 3.5 
" id="m4a69ecc113" style="stroke:#000000;stroke-width:0.8;"/>
      </defs>
      <g>
       <use style="stroke:#000000;stroke-width:0.8;" x="68.746619" xlink:href="#m4a69ecc113" y="307.584"/>
      </g>
     </g>
     <g id="text_1">
      <!-- −3 -->
      <defs>
       <path d="M 10.59375 35.5 
L 73.1875 35.5 
L 73.1875 27.203125 
L 10.59375 27.203125 
z
" id="DejaVuSans-8722"/>
       <path d="M 40.578125 39.3125 
Q 47.65625 37.796875 51.625 33 
Q 55.609375 28.21875 55.609375 21.1875 
Q 55.609375 10.40625 48.1875 4.484375 
Q 40.765625 -1.421875 27.09375 -1.421875 
Q 22.515625 -1.421875 17.65625 -0.515625 
Q 12.796875 0.390625 7.625 2.203125 
L 7.625 11.71875 
Q 11.71875 9.328125 16.59375 8.109375 
Q 21.484375 6.890625 26.8125 6.890625 
Q 36.078125 6.890625 40.9375 10.546875 
Q 45.796875 14.203125 45.796875 21.1875 
Q 45.796875 27.640625 41.28125 31.265625 
Q 36.765625 34.90625 28.71875 34.90625 
L 20.21875 34.90625 
L 20.21875 43.015625 
L 29.109375 43.015625 
Q 36.375 43.015625 40.234375 45.921875 
Q 44.09375 48.828125 44.09375 54.296875 
Q 44.09375 59.90625 40.109375 62.90625 
Q 36.140625 65.921875 28.71875 65.921875 
Q 24.65625 65.921875 20.015625 65.03125 
Q 15.375 64.15625 9.8125 62.3125 
L 9.8125 71.09375 
Q 15.4375 72.65625 20.34375 73.4375 
Q 25.25 74.21875 29.59375 74.21875 
Q 40.828125 74.21875 47.359375 69.109375 
Q 53.90625 64.015625 53.90625 55.328125 
Q 53.90625 49.265625 50.4375 45.09375 
Q 46.96875 40.921875 40.578125 39.3125 
z
" id="DejaVuSans-51"/>
      </defs>
      <g transform="translate(56.215759 327.501344)scale(0.17 -0.17)">
       <use xlink:href="#DejaVuSans-8722"/>
       <use x="83.789062" xlink:href="#DejaVuSans-51"/>
      </g>
     </g>
    </g>
    <g id="xtick_2">
     <g id="line2d_2">
      <g>
       <use style="stroke:#000000;stroke-width:0.8;" x="124.009207" xlink:href="#m4a69ecc113" y="307.584"/>
      </g>
     </g>
     <g id="text_2">
      <!-- −2 -->
      <defs>
       <path d="M 19.1875 8.296875 
L 53.609375 8.296875 
L 53.609375 0 
L 7.328125 0 
L 7.328125 8.296875 
Q 12.9375 14.109375 22.625 23.890625 
Q 32.328125 33.6875 34.8125 36.53125 
Q 39.546875 41.84375 41.421875 45.53125 
Q 43.3125 49.21875 43.3125 52.78125 
Q 43.3125 58.59375 39.234375 62.25 
Q 35.15625 65.921875 28.609375 65.921875 
Q 23.96875 65.921875 18.8125 64.3125 
Q 13.671875 62.703125 7.8125 59.421875 
L 7.8125 69.390625 
Q 13.765625 71.78125 18.9375 73 
Q 24.125 74.21875 28.421875 74.21875 
Q 39.75 74.21875 46.484375 68.546875 
Q 53.21875 62.890625 53.21875 53.421875 
Q 53.21875 48.921875 51.53125 44.890625 
Q 49.859375 40.875 45.40625 35.40625 
Q 44.1875 33.984375 37.640625 27.21875 
Q 31.109375 20.453125 19.1875 8.296875 
z
" id="DejaVuSans-50"/>
      </defs>
      <g transform="translate(111.478348 327.501344)scale(0.17 -0.17)">
       <use xlink:href="#DejaVuSans-8722"/>
       <use x="83.789062" xlink:href="#DejaVuSans-50"/>
      </g>
     </g>
    </g>
    <g id="xtick_3">
     <g id="line2d_3">
      <g>
       <use style="stroke:#000000;stroke-width:0.8;" x="179.271796" xlink:href="#m4a69ecc113" y="307.584"/>
      </g>
     </g>
     <g id="text_3">
      <!-- −1 -->
      <defs>
       <path d="M 12.40625 8.296875 
L 28.515625 8.296875 
L 28.515625 63.921875 
L 10.984375 60.40625 
L 10.984375 69.390625 
L 28.421875 72.90625 
L 38.28125 72.90625 
L 38.28125 8.296875 
L 54.390625 8.296875 
L 54.390625 0 
L 12.40625 0 
z
" id="DejaVuSans-49"/>
      </defs>
      <g transform="translate(166.740936 327.501344)scale(0.17 -0.17)">
       <use xlink:href="#DejaVuSans-8722"/>
       <use x="83.789062" xlink:href="#DejaVuSans-49"/>
      </g>
     </g>
    </g>
    <g id="xtick_4">
     <g id="line2d_4">
      <g>
       <use style="stroke:#000000;stroke-width:0.8;" x="234.534384" xlink:href="#m4a69ecc113" y="307.584"/>
      </g>
     </g>
     <g id="text_4">
      <!-- 0 -->
      <defs>
       <path d="M 31.78125 66.40625 
Q 24.171875 66.40625 20.328125 58.90625 
Q 16.5 51.421875 16.5 36.375 
Q 16.5 21.390625 20.328125 13.890625 
Q 24.171875 6.390625 31.78125 6.390625 
Q 39.453125 6.390625 43.28125 13.890625 
Q 47.125 21.390625 47.125 36.375 
Q 47.125 51.421875 43.28125 58.90625 
Q 39.453125 66.40625 31.78125 66.40625 
z
M 31.78125 74.21875 
Q 44.046875 74.21875 50.515625 64.515625 
Q 56.984375 54.828125 56.984375 36.375 
Q 56.984375 17.96875 50.515625 8.265625 
Q 44.046875 -1.421875 31.78125 -1.421875 
Q 19.53125 -1.421875 13.0625 8.265625 
Q 6.59375 17.96875 6.59375 36.375 
Q 6.59375 54.828125 13.0625 64.515625 
Q 19.53125 74.21875 31.78125 74.21875 
z
" id="DejaVuSans-48"/>
      </defs>
      <g transform="translate(229.126259 327.501344)scale(0.17 -0.17)">
       <use xlink:href="#DejaVuSans-48"/>
      </g>
     </g>
    </g>
    <g id="xtick_5">
     <g id="line2d_5">
      <g>
       <use style="stroke:#000000;stroke-width:0.8;" x="289.796973" xlink:href="#m4a69ecc113" y="307.584"/>
      </g>
     </g>
     <g id="text_5">
      <!-- 1 -->
      <g transform="translate(284.388848 327.501344)scale(0.17 -0.17)">
       <use xlink:href="#DejaVuSans-49"/>
      </g>
     </g>
    </g>
    <g id="xtick_6">
     <g id="line2d_6">
      <g>
       <use style="stroke:#000000;stroke-width:0.8;" x="345.059562" xlink:href="#m4a69ecc113" y="307.584"/>
      </g>
     </g>
     <g id="text_6">
      <!-- 2 -->
      <g transform="translate(339.651437 327.501344)scale(0.17 -0.17)">
       <use xlink:href="#DejaVuSans-50"/>
      </g>
     </g>
    </g>
    <g id="xtick_7">
     <g id="line2d_7">
      <g>
       <use style="stroke:#000000;stroke-width:0.8;" x="400.32215" xlink:href="#m4a69ecc113" y="307.584"/>
      </g>
     </g>
     <g id="text_7">
      <!-- 3 -->
      <g transform="translate(394.914025 327.501344)scale(0.17 -0.17)">
       <use xlink:href="#DejaVuSans-51"/>
      </g>
     </g>
    </g>
    <g id="text_8">
     <!-- Position in Radian -->
     <defs>
      <path d="M 19.671875 64.796875 
L 19.671875 37.40625 
L 32.078125 37.40625 
Q 38.96875 37.40625 42.71875 40.96875 
Q 46.484375 44.53125 46.484375 51.125 
Q 46.484375 57.671875 42.71875 61.234375 
Q 38.96875 64.796875 32.078125 64.796875 
z
M 9.8125 72.90625 
L 32.078125 72.90625 
Q 44.34375 72.90625 50.609375 67.359375 
Q 56.890625 61.8125 56.890625 51.125 
Q 56.890625 40.328125 50.609375 34.8125 
Q 44.34375 29.296875 32.078125 29.296875 
L 19.671875 29.296875 
L 19.671875 0 
L 9.8125 0 
z
" id="DejaVuSans-80"/>
      <path d="M 30.609375 48.390625 
Q 23.390625 48.390625 19.1875 42.75 
Q 14.984375 37.109375 14.984375 27.296875 
Q 14.984375 17.484375 19.15625 11.84375 
Q 23.34375 6.203125 30.609375 6.203125 
Q 37.796875 6.203125 41.984375 11.859375 
Q 46.1875 17.53125 46.1875 27.296875 
Q 46.1875 37.015625 41.984375 42.703125 
Q 37.796875 48.390625 30.609375 48.390625 
z
M 30.609375 56 
Q 42.328125 56 49.015625 48.375 
Q 55.71875 40.765625 55.71875 27.296875 
Q 55.71875 13.875 49.015625 6.21875 
Q 42.328125 -1.421875 30.609375 -1.421875 
Q 18.84375 -1.421875 12.171875 6.21875 
Q 5.515625 13.875 5.515625 27.296875 
Q 5.515625 40.765625 12.171875 48.375 
Q 18.84375 56 30.609375 56 
z
" id="DejaVuSans-111"/>
      <path d="M 44.28125 53.078125 
L 44.28125 44.578125 
Q 40.484375 46.53125 36.375 47.5 
Q 32.28125 48.484375 27.875 48.484375 
Q 21.1875 48.484375 17.84375 46.4375 
Q 14.5 44.390625 14.5 40.28125 
Q 14.5 37.15625 16.890625 35.375 
Q 19.28125 33.59375 26.515625 31.984375 
L 29.59375 31.296875 
Q 39.15625 29.25 43.1875 25.515625 
Q 47.21875 21.78125 47.21875 15.09375 
Q 47.21875 7.46875 41.1875 3.015625 
Q 35.15625 -1.421875 24.609375 -1.421875 
Q 20.21875 -1.421875 15.453125 -0.5625 
Q 10.6875 0.296875 5.421875 2 
L 5.421875 11.28125 
Q 10.40625 8.6875 15.234375 7.390625 
Q 20.0625 6.109375 24.8125 6.109375 
Q 31.15625 6.109375 34.5625 8.28125 
Q 37.984375 10.453125 37.984375 14.40625 
Q 37.984375 18.0625 35.515625 20.015625 
Q 33.0625 21.96875 24.703125 23.78125 
L 21.578125 24.515625 
Q 13.234375 26.265625 9.515625 29.90625 
Q 5.8125 33.546875 5.8125 39.890625 
Q 5.8125 47.609375 11.28125 51.796875 
Q 16.75 56 26.8125 56 
Q 31.78125 56 36.171875 55.265625 
Q 40.578125 54.546875 44.28125 53.078125 
z
" id="DejaVuSans-115"/>
      <path d="M 9.421875 54.6875 
L 18.40625 54.6875 
L 18.40625 0 
L 9.421875 0 
z
M 9.421875 75.984375 
L 18.40625 75.984375 
L 18.40625 64.59375 
L 9.421875 64.59375 
z
" id="DejaVuSans-105"/>
      <path d="M 18.3125 70.21875 
L 18.3125 54.6875 
L 36.8125 54.6875 
L 36.8125 47.703125 
L 18.3125 47.703125 
L 18.3125 18.015625 
Q 18.3125 11.328125 20.140625 9.421875 
Q 21.96875 7.515625 27.59375 7.515625 
L 36.8125 7.515625 
L 36.8125 0 
L 27.59375 0 
Q 17.1875 0 13.234375 3.875 
Q 9.28125 7.765625 9.28125 18.015625 
L 9.28125 47.703125 
L 2.6875 47.703125 
L 2.6875 54.6875 
L 9.28125 54.6875 
L 9.28125 70.21875 
z
" id="DejaVuSans-116"/>
      <path d="M 54.890625 33.015625 
L 54.890625 0 
L 45.90625 0 
L 45.90625 32.71875 
Q 45.90625 40.484375 42.875 44.328125 
Q 39.84375 48.1875 33.796875 48.1875 
Q 26.515625 48.1875 22.3125 43.546875 
Q 18.109375 38.921875 18.109375 30.90625 
L 18.109375 0 
L 9.078125 0 
L 9.078125 54.6875 
L 18.109375 54.6875 
L 18.109375 46.1875 
Q 21.34375 51.125 25.703125 53.5625 
Q 30.078125 56 35.796875 56 
Q 45.21875 56 50.046875 50.171875 
Q 54.890625 44.34375 54.890625 33.015625 
z
" id="DejaVuSans-110"/>
      <path id="DejaVuSans-32"/>
      <path d="M 44.390625 34.1875 
Q 47.5625 33.109375 50.5625 29.59375 
Q 53.5625 26.078125 56.59375 19.921875 
L 66.609375 0 
L 56 0 
L 46.6875 18.703125 
Q 43.0625 26.03125 39.671875 28.421875 
Q 36.28125 30.8125 30.421875 30.8125 
L 19.671875 30.8125 
L 19.671875 0 
L 9.8125 0 
L 9.8125 72.90625 
L 32.078125 72.90625 
Q 44.578125 72.90625 50.734375 67.671875 
Q 56.890625 62.453125 56.890625 51.90625 
Q 56.890625 45.015625 53.6875 40.46875 
Q 50.484375 35.9375 44.390625 34.1875 
z
M 19.671875 64.796875 
L 19.671875 38.921875 
L 32.078125 38.921875 
Q 39.203125 38.921875 42.84375 42.21875 
Q 46.484375 45.515625 46.484375 51.90625 
Q 46.484375 58.296875 42.84375 61.546875 
Q 39.203125 64.796875 32.078125 64.796875 
z
" id="DejaVuSans-82"/>
      <path d="M 34.28125 27.484375 
Q 23.390625 27.484375 19.1875 25 
Q 14.984375 22.515625 14.984375 16.5 
Q 14.984375 11.71875 18.140625 8.90625 
Q 21.296875 6.109375 26.703125 6.109375 
Q 34.1875 6.109375 38.703125 11.40625 
Q 43.21875 16.703125 43.21875 25.484375 
L 43.21875 27.484375 
z
M 52.203125 31.203125 
L 52.203125 0 
L 43.21875 0 
L 43.21875 8.296875 
Q 40.140625 3.328125 35.546875 0.953125 
Q 30.953125 -1.421875 24.3125 -1.421875 
Q 15.921875 -1.421875 10.953125 3.296875 
Q 6 8.015625 6 15.921875 
Q 6 25.140625 12.171875 29.828125 
Q 18.359375 34.515625 30.609375 34.515625 
L 43.21875 34.515625 
L 43.21875 35.40625 
Q 43.21875 41.609375 39.140625 45 
Q 35.0625 48.390625 27.6875 48.390625 
Q 23 48.390625 18.546875 47.265625 
Q 14.109375 46.140625 10.015625 43.890625 
L 10.015625 52.203125 
Q 14.9375 54.109375 19.578125 55.046875 
Q 24.21875 56 28.609375 56 
Q 40.484375 56 46.34375 49.84375 
Q 52.203125 43.703125 52.203125 31.203125 
z
" id="DejaVuSans-97"/>
      <path d="M 45.40625 46.390625 
L 45.40625 75.984375 
L 54.390625 75.984375 
L 54.390625 0 
L 45.40625 0 
L 45.40625 8.203125 
Q 42.578125 3.328125 38.25 0.953125 
Q 33.9375 -1.421875 27.875 -1.421875 
Q 17.96875 -1.421875 11.734375 6.484375 
Q 5.515625 14.40625 5.515625 27.296875 
Q 5.515625 40.1875 11.734375 48.09375 
Q 17.96875 56 27.875 56 
Q 33.9375 56 38.25 53.625 
Q 42.578125 51.265625 45.40625 46.390625 
z
M 14.796875 27.296875 
Q 14.796875 17.390625 18.875 11.75 
Q 22.953125 6.109375 30.078125 6.109375 
Q 37.203125 6.109375 41.296875 11.75 
Q 45.40625 17.390625 45.40625 27.296875 
Q 45.40625 37.203125 41.296875 42.84375 
Q 37.203125 48.484375 30.078125 48.484375 
Q 22.953125 48.484375 18.875 42.84375 
Q 14.796875 37.203125 14.796875 27.296875 
z
" id="DejaVuSans-100"/>
     </defs>
     <g transform="translate(102.024844 357.832125)scale(0.3 -0.3)">
      <use xlink:href="#DejaVuSans-80"/>
      <use x="60.255859" xlink:href="#DejaVuSans-111"/>
      <use x="121.4375" xlink:href="#DejaVuSans-115"/>
      <use x="173.537109" xlink:href="#DejaVuSans-105"/>
      <use x="201.320312" xlink:href="#DejaVuSans-116"/>
      <use x="240.529297" xlink:href="#DejaVuSans-105"/>
      <use x="268.3125" xlink:href="#DejaVuSans-111"/>
      <use x="329.494141" xlink:href="#DejaVuSans-110"/>
      <use x="392.873047" xlink:href="#DejaVuSans-32"/>
      <use x="424.660156" xlink:href="#DejaVuSans-105"/>
      <use x="452.443359" xlink:href="#DejaVuSans-110"/>
      <use x="515.822266" xlink:href="#DejaVuSans-32"/>
      <use x="547.609375" xlink:href="#DejaVuSans-82"/>
      <use x="617.060547" xlink:href="#DejaVuSans-97"/>
      <use x="678.339844" xlink:href="#DejaVuSans-100"/>
      <use x="741.816406" xlink:href="#DejaVuSans-105"/>
      <use x="769.599609" xlink:href="#DejaVuSans-97"/>
      <use x="830.878906" xlink:href="#DejaVuSans-110"/>
     </g>
    </g>
   </g>
   <g id="matplotlib.axis_2">
    <g id="ytick_1">
     <g id="line2d_8">
      <defs>
       <path d="M 0 0 
L -3.5 0 
" id="mb3980383da" style="stroke:#000000;stroke-width:0.8;"/>
      </defs>
      <g>
       <use style="stroke:#000000;stroke-width:0.8;" x="57.6" xlink:href="#mb3980383da" y="307.584"/>
      </g>
     </g>
     <g id="text_9">
      <!-- 0.00 -->
      <defs>
       <path d="M 10.6875 12.40625 
L 21 12.40625 
L 21 0 
L 10.6875 0 
z
" id="DejaVuSans-46"/>
      </defs>
      <g transform="translate(12.748438 314.042672)scale(0.17 -0.17)">
       <use xlink:href="#DejaVuSans-48"/>
       <use x="63.623047" xlink:href="#DejaVuSans-46"/>
       <use x="95.410156" xlink:href="#DejaVuSans-48"/>
       <use x="159.033203" xlink:href="#DejaVuSans-48"/>
      </g>
     </g>
    </g>
    <g id="ytick_2">
     <g id="line2d_9">
      <g>
       <use style="stroke:#000000;stroke-width:0.8;" x="57.6" xlink:href="#mb3980383da" y="260.517304"/>
      </g>
     </g>
     <g id="text_10">
      <!-- 0.25 -->
      <defs>
       <path d="M 10.796875 72.90625 
L 49.515625 72.90625 
L 49.515625 64.59375 
L 19.828125 64.59375 
L 19.828125 46.734375 
Q 21.96875 47.46875 24.109375 47.828125 
Q 26.265625 48.1875 28.421875 48.1875 
Q 40.625 48.1875 47.75 41.5 
Q 54.890625 34.8125 54.890625 23.390625 
Q 54.890625 11.625 47.5625 5.09375 
Q 40.234375 -1.421875 26.90625 -1.421875 
Q 22.3125 -1.421875 17.546875 -0.640625 
Q 12.796875 0.140625 7.71875 1.703125 
L 7.71875 11.625 
Q 12.109375 9.234375 16.796875 8.0625 
Q 21.484375 6.890625 26.703125 6.890625 
Q 35.15625 6.890625 40.078125 11.328125 
Q 45.015625 15.765625 45.015625 23.390625 
Q 45.015625 31 40.078125 35.4375 
Q 35.15625 39.890625 26.703125 39.890625 
Q 22.75 39.890625 18.8125 39.015625 
Q 14.890625 38.140625 10.796875 36.28125 
z
" id="DejaVuSans-53"/>
      </defs>
      <g transform="translate(12.748438 266.975976)scale(0.17 -0.17)">
       <use xlink:href="#DejaVuSans-48"/>
       <use x="63.623047" xlink:href="#DejaVuSans-46"/>
       <use x="95.410156" xlink:href="#DejaVuSans-50"/>
       <use x="159.033203" xlink:href="#DejaVuSans-53"/>
      </g>
     </g>
    </g>
    <g id="ytick_3">
     <g id="line2d_10">
      <g>
       <use style="stroke:#000000;stroke-width:0.8;" x="57.6" xlink:href="#mb3980383da" y="213.450609"/>
      </g>
     </g>
     <g id="text_11">
      <!-- 0.50 -->
      <g transform="translate(12.748438 219.909281)scale(0.17 -0.17)">
       <use xlink:href="#DejaVuSans-48"/>
       <use x="63.623047" xlink:href="#DejaVuSans-46"/>
       <use x="95.410156" xlink:href="#DejaVuSans-53"/>
       <use x="159.033203" xlink:href="#DejaVuSans-48"/>
      </g>
     </g>
    </g>
    <g id="ytick_4">
     <g id="line2d_11">
      <g>
       <use style="stroke:#000000;stroke-width:0.8;" x="57.6" xlink:href="#mb3980383da" y="166.383913"/>
      </g>
     </g>
     <g id="text_12">
      <!-- 0.75 -->
      <defs>
       <path d="M 8.203125 72.90625 
L 55.078125 72.90625 
L 55.078125 68.703125 
L 28.609375 0 
L 18.3125 0 
L 43.21875 64.59375 
L 8.203125 64.59375 
z
" id="DejaVuSans-55"/>
      </defs>
      <g transform="translate(12.748438 172.842585)scale(0.17 -0.17)">
       <use xlink:href="#DejaVuSans-48"/>
       <use x="63.623047" xlink:href="#DejaVuSans-46"/>
       <use x="95.410156" xlink:href="#DejaVuSans-55"/>
       <use x="159.033203" xlink:href="#DejaVuSans-53"/>
      </g>
     </g>
    </g>
    <g id="ytick_5">
     <g id="line2d_12">
      <g>
       <use style="stroke:#000000;stroke-width:0.8;" x="57.6" xlink:href="#mb3980383da" y="119.317217"/>
      </g>
     </g>
     <g id="text_13">
      <!-- 1.00 -->
      <g transform="translate(12.748438 125.775889)scale(0.17 -0.17)">
       <use xlink:href="#DejaVuSans-49"/>
       <use x="63.623047" xlink:href="#DejaVuSans-46"/>
       <use x="95.410156" xlink:href="#DejaVuSans-48"/>
       <use x="159.033203" xlink:href="#DejaVuSans-48"/>
      </g>
     </g>
    </g>
    <g id="ytick_6">
     <g id="line2d_13">
      <g>
       <use style="stroke:#000000;stroke-width:0.8;" x="57.6" xlink:href="#mb3980383da" y="72.250522"/>
      </g>
     </g>
     <g id="text_14">
      <!-- 1.25 -->
      <g transform="translate(12.748438 78.709194)scale(0.17 -0.17)">
       <use xlink:href="#DejaVuSans-49"/>
       <use x="63.623047" xlink:href="#DejaVuSans-46"/>
       <use x="95.410156" xlink:href="#DejaVuSans-50"/>
       <use x="159.033203" xlink:href="#DejaVuSans-53"/>
      </g>
     </g>
    </g>
    <g id="text_15">
     <!-- Density -->
     <defs>
      <path d="M 19.671875 64.796875 
L 19.671875 8.109375 
L 31.59375 8.109375 
Q 46.6875 8.109375 53.6875 14.9375 
Q 60.6875 21.78125 60.6875 36.53125 
Q 60.6875 51.171875 53.6875 57.984375 
Q 46.6875 64.796875 31.59375 64.796875 
z
M 9.8125 72.90625 
L 30.078125 72.90625 
Q 51.265625 72.90625 61.171875 64.09375 
Q 71.09375 55.28125 71.09375 36.53125 
Q 71.09375 17.671875 61.125 8.828125 
Q 51.171875 0 30.078125 0 
L 9.8125 0 
z
" id="DejaVuSans-68"/>
      <path d="M 56.203125 29.59375 
L 56.203125 25.203125 
L 14.890625 25.203125 
Q 15.484375 15.921875 20.484375 11.0625 
Q 25.484375 6.203125 34.421875 6.203125 
Q 39.59375 6.203125 44.453125 7.46875 
Q 49.3125 8.734375 54.109375 11.28125 
L 54.109375 2.78125 
Q 49.265625 0.734375 44.1875 -0.34375 
Q 39.109375 -1.421875 33.890625 -1.421875 
Q 20.796875 -1.421875 13.15625 6.1875 
Q 5.515625 13.8125 5.515625 26.8125 
Q 5.515625 40.234375 12.765625 48.109375 
Q 20.015625 56 32.328125 56 
Q 43.359375 56 49.78125 48.890625 
Q 56.203125 41.796875 56.203125 29.59375 
z
M 47.21875 32.234375 
Q 47.125 39.59375 43.09375 43.984375 
Q 39.0625 48.390625 32.421875 48.390625 
Q 24.90625 48.390625 20.390625 44.140625 
Q 15.875 39.890625 15.1875 32.171875 
z
" id="DejaVuSans-101"/>
      <path d="M 32.171875 -5.078125 
Q 28.375 -14.84375 24.75 -17.8125 
Q 21.140625 -20.796875 15.09375 -20.796875 
L 7.90625 -20.796875 
L 7.90625 -13.28125 
L 13.1875 -13.28125 
Q 16.890625 -13.28125 18.9375 -11.515625 
Q 21 -9.765625 23.484375 -3.21875 
L 25.09375 0.875 
L 2.984375 54.6875 
L 12.5 54.6875 
L 29.59375 11.921875 
L 46.6875 54.6875 
L 56.203125 54.6875 
z
" id="DejaVuSans-121"/>
     </defs>
     <g transform="translate(2.509375 231.553781)rotate(-90)scale(0.3 -0.3)">
      <use xlink:href="#DejaVuSans-68"/>
      <use x="77.001953" xlink:href="#DejaVuSans-101"/>
      <use x="138.525391" xlink:href="#DejaVuSans-110"/>
      <use x="201.904297" xlink:href="#DejaVuSans-115"/>
      <use x="254.003906" xlink:href="#DejaVuSans-105"/>
      <use x="281.787109" xlink:href="#DejaVuSans-116"/>
      <use x="320.996094" xlink:href="#DejaVuSans-121"/>
     </g>
    </g>
   </g>
   <g id="line2d_14">
    <path clip-path="url(#p2256cea2e7)" d="M 96.377913 306.460112 
L 97.37264 306.958085 
L 98.23842 307.195098 
L 98.88315 307.417585 
L 99.269988 307.295114 
L 99.887087 306.812298 
L 101.167337 305.834804 
L 101.839699 305.704786 
L 102.309431 305.808534 
L 102.742321 306.163391 
L 103.322578 306.607441 
L 103.709416 306.585315 
L 104.123886 306.616499 
L 104.519934 306.922142 
L 105.017298 307.242331 
L 105.302821 307.165664 
L 105.643607 306.804972 
L 106.325179 306.058443 
L 106.601492 306.091277 
L 106.98833 306.414794 
L 107.854111 307.151622 
L 108.240949 307.177337 
L 109.051467 307.130696 
L 110.488294 307.579335 
L 112.10933 307.511327 
L 112.523799 307.26967 
L 112.947479 306.724798 
L 113.629051 305.858599 
L 113.914574 305.844137 
L 114.817197 306.053493 
L 115.692188 305.63683 
L 116.097447 305.868057 
L 116.723756 306.18924 
L 118.30795 306.343003 
L 118.630315 305.929802 
L 119.238204 305.151355 
L 119.569779 305.116376 
L 119.901355 305.03687 
L 120.140826 304.707073 
L 120.536875 303.676943 
L 120.942134 302.861913 
L 121.135553 302.853652 
L 121.338182 303.139757 
L 121.678968 304.099809 
L 122.452644 306.301151 
L 122.692116 306.432272 
L 122.885535 306.267136 
L 123.2079 305.608608 
L 123.769736 304.541213 
L 124.101312 304.372885 
L 124.957882 304.122223 
L 125.473666 303.630141 
L 125.897346 303.328551 
L 126.127607 303.420759 
L 126.542076 303.92221 
L 126.882862 304.154428 
L 127.2697 304.092812 
L 127.573644 304.160584 
L 128.33811 304.535893 
L 128.568371 304.150802 
L 128.97363 302.912702 
L 129.581518 301.233572 
L 129.867042 300.982506 
L 130.069671 301.082083 
L 130.364405 301.550086 
L 130.870979 302.296542 
L 131.101239 302.2866 
L 131.856495 302.017606 
L 132.224912 302.414173 
L 132.768328 302.903831 
L 133.938052 303.407035 
L 134.168313 303.23176 
L 134.426205 302.701719 
L 134.840675 301.215123 
L 135.568299 298.731347 
L 136.314344 297.132408 
L 136.701182 296.667705 
L 136.949863 296.67247 
L 137.281439 296.956848 
L 138.009063 297.899023 
L 138.911685 299.317076 
L 139.22484 299.331506 
L 139.593257 299.119282 
L 140.026148 298.578122 
L 140.551142 297.99147 
L 140.827455 297.992252 
L 141.978759 298.555968 
L 142.706383 299.058126 
L 142.982696 298.849079 
L 143.480059 298.486848 
L 144.189263 298.318496 
L 144.447155 297.716229 
L 144.815572 296.18234 
L 145.699773 292.254959 
L 145.856351 292.253283 
L 146.031349 292.586076 
L 146.399766 293.937059 
L 146.887919 295.436386 
L 147.191863 295.774741 
L 147.495807 295.782083 
L 147.827383 295.826459 
L 148.076065 296.135902 
L 148.536586 296.714679 
L 148.674743 296.568033 
L 148.877372 295.931039 
L 149.255 293.785195 
L 149.872099 290.580098 
L 150.240516 289.681988 
L 150.479987 289.548869 
L 150.682617 289.706022 
L 151.004982 290.322502 
L 151.502345 291.19782 
L 151.695764 291.185736 
L 151.962867 290.86521 
L 152.303653 290.562614 
L 152.487861 290.683064 
L 152.819437 291.27441 
L 153.30759 291.98567 
L 153.694428 292.579819 
L 154.422052 293.912272 
L 154.578629 293.762961 
L 154.8181 293.144908 
L 155.65625 290.67424 
L 155.803617 290.7808 
L 156.015457 291.308924 
L 156.954921 294.09646 
L 157.304917 294.184518 
L 157.682545 294.36786 
L 158.382537 294.7705 
L 158.668061 294.663105 
L 158.962795 294.278356 
L 159.681208 293.223881 
L 159.856206 293.378189 
L 160.15094 294.031628 
L 160.519357 294.689636 
L 160.657514 294.621425 
L 160.832512 294.18017 
L 161.108825 292.719867 
L 161.956185 287.801641 
L 162.121973 287.706034 
L 162.131183 287.711719 
L 162.27855 287.950226 
L 162.527232 288.88869 
L 163.35617 292.386036 
L 163.494327 292.337838 
L 163.678535 291.936227 
L 164.617999 289.424003 
L 164.903523 288.925028 
L 165.170625 287.89528 
L 165.91667 284.701152 
L 166.064037 284.73238 
L 166.266667 285.124672 
L 167.049553 286.862471 
L 167.298235 286.932768 
L 167.491654 286.74612 
L 167.740336 286.140124 
L 168.541643 283.904082 
L 168.6798 284.060312 
L 168.910061 284.766893 
L 169.481107 286.606501 
L 169.600843 286.532052 
L 169.775841 286.029321 
L 170.503465 283.396656 
L 170.531096 283.409471 
L 170.687674 283.647414 
L 171.185037 284.555481 
L 171.203458 284.544857 
L 171.332404 284.31905 
L 171.535033 283.397882 
L 171.857399 280.686681 
L 172.548181 274.803851 
L 172.796863 274.235717 
L 172.981071 274.247814 
L 173.515276 274.452364 
L 173.81922 274.174576 
L 174.316584 273.763334 
L 174.565265 273.836102 
L 174.896841 274.223942 
L 175.845515 275.77263 
L 176.15867 277.270186 
L 176.784979 280.319225 
L 176.895505 280.335465 
L 176.913925 280.314747 
L 177.052082 279.944499 
L 177.291553 278.510104 
L 177.982335 274.04051 
L 178.08365 274.017068 
L 178.111282 274.049641 
L 178.258648 274.483788 
L 178.553382 276.266795 
L 178.995483 278.595606 
L 179.115219 278.688042 
L 179.15206 278.65685 
L 179.290217 278.300338 
L 179.557319 276.806748 
L 180.045472 274.262649 
L 180.22047 274.12268 
L 180.229681 274.127342 
L 180.386258 274.348818 
L 181.298091 276.063387 
L 181.537562 275.986851 
L 182.200713 275.635242 
L 182.394132 275.968525 
L 182.688866 277.017923 
L 183.305965 279.227961 
L 183.471753 279.258228 
L 183.62833 278.983329 
L 183.886222 277.973998 
L 184.991474 272.868178 
L 185.009895 272.875668 
L 185.138841 273.077417 
L 185.350681 273.938903 
L 185.866465 277.365996 
L 186.253303 279.09938 
L 186.428301 279.259163 
L 186.437512 279.254294 
L 186.566458 279.032374 
L 186.759877 278.116789 
L 187.0454 275.459243 
L 187.938812 266.239338 
L 188.141441 265.976081 
L 188.298019 266.125488 
L 189.265114 267.433294 
L 189.836161 267.804383 
L 190.158526 268.496486 
L 190.563785 269.236121 
L 190.692731 269.14598 
L 190.849308 268.668196 
L 191.079569 267.107532 
L 191.494038 262.335639 
L 191.899297 258.716576 
L 192.028243 258.496562 
L 192.055875 258.520486 
L 192.1664 258.860518 
L 192.37824 260.456499 
L 193.308493 268.63379 
L 193.566385 269.016781 
L 193.934803 269.400725 
L 194.192695 270.188408 
L 194.994002 272.976993 
L 195.132159 272.896539 
L 195.334788 272.424723 
L 196.255831 269.860226 
L 196.688722 269.412492 
L 196.928193 268.637166 
L 197.324241 266.407882 
L 197.757132 264.415276 
L 197.904499 264.303627 
L 197.92292 264.315869 
L 198.051866 264.563938 
L 198.282126 265.619797 
L 198.972909 269.060689 
L 199.111065 269.069049 
L 199.120276 269.059998 
L 199.295274 268.706703 
L 200.05974 266.849326 
L 200.511051 266.376538 
L 200.778153 265.566128 
L 201.78209 261.826338 
L 201.828142 261.850928 
L 201.966299 262.119389 
L 202.19656 263.187074 
L 202.905763 266.923851 
L 202.914973 266.921431 
L 203.016288 266.747349 
L 203.182076 265.881443 
L 203.48602 262.846545 
L 204.038646 257.643703 
L 204.250486 257.203901 
L 204.370222 257.342755 
L 204.637324 258.166339 
L 204.950479 258.833244 
L 205.070214 258.744708 
L 205.236002 258.22498 
L 205.493894 256.526299 
L 205.899153 252.120958 
L 206.792565 242.131681 
L 207.041247 241.406945 
L 207.179403 241.441938 
L 207.363612 241.832296 
L 207.676766 243.114201 
L 208.008342 245.45269 
L 208.413601 250.207278 
L 208.957016 256.084075 
L 209.113594 256.46263 
L 209.141225 256.44804 
L 209.24254 256.192291 
L 209.435959 254.929889 
L 209.979374 249.189551 
L 210.928049 238.862681 
L 211.628041 228.327145 
L 211.756988 227.995233 
L 211.793829 228.022833 
L 211.904354 228.400099 
L 212.134615 230.233367 
L 212.678031 234.542675 
L 212.806977 234.708635 
L 212.843818 234.6826 
L 212.972764 234.361459 
L 213.230657 232.949526 
L 214.059595 228.157212 
L 214.547748 226.47422 
L 214.704326 226.409414 
L 214.713536 226.416818 
L 214.851692 226.683117 
L 215.100374 227.78022 
L 215.570106 229.770165 
L 215.66221 229.755106 
L 215.680631 229.727671 
L 215.818788 229.247404 
L 216.039838 227.498006 
L 216.94246 218.919007 
L 216.970092 218.938428 
L 217.080617 219.263858 
L 217.283246 220.756567 
L 218.056923 227.24034 
L 218.139817 227.132264 
L 218.287183 226.397459 
L 218.554286 223.661852 
L 219.318752 215.445733 
L 219.770063 213.349835 
L 220.304268 210.809577 
L 220.78321 207.17278 
L 222.017408 197.448686 
L 222.422667 196.068728 
L 222.855557 195.246122 
L 222.966083 195.323207 
L 223.104239 195.800707 
L 223.306869 197.51974 
L 223.610813 202.429126 
L 224.283174 213.51375 
L 224.439752 213.997708 
L 224.467383 213.974689 
L 224.568698 213.627381 
L 224.762117 211.957382 
L 225.148955 206.18826 
L 225.729212 198.331358 
L 225.968683 197.384103 
L 226.069998 197.450873 
L 226.244996 198.017409 
L 226.668676 199.362921 
L 226.769991 199.269109 
L 226.944989 198.667737 
L 227.506825 196.511955 
L 227.61735 196.611924 
L 227.81998 197.222618 
L 228.262081 198.511782 
L 228.391027 198.462083 
L 228.556814 198.045536 
L 228.851548 196.566258 
L 229.514699 191.855578 
L 229.864696 187.671986 
L 230.288376 179.313833 
L 230.758108 171.328893 
L 230.850212 171.024528 
L 230.896264 171.099888 
L 231.006789 171.926868 
L 231.200208 175.472293 
L 231.642309 189.130104 
L 232.047568 198.424938 
L 232.287039 200.066275 
L 232.351512 200.080472 
L 232.388354 200.023193 
L 232.535721 199.410834 
L 232.821244 197.038932 
L 233.088347 193.014564 
L 233.309397 185.908862 
L 233.548868 170.013974 
L 233.862023 131.632593 
L 234.479122 55.107929 
L 234.543595 54.144 
L 234.589647 54.671281 
L 234.700172 59.957767 
L 234.912012 83.312577 
L 235.740951 185.417082 
L 236.044895 196.106202 
L 236.339629 199.828205 
L 236.597521 200.92744 
L 236.680415 200.938684 
L 236.708046 200.899371 
L 236.827782 200.446785 
L 237.011991 198.72521 
L 237.297514 193.572 
L 237.896192 182.585959 
L 237.969875 182.398024 
L 238.025138 182.511151 
L 238.144874 183.499532 
L 238.365924 187.674042 
L 239.581701 214.917947 
L 239.811962 215.71058 
L 239.913276 215.636643 
L 240.069854 215.110994 
L 240.373798 213.113362 
L 241.06458 208.575856 
L 241.322472 208.097508 
L 241.460629 208.180241 
L 241.635627 208.646671 
L 241.893519 210.10935 
L 242.639564 215.208993 
L 242.685616 215.171016 
L 242.805352 214.743935 
L 243.035613 212.840964 
L 243.440872 209.77806 
L 243.486924 209.774319 
L 243.523766 209.846602 
L 243.643501 210.560543 
L 243.855341 213.475398 
L 244.601386 224.886549 
L 244.675069 224.979489 
L 244.721122 224.92259 
L 244.850068 224.347547 
L 245.11717 221.819961 
L 245.798742 215.319445 
L 246.148738 213.953051 
L 246.415841 213.605479 
L 246.590839 213.672565 
L 246.784258 214.047685 
L 247.03294 215.093399 
L 247.346095 217.5323 
L 247.917141 224.318515 
L 248.350032 228.112973 
L 248.598713 228.787506 
L 248.718449 228.727495 
L 248.902657 228.269911 
L 249.888174 225.296915 
L 250.357906 224.694836 
L 250.496062 224.807635 
L 250.66185 225.342412 
L 250.8829 226.942895 
L 251.223686 231.383471 
L 251.9421 240.931145 
L 252.135519 241.495427 
L 252.144729 241.49159 
L 252.236834 241.295555 
L 252.402621 240.218518 
L 252.660514 236.76852 
L 253.121035 226.865751 
L 253.590767 218.476266 
L 253.802607 217.477613 
L 253.87629 217.587752 
L 254.023657 218.39101 
L 254.438127 222.461889 
L 254.760492 224.396925 
L 254.917069 224.552075 
L 254.93549 224.542352 
L 255.092067 224.292718 
L 255.921006 222.624806 
L 256.086794 222.68727 
L 256.252582 223.048843 
L 256.473632 224.156272 
L 256.795997 227.131676 
L 257.357834 234.856468 
L 258.269666 246.976176 
L 258.684136 249.838696 
L 258.969659 250.596728 
L 259.117026 250.581144 
L 259.273603 250.240026 
L 259.513074 249.059499 
L 259.936754 245.545732 
L 260.360434 242.745076 
L 260.498591 242.564755 
L 260.526222 242.580902 
L 260.645958 242.837879 
L 260.885429 244.02897 
L 261.419634 246.624014 
L 261.613053 246.772129 
L 261.751209 246.564023 
L 261.963049 245.734984 
L 262.313046 243.253522 
L 262.736725 240.674126 
L 262.82883 240.602412 
L 262.865672 240.644354 
L 262.985407 241.0711 
L 263.197247 242.838511 
L 263.989344 250.334281 
L 264.081448 250.349183 
L 264.10908 250.31654 
L 264.265657 249.885287 
L 265.011702 247.449346 
L 265.241963 247.385067 
L 265.499855 247.573785 
L 265.969587 247.920089 
L 266.126164 247.718097 
L 266.328794 246.981447 
L 266.623528 244.885848 
L 267.305099 239.868392 
L 267.461677 239.696864 
L 267.480098 239.705879 
L 267.618254 239.940908 
L 267.885357 240.969515 
L 268.769558 245.595187 
L 269.312974 250.294299 
L 269.699812 252.697028 
L 269.902441 252.976942 
L 270.022177 252.814745 
L 270.224806 252.053839 
L 270.556382 249.775774 
L 271.597161 242.006302 
L 271.827421 241.702131 
L 272.361626 241.483465 
L 272.601098 240.653435 
L 273.144513 238.703556 
L 273.255038 238.762847 
L 273.402405 239.209139 
L 273.651087 240.836454 
L 274.553709 247.484691 
L 275.226071 249.754763 
L 275.603698 252.760863 
L 276.69974 262.1485 
L 276.939211 262.559938 
L 277.114209 262.489508 
L 277.952358 261.84118 
L 278.431301 261.769468 
L 278.818139 261.784264 
L 278.983927 261.440204 
L 279.195766 260.372085 
L 279.545763 257.181617 
L 280.13523 252.143124 
L 280.411543 251.332797 
L 280.595752 251.285725 
L 280.807592 251.525836 
L 281.40627 252.268676 
L 281.645741 252.198757 
L 282.060211 252.048517 
L 282.216788 252.300157 
L 282.419417 253.139778 
L 282.714151 255.509413 
L 283.368092 260.913261 
L 283.487827 261.043777 
L 283.524669 261.01427 
L 283.653615 260.680692 
L 283.920718 259.204372 
L 284.436502 256.524214 
L 284.6115 256.36013 
L 284.620711 256.3644 
L 284.758867 256.570906 
L 285.016759 257.494499 
L 285.624648 259.680593 
L 285.864119 259.881686 
L 286.020696 259.762101 
L 286.214115 259.285083 
L 286.490428 257.91203 
L 287.098317 254.775181 
L 287.190421 254.789393 
L 287.208842 254.815463 
L 287.346998 255.251506 
L 287.60489 256.993874 
L 288.470671 263.337015 
L 289.483818 267.314394 
L 289.658817 267.451289 
L 289.668027 267.446053 
L 289.796973 267.22659 
L 289.990392 266.360023 
L 290.294336 263.773878 
L 291.537745 251.742994 
L 291.703532 251.53628 
L 291.721953 251.54731 
L 291.841689 251.783045 
L 292.053529 252.808256 
L 292.744311 256.485316 
L 292.93773 256.565071 
L 293.260095 256.57303 
L 293.425883 256.961675 
L 293.665354 258.238538 
L 294.135086 262.340897 
L 294.558766 265.217284 
L 294.724554 265.466264 
L 294.742975 265.456254 
L 294.86271 265.214455 
L 295.083761 264.121752 
L 295.581124 261.688905 
L 295.682439 261.682538 
L 295.70086 261.705259 
L 295.839016 262.096649 
L 296.106119 263.693381 
L 296.99032 269.318437 
L 297.395579 270.523231 
L 297.662681 270.779736 
L 297.856101 270.695486 
L 298.104782 270.286422 
L 298.638987 268.821329 
L 299.486347 266.121389 
L 300.287654 263.045967 
L 300.471863 262.983294 
L 300.62844 263.204155 
L 300.849491 263.969981 
L 301.181066 266.079452 
L 301.816586 270.107303 
L 302.019216 270.341545 
L 302.185003 270.204981 
L 302.571841 269.87672 
L 302.719208 270.080371 
L 302.949469 270.86838 
L 303.584989 273.197185 
L 303.723145 273.160531 
L 303.925775 272.77311 
L 304.340244 272.030379 
L 304.487611 272.122493 
L 304.699451 272.616296 
L 305.408654 274.463106 
L 305.583652 274.417519 
L 305.804703 274.04601 
L 306.845482 271.90188 
L 307.002059 272.041353 
L 307.186268 272.590072 
L 307.434949 274.173988 
L 308.475728 282.055759 
L 308.761251 282.166855 
L 308.94546 282.397906 
L 309.212562 283.207595 
L 309.599401 284.20272 
L 309.719136 284.125144 
L 309.884924 283.62252 
L 310.2165 281.690697 
L 310.612548 279.873504 
L 310.741494 279.804297 
L 310.769125 279.829338 
L 310.916492 280.185908 
L 311.192805 281.608231 
L 311.902008 285.327572 
L 312.252005 286.105909 
L 312.427003 286.12592 
L 312.58358 285.835375 
L 312.804631 284.851643 
L 313.688832 280.047446 
L 313.716463 280.058472 
L 313.845409 280.279795 
L 314.07567 281.242833 
L 315.641444 289.116203 
L 315.844073 289.242096 
L 315.99144 289.037034 
L 316.230911 288.214503 
L 317.087481 284.923313 
L 317.69537 283.133957 
L 318.570361 280.372173 
L 318.76378 280.319279 
L 318.938778 280.563192 
L 319.270354 281.535357 
L 319.703244 282.583611 
L 319.915084 282.645096 
L 320.117713 282.422996 
L 320.541393 281.495441 
L 320.817706 281.172249 
L 320.946652 281.307418 
L 321.12165 281.899623 
L 321.407174 283.840405 
L 322.079535 288.568098 
L 322.300586 288.884283 
L 322.466373 288.778962 
L 323.203208 288.059762 
L 323.755834 288.012466 
L 323.967674 287.60371 
L 324.271618 286.428215 
L 325.211082 282.390155 
L 325.478184 282.196676 
L 326.353175 282.146202 
L 326.565015 282.626067 
L 326.942643 284.194152 
L 327.375533 285.634345 
L 327.615004 285.817265 
L 328.084736 285.945496 
L 328.296576 286.478257 
L 328.664994 288.172668 
L 329.272882 290.754713 
L 329.65051 291.503215 
L 329.880771 291.576428 
L 330.092611 291.372096 
L 330.488659 290.576102 
L 331.446544 288.723513 
L 331.686015 288.619808 
L 331.870224 288.807451 
L 332.164958 289.508955 
L 332.874161 291.212194 
L 333.297841 291.676606 
L 333.555733 291.686082 
L 333.841256 291.430431 
L 334.375461 290.959279 
L 335.176769 290.652603 
L 335.508344 289.922054 
L 336.024128 288.870736 
L 336.217547 288.870033 
L 336.438598 289.149469 
L 336.889909 290.176307 
L 337.34122 291.68358 
L 337.884636 294.475762 
L 338.483314 297.134114 
L 338.83331 297.846539 
L 339.026729 297.883709 
L 339.201727 297.65251 
L 339.46883 296.83734 
L 340.518819 293.178583 
L 340.785921 292.958602 
L 340.951709 293.089286 
L 341.163549 293.619195 
L 341.531966 295.292517 
L 342.020119 297.19942 
L 342.25959 297.428813 
L 342.443799 297.31049 
L 342.756954 296.76457 
L 343.328 295.266323 
L 344.120098 293.14661 
L 344.285885 293.172765 
L 344.460884 293.517488 
L 344.737197 294.681336 
L 345.814817 299.872585 
L 346.035867 300.0109 
L 346.229286 299.850218 
L 347.021384 298.935062 
L 347.251644 299.178103 
L 348.384527 300.724834 
L 348.623999 300.529089 
L 349.222677 299.9485 
L 349.425306 300.109744 
L 349.793723 300.788362 
L 350.263455 301.485932 
L 350.622662 301.643767 
L 350.954238 301.562169 
L 351.285813 301.224389 
L 351.958175 300.486266 
L 352.216067 300.562099 
L 352.814745 300.830821 
L 353.091058 300.597735 
L 353.588421 300.180072 
L 353.827892 300.277257 
L 354.730515 300.89194 
L 355.402876 300.758354 
L 355.669979 301.124291 
L 356.287078 302.016768 
L 356.526549 301.967806 
L 357.051543 301.774563 
L 357.309435 302.014068 
L 357.84364 302.53914 
L 358.04627 302.416635 
L 358.331793 301.914868 
L 359.289678 300.056469 
L 359.584412 299.909394 
L 359.796252 300.053428 
L 360.072565 300.569844 
L 360.790978 302.006303 
L 361.131764 302.127616 
L 362.126491 302.157035 
L 362.485698 301.760723 
L 363.756737 300.119464 
L 364.005419 300.264107 
L 364.392257 300.809693 
L 365.046198 301.667527 
L 365.52514 302.285181 
L 366.326448 303.506223 
L 366.501446 303.376692 
L 366.740917 302.855354 
L 367.146176 301.311159 
L 367.781696 299.051599 
L 368.113271 298.605165 
L 368.868527 298.181192 
L 369.080367 298.2517 
L 369.282996 298.607538 
L 369.57773 299.673438 
L 370.397458 302.854274 
L 370.618509 303.0004 
L 370.793507 302.848564 
L 371.042189 302.265951 
L 371.401395 300.759774 
L 372.35007 296.411231 
L 372.506647 296.4143 
L 372.672435 296.748015 
L 372.681645 296.776137 
L 372.681645 296.776137 
" style="fill:none;stroke:#ff7f0e;stroke-linecap:square;stroke-width:1.5;"/>
   </g>
   <g id="patch_103">
    <path d="M 57.6 307.584 
L 57.6 41.472 
" style="fill:none;stroke:#000000;stroke-linecap:square;stroke-linejoin:miter;stroke-width:0.8;"/>
   </g>
   <g id="patch_104">
    <path d="M 414.72 307.584 
L 414.72 41.472 
" style="fill:none;stroke:#000000;stroke-linecap:square;stroke-linejoin:miter;stroke-width:0.8;"/>
   </g>
   <g id="patch_105">
    <path d="M 57.6 307.584 
L 414.72 307.584 
" style="fill:none;stroke:#000000;stroke-linecap:square;stroke-linejoin:miter;stroke-width:0.8;"/>
   </g>
   <g id="patch_106">
    <path d="M 57.6 41.472 
L 414.72 41.472 
" style="fill:none;stroke:#000000;stroke-linecap:square;stroke-linejoin:miter;stroke-width:0.8;"/>
   </g>
  </g>
 </g>
 <defs>
  <clipPath id="p2256cea2e7">
   <rect height="266.112" width="357.12" x="57.6" y="41.472"/>
  </clipPath>
 </defs>
</svg>
