<?xml version="1.0" encoding="utf-8" standalone="no"?>
<!DOCTYPE svg PUBLIC "-//W3C//DTD SVG 1.1//EN"
  "http://www.w3.org/Graphics/SVG/1.1/DTD/svg11.dtd">
<!-- Created with matplotlib (https://matplotlib.org/) -->
<svg height="345.6pt" version="1.1" viewBox="0 0 460.8 345.6" width="460.8pt" xmlns="http://www.w3.org/2000/svg" xmlns:xlink="http://www.w3.org/1999/xlink">
 <defs>
  <style type="text/css">
*{stroke-linecap:butt;stroke-linejoin:round;}
  </style>
 </defs>
 <g id="figure_1">
  <g id="patch_1">
   <path d="M 0 345.6 
L 460.8 345.6 
L 460.8 0 
L 0 0 
z
" style="fill:#ffffff;"/>
  </g>
  <g id="axes_1">
   <g id="patch_2">
    <path d="M 57.6 307.584 
L 414.72 307.584 
L 414.72 41.472 
L 57.6 41.472 
z
" style="fill:#ffffff;"/>
   </g>
   <g id="patch_3">
    <path clip-path="url(#pc6f4614bd4)" d="M 73.832727 307.584 
L 77.079268 307.584 
L 77.079268 307.218453 
L 73.832727 307.218453 
z
" style="fill:#1f77b4;"/>
   </g>
   <g id="patch_4">
    <path clip-path="url(#pc6f4614bd4)" d="M 77.079268 307.584 
L 80.325822 307.584 
L 80.325822 307.218454 
L 77.079268 307.218454 
z
" style="fill:#1f77b4;"/>
   </g>
   <g id="patch_5">
    <path clip-path="url(#pc6f4614bd4)" d="M 80.325835 307.584 
L 83.572375 307.584 
L 83.572375 307.401226 
L 80.325835 307.401226 
z
" style="fill:#1f77b4;"/>
   </g>
   <g id="patch_6">
    <path clip-path="url(#pc6f4614bd4)" d="M 83.572362 307.584 
L 86.818903 307.584 
L 86.818903 307.218453 
L 83.572362 307.218453 
z
" style="fill:#1f77b4;"/>
   </g>
   <g id="patch_7">
    <path clip-path="url(#pc6f4614bd4)" d="M 86.818903 307.584 
L 90.065457 307.584 
L 90.065457 306.670136 
L 86.818903 306.670136 
z
" style="fill:#1f77b4;"/>
   </g>
   <g id="patch_8">
    <path clip-path="url(#pc6f4614bd4)" d="M 90.06547 307.584 
L 93.31201 307.584 
L 93.31201 306.852906 
L 90.06547 306.852906 
z
" style="fill:#1f77b4;"/>
   </g>
   <g id="patch_9">
    <path clip-path="url(#pc6f4614bd4)" d="M 93.311997 307.584 
L 96.558551 307.584 
L 96.558551 306.852909 
L 93.311997 306.852909 
z
" style="fill:#1f77b4;"/>
   </g>
   <g id="patch_10">
    <path clip-path="url(#pc6f4614bd4)" d="M 96.558551 307.584 
L 99.805091 307.584 
L 99.805091 307.218453 
L 96.558551 307.218453 
z
" style="fill:#1f77b4;"/>
   </g>
   <g id="patch_11">
    <path clip-path="url(#pc6f4614bd4)" d="M 99.805105 307.584 
L 103.051645 307.584 
L 103.051645 306.121812 
L 99.805105 306.121812 
z
" style="fill:#1f77b4;"/>
   </g>
   <g id="patch_12">
    <path clip-path="url(#pc6f4614bd4)" d="M 103.051632 307.584 
L 106.298186 307.584 
L 106.298186 307.035682 
L 103.051632 307.035682 
z
" style="fill:#1f77b4;"/>
   </g>
   <g id="patch_13">
    <path clip-path="url(#pc6f4614bd4)" d="M 106.298186 307.584 
L 109.544726 307.584 
L 109.544726 306.852906 
L 106.298186 306.852906 
z
" style="fill:#1f77b4;"/>
   </g>
   <g id="patch_14">
    <path clip-path="url(#pc6f4614bd4)" d="M 109.54474 307.584 
L 112.79128 307.584 
L 112.79128 307.584 
L 109.54474 307.584 
z
" style="fill:#1f77b4;"/>
   </g>
   <g id="patch_15">
    <path clip-path="url(#pc6f4614bd4)" d="M 112.791267 307.584 
L 116.037821 307.584 
L 116.037821 305.939045 
L 112.791267 305.939045 
z
" style="fill:#1f77b4;"/>
   </g>
   <g id="patch_16">
    <path clip-path="url(#pc6f4614bd4)" d="M 116.037821 307.584 
L 119.284361 307.584 
L 119.284361 305.939038 
L 116.037821 305.939038 
z
" style="fill:#1f77b4;"/>
   </g>
   <g id="patch_17">
    <path clip-path="url(#pc6f4614bd4)" d="M 119.284361 307.584 
L 122.530915 307.584 
L 122.530915 304.111316 
L 119.284361 304.111316 
z
" style="fill:#1f77b4;"/>
   </g>
   <g id="patch_18">
    <path clip-path="url(#pc6f4614bd4)" d="M 122.530915 307.584 
L 125.777456 307.584 
L 125.777456 304.294076 
L 122.530915 304.294076 
z
" style="fill:#1f77b4;"/>
   </g>
   <g id="patch_19">
    <path clip-path="url(#pc6f4614bd4)" d="M 125.777456 307.584 
L 129.024003 307.584 
L 129.024003 303.380217 
L 125.777456 303.380217 
z
" style="fill:#1f77b4;"/>
   </g>
   <g id="patch_20">
    <path clip-path="url(#pc6f4614bd4)" d="M 129.024003 307.584 
L 132.270543 307.584 
L 132.270543 300.455831 
L 129.024003 300.455831 
z
" style="fill:#1f77b4;"/>
   </g>
   <g id="patch_21">
    <path clip-path="url(#pc6f4614bd4)" d="M 132.270537 307.584 
L 135.517084 307.584 
L 135.517084 301.369712 
L 132.270537 301.369712 
z
" style="fill:#1f77b4;"/>
   </g>
   <g id="patch_22">
    <path clip-path="url(#pc6f4614bd4)" d="M 135.517091 307.584 
L 138.763638 307.584 
L 138.763638 295.703743 
L 135.517091 295.703743 
z
" style="fill:#1f77b4;"/>
   </g>
   <g id="patch_23">
    <path clip-path="url(#pc6f4614bd4)" d="M 138.763631 307.584 
L 142.010178 307.584 
L 142.010178 295.703743 
L 138.763631 295.703743 
z
" style="fill:#1f77b4;"/>
   </g>
   <g id="patch_24">
    <path clip-path="url(#pc6f4614bd4)" d="M 142.010185 307.584 
L 145.256725 307.584 
L 145.256725 297.714228 
L 142.010185 297.714228 
z
" style="fill:#1f77b4;"/>
   </g>
   <g id="patch_25">
    <path clip-path="url(#pc6f4614bd4)" d="M 145.256725 307.584 
L 148.503273 307.584 
L 148.503273 293.693238 
L 145.256725 293.693238 
z
" style="fill:#1f77b4;"/>
   </g>
   <g id="patch_26">
    <path clip-path="url(#pc6f4614bd4)" d="M 148.503266 307.584 
L 151.749813 307.584 
L 151.749813 292.231052 
L 148.503266 292.231052 
z
" style="fill:#1f77b4;"/>
   </g>
   <g id="patch_27">
    <path clip-path="url(#pc6f4614bd4)" d="M 151.74982 307.584 
L 154.99636 307.584 
L 154.99636 292.413794 
L 151.74982 292.413794 
z
" style="fill:#1f77b4;"/>
   </g>
   <g id="patch_28">
    <path clip-path="url(#pc6f4614bd4)" d="M 154.99636 307.584 
L 158.242908 307.584 
L 158.242908 291.865506 
L 154.99636 291.865506 
z
" style="fill:#1f77b4;"/>
   </g>
   <g id="patch_29">
    <path clip-path="url(#pc6f4614bd4)" d="M 158.242901 307.584 
L 161.489448 307.584 
L 161.489448 293.144918 
L 158.242901 293.144918 
z
" style="fill:#1f77b4;"/>
   </g>
   <g id="patch_30">
    <path clip-path="url(#pc6f4614bd4)" d="M 161.489455 307.584 
L 164.736002 307.584 
L 164.736002 288.392815 
L 161.489455 288.392815 
z
" style="fill:#1f77b4;"/>
   </g>
   <g id="patch_31">
    <path clip-path="url(#pc6f4614bd4)" d="M 164.736002 307.584 
L 167.982542 307.584 
L 167.982542 285.102852 
L 164.736002 285.102852 
z
" style="fill:#1f77b4;"/>
   </g>
   <g id="patch_32">
    <path clip-path="url(#pc6f4614bd4)" d="M 167.982536 307.584 
L 171.229083 307.584 
L 171.229083 282.544073 
L 167.982536 282.544073 
z
" style="fill:#1f77b4;"/>
   </g>
   <g id="patch_33">
    <path clip-path="url(#pc6f4614bd4)" d="M 171.22909 307.584 
L 174.475637 307.584 
L 174.475637 276.329785 
L 171.22909 276.329785 
z
" style="fill:#1f77b4;"/>
   </g>
   <g id="patch_34">
    <path clip-path="url(#pc6f4614bd4)" d="M 174.47563 307.584 
L 177.722177 307.584 
L 177.722177 275.415919 
L 174.47563 275.415919 
z
" style="fill:#1f77b4;"/>
   </g>
   <g id="patch_35">
    <path clip-path="url(#pc6f4614bd4)" d="M 177.722184 307.584 
L 180.968728 307.584 
L 180.968728 273.770926 
L 177.722184 273.770926 
z
" style="fill:#1f77b4;"/>
   </g>
   <g id="patch_36">
    <path clip-path="url(#pc6f4614bd4)" d="M 180.968731 307.584 
L 184.215275 307.584 
L 184.215275 272.308739 
L 180.968731 272.308739 
z
" style="fill:#1f77b4;"/>
   </g>
   <g id="patch_37">
    <path clip-path="url(#pc6f4614bd4)" d="M 184.215272 307.584 
L 187.461819 307.584 
L 187.461819 268.836084 
L 184.215272 268.836084 
z
" style="fill:#1f77b4;"/>
   </g>
   <g id="patch_38">
    <path clip-path="url(#pc6f4614bd4)" d="M 187.461819 307.584 
L 190.708363 307.584 
L 190.708363 259.514602 
L 187.461819 259.514602 
z
" style="fill:#1f77b4;"/>
   </g>
   <g id="patch_39">
    <path clip-path="url(#pc6f4614bd4)" d="M 190.708363 307.584 
L 193.95491 307.584 
L 193.95491 260.61129 
L 190.708363 260.61129 
z
" style="fill:#1f77b4;"/>
   </g>
   <g id="patch_40">
    <path clip-path="url(#pc6f4614bd4)" d="M 193.954913 307.584 
L 197.201457 307.584 
L 197.201457 263.352843 
L 193.954913 263.352843 
z
" style="fill:#1f77b4;"/>
   </g>
   <g id="patch_41">
    <path clip-path="url(#pc6f4614bd4)" d="M 197.201454 307.584 
L 200.448001 307.584 
L 200.448001 259.149105 
L 197.201454 259.149105 
z
" style="fill:#1f77b4;"/>
   </g>
   <g id="patch_42">
    <path clip-path="url(#pc6f4614bd4)" d="M 200.448001 307.584 
L 203.694545 307.584 
L 203.694545 256.773002 
L 200.448001 256.773002 
z
" style="fill:#1f77b4;"/>
   </g>
   <g id="patch_43">
    <path clip-path="url(#pc6f4614bd4)" d="M 203.694545 307.584 
L 206.94109 307.584 
L 206.94109 247.817137 
L 203.694545 247.817137 
z
" style="fill:#1f77b4;"/>
   </g>
   <g id="patch_44">
    <path clip-path="url(#pc6f4614bd4)" d="M 206.941089 307.584 
L 210.187634 307.584 
L 210.187634 246.35495 
L 206.941089 246.35495 
z
" style="fill:#1f77b4;"/>
   </g>
   <g id="patch_45">
    <path clip-path="url(#pc6f4614bd4)" d="M 210.187636 307.584 
L 213.434181 307.584 
L 213.434181 236.485193 
L 210.187636 236.485193 
z
" style="fill:#1f77b4;"/>
   </g>
   <g id="patch_46">
    <path clip-path="url(#pc6f4614bd4)" d="M 213.43418 307.584 
L 216.680725 307.584 
L 216.680725 225.336023 
L 213.43418 225.336023 
z
" style="fill:#1f77b4;"/>
   </g>
   <g id="patch_47">
    <path clip-path="url(#pc6f4614bd4)" d="M 216.680727 307.584 
L 219.927272 307.584 
L 219.927272 217.476772 
L 216.680727 217.476772 
z
" style="fill:#1f77b4;"/>
   </g>
   <g id="patch_48">
    <path clip-path="url(#pc6f4614bd4)" d="M 219.927272 307.584 
L 223.173818 307.584 
L 223.173818 197.554484 
L 219.927272 197.554484 
z
" style="fill:#1f77b4;"/>
   </g>
   <g id="patch_49">
    <path clip-path="url(#pc6f4614bd4)" d="M 223.173818 307.584 
L 226.420363 307.584 
L 226.420363 206.144828 
L 223.173818 206.144828 
z
" style="fill:#1f77b4;"/>
   </g>
   <g id="patch_50">
    <path clip-path="url(#pc6f4614bd4)" d="M 226.420363 307.584 
L 229.666909 307.584 
L 229.666909 199.56499 
L 226.420363 199.56499 
z
" style="fill:#1f77b4;"/>
   </g>
   <g id="patch_51">
    <path clip-path="url(#pc6f4614bd4)" d="M 229.666909 307.584 
L 232.913454 307.584 
L 232.913454 188.233046 
L 229.666909 188.233046 
z
" style="fill:#1f77b4;"/>
   </g>
   <g id="patch_52">
    <path clip-path="url(#pc6f4614bd4)" d="M 232.913455 307.584 
L 236.16 307.584 
L 236.16 135.777114 
L 232.913455 135.777114 
z
" style="fill:#1f77b4;"/>
   </g>
   <g id="patch_53">
    <path clip-path="url(#pc6f4614bd4)" d="M 236.16 307.584 
L 239.406546 307.584 
L 239.406546 200.296083 
L 236.16 200.296083 
z
" style="fill:#1f77b4;"/>
   </g>
   <g id="patch_54">
    <path clip-path="url(#pc6f4614bd4)" d="M 239.406546 307.584 
L 242.653091 307.584 
L 242.653091 211.26248 
L 239.406546 211.26248 
z
" style="fill:#1f77b4;"/>
   </g>
   <g id="patch_55">
    <path clip-path="url(#pc6f4614bd4)" d="M 242.653091 307.584 
L 245.899637 307.584 
L 245.899637 220.949464 
L 242.653091 220.949464 
z
" style="fill:#1f77b4;"/>
   </g>
   <g id="patch_56">
    <path clip-path="url(#pc6f4614bd4)" d="M 245.899637 307.584 
L 249.146182 307.584 
L 249.146182 221.86333 
L 245.899637 221.86333 
z
" style="fill:#1f77b4;"/>
   </g>
   <g id="patch_57">
    <path clip-path="url(#pc6f4614bd4)" d="M 249.146182 307.584 
L 252.392728 307.584 
L 252.392728 231.915861 
L 249.146182 231.915861 
z
" style="fill:#1f77b4;"/>
   </g>
   <g id="patch_58">
    <path clip-path="url(#pc6f4614bd4)" d="M 252.392726 307.584 
L 255.639271 307.584 
L 255.639271 227.346529 
L 252.392726 227.346529 
z
" style="fill:#1f77b4;"/>
   </g>
   <g id="patch_59">
    <path clip-path="url(#pc6f4614bd4)" d="M 255.639273 307.584 
L 258.885819 307.584 
L 258.885819 236.30242 
L 255.639273 236.30242 
z
" style="fill:#1f77b4;"/>
   </g>
   <g id="patch_60">
    <path clip-path="url(#pc6f4614bd4)" d="M 258.885817 307.584 
L 262.132363 307.584 
L 262.132363 247.45159 
L 258.885817 247.45159 
z
" style="fill:#1f77b4;"/>
   </g>
   <g id="patch_61">
    <path clip-path="url(#pc6f4614bd4)" d="M 262.132363 307.584 
L 265.378905 307.584 
L 265.378905 242.516678 
L 262.132363 242.516678 
z
" style="fill:#1f77b4;"/>
   </g>
   <g id="patch_62">
    <path clip-path="url(#pc6f4614bd4)" d="M 265.378908 307.584 
L 268.625455 307.584 
L 268.625455 243.065064 
L 265.378908 243.065064 
z
" style="fill:#1f77b4;"/>
   </g>
   <g id="patch_63">
    <path clip-path="url(#pc6f4614bd4)" d="M 268.625458 307.584 
L 271.872002 307.584 
L 271.872002 249.827613 
L 268.625458 249.827613 
z
" style="fill:#1f77b4;"/>
   </g>
   <g id="patch_64">
    <path clip-path="url(#pc6f4614bd4)" d="M 271.871999 307.584 
L 275.118546 307.584 
L 275.118546 246.720528 
L 271.871999 246.720528 
z
" style="fill:#1f77b4;"/>
   </g>
   <g id="patch_65">
    <path clip-path="url(#pc6f4614bd4)" d="M 275.118546 307.584 
L 278.36509 307.584 
L 278.36509 264.449483 
L 275.118546 264.449483 
z
" style="fill:#1f77b4;"/>
   </g>
   <g id="patch_66">
    <path clip-path="url(#pc6f4614bd4)" d="M 278.36509 307.584 
L 281.611637 307.584 
L 281.611637 258.235239 
L 278.36509 258.235239 
z
" style="fill:#1f77b4;"/>
   </g>
   <g id="patch_67">
    <path clip-path="url(#pc6f4614bd4)" d="M 281.611641 307.584 
L 284.858184 307.584 
L 284.858184 259.514602 
L 281.611641 259.514602 
z
" style="fill:#1f77b4;"/>
   </g>
   <g id="patch_68">
    <path clip-path="url(#pc6f4614bd4)" d="M 284.858181 307.584 
L 288.104728 307.584 
L 288.104728 262.439022 
L 284.858181 262.439022 
z
" style="fill:#1f77b4;"/>
   </g>
   <g id="patch_69">
    <path clip-path="url(#pc6f4614bd4)" d="M 288.104728 307.584 
L 291.351275 307.584 
L 291.351275 264.997847 
L 288.104728 264.997847 
z
" style="fill:#1f77b4;"/>
   </g>
   <g id="patch_70">
    <path clip-path="url(#pc6f4614bd4)" d="M 291.351275 307.584 
L 294.597816 307.584 
L 294.597816 260.428421 
L 291.351275 260.428421 
z
" style="fill:#1f77b4;"/>
   </g>
   <g id="patch_71">
    <path clip-path="url(#pc6f4614bd4)" d="M 294.597816 307.584 
L 297.844363 307.584 
L 297.844363 269.018857 
L 294.597816 269.018857 
z
" style="fill:#1f77b4;"/>
   </g>
   <g id="patch_72">
    <path clip-path="url(#pc6f4614bd4)" d="M 297.844357 307.584 
L 301.090904 307.584 
L 301.090904 269.20163 
L 297.844357 269.20163 
z
" style="fill:#1f77b4;"/>
   </g>
   <g id="patch_73">
    <path clip-path="url(#pc6f4614bd4)" d="M 301.09091 307.584 
L 304.337458 307.584 
L 304.337458 274.136506 
L 301.09091 274.136506 
z
" style="fill:#1f77b4;"/>
   </g>
   <g id="patch_74">
    <path clip-path="url(#pc6f4614bd4)" d="M 304.337458 307.584 
L 307.583998 307.584 
L 307.583998 275.598627 
L 304.337458 275.598627 
z
" style="fill:#1f77b4;"/>
   </g>
   <g id="patch_75">
    <path clip-path="url(#pc6f4614bd4)" d="M 307.583992 307.584 
L 310.830539 307.584 
L 310.830539 284.371805 
L 307.583992 284.371805 
z
" style="fill:#1f77b4;"/>
   </g>
   <g id="patch_76">
    <path clip-path="url(#pc6f4614bd4)" d="M 310.830545 307.584 
L 314.077092 307.584 
L 314.077092 284.371805 
L 310.830545 284.371805 
z
" style="fill:#1f77b4;"/>
   </g>
   <g id="patch_77">
    <path clip-path="url(#pc6f4614bd4)" d="M 314.077086 307.584 
L 317.323633 307.584 
L 317.323633 289.489454 
L 314.077086 289.489454 
z
" style="fill:#1f77b4;"/>
   </g>
   <g id="patch_78">
    <path clip-path="url(#pc6f4614bd4)" d="M 317.32364 307.584 
L 320.57018 307.584 
L 320.57018 283.45789 
L 317.32364 283.45789 
z
" style="fill:#1f77b4;"/>
   </g>
   <g id="patch_79">
    <path clip-path="url(#pc6f4614bd4)" d="M 320.57018 307.584 
L 323.816727 307.584 
L 323.816727 287.113403 
L 320.57018 287.113403 
z
" style="fill:#1f77b4;"/>
   </g>
   <g id="patch_80">
    <path clip-path="url(#pc6f4614bd4)" d="M 323.816721 307.584 
L 327.063268 307.584 
L 327.063268 284.920124 
L 323.816721 284.920124 
z
" style="fill:#1f77b4;"/>
   </g>
   <g id="patch_81">
    <path clip-path="url(#pc6f4614bd4)" d="M 327.063275 307.584 
L 330.309815 307.584 
L 330.309815 290.403285 
L 327.063275 290.403285 
z
" style="fill:#1f77b4;"/>
   </g>
   <g id="patch_82">
    <path clip-path="url(#pc6f4614bd4)" d="M 330.309815 307.584 
L 333.556362 307.584 
L 333.556362 291.865506 
L 330.309815 291.865506 
z
" style="fill:#1f77b4;"/>
   </g>
   <g id="patch_83">
    <path clip-path="url(#pc6f4614bd4)" d="M 333.556356 307.584 
L 336.802903 307.584 
L 336.802903 292.231052 
L 333.556356 292.231052 
z
" style="fill:#1f77b4;"/>
   </g>
   <g id="patch_84">
    <path clip-path="url(#pc6f4614bd4)" d="M 336.802909 307.584 
L 340.049457 307.584 
L 340.049457 297.165928 
L 336.802909 297.165928 
z
" style="fill:#1f77b4;"/>
   </g>
   <g id="patch_85">
    <path clip-path="url(#pc6f4614bd4)" d="M 340.049457 307.584 
L 343.295997 307.584 
L 343.295997 296.983133 
L 340.049457 296.983133 
z
" style="fill:#1f77b4;"/>
   </g>
   <g id="patch_86">
    <path clip-path="url(#pc6f4614bd4)" d="M 343.295991 307.584 
L 346.542531 307.584 
L 346.542531 298.262567 
L 343.295991 298.262567 
z
" style="fill:#1f77b4;"/>
   </g>
   <g id="patch_87">
    <path clip-path="url(#pc6f4614bd4)" d="M 346.542558 307.584 
L 349.789098 307.584 
L 349.789098 300.638605 
L 346.542558 300.638605 
z
" style="fill:#1f77b4;"/>
   </g>
   <g id="patch_88">
    <path clip-path="url(#pc6f4614bd4)" d="M 349.789085 307.584 
L 353.035639 307.584 
L 353.035639 302.466361 
L 349.789085 302.466361 
z
" style="fill:#1f77b4;"/>
   </g>
   <g id="patch_89">
    <path clip-path="url(#pc6f4614bd4)" d="M 353.035639 307.584 
L 356.282179 307.584 
L 356.282179 301.369699 
L 353.035639 301.369699 
z
" style="fill:#1f77b4;"/>
   </g>
   <g id="patch_90">
    <path clip-path="url(#pc6f4614bd4)" d="M 356.282179 307.584 
L 359.528733 307.584 
L 359.528733 302.466361 
L 356.282179 302.466361 
z
" style="fill:#1f77b4;"/>
   </g>
   <g id="patch_91">
    <path clip-path="url(#pc6f4614bd4)" d="M 359.528746 307.584 
L 362.775287 307.584 
L 362.775287 302.46634 
L 359.528746 302.46634 
z
" style="fill:#1f77b4;"/>
   </g>
   <g id="patch_92">
    <path clip-path="url(#pc6f4614bd4)" d="M 362.775274 307.584 
L 366.021814 307.584 
L 366.021814 301.91802 
L 362.775274 301.91802 
z
" style="fill:#1f77b4;"/>
   </g>
   <g id="patch_93">
    <path clip-path="url(#pc6f4614bd4)" d="M 366.021814 307.584 
L 369.268368 307.584 
L 369.268368 301.552497 
L 366.021814 301.552497 
z
" style="fill:#1f77b4;"/>
   </g>
   <g id="patch_94">
    <path clip-path="url(#pc6f4614bd4)" d="M 369.268381 307.584 
L 372.514922 307.584 
L 372.514922 301.186925 
L 369.268381 301.186925 
z
" style="fill:#1f77b4;"/>
   </g>
   <g id="patch_95">
    <path clip-path="url(#pc6f4614bd4)" d="M 372.514909 307.584 
L 375.761449 307.584 
L 375.761449 302.649114 
L 372.514909 302.649114 
z
" style="fill:#1f77b4;"/>
   </g>
   <g id="patch_96">
    <path clip-path="url(#pc6f4614bd4)" d="M 375.761449 307.584 
L 379.008003 307.584 
L 379.008003 304.476862 
L 375.761449 304.476862 
z
" style="fill:#1f77b4;"/>
   </g>
   <g id="patch_97">
    <path clip-path="url(#pc6f4614bd4)" d="M 379.008016 307.584 
L 382.254557 307.584 
L 382.254557 305.02517 
L 379.008016 305.02517 
z
" style="fill:#1f77b4;"/>
   </g>
   <g id="patch_98">
    <path clip-path="url(#pc6f4614bd4)" d="M 382.254543 307.584 
L 385.501097 307.584 
L 385.501097 305.025181 
L 382.254543 305.025181 
z
" style="fill:#1f77b4;"/>
   </g>
   <g id="patch_99">
    <path clip-path="url(#pc6f4614bd4)" d="M 385.501097 307.584 
L 388.747638 307.584 
L 388.747638 305.939038 
L 385.501097 305.939038 
z
" style="fill:#1f77b4;"/>
   </g>
   <g id="patch_100">
    <path clip-path="url(#pc6f4614bd4)" d="M 388.747651 307.584 
L 391.994192 307.584 
L 391.994192 306.304585 
L 388.747651 306.304585 
z
" style="fill:#1f77b4;"/>
   </g>
   <g id="patch_101">
    <path clip-path="url(#pc6f4614bd4)" d="M 391.994178 307.584 
L 395.240732 307.584 
L 395.240732 306.121817 
L 391.994178 306.121817 
z
" style="fill:#1f77b4;"/>
   </g>
   <g id="patch_102">
    <path clip-path="url(#pc6f4614bd4)" d="M 395.240732 307.584 
L 398.487273 307.584 
L 398.487273 307.035679 
L 395.240732 307.035679 
z
" style="fill:#1f77b4;"/>
   </g>
   <g id="matplotlib.axis_1">
    <g id="xtick_1">
     <g id="line2d_1">
      <defs>
       <path d="M 0 0 
L 0 3.5 
" id="m17f5c05e23" style="stroke:#000000;stroke-width:0.8;"/>
      </defs>
      <g>
       <use style="stroke:#000000;stroke-width:0.8;" x="68.746619" xlink:href="#m17f5c05e23" y="307.584"/>
      </g>
     </g>
     <g id="text_1">
      <!-- −3 -->
      <defs>
       <path d="M 10.59375 35.5 
L 73.1875 35.5 
L 73.1875 27.203125 
L 10.59375 27.203125 
z
" id="DejaVuSans-8722"/>
       <path d="M 40.578125 39.3125 
Q 47.65625 37.796875 51.625 33 
Q 55.609375 28.21875 55.609375 21.1875 
Q 55.609375 10.40625 48.1875 4.484375 
Q 40.765625 -1.421875 27.09375 -1.421875 
Q 22.515625 -1.421875 17.65625 -0.515625 
Q 12.796875 0.390625 7.625 2.203125 
L 7.625 11.71875 
Q 11.71875 9.328125 16.59375 8.109375 
Q 21.484375 6.890625 26.8125 6.890625 
Q 36.078125 6.890625 40.9375 10.546875 
Q 45.796875 14.203125 45.796875 21.1875 
Q 45.796875 27.640625 41.28125 31.265625 
Q 36.765625 34.90625 28.71875 34.90625 
L 20.21875 34.90625 
L 20.21875 43.015625 
L 29.109375 43.015625 
Q 36.375 43.015625 40.234375 45.921875 
Q 44.09375 48.828125 44.09375 54.296875 
Q 44.09375 59.90625 40.109375 62.90625 
Q 36.140625 65.921875 28.71875 65.921875 
Q 24.65625 65.921875 20.015625 65.03125 
Q 15.375 64.15625 9.8125 62.3125 
L 9.8125 71.09375 
Q 15.4375 72.65625 20.34375 73.4375 
Q 25.25 74.21875 29.59375 74.21875 
Q 40.828125 74.21875 47.359375 69.109375 
Q 53.90625 64.015625 53.90625 55.328125 
Q 53.90625 49.265625 50.4375 45.09375 
Q 46.96875 40.921875 40.578125 39.3125 
z
" id="DejaVuSans-51"/>
      </defs>
      <g transform="translate(56.215759 327.501344)scale(0.17 -0.17)">
       <use xlink:href="#DejaVuSans-8722"/>
       <use x="83.789062" xlink:href="#DejaVuSans-51"/>
      </g>
     </g>
    </g>
    <g id="xtick_2">
     <g id="line2d_2">
      <g>
       <use style="stroke:#000000;stroke-width:0.8;" x="124.009207" xlink:href="#m17f5c05e23" y="307.584"/>
      </g>
     </g>
     <g id="text_2">
      <!-- −2 -->
      <defs>
       <path d="M 19.1875 8.296875 
L 53.609375 8.296875 
L 53.609375 0 
L 7.328125 0 
L 7.328125 8.296875 
Q 12.9375 14.109375 22.625 23.890625 
Q 32.328125 33.6875 34.8125 36.53125 
Q 39.546875 41.84375 41.421875 45.53125 
Q 43.3125 49.21875 43.3125 52.78125 
Q 43.3125 58.59375 39.234375 62.25 
Q 35.15625 65.921875 28.609375 65.921875 
Q 23.96875 65.921875 18.8125 64.3125 
Q 13.671875 62.703125 7.8125 59.421875 
L 7.8125 69.390625 
Q 13.765625 71.78125 18.9375 73 
Q 24.125 74.21875 28.421875 74.21875 
Q 39.75 74.21875 46.484375 68.546875 
Q 53.21875 62.890625 53.21875 53.421875 
Q 53.21875 48.921875 51.53125 44.890625 
Q 49.859375 40.875 45.40625 35.40625 
Q 44.1875 33.984375 37.640625 27.21875 
Q 31.109375 20.453125 19.1875 8.296875 
z
" id="DejaVuSans-50"/>
      </defs>
      <g transform="translate(111.478348 327.501344)scale(0.17 -0.17)">
       <use xlink:href="#DejaVuSans-8722"/>
       <use x="83.789062" xlink:href="#DejaVuSans-50"/>
      </g>
     </g>
    </g>
    <g id="xtick_3">
     <g id="line2d_3">
      <g>
       <use style="stroke:#000000;stroke-width:0.8;" x="179.271796" xlink:href="#m17f5c05e23" y="307.584"/>
      </g>
     </g>
     <g id="text_3">
      <!-- −1 -->
      <defs>
       <path d="M 12.40625 8.296875 
L 28.515625 8.296875 
L 28.515625 63.921875 
L 10.984375 60.40625 
L 10.984375 69.390625 
L 28.421875 72.90625 
L 38.28125 72.90625 
L 38.28125 8.296875 
L 54.390625 8.296875 
L 54.390625 0 
L 12.40625 0 
z
" id="DejaVuSans-49"/>
      </defs>
      <g transform="translate(166.740936 327.501344)scale(0.17 -0.17)">
       <use xlink:href="#DejaVuSans-8722"/>
       <use x="83.789062" xlink:href="#DejaVuSans-49"/>
      </g>
     </g>
    </g>
    <g id="xtick_4">
     <g id="line2d_4">
      <g>
       <use style="stroke:#000000;stroke-width:0.8;" x="234.534384" xlink:href="#m17f5c05e23" y="307.584"/>
      </g>
     </g>
     <g id="text_4">
      <!-- 0 -->
      <defs>
       <path d="M 31.78125 66.40625 
Q 24.171875 66.40625 20.328125 58.90625 
Q 16.5 51.421875 16.5 36.375 
Q 16.5 21.390625 20.328125 13.890625 
Q 24.171875 6.390625 31.78125 6.390625 
Q 39.453125 6.390625 43.28125 13.890625 
Q 47.125 21.390625 47.125 36.375 
Q 47.125 51.421875 43.28125 58.90625 
Q 39.453125 66.40625 31.78125 66.40625 
z
M 31.78125 74.21875 
Q 44.046875 74.21875 50.515625 64.515625 
Q 56.984375 54.828125 56.984375 36.375 
Q 56.984375 17.96875 50.515625 8.265625 
Q 44.046875 -1.421875 31.78125 -1.421875 
Q 19.53125 -1.421875 13.0625 8.265625 
Q 6.59375 17.96875 6.59375 36.375 
Q 6.59375 54.828125 13.0625 64.515625 
Q 19.53125 74.21875 31.78125 74.21875 
z
" id="DejaVuSans-48"/>
      </defs>
      <g transform="translate(229.126259 327.501344)scale(0.17 -0.17)">
       <use xlink:href="#DejaVuSans-48"/>
      </g>
     </g>
    </g>
    <g id="xtick_5">
     <g id="line2d_5">
      <g>
       <use style="stroke:#000000;stroke-width:0.8;" x="289.796973" xlink:href="#m17f5c05e23" y="307.584"/>
      </g>
     </g>
     <g id="text_5">
      <!-- 1 -->
      <g transform="translate(284.388848 327.501344)scale(0.17 -0.17)">
       <use xlink:href="#DejaVuSans-49"/>
      </g>
     </g>
    </g>
    <g id="xtick_6">
     <g id="line2d_6">
      <g>
       <use style="stroke:#000000;stroke-width:0.8;" x="345.059562" xlink:href="#m17f5c05e23" y="307.584"/>
      </g>
     </g>
     <g id="text_6">
      <!-- 2 -->
      <g transform="translate(339.651437 327.501344)scale(0.17 -0.17)">
       <use xlink:href="#DejaVuSans-50"/>
      </g>
     </g>
    </g>
    <g id="xtick_7">
     <g id="line2d_7">
      <g>
       <use style="stroke:#000000;stroke-width:0.8;" x="400.32215" xlink:href="#m17f5c05e23" y="307.584"/>
      </g>
     </g>
     <g id="text_7">
      <!-- 3 -->
      <g transform="translate(394.914025 327.501344)scale(0.17 -0.17)">
       <use xlink:href="#DejaVuSans-51"/>
      </g>
     </g>
    </g>
    <g id="text_8">
     <!-- Position in Radian -->
     <defs>
      <path d="M 19.671875 64.796875 
L 19.671875 37.40625 
L 32.078125 37.40625 
Q 38.96875 37.40625 42.71875 40.96875 
Q 46.484375 44.53125 46.484375 51.125 
Q 46.484375 57.671875 42.71875 61.234375 
Q 38.96875 64.796875 32.078125 64.796875 
z
M 9.8125 72.90625 
L 32.078125 72.90625 
Q 44.34375 72.90625 50.609375 67.359375 
Q 56.890625 61.8125 56.890625 51.125 
Q 56.890625 40.328125 50.609375 34.8125 
Q 44.34375 29.296875 32.078125 29.296875 
L 19.671875 29.296875 
L 19.671875 0 
L 9.8125 0 
z
" id="DejaVuSans-80"/>
      <path d="M 30.609375 48.390625 
Q 23.390625 48.390625 19.1875 42.75 
Q 14.984375 37.109375 14.984375 27.296875 
Q 14.984375 17.484375 19.15625 11.84375 
Q 23.34375 6.203125 30.609375 6.203125 
Q 37.796875 6.203125 41.984375 11.859375 
Q 46.1875 17.53125 46.1875 27.296875 
Q 46.1875 37.015625 41.984375 42.703125 
Q 37.796875 48.390625 30.609375 48.390625 
z
M 30.609375 56 
Q 42.328125 56 49.015625 48.375 
Q 55.71875 40.765625 55.71875 27.296875 
Q 55.71875 13.875 49.015625 6.21875 
Q 42.328125 -1.421875 30.609375 -1.421875 
Q 18.84375 -1.421875 12.171875 6.21875 
Q 5.515625 13.875 5.515625 27.296875 
Q 5.515625 40.765625 12.171875 48.375 
Q 18.84375 56 30.609375 56 
z
" id="DejaVuSans-111"/>
      <path d="M 44.28125 53.078125 
L 44.28125 44.578125 
Q 40.484375 46.53125 36.375 47.5 
Q 32.28125 48.484375 27.875 48.484375 
Q 21.1875 48.484375 17.84375 46.4375 
Q 14.5 44.390625 14.5 40.28125 
Q 14.5 37.15625 16.890625 35.375 
Q 19.28125 33.59375 26.515625 31.984375 
L 29.59375 31.296875 
Q 39.15625 29.25 43.1875 25.515625 
Q 47.21875 21.78125 47.21875 15.09375 
Q 47.21875 7.46875 41.1875 3.015625 
Q 35.15625 -1.421875 24.609375 -1.421875 
Q 20.21875 -1.421875 15.453125 -0.5625 
Q 10.6875 0.296875 5.421875 2 
L 5.421875 11.28125 
Q 10.40625 8.6875 15.234375 7.390625 
Q 20.0625 6.109375 24.8125 6.109375 
Q 31.15625 6.109375 34.5625 8.28125 
Q 37.984375 10.453125 37.984375 14.40625 
Q 37.984375 18.0625 35.515625 20.015625 
Q 33.0625 21.96875 24.703125 23.78125 
L 21.578125 24.515625 
Q 13.234375 26.265625 9.515625 29.90625 
Q 5.8125 33.546875 5.8125 39.890625 
Q 5.8125 47.609375 11.28125 51.796875 
Q 16.75 56 26.8125 56 
Q 31.78125 56 36.171875 55.265625 
Q 40.578125 54.546875 44.28125 53.078125 
z
" id="DejaVuSans-115"/>
      <path d="M 9.421875 54.6875 
L 18.40625 54.6875 
L 18.40625 0 
L 9.421875 0 
z
M 9.421875 75.984375 
L 18.40625 75.984375 
L 18.40625 64.59375 
L 9.421875 64.59375 
z
" id="DejaVuSans-105"/>
      <path d="M 18.3125 70.21875 
L 18.3125 54.6875 
L 36.8125 54.6875 
L 36.8125 47.703125 
L 18.3125 47.703125 
L 18.3125 18.015625 
Q 18.3125 11.328125 20.140625 9.421875 
Q 21.96875 7.515625 27.59375 7.515625 
L 36.8125 7.515625 
L 36.8125 0 
L 27.59375 0 
Q 17.1875 0 13.234375 3.875 
Q 9.28125 7.765625 9.28125 18.015625 
L 9.28125 47.703125 
L 2.6875 47.703125 
L 2.6875 54.6875 
L 9.28125 54.6875 
L 9.28125 70.21875 
z
" id="DejaVuSans-116"/>
      <path d="M 54.890625 33.015625 
L 54.890625 0 
L 45.90625 0 
L 45.90625 32.71875 
Q 45.90625 40.484375 42.875 44.328125 
Q 39.84375 48.1875 33.796875 48.1875 
Q 26.515625 48.1875 22.3125 43.546875 
Q 18.109375 38.921875 18.109375 30.90625 
L 18.109375 0 
L 9.078125 0 
L 9.078125 54.6875 
L 18.109375 54.6875 
L 18.109375 46.1875 
Q 21.34375 51.125 25.703125 53.5625 
Q 30.078125 56 35.796875 56 
Q 45.21875 56 50.046875 50.171875 
Q 54.890625 44.34375 54.890625 33.015625 
z
" id="DejaVuSans-110"/>
      <path id="DejaVuSans-32"/>
      <path d="M 44.390625 34.1875 
Q 47.5625 33.109375 50.5625 29.59375 
Q 53.5625 26.078125 56.59375 19.921875 
L 66.609375 0 
L 56 0 
L 46.6875 18.703125 
Q 43.0625 26.03125 39.671875 28.421875 
Q 36.28125 30.8125 30.421875 30.8125 
L 19.671875 30.8125 
L 19.671875 0 
L 9.8125 0 
L 9.8125 72.90625 
L 32.078125 72.90625 
Q 44.578125 72.90625 50.734375 67.671875 
Q 56.890625 62.453125 56.890625 51.90625 
Q 56.890625 45.015625 53.6875 40.46875 
Q 50.484375 35.9375 44.390625 34.1875 
z
M 19.671875 64.796875 
L 19.671875 38.921875 
L 32.078125 38.921875 
Q 39.203125 38.921875 42.84375 42.21875 
Q 46.484375 45.515625 46.484375 51.90625 
Q 46.484375 58.296875 42.84375 61.546875 
Q 39.203125 64.796875 32.078125 64.796875 
z
" id="DejaVuSans-82"/>
      <path d="M 34.28125 27.484375 
Q 23.390625 27.484375 19.1875 25 
Q 14.984375 22.515625 14.984375 16.5 
Q 14.984375 11.71875 18.140625 8.90625 
Q 21.296875 6.109375 26.703125 6.109375 
Q 34.1875 6.109375 38.703125 11.40625 
Q 43.21875 16.703125 43.21875 25.484375 
L 43.21875 27.484375 
z
M 52.203125 31.203125 
L 52.203125 0 
L 43.21875 0 
L 43.21875 8.296875 
Q 40.140625 3.328125 35.546875 0.953125 
Q 30.953125 -1.421875 24.3125 -1.421875 
Q 15.921875 -1.421875 10.953125 3.296875 
Q 6 8.015625 6 15.921875 
Q 6 25.140625 12.171875 29.828125 
Q 18.359375 34.515625 30.609375 34.515625 
L 43.21875 34.515625 
L 43.21875 35.40625 
Q 43.21875 41.609375 39.140625 45 
Q 35.0625 48.390625 27.6875 48.390625 
Q 23 48.390625 18.546875 47.265625 
Q 14.109375 46.140625 10.015625 43.890625 
L 10.015625 52.203125 
Q 14.9375 54.109375 19.578125 55.046875 
Q 24.21875 56 28.609375 56 
Q 40.484375 56 46.34375 49.84375 
Q 52.203125 43.703125 52.203125 31.203125 
z
" id="DejaVuSans-97"/>
      <path d="M 45.40625 46.390625 
L 45.40625 75.984375 
L 54.390625 75.984375 
L 54.390625 0 
L 45.40625 0 
L 45.40625 8.203125 
Q 42.578125 3.328125 38.25 0.953125 
Q 33.9375 -1.421875 27.875 -1.421875 
Q 17.96875 -1.421875 11.734375 6.484375 
Q 5.515625 14.40625 5.515625 27.296875 
Q 5.515625 40.1875 11.734375 48.09375 
Q 17.96875 56 27.875 56 
Q 33.9375 56 38.25 53.625 
Q 42.578125 51.265625 45.40625 46.390625 
z
M 14.796875 27.296875 
Q 14.796875 17.390625 18.875 11.75 
Q 22.953125 6.109375 30.078125 6.109375 
Q 37.203125 6.109375 41.296875 11.75 
Q 45.40625 17.390625 45.40625 27.296875 
Q 45.40625 37.203125 41.296875 42.84375 
Q 37.203125 48.484375 30.078125 48.484375 
Q 22.953125 48.484375 18.875 42.84375 
Q 14.796875 37.203125 14.796875 27.296875 
z
" id="DejaVuSans-100"/>
     </defs>
     <g transform="translate(102.024844 357.832125)scale(0.3 -0.3)">
      <use xlink:href="#DejaVuSans-80"/>
      <use x="60.255859" xlink:href="#DejaVuSans-111"/>
      <use x="121.4375" xlink:href="#DejaVuSans-115"/>
      <use x="173.537109" xlink:href="#DejaVuSans-105"/>
      <use x="201.320312" xlink:href="#DejaVuSans-116"/>
      <use x="240.529297" xlink:href="#DejaVuSans-105"/>
      <use x="268.3125" xlink:href="#DejaVuSans-111"/>
      <use x="329.494141" xlink:href="#DejaVuSans-110"/>
      <use x="392.873047" xlink:href="#DejaVuSans-32"/>
      <use x="424.660156" xlink:href="#DejaVuSans-105"/>
      <use x="452.443359" xlink:href="#DejaVuSans-110"/>
      <use x="515.822266" xlink:href="#DejaVuSans-32"/>
      <use x="547.609375" xlink:href="#DejaVuSans-82"/>
      <use x="617.060547" xlink:href="#DejaVuSans-97"/>
      <use x="678.339844" xlink:href="#DejaVuSans-100"/>
      <use x="741.816406" xlink:href="#DejaVuSans-105"/>
      <use x="769.599609" xlink:href="#DejaVuSans-97"/>
      <use x="830.878906" xlink:href="#DejaVuSans-110"/>
     </g>
    </g>
   </g>
   <g id="matplotlib.axis_2">
    <g id="ytick_1">
     <g id="line2d_8">
      <defs>
       <path d="M 0 0 
L -3.5 0 
" id="mc154587162" style="stroke:#000000;stroke-width:0.8;"/>
      </defs>
      <g>
       <use style="stroke:#000000;stroke-width:0.8;" x="57.6" xlink:href="#mc154587162" y="307.584"/>
      </g>
     </g>
     <g id="text_9">
      <!-- 0.00 -->
      <defs>
       <path d="M 10.6875 12.40625 
L 21 12.40625 
L 21 0 
L 10.6875 0 
z
" id="DejaVuSans-46"/>
      </defs>
      <g transform="translate(12.748438 314.042672)scale(0.17 -0.17)">
       <use xlink:href="#DejaVuSans-48"/>
       <use x="63.623047" xlink:href="#DejaVuSans-46"/>
       <use x="95.410156" xlink:href="#DejaVuSans-48"/>
       <use x="159.033203" xlink:href="#DejaVuSans-48"/>
      </g>
     </g>
    </g>
    <g id="ytick_2">
     <g id="line2d_9">
      <g>
       <use style="stroke:#000000;stroke-width:0.8;" x="57.6" xlink:href="#mc154587162" y="260.607458"/>
      </g>
     </g>
     <g id="text_10">
      <!-- 0.25 -->
      <defs>
       <path d="M 10.796875 72.90625 
L 49.515625 72.90625 
L 49.515625 64.59375 
L 19.828125 64.59375 
L 19.828125 46.734375 
Q 21.96875 47.46875 24.109375 47.828125 
Q 26.265625 48.1875 28.421875 48.1875 
Q 40.625 48.1875 47.75 41.5 
Q 54.890625 34.8125 54.890625 23.390625 
Q 54.890625 11.625 47.5625 5.09375 
Q 40.234375 -1.421875 26.90625 -1.421875 
Q 22.3125 -1.421875 17.546875 -0.640625 
Q 12.796875 0.140625 7.71875 1.703125 
L 7.71875 11.625 
Q 12.109375 9.234375 16.796875 8.0625 
Q 21.484375 6.890625 26.703125 6.890625 
Q 35.15625 6.890625 40.078125 11.328125 
Q 45.015625 15.765625 45.015625 23.390625 
Q 45.015625 31 40.078125 35.4375 
Q 35.15625 39.890625 26.703125 39.890625 
Q 22.75 39.890625 18.8125 39.015625 
Q 14.890625 38.140625 10.796875 36.28125 
z
" id="DejaVuSans-53"/>
      </defs>
      <g transform="translate(12.748438 267.06613)scale(0.17 -0.17)">
       <use xlink:href="#DejaVuSans-48"/>
       <use x="63.623047" xlink:href="#DejaVuSans-46"/>
       <use x="95.410156" xlink:href="#DejaVuSans-50"/>
       <use x="159.033203" xlink:href="#DejaVuSans-53"/>
      </g>
     </g>
    </g>
    <g id="ytick_3">
     <g id="line2d_10">
      <g>
       <use style="stroke:#000000;stroke-width:0.8;" x="57.6" xlink:href="#mc154587162" y="213.630917"/>
      </g>
     </g>
     <g id="text_11">
      <!-- 0.50 -->
      <g transform="translate(12.748438 220.089588)scale(0.17 -0.17)">
       <use xlink:href="#DejaVuSans-48"/>
       <use x="63.623047" xlink:href="#DejaVuSans-46"/>
       <use x="95.410156" xlink:href="#DejaVuSans-53"/>
       <use x="159.033203" xlink:href="#DejaVuSans-48"/>
      </g>
     </g>
    </g>
    <g id="ytick_4">
     <g id="line2d_11">
      <g>
       <use style="stroke:#000000;stroke-width:0.8;" x="57.6" xlink:href="#mc154587162" y="166.654375"/>
      </g>
     </g>
     <g id="text_12">
      <!-- 0.75 -->
      <defs>
       <path d="M 8.203125 72.90625 
L 55.078125 72.90625 
L 55.078125 68.703125 
L 28.609375 0 
L 18.3125 0 
L 43.21875 64.59375 
L 8.203125 64.59375 
z
" id="DejaVuSans-55"/>
      </defs>
      <g transform="translate(12.748438 173.113047)scale(0.17 -0.17)">
       <use xlink:href="#DejaVuSans-48"/>
       <use x="63.623047" xlink:href="#DejaVuSans-46"/>
       <use x="95.410156" xlink:href="#DejaVuSans-55"/>
       <use x="159.033203" xlink:href="#DejaVuSans-53"/>
      </g>
     </g>
    </g>
    <g id="ytick_5">
     <g id="line2d_12">
      <g>
       <use style="stroke:#000000;stroke-width:0.8;" x="57.6" xlink:href="#mc154587162" y="119.677833"/>
      </g>
     </g>
     <g id="text_13">
      <!-- 1.00 -->
      <g transform="translate(12.748438 126.136505)scale(0.17 -0.17)">
       <use xlink:href="#DejaVuSans-49"/>
       <use x="63.623047" xlink:href="#DejaVuSans-46"/>
       <use x="95.410156" xlink:href="#DejaVuSans-48"/>
       <use x="159.033203" xlink:href="#DejaVuSans-48"/>
      </g>
     </g>
    </g>
    <g id="ytick_6">
     <g id="line2d_13">
      <g>
       <use style="stroke:#000000;stroke-width:0.8;" x="57.6" xlink:href="#mc154587162" y="72.701291"/>
      </g>
     </g>
     <g id="text_14">
      <!-- 1.25 -->
      <g transform="translate(12.748438 79.159963)scale(0.17 -0.17)">
       <use xlink:href="#DejaVuSans-49"/>
       <use x="63.623047" xlink:href="#DejaVuSans-46"/>
       <use x="95.410156" xlink:href="#DejaVuSans-50"/>
       <use x="159.033203" xlink:href="#DejaVuSans-53"/>
      </g>
     </g>
    </g>
    <g id="text_15">
     <!-- Density -->
     <defs>
      <path d="M 19.671875 64.796875 
L 19.671875 8.109375 
L 31.59375 8.109375 
Q 46.6875 8.109375 53.6875 14.9375 
Q 60.6875 21.78125 60.6875 36.53125 
Q 60.6875 51.171875 53.6875 57.984375 
Q 46.6875 64.796875 31.59375 64.796875 
z
M 9.8125 72.90625 
L 30.078125 72.90625 
Q 51.265625 72.90625 61.171875 64.09375 
Q 71.09375 55.28125 71.09375 36.53125 
Q 71.09375 17.671875 61.125 8.828125 
Q 51.171875 0 30.078125 0 
L 9.8125 0 
z
" id="DejaVuSans-68"/>
      <path d="M 56.203125 29.59375 
L 56.203125 25.203125 
L 14.890625 25.203125 
Q 15.484375 15.921875 20.484375 11.0625 
Q 25.484375 6.203125 34.421875 6.203125 
Q 39.59375 6.203125 44.453125 7.46875 
Q 49.3125 8.734375 54.109375 11.28125 
L 54.109375 2.78125 
Q 49.265625 0.734375 44.1875 -0.34375 
Q 39.109375 -1.421875 33.890625 -1.421875 
Q 20.796875 -1.421875 13.15625 6.1875 
Q 5.515625 13.8125 5.515625 26.8125 
Q 5.515625 40.234375 12.765625 48.109375 
Q 20.015625 56 32.328125 56 
Q 43.359375 56 49.78125 48.890625 
Q 56.203125 41.796875 56.203125 29.59375 
z
M 47.21875 32.234375 
Q 47.125 39.59375 43.09375 43.984375 
Q 39.0625 48.390625 32.421875 48.390625 
Q 24.90625 48.390625 20.390625 44.140625 
Q 15.875 39.890625 15.1875 32.171875 
z
" id="DejaVuSans-101"/>
      <path d="M 32.171875 -5.078125 
Q 28.375 -14.84375 24.75 -17.8125 
Q 21.140625 -20.796875 15.09375 -20.796875 
L 7.90625 -20.796875 
L 7.90625 -13.28125 
L 13.1875 -13.28125 
Q 16.890625 -13.28125 18.9375 -11.515625 
Q 21 -9.765625 23.484375 -3.21875 
L 25.09375 0.875 
L 2.984375 54.6875 
L 12.5 54.6875 
L 29.59375 11.921875 
L 46.6875 54.6875 
L 56.203125 54.6875 
z
" id="DejaVuSans-121"/>
     </defs>
     <g transform="translate(2.509375 231.553781)rotate(-90)scale(0.3 -0.3)">
      <use xlink:href="#DejaVuSans-68"/>
      <use x="77.001953" xlink:href="#DejaVuSans-101"/>
      <use x="138.525391" xlink:href="#DejaVuSans-110"/>
      <use x="201.904297" xlink:href="#DejaVuSans-115"/>
      <use x="254.003906" xlink:href="#DejaVuSans-105"/>
      <use x="281.787109" xlink:href="#DejaVuSans-116"/>
      <use x="320.996094" xlink:href="#DejaVuSans-121"/>
     </g>
    </g>
   </g>
   <g id="line2d_14">
    <path clip-path="url(#pc6f4614bd4)" d="M 96.377913 306.622513 
L 97.412113 307.053156 
L 98.241052 307.252507 
L 98.912097 307.440233 
L 99.338409 307.301162 
L 100.143664 306.728773 
L 101.146285 306.094325 
L 101.864699 305.976132 
L 102.354167 306.086505 
L 102.851531 306.464969 
L 103.348894 306.753311 
L 103.830468 306.714511 
L 104.209411 306.796308 
L 105.2594 307.248715 
L 105.606765 306.959591 
L 106.364652 306.270634 
L 106.664649 306.338305 
L 107.177802 306.753581 
L 107.856742 307.21494 
L 108.275159 307.230019 
L 109.04094 307.192752 
L 110.588293 307.58174 
L 112.206697 307.492291 
L 112.625114 307.226742 
L 113.154056 306.567748 
L 113.63563 306.104588 
L 113.943522 306.100803 
L 114.685619 306.229617 
L 115.040879 305.888947 
L 115.546137 305.46405 
L 115.830344 305.512083 
L 116.911912 305.948621 
L 117.361907 306.089199 
L 118.159268 306.455674 
L 118.404002 306.216272 
L 118.798735 305.432191 
L 119.280309 304.628663 
L 119.619779 304.477084 
L 119.975038 304.286778 
L 120.267141 303.812561 
L 120.946081 302.620964 
L 121.127658 302.684084 
L 121.356603 303.058229 
L 121.869756 304.483148 
L 122.288172 305.307166 
L 122.525012 305.390634 
L 122.746062 305.209995 
L 123.125006 304.53258 
L 123.614475 303.801138 
L 123.890787 303.748142 
L 124.364467 303.976794 
L 124.877619 304.090476 
L 125.327615 303.979242 
L 127.127596 302.862396 
L 127.435488 302.683753 
L 127.648643 302.815595 
L 128.52495 303.62043 
L 128.753895 303.307116 
L 129.093365 302.398093 
L 129.953883 299.953197 
L 130.167039 299.91067 
L 130.419668 300.147133 
L 130.948609 300.642631 
L 131.343342 300.633896 
L 131.667023 300.731011 
L 131.990704 301.11275 
L 132.740696 302.059488 
L 133.127534 302.119329 
L 134.145945 302.023737 
L 134.422258 301.473245 
L 134.872253 299.977448 
L 135.740665 297.146304 
L 136.719603 294.969979 
L 136.964337 294.891185 
L 137.256439 295.089453 
L 137.761697 295.395484 
L 138.227482 295.372652 
L 139.087999 295.266448 
L 139.466943 295.661909 
L 139.916938 296.019447 
L 140.927454 296.459931 
L 141.835339 297.455405 
L 142.332703 297.443209 
L 143.232693 297.475714 
L 143.524796 297.778258 
L 144.053738 298.35612 
L 144.203736 298.195834 
L 144.408997 297.582319 
L 144.748467 295.709864 
L 145.435302 291.944599 
L 145.672142 291.615117 
L 145.82214 291.71188 
L 146.051085 292.204092 
L 147.369493 295.614728 
L 147.77212 295.788622 
L 148.403693 295.908273 
L 148.593165 295.532461 
L 148.861583 294.389536 
L 149.643154 290.774842 
L 149.887888 290.568054 
L 150.124728 290.65999 
L 150.51946 291.09929 
L 151.419451 292.189953 
L 151.616818 292.03248 
L 151.956288 291.376336 
L 152.287863 290.93844 
L 152.461546 291.011207 
L 152.722069 291.451542 
L 153.329958 292.474979 
L 153.937846 293.325682 
L 154.293106 293.684242 
L 154.482578 293.59561 
L 154.711523 293.178536 
L 155.129939 291.83398 
L 155.595724 290.596998 
L 155.800985 290.513461 
L 155.990457 290.710008 
L 156.779922 291.753716 
L 157.079919 291.979629 
L 157.324654 292.533174 
L 158.058857 294.432533 
L 158.208855 294.318845 
L 158.4378 293.774202 
L 159.424632 291.010364 
L 159.57463 291.121287 
L 159.787786 291.626044 
L 160.616725 294.159013 
L 160.671987 294.122586 
L 160.821986 293.802659 
L 161.06672 292.637849 
L 162.077236 287.086372 
L 162.211445 287.136314 
L 162.385128 287.546334 
L 162.700914 289.011449 
L 163.245645 291.378029 
L 163.435117 291.501678 
L 163.585115 291.297182 
L 163.869323 290.418408 
L 164.658789 287.913917 
L 165.077205 286.413194 
L 165.77983 283.78215 
L 165.969301 283.721738 
L 166.174562 283.955247 
L 166.703504 284.598677 
L 166.940344 284.53263 
L 167.311393 284.141709 
L 167.71402 283.413971 
L 168.17191 282.005168 
L 168.550854 281.141003 
L 168.700852 281.167684 
L 168.86664 281.515876 
L 169.166637 282.812172 
L 169.600843 284.435402 
L 169.735052 284.455933 
L 169.750841 284.440006 
L 169.908734 284.095469 
L 170.611359 282.247778 
L 170.792936 282.428913 
L 171.187669 282.813494 
L 171.329772 282.637606 
L 171.535033 281.945231 
L 171.858714 279.921175 
L 172.624496 274.978272 
L 172.924493 274.389366 
L 174.574476 272.902376 
L 174.795526 273.087507 
L 175.079734 273.680796 
L 176.792874 277.985949 
L 176.942872 277.831251 
L 177.148134 277.199836 
L 177.495498 275.222585 
L 177.929704 273.140306 
L 178.056019 273.060332 
L 178.079703 273.079366 
L 178.213912 273.383644 
L 178.466541 274.670283 
L 178.971799 277.148773 
L 179.074429 277.180334 
L 179.106008 277.144768 
L 179.248112 276.725693 
L 179.508636 275.072263 
L 180.09284 271.385554 
L 180.282312 271.197237 
L 180.43231 271.387313 
L 181.158619 272.635233 
L 181.166513 272.630971 
L 181.36388 272.386856 
L 182.058609 271.350546 
L 182.248081 271.518346 
L 182.60334 272.243958 
L 182.9586 272.753388 
L 183.116493 272.689062 
L 183.305965 272.303595 
L 183.590172 271.124432 
L 184.087536 267.902228 
L 184.703319 264.291086 
L 184.892791 264.030667 
L 184.900685 264.033929 
L 185.01121 264.209166 
L 185.192788 265.031528 
L 185.500679 267.687457 
L 186.16383 273.370996 
L 186.38488 273.815164 
L 186.487511 273.682769 
L 186.653299 272.984603 
L 186.905928 270.773898 
L 187.908549 260.682807 
L 188.105915 260.549532 
L 188.508543 260.488395 
L 189.116431 260.023037 
L 189.337482 260.325556 
L 189.763793 261.372018 
L 190.103263 262.78848 
L 190.845361 266.676724 
L 190.908518 266.612292 
L 191.034833 266.100011 
L 191.247988 264.070011 
L 192.23482 252.924146 
L 192.329556 253.020173 
L 192.487449 253.636846 
L 192.803235 255.995186 
L 193.521649 261.382598 
L 193.782173 261.957211 
L 193.995328 261.976345 
L 194.30322 261.987773 
L 194.500586 262.28957 
L 194.855846 263.369144 
L 195.274263 264.389057 
L 195.526892 264.523458 
L 196.205832 264.646838 
L 196.426882 264.618106 
L 196.600565 264.312079 
L 196.821615 263.373437 
L 197.161085 260.764539 
L 197.761079 256.297756 
L 197.918972 256.077438 
L 197.942656 256.092162 
L 198.061076 256.344424 
L 198.290021 257.515082 
L 198.913699 260.842741 
L 199.103171 260.966332 
L 199.300537 260.774089 
L 199.655796 260.475799 
L 199.837373 260.607302 
L 200.421578 261.256063 
L 200.453157 261.22689 
L 200.618944 260.881434 
L 200.879468 259.722861 
L 201.739985 255.501595 
L 201.889984 255.518765 
L 202.071561 255.881733 
L 202.66366 257.203602 
L 202.797869 257.059562 
L 203.00313 256.416261 
L 203.389968 254.267344 
L 203.903121 251.769625 
L 204.132066 251.477371 
L 204.305748 251.57085 
L 204.763639 251.889971 
L 204.937321 251.642307 
L 205.205739 250.779746 
L 205.979415 247.193529 
L 206.90309 243.165636 
L 207.266244 242.61671 
L 207.668872 242.353637 
L 207.81887 242.4842 
L 207.992553 243.00431 
L 208.229392 244.549426 
L 209.050436 250.896405 
L 209.07412 250.884772 
L 209.176751 250.651018 
L 209.374117 249.476106 
L 210.321476 242.829304 
L 210.660946 241.598787 
L 210.92147 239.458978 
L 211.829355 230.699623 
L 211.83725 230.700426 
L 211.931986 230.839099 
L 212.121457 231.676448 
L 212.63461 234.002589 
L 212.737241 233.920168 
L 212.887239 233.347447 
L 213.163552 231.178543 
L 213.842492 225.770663 
L 214.181963 224.7804 
L 214.442486 224.54903 
L 214.592485 224.679725 
L 214.781956 225.231283 
L 215.081953 226.945688 
L 215.555633 229.414953 
L 215.642474 229.458144 
L 215.681947 229.414708 
L 215.808262 228.995088 
L 216.021417 227.327741 
L 216.431939 221.849867 
L 216.889829 216.853862 
L 217.087196 216.337461 
L 217.09509 216.340394 
L 217.189826 216.506779 
L 217.371403 217.396038 
L 218.02666 220.98536 
L 218.121396 220.864443 
L 218.287183 220.152166 
L 218.697705 217.013352 
L 219.100333 214.828097 
L 219.85822 211.900778 
L 220.347688 208.118358 
L 221.934514 194.955632 
L 222.14767 194.816191 
L 222.463456 194.730605 
L 222.676612 194.273168 
L 223.000293 193.614392 
L 223.016082 193.62172 
L 223.118713 193.838241 
L 223.276606 194.868795 
L 223.513445 198.191842 
L 224.468699 213.780216 
L 224.523961 213.772792 
L 224.55554 213.711755 
L 224.689749 213.031739 
L 224.950273 210.244087 
L 225.700265 201.769523 
L 225.913421 201.313987 
L 226.03184 201.444208 
L 226.497625 202.341662 
L 226.560782 202.269425 
L 226.710781 201.778835 
L 226.994988 199.869521 
L 227.452878 197.13779 
L 227.594982 197.00357 
L 227.618666 197.017965 
L 227.76077 197.290519 
L 228.10024 198.623252 
L 228.447605 199.565787 
L 228.613393 199.5684 
L 228.79497 199.248268 
L 229.13444 198.075528 
L 229.544962 195.917649 
L 229.844959 193.012533 
L 230.200219 187.073382 
L 230.823896 176.635574 
L 230.910738 176.431247 
L 230.958106 176.5263 
L 231.076525 177.409936 
L 231.289681 181.087491 
L 232.189672 198.959265 
L 232.308092 199.197318 
L 232.347565 199.160681 
L 232.465985 198.756567 
L 232.702824 196.960635 
L 233.018611 192.798807 
L 233.25545 186.429382 
L 233.49229 173.072762 
L 233.776498 142.541722 
L 234.52649 54.174985 
L 234.542279 54.144 
L 234.565963 54.320255 
L 234.652804 57.220568 
L 234.826487 72.594766 
L 235.315955 145.061803 
L 235.710688 183.664547 
L 236.026474 196.070998 
L 236.365945 201.483047 
L 236.705415 203.976137 
L 236.823835 204.161504 
L 236.863308 204.119221 
L 236.973833 203.691288 
L 237.163305 201.84229 
L 237.51067 195.669301 
L 237.921192 189.670999 
L 238.023822 189.380944 
L 238.07119 189.457204 
L 238.181715 190.147699 
L 238.386976 193.124392 
L 238.876445 204.57145 
L 239.373808 213.698692 
L 239.6817 216.000131 
L 239.839593 216.233181 
L 239.863277 216.219816 
L 239.989591 215.95951 
L 240.218536 214.820145 
L 241.126422 209.653863 
L 241.323788 209.57174 
L 241.529049 209.776253 
L 241.789573 210.381824 
L 242.065886 211.653957 
L 242.839562 215.94102 
L 242.879035 215.917516 
L 243.013244 215.60862 
L 243.447451 214.233725 
L 243.502713 214.291573 
L 243.629028 214.787724 
L 243.842183 216.755959 
L 244.631649 225.047704 
L 244.734279 225.117581 
L 244.765858 225.087266 
L 244.907962 224.697677 
L 245.207959 223.018762 
L 246.076371 218.067796 
L 246.613207 216.090332 
L 246.834258 215.877654 
L 246.968467 216.021444 
L 247.157939 216.641459 
L 247.434252 218.475129 
L 248.555293 227.132716 
L 248.713186 227.14332 
L 248.902657 226.819574 
L 249.628966 225.393434 
L 250.307906 224.803278 
L 250.315801 224.810836 
L 250.457905 225.123211 
L 250.647376 226.208486 
L 250.915795 229.296581 
L 251.997362 243.673063 
L 252.092098 243.743504 
L 252.131572 243.702459 
L 252.265781 243.267327 
L 252.486831 241.609557 
L 252.810512 237.195516 
L 253.821028 221.768276 
L 253.87629 221.762219 
L 253.907869 221.811743 
L 254.034184 222.352073 
L 254.326286 224.887045 
L 254.728913 227.723495 
L 254.886806 227.931412 
L 254.91049 227.918003 
L 255.044699 227.660526 
L 255.328907 226.472403 
L 255.928901 224.057245 
L 256.078899 223.974545 
L 256.094689 223.987473 
L 256.221003 224.259976 
L 256.41837 225.326572 
L 256.734156 228.507042 
L 257.397307 238.06919 
L 258.052563 246.323993 
L 258.463085 248.929597 
L 258.849923 250.106956 
L 259.070974 250.279278 
L 259.205183 250.119701 
L 259.394655 249.451919 
L 259.670968 247.481197 
L 260.413065 241.747206 
L 260.492012 241.788829 
L 260.507801 241.819946 
L 260.649905 242.422529 
L 260.934112 244.87471 
L 261.415686 248.639345 
L 261.597264 248.956134 
L 261.613053 248.94995 
L 261.723578 248.759158 
L 261.91305 247.859629 
L 262.220941 245.102473 
L 262.899882 238.886783 
L 263.010407 238.741597 
L 263.04988 238.774362 
L 263.176195 239.161335 
L 263.420929 240.849592 
L 263.997239 244.830771 
L 264.218289 245.139853 
L 264.399866 245.040882 
L 264.76302 244.845784 
L 264.944597 245.024912 
L 265.205121 245.663222 
L 265.986692 247.86141 
L 266.002481 247.85442 
L 266.128796 247.649575 
L 266.318268 246.799913 
L 266.61037 244.267608 
L 267.336678 237.652861 
L 267.470887 237.474289 
L 267.502466 237.495459 
L 267.62878 237.799571 
L 267.86562 239.102447 
L 269.105081 248.433677 
L 269.760337 253.322174 
L 270.028756 253.971013 
L 270.170859 253.940224 
L 270.344542 253.577629 
L 270.620855 252.364068 
L 271.615581 247.425659 
L 271.797158 247.401088 
L 272.318206 247.592663 
L 272.499783 247.114286 
L 272.839253 245.406028 
L 273.24188 243.759204 
L 273.368195 243.695726 
L 273.391879 243.715052 
L 273.526088 244.013756 
L 273.755033 245.198258 
L 274.781338 251.368515 
L 275.152387 252.958167 
L 275.515541 255.75453 
L 276.739213 266.176092 
L 276.976052 266.528371 
L 277.149735 266.458083 
L 278.29446 265.543375 
L 278.618141 265.426057 
L 278.799718 265.034357 
L 279.020768 263.899779 
L 279.352344 260.776009 
L 279.960232 255.211803 
L 280.212861 254.538327 
L 280.354965 254.567094 
L 280.552331 254.930727 
L 281.468111 256.955968 
L 281.649689 256.832481 
L 282.210209 256.159827 
L 282.265472 256.22921 
L 282.423365 256.716767 
L 282.668099 258.367226 
L 283.473354 264.459348 
L 283.591774 264.497033 
L 283.615458 264.474921 
L 283.773351 264.121537 
L 284.136505 262.576427 
L 284.562816 261.138948 
L 284.752288 261.047364 
L 284.910181 261.263805 
L 285.233862 262.214447 
L 285.652279 263.205194 
L 285.865435 263.266742 
L 286.047012 263.056768 
L 286.299641 262.362345 
L 287.128579 259.456098 
L 287.191737 259.50232 
L 287.34963 259.877833 
L 287.641732 261.290359 
L 288.478566 265.452232 
L 289.528555 269.128174 
L 289.662764 269.073508 
L 289.820657 268.667829 
L 290.065391 267.292444 
L 290.483808 263.370002 
L 291.225906 256.654073 
L 291.533797 255.516911 
L 291.668006 255.473453 
L 291.683796 255.487525 
L 291.825899 255.790928 
L 292.078528 256.982466 
L 292.702206 259.991851 
L 292.978519 260.295314 
L 293.215359 260.580172 
L 293.428515 261.286184 
L 293.744301 263.285387 
L 294.446925 267.864023 
L 294.57324 267.978236 
L 294.604818 267.954269 
L 294.731133 267.652136 
L 294.967972 266.365471 
L 295.457441 263.807475 
L 295.544282 263.791005 
L 295.575861 263.829857 
L 295.717965 264.28788 
L 295.986383 266.113519 
L 296.720586 271.248961 
L 297.139003 272.596625 
L 297.486367 273.0869 
L 297.731102 273.113119 
L 297.99952 272.886234 
L 298.899511 271.61651 
L 299.215297 270.838489 
L 299.578451 269.247073 
L 300.281076 266.130136 
L 300.486337 265.974234 
L 300.636335 266.160583 
L 300.849491 266.862597 
L 301.181066 268.853091 
L 301.836323 272.778035 
L 302.073162 273.106065 
L 302.333686 273.057519 
L 302.531052 273.125533 
L 302.720524 273.500086 
L 303.012626 274.694231 
L 303.4942 276.501938 
L 303.636304 276.522802 
L 303.644199 276.515267 
L 303.802092 276.194405 
L 304.488927 274.287873 
L 304.54419 274.324516 
L 304.709977 274.666652 
L 305.049447 276.054461 
L 305.45997 277.405398 
L 305.649441 277.482405 
L 305.815229 277.246269 
L 306.146805 276.263617 
L 306.588905 275.174357 
L 306.794166 275.102277 
L 306.959954 275.312624 
L 307.17311 276.007948 
L 307.465212 277.837571 
L 308.32573 283.777662 
L 308.523096 283.896533 
L 308.933618 283.883227 
L 309.130984 284.320435 
L 309.754662 285.924209 
L 309.762557 285.920889 
L 309.896766 285.727121 
L 310.125711 284.877623 
L 310.773073 282.317058 
L 310.907282 282.358513 
L 311.07307 282.763851 
L 311.388856 284.288943 
L 312.044112 287.360585 
L 312.320425 287.795615 
L 312.470424 287.730934 
L 312.652001 287.32757 
L 312.928314 286.061863 
L 313.599359 282.840514 
L 313.749358 282.790439 
L 313.757253 282.796786 
L 313.907251 283.074783 
L 314.167775 284.132328 
L 315.667759 291.253236 
L 315.87302 291.360746 
L 316.030913 291.159701 
L 316.283542 290.390841 
L 318.383521 282.74743 
L 318.628255 282.51273 
L 318.794043 282.643158 
L 319.054566 283.224524 
L 319.591403 284.400063 
L 319.788769 284.410714 
L 320.025609 284.138236 
L 320.704549 283.260388 
L 320.854548 283.410811 
L 321.051914 284.011593 
L 321.344016 285.787966 
L 322.054535 290.328158 
L 322.236113 290.483653 
L 322.244007 290.479665 
L 322.394006 290.263091 
L 322.694003 289.308009 
L 323.4361 286.94742 
L 325.141346 283.613097 
L 325.362396 283.849906 
L 325.907127 284.475575 
L 326.451859 284.71779 
L 326.712382 285.348035 
L 327.486058 287.414259 
L 328.243945 288.373988 
L 328.614994 289.803734 
L 329.372881 292.715377 
L 329.680773 293.176012 
L 329.870244 293.142552 
L 330.0834 292.810514 
L 330.509712 291.597388 
L 331.022864 290.400671 
L 331.322861 290.1585 
L 331.528122 290.243652 
L 331.764962 290.636418 
L 332.175484 291.869827 
L 332.736004 293.337968 
L 333.162316 293.867468 
L 333.446523 293.94207 
L 333.683363 293.762093 
L 334.141253 293.024038 
L 334.528091 292.617818 
L 334.930719 292.545612 
L 335.262294 292.398392 
L 335.617554 291.932328 
L 336.03597 291.484928 
L 336.241231 291.551956 
L 336.517544 291.931214 
L 337.078065 293.154724 
L 337.504376 294.623194 
L 338.656996 299.025076 
L 338.941204 299.302227 
L 339.122781 299.204331 
L 339.343831 298.768886 
L 339.762248 297.312915 
L 340.338558 295.572026 
L 340.693817 295.092115 
L 340.891183 295.119141 
L 341.08855 295.436595 
L 341.380652 296.420847 
L 342.059593 298.762122 
L 342.288538 298.892782 
L 342.501693 298.730266 
L 342.880637 298.08889 
L 343.480631 296.62644 
L 344.080624 295.26144 
L 344.270096 295.242518 
L 344.443778 295.508826 
L 344.704302 296.399008 
L 345.872711 301.050305 
L 346.085867 301.088322 
L 346.322706 300.845489 
L 346.9227 300.166449 
L 347.135856 300.262589 
L 347.467432 300.722778 
L 348.162161 301.677924 
L 348.422685 301.702831 
L 348.698998 301.463945 
L 349.188466 301.048283 
L 349.401622 301.164015 
L 349.741092 301.679225 
L 350.26214 302.366145 
L 350.641083 302.503229 
L 350.996343 302.408132 
L 351.367391 302.044614 
L 351.927912 301.517391 
L 352.204225 301.570215 
L 352.843692 301.795402 
L 353.167373 301.529833 
L 353.593684 301.249704 
L 353.854208 301.352337 
L 354.698936 301.867706 
L 355.456823 301.788319 
L 355.780504 302.236768 
L 356.254183 302.810797 
L 356.506812 302.788913 
L 357.091017 302.631876 
L 357.398908 302.923216 
L 357.82522 303.267886 
L 358.038375 303.170989 
L 358.330478 302.736532 
L 359.30152 301.133856 
L 359.601517 301.020971 
L 359.830462 301.180295 
L 360.146248 301.738424 
L 360.746242 302.779119 
L 361.085712 302.910432 
L 362.135701 302.935475 
L 362.52254 302.556309 
L 363.730422 301.196034 
L 363.99884 301.316284 
L 364.393573 301.790416 
L 365.056724 302.531226 
L 365.546193 303.08369 
L 366.311974 304.096387 
L 366.501446 303.984643 
L 366.74618 303.525335 
L 367.164597 302.14938 
L 367.78038 300.286907 
L 368.11985 299.898401 
L 368.909316 299.535883 
L 369.122472 299.64105 
L 369.343522 300.049681 
L 369.690887 301.267967 
L 370.330354 303.433651 
L 370.582983 303.664965 
L 370.76456 303.567545 
L 371.0014 303.13976 
L 371.34087 302.00482 
L 372.414543 297.994896 
L 372.556647 298.084359 
L 372.682961 298.341367 
L 372.682961 298.341367 
" style="fill:none;stroke:#ff7f0e;stroke-linecap:square;stroke-width:1.5;"/>
   </g>
   <g id="patch_103">
    <path d="M 57.6 307.584 
L 57.6 41.472 
" style="fill:none;stroke:#000000;stroke-linecap:square;stroke-linejoin:miter;stroke-width:0.8;"/>
   </g>
   <g id="patch_104">
    <path d="M 414.72 307.584 
L 414.72 41.472 
" style="fill:none;stroke:#000000;stroke-linecap:square;stroke-linejoin:miter;stroke-width:0.8;"/>
   </g>
   <g id="patch_105">
    <path d="M 57.6 307.584 
L 414.72 307.584 
" style="fill:none;stroke:#000000;stroke-linecap:square;stroke-linejoin:miter;stroke-width:0.8;"/>
   </g>
   <g id="patch_106">
    <path d="M 57.6 41.472 
L 414.72 41.472 
" style="fill:none;stroke:#000000;stroke-linecap:square;stroke-linejoin:miter;stroke-width:0.8;"/>
   </g>
  </g>
 </g>
 <defs>
  <clipPath id="pc6f4614bd4">
   <rect height="266.112" width="357.12" x="57.6" y="41.472"/>
  </clipPath>
 </defs>
</svg>
