<?xml version="1.0" encoding="utf-8" standalone="no"?>
<!DOCTYPE svg PUBLIC "-//W3C//DTD SVG 1.1//EN"
  "http://www.w3.org/Graphics/SVG/1.1/DTD/svg11.dtd">
<!-- Created with matplotlib (https://matplotlib.org/) -->
<svg height="345.6pt" version="1.1" viewBox="0 0 460.8 345.6" width="460.8pt" xmlns="http://www.w3.org/2000/svg" xmlns:xlink="http://www.w3.org/1999/xlink">
 <defs>
  <style type="text/css">
*{stroke-linecap:butt;stroke-linejoin:round;}
  </style>
 </defs>
 <g id="figure_1">
  <g id="patch_1">
   <path d="M 0 345.6 
L 460.8 345.6 
L 460.8 0 
L 0 0 
z
" style="fill:#ffffff;"/>
  </g>
  <g id="axes_1">
   <g id="patch_2">
    <path d="M 57.6 307.584 
L 414.72 307.584 
L 414.72 41.472 
L 57.6 41.472 
z
" style="fill:#ffffff;"/>
   </g>
   <g id="patch_3">
    <path clip-path="url(#pd102a2b656)" d="M 144.385603 307.584 
L 146.926618 307.584 
L 146.926618 301.259228 
L 144.385603 301.259228 
z
" style="fill:#1f77b4;"/>
   </g>
   <g id="patch_4">
    <path clip-path="url(#pd102a2b656)" d="M 146.926618 307.584 
L 149.46764 307.584 
L 149.46764 302.840435 
L 146.926618 302.840435 
z
" style="fill:#1f77b4;"/>
   </g>
   <g id="patch_5">
    <path clip-path="url(#pd102a2b656)" d="M 149.467647 307.584 
L 152.008661 307.584 
L 152.008661 298.096843 
L 149.467647 298.096843 
z
" style="fill:#1f77b4;"/>
   </g>
   <g id="patch_6">
    <path clip-path="url(#pd102a2b656)" d="M 152.008654 307.584 
L 154.549669 307.584 
L 154.549669 307.584 
L 152.008654 307.584 
z
" style="fill:#1f77b4;"/>
   </g>
   <g id="patch_7">
    <path clip-path="url(#pd102a2b656)" d="M 154.549676 307.584 
L 157.090691 307.584 
L 157.090691 296.51565 
L 154.549676 296.51565 
z
" style="fill:#1f77b4;"/>
   </g>
   <g id="patch_8">
    <path clip-path="url(#pd102a2b656)" d="M 157.090684 307.584 
L 159.631705 307.584 
L 159.631705 293.353304 
L 157.090684 293.353304 
z
" style="fill:#1f77b4;"/>
   </g>
   <g id="patch_9">
    <path clip-path="url(#pd102a2b656)" d="M 159.631705 307.584 
L 162.17272 307.584 
L 162.17272 294.934457 
L 159.631705 294.934457 
z
" style="fill:#1f77b4;"/>
   </g>
   <g id="patch_10">
    <path clip-path="url(#pd102a2b656)" d="M 162.17272 307.584 
L 164.713735 307.584 
L 164.713735 298.096843 
L 162.17272 298.096843 
z
" style="fill:#1f77b4;"/>
   </g>
   <g id="patch_11">
    <path clip-path="url(#pd102a2b656)" d="M 164.713735 307.584 
L 167.254753 307.584 
L 167.254753 291.772093 
L 164.713735 291.772093 
z
" style="fill:#1f77b4;"/>
   </g>
   <g id="patch_12">
    <path clip-path="url(#pd102a2b656)" d="M 167.25475 307.584 
L 169.795768 307.584 
L 169.795768 291.772093 
L 167.25475 291.772093 
z
" style="fill:#1f77b4;"/>
   </g>
   <g id="patch_13">
    <path clip-path="url(#pd102a2b656)" d="M 169.795771 307.584 
L 172.336786 307.584 
L 172.336786 282.284914 
L 169.795771 282.284914 
z
" style="fill:#1f77b4;"/>
   </g>
   <g id="patch_14">
    <path clip-path="url(#pd102a2b656)" d="M 172.336786 307.584 
L 174.877804 307.584 
L 174.877804 279.122568 
L 172.336786 279.122568 
z
" style="fill:#1f77b4;"/>
   </g>
   <g id="patch_15">
    <path clip-path="url(#pd102a2b656)" d="M 174.877804 307.584 
L 177.418819 307.584 
L 177.418819 271.216564 
L 174.877804 271.216564 
z
" style="fill:#1f77b4;"/>
   </g>
   <g id="patch_16">
    <path clip-path="url(#pd102a2b656)" d="M 177.418816 307.584 
L 179.959834 307.584 
L 179.959834 287.028521 
L 177.418816 287.028521 
z
" style="fill:#1f77b4;"/>
   </g>
   <g id="patch_17">
    <path clip-path="url(#pd102a2b656)" d="M 179.959837 307.584 
L 182.500852 307.584 
L 182.500852 271.216564 
L 179.959837 271.216564 
z
" style="fill:#1f77b4;"/>
   </g>
   <g id="patch_18">
    <path clip-path="url(#pd102a2b656)" d="M 182.500852 307.584 
L 185.04187 307.584 
L 185.04187 282.284949 
L 182.500852 282.284949 
z
" style="fill:#1f77b4;"/>
   </g>
   <g id="patch_19">
    <path clip-path="url(#pd102a2b656)" d="M 185.041867 307.584 
L 187.582885 307.584 
L 187.582885 282.284949 
L 185.041867 282.284949 
z
" style="fill:#1f77b4;"/>
   </g>
   <g id="patch_20">
    <path clip-path="url(#pd102a2b656)" d="M 187.582889 307.584 
L 190.123903 307.584 
L 190.123903 290.190878 
L 187.582889 290.190878 
z
" style="fill:#1f77b4;"/>
   </g>
   <g id="patch_21">
    <path clip-path="url(#pd102a2b656)" d="M 190.123903 307.584 
L 192.66492 307.584 
L 192.66492 283.866123 
L 190.123903 283.866123 
z
" style="fill:#1f77b4;"/>
   </g>
   <g id="patch_22">
    <path clip-path="url(#pd102a2b656)" d="M 192.664922 307.584 
L 195.205938 307.584 
L 195.205938 266.473014 
L 192.664922 266.473014 
z
" style="fill:#1f77b4;"/>
   </g>
   <g id="patch_23">
    <path clip-path="url(#pd102a2b656)" d="M 195.205936 307.584 
L 197.746955 307.584 
L 197.746955 272.797805 
L 195.205936 272.797805 
z
" style="fill:#1f77b4;"/>
   </g>
   <g id="patch_24">
    <path clip-path="url(#pd102a2b656)" d="M 197.746955 307.584 
L 200.287971 307.584 
L 200.287971 250.661096 
L 197.746955 250.661096 
z
" style="fill:#1f77b4;"/>
   </g>
   <g id="patch_25">
    <path clip-path="url(#pd102a2b656)" d="M 200.287973 307.584 
L 202.828989 307.584 
L 202.828989 234.849178 
L 200.287973 234.849178 
z
" style="fill:#1f77b4;"/>
   </g>
   <g id="patch_26">
    <path clip-path="url(#pd102a2b656)" d="M 202.828987 307.584 
L 205.370004 307.584 
L 205.370004 231.686794 
L 202.828987 231.686794 
z
" style="fill:#1f77b4;"/>
   </g>
   <g id="patch_27">
    <path clip-path="url(#pd102a2b656)" d="M 205.370006 307.584 
L 207.911022 307.584 
L 207.911022 222.199643 
L 205.370006 222.199643 
z
" style="fill:#1f77b4;"/>
   </g>
   <g id="patch_28">
    <path clip-path="url(#pd102a2b656)" d="M 207.91102 307.584 
L 210.452037 307.584 
L 210.452037 182.669849 
L 207.91102 182.669849 
z
" style="fill:#1f77b4;"/>
   </g>
   <g id="patch_29">
    <path clip-path="url(#pd102a2b656)" d="M 210.452037 307.584 
L 212.993053 307.584 
L 212.993053 198.481767 
L 210.452037 198.481767 
z
" style="fill:#1f77b4;"/>
   </g>
   <g id="patch_30">
    <path clip-path="url(#pd102a2b656)" d="M 212.993053 307.584 
L 215.53407 307.584 
L 215.53407 173.182721 
L 212.993053 173.182721 
z
" style="fill:#1f77b4;"/>
   </g>
   <g id="patch_31">
    <path clip-path="url(#pd102a2b656)" d="M 215.534071 307.584 
L 218.075088 307.584 
L 218.075088 173.182721 
L 215.534071 173.182721 
z
" style="fill:#1f77b4;"/>
   </g>
   <g id="patch_32">
    <path clip-path="url(#pd102a2b656)" d="M 218.075087 307.584 
L 220.616104 307.584 
L 220.616104 182.66986 
L 218.075087 182.66986 
z
" style="fill:#1f77b4;"/>
   </g>
   <g id="patch_33">
    <path clip-path="url(#pd102a2b656)" d="M 220.616104 307.584 
L 223.157121 307.584 
L 223.157121 109.935044 
L 220.616104 109.935044 
z
" style="fill:#1f77b4;"/>
   </g>
   <g id="patch_34">
    <path clip-path="url(#pd102a2b656)" d="M 223.157121 307.584 
L 225.698137 307.584 
L 225.698137 165.276751 
L 223.157121 165.276751 
z
" style="fill:#1f77b4;"/>
   </g>
   <g id="patch_35">
    <path clip-path="url(#pd102a2b656)" d="M 225.698138 307.584 
L 228.239154 307.584 
L 228.239154 182.66986 
L 225.698138 182.66986 
z
" style="fill:#1f77b4;"/>
   </g>
   <g id="patch_36">
    <path clip-path="url(#pd102a2b656)" d="M 228.239154 307.584 
L 230.780171 307.584 
L 230.780171 192.156999 
L 228.239154 192.156999 
z
" style="fill:#1f77b4;"/>
   </g>
   <g id="patch_37">
    <path clip-path="url(#pd102a2b656)" d="M 230.780171 307.584 
L 233.321187 307.584 
L 233.321187 249.079904 
L 230.780171 249.079904 
z
" style="fill:#1f77b4;"/>
   </g>
   <g id="patch_38">
    <path clip-path="url(#pd102a2b656)" d="M 233.321187 307.584 
L 235.862204 307.584 
L 235.862204 252.242307 
L 233.321187 252.242307 
z
" style="fill:#1f77b4;"/>
   </g>
   <g id="patch_39">
    <path clip-path="url(#pd102a2b656)" d="M 235.862205 307.584 
L 238.403222 307.584 
L 238.403222 268.054192 
L 235.862205 268.054192 
z
" style="fill:#1f77b4;"/>
   </g>
   <g id="patch_40">
    <path clip-path="url(#pd102a2b656)" d="M 238.40322 307.584 
L 240.944238 307.584 
L 240.944238 260.148279 
L 238.40322 260.148279 
z
" style="fill:#1f77b4;"/>
   </g>
   <g id="patch_41">
    <path clip-path="url(#pd102a2b656)" d="M 240.94424 307.584 
L 243.485257 307.584 
L 243.485257 247.498712 
L 240.94424 247.498712 
z
" style="fill:#1f77b4;"/>
   </g>
   <g id="patch_42">
    <path clip-path="url(#pd102a2b656)" d="M 243.485255 307.584 
L 246.026271 307.584 
L 246.026271 272.797781 
L 243.485255 272.797781 
z
" style="fill:#1f77b4;"/>
   </g>
   <g id="patch_43">
    <path clip-path="url(#pd102a2b656)" d="M 246.026273 307.584 
L 248.56729 307.584 
L 248.56729 279.122548 
L 246.026273 279.122548 
z
" style="fill:#1f77b4;"/>
   </g>
   <g id="patch_44">
    <path clip-path="url(#pd102a2b656)" d="M 248.567288 307.584 
L 251.108304 307.584 
L 251.108304 282.284931 
L 248.567288 282.284931 
z
" style="fill:#1f77b4;"/>
   </g>
   <g id="patch_45">
    <path clip-path="url(#pd102a2b656)" d="M 251.108306 307.584 
L 253.649321 307.584 
L 253.649321 269.635397 
L 251.108306 269.635397 
z
" style="fill:#1f77b4;"/>
   </g>
   <g id="patch_46">
    <path clip-path="url(#pd102a2b656)" d="M 253.649321 307.584 
L 256.190339 307.584 
L 256.190339 272.797805 
L 253.649321 272.797805 
z
" style="fill:#1f77b4;"/>
   </g>
   <g id="patch_47">
    <path clip-path="url(#pd102a2b656)" d="M 256.190339 307.584 
L 258.731354 307.584 
L 258.731354 271.216564 
L 256.190339 271.216564 
z
" style="fill:#1f77b4;"/>
   </g>
   <g id="patch_48">
    <path clip-path="url(#pd102a2b656)" d="M 258.73135 307.584 
L 261.272368 307.584 
L 261.272368 263.310661 
L 258.73135 263.310661 
z
" style="fill:#1f77b4;"/>
   </g>
   <g id="patch_49">
    <path clip-path="url(#pd102a2b656)" d="M 261.272372 307.584 
L 263.813387 307.584 
L 263.813387 261.729406 
L 261.272372 261.729406 
z
" style="fill:#1f77b4;"/>
   </g>
   <g id="patch_50">
    <path clip-path="url(#pd102a2b656)" d="M 263.813387 307.584 
L 266.354405 307.584 
L 266.354405 272.797805 
L 263.813387 272.797805 
z
" style="fill:#1f77b4;"/>
   </g>
   <g id="patch_51">
    <path clip-path="url(#pd102a2b656)" d="M 266.354405 307.584 
L 268.89542 307.584 
L 268.89542 269.635371 
L 266.354405 269.635371 
z
" style="fill:#1f77b4;"/>
   </g>
   <g id="patch_52">
    <path clip-path="url(#pd102a2b656)" d="M 268.895416 307.584 
L 271.436434 307.584 
L 271.436434 263.310661 
L 268.895416 263.310661 
z
" style="fill:#1f77b4;"/>
   </g>
   <g id="patch_53">
    <path clip-path="url(#pd102a2b656)" d="M 271.436438 307.584 
L 273.977456 307.584 
L 273.977456 255.404707 
L 271.436438 255.404707 
z
" style="fill:#1f77b4;"/>
   </g>
   <g id="patch_54">
    <path clip-path="url(#pd102a2b656)" d="M 273.977456 307.584 
L 276.518471 307.584 
L 276.518471 260.148213 
L 273.977456 260.148213 
z
" style="fill:#1f77b4;"/>
   </g>
   <g id="patch_55">
    <path clip-path="url(#pd102a2b656)" d="M 276.518467 307.584 
L 279.059486 307.584 
L 279.059486 247.498754 
L 276.518467 247.498754 
z
" style="fill:#1f77b4;"/>
   </g>
   <g id="patch_56">
    <path clip-path="url(#pd102a2b656)" d="M 279.059489 307.584 
L 281.600504 307.584 
L 281.600504 245.917477 
L 279.059489 245.917477 
z
" style="fill:#1f77b4;"/>
   </g>
   <g id="patch_57">
    <path clip-path="url(#pd102a2b656)" d="M 281.600507 307.584 
L 284.141519 307.584 
L 284.141519 264.891792 
L 281.600507 264.891792 
z
" style="fill:#1f77b4;"/>
   </g>
   <g id="patch_58">
    <path clip-path="url(#pd102a2b656)" d="M 284.141519 307.584 
L 286.68254 307.584 
L 286.68254 269.635476 
L 284.141519 269.635476 
z
" style="fill:#1f77b4;"/>
   </g>
   <g id="patch_59">
    <path clip-path="url(#pd102a2b656)" d="M 286.68254 307.584 
L 289.223555 307.584 
L 289.223555 275.960142 
L 286.68254 275.960142 
z
" style="fill:#1f77b4;"/>
   </g>
   <g id="patch_60">
    <path clip-path="url(#pd102a2b656)" d="M 289.223562 307.584 
L 291.764577 307.584 
L 291.764577 283.866107 
L 289.223562 283.866107 
z
" style="fill:#1f77b4;"/>
   </g>
   <g id="patch_61">
    <path clip-path="url(#pd102a2b656)" d="M 291.76457 307.584 
L 294.305592 307.584 
L 294.305592 244.336461 
L 291.76457 244.336461 
z
" style="fill:#1f77b4;"/>
   </g>
   <g id="patch_62">
    <path clip-path="url(#pd102a2b656)" d="M 294.305592 307.584 
L 296.846606 307.584 
L 296.846606 256.985828 
L 294.305592 256.985828 
z
" style="fill:#1f77b4;"/>
   </g>
   <g id="patch_63">
    <path clip-path="url(#pd102a2b656)" d="M 296.846613 307.584 
L 299.387628 307.584 
L 299.387628 255.404635 
L 296.846613 255.404635 
z
" style="fill:#1f77b4;"/>
   </g>
   <g id="patch_64">
    <path clip-path="url(#pd102a2b656)" d="M 299.387621 307.584 
L 301.928636 307.584 
L 301.928636 236.43032 
L 299.387621 236.43032 
z
" style="fill:#1f77b4;"/>
   </g>
   <g id="patch_65">
    <path clip-path="url(#pd102a2b656)" d="M 301.928636 307.584 
L 304.469657 307.584 
L 304.469657 260.148345 
L 301.928636 260.148345 
z
" style="fill:#1f77b4;"/>
   </g>
   <g id="patch_66">
    <path clip-path="url(#pd102a2b656)" d="M 304.469665 307.584 
L 307.010679 307.584 
L 307.010679 272.797756 
L 304.469665 272.797756 
z
" style="fill:#1f77b4;"/>
   </g>
   <g id="patch_67">
    <path clip-path="url(#pd102a2b656)" d="M 307.010672 307.584 
L 309.551687 307.584 
L 309.551687 252.242249 
L 307.010672 252.242249 
z
" style="fill:#1f77b4;"/>
   </g>
   <g id="patch_68">
    <path clip-path="url(#pd102a2b656)" d="M 309.551694 307.584 
L 312.092709 307.584 
L 312.092709 282.284914 
L 309.551694 282.284914 
z
" style="fill:#1f77b4;"/>
   </g>
   <g id="patch_69">
    <path clip-path="url(#pd102a2b656)" d="M 312.092702 307.584 
L 314.633723 307.584 
L 314.633723 269.635476 
L 312.092702 269.635476 
z
" style="fill:#1f77b4;"/>
   </g>
   <g id="patch_70">
    <path clip-path="url(#pd102a2b656)" d="M 314.633723 307.584 
L 317.174738 307.584 
L 317.174738 277.541335 
L 314.633723 277.541335 
z
" style="fill:#1f77b4;"/>
   </g>
   <g id="patch_71">
    <path clip-path="url(#pd102a2b656)" d="M 317.174745 307.584 
L 319.71576 307.584 
L 319.71576 290.190878 
L 317.174745 290.190878 
z
" style="fill:#1f77b4;"/>
   </g>
   <g id="patch_72">
    <path clip-path="url(#pd102a2b656)" d="M 319.715753 307.584 
L 322.256775 307.584 
L 322.256775 268.054288 
L 319.715753 268.054288 
z
" style="fill:#1f77b4;"/>
   </g>
   <g id="patch_73">
    <path clip-path="url(#pd102a2b656)" d="M 322.256775 307.584 
L 324.797789 307.584 
L 324.797789 275.960142 
L 322.256775 275.960142 
z
" style="fill:#1f77b4;"/>
   </g>
   <g id="patch_74">
    <path clip-path="url(#pd102a2b656)" d="M 324.797796 307.584 
L 327.338811 307.584 
L 327.338811 275.960142 
L 324.797796 275.960142 
z
" style="fill:#1f77b4;"/>
   </g>
   <g id="patch_75">
    <path clip-path="url(#pd102a2b656)" d="M 327.338804 307.584 
L 329.879819 307.584 
L 329.879819 283.866107 
L 327.338804 283.866107 
z
" style="fill:#1f77b4;"/>
   </g>
   <g id="patch_76">
    <path clip-path="url(#pd102a2b656)" d="M 329.879819 307.584 
L 332.420841 307.584 
L 332.420841 287.02855 
L 329.879819 287.02855 
z
" style="fill:#1f77b4;"/>
   </g>
   <g id="patch_77">
    <path clip-path="url(#pd102a2b656)" d="M 332.420848 307.584 
L 334.961862 307.584 
L 334.961862 285.4473 
L 332.420848 285.4473 
z
" style="fill:#1f77b4;"/>
   </g>
   <g id="patch_78">
    <path clip-path="url(#pd102a2b656)" d="M 334.961855 307.584 
L 337.50287 307.584 
L 337.50287 280.703721 
L 334.961855 280.703721 
z
" style="fill:#1f77b4;"/>
   </g>
   <g id="patch_79">
    <path clip-path="url(#pd102a2b656)" d="M 337.50287 307.584 
L 340.043892 307.584 
L 340.043892 290.190927 
L 337.50287 290.190927 
z
" style="fill:#1f77b4;"/>
   </g>
   <g id="patch_80">
    <path clip-path="url(#pd102a2b656)" d="M 340.043899 307.584 
L 342.584921 307.584 
L 342.584921 283.866107 
L 340.043899 283.866107 
z
" style="fill:#1f77b4;"/>
   </g>
   <g id="patch_81">
    <path clip-path="url(#pd102a2b656)" d="M 342.584921 307.584 
L 345.125942 307.584 
L 345.125942 290.190927 
L 342.584921 290.190927 
z
" style="fill:#1f77b4;"/>
   </g>
   <g id="patch_82">
    <path clip-path="url(#pd102a2b656)" d="M 345.125928 307.584 
L 347.666936 307.584 
L 347.666936 288.609632 
L 345.125928 288.609632 
z
" style="fill:#1f77b4;"/>
   </g>
   <g id="patch_83">
    <path clip-path="url(#pd102a2b656)" d="M 347.666936 307.584 
L 350.207958 307.584 
L 350.207958 283.866173 
L 347.666936 283.866173 
z
" style="fill:#1f77b4;"/>
   </g>
   <g id="patch_84">
    <path clip-path="url(#pd102a2b656)" d="M 350.207958 307.584 
L 352.748965 307.584 
L 352.748965 280.703646 
L 350.207958 280.703646 
z
" style="fill:#1f77b4;"/>
   </g>
   <g id="patch_85">
    <path clip-path="url(#pd102a2b656)" d="M 352.74898 307.584 
L 355.290001 307.584 
L 355.290001 291.772115 
L 352.74898 291.772115 
z
" style="fill:#1f77b4;"/>
   </g>
   <g id="patch_86">
    <path clip-path="url(#pd102a2b656)" d="M 355.289987 307.584 
L 357.831009 307.584 
L 357.831009 287.02855 
L 355.289987 287.02855 
z
" style="fill:#1f77b4;"/>
   </g>
   <g id="patch_87">
    <path clip-path="url(#pd102a2b656)" d="M 357.831009 307.584 
L 360.372017 307.584 
L 360.372017 293.353224 
L 357.831009 293.353224 
z
" style="fill:#1f77b4;"/>
   </g>
   <g id="patch_88">
    <path clip-path="url(#pd102a2b656)" d="M 360.372031 307.584 
L 362.913053 307.584 
L 362.913053 296.515681 
L 360.372031 296.515681 
z
" style="fill:#1f77b4;"/>
   </g>
   <g id="patch_89">
    <path clip-path="url(#pd102a2b656)" d="M 362.913038 307.584 
L 365.45406 307.584 
L 365.45406 287.02855 
L 362.913038 287.02855 
z
" style="fill:#1f77b4;"/>
   </g>
   <g id="patch_90">
    <path clip-path="url(#pd102a2b656)" d="M 365.45406 307.584 
L 367.995068 307.584 
L 367.995068 282.284843 
L 365.45406 282.284843 
z
" style="fill:#1f77b4;"/>
   </g>
   <g id="patch_91">
    <path clip-path="url(#pd102a2b656)" d="M 367.995082 307.584 
L 370.536104 307.584 
L 370.536104 280.703796 
L 367.995082 280.703796 
z
" style="fill:#1f77b4;"/>
   </g>
   <g id="patch_92">
    <path clip-path="url(#pd102a2b656)" d="M 370.53609 307.584 
L 373.077111 307.584 
L 373.077111 287.02855 
L 370.53609 287.02855 
z
" style="fill:#1f77b4;"/>
   </g>
   <g id="patch_93">
    <path clip-path="url(#pd102a2b656)" d="M 373.077111 307.584 
L 375.618119 307.584 
L 375.618119 299.678014 
L 373.077111 299.678014 
z
" style="fill:#1f77b4;"/>
   </g>
   <g id="patch_94">
    <path clip-path="url(#pd102a2b656)" d="M 375.618133 307.584 
L 378.159155 307.584 
L 378.159155 301.259246 
L 375.618133 301.259246 
z
" style="fill:#1f77b4;"/>
   </g>
   <g id="patch_95">
    <path clip-path="url(#pd102a2b656)" d="M 378.159141 307.584 
L 380.700163 307.584 
L 380.700163 299.678058 
L 378.159141 299.678058 
z
" style="fill:#1f77b4;"/>
   </g>
   <g id="patch_96">
    <path clip-path="url(#pd102a2b656)" d="M 380.700163 307.584 
L 383.24117 307.584 
L 383.24117 299.678014 
L 380.700163 299.678014 
z
" style="fill:#1f77b4;"/>
   </g>
   <g id="patch_97">
    <path clip-path="url(#pd102a2b656)" d="M 383.241184 307.584 
L 385.782206 307.584 
L 385.782206 301.259246 
L 383.241184 301.259246 
z
" style="fill:#1f77b4;"/>
   </g>
   <g id="patch_98">
    <path clip-path="url(#pd102a2b656)" d="M 385.782192 307.584 
L 388.3232 307.584 
L 388.3232 304.421605 
L 385.782192 304.421605 
z
" style="fill:#1f77b4;"/>
   </g>
   <g id="patch_99">
    <path clip-path="url(#pd102a2b656)" d="M 388.3232 307.584 
L 390.864222 307.584 
L 390.864222 302.840435 
L 388.3232 302.840435 
z
" style="fill:#1f77b4;"/>
   </g>
   <g id="patch_100">
    <path clip-path="url(#pd102a2b656)" d="M 390.864236 307.584 
L 393.405257 307.584 
L 393.405257 304.421623 
L 390.864236 304.421623 
z
" style="fill:#1f77b4;"/>
   </g>
   <g id="patch_101">
    <path clip-path="url(#pd102a2b656)" d="M 393.405243 307.584 
L 395.946251 307.584 
L 395.946251 304.421605 
L 393.405243 304.421605 
z
" style="fill:#1f77b4;"/>
   </g>
   <g id="patch_102">
    <path clip-path="url(#pd102a2b656)" d="M 395.946251 307.584 
L 398.487273 307.584 
L 398.487273 306.002812 
L 395.946251 306.002812 
z
" style="fill:#1f77b4;"/>
   </g>
   <g id="matplotlib.axis_1">
    <g id="xtick_1">
     <g id="line2d_1">
      <defs>
       <path d="M 0 0 
L 0 3.5 
" id="md14e732c4b" style="stroke:#000000;stroke-width:0.8;"/>
      </defs>
      <g>
       <use style="stroke:#000000;stroke-width:0.8;" x="103.526032" xlink:href="#md14e732c4b" y="307.584"/>
      </g>
     </g>
     <g id="text_1">
      <!-- −2 -->
      <defs>
       <path d="M 10.59375 35.5 
L 73.1875 35.5 
L 73.1875 27.203125 
L 10.59375 27.203125 
z
" id="DejaVuSans-8722"/>
       <path d="M 19.1875 8.296875 
L 53.609375 8.296875 
L 53.609375 0 
L 7.328125 0 
L 7.328125 8.296875 
Q 12.9375 14.109375 22.625 23.890625 
Q 32.328125 33.6875 34.8125 36.53125 
Q 39.546875 41.84375 41.421875 45.53125 
Q 43.3125 49.21875 43.3125 52.78125 
Q 43.3125 58.59375 39.234375 62.25 
Q 35.15625 65.921875 28.609375 65.921875 
Q 23.96875 65.921875 18.8125 64.3125 
Q 13.671875 62.703125 7.8125 59.421875 
L 7.8125 69.390625 
Q 13.765625 71.78125 18.9375 73 
Q 24.125 74.21875 28.421875 74.21875 
Q 39.75 74.21875 46.484375 68.546875 
Q 53.21875 62.890625 53.21875 53.421875 
Q 53.21875 48.921875 51.53125 44.890625 
Q 49.859375 40.875 45.40625 35.40625 
Q 44.1875 33.984375 37.640625 27.21875 
Q 31.109375 20.453125 19.1875 8.296875 
z
" id="DejaVuSans-50"/>
      </defs>
      <g transform="translate(90.995173 327.501344)scale(0.17 -0.17)">
       <use xlink:href="#DejaVuSans-8722"/>
       <use x="83.789062" xlink:href="#DejaVuSans-50"/>
      </g>
     </g>
    </g>
    <g id="xtick_2">
     <g id="line2d_2">
      <g>
       <use style="stroke:#000000;stroke-width:0.8;" x="162.912642" xlink:href="#md14e732c4b" y="307.584"/>
      </g>
     </g>
     <g id="text_2">
      <!-- −1 -->
      <defs>
       <path d="M 12.40625 8.296875 
L 28.515625 8.296875 
L 28.515625 63.921875 
L 10.984375 60.40625 
L 10.984375 69.390625 
L 28.421875 72.90625 
L 38.28125 72.90625 
L 38.28125 8.296875 
L 54.390625 8.296875 
L 54.390625 0 
L 12.40625 0 
z
" id="DejaVuSans-49"/>
      </defs>
      <g transform="translate(150.381782 327.501344)scale(0.17 -0.17)">
       <use xlink:href="#DejaVuSans-8722"/>
       <use x="83.789062" xlink:href="#DejaVuSans-49"/>
      </g>
     </g>
    </g>
    <g id="xtick_3">
     <g id="line2d_3">
      <g>
       <use style="stroke:#000000;stroke-width:0.8;" x="222.299251" xlink:href="#md14e732c4b" y="307.584"/>
      </g>
     </g>
     <g id="text_3">
      <!-- 0 -->
      <defs>
       <path d="M 31.78125 66.40625 
Q 24.171875 66.40625 20.328125 58.90625 
Q 16.5 51.421875 16.5 36.375 
Q 16.5 21.390625 20.328125 13.890625 
Q 24.171875 6.390625 31.78125 6.390625 
Q 39.453125 6.390625 43.28125 13.890625 
Q 47.125 21.390625 47.125 36.375 
Q 47.125 51.421875 43.28125 58.90625 
Q 39.453125 66.40625 31.78125 66.40625 
z
M 31.78125 74.21875 
Q 44.046875 74.21875 50.515625 64.515625 
Q 56.984375 54.828125 56.984375 36.375 
Q 56.984375 17.96875 50.515625 8.265625 
Q 44.046875 -1.421875 31.78125 -1.421875 
Q 19.53125 -1.421875 13.0625 8.265625 
Q 6.59375 17.96875 6.59375 36.375 
Q 6.59375 54.828125 13.0625 64.515625 
Q 19.53125 74.21875 31.78125 74.21875 
z
" id="DejaVuSans-48"/>
      </defs>
      <g transform="translate(216.891126 327.501344)scale(0.17 -0.17)">
       <use xlink:href="#DejaVuSans-48"/>
      </g>
     </g>
    </g>
    <g id="xtick_4">
     <g id="line2d_4">
      <g>
       <use style="stroke:#000000;stroke-width:0.8;" x="281.685861" xlink:href="#md14e732c4b" y="307.584"/>
      </g>
     </g>
     <g id="text_4">
      <!-- 1 -->
      <g transform="translate(276.277736 327.501344)scale(0.17 -0.17)">
       <use xlink:href="#DejaVuSans-49"/>
      </g>
     </g>
    </g>
    <g id="xtick_5">
     <g id="line2d_5">
      <g>
       <use style="stroke:#000000;stroke-width:0.8;" x="341.07247" xlink:href="#md14e732c4b" y="307.584"/>
      </g>
     </g>
     <g id="text_5">
      <!-- 2 -->
      <g transform="translate(335.664345 327.501344)scale(0.17 -0.17)">
       <use xlink:href="#DejaVuSans-50"/>
      </g>
     </g>
    </g>
    <g id="xtick_6">
     <g id="line2d_6">
      <g>
       <use style="stroke:#000000;stroke-width:0.8;" x="400.45908" xlink:href="#md14e732c4b" y="307.584"/>
      </g>
     </g>
     <g id="text_6">
      <!-- 3 -->
      <defs>
       <path d="M 40.578125 39.3125 
Q 47.65625 37.796875 51.625 33 
Q 55.609375 28.21875 55.609375 21.1875 
Q 55.609375 10.40625 48.1875 4.484375 
Q 40.765625 -1.421875 27.09375 -1.421875 
Q 22.515625 -1.421875 17.65625 -0.515625 
Q 12.796875 0.390625 7.625 2.203125 
L 7.625 11.71875 
Q 11.71875 9.328125 16.59375 8.109375 
Q 21.484375 6.890625 26.8125 6.890625 
Q 36.078125 6.890625 40.9375 10.546875 
Q 45.796875 14.203125 45.796875 21.1875 
Q 45.796875 27.640625 41.28125 31.265625 
Q 36.765625 34.90625 28.71875 34.90625 
L 20.21875 34.90625 
L 20.21875 43.015625 
L 29.109375 43.015625 
Q 36.375 43.015625 40.234375 45.921875 
Q 44.09375 48.828125 44.09375 54.296875 
Q 44.09375 59.90625 40.109375 62.90625 
Q 36.140625 65.921875 28.71875 65.921875 
Q 24.65625 65.921875 20.015625 65.03125 
Q 15.375 64.15625 9.8125 62.3125 
L 9.8125 71.09375 
Q 15.4375 72.65625 20.34375 73.4375 
Q 25.25 74.21875 29.59375 74.21875 
Q 40.828125 74.21875 47.359375 69.109375 
Q 53.90625 64.015625 53.90625 55.328125 
Q 53.90625 49.265625 50.4375 45.09375 
Q 46.96875 40.921875 40.578125 39.3125 
z
" id="DejaVuSans-51"/>
      </defs>
      <g transform="translate(395.050955 327.501344)scale(0.17 -0.17)">
       <use xlink:href="#DejaVuSans-51"/>
      </g>
     </g>
    </g>
    <g id="text_7">
     <!-- Position in Radian -->
     <defs>
      <path d="M 19.671875 64.796875 
L 19.671875 37.40625 
L 32.078125 37.40625 
Q 38.96875 37.40625 42.71875 40.96875 
Q 46.484375 44.53125 46.484375 51.125 
Q 46.484375 57.671875 42.71875 61.234375 
Q 38.96875 64.796875 32.078125 64.796875 
z
M 9.8125 72.90625 
L 32.078125 72.90625 
Q 44.34375 72.90625 50.609375 67.359375 
Q 56.890625 61.8125 56.890625 51.125 
Q 56.890625 40.328125 50.609375 34.8125 
Q 44.34375 29.296875 32.078125 29.296875 
L 19.671875 29.296875 
L 19.671875 0 
L 9.8125 0 
z
" id="DejaVuSans-80"/>
      <path d="M 30.609375 48.390625 
Q 23.390625 48.390625 19.1875 42.75 
Q 14.984375 37.109375 14.984375 27.296875 
Q 14.984375 17.484375 19.15625 11.84375 
Q 23.34375 6.203125 30.609375 6.203125 
Q 37.796875 6.203125 41.984375 11.859375 
Q 46.1875 17.53125 46.1875 27.296875 
Q 46.1875 37.015625 41.984375 42.703125 
Q 37.796875 48.390625 30.609375 48.390625 
z
M 30.609375 56 
Q 42.328125 56 49.015625 48.375 
Q 55.71875 40.765625 55.71875 27.296875 
Q 55.71875 13.875 49.015625 6.21875 
Q 42.328125 -1.421875 30.609375 -1.421875 
Q 18.84375 -1.421875 12.171875 6.21875 
Q 5.515625 13.875 5.515625 27.296875 
Q 5.515625 40.765625 12.171875 48.375 
Q 18.84375 56 30.609375 56 
z
" id="DejaVuSans-111"/>
      <path d="M 44.28125 53.078125 
L 44.28125 44.578125 
Q 40.484375 46.53125 36.375 47.5 
Q 32.28125 48.484375 27.875 48.484375 
Q 21.1875 48.484375 17.84375 46.4375 
Q 14.5 44.390625 14.5 40.28125 
Q 14.5 37.15625 16.890625 35.375 
Q 19.28125 33.59375 26.515625 31.984375 
L 29.59375 31.296875 
Q 39.15625 29.25 43.1875 25.515625 
Q 47.21875 21.78125 47.21875 15.09375 
Q 47.21875 7.46875 41.1875 3.015625 
Q 35.15625 -1.421875 24.609375 -1.421875 
Q 20.21875 -1.421875 15.453125 -0.5625 
Q 10.6875 0.296875 5.421875 2 
L 5.421875 11.28125 
Q 10.40625 8.6875 15.234375 7.390625 
Q 20.0625 6.109375 24.8125 6.109375 
Q 31.15625 6.109375 34.5625 8.28125 
Q 37.984375 10.453125 37.984375 14.40625 
Q 37.984375 18.0625 35.515625 20.015625 
Q 33.0625 21.96875 24.703125 23.78125 
L 21.578125 24.515625 
Q 13.234375 26.265625 9.515625 29.90625 
Q 5.8125 33.546875 5.8125 39.890625 
Q 5.8125 47.609375 11.28125 51.796875 
Q 16.75 56 26.8125 56 
Q 31.78125 56 36.171875 55.265625 
Q 40.578125 54.546875 44.28125 53.078125 
z
" id="DejaVuSans-115"/>
      <path d="M 9.421875 54.6875 
L 18.40625 54.6875 
L 18.40625 0 
L 9.421875 0 
z
M 9.421875 75.984375 
L 18.40625 75.984375 
L 18.40625 64.59375 
L 9.421875 64.59375 
z
" id="DejaVuSans-105"/>
      <path d="M 18.3125 70.21875 
L 18.3125 54.6875 
L 36.8125 54.6875 
L 36.8125 47.703125 
L 18.3125 47.703125 
L 18.3125 18.015625 
Q 18.3125 11.328125 20.140625 9.421875 
Q 21.96875 7.515625 27.59375 7.515625 
L 36.8125 7.515625 
L 36.8125 0 
L 27.59375 0 
Q 17.1875 0 13.234375 3.875 
Q 9.28125 7.765625 9.28125 18.015625 
L 9.28125 47.703125 
L 2.6875 47.703125 
L 2.6875 54.6875 
L 9.28125 54.6875 
L 9.28125 70.21875 
z
" id="DejaVuSans-116"/>
      <path d="M 54.890625 33.015625 
L 54.890625 0 
L 45.90625 0 
L 45.90625 32.71875 
Q 45.90625 40.484375 42.875 44.328125 
Q 39.84375 48.1875 33.796875 48.1875 
Q 26.515625 48.1875 22.3125 43.546875 
Q 18.109375 38.921875 18.109375 30.90625 
L 18.109375 0 
L 9.078125 0 
L 9.078125 54.6875 
L 18.109375 54.6875 
L 18.109375 46.1875 
Q 21.34375 51.125 25.703125 53.5625 
Q 30.078125 56 35.796875 56 
Q 45.21875 56 50.046875 50.171875 
Q 54.890625 44.34375 54.890625 33.015625 
z
" id="DejaVuSans-110"/>
      <path id="DejaVuSans-32"/>
      <path d="M 44.390625 34.1875 
Q 47.5625 33.109375 50.5625 29.59375 
Q 53.5625 26.078125 56.59375 19.921875 
L 66.609375 0 
L 56 0 
L 46.6875 18.703125 
Q 43.0625 26.03125 39.671875 28.421875 
Q 36.28125 30.8125 30.421875 30.8125 
L 19.671875 30.8125 
L 19.671875 0 
L 9.8125 0 
L 9.8125 72.90625 
L 32.078125 72.90625 
Q 44.578125 72.90625 50.734375 67.671875 
Q 56.890625 62.453125 56.890625 51.90625 
Q 56.890625 45.015625 53.6875 40.46875 
Q 50.484375 35.9375 44.390625 34.1875 
z
M 19.671875 64.796875 
L 19.671875 38.921875 
L 32.078125 38.921875 
Q 39.203125 38.921875 42.84375 42.21875 
Q 46.484375 45.515625 46.484375 51.90625 
Q 46.484375 58.296875 42.84375 61.546875 
Q 39.203125 64.796875 32.078125 64.796875 
z
" id="DejaVuSans-82"/>
      <path d="M 34.28125 27.484375 
Q 23.390625 27.484375 19.1875 25 
Q 14.984375 22.515625 14.984375 16.5 
Q 14.984375 11.71875 18.140625 8.90625 
Q 21.296875 6.109375 26.703125 6.109375 
Q 34.1875 6.109375 38.703125 11.40625 
Q 43.21875 16.703125 43.21875 25.484375 
L 43.21875 27.484375 
z
M 52.203125 31.203125 
L 52.203125 0 
L 43.21875 0 
L 43.21875 8.296875 
Q 40.140625 3.328125 35.546875 0.953125 
Q 30.953125 -1.421875 24.3125 -1.421875 
Q 15.921875 -1.421875 10.953125 3.296875 
Q 6 8.015625 6 15.921875 
Q 6 25.140625 12.171875 29.828125 
Q 18.359375 34.515625 30.609375 34.515625 
L 43.21875 34.515625 
L 43.21875 35.40625 
Q 43.21875 41.609375 39.140625 45 
Q 35.0625 48.390625 27.6875 48.390625 
Q 23 48.390625 18.546875 47.265625 
Q 14.109375 46.140625 10.015625 43.890625 
L 10.015625 52.203125 
Q 14.9375 54.109375 19.578125 55.046875 
Q 24.21875 56 28.609375 56 
Q 40.484375 56 46.34375 49.84375 
Q 52.203125 43.703125 52.203125 31.203125 
z
" id="DejaVuSans-97"/>
      <path d="M 45.40625 46.390625 
L 45.40625 75.984375 
L 54.390625 75.984375 
L 54.390625 0 
L 45.40625 0 
L 45.40625 8.203125 
Q 42.578125 3.328125 38.25 0.953125 
Q 33.9375 -1.421875 27.875 -1.421875 
Q 17.96875 -1.421875 11.734375 6.484375 
Q 5.515625 14.40625 5.515625 27.296875 
Q 5.515625 40.1875 11.734375 48.09375 
Q 17.96875 56 27.875 56 
Q 33.9375 56 38.25 53.625 
Q 42.578125 51.265625 45.40625 46.390625 
z
M 14.796875 27.296875 
Q 14.796875 17.390625 18.875 11.75 
Q 22.953125 6.109375 30.078125 6.109375 
Q 37.203125 6.109375 41.296875 11.75 
Q 45.40625 17.390625 45.40625 27.296875 
Q 45.40625 37.203125 41.296875 42.84375 
Q 37.203125 48.484375 30.078125 48.484375 
Q 22.953125 48.484375 18.875 42.84375 
Q 14.796875 37.203125 14.796875 27.296875 
z
" id="DejaVuSans-100"/>
     </defs>
     <g transform="translate(102.024844 357.832125)scale(0.3 -0.3)">
      <use xlink:href="#DejaVuSans-80"/>
      <use x="60.255859" xlink:href="#DejaVuSans-111"/>
      <use x="121.4375" xlink:href="#DejaVuSans-115"/>
      <use x="173.537109" xlink:href="#DejaVuSans-105"/>
      <use x="201.320312" xlink:href="#DejaVuSans-116"/>
      <use x="240.529297" xlink:href="#DejaVuSans-105"/>
      <use x="268.3125" xlink:href="#DejaVuSans-111"/>
      <use x="329.494141" xlink:href="#DejaVuSans-110"/>
      <use x="392.873047" xlink:href="#DejaVuSans-32"/>
      <use x="424.660156" xlink:href="#DejaVuSans-105"/>
      <use x="452.443359" xlink:href="#DejaVuSans-110"/>
      <use x="515.822266" xlink:href="#DejaVuSans-32"/>
      <use x="547.609375" xlink:href="#DejaVuSans-82"/>
      <use x="617.060547" xlink:href="#DejaVuSans-97"/>
      <use x="678.339844" xlink:href="#DejaVuSans-100"/>
      <use x="741.816406" xlink:href="#DejaVuSans-105"/>
      <use x="769.599609" xlink:href="#DejaVuSans-97"/>
      <use x="830.878906" xlink:href="#DejaVuSans-110"/>
     </g>
    </g>
   </g>
   <g id="matplotlib.axis_2">
    <g id="ytick_1">
     <g id="line2d_7">
      <defs>
       <path d="M 0 0 
L -3.5 0 
" id="mb8ee06588f" style="stroke:#000000;stroke-width:0.8;"/>
      </defs>
      <g>
       <use style="stroke:#000000;stroke-width:0.8;" x="57.6" xlink:href="#mb8ee06588f" y="307.584"/>
      </g>
     </g>
     <g id="text_8">
      <!-- 0.00 -->
      <defs>
       <path d="M 10.6875 12.40625 
L 21 12.40625 
L 21 0 
L 10.6875 0 
z
" id="DejaVuSans-46"/>
      </defs>
      <g transform="translate(12.748438 314.042672)scale(0.17 -0.17)">
       <use xlink:href="#DejaVuSans-48"/>
       <use x="63.623047" xlink:href="#DejaVuSans-46"/>
       <use x="95.410156" xlink:href="#DejaVuSans-48"/>
       <use x="159.033203" xlink:href="#DejaVuSans-48"/>
      </g>
     </g>
    </g>
    <g id="ytick_2">
     <g id="line2d_8">
      <g>
       <use style="stroke:#000000;stroke-width:0.8;" x="57.6" xlink:href="#mb8ee06588f" y="265.299274"/>
      </g>
     </g>
     <g id="text_9">
      <!-- 0.25 -->
      <defs>
       <path d="M 10.796875 72.90625 
L 49.515625 72.90625 
L 49.515625 64.59375 
L 19.828125 64.59375 
L 19.828125 46.734375 
Q 21.96875 47.46875 24.109375 47.828125 
Q 26.265625 48.1875 28.421875 48.1875 
Q 40.625 48.1875 47.75 41.5 
Q 54.890625 34.8125 54.890625 23.390625 
Q 54.890625 11.625 47.5625 5.09375 
Q 40.234375 -1.421875 26.90625 -1.421875 
Q 22.3125 -1.421875 17.546875 -0.640625 
Q 12.796875 0.140625 7.71875 1.703125 
L 7.71875 11.625 
Q 12.109375 9.234375 16.796875 8.0625 
Q 21.484375 6.890625 26.703125 6.890625 
Q 35.15625 6.890625 40.078125 11.328125 
Q 45.015625 15.765625 45.015625 23.390625 
Q 45.015625 31 40.078125 35.4375 
Q 35.15625 39.890625 26.703125 39.890625 
Q 22.75 39.890625 18.8125 39.015625 
Q 14.890625 38.140625 10.796875 36.28125 
z
" id="DejaVuSans-53"/>
      </defs>
      <g transform="translate(12.748438 271.757946)scale(0.17 -0.17)">
       <use xlink:href="#DejaVuSans-48"/>
       <use x="63.623047" xlink:href="#DejaVuSans-46"/>
       <use x="95.410156" xlink:href="#DejaVuSans-50"/>
       <use x="159.033203" xlink:href="#DejaVuSans-53"/>
      </g>
     </g>
    </g>
    <g id="ytick_3">
     <g id="line2d_9">
      <g>
       <use style="stroke:#000000;stroke-width:0.8;" x="57.6" xlink:href="#mb8ee06588f" y="223.014548"/>
      </g>
     </g>
     <g id="text_10">
      <!-- 0.50 -->
      <g transform="translate(12.748438 229.47322)scale(0.17 -0.17)">
       <use xlink:href="#DejaVuSans-48"/>
       <use x="63.623047" xlink:href="#DejaVuSans-46"/>
       <use x="95.410156" xlink:href="#DejaVuSans-53"/>
       <use x="159.033203" xlink:href="#DejaVuSans-48"/>
      </g>
     </g>
    </g>
    <g id="ytick_4">
     <g id="line2d_10">
      <g>
       <use style="stroke:#000000;stroke-width:0.8;" x="57.6" xlink:href="#mb8ee06588f" y="180.729823"/>
      </g>
     </g>
     <g id="text_11">
      <!-- 0.75 -->
      <defs>
       <path d="M 8.203125 72.90625 
L 55.078125 72.90625 
L 55.078125 68.703125 
L 28.609375 0 
L 18.3125 0 
L 43.21875 64.59375 
L 8.203125 64.59375 
z
" id="DejaVuSans-55"/>
      </defs>
      <g transform="translate(12.748438 187.188494)scale(0.17 -0.17)">
       <use xlink:href="#DejaVuSans-48"/>
       <use x="63.623047" xlink:href="#DejaVuSans-46"/>
       <use x="95.410156" xlink:href="#DejaVuSans-55"/>
       <use x="159.033203" xlink:href="#DejaVuSans-53"/>
      </g>
     </g>
    </g>
    <g id="ytick_5">
     <g id="line2d_11">
      <g>
       <use style="stroke:#000000;stroke-width:0.8;" x="57.6" xlink:href="#mb8ee06588f" y="138.445097"/>
      </g>
     </g>
     <g id="text_12">
      <!-- 1.00 -->
      <g transform="translate(12.748438 144.903769)scale(0.17 -0.17)">
       <use xlink:href="#DejaVuSans-49"/>
       <use x="63.623047" xlink:href="#DejaVuSans-46"/>
       <use x="95.410156" xlink:href="#DejaVuSans-48"/>
       <use x="159.033203" xlink:href="#DejaVuSans-48"/>
      </g>
     </g>
    </g>
    <g id="ytick_6">
     <g id="line2d_12">
      <g>
       <use style="stroke:#000000;stroke-width:0.8;" x="57.6" xlink:href="#mb8ee06588f" y="96.160371"/>
      </g>
     </g>
     <g id="text_13">
      <!-- 1.25 -->
      <g transform="translate(12.748438 102.619043)scale(0.17 -0.17)">
       <use xlink:href="#DejaVuSans-49"/>
       <use x="63.623047" xlink:href="#DejaVuSans-46"/>
       <use x="95.410156" xlink:href="#DejaVuSans-50"/>
       <use x="159.033203" xlink:href="#DejaVuSans-53"/>
      </g>
     </g>
    </g>
    <g id="ytick_7">
     <g id="line2d_13">
      <g>
       <use style="stroke:#000000;stroke-width:0.8;" x="57.6" xlink:href="#mb8ee06588f" y="53.875645"/>
      </g>
     </g>
     <g id="text_14">
      <!-- 1.50 -->
      <g transform="translate(12.748438 60.334317)scale(0.17 -0.17)">
       <use xlink:href="#DejaVuSans-49"/>
       <use x="63.623047" xlink:href="#DejaVuSans-46"/>
       <use x="95.410156" xlink:href="#DejaVuSans-53"/>
       <use x="159.033203" xlink:href="#DejaVuSans-48"/>
      </g>
     </g>
    </g>
    <g id="text_15">
     <!-- Density -->
     <defs>
      <path d="M 19.671875 64.796875 
L 19.671875 8.109375 
L 31.59375 8.109375 
Q 46.6875 8.109375 53.6875 14.9375 
Q 60.6875 21.78125 60.6875 36.53125 
Q 60.6875 51.171875 53.6875 57.984375 
Q 46.6875 64.796875 31.59375 64.796875 
z
M 9.8125 72.90625 
L 30.078125 72.90625 
Q 51.265625 72.90625 61.171875 64.09375 
Q 71.09375 55.28125 71.09375 36.53125 
Q 71.09375 17.671875 61.125 8.828125 
Q 51.171875 0 30.078125 0 
L 9.8125 0 
z
" id="DejaVuSans-68"/>
      <path d="M 56.203125 29.59375 
L 56.203125 25.203125 
L 14.890625 25.203125 
Q 15.484375 15.921875 20.484375 11.0625 
Q 25.484375 6.203125 34.421875 6.203125 
Q 39.59375 6.203125 44.453125 7.46875 
Q 49.3125 8.734375 54.109375 11.28125 
L 54.109375 2.78125 
Q 49.265625 0.734375 44.1875 -0.34375 
Q 39.109375 -1.421875 33.890625 -1.421875 
Q 20.796875 -1.421875 13.15625 6.1875 
Q 5.515625 13.8125 5.515625 26.8125 
Q 5.515625 40.234375 12.765625 48.109375 
Q 20.015625 56 32.328125 56 
Q 43.359375 56 49.78125 48.890625 
Q 56.203125 41.796875 56.203125 29.59375 
z
M 47.21875 32.234375 
Q 47.125 39.59375 43.09375 43.984375 
Q 39.0625 48.390625 32.421875 48.390625 
Q 24.90625 48.390625 20.390625 44.140625 
Q 15.875 39.890625 15.1875 32.171875 
z
" id="DejaVuSans-101"/>
      <path d="M 32.171875 -5.078125 
Q 28.375 -14.84375 24.75 -17.8125 
Q 21.140625 -20.796875 15.09375 -20.796875 
L 7.90625 -20.796875 
L 7.90625 -13.28125 
L 13.1875 -13.28125 
Q 16.890625 -13.28125 18.9375 -11.515625 
Q 21 -9.765625 23.484375 -3.21875 
L 25.09375 0.875 
L 2.984375 54.6875 
L 12.5 54.6875 
L 29.59375 11.921875 
L 46.6875 54.6875 
L 56.203125 54.6875 
z
" id="DejaVuSans-121"/>
     </defs>
     <g transform="translate(2.509375 231.553781)rotate(-90)scale(0.3 -0.3)">
      <use xlink:href="#DejaVuSans-68"/>
      <use x="77.001953" xlink:href="#DejaVuSans-101"/>
      <use x="138.525391" xlink:href="#DejaVuSans-110"/>
      <use x="201.904297" xlink:href="#DejaVuSans-115"/>
      <use x="254.003906" xlink:href="#DejaVuSans-105"/>
      <use x="281.787109" xlink:href="#DejaVuSans-116"/>
      <use x="320.996094" xlink:href="#DejaVuSans-121"/>
     </g>
    </g>
   </g>
   <g id="line2d_14">
    <path clip-path="url(#pd102a2b656)" d="M 73.832727 307.584 
L 142.839968 307.483169 
L 143.136901 307.242795 
L 143.433834 306.669781 
L 143.790153 305.376681 
L 144.502793 302.603167 
L 144.680952 302.524152 
L 144.859112 302.771709 
L 145.512365 304.149414 
L 145.631138 304.054389 
L 145.868685 303.411625 
L 146.521937 301.175033 
L 146.700097 301.105502 
L 146.937644 301.363732 
L 147.590896 302.267235 
L 148.006603 302.407166 
L 148.897402 302.474025 
L 149.134948 302.179119 
L 149.372495 301.48547 
L 149.847587 299.134402 
L 150.203907 297.823088 
L 150.382067 297.678356 
L 150.560227 297.868228 
L 150.916546 298.814583 
L 151.866732 302.030654 
L 152.995078 306.954457 
L 153.351397 307.401427 
L 153.64833 307.474994 
L 153.945264 307.331018 
L 154.242197 306.85925 
L 154.53913 305.868348 
L 154.954836 303.500554 
L 156.677048 292.167179 
L 156.855207 292.083667 
L 157.033367 292.441953 
L 157.3303 293.771274 
L 157.805393 295.918467 
L 157.983553 296.071847 
L 158.102326 295.881445 
L 158.339873 294.85975 
L 159.230672 290.046253 
L 159.586991 289.41705 
L 159.883924 289.244732 
L 160.062084 289.449096 
L 160.299631 290.335318 
L 160.65595 293.046379 
L 161.427976 299.32335 
L 161.962456 301.446132 
L 162.437549 302.722424 
L 162.615708 302.73055 
L 162.793868 302.268047 
L 163.031415 300.869133 
L 163.862827 294.9697 
L 163.981601 294.871352 
L 164.100374 295.021639 
L 164.33792 295.905708 
L 164.931786 298.355956 
L 165.050559 298.257783 
L 165.228719 297.450335 
L 165.525652 294.375945 
L 166.238292 285.80737 
L 166.416452 285.400731 
L 166.535225 285.666316 
L 166.772771 287.274995 
L 167.960503 297.732565 
L 168.079277 297.65476 
L 168.257436 296.822456 
L 168.554369 293.660857 
L 169.148236 286.596121 
L 169.326395 286.030917 
L 169.445169 286.139473 
L 169.682715 287.103429 
L 170.098421 288.770079 
L 170.276581 288.843737 
L 170.454741 288.498055 
L 170.751674 287.151086 
L 171.048607 284.699458 
L 171.404927 279.528331 
L 172.236339 265.481737 
L 172.355112 265.212313 
L 172.473886 265.646738 
L 172.652046 267.524474 
L 173.008365 274.277108 
L 173.602231 284.993617 
L 173.839778 286.622111 
L 173.958551 286.79675 
L 174.077324 286.626024 
L 174.314871 285.598919 
L 175.561989 278.000669 
L 175.918309 273.177571 
L 176.571562 263.958693 
L 176.690335 263.672559 
L 176.809108 264.01705 
L 177.046655 266.31689 
L 178.234387 281.272148 
L 179.303346 291.46746 
L 179.362732 291.471368 
L 179.481506 291.124041 
L 179.659665 289.701859 
L 179.956598 285.234265 
L 180.966171 267.810635 
L 181.203717 266.700363 
L 181.32249 266.772691 
L 181.50065 267.654821 
L 181.797583 270.910985 
L 182.688383 282.553597 
L 182.925929 283.519402 
L 183.104089 283.629225 
L 183.341635 283.307309 
L 183.757341 282.69425 
L 184.410594 282.246481 
L 185.242007 280.452656 
L 185.479553 280.649454 
L 186.251579 281.700427 
L 186.845445 282.66831 
L 187.379925 282.936038 
L 187.558084 283.463895 
L 187.855018 285.345616 
L 188.805203 292.828295 
L 188.983363 292.917455 
L 189.161523 292.612471 
L 189.696002 291.481107 
L 189.874162 291.574992 
L 190.230482 292.336464 
L 190.468028 292.585662 
L 190.586802 292.421302 
L 190.764961 291.682847 
L 191.061894 289.084271 
L 191.596374 281.556662 
L 192.309013 271.92206 
L 192.665333 269.560027 
L 193.318586 267.373538 
L 193.556132 266.916736 
L 193.674905 266.954233 
L 193.853065 267.408057 
L 195.218957 272.564044 
L 195.51589 273.042652 
L 195.812823 273.100145 
L 196.109756 273.214469 
L 196.466076 273.452537 
L 196.584849 273.254568 
L 196.763009 272.361048 
L 197.000555 269.801994 
L 197.535035 260.455008 
L 198.128901 251.990895 
L 198.603994 247.997433 
L 198.84154 247.270217 
L 198.960314 247.321387 
L 199.138473 247.862793 
L 199.732339 250.317008 
L 199.851113 250.206893 
L 200.029272 249.391351 
L 200.326206 246.399232 
L 201.276391 234.800713 
L 201.454551 234.534548 
L 201.632711 234.83866 
L 201.870257 235.225487 
L 201.989031 235.017599 
L 202.16719 233.85173 
L 202.464123 229.624616 
L 202.998603 221.7208 
L 203.117376 221.389211 
L 203.236149 221.824161 
L 203.414309 223.803967 
L 204.245722 235.719253 
L 204.305108 235.758438 
L 204.423882 235.428046 
L 204.661428 233.446751 
L 205.611614 223.33225 
L 205.730387 223.367354 
L 205.908547 224.226923 
L 206.264866 227.862146 
L 206.621186 230.916301 
L 206.739959 231.166862 
L 206.799346 231.109564 
L 206.977506 230.240777 
L 207.333825 226.380924 
L 207.927692 217.561965 
L 208.343398 206.939194 
L 209.471743 173.845922 
L 209.70929 171.554401 
L 209.768676 171.484058 
L 209.88745 172.015652 
L 210.065609 174.525213 
L 210.362543 182.663472 
L 211.134568 206.222245 
L 211.312728 207.733404 
L 211.372115 207.741655 
L 211.490888 207.018845 
L 211.728435 202.870298 
L 212.203527 188.027457 
L 212.67862 175.138037 
L 212.975553 172.015245 
L 213.094327 171.778384 
L 213.153713 171.813335 
L 213.39126 172.481053 
L 213.688193 173.10472 
L 213.806966 173.009835 
L 214.044512 172.276238 
L 215.172858 167.065738 
L 215.588564 165.041946 
L 215.766724 164.896862 
L 215.885497 165.129682 
L 216.063657 166.010389 
L 216.301203 168.290186 
L 216.657523 174.318851 
L 217.310776 186.064018 
L 217.488936 186.748964 
L 217.607709 186.42747 
L 217.845255 184.434889 
L 218.320348 180.390776 
L 218.379735 180.339798 
L 218.498508 180.697538 
L 218.676668 182.337966 
L 219.329921 190.228273 
L 219.389307 190.247546 
L 219.50808 189.744708 
L 219.745627 186.946028 
L 220.577039 175.398405 
L 220.814586 172.044629 
L 221.052132 165.020388 
L 221.289679 150.82142 
L 221.645998 112.784128 
L 222.180478 56.577785 
L 222.299251 54.144 
L 222.418024 57.035595 
L 222.596184 70.420116 
L 223.605756 167.321846 
L 223.962076 175.274953 
L 224.318396 179.129378 
L 224.377782 179.298551 
L 224.437169 179.259082 
L 224.555942 178.444329 
L 224.734102 175.107381 
L 225.031035 164.123576 
L 225.684288 137.658513 
L 225.862448 136.119055 
L 225.981221 137.154031 
L 226.159381 141.713212 
L 226.5157 159.14819 
L 227.22834 196.076636 
L 227.525273 201.814448 
L 227.644046 202.238708 
L 227.762819 201.782737 
L 228.000366 198.985963 
L 228.653618 190.026978 
L 228.831778 189.579909 
L 228.950551 189.933293 
L 229.188098 191.974906 
L 230.672763 211.273267 
L 231.207242 223.727348 
L 232.870068 263.534853 
L 232.929454 263.74245 
L 232.988841 263.715232 
L 233.107614 262.956771 
L 233.34516 258.95234 
L 233.998413 245.52952 
L 234.117186 245.220586 
L 234.23596 245.854367 
L 234.473506 249.385474 
L 235.126759 260.453716 
L 235.304919 261.026197 
L 235.423692 260.744943 
L 235.661238 259.105176 
L 236.136331 255.713221 
L 236.255104 255.594401 
L 236.373878 255.914392 
L 236.552037 257.241048 
L 236.84897 261.439673 
L 237.680383 274.732284 
L 237.858543 275.157495 
L 237.977316 274.73766 
L 238.214862 272.531425 
L 238.927502 264.696185 
L 239.224435 263.671981 
L 239.640141 262.609667 
L 240.768487 258.163628 
L 241.184193 254.551619 
L 241.778059 249.638044 
L 242.728245 244.59206 
L 242.847018 244.780811 
L 243.025178 246.04911 
L 243.322111 250.810065 
L 244.03475 268.509632 
L 244.509843 277.678455 
L 244.747389 279.64282 
L 244.866163 279.856333 
L 244.984936 279.607003 
L 245.222482 278.071038 
L 245.875735 273.266363 
L 245.994508 273.159455 
L 246.113281 273.410503 
L 246.350828 274.930708 
L 247.3604 283.402168 
L 247.479173 283.300486 
L 247.657333 282.676321 
L 248.488746 278.993223 
L 248.726292 278.987344 
L 248.963839 278.966304 
L 249.141999 278.651707 
L 249.498318 277.282185 
L 249.795251 276.479356 
L 249.914024 276.521105 
L 250.092184 277.014002 
L 250.68605 279.102763 
L 250.804824 278.898188 
L 251.04237 277.682829 
L 251.814396 272.830307 
L 252.230102 271.836303 
L 252.645809 271.197912 
L 252.764582 271.230673 
L 252.942742 271.687527 
L 253.180288 273.260546 
L 254.011701 280.300645 
L 254.130474 280.067116 
L 254.308634 278.865635 
L 254.664953 274.20595 
L 255.199433 267.168879 
L 255.436979 266.195187 
L 255.555752 266.340704 
L 255.793299 267.563584 
L 256.268392 270.334744 
L 256.387165 270.483793 
L 256.446552 270.449493 
L 256.624711 269.982618 
L 257.099804 268.41206 
L 257.218577 268.528879 
L 257.396737 269.226783 
L 257.931217 271.658697 
L 258.04999 271.365902 
L 258.22815 269.994868 
L 258.525083 265.569315 
L 259.118949 256.411073 
L 259.237722 255.954682 
L 259.297109 256.000362 
L 259.415882 256.657337 
L 259.653428 260.042262 
L 260.425454 273.62165 
L 260.484841 273.773775 
L 260.544228 273.750058 
L 260.663001 273.233529 
L 261.316254 268.354719 
L 261.37564 268.454966 
L 261.5538 269.490096 
L 262.028893 273.14956 
L 262.088279 273.141498 
L 262.207053 272.549547 
L 262.385212 270.127303 
L 262.741532 260.950036 
L 263.216625 249.348484 
L 263.454171 247.824803 
L 263.572945 248.333658 
L 263.810491 251.394967 
L 264.285584 262.007528 
L 264.998223 277.868732 
L 265.23577 280.008766 
L 265.354543 280.124023 
L 265.473316 279.6311 
L 265.710863 277.251138 
L 266.304729 270.692398 
L 266.542275 270.100651 
L 266.661048 270.212214 
L 267.433074 271.535402 
L 267.611234 271.381284 
L 267.848781 270.845044 
L 268.145714 269.477854 
L 268.56142 266.195303 
L 269.214673 261.09349 
L 269.452219 260.648208 
L 269.570992 260.827284 
L 269.808539 261.847338 
L 270.402405 264.785108 
L 270.521178 264.797263 
L 270.639951 264.499861 
L 270.877498 263.018775 
L 271.768297 256.094951 
L 272.005843 255.805806 
L 272.421549 255.810351 
L 272.659096 255.949932 
L 272.896642 256.441061 
L 273.252962 257.889774 
L 273.846828 260.137549 
L 274.440694 262.003913 
L 275.153334 264.562521 
L 275.272107 264.467619 
L 275.450267 263.733242 
L 275.7472 260.894933 
L 276.578612 251.415066 
L 276.816159 250.546356 
L 276.994318 250.494964 
L 277.172478 250.890312 
L 277.706958 252.673585 
L 277.766344 252.619135 
L 277.885118 252.173034 
L 278.122664 249.769623 
L 278.597757 240.952674 
L 279.013463 234.83143 
L 279.25101 233.680687 
L 279.310396 233.689244 
L 279.429169 234.045154 
L 279.666716 235.919977 
L 280.438742 245.594635 
L 280.913835 253.32199 
L 281.626474 265.987155 
L 281.923407 267.81394 
L 282.101567 268.050628 
L 282.279727 267.951578 
L 282.517273 267.503555 
L 282.814206 266.2955 
L 283.408072 263.094525 
L 283.467459 263.1379 
L 283.586232 263.651974 
L 283.823779 266.491193 
L 284.595804 278.163374 
L 284.714578 277.695972 
L 284.892737 275.433285 
L 285.842923 259.220994 
L 285.961696 259.642206 
L 286.199243 262.204917 
L 286.793109 269.781873 
L 286.971269 270.140414 
L 287.090042 269.752697 
L 287.624522 266.389922 
L 287.743295 266.607084 
L 287.921455 268.312057 
L 288.218388 274.524467 
L 288.87164 289.273717 
L 289.168573 291.424069 
L 289.287347 291.564669 
L 289.346733 291.525991 
L 289.524893 291.089478 
L 289.821826 289.640988 
L 290.237532 286.414855 
L 291.484651 273.324614 
L 291.840971 268.116989 
L 292.37545 256.016146 
L 293.147476 239.499795 
L 293.563182 234.484819 
L 293.681956 234.100174 
L 293.741342 234.13448 
L 293.860116 234.670452 
L 294.097662 237.440316 
L 295.047848 251.562443 
L 295.463554 253.584168 
L 295.760487 255.369523 
L 296.23558 260.253674 
L 296.651286 263.659845 
L 296.948219 264.43507 
L 297.423312 264.715906 
L 297.601472 264.681881 
L 297.779632 264.242905 
L 297.957792 263.076344 
L 298.195338 259.983184 
L 298.611044 250.522825 
L 299.264297 235.953832 
L 299.56123 233.565302 
L 300.09571 230.901734 
L 300.511416 228.325064 
L 300.570802 228.326704 
L 300.689576 228.821107 
L 300.867735 230.864976 
L 301.283442 239.715036 
L 301.936694 252.262797 
L 302.471174 263.645599 
L 302.946267 272.772258 
L 303.124427 273.730995 
L 303.183813 273.667598 
L 303.302586 272.999072 
L 303.540133 269.950315 
L 304.193386 260.896647 
L 304.371545 260.383805 
L 304.490319 260.509105 
L 304.727865 261.392728 
L 305.796824 266.664347 
L 306.271917 270.025017 
L 306.39069 270.122437 
L 306.509463 269.653881 
L 306.687623 267.759279 
L 307.043943 260.398393 
L 307.578422 249.714803 
L 307.756582 248.613684 
L 307.815969 248.587764 
L 307.934742 249.011566 
L 308.172288 251.426465 
L 308.706768 260.528958 
L 309.775727 278.499811 
L 310.132047 281.176847 
L 310.369593 281.725394 
L 311.260392 282.566282 
L 311.438552 282.287338 
L 311.676098 281.36054 
L 312.151191 278.271359 
L 312.745057 274.716228 
L 313.101377 273.873858 
L 313.39831 273.246809 
L 313.635856 272.094343 
L 314.467269 266.958474 
L 314.586042 267.149606 
L 314.823589 268.373366 
L 316.961507 284.357892 
L 317.614759 292.05781 
L 317.792919 292.412102 
L 317.911692 292.017547 
L 318.149239 289.985496 
L 318.921265 282.22549 
L 319.515131 278.492522 
L 319.930837 273.245539 
L 320.465317 267.069431 
L 320.702863 266.171313 
L 320.821636 266.207196 
L 320.999796 266.710091 
L 321.415502 268.133589 
L 321.534276 268.083116 
L 321.712435 267.318327 
L 322.009368 264.262431 
L 322.543848 258.42472 
L 322.603235 258.307999 
L 322.662621 258.372271 
L 322.781394 259.086308 
L 323.018941 262.892948 
L 323.434647 274.888138 
L 323.969127 289.124897 
L 324.26606 292.133416 
L 324.325446 292.172027 
L 324.444219 291.657503 
L 324.622379 289.456425 
L 324.978699 281.365853 
L 325.453792 271.992246 
L 325.631952 271.262158 
L 325.750725 271.702623 
L 325.988271 274.141037 
L 326.582137 280.91755 
L 326.938457 282.455402 
L 327.41355 283.918357 
L 328.244962 287.664942 
L 328.304349 287.628297 
L 328.482509 287.053862 
L 328.779442 284.808615 
L 329.313921 280.638315 
L 329.492081 280.226344 
L 329.610854 280.279181 
L 329.789014 280.754948 
L 330.857973 284.612016 
L 331.214293 285.267453 
L 331.867546 287.116443 
L 331.926932 287.056678 
L 332.105092 286.421608 
L 332.402025 284.093561 
L 332.877118 280.505426 
L 333.055278 280.273255 
L 333.174051 280.556257 
L 333.411597 282.055932 
L 333.827304 286.707831 
L 334.658716 296.493188 
L 334.836876 296.828715 
L 334.955649 296.432657 
L 335.193196 294.269012 
L 336.380928 280.162367 
L 336.856021 277.484609 
L 337.034181 277.298269 
L 337.152954 277.554939 
L 337.3905 278.937005 
L 338.815779 290.082695 
L 338.934552 290.019153 
L 339.112712 289.010257 
L 339.350258 285.791833 
L 340.241058 270.74476 
L 340.300444 270.801379 
L 340.419217 271.537285 
L 340.656764 275.210099 
L 341.666336 294.495459 
L 341.844496 295.038042 
L 341.963269 294.960713 
L 342.200816 294.161397 
L 342.794682 291.945953 
L 343.032228 291.772565 
L 343.269775 291.95583 
L 343.804254 292.503595 
L 344.041801 292.406747 
L 344.338734 291.880631 
L 345.288919 289.732476 
L 345.645239 289.116708 
L 346.060945 287.774724 
L 346.476652 286.707463 
L 346.714198 286.635309 
L 347.129904 286.732295 
L 347.308064 286.410315 
L 347.545611 285.391701 
L 348.25825 281.638266 
L 348.377023 281.694266 
L 348.555183 282.34169 
L 348.970889 285.386515 
L 349.267822 287.007154 
L 349.445982 287.178128 
L 349.624142 286.735517 
L 350.514941 283.23622 
L 350.871261 283.081181 
L 351.168194 282.863923 
L 351.76206 282.319919 
L 351.94022 282.478434 
L 352.177766 283.095057 
L 353.068565 286.041761 
L 353.306112 286.016398 
L 353.543658 286.001836 
L 353.721818 286.290823 
L 353.959364 287.299883 
L 354.850163 292.313252 
L 354.968937 292.26646 
L 355.147097 291.775667 
L 355.562803 289.51099 
L 356.037896 287.306371 
L 356.453602 286.399406 
L 356.691148 286.275277 
L 356.869308 286.546687 
L 357.106855 287.655804 
L 357.463174 290.90749 
L 358.05704 296.422328 
L 358.353973 297.555333 
L 358.532133 297.63522 
L 358.710293 297.236204 
L 358.94784 295.892975 
L 359.363546 291.754764 
L 359.838639 287.636886 
L 360.076185 287.099274 
L 360.194958 287.258676 
L 360.432505 288.303437 
L 360.848211 291.632978 
L 361.442077 296.19345 
L 361.798397 297.485335 
L 362.035943 297.801248 
L 362.214103 297.771599 
L 362.392263 297.487607 
L 362.689196 296.443644 
L 363.520608 293.022783 
L 363.995701 291.753437 
L 364.292634 290.010243 
L 364.767727 285.364247 
L 365.59914 277.21014 
L 365.896073 275.941976 
L 366.014846 275.843779 
L 366.133619 276.00369 
L 366.311779 276.72895 
L 366.608712 279.098292 
L 367.202578 286.318473 
L 367.796444 292.443504 
L 368.093377 293.593394 
L 368.212151 293.590831 
L 368.39031 293.080238 
L 368.627857 291.514123 
L 369.043563 286.915673 
L 369.756202 275.989196 
L 370.290682 269.090877 
L 370.528228 268.199668 
L 370.647002 268.429499 
L 370.706388 268.721214 
L 370.706388 268.721214 
" style="fill:none;stroke:#ff7f0e;stroke-linecap:square;stroke-width:1.5;"/>
   </g>
   <g id="patch_103">
    <path d="M 57.6 307.584 
L 57.6 41.472 
" style="fill:none;stroke:#000000;stroke-linecap:square;stroke-linejoin:miter;stroke-width:0.8;"/>
   </g>
   <g id="patch_104">
    <path d="M 414.72 307.584 
L 414.72 41.472 
" style="fill:none;stroke:#000000;stroke-linecap:square;stroke-linejoin:miter;stroke-width:0.8;"/>
   </g>
   <g id="patch_105">
    <path d="M 57.6 307.584 
L 414.72 307.584 
" style="fill:none;stroke:#000000;stroke-linecap:square;stroke-linejoin:miter;stroke-width:0.8;"/>
   </g>
   <g id="patch_106">
    <path d="M 57.6 41.472 
L 414.72 41.472 
" style="fill:none;stroke:#000000;stroke-linecap:square;stroke-linejoin:miter;stroke-width:0.8;"/>
   </g>
  </g>
 </g>
 <defs>
  <clipPath id="pd102a2b656">
   <rect height="266.112" width="357.12" x="57.6" y="41.472"/>
  </clipPath>
 </defs>
</svg>
