<?xml version="1.0" encoding="utf-8" standalone="no"?>
<!DOCTYPE svg PUBLIC "-//W3C//DTD SVG 1.1//EN"
  "http://www.w3.org/Graphics/SVG/1.1/DTD/svg11.dtd">
<!-- Created with matplotlib (https://matplotlib.org/) -->
<svg height="345.6pt" version="1.1" viewBox="0 0 460.8 345.6" width="460.8pt" xmlns="http://www.w3.org/2000/svg" xmlns:xlink="http://www.w3.org/1999/xlink">
 <defs>
  <style type="text/css">
*{stroke-linecap:butt;stroke-linejoin:round;}
  </style>
 </defs>
 <g id="figure_1">
  <g id="patch_1">
   <path d="M 0 345.6 
L 460.8 345.6 
L 460.8 0 
L 0 0 
z
" style="fill:#ffffff;"/>
  </g>
  <g id="axes_1">
   <g id="patch_2">
    <path d="M 57.6 307.584 
L 414.72 307.584 
L 414.72 41.472 
L 57.6 41.472 
z
" style="fill:#ffffff;"/>
   </g>
   <g id="patch_3">
    <path clip-path="url(#pd5e114c2fd)" d="M 100.118498 307.584 
L 102.839421 307.584 
L 102.839421 301.992356 
L 100.118498 301.992356 
z
" style="fill:#1f77b4;"/>
   </g>
   <g id="patch_4">
    <path clip-path="url(#pd5e114c2fd)" d="M 102.839421 307.584 
L 105.560344 307.584 
L 105.560344 301.68171 
L 102.839421 301.68171 
z
" style="fill:#1f77b4;"/>
   </g>
   <g id="patch_5">
    <path clip-path="url(#pd5e114c2fd)" d="M 105.560344 307.584 
L 108.281259 307.584 
L 108.281259 298.264568 
L 105.560344 298.264568 
z
" style="fill:#1f77b4;"/>
   </g>
   <g id="patch_6">
    <path clip-path="url(#pd5e114c2fd)" d="M 108.281259 307.584 
L 111.002182 307.584 
L 111.002182 299.196535 
L 108.281259 299.196535 
z
" style="fill:#1f77b4;"/>
   </g>
   <g id="patch_7">
    <path clip-path="url(#pd5e114c2fd)" d="M 111.002174 307.584 
L 113.723089 307.584 
L 113.723089 292.983556 
L 111.002174 292.983556 
z
" style="fill:#1f77b4;"/>
   </g>
   <g id="patch_8">
    <path clip-path="url(#pd5e114c2fd)" d="M 113.723097 307.584 
L 116.44402 307.584 
L 116.44402 285.838719 
L 113.723097 285.838719 
z
" style="fill:#1f77b4;"/>
   </g>
   <g id="patch_9">
    <path clip-path="url(#pd5e114c2fd)" d="M 116.44402 307.584 
L 119.164942 307.584 
L 119.164942 290.187776 
L 116.44402 290.187776 
z
" style="fill:#1f77b4;"/>
   </g>
   <g id="patch_10">
    <path clip-path="url(#pd5e114c2fd)" d="M 119.164942 307.584 
L 121.885857 307.584 
L 121.885857 289.877078 
L 119.164942 289.877078 
z
" style="fill:#1f77b4;"/>
   </g>
   <g id="patch_11">
    <path clip-path="url(#pd5e114c2fd)" d="M 121.885857 307.584 
L 124.60678 307.584 
L 124.60678 286.460013 
L 121.885857 286.460013 
z
" style="fill:#1f77b4;"/>
   </g>
   <g id="patch_12">
    <path clip-path="url(#pd5e114c2fd)" d="M 124.60678 307.584 
L 127.327703 307.584 
L 127.327703 283.664191 
L 124.60678 283.664191 
z
" style="fill:#1f77b4;"/>
   </g>
   <g id="patch_13">
    <path clip-path="url(#pd5e114c2fd)" d="M 127.327695 307.584 
L 130.04861 307.584 
L 130.04861 284.285419 
L 127.327695 284.285419 
z
" style="fill:#1f77b4;"/>
   </g>
   <g id="patch_14">
    <path clip-path="url(#pd5e114c2fd)" d="M 130.048618 307.584 
L 132.769541 307.584 
L 132.769541 276.519314 
L 130.048618 276.519314 
z
" style="fill:#1f77b4;"/>
   </g>
   <g id="patch_15">
    <path clip-path="url(#pd5e114c2fd)" d="M 132.769541 307.584 
L 135.490463 307.584 
L 135.490463 278.383195 
L 132.769541 278.383195 
z
" style="fill:#1f77b4;"/>
   </g>
   <g id="patch_16">
    <path clip-path="url(#pd5e114c2fd)" d="M 135.490463 307.584 
L 138.211378 307.584 
L 138.211378 285.52801 
L 135.490463 285.52801 
z
" style="fill:#1f77b4;"/>
   </g>
   <g id="patch_17">
    <path clip-path="url(#pd5e114c2fd)" d="M 138.211378 307.584 
L 140.932301 307.584 
L 140.932301 275.89802 
L 138.211378 275.89802 
z
" style="fill:#1f77b4;"/>
   </g>
   <g id="patch_18">
    <path clip-path="url(#pd5e114c2fd)" d="M 140.932301 307.584 
L 143.653224 307.584 
L 143.653224 284.596132 
L 140.932301 284.596132 
z
" style="fill:#1f77b4;"/>
   </g>
   <g id="patch_19">
    <path clip-path="url(#pd5e114c2fd)" d="M 143.653216 307.584 
L 146.374131 307.584 
L 146.374131 279.315055 
L 143.653216 279.315055 
z
" style="fill:#1f77b4;"/>
   </g>
   <g id="patch_20">
    <path clip-path="url(#pd5e114c2fd)" d="M 146.374139 307.584 
L 149.095062 307.584 
L 149.095062 286.149366 
L 146.374139 286.149366 
z
" style="fill:#1f77b4;"/>
   </g>
   <g id="patch_21">
    <path clip-path="url(#pd5e114c2fd)" d="M 149.095062 307.584 
L 151.815985 307.584 
L 151.815985 282.110957 
L 149.095062 282.110957 
z
" style="fill:#1f77b4;"/>
   </g>
   <g id="patch_22">
    <path clip-path="url(#pd5e114c2fd)" d="M 151.815985 307.584 
L 154.5369 307.584 
L 154.5369 284.285419 
L 151.815985 284.285419 
z
" style="fill:#1f77b4;"/>
   </g>
   <g id="patch_23">
    <path clip-path="url(#pd5e114c2fd)" d="M 154.5369 307.584 
L 157.257822 307.584 
L 157.257822 282.732251 
L 154.5369 282.732251 
z
" style="fill:#1f77b4;"/>
   </g>
   <g id="patch_24">
    <path clip-path="url(#pd5e114c2fd)" d="M 157.257822 307.584 
L 159.978745 307.584 
L 159.978745 283.974838 
L 157.257822 283.974838 
z
" style="fill:#1f77b4;"/>
   </g>
   <g id="patch_25">
    <path clip-path="url(#pd5e114c2fd)" d="M 159.978737 307.584 
L 162.699652 307.584 
L 162.699652 285.838658 
L 159.978737 285.838658 
z
" style="fill:#1f77b4;"/>
   </g>
   <g id="patch_26">
    <path clip-path="url(#pd5e114c2fd)" d="M 162.69966 307.584 
L 165.420583 307.584 
L 165.420583 282.732251 
L 162.69966 282.732251 
z
" style="fill:#1f77b4;"/>
   </g>
   <g id="patch_27">
    <path clip-path="url(#pd5e114c2fd)" d="M 165.420583 307.584 
L 168.141506 307.584 
L 168.141506 278.383195 
L 165.420583 278.383195 
z
" style="fill:#1f77b4;"/>
   </g>
   <g id="patch_28">
    <path clip-path="url(#pd5e114c2fd)" d="M 168.141506 307.584 
L 170.862421 307.584 
L 170.862421 280.868294 
L 168.141506 280.868294 
z
" style="fill:#1f77b4;"/>
   </g>
   <g id="patch_29">
    <path clip-path="url(#pd5e114c2fd)" d="M 170.862421 307.584 
L 173.583344 307.584 
L 173.583344 279.004488 
L 170.862421 279.004488 
z
" style="fill:#1f77b4;"/>
   </g>
   <g id="patch_30">
    <path clip-path="url(#pd5e114c2fd)" d="M 173.583344 307.584 
L 176.304262 307.584 
L 176.304262 275.897975 
L 173.583344 275.897975 
z
" style="fill:#1f77b4;"/>
   </g>
   <g id="patch_31">
    <path clip-path="url(#pd5e114c2fd)" d="M 176.304259 307.584 
L 179.025178 307.584 
L 179.025178 279.625742 
L 176.304259 279.625742 
z
" style="fill:#1f77b4;"/>
   </g>
   <g id="patch_32">
    <path clip-path="url(#pd5e114c2fd)" d="M 179.025181 307.584 
L 181.746104 307.584 
L 181.746104 272.170257 
L 179.025181 272.170257 
z
" style="fill:#1f77b4;"/>
   </g>
   <g id="patch_33">
    <path clip-path="url(#pd5e114c2fd)" d="M 181.746104 307.584 
L 184.467023 307.584 
L 184.467023 276.208622 
L 181.746104 276.208622 
z
" style="fill:#1f77b4;"/>
   </g>
   <g id="patch_34">
    <path clip-path="url(#pd5e114c2fd)" d="M 184.467019 307.584 
L 187.187938 307.584 
L 187.187938 271.548912 
L 184.467019 271.548912 
z
" style="fill:#1f77b4;"/>
   </g>
   <g id="patch_35">
    <path clip-path="url(#pd5e114c2fd)" d="M 187.187942 307.584 
L 189.908865 307.584 
L 189.908865 264.093439 
L 187.187942 264.093439 
z
" style="fill:#1f77b4;"/>
   </g>
   <g id="patch_36">
    <path clip-path="url(#pd5e114c2fd)" d="M 189.908865 307.584 
L 192.629784 307.584 
L 192.629784 266.578556 
L 189.908865 266.578556 
z
" style="fill:#1f77b4;"/>
   </g>
   <g id="patch_37">
    <path clip-path="url(#pd5e114c2fd)" d="M 192.62978 307.584 
L 195.350699 307.584 
L 195.350699 267.19985 
L 192.62978 267.19985 
z
" style="fill:#1f77b4;"/>
   </g>
   <g id="patch_38">
    <path clip-path="url(#pd5e114c2fd)" d="M 195.350703 307.584 
L 198.071625 307.584 
L 198.071625 267.510554 
L 195.350703 267.510554 
z
" style="fill:#1f77b4;"/>
   </g>
   <g id="patch_39">
    <path clip-path="url(#pd5e114c2fd)" d="M 198.071625 307.584 
L 200.792544 307.584 
L 200.792544 266.267908 
L 198.071625 266.267908 
z
" style="fill:#1f77b4;"/>
   </g>
   <g id="patch_40">
    <path clip-path="url(#pd5e114c2fd)" d="M 200.79254 307.584 
L 203.513459 307.584 
L 203.513459 266.267908 
L 200.79254 266.267908 
z
" style="fill:#1f77b4;"/>
   </g>
   <g id="patch_41">
    <path clip-path="url(#pd5e114c2fd)" d="M 203.513463 307.584 
L 206.234384 307.584 
L 206.234384 253.842054 
L 203.513463 253.842054 
z
" style="fill:#1f77b4;"/>
   </g>
   <g id="patch_42">
    <path clip-path="url(#pd5e114c2fd)" d="M 206.234382 307.584 
L 208.955303 307.584 
L 208.955303 250.114289 
L 206.234382 250.114289 
z
" style="fill:#1f77b4;"/>
   </g>
   <g id="patch_43">
    <path clip-path="url(#pd5e114c2fd)" d="M 208.955305 307.584 
L 211.676224 307.584 
L 211.676224 245.765186 
L 208.955305 245.765186 
z
" style="fill:#1f77b4;"/>
   </g>
   <g id="patch_44">
    <path clip-path="url(#pd5e114c2fd)" d="M 211.676224 307.584 
L 214.397145 307.584 
L 214.397145 239.552288 
L 211.676224 239.552288 
z
" style="fill:#1f77b4;"/>
   </g>
   <g id="patch_45">
    <path clip-path="url(#pd5e114c2fd)" d="M 214.397143 307.584 
L 217.118063 307.584 
L 217.118063 235.203229 
L 214.397143 235.203229 
z
" style="fill:#1f77b4;"/>
   </g>
   <g id="patch_46">
    <path clip-path="url(#pd5e114c2fd)" d="M 217.118065 307.584 
L 219.838984 307.584 
L 219.838984 229.300879 
L 217.118065 229.300879 
z
" style="fill:#1f77b4;"/>
   </g>
   <g id="patch_47">
    <path clip-path="url(#pd5e114c2fd)" d="M 219.838984 307.584 
L 222.559905 307.584 
L 222.559905 216.875051 
L 219.838984 216.875051 
z
" style="fill:#1f77b4;"/>
   </g>
   <g id="patch_48">
    <path clip-path="url(#pd5e114c2fd)" d="M 222.559905 307.584 
L 225.280825 307.584 
L 225.280825 228.679612 
L 222.559905 228.679612 
z
" style="fill:#1f77b4;"/>
   </g>
   <g id="patch_49">
    <path clip-path="url(#pd5e114c2fd)" d="M 225.280826 307.584 
L 228.001746 307.584 
L 228.001746 210.04078 
L 225.280826 210.04078 
z
" style="fill:#1f77b4;"/>
   </g>
   <g id="patch_50">
    <path clip-path="url(#pd5e114c2fd)" d="M 228.001745 307.584 
L 230.722665 307.584 
L 230.722665 205.070444 
L 228.001745 205.070444 
z
" style="fill:#1f77b4;"/>
   </g>
   <g id="patch_51">
    <path clip-path="url(#pd5e114c2fd)" d="M 230.722665 307.584 
L 233.443585 307.584 
L 233.443585 197.92555 
L 230.722665 197.92555 
z
" style="fill:#1f77b4;"/>
   </g>
   <g id="patch_52">
    <path clip-path="url(#pd5e114c2fd)" d="M 233.443585 307.584 
L 236.164505 307.584 
L 236.164505 203.827846 
L 233.443585 203.827846 
z
" style="fill:#1f77b4;"/>
   </g>
   <g id="patch_53">
    <path clip-path="url(#pd5e114c2fd)" d="M 236.164505 307.584 
L 238.885426 307.584 
L 238.885426 122.12764 
L 236.164505 122.12764 
z
" style="fill:#1f77b4;"/>
   </g>
   <g id="patch_54">
    <path clip-path="url(#pd5e114c2fd)" d="M 238.885426 307.584 
L 241.606346 307.584 
L 241.606346 206.934317 
L 238.885426 206.934317 
z
" style="fill:#1f77b4;"/>
   </g>
   <g id="patch_55">
    <path clip-path="url(#pd5e114c2fd)" d="M 241.606345 307.584 
L 244.327266 307.584 
L 244.327266 228.679626 
L 241.606345 228.679626 
z
" style="fill:#1f77b4;"/>
   </g>
   <g id="patch_56">
    <path clip-path="url(#pd5e114c2fd)" d="M 244.327266 307.584 
L 247.048186 307.584 
L 247.048186 215.321783 
L 244.327266 215.321783 
z
" style="fill:#1f77b4;"/>
   </g>
   <g id="patch_57">
    <path clip-path="url(#pd5e114c2fd)" d="M 247.048187 307.584 
L 249.769107 307.584 
L 249.769107 233.960615 
L 247.048187 233.960615 
z
" style="fill:#1f77b4;"/>
   </g>
   <g id="patch_58">
    <path clip-path="url(#pd5e114c2fd)" d="M 249.769106 307.584 
L 252.490027 307.584 
L 252.490027 218.738934 
L 249.769106 218.738934 
z
" style="fill:#1f77b4;"/>
   </g>
   <g id="patch_59">
    <path clip-path="url(#pd5e114c2fd)" d="M 252.490027 307.584 
L 255.210945 307.584 
L 255.210945 226.505053 
L 252.490027 226.505053 
z
" style="fill:#1f77b4;"/>
   </g>
   <g id="patch_60">
    <path clip-path="url(#pd5e114c2fd)" d="M 255.210945 307.584 
L 257.931866 307.584 
L 257.931866 243.901347 
L 255.210945 243.901347 
z
" style="fill:#1f77b4;"/>
   </g>
   <g id="patch_61">
    <path clip-path="url(#pd5e114c2fd)" d="M 257.931864 307.584 
L 260.652785 307.584 
L 260.652785 228.990287 
L 257.931864 228.990287 
z
" style="fill:#1f77b4;"/>
   </g>
   <g id="patch_62">
    <path clip-path="url(#pd5e114c2fd)" d="M 260.652787 307.584 
L 263.373706 307.584 
L 263.373706 231.164763 
L 260.652787 231.164763 
z
" style="fill:#1f77b4;"/>
   </g>
   <g id="patch_63">
    <path clip-path="url(#pd5e114c2fd)" d="M 263.373706 307.584 
L 266.094627 307.584 
L 266.094627 230.85417 
L 263.373706 230.85417 
z
" style="fill:#1f77b4;"/>
   </g>
   <g id="patch_64">
    <path clip-path="url(#pd5e114c2fd)" d="M 266.094625 307.584 
L 268.815548 307.584 
L 268.815548 243.280053 
L 266.094625 243.280053 
z
" style="fill:#1f77b4;"/>
   </g>
   <g id="patch_65">
    <path clip-path="url(#pd5e114c2fd)" d="M 268.815548 307.584 
L 271.536467 307.584 
L 271.536467 243.590655 
L 268.815548 243.590655 
z
" style="fill:#1f77b4;"/>
   </g>
   <g id="patch_66">
    <path clip-path="url(#pd5e114c2fd)" d="M 271.536463 307.584 
L 274.257382 307.584 
L 274.257382 241.105476 
L 271.536463 241.105476 
z
" style="fill:#1f77b4;"/>
   </g>
   <g id="patch_67">
    <path clip-path="url(#pd5e114c2fd)" d="M 274.257386 307.584 
L 276.978308 307.584 
L 276.978308 251.667564 
L 274.257386 251.667564 
z
" style="fill:#1f77b4;"/>
   </g>
   <g id="patch_68">
    <path clip-path="url(#pd5e114c2fd)" d="M 276.978308 307.584 
L 279.699227 307.584 
L 279.699227 246.697128 
L 276.978308 246.697128 
z
" style="fill:#1f77b4;"/>
   </g>
   <g id="patch_69">
    <path clip-path="url(#pd5e114c2fd)" d="M 279.699223 307.584 
L 282.420142 307.584 
L 282.420142 254.152663 
L 279.699223 254.152663 
z
" style="fill:#1f77b4;"/>
   </g>
   <g id="patch_70">
    <path clip-path="url(#pd5e114c2fd)" d="M 282.420146 307.584 
L 285.141069 307.584 
L 285.141069 254.152739 
L 282.420146 254.152739 
z
" style="fill:#1f77b4;"/>
   </g>
   <g id="patch_71">
    <path clip-path="url(#pd5e114c2fd)" d="M 285.141069 307.584 
L 287.861988 307.584 
L 287.861988 255.395252 
L 285.141069 255.395252 
z
" style="fill:#1f77b4;"/>
   </g>
   <g id="patch_72">
    <path clip-path="url(#pd5e114c2fd)" d="M 287.861984 307.584 
L 290.582903 307.584 
L 290.582903 256.016547 
L 287.861984 256.016547 
z
" style="fill:#1f77b4;"/>
   </g>
   <g id="patch_73">
    <path clip-path="url(#pd5e114c2fd)" d="M 290.582907 307.584 
L 293.303829 307.584 
L 293.303829 261.297617 
L 290.582907 261.297617 
z
" style="fill:#1f77b4;"/>
   </g>
   <g id="patch_74">
    <path clip-path="url(#pd5e114c2fd)" d="M 293.303829 307.584 
L 296.024748 307.584 
L 296.024748 258.191078 
L 293.303829 258.191078 
z
" style="fill:#1f77b4;"/>
   </g>
   <g id="patch_75">
    <path clip-path="url(#pd5e114c2fd)" d="M 296.024745 307.584 
L 298.745663 307.584 
L 298.745663 258.501726 
L 296.024745 258.501726 
z
" style="fill:#1f77b4;"/>
   </g>
   <g id="patch_76">
    <path clip-path="url(#pd5e114c2fd)" d="M 298.745667 307.584 
L 301.46659 307.584 
L 301.46659 257.880502 
L 298.745667 257.880502 
z
" style="fill:#1f77b4;"/>
   </g>
   <g id="patch_77">
    <path clip-path="url(#pd5e114c2fd)" d="M 301.466582 307.584 
L 304.187497 307.584 
L 304.187497 261.918781 
L 301.466582 261.918781 
z
" style="fill:#1f77b4;"/>
   </g>
   <g id="patch_78">
    <path clip-path="url(#pd5e114c2fd)" d="M 304.187505 307.584 
L 306.908428 307.584 
L 306.908428 270.617023 
L 304.187505 270.617023 
z
" style="fill:#1f77b4;"/>
   </g>
   <g id="patch_79">
    <path clip-path="url(#pd5e114c2fd)" d="M 306.908428 307.584 
L 309.629351 307.584 
L 309.629351 265.02538 
L 306.908428 265.02538 
z
" style="fill:#1f77b4;"/>
   </g>
   <g id="patch_80">
    <path clip-path="url(#pd5e114c2fd)" d="M 309.629351 307.584 
L 312.350266 307.584 
L 312.350266 272.170157 
L 309.629351 272.170157 
z
" style="fill:#1f77b4;"/>
   </g>
   <g id="patch_81">
    <path clip-path="url(#pd5e114c2fd)" d="M 312.350266 307.584 
L 315.071188 307.584 
L 315.071188 265.95732 
L 312.350266 265.95732 
z
" style="fill:#1f77b4;"/>
   </g>
   <g id="patch_82">
    <path clip-path="url(#pd5e114c2fd)" d="M 315.071188 307.584 
L 317.792111 307.584 
L 317.792111 266.578614 
L 315.071188 266.578614 
z
" style="fill:#1f77b4;"/>
   </g>
   <g id="patch_83">
    <path clip-path="url(#pd5e114c2fd)" d="M 317.792103 307.584 
L 320.513019 307.584 
L 320.513019 269.374327 
L 317.792103 269.374327 
z
" style="fill:#1f77b4;"/>
   </g>
   <g id="patch_84">
    <path clip-path="url(#pd5e114c2fd)" d="M 320.513026 307.584 
L 323.233949 307.584 
L 323.233949 270.306376 
L 320.513026 270.306376 
z
" style="fill:#1f77b4;"/>
   </g>
   <g id="patch_85">
    <path clip-path="url(#pd5e114c2fd)" d="M 323.233949 307.584 
L 325.954872 307.584 
L 325.954872 265.336026 
L 323.233949 265.336026 
z
" style="fill:#1f77b4;"/>
   </g>
   <g id="patch_86">
    <path clip-path="url(#pd5e114c2fd)" d="M 325.954872 307.584 
L 328.675787 307.584 
L 328.675787 268.753031 
L 325.954872 268.753031 
z
" style="fill:#1f77b4;"/>
   </g>
   <g id="patch_87">
    <path clip-path="url(#pd5e114c2fd)" d="M 328.675787 307.584 
L 331.39671 307.584 
L 331.39671 268.442495 
L 328.675787 268.442495 
z
" style="fill:#1f77b4;"/>
   </g>
   <g id="patch_88">
    <path clip-path="url(#pd5e114c2fd)" d="M 331.39671 307.584 
L 334.117632 307.584 
L 334.117632 269.685083 
L 331.39671 269.685083 
z
" style="fill:#1f77b4;"/>
   </g>
   <g id="patch_89">
    <path clip-path="url(#pd5e114c2fd)" d="M 334.117625 307.584 
L 336.83854 307.584 
L 336.83854 274.655339 
L 334.117625 274.655339 
z
" style="fill:#1f77b4;"/>
   </g>
   <g id="patch_90">
    <path clip-path="url(#pd5e114c2fd)" d="M 336.838547 307.584 
L 339.55947 307.584 
L 339.55947 275.276726 
L 336.838547 275.276726 
z
" style="fill:#1f77b4;"/>
   </g>
   <g id="patch_91">
    <path clip-path="url(#pd5e114c2fd)" d="M 339.55947 307.584 
L 342.280393 307.584 
L 342.280393 274.655432 
L 339.55947 274.655432 
z
" style="fill:#1f77b4;"/>
   </g>
   <g id="patch_92">
    <path clip-path="url(#pd5e114c2fd)" d="M 342.280393 307.584 
L 345.001308 307.584 
L 345.001308 272.480804 
L 342.280393 272.480804 
z
" style="fill:#1f77b4;"/>
   </g>
   <g id="patch_93">
    <path clip-path="url(#pd5e114c2fd)" d="M 345.001308 307.584 
L 347.722231 307.584 
L 347.722231 267.510554 
L 345.001308 267.510554 
z
" style="fill:#1f77b4;"/>
   </g>
   <g id="patch_94">
    <path clip-path="url(#pd5e114c2fd)" d="M 347.722231 307.584 
L 350.443154 307.584 
L 350.443154 264.714733 
L 347.722231 264.714733 
z
" style="fill:#1f77b4;"/>
   </g>
   <g id="patch_95">
    <path clip-path="url(#pd5e114c2fd)" d="M 350.443146 307.584 
L 353.164061 307.584 
L 353.164061 264.093315 
L 350.443146 264.093315 
z
" style="fill:#1f77b4;"/>
   </g>
   <g id="patch_96">
    <path clip-path="url(#pd5e114c2fd)" d="M 353.164069 307.584 
L 355.884991 307.584 
L 355.884991 267.821201 
L 353.164069 267.821201 
z
" style="fill:#1f77b4;"/>
   </g>
   <g id="patch_97">
    <path clip-path="url(#pd5e114c2fd)" d="M 355.884991 307.584 
L 358.605914 307.584 
L 358.605914 271.238317 
L 355.884991 271.238317 
z
" style="fill:#1f77b4;"/>
   </g>
   <g id="patch_98">
    <path clip-path="url(#pd5e114c2fd)" d="M 358.605914 307.584 
L 361.326829 307.584 
L 361.326829 269.063679 
L 358.605914 269.063679 
z
" style="fill:#1f77b4;"/>
   </g>
   <g id="patch_99">
    <path clip-path="url(#pd5e114c2fd)" d="M 361.326829 307.584 
L 364.047752 307.584 
L 364.047752 265.646673 
L 361.326829 265.646673 
z
" style="fill:#1f77b4;"/>
   </g>
   <g id="patch_100">
    <path clip-path="url(#pd5e114c2fd)" d="M 364.047744 307.584 
L 366.768651 307.584 
L 366.768651 279.93635 
L 364.047744 279.93635 
z
" style="fill:#1f77b4;"/>
   </g>
   <g id="patch_101">
    <path clip-path="url(#pd5e114c2fd)" d="M 366.768667 307.584 
L 369.48959 307.584 
L 369.48959 279.625782 
L 366.768667 279.625782 
z
" style="fill:#1f77b4;"/>
   </g>
   <g id="patch_102">
    <path clip-path="url(#pd5e114c2fd)" d="M 369.48959 307.584 
L 372.210512 307.584 
L 372.210512 278.383195 
L 369.48959 278.383195 
z
" style="fill:#1f77b4;"/>
   </g>
   <g id="matplotlib.axis_1">
    <g id="xtick_1">
     <g id="line2d_1">
      <defs>
       <path d="M 0 0 
L 0 3.5 
" id="m59f183e201" style="stroke:#000000;stroke-width:0.8;"/>
      </defs>
      <g>
       <use style="stroke:#000000;stroke-width:0.8;" x="106.299264" xlink:href="#m59f183e201" y="307.584"/>
      </g>
     </g>
     <g id="text_1">
      <!-- −2 -->
      <defs>
       <path d="M 10.59375 35.5 
L 73.1875 35.5 
L 73.1875 27.203125 
L 10.59375 27.203125 
z
" id="DejaVuSans-8722"/>
       <path d="M 19.1875 8.296875 
L 53.609375 8.296875 
L 53.609375 0 
L 7.328125 0 
L 7.328125 8.296875 
Q 12.9375 14.109375 22.625 23.890625 
Q 32.328125 33.6875 34.8125 36.53125 
Q 39.546875 41.84375 41.421875 45.53125 
Q 43.3125 49.21875 43.3125 52.78125 
Q 43.3125 58.59375 39.234375 62.25 
Q 35.15625 65.921875 28.609375 65.921875 
Q 23.96875 65.921875 18.8125 64.3125 
Q 13.671875 62.703125 7.8125 59.421875 
L 7.8125 69.390625 
Q 13.765625 71.78125 18.9375 73 
Q 24.125 74.21875 28.421875 74.21875 
Q 39.75 74.21875 46.484375 68.546875 
Q 53.21875 62.890625 53.21875 53.421875 
Q 53.21875 48.921875 51.53125 44.890625 
Q 49.859375 40.875 45.40625 35.40625 
Q 44.1875 33.984375 37.640625 27.21875 
Q 31.109375 20.453125 19.1875 8.296875 
z
" id="DejaVuSans-50"/>
      </defs>
      <g transform="translate(93.768405 327.501344)scale(0.17 -0.17)">
       <use xlink:href="#DejaVuSans-8722"/>
       <use x="83.789062" xlink:href="#DejaVuSans-50"/>
      </g>
     </g>
    </g>
    <g id="xtick_2">
     <g id="line2d_2">
      <g>
       <use style="stroke:#000000;stroke-width:0.8;" x="171.232338" xlink:href="#m59f183e201" y="307.584"/>
      </g>
     </g>
     <g id="text_2">
      <!-- −1 -->
      <defs>
       <path d="M 12.40625 8.296875 
L 28.515625 8.296875 
L 28.515625 63.921875 
L 10.984375 60.40625 
L 10.984375 69.390625 
L 28.421875 72.90625 
L 38.28125 72.90625 
L 38.28125 8.296875 
L 54.390625 8.296875 
L 54.390625 0 
L 12.40625 0 
z
" id="DejaVuSans-49"/>
      </defs>
      <g transform="translate(158.701478 327.501344)scale(0.17 -0.17)">
       <use xlink:href="#DejaVuSans-8722"/>
       <use x="83.789062" xlink:href="#DejaVuSans-49"/>
      </g>
     </g>
    </g>
    <g id="xtick_3">
     <g id="line2d_3">
      <g>
       <use style="stroke:#000000;stroke-width:0.8;" x="236.165411" xlink:href="#m59f183e201" y="307.584"/>
      </g>
     </g>
     <g id="text_3">
      <!-- 0 -->
      <defs>
       <path d="M 31.78125 66.40625 
Q 24.171875 66.40625 20.328125 58.90625 
Q 16.5 51.421875 16.5 36.375 
Q 16.5 21.390625 20.328125 13.890625 
Q 24.171875 6.390625 31.78125 6.390625 
Q 39.453125 6.390625 43.28125 13.890625 
Q 47.125 21.390625 47.125 36.375 
Q 47.125 51.421875 43.28125 58.90625 
Q 39.453125 66.40625 31.78125 66.40625 
z
M 31.78125 74.21875 
Q 44.046875 74.21875 50.515625 64.515625 
Q 56.984375 54.828125 56.984375 36.375 
Q 56.984375 17.96875 50.515625 8.265625 
Q 44.046875 -1.421875 31.78125 -1.421875 
Q 19.53125 -1.421875 13.0625 8.265625 
Q 6.59375 17.96875 6.59375 36.375 
Q 6.59375 54.828125 13.0625 64.515625 
Q 19.53125 74.21875 31.78125 74.21875 
z
" id="DejaVuSans-48"/>
      </defs>
      <g transform="translate(230.757286 327.501344)scale(0.17 -0.17)">
       <use xlink:href="#DejaVuSans-48"/>
      </g>
     </g>
    </g>
    <g id="xtick_4">
     <g id="line2d_4">
      <g>
       <use style="stroke:#000000;stroke-width:0.8;" x="301.098485" xlink:href="#m59f183e201" y="307.584"/>
      </g>
     </g>
     <g id="text_4">
      <!-- 1 -->
      <g transform="translate(295.69036 327.501344)scale(0.17 -0.17)">
       <use xlink:href="#DejaVuSans-49"/>
      </g>
     </g>
    </g>
    <g id="xtick_5">
     <g id="line2d_5">
      <g>
       <use style="stroke:#000000;stroke-width:0.8;" x="366.031558" xlink:href="#m59f183e201" y="307.584"/>
      </g>
     </g>
     <g id="text_5">
      <!-- 2 -->
      <g transform="translate(360.623433 327.501344)scale(0.17 -0.17)">
       <use xlink:href="#DejaVuSans-50"/>
      </g>
     </g>
    </g>
    <g id="text_6">
     <!-- Position in Radian -->
     <defs>
      <path d="M 19.671875 64.796875 
L 19.671875 37.40625 
L 32.078125 37.40625 
Q 38.96875 37.40625 42.71875 40.96875 
Q 46.484375 44.53125 46.484375 51.125 
Q 46.484375 57.671875 42.71875 61.234375 
Q 38.96875 64.796875 32.078125 64.796875 
z
M 9.8125 72.90625 
L 32.078125 72.90625 
Q 44.34375 72.90625 50.609375 67.359375 
Q 56.890625 61.8125 56.890625 51.125 
Q 56.890625 40.328125 50.609375 34.8125 
Q 44.34375 29.296875 32.078125 29.296875 
L 19.671875 29.296875 
L 19.671875 0 
L 9.8125 0 
z
" id="DejaVuSans-80"/>
      <path d="M 30.609375 48.390625 
Q 23.390625 48.390625 19.1875 42.75 
Q 14.984375 37.109375 14.984375 27.296875 
Q 14.984375 17.484375 19.15625 11.84375 
Q 23.34375 6.203125 30.609375 6.203125 
Q 37.796875 6.203125 41.984375 11.859375 
Q 46.1875 17.53125 46.1875 27.296875 
Q 46.1875 37.015625 41.984375 42.703125 
Q 37.796875 48.390625 30.609375 48.390625 
z
M 30.609375 56 
Q 42.328125 56 49.015625 48.375 
Q 55.71875 40.765625 55.71875 27.296875 
Q 55.71875 13.875 49.015625 6.21875 
Q 42.328125 -1.421875 30.609375 -1.421875 
Q 18.84375 -1.421875 12.171875 6.21875 
Q 5.515625 13.875 5.515625 27.296875 
Q 5.515625 40.765625 12.171875 48.375 
Q 18.84375 56 30.609375 56 
z
" id="DejaVuSans-111"/>
      <path d="M 44.28125 53.078125 
L 44.28125 44.578125 
Q 40.484375 46.53125 36.375 47.5 
Q 32.28125 48.484375 27.875 48.484375 
Q 21.1875 48.484375 17.84375 46.4375 
Q 14.5 44.390625 14.5 40.28125 
Q 14.5 37.15625 16.890625 35.375 
Q 19.28125 33.59375 26.515625 31.984375 
L 29.59375 31.296875 
Q 39.15625 29.25 43.1875 25.515625 
Q 47.21875 21.78125 47.21875 15.09375 
Q 47.21875 7.46875 41.1875 3.015625 
Q 35.15625 -1.421875 24.609375 -1.421875 
Q 20.21875 -1.421875 15.453125 -0.5625 
Q 10.6875 0.296875 5.421875 2 
L 5.421875 11.28125 
Q 10.40625 8.6875 15.234375 7.390625 
Q 20.0625 6.109375 24.8125 6.109375 
Q 31.15625 6.109375 34.5625 8.28125 
Q 37.984375 10.453125 37.984375 14.40625 
Q 37.984375 18.0625 35.515625 20.015625 
Q 33.0625 21.96875 24.703125 23.78125 
L 21.578125 24.515625 
Q 13.234375 26.265625 9.515625 29.90625 
Q 5.8125 33.546875 5.8125 39.890625 
Q 5.8125 47.609375 11.28125 51.796875 
Q 16.75 56 26.8125 56 
Q 31.78125 56 36.171875 55.265625 
Q 40.578125 54.546875 44.28125 53.078125 
z
" id="DejaVuSans-115"/>
      <path d="M 9.421875 54.6875 
L 18.40625 54.6875 
L 18.40625 0 
L 9.421875 0 
z
M 9.421875 75.984375 
L 18.40625 75.984375 
L 18.40625 64.59375 
L 9.421875 64.59375 
z
" id="DejaVuSans-105"/>
      <path d="M 18.3125 70.21875 
L 18.3125 54.6875 
L 36.8125 54.6875 
L 36.8125 47.703125 
L 18.3125 47.703125 
L 18.3125 18.015625 
Q 18.3125 11.328125 20.140625 9.421875 
Q 21.96875 7.515625 27.59375 7.515625 
L 36.8125 7.515625 
L 36.8125 0 
L 27.59375 0 
Q 17.1875 0 13.234375 3.875 
Q 9.28125 7.765625 9.28125 18.015625 
L 9.28125 47.703125 
L 2.6875 47.703125 
L 2.6875 54.6875 
L 9.28125 54.6875 
L 9.28125 70.21875 
z
" id="DejaVuSans-116"/>
      <path d="M 54.890625 33.015625 
L 54.890625 0 
L 45.90625 0 
L 45.90625 32.71875 
Q 45.90625 40.484375 42.875 44.328125 
Q 39.84375 48.1875 33.796875 48.1875 
Q 26.515625 48.1875 22.3125 43.546875 
Q 18.109375 38.921875 18.109375 30.90625 
L 18.109375 0 
L 9.078125 0 
L 9.078125 54.6875 
L 18.109375 54.6875 
L 18.109375 46.1875 
Q 21.34375 51.125 25.703125 53.5625 
Q 30.078125 56 35.796875 56 
Q 45.21875 56 50.046875 50.171875 
Q 54.890625 44.34375 54.890625 33.015625 
z
" id="DejaVuSans-110"/>
      <path id="DejaVuSans-32"/>
      <path d="M 44.390625 34.1875 
Q 47.5625 33.109375 50.5625 29.59375 
Q 53.5625 26.078125 56.59375 19.921875 
L 66.609375 0 
L 56 0 
L 46.6875 18.703125 
Q 43.0625 26.03125 39.671875 28.421875 
Q 36.28125 30.8125 30.421875 30.8125 
L 19.671875 30.8125 
L 19.671875 0 
L 9.8125 0 
L 9.8125 72.90625 
L 32.078125 72.90625 
Q 44.578125 72.90625 50.734375 67.671875 
Q 56.890625 62.453125 56.890625 51.90625 
Q 56.890625 45.015625 53.6875 40.46875 
Q 50.484375 35.9375 44.390625 34.1875 
z
M 19.671875 64.796875 
L 19.671875 38.921875 
L 32.078125 38.921875 
Q 39.203125 38.921875 42.84375 42.21875 
Q 46.484375 45.515625 46.484375 51.90625 
Q 46.484375 58.296875 42.84375 61.546875 
Q 39.203125 64.796875 32.078125 64.796875 
z
" id="DejaVuSans-82"/>
      <path d="M 34.28125 27.484375 
Q 23.390625 27.484375 19.1875 25 
Q 14.984375 22.515625 14.984375 16.5 
Q 14.984375 11.71875 18.140625 8.90625 
Q 21.296875 6.109375 26.703125 6.109375 
Q 34.1875 6.109375 38.703125 11.40625 
Q 43.21875 16.703125 43.21875 25.484375 
L 43.21875 27.484375 
z
M 52.203125 31.203125 
L 52.203125 0 
L 43.21875 0 
L 43.21875 8.296875 
Q 40.140625 3.328125 35.546875 0.953125 
Q 30.953125 -1.421875 24.3125 -1.421875 
Q 15.921875 -1.421875 10.953125 3.296875 
Q 6 8.015625 6 15.921875 
Q 6 25.140625 12.171875 29.828125 
Q 18.359375 34.515625 30.609375 34.515625 
L 43.21875 34.515625 
L 43.21875 35.40625 
Q 43.21875 41.609375 39.140625 45 
Q 35.0625 48.390625 27.6875 48.390625 
Q 23 48.390625 18.546875 47.265625 
Q 14.109375 46.140625 10.015625 43.890625 
L 10.015625 52.203125 
Q 14.9375 54.109375 19.578125 55.046875 
Q 24.21875 56 28.609375 56 
Q 40.484375 56 46.34375 49.84375 
Q 52.203125 43.703125 52.203125 31.203125 
z
" id="DejaVuSans-97"/>
      <path d="M 45.40625 46.390625 
L 45.40625 75.984375 
L 54.390625 75.984375 
L 54.390625 0 
L 45.40625 0 
L 45.40625 8.203125 
Q 42.578125 3.328125 38.25 0.953125 
Q 33.9375 -1.421875 27.875 -1.421875 
Q 17.96875 -1.421875 11.734375 6.484375 
Q 5.515625 14.40625 5.515625 27.296875 
Q 5.515625 40.1875 11.734375 48.09375 
Q 17.96875 56 27.875 56 
Q 33.9375 56 38.25 53.625 
Q 42.578125 51.265625 45.40625 46.390625 
z
M 14.796875 27.296875 
Q 14.796875 17.390625 18.875 11.75 
Q 22.953125 6.109375 30.078125 6.109375 
Q 37.203125 6.109375 41.296875 11.75 
Q 45.40625 17.390625 45.40625 27.296875 
Q 45.40625 37.203125 41.296875 42.84375 
Q 37.203125 48.484375 30.078125 48.484375 
Q 22.953125 48.484375 18.875 42.84375 
Q 14.796875 37.203125 14.796875 27.296875 
z
" id="DejaVuSans-100"/>
     </defs>
     <g transform="translate(102.024844 357.832125)scale(0.3 -0.3)">
      <use xlink:href="#DejaVuSans-80"/>
      <use x="60.255859" xlink:href="#DejaVuSans-111"/>
      <use x="121.4375" xlink:href="#DejaVuSans-115"/>
      <use x="173.537109" xlink:href="#DejaVuSans-105"/>
      <use x="201.320312" xlink:href="#DejaVuSans-116"/>
      <use x="240.529297" xlink:href="#DejaVuSans-105"/>
      <use x="268.3125" xlink:href="#DejaVuSans-111"/>
      <use x="329.494141" xlink:href="#DejaVuSans-110"/>
      <use x="392.873047" xlink:href="#DejaVuSans-32"/>
      <use x="424.660156" xlink:href="#DejaVuSans-105"/>
      <use x="452.443359" xlink:href="#DejaVuSans-110"/>
      <use x="515.822266" xlink:href="#DejaVuSans-32"/>
      <use x="547.609375" xlink:href="#DejaVuSans-82"/>
      <use x="617.060547" xlink:href="#DejaVuSans-97"/>
      <use x="678.339844" xlink:href="#DejaVuSans-100"/>
      <use x="741.816406" xlink:href="#DejaVuSans-105"/>
      <use x="769.599609" xlink:href="#DejaVuSans-97"/>
      <use x="830.878906" xlink:href="#DejaVuSans-110"/>
     </g>
    </g>
   </g>
   <g id="matplotlib.axis_2">
    <g id="ytick_1">
     <g id="line2d_6">
      <defs>
       <path d="M 0 0 
L -3.5 0 
" id="mdf94ad09f5" style="stroke:#000000;stroke-width:0.8;"/>
      </defs>
      <g>
       <use style="stroke:#000000;stroke-width:0.8;" x="57.6" xlink:href="#mdf94ad09f5" y="307.584"/>
      </g>
     </g>
     <g id="text_7">
      <!-- 0.0 -->
      <defs>
       <path d="M 10.6875 12.40625 
L 21 12.40625 
L 21 0 
L 10.6875 0 
z
" id="DejaVuSans-46"/>
      </defs>
      <g transform="translate(23.564687 314.042672)scale(0.17 -0.17)">
       <use xlink:href="#DejaVuSans-48"/>
       <use x="63.623047" xlink:href="#DejaVuSans-46"/>
       <use x="95.410156" xlink:href="#DejaVuSans-48"/>
      </g>
     </g>
    </g>
    <g id="ytick_2">
     <g id="line2d_7">
      <g>
       <use style="stroke:#000000;stroke-width:0.8;" x="57.6" xlink:href="#mdf94ad09f5" y="268.532431"/>
      </g>
     </g>
     <g id="text_8">
      <!-- 0.2 -->
      <g transform="translate(23.564687 274.991103)scale(0.17 -0.17)">
       <use xlink:href="#DejaVuSans-48"/>
       <use x="63.623047" xlink:href="#DejaVuSans-46"/>
       <use x="95.410156" xlink:href="#DejaVuSans-50"/>
      </g>
     </g>
    </g>
    <g id="ytick_3">
     <g id="line2d_8">
      <g>
       <use style="stroke:#000000;stroke-width:0.8;" x="57.6" xlink:href="#mdf94ad09f5" y="229.480862"/>
      </g>
     </g>
     <g id="text_9">
      <!-- 0.4 -->
      <defs>
       <path d="M 37.796875 64.3125 
L 12.890625 25.390625 
L 37.796875 25.390625 
z
M 35.203125 72.90625 
L 47.609375 72.90625 
L 47.609375 25.390625 
L 58.015625 25.390625 
L 58.015625 17.1875 
L 47.609375 17.1875 
L 47.609375 0 
L 37.796875 0 
L 37.796875 17.1875 
L 4.890625 17.1875 
L 4.890625 26.703125 
z
" id="DejaVuSans-52"/>
      </defs>
      <g transform="translate(23.564687 235.939534)scale(0.17 -0.17)">
       <use xlink:href="#DejaVuSans-48"/>
       <use x="63.623047" xlink:href="#DejaVuSans-46"/>
       <use x="95.410156" xlink:href="#DejaVuSans-52"/>
      </g>
     </g>
    </g>
    <g id="ytick_4">
     <g id="line2d_9">
      <g>
       <use style="stroke:#000000;stroke-width:0.8;" x="57.6" xlink:href="#mdf94ad09f5" y="190.429294"/>
      </g>
     </g>
     <g id="text_10">
      <!-- 0.6 -->
      <defs>
       <path d="M 33.015625 40.375 
Q 26.375 40.375 22.484375 35.828125 
Q 18.609375 31.296875 18.609375 23.390625 
Q 18.609375 15.53125 22.484375 10.953125 
Q 26.375 6.390625 33.015625 6.390625 
Q 39.65625 6.390625 43.53125 10.953125 
Q 47.40625 15.53125 47.40625 23.390625 
Q 47.40625 31.296875 43.53125 35.828125 
Q 39.65625 40.375 33.015625 40.375 
z
M 52.59375 71.296875 
L 52.59375 62.3125 
Q 48.875 64.0625 45.09375 64.984375 
Q 41.3125 65.921875 37.59375 65.921875 
Q 27.828125 65.921875 22.671875 59.328125 
Q 17.53125 52.734375 16.796875 39.40625 
Q 19.671875 43.65625 24.015625 45.921875 
Q 28.375 48.1875 33.59375 48.1875 
Q 44.578125 48.1875 50.953125 41.515625 
Q 57.328125 34.859375 57.328125 23.390625 
Q 57.328125 12.15625 50.6875 5.359375 
Q 44.046875 -1.421875 33.015625 -1.421875 
Q 20.359375 -1.421875 13.671875 8.265625 
Q 6.984375 17.96875 6.984375 36.375 
Q 6.984375 53.65625 15.1875 63.9375 
Q 23.390625 74.21875 37.203125 74.21875 
Q 40.921875 74.21875 44.703125 73.484375 
Q 48.484375 72.75 52.59375 71.296875 
z
" id="DejaVuSans-54"/>
      </defs>
      <g transform="translate(23.564687 196.887966)scale(0.17 -0.17)">
       <use xlink:href="#DejaVuSans-48"/>
       <use x="63.623047" xlink:href="#DejaVuSans-46"/>
       <use x="95.410156" xlink:href="#DejaVuSans-54"/>
      </g>
     </g>
    </g>
    <g id="ytick_5">
     <g id="line2d_10">
      <g>
       <use style="stroke:#000000;stroke-width:0.8;" x="57.6" xlink:href="#mdf94ad09f5" y="151.377725"/>
      </g>
     </g>
     <g id="text_11">
      <!-- 0.8 -->
      <defs>
       <path d="M 31.78125 34.625 
Q 24.75 34.625 20.71875 30.859375 
Q 16.703125 27.09375 16.703125 20.515625 
Q 16.703125 13.921875 20.71875 10.15625 
Q 24.75 6.390625 31.78125 6.390625 
Q 38.8125 6.390625 42.859375 10.171875 
Q 46.921875 13.96875 46.921875 20.515625 
Q 46.921875 27.09375 42.890625 30.859375 
Q 38.875 34.625 31.78125 34.625 
z
M 21.921875 38.8125 
Q 15.578125 40.375 12.03125 44.71875 
Q 8.5 49.078125 8.5 55.328125 
Q 8.5 64.0625 14.71875 69.140625 
Q 20.953125 74.21875 31.78125 74.21875 
Q 42.671875 74.21875 48.875 69.140625 
Q 55.078125 64.0625 55.078125 55.328125 
Q 55.078125 49.078125 51.53125 44.71875 
Q 48 40.375 41.703125 38.8125 
Q 48.828125 37.15625 52.796875 32.3125 
Q 56.78125 27.484375 56.78125 20.515625 
Q 56.78125 9.90625 50.3125 4.234375 
Q 43.84375 -1.421875 31.78125 -1.421875 
Q 19.734375 -1.421875 13.25 4.234375 
Q 6.78125 9.90625 6.78125 20.515625 
Q 6.78125 27.484375 10.78125 32.3125 
Q 14.796875 37.15625 21.921875 38.8125 
z
M 18.3125 54.390625 
Q 18.3125 48.734375 21.84375 45.5625 
Q 25.390625 42.390625 31.78125 42.390625 
Q 38.140625 42.390625 41.71875 45.5625 
Q 45.3125 48.734375 45.3125 54.390625 
Q 45.3125 60.0625 41.71875 63.234375 
Q 38.140625 66.40625 31.78125 66.40625 
Q 25.390625 66.40625 21.84375 63.234375 
Q 18.3125 60.0625 18.3125 54.390625 
z
" id="DejaVuSans-56"/>
      </defs>
      <g transform="translate(23.564687 157.836397)scale(0.17 -0.17)">
       <use xlink:href="#DejaVuSans-48"/>
       <use x="63.623047" xlink:href="#DejaVuSans-46"/>
       <use x="95.410156" xlink:href="#DejaVuSans-56"/>
      </g>
     </g>
    </g>
    <g id="ytick_6">
     <g id="line2d_11">
      <g>
       <use style="stroke:#000000;stroke-width:0.8;" x="57.6" xlink:href="#mdf94ad09f5" y="112.326156"/>
      </g>
     </g>
     <g id="text_12">
      <!-- 1.0 -->
      <g transform="translate(23.564687 118.784828)scale(0.17 -0.17)">
       <use xlink:href="#DejaVuSans-49"/>
       <use x="63.623047" xlink:href="#DejaVuSans-46"/>
       <use x="95.410156" xlink:href="#DejaVuSans-48"/>
      </g>
     </g>
    </g>
    <g id="ytick_7">
     <g id="line2d_12">
      <g>
       <use style="stroke:#000000;stroke-width:0.8;" x="57.6" xlink:href="#mdf94ad09f5" y="73.274587"/>
      </g>
     </g>
     <g id="text_13">
      <!-- 1.2 -->
      <g transform="translate(23.564687 79.733259)scale(0.17 -0.17)">
       <use xlink:href="#DejaVuSans-49"/>
       <use x="63.623047" xlink:href="#DejaVuSans-46"/>
       <use x="95.410156" xlink:href="#DejaVuSans-50"/>
      </g>
     </g>
    </g>
    <g id="text_14">
     <!-- Density -->
     <defs>
      <path d="M 19.671875 64.796875 
L 19.671875 8.109375 
L 31.59375 8.109375 
Q 46.6875 8.109375 53.6875 14.9375 
Q 60.6875 21.78125 60.6875 36.53125 
Q 60.6875 51.171875 53.6875 57.984375 
Q 46.6875 64.796875 31.59375 64.796875 
z
M 9.8125 72.90625 
L 30.078125 72.90625 
Q 51.265625 72.90625 61.171875 64.09375 
Q 71.09375 55.28125 71.09375 36.53125 
Q 71.09375 17.671875 61.125 8.828125 
Q 51.171875 0 30.078125 0 
L 9.8125 0 
z
" id="DejaVuSans-68"/>
      <path d="M 56.203125 29.59375 
L 56.203125 25.203125 
L 14.890625 25.203125 
Q 15.484375 15.921875 20.484375 11.0625 
Q 25.484375 6.203125 34.421875 6.203125 
Q 39.59375 6.203125 44.453125 7.46875 
Q 49.3125 8.734375 54.109375 11.28125 
L 54.109375 2.78125 
Q 49.265625 0.734375 44.1875 -0.34375 
Q 39.109375 -1.421875 33.890625 -1.421875 
Q 20.796875 -1.421875 13.15625 6.1875 
Q 5.515625 13.8125 5.515625 26.8125 
Q 5.515625 40.234375 12.765625 48.109375 
Q 20.015625 56 32.328125 56 
Q 43.359375 56 49.78125 48.890625 
Q 56.203125 41.796875 56.203125 29.59375 
z
M 47.21875 32.234375 
Q 47.125 39.59375 43.09375 43.984375 
Q 39.0625 48.390625 32.421875 48.390625 
Q 24.90625 48.390625 20.390625 44.140625 
Q 15.875 39.890625 15.1875 32.171875 
z
" id="DejaVuSans-101"/>
      <path d="M 32.171875 -5.078125 
Q 28.375 -14.84375 24.75 -17.8125 
Q 21.140625 -20.796875 15.09375 -20.796875 
L 7.90625 -20.796875 
L 7.90625 -13.28125 
L 13.1875 -13.28125 
Q 16.890625 -13.28125 18.9375 -11.515625 
Q 21 -9.765625 23.484375 -3.21875 
L 25.09375 0.875 
L 2.984375 54.6875 
L 12.5 54.6875 
L 29.59375 11.921875 
L 46.6875 54.6875 
L 56.203125 54.6875 
z
" id="DejaVuSans-121"/>
     </defs>
     <g transform="translate(13.325625 231.553781)rotate(-90)scale(0.3 -0.3)">
      <use xlink:href="#DejaVuSans-68"/>
      <use x="77.001953" xlink:href="#DejaVuSans-101"/>
      <use x="138.525391" xlink:href="#DejaVuSans-110"/>
      <use x="201.904297" xlink:href="#DejaVuSans-115"/>
      <use x="254.003906" xlink:href="#DejaVuSans-105"/>
      <use x="281.787109" xlink:href="#DejaVuSans-116"/>
      <use x="320.996094" xlink:href="#DejaVuSans-121"/>
     </g>
    </g>
   </g>
   <g id="line2d_13">
    <path clip-path="url(#pd5e114c2fd)" d="M 73.832727 307.584 
L 98.485651 307.474833 
L 98.831961 307.199809 
L 99.145804 306.63349 
L 99.546224 305.374956 
L 100.314599 302.928142 
L 100.595976 302.681612 
L 100.844886 302.7444 
L 101.883815 303.257608 
L 102.316702 303.018948 
L 104.199761 301.790918 
L 105.227868 301.273784 
L 105.714866 301.134125 
L 105.985421 300.749579 
L 106.342553 299.76694 
L 107.359838 296.732605 
L 107.684503 296.434622 
L 107.922591 296.482678 
L 108.193145 296.800457 
L 108.690966 297.830349 
L 109.221252 298.718732 
L 109.751539 299.132961 
L 110.216893 299.304764 
L 110.433336 299.153904 
L 110.682246 298.655527 
L 111.050201 297.312133 
L 111.937619 293.951606 
L 112.911615 291.366412 
L 114.080411 286.493183 
L 114.253566 286.561214 
L 114.567409 287.034007 
L 114.913718 287.392105 
L 115.130162 287.315546 
L 115.736204 286.94779 
L 115.931003 287.245616 
L 116.266491 288.273467 
L 116.872533 290.035691 
L 117.283776 290.555232 
L 117.738307 290.81559 
L 117.976395 290.721264 
L 118.214483 290.339622 
L 118.560793 289.280922 
L 119.210123 287.333037 
L 119.426567 287.227631 
L 119.599722 287.404887 
L 119.881099 288.094088 
L 120.638651 290.091922 
L 120.865917 290.164932 
L 121.093183 289.977637 
L 121.493603 289.286311 
L 122.608288 287.273701 
L 124.220792 285.46595 
L 124.751079 284.269951 
L 125.173144 283.512703 
L 125.367943 283.505015 
L 125.573565 283.773182 
L 126.428517 285.168979 
L 126.655783 284.986854 
L 127.467446 284.148094 
L 127.8354 284.220405 
L 128.452264 284.341627 
L 128.820218 284.148644 
L 129.664348 283.348406 
L 129.978192 282.691742 
L 130.378612 281.228917 
L 131.969472 274.902695 
L 132.142627 274.868744 
L 132.30496 275.122489 
L 132.586337 276.079416 
L 133.203201 278.17307 
L 133.419644 278.298262 
L 133.636088 278.135776 
L 134.14473 277.704931 
L 134.350352 277.845455 
L 134.620906 278.368713 
L 135.097082 279.889023 
L 135.854635 282.200861 
L 136.1793 282.554753 
L 136.958497 283.013384 
L 137.358918 284.031686 
L 137.672761 284.55742 
L 137.802627 284.475418 
L 137.975782 283.990017 
L 138.246336 282.400435 
L 139.220332 275.955847 
L 139.490887 275.518966 
L 139.674864 275.544684 
L 139.869663 275.852012 
L 140.118573 276.720574 
L 140.454061 278.817564 
L 141.6445 287.231799 
L 141.774367 287.232152 
L 141.785189 287.219993 
L 141.936699 286.865042 
L 142.207254 285.540127 
L 143.018917 281.268764 
L 143.33276 280.767124 
L 144.090313 280.037696 
L 144.458267 278.929947 
L 144.966909 277.542302 
L 145.140064 277.527664 
L 145.313219 277.83174 
L 145.594596 278.890858 
L 147.088056 285.384361 
L 147.282856 285.424234 
L 147.499299 285.184325 
L 148.05123 284.512233 
L 148.267674 284.598586 
L 148.765494 284.867489 
L 148.949471 284.611182 
L 149.230848 283.73116 
L 149.891001 281.588476 
L 150.107444 281.474306 
L 150.302244 281.632304 
L 150.648553 282.276334 
L 151.200484 283.217437 
L 151.481861 283.303097 
L 151.871459 283.380665 
L 152.077081 283.751424 
L 152.36928 284.841875 
L 152.910389 286.805883 
L 153.061899 286.805184 
L 153.224232 286.45824 
L 153.548897 285.078074 
L 154.079184 283.084502 
L 154.70687 281.225902 
L 155.388668 278.727109 
L 155.507712 278.778121 
L 155.659222 279.180917 
L 155.918954 280.660127 
L 157.022817 287.890372 
L 157.347482 288.459876 
L 157.693792 288.645387 
L 157.953524 288.573907 
L 158.169968 288.249961 
L 158.418878 287.38721 
L 158.77601 285.155031 
L 159.392874 281.403199 
L 159.598495 281.175081 
L 159.739184 281.370244 
L 159.998916 282.232808 
L 160.626602 284.325073 
L 161.005378 284.813527 
L 161.654709 285.242128 
L 162.022663 285.238531 
L 163.018304 285.044934 
L 163.483657 285.036369 
L 163.74339 284.771936 
L 164.046411 284.095289 
L 164.533409 282.343754 
L 166.189202 276.11488 
L 166.384001 276.050585 
L 166.557156 276.284687 
L 166.827711 277.122299 
L 167.715129 280.182938 
L 167.888284 280.160373 
L 168.104728 279.811091 
L 168.580904 279.030787 
L 168.721592 279.160882 
L 168.916391 279.750637 
L 169.295168 281.839034 
L 169.749699 283.893189 
L 169.998609 284.196416 
L 170.215053 284.125949 
L 170.918494 283.498821 
L 171.189049 282.869669 
L 171.567825 281.283401 
L 173.472529 272.484385 
L 173.753905 272.099901 
L 173.981171 272.128361 
L 174.42488 272.511396 
L 174.825301 273.048308 
L 175.095855 273.878367 
L 175.431343 275.790502 
L 176.253829 280.833195 
L 176.502739 281.157725 
L 176.719182 281.09547 
L 177.162892 280.946772 
L 177.877155 281.03879 
L 178.104421 280.524137 
L 178.450731 279.063504 
L 179.58706 273.924711 
L 180.604345 269.945706 
L 180.723388 270.069765 
L 180.907366 270.679062 
L 181.253675 272.811117 
L 181.740673 275.467341 
L 181.957117 275.748695 
L 182.108627 275.612499 
L 182.433293 274.869575 
L 182.757958 274.369168 
L 182.920291 274.429002 
L 183.11509 274.806615 
L 183.4614 276.082847 
L 184.034975 278.075233 
L 184.229774 278.166087 
L 184.381285 277.931919 
L 184.619373 277.06115 
L 185.777346 272.074292 
L 186.156122 270.714657 
L 186.589009 268.099373 
L 187.411495 263.133989 
L 187.746983 262.296924 
L 187.952604 262.22443 
L 188.147403 262.421155 
L 188.472069 263.134263 
L 189.965529 266.835961 
L 190.582393 267.414557 
L 191.339946 268.375987 
L 191.567212 268.284548 
L 191.891877 267.846852 
L 192.378875 267.265145 
L 192.595319 267.309758 
L 192.876695 267.653037 
L 193.320405 268.143783 
L 193.504382 268.059959 
L 193.74247 267.638008 
L 194.435089 266.244479 
L 194.575777 266.380402 
L 194.770577 266.973425 
L 195.073598 268.757205 
L 195.766217 272.977766 
L 195.906906 273.085656 
L 195.92855 273.068364 
L 196.058416 272.773427 
L 196.27486 271.601221 
L 196.686102 267.821358 
L 197.281322 262.870846 
L 197.541055 262.150634 
L 197.670921 262.180655 
L 197.844076 262.562794 
L 198.190385 264.030259 
L 198.70985 265.967355 
L 198.937116 266.176464 
L 199.099448 266.03581 
L 199.337536 265.437875 
L 199.90029 263.152676 
L 200.257421 262.224915 
L 200.452221 262.163147 
L 200.625376 262.386135 
L 200.917574 263.223592 
L 201.566905 265.114125 
L 201.794171 265.205072 
L 202.411035 265.155489 
L 202.757345 265.754166 
L 202.995433 265.938215 
L 203.125299 265.748574 
L 203.309276 264.989409 
L 203.590653 262.687093 
L 204.737804 251.883499 
L 204.900136 251.723846 
L 204.921781 251.737002 
L 205.062469 252.004404 
L 205.311379 253.094098 
L 205.96071 256.046646 
L 206.101398 256.082156 
L 206.11222 256.072835 
L 206.263731 255.772712 
L 206.534285 254.604795 
L 207.865413 248.006856 
L 208.14679 247.67117 
L 208.330767 247.731385 
L 208.54721 248.088996 
L 208.850231 249.108593 
L 209.629428 251.99115 
L 209.748472 251.906196 
L 209.910805 251.414763 
L 210.181359 249.715449 
L 211.263577 241.918813 
L 211.393444 241.892163 
L 211.404266 241.902093 
L 211.555776 242.218933 
L 211.858797 243.533073 
L 212.248396 244.927478 
L 212.356617 244.939648 
L 212.378262 244.915108 
L 212.51895 244.526556 
L 212.746216 243.106434 
L 213.915011 234.429376 
L 214.066522 234.411668 
L 214.228854 234.700563 
L 214.510231 235.774007 
L 215.256961 238.78806 
L 215.440938 238.85851 
L 215.592449 238.618542 
L 215.819715 237.741179 
L 216.155202 235.403706 
L 216.999332 229.143177 
L 217.194131 228.93566 
L 217.33482 229.131158 
L 217.616196 230.050127 
L 218.059906 231.309351 
L 218.211416 231.311479 
L 218.362927 231.001972 
L 218.590193 229.904586 
L 218.914858 227.014548 
L 219.445145 219.834006 
L 220.105298 211.730356 
L 220.408319 210.154511 
L 220.51654 210.063853 
L 220.549007 210.090379 
L 220.668051 210.408751 
L 220.86285 211.694338 
L 221.176693 215.582522 
L 222.356311 232.065787 
L 222.572754 232.578356 
L 222.670154 232.44711 
L 222.843309 231.736696 
L 223.817305 226.823436 
L 224.120326 226.434906 
L 224.315125 225.591666 
L 224.564035 223.335918 
L 225.007745 216.748537 
L 225.548854 209.838388 
L 225.862697 208.175874 
L 226.089963 207.868664 
L 226.241473 207.97652 
L 226.447094 208.468801 
L 226.750115 209.85672 
L 227.507668 213.570036 
L 227.61589 213.513267 
L 227.7674 213.020322 
L 228.027133 211.182178 
L 228.741396 205.743727 
L 228.914551 205.568053 
L 228.925373 205.573705 
L 229.076884 205.809084 
L 229.585526 206.835698 
L 229.617993 206.814374 
L 229.747859 206.54365 
L 229.95348 205.467206 
L 230.278146 202.324752 
L 231.371186 190.707974 
L 231.555163 190.353731 
L 231.565985 190.358762 
L 231.663385 190.542569 
L 231.83654 191.501394 
L 232.107094 194.511786 
L 233.070268 206.566225 
L 233.232601 206.791305 
L 233.243423 206.785748 
L 233.373289 206.559264 
L 233.67631 205.388895 
L 234.347285 202.051956 
L 234.552906 198.63082 
L 234.780172 190.430477 
L 235.050727 171.220487 
L 235.429503 125.100927 
L 236.013901 57.202318 
L 236.143767 54.144 
L 236.176233 54.379453 
L 236.273633 57.495482 
L 236.45761 72.492551 
L 236.847208 128.069916 
L 237.366673 191.316597 
L 237.680516 206.72491 
L 237.929426 210.276145 
L 238.080937 210.604444 
L 238.102581 210.596947 
L 238.264914 210.370194 
L 238.557113 210.081709 
L 239.033289 210.000313 
L 239.206443 209.32063 
L 239.455353 207.255353 
L 240.256195 199.453665 
L 240.277839 199.461693 
L 240.364417 199.69181 
L 240.526749 200.969286 
L 240.808126 205.337121 
L 241.879522 223.632849 
L 242.485564 229.555018 
L 242.810229 231.002206 
L 242.961739 231.106715 
L 242.983384 231.092199 
L 243.124072 230.832335 
L 243.372982 229.792633 
L 243.838336 226.699628 
L 244.336156 221.951889 
L 244.996309 215.750734 
L 245.126175 215.534474 
L 245.158642 215.557073 
L 245.277686 215.892663 
L 245.504951 217.4304 
L 246.132638 221.923604 
L 246.338259 222.138749 
L 246.717036 222.175819 
L 246.879368 222.780081 
L 247.117456 224.756471 
L 248.026519 233.621337 
L 248.123919 233.545916 
L 248.286251 232.948716 
L 249.206137 228.71639 
L 249.67149 228.158841 
L 249.898756 227.223423 
L 250.212599 224.844166 
L 251.251529 216.113501 
L 251.348928 216.062631 
L 251.381395 216.093496 
L 251.511261 216.458742 
L 251.727704 217.89378 
L 252.106481 222.263824 
L 252.744989 229.306361 
L 252.983077 230.053416 
L 253.080477 229.983562 
L 253.231987 229.490709 
L 253.535008 227.530954 
L 254.097762 224.070822 
L 254.23845 223.9115 
L 254.270916 223.934002 
L 254.38996 224.218117 
L 254.58476 225.380068 
L 254.887781 228.776066 
L 256.002465 242.82772 
L 256.218909 243.202542 
L 256.359597 243.087047 
L 256.608507 242.480428 
L 256.987283 240.92944 
L 257.333593 238.513243 
L 257.788125 233.497121 
L 258.524033 225.667695 
L 258.827054 224.405781 
L 258.967742 224.335291 
L 258.989386 224.354766 
L 259.130075 224.68489 
L 259.346518 225.905757 
L 259.660362 229.171617 
L 260.526136 238.946568 
L 260.634358 239.081488 
L 260.666824 239.052865 
L 260.785868 238.687541 
L 261.002312 237.126516 
L 262.041241 228.311823 
L 262.203574 228.217341 
L 262.214396 228.22394 
L 262.376728 228.480696 
L 262.690572 229.524225 
L 263.783612 233.391699 
L 264.129921 233.927917 
L 264.335543 233.919992 
L 264.541164 233.638162 
L 264.86583 232.723598 
L 265.396116 231.30434 
L 265.536805 231.340354 
L 265.688315 231.706571 
L 265.926403 232.986466 
L 266.467512 237.589795 
L 266.922044 240.408857 
L 267.279175 241.375356 
L 267.668774 241.819786 
L 268.426326 242.535585 
L 268.686059 243.346727 
L 269.032368 245.29559 
L 269.627588 248.584744 
L 269.757454 248.687536 
L 269.789921 248.661627 
L 269.919787 248.35027 
L 270.147053 247.087882 
L 271.27256 239.687546 
L 271.727091 238.774874 
L 271.976001 238.615679 
L 272.127512 238.77556 
L 272.333133 239.409949 
L 272.679443 241.383037 
L 273.188085 243.978376 
L 273.436995 244.340844 
L 273.696728 244.325848 
L 273.945638 244.387753 
L 274.162081 244.731651 
L 274.475924 245.737538 
L 274.984567 248.211117 
L 276.04514 253.657801 
L 276.23994 253.738743 
L 276.413094 253.516319 
L 276.748582 252.617672 
L 277.397913 250.198999 
L 277.939022 247.105116 
L 278.436842 244.725819 
L 278.685752 244.356017 
L 278.837263 244.430904 
L 279.042884 244.849564 
L 279.389194 246.159739 
L 280.287435 249.731947 
L 281.10992 251.777774 
L 281.477874 254.25415 
L 282.073094 258.090961 
L 282.311182 258.498847 
L 282.462693 258.429815 
L 282.733247 257.965116 
L 283.869576 255.349514 
L 284.58384 253.367362 
L 284.789461 253.306692 
L 284.973438 253.541917 
L 285.254815 254.355426 
L 286.001545 256.648141 
L 286.1747 256.649526 
L 286.369499 256.354087 
L 287.127052 254.960302 
L 287.300206 255.152719 
L 287.603228 255.92525 
L 288.101048 257.077012 
L 288.317491 257.13275 
L 288.555579 256.907127 
L 289.280665 256.118999 
L 290.016573 255.817081 
L 290.222195 256.043018 
L 290.514394 256.780641 
L 291.055503 258.106063 
L 291.358524 258.279635 
L 291.607434 258.4886 
L 291.834699 259.039661 
L 292.646363 261.597022 
L 292.700474 261.557344 
L 292.862806 261.205303 
L 293.187472 259.794121 
L 293.620359 258.213707 
L 293.804336 258.115322 
L 293.966669 258.320636 
L 294.713399 259.625896 
L 294.735043 259.612189 
L 294.91902 259.342825 
L 295.254508 258.361211 
L 296.70468 253.726202 
L 296.715502 253.730102 
L 296.845368 253.906534 
L 297.040168 254.640628 
L 297.364833 256.939928 
L 298.04663 261.825142 
L 298.273896 262.20447 
L 298.403762 262.086694 
L 298.620206 261.488658 
L 299.312825 259.387986 
L 299.475158 259.417019 
L 299.680779 259.777154 
L 300.33011 261.074633 
L 300.492443 260.969986 
L 300.817108 260.381364 
L 301.098485 260.080733 
L 301.249995 260.186014 
L 301.477261 260.703685 
L 302.180703 262.506233 
L 302.36468 262.489148 
L 302.624412 262.167544 
L 303.078943 261.65028 
L 303.26292 261.728096 
L 303.490186 262.12691 
L 303.868962 263.345357 
L 304.55076 265.445138 
L 305.29749 267.113374 
L 305.6438 269.108656 
L 306.206553 272.237357 
L 306.325597 272.327311 
L 306.358064 272.300813 
L 306.48793 271.975212 
L 306.715195 270.649046 
L 307.883991 262.554169 
L 308.057146 262.4985 
L 308.219478 262.754263 
L 308.500855 263.732666 
L 309.528962 267.703131 
L 309.983494 269.334958 
L 310.470492 272.171012 
L 311.033245 275.076697 
L 311.260511 275.376226 
L 311.390377 275.217153 
L 311.585176 274.521658 
L 311.95313 272.149264 
L 312.418484 269.588518 
L 312.634927 269.323146 
L 312.79726 269.461773 
L 313.197681 269.838827 
L 313.338369 269.606245 
L 313.554813 268.685163 
L 313.9877 265.528159 
L 314.453053 262.803335 
L 314.766897 262.077305 
L 315.048273 261.903494 
L 315.32965 261.976235 
L 315.600204 262.291844 
L 315.914048 263.051113 
L 316.314468 264.686602 
L 316.812288 267.780786 
L 317.548197 272.255212 
L 317.786285 272.659649 
L 317.916151 272.569517 
L 318.100128 272.07499 
L 318.403149 270.478522 
L 319.139057 266.395809 
L 319.268923 266.335729 
L 319.290567 266.35608 
L 319.431256 266.700951 
L 319.669344 268.043568 
L 320.675806 274.685657 
L 320.805672 274.66921 
L 320.968005 274.300266 
L 321.260204 272.916972 
L 322.08269 268.818414 
L 323.57615 264.558959 
L 323.760127 264.562455 
L 323.954926 264.86771 
L 324.290414 265.9223 
L 324.755768 267.196433 
L 324.9181 267.207964 
L 325.080433 266.907724 
L 325.350988 265.807106 
L 325.989496 263.102997 
L 326.141007 263.068816 
L 326.292517 263.364213 
L 326.541427 264.462764 
L 327.753511 270.698137 
L 328.034888 271.025256 
L 328.229687 270.969616 
L 328.500242 270.600791 
L 328.998062 269.950293 
L 329.182039 270.025576 
L 329.430949 270.442857 
L 329.993702 271.420773 
L 330.156035 271.345295 
L 330.372479 270.918519 
L 331.130031 269.174641 
L 331.292364 269.288355 
L 331.562918 269.833914 
L 332.136494 270.975274 
L 332.342115 271.006604 
L 332.526092 270.788013 
L 332.785824 270.076032 
L 333.489266 267.948097 
L 333.60831 268.092154 
L 333.792287 268.801211 
L 334.116953 271.193064 
L 334.647239 274.841384 
L 334.852861 275.16972 
L 334.982727 275.029118 
L 335.209993 274.332792 
L 335.79439 272.493422 
L 335.978367 272.467159 
L 336.162344 272.738002 
L 336.909075 274.108158 
L 336.919897 274.102957 
L 337.093052 273.885972 
L 337.461006 272.924198 
L 337.785671 272.363133 
L 337.937182 272.416752 
L 338.121159 272.792423 
L 338.435002 274.060775 
L 339.344065 277.997884 
L 339.538864 278.112833 
L 339.690375 277.899529 
L 339.91764 277.085504 
L 340.328883 274.567878 
L 340.815881 272.024795 
L 341.021503 271.793135 
L 341.151369 271.955792 
L 341.389457 272.726002 
L 341.995499 274.747738 
L 342.211942 274.831573 
L 342.504141 274.614768 
L 342.872095 274.441524 
L 343.575537 274.32237 
L 344.095001 273.763777 
L 344.441311 273.120198 
L 344.73351 272.026545 
L 345.112286 269.577136 
L 345.869839 264.534014 
L 346.07546 264.253459 
L 346.205326 264.390457 
L 346.42177 265.044835 
L 347.503988 268.906197 
L 347.698787 268.909578 
L 347.915231 268.624153 
L 348.369762 267.512432 
L 348.910871 266.45367 
L 349.906512 265.151765 
L 350.068844 265.362604 
L 350.306932 266.131477 
L 351.010374 268.683285 
L 351.118596 268.552248 
L 351.29175 267.861137 
L 351.573127 265.595193 
L 352.460546 257.76756 
L 352.590412 257.638075 
L 352.622878 257.665303 
L 352.752745 258.006952 
L 352.98001 259.408064 
L 353.445364 264.088119 
L 354.040584 269.286739 
L 354.386894 270.683428 
L 354.592515 270.851756 
L 354.744026 270.663923 
L 354.982113 269.918989 
L 355.772133 267.164222 
L 355.95611 267.151208 
L 356.194198 267.431965 
L 357.070794 269.017612 
L 357.44957 270.395203 
L 358.120545 272.837676 
L 358.336989 272.974901 
L 358.510144 272.792016 
L 358.769876 272.116362 
L 359.246052 270.128591 
L 359.895383 267.594568 
L 360.111826 267.424217 
L 360.263337 267.603118 
L 360.544713 268.397151 
L 360.912668 269.225292 
L 361.031711 269.154118 
L 361.194044 268.676268 
L 361.464599 267.000544 
L 362.070641 263.189924 
L 362.189685 263.103949 
L 362.222151 263.131826 
L 362.362839 263.488937 
L 362.633394 264.976717 
L 363.434235 269.589227 
L 363.932055 272.431263 
L 364.732897 277.264634 
L 365.187428 278.402288 
L 365.577027 279.629436 
L 366.431979 282.587357 
L 366.626778 282.637655 
L 366.799933 282.391814 
L 367.059665 281.533696 
L 367.514197 279.064729 
L 368.001195 276.815629 
L 368.185172 276.632084 
L 368.195994 276.637125 
L 368.32586 276.840774 
L 368.531481 277.681539 
L 368.92108 280.457741 
L 369.570411 284.750555 
L 370.16563 286.984953 
L 370.620162 288.122106 
L 370.771673 288.103563 
L 370.923183 287.724848 
L 371.139627 286.448068 
L 371.540047 282.363931 
L 371.897179 279.674792 
L 371.962112 279.605818 
L 372.005401 279.657077 
L 372.113623 280.147064 
L 372.308422 282.345254 
L 372.654732 289.461504 
L 373.336529 303.146162 
L 373.682839 306.132678 
L 373.98586 307.14932 
L 374.288881 307.478904 
L 374.710946 307.573837 
L 376.745515 307.584 
L 398.487273 307.584 
L 398.487273 307.584 
" style="fill:none;stroke:#ff7f0e;stroke-linecap:square;stroke-width:1.5;"/>
   </g>
   <g id="patch_103">
    <path d="M 57.6 307.584 
L 57.6 41.472 
" style="fill:none;stroke:#000000;stroke-linecap:square;stroke-linejoin:miter;stroke-width:0.8;"/>
   </g>
   <g id="patch_104">
    <path d="M 414.72 307.584 
L 414.72 41.472 
" style="fill:none;stroke:#000000;stroke-linecap:square;stroke-linejoin:miter;stroke-width:0.8;"/>
   </g>
   <g id="patch_105">
    <path d="M 57.6 307.584 
L 414.72 307.584 
" style="fill:none;stroke:#000000;stroke-linecap:square;stroke-linejoin:miter;stroke-width:0.8;"/>
   </g>
   <g id="patch_106">
    <path d="M 57.6 41.472 
L 414.72 41.472 
" style="fill:none;stroke:#000000;stroke-linecap:square;stroke-linejoin:miter;stroke-width:0.8;"/>
   </g>
  </g>
 </g>
 <defs>
  <clipPath id="pd5e114c2fd">
   <rect height="266.112" width="357.12" x="57.6" y="41.472"/>
  </clipPath>
 </defs>
</svg>
