<?xml version="1.0" encoding="utf-8" standalone="no"?>
<!DOCTYPE svg PUBLIC "-//W3C//DTD SVG 1.1//EN"
  "http://www.w3.org/Graphics/SVG/1.1/DTD/svg11.dtd">
<!-- Created with matplotlib (https://matplotlib.org/) -->
<svg height="345.6pt" version="1.1" viewBox="0 0 460.8 345.6" width="460.8pt" xmlns="http://www.w3.org/2000/svg" xmlns:xlink="http://www.w3.org/1999/xlink">
 <defs>
  <style type="text/css">
*{stroke-linecap:butt;stroke-linejoin:round;}
  </style>
 </defs>
 <g id="figure_1">
  <g id="patch_1">
   <path d="M 0 345.6 
L 460.8 345.6 
L 460.8 0 
L 0 0 
z
" style="fill:#ffffff;"/>
  </g>
  <g id="axes_1">
   <g id="patch_2">
    <path d="M 57.6 307.584 
L 414.72 307.584 
L 414.72 41.472 
L 57.6 41.472 
z
" style="fill:#ffffff;"/>
   </g>
   <g id="patch_3">
    <path clip-path="url(#pff060a4e12)" d="M 100.118373 307.584 
L 102.839283 307.584 
L 102.839283 302.006098 
L 100.118373 302.006098 
z
" style="fill:#1f77b4;"/>
   </g>
   <g id="patch_4">
    <path clip-path="url(#pff060a4e12)" d="M 102.839283 307.584 
L 105.560193 307.584 
L 105.560193 302.537327 
L 102.839283 302.537327 
z
" style="fill:#1f77b4;"/>
   </g>
   <g id="patch_5">
    <path clip-path="url(#pff060a4e12)" d="M 105.560193 307.584 
L 108.281095 307.584 
L 108.281095 299.084316 
L 105.560193 299.084316 
z
" style="fill:#1f77b4;"/>
   </g>
   <g id="patch_6">
    <path clip-path="url(#pff060a4e12)" d="M 108.281095 307.584 
L 111.002005 307.584 
L 111.002005 299.615568 
L 108.281095 299.615568 
z
" style="fill:#1f77b4;"/>
   </g>
   <g id="patch_7">
    <path clip-path="url(#pff060a4e12)" d="M 111.001997 307.584 
L 113.722899 307.584 
L 113.722899 293.772013 
L 111.001997 293.772013 
z
" style="fill:#1f77b4;"/>
   </g>
   <g id="patch_8">
    <path clip-path="url(#pff060a4e12)" d="M 113.722907 307.584 
L 116.443817 307.584 
L 116.443817 287.928536 
L 113.722907 287.928536 
z
" style="fill:#1f77b4;"/>
   </g>
   <g id="patch_9">
    <path clip-path="url(#pff060a4e12)" d="M 116.443817 307.584 
L 119.164726 307.584 
L 119.164726 291.647137 
L 116.443817 291.647137 
z
" style="fill:#1f77b4;"/>
   </g>
   <g id="patch_10">
    <path clip-path="url(#pff060a4e12)" d="M 119.164726 307.584 
L 121.885629 307.584 
L 121.885629 291.115861 
L 119.164726 291.115861 
z
" style="fill:#1f77b4;"/>
   </g>
   <g id="patch_11">
    <path clip-path="url(#pff060a4e12)" d="M 121.885629 307.584 
L 124.606538 307.584 
L 124.606538 288.19415 
L 121.885629 288.19415 
z
" style="fill:#1f77b4;"/>
   </g>
   <g id="patch_12">
    <path clip-path="url(#pff060a4e12)" d="M 124.606538 307.584 
L 127.327448 307.584 
L 127.327448 284.741163 
L 124.606538 284.741163 
z
" style="fill:#1f77b4;"/>
   </g>
   <g id="patch_13">
    <path clip-path="url(#pff060a4e12)" d="M 127.32744 307.584 
L 130.048342 307.584 
L 130.048342 285.006713 
L 127.32744 285.006713 
z
" style="fill:#1f77b4;"/>
   </g>
   <g id="patch_14">
    <path clip-path="url(#pff060a4e12)" d="M 130.04835 307.584 
L 132.76926 307.584 
L 132.76926 278.366418 
L 130.04835 278.366418 
z
" style="fill:#1f77b4;"/>
   </g>
   <g id="patch_15">
    <path clip-path="url(#pff060a4e12)" d="M 132.76926 307.584 
L 135.49017 307.584 
L 135.49017 281.022562 
L 132.76926 281.022562 
z
" style="fill:#1f77b4;"/>
   </g>
   <g id="patch_16">
    <path clip-path="url(#pff060a4e12)" d="M 135.49017 307.584 
L 138.211072 307.584 
L 138.211072 285.537943 
L 135.49017 285.537943 
z
" style="fill:#1f77b4;"/>
   </g>
   <g id="patch_17">
    <path clip-path="url(#pff060a4e12)" d="M 138.211072 307.584 
L 140.931982 307.584 
L 140.931982 276.241503 
L 138.211072 276.241503 
z
" style="fill:#1f77b4;"/>
   </g>
   <g id="patch_18">
    <path clip-path="url(#pff060a4e12)" d="M 140.931982 307.584 
L 143.652892 307.584 
L 143.652892 282.881862 
L 140.931982 282.881862 
z
" style="fill:#1f77b4;"/>
   </g>
   <g id="patch_19">
    <path clip-path="url(#pff060a4e12)" d="M 143.652884 307.584 
L 146.373786 307.584 
L 146.373786 278.10072 
L 143.652884 278.10072 
z
" style="fill:#1f77b4;"/>
   </g>
   <g id="patch_20">
    <path clip-path="url(#pff060a4e12)" d="M 146.373794 307.584 
L 149.094703 307.584 
L 149.094703 283.678705 
L 146.373794 283.678705 
z
" style="fill:#1f77b4;"/>
   </g>
   <g id="patch_21">
    <path clip-path="url(#pff060a4e12)" d="M 149.094703 307.584 
L 151.815613 307.584 
L 151.815613 280.225718 
L 149.094703 280.225718 
z
" style="fill:#1f77b4;"/>
   </g>
   <g id="patch_22">
    <path clip-path="url(#pff060a4e12)" d="M 151.815613 307.584 
L 154.536515 307.584 
L 154.536515 280.491256 
L 151.815613 280.491256 
z
" style="fill:#1f77b4;"/>
   </g>
   <g id="patch_23">
    <path clip-path="url(#pff060a4e12)" d="M 154.536515 307.584 
L 157.257425 307.584 
L 157.257425 281.55379 
L 154.536515 281.55379 
z
" style="fill:#1f77b4;"/>
   </g>
   <g id="patch_24">
    <path clip-path="url(#pff060a4e12)" d="M 157.257425 307.584 
L 159.978335 307.584 
L 159.978335 282.881862 
L 157.257425 282.881862 
z
" style="fill:#1f77b4;"/>
   </g>
   <g id="patch_25">
    <path clip-path="url(#pff060a4e12)" d="M 159.978327 307.584 
L 162.699229 307.584 
L 162.699229 285.803559 
L 159.978327 285.803559 
z
" style="fill:#1f77b4;"/>
   </g>
   <g id="patch_26">
    <path clip-path="url(#pff060a4e12)" d="M 162.699237 307.584 
L 165.420147 307.584 
L 165.420147 284.475549 
L 162.699237 284.475549 
z
" style="fill:#1f77b4;"/>
   </g>
   <g id="patch_27">
    <path clip-path="url(#pff060a4e12)" d="M 165.420147 307.584 
L 168.141057 307.584 
L 168.141057 278.897647 
L 165.420147 278.897647 
z
" style="fill:#1f77b4;"/>
   </g>
   <g id="patch_28">
    <path clip-path="url(#pff060a4e12)" d="M 168.141057 307.584 
L 170.861959 307.584 
L 170.861959 278.10072 
L 168.141057 278.10072 
z
" style="fill:#1f77b4;"/>
   </g>
   <g id="patch_29">
    <path clip-path="url(#pff060a4e12)" d="M 170.861959 307.584 
L 173.582869 307.584 
L 173.582869 275.44466 
L 170.861959 275.44466 
z
" style="fill:#1f77b4;"/>
   </g>
   <g id="patch_30">
    <path clip-path="url(#pff060a4e12)" d="M 173.582869 307.584 
L 176.303775 307.584 
L 176.303775 276.241458 
L 173.582869 276.241458 
z
" style="fill:#1f77b4;"/>
   </g>
   <g id="patch_31">
    <path clip-path="url(#pff060a4e12)" d="M 176.303771 307.584 
L 179.024677 307.584 
L 179.024677 278.100761 
L 176.303771 278.100761 
z
" style="fill:#1f77b4;"/>
   </g>
   <g id="patch_32">
    <path clip-path="url(#pff060a4e12)" d="M 179.02468 307.584 
L 181.74559 307.584 
L 181.74559 271.194829 
L 179.02468 271.194829 
z
" style="fill:#1f77b4;"/>
   </g>
   <g id="patch_33">
    <path clip-path="url(#pff060a4e12)" d="M 181.74559 307.584 
L 184.466496 307.584 
L 184.466496 274.64777 
L 181.74559 274.64777 
z
" style="fill:#1f77b4;"/>
   </g>
   <g id="patch_34">
    <path clip-path="url(#pff060a4e12)" d="M 184.466492 307.584 
L 187.187398 307.584 
L 187.187398 270.397933 
L 184.466492 270.397933 
z
" style="fill:#1f77b4;"/>
   </g>
   <g id="patch_35">
    <path clip-path="url(#pff060a4e12)" d="M 187.187402 307.584 
L 189.908312 307.584 
L 189.908312 265.351313 
L 187.187402 265.351313 
z
" style="fill:#1f77b4;"/>
   </g>
   <g id="patch_36">
    <path clip-path="url(#pff060a4e12)" d="M 189.908312 307.584 
L 192.629218 307.584 
L 192.629218 265.882482 
L 189.908312 265.882482 
z
" style="fill:#1f77b4;"/>
   </g>
   <g id="patch_37">
    <path clip-path="url(#pff060a4e12)" d="M 192.629214 307.584 
L 195.35012 307.584 
L 195.35012 265.882482 
L 192.629214 265.882482 
z
" style="fill:#1f77b4;"/>
   </g>
   <g id="patch_38">
    <path clip-path="url(#pff060a4e12)" d="M 195.350124 307.584 
L 198.071034 307.584 
L 198.071034 266.944999 
L 195.350124 266.944999 
z
" style="fill:#1f77b4;"/>
   </g>
   <g id="patch_39">
    <path clip-path="url(#pff060a4e12)" d="M 198.071034 307.584 
L 200.79194 307.584 
L 200.79194 264.288794 
L 198.071034 264.288794 
z
" style="fill:#1f77b4;"/>
   </g>
   <g id="patch_40">
    <path clip-path="url(#pff060a4e12)" d="M 200.791936 307.584 
L 203.512842 307.584 
L 203.512842 261.632646 
L 200.791936 261.632646 
z
" style="fill:#1f77b4;"/>
   </g>
   <g id="patch_41">
    <path clip-path="url(#pff060a4e12)" d="M 203.512846 307.584 
L 206.233753 307.584 
L 206.233753 249.414409 
L 203.512846 249.414409 
z
" style="fill:#1f77b4;"/>
   </g>
   <g id="patch_42">
    <path clip-path="url(#pff060a4e12)" d="M 206.233752 307.584 
L 208.954659 307.584 
L 208.954659 249.148794 
L 206.233752 249.148794 
z
" style="fill:#1f77b4;"/>
   </g>
   <g id="patch_43">
    <path clip-path="url(#pff060a4e12)" d="M 208.954661 307.584 
L 211.675567 307.584 
L 211.675567 244.633302 
L 208.954661 244.633302 
z
" style="fill:#1f77b4;"/>
   </g>
   <g id="patch_44">
    <path clip-path="url(#pff060a4e12)" d="M 211.675567 307.584 
L 214.396475 307.584 
L 214.396475 238.524211 
L 211.675567 238.524211 
z
" style="fill:#1f77b4;"/>
   </g>
   <g id="patch_45">
    <path clip-path="url(#pff060a4e12)" d="M 214.396473 307.584 
L 217.117381 307.584 
L 217.117381 237.196138 
L 214.396473 237.196138 
z
" style="fill:#1f77b4;"/>
   </g>
   <g id="patch_46">
    <path clip-path="url(#pff060a4e12)" d="M 217.117383 307.584 
L 219.838289 307.584 
L 219.838289 230.02449 
L 217.117383 230.02449 
z
" style="fill:#1f77b4;"/>
   </g>
   <g id="patch_47">
    <path clip-path="url(#pff060a4e12)" d="M 219.838289 307.584 
L 222.559197 307.584 
L 222.559197 215.681358 
L 219.838289 215.681358 
z
" style="fill:#1f77b4;"/>
   </g>
   <g id="patch_48">
    <path clip-path="url(#pff060a4e12)" d="M 222.559197 307.584 
L 225.280104 307.584 
L 225.280104 220.462389 
L 222.559197 220.462389 
z
" style="fill:#1f77b4;"/>
   </g>
   <g id="patch_49">
    <path clip-path="url(#pff060a4e12)" d="M 225.280105 307.584 
L 228.001012 307.584 
L 228.001012 207.9785 
L 225.280105 207.9785 
z
" style="fill:#1f77b4;"/>
   </g>
   <g id="patch_50">
    <path clip-path="url(#pff060a4e12)" d="M 228.001011 307.584 
L 230.721918 307.584 
L 230.721918 203.994298 
L 228.001011 203.994298 
z
" style="fill:#1f77b4;"/>
   </g>
   <g id="patch_51">
    <path clip-path="url(#pff060a4e12)" d="M 230.721918 307.584 
L 233.442825 307.584 
L 233.442825 192.838474 
L 230.721918 192.838474 
z
" style="fill:#1f77b4;"/>
   </g>
   <g id="patch_52">
    <path clip-path="url(#pff060a4e12)" d="M 233.442825 307.584 
L 236.163732 307.584 
L 236.163732 202.134987 
L 233.442825 202.134987 
z
" style="fill:#1f77b4;"/>
   </g>
   <g id="patch_53">
    <path clip-path="url(#pff060a4e12)" d="M 236.163732 307.584 
L 238.88464 307.584 
L 238.88464 119.528832 
L 236.163732 119.528832 
z
" style="fill:#1f77b4;"/>
   </g>
   <g id="patch_54">
    <path clip-path="url(#pff060a4e12)" d="M 238.88464 307.584 
L 241.605547 307.584 
L 241.605547 206.119206 
L 238.88464 206.119206 
z
" style="fill:#1f77b4;"/>
   </g>
   <g id="patch_55">
    <path clip-path="url(#pff060a4e12)" d="M 241.605546 307.584 
L 244.326454 307.584 
L 244.326454 226.305926 
L 241.605546 226.305926 
z
" style="fill:#1f77b4;"/>
   </g>
   <g id="patch_56">
    <path clip-path="url(#pff060a4e12)" d="M 244.326454 307.584 
L 247.047361 307.584 
L 247.047361 213.556408 
L 244.326454 213.556408 
z
" style="fill:#1f77b4;"/>
   </g>
   <g id="patch_57">
    <path clip-path="url(#pff060a4e12)" d="M 247.047362 307.584 
L 249.768269 307.584 
L 249.768269 237.461728 
L 247.047362 237.461728 
z
" style="fill:#1f77b4;"/>
   </g>
   <g id="patch_58">
    <path clip-path="url(#pff060a4e12)" d="M 249.768268 307.584 
L 252.489176 307.584 
L 252.489176 218.603118 
L 249.768268 218.603118 
z
" style="fill:#1f77b4;"/>
   </g>
   <g id="patch_59">
    <path clip-path="url(#pff060a4e12)" d="M 252.489176 307.584 
L 255.210082 307.584 
L 255.210082 224.44658 
L 252.489176 224.44658 
z
" style="fill:#1f77b4;"/>
   </g>
   <g id="patch_60">
    <path clip-path="url(#pff060a4e12)" d="M 255.210082 307.584 
L 257.93099 307.584 
L 257.93099 241.445971 
L 255.210082 241.445971 
z
" style="fill:#1f77b4;"/>
   </g>
   <g id="patch_61">
    <path clip-path="url(#pff060a4e12)" d="M 257.930988 307.584 
L 260.651896 307.584 
L 260.651896 228.696472 
L 257.930988 228.696472 
z
" style="fill:#1f77b4;"/>
   </g>
   <g id="patch_62">
    <path clip-path="url(#pff060a4e12)" d="M 260.651898 307.584 
L 263.372803 307.584 
L 263.372803 229.227645 
L 260.651898 229.227645 
z
" style="fill:#1f77b4;"/>
   </g>
   <g id="patch_63">
    <path clip-path="url(#pff060a4e12)" d="M 263.372803 307.584 
L 266.093711 307.584 
L 266.093711 231.883847 
L 263.372803 231.883847 
z
" style="fill:#1f77b4;"/>
   </g>
   <g id="patch_64">
    <path clip-path="url(#pff060a4e12)" d="M 266.093709 307.584 
L 268.814619 307.584 
L 268.814619 245.43019 
L 266.093709 245.43019 
z
" style="fill:#1f77b4;"/>
   </g>
   <g id="patch_65">
    <path clip-path="url(#pff060a4e12)" d="M 268.814619 307.584 
L 271.535525 307.584 
L 271.535525 243.836457 
L 268.814619 243.836457 
z
" style="fill:#1f77b4;"/>
   </g>
   <g id="patch_66">
    <path clip-path="url(#pff060a4e12)" d="M 271.535521 307.584 
L 274.256427 307.584 
L 274.256427 243.570842 
L 271.535521 243.570842 
z
" style="fill:#1f77b4;"/>
   </g>
   <g id="patch_67">
    <path clip-path="url(#pff060a4e12)" d="M 274.256431 307.584 
L 276.977341 307.584 
L 276.977341 249.41445 
L 274.256431 249.41445 
z
" style="fill:#1f77b4;"/>
   </g>
   <g id="patch_68">
    <path clip-path="url(#pff060a4e12)" d="M 276.977341 307.584 
L 279.698247 307.584 
L 279.698247 246.75822 
L 276.977341 246.75822 
z
" style="fill:#1f77b4;"/>
   </g>
   <g id="patch_69">
    <path clip-path="url(#pff060a4e12)" d="M 279.698243 307.584 
L 282.419149 307.584 
L 282.419149 251.8049 
L 279.698243 251.8049 
z
" style="fill:#1f77b4;"/>
   </g>
   <g id="patch_70">
    <path clip-path="url(#pff060a4e12)" d="M 282.419153 307.584 
L 285.140063 307.584 
L 285.140063 254.195509 
L 282.419153 254.195509 
z
" style="fill:#1f77b4;"/>
   </g>
   <g id="patch_71">
    <path clip-path="url(#pff060a4e12)" d="M 285.140063 307.584 
L 287.860969 307.584 
L 287.860969 251.008056 
L 285.140063 251.008056 
z
" style="fill:#1f77b4;"/>
   </g>
   <g id="patch_72">
    <path clip-path="url(#pff060a4e12)" d="M 287.860965 307.584 
L 290.581871 307.584 
L 290.581871 253.929818 
L 287.860965 253.929818 
z
" style="fill:#1f77b4;"/>
   </g>
   <g id="patch_73">
    <path clip-path="url(#pff060a4e12)" d="M 290.581875 307.584 
L 293.302784 307.584 
L 293.302784 256.05481 
L 290.581875 256.05481 
z
" style="fill:#1f77b4;"/>
   </g>
   <g id="patch_74">
    <path clip-path="url(#pff060a4e12)" d="M 293.302784 307.584 
L 296.02369 307.584 
L 296.02369 256.585966 
L 293.302784 256.585966 
z
" style="fill:#1f77b4;"/>
   </g>
   <g id="patch_75">
    <path clip-path="url(#pff060a4e12)" d="M 296.023686 307.584 
L 298.744592 307.584 
L 298.744592 255.523507 
L 296.023686 255.523507 
z
" style="fill:#1f77b4;"/>
   </g>
   <g id="patch_76">
    <path clip-path="url(#pff060a4e12)" d="M 298.744596 307.584 
L 301.465506 307.584 
L 301.465506 257.117267 
L 298.744596 257.117267 
z
" style="fill:#1f77b4;"/>
   </g>
   <g id="patch_77">
    <path clip-path="url(#pff060a4e12)" d="M 301.465498 307.584 
L 304.1864 307.584 
L 304.1864 262.429426 
L 301.465498 262.429426 
z
" style="fill:#1f77b4;"/>
   </g>
   <g id="patch_78">
    <path clip-path="url(#pff060a4e12)" d="M 304.186408 307.584 
L 306.907318 307.584 
L 306.907318 266.944999 
L 304.186408 266.944999 
z
" style="fill:#1f77b4;"/>
   </g>
   <g id="patch_79">
    <path clip-path="url(#pff060a4e12)" d="M 306.907318 307.584 
L 309.628228 307.584 
L 309.628228 261.101483 
L 306.907318 261.101483 
z
" style="fill:#1f77b4;"/>
   </g>
   <g id="patch_80">
    <path clip-path="url(#pff060a4e12)" d="M 309.628228 307.584 
L 312.34913 307.584 
L 312.34913 271.991571 
L 309.628228 271.991571 
z
" style="fill:#1f77b4;"/>
   </g>
   <g id="patch_81">
    <path clip-path="url(#pff060a4e12)" d="M 312.34913 307.584 
L 315.07004 307.584 
L 315.07004 269.335529 
L 312.34913 269.335529 
z
" style="fill:#1f77b4;"/>
   </g>
   <g id="patch_82">
    <path clip-path="url(#pff060a4e12)" d="M 315.07004 307.584 
L 317.790949 307.584 
L 317.790949 269.335529 
L 315.07004 269.335529 
z
" style="fill:#1f77b4;"/>
   </g>
   <g id="patch_83">
    <path clip-path="url(#pff060a4e12)" d="M 317.790942 307.584 
L 320.511844 307.584 
L 320.511844 270.929111 
L 317.790942 270.929111 
z
" style="fill:#1f77b4;"/>
   </g>
   <g id="patch_84">
    <path clip-path="url(#pff060a4e12)" d="M 320.511852 307.584 
L 323.232761 307.584 
L 323.232761 273.05413 
L 320.511852 273.05413 
z
" style="fill:#1f77b4;"/>
   </g>
   <g id="patch_85">
    <path clip-path="url(#pff060a4e12)" d="M 323.232761 307.584 
L 325.953671 307.584 
L 325.953671 268.538686 
L 323.232761 268.538686 
z
" style="fill:#1f77b4;"/>
   </g>
   <g id="patch_86">
    <path clip-path="url(#pff060a4e12)" d="M 325.953671 307.584 
L 328.674573 307.584 
L 328.674573 271.725956 
L 325.953671 271.725956 
z
" style="fill:#1f77b4;"/>
   </g>
   <g id="patch_87">
    <path clip-path="url(#pff060a4e12)" d="M 328.674573 307.584 
L 331.395483 307.584 
L 331.395483 271.460444 
L 328.674573 271.460444 
z
" style="fill:#1f77b4;"/>
   </g>
   <g id="patch_88">
    <path clip-path="url(#pff060a4e12)" d="M 331.395483 307.584 
L 334.116393 307.584 
L 334.116393 273.850973 
L 331.395483 273.850973 
z
" style="fill:#1f77b4;"/>
   </g>
   <g id="patch_89">
    <path clip-path="url(#pff060a4e12)" d="M 334.116385 307.584 
L 336.837287 307.584 
L 336.837287 277.835104 
L 334.116385 277.835104 
z
" style="fill:#1f77b4;"/>
   </g>
   <g id="patch_90">
    <path clip-path="url(#pff060a4e12)" d="M 336.837295 307.584 
L 339.558205 307.584 
L 339.558205 278.897647 
L 336.837295 278.897647 
z
" style="fill:#1f77b4;"/>
   </g>
   <g id="patch_91">
    <path clip-path="url(#pff060a4e12)" d="M 339.558205 307.584 
L 342.279115 307.584 
L 342.279115 279.163261 
L 339.558205 279.163261 
z
" style="fill:#1f77b4;"/>
   </g>
   <g id="patch_92">
    <path clip-path="url(#pff060a4e12)" d="M 342.279115 307.584 
L 345.000017 307.584 
L 345.000017 276.772644 
L 342.279115 276.772644 
z
" style="fill:#1f77b4;"/>
   </g>
   <g id="patch_93">
    <path clip-path="url(#pff060a4e12)" d="M 345.000017 307.584 
L 347.720926 307.584 
L 347.720926 272.257287 
L 345.000017 272.257287 
z
" style="fill:#1f77b4;"/>
   </g>
   <g id="patch_94">
    <path clip-path="url(#pff060a4e12)" d="M 347.720926 307.584 
L 350.441836 307.584 
L 350.441836 268.8043 
L 347.720926 268.8043 
z
" style="fill:#1f77b4;"/>
   </g>
   <g id="patch_95">
    <path clip-path="url(#pff060a4e12)" d="M 350.441829 307.584 
L 353.162731 307.584 
L 353.162731 269.33542 
L 350.441829 269.33542 
z
" style="fill:#1f77b4;"/>
   </g>
   <g id="patch_96">
    <path clip-path="url(#pff060a4e12)" d="M 353.162738 307.584 
L 355.883648 307.584 
L 355.883648 271.726058 
L 353.162738 271.726058 
z
" style="fill:#1f77b4;"/>
   </g>
   <g id="patch_97">
    <path clip-path="url(#pff060a4e12)" d="M 355.883648 307.584 
L 358.604558 307.584 
L 358.604558 275.975888 
L 355.883648 275.975888 
z
" style="fill:#1f77b4;"/>
   </g>
   <g id="patch_98">
    <path clip-path="url(#pff060a4e12)" d="M 358.604558 307.584 
L 361.32546 307.584 
L 361.32546 274.116492 
L 358.604558 274.116492 
z
" style="fill:#1f77b4;"/>
   </g>
   <g id="patch_99">
    <path clip-path="url(#pff060a4e12)" d="M 361.32546 307.584 
L 364.04637 307.584 
L 364.04637 270.663601 
L 361.32546 270.663601 
z
" style="fill:#1f77b4;"/>
   </g>
   <g id="patch_100">
    <path clip-path="url(#pff060a4e12)" d="M 364.046362 307.584 
L 366.767256 307.584 
L 366.767256 283.413022 
L 364.046362 283.413022 
z
" style="fill:#1f77b4;"/>
   </g>
   <g id="patch_101">
    <path clip-path="url(#pff060a4e12)" d="M 366.767272 307.584 
L 369.488182 307.584 
L 369.488182 283.413091 
L 366.767272 283.413091 
z
" style="fill:#1f77b4;"/>
   </g>
   <g id="patch_102">
    <path clip-path="url(#pff060a4e12)" d="M 369.488182 307.584 
L 372.209092 307.584 
L 372.209092 282.616248 
L 369.488182 282.616248 
z
" style="fill:#1f77b4;"/>
   </g>
   <g id="matplotlib.axis_1">
    <g id="xtick_1">
     <g id="line2d_1">
      <defs>
       <path d="M 0 0 
L 0 3.5 
" id="mba66c022ca" style="stroke:#000000;stroke-width:0.8;"/>
      </defs>
      <g>
       <use style="stroke:#000000;stroke-width:0.8;" x="106.299109" xlink:href="#mba66c022ca" y="307.584"/>
      </g>
     </g>
     <g id="text_1">
      <!-- −2 -->
      <defs>
       <path d="M 10.59375 35.5 
L 73.1875 35.5 
L 73.1875 27.203125 
L 10.59375 27.203125 
z
" id="DejaVuSans-8722"/>
       <path d="M 19.1875 8.296875 
L 53.609375 8.296875 
L 53.609375 0 
L 7.328125 0 
L 7.328125 8.296875 
Q 12.9375 14.109375 22.625 23.890625 
Q 32.328125 33.6875 34.8125 36.53125 
Q 39.546875 41.84375 41.421875 45.53125 
Q 43.3125 49.21875 43.3125 52.78125 
Q 43.3125 58.59375 39.234375 62.25 
Q 35.15625 65.921875 28.609375 65.921875 
Q 23.96875 65.921875 18.8125 64.3125 
Q 13.671875 62.703125 7.8125 59.421875 
L 7.8125 69.390625 
Q 13.765625 71.78125 18.9375 73 
Q 24.125 74.21875 28.421875 74.21875 
Q 39.75 74.21875 46.484375 68.546875 
Q 53.21875 62.890625 53.21875 53.421875 
Q 53.21875 48.921875 51.53125 44.890625 
Q 49.859375 40.875 45.40625 35.40625 
Q 44.1875 33.984375 37.640625 27.21875 
Q 31.109375 20.453125 19.1875 8.296875 
z
" id="DejaVuSans-50"/>
      </defs>
      <g transform="translate(93.76825 327.501344)scale(0.17 -0.17)">
       <use xlink:href="#DejaVuSans-8722"/>
       <use x="83.789062" xlink:href="#DejaVuSans-50"/>
      </g>
     </g>
    </g>
    <g id="xtick_2">
     <g id="line2d_2">
      <g>
       <use style="stroke:#000000;stroke-width:0.8;" x="171.231874" xlink:href="#mba66c022ca" y="307.584"/>
      </g>
     </g>
     <g id="text_2">
      <!-- −1 -->
      <defs>
       <path d="M 12.40625 8.296875 
L 28.515625 8.296875 
L 28.515625 63.921875 
L 10.984375 60.40625 
L 10.984375 69.390625 
L 28.421875 72.90625 
L 38.28125 72.90625 
L 38.28125 8.296875 
L 54.390625 8.296875 
L 54.390625 0 
L 12.40625 0 
z
" id="DejaVuSans-49"/>
      </defs>
      <g transform="translate(158.701014 327.501344)scale(0.17 -0.17)">
       <use xlink:href="#DejaVuSans-8722"/>
       <use x="83.789062" xlink:href="#DejaVuSans-49"/>
      </g>
     </g>
    </g>
    <g id="xtick_3">
     <g id="line2d_3">
      <g>
       <use style="stroke:#000000;stroke-width:0.8;" x="236.164638" xlink:href="#mba66c022ca" y="307.584"/>
      </g>
     </g>
     <g id="text_3">
      <!-- 0 -->
      <defs>
       <path d="M 31.78125 66.40625 
Q 24.171875 66.40625 20.328125 58.90625 
Q 16.5 51.421875 16.5 36.375 
Q 16.5 21.390625 20.328125 13.890625 
Q 24.171875 6.390625 31.78125 6.390625 
Q 39.453125 6.390625 43.28125 13.890625 
Q 47.125 21.390625 47.125 36.375 
Q 47.125 51.421875 43.28125 58.90625 
Q 39.453125 66.40625 31.78125 66.40625 
z
M 31.78125 74.21875 
Q 44.046875 74.21875 50.515625 64.515625 
Q 56.984375 54.828125 56.984375 36.375 
Q 56.984375 17.96875 50.515625 8.265625 
Q 44.046875 -1.421875 31.78125 -1.421875 
Q 19.53125 -1.421875 13.0625 8.265625 
Q 6.59375 17.96875 6.59375 36.375 
Q 6.59375 54.828125 13.0625 64.515625 
Q 19.53125 74.21875 31.78125 74.21875 
z
" id="DejaVuSans-48"/>
      </defs>
      <g transform="translate(230.756513 327.501344)scale(0.17 -0.17)">
       <use xlink:href="#DejaVuSans-48"/>
      </g>
     </g>
    </g>
    <g id="xtick_4">
     <g id="line2d_4">
      <g>
       <use style="stroke:#000000;stroke-width:0.8;" x="301.097402" xlink:href="#mba66c022ca" y="307.584"/>
      </g>
     </g>
     <g id="text_4">
      <!-- 1 -->
      <g transform="translate(295.689277 327.501344)scale(0.17 -0.17)">
       <use xlink:href="#DejaVuSans-49"/>
      </g>
     </g>
    </g>
    <g id="xtick_5">
     <g id="line2d_5">
      <g>
       <use style="stroke:#000000;stroke-width:0.8;" x="366.030167" xlink:href="#mba66c022ca" y="307.584"/>
      </g>
     </g>
     <g id="text_5">
      <!-- 2 -->
      <g transform="translate(360.622042 327.501344)scale(0.17 -0.17)">
       <use xlink:href="#DejaVuSans-50"/>
      </g>
     </g>
    </g>
    <g id="text_6">
     <!-- Position in Radian -->
     <defs>
      <path d="M 19.671875 64.796875 
L 19.671875 37.40625 
L 32.078125 37.40625 
Q 38.96875 37.40625 42.71875 40.96875 
Q 46.484375 44.53125 46.484375 51.125 
Q 46.484375 57.671875 42.71875 61.234375 
Q 38.96875 64.796875 32.078125 64.796875 
z
M 9.8125 72.90625 
L 32.078125 72.90625 
Q 44.34375 72.90625 50.609375 67.359375 
Q 56.890625 61.8125 56.890625 51.125 
Q 56.890625 40.328125 50.609375 34.8125 
Q 44.34375 29.296875 32.078125 29.296875 
L 19.671875 29.296875 
L 19.671875 0 
L 9.8125 0 
z
" id="DejaVuSans-80"/>
      <path d="M 30.609375 48.390625 
Q 23.390625 48.390625 19.1875 42.75 
Q 14.984375 37.109375 14.984375 27.296875 
Q 14.984375 17.484375 19.15625 11.84375 
Q 23.34375 6.203125 30.609375 6.203125 
Q 37.796875 6.203125 41.984375 11.859375 
Q 46.1875 17.53125 46.1875 27.296875 
Q 46.1875 37.015625 41.984375 42.703125 
Q 37.796875 48.390625 30.609375 48.390625 
z
M 30.609375 56 
Q 42.328125 56 49.015625 48.375 
Q 55.71875 40.765625 55.71875 27.296875 
Q 55.71875 13.875 49.015625 6.21875 
Q 42.328125 -1.421875 30.609375 -1.421875 
Q 18.84375 -1.421875 12.171875 6.21875 
Q 5.515625 13.875 5.515625 27.296875 
Q 5.515625 40.765625 12.171875 48.375 
Q 18.84375 56 30.609375 56 
z
" id="DejaVuSans-111"/>
      <path d="M 44.28125 53.078125 
L 44.28125 44.578125 
Q 40.484375 46.53125 36.375 47.5 
Q 32.28125 48.484375 27.875 48.484375 
Q 21.1875 48.484375 17.84375 46.4375 
Q 14.5 44.390625 14.5 40.28125 
Q 14.5 37.15625 16.890625 35.375 
Q 19.28125 33.59375 26.515625 31.984375 
L 29.59375 31.296875 
Q 39.15625 29.25 43.1875 25.515625 
Q 47.21875 21.78125 47.21875 15.09375 
Q 47.21875 7.46875 41.1875 3.015625 
Q 35.15625 -1.421875 24.609375 -1.421875 
Q 20.21875 -1.421875 15.453125 -0.5625 
Q 10.6875 0.296875 5.421875 2 
L 5.421875 11.28125 
Q 10.40625 8.6875 15.234375 7.390625 
Q 20.0625 6.109375 24.8125 6.109375 
Q 31.15625 6.109375 34.5625 8.28125 
Q 37.984375 10.453125 37.984375 14.40625 
Q 37.984375 18.0625 35.515625 20.015625 
Q 33.0625 21.96875 24.703125 23.78125 
L 21.578125 24.515625 
Q 13.234375 26.265625 9.515625 29.90625 
Q 5.8125 33.546875 5.8125 39.890625 
Q 5.8125 47.609375 11.28125 51.796875 
Q 16.75 56 26.8125 56 
Q 31.78125 56 36.171875 55.265625 
Q 40.578125 54.546875 44.28125 53.078125 
z
" id="DejaVuSans-115"/>
      <path d="M 9.421875 54.6875 
L 18.40625 54.6875 
L 18.40625 0 
L 9.421875 0 
z
M 9.421875 75.984375 
L 18.40625 75.984375 
L 18.40625 64.59375 
L 9.421875 64.59375 
z
" id="DejaVuSans-105"/>
      <path d="M 18.3125 70.21875 
L 18.3125 54.6875 
L 36.8125 54.6875 
L 36.8125 47.703125 
L 18.3125 47.703125 
L 18.3125 18.015625 
Q 18.3125 11.328125 20.140625 9.421875 
Q 21.96875 7.515625 27.59375 7.515625 
L 36.8125 7.515625 
L 36.8125 0 
L 27.59375 0 
Q 17.1875 0 13.234375 3.875 
Q 9.28125 7.765625 9.28125 18.015625 
L 9.28125 47.703125 
L 2.6875 47.703125 
L 2.6875 54.6875 
L 9.28125 54.6875 
L 9.28125 70.21875 
z
" id="DejaVuSans-116"/>
      <path d="M 54.890625 33.015625 
L 54.890625 0 
L 45.90625 0 
L 45.90625 32.71875 
Q 45.90625 40.484375 42.875 44.328125 
Q 39.84375 48.1875 33.796875 48.1875 
Q 26.515625 48.1875 22.3125 43.546875 
Q 18.109375 38.921875 18.109375 30.90625 
L 18.109375 0 
L 9.078125 0 
L 9.078125 54.6875 
L 18.109375 54.6875 
L 18.109375 46.1875 
Q 21.34375 51.125 25.703125 53.5625 
Q 30.078125 56 35.796875 56 
Q 45.21875 56 50.046875 50.171875 
Q 54.890625 44.34375 54.890625 33.015625 
z
" id="DejaVuSans-110"/>
      <path id="DejaVuSans-32"/>
      <path d="M 44.390625 34.1875 
Q 47.5625 33.109375 50.5625 29.59375 
Q 53.5625 26.078125 56.59375 19.921875 
L 66.609375 0 
L 56 0 
L 46.6875 18.703125 
Q 43.0625 26.03125 39.671875 28.421875 
Q 36.28125 30.8125 30.421875 30.8125 
L 19.671875 30.8125 
L 19.671875 0 
L 9.8125 0 
L 9.8125 72.90625 
L 32.078125 72.90625 
Q 44.578125 72.90625 50.734375 67.671875 
Q 56.890625 62.453125 56.890625 51.90625 
Q 56.890625 45.015625 53.6875 40.46875 
Q 50.484375 35.9375 44.390625 34.1875 
z
M 19.671875 64.796875 
L 19.671875 38.921875 
L 32.078125 38.921875 
Q 39.203125 38.921875 42.84375 42.21875 
Q 46.484375 45.515625 46.484375 51.90625 
Q 46.484375 58.296875 42.84375 61.546875 
Q 39.203125 64.796875 32.078125 64.796875 
z
" id="DejaVuSans-82"/>
      <path d="M 34.28125 27.484375 
Q 23.390625 27.484375 19.1875 25 
Q 14.984375 22.515625 14.984375 16.5 
Q 14.984375 11.71875 18.140625 8.90625 
Q 21.296875 6.109375 26.703125 6.109375 
Q 34.1875 6.109375 38.703125 11.40625 
Q 43.21875 16.703125 43.21875 25.484375 
L 43.21875 27.484375 
z
M 52.203125 31.203125 
L 52.203125 0 
L 43.21875 0 
L 43.21875 8.296875 
Q 40.140625 3.328125 35.546875 0.953125 
Q 30.953125 -1.421875 24.3125 -1.421875 
Q 15.921875 -1.421875 10.953125 3.296875 
Q 6 8.015625 6 15.921875 
Q 6 25.140625 12.171875 29.828125 
Q 18.359375 34.515625 30.609375 34.515625 
L 43.21875 34.515625 
L 43.21875 35.40625 
Q 43.21875 41.609375 39.140625 45 
Q 35.0625 48.390625 27.6875 48.390625 
Q 23 48.390625 18.546875 47.265625 
Q 14.109375 46.140625 10.015625 43.890625 
L 10.015625 52.203125 
Q 14.9375 54.109375 19.578125 55.046875 
Q 24.21875 56 28.609375 56 
Q 40.484375 56 46.34375 49.84375 
Q 52.203125 43.703125 52.203125 31.203125 
z
" id="DejaVuSans-97"/>
      <path d="M 45.40625 46.390625 
L 45.40625 75.984375 
L 54.390625 75.984375 
L 54.390625 0 
L 45.40625 0 
L 45.40625 8.203125 
Q 42.578125 3.328125 38.25 0.953125 
Q 33.9375 -1.421875 27.875 -1.421875 
Q 17.96875 -1.421875 11.734375 6.484375 
Q 5.515625 14.40625 5.515625 27.296875 
Q 5.515625 40.1875 11.734375 48.09375 
Q 17.96875 56 27.875 56 
Q 33.9375 56 38.25 53.625 
Q 42.578125 51.265625 45.40625 46.390625 
z
M 14.796875 27.296875 
Q 14.796875 17.390625 18.875 11.75 
Q 22.953125 6.109375 30.078125 6.109375 
Q 37.203125 6.109375 41.296875 11.75 
Q 45.40625 17.390625 45.40625 27.296875 
Q 45.40625 37.203125 41.296875 42.84375 
Q 37.203125 48.484375 30.078125 48.484375 
Q 22.953125 48.484375 18.875 42.84375 
Q 14.796875 37.203125 14.796875 27.296875 
z
" id="DejaVuSans-100"/>
     </defs>
     <g transform="translate(102.024844 357.832125)scale(0.3 -0.3)">
      <use xlink:href="#DejaVuSans-80"/>
      <use x="60.255859" xlink:href="#DejaVuSans-111"/>
      <use x="121.4375" xlink:href="#DejaVuSans-115"/>
      <use x="173.537109" xlink:href="#DejaVuSans-105"/>
      <use x="201.320312" xlink:href="#DejaVuSans-116"/>
      <use x="240.529297" xlink:href="#DejaVuSans-105"/>
      <use x="268.3125" xlink:href="#DejaVuSans-111"/>
      <use x="329.494141" xlink:href="#DejaVuSans-110"/>
      <use x="392.873047" xlink:href="#DejaVuSans-32"/>
      <use x="424.660156" xlink:href="#DejaVuSans-105"/>
      <use x="452.443359" xlink:href="#DejaVuSans-110"/>
      <use x="515.822266" xlink:href="#DejaVuSans-32"/>
      <use x="547.609375" xlink:href="#DejaVuSans-82"/>
      <use x="617.060547" xlink:href="#DejaVuSans-97"/>
      <use x="678.339844" xlink:href="#DejaVuSans-100"/>
      <use x="741.816406" xlink:href="#DejaVuSans-105"/>
      <use x="769.599609" xlink:href="#DejaVuSans-97"/>
      <use x="830.878906" xlink:href="#DejaVuSans-110"/>
     </g>
    </g>
   </g>
   <g id="matplotlib.axis_2">
    <g id="ytick_1">
     <g id="line2d_6">
      <defs>
       <path d="M 0 0 
L -3.5 0 
" id="m221ac91040" style="stroke:#000000;stroke-width:0.8;"/>
      </defs>
      <g>
       <use style="stroke:#000000;stroke-width:0.8;" x="57.6" xlink:href="#m221ac91040" y="307.584"/>
      </g>
     </g>
     <g id="text_7">
      <!-- 0.0 -->
      <defs>
       <path d="M 10.6875 12.40625 
L 21 12.40625 
L 21 0 
L 10.6875 0 
z
" id="DejaVuSans-46"/>
      </defs>
      <g transform="translate(23.564687 314.042672)scale(0.17 -0.17)">
       <use xlink:href="#DejaVuSans-48"/>
       <use x="63.623047" xlink:href="#DejaVuSans-46"/>
       <use x="95.410156" xlink:href="#DejaVuSans-48"/>
      </g>
     </g>
    </g>
    <g id="ytick_2">
     <g id="line2d_7">
      <g>
       <use style="stroke:#000000;stroke-width:0.8;" x="57.6" xlink:href="#m221ac91040" y="268.628401"/>
      </g>
     </g>
     <g id="text_8">
      <!-- 0.2 -->
      <g transform="translate(23.564687 275.087073)scale(0.17 -0.17)">
       <use xlink:href="#DejaVuSans-48"/>
       <use x="63.623047" xlink:href="#DejaVuSans-46"/>
       <use x="95.410156" xlink:href="#DejaVuSans-50"/>
      </g>
     </g>
    </g>
    <g id="ytick_3">
     <g id="line2d_8">
      <g>
       <use style="stroke:#000000;stroke-width:0.8;" x="57.6" xlink:href="#m221ac91040" y="229.672802"/>
      </g>
     </g>
     <g id="text_9">
      <!-- 0.4 -->
      <defs>
       <path d="M 37.796875 64.3125 
L 12.890625 25.390625 
L 37.796875 25.390625 
z
M 35.203125 72.90625 
L 47.609375 72.90625 
L 47.609375 25.390625 
L 58.015625 25.390625 
L 58.015625 17.1875 
L 47.609375 17.1875 
L 47.609375 0 
L 37.796875 0 
L 37.796875 17.1875 
L 4.890625 17.1875 
L 4.890625 26.703125 
z
" id="DejaVuSans-52"/>
      </defs>
      <g transform="translate(23.564687 236.131473)scale(0.17 -0.17)">
       <use xlink:href="#DejaVuSans-48"/>
       <use x="63.623047" xlink:href="#DejaVuSans-46"/>
       <use x="95.410156" xlink:href="#DejaVuSans-52"/>
      </g>
     </g>
    </g>
    <g id="ytick_4">
     <g id="line2d_9">
      <g>
       <use style="stroke:#000000;stroke-width:0.8;" x="57.6" xlink:href="#m221ac91040" y="190.717202"/>
      </g>
     </g>
     <g id="text_10">
      <!-- 0.6 -->
      <defs>
       <path d="M 33.015625 40.375 
Q 26.375 40.375 22.484375 35.828125 
Q 18.609375 31.296875 18.609375 23.390625 
Q 18.609375 15.53125 22.484375 10.953125 
Q 26.375 6.390625 33.015625 6.390625 
Q 39.65625 6.390625 43.53125 10.953125 
Q 47.40625 15.53125 47.40625 23.390625 
Q 47.40625 31.296875 43.53125 35.828125 
Q 39.65625 40.375 33.015625 40.375 
z
M 52.59375 71.296875 
L 52.59375 62.3125 
Q 48.875 64.0625 45.09375 64.984375 
Q 41.3125 65.921875 37.59375 65.921875 
Q 27.828125 65.921875 22.671875 59.328125 
Q 17.53125 52.734375 16.796875 39.40625 
Q 19.671875 43.65625 24.015625 45.921875 
Q 28.375 48.1875 33.59375 48.1875 
Q 44.578125 48.1875 50.953125 41.515625 
Q 57.328125 34.859375 57.328125 23.390625 
Q 57.328125 12.15625 50.6875 5.359375 
Q 44.046875 -1.421875 33.015625 -1.421875 
Q 20.359375 -1.421875 13.671875 8.265625 
Q 6.984375 17.96875 6.984375 36.375 
Q 6.984375 53.65625 15.1875 63.9375 
Q 23.390625 74.21875 37.203125 74.21875 
Q 40.921875 74.21875 44.703125 73.484375 
Q 48.484375 72.75 52.59375 71.296875 
z
" id="DejaVuSans-54"/>
      </defs>
      <g transform="translate(23.564687 197.175874)scale(0.17 -0.17)">
       <use xlink:href="#DejaVuSans-48"/>
       <use x="63.623047" xlink:href="#DejaVuSans-46"/>
       <use x="95.410156" xlink:href="#DejaVuSans-54"/>
      </g>
     </g>
    </g>
    <g id="ytick_5">
     <g id="line2d_10">
      <g>
       <use style="stroke:#000000;stroke-width:0.8;" x="57.6" xlink:href="#m221ac91040" y="151.761603"/>
      </g>
     </g>
     <g id="text_11">
      <!-- 0.8 -->
      <defs>
       <path d="M 31.78125 34.625 
Q 24.75 34.625 20.71875 30.859375 
Q 16.703125 27.09375 16.703125 20.515625 
Q 16.703125 13.921875 20.71875 10.15625 
Q 24.75 6.390625 31.78125 6.390625 
Q 38.8125 6.390625 42.859375 10.171875 
Q 46.921875 13.96875 46.921875 20.515625 
Q 46.921875 27.09375 42.890625 30.859375 
Q 38.875 34.625 31.78125 34.625 
z
M 21.921875 38.8125 
Q 15.578125 40.375 12.03125 44.71875 
Q 8.5 49.078125 8.5 55.328125 
Q 8.5 64.0625 14.71875 69.140625 
Q 20.953125 74.21875 31.78125 74.21875 
Q 42.671875 74.21875 48.875 69.140625 
Q 55.078125 64.0625 55.078125 55.328125 
Q 55.078125 49.078125 51.53125 44.71875 
Q 48 40.375 41.703125 38.8125 
Q 48.828125 37.15625 52.796875 32.3125 
Q 56.78125 27.484375 56.78125 20.515625 
Q 56.78125 9.90625 50.3125 4.234375 
Q 43.84375 -1.421875 31.78125 -1.421875 
Q 19.734375 -1.421875 13.25 4.234375 
Q 6.78125 9.90625 6.78125 20.515625 
Q 6.78125 27.484375 10.78125 32.3125 
Q 14.796875 37.15625 21.921875 38.8125 
z
M 18.3125 54.390625 
Q 18.3125 48.734375 21.84375 45.5625 
Q 25.390625 42.390625 31.78125 42.390625 
Q 38.140625 42.390625 41.71875 45.5625 
Q 45.3125 48.734375 45.3125 54.390625 
Q 45.3125 60.0625 41.71875 63.234375 
Q 38.140625 66.40625 31.78125 66.40625 
Q 25.390625 66.40625 21.84375 63.234375 
Q 18.3125 60.0625 18.3125 54.390625 
z
" id="DejaVuSans-56"/>
      </defs>
      <g transform="translate(23.564687 158.220275)scale(0.17 -0.17)">
       <use xlink:href="#DejaVuSans-48"/>
       <use x="63.623047" xlink:href="#DejaVuSans-46"/>
       <use x="95.410156" xlink:href="#DejaVuSans-56"/>
      </g>
     </g>
    </g>
    <g id="ytick_6">
     <g id="line2d_11">
      <g>
       <use style="stroke:#000000;stroke-width:0.8;" x="57.6" xlink:href="#m221ac91040" y="112.806004"/>
      </g>
     </g>
     <g id="text_12">
      <!-- 1.0 -->
      <g transform="translate(23.564687 119.264676)scale(0.17 -0.17)">
       <use xlink:href="#DejaVuSans-49"/>
       <use x="63.623047" xlink:href="#DejaVuSans-46"/>
       <use x="95.410156" xlink:href="#DejaVuSans-48"/>
      </g>
     </g>
    </g>
    <g id="ytick_7">
     <g id="line2d_12">
      <g>
       <use style="stroke:#000000;stroke-width:0.8;" x="57.6" xlink:href="#m221ac91040" y="73.850405"/>
      </g>
     </g>
     <g id="text_13">
      <!-- 1.2 -->
      <g transform="translate(23.564687 80.309077)scale(0.17 -0.17)">
       <use xlink:href="#DejaVuSans-49"/>
       <use x="63.623047" xlink:href="#DejaVuSans-46"/>
       <use x="95.410156" xlink:href="#DejaVuSans-50"/>
      </g>
     </g>
    </g>
    <g id="text_14">
     <!-- Density -->
     <defs>
      <path d="M 19.671875 64.796875 
L 19.671875 8.109375 
L 31.59375 8.109375 
Q 46.6875 8.109375 53.6875 14.9375 
Q 60.6875 21.78125 60.6875 36.53125 
Q 60.6875 51.171875 53.6875 57.984375 
Q 46.6875 64.796875 31.59375 64.796875 
z
M 9.8125 72.90625 
L 30.078125 72.90625 
Q 51.265625 72.90625 61.171875 64.09375 
Q 71.09375 55.28125 71.09375 36.53125 
Q 71.09375 17.671875 61.125 8.828125 
Q 51.171875 0 30.078125 0 
L 9.8125 0 
z
" id="DejaVuSans-68"/>
      <path d="M 56.203125 29.59375 
L 56.203125 25.203125 
L 14.890625 25.203125 
Q 15.484375 15.921875 20.484375 11.0625 
Q 25.484375 6.203125 34.421875 6.203125 
Q 39.59375 6.203125 44.453125 7.46875 
Q 49.3125 8.734375 54.109375 11.28125 
L 54.109375 2.78125 
Q 49.265625 0.734375 44.1875 -0.34375 
Q 39.109375 -1.421875 33.890625 -1.421875 
Q 20.796875 -1.421875 13.15625 6.1875 
Q 5.515625 13.8125 5.515625 26.8125 
Q 5.515625 40.234375 12.765625 48.109375 
Q 20.015625 56 32.328125 56 
Q 43.359375 56 49.78125 48.890625 
Q 56.203125 41.796875 56.203125 29.59375 
z
M 47.21875 32.234375 
Q 47.125 39.59375 43.09375 43.984375 
Q 39.0625 48.390625 32.421875 48.390625 
Q 24.90625 48.390625 20.390625 44.140625 
Q 15.875 39.890625 15.1875 32.171875 
z
" id="DejaVuSans-101"/>
      <path d="M 32.171875 -5.078125 
Q 28.375 -14.84375 24.75 -17.8125 
Q 21.140625 -20.796875 15.09375 -20.796875 
L 7.90625 -20.796875 
L 7.90625 -13.28125 
L 13.1875 -13.28125 
Q 16.890625 -13.28125 18.9375 -11.515625 
Q 21 -9.765625 23.484375 -3.21875 
L 25.09375 0.875 
L 2.984375 54.6875 
L 12.5 54.6875 
L 29.59375 11.921875 
L 46.6875 54.6875 
L 56.203125 54.6875 
z
" id="DejaVuSans-121"/>
     </defs>
     <g transform="translate(13.325625 231.553781)rotate(-90)scale(0.3 -0.3)">
      <use xlink:href="#DejaVuSans-68"/>
      <use x="77.001953" xlink:href="#DejaVuSans-101"/>
      <use x="138.525391" xlink:href="#DejaVuSans-110"/>
      <use x="201.904297" xlink:href="#DejaVuSans-115"/>
      <use x="254.003906" xlink:href="#DejaVuSans-105"/>
      <use x="281.787109" xlink:href="#DejaVuSans-116"/>
      <use x="320.996094" xlink:href="#DejaVuSans-121"/>
     </g>
    </g>
   </g>
   <g id="line2d_13">
    <path clip-path="url(#pff060a4e12)" d="M 73.832727 307.584 
L 98.516454 307.475268 
L 98.868946 307.199236 
L 99.19361 306.619891 
L 99.611035 305.330599 
L 100.343847 303.082452 
L 100.640683 302.79967 
L 100.928242 302.829125 
L 101.781644 303.055578 
L 104.165604 302.64202 
L 105.34367 302.180157 
L 105.723991 302.04831 
L 105.992998 301.688241 
L 106.34549 300.776003 
L 107.505004 297.442576 
L 107.792563 297.262366 
L 108.024466 297.366317 
L 108.34913 297.804842 
L 109.081942 298.830291 
L 110.352769 299.562676 
L 110.556844 299.42485 
L 110.798022 298.923571 
L 111.169067 297.531253 
L 111.929708 294.675522 
L 112.374961 293.923472 
L 112.736729 293.192472 
L 113.098497 291.842486 
L 113.849862 288.950292 
L 114.072489 288.807674 
L 114.267287 288.966734 
L 114.907339 289.622934 
L 115.111413 289.441869 
L 115.88133 288.534531 
L 116.076129 288.802297 
L 116.428621 289.770721 
L 117.115053 291.586517 
L 117.541754 292.1287 
L 117.810761 292.182111 
L 118.024111 291.976832 
L 118.293119 291.334863 
L 118.803305 289.343178 
L 119.202177 288.224338 
L 119.396976 288.14146 
L 119.563946 288.347313 
L 119.832953 289.128487 
L 120.704907 291.934756 
L 120.927534 291.999163 
L 121.15016 291.786291 
L 121.549033 291.012358 
L 122.736375 288.602473 
L 123.348598 287.988858 
L 124.072135 287.235341 
L 124.415351 286.456118 
L 125.296581 284.187188 
L 125.454275 284.300033 
L 125.695454 284.83199 
L 126.316953 286.279255 
L 126.502475 286.260198 
L 126.715826 285.938209 
L 127.782578 283.914048 
L 128.005205 284.066411 
L 128.385525 284.674732 
L 129.062681 285.681163 
L 129.535763 286.02598 
L 129.75839 285.955274 
L 129.981016 285.603436 
L 130.287128 284.619891 
L 130.917903 281.619966 
L 132.012484 276.593152 
L 132.235111 276.388542 
L 132.383528 276.540516 
L 132.615431 277.179265 
L 133.515214 280.014453 
L 133.812049 280.152479 
L 134.220198 280.328536 
L 134.544862 280.78821 
L 135.259122 282.342115 
L 135.880622 283.429013 
L 136.214562 283.627525 
L 136.557778 283.554708 
L 136.965926 283.5189 
L 137.281314 283.768912 
L 137.605978 283.944967 
L 137.763672 283.775972 
L 137.967746 283.15147 
L 138.283134 281.305165 
L 139.043775 276.69615 
L 139.349886 276.078033 
L 139.591065 275.993949 
L 139.79514 276.16275 
L 140.027042 276.695837 
L 140.314602 278.009625 
L 140.769131 281.360649 
L 141.39063 285.529559 
L 141.659638 286.154557 
L 141.798779 286.109809 
L 141.965749 285.733735 
L 142.244033 284.449781 
L 143.34789 278.702453 
L 143.598344 278.486902 
L 143.932284 278.555919 
L 144.173463 278.48721 
L 144.405366 278.143191 
L 145.258768 276.594575 
L 145.453566 276.751066 
L 145.750402 277.342369 
L 146.149274 278.674364 
L 146.705841 281.489092 
L 147.132542 283.124337 
L 147.355169 283.328843 
L 147.540691 283.206609 
L 148.069429 282.769431 
L 148.28278 282.962283 
L 148.839346 283.563401 
L 149.006316 283.385494 
L 149.266047 282.703197 
L 150.091621 280.330924 
L 150.573979 279.778801 
L 151.687112 278.941951 
L 151.88191 279.020066 
L 152.076708 279.386754 
L 152.364268 280.51141 
L 152.985767 283.012022 
L 153.152737 283.047563 
L 153.328983 282.760974 
L 154.024691 281.41011 
L 154.581258 281.211211 
L 154.81316 280.523775 
L 155.508869 278.170044 
L 155.518145 278.172555 
L 155.638734 278.338491 
L 155.833532 279.107822 
L 156.223129 281.825099 
L 156.788972 285.29127 
L 157.187844 286.447 
L 157.595993 287.018122 
L 157.837172 287.064935 
L 158.022694 286.845668 
L 158.254597 286.140397 
L 158.588537 284.251434 
L 159.256417 280.396875 
L 159.404835 280.27211 
L 159.423387 280.283754 
L 159.553252 280.529516 
L 159.785155 281.574725 
L 160.675661 286.105735 
L 160.91684 286.306285 
L 161.111639 286.184888 
L 161.399198 285.677091 
L 161.983593 284.045516 
L 162.391742 283.240811 
L 162.614368 283.185461 
L 162.818443 283.394851 
L 163.170935 284.156809 
L 163.75533 285.334261 
L 163.996509 285.42097 
L 164.209859 285.239416 
L 164.506695 284.624295 
L 164.961224 283.089422 
L 165.656932 279.83854 
L 166.157842 277.961196 
L 166.426849 277.638453 
L 166.612371 277.705522 
L 166.881379 278.09775 
L 167.595639 279.214793 
L 167.781161 279.142133 
L 168.013064 278.74396 
L 168.671668 277.459849 
L 168.820085 277.613809 
L 169.042712 278.269758 
L 169.840457 280.952153 
L 170.02598 280.931975 
L 170.304263 280.593863 
L 171.027799 279.321275 
L 171.417396 277.959326 
L 173.328274 270.515229 
L 173.569453 270.272141 
L 173.745699 270.392474 
L 174.042535 270.955182 
L 174.756795 272.8899 
L 175.109287 274.58735 
L 175.767891 279.325714 
L 176.101831 280.724643 
L 176.278077 280.833705 
L 176.435771 280.617066 
L 177.214964 279.207652 
L 177.456143 279.413824 
L 177.790083 279.621835 
L 177.957053 279.439559 
L 178.17968 278.771861 
L 178.550724 276.782891 
L 179.339193 272.579526 
L 180.248252 269.448949 
L 180.480155 269.204144 
L 180.619296 269.346009 
L 180.823371 269.980247 
L 181.203691 272.103049 
L 181.676773 274.31484 
L 181.908675 274.588898 
L 182.084921 274.487973 
L 182.706421 273.976418 
L 182.919771 274.210447 
L 183.290816 275.04234 
L 183.819554 276.087501 
L 184.042181 276.147966 
L 184.236979 275.940153 
L 184.515262 275.236975 
L 185.786089 271.473459 
L 186.120029 270.182224 
L 187.418684 264.298483 
L 187.659863 264.169309 
L 187.88249 264.308705 
L 188.309191 264.932476 
L 188.810101 265.504613 
L 189.329563 265.727976 
L 190.090204 266.023669 
L 190.368487 266.515345 
L 191.286822 268.432011 
L 191.453792 268.236484 
L 191.704247 267.52732 
L 192.724619 264.194235 
L 192.882313 264.276473 
L 193.114215 264.724484 
L 193.949065 266.572039 
L 194.273729 266.644228 
L 194.53346 266.782822 
L 194.746811 267.214164 
L 195.025094 268.373516 
L 195.841391 272.141869 
L 195.961981 272.072107 
L 196.119675 271.59943 
L 196.379406 269.961721 
L 197.557472 261.334235 
L 197.705889 261.337148 
L 197.882135 261.652195 
L 198.883955 263.903294 
L 199.097306 263.821428 
L 199.347761 263.442261 
L 199.690977 262.45037 
L 200.590759 259.644533 
L 200.785558 259.618119 
L 200.989632 259.868285 
L 201.740997 260.980289 
L 201.991452 260.842297 
L 202.362496 260.675893 
L 202.612951 260.847254 
L 202.928339 261.002537 
L 203.076757 260.778907 
L 203.271555 259.970659 
L 203.549838 257.682532 
L 204.653695 247.250184 
L 204.774285 247.183567 
L 204.802113 247.208248 
L 204.941255 247.539765 
L 205.191709 248.84136 
L 205.989455 253.360572 
L 206.184253 253.49136 
L 206.341947 253.270667 
L 206.601678 252.428515 
L 207.12114 249.810588 
L 207.779744 246.784815 
L 208.039475 246.415228 
L 208.206445 246.492356 
L 208.429072 246.919022 
L 208.809392 248.230811 
L 209.421615 250.258191 
L 209.579309 250.283355 
L 209.727727 249.98438 
L 209.95963 248.87535 
L 210.414159 245.271127 
L 210.896517 242.169816 
L 211.146972 241.674017 
L 211.286113 241.749682 
L 211.490188 242.225751 
L 212.260105 244.396827 
L 212.278657 244.387468 
L 212.417799 244.155388 
L 212.631149 243.24509 
L 213.002193 240.446784 
L 213.77211 234.660331 
L 214.041118 233.978513 
L 214.170983 234.032186 
L 214.337953 234.474126 
L 214.625513 236.03672 
L 215.339773 240.063466 
L 215.534571 240.254064 
L 215.543847 240.249927 
L 215.682989 240.043274 
L 215.896339 239.213846 
L 216.230279 236.849676 
L 217.028025 230.949646 
L 217.259928 230.573464 
L 217.417621 230.650255 
L 217.983464 231.109358 
L 218.168986 230.813898 
L 218.44727 229.84444 
L 218.873971 227.419693 
L 219.356328 223.30456 
L 220.580775 211.828546 
L 220.71064 211.701826 
L 220.738468 211.723198 
L 220.859058 212.01611 
L 221.063132 213.221548 
L 221.415624 216.915158 
L 222.278303 226.22899 
L 222.482377 226.725792 
L 222.491653 226.722691 
L 222.59369 226.536751 
L 222.769936 225.587247 
L 223.103876 222.25404 
L 223.604786 217.785196 
L 223.855241 217.103839 
L 224.356151 216.478117 
L 224.569502 215.18852 
L 224.912718 211.442879 
L 225.534217 204.870621 
L 225.784672 204.060835 
L 225.914537 204.093314 
L 226.081507 204.507306 
L 226.369067 205.966149 
L 227.027671 210.89463 
L 227.370887 212.485568 
L 227.491476 212.558584 
L 227.519304 212.532179 
L 227.64917 212.189194 
L 227.871796 210.818948 
L 228.734475 204.707261 
L 228.836512 204.785376 
L 229.012758 205.348544 
L 229.597153 207.476082 
L 229.606429 207.472319 
L 229.717742 207.275482 
L 229.893988 206.376998 
L 230.190824 203.44764 
L 231.58224 187.841716 
L 231.804867 187.281779 
L 231.897628 187.385957 
L 232.046046 187.992745 
L 232.296501 190.136569 
L 233.372529 200.695727 
L 233.613708 201.086653 
L 233.789954 201.041201 
L 233.984752 200.712912 
L 234.188827 199.849357 
L 234.392901 197.835128 
L 234.615528 192.978679 
L 234.865983 181.657478 
L 235.162818 156.516611 
L 235.710109 84.846515 
L 236.053325 55.623059 
L 236.146086 54.144 
L 236.192466 54.602216 
L 236.30378 58.935167 
L 236.507854 77.480196 
L 237.658092 202.701109 
L 237.927099 207.415661 
L 238.149725 208.24973 
L 239.02168 209.107313 
L 239.049508 209.074321 
L 239.197926 208.654086 
L 239.411276 207.2452 
L 239.828701 202.551605 
L 240.181193 199.686807 
L 240.273954 199.563972 
L 240.311059 199.606887 
L 240.422372 200.056641 
L 240.626447 202.041571 
L 241.0717 209.288319 
L 241.711751 218.353387 
L 242.500221 226.148464 
L 242.861989 227.990288 
L 243.084616 228.291076 
L 243.233033 228.192688 
L 243.474212 227.682625 
L 243.854533 226.29278 
L 244.179196 224.22817 
L 244.587345 219.902194 
L 245.097531 215.069837 
L 245.273777 214.693832 
L 245.292329 214.700666 
L 245.403643 214.906442 
L 245.635546 215.984699 
L 246.127179 218.166081 
L 246.38691 218.425173 
L 246.581709 218.673764 
L 246.757955 219.377504 
L 246.989857 221.417787 
L 247.370178 227.236678 
L 247.936021 235.136438 
L 248.195752 236.323833 
L 248.325617 236.377672 
L 248.344169 236.363558 
L 248.520415 236.044048 
L 249.355265 233.633787 
L 249.679929 232.033793 
L 250.050974 228.903212 
L 250.598264 221.995426 
L 251.173383 215.57775 
L 251.405285 214.78774 
L 251.498047 214.86695 
L 251.646464 215.453289 
L 251.906195 217.629132 
L 252.889463 226.948945 
L 253.019328 227.068824 
L 253.047157 227.049998 
L 253.177022 226.773829 
L 253.427477 225.572448 
L 254.021148 222.678633 
L 254.132462 222.638698 
L 254.16029 222.667283 
L 254.290155 223.017364 
L 254.503506 224.388768 
L 254.82817 228.217805 
L 255.811437 240.884111 
L 255.969131 241.160891 
L 255.996959 241.146141 
L 256.117549 240.894451 
L 256.368004 239.696894 
L 257.175025 235.649372 
L 257.59245 233.325959 
L 258.223226 228.078195 
L 258.724136 224.84428 
L 258.974591 224.283672 
L 259.085904 224.35354 
L 259.234322 224.803003 
L 259.466224 226.373788 
L 259.855821 230.928812 
L 260.366007 236.251891 
L 260.551529 236.725737 
L 260.570081 236.718523 
L 260.672119 236.508013 
L 260.857641 235.469669 
L 261.293618 231.323149 
L 261.729595 228.152516 
L 261.970774 227.609476 
L 262.109915 227.665906 
L 262.304714 228.082684 
L 262.722139 229.651603 
L 264.19704 235.393445 
L 264.382562 235.418879 
L 264.558808 235.137769 
L 264.827815 234.179973 
L 265.607009 231.10994 
L 265.718322 231.210518 
L 265.885292 231.788189 
L 266.154299 233.694787 
L 267.425126 244.074669 
L 267.833275 245.256681 
L 268.426946 246.167169 
L 268.788714 247.02259 
L 269.577183 249.095942 
L 269.707049 248.944954 
L 269.901847 248.264904 
L 270.226511 246.143317 
L 270.912943 241.6961 
L 271.219055 241.00734 
L 271.534442 240.812651 
L 271.84983 240.837219 
L 272.044628 241.090394 
L 272.267255 241.814699 
L 272.610471 243.875478 
L 273.102105 246.528956 
L 273.250523 246.648843 
L 273.269075 246.635683 
L 273.408216 246.353368 
L 273.6865 245.106666 
L 274.131753 243.346363 
L 274.270895 243.293317 
L 274.289447 243.309304 
L 274.437865 243.631305 
L 274.679043 244.823937 
L 275.124297 248.412525 
L 275.690139 252.483279 
L 275.940594 253.043845 
L 276.079736 252.974962 
L 276.293086 252.499157 
L 276.960966 250.893108 
L 277.378391 250.19566 
L 277.647398 249.102971 
L 278.139032 245.871772 
L 278.593561 243.553774 
L 278.853293 243.12013 
L 279.010986 243.174852 
L 279.215061 243.554954 
L 279.539725 244.725761 
L 280.83838 249.987094 
L 281.274357 251.444683 
L 282.359662 255.668878 
L 283.231616 256.869718 
L 283.43569 256.880931 
L 283.611937 256.633405 
L 283.862391 255.829641 
L 284.474615 252.77402 
L 284.808555 251.798903 
L 284.984801 251.74702 
L 285.151771 251.981624 
L 285.522815 253.03081 
L 285.847479 253.62743 
L 285.995897 253.568316 
L 286.181419 253.164481 
L 286.552463 251.657899 
L 286.960612 250.341308 
L 287.146134 250.272839 
L 287.303828 250.528733 
L 287.563559 251.479038 
L 288.352028 254.614487 
L 288.574655 254.743741 
L 288.806558 254.595202 
L 289.390953 253.857844 
L 290.346392 252.535458 
L 290.680332 252.780086 
L 290.921511 252.810731 
L 291.134861 252.564525 
L 291.598667 251.990409 
L 291.737808 252.171308 
L 291.941883 252.896584 
L 292.813837 256.736013 
L 292.841665 256.723543 
L 292.990083 256.488773 
L 293.37968 255.240067 
L 293.639411 254.815716 
L 293.769276 254.913511 
L 293.954798 255.421078 
L 294.409328 257.576029 
L 294.752544 258.62881 
L 294.92879 258.68321 
L 295.09576 258.426397 
L 295.355491 257.529682 
L 295.800744 255.038624 
L 296.561385 250.843559 
L 296.737631 250.663434 
L 296.746907 250.668066 
L 296.867497 250.865272 
L 297.062295 251.723017 
L 297.386959 254.377159 
L 298.119771 260.493006 
L 298.36095 261.037937 
L 298.490816 260.978835 
L 298.685614 260.53261 
L 299.594673 258.016142 
L 299.761643 258.170434 
L 300.058478 258.845795 
L 300.53156 259.796385 
L 300.874776 259.980082 
L 301.143783 260.215511 
L 301.422066 260.828653 
L 302.136327 262.545283 
L 302.340401 262.541154 
L 302.609408 262.239902 
L 303.073214 261.762923 
L 303.277288 261.842156 
L 303.527743 262.235847 
L 304.557391 264.18461 
L 305.225271 264.401589 
L 305.46645 265.068281 
L 306.199262 267.442342 
L 306.217815 267.433968 
L 306.34768 267.217378 
L 306.561031 266.312781 
L 307.51647 261.576983 
L 307.859686 261.220655 
L 308.555394 260.869405 
L 308.778021 261.013082 
L 309.028476 261.497196 
L 309.362416 262.721035 
L 309.816945 265.354406 
L 311.301122 274.839944 
L 311.477369 274.893816 
L 311.635062 274.634005 
L 311.913346 273.63858 
L 312.469912 271.716864 
L 312.683263 271.603158 
L 313.276934 271.642806 
L 313.490284 271.045727 
L 313.926261 268.940203 
L 314.371515 267.289193 
L 314.696178 266.847709 
L 315.354782 266.1792 
L 315.846416 265.670324 
L 316.022662 265.756495 
L 316.21746 266.159294 
L 316.477191 267.321501 
L 316.866788 270.31866 
L 317.534668 275.300304 
L 317.775847 275.788823 
L 317.896436 275.692088 
L 318.072682 275.167395 
L 318.369518 273.435956 
L 319.232196 267.986083 
L 319.343509 267.949273 
L 319.371337 267.977267 
L 319.510479 268.334871 
L 319.760934 269.758095 
L 320.614336 275.155811 
L 320.799858 275.29449 
L 320.948276 275.10264 
L 321.217283 274.274448 
L 321.931544 271.972685 
L 322.27476 271.641451 
L 322.617976 271.290634 
L 322.914811 270.590699 
L 323.749661 268.401032 
L 323.916631 268.448736 
L 324.129981 268.801884 
L 324.844242 270.170508 
L 324.99266 270.032081 
L 325.215286 269.436368 
L 326.115069 266.523865 
L 326.124345 266.527263 
L 326.263487 266.703459 
L 326.486113 267.434644 
L 326.912814 269.801648 
L 327.571418 273.173981 
L 327.905358 273.902873 
L 328.118708 273.963335 
L 328.341335 273.762008 
L 329.046319 272.988123 
L 329.278222 273.119912 
L 330.085244 273.781127 
L 330.30787 273.49828 
L 331.151996 272.083717 
L 331.179824 272.101271 
L 331.383899 272.397601 
L 331.875533 273.69133 
L 332.274405 274.393326 
L 332.515584 274.455522 
L 332.728935 274.260732 
L 333.118531 273.504809 
L 333.415367 273.158539 
L 333.554508 273.273583 
L 333.740031 273.800154 
L 334.055418 275.53791 
L 334.593433 278.338286 
L 334.769679 278.500537 
L 334.778955 278.496281 
L 334.918096 278.293942 
L 335.187104 277.373297 
L 335.688014 275.754106 
L 335.873536 275.692411 
L 336.040506 275.926533 
L 336.374446 276.896039 
L 336.782594 277.837528 
L 336.95884 277.851391 
L 337.153639 277.570377 
L 337.886451 276.283284 
L 338.053421 276.497652 
L 338.313152 277.280188 
L 339.472666 281.338491 
L 339.639636 281.304213 
L 339.825158 280.976528 
L 340.121994 279.895801 
L 340.882635 276.937948 
L 341.049605 276.924566 
L 341.225851 277.238594 
L 341.652552 278.664931 
L 341.967939 279.304257 
L 342.144186 279.299507 
L 342.366812 279.003599 
L 343.043968 278.016376 
L 343.424289 277.921336 
L 344.314795 277.800717 
L 344.537422 277.355346 
L 344.815705 276.225712 
L 345.260958 273.279082 
L 345.798973 270.155163 
L 346.030875 269.776751 
L 346.170017 269.871047 
L 346.392644 270.399063 
L 347.348083 273.038226 
L 347.589262 273.106955 
L 347.811888 272.906542 
L 348.16438 272.2068 
L 349.017782 270.487179 
L 349.963946 268.834379 
L 350.010326 268.870788 
L 350.186572 269.224016 
L 350.474132 270.442181 
L 351.021422 272.716857 
L 351.142011 272.740866 
L 351.160564 272.721406 
L 351.299705 272.371558 
L 351.531608 271.030432 
L 352.032518 266.356912 
L 352.449943 263.471085 
L 352.654017 263.122006 
L 352.765331 263.267465 
L 352.950853 263.993197 
L 353.284793 266.401885 
L 354.230956 273.54385 
L 354.574172 274.633371 
L 354.778246 274.742314 
L 354.954492 274.537338 
L 355.306984 273.651909 
L 355.696581 272.907844 
L 355.900655 272.884841 
L 356.15111 273.136166 
L 357.357005 274.952324 
L 358.164026 276.827582 
L 358.377377 276.830602 
L 358.609279 276.56399 
L 358.9896 275.717401 
L 360.195494 272.753109 
L 360.390292 272.902134 
L 360.900478 273.372154 
L 361.058172 273.131085 
L 361.290075 272.259123 
L 362.097096 268.731259 
L 362.106372 268.733306 
L 362.226962 268.892013 
L 362.431036 269.654722 
L 364.963414 281.767789 
L 365.547809 282.773211 
L 366.020891 284.429816 
L 366.47542 285.705727 
L 366.698047 285.83132 
L 366.865017 285.652222 
L 367.106195 284.995598 
L 367.542172 283.009628 
L 368.02453 281.154018 
L 368.219328 281.013617 
L 368.35847 281.208577 
L 368.581097 282.009393 
L 369.02635 284.695873 
L 369.647849 287.990867 
L 370.371386 290.424089 
L 370.677497 290.928492 
L 370.807363 290.853942 
L 370.965057 290.432068 
L 371.206236 289.014576 
L 371.9576 283.661033 
L 371.994705 283.690211 
L 372.096742 284.036895 
L 372.282264 285.688747 
L 372.597652 290.966735 
L 373.367569 304.126735 
L 373.710785 306.469589 
L 374.016897 307.261486 
L 374.332284 307.512482 
L 374.84247 307.580183 
L 379.721704 307.584 
L 398.487273 307.584 
L 398.487273 307.584 
" style="fill:none;stroke:#ff7f0e;stroke-linecap:square;stroke-width:1.5;"/>
   </g>
   <g id="patch_103">
    <path d="M 57.6 307.584 
L 57.6 41.472 
" style="fill:none;stroke:#000000;stroke-linecap:square;stroke-linejoin:miter;stroke-width:0.8;"/>
   </g>
   <g id="patch_104">
    <path d="M 414.72 307.584 
L 414.72 41.472 
" style="fill:none;stroke:#000000;stroke-linecap:square;stroke-linejoin:miter;stroke-width:0.8;"/>
   </g>
   <g id="patch_105">
    <path d="M 57.6 307.584 
L 414.72 307.584 
" style="fill:none;stroke:#000000;stroke-linecap:square;stroke-linejoin:miter;stroke-width:0.8;"/>
   </g>
   <g id="patch_106">
    <path d="M 57.6 41.472 
L 414.72 41.472 
" style="fill:none;stroke:#000000;stroke-linecap:square;stroke-linejoin:miter;stroke-width:0.8;"/>
   </g>
  </g>
 </g>
 <defs>
  <clipPath id="pff060a4e12">
   <rect height="266.112" width="357.12" x="57.6" y="41.472"/>
  </clipPath>
 </defs>
</svg>
