<?xml version="1.0" encoding="utf-8" standalone="no"?>
<!DOCTYPE svg PUBLIC "-//W3C//DTD SVG 1.1//EN"
  "http://www.w3.org/Graphics/SVG/1.1/DTD/svg11.dtd">
<!-- Created with matplotlib (https://matplotlib.org/) -->
<svg height="345.6pt" version="1.1" viewBox="0 0 460.8 345.6" width="460.8pt" xmlns="http://www.w3.org/2000/svg" xmlns:xlink="http://www.w3.org/1999/xlink">
 <defs>
  <style type="text/css">
*{stroke-linecap:butt;stroke-linejoin:round;}
  </style>
 </defs>
 <g id="figure_1">
  <g id="patch_1">
   <path d="M 0 345.6 
L 460.8 345.6 
L 460.8 0 
L 0 0 
z
" style="fill:#ffffff;"/>
  </g>
  <g id="axes_1">
   <g id="patch_2">
    <path d="M 57.6 307.584 
L 414.72 307.584 
L 414.72 41.472 
L 57.6 41.472 
z
" style="fill:#ffffff;"/>
   </g>
   <g id="patch_3">
    <path clip-path="url(#p397c5b281f)" d="M 100.118279 307.584 
L 102.839179 307.584 
L 102.839179 298.852947 
L 100.118279 298.852947 
z
" style="fill:#1f77b4;"/>
   </g>
   <g id="patch_4">
    <path clip-path="url(#p397c5b281f)" d="M 102.839179 307.584 
L 105.56008 307.584 
L 105.56008 300.740742 
L 102.839179 300.740742 
z
" style="fill:#1f77b4;"/>
   </g>
   <g id="patch_5">
    <path clip-path="url(#p397c5b281f)" d="M 105.56008 307.584 
L 108.280972 307.584 
L 108.280972 298.380972 
L 105.56008 298.380972 
z
" style="fill:#1f77b4;"/>
   </g>
   <g id="patch_6">
    <path clip-path="url(#p397c5b281f)" d="M 108.280972 307.584 
L 111.001872 307.584 
L 111.001872 295.313331 
L 108.280972 295.313331 
z
" style="fill:#1f77b4;"/>
   </g>
   <g id="patch_7">
    <path clip-path="url(#p397c5b281f)" d="M 111.001864 307.584 
L 113.722757 307.584 
L 113.722757 290.121844 
L 111.001864 290.121844 
z
" style="fill:#1f77b4;"/>
   </g>
   <g id="patch_8">
    <path clip-path="url(#p397c5b281f)" d="M 113.722764 307.584 
L 116.443664 307.584 
L 116.443664 286.818252 
L 113.722764 286.818252 
z
" style="fill:#1f77b4;"/>
   </g>
   <g id="patch_9">
    <path clip-path="url(#p397c5b281f)" d="M 116.443664 307.584 
L 119.164565 307.584 
L 119.164565 286.582278 
L 116.443664 286.582278 
z
" style="fill:#1f77b4;"/>
   </g>
   <g id="patch_10">
    <path clip-path="url(#p397c5b281f)" d="M 119.164565 307.584 
L 121.885457 307.584 
L 121.885457 289.649894 
L 119.164565 289.649894 
z
" style="fill:#1f77b4;"/>
   </g>
   <g id="patch_11">
    <path clip-path="url(#p397c5b281f)" d="M 121.885457 307.584 
L 124.606357 307.584 
L 124.606357 281.86279 
L 121.885457 281.86279 
z
" style="fill:#1f77b4;"/>
   </g>
   <g id="patch_12">
    <path clip-path="url(#p397c5b281f)" d="M 124.606357 307.584 
L 127.327257 307.584 
L 127.327257 284.222534 
L 124.606357 284.222534 
z
" style="fill:#1f77b4;"/>
   </g>
   <g id="patch_13">
    <path clip-path="url(#p397c5b281f)" d="M 127.327249 307.584 
L 130.048142 307.584 
L 130.048142 284.222468 
L 127.327249 284.222468 
z
" style="fill:#1f77b4;"/>
   </g>
   <g id="patch_14">
    <path clip-path="url(#p397c5b281f)" d="M 130.048149 307.584 
L 132.76905 307.584 
L 132.76905 276.907327 
L 130.048149 276.907327 
z
" style="fill:#1f77b4;"/>
   </g>
   <g id="patch_15">
    <path clip-path="url(#p397c5b281f)" d="M 132.76905 307.584 
L 135.48995 307.584 
L 135.48995 279.031097 
L 132.76905 279.031097 
z
" style="fill:#1f77b4;"/>
   </g>
   <g id="patch_16">
    <path clip-path="url(#p397c5b281f)" d="M 135.48995 307.584 
L 138.210842 307.584 
L 138.210842 282.806617 
L 135.48995 282.806617 
z
" style="fill:#1f77b4;"/>
   </g>
   <g id="patch_17">
    <path clip-path="url(#p397c5b281f)" d="M 138.210842 307.584 
L 140.931742 307.584 
L 140.931742 272.895763 
L 138.210842 272.895763 
z
" style="fill:#1f77b4;"/>
   </g>
   <g id="patch_18">
    <path clip-path="url(#p397c5b281f)" d="M 140.931742 307.584 
L 143.652642 307.584 
L 143.652642 281.390841 
L 140.931742 281.390841 
z
" style="fill:#1f77b4;"/>
   </g>
   <g id="patch_19">
    <path clip-path="url(#p397c5b281f)" d="M 143.652634 307.584 
L 146.373527 307.584 
L 146.373527 277.851141 
L 143.652634 277.851141 
z
" style="fill:#1f77b4;"/>
   </g>
   <g id="patch_20">
    <path clip-path="url(#p397c5b281f)" d="M 146.373535 307.584 
L 149.094435 307.584 
L 149.094435 280.210969 
L 146.373535 280.210969 
z
" style="fill:#1f77b4;"/>
   </g>
   <g id="patch_21">
    <path clip-path="url(#p397c5b281f)" d="M 149.094435 307.584 
L 151.815335 307.584 
L 151.815335 278.559148 
L 149.094435 278.559148 
z
" style="fill:#1f77b4;"/>
   </g>
   <g id="patch_22">
    <path clip-path="url(#p397c5b281f)" d="M 151.815335 307.584 
L 154.536227 307.584 
L 154.536227 280.210891 
L 151.815335 280.210891 
z
" style="fill:#1f77b4;"/>
   </g>
   <g id="patch_23">
    <path clip-path="url(#p397c5b281f)" d="M 154.536227 307.584 
L 157.257127 307.584 
L 157.257127 280.210969 
L 154.536227 280.210969 
z
" style="fill:#1f77b4;"/>
   </g>
   <g id="patch_24">
    <path clip-path="url(#p397c5b281f)" d="M 157.257127 307.584 
L 159.978027 307.584 
L 159.978027 281.390841 
L 157.257127 281.390841 
z
" style="fill:#1f77b4;"/>
   </g>
   <g id="patch_25">
    <path clip-path="url(#p397c5b281f)" d="M 159.97802 307.584 
L 162.698912 307.584 
L 162.698912 281.862717 
L 159.97802 281.862717 
z
" style="fill:#1f77b4;"/>
   </g>
   <g id="patch_26">
    <path clip-path="url(#p397c5b281f)" d="M 162.69892 307.584 
L 165.41982 307.584 
L 165.41982 279.974995 
L 162.69892 279.974995 
z
" style="fill:#1f77b4;"/>
   </g>
   <g id="patch_27">
    <path clip-path="url(#p397c5b281f)" d="M 165.41982 307.584 
L 168.14072 307.584 
L 168.14072 273.367711 
L 165.41982 273.367711 
z
" style="fill:#1f77b4;"/>
   </g>
   <g id="patch_28">
    <path clip-path="url(#p397c5b281f)" d="M 168.14072 307.584 
L 170.861612 307.584 
L 170.861612 273.603589 
L 168.14072 273.603589 
z
" style="fill:#1f77b4;"/>
   </g>
   <g id="patch_29">
    <path clip-path="url(#p397c5b281f)" d="M 170.861612 307.584 
L 173.582512 307.584 
L 173.582512 265.580556 
L 170.861612 265.580556 
z
" style="fill:#1f77b4;"/>
   </g>
   <g id="patch_30">
    <path clip-path="url(#p397c5b281f)" d="M 173.582512 307.584 
L 176.303409 307.584 
L 176.303409 269.356092 
L 173.582512 269.356092 
z
" style="fill:#1f77b4;"/>
   </g>
   <g id="patch_31">
    <path clip-path="url(#p397c5b281f)" d="M 176.303405 307.584 
L 179.024301 307.584 
L 179.024301 273.131688 
L 176.303405 273.131688 
z
" style="fill:#1f77b4;"/>
   </g>
   <g id="patch_32">
    <path clip-path="url(#p397c5b281f)" d="M 179.024305 307.584 
L 181.745205 307.584 
L 181.745205 267.468351 
L 179.024305 267.468351 
z
" style="fill:#1f77b4;"/>
   </g>
   <g id="patch_33">
    <path clip-path="url(#p397c5b281f)" d="M 181.745205 307.584 
L 184.466101 307.584 
L 184.466101 270.064016 
L 181.745205 270.064016 
z
" style="fill:#1f77b4;"/>
   </g>
   <g id="patch_34">
    <path clip-path="url(#p397c5b281f)" d="M 184.466097 307.584 
L 187.186993 307.584 
L 187.186993 266.996345 
L 184.466097 266.996345 
z
" style="fill:#1f77b4;"/>
   </g>
   <g id="patch_35">
    <path clip-path="url(#p397c5b281f)" d="M 187.186997 307.584 
L 189.907897 307.584 
L 189.907897 264.400684 
L 187.186997 264.400684 
z
" style="fill:#1f77b4;"/>
   </g>
   <g id="patch_36">
    <path clip-path="url(#p397c5b281f)" d="M 189.907897 307.584 
L 192.628794 307.584 
L 192.628794 262.984774 
L 189.907897 262.984774 
z
" style="fill:#1f77b4;"/>
   </g>
   <g id="patch_37">
    <path clip-path="url(#p397c5b281f)" d="M 192.62879 307.584 
L 195.349686 307.584 
L 195.349686 263.220749 
L 192.62879 263.220749 
z
" style="fill:#1f77b4;"/>
   </g>
   <g id="patch_38">
    <path clip-path="url(#p397c5b281f)" d="M 195.34969 307.584 
L 198.07059 307.584 
L 198.07059 266.288479 
L 195.34969 266.288479 
z
" style="fill:#1f77b4;"/>
   </g>
   <g id="patch_39">
    <path clip-path="url(#p397c5b281f)" d="M 198.07059 307.584 
L 200.791486 307.584 
L 200.791486 262.984774 
L 198.07059 262.984774 
z
" style="fill:#1f77b4;"/>
   </g>
   <g id="patch_40">
    <path clip-path="url(#p397c5b281f)" d="M 200.791482 307.584 
L 203.512379 307.584 
L 203.512379 263.456724 
L 200.791482 263.456724 
z
" style="fill:#1f77b4;"/>
   </g>
   <g id="patch_41">
    <path clip-path="url(#p397c5b281f)" d="M 203.512382 307.584 
L 206.233281 307.584 
L 206.233281 251.186077 
L 203.512382 251.186077 
z
" style="fill:#1f77b4;"/>
   </g>
   <g id="patch_42">
    <path clip-path="url(#p397c5b281f)" d="M 206.233279 307.584 
L 208.954177 307.584 
L 208.954177 246.466586 
L 206.233279 246.466586 
z
" style="fill:#1f77b4;"/>
   </g>
   <g id="patch_43">
    <path clip-path="url(#p397c5b281f)" d="M 208.954179 307.584 
L 211.675075 307.584 
L 211.675075 239.85925 
L 208.954179 239.85925 
z
" style="fill:#1f77b4;"/>
   </g>
   <g id="patch_44">
    <path clip-path="url(#p397c5b281f)" d="M 211.675075 307.584 
L 214.395973 307.584 
L 214.395973 239.151374 
L 211.675075 239.151374 
z
" style="fill:#1f77b4;"/>
   </g>
   <g id="patch_45">
    <path clip-path="url(#p397c5b281f)" d="M 214.395971 307.584 
L 217.116869 307.584 
L 217.116869 238.207476 
L 214.395971 238.207476 
z
" style="fill:#1f77b4;"/>
   </g>
   <g id="patch_46">
    <path clip-path="url(#p397c5b281f)" d="M 217.116871 307.584 
L 219.837768 307.584 
L 219.837768 234.195856 
L 217.116871 234.195856 
z
" style="fill:#1f77b4;"/>
   </g>
   <g id="patch_47">
    <path clip-path="url(#p397c5b281f)" d="M 219.837768 307.584 
L 222.558666 307.584 
L 222.558666 219.093536 
L 219.837768 219.093536 
z
" style="fill:#1f77b4;"/>
   </g>
   <g id="patch_48">
    <path clip-path="url(#p397c5b281f)" d="M 222.558666 307.584 
L 225.279563 307.584 
L 225.279563 221.689225 
L 222.558666 221.689225 
z
" style="fill:#1f77b4;"/>
   </g>
   <g id="patch_49">
    <path clip-path="url(#p397c5b281f)" d="M 225.279564 307.584 
L 228.000461 307.584 
L 228.000461 210.126467 
L 225.279564 210.126467 
z
" style="fill:#1f77b4;"/>
   </g>
   <g id="patch_50">
    <path clip-path="url(#p397c5b281f)" d="M 228.00046 307.584 
L 230.721358 307.584 
L 230.721358 201.867373 
L 228.00046 201.867373 
z
" style="fill:#1f77b4;"/>
   </g>
   <g id="patch_51">
    <path clip-path="url(#p397c5b281f)" d="M 230.721358 307.584 
L 233.442255 307.584 
L 233.442255 195.024099 
L 230.721358 195.024099 
z
" style="fill:#1f77b4;"/>
   </g>
   <g id="patch_52">
    <path clip-path="url(#p397c5b281f)" d="M 233.442255 307.584 
L 236.163153 307.584 
L 236.163153 205.171009 
L 233.442255 205.171009 
z
" style="fill:#1f77b4;"/>
   </g>
   <g id="patch_53">
    <path clip-path="url(#p397c5b281f)" d="M 236.163153 307.584 
L 238.88405 307.584 
L 238.88405 119.984165 
L 236.163153 119.984165 
z
" style="fill:#1f77b4;"/>
   </g>
   <g id="patch_54">
    <path clip-path="url(#p397c5b281f)" d="M 238.88405 307.584 
L 241.604948 307.584 
L 241.604948 204.699059 
L 238.88405 204.699059 
z
" style="fill:#1f77b4;"/>
   </g>
   <g id="patch_55">
    <path clip-path="url(#p397c5b281f)" d="M 241.604947 307.584 
L 244.325845 307.584 
L 244.325845 225.700809 
L 241.604947 225.700809 
z
" style="fill:#1f77b4;"/>
   </g>
   <g id="patch_56">
    <path clip-path="url(#p397c5b281f)" d="M 244.325845 307.584 
L 247.046742 307.584 
L 247.046742 216.025834 
L 244.325845 216.025834 
z
" style="fill:#1f77b4;"/>
   </g>
   <g id="patch_57">
    <path clip-path="url(#p397c5b281f)" d="M 247.046743 307.584 
L 249.767641 307.584 
L 249.767641 236.791603 
L 247.046743 236.791603 
z
" style="fill:#1f77b4;"/>
   </g>
   <g id="patch_58">
    <path clip-path="url(#p397c5b281f)" d="M 249.76764 307.584 
L 252.488538 307.584 
L 252.488538 222.161205 
L 249.76764 222.161205 
z
" style="fill:#1f77b4;"/>
   </g>
   <g id="patch_59">
    <path clip-path="url(#p397c5b281f)" d="M 252.488538 307.584 
L 255.209434 307.584 
L 255.209434 227.824538 
L 252.488538 227.824538 
z
" style="fill:#1f77b4;"/>
   </g>
   <g id="patch_60">
    <path clip-path="url(#p397c5b281f)" d="M 255.209434 307.584 
L 257.930332 307.584 
L 257.930332 242.455018 
L 255.209434 242.455018 
z
" style="fill:#1f77b4;"/>
   </g>
   <g id="patch_61">
    <path clip-path="url(#p397c5b281f)" d="M 257.93033 307.584 
L 260.651228 307.584 
L 260.651228 231.128239 
L 257.93033 231.128239 
z
" style="fill:#1f77b4;"/>
   </g>
   <g id="patch_62">
    <path clip-path="url(#p397c5b281f)" d="M 260.65123 307.584 
L 263.372127 307.584 
L 263.372127 230.184285 
L 260.65123 230.184285 
z
" style="fill:#1f77b4;"/>
   </g>
   <g id="patch_63">
    <path clip-path="url(#p397c5b281f)" d="M 263.372127 307.584 
L 266.093025 307.584 
L 266.093025 230.18434 
L 263.372127 230.18434 
z
" style="fill:#1f77b4;"/>
   </g>
   <g id="patch_64">
    <path clip-path="url(#p397c5b281f)" d="M 266.093023 307.584 
L 268.813923 307.584 
L 268.813923 245.758662 
L 266.093023 245.758662 
z
" style="fill:#1f77b4;"/>
   </g>
   <g id="patch_65">
    <path clip-path="url(#p397c5b281f)" d="M 268.813923 307.584 
L 271.534819 307.584 
L 271.534819 244.814719 
L 268.813923 244.814719 
z
" style="fill:#1f77b4;"/>
   </g>
   <g id="patch_66">
    <path clip-path="url(#p397c5b281f)" d="M 271.534815 307.584 
L 274.255711 307.584 
L 274.255711 245.758618 
L 271.534815 245.758618 
z
" style="fill:#1f77b4;"/>
   </g>
   <g id="patch_67">
    <path clip-path="url(#p397c5b281f)" d="M 274.255715 307.584 
L 276.976615 307.584 
L 276.976615 248.590399 
L 274.255715 248.590399 
z
" style="fill:#1f77b4;"/>
   </g>
   <g id="patch_68">
    <path clip-path="url(#p397c5b281f)" d="M 276.976615 307.584 
L 279.697512 307.584 
L 279.697512 248.118366 
L 276.976615 248.118366 
z
" style="fill:#1f77b4;"/>
   </g>
   <g id="patch_69">
    <path clip-path="url(#p397c5b281f)" d="M 279.697508 307.584 
L 282.418404 307.584 
L 282.418404 252.129936 
L 279.697508 252.129936 
z
" style="fill:#1f77b4;"/>
   </g>
   <g id="patch_70">
    <path clip-path="url(#p397c5b281f)" d="M 282.418408 307.584 
L 285.139308 307.584 
L 285.139308 254.253785 
L 282.418408 254.253785 
z
" style="fill:#1f77b4;"/>
   </g>
   <g id="patch_71">
    <path clip-path="url(#p397c5b281f)" d="M 285.139308 307.584 
L 287.860204 307.584 
L 287.860204 253.073835 
L 285.139308 253.073835 
z
" style="fill:#1f77b4;"/>
   </g>
   <g id="patch_72">
    <path clip-path="url(#p397c5b281f)" d="M 287.8602 307.584 
L 290.581097 307.584 
L 290.581097 256.141507 
L 287.8602 256.141507 
z
" style="fill:#1f77b4;"/>
   </g>
   <g id="patch_73">
    <path clip-path="url(#p397c5b281f)" d="M 290.5811 307.584 
L 293.302001 307.584 
L 293.302001 257.793401 
L 290.5811 257.793401 
z
" style="fill:#1f77b4;"/>
   </g>
   <g id="patch_74">
    <path clip-path="url(#p397c5b281f)" d="M 293.302001 307.584 
L 296.022897 307.584 
L 296.022897 258.029305 
L 293.302001 258.029305 
z
" style="fill:#1f77b4;"/>
   </g>
   <g id="patch_75">
    <path clip-path="url(#p397c5b281f)" d="M 296.022893 307.584 
L 298.743789 307.584 
L 298.743789 258.737229 
L 296.022893 258.737229 
z
" style="fill:#1f77b4;"/>
   </g>
   <g id="patch_76">
    <path clip-path="url(#p397c5b281f)" d="M 298.743793 307.584 
L 301.464693 307.584 
L 301.464693 260.153145 
L 298.743793 260.153145 
z
" style="fill:#1f77b4;"/>
   </g>
   <g id="patch_77">
    <path clip-path="url(#p397c5b281f)" d="M 301.464685 307.584 
L 304.185578 307.584 
L 304.185578 262.984711 
L 301.464685 262.984711 
z
" style="fill:#1f77b4;"/>
   </g>
   <g id="patch_78">
    <path clip-path="url(#p397c5b281f)" d="M 304.185585 307.584 
L 306.906486 307.584 
L 306.906486 268.176275 
L 304.185585 268.176275 
z
" style="fill:#1f77b4;"/>
   </g>
   <g id="patch_79">
    <path clip-path="url(#p397c5b281f)" d="M 306.906486 307.584 
L 309.627386 307.584 
L 309.627386 264.400684 
L 306.906486 264.400684 
z
" style="fill:#1f77b4;"/>
   </g>
   <g id="patch_80">
    <path clip-path="url(#p397c5b281f)" d="M 309.627386 307.584 
L 312.348278 307.584 
L 312.348278 271.951764 
L 309.627386 271.951764 
z
" style="fill:#1f77b4;"/>
   </g>
   <g id="patch_81">
    <path clip-path="url(#p397c5b281f)" d="M 312.348278 307.584 
L 315.069178 307.584 
L 315.069178 269.592121 
L 312.348278 269.592121 
z
" style="fill:#1f77b4;"/>
   </g>
   <g id="patch_82">
    <path clip-path="url(#p397c5b281f)" d="M 315.069178 307.584 
L 317.790078 307.584 
L 317.790078 270.300044 
L 315.069178 270.300044 
z
" style="fill:#1f77b4;"/>
   </g>
   <g id="patch_83">
    <path clip-path="url(#p397c5b281f)" d="M 317.79007 307.584 
L 320.510963 307.584 
L 320.510963 271.007863 
L 317.79007 271.007863 
z
" style="fill:#1f77b4;"/>
   </g>
   <g id="patch_84">
    <path clip-path="url(#p397c5b281f)" d="M 320.510971 307.584 
L 323.231871 307.584 
L 323.231871 272.423814 
L 320.510971 272.423814 
z
" style="fill:#1f77b4;"/>
   </g>
   <g id="patch_85">
    <path clip-path="url(#p397c5b281f)" d="M 323.231871 307.584 
L 325.952771 307.584 
L 325.952771 268.412249 
L 323.231871 268.412249 
z
" style="fill:#1f77b4;"/>
   </g>
   <g id="patch_86">
    <path clip-path="url(#p397c5b281f)" d="M 325.952771 307.584 
L 328.673663 307.584 
L 328.673663 271.715789 
L 325.952771 271.715789 
z
" style="fill:#1f77b4;"/>
   </g>
   <g id="patch_87">
    <path clip-path="url(#p397c5b281f)" d="M 328.673663 307.584 
L 331.394563 307.584 
L 331.394563 271.007967 
L 328.673663 271.007967 
z
" style="fill:#1f77b4;"/>
   </g>
   <g id="patch_88">
    <path clip-path="url(#p397c5b281f)" d="M 331.394563 307.584 
L 334.115463 307.584 
L 334.115463 270.06407 
L 331.394563 270.06407 
z
" style="fill:#1f77b4;"/>
   </g>
   <g id="patch_89">
    <path clip-path="url(#p397c5b281f)" d="M 334.115456 307.584 
L 336.836348 307.584 
L 336.836348 274.311514 
L 334.115456 274.311514 
z
" style="fill:#1f77b4;"/>
   </g>
   <g id="patch_90">
    <path clip-path="url(#p397c5b281f)" d="M 336.836356 307.584 
L 339.557256 307.584 
L 339.557256 277.851225 
L 336.836356 277.851225 
z
" style="fill:#1f77b4;"/>
   </g>
   <g id="patch_91">
    <path clip-path="url(#p397c5b281f)" d="M 339.557256 307.584 
L 342.278156 307.584 
L 342.278156 277.143302 
L 339.557256 277.143302 
z
" style="fill:#1f77b4;"/>
   </g>
   <g id="patch_92">
    <path clip-path="url(#p397c5b281f)" d="M 342.278156 307.584 
L 344.999048 307.584 
L 344.999048 275.49139 
L 342.278156 275.49139 
z
" style="fill:#1f77b4;"/>
   </g>
   <g id="patch_93">
    <path clip-path="url(#p397c5b281f)" d="M 344.999048 307.584 
L 347.719948 307.584 
L 347.719948 271.951865 
L 344.999048 271.951865 
z
" style="fill:#1f77b4;"/>
   </g>
   <g id="patch_94">
    <path clip-path="url(#p397c5b281f)" d="M 347.719948 307.584 
L 350.440848 307.584 
L 350.440848 268.412249 
L 347.719948 268.412249 
z
" style="fill:#1f77b4;"/>
   </g>
   <g id="patch_95">
    <path clip-path="url(#p397c5b281f)" d="M 350.440841 307.584 
L 353.161733 307.584 
L 353.161733 269.827988 
L 350.440841 269.827988 
z
" style="fill:#1f77b4;"/>
   </g>
   <g id="patch_96">
    <path clip-path="url(#p397c5b281f)" d="M 353.161741 307.584 
L 355.882641 307.584 
L 355.882641 271.951865 
L 353.161741 271.951865 
z
" style="fill:#1f77b4;"/>
   </g>
   <g id="patch_97">
    <path clip-path="url(#p397c5b281f)" d="M 355.882641 307.584 
L 358.603541 307.584 
L 358.603541 274.783558 
L 355.882641 274.783558 
z
" style="fill:#1f77b4;"/>
   </g>
   <g id="patch_98">
    <path clip-path="url(#p397c5b281f)" d="M 358.603541 307.584 
L 361.324433 307.584 
L 361.324433 274.547489 
L 358.603541 274.547489 
z
" style="fill:#1f77b4;"/>
   </g>
   <g id="patch_99">
    <path clip-path="url(#p397c5b281f)" d="M 361.324433 307.584 
L 364.045333 307.584 
L 364.045333 272.895763 
L 361.324433 272.895763 
z
" style="fill:#1f77b4;"/>
   </g>
   <g id="patch_100">
    <path clip-path="url(#p397c5b281f)" d="M 364.045326 307.584 
L 366.76621 307.584 
L 366.76621 284.458443 
L 364.045326 284.458443 
z
" style="fill:#1f77b4;"/>
   </g>
   <g id="patch_101">
    <path clip-path="url(#p397c5b281f)" d="M 366.766226 307.584 
L 369.487126 307.584 
L 369.487126 284.458508 
L 366.766226 284.458508 
z
" style="fill:#1f77b4;"/>
   </g>
   <g id="patch_102">
    <path clip-path="url(#p397c5b281f)" d="M 369.487126 307.584 
L 372.208026 307.584 
L 372.208026 283.278636 
L 369.487126 283.278636 
z
" style="fill:#1f77b4;"/>
   </g>
   <g id="matplotlib.axis_1">
    <g id="xtick_1">
     <g id="line2d_1">
      <defs>
       <path d="M 0 0 
L 0 3.5 
" id="m3127ddbcdd" style="stroke:#000000;stroke-width:0.8;"/>
      </defs>
      <g>
       <use style="stroke:#000000;stroke-width:0.8;" x="106.298993" xlink:href="#m3127ddbcdd" y="307.584"/>
      </g>
     </g>
     <g id="text_1">
      <!-- −2 -->
      <defs>
       <path d="M 10.59375 35.5 
L 73.1875 35.5 
L 73.1875 27.203125 
L 10.59375 27.203125 
z
" id="DejaVuSans-8722"/>
       <path d="M 19.1875 8.296875 
L 53.609375 8.296875 
L 53.609375 0 
L 7.328125 0 
L 7.328125 8.296875 
Q 12.9375 14.109375 22.625 23.890625 
Q 32.328125 33.6875 34.8125 36.53125 
Q 39.546875 41.84375 41.421875 45.53125 
Q 43.3125 49.21875 43.3125 52.78125 
Q 43.3125 58.59375 39.234375 62.25 
Q 35.15625 65.921875 28.609375 65.921875 
Q 23.96875 65.921875 18.8125 64.3125 
Q 13.671875 62.703125 7.8125 59.421875 
L 7.8125 69.390625 
Q 13.765625 71.78125 18.9375 73 
Q 24.125 74.21875 28.421875 74.21875 
Q 39.75 74.21875 46.484375 68.546875 
Q 53.21875 62.890625 53.21875 53.421875 
Q 53.21875 48.921875 51.53125 44.890625 
Q 49.859375 40.875 45.40625 35.40625 
Q 44.1875 33.984375 37.640625 27.21875 
Q 31.109375 20.453125 19.1875 8.296875 
z
" id="DejaVuSans-50"/>
      </defs>
      <g transform="translate(93.768134 327.501344)scale(0.17 -0.17)">
       <use xlink:href="#DejaVuSans-8722"/>
       <use x="83.789062" xlink:href="#DejaVuSans-50"/>
      </g>
     </g>
    </g>
    <g id="xtick_2">
     <g id="line2d_2">
      <g>
       <use style="stroke:#000000;stroke-width:0.8;" x="171.231526" xlink:href="#m3127ddbcdd" y="307.584"/>
      </g>
     </g>
     <g id="text_2">
      <!-- −1 -->
      <defs>
       <path d="M 12.40625 8.296875 
L 28.515625 8.296875 
L 28.515625 63.921875 
L 10.984375 60.40625 
L 10.984375 69.390625 
L 28.421875 72.90625 
L 38.28125 72.90625 
L 38.28125 8.296875 
L 54.390625 8.296875 
L 54.390625 0 
L 12.40625 0 
z
" id="DejaVuSans-49"/>
      </defs>
      <g transform="translate(158.700667 327.501344)scale(0.17 -0.17)">
       <use xlink:href="#DejaVuSans-8722"/>
       <use x="83.789062" xlink:href="#DejaVuSans-49"/>
      </g>
     </g>
    </g>
    <g id="xtick_3">
     <g id="line2d_3">
      <g>
       <use style="stroke:#000000;stroke-width:0.8;" x="236.164058" xlink:href="#m3127ddbcdd" y="307.584"/>
      </g>
     </g>
     <g id="text_3">
      <!-- 0 -->
      <defs>
       <path d="M 31.78125 66.40625 
Q 24.171875 66.40625 20.328125 58.90625 
Q 16.5 51.421875 16.5 36.375 
Q 16.5 21.390625 20.328125 13.890625 
Q 24.171875 6.390625 31.78125 6.390625 
Q 39.453125 6.390625 43.28125 13.890625 
Q 47.125 21.390625 47.125 36.375 
Q 47.125 51.421875 43.28125 58.90625 
Q 39.453125 66.40625 31.78125 66.40625 
z
M 31.78125 74.21875 
Q 44.046875 74.21875 50.515625 64.515625 
Q 56.984375 54.828125 56.984375 36.375 
Q 56.984375 17.96875 50.515625 8.265625 
Q 44.046875 -1.421875 31.78125 -1.421875 
Q 19.53125 -1.421875 13.0625 8.265625 
Q 6.59375 17.96875 6.59375 36.375 
Q 6.59375 54.828125 13.0625 64.515625 
Q 19.53125 74.21875 31.78125 74.21875 
z
" id="DejaVuSans-48"/>
      </defs>
      <g transform="translate(230.755933 327.501344)scale(0.17 -0.17)">
       <use xlink:href="#DejaVuSans-48"/>
      </g>
     </g>
    </g>
    <g id="xtick_4">
     <g id="line2d_4">
      <g>
       <use style="stroke:#000000;stroke-width:0.8;" x="301.096591" xlink:href="#m3127ddbcdd" y="307.584"/>
      </g>
     </g>
     <g id="text_4">
      <!-- 1 -->
      <g transform="translate(295.688466 327.501344)scale(0.17 -0.17)">
       <use xlink:href="#DejaVuSans-49"/>
      </g>
     </g>
    </g>
    <g id="xtick_5">
     <g id="line2d_5">
      <g>
       <use style="stroke:#000000;stroke-width:0.8;" x="366.029123" xlink:href="#m3127ddbcdd" y="307.584"/>
      </g>
     </g>
     <g id="text_5">
      <!-- 2 -->
      <g transform="translate(360.620998 327.501344)scale(0.17 -0.17)">
       <use xlink:href="#DejaVuSans-50"/>
      </g>
     </g>
    </g>
    <g id="text_6">
     <!-- Position in Radian -->
     <defs>
      <path d="M 19.671875 64.796875 
L 19.671875 37.40625 
L 32.078125 37.40625 
Q 38.96875 37.40625 42.71875 40.96875 
Q 46.484375 44.53125 46.484375 51.125 
Q 46.484375 57.671875 42.71875 61.234375 
Q 38.96875 64.796875 32.078125 64.796875 
z
M 9.8125 72.90625 
L 32.078125 72.90625 
Q 44.34375 72.90625 50.609375 67.359375 
Q 56.890625 61.8125 56.890625 51.125 
Q 56.890625 40.328125 50.609375 34.8125 
Q 44.34375 29.296875 32.078125 29.296875 
L 19.671875 29.296875 
L 19.671875 0 
L 9.8125 0 
z
" id="DejaVuSans-80"/>
      <path d="M 30.609375 48.390625 
Q 23.390625 48.390625 19.1875 42.75 
Q 14.984375 37.109375 14.984375 27.296875 
Q 14.984375 17.484375 19.15625 11.84375 
Q 23.34375 6.203125 30.609375 6.203125 
Q 37.796875 6.203125 41.984375 11.859375 
Q 46.1875 17.53125 46.1875 27.296875 
Q 46.1875 37.015625 41.984375 42.703125 
Q 37.796875 48.390625 30.609375 48.390625 
z
M 30.609375 56 
Q 42.328125 56 49.015625 48.375 
Q 55.71875 40.765625 55.71875 27.296875 
Q 55.71875 13.875 49.015625 6.21875 
Q 42.328125 -1.421875 30.609375 -1.421875 
Q 18.84375 -1.421875 12.171875 6.21875 
Q 5.515625 13.875 5.515625 27.296875 
Q 5.515625 40.765625 12.171875 48.375 
Q 18.84375 56 30.609375 56 
z
" id="DejaVuSans-111"/>
      <path d="M 44.28125 53.078125 
L 44.28125 44.578125 
Q 40.484375 46.53125 36.375 47.5 
Q 32.28125 48.484375 27.875 48.484375 
Q 21.1875 48.484375 17.84375 46.4375 
Q 14.5 44.390625 14.5 40.28125 
Q 14.5 37.15625 16.890625 35.375 
Q 19.28125 33.59375 26.515625 31.984375 
L 29.59375 31.296875 
Q 39.15625 29.25 43.1875 25.515625 
Q 47.21875 21.78125 47.21875 15.09375 
Q 47.21875 7.46875 41.1875 3.015625 
Q 35.15625 -1.421875 24.609375 -1.421875 
Q 20.21875 -1.421875 15.453125 -0.5625 
Q 10.6875 0.296875 5.421875 2 
L 5.421875 11.28125 
Q 10.40625 8.6875 15.234375 7.390625 
Q 20.0625 6.109375 24.8125 6.109375 
Q 31.15625 6.109375 34.5625 8.28125 
Q 37.984375 10.453125 37.984375 14.40625 
Q 37.984375 18.0625 35.515625 20.015625 
Q 33.0625 21.96875 24.703125 23.78125 
L 21.578125 24.515625 
Q 13.234375 26.265625 9.515625 29.90625 
Q 5.8125 33.546875 5.8125 39.890625 
Q 5.8125 47.609375 11.28125 51.796875 
Q 16.75 56 26.8125 56 
Q 31.78125 56 36.171875 55.265625 
Q 40.578125 54.546875 44.28125 53.078125 
z
" id="DejaVuSans-115"/>
      <path d="M 9.421875 54.6875 
L 18.40625 54.6875 
L 18.40625 0 
L 9.421875 0 
z
M 9.421875 75.984375 
L 18.40625 75.984375 
L 18.40625 64.59375 
L 9.421875 64.59375 
z
" id="DejaVuSans-105"/>
      <path d="M 18.3125 70.21875 
L 18.3125 54.6875 
L 36.8125 54.6875 
L 36.8125 47.703125 
L 18.3125 47.703125 
L 18.3125 18.015625 
Q 18.3125 11.328125 20.140625 9.421875 
Q 21.96875 7.515625 27.59375 7.515625 
L 36.8125 7.515625 
L 36.8125 0 
L 27.59375 0 
Q 17.1875 0 13.234375 3.875 
Q 9.28125 7.765625 9.28125 18.015625 
L 9.28125 47.703125 
L 2.6875 47.703125 
L 2.6875 54.6875 
L 9.28125 54.6875 
L 9.28125 70.21875 
z
" id="DejaVuSans-116"/>
      <path d="M 54.890625 33.015625 
L 54.890625 0 
L 45.90625 0 
L 45.90625 32.71875 
Q 45.90625 40.484375 42.875 44.328125 
Q 39.84375 48.1875 33.796875 48.1875 
Q 26.515625 48.1875 22.3125 43.546875 
Q 18.109375 38.921875 18.109375 30.90625 
L 18.109375 0 
L 9.078125 0 
L 9.078125 54.6875 
L 18.109375 54.6875 
L 18.109375 46.1875 
Q 21.34375 51.125 25.703125 53.5625 
Q 30.078125 56 35.796875 56 
Q 45.21875 56 50.046875 50.171875 
Q 54.890625 44.34375 54.890625 33.015625 
z
" id="DejaVuSans-110"/>
      <path id="DejaVuSans-32"/>
      <path d="M 44.390625 34.1875 
Q 47.5625 33.109375 50.5625 29.59375 
Q 53.5625 26.078125 56.59375 19.921875 
L 66.609375 0 
L 56 0 
L 46.6875 18.703125 
Q 43.0625 26.03125 39.671875 28.421875 
Q 36.28125 30.8125 30.421875 30.8125 
L 19.671875 30.8125 
L 19.671875 0 
L 9.8125 0 
L 9.8125 72.90625 
L 32.078125 72.90625 
Q 44.578125 72.90625 50.734375 67.671875 
Q 56.890625 62.453125 56.890625 51.90625 
Q 56.890625 45.015625 53.6875 40.46875 
Q 50.484375 35.9375 44.390625 34.1875 
z
M 19.671875 64.796875 
L 19.671875 38.921875 
L 32.078125 38.921875 
Q 39.203125 38.921875 42.84375 42.21875 
Q 46.484375 45.515625 46.484375 51.90625 
Q 46.484375 58.296875 42.84375 61.546875 
Q 39.203125 64.796875 32.078125 64.796875 
z
" id="DejaVuSans-82"/>
      <path d="M 34.28125 27.484375 
Q 23.390625 27.484375 19.1875 25 
Q 14.984375 22.515625 14.984375 16.5 
Q 14.984375 11.71875 18.140625 8.90625 
Q 21.296875 6.109375 26.703125 6.109375 
Q 34.1875 6.109375 38.703125 11.40625 
Q 43.21875 16.703125 43.21875 25.484375 
L 43.21875 27.484375 
z
M 52.203125 31.203125 
L 52.203125 0 
L 43.21875 0 
L 43.21875 8.296875 
Q 40.140625 3.328125 35.546875 0.953125 
Q 30.953125 -1.421875 24.3125 -1.421875 
Q 15.921875 -1.421875 10.953125 3.296875 
Q 6 8.015625 6 15.921875 
Q 6 25.140625 12.171875 29.828125 
Q 18.359375 34.515625 30.609375 34.515625 
L 43.21875 34.515625 
L 43.21875 35.40625 
Q 43.21875 41.609375 39.140625 45 
Q 35.0625 48.390625 27.6875 48.390625 
Q 23 48.390625 18.546875 47.265625 
Q 14.109375 46.140625 10.015625 43.890625 
L 10.015625 52.203125 
Q 14.9375 54.109375 19.578125 55.046875 
Q 24.21875 56 28.609375 56 
Q 40.484375 56 46.34375 49.84375 
Q 52.203125 43.703125 52.203125 31.203125 
z
" id="DejaVuSans-97"/>
      <path d="M 45.40625 46.390625 
L 45.40625 75.984375 
L 54.390625 75.984375 
L 54.390625 0 
L 45.40625 0 
L 45.40625 8.203125 
Q 42.578125 3.328125 38.25 0.953125 
Q 33.9375 -1.421875 27.875 -1.421875 
Q 17.96875 -1.421875 11.734375 6.484375 
Q 5.515625 14.40625 5.515625 27.296875 
Q 5.515625 40.1875 11.734375 48.09375 
Q 17.96875 56 27.875 56 
Q 33.9375 56 38.25 53.625 
Q 42.578125 51.265625 45.40625 46.390625 
z
M 14.796875 27.296875 
Q 14.796875 17.390625 18.875 11.75 
Q 22.953125 6.109375 30.078125 6.109375 
Q 37.203125 6.109375 41.296875 11.75 
Q 45.40625 17.390625 45.40625 27.296875 
Q 45.40625 37.203125 41.296875 42.84375 
Q 37.203125 48.484375 30.078125 48.484375 
Q 22.953125 48.484375 18.875 42.84375 
Q 14.796875 37.203125 14.796875 27.296875 
z
" id="DejaVuSans-100"/>
     </defs>
     <g transform="translate(102.024844 357.832125)scale(0.3 -0.3)">
      <use xlink:href="#DejaVuSans-80"/>
      <use x="60.255859" xlink:href="#DejaVuSans-111"/>
      <use x="121.4375" xlink:href="#DejaVuSans-115"/>
      <use x="173.537109" xlink:href="#DejaVuSans-105"/>
      <use x="201.320312" xlink:href="#DejaVuSans-116"/>
      <use x="240.529297" xlink:href="#DejaVuSans-105"/>
      <use x="268.3125" xlink:href="#DejaVuSans-111"/>
      <use x="329.494141" xlink:href="#DejaVuSans-110"/>
      <use x="392.873047" xlink:href="#DejaVuSans-32"/>
      <use x="424.660156" xlink:href="#DejaVuSans-105"/>
      <use x="452.443359" xlink:href="#DejaVuSans-110"/>
      <use x="515.822266" xlink:href="#DejaVuSans-32"/>
      <use x="547.609375" xlink:href="#DejaVuSans-82"/>
      <use x="617.060547" xlink:href="#DejaVuSans-97"/>
      <use x="678.339844" xlink:href="#DejaVuSans-100"/>
      <use x="741.816406" xlink:href="#DejaVuSans-105"/>
      <use x="769.599609" xlink:href="#DejaVuSans-97"/>
      <use x="830.878906" xlink:href="#DejaVuSans-110"/>
     </g>
    </g>
   </g>
   <g id="matplotlib.axis_2">
    <g id="ytick_1">
     <g id="line2d_6">
      <defs>
       <path d="M 0 0 
L -3.5 0 
" id="mcde93130f6" style="stroke:#000000;stroke-width:0.8;"/>
      </defs>
      <g>
       <use style="stroke:#000000;stroke-width:0.8;" x="57.6" xlink:href="#mcde93130f6" y="307.584"/>
      </g>
     </g>
     <g id="text_7">
      <!-- 0.0 -->
      <defs>
       <path d="M 10.6875 12.40625 
L 21 12.40625 
L 21 0 
L 10.6875 0 
z
" id="DejaVuSans-46"/>
      </defs>
      <g transform="translate(23.564687 314.042672)scale(0.17 -0.17)">
       <use xlink:href="#DejaVuSans-48"/>
       <use x="63.623047" xlink:href="#DejaVuSans-46"/>
       <use x="95.410156" xlink:href="#DejaVuSans-48"/>
      </g>
     </g>
    </g>
    <g id="ytick_2">
     <g id="line2d_7">
      <g>
       <use style="stroke:#000000;stroke-width:0.8;" x="57.6" xlink:href="#mcde93130f6" y="268.03139"/>
      </g>
     </g>
     <g id="text_8">
      <!-- 0.2 -->
      <g transform="translate(23.564687 274.490062)scale(0.17 -0.17)">
       <use xlink:href="#DejaVuSans-48"/>
       <use x="63.623047" xlink:href="#DejaVuSans-46"/>
       <use x="95.410156" xlink:href="#DejaVuSans-50"/>
      </g>
     </g>
    </g>
    <g id="ytick_3">
     <g id="line2d_8">
      <g>
       <use style="stroke:#000000;stroke-width:0.8;" x="57.6" xlink:href="#mcde93130f6" y="228.47878"/>
      </g>
     </g>
     <g id="text_9">
      <!-- 0.4 -->
      <defs>
       <path d="M 37.796875 64.3125 
L 12.890625 25.390625 
L 37.796875 25.390625 
z
M 35.203125 72.90625 
L 47.609375 72.90625 
L 47.609375 25.390625 
L 58.015625 25.390625 
L 58.015625 17.1875 
L 47.609375 17.1875 
L 47.609375 0 
L 37.796875 0 
L 37.796875 17.1875 
L 4.890625 17.1875 
L 4.890625 26.703125 
z
" id="DejaVuSans-52"/>
      </defs>
      <g transform="translate(23.564687 234.937452)scale(0.17 -0.17)">
       <use xlink:href="#DejaVuSans-48"/>
       <use x="63.623047" xlink:href="#DejaVuSans-46"/>
       <use x="95.410156" xlink:href="#DejaVuSans-52"/>
      </g>
     </g>
    </g>
    <g id="ytick_4">
     <g id="line2d_9">
      <g>
       <use style="stroke:#000000;stroke-width:0.8;" x="57.6" xlink:href="#mcde93130f6" y="188.926171"/>
      </g>
     </g>
     <g id="text_10">
      <!-- 0.6 -->
      <defs>
       <path d="M 33.015625 40.375 
Q 26.375 40.375 22.484375 35.828125 
Q 18.609375 31.296875 18.609375 23.390625 
Q 18.609375 15.53125 22.484375 10.953125 
Q 26.375 6.390625 33.015625 6.390625 
Q 39.65625 6.390625 43.53125 10.953125 
Q 47.40625 15.53125 47.40625 23.390625 
Q 47.40625 31.296875 43.53125 35.828125 
Q 39.65625 40.375 33.015625 40.375 
z
M 52.59375 71.296875 
L 52.59375 62.3125 
Q 48.875 64.0625 45.09375 64.984375 
Q 41.3125 65.921875 37.59375 65.921875 
Q 27.828125 65.921875 22.671875 59.328125 
Q 17.53125 52.734375 16.796875 39.40625 
Q 19.671875 43.65625 24.015625 45.921875 
Q 28.375 48.1875 33.59375 48.1875 
Q 44.578125 48.1875 50.953125 41.515625 
Q 57.328125 34.859375 57.328125 23.390625 
Q 57.328125 12.15625 50.6875 5.359375 
Q 44.046875 -1.421875 33.015625 -1.421875 
Q 20.359375 -1.421875 13.671875 8.265625 
Q 6.984375 17.96875 6.984375 36.375 
Q 6.984375 53.65625 15.1875 63.9375 
Q 23.390625 74.21875 37.203125 74.21875 
Q 40.921875 74.21875 44.703125 73.484375 
Q 48.484375 72.75 52.59375 71.296875 
z
" id="DejaVuSans-54"/>
      </defs>
      <g transform="translate(23.564687 195.384843)scale(0.17 -0.17)">
       <use xlink:href="#DejaVuSans-48"/>
       <use x="63.623047" xlink:href="#DejaVuSans-46"/>
       <use x="95.410156" xlink:href="#DejaVuSans-54"/>
      </g>
     </g>
    </g>
    <g id="ytick_5">
     <g id="line2d_10">
      <g>
       <use style="stroke:#000000;stroke-width:0.8;" x="57.6" xlink:href="#mcde93130f6" y="149.373561"/>
      </g>
     </g>
     <g id="text_11">
      <!-- 0.8 -->
      <defs>
       <path d="M 31.78125 34.625 
Q 24.75 34.625 20.71875 30.859375 
Q 16.703125 27.09375 16.703125 20.515625 
Q 16.703125 13.921875 20.71875 10.15625 
Q 24.75 6.390625 31.78125 6.390625 
Q 38.8125 6.390625 42.859375 10.171875 
Q 46.921875 13.96875 46.921875 20.515625 
Q 46.921875 27.09375 42.890625 30.859375 
Q 38.875 34.625 31.78125 34.625 
z
M 21.921875 38.8125 
Q 15.578125 40.375 12.03125 44.71875 
Q 8.5 49.078125 8.5 55.328125 
Q 8.5 64.0625 14.71875 69.140625 
Q 20.953125 74.21875 31.78125 74.21875 
Q 42.671875 74.21875 48.875 69.140625 
Q 55.078125 64.0625 55.078125 55.328125 
Q 55.078125 49.078125 51.53125 44.71875 
Q 48 40.375 41.703125 38.8125 
Q 48.828125 37.15625 52.796875 32.3125 
Q 56.78125 27.484375 56.78125 20.515625 
Q 56.78125 9.90625 50.3125 4.234375 
Q 43.84375 -1.421875 31.78125 -1.421875 
Q 19.734375 -1.421875 13.25 4.234375 
Q 6.78125 9.90625 6.78125 20.515625 
Q 6.78125 27.484375 10.78125 32.3125 
Q 14.796875 37.15625 21.921875 38.8125 
z
M 18.3125 54.390625 
Q 18.3125 48.734375 21.84375 45.5625 
Q 25.390625 42.390625 31.78125 42.390625 
Q 38.140625 42.390625 41.71875 45.5625 
Q 45.3125 48.734375 45.3125 54.390625 
Q 45.3125 60.0625 41.71875 63.234375 
Q 38.140625 66.40625 31.78125 66.40625 
Q 25.390625 66.40625 21.84375 63.234375 
Q 18.3125 60.0625 18.3125 54.390625 
z
" id="DejaVuSans-56"/>
      </defs>
      <g transform="translate(23.564687 155.832233)scale(0.17 -0.17)">
       <use xlink:href="#DejaVuSans-48"/>
       <use x="63.623047" xlink:href="#DejaVuSans-46"/>
       <use x="95.410156" xlink:href="#DejaVuSans-56"/>
      </g>
     </g>
    </g>
    <g id="ytick_6">
     <g id="line2d_11">
      <g>
       <use style="stroke:#000000;stroke-width:0.8;" x="57.6" xlink:href="#mcde93130f6" y="109.820951"/>
      </g>
     </g>
     <g id="text_12">
      <!-- 1.0 -->
      <g transform="translate(23.564687 116.279623)scale(0.17 -0.17)">
       <use xlink:href="#DejaVuSans-49"/>
       <use x="63.623047" xlink:href="#DejaVuSans-46"/>
       <use x="95.410156" xlink:href="#DejaVuSans-48"/>
      </g>
     </g>
    </g>
    <g id="ytick_7">
     <g id="line2d_12">
      <g>
       <use style="stroke:#000000;stroke-width:0.8;" x="57.6" xlink:href="#mcde93130f6" y="70.268341"/>
      </g>
     </g>
     <g id="text_13">
      <!-- 1.2 -->
      <g transform="translate(23.564687 76.727013)scale(0.17 -0.17)">
       <use xlink:href="#DejaVuSans-49"/>
       <use x="63.623047" xlink:href="#DejaVuSans-46"/>
       <use x="95.410156" xlink:href="#DejaVuSans-50"/>
      </g>
     </g>
    </g>
    <g id="text_14">
     <!-- Density -->
     <defs>
      <path d="M 19.671875 64.796875 
L 19.671875 8.109375 
L 31.59375 8.109375 
Q 46.6875 8.109375 53.6875 14.9375 
Q 60.6875 21.78125 60.6875 36.53125 
Q 60.6875 51.171875 53.6875 57.984375 
Q 46.6875 64.796875 31.59375 64.796875 
z
M 9.8125 72.90625 
L 30.078125 72.90625 
Q 51.265625 72.90625 61.171875 64.09375 
Q 71.09375 55.28125 71.09375 36.53125 
Q 71.09375 17.671875 61.125 8.828125 
Q 51.171875 0 30.078125 0 
L 9.8125 0 
z
" id="DejaVuSans-68"/>
      <path d="M 56.203125 29.59375 
L 56.203125 25.203125 
L 14.890625 25.203125 
Q 15.484375 15.921875 20.484375 11.0625 
Q 25.484375 6.203125 34.421875 6.203125 
Q 39.59375 6.203125 44.453125 7.46875 
Q 49.3125 8.734375 54.109375 11.28125 
L 54.109375 2.78125 
Q 49.265625 0.734375 44.1875 -0.34375 
Q 39.109375 -1.421875 33.890625 -1.421875 
Q 20.796875 -1.421875 13.15625 6.1875 
Q 5.515625 13.8125 5.515625 26.8125 
Q 5.515625 40.234375 12.765625 48.109375 
Q 20.015625 56 32.328125 56 
Q 43.359375 56 49.78125 48.890625 
Q 56.203125 41.796875 56.203125 29.59375 
z
M 47.21875 32.234375 
Q 47.125 39.59375 43.09375 43.984375 
Q 39.0625 48.390625 32.421875 48.390625 
Q 24.90625 48.390625 20.390625 44.140625 
Q 15.875 39.890625 15.1875 32.171875 
z
" id="DejaVuSans-101"/>
      <path d="M 32.171875 -5.078125 
Q 28.375 -14.84375 24.75 -17.8125 
Q 21.140625 -20.796875 15.09375 -20.796875 
L 7.90625 -20.796875 
L 7.90625 -13.28125 
L 13.1875 -13.28125 
Q 16.890625 -13.28125 18.9375 -11.515625 
Q 21 -9.765625 23.484375 -3.21875 
L 25.09375 0.875 
L 2.984375 54.6875 
L 12.5 54.6875 
L 29.59375 11.921875 
L 46.6875 54.6875 
L 56.203125 54.6875 
z
" id="DejaVuSans-121"/>
     </defs>
     <g transform="translate(13.325625 231.553781)rotate(-90)scale(0.3 -0.3)">
      <use xlink:href="#DejaVuSans-68"/>
      <use x="77.001953" xlink:href="#DejaVuSans-101"/>
      <use x="138.525391" xlink:href="#DejaVuSans-110"/>
      <use x="201.904297" xlink:href="#DejaVuSans-115"/>
      <use x="254.003906" xlink:href="#DejaVuSans-105"/>
      <use x="281.787109" xlink:href="#DejaVuSans-116"/>
      <use x="320.996094" xlink:href="#DejaVuSans-121"/>
     </g>
    </g>
   </g>
   <g id="line2d_13">
    <path clip-path="url(#p397c5b281f)" d="M 73.832727 307.584 
L 98.369108 307.474397 
L 98.685654 307.200532 
L 98.961617 306.63656 
L 99.278163 305.418698 
L 99.80574 302.268942 
L 100.276501 300.053322 
L 100.528115 299.689188 
L 100.706679 299.753501 
L 100.990759 300.179077 
L 101.631968 301.137471 
L 101.924164 301.206644 
L 102.232594 301.02169 
L 102.906269 300.565765 
L 103.214698 300.674357 
L 104.18057 301.1768 
L 104.553932 301.007622 
L 105.398055 300.545669 
L 105.925631 300.38397 
L 106.201595 299.980105 
L 106.59119 298.931153 
L 107.386613 296.776776 
L 107.808675 296.280688 
L 108.360601 296.004175 
L 109.237191 295.560625 
L 110.243645 294.785485 
L 110.568307 294.0394 
L 111.039068 292.285274 
L 111.761443 289.719272 
L 112.029289 289.428819 
L 112.224087 289.509408 
L 112.564983 289.986551 
L 112.905879 290.304719 
L 113.100676 290.218835 
L 113.37664 289.790909 
L 113.8961 289.023404 
L 114.123364 289.04608 
L 114.740223 289.281269 
L 114.943137 288.905302 
L 115.259683 287.732914 
L 115.844076 285.641666 
L 116.04699 285.528876 
L 116.225554 285.7205 
L 116.574567 286.536901 
L 117.175193 287.811048 
L 117.507972 288.071241 
L 117.719003 287.991552 
L 117.946266 287.629135 
L 118.287162 286.582894 
L 118.847205 284.953352 
L 119.033886 284.913385 
L 119.204334 285.178123 
L 119.480298 286.115557 
L 120.454286 289.795638 
L 120.681549 289.929754 
L 120.86823 289.774146 
L 121.127961 289.209357 
L 121.566255 287.624907 
L 123.343783 280.705492 
L 123.546697 280.638677 
L 123.733378 280.856913 
L 124.114857 281.766721 
L 124.520685 282.484772 
L 124.845348 282.617689 
L 125.113195 282.793987 
L 125.348575 283.280942 
L 125.721937 284.705206 
L 126.176465 286.185046 
L 126.363146 286.26363 
L 126.525477 286.027002 
L 126.801441 285.124279 
L 127.515698 282.696004 
L 127.759195 282.526051 
L 127.953993 282.658165 
L 128.254306 283.191646 
L 129.423092 285.519409 
L 129.723405 285.684827 
L 129.918202 285.554074 
L 130.153583 285.073876 
L 130.486362 283.800118 
L 130.957123 281.011481 
L 132.134025 273.444216 
L 132.26389 273.450605 
L 132.272006 273.45984 
L 132.426221 273.820768 
L 132.702184 275.169493 
L 133.440792 278.932682 
L 133.676172 279.178799 
L 133.862853 279.064811 
L 134.609578 278.381418 
L 134.812492 278.621894 
L 135.112805 279.39924 
L 135.956928 281.797903 
L 136.135492 281.776275 
L 136.338406 281.454559 
L 137.214995 279.732731 
L 137.442259 279.918515 
L 137.758805 280.115252 
L 137.904904 279.935851 
L 138.107818 279.248236 
L 138.45683 277.072369 
L 139.04934 273.600152 
L 139.390235 272.784455 
L 139.674315 272.581108 
L 139.860996 272.69127 
L 140.06391 273.134689 
L 140.32364 274.336177 
L 140.721352 277.436049 
L 141.476193 283.262478 
L 141.752156 283.987457 
L 141.898254 283.956939 
L 142.068702 283.584747 
L 142.360899 282.295481 
L 143.334887 277.616627 
L 143.6352 277.220012 
L 144.008562 277.142642 
L 144.300758 276.965075 
L 145.071832 276.310182 
L 145.282863 276.619254 
L 145.76174 277.874021 
L 146.264967 278.869709 
L 146.938642 279.675086 
L 147.222722 279.721493 
L 147.563618 279.494161 
L 147.896397 279.373592 
L 148.107428 279.551369 
L 148.440207 280.204392 
L 148.862268 280.88478 
L 149.057066 280.864057 
L 149.28433 280.560356 
L 149.860606 279.255369 
L 150.493698 278.08223 
L 150.761545 277.952251 
L 150.988809 278.094469 
L 151.784232 279.098982 
L 152.141361 279.700444 
L 152.620239 281.111555 
L 152.953018 281.746888 
L 153.131582 281.725582 
L 153.35073 281.395548 
L 153.918889 280.49346 
L 154.535748 280.082178 
L 154.795479 279.216865 
L 155.420454 277.013773 
L 155.534086 277.084019 
L 155.696418 277.566536 
L 155.980497 279.299337 
L 156.743455 284.163483 
L 157.051884 284.811478 
L 157.344081 284.966097 
L 157.774259 284.918683 
L 158.042105 284.68733 
L 158.285602 284.13153 
L 158.585915 282.790841 
L 159.478738 278.361938 
L 159.608603 278.418607 
L 159.787167 278.866194 
L 160.160529 280.600911 
L 160.671873 282.62454 
L 160.947836 282.989074 
L 161.126401 282.928313 
L 161.345548 282.553834 
L 161.69456 281.420232 
L 162.400701 279.121518 
L 162.676665 278.878646 
L 162.912045 278.961815 
L 163.30164 279.404517 
L 164.186346 280.415942 
L 164.446076 280.413687 
L 164.67334 280.171417 
L 164.941187 279.512228 
L 165.282083 278.000369 
L 166.361586 272.638027 
L 166.605083 272.478303 
L 167.39239 272.346489 
L 167.830684 271.724112 
L 168.285212 271.202574 
L 168.463777 271.278977 
L 168.658574 271.681121 
L 168.942654 272.902538 
L 169.770544 276.802463 
L 169.973458 276.903567 
L 170.160139 276.712669 
L 170.476685 276.005746 
L 170.833814 274.650336 
L 171.207176 272.22889 
L 172.319146 264.316528 
L 173.025287 261.454777 
L 173.260668 261.181029 
L 173.398649 261.316781 
L 173.60968 261.938617 
L 174.064208 264.214276 
L 174.608018 266.439887 
L 175.208643 268.681617 
L 176.353079 274.043593 
L 176.507294 273.963193 
L 176.767024 273.487297 
L 177.221552 272.745845 
L 177.432583 272.762396 
L 177.749129 273.102473 
L 178.049442 273.291876 
L 178.21989 273.14362 
L 178.439037 272.593346 
L 178.796166 270.965541 
L 179.770154 266.320421 
L 180.119166 265.58663 
L 180.297731 265.574257 
L 180.460062 265.847246 
L 180.703559 266.797699 
L 181.71813 271.519009 
L 181.726246 271.51699 
L 181.872345 271.35264 
L 182.156424 270.577298 
L 182.619069 269.47508 
L 182.838216 269.406212 
L 183.057363 269.606376 
L 183.552474 270.47611 
L 184.007002 271.061387 
L 184.250499 271.081328 
L 184.485879 270.854673 
L 184.95664 269.980263 
L 185.45175 269.298497 
L 185.768297 268.763643 
L 186.052376 267.754015 
L 187.196812 262.962539 
L 187.39161 262.987902 
L 187.67569 263.320921 
L 188.300665 264.063644 
L 188.617211 264.079373 
L 189.104205 264.08337 
L 189.420752 264.391055 
L 190.743752 265.919747 
L 190.987249 265.960853 
L 191.17393 265.733864 
L 191.425543 264.991204 
L 191.904421 262.659577 
L 192.358949 260.927123 
L 192.602446 260.66583 
L 192.78101 260.768428 
L 193.06509 261.269858 
L 193.860513 262.741865 
L 194.379974 263.555921 
L 194.688403 264.580639 
L 195.118581 266.941634 
L 195.662391 269.619522 
L 195.857189 269.810281 
L 195.865305 269.806419 
L 196.003287 269.597983 
L 196.230551 268.726985 
L 196.685079 265.850321 
L 197.36687 261.938876 
L 197.740232 260.920941 
L 197.999962 260.725061 
L 198.21911 260.821358 
L 198.527539 261.248867 
L 199.493411 262.776763 
L 199.680092 262.608981 
L 199.972288 261.964555 
L 200.564797 260.660923 
L 200.751478 260.663928 
L 200.946276 260.945945 
L 201.417037 262.195778 
L 201.7417 262.691013 
L 201.97708 262.695511 
L 202.439724 262.635338 
L 202.991651 262.818794 
L 203.162099 262.383183 
L 203.397479 261.036896 
L 203.787074 257.226371 
L 204.41205 251.532442 
L 204.69613 250.598099 
L 204.866578 250.550186 
L 205.053259 250.803358 
L 205.678234 251.78818 
L 205.840566 251.640444 
L 206.075946 251.04007 
L 206.554824 249.02007 
L 207.585627 244.847922 
L 207.902174 244.309276 
L 208.096971 244.316754 
L 208.340468 244.607454 
L 209.56607 246.424105 
L 209.728401 246.220677 
L 209.939432 245.530202 
L 210.239745 243.645437 
L 211.140684 237.418061 
L 211.246199 237.393082 
L 211.270549 237.418271 
L 211.416647 237.800401 
L 211.676377 239.265464 
L 212.325702 243.023395 
L 212.447451 243.099191 
L 212.479917 243.071741 
L 212.617899 242.738011 
L 212.861396 241.424873 
L 213.762335 236.009724 
L 213.932783 235.922978 
L 213.940899 235.928756 
L 214.086997 236.1795 
L 214.330494 237.133423 
L 215.255783 241.25128 
L 215.409998 241.237176 
L 215.580446 240.920122 
L 215.840176 239.886848 
L 216.254121 237.158422 
L 216.903446 233.038782 
L 217.146943 232.627134 
L 217.301158 232.714332 
L 217.593354 233.26047 
L 217.966716 233.794504 
L 218.16963 233.763769 
L 218.405011 233.449115 
L 218.73779 232.58649 
L 219.078686 231.054349 
L 219.452048 228.201428 
L 220.10949 220.93228 
L 220.588367 216.867476 
L 220.823748 216.251679 
L 220.929263 216.340583 
L 221.091594 216.902283 
L 221.367557 218.833366 
L 222.422711 227.112496 
L 222.52011 227.065172 
L 222.528226 227.050596 
L 222.674325 226.511164 
L 222.925938 224.519203 
L 223.615846 218.72351 
L 223.794411 218.506485 
L 223.802527 218.509394 
L 223.956742 218.702421 
L 224.297638 219.124858 
L 224.305755 219.11974 
L 224.427503 218.899802 
L 224.614184 217.989937 
L 224.938847 215.015802 
L 225.580056 209.282635 
L 225.872252 208.371101 
L 226.067049 208.284184 
L 226.253731 208.483092 
L 226.53781 209.185208 
L 227.268301 211.125259 
L 227.39005 210.978313 
L 227.568614 210.305157 
L 227.852694 208.176782 
L 228.542602 202.802313 
L 228.672467 202.666988 
L 228.704934 202.690399 
L 228.834799 202.988221 
L 229.118879 204.380327 
L 229.500357 205.910461 
L 229.605873 205.937902 
L 229.630222 205.912436 
L 229.768204 205.538835 
L 229.995468 204.138496 
L 230.441879 199.653687 
L 231.40775 190.156203 
L 231.683714 189.079606 
L 231.772996 189.089156 
L 231.797345 189.126163 
L 231.935327 189.620641 
L 232.162591 191.430797 
L 232.673935 197.904791 
L 233.120346 202.121771 
L 233.404426 203.107643 
L 233.60734 203.220432 
L 233.818371 203.057039 
L 234.053751 202.583352 
L 234.248549 201.637232 
L 234.451463 199.317592 
L 234.67061 193.746255 
L 234.922224 180.642568 
L 235.230653 151.153816 
L 236.139709 54.147047 
L 236.147825 54.144 
L 236.164058 54.213199 
L 236.237107 55.763894 
L 236.391322 65.415894 
L 236.675402 100.547982 
L 237.397776 191.851694 
L 237.706206 205.928112 
L 237.957819 209.43061 
L 238.152617 209.930286 
L 238.347415 209.87998 
L 238.615261 209.883695 
L 238.899341 209.887446 
L 239.053556 209.565125 
L 239.248354 208.536682 
L 239.532433 205.626496 
L 240.238575 197.936357 
L 240.295391 197.890673 
L 240.34409 197.961139 
L 240.465839 198.583005 
L 240.684986 201.16558 
L 241.204446 210.934343 
L 241.772606 219.546375 
L 242.316416 224.586886 
L 242.706011 226.506475 
L 242.957624 226.885136 
L 243.119956 226.813277 
L 243.355336 226.395652 
L 243.777398 225.12536 
L 244.142643 223.350661 
L 244.564705 219.955643 
L 245.043582 216.588287 
L 245.197797 216.376831 
L 245.222147 216.393236 
L 245.343895 216.666571 
L 245.579275 217.89107 
L 246.147435 220.842509 
L 246.399049 221.135689 
L 246.634429 221.386949 
L 246.812994 222.017623 
L 247.056491 223.881292 
L 247.502902 229.557946 
L 247.965546 234.253551 
L 248.233393 235.181057 
L 248.42819 235.267808 
L 249.158681 234.957535 
L 249.361595 234.664347 
L 249.588859 233.873506 
L 249.889172 231.890095 
L 250.335583 227.19373 
L 251.12289 218.926539 
L 251.333921 218.416051 
L 251.43132 218.565767 
L 251.601768 219.398691 
L 251.893964 222.18316 
L 252.721854 230.533664 
L 252.941001 230.983528 
L 253.054633 230.841443 
L 253.241314 230.135189 
L 253.679609 227.301195 
L 254.028621 225.750224 
L 254.142253 225.686894 
L 254.174719 225.718767 
L 254.304585 226.08005 
L 254.515615 227.464978 
L 254.864628 231.535231 
L 255.611352 240.325146 
L 255.838616 240.948138 
L 255.944131 240.842007 
L 256.130812 240.208807 
L 256.804487 237.686984 
L 257.096683 237.519684 
L 257.299598 237.296463 
L 257.502512 236.663614 
L 257.786592 234.910462 
L 258.914794 226.979114 
L 259.044659 226.920482 
L 259.069009 226.941799 
L 259.206991 227.267362 
L 259.418021 228.460024 
L 259.767034 231.989097 
L 260.327077 237.296217 
L 260.489408 237.610665 
L 260.513758 237.595383 
L 260.62739 237.320085 
L 260.838421 236.06643 
L 261.698777 230.278902 
L 261.917924 230.076142 
L 262.104605 230.214845 
L 262.502317 230.892651 
L 263.378906 232.782582 
L 263.979532 234.053714 
L 264.182446 234.079364 
L 264.36101 233.823402 
L 264.620741 232.969256 
L 265.464864 229.58717 
L 265.505446 229.609612 
L 265.627195 229.87578 
L 265.821992 230.943565 
L 266.146655 234.203868 
L 266.982661 242.942701 
L 267.315441 244.27355 
L 267.599521 244.646247 
L 268.346245 245.218235 
L 268.68714 246.079434 
L 269.620546 248.664159 
L 269.758527 248.550045 
L 269.953325 248.019239 
L 270.302337 246.25872 
L 270.854264 243.711569 
L 271.12211 243.336878 
L 271.389957 243.33359 
L 272.087982 243.590728 
L 272.299013 244.153774 
L 272.623675 245.801155 
L 273.110669 248.072179 
L 273.248651 248.160797 
L 273.273001 248.142682 
L 273.410982 247.857694 
L 273.670712 246.670017 
L 274.246989 244.0581 
L 274.40932 243.970695 
L 274.417436 243.976356 
L 274.555418 244.217334 
L 274.782682 245.165821 
L 275.204743 248.129549 
L 275.73232 251.368863 
L 275.983934 251.838727 
L 276.154382 251.786217 
L 276.803707 251.32803 
L 277.331284 251.509305 
L 277.509848 251.11652 
L 277.769578 249.888157 
L 278.767916 244.481283 
L 278.930247 244.462908 
L 279.092579 244.738927 
L 279.360425 245.725695 
L 279.944818 249.008116 
L 280.415579 251.032149 
L 280.707776 251.484511 
L 281.064904 251.579375 
L 281.316518 251.776518 
L 281.624948 252.371096 
L 283.361893 256.246611 
L 283.564807 256.274139 
L 283.751488 256.02591 
L 284.043684 255.184374 
L 284.717359 253.196641 
L 284.887807 253.194107 
L 285.066372 253.491926 
L 285.423501 254.667472 
L 285.788746 255.549242 
L 285.934844 255.519823 
L 286.105292 255.148281 
L 286.405605 253.818254 
L 286.916949 251.740415 
L 287.071164 251.672948 
L 287.07928 251.679072 
L 287.225378 251.952992 
L 287.468875 253.011971 
L 288.377931 257.480358 
L 288.588962 257.594825 
L 288.799992 257.423187 
L 289.165238 256.778769 
L 289.619766 255.511391 
L 290.171692 254.070494 
L 290.374606 254.013458 
L 290.634336 254.245679 
L 290.926533 254.398944 
L 291.113214 254.231794 
L 291.632674 253.608954 
L 291.657024 253.629722 
L 291.811239 253.954293 
L 292.054736 255.133295 
L 292.809576 259.187033 
L 292.971908 259.217773 
L 293.158589 258.919627 
L 293.645583 258.116171 
L 293.799797 258.2294 
L 294.035178 258.770284 
L 294.595221 260.092003 
L 294.757552 260.052888 
L 294.95235 259.687393 
L 295.293246 258.45392 
L 296.340283 254.451026 
L 296.58378 254.222764 
L 296.729878 254.369467 
L 296.932792 254.987356 
L 297.241222 256.803885 
L 298.16651 262.765428 
L 298.385657 263.019105 
L 298.539872 262.887567 
L 298.791486 262.275537 
L 299.448928 260.589186 
L 299.611259 260.616504 
L 299.806057 260.948432 
L 300.617713 262.624608 
L 300.828744 262.478765 
L 301.323855 262.101084 
L 301.543002 262.243974 
L 302.500757 263.150113 
L 303.304297 263.051182 
L 303.55591 263.522461 
L 304.586714 265.845375 
L 304.838328 265.701531 
L 305.146757 265.587879 
L 305.317205 265.782115 
L 305.552586 266.465708 
L 306.242494 268.702846 
L 306.364242 268.597138 
L 306.55904 268.027382 
L 307.435629 264.984519 
L 307.752175 264.865641 
L 308.093071 264.670375 
L 308.839795 264.088445 
L 309.050826 264.304694 
L 309.326789 264.972313 
L 309.700151 266.533948 
L 310.308894 270.230883 
L 310.90952 273.368924 
L 311.209833 273.980677 
L 311.372164 273.960648 
L 311.550728 273.651902 
L 311.851041 272.588703 
L 312.484134 270.361691 
L 312.719514 270.204651 
L 313.03606 270.340733 
L 313.287674 270.32655 
L 313.523054 270.043313 
L 314.253545 269.009201 
L 314.537625 269.090798 
L 314.878521 269.134087 
L 315.105785 268.895608 
L 315.438564 268.144355 
L 316.01484 266.889075 
L 316.185288 266.907845 
L 316.347619 267.226978 
L 316.583 268.284034 
L 316.972595 271.297448 
L 317.556988 275.489701 
L 317.808601 276.032134 
L 317.938466 275.952845 
L 318.117031 275.483168 
L 318.417344 273.946388 
L 319.326399 268.902674 
L 319.480614 268.842096 
L 319.48873 268.848186 
L 319.634829 269.106414 
L 319.894559 270.126849 
L 320.706215 273.56028 
L 320.925363 273.710005 
L 321.103927 273.560058 
L 321.420473 272.921953 
L 322.012983 271.805544 
L 322.832756 270.727077 
L 323.83921 268.619335 
L 324.034008 268.773241 
L 324.853781 269.73397 
L 324.870014 269.720722 
L 325.089161 269.37692 
L 325.973867 267.66406 
L 325.981984 267.668297 
L 326.152432 267.889925 
L 326.412162 268.671012 
L 327.532248 272.564175 
L 327.783862 272.646161 
L 328.067941 272.47303 
L 328.717267 272.035826 
L 328.96888 272.163114 
L 329.399058 272.712872 
L 329.756187 272.998929 
L 329.950985 272.900408 
L 330.178249 272.487803 
L 330.559727 271.219715 
L 331.054838 269.791301 
L 331.265869 269.68915 
L 331.45255 269.871108 
L 331.809679 270.628488 
L 332.353488 271.65176 
L 332.580752 271.711378 
L 332.767433 271.50955 
L 333.051513 270.797496 
L 333.587207 269.495127 
L 333.741421 269.540004 
L 333.928102 269.927128 
L 334.38263 271.61555 
L 334.731642 272.431598 
L 334.967023 272.523036 
L 335.486483 272.554527 
L 335.70563 272.962347 
L 336.022177 274.112492 
L 336.882533 277.46367 
L 337.085447 277.552214 
L 337.280244 277.350178 
L 338.108134 276.236254 
L 338.335398 276.418766 
L 338.724993 277.096325 
L 339.285036 277.965759 
L 339.528533 278.010241 
L 339.755797 277.806635 
L 340.096693 277.137052 
L 340.746018 275.869736 
L 340.924583 275.8924 
L 341.11938 276.197434 
L 341.484626 277.304371 
L 341.890454 278.269511 
L 342.085252 278.308001 
L 342.288166 278.057426 
L 342.864442 276.783509 
L 343.34332 276.073608 
L 343.667982 275.921355 
L 343.935829 276.04936 
L 344.439056 276.332372 
L 344.609504 276.108352 
L 344.828651 275.373481 
L 345.16143 273.315202 
L 345.851339 268.971652 
L 346.046136 268.756965 
L 346.176001 268.929737 
L 346.411382 269.721751 
L 347.117523 272.256333 
L 347.344787 272.388027 
L 347.563934 272.236263 
L 349.292763 270.133954 
L 349.998904 268.587745 
L 350.145002 268.687222 
L 350.3398 269.165311 
L 350.761861 270.993281 
L 351.102757 271.970621 
L 351.240739 271.955489 
L 351.394954 271.604961 
L 351.646567 270.359425 
L 352.555623 265.327319 
L 352.693604 265.338512 
L 352.847819 265.686284 
L 353.107549 266.941337 
L 354.495482 274.768677 
L 354.682163 274.825881 
L 354.852611 274.573912 
L 355.152924 273.614085 
L 355.7292 271.841841 
L 355.972697 271.683966 
L 356.208078 271.820249 
L 356.695072 272.446913 
L 357.133366 273.332902 
L 358.001839 275.279859 
L 358.220986 275.267651 
L 358.521299 274.959235 
L 359.130042 274.353479 
L 359.738784 274.13452 
L 360.014747 274.229981 
L 360.290711 274.606084 
L 360.88322 275.484346 
L 361.029318 275.345577 
L 361.232232 274.765026 
L 361.629944 272.739078 
L 362.003306 271.351535 
L 362.141288 271.311813 
L 362.157521 271.326751 
L 362.311736 271.661793 
L 362.603932 272.994594 
L 363.26949 275.98258 
L 363.805184 278.090655 
L 364.762939 282.549999 
L 365.16065 283.036995 
L 365.477197 283.592073 
L 365.931724 284.979379 
L 366.451185 286.322403 
L 366.710915 286.504108 
L 366.897596 286.372551 
L 367.141093 285.867719 
L 367.538804 284.422542 
L 368.074498 282.665732 
L 368.269295 282.576388 
L 368.42351 282.805809 
L 368.667007 283.670333 
L 369.283866 287.056263 
L 369.811443 289.200881 
L 370.428302 290.755467 
L 370.688032 290.99838 
L 370.826014 290.873684 
L 371.004578 290.339508 
L 371.272425 288.677396 
L 371.9461 284.209494 
L 372.027266 284.321555 
L 372.165247 285.067608 
L 372.392511 287.781554 
L 372.911972 297.626339 
L 373.382732 304.382555 
L 373.723628 306.557371 
L 374.032058 307.293054 
L 374.348604 307.520673 
L 374.892414 307.581335 
L 381.66163 307.584 
L 398.487273 307.584 
L 398.487273 307.584 
" style="fill:none;stroke:#ff7f0e;stroke-linecap:square;stroke-width:1.5;"/>
   </g>
   <g id="patch_103">
    <path d="M 57.6 307.584 
L 57.6 41.472 
" style="fill:none;stroke:#000000;stroke-linecap:square;stroke-linejoin:miter;stroke-width:0.8;"/>
   </g>
   <g id="patch_104">
    <path d="M 414.72 307.584 
L 414.72 41.472 
" style="fill:none;stroke:#000000;stroke-linecap:square;stroke-linejoin:miter;stroke-width:0.8;"/>
   </g>
   <g id="patch_105">
    <path d="M 57.6 307.584 
L 414.72 307.584 
" style="fill:none;stroke:#000000;stroke-linecap:square;stroke-linejoin:miter;stroke-width:0.8;"/>
   </g>
   <g id="patch_106">
    <path d="M 57.6 41.472 
L 414.72 41.472 
" style="fill:none;stroke:#000000;stroke-linecap:square;stroke-linejoin:miter;stroke-width:0.8;"/>
   </g>
  </g>
 </g>
 <defs>
  <clipPath id="p397c5b281f">
   <rect height="266.112" width="357.12" x="57.6" y="41.472"/>
  </clipPath>
 </defs>
</svg>
