<?xml version="1.0" encoding="utf-8" standalone="no"?>
<!DOCTYPE svg PUBLIC "-//W3C//DTD SVG 1.1//EN"
  "http://www.w3.org/Graphics/SVG/1.1/DTD/svg11.dtd">
<!-- Created with matplotlib (https://matplotlib.org/) -->
<svg height="345.6pt" version="1.1" viewBox="0 0 460.8 345.6" width="460.8pt" xmlns="http://www.w3.org/2000/svg" xmlns:xlink="http://www.w3.org/1999/xlink">
 <defs>
  <style type="text/css">
*{stroke-linecap:butt;stroke-linejoin:round;}
  </style>
 </defs>
 <g id="figure_1">
  <g id="patch_1">
   <path d="M 0 345.6 
L 460.8 345.6 
L 460.8 0 
L 0 0 
z
" style="fill:#ffffff;"/>
  </g>
  <g id="axes_1">
   <g id="patch_2">
    <path d="M 57.6 307.584 
L 414.72 307.584 
L 414.72 41.472 
L 57.6 41.472 
z
" style="fill:#ffffff;"/>
   </g>
   <g id="patch_3">
    <path clip-path="url(#pcf5a74865f)" d="M 109.377247 307.584 
L 112.005775 307.584 
L 112.005775 303.49543 
L 109.377247 303.49543 
z
" style="fill:#1f77b4;"/>
   </g>
   <g id="patch_4">
    <path clip-path="url(#pcf5a74865f)" d="M 112.005775 307.584 
L 114.634311 307.584 
L 114.634311 304.517582 
L 112.005775 304.517582 
z
" style="fill:#1f77b4;"/>
   </g>
   <g id="patch_5">
    <path clip-path="url(#pcf5a74865f)" d="M 114.634319 307.584 
L 117.262847 307.584 
L 117.262847 303.49543 
L 114.634319 303.49543 
z
" style="fill:#1f77b4;"/>
   </g>
   <g id="patch_6">
    <path clip-path="url(#pcf5a74865f)" d="M 117.262839 307.584 
L 119.891374 307.584 
L 119.891374 305.539721 
L 117.262839 305.539721 
z
" style="fill:#1f77b4;"/>
   </g>
   <g id="patch_7">
    <path clip-path="url(#pcf5a74865f)" d="M 119.891374 307.584 
L 122.519902 307.584 
L 122.519902 303.49543 
L 119.891374 303.49543 
z
" style="fill:#1f77b4;"/>
   </g>
   <g id="patch_8">
    <path clip-path="url(#pcf5a74865f)" d="M 122.519902 307.584 
L 125.148438 307.584 
L 125.148438 304.517582 
L 122.519902 304.517582 
z
" style="fill:#1f77b4;"/>
   </g>
   <g id="patch_9">
    <path clip-path="url(#pcf5a74865f)" d="M 125.148446 307.584 
L 127.776974 307.584 
L 127.776974 298.384718 
L 125.148446 298.384718 
z
" style="fill:#1f77b4;"/>
   </g>
   <g id="patch_10">
    <path clip-path="url(#pcf5a74865f)" d="M 127.776966 307.584 
L 130.405501 307.584 
L 130.405501 303.495442 
L 127.776966 303.495442 
z
" style="fill:#1f77b4;"/>
   </g>
   <g id="patch_11">
    <path clip-path="url(#pcf5a74865f)" d="M 130.405501 307.584 
L 133.034029 307.584 
L 133.034029 295.318291 
L 130.405501 295.318291 
z
" style="fill:#1f77b4;"/>
   </g>
   <g id="patch_12">
    <path clip-path="url(#pcf5a74865f)" d="M 133.034029 307.584 
L 135.662565 307.584 
L 135.662565 297.362606 
L 133.034029 297.362606 
z
" style="fill:#1f77b4;"/>
   </g>
   <g id="patch_13">
    <path clip-path="url(#pcf5a74865f)" d="M 135.662573 307.584 
L 138.291101 307.584 
L 138.291101 299.40686 
L 135.662573 299.40686 
z
" style="fill:#1f77b4;"/>
   </g>
   <g id="patch_14">
    <path clip-path="url(#pcf5a74865f)" d="M 138.291093 307.584 
L 140.919628 307.584 
L 140.919628 298.384745 
L 138.291093 298.384745 
z
" style="fill:#1f77b4;"/>
   </g>
   <g id="patch_15">
    <path clip-path="url(#pcf5a74865f)" d="M 140.919628 307.584 
L 143.548156 307.584 
L 143.548156 294.296148 
L 140.919628 294.296148 
z
" style="fill:#1f77b4;"/>
   </g>
   <g id="patch_16">
    <path clip-path="url(#pcf5a74865f)" d="M 143.548156 307.584 
L 146.176692 307.584 
L 146.176692 286.119072 
L 143.548156 286.119072 
z
" style="fill:#1f77b4;"/>
   </g>
   <g id="patch_17">
    <path clip-path="url(#pcf5a74865f)" d="M 146.1767 307.584 
L 148.805227 307.584 
L 148.805227 295.318291 
L 146.1767 295.318291 
z
" style="fill:#1f77b4;"/>
   </g>
   <g id="patch_18">
    <path clip-path="url(#pcf5a74865f)" d="M 148.80522 307.584 
L 151.433755 307.584 
L 151.433755 293.274048 
L 148.80522 293.274048 
z
" style="fill:#1f77b4;"/>
   </g>
   <g id="patch_19">
    <path clip-path="url(#pcf5a74865f)" d="M 151.433755 307.584 
L 154.062283 307.584 
L 154.062283 296.340433 
L 151.433755 296.340433 
z
" style="fill:#1f77b4;"/>
   </g>
   <g id="patch_20">
    <path clip-path="url(#pcf5a74865f)" d="M 154.062283 307.584 
L 156.690819 307.584 
L 156.690819 293.274048 
L 154.062283 293.274048 
z
" style="fill:#1f77b4;"/>
   </g>
   <g id="patch_21">
    <path clip-path="url(#pcf5a74865f)" d="M 156.690827 307.584 
L 159.319354 307.584 
L 159.319354 295.318291 
L 156.690827 295.318291 
z
" style="fill:#1f77b4;"/>
   </g>
   <g id="patch_22">
    <path clip-path="url(#pcf5a74865f)" d="M 159.319347 307.584 
L 161.947882 307.584 
L 161.947882 295.318327 
L 159.319347 295.318327 
z
" style="fill:#1f77b4;"/>
   </g>
   <g id="patch_23">
    <path clip-path="url(#pcf5a74865f)" d="M 161.947882 307.584 
L 164.57641 307.584 
L 164.57641 291.229721 
L 161.947882 291.229721 
z
" style="fill:#1f77b4;"/>
   </g>
   <g id="patch_24">
    <path clip-path="url(#pcf5a74865f)" d="M 164.57641 307.584 
L 167.204946 307.584 
L 167.204946 285.096932 
L 164.57641 285.096932 
z
" style="fill:#1f77b4;"/>
   </g>
   <g id="patch_25">
    <path clip-path="url(#pcf5a74865f)" d="M 167.204954 307.584 
L 169.833481 307.584 
L 169.833481 287.141151 
L 167.204954 287.141151 
z
" style="fill:#1f77b4;"/>
   </g>
   <g id="patch_26">
    <path clip-path="url(#pcf5a74865f)" d="M 169.833474 307.584 
L 172.462005 307.584 
L 172.462005 284.074758 
L 169.833474 284.074758 
z
" style="fill:#1f77b4;"/>
   </g>
   <g id="patch_27">
    <path clip-path="url(#pcf5a74865f)" d="M 172.462002 307.584 
L 175.090533 307.584 
L 175.090533 279.986195 
L 172.462002 279.986195 
z
" style="fill:#1f77b4;"/>
   </g>
   <g id="patch_28">
    <path clip-path="url(#pcf5a74865f)" d="M 175.090537 307.584 
L 177.719069 307.584 
L 177.719069 286.11904 
L 175.090537 286.11904 
z
" style="fill:#1f77b4;"/>
   </g>
   <g id="patch_29">
    <path clip-path="url(#pcf5a74865f)" d="M 177.719065 307.584 
L 180.347597 307.584 
L 180.347597 285.096899 
L 177.719065 285.096899 
z
" style="fill:#1f77b4;"/>
   </g>
   <g id="patch_30">
    <path clip-path="url(#pcf5a74865f)" d="M 180.347601 307.584 
L 182.976132 307.584 
L 182.976132 281.008335 
L 180.347601 281.008335 
z
" style="fill:#1f77b4;"/>
   </g>
   <g id="patch_31">
    <path clip-path="url(#pcf5a74865f)" d="M 182.976129 307.584 
L 185.60466 307.584 
L 185.60466 284.074758 
L 182.976129 284.074758 
z
" style="fill:#1f77b4;"/>
   </g>
   <g id="patch_32">
    <path clip-path="url(#pcf5a74865f)" d="M 185.604664 307.584 
L 188.233196 307.584 
L 188.233196 278.964054 
L 185.604664 278.964054 
z
" style="fill:#1f77b4;"/>
   </g>
   <g id="patch_33">
    <path clip-path="url(#pcf5a74865f)" d="M 188.233192 307.584 
L 190.861724 307.584 
L 190.861724 279.986195 
L 188.233192 279.986195 
z
" style="fill:#1f77b4;"/>
   </g>
   <g id="patch_34">
    <path clip-path="url(#pcf5a74865f)" d="M 190.861728 307.584 
L 193.490259 307.584 
L 193.490259 276.919772 
L 190.861728 276.919772 
z
" style="fill:#1f77b4;"/>
   </g>
   <g id="patch_35">
    <path clip-path="url(#pcf5a74865f)" d="M 193.490256 307.584 
L 196.118787 307.584 
L 196.118787 277.941913 
L 193.490256 277.941913 
z
" style="fill:#1f77b4;"/>
   </g>
   <g id="patch_36">
    <path clip-path="url(#pcf5a74865f)" d="M 196.118791 307.584 
L 198.747323 307.584 
L 198.747323 270.786926 
L 196.118791 270.786926 
z
" style="fill:#1f77b4;"/>
   </g>
   <g id="patch_37">
    <path clip-path="url(#pcf5a74865f)" d="M 198.747319 307.584 
L 201.375851 307.584 
L 201.375851 267.720503 
L 198.747319 267.720503 
z
" style="fill:#1f77b4;"/>
   </g>
   <g id="patch_38">
    <path clip-path="url(#pcf5a74865f)" d="M 201.375855 307.584 
L 204.004384 307.584 
L 204.004384 266.698332 
L 201.375855 266.698332 
z
" style="fill:#1f77b4;"/>
   </g>
   <g id="patch_39">
    <path clip-path="url(#pcf5a74865f)" d="M 204.004384 307.584 
L 206.632916 307.584 
L 206.632916 274.87549 
L 204.004384 274.87549 
z
" style="fill:#1f77b4;"/>
   </g>
   <g id="patch_40">
    <path clip-path="url(#pcf5a74865f)" d="M 206.632916 307.584 
L 209.261448 307.584 
L 209.261448 266.698362 
L 206.632916 266.698362 
z
" style="fill:#1f77b4;"/>
   </g>
   <g id="patch_41">
    <path clip-path="url(#pcf5a74865f)" d="M 209.261448 307.584 
L 211.88998 307.584 
L 211.88998 258.521235 
L 209.261448 258.521235 
z
" style="fill:#1f77b4;"/>
   </g>
   <g id="patch_42">
    <path clip-path="url(#pcf5a74865f)" d="M 211.88998 307.584 
L 214.518511 307.584 
L 214.518511 247.277684 
L 211.88998 247.277684 
z
" style="fill:#1f77b4;"/>
   </g>
   <g id="patch_43">
    <path clip-path="url(#pcf5a74865f)" d="M 214.518511 307.584 
L 217.147043 307.584 
L 217.147043 235.011993 
L 214.518511 235.011993 
z
" style="fill:#1f77b4;"/>
   </g>
   <g id="patch_44">
    <path clip-path="url(#pcf5a74865f)" d="M 217.147043 307.584 
L 219.775575 307.584 
L 219.775575 244.211261 
L 217.147043 244.211261 
z
" style="fill:#1f77b4;"/>
   </g>
   <g id="patch_45">
    <path clip-path="url(#pcf5a74865f)" d="M 219.775575 307.584 
L 222.404106 307.584 
L 222.404106 232.967684 
L 219.775575 232.967684 
z
" style="fill:#1f77b4;"/>
   </g>
   <g id="patch_46">
    <path clip-path="url(#pcf5a74865f)" d="M 222.404106 307.584 
L 225.032637 307.584 
L 225.032637 235.011993 
L 222.404106 235.011993 
z
" style="fill:#1f77b4;"/>
   </g>
   <g id="patch_47">
    <path clip-path="url(#pcf5a74865f)" d="M 225.032637 307.584 
L 227.661169 307.584 
L 227.661169 227.857006 
L 225.032637 227.857006 
z
" style="fill:#1f77b4;"/>
   </g>
   <g id="patch_48">
    <path clip-path="url(#pcf5a74865f)" d="M 227.661169 307.584 
L 230.2897 307.584 
L 230.2897 218.657721 
L 227.661169 218.657721 
z
" style="fill:#1f77b4;"/>
   </g>
   <g id="patch_49">
    <path clip-path="url(#pcf5a74865f)" d="M 230.2897 307.584 
L 232.918232 307.584 
L 232.918232 206.392047 
L 230.2897 206.392047 
z
" style="fill:#1f77b4;"/>
   </g>
   <g id="patch_50">
    <path clip-path="url(#pcf5a74865f)" d="M 232.918232 307.584 
L 235.546764 307.584 
L 235.546764 216.613448 
L 232.918232 216.613448 
z
" style="fill:#1f77b4;"/>
   </g>
   <g id="patch_51">
    <path clip-path="url(#pcf5a74865f)" d="M 235.546764 307.584 
L 238.175295 307.584 
L 238.175295 116.443626 
L 235.546764 116.443626 
z
" style="fill:#1f77b4;"/>
   </g>
   <g id="patch_52">
    <path clip-path="url(#pcf5a74865f)" d="M 238.175295 307.584 
L 240.803827 307.584 
L 240.803827 220.70202 
L 238.175295 220.70202 
z
" style="fill:#1f77b4;"/>
   </g>
   <g id="patch_53">
    <path clip-path="url(#pcf5a74865f)" d="M 240.803827 307.584 
L 243.432359 307.584 
L 243.432359 262.609798 
L 240.803827 262.609798 
z
" style="fill:#1f77b4;"/>
   </g>
   <g id="patch_54">
    <path clip-path="url(#pcf5a74865f)" d="M 243.432359 307.584 
L 246.06089 307.584 
L 246.06089 233.989852 
L 243.432359 233.989852 
z
" style="fill:#1f77b4;"/>
   </g>
   <g id="patch_55">
    <path clip-path="url(#pcf5a74865f)" d="M 246.06089 307.584 
L 248.689422 307.584 
L 248.689422 243.189121 
L 246.06089 243.189121 
z
" style="fill:#1f77b4;"/>
   </g>
   <g id="patch_56">
    <path clip-path="url(#pcf5a74865f)" d="M 248.689422 307.584 
L 251.317953 307.584 
L 251.317953 235.011966 
L 248.689422 235.011966 
z
" style="fill:#1f77b4;"/>
   </g>
   <g id="patch_57">
    <path clip-path="url(#pcf5a74865f)" d="M 251.317954 307.584 
L 253.946486 307.584 
L 253.946486 232.967739 
L 251.317954 232.967739 
z
" style="fill:#1f77b4;"/>
   </g>
   <g id="patch_58">
    <path clip-path="url(#pcf5a74865f)" d="M 253.946486 307.584 
L 256.575017 307.584 
L 256.575017 238.078416 
L 253.946486 238.078416 
z
" style="fill:#1f77b4;"/>
   </g>
   <g id="patch_59">
    <path clip-path="url(#pcf5a74865f)" d="M 256.575017 307.584 
L 259.203547 307.584 
L 259.203547 238.078365 
L 256.575017 238.078365 
z
" style="fill:#1f77b4;"/>
   </g>
   <g id="patch_60">
    <path clip-path="url(#pcf5a74865f)" d="M 259.203547 307.584 
L 261.832079 307.584 
L 261.832079 232.967711 
L 259.203547 232.967711 
z
" style="fill:#1f77b4;"/>
   </g>
   <g id="patch_61">
    <path clip-path="url(#pcf5a74865f)" d="M 261.832079 307.584 
L 264.460611 307.584 
L 264.460611 246.255543 
L 261.832079 246.255543 
z
" style="fill:#1f77b4;"/>
   </g>
   <g id="patch_62">
    <path clip-path="url(#pcf5a74865f)" d="M 264.460611 307.584 
L 267.089142 307.584 
L 267.089142 238.078416 
L 264.460611 238.078416 
z
" style="fill:#1f77b4;"/>
   </g>
   <g id="patch_63">
    <path clip-path="url(#pcf5a74865f)" d="M 267.08914 307.584 
L 269.717672 307.584 
L 269.717672 242.167028 
L 267.08914 242.167028 
z
" style="fill:#1f77b4;"/>
   </g>
   <g id="patch_64">
    <path clip-path="url(#pcf5a74865f)" d="M 269.717672 307.584 
L 272.346204 307.584 
L 272.346204 243.189121 
L 269.717672 243.189121 
z
" style="fill:#1f77b4;"/>
   </g>
   <g id="patch_65">
    <path clip-path="url(#pcf5a74865f)" d="M 272.346208 307.584 
L 274.974736 307.584 
L 274.974736 260.565447 
L 272.346208 260.565447 
z
" style="fill:#1f77b4;"/>
   </g>
   <g id="patch_66">
    <path clip-path="url(#pcf5a74865f)" d="M 274.974736 307.584 
L 277.603267 307.584 
L 277.603267 252.388389 
L 274.974736 252.388389 
z
" style="fill:#1f77b4;"/>
   </g>
   <g id="patch_67">
    <path clip-path="url(#pcf5a74865f)" d="M 277.603264 307.584 
L 280.231795 307.584 
L 280.231795 255.454812 
L 277.603264 255.454812 
z
" style="fill:#1f77b4;"/>
   </g>
   <g id="patch_68">
    <path clip-path="url(#pcf5a74865f)" d="M 280.231799 307.584 
L 282.860331 307.584 
L 282.860331 255.454812 
L 280.231799 255.454812 
z
" style="fill:#1f77b4;"/>
   </g>
   <g id="patch_69">
    <path clip-path="url(#pcf5a74865f)" d="M 282.860327 307.584 
L 285.488859 307.584 
L 285.488859 239.100557 
L 282.860327 239.100557 
z
" style="fill:#1f77b4;"/>
   </g>
   <g id="patch_70">
    <path clip-path="url(#pcf5a74865f)" d="M 285.488863 307.584 
L 288.117394 307.584 
L 288.117394 247.277684 
L 285.488863 247.277684 
z
" style="fill:#1f77b4;"/>
   </g>
   <g id="patch_71">
    <path clip-path="url(#pcf5a74865f)" d="M 288.117391 307.584 
L 290.745922 307.584 
L 290.745922 235.011993 
L 288.117391 235.011993 
z
" style="fill:#1f77b4;"/>
   </g>
   <g id="patch_72">
    <path clip-path="url(#pcf5a74865f)" d="M 290.745926 307.584 
L 293.374458 307.584 
L 293.374458 239.100557 
L 290.745926 239.100557 
z
" style="fill:#1f77b4;"/>
   </g>
   <g id="patch_73">
    <path clip-path="url(#pcf5a74865f)" d="M 293.374454 307.584 
L 296.002986 307.584 
L 296.002986 242.16698 
L 293.374454 242.16698 
z
" style="fill:#1f77b4;"/>
   </g>
   <g id="patch_74">
    <path clip-path="url(#pcf5a74865f)" d="M 296.00299 307.584 
L 298.631521 307.584 
L 298.631521 249.321966 
L 296.00299 249.321966 
z
" style="fill:#1f77b4;"/>
   </g>
   <g id="patch_75">
    <path clip-path="url(#pcf5a74865f)" d="M 298.631518 307.584 
L 301.260053 307.584 
L 301.260053 255.454812 
L 298.631518 255.454812 
z
" style="fill:#1f77b4;"/>
   </g>
   <g id="patch_76">
    <path clip-path="url(#pcf5a74865f)" d="M 301.260053 307.584 
L 303.888589 307.584 
L 303.888589 253.41061 
L 301.260053 253.41061 
z
" style="fill:#1f77b4;"/>
   </g>
   <g id="patch_77">
    <path clip-path="url(#pcf5a74865f)" d="M 303.888589 307.584 
L 306.517117 307.584 
L 306.517117 261.58759 
L 303.888589 261.58759 
z
" style="fill:#1f77b4;"/>
   </g>
   <g id="patch_78">
    <path clip-path="url(#pcf5a74865f)" d="M 306.517124 307.584 
L 309.145652 307.584 
L 309.145652 246.255453 
L 306.517124 246.255453 
z
" style="fill:#1f77b4;"/>
   </g>
   <g id="patch_79">
    <path clip-path="url(#pcf5a74865f)" d="M 309.145644 307.584 
L 311.77418 307.584 
L 311.77418 247.277773 
L 309.145644 247.277773 
z
" style="fill:#1f77b4;"/>
   </g>
   <g id="patch_80">
    <path clip-path="url(#pcf5a74865f)" d="M 311.77418 307.584 
L 314.402708 307.584 
L 314.402708 244.211168 
L 311.77418 244.211168 
z
" style="fill:#1f77b4;"/>
   </g>
   <g id="patch_81">
    <path clip-path="url(#pcf5a74865f)" d="M 314.402708 307.584 
L 317.031244 307.584 
L 317.031244 232.967821 
L 314.402708 232.967821 
z
" style="fill:#1f77b4;"/>
   </g>
   <g id="patch_82">
    <path clip-path="url(#pcf5a74865f)" d="M 317.031251 307.584 
L 319.659779 307.584 
L 319.659779 247.277595 
L 317.031251 247.277595 
z
" style="fill:#1f77b4;"/>
   </g>
   <g id="patch_83">
    <path clip-path="url(#pcf5a74865f)" d="M 319.659771 307.584 
L 322.288307 307.584 
L 322.288307 241.144936 
L 319.659771 241.144936 
z
" style="fill:#1f77b4;"/>
   </g>
   <g id="patch_84">
    <path clip-path="url(#pcf5a74865f)" d="M 322.288307 307.584 
L 324.916835 307.584 
L 324.916835 232.967601 
L 322.288307 232.967601 
z
" style="fill:#1f77b4;"/>
   </g>
   <g id="patch_85">
    <path clip-path="url(#pcf5a74865f)" d="M 324.916835 307.584 
L 327.545371 307.584 
L 327.545371 239.100658 
L 324.916835 239.100658 
z
" style="fill:#1f77b4;"/>
   </g>
   <g id="patch_86">
    <path clip-path="url(#pcf5a74865f)" d="M 327.545378 307.584 
L 330.173906 307.584 
L 330.173906 242.166883 
L 327.545378 242.166883 
z
" style="fill:#1f77b4;"/>
   </g>
   <g id="patch_87">
    <path clip-path="url(#pcf5a74865f)" d="M 330.173898 307.584 
L 332.802434 307.584 
L 332.802434 240.122797 
L 330.173898 240.122797 
z
" style="fill:#1f77b4;"/>
   </g>
   <g id="patch_88">
    <path clip-path="url(#pcf5a74865f)" d="M 332.802434 307.584 
L 335.430962 307.584 
L 335.430962 233.989744 
L 332.802434 233.989744 
z
" style="fill:#1f77b4;"/>
   </g>
   <g id="patch_89">
    <path clip-path="url(#pcf5a74865f)" d="M 335.430962 307.584 
L 338.059498 307.584 
L 338.059498 239.100658 
L 335.430962 239.100658 
z
" style="fill:#1f77b4;"/>
   </g>
   <g id="patch_90">
    <path clip-path="url(#pcf5a74865f)" d="M 338.059505 307.584 
L 340.688033 307.584 
L 340.688033 253.41045 
L 338.059505 253.41045 
z
" style="fill:#1f77b4;"/>
   </g>
   <g id="patch_91">
    <path clip-path="url(#pcf5a74865f)" d="M 340.688025 307.584 
L 343.316561 307.584 
L 343.316561 235.0121 
L 340.688025 235.0121 
z
" style="fill:#1f77b4;"/>
   </g>
   <g id="patch_92">
    <path clip-path="url(#pcf5a74865f)" d="M 343.316561 307.584 
L 345.945089 307.584 
L 345.945089 236.034029 
L 343.316561 236.034029 
z
" style="fill:#1f77b4;"/>
   </g>
   <g id="patch_93">
    <path clip-path="url(#pcf5a74865f)" d="M 345.945089 307.584 
L 348.573625 307.584 
L 348.573625 219.680008 
L 345.945089 219.680008 
z
" style="fill:#1f77b4;"/>
   </g>
   <g id="patch_94">
    <path clip-path="url(#pcf5a74865f)" d="M 348.573632 307.584 
L 351.20216 307.584 
L 351.20216 221.724034 
L 348.573632 221.724034 
z
" style="fill:#1f77b4;"/>
   </g>
   <g id="patch_95">
    <path clip-path="url(#pcf5a74865f)" d="M 351.202152 307.584 
L 353.830688 307.584 
L 353.830688 209.458614 
L 351.202152 209.458614 
z
" style="fill:#1f77b4;"/>
   </g>
   <g id="patch_96">
    <path clip-path="url(#pcf5a74865f)" d="M 353.830688 307.584 
L 356.459216 307.584 
L 356.459216 222.746177 
L 353.830688 222.746177 
z
" style="fill:#1f77b4;"/>
   </g>
   <g id="patch_97">
    <path clip-path="url(#pcf5a74865f)" d="M 356.459216 307.584 
L 359.087751 307.584 
L 359.087751 232.967821 
L 356.459216 232.967821 
z
" style="fill:#1f77b4;"/>
   </g>
   <g id="patch_98">
    <path clip-path="url(#pcf5a74865f)" d="M 359.087759 307.584 
L 361.716287 307.584 
L 361.716287 218.657607 
L 359.087759 218.657607 
z
" style="fill:#1f77b4;"/>
   </g>
   <g id="patch_99">
    <path clip-path="url(#pcf5a74865f)" d="M 361.716279 307.584 
L 364.344815 307.584 
L 364.344815 205.370056 
L 361.716279 205.370056 
z
" style="fill:#1f77b4;"/>
   </g>
   <g id="patch_100">
    <path clip-path="url(#pcf5a74865f)" d="M 364.344815 307.584 
L 366.973351 307.584 
L 366.973351 238.078518 
L 364.344815 238.078518 
z
" style="fill:#1f77b4;"/>
   </g>
   <g id="patch_101">
    <path clip-path="url(#pcf5a74865f)" d="M 366.973351 307.584 
L 369.601871 307.584 
L 369.601871 244.210982 
L 366.973351 244.210982 
z
" style="fill:#1f77b4;"/>
   </g>
   <g id="patch_102">
    <path clip-path="url(#pcf5a74865f)" d="M 369.601871 307.584 
L 372.230406 307.584 
L 372.230406 240.122797 
L 369.601871 240.122797 
z
" style="fill:#1f77b4;"/>
   </g>
   <g id="matplotlib.axis_1">
    <g id="xtick_1">
     <g id="line2d_1">
      <defs>
       <path d="M 0 0 
L 0 3.5 
" id="m9ea6d12333" style="stroke:#000000;stroke-width:0.8;"/>
      </defs>
      <g>
       <use style="stroke:#000000;stroke-width:0.8;" x="106.301429" xlink:href="#m9ea6d12333" y="307.584"/>
      </g>
     </g>
     <g id="text_1">
      <!-- −2 -->
      <defs>
       <path d="M 10.59375 35.5 
L 73.1875 35.5 
L 73.1875 27.203125 
L 10.59375 27.203125 
z
" id="DejaVuSans-8722"/>
       <path d="M 19.1875 8.296875 
L 53.609375 8.296875 
L 53.609375 0 
L 7.328125 0 
L 7.328125 8.296875 
Q 12.9375 14.109375 22.625 23.890625 
Q 32.328125 33.6875 34.8125 36.53125 
Q 39.546875 41.84375 41.421875 45.53125 
Q 43.3125 49.21875 43.3125 52.78125 
Q 43.3125 58.59375 39.234375 62.25 
Q 35.15625 65.921875 28.609375 65.921875 
Q 23.96875 65.921875 18.8125 64.3125 
Q 13.671875 62.703125 7.8125 59.421875 
L 7.8125 69.390625 
Q 13.765625 71.78125 18.9375 73 
Q 24.125 74.21875 28.421875 74.21875 
Q 39.75 74.21875 46.484375 68.546875 
Q 53.21875 62.890625 53.21875 53.421875 
Q 53.21875 48.921875 51.53125 44.890625 
Q 49.859375 40.875 45.40625 35.40625 
Q 44.1875 33.984375 37.640625 27.21875 
Q 31.109375 20.453125 19.1875 8.296875 
z
" id="DejaVuSans-50"/>
      </defs>
      <g transform="translate(93.770569 327.501344)scale(0.17 -0.17)">
       <use xlink:href="#DejaVuSans-8722"/>
       <use x="83.789062" xlink:href="#DejaVuSans-50"/>
      </g>
     </g>
    </g>
    <g id="xtick_2">
     <g id="line2d_2">
      <g>
       <use style="stroke:#000000;stroke-width:0.8;" x="171.238832" xlink:href="#m9ea6d12333" y="307.584"/>
      </g>
     </g>
     <g id="text_2">
      <!-- −1 -->
      <defs>
       <path d="M 12.40625 8.296875 
L 28.515625 8.296875 
L 28.515625 63.921875 
L 10.984375 60.40625 
L 10.984375 69.390625 
L 28.421875 72.90625 
L 38.28125 72.90625 
L 38.28125 8.296875 
L 54.390625 8.296875 
L 54.390625 0 
L 12.40625 0 
z
" id="DejaVuSans-49"/>
      </defs>
      <g transform="translate(158.707972 327.501344)scale(0.17 -0.17)">
       <use xlink:href="#DejaVuSans-8722"/>
       <use x="83.789062" xlink:href="#DejaVuSans-49"/>
      </g>
     </g>
    </g>
    <g id="xtick_3">
     <g id="line2d_3">
      <g>
       <use style="stroke:#000000;stroke-width:0.8;" x="236.176234" xlink:href="#m9ea6d12333" y="307.584"/>
      </g>
     </g>
     <g id="text_3">
      <!-- 0 -->
      <defs>
       <path d="M 31.78125 66.40625 
Q 24.171875 66.40625 20.328125 58.90625 
Q 16.5 51.421875 16.5 36.375 
Q 16.5 21.390625 20.328125 13.890625 
Q 24.171875 6.390625 31.78125 6.390625 
Q 39.453125 6.390625 43.28125 13.890625 
Q 47.125 21.390625 47.125 36.375 
Q 47.125 51.421875 43.28125 58.90625 
Q 39.453125 66.40625 31.78125 66.40625 
z
M 31.78125 74.21875 
Q 44.046875 74.21875 50.515625 64.515625 
Q 56.984375 54.828125 56.984375 36.375 
Q 56.984375 17.96875 50.515625 8.265625 
Q 44.046875 -1.421875 31.78125 -1.421875 
Q 19.53125 -1.421875 13.0625 8.265625 
Q 6.59375 17.96875 6.59375 36.375 
Q 6.59375 54.828125 13.0625 64.515625 
Q 19.53125 74.21875 31.78125 74.21875 
z
" id="DejaVuSans-48"/>
      </defs>
      <g transform="translate(230.768109 327.501344)scale(0.17 -0.17)">
       <use xlink:href="#DejaVuSans-48"/>
      </g>
     </g>
    </g>
    <g id="xtick_4">
     <g id="line2d_4">
      <g>
       <use style="stroke:#000000;stroke-width:0.8;" x="301.113637" xlink:href="#m9ea6d12333" y="307.584"/>
      </g>
     </g>
     <g id="text_4">
      <!-- 1 -->
      <g transform="translate(295.705512 327.501344)scale(0.17 -0.17)">
       <use xlink:href="#DejaVuSans-49"/>
      </g>
     </g>
    </g>
    <g id="xtick_5">
     <g id="line2d_5">
      <g>
       <use style="stroke:#000000;stroke-width:0.8;" x="366.05104" xlink:href="#m9ea6d12333" y="307.584"/>
      </g>
     </g>
     <g id="text_5">
      <!-- 2 -->
      <g transform="translate(360.642915 327.501344)scale(0.17 -0.17)">
       <use xlink:href="#DejaVuSans-50"/>
      </g>
     </g>
    </g>
    <g id="text_6">
     <!-- Position in Radian -->
     <defs>
      <path d="M 19.671875 64.796875 
L 19.671875 37.40625 
L 32.078125 37.40625 
Q 38.96875 37.40625 42.71875 40.96875 
Q 46.484375 44.53125 46.484375 51.125 
Q 46.484375 57.671875 42.71875 61.234375 
Q 38.96875 64.796875 32.078125 64.796875 
z
M 9.8125 72.90625 
L 32.078125 72.90625 
Q 44.34375 72.90625 50.609375 67.359375 
Q 56.890625 61.8125 56.890625 51.125 
Q 56.890625 40.328125 50.609375 34.8125 
Q 44.34375 29.296875 32.078125 29.296875 
L 19.671875 29.296875 
L 19.671875 0 
L 9.8125 0 
z
" id="DejaVuSans-80"/>
      <path d="M 30.609375 48.390625 
Q 23.390625 48.390625 19.1875 42.75 
Q 14.984375 37.109375 14.984375 27.296875 
Q 14.984375 17.484375 19.15625 11.84375 
Q 23.34375 6.203125 30.609375 6.203125 
Q 37.796875 6.203125 41.984375 11.859375 
Q 46.1875 17.53125 46.1875 27.296875 
Q 46.1875 37.015625 41.984375 42.703125 
Q 37.796875 48.390625 30.609375 48.390625 
z
M 30.609375 56 
Q 42.328125 56 49.015625 48.375 
Q 55.71875 40.765625 55.71875 27.296875 
Q 55.71875 13.875 49.015625 6.21875 
Q 42.328125 -1.421875 30.609375 -1.421875 
Q 18.84375 -1.421875 12.171875 6.21875 
Q 5.515625 13.875 5.515625 27.296875 
Q 5.515625 40.765625 12.171875 48.375 
Q 18.84375 56 30.609375 56 
z
" id="DejaVuSans-111"/>
      <path d="M 44.28125 53.078125 
L 44.28125 44.578125 
Q 40.484375 46.53125 36.375 47.5 
Q 32.28125 48.484375 27.875 48.484375 
Q 21.1875 48.484375 17.84375 46.4375 
Q 14.5 44.390625 14.5 40.28125 
Q 14.5 37.15625 16.890625 35.375 
Q 19.28125 33.59375 26.515625 31.984375 
L 29.59375 31.296875 
Q 39.15625 29.25 43.1875 25.515625 
Q 47.21875 21.78125 47.21875 15.09375 
Q 47.21875 7.46875 41.1875 3.015625 
Q 35.15625 -1.421875 24.609375 -1.421875 
Q 20.21875 -1.421875 15.453125 -0.5625 
Q 10.6875 0.296875 5.421875 2 
L 5.421875 11.28125 
Q 10.40625 8.6875 15.234375 7.390625 
Q 20.0625 6.109375 24.8125 6.109375 
Q 31.15625 6.109375 34.5625 8.28125 
Q 37.984375 10.453125 37.984375 14.40625 
Q 37.984375 18.0625 35.515625 20.015625 
Q 33.0625 21.96875 24.703125 23.78125 
L 21.578125 24.515625 
Q 13.234375 26.265625 9.515625 29.90625 
Q 5.8125 33.546875 5.8125 39.890625 
Q 5.8125 47.609375 11.28125 51.796875 
Q 16.75 56 26.8125 56 
Q 31.78125 56 36.171875 55.265625 
Q 40.578125 54.546875 44.28125 53.078125 
z
" id="DejaVuSans-115"/>
      <path d="M 9.421875 54.6875 
L 18.40625 54.6875 
L 18.40625 0 
L 9.421875 0 
z
M 9.421875 75.984375 
L 18.40625 75.984375 
L 18.40625 64.59375 
L 9.421875 64.59375 
z
" id="DejaVuSans-105"/>
      <path d="M 18.3125 70.21875 
L 18.3125 54.6875 
L 36.8125 54.6875 
L 36.8125 47.703125 
L 18.3125 47.703125 
L 18.3125 18.015625 
Q 18.3125 11.328125 20.140625 9.421875 
Q 21.96875 7.515625 27.59375 7.515625 
L 36.8125 7.515625 
L 36.8125 0 
L 27.59375 0 
Q 17.1875 0 13.234375 3.875 
Q 9.28125 7.765625 9.28125 18.015625 
L 9.28125 47.703125 
L 2.6875 47.703125 
L 2.6875 54.6875 
L 9.28125 54.6875 
L 9.28125 70.21875 
z
" id="DejaVuSans-116"/>
      <path d="M 54.890625 33.015625 
L 54.890625 0 
L 45.90625 0 
L 45.90625 32.71875 
Q 45.90625 40.484375 42.875 44.328125 
Q 39.84375 48.1875 33.796875 48.1875 
Q 26.515625 48.1875 22.3125 43.546875 
Q 18.109375 38.921875 18.109375 30.90625 
L 18.109375 0 
L 9.078125 0 
L 9.078125 54.6875 
L 18.109375 54.6875 
L 18.109375 46.1875 
Q 21.34375 51.125 25.703125 53.5625 
Q 30.078125 56 35.796875 56 
Q 45.21875 56 50.046875 50.171875 
Q 54.890625 44.34375 54.890625 33.015625 
z
" id="DejaVuSans-110"/>
      <path id="DejaVuSans-32"/>
      <path d="M 44.390625 34.1875 
Q 47.5625 33.109375 50.5625 29.59375 
Q 53.5625 26.078125 56.59375 19.921875 
L 66.609375 0 
L 56 0 
L 46.6875 18.703125 
Q 43.0625 26.03125 39.671875 28.421875 
Q 36.28125 30.8125 30.421875 30.8125 
L 19.671875 30.8125 
L 19.671875 0 
L 9.8125 0 
L 9.8125 72.90625 
L 32.078125 72.90625 
Q 44.578125 72.90625 50.734375 67.671875 
Q 56.890625 62.453125 56.890625 51.90625 
Q 56.890625 45.015625 53.6875 40.46875 
Q 50.484375 35.9375 44.390625 34.1875 
z
M 19.671875 64.796875 
L 19.671875 38.921875 
L 32.078125 38.921875 
Q 39.203125 38.921875 42.84375 42.21875 
Q 46.484375 45.515625 46.484375 51.90625 
Q 46.484375 58.296875 42.84375 61.546875 
Q 39.203125 64.796875 32.078125 64.796875 
z
" id="DejaVuSans-82"/>
      <path d="M 34.28125 27.484375 
Q 23.390625 27.484375 19.1875 25 
Q 14.984375 22.515625 14.984375 16.5 
Q 14.984375 11.71875 18.140625 8.90625 
Q 21.296875 6.109375 26.703125 6.109375 
Q 34.1875 6.109375 38.703125 11.40625 
Q 43.21875 16.703125 43.21875 25.484375 
L 43.21875 27.484375 
z
M 52.203125 31.203125 
L 52.203125 0 
L 43.21875 0 
L 43.21875 8.296875 
Q 40.140625 3.328125 35.546875 0.953125 
Q 30.953125 -1.421875 24.3125 -1.421875 
Q 15.921875 -1.421875 10.953125 3.296875 
Q 6 8.015625 6 15.921875 
Q 6 25.140625 12.171875 29.828125 
Q 18.359375 34.515625 30.609375 34.515625 
L 43.21875 34.515625 
L 43.21875 35.40625 
Q 43.21875 41.609375 39.140625 45 
Q 35.0625 48.390625 27.6875 48.390625 
Q 23 48.390625 18.546875 47.265625 
Q 14.109375 46.140625 10.015625 43.890625 
L 10.015625 52.203125 
Q 14.9375 54.109375 19.578125 55.046875 
Q 24.21875 56 28.609375 56 
Q 40.484375 56 46.34375 49.84375 
Q 52.203125 43.703125 52.203125 31.203125 
z
" id="DejaVuSans-97"/>
      <path d="M 45.40625 46.390625 
L 45.40625 75.984375 
L 54.390625 75.984375 
L 54.390625 0 
L 45.40625 0 
L 45.40625 8.203125 
Q 42.578125 3.328125 38.25 0.953125 
Q 33.9375 -1.421875 27.875 -1.421875 
Q 17.96875 -1.421875 11.734375 6.484375 
Q 5.515625 14.40625 5.515625 27.296875 
Q 5.515625 40.1875 11.734375 48.09375 
Q 17.96875 56 27.875 56 
Q 33.9375 56 38.25 53.625 
Q 42.578125 51.265625 45.40625 46.390625 
z
M 14.796875 27.296875 
Q 14.796875 17.390625 18.875 11.75 
Q 22.953125 6.109375 30.078125 6.109375 
Q 37.203125 6.109375 41.296875 11.75 
Q 45.40625 17.390625 45.40625 27.296875 
Q 45.40625 37.203125 41.296875 42.84375 
Q 37.203125 48.484375 30.078125 48.484375 
Q 22.953125 48.484375 18.875 42.84375 
Q 14.796875 37.203125 14.796875 27.296875 
z
" id="DejaVuSans-100"/>
     </defs>
     <g transform="translate(102.024844 357.832125)scale(0.3 -0.3)">
      <use xlink:href="#DejaVuSans-80"/>
      <use x="60.255859" xlink:href="#DejaVuSans-111"/>
      <use x="121.4375" xlink:href="#DejaVuSans-115"/>
      <use x="173.537109" xlink:href="#DejaVuSans-105"/>
      <use x="201.320312" xlink:href="#DejaVuSans-116"/>
      <use x="240.529297" xlink:href="#DejaVuSans-105"/>
      <use x="268.3125" xlink:href="#DejaVuSans-111"/>
      <use x="329.494141" xlink:href="#DejaVuSans-110"/>
      <use x="392.873047" xlink:href="#DejaVuSans-32"/>
      <use x="424.660156" xlink:href="#DejaVuSans-105"/>
      <use x="452.443359" xlink:href="#DejaVuSans-110"/>
      <use x="515.822266" xlink:href="#DejaVuSans-32"/>
      <use x="547.609375" xlink:href="#DejaVuSans-82"/>
      <use x="617.060547" xlink:href="#DejaVuSans-97"/>
      <use x="678.339844" xlink:href="#DejaVuSans-100"/>
      <use x="741.816406" xlink:href="#DejaVuSans-105"/>
      <use x="769.599609" xlink:href="#DejaVuSans-97"/>
      <use x="830.878906" xlink:href="#DejaVuSans-110"/>
     </g>
    </g>
   </g>
   <g id="matplotlib.axis_2">
    <g id="ytick_1">
     <g id="line2d_6">
      <defs>
       <path d="M 0 0 
L -3.5 0 
" id="m2ab39e42b1" style="stroke:#000000;stroke-width:0.8;"/>
      </defs>
      <g>
       <use style="stroke:#000000;stroke-width:0.8;" x="57.6" xlink:href="#m2ab39e42b1" y="307.584"/>
      </g>
     </g>
     <g id="text_7">
      <!-- 0.0 -->
      <defs>
       <path d="M 10.6875 12.40625 
L 21 12.40625 
L 21 0 
L 10.6875 0 
z
" id="DejaVuSans-46"/>
      </defs>
      <g transform="translate(23.564687 314.042672)scale(0.17 -0.17)">
       <use xlink:href="#DejaVuSans-48"/>
       <use x="63.623047" xlink:href="#DejaVuSans-46"/>
       <use x="95.410156" xlink:href="#DejaVuSans-48"/>
      </g>
     </g>
    </g>
    <g id="ytick_2">
     <g id="line2d_7">
      <g>
       <use style="stroke:#000000;stroke-width:0.8;" x="57.6" xlink:href="#m2ab39e42b1" y="266.209849"/>
      </g>
     </g>
     <g id="text_8">
      <!-- 0.2 -->
      <g transform="translate(23.564687 272.668521)scale(0.17 -0.17)">
       <use xlink:href="#DejaVuSans-48"/>
       <use x="63.623047" xlink:href="#DejaVuSans-46"/>
       <use x="95.410156" xlink:href="#DejaVuSans-50"/>
      </g>
     </g>
    </g>
    <g id="ytick_3">
     <g id="line2d_8">
      <g>
       <use style="stroke:#000000;stroke-width:0.8;" x="57.6" xlink:href="#m2ab39e42b1" y="224.835698"/>
      </g>
     </g>
     <g id="text_9">
      <!-- 0.4 -->
      <defs>
       <path d="M 37.796875 64.3125 
L 12.890625 25.390625 
L 37.796875 25.390625 
z
M 35.203125 72.90625 
L 47.609375 72.90625 
L 47.609375 25.390625 
L 58.015625 25.390625 
L 58.015625 17.1875 
L 47.609375 17.1875 
L 47.609375 0 
L 37.796875 0 
L 37.796875 17.1875 
L 4.890625 17.1875 
L 4.890625 26.703125 
z
" id="DejaVuSans-52"/>
      </defs>
      <g transform="translate(23.564687 231.29437)scale(0.17 -0.17)">
       <use xlink:href="#DejaVuSans-48"/>
       <use x="63.623047" xlink:href="#DejaVuSans-46"/>
       <use x="95.410156" xlink:href="#DejaVuSans-52"/>
      </g>
     </g>
    </g>
    <g id="ytick_4">
     <g id="line2d_9">
      <g>
       <use style="stroke:#000000;stroke-width:0.8;" x="57.6" xlink:href="#m2ab39e42b1" y="183.461547"/>
      </g>
     </g>
     <g id="text_10">
      <!-- 0.6 -->
      <defs>
       <path d="M 33.015625 40.375 
Q 26.375 40.375 22.484375 35.828125 
Q 18.609375 31.296875 18.609375 23.390625 
Q 18.609375 15.53125 22.484375 10.953125 
Q 26.375 6.390625 33.015625 6.390625 
Q 39.65625 6.390625 43.53125 10.953125 
Q 47.40625 15.53125 47.40625 23.390625 
Q 47.40625 31.296875 43.53125 35.828125 
Q 39.65625 40.375 33.015625 40.375 
z
M 52.59375 71.296875 
L 52.59375 62.3125 
Q 48.875 64.0625 45.09375 64.984375 
Q 41.3125 65.921875 37.59375 65.921875 
Q 27.828125 65.921875 22.671875 59.328125 
Q 17.53125 52.734375 16.796875 39.40625 
Q 19.671875 43.65625 24.015625 45.921875 
Q 28.375 48.1875 33.59375 48.1875 
Q 44.578125 48.1875 50.953125 41.515625 
Q 57.328125 34.859375 57.328125 23.390625 
Q 57.328125 12.15625 50.6875 5.359375 
Q 44.046875 -1.421875 33.015625 -1.421875 
Q 20.359375 -1.421875 13.671875 8.265625 
Q 6.984375 17.96875 6.984375 36.375 
Q 6.984375 53.65625 15.1875 63.9375 
Q 23.390625 74.21875 37.203125 74.21875 
Q 40.921875 74.21875 44.703125 73.484375 
Q 48.484375 72.75 52.59375 71.296875 
z
" id="DejaVuSans-54"/>
      </defs>
      <g transform="translate(23.564687 189.920219)scale(0.17 -0.17)">
       <use xlink:href="#DejaVuSans-48"/>
       <use x="63.623047" xlink:href="#DejaVuSans-46"/>
       <use x="95.410156" xlink:href="#DejaVuSans-54"/>
      </g>
     </g>
    </g>
    <g id="ytick_5">
     <g id="line2d_10">
      <g>
       <use style="stroke:#000000;stroke-width:0.8;" x="57.6" xlink:href="#m2ab39e42b1" y="142.087396"/>
      </g>
     </g>
     <g id="text_11">
      <!-- 0.8 -->
      <defs>
       <path d="M 31.78125 34.625 
Q 24.75 34.625 20.71875 30.859375 
Q 16.703125 27.09375 16.703125 20.515625 
Q 16.703125 13.921875 20.71875 10.15625 
Q 24.75 6.390625 31.78125 6.390625 
Q 38.8125 6.390625 42.859375 10.171875 
Q 46.921875 13.96875 46.921875 20.515625 
Q 46.921875 27.09375 42.890625 30.859375 
Q 38.875 34.625 31.78125 34.625 
z
M 21.921875 38.8125 
Q 15.578125 40.375 12.03125 44.71875 
Q 8.5 49.078125 8.5 55.328125 
Q 8.5 64.0625 14.71875 69.140625 
Q 20.953125 74.21875 31.78125 74.21875 
Q 42.671875 74.21875 48.875 69.140625 
Q 55.078125 64.0625 55.078125 55.328125 
Q 55.078125 49.078125 51.53125 44.71875 
Q 48 40.375 41.703125 38.8125 
Q 48.828125 37.15625 52.796875 32.3125 
Q 56.78125 27.484375 56.78125 20.515625 
Q 56.78125 9.90625 50.3125 4.234375 
Q 43.84375 -1.421875 31.78125 -1.421875 
Q 19.734375 -1.421875 13.25 4.234375 
Q 6.78125 9.90625 6.78125 20.515625 
Q 6.78125 27.484375 10.78125 32.3125 
Q 14.796875 37.15625 21.921875 38.8125 
z
M 18.3125 54.390625 
Q 18.3125 48.734375 21.84375 45.5625 
Q 25.390625 42.390625 31.78125 42.390625 
Q 38.140625 42.390625 41.71875 45.5625 
Q 45.3125 48.734375 45.3125 54.390625 
Q 45.3125 60.0625 41.71875 63.234375 
Q 38.140625 66.40625 31.78125 66.40625 
Q 25.390625 66.40625 21.84375 63.234375 
Q 18.3125 60.0625 18.3125 54.390625 
z
" id="DejaVuSans-56"/>
      </defs>
      <g transform="translate(23.564687 148.546067)scale(0.17 -0.17)">
       <use xlink:href="#DejaVuSans-48"/>
       <use x="63.623047" xlink:href="#DejaVuSans-46"/>
       <use x="95.410156" xlink:href="#DejaVuSans-56"/>
      </g>
     </g>
    </g>
    <g id="ytick_6">
     <g id="line2d_11">
      <g>
       <use style="stroke:#000000;stroke-width:0.8;" x="57.6" xlink:href="#m2ab39e42b1" y="100.713244"/>
      </g>
     </g>
     <g id="text_12">
      <!-- 1.0 -->
      <g transform="translate(23.564687 107.171916)scale(0.17 -0.17)">
       <use xlink:href="#DejaVuSans-49"/>
       <use x="63.623047" xlink:href="#DejaVuSans-46"/>
       <use x="95.410156" xlink:href="#DejaVuSans-48"/>
      </g>
     </g>
    </g>
    <g id="ytick_7">
     <g id="line2d_12">
      <g>
       <use style="stroke:#000000;stroke-width:0.8;" x="57.6" xlink:href="#m2ab39e42b1" y="59.339093"/>
      </g>
     </g>
     <g id="text_13">
      <!-- 1.2 -->
      <g transform="translate(23.564687 65.797765)scale(0.17 -0.17)">
       <use xlink:href="#DejaVuSans-49"/>
       <use x="63.623047" xlink:href="#DejaVuSans-46"/>
       <use x="95.410156" xlink:href="#DejaVuSans-50"/>
      </g>
     </g>
    </g>
    <g id="text_14">
     <!-- Density -->
     <defs>
      <path d="M 19.671875 64.796875 
L 19.671875 8.109375 
L 31.59375 8.109375 
Q 46.6875 8.109375 53.6875 14.9375 
Q 60.6875 21.78125 60.6875 36.53125 
Q 60.6875 51.171875 53.6875 57.984375 
Q 46.6875 64.796875 31.59375 64.796875 
z
M 9.8125 72.90625 
L 30.078125 72.90625 
Q 51.265625 72.90625 61.171875 64.09375 
Q 71.09375 55.28125 71.09375 36.53125 
Q 71.09375 17.671875 61.125 8.828125 
Q 51.171875 0 30.078125 0 
L 9.8125 0 
z
" id="DejaVuSans-68"/>
      <path d="M 56.203125 29.59375 
L 56.203125 25.203125 
L 14.890625 25.203125 
Q 15.484375 15.921875 20.484375 11.0625 
Q 25.484375 6.203125 34.421875 6.203125 
Q 39.59375 6.203125 44.453125 7.46875 
Q 49.3125 8.734375 54.109375 11.28125 
L 54.109375 2.78125 
Q 49.265625 0.734375 44.1875 -0.34375 
Q 39.109375 -1.421875 33.890625 -1.421875 
Q 20.796875 -1.421875 13.15625 6.1875 
Q 5.515625 13.8125 5.515625 26.8125 
Q 5.515625 40.234375 12.765625 48.109375 
Q 20.015625 56 32.328125 56 
Q 43.359375 56 49.78125 48.890625 
Q 56.203125 41.796875 56.203125 29.59375 
z
M 47.21875 32.234375 
Q 47.125 39.59375 43.09375 43.984375 
Q 39.0625 48.390625 32.421875 48.390625 
Q 24.90625 48.390625 20.390625 44.140625 
Q 15.875 39.890625 15.1875 32.171875 
z
" id="DejaVuSans-101"/>
      <path d="M 32.171875 -5.078125 
Q 28.375 -14.84375 24.75 -17.8125 
Q 21.140625 -20.796875 15.09375 -20.796875 
L 7.90625 -20.796875 
L 7.90625 -13.28125 
L 13.1875 -13.28125 
Q 16.890625 -13.28125 18.9375 -11.515625 
Q 21 -9.765625 23.484375 -3.21875 
L 25.09375 0.875 
L 2.984375 54.6875 
L 12.5 54.6875 
L 29.59375 11.921875 
L 46.6875 54.6875 
L 56.203125 54.6875 
z
" id="DejaVuSans-121"/>
     </defs>
     <g transform="translate(13.325625 231.553781)rotate(-90)scale(0.3 -0.3)">
      <use xlink:href="#DejaVuSans-68"/>
      <use x="77.001953" xlink:href="#DejaVuSans-101"/>
      <use x="138.525391" xlink:href="#DejaVuSans-110"/>
      <use x="201.904297" xlink:href="#DejaVuSans-115"/>
      <use x="254.003906" xlink:href="#DejaVuSans-105"/>
      <use x="281.787109" xlink:href="#DejaVuSans-116"/>
      <use x="320.996094" xlink:href="#DejaVuSans-121"/>
     </g>
    </g>
   </g>
   <g id="line2d_13">
    <path clip-path="url(#pcf5a74865f)" d="M 73.832727 307.584 
L 107.827458 307.484117 
L 108.217082 307.221415 
L 108.606706 306.637311 
L 109.840517 304.437811 
L 110.879516 303.832665 
L 111.204203 303.701751 
L 111.431484 303.838404 
L 111.853577 304.451979 
L 112.340607 305.007316 
L 112.665294 305.077516 
L 112.989981 304.906579 
L 113.931574 304.153433 
L 114.158854 304.459748 
L 114.873166 305.632508 
L 115.035509 305.479559 
L 115.26279 304.842169 
L 115.717352 302.605148 
L 116.074508 301.278221 
L 116.236851 301.167298 
L 116.366726 301.34322 
L 116.594007 302.148369 
L 117.568068 306.356167 
L 117.76288 306.448282 
L 117.957692 306.275779 
L 118.28238 305.599785 
L 118.964222 304.142371 
L 119.321378 303.896156 
L 119.840877 303.882461 
L 120.295439 304.023051 
L 120.750001 304.453728 
L 121.107157 304.679854 
L 121.301969 304.573647 
L 121.561718 304.105697 
L 122.535779 301.887313 
L 122.730592 301.9438 
L 122.990341 302.31878 
L 123.50984 303.612756 
L 124.02934 304.695341 
L 124.256621 304.778441 
L 124.418964 304.588663 
L 124.646245 303.914008 
L 125.035869 301.844462 
L 125.555369 299.270504 
L 125.815118 298.866421 
L 125.977462 298.917845 
L 126.26968 299.335587 
L 126.789179 300.043818 
L 127.081398 300.114689 
L 127.406085 299.929782 
L 127.828178 299.726664 
L 128.02299 299.908201 
L 128.28274 300.582945 
L 129.256801 303.75544 
L 129.419144 303.602297 
L 129.646425 302.964753 
L 130.685423 299.366956 
L 130.847767 299.521829 
L 131.464672 300.489729 
L 131.497141 300.467845 
L 131.659484 300.159447 
L 131.919234 299.030155 
L 132.536139 296.128212 
L 132.698483 296.078822 
L 132.860826 296.402779 
L 133.640075 298.612184 
L 133.672544 298.594303 
L 133.834887 298.335626 
L 134.159575 297.242598 
L 134.744011 295.366813 
L 134.971292 295.167767 
L 135.133636 295.264166 
L 135.393385 295.766251 
L 135.977822 296.961493 
L 136.140165 296.916976 
L 136.367446 296.533484 
L 136.854477 295.666998 
L 136.984352 295.746571 
L 137.179164 296.235341 
L 137.536319 297.975254 
L 138.055819 300.304953 
L 138.380506 300.901255 
L 138.77013 301.14876 
L 139.094817 301.139784 
L 139.322098 300.895997 
L 139.581848 300.238842 
L 139.939003 298.622472 
L 140.78319 294.47935 
L 140.978002 294.355826 
L 141.140345 294.566612 
L 141.52997 295.647633 
L 141.887125 296.332875 
L 142.081938 296.373535 
L 142.27675 296.18495 
L 142.536499 295.554739 
L 142.828718 294.132505 
L 143.218342 290.860489 
L 143.900185 285.191361 
L 144.192403 284.407322 
L 144.354747 284.381597 
L 144.549559 284.615123 
L 144.874246 285.448291 
L 145.296339 287.222276 
L 146.757431 294.075777 
L 147.049649 294.55386 
L 147.244461 294.522331 
L 147.991241 294.012323 
L 148.250991 294.357617 
L 148.867896 295.227733 
L 149.257521 295.310738 
L 150.004301 295.310908 
L 150.231582 294.863002 
L 150.621206 293.394275 
L 151.075768 291.899833 
L 151.303049 291.689575 
L 151.497861 291.812358 
L 151.757611 292.361256 
L 152.082298 293.664506 
L 152.601797 296.961008 
L 153.088827 299.50724 
L 153.316108 299.871089 
L 153.478452 299.807421 
L 153.738201 299.335176 
L 154.290169 297.71691 
L 154.679794 295.87645 
L 155.848667 289.274589 
L 155.978542 289.300117 
L 156.173354 289.654448 
L 156.692853 291.360013 
L 157.114946 292.355165 
L 157.861727 293.666098 
L 158.186414 295.250638 
L 158.933194 299.160915 
L 159.095537 299.284546 
L 159.225412 299.122202 
L 159.452693 298.365646 
L 160.394285 294.593209 
L 160.556629 294.621617 
L 160.751441 294.977246 
L 161.141065 296.331983 
L 161.660565 297.932466 
L 161.855377 298.069279 
L 162.01772 297.891126 
L 162.245001 297.162445 
L 162.634626 294.878877 
L 163.413874 290.300453 
L 163.900905 288.819858 
L 164.810029 286.444446 
L 165.167184 284.5341 
L 166.011371 279.595725 
L 166.108777 279.618755 
L 166.27112 280.07828 
L 166.563339 281.886213 
L 167.115306 285.161614 
L 167.342587 285.531893 
L 167.504931 285.471653 
L 167.76468 285.047255 
L 168.219242 284.315253 
L 168.381586 284.381318 
L 168.543929 284.773517 
L 168.803679 286.195767 
L 169.323178 290.931799 
L 169.745271 293.817899 
L 170.005021 294.435941 
L 170.167364 294.444012 
L 170.362177 294.162191 
L 170.621926 293.303222 
L 170.914145 291.394868 
L 171.2713 287.269091 
L 172.01808 278.290165 
L 172.245361 277.639503 
L 172.407705 277.660011 
L 172.667454 277.741874 
L 172.829798 277.43182 
L 173.057079 276.352623 
L 173.609047 273.597274 
L 173.706453 273.631922 
L 173.868796 274.178676 
L 174.193483 276.545555 
L 174.648045 279.475389 
L 174.875326 279.886033 
L 175.329888 280.153278 
L 175.5247 280.953306 
L 175.816918 283.383336 
L 176.661105 291.207224 
L 176.888386 291.622153 
L 177.01826 291.540383 
L 177.310479 290.933226 
L 177.732572 290.213317 
L 178.317008 289.646584 
L 178.576758 288.648574 
L 178.998851 285.83935 
L 179.648225 281.815174 
L 180.622286 278.123234 
L 180.946973 277.288958 
L 181.076848 277.317927 
L 181.239192 277.742757 
L 181.498941 279.248339 
L 182.27819 284.216318 
L 182.505471 284.493881 
L 182.667814 284.35391 
L 182.927564 283.70688 
L 183.641875 281.731271 
L 183.77175 281.793946 
L 183.966562 282.284607 
L 184.291249 283.939102 
L 184.875686 286.802563 
L 185.070498 287.032677 
L 185.200373 286.920662 
L 185.395185 286.361287 
L 185.687404 284.719339 
L 186.304309 279.484104 
L 186.726402 276.863472 
L 186.953683 276.434611 
L 187.083558 276.531626 
L 187.27837 277.114443 
L 187.603057 279.040632 
L 188.349837 283.779062 
L 188.479712 283.88348 
L 188.512181 283.858436 
L 188.642055 283.56161 
L 188.901805 282.215369 
L 189.551179 278.644275 
L 189.843397 278.1442 
L 190.330428 277.550673 
L 191.369426 275.329906 
L 191.921394 273.53352 
L 192.213613 272.958849 
L 192.343487 272.992204 
L 192.505831 273.335979 
L 192.798049 274.685415 
L 193.414955 277.684039 
L 193.609767 277.8577 
L 193.77211 277.687189 
L 194.356547 276.768163 
L 194.389016 276.791863 
L 194.551359 277.119382 
L 194.811109 278.329098 
L 195.460483 281.620192 
L 195.557889 281.610137 
L 195.687764 281.262982 
L 195.915045 279.756694 
L 196.369606 274.577929 
L 196.856637 270.023246 
L 197.116387 269.28584 
L 197.246261 269.342755 
L 197.441074 269.786533 
L 198.155385 271.656227 
L 198.350197 271.659739 
L 198.545009 271.365556 
L 198.804759 270.4499 
L 199.129446 268.375516 
L 199.876226 263.161415 
L 200.006101 263.051228 
L 200.03857 263.079518 
L 200.200913 263.530149 
L 200.5256 265.468266 
L 201.012631 268.085979 
L 201.27238 268.526617 
L 201.53213 268.534734 
L 201.824348 268.569089 
L 202.051629 268.888915 
L 202.408785 269.915983 
L 202.830878 270.974161 
L 202.993222 271.022317 
L 203.155565 270.813005 
L 203.480252 269.857176 
L 203.869876 268.93121 
L 204.03222 268.936225 
L 204.227032 269.249837 
L 204.973812 270.701369 
L 205.395905 271.154958 
L 205.817999 272.157271 
L 206.142686 272.661946 
L 206.27256 272.6053 
L 206.467373 272.164814 
L 206.759591 270.758368 
L 207.766121 265.084721 
L 207.895995 265.108564 
L 208.058339 265.520213 
L 208.383026 267.221532 
L 208.77265 268.965144 
L 208.902525 269.034618 
L 209.0324 268.760024 
L 209.259681 267.520867 
L 210.298679 260.683524 
L 211.53249 256.491086 
L 211.922114 255.709883 
L 212.214333 254.438138 
L 212.863707 250.065778 
L 214.097517 241.681724 
L 214.519611 239.13022 
L 214.811829 238.519615 
L 215.363797 237.903059 
L 215.656015 236.942774 
L 216.078108 234.618693 
L 216.79242 230.584715 
L 216.922294 230.508079 
L 217.052169 230.80896 
L 217.246981 232.034338 
L 217.5392 235.515671 
L 218.448323 247.551041 
L 218.578198 247.766172 
L 218.610667 247.736519 
L 218.740542 247.310349 
L 219.000291 245.307725 
L 220.071758 235.791308 
L 221.045819 229.249913 
L 221.143226 229.241894 
L 221.2731 229.589633 
L 221.500381 231.163849 
L 221.890006 235.921956 
L 222.604317 244.402716 
L 222.896535 245.673232 
L 222.993942 245.704663 
L 223.02641 245.670491 
L 223.188754 245.167763 
L 223.448503 243.26384 
L 223.838128 238.234621 
L 225.03947 220.687108 
L 225.266751 220.032 
L 225.396625 220.114457 
L 225.591438 220.679169 
L 226.175874 223.461135 
L 226.662905 226.429897 
L 227.344748 230.819747 
L 227.409685 230.775802 
L 227.53956 230.198907 
L 227.734372 227.976006 
L 228.059059 220.992993 
L 228.643496 208.14117 
L 228.805839 207.3169 
L 228.838308 207.358488 
L 228.968183 208.187227 
L 229.195464 211.707624 
L 229.7799 221.266956 
L 229.877306 221.492092 
L 229.909775 221.447456 
L 230.03965 220.700033 
L 230.266931 217.614901 
L 231.078648 205.083488 
L 231.370867 203.721248 
L 231.500741 203.625116 
L 231.53321 203.646276 
L 231.663085 203.909505 
L 231.890366 205.048899 
L 232.27999 208.571476 
L 232.799489 212.771349 
L 233.02677 213.304012 
L 233.189114 213.250744 
L 233.643676 212.899413 
L 233.806019 213.216147 
L 234.29305 214.741947 
L 234.357987 214.590345 
L 234.487862 213.534191 
L 234.650205 210.115029 
L 234.877486 199.427071 
L 235.169705 172.170753 
L 235.721673 90.523866 
L 236.078828 55.957133 
L 236.176234 54.144 
L 236.208703 54.374216 
L 236.306109 57.538913 
L 236.500921 73.959073 
L 236.955483 140.058138 
L 237.442514 196.421329 
L 237.799669 214.454859 
L 238.124356 221.121604 
L 238.54645 225.402058 
L 238.903605 227.250954 
L 239.03348 227.370375 
L 239.065949 227.346721 
L 239.195824 227.039376 
L 239.423104 225.788061 
L 240.04001 222.041857 
L 240.137416 222.102348 
L 240.267291 222.67387 
L 240.494572 225.107494 
L 240.851727 232.146091 
L 242.182944 261.989297 
L 242.410225 263.05155 
L 242.475162 262.98978 
L 242.605037 262.390259 
L 242.832318 259.967121 
L 243.319349 251.379921 
L 243.838848 243.732082 
L 244.196004 241.303289 
L 244.910315 238.531657 
L 245.235002 237.828934 
L 245.429814 237.832582 
L 245.78697 238.285241 
L 245.981782 238.363465 
L 246.144126 238.169087 
L 246.436344 237.310252 
L 246.761031 236.566973 
L 246.858437 236.617152 
L 247.020781 237.100618 
L 247.28053 238.846132 
L 248.157185 245.536695 
L 248.449403 246.189266 
L 248.579278 246.179419 
L 248.741622 245.863787 
L 248.968903 244.753015 
L 249.29359 241.686702 
L 250.04037 231.268058 
L 250.494932 226.962791 
L 250.852087 225.431381 
L 251.826148 222.696894 
L 251.956023 222.941872 
L 252.150835 224.047348 
L 252.443054 227.439866 
L 253.384646 240.00368 
L 253.449584 240.07761 
L 253.482052 240.055401 
L 253.611927 239.5836 
L 253.839208 237.486132 
L 254.618457 229.121613 
L 254.683394 229.099981 
L 254.715863 229.151445 
L 254.845738 229.780098 
L 255.073019 232.453201 
L 255.462643 240.506645 
L 256.209423 255.947565 
L 256.53411 258.832503 
L 256.696454 259.215483 
L 256.728922 259.207523 
L 256.826328 259.013112 
L 256.988672 258.110948 
L 257.248422 255.119651 
L 257.605577 248.027936 
L 258.871857 219.774692 
L 259.0342 219.133895 
L 259.066669 219.141443 
L 259.164075 219.436846 
L 259.358887 221.200195 
L 259.683574 226.824302 
L 260.365417 238.806371 
L 260.592698 239.858172 
L 260.690104 239.712977 
L 260.852447 238.759931 
L 261.177134 235.02701 
L 261.696634 229.333013 
L 261.858977 228.882455 
L 261.891446 228.903526 
L 261.988852 229.202308 
L 262.183664 230.868253 
L 262.508351 236.393964 
L 263.352537 251.93951 
L 263.579818 252.850628 
L 263.677224 252.737285 
L 263.839568 252.020545 
L 264.229192 248.870782 
L 265.138316 241.78701 
L 265.657815 238.754092 
L 265.852627 238.450849 
L 265.982502 238.561164 
L 266.242252 239.282475 
L 266.631876 240.229928 
L 266.761751 240.20332 
L 266.924095 239.861634 
L 267.183844 238.684285 
L 268.060499 233.958572 
L 268.092968 233.993483 
L 268.222843 234.46523 
L 268.417655 236.241663 
L 268.742342 241.669358 
L 269.489122 254.66026 
L 269.78134 256.535537 
L 269.878746 256.645673 
L 269.911215 256.623348 
L 270.04109 256.233975 
L 270.235902 254.748352 
L 270.560589 250.171215 
L 271.274901 239.609276 
L 271.469713 239.033047 
L 271.567119 239.26838 
L 271.761931 240.714282 
L 272.086618 245.334167 
L 272.80093 255.942185 
L 273.02821 256.807406 
L 273.125617 256.705523 
L 273.320429 255.859861 
L 274.03474 252.146728 
L 274.262021 251.956976 
L 275.106207 251.889023 
L 275.30102 252.281938 
L 275.593238 253.485608 
L 276.437424 257.336599 
L 276.697174 257.607698 
L 276.956923 257.537277 
L 277.314079 257.447572 
L 277.573829 257.640279 
L 278.093328 258.115651 
L 278.255671 257.973458 
L 278.450484 257.462774 
L 278.775171 255.835135 
L 279.29467 253.368259 
L 279.424545 253.306187 
L 279.554419 253.5513 
L 279.814169 254.755028 
L 280.236262 256.57127 
L 280.333668 256.575155 
L 280.463543 256.241504 
L 280.690824 254.859765 
L 281.210323 251.553284 
L 281.307729 251.478995 
L 281.340198 251.507538 
L 281.470073 251.872022 
L 281.762291 253.699397 
L 282.184384 255.987724 
L 282.314259 256.110961 
L 282.346728 256.091837 
L 282.476603 255.830063 
L 282.736352 254.58894 
L 283.190914 251.029295 
L 283.710413 245.142937 
L 284.489662 236.318801 
L 284.78188 235.028799 
L 284.944224 234.900179 
L 285.074099 235.067315 
L 285.30138 235.846191 
L 285.723473 238.36277 
L 286.665065 244.038112 
L 287.217033 247.712983 
L 287.80147 251.464281 
L 287.931344 251.618364 
L 287.963813 251.593899 
L 288.093688 251.224967 
L 288.2885 249.850307 
L 288.613187 245.728242 
L 289.652186 231.429758 
L 289.944404 230.185524 
L 290.106747 230.136159 
L 290.30156 230.482033 
L 290.756121 231.341955 
L 290.918465 231.240457 
L 291.373027 230.587981 
L 291.405495 230.618197 
L 291.53537 230.975213 
L 291.730182 232.348842 
L 292.054869 236.711789 
L 292.704244 245.548184 
L 293.028931 247.17594 
L 293.353618 247.773038 
L 293.645836 247.966357 
L 293.808179 247.818148 
L 294.002992 247.213706 
L 294.262741 245.538003 
L 295.399146 236.688932 
L 295.561489 236.648762 
L 295.756301 236.972149 
L 296.665425 239.486603 
L 296.925175 241.086029 
L 297.217393 244.496916 
L 298.353798 260.3097 
L 298.451204 260.408401 
L 298.483672 260.379517 
L 298.613547 259.96444 
L 298.840828 258.173644 
L 299.262921 252.38901 
L 299.717483 247.12481 
L 299.847358 246.788752 
L 299.879827 246.8166 
L 299.977233 247.17743 
L 300.172045 249.090965 
L 300.561669 255.962548 
L 301.016231 262.54662 
L 301.243512 263.437243 
L 301.340918 263.336578 
L 301.53573 262.501325 
L 302.022761 258.849914 
L 302.996822 251.867802 
L 303.256571 251.277987 
L 303.386446 251.355484 
L 303.581258 251.864989 
L 304.068289 254.086501 
L 304.652726 257.437901 
L 305.237162 262.802981 
L 305.626787 265.343628 
L 305.821599 265.609989 
L 305.951474 265.366029 
L 306.146286 264.390344 
L 306.470973 261.351631 
L 307.964533 245.015326 
L 309.003532 238.025962 
L 309.393156 235.459926 
L 309.490562 235.338455 
L 309.523031 235.368431 
L 309.652906 235.8825 
L 309.847718 237.904892 
L 310.204874 244.778052 
L 310.756842 255.052404 
L 311.016591 256.601971 
L 311.113997 256.600951 
L 311.243872 256.217387 
L 311.53609 254.374188 
L 312.185464 250.197682 
L 312.445214 249.671745 
L 312.607557 249.7208 
L 312.997182 249.958557 
L 313.127057 249.624188 
L 313.321869 248.327247 
L 313.614087 244.408139 
L 314.588148 229.40669 
L 314.945304 227.625177 
L 315.172585 227.288145 
L 315.30246 227.430581 
L 315.464803 228.060167 
L 315.692084 229.928086 
L 316.04924 234.994223 
L 317.412925 256.425354 
L 317.510331 256.637562 
L 317.5428 256.623999 
L 317.640206 256.323234 
L 317.835018 254.57089 
L 318.159705 248.880163 
L 319.03636 232.259421 
L 319.328579 230.280468 
L 319.458453 230.090508 
L 319.490922 230.105117 
L 319.620797 230.399391 
L 319.848078 231.75562 
L 320.205234 235.637716 
L 320.952014 244.182201 
L 321.179295 244.851383 
L 321.276701 244.786793 
L 321.439044 244.308137 
L 321.893606 241.886074 
L 322.380637 239.844165 
L 323.517041 236.01664 
L 323.939134 234.618054 
L 324.069009 234.659137 
L 324.231353 235.217238 
L 324.491102 237.313868 
L 325.108008 242.995578 
L 325.172945 243.03752 
L 325.205414 242.99083 
L 325.335288 242.337065 
L 325.562569 239.512053 
L 326.341818 227.875415 
L 326.406756 227.814113 
L 326.439224 227.862347 
L 326.569099 228.566911 
L 326.79638 231.50752 
L 327.705504 245.438841 
L 327.835378 245.699842 
L 327.867847 245.687642 
L 327.997722 245.382705 
L 328.28994 243.814544 
L 328.679565 242.038946 
L 328.874377 241.864887 
L 329.03672 242.076497 
L 329.393876 243.12989 
L 329.751032 243.925613 
L 329.880907 243.924353 
L 330.04325 243.597462 
L 330.270531 242.446819 
L 330.660155 238.93424 
L 331.179655 234.70707 
L 331.439404 234.044799 
L 331.601748 234.061983 
L 332.218653 234.497893 
L 332.413465 234.100692 
L 332.705684 232.845682 
L 333.257652 230.446846 
L 333.355058 230.433285 
L 333.387526 230.474903 
L 333.517401 230.891898 
L 333.744682 232.606624 
L 334.166775 238.106509 
L 334.621337 242.984018 
L 334.848618 243.611071 
L 334.946024 243.511165 
L 335.173305 242.737973 
L 335.595398 241.312286 
L 335.757742 241.291662 
L 335.920085 241.601361 
L 336.569459 243.33392 
L 336.601928 243.320548 
L 336.731803 243.096704 
L 336.959084 242.072166 
L 337.640926 238.430113 
L 337.738332 238.548681 
L 337.900676 239.338562 
L 338.160425 242.014122 
L 339.199424 254.489797 
L 339.29683 254.608724 
L 339.329299 254.583324 
L 339.459174 254.149299 
L 339.653986 252.517169 
L 340.011141 247.047017 
L 340.692984 236.24479 
L 340.920265 235.223655 
L 341.017671 235.298849 
L 341.180015 235.976517 
L 341.926795 240.009095 
L 342.05667 239.942641 
L 342.5437 239.270076 
L 342.576169 239.304216 
L 342.738512 239.746776 
L 342.998262 241.326647 
L 343.680105 245.875806 
L 343.80998 245.985895 
L 343.842448 245.952311 
L 343.972323 245.554873 
L 344.167135 244.12658 
L 344.459354 240.11194 
L 344.978853 229.068822 
L 345.595758 217.111163 
L 345.855508 215.304616 
L 345.920445 215.300908 
L 346.017851 215.647269 
L 346.212663 217.539407 
L 346.602288 224.437717 
L 347.024381 230.513196 
L 347.154256 230.96461 
L 347.186724 230.944602 
L 347.284131 230.56114 
L 347.478943 228.412975 
L 347.836099 221.053593 
L 348.420535 209.440138 
L 348.647816 207.934681 
L 348.712753 207.900021 
L 348.745222 207.945874 
L 348.875097 208.520574 
L 349.134847 211.164151 
L 350.531001 228.291823 
L 350.758282 228.91828 
L 350.855688 228.740233 
L 351.018031 227.766513 
L 351.277781 224.455825 
L 351.732343 215.040386 
L 352.349248 203.214333 
L 352.608998 201.225493 
L 352.706404 201.134471 
L 352.738872 201.187828 
L 352.868747 201.821034 
L 353.096028 204.468337 
L 353.485653 212.382549 
L 354.264901 228.164588 
L 354.524651 230.140162 
L 354.622057 230.257011 
L 354.654526 230.218278 
L 354.784401 229.684157 
L 355.011682 227.449319 
L 355.985743 215.948399 
L 356.115617 215.823792 
L 356.148086 215.851089 
L 356.31043 216.295248 
L 356.570179 217.901737 
L 356.959804 222.049414 
L 358.226083 237.543959 
L 358.323489 237.637358 
L 358.355958 237.609563 
L 358.485833 237.192923 
L 358.680645 235.627653 
L 358.972863 231.24681 
L 360.076799 212.138585 
L 360.141736 212.099076 
L 360.174205 212.146091 
L 360.30408 212.745343 
L 360.563829 215.378014 
L 360.985923 219.42857 
L 361.083329 219.59258 
L 361.115797 219.553465 
L 361.245672 218.907652 
L 361.472953 216.014503 
L 362.317139 202.836204 
L 362.414545 202.743919 
L 362.447014 202.79791 
L 362.576889 203.390515 
L 362.836639 205.888121 
L 363.680825 217.178164 
L 364.882167 234.857014 
L 365.174385 235.739637 
L 365.531541 236.649422 
L 365.823759 238.31778 
L 366.343258 243.126211 
L 366.765351 246.221693 
L 366.927695 246.480363 
L 367.025101 246.282282 
L 367.187445 245.319615 
L 367.479663 241.803512 
L 368.096568 233.800511 
L 368.193974 233.543375 
L 368.226443 233.556264 
L 368.323849 233.901332 
L 368.518661 235.937957 
L 368.875817 243.127617 
L 369.55766 256.695155 
L 369.947284 260.349583 
L 370.499252 263.345181 
L 370.726533 263.782417 
L 370.823939 263.595099 
L 370.986283 262.544348 
L 371.213564 259.203304 
L 371.700594 247.110732 
L 371.992812 243.009073 
L 372.025281 242.996494 
L 372.05775 243.091757 
L 372.187625 244.600882 
L 372.414905 251.523237 
L 372.869467 275.326428 
L 373.388967 297.810478 
L 373.746122 304.584219 
L 374.038341 306.669151 
L 374.330559 307.355593 
L 374.655246 307.545374 
L 375.369557 307.583677 
L 398.487273 307.584 
L 398.487273 307.584 
" style="fill:none;stroke:#ff7f0e;stroke-linecap:square;stroke-width:1.5;"/>
   </g>
   <g id="patch_103">
    <path d="M 57.6 307.584 
L 57.6 41.472 
" style="fill:none;stroke:#000000;stroke-linecap:square;stroke-linejoin:miter;stroke-width:0.8;"/>
   </g>
   <g id="patch_104">
    <path d="M 414.72 307.584 
L 414.72 41.472 
" style="fill:none;stroke:#000000;stroke-linecap:square;stroke-linejoin:miter;stroke-width:0.8;"/>
   </g>
   <g id="patch_105">
    <path d="M 57.6 307.584 
L 414.72 307.584 
" style="fill:none;stroke:#000000;stroke-linecap:square;stroke-linejoin:miter;stroke-width:0.8;"/>
   </g>
   <g id="patch_106">
    <path d="M 57.6 41.472 
L 414.72 41.472 
" style="fill:none;stroke:#000000;stroke-linecap:square;stroke-linejoin:miter;stroke-width:0.8;"/>
   </g>
  </g>
 </g>
 <defs>
  <clipPath id="pcf5a74865f">
   <rect height="266.112" width="357.12" x="57.6" y="41.472"/>
  </clipPath>
 </defs>
</svg>
