<?xml version="1.0" encoding="utf-8" standalone="no"?>
<!DOCTYPE svg PUBLIC "-//W3C//DTD SVG 1.1//EN"
  "http://www.w3.org/Graphics/SVG/1.1/DTD/svg11.dtd">
<!-- Created with matplotlib (https://matplotlib.org/) -->
<svg height="345.6pt" version="1.1" viewBox="0 0 460.8 345.6" width="460.8pt" xmlns="http://www.w3.org/2000/svg" xmlns:xlink="http://www.w3.org/1999/xlink">
 <defs>
  <style type="text/css">
*{stroke-linecap:butt;stroke-linejoin:round;}
  </style>
 </defs>
 <g id="figure_1">
  <g id="patch_1">
   <path d="M 0 345.6 
L 460.8 345.6 
L 460.8 0 
L 0 0 
z
" style="fill:#ffffff;"/>
  </g>
  <g id="axes_1">
   <g id="patch_2">
    <path d="M 57.6 307.584 
L 414.72 307.584 
L 414.72 41.472 
L 57.6 41.472 
z
" style="fill:#ffffff;"/>
   </g>
   <g id="patch_3">
    <path clip-path="url(#p5def6525e1)" d="M 100.23908 307.584 
L 102.958901 307.584 
L 102.958901 301.134942 
L 100.23908 301.134942 
z
" style="fill:#1f77b4;"/>
   </g>
   <g id="patch_4">
    <path clip-path="url(#p5def6525e1)" d="M 102.958901 307.584 
L 105.678707 307.584 
L 105.678707 301.779815 
L 102.958901 301.779815 
z
" style="fill:#1f77b4;"/>
   </g>
   <g id="patch_5">
    <path clip-path="url(#p5def6525e1)" d="M 105.678707 307.584 
L 108.398521 307.584 
L 108.398521 299.200201 
L 105.678707 299.200201 
z
" style="fill:#1f77b4;"/>
   </g>
   <g id="patch_6">
    <path clip-path="url(#p5def6525e1)" d="M 108.398528 307.584 
L 111.118342 307.584 
L 111.118342 293.396033 
L 108.398528 293.396033 
z
" style="fill:#1f77b4;"/>
   </g>
   <g id="patch_7">
    <path clip-path="url(#p5def6525e1)" d="M 111.118334 307.584 
L 113.838148 307.584 
L 113.838148 294.685848 
L 111.118334 294.685848 
z
" style="fill:#1f77b4;"/>
   </g>
   <g id="patch_8">
    <path clip-path="url(#p5def6525e1)" d="M 113.838156 307.584 
L 116.557969 307.584 
L 116.557969 286.946956 
L 113.838156 286.946956 
z
" style="fill:#1f77b4;"/>
   </g>
   <g id="patch_9">
    <path clip-path="url(#p5def6525e1)" d="M 116.557961 307.584 
L 119.277775 307.584 
L 119.277775 285.657141 
L 116.557961 285.657141 
z
" style="fill:#1f77b4;"/>
   </g>
   <g id="patch_10">
    <path clip-path="url(#p5def6525e1)" d="M 119.277783 307.584 
L 121.997597 307.584 
L 121.997597 292.106217 
L 119.277783 292.106217 
z
" style="fill:#1f77b4;"/>
   </g>
   <g id="patch_11">
    <path clip-path="url(#p5def6525e1)" d="M 121.997589 307.584 
L 124.717402 307.584 
L 124.717402 288.236772 
L 121.997589 288.236772 
z
" style="fill:#1f77b4;"/>
   </g>
   <g id="patch_12">
    <path clip-path="url(#p5def6525e1)" d="M 124.71741 307.584 
L 127.437224 307.584 
L 127.437224 285.012234 
L 124.71741 285.012234 
z
" style="fill:#1f77b4;"/>
   </g>
   <g id="patch_13">
    <path clip-path="url(#p5def6525e1)" d="M 127.437216 307.584 
L 130.15703 307.584 
L 130.15703 296.620571 
L 127.437216 296.620571 
z
" style="fill:#1f77b4;"/>
   </g>
   <g id="patch_14">
    <path clip-path="url(#p5def6525e1)" d="M 130.157037 307.584 
L 132.876851 307.584 
L 132.876851 288.236772 
L 130.157037 288.236772 
z
" style="fill:#1f77b4;"/>
   </g>
   <g id="patch_15">
    <path clip-path="url(#p5def6525e1)" d="M 132.876843 307.584 
L 135.596657 307.584 
L 135.596657 292.106217 
L 132.876843 292.106217 
z
" style="fill:#1f77b4;"/>
   </g>
   <g id="patch_16">
    <path clip-path="url(#p5def6525e1)" d="M 135.596665 307.584 
L 138.316478 307.584 
L 138.316478 292.751125 
L 135.596665 292.751125 
z
" style="fill:#1f77b4;"/>
   </g>
   <g id="patch_17">
    <path clip-path="url(#p5def6525e1)" d="M 138.316471 307.584 
L 141.036284 307.584 
L 141.036284 290.816402 
L 138.316471 290.816402 
z
" style="fill:#1f77b4;"/>
   </g>
   <g id="patch_18">
    <path clip-path="url(#p5def6525e1)" d="M 141.036292 307.584 
L 143.756106 307.584 
L 143.756106 292.751125 
L 141.036292 292.751125 
z
" style="fill:#1f77b4;"/>
   </g>
   <g id="patch_19">
    <path clip-path="url(#p5def6525e1)" d="M 143.756098 307.584 
L 146.475912 307.584 
L 146.475912 283.722418 
L 143.756098 283.722418 
z
" style="fill:#1f77b4;"/>
   </g>
   <g id="patch_20">
    <path clip-path="url(#p5def6525e1)" d="M 146.475919 307.584 
L 149.195733 307.584 
L 149.195733 288.881679 
L 146.475919 288.881679 
z
" style="fill:#1f77b4;"/>
   </g>
   <g id="patch_21">
    <path clip-path="url(#p5def6525e1)" d="M 149.195725 307.584 
L 151.915539 307.584 
L 151.915539 283.722418 
L 149.195725 283.722418 
z
" style="fill:#1f77b4;"/>
   </g>
   <g id="patch_22">
    <path clip-path="url(#p5def6525e1)" d="M 151.915547 307.584 
L 154.63536 307.584 
L 154.63536 290.816402 
L 151.915547 290.816402 
z
" style="fill:#1f77b4;"/>
   </g>
   <g id="patch_23">
    <path clip-path="url(#p5def6525e1)" d="M 154.635352 307.584 
L 157.355166 307.584 
L 157.355166 283.077511 
L 154.635352 283.077511 
z
" style="fill:#1f77b4;"/>
   </g>
   <g id="patch_24">
    <path clip-path="url(#p5def6525e1)" d="M 157.355174 307.584 
L 160.074987 307.584 
L 160.074987 284.367326 
L 157.355174 284.367326 
z
" style="fill:#1f77b4;"/>
   </g>
   <g id="patch_25">
    <path clip-path="url(#p5def6525e1)" d="M 160.07498 307.584 
L 162.794793 307.584 
L 162.794793 291.46131 
L 160.07498 291.46131 
z
" style="fill:#1f77b4;"/>
   </g>
   <g id="patch_26">
    <path clip-path="url(#p5def6525e1)" d="M 162.794801 307.584 
L 165.514615 307.584 
L 165.514615 283.722418 
L 162.794801 283.722418 
z
" style="fill:#1f77b4;"/>
   </g>
   <g id="patch_27">
    <path clip-path="url(#p5def6525e1)" d="M 165.514607 307.584 
L 168.234428 307.584 
L 168.234428 278.56324 
L 165.514607 278.56324 
z
" style="fill:#1f77b4;"/>
   </g>
   <g id="patch_28">
    <path clip-path="url(#p5def6525e1)" d="M 168.234428 307.584 
L 170.954242 307.584 
L 170.954242 285.012234 
L 168.234428 285.012234 
z
" style="fill:#1f77b4;"/>
   </g>
   <g id="patch_29">
    <path clip-path="url(#p5def6525e1)" d="M 170.954242 307.584 
L 173.674052 307.584 
L 173.674052 279.852933 
L 170.954242 279.852933 
z
" style="fill:#1f77b4;"/>
   </g>
   <g id="patch_30">
    <path clip-path="url(#p5def6525e1)" d="M 173.674052 307.584 
L 176.393865 307.584 
L 176.393865 275.983527 
L 173.674052 275.983527 
z
" style="fill:#1f77b4;"/>
   </g>
   <g id="patch_31">
    <path clip-path="url(#p5def6525e1)" d="M 176.393865 307.584 
L 179.113679 307.584 
L 179.113679 286.946956 
L 176.393865 286.946956 
z
" style="fill:#1f77b4;"/>
   </g>
   <g id="patch_32">
    <path clip-path="url(#p5def6525e1)" d="M 179.113679 307.584 
L 181.833493 307.584 
L 181.833493 276.628435 
L 179.113679 276.628435 
z
" style="fill:#1f77b4;"/>
   </g>
   <g id="patch_33">
    <path clip-path="url(#p5def6525e1)" d="M 181.833493 307.584 
L 184.553306 307.584 
L 184.553306 285.012234 
L 181.833493 285.012234 
z
" style="fill:#1f77b4;"/>
   </g>
   <g id="patch_34">
    <path clip-path="url(#p5def6525e1)" d="M 184.553306 307.584 
L 187.27312 307.584 
L 187.27312 278.563157 
L 184.553306 278.563157 
z
" style="fill:#1f77b4;"/>
   </g>
   <g id="patch_35">
    <path clip-path="url(#p5def6525e1)" d="M 187.27312 307.584 
L 189.992934 307.584 
L 189.992934 272.758989 
L 187.27312 272.758989 
z
" style="fill:#1f77b4;"/>
   </g>
   <g id="patch_36">
    <path clip-path="url(#p5def6525e1)" d="M 189.992934 307.584 
L 192.712747 307.584 
L 192.712747 266.309913 
L 189.992934 266.309913 
z
" style="fill:#1f77b4;"/>
   </g>
   <g id="patch_37">
    <path clip-path="url(#p5def6525e1)" d="M 192.712747 307.584 
L 195.432561 307.584 
L 195.432561 274.048804 
L 192.712747 274.048804 
z
" style="fill:#1f77b4;"/>
   </g>
   <g id="patch_38">
    <path clip-path="url(#p5def6525e1)" d="M 195.432561 307.584 
L 198.152375 307.584 
L 198.152375 271.469174 
L 195.432561 271.469174 
z
" style="fill:#1f77b4;"/>
   </g>
   <g id="patch_39">
    <path clip-path="url(#p5def6525e1)" d="M 198.152375 307.584 
L 200.872188 307.584 
L 200.872188 268.244636 
L 198.152375 268.244636 
z
" style="fill:#1f77b4;"/>
   </g>
   <g id="patch_40">
    <path clip-path="url(#p5def6525e1)" d="M 200.872184 307.584 
L 203.592002 307.584 
L 203.592002 273.403945 
L 200.872184 273.403945 
z
" style="fill:#1f77b4;"/>
   </g>
   <g id="patch_41">
    <path clip-path="url(#p5def6525e1)" d="M 203.592006 307.584 
L 206.311817 307.584 
L 206.311817 258.570987 
L 203.592006 258.570987 
z
" style="fill:#1f77b4;"/>
   </g>
   <g id="patch_42">
    <path clip-path="url(#p5def6525e1)" d="M 206.311817 307.584 
L 209.031631 307.584 
L 209.031631 250.83213 
L 206.311817 250.83213 
z
" style="fill:#1f77b4;"/>
   </g>
   <g id="patch_43">
    <path clip-path="url(#p5def6525e1)" d="M 209.031631 307.584 
L 211.751445 307.584 
L 211.751445 254.701576 
L 209.031631 254.701576 
z
" style="fill:#1f77b4;"/>
   </g>
   <g id="patch_44">
    <path clip-path="url(#p5def6525e1)" d="M 211.751445 307.584 
L 214.471258 307.584 
L 214.471258 231.484902 
L 211.751445 231.484902 
z
" style="fill:#1f77b4;"/>
   </g>
   <g id="patch_45">
    <path clip-path="url(#p5def6525e1)" d="M 214.471258 307.584 
L 217.191072 307.584 
L 217.191072 228.905271 
L 214.471258 228.905271 
z
" style="fill:#1f77b4;"/>
   </g>
   <g id="patch_46">
    <path clip-path="url(#p5def6525e1)" d="M 217.191074 307.584 
L 219.910889 307.584 
L 219.910889 233.419677 
L 217.191074 233.419677 
z
" style="fill:#1f77b4;"/>
   </g>
   <g id="patch_47">
    <path clip-path="url(#p5def6525e1)" d="M 219.910888 307.584 
L 222.6307 307.584 
L 222.6307 228.260335 
L 219.910888 228.260335 
z
" style="fill:#1f77b4;"/>
   </g>
   <g id="patch_48">
    <path clip-path="url(#p5def6525e1)" d="M 222.6307 307.584 
L 225.350514 307.584 
L 225.350514 234.70944 
L 222.6307 234.70944 
z
" style="fill:#1f77b4;"/>
   </g>
   <g id="patch_49">
    <path clip-path="url(#p5def6525e1)" d="M 225.350514 307.584 
L 228.070328 307.584 
L 228.070328 223.746025 
L 225.350514 223.746025 
z
" style="fill:#1f77b4;"/>
   </g>
   <g id="patch_50">
    <path clip-path="url(#p5def6525e1)" d="M 228.070328 307.584 
L 230.790142 307.584 
L 230.790142 203.108967 
L 228.070328 203.108967 
z
" style="fill:#1f77b4;"/>
   </g>
   <g id="patch_51">
    <path clip-path="url(#p5def6525e1)" d="M 230.790142 307.584 
L 233.509955 307.584 
L 233.509955 197.949716 
L 230.790142 197.949716 
z
" style="fill:#1f77b4;"/>
   </g>
   <g id="patch_52">
    <path clip-path="url(#p5def6525e1)" d="M 233.509955 307.584 
L 236.229769 307.584 
L 236.229769 113.466826 
L 233.509955 113.466826 
z
" style="fill:#1f77b4;"/>
   </g>
   <g id="patch_53">
    <path clip-path="url(#p5def6525e1)" d="M 236.229769 307.584 
L 238.949583 307.584 
L 238.949583 218.586757 
L 236.229769 218.586757 
z
" style="fill:#1f77b4;"/>
   </g>
   <g id="patch_54">
    <path clip-path="url(#p5def6525e1)" d="M 238.949583 307.584 
L 241.669398 307.584 
L 241.669398 217.94185 
L 238.949583 217.94185 
z
" style="fill:#1f77b4;"/>
   </g>
   <g id="patch_55">
    <path clip-path="url(#p5def6525e1)" d="M 241.669397 307.584 
L 244.38921 307.584 
L 244.38921 244.383043 
L 241.669397 244.383043 
z
" style="fill:#1f77b4;"/>
   </g>
   <g id="patch_56">
    <path clip-path="url(#p5def6525e1)" d="M 244.38921 307.584 
L 247.109025 307.584 
L 247.109025 229.550207 
L 244.38921 229.550207 
z
" style="fill:#1f77b4;"/>
   </g>
   <g id="patch_57">
    <path clip-path="url(#p5def6525e1)" d="M 247.109025 307.584 
L 249.828839 307.584 
L 249.828839 237.933978 
L 247.109025 237.933978 
z
" style="fill:#1f77b4;"/>
   </g>
   <g id="patch_58">
    <path clip-path="url(#p5def6525e1)" d="M 249.828838 307.584 
L 252.548651 307.584 
L 252.548651 223.101073 
L 249.828838 223.101073 
z
" style="fill:#1f77b4;"/>
   </g>
   <g id="patch_59">
    <path clip-path="url(#p5def6525e1)" d="M 252.548651 307.584 
L 255.268467 307.584 
L 255.268467 226.325699 
L 252.548651 226.325699 
z
" style="fill:#1f77b4;"/>
   </g>
   <g id="patch_60">
    <path clip-path="url(#p5def6525e1)" d="M 255.268467 307.584 
L 257.98828 307.584 
L 257.98828 253.411761 
L 255.268467 253.411761 
z
" style="fill:#1f77b4;"/>
   </g>
   <g id="patch_61">
    <path clip-path="url(#p5def6525e1)" d="M 257.98828 307.584 
L 260.708094 307.584 
L 260.708094 228.905271 
L 257.98828 228.905271 
z
" style="fill:#1f77b4;"/>
   </g>
   <g id="patch_62">
    <path clip-path="url(#p5def6525e1)" d="M 260.708094 307.584 
L 263.427908 307.584 
L 263.427908 238.578885 
L 260.708094 238.578885 
z
" style="fill:#1f77b4;"/>
   </g>
   <g id="patch_63">
    <path clip-path="url(#p5def6525e1)" d="M 263.427908 307.584 
L 266.147721 307.584 
L 266.147721 235.354347 
L 263.427908 235.354347 
z
" style="fill:#1f77b4;"/>
   </g>
   <g id="patch_64">
    <path clip-path="url(#p5def6525e1)" d="M 266.147719 307.584 
L 268.867533 307.584 
L 268.867533 243.093193 
L 266.147719 243.093193 
z
" style="fill:#1f77b4;"/>
   </g>
   <g id="patch_65">
    <path clip-path="url(#p5def6525e1)" d="M 268.867533 307.584 
L 271.587351 307.584 
L 271.587351 248.897491 
L 268.867533 248.897491 
z
" style="fill:#1f77b4;"/>
   </g>
   <g id="patch_66">
    <path clip-path="url(#p5def6525e1)" d="M 271.587351 307.584 
L 274.307164 307.584 
L 274.307164 244.383054 
L 271.587351 244.383054 
z
" style="fill:#1f77b4;"/>
   </g>
   <g id="patch_67">
    <path clip-path="url(#p5def6525e1)" d="M 274.307164 307.584 
L 277.026978 307.584 
L 277.026978 259.215929 
L 274.307164 259.215929 
z
" style="fill:#1f77b4;"/>
   </g>
   <g id="patch_68">
    <path clip-path="url(#p5def6525e1)" d="M 277.026978 307.584 
L 279.746791 307.584 
L 279.746791 256.636299 
L 277.026978 256.636299 
z
" style="fill:#1f77b4;"/>
   </g>
   <g id="patch_69">
    <path clip-path="url(#p5def6525e1)" d="M 279.746791 307.584 
L 282.466605 307.584 
L 282.466605 252.766853 
L 279.746791 252.766853 
z
" style="fill:#1f77b4;"/>
   </g>
   <g id="patch_70">
    <path clip-path="url(#p5def6525e1)" d="M 282.466605 307.584 
L 285.186419 307.584 
L 285.186419 248.2525 
L 282.466605 248.2525 
z
" style="fill:#1f77b4;"/>
   </g>
   <g id="patch_71">
    <path clip-path="url(#p5def6525e1)" d="M 285.186419 307.584 
L 287.906232 307.584 
L 287.906232 248.897407 
L 285.186419 248.897407 
z
" style="fill:#1f77b4;"/>
   </g>
   <g id="patch_72">
    <path clip-path="url(#p5def6525e1)" d="M 287.906232 307.584 
L 290.626046 307.584 
L 290.626046 245.672869 
L 287.906232 245.672869 
z
" style="fill:#1f77b4;"/>
   </g>
   <g id="patch_73">
    <path clip-path="url(#p5def6525e1)" d="M 290.626046 307.584 
L 293.34586 307.584 
L 293.34586 249.542315 
L 290.626046 249.542315 
z
" style="fill:#1f77b4;"/>
   </g>
   <g id="patch_74">
    <path clip-path="url(#p5def6525e1)" d="M 293.34586 307.584 
L 296.065673 307.584 
L 296.065673 252.121945 
L 293.34586 252.121945 
z
" style="fill:#1f77b4;"/>
   </g>
   <g id="patch_75">
    <path clip-path="url(#p5def6525e1)" d="M 296.065673 307.584 
L 298.785487 307.584 
L 298.785487 250.187222 
L 296.065673 250.187222 
z
" style="fill:#1f77b4;"/>
   </g>
   <g id="patch_76">
    <path clip-path="url(#p5def6525e1)" d="M 298.785491 307.584 
L 301.505304 307.584 
L 301.505304 262.440403 
L 298.785491 262.440403 
z
" style="fill:#1f77b4;"/>
   </g>
   <g id="patch_77">
    <path clip-path="url(#p5def6525e1)" d="M 301.505304 307.584 
L 304.225118 307.584 
L 304.225118 259.215929 
L 301.505304 259.215929 
z
" style="fill:#1f77b4;"/>
   </g>
   <g id="patch_78">
    <path clip-path="url(#p5def6525e1)" d="M 304.22511 307.584 
L 306.944932 307.584 
L 306.944932 268.244748 
L 304.22511 268.244748 
z
" style="fill:#1f77b4;"/>
   </g>
   <g id="patch_79">
    <path clip-path="url(#p5def6525e1)" d="M 306.944932 307.584 
L 309.664745 307.584 
L 309.664745 254.056668 
L 306.944932 254.056668 
z
" style="fill:#1f77b4;"/>
   </g>
   <g id="patch_80">
    <path clip-path="url(#p5def6525e1)" d="M 309.664753 307.584 
L 312.384567 307.584 
L 312.384567 261.150652 
L 309.664753 261.150652 
z
" style="fill:#1f77b4;"/>
   </g>
   <g id="patch_81">
    <path clip-path="url(#p5def6525e1)" d="M 312.384559 307.584 
L 315.104373 307.584 
L 315.104373 255.346483 
L 312.384559 255.346483 
z
" style="fill:#1f77b4;"/>
   </g>
   <g id="patch_82">
    <path clip-path="url(#p5def6525e1)" d="M 315.10438 307.584 
L 317.824194 307.584 
L 317.824194 258.571021 
L 315.10438 258.571021 
z
" style="fill:#1f77b4;"/>
   </g>
   <g id="patch_83">
    <path clip-path="url(#p5def6525e1)" d="M 317.824186 307.584 
L 320.544 307.584 
L 320.544 253.411761 
L 317.824186 253.411761 
z
" style="fill:#1f77b4;"/>
   </g>
   <g id="patch_84">
    <path clip-path="url(#p5def6525e1)" d="M 320.544008 307.584 
L 323.263821 307.584 
L 323.263821 259.860837 
L 320.544008 259.860837 
z
" style="fill:#1f77b4;"/>
   </g>
   <g id="patch_85">
    <path clip-path="url(#p5def6525e1)" d="M 323.263814 307.584 
L 325.983627 307.584 
L 325.983627 257.926114 
L 323.263814 257.926114 
z
" style="fill:#1f77b4;"/>
   </g>
   <g id="patch_86">
    <path clip-path="url(#p5def6525e1)" d="M 325.983635 307.584 
L 328.703449 307.584 
L 328.703449 256.636299 
L 325.983635 256.636299 
z
" style="fill:#1f77b4;"/>
   </g>
   <g id="patch_87">
    <path clip-path="url(#p5def6525e1)" d="M 328.703441 307.584 
L 331.423254 307.584 
L 331.423254 251.477038 
L 328.703441 251.477038 
z
" style="fill:#1f77b4;"/>
   </g>
   <g id="patch_88">
    <path clip-path="url(#p5def6525e1)" d="M 331.423262 307.584 
L 334.143076 307.584 
L 334.143076 251.477038 
L 331.423262 251.477038 
z
" style="fill:#1f77b4;"/>
   </g>
   <g id="patch_89">
    <path clip-path="url(#p5def6525e1)" d="M 334.143068 307.584 
L 336.862882 307.584 
L 336.862882 259.860837 
L 334.143068 259.860837 
z
" style="fill:#1f77b4;"/>
   </g>
   <g id="patch_90">
    <path clip-path="url(#p5def6525e1)" d="M 336.86289 307.584 
L 339.582703 307.584 
L 339.582703 261.150652 
L 336.86289 261.150652 
z
" style="fill:#1f77b4;"/>
   </g>
   <g id="patch_91">
    <path clip-path="url(#p5def6525e1)" d="M 339.582695 307.584 
L 342.302509 307.584 
L 342.302509 254.056668 
L 339.582695 254.056668 
z
" style="fill:#1f77b4;"/>
   </g>
   <g id="patch_92">
    <path clip-path="url(#p5def6525e1)" d="M 342.302517 307.584 
L 345.02233 307.584 
L 345.02233 255.991391 
L 342.302517 255.991391 
z
" style="fill:#1f77b4;"/>
   </g>
   <g id="patch_93">
    <path clip-path="url(#p5def6525e1)" d="M 345.022323 307.584 
L 347.742136 307.584 
L 347.742136 245.027962 
L 345.022323 245.027962 
z
" style="fill:#1f77b4;"/>
   </g>
   <g id="patch_94">
    <path clip-path="url(#p5def6525e1)" d="M 347.742144 307.584 
L 350.461958 307.584 
L 350.461958 236.644163 
L 347.742144 236.644163 
z
" style="fill:#1f77b4;"/>
   </g>
   <g id="patch_95">
    <path clip-path="url(#p5def6525e1)" d="M 350.46195 307.584 
L 353.181764 307.584 
L 353.181764 238.578885 
L 350.46195 238.578885 
z
" style="fill:#1f77b4;"/>
   </g>
   <g id="patch_96">
    <path clip-path="url(#p5def6525e1)" d="M 353.181771 307.584 
L 355.901585 307.584 
L 355.901585 245.672869 
L 353.181771 245.672869 
z
" style="fill:#1f77b4;"/>
   </g>
   <g id="patch_97">
    <path clip-path="url(#p5def6525e1)" d="M 355.901577 307.584 
L 358.621391 307.584 
L 358.621391 251.477038 
L 355.901577 251.477038 
z
" style="fill:#1f77b4;"/>
   </g>
   <g id="patch_98">
    <path clip-path="url(#p5def6525e1)" d="M 358.621399 307.584 
L 361.341212 307.584 
L 361.341212 246.962684 
L 358.621399 246.962684 
z
" style="fill:#1f77b4;"/>
   </g>
   <g id="patch_99">
    <path clip-path="url(#p5def6525e1)" d="M 361.341205 307.584 
L 364.061018 307.584 
L 364.061018 236.644163 
L 361.341205 236.644163 
z
" style="fill:#1f77b4;"/>
   </g>
   <g id="patch_100">
    <path clip-path="url(#p5def6525e1)" d="M 364.061026 307.584 
L 366.780832 307.584 
L 366.780832 260.505744 
L 364.061026 260.505744 
z
" style="fill:#1f77b4;"/>
   </g>
   <g id="patch_101">
    <path clip-path="url(#p5def6525e1)" d="M 366.780832 307.584 
L 369.500638 307.584 
L 369.500638 262.440339 
L 366.780832 262.440339 
z
" style="fill:#1f77b4;"/>
   </g>
   <g id="patch_102">
    <path clip-path="url(#p5def6525e1)" d="M 369.500638 307.584 
L 372.220459 307.584 
L 372.220459 259.860972 
L 369.500638 259.860972 
z
" style="fill:#1f77b4;"/>
   </g>
   <g id="matplotlib.axis_1">
    <g id="xtick_1">
     <g id="line2d_1">
      <defs>
       <path d="M 0 0 
L 0 3.5 
" id="m28b033a788" style="stroke:#000000;stroke-width:0.8;"/>
      </defs>
      <g>
       <use style="stroke:#000000;stroke-width:0.8;" x="106.300346" xlink:href="#m28b033a788" y="307.584"/>
      </g>
     </g>
     <g id="text_1">
      <!-- −2 -->
      <defs>
       <path d="M 10.59375 35.5 
L 73.1875 35.5 
L 73.1875 27.203125 
L 10.59375 27.203125 
z
" id="DejaVuSans-8722"/>
       <path d="M 19.1875 8.296875 
L 53.609375 8.296875 
L 53.609375 0 
L 7.328125 0 
L 7.328125 8.296875 
Q 12.9375 14.109375 22.625 23.890625 
Q 32.328125 33.6875 34.8125 36.53125 
Q 39.546875 41.84375 41.421875 45.53125 
Q 43.3125 49.21875 43.3125 52.78125 
Q 43.3125 58.59375 39.234375 62.25 
Q 35.15625 65.921875 28.609375 65.921875 
Q 23.96875 65.921875 18.8125 64.3125 
Q 13.671875 62.703125 7.8125 59.421875 
L 7.8125 69.390625 
Q 13.765625 71.78125 18.9375 73 
Q 24.125 74.21875 28.421875 74.21875 
Q 39.75 74.21875 46.484375 68.546875 
Q 53.21875 62.890625 53.21875 53.421875 
Q 53.21875 48.921875 51.53125 44.890625 
Q 49.859375 40.875 45.40625 35.40625 
Q 44.1875 33.984375 37.640625 27.21875 
Q 31.109375 20.453125 19.1875 8.296875 
z
" id="DejaVuSans-50"/>
      </defs>
      <g transform="translate(93.769487 327.501344)scale(0.17 -0.17)">
       <use xlink:href="#DejaVuSans-8722"/>
       <use x="83.789062" xlink:href="#DejaVuSans-50"/>
      </g>
     </g>
    </g>
    <g id="xtick_2">
     <g id="line2d_2">
      <g>
       <use style="stroke:#000000;stroke-width:0.8;" x="171.235584" xlink:href="#m28b033a788" y="307.584"/>
      </g>
     </g>
     <g id="text_2">
      <!-- −1 -->
      <defs>
       <path d="M 12.40625 8.296875 
L 28.515625 8.296875 
L 28.515625 63.921875 
L 10.984375 60.40625 
L 10.984375 69.390625 
L 28.421875 72.90625 
L 38.28125 72.90625 
L 38.28125 8.296875 
L 54.390625 8.296875 
L 54.390625 0 
L 12.40625 0 
z
" id="DejaVuSans-49"/>
      </defs>
      <g transform="translate(158.704725 327.501344)scale(0.17 -0.17)">
       <use xlink:href="#DejaVuSans-8722"/>
       <use x="83.789062" xlink:href="#DejaVuSans-49"/>
      </g>
     </g>
    </g>
    <g id="xtick_3">
     <g id="line2d_3">
      <g>
       <use style="stroke:#000000;stroke-width:0.8;" x="236.170823" xlink:href="#m28b033a788" y="307.584"/>
      </g>
     </g>
     <g id="text_3">
      <!-- 0 -->
      <defs>
       <path d="M 31.78125 66.40625 
Q 24.171875 66.40625 20.328125 58.90625 
Q 16.5 51.421875 16.5 36.375 
Q 16.5 21.390625 20.328125 13.890625 
Q 24.171875 6.390625 31.78125 6.390625 
Q 39.453125 6.390625 43.28125 13.890625 
Q 47.125 21.390625 47.125 36.375 
Q 47.125 51.421875 43.28125 58.90625 
Q 39.453125 66.40625 31.78125 66.40625 
z
M 31.78125 74.21875 
Q 44.046875 74.21875 50.515625 64.515625 
Q 56.984375 54.828125 56.984375 36.375 
Q 56.984375 17.96875 50.515625 8.265625 
Q 44.046875 -1.421875 31.78125 -1.421875 
Q 19.53125 -1.421875 13.0625 8.265625 
Q 6.59375 17.96875 6.59375 36.375 
Q 6.59375 54.828125 13.0625 64.515625 
Q 19.53125 74.21875 31.78125 74.21875 
z
" id="DejaVuSans-48"/>
      </defs>
      <g transform="translate(230.762698 327.501344)scale(0.17 -0.17)">
       <use xlink:href="#DejaVuSans-48"/>
      </g>
     </g>
    </g>
    <g id="xtick_4">
     <g id="line2d_4">
      <g>
       <use style="stroke:#000000;stroke-width:0.8;" x="301.106061" xlink:href="#m28b033a788" y="307.584"/>
      </g>
     </g>
     <g id="text_4">
      <!-- 1 -->
      <g transform="translate(295.697936 327.501344)scale(0.17 -0.17)">
       <use xlink:href="#DejaVuSans-49"/>
      </g>
     </g>
    </g>
    <g id="xtick_5">
     <g id="line2d_5">
      <g>
       <use style="stroke:#000000;stroke-width:0.8;" x="366.041299" xlink:href="#m28b033a788" y="307.584"/>
      </g>
     </g>
     <g id="text_5">
      <!-- 2 -->
      <g transform="translate(360.633174 327.501344)scale(0.17 -0.17)">
       <use xlink:href="#DejaVuSans-50"/>
      </g>
     </g>
    </g>
    <g id="text_6">
     <!-- Position in Radian -->
     <defs>
      <path d="M 19.671875 64.796875 
L 19.671875 37.40625 
L 32.078125 37.40625 
Q 38.96875 37.40625 42.71875 40.96875 
Q 46.484375 44.53125 46.484375 51.125 
Q 46.484375 57.671875 42.71875 61.234375 
Q 38.96875 64.796875 32.078125 64.796875 
z
M 9.8125 72.90625 
L 32.078125 72.90625 
Q 44.34375 72.90625 50.609375 67.359375 
Q 56.890625 61.8125 56.890625 51.125 
Q 56.890625 40.328125 50.609375 34.8125 
Q 44.34375 29.296875 32.078125 29.296875 
L 19.671875 29.296875 
L 19.671875 0 
L 9.8125 0 
z
" id="DejaVuSans-80"/>
      <path d="M 30.609375 48.390625 
Q 23.390625 48.390625 19.1875 42.75 
Q 14.984375 37.109375 14.984375 27.296875 
Q 14.984375 17.484375 19.15625 11.84375 
Q 23.34375 6.203125 30.609375 6.203125 
Q 37.796875 6.203125 41.984375 11.859375 
Q 46.1875 17.53125 46.1875 27.296875 
Q 46.1875 37.015625 41.984375 42.703125 
Q 37.796875 48.390625 30.609375 48.390625 
z
M 30.609375 56 
Q 42.328125 56 49.015625 48.375 
Q 55.71875 40.765625 55.71875 27.296875 
Q 55.71875 13.875 49.015625 6.21875 
Q 42.328125 -1.421875 30.609375 -1.421875 
Q 18.84375 -1.421875 12.171875 6.21875 
Q 5.515625 13.875 5.515625 27.296875 
Q 5.515625 40.765625 12.171875 48.375 
Q 18.84375 56 30.609375 56 
z
" id="DejaVuSans-111"/>
      <path d="M 44.28125 53.078125 
L 44.28125 44.578125 
Q 40.484375 46.53125 36.375 47.5 
Q 32.28125 48.484375 27.875 48.484375 
Q 21.1875 48.484375 17.84375 46.4375 
Q 14.5 44.390625 14.5 40.28125 
Q 14.5 37.15625 16.890625 35.375 
Q 19.28125 33.59375 26.515625 31.984375 
L 29.59375 31.296875 
Q 39.15625 29.25 43.1875 25.515625 
Q 47.21875 21.78125 47.21875 15.09375 
Q 47.21875 7.46875 41.1875 3.015625 
Q 35.15625 -1.421875 24.609375 -1.421875 
Q 20.21875 -1.421875 15.453125 -0.5625 
Q 10.6875 0.296875 5.421875 2 
L 5.421875 11.28125 
Q 10.40625 8.6875 15.234375 7.390625 
Q 20.0625 6.109375 24.8125 6.109375 
Q 31.15625 6.109375 34.5625 8.28125 
Q 37.984375 10.453125 37.984375 14.40625 
Q 37.984375 18.0625 35.515625 20.015625 
Q 33.0625 21.96875 24.703125 23.78125 
L 21.578125 24.515625 
Q 13.234375 26.265625 9.515625 29.90625 
Q 5.8125 33.546875 5.8125 39.890625 
Q 5.8125 47.609375 11.28125 51.796875 
Q 16.75 56 26.8125 56 
Q 31.78125 56 36.171875 55.265625 
Q 40.578125 54.546875 44.28125 53.078125 
z
" id="DejaVuSans-115"/>
      <path d="M 9.421875 54.6875 
L 18.40625 54.6875 
L 18.40625 0 
L 9.421875 0 
z
M 9.421875 75.984375 
L 18.40625 75.984375 
L 18.40625 64.59375 
L 9.421875 64.59375 
z
" id="DejaVuSans-105"/>
      <path d="M 18.3125 70.21875 
L 18.3125 54.6875 
L 36.8125 54.6875 
L 36.8125 47.703125 
L 18.3125 47.703125 
L 18.3125 18.015625 
Q 18.3125 11.328125 20.140625 9.421875 
Q 21.96875 7.515625 27.59375 7.515625 
L 36.8125 7.515625 
L 36.8125 0 
L 27.59375 0 
Q 17.1875 0 13.234375 3.875 
Q 9.28125 7.765625 9.28125 18.015625 
L 9.28125 47.703125 
L 2.6875 47.703125 
L 2.6875 54.6875 
L 9.28125 54.6875 
L 9.28125 70.21875 
z
" id="DejaVuSans-116"/>
      <path d="M 54.890625 33.015625 
L 54.890625 0 
L 45.90625 0 
L 45.90625 32.71875 
Q 45.90625 40.484375 42.875 44.328125 
Q 39.84375 48.1875 33.796875 48.1875 
Q 26.515625 48.1875 22.3125 43.546875 
Q 18.109375 38.921875 18.109375 30.90625 
L 18.109375 0 
L 9.078125 0 
L 9.078125 54.6875 
L 18.109375 54.6875 
L 18.109375 46.1875 
Q 21.34375 51.125 25.703125 53.5625 
Q 30.078125 56 35.796875 56 
Q 45.21875 56 50.046875 50.171875 
Q 54.890625 44.34375 54.890625 33.015625 
z
" id="DejaVuSans-110"/>
      <path id="DejaVuSans-32"/>
      <path d="M 44.390625 34.1875 
Q 47.5625 33.109375 50.5625 29.59375 
Q 53.5625 26.078125 56.59375 19.921875 
L 66.609375 0 
L 56 0 
L 46.6875 18.703125 
Q 43.0625 26.03125 39.671875 28.421875 
Q 36.28125 30.8125 30.421875 30.8125 
L 19.671875 30.8125 
L 19.671875 0 
L 9.8125 0 
L 9.8125 72.90625 
L 32.078125 72.90625 
Q 44.578125 72.90625 50.734375 67.671875 
Q 56.890625 62.453125 56.890625 51.90625 
Q 56.890625 45.015625 53.6875 40.46875 
Q 50.484375 35.9375 44.390625 34.1875 
z
M 19.671875 64.796875 
L 19.671875 38.921875 
L 32.078125 38.921875 
Q 39.203125 38.921875 42.84375 42.21875 
Q 46.484375 45.515625 46.484375 51.90625 
Q 46.484375 58.296875 42.84375 61.546875 
Q 39.203125 64.796875 32.078125 64.796875 
z
" id="DejaVuSans-82"/>
      <path d="M 34.28125 27.484375 
Q 23.390625 27.484375 19.1875 25 
Q 14.984375 22.515625 14.984375 16.5 
Q 14.984375 11.71875 18.140625 8.90625 
Q 21.296875 6.109375 26.703125 6.109375 
Q 34.1875 6.109375 38.703125 11.40625 
Q 43.21875 16.703125 43.21875 25.484375 
L 43.21875 27.484375 
z
M 52.203125 31.203125 
L 52.203125 0 
L 43.21875 0 
L 43.21875 8.296875 
Q 40.140625 3.328125 35.546875 0.953125 
Q 30.953125 -1.421875 24.3125 -1.421875 
Q 15.921875 -1.421875 10.953125 3.296875 
Q 6 8.015625 6 15.921875 
Q 6 25.140625 12.171875 29.828125 
Q 18.359375 34.515625 30.609375 34.515625 
L 43.21875 34.515625 
L 43.21875 35.40625 
Q 43.21875 41.609375 39.140625 45 
Q 35.0625 48.390625 27.6875 48.390625 
Q 23 48.390625 18.546875 47.265625 
Q 14.109375 46.140625 10.015625 43.890625 
L 10.015625 52.203125 
Q 14.9375 54.109375 19.578125 55.046875 
Q 24.21875 56 28.609375 56 
Q 40.484375 56 46.34375 49.84375 
Q 52.203125 43.703125 52.203125 31.203125 
z
" id="DejaVuSans-97"/>
      <path d="M 45.40625 46.390625 
L 45.40625 75.984375 
L 54.390625 75.984375 
L 54.390625 0 
L 45.40625 0 
L 45.40625 8.203125 
Q 42.578125 3.328125 38.25 0.953125 
Q 33.9375 -1.421875 27.875 -1.421875 
Q 17.96875 -1.421875 11.734375 6.484375 
Q 5.515625 14.40625 5.515625 27.296875 
Q 5.515625 40.1875 11.734375 48.09375 
Q 17.96875 56 27.875 56 
Q 33.9375 56 38.25 53.625 
Q 42.578125 51.265625 45.40625 46.390625 
z
M 14.796875 27.296875 
Q 14.796875 17.390625 18.875 11.75 
Q 22.953125 6.109375 30.078125 6.109375 
Q 37.203125 6.109375 41.296875 11.75 
Q 45.40625 17.390625 45.40625 27.296875 
Q 45.40625 37.203125 41.296875 42.84375 
Q 37.203125 48.484375 30.078125 48.484375 
Q 22.953125 48.484375 18.875 42.84375 
Q 14.796875 37.203125 14.796875 27.296875 
z
" id="DejaVuSans-100"/>
     </defs>
     <g transform="translate(102.024844 357.832125)scale(0.3 -0.3)">
      <use xlink:href="#DejaVuSans-80"/>
      <use x="60.255859" xlink:href="#DejaVuSans-111"/>
      <use x="121.4375" xlink:href="#DejaVuSans-115"/>
      <use x="173.537109" xlink:href="#DejaVuSans-105"/>
      <use x="201.320312" xlink:href="#DejaVuSans-116"/>
      <use x="240.529297" xlink:href="#DejaVuSans-105"/>
      <use x="268.3125" xlink:href="#DejaVuSans-111"/>
      <use x="329.494141" xlink:href="#DejaVuSans-110"/>
      <use x="392.873047" xlink:href="#DejaVuSans-32"/>
      <use x="424.660156" xlink:href="#DejaVuSans-105"/>
      <use x="452.443359" xlink:href="#DejaVuSans-110"/>
      <use x="515.822266" xlink:href="#DejaVuSans-32"/>
      <use x="547.609375" xlink:href="#DejaVuSans-82"/>
      <use x="617.060547" xlink:href="#DejaVuSans-97"/>
      <use x="678.339844" xlink:href="#DejaVuSans-100"/>
      <use x="741.816406" xlink:href="#DejaVuSans-105"/>
      <use x="769.599609" xlink:href="#DejaVuSans-97"/>
      <use x="830.878906" xlink:href="#DejaVuSans-110"/>
     </g>
    </g>
   </g>
   <g id="matplotlib.axis_2">
    <g id="ytick_1">
     <g id="line2d_6">
      <defs>
       <path d="M 0 0 
L -3.5 0 
" id="m09665e783d" style="stroke:#000000;stroke-width:0.8;"/>
      </defs>
      <g>
       <use style="stroke:#000000;stroke-width:0.8;" x="57.6" xlink:href="#m09665e783d" y="307.584"/>
      </g>
     </g>
     <g id="text_7">
      <!-- 0.0 -->
      <defs>
       <path d="M 10.6875 12.40625 
L 21 12.40625 
L 21 0 
L 10.6875 0 
z
" id="DejaVuSans-46"/>
      </defs>
      <g transform="translate(23.564687 314.042672)scale(0.17 -0.17)">
       <use xlink:href="#DejaVuSans-48"/>
       <use x="63.623047" xlink:href="#DejaVuSans-46"/>
       <use x="95.410156" xlink:href="#DejaVuSans-48"/>
      </g>
     </g>
    </g>
    <g id="ytick_2">
     <g id="line2d_7">
      <g>
       <use style="stroke:#000000;stroke-width:0.8;" x="57.6" xlink:href="#m09665e783d" y="267.066049"/>
      </g>
     </g>
     <g id="text_8">
      <!-- 0.2 -->
      <g transform="translate(23.564687 273.524721)scale(0.17 -0.17)">
       <use xlink:href="#DejaVuSans-48"/>
       <use x="63.623047" xlink:href="#DejaVuSans-46"/>
       <use x="95.410156" xlink:href="#DejaVuSans-50"/>
      </g>
     </g>
    </g>
    <g id="ytick_3">
     <g id="line2d_8">
      <g>
       <use style="stroke:#000000;stroke-width:0.8;" x="57.6" xlink:href="#m09665e783d" y="226.548098"/>
      </g>
     </g>
     <g id="text_9">
      <!-- 0.4 -->
      <defs>
       <path d="M 37.796875 64.3125 
L 12.890625 25.390625 
L 37.796875 25.390625 
z
M 35.203125 72.90625 
L 47.609375 72.90625 
L 47.609375 25.390625 
L 58.015625 25.390625 
L 58.015625 17.1875 
L 47.609375 17.1875 
L 47.609375 0 
L 37.796875 0 
L 37.796875 17.1875 
L 4.890625 17.1875 
L 4.890625 26.703125 
z
" id="DejaVuSans-52"/>
      </defs>
      <g transform="translate(23.564687 233.00677)scale(0.17 -0.17)">
       <use xlink:href="#DejaVuSans-48"/>
       <use x="63.623047" xlink:href="#DejaVuSans-46"/>
       <use x="95.410156" xlink:href="#DejaVuSans-52"/>
      </g>
     </g>
    </g>
    <g id="ytick_4">
     <g id="line2d_9">
      <g>
       <use style="stroke:#000000;stroke-width:0.8;" x="57.6" xlink:href="#m09665e783d" y="186.030148"/>
      </g>
     </g>
     <g id="text_10">
      <!-- 0.6 -->
      <defs>
       <path d="M 33.015625 40.375 
Q 26.375 40.375 22.484375 35.828125 
Q 18.609375 31.296875 18.609375 23.390625 
Q 18.609375 15.53125 22.484375 10.953125 
Q 26.375 6.390625 33.015625 6.390625 
Q 39.65625 6.390625 43.53125 10.953125 
Q 47.40625 15.53125 47.40625 23.390625 
Q 47.40625 31.296875 43.53125 35.828125 
Q 39.65625 40.375 33.015625 40.375 
z
M 52.59375 71.296875 
L 52.59375 62.3125 
Q 48.875 64.0625 45.09375 64.984375 
Q 41.3125 65.921875 37.59375 65.921875 
Q 27.828125 65.921875 22.671875 59.328125 
Q 17.53125 52.734375 16.796875 39.40625 
Q 19.671875 43.65625 24.015625 45.921875 
Q 28.375 48.1875 33.59375 48.1875 
Q 44.578125 48.1875 50.953125 41.515625 
Q 57.328125 34.859375 57.328125 23.390625 
Q 57.328125 12.15625 50.6875 5.359375 
Q 44.046875 -1.421875 33.015625 -1.421875 
Q 20.359375 -1.421875 13.671875 8.265625 
Q 6.984375 17.96875 6.984375 36.375 
Q 6.984375 53.65625 15.1875 63.9375 
Q 23.390625 74.21875 37.203125 74.21875 
Q 40.921875 74.21875 44.703125 73.484375 
Q 48.484375 72.75 52.59375 71.296875 
z
" id="DejaVuSans-54"/>
      </defs>
      <g transform="translate(23.564687 192.48882)scale(0.17 -0.17)">
       <use xlink:href="#DejaVuSans-48"/>
       <use x="63.623047" xlink:href="#DejaVuSans-46"/>
       <use x="95.410156" xlink:href="#DejaVuSans-54"/>
      </g>
     </g>
    </g>
    <g id="ytick_5">
     <g id="line2d_10">
      <g>
       <use style="stroke:#000000;stroke-width:0.8;" x="57.6" xlink:href="#m09665e783d" y="145.512197"/>
      </g>
     </g>
     <g id="text_11">
      <!-- 0.8 -->
      <defs>
       <path d="M 31.78125 34.625 
Q 24.75 34.625 20.71875 30.859375 
Q 16.703125 27.09375 16.703125 20.515625 
Q 16.703125 13.921875 20.71875 10.15625 
Q 24.75 6.390625 31.78125 6.390625 
Q 38.8125 6.390625 42.859375 10.171875 
Q 46.921875 13.96875 46.921875 20.515625 
Q 46.921875 27.09375 42.890625 30.859375 
Q 38.875 34.625 31.78125 34.625 
z
M 21.921875 38.8125 
Q 15.578125 40.375 12.03125 44.71875 
Q 8.5 49.078125 8.5 55.328125 
Q 8.5 64.0625 14.71875 69.140625 
Q 20.953125 74.21875 31.78125 74.21875 
Q 42.671875 74.21875 48.875 69.140625 
Q 55.078125 64.0625 55.078125 55.328125 
Q 55.078125 49.078125 51.53125 44.71875 
Q 48 40.375 41.703125 38.8125 
Q 48.828125 37.15625 52.796875 32.3125 
Q 56.78125 27.484375 56.78125 20.515625 
Q 56.78125 9.90625 50.3125 4.234375 
Q 43.84375 -1.421875 31.78125 -1.421875 
Q 19.734375 -1.421875 13.25 4.234375 
Q 6.78125 9.90625 6.78125 20.515625 
Q 6.78125 27.484375 10.78125 32.3125 
Q 14.796875 37.15625 21.921875 38.8125 
z
M 18.3125 54.390625 
Q 18.3125 48.734375 21.84375 45.5625 
Q 25.390625 42.390625 31.78125 42.390625 
Q 38.140625 42.390625 41.71875 45.5625 
Q 45.3125 48.734375 45.3125 54.390625 
Q 45.3125 60.0625 41.71875 63.234375 
Q 38.140625 66.40625 31.78125 66.40625 
Q 25.390625 66.40625 21.84375 63.234375 
Q 18.3125 60.0625 18.3125 54.390625 
z
" id="DejaVuSans-56"/>
      </defs>
      <g transform="translate(23.564687 151.970869)scale(0.17 -0.17)">
       <use xlink:href="#DejaVuSans-48"/>
       <use x="63.623047" xlink:href="#DejaVuSans-46"/>
       <use x="95.410156" xlink:href="#DejaVuSans-56"/>
      </g>
     </g>
    </g>
    <g id="ytick_6">
     <g id="line2d_11">
      <g>
       <use style="stroke:#000000;stroke-width:0.8;" x="57.6" xlink:href="#m09665e783d" y="104.994246"/>
      </g>
     </g>
     <g id="text_12">
      <!-- 1.0 -->
      <g transform="translate(23.564687 111.452918)scale(0.17 -0.17)">
       <use xlink:href="#DejaVuSans-49"/>
       <use x="63.623047" xlink:href="#DejaVuSans-46"/>
       <use x="95.410156" xlink:href="#DejaVuSans-48"/>
      </g>
     </g>
    </g>
    <g id="ytick_7">
     <g id="line2d_12">
      <g>
       <use style="stroke:#000000;stroke-width:0.8;" x="57.6" xlink:href="#m09665e783d" y="64.476295"/>
      </g>
     </g>
     <g id="text_13">
      <!-- 1.2 -->
      <g transform="translate(23.564687 70.934967)scale(0.17 -0.17)">
       <use xlink:href="#DejaVuSans-49"/>
       <use x="63.623047" xlink:href="#DejaVuSans-46"/>
       <use x="95.410156" xlink:href="#DejaVuSans-50"/>
      </g>
     </g>
    </g>
    <g id="text_14">
     <!-- Density -->
     <defs>
      <path d="M 19.671875 64.796875 
L 19.671875 8.109375 
L 31.59375 8.109375 
Q 46.6875 8.109375 53.6875 14.9375 
Q 60.6875 21.78125 60.6875 36.53125 
Q 60.6875 51.171875 53.6875 57.984375 
Q 46.6875 64.796875 31.59375 64.796875 
z
M 9.8125 72.90625 
L 30.078125 72.90625 
Q 51.265625 72.90625 61.171875 64.09375 
Q 71.09375 55.28125 71.09375 36.53125 
Q 71.09375 17.671875 61.125 8.828125 
Q 51.171875 0 30.078125 0 
L 9.8125 0 
z
" id="DejaVuSans-68"/>
      <path d="M 56.203125 29.59375 
L 56.203125 25.203125 
L 14.890625 25.203125 
Q 15.484375 15.921875 20.484375 11.0625 
Q 25.484375 6.203125 34.421875 6.203125 
Q 39.59375 6.203125 44.453125 7.46875 
Q 49.3125 8.734375 54.109375 11.28125 
L 54.109375 2.78125 
Q 49.265625 0.734375 44.1875 -0.34375 
Q 39.109375 -1.421875 33.890625 -1.421875 
Q 20.796875 -1.421875 13.15625 6.1875 
Q 5.515625 13.8125 5.515625 26.8125 
Q 5.515625 40.234375 12.765625 48.109375 
Q 20.015625 56 32.328125 56 
Q 43.359375 56 49.78125 48.890625 
Q 56.203125 41.796875 56.203125 29.59375 
z
M 47.21875 32.234375 
Q 47.125 39.59375 43.09375 43.984375 
Q 39.0625 48.390625 32.421875 48.390625 
Q 24.90625 48.390625 20.390625 44.140625 
Q 15.875 39.890625 15.1875 32.171875 
z
" id="DejaVuSans-101"/>
      <path d="M 32.171875 -5.078125 
Q 28.375 -14.84375 24.75 -17.8125 
Q 21.140625 -20.796875 15.09375 -20.796875 
L 7.90625 -20.796875 
L 7.90625 -13.28125 
L 13.1875 -13.28125 
Q 16.890625 -13.28125 18.9375 -11.515625 
Q 21 -9.765625 23.484375 -3.21875 
L 25.09375 0.875 
L 2.984375 54.6875 
L 12.5 54.6875 
L 29.59375 11.921875 
L 46.6875 54.6875 
L 56.203125 54.6875 
z
" id="DejaVuSans-121"/>
     </defs>
     <g transform="translate(13.325625 231.553781)rotate(-90)scale(0.3 -0.3)">
      <use xlink:href="#DejaVuSans-68"/>
      <use x="77.001953" xlink:href="#DejaVuSans-101"/>
      <use x="138.525391" xlink:href="#DejaVuSans-110"/>
      <use x="201.904297" xlink:href="#DejaVuSans-115"/>
      <use x="254.003906" xlink:href="#DejaVuSans-105"/>
      <use x="281.787109" xlink:href="#DejaVuSans-116"/>
      <use x="320.996094" xlink:href="#DejaVuSans-121"/>
     </g>
    </g>
   </g>
   <g id="line2d_13">
    <path clip-path="url(#p5def6525e1)" d="M 73.832727 307.584 
L 98.811149 307.476461 
L 99.20076 307.213758 
L 99.568727 306.668556 
L 100.001628 305.573044 
L 101.408558 301.613331 
L 101.863105 301.221981 
L 102.425877 301.014334 
L 102.772198 301.105899 
L 104.005968 301.704823 
L 105.001642 301.584225 
L 105.80251 301.893034 
L 106.01896 301.590319 
L 106.343636 300.660644 
L 107.25273 297.803794 
L 107.902082 296.293028 
L 108.984336 293.17521 
L 109.287367 292.956258 
L 109.525463 293.040016 
L 109.828494 293.433732 
L 110.391266 294.166012 
L 110.586072 294.099085 
L 110.845813 293.694223 
L 111.51681 292.536845 
L 111.689971 292.609024 
L 111.906422 293.020346 
L 112.252743 294.272413 
L 112.79387 296.129482 
L 112.988676 296.217585 
L 113.140191 295.968002 
L 113.378287 295.030058 
L 113.941059 291.475753 
L 114.352316 289.675177 
L 114.698637 289.080731 
L 115.044958 288.481665 
L 115.412925 287.252191 
L 115.824181 286.079062 
L 115.997342 286.056185 
L 116.170503 286.391917 
L 116.473534 287.624261 
L 117.036306 289.853013 
L 117.274402 290.109503 
L 117.447562 289.996393 
L 117.664013 289.521896 
L 117.967044 288.234028 
L 118.399946 285.225719 
L 118.941073 281.804628 
L 119.092588 281.617878 
L 119.114233 281.632483 
L 119.244104 281.948243 
L 119.460555 283.317355 
L 119.871811 287.853896 
L 120.391293 292.816666 
L 120.651034 293.663281 
L 120.80255 293.663697 
L 120.997355 293.291942 
L 121.516837 291.547885 
L 122.707316 287.03165 
L 123.140218 285.808398 
L 123.378314 285.659874 
L 123.57312 285.834734 
L 124.222472 286.703597 
L 124.244117 286.685796 
L 124.395633 286.398627 
L 124.633729 285.380298 
L 125.326371 282.131147 
L 125.434596 282.21878 
L 125.607757 282.84353 
L 125.932433 285.186471 
L 126.538496 289.467239 
L 126.863172 290.385247 
L 127.209493 290.716236 
L 127.512524 291.070333 
L 127.772265 291.800646 
L 128.118586 293.604218 
L 128.962744 298.361247 
L 129.222485 298.771554 
L 129.417291 298.750045 
L 129.655387 298.451013 
L 130.066643 297.492932 
L 130.932447 294.791923 
L 131.257123 292.910028 
L 131.690024 288.849294 
L 132.187861 284.653886 
L 132.361022 284.296885 
L 132.382667 284.307953 
L 132.490892 284.551027 
L 132.685698 285.713031 
L 133.659727 292.955114 
L 133.767952 292.888785 
L 133.962758 292.382221 
L 134.936786 289.287389 
L 135.348043 288.878119 
L 135.672719 288.825982 
L 135.93246 289.013643 
L 136.213846 289.555981 
L 136.560167 290.811247 
L 137.664066 295.377434 
L 137.858872 295.403734 
L 138.075323 295.107564 
L 139.677059 291.653818 
L 140.412991 288.901844 
L 140.564507 288.894825 
L 140.716023 289.188219 
L 140.975763 290.303175 
L 141.776631 294.122819 
L 141.971437 294.232084 
L 142.144598 294.042684 
L 142.447629 293.294796 
L 142.945466 291.411567 
L 144.287461 285.766564 
L 144.806943 284.997826 
L 145.196554 284.747928 
L 145.56452 284.791618 
L 145.975777 285.070827 
L 146.278808 285.564868 
L 147.122966 287.184617 
L 147.296127 286.988652 
L 147.664093 286.089697 
L 147.988769 285.552562 
L 148.16193 285.576725 
L 148.400026 285.903848 
L 148.789637 286.371004 
L 148.941153 286.253766 
L 149.157603 285.695402 
L 150.045052 282.858577 
L 150.218212 282.950237 
L 150.477953 283.440588 
L 151.278821 285.114067 
L 151.538562 285.141974 
L 151.863238 285.176117 
L 152.036399 285.494092 
L 152.274495 286.521814 
L 152.729042 289.884616 
L 153.118653 292.08013 
L 153.335104 292.378346 
L 153.464974 292.253863 
L 153.70307 291.610824 
L 154.157617 289.611338 
L 154.742034 285.989597 
L 155.239871 283.362708 
L 155.477967 283.015198 
L 155.607837 283.117934 
L 155.824288 283.655176 
L 156.625156 285.939448 
L 156.819962 285.907286 
L 157.447669 285.51272 
L 157.642475 285.961441 
L 157.945506 287.375344 
L 158.421697 289.412704 
L 158.529923 289.452985 
L 158.551568 289.433969 
L 158.681438 289.127305 
L 158.919534 287.810934 
L 159.568887 283.9275 
L 159.677112 283.890979 
L 159.698757 283.911578 
L 159.850273 284.291087 
L 160.153304 285.881881 
L 160.737721 288.775056 
L 161.084042 289.496233 
L 161.365428 289.656145 
L 161.603524 289.524021 
L 161.9282 289.020743 
L 163.33513 286.05539 
L 164.200934 283.784934 
L 164.828641 282.598038 
L 165.131672 281.215348 
L 166.148991 275.805848 
L 166.278861 275.920437 
L 166.473667 276.508446 
L 166.863278 278.584719 
L 167.577566 282.254483 
L 167.794017 282.569064 
L 167.923887 282.465012 
L 168.140338 281.866924 
L 168.61653 280.463403 
L 168.724755 280.548506 
L 168.876271 281.077937 
L 169.136012 283.005825 
L 169.871944 288.92306 
L 170.06675 289.208936 
L 170.196621 289.08249 
L 170.413071 288.458484 
L 170.802683 286.52763 
L 172.036452 279.735739 
L 172.209613 279.756928 
L 172.534289 279.85931 
L 172.685805 279.580232 
L 172.902256 278.555288 
L 173.291867 275.236764 
L 173.746414 271.940038 
L 173.962864 271.504818 
L 174.092735 271.607399 
L 174.309186 272.219516 
L 174.871958 274.796231 
L 175.413085 278.027779 
L 176.71179 286.937095 
L 177.101401 287.701717 
L 177.707463 288.38642 
L 177.880624 288.349767 
L 178.053784 288.051477 
L 178.29188 287.102494 
L 178.681492 284.39966 
L 179.330844 280.066238 
L 179.720456 278.872684 
L 180.97587 276.470359 
L 181.127386 276.608651 
L 181.343836 277.237914 
L 181.690158 279.134384 
L 182.664186 284.868204 
L 182.967217 285.475955 
L 183.140378 285.462897 
L 183.378474 285.128549 
L 183.919601 284.328334 
L 184.157697 284.344447 
L 184.547308 284.397464 
L 184.742114 284.1232 
L 185.001855 283.273737 
L 185.413111 280.987551 
L 186.105754 275.702982 
L 186.971557 269.281171 
L 187.209653 268.755342 
L 187.317878 268.841995 
L 187.491039 269.438067 
L 187.772425 271.481431 
L 188.508358 277.266629 
L 188.638228 277.406676 
L 188.659873 277.394007 
L 188.789744 277.112617 
L 189.02784 275.820987 
L 189.590612 270.971778 
L 190.110094 267.420969 
L 190.34819 266.930785 
L 190.456415 267.028584 
L 190.629576 267.587262 
L 190.997542 269.792528 
L 191.365508 271.472276 
L 191.495379 271.5627 
L 191.517024 271.547941 
L 191.646894 271.291047 
L 191.906635 270.134789 
L 192.361182 268.279727 
L 192.491052 268.257647 
L 192.642568 268.595407 
L 192.923954 269.974349 
L 193.378501 272.016884 
L 193.551661 272.144886 
L 193.703177 271.951322 
L 194.265949 270.946311 
L 194.287594 270.962122 
L 194.43911 271.268225 
L 194.677205 272.417713 
L 195.543009 277.237171 
L 195.651234 277.148479 
L 195.824395 276.558346 
L 196.127426 274.489453 
L 196.906649 268.894501 
L 197.16639 268.332126 
L 197.33955 268.344462 
L 197.556001 268.675089 
L 198.032193 269.971108 
L 198.486739 270.970525 
L 198.681545 271.013506 
L 198.833061 270.773762 
L 199.049511 269.933137 
L 199.417478 267.350637 
L 199.89367 264.321117 
L 200.06683 264.071251 
L 200.088475 264.080496 
L 200.218346 264.313058 
L 200.456442 265.368946 
L 201.538696 270.914799 
L 202.62095 274.654832 
L 202.772465 274.622419 
L 202.923981 274.243446 
L 203.162077 272.86678 
L 203.530043 269.103108 
L 204.439136 259.394415 
L 204.872038 257.096599 
L 205.196714 256.348611 
L 205.39152 256.303471 
L 205.651261 256.556833 
L 205.975937 256.799299 
L 206.149097 256.6437 
L 206.387193 256.011177 
L 206.92832 253.636766 
L 207.469447 251.763492 
L 207.729188 251.442931 
L 207.880704 251.515911 
L 208.07551 251.917273 
L 208.400186 253.242012 
L 209.287634 257.14076 
L 209.52573 257.350677 
L 209.720536 257.222092 
L 209.980277 256.728888 
L 210.304953 255.584131 
L 210.629629 253.551264 
L 211.127466 248.667011 
L 211.733528 243.280303 
L 214.006261 229.949549 
L 214.136132 230.012149 
L 214.309292 230.552571 
L 214.633969 232.620785 
L 215.02358 234.687143 
L 215.11016 234.748508 
L 215.15345 234.704601 
L 215.283321 234.260821 
L 215.499772 232.511905 
L 215.889383 227.02567 
L 216.690251 215.626302 
L 216.906702 214.827804 
L 216.993282 214.98268 
L 217.144798 215.956999 
L 217.382894 219.228199 
L 217.88073 230.163428 
L 218.356922 238.454248 
L 218.616663 240.044688 
L 218.703243 240.119298 
L 218.746534 240.082365 
L 218.876404 239.712481 
L 219.136145 238.095057 
L 219.677272 232.927865 
L 220.629656 223.919429 
L 220.802816 223.562371 
L 220.824461 223.569899 
L 220.932687 223.787101 
L 221.127492 224.900012 
L 221.473814 228.530075 
L 222.144811 235.360776 
L 222.447842 236.571236 
L 222.621003 236.690833 
L 222.772518 236.505647 
L 223.032259 235.72906 
L 224.48248 229.827342 
L 225.586379 222.31702 
L 225.716249 222.359963 
L 225.88941 222.755591 
L 226.820148 225.466709 
L 226.971664 225.259959 
L 227.16647 224.514351 
L 227.42621 222.433426 
L 227.750887 217.597236 
L 228.378594 203.427805 
L 228.724915 198.474616 
L 228.854786 198.071393 
L 228.876431 198.088454 
L 228.984656 198.519925 
L 229.179462 200.552863 
L 230.001975 210.657308 
L 230.06691 210.652195 
L 230.088555 210.615378 
L 230.218426 210.047028 
L 230.456522 207.726566 
L 231.51713 195.782717 
L 231.625356 195.688686 
L 231.647001 195.707288 
L 231.776871 196.072853 
L 232.014967 197.715183 
L 232.7509 203.479449 
L 232.88077 203.564977 
L 232.902416 203.545339 
L 233.053931 203.181532 
L 233.703283 201.020266 
L 233.746574 201.048536 
L 233.898089 201.382336 
L 234.309346 202.680026 
L 234.352636 202.623298 
L 234.460861 202.051416 
L 234.612377 199.759279 
L 234.807183 192.969737 
L 235.066923 174.485236 
L 235.43489 128.577019 
L 236.019307 57.672714 
L 236.149177 54.144 
L 236.192468 54.426787 
L 236.300693 58.327872 
L 236.495499 75.768062 
L 236.97169 146.602329 
L 237.426237 197.30584 
L 237.729268 211.132803 
L 237.989009 215.141398 
L 238.29204 216.672537 
L 239.049618 219.607802 
L 239.114553 219.530166 
L 239.266069 218.911682 
L 239.504165 216.718365 
L 240.261743 208.739913 
L 240.326678 208.824261 
L 240.456548 209.619945 
L 240.672999 212.794942 
L 241.040965 222.236047 
L 241.863478 243.633456 
L 242.231445 247.965583 
L 242.469541 248.83262 
L 242.577766 248.767314 
L 242.729282 248.233734 
L 242.989023 246.281551 
L 244.352663 234.033709 
L 244.89379 231.561695 
L 245.02366 231.479617 
L 245.045305 231.49874 
L 245.175176 231.820974 
L 245.413271 233.235982 
L 245.976043 236.83391 
L 246.084269 236.900182 
L 246.105914 236.881612 
L 246.235784 236.575266 
L 246.776911 234.689452 
L 246.841847 234.769585 
L 246.993362 235.39348 
L 247.274748 237.849218 
L 247.70765 241.297819 
L 247.79423 241.423218 
L 247.83752 241.388818 
L 247.967391 240.896584 
L 248.205487 238.687657 
L 248.98471 230.416781 
L 249.20116 230.019932 
L 249.352676 230.142515 
L 249.720642 230.526753 
L 249.850513 230.317828 
L 250.045318 229.418996 
L 250.34835 226.67532 
L 251.105927 219.45962 
L 251.344023 218.944028 
L 251.473894 219.045421 
L 251.668699 219.585751 
L 252.015021 221.3368 
L 252.599438 225.646005 
L 253.097275 228.757396 
L 253.33537 229.19337 
L 253.465241 229.072293 
L 253.660047 228.472438 
L 254.460915 225.196215 
L 254.52585 225.268367 
L 254.677365 225.857567 
L 254.893816 227.856314 
L 255.218492 233.355543 
L 256.149231 250.596761 
L 256.452262 252.292079 
L 256.668713 252.596376 
L 256.820228 252.530806 
L 257.015034 252.12654 
L 257.231485 251.083853 
L 257.491226 248.598984 
L 257.837547 242.797948 
L 258.919801 222.64413 
L 259.071317 222.240047 
L 259.092962 222.259561 
L 259.201187 222.647561 
L 259.395993 224.509286 
L 259.742314 230.583433 
L 260.348376 240.827697 
L 260.564827 241.788411 
L 260.651407 241.668156 
L 260.802923 240.845353 
L 261.105954 237.620616 
L 261.647081 232.233616 
L 261.820242 231.843239 
L 261.841887 231.855983 
L 261.950112 232.12904 
L 262.144918 233.473866 
L 262.469594 237.696388 
L 263.183882 247.355439 
L 263.400332 247.980848 
L 263.508558 247.765796 
L 263.703363 246.65324 
L 264.266136 241.408079 
L 264.850553 237.278056 
L 265.543195 233.61365 
L 265.651421 233.5363 
L 265.673066 233.552573 
L 265.802936 233.894735 
L 265.997742 235.216915 
L 266.365708 239.704775 
L 266.906835 245.691985 
L 267.144931 246.462589 
L 267.253157 246.376681 
L 267.426317 245.726336 
L 267.707703 243.586452 
L 268.486926 237.127249 
L 268.573506 237.06998 
L 268.616797 237.127506 
L 268.746667 237.660738 
L 268.963118 239.739467 
L 269.352729 246.269622 
L 269.915501 254.998815 
L 270.110307 255.816684 
L 270.131952 255.810397 
L 270.218532 255.588069 
L 270.391693 254.240024 
L 270.694724 249.671151 
L 271.344077 239.897886 
L 271.560527 239.027216 
L 271.647108 239.095074 
L 271.798623 239.734677 
L 272.058364 242.083151 
L 272.967457 251.364183 
L 273.075683 251.447176 
L 273.097328 251.429077 
L 273.227198 251.110006 
L 273.57352 249.337741 
L 273.876551 248.362892 
L 274.006421 248.393404 
L 274.179582 248.808764 
L 274.958805 251.869791 
L 275.348416 253.869632 
L 276.25751 259.066845 
L 276.452315 259.212447 
L 276.625476 259.018203 
L 276.993442 258.083095 
L 277.361409 257.388127 
L 277.556214 257.366305 
L 277.79431 257.636101 
L 278.335437 258.316877 
L 278.508598 258.185967 
L 278.725049 257.654395 
L 279.677432 254.717549 
L 279.893883 254.900689 
L 280.196914 255.115726 
L 280.34843 254.945413 
L 280.56488 254.274669 
L 281.127652 252.357553 
L 281.235878 252.456751 
L 281.409038 253.091865 
L 281.75536 255.581618 
L 282.188261 258.161144 
L 282.339777 258.32321 
L 282.361422 258.307948 
L 282.491292 258.016138 
L 282.707743 256.814922 
L 283.054064 253.400477 
L 284.244544 240.428443 
L 284.374414 240.28523 
L 284.396059 240.298539 
L 284.52593 240.588018 
L 284.764026 241.898613 
L 285.824635 248.841669 
L 285.997795 248.966446 
L 286.149311 248.764544 
L 286.409052 247.902671 
L 286.863598 246.497685 
L 286.993469 246.560922 
L 287.144984 247.014535 
L 287.42637 248.743934 
L 287.945852 251.792104 
L 288.075723 251.912505 
L 288.097368 251.899917 
L 288.227238 251.638176 
L 288.465334 250.483075 
L 289.417718 245.190369 
L 289.742394 244.549343 
L 289.9372 244.516941 
L 290.132005 244.777841 
L 290.824648 246.143099 
L 290.867938 246.106296 
L 291.041099 245.74122 
L 291.560581 244.401769 
L 291.582226 244.418881 
L 291.712096 244.75047 
L 291.928547 246.2016 
L 292.924221 254.568262 
L 293.075736 254.559777 
L 293.292187 254.185797 
L 294.374441 251.466709 
L 294.958858 249.971229 
L 295.175309 249.859259 
L 295.39176 250.023563 
L 295.803016 250.360287 
L 295.954532 250.150894 
L 296.170983 249.303714 
L 296.603884 246.270723 
L 296.906915 244.946252 
L 296.993496 244.971595 
L 297.123366 245.430299 
L 297.339817 247.282996 
L 298.465361 259.173822 
L 298.638522 259.321912 
L 298.790037 259.137947 
L 299.049778 258.351963 
L 299.61255 256.639162 
L 299.720776 256.709843 
L 299.872291 257.196554 
L 300.110387 258.904284 
L 301.084416 267.204387 
L 301.192641 267.17181 
L 301.344157 266.765714 
L 301.647188 265.121709 
L 302.642861 259.343189 
L 302.989183 258.481445 
L 303.162343 258.453137 
L 303.335504 258.725885 
L 303.595245 259.668779 
L 304.093082 262.587514 
L 304.699144 265.706879 
L 305.1104 266.773706 
L 305.586592 267.393783 
L 305.911268 267.547095 
L 306.084429 267.39677 
L 306.279235 266.88359 
L 306.538976 265.489625 
L 306.971877 261.6809 
L 307.7511 254.995429 
L 308.140711 253.379899 
L 308.443743 252.927486 
L 309.07145 252.289876 
L 309.396126 251.999438 
L 309.525997 252.135553 
L 309.699157 252.70762 
L 309.958898 254.528406 
L 311.084442 264.07281 
L 311.300893 264.271811 
L 311.474054 264.142581 
L 311.75544 263.563356 
L 312.383147 261.526459 
L 313.357176 258.271436 
L 313.833367 254.525398 
L 314.352849 251.044989 
L 314.720816 249.890947 
L 315.045492 249.445976 
L 315.218652 249.467459 
L 315.391813 249.775138 
L 315.629909 250.776176 
L 315.997875 253.491963 
L 316.690518 260.511947 
L 317.469741 268.431128 
L 317.642901 268.799617 
L 317.664546 268.786705 
L 317.772772 268.521065 
L 317.967577 267.230517 
L 318.292254 263.229284 
L 319.244637 250.490203 
L 319.482733 249.662843 
L 319.590958 249.745617 
L 319.742474 250.32186 
L 320.002215 252.363608 
L 320.932953 260.612342 
L 321.041179 260.695529 
L 321.084469 260.659705 
L 321.235984 260.261236 
L 321.582306 258.423835 
L 321.971917 256.854934 
L 322.145078 256.762143 
L 322.318238 257.010822 
L 323.054171 258.423663 
L 323.227332 258.233083 
L 323.530363 257.432628 
L 323.98491 256.345308 
L 324.136425 256.361619 
L 324.309586 256.705502 
L 324.634262 258.036649 
L 325.002228 259.225813 
L 325.110454 259.197912 
L 325.240324 258.842872 
L 325.456775 257.480048 
L 326.322578 251.026022 
L 326.409158 251.109814 
L 326.560674 251.687955 
L 326.84206 253.879507 
L 327.556348 259.648016 
L 327.772798 259.996958 
L 327.902669 259.818479 
L 328.11912 259.000522 
L 329.028213 254.968766 
L 329.201374 254.955813 
L 329.43947 255.248653 
L 329.807436 255.650696 
L 329.958951 255.548154 
L 330.153757 255.066976 
L 330.478433 253.490071 
L 331.01956 250.958706 
L 331.214366 250.825689 
L 331.365882 251.059965 
L 331.690558 252.136268 
L 332.080169 253.133876 
L 332.231685 253.139311 
L 332.404845 252.829132 
L 332.686231 251.727327 
L 333.292294 249.302645 
L 333.422164 249.307121 
L 333.57368 249.703517 
L 333.811776 251.177124 
L 334.829094 258.741856 
L 334.958965 258.711156 
L 335.175416 258.289181 
L 335.565027 257.583769 
L 335.716543 257.63334 
L 335.911348 257.996889 
L 336.603991 259.524961 
L 336.755506 259.365792 
L 336.971957 258.711097 
L 337.729535 256.00277 
L 337.83776 256.138679 
L 338.032566 256.897388 
L 338.378887 259.474397 
L 338.963304 263.64145 
L 339.179755 264.057763 
L 339.287981 263.948053 
L 339.461141 263.320326 
L 339.720882 261.389412 
L 340.175429 255.951782 
L 340.716556 250.122491 
L 340.933007 249.485718 
L 341.019587 249.588834 
L 341.192748 250.336577 
L 342.123486 255.505648 
L 342.361582 255.445767 
L 342.534743 255.494948 
L 342.707903 255.863054 
L 342.967644 257.125883 
L 343.703577 261.118268 
L 343.855092 261.174734 
L 343.984963 260.922289 
L 344.201414 259.883401 
L 344.504445 257.180591 
L 344.958991 250.765005 
L 345.80315 238.488055 
L 345.997955 237.899594 
L 346.084536 238.063871 
L 346.257696 239.110448 
L 346.625663 243.2974 
L 347.058564 247.45561 
L 347.25337 247.951976 
L 347.33995 247.849095 
L 347.491466 247.221759 
L 347.772852 244.854006 
L 348.638655 236.873084 
L 348.855106 236.537566 
L 348.984976 236.713267 
L 349.223072 237.5849 
L 349.677619 240.331782 
L 350.889743 248.398067 
L 350.911388 248.393244 
L 351.019614 248.192327 
L 351.192774 247.225199 
L 351.452515 244.299404 
L 351.950352 235.410427 
L 352.448189 227.939563 
L 352.66464 227.021948 
L 352.75122 227.183609 
L 352.902736 228.198896 
L 353.162477 231.841979 
L 354.374601 251.859 
L 354.547762 252.270727 
L 354.569407 252.264182 
L 354.677632 252.045715 
L 354.872438 250.946452 
L 355.305339 246.674282 
L 355.716596 243.585383 
L 355.933047 243.166393 
L 356.062917 243.27651 
L 356.301013 243.923536 
L 356.84214 246.232609 
L 357.253397 248.971064 
L 358.422231 257.773927 
L 358.530456 257.817417 
L 358.552101 257.796675 
L 358.681972 257.452216 
L 358.898423 256.000207 
L 359.223099 251.921506 
L 360.023967 241.257431 
L 360.197127 240.872559 
L 360.305353 241.082501 
L 360.521804 242.258671 
L 360.97635 244.769277 
L 361.041285 244.788293 
L 361.084576 244.727543 
L 361.214446 244.1746 
L 361.430897 242.070993 
L 362.318345 231.927325 
L 362.404925 231.989984 
L 362.556441 232.651325 
L 362.837827 235.215527 
L 363.725275 246.364305 
L 364.591078 257.080081 
L 364.872464 258.235427 
L 365.11056 258.473185 
L 365.391946 258.704573 
L 365.608397 259.275001 
L 365.933073 260.941067 
L 366.798877 265.77175 
L 366.928747 265.841576 
L 366.950392 265.8239 
L 367.080263 265.531827 
L 367.296713 264.340913 
L 367.70797 260.429685 
L 368.119226 257.351487 
L 368.249097 257.169908 
L 368.270742 257.187367 
L 368.378967 257.484501 
L 368.573773 258.864026 
L 368.941739 263.580191 
L 369.634382 272.202841 
L 370.045638 274.650746 
L 370.43525 275.77329 
L 370.608411 275.862041 
L 370.738281 275.637609 
L 370.911442 274.782386 
L 371.149537 272.293522 
L 371.582439 264.645815 
L 371.92876 260.298867 
L 371.993696 260.201331 
L 372.036986 260.303982 
L 372.166856 261.467717 
L 372.383307 266.233951 
L 372.816209 282.564656 
L 373.357336 300.102504 
L 373.703657 305.153273 
L 374.006688 306.860932 
L 374.288074 307.390496 
L 374.61275 307.550442 
L 375.391973 307.583818 
L 398.487273 307.584 
L 398.487273 307.584 
" style="fill:none;stroke:#ff7f0e;stroke-linecap:square;stroke-width:1.5;"/>
   </g>
   <g id="patch_103">
    <path d="M 57.6 307.584 
L 57.6 41.472 
" style="fill:none;stroke:#000000;stroke-linecap:square;stroke-linejoin:miter;stroke-width:0.8;"/>
   </g>
   <g id="patch_104">
    <path d="M 414.72 307.584 
L 414.72 41.472 
" style="fill:none;stroke:#000000;stroke-linecap:square;stroke-linejoin:miter;stroke-width:0.8;"/>
   </g>
   <g id="patch_105">
    <path d="M 57.6 307.584 
L 414.72 307.584 
" style="fill:none;stroke:#000000;stroke-linecap:square;stroke-linejoin:miter;stroke-width:0.8;"/>
   </g>
   <g id="patch_106">
    <path d="M 57.6 41.472 
L 414.72 41.472 
" style="fill:none;stroke:#000000;stroke-linecap:square;stroke-linejoin:miter;stroke-width:0.8;"/>
   </g>
  </g>
 </g>
 <defs>
  <clipPath id="p5def6525e1">
   <rect height="266.112" width="357.12" x="57.6" y="41.472"/>
  </clipPath>
 </defs>
</svg>
