<?xml version="1.0" encoding="utf-8" standalone="no"?>
<!DOCTYPE svg PUBLIC "-//W3C//DTD SVG 1.1//EN"
  "http://www.w3.org/Graphics/SVG/1.1/DTD/svg11.dtd">
<!-- Created with matplotlib (https://matplotlib.org/) -->
<svg height="345.6pt" version="1.1" viewBox="0 0 460.8 345.6" width="460.8pt" xmlns="http://www.w3.org/2000/svg" xmlns:xlink="http://www.w3.org/1999/xlink">
 <defs>
  <style type="text/css">
*{stroke-linecap:butt;stroke-linejoin:round;}
  </style>
 </defs>
 <g id="figure_1">
  <g id="patch_1">
   <path d="M 0 345.6 
L 460.8 345.6 
L 460.8 0 
L 0 0 
z
" style="fill:#ffffff;"/>
  </g>
  <g id="axes_1">
   <g id="patch_2">
    <path d="M 57.6 307.584 
L 414.72 307.584 
L 414.72 41.472 
L 57.6 41.472 
z
" style="fill:#ffffff;"/>
   </g>
   <g id="patch_3">
    <path clip-path="url(#p806a28fc91)" d="M 73.832727 307.584 
L 77.079271 307.584 
L 77.079271 306.781552 
L 73.832727 306.781552 
z
" style="fill:#1f77b4;"/>
   </g>
   <g id="patch_4">
    <path clip-path="url(#p806a28fc91)" d="M 77.079271 307.584 
L 80.325814 307.584 
L 80.325814 306.781552 
L 77.079271 306.781552 
z
" style="fill:#1f77b4;"/>
   </g>
   <g id="patch_5">
    <path clip-path="url(#p806a28fc91)" d="M 80.325814 307.584 
L 83.572357 307.584 
L 83.572357 307.049035 
L 80.325814 307.049035 
z
" style="fill:#1f77b4;"/>
   </g>
   <g id="patch_6">
    <path clip-path="url(#p806a28fc91)" d="M 83.572357 307.584 
L 86.818914 307.584 
L 86.818914 306.514074 
L 83.572357 306.514074 
z
" style="fill:#1f77b4;"/>
   </g>
   <g id="patch_7">
    <path clip-path="url(#p806a28fc91)" d="M 86.818914 307.584 
L 90.065457 307.584 
L 90.065457 306.51407 
L 86.818914 306.51407 
z
" style="fill:#1f77b4;"/>
   </g>
   <g id="patch_8">
    <path clip-path="url(#p806a28fc91)" d="M 90.065457 307.584 
L 93.312001 307.584 
L 93.312001 305.711622 
L 90.065457 305.711622 
z
" style="fill:#1f77b4;"/>
   </g>
   <g id="patch_9">
    <path clip-path="url(#p806a28fc91)" d="M 93.312001 307.584 
L 96.558544 307.584 
L 96.558544 304.909174 
L 93.312001 304.909174 
z
" style="fill:#1f77b4;"/>
   </g>
   <g id="patch_10">
    <path clip-path="url(#p806a28fc91)" d="M 96.558544 307.584 
L 99.805087 307.584 
L 99.805087 305.711622 
L 96.558544 305.711622 
z
" style="fill:#1f77b4;"/>
   </g>
   <g id="patch_11">
    <path clip-path="url(#p806a28fc91)" d="M 99.805087 307.584 
L 103.051631 307.584 
L 103.051631 306.781552 
L 99.805087 306.781552 
z
" style="fill:#1f77b4;"/>
   </g>
   <g id="patch_12">
    <path clip-path="url(#p806a28fc91)" d="M 103.051644 307.584 
L 106.2982 307.584 
L 106.2982 307.584 
L 103.051644 307.584 
z
" style="fill:#1f77b4;"/>
   </g>
   <g id="patch_13">
    <path clip-path="url(#p806a28fc91)" d="M 106.298187 307.584 
L 109.54473 307.584 
L 109.54473 307.316517 
L 106.298187 307.316517 
z
" style="fill:#1f77b4;"/>
   </g>
   <g id="patch_14">
    <path clip-path="url(#p806a28fc91)" d="M 109.54473 307.584 
L 112.791274 307.584 
L 112.791274 307.316517 
L 109.54473 307.316517 
z
" style="fill:#1f77b4;"/>
   </g>
   <g id="patch_15">
    <path clip-path="url(#p806a28fc91)" d="M 112.791274 307.584 
L 116.037817 307.584 
L 116.037817 306.781552 
L 112.791274 306.781552 
z
" style="fill:#1f77b4;"/>
   </g>
   <g id="patch_16">
    <path clip-path="url(#p806a28fc91)" d="M 116.037817 307.584 
L 119.28436 307.584 
L 119.28436 306.781552 
L 116.037817 306.781552 
z
" style="fill:#1f77b4;"/>
   </g>
   <g id="patch_17">
    <path clip-path="url(#p806a28fc91)" d="M 119.28436 307.584 
L 122.530904 307.584 
L 122.530904 305.979105 
L 119.28436 305.979105 
z
" style="fill:#1f77b4;"/>
   </g>
   <g id="patch_18">
    <path clip-path="url(#p806a28fc91)" d="M 122.530904 307.584 
L 125.77746 307.584 
L 125.77746 305.979111 
L 122.530904 305.979111 
z
" style="fill:#1f77b4;"/>
   </g>
   <g id="patch_19">
    <path clip-path="url(#p806a28fc91)" d="M 125.77746 307.584 
L 129.023997 307.584 
L 129.023997 304.909169 
L 125.77746 304.909169 
z
" style="fill:#1f77b4;"/>
   </g>
   <g id="patch_20">
    <path clip-path="url(#p806a28fc91)" d="M 129.024004 307.584 
L 132.270554 307.584 
L 132.270554 304.641698 
L 129.024004 304.641698 
z
" style="fill:#1f77b4;"/>
   </g>
   <g id="patch_21">
    <path clip-path="url(#p806a28fc91)" d="M 132.270547 307.584 
L 135.51709 307.584 
L 135.51709 304.909174 
L 132.270547 304.909174 
z
" style="fill:#1f77b4;"/>
   </g>
   <g id="patch_22">
    <path clip-path="url(#p806a28fc91)" d="M 135.51709 307.584 
L 138.763634 307.584 
L 138.763634 303.839244 
L 135.51709 303.839244 
z
" style="fill:#1f77b4;"/>
   </g>
   <g id="patch_23">
    <path clip-path="url(#p806a28fc91)" d="M 138.763634 307.584 
L 142.010184 307.584 
L 142.010184 301.164432 
L 138.763634 301.164432 
z
" style="fill:#1f77b4;"/>
   </g>
   <g id="patch_24">
    <path clip-path="url(#p806a28fc91)" d="M 142.010184 307.584 
L 145.256727 307.584 
L 145.256727 302.501831 
L 142.010184 302.501831 
z
" style="fill:#1f77b4;"/>
   </g>
   <g id="patch_25">
    <path clip-path="url(#p806a28fc91)" d="M 145.256727 307.584 
L 148.50327 307.584 
L 148.50327 301.431901 
L 145.256727 301.431901 
z
" style="fill:#1f77b4;"/>
   </g>
   <g id="patch_26">
    <path clip-path="url(#p806a28fc91)" d="M 148.503277 307.584 
L 151.749827 307.584 
L 151.749827 300.629468 
L 148.503277 300.629468 
z
" style="fill:#1f77b4;"/>
   </g>
   <g id="patch_27">
    <path clip-path="url(#p806a28fc91)" d="M 151.74982 307.584 
L 154.996364 307.584 
L 154.996364 302.234349 
L 151.74982 302.234349 
z
" style="fill:#1f77b4;"/>
   </g>
   <g id="patch_28">
    <path clip-path="url(#p806a28fc91)" d="M 154.996364 307.584 
L 158.242907 307.584 
L 158.242907 300.094488 
L 154.996364 300.094488 
z
" style="fill:#1f77b4;"/>
   </g>
   <g id="patch_29">
    <path clip-path="url(#p806a28fc91)" d="M 158.242907 307.584 
L 161.489457 307.584 
L 161.489457 299.55954 
L 158.242907 299.55954 
z
" style="fill:#1f77b4;"/>
   </g>
   <g id="patch_30">
    <path clip-path="url(#p806a28fc91)" d="M 161.489457 307.584 
L 164.736 307.584 
L 164.736 292.070012 
L 161.489457 292.070012 
z
" style="fill:#1f77b4;"/>
   </g>
   <g id="patch_31">
    <path clip-path="url(#p806a28fc91)" d="M 164.736 307.584 
L 167.982544 307.584 
L 167.982544 289.395186 
L 164.736 289.395186 
z
" style="fill:#1f77b4;"/>
   </g>
   <g id="patch_32">
    <path clip-path="url(#p806a28fc91)" d="M 167.98255 307.584 
L 171.2291 307.584 
L 171.2291 293.407453 
L 167.98255 293.407453 
z
" style="fill:#1f77b4;"/>
   </g>
   <g id="patch_33">
    <path clip-path="url(#p806a28fc91)" d="M 171.229094 307.584 
L 174.475637 307.584 
L 174.475637 283.243087 
L 171.229094 283.243087 
z
" style="fill:#1f77b4;"/>
   </g>
   <g id="patch_34">
    <path clip-path="url(#p806a28fc91)" d="M 174.475637 307.584 
L 177.72218 307.584 
L 177.72218 276.823506 
L 174.475637 276.823506 
z
" style="fill:#1f77b4;"/>
   </g>
   <g id="patch_35">
    <path clip-path="url(#p806a28fc91)" d="M 177.72218 307.584 
L 180.96873 307.584 
L 180.96873 271.74141 
L 177.72218 271.74141 
z
" style="fill:#1f77b4;"/>
   </g>
   <g id="patch_36">
    <path clip-path="url(#p806a28fc91)" d="M 180.96873 307.584 
L 184.215274 307.584 
L 184.215274 269.066512 
L 180.96873 269.066512 
z
" style="fill:#1f77b4;"/>
   </g>
   <g id="patch_37">
    <path clip-path="url(#p806a28fc91)" d="M 184.215274 307.584 
L 187.461817 307.584 
L 187.461817 277.893436 
L 184.215274 277.893436 
z
" style="fill:#1f77b4;"/>
   </g>
   <g id="patch_38">
    <path clip-path="url(#p806a28fc91)" d="M 187.461817 307.584 
L 190.708364 307.584 
L 190.708364 275.486126 
L 187.461817 275.486126 
z
" style="fill:#1f77b4;"/>
   </g>
   <g id="patch_39">
    <path clip-path="url(#p806a28fc91)" d="M 190.708367 307.584 
L 193.954913 307.584 
L 193.954913 277.358502 
L 190.708367 277.358502 
z
" style="fill:#1f77b4;"/>
   </g>
   <g id="patch_40">
    <path clip-path="url(#p806a28fc91)" d="M 193.95491 307.584 
L 197.201453 307.584 
L 197.201453 275.486093 
L 193.95491 275.486093 
z
" style="fill:#1f77b4;"/>
   </g>
   <g id="patch_41">
    <path clip-path="url(#p806a28fc91)" d="M 197.201453 307.584 
L 200.448 307.584 
L 200.448 266.65921 
L 197.201453 266.65921 
z
" style="fill:#1f77b4;"/>
   </g>
   <g id="patch_42">
    <path clip-path="url(#p806a28fc91)" d="M 200.448003 307.584 
L 203.69455 307.584 
L 203.69455 261.309565 
L 200.448003 261.309565 
z
" style="fill:#1f77b4;"/>
   </g>
   <g id="patch_43">
    <path clip-path="url(#p806a28fc91)" d="M 203.694547 307.584 
L 206.94109 307.584 
L 206.94109 250.342733 
L 203.694547 250.342733 
z
" style="fill:#1f77b4;"/>
   </g>
   <g id="patch_44">
    <path clip-path="url(#p806a28fc91)" d="M 206.94109 307.584 
L 210.187637 307.584 
L 210.187637 241.783358 
L 206.94109 241.783358 
z
" style="fill:#1f77b4;"/>
   </g>
   <g id="patch_45">
    <path clip-path="url(#p806a28fc91)" d="M 210.187637 307.584 
L 213.434182 307.584 
L 213.434182 237.771088 
L 210.187637 237.771088 
z
" style="fill:#1f77b4;"/>
   </g>
   <g id="patch_46">
    <path clip-path="url(#p806a28fc91)" d="M 213.434183 307.584 
L 216.680728 307.584 
L 216.680728 233.223887 
L 213.434183 233.223887 
z
" style="fill:#1f77b4;"/>
   </g>
   <g id="patch_47">
    <path clip-path="url(#p806a28fc91)" d="M 216.680727 307.584 
L 219.927273 307.584 
L 219.927273 225.199456 
L 216.680727 225.199456 
z
" style="fill:#1f77b4;"/>
   </g>
   <g id="patch_48">
    <path clip-path="url(#p806a28fc91)" d="M 219.927273 307.584 
L 223.173818 307.584 
L 223.173818 222.257108 
L 219.927273 222.257108 
z
" style="fill:#1f77b4;"/>
   </g>
   <g id="patch_49">
    <path clip-path="url(#p806a28fc91)" d="M 223.173818 307.584 
L 226.420363 307.584 
L 226.420363 226.536827 
L 223.173818 226.536827 
z
" style="fill:#1f77b4;"/>
   </g>
   <g id="patch_50">
    <path clip-path="url(#p806a28fc91)" d="M 226.420363 307.584 
L 229.666909 307.584 
L 229.666909 214.232659 
L 226.420363 214.232659 
z
" style="fill:#1f77b4;"/>
   </g>
   <g id="patch_51">
    <path clip-path="url(#p806a28fc91)" d="M 229.666909 307.584 
L 232.913455 307.584 
L 232.913455 215.837541 
L 229.666909 215.837541 
z
" style="fill:#1f77b4;"/>
   </g>
   <g id="patch_52">
    <path clip-path="url(#p806a28fc91)" d="M 232.913455 307.584 
L 236.16 307.584 
L 236.16 201.393492 
L 232.913455 201.393492 
z
" style="fill:#1f77b4;"/>
   </g>
   <g id="patch_53">
    <path clip-path="url(#p806a28fc91)" d="M 236.16 307.584 
L 239.406545 307.584 
L 239.406545 135.325343 
L 236.16 135.325343 
z
" style="fill:#1f77b4;"/>
   </g>
   <g id="patch_54">
    <path clip-path="url(#p806a28fc91)" d="M 239.406546 307.584 
L 242.653091 307.584 
L 242.653091 194.43895 
L 239.406546 194.43895 
z
" style="fill:#1f77b4;"/>
   </g>
   <g id="patch_55">
    <path clip-path="url(#p806a28fc91)" d="M 242.65309 307.584 
L 245.899637 307.584 
L 245.899637 214.500141 
L 242.65309 214.500141 
z
" style="fill:#1f77b4;"/>
   </g>
   <g id="patch_56">
    <path clip-path="url(#p806a28fc91)" d="M 245.899637 307.584 
L 249.146182 307.584 
L 249.146182 216.105012 
L 245.899637 216.105012 
z
" style="fill:#1f77b4;"/>
   </g>
   <g id="patch_57">
    <path clip-path="url(#p806a28fc91)" d="M 249.146182 307.584 
L 252.392727 307.584 
L 252.392727 227.874239 
L 249.146182 227.874239 
z
" style="fill:#1f77b4;"/>
   </g>
   <g id="patch_58">
    <path clip-path="url(#p806a28fc91)" d="M 252.392727 307.584 
L 255.639273 307.584 
L 255.639273 221.989669 
L 252.392727 221.989669 
z
" style="fill:#1f77b4;"/>
   </g>
   <g id="patch_59">
    <path clip-path="url(#p806a28fc91)" d="M 255.639273 307.584 
L 258.885818 307.584 
L 258.885818 225.734379 
L 255.639273 225.734379 
z
" style="fill:#1f77b4;"/>
   </g>
   <g id="patch_60">
    <path clip-path="url(#p806a28fc91)" d="M 258.88582 307.584 
L 262.132365 307.584 
L 262.132365 229.746616 
L 258.88582 229.746616 
z
" style="fill:#1f77b4;"/>
   </g>
   <g id="patch_61">
    <path clip-path="url(#p806a28fc91)" d="M 262.132363 307.584 
L 265.37891 307.584 
L 265.37891 234.293854 
L 262.132363 234.293854 
z
" style="fill:#1f77b4;"/>
   </g>
   <g id="patch_62">
    <path clip-path="url(#p806a28fc91)" d="M 265.37891 307.584 
L 268.625453 307.584 
L 268.625453 238.840983 
L 265.37891 238.840983 
z
" style="fill:#1f77b4;"/>
   </g>
   <g id="patch_63">
    <path clip-path="url(#p806a28fc91)" d="M 268.625453 307.584 
L 271.872 307.584 
L 271.872 223.32708 
L 268.625453 223.32708 
z
" style="fill:#1f77b4;"/>
   </g>
   <g id="patch_64">
    <path clip-path="url(#p806a28fc91)" d="M 271.872003 307.584 
L 275.11855 307.584 
L 275.11855 229.21169 
L 271.872003 229.21169 
z
" style="fill:#1f77b4;"/>
   </g>
   <g id="patch_65">
    <path clip-path="url(#p806a28fc91)" d="M 275.118547 307.584 
L 278.36509 307.584 
L 278.36509 241.783291 
L 275.118547 241.783291 
z
" style="fill:#1f77b4;"/>
   </g>
   <g id="patch_66">
    <path clip-path="url(#p806a28fc91)" d="M 278.36509 307.584 
L 281.611636 307.584 
L 281.611636 243.120769 
L 278.36509 243.120769 
z
" style="fill:#1f77b4;"/>
   </g>
   <g id="patch_67">
    <path clip-path="url(#p806a28fc91)" d="M 281.61164 307.584 
L 284.858186 307.584 
L 284.858186 238.038606 
L 281.61164 238.038606 
z
" style="fill:#1f77b4;"/>
   </g>
   <g id="patch_68">
    <path clip-path="url(#p806a28fc91)" d="M 284.858183 307.584 
L 288.104726 307.584 
L 288.104726 244.458117 
L 284.858183 244.458117 
z
" style="fill:#1f77b4;"/>
   </g>
   <g id="patch_69">
    <path clip-path="url(#p806a28fc91)" d="M 288.104726 307.584 
L 291.351273 307.584 
L 291.351273 238.841053 
L 288.104726 238.841053 
z
" style="fill:#1f77b4;"/>
   </g>
   <g id="patch_70">
    <path clip-path="url(#p806a28fc91)" d="M 291.351276 307.584 
L 294.59782 307.584 
L 294.59782 254.622507 
L 291.351276 254.622507 
z
" style="fill:#1f77b4;"/>
   </g>
   <g id="patch_71">
    <path clip-path="url(#p806a28fc91)" d="M 294.59782 307.584 
L 297.844363 307.584 
L 297.844363 257.029797 
L 294.59782 257.029797 
z
" style="fill:#1f77b4;"/>
   </g>
   <g id="patch_72">
    <path clip-path="url(#p806a28fc91)" d="M 297.844363 307.584 
L 301.090906 307.584 
L 301.090906 263.449378 
L 297.844363 263.449378 
z
" style="fill:#1f77b4;"/>
   </g>
   <g id="patch_73">
    <path clip-path="url(#p806a28fc91)" d="M 301.090906 307.584 
L 304.337456 307.584 
L 304.337456 267.72918 
L 301.090906 267.72918 
z
" style="fill:#1f77b4;"/>
   </g>
   <g id="patch_74">
    <path clip-path="url(#p806a28fc91)" d="M 304.337456 307.584 
L 307.584 307.584 
L 307.584 269.86896 
L 304.337456 269.86896 
z
" style="fill:#1f77b4;"/>
   </g>
   <g id="patch_75">
    <path clip-path="url(#p806a28fc91)" d="M 307.584 307.584 
L 310.830543 307.584 
L 310.830543 267.461617 
L 307.584 267.461617 
z
" style="fill:#1f77b4;"/>
   </g>
   <g id="patch_76">
    <path clip-path="url(#p806a28fc91)" d="M 310.83055 307.584 
L 314.0771 307.584 
L 314.0771 273.881266 
L 310.83055 273.881266 
z
" style="fill:#1f77b4;"/>
   </g>
   <g id="patch_77">
    <path clip-path="url(#p806a28fc91)" d="M 314.077093 307.584 
L 317.323636 307.584 
L 317.323636 278.695884 
L 314.077093 278.695884 
z
" style="fill:#1f77b4;"/>
   </g>
   <g id="patch_78">
    <path clip-path="url(#p806a28fc91)" d="M 317.323636 307.584 
L 320.57018 307.584 
L 320.57018 270.136442 
L 317.323636 270.136442 
z
" style="fill:#1f77b4;"/>
   </g>
   <g id="patch_79">
    <path clip-path="url(#p806a28fc91)" d="M 320.57018 307.584 
L 323.81673 307.584 
L 323.81673 274.951194 
L 320.57018 274.951194 
z
" style="fill:#1f77b4;"/>
   </g>
   <g id="patch_80">
    <path clip-path="url(#p806a28fc91)" d="M 323.81673 307.584 
L 327.063273 307.584 
L 327.063273 273.346233 
L 323.81673 273.346233 
z
" style="fill:#1f77b4;"/>
   </g>
   <g id="patch_81">
    <path clip-path="url(#p806a28fc91)" d="M 327.063273 307.584 
L 330.309816 307.584 
L 330.309816 277.893436 
L 327.063273 277.893436 
z
" style="fill:#1f77b4;"/>
   </g>
   <g id="patch_82">
    <path clip-path="url(#p806a28fc91)" d="M 330.309823 307.584 
L 333.556373 307.584 
L 333.556373 277.09105 
L 330.309823 277.09105 
z
" style="fill:#1f77b4;"/>
   </g>
   <g id="patch_83">
    <path clip-path="url(#p806a28fc91)" d="M 333.556366 307.584 
L 336.80291 307.584 
L 336.80291 289.662669 
L 333.556366 289.662669 
z
" style="fill:#1f77b4;"/>
   </g>
   <g id="patch_84">
    <path clip-path="url(#p806a28fc91)" d="M 336.80291 307.584 
L 340.049453 307.584 
L 340.049453 294.744837 
L 336.80291 294.744837 
z
" style="fill:#1f77b4;"/>
   </g>
   <g id="patch_85">
    <path clip-path="url(#p806a28fc91)" d="M 340.049453 307.584 
L 343.296003 307.584 
L 343.296003 293.139971 
L 340.049453 293.139971 
z
" style="fill:#1f77b4;"/>
   </g>
   <g id="patch_86">
    <path clip-path="url(#p806a28fc91)" d="M 343.296003 307.584 
L 346.542546 307.584 
L 346.542546 293.139942 
L 343.296003 293.139942 
z
" style="fill:#1f77b4;"/>
   </g>
   <g id="patch_87">
    <path clip-path="url(#p806a28fc91)" d="M 346.542553 307.584 
L 349.789096 307.584 
L 349.789096 294.744863 
L 346.542553 294.744863 
z
" style="fill:#1f77b4;"/>
   </g>
   <g id="patch_88">
    <path clip-path="url(#p806a28fc91)" d="M 349.789096 307.584 
L 353.03564 307.584 
L 353.03564 299.559523 
L 349.789096 299.559523 
z
" style="fill:#1f77b4;"/>
   </g>
   <g id="patch_89">
    <path clip-path="url(#p806a28fc91)" d="M 353.03564 307.584 
L 356.282183 307.584 
L 356.282183 296.617215 
L 353.03564 296.617215 
z
" style="fill:#1f77b4;"/>
   </g>
   <g id="patch_90">
    <path clip-path="url(#p806a28fc91)" d="M 356.282183 307.584 
L 359.528726 307.584 
L 359.528726 297.687145 
L 356.282183 297.687145 
z
" style="fill:#1f77b4;"/>
   </g>
   <g id="patch_91">
    <path clip-path="url(#p806a28fc91)" d="M 359.528726 307.584 
L 362.77527 307.584 
L 362.77527 296.08225 
L 359.528726 296.08225 
z
" style="fill:#1f77b4;"/>
   </g>
   <g id="patch_92">
    <path clip-path="url(#p806a28fc91)" d="M 362.77527 307.584 
L 366.021813 307.584 
L 366.021813 292.872459 
L 362.77527 292.872459 
z
" style="fill:#1f77b4;"/>
   </g>
   <g id="patch_93">
    <path clip-path="url(#p806a28fc91)" d="M 366.021813 307.584 
L 369.268369 307.584 
L 369.268369 301.164445 
L 366.021813 301.164445 
z
" style="fill:#1f77b4;"/>
   </g>
   <g id="patch_94">
    <path clip-path="url(#p806a28fc91)" d="M 369.268369 307.584 
L 372.514913 307.584 
L 372.514913 301.699384 
L 369.268369 301.699384 
z
" style="fill:#1f77b4;"/>
   </g>
   <g id="patch_95">
    <path clip-path="url(#p806a28fc91)" d="M 372.514913 307.584 
L 375.761456 307.584 
L 375.761456 304.909174 
L 372.514913 304.909174 
z
" style="fill:#1f77b4;"/>
   </g>
   <g id="patch_96">
    <path clip-path="url(#p806a28fc91)" d="M 375.761456 307.584 
L 379.007999 307.584 
L 379.007999 305.176657 
L 375.761456 305.176657 
z
" style="fill:#1f77b4;"/>
   </g>
   <g id="patch_97">
    <path clip-path="url(#p806a28fc91)" d="M 379.007999 307.584 
L 382.254543 307.584 
L 382.254543 305.979105 
L 379.007999 305.979105 
z
" style="fill:#1f77b4;"/>
   </g>
   <g id="patch_98">
    <path clip-path="url(#p806a28fc91)" d="M 382.254543 307.584 
L 385.501086 307.584 
L 385.501086 307.316517 
L 382.254543 307.316517 
z
" style="fill:#1f77b4;"/>
   </g>
   <g id="patch_99">
    <path clip-path="url(#p806a28fc91)" d="M 385.501099 307.584 
L 388.747656 307.584 
L 388.747656 306.781556 
L 385.501099 306.781556 
z
" style="fill:#1f77b4;"/>
   </g>
   <g id="patch_100">
    <path clip-path="url(#p806a28fc91)" d="M 388.747643 307.584 
L 391.994186 307.584 
L 391.994186 306.781552 
L 388.747643 306.781552 
z
" style="fill:#1f77b4;"/>
   </g>
   <g id="patch_101">
    <path clip-path="url(#p806a28fc91)" d="M 391.994186 307.584 
L 395.240729 307.584 
L 395.240729 307.316517 
L 391.994186 307.316517 
z
" style="fill:#1f77b4;"/>
   </g>
   <g id="patch_102">
    <path clip-path="url(#p806a28fc91)" d="M 395.240729 307.584 
L 398.487273 307.584 
L 398.487273 306.781552 
L 395.240729 306.781552 
z
" style="fill:#1f77b4;"/>
   </g>
   <g id="matplotlib.axis_1">
    <g id="xtick_1">
     <g id="line2d_1">
      <defs>
       <path d="M 0 0 
L 0 3.5 
" id="m77fec1af2f" style="stroke:#000000;stroke-width:0.8;"/>
      </defs>
      <g>
       <use style="stroke:#000000;stroke-width:0.8;" x="72.021532" xlink:href="#m77fec1af2f" y="307.584"/>
      </g>
     </g>
     <g id="text_1">
      <!-- −3 -->
      <defs>
       <path d="M 10.59375 35.5 
L 73.1875 35.5 
L 73.1875 27.203125 
L 10.59375 27.203125 
z
" id="DejaVuSans-8722"/>
       <path d="M 40.578125 39.3125 
Q 47.65625 37.796875 51.625 33 
Q 55.609375 28.21875 55.609375 21.1875 
Q 55.609375 10.40625 48.1875 4.484375 
Q 40.765625 -1.421875 27.09375 -1.421875 
Q 22.515625 -1.421875 17.65625 -0.515625 
Q 12.796875 0.390625 7.625 2.203125 
L 7.625 11.71875 
Q 11.71875 9.328125 16.59375 8.109375 
Q 21.484375 6.890625 26.8125 6.890625 
Q 36.078125 6.890625 40.9375 10.546875 
Q 45.796875 14.203125 45.796875 21.1875 
Q 45.796875 27.640625 41.28125 31.265625 
Q 36.765625 34.90625 28.71875 34.90625 
L 20.21875 34.90625 
L 20.21875 43.015625 
L 29.109375 43.015625 
Q 36.375 43.015625 40.234375 45.921875 
Q 44.09375 48.828125 44.09375 54.296875 
Q 44.09375 59.90625 40.109375 62.90625 
Q 36.140625 65.921875 28.71875 65.921875 
Q 24.65625 65.921875 20.015625 65.03125 
Q 15.375 64.15625 9.8125 62.3125 
L 9.8125 71.09375 
Q 15.4375 72.65625 20.34375 73.4375 
Q 25.25 74.21875 29.59375 74.21875 
Q 40.828125 74.21875 47.359375 69.109375 
Q 53.90625 64.015625 53.90625 55.328125 
Q 53.90625 49.265625 50.4375 45.09375 
Q 46.96875 40.921875 40.578125 39.3125 
z
" id="DejaVuSans-51"/>
      </defs>
      <g transform="translate(59.490672 327.501344)scale(0.17 -0.17)">
       <use xlink:href="#DejaVuSans-8722"/>
       <use x="83.789062" xlink:href="#DejaVuSans-51"/>
      </g>
     </g>
    </g>
    <g id="xtick_2">
     <g id="line2d_2">
      <g>
       <use style="stroke:#000000;stroke-width:0.8;" x="127.094857" xlink:href="#m77fec1af2f" y="307.584"/>
      </g>
     </g>
     <g id="text_2">
      <!-- −2 -->
      <defs>
       <path d="M 19.1875 8.296875 
L 53.609375 8.296875 
L 53.609375 0 
L 7.328125 0 
L 7.328125 8.296875 
Q 12.9375 14.109375 22.625 23.890625 
Q 32.328125 33.6875 34.8125 36.53125 
Q 39.546875 41.84375 41.421875 45.53125 
Q 43.3125 49.21875 43.3125 52.78125 
Q 43.3125 58.59375 39.234375 62.25 
Q 35.15625 65.921875 28.609375 65.921875 
Q 23.96875 65.921875 18.8125 64.3125 
Q 13.671875 62.703125 7.8125 59.421875 
L 7.8125 69.390625 
Q 13.765625 71.78125 18.9375 73 
Q 24.125 74.21875 28.421875 74.21875 
Q 39.75 74.21875 46.484375 68.546875 
Q 53.21875 62.890625 53.21875 53.421875 
Q 53.21875 48.921875 51.53125 44.890625 
Q 49.859375 40.875 45.40625 35.40625 
Q 44.1875 33.984375 37.640625 27.21875 
Q 31.109375 20.453125 19.1875 8.296875 
z
" id="DejaVuSans-50"/>
      </defs>
      <g transform="translate(114.563998 327.501344)scale(0.17 -0.17)">
       <use xlink:href="#DejaVuSans-8722"/>
       <use x="83.789062" xlink:href="#DejaVuSans-50"/>
      </g>
     </g>
    </g>
    <g id="xtick_3">
     <g id="line2d_3">
      <g>
       <use style="stroke:#000000;stroke-width:0.8;" x="182.168182" xlink:href="#m77fec1af2f" y="307.584"/>
      </g>
     </g>
     <g id="text_3">
      <!-- −1 -->
      <defs>
       <path d="M 12.40625 8.296875 
L 28.515625 8.296875 
L 28.515625 63.921875 
L 10.984375 60.40625 
L 10.984375 69.390625 
L 28.421875 72.90625 
L 38.28125 72.90625 
L 38.28125 8.296875 
L 54.390625 8.296875 
L 54.390625 0 
L 12.40625 0 
z
" id="DejaVuSans-49"/>
      </defs>
      <g transform="translate(169.637323 327.501344)scale(0.17 -0.17)">
       <use xlink:href="#DejaVuSans-8722"/>
       <use x="83.789062" xlink:href="#DejaVuSans-49"/>
      </g>
     </g>
    </g>
    <g id="xtick_4">
     <g id="line2d_4">
      <g>
       <use style="stroke:#000000;stroke-width:0.8;" x="237.241507" xlink:href="#m77fec1af2f" y="307.584"/>
      </g>
     </g>
     <g id="text_4">
      <!-- 0 -->
      <defs>
       <path d="M 31.78125 66.40625 
Q 24.171875 66.40625 20.328125 58.90625 
Q 16.5 51.421875 16.5 36.375 
Q 16.5 21.390625 20.328125 13.890625 
Q 24.171875 6.390625 31.78125 6.390625 
Q 39.453125 6.390625 43.28125 13.890625 
Q 47.125 21.390625 47.125 36.375 
Q 47.125 51.421875 43.28125 58.90625 
Q 39.453125 66.40625 31.78125 66.40625 
z
M 31.78125 74.21875 
Q 44.046875 74.21875 50.515625 64.515625 
Q 56.984375 54.828125 56.984375 36.375 
Q 56.984375 17.96875 50.515625 8.265625 
Q 44.046875 -1.421875 31.78125 -1.421875 
Q 19.53125 -1.421875 13.0625 8.265625 
Q 6.59375 17.96875 6.59375 36.375 
Q 6.59375 54.828125 13.0625 64.515625 
Q 19.53125 74.21875 31.78125 74.21875 
z
" id="DejaVuSans-48"/>
      </defs>
      <g transform="translate(231.833382 327.501344)scale(0.17 -0.17)">
       <use xlink:href="#DejaVuSans-48"/>
      </g>
     </g>
    </g>
    <g id="xtick_5">
     <g id="line2d_5">
      <g>
       <use style="stroke:#000000;stroke-width:0.8;" x="292.314832" xlink:href="#m77fec1af2f" y="307.584"/>
      </g>
     </g>
     <g id="text_5">
      <!-- 1 -->
      <g transform="translate(286.906707 327.501344)scale(0.17 -0.17)">
       <use xlink:href="#DejaVuSans-49"/>
      </g>
     </g>
    </g>
    <g id="xtick_6">
     <g id="line2d_6">
      <g>
       <use style="stroke:#000000;stroke-width:0.8;" x="347.388157" xlink:href="#m77fec1af2f" y="307.584"/>
      </g>
     </g>
     <g id="text_6">
      <!-- 2 -->
      <g transform="translate(341.980032 327.501344)scale(0.17 -0.17)">
       <use xlink:href="#DejaVuSans-50"/>
      </g>
     </g>
    </g>
    <g id="xtick_7">
     <g id="line2d_7">
      <g>
       <use style="stroke:#000000;stroke-width:0.8;" x="402.461482" xlink:href="#m77fec1af2f" y="307.584"/>
      </g>
     </g>
     <g id="text_7">
      <!-- 3 -->
      <g transform="translate(397.053357 327.501344)scale(0.17 -0.17)">
       <use xlink:href="#DejaVuSans-51"/>
      </g>
     </g>
    </g>
    <g id="text_8">
     <!-- Position in Radian -->
     <defs>
      <path d="M 19.671875 64.796875 
L 19.671875 37.40625 
L 32.078125 37.40625 
Q 38.96875 37.40625 42.71875 40.96875 
Q 46.484375 44.53125 46.484375 51.125 
Q 46.484375 57.671875 42.71875 61.234375 
Q 38.96875 64.796875 32.078125 64.796875 
z
M 9.8125 72.90625 
L 32.078125 72.90625 
Q 44.34375 72.90625 50.609375 67.359375 
Q 56.890625 61.8125 56.890625 51.125 
Q 56.890625 40.328125 50.609375 34.8125 
Q 44.34375 29.296875 32.078125 29.296875 
L 19.671875 29.296875 
L 19.671875 0 
L 9.8125 0 
z
" id="DejaVuSans-80"/>
      <path d="M 30.609375 48.390625 
Q 23.390625 48.390625 19.1875 42.75 
Q 14.984375 37.109375 14.984375 27.296875 
Q 14.984375 17.484375 19.15625 11.84375 
Q 23.34375 6.203125 30.609375 6.203125 
Q 37.796875 6.203125 41.984375 11.859375 
Q 46.1875 17.53125 46.1875 27.296875 
Q 46.1875 37.015625 41.984375 42.703125 
Q 37.796875 48.390625 30.609375 48.390625 
z
M 30.609375 56 
Q 42.328125 56 49.015625 48.375 
Q 55.71875 40.765625 55.71875 27.296875 
Q 55.71875 13.875 49.015625 6.21875 
Q 42.328125 -1.421875 30.609375 -1.421875 
Q 18.84375 -1.421875 12.171875 6.21875 
Q 5.515625 13.875 5.515625 27.296875 
Q 5.515625 40.765625 12.171875 48.375 
Q 18.84375 56 30.609375 56 
z
" id="DejaVuSans-111"/>
      <path d="M 44.28125 53.078125 
L 44.28125 44.578125 
Q 40.484375 46.53125 36.375 47.5 
Q 32.28125 48.484375 27.875 48.484375 
Q 21.1875 48.484375 17.84375 46.4375 
Q 14.5 44.390625 14.5 40.28125 
Q 14.5 37.15625 16.890625 35.375 
Q 19.28125 33.59375 26.515625 31.984375 
L 29.59375 31.296875 
Q 39.15625 29.25 43.1875 25.515625 
Q 47.21875 21.78125 47.21875 15.09375 
Q 47.21875 7.46875 41.1875 3.015625 
Q 35.15625 -1.421875 24.609375 -1.421875 
Q 20.21875 -1.421875 15.453125 -0.5625 
Q 10.6875 0.296875 5.421875 2 
L 5.421875 11.28125 
Q 10.40625 8.6875 15.234375 7.390625 
Q 20.0625 6.109375 24.8125 6.109375 
Q 31.15625 6.109375 34.5625 8.28125 
Q 37.984375 10.453125 37.984375 14.40625 
Q 37.984375 18.0625 35.515625 20.015625 
Q 33.0625 21.96875 24.703125 23.78125 
L 21.578125 24.515625 
Q 13.234375 26.265625 9.515625 29.90625 
Q 5.8125 33.546875 5.8125 39.890625 
Q 5.8125 47.609375 11.28125 51.796875 
Q 16.75 56 26.8125 56 
Q 31.78125 56 36.171875 55.265625 
Q 40.578125 54.546875 44.28125 53.078125 
z
" id="DejaVuSans-115"/>
      <path d="M 9.421875 54.6875 
L 18.40625 54.6875 
L 18.40625 0 
L 9.421875 0 
z
M 9.421875 75.984375 
L 18.40625 75.984375 
L 18.40625 64.59375 
L 9.421875 64.59375 
z
" id="DejaVuSans-105"/>
      <path d="M 18.3125 70.21875 
L 18.3125 54.6875 
L 36.8125 54.6875 
L 36.8125 47.703125 
L 18.3125 47.703125 
L 18.3125 18.015625 
Q 18.3125 11.328125 20.140625 9.421875 
Q 21.96875 7.515625 27.59375 7.515625 
L 36.8125 7.515625 
L 36.8125 0 
L 27.59375 0 
Q 17.1875 0 13.234375 3.875 
Q 9.28125 7.765625 9.28125 18.015625 
L 9.28125 47.703125 
L 2.6875 47.703125 
L 2.6875 54.6875 
L 9.28125 54.6875 
L 9.28125 70.21875 
z
" id="DejaVuSans-116"/>
      <path d="M 54.890625 33.015625 
L 54.890625 0 
L 45.90625 0 
L 45.90625 32.71875 
Q 45.90625 40.484375 42.875 44.328125 
Q 39.84375 48.1875 33.796875 48.1875 
Q 26.515625 48.1875 22.3125 43.546875 
Q 18.109375 38.921875 18.109375 30.90625 
L 18.109375 0 
L 9.078125 0 
L 9.078125 54.6875 
L 18.109375 54.6875 
L 18.109375 46.1875 
Q 21.34375 51.125 25.703125 53.5625 
Q 30.078125 56 35.796875 56 
Q 45.21875 56 50.046875 50.171875 
Q 54.890625 44.34375 54.890625 33.015625 
z
" id="DejaVuSans-110"/>
      <path id="DejaVuSans-32"/>
      <path d="M 44.390625 34.1875 
Q 47.5625 33.109375 50.5625 29.59375 
Q 53.5625 26.078125 56.59375 19.921875 
L 66.609375 0 
L 56 0 
L 46.6875 18.703125 
Q 43.0625 26.03125 39.671875 28.421875 
Q 36.28125 30.8125 30.421875 30.8125 
L 19.671875 30.8125 
L 19.671875 0 
L 9.8125 0 
L 9.8125 72.90625 
L 32.078125 72.90625 
Q 44.578125 72.90625 50.734375 67.671875 
Q 56.890625 62.453125 56.890625 51.90625 
Q 56.890625 45.015625 53.6875 40.46875 
Q 50.484375 35.9375 44.390625 34.1875 
z
M 19.671875 64.796875 
L 19.671875 38.921875 
L 32.078125 38.921875 
Q 39.203125 38.921875 42.84375 42.21875 
Q 46.484375 45.515625 46.484375 51.90625 
Q 46.484375 58.296875 42.84375 61.546875 
Q 39.203125 64.796875 32.078125 64.796875 
z
" id="DejaVuSans-82"/>
      <path d="M 34.28125 27.484375 
Q 23.390625 27.484375 19.1875 25 
Q 14.984375 22.515625 14.984375 16.5 
Q 14.984375 11.71875 18.140625 8.90625 
Q 21.296875 6.109375 26.703125 6.109375 
Q 34.1875 6.109375 38.703125 11.40625 
Q 43.21875 16.703125 43.21875 25.484375 
L 43.21875 27.484375 
z
M 52.203125 31.203125 
L 52.203125 0 
L 43.21875 0 
L 43.21875 8.296875 
Q 40.140625 3.328125 35.546875 0.953125 
Q 30.953125 -1.421875 24.3125 -1.421875 
Q 15.921875 -1.421875 10.953125 3.296875 
Q 6 8.015625 6 15.921875 
Q 6 25.140625 12.171875 29.828125 
Q 18.359375 34.515625 30.609375 34.515625 
L 43.21875 34.515625 
L 43.21875 35.40625 
Q 43.21875 41.609375 39.140625 45 
Q 35.0625 48.390625 27.6875 48.390625 
Q 23 48.390625 18.546875 47.265625 
Q 14.109375 46.140625 10.015625 43.890625 
L 10.015625 52.203125 
Q 14.9375 54.109375 19.578125 55.046875 
Q 24.21875 56 28.609375 56 
Q 40.484375 56 46.34375 49.84375 
Q 52.203125 43.703125 52.203125 31.203125 
z
" id="DejaVuSans-97"/>
      <path d="M 45.40625 46.390625 
L 45.40625 75.984375 
L 54.390625 75.984375 
L 54.390625 0 
L 45.40625 0 
L 45.40625 8.203125 
Q 42.578125 3.328125 38.25 0.953125 
Q 33.9375 -1.421875 27.875 -1.421875 
Q 17.96875 -1.421875 11.734375 6.484375 
Q 5.515625 14.40625 5.515625 27.296875 
Q 5.515625 40.1875 11.734375 48.09375 
Q 17.96875 56 27.875 56 
Q 33.9375 56 38.25 53.625 
Q 42.578125 51.265625 45.40625 46.390625 
z
M 14.796875 27.296875 
Q 14.796875 17.390625 18.875 11.75 
Q 22.953125 6.109375 30.078125 6.109375 
Q 37.203125 6.109375 41.296875 11.75 
Q 45.40625 17.390625 45.40625 27.296875 
Q 45.40625 37.203125 41.296875 42.84375 
Q 37.203125 48.484375 30.078125 48.484375 
Q 22.953125 48.484375 18.875 42.84375 
Q 14.796875 37.203125 14.796875 27.296875 
z
" id="DejaVuSans-100"/>
     </defs>
     <g transform="translate(102.024844 357.832125)scale(0.3 -0.3)">
      <use xlink:href="#DejaVuSans-80"/>
      <use x="60.255859" xlink:href="#DejaVuSans-111"/>
      <use x="121.4375" xlink:href="#DejaVuSans-115"/>
      <use x="173.537109" xlink:href="#DejaVuSans-105"/>
      <use x="201.320312" xlink:href="#DejaVuSans-116"/>
      <use x="240.529297" xlink:href="#DejaVuSans-105"/>
      <use x="268.3125" xlink:href="#DejaVuSans-111"/>
      <use x="329.494141" xlink:href="#DejaVuSans-110"/>
      <use x="392.873047" xlink:href="#DejaVuSans-32"/>
      <use x="424.660156" xlink:href="#DejaVuSans-105"/>
      <use x="452.443359" xlink:href="#DejaVuSans-110"/>
      <use x="515.822266" xlink:href="#DejaVuSans-32"/>
      <use x="547.609375" xlink:href="#DejaVuSans-82"/>
      <use x="617.060547" xlink:href="#DejaVuSans-97"/>
      <use x="678.339844" xlink:href="#DejaVuSans-100"/>
      <use x="741.816406" xlink:href="#DejaVuSans-105"/>
      <use x="769.599609" xlink:href="#DejaVuSans-97"/>
      <use x="830.878906" xlink:href="#DejaVuSans-110"/>
     </g>
    </g>
   </g>
   <g id="matplotlib.axis_2">
    <g id="ytick_1">
     <g id="line2d_8">
      <defs>
       <path d="M 0 0 
L -3.5 0 
" id="mf41b23366a" style="stroke:#000000;stroke-width:0.8;"/>
      </defs>
      <g>
       <use style="stroke:#000000;stroke-width:0.8;" x="57.6" xlink:href="#mf41b23366a" y="307.584"/>
      </g>
     </g>
     <g id="text_9">
      <!-- 0.0 -->
      <defs>
       <path d="M 10.6875 12.40625 
L 21 12.40625 
L 21 0 
L 10.6875 0 
z
" id="DejaVuSans-46"/>
      </defs>
      <g transform="translate(23.564687 314.042672)scale(0.17 -0.17)">
       <use xlink:href="#DejaVuSans-48"/>
       <use x="63.623047" xlink:href="#DejaVuSans-46"/>
       <use x="95.410156" xlink:href="#DejaVuSans-48"/>
      </g>
     </g>
    </g>
    <g id="ytick_2">
     <g id="line2d_9">
      <g>
       <use style="stroke:#000000;stroke-width:0.8;" x="57.6" xlink:href="#mf41b23366a" y="268.164112"/>
      </g>
     </g>
     <g id="text_10">
      <!-- 0.2 -->
      <g transform="translate(23.564687 274.622784)scale(0.17 -0.17)">
       <use xlink:href="#DejaVuSans-48"/>
       <use x="63.623047" xlink:href="#DejaVuSans-46"/>
       <use x="95.410156" xlink:href="#DejaVuSans-50"/>
      </g>
     </g>
    </g>
    <g id="ytick_3">
     <g id="line2d_10">
      <g>
       <use style="stroke:#000000;stroke-width:0.8;" x="57.6" xlink:href="#mf41b23366a" y="228.744225"/>
      </g>
     </g>
     <g id="text_11">
      <!-- 0.4 -->
      <defs>
       <path d="M 37.796875 64.3125 
L 12.890625 25.390625 
L 37.796875 25.390625 
z
M 35.203125 72.90625 
L 47.609375 72.90625 
L 47.609375 25.390625 
L 58.015625 25.390625 
L 58.015625 17.1875 
L 47.609375 17.1875 
L 47.609375 0 
L 37.796875 0 
L 37.796875 17.1875 
L 4.890625 17.1875 
L 4.890625 26.703125 
z
" id="DejaVuSans-52"/>
      </defs>
      <g transform="translate(23.564687 235.202897)scale(0.17 -0.17)">
       <use xlink:href="#DejaVuSans-48"/>
       <use x="63.623047" xlink:href="#DejaVuSans-46"/>
       <use x="95.410156" xlink:href="#DejaVuSans-52"/>
      </g>
     </g>
    </g>
    <g id="ytick_4">
     <g id="line2d_11">
      <g>
       <use style="stroke:#000000;stroke-width:0.8;" x="57.6" xlink:href="#mf41b23366a" y="189.324337"/>
      </g>
     </g>
     <g id="text_12">
      <!-- 0.6 -->
      <defs>
       <path d="M 33.015625 40.375 
Q 26.375 40.375 22.484375 35.828125 
Q 18.609375 31.296875 18.609375 23.390625 
Q 18.609375 15.53125 22.484375 10.953125 
Q 26.375 6.390625 33.015625 6.390625 
Q 39.65625 6.390625 43.53125 10.953125 
Q 47.40625 15.53125 47.40625 23.390625 
Q 47.40625 31.296875 43.53125 35.828125 
Q 39.65625 40.375 33.015625 40.375 
z
M 52.59375 71.296875 
L 52.59375 62.3125 
Q 48.875 64.0625 45.09375 64.984375 
Q 41.3125 65.921875 37.59375 65.921875 
Q 27.828125 65.921875 22.671875 59.328125 
Q 17.53125 52.734375 16.796875 39.40625 
Q 19.671875 43.65625 24.015625 45.921875 
Q 28.375 48.1875 33.59375 48.1875 
Q 44.578125 48.1875 50.953125 41.515625 
Q 57.328125 34.859375 57.328125 23.390625 
Q 57.328125 12.15625 50.6875 5.359375 
Q 44.046875 -1.421875 33.015625 -1.421875 
Q 20.359375 -1.421875 13.671875 8.265625 
Q 6.984375 17.96875 6.984375 36.375 
Q 6.984375 53.65625 15.1875 63.9375 
Q 23.390625 74.21875 37.203125 74.21875 
Q 40.921875 74.21875 44.703125 73.484375 
Q 48.484375 72.75 52.59375 71.296875 
z
" id="DejaVuSans-54"/>
      </defs>
      <g transform="translate(23.564687 195.783009)scale(0.17 -0.17)">
       <use xlink:href="#DejaVuSans-48"/>
       <use x="63.623047" xlink:href="#DejaVuSans-46"/>
       <use x="95.410156" xlink:href="#DejaVuSans-54"/>
      </g>
     </g>
    </g>
    <g id="ytick_5">
     <g id="line2d_12">
      <g>
       <use style="stroke:#000000;stroke-width:0.8;" x="57.6" xlink:href="#mf41b23366a" y="149.90445"/>
      </g>
     </g>
     <g id="text_13">
      <!-- 0.8 -->
      <defs>
       <path d="M 31.78125 34.625 
Q 24.75 34.625 20.71875 30.859375 
Q 16.703125 27.09375 16.703125 20.515625 
Q 16.703125 13.921875 20.71875 10.15625 
Q 24.75 6.390625 31.78125 6.390625 
Q 38.8125 6.390625 42.859375 10.171875 
Q 46.921875 13.96875 46.921875 20.515625 
Q 46.921875 27.09375 42.890625 30.859375 
Q 38.875 34.625 31.78125 34.625 
z
M 21.921875 38.8125 
Q 15.578125 40.375 12.03125 44.71875 
Q 8.5 49.078125 8.5 55.328125 
Q 8.5 64.0625 14.71875 69.140625 
Q 20.953125 74.21875 31.78125 74.21875 
Q 42.671875 74.21875 48.875 69.140625 
Q 55.078125 64.0625 55.078125 55.328125 
Q 55.078125 49.078125 51.53125 44.71875 
Q 48 40.375 41.703125 38.8125 
Q 48.828125 37.15625 52.796875 32.3125 
Q 56.78125 27.484375 56.78125 20.515625 
Q 56.78125 9.90625 50.3125 4.234375 
Q 43.84375 -1.421875 31.78125 -1.421875 
Q 19.734375 -1.421875 13.25 4.234375 
Q 6.78125 9.90625 6.78125 20.515625 
Q 6.78125 27.484375 10.78125 32.3125 
Q 14.796875 37.15625 21.921875 38.8125 
z
M 18.3125 54.390625 
Q 18.3125 48.734375 21.84375 45.5625 
Q 25.390625 42.390625 31.78125 42.390625 
Q 38.140625 42.390625 41.71875 45.5625 
Q 45.3125 48.734375 45.3125 54.390625 
Q 45.3125 60.0625 41.71875 63.234375 
Q 38.140625 66.40625 31.78125 66.40625 
Q 25.390625 66.40625 21.84375 63.234375 
Q 18.3125 60.0625 18.3125 54.390625 
z
" id="DejaVuSans-56"/>
      </defs>
      <g transform="translate(23.564687 156.363121)scale(0.17 -0.17)">
       <use xlink:href="#DejaVuSans-48"/>
       <use x="63.623047" xlink:href="#DejaVuSans-46"/>
       <use x="95.410156" xlink:href="#DejaVuSans-56"/>
      </g>
     </g>
    </g>
    <g id="ytick_6">
     <g id="line2d_13">
      <g>
       <use style="stroke:#000000;stroke-width:0.8;" x="57.6" xlink:href="#mf41b23366a" y="110.484562"/>
      </g>
     </g>
     <g id="text_14">
      <!-- 1.0 -->
      <g transform="translate(23.564687 116.943234)scale(0.17 -0.17)">
       <use xlink:href="#DejaVuSans-49"/>
       <use x="63.623047" xlink:href="#DejaVuSans-46"/>
       <use x="95.410156" xlink:href="#DejaVuSans-48"/>
      </g>
     </g>
    </g>
    <g id="ytick_7">
     <g id="line2d_14">
      <g>
       <use style="stroke:#000000;stroke-width:0.8;" x="57.6" xlink:href="#mf41b23366a" y="71.064674"/>
      </g>
     </g>
     <g id="text_15">
      <!-- 1.2 -->
      <g transform="translate(23.564687 77.523346)scale(0.17 -0.17)">
       <use xlink:href="#DejaVuSans-49"/>
       <use x="63.623047" xlink:href="#DejaVuSans-46"/>
       <use x="95.410156" xlink:href="#DejaVuSans-50"/>
      </g>
     </g>
    </g>
    <g id="text_16">
     <!-- Density -->
     <defs>
      <path d="M 19.671875 64.796875 
L 19.671875 8.109375 
L 31.59375 8.109375 
Q 46.6875 8.109375 53.6875 14.9375 
Q 60.6875 21.78125 60.6875 36.53125 
Q 60.6875 51.171875 53.6875 57.984375 
Q 46.6875 64.796875 31.59375 64.796875 
z
M 9.8125 72.90625 
L 30.078125 72.90625 
Q 51.265625 72.90625 61.171875 64.09375 
Q 71.09375 55.28125 71.09375 36.53125 
Q 71.09375 17.671875 61.125 8.828125 
Q 51.171875 0 30.078125 0 
L 9.8125 0 
z
" id="DejaVuSans-68"/>
      <path d="M 56.203125 29.59375 
L 56.203125 25.203125 
L 14.890625 25.203125 
Q 15.484375 15.921875 20.484375 11.0625 
Q 25.484375 6.203125 34.421875 6.203125 
Q 39.59375 6.203125 44.453125 7.46875 
Q 49.3125 8.734375 54.109375 11.28125 
L 54.109375 2.78125 
Q 49.265625 0.734375 44.1875 -0.34375 
Q 39.109375 -1.421875 33.890625 -1.421875 
Q 20.796875 -1.421875 13.15625 6.1875 
Q 5.515625 13.8125 5.515625 26.8125 
Q 5.515625 40.234375 12.765625 48.109375 
Q 20.015625 56 32.328125 56 
Q 43.359375 56 49.78125 48.890625 
Q 56.203125 41.796875 56.203125 29.59375 
z
M 47.21875 32.234375 
Q 47.125 39.59375 43.09375 43.984375 
Q 39.0625 48.390625 32.421875 48.390625 
Q 24.90625 48.390625 20.390625 44.140625 
Q 15.875 39.890625 15.1875 32.171875 
z
" id="DejaVuSans-101"/>
      <path d="M 32.171875 -5.078125 
Q 28.375 -14.84375 24.75 -17.8125 
Q 21.140625 -20.796875 15.09375 -20.796875 
L 7.90625 -20.796875 
L 7.90625 -13.28125 
L 13.1875 -13.28125 
Q 16.890625 -13.28125 18.9375 -11.515625 
Q 21 -9.765625 23.484375 -3.21875 
L 25.09375 0.875 
L 2.984375 54.6875 
L 12.5 54.6875 
L 29.59375 11.921875 
L 46.6875 54.6875 
L 56.203125 54.6875 
z
" id="DejaVuSans-121"/>
     </defs>
     <g transform="translate(13.325625 231.553781)rotate(-90)scale(0.3 -0.3)">
      <use xlink:href="#DejaVuSans-68"/>
      <use x="77.001953" xlink:href="#DejaVuSans-101"/>
      <use x="138.525391" xlink:href="#DejaVuSans-110"/>
      <use x="201.904297" xlink:href="#DejaVuSans-115"/>
      <use x="254.003906" xlink:href="#DejaVuSans-105"/>
      <use x="281.787109" xlink:href="#DejaVuSans-116"/>
      <use x="320.996094" xlink:href="#DejaVuSans-121"/>
     </g>
    </g>
   </g>
   <g id="line2d_15">
    <path clip-path="url(#p806a28fc91)" d="M 99.558194 306.467137 
L 100.935027 307.15776 
L 101.34257 307.302295 
L 101.628951 307.173096 
L 102.058523 306.669963 
L 102.455051 306.336948 
L 102.697374 306.408232 
L 103.049843 306.816759 
L 103.63362 307.428769 
L 104.096236 307.564129 
L 105.395967 307.583945 
L 106.750771 307.474749 
L 107.312519 307.146096 
L 107.786149 306.954974 
L 108.127604 307.067811 
L 109.162982 307.556858 
L 110.077199 307.556208 
L 110.638947 307.373386 
L 111.564179 306.967073 
L 111.971722 307.173992 
L 112.51144 307.398845 
L 112.830866 307.285693 
L 113.216379 306.874974 
L 113.745083 306.361398 
L 113.987406 306.411512 
L 114.32886 306.770561 
L 114.868579 307.283851 
L 115.165975 307.27723 
L 115.529459 307.014241 
L 116.223383 306.496514 
L 116.553822 306.550628 
L 117.490069 306.860968 
L 118.558492 306.610004 
L 119.054151 306.129598 
L 119.560826 305.740417 
L 119.935325 305.735234 
L 121.785788 306.043554 
L 122.303478 305.993127 
L 122.578844 305.675864 
L 123.393929 304.543301 
L 123.592193 304.715157 
L 123.911619 305.376677 
L 124.682645 307.024689 
L 125.002071 307.239851 
L 125.255408 307.158476 
L 125.541789 306.794181 
L 126.01542 305.738713 
L 126.48905 304.885171 
L 126.731373 304.822959 
L 126.98471 305.024064 
L 127.667619 305.650584 
L 127.954001 305.569061 
L 128.835174 305.135349 
L 129.253731 305.428205 
L 129.650259 305.587317 
L 129.991714 305.470609 
L 130.355198 305.096032 
L 130.773755 304.291817 
L 131.412606 303.084198 
L 131.632899 303.062475 
L 131.853192 303.319739 
L 132.800453 304.749089 
L 133.042776 304.581392 
L 133.956993 303.727001 
L 134.177287 303.975549 
L 134.518741 304.77977 
L 135.080489 306.033865 
L 135.267738 306.058465 
L 135.443973 305.808858 
L 135.71934 304.945887 
L 136.336161 302.961446 
L 136.501381 302.957489 
L 136.677615 303.256152 
L 137.481686 304.935606 
L 137.657921 304.760308 
L 137.944302 304.093647 
L 138.67127 301.623618 
L 139.585487 298.850324 
L 139.816795 298.672423 
L 139.959986 298.847019 
L 140.180279 299.571624 
L 141.105511 303.183207 
L 141.29276 303.170408 
L 141.524068 302.870748 
L 142.295095 301.710512 
L 142.471329 301.896412 
L 142.735681 302.589798 
L 143.330473 304.173328 
L 143.506708 304.169443 
L 143.704972 303.868572 
L 144.531072 302.34181 
L 144.76238 302.428446 
L 145.533406 302.888981 
L 145.797758 302.669825 
L 146.326462 301.827016 
L 146.689946 301.46904 
L 146.932269 301.501992 
L 147.659236 301.795887 
L 147.912574 301.404165 
L 148.650556 300.143315 
L 149.729994 299.276315 
L 149.961301 299.491278 
L 150.875519 300.597844 
L 151.932927 300.848815 
L 152.362498 301.320905 
L 152.858158 302.242245 
L 153.519038 303.397666 
L 153.772376 303.473739 
L 153.992669 303.298376 
L 154.389197 302.607686 
L 154.829783 302.009845 
L 155.677913 301.282102 
L 156.030382 300.212568 
L 156.724306 298.079057 
L 156.911555 298.022152 
L 157.076775 298.256205 
L 157.352142 299.149435 
L 157.935919 301.044554 
L 158.101139 301.061776 
L 158.277374 300.783942 
L 159.081444 299.1968 
L 159.323767 299.365422 
L 159.687251 299.563175 
L 159.907544 299.403624 
L 160.469292 298.911687 
L 160.755673 299.084697 
L 160.986981 299.116784 
L 161.152201 298.866579 
L 161.394524 297.981582 
L 162.16555 294.81809 
L 162.859474 293.40064 
L 163.509339 290.766328 
L 164.159205 288.49262 
L 164.412542 288.234427 
L 164.577762 288.350443 
L 164.842114 288.900315 
L 165.271686 289.696467 
L 165.414877 289.616158 
L 165.602126 289.169813 
L 166.27402 287.248695 
L 166.285035 287.253013 
L 166.417211 287.437802 
L 166.648519 288.260931 
L 167.551722 291.913231 
L 167.816073 292.144894 
L 168.058396 292.076396 
L 168.653188 291.807495 
L 168.840437 292.058728 
L 169.093775 292.856148 
L 169.974948 296.193531 
L 169.996977 296.186012 
L 170.129153 295.986567 
L 170.338432 295.150242 
L 170.690901 292.634199 
L 171.660192 285.341366 
L 171.968602 284.53651 
L 172.19991 284.427176 
L 172.442233 284.595539 
L 173.147171 285.250213 
L 173.158186 285.238833 
L 173.312391 284.904286 
L 173.532685 283.75785 
L 173.885154 280.46535 
L 174.457916 275.486768 
L 174.689224 274.947443 
L 174.799371 275.035718 
L 174.98662 275.595487 
L 175.790691 278.435351 
L 175.944896 278.326409 
L 176.209248 277.748878 
L 176.649835 276.89464 
L 176.782011 276.956458 
L 176.947231 277.371886 
L 177.200568 278.758479 
L 177.828404 282.410053 
L 177.916521 282.375487 
L 177.927536 282.357085 
L 178.070727 281.844812 
L 178.335079 279.860629 
L 180.053366 265.125657 
L 180.163513 265.185575 
L 180.328733 265.679842 
L 180.659173 267.593641 
L 181.220921 270.639927 
L 181.419185 270.841578 
L 181.551361 270.661615 
L 181.804698 269.825439 
L 183.159502 264.798906 
L 183.258634 264.766324 
L 183.291678 264.802336 
L 183.423854 265.210033 
L 183.633132 266.738829 
L 184.073719 272.139632 
L 184.558364 276.91778 
L 184.910834 278.461871 
L 185.241274 279.056123 
L 185.439538 279.083824 
L 185.626787 278.839988 
L 185.957227 277.917417 
L 186.320711 277.144848 
L 186.463901 277.199124 
L 186.640136 277.618837 
L 186.948547 279.095241 
L 187.565368 281.992582 
L 187.752617 282.138474 
L 187.884793 281.953475 
L 188.105086 281.159417 
L 188.578717 278.330291 
L 189.548008 272.993683 
L 190.197873 269.936266 
L 190.484254 269.412865 
L 190.649474 269.444153 
L 190.847738 269.799394 
L 191.189193 270.979857 
L 191.706882 273.584074 
L 192.841392 280.164588 
L 193.006612 280.155543 
L 193.215891 279.837613 
L 193.56836 278.823966 
L 194.097064 276.548511 
L 194.570695 274.849624 
L 194.735915 274.774693 
L 194.746929 274.783383 
L 194.89012 275.061999 
L 195.121428 276.141563 
L 195.914484 280.78651 
L 195.969557 280.741699 
L 196.090719 280.324151 
L 196.299997 278.560665 
L 196.696525 272.737487 
L 197.18117 266.753527 
L 197.456537 265.595148 
L 197.654801 265.457866 
L 197.875094 265.60765 
L 198.139446 266.085443 
L 198.414813 267.121893 
L 199.196854 270.411758 
L 199.307001 270.262237 
L 199.483235 269.532549 
L 199.791646 267.097502 
L 200.397453 262.440526 
L 200.661805 261.84648 
L 200.860069 261.830309 
L 201.190508 262.106979 
L 201.587036 262.347933 
L 201.763271 262.184278 
L 201.994579 261.56674 
L 202.721547 259.359908 
L 202.96387 259.3311 
L 203.283295 259.287502 
L 203.492573 258.97881 
L 203.734896 258.157891 
L 204.010263 256.318075 
L 204.384761 252.000467 
L 204.880421 246.895373 
L 205.034627 246.590459 
L 205.056656 246.605381 
L 205.166803 246.870068 
L 205.42014 248.256844 
L 205.827682 250.172811 
L 205.981888 250.266736 
L 205.992902 250.258857 
L 206.136093 250.000448 
L 206.422474 248.887447 
L 206.896105 247.231591 
L 207.105384 247.110936 
L 207.435824 247.065672 
L 207.590029 246.639787 
L 207.821337 245.165136 
L 208.625407 239.232374 
L 208.801642 239.15347 
L 209.010921 239.387991 
L 209.583683 240.433234 
L 209.903109 241.622105 
L 210.453842 243.708696 
L 210.552974 243.645885 
L 210.696164 243.144532 
L 210.938487 241.260133 
L 211.588352 235.879304 
L 211.775602 235.665096 
L 211.973866 235.830083 
L 212.194159 235.902034 
L 212.348364 235.664114 
L 212.623731 234.697168 
L 213.086347 233.229307 
L 213.251567 233.209864 
L 213.405772 233.521186 
L 213.63708 234.590537 
L 214.29796 238.235687 
L 214.331004 238.2145 
L 214.44115 237.882126 
L 214.6284 236.42208 
L 215.443485 228.967667 
L 215.851028 228.032607 
L 216.060306 226.238895 
L 216.42379 220.670311 
L 216.842347 215.355937 
L 216.963509 215.018796 
L 217.007567 215.064899 
L 217.117714 215.563032 
L 217.326993 217.781973 
L 218.186137 228.138488 
L 219.166442 233.775587 
L 219.23253 233.703012 
L 219.364706 233.117289 
L 219.607028 230.760171 
L 220.212835 224.773972 
L 221.479521 219.039666 
L 221.490536 219.042871 
L 221.600683 219.204238 
L 221.787932 219.983687 
L 222.107357 222.465721 
L 222.911428 229.069649 
L 223.087663 229.309481 
L 223.098677 229.304344 
L 223.219839 229.099745 
L 223.429117 228.184736 
L 223.858689 225.032253 
L 224.321305 222.246891 
L 224.47551 222.064067 
L 224.49754 222.080314 
L 224.618701 222.365317 
L 224.82798 223.575198 
L 225.587991 228.620057 
L 225.676109 228.486854 
L 225.830314 227.674207 
L 226.072637 224.960217 
L 227.019898 212.708805 
L 227.097001 212.690231 
L 227.130045 212.731146 
L 227.28425 213.223229 
L 228.220496 216.964422 
L 228.495863 217.187171 
L 228.694127 217.092915 
L 228.958479 216.658873 
L 229.509212 215.719609 
L 229.630374 215.863948 
L 229.795594 216.526158 
L 230.026901 218.545646 
L 230.665752 224.976993 
L 230.687781 224.95434 
L 230.775899 224.573658 
L 230.941119 222.614982 
L 231.271559 215.288748 
L 231.712145 207.001324 
L 231.88838 206.237338 
L 231.899395 206.243054 
L 231.987512 206.491132 
L 232.174761 207.952936 
L 232.626362 211.48548 
L 232.69245 211.363221 
L 232.813612 210.437231 
L 233.02289 206.666977 
L 233.904064 187.891559 
L 233.970152 187.992726 
L 234.102328 188.848346 
L 234.399724 192.689732 
L 235.357999 208.725583 
L 235.743513 214.261818 
L 235.765542 214.282134 
L 235.798586 214.208077 
L 235.886703 213.296563 
L 236.029894 209.00712 
L 236.239173 194.455742 
L 236.525554 156.098067 
L 237.230492 54.946269 
L 237.285566 54.144 
L 237.340639 54.868144 
L 237.4618 61.520953 
L 237.704123 90.549584 
L 238.365003 172.265286 
L 238.673414 185.336931 
L 238.94878 189.159097 
L 239.312264 191.059438 
L 239.620675 191.856994 
L 239.708792 191.769059 
L 239.840968 191.203176 
L 240.050247 189.076854 
L 240.777215 179.291616 
L 240.843303 179.443814 
L 240.975479 180.630447 
L 241.217801 185.405749 
L 242.374341 211.547829 
L 242.759854 215.69768 
L 242.947104 216.181287 
L 242.958118 216.178215 
L 243.05725 216.015607 
L 243.277544 215.0549 
L 243.674071 213.527483 
L 243.806247 213.524898 
L 243.817262 213.536644 
L 244.004511 213.926852 
L 244.356981 214.570326 
L 244.478142 214.462961 
L 244.687421 213.872712 
L 245.105978 212.775949 
L 245.227139 212.852059 
L 245.414389 213.348575 
L 245.888019 214.655518 
L 245.998166 214.516307 
L 246.163386 213.830356 
L 246.460782 211.41915 
L 246.967456 207.582217 
L 247.055574 207.491563 
L 247.099632 207.54652 
L 247.220794 208.067621 
L 247.430072 210.253414 
L 247.8266 217.467491 
L 248.344289 225.649844 
L 248.674729 227.89263 
L 248.917052 228.40538 
L 249.038213 228.327214 
L 249.192419 227.860665 
L 249.434741 226.260149 
L 250.095621 221.44635 
L 250.172724 221.532987 
L 250.315914 222.213364 
L 250.591281 224.905127 
L 251.27419 231.553935 
L 251.571586 232.704009 
L 251.681733 232.734271 
L 251.703762 232.710871 
L 251.835938 232.359438 
L 252.067246 230.945219 
L 253.344947 221.609002 
L 253.58727 221.34553 
L 253.818578 221.419189 
L 254.303223 221.608286 
L 254.997147 221.582807 
L 255.272514 222.046901 
L 256.274848 224.034115 
L 256.285863 224.028315 
L 256.440068 223.809972 
L 256.72645 222.892191 
L 257.03486 222.195525 
L 257.145007 222.308641 
L 257.310227 222.947231 
L 257.618637 225.288529 
L 258.158356 229.082544 
L 258.554884 230.268888 
L 259.006485 231.067896 
L 259.138661 230.987251 
L 259.292866 230.516628 
L 259.524174 228.917679 
L 260.372304 221.734788 
L 260.405348 221.756303 
L 260.515494 222.075328 
L 260.713758 223.509517 
L 261.121301 228.526913 
L 261.870298 237.301343 
L 262.145665 238.455006 
L 262.255811 238.459061 
L 262.266826 238.446688 
L 262.421031 238.081436 
L 263.015823 236.472195 
L 263.170029 236.574985 
L 263.676703 237.041516 
L 263.852938 236.768886 
L 264.128304 235.824162 
L 264.987448 232.569152 
L 265.10861 232.686499 
L 265.284844 233.277075 
L 265.74746 235.978361 
L 266.022827 236.825877 
L 266.143988 236.77469 
L 266.309208 236.293557 
L 266.981103 233.424627 
L 267.058205 233.534544 
L 267.212411 234.253993 
L 267.487777 236.898292 
L 267.89532 240.271757 
L 267.939378 240.298503 
L 267.983437 240.227497 
L 268.093584 239.59975 
L 268.291848 236.892754 
L 269.239109 221.523483 
L 269.316212 221.518443 
L 269.349256 221.564244 
L 269.52549 222.131833 
L 270.439707 225.53765 
L 271.386969 228.927078 
L 271.728423 229.255214 
L 272.014805 229.254194 
L 272.33423 228.986013 
L 273.017139 228.07883 
L 273.270476 227.137718 
L 273.920342 224.095426 
L 273.9644 224.132462 
L 274.085562 224.527231 
L 274.29484 226.15442 
L 275.076881 233.01032 
L 275.253116 233.099406 
L 275.539497 233.07066 
L 275.671673 233.494487 
L 275.858923 234.996412 
L 276.156319 239.608113 
L 276.784154 249.409525 
L 276.927345 249.832868 
L 276.960389 249.810409 
L 277.070536 249.443291 
L 277.290829 247.679008 
L 278.271134 238.794332 
L 278.59056 237.612534 
L 278.711721 237.566953 
L 278.73375 237.5868 
L 278.876941 237.929894 
L 279.108249 239.197793 
L 279.570865 243.283666 
L 280.154642 247.906289 
L 280.396965 248.470799 
L 280.518126 248.398103 
L 280.71639 247.917214 
L 281.388284 246.112586 
L 281.630607 246.068411 
L 281.8509 245.988856 
L 282.01612 245.59399 
L 282.225399 244.381369 
L 282.566854 240.755019 
L 283.150631 234.877575 
L 283.448027 233.814944 
L 283.624261 233.73446 
L 283.767452 233.968252 
L 283.965716 234.804688 
L 284.263112 237.196337 
L 284.935007 242.749755 
L 285.067183 242.900365 
L 285.089212 242.883814 
L 285.210373 242.590112 
L 285.430667 241.321157 
L 286.080532 237.290886 
L 286.168649 237.352695 
L 286.300825 237.876852 
L 286.532133 239.912722 
L 287.270116 247.009597 
L 287.424321 247.181776 
L 287.44635 247.166739 
L 287.578526 246.902496 
L 287.820849 245.813699 
L 288.206362 242.903386 
L 289.043477 236.223131 
L 289.219711 236.012837 
L 289.230726 236.017702 
L 289.362902 236.22714 
L 289.583195 237.105861 
L 290.034797 240.075927 
L 290.541471 242.85894 
L 290.849882 243.494327 
L 291.565835 244.463066 
L 291.88526 245.550431 
L 292.226715 247.605906 
L 292.766433 252.533046 
L 293.449343 258.19803 
L 293.812827 259.60663 
L 294.044135 259.829736 
L 294.187325 259.685244 
L 294.396604 259.073796 
L 295.255748 255.945494 
L 295.277777 255.952676 
L 295.487056 256.171514 
L 295.751408 256.339472 
L 295.905613 256.145774 
L 296.434317 255.011536 
L 296.51142 255.102241 
L 296.665625 255.664637 
L 296.918962 257.616037 
L 297.712018 264.222167 
L 297.921297 264.510631 
L 298.053473 264.35364 
L 298.30681 263.570974 
L 298.703338 262.485615 
L 298.824499 262.542094 
L 298.978705 262.986776 
L 299.265086 264.683019 
L 299.705672 266.999757 
L 299.815819 267.069658 
L 299.848863 267.037936 
L 299.981039 266.67203 
L 300.223362 265.169051 
L 300.895256 260.750249 
L 300.994388 260.709463 
L 301.027432 260.746727 
L 301.170623 261.193181 
L 301.42396 262.917741 
L 302.194987 268.541658 
L 302.437309 268.930517 
L 302.613544 268.863155 
L 303.219351 268.444782 
L 303.428629 268.753086 
L 304.100524 269.911371 
L 304.298788 269.766387 
L 304.673286 269.496603 
L 304.838506 269.675209 
L 305.157932 270.481274 
L 305.444313 270.945128 
L 305.576489 270.849592 
L 305.763738 270.335315 
L 306.567809 267.46772 
L 306.611867 267.497849 
L 306.766073 267.832034 
L 307.063469 269.197545 
L 307.471011 270.778103 
L 307.614202 270.830361 
L 307.625217 270.821995 
L 307.779422 270.545873 
L 308.164935 269.205672 
L 309.189299 265.162723 
L 309.530754 264.017187 
L 309.6409 264.033351 
L 309.651915 264.048374 
L 309.795106 264.472611 
L 310.037428 266.057224 
L 310.742367 271.027144 
L 310.940631 271.224721 
L 311.149909 271.067398 
L 311.381217 270.999616 
L 311.535423 271.25405 
L 311.766731 272.190053 
L 312.526742 275.65918 
L 312.736021 275.720564 
L 313.033417 275.759613 
L 313.209652 276.141034 
L 313.462989 277.3619 
L 314.234016 281.488914 
L 314.355177 281.480555 
L 314.366192 281.467206 
L 314.520397 281.070966 
L 314.795763 279.588514 
L 315.368526 276.544466 
L 315.489687 276.478001 
L 315.522731 276.507738 
L 315.676937 276.888127 
L 316.271729 278.882764 
L 316.315787 278.84765 
L 316.458978 278.471755 
L 316.734345 276.917197 
L 317.241019 274.27039 
L 317.472327 273.969793 
L 317.69262 274.027852 
L 318.100163 274.135731 
L 318.386544 273.950521 
L 318.628867 273.527225 
L 318.860175 272.62004 
L 319.157571 270.383497 
L 319.741348 265.903454 
L 319.807436 265.881277 
L 319.84048 265.928521 
L 319.961641 266.434923 
L 320.192949 268.637169 
L 320.798756 274.672103 
L 320.963976 274.913984 
L 320.974991 274.909231 
L 321.107167 274.711839 
L 321.591812 273.862315 
L 321.746017 274.024792 
L 322.285736 274.790036 
L 322.307765 274.775629 
L 322.484 274.493468 
L 323.078792 273.376699 
L 323.232997 273.561716 
L 323.794745 274.578414 
L 323.849818 274.528656 
L 324.004023 274.141204 
L 324.27939 272.681731 
L 324.77505 270.203388 
L 324.907226 270.134883 
L 324.929255 270.153531 
L 325.083461 270.492101 
L 325.920575 272.861161 
L 326.251015 273.088907 
L 326.504352 273.684407 
L 327.594804 277.345539 
L 328.542065 283.144973 
L 328.652212 283.0386 
L 328.839461 282.431332 
L 329.169901 280.427558 
L 330.315426 272.866204 
L 330.524705 272.696828 
L 330.70094 272.864743 
L 331.714289 274.5542 
L 332.0227 275.899917 
L 332.694594 280.250664 
L 333.432577 284.31344 
L 333.752002 285.09105 
L 334.027369 285.250655 
L 334.291721 285.434533 
L 334.500999 285.933829 
L 334.776366 287.300855 
L 335.877832 293.742387 
L 336.054067 293.747621 
L 336.27436 293.44087 
L 336.836108 292.614735 
L 337.001328 292.715398 
L 337.210607 293.185014 
L 337.541047 294.588122 
L 338.223956 297.509789 
L 338.411205 297.633107 
L 338.554396 297.426277 
L 338.785704 296.579016 
L 339.325422 293.398536 
L 339.72195 291.772452 
L 339.953258 291.512803 
L 340.140508 291.613994 
L 340.757329 292.124522 
L 340.955593 291.85782 
L 341.583429 290.699534 
L 341.627487 290.731645 
L 341.781693 291.048601 
L 342.046045 292.234648 
L 342.795042 295.810008 
L 343.037365 296.074416 
L 343.202585 295.960062 
L 343.444907 295.431967 
L 344.392168 293.021811 
L 344.766667 292.832302 
L 345.207254 292.836937 
L 345.581752 293.097301 
L 345.956251 293.284769 
L 346.165529 293.131883 
L 346.429881 292.605124 
L 347.255981 290.700346 
L 347.266996 290.705034 
L 347.410187 290.911895 
L 347.619465 291.726253 
L 347.982949 294.277762 
L 348.555712 298.021862 
L 348.831078 298.604818 
L 349.051372 298.633381 
L 349.337753 298.676062 
L 349.525002 298.995015 
L 349.800369 299.999099 
L 350.439219 302.424466 
L 350.604439 302.448383 
L 350.769659 302.145658 
L 351.067055 301.009453 
L 352.025331 297.135985 
L 352.54302 295.766433 
L 352.774328 295.636768 
L 352.972592 295.813327 
L 353.798692 296.826528 
L 354.03 296.610545 
L 354.845085 295.602316 
L 354.867115 295.620342 
L 355.054364 295.949797 
L 355.395819 297.144223 
L 355.836405 298.421674 
L 356.122787 298.655473 
L 357.092077 298.874312 
L 358.32572 297.826567 
L 358.601086 296.850465 
L 359.140805 294.968838 
L 359.283995 294.981813 
L 359.46023 295.337665 
L 360.12111 296.927465 
L 360.275315 296.812431 
L 360.594741 296.175544 
L 360.958225 295.648823 
L 361.211562 295.632756 
L 361.641134 295.639882 
L 361.905486 295.347046 
L 362.797674 294.172856 
L 363.028982 294.270039 
L 363.348407 294.712509 
L 363.73392 295.136348 
L 363.89914 295.027345 
L 364.119433 294.526067 
L 364.934519 292.350494 
L 365.242929 292.243644 
L 365.540325 292.34785 
L 365.760619 292.695971 
L 366.02497 293.629532 
L 366.443528 296.141983 
L 367.567024 303.111842 
L 367.875434 303.860228 
L 368.040654 303.851778 
L 368.227903 303.529249 
L 369.065018 301.744209 
L 369.285311 301.916489 
L 369.65981 302.18339 
L 369.836045 302.036061 
L 370.133441 301.397765 
L 370.540983 300.667443 
L 370.717218 300.694491 
L 370.926496 301.010548 
L 372.049992 303.128362 
L 372.391447 303.631679 
L 372.854063 304.847348 
L 373.261605 305.642306 
L 373.492913 305.703729 
L 373.746251 305.497543 
L 374.913805 304.05595 
L 374.913805 304.05595 
" style="fill:none;stroke:#ff7f0e;stroke-linecap:square;stroke-width:1.5;"/>
   </g>
   <g id="patch_103">
    <path d="M 57.6 307.584 
L 57.6 41.472 
" style="fill:none;stroke:#000000;stroke-linecap:square;stroke-linejoin:miter;stroke-width:0.8;"/>
   </g>
   <g id="patch_104">
    <path d="M 414.72 307.584 
L 414.72 41.472 
" style="fill:none;stroke:#000000;stroke-linecap:square;stroke-linejoin:miter;stroke-width:0.8;"/>
   </g>
   <g id="patch_105">
    <path d="M 57.6 307.584 
L 414.72 307.584 
" style="fill:none;stroke:#000000;stroke-linecap:square;stroke-linejoin:miter;stroke-width:0.8;"/>
   </g>
   <g id="patch_106">
    <path d="M 57.6 41.472 
L 414.72 41.472 
" style="fill:none;stroke:#000000;stroke-linecap:square;stroke-linejoin:miter;stroke-width:0.8;"/>
   </g>
  </g>
 </g>
 <defs>
  <clipPath id="p806a28fc91">
   <rect height="266.112" width="357.12" x="57.6" y="41.472"/>
  </clipPath>
 </defs>
</svg>
