<?xml version="1.0" encoding="utf-8" standalone="no"?>
<!DOCTYPE svg PUBLIC "-//W3C//DTD SVG 1.1//EN"
  "http://www.w3.org/Graphics/SVG/1.1/DTD/svg11.dtd">
<!-- Created with matplotlib (https://matplotlib.org/) -->
<svg height="345.6pt" version="1.1" viewBox="0 0 460.8 345.6" width="460.8pt" xmlns="http://www.w3.org/2000/svg" xmlns:xlink="http://www.w3.org/1999/xlink">
 <defs>
  <style type="text/css">
*{stroke-linecap:butt;stroke-linejoin:round;}
  </style>
 </defs>
 <g id="figure_1">
  <g id="patch_1">
   <path d="M 0 345.6 
L 460.8 345.6 
L 460.8 0 
L 0 0 
z
" style="fill:#ffffff;"/>
  </g>
  <g id="axes_1">
   <g id="patch_2">
    <path d="M 57.6 307.584 
L 414.72 307.584 
L 414.72 41.472 
L 57.6 41.472 
z
" style="fill:#ffffff;"/>
   </g>
   <g id="patch_3">
    <path clip-path="url(#p4dce690f0f)" d="M 73.832727 307.584 
L 77.079269 307.584 
L 77.079269 307.003882 
L 73.832727 307.003882 
z
" style="fill:#1f77b4;"/>
   </g>
   <g id="patch_4">
    <path clip-path="url(#p4dce690f0f)" d="M 77.079269 307.584 
L 80.325823 307.584 
L 80.325823 307.003885 
L 77.079269 307.003885 
z
" style="fill:#1f77b4;"/>
   </g>
   <g id="patch_5">
    <path clip-path="url(#p4dce690f0f)" d="M 80.325836 307.584 
L 83.572378 307.584 
L 83.572378 307.003882 
L 80.325836 307.003882 
z
" style="fill:#1f77b4;"/>
   </g>
   <g id="patch_6">
    <path clip-path="url(#p4dce690f0f)" d="M 83.572365 307.584 
L 86.818906 307.584 
L 86.818906 307.003882 
L 83.572365 307.003882 
z
" style="fill:#1f77b4;"/>
   </g>
   <g id="patch_7">
    <path clip-path="url(#p4dce690f0f)" d="M 86.818919 307.584 
L 90.06546 307.584 
L 90.06546 306.81051 
L 86.818919 306.81051 
z
" style="fill:#1f77b4;"/>
   </g>
   <g id="patch_8">
    <path clip-path="url(#p4dce690f0f)" d="M 90.065447 307.584 
L 93.312002 307.584 
L 93.312002 306.230398 
L 90.065447 306.230398 
z
" style="fill:#1f77b4;"/>
   </g>
   <g id="patch_9">
    <path clip-path="url(#p4dce690f0f)" d="M 93.312002 307.584 
L 96.558543 307.584 
L 96.558543 305.456902 
L 93.312002 305.456902 
z
" style="fill:#1f77b4;"/>
   </g>
   <g id="patch_10">
    <path clip-path="url(#p4dce690f0f)" d="M 96.558556 307.584 
L 99.805098 307.584 
L 99.805098 305.650275 
L 96.558556 305.650275 
z
" style="fill:#1f77b4;"/>
   </g>
   <g id="patch_11">
    <path clip-path="url(#p4dce690f0f)" d="M 99.805085 307.584 
L 103.051639 307.584 
L 103.051639 306.230398 
L 99.805085 306.230398 
z
" style="fill:#1f77b4;"/>
   </g>
   <g id="patch_12">
    <path clip-path="url(#p4dce690f0f)" d="M 103.051639 307.584 
L 106.298181 307.584 
L 106.298181 306.423765 
L 103.051639 306.423765 
z
" style="fill:#1f77b4;"/>
   </g>
   <g id="patch_13">
    <path clip-path="url(#p4dce690f0f)" d="M 106.298194 307.584 
L 109.544735 307.584 
L 109.544735 307.197255 
L 106.298194 307.197255 
z
" style="fill:#1f77b4;"/>
   </g>
   <g id="patch_14">
    <path clip-path="url(#p4dce690f0f)" d="M 109.544722 307.584 
L 112.791276 307.584 
L 112.791276 306.617141 
L 109.544722 306.617141 
z
" style="fill:#1f77b4;"/>
   </g>
   <g id="patch_15">
    <path clip-path="url(#p4dce690f0f)" d="M 112.791276 307.584 
L 116.037818 307.584 
L 116.037818 306.03702 
L 112.791276 306.03702 
z
" style="fill:#1f77b4;"/>
   </g>
   <g id="patch_16">
    <path clip-path="url(#p4dce690f0f)" d="M 116.037831 307.584 
L 119.284372 307.584 
L 119.284372 306.03702 
L 116.037831 306.03702 
z
" style="fill:#1f77b4;"/>
   </g>
   <g id="patch_17">
    <path clip-path="url(#p4dce690f0f)" d="M 119.284359 307.584 
L 122.530914 307.584 
L 122.530914 305.650283 
L 119.284359 305.650283 
z
" style="fill:#1f77b4;"/>
   </g>
   <g id="patch_18">
    <path clip-path="url(#p4dce690f0f)" d="M 122.530914 307.584 
L 125.777455 307.584 
L 125.777455 305.843647 
L 122.530914 305.843647 
z
" style="fill:#1f77b4;"/>
   </g>
   <g id="patch_19">
    <path clip-path="url(#p4dce690f0f)" d="M 125.777455 307.584 
L 129.023996 307.584 
L 129.023996 304.49004 
L 125.777455 304.49004 
z
" style="fill:#1f77b4;"/>
   </g>
   <g id="patch_20">
    <path clip-path="url(#p4dce690f0f)" d="M 129.023996 307.584 
L 132.270544 307.584 
L 132.270544 304.103302 
L 129.023996 304.103302 
z
" style="fill:#1f77b4;"/>
   </g>
   <g id="patch_21">
    <path clip-path="url(#p4dce690f0f)" d="M 132.270544 307.584 
L 135.517086 307.584 
L 135.517086 303.71655 
L 132.270544 303.71655 
z
" style="fill:#1f77b4;"/>
   </g>
   <g id="patch_22">
    <path clip-path="url(#p4dce690f0f)" d="M 135.517079 307.584 
L 138.763627 307.584 
L 138.763627 301.009348 
L 135.517079 301.009348 
z
" style="fill:#1f77b4;"/>
   </g>
   <g id="patch_23">
    <path clip-path="url(#p4dce690f0f)" d="M 138.763634 307.584 
L 142.010182 307.584 
L 142.010182 300.235859 
L 138.763634 300.235859 
z
" style="fill:#1f77b4;"/>
   </g>
   <g id="patch_24">
    <path clip-path="url(#p4dce690f0f)" d="M 142.010182 307.584 
L 145.256723 307.584 
L 145.256723 302.362942 
L 142.010182 302.362942 
z
" style="fill:#1f77b4;"/>
   </g>
   <g id="patch_25">
    <path clip-path="url(#p4dce690f0f)" d="M 145.256717 307.584 
L 148.503265 307.584 
L 148.503265 300.042487 
L 145.256717 300.042487 
z
" style="fill:#1f77b4;"/>
   </g>
   <g id="patch_26">
    <path clip-path="url(#p4dce690f0f)" d="M 148.503271 307.584 
L 151.749812 307.584 
L 151.749812 297.915374 
L 148.503271 297.915374 
z
" style="fill:#1f77b4;"/>
   </g>
   <g id="patch_27">
    <path clip-path="url(#p4dce690f0f)" d="M 151.749812 307.584 
L 154.99636 307.584 
L 154.99636 297.722022 
L 151.749812 297.722022 
z
" style="fill:#1f77b4;"/>
   </g>
   <g id="patch_28">
    <path clip-path="url(#p4dce690f0f)" d="M 154.996354 307.584 
L 158.242902 307.584 
L 158.242902 294.241323 
L 154.996354 294.241323 
z
" style="fill:#1f77b4;"/>
   </g>
   <g id="patch_29">
    <path clip-path="url(#p4dce690f0f)" d="M 158.242908 307.584 
L 161.48945 307.584 
L 161.48945 295.401532 
L 158.242908 295.401532 
z
" style="fill:#1f77b4;"/>
   </g>
   <g id="patch_30">
    <path clip-path="url(#p4dce690f0f)" d="M 161.48945 307.584 
L 164.735998 307.584 
L 164.735998 286.893183 
L 161.48945 286.893183 
z
" style="fill:#1f77b4;"/>
   </g>
   <g id="patch_31">
    <path clip-path="url(#p4dce690f0f)" d="M 164.735998 307.584 
L 167.982539 307.584 
L 167.982539 285.152789 
L 164.735998 285.152789 
z
" style="fill:#1f77b4;"/>
   </g>
   <g id="patch_32">
    <path clip-path="url(#p4dce690f0f)" d="M 167.982533 307.584 
L 171.22908 307.584 
L 171.22908 285.539578 
L 167.982533 285.539578 
z
" style="fill:#1f77b4;"/>
   </g>
   <g id="patch_33">
    <path clip-path="url(#p4dce690f0f)" d="M 171.229087 307.584 
L 174.475635 307.584 
L 174.475635 277.224577 
L 171.229087 277.224577 
z
" style="fill:#1f77b4;"/>
   </g>
   <g id="patch_34">
    <path clip-path="url(#p4dce690f0f)" d="M 174.475635 307.584 
L 177.722176 307.584 
L 177.722176 277.611261 
L 174.475635 277.611261 
z
" style="fill:#1f77b4;"/>
   </g>
   <g id="patch_35">
    <path clip-path="url(#p4dce690f0f)" d="M 177.72217 307.584 
L 180.968718 307.584 
L 180.968718 261.561435 
L 177.72217 261.561435 
z
" style="fill:#1f77b4;"/>
   </g>
   <g id="patch_36">
    <path clip-path="url(#p4dce690f0f)" d="M 180.968724 307.584 
L 184.215269 307.584 
L 184.215269 265.622207 
L 180.968724 265.622207 
z
" style="fill:#1f77b4;"/>
   </g>
   <g id="patch_37">
    <path clip-path="url(#p4dce690f0f)" d="M 184.215272 307.584 
L 187.461817 307.584 
L 187.461817 268.329419 
L 184.215272 268.329419 
z
" style="fill:#1f77b4;"/>
   </g>
   <g id="patch_38">
    <path clip-path="url(#p4dce690f0f)" d="M 187.461814 307.584 
L 190.708358 307.584 
L 190.708358 266.202324 
L 187.461814 266.202324 
z
" style="fill:#1f77b4;"/>
   </g>
   <g id="patch_39">
    <path clip-path="url(#p4dce690f0f)" d="M 190.708362 307.584 
L 193.954906 307.584 
L 193.954906 263.495112 
L 190.708362 263.495112 
z
" style="fill:#1f77b4;"/>
   </g>
   <g id="patch_40">
    <path clip-path="url(#p4dce690f0f)" d="M 193.954903 307.584 
L 197.201451 307.584 
L 197.201451 261.368062 
L 193.954903 261.368062 
z
" style="fill:#1f77b4;"/>
   </g>
   <g id="patch_41">
    <path clip-path="url(#p4dce690f0f)" d="M 197.201451 307.584 
L 200.447996 307.584 
L 200.447996 258.274059 
L 197.201451 258.274059 
z
" style="fill:#1f77b4;"/>
   </g>
   <g id="patch_42">
    <path clip-path="url(#p4dce690f0f)" d="M 200.447999 307.584 
L 203.694543 307.584 
L 203.694543 252.666262 
L 200.447999 252.666262 
z
" style="fill:#1f77b4;"/>
   </g>
   <g id="patch_43">
    <path clip-path="url(#p4dce690f0f)" d="M 203.69454 307.584 
L 206.941085 307.584 
L 206.941085 246.091603 
L 203.69454 246.091603 
z
" style="fill:#1f77b4;"/>
   </g>
   <g id="patch_44">
    <path clip-path="url(#p4dce690f0f)" d="M 206.941085 307.584 
L 210.187631 307.584 
L 210.187631 242.030817 
L 206.941085 242.030817 
z
" style="fill:#1f77b4;"/>
   </g>
   <g id="patch_45">
    <path clip-path="url(#p4dce690f0f)" d="M 210.187631 307.584 
L 213.434176 307.584 
L 213.434176 233.715775 
L 210.187631 233.715775 
z
" style="fill:#1f77b4;"/>
   </g>
   <g id="patch_46">
    <path clip-path="url(#p4dce690f0f)" d="M 213.434174 307.584 
L 216.680721 307.584 
L 216.680721 217.85929 
L 213.434174 217.85929 
z
" style="fill:#1f77b4;"/>
   </g>
   <g id="patch_47">
    <path clip-path="url(#p4dce690f0f)" d="M 216.680722 307.584 
L 219.927267 307.584 
L 219.927267 226.367626 
L 216.680722 226.367626 
z
" style="fill:#1f77b4;"/>
   </g>
   <g id="patch_48">
    <path clip-path="url(#p4dce690f0f)" d="M 219.927267 307.584 
L 223.173812 307.584 
L 223.173812 216.505661 
L 219.927267 216.505661 
z
" style="fill:#1f77b4;"/>
   </g>
   <g id="patch_49">
    <path clip-path="url(#p4dce690f0f)" d="M 223.173813 307.584 
L 226.420359 307.584 
L 226.420359 222.693574 
L 223.173813 222.693574 
z
" style="fill:#1f77b4;"/>
   </g>
   <g id="patch_50">
    <path clip-path="url(#p4dce690f0f)" d="M 226.420358 307.584 
L 229.666903 307.584 
L 229.666903 222.500191 
L 226.420358 222.500191 
z
" style="fill:#1f77b4;"/>
   </g>
   <g id="patch_51">
    <path clip-path="url(#p4dce690f0f)" d="M 229.666903 307.584 
L 232.913448 307.584 
L 232.913448 199.682267 
L 229.666903 199.682267 
z
" style="fill:#1f77b4;"/>
   </g>
   <g id="patch_52">
    <path clip-path="url(#p4dce690f0f)" d="M 232.913448 307.584 
L 236.159993 307.584 
L 236.159993 147.471751 
L 232.913448 147.471751 
z
" style="fill:#1f77b4;"/>
   </g>
   <g id="patch_53">
    <path clip-path="url(#p4dce690f0f)" d="M 236.159993 307.584 
L 239.406539 307.584 
L 239.406539 196.975055 
L 236.159993 196.975055 
z
" style="fill:#1f77b4;"/>
   </g>
   <g id="patch_54">
    <path clip-path="url(#p4dce690f0f)" d="M 239.406539 307.584 
L 242.653084 307.584 
L 242.653084 203.743085 
L 239.406539 203.743085 
z
" style="fill:#1f77b4;"/>
   </g>
   <g id="patch_55">
    <path clip-path="url(#p4dce690f0f)" d="M 242.653084 307.584 
L 245.899629 307.584 
L 245.899629 214.571927 
L 242.653084 214.571927 
z
" style="fill:#1f77b4;"/>
   </g>
   <g id="patch_56">
    <path clip-path="url(#p4dce690f0f)" d="M 245.899629 307.584 
L 249.146175 307.584 
L 249.146175 222.113457 
L 245.899629 222.113457 
z
" style="fill:#1f77b4;"/>
   </g>
   <g id="patch_57">
    <path clip-path="url(#p4dce690f0f)" d="M 249.146175 307.584 
L 252.39272 307.584 
L 252.39272 231.975443 
L 249.146175 231.975443 
z
" style="fill:#1f77b4;"/>
   </g>
   <g id="patch_58">
    <path clip-path="url(#p4dce690f0f)" d="M 252.39272 307.584 
L 255.639265 307.584 
L 255.639265 225.78751 
L 252.39272 225.78751 
z
" style="fill:#1f77b4;"/>
   </g>
   <g id="patch_59">
    <path clip-path="url(#p4dce690f0f)" d="M 255.639265 307.584 
L 258.885811 307.584 
L 258.885811 229.848367 
L 255.639265 229.848367 
z
" style="fill:#1f77b4;"/>
   </g>
   <g id="patch_60">
    <path clip-path="url(#p4dce690f0f)" d="M 258.885811 307.584 
L 262.132356 307.584 
L 262.132356 236.036242 
L 258.885811 236.036242 
z
" style="fill:#1f77b4;"/>
   </g>
   <g id="patch_61">
    <path clip-path="url(#p4dce690f0f)" d="M 262.132354 307.584 
L 265.378899 307.584 
L 265.378899 236.229651 
L 262.132354 236.229651 
z
" style="fill:#1f77b4;"/>
   </g>
   <g id="patch_62">
    <path clip-path="url(#p4dce690f0f)" d="M 265.378905 307.584 
L 268.62545 307.584 
L 268.62545 231.201934 
L 265.378905 231.201934 
z
" style="fill:#1f77b4;"/>
   </g>
   <g id="patch_63">
    <path clip-path="url(#p4dce690f0f)" d="M 268.625447 307.584 
L 271.871991 307.584 
L 271.871991 231.975424 
L 268.625447 231.975424 
z
" style="fill:#1f77b4;"/>
   </g>
   <g id="patch_64">
    <path clip-path="url(#p4dce690f0f)" d="M 271.871995 307.584 
L 275.118539 307.584 
L 275.118539 239.323572 
L 271.871995 239.323572 
z
" style="fill:#1f77b4;"/>
   </g>
   <g id="patch_65">
    <path clip-path="url(#p4dce690f0f)" d="M 275.118536 307.584 
L 278.365084 307.584 
L 278.365084 248.025386 
L 275.118536 248.025386 
z
" style="fill:#1f77b4;"/>
   </g>
   <g id="patch_66">
    <path clip-path="url(#p4dce690f0f)" d="M 278.365084 307.584 
L 281.611629 307.584 
L 281.611629 252.086145 
L 278.365084 252.086145 
z
" style="fill:#1f77b4;"/>
   </g>
   <g id="patch_67">
    <path clip-path="url(#p4dce690f0f)" d="M 281.611632 307.584 
L 284.858177 307.584 
L 284.858177 245.318114 
L 281.611632 245.318114 
z
" style="fill:#1f77b4;"/>
   </g>
   <g id="patch_68">
    <path clip-path="url(#p4dce690f0f)" d="M 284.858173 307.584 
L 288.104718 307.584 
L 288.104718 248.605443 
L 284.858173 248.605443 
z
" style="fill:#1f77b4;"/>
   </g>
   <g id="patch_69">
    <path clip-path="url(#p4dce690f0f)" d="M 288.104721 307.584 
L 291.351263 307.584 
L 291.351263 253.053006 
L 288.104721 253.053006 
z
" style="fill:#1f77b4;"/>
   </g>
   <g id="patch_70">
    <path clip-path="url(#p4dce690f0f)" d="M 291.351263 307.584 
L 294.597811 307.584 
L 294.597811 260.014458 
L 291.351263 260.014458 
z
" style="fill:#1f77b4;"/>
   </g>
   <g id="patch_71">
    <path clip-path="url(#p4dce690f0f)" d="M 294.597811 307.584 
L 297.844352 307.584 
L 297.844352 264.075185 
L 294.597811 264.075185 
z
" style="fill:#1f77b4;"/>
   </g>
   <g id="patch_72">
    <path clip-path="url(#p4dce690f0f)" d="M 297.844346 307.584 
L 301.090893 307.584 
L 301.090893 268.136087 
L 297.844346 268.136087 
z
" style="fill:#1f77b4;"/>
   </g>
   <g id="patch_73">
    <path clip-path="url(#p4dce690f0f)" d="M 301.0909 307.584 
L 304.337448 307.584 
L 304.337448 269.683064 
L 301.0909 269.683064 
z
" style="fill:#1f77b4;"/>
   </g>
   <g id="patch_74">
    <path clip-path="url(#p4dce690f0f)" d="M 304.337448 307.584 
L 307.583989 307.584 
L 307.583989 269.10287 
L 304.337448 269.10287 
z
" style="fill:#1f77b4;"/>
   </g>
   <g id="patch_75">
    <path clip-path="url(#p4dce690f0f)" d="M 307.583983 307.584 
L 310.830531 307.584 
L 310.830531 269.102947 
L 307.583983 269.102947 
z
" style="fill:#1f77b4;"/>
   </g>
   <g id="patch_76">
    <path clip-path="url(#p4dce690f0f)" d="M 310.830537 307.584 
L 314.077079 307.584 
L 314.077079 276.644398 
L 310.830537 276.644398 
z
" style="fill:#1f77b4;"/>
   </g>
   <g id="patch_77">
    <path clip-path="url(#p4dce690f0f)" d="M 314.077079 307.584 
L 317.323627 307.584 
L 317.323627 274.130623 
L 314.077079 274.130623 
z
" style="fill:#1f77b4;"/>
   </g>
   <g id="patch_78">
    <path clip-path="url(#p4dce690f0f)" d="M 317.32362 307.584 
L 320.570168 307.584 
L 320.570168 268.909575 
L 317.32362 268.909575 
z
" style="fill:#1f77b4;"/>
   </g>
   <g id="patch_79">
    <path clip-path="url(#p4dce690f0f)" d="M 320.570175 307.584 
L 323.816716 307.584 
L 323.816716 272.97032 
L 320.570175 272.97032 
z
" style="fill:#1f77b4;"/>
   </g>
   <g id="patch_80">
    <path clip-path="url(#p4dce690f0f)" d="M 323.816716 307.584 
L 327.063264 307.584 
L 327.063264 278.191437 
L 323.816716 278.191437 
z
" style="fill:#1f77b4;"/>
   </g>
   <g id="patch_81">
    <path clip-path="url(#p4dce690f0f)" d="M 327.063264 307.584 
L 330.309805 307.584 
L 330.309805 275.29079 
L 327.063264 275.29079 
z
" style="fill:#1f77b4;"/>
   </g>
   <g id="patch_82">
    <path clip-path="url(#p4dce690f0f)" d="M 330.309799 307.584 
L 333.556347 307.584 
L 333.556347 285.926322 
L 330.309799 285.926322 
z
" style="fill:#1f77b4;"/>
   </g>
   <g id="patch_83">
    <path clip-path="url(#p4dce690f0f)" d="M 333.556353 307.584 
L 336.802901 307.584 
L 336.802901 293.274463 
L 333.556353 293.274463 
z
" style="fill:#1f77b4;"/>
   </g>
   <g id="patch_84">
    <path clip-path="url(#p4dce690f0f)" d="M 336.802901 307.584 
L 340.049443 307.584 
L 340.049443 292.114199 
L 336.802901 292.114199 
z
" style="fill:#1f77b4;"/>
   </g>
   <g id="patch_85">
    <path clip-path="url(#p4dce690f0f)" d="M 340.049436 307.584 
L 343.295984 307.584 
L 343.295984 295.208184 
L 340.049436 295.208184 
z
" style="fill:#1f77b4;"/>
   </g>
   <g id="patch_86">
    <path clip-path="url(#p4dce690f0f)" d="M 343.29599 307.584 
L 346.542532 307.584 
L 346.542532 292.694317 
L 343.29599 292.694317 
z
" style="fill:#1f77b4;"/>
   </g>
   <g id="patch_87">
    <path clip-path="url(#p4dce690f0f)" d="M 346.542545 307.584 
L 349.789086 307.584 
L 349.789086 299.462354 
L 346.542545 299.462354 
z
" style="fill:#1f77b4;"/>
   </g>
   <g id="patch_88">
    <path clip-path="url(#p4dce690f0f)" d="M 349.789073 307.584 
L 353.035628 307.584 
L 353.035628 295.981696 
L 349.789073 295.981696 
z
" style="fill:#1f77b4;"/>
   </g>
   <g id="patch_89">
    <path clip-path="url(#p4dce690f0f)" d="M 353.035628 307.584 
L 356.282169 307.584 
L 356.282169 299.075609 
L 353.035628 299.075609 
z
" style="fill:#1f77b4;"/>
   </g>
   <g id="patch_90">
    <path clip-path="url(#p4dce690f0f)" d="M 356.282182 307.584 
L 359.528724 307.584 
L 359.528724 298.108747 
L 356.282182 298.108747 
z
" style="fill:#1f77b4;"/>
   </g>
   <g id="patch_91">
    <path clip-path="url(#p4dce690f0f)" d="M 359.528711 307.584 
L 362.775265 307.584 
L 362.775265 296.561811 
L 359.528711 296.561811 
z
" style="fill:#1f77b4;"/>
   </g>
   <g id="patch_92">
    <path clip-path="url(#p4dce690f0f)" d="M 362.775265 307.584 
L 366.021806 307.584 
L 366.021806 298.495492 
L 362.775265 298.495492 
z
" style="fill:#1f77b4;"/>
   </g>
   <g id="patch_93">
    <path clip-path="url(#p4dce690f0f)" d="M 366.021819 307.584 
L 369.268361 307.584 
L 369.268361 302.362942 
L 366.021819 302.362942 
z
" style="fill:#1f77b4;"/>
   </g>
   <g id="patch_94">
    <path clip-path="url(#p4dce690f0f)" d="M 369.268348 307.584 
L 372.514902 307.584 
L 372.514902 303.523194 
L 369.268348 303.523194 
z
" style="fill:#1f77b4;"/>
   </g>
   <g id="patch_95">
    <path clip-path="url(#p4dce690f0f)" d="M 372.514902 307.584 
L 375.761444 307.584 
L 375.761444 302.556315 
L 372.514902 302.556315 
z
" style="fill:#1f77b4;"/>
   </g>
   <g id="patch_96">
    <path clip-path="url(#p4dce690f0f)" d="M 375.761457 307.584 
L 379.007998 307.584 
L 379.007998 303.909922 
L 375.761457 303.909922 
z
" style="fill:#1f77b4;"/>
   </g>
   <g id="patch_97">
    <path clip-path="url(#p4dce690f0f)" d="M 379.007985 307.584 
L 382.25454 307.584 
L 382.25454 304.103309 
L 379.007985 304.103309 
z
" style="fill:#1f77b4;"/>
   </g>
   <g id="patch_98">
    <path clip-path="url(#p4dce690f0f)" d="M 382.25454 307.584 
L 385.501081 307.584 
L 385.501081 305.070157 
L 382.25454 305.070157 
z
" style="fill:#1f77b4;"/>
   </g>
   <g id="patch_99">
    <path clip-path="url(#p4dce690f0f)" d="M 385.501094 307.584 
L 388.747635 307.584 
L 388.747635 305.843647 
L 385.501094 305.843647 
z
" style="fill:#1f77b4;"/>
   </g>
   <g id="patch_100">
    <path clip-path="url(#p4dce690f0f)" d="M 388.747622 307.584 
L 391.994164 307.584 
L 391.994164 306.617137 
L 388.747622 306.617137 
z
" style="fill:#1f77b4;"/>
   </g>
   <g id="patch_101">
    <path clip-path="url(#p4dce690f0f)" d="M 391.994164 307.584 
L 395.240718 307.584 
L 395.240718 305.843654 
L 391.994164 305.843654 
z
" style="fill:#1f77b4;"/>
   </g>
   <g id="patch_102">
    <path clip-path="url(#p4dce690f0f)" d="M 395.240731 307.584 
L 398.487273 307.584 
L 398.487273 306.230392 
L 395.240731 306.230392 
z
" style="fill:#1f77b4;"/>
   </g>
   <g id="matplotlib.axis_1">
    <g id="xtick_1">
     <g id="line2d_1">
      <defs>
       <path d="M 0 0 
L 0 3.5 
" id="me63ae4ebe2" style="stroke:#000000;stroke-width:0.8;"/>
      </defs>
      <g>
       <use style="stroke:#000000;stroke-width:0.8;" x="72.033879" xlink:href="#me63ae4ebe2" y="307.584"/>
      </g>
     </g>
     <g id="text_1">
      <!-- −3 -->
      <defs>
       <path d="M 10.59375 35.5 
L 73.1875 35.5 
L 73.1875 27.203125 
L 10.59375 27.203125 
z
" id="DejaVuSans-8722"/>
       <path d="M 40.578125 39.3125 
Q 47.65625 37.796875 51.625 33 
Q 55.609375 28.21875 55.609375 21.1875 
Q 55.609375 10.40625 48.1875 4.484375 
Q 40.765625 -1.421875 27.09375 -1.421875 
Q 22.515625 -1.421875 17.65625 -0.515625 
Q 12.796875 0.390625 7.625 2.203125 
L 7.625 11.71875 
Q 11.71875 9.328125 16.59375 8.109375 
Q 21.484375 6.890625 26.8125 6.890625 
Q 36.078125 6.890625 40.9375 10.546875 
Q 45.796875 14.203125 45.796875 21.1875 
Q 45.796875 27.640625 41.28125 31.265625 
Q 36.765625 34.90625 28.71875 34.90625 
L 20.21875 34.90625 
L 20.21875 43.015625 
L 29.109375 43.015625 
Q 36.375 43.015625 40.234375 45.921875 
Q 44.09375 48.828125 44.09375 54.296875 
Q 44.09375 59.90625 40.109375 62.90625 
Q 36.140625 65.921875 28.71875 65.921875 
Q 24.65625 65.921875 20.015625 65.03125 
Q 15.375 64.15625 9.8125 62.3125 
L 9.8125 71.09375 
Q 15.4375 72.65625 20.34375 73.4375 
Q 25.25 74.21875 29.59375 74.21875 
Q 40.828125 74.21875 47.359375 69.109375 
Q 53.90625 64.015625 53.90625 55.328125 
Q 53.90625 49.265625 50.4375 45.09375 
Q 46.96875 40.921875 40.578125 39.3125 
z
" id="DejaVuSans-51"/>
      </defs>
      <g transform="translate(59.50302 327.501344)scale(0.17 -0.17)">
       <use xlink:href="#DejaVuSans-8722"/>
       <use x="83.789062" xlink:href="#DejaVuSans-51"/>
      </g>
     </g>
    </g>
    <g id="xtick_2">
     <g id="line2d_2">
      <g>
       <use style="stroke:#000000;stroke-width:0.8;" x="126.731756" xlink:href="#me63ae4ebe2" y="307.584"/>
      </g>
     </g>
     <g id="text_2">
      <!-- −2 -->
      <defs>
       <path d="M 19.1875 8.296875 
L 53.609375 8.296875 
L 53.609375 0 
L 7.328125 0 
L 7.328125 8.296875 
Q 12.9375 14.109375 22.625 23.890625 
Q 32.328125 33.6875 34.8125 36.53125 
Q 39.546875 41.84375 41.421875 45.53125 
Q 43.3125 49.21875 43.3125 52.78125 
Q 43.3125 58.59375 39.234375 62.25 
Q 35.15625 65.921875 28.609375 65.921875 
Q 23.96875 65.921875 18.8125 64.3125 
Q 13.671875 62.703125 7.8125 59.421875 
L 7.8125 69.390625 
Q 13.765625 71.78125 18.9375 73 
Q 24.125 74.21875 28.421875 74.21875 
Q 39.75 74.21875 46.484375 68.546875 
Q 53.21875 62.890625 53.21875 53.421875 
Q 53.21875 48.921875 51.53125 44.890625 
Q 49.859375 40.875 45.40625 35.40625 
Q 44.1875 33.984375 37.640625 27.21875 
Q 31.109375 20.453125 19.1875 8.296875 
z
" id="DejaVuSans-50"/>
      </defs>
      <g transform="translate(114.200896 327.501344)scale(0.17 -0.17)">
       <use xlink:href="#DejaVuSans-8722"/>
       <use x="83.789062" xlink:href="#DejaVuSans-50"/>
      </g>
     </g>
    </g>
    <g id="xtick_3">
     <g id="line2d_3">
      <g>
       <use style="stroke:#000000;stroke-width:0.8;" x="181.429632" xlink:href="#me63ae4ebe2" y="307.584"/>
      </g>
     </g>
     <g id="text_3">
      <!-- −1 -->
      <defs>
       <path d="M 12.40625 8.296875 
L 28.515625 8.296875 
L 28.515625 63.921875 
L 10.984375 60.40625 
L 10.984375 69.390625 
L 28.421875 72.90625 
L 38.28125 72.90625 
L 38.28125 8.296875 
L 54.390625 8.296875 
L 54.390625 0 
L 12.40625 0 
z
" id="DejaVuSans-49"/>
      </defs>
      <g transform="translate(168.898773 327.501344)scale(0.17 -0.17)">
       <use xlink:href="#DejaVuSans-8722"/>
       <use x="83.789062" xlink:href="#DejaVuSans-49"/>
      </g>
     </g>
    </g>
    <g id="xtick_4">
     <g id="line2d_4">
      <g>
       <use style="stroke:#000000;stroke-width:0.8;" x="236.127508" xlink:href="#me63ae4ebe2" y="307.584"/>
      </g>
     </g>
     <g id="text_4">
      <!-- 0 -->
      <defs>
       <path d="M 31.78125 66.40625 
Q 24.171875 66.40625 20.328125 58.90625 
Q 16.5 51.421875 16.5 36.375 
Q 16.5 21.390625 20.328125 13.890625 
Q 24.171875 6.390625 31.78125 6.390625 
Q 39.453125 6.390625 43.28125 13.890625 
Q 47.125 21.390625 47.125 36.375 
Q 47.125 51.421875 43.28125 58.90625 
Q 39.453125 66.40625 31.78125 66.40625 
z
M 31.78125 74.21875 
Q 44.046875 74.21875 50.515625 64.515625 
Q 56.984375 54.828125 56.984375 36.375 
Q 56.984375 17.96875 50.515625 8.265625 
Q 44.046875 -1.421875 31.78125 -1.421875 
Q 19.53125 -1.421875 13.0625 8.265625 
Q 6.59375 17.96875 6.59375 36.375 
Q 6.59375 54.828125 13.0625 64.515625 
Q 19.53125 74.21875 31.78125 74.21875 
z
" id="DejaVuSans-48"/>
      </defs>
      <g transform="translate(230.719383 327.501344)scale(0.17 -0.17)">
       <use xlink:href="#DejaVuSans-48"/>
      </g>
     </g>
    </g>
    <g id="xtick_5">
     <g id="line2d_5">
      <g>
       <use style="stroke:#000000;stroke-width:0.8;" x="290.825385" xlink:href="#me63ae4ebe2" y="307.584"/>
      </g>
     </g>
     <g id="text_5">
      <!-- 1 -->
      <g transform="translate(285.41726 327.501344)scale(0.17 -0.17)">
       <use xlink:href="#DejaVuSans-49"/>
      </g>
     </g>
    </g>
    <g id="xtick_6">
     <g id="line2d_6">
      <g>
       <use style="stroke:#000000;stroke-width:0.8;" x="345.523261" xlink:href="#me63ae4ebe2" y="307.584"/>
      </g>
     </g>
     <g id="text_6">
      <!-- 2 -->
      <g transform="translate(340.115136 327.501344)scale(0.17 -0.17)">
       <use xlink:href="#DejaVuSans-50"/>
      </g>
     </g>
    </g>
    <g id="xtick_7">
     <g id="line2d_7">
      <g>
       <use style="stroke:#000000;stroke-width:0.8;" x="400.221138" xlink:href="#me63ae4ebe2" y="307.584"/>
      </g>
     </g>
     <g id="text_7">
      <!-- 3 -->
      <g transform="translate(394.813013 327.501344)scale(0.17 -0.17)">
       <use xlink:href="#DejaVuSans-51"/>
      </g>
     </g>
    </g>
    <g id="text_8">
     <!-- Position in Radian -->
     <defs>
      <path d="M 19.671875 64.796875 
L 19.671875 37.40625 
L 32.078125 37.40625 
Q 38.96875 37.40625 42.71875 40.96875 
Q 46.484375 44.53125 46.484375 51.125 
Q 46.484375 57.671875 42.71875 61.234375 
Q 38.96875 64.796875 32.078125 64.796875 
z
M 9.8125 72.90625 
L 32.078125 72.90625 
Q 44.34375 72.90625 50.609375 67.359375 
Q 56.890625 61.8125 56.890625 51.125 
Q 56.890625 40.328125 50.609375 34.8125 
Q 44.34375 29.296875 32.078125 29.296875 
L 19.671875 29.296875 
L 19.671875 0 
L 9.8125 0 
z
" id="DejaVuSans-80"/>
      <path d="M 30.609375 48.390625 
Q 23.390625 48.390625 19.1875 42.75 
Q 14.984375 37.109375 14.984375 27.296875 
Q 14.984375 17.484375 19.15625 11.84375 
Q 23.34375 6.203125 30.609375 6.203125 
Q 37.796875 6.203125 41.984375 11.859375 
Q 46.1875 17.53125 46.1875 27.296875 
Q 46.1875 37.015625 41.984375 42.703125 
Q 37.796875 48.390625 30.609375 48.390625 
z
M 30.609375 56 
Q 42.328125 56 49.015625 48.375 
Q 55.71875 40.765625 55.71875 27.296875 
Q 55.71875 13.875 49.015625 6.21875 
Q 42.328125 -1.421875 30.609375 -1.421875 
Q 18.84375 -1.421875 12.171875 6.21875 
Q 5.515625 13.875 5.515625 27.296875 
Q 5.515625 40.765625 12.171875 48.375 
Q 18.84375 56 30.609375 56 
z
" id="DejaVuSans-111"/>
      <path d="M 44.28125 53.078125 
L 44.28125 44.578125 
Q 40.484375 46.53125 36.375 47.5 
Q 32.28125 48.484375 27.875 48.484375 
Q 21.1875 48.484375 17.84375 46.4375 
Q 14.5 44.390625 14.5 40.28125 
Q 14.5 37.15625 16.890625 35.375 
Q 19.28125 33.59375 26.515625 31.984375 
L 29.59375 31.296875 
Q 39.15625 29.25 43.1875 25.515625 
Q 47.21875 21.78125 47.21875 15.09375 
Q 47.21875 7.46875 41.1875 3.015625 
Q 35.15625 -1.421875 24.609375 -1.421875 
Q 20.21875 -1.421875 15.453125 -0.5625 
Q 10.6875 0.296875 5.421875 2 
L 5.421875 11.28125 
Q 10.40625 8.6875 15.234375 7.390625 
Q 20.0625 6.109375 24.8125 6.109375 
Q 31.15625 6.109375 34.5625 8.28125 
Q 37.984375 10.453125 37.984375 14.40625 
Q 37.984375 18.0625 35.515625 20.015625 
Q 33.0625 21.96875 24.703125 23.78125 
L 21.578125 24.515625 
Q 13.234375 26.265625 9.515625 29.90625 
Q 5.8125 33.546875 5.8125 39.890625 
Q 5.8125 47.609375 11.28125 51.796875 
Q 16.75 56 26.8125 56 
Q 31.78125 56 36.171875 55.265625 
Q 40.578125 54.546875 44.28125 53.078125 
z
" id="DejaVuSans-115"/>
      <path d="M 9.421875 54.6875 
L 18.40625 54.6875 
L 18.40625 0 
L 9.421875 0 
z
M 9.421875 75.984375 
L 18.40625 75.984375 
L 18.40625 64.59375 
L 9.421875 64.59375 
z
" id="DejaVuSans-105"/>
      <path d="M 18.3125 70.21875 
L 18.3125 54.6875 
L 36.8125 54.6875 
L 36.8125 47.703125 
L 18.3125 47.703125 
L 18.3125 18.015625 
Q 18.3125 11.328125 20.140625 9.421875 
Q 21.96875 7.515625 27.59375 7.515625 
L 36.8125 7.515625 
L 36.8125 0 
L 27.59375 0 
Q 17.1875 0 13.234375 3.875 
Q 9.28125 7.765625 9.28125 18.015625 
L 9.28125 47.703125 
L 2.6875 47.703125 
L 2.6875 54.6875 
L 9.28125 54.6875 
L 9.28125 70.21875 
z
" id="DejaVuSans-116"/>
      <path d="M 54.890625 33.015625 
L 54.890625 0 
L 45.90625 0 
L 45.90625 32.71875 
Q 45.90625 40.484375 42.875 44.328125 
Q 39.84375 48.1875 33.796875 48.1875 
Q 26.515625 48.1875 22.3125 43.546875 
Q 18.109375 38.921875 18.109375 30.90625 
L 18.109375 0 
L 9.078125 0 
L 9.078125 54.6875 
L 18.109375 54.6875 
L 18.109375 46.1875 
Q 21.34375 51.125 25.703125 53.5625 
Q 30.078125 56 35.796875 56 
Q 45.21875 56 50.046875 50.171875 
Q 54.890625 44.34375 54.890625 33.015625 
z
" id="DejaVuSans-110"/>
      <path id="DejaVuSans-32"/>
      <path d="M 44.390625 34.1875 
Q 47.5625 33.109375 50.5625 29.59375 
Q 53.5625 26.078125 56.59375 19.921875 
L 66.609375 0 
L 56 0 
L 46.6875 18.703125 
Q 43.0625 26.03125 39.671875 28.421875 
Q 36.28125 30.8125 30.421875 30.8125 
L 19.671875 30.8125 
L 19.671875 0 
L 9.8125 0 
L 9.8125 72.90625 
L 32.078125 72.90625 
Q 44.578125 72.90625 50.734375 67.671875 
Q 56.890625 62.453125 56.890625 51.90625 
Q 56.890625 45.015625 53.6875 40.46875 
Q 50.484375 35.9375 44.390625 34.1875 
z
M 19.671875 64.796875 
L 19.671875 38.921875 
L 32.078125 38.921875 
Q 39.203125 38.921875 42.84375 42.21875 
Q 46.484375 45.515625 46.484375 51.90625 
Q 46.484375 58.296875 42.84375 61.546875 
Q 39.203125 64.796875 32.078125 64.796875 
z
" id="DejaVuSans-82"/>
      <path d="M 34.28125 27.484375 
Q 23.390625 27.484375 19.1875 25 
Q 14.984375 22.515625 14.984375 16.5 
Q 14.984375 11.71875 18.140625 8.90625 
Q 21.296875 6.109375 26.703125 6.109375 
Q 34.1875 6.109375 38.703125 11.40625 
Q 43.21875 16.703125 43.21875 25.484375 
L 43.21875 27.484375 
z
M 52.203125 31.203125 
L 52.203125 0 
L 43.21875 0 
L 43.21875 8.296875 
Q 40.140625 3.328125 35.546875 0.953125 
Q 30.953125 -1.421875 24.3125 -1.421875 
Q 15.921875 -1.421875 10.953125 3.296875 
Q 6 8.015625 6 15.921875 
Q 6 25.140625 12.171875 29.828125 
Q 18.359375 34.515625 30.609375 34.515625 
L 43.21875 34.515625 
L 43.21875 35.40625 
Q 43.21875 41.609375 39.140625 45 
Q 35.0625 48.390625 27.6875 48.390625 
Q 23 48.390625 18.546875 47.265625 
Q 14.109375 46.140625 10.015625 43.890625 
L 10.015625 52.203125 
Q 14.9375 54.109375 19.578125 55.046875 
Q 24.21875 56 28.609375 56 
Q 40.484375 56 46.34375 49.84375 
Q 52.203125 43.703125 52.203125 31.203125 
z
" id="DejaVuSans-97"/>
      <path d="M 45.40625 46.390625 
L 45.40625 75.984375 
L 54.390625 75.984375 
L 54.390625 0 
L 45.40625 0 
L 45.40625 8.203125 
Q 42.578125 3.328125 38.25 0.953125 
Q 33.9375 -1.421875 27.875 -1.421875 
Q 17.96875 -1.421875 11.734375 6.484375 
Q 5.515625 14.40625 5.515625 27.296875 
Q 5.515625 40.1875 11.734375 48.09375 
Q 17.96875 56 27.875 56 
Q 33.9375 56 38.25 53.625 
Q 42.578125 51.265625 45.40625 46.390625 
z
M 14.796875 27.296875 
Q 14.796875 17.390625 18.875 11.75 
Q 22.953125 6.109375 30.078125 6.109375 
Q 37.203125 6.109375 41.296875 11.75 
Q 45.40625 17.390625 45.40625 27.296875 
Q 45.40625 37.203125 41.296875 42.84375 
Q 37.203125 48.484375 30.078125 48.484375 
Q 22.953125 48.484375 18.875 42.84375 
Q 14.796875 37.203125 14.796875 27.296875 
z
" id="DejaVuSans-100"/>
     </defs>
     <g transform="translate(102.024844 357.832125)scale(0.3 -0.3)">
      <use xlink:href="#DejaVuSans-80"/>
      <use x="60.255859" xlink:href="#DejaVuSans-111"/>
      <use x="121.4375" xlink:href="#DejaVuSans-115"/>
      <use x="173.537109" xlink:href="#DejaVuSans-105"/>
      <use x="201.320312" xlink:href="#DejaVuSans-116"/>
      <use x="240.529297" xlink:href="#DejaVuSans-105"/>
      <use x="268.3125" xlink:href="#DejaVuSans-111"/>
      <use x="329.494141" xlink:href="#DejaVuSans-110"/>
      <use x="392.873047" xlink:href="#DejaVuSans-32"/>
      <use x="424.660156" xlink:href="#DejaVuSans-105"/>
      <use x="452.443359" xlink:href="#DejaVuSans-110"/>
      <use x="515.822266" xlink:href="#DejaVuSans-32"/>
      <use x="547.609375" xlink:href="#DejaVuSans-82"/>
      <use x="617.060547" xlink:href="#DejaVuSans-97"/>
      <use x="678.339844" xlink:href="#DejaVuSans-100"/>
      <use x="741.816406" xlink:href="#DejaVuSans-105"/>
      <use x="769.599609" xlink:href="#DejaVuSans-97"/>
      <use x="830.878906" xlink:href="#DejaVuSans-110"/>
     </g>
    </g>
   </g>
   <g id="matplotlib.axis_2">
    <g id="ytick_1">
     <g id="line2d_8">
      <defs>
       <path d="M 0 0 
L -3.5 0 
" id="mb680aa3ff3" style="stroke:#000000;stroke-width:0.8;"/>
      </defs>
      <g>
       <use style="stroke:#000000;stroke-width:0.8;" x="57.6" xlink:href="#mb680aa3ff3" y="307.584"/>
      </g>
     </g>
     <g id="text_9">
      <!-- 0.0 -->
      <defs>
       <path d="M 10.6875 12.40625 
L 21 12.40625 
L 21 0 
L 10.6875 0 
z
" id="DejaVuSans-46"/>
      </defs>
      <g transform="translate(23.564687 314.042672)scale(0.17 -0.17)">
       <use xlink:href="#DejaVuSans-48"/>
       <use x="63.623047" xlink:href="#DejaVuSans-46"/>
       <use x="95.410156" xlink:href="#DejaVuSans-48"/>
      </g>
     </g>
    </g>
    <g id="ytick_2">
     <g id="line2d_9">
      <g>
       <use style="stroke:#000000;stroke-width:0.8;" x="57.6" xlink:href="#mb680aa3ff3" y="267.412942"/>
      </g>
     </g>
     <g id="text_10">
      <!-- 0.2 -->
      <g transform="translate(23.564687 273.871614)scale(0.17 -0.17)">
       <use xlink:href="#DejaVuSans-48"/>
       <use x="63.623047" xlink:href="#DejaVuSans-46"/>
       <use x="95.410156" xlink:href="#DejaVuSans-50"/>
      </g>
     </g>
    </g>
    <g id="ytick_3">
     <g id="line2d_10">
      <g>
       <use style="stroke:#000000;stroke-width:0.8;" x="57.6" xlink:href="#mb680aa3ff3" y="227.241885"/>
      </g>
     </g>
     <g id="text_11">
      <!-- 0.4 -->
      <defs>
       <path d="M 37.796875 64.3125 
L 12.890625 25.390625 
L 37.796875 25.390625 
z
M 35.203125 72.90625 
L 47.609375 72.90625 
L 47.609375 25.390625 
L 58.015625 25.390625 
L 58.015625 17.1875 
L 47.609375 17.1875 
L 47.609375 0 
L 37.796875 0 
L 37.796875 17.1875 
L 4.890625 17.1875 
L 4.890625 26.703125 
z
" id="DejaVuSans-52"/>
      </defs>
      <g transform="translate(23.564687 233.700557)scale(0.17 -0.17)">
       <use xlink:href="#DejaVuSans-48"/>
       <use x="63.623047" xlink:href="#DejaVuSans-46"/>
       <use x="95.410156" xlink:href="#DejaVuSans-52"/>
      </g>
     </g>
    </g>
    <g id="ytick_4">
     <g id="line2d_11">
      <g>
       <use style="stroke:#000000;stroke-width:0.8;" x="57.6" xlink:href="#mb680aa3ff3" y="187.070827"/>
      </g>
     </g>
     <g id="text_12">
      <!-- 0.6 -->
      <defs>
       <path d="M 33.015625 40.375 
Q 26.375 40.375 22.484375 35.828125 
Q 18.609375 31.296875 18.609375 23.390625 
Q 18.609375 15.53125 22.484375 10.953125 
Q 26.375 6.390625 33.015625 6.390625 
Q 39.65625 6.390625 43.53125 10.953125 
Q 47.40625 15.53125 47.40625 23.390625 
Q 47.40625 31.296875 43.53125 35.828125 
Q 39.65625 40.375 33.015625 40.375 
z
M 52.59375 71.296875 
L 52.59375 62.3125 
Q 48.875 64.0625 45.09375 64.984375 
Q 41.3125 65.921875 37.59375 65.921875 
Q 27.828125 65.921875 22.671875 59.328125 
Q 17.53125 52.734375 16.796875 39.40625 
Q 19.671875 43.65625 24.015625 45.921875 
Q 28.375 48.1875 33.59375 48.1875 
Q 44.578125 48.1875 50.953125 41.515625 
Q 57.328125 34.859375 57.328125 23.390625 
Q 57.328125 12.15625 50.6875 5.359375 
Q 44.046875 -1.421875 33.015625 -1.421875 
Q 20.359375 -1.421875 13.671875 8.265625 
Q 6.984375 17.96875 6.984375 36.375 
Q 6.984375 53.65625 15.1875 63.9375 
Q 23.390625 74.21875 37.203125 74.21875 
Q 40.921875 74.21875 44.703125 73.484375 
Q 48.484375 72.75 52.59375 71.296875 
z
" id="DejaVuSans-54"/>
      </defs>
      <g transform="translate(23.564687 193.529499)scale(0.17 -0.17)">
       <use xlink:href="#DejaVuSans-48"/>
       <use x="63.623047" xlink:href="#DejaVuSans-46"/>
       <use x="95.410156" xlink:href="#DejaVuSans-54"/>
      </g>
     </g>
    </g>
    <g id="ytick_5">
     <g id="line2d_12">
      <g>
       <use style="stroke:#000000;stroke-width:0.8;" x="57.6" xlink:href="#mb680aa3ff3" y="146.89977"/>
      </g>
     </g>
     <g id="text_13">
      <!-- 0.8 -->
      <defs>
       <path d="M 31.78125 34.625 
Q 24.75 34.625 20.71875 30.859375 
Q 16.703125 27.09375 16.703125 20.515625 
Q 16.703125 13.921875 20.71875 10.15625 
Q 24.75 6.390625 31.78125 6.390625 
Q 38.8125 6.390625 42.859375 10.171875 
Q 46.921875 13.96875 46.921875 20.515625 
Q 46.921875 27.09375 42.890625 30.859375 
Q 38.875 34.625 31.78125 34.625 
z
M 21.921875 38.8125 
Q 15.578125 40.375 12.03125 44.71875 
Q 8.5 49.078125 8.5 55.328125 
Q 8.5 64.0625 14.71875 69.140625 
Q 20.953125 74.21875 31.78125 74.21875 
Q 42.671875 74.21875 48.875 69.140625 
Q 55.078125 64.0625 55.078125 55.328125 
Q 55.078125 49.078125 51.53125 44.71875 
Q 48 40.375 41.703125 38.8125 
Q 48.828125 37.15625 52.796875 32.3125 
Q 56.78125 27.484375 56.78125 20.515625 
Q 56.78125 9.90625 50.3125 4.234375 
Q 43.84375 -1.421875 31.78125 -1.421875 
Q 19.734375 -1.421875 13.25 4.234375 
Q 6.78125 9.90625 6.78125 20.515625 
Q 6.78125 27.484375 10.78125 32.3125 
Q 14.796875 37.15625 21.921875 38.8125 
z
M 18.3125 54.390625 
Q 18.3125 48.734375 21.84375 45.5625 
Q 25.390625 42.390625 31.78125 42.390625 
Q 38.140625 42.390625 41.71875 45.5625 
Q 45.3125 48.734375 45.3125 54.390625 
Q 45.3125 60.0625 41.71875 63.234375 
Q 38.140625 66.40625 31.78125 66.40625 
Q 25.390625 66.40625 21.84375 63.234375 
Q 18.3125 60.0625 18.3125 54.390625 
z
" id="DejaVuSans-56"/>
      </defs>
      <g transform="translate(23.564687 153.358442)scale(0.17 -0.17)">
       <use xlink:href="#DejaVuSans-48"/>
       <use x="63.623047" xlink:href="#DejaVuSans-46"/>
       <use x="95.410156" xlink:href="#DejaVuSans-56"/>
      </g>
     </g>
    </g>
    <g id="ytick_6">
     <g id="line2d_13">
      <g>
       <use style="stroke:#000000;stroke-width:0.8;" x="57.6" xlink:href="#mb680aa3ff3" y="106.728712"/>
      </g>
     </g>
     <g id="text_14">
      <!-- 1.0 -->
      <g transform="translate(23.564687 113.187384)scale(0.17 -0.17)">
       <use xlink:href="#DejaVuSans-49"/>
       <use x="63.623047" xlink:href="#DejaVuSans-46"/>
       <use x="95.410156" xlink:href="#DejaVuSans-48"/>
      </g>
     </g>
    </g>
    <g id="ytick_7">
     <g id="line2d_14">
      <g>
       <use style="stroke:#000000;stroke-width:0.8;" x="57.6" xlink:href="#mb680aa3ff3" y="66.557655"/>
      </g>
     </g>
     <g id="text_15">
      <!-- 1.2 -->
      <g transform="translate(23.564687 73.016327)scale(0.17 -0.17)">
       <use xlink:href="#DejaVuSans-49"/>
       <use x="63.623047" xlink:href="#DejaVuSans-46"/>
       <use x="95.410156" xlink:href="#DejaVuSans-50"/>
      </g>
     </g>
    </g>
    <g id="text_16">
     <!-- Density -->
     <defs>
      <path d="M 19.671875 64.796875 
L 19.671875 8.109375 
L 31.59375 8.109375 
Q 46.6875 8.109375 53.6875 14.9375 
Q 60.6875 21.78125 60.6875 36.53125 
Q 60.6875 51.171875 53.6875 57.984375 
Q 46.6875 64.796875 31.59375 64.796875 
z
M 9.8125 72.90625 
L 30.078125 72.90625 
Q 51.265625 72.90625 61.171875 64.09375 
Q 71.09375 55.28125 71.09375 36.53125 
Q 71.09375 17.671875 61.125 8.828125 
Q 51.171875 0 30.078125 0 
L 9.8125 0 
z
" id="DejaVuSans-68"/>
      <path d="M 56.203125 29.59375 
L 56.203125 25.203125 
L 14.890625 25.203125 
Q 15.484375 15.921875 20.484375 11.0625 
Q 25.484375 6.203125 34.421875 6.203125 
Q 39.59375 6.203125 44.453125 7.46875 
Q 49.3125 8.734375 54.109375 11.28125 
L 54.109375 2.78125 
Q 49.265625 0.734375 44.1875 -0.34375 
Q 39.109375 -1.421875 33.890625 -1.421875 
Q 20.796875 -1.421875 13.15625 6.1875 
Q 5.515625 13.8125 5.515625 26.8125 
Q 5.515625 40.234375 12.765625 48.109375 
Q 20.015625 56 32.328125 56 
Q 43.359375 56 49.78125 48.890625 
Q 56.203125 41.796875 56.203125 29.59375 
z
M 47.21875 32.234375 
Q 47.125 39.59375 43.09375 43.984375 
Q 39.0625 48.390625 32.421875 48.390625 
Q 24.90625 48.390625 20.390625 44.140625 
Q 15.875 39.890625 15.1875 32.171875 
z
" id="DejaVuSans-101"/>
      <path d="M 32.171875 -5.078125 
Q 28.375 -14.84375 24.75 -17.8125 
Q 21.140625 -20.796875 15.09375 -20.796875 
L 7.90625 -20.796875 
L 7.90625 -13.28125 
L 13.1875 -13.28125 
Q 16.890625 -13.28125 18.9375 -11.515625 
Q 21 -9.765625 23.484375 -3.21875 
L 25.09375 0.875 
L 2.984375 54.6875 
L 12.5 54.6875 
L 29.59375 11.921875 
L 46.6875 54.6875 
L 56.203125 54.6875 
z
" id="DejaVuSans-121"/>
     </defs>
     <g transform="translate(13.325625 231.553781)rotate(-90)scale(0.3 -0.3)">
      <use xlink:href="#DejaVuSans-68"/>
      <use x="77.001953" xlink:href="#DejaVuSans-101"/>
      <use x="138.525391" xlink:href="#DejaVuSans-110"/>
      <use x="201.904297" xlink:href="#DejaVuSans-115"/>
      <use x="254.003906" xlink:href="#DejaVuSans-105"/>
      <use x="281.787109" xlink:href="#DejaVuSans-116"/>
      <use x="320.996094" xlink:href="#DejaVuSans-121"/>
     </g>
    </g>
   </g>
   <g id="line2d_15">
    <path clip-path="url(#p4dce690f0f)" d="M 99.382817 305.883992 
L 100.312681 306.792054 
L 100.750264 306.85077 
L 101.172219 306.686142 
L 101.578546 306.281363 
L 102.477154 305.268912 
L 102.750644 305.370153 
L 103.383576 305.960173 
L 104.610372 306.983855 
L 104.938559 306.871623 
L 105.704329 306.524644 
L 106.173168 306.664288 
L 106.727961 306.774778 
L 107.681267 306.753128 
L 108.96276 307.558608 
L 109.595692 307.499829 
L 110.033275 307.244198 
L 110.595882 306.594789 
L 111.064721 306.200173 
L 111.37728 306.213776 
L 112.471238 306.507979 
L 112.783797 306.173953 
L 113.729289 304.956262 
L 113.963708 305.142196 
L 114.401291 305.869437 
L 114.98734 306.704493 
L 115.323341 306.833631 
L 115.698413 306.716995 
L 116.956464 306.195108 
L 117.362791 306.326116 
L 117.917584 306.506501 
L 118.175445 306.31943 
L 118.51926 305.735339 
L 119.261588 304.438999 
L 119.496008 304.419497 
L 119.738241 304.660567 
L 120.761873 305.959283 
L 122.160576 306.079957 
L 122.488763 305.547894 
L 122.988858 304.807192 
L 123.215464 304.808514 
L 123.496767 305.079248 
L 124.97361 306.810675 
L 125.176773 306.605229 
L 125.450262 305.952004 
L 126.341056 303.520798 
L 126.50515 303.622375 
L 126.755198 304.12813 
L 127.442828 305.596327 
L 127.677247 305.641759 
L 127.927295 305.431665 
L 128.802461 304.522059 
L 129.11502 304.616938 
L 130.185536 305.152198 
L 130.459025 304.81734 
L 130.95912 303.747767 
L 131.388889 303.055682 
L 131.615495 303.029351 
L 131.865542 303.268238 
L 132.420335 303.817106 
L 132.654754 303.724593 
L 133.147035 303.176446 
L 133.545548 302.919571 
L 133.84248 302.971083 
L 134.147225 303.273321 
L 134.748901 303.925891 
L 134.912995 303.761252 
L 135.139601 303.141865 
L 135.905371 300.738816 
L 136.038209 300.898009 
L 136.257 301.619677 
L 136.936817 304.059005 
L 137.077468 304.023278 
L 137.249376 303.670879 
L 137.554121 302.418968 
L 138.538683 298.021347 
L 138.890312 297.533068 
L 139.202871 297.419797 
L 139.398221 297.57785 
L 139.617012 298.097683 
L 139.992084 299.715602 
L 140.492178 301.580287 
L 140.820366 302.041163 
L 141.125111 302.124612 
L 141.55488 301.965886 
L 141.843997 301.97697 
L 142.094045 302.248068 
L 142.742605 303.051915 
L 142.930141 302.905882 
L 143.2427 302.300601 
L 143.711539 301.5139 
L 143.945959 301.489089 
L 144.28196 301.748473 
L 144.657031 301.931007 
L 144.907079 301.802707 
L 145.235266 301.336679 
L 146.141688 299.908226 
L 146.337037 300.014486 
L 146.633969 300.506066 
L 147.04811 301.092565 
L 147.227831 301.029633 
L 147.454437 300.643457 
L 148.274905 299.043564 
L 149.220397 298.415749 
L 149.517328 298.408714 
L 150.259656 298.595697 
L 150.525332 298.160604 
L 151.173892 297.025092 
L 151.361428 297.079657 
L 151.611475 297.443254 
L 152.619479 299.13052 
L 153.166458 299.741244 
L 153.338365 299.627591 
L 153.549343 299.153929 
L 153.932228 297.608267 
L 154.823022 294.048851 
L 155.377815 292.722759 
L 155.815398 292.156054 
L 156.049817 292.149113 
L 156.268609 292.411292 
L 156.596796 293.24029 
L 157.40945 295.388311 
L 157.729824 295.644817 
L 158.52685 296.000742 
L 159.128526 296.524388 
L 159.378574 296.432769 
L 159.816157 295.947743 
L 160.284996 295.581973 
L 160.667881 295.258764 
L 160.956998 294.641493 
L 161.668071 292.320177 
L 162.847982 288.441423 
L 163.535612 284.601033 
L 163.988823 282.728208 
L 164.262313 282.348019 
L 164.51236 282.359446 
L 164.856175 282.352756 
L 165.535992 282.086461 
L 165.762597 282.565735 
L 167.262882 287.179821 
L 167.841117 288.932443 
L 168.153676 289.244372 
L 168.950702 289.51076 
L 169.12261 289.304512 
L 169.333587 288.637381 
L 169.653961 286.72696 
L 170.419731 282.001818 
L 170.716662 281.395892 
L 170.935454 281.349707 
L 171.279269 281.589524 
L 171.560572 281.656368 
L 171.794992 281.453901 
L 172.42011 280.448663 
L 172.6936 279.659548 
L 172.982717 278.003422 
L 173.725045 273.412724 
L 173.842255 273.375258 
L 173.865697 273.398022 
L 174.014163 273.753947 
L 174.311094 275.209903 
L 174.756491 277.109816 
L 174.944027 277.228226 
L 175.100306 277.018636 
L 175.498819 275.94912 
L 175.905146 275.179456 
L 176.194264 275.034236 
L 176.452125 275.164554 
L 176.905336 275.418244 
L 177.06943 275.18765 
L 177.296035 274.394657 
L 177.694548 271.995871 
L 178.202457 267.680953 
L 178.694738 261.034171 
L 179.124507 256.40291 
L 179.319857 255.898138 
L 179.327671 255.901098 
L 179.429253 256.08945 
L 179.616788 257.072165 
L 179.999673 260.594441 
L 180.546652 265.096866 
L 180.812327 265.796747 
L 180.992049 265.801035 
L 181.40619 265.41651 
L 181.710935 264.965545 
L 181.968797 264.062481 
L 182.554845 261.816498 
L 182.562659 261.81865 
L 182.664241 261.979651 
L 182.836149 262.812802 
L 183.195592 266.021151 
L 183.578477 268.625527 
L 183.742571 268.842243 
L 183.758199 268.835561 
L 183.891036 268.633033 
L 184.438015 267.595367 
L 184.445829 267.599032 
L 184.625551 267.819815 
L 185.000622 268.254021 
L 185.149088 268.087215 
L 185.422577 267.322769 
L 185.774206 266.563309 
L 185.914858 266.62511 
L 186.094579 267.062076 
L 186.414953 268.575347 
L 187.040071 271.436499 
L 187.235421 271.580829 
L 187.383887 271.387776 
L 187.680818 270.517763 
L 188.907613 266.017293 
L 189.407708 263.991311 
L 189.759337 263.383016 
L 190.282874 263.001481 
L 190.806411 262.726448 
L 190.978318 262.942667 
L 191.212738 263.690758 
L 192.04102 266.818538 
L 192.048834 266.816565 
L 192.181672 266.655914 
L 192.408277 265.933127 
L 193.322513 262.677922 
L 194.166423 260.737027 
L 194.299261 260.87036 
L 194.486796 261.477521 
L 194.88531 263.801072 
L 195.166613 264.763039 
L 195.260381 264.678614 
L 195.401032 264.085096 
L 195.65108 261.812873 
L 196.237129 256.407688 
L 196.346524 256.270675 
L 196.385594 256.301618 
L 196.518432 256.667472 
L 197.323272 259.49377 
L 197.682715 259.766572 
L 197.964019 260.452018 
L 198.362532 261.271568 
L 198.503183 261.203321 
L 198.682905 260.772825 
L 199.042348 259.160301 
L 199.526815 257.314111 
L 199.83156 256.908712 
L 200.18319 256.81693 
L 200.839564 256.726541 
L 201.034914 256.228137 
L 201.316217 254.779197 
L 202.081987 250.571823 
L 202.308593 250.323628 
L 202.488314 250.436528 
L 202.902455 250.757506 
L 203.035293 250.495478 
L 203.230643 249.492466 
L 203.55883 246.327296 
L 204.012041 242.498823 
L 204.160507 242.255112 
L 204.183949 242.268965 
L 204.301158 242.525951 
L 204.543392 243.749034 
L 205.199766 247.091652 
L 205.567023 247.854502 
L 205.926467 248.128057 
L 206.239026 248.133512 
L 206.426561 247.890119 
L 206.637539 247.157535 
L 206.93447 245.145447 
L 207.575217 240.719226 
L 207.809636 240.348921 
L 207.989358 240.412314 
L 208.255033 240.800378 
L 208.551965 241.659484 
L 208.981734 243.779165 
L 209.317735 244.945372 
L 209.419317 244.936357 
L 209.434945 244.915295 
L 209.567782 244.511881 
L 209.794388 242.930317 
L 210.575786 236.739005 
L 210.669554 236.835085 
L 210.841462 237.495045 
L 211.325928 239.431676 
L 211.42751 239.337267 
L 211.591604 238.740706 
L 211.935419 236.41512 
L 212.841841 230.32155 
L 213.670123 226.314887 
L 214.467149 219.350721 
L 214.725011 219.085421 
L 214.88129 218.755453 
L 215.068826 217.724941 
L 215.381385 214.437413 
L 215.818968 210.405102 
L 215.897108 210.296997 
L 215.943992 210.358323 
L 216.061202 210.936871 
L 216.272179 213.388094 
L 217.280183 227.164097 
L 217.592742 228.007129 
L 217.936557 228.395222 
L 218.077209 228.301636 
L 218.249117 227.823693 
L 218.514792 226.266828 
L 220.593311 211.708802 
L 220.616753 211.716733 
L 220.733963 211.919974 
L 220.921499 212.797912 
L 221.21843 215.459173 
L 222.038898 223.450858 
L 222.132666 223.526148 
L 222.171736 223.490145 
L 222.304574 223.111139 
L 222.632761 221.257203 
L 222.968762 219.944365 
L 223.078158 219.925565 
L 223.1016 219.951758 
L 223.242251 220.329946 
L 223.484485 221.775292 
L 224.476861 228.888269 
L 224.508117 228.874009 
L 224.617512 228.615381 
L 224.797234 227.472445 
L 225.101979 223.806682 
L 225.703656 216.695604 
L 225.883378 216.277814 
L 225.899005 216.283935 
L 226.008401 216.482966 
L 226.250635 217.542819 
L 226.883567 220.233323 
L 227.36022 222.496169 
L 227.750919 223.934356 
L 227.891571 223.977259 
L 227.907199 223.963161 
L 228.055665 223.648355 
L 228.329154 222.402122 
L 228.790179 220.45917 
L 228.891761 220.446609 
L 228.915203 220.473537 
L 229.063668 220.886708 
L 229.540321 222.772532 
L 229.610647 222.671405 
L 229.735671 222.004771 
L 229.946648 219.384892 
L 230.923396 204.848366 
L 231.017164 204.913678 
L 231.368793 205.675986 
L 231.454747 205.498384 
L 231.595399 204.497419 
L 231.806376 201.018951 
L 232.220517 189.35298 
L 232.57996 182.122821 
L 232.689356 181.700312 
L 232.728426 181.775945 
L 232.837822 182.586749 
L 233.056613 186.369582 
L 234.54127 217.076274 
L 234.611596 217.284375 
L 234.65848 217.160077 
L 234.760061 215.974091 
L 234.916341 210.908963 
L 235.127319 195.575234 
L 235.42425 154.53645 
L 236.104066 55.082794 
L 236.166578 54.144 
L 236.213462 54.786315 
L 236.322858 60.562069 
L 236.549463 87.598971 
L 237.276164 180.718005 
L 237.565281 191.650711 
L 237.791887 193.810161 
L 237.901282 193.926272 
L 237.940352 193.896915 
L 238.159144 193.48525 
L 238.682681 192.144978 
L 238.9171 190.337466 
L 239.596917 183.487494 
L 239.667242 183.62524 
L 239.792266 184.598806 
L 240.011058 188.412684 
L 241.292551 215.064884 
L 241.589482 216.643067 
L 241.745762 216.764057 
L 241.76139 216.754106 
L 241.917669 216.496565 
L 242.394322 215.649122 
L 242.534974 215.819804 
L 243.058511 216.957452 
L 243.144465 216.839209 
L 243.308558 216.174705 
L 243.644559 213.584887 
L 243.988375 211.653915 
L 244.089956 211.586852 
L 244.121212 211.617406 
L 244.25405 211.989236 
L 244.550981 213.706414 
L 244.94168 215.503626 
L 245.051076 215.559699 
L 245.082332 215.530668 
L 245.21517 215.184635 
L 245.449589 213.817108 
L 246.004382 210.547009 
L 246.090336 210.619621 
L 246.223174 211.217453 
L 246.449779 213.504181 
L 247.62969 227.473657 
L 248.004762 229.117711 
L 248.215739 229.317004 
L 248.379833 229.142017 
L 248.770532 228.681155 
L 248.778346 228.686023 
L 248.911183 228.909106 
L 249.129975 229.82038 
L 249.74728 232.540124 
L 249.997327 232.724336 
L 250.692771 232.77523 
L 250.888121 232.3579 
L 251.153796 231.144647 
L 251.607007 227.760417 
L 252.060218 224.994634 
L 252.263382 224.735645 
L 252.39622 224.900598 
L 252.990082 226.089278 
L 253.060408 226.022387 
L 253.24013 225.56688 
L 253.935574 223.319345 
L 253.974644 223.344954 
L 254.115296 223.653928 
L 254.341901 224.817378 
L 255.123299 229.39798 
L 255.131113 229.396514 
L 255.232695 229.250761 
L 255.420231 228.464084 
L 255.920326 226.291168 
L 256.021907 226.376917 
L 256.178187 226.945292 
L 257.053353 230.87562 
L 257.522192 231.122984 
L 258.076985 232.041293 
L 258.131683 231.984859 
L 258.287962 231.550955 
L 258.561452 229.960753 
L 259.022477 227.485535 
L 259.116244 227.43538 
L 259.155314 227.477362 
L 259.288152 227.894625 
L 259.530385 229.589403 
L 260.772809 239.734837 
L 260.95253 239.839782 
L 261.132252 239.601188 
L 261.608905 238.939599 
L 261.898022 238.992916 
L 262.132442 238.934683 
L 262.343419 238.5926 
L 262.663792 237.550988 
L 263.312353 235.438752 
L 263.476447 235.431978 
L 263.64054 235.7436 
L 263.960913 236.972113 
L 264.328171 238.06512 
L 264.468822 238.048901 
L 264.625102 237.675054 
L 264.882963 236.332004 
L 265.687804 231.712502 
L 265.781571 231.795512 
L 265.930037 232.352459 
L 266.21134 234.494086 
L 266.609853 237.050955 
L 266.672365 237.077548 
L 266.711435 237.021704 
L 266.836459 236.459903 
L 267.063064 234.134562 
L 267.727253 226.866403 
L 267.899161 226.618524 
L 267.906975 226.621768 
L 268.047626 226.815768 
L 268.461767 227.411366 
L 268.625861 227.261496 
L 269.024374 226.840335 
L 269.032188 226.845819 
L 269.165026 227.083963 
L 269.368189 228.029402 
L 269.696377 230.859671 
L 270.462147 237.626289 
L 270.680938 238.049979 
L 270.798148 237.934256 
L 271.001312 237.317853 
L 271.985873 233.857215 
L 272.251549 233.55975 
L 272.376572 233.68416 
L 272.54848 234.276542 
L 272.806341 236.155779 
L 273.564298 242.186595 
L 273.673694 242.247675 
L 273.704949 242.22032 
L 273.861229 241.851145 
L 274.290998 240.682593 
L 274.31444 240.694444 
L 274.423836 240.933855 
L 274.603557 242.033681 
L 274.923931 245.729559 
L 275.400584 250.568815 
L 275.556863 250.887136 
L 275.580305 250.873035 
L 275.689701 250.619827 
L 275.92412 249.337521 
L 276.557053 245.814448 
L 276.955566 244.870821 
L 277.221242 244.672872 
L 277.393149 244.814195 
L 277.619755 245.363001 
L 277.96357 246.869213 
L 279.112225 252.504572 
L 279.354459 252.521067 
L 279.643576 252.580888 
L 279.877996 252.922662 
L 280.510928 254.096751 
L 280.549998 254.064976 
L 280.69065 253.746408 
L 280.917255 252.543812 
L 281.940887 246.111914 
L 282.331586 245.431094 
L 282.519122 245.413222 
L 282.683215 245.68348 
L 282.933263 246.631977 
L 283.495869 248.803227 
L 283.605265 248.742704 
L 283.753731 248.281486 
L 284.02722 246.504525 
L 284.535129 243.35129 
L 284.644525 243.25727 
L 284.683595 243.292965 
L 284.816432 243.680836 
L 285.058666 245.270693 
L 285.824436 250.732825 
L 286.019786 250.947489 
L 286.152623 250.776682 
L 286.363601 250.037909 
L 286.723044 247.79097 
L 287.230953 244.935105 
L 287.387233 244.785268 
L 287.40286 244.794606 
L 287.535698 245.042649 
L 287.770118 246.086849 
L 288.348352 250.040464 
L 289.090681 254.609381 
L 289.348542 255.132264 
L 289.489194 255.071736 
L 289.684543 254.646841 
L 290.465942 252.491681 
L 290.505011 252.516429 
L 290.645663 252.798321 
L 290.864455 253.844061 
L 291.262968 257.105959 
L 291.833388 261.283964 
L 292.114692 262.007617 
L 292.286599 262.017672 
L 292.481949 261.740981 
L 292.825764 260.791182 
L 293.990048 257.252704 
L 294.419817 256.894063 
L 294.607352 256.955449 
L 294.77926 257.311375 
L 294.998051 258.383015 
L 295.334053 261.384299 
L 295.951357 266.740193 
L 296.209219 267.39845 
L 296.373312 267.382091 
L 296.599918 267.043091 
L 297.053129 266.409242 
L 297.201594 266.528944 
L 297.396944 267.061659 
L 297.834527 269.157808 
L 298.139272 270.045127 
L 298.27211 270.025587 
L 298.42839 269.662463 
L 298.701879 268.3182 
L 299.420765 264.624683 
L 299.545789 264.593019 
L 299.561417 264.608439 
L 299.702069 264.935908 
L 299.95993 266.254594 
L 300.678816 270.116783 
L 300.936678 270.485251 
L 301.1164 270.434624 
L 301.413331 270.035627 
L 301.772774 269.68578 
L 301.991566 269.766944 
L 302.476032 270.006815 
L 302.718266 269.782023 
L 303.226175 269.301983 
L 303.757526 269.083061 
L 304.054457 268.479498 
L 304.507668 267.651076 
L 304.679575 267.689511 
L 304.882739 268.043477 
L 305.281252 269.328399 
L 305.703207 270.391942 
L 305.906371 270.460722 
L 306.093906 270.240986 
L 306.41428 269.421524 
L 307.531679 265.642084 
L 307.969262 264.288888 
L 308.1021 264.285912 
L 308.109914 264.294305 
L 308.258379 264.640816 
L 308.508427 265.927919 
L 309.242941 269.97056 
L 310.039967 272.377307 
L 311.032343 277.482958 
L 311.212065 277.476563 
L 311.727788 277.270611 
L 311.962207 277.602204 
L 312.39979 278.1876 
L 312.55607 278.072026 
L 312.774861 277.544542 
L 313.806307 274.518609 
L 313.814121 274.521495 
L 313.9704 274.707579 
L 314.267332 275.527107 
L 314.564263 276.077057 
L 314.673659 275.971773 
L 314.837753 275.396651 
L 315.134684 273.318995 
L 315.595709 270.437544 
L 315.720733 270.316302 
L 315.751988 270.340137 
L 315.884826 270.660974 
L 316.158316 272.086706 
L 316.650596 274.432822 
L 316.838132 274.596817 
L 316.845946 274.592492 
L 316.978784 274.376377 
L 317.181947 273.515807 
L 317.510134 270.948584 
L 318.041485 267.030829 
L 318.158695 266.900649 
L 318.189951 266.928301 
L 318.314975 267.289474 
L 318.565022 268.911301 
L 319.026047 271.651243 
L 319.151071 271.746829 
L 319.182327 271.722327 
L 319.330792 271.392352 
L 319.987167 269.642418 
L 320.143447 269.810201 
L 320.729495 270.594791 
L 320.963915 270.362291 
L 321.206148 270.245641 
L 321.3468 270.479152 
L 321.549963 271.349478 
L 322.339176 275.437477 
L 322.362617 275.428694 
L 322.487641 275.220809 
L 322.745503 274.209816 
L 323.15183 272.840339 
L 323.308109 272.819625 
L 323.480017 273.126812 
L 324.558347 276.213617 
L 325.136581 277.918342 
L 325.285047 277.877604 
L 325.785142 277.360481 
L 325.847654 277.444675 
L 326.035189 278.00976 
L 326.871285 281.048897 
L 327.004123 280.903347 
L 327.207287 280.263386 
L 327.535474 278.337502 
L 328.277802 273.819418 
L 328.44971 273.679275 
L 328.457524 273.683727 
L 328.598175 273.904227 
L 328.902921 274.944584 
L 329.301434 276.032699 
L 329.574923 276.207153 
L 329.824971 276.404052 
L 330.028134 276.940983 
L 330.325066 278.500967 
L 331.254929 283.803838 
L 331.973816 286.341815 
L 332.302003 286.774773 
L 332.723958 287.244262 
L 332.997447 288.042698 
L 333.544426 290.604774 
L 333.927311 291.790035 
L 334.200801 292.034068 
L 334.521174 291.993663 
L 335.013455 291.954834 
L 335.271316 292.175123 
L 335.55262 292.753665 
L 335.935505 294.142624 
L 336.591879 296.475243 
L 336.763787 296.528614 
L 336.912253 296.287085 
L 337.154486 295.376052 
L 338.021838 291.715592 
L 338.225002 291.662975 
L 338.529747 291.913588 
L 338.81105 292.015136 
L 339.014214 291.830592 
L 339.412727 291.040384 
L 339.678402 290.782804 
L 339.826868 290.929958 
L 340.037846 291.5407 
L 340.561382 294.032722 
L 340.975523 295.396131 
L 341.217757 295.611696 
L 341.397478 295.48271 
L 341.717852 294.870392 
L 342.100737 294.312439 
L 342.327342 294.324455 
L 342.929019 294.505266 
L 343.22595 294.200823 
L 344.202698 293.091912 
L 344.827817 292.20537 
L 345.241958 291.763878 
L 345.413865 291.850661 
L 345.601401 292.259115 
L 345.87489 293.485841 
L 346.79694 298.095878 
L 347.015732 298.215565 
L 347.437687 298.282553 
L 347.64085 298.735638 
L 348.008108 300.266799 
L 348.398807 301.526033 
L 348.5629 301.567935 
L 348.71918 301.303243 
L 348.992669 300.292124 
L 350.055371 295.954082 
L 350.461698 295.161137 
L 350.672676 295.110907 
L 350.868025 295.331026 
L 351.227468 296.178763 
L 351.610353 296.856458 
L 351.805703 296.845481 
L 352.040122 296.544915 
L 352.673055 295.66759 
L 352.852777 295.746292 
L 353.063754 296.138198 
L 353.407569 297.358799 
L 353.962362 299.167433 
L 354.337433 299.631755 
L 355.064134 300.163753 
L 355.282925 300.000649 
L 355.712694 299.284967 
L 356.158091 298.771317 
L 356.50972 298.305775 
L 357.252049 297.084893 
L 357.259863 297.089374 
L 357.439584 297.331376 
L 358.181913 298.592684 
L 358.385076 298.392267 
L 359.018009 297.663306 
L 359.43215 297.714725 
L 359.721267 297.607915 
L 360.698015 296.997818 
L 361.956066 297.016182 
L 362.268625 296.571544 
L 362.854674 295.750113 
L 363.464165 295.482306 
L 363.745468 295.495712 
L 363.948632 295.762266 
L 364.222121 296.567527 
L 364.800356 299.200315 
L 365.605196 302.492788 
L 365.917755 303.018226 
L 366.120919 303.02379 
L 366.370966 302.757024 
L 366.933573 302.131316 
L 367.152364 302.218064 
L 367.855623 302.687637 
L 368.129112 302.367671 
L 368.511997 302.008467 
L 368.699533 302.111613 
L 368.973022 302.586527 
L 369.574699 303.644315 
L 369.824746 303.673859 
L 370.582703 303.525517 
L 371.145309 303.720984 
L 371.410985 303.511682 
L 371.825126 302.846505 
L 372.864385 300.850591 
L 372.864385 300.850591 
" style="fill:none;stroke:#ff7f0e;stroke-linecap:square;stroke-width:1.5;"/>
   </g>
   <g id="patch_103">
    <path d="M 57.6 307.584 
L 57.6 41.472 
" style="fill:none;stroke:#000000;stroke-linecap:square;stroke-linejoin:miter;stroke-width:0.8;"/>
   </g>
   <g id="patch_104">
    <path d="M 414.72 307.584 
L 414.72 41.472 
" style="fill:none;stroke:#000000;stroke-linecap:square;stroke-linejoin:miter;stroke-width:0.8;"/>
   </g>
   <g id="patch_105">
    <path d="M 57.6 307.584 
L 414.72 307.584 
" style="fill:none;stroke:#000000;stroke-linecap:square;stroke-linejoin:miter;stroke-width:0.8;"/>
   </g>
   <g id="patch_106">
    <path d="M 57.6 41.472 
L 414.72 41.472 
" style="fill:none;stroke:#000000;stroke-linecap:square;stroke-linejoin:miter;stroke-width:0.8;"/>
   </g>
  </g>
 </g>
 <defs>
  <clipPath id="p4dce690f0f">
   <rect height="266.112" width="357.12" x="57.6" y="41.472"/>
  </clipPath>
 </defs>
</svg>
