<?xml version="1.0" encoding="utf-8" standalone="no"?>
<!DOCTYPE svg PUBLIC "-//W3C//DTD SVG 1.1//EN"
  "http://www.w3.org/Graphics/SVG/1.1/DTD/svg11.dtd">
<!-- Created with matplotlib (https://matplotlib.org/) -->
<svg height="345.6pt" version="1.1" viewBox="0 0 460.8 345.6" width="460.8pt" xmlns="http://www.w3.org/2000/svg" xmlns:xlink="http://www.w3.org/1999/xlink">
 <defs>
  <style type="text/css">
*{stroke-linecap:butt;stroke-linejoin:round;}
  </style>
 </defs>
 <g id="figure_1">
  <g id="patch_1">
   <path d="M 0 345.6 
L 460.8 345.6 
L 460.8 0 
L 0 0 
z
" style="fill:#ffffff;"/>
  </g>
  <g id="axes_1">
   <g id="patch_2">
    <path d="M 57.6 307.584 
L 414.72 307.584 
L 414.72 41.472 
L 57.6 41.472 
z
" style="fill:#ffffff;"/>
   </g>
   <g id="patch_3">
    <path clip-path="url(#pcfefdb306d)" d="M 73.832727 307.584 
L 77.079269 307.584 
L 77.079269 307.078112 
L 73.832727 307.078112 
z
" style="fill:#1f77b4;"/>
   </g>
   <g id="patch_4">
    <path clip-path="url(#pcfefdb306d)" d="M 77.079269 307.584 
L 80.325823 307.584 
L 80.325823 307.078114 
L 77.079269 307.078114 
z
" style="fill:#1f77b4;"/>
   </g>
   <g id="patch_5">
    <path clip-path="url(#pcfefdb306d)" d="M 80.325836 307.584 
L 83.572378 307.584 
L 83.572378 307.078112 
L 80.325836 307.078112 
z
" style="fill:#1f77b4;"/>
   </g>
   <g id="patch_6">
    <path clip-path="url(#pcfefdb306d)" d="M 83.572365 307.584 
L 86.818906 307.584 
L 86.818906 307.078112 
L 83.572365 307.078112 
z
" style="fill:#1f77b4;"/>
   </g>
   <g id="patch_7">
    <path clip-path="url(#pcfefdb306d)" d="M 86.818919 307.584 
L 90.06546 307.584 
L 90.06546 306.909483 
L 86.818919 306.909483 
z
" style="fill:#1f77b4;"/>
   </g>
   <g id="patch_8">
    <path clip-path="url(#pcfefdb306d)" d="M 90.065447 307.584 
L 93.312002 307.584 
L 93.312002 306.4036 
L 90.065447 306.4036 
z
" style="fill:#1f77b4;"/>
   </g>
   <g id="patch_9">
    <path clip-path="url(#pcfefdb306d)" d="M 93.312002 307.584 
L 96.558543 307.584 
L 96.558543 305.729078 
L 93.312002 305.729078 
z
" style="fill:#1f77b4;"/>
   </g>
   <g id="patch_10">
    <path clip-path="url(#pcfefdb306d)" d="M 96.558556 307.584 
L 99.805098 307.584 
L 99.805098 305.729078 
L 96.558556 305.729078 
z
" style="fill:#1f77b4;"/>
   </g>
   <g id="patch_11">
    <path clip-path="url(#pcfefdb306d)" d="M 99.805085 307.584 
L 103.051639 307.584 
L 103.051639 306.066342 
L 99.805085 306.066342 
z
" style="fill:#1f77b4;"/>
   </g>
   <g id="patch_12">
    <path clip-path="url(#pcfefdb306d)" d="M 103.051639 307.584 
L 106.298181 307.584 
L 106.298181 306.403595 
L 103.051639 306.403595 
z
" style="fill:#1f77b4;"/>
   </g>
   <g id="patch_13">
    <path clip-path="url(#pcfefdb306d)" d="M 106.298194 307.584 
L 109.544735 307.584 
L 109.544735 306.740853 
L 106.298194 306.740853 
z
" style="fill:#1f77b4;"/>
   </g>
   <g id="patch_14">
    <path clip-path="url(#pcfefdb306d)" d="M 109.544722 307.584 
L 112.791276 307.584 
L 112.791276 306.234971 
L 109.544722 306.234971 
z
" style="fill:#1f77b4;"/>
   </g>
   <g id="patch_15">
    <path clip-path="url(#pcfefdb306d)" d="M 112.791276 307.584 
L 116.037818 307.584 
L 116.037818 306.066336 
L 112.791276 306.066336 
z
" style="fill:#1f77b4;"/>
   </g>
   <g id="patch_16">
    <path clip-path="url(#pcfefdb306d)" d="M 116.037831 307.584 
L 119.284372 307.584 
L 119.284372 305.560448 
L 116.037831 305.560448 
z
" style="fill:#1f77b4;"/>
   </g>
   <g id="patch_17">
    <path clip-path="url(#pcfefdb306d)" d="M 119.284359 307.584 
L 122.530914 307.584 
L 122.530914 305.560456 
L 119.284359 305.560456 
z
" style="fill:#1f77b4;"/>
   </g>
   <g id="patch_18">
    <path clip-path="url(#pcfefdb306d)" d="M 122.530914 307.584 
L 125.777455 307.584 
L 125.777455 305.560448 
L 122.530914 305.560448 
z
" style="fill:#1f77b4;"/>
   </g>
   <g id="patch_19">
    <path clip-path="url(#pcfefdb306d)" d="M 125.777455 307.584 
L 129.023996 307.584 
L 129.023996 303.705526 
L 125.777455 303.705526 
z
" style="fill:#1f77b4;"/>
   </g>
   <g id="patch_20">
    <path clip-path="url(#pcfefdb306d)" d="M 129.023996 307.584 
L 132.270544 307.584 
L 132.270544 303.368276 
L 129.023996 303.368276 
z
" style="fill:#1f77b4;"/>
   </g>
   <g id="patch_21">
    <path clip-path="url(#pcfefdb306d)" d="M 132.270544 307.584 
L 135.517086 307.584 
L 135.517086 302.525121 
L 132.270544 302.525121 
z
" style="fill:#1f77b4;"/>
   </g>
   <g id="patch_22">
    <path clip-path="url(#pcfefdb306d)" d="M 135.517079 307.584 
L 138.763627 307.584 
L 138.763627 300.332954 
L 135.517079 300.332954 
z
" style="fill:#1f77b4;"/>
   </g>
   <g id="patch_23">
    <path clip-path="url(#pcfefdb306d)" d="M 138.763634 307.584 
L 142.010182 307.584 
L 142.010182 299.489809 
L 138.763634 299.489809 
z
" style="fill:#1f77b4;"/>
   </g>
   <g id="patch_24">
    <path clip-path="url(#pcfefdb306d)" d="M 142.010182 307.584 
L 145.256723 307.584 
L 145.256723 301.681974 
L 142.010182 301.681974 
z
" style="fill:#1f77b4;"/>
   </g>
   <g id="patch_25">
    <path clip-path="url(#pcfefdb306d)" d="M 145.256717 307.584 
L 148.503265 307.584 
L 148.503265 298.478035 
L 145.256717 298.478035 
z
" style="fill:#1f77b4;"/>
   </g>
   <g id="patch_26">
    <path clip-path="url(#pcfefdb306d)" d="M 148.503271 307.584 
L 151.749812 307.584 
L 151.749812 297.8035 
L 148.503271 297.8035 
z
" style="fill:#1f77b4;"/>
   </g>
   <g id="patch_27">
    <path clip-path="url(#pcfefdb306d)" d="M 151.749812 307.584 
L 154.99636 307.584 
L 154.99636 297.129004 
L 151.749812 297.129004 
z
" style="fill:#1f77b4;"/>
   </g>
   <g id="patch_28">
    <path clip-path="url(#pcfefdb306d)" d="M 154.996354 307.584 
L 158.242902 307.584 
L 158.242902 293.587795 
L 154.996354 293.587795 
z
" style="fill:#1f77b4;"/>
   </g>
   <g id="patch_29">
    <path clip-path="url(#pcfefdb306d)" d="M 158.242908 307.584 
L 161.48945 307.584 
L 161.48945 292.238733 
L 158.242908 292.238733 
z
" style="fill:#1f77b4;"/>
   </g>
   <g id="patch_30">
    <path clip-path="url(#pcfefdb306d)" d="M 161.48945 307.584 
L 164.735998 307.584 
L 164.735998 284.481831 
L 161.48945 284.481831 
z
" style="fill:#1f77b4;"/>
   </g>
   <g id="patch_31">
    <path clip-path="url(#pcfefdb306d)" d="M 164.735998 307.584 
L 167.982539 307.584 
L 167.982539 283.470008 
L 164.735998 283.470008 
z
" style="fill:#1f77b4;"/>
   </g>
   <g id="patch_32">
    <path clip-path="url(#pcfefdb306d)" d="M 167.982533 307.584 
L 171.22908 307.584 
L 171.22908 285.493605 
L 167.982533 285.493605 
z
" style="fill:#1f77b4;"/>
   </g>
   <g id="patch_33">
    <path clip-path="url(#pcfefdb306d)" d="M 171.229087 307.584 
L 174.475635 307.584 
L 174.475635 277.736672 
L 171.229087 277.736672 
z
" style="fill:#1f77b4;"/>
   </g>
   <g id="patch_34">
    <path clip-path="url(#pcfefdb306d)" d="M 174.475635 307.584 
L 177.722176 307.584 
L 177.722176 277.736612 
L 174.475635 277.736612 
z
" style="fill:#1f77b4;"/>
   </g>
   <g id="patch_35">
    <path clip-path="url(#pcfefdb306d)" d="M 177.72217 307.584 
L 180.968718 307.584 
L 180.968718 265.089499 
L 177.72217 265.089499 
z
" style="fill:#1f77b4;"/>
   </g>
   <g id="patch_36">
    <path clip-path="url(#pcfefdb306d)" d="M 180.968724 307.584 
L 184.215269 307.584 
L 184.215269 266.775748 
L 180.968724 266.775748 
z
" style="fill:#1f77b4;"/>
   </g>
   <g id="patch_37">
    <path clip-path="url(#pcfefdb306d)" d="M 184.215272 307.584 
L 187.461817 307.584 
L 187.461817 270.316959 
L 184.215272 270.316959 
z
" style="fill:#1f77b4;"/>
   </g>
   <g id="patch_38">
    <path clip-path="url(#pcfefdb306d)" d="M 187.461814 307.584 
L 190.708358 307.584 
L 190.708358 267.281635 
L 187.461814 267.281635 
z
" style="fill:#1f77b4;"/>
   </g>
   <g id="patch_39">
    <path clip-path="url(#pcfefdb306d)" d="M 190.708362 307.584 
L 193.954906 307.584 
L 193.954906 265.258085 
L 190.708362 265.258085 
z
" style="fill:#1f77b4;"/>
   </g>
   <g id="patch_40">
    <path clip-path="url(#pcfefdb306d)" d="M 193.954903 307.584 
L 197.201451 307.584 
L 197.201451 264.92087 
L 193.954903 264.92087 
z
" style="fill:#1f77b4;"/>
   </g>
   <g id="patch_41">
    <path clip-path="url(#pcfefdb306d)" d="M 197.201451 307.584 
L 200.447996 307.584 
L 200.447996 261.885502 
L 197.201451 261.885502 
z
" style="fill:#1f77b4;"/>
   </g>
   <g id="patch_42">
    <path clip-path="url(#pcfefdb306d)" d="M 200.447999 307.584 
L 203.694543 307.584 
L 203.694543 257.332516 
L 200.447999 257.332516 
z
" style="fill:#1f77b4;"/>
   </g>
   <g id="patch_43">
    <path clip-path="url(#pcfefdb306d)" d="M 203.69454 307.584 
L 206.941085 307.584 
L 206.941085 249.575575 
L 203.69454 249.575575 
z
" style="fill:#1f77b4;"/>
   </g>
   <g id="patch_44">
    <path clip-path="url(#pcfefdb306d)" d="M 206.941085 307.584 
L 210.187631 307.584 
L 210.187631 242.999071 
L 206.941085 242.999071 
z
" style="fill:#1f77b4;"/>
   </g>
   <g id="patch_45">
    <path clip-path="url(#pcfefdb306d)" d="M 210.187631 307.584 
L 213.434176 307.584 
L 213.434176 235.747985 
L 210.187631 235.747985 
z
" style="fill:#1f77b4;"/>
   </g>
   <g id="patch_46">
    <path clip-path="url(#pcfefdb306d)" d="M 213.434174 307.584 
L 216.680721 307.584 
L 216.680721 218.210599 
L 213.434174 218.210599 
z
" style="fill:#1f77b4;"/>
   </g>
   <g id="patch_47">
    <path clip-path="url(#pcfefdb306d)" d="M 216.680722 307.584 
L 219.927267 307.584 
L 219.927267 227.485157 
L 216.680722 227.485157 
z
" style="fill:#1f77b4;"/>
   </g>
   <g id="patch_48">
    <path clip-path="url(#pcfefdb306d)" d="M 219.927267 307.584 
L 223.173812 307.584 
L 223.173812 216.861544 
L 219.927267 216.861544 
z
" style="fill:#1f77b4;"/>
   </g>
   <g id="patch_49">
    <path clip-path="url(#pcfefdb306d)" d="M 223.173813 307.584 
L 226.420359 307.584 
L 226.420359 221.751788 
L 223.173813 221.751788 
z
" style="fill:#1f77b4;"/>
   </g>
   <g id="patch_50">
    <path clip-path="url(#pcfefdb306d)" d="M 226.420358 307.584 
L 229.666903 307.584 
L 229.666903 220.908632 
L 226.420358 220.908632 
z
" style="fill:#1f77b4;"/>
   </g>
   <g id="patch_51">
    <path clip-path="url(#pcfefdb306d)" d="M 229.666903 307.584 
L 232.913448 307.584 
L 232.913448 199.49274 
L 229.666903 199.49274 
z
" style="fill:#1f77b4;"/>
   </g>
   <g id="patch_52">
    <path clip-path="url(#pcfefdb306d)" d="M 232.913448 307.584 
L 236.159993 307.584 
L 236.159993 145.868683 
L 232.913448 145.868683 
z
" style="fill:#1f77b4;"/>
   </g>
   <g id="patch_53">
    <path clip-path="url(#pcfefdb306d)" d="M 236.159993 307.584 
L 239.406539 307.584 
L 239.406539 197.469191 
L 236.159993 197.469191 
z
" style="fill:#1f77b4;"/>
   </g>
   <g id="patch_54">
    <path clip-path="url(#pcfefdb306d)" d="M 239.406539 307.584 
L 242.653084 307.584 
L 242.653084 201.179031 
L 239.406539 201.179031 
z
" style="fill:#1f77b4;"/>
   </g>
   <g id="patch_55">
    <path clip-path="url(#pcfefdb306d)" d="M 242.653084 307.584 
L 245.899629 307.584 
L 245.899629 215.006612 
L 242.653084 215.006612 
z
" style="fill:#1f77b4;"/>
   </g>
   <g id="patch_56">
    <path clip-path="url(#pcfefdb306d)" d="M 245.899629 307.584 
L 249.146175 307.584 
L 249.146175 219.896868 
L 245.899629 219.896868 
z
" style="fill:#1f77b4;"/>
   </g>
   <g id="patch_57">
    <path clip-path="url(#pcfefdb306d)" d="M 249.146175 307.584 
L 252.39272 307.584 
L 252.39272 230.351872 
L 249.146175 230.351872 
z
" style="fill:#1f77b4;"/>
   </g>
   <g id="patch_58">
    <path clip-path="url(#pcfefdb306d)" d="M 252.39272 307.584 
L 255.639265 307.584 
L 255.639265 219.559588 
L 252.39272 219.559588 
z
" style="fill:#1f77b4;"/>
   </g>
   <g id="patch_59">
    <path clip-path="url(#pcfefdb306d)" d="M 255.639265 307.584 
L 258.885811 307.584 
L 258.885811 227.991085 
L 255.639265 227.991085 
z
" style="fill:#1f77b4;"/>
   </g>
   <g id="patch_60">
    <path clip-path="url(#pcfefdb306d)" d="M 258.885811 307.584 
L 262.132356 307.584 
L 262.132356 235.916614 
L 258.885811 235.916614 
z
" style="fill:#1f77b4;"/>
   </g>
   <g id="patch_61">
    <path clip-path="url(#pcfefdb306d)" d="M 262.132354 307.584 
L 265.378899 307.584 
L 265.378899 232.712698 
L 262.132354 232.712698 
z
" style="fill:#1f77b4;"/>
   </g>
   <g id="patch_62">
    <path clip-path="url(#pcfefdb306d)" d="M 265.378905 307.584 
L 268.62545 307.584 
L 268.62545 232.038144 
L 265.378905 232.038144 
z
" style="fill:#1f77b4;"/>
   </g>
   <g id="patch_63">
    <path clip-path="url(#pcfefdb306d)" d="M 268.625447 307.584 
L 271.871991 307.584 
L 271.871991 231.026369 
L 268.625447 231.026369 
z
" style="fill:#1f77b4;"/>
   </g>
   <g id="patch_64">
    <path clip-path="url(#pcfefdb306d)" d="M 271.871995 307.584 
L 275.118539 307.584 
L 275.118539 239.289197 
L 271.871995 239.289197 
z
" style="fill:#1f77b4;"/>
   </g>
   <g id="patch_65">
    <path clip-path="url(#pcfefdb306d)" d="M 275.118536 307.584 
L 278.365084 307.584 
L 278.365084 248.226601 
L 275.118536 248.226601 
z
" style="fill:#1f77b4;"/>
   </g>
   <g id="patch_66">
    <path clip-path="url(#pcfefdb306d)" d="M 278.365084 307.584 
L 281.611629 307.584 
L 281.611629 251.936383 
L 278.365084 251.936383 
z
" style="fill:#1f77b4;"/>
   </g>
   <g id="patch_67">
    <path clip-path="url(#pcfefdb306d)" d="M 281.611632 307.584 
L 284.858177 307.584 
L 284.858177 245.191217 
L 281.611632 245.191217 
z
" style="fill:#1f77b4;"/>
   </g>
   <g id="patch_68">
    <path clip-path="url(#pcfefdb306d)" d="M 284.858173 307.584 
L 288.104718 307.584 
L 288.104718 249.744204 
L 284.858173 249.744204 
z
" style="fill:#1f77b4;"/>
   </g>
   <g id="patch_69">
    <path clip-path="url(#pcfefdb306d)" d="M 288.104721 307.584 
L 291.351263 307.584 
L 291.351263 256.152112 
L 288.104721 256.152112 
z
" style="fill:#1f77b4;"/>
   </g>
   <g id="patch_70">
    <path clip-path="url(#pcfefdb306d)" d="M 291.351263 307.584 
L 294.597811 307.584 
L 294.597811 262.222806 
L 291.351263 262.222806 
z
" style="fill:#1f77b4;"/>
   </g>
   <g id="patch_71">
    <path clip-path="url(#pcfefdb306d)" d="M 294.597811 307.584 
L 297.844352 307.584 
L 297.844352 264.920784 
L 294.597811 264.920784 
z
" style="fill:#1f77b4;"/>
   </g>
   <g id="patch_72">
    <path clip-path="url(#pcfefdb306d)" d="M 297.844346 307.584 
L 301.090893 307.584 
L 301.090893 270.316997 
L 297.844346 270.316997 
z
" style="fill:#1f77b4;"/>
   </g>
   <g id="patch_73">
    <path clip-path="url(#pcfefdb306d)" d="M 301.0909 307.584 
L 304.337448 307.584 
L 304.337448 270.822884 
L 301.0909 270.822884 
z
" style="fill:#1f77b4;"/>
   </g>
   <g id="patch_74">
    <path clip-path="url(#pcfefdb306d)" d="M 304.337448 307.584 
L 307.583989 307.584 
L 307.583989 269.979663 
L 304.337448 269.979663 
z
" style="fill:#1f77b4;"/>
   </g>
   <g id="patch_75">
    <path clip-path="url(#pcfefdb306d)" d="M 307.583983 307.584 
L 310.830531 307.584 
L 310.830531 269.473852 
L 307.583983 269.473852 
z
" style="fill:#1f77b4;"/>
   </g>
   <g id="patch_76">
    <path clip-path="url(#pcfefdb306d)" d="M 310.830537 307.584 
L 314.077079 307.584 
L 314.077079 276.218948 
L 310.830537 276.218948 
z
" style="fill:#1f77b4;"/>
   </g>
   <g id="patch_77">
    <path clip-path="url(#pcfefdb306d)" d="M 314.077079 307.584 
L 317.323627 307.584 
L 317.323627 271.666029 
L 314.077079 271.666029 
z
" style="fill:#1f77b4;"/>
   </g>
   <g id="patch_78">
    <path clip-path="url(#pcfefdb306d)" d="M 317.32362 307.584 
L 320.570168 307.584 
L 320.570168 269.473852 
L 317.32362 269.473852 
z
" style="fill:#1f77b4;"/>
   </g>
   <g id="patch_79">
    <path clip-path="url(#pcfefdb306d)" d="M 320.570175 307.584 
L 323.816716 307.584 
L 323.816716 273.858138 
L 320.570175 273.858138 
z
" style="fill:#1f77b4;"/>
   </g>
   <g id="patch_80">
    <path clip-path="url(#pcfefdb306d)" d="M 323.816716 307.584 
L 327.063264 307.584 
L 327.063264 278.917075 
L 323.816716 278.917075 
z
" style="fill:#1f77b4;"/>
   </g>
   <g id="patch_81">
    <path clip-path="url(#pcfefdb306d)" d="M 327.063264 307.584 
L 330.309805 307.584 
L 330.309805 277.399353 
L 327.063264 277.399353 
z
" style="fill:#1f77b4;"/>
   </g>
   <g id="patch_82">
    <path clip-path="url(#pcfefdb306d)" d="M 330.309799 307.584 
L 333.556347 307.584 
L 333.556347 286.674007 
L 330.309799 286.674007 
z
" style="fill:#1f77b4;"/>
   </g>
   <g id="patch_83">
    <path clip-path="url(#pcfefdb306d)" d="M 333.556353 307.584 
L 336.802901 307.584 
L 336.802901 293.925053 
L 333.556353 293.925053 
z
" style="fill:#1f77b4;"/>
   </g>
   <g id="patch_84">
    <path clip-path="url(#pcfefdb306d)" d="M 336.802901 307.584 
L 340.049443 307.584 
L 340.049443 292.91325 
L 336.802901 292.91325 
z
" style="fill:#1f77b4;"/>
   </g>
   <g id="patch_85">
    <path clip-path="url(#pcfefdb306d)" d="M 340.049436 307.584 
L 343.295984 307.584 
L 343.295984 294.43094 
L 340.049436 294.43094 
z
" style="fill:#1f77b4;"/>
   </g>
   <g id="patch_86">
    <path clip-path="url(#pcfefdb306d)" d="M 343.29599 307.584 
L 346.542532 307.584 
L 346.542532 292.744621 
L 343.29599 292.744621 
z
" style="fill:#1f77b4;"/>
   </g>
   <g id="patch_87">
    <path clip-path="url(#pcfefdb306d)" d="M 346.542545 307.584 
L 349.789086 307.584 
L 349.789086 298.140759 
L 346.542545 298.140759 
z
" style="fill:#1f77b4;"/>
   </g>
   <g id="patch_88">
    <path clip-path="url(#pcfefdb306d)" d="M 349.789073 307.584 
L 353.035628 307.584 
L 353.035628 297.297653 
L 349.789073 297.297653 
z
" style="fill:#1f77b4;"/>
   </g>
   <g id="patch_89">
    <path clip-path="url(#pcfefdb306d)" d="M 353.035628 307.584 
L 356.282169 307.584 
L 356.282169 298.983905 
L 353.035628 298.983905 
z
" style="fill:#1f77b4;"/>
   </g>
   <g id="patch_90">
    <path clip-path="url(#pcfefdb306d)" d="M 356.282182 307.584 
L 359.528724 307.584 
L 359.528724 297.297612 
L 356.282182 297.297612 
z
" style="fill:#1f77b4;"/>
   </g>
   <g id="patch_91">
    <path clip-path="url(#pcfefdb306d)" d="M 359.528711 307.584 
L 362.775265 307.584 
L 362.775265 297.466282 
L 359.528711 297.466282 
z
" style="fill:#1f77b4;"/>
   </g>
   <g id="patch_92">
    <path clip-path="url(#pcfefdb306d)" d="M 362.775265 307.584 
L 366.021806 307.584 
L 366.021806 298.815276 
L 362.775265 298.815276 
z
" style="fill:#1f77b4;"/>
   </g>
   <g id="patch_93">
    <path clip-path="url(#pcfefdb306d)" d="M 366.021819 307.584 
L 369.268361 307.584 
L 369.268361 303.031009 
L 366.021819 303.031009 
z
" style="fill:#1f77b4;"/>
   </g>
   <g id="patch_94">
    <path clip-path="url(#pcfefdb306d)" d="M 369.268348 307.584 
L 372.514902 307.584 
L 372.514902 304.042799 
L 369.268348 304.042799 
z
" style="fill:#1f77b4;"/>
   </g>
   <g id="patch_95">
    <path clip-path="url(#pcfefdb306d)" d="M 372.514902 307.584 
L 375.761444 307.584 
L 375.761444 303.199638 
L 372.514902 303.199638 
z
" style="fill:#1f77b4;"/>
   </g>
   <g id="patch_96">
    <path clip-path="url(#pcfefdb306d)" d="M 375.761457 307.584 
L 379.007998 307.584 
L 379.007998 304.380043 
L 375.761457 304.380043 
z
" style="fill:#1f77b4;"/>
   </g>
   <g id="patch_97">
    <path clip-path="url(#pcfefdb306d)" d="M 379.007985 307.584 
L 382.25454 307.584 
L 382.25454 304.548685 
L 379.007985 304.548685 
z
" style="fill:#1f77b4;"/>
   </g>
   <g id="patch_98">
    <path clip-path="url(#pcfefdb306d)" d="M 382.25454 307.584 
L 385.501081 307.584 
L 385.501081 305.391819 
L 382.25454 305.391819 
z
" style="fill:#1f77b4;"/>
   </g>
   <g id="patch_99">
    <path clip-path="url(#pcfefdb306d)" d="M 385.501094 307.584 
L 388.747635 307.584 
L 388.747635 306.066336 
L 385.501094 306.066336 
z
" style="fill:#1f77b4;"/>
   </g>
   <g id="patch_100">
    <path clip-path="url(#pcfefdb306d)" d="M 388.747622 307.584 
L 391.994164 307.584 
L 391.994164 306.740853 
L 388.747622 306.740853 
z
" style="fill:#1f77b4;"/>
   </g>
   <g id="patch_101">
    <path clip-path="url(#pcfefdb306d)" d="M 391.994164 307.584 
L 395.240718 307.584 
L 395.240718 306.066342 
L 391.994164 306.066342 
z
" style="fill:#1f77b4;"/>
   </g>
   <g id="patch_102">
    <path clip-path="url(#pcfefdb306d)" d="M 395.240731 307.584 
L 398.487273 307.584 
L 398.487273 306.403595 
L 395.240731 306.403595 
z
" style="fill:#1f77b4;"/>
   </g>
   <g id="matplotlib.axis_1">
    <g id="xtick_1">
     <g id="line2d_1">
      <defs>
       <path d="M 0 0 
L 0 3.5 
" id="m895295c9a4" style="stroke:#000000;stroke-width:0.8;"/>
      </defs>
      <g>
       <use style="stroke:#000000;stroke-width:0.8;" x="72.033879" xlink:href="#m895295c9a4" y="307.584"/>
      </g>
     </g>
     <g id="text_1">
      <!-- −3 -->
      <defs>
       <path d="M 10.59375 35.5 
L 73.1875 35.5 
L 73.1875 27.203125 
L 10.59375 27.203125 
z
" id="DejaVuSans-8722"/>
       <path d="M 40.578125 39.3125 
Q 47.65625 37.796875 51.625 33 
Q 55.609375 28.21875 55.609375 21.1875 
Q 55.609375 10.40625 48.1875 4.484375 
Q 40.765625 -1.421875 27.09375 -1.421875 
Q 22.515625 -1.421875 17.65625 -0.515625 
Q 12.796875 0.390625 7.625 2.203125 
L 7.625 11.71875 
Q 11.71875 9.328125 16.59375 8.109375 
Q 21.484375 6.890625 26.8125 6.890625 
Q 36.078125 6.890625 40.9375 10.546875 
Q 45.796875 14.203125 45.796875 21.1875 
Q 45.796875 27.640625 41.28125 31.265625 
Q 36.765625 34.90625 28.71875 34.90625 
L 20.21875 34.90625 
L 20.21875 43.015625 
L 29.109375 43.015625 
Q 36.375 43.015625 40.234375 45.921875 
Q 44.09375 48.828125 44.09375 54.296875 
Q 44.09375 59.90625 40.109375 62.90625 
Q 36.140625 65.921875 28.71875 65.921875 
Q 24.65625 65.921875 20.015625 65.03125 
Q 15.375 64.15625 9.8125 62.3125 
L 9.8125 71.09375 
Q 15.4375 72.65625 20.34375 73.4375 
Q 25.25 74.21875 29.59375 74.21875 
Q 40.828125 74.21875 47.359375 69.109375 
Q 53.90625 64.015625 53.90625 55.328125 
Q 53.90625 49.265625 50.4375 45.09375 
Q 46.96875 40.921875 40.578125 39.3125 
z
" id="DejaVuSans-51"/>
      </defs>
      <g transform="translate(59.50302 327.501344)scale(0.17 -0.17)">
       <use xlink:href="#DejaVuSans-8722"/>
       <use x="83.789062" xlink:href="#DejaVuSans-51"/>
      </g>
     </g>
    </g>
    <g id="xtick_2">
     <g id="line2d_2">
      <g>
       <use style="stroke:#000000;stroke-width:0.8;" x="126.731756" xlink:href="#m895295c9a4" y="307.584"/>
      </g>
     </g>
     <g id="text_2">
      <!-- −2 -->
      <defs>
       <path d="M 19.1875 8.296875 
L 53.609375 8.296875 
L 53.609375 0 
L 7.328125 0 
L 7.328125 8.296875 
Q 12.9375 14.109375 22.625 23.890625 
Q 32.328125 33.6875 34.8125 36.53125 
Q 39.546875 41.84375 41.421875 45.53125 
Q 43.3125 49.21875 43.3125 52.78125 
Q 43.3125 58.59375 39.234375 62.25 
Q 35.15625 65.921875 28.609375 65.921875 
Q 23.96875 65.921875 18.8125 64.3125 
Q 13.671875 62.703125 7.8125 59.421875 
L 7.8125 69.390625 
Q 13.765625 71.78125 18.9375 73 
Q 24.125 74.21875 28.421875 74.21875 
Q 39.75 74.21875 46.484375 68.546875 
Q 53.21875 62.890625 53.21875 53.421875 
Q 53.21875 48.921875 51.53125 44.890625 
Q 49.859375 40.875 45.40625 35.40625 
Q 44.1875 33.984375 37.640625 27.21875 
Q 31.109375 20.453125 19.1875 8.296875 
z
" id="DejaVuSans-50"/>
      </defs>
      <g transform="translate(114.200896 327.501344)scale(0.17 -0.17)">
       <use xlink:href="#DejaVuSans-8722"/>
       <use x="83.789062" xlink:href="#DejaVuSans-50"/>
      </g>
     </g>
    </g>
    <g id="xtick_3">
     <g id="line2d_3">
      <g>
       <use style="stroke:#000000;stroke-width:0.8;" x="181.429632" xlink:href="#m895295c9a4" y="307.584"/>
      </g>
     </g>
     <g id="text_3">
      <!-- −1 -->
      <defs>
       <path d="M 12.40625 8.296875 
L 28.515625 8.296875 
L 28.515625 63.921875 
L 10.984375 60.40625 
L 10.984375 69.390625 
L 28.421875 72.90625 
L 38.28125 72.90625 
L 38.28125 8.296875 
L 54.390625 8.296875 
L 54.390625 0 
L 12.40625 0 
z
" id="DejaVuSans-49"/>
      </defs>
      <g transform="translate(168.898773 327.501344)scale(0.17 -0.17)">
       <use xlink:href="#DejaVuSans-8722"/>
       <use x="83.789062" xlink:href="#DejaVuSans-49"/>
      </g>
     </g>
    </g>
    <g id="xtick_4">
     <g id="line2d_4">
      <g>
       <use style="stroke:#000000;stroke-width:0.8;" x="236.127508" xlink:href="#m895295c9a4" y="307.584"/>
      </g>
     </g>
     <g id="text_4">
      <!-- 0 -->
      <defs>
       <path d="M 31.78125 66.40625 
Q 24.171875 66.40625 20.328125 58.90625 
Q 16.5 51.421875 16.5 36.375 
Q 16.5 21.390625 20.328125 13.890625 
Q 24.171875 6.390625 31.78125 6.390625 
Q 39.453125 6.390625 43.28125 13.890625 
Q 47.125 21.390625 47.125 36.375 
Q 47.125 51.421875 43.28125 58.90625 
Q 39.453125 66.40625 31.78125 66.40625 
z
M 31.78125 74.21875 
Q 44.046875 74.21875 50.515625 64.515625 
Q 56.984375 54.828125 56.984375 36.375 
Q 56.984375 17.96875 50.515625 8.265625 
Q 44.046875 -1.421875 31.78125 -1.421875 
Q 19.53125 -1.421875 13.0625 8.265625 
Q 6.59375 17.96875 6.59375 36.375 
Q 6.59375 54.828125 13.0625 64.515625 
Q 19.53125 74.21875 31.78125 74.21875 
z
" id="DejaVuSans-48"/>
      </defs>
      <g transform="translate(230.719383 327.501344)scale(0.17 -0.17)">
       <use xlink:href="#DejaVuSans-48"/>
      </g>
     </g>
    </g>
    <g id="xtick_5">
     <g id="line2d_5">
      <g>
       <use style="stroke:#000000;stroke-width:0.8;" x="290.825385" xlink:href="#m895295c9a4" y="307.584"/>
      </g>
     </g>
     <g id="text_5">
      <!-- 1 -->
      <g transform="translate(285.41726 327.501344)scale(0.17 -0.17)">
       <use xlink:href="#DejaVuSans-49"/>
      </g>
     </g>
    </g>
    <g id="xtick_6">
     <g id="line2d_6">
      <g>
       <use style="stroke:#000000;stroke-width:0.8;" x="345.523261" xlink:href="#m895295c9a4" y="307.584"/>
      </g>
     </g>
     <g id="text_6">
      <!-- 2 -->
      <g transform="translate(340.115136 327.501344)scale(0.17 -0.17)">
       <use xlink:href="#DejaVuSans-50"/>
      </g>
     </g>
    </g>
    <g id="xtick_7">
     <g id="line2d_7">
      <g>
       <use style="stroke:#000000;stroke-width:0.8;" x="400.221138" xlink:href="#m895295c9a4" y="307.584"/>
      </g>
     </g>
     <g id="text_7">
      <!-- 3 -->
      <g transform="translate(394.813013 327.501344)scale(0.17 -0.17)">
       <use xlink:href="#DejaVuSans-51"/>
      </g>
     </g>
    </g>
    <g id="text_8">
     <!-- Position in Radian -->
     <defs>
      <path d="M 19.671875 64.796875 
L 19.671875 37.40625 
L 32.078125 37.40625 
Q 38.96875 37.40625 42.71875 40.96875 
Q 46.484375 44.53125 46.484375 51.125 
Q 46.484375 57.671875 42.71875 61.234375 
Q 38.96875 64.796875 32.078125 64.796875 
z
M 9.8125 72.90625 
L 32.078125 72.90625 
Q 44.34375 72.90625 50.609375 67.359375 
Q 56.890625 61.8125 56.890625 51.125 
Q 56.890625 40.328125 50.609375 34.8125 
Q 44.34375 29.296875 32.078125 29.296875 
L 19.671875 29.296875 
L 19.671875 0 
L 9.8125 0 
z
" id="DejaVuSans-80"/>
      <path d="M 30.609375 48.390625 
Q 23.390625 48.390625 19.1875 42.75 
Q 14.984375 37.109375 14.984375 27.296875 
Q 14.984375 17.484375 19.15625 11.84375 
Q 23.34375 6.203125 30.609375 6.203125 
Q 37.796875 6.203125 41.984375 11.859375 
Q 46.1875 17.53125 46.1875 27.296875 
Q 46.1875 37.015625 41.984375 42.703125 
Q 37.796875 48.390625 30.609375 48.390625 
z
M 30.609375 56 
Q 42.328125 56 49.015625 48.375 
Q 55.71875 40.765625 55.71875 27.296875 
Q 55.71875 13.875 49.015625 6.21875 
Q 42.328125 -1.421875 30.609375 -1.421875 
Q 18.84375 -1.421875 12.171875 6.21875 
Q 5.515625 13.875 5.515625 27.296875 
Q 5.515625 40.765625 12.171875 48.375 
Q 18.84375 56 30.609375 56 
z
" id="DejaVuSans-111"/>
      <path d="M 44.28125 53.078125 
L 44.28125 44.578125 
Q 40.484375 46.53125 36.375 47.5 
Q 32.28125 48.484375 27.875 48.484375 
Q 21.1875 48.484375 17.84375 46.4375 
Q 14.5 44.390625 14.5 40.28125 
Q 14.5 37.15625 16.890625 35.375 
Q 19.28125 33.59375 26.515625 31.984375 
L 29.59375 31.296875 
Q 39.15625 29.25 43.1875 25.515625 
Q 47.21875 21.78125 47.21875 15.09375 
Q 47.21875 7.46875 41.1875 3.015625 
Q 35.15625 -1.421875 24.609375 -1.421875 
Q 20.21875 -1.421875 15.453125 -0.5625 
Q 10.6875 0.296875 5.421875 2 
L 5.421875 11.28125 
Q 10.40625 8.6875 15.234375 7.390625 
Q 20.0625 6.109375 24.8125 6.109375 
Q 31.15625 6.109375 34.5625 8.28125 
Q 37.984375 10.453125 37.984375 14.40625 
Q 37.984375 18.0625 35.515625 20.015625 
Q 33.0625 21.96875 24.703125 23.78125 
L 21.578125 24.515625 
Q 13.234375 26.265625 9.515625 29.90625 
Q 5.8125 33.546875 5.8125 39.890625 
Q 5.8125 47.609375 11.28125 51.796875 
Q 16.75 56 26.8125 56 
Q 31.78125 56 36.171875 55.265625 
Q 40.578125 54.546875 44.28125 53.078125 
z
" id="DejaVuSans-115"/>
      <path d="M 9.421875 54.6875 
L 18.40625 54.6875 
L 18.40625 0 
L 9.421875 0 
z
M 9.421875 75.984375 
L 18.40625 75.984375 
L 18.40625 64.59375 
L 9.421875 64.59375 
z
" id="DejaVuSans-105"/>
      <path d="M 18.3125 70.21875 
L 18.3125 54.6875 
L 36.8125 54.6875 
L 36.8125 47.703125 
L 18.3125 47.703125 
L 18.3125 18.015625 
Q 18.3125 11.328125 20.140625 9.421875 
Q 21.96875 7.515625 27.59375 7.515625 
L 36.8125 7.515625 
L 36.8125 0 
L 27.59375 0 
Q 17.1875 0 13.234375 3.875 
Q 9.28125 7.765625 9.28125 18.015625 
L 9.28125 47.703125 
L 2.6875 47.703125 
L 2.6875 54.6875 
L 9.28125 54.6875 
L 9.28125 70.21875 
z
" id="DejaVuSans-116"/>
      <path d="M 54.890625 33.015625 
L 54.890625 0 
L 45.90625 0 
L 45.90625 32.71875 
Q 45.90625 40.484375 42.875 44.328125 
Q 39.84375 48.1875 33.796875 48.1875 
Q 26.515625 48.1875 22.3125 43.546875 
Q 18.109375 38.921875 18.109375 30.90625 
L 18.109375 0 
L 9.078125 0 
L 9.078125 54.6875 
L 18.109375 54.6875 
L 18.109375 46.1875 
Q 21.34375 51.125 25.703125 53.5625 
Q 30.078125 56 35.796875 56 
Q 45.21875 56 50.046875 50.171875 
Q 54.890625 44.34375 54.890625 33.015625 
z
" id="DejaVuSans-110"/>
      <path id="DejaVuSans-32"/>
      <path d="M 44.390625 34.1875 
Q 47.5625 33.109375 50.5625 29.59375 
Q 53.5625 26.078125 56.59375 19.921875 
L 66.609375 0 
L 56 0 
L 46.6875 18.703125 
Q 43.0625 26.03125 39.671875 28.421875 
Q 36.28125 30.8125 30.421875 30.8125 
L 19.671875 30.8125 
L 19.671875 0 
L 9.8125 0 
L 9.8125 72.90625 
L 32.078125 72.90625 
Q 44.578125 72.90625 50.734375 67.671875 
Q 56.890625 62.453125 56.890625 51.90625 
Q 56.890625 45.015625 53.6875 40.46875 
Q 50.484375 35.9375 44.390625 34.1875 
z
M 19.671875 64.796875 
L 19.671875 38.921875 
L 32.078125 38.921875 
Q 39.203125 38.921875 42.84375 42.21875 
Q 46.484375 45.515625 46.484375 51.90625 
Q 46.484375 58.296875 42.84375 61.546875 
Q 39.203125 64.796875 32.078125 64.796875 
z
" id="DejaVuSans-82"/>
      <path d="M 34.28125 27.484375 
Q 23.390625 27.484375 19.1875 25 
Q 14.984375 22.515625 14.984375 16.5 
Q 14.984375 11.71875 18.140625 8.90625 
Q 21.296875 6.109375 26.703125 6.109375 
Q 34.1875 6.109375 38.703125 11.40625 
Q 43.21875 16.703125 43.21875 25.484375 
L 43.21875 27.484375 
z
M 52.203125 31.203125 
L 52.203125 0 
L 43.21875 0 
L 43.21875 8.296875 
Q 40.140625 3.328125 35.546875 0.953125 
Q 30.953125 -1.421875 24.3125 -1.421875 
Q 15.921875 -1.421875 10.953125 3.296875 
Q 6 8.015625 6 15.921875 
Q 6 25.140625 12.171875 29.828125 
Q 18.359375 34.515625 30.609375 34.515625 
L 43.21875 34.515625 
L 43.21875 35.40625 
Q 43.21875 41.609375 39.140625 45 
Q 35.0625 48.390625 27.6875 48.390625 
Q 23 48.390625 18.546875 47.265625 
Q 14.109375 46.140625 10.015625 43.890625 
L 10.015625 52.203125 
Q 14.9375 54.109375 19.578125 55.046875 
Q 24.21875 56 28.609375 56 
Q 40.484375 56 46.34375 49.84375 
Q 52.203125 43.703125 52.203125 31.203125 
z
" id="DejaVuSans-97"/>
      <path d="M 45.40625 46.390625 
L 45.40625 75.984375 
L 54.390625 75.984375 
L 54.390625 0 
L 45.40625 0 
L 45.40625 8.203125 
Q 42.578125 3.328125 38.25 0.953125 
Q 33.9375 -1.421875 27.875 -1.421875 
Q 17.96875 -1.421875 11.734375 6.484375 
Q 5.515625 14.40625 5.515625 27.296875 
Q 5.515625 40.1875 11.734375 48.09375 
Q 17.96875 56 27.875 56 
Q 33.9375 56 38.25 53.625 
Q 42.578125 51.265625 45.40625 46.390625 
z
M 14.796875 27.296875 
Q 14.796875 17.390625 18.875 11.75 
Q 22.953125 6.109375 30.078125 6.109375 
Q 37.203125 6.109375 41.296875 11.75 
Q 45.40625 17.390625 45.40625 27.296875 
Q 45.40625 37.203125 41.296875 42.84375 
Q 37.203125 48.484375 30.078125 48.484375 
Q 22.953125 48.484375 18.875 42.84375 
Q 14.796875 37.203125 14.796875 27.296875 
z
" id="DejaVuSans-100"/>
     </defs>
     <g transform="translate(102.024844 357.832125)scale(0.3 -0.3)">
      <use xlink:href="#DejaVuSans-80"/>
      <use x="60.255859" xlink:href="#DejaVuSans-111"/>
      <use x="121.4375" xlink:href="#DejaVuSans-115"/>
      <use x="173.537109" xlink:href="#DejaVuSans-105"/>
      <use x="201.320312" xlink:href="#DejaVuSans-116"/>
      <use x="240.529297" xlink:href="#DejaVuSans-105"/>
      <use x="268.3125" xlink:href="#DejaVuSans-111"/>
      <use x="329.494141" xlink:href="#DejaVuSans-110"/>
      <use x="392.873047" xlink:href="#DejaVuSans-32"/>
      <use x="424.660156" xlink:href="#DejaVuSans-105"/>
      <use x="452.443359" xlink:href="#DejaVuSans-110"/>
      <use x="515.822266" xlink:href="#DejaVuSans-32"/>
      <use x="547.609375" xlink:href="#DejaVuSans-82"/>
      <use x="617.060547" xlink:href="#DejaVuSans-97"/>
      <use x="678.339844" xlink:href="#DejaVuSans-100"/>
      <use x="741.816406" xlink:href="#DejaVuSans-105"/>
      <use x="769.599609" xlink:href="#DejaVuSans-97"/>
      <use x="830.878906" xlink:href="#DejaVuSans-110"/>
     </g>
    </g>
   </g>
   <g id="matplotlib.axis_2">
    <g id="ytick_1">
     <g id="line2d_8">
      <defs>
       <path d="M 0 0 
L -3.5 0 
" id="m604dce7f5a" style="stroke:#000000;stroke-width:0.8;"/>
      </defs>
      <g>
       <use style="stroke:#000000;stroke-width:0.8;" x="57.6" xlink:href="#m604dce7f5a" y="307.584"/>
      </g>
     </g>
     <g id="text_9">
      <!-- 0.0 -->
      <defs>
       <path d="M 10.6875 12.40625 
L 21 12.40625 
L 21 0 
L 10.6875 0 
z
" id="DejaVuSans-46"/>
      </defs>
      <g transform="translate(23.564687 314.042672)scale(0.17 -0.17)">
       <use xlink:href="#DejaVuSans-48"/>
       <use x="63.623047" xlink:href="#DejaVuSans-46"/>
       <use x="95.410156" xlink:href="#DejaVuSans-48"/>
      </g>
     </g>
    </g>
    <g id="ytick_2">
     <g id="line2d_9">
      <g>
       <use style="stroke:#000000;stroke-width:0.8;" x="57.6" xlink:href="#m604dce7f5a" y="267.548658"/>
      </g>
     </g>
     <g id="text_10">
      <!-- 0.2 -->
      <g transform="translate(23.564687 274.00733)scale(0.17 -0.17)">
       <use xlink:href="#DejaVuSans-48"/>
       <use x="63.623047" xlink:href="#DejaVuSans-46"/>
       <use x="95.410156" xlink:href="#DejaVuSans-50"/>
      </g>
     </g>
    </g>
    <g id="ytick_3">
     <g id="line2d_10">
      <g>
       <use style="stroke:#000000;stroke-width:0.8;" x="57.6" xlink:href="#m604dce7f5a" y="227.513316"/>
      </g>
     </g>
     <g id="text_11">
      <!-- 0.4 -->
      <defs>
       <path d="M 37.796875 64.3125 
L 12.890625 25.390625 
L 37.796875 25.390625 
z
M 35.203125 72.90625 
L 47.609375 72.90625 
L 47.609375 25.390625 
L 58.015625 25.390625 
L 58.015625 17.1875 
L 47.609375 17.1875 
L 47.609375 0 
L 37.796875 0 
L 37.796875 17.1875 
L 4.890625 17.1875 
L 4.890625 26.703125 
z
" id="DejaVuSans-52"/>
      </defs>
      <g transform="translate(23.564687 233.971988)scale(0.17 -0.17)">
       <use xlink:href="#DejaVuSans-48"/>
       <use x="63.623047" xlink:href="#DejaVuSans-46"/>
       <use x="95.410156" xlink:href="#DejaVuSans-52"/>
      </g>
     </g>
    </g>
    <g id="ytick_4">
     <g id="line2d_11">
      <g>
       <use style="stroke:#000000;stroke-width:0.8;" x="57.6" xlink:href="#m604dce7f5a" y="187.477975"/>
      </g>
     </g>
     <g id="text_12">
      <!-- 0.6 -->
      <defs>
       <path d="M 33.015625 40.375 
Q 26.375 40.375 22.484375 35.828125 
Q 18.609375 31.296875 18.609375 23.390625 
Q 18.609375 15.53125 22.484375 10.953125 
Q 26.375 6.390625 33.015625 6.390625 
Q 39.65625 6.390625 43.53125 10.953125 
Q 47.40625 15.53125 47.40625 23.390625 
Q 47.40625 31.296875 43.53125 35.828125 
Q 39.65625 40.375 33.015625 40.375 
z
M 52.59375 71.296875 
L 52.59375 62.3125 
Q 48.875 64.0625 45.09375 64.984375 
Q 41.3125 65.921875 37.59375 65.921875 
Q 27.828125 65.921875 22.671875 59.328125 
Q 17.53125 52.734375 16.796875 39.40625 
Q 19.671875 43.65625 24.015625 45.921875 
Q 28.375 48.1875 33.59375 48.1875 
Q 44.578125 48.1875 50.953125 41.515625 
Q 57.328125 34.859375 57.328125 23.390625 
Q 57.328125 12.15625 50.6875 5.359375 
Q 44.046875 -1.421875 33.015625 -1.421875 
Q 20.359375 -1.421875 13.671875 8.265625 
Q 6.984375 17.96875 6.984375 36.375 
Q 6.984375 53.65625 15.1875 63.9375 
Q 23.390625 74.21875 37.203125 74.21875 
Q 40.921875 74.21875 44.703125 73.484375 
Q 48.484375 72.75 52.59375 71.296875 
z
" id="DejaVuSans-54"/>
      </defs>
      <g transform="translate(23.564687 193.936646)scale(0.17 -0.17)">
       <use xlink:href="#DejaVuSans-48"/>
       <use x="63.623047" xlink:href="#DejaVuSans-46"/>
       <use x="95.410156" xlink:href="#DejaVuSans-54"/>
      </g>
     </g>
    </g>
    <g id="ytick_5">
     <g id="line2d_12">
      <g>
       <use style="stroke:#000000;stroke-width:0.8;" x="57.6" xlink:href="#m604dce7f5a" y="147.442633"/>
      </g>
     </g>
     <g id="text_13">
      <!-- 0.8 -->
      <defs>
       <path d="M 31.78125 34.625 
Q 24.75 34.625 20.71875 30.859375 
Q 16.703125 27.09375 16.703125 20.515625 
Q 16.703125 13.921875 20.71875 10.15625 
Q 24.75 6.390625 31.78125 6.390625 
Q 38.8125 6.390625 42.859375 10.171875 
Q 46.921875 13.96875 46.921875 20.515625 
Q 46.921875 27.09375 42.890625 30.859375 
Q 38.875 34.625 31.78125 34.625 
z
M 21.921875 38.8125 
Q 15.578125 40.375 12.03125 44.71875 
Q 8.5 49.078125 8.5 55.328125 
Q 8.5 64.0625 14.71875 69.140625 
Q 20.953125 74.21875 31.78125 74.21875 
Q 42.671875 74.21875 48.875 69.140625 
Q 55.078125 64.0625 55.078125 55.328125 
Q 55.078125 49.078125 51.53125 44.71875 
Q 48 40.375 41.703125 38.8125 
Q 48.828125 37.15625 52.796875 32.3125 
Q 56.78125 27.484375 56.78125 20.515625 
Q 56.78125 9.90625 50.3125 4.234375 
Q 43.84375 -1.421875 31.78125 -1.421875 
Q 19.734375 -1.421875 13.25 4.234375 
Q 6.78125 9.90625 6.78125 20.515625 
Q 6.78125 27.484375 10.78125 32.3125 
Q 14.796875 37.15625 21.921875 38.8125 
z
M 18.3125 54.390625 
Q 18.3125 48.734375 21.84375 45.5625 
Q 25.390625 42.390625 31.78125 42.390625 
Q 38.140625 42.390625 41.71875 45.5625 
Q 45.3125 48.734375 45.3125 54.390625 
Q 45.3125 60.0625 41.71875 63.234375 
Q 38.140625 66.40625 31.78125 66.40625 
Q 25.390625 66.40625 21.84375 63.234375 
Q 18.3125 60.0625 18.3125 54.390625 
z
" id="DejaVuSans-56"/>
      </defs>
      <g transform="translate(23.564687 153.901305)scale(0.17 -0.17)">
       <use xlink:href="#DejaVuSans-48"/>
       <use x="63.623047" xlink:href="#DejaVuSans-46"/>
       <use x="95.410156" xlink:href="#DejaVuSans-56"/>
      </g>
     </g>
    </g>
    <g id="ytick_6">
     <g id="line2d_13">
      <g>
       <use style="stroke:#000000;stroke-width:0.8;" x="57.6" xlink:href="#m604dce7f5a" y="107.407291"/>
      </g>
     </g>
     <g id="text_14">
      <!-- 1.0 -->
      <g transform="translate(23.564687 113.865963)scale(0.17 -0.17)">
       <use xlink:href="#DejaVuSans-49"/>
       <use x="63.623047" xlink:href="#DejaVuSans-46"/>
       <use x="95.410156" xlink:href="#DejaVuSans-48"/>
      </g>
     </g>
    </g>
    <g id="ytick_7">
     <g id="line2d_14">
      <g>
       <use style="stroke:#000000;stroke-width:0.8;" x="57.6" xlink:href="#m604dce7f5a" y="67.371949"/>
      </g>
     </g>
     <g id="text_15">
      <!-- 1.2 -->
      <g transform="translate(23.564687 73.830621)scale(0.17 -0.17)">
       <use xlink:href="#DejaVuSans-49"/>
       <use x="63.623047" xlink:href="#DejaVuSans-46"/>
       <use x="95.410156" xlink:href="#DejaVuSans-50"/>
      </g>
     </g>
    </g>
    <g id="text_16">
     <!-- Density -->
     <defs>
      <path d="M 19.671875 64.796875 
L 19.671875 8.109375 
L 31.59375 8.109375 
Q 46.6875 8.109375 53.6875 14.9375 
Q 60.6875 21.78125 60.6875 36.53125 
Q 60.6875 51.171875 53.6875 57.984375 
Q 46.6875 64.796875 31.59375 64.796875 
z
M 9.8125 72.90625 
L 30.078125 72.90625 
Q 51.265625 72.90625 61.171875 64.09375 
Q 71.09375 55.28125 71.09375 36.53125 
Q 71.09375 17.671875 61.125 8.828125 
Q 51.171875 0 30.078125 0 
L 9.8125 0 
z
" id="DejaVuSans-68"/>
      <path d="M 56.203125 29.59375 
L 56.203125 25.203125 
L 14.890625 25.203125 
Q 15.484375 15.921875 20.484375 11.0625 
Q 25.484375 6.203125 34.421875 6.203125 
Q 39.59375 6.203125 44.453125 7.46875 
Q 49.3125 8.734375 54.109375 11.28125 
L 54.109375 2.78125 
Q 49.265625 0.734375 44.1875 -0.34375 
Q 39.109375 -1.421875 33.890625 -1.421875 
Q 20.796875 -1.421875 13.15625 6.1875 
Q 5.515625 13.8125 5.515625 26.8125 
Q 5.515625 40.234375 12.765625 48.109375 
Q 20.015625 56 32.328125 56 
Q 43.359375 56 49.78125 48.890625 
Q 56.203125 41.796875 56.203125 29.59375 
z
M 47.21875 32.234375 
Q 47.125 39.59375 43.09375 43.984375 
Q 39.0625 48.390625 32.421875 48.390625 
Q 24.90625 48.390625 20.390625 44.140625 
Q 15.875 39.890625 15.1875 32.171875 
z
" id="DejaVuSans-101"/>
      <path d="M 32.171875 -5.078125 
Q 28.375 -14.84375 24.75 -17.8125 
Q 21.140625 -20.796875 15.09375 -20.796875 
L 7.90625 -20.796875 
L 7.90625 -13.28125 
L 13.1875 -13.28125 
Q 16.890625 -13.28125 18.9375 -11.515625 
Q 21 -9.765625 23.484375 -3.21875 
L 25.09375 0.875 
L 2.984375 54.6875 
L 12.5 54.6875 
L 29.59375 11.921875 
L 46.6875 54.6875 
L 56.203125 54.6875 
z
" id="DejaVuSans-121"/>
     </defs>
     <g transform="translate(13.325625 231.553781)rotate(-90)scale(0.3 -0.3)">
      <use xlink:href="#DejaVuSans-68"/>
      <use x="77.001953" xlink:href="#DejaVuSans-101"/>
      <use x="138.525391" xlink:href="#DejaVuSans-110"/>
      <use x="201.904297" xlink:href="#DejaVuSans-115"/>
      <use x="254.003906" xlink:href="#DejaVuSans-105"/>
      <use x="281.787109" xlink:href="#DejaVuSans-116"/>
      <use x="320.996094" xlink:href="#DejaVuSans-121"/>
     </g>
    </g>
   </g>
   <g id="line2d_15">
    <path clip-path="url(#pcfefdb306d)" d="M 99.382817 305.463109 
L 99.806726 305.901236 
L 100.428914 306.482563 
L 100.78445 306.521856 
L 101.290406 306.309793 
L 101.912594 305.836819 
L 102.46641 305.464656 
L 102.835621 305.505409 
L 103.450972 305.82534 
L 103.902229 306.332955 
L 104.517581 306.985886 
L 104.825256 306.996752 
L 105.440607 306.683866 
L 105.939725 306.614359 
L 106.650798 306.509199 
L 107.662708 306.247163 
L 108.141315 306.4076 
L 109.474576 307.086092 
L 110.158299 306.904826 
L 110.568533 306.530483 
L 111.224908 305.932511 
L 111.546258 305.960721 
L 112.325702 306.134352 
L 112.660727 305.906294 
L 113.166682 305.219926 
L 113.522218 304.91716 
L 113.747847 304.995265 
L 114.048686 305.397937 
L 114.978549 306.775422 
L 115.265713 306.821648 
L 115.552877 306.622044 
L 116.598974 305.671248 
L 116.975022 305.840683 
L 117.781816 306.218995 
L 118.103166 306.129577 
L 118.404004 305.785102 
L 118.875773 304.818005 
L 119.340705 304.049486 
L 119.573171 304.00997 
L 119.805637 304.230423 
L 120.277406 305.092692 
L 120.769687 305.784826 
L 121.33034 306.125776 
L 121.870482 306.305346 
L 122.102948 306.117911 
L 122.403786 305.528685 
L 122.991788 304.387955 
L 123.190068 304.406835 
L 123.436209 304.723514 
L 124.448119 306.253115 
L 124.858353 306.483207 
L 125.090819 306.38189 
L 125.330123 305.989624 
L 125.671984 304.907174 
L 126.253149 303.123399 
L 126.451429 303.057795 
L 126.636034 303.284642 
L 127.497526 304.642993 
L 127.729992 304.468399 
L 128.564134 303.668329 
L 130.068326 303.507854 
L 130.55377 303.602311 
L 130.87512 303.40119 
L 131.695588 302.789277 
L 133.986061 302.444991 
L 134.362109 302.916007 
L 134.662948 303.13371 
L 134.827041 302.985131 
L 135.045833 302.403329 
L 135.907324 299.522341 
L 135.948348 299.543661 
L 136.105604 299.810931 
L 136.41328 300.90866 
L 136.878212 302.35373 
L 137.10384 302.490966 
L 137.288446 302.331063 
L 137.555098 301.752897 
L 137.951657 300.28258 
L 138.833661 296.879535 
L 139.161848 296.421081 
L 139.346453 296.449727 
L 139.531059 296.754849 
L 139.804548 297.734368 
L 140.707063 301.320836 
L 141.055762 301.747243 
L 141.342926 301.789364 
L 141.773672 301.556974 
L 142.081347 301.526976 
L 142.354837 301.754826 
L 143.011211 302.367947 
L 143.264189 302.26116 
L 143.893214 301.614648 
L 144.481216 300.881597 
L 145.869175 298.694423 
L 146.340944 298.365886 
L 146.593922 298.460495 
L 147.270808 298.852159 
L 148.25537 298.633622 
L 148.686116 298.634961 
L 149.356165 298.553026 
L 150.108261 298.782326 
L 150.347564 298.406943 
L 151.250079 296.715724 
L 151.475707 296.855428 
L 152.268827 297.5071 
L 152.6312 297.802743 
L 153.2739 298.414527 
L 153.485854 298.25238 
L 153.820879 297.641706 
L 154.518277 295.850034 
L 156.015631 291.570627 
L 156.186562 291.674351 
L 156.432702 292.151597 
L 157.389915 294.273135 
L 157.622381 294.30704 
L 157.841173 294.082261 
L 158.189872 293.318142 
L 158.716339 292.274322 
L 158.996665 292.15625 
L 159.584668 292.293411 
L 159.940204 292.489465 
L 160.268391 292.998982 
L 160.664951 293.506462 
L 160.822207 293.420047 
L 161.027324 292.9785 
L 161.396535 291.5172 
L 162.442632 286.233719 
L 163.181053 282.718177 
L 163.563938 281.84128 
L 163.912637 281.542432 
L 164.603198 281.101798 
L 165.013432 280.341915 
L 165.327945 279.974198 
L 165.471527 280.080363 
L 165.669806 280.589544 
L 166.039017 282.326307 
L 166.592833 284.639464 
L 167.153486 285.869947 
L 167.905582 287.808456 
L 168.732887 289.608945 
L 168.92433 289.654824 
L 169.081586 289.411653 
L 169.307215 288.546368 
L 169.6901 285.986952 
L 170.3328 281.964006 
L 170.640476 281.219026 
L 170.85243 281.157448 
L 171.091733 281.376374 
L 171.584014 281.828105 
L 171.809643 281.72853 
L 172.377133 281.089872 
L 172.650623 280.552846 
L 172.910438 279.438958 
L 173.389044 276.068374 
L 173.765092 274.206579 
L 173.949697 274.030928 
L 173.956535 274.034287 
L 174.093279 274.234579 
L 174.353094 275.124835 
L 174.845375 276.684797 
L 175.043655 276.756452 
L 175.317144 276.527878 
L 175.631657 276.385626 
L 175.918821 276.544003 
L 176.458962 276.831465 
L 176.684591 276.714675 
L 176.896545 276.307778 
L 177.170035 275.204414 
L 178.175108 269.418201 
L 178.551156 265.892499 
L 179.125484 260.711594 
L 179.296415 260.410286 
L 179.316927 260.421276 
L 179.433159 260.656827 
L 179.651951 261.749029 
L 180.616001 267.285774 
L 180.759583 267.254746 
L 180.985212 266.863901 
L 181.415958 266.203711 
L 181.812517 265.79526 
L 182.065495 264.984296 
L 182.544101 263.464743 
L 182.64666 263.574084 
L 182.803916 264.203623 
L 183.09108 266.504735 
L 183.603873 270.342453 
L 183.815827 270.673929 
L 183.959409 270.541621 
L 184.547411 269.825857 
L 184.950808 269.734459 
L 185.190111 269.286726 
L 185.689229 268.349361 
L 185.832811 268.458901 
L 186.031091 268.981692 
L 186.42765 270.837394 
L 186.906257 272.710556 
L 187.118211 272.895219 
L 187.275468 272.73707 
L 187.576306 272.003435 
L 188.020726 271.107681 
L 188.471984 270.420544 
L 188.759147 269.318715 
L 190.078734 263.457744 
L 190.543666 262.582164 
L 190.75562 262.521931 
L 190.912876 262.738495 
L 191.131668 263.495678 
L 191.541902 265.942777 
L 191.952136 267.823984 
L 192.143579 267.976742 
L 192.293998 267.778884 
L 192.601673 266.885356 
L 193.736654 263.513298 
L 194.030655 263.028518 
L 194.153725 263.125705 
L 194.324656 263.652065 
L 194.604983 265.413881 
L 195.138287 268.664311 
L 195.227171 268.705268 
L 195.261357 268.663919 
L 195.391265 268.21486 
L 195.623731 266.409863 
L 196.266431 261.154571 
L 196.375827 261.067448 
L 196.410013 261.09649 
L 196.553595 261.451798 
L 197.298853 263.712701 
L 197.811646 264.206807 
L 198.310764 264.843218 
L 198.474858 264.718383 
L 198.693649 264.19582 
L 199.117558 262.448622 
L 199.671374 260.47013 
L 199.979049 260.059045 
L 200.184166 260.093982 
L 200.430307 260.420796 
L 200.874727 260.991848 
L 201.011472 260.84916 
L 201.202914 260.233806 
L 201.531102 258.241831 
L 202.139615 254.707 
L 202.378919 254.333868 
L 202.536175 254.419136 
L 202.973758 254.834344 
L 203.001107 254.803642 
L 203.144689 254.417362 
L 203.356643 253.078365 
L 204.224972 246.524013 
L 204.238646 246.528555 
L 204.354879 246.718873 
L 204.587345 247.668268 
L 205.359953 250.989371 
L 205.797536 251.924182 
L 206.077863 252.102925 
L 206.276142 251.986886 
L 206.488097 251.557444 
L 206.747912 250.451524 
L 207.178657 247.40626 
L 207.739311 243.962251 
L 208.197405 242.493157 
L 208.464057 242.195268 
L 208.621314 242.309421 
L 208.867454 242.862735 
L 209.270851 243.660548 
L 209.393921 243.556409 
L 209.564852 243.005431 
L 209.858853 241.106094 
L 210.357971 238.089961 
L 210.467367 238.011876 
L 210.501553 238.0455 
L 210.638298 238.435344 
L 210.98016 240.371157 
L 211.246812 241.20489 
L 211.342533 241.102092 
L 211.49979 240.447618 
L 211.834814 237.808287 
L 212.354444 234.256101 
L 212.83305 232.532961 
L 213.393703 230.723281 
L 213.653518 228.524089 
L 214.562871 219.60157 
L 214.986779 218.204382 
L 215.260269 215.817185 
L 215.820922 210.903699 
L 215.882457 210.860582 
L 215.930318 210.932081 
L 216.053388 211.545013 
L 216.272179 214.013537 
L 217.133671 224.999383 
L 217.352462 225.367564 
L 217.755859 225.622894 
L 218.015674 226.404737 
L 218.466932 227.662077 
L 218.637862 227.663519 
L 218.829305 227.3503 
L 219.123306 226.369987 
L 219.437819 224.480316 
L 219.85489 220.314859 
L 220.37452 215.771945 
L 220.641172 215.004642 
L 220.805266 214.989084 
L 220.983034 215.264985 
L 221.249686 216.170231 
L 221.714618 218.749454 
L 222.111178 220.397152 
L 222.309457 220.543239 
L 222.473551 220.35242 
L 223.123088 219.342702 
L 223.1436 219.356301 
L 223.300856 219.626427 
L 223.526485 220.568428 
L 223.888859 223.250811 
L 224.415326 226.793791 
L 224.545233 226.954006 
L 224.579419 226.926065 
L 224.695652 226.600147 
L 224.893932 225.235375 
L 225.317841 220.249347 
L 225.659702 217.504988 
L 225.762261 217.360146 
L 225.803284 217.396256 
L 225.926354 217.791405 
L 226.206681 219.678005 
L 226.616915 221.92407 
L 226.856218 222.249593 
L 227.382685 222.598745 
L 227.656175 222.757227 
L 227.792919 222.565291 
L 227.984362 221.819371 
L 228.305712 219.453743 
L 228.75697 216.524916 
L 228.866365 216.422766 
L 228.900551 216.455333 
L 229.030459 216.843769 
L 229.317623 218.658611 
L 229.611624 219.940575 
L 229.693671 219.856651 
L 229.823578 219.194998 
L 230.04237 216.668186 
L 230.842326 206.261021 
L 230.938047 206.178229 
L 230.979071 206.215089 
L 231.163676 206.659797 
L 231.32777 206.9012 
L 231.355119 206.876982 
L 231.457677 206.528762 
L 231.614934 204.99306 
L 231.854237 199.994089 
L 232.681542 180.450316 
L 232.73624 180.550745 
L 232.852473 181.517716 
L 233.078102 185.722382 
L 234.438711 215.283868 
L 234.595968 216.232904 
L 234.630154 216.168467 
L 234.719038 215.380052 
L 234.86262 211.655636 
L 235.0609 199.684006 
L 235.327552 167.887328 
L 236.154857 54.144 
L 236.175369 54.28624 
L 236.250579 56.677352 
L 236.414672 71.085455 
L 236.818069 133.548786 
L 237.23514 181.453815 
L 237.515467 193.090527 
L 237.720584 194.910185 
L 237.775282 194.861799 
L 237.788956 194.826668 
L 237.939376 194.037676 
L 239.060682 185.523679 
L 239.518777 181.179863 
L 239.566637 181.142459 
L 239.614498 181.229081 
L 239.730731 181.985575 
L 239.935848 185.161789 
L 240.380268 196.648816 
L 240.927247 208.373281 
L 241.303295 212.415755 
L 241.542598 213.193631 
L 241.651994 213.118958 
L 241.843436 212.56082 
L 242.198973 211.650314 
L 242.301531 211.781306 
L 242.465625 212.505673 
L 242.834835 215.529593 
L 243.121999 216.95667 
L 243.190372 216.949768 
L 243.217721 216.905125 
L 243.354465 216.342955 
L 243.641629 213.925651 
L 244.038189 211.217954 
L 244.154422 211.089936 
L 244.188608 211.116001 
L 244.318515 211.448811 
L 244.592005 212.954297 
L 245.084286 215.428159 
L 245.241542 215.564598 
L 245.262054 215.551708 
L 245.391961 215.307355 
L 245.624427 214.274777 
L 246.130383 212.042423 
L 246.226104 212.127431 
L 246.369686 212.732775 
L 246.615826 214.972447 
L 247.42262 222.997755 
L 247.74397 223.966971 
L 248.666997 225.893117 
L 248.981509 227.949508 
L 249.562674 231.756838 
L 249.699419 231.868221 
L 249.726768 231.848433 
L 249.877187 231.546927 
L 250.581422 229.854142 
L 250.909609 229.383809 
L 251.169424 228.49342 
L 251.565984 226.172339 
L 252.19501 222.656451 
L 252.434313 222.314421 
L 252.906082 222.079307 
L 253.097525 221.270699 
L 253.412037 218.739576 
L 253.863295 215.52895 
L 253.972691 215.39903 
L 254.013714 215.435783 
L 254.136784 215.818087 
L 254.362413 217.414009 
L 255.340137 225.293797 
L 255.613627 225.699145 
L 255.976 226.118396 
L 256.311025 227.048511 
L 256.728096 227.996428 
L 256.933213 228.030974 
L 257.596425 227.842913 
L 258.293823 228.492389 
L 258.321172 228.46315 
L 258.553638 228.011919 
L 258.950197 227.318746 
L 259.073268 227.449206 
L 259.244198 228.056967 
L 259.524525 230.054826 
L 260.762064 240.0758 
L 260.864623 240.077426 
L 260.885135 240.053504 
L 261.035554 239.660435 
L 261.363741 237.989964 
L 262.129511 234.263817 
L 262.642304 232.619878 
L 262.963654 232.2296 
L 263.202957 232.235773 
L 263.414911 232.491423 
L 263.674726 233.218487 
L 264.502032 235.908654 
L 264.508869 235.906321 
L 264.645614 235.732867 
L 264.871242 234.987742 
L 265.664362 231.99211 
L 265.671199 231.994551 
L 265.780595 232.156731 
L 265.958363 232.926517 
L 266.313899 235.765446 
L 266.642086 237.585399 
L 266.703621 237.593339 
L 266.737807 237.53984 
L 266.860878 236.998081 
L 267.086506 234.744527 
L 267.811253 226.879531 
L 268.009533 226.586598 
L 268.194138 226.714382 
L 268.433442 226.789483 
L 268.61121 226.547764 
L 269.089816 225.738374 
L 269.117165 225.757873 
L 269.247073 226.031941 
L 269.445352 227.084886 
L 269.759865 230.19146 
L 270.498286 237.725162 
L 270.676055 238.045951 
L 270.689729 238.039615 
L 270.805962 237.82814 
L 271.038428 236.784991 
L 271.674291 233.867445 
L 272.098199 233.077796 
L 272.323828 232.972444 
L 272.460573 233.167317 
L 272.645178 233.898818 
L 272.925505 236.093938 
L 273.636577 241.955533 
L 273.834857 242.216817 
L 273.992113 242.061653 
L 274.313463 241.755439 
L 274.320301 241.760276 
L 274.450208 242.006644 
L 274.641651 242.966549 
L 274.983512 246.10374 
L 275.475793 250.068196 
L 275.694585 250.474449 
L 275.817655 250.355248 
L 276.063795 249.690675 
L 277.472266 245.434423 
L 277.656871 245.449657 
L 277.861988 245.739424 
L 278.135477 246.565208 
L 278.491014 248.47403 
L 279.270458 252.801944 
L 279.694367 253.831833 
L 280.084089 254.28697 
L 280.296044 254.268856 
L 280.480649 253.995032 
L 280.719952 253.170126 
L 281.096 250.90681 
L 281.882282 246.240847 
L 282.3814 244.461249 
L 282.566005 244.346841 
L 282.572843 244.351237 
L 282.716425 244.592717 
L 282.955728 245.555404 
L 283.591591 248.246177 
L 283.707824 248.196541 
L 283.86508 247.751657 
L 284.172756 246.005457 
L 284.576152 244.120018 
L 284.685548 244.069984 
L 284.712897 244.097134 
L 284.849642 244.468514 
L 285.088945 245.924053 
L 285.936762 251.613703 
L 286.176065 251.9502 
L 286.319647 251.863668 
L 286.51109 251.408375 
L 286.805091 250.004976 
L 287.413605 247.081616 
L 287.550349 247.031455 
L 287.570861 247.05008 
L 287.72128 247.383982 
L 287.981095 248.64207 
L 288.493888 252.480325 
L 289.314356 258.372771 
L 289.594683 259.070902 
L 289.751939 259.049145 
L 289.936544 258.693426 
L 290.319429 257.310566 
L 290.668128 256.418499 
L 290.804873 256.455452 
L 290.962129 256.850623 
L 291.221944 258.258727 
L 292.069761 263.314332 
L 292.309065 263.591235 
L 292.507344 263.518248 
L 292.81502 263.112168 
L 293.218417 262.18536 
L 294.326049 259.367272 
L 294.613213 259.172859 
L 294.784144 259.308908 
L 294.982423 259.819467 
L 295.26275 261.268378 
L 296.219963 266.821396 
L 296.452429 267.011879 
L 296.965221 267.132121 
L 297.163501 267.727279 
L 297.471177 269.506491 
L 297.997644 272.395099 
L 298.134388 272.509401 
L 298.161737 272.490345 
L 298.298482 272.19571 
L 298.544623 270.98805 
L 299.365091 266.598404 
L 299.501835 266.543409 
L 299.522347 266.561014 
L 299.665929 266.873843 
L 299.905232 268.051456 
L 300.780398 272.887592 
L 300.937655 272.929091 
L 300.944492 272.923417 
L 301.101748 272.636208 
L 301.409424 271.472281 
L 301.833332 270.122169 
L 302.017938 270.064218 
L 302.20938 270.307886 
L 302.92729 271.371384 
L 303.351198 271.537274 
L 303.556315 271.395844 
L 303.795619 270.89653 
L 304.588738 268.976928 
L 304.773343 269.046753 
L 305.033158 269.446415 
L 305.81944 270.783848 
L 306.024557 270.729006 
L 306.257023 270.382854 
L 306.66042 269.28385 
L 307.932146 265.696375 
L 308.130425 265.624162 
L 308.294519 265.839166 
L 308.547497 266.626909 
L 310.208945 273.720332 
L 310.721737 275.875339 
L 310.947366 276.093922 
L 311.118297 275.952238 
L 311.665276 275.374371 
L 311.836207 275.622051 
L 312.164394 276.614196 
L 312.540442 277.487274 
L 312.71821 277.501409 
L 312.902815 277.236603 
L 313.210491 276.320778 
L 314.154029 273.227067 
L 314.365983 273.245305 
L 314.632635 273.247679 
L 314.796729 272.94679 
L 315.029195 271.937058 
L 315.719756 268.628583 
L 315.829152 268.71743 
L 316.000082 269.258385 
L 316.950458 272.948389 
L 316.957295 272.946398 
L 317.09404 272.785626 
L 317.299157 272.122734 
L 317.682042 269.940557 
L 318.085439 268.116217 
L 318.222184 268.028448 
L 318.249533 268.050611 
L 318.393114 268.372282 
L 318.673441 269.716867 
L 319.158885 271.831196 
L 319.370839 272.000551 
L 319.548607 271.8386 
L 320.498983 270.663432 
L 321.011775 270.451657 
L 321.169032 270.682465 
L 321.374149 271.469021 
L 321.702336 273.82861 
L 322.18778 276.978152 
L 322.338199 277.157435 
L 322.365548 277.140716 
L 322.495455 276.875072 
L 322.762107 275.664565 
L 323.233877 273.720296 
L 323.425319 273.607335 
L 323.59625 273.82475 
L 324.081694 275.003801 
L 324.765417 276.897631 
L 325.134628 277.720488 
L 325.332908 277.738411 
L 325.688444 277.689764 
L 325.852537 278.039741 
L 326.112352 279.240643 
L 326.714029 282.060461 
L 326.905471 282.18779 
L 327.055891 281.991635 
L 327.295194 281.220858 
L 327.691753 279.033767 
L 328.272918 276.0336 
L 328.484873 275.808881 
L 328.628455 275.971324 
L 328.901944 276.724212 
L 329.510458 278.333028 
L 329.934366 279.398277 
L 330.317252 281.185477 
L 330.93944 283.961833 
L 331.472744 285.09837 
L 332.86754 288.349836 
L 333.9068 292.81827 
L 334.098242 292.792248 
L 334.884524 292.381317 
L 335.164851 292.670819 
L 335.493038 293.361359 
L 335.903272 294.811009 
L 336.60067 297.262953 
L 336.785275 297.330655 
L 336.935695 297.099794 
L 337.174998 296.232008 
L 338.200583 291.891253 
L 338.426212 291.861212 
L 339.0484 291.959003 
L 339.752635 291.675494 
L 339.964589 292.033671 
L 340.320126 293.173466 
L 340.935477 295.023888 
L 341.167943 295.184416 
L 341.338874 295.027353 
L 341.612363 294.382852 
L 342.097807 293.327043 
L 342.302924 293.314842 
L 342.651623 293.634979 
L 342.945624 293.74631 
L 343.232788 293.582432 
L 344.525025 292.371377 
L 345.092515 291.516768 
L 345.270283 291.568294 
L 345.461726 291.917788 
L 345.74889 293.004715 
L 346.658242 296.79032 
L 346.890708 296.935215 
L 347.492385 296.980328 
L 347.711176 297.624414 
L 348.545319 300.638901 
L 348.572668 300.626458 
L 348.71625 300.404768 
L 348.982902 299.479449 
L 349.60509 297.342307 
L 349.987975 296.846678 
L 350.473419 296.553886 
L 350.705885 296.649318 
L 350.9657 297.044152 
L 351.656261 298.200417 
L 351.840866 298.098631 
L 352.114355 297.612287 
L 352.757055 296.43546 
L 352.941661 296.465367 
L 353.146778 296.781458 
L 353.591198 298.031847 
L 354.028781 298.918556 
L 354.992831 300.055321 
L 355.211623 299.995087 
L 355.491949 299.631275 
L 356.120975 298.339454 
L 356.531209 296.989909 
L 357.057676 295.342474 
L 357.214932 295.341181 
L 357.379026 295.660677 
L 357.734562 297.010594 
L 358.131122 298.151822 
L 358.363588 298.286178 
L 358.6781 298.140073 
L 359.006288 298.091879 
L 359.813081 298.205809 
L 360.448944 297.927977 
L 360.866015 298.122185 
L 361.330947 298.246874 
L 361.638623 298.104339 
L 361.932624 297.692577 
L 362.951372 295.955625 
L 363.341094 296.089086 
L 363.799189 296.400394 
L 364.065841 296.932268 
L 364.462401 298.335902 
L 365.563196 302.360082 
L 365.946081 303.052528 
L 366.205896 303.139279 
L 366.506734 302.966056 
L 366.93748 302.765229 
L 367.190457 302.91248 
L 367.792134 303.341832 
L 368.031437 303.154226 
L 368.54423 302.723839 
L 368.749347 302.866193 
L 369.091209 303.456604 
L 369.562978 304.141434 
L 369.822793 304.174752 
L 370.602237 304.054605 
L 371.149216 304.214055 
L 371.43638 304.005769 
L 371.887638 303.34646 
L 372.865362 301.711135 
L 372.865362 301.711135 
" style="fill:none;stroke:#ff7f0e;stroke-linecap:square;stroke-width:1.5;"/>
   </g>
   <g id="patch_103">
    <path d="M 57.6 307.584 
L 57.6 41.472 
" style="fill:none;stroke:#000000;stroke-linecap:square;stroke-linejoin:miter;stroke-width:0.8;"/>
   </g>
   <g id="patch_104">
    <path d="M 414.72 307.584 
L 414.72 41.472 
" style="fill:none;stroke:#000000;stroke-linecap:square;stroke-linejoin:miter;stroke-width:0.8;"/>
   </g>
   <g id="patch_105">
    <path d="M 57.6 307.584 
L 414.72 307.584 
" style="fill:none;stroke:#000000;stroke-linecap:square;stroke-linejoin:miter;stroke-width:0.8;"/>
   </g>
   <g id="patch_106">
    <path d="M 57.6 41.472 
L 414.72 41.472 
" style="fill:none;stroke:#000000;stroke-linecap:square;stroke-linejoin:miter;stroke-width:0.8;"/>
   </g>
  </g>
 </g>
 <defs>
  <clipPath id="pcfefdb306d">
   <rect height="266.112" width="357.12" x="57.6" y="41.472"/>
  </clipPath>
 </defs>
</svg>
