<?xml version="1.0" encoding="utf-8" standalone="no"?>
<!DOCTYPE svg PUBLIC "-//W3C//DTD SVG 1.1//EN"
  "http://www.w3.org/Graphics/SVG/1.1/DTD/svg11.dtd">
<!-- Created with matplotlib (https://matplotlib.org/) -->
<svg height="345.6pt" version="1.1" viewBox="0 0 460.8 345.6" width="460.8pt" xmlns="http://www.w3.org/2000/svg" xmlns:xlink="http://www.w3.org/1999/xlink">
 <defs>
  <style type="text/css">
*{stroke-linecap:butt;stroke-linejoin:round;}
  </style>
 </defs>
 <g id="figure_1">
  <g id="patch_1">
   <path d="M 0 345.6 
L 460.8 345.6 
L 460.8 0 
L 0 0 
z
" style="fill:#ffffff;"/>
  </g>
  <g id="axes_1">
   <g id="patch_2">
    <path d="M 57.6 307.584 
L 414.72 307.584 
L 414.72 41.472 
L 57.6 41.472 
z
" style="fill:#ffffff;"/>
   </g>
   <g id="patch_3">
    <path clip-path="url(#p1475ba9905)" d="M 100.169174 307.584 
L 102.889108 307.584 
L 102.889108 304.922785 
L 100.169174 304.922785 
z
" style="fill:#1f77b4;"/>
   </g>
   <g id="patch_4">
    <path clip-path="url(#p1475ba9905)" d="M 102.889124 307.584 
L 105.609059 307.584 
L 105.609059 306.374357 
L 102.889124 306.374357 
z
" style="fill:#1f77b4;"/>
   </g>
   <g id="patch_5">
    <path clip-path="url(#p1475ba9905)" d="M 105.609059 307.584 
L 108.329001 307.584 
L 108.329001 306.858216 
L 105.609059 306.858216 
z
" style="fill:#1f77b4;"/>
   </g>
   <g id="patch_6">
    <path clip-path="url(#p1475ba9905)" d="M 108.328993 307.584 
L 111.048936 307.584 
L 111.048936 305.890504 
L 108.328993 305.890504 
z
" style="fill:#1f77b4;"/>
   </g>
   <g id="patch_7">
    <path clip-path="url(#p1475ba9905)" d="M 111.048943 307.584 
L 113.768878 307.584 
L 113.768878 307.342071 
L 111.048943 307.342071 
z
" style="fill:#1f77b4;"/>
   </g>
   <g id="patch_8">
    <path clip-path="url(#p1475ba9905)" d="M 113.768878 307.584 
L 116.488813 307.584 
L 116.488813 306.616285 
L 113.768878 306.616285 
z
" style="fill:#1f77b4;"/>
   </g>
   <g id="patch_9">
    <path clip-path="url(#p1475ba9905)" d="M 116.488813 307.584 
L 119.208755 307.584 
L 119.208755 305.890504 
L 116.488813 305.890504 
z
" style="fill:#1f77b4;"/>
   </g>
   <g id="patch_10">
    <path clip-path="url(#p1475ba9905)" d="M 119.208755 307.584 
L 121.92869 307.584 
L 121.92869 304.922785 
L 119.208755 304.922785 
z
" style="fill:#1f77b4;"/>
   </g>
   <g id="patch_11">
    <path clip-path="url(#p1475ba9905)" d="M 121.92869 307.584 
L 124.648624 307.584 
L 124.648624 304.922785 
L 121.92869 304.922785 
z
" style="fill:#1f77b4;"/>
   </g>
   <g id="patch_12">
    <path clip-path="url(#p1475ba9905)" d="M 124.648616 307.584 
L 127.368559 307.584 
L 127.368559 302.987369 
L 124.648616 302.987369 
z
" style="fill:#1f77b4;"/>
   </g>
   <g id="patch_13">
    <path clip-path="url(#p1475ba9905)" d="M 127.368566 307.584 
L 130.088501 307.584 
L 130.088501 301.777712 
L 127.368566 301.777712 
z
" style="fill:#1f77b4;"/>
   </g>
   <g id="patch_14">
    <path clip-path="url(#p1475ba9905)" d="M 130.088501 307.584 
L 132.808443 307.584 
L 132.808443 301.051945 
L 130.088501 301.051945 
z
" style="fill:#1f77b4;"/>
   </g>
   <g id="patch_15">
    <path clip-path="url(#p1475ba9905)" d="M 132.808443 307.584 
L 135.528378 307.584 
L 135.528378 300.326141 
L 132.808443 300.326141 
z
" style="fill:#1f77b4;"/>
   </g>
   <g id="patch_16">
    <path clip-path="url(#p1475ba9905)" d="M 135.528378 307.584 
L 138.248313 307.584 
L 138.248313 293.068281 
L 135.528378 293.068281 
z
" style="fill:#1f77b4;"/>
   </g>
   <g id="patch_17">
    <path clip-path="url(#p1475ba9905)" d="M 138.248305 307.584 
L 140.968247 307.584 
L 140.968247 294.036034 
L 138.248305 294.036034 
z
" style="fill:#1f77b4;"/>
   </g>
   <g id="patch_18">
    <path clip-path="url(#p1475ba9905)" d="M 140.968255 307.584 
L 143.68819 307.584 
L 143.68819 299.116497 
L 140.968255 299.116497 
z
" style="fill:#1f77b4;"/>
   </g>
   <g id="patch_19">
    <path clip-path="url(#p1475ba9905)" d="M 143.68819 307.584 
L 146.408124 307.584 
L 146.408124 299.600355 
L 143.68819 299.600355 
z
" style="fill:#1f77b4;"/>
   </g>
   <g id="patch_20">
    <path clip-path="url(#p1475ba9905)" d="M 146.408124 307.584 
L 149.128067 307.584 
L 149.128067 295.245674 
L 146.408124 295.245674 
z
" style="fill:#1f77b4;"/>
   </g>
   <g id="patch_21">
    <path clip-path="url(#p1475ba9905)" d="M 149.128067 307.584 
L 151.848001 307.584 
L 151.848001 291.616709 
L 149.128067 291.616709 
z
" style="fill:#1f77b4;"/>
   </g>
   <g id="patch_22">
    <path clip-path="url(#p1475ba9905)" d="M 151.847994 307.584 
L 154.567936 307.584 
L 154.567936 290.649043 
L 151.847994 290.649043 
z
" style="fill:#1f77b4;"/>
   </g>
   <g id="patch_23">
    <path clip-path="url(#p1475ba9905)" d="M 154.567944 307.584 
L 157.287878 307.584 
L 157.287878 291.616709 
L 154.567944 291.616709 
z
" style="fill:#1f77b4;"/>
   </g>
   <g id="patch_24">
    <path clip-path="url(#p1475ba9905)" d="M 157.287878 307.584 
L 160.007813 307.584 
L 160.007813 292.100567 
L 157.287878 292.100567 
z
" style="fill:#1f77b4;"/>
   </g>
   <g id="patch_25">
    <path clip-path="url(#p1475ba9905)" d="M 160.007813 307.584 
L 162.727755 307.584 
L 162.727755 284.358916 
L 160.007813 284.358916 
z
" style="fill:#1f77b4;"/>
   </g>
   <g id="patch_26">
    <path clip-path="url(#p1475ba9905)" d="M 162.727755 307.584 
L 165.44769 307.584 
L 165.44769 281.939563 
L 162.727755 281.939563 
z
" style="fill:#1f77b4;"/>
   </g>
   <g id="patch_27">
    <path clip-path="url(#p1475ba9905)" d="M 165.447682 307.584 
L 168.167625 307.584 
L 168.167625 287.745907 
L 165.447682 287.745907 
z
" style="fill:#1f77b4;"/>
   </g>
   <g id="patch_28">
    <path clip-path="url(#p1475ba9905)" d="M 168.167632 307.584 
L 170.887567 307.584 
L 170.887567 287.745851 
L 168.167632 287.745851 
z
" style="fill:#1f77b4;"/>
   </g>
   <g id="patch_29">
    <path clip-path="url(#p1475ba9905)" d="M 170.887567 307.584 
L 173.607505 307.584 
L 173.607505 286.294309 
L 170.887567 286.294309 
z
" style="fill:#1f77b4;"/>
   </g>
   <g id="patch_30">
    <path clip-path="url(#p1475ba9905)" d="M 173.607505 307.584 
L 176.32744 307.584 
L 176.32744 285.568493 
L 173.607505 285.568493 
z
" style="fill:#1f77b4;"/>
   </g>
   <g id="patch_31">
    <path clip-path="url(#p1475ba9905)" d="M 176.327444 307.584 
L 179.047382 307.584 
L 179.047382 286.536238 
L 176.327444 286.536238 
z
" style="fill:#1f77b4;"/>
   </g>
   <g id="patch_32">
    <path clip-path="url(#p1475ba9905)" d="M 179.047379 307.584 
L 181.767317 307.584 
L 181.767317 284.84274 
L 179.047379 284.84274 
z
" style="fill:#1f77b4;"/>
   </g>
   <g id="patch_33">
    <path clip-path="url(#p1475ba9905)" d="M 181.767321 307.584 
L 184.487259 307.584 
L 184.487259 283.633098 
L 181.767321 283.633098 
z
" style="fill:#1f77b4;"/>
   </g>
   <g id="patch_34">
    <path clip-path="url(#p1475ba9905)" d="M 184.487256 307.584 
L 187.20719 307.584 
L 187.20719 279.278348 
L 184.487256 279.278348 
z
" style="fill:#1f77b4;"/>
   </g>
   <g id="patch_35">
    <path clip-path="url(#p1475ba9905)" d="M 187.20719 307.584 
L 189.927129 307.584 
L 189.927129 272.988253 
L 187.20719 272.988253 
z
" style="fill:#1f77b4;"/>
   </g>
   <g id="patch_36">
    <path clip-path="url(#p1475ba9905)" d="M 189.927133 307.584 
L 192.647071 307.584 
L 192.647071 273.955966 
L 189.927133 273.955966 
z
" style="fill:#1f77b4;"/>
   </g>
   <g id="patch_37">
    <path clip-path="url(#p1475ba9905)" d="M 192.647067 307.584 
L 195.367006 307.584 
L 195.367006 284.600811 
L 192.647067 284.600811 
z
" style="fill:#1f77b4;"/>
   </g>
   <g id="patch_38">
    <path clip-path="url(#p1475ba9905)" d="M 195.367006 307.584 
L 198.08694 307.584 
L 198.08694 289.68128 
L 195.367006 289.68128 
z
" style="fill:#1f77b4;"/>
   </g>
   <g id="patch_39">
    <path clip-path="url(#p1475ba9905)" d="M 198.086944 307.584 
L 200.806883 307.584 
L 200.806883 285.326596 
L 198.086944 285.326596 
z
" style="fill:#1f77b4;"/>
   </g>
   <g id="patch_40">
    <path clip-path="url(#p1475ba9905)" d="M 200.806879 307.584 
L 203.526817 307.584 
L 203.526817 284.116955 
L 200.806879 284.116955 
z
" style="fill:#1f77b4;"/>
   </g>
   <g id="patch_41">
    <path clip-path="url(#p1475ba9905)" d="M 203.526817 307.584 
L 206.246754 307.584 
L 206.246754 288.955507 
L 203.526817 288.955507 
z
" style="fill:#1f77b4;"/>
   </g>
   <g id="patch_42">
    <path clip-path="url(#p1475ba9905)" d="M 206.246754 307.584 
L 208.966692 307.584 
L 208.966692 280.971887 
L 206.246754 280.971887 
z
" style="fill:#1f77b4;"/>
   </g>
   <g id="patch_43">
    <path clip-path="url(#p1475ba9905)" d="M 208.966694 307.584 
L 211.686631 307.584 
L 211.686631 270.327015 
L 208.966694 270.327015 
z
" style="fill:#1f77b4;"/>
   </g>
   <g id="patch_44">
    <path clip-path="url(#p1475ba9905)" d="M 211.686629 307.584 
L 214.406567 307.584 
L 214.406567 265.730404 
L 211.686629 265.730404 
z
" style="fill:#1f77b4;"/>
   </g>
   <g id="patch_45">
    <path clip-path="url(#p1475ba9905)" d="M 214.406567 307.584 
L 217.126504 307.584 
L 217.126504 242.747169 
L 214.406567 242.747169 
z
" style="fill:#1f77b4;"/>
   </g>
   <g id="patch_46">
    <path clip-path="url(#p1475ba9905)" d="M 217.126504 307.584 
L 219.846442 307.584 
L 219.846442 240.327932 
L 217.126504 240.327932 
z
" style="fill:#1f77b4;"/>
   </g>
   <g id="patch_47">
    <path clip-path="url(#p1475ba9905)" d="M 219.846442 307.584 
L 222.56638 307.584 
L 222.56638 249.279258 
L 219.846442 249.279258 
z
" style="fill:#1f77b4;"/>
   </g>
   <g id="patch_48">
    <path clip-path="url(#p1475ba9905)" d="M 222.566379 307.584 
L 225.286317 307.584 
L 225.286317 227.021847 
L 222.566379 227.021847 
z
" style="fill:#1f77b4;"/>
   </g>
   <g id="patch_49">
    <path clip-path="url(#p1475ba9905)" d="M 225.286318 307.584 
L 228.006255 307.584 
L 228.006255 210.812645 
L 225.286318 210.812645 
z
" style="fill:#1f77b4;"/>
   </g>
   <g id="patch_50">
    <path clip-path="url(#p1475ba9905)" d="M 228.006255 307.584 
L 230.726193 307.584 
L 230.726193 183.474737 
L 228.006255 183.474737 
z
" style="fill:#1f77b4;"/>
   </g>
   <g id="patch_51">
    <path clip-path="url(#p1475ba9905)" d="M 230.726193 307.584 
L 233.44613 307.584 
L 233.44613 122.266855 
L 230.726193 122.266855 
z
" style="fill:#1f77b4;"/>
   </g>
   <g id="patch_52">
    <path clip-path="url(#p1475ba9905)" d="M 233.44613 307.584 
L 236.166068 307.584 
L 236.166068 142.104983 
L 233.44613 142.104983 
z
" style="fill:#1f77b4;"/>
   </g>
   <g id="patch_53">
    <path clip-path="url(#p1475ba9905)" d="M 236.166068 307.584 
L 238.886005 307.584 
L 238.886005 109.44465 
L 236.166068 109.44465 
z
" style="fill:#1f77b4;"/>
   </g>
   <g id="patch_54">
    <path clip-path="url(#p1475ba9905)" d="M 238.886005 307.584 
L 241.605943 307.584 
L 241.605943 168.717105 
L 238.886005 168.717105 
z
" style="fill:#1f77b4;"/>
   </g>
   <g id="patch_55">
    <path clip-path="url(#p1475ba9905)" d="M 241.605943 307.584 
L 244.32588 307.584 
L 244.32588 207.667576 
L 241.605943 207.667576 
z
" style="fill:#1f77b4;"/>
   </g>
   <g id="patch_56">
    <path clip-path="url(#p1475ba9905)" d="M 244.325879 307.584 
L 247.045817 307.584 
L 247.045817 198.716225 
L 244.325879 198.716225 
z
" style="fill:#1f77b4;"/>
   </g>
   <g id="patch_57">
    <path clip-path="url(#p1475ba9905)" d="M 247.045818 307.584 
L 249.765755 307.584 
L 249.765755 208.393361 
L 247.045818 208.393361 
z
" style="fill:#1f77b4;"/>
   </g>
   <g id="patch_58">
    <path clip-path="url(#p1475ba9905)" d="M 249.765754 307.584 
L 252.485691 307.584 
L 252.485691 208.151432 
L 249.765754 208.151432 
z
" style="fill:#1f77b4;"/>
   </g>
   <g id="patch_59">
    <path clip-path="url(#p1475ba9905)" d="M 252.485693 307.584 
L 255.205631 307.584 
L 255.205631 213.715819 
L 252.485693 213.715819 
z
" style="fill:#1f77b4;"/>
   </g>
   <g id="patch_60">
    <path clip-path="url(#p1475ba9905)" d="M 255.205633 307.584 
L 257.92557 307.584 
L 257.92557 230.408817 
L 255.205633 230.408817 
z
" style="fill:#1f77b4;"/>
   </g>
   <g id="patch_61">
    <path clip-path="url(#p1475ba9905)" d="M 257.925568 307.584 
L 260.645506 307.584 
L 260.645506 262.101479 
L 257.925568 262.101479 
z
" style="fill:#1f77b4;"/>
   </g>
   <g id="patch_62">
    <path clip-path="url(#p1475ba9905)" d="M 260.645506 307.584 
L 263.365443 307.584 
L 263.365443 270.810872 
L 260.645506 270.810872 
z
" style="fill:#1f77b4;"/>
   </g>
   <g id="patch_63">
    <path clip-path="url(#p1475ba9905)" d="M 263.365443 307.584 
L 266.085381 307.584 
L 266.085381 280.971887 
L 263.365443 280.971887 
z
" style="fill:#1f77b4;"/>
   </g>
   <g id="patch_64">
    <path clip-path="url(#p1475ba9905)" d="M 266.085383 307.584 
L 268.805322 307.584 
L 268.805322 279.278369 
L 266.085383 279.278369 
z
" style="fill:#1f77b4;"/>
   </g>
   <g id="patch_65">
    <path clip-path="url(#p1475ba9905)" d="M 268.805322 307.584 
L 271.52526 307.584 
L 271.52526 281.213815 
L 268.805322 281.213815 
z
" style="fill:#1f77b4;"/>
   </g>
   <g id="patch_66">
    <path clip-path="url(#p1475ba9905)" d="M 271.525256 307.584 
L 274.245195 307.584 
L 274.245195 288.713592 
L 271.525256 288.713592 
z
" style="fill:#1f77b4;"/>
   </g>
   <g id="patch_67">
    <path clip-path="url(#p1475ba9905)" d="M 274.245195 307.584 
L 276.96513 307.584 
L 276.96513 292.826353 
L 274.245195 292.826353 
z
" style="fill:#1f77b4;"/>
   </g>
   <g id="patch_68">
    <path clip-path="url(#p1475ba9905)" d="M 276.965133 307.584 
L 279.685072 307.584 
L 279.685072 295.245657 
L 276.965133 295.245657 
z
" style="fill:#1f77b4;"/>
   </g>
   <g id="patch_69">
    <path clip-path="url(#p1475ba9905)" d="M 279.685068 307.584 
L 282.405007 307.584 
L 282.405007 295.245657 
L 279.685068 295.245657 
z
" style="fill:#1f77b4;"/>
   </g>
   <g id="patch_70">
    <path clip-path="url(#p1475ba9905)" d="M 282.40501 307.584 
L 285.124949 307.584 
L 285.124949 293.552158 
L 282.40501 293.552158 
z
" style="fill:#1f77b4;"/>
   </g>
   <g id="patch_71">
    <path clip-path="url(#p1475ba9905)" d="M 285.124945 307.584 
L 287.84488 307.584 
L 287.84488 294.761782 
L 285.124945 294.761782 
z
" style="fill:#1f77b4;"/>
   </g>
   <g id="patch_72">
    <path clip-path="url(#p1475ba9905)" d="M 287.84488 307.584 
L 290.564818 307.584 
L 290.564818 294.036015 
L 287.84488 294.036015 
z
" style="fill:#1f77b4;"/>
   </g>
   <g id="patch_73">
    <path clip-path="url(#p1475ba9905)" d="M 290.564822 307.584 
L 293.284761 307.584 
L 293.284761 290.165162 
L 290.564822 290.165162 
z
" style="fill:#1f77b4;"/>
   </g>
   <g id="patch_74">
    <path clip-path="url(#p1475ba9905)" d="M 293.284757 307.584 
L 296.004695 307.584 
L 296.004695 285.568525 
L 293.284757 285.568525 
z
" style="fill:#1f77b4;"/>
   </g>
   <g id="patch_75">
    <path clip-path="url(#p1475ba9905)" d="M 296.004695 307.584 
L 298.72463 307.584 
L 298.72463 289.197423 
L 296.004695 289.197423 
z
" style="fill:#1f77b4;"/>
   </g>
   <g id="patch_76">
    <path clip-path="url(#p1475ba9905)" d="M 298.724634 307.584 
L 301.444568 307.584 
L 301.444568 287.020094 
L 298.724634 287.020094 
z
" style="fill:#1f77b4;"/>
   </g>
   <g id="patch_77">
    <path clip-path="url(#p1475ba9905)" d="M 301.444568 307.584 
L 304.164503 307.584 
L 304.164503 289.197423 
L 301.444568 289.197423 
z
" style="fill:#1f77b4;"/>
   </g>
   <g id="patch_78">
    <path clip-path="url(#p1475ba9905)" d="M 304.164503 307.584 
L 306.884445 307.584 
L 306.884445 283.87506 
L 304.164503 283.87506 
z
" style="fill:#1f77b4;"/>
   </g>
   <g id="patch_79">
    <path clip-path="url(#p1475ba9905)" d="M 306.884445 307.584 
L 309.60438 307.584 
L 309.60438 292.584424 
L 306.884445 292.584424 
z
" style="fill:#1f77b4;"/>
   </g>
   <g id="patch_80">
    <path clip-path="url(#p1475ba9905)" d="M 309.604372 307.584 
L 312.324315 307.584 
L 312.324315 294.036034 
L 309.604372 294.036034 
z
" style="fill:#1f77b4;"/>
   </g>
   <g id="patch_81">
    <path clip-path="url(#p1475ba9905)" d="M 312.324322 307.584 
L 315.044257 307.584 
L 315.044257 295.245639 
L 312.324322 295.245639 
z
" style="fill:#1f77b4;"/>
   </g>
   <g id="patch_82">
    <path clip-path="url(#p1475ba9905)" d="M 315.044257 307.584 
L 317.764192 307.584 
L 317.764192 294.277924 
L 315.044257 294.277924 
z
" style="fill:#1f77b4;"/>
   </g>
   <g id="patch_83">
    <path clip-path="url(#p1475ba9905)" d="M 317.764192 307.584 
L 320.484134 307.584 
L 320.484134 289.439403 
L 317.764192 289.439403 
z
" style="fill:#1f77b4;"/>
   </g>
   <g id="patch_84">
    <path clip-path="url(#p1475ba9905)" d="M 320.484134 307.584 
L 323.204069 307.584 
L 323.204069 293.31021 
L 320.484134 293.31021 
z
" style="fill:#1f77b4;"/>
   </g>
   <g id="patch_85">
    <path clip-path="url(#p1475ba9905)" d="M 323.204061 307.584 
L 325.924003 307.584 
L 325.924003 297.181098 
L 323.204061 297.181098 
z
" style="fill:#1f77b4;"/>
   </g>
   <g id="patch_86">
    <path clip-path="url(#p1475ba9905)" d="M 325.924011 307.584 
L 328.643946 307.584 
L 328.643946 294.519853 
L 325.924011 294.519853 
z
" style="fill:#1f77b4;"/>
   </g>
   <g id="patch_87">
    <path clip-path="url(#p1475ba9905)" d="M 328.643946 307.584 
L 331.36388 307.584 
L 331.36388 292.342495 
L 328.643946 292.342495 
z
" style="fill:#1f77b4;"/>
   </g>
   <g id="patch_88">
    <path clip-path="url(#p1475ba9905)" d="M 331.36388 307.584 
L 334.083822 307.584 
L 334.083822 297.181098 
L 331.36388 297.181098 
z
" style="fill:#1f77b4;"/>
   </g>
   <g id="patch_89">
    <path clip-path="url(#p1475ba9905)" d="M 334.083822 307.584 
L 336.803757 307.584 
L 336.803757 294.519853 
L 334.083822 294.519853 
z
" style="fill:#1f77b4;"/>
   </g>
   <g id="patch_90">
    <path clip-path="url(#p1475ba9905)" d="M 336.803757 307.584 
L 339.523692 307.584 
L 339.523692 298.148783 
L 336.803757 298.148783 
z
" style="fill:#1f77b4;"/>
   </g>
   <g id="patch_91">
    <path clip-path="url(#p1475ba9905)" d="M 339.523684 307.584 
L 342.243626 307.584 
L 342.243626 302.019657 
L 339.523684 302.019657 
z
" style="fill:#1f77b4;"/>
   </g>
   <g id="patch_92">
    <path clip-path="url(#p1475ba9905)" d="M 342.243634 307.584 
L 344.963569 307.584 
L 344.963569 300.326141 
L 342.243634 300.326141 
z
" style="fill:#1f77b4;"/>
   </g>
   <g id="patch_93">
    <path clip-path="url(#p1475ba9905)" d="M 344.963569 307.584 
L 347.683511 307.584 
L 347.683511 300.084233 
L 344.963569 300.084233 
z
" style="fill:#1f77b4;"/>
   </g>
   <g id="patch_94">
    <path clip-path="url(#p1475ba9905)" d="M 347.683511 307.584 
L 350.403446 307.584 
L 350.403446 294.519853 
L 347.683511 294.519853 
z
" style="fill:#1f77b4;"/>
   </g>
   <g id="patch_95">
    <path clip-path="url(#p1475ba9905)" d="M 350.403446 307.584 
L 353.12338 307.584 
L 353.12338 298.63264 
L 350.403446 298.63264 
z
" style="fill:#1f77b4;"/>
   </g>
   <g id="patch_96">
    <path clip-path="url(#p1475ba9905)" d="M 353.123373 307.584 
L 355.843315 307.584 
L 355.843315 304.922792 
L 353.123373 304.922792 
z
" style="fill:#1f77b4;"/>
   </g>
   <g id="patch_97">
    <path clip-path="url(#p1475ba9905)" d="M 355.843323 307.584 
L 358.563257 307.584 
L 358.563257 302.987356 
L 355.843323 302.987356 
z
" style="fill:#1f77b4;"/>
   </g>
   <g id="patch_98">
    <path clip-path="url(#p1475ba9905)" d="M 358.563257 307.584 
L 361.283192 307.584 
L 361.283192 303.471213 
L 358.563257 303.471213 
z
" style="fill:#1f77b4;"/>
   </g>
   <g id="patch_99">
    <path clip-path="url(#p1475ba9905)" d="M 361.283192 307.584 
L 364.003134 307.584 
L 364.003134 305.890504 
L 361.283192 305.890504 
z
" style="fill:#1f77b4;"/>
   </g>
   <g id="patch_100">
    <path clip-path="url(#p1475ba9905)" d="M 364.003127 307.584 
L 366.723077 307.584 
L 366.723077 306.132432 
L 364.003127 306.132432 
z
" style="fill:#1f77b4;"/>
   </g>
   <g id="patch_101">
    <path clip-path="url(#p1475ba9905)" d="M 366.723077 307.584 
L 369.443011 307.584 
L 369.443011 306.858214 
L 366.723077 306.858214 
z
" style="fill:#1f77b4;"/>
   </g>
   <g id="patch_102">
    <path clip-path="url(#p1475ba9905)" d="M 369.442996 307.584 
L 372.16293 307.584 
L 372.16293 307.100143 
L 369.442996 307.100143 
z
" style="fill:#1f77b4;"/>
   </g>
   <g id="matplotlib.axis_1">
    <g id="xtick_1">
     <g id="line2d_1">
      <defs>
       <path d="M 0 0 
L 0 3.5 
" id="m7dcf2365dc" style="stroke:#000000;stroke-width:0.8;"/>
      </defs>
      <g>
       <use style="stroke:#000000;stroke-width:0.8;" x="106.29948" xlink:href="#m7dcf2365dc" y="307.584"/>
      </g>
     </g>
     <g id="text_1">
      <!-- −2 -->
      <defs>
       <path d="M 10.59375 35.5 
L 73.1875 35.5 
L 73.1875 27.203125 
L 10.59375 27.203125 
z
" id="DejaVuSans-8722"/>
       <path d="M 19.1875 8.296875 
L 53.609375 8.296875 
L 53.609375 0 
L 7.328125 0 
L 7.328125 8.296875 
Q 12.9375 14.109375 22.625 23.890625 
Q 32.328125 33.6875 34.8125 36.53125 
Q 39.546875 41.84375 41.421875 45.53125 
Q 43.3125 49.21875 43.3125 52.78125 
Q 43.3125 58.59375 39.234375 62.25 
Q 35.15625 65.921875 28.609375 65.921875 
Q 23.96875 65.921875 18.8125 64.3125 
Q 13.671875 62.703125 7.8125 59.421875 
L 7.8125 69.390625 
Q 13.765625 71.78125 18.9375 73 
Q 24.125 74.21875 28.421875 74.21875 
Q 39.75 74.21875 46.484375 68.546875 
Q 53.21875 62.890625 53.21875 53.421875 
Q 53.21875 48.921875 51.53125 44.890625 
Q 49.859375 40.875 45.40625 35.40625 
Q 44.1875 33.984375 37.640625 27.21875 
Q 31.109375 20.453125 19.1875 8.296875 
z
" id="DejaVuSans-50"/>
      </defs>
      <g transform="translate(93.768621 327.501344)scale(0.17 -0.17)">
       <use xlink:href="#DejaVuSans-8722"/>
       <use x="83.789062" xlink:href="#DejaVuSans-50"/>
      </g>
     </g>
    </g>
    <g id="xtick_2">
     <g id="line2d_2">
      <g>
       <use style="stroke:#000000;stroke-width:0.8;" x="171.232987" xlink:href="#m7dcf2365dc" y="307.584"/>
      </g>
     </g>
     <g id="text_2">
      <!-- −1 -->
      <defs>
       <path d="M 12.40625 8.296875 
L 28.515625 8.296875 
L 28.515625 63.921875 
L 10.984375 60.40625 
L 10.984375 69.390625 
L 28.421875 72.90625 
L 38.28125 72.90625 
L 38.28125 8.296875 
L 54.390625 8.296875 
L 54.390625 0 
L 12.40625 0 
z
" id="DejaVuSans-49"/>
      </defs>
      <g transform="translate(158.702128 327.501344)scale(0.17 -0.17)">
       <use xlink:href="#DejaVuSans-8722"/>
       <use x="83.789062" xlink:href="#DejaVuSans-49"/>
      </g>
     </g>
    </g>
    <g id="xtick_3">
     <g id="line2d_3">
      <g>
       <use style="stroke:#000000;stroke-width:0.8;" x="236.166493" xlink:href="#m7dcf2365dc" y="307.584"/>
      </g>
     </g>
     <g id="text_3">
      <!-- 0 -->
      <defs>
       <path d="M 31.78125 66.40625 
Q 24.171875 66.40625 20.328125 58.90625 
Q 16.5 51.421875 16.5 36.375 
Q 16.5 21.390625 20.328125 13.890625 
Q 24.171875 6.390625 31.78125 6.390625 
Q 39.453125 6.390625 43.28125 13.890625 
Q 47.125 21.390625 47.125 36.375 
Q 47.125 51.421875 43.28125 58.90625 
Q 39.453125 66.40625 31.78125 66.40625 
z
M 31.78125 74.21875 
Q 44.046875 74.21875 50.515625 64.515625 
Q 56.984375 54.828125 56.984375 36.375 
Q 56.984375 17.96875 50.515625 8.265625 
Q 44.046875 -1.421875 31.78125 -1.421875 
Q 19.53125 -1.421875 13.0625 8.265625 
Q 6.59375 17.96875 6.59375 36.375 
Q 6.59375 54.828125 13.0625 64.515625 
Q 19.53125 74.21875 31.78125 74.21875 
z
" id="DejaVuSans-48"/>
      </defs>
      <g transform="translate(230.758368 327.501344)scale(0.17 -0.17)">
       <use xlink:href="#DejaVuSans-48"/>
      </g>
     </g>
    </g>
    <g id="xtick_4">
     <g id="line2d_4">
      <g>
       <use style="stroke:#000000;stroke-width:0.8;" x="301.1" xlink:href="#m7dcf2365dc" y="307.584"/>
      </g>
     </g>
     <g id="text_4">
      <!-- 1 -->
      <g transform="translate(295.691875 327.501344)scale(0.17 -0.17)">
       <use xlink:href="#DejaVuSans-49"/>
      </g>
     </g>
    </g>
    <g id="xtick_5">
     <g id="line2d_5">
      <g>
       <use style="stroke:#000000;stroke-width:0.8;" x="366.033506" xlink:href="#m7dcf2365dc" y="307.584"/>
      </g>
     </g>
     <g id="text_5">
      <!-- 2 -->
      <g transform="translate(360.625381 327.501344)scale(0.17 -0.17)">
       <use xlink:href="#DejaVuSans-50"/>
      </g>
     </g>
    </g>
    <g id="text_6">
     <!-- Position in Radian -->
     <defs>
      <path d="M 19.671875 64.796875 
L 19.671875 37.40625 
L 32.078125 37.40625 
Q 38.96875 37.40625 42.71875 40.96875 
Q 46.484375 44.53125 46.484375 51.125 
Q 46.484375 57.671875 42.71875 61.234375 
Q 38.96875 64.796875 32.078125 64.796875 
z
M 9.8125 72.90625 
L 32.078125 72.90625 
Q 44.34375 72.90625 50.609375 67.359375 
Q 56.890625 61.8125 56.890625 51.125 
Q 56.890625 40.328125 50.609375 34.8125 
Q 44.34375 29.296875 32.078125 29.296875 
L 19.671875 29.296875 
L 19.671875 0 
L 9.8125 0 
z
" id="DejaVuSans-80"/>
      <path d="M 30.609375 48.390625 
Q 23.390625 48.390625 19.1875 42.75 
Q 14.984375 37.109375 14.984375 27.296875 
Q 14.984375 17.484375 19.15625 11.84375 
Q 23.34375 6.203125 30.609375 6.203125 
Q 37.796875 6.203125 41.984375 11.859375 
Q 46.1875 17.53125 46.1875 27.296875 
Q 46.1875 37.015625 41.984375 42.703125 
Q 37.796875 48.390625 30.609375 48.390625 
z
M 30.609375 56 
Q 42.328125 56 49.015625 48.375 
Q 55.71875 40.765625 55.71875 27.296875 
Q 55.71875 13.875 49.015625 6.21875 
Q 42.328125 -1.421875 30.609375 -1.421875 
Q 18.84375 -1.421875 12.171875 6.21875 
Q 5.515625 13.875 5.515625 27.296875 
Q 5.515625 40.765625 12.171875 48.375 
Q 18.84375 56 30.609375 56 
z
" id="DejaVuSans-111"/>
      <path d="M 44.28125 53.078125 
L 44.28125 44.578125 
Q 40.484375 46.53125 36.375 47.5 
Q 32.28125 48.484375 27.875 48.484375 
Q 21.1875 48.484375 17.84375 46.4375 
Q 14.5 44.390625 14.5 40.28125 
Q 14.5 37.15625 16.890625 35.375 
Q 19.28125 33.59375 26.515625 31.984375 
L 29.59375 31.296875 
Q 39.15625 29.25 43.1875 25.515625 
Q 47.21875 21.78125 47.21875 15.09375 
Q 47.21875 7.46875 41.1875 3.015625 
Q 35.15625 -1.421875 24.609375 -1.421875 
Q 20.21875 -1.421875 15.453125 -0.5625 
Q 10.6875 0.296875 5.421875 2 
L 5.421875 11.28125 
Q 10.40625 8.6875 15.234375 7.390625 
Q 20.0625 6.109375 24.8125 6.109375 
Q 31.15625 6.109375 34.5625 8.28125 
Q 37.984375 10.453125 37.984375 14.40625 
Q 37.984375 18.0625 35.515625 20.015625 
Q 33.0625 21.96875 24.703125 23.78125 
L 21.578125 24.515625 
Q 13.234375 26.265625 9.515625 29.90625 
Q 5.8125 33.546875 5.8125 39.890625 
Q 5.8125 47.609375 11.28125 51.796875 
Q 16.75 56 26.8125 56 
Q 31.78125 56 36.171875 55.265625 
Q 40.578125 54.546875 44.28125 53.078125 
z
" id="DejaVuSans-115"/>
      <path d="M 9.421875 54.6875 
L 18.40625 54.6875 
L 18.40625 0 
L 9.421875 0 
z
M 9.421875 75.984375 
L 18.40625 75.984375 
L 18.40625 64.59375 
L 9.421875 64.59375 
z
" id="DejaVuSans-105"/>
      <path d="M 18.3125 70.21875 
L 18.3125 54.6875 
L 36.8125 54.6875 
L 36.8125 47.703125 
L 18.3125 47.703125 
L 18.3125 18.015625 
Q 18.3125 11.328125 20.140625 9.421875 
Q 21.96875 7.515625 27.59375 7.515625 
L 36.8125 7.515625 
L 36.8125 0 
L 27.59375 0 
Q 17.1875 0 13.234375 3.875 
Q 9.28125 7.765625 9.28125 18.015625 
L 9.28125 47.703125 
L 2.6875 47.703125 
L 2.6875 54.6875 
L 9.28125 54.6875 
L 9.28125 70.21875 
z
" id="DejaVuSans-116"/>
      <path d="M 54.890625 33.015625 
L 54.890625 0 
L 45.90625 0 
L 45.90625 32.71875 
Q 45.90625 40.484375 42.875 44.328125 
Q 39.84375 48.1875 33.796875 48.1875 
Q 26.515625 48.1875 22.3125 43.546875 
Q 18.109375 38.921875 18.109375 30.90625 
L 18.109375 0 
L 9.078125 0 
L 9.078125 54.6875 
L 18.109375 54.6875 
L 18.109375 46.1875 
Q 21.34375 51.125 25.703125 53.5625 
Q 30.078125 56 35.796875 56 
Q 45.21875 56 50.046875 50.171875 
Q 54.890625 44.34375 54.890625 33.015625 
z
" id="DejaVuSans-110"/>
      <path id="DejaVuSans-32"/>
      <path d="M 44.390625 34.1875 
Q 47.5625 33.109375 50.5625 29.59375 
Q 53.5625 26.078125 56.59375 19.921875 
L 66.609375 0 
L 56 0 
L 46.6875 18.703125 
Q 43.0625 26.03125 39.671875 28.421875 
Q 36.28125 30.8125 30.421875 30.8125 
L 19.671875 30.8125 
L 19.671875 0 
L 9.8125 0 
L 9.8125 72.90625 
L 32.078125 72.90625 
Q 44.578125 72.90625 50.734375 67.671875 
Q 56.890625 62.453125 56.890625 51.90625 
Q 56.890625 45.015625 53.6875 40.46875 
Q 50.484375 35.9375 44.390625 34.1875 
z
M 19.671875 64.796875 
L 19.671875 38.921875 
L 32.078125 38.921875 
Q 39.203125 38.921875 42.84375 42.21875 
Q 46.484375 45.515625 46.484375 51.90625 
Q 46.484375 58.296875 42.84375 61.546875 
Q 39.203125 64.796875 32.078125 64.796875 
z
" id="DejaVuSans-82"/>
      <path d="M 34.28125 27.484375 
Q 23.390625 27.484375 19.1875 25 
Q 14.984375 22.515625 14.984375 16.5 
Q 14.984375 11.71875 18.140625 8.90625 
Q 21.296875 6.109375 26.703125 6.109375 
Q 34.1875 6.109375 38.703125 11.40625 
Q 43.21875 16.703125 43.21875 25.484375 
L 43.21875 27.484375 
z
M 52.203125 31.203125 
L 52.203125 0 
L 43.21875 0 
L 43.21875 8.296875 
Q 40.140625 3.328125 35.546875 0.953125 
Q 30.953125 -1.421875 24.3125 -1.421875 
Q 15.921875 -1.421875 10.953125 3.296875 
Q 6 8.015625 6 15.921875 
Q 6 25.140625 12.171875 29.828125 
Q 18.359375 34.515625 30.609375 34.515625 
L 43.21875 34.515625 
L 43.21875 35.40625 
Q 43.21875 41.609375 39.140625 45 
Q 35.0625 48.390625 27.6875 48.390625 
Q 23 48.390625 18.546875 47.265625 
Q 14.109375 46.140625 10.015625 43.890625 
L 10.015625 52.203125 
Q 14.9375 54.109375 19.578125 55.046875 
Q 24.21875 56 28.609375 56 
Q 40.484375 56 46.34375 49.84375 
Q 52.203125 43.703125 52.203125 31.203125 
z
" id="DejaVuSans-97"/>
      <path d="M 45.40625 46.390625 
L 45.40625 75.984375 
L 54.390625 75.984375 
L 54.390625 0 
L 45.40625 0 
L 45.40625 8.203125 
Q 42.578125 3.328125 38.25 0.953125 
Q 33.9375 -1.421875 27.875 -1.421875 
Q 17.96875 -1.421875 11.734375 6.484375 
Q 5.515625 14.40625 5.515625 27.296875 
Q 5.515625 40.1875 11.734375 48.09375 
Q 17.96875 56 27.875 56 
Q 33.9375 56 38.25 53.625 
Q 42.578125 51.265625 45.40625 46.390625 
z
M 14.796875 27.296875 
Q 14.796875 17.390625 18.875 11.75 
Q 22.953125 6.109375 30.078125 6.109375 
Q 37.203125 6.109375 41.296875 11.75 
Q 45.40625 17.390625 45.40625 27.296875 
Q 45.40625 37.203125 41.296875 42.84375 
Q 37.203125 48.484375 30.078125 48.484375 
Q 22.953125 48.484375 18.875 42.84375 
Q 14.796875 37.203125 14.796875 27.296875 
z
" id="DejaVuSans-100"/>
     </defs>
     <g transform="translate(102.024844 357.832125)scale(0.3 -0.3)">
      <use xlink:href="#DejaVuSans-80"/>
      <use x="60.255859" xlink:href="#DejaVuSans-111"/>
      <use x="121.4375" xlink:href="#DejaVuSans-115"/>
      <use x="173.537109" xlink:href="#DejaVuSans-105"/>
      <use x="201.320312" xlink:href="#DejaVuSans-116"/>
      <use x="240.529297" xlink:href="#DejaVuSans-105"/>
      <use x="268.3125" xlink:href="#DejaVuSans-111"/>
      <use x="329.494141" xlink:href="#DejaVuSans-110"/>
      <use x="392.873047" xlink:href="#DejaVuSans-32"/>
      <use x="424.660156" xlink:href="#DejaVuSans-105"/>
      <use x="452.443359" xlink:href="#DejaVuSans-110"/>
      <use x="515.822266" xlink:href="#DejaVuSans-32"/>
      <use x="547.609375" xlink:href="#DejaVuSans-82"/>
      <use x="617.060547" xlink:href="#DejaVuSans-97"/>
      <use x="678.339844" xlink:href="#DejaVuSans-100"/>
      <use x="741.816406" xlink:href="#DejaVuSans-105"/>
      <use x="769.599609" xlink:href="#DejaVuSans-97"/>
      <use x="830.878906" xlink:href="#DejaVuSans-110"/>
     </g>
    </g>
   </g>
   <g id="matplotlib.axis_2">
    <g id="ytick_1">
     <g id="line2d_6">
      <defs>
       <path d="M 0 0 
L -3.5 0 
" id="m2bd8414a5a" style="stroke:#000000;stroke-width:0.8;"/>
      </defs>
      <g>
       <use style="stroke:#000000;stroke-width:0.8;" x="57.6" xlink:href="#m2bd8414a5a" y="307.584"/>
      </g>
     </g>
     <g id="text_7">
      <!-- 0.0 -->
      <defs>
       <path d="M 10.6875 12.40625 
L 21 12.40625 
L 21 0 
L 10.6875 0 
z
" id="DejaVuSans-46"/>
      </defs>
      <g transform="translate(23.564687 314.042672)scale(0.17 -0.17)">
       <use xlink:href="#DejaVuSans-48"/>
       <use x="63.623047" xlink:href="#DejaVuSans-46"/>
       <use x="95.410156" xlink:href="#DejaVuSans-48"/>
      </g>
     </g>
    </g>
    <g id="ytick_2">
     <g id="line2d_7">
      <g>
       <use style="stroke:#000000;stroke-width:0.8;" x="57.6" xlink:href="#m2bd8414a5a" y="244.247083"/>
      </g>
     </g>
     <g id="text_8">
      <!-- 0.5 -->
      <defs>
       <path d="M 10.796875 72.90625 
L 49.515625 72.90625 
L 49.515625 64.59375 
L 19.828125 64.59375 
L 19.828125 46.734375 
Q 21.96875 47.46875 24.109375 47.828125 
Q 26.265625 48.1875 28.421875 48.1875 
Q 40.625 48.1875 47.75 41.5 
Q 54.890625 34.8125 54.890625 23.390625 
Q 54.890625 11.625 47.5625 5.09375 
Q 40.234375 -1.421875 26.90625 -1.421875 
Q 22.3125 -1.421875 17.546875 -0.640625 
Q 12.796875 0.140625 7.71875 1.703125 
L 7.71875 11.625 
Q 12.109375 9.234375 16.796875 8.0625 
Q 21.484375 6.890625 26.703125 6.890625 
Q 35.15625 6.890625 40.078125 11.328125 
Q 45.015625 15.765625 45.015625 23.390625 
Q 45.015625 31 40.078125 35.4375 
Q 35.15625 39.890625 26.703125 39.890625 
Q 22.75 39.890625 18.8125 39.015625 
Q 14.890625 38.140625 10.796875 36.28125 
z
" id="DejaVuSans-53"/>
      </defs>
      <g transform="translate(23.564687 250.705754)scale(0.17 -0.17)">
       <use xlink:href="#DejaVuSans-48"/>
       <use x="63.623047" xlink:href="#DejaVuSans-46"/>
       <use x="95.410156" xlink:href="#DejaVuSans-53"/>
      </g>
     </g>
    </g>
    <g id="ytick_3">
     <g id="line2d_8">
      <g>
       <use style="stroke:#000000;stroke-width:0.8;" x="57.6" xlink:href="#m2bd8414a5a" y="180.910165"/>
      </g>
     </g>
     <g id="text_9">
      <!-- 1.0 -->
      <g transform="translate(23.564687 187.368837)scale(0.17 -0.17)">
       <use xlink:href="#DejaVuSans-49"/>
       <use x="63.623047" xlink:href="#DejaVuSans-46"/>
       <use x="95.410156" xlink:href="#DejaVuSans-48"/>
      </g>
     </g>
    </g>
    <g id="ytick_4">
     <g id="line2d_9">
      <g>
       <use style="stroke:#000000;stroke-width:0.8;" x="57.6" xlink:href="#m2bd8414a5a" y="117.573248"/>
      </g>
     </g>
     <g id="text_10">
      <!-- 1.5 -->
      <g transform="translate(23.564687 124.03192)scale(0.17 -0.17)">
       <use xlink:href="#DejaVuSans-49"/>
       <use x="63.623047" xlink:href="#DejaVuSans-46"/>
       <use x="95.410156" xlink:href="#DejaVuSans-53"/>
      </g>
     </g>
    </g>
    <g id="ytick_5">
     <g id="line2d_10">
      <g>
       <use style="stroke:#000000;stroke-width:0.8;" x="57.6" xlink:href="#m2bd8414a5a" y="54.23633"/>
      </g>
     </g>
     <g id="text_11">
      <!-- 2.0 -->
      <g transform="translate(23.564687 60.695002)scale(0.17 -0.17)">
       <use xlink:href="#DejaVuSans-50"/>
       <use x="63.623047" xlink:href="#DejaVuSans-46"/>
       <use x="95.410156" xlink:href="#DejaVuSans-48"/>
      </g>
     </g>
    </g>
    <g id="text_12">
     <!-- Density -->
     <defs>
      <path d="M 19.671875 64.796875 
L 19.671875 8.109375 
L 31.59375 8.109375 
Q 46.6875 8.109375 53.6875 14.9375 
Q 60.6875 21.78125 60.6875 36.53125 
Q 60.6875 51.171875 53.6875 57.984375 
Q 46.6875 64.796875 31.59375 64.796875 
z
M 9.8125 72.90625 
L 30.078125 72.90625 
Q 51.265625 72.90625 61.171875 64.09375 
Q 71.09375 55.28125 71.09375 36.53125 
Q 71.09375 17.671875 61.125 8.828125 
Q 51.171875 0 30.078125 0 
L 9.8125 0 
z
" id="DejaVuSans-68"/>
      <path d="M 56.203125 29.59375 
L 56.203125 25.203125 
L 14.890625 25.203125 
Q 15.484375 15.921875 20.484375 11.0625 
Q 25.484375 6.203125 34.421875 6.203125 
Q 39.59375 6.203125 44.453125 7.46875 
Q 49.3125 8.734375 54.109375 11.28125 
L 54.109375 2.78125 
Q 49.265625 0.734375 44.1875 -0.34375 
Q 39.109375 -1.421875 33.890625 -1.421875 
Q 20.796875 -1.421875 13.15625 6.1875 
Q 5.515625 13.8125 5.515625 26.8125 
Q 5.515625 40.234375 12.765625 48.109375 
Q 20.015625 56 32.328125 56 
Q 43.359375 56 49.78125 48.890625 
Q 56.203125 41.796875 56.203125 29.59375 
z
M 47.21875 32.234375 
Q 47.125 39.59375 43.09375 43.984375 
Q 39.0625 48.390625 32.421875 48.390625 
Q 24.90625 48.390625 20.390625 44.140625 
Q 15.875 39.890625 15.1875 32.171875 
z
" id="DejaVuSans-101"/>
      <path d="M 32.171875 -5.078125 
Q 28.375 -14.84375 24.75 -17.8125 
Q 21.140625 -20.796875 15.09375 -20.796875 
L 7.90625 -20.796875 
L 7.90625 -13.28125 
L 13.1875 -13.28125 
Q 16.890625 -13.28125 18.9375 -11.515625 
Q 21 -9.765625 23.484375 -3.21875 
L 25.09375 0.875 
L 2.984375 54.6875 
L 12.5 54.6875 
L 29.59375 11.921875 
L 46.6875 54.6875 
L 56.203125 54.6875 
z
" id="DejaVuSans-121"/>
     </defs>
     <g transform="translate(13.325625 231.553781)rotate(-90)scale(0.3 -0.3)">
      <use xlink:href="#DejaVuSans-68"/>
      <use x="77.001953" xlink:href="#DejaVuSans-101"/>
      <use x="138.525391" xlink:href="#DejaVuSans-110"/>
      <use x="201.904297" xlink:href="#DejaVuSans-115"/>
      <use x="254.003906" xlink:href="#DejaVuSans-105"/>
      <use x="281.787109" xlink:href="#DejaVuSans-116"/>
      <use x="320.996094" xlink:href="#DejaVuSans-121"/>
     </g>
    </g>
   </g>
   <g id="line2d_11">
    <path clip-path="url(#p1475ba9905)" d="M 73.832727 307.584 
L 98.598367 307.474599 
L 98.974981 307.194893 
L 99.338609 306.606005 
L 100.416505 304.583243 
L 100.663252 304.644875 
L 101.052853 305.045945 
L 102.013869 306.036311 
L 102.52035 306.314797 
L 102.883978 306.258785 
L 103.70214 306.039533 
L 104.143688 306.242718 
L 104.974837 306.941571 
L 105.468332 307.188168 
L 105.94884 307.16188 
L 107.32543 306.772974 
L 108.221512 306.064728 
L 109.104608 305.491127 
L 109.455249 305.506345 
L 109.80589 305.76585 
L 111.494161 307.38098 
L 111.961682 307.393207 
L 112.714911 307.126646 
L 113.598007 306.940542 
L 114.390195 306.680368 
L 115.156411 306.44728 
L 115.558999 306.584386 
L 116.545988 307.033453 
L 116.896629 306.86822 
L 117.40311 306.341422 
L 118.286206 305.421607 
L 118.571913 305.426712 
L 118.896581 305.690546 
L 119.467996 306.156074 
L 119.68877 306.059097 
L 119.96149 305.657068 
L 120.94848 303.957739 
L 121.2212 303.993137 
L 121.688722 304.361801 
L 122.260136 304.701913 
L 122.805578 304.744875 
L 123.610753 304.791509 
L 124.091261 305.139097 
L 124.493849 305.335727 
L 124.72761 305.209977 
L 125.00033 304.766289 
L 126.247054 302.30282 
L 127.143136 301.744277 
L 127.532737 301.756001 
L 128.182072 301.817381 
L 128.70154 301.519929 
L 129.272955 301.310831 
L 129.974237 301.043628 
L 130.441758 300.946179 
L 131.649521 301.188925 
L 131.987176 301.463492 
L 132.870271 302.344746 
L 133.104032 302.177851 
L 133.428699 301.605633 
L 134.675423 299.098866 
L 135.389691 298.193503 
L 135.675399 297.236594 
L 136.039026 295.092439 
L 136.792255 290.508856 
L 137.000042 290.295721 
L 137.142896 290.458058 
L 137.44159 291.259051 
L 137.870151 292.216677 
L 138.090925 292.269495 
L 138.350659 292.032534 
L 138.792207 291.663445 
L 138.987008 291.78374 
L 139.220768 292.259978 
L 139.571409 293.58171 
L 140.480478 297.215276 
L 140.857093 297.783996 
L 141.610321 298.708256 
L 142.28563 299.604075 
L 142.623284 299.703858 
L 142.947952 299.563249 
L 143.428459 299.065231 
L 144.051821 298.498833 
L 144.415449 298.445028 
L 144.701156 298.634654 
L 145.012837 299.147092 
L 145.843986 300.689906 
L 146.0258 300.609153 
L 146.25956 300.208237 
L 146.766042 298.752815 
L 148.50626 293.867005 
L 148.688073 293.984184 
L 149.064688 294.624864 
L 149.350395 294.889681 
L 149.506236 294.777316 
L 149.714023 294.290511 
L 150.064664 292.781725 
L 150.765946 289.831469 
L 151.090613 289.308646 
L 151.350347 289.248519 
L 151.610081 289.445324 
L 151.999682 290.094184 
L 152.454217 290.739698 
L 152.662004 290.710065 
L 152.895765 290.392242 
L 153.610033 289.278256 
L 153.843794 289.333227 
L 154.181448 289.695592 
L 154.622996 290.485311 
L 154.99961 291.666876 
L 155.843746 294.525733 
L 156.012573 294.51319 
L 156.194387 294.191822 
L 156.519054 293.047031 
L 157.181376 290.747173 
L 157.467084 290.445636 
L 157.687857 290.510257 
L 157.986552 290.890374 
L 158.77874 291.998536 
L 158.973541 291.895798 
L 159.207302 291.454431 
L 159.583916 290.164255 
L 160.467012 287.093428 
L 161.051413 285.133861 
L 161.882562 282.145889 
L 162.194243 281.800974 
L 162.466964 281.804399 
L 162.973445 282.113318 
L 163.298112 282.167317 
L 163.570833 281.962593 
L 164.116275 281.512095 
L 164.298088 281.676192 
L 164.544836 282.27963 
L 164.99937 284.147618 
L 165.596759 286.29957 
L 165.934413 286.809144 
L 166.25908 286.919591 
L 166.739588 287.062899 
L 167.064256 287.453796 
L 167.661644 288.63023 
L 168.103192 289.278135 
L 168.336953 289.304122 
L 168.557726 289.069961 
L 168.908367 288.290494 
L 169.518742 286.978645 
L 169.752503 286.907329 
L 169.96029 287.110505 
L 170.297944 287.830619 
L 170.895333 289.039748 
L 171.168053 289.160928 
L 171.401814 289.015282 
L 171.674535 288.549518 
L 172.025176 287.442951 
L 172.908271 284.373324 
L 173.090085 284.352956 
L 173.297872 284.611541 
L 174.038114 285.710117 
L 174.310835 285.680476 
L 174.674463 285.377896 
L 175.180944 284.627584 
L 175.661452 284.048093 
L 175.895213 284.076052 
L 176.154947 284.387195 
L 177.32375 286.145853 
L 178.7393 286.448677 
L 178.986048 285.96816 
L 179.778236 284.167059 
L 179.947063 284.251 
L 180.219784 284.7184 
L 180.817172 285.748128 
L 181.089893 285.825439 
L 181.388587 285.655328 
L 181.804162 285.125186 
L 183.050885 283.364513 
L 183.46646 283.191649 
L 183.804114 283.280142 
L 184.700196 283.688596 
L 184.92097 283.374371 
L 185.219664 282.500643 
L 185.843026 279.753622 
L 186.466388 277.468394 
L 186.894949 276.6672 
L 187.55727 275.666555 
L 187.868951 274.49434 
L 188.375433 271.441823 
L 188.765034 269.720698 
L 188.907887 269.626926 
L 188.933861 269.647911 
L 189.076714 269.96806 
L 189.336449 271.261611 
L 189.84293 273.726553 
L 189.95981 273.769839 
L 189.985784 273.741854 
L 190.128637 273.351216 
L 190.401358 271.755851 
L 190.881866 269.123274 
L 190.998746 269.027721 
L 191.037706 269.060593 
L 191.167573 269.403994 
L 191.388347 270.740907 
L 191.816908 275.044869 
L 192.44027 280.800705 
L 192.725978 281.7835 
L 192.894805 281.83383 
L 193.115579 281.559668 
L 193.427259 281.270787 
L 193.570113 281.428799 
L 193.764914 282.05673 
L 194.102568 284.080257 
L 194.80385 288.275961 
L 195.141504 289.064653 
L 195.414225 289.226935 
L 195.725906 289.141157 
L 196.621988 288.77693 
L 196.855749 289.050258 
L 197.24535 289.953679 
L 197.583004 290.500298 
L 197.725858 290.432995 
L 197.907671 290.000298 
L 198.193379 288.605867 
L 199.024528 284.235982 
L 199.258288 283.973941 
L 199.427115 284.072704 
L 199.686849 284.558002 
L 200.634879 286.576068 
L 200.855653 286.577893 
L 201.076426 286.317553 
L 201.401094 285.512983 
L 202.115363 283.683307 
L 202.32315 283.637153 
L 202.543924 283.864126 
L 202.959498 284.7095 
L 203.686753 286.679285 
L 204.388035 288.506077 
L 204.699716 288.775069 
L 205.024384 288.763561 
L 205.439958 288.527538 
L 205.751639 288.08317 
L 206.076306 287.16639 
L 206.491881 285.202418 
L 207.504844 280.044783 
L 207.868471 279.448651 
L 208.348979 278.737532 
L 208.69962 277.695731 
L 209.232075 275.276435 
L 210.673599 268.496278 
L 210.829439 268.475536 
L 210.998266 268.773234 
L 211.361894 270.058989 
L 211.725522 270.973674 
L 211.894349 270.979636 
L 212.076162 270.682877 
L 212.387843 269.651938 
L 212.907311 267.094657 
L 213.439766 263.278414 
L 215.647505 243.934123 
L 216.17996 239.53179 
L 216.478654 238.581355 
L 216.660468 238.514376 
L 216.868255 238.740692 
L 217.751351 239.946647 
L 217.998098 239.896164 
L 218.270819 239.568453 
L 218.933141 238.666615 
L 219.101968 238.833073 
L 219.335728 239.470047 
L 221.011013 245.989027 
L 221.894109 251.49098 
L 221.998002 251.420835 
L 222.153843 250.872722 
L 222.413577 248.898976 
L 222.894085 243.112544 
L 223.881074 228.313431 
L 224.465475 220.807224 
L 224.751183 219.366232 
L 224.92001 219.240901 
L 225.088837 219.469025 
L 225.504412 220.055769 
L 225.634279 219.859266 
L 225.829079 219.008769 
L 226.127773 216.440907 
L 227.40047 203.86757 
L 228.127725 200.302727 
L 228.426419 196.515522 
L 228.906927 186.949501 
L 229.647169 173.175424 
L 230.452345 159.947454 
L 231.114667 142.911938 
L 231.725042 129.646891 
L 232.218536 123.636487 
L 232.789951 119.122191 
L 232.984752 118.68977 
L 232.997738 118.697532 
L 233.101632 118.951253 
L 233.270459 120.145884 
L 233.530193 123.864786 
L 234.465235 139.704754 
L 234.491209 139.676112 
L 234.582116 139.147462 
L 234.737956 136.473017 
L 234.95873 128.196344 
L 235.283398 106.09019 
L 235.997666 54.983766 
L 236.075586 54.144 
L 236.127533 54.419636 
L 236.231427 56.987964 
L 236.426227 68.478452 
L 236.867775 112.183929 
L 237.335296 149.082081 
L 237.659964 160.016852 
L 237.945671 163.467371 
L 238.231379 164.61116 
L 238.452153 164.833748 
L 238.595006 164.714418 
L 238.789807 164.170396 
L 239.101488 162.482201 
L 239.581996 160.119866 
L 239.672903 160.0985 
L 239.698876 160.13164 
L 239.828743 160.585246 
L 240.03653 162.382514 
L 240.348211 167.480169 
L 240.919626 181.456365 
L 241.854669 203.140941 
L 242.309203 209.312473 
L 242.568937 210.534113 
L 242.659844 210.536037 
L 242.685817 210.499189 
L 242.841658 209.971573 
L 243.153339 207.878896 
L 243.763714 204.002454 
L 244.166301 202.816536 
L 244.932517 200.91347 
L 245.296144 198.988809 
L 245.919506 195.640356 
L 246.036386 195.570704 
L 246.06236 195.591555 
L 246.192227 195.889635 
L 246.438974 197.182247 
L 247.101296 200.835403 
L 247.685697 202.778362 
L 247.984392 205.459949 
L 248.802554 213.591324 
L 248.906447 213.685328 
L 248.945407 213.64131 
L 249.075274 213.19741 
L 249.322022 211.313587 
L 250.257064 203.228618 
L 250.490825 202.810811 
L 250.620692 202.889063 
L 250.802506 203.337792 
L 251.088213 204.753639 
L 251.568721 208.516497 
L 252.218056 213.243246 
L 252.490777 213.962098 
L 252.646617 213.961099 
L 252.841418 213.632609 
L 253.490753 212.352315 
L 253.633607 212.532957 
L 253.841394 213.253905 
L 254.218008 215.581151 
L 254.815396 219.015921 
L 255.347851 220.580145 
L 255.711479 222.091993 
L 256.179 225.169022 
L 256.672495 229.861123 
L 257.088069 236.177503 
L 258.243886 255.490236 
L 258.633487 257.694182 
L 259.256848 260.790986 
L 260.360718 267.318304 
L 260.516558 267.325563 
L 260.685385 267.009948 
L 261.269787 265.644295 
L 261.29576 265.661015 
L 261.425627 265.921826 
L 261.633415 266.962443 
L 262.048989 270.546885 
L 262.51651 273.820097 
L 262.789231 274.453132 
L 263.113899 274.599211 
L 263.308699 274.858019 
L 263.529473 275.602249 
L 263.893101 277.817441 
L 264.451529 280.985817 
L 264.698276 281.408343 
L 264.88009 281.366881 
L 265.282678 280.895019 
L 265.750199 280.545859 
L 266.568361 280.202293 
L 266.802122 280.483929 
L 267.230683 281.486353 
L 267.568337 282.004728 
L 267.737164 281.943461 
L 267.931965 281.550125 
L 268.269619 280.224694 
L 268.81506 278.219467 
L 268.996874 278.116407 
L 269.139728 278.310045 
L 269.373489 279.10861 
L 269.866983 281.871199 
L 270.334504 283.938278 
L 270.620212 284.406037 
L 270.866959 284.443584 
L 271.29552 284.4568 
L 271.516294 284.755901 
L 271.814988 285.612301 
L 272.879898 289.091809 
L 273.152619 289.199761 
L 273.633127 289.306661 
L 273.918834 289.713488 
L 274.749983 291.051025 
L 275.334384 291.693533 
L 275.827879 292.741103 
L 277.905751 297.378171 
L 278.074578 297.233649 
L 278.321326 296.649579 
L 279.425195 293.51629 
L 279.632983 293.583501 
L 279.944663 293.98136 
L 281.29528 295.95546 
L 281.516054 295.820191 
L 282.022536 295.108321 
L 282.347203 294.883361 
L 282.671871 294.939301 
L 283.191339 295.02095 
L 283.554966 294.819665 
L 283.931581 294.3359 
L 284.87961 292.895501 
L 285.061424 293.094723 
L 285.360118 293.832832 
L 285.970493 295.318592 
L 286.191267 295.397435 
L 286.399054 295.215387 
L 286.775668 294.496041 
L 287.256176 293.716162 
L 287.502924 293.676211 
L 287.762658 293.898076 
L 288.437966 294.549152 
L 288.65874 294.448508 
L 288.944447 294.022116 
L 289.983383 292.175692 
L 290.347011 292.177492 
L 290.671679 292.099184 
L 290.944399 291.765917 
L 292.022296 290.118871 
L 292.32099 290.256229 
L 292.866431 290.508316 
L 293.139152 290.379177 
L 293.450833 289.950371 
L 293.85342 288.966373 
L 294.346915 287.124788 
L 295.294944 283.326966 
L 295.437798 283.349324 
L 295.606625 283.705747 
L 295.905319 285.009335 
L 296.580628 287.987516 
L 296.905295 288.478469 
L 297.268923 288.620134 
L 297.788391 288.595155 
L 298.126045 288.34352 
L 298.528633 287.716762 
L 299.736396 285.584542 
L 299.931197 285.723359 
L 300.203917 286.26348 
L 301.242853 288.674817 
L 301.775308 288.942325 
L 302.372697 289.130293 
L 302.658404 288.924425 
L 303.684353 287.953545 
L 304.047981 287.583288 
L 304.593422 286.600636 
L 305.294704 285.016113 
L 305.931053 283.46824 
L 306.086893 283.49795 
L 306.25572 283.838891 
L 306.528441 285.030373 
L 307.762178 291.320023 
L 308.6193 293.36591 
L 308.892021 293.57672 
L 309.112794 293.483022 
L 309.723169 293.106629 
L 309.91797 293.35891 
L 310.203677 294.171147 
L 310.904959 296.265588 
L 311.086773 296.297513 
L 311.281574 296.04496 
L 311.671175 295.035634 
L 312.125709 294.085815 
L 312.372456 293.974945 
L 312.632191 294.129032 
L 313.463339 294.777408 
L 314.112674 294.770287 
L 315.281478 294.724782 
L 315.995746 294.374952 
L 316.411321 294.503311 
L 317.51519 294.917429 
L 317.722977 294.60562 
L 317.982711 293.729932 
L 318.411273 291.310901 
L 318.995674 288.352003 
L 319.320342 287.696222 
L 319.619036 287.545005 
L 320.385251 287.548231 
L 320.631999 287.773426 
L 320.878746 288.350446 
L 321.229387 289.8546 
L 322.372216 295.262069 
L 322.839738 296.334312 
L 323.242325 296.747616 
L 323.904647 297.305069 
L 324.787743 298.300842 
L 325.021504 298.209808 
L 325.294224 297.826495 
L 325.787719 296.640822 
L 326.268227 295.725596 
L 326.527961 295.620572 
L 326.826655 295.774678 
L 327.190283 295.900675 
L 327.385083 295.714033 
L 327.631831 295.086831 
L 328.008445 293.36595 
L 328.65778 290.468192 
L 328.891541 290.203087 
L 329.060368 290.320872 
L 329.333088 290.885062 
L 330.060344 292.443971 
L 330.644745 293.43626 
L 331.774588 295.964673 
L 332.021336 295.902406 
L 332.644697 295.640979 
L 332.878458 295.874298 
L 333.229099 296.615587 
L 333.722593 297.549884 
L 333.930381 297.570423 
L 334.151155 297.309823 
L 335.566705 295.066052 
L 336.17708 294.59316 
L 336.436814 294.65307 
L 336.696548 294.987733 
L 337.073162 295.929184 
L 337.891325 298.023047 
L 339.189995 300.400338 
L 339.91725 302.04124 
L 340.202957 302.218644 
L 340.462691 302.119288 
L 340.930213 301.620653 
L 341.462667 301.180271 
L 341.943175 301.089438 
L 343.111978 300.952004 
L 343.553526 300.617098 
L 344.709343 299.58912 
L 345.11193 299.672064 
L 345.644385 299.749071 
L 347.228763 299.356938 
L 347.59239 298.916017 
L 348.085885 297.927668 
L 348.54042 296.523213 
L 349.722209 292.437963 
L 349.891037 292.486925 
L 350.098824 292.846062 
L 350.449465 294.006318 
L 352.31955 301.006756 
L 353.631206 304.480599 
L 353.994834 304.791424 
L 354.358462 304.806758 
L 354.774036 304.592943 
L 355.241557 304.071425 
L 355.916866 303.340811 
L 356.29348 303.268031 
L 357.488257 303.226909 
L 358.566153 303.148636 
L 359.280422 303.317281 
L 359.95573 303.697088 
L 360.475198 303.931611 
L 360.799866 303.818335 
L 361.306347 303.632179 
L 361.527121 303.827715 
L 361.838802 304.474881 
L 362.747871 306.540125 
L 363.137472 306.832644 
L 363.592006 306.888691 
L 364.020568 306.726288 
L 364.436142 306.303582 
L 365.137424 305.568444 
L 365.410145 305.606531 
L 365.773772 305.932606 
L 366.397134 306.456615 
L 366.903615 306.536906 
L 367.449057 306.687253 
L 368.475006 307.106419 
L 370.163277 307.122709 
L 371.124293 307.39376 
L 371.747655 307.246158 
L 372.332056 307.192746 
L 373.033338 307.41936 
L 373.81254 307.567958 
L 375.877426 307.584 
L 398.487273 307.584 
L 398.487273 307.584 
" style="fill:none;stroke:#ff7f0e;stroke-linecap:square;stroke-width:1.5;"/>
   </g>
   <g id="patch_103">
    <path d="M 57.6 307.584 
L 57.6 41.472 
" style="fill:none;stroke:#000000;stroke-linecap:square;stroke-linejoin:miter;stroke-width:0.8;"/>
   </g>
   <g id="patch_104">
    <path d="M 414.72 307.584 
L 414.72 41.472 
" style="fill:none;stroke:#000000;stroke-linecap:square;stroke-linejoin:miter;stroke-width:0.8;"/>
   </g>
   <g id="patch_105">
    <path d="M 57.6 307.584 
L 414.72 307.584 
" style="fill:none;stroke:#000000;stroke-linecap:square;stroke-linejoin:miter;stroke-width:0.8;"/>
   </g>
   <g id="patch_106">
    <path d="M 57.6 41.472 
L 414.72 41.472 
" style="fill:none;stroke:#000000;stroke-linecap:square;stroke-linejoin:miter;stroke-width:0.8;"/>
   </g>
  </g>
 </g>
 <defs>
  <clipPath id="p1475ba9905">
   <rect height="266.112" width="357.12" x="57.6" y="41.472"/>
  </clipPath>
 </defs>
</svg>
