<?xml version="1.0" encoding="utf-8" standalone="no"?>
<!DOCTYPE svg PUBLIC "-//W3C//DTD SVG 1.1//EN"
  "http://www.w3.org/Graphics/SVG/1.1/DTD/svg11.dtd">
<!-- Created with matplotlib (https://matplotlib.org/) -->
<svg height="345.6pt" version="1.1" viewBox="0 0 460.8 345.6" width="460.8pt" xmlns="http://www.w3.org/2000/svg" xmlns:xlink="http://www.w3.org/1999/xlink">
 <defs>
  <style type="text/css">
*{stroke-linecap:butt;stroke-linejoin:round;}
  </style>
 </defs>
 <g id="figure_1">
  <g id="patch_1">
   <path d="M 0 345.6 
L 460.8 345.6 
L 460.8 0 
L 0 0 
z
" style="fill:#ffffff;"/>
  </g>
  <g id="axes_1">
   <g id="patch_2">
    <path d="M 57.6 307.584 
L 414.72 307.584 
L 414.72 41.472 
L 57.6 41.472 
z
" style="fill:#ffffff;"/>
   </g>
   <g id="patch_3">
    <path clip-path="url(#pafc51cd46b)" d="M 100.16367 307.584 
L 102.883626 307.584 
L 102.883626 303.986952 
L 100.16367 303.986952 
z
" style="fill:#1f77b4;"/>
   </g>
   <g id="patch_4">
    <path clip-path="url(#pafc51cd46b)" d="M 102.883641 307.584 
L 105.603597 307.584 
L 105.603597 306.534861 
L 102.883641 306.534861 
z
" style="fill:#1f77b4;"/>
   </g>
   <g id="patch_5">
    <path clip-path="url(#pafc51cd46b)" d="M 105.603597 307.584 
L 108.32356 307.584 
L 108.32356 306.534864 
L 105.603597 306.534864 
z
" style="fill:#1f77b4;"/>
   </g>
   <g id="patch_6">
    <path clip-path="url(#pafc51cd46b)" d="M 108.32356 307.584 
L 111.043516 307.584 
L 111.043516 303.986952 
L 108.32356 303.986952 
z
" style="fill:#1f77b4;"/>
   </g>
   <g id="patch_7">
    <path clip-path="url(#pafc51cd46b)" d="M 111.043516 307.584 
L 113.763472 307.584 
L 113.763472 303.237567 
L 111.043516 303.237567 
z
" style="fill:#1f77b4;"/>
   </g>
   <g id="patch_8">
    <path clip-path="url(#pafc51cd46b)" d="M 113.763464 307.584 
L 116.483428 307.584 
L 116.483428 302.638073 
L 113.763464 302.638073 
z
" style="fill:#1f77b4;"/>
   </g>
   <g id="patch_9">
    <path clip-path="url(#pafc51cd46b)" d="M 116.483435 307.584 
L 119.203391 307.584 
L 119.203391 303.837075 
L 116.483435 303.837075 
z
" style="fill:#1f77b4;"/>
   </g>
   <g id="patch_10">
    <path clip-path="url(#pafc51cd46b)" d="M 119.203391 307.584 
L 121.923347 307.584 
L 121.923347 304.736337 
L 119.203391 304.736337 
z
" style="fill:#1f77b4;"/>
   </g>
   <g id="patch_11">
    <path clip-path="url(#pafc51cd46b)" d="M 121.923347 307.584 
L 124.64331 307.584 
L 124.64331 301.88869 
L 121.923347 301.88869 
z
" style="fill:#1f77b4;"/>
   </g>
   <g id="patch_12">
    <path clip-path="url(#pafc51cd46b)" d="M 124.64331 307.584 
L 127.363266 307.584 
L 127.363266 300.839535 
L 124.64331 300.839535 
z
" style="fill:#1f77b4;"/>
   </g>
   <g id="patch_13">
    <path clip-path="url(#pafc51cd46b)" d="M 127.363266 307.584 
L 130.083222 307.584 
L 130.083222 299.340765 
L 127.363266 299.340765 
z
" style="fill:#1f77b4;"/>
   </g>
   <g id="patch_14">
    <path clip-path="url(#pafc51cd46b)" d="M 130.083222 307.584 
L 132.803178 307.584 
L 132.803178 298.141749 
L 130.083222 298.141749 
z
" style="fill:#1f77b4;"/>
   </g>
   <g id="patch_15">
    <path clip-path="url(#pafc51cd46b)" d="M 132.80317 307.584 
L 135.523133 307.584 
L 135.523133 296.792887 
L 132.80317 296.792887 
z
" style="fill:#1f77b4;"/>
   </g>
   <g id="patch_16">
    <path clip-path="url(#pafc51cd46b)" d="M 135.523141 307.584 
L 138.243097 307.584 
L 138.243097 292.746177 
L 135.523141 292.746177 
z
" style="fill:#1f77b4;"/>
   </g>
   <g id="patch_17">
    <path clip-path="url(#pafc51cd46b)" d="M 138.243097 307.584 
L 140.963053 307.584 
L 140.963053 293.795316 
L 138.243097 293.795316 
z
" style="fill:#1f77b4;"/>
   </g>
   <g id="patch_18">
    <path clip-path="url(#pafc51cd46b)" d="M 140.963053 307.584 
L 143.683008 307.584 
L 143.683008 295.743717 
L 140.963053 295.743717 
z
" style="fill:#1f77b4;"/>
   </g>
   <g id="patch_19">
    <path clip-path="url(#pafc51cd46b)" d="M 143.683008 307.584 
L 146.402972 307.584 
L 146.402972 295.893627 
L 143.683008 295.893627 
z
" style="fill:#1f77b4;"/>
   </g>
   <g id="patch_20">
    <path clip-path="url(#pafc51cd46b)" d="M 146.402972 307.584 
L 149.122928 307.584 
L 149.122928 292.446423 
L 146.402972 292.446423 
z
" style="fill:#1f77b4;"/>
   </g>
   <g id="patch_21">
    <path clip-path="url(#pafc51cd46b)" d="M 149.122928 307.584 
L 151.842883 307.584 
L 151.842883 291.996792 
L 149.122928 291.996792 
z
" style="fill:#1f77b4;"/>
   </g>
   <g id="patch_22">
    <path clip-path="url(#pafc51cd46b)" d="M 151.842876 307.584 
L 154.562839 307.584 
L 154.562839 288.399799 
L 151.842876 288.399799 
z
" style="fill:#1f77b4;"/>
   </g>
   <g id="patch_23">
    <path clip-path="url(#pafc51cd46b)" d="M 154.562847 307.584 
L 157.282803 307.584 
L 157.282803 289.448883 
L 154.562847 289.448883 
z
" style="fill:#1f77b4;"/>
   </g>
   <g id="patch_24">
    <path clip-path="url(#pafc51cd46b)" d="M 157.282803 307.584 
L 160.002758 307.584 
L 160.002758 292.146669 
L 157.282803 292.146669 
z
" style="fill:#1f77b4;"/>
   </g>
   <g id="patch_25">
    <path clip-path="url(#pafc51cd46b)" d="M 160.002758 307.584 
L 162.722714 307.584 
L 162.722714 282.554541 
L 160.002758 282.554541 
z
" style="fill:#1f77b4;"/>
   </g>
   <g id="patch_26">
    <path clip-path="url(#pafc51cd46b)" d="M 162.722714 307.584 
L 165.442678 307.584 
L 165.442678 283.303995 
L 162.722714 283.303995 
z
" style="fill:#1f77b4;"/>
   </g>
   <g id="patch_27">
    <path clip-path="url(#pafc51cd46b)" d="M 165.442678 307.584 
L 168.162633 307.584 
L 168.162633 286.751097 
L 165.442678 286.751097 
z
" style="fill:#1f77b4;"/>
   </g>
   <g id="patch_28">
    <path clip-path="url(#pafc51cd46b)" d="M 168.162633 307.584 
L 170.882589 307.584 
L 170.882589 285.10245 
L 168.162633 285.10245 
z
" style="fill:#1f77b4;"/>
   </g>
   <g id="patch_29">
    <path clip-path="url(#pafc51cd46b)" d="M 170.882589 307.584 
L 173.602549 307.584 
L 173.602549 284.353098 
L 170.882589 284.353098 
z
" style="fill:#1f77b4;"/>
   </g>
   <g id="patch_30">
    <path clip-path="url(#pafc51cd46b)" d="M 173.602553 307.584 
L 176.322512 307.584 
L 176.322512 288.549648 
L 173.602553 288.549648 
z
" style="fill:#1f77b4;"/>
   </g>
   <g id="patch_31">
    <path clip-path="url(#pafc51cd46b)" d="M 176.322508 307.584 
L 179.042464 307.584 
L 179.042464 289.299006 
L 176.322508 289.299006 
z
" style="fill:#1f77b4;"/>
   </g>
   <g id="patch_32">
    <path clip-path="url(#pafc51cd46b)" d="M 179.042464 307.584 
L 181.762424 307.584 
L 181.762424 288.549648 
L 179.042464 288.549648 
z
" style="fill:#1f77b4;"/>
   </g>
   <g id="patch_33">
    <path clip-path="url(#pafc51cd46b)" d="M 181.762424 307.584 
L 184.482379 307.584 
L 184.482379 286.001712 
L 181.762424 286.001712 
z
" style="fill:#1f77b4;"/>
   </g>
   <g id="patch_34">
    <path clip-path="url(#pafc51cd46b)" d="M 184.482383 307.584 
L 187.202343 307.584 
L 187.202343 282.4047 
L 184.482383 282.4047 
z
" style="fill:#1f77b4;"/>
   </g>
   <g id="patch_35">
    <path clip-path="url(#pafc51cd46b)" d="M 187.202339 307.584 
L 189.922295 307.584 
L 189.922295 277.908354 
L 187.202339 277.908354 
z
" style="fill:#1f77b4;"/>
   </g>
   <g id="patch_36">
    <path clip-path="url(#pafc51cd46b)" d="M 189.922295 307.584 
L 192.642254 307.584 
L 192.642254 279.257287 
L 189.922295 279.257287 
z
" style="fill:#1f77b4;"/>
   </g>
   <g id="patch_37">
    <path clip-path="url(#pafc51cd46b)" d="M 192.642258 307.584 
L 195.362218 307.584 
L 195.362218 288.100018 
L 192.642258 288.100018 
z
" style="fill:#1f77b4;"/>
   </g>
   <g id="patch_38">
    <path clip-path="url(#pafc51cd46b)" d="M 195.362214 307.584 
L 198.08217 307.584 
L 198.08217 292.446423 
L 195.362214 292.446423 
z
" style="fill:#1f77b4;"/>
   </g>
   <g id="patch_39">
    <path clip-path="url(#pafc51cd46b)" d="M 198.08217 307.584 
L 200.802129 307.584 
L 200.802129 291.697061 
L 198.08217 291.697061 
z
" style="fill:#1f77b4;"/>
   </g>
   <g id="patch_40">
    <path clip-path="url(#pafc51cd46b)" d="M 200.802129 307.584 
L 203.522085 307.584 
L 203.522085 287.350605 
L 200.802129 287.350605 
z
" style="fill:#1f77b4;"/>
   </g>
   <g id="patch_41">
    <path clip-path="url(#pafc51cd46b)" d="M 203.522085 307.584 
L 206.242045 307.584 
L 206.242045 290.198293 
L 203.522085 290.198293 
z
" style="fill:#1f77b4;"/>
   </g>
   <g id="patch_42">
    <path clip-path="url(#pafc51cd46b)" d="M 206.242045 307.584 
L 208.962003 307.584 
L 208.962003 283.154067 
L 206.242045 283.154067 
z
" style="fill:#1f77b4;"/>
   </g>
   <g id="patch_43">
    <path clip-path="url(#pafc51cd46b)" d="M 208.962004 307.584 
L 211.681962 307.584 
L 211.681962 274.611084 
L 208.962004 274.611084 
z
" style="fill:#1f77b4;"/>
   </g>
   <g id="patch_44">
    <path clip-path="url(#pafc51cd46b)" d="M 211.68196 307.584 
L 214.401918 307.584 
L 214.401918 272.662684 
L 211.68196 272.662684 
z
" style="fill:#1f77b4;"/>
   </g>
   <g id="patch_45">
    <path clip-path="url(#pafc51cd46b)" d="M 214.40192 307.584 
L 217.121878 307.584 
L 217.121878 256.92561 
L 214.40192 256.92561 
z
" style="fill:#1f77b4;"/>
   </g>
   <g id="patch_46">
    <path clip-path="url(#pafc51cd46b)" d="M 217.121876 307.584 
L 219.841833 307.584 
L 219.841833 245.684843 
L 217.121876 245.684843 
z
" style="fill:#1f77b4;"/>
   </g>
   <g id="patch_47">
    <path clip-path="url(#pafc51cd46b)" d="M 219.841833 307.584 
L 222.561792 307.584 
L 222.561792 243.886343 
L 219.841833 243.886343 
z
" style="fill:#1f77b4;"/>
   </g>
   <g id="patch_48">
    <path clip-path="url(#pafc51cd46b)" d="M 222.561792 307.584 
L 225.28175 307.584 
L 225.28175 225.901094 
L 222.561792 225.901094 
z
" style="fill:#1f77b4;"/>
   </g>
   <g id="patch_49">
    <path clip-path="url(#pafc51cd46b)" d="M 225.28175 307.584 
L 228.001707 307.584 
L 228.001707 207.016605 
L 225.28175 207.016605 
z
" style="fill:#1f77b4;"/>
   </g>
   <g id="patch_50">
    <path clip-path="url(#pafc51cd46b)" d="M 228.001707 307.584 
L 230.721665 307.584 
L 230.721665 176.591619 
L 228.001707 176.591619 
z
" style="fill:#1f77b4;"/>
   </g>
   <g id="patch_51">
    <path clip-path="url(#pafc51cd46b)" d="M 230.721665 307.584 
L 233.441623 307.584 
L 233.441623 125.483592 
L 230.721665 125.483592 
z
" style="fill:#1f77b4;"/>
   </g>
   <g id="patch_52">
    <path clip-path="url(#pafc51cd46b)" d="M 233.441623 307.584 
L 236.161581 307.584 
L 236.161581 146.766109 
L 233.441623 146.766109 
z
" style="fill:#1f77b4;"/>
   </g>
   <g id="patch_53">
    <path clip-path="url(#pafc51cd46b)" d="M 236.161581 307.584 
L 238.881539 307.584 
L 238.881539 105.699844 
L 236.161581 105.699844 
z
" style="fill:#1f77b4;"/>
   </g>
   <g id="patch_54">
    <path clip-path="url(#pafc51cd46b)" d="M 238.881539 307.584 
L 241.601498 307.584 
L 241.601498 171.046163 
L 238.881539 171.046163 
z
" style="fill:#1f77b4;"/>
   </g>
   <g id="patch_55">
    <path clip-path="url(#pafc51cd46b)" d="M 241.601498 307.584 
L 244.321456 307.584 
L 244.321456 207.466254 
L 241.601498 207.466254 
z
" style="fill:#1f77b4;"/>
   </g>
   <g id="patch_56">
    <path clip-path="url(#pafc51cd46b)" d="M 244.321455 307.584 
L 247.041413 307.584 
L 247.041413 199.07313 
L 244.321455 199.07313 
z
" style="fill:#1f77b4;"/>
   </g>
   <g id="patch_57">
    <path clip-path="url(#pafc51cd46b)" d="M 247.041413 307.584 
L 249.761371 307.584 
L 249.761371 212.262296 
L 247.041413 212.262296 
z
" style="fill:#1f77b4;"/>
   </g>
   <g id="patch_58">
    <path clip-path="url(#pafc51cd46b)" d="M 249.76137 307.584 
L 252.481327 307.584 
L 252.481327 221.404817 
L 249.76137 221.404817 
z
" style="fill:#1f77b4;"/>
   </g>
   <g id="patch_59">
    <path clip-path="url(#pafc51cd46b)" d="M 252.481331 307.584 
L 255.201289 307.584 
L 255.201289 227.249986 
L 252.481331 227.249986 
z
" style="fill:#1f77b4;"/>
   </g>
   <g id="patch_60">
    <path clip-path="url(#pafc51cd46b)" d="M 255.201287 307.584 
L 257.921245 307.584 
L 257.921245 244.935459 
L 255.201287 244.935459 
z
" style="fill:#1f77b4;"/>
   </g>
   <g id="patch_61">
    <path clip-path="url(#pafc51cd46b)" d="M 257.921247 307.584 
L 260.641204 307.584 
L 260.641204 271.313792 
L 257.921247 271.313792 
z
" style="fill:#1f77b4;"/>
   </g>
   <g id="patch_62">
    <path clip-path="url(#pafc51cd46b)" d="M 260.641202 307.584 
L 263.36116 307.584 
L 263.36116 277.758498 
L 260.641202 277.758498 
z
" style="fill:#1f77b4;"/>
   </g>
   <g id="patch_63">
    <path clip-path="url(#pafc51cd46b)" d="M 263.361162 307.584 
L 266.08112 307.584 
L 266.08112 278.957514 
L 263.361162 278.957514 
z
" style="fill:#1f77b4;"/>
   </g>
   <g id="patch_64">
    <path clip-path="url(#pafc51cd46b)" d="M 266.081118 307.584 
L 268.801077 307.584 
L 268.801077 274.311354 
L 266.081118 274.311354 
z
" style="fill:#1f77b4;"/>
   </g>
   <g id="patch_65">
    <path clip-path="url(#pafc51cd46b)" d="M 268.801077 307.584 
L 271.521033 307.584 
L 271.521033 275.510322 
L 268.801077 275.510322 
z
" style="fill:#1f77b4;"/>
   </g>
   <g id="patch_66">
    <path clip-path="url(#pafc51cd46b)" d="M 271.521037 307.584 
L 274.240997 307.584 
L 274.240997 282.104946 
L 271.521037 282.104946 
z
" style="fill:#1f77b4;"/>
   </g>
   <g id="patch_67">
    <path clip-path="url(#pafc51cd46b)" d="M 274.240993 307.584 
L 276.960949 307.584 
L 276.960949 288.249867 
L 274.240993 288.249867 
z
" style="fill:#1f77b4;"/>
   </g>
   <g id="patch_68">
    <path clip-path="url(#pafc51cd46b)" d="M 276.960949 307.584 
L 279.680908 307.584 
L 279.680908 292.746198 
L 276.960949 292.746198 
z
" style="fill:#1f77b4;"/>
   </g>
   <g id="patch_69">
    <path clip-path="url(#pafc51cd46b)" d="M 279.680912 307.584 
L 282.400872 307.584 
L 282.400872 295.893611 
L 279.680912 295.893611 
z
" style="fill:#1f77b4;"/>
   </g>
   <g id="patch_70">
    <path clip-path="url(#pafc51cd46b)" d="M 282.400868 307.584 
L 285.120824 307.584 
L 285.120824 292.896054 
L 282.400868 292.896054 
z
" style="fill:#1f77b4;"/>
   </g>
   <g id="patch_71">
    <path clip-path="url(#pafc51cd46b)" d="M 285.120824 307.584 
L 287.840783 307.584 
L 287.840783 294.694596 
L 285.120824 294.694596 
z
" style="fill:#1f77b4;"/>
   </g>
   <g id="patch_72">
    <path clip-path="url(#pafc51cd46b)" d="M 287.840783 307.584 
L 290.560739 307.584 
L 290.560739 293.795316 
L 287.840783 293.795316 
z
" style="fill:#1f77b4;"/>
   </g>
   <g id="patch_73">
    <path clip-path="url(#pafc51cd46b)" d="M 290.560743 307.584 
L 293.280702 307.584 
L 293.280702 293.195829 
L 290.560743 293.195829 
z
" style="fill:#1f77b4;"/>
   </g>
   <g id="patch_74">
    <path clip-path="url(#pafc51cd46b)" d="M 293.280698 307.584 
L 296.000654 307.584 
L 296.000654 291.247407 
L 293.280698 291.247407 
z
" style="fill:#1f77b4;"/>
   </g>
   <g id="patch_75">
    <path clip-path="url(#pafc51cd46b)" d="M 296.000654 307.584 
L 298.720614 307.584 
L 298.720614 291.846937 
L 296.000654 291.846937 
z
" style="fill:#1f77b4;"/>
   </g>
   <g id="patch_76">
    <path clip-path="url(#pafc51cd46b)" d="M 298.720618 307.584 
L 301.440581 307.584 
L 301.440581 291.397307 
L 298.720618 291.397307 
z
" style="fill:#1f77b4;"/>
   </g>
   <g id="patch_77">
    <path clip-path="url(#pafc51cd46b)" d="M 301.440573 307.584 
L 304.160529 307.584 
L 304.160529 293.045931 
L 301.440573 293.045931 
z
" style="fill:#1f77b4;"/>
   </g>
   <g id="patch_78">
    <path clip-path="url(#pafc51cd46b)" d="M 304.160529 307.584 
L 306.880485 307.584 
L 306.880485 283.60368 
L 304.160529 283.60368 
z
" style="fill:#1f77b4;"/>
   </g>
   <g id="patch_79">
    <path clip-path="url(#pafc51cd46b)" d="M 306.880477 307.584 
L 309.600441 307.584 
L 309.600441 290.048441 
L 306.880477 290.048441 
z
" style="fill:#1f77b4;"/>
   </g>
   <g id="patch_80">
    <path clip-path="url(#pafc51cd46b)" d="M 309.600448 307.584 
L 312.320404 307.584 
L 312.320404 290.198268 
L 309.600448 290.198268 
z
" style="fill:#1f77b4;"/>
   </g>
   <g id="patch_81">
    <path clip-path="url(#pafc51cd46b)" d="M 312.320404 307.584 
L 315.04036 307.584 
L 315.04036 292.146669 
L 312.320404 292.146669 
z
" style="fill:#1f77b4;"/>
   </g>
   <g id="patch_82">
    <path clip-path="url(#pafc51cd46b)" d="M 315.04036 307.584 
L 317.760316 307.584 
L 317.760316 291.09753 
L 315.04036 291.09753 
z
" style="fill:#1f77b4;"/>
   </g>
   <g id="patch_83">
    <path clip-path="url(#pafc51cd46b)" d="M 317.760316 307.584 
L 320.480279 307.584 
L 320.480279 288.549675 
L 317.760316 288.549675 
z
" style="fill:#1f77b4;"/>
   </g>
   <g id="patch_84">
    <path clip-path="url(#pafc51cd46b)" d="M 320.480279 307.584 
L 323.200235 307.584 
L 323.200235 292.296546 
L 320.480279 292.296546 
z
" style="fill:#1f77b4;"/>
   </g>
   <g id="patch_85">
    <path clip-path="url(#pafc51cd46b)" d="M 323.200235 307.584 
L 325.920191 307.584 
L 325.920191 295.294086 
L 323.200235 295.294086 
z
" style="fill:#1f77b4;"/>
   </g>
   <g id="patch_86">
    <path clip-path="url(#pafc51cd46b)" d="M 325.920183 307.584 
L 328.640146 307.584 
L 328.640146 294.095108 
L 325.920183 294.095108 
z
" style="fill:#1f77b4;"/>
   </g>
   <g id="patch_87">
    <path clip-path="url(#pafc51cd46b)" d="M 328.640154 307.584 
L 331.36011 307.584 
L 331.36011 294.244947 
L 328.640154 294.244947 
z
" style="fill:#1f77b4;"/>
   </g>
   <g id="patch_88">
    <path clip-path="url(#pafc51cd46b)" d="M 331.36011 307.584 
L 334.080066 307.584 
L 334.080066 294.394824 
L 331.36011 294.394824 
z
" style="fill:#1f77b4;"/>
   </g>
   <g id="patch_89">
    <path clip-path="url(#pafc51cd46b)" d="M 334.080066 307.584 
L 336.800021 307.584 
L 336.800021 293.345685 
L 334.080066 293.345685 
z
" style="fill:#1f77b4;"/>
   </g>
   <g id="patch_90">
    <path clip-path="url(#pafc51cd46b)" d="M 336.800021 307.584 
L 339.519985 307.584 
L 339.519985 298.591406 
L 336.800021 298.591406 
z
" style="fill:#1f77b4;"/>
   </g>
   <g id="patch_91">
    <path clip-path="url(#pafc51cd46b)" d="M 339.519985 307.584 
L 342.239941 307.584 
L 342.239941 300.09015 
L 339.519985 300.09015 
z
" style="fill:#1f77b4;"/>
   </g>
   <g id="patch_92">
    <path clip-path="url(#pafc51cd46b)" d="M 342.239941 307.584 
L 344.959896 307.584 
L 344.959896 297.991872 
L 342.239941 297.991872 
z
" style="fill:#1f77b4;"/>
   </g>
   <g id="patch_93">
    <path clip-path="url(#pafc51cd46b)" d="M 344.959896 307.584 
L 347.679852 307.584 
L 347.679852 297.692118 
L 344.959896 297.692118 
z
" style="fill:#1f77b4;"/>
   </g>
   <g id="patch_94">
    <path clip-path="url(#pafc51cd46b)" d="M 347.679844 307.584 
L 350.399808 307.584 
L 350.399808 293.195849 
L 347.679844 293.195849 
z
" style="fill:#1f77b4;"/>
   </g>
   <g id="patch_95">
    <path clip-path="url(#pafc51cd46b)" d="M 350.399816 307.584 
L 353.119771 307.584 
L 353.119771 295.743717 
L 350.399816 295.743717 
z
" style="fill:#1f77b4;"/>
   </g>
   <g id="patch_96">
    <path clip-path="url(#pafc51cd46b)" d="M 353.119771 307.584 
L 355.839727 307.584 
L 355.839727 301.58892 
L 353.119771 301.58892 
z
" style="fill:#1f77b4;"/>
   </g>
   <g id="patch_97">
    <path clip-path="url(#pafc51cd46b)" d="M 355.839727 307.584 
L 358.559691 307.584 
L 358.559691 299.640542 
L 355.839727 299.640542 
z
" style="fill:#1f77b4;"/>
   </g>
   <g id="patch_98">
    <path clip-path="url(#pafc51cd46b)" d="M 358.559691 307.584 
L 361.279646 307.584 
L 361.279646 300.839535 
L 358.559691 300.839535 
z
" style="fill:#1f77b4;"/>
   </g>
   <g id="patch_99">
    <path clip-path="url(#pafc51cd46b)" d="M 361.279646 307.584 
L 363.999602 307.584 
L 363.999602 303.537321 
L 361.279646 303.537321 
z
" style="fill:#1f77b4;"/>
   </g>
   <g id="patch_100">
    <path clip-path="url(#pafc51cd46b)" d="M 363.999594 307.584 
L 366.71955 307.584 
L 366.71955 306.085234 
L 363.999594 306.085234 
z
" style="fill:#1f77b4;"/>
   </g>
   <g id="patch_101">
    <path clip-path="url(#pafc51cd46b)" d="M 366.71955 307.584 
L 369.439506 307.584 
L 369.439506 305.785476 
L 366.71955 305.785476 
z
" style="fill:#1f77b4;"/>
   </g>
   <g id="patch_102">
    <path clip-path="url(#pafc51cd46b)" d="M 369.439521 307.584 
L 372.159477 307.584 
L 372.159477 305.036091 
L 369.439521 305.036091 
z
" style="fill:#1f77b4;"/>
   </g>
   <g id="matplotlib.axis_1">
    <g id="xtick_1">
     <g id="line2d_1">
      <defs>
       <path d="M 0 0 
L 0 3.5 
" id="m553daa4c38" style="stroke:#000000;stroke-width:0.8;"/>
      </defs>
      <g>
       <use style="stroke:#000000;stroke-width:0.8;" x="106.298993" xlink:href="#m553daa4c38" y="307.584"/>
      </g>
     </g>
     <g id="text_1">
      <!-- −2 -->
      <defs>
       <path d="M 10.59375 35.5 
L 73.1875 35.5 
L 73.1875 27.203125 
L 10.59375 27.203125 
z
" id="DejaVuSans-8722"/>
       <path d="M 19.1875 8.296875 
L 53.609375 8.296875 
L 53.609375 0 
L 7.328125 0 
L 7.328125 8.296875 
Q 12.9375 14.109375 22.625 23.890625 
Q 32.328125 33.6875 34.8125 36.53125 
Q 39.546875 41.84375 41.421875 45.53125 
Q 43.3125 49.21875 43.3125 52.78125 
Q 43.3125 58.59375 39.234375 62.25 
Q 35.15625 65.921875 28.609375 65.921875 
Q 23.96875 65.921875 18.8125 64.3125 
Q 13.671875 62.703125 7.8125 59.421875 
L 7.8125 69.390625 
Q 13.765625 71.78125 18.9375 73 
Q 24.125 74.21875 28.421875 74.21875 
Q 39.75 74.21875 46.484375 68.546875 
Q 53.21875 62.890625 53.21875 53.421875 
Q 53.21875 48.921875 51.53125 44.890625 
Q 49.859375 40.875 45.40625 35.40625 
Q 44.1875 33.984375 37.640625 27.21875 
Q 31.109375 20.453125 19.1875 8.296875 
z
" id="DejaVuSans-50"/>
      </defs>
      <g transform="translate(93.768134 327.501344)scale(0.17 -0.17)">
       <use xlink:href="#DejaVuSans-8722"/>
       <use x="83.789062" xlink:href="#DejaVuSans-50"/>
      </g>
     </g>
    </g>
    <g id="xtick_2">
     <g id="line2d_2">
      <g>
       <use style="stroke:#000000;stroke-width:0.8;" x="171.231526" xlink:href="#m553daa4c38" y="307.584"/>
      </g>
     </g>
     <g id="text_2">
      <!-- −1 -->
      <defs>
       <path d="M 12.40625 8.296875 
L 28.515625 8.296875 
L 28.515625 63.921875 
L 10.984375 60.40625 
L 10.984375 69.390625 
L 28.421875 72.90625 
L 38.28125 72.90625 
L 38.28125 8.296875 
L 54.390625 8.296875 
L 54.390625 0 
L 12.40625 0 
z
" id="DejaVuSans-49"/>
      </defs>
      <g transform="translate(158.700667 327.501344)scale(0.17 -0.17)">
       <use xlink:href="#DejaVuSans-8722"/>
       <use x="83.789062" xlink:href="#DejaVuSans-49"/>
      </g>
     </g>
    </g>
    <g id="xtick_3">
     <g id="line2d_3">
      <g>
       <use style="stroke:#000000;stroke-width:0.8;" x="236.164058" xlink:href="#m553daa4c38" y="307.584"/>
      </g>
     </g>
     <g id="text_3">
      <!-- 0 -->
      <defs>
       <path d="M 31.78125 66.40625 
Q 24.171875 66.40625 20.328125 58.90625 
Q 16.5 51.421875 16.5 36.375 
Q 16.5 21.390625 20.328125 13.890625 
Q 24.171875 6.390625 31.78125 6.390625 
Q 39.453125 6.390625 43.28125 13.890625 
Q 47.125 21.390625 47.125 36.375 
Q 47.125 51.421875 43.28125 58.90625 
Q 39.453125 66.40625 31.78125 66.40625 
z
M 31.78125 74.21875 
Q 44.046875 74.21875 50.515625 64.515625 
Q 56.984375 54.828125 56.984375 36.375 
Q 56.984375 17.96875 50.515625 8.265625 
Q 44.046875 -1.421875 31.78125 -1.421875 
Q 19.53125 -1.421875 13.0625 8.265625 
Q 6.59375 17.96875 6.59375 36.375 
Q 6.59375 54.828125 13.0625 64.515625 
Q 19.53125 74.21875 31.78125 74.21875 
z
" id="DejaVuSans-48"/>
      </defs>
      <g transform="translate(230.755933 327.501344)scale(0.17 -0.17)">
       <use xlink:href="#DejaVuSans-48"/>
      </g>
     </g>
    </g>
    <g id="xtick_4">
     <g id="line2d_4">
      <g>
       <use style="stroke:#000000;stroke-width:0.8;" x="301.096591" xlink:href="#m553daa4c38" y="307.584"/>
      </g>
     </g>
     <g id="text_4">
      <!-- 1 -->
      <g transform="translate(295.688466 327.501344)scale(0.17 -0.17)">
       <use xlink:href="#DejaVuSans-49"/>
      </g>
     </g>
    </g>
    <g id="xtick_5">
     <g id="line2d_5">
      <g>
       <use style="stroke:#000000;stroke-width:0.8;" x="366.029123" xlink:href="#m553daa4c38" y="307.584"/>
      </g>
     </g>
     <g id="text_5">
      <!-- 2 -->
      <g transform="translate(360.620998 327.501344)scale(0.17 -0.17)">
       <use xlink:href="#DejaVuSans-50"/>
      </g>
     </g>
    </g>
    <g id="text_6">
     <!-- Position in Radian -->
     <defs>
      <path d="M 19.671875 64.796875 
L 19.671875 37.40625 
L 32.078125 37.40625 
Q 38.96875 37.40625 42.71875 40.96875 
Q 46.484375 44.53125 46.484375 51.125 
Q 46.484375 57.671875 42.71875 61.234375 
Q 38.96875 64.796875 32.078125 64.796875 
z
M 9.8125 72.90625 
L 32.078125 72.90625 
Q 44.34375 72.90625 50.609375 67.359375 
Q 56.890625 61.8125 56.890625 51.125 
Q 56.890625 40.328125 50.609375 34.8125 
Q 44.34375 29.296875 32.078125 29.296875 
L 19.671875 29.296875 
L 19.671875 0 
L 9.8125 0 
z
" id="DejaVuSans-80"/>
      <path d="M 30.609375 48.390625 
Q 23.390625 48.390625 19.1875 42.75 
Q 14.984375 37.109375 14.984375 27.296875 
Q 14.984375 17.484375 19.15625 11.84375 
Q 23.34375 6.203125 30.609375 6.203125 
Q 37.796875 6.203125 41.984375 11.859375 
Q 46.1875 17.53125 46.1875 27.296875 
Q 46.1875 37.015625 41.984375 42.703125 
Q 37.796875 48.390625 30.609375 48.390625 
z
M 30.609375 56 
Q 42.328125 56 49.015625 48.375 
Q 55.71875 40.765625 55.71875 27.296875 
Q 55.71875 13.875 49.015625 6.21875 
Q 42.328125 -1.421875 30.609375 -1.421875 
Q 18.84375 -1.421875 12.171875 6.21875 
Q 5.515625 13.875 5.515625 27.296875 
Q 5.515625 40.765625 12.171875 48.375 
Q 18.84375 56 30.609375 56 
z
" id="DejaVuSans-111"/>
      <path d="M 44.28125 53.078125 
L 44.28125 44.578125 
Q 40.484375 46.53125 36.375 47.5 
Q 32.28125 48.484375 27.875 48.484375 
Q 21.1875 48.484375 17.84375 46.4375 
Q 14.5 44.390625 14.5 40.28125 
Q 14.5 37.15625 16.890625 35.375 
Q 19.28125 33.59375 26.515625 31.984375 
L 29.59375 31.296875 
Q 39.15625 29.25 43.1875 25.515625 
Q 47.21875 21.78125 47.21875 15.09375 
Q 47.21875 7.46875 41.1875 3.015625 
Q 35.15625 -1.421875 24.609375 -1.421875 
Q 20.21875 -1.421875 15.453125 -0.5625 
Q 10.6875 0.296875 5.421875 2 
L 5.421875 11.28125 
Q 10.40625 8.6875 15.234375 7.390625 
Q 20.0625 6.109375 24.8125 6.109375 
Q 31.15625 6.109375 34.5625 8.28125 
Q 37.984375 10.453125 37.984375 14.40625 
Q 37.984375 18.0625 35.515625 20.015625 
Q 33.0625 21.96875 24.703125 23.78125 
L 21.578125 24.515625 
Q 13.234375 26.265625 9.515625 29.90625 
Q 5.8125 33.546875 5.8125 39.890625 
Q 5.8125 47.609375 11.28125 51.796875 
Q 16.75 56 26.8125 56 
Q 31.78125 56 36.171875 55.265625 
Q 40.578125 54.546875 44.28125 53.078125 
z
" id="DejaVuSans-115"/>
      <path d="M 9.421875 54.6875 
L 18.40625 54.6875 
L 18.40625 0 
L 9.421875 0 
z
M 9.421875 75.984375 
L 18.40625 75.984375 
L 18.40625 64.59375 
L 9.421875 64.59375 
z
" id="DejaVuSans-105"/>
      <path d="M 18.3125 70.21875 
L 18.3125 54.6875 
L 36.8125 54.6875 
L 36.8125 47.703125 
L 18.3125 47.703125 
L 18.3125 18.015625 
Q 18.3125 11.328125 20.140625 9.421875 
Q 21.96875 7.515625 27.59375 7.515625 
L 36.8125 7.515625 
L 36.8125 0 
L 27.59375 0 
Q 17.1875 0 13.234375 3.875 
Q 9.28125 7.765625 9.28125 18.015625 
L 9.28125 47.703125 
L 2.6875 47.703125 
L 2.6875 54.6875 
L 9.28125 54.6875 
L 9.28125 70.21875 
z
" id="DejaVuSans-116"/>
      <path d="M 54.890625 33.015625 
L 54.890625 0 
L 45.90625 0 
L 45.90625 32.71875 
Q 45.90625 40.484375 42.875 44.328125 
Q 39.84375 48.1875 33.796875 48.1875 
Q 26.515625 48.1875 22.3125 43.546875 
Q 18.109375 38.921875 18.109375 30.90625 
L 18.109375 0 
L 9.078125 0 
L 9.078125 54.6875 
L 18.109375 54.6875 
L 18.109375 46.1875 
Q 21.34375 51.125 25.703125 53.5625 
Q 30.078125 56 35.796875 56 
Q 45.21875 56 50.046875 50.171875 
Q 54.890625 44.34375 54.890625 33.015625 
z
" id="DejaVuSans-110"/>
      <path id="DejaVuSans-32"/>
      <path d="M 44.390625 34.1875 
Q 47.5625 33.109375 50.5625 29.59375 
Q 53.5625 26.078125 56.59375 19.921875 
L 66.609375 0 
L 56 0 
L 46.6875 18.703125 
Q 43.0625 26.03125 39.671875 28.421875 
Q 36.28125 30.8125 30.421875 30.8125 
L 19.671875 30.8125 
L 19.671875 0 
L 9.8125 0 
L 9.8125 72.90625 
L 32.078125 72.90625 
Q 44.578125 72.90625 50.734375 67.671875 
Q 56.890625 62.453125 56.890625 51.90625 
Q 56.890625 45.015625 53.6875 40.46875 
Q 50.484375 35.9375 44.390625 34.1875 
z
M 19.671875 64.796875 
L 19.671875 38.921875 
L 32.078125 38.921875 
Q 39.203125 38.921875 42.84375 42.21875 
Q 46.484375 45.515625 46.484375 51.90625 
Q 46.484375 58.296875 42.84375 61.546875 
Q 39.203125 64.796875 32.078125 64.796875 
z
" id="DejaVuSans-82"/>
      <path d="M 34.28125 27.484375 
Q 23.390625 27.484375 19.1875 25 
Q 14.984375 22.515625 14.984375 16.5 
Q 14.984375 11.71875 18.140625 8.90625 
Q 21.296875 6.109375 26.703125 6.109375 
Q 34.1875 6.109375 38.703125 11.40625 
Q 43.21875 16.703125 43.21875 25.484375 
L 43.21875 27.484375 
z
M 52.203125 31.203125 
L 52.203125 0 
L 43.21875 0 
L 43.21875 8.296875 
Q 40.140625 3.328125 35.546875 0.953125 
Q 30.953125 -1.421875 24.3125 -1.421875 
Q 15.921875 -1.421875 10.953125 3.296875 
Q 6 8.015625 6 15.921875 
Q 6 25.140625 12.171875 29.828125 
Q 18.359375 34.515625 30.609375 34.515625 
L 43.21875 34.515625 
L 43.21875 35.40625 
Q 43.21875 41.609375 39.140625 45 
Q 35.0625 48.390625 27.6875 48.390625 
Q 23 48.390625 18.546875 47.265625 
Q 14.109375 46.140625 10.015625 43.890625 
L 10.015625 52.203125 
Q 14.9375 54.109375 19.578125 55.046875 
Q 24.21875 56 28.609375 56 
Q 40.484375 56 46.34375 49.84375 
Q 52.203125 43.703125 52.203125 31.203125 
z
" id="DejaVuSans-97"/>
      <path d="M 45.40625 46.390625 
L 45.40625 75.984375 
L 54.390625 75.984375 
L 54.390625 0 
L 45.40625 0 
L 45.40625 8.203125 
Q 42.578125 3.328125 38.25 0.953125 
Q 33.9375 -1.421875 27.875 -1.421875 
Q 17.96875 -1.421875 11.734375 6.484375 
Q 5.515625 14.40625 5.515625 27.296875 
Q 5.515625 40.1875 11.734375 48.09375 
Q 17.96875 56 27.875 56 
Q 33.9375 56 38.25 53.625 
Q 42.578125 51.265625 45.40625 46.390625 
z
M 14.796875 27.296875 
Q 14.796875 17.390625 18.875 11.75 
Q 22.953125 6.109375 30.078125 6.109375 
Q 37.203125 6.109375 41.296875 11.75 
Q 45.40625 17.390625 45.40625 27.296875 
Q 45.40625 37.203125 41.296875 42.84375 
Q 37.203125 48.484375 30.078125 48.484375 
Q 22.953125 48.484375 18.875 42.84375 
Q 14.796875 37.203125 14.796875 27.296875 
z
" id="DejaVuSans-100"/>
     </defs>
     <g transform="translate(102.024844 357.832125)scale(0.3 -0.3)">
      <use xlink:href="#DejaVuSans-80"/>
      <use x="60.255859" xlink:href="#DejaVuSans-111"/>
      <use x="121.4375" xlink:href="#DejaVuSans-115"/>
      <use x="173.537109" xlink:href="#DejaVuSans-105"/>
      <use x="201.320312" xlink:href="#DejaVuSans-116"/>
      <use x="240.529297" xlink:href="#DejaVuSans-105"/>
      <use x="268.3125" xlink:href="#DejaVuSans-111"/>
      <use x="329.494141" xlink:href="#DejaVuSans-110"/>
      <use x="392.873047" xlink:href="#DejaVuSans-32"/>
      <use x="424.660156" xlink:href="#DejaVuSans-105"/>
      <use x="452.443359" xlink:href="#DejaVuSans-110"/>
      <use x="515.822266" xlink:href="#DejaVuSans-32"/>
      <use x="547.609375" xlink:href="#DejaVuSans-82"/>
      <use x="617.060547" xlink:href="#DejaVuSans-97"/>
      <use x="678.339844" xlink:href="#DejaVuSans-100"/>
      <use x="741.816406" xlink:href="#DejaVuSans-105"/>
      <use x="769.599609" xlink:href="#DejaVuSans-97"/>
      <use x="830.878906" xlink:href="#DejaVuSans-110"/>
     </g>
    </g>
   </g>
   <g id="matplotlib.axis_2">
    <g id="ytick_1">
     <g id="line2d_6">
      <defs>
       <path d="M 0 0 
L -3.5 0 
" id="m705bd23b79" style="stroke:#000000;stroke-width:0.8;"/>
      </defs>
      <g>
       <use style="stroke:#000000;stroke-width:0.8;" x="57.6" xlink:href="#m705bd23b79" y="307.584"/>
      </g>
     </g>
     <g id="text_7">
      <!-- 0.0 -->
      <defs>
       <path d="M 10.6875 12.40625 
L 21 12.40625 
L 21 0 
L 10.6875 0 
z
" id="DejaVuSans-46"/>
      </defs>
      <g transform="translate(23.564687 314.042672)scale(0.17 -0.17)">
       <use xlink:href="#DejaVuSans-48"/>
       <use x="63.623047" xlink:href="#DejaVuSans-46"/>
       <use x="95.410156" xlink:href="#DejaVuSans-48"/>
      </g>
     </g>
    </g>
    <g id="ytick_2">
     <g id="line2d_7">
      <g>
       <use style="stroke:#000000;stroke-width:0.8;" x="57.6" xlink:href="#m705bd23b79" y="244.802095"/>
      </g>
     </g>
     <g id="text_8">
      <!-- 0.5 -->
      <defs>
       <path d="M 10.796875 72.90625 
L 49.515625 72.90625 
L 49.515625 64.59375 
L 19.828125 64.59375 
L 19.828125 46.734375 
Q 21.96875 47.46875 24.109375 47.828125 
Q 26.265625 48.1875 28.421875 48.1875 
Q 40.625 48.1875 47.75 41.5 
Q 54.890625 34.8125 54.890625 23.390625 
Q 54.890625 11.625 47.5625 5.09375 
Q 40.234375 -1.421875 26.90625 -1.421875 
Q 22.3125 -1.421875 17.546875 -0.640625 
Q 12.796875 0.140625 7.71875 1.703125 
L 7.71875 11.625 
Q 12.109375 9.234375 16.796875 8.0625 
Q 21.484375 6.890625 26.703125 6.890625 
Q 35.15625 6.890625 40.078125 11.328125 
Q 45.015625 15.765625 45.015625 23.390625 
Q 45.015625 31 40.078125 35.4375 
Q 35.15625 39.890625 26.703125 39.890625 
Q 22.75 39.890625 18.8125 39.015625 
Q 14.890625 38.140625 10.796875 36.28125 
z
" id="DejaVuSans-53"/>
      </defs>
      <g transform="translate(23.564687 251.260767)scale(0.17 -0.17)">
       <use xlink:href="#DejaVuSans-48"/>
       <use x="63.623047" xlink:href="#DejaVuSans-46"/>
       <use x="95.410156" xlink:href="#DejaVuSans-53"/>
      </g>
     </g>
    </g>
    <g id="ytick_3">
     <g id="line2d_8">
      <g>
       <use style="stroke:#000000;stroke-width:0.8;" x="57.6" xlink:href="#m705bd23b79" y="182.020191"/>
      </g>
     </g>
     <g id="text_9">
      <!-- 1.0 -->
      <g transform="translate(23.564687 188.478863)scale(0.17 -0.17)">
       <use xlink:href="#DejaVuSans-49"/>
       <use x="63.623047" xlink:href="#DejaVuSans-46"/>
       <use x="95.410156" xlink:href="#DejaVuSans-48"/>
      </g>
     </g>
    </g>
    <g id="ytick_4">
     <g id="line2d_9">
      <g>
       <use style="stroke:#000000;stroke-width:0.8;" x="57.6" xlink:href="#m705bd23b79" y="119.238286"/>
      </g>
     </g>
     <g id="text_10">
      <!-- 1.5 -->
      <g transform="translate(23.564687 125.696958)scale(0.17 -0.17)">
       <use xlink:href="#DejaVuSans-49"/>
       <use x="63.623047" xlink:href="#DejaVuSans-46"/>
       <use x="95.410156" xlink:href="#DejaVuSans-53"/>
      </g>
     </g>
    </g>
    <g id="ytick_5">
     <g id="line2d_10">
      <g>
       <use style="stroke:#000000;stroke-width:0.8;" x="57.6" xlink:href="#m705bd23b79" y="56.456382"/>
      </g>
     </g>
     <g id="text_11">
      <!-- 2.0 -->
      <g transform="translate(23.564687 62.915053)scale(0.17 -0.17)">
       <use xlink:href="#DejaVuSans-50"/>
       <use x="63.623047" xlink:href="#DejaVuSans-46"/>
       <use x="95.410156" xlink:href="#DejaVuSans-48"/>
      </g>
     </g>
    </g>
    <g id="text_12">
     <!-- Density -->
     <defs>
      <path d="M 19.671875 64.796875 
L 19.671875 8.109375 
L 31.59375 8.109375 
Q 46.6875 8.109375 53.6875 14.9375 
Q 60.6875 21.78125 60.6875 36.53125 
Q 60.6875 51.171875 53.6875 57.984375 
Q 46.6875 64.796875 31.59375 64.796875 
z
M 9.8125 72.90625 
L 30.078125 72.90625 
Q 51.265625 72.90625 61.171875 64.09375 
Q 71.09375 55.28125 71.09375 36.53125 
Q 71.09375 17.671875 61.125 8.828125 
Q 51.171875 0 30.078125 0 
L 9.8125 0 
z
" id="DejaVuSans-68"/>
      <path d="M 56.203125 29.59375 
L 56.203125 25.203125 
L 14.890625 25.203125 
Q 15.484375 15.921875 20.484375 11.0625 
Q 25.484375 6.203125 34.421875 6.203125 
Q 39.59375 6.203125 44.453125 7.46875 
Q 49.3125 8.734375 54.109375 11.28125 
L 54.109375 2.78125 
Q 49.265625 0.734375 44.1875 -0.34375 
Q 39.109375 -1.421875 33.890625 -1.421875 
Q 20.796875 -1.421875 13.15625 6.1875 
Q 5.515625 13.8125 5.515625 26.8125 
Q 5.515625 40.234375 12.765625 48.109375 
Q 20.015625 56 32.328125 56 
Q 43.359375 56 49.78125 48.890625 
Q 56.203125 41.796875 56.203125 29.59375 
z
M 47.21875 32.234375 
Q 47.125 39.59375 43.09375 43.984375 
Q 39.0625 48.390625 32.421875 48.390625 
Q 24.90625 48.390625 20.390625 44.140625 
Q 15.875 39.890625 15.1875 32.171875 
z
" id="DejaVuSans-101"/>
      <path d="M 32.171875 -5.078125 
Q 28.375 -14.84375 24.75 -17.8125 
Q 21.140625 -20.796875 15.09375 -20.796875 
L 7.90625 -20.796875 
L 7.90625 -13.28125 
L 13.1875 -13.28125 
Q 16.890625 -13.28125 18.9375 -11.515625 
Q 21 -9.765625 23.484375 -3.21875 
L 25.09375 0.875 
L 2.984375 54.6875 
L 12.5 54.6875 
L 29.59375 11.921875 
L 46.6875 54.6875 
L 56.203125 54.6875 
z
" id="DejaVuSans-121"/>
     </defs>
     <g transform="translate(13.325625 231.553781)rotate(-90)scale(0.3 -0.3)">
      <use xlink:href="#DejaVuSans-68"/>
      <use x="77.001953" xlink:href="#DejaVuSans-101"/>
      <use x="138.525391" xlink:href="#DejaVuSans-110"/>
      <use x="201.904297" xlink:href="#DejaVuSans-115"/>
      <use x="254.003906" xlink:href="#DejaVuSans-105"/>
      <use x="281.787109" xlink:href="#DejaVuSans-116"/>
      <use x="320.996094" xlink:href="#DejaVuSans-121"/>
     </g>
    </g>
   </g>
   <g id="line2d_11">
    <path clip-path="url(#pafc51cd46b)" d="M 73.832727 307.584 
L 98.50709 307.476159 
L 98.856102 307.207272 
L 99.180765 306.647373 
L 99.643409 305.315243 
L 100.154753 304.056548 
L 100.39825 303.933401 
L 100.617397 304.096628 
L 101.859232 305.42282 
L 103.717925 306.16898 
L 104.383484 306.52775 
L 105.016576 306.603481 
L 106.209711 306.635647 
L 106.980785 306.898732 
L 107.329797 306.729328 
L 107.784325 306.227041 
L 108.458 305.117399 
L 109.440105 303.488461 
L 109.732301 303.400713 
L 110.000148 303.565754 
L 110.446559 304.174081 
L 110.91732 304.678718 
L 111.185167 304.68077 
L 111.48548 304.430503 
L 113.912333 301.76451 
L 114.293812 301.752354 
L 114.797039 301.972918 
L 115.19475 302.392667 
L 115.746677 303.385934 
L 116.290487 304.180622 
L 116.655732 304.356412 
L 117.053444 304.294493 
L 117.662187 303.940798 
L 118.238463 303.675604 
L 118.514426 303.793489 
L 118.830972 304.211951 
L 119.577696 305.276156 
L 119.80496 305.230997 
L 120.08904 304.89777 
L 120.981862 303.70626 
L 122.053249 303.011097 
L 123.011004 302.010396 
L 123.554814 301.766768 
L 123.976875 301.81625 
L 124.642434 301.929019 
L 124.926514 301.678206 
L 125.389158 300.880897 
L 125.851802 300.269295 
L 126.152115 300.209896 
L 126.61476 300.412521 
L 127.10987 300.528305 
L 127.62933 300.391996 
L 128.546502 299.887821 
L 129.04973 299.366298 
L 130.161699 298.051094 
L 130.510711 298.092427 
L 131.168153 298.198484 
L 131.882411 297.932331 
L 132.661602 297.799462 
L 133.668056 297.646817 
L 134.017068 297.25493 
L 134.520295 296.288718 
L 135.299486 294.860618 
L 136.07056 293.699345 
L 137.036431 291.714371 
L 137.271811 291.770578 
L 138.091585 292.174646 
L 138.887008 292.056869 
L 139.154855 292.411034 
L 139.528217 293.339272 
L 140.339874 295.418132 
L 140.65642 295.646102 
L 141.15153 295.640104 
L 141.630408 295.775698 
L 142.125518 295.851106 
L 142.83166 295.865273 
L 143.903046 296.310894 
L 144.227709 295.998212 
L 144.966317 295.211051 
L 145.177347 295.329653 
L 145.47766 295.820229 
L 146.013354 296.66277 
L 146.216268 296.643485 
L 146.443532 296.344854 
L 146.816894 295.401989 
L 148.342808 291.178931 
L 148.50514 291.333622 
L 148.748637 291.947348 
L 149.462894 293.914111 
L 149.625226 293.867654 
L 149.820023 293.499665 
L 150.201502 292.165585 
L 150.761545 290.424558 
L 151.159257 289.879254 
L 152.555306 288.416655 
L 153.366963 287.384468 
L 153.651043 287.392696 
L 155.136374 288.07674 
L 155.444804 288.801558 
L 156.686639 292.191751 
L 156.978835 292.265497 
L 157.482062 292.089709 
L 157.91224 292.057626 
L 158.723897 292.1462 
L 158.959277 291.733778 
L 159.267707 290.671871 
L 159.860216 287.602444 
L 160.468959 284.943976 
L 160.972186 283.710572 
L 162.26272 281.374063 
L 162.473751 281.426938 
L 162.733481 281.777126 
L 163.32599 282.605911 
L 163.528904 282.537401 
L 164.210696 282.098604 
L 164.405493 282.471332 
L 164.713923 283.636786 
L 165.606745 287.229363 
L 165.907058 287.585873 
L 166.134322 287.557263 
L 166.426518 287.255299 
L 167.546605 285.875757 
L 167.814451 286.016987 
L 168.358261 286.346768 
L 168.561175 286.165664 
L 168.837139 285.545759 
L 169.608213 283.633908 
L 169.77866 283.670963 
L 169.989691 284.013061 
L 170.476685 285.404101 
L 170.898747 286.252986 
L 171.19906 286.428653 
L 171.483139 286.34569 
L 171.783452 286.011975 
L 172.148698 285.218428 
L 172.75744 283.919342 
L 172.936005 283.936595 
L 173.130802 284.236706 
L 173.536631 285.406014 
L 173.983042 286.409441 
L 174.332054 286.681443 
L 174.786582 287.022965 
L 175.168061 287.683608 
L 176.085233 289.366984 
L 176.409895 289.503169 
L 176.767024 289.387103 
L 177.408233 289.174891 
L 177.757245 289.328288 
L 178.609485 289.829774 
L 178.852982 289.587807 
L 179.266927 288.765604 
L 179.680872 288.140454 
L 179.916252 288.117866 
L 180.208448 288.365212 
L 180.849657 288.923785 
L 181.287952 288.959931 
L 181.734363 288.792845 
L 182.050909 288.413635 
L 182.424271 287.557149 
L 183.463192 284.945651 
L 183.779738 284.769566 
L 184.136867 284.845417 
L 184.705026 284.965672 
L 184.940407 284.756733 
L 185.21637 284.167676 
L 185.711481 282.43906 
L 186.247174 280.888667 
L 186.620536 280.417222 
L 187.545825 279.585134 
L 187.870487 278.661668 
L 188.820126 275.588694 
L 188.958107 275.728051 
L 189.177255 276.353096 
L 189.834696 278.400903 
L 189.972678 278.324201 
L 190.167476 277.851115 
L 190.849267 275.954945 
L 190.979132 276.09191 
L 191.182046 276.735826 
L 191.539175 278.794625 
L 192.464464 284.303638 
L 192.764777 284.909946 
L 193.000157 284.96082 
L 193.381636 284.97797 
L 193.568317 285.296072 
L 193.819931 286.246376 
L 194.266342 289.033552 
L 194.858851 292.336708 
L 195.167281 293.039116 
L 195.370195 293.083532 
L 195.573109 292.853799 
L 195.962704 291.976533 
L 196.400999 291.182358 
L 196.595796 291.175614 
L 196.790594 291.452382 
L 197.10714 292.397145 
L 197.6753 294.019456 
L 197.870097 294.080594 
L 198.048662 293.863675 
L 198.365208 293.033089 
L 199.079466 291.151922 
L 199.412245 290.845004 
L 199.728791 290.845285 
L 200.313184 290.890458 
L 200.572914 290.614817 
L 200.897577 289.890509 
L 202.050129 286.954069 
L 202.277393 286.974198 
L 202.577706 287.285757 
L 204.355234 289.505914 
L 205.231823 290.330869 
L 205.686351 290.757434 
L 205.881148 290.677548 
L 206.092179 290.304184 
L 206.384376 289.252457 
L 206.855136 286.556686 
L 207.642443 282.254638 
L 208.234953 280.318126 
L 209.582303 276.419976 
L 210.621223 272.646455 
L 210.848487 272.512956 
L 211.035168 272.675948 
L 211.40853 273.404371 
L 211.919874 274.231413 
L 212.382518 274.557728 
L 212.674715 274.543341 
L 212.901979 274.283093 
L 213.177942 273.573461 
L 213.616236 271.711152 
L 214.874304 265.068034 
L 215.336949 260.968437 
L 216.286587 252.103037 
L 216.5869 251.231058 
L 217.374207 249.88362 
L 217.771918 247.94264 
L 218.778373 242.79796 
L 219.02187 242.518403 
L 219.192318 242.62572 
L 219.84976 243.340647 
L 219.882226 243.309256 
L 220.068907 242.932953 
L 220.417919 241.591217 
L 220.807514 240.406092 
L 220.961729 240.392877 
L 221.115944 240.701186 
L 221.383791 241.854091 
L 221.968183 244.34724 
L 222.098048 244.374713 
L 222.114282 244.358203 
L 222.26038 244.005629 
L 222.49576 242.711476 
L 222.917822 238.860003 
L 223.786294 228.632238 
L 224.500552 220.681957 
L 224.792749 219.486351 
L 225.020012 219.305703 
L 225.271626 219.159939 
L 225.442074 218.675139 
L 225.661221 217.247653 
L 225.985884 213.396643 
L 227.057271 199.514894 
L 228.388388 188.579378 
L 229.865603 168.025421 
L 230.425646 157.188631 
L 231.862278 127.458071 
L 232.186941 125.365221 
L 232.438554 124.894603 
L 232.600886 124.939478 
L 232.77945 125.271538 
L 233.006714 126.24412 
L 233.274561 128.504836 
L 233.656039 133.970425 
L 234.289131 142.742522 
L 234.38653 143.001033 
L 234.43523 142.929599 
L 234.540745 142.240073 
L 234.711193 139.292061 
L 234.946573 130.65472 
L 235.271236 109.154487 
L 236.050426 54.554251 
L 236.107242 54.144 
L 236.164058 54.522245 
L 236.27769 57.636222 
L 236.488721 70.920987 
L 237.67374 160.376145 
L 237.974053 164.788453 
L 238.258132 166.195057 
L 238.534096 166.630949 
L 238.720777 166.608088 
L 238.907458 166.292414 
L 239.175304 165.297166 
L 239.82463 162.748327 
L 239.922029 162.874367 
L 240.068127 163.549674 
L 240.287274 165.815284 
L 240.611937 171.930207 
L 242.145968 205.081026 
L 242.54368 208.379942 
L 242.795293 209.082696 
L 242.925158 209.0419 
L 243.103723 208.632577 
L 243.542017 206.846964 
L 244.296858 204.175314 
L 244.775735 201.98784 
L 245.47376 197.448175 
L 245.806539 196.103339 
L 245.928288 196.046805 
L 245.952638 196.06797 
L 246.090619 196.388507 
L 246.334116 197.653509 
L 247.299988 203.260156 
L 247.665233 205.394824 
L 248.038595 209.202931 
L 248.947651 219.043659 
L 249.183031 219.651834 
L 249.30478 219.593965 
L 249.483344 219.159101 
L 250.400516 216.367255 
L 250.416749 216.373654 
L 250.562847 216.567947 
L 250.781995 217.314592 
L 251.139124 219.476884 
L 251.958897 224.533815 
L 252.324142 225.422668 
L 254.280235 228.748812 
L 254.97826 231.063783 
L 255.384088 233.118681 
L 255.798033 236.562931 
L 256.690855 246.599453 
L 257.453812 257.011113 
L 258.111254 265.120764 
L 258.508966 267.547519 
L 259.807617 273.308376 
L 260.278378 275.474096 
L 260.497525 275.713791 
L 260.643623 275.576764 
L 260.943936 274.867058 
L 261.252365 274.370563 
L 261.382231 274.462737 
L 261.560795 274.96378 
L 261.869225 276.653737 
L 262.445501 279.657485 
L 262.664648 279.910781 
L 262.818863 279.788285 
L 263.127292 279.153137 
L 263.533121 278.499642 
L 263.760385 278.488134 
L 264.547692 278.740176 
L 264.848004 278.281743 
L 265.878808 276.054044 
L 266.382036 275.066336 
L 266.552483 275.093993 
L 266.739164 275.424927 
L 267.136876 276.75414 
L 267.461539 277.471561 
L 267.615754 277.443201 
L 267.794318 277.090152 
L 268.151447 275.7333 
L 268.622208 274.229777 
L 268.849472 274.06682 
L 269.028036 274.208447 
L 269.312116 274.795428 
L 270.245521 276.93194 
L 270.529601 277.011218 
L 271.008478 277.081299 
L 271.251975 277.43259 
L 271.617221 278.427152 
L 272.347712 280.395822 
L 272.729191 280.790045 
L 273.167485 281.213313 
L 273.459682 281.913907 
L 273.914209 283.731767 
L 274.490486 285.765994 
L 274.92878 286.511482 
L 275.49694 287.470538 
L 276.056983 289.000211 
L 277.047204 292.396097 
L 277.810161 295.039458 
L 278.037425 295.202711 
L 278.207873 295.041239 
L 278.467603 294.397925 
L 279.25491 292.259902 
L 279.425358 292.286702 
L 279.628272 292.609414 
L 279.985401 293.696634 
L 280.88634 296.499459 
L 281.17042 296.771704 
L 281.357101 296.682239 
L 281.616831 296.249579 
L 282.363555 294.889848 
L 282.631402 294.862302 
L 283.353776 294.945592 
L 283.613506 294.625055 
L 283.946286 293.801923 
L 284.839108 291.35847 
L 285.001439 291.428195 
L 285.21247 291.843327 
L 285.675114 293.422464 
L 286.137759 294.633023 
L 286.421838 294.85836 
L 286.665335 294.773376 
L 287.201029 294.233685 
L 287.590624 294.037584 
L 287.955869 294.116206 
L 288.71071 294.337158 
L 288.99479 294.132319 
L 289.376269 293.521612 
L 289.968778 292.629448 
L 290.260974 292.559754 
L 290.666803 292.744377 
L 292.135901 293.693983 
L 292.549846 293.913318 
L 293.004374 293.862357 
L 293.970245 293.565646 
L 294.246209 293.030543 
L 294.611454 291.733308 
L 295.309479 289.213605 
L 295.512393 289.106223 
L 295.682841 289.295727 
L 295.99127 290.063517 
L 296.55943 291.381325 
L 296.884093 291.613714 
L 297.330504 291.617666 
L 297.866197 291.430586 
L 298.491173 290.906539 
L 299.034983 290.584953 
L 299.465161 290.582545 
L 299.903455 290.805785 
L 300.3661 291.31036 
L 301.331971 292.440795 
L 301.843315 293.006768 
L 302.411474 293.641335 
L 302.622505 293.567277 
L 302.874119 293.183037 
L 303.336763 291.966299 
L 304.09972 289.365479 
L 305.666218 283.560666 
L 305.934064 283.234091 
L 306.088279 283.331362 
L 306.291193 283.801325 
L 306.632089 285.284064 
L 307.305764 288.171592 
L 307.565494 288.479474 
L 307.792758 288.428753 
L 308.222936 288.311876 
L 308.4502 288.551035 
L 308.864145 289.424994 
L 309.245624 289.998692 
L 309.472887 290.007879 
L 309.862483 289.697817 
L 310.114096 289.653114 
L 310.31701 289.869833 
L 310.62544 290.606257 
L 311.226066 292.00927 
L 311.469563 292.100679 
L 311.745526 291.924777 
L 312.248753 291.62057 
L 312.532833 291.731923 
L 313.417539 292.246336 
L 313.758435 292.067522 
L 314.894754 291.286455 
L 315.479147 291.364042 
L 316.047306 291.63565 
L 316.810264 292.026065 
L 317.167392 291.926971 
L 317.516405 291.585321 
L 317.873534 290.894442 
L 318.409227 289.257736 
L 318.985503 287.755021 
L 319.350749 287.350072 
L 319.691645 287.281322 
L 320.05689 287.444105 
L 320.438369 287.875591 
L 320.852314 288.719566 
L 321.388007 290.394258 
L 322.605492 294.332463 
L 322.995087 294.909528 
L 323.279167 294.985689 
L 324.188223 294.934337 
L 325.129744 295.683374 
L 325.389474 295.416219 
L 326.290413 294.278502 
L 326.509561 294.459789 
L 326.988438 295.2812 
L 327.280634 295.530905 
L 327.467315 295.424205 
L 327.710812 294.964227 
L 328.603635 293.002454 
L 328.782199 293.110323 
L 329.041929 293.60219 
L 329.723721 294.979895 
L 329.918519 294.957325 
L 330.153899 294.649227 
L 331.103537 293.15974 
L 331.890844 292.746251 
L 332.150574 292.835796 
L 332.418421 293.208538 
L 332.864832 294.315691 
L 333.368059 295.364126 
L 333.60344 295.456614 
L 333.806354 295.282542 
L 334.114783 294.652589 
L 334.877741 293.006542 
L 335.113121 292.958702 
L 335.340385 293.174104 
L 335.721864 293.918026 
L 336.785134 296.041573 
L 338.043202 298.295525 
L 339.22822 299.849571 
L 339.593466 299.910158 
L 340.007411 299.741018 
L 340.819067 299.355795 
L 341.095031 299.533861 
L 341.517092 300.142801 
L 341.963503 300.642534 
L 342.190767 300.605625 
L 342.426148 300.303264 
L 342.783276 299.411023 
L 343.60305 297.288162 
L 343.88713 297.11102 
L 344.211792 297.195607 
L 345.015332 297.45454 
L 345.77829 297.414608 
L 346.3221 297.464776 
L 347.028241 297.592793 
L 347.320437 297.352645 
L 347.750615 296.650526 
L 348.47299 295.013887 
L 349.081732 292.97955 
L 349.658008 291.316573 
L 349.933972 291.062684 
L 350.120653 291.159133 
L 350.347917 291.581565 
L 350.672579 292.732019 
L 351.97123 298.001173 
L 352.214727 298.053084 
L 352.701721 298.056937 
L 352.937101 298.39383 
L 353.29423 299.38582 
L 354.008488 301.359791 
L 354.325034 301.65756 
L 354.600997 301.635183 
L 354.933777 301.359838 
L 355.46947 300.574606 
L 356.24866 299.510731 
L 356.662605 299.287101 
L 357.011618 299.343305 
L 357.628477 299.749073 
L 358.091121 299.89858 
L 359.308606 300.027884 
L 359.673851 300.545164 
L 360.745238 302.290001 
L 361.037435 302.227627 
L 361.516312 302.119973 
L 361.776042 302.336427 
L 362.189987 303.049493 
L 362.912362 304.221064 
L 363.788951 305.105816 
L 364.300294 305.372186 
L 365.509663 305.755319 
L 366.321319 306.371418 
L 366.678448 306.317573 
L 368.204363 305.799987 
L 369.267633 305.868084 
L 369.81956 306.148816 
L 370.501351 306.478991 
L 370.793548 306.367956 
L 371.110094 305.981685 
L 372.059732 304.640266 
L 372.262646 304.790966 
L 372.554843 305.34953 
L 373.463898 307.249227 
L 373.86161 307.503778 
L 374.454119 307.579207 
L 378.975047 307.584 
L 398.487273 307.584 
L 398.487273 307.584 
" style="fill:none;stroke:#ff7f0e;stroke-linecap:square;stroke-width:1.5;"/>
   </g>
   <g id="patch_103">
    <path d="M 57.6 307.584 
L 57.6 41.472 
" style="fill:none;stroke:#000000;stroke-linecap:square;stroke-linejoin:miter;stroke-width:0.8;"/>
   </g>
   <g id="patch_104">
    <path d="M 414.72 307.584 
L 414.72 41.472 
" style="fill:none;stroke:#000000;stroke-linecap:square;stroke-linejoin:miter;stroke-width:0.8;"/>
   </g>
   <g id="patch_105">
    <path d="M 57.6 307.584 
L 414.72 307.584 
" style="fill:none;stroke:#000000;stroke-linecap:square;stroke-linejoin:miter;stroke-width:0.8;"/>
   </g>
   <g id="patch_106">
    <path d="M 57.6 41.472 
L 414.72 41.472 
" style="fill:none;stroke:#000000;stroke-linecap:square;stroke-linejoin:miter;stroke-width:0.8;"/>
   </g>
  </g>
 </g>
 <defs>
  <clipPath id="pafc51cd46b">
   <rect height="266.112" width="357.12" x="57.6" y="41.472"/>
  </clipPath>
 </defs>
</svg>
