<?xml version="1.0" encoding="utf-8" standalone="no"?>
<!DOCTYPE svg PUBLIC "-//W3C//DTD SVG 1.1//EN"
  "http://www.w3.org/Graphics/SVG/1.1/DTD/svg11.dtd">
<!-- Created with matplotlib (https://matplotlib.org/) -->
<svg height="345.6pt" version="1.1" viewBox="0 0 460.8 345.6" width="460.8pt" xmlns="http://www.w3.org/2000/svg" xmlns:xlink="http://www.w3.org/1999/xlink">
 <defs>
  <style type="text/css">
*{stroke-linecap:butt;stroke-linejoin:round;}
  </style>
 </defs>
 <g id="figure_1">
  <g id="patch_1">
   <path d="M 0 345.6 
L 460.8 345.6 
L 460.8 0 
L 0 0 
z
" style="fill:#ffffff;"/>
  </g>
  <g id="axes_1">
   <g id="patch_2">
    <path d="M 57.6 307.584 
L 414.72 307.584 
L 414.72 41.472 
L 57.6 41.472 
z
" style="fill:#ffffff;"/>
   </g>
   <g id="patch_3">
    <path clip-path="url(#pd289da5dfb)" d="M 73.832727 307.584 
L 77.079276 307.584 
L 77.079276 306.610915 
L 73.832727 306.610915 
z
" style="fill:#1f77b4;"/>
   </g>
   <g id="patch_4">
    <path clip-path="url(#pd289da5dfb)" d="M 77.079276 307.584 
L 80.325824 307.584 
L 80.325824 307.259638 
L 77.079276 307.259638 
z
" style="fill:#1f77b4;"/>
   </g>
   <g id="patch_5">
    <path clip-path="url(#pd289da5dfb)" d="M 80.325812 307.584 
L 83.572347 307.584 
L 83.572347 305.962185 
L 80.325812 305.962185 
z
" style="fill:#1f77b4;"/>
   </g>
   <g id="patch_6">
    <path clip-path="url(#pd289da5dfb)" d="M 83.57236 307.584 
L 86.818909 307.584 
L 86.818909 307.584 
L 83.57236 307.584 
z
" style="fill:#1f77b4;"/>
   </g>
   <g id="patch_7">
    <path clip-path="url(#pd289da5dfb)" d="M 86.818909 307.584 
L 90.065457 307.584 
L 90.065457 307.259638 
L 86.818909 307.259638 
z
" style="fill:#1f77b4;"/>
   </g>
   <g id="patch_8">
    <path clip-path="url(#pd289da5dfb)" d="M 90.065457 307.584 
L 93.312006 307.584 
L 93.312006 307.259638 
L 90.065457 307.259638 
z
" style="fill:#1f77b4;"/>
   </g>
   <g id="patch_9">
    <path clip-path="url(#pd289da5dfb)" d="M 93.312006 307.584 
L 96.558541 307.584 
L 96.558541 306.286548 
L 93.312006 306.286548 
z
" style="fill:#1f77b4;"/>
   </g>
   <g id="patch_10">
    <path clip-path="url(#pd289da5dfb)" d="M 96.558541 307.584 
L 99.80509 307.584 
L 99.80509 304.989106 
L 96.558541 304.989106 
z
" style="fill:#1f77b4;"/>
   </g>
   <g id="patch_11">
    <path clip-path="url(#pd289da5dfb)" d="M 99.80509 307.584 
L 103.051638 307.584 
L 103.051638 307.259638 
L 99.80509 307.259638 
z
" style="fill:#1f77b4;"/>
   </g>
   <g id="patch_12">
    <path clip-path="url(#pd289da5dfb)" d="M 103.051638 307.584 
L 106.298187 307.584 
L 106.298187 307.259638 
L 103.051638 307.259638 
z
" style="fill:#1f77b4;"/>
   </g>
   <g id="patch_13">
    <path clip-path="url(#pd289da5dfb)" d="M 106.298174 307.584 
L 109.54471 307.584 
L 109.54471 305.637822 
L 106.298174 305.637822 
z
" style="fill:#1f77b4;"/>
   </g>
   <g id="patch_14">
    <path clip-path="url(#pd289da5dfb)" d="M 109.544723 307.584 
L 112.791271 307.584 
L 112.791271 304.016021 
L 109.544723 304.016021 
z
" style="fill:#1f77b4;"/>
   </g>
   <g id="patch_15">
    <path clip-path="url(#pd289da5dfb)" d="M 112.791271 307.584 
L 116.03782 307.584 
L 116.03782 306.610915 
L 112.791271 306.610915 
z
" style="fill:#1f77b4;"/>
   </g>
   <g id="patch_16">
    <path clip-path="url(#pd289da5dfb)" d="M 116.03782 307.584 
L 119.284368 307.584 
L 119.284368 306.286553 
L 116.03782 306.286553 
z
" style="fill:#1f77b4;"/>
   </g>
   <g id="patch_17">
    <path clip-path="url(#pd289da5dfb)" d="M 119.284368 307.584 
L 122.530904 307.584 
L 122.530904 305.313459 
L 119.284368 305.313459 
z
" style="fill:#1f77b4;"/>
   </g>
   <g id="patch_18">
    <path clip-path="url(#pd289da5dfb)" d="M 122.530904 307.584 
L 125.777453 307.584 
L 125.777453 305.637829 
L 122.530904 305.637829 
z
" style="fill:#1f77b4;"/>
   </g>
   <g id="patch_19">
    <path clip-path="url(#pd289da5dfb)" d="M 125.777453 307.584 
L 129.024001 307.584 
L 129.024001 303.042935 
L 125.777453 303.042935 
z
" style="fill:#1f77b4;"/>
   </g>
   <g id="patch_20">
    <path clip-path="url(#pd289da5dfb)" d="M 129.024001 307.584 
L 132.270543 307.584 
L 132.270543 301.745477 
L 129.024001 301.745477 
z
" style="fill:#1f77b4;"/>
   </g>
   <g id="patch_21">
    <path clip-path="url(#pd289da5dfb)" d="M 132.270543 307.584 
L 135.517092 307.584 
L 135.517092 303.691659 
L 132.270543 303.691659 
z
" style="fill:#1f77b4;"/>
   </g>
   <g id="patch_22">
    <path clip-path="url(#pd289da5dfb)" d="M 135.517085 307.584 
L 138.763627 307.584 
L 138.763627 301.096752 
L 135.517085 301.096752 
z
" style="fill:#1f77b4;"/>
   </g>
   <g id="patch_23">
    <path clip-path="url(#pd289da5dfb)" d="M 138.763634 307.584 
L 142.010182 307.584 
L 142.010182 302.394212 
L 138.763634 302.394212 
z
" style="fill:#1f77b4;"/>
   </g>
   <g id="patch_24">
    <path clip-path="url(#pd289da5dfb)" d="M 142.010182 307.584 
L 145.256724 307.584 
L 145.256724 300.77239 
L 142.010182 300.77239 
z
" style="fill:#1f77b4;"/>
   </g>
   <g id="patch_25">
    <path clip-path="url(#pd289da5dfb)" d="M 145.256724 307.584 
L 148.503273 307.584 
L 148.503273 299.799318 
L 145.256724 299.799318 
z
" style="fill:#1f77b4;"/>
   </g>
   <g id="patch_26">
    <path clip-path="url(#pd289da5dfb)" d="M 148.503267 307.584 
L 151.749809 307.584 
L 151.749809 297.204403 
L 148.503267 297.204403 
z
" style="fill:#1f77b4;"/>
   </g>
   <g id="patch_27">
    <path clip-path="url(#pd289da5dfb)" d="M 151.749815 307.584 
L 154.996364 307.584 
L 154.996364 295.258253 
L 151.749815 295.258253 
z
" style="fill:#1f77b4;"/>
   </g>
   <g id="patch_28">
    <path clip-path="url(#pd289da5dfb)" d="M 154.996364 307.584 
L 158.242912 307.584 
L 158.242912 295.906976 
L 154.996364 295.906976 
z
" style="fill:#1f77b4;"/>
   </g>
   <g id="patch_29">
    <path clip-path="url(#pd289da5dfb)" d="M 158.242912 307.584 
L 161.489454 307.584 
L 161.489454 292.987692 
L 158.242912 292.987692 
z
" style="fill:#1f77b4;"/>
   </g>
   <g id="patch_30">
    <path clip-path="url(#pd289da5dfb)" d="M 161.489454 307.584 
L 164.736003 307.584 
L 164.736003 286.824847 
L 161.489454 286.824847 
z
" style="fill:#1f77b4;"/>
   </g>
   <g id="patch_31">
    <path clip-path="url(#pd289da5dfb)" d="M 164.735996 307.584 
L 167.982539 307.584 
L 167.982539 286.176082 
L 164.735996 286.176082 
z
" style="fill:#1f77b4;"/>
   </g>
   <g id="patch_32">
    <path clip-path="url(#pd289da5dfb)" d="M 167.982545 307.584 
L 171.229093 307.584 
L 171.229093 285.203038 
L 167.982545 285.203038 
z
" style="fill:#1f77b4;"/>
   </g>
   <g id="patch_33">
    <path clip-path="url(#pd289da5dfb)" d="M 171.229093 307.584 
L 174.475636 307.584 
L 174.475636 282.608095 
L 171.229093 282.608095 
z
" style="fill:#1f77b4;"/>
   </g>
   <g id="patch_34">
    <path clip-path="url(#pd289da5dfb)" d="M 174.475636 307.584 
L 177.722184 307.584 
L 177.722184 283.256868 
L 174.475636 283.256868 
z
" style="fill:#1f77b4;"/>
   </g>
   <g id="patch_35">
    <path clip-path="url(#pd289da5dfb)" d="M 177.722178 307.584 
L 180.96872 307.584 
L 180.96872 272.228499 
L 177.722178 272.228499 
z
" style="fill:#1f77b4;"/>
   </g>
   <g id="patch_36">
    <path clip-path="url(#pd289da5dfb)" d="M 180.968726 307.584 
L 184.215272 307.584 
L 184.215272 268.011826 
L 180.968726 268.011826 
z
" style="fill:#1f77b4;"/>
   </g>
   <g id="patch_37">
    <path clip-path="url(#pd289da5dfb)" d="M 184.215268 307.584 
L 187.461814 307.584 
L 187.461814 276.120878 
L 184.215268 276.120878 
z
" style="fill:#1f77b4;"/>
   </g>
   <g id="patch_38">
    <path clip-path="url(#pd289da5dfb)" d="M 187.461817 307.584 
L 190.708362 307.584 
L 190.708362 266.390016 
L 187.461817 266.390016 
z
" style="fill:#1f77b4;"/>
   </g>
   <g id="patch_39">
    <path clip-path="url(#pd289da5dfb)" d="M 190.708359 307.584 
L 193.954904 307.584 
L 193.954904 258.929688 
L 190.708359 258.929688 
z
" style="fill:#1f77b4;"/>
   </g>
   <g id="patch_40">
    <path clip-path="url(#pd289da5dfb)" d="M 193.954908 307.584 
L 197.201456 307.584 
L 197.201456 247.577074 
L 193.954908 247.577074 
z
" style="fill:#1f77b4;"/>
   </g>
   <g id="patch_41">
    <path clip-path="url(#pd289da5dfb)" d="M 197.201456 307.584 
L 200.448001 307.584 
L 200.448001 252.442446 
L 197.201456 252.442446 
z
" style="fill:#1f77b4;"/>
   </g>
   <g id="patch_42">
    <path clip-path="url(#pd289da5dfb)" d="M 200.447998 307.584 
L 203.694544 307.584 
L 203.694544 242.06286 
L 200.447998 242.06286 
z
" style="fill:#1f77b4;"/>
   </g>
   <g id="patch_43">
    <path clip-path="url(#pd289da5dfb)" d="M 203.694547 307.584 
L 206.941092 307.584 
L 206.941092 233.305084 
L 203.694547 233.305084 
z
" style="fill:#1f77b4;"/>
   </g>
   <g id="patch_44">
    <path clip-path="url(#pd289da5dfb)" d="M 206.941092 307.584 
L 210.187636 307.584 
L 210.187636 230.385787 
L 206.941092 230.385787 
z
" style="fill:#1f77b4;"/>
   </g>
   <g id="patch_45">
    <path clip-path="url(#pd289da5dfb)" d="M 210.187636 307.584 
L 213.434181 307.584 
L 213.434181 231.683273 
L 210.187636 231.683273 
z
" style="fill:#1f77b4;"/>
   </g>
   <g id="patch_46">
    <path clip-path="url(#pd289da5dfb)" d="M 213.43418 307.584 
L 216.680726 307.584 
L 216.680726 229.737139 
L 213.43418 229.737139 
z
" style="fill:#1f77b4;"/>
   </g>
   <g id="patch_47">
    <path clip-path="url(#pd289da5dfb)" d="M 216.680728 307.584 
L 219.927273 307.584 
L 219.927273 225.844756 
L 216.680728 225.844756 
z
" style="fill:#1f77b4;"/>
   </g>
   <g id="patch_48">
    <path clip-path="url(#pd289da5dfb)" d="M 219.927273 307.584 
L 223.173818 307.584 
L 223.173818 231.03453 
L 219.927273 231.03453 
z
" style="fill:#1f77b4;"/>
   </g>
   <g id="patch_49">
    <path clip-path="url(#pd289da5dfb)" d="M 223.173819 307.584 
L 226.420365 307.584 
L 226.420365 213.51902 
L 223.173819 213.51902 
z
" style="fill:#1f77b4;"/>
   </g>
   <g id="patch_50">
    <path clip-path="url(#pd289da5dfb)" d="M 226.420364 307.584 
L 229.666909 307.584 
L 229.666909 211.897175 
L 226.420364 211.897175 
z
" style="fill:#1f77b4;"/>
   </g>
   <g id="patch_51">
    <path clip-path="url(#pd289da5dfb)" d="M 229.666909 307.584 
L 232.913454 307.584 
L 232.913454 207.031761 
L 229.666909 207.031761 
z
" style="fill:#1f77b4;"/>
   </g>
   <g id="patch_52">
    <path clip-path="url(#pd289da5dfb)" d="M 232.913454 307.584 
L 236.16 307.584 
L 236.16 150.2684 
L 232.913454 150.2684 
z
" style="fill:#1f77b4;"/>
   </g>
   <g id="patch_53">
    <path clip-path="url(#pd289da5dfb)" d="M 236.16 307.584 
L 239.406546 307.584 
L 239.406546 201.841968 
L 236.16 201.841968 
z
" style="fill:#1f77b4;"/>
   </g>
   <g id="patch_54">
    <path clip-path="url(#pd289da5dfb)" d="M 239.406546 307.584 
L 242.653091 307.584 
L 242.653091 188.867486 
L 239.406546 188.867486 
z
" style="fill:#1f77b4;"/>
   </g>
   <g id="patch_55">
    <path clip-path="url(#pd289da5dfb)" d="M 242.653091 307.584 
L 245.899636 307.584 
L 245.899636 205.734294 
L 242.653091 205.734294 
z
" style="fill:#1f77b4;"/>
   </g>
   <g id="patch_56">
    <path clip-path="url(#pd289da5dfb)" d="M 245.899636 307.584 
L 249.146182 307.584 
L 249.146182 208.65359 
L 245.899636 208.65359 
z
" style="fill:#1f77b4;"/>
   </g>
   <g id="patch_57">
    <path clip-path="url(#pd289da5dfb)" d="M 249.146181 307.584 
L 252.392727 307.584 
L 252.392727 214.49206 
L 249.146181 214.49206 
z
" style="fill:#1f77b4;"/>
   </g>
   <g id="patch_58">
    <path clip-path="url(#pd289da5dfb)" d="M 252.392727 307.584 
L 255.639272 307.584 
L 255.639272 215.465169 
L 252.392727 215.465169 
z
" style="fill:#1f77b4;"/>
   </g>
   <g id="patch_59">
    <path clip-path="url(#pd289da5dfb)" d="M 255.639272 307.584 
L 258.885819 307.584 
L 258.885819 233.30512 
L 255.639272 233.30512 
z
" style="fill:#1f77b4;"/>
   </g>
   <g id="patch_60">
    <path clip-path="url(#pd289da5dfb)" d="M 258.885819 307.584 
L 262.132364 307.584 
L 262.132364 246.603929 
L 258.885819 246.603929 
z
" style="fill:#1f77b4;"/>
   </g>
   <g id="patch_61">
    <path clip-path="url(#pd289da5dfb)" d="M 262.132366 307.584 
L 265.378911 307.584 
L 265.378911 244.657726 
L 262.132366 244.657726 
z
" style="fill:#1f77b4;"/>
   </g>
   <g id="patch_62">
    <path clip-path="url(#pd289da5dfb)" d="M 265.378905 307.584 
L 268.62545 307.584 
L 268.62545 244.333394 
L 265.378905 244.333394 
z
" style="fill:#1f77b4;"/>
   </g>
   <g id="patch_63">
    <path clip-path="url(#pd289da5dfb)" d="M 268.625453 307.584 
L 271.871999 307.584 
L 271.871999 241.414136 
L 268.625453 241.414136 
z
" style="fill:#1f77b4;"/>
   </g>
   <g id="patch_64">
    <path clip-path="url(#pd289da5dfb)" d="M 271.871995 307.584 
L 275.118541 307.584 
L 275.118541 255.686067 
L 271.871995 255.686067 
z
" style="fill:#1f77b4;"/>
   </g>
   <g id="patch_65">
    <path clip-path="url(#pd289da5dfb)" d="M 275.118544 307.584 
L 278.365092 307.584 
L 278.365092 250.496329 
L 275.118544 250.496329 
z
" style="fill:#1f77b4;"/>
   </g>
   <g id="patch_66">
    <path clip-path="url(#pd289da5dfb)" d="M 278.365092 307.584 
L 281.611638 307.584 
L 281.611638 257.307877 
L 278.365092 257.307877 
z
" style="fill:#1f77b4;"/>
   </g>
   <g id="patch_67">
    <path clip-path="url(#pd289da5dfb)" d="M 281.611635 307.584 
L 284.85818 307.584 
L 284.85818 257.956602 
L 281.611635 257.956602 
z
" style="fill:#1f77b4;"/>
   </g>
   <g id="patch_68">
    <path clip-path="url(#pd289da5dfb)" d="M 284.858183 307.584 
L 288.104728 307.584 
L 288.104728 272.228533 
L 284.858183 272.228533 
z
" style="fill:#1f77b4;"/>
   </g>
   <g id="patch_69">
    <path clip-path="url(#pd289da5dfb)" d="M 288.104725 307.584 
L 291.351274 307.584 
L 291.351274 282.60812 
L 288.104725 282.60812 
z
" style="fill:#1f77b4;"/>
   </g>
   <g id="patch_70">
    <path clip-path="url(#pd289da5dfb)" d="M 291.351274 307.584 
L 294.597816 307.584 
L 294.597816 282.283733 
L 291.351274 282.283733 
z
" style="fill:#1f77b4;"/>
   </g>
   <g id="patch_71">
    <path clip-path="url(#pd289da5dfb)" d="M 294.597816 307.584 
L 297.844364 307.584 
L 297.844364 284.229953 
L 294.597816 284.229953 
z
" style="fill:#1f77b4;"/>
   </g>
   <g id="patch_72">
    <path clip-path="url(#pd289da5dfb)" d="M 297.844358 307.584 
L 301.0909 307.584 
L 301.0909 280.986283 
L 297.844358 280.986283 
z
" style="fill:#1f77b4;"/>
   </g>
   <g id="patch_73">
    <path clip-path="url(#pd289da5dfb)" d="M 301.090907 307.584 
L 304.337455 307.584 
L 304.337455 279.364527 
L 301.090907 279.364527 
z
" style="fill:#1f77b4;"/>
   </g>
   <g id="patch_74">
    <path clip-path="url(#pd289da5dfb)" d="M 304.337455 307.584 
L 307.583997 307.584 
L 307.583997 281.635008 
L 304.337455 281.635008 
z
" style="fill:#1f77b4;"/>
   </g>
   <g id="patch_75">
    <path clip-path="url(#pd289da5dfb)" d="M 307.583997 307.584 
L 310.830546 307.584 
L 310.830546 283.905591 
L 307.583997 283.905591 
z
" style="fill:#1f77b4;"/>
   </g>
   <g id="patch_76">
    <path clip-path="url(#pd289da5dfb)" d="M 310.830539 307.584 
L 314.077082 307.584 
L 314.077082 278.391384 
L 310.830539 278.391384 
z
" style="fill:#1f77b4;"/>
   </g>
   <g id="patch_77">
    <path clip-path="url(#pd289da5dfb)" d="M 314.077088 307.584 
L 317.323636 307.584 
L 317.323636 278.391441 
L 314.077088 278.391441 
z
" style="fill:#1f77b4;"/>
   </g>
   <g id="patch_78">
    <path clip-path="url(#pd289da5dfb)" d="M 317.323636 307.584 
L 320.570185 307.584 
L 320.570185 279.688888 
L 317.323636 279.688888 
z
" style="fill:#1f77b4;"/>
   </g>
   <g id="patch_79">
    <path clip-path="url(#pd289da5dfb)" d="M 320.570185 307.584 
L 323.816727 307.584 
L 323.816727 288.770981 
L 320.570185 288.770981 
z
" style="fill:#1f77b4;"/>
   </g>
   <g id="patch_80">
    <path clip-path="url(#pd289da5dfb)" d="M 323.816727 307.584 
L 327.063276 307.584 
L 327.063276 291.690274 
L 323.816727 291.690274 
z
" style="fill:#1f77b4;"/>
   </g>
   <g id="patch_81">
    <path clip-path="url(#pd289da5dfb)" d="M 327.063269 307.584 
L 330.309811 307.584 
L 330.309811 293.960779 
L 327.063269 293.960779 
z
" style="fill:#1f77b4;"/>
   </g>
   <g id="patch_82">
    <path clip-path="url(#pd289da5dfb)" d="M 330.309818 307.584 
L 333.556366 307.584 
L 333.556366 294.609529 
L 330.309818 294.609529 
z
" style="fill:#1f77b4;"/>
   </g>
   <g id="patch_83">
    <path clip-path="url(#pd289da5dfb)" d="M 333.556366 307.584 
L 336.802908 307.584 
L 336.802908 290.392793 
L 333.556366 290.392793 
z
" style="fill:#1f77b4;"/>
   </g>
   <g id="patch_84">
    <path clip-path="url(#pd289da5dfb)" d="M 336.802908 307.584 
L 340.049457 307.584 
L 340.049457 291.365912 
L 336.802908 291.365912 
z
" style="fill:#1f77b4;"/>
   </g>
   <g id="patch_85">
    <path clip-path="url(#pd289da5dfb)" d="M 340.04945 307.584 
L 343.295986 307.584 
L 343.295986 289.419706 
L 340.04945 289.419706 
z
" style="fill:#1f77b4;"/>
   </g>
   <g id="patch_86">
    <path clip-path="url(#pd289da5dfb)" d="M 343.295999 307.584 
L 346.542547 307.584 
L 346.542547 290.068465 
L 343.295999 290.068465 
z
" style="fill:#1f77b4;"/>
   </g>
   <g id="patch_87">
    <path clip-path="url(#pd289da5dfb)" d="M 346.542547 307.584 
L 349.789096 307.584 
L 349.789096 292.338997 
L 346.542547 292.338997 
z
" style="fill:#1f77b4;"/>
   </g>
   <g id="patch_88">
    <path clip-path="url(#pd289da5dfb)" d="M 349.789083 307.584 
L 353.035619 307.584 
L 353.035619 291.690212 
L 349.789083 291.690212 
z
" style="fill:#1f77b4;"/>
   </g>
   <g id="patch_89">
    <path clip-path="url(#pd289da5dfb)" d="M 353.035632 307.584 
L 356.28218 307.584 
L 356.28218 292.014635 
L 353.035632 292.014635 
z
" style="fill:#1f77b4;"/>
   </g>
   <g id="patch_90">
    <path clip-path="url(#pd289da5dfb)" d="M 356.28218 307.584 
L 359.528729 307.584 
L 359.528729 297.204424 
L 356.28218 297.204424 
z
" style="fill:#1f77b4;"/>
   </g>
   <g id="patch_91">
    <path clip-path="url(#pd289da5dfb)" d="M 359.528729 307.584 
L 362.775277 307.584 
L 362.775277 296.880062 
L 359.528729 296.880062 
z
" style="fill:#1f77b4;"/>
   </g>
   <g id="patch_92">
    <path clip-path="url(#pd289da5dfb)" d="M 362.775277 307.584 
L 366.021813 307.584 
L 366.021813 298.501835 
L 362.775277 298.501835 
z
" style="fill:#1f77b4;"/>
   </g>
   <g id="patch_93">
    <path clip-path="url(#pd289da5dfb)" d="M 366.021813 307.584 
L 369.268362 307.584 
L 369.268362 302.718574 
L 366.021813 302.718574 
z
" style="fill:#1f77b4;"/>
   </g>
   <g id="patch_94">
    <path clip-path="url(#pd289da5dfb)" d="M 369.268362 307.584 
L 372.51491 307.584 
L 372.51491 295.906976 
L 369.268362 295.906976 
z
" style="fill:#1f77b4;"/>
   </g>
   <g id="patch_95">
    <path clip-path="url(#pd289da5dfb)" d="M 372.51491 307.584 
L 375.761459 307.584 
L 375.761459 301.421126 
L 372.51491 301.421126 
z
" style="fill:#1f77b4;"/>
   </g>
   <g id="patch_96">
    <path clip-path="url(#pd289da5dfb)" d="M 375.761446 307.584 
L 379.007982 307.584 
L 379.007982 296.88002 
L 375.761446 296.88002 
z
" style="fill:#1f77b4;"/>
   </g>
   <g id="patch_97">
    <path clip-path="url(#pd289da5dfb)" d="M 379.007994 307.584 
L 382.254543 307.584 
L 382.254543 297.528785 
L 379.007994 297.528785 
z
" style="fill:#1f77b4;"/>
   </g>
   <g id="patch_98">
    <path clip-path="url(#pd289da5dfb)" d="M 382.254543 307.584 
L 385.501091 307.584 
L 385.501091 295.258253 
L 382.254543 295.258253 
z
" style="fill:#1f77b4;"/>
   </g>
   <g id="patch_99">
    <path clip-path="url(#pd289da5dfb)" d="M 385.501091 307.584 
L 388.74764 307.584 
L 388.74764 300.448041 
L 385.501091 300.448041 
z
" style="fill:#1f77b4;"/>
   </g>
   <g id="patch_100">
    <path clip-path="url(#pd289da5dfb)" d="M 388.74764 307.584 
L 391.994176 307.584 
L 391.994176 300.772376 
L 388.74764 300.772376 
z
" style="fill:#1f77b4;"/>
   </g>
   <g id="patch_101">
    <path clip-path="url(#pd289da5dfb)" d="M 391.994176 307.584 
L 395.240724 307.584 
L 395.240724 303.691659 
L 391.994176 303.691659 
z
" style="fill:#1f77b4;"/>
   </g>
   <g id="patch_102">
    <path clip-path="url(#pd289da5dfb)" d="M 395.240724 307.584 
L 398.487273 307.584 
L 398.487273 303.042935 
L 395.240724 303.042935 
z
" style="fill:#1f77b4;"/>
   </g>
   <g id="matplotlib.axis_1">
    <g id="xtick_1">
     <g id="line2d_1">
      <defs>
       <path d="M 0 0 
L 0 3.5 
" id="m3e0a0190e3" style="stroke:#000000;stroke-width:0.8;"/>
      </defs>
      <g>
       <use style="stroke:#000000;stroke-width:0.8;" x="76.720011" xlink:href="#m3e0a0190e3" y="307.584"/>
      </g>
     </g>
     <g id="text_1">
      <!-- −3 -->
      <defs>
       <path d="M 10.59375 35.5 
L 73.1875 35.5 
L 73.1875 27.203125 
L 10.59375 27.203125 
z
" id="DejaVuSans-8722"/>
       <path d="M 40.578125 39.3125 
Q 47.65625 37.796875 51.625 33 
Q 55.609375 28.21875 55.609375 21.1875 
Q 55.609375 10.40625 48.1875 4.484375 
Q 40.765625 -1.421875 27.09375 -1.421875 
Q 22.515625 -1.421875 17.65625 -0.515625 
Q 12.796875 0.390625 7.625 2.203125 
L 7.625 11.71875 
Q 11.71875 9.328125 16.59375 8.109375 
Q 21.484375 6.890625 26.8125 6.890625 
Q 36.078125 6.890625 40.9375 10.546875 
Q 45.796875 14.203125 45.796875 21.1875 
Q 45.796875 27.640625 41.28125 31.265625 
Q 36.765625 34.90625 28.71875 34.90625 
L 20.21875 34.90625 
L 20.21875 43.015625 
L 29.109375 43.015625 
Q 36.375 43.015625 40.234375 45.921875 
Q 44.09375 48.828125 44.09375 54.296875 
Q 44.09375 59.90625 40.109375 62.90625 
Q 36.140625 65.921875 28.71875 65.921875 
Q 24.65625 65.921875 20.015625 65.03125 
Q 15.375 64.15625 9.8125 62.3125 
L 9.8125 71.09375 
Q 15.4375 72.65625 20.34375 73.4375 
Q 25.25 74.21875 29.59375 74.21875 
Q 40.828125 74.21875 47.359375 69.109375 
Q 53.90625 64.015625 53.90625 55.328125 
Q 53.90625 49.265625 50.4375 45.09375 
Q 46.96875 40.921875 40.578125 39.3125 
z
" id="DejaVuSans-51"/>
      </defs>
      <g transform="translate(64.189152 327.501344)scale(0.17 -0.17)">
       <use xlink:href="#DejaVuSans-8722"/>
       <use x="83.789062" xlink:href="#DejaVuSans-51"/>
      </g>
     </g>
    </g>
    <g id="xtick_2">
     <g id="line2d_2">
      <g>
       <use style="stroke:#000000;stroke-width:0.8;" x="129.866619" xlink:href="#m3e0a0190e3" y="307.584"/>
      </g>
     </g>
     <g id="text_2">
      <!-- −2 -->
      <defs>
       <path d="M 19.1875 8.296875 
L 53.609375 8.296875 
L 53.609375 0 
L 7.328125 0 
L 7.328125 8.296875 
Q 12.9375 14.109375 22.625 23.890625 
Q 32.328125 33.6875 34.8125 36.53125 
Q 39.546875 41.84375 41.421875 45.53125 
Q 43.3125 49.21875 43.3125 52.78125 
Q 43.3125 58.59375 39.234375 62.25 
Q 35.15625 65.921875 28.609375 65.921875 
Q 23.96875 65.921875 18.8125 64.3125 
Q 13.671875 62.703125 7.8125 59.421875 
L 7.8125 69.390625 
Q 13.765625 71.78125 18.9375 73 
Q 24.125 74.21875 28.421875 74.21875 
Q 39.75 74.21875 46.484375 68.546875 
Q 53.21875 62.890625 53.21875 53.421875 
Q 53.21875 48.921875 51.53125 44.890625 
Q 49.859375 40.875 45.40625 35.40625 
Q 44.1875 33.984375 37.640625 27.21875 
Q 31.109375 20.453125 19.1875 8.296875 
z
" id="DejaVuSans-50"/>
      </defs>
      <g transform="translate(117.33576 327.501344)scale(0.17 -0.17)">
       <use xlink:href="#DejaVuSans-8722"/>
       <use x="83.789062" xlink:href="#DejaVuSans-50"/>
      </g>
     </g>
    </g>
    <g id="xtick_3">
     <g id="line2d_3">
      <g>
       <use style="stroke:#000000;stroke-width:0.8;" x="183.013227" xlink:href="#m3e0a0190e3" y="307.584"/>
      </g>
     </g>
     <g id="text_3">
      <!-- −1 -->
      <defs>
       <path d="M 12.40625 8.296875 
L 28.515625 8.296875 
L 28.515625 63.921875 
L 10.984375 60.40625 
L 10.984375 69.390625 
L 28.421875 72.90625 
L 38.28125 72.90625 
L 38.28125 8.296875 
L 54.390625 8.296875 
L 54.390625 0 
L 12.40625 0 
z
" id="DejaVuSans-49"/>
      </defs>
      <g transform="translate(170.482368 327.501344)scale(0.17 -0.17)">
       <use xlink:href="#DejaVuSans-8722"/>
       <use x="83.789062" xlink:href="#DejaVuSans-49"/>
      </g>
     </g>
    </g>
    <g id="xtick_4">
     <g id="line2d_4">
      <g>
       <use style="stroke:#000000;stroke-width:0.8;" x="236.159835" xlink:href="#m3e0a0190e3" y="307.584"/>
      </g>
     </g>
     <g id="text_4">
      <!-- 0 -->
      <defs>
       <path d="M 31.78125 66.40625 
Q 24.171875 66.40625 20.328125 58.90625 
Q 16.5 51.421875 16.5 36.375 
Q 16.5 21.390625 20.328125 13.890625 
Q 24.171875 6.390625 31.78125 6.390625 
Q 39.453125 6.390625 43.28125 13.890625 
Q 47.125 21.390625 47.125 36.375 
Q 47.125 51.421875 43.28125 58.90625 
Q 39.453125 66.40625 31.78125 66.40625 
z
M 31.78125 74.21875 
Q 44.046875 74.21875 50.515625 64.515625 
Q 56.984375 54.828125 56.984375 36.375 
Q 56.984375 17.96875 50.515625 8.265625 
Q 44.046875 -1.421875 31.78125 -1.421875 
Q 19.53125 -1.421875 13.0625 8.265625 
Q 6.59375 17.96875 6.59375 36.375 
Q 6.59375 54.828125 13.0625 64.515625 
Q 19.53125 74.21875 31.78125 74.21875 
z
" id="DejaVuSans-48"/>
      </defs>
      <g transform="translate(230.75171 327.501344)scale(0.17 -0.17)">
       <use xlink:href="#DejaVuSans-48"/>
      </g>
     </g>
    </g>
    <g id="xtick_5">
     <g id="line2d_5">
      <g>
       <use style="stroke:#000000;stroke-width:0.8;" x="289.306443" xlink:href="#m3e0a0190e3" y="307.584"/>
      </g>
     </g>
     <g id="text_5">
      <!-- 1 -->
      <g transform="translate(283.898318 327.501344)scale(0.17 -0.17)">
       <use xlink:href="#DejaVuSans-49"/>
      </g>
     </g>
    </g>
    <g id="xtick_6">
     <g id="line2d_6">
      <g>
       <use style="stroke:#000000;stroke-width:0.8;" x="342.453051" xlink:href="#m3e0a0190e3" y="307.584"/>
      </g>
     </g>
     <g id="text_6">
      <!-- 2 -->
      <g transform="translate(337.044926 327.501344)scale(0.17 -0.17)">
       <use xlink:href="#DejaVuSans-50"/>
      </g>
     </g>
    </g>
    <g id="xtick_7">
     <g id="line2d_7">
      <g>
       <use style="stroke:#000000;stroke-width:0.8;" x="395.59966" xlink:href="#m3e0a0190e3" y="307.584"/>
      </g>
     </g>
     <g id="text_7">
      <!-- 3 -->
      <g transform="translate(390.191535 327.501344)scale(0.17 -0.17)">
       <use xlink:href="#DejaVuSans-51"/>
      </g>
     </g>
    </g>
    <g id="text_8">
     <!-- Position in Radian -->
     <defs>
      <path d="M 19.671875 64.796875 
L 19.671875 37.40625 
L 32.078125 37.40625 
Q 38.96875 37.40625 42.71875 40.96875 
Q 46.484375 44.53125 46.484375 51.125 
Q 46.484375 57.671875 42.71875 61.234375 
Q 38.96875 64.796875 32.078125 64.796875 
z
M 9.8125 72.90625 
L 32.078125 72.90625 
Q 44.34375 72.90625 50.609375 67.359375 
Q 56.890625 61.8125 56.890625 51.125 
Q 56.890625 40.328125 50.609375 34.8125 
Q 44.34375 29.296875 32.078125 29.296875 
L 19.671875 29.296875 
L 19.671875 0 
L 9.8125 0 
z
" id="DejaVuSans-80"/>
      <path d="M 30.609375 48.390625 
Q 23.390625 48.390625 19.1875 42.75 
Q 14.984375 37.109375 14.984375 27.296875 
Q 14.984375 17.484375 19.15625 11.84375 
Q 23.34375 6.203125 30.609375 6.203125 
Q 37.796875 6.203125 41.984375 11.859375 
Q 46.1875 17.53125 46.1875 27.296875 
Q 46.1875 37.015625 41.984375 42.703125 
Q 37.796875 48.390625 30.609375 48.390625 
z
M 30.609375 56 
Q 42.328125 56 49.015625 48.375 
Q 55.71875 40.765625 55.71875 27.296875 
Q 55.71875 13.875 49.015625 6.21875 
Q 42.328125 -1.421875 30.609375 -1.421875 
Q 18.84375 -1.421875 12.171875 6.21875 
Q 5.515625 13.875 5.515625 27.296875 
Q 5.515625 40.765625 12.171875 48.375 
Q 18.84375 56 30.609375 56 
z
" id="DejaVuSans-111"/>
      <path d="M 44.28125 53.078125 
L 44.28125 44.578125 
Q 40.484375 46.53125 36.375 47.5 
Q 32.28125 48.484375 27.875 48.484375 
Q 21.1875 48.484375 17.84375 46.4375 
Q 14.5 44.390625 14.5 40.28125 
Q 14.5 37.15625 16.890625 35.375 
Q 19.28125 33.59375 26.515625 31.984375 
L 29.59375 31.296875 
Q 39.15625 29.25 43.1875 25.515625 
Q 47.21875 21.78125 47.21875 15.09375 
Q 47.21875 7.46875 41.1875 3.015625 
Q 35.15625 -1.421875 24.609375 -1.421875 
Q 20.21875 -1.421875 15.453125 -0.5625 
Q 10.6875 0.296875 5.421875 2 
L 5.421875 11.28125 
Q 10.40625 8.6875 15.234375 7.390625 
Q 20.0625 6.109375 24.8125 6.109375 
Q 31.15625 6.109375 34.5625 8.28125 
Q 37.984375 10.453125 37.984375 14.40625 
Q 37.984375 18.0625 35.515625 20.015625 
Q 33.0625 21.96875 24.703125 23.78125 
L 21.578125 24.515625 
Q 13.234375 26.265625 9.515625 29.90625 
Q 5.8125 33.546875 5.8125 39.890625 
Q 5.8125 47.609375 11.28125 51.796875 
Q 16.75 56 26.8125 56 
Q 31.78125 56 36.171875 55.265625 
Q 40.578125 54.546875 44.28125 53.078125 
z
" id="DejaVuSans-115"/>
      <path d="M 9.421875 54.6875 
L 18.40625 54.6875 
L 18.40625 0 
L 9.421875 0 
z
M 9.421875 75.984375 
L 18.40625 75.984375 
L 18.40625 64.59375 
L 9.421875 64.59375 
z
" id="DejaVuSans-105"/>
      <path d="M 18.3125 70.21875 
L 18.3125 54.6875 
L 36.8125 54.6875 
L 36.8125 47.703125 
L 18.3125 47.703125 
L 18.3125 18.015625 
Q 18.3125 11.328125 20.140625 9.421875 
Q 21.96875 7.515625 27.59375 7.515625 
L 36.8125 7.515625 
L 36.8125 0 
L 27.59375 0 
Q 17.1875 0 13.234375 3.875 
Q 9.28125 7.765625 9.28125 18.015625 
L 9.28125 47.703125 
L 2.6875 47.703125 
L 2.6875 54.6875 
L 9.28125 54.6875 
L 9.28125 70.21875 
z
" id="DejaVuSans-116"/>
      <path d="M 54.890625 33.015625 
L 54.890625 0 
L 45.90625 0 
L 45.90625 32.71875 
Q 45.90625 40.484375 42.875 44.328125 
Q 39.84375 48.1875 33.796875 48.1875 
Q 26.515625 48.1875 22.3125 43.546875 
Q 18.109375 38.921875 18.109375 30.90625 
L 18.109375 0 
L 9.078125 0 
L 9.078125 54.6875 
L 18.109375 54.6875 
L 18.109375 46.1875 
Q 21.34375 51.125 25.703125 53.5625 
Q 30.078125 56 35.796875 56 
Q 45.21875 56 50.046875 50.171875 
Q 54.890625 44.34375 54.890625 33.015625 
z
" id="DejaVuSans-110"/>
      <path id="DejaVuSans-32"/>
      <path d="M 44.390625 34.1875 
Q 47.5625 33.109375 50.5625 29.59375 
Q 53.5625 26.078125 56.59375 19.921875 
L 66.609375 0 
L 56 0 
L 46.6875 18.703125 
Q 43.0625 26.03125 39.671875 28.421875 
Q 36.28125 30.8125 30.421875 30.8125 
L 19.671875 30.8125 
L 19.671875 0 
L 9.8125 0 
L 9.8125 72.90625 
L 32.078125 72.90625 
Q 44.578125 72.90625 50.734375 67.671875 
Q 56.890625 62.453125 56.890625 51.90625 
Q 56.890625 45.015625 53.6875 40.46875 
Q 50.484375 35.9375 44.390625 34.1875 
z
M 19.671875 64.796875 
L 19.671875 38.921875 
L 32.078125 38.921875 
Q 39.203125 38.921875 42.84375 42.21875 
Q 46.484375 45.515625 46.484375 51.90625 
Q 46.484375 58.296875 42.84375 61.546875 
Q 39.203125 64.796875 32.078125 64.796875 
z
" id="DejaVuSans-82"/>
      <path d="M 34.28125 27.484375 
Q 23.390625 27.484375 19.1875 25 
Q 14.984375 22.515625 14.984375 16.5 
Q 14.984375 11.71875 18.140625 8.90625 
Q 21.296875 6.109375 26.703125 6.109375 
Q 34.1875 6.109375 38.703125 11.40625 
Q 43.21875 16.703125 43.21875 25.484375 
L 43.21875 27.484375 
z
M 52.203125 31.203125 
L 52.203125 0 
L 43.21875 0 
L 43.21875 8.296875 
Q 40.140625 3.328125 35.546875 0.953125 
Q 30.953125 -1.421875 24.3125 -1.421875 
Q 15.921875 -1.421875 10.953125 3.296875 
Q 6 8.015625 6 15.921875 
Q 6 25.140625 12.171875 29.828125 
Q 18.359375 34.515625 30.609375 34.515625 
L 43.21875 34.515625 
L 43.21875 35.40625 
Q 43.21875 41.609375 39.140625 45 
Q 35.0625 48.390625 27.6875 48.390625 
Q 23 48.390625 18.546875 47.265625 
Q 14.109375 46.140625 10.015625 43.890625 
L 10.015625 52.203125 
Q 14.9375 54.109375 19.578125 55.046875 
Q 24.21875 56 28.609375 56 
Q 40.484375 56 46.34375 49.84375 
Q 52.203125 43.703125 52.203125 31.203125 
z
" id="DejaVuSans-97"/>
      <path d="M 45.40625 46.390625 
L 45.40625 75.984375 
L 54.390625 75.984375 
L 54.390625 0 
L 45.40625 0 
L 45.40625 8.203125 
Q 42.578125 3.328125 38.25 0.953125 
Q 33.9375 -1.421875 27.875 -1.421875 
Q 17.96875 -1.421875 11.734375 6.484375 
Q 5.515625 14.40625 5.515625 27.296875 
Q 5.515625 40.1875 11.734375 48.09375 
Q 17.96875 56 27.875 56 
Q 33.9375 56 38.25 53.625 
Q 42.578125 51.265625 45.40625 46.390625 
z
M 14.796875 27.296875 
Q 14.796875 17.390625 18.875 11.75 
Q 22.953125 6.109375 30.078125 6.109375 
Q 37.203125 6.109375 41.296875 11.75 
Q 45.40625 17.390625 45.40625 27.296875 
Q 45.40625 37.203125 41.296875 42.84375 
Q 37.203125 48.484375 30.078125 48.484375 
Q 22.953125 48.484375 18.875 42.84375 
Q 14.796875 37.203125 14.796875 27.296875 
z
" id="DejaVuSans-100"/>
     </defs>
     <g transform="translate(102.024844 357.832125)scale(0.3 -0.3)">
      <use xlink:href="#DejaVuSans-80"/>
      <use x="60.255859" xlink:href="#DejaVuSans-111"/>
      <use x="121.4375" xlink:href="#DejaVuSans-115"/>
      <use x="173.537109" xlink:href="#DejaVuSans-105"/>
      <use x="201.320312" xlink:href="#DejaVuSans-116"/>
      <use x="240.529297" xlink:href="#DejaVuSans-105"/>
      <use x="268.3125" xlink:href="#DejaVuSans-111"/>
      <use x="329.494141" xlink:href="#DejaVuSans-110"/>
      <use x="392.873047" xlink:href="#DejaVuSans-32"/>
      <use x="424.660156" xlink:href="#DejaVuSans-105"/>
      <use x="452.443359" xlink:href="#DejaVuSans-110"/>
      <use x="515.822266" xlink:href="#DejaVuSans-32"/>
      <use x="547.609375" xlink:href="#DejaVuSans-82"/>
      <use x="617.060547" xlink:href="#DejaVuSans-97"/>
      <use x="678.339844" xlink:href="#DejaVuSans-100"/>
      <use x="741.816406" xlink:href="#DejaVuSans-105"/>
      <use x="769.599609" xlink:href="#DejaVuSans-97"/>
      <use x="830.878906" xlink:href="#DejaVuSans-110"/>
     </g>
    </g>
   </g>
   <g id="matplotlib.axis_2">
    <g id="ytick_1">
     <g id="line2d_8">
      <defs>
       <path d="M 0 0 
L -3.5 0 
" id="m42d175b34d" style="stroke:#000000;stroke-width:0.8;"/>
      </defs>
      <g>
       <use style="stroke:#000000;stroke-width:0.8;" x="57.6" xlink:href="#m42d175b34d" y="307.584"/>
      </g>
     </g>
     <g id="text_9">
      <!-- 0.0 -->
      <defs>
       <path d="M 10.6875 12.40625 
L 21 12.40625 
L 21 0 
L 10.6875 0 
z
" id="DejaVuSans-46"/>
      </defs>
      <g transform="translate(23.564687 314.042672)scale(0.17 -0.17)">
       <use xlink:href="#DejaVuSans-48"/>
       <use x="63.623047" xlink:href="#DejaVuSans-46"/>
       <use x="95.410156" xlink:href="#DejaVuSans-48"/>
      </g>
     </g>
    </g>
    <g id="ytick_2">
     <g id="line2d_9">
      <g>
       <use style="stroke:#000000;stroke-width:0.8;" x="57.6" xlink:href="#m42d175b34d" y="267.95565"/>
      </g>
     </g>
     <g id="text_10">
      <!-- 0.2 -->
      <g transform="translate(23.564687 274.414322)scale(0.17 -0.17)">
       <use xlink:href="#DejaVuSans-48"/>
       <use x="63.623047" xlink:href="#DejaVuSans-46"/>
       <use x="95.410156" xlink:href="#DejaVuSans-50"/>
      </g>
     </g>
    </g>
    <g id="ytick_3">
     <g id="line2d_10">
      <g>
       <use style="stroke:#000000;stroke-width:0.8;" x="57.6" xlink:href="#m42d175b34d" y="228.3273"/>
      </g>
     </g>
     <g id="text_11">
      <!-- 0.4 -->
      <defs>
       <path d="M 37.796875 64.3125 
L 12.890625 25.390625 
L 37.796875 25.390625 
z
M 35.203125 72.90625 
L 47.609375 72.90625 
L 47.609375 25.390625 
L 58.015625 25.390625 
L 58.015625 17.1875 
L 47.609375 17.1875 
L 47.609375 0 
L 37.796875 0 
L 37.796875 17.1875 
L 4.890625 17.1875 
L 4.890625 26.703125 
z
" id="DejaVuSans-52"/>
      </defs>
      <g transform="translate(23.564687 234.785972)scale(0.17 -0.17)">
       <use xlink:href="#DejaVuSans-48"/>
       <use x="63.623047" xlink:href="#DejaVuSans-46"/>
       <use x="95.410156" xlink:href="#DejaVuSans-52"/>
      </g>
     </g>
    </g>
    <g id="ytick_4">
     <g id="line2d_11">
      <g>
       <use style="stroke:#000000;stroke-width:0.8;" x="57.6" xlink:href="#m42d175b34d" y="188.69895"/>
      </g>
     </g>
     <g id="text_12">
      <!-- 0.6 -->
      <defs>
       <path d="M 33.015625 40.375 
Q 26.375 40.375 22.484375 35.828125 
Q 18.609375 31.296875 18.609375 23.390625 
Q 18.609375 15.53125 22.484375 10.953125 
Q 26.375 6.390625 33.015625 6.390625 
Q 39.65625 6.390625 43.53125 10.953125 
Q 47.40625 15.53125 47.40625 23.390625 
Q 47.40625 31.296875 43.53125 35.828125 
Q 39.65625 40.375 33.015625 40.375 
z
M 52.59375 71.296875 
L 52.59375 62.3125 
Q 48.875 64.0625 45.09375 64.984375 
Q 41.3125 65.921875 37.59375 65.921875 
Q 27.828125 65.921875 22.671875 59.328125 
Q 17.53125 52.734375 16.796875 39.40625 
Q 19.671875 43.65625 24.015625 45.921875 
Q 28.375 48.1875 33.59375 48.1875 
Q 44.578125 48.1875 50.953125 41.515625 
Q 57.328125 34.859375 57.328125 23.390625 
Q 57.328125 12.15625 50.6875 5.359375 
Q 44.046875 -1.421875 33.015625 -1.421875 
Q 20.359375 -1.421875 13.671875 8.265625 
Q 6.984375 17.96875 6.984375 36.375 
Q 6.984375 53.65625 15.1875 63.9375 
Q 23.390625 74.21875 37.203125 74.21875 
Q 40.921875 74.21875 44.703125 73.484375 
Q 48.484375 72.75 52.59375 71.296875 
z
" id="DejaVuSans-54"/>
      </defs>
      <g transform="translate(23.564687 195.157621)scale(0.17 -0.17)">
       <use xlink:href="#DejaVuSans-48"/>
       <use x="63.623047" xlink:href="#DejaVuSans-46"/>
       <use x="95.410156" xlink:href="#DejaVuSans-54"/>
      </g>
     </g>
    </g>
    <g id="ytick_5">
     <g id="line2d_12">
      <g>
       <use style="stroke:#000000;stroke-width:0.8;" x="57.6" xlink:href="#m42d175b34d" y="149.070599"/>
      </g>
     </g>
     <g id="text_13">
      <!-- 0.8 -->
      <defs>
       <path d="M 31.78125 34.625 
Q 24.75 34.625 20.71875 30.859375 
Q 16.703125 27.09375 16.703125 20.515625 
Q 16.703125 13.921875 20.71875 10.15625 
Q 24.75 6.390625 31.78125 6.390625 
Q 38.8125 6.390625 42.859375 10.171875 
Q 46.921875 13.96875 46.921875 20.515625 
Q 46.921875 27.09375 42.890625 30.859375 
Q 38.875 34.625 31.78125 34.625 
z
M 21.921875 38.8125 
Q 15.578125 40.375 12.03125 44.71875 
Q 8.5 49.078125 8.5 55.328125 
Q 8.5 64.0625 14.71875 69.140625 
Q 20.953125 74.21875 31.78125 74.21875 
Q 42.671875 74.21875 48.875 69.140625 
Q 55.078125 64.0625 55.078125 55.328125 
Q 55.078125 49.078125 51.53125 44.71875 
Q 48 40.375 41.703125 38.8125 
Q 48.828125 37.15625 52.796875 32.3125 
Q 56.78125 27.484375 56.78125 20.515625 
Q 56.78125 9.90625 50.3125 4.234375 
Q 43.84375 -1.421875 31.78125 -1.421875 
Q 19.734375 -1.421875 13.25 4.234375 
Q 6.78125 9.90625 6.78125 20.515625 
Q 6.78125 27.484375 10.78125 32.3125 
Q 14.796875 37.15625 21.921875 38.8125 
z
M 18.3125 54.390625 
Q 18.3125 48.734375 21.84375 45.5625 
Q 25.390625 42.390625 31.78125 42.390625 
Q 38.140625 42.390625 41.71875 45.5625 
Q 45.3125 48.734375 45.3125 54.390625 
Q 45.3125 60.0625 41.71875 63.234375 
Q 38.140625 66.40625 31.78125 66.40625 
Q 25.390625 66.40625 21.84375 63.234375 
Q 18.3125 60.0625 18.3125 54.390625 
z
" id="DejaVuSans-56"/>
      </defs>
      <g transform="translate(23.564687 155.529271)scale(0.17 -0.17)">
       <use xlink:href="#DejaVuSans-48"/>
       <use x="63.623047" xlink:href="#DejaVuSans-46"/>
       <use x="95.410156" xlink:href="#DejaVuSans-56"/>
      </g>
     </g>
    </g>
    <g id="ytick_6">
     <g id="line2d_13">
      <g>
       <use style="stroke:#000000;stroke-width:0.8;" x="57.6" xlink:href="#m42d175b34d" y="109.442249"/>
      </g>
     </g>
     <g id="text_14">
      <!-- 1.0 -->
      <g transform="translate(23.564687 115.900921)scale(0.17 -0.17)">
       <use xlink:href="#DejaVuSans-49"/>
       <use x="63.623047" xlink:href="#DejaVuSans-46"/>
       <use x="95.410156" xlink:href="#DejaVuSans-48"/>
      </g>
     </g>
    </g>
    <g id="ytick_7">
     <g id="line2d_14">
      <g>
       <use style="stroke:#000000;stroke-width:0.8;" x="57.6" xlink:href="#m42d175b34d" y="69.813899"/>
      </g>
     </g>
     <g id="text_15">
      <!-- 1.2 -->
      <g transform="translate(23.564687 76.272571)scale(0.17 -0.17)">
       <use xlink:href="#DejaVuSans-49"/>
       <use x="63.623047" xlink:href="#DejaVuSans-46"/>
       <use x="95.410156" xlink:href="#DejaVuSans-50"/>
      </g>
     </g>
    </g>
    <g id="text_16">
     <!-- Density -->
     <defs>
      <path d="M 19.671875 64.796875 
L 19.671875 8.109375 
L 31.59375 8.109375 
Q 46.6875 8.109375 53.6875 14.9375 
Q 60.6875 21.78125 60.6875 36.53125 
Q 60.6875 51.171875 53.6875 57.984375 
Q 46.6875 64.796875 31.59375 64.796875 
z
M 9.8125 72.90625 
L 30.078125 72.90625 
Q 51.265625 72.90625 61.171875 64.09375 
Q 71.09375 55.28125 71.09375 36.53125 
Q 71.09375 17.671875 61.125 8.828125 
Q 51.171875 0 30.078125 0 
L 9.8125 0 
z
" id="DejaVuSans-68"/>
      <path d="M 56.203125 29.59375 
L 56.203125 25.203125 
L 14.890625 25.203125 
Q 15.484375 15.921875 20.484375 11.0625 
Q 25.484375 6.203125 34.421875 6.203125 
Q 39.59375 6.203125 44.453125 7.46875 
Q 49.3125 8.734375 54.109375 11.28125 
L 54.109375 2.78125 
Q 49.265625 0.734375 44.1875 -0.34375 
Q 39.109375 -1.421875 33.890625 -1.421875 
Q 20.796875 -1.421875 13.15625 6.1875 
Q 5.515625 13.8125 5.515625 26.8125 
Q 5.515625 40.234375 12.765625 48.109375 
Q 20.015625 56 32.328125 56 
Q 43.359375 56 49.78125 48.890625 
Q 56.203125 41.796875 56.203125 29.59375 
z
M 47.21875 32.234375 
Q 47.125 39.59375 43.09375 43.984375 
Q 39.0625 48.390625 32.421875 48.390625 
Q 24.90625 48.390625 20.390625 44.140625 
Q 15.875 39.890625 15.1875 32.171875 
z
" id="DejaVuSans-101"/>
      <path d="M 32.171875 -5.078125 
Q 28.375 -14.84375 24.75 -17.8125 
Q 21.140625 -20.796875 15.09375 -20.796875 
L 7.90625 -20.796875 
L 7.90625 -13.28125 
L 13.1875 -13.28125 
Q 16.890625 -13.28125 18.9375 -11.515625 
Q 21 -9.765625 23.484375 -3.21875 
L 25.09375 0.875 
L 2.984375 54.6875 
L 12.5 54.6875 
L 29.59375 11.921875 
L 46.6875 54.6875 
L 56.203125 54.6875 
z
" id="DejaVuSans-121"/>
     </defs>
     <g transform="translate(13.325625 231.553781)rotate(-90)scale(0.3 -0.3)">
      <use xlink:href="#DejaVuSans-68"/>
      <use x="77.001953" xlink:href="#DejaVuSans-101"/>
      <use x="138.525391" xlink:href="#DejaVuSans-110"/>
      <use x="201.904297" xlink:href="#DejaVuSans-115"/>
      <use x="254.003906" xlink:href="#DejaVuSans-105"/>
      <use x="281.787109" xlink:href="#DejaVuSans-116"/>
      <use x="320.996094" xlink:href="#DejaVuSans-121"/>
     </g>
    </g>
   </g>
   <g id="line2d_15">
    <path clip-path="url(#pd289da5dfb)" d="M 103.293315 307.498145 
L 103.877928 307.579218 
L 104.94086 307.499921 
L 105.392606 307.229531 
L 106.096799 306.771348 
L 106.521971 306.872283 
L 106.827564 306.833747 
L 107.093298 306.54228 
L 108.27581 304.888445 
L 108.820562 304.650081 
L 109.073009 304.812171 
L 109.631048 305.263558 
L 109.817061 305.060154 
L 110.215661 304.14398 
L 110.507967 303.75348 
L 110.680694 303.811544 
L 110.986287 304.24814 
L 111.29188 304.512387 
L 111.464606 304.382467 
L 111.730339 303.819474 
L 112.155512 302.999311 
L 112.314952 303.050242 
L 112.500965 303.425014 
L 112.912851 304.933729 
L 113.351311 306.176085 
L 113.683477 306.524896 
L 114.998855 307.193729 
L 115.357595 306.917002 
L 116.300947 306.134779 
L 116.76598 305.955072 
L 117.071573 306.08839 
L 117.629613 306.3584 
L 117.961779 306.185528 
L 118.333805 306.050535 
L 118.586252 306.220924 
L 119.58275 307.183477 
L 119.888343 306.981733 
L 120.565963 306.181637 
L 120.964562 305.38245 
L 121.721901 303.730509 
L 121.894628 303.772056 
L 122.093928 304.100927 
L 122.465954 305.263654 
L 122.95756 306.595658 
L 123.170146 306.708145 
L 123.35616 306.536474 
L 123.688326 305.819828 
L 124.100212 305.09345 
L 124.326085 305.063229 
L 124.923985 305.170136 
L 125.229578 304.790004 
L 126.916982 302.3962 
L 127.249149 302.382103 
L 128.245648 302.643507 
L 128.7904 302.99378 
L 128.9897 302.826849 
L 129.321866 302.165056 
L 129.693893 301.593107 
L 129.866619 301.640133 
L 130.092492 302.018674 
L 131.075704 304.050145 
L 131.235144 303.911152 
L 131.447731 303.353134 
L 132.16521 301.193568 
L 132.32465 301.27803 
L 133.002269 301.886188 
L 133.374295 301.912024 
L 133.586882 302.270869 
L 134.423941 304.18315 
L 134.463801 304.162471 
L 134.6631 303.890736 
L 135.074987 302.843129 
L 135.726033 300.619607 
L 136.284072 298.877752 
L 136.496658 298.76796 
L 136.669385 298.985005 
L 136.935118 299.76989 
L 137.466584 302.216845 
L 137.971477 304.167687 
L 138.19735 304.399198 
L 138.370076 304.287082 
L 138.795249 303.582924 
L 139.140702 303.267397 
L 139.472868 303.273695 
L 140.044195 303.549057 
L 140.376361 303.61073 
L 140.588947 303.410472 
L 140.85468 302.797355 
L 141.718313 300.542283 
L 141.904326 300.56625 
L 142.130199 300.883261 
L 142.927398 302.251874 
L 143.126698 302.103036 
L 144.481936 300.272458 
L 145.000116 299.397247 
L 145.225989 299.4003 
L 145.611302 299.744289 
L 145.916895 299.866437 
L 146.156054 299.716325 
L 146.488221 299.18896 
L 147.032973 298.367301 
L 147.258847 298.390936 
L 147.923179 298.690156 
L 148.175626 298.317708 
L 148.667232 297.6031 
L 148.853245 297.673242 
L 149.105691 298.08931 
L 149.690304 299.093315 
L 149.876317 299.062669 
L 150.088903 298.757892 
L 150.434356 297.786052 
L 151.032256 296.146643 
L 151.231556 296.090306 
L 151.430855 296.323613 
L 151.909175 296.929849 
L 152.055328 296.763788 
L 152.267914 296.102231 
L 152.985394 293.571702 
L 153.11826 293.692187 
L 153.344133 294.319978 
L 153.862313 295.757898 
L 154.048326 295.798868 
L 154.247626 295.558477 
L 154.566505 294.732242 
L 155.390278 292.423378 
L 155.536431 292.533287 
L 155.749017 293.087604 
L 157.276982 298.103111 
L 157.516142 298.358099 
L 157.649008 298.207745 
L 157.835022 297.575573 
L 158.180475 295.416368 
L 158.592361 293.307175 
L 158.711941 293.228287 
L 158.738514 293.253034 
L 158.87138 293.604593 
L 159.11054 295.031282 
L 159.66858 298.414311 
L 159.761586 298.45429 
L 159.788159 298.425905 
L 159.921026 298.021282 
L 160.160186 296.335644 
L 161.183258 288.013892 
L 161.488851 287.378753 
L 162.20633 286.430442 
L 162.897236 284.902281 
L 163.030103 285.034678 
L 163.242689 285.659227 
L 164.013315 288.284101 
L 164.265761 288.380826 
L 164.558068 288.228604 
L 164.863661 287.798813 
L 165.687433 286.429332 
L 165.886733 286.612569 
L 166.444772 287.209452 
L 166.617499 287.019992 
L 166.856658 286.340895 
L 167.361551 283.987948 
L 167.707004 282.922263 
L 167.866444 282.892023 
L 168.025884 283.186079 
L 168.291617 284.259692 
L 169.261542 288.621006 
L 169.434269 288.656789 
L 169.606995 288.372146 
L 169.886015 287.356463 
L 170.683214 284.133599 
L 170.789507 284.234303 
L 170.962234 284.845682 
L 171.639853 288.281723 
L 171.719573 288.193445 
L 171.865726 287.604908 
L 172.144746 285.324048 
L 172.742645 280.505809 
L 173.034952 279.701789 
L 173.911871 278.361432 
L 174.204177 277.916913 
L 174.337043 278.002447 
L 174.523057 278.482985 
L 174.921656 280.36073 
L 175.971302 285.122271 
L 176.104168 285.202623 
L 176.130741 285.178406 
L 176.263608 284.848203 
L 176.502768 283.510162 
L 177.260107 278.97945 
L 177.64542 276.647997 
L 178.535625 270.568748 
L 178.655205 270.489843 
L 178.681779 270.510534 
L 178.814645 270.82683 
L 179.040518 272.109891 
L 179.771284 276.736343 
L 179.890864 276.721919 
L 180.050304 276.33524 
L 180.82093 274.014772 
L 181.272676 273.983488 
L 181.445402 273.299612 
L 181.697849 271.147465 
L 182.521621 263.222294 
L 182.614628 263.18639 
L 182.641201 263.214294 
L 182.787354 263.617382 
L 183.172667 265.639165 
L 183.943293 270.47131 
L 184.740492 276.325967 
L 185.006225 276.896567 
L 185.152378 276.836271 
L 185.351678 276.38661 
L 186.109017 274.33093 
L 186.281744 274.459632 
L 186.680343 274.810641 
L 186.826496 274.594607 
L 187.065656 273.727597 
L 187.610409 271.711123 
L 187.769849 271.685512 
L 187.969148 271.97408 
L 188.274741 272.311287 
L 188.394321 272.117704 
L 188.567048 271.323099 
L 188.859354 268.676941 
L 189.497113 262.859883 
L 189.78942 262.049438 
L 190.201306 261.6437 
L 190.427179 261.632898 
L 190.613192 261.885723 
L 191.264238 263.033561 
L 191.277525 263.026673 
L 191.503398 262.763928 
L 191.769131 262.571322 
L 191.928571 262.735089 
L 192.340457 263.335526 
L 192.380317 263.298125 
L 192.513183 262.92365 
L 192.712483 261.551324 
L 193.084509 257.018472 
L 193.549542 252.173951 
L 193.788702 251.459562 
L 193.908282 251.532874 
L 194.107582 252.068688 
L 194.532754 253.171633 
L 194.625761 253.044756 
L 194.771914 252.355124 
L 194.997787 250.011524 
L 195.715267 241.606235 
L 195.768413 241.595024 
L 195.808273 241.656354 
L 195.954426 242.304994 
L 196.592186 245.657781 
L 196.711765 245.513432 
L 197.216658 244.405532 
L 197.283091 244.483531 
L 197.442531 245.032576 
L 197.721551 247.013221 
L 198.346024 251.445046 
L 198.704763 252.469169 
L 198.943923 252.680859 
L 199.103363 252.546532 
L 199.382382 251.890331 
L 199.727835 251.289386 
L 200.126435 250.963053 
L 200.325735 250.149726 
L 201.322234 245.066528 
L 201.561393 244.267015 
L 201.89356 242.132238 
L 202.265586 240.212975 
L 202.345306 240.178982 
L 202.385166 240.226388 
L 202.518032 240.683933 
L 202.810339 242.780186 
L 203.142505 244.588101 
L 203.222225 244.610963 
L 203.248798 244.575788 
L 203.381665 244.094094 
L 203.647398 242.023393 
L 204.285157 237.143692 
L 204.736903 233.880648 
L 205.135503 228.922852 
L 205.613822 223.602631 
L 205.693542 223.484735 
L 205.733402 223.553369 
L 205.852982 224.293418 
L 206.065568 227.440031 
L 206.769761 239.143862 
L 206.836194 239.243201 
L 206.889341 239.177931 
L 207.022207 238.560064 
L 207.713113 234.613312 
L 207.859266 234.688382 
L 208.191433 234.916331 
L 208.337586 234.67053 
L 208.563459 233.729944 
L 209.028492 230.545078 
L 209.719398 226.216331 
L 209.905411 225.935456 
L 209.918698 225.943455 
L 210.024991 226.157518 
L 210.211004 227.164044 
L 210.82219 231.34528 
L 210.875336 231.285688 
L 210.994916 230.734785 
L 211.220789 228.324431 
L 211.778829 222.112548 
L 211.831975 222.058525 
L 211.885122 222.145488 
L 212.004702 222.85823 
L 212.230575 225.926942 
L 212.961341 236.955837 
L 213.027774 237.037919 
L 213.080921 236.957767 
L 213.213787 236.254427 
L 213.532667 232.906406 
L 213.904693 229.990831 
L 214.130566 229.598953 
L 214.369726 229.354832 
L 214.542452 228.689159 
L 214.887905 226.134008 
L 215.180212 224.698567 
L 215.246645 224.699045 
L 215.273218 224.740068 
L 215.406085 225.297037 
L 215.645245 227.595395 
L 216.349437 235.034431 
L 216.429157 235.109732 
L 216.469017 235.071922 
L 216.601883 234.64119 
L 217.345936 231.600256 
L 217.611669 231.205047 
L 217.850829 230.265619 
L 218.634741 226.735736 
L 219.325647 225.539329 
L 219.697673 224.823993 
L 219.857113 224.87132 
L 220.122846 225.286773 
L 220.694172 226.571407 
L 221.013052 228.134647 
L 222.075984 234.089758 
L 222.089271 234.08722 
L 222.195564 233.908272 
L 222.36829 232.977291 
L 222.64731 229.934731 
L 224.201848 210.215578 
L 224.454295 209.497413 
L 224.587161 209.530615 
L 224.773174 209.929057 
L 225.078767 211.218321 
L 225.530514 214.178141 
L 226.327713 219.606429 
L 226.407433 219.530965 
L 226.540299 218.91881 
L 226.766172 216.546029 
L 227.643091 205.915083 
L 227.709525 205.900804 
L 227.736098 205.940052 
L 227.855678 206.427624 
L 228.081551 208.575941 
L 228.79903 216.293102 
L 228.852177 216.297242 
L 228.87875 216.256568 
L 228.99833 215.73637 
L 229.224203 213.522838 
L 230.034689 204.76843 
L 230.140982 204.610871 
L 230.180842 204.652273 
L 230.300422 205.143488 
L 230.486435 207.109616 
L 230.792028 213.316372 
L 231.336781 224.026913 
L 231.429787 224.327673 
L 231.469647 224.261011 
L 231.57594 223.510653 
L 231.77524 220.056315 
L 232.2137 207.181544 
L 232.652159 197.08143 
L 232.864746 195.765294 
L 232.931179 195.871263 
L 233.064045 196.739416 
L 233.316492 200.306214 
L 234.233271 215.069259 
L 234.312991 215.152106 
L 234.352851 215.090216 
L 234.47243 214.488403 
L 234.658444 212.18265 
L 234.87103 206.536659 
L 235.096903 194.03407 
L 235.362636 165.220824 
L 236.173122 54.144 
L 236.239555 55.146614 
L 236.372422 64.202246 
L 236.638155 102.672479 
L 237.222767 185.441952 
L 237.541647 202.267522 
L 237.80738 206.841039 
L 237.92696 207.236337 
L 237.96682 207.176598 
L 238.073113 206.565264 
L 238.259126 203.938655 
L 238.564719 195.751959 
L 239.388492 172.004419 
L 239.494785 171.586192 
L 239.534645 171.668398 
L 239.640938 172.508262 
L 239.853525 176.526945 
L 240.74373 196.189316 
L 240.996177 197.337212 
L 241.168903 197.439555 
L 241.34163 197.232051 
L 241.740229 196.664762 
L 241.766802 196.687307 
L 241.886382 196.996306 
L 242.059109 198.198637 
L 242.324842 201.959444 
L 243.015748 212.458245 
L 243.108754 212.628702 
L 243.148614 212.583359 
L 243.268194 212.068737 
L 243.533927 209.601002 
L 243.99896 205.776668 
L 244.264693 205.124695 
L 244.543713 204.554398 
L 244.782872 203.329987 
L 245.500352 199.08848 
L 245.593358 199.190941 
L 245.766085 199.856793 
L 246.417131 202.811875 
L 246.523424 202.658185 
L 246.709437 201.868214 
L 247.201043 199.57392 
L 247.21433 199.577775 
L 247.307336 199.779385 
L 247.466776 200.890363 
L 247.732509 204.727096 
L 248.622715 218.88118 
L 248.861875 219.755112 
L 248.941595 219.669447 
L 249.074461 219.08394 
L 249.300334 216.83841 
L 249.75208 209.342176 
L 250.137393 204.608421 
L 250.256973 204.313741 
L 250.296833 204.371921 
L 250.416413 205.02734 
L 250.628999 207.853899 
L 251.652072 224.231615 
L 251.718505 224.247703 
L 251.758365 224.192761 
L 251.904518 223.640775 
L 252.196824 221.442069 
L 253.591923 209.709472 
L 253.804509 209.474287 
L 253.924089 209.657947 
L 254.096816 210.418876 
L 254.362549 212.783362 
L 255.013594 218.945724 
L 255.173034 219.148055 
L 255.186321 219.141485 
L 255.332474 218.918323 
L 255.62478 218.485173 
L 255.638067 218.492221 
L 255.74436 218.695309 
L 255.9038 219.581651 
L 256.14296 222.363658 
L 256.661139 231.925321 
L 257.099599 237.806761 
L 257.458338 239.926235 
L 257.790505 240.820407 
L 257.936658 240.837945 
L 258.069524 240.563435 
L 258.282111 239.497126 
L 258.99959 234.978205 
L 259.052737 235.022877 
L 259.172317 235.457677 
L 259.384903 237.310547 
L 259.889796 244.48788 
L 260.394689 250.078773 
L 260.753428 251.947566 
L 260.992588 252.298401 
L 261.178601 252.229724 
L 261.749927 251.581061 
L 261.9758 251.043083 
L 262.21496 249.789796 
L 262.653419 245.919005 
L 263.118452 242.660664 
L 263.756212 240.043775 
L 263.889078 239.928805 
L 263.915651 239.95181 
L 264.035231 240.282829 
L 264.234531 241.716028 
L 264.699564 247.462582 
L 265.045017 250.191618 
L 265.257603 250.601701 
L 265.403756 250.531308 
L 265.682776 250.052748 
L 266.466689 248.573937 
L 266.705848 248.771558 
L 266.878575 248.778239 
L 267.011441 248.446434 
L 267.197454 247.245474 
L 267.516334 243.364208 
L 268.034513 237.566482 
L 268.2471 237.017384 
L 268.353393 237.130045 
L 268.56598 237.841056 
L 269.070872 240.510211 
L 269.841498 244.947643 
L 269.868071 244.935716 
L 269.974365 244.681952 
L 270.160378 243.490413 
L 270.98415 237.168642 
L 271.077157 237.27882 
L 271.249883 237.959712 
L 271.661769 240.837551 
L 272.193236 243.93258 
L 272.671555 246.584717 
L 273.070155 250.536743 
L 274.35896 264.536119 
L 274.571546 264.98441 
L 274.677839 264.856352 
L 274.850566 264.176556 
L 275.142872 261.937935 
L 276.97643 245.454803 
L 277.082724 245.405839 
L 277.109297 245.434197 
L 277.242163 245.806725 
L 277.507896 247.429246 
L 279.301594 260.059669 
L 279.407888 259.985771 
L 279.567327 259.449525 
L 279.899494 257.316993 
L 280.377813 254.619578 
L 280.537253 254.458605 
L 280.55054 254.467288 
L 280.683406 254.733077 
L 280.935853 255.914852 
L 281.427459 258.066857 
L 281.626759 258.209964 
L 281.839345 258.042802 
L 282.131651 257.877809 
L 282.291091 258.04475 
L 282.556824 258.739375 
L 282.88899 259.43624 
L 283.00857 259.360651 
L 283.181297 258.87533 
L 283.72605 256.972509 
L 283.765909 256.998985 
L 283.885489 257.321806 
L 284.084789 258.711163 
L 284.416955 263.024873 
L 285.014855 270.580753 
L 285.161008 270.950192 
L 285.187581 270.936374 
L 285.293874 270.658955 
L 285.533034 269.155323 
L 285.90506 267.147553 
L 285.998067 267.098033 
L 286.037927 267.14265 
L 286.18408 267.608084 
L 286.516246 269.682094 
L 287.087572 272.823174 
L 287.619039 275.779298 
L 288.336518 280.056583 
L 288.442811 280.113925 
L 288.469384 280.091804 
L 288.602251 279.776555 
L 288.894557 278.305899 
L 289.226723 277.071969 
L 289.333017 277.097054 
L 289.346303 277.117379 
L 289.492457 277.582078 
L 289.771476 279.400193 
L 290.635109 285.317017 
L 290.993848 286.472143 
L 291.166575 286.525627 
L 291.326014 286.270563 
L 291.671467 285.136325 
L 292.163074 283.784478 
L 293.345586 281.324544 
L 293.637892 280.982078 
L 293.797332 281.0785 
L 293.996632 281.544719 
L 294.302225 282.950503 
L 295.458163 289.00178 
L 295.723896 289.167171 
L 295.936483 289.072686 
L 296.122496 288.701604 
L 296.335082 287.701759 
L 296.627389 285.075399 
L 297.557454 275.756819 
L 297.677034 275.636659 
L 297.716894 275.669129 
L 297.863047 276.060386 
L 298.16864 277.746198 
L 298.6071 279.77596 
L 298.819686 279.990839 
L 299.005699 279.864311 
L 299.603599 279.334858 
L 299.842758 279.443951 
L 300.135065 279.86587 
L 300.666531 280.653676 
L 300.812684 280.502614 
L 301.02527 279.862954 
L 301.689603 277.631102 
L 301.835756 277.689418 
L 302.035056 278.12536 
L 302.925262 280.638371 
L 302.951835 280.628273 
L 303.470014 280.477046 
L 303.656028 281.100579 
L 304.028054 283.388395 
L 304.4798 285.616408 
L 304.825253 286.298654 
L 305.064413 286.404009 
L 305.210566 286.232666 
L 305.396579 285.600051 
L 305.662312 283.739543 
L 306.446224 277.672729 
L 306.645524 277.46628 
L 306.897971 277.594189 
L 307.13713 277.609436 
L 307.389577 277.343348 
L 308.093769 276.500728 
L 308.253209 276.595721 
L 308.425936 277.026775 
L 308.665095 278.376784 
L 309.076982 282.37004 
L 309.767887 288.615249 
L 310.31264 291.680476 
L 310.604947 292.350408 
L 310.79096 292.359494 
L 310.976973 292.084408 
L 311.242706 291.228061 
L 311.561586 289.374559 
L 311.986758 285.36904 
L 312.797244 275.056582 
L 313.435003 267.694235 
L 313.621017 267.157505 
L 313.634303 267.160765 
L 313.72731 267.336147 
L 313.900036 268.304353 
L 314.245489 271.866388 
L 315.148982 281.387096 
L 315.388141 282.075626 
L 315.494435 281.964939 
L 315.667161 281.316165 
L 316.570653 277.176015 
L 316.716807 277.205923 
L 316.889533 277.533457 
L 317.168553 278.664519 
L 317.806312 281.373615 
L 317.965752 281.399966 
L 318.138478 281.117441 
L 319.16155 278.434183 
L 319.546863 277.736536 
L 319.67973 277.793272 
L 319.83917 278.181034 
L 320.078329 279.495324 
L 320.490216 283.362727 
L 320.968535 287.221893 
L 321.194408 287.726692 
L 321.327275 287.635678 
L 321.579721 287.028879 
L 321.965034 286.273639 
L 322.137761 286.312821 
L 322.33706 286.659571 
L 322.669227 287.765506 
L 323.200693 290.440118 
L 323.772019 292.970614 
L 324.024465 293.337327 
L 324.183905 293.271205 
L 324.409778 292.855326 
L 325.71187 289.935957 
L 325.884596 289.948215 
L 326.07061 290.269475 
L 327.146828 292.714362 
L 327.465708 293.368721 
L 328.076894 294.706992 
L 328.223047 294.64168 
L 328.40906 294.236824 
L 329.206259 291.947143 
L 329.246119 291.970095 
L 329.432132 292.272805 
L 330.747511 295.622633 
L 331.278977 297.498876 
L 331.42513 297.519119 
L 331.571283 297.241903 
L 331.82373 296.178228 
L 332.713936 292.033568 
L 333.019529 291.651513 
L 334.122321 290.859438 
L 334.76008 290.013616 
L 335.105533 288.973593 
L 335.517419 287.908694 
L 335.636999 287.980965 
L 335.796439 288.461327 
L 336.181752 290.654624 
L 336.434198 291.445396 
L 336.527205 291.379999 
L 336.673358 290.864146 
L 336.978951 288.707592 
L 337.37755 286.437093 
L 337.483844 286.34265 
L 337.523704 286.376413 
L 337.65657 286.760076 
L 337.882443 288.270102 
L 338.958662 296.789709 
L 339.078242 296.757015 
L 339.237682 296.339198 
L 339.503415 294.874627 
L 340.818793 286.511591 
L 341.297113 284.874806 
L 341.416693 284.860583 
L 341.429979 284.875811 
L 341.562846 285.235072 
L 341.775432 286.605752 
L 342.639065 293.42255 
L 342.665638 293.410874 
L 342.771931 293.177242 
L 342.971231 292.053861 
L 343.662137 287.707186 
L 343.76843 287.769878 
L 343.92787 288.30277 
L 344.844649 292.20316 
L 345.030662 292.097997 
L 345.934154 291.333151 
L 346.412474 290.987338 
L 346.82436 290.718307 
L 346.9838 290.885801 
L 347.196386 291.5166 
L 347.568413 293.5205 
L 348.033445 295.683433 
L 348.232745 295.867033 
L 348.378898 295.663945 
L 348.618058 294.841542 
L 349.734137 290.408021 
L 350.491476 289.268614 
L 350.690776 289.22859 
L 350.850216 289.464945 
L 351.129235 290.383578 
L 351.554408 291.595785 
L 351.753708 291.645746 
L 352.378181 291.469157 
L 352.750207 291.575542 
L 352.97608 291.335933 
L 353.387966 290.902651 
L 353.547406 291.053186 
L 353.799852 291.706257 
L 354.344605 293.130075 
L 354.530618 293.151205 
L 354.729918 292.887544 
L 355.274671 292.087102 
L 355.434111 292.246738 
L 355.71313 292.962304 
L 356.098443 293.777879 
L 356.284456 293.774383 
L 356.815922 293.545301 
L 357.001935 293.937911 
L 357.294242 295.20297 
L 358.357174 300.36337 
L 358.596334 300.576729 
L 358.76906 300.448218 
L 359.00822 299.922278 
L 359.459966 298.254105 
L 360.217305 295.612941 
L 360.456465 295.367245 
L 360.615905 295.486331 
L 360.855065 296.033787 
L 361.439677 297.422275 
L 361.678837 297.473596 
L 362.34317 297.399412 
L 362.901209 297.525809 
L 363.193515 297.288912 
L 363.711695 296.8391 
L 363.884421 296.997165 
L 364.110294 297.57149 
L 364.535467 299.428757 
L 364.987213 301.033432 
L 365.186513 301.161443 
L 365.345953 300.978795 
L 365.678119 300.1268 
L 366.143152 299.128526 
L 366.382312 299.022399 
L 366.568325 299.188839 
L 366.807485 299.774937 
L 367.192798 301.464499 
L 367.790697 303.892118 
L 368.109577 304.381392 
L 368.388596 304.458469 
L 368.627756 304.307498 
L 368.866916 303.869393 
L 369.013069 303.419348 
L 369.013069 303.419348 
" style="fill:none;stroke:#ff7f0e;stroke-linecap:square;stroke-width:1.5;"/>
   </g>
   <g id="patch_103">
    <path d="M 57.6 307.584 
L 57.6 41.472 
" style="fill:none;stroke:#000000;stroke-linecap:square;stroke-linejoin:miter;stroke-width:0.8;"/>
   </g>
   <g id="patch_104">
    <path d="M 414.72 307.584 
L 414.72 41.472 
" style="fill:none;stroke:#000000;stroke-linecap:square;stroke-linejoin:miter;stroke-width:0.8;"/>
   </g>
   <g id="patch_105">
    <path d="M 57.6 307.584 
L 414.72 307.584 
" style="fill:none;stroke:#000000;stroke-linecap:square;stroke-linejoin:miter;stroke-width:0.8;"/>
   </g>
   <g id="patch_106">
    <path d="M 57.6 41.472 
L 414.72 41.472 
" style="fill:none;stroke:#000000;stroke-linecap:square;stroke-linejoin:miter;stroke-width:0.8;"/>
   </g>
  </g>
 </g>
 <defs>
  <clipPath id="pd289da5dfb">
   <rect height="266.112" width="357.12" x="57.6" y="41.472"/>
  </clipPath>
 </defs>
</svg>
