<?xml version="1.0" encoding="utf-8" standalone="no"?>
<!DOCTYPE svg PUBLIC "-//W3C//DTD SVG 1.1//EN"
  "http://www.w3.org/Graphics/SVG/1.1/DTD/svg11.dtd">
<!-- Created with matplotlib (https://matplotlib.org/) -->
<svg height="345.6pt" version="1.1" viewBox="0 0 460.8 345.6" width="460.8pt" xmlns="http://www.w3.org/2000/svg" xmlns:xlink="http://www.w3.org/1999/xlink">
 <defs>
  <style type="text/css">
*{stroke-linecap:butt;stroke-linejoin:round;}
  </style>
 </defs>
 <g id="figure_1">
  <g id="patch_1">
   <path d="M 0 345.6 
L 460.8 345.6 
L 460.8 0 
L 0 0 
z
" style="fill:#ffffff;"/>
  </g>
  <g id="axes_1">
   <g id="patch_2">
    <path d="M 57.6 307.584 
L 414.72 307.584 
L 414.72 41.472 
L 57.6 41.472 
z
" style="fill:#ffffff;"/>
   </g>
   <g id="patch_3">
    <path clip-path="url(#p1aa32ca56b)" d="M 73.832727 307.584 
L 77.079276 307.584 
L 77.079276 306.819509 
L 73.832727 306.819509 
z
" style="fill:#1f77b4;"/>
   </g>
   <g id="patch_4">
    <path clip-path="url(#p1aa32ca56b)" d="M 77.079276 307.584 
L 80.325824 307.584 
L 80.325824 307.32917 
L 77.079276 307.32917 
z
" style="fill:#1f77b4;"/>
   </g>
   <g id="patch_5">
    <path clip-path="url(#p1aa32ca56b)" d="M 80.325812 307.584 
L 83.572347 307.584 
L 83.572347 306.309844 
L 80.325812 306.309844 
z
" style="fill:#1f77b4;"/>
   </g>
   <g id="patch_6">
    <path clip-path="url(#p1aa32ca56b)" d="M 83.57236 307.584 
L 86.818909 307.584 
L 86.818909 307.584 
L 83.57236 307.584 
z
" style="fill:#1f77b4;"/>
   </g>
   <g id="patch_7">
    <path clip-path="url(#p1aa32ca56b)" d="M 86.818909 307.584 
L 90.065457 307.584 
L 90.065457 307.32917 
L 86.818909 307.32917 
z
" style="fill:#1f77b4;"/>
   </g>
   <g id="patch_8">
    <path clip-path="url(#p1aa32ca56b)" d="M 90.065457 307.584 
L 93.312006 307.584 
L 93.312006 307.32917 
L 90.065457 307.32917 
z
" style="fill:#1f77b4;"/>
   </g>
   <g id="patch_9">
    <path clip-path="url(#p1aa32ca56b)" d="M 93.312006 307.584 
L 96.558541 307.584 
L 96.558541 306.564675 
L 93.312006 306.564675 
z
" style="fill:#1f77b4;"/>
   </g>
   <g id="patch_10">
    <path clip-path="url(#p1aa32ca56b)" d="M 96.558541 307.584 
L 99.80509 307.584 
L 99.80509 305.545358 
L 96.558541 305.545358 
z
" style="fill:#1f77b4;"/>
   </g>
   <g id="patch_11">
    <path clip-path="url(#p1aa32ca56b)" d="M 99.80509 307.584 
L 103.051638 307.584 
L 103.051638 307.32917 
L 99.80509 307.32917 
z
" style="fill:#1f77b4;"/>
   </g>
   <g id="patch_12">
    <path clip-path="url(#p1aa32ca56b)" d="M 103.051638 307.584 
L 106.298187 307.584 
L 106.298187 307.32917 
L 103.051638 307.32917 
z
" style="fill:#1f77b4;"/>
   </g>
   <g id="patch_13">
    <path clip-path="url(#p1aa32ca56b)" d="M 106.298174 307.584 
L 109.54471 307.584 
L 109.54471 306.055013 
L 106.298174 306.055013 
z
" style="fill:#1f77b4;"/>
   </g>
   <g id="patch_14">
    <path clip-path="url(#p1aa32ca56b)" d="M 109.544723 307.584 
L 112.791271 307.584 
L 112.791271 304.780867 
L 109.544723 304.780867 
z
" style="fill:#1f77b4;"/>
   </g>
   <g id="patch_15">
    <path clip-path="url(#p1aa32ca56b)" d="M 112.791271 307.584 
L 116.03782 307.584 
L 116.03782 306.309849 
L 112.791271 306.309849 
z
" style="fill:#1f77b4;"/>
   </g>
   <g id="patch_16">
    <path clip-path="url(#p1aa32ca56b)" d="M 116.03782 307.584 
L 119.284368 307.584 
L 119.284368 306.309849 
L 116.03782 306.309849 
z
" style="fill:#1f77b4;"/>
   </g>
   <g id="patch_17">
    <path clip-path="url(#p1aa32ca56b)" d="M 119.284368 307.584 
L 122.530904 307.584 
L 122.530904 302.997038 
L 119.284368 302.997038 
z
" style="fill:#1f77b4;"/>
   </g>
   <g id="patch_18">
    <path clip-path="url(#p1aa32ca56b)" d="M 122.530904 307.584 
L 125.777453 307.584 
L 125.777453 304.271207 
L 122.530904 304.271207 
z
" style="fill:#1f77b4;"/>
   </g>
   <g id="patch_19">
    <path clip-path="url(#p1aa32ca56b)" d="M 125.777453 307.584 
L 129.024001 307.584 
L 129.024001 300.703584 
L 125.777453 300.703584 
z
" style="fill:#1f77b4;"/>
   </g>
   <g id="patch_20">
    <path clip-path="url(#p1aa32ca56b)" d="M 129.024001 307.584 
L 132.270543 307.584 
L 132.270543 300.193909 
L 129.024001 300.193909 
z
" style="fill:#1f77b4;"/>
   </g>
   <g id="patch_21">
    <path clip-path="url(#p1aa32ca56b)" d="M 132.270543 307.584 
L 135.517092 307.584 
L 135.517092 301.722905 
L 132.270543 301.722905 
z
" style="fill:#1f77b4;"/>
   </g>
   <g id="patch_22">
    <path clip-path="url(#p1aa32ca56b)" d="M 135.517085 307.584 
L 138.763627 307.584 
L 138.763627 299.174586 
L 135.517085 299.174586 
z
" style="fill:#1f77b4;"/>
   </g>
   <g id="patch_23">
    <path clip-path="url(#p1aa32ca56b)" d="M 138.763634 307.584 
L 142.010182 307.584 
L 142.010182 302.487395 
L 138.763634 302.487395 
z
" style="fill:#1f77b4;"/>
   </g>
   <g id="patch_24">
    <path clip-path="url(#p1aa32ca56b)" d="M 142.010182 307.584 
L 145.256724 307.584 
L 145.256724 299.174586 
L 142.010182 299.174586 
z
" style="fill:#1f77b4;"/>
   </g>
   <g id="patch_25">
    <path clip-path="url(#p1aa32ca56b)" d="M 145.256724 307.584 
L 148.503273 307.584 
L 148.503273 297.645621 
L 145.256724 297.645621 
z
" style="fill:#1f77b4;"/>
   </g>
   <g id="patch_26">
    <path clip-path="url(#p1aa32ca56b)" d="M 148.503267 307.584 
L 151.749809 307.584 
L 151.749809 294.077971 
L 148.503267 294.077971 
z
" style="fill:#1f77b4;"/>
   </g>
   <g id="patch_27">
    <path clip-path="url(#p1aa32ca56b)" d="M 151.749815 307.584 
L 154.996364 307.584 
L 154.996364 291.274865 
L 151.749815 291.274865 
z
" style="fill:#1f77b4;"/>
   </g>
   <g id="patch_28">
    <path clip-path="url(#p1aa32ca56b)" d="M 154.996364 307.584 
L 158.242912 307.584 
L 158.242912 291.784526 
L 154.996364 291.784526 
z
" style="fill:#1f77b4;"/>
   </g>
   <g id="patch_29">
    <path clip-path="url(#p1aa32ca56b)" d="M 158.242912 307.584 
L 161.489454 307.584 
L 161.489454 285.923388 
L 158.242912 285.923388 
z
" style="fill:#1f77b4;"/>
   </g>
   <g id="patch_30">
    <path clip-path="url(#p1aa32ca56b)" d="M 161.489454 307.584 
L 164.736003 307.584 
L 164.736003 283.375128 
L 161.489454 283.375128 
z
" style="fill:#1f77b4;"/>
   </g>
   <g id="patch_31">
    <path clip-path="url(#p1aa32ca56b)" d="M 164.735996 307.584 
L 167.982539 307.584 
L 167.982539 281.081604 
L 164.735996 281.081604 
z
" style="fill:#1f77b4;"/>
   </g>
   <g id="patch_32">
    <path clip-path="url(#p1aa32ca56b)" d="M 167.982545 307.584 
L 171.229093 307.584 
L 171.229093 279.043014 
L 167.982545 279.043014 
z
" style="fill:#1f77b4;"/>
   </g>
   <g id="patch_33">
    <path clip-path="url(#p1aa32ca56b)" d="M 171.229093 307.584 
L 174.475636 307.584 
L 174.475636 278.788128 
L 171.229093 278.788128 
z
" style="fill:#1f77b4;"/>
   </g>
   <g id="patch_34">
    <path clip-path="url(#p1aa32ca56b)" d="M 174.475636 307.584 
L 177.722184 307.584 
L 177.722184 279.297844 
L 174.475636 279.297844 
z
" style="fill:#1f77b4;"/>
   </g>
   <g id="patch_35">
    <path clip-path="url(#p1aa32ca56b)" d="M 177.722178 307.584 
L 180.96872 307.584 
L 180.96872 269.614221 
L 177.722178 269.614221 
z
" style="fill:#1f77b4;"/>
   </g>
   <g id="patch_36">
    <path clip-path="url(#p1aa32ca56b)" d="M 180.968726 307.584 
L 184.215272 307.584 
L 184.215272 264.007988 
L 180.968726 264.007988 
z
" style="fill:#1f77b4;"/>
   </g>
   <g id="patch_37">
    <path clip-path="url(#p1aa32ca56b)" d="M 184.215268 307.584 
L 187.461814 307.584 
L 187.461814 272.162563 
L 184.215268 272.162563 
z
" style="fill:#1f77b4;"/>
   </g>
   <g id="patch_38">
    <path clip-path="url(#p1aa32ca56b)" d="M 187.461817 307.584 
L 190.708362 307.584 
L 190.708362 263.243496 
L 187.461817 263.243496 
z
" style="fill:#1f77b4;"/>
   </g>
   <g id="patch_39">
    <path clip-path="url(#p1aa32ca56b)" d="M 190.708359 307.584 
L 193.954904 307.584 
L 193.954904 258.911378 
L 190.708359 258.911378 
z
" style="fill:#1f77b4;"/>
   </g>
   <g id="patch_40">
    <path clip-path="url(#p1aa32ca56b)" d="M 193.954908 307.584 
L 197.201456 307.584 
L 197.201456 252.285839 
L 193.954908 252.285839 
z
" style="fill:#1f77b4;"/>
   </g>
   <g id="patch_41">
    <path clip-path="url(#p1aa32ca56b)" d="M 197.201456 307.584 
L 200.448001 307.584 
L 200.448001 253.814768 
L 197.201456 253.814768 
z
" style="fill:#1f77b4;"/>
   </g>
   <g id="patch_42">
    <path clip-path="url(#p1aa32ca56b)" d="M 200.447998 307.584 
L 203.694544 307.584 
L 203.694544 244.386041 
L 200.447998 244.386041 
z
" style="fill:#1f77b4;"/>
   </g>
   <g id="patch_43">
    <path clip-path="url(#p1aa32ca56b)" d="M 203.694547 307.584 
L 206.941092 307.584 
L 206.941092 237.760448 
L 203.694547 237.760448 
z
" style="fill:#1f77b4;"/>
   </g>
   <g id="patch_44">
    <path clip-path="url(#p1aa32ca56b)" d="M 206.941092 307.584 
L 210.187636 307.584 
L 210.187636 234.192786 
L 206.941092 234.192786 
z
" style="fill:#1f77b4;"/>
   </g>
   <g id="patch_45">
    <path clip-path="url(#p1aa32ca56b)" d="M 210.187636 307.584 
L 213.434181 307.584 
L 213.434181 234.192821 
L 210.187636 234.192821 
z
" style="fill:#1f77b4;"/>
   </g>
   <g id="patch_46">
    <path clip-path="url(#p1aa32ca56b)" d="M 213.43418 307.584 
L 216.680726 307.584 
L 216.680726 233.938027 
L 213.43418 233.938027 
z
" style="fill:#1f77b4;"/>
   </g>
   <g id="patch_47">
    <path clip-path="url(#p1aa32ca56b)" d="M 216.680728 307.584 
L 219.927273 307.584 
L 219.927273 231.899347 
L 216.680728 231.899347 
z
" style="fill:#1f77b4;"/>
   </g>
   <g id="patch_48">
    <path clip-path="url(#p1aa32ca56b)" d="M 219.927273 307.584 
L 223.173818 307.584 
L 223.173818 232.66382 
L 219.927273 232.66382 
z
" style="fill:#1f77b4;"/>
   </g>
   <g id="patch_49">
    <path clip-path="url(#p1aa32ca56b)" d="M 223.173819 307.584 
L 226.420365 307.584 
L 226.420365 215.845049 
L 223.173819 215.845049 
z
" style="fill:#1f77b4;"/>
   </g>
   <g id="patch_50">
    <path clip-path="url(#p1aa32ca56b)" d="M 226.420364 307.584 
L 229.666909 307.584 
L 229.666909 214.061202 
L 226.420364 214.061202 
z
" style="fill:#1f77b4;"/>
   </g>
   <g id="patch_51">
    <path clip-path="url(#p1aa32ca56b)" d="M 229.666909 307.584 
L 232.913454 307.584 
L 232.913454 207.180796 
L 229.666909 207.180796 
z
" style="fill:#1f77b4;"/>
   </g>
   <g id="patch_52">
    <path clip-path="url(#p1aa32ca56b)" d="M 232.913454 307.584 
L 236.16 307.584 
L 236.16 144.492502 
L 232.913454 144.492502 
z
" style="fill:#1f77b4;"/>
   </g>
   <g id="patch_53">
    <path clip-path="url(#p1aa32ca56b)" d="M 236.16 307.584 
L 239.406546 307.584 
L 239.406546 202.339018 
L 236.16 202.339018 
z
" style="fill:#1f77b4;"/>
   </g>
   <g id="patch_54">
    <path clip-path="url(#p1aa32ca56b)" d="M 239.406546 307.584 
L 242.653091 307.584 
L 242.653091 191.381308 
L 239.406546 191.381308 
z
" style="fill:#1f77b4;"/>
   </g>
   <g id="patch_55">
    <path clip-path="url(#p1aa32ca56b)" d="M 242.653091 307.584 
L 245.899636 307.584 
L 245.899636 212.277388 
L 242.653091 212.277388 
z
" style="fill:#1f77b4;"/>
   </g>
   <g id="patch_56">
    <path clip-path="url(#p1aa32ca56b)" d="M 245.899636 307.584 
L 249.146182 307.584 
L 249.146182 214.061236 
L 245.899636 214.061236 
z
" style="fill:#1f77b4;"/>
   </g>
   <g id="patch_57">
    <path clip-path="url(#p1aa32ca56b)" d="M 249.146181 307.584 
L 252.392727 307.584 
L 252.392727 221.196446 
L 249.146181 221.196446 
z
" style="fill:#1f77b4;"/>
   </g>
   <g id="patch_58">
    <path clip-path="url(#p1aa32ca56b)" d="M 252.392727 307.584 
L 255.639272 307.584 
L 255.639272 220.177145 
L 252.392727 220.177145 
z
" style="fill:#1f77b4;"/>
   </g>
   <g id="patch_59">
    <path clip-path="url(#p1aa32ca56b)" d="M 255.639272 307.584 
L 258.885819 307.584 
L 258.885819 240.053955 
L 255.639272 240.053955 
z
" style="fill:#1f77b4;"/>
   </g>
   <g id="patch_60">
    <path clip-path="url(#p1aa32ca56b)" d="M 258.885819 307.584 
L 262.132364 307.584 
L 262.132364 250.501972 
L 258.885819 250.501972 
z
" style="fill:#1f77b4;"/>
   </g>
   <g id="patch_61">
    <path clip-path="url(#p1aa32ca56b)" d="M 262.132366 307.584 
L 265.378911 307.584 
L 265.378911 252.030928 
L 262.132366 252.030928 
z
" style="fill:#1f77b4;"/>
   </g>
   <g id="patch_62">
    <path clip-path="url(#p1aa32ca56b)" d="M 265.378905 307.584 
L 268.62545 307.584 
L 268.62545 249.22782 
L 265.378905 249.22782 
z
" style="fill:#1f77b4;"/>
   </g>
   <g id="patch_63">
    <path clip-path="url(#p1aa32ca56b)" d="M 268.625453 307.584 
L 271.871999 307.584 
L 271.871999 246.169854 
L 268.625453 246.169854 
z
" style="fill:#1f77b4;"/>
   </g>
   <g id="patch_64">
    <path clip-path="url(#p1aa32ca56b)" d="M 271.871995 307.584 
L 275.118541 307.584 
L 275.118541 260.950022 
L 271.871995 260.950022 
z
" style="fill:#1f77b4;"/>
   </g>
   <g id="patch_65">
    <path clip-path="url(#p1aa32ca56b)" d="M 275.118544 307.584 
L 278.365092 307.584 
L 278.365092 252.54067 
L 275.118544 252.54067 
z
" style="fill:#1f77b4;"/>
   </g>
   <g id="patch_66">
    <path clip-path="url(#p1aa32ca56b)" d="M 278.365092 307.584 
L 281.611638 307.584 
L 281.611638 260.440361 
L 278.365092 260.440361 
z
" style="fill:#1f77b4;"/>
   </g>
   <g id="patch_67">
    <path clip-path="url(#p1aa32ca56b)" d="M 281.611635 307.584 
L 284.85818 307.584 
L 284.85818 259.67587 
L 281.611635 259.67587 
z
" style="fill:#1f77b4;"/>
   </g>
   <g id="patch_68">
    <path clip-path="url(#p1aa32ca56b)" d="M 284.858183 307.584 
L 288.104728 307.584 
L 288.104728 271.398072 
L 284.858183 271.398072 
z
" style="fill:#1f77b4;"/>
   </g>
   <g id="patch_69">
    <path clip-path="url(#p1aa32ca56b)" d="M 288.104725 307.584 
L 291.351274 307.584 
L 291.351274 282.355782 
L 288.104725 282.355782 
z
" style="fill:#1f77b4;"/>
   </g>
   <g id="patch_70">
    <path clip-path="url(#p1aa32ca56b)" d="M 291.351274 307.584 
L 294.597816 307.584 
L 294.597816 280.317112 
L 291.351274 280.317112 
z
" style="fill:#1f77b4;"/>
   </g>
   <g id="patch_71">
    <path clip-path="url(#p1aa32ca56b)" d="M 294.597816 307.584 
L 297.844364 307.584 
L 297.844364 281.081656 
L 294.597816 281.081656 
z
" style="fill:#1f77b4;"/>
   </g>
   <g id="patch_72">
    <path clip-path="url(#p1aa32ca56b)" d="M 297.844358 307.584 
L 301.0909 307.584 
L 301.0909 279.297789 
L 297.844358 279.297789 
z
" style="fill:#1f77b4;"/>
   </g>
   <g id="patch_73">
    <path clip-path="url(#p1aa32ca56b)" d="M 301.090907 307.584 
L 304.337455 307.584 
L 304.337455 276.239881 
L 301.090907 276.239881 
z
" style="fill:#1f77b4;"/>
   </g>
   <g id="patch_74">
    <path clip-path="url(#p1aa32ca56b)" d="M 304.337455 307.584 
L 307.583997 307.584 
L 307.583997 280.062281 
L 304.337455 280.062281 
z
" style="fill:#1f77b4;"/>
   </g>
   <g id="patch_75">
    <path clip-path="url(#p1aa32ca56b)" d="M 307.583997 307.584 
L 310.830546 307.584 
L 310.830546 283.884788 
L 307.583997 283.884788 
z
" style="fill:#1f77b4;"/>
   </g>
   <g id="patch_76">
    <path clip-path="url(#p1aa32ca56b)" d="M 310.830539 307.584 
L 314.077082 307.584 
L 314.077082 278.533297 
L 310.830539 278.533297 
z
" style="fill:#1f77b4;"/>
   </g>
   <g id="patch_77">
    <path clip-path="url(#p1aa32ca56b)" d="M 314.077088 307.584 
L 317.323636 307.584 
L 317.323636 280.062335 
L 314.077088 280.062335 
z
" style="fill:#1f77b4;"/>
   </g>
   <g id="patch_78">
    <path clip-path="url(#p1aa32ca56b)" d="M 317.323636 307.584 
L 320.570185 307.584 
L 320.570185 279.807505 
L 317.323636 279.807505 
z
" style="fill:#1f77b4;"/>
   </g>
   <g id="patch_79">
    <path clip-path="url(#p1aa32ca56b)" d="M 320.570185 307.584 
L 323.816727 307.584 
L 323.816727 287.707203 
L 320.570185 287.707203 
z
" style="fill:#1f77b4;"/>
   </g>
   <g id="patch_80">
    <path clip-path="url(#p1aa32ca56b)" d="M 323.816727 307.584 
L 327.063276 307.584 
L 327.063276 289.745884 
L 323.816727 289.745884 
z
" style="fill:#1f77b4;"/>
   </g>
   <g id="patch_81">
    <path clip-path="url(#p1aa32ca56b)" d="M 327.063269 307.584 
L 330.309811 307.584 
L 330.309811 293.313479 
L 327.063269 293.313479 
z
" style="fill:#1f77b4;"/>
   </g>
   <g id="patch_82">
    <path clip-path="url(#p1aa32ca56b)" d="M 330.309818 307.584 
L 333.556366 307.584 
L 333.556366 295.097319 
L 330.309818 295.097319 
z
" style="fill:#1f77b4;"/>
   </g>
   <g id="patch_83">
    <path clip-path="url(#p1aa32ca56b)" d="M 333.556366 307.584 
L 336.802908 307.584 
L 336.802908 291.784495 
L 333.556366 291.784495 
z
" style="fill:#1f77b4;"/>
   </g>
   <g id="patch_84">
    <path clip-path="url(#p1aa32ca56b)" d="M 336.802908 307.584 
L 340.049457 307.584 
L 340.049457 293.823167 
L 336.802908 293.823167 
z
" style="fill:#1f77b4;"/>
   </g>
   <g id="patch_85">
    <path clip-path="url(#p1aa32ca56b)" d="M 340.04945 307.584 
L 343.295986 307.584 
L 343.295986 292.803818 
L 340.04945 292.803818 
z
" style="fill:#1f77b4;"/>
   </g>
   <g id="patch_86">
    <path clip-path="url(#p1aa32ca56b)" d="M 343.295999 307.584 
L 346.542547 307.584 
L 346.542547 293.058677 
L 343.295999 293.058677 
z
" style="fill:#1f77b4;"/>
   </g>
   <g id="patch_87">
    <path clip-path="url(#p1aa32ca56b)" d="M 346.542547 307.584 
L 349.789096 307.584 
L 349.789096 295.352149 
L 346.542547 295.352149 
z
" style="fill:#1f77b4;"/>
   </g>
   <g id="patch_88">
    <path clip-path="url(#p1aa32ca56b)" d="M 349.789083 307.584 
L 353.035619 307.584 
L 353.035619 294.842439 
L 349.789083 294.842439 
z
" style="fill:#1f77b4;"/>
   </g>
   <g id="patch_89">
    <path clip-path="url(#p1aa32ca56b)" d="M 353.035632 307.584 
L 356.28218 307.584 
L 356.28218 295.352149 
L 353.035632 295.352149 
z
" style="fill:#1f77b4;"/>
   </g>
   <g id="patch_90">
    <path clip-path="url(#p1aa32ca56b)" d="M 356.28218 307.584 
L 359.528729 307.584 
L 359.528729 299.429433 
L 356.28218 299.429433 
z
" style="fill:#1f77b4;"/>
   </g>
   <g id="patch_91">
    <path clip-path="url(#p1aa32ca56b)" d="M 359.528729 307.584 
L 362.775277 307.584 
L 362.775277 299.174602 
L 359.528729 299.174602 
z
" style="fill:#1f77b4;"/>
   </g>
   <g id="patch_92">
    <path clip-path="url(#p1aa32ca56b)" d="M 362.775277 307.584 
L 366.021813 307.584 
L 366.021813 300.448726 
L 362.775277 300.448726 
z
" style="fill:#1f77b4;"/>
   </g>
   <g id="patch_93">
    <path clip-path="url(#p1aa32ca56b)" d="M 366.021813 307.584 
L 369.268362 307.584 
L 369.268362 303.761547 
L 366.021813 303.761547 
z
" style="fill:#1f77b4;"/>
   </g>
   <g id="patch_94">
    <path clip-path="url(#p1aa32ca56b)" d="M 369.268362 307.584 
L 372.51491 307.584 
L 372.51491 298.410112 
L 369.268362 298.410112 
z
" style="fill:#1f77b4;"/>
   </g>
   <g id="patch_95">
    <path clip-path="url(#p1aa32ca56b)" d="M 372.51491 307.584 
L 375.761459 307.584 
L 375.761459 302.742226 
L 372.51491 302.742226 
z
" style="fill:#1f77b4;"/>
   </g>
   <g id="patch_96">
    <path clip-path="url(#p1aa32ca56b)" d="M 375.761446 307.584 
L 379.007982 307.584 
L 379.007982 299.174569 
L 375.761446 299.174569 
z
" style="fill:#1f77b4;"/>
   </g>
   <g id="patch_97">
    <path clip-path="url(#p1aa32ca56b)" d="M 379.007994 307.584 
L 382.254543 307.584 
L 382.254543 299.684263 
L 379.007994 299.684263 
z
" style="fill:#1f77b4;"/>
   </g>
   <g id="patch_98">
    <path clip-path="url(#p1aa32ca56b)" d="M 382.254543 307.584 
L 385.501091 307.584 
L 385.501091 297.900451 
L 382.254543 297.900451 
z
" style="fill:#1f77b4;"/>
   </g>
   <g id="patch_99">
    <path clip-path="url(#p1aa32ca56b)" d="M 385.501091 307.584 
L 388.74764 307.584 
L 388.74764 301.977735 
L 385.501091 301.977735 
z
" style="fill:#1f77b4;"/>
   </g>
   <g id="patch_100">
    <path clip-path="url(#p1aa32ca56b)" d="M 388.74764 307.584 
L 391.994176 307.584 
L 391.994176 302.232544 
L 388.74764 302.232544 
z
" style="fill:#1f77b4;"/>
   </g>
   <g id="patch_101">
    <path clip-path="url(#p1aa32ca56b)" d="M 391.994176 307.584 
L 395.240724 307.584 
L 395.240724 304.526037 
L 391.994176 304.526037 
z
" style="fill:#1f77b4;"/>
   </g>
   <g id="patch_102">
    <path clip-path="url(#p1aa32ca56b)" d="M 395.240724 307.584 
L 398.487273 307.584 
L 398.487273 304.016377 
L 395.240724 304.016377 
z
" style="fill:#1f77b4;"/>
   </g>
   <g id="matplotlib.axis_1">
    <g id="xtick_1">
     <g id="line2d_1">
      <defs>
       <path d="M 0 0 
L 0 3.5 
" id="m2736d198e2" style="stroke:#000000;stroke-width:0.8;"/>
      </defs>
      <g>
       <use style="stroke:#000000;stroke-width:0.8;" x="76.720011" xlink:href="#m2736d198e2" y="307.584"/>
      </g>
     </g>
     <g id="text_1">
      <!-- −3 -->
      <defs>
       <path d="M 10.59375 35.5 
L 73.1875 35.5 
L 73.1875 27.203125 
L 10.59375 27.203125 
z
" id="DejaVuSans-8722"/>
       <path d="M 40.578125 39.3125 
Q 47.65625 37.796875 51.625 33 
Q 55.609375 28.21875 55.609375 21.1875 
Q 55.609375 10.40625 48.1875 4.484375 
Q 40.765625 -1.421875 27.09375 -1.421875 
Q 22.515625 -1.421875 17.65625 -0.515625 
Q 12.796875 0.390625 7.625 2.203125 
L 7.625 11.71875 
Q 11.71875 9.328125 16.59375 8.109375 
Q 21.484375 6.890625 26.8125 6.890625 
Q 36.078125 6.890625 40.9375 10.546875 
Q 45.796875 14.203125 45.796875 21.1875 
Q 45.796875 27.640625 41.28125 31.265625 
Q 36.765625 34.90625 28.71875 34.90625 
L 20.21875 34.90625 
L 20.21875 43.015625 
L 29.109375 43.015625 
Q 36.375 43.015625 40.234375 45.921875 
Q 44.09375 48.828125 44.09375 54.296875 
Q 44.09375 59.90625 40.109375 62.90625 
Q 36.140625 65.921875 28.71875 65.921875 
Q 24.65625 65.921875 20.015625 65.03125 
Q 15.375 64.15625 9.8125 62.3125 
L 9.8125 71.09375 
Q 15.4375 72.65625 20.34375 73.4375 
Q 25.25 74.21875 29.59375 74.21875 
Q 40.828125 74.21875 47.359375 69.109375 
Q 53.90625 64.015625 53.90625 55.328125 
Q 53.90625 49.265625 50.4375 45.09375 
Q 46.96875 40.921875 40.578125 39.3125 
z
" id="DejaVuSans-51"/>
      </defs>
      <g transform="translate(64.189152 327.501344)scale(0.17 -0.17)">
       <use xlink:href="#DejaVuSans-8722"/>
       <use x="83.789062" xlink:href="#DejaVuSans-51"/>
      </g>
     </g>
    </g>
    <g id="xtick_2">
     <g id="line2d_2">
      <g>
       <use style="stroke:#000000;stroke-width:0.8;" x="129.866619" xlink:href="#m2736d198e2" y="307.584"/>
      </g>
     </g>
     <g id="text_2">
      <!-- −2 -->
      <defs>
       <path d="M 19.1875 8.296875 
L 53.609375 8.296875 
L 53.609375 0 
L 7.328125 0 
L 7.328125 8.296875 
Q 12.9375 14.109375 22.625 23.890625 
Q 32.328125 33.6875 34.8125 36.53125 
Q 39.546875 41.84375 41.421875 45.53125 
Q 43.3125 49.21875 43.3125 52.78125 
Q 43.3125 58.59375 39.234375 62.25 
Q 35.15625 65.921875 28.609375 65.921875 
Q 23.96875 65.921875 18.8125 64.3125 
Q 13.671875 62.703125 7.8125 59.421875 
L 7.8125 69.390625 
Q 13.765625 71.78125 18.9375 73 
Q 24.125 74.21875 28.421875 74.21875 
Q 39.75 74.21875 46.484375 68.546875 
Q 53.21875 62.890625 53.21875 53.421875 
Q 53.21875 48.921875 51.53125 44.890625 
Q 49.859375 40.875 45.40625 35.40625 
Q 44.1875 33.984375 37.640625 27.21875 
Q 31.109375 20.453125 19.1875 8.296875 
z
" id="DejaVuSans-50"/>
      </defs>
      <g transform="translate(117.33576 327.501344)scale(0.17 -0.17)">
       <use xlink:href="#DejaVuSans-8722"/>
       <use x="83.789062" xlink:href="#DejaVuSans-50"/>
      </g>
     </g>
    </g>
    <g id="xtick_3">
     <g id="line2d_3">
      <g>
       <use style="stroke:#000000;stroke-width:0.8;" x="183.013227" xlink:href="#m2736d198e2" y="307.584"/>
      </g>
     </g>
     <g id="text_3">
      <!-- −1 -->
      <defs>
       <path d="M 12.40625 8.296875 
L 28.515625 8.296875 
L 28.515625 63.921875 
L 10.984375 60.40625 
L 10.984375 69.390625 
L 28.421875 72.90625 
L 38.28125 72.90625 
L 38.28125 8.296875 
L 54.390625 8.296875 
L 54.390625 0 
L 12.40625 0 
z
" id="DejaVuSans-49"/>
      </defs>
      <g transform="translate(170.482368 327.501344)scale(0.17 -0.17)">
       <use xlink:href="#DejaVuSans-8722"/>
       <use x="83.789062" xlink:href="#DejaVuSans-49"/>
      </g>
     </g>
    </g>
    <g id="xtick_4">
     <g id="line2d_4">
      <g>
       <use style="stroke:#000000;stroke-width:0.8;" x="236.159835" xlink:href="#m2736d198e2" y="307.584"/>
      </g>
     </g>
     <g id="text_4">
      <!-- 0 -->
      <defs>
       <path d="M 31.78125 66.40625 
Q 24.171875 66.40625 20.328125 58.90625 
Q 16.5 51.421875 16.5 36.375 
Q 16.5 21.390625 20.328125 13.890625 
Q 24.171875 6.390625 31.78125 6.390625 
Q 39.453125 6.390625 43.28125 13.890625 
Q 47.125 21.390625 47.125 36.375 
Q 47.125 51.421875 43.28125 58.90625 
Q 39.453125 66.40625 31.78125 66.40625 
z
M 31.78125 74.21875 
Q 44.046875 74.21875 50.515625 64.515625 
Q 56.984375 54.828125 56.984375 36.375 
Q 56.984375 17.96875 50.515625 8.265625 
Q 44.046875 -1.421875 31.78125 -1.421875 
Q 19.53125 -1.421875 13.0625 8.265625 
Q 6.59375 17.96875 6.59375 36.375 
Q 6.59375 54.828125 13.0625 64.515625 
Q 19.53125 74.21875 31.78125 74.21875 
z
" id="DejaVuSans-48"/>
      </defs>
      <g transform="translate(230.75171 327.501344)scale(0.17 -0.17)">
       <use xlink:href="#DejaVuSans-48"/>
      </g>
     </g>
    </g>
    <g id="xtick_5">
     <g id="line2d_5">
      <g>
       <use style="stroke:#000000;stroke-width:0.8;" x="289.306443" xlink:href="#m2736d198e2" y="307.584"/>
      </g>
     </g>
     <g id="text_5">
      <!-- 1 -->
      <g transform="translate(283.898318 327.501344)scale(0.17 -0.17)">
       <use xlink:href="#DejaVuSans-49"/>
      </g>
     </g>
    </g>
    <g id="xtick_6">
     <g id="line2d_6">
      <g>
       <use style="stroke:#000000;stroke-width:0.8;" x="342.453051" xlink:href="#m2736d198e2" y="307.584"/>
      </g>
     </g>
     <g id="text_6">
      <!-- 2 -->
      <g transform="translate(337.044926 327.501344)scale(0.17 -0.17)">
       <use xlink:href="#DejaVuSans-50"/>
      </g>
     </g>
    </g>
    <g id="xtick_7">
     <g id="line2d_7">
      <g>
       <use style="stroke:#000000;stroke-width:0.8;" x="395.59966" xlink:href="#m2736d198e2" y="307.584"/>
      </g>
     </g>
     <g id="text_7">
      <!-- 3 -->
      <g transform="translate(390.191535 327.501344)scale(0.17 -0.17)">
       <use xlink:href="#DejaVuSans-51"/>
      </g>
     </g>
    </g>
    <g id="text_8">
     <!-- Position in Radian -->
     <defs>
      <path d="M 19.671875 64.796875 
L 19.671875 37.40625 
L 32.078125 37.40625 
Q 38.96875 37.40625 42.71875 40.96875 
Q 46.484375 44.53125 46.484375 51.125 
Q 46.484375 57.671875 42.71875 61.234375 
Q 38.96875 64.796875 32.078125 64.796875 
z
M 9.8125 72.90625 
L 32.078125 72.90625 
Q 44.34375 72.90625 50.609375 67.359375 
Q 56.890625 61.8125 56.890625 51.125 
Q 56.890625 40.328125 50.609375 34.8125 
Q 44.34375 29.296875 32.078125 29.296875 
L 19.671875 29.296875 
L 19.671875 0 
L 9.8125 0 
z
" id="DejaVuSans-80"/>
      <path d="M 30.609375 48.390625 
Q 23.390625 48.390625 19.1875 42.75 
Q 14.984375 37.109375 14.984375 27.296875 
Q 14.984375 17.484375 19.15625 11.84375 
Q 23.34375 6.203125 30.609375 6.203125 
Q 37.796875 6.203125 41.984375 11.859375 
Q 46.1875 17.53125 46.1875 27.296875 
Q 46.1875 37.015625 41.984375 42.703125 
Q 37.796875 48.390625 30.609375 48.390625 
z
M 30.609375 56 
Q 42.328125 56 49.015625 48.375 
Q 55.71875 40.765625 55.71875 27.296875 
Q 55.71875 13.875 49.015625 6.21875 
Q 42.328125 -1.421875 30.609375 -1.421875 
Q 18.84375 -1.421875 12.171875 6.21875 
Q 5.515625 13.875 5.515625 27.296875 
Q 5.515625 40.765625 12.171875 48.375 
Q 18.84375 56 30.609375 56 
z
" id="DejaVuSans-111"/>
      <path d="M 44.28125 53.078125 
L 44.28125 44.578125 
Q 40.484375 46.53125 36.375 47.5 
Q 32.28125 48.484375 27.875 48.484375 
Q 21.1875 48.484375 17.84375 46.4375 
Q 14.5 44.390625 14.5 40.28125 
Q 14.5 37.15625 16.890625 35.375 
Q 19.28125 33.59375 26.515625 31.984375 
L 29.59375 31.296875 
Q 39.15625 29.25 43.1875 25.515625 
Q 47.21875 21.78125 47.21875 15.09375 
Q 47.21875 7.46875 41.1875 3.015625 
Q 35.15625 -1.421875 24.609375 -1.421875 
Q 20.21875 -1.421875 15.453125 -0.5625 
Q 10.6875 0.296875 5.421875 2 
L 5.421875 11.28125 
Q 10.40625 8.6875 15.234375 7.390625 
Q 20.0625 6.109375 24.8125 6.109375 
Q 31.15625 6.109375 34.5625 8.28125 
Q 37.984375 10.453125 37.984375 14.40625 
Q 37.984375 18.0625 35.515625 20.015625 
Q 33.0625 21.96875 24.703125 23.78125 
L 21.578125 24.515625 
Q 13.234375 26.265625 9.515625 29.90625 
Q 5.8125 33.546875 5.8125 39.890625 
Q 5.8125 47.609375 11.28125 51.796875 
Q 16.75 56 26.8125 56 
Q 31.78125 56 36.171875 55.265625 
Q 40.578125 54.546875 44.28125 53.078125 
z
" id="DejaVuSans-115"/>
      <path d="M 9.421875 54.6875 
L 18.40625 54.6875 
L 18.40625 0 
L 9.421875 0 
z
M 9.421875 75.984375 
L 18.40625 75.984375 
L 18.40625 64.59375 
L 9.421875 64.59375 
z
" id="DejaVuSans-105"/>
      <path d="M 18.3125 70.21875 
L 18.3125 54.6875 
L 36.8125 54.6875 
L 36.8125 47.703125 
L 18.3125 47.703125 
L 18.3125 18.015625 
Q 18.3125 11.328125 20.140625 9.421875 
Q 21.96875 7.515625 27.59375 7.515625 
L 36.8125 7.515625 
L 36.8125 0 
L 27.59375 0 
Q 17.1875 0 13.234375 3.875 
Q 9.28125 7.765625 9.28125 18.015625 
L 9.28125 47.703125 
L 2.6875 47.703125 
L 2.6875 54.6875 
L 9.28125 54.6875 
L 9.28125 70.21875 
z
" id="DejaVuSans-116"/>
      <path d="M 54.890625 33.015625 
L 54.890625 0 
L 45.90625 0 
L 45.90625 32.71875 
Q 45.90625 40.484375 42.875 44.328125 
Q 39.84375 48.1875 33.796875 48.1875 
Q 26.515625 48.1875 22.3125 43.546875 
Q 18.109375 38.921875 18.109375 30.90625 
L 18.109375 0 
L 9.078125 0 
L 9.078125 54.6875 
L 18.109375 54.6875 
L 18.109375 46.1875 
Q 21.34375 51.125 25.703125 53.5625 
Q 30.078125 56 35.796875 56 
Q 45.21875 56 50.046875 50.171875 
Q 54.890625 44.34375 54.890625 33.015625 
z
" id="DejaVuSans-110"/>
      <path id="DejaVuSans-32"/>
      <path d="M 44.390625 34.1875 
Q 47.5625 33.109375 50.5625 29.59375 
Q 53.5625 26.078125 56.59375 19.921875 
L 66.609375 0 
L 56 0 
L 46.6875 18.703125 
Q 43.0625 26.03125 39.671875 28.421875 
Q 36.28125 30.8125 30.421875 30.8125 
L 19.671875 30.8125 
L 19.671875 0 
L 9.8125 0 
L 9.8125 72.90625 
L 32.078125 72.90625 
Q 44.578125 72.90625 50.734375 67.671875 
Q 56.890625 62.453125 56.890625 51.90625 
Q 56.890625 45.015625 53.6875 40.46875 
Q 50.484375 35.9375 44.390625 34.1875 
z
M 19.671875 64.796875 
L 19.671875 38.921875 
L 32.078125 38.921875 
Q 39.203125 38.921875 42.84375 42.21875 
Q 46.484375 45.515625 46.484375 51.90625 
Q 46.484375 58.296875 42.84375 61.546875 
Q 39.203125 64.796875 32.078125 64.796875 
z
" id="DejaVuSans-82"/>
      <path d="M 34.28125 27.484375 
Q 23.390625 27.484375 19.1875 25 
Q 14.984375 22.515625 14.984375 16.5 
Q 14.984375 11.71875 18.140625 8.90625 
Q 21.296875 6.109375 26.703125 6.109375 
Q 34.1875 6.109375 38.703125 11.40625 
Q 43.21875 16.703125 43.21875 25.484375 
L 43.21875 27.484375 
z
M 52.203125 31.203125 
L 52.203125 0 
L 43.21875 0 
L 43.21875 8.296875 
Q 40.140625 3.328125 35.546875 0.953125 
Q 30.953125 -1.421875 24.3125 -1.421875 
Q 15.921875 -1.421875 10.953125 3.296875 
Q 6 8.015625 6 15.921875 
Q 6 25.140625 12.171875 29.828125 
Q 18.359375 34.515625 30.609375 34.515625 
L 43.21875 34.515625 
L 43.21875 35.40625 
Q 43.21875 41.609375 39.140625 45 
Q 35.0625 48.390625 27.6875 48.390625 
Q 23 48.390625 18.546875 47.265625 
Q 14.109375 46.140625 10.015625 43.890625 
L 10.015625 52.203125 
Q 14.9375 54.109375 19.578125 55.046875 
Q 24.21875 56 28.609375 56 
Q 40.484375 56 46.34375 49.84375 
Q 52.203125 43.703125 52.203125 31.203125 
z
" id="DejaVuSans-97"/>
      <path d="M 45.40625 46.390625 
L 45.40625 75.984375 
L 54.390625 75.984375 
L 54.390625 0 
L 45.40625 0 
L 45.40625 8.203125 
Q 42.578125 3.328125 38.25 0.953125 
Q 33.9375 -1.421875 27.875 -1.421875 
Q 17.96875 -1.421875 11.734375 6.484375 
Q 5.515625 14.40625 5.515625 27.296875 
Q 5.515625 40.1875 11.734375 48.09375 
Q 17.96875 56 27.875 56 
Q 33.9375 56 38.25 53.625 
Q 42.578125 51.265625 45.40625 46.390625 
z
M 14.796875 27.296875 
Q 14.796875 17.390625 18.875 11.75 
Q 22.953125 6.109375 30.078125 6.109375 
Q 37.203125 6.109375 41.296875 11.75 
Q 45.40625 17.390625 45.40625 27.296875 
Q 45.40625 37.203125 41.296875 42.84375 
Q 37.203125 48.484375 30.078125 48.484375 
Q 22.953125 48.484375 18.875 42.84375 
Q 14.796875 37.203125 14.796875 27.296875 
z
" id="DejaVuSans-100"/>
     </defs>
     <g transform="translate(102.024844 357.832125)scale(0.3 -0.3)">
      <use xlink:href="#DejaVuSans-80"/>
      <use x="60.255859" xlink:href="#DejaVuSans-111"/>
      <use x="121.4375" xlink:href="#DejaVuSans-115"/>
      <use x="173.537109" xlink:href="#DejaVuSans-105"/>
      <use x="201.320312" xlink:href="#DejaVuSans-116"/>
      <use x="240.529297" xlink:href="#DejaVuSans-105"/>
      <use x="268.3125" xlink:href="#DejaVuSans-111"/>
      <use x="329.494141" xlink:href="#DejaVuSans-110"/>
      <use x="392.873047" xlink:href="#DejaVuSans-32"/>
      <use x="424.660156" xlink:href="#DejaVuSans-105"/>
      <use x="452.443359" xlink:href="#DejaVuSans-110"/>
      <use x="515.822266" xlink:href="#DejaVuSans-32"/>
      <use x="547.609375" xlink:href="#DejaVuSans-82"/>
      <use x="617.060547" xlink:href="#DejaVuSans-97"/>
      <use x="678.339844" xlink:href="#DejaVuSans-100"/>
      <use x="741.816406" xlink:href="#DejaVuSans-105"/>
      <use x="769.599609" xlink:href="#DejaVuSans-97"/>
      <use x="830.878906" xlink:href="#DejaVuSans-110"/>
     </g>
    </g>
   </g>
   <g id="matplotlib.axis_2">
    <g id="ytick_1">
     <g id="line2d_8">
      <defs>
       <path d="M 0 0 
L -3.5 0 
" id="m9237f7c674" style="stroke:#000000;stroke-width:0.8;"/>
      </defs>
      <g>
       <use style="stroke:#000000;stroke-width:0.8;" x="57.6" xlink:href="#m9237f7c674" y="307.584"/>
      </g>
     </g>
     <g id="text_9">
      <!-- 0.0 -->
      <defs>
       <path d="M 10.6875 12.40625 
L 21 12.40625 
L 21 0 
L 10.6875 0 
z
" id="DejaVuSans-46"/>
      </defs>
      <g transform="translate(23.564687 314.042672)scale(0.17 -0.17)">
       <use xlink:href="#DejaVuSans-48"/>
       <use x="63.623047" xlink:href="#DejaVuSans-46"/>
       <use x="95.410156" xlink:href="#DejaVuSans-48"/>
      </g>
     </g>
    </g>
    <g id="ytick_2">
     <g id="line2d_9">
      <g>
       <use style="stroke:#000000;stroke-width:0.8;" x="57.6" xlink:href="#m9237f7c674" y="268.667184"/>
      </g>
     </g>
     <g id="text_10">
      <!-- 0.2 -->
      <g transform="translate(23.564687 275.125856)scale(0.17 -0.17)">
       <use xlink:href="#DejaVuSans-48"/>
       <use x="63.623047" xlink:href="#DejaVuSans-46"/>
       <use x="95.410156" xlink:href="#DejaVuSans-50"/>
      </g>
     </g>
    </g>
    <g id="ytick_3">
     <g id="line2d_10">
      <g>
       <use style="stroke:#000000;stroke-width:0.8;" x="57.6" xlink:href="#m9237f7c674" y="229.750368"/>
      </g>
     </g>
     <g id="text_11">
      <!-- 0.4 -->
      <defs>
       <path d="M 37.796875 64.3125 
L 12.890625 25.390625 
L 37.796875 25.390625 
z
M 35.203125 72.90625 
L 47.609375 72.90625 
L 47.609375 25.390625 
L 58.015625 25.390625 
L 58.015625 17.1875 
L 47.609375 17.1875 
L 47.609375 0 
L 37.796875 0 
L 37.796875 17.1875 
L 4.890625 17.1875 
L 4.890625 26.703125 
z
" id="DejaVuSans-52"/>
      </defs>
      <g transform="translate(23.564687 236.20904)scale(0.17 -0.17)">
       <use xlink:href="#DejaVuSans-48"/>
       <use x="63.623047" xlink:href="#DejaVuSans-46"/>
       <use x="95.410156" xlink:href="#DejaVuSans-52"/>
      </g>
     </g>
    </g>
    <g id="ytick_4">
     <g id="line2d_11">
      <g>
       <use style="stroke:#000000;stroke-width:0.8;" x="57.6" xlink:href="#m9237f7c674" y="190.833552"/>
      </g>
     </g>
     <g id="text_12">
      <!-- 0.6 -->
      <defs>
       <path d="M 33.015625 40.375 
Q 26.375 40.375 22.484375 35.828125 
Q 18.609375 31.296875 18.609375 23.390625 
Q 18.609375 15.53125 22.484375 10.953125 
Q 26.375 6.390625 33.015625 6.390625 
Q 39.65625 6.390625 43.53125 10.953125 
Q 47.40625 15.53125 47.40625 23.390625 
Q 47.40625 31.296875 43.53125 35.828125 
Q 39.65625 40.375 33.015625 40.375 
z
M 52.59375 71.296875 
L 52.59375 62.3125 
Q 48.875 64.0625 45.09375 64.984375 
Q 41.3125 65.921875 37.59375 65.921875 
Q 27.828125 65.921875 22.671875 59.328125 
Q 17.53125 52.734375 16.796875 39.40625 
Q 19.671875 43.65625 24.015625 45.921875 
Q 28.375 48.1875 33.59375 48.1875 
Q 44.578125 48.1875 50.953125 41.515625 
Q 57.328125 34.859375 57.328125 23.390625 
Q 57.328125 12.15625 50.6875 5.359375 
Q 44.046875 -1.421875 33.015625 -1.421875 
Q 20.359375 -1.421875 13.671875 8.265625 
Q 6.984375 17.96875 6.984375 36.375 
Q 6.984375 53.65625 15.1875 63.9375 
Q 23.390625 74.21875 37.203125 74.21875 
Q 40.921875 74.21875 44.703125 73.484375 
Q 48.484375 72.75 52.59375 71.296875 
z
" id="DejaVuSans-54"/>
      </defs>
      <g transform="translate(23.564687 197.292224)scale(0.17 -0.17)">
       <use xlink:href="#DejaVuSans-48"/>
       <use x="63.623047" xlink:href="#DejaVuSans-46"/>
       <use x="95.410156" xlink:href="#DejaVuSans-54"/>
      </g>
     </g>
    </g>
    <g id="ytick_5">
     <g id="line2d_12">
      <g>
       <use style="stroke:#000000;stroke-width:0.8;" x="57.6" xlink:href="#m9237f7c674" y="151.916736"/>
      </g>
     </g>
     <g id="text_13">
      <!-- 0.8 -->
      <defs>
       <path d="M 31.78125 34.625 
Q 24.75 34.625 20.71875 30.859375 
Q 16.703125 27.09375 16.703125 20.515625 
Q 16.703125 13.921875 20.71875 10.15625 
Q 24.75 6.390625 31.78125 6.390625 
Q 38.8125 6.390625 42.859375 10.171875 
Q 46.921875 13.96875 46.921875 20.515625 
Q 46.921875 27.09375 42.890625 30.859375 
Q 38.875 34.625 31.78125 34.625 
z
M 21.921875 38.8125 
Q 15.578125 40.375 12.03125 44.71875 
Q 8.5 49.078125 8.5 55.328125 
Q 8.5 64.0625 14.71875 69.140625 
Q 20.953125 74.21875 31.78125 74.21875 
Q 42.671875 74.21875 48.875 69.140625 
Q 55.078125 64.0625 55.078125 55.328125 
Q 55.078125 49.078125 51.53125 44.71875 
Q 48 40.375 41.703125 38.8125 
Q 48.828125 37.15625 52.796875 32.3125 
Q 56.78125 27.484375 56.78125 20.515625 
Q 56.78125 9.90625 50.3125 4.234375 
Q 43.84375 -1.421875 31.78125 -1.421875 
Q 19.734375 -1.421875 13.25 4.234375 
Q 6.78125 9.90625 6.78125 20.515625 
Q 6.78125 27.484375 10.78125 32.3125 
Q 14.796875 37.15625 21.921875 38.8125 
z
M 18.3125 54.390625 
Q 18.3125 48.734375 21.84375 45.5625 
Q 25.390625 42.390625 31.78125 42.390625 
Q 38.140625 42.390625 41.71875 45.5625 
Q 45.3125 48.734375 45.3125 54.390625 
Q 45.3125 60.0625 41.71875 63.234375 
Q 38.140625 66.40625 31.78125 66.40625 
Q 25.390625 66.40625 21.84375 63.234375 
Q 18.3125 60.0625 18.3125 54.390625 
z
" id="DejaVuSans-56"/>
      </defs>
      <g transform="translate(23.564687 158.375408)scale(0.17 -0.17)">
       <use xlink:href="#DejaVuSans-48"/>
       <use x="63.623047" xlink:href="#DejaVuSans-46"/>
       <use x="95.410156" xlink:href="#DejaVuSans-56"/>
      </g>
     </g>
    </g>
    <g id="ytick_6">
     <g id="line2d_13">
      <g>
       <use style="stroke:#000000;stroke-width:0.8;" x="57.6" xlink:href="#m9237f7c674" y="112.99992"/>
      </g>
     </g>
     <g id="text_14">
      <!-- 1.0 -->
      <g transform="translate(23.564687 119.458592)scale(0.17 -0.17)">
       <use xlink:href="#DejaVuSans-49"/>
       <use x="63.623047" xlink:href="#DejaVuSans-46"/>
       <use x="95.410156" xlink:href="#DejaVuSans-48"/>
      </g>
     </g>
    </g>
    <g id="ytick_7">
     <g id="line2d_14">
      <g>
       <use style="stroke:#000000;stroke-width:0.8;" x="57.6" xlink:href="#m9237f7c674" y="74.083104"/>
      </g>
     </g>
     <g id="text_15">
      <!-- 1.2 -->
      <g transform="translate(23.564687 80.541776)scale(0.17 -0.17)">
       <use xlink:href="#DejaVuSans-49"/>
       <use x="63.623047" xlink:href="#DejaVuSans-46"/>
       <use x="95.410156" xlink:href="#DejaVuSans-50"/>
      </g>
     </g>
    </g>
    <g id="text_16">
     <!-- Density -->
     <defs>
      <path d="M 19.671875 64.796875 
L 19.671875 8.109375 
L 31.59375 8.109375 
Q 46.6875 8.109375 53.6875 14.9375 
Q 60.6875 21.78125 60.6875 36.53125 
Q 60.6875 51.171875 53.6875 57.984375 
Q 46.6875 64.796875 31.59375 64.796875 
z
M 9.8125 72.90625 
L 30.078125 72.90625 
Q 51.265625 72.90625 61.171875 64.09375 
Q 71.09375 55.28125 71.09375 36.53125 
Q 71.09375 17.671875 61.125 8.828125 
Q 51.171875 0 30.078125 0 
L 9.8125 0 
z
" id="DejaVuSans-68"/>
      <path d="M 56.203125 29.59375 
L 56.203125 25.203125 
L 14.890625 25.203125 
Q 15.484375 15.921875 20.484375 11.0625 
Q 25.484375 6.203125 34.421875 6.203125 
Q 39.59375 6.203125 44.453125 7.46875 
Q 49.3125 8.734375 54.109375 11.28125 
L 54.109375 2.78125 
Q 49.265625 0.734375 44.1875 -0.34375 
Q 39.109375 -1.421875 33.890625 -1.421875 
Q 20.796875 -1.421875 13.15625 6.1875 
Q 5.515625 13.8125 5.515625 26.8125 
Q 5.515625 40.234375 12.765625 48.109375 
Q 20.015625 56 32.328125 56 
Q 43.359375 56 49.78125 48.890625 
Q 56.203125 41.796875 56.203125 29.59375 
z
M 47.21875 32.234375 
Q 47.125 39.59375 43.09375 43.984375 
Q 39.0625 48.390625 32.421875 48.390625 
Q 24.90625 48.390625 20.390625 44.140625 
Q 15.875 39.890625 15.1875 32.171875 
z
" id="DejaVuSans-101"/>
      <path d="M 32.171875 -5.078125 
Q 28.375 -14.84375 24.75 -17.8125 
Q 21.140625 -20.796875 15.09375 -20.796875 
L 7.90625 -20.796875 
L 7.90625 -13.28125 
L 13.1875 -13.28125 
Q 16.890625 -13.28125 18.9375 -11.515625 
Q 21 -9.765625 23.484375 -3.21875 
L 25.09375 0.875 
L 2.984375 54.6875 
L 12.5 54.6875 
L 29.59375 11.921875 
L 46.6875 54.6875 
L 56.203125 54.6875 
z
" id="DejaVuSans-121"/>
     </defs>
     <g transform="translate(13.325625 231.553781)rotate(-90)scale(0.3 -0.3)">
      <use xlink:href="#DejaVuSans-68"/>
      <use x="77.001953" xlink:href="#DejaVuSans-101"/>
      <use x="138.525391" xlink:href="#DejaVuSans-110"/>
      <use x="201.904297" xlink:href="#DejaVuSans-115"/>
      <use x="254.003906" xlink:href="#DejaVuSans-105"/>
      <use x="281.787109" xlink:href="#DejaVuSans-116"/>
      <use x="320.996094" xlink:href="#DejaVuSans-121"/>
     </g>
    </g>
   </g>
   <g id="line2d_15">
    <path clip-path="url(#p1aa32ca56b)" d="M 103.293315 307.516549 
L 103.973592 307.581729 
L 105.047153 307.485117 
L 105.578619 307.175396 
L 106.088827 306.945844 
L 107.056095 306.80919 
L 107.619449 305.999639 
L 108.07651 305.577096 
L 108.788674 305.276086 
L 109.065037 305.399744 
L 109.649649 305.753515 
L 109.862236 305.536073 
L 110.606288 304.580515 
L 110.840133 304.780195 
L 111.297194 305.166813 
L 111.488522 305.030375 
L 111.786143 304.466329 
L 112.232575 303.735873 
L 112.423902 303.764401 
L 112.657747 304.080775 
L 114.092706 306.48627 
L 114.677318 307.208799 
L 114.985569 307.263615 
L 115.346966 307.065919 
L 116.420527 306.38608 
L 116.8457 306.313076 
L 117.770451 306.407147 
L 118.525133 305.845081 
L 118.780237 306.095068 
L 119.322332 306.66296 
L 119.50303 306.548102 
L 119.736876 306.079556 
L 120.236454 304.403722 
L 120.863584 302.668215 
L 121.671412 300.975823 
L 121.841481 301.00841 
L 122.02218 301.322534 
L 122.298542 302.331659 
L 123.212664 306.049627 
L 123.372104 306.036974 
L 123.552802 305.711941 
L 123.914199 304.457287 
L 124.392518 303.06328 
L 124.722027 302.720514 
L 125.200347 302.579812 
L 125.912511 302.42644 
L 126.178244 302.000453 
L 126.614047 300.769485 
L 127.060478 299.755724 
L 127.326211 299.611854 
L 127.591944 299.734681 
L 128.027746 300.227507 
L 128.633618 300.859859 
L 128.920609 300.854609 
L 129.303265 300.569691 
L 129.749697 300.321993 
L 130.079206 300.412461 
L 130.610672 300.816289 
L 131.227172 301.334777 
L 131.407871 301.117855 
L 131.716121 300.274054 
L 132.109406 299.394808 
L 132.290104 299.385412 
L 132.523949 299.672703 
L 133.852615 302.037059 
L 134.150236 302.420324 
L 134.320305 302.336684 
L 134.586038 301.86537 
L 135.755263 299.053645 
L 136.169807 297.903498 
L 136.329247 297.899592 
L 136.499316 298.224533 
L 136.850083 299.553373 
L 137.296515 300.94454 
L 137.551619 301.161784 
L 137.764205 301.069534 
L 138.561404 300.504459 
L 138.795249 300.820696 
L 139.273569 301.975683 
L 139.858181 303.147208 
L 140.219578 303.451802 
L 140.464053 303.403358 
L 140.719156 303.092232 
L 141.675795 301.66098 
L 141.92027 301.802116 
L 142.600546 302.326311 
L 142.781245 302.051165 
L 143.046978 301.143894 
L 143.80166 298.365131 
L 144.131169 298.036606 
L 144.705152 297.816014 
L 144.928368 297.974338 
L 145.20473 298.517382 
L 145.757455 299.608781 
L 145.916895 299.549517 
L 146.108223 299.165219 
L 146.416473 297.944003 
L 147.128637 295.021138 
L 147.351853 294.871757 
L 147.649474 295.042613 
L 147.87269 295.036179 
L 148.095906 294.745465 
L 148.531708 294.185247 
L 148.680518 294.327253 
L 148.893105 294.923485 
L 149.722192 297.664332 
L 149.732821 297.660755 
L 149.860373 297.490179 
L 150.06233 296.737176 
L 150.413098 294.353084 
L 150.902047 291.3824 
L 151.082745 291.158451 
L 151.093374 291.163382 
L 151.220926 291.367293 
L 151.454771 292.279863 
L 151.996867 294.388878 
L 152.124419 294.383011 
L 152.135048 294.370413 
L 152.294488 293.96611 
L 152.592109 292.407427 
L 153.070428 290.135889 
L 153.272385 289.964347 
L 153.442454 290.144273 
L 153.995179 290.84039 
L 154.175878 290.693331 
L 154.462869 290.094963 
L 155.281327 288.231194 
L 155.419508 288.349724 
L 155.610836 288.895871 
L 156.599363 292.385618 
L 156.992648 292.880698 
L 157.502855 293.634029 
L 157.641036 293.463917 
L 157.842994 292.760357 
L 158.268166 290.194369 
L 158.661451 288.448579 
L 158.863408 288.284049 
L 159.022848 288.478102 
L 159.607461 289.438266 
L 159.62872 289.423111 
L 159.77753 289.15035 
L 160.011375 288.143729 
L 160.457807 284.956112 
L 161.074307 281.020032 
L 161.35067 280.367398 
L 161.488851 280.404143 
L 161.669549 280.788219 
L 162.360455 282.531618 
L 162.530524 282.366327 
L 162.881292 282.031541 
L 163.019473 282.259317 
L 163.23206 283.176797 
L 163.891078 286.338769 
L 164.018629 286.300024 
L 164.209957 285.895075 
L 164.773311 284.647903 
L 165.368553 283.9112 
L 166.229528 282.234863 
L 166.51652 281.827125 
L 166.750365 280.982467 
L 167.079874 278.754016 
L 167.738892 274.270854 
L 167.951478 273.968654 
L 168.07903 274.136508 
L 168.280987 274.897321 
L 168.642384 277.347708 
L 169.258885 281.302676 
L 169.556506 281.971468 
L 169.80098 282.056798 
L 170.056084 281.893294 
L 170.321817 281.432245 
L 170.980835 280.042235 
L 171.012723 280.062763 
L 171.172163 280.357977 
L 171.714258 281.785156 
L 171.767405 281.732765 
L 171.905586 281.315057 
L 172.15006 279.705001 
L 172.745302 275.66655 
L 172.883484 275.531311 
L 172.915372 275.552649 
L 173.053553 275.840621 
L 173.383062 277.237694 
L 173.744459 278.348691 
L 173.935787 278.414582 
L 174.159002 278.183489 
L 174.764874 277.532947 
L 175.126271 277.433642 
L 175.306969 277.622153 
L 175.530185 278.248292 
L 176.167944 280.344782 
L 176.189203 280.336984 
L 176.316755 280.133 
L 176.561229 279.175468 
L 177.092695 277.173897 
L 177.443463 276.000174 
L 177.730454 273.937768 
L 178.708352 265.849565 
L 178.804016 265.940105 
L 178.952826 266.578809 
L 179.229189 269.018993 
L 179.771284 273.617388 
L 179.941353 273.900648 
L 179.962612 273.891019 
L 180.090164 273.6514 
L 180.345267 272.521246 
L 181.036173 269.416581 
L 181.418829 267.652006 
L 181.844002 264.268954 
L 182.301063 261.201967 
L 182.49239 260.913621 
L 182.50302 260.917107 
L 182.630572 261.098651 
L 182.875046 261.962983 
L 183.74665 266.263552 
L 184.969022 273.64472 
L 185.170979 273.768409 
L 185.31979 273.561979 
L 185.564264 272.752241 
L 186.393351 269.70741 
L 186.701602 269.470665 
L 187.722017 269.141608 
L 188.274741 269.337454 
L 188.444811 268.9507 
L 188.668026 267.768565 
L 189.029423 264.382704 
L 189.677812 258.523211 
L 190.071097 256.876303 
L 190.33683 256.472793 
L 190.464382 256.557005 
L 190.634451 257.013406 
L 190.921442 258.582914 
L 191.665495 262.840654 
L 192.143814 264.189456 
L 192.313884 264.278263 
L 192.324513 264.269967 
L 192.452065 264.006471 
L 192.643393 262.947441 
L 192.941014 259.730478 
L 193.600032 252.469111 
L 193.791359 252.062138 
L 193.801989 252.065766 
L 193.908282 252.235134 
L 194.120868 253.141112 
L 194.662964 255.561404 
L 194.758628 255.463165 
L 194.907438 254.795642 
L 195.173171 252.301928 
L 195.630232 248.348849 
L 195.736525 248.202402 
L 195.779042 248.240415 
L 195.917224 248.681132 
L 196.44869 250.920725 
L 196.491207 250.887136 
L 196.618759 250.500882 
L 196.852604 248.880713 
L 197.341553 245.563672 
L 197.415958 245.531174 
L 197.447846 245.573012 
L 197.575398 246.074721 
L 197.809243 248.174894 
L 198.553295 255.407738 
L 198.819028 256.102286 
L 198.999727 256.134781 
L 199.201684 255.885833 
L 199.988254 254.280358 
L 200.243358 253.070093 
L 201.072445 248.497973 
L 201.444471 247.886373 
L 201.657057 246.70366 
L 202.39048 241.457012 
L 202.443627 241.507772 
L 202.571179 241.962817 
L 202.8688 244.142755 
L 203.208938 245.964307 
L 203.304602 246.008866 
L 203.33649 245.974434 
L 203.474671 245.574826 
L 203.772292 243.841284 
L 204.558862 237.762825 
L 205.547389 229.357451 
L 205.621794 229.412958 
L 205.632424 229.437989 
L 205.759975 230.088841 
L 205.983191 232.721334 
L 206.695356 242.145943 
L 206.748502 242.171174 
L 206.79102 242.106569 
L 206.929201 241.456906 
L 207.715771 236.844065 
L 208.342901 236.291691 
L 208.789332 235.617829 
L 209.033807 235.646105 
L 209.278281 235.623368 
L 209.458979 235.313436 
L 209.7566 234.206825 
L 210.139256 233.047904 
L 210.288066 233.054715 
L 210.532541 233.433892 
L 210.734498 233.572061 
L 210.745127 233.564735 
L 210.872679 233.325203 
L 211.074636 232.358509 
L 211.765542 228.419067 
L 211.786801 228.426403 
L 211.882465 228.616994 
L 212.052534 229.578021 
L 212.392672 233.158737 
L 212.860362 237.384693 
L 213.05169 237.787922 
L 213.062319 237.785082 
L 213.168613 237.625107 
L 213.37057 236.796618 
L 213.9977 234.034324 
L 214.284691 233.809157 
L 214.476019 233.512127 
L 214.709864 232.59654 
L 215.347624 229.827286 
L 215.453917 229.920094 
L 215.613357 230.516347 
L 215.87909 232.611068 
L 216.463702 237.337541 
L 216.569996 237.440327 
L 216.612513 237.404482 
L 216.761323 237.018223 
L 217.28216 235.530175 
L 217.473488 235.56104 
L 217.76048 235.59814 
L 217.962437 235.335153 
L 218.770265 234.028237 
L 218.982852 233.602247 
L 219.237955 232.476496 
L 219.875715 229.474084 
L 220.088301 229.365472 
L 220.555991 229.571078 
L 220.768578 229.849822 
L 221.002423 230.620213 
L 221.374449 232.816571 
L 221.842139 235.186944 
L 221.959062 235.264919 
L 221.99095 235.233032 
L 222.118501 234.862918 
L 222.331088 233.405597 
L 222.735002 228.694098 
L 224.201848 210.830606 
L 224.276254 210.854279 
L 224.297512 210.891489 
L 224.435694 211.433196 
L 224.712056 213.668186 
L 225.371074 219.052202 
L 225.615548 219.538682 
L 226.168273 219.756053 
L 226.348971 219.723959 
L 226.497782 219.392966 
L 226.710368 218.223177 
L 227.082395 214.565296 
L 227.581973 210.279767 
L 227.752042 209.944449 
L 227.773301 209.958698 
L 227.879594 210.226855 
L 228.070922 211.510555 
L 228.804345 218.07252 
L 228.868121 217.983231 
L 228.995673 217.307455 
L 229.240147 214.52196 
L 229.962941 205.78922 
L 230.154269 205.272075 
L 230.164898 205.275649 
L 230.249932 205.438855 
L 230.398743 206.337599 
L 230.632588 209.35618 
L 231.408529 220.726891 
L 231.419158 220.725404 
L 231.493563 220.531549 
L 231.642374 219.212706 
L 231.908107 214.30368 
L 232.886004 194.115455 
L 232.992297 193.888115 
L 233.034815 193.949254 
L 233.151737 194.539803 
L 233.374953 197.108428 
L 234.119006 206.545109 
L 234.20404 206.623799 
L 234.246557 206.570956 
L 234.384739 206.024804 
L 234.607954 204.038112 
L 234.83117 199.895183 
L 235.043757 191.190798 
L 235.288231 170.258459 
L 235.638999 116.454093 
L 236.08543 56.36456 
L 236.170465 54.144 
L 236.223611 54.76918 
L 236.340534 61.42063 
L 236.574379 91.921388 
L 237.275914 189.584889 
L 237.584164 204.021188 
L 237.828639 207.59227 
L 237.913673 207.801088 
L 237.96682 207.713075 
L 238.094372 206.882341 
L 238.317588 203.545673 
L 238.668355 194.276392 
L 239.423037 173.543741 
L 239.518701 173.16022 
L 239.561218 173.247896 
L 239.667511 174.149053 
L 239.869469 178.194632 
L 240.804849 199.957521 
L 241.028065 200.819028 
L 241.134358 200.786143 
L 241.144987 200.770796 
L 241.325686 200.26652 
L 241.7296 199.105363 
L 241.740229 199.110971 
L 241.835893 199.320359 
L 241.995333 200.411667 
L 242.239807 203.988761 
L 243.037006 217.041034 
L 243.1433 217.213866 
L 243.185817 217.164899 
L 243.323998 216.633788 
L 244.068051 213.007594 
L 244.07868 213.009495 
L 244.23812 213.166299 
L 244.503853 213.376002 
L 244.620775 213.150739 
L 244.801474 212.160958 
L 245.088465 209.045357 
L 245.662449 202.970189 
L 245.821889 202.653635 
L 245.843147 202.663896 
L 245.96007 202.910368 
L 246.204544 204.140867 
L 246.714752 206.576537 
L 247.023002 206.995458 
L 247.2037 207.405347 
L 247.405658 208.569639 
L 247.68202 211.765767 
L 248.766211 226.103695 
L 248.978797 226.607848 
L 249.074461 226.450353 
L 249.233901 225.604115 
L 249.489005 222.790088 
L 250.286204 212.993244 
L 250.33935 212.966093 
L 250.381868 213.031507 
L 250.509419 213.680906 
L 250.743265 216.359348 
L 251.497946 225.832868 
L 251.668016 226.156411 
L 251.678645 226.151295 
L 251.784938 225.955094 
L 251.986895 224.984191 
L 252.412068 221.570732 
L 253.336819 214.254032 
L 253.591923 213.607941 
L 253.708845 213.683848 
L 253.857656 214.17927 
L 254.080872 215.851175 
L 254.442268 220.656298 
L 255.005623 227.683887 
L 255.303244 228.969201 
L 255.749675 230.32243 
L 256.026037 232.378079 
L 256.493728 238.031335 
L 256.92953 242.150997 
L 257.216521 243.07376 
L 257.918057 244.018902 
L 258.056238 243.956309 
L 258.226307 243.545717 
L 258.523928 242.075458 
L 258.927842 240.397855 
L 259.023506 240.402116 
L 259.044765 240.432688 
L 259.182946 240.907513 
L 259.406162 242.647532 
L 259.852593 248.359394 
L 260.447835 255.053016 
L 260.724198 256.220761 
L 260.851749 256.270089 
L 260.873008 256.252327 
L 261.032448 255.934642 
L 261.840276 253.957488 
L 262.09538 253.503072 
L 262.350484 252.4576 
L 263.211459 248.355381 
L 263.434675 248.235719 
L 263.626002 248.379754 
L 263.827959 248.861191 
L 264.061805 250.090652 
L 264.433831 253.555405 
L 264.880262 257.06133 
L 265.050331 257.329787 
L 265.060961 257.325133 
L 265.177883 257.129575 
L 265.411728 256.159365 
L 266.219557 252.518133 
L 266.432143 252.355825 
L 266.889204 252.337068 
L 267.059273 251.720773 
L 267.325006 249.69937 
L 267.952136 244.732304 
L 268.079688 244.598098 
L 268.111576 244.620714 
L 268.249757 244.93529 
L 268.664301 246.749742 
L 269.015068 247.671569 
L 269.514647 248.253243 
L 269.652828 248.192525 
L 269.801638 247.796872 
L 270.014225 246.46156 
L 270.779536 240.526261 
L 270.822053 240.558759 
L 270.938976 240.933261 
L 271.162191 242.614258 
L 272.033796 250.035232 
L 272.331417 250.583025 
L 272.554633 251.087201 
L 272.777848 252.323063 
L 273.096728 255.642619 
L 274.202177 268.263541 
L 274.46791 269.17608 
L 274.574204 269.121534 
L 274.712385 268.667665 
L 274.94623 266.972042 
L 275.392661 261.670786 
L 276.009162 255.142793 
L 276.657551 251.113548 
L 277.13587 248.978993 
L 277.29531 248.860455 
L 277.316569 248.87505 
L 277.45475 249.14189 
L 277.699224 250.236564 
L 278.198802 253.762966 
L 278.730268 259.039174 
L 279.208588 263.19299 
L 279.357398 263.466983 
L 279.389286 263.443342 
L 279.506209 263.117561 
L 279.729425 261.634675 
L 280.377813 257.008953 
L 280.452218 256.986777 
L 280.494736 257.041777 
L 280.632917 257.538485 
L 280.930538 259.704974 
L 281.355711 262.293812 
L 281.557668 262.545087 
L 281.706478 262.401023 
L 282.046617 261.627468 
L 283.109549 258.732167 
L 283.56661 257.127319 
L 283.672903 257.154068 
L 283.683532 257.169855 
L 283.821713 257.610774 
L 284.044929 259.269369 
L 284.427585 264.226566 
L 284.927163 269.96886 
L 285.065344 270.312294 
L 285.097232 270.290685 
L 285.203525 269.960825 
L 285.426741 268.276365 
L 285.90506 264.733351 
L 286.000724 264.645362 
L 286.043242 264.689712 
L 286.181423 265.155965 
L 286.457785 267.132758 
L 287.903373 278.702697 
L 288.243511 279.851519 
L 288.41358 279.913066 
L 288.57302 279.653883 
L 289.232038 278.059506 
L 289.306443 278.125097 
L 289.476513 278.562073 
L 289.784763 280.121106 
L 290.688255 284.883981 
L 291.049652 285.803562 
L 291.251609 285.87598 
L 291.442937 285.658117 
L 291.814963 284.788125 
L 292.622792 282.344622 
L 293.89831 277.809899 
L 294.068379 277.808228 
L 294.227819 278.11174 
L 294.461664 279.14739 
L 294.939984 282.64511 
L 295.354527 284.859299 
L 295.673407 285.489401 
L 295.960399 285.64138 
L 296.119839 285.484906 
L 296.300537 284.890733 
L 296.534382 283.196288 
L 296.938296 278.207722 
L 297.384728 273.724423 
L 297.586685 273.246348 
L 297.692978 273.375923 
L 297.905565 274.144161 
L 298.490177 276.310697 
L 299.138566 277.794797 
L 299.957024 280.606708 
L 300.105834 280.520165 
L 300.318421 280.03503 
L 300.690447 278.513777 
L 301.42387 275.522835 
L 301.647086 275.356414 
L 301.817155 275.516038 
L 302.093517 276.16352 
L 302.858828 278.112292 
L 303.007639 278.005849 
L 303.30526 277.383049 
L 303.560364 277.090593 
L 303.687916 277.228454 
L 303.879243 277.845286 
L 304.24064 279.962982 
L 304.835882 283.215304 
L 305.016581 283.41316 
L 305.02721 283.407582 
L 305.154762 283.185454 
L 305.356719 282.273955 
L 305.771263 279.06839 
L 306.164547 276.732079 
L 306.313358 276.555346 
L 306.334617 276.566773 
L 306.462168 276.811875 
L 306.717272 277.948719 
L 307.206221 279.9868 
L 307.450695 280.232682 
L 307.673911 280.148841 
L 308.014049 279.730906 
L 308.449852 279.249015 
L 308.598662 279.395752 
L 308.78999 279.992193 
L 309.09824 281.849884 
L 310.19306 289.124098 
L 310.469423 289.645128 
L 310.660751 289.62463 
L 310.915854 289.298096 
L 311.213475 288.538412 
L 311.479208 287.173863 
L 311.808717 284.135377 
L 312.775986 274.424384 
L 313.222417 272.465265 
L 313.435003 272.193955 
L 313.551926 272.358554 
L 313.732624 273.107644 
L 314.072763 275.730639 
L 314.721151 280.478486 
L 315.093178 281.761999 
L 315.305764 281.932233 
L 315.465204 281.776414 
L 315.730937 281.1042 
L 316.549395 278.132972 
L 317.112749 276.269832 
L 317.282818 276.22238 
L 317.442258 276.497842 
L 317.707991 277.518178 
L 318.430785 280.412826 
L 318.717776 280.726995 
L 318.983509 280.695346 
L 319.514975 280.568387 
L 319.727562 280.798778 
L 319.993295 281.479956 
L 320.38658 283.248536 
L 320.928675 285.487906 
L 321.141262 285.658388 
L 321.32196 285.48295 
L 321.80028 284.941412 
L 321.959719 285.13739 
L 322.204194 285.903387 
L 322.841953 288.974315 
L 323.330902 290.739294 
L 323.586006 291.027087 
L 323.766704 290.948219 
L 324.011178 290.532786 
L 324.425722 289.279901 
L 324.978447 287.796303 
L 325.254809 287.572548 
L 325.446137 287.674754 
L 325.658723 288.1083 
L 325.956344 289.323414 
L 326.530328 291.634087 
L 326.689768 291.658674 
L 326.859837 291.356444 
L 327.412561 290.226953 
L 327.550743 290.392603 
L 327.773958 291.118317 
L 328.464864 293.569648 
L 328.666821 293.603748 
L 329.177029 293.474872 
L 329.389615 293.85488 
L 330.239961 295.674676 
L 331.281634 296.112014 
L 331.557997 295.91635 
L 331.940652 295.330739 
L 332.939809 293.653526 
L 333.439387 293.22055 
L 333.758266 292.469175 
L 334.417284 290.874246 
L 334.778681 290.613272 
L 335.501475 290.358374 
L 335.682174 290.710675 
L 335.969165 291.884775 
L 336.37308 293.327347 
L 336.479373 293.300778 
L 336.490002 293.285315 
L 336.638813 292.82856 
L 336.925804 291.014447 
L 337.350977 288.712366 
L 337.45727 288.634241 
L 337.489158 288.661015 
L 337.61671 288.998933 
L 337.839926 290.389036 
L 338.40328 295.923875 
L 338.796565 298.559639 
L 339.03041 298.998773 
L 339.157962 298.883891 
L 339.34929 298.309617 
L 339.700057 296.396052 
L 340.646067 291.056391 
L 341.241309 288.974443 
L 341.400749 288.873137 
L 341.422007 288.888343 
L 341.560188 289.178131 
L 341.772775 290.291696 
L 342.665638 296.226907 
L 342.708155 296.20135 
L 342.835707 295.89332 
L 343.080181 294.556314 
L 343.632906 291.562816 
L 343.760458 291.496505 
L 343.781717 291.514748 
L 343.919898 291.818387 
L 344.20689 293.138929 
L 344.67458 295.040948 
L 344.908425 295.274888 
L 345.121011 295.180697 
L 345.524925 294.686667 
L 346.630375 293.229527 
L 346.811073 293.377326 
L 347.034289 293.902183 
L 347.374427 295.384616 
L 348.022816 298.19418 
L 348.224773 298.357683 
L 348.373584 298.18786 
L 348.618058 297.466255 
L 349.946723 292.7859 
L 350.371896 292.466619 
L 350.595112 292.514709 
L 350.797069 292.832276 
L 351.126578 293.883655 
L 351.541121 294.975224 
L 351.753708 295.049798 
L 352.444614 294.956371 
L 352.774123 294.996642 
L 353.039856 294.741557 
L 353.390623 294.478991 
L 353.571322 294.630233 
L 353.858314 295.261707 
L 354.336633 296.222567 
L 354.53859 296.24078 
L 354.772435 295.973301 
L 355.261384 295.407202 
L 355.431453 295.530913 
L 355.718445 296.109119 
L 356.1011 296.738861 
L 356.303058 296.724744 
L 356.813265 296.552269 
L 357.004593 296.869536 
L 357.302214 297.890933 
L 358.343887 301.891315 
L 358.598991 302.078669 
L 358.790319 301.953226 
L 359.056052 301.45065 
L 359.608777 299.775984 
L 360.225277 298.16685 
L 360.469752 297.986918 
L 360.65045 298.122927 
L 360.937442 298.704853 
L 361.415761 299.583365 
L 361.670865 299.642478 
L 362.404288 299.604475 
L 362.914496 299.677736 
L 363.244005 299.447973 
L 363.711695 299.142421 
L 363.903023 299.291417 
L 364.147497 299.821167 
L 364.742739 301.888521 
L 365.061619 302.514088 
L 365.242317 302.508441 
L 365.454903 302.209688 
L 366.262732 300.867036 
L 366.485948 300.907311 
L 366.709163 301.218725 
L 367.017414 302.10949 
L 367.889018 304.847814 
L 368.207898 305.11289 
L 368.505519 305.092941 
L 368.760622 304.852349 
L 369.015726 304.304636 
L 369.015726 304.304636 
" style="fill:none;stroke:#ff7f0e;stroke-linecap:square;stroke-width:1.5;"/>
   </g>
   <g id="patch_103">
    <path d="M 57.6 307.584 
L 57.6 41.472 
" style="fill:none;stroke:#000000;stroke-linecap:square;stroke-linejoin:miter;stroke-width:0.8;"/>
   </g>
   <g id="patch_104">
    <path d="M 414.72 307.584 
L 414.72 41.472 
" style="fill:none;stroke:#000000;stroke-linecap:square;stroke-linejoin:miter;stroke-width:0.8;"/>
   </g>
   <g id="patch_105">
    <path d="M 57.6 307.584 
L 414.72 307.584 
" style="fill:none;stroke:#000000;stroke-linecap:square;stroke-linejoin:miter;stroke-width:0.8;"/>
   </g>
   <g id="patch_106">
    <path d="M 57.6 41.472 
L 414.72 41.472 
" style="fill:none;stroke:#000000;stroke-linecap:square;stroke-linejoin:miter;stroke-width:0.8;"/>
   </g>
  </g>
 </g>
 <defs>
  <clipPath id="p1aa32ca56b">
   <rect height="266.112" width="357.12" x="57.6" y="41.472"/>
  </clipPath>
 </defs>
</svg>
