<?xml version="1.0" encoding="utf-8" standalone="no"?>
<!DOCTYPE svg PUBLIC "-//W3C//DTD SVG 1.1//EN"
  "http://www.w3.org/Graphics/SVG/1.1/DTD/svg11.dtd">
<!-- Created with matplotlib (https://matplotlib.org/) -->
<svg height="345.6pt" version="1.1" viewBox="0 0 460.8 345.6" width="460.8pt" xmlns="http://www.w3.org/2000/svg" xmlns:xlink="http://www.w3.org/1999/xlink">
 <defs>
  <style type="text/css">
*{stroke-linecap:butt;stroke-linejoin:round;}
  </style>
 </defs>
 <g id="figure_1">
  <g id="patch_1">
   <path d="M 0 345.6 
L 460.8 345.6 
L 460.8 0 
L 0 0 
z
" style="fill:#ffffff;"/>
  </g>
  <g id="axes_1">
   <g id="patch_2">
    <path d="M 57.6 307.584 
L 414.72 307.584 
L 414.72 41.472 
L 57.6 41.472 
z
" style="fill:#ffffff;"/>
   </g>
   <g id="patch_3">
    <path clip-path="url(#p7549dc32d2)" d="M 73.832727 307.584 
L 77.079276 307.584 
L 77.079276 306.942599 
L 73.832727 306.942599 
z
" style="fill:#1f77b4;"/>
   </g>
   <g id="patch_4">
    <path clip-path="url(#p7549dc32d2)" d="M 77.079276 307.584 
L 80.325824 307.584 
L 80.325824 307.3702 
L 77.079276 307.3702 
z
" style="fill:#1f77b4;"/>
   </g>
   <g id="patch_5">
    <path clip-path="url(#p7549dc32d2)" d="M 80.325812 307.584 
L 83.572347 307.584 
L 83.572347 306.514994 
L 80.325812 306.514994 
z
" style="fill:#1f77b4;"/>
   </g>
   <g id="patch_6">
    <path clip-path="url(#p7549dc32d2)" d="M 83.57236 307.584 
L 86.818909 307.584 
L 86.818909 307.584 
L 83.57236 307.584 
z
" style="fill:#1f77b4;"/>
   </g>
   <g id="patch_7">
    <path clip-path="url(#p7549dc32d2)" d="M 86.818909 307.584 
L 90.065457 307.584 
L 90.065457 307.3702 
L 86.818909 307.3702 
z
" style="fill:#1f77b4;"/>
   </g>
   <g id="patch_8">
    <path clip-path="url(#p7549dc32d2)" d="M 90.065457 307.584 
L 93.312006 307.584 
L 93.312006 307.3702 
L 90.065457 307.3702 
z
" style="fill:#1f77b4;"/>
   </g>
   <g id="patch_9">
    <path clip-path="url(#p7549dc32d2)" d="M 93.312006 307.584 
L 96.558541 307.584 
L 96.558541 306.728795 
L 93.312006 306.728795 
z
" style="fill:#1f77b4;"/>
   </g>
   <g id="patch_10">
    <path clip-path="url(#p7549dc32d2)" d="M 96.558541 307.584 
L 99.80509 307.584 
L 99.80509 305.873597 
L 96.558541 305.873597 
z
" style="fill:#1f77b4;"/>
   </g>
   <g id="patch_11">
    <path clip-path="url(#p7549dc32d2)" d="M 99.80509 307.584 
L 103.051638 307.584 
L 103.051638 307.3702 
L 99.80509 307.3702 
z
" style="fill:#1f77b4;"/>
   </g>
   <g id="patch_12">
    <path clip-path="url(#p7549dc32d2)" d="M 103.051638 307.584 
L 106.298187 307.584 
L 106.298187 307.3702 
L 103.051638 307.3702 
z
" style="fill:#1f77b4;"/>
   </g>
   <g id="patch_13">
    <path clip-path="url(#p7549dc32d2)" d="M 106.298174 307.584 
L 109.54471 307.584 
L 109.54471 306.301192 
L 106.298174 306.301192 
z
" style="fill:#1f77b4;"/>
   </g>
   <g id="patch_14">
    <path clip-path="url(#p7549dc32d2)" d="M 109.544723 307.584 
L 112.791271 307.584 
L 112.791271 305.232195 
L 109.544723 305.232195 
z
" style="fill:#1f77b4;"/>
   </g>
   <g id="patch_15">
    <path clip-path="url(#p7549dc32d2)" d="M 112.791271 307.584 
L 116.03782 307.584 
L 116.03782 306.514998 
L 112.791271 306.514998 
z
" style="fill:#1f77b4;"/>
   </g>
   <g id="patch_16">
    <path clip-path="url(#p7549dc32d2)" d="M 116.03782 307.584 
L 119.284368 307.584 
L 119.284368 306.514998 
L 116.03782 306.514998 
z
" style="fill:#1f77b4;"/>
   </g>
   <g id="patch_17">
    <path clip-path="url(#p7549dc32d2)" d="M 119.284368 307.584 
L 122.530904 307.584 
L 122.530904 303.735577 
L 119.284368 303.735577 
z
" style="fill:#1f77b4;"/>
   </g>
   <g id="patch_18">
    <path clip-path="url(#p7549dc32d2)" d="M 122.530904 307.584 
L 125.777453 307.584 
L 125.777453 304.804594 
L 122.530904 304.804594 
z
" style="fill:#1f77b4;"/>
   </g>
   <g id="patch_19">
    <path clip-path="url(#p7549dc32d2)" d="M 125.777453 307.584 
L 129.024001 307.584 
L 129.024001 301.169987 
L 125.777453 301.169987 
z
" style="fill:#1f77b4;"/>
   </g>
   <g id="patch_20">
    <path clip-path="url(#p7549dc32d2)" d="M 129.024001 307.584 
L 132.270543 307.584 
L 132.270543 300.956174 
L 129.024001 300.956174 
z
" style="fill:#1f77b4;"/>
   </g>
   <g id="patch_21">
    <path clip-path="url(#p7549dc32d2)" d="M 132.270543 307.584 
L 135.517092 307.584 
L 135.517092 302.45279 
L 132.270543 302.45279 
z
" style="fill:#1f77b4;"/>
   </g>
   <g id="patch_22">
    <path clip-path="url(#p7549dc32d2)" d="M 135.517085 307.584 
L 138.763627 307.584 
L 138.763627 300.314771 
L 135.517085 300.314771 
z
" style="fill:#1f77b4;"/>
   </g>
   <g id="patch_23">
    <path clip-path="url(#p7549dc32d2)" d="M 138.763634 307.584 
L 142.010182 307.584 
L 142.010182 303.094191 
L 138.763634 303.094191 
z
" style="fill:#1f77b4;"/>
   </g>
   <g id="patch_24">
    <path clip-path="url(#p7549dc32d2)" d="M 142.010182 307.584 
L 145.256724 307.584 
L 145.256724 300.314771 
L 142.010182 300.314771 
z
" style="fill:#1f77b4;"/>
   </g>
   <g id="patch_25">
    <path clip-path="url(#p7549dc32d2)" d="M 145.256724 307.584 
L 148.503273 307.584 
L 148.503273 298.176781 
L 145.256724 298.176781 
z
" style="fill:#1f77b4;"/>
   </g>
   <g id="patch_26">
    <path clip-path="url(#p7549dc32d2)" d="M 148.503267 307.584 
L 151.749809 307.584 
L 151.749809 294.96975 
L 148.503267 294.96975 
z
" style="fill:#1f77b4;"/>
   </g>
   <g id="patch_27">
    <path clip-path="url(#p7549dc32d2)" d="M 151.749815 307.584 
L 154.996364 307.584 
L 154.996364 291.976568 
L 151.749815 291.976568 
z
" style="fill:#1f77b4;"/>
   </g>
   <g id="patch_28">
    <path clip-path="url(#p7549dc32d2)" d="M 154.996364 307.584 
L 158.242912 307.584 
L 158.242912 291.762768 
L 154.996364 291.762768 
z
" style="fill:#1f77b4;"/>
   </g>
   <g id="patch_29">
    <path clip-path="url(#p7549dc32d2)" d="M 158.242912 307.584 
L 161.489454 307.584 
L 161.489454 287.272919 
L 158.242912 287.272919 
z
" style="fill:#1f77b4;"/>
   </g>
   <g id="patch_30">
    <path clip-path="url(#p7549dc32d2)" d="M 161.489454 307.584 
L 164.736003 307.584 
L 164.736003 283.21075 
L 161.489454 283.21075 
z
" style="fill:#1f77b4;"/>
   </g>
   <g id="patch_31">
    <path clip-path="url(#p7549dc32d2)" d="M 164.735996 307.584 
L 167.982539 307.584 
L 167.982539 282.5693 
L 164.735996 282.5693 
z
" style="fill:#1f77b4;"/>
   </g>
   <g id="patch_32">
    <path clip-path="url(#p7549dc32d2)" d="M 167.982545 307.584 
L 171.229093 307.584 
L 171.229093 282.355549 
L 167.982545 282.355549 
z
" style="fill:#1f77b4;"/>
   </g>
   <g id="patch_33">
    <path clip-path="url(#p7549dc32d2)" d="M 171.229093 307.584 
L 174.475636 307.584 
L 174.475636 280.217491 
L 171.229093 280.217491 
z
" style="fill:#1f77b4;"/>
   </g>
   <g id="patch_34">
    <path clip-path="url(#p7549dc32d2)" d="M 174.475636 307.584 
L 177.722184 307.584 
L 177.722184 281.500347 
L 174.475636 281.500347 
z
" style="fill:#1f77b4;"/>
   </g>
   <g id="patch_35">
    <path clip-path="url(#p7549dc32d2)" d="M 177.722178 307.584 
L 180.96872 307.584 
L 180.96872 271.237855 
L 177.722178 271.237855 
z
" style="fill:#1f77b4;"/>
   </g>
   <g id="patch_36">
    <path clip-path="url(#p7549dc32d2)" d="M 180.968726 307.584 
L 184.215272 307.584 
L 184.215272 266.106675 
L 180.968726 266.106675 
z
" style="fill:#1f77b4;"/>
   </g>
   <g id="patch_37">
    <path clip-path="url(#p7549dc32d2)" d="M 184.215268 307.584 
L 187.461814 307.584 
L 187.461814 272.948296 
L 184.215268 272.948296 
z
" style="fill:#1f77b4;"/>
   </g>
   <g id="patch_38">
    <path clip-path="url(#p7549dc32d2)" d="M 187.461817 307.584 
L 190.708362 307.584 
L 190.708362 267.389479 
L 187.461817 267.389479 
z
" style="fill:#1f77b4;"/>
   </g>
   <g id="patch_39">
    <path clip-path="url(#p7549dc32d2)" d="M 190.708359 307.584 
L 193.954904 307.584 
L 193.954904 265.251473 
L 190.708359 265.251473 
z
" style="fill:#1f77b4;"/>
   </g>
   <g id="patch_40">
    <path clip-path="url(#p7549dc32d2)" d="M 193.954908 307.584 
L 197.201456 307.584 
L 197.201456 254.989093 
L 193.954908 254.989093 
z
" style="fill:#1f77b4;"/>
   </g>
   <g id="patch_41">
    <path clip-path="url(#p7549dc32d2)" d="M 197.201456 307.584 
L 200.448001 307.584 
L 200.448001 255.630444 
L 197.201456 255.630444 
z
" style="fill:#1f77b4;"/>
   </g>
   <g id="patch_42">
    <path clip-path="url(#p7549dc32d2)" d="M 200.447998 307.584 
L 203.694544 307.584 
L 203.694544 248.788823 
L 200.447998 248.788823 
z
" style="fill:#1f77b4;"/>
   </g>
   <g id="patch_43">
    <path clip-path="url(#p7549dc32d2)" d="M 203.694547 307.584 
L 206.941092 307.584 
L 206.941092 239.809196 
L 203.694547 239.809196 
z
" style="fill:#1f77b4;"/>
   </g>
   <g id="patch_44">
    <path clip-path="url(#p7549dc32d2)" d="M 206.941092 307.584 
L 210.187636 307.584 
L 210.187636 238.740159 
L 206.941092 238.740159 
z
" style="fill:#1f77b4;"/>
   </g>
   <g id="patch_45">
    <path clip-path="url(#p7549dc32d2)" d="M 210.187636 307.584 
L 213.434181 307.584 
L 213.434181 234.891781 
L 210.187636 234.891781 
z
" style="fill:#1f77b4;"/>
   </g>
   <g id="patch_46">
    <path clip-path="url(#p7549dc32d2)" d="M 213.43418 307.584 
L 216.680726 307.584 
L 216.680726 235.960819 
L 213.43418 235.960819 
z
" style="fill:#1f77b4;"/>
   </g>
   <g id="patch_47">
    <path clip-path="url(#p7549dc32d2)" d="M 216.680728 307.584 
L 219.927273 307.584 
L 219.927273 233.181376 
L 216.680728 233.181376 
z
" style="fill:#1f77b4;"/>
   </g>
   <g id="patch_48">
    <path clip-path="url(#p7549dc32d2)" d="M 219.927273 307.584 
L 223.173818 307.584 
L 223.173818 232.753756 
L 219.927273 232.753756 
z
" style="fill:#1f77b4;"/>
   </g>
   <g id="patch_49">
    <path clip-path="url(#p7549dc32d2)" d="M 223.173819 307.584 
L 226.420365 307.584 
L 226.420365 216.291147 
L 223.173819 216.291147 
z
" style="fill:#1f77b4;"/>
   </g>
   <g id="patch_50">
    <path clip-path="url(#p7549dc32d2)" d="M 226.420364 307.584 
L 229.666909 307.584 
L 229.666909 211.159898 
L 226.420364 211.159898 
z
" style="fill:#1f77b4;"/>
   </g>
   <g id="patch_51">
    <path clip-path="url(#p7549dc32d2)" d="M 229.666909 307.584 
L 232.913454 307.584 
L 232.913454 205.173498 
L 229.666909 205.173498 
z
" style="fill:#1f77b4;"/>
   </g>
   <g id="patch_52">
    <path clip-path="url(#p7549dc32d2)" d="M 232.913454 307.584 
L 236.16 307.584 
L 236.16 143.385116 
L 232.913454 143.385116 
z
" style="fill:#1f77b4;"/>
   </g>
   <g id="patch_53">
    <path clip-path="url(#p7549dc32d2)" d="M 236.16 307.584 
L 239.406546 307.584 
L 239.406546 203.676894 
L 236.16 203.676894 
z
" style="fill:#1f77b4;"/>
   </g>
   <g id="patch_54">
    <path clip-path="url(#p7549dc32d2)" d="M 239.406546 307.584 
L 242.653091 307.584 
L 242.653091 194.055865 
L 239.406546 194.055865 
z
" style="fill:#1f77b4;"/>
   </g>
   <g id="patch_55">
    <path clip-path="url(#p7549dc32d2)" d="M 242.653091 307.584 
L 245.899636 307.584 
L 245.899636 211.8013 
L 242.653091 211.8013 
z
" style="fill:#1f77b4;"/>
   </g>
   <g id="patch_56">
    <path clip-path="url(#p7549dc32d2)" d="M 245.899636 307.584 
L 249.146182 307.584 
L 249.146182 213.297939 
L 245.899636 213.297939 
z
" style="fill:#1f77b4;"/>
   </g>
   <g id="patch_57">
    <path clip-path="url(#p7549dc32d2)" d="M 249.146181 307.584 
L 252.392727 307.584 
L 252.392727 217.573907 
L 249.146181 217.573907 
z
" style="fill:#1f77b4;"/>
   </g>
   <g id="patch_58">
    <path clip-path="url(#p7549dc32d2)" d="M 252.392727 307.584 
L 255.639272 307.584 
L 255.639272 217.78773 
L 252.392727 217.78773 
z
" style="fill:#1f77b4;"/>
   </g>
   <g id="patch_59">
    <path clip-path="url(#p7549dc32d2)" d="M 255.639272 307.584 
L 258.885819 307.584 
L 258.885819 232.11241 
L 255.639272 232.11241 
z
" style="fill:#1f77b4;"/>
   </g>
   <g id="patch_60">
    <path clip-path="url(#p7549dc32d2)" d="M 258.885819 307.584 
L 262.132364 307.584 
L 262.132364 244.085209 
L 258.885819 244.085209 
z
" style="fill:#1f77b4;"/>
   </g>
   <g id="patch_61">
    <path clip-path="url(#p7549dc32d2)" d="M 262.132366 307.584 
L 265.378911 307.584 
L 265.378911 244.940381 
L 262.132366 244.940381 
z
" style="fill:#1f77b4;"/>
   </g>
   <g id="patch_62">
    <path clip-path="url(#p7549dc32d2)" d="M 265.378905 307.584 
L 268.62545 307.584 
L 268.62545 243.657608 
L 265.378905 243.657608 
z
" style="fill:#1f77b4;"/>
   </g>
   <g id="patch_63">
    <path clip-path="url(#p7549dc32d2)" d="M 268.625453 307.584 
L 271.871999 307.584 
L 271.871999 243.657608 
L 268.625453 243.657608 
z
" style="fill:#1f77b4;"/>
   </g>
   <g id="patch_64">
    <path clip-path="url(#p7549dc32d2)" d="M 271.871995 307.584 
L 275.118541 307.584 
L 275.118541 256.058045 
L 271.871995 256.058045 
z
" style="fill:#1f77b4;"/>
   </g>
   <g id="patch_65">
    <path clip-path="url(#p7549dc32d2)" d="M 275.118544 307.584 
L 278.365092 307.584 
L 278.365092 250.071683 
L 275.118544 250.071683 
z
" style="fill:#1f77b4;"/>
   </g>
   <g id="patch_66">
    <path clip-path="url(#p7549dc32d2)" d="M 278.365092 307.584 
L 281.611638 307.584 
L 281.611638 253.492437 
L 278.365092 253.492437 
z
" style="fill:#1f77b4;"/>
   </g>
   <g id="patch_67">
    <path clip-path="url(#p7549dc32d2)" d="M 281.611635 307.584 
L 284.85818 307.584 
L 284.85818 257.340849 
L 281.611635 257.340849 
z
" style="fill:#1f77b4;"/>
   </g>
   <g id="patch_68">
    <path clip-path="url(#p7549dc32d2)" d="M 284.858183 307.584 
L 288.104728 307.584 
L 288.104728 270.596489 
L 284.858183 270.596489 
z
" style="fill:#1f77b4;"/>
   </g>
   <g id="patch_69">
    <path clip-path="url(#p7549dc32d2)" d="M 288.104725 307.584 
L 291.351274 307.584 
L 291.351274 282.569325 
L 288.104725 282.569325 
z
" style="fill:#1f77b4;"/>
   </g>
   <g id="patch_70">
    <path clip-path="url(#p7549dc32d2)" d="M 291.351274 307.584 
L 294.597816 307.584 
L 294.597816 278.293283 
L 291.351274 278.293283 
z
" style="fill:#1f77b4;"/>
   </g>
   <g id="patch_71">
    <path clip-path="url(#p7549dc32d2)" d="M 294.597816 307.584 
L 297.844364 307.584 
L 297.844364 279.148542 
L 294.597816 279.148542 
z
" style="fill:#1f77b4;"/>
   </g>
   <g id="patch_72">
    <path clip-path="url(#p7549dc32d2)" d="M 297.844358 307.584 
L 301.0909 307.584 
L 301.0909 275.08627 
L 297.844358 275.08627 
z
" style="fill:#1f77b4;"/>
   </g>
   <g id="patch_73">
    <path clip-path="url(#p7549dc32d2)" d="M 301.090907 307.584 
L 304.337455 307.584 
L 304.337455 275.513935 
L 301.090907 275.513935 
z
" style="fill:#1f77b4;"/>
   </g>
   <g id="patch_74">
    <path clip-path="url(#p7549dc32d2)" d="M 304.337455 307.584 
L 307.583997 307.584 
L 307.583997 274.444868 
L 304.337455 274.444868 
z
" style="fill:#1f77b4;"/>
   </g>
   <g id="patch_75">
    <path clip-path="url(#p7549dc32d2)" d="M 307.583997 307.584 
L 310.830546 307.584 
L 310.830546 282.355549 
L 307.583997 282.355549 
z
" style="fill:#1f77b4;"/>
   </g>
   <g id="patch_76">
    <path clip-path="url(#p7549dc32d2)" d="M 310.830539 307.584 
L 314.077082 307.584 
L 314.077082 277.651881 
L 310.830539 277.651881 
z
" style="fill:#1f77b4;"/>
   </g>
   <g id="patch_77">
    <path clip-path="url(#p7549dc32d2)" d="M 314.077088 307.584 
L 317.323636 307.584 
L 317.323636 277.438139 
L 314.077088 277.438139 
z
" style="fill:#1f77b4;"/>
   </g>
   <g id="patch_78">
    <path clip-path="url(#p7549dc32d2)" d="M 317.323636 307.584 
L 320.570185 307.584 
L 320.570185 278.29334 
L 317.323636 278.29334 
z
" style="fill:#1f77b4;"/>
   </g>
   <g id="patch_79">
    <path clip-path="url(#p7549dc32d2)" d="M 320.570185 307.584 
L 323.816727 307.584 
L 323.816727 286.203915 
L 320.570185 286.203915 
z
" style="fill:#1f77b4;"/>
   </g>
   <g id="patch_80">
    <path clip-path="url(#p7549dc32d2)" d="M 323.816727 307.584 
L 327.063276 307.584 
L 327.063276 286.417757 
L 323.816727 286.417757 
z
" style="fill:#1f77b4;"/>
   </g>
   <g id="patch_81">
    <path clip-path="url(#p7549dc32d2)" d="M 327.063269 307.584 
L 330.309811 307.584 
L 330.309811 293.900745 
L 327.063269 293.900745 
z
" style="fill:#1f77b4;"/>
   </g>
   <g id="patch_82">
    <path clip-path="url(#p7549dc32d2)" d="M 330.309818 307.584 
L 333.556366 307.584 
L 333.556366 296.252577 
L 330.309818 296.252577 
z
" style="fill:#1f77b4;"/>
   </g>
   <g id="patch_83">
    <path clip-path="url(#p7549dc32d2)" d="M 333.556366 307.584 
L 336.802908 307.584 
L 336.802908 292.831741 
L 333.556366 292.831741 
z
" style="fill:#1f77b4;"/>
   </g>
   <g id="patch_84">
    <path clip-path="url(#p7549dc32d2)" d="M 336.802908 307.584 
L 340.049457 307.584 
L 340.049457 294.328373 
L 336.802908 294.328373 
z
" style="fill:#1f77b4;"/>
   </g>
   <g id="patch_85">
    <path clip-path="url(#p7549dc32d2)" d="M 340.04945 307.584 
L 343.295986 307.584 
L 343.295986 293.900745 
L 340.04945 293.900745 
z
" style="fill:#1f77b4;"/>
   </g>
   <g id="patch_86">
    <path clip-path="url(#p7549dc32d2)" d="M 343.295999 307.584 
L 346.542547 307.584 
L 346.542547 293.900772 
L 343.295999 293.900772 
z
" style="fill:#1f77b4;"/>
   </g>
   <g id="patch_87">
    <path clip-path="url(#p7549dc32d2)" d="M 346.542547 307.584 
L 349.789096 307.584 
L 349.789096 295.183575 
L 346.542547 295.183575 
z
" style="fill:#1f77b4;"/>
   </g>
   <g id="patch_88">
    <path clip-path="url(#p7549dc32d2)" d="M 349.789083 307.584 
L 353.035619 307.584 
L 353.035619 294.755924 
L 349.789083 294.755924 
z
" style="fill:#1f77b4;"/>
   </g>
   <g id="patch_89">
    <path clip-path="url(#p7549dc32d2)" d="M 353.035632 307.584 
L 356.28218 307.584 
L 356.28218 295.824976 
L 353.035632 295.824976 
z
" style="fill:#1f77b4;"/>
   </g>
   <g id="patch_90">
    <path clip-path="url(#p7549dc32d2)" d="M 356.28218 307.584 
L 359.528729 307.584 
L 359.528729 298.604382 
L 356.28218 298.604382 
z
" style="fill:#1f77b4;"/>
   </g>
   <g id="patch_91">
    <path clip-path="url(#p7549dc32d2)" d="M 359.528729 307.584 
L 362.775277 307.584 
L 362.775277 299.031983 
L 359.528729 299.031983 
z
" style="fill:#1f77b4;"/>
   </g>
   <g id="patch_92">
    <path clip-path="url(#p7549dc32d2)" d="M 362.775277 307.584 
L 366.021813 307.584 
L 366.021813 300.528558 
L 362.775277 300.528558 
z
" style="fill:#1f77b4;"/>
   </g>
   <g id="patch_93">
    <path clip-path="url(#p7549dc32d2)" d="M 366.021813 307.584 
L 369.268362 307.584 
L 369.268362 303.735592 
L 366.021813 303.735592 
z
" style="fill:#1f77b4;"/>
   </g>
   <g id="patch_94">
    <path clip-path="url(#p7549dc32d2)" d="M 369.268362 307.584 
L 372.51491 307.584 
L 372.51491 298.176781 
L 369.268362 298.176781 
z
" style="fill:#1f77b4;"/>
   </g>
   <g id="patch_95">
    <path clip-path="url(#p7549dc32d2)" d="M 372.51491 307.584 
L 375.761459 307.584 
L 375.761459 303.307991 
L 372.51491 303.307991 
z
" style="fill:#1f77b4;"/>
   </g>
   <g id="patch_96">
    <path clip-path="url(#p7549dc32d2)" d="M 375.761446 307.584 
L 379.007982 307.584 
L 379.007982 299.459552 
L 375.761446 299.459552 
z
" style="fill:#1f77b4;"/>
   </g>
   <g id="patch_97">
    <path clip-path="url(#p7549dc32d2)" d="M 379.007994 307.584 
L 382.254543 307.584 
L 382.254543 300.100985 
L 379.007994 300.100985 
z
" style="fill:#1f77b4;"/>
   </g>
   <g id="patch_98">
    <path clip-path="url(#p7549dc32d2)" d="M 382.254543 307.584 
L 385.501091 307.584 
L 385.501091 298.176781 
L 382.254543 298.176781 
z
" style="fill:#1f77b4;"/>
   </g>
   <g id="patch_99">
    <path clip-path="url(#p7549dc32d2)" d="M 385.501091 307.584 
L 388.74764 307.584 
L 388.74764 302.025189 
L 385.501091 302.025189 
z
" style="fill:#1f77b4;"/>
   </g>
   <g id="patch_100">
    <path clip-path="url(#p7549dc32d2)" d="M 388.74764 307.584 
L 391.994176 307.584 
L 391.994176 302.238968 
L 388.74764 302.238968 
z
" style="fill:#1f77b4;"/>
   </g>
   <g id="patch_101">
    <path clip-path="url(#p7549dc32d2)" d="M 391.994176 307.584 
L 395.240724 307.584 
L 395.240724 303.735592 
L 391.994176 303.735592 
z
" style="fill:#1f77b4;"/>
   </g>
   <g id="patch_102">
    <path clip-path="url(#p7549dc32d2)" d="M 395.240724 307.584 
L 398.487273 307.584 
L 398.487273 304.163193 
L 395.240724 304.163193 
z
" style="fill:#1f77b4;"/>
   </g>
   <g id="matplotlib.axis_1">
    <g id="xtick_1">
     <g id="line2d_1">
      <defs>
       <path d="M 0 0 
L 0 3.5 
" id="m5a83d73777" style="stroke:#000000;stroke-width:0.8;"/>
      </defs>
      <g>
       <use style="stroke:#000000;stroke-width:0.8;" x="76.720011" xlink:href="#m5a83d73777" y="307.584"/>
      </g>
     </g>
     <g id="text_1">
      <!-- −3 -->
      <defs>
       <path d="M 10.59375 35.5 
L 73.1875 35.5 
L 73.1875 27.203125 
L 10.59375 27.203125 
z
" id="DejaVuSans-8722"/>
       <path d="M 40.578125 39.3125 
Q 47.65625 37.796875 51.625 33 
Q 55.609375 28.21875 55.609375 21.1875 
Q 55.609375 10.40625 48.1875 4.484375 
Q 40.765625 -1.421875 27.09375 -1.421875 
Q 22.515625 -1.421875 17.65625 -0.515625 
Q 12.796875 0.390625 7.625 2.203125 
L 7.625 11.71875 
Q 11.71875 9.328125 16.59375 8.109375 
Q 21.484375 6.890625 26.8125 6.890625 
Q 36.078125 6.890625 40.9375 10.546875 
Q 45.796875 14.203125 45.796875 21.1875 
Q 45.796875 27.640625 41.28125 31.265625 
Q 36.765625 34.90625 28.71875 34.90625 
L 20.21875 34.90625 
L 20.21875 43.015625 
L 29.109375 43.015625 
Q 36.375 43.015625 40.234375 45.921875 
Q 44.09375 48.828125 44.09375 54.296875 
Q 44.09375 59.90625 40.109375 62.90625 
Q 36.140625 65.921875 28.71875 65.921875 
Q 24.65625 65.921875 20.015625 65.03125 
Q 15.375 64.15625 9.8125 62.3125 
L 9.8125 71.09375 
Q 15.4375 72.65625 20.34375 73.4375 
Q 25.25 74.21875 29.59375 74.21875 
Q 40.828125 74.21875 47.359375 69.109375 
Q 53.90625 64.015625 53.90625 55.328125 
Q 53.90625 49.265625 50.4375 45.09375 
Q 46.96875 40.921875 40.578125 39.3125 
z
" id="DejaVuSans-51"/>
      </defs>
      <g transform="translate(64.189152 327.501344)scale(0.17 -0.17)">
       <use xlink:href="#DejaVuSans-8722"/>
       <use x="83.789062" xlink:href="#DejaVuSans-51"/>
      </g>
     </g>
    </g>
    <g id="xtick_2">
     <g id="line2d_2">
      <g>
       <use style="stroke:#000000;stroke-width:0.8;" x="129.866619" xlink:href="#m5a83d73777" y="307.584"/>
      </g>
     </g>
     <g id="text_2">
      <!-- −2 -->
      <defs>
       <path d="M 19.1875 8.296875 
L 53.609375 8.296875 
L 53.609375 0 
L 7.328125 0 
L 7.328125 8.296875 
Q 12.9375 14.109375 22.625 23.890625 
Q 32.328125 33.6875 34.8125 36.53125 
Q 39.546875 41.84375 41.421875 45.53125 
Q 43.3125 49.21875 43.3125 52.78125 
Q 43.3125 58.59375 39.234375 62.25 
Q 35.15625 65.921875 28.609375 65.921875 
Q 23.96875 65.921875 18.8125 64.3125 
Q 13.671875 62.703125 7.8125 59.421875 
L 7.8125 69.390625 
Q 13.765625 71.78125 18.9375 73 
Q 24.125 74.21875 28.421875 74.21875 
Q 39.75 74.21875 46.484375 68.546875 
Q 53.21875 62.890625 53.21875 53.421875 
Q 53.21875 48.921875 51.53125 44.890625 
Q 49.859375 40.875 45.40625 35.40625 
Q 44.1875 33.984375 37.640625 27.21875 
Q 31.109375 20.453125 19.1875 8.296875 
z
" id="DejaVuSans-50"/>
      </defs>
      <g transform="translate(117.33576 327.501344)scale(0.17 -0.17)">
       <use xlink:href="#DejaVuSans-8722"/>
       <use x="83.789062" xlink:href="#DejaVuSans-50"/>
      </g>
     </g>
    </g>
    <g id="xtick_3">
     <g id="line2d_3">
      <g>
       <use style="stroke:#000000;stroke-width:0.8;" x="183.013227" xlink:href="#m5a83d73777" y="307.584"/>
      </g>
     </g>
     <g id="text_3">
      <!-- −1 -->
      <defs>
       <path d="M 12.40625 8.296875 
L 28.515625 8.296875 
L 28.515625 63.921875 
L 10.984375 60.40625 
L 10.984375 69.390625 
L 28.421875 72.90625 
L 38.28125 72.90625 
L 38.28125 8.296875 
L 54.390625 8.296875 
L 54.390625 0 
L 12.40625 0 
z
" id="DejaVuSans-49"/>
      </defs>
      <g transform="translate(170.482368 327.501344)scale(0.17 -0.17)">
       <use xlink:href="#DejaVuSans-8722"/>
       <use x="83.789062" xlink:href="#DejaVuSans-49"/>
      </g>
     </g>
    </g>
    <g id="xtick_4">
     <g id="line2d_4">
      <g>
       <use style="stroke:#000000;stroke-width:0.8;" x="236.159835" xlink:href="#m5a83d73777" y="307.584"/>
      </g>
     </g>
     <g id="text_4">
      <!-- 0 -->
      <defs>
       <path d="M 31.78125 66.40625 
Q 24.171875 66.40625 20.328125 58.90625 
Q 16.5 51.421875 16.5 36.375 
Q 16.5 21.390625 20.328125 13.890625 
Q 24.171875 6.390625 31.78125 6.390625 
Q 39.453125 6.390625 43.28125 13.890625 
Q 47.125 21.390625 47.125 36.375 
Q 47.125 51.421875 43.28125 58.90625 
Q 39.453125 66.40625 31.78125 66.40625 
z
M 31.78125 74.21875 
Q 44.046875 74.21875 50.515625 64.515625 
Q 56.984375 54.828125 56.984375 36.375 
Q 56.984375 17.96875 50.515625 8.265625 
Q 44.046875 -1.421875 31.78125 -1.421875 
Q 19.53125 -1.421875 13.0625 8.265625 
Q 6.59375 17.96875 6.59375 36.375 
Q 6.59375 54.828125 13.0625 64.515625 
Q 19.53125 74.21875 31.78125 74.21875 
z
" id="DejaVuSans-48"/>
      </defs>
      <g transform="translate(230.75171 327.501344)scale(0.17 -0.17)">
       <use xlink:href="#DejaVuSans-48"/>
      </g>
     </g>
    </g>
    <g id="xtick_5">
     <g id="line2d_5">
      <g>
       <use style="stroke:#000000;stroke-width:0.8;" x="289.306443" xlink:href="#m5a83d73777" y="307.584"/>
      </g>
     </g>
     <g id="text_5">
      <!-- 1 -->
      <g transform="translate(283.898318 327.501344)scale(0.17 -0.17)">
       <use xlink:href="#DejaVuSans-49"/>
      </g>
     </g>
    </g>
    <g id="xtick_6">
     <g id="line2d_6">
      <g>
       <use style="stroke:#000000;stroke-width:0.8;" x="342.453051" xlink:href="#m5a83d73777" y="307.584"/>
      </g>
     </g>
     <g id="text_6">
      <!-- 2 -->
      <g transform="translate(337.044926 327.501344)scale(0.17 -0.17)">
       <use xlink:href="#DejaVuSans-50"/>
      </g>
     </g>
    </g>
    <g id="xtick_7">
     <g id="line2d_7">
      <g>
       <use style="stroke:#000000;stroke-width:0.8;" x="395.59966" xlink:href="#m5a83d73777" y="307.584"/>
      </g>
     </g>
     <g id="text_7">
      <!-- 3 -->
      <g transform="translate(390.191535 327.501344)scale(0.17 -0.17)">
       <use xlink:href="#DejaVuSans-51"/>
      </g>
     </g>
    </g>
    <g id="text_8">
     <!-- Position in Radian -->
     <defs>
      <path d="M 19.671875 64.796875 
L 19.671875 37.40625 
L 32.078125 37.40625 
Q 38.96875 37.40625 42.71875 40.96875 
Q 46.484375 44.53125 46.484375 51.125 
Q 46.484375 57.671875 42.71875 61.234375 
Q 38.96875 64.796875 32.078125 64.796875 
z
M 9.8125 72.90625 
L 32.078125 72.90625 
Q 44.34375 72.90625 50.609375 67.359375 
Q 56.890625 61.8125 56.890625 51.125 
Q 56.890625 40.328125 50.609375 34.8125 
Q 44.34375 29.296875 32.078125 29.296875 
L 19.671875 29.296875 
L 19.671875 0 
L 9.8125 0 
z
" id="DejaVuSans-80"/>
      <path d="M 30.609375 48.390625 
Q 23.390625 48.390625 19.1875 42.75 
Q 14.984375 37.109375 14.984375 27.296875 
Q 14.984375 17.484375 19.15625 11.84375 
Q 23.34375 6.203125 30.609375 6.203125 
Q 37.796875 6.203125 41.984375 11.859375 
Q 46.1875 17.53125 46.1875 27.296875 
Q 46.1875 37.015625 41.984375 42.703125 
Q 37.796875 48.390625 30.609375 48.390625 
z
M 30.609375 56 
Q 42.328125 56 49.015625 48.375 
Q 55.71875 40.765625 55.71875 27.296875 
Q 55.71875 13.875 49.015625 6.21875 
Q 42.328125 -1.421875 30.609375 -1.421875 
Q 18.84375 -1.421875 12.171875 6.21875 
Q 5.515625 13.875 5.515625 27.296875 
Q 5.515625 40.765625 12.171875 48.375 
Q 18.84375 56 30.609375 56 
z
" id="DejaVuSans-111"/>
      <path d="M 44.28125 53.078125 
L 44.28125 44.578125 
Q 40.484375 46.53125 36.375 47.5 
Q 32.28125 48.484375 27.875 48.484375 
Q 21.1875 48.484375 17.84375 46.4375 
Q 14.5 44.390625 14.5 40.28125 
Q 14.5 37.15625 16.890625 35.375 
Q 19.28125 33.59375 26.515625 31.984375 
L 29.59375 31.296875 
Q 39.15625 29.25 43.1875 25.515625 
Q 47.21875 21.78125 47.21875 15.09375 
Q 47.21875 7.46875 41.1875 3.015625 
Q 35.15625 -1.421875 24.609375 -1.421875 
Q 20.21875 -1.421875 15.453125 -0.5625 
Q 10.6875 0.296875 5.421875 2 
L 5.421875 11.28125 
Q 10.40625 8.6875 15.234375 7.390625 
Q 20.0625 6.109375 24.8125 6.109375 
Q 31.15625 6.109375 34.5625 8.28125 
Q 37.984375 10.453125 37.984375 14.40625 
Q 37.984375 18.0625 35.515625 20.015625 
Q 33.0625 21.96875 24.703125 23.78125 
L 21.578125 24.515625 
Q 13.234375 26.265625 9.515625 29.90625 
Q 5.8125 33.546875 5.8125 39.890625 
Q 5.8125 47.609375 11.28125 51.796875 
Q 16.75 56 26.8125 56 
Q 31.78125 56 36.171875 55.265625 
Q 40.578125 54.546875 44.28125 53.078125 
z
" id="DejaVuSans-115"/>
      <path d="M 9.421875 54.6875 
L 18.40625 54.6875 
L 18.40625 0 
L 9.421875 0 
z
M 9.421875 75.984375 
L 18.40625 75.984375 
L 18.40625 64.59375 
L 9.421875 64.59375 
z
" id="DejaVuSans-105"/>
      <path d="M 18.3125 70.21875 
L 18.3125 54.6875 
L 36.8125 54.6875 
L 36.8125 47.703125 
L 18.3125 47.703125 
L 18.3125 18.015625 
Q 18.3125 11.328125 20.140625 9.421875 
Q 21.96875 7.515625 27.59375 7.515625 
L 36.8125 7.515625 
L 36.8125 0 
L 27.59375 0 
Q 17.1875 0 13.234375 3.875 
Q 9.28125 7.765625 9.28125 18.015625 
L 9.28125 47.703125 
L 2.6875 47.703125 
L 2.6875 54.6875 
L 9.28125 54.6875 
L 9.28125 70.21875 
z
" id="DejaVuSans-116"/>
      <path d="M 54.890625 33.015625 
L 54.890625 0 
L 45.90625 0 
L 45.90625 32.71875 
Q 45.90625 40.484375 42.875 44.328125 
Q 39.84375 48.1875 33.796875 48.1875 
Q 26.515625 48.1875 22.3125 43.546875 
Q 18.109375 38.921875 18.109375 30.90625 
L 18.109375 0 
L 9.078125 0 
L 9.078125 54.6875 
L 18.109375 54.6875 
L 18.109375 46.1875 
Q 21.34375 51.125 25.703125 53.5625 
Q 30.078125 56 35.796875 56 
Q 45.21875 56 50.046875 50.171875 
Q 54.890625 44.34375 54.890625 33.015625 
z
" id="DejaVuSans-110"/>
      <path id="DejaVuSans-32"/>
      <path d="M 44.390625 34.1875 
Q 47.5625 33.109375 50.5625 29.59375 
Q 53.5625 26.078125 56.59375 19.921875 
L 66.609375 0 
L 56 0 
L 46.6875 18.703125 
Q 43.0625 26.03125 39.671875 28.421875 
Q 36.28125 30.8125 30.421875 30.8125 
L 19.671875 30.8125 
L 19.671875 0 
L 9.8125 0 
L 9.8125 72.90625 
L 32.078125 72.90625 
Q 44.578125 72.90625 50.734375 67.671875 
Q 56.890625 62.453125 56.890625 51.90625 
Q 56.890625 45.015625 53.6875 40.46875 
Q 50.484375 35.9375 44.390625 34.1875 
z
M 19.671875 64.796875 
L 19.671875 38.921875 
L 32.078125 38.921875 
Q 39.203125 38.921875 42.84375 42.21875 
Q 46.484375 45.515625 46.484375 51.90625 
Q 46.484375 58.296875 42.84375 61.546875 
Q 39.203125 64.796875 32.078125 64.796875 
z
" id="DejaVuSans-82"/>
      <path d="M 34.28125 27.484375 
Q 23.390625 27.484375 19.1875 25 
Q 14.984375 22.515625 14.984375 16.5 
Q 14.984375 11.71875 18.140625 8.90625 
Q 21.296875 6.109375 26.703125 6.109375 
Q 34.1875 6.109375 38.703125 11.40625 
Q 43.21875 16.703125 43.21875 25.484375 
L 43.21875 27.484375 
z
M 52.203125 31.203125 
L 52.203125 0 
L 43.21875 0 
L 43.21875 8.296875 
Q 40.140625 3.328125 35.546875 0.953125 
Q 30.953125 -1.421875 24.3125 -1.421875 
Q 15.921875 -1.421875 10.953125 3.296875 
Q 6 8.015625 6 15.921875 
Q 6 25.140625 12.171875 29.828125 
Q 18.359375 34.515625 30.609375 34.515625 
L 43.21875 34.515625 
L 43.21875 35.40625 
Q 43.21875 41.609375 39.140625 45 
Q 35.0625 48.390625 27.6875 48.390625 
Q 23 48.390625 18.546875 47.265625 
Q 14.109375 46.140625 10.015625 43.890625 
L 10.015625 52.203125 
Q 14.9375 54.109375 19.578125 55.046875 
Q 24.21875 56 28.609375 56 
Q 40.484375 56 46.34375 49.84375 
Q 52.203125 43.703125 52.203125 31.203125 
z
" id="DejaVuSans-97"/>
      <path d="M 45.40625 46.390625 
L 45.40625 75.984375 
L 54.390625 75.984375 
L 54.390625 0 
L 45.40625 0 
L 45.40625 8.203125 
Q 42.578125 3.328125 38.25 0.953125 
Q 33.9375 -1.421875 27.875 -1.421875 
Q 17.96875 -1.421875 11.734375 6.484375 
Q 5.515625 14.40625 5.515625 27.296875 
Q 5.515625 40.1875 11.734375 48.09375 
Q 17.96875 56 27.875 56 
Q 33.9375 56 38.25 53.625 
Q 42.578125 51.265625 45.40625 46.390625 
z
M 14.796875 27.296875 
Q 14.796875 17.390625 18.875 11.75 
Q 22.953125 6.109375 30.078125 6.109375 
Q 37.203125 6.109375 41.296875 11.75 
Q 45.40625 17.390625 45.40625 27.296875 
Q 45.40625 37.203125 41.296875 42.84375 
Q 37.203125 48.484375 30.078125 48.484375 
Q 22.953125 48.484375 18.875 42.84375 
Q 14.796875 37.203125 14.796875 27.296875 
z
" id="DejaVuSans-100"/>
     </defs>
     <g transform="translate(102.024844 357.832125)scale(0.3 -0.3)">
      <use xlink:href="#DejaVuSans-80"/>
      <use x="60.255859" xlink:href="#DejaVuSans-111"/>
      <use x="121.4375" xlink:href="#DejaVuSans-115"/>
      <use x="173.537109" xlink:href="#DejaVuSans-105"/>
      <use x="201.320312" xlink:href="#DejaVuSans-116"/>
      <use x="240.529297" xlink:href="#DejaVuSans-105"/>
      <use x="268.3125" xlink:href="#DejaVuSans-111"/>
      <use x="329.494141" xlink:href="#DejaVuSans-110"/>
      <use x="392.873047" xlink:href="#DejaVuSans-32"/>
      <use x="424.660156" xlink:href="#DejaVuSans-105"/>
      <use x="452.443359" xlink:href="#DejaVuSans-110"/>
      <use x="515.822266" xlink:href="#DejaVuSans-32"/>
      <use x="547.609375" xlink:href="#DejaVuSans-82"/>
      <use x="617.060547" xlink:href="#DejaVuSans-97"/>
      <use x="678.339844" xlink:href="#DejaVuSans-100"/>
      <use x="741.816406" xlink:href="#DejaVuSans-105"/>
      <use x="769.599609" xlink:href="#DejaVuSans-97"/>
      <use x="830.878906" xlink:href="#DejaVuSans-110"/>
     </g>
    </g>
   </g>
   <g id="matplotlib.axis_2">
    <g id="ytick_1">
     <g id="line2d_8">
      <defs>
       <path d="M 0 0 
L -3.5 0 
" id="m17629d8e8c" style="stroke:#000000;stroke-width:0.8;"/>
      </defs>
      <g>
       <use style="stroke:#000000;stroke-width:0.8;" x="57.6" xlink:href="#m17629d8e8c" y="307.584"/>
      </g>
     </g>
     <g id="text_9">
      <!-- 0.0 -->
      <defs>
       <path d="M 10.6875 12.40625 
L 21 12.40625 
L 21 0 
L 10.6875 0 
z
" id="DejaVuSans-46"/>
      </defs>
      <g transform="translate(23.564687 314.042672)scale(0.17 -0.17)">
       <use xlink:href="#DejaVuSans-48"/>
       <use x="63.623047" xlink:href="#DejaVuSans-46"/>
       <use x="95.410156" xlink:href="#DejaVuSans-48"/>
      </g>
     </g>
    </g>
    <g id="ytick_2">
     <g id="line2d_9">
      <g>
       <use style="stroke:#000000;stroke-width:0.8;" x="57.6" xlink:href="#m17629d8e8c" y="268.40294"/>
      </g>
     </g>
     <g id="text_10">
      <!-- 0.2 -->
      <g transform="translate(23.564687 274.861612)scale(0.17 -0.17)">
       <use xlink:href="#DejaVuSans-48"/>
       <use x="63.623047" xlink:href="#DejaVuSans-46"/>
       <use x="95.410156" xlink:href="#DejaVuSans-50"/>
      </g>
     </g>
    </g>
    <g id="ytick_3">
     <g id="line2d_10">
      <g>
       <use style="stroke:#000000;stroke-width:0.8;" x="57.6" xlink:href="#m17629d8e8c" y="229.22188"/>
      </g>
     </g>
     <g id="text_11">
      <!-- 0.4 -->
      <defs>
       <path d="M 37.796875 64.3125 
L 12.890625 25.390625 
L 37.796875 25.390625 
z
M 35.203125 72.90625 
L 47.609375 72.90625 
L 47.609375 25.390625 
L 58.015625 25.390625 
L 58.015625 17.1875 
L 47.609375 17.1875 
L 47.609375 0 
L 37.796875 0 
L 37.796875 17.1875 
L 4.890625 17.1875 
L 4.890625 26.703125 
z
" id="DejaVuSans-52"/>
      </defs>
      <g transform="translate(23.564687 235.680552)scale(0.17 -0.17)">
       <use xlink:href="#DejaVuSans-48"/>
       <use x="63.623047" xlink:href="#DejaVuSans-46"/>
       <use x="95.410156" xlink:href="#DejaVuSans-52"/>
      </g>
     </g>
    </g>
    <g id="ytick_4">
     <g id="line2d_11">
      <g>
       <use style="stroke:#000000;stroke-width:0.8;" x="57.6" xlink:href="#m17629d8e8c" y="190.04082"/>
      </g>
     </g>
     <g id="text_12">
      <!-- 0.6 -->
      <defs>
       <path d="M 33.015625 40.375 
Q 26.375 40.375 22.484375 35.828125 
Q 18.609375 31.296875 18.609375 23.390625 
Q 18.609375 15.53125 22.484375 10.953125 
Q 26.375 6.390625 33.015625 6.390625 
Q 39.65625 6.390625 43.53125 10.953125 
Q 47.40625 15.53125 47.40625 23.390625 
Q 47.40625 31.296875 43.53125 35.828125 
Q 39.65625 40.375 33.015625 40.375 
z
M 52.59375 71.296875 
L 52.59375 62.3125 
Q 48.875 64.0625 45.09375 64.984375 
Q 41.3125 65.921875 37.59375 65.921875 
Q 27.828125 65.921875 22.671875 59.328125 
Q 17.53125 52.734375 16.796875 39.40625 
Q 19.671875 43.65625 24.015625 45.921875 
Q 28.375 48.1875 33.59375 48.1875 
Q 44.578125 48.1875 50.953125 41.515625 
Q 57.328125 34.859375 57.328125 23.390625 
Q 57.328125 12.15625 50.6875 5.359375 
Q 44.046875 -1.421875 33.015625 -1.421875 
Q 20.359375 -1.421875 13.671875 8.265625 
Q 6.984375 17.96875 6.984375 36.375 
Q 6.984375 53.65625 15.1875 63.9375 
Q 23.390625 74.21875 37.203125 74.21875 
Q 40.921875 74.21875 44.703125 73.484375 
Q 48.484375 72.75 52.59375 71.296875 
z
" id="DejaVuSans-54"/>
      </defs>
      <g transform="translate(23.564687 196.499492)scale(0.17 -0.17)">
       <use xlink:href="#DejaVuSans-48"/>
       <use x="63.623047" xlink:href="#DejaVuSans-46"/>
       <use x="95.410156" xlink:href="#DejaVuSans-54"/>
      </g>
     </g>
    </g>
    <g id="ytick_5">
     <g id="line2d_12">
      <g>
       <use style="stroke:#000000;stroke-width:0.8;" x="57.6" xlink:href="#m17629d8e8c" y="150.85976"/>
      </g>
     </g>
     <g id="text_13">
      <!-- 0.8 -->
      <defs>
       <path d="M 31.78125 34.625 
Q 24.75 34.625 20.71875 30.859375 
Q 16.703125 27.09375 16.703125 20.515625 
Q 16.703125 13.921875 20.71875 10.15625 
Q 24.75 6.390625 31.78125 6.390625 
Q 38.8125 6.390625 42.859375 10.171875 
Q 46.921875 13.96875 46.921875 20.515625 
Q 46.921875 27.09375 42.890625 30.859375 
Q 38.875 34.625 31.78125 34.625 
z
M 21.921875 38.8125 
Q 15.578125 40.375 12.03125 44.71875 
Q 8.5 49.078125 8.5 55.328125 
Q 8.5 64.0625 14.71875 69.140625 
Q 20.953125 74.21875 31.78125 74.21875 
Q 42.671875 74.21875 48.875 69.140625 
Q 55.078125 64.0625 55.078125 55.328125 
Q 55.078125 49.078125 51.53125 44.71875 
Q 48 40.375 41.703125 38.8125 
Q 48.828125 37.15625 52.796875 32.3125 
Q 56.78125 27.484375 56.78125 20.515625 
Q 56.78125 9.90625 50.3125 4.234375 
Q 43.84375 -1.421875 31.78125 -1.421875 
Q 19.734375 -1.421875 13.25 4.234375 
Q 6.78125 9.90625 6.78125 20.515625 
Q 6.78125 27.484375 10.78125 32.3125 
Q 14.796875 37.15625 21.921875 38.8125 
z
M 18.3125 54.390625 
Q 18.3125 48.734375 21.84375 45.5625 
Q 25.390625 42.390625 31.78125 42.390625 
Q 38.140625 42.390625 41.71875 45.5625 
Q 45.3125 48.734375 45.3125 54.390625 
Q 45.3125 60.0625 41.71875 63.234375 
Q 38.140625 66.40625 31.78125 66.40625 
Q 25.390625 66.40625 21.84375 63.234375 
Q 18.3125 60.0625 18.3125 54.390625 
z
" id="DejaVuSans-56"/>
      </defs>
      <g transform="translate(23.564687 157.318432)scale(0.17 -0.17)">
       <use xlink:href="#DejaVuSans-48"/>
       <use x="63.623047" xlink:href="#DejaVuSans-46"/>
       <use x="95.410156" xlink:href="#DejaVuSans-56"/>
      </g>
     </g>
    </g>
    <g id="ytick_6">
     <g id="line2d_13">
      <g>
       <use style="stroke:#000000;stroke-width:0.8;" x="57.6" xlink:href="#m17629d8e8c" y="111.6787"/>
      </g>
     </g>
     <g id="text_14">
      <!-- 1.0 -->
      <g transform="translate(23.564687 118.137372)scale(0.17 -0.17)">
       <use xlink:href="#DejaVuSans-49"/>
       <use x="63.623047" xlink:href="#DejaVuSans-46"/>
       <use x="95.410156" xlink:href="#DejaVuSans-48"/>
      </g>
     </g>
    </g>
    <g id="ytick_7">
     <g id="line2d_14">
      <g>
       <use style="stroke:#000000;stroke-width:0.8;" x="57.6" xlink:href="#m17629d8e8c" y="72.49764"/>
      </g>
     </g>
     <g id="text_15">
      <!-- 1.2 -->
      <g transform="translate(23.564687 78.956312)scale(0.17 -0.17)">
       <use xlink:href="#DejaVuSans-49"/>
       <use x="63.623047" xlink:href="#DejaVuSans-46"/>
       <use x="95.410156" xlink:href="#DejaVuSans-50"/>
      </g>
     </g>
    </g>
    <g id="text_16">
     <!-- Density -->
     <defs>
      <path d="M 19.671875 64.796875 
L 19.671875 8.109375 
L 31.59375 8.109375 
Q 46.6875 8.109375 53.6875 14.9375 
Q 60.6875 21.78125 60.6875 36.53125 
Q 60.6875 51.171875 53.6875 57.984375 
Q 46.6875 64.796875 31.59375 64.796875 
z
M 9.8125 72.90625 
L 30.078125 72.90625 
Q 51.265625 72.90625 61.171875 64.09375 
Q 71.09375 55.28125 71.09375 36.53125 
Q 71.09375 17.671875 61.125 8.828125 
Q 51.171875 0 30.078125 0 
L 9.8125 0 
z
" id="DejaVuSans-68"/>
      <path d="M 56.203125 29.59375 
L 56.203125 25.203125 
L 14.890625 25.203125 
Q 15.484375 15.921875 20.484375 11.0625 
Q 25.484375 6.203125 34.421875 6.203125 
Q 39.59375 6.203125 44.453125 7.46875 
Q 49.3125 8.734375 54.109375 11.28125 
L 54.109375 2.78125 
Q 49.265625 0.734375 44.1875 -0.34375 
Q 39.109375 -1.421875 33.890625 -1.421875 
Q 20.796875 -1.421875 13.15625 6.1875 
Q 5.515625 13.8125 5.515625 26.8125 
Q 5.515625 40.234375 12.765625 48.109375 
Q 20.015625 56 32.328125 56 
Q 43.359375 56 49.78125 48.890625 
Q 56.203125 41.796875 56.203125 29.59375 
z
M 47.21875 32.234375 
Q 47.125 39.59375 43.09375 43.984375 
Q 39.0625 48.390625 32.421875 48.390625 
Q 24.90625 48.390625 20.390625 44.140625 
Q 15.875 39.890625 15.1875 32.171875 
z
" id="DejaVuSans-101"/>
      <path d="M 32.171875 -5.078125 
Q 28.375 -14.84375 24.75 -17.8125 
Q 21.140625 -20.796875 15.09375 -20.796875 
L 7.90625 -20.796875 
L 7.90625 -13.28125 
L 13.1875 -13.28125 
Q 16.890625 -13.28125 18.9375 -11.515625 
Q 21 -9.765625 23.484375 -3.21875 
L 25.09375 0.875 
L 2.984375 54.6875 
L 12.5 54.6875 
L 29.59375 11.921875 
L 46.6875 54.6875 
L 56.203125 54.6875 
z
" id="DejaVuSans-121"/>
     </defs>
     <g transform="translate(13.325625 231.553781)rotate(-90)scale(0.3 -0.3)">
      <use xlink:href="#DejaVuSans-68"/>
      <use x="77.001953" xlink:href="#DejaVuSans-101"/>
      <use x="138.525391" xlink:href="#DejaVuSans-110"/>
      <use x="201.904297" xlink:href="#DejaVuSans-115"/>
      <use x="254.003906" xlink:href="#DejaVuSans-105"/>
      <use x="281.787109" xlink:href="#DejaVuSans-116"/>
      <use x="320.996094" xlink:href="#DejaVuSans-121"/>
     </g>
    </g>
   </g>
   <g id="line2d_15">
    <path clip-path="url(#p7549dc32d2)" d="M 103.293315 307.527409 
L 104.055083 307.582606 
L 105.118015 307.477818 
L 106.473254 307.106085 
L 106.862996 307.073673 
L 107.190733 306.78972 
L 108.085368 305.895768 
L 108.820562 305.650131 
L 109.130584 305.799961 
L 109.626619 306.055752 
L 109.856921 305.872612 
L 110.618689 305.067994 
L 110.884422 305.277736 
L 111.29188 305.5565 
L 111.504466 305.423808 
L 111.841061 304.864951 
L 112.239661 304.352706 
L 112.443389 304.392777 
L 112.709122 304.726244 
L 113.745481 306.217877 
L 114.799556 307.313506 
L 115.127293 307.270488 
L 115.968781 306.78204 
L 116.783696 306.510107 
L 117.217726 306.654955 
L 117.59861 306.695189 
L 117.91749 306.462954 
L 118.422383 306.104146 
L 118.661543 306.213488 
L 119.441026 306.768774 
L 119.66247 306.477319 
L 120.025639 305.538873 
L 120.778549 303.633727 
L 121.682041 302.035665 
L 121.868055 302.09038 
L 122.071783 302.44573 
L 122.390663 303.550226 
L 123.134715 306.217256 
L 123.338444 306.307387 
L 123.515599 306.089499 
L 123.825621 305.245533 
L 124.392518 303.791108 
L 124.737971 303.49554 
L 125.287153 303.366206 
L 125.783188 303.214286 
L 126.048921 302.839286 
L 126.41209 301.857102 
L 127.023276 300.262814 
L 127.271293 300.122631 
L 127.510453 300.256862 
L 127.944483 300.839019 
L 128.440518 301.380709 
L 128.759398 301.423955 
L 129.184571 301.225149 
L 130.256361 300.624128 
L 130.504378 300.829534 
L 130.849831 301.483765 
L 131.239573 302.073542 
L 131.407871 302.009734 
L 131.638173 301.596202 
L 132.143065 300.690737 
L 132.337936 300.736019 
L 132.665674 301.143801 
L 134.18921 303.062166 
L 134.384081 302.811578 
L 135.872186 299.782888 
L 136.235354 299.025359 
L 136.394794 299.061058 
L 136.580807 299.426503 
L 137.023696 300.996525 
L 137.413437 301.948243 
L 137.661455 302.087389 
L 137.909472 301.956465 
L 138.485227 301.603595 
L 138.715529 301.776723 
L 139.114129 302.443287 
L 139.672168 303.241565 
L 140.230208 303.612531 
L 140.575661 303.637039 
L 140.850251 303.411685 
L 141.674024 302.574323 
L 141.992903 302.682044 
L 142.471223 302.833186 
L 142.683809 302.624634 
L 142.9584 301.962436 
L 143.79103 299.720211 
L 144.198488 299.454987 
L 144.995687 299.122745 
L 145.252562 299.438951 
L 145.792886 300.130909 
L 145.970041 300.031444 
L 146.200343 299.575988 
L 146.581227 298.213075 
L 147.174698 296.211154 
L 147.440431 295.969094 
L 148.042759 295.706888 
L 148.432501 295.421963 
L 148.591941 295.582355 
L 148.822243 296.214923 
L 149.646015 298.822053 
L 149.778882 298.659195 
L 149.973752 297.955928 
L 150.292632 295.780764 
L 150.956965 291.234432 
L 151.151836 290.993557 
L 151.284702 291.16578 
L 151.53272 291.975793 
L 152.028755 293.49781 
L 152.188194 293.497962 
L 152.356492 293.182387 
L 152.746234 291.787209 
L 153.056256 291.103182 
L 153.19798 291.143178 
L 153.392851 291.529069 
L 153.977464 292.801449 
L 154.128046 292.697182 
L 154.34949 292.177414 
L 155.270698 289.648149 
L 155.430138 289.745887 
L 155.66044 290.227516 
L 156.33363 291.756032 
L 157.139687 292.58001 
L 157.431993 292.84465 
L 157.582575 292.708829 
L 157.786304 292.145799 
L 158.15833 290.297503 
L 158.63665 288.240322 
L 158.822663 288.093223 
L 158.83152 288.097912 
L 158.973245 288.308066 
L 159.256693 289.255746 
L 159.637577 290.284416 
L 159.779302 290.260866 
L 159.938741 289.917848 
L 160.213332 288.688336 
L 161.320553 283.115525 
L 161.53314 282.984897 
L 161.728011 283.15268 
L 162.162041 283.542106 
L 162.321481 283.35081 
L 162.569499 282.600168 
L 163.030103 281.283791 
L 163.145254 281.355325 
L 163.304693 281.820421 
L 163.650146 283.735077 
L 164.022173 285.258589 
L 164.208186 285.37233 
L 164.385341 285.171329 
L 164.872518 284.1256 
L 165.767153 282.256889 
L 165.776011 282.261069 
L 165.926593 282.461138 
L 166.201183 283.307424 
L 166.582068 284.284352 
L 166.706076 284.22366 
L 166.865516 283.764653 
L 167.140107 282.107881 
L 167.786724 278.132417 
L 167.955022 277.976014 
L 167.963879 277.981056 
L 168.096746 278.210365 
L 168.31819 279.16198 
L 168.849656 282.819191 
L 169.274829 284.902754 
L 169.558278 285.38183 
L 169.762006 285.370315 
L 169.98345 285.093524 
L 170.275757 284.311895 
L 170.97552 282.244612 
L 171.099529 282.373404 
L 171.320973 283.033735 
L 171.675284 283.939561 
L 171.77272 283.845448 
L 171.923302 283.273945 
L 172.189035 281.171293 
L 172.791363 276.36521 
L 172.968518 276.103999 
L 172.986234 276.111848 
L 173.110243 276.317678 
L 173.349402 277.26342 
L 174.102313 280.416549 
L 174.474339 281.038015 
L 174.722356 281.115752 
L 174.988089 280.923741 
L 175.280396 280.790193 
L 175.439836 280.979912 
L 175.687853 281.717533 
L 176.104168 282.848646 
L 176.219319 282.781111 
L 176.387617 282.295298 
L 176.795074 280.138148 
L 177.875722 273.903976 
L 178.602059 267.73192 
L 178.734925 267.550577 
L 178.761499 267.571594 
L 178.87665 267.885898 
L 179.089236 269.316777 
L 179.815573 274.78224 
L 179.921866 274.799366 
L 179.948439 274.768689 
L 180.107879 274.353772 
L 181.029087 271.423486 
L 181.277105 270.506448 
L 181.569411 268.389355 
L 182.313464 262.5958 
L 182.402041 262.573337 
L 182.428614 262.605651 
L 182.561481 263.014549 
L 182.84493 264.824092 
L 183.367538 267.879142 
L 184.005297 270.589912 
L 184.784781 275.054219 
L 184.899932 275.042477 
L 184.90879 275.031471 
L 185.059372 274.636035 
L 185.325105 273.16771 
L 186.078015 268.773979 
L 186.281744 268.566806 
L 186.423468 268.724045 
L 186.671485 269.422644 
L 187.557262 272.129718 
L 188.292457 273.595086 
L 188.416466 273.442222 
L 188.593621 272.754258 
L 188.868212 270.579221 
L 189.807135 262.314383 
L 190.108299 261.537588 
L 190.285455 261.505718 
L 190.436037 261.769567 
L 190.666339 262.733614 
L 191.897568 269.002379 
L 192.313884 269.823548 
L 192.429035 269.7454 
L 192.579617 269.25747 
L 192.801061 267.626093 
L 193.252807 262.102509 
L 193.695695 257.918041 
L 193.952571 257.092485 
L 194.103153 257.098098 
L 194.298024 257.457565 
L 194.634619 257.991657 
L 194.740912 257.82286 
L 194.90921 257.004229 
L 195.210374 254.104084 
L 195.608973 250.888297 
L 195.706409 250.77526 
L 195.750698 250.826842 
L 195.883564 251.318833 
L 196.49475 254.533904 
L 196.565612 254.46063 
L 196.707337 253.924144 
L 197.008501 251.643254 
L 197.380527 249.438291 
L 197.451389 249.401086 
L 197.495678 249.459372 
L 197.628544 250.012376 
L 197.867704 252.210004 
L 198.514321 258.384932 
L 198.682619 258.65926 
L 198.700334 258.651876 
L 198.815485 258.456444 
L 199.03693 257.528198 
L 199.6304 254.964124 
L 199.807555 254.924652 
L 200.170724 255.009511 
L 200.330164 254.59979 
L 200.631328 253.000938 
L 200.994496 251.516697 
L 201.145078 251.485576 
L 201.393096 251.839735 
L 201.561393 251.904973 
L 201.570251 251.897418 
L 201.703118 251.620646 
L 201.93342 250.470735 
L 202.438312 247.954407 
L 202.580037 247.914188 
L 202.588894 247.921356 
L 202.801481 248.264585 
L 203.00521 248.446222 
L 203.022925 248.434703 
L 203.146934 248.181404 
L 203.341805 247.125769 
L 203.731547 243.394566 
L 204.27187 238.964151 
L 204.688186 237.286925 
L 205.538531 234.870576 
L 205.573962 234.898359 
L 205.697971 235.228081 
L 205.892842 236.540654 
L 206.326873 241.569617 
L 206.636894 243.785909 
L 206.73433 243.882525 
L 206.769761 243.848418 
L 206.902628 243.451489 
L 207.513814 241.185482 
L 207.531529 241.191558 
L 207.682111 241.389626 
L 208.098426 241.975798 
L 208.24015 241.794337 
L 208.497026 240.987752 
L 208.95763 239.668027 
L 209.223363 239.516298 
L 209.47138 239.341972 
L 209.692824 238.812543 
L 210.410304 236.834796 
L 210.817761 236.490972 
L 211.039205 235.711819 
L 211.889551 231.861318 
L 211.942698 231.892227 
L 212.084422 232.194936 
L 212.359013 233.438528 
L 212.890479 235.706894 
L 213.129638 235.945382 
L 213.324509 235.8335 
L 213.944553 235.339314 
L 214.520308 235.366108 
L 214.75061 234.865667 
L 215.4238 233.244193 
L 215.556667 233.359215 
L 215.74268 233.917866 
L 216.070417 235.816561 
L 216.477875 237.757945 
L 216.637315 237.852305 
L 216.646172 237.847078 
L 216.832185 237.584089 
L 217.168781 237.184624 
L 217.337078 237.299801 
L 217.833113 237.745343 
L 217.992553 237.482263 
L 218.231713 236.568616 
L 218.71889 233.570818 
L 219.648956 228.23419 
L 219.985551 227.31645 
L 220.198137 227.225036 
L 220.375293 227.415276 
L 220.587879 228.023063 
L 220.853612 229.566461 
L 221.269927 233.619771 
L 221.77482 237.930591 
L 221.93426 238.250704 
L 221.960833 238.233335 
L 222.067126 237.94854 
L 222.253139 236.619178 
L 222.563161 232.420428 
L 224.042409 209.775286 
L 224.184133 209.516195 
L 224.210706 209.533232 
L 224.325857 209.832286 
L 224.529586 211.143024 
L 224.937043 215.569756 
L 225.495083 220.913673 
L 225.831678 222.253636 
L 226.097411 222.599736 
L 226.230277 222.485395 
L 226.389717 221.963364 
L 226.620019 220.285004 
L 226.983188 215.626212 
L 227.709525 206.299477 
L 227.877822 205.821554 
L 227.895538 205.830862 
L 227.984115 206.051592 
L 228.152413 207.22327 
L 228.586444 212.492322 
L 228.87875 214.474183 
L 228.940754 214.51385 
L 228.985043 214.458286 
L 229.11791 213.909057 
L 229.383643 211.602784 
L 230.056833 205.730875 
L 230.225131 205.382726 
L 230.251704 205.399796 
L 230.357997 205.693486 
L 230.535153 207.036377 
L 230.845174 211.536852 
L 231.305778 217.509155 
L 231.403214 217.720657 
L 231.447503 217.648025 
L 231.562654 216.954233 
L 231.766382 214.026363 
L 232.138409 204.686935 
L 232.705306 191.645429 
L 232.909034 190.484281 
L 232.917892 190.486808 
L 232.988754 190.657488 
L 233.139336 191.821718 
L 233.458216 196.568813 
L 233.936536 202.83382 
L 234.166837 203.629112 
L 234.273131 203.567904 
L 234.441428 203.094561 
L 234.645157 201.819229 
L 234.83117 199.031974 
L 235.026041 192.143547 
L 235.256343 174.502611 
L 235.566365 130.425057 
L 236.106689 55.73414 
L 236.186409 54.144 
L 236.230697 54.765249 
L 236.336991 60.50453 
L 236.549577 86.745713 
L 237.346776 195.134384 
L 237.656798 207.73744 
L 237.904816 210.80234 
L 237.975678 210.933666 
L 238.028824 210.848996 
L 238.152833 210.076742 
L 238.36542 206.968219 
L 238.684299 198.422026 
L 239.454925 176.569964 
L 239.534645 176.319199 
L 239.578934 176.428117 
L 239.694085 177.510174 
L 239.915529 182.294002 
L 240.801306 203.926463 
L 241.031608 205.036504 
L 241.111328 205.001375 
L 241.129043 204.968455 
L 241.279625 204.375432 
L 241.899669 200.849795 
L 241.988247 201.004665 
L 242.138829 201.963069 
L 242.404562 205.49434 
L 242.962601 212.855335 
L 243.139756 213.293452 
L 243.157472 213.287815 
L 243.281481 213.08374 
L 243.618076 212.461507 
L 243.635791 212.473193 
L 243.7598 212.741434 
L 243.99896 213.992249 
L 244.344413 215.450115 
L 244.424133 215.363338 
L 244.556999 214.713214 
L 244.787301 212.158147 
L 245.593358 202.114354 
L 245.690794 202.016922 
L 245.726225 202.052059 
L 245.859091 202.474347 
L 246.133682 204.326995 
L 246.718295 208.14977 
L 247.453489 211.151361 
L 247.88752 215.905842 
L 248.339266 219.787595 
L 248.631573 220.729494 
L 248.835301 220.831201 
L 248.985883 220.635862 
L 249.189612 219.936113 
L 249.464203 218.066369 
L 250.341122 210.902013 
L 250.385411 210.944618 
L 250.500562 211.386444 
L 250.70429 213.256582 
L 251.554636 222.226917 
L 251.678645 222.30063 
L 251.705218 222.280274 
L 251.864658 221.962107 
L 252.192395 220.691784 
L 252.60871 218.181062 
L 253.459056 212.707345 
L 253.671643 212.456462 
L 253.795651 212.608855 
L 253.972807 213.269893 
L 254.229682 215.230836 
L 255.07117 222.445676 
L 255.248325 222.564023 
L 255.74436 222.453353 
L 255.912658 223.066061 
L 256.14296 224.8913 
L 256.541559 230.288938 
L 257.011021 235.67206 
L 257.285612 236.761838 
L 257.53363 236.986667 
L 257.790505 236.935656 
L 258.011949 236.642667 
L 258.304255 235.796836 
L 258.764859 234.551144 
L 258.888868 234.595115 
L 259.03945 234.993236 
L 259.27861 236.415461 
L 259.721498 240.762222 
L 260.642706 249.631849 
L 260.890724 250.437827 
L 260.997017 250.364478 
L 261.147599 249.833267 
L 261.439905 247.760289 
L 262.033376 243.700787 
L 262.343398 242.948361 
L 262.662277 242.711189 
L 262.981157 242.728612 
L 263.397472 243.013726 
L 263.76064 243.4847 
L 264.017516 244.266865 
L 264.407257 246.372375 
L 264.75271 247.723577 
L 264.859004 247.745419 
L 264.885577 247.717497 
L 265.036159 247.333753 
L 265.921936 244.41691 
L 265.930794 244.419969 
L 266.081376 244.59709 
L 266.293962 245.266149 
L 266.97601 248.160888 
L 267.046872 248.084733 
L 267.197454 247.522166 
L 267.498619 245.242316 
L 267.906076 242.681265 
L 268.021227 242.570499 
L 268.056658 242.60197 
L 268.189524 242.975971 
L 268.455257 244.594591 
L 268.969008 247.525757 
L 269.225883 247.932101 
L 269.403039 247.894468 
L 269.580194 247.584184 
L 269.783923 246.706788 
L 270.058513 244.362415 
L 270.749419 238.02292 
L 270.86457 237.908044 
L 270.900001 237.936791 
L 271.041726 238.298052 
L 271.378321 239.99042 
L 271.945218 242.479268 
L 272.565262 244.68199 
L 272.839853 247.261982 
L 273.32703 254.580622 
L 273.911643 262.078638 
L 274.248238 264.072083 
L 274.407678 264.28009 
L 274.434251 264.265425 
L 274.55826 264.007544 
L 274.761988 262.914756 
L 275.080868 259.722786 
L 276.010934 249.555631 
L 276.250093 249.020163 
L 276.46268 249.009111 
L 276.790417 248.992518 
L 277.516754 248.659999 
L 277.88878 249.157056 
L 278.517682 250.165304 
L 278.756842 251.491714 
L 279.545183 256.655185 
L 279.562899 256.647706 
L 279.669192 256.442609 
L 279.87292 255.421946 
L 280.422102 252.546128 
L 280.519538 252.568791 
L 280.537253 252.595818 
L 280.687835 253.07763 
L 281.476176 256.225815 
L 281.485034 256.22357 
L 281.653332 256.052525 
L 282.184798 255.40535 
L 282.353095 255.558091 
L 282.663117 256.245983 
L 282.990855 256.766523 
L 283.150295 256.696006 
L 283.637472 256.107677 
L 283.708334 256.213055 
L 283.867774 256.839515 
L 284.106934 258.903132 
L 284.585253 265.631382 
L 284.957279 269.318264 
L 285.081288 269.574007 
L 285.116719 269.547409 
L 285.23187 269.180924 
L 285.47103 267.451175 
L 285.887345 264.798578 
L 285.967065 264.743143 
L 286.011354 264.792359 
L 286.14422 265.266297 
L 286.401095 267.248873 
L 287.260299 274.377913 
L 288.163791 278.557741 
L 288.44724 279.204205 
L 288.580106 279.145213 
L 288.774977 278.695962 
L 289.253297 277.556152 
L 289.377306 277.663293 
L 289.554461 278.226886 
L 289.864483 280.126208 
L 290.599678 284.673303 
L 290.856553 285.145661 
L 290.989419 285.065733 
L 291.175432 284.593606 
L 291.58289 282.726683 
L 291.990347 281.339064 
L 293.000133 279.087938 
L 293.620176 277.368756 
L 294.133927 276.520407 
L 294.293367 276.55426 
L 294.461664 276.903458 
L 294.71854 278.081068 
L 295.382872 281.293407 
L 295.719467 281.746563 
L 296.312938 282.289033 
L 296.330653 282.269986 
L 296.481235 281.906867 
L 296.693822 280.693429 
L 297.065848 276.967333 
L 297.623888 271.909173 
L 297.951625 270.715294 
L 298.261647 270.316155 
L 298.465376 270.330802 
L 298.642531 270.616688 
L 298.872833 271.514845 
L 299.236001 274.050201 
L 299.829472 277.942995 
L 300.077489 278.405332 
L 300.236929 278.344217 
L 300.484947 277.921577 
L 301.237857 276.562838 
L 302.026198 275.66014 
L 302.708246 274.453805 
L 302.991695 274.418256 
L 303.284001 274.597261 
L 303.549734 275.058577 
L 304.028054 276.504713 
L 304.727817 278.268095 
L 305.099844 278.868166 
L 305.241568 278.799268 
L 305.409866 278.373352 
L 305.666741 276.968156 
L 306.481656 272.010692 
L 306.649953 271.960234 
L 306.844824 272.233961 
L 307.367432 273.49623 
L 307.748316 274.986643 
L 308.944115 281.23473 
L 309.714741 285.99752 
L 310.015905 286.666954 
L 310.19306 286.685569 
L 310.379073 286.42377 
L 310.786531 285.309443 
L 311.255993 284.342497 
L 311.548299 283.589141 
L 311.831747 282.109348 
L 312.469507 277.058764 
L 312.992115 274.042052 
L 313.337568 273.034761 
L 313.470435 273.023684 
L 313.479292 273.032697 
L 313.621017 273.352057 
L 313.860176 274.570717 
L 314.630802 278.867954 
L 314.887677 279.177503 
L 315.073691 279.102487 
L 315.303993 278.712171 
L 315.667161 277.568914 
L 317.181839 272.384107 
L 317.305848 272.492352 
L 317.491861 273.046146 
L 317.828456 274.934524 
L 318.413069 277.983613 
L 318.758522 278.71729 
L 319.44057 279.805491 
L 319.883459 281.352838 
L 320.530076 283.447618 
L 320.778093 283.662523 
L 320.946391 283.528953 
L 321.274128 282.865987 
L 321.548719 282.551954 
L 321.681585 282.689817 
L 321.876456 283.308823 
L 322.266198 285.513057 
L 322.788806 288.011294 
L 323.107686 288.627424 
L 323.293699 288.625353 
L 323.479712 288.343861 
L 323.780876 287.394613 
L 324.702084 284.227656 
L 324.888098 284.211105 
L 325.109542 284.481097 
L 325.614434 285.529017 
L 325.906741 286.676285 
L 326.881095 291.201741 
L 327.10254 291.110806 
L 327.332841 291.100851 
L 327.501139 291.368525 
L 327.766872 292.30298 
L 328.324911 294.247631 
L 328.510925 294.305757 
L 328.723511 294.055073 
L 329.104395 293.645732 
L 329.272693 293.768298 
L 329.52071 294.315776 
L 330.247047 296.03884 
L 330.636789 296.310837 
L 331.327695 296.492297 
L 331.788299 296.412376 
L 332.133752 296.103242 
L 332.789227 295.467455 
L 333.444701 295.230273 
L 333.72815 294.587239 
L 334.472202 292.76298 
L 335.526277 291.670472 
L 335.694574 291.792999 
L 335.933734 292.325579 
L 336.332334 293.117171 
L 336.447485 293.012941 
L 336.62464 292.435149 
L 337.005524 290.146124 
L 337.333262 288.824174 
L 337.439555 288.799623 
L 337.466128 288.829525 
L 337.607852 289.230244 
L 337.847012 290.727325 
L 339.033953 299.455318 
L 339.16682 299.423016 
L 339.335117 299.026613 
L 339.636281 297.58565 
L 340.628351 292.470889 
L 341.186391 290.85176 
L 341.390119 290.731616 
L 341.531844 290.940942 
L 341.74443 291.7732 
L 342.134172 294.463724 
L 342.541629 296.705647 
L 342.683353 296.848087 
L 342.709927 296.829605 
L 342.842793 296.531015 
L 343.090811 295.24522 
L 343.622277 292.513315 
L 343.746286 292.447153 
L 343.772859 292.469154 
L 343.914583 292.780697 
L 344.224605 294.179188 
L 344.64092 295.727789 
L 344.853507 295.891665 
L 345.048378 295.750481 
L 346.811073 293.84323 
L 346.988229 294.083477 
L 347.236246 294.889228 
L 348.130881 298.256049 
L 348.272605 298.174275 
L 348.467476 297.708131 
L 348.804071 296.195003 
L 349.751852 291.697015 
L 350.026443 291.350386 
L 350.247887 291.38193 
L 350.478189 291.664901 
L 350.743922 292.401446 
L 351.186811 294.50128 
L 351.541121 295.658145 
L 351.727135 295.730567 
L 351.975152 295.492844 
L 352.258601 295.341538 
L 352.488903 295.507632 
L 352.852071 295.739728 
L 353.046942 295.581461 
L 353.675844 294.906141 
L 353.88843 295.129188 
L 354.543905 295.95672 
L 354.809638 295.847409 
L 355.11966 295.778598 
L 355.314531 296.002007 
L 355.677699 296.885778 
L 355.970005 297.315746 
L 356.120588 297.219565 
L 356.350889 296.700091 
L 356.758347 295.862916 
L 356.891213 295.936674 
L 357.068369 296.381475 
L 357.413822 298.017053 
L 357.93643 300.190335 
L 358.237594 300.630314 
L 358.521043 300.6917 
L 358.813349 300.532615 
L 359.132229 300.072763 
L 360.195161 298.296042 
L 360.443178 298.267964 
L 360.646907 298.498796 
L 360.99236 299.327783 
L 361.373244 300.037514 
L 361.550399 300.02431 
L 361.771844 299.720207 
L 362.312167 298.949988 
L 362.507038 299.024198 
L 362.808202 299.454152 
L 363.304237 300.081373 
L 364.163441 300.679556 
L 365.102364 302.212446 
L 365.111222 302.207411 
L 365.314951 301.94994 
L 366.041288 300.834871 
L 366.253874 300.964762 
L 366.581612 301.490576 
L 367.93685 303.992384 
L 368.583467 304.282263 
L 368.796054 304.141786 
L 369.017498 303.713981 
L 369.017498 303.713981 
" style="fill:none;stroke:#ff7f0e;stroke-linecap:square;stroke-width:1.5;"/>
   </g>
   <g id="patch_103">
    <path d="M 57.6 307.584 
L 57.6 41.472 
" style="fill:none;stroke:#000000;stroke-linecap:square;stroke-linejoin:miter;stroke-width:0.8;"/>
   </g>
   <g id="patch_104">
    <path d="M 414.72 307.584 
L 414.72 41.472 
" style="fill:none;stroke:#000000;stroke-linecap:square;stroke-linejoin:miter;stroke-width:0.8;"/>
   </g>
   <g id="patch_105">
    <path d="M 57.6 307.584 
L 414.72 307.584 
" style="fill:none;stroke:#000000;stroke-linecap:square;stroke-linejoin:miter;stroke-width:0.8;"/>
   </g>
   <g id="patch_106">
    <path d="M 57.6 41.472 
L 414.72 41.472 
" style="fill:none;stroke:#000000;stroke-linecap:square;stroke-linejoin:miter;stroke-width:0.8;"/>
   </g>
  </g>
 </g>
 <defs>
  <clipPath id="p7549dc32d2">
   <rect height="266.112" width="357.12" x="57.6" y="41.472"/>
  </clipPath>
 </defs>
</svg>
