<?xml version="1.0" encoding="utf-8" standalone="no"?>
<!DOCTYPE svg PUBLIC "-//W3C//DTD SVG 1.1//EN"
  "http://www.w3.org/Graphics/SVG/1.1/DTD/svg11.dtd">
<!-- Created with matplotlib (https://matplotlib.org/) -->
<svg height="345.6pt" version="1.1" viewBox="0 0 460.8 345.6" width="460.8pt" xmlns="http://www.w3.org/2000/svg" xmlns:xlink="http://www.w3.org/1999/xlink">
 <defs>
  <style type="text/css">
*{stroke-linecap:butt;stroke-linejoin:round;}
  </style>
 </defs>
 <g id="figure_1">
  <g id="patch_1">
   <path d="M 0 345.6 
L 460.8 345.6 
L 460.8 0 
L 0 0 
z
" style="fill:#ffffff;"/>
  </g>
  <g id="axes_1">
   <g id="patch_2">
    <path d="M 57.6 307.584 
L 414.72 307.584 
L 414.72 41.472 
L 57.6 41.472 
z
" style="fill:#ffffff;"/>
   </g>
   <g id="patch_3">
    <path clip-path="url(#p391440651f)" d="M 93.576268 307.584 
L 96.625377 307.584 
L 96.625377 306.557667 
L 93.576268 306.557667 
z
" style="fill:#1f77b4;"/>
   </g>
   <g id="patch_4">
    <path clip-path="url(#p391440651f)" d="M 96.625377 307.584 
L 99.674487 307.584 
L 99.674487 307.070834 
L 96.625377 307.070834 
z
" style="fill:#1f77b4;"/>
   </g>
   <g id="patch_5">
    <path clip-path="url(#p391440651f)" d="M 99.674487 307.584 
L 102.723596 307.584 
L 102.723596 306.044501 
L 99.674487 306.044501 
z
" style="fill:#1f77b4;"/>
   </g>
   <g id="patch_6">
    <path clip-path="url(#p391440651f)" d="M 102.723596 307.584 
L 105.772706 307.584 
L 105.772706 304.505001 
L 102.723596 304.505001 
z
" style="fill:#1f77b4;"/>
   </g>
   <g id="patch_7">
    <path clip-path="url(#p391440651f)" d="M 105.772706 307.584 
L 108.821815 307.584 
L 108.821815 305.531334 
L 105.772706 305.531334 
z
" style="fill:#1f77b4;"/>
   </g>
   <g id="patch_8">
    <path clip-path="url(#p391440651f)" d="M 108.821815 307.584 
L 111.870925 307.584 
L 111.870925 304.505001 
L 108.821815 304.505001 
z
" style="fill:#1f77b4;"/>
   </g>
   <g id="patch_9">
    <path clip-path="url(#p391440651f)" d="M 111.870925 307.584 
L 114.920041 307.584 
L 114.920041 305.531339 
L 111.870925 305.531339 
z
" style="fill:#1f77b4;"/>
   </g>
   <g id="patch_10">
    <path clip-path="url(#p391440651f)" d="M 114.920041 307.584 
L 117.969151 307.584 
L 117.969151 304.505001 
L 114.920041 304.505001 
z
" style="fill:#1f77b4;"/>
   </g>
   <g id="patch_11">
    <path clip-path="url(#p391440651f)" d="M 117.969151 307.584 
L 121.01826 307.584 
L 121.01826 302.965502 
L 117.969151 302.965502 
z
" style="fill:#1f77b4;"/>
   </g>
   <g id="patch_12">
    <path clip-path="url(#p391440651f)" d="M 121.01826 307.584 
L 124.06737 307.584 
L 124.06737 301.939169 
L 121.01826 301.939169 
z
" style="fill:#1f77b4;"/>
   </g>
   <g id="patch_13">
    <path clip-path="url(#p391440651f)" d="M 124.06737 307.584 
L 127.116479 307.584 
L 127.116479 300.912836 
L 124.06737 300.912836 
z
" style="fill:#1f77b4;"/>
   </g>
   <g id="patch_14">
    <path clip-path="url(#p391440651f)" d="M 127.116479 307.584 
L 130.165589 307.584 
L 130.165589 297.833837 
L 127.116479 297.833837 
z
" style="fill:#1f77b4;"/>
   </g>
   <g id="patch_15">
    <path clip-path="url(#p391440651f)" d="M 130.165589 307.584 
L 133.214698 307.584 
L 133.214698 295.781172 
L 130.165589 295.781172 
z
" style="fill:#1f77b4;"/>
   </g>
   <g id="patch_16">
    <path clip-path="url(#p391440651f)" d="M 133.214698 307.584 
L 136.263808 307.584 
L 136.263808 296.807505 
L 133.214698 296.807505 
z
" style="fill:#1f77b4;"/>
   </g>
   <g id="patch_17">
    <path clip-path="url(#p391440651f)" d="M 136.263808 307.584 
L 139.312917 307.584 
L 139.312917 288.083675 
L 136.263808 288.083675 
z
" style="fill:#1f77b4;"/>
   </g>
   <g id="patch_18">
    <path clip-path="url(#p391440651f)" d="M 139.312917 307.584 
L 142.362027 307.584 
L 142.362027 289.110008 
L 139.312917 289.110008 
z
" style="fill:#1f77b4;"/>
   </g>
   <g id="patch_19">
    <path clip-path="url(#p391440651f)" d="M 142.362027 307.584 
L 145.411136 307.584 
L 145.411136 283.465177 
L 142.362027 283.465177 
z
" style="fill:#1f77b4;"/>
   </g>
   <g id="patch_20">
    <path clip-path="url(#p391440651f)" d="M 145.411136 307.584 
L 148.460246 307.584 
L 148.460246 285.517843 
L 145.411136 285.517843 
z
" style="fill:#1f77b4;"/>
   </g>
   <g id="patch_21">
    <path clip-path="url(#p391440651f)" d="M 148.460253 307.584 
L 151.509369 307.584 
L 151.509369 282.952067 
L 148.460253 282.952067 
z
" style="fill:#1f77b4;"/>
   </g>
   <g id="patch_22">
    <path clip-path="url(#p391440651f)" d="M 151.509362 307.584 
L 154.558472 307.584 
L 154.558472 279.359845 
L 151.509362 279.359845 
z
" style="fill:#1f77b4;"/>
   </g>
   <g id="patch_23">
    <path clip-path="url(#p391440651f)" d="M 154.558472 307.584 
L 157.607581 307.584 
L 157.607581 271.149182 
L 154.558472 271.149182 
z
" style="fill:#1f77b4;"/>
   </g>
   <g id="patch_24">
    <path clip-path="url(#p391440651f)" d="M 157.607581 307.584 
L 160.656691 307.584 
L 160.656691 282.95201 
L 157.607581 282.95201 
z
" style="fill:#1f77b4;"/>
   </g>
   <g id="patch_25">
    <path clip-path="url(#p391440651f)" d="M 160.656691 307.584 
L 163.7058 307.584 
L 163.7058 276.794013 
L 160.656691 276.794013 
z
" style="fill:#1f77b4;"/>
   </g>
   <g id="patch_26">
    <path clip-path="url(#p391440651f)" d="M 163.7058 307.584 
L 166.75491 307.584 
L 166.75491 278.333512 
L 163.7058 278.333512 
z
" style="fill:#1f77b4;"/>
   </g>
   <g id="patch_27">
    <path clip-path="url(#p391440651f)" d="M 166.75491 307.584 
L 169.804019 307.584 
L 169.804019 264.478018 
L 166.75491 264.478018 
z
" style="fill:#1f77b4;"/>
   </g>
   <g id="patch_28">
    <path clip-path="url(#p391440651f)" d="M 169.804019 307.584 
L 172.853129 307.584 
L 172.853129 263.451685 
L 169.804019 263.451685 
z
" style="fill:#1f77b4;"/>
   </g>
   <g id="patch_29">
    <path clip-path="url(#p391440651f)" d="M 172.853129 307.584 
L 175.902238 307.584 
L 175.902238 253.188356 
L 172.853129 253.188356 
z
" style="fill:#1f77b4;"/>
   </g>
   <g id="patch_30">
    <path clip-path="url(#p391440651f)" d="M 175.902238 307.584 
L 178.951348 307.584 
L 178.951348 251.135691 
L 175.902238 251.135691 
z
" style="fill:#1f77b4;"/>
   </g>
   <g id="patch_31">
    <path clip-path="url(#p391440651f)" d="M 178.951348 307.584 
L 182.000461 307.584 
L 182.000461 261.912238 
L 178.951348 261.912238 
z
" style="fill:#1f77b4;"/>
   </g>
   <g id="patch_32">
    <path clip-path="url(#p391440651f)" d="M 182.000461 307.584 
L 185.04957 307.584 
L 185.04957 253.188356 
L 182.000461 253.188356 
z
" style="fill:#1f77b4;"/>
   </g>
   <g id="patch_33">
    <path clip-path="url(#p391440651f)" d="M 185.04957 307.584 
L 188.09868 307.584 
L 188.09868 240.872362 
L 185.04957 240.872362 
z
" style="fill:#1f77b4;"/>
   </g>
   <g id="patch_34">
    <path clip-path="url(#p391440651f)" d="M 188.09868 307.584 
L 191.147789 307.584 
L 191.147789 237.793363 
L 188.09868 237.793363 
z
" style="fill:#1f77b4;"/>
   </g>
   <g id="patch_35">
    <path clip-path="url(#p391440651f)" d="M 191.147789 307.584 
L 194.1969 307.584 
L 194.1969 236.253904 
L 191.147789 236.253904 
z
" style="fill:#1f77b4;"/>
   </g>
   <g id="patch_36">
    <path clip-path="url(#p391440651f)" d="M 194.1969 307.584 
L 197.24601 307.584 
L 197.24601 236.253863 
L 194.1969 236.253863 
z
" style="fill:#1f77b4;"/>
   </g>
   <g id="patch_37">
    <path clip-path="url(#p391440651f)" d="M 197.24601 307.584 
L 200.295119 307.584 
L 200.295119 236.253863 
L 197.24601 236.253863 
z
" style="fill:#1f77b4;"/>
   </g>
   <g id="patch_38">
    <path clip-path="url(#p391440651f)" d="M 200.295121 307.584 
L 203.344232 307.584 
L 203.344232 232.148575 
L 200.295121 232.148575 
z
" style="fill:#1f77b4;"/>
   </g>
   <g id="patch_39">
    <path clip-path="url(#p391440651f)" d="M 203.344231 307.584 
L 206.39334 307.584 
L 206.39334 232.661698 
L 203.344231 232.661698 
z
" style="fill:#1f77b4;"/>
   </g>
   <g id="patch_40">
    <path clip-path="url(#p391440651f)" d="M 206.39334 307.584 
L 209.442449 307.584 
L 209.442449 212.648207 
L 206.39334 212.648207 
z
" style="fill:#1f77b4;"/>
   </g>
   <g id="patch_41">
    <path clip-path="url(#p391440651f)" d="M 209.442449 307.584 
L 212.49156 307.584 
L 212.49156 206.490238 
L 209.442449 206.490238 
z
" style="fill:#1f77b4;"/>
   </g>
   <g id="patch_42">
    <path clip-path="url(#p391440651f)" d="M 212.49156 307.584 
L 215.54067 307.584 
L 215.54067 210.595555 
L 212.49156 210.595555 
z
" style="fill:#1f77b4;"/>
   </g>
   <g id="patch_43">
    <path clip-path="url(#p391440651f)" d="M 215.54067 307.584 
L 218.58978 307.584 
L 218.58978 205.977065 
L 215.54067 205.977065 
z
" style="fill:#1f77b4;"/>
   </g>
   <g id="patch_44">
    <path clip-path="url(#p391440651f)" d="M 218.58978 307.584 
L 221.63889 307.584 
L 221.63889 137.212763 
L 218.58978 137.212763 
z
" style="fill:#1f77b4;"/>
   </g>
   <g id="patch_45">
    <path clip-path="url(#p391440651f)" d="M 221.63889 307.584 
L 224.688 307.584 
L 224.688 188.529401 
L 221.63889 188.529401 
z
" style="fill:#1f77b4;"/>
   </g>
   <g id="patch_46">
    <path clip-path="url(#p391440651f)" d="M 224.688 307.584 
L 227.73711 307.584 
L 227.73711 201.35856 
L 224.688 201.35856 
z
" style="fill:#1f77b4;"/>
   </g>
   <g id="patch_47">
    <path clip-path="url(#p391440651f)" d="M 227.73711 307.584 
L 230.78622 307.584 
L 230.78622 196.226912 
L 227.73711 196.226912 
z
" style="fill:#1f77b4;"/>
   </g>
   <g id="patch_48">
    <path clip-path="url(#p391440651f)" d="M 230.78622 307.584 
L 233.83533 307.584 
L 233.83533 204.95071 
L 230.78622 204.95071 
z
" style="fill:#1f77b4;"/>
   </g>
   <g id="patch_49">
    <path clip-path="url(#p391440651f)" d="M 233.835331 307.584 
L 236.884442 307.584 
L 236.884442 205.463906 
L 233.835331 205.463906 
z
" style="fill:#1f77b4;"/>
   </g>
   <g id="patch_50">
    <path clip-path="url(#p391440651f)" d="M 236.88444 307.584 
L 239.93355 307.584 
L 239.93355 205.463876 
L 236.88444 205.463876 
z
" style="fill:#1f77b4;"/>
   </g>
   <g id="patch_51">
    <path clip-path="url(#p391440651f)" d="M 239.933551 307.584 
L 242.982663 307.584 
L 242.982663 217.779923 
L 239.933551 217.779923 
z
" style="fill:#1f77b4;"/>
   </g>
   <g id="patch_52">
    <path clip-path="url(#p391440651f)" d="M 242.982661 307.584 
L 246.03177 307.584 
L 246.03177 230.095866 
L 242.982661 230.095866 
z
" style="fill:#1f77b4;"/>
   </g>
   <g id="patch_53">
    <path clip-path="url(#p391440651f)" d="M 246.03177 307.584 
L 249.08088 307.584 
L 249.08088 246.517192 
L 246.03177 246.517192 
z
" style="fill:#1f77b4;"/>
   </g>
   <g id="patch_54">
    <path clip-path="url(#p391440651f)" d="M 249.08088 307.584 
L 252.129989 307.584 
L 252.129989 237.793363 
L 249.08088 237.793363 
z
" style="fill:#1f77b4;"/>
   </g>
   <g id="patch_55">
    <path clip-path="url(#p391440651f)" d="M 252.129989 307.584 
L 255.179099 307.584 
L 255.179099 241.385528 
L 252.129989 241.385528 
z
" style="fill:#1f77b4;"/>
   </g>
   <g id="patch_56">
    <path clip-path="url(#p391440651f)" d="M 255.179099 307.584 
L 258.228212 307.584 
L 258.228212 231.635452 
L 255.179099 231.635452 
z
" style="fill:#1f77b4;"/>
   </g>
   <g id="patch_57">
    <path clip-path="url(#p391440651f)" d="M 258.228212 307.584 
L 261.277321 307.584 
L 261.277321 232.661698 
L 258.228212 232.661698 
z
" style="fill:#1f77b4;"/>
   </g>
   <g id="patch_58">
    <path clip-path="url(#p391440651f)" d="M 261.277321 307.584 
L 264.326431 307.584 
L 264.326431 254.727856 
L 261.277321 254.727856 
z
" style="fill:#1f77b4;"/>
   </g>
   <g id="patch_59">
    <path clip-path="url(#p391440651f)" d="M 264.326431 307.584 
L 267.37554 307.584 
L 267.37554 239.332862 
L 264.326431 239.332862 
z
" style="fill:#1f77b4;"/>
   </g>
   <g id="patch_60">
    <path clip-path="url(#p391440651f)" d="M 267.37554 307.584 
L 270.42465 307.584 
L 270.42465 253.701523 
L 267.37554 253.701523 
z
" style="fill:#1f77b4;"/>
   </g>
   <g id="patch_61">
    <path clip-path="url(#p391440651f)" d="M 270.42465 307.584 
L 273.473759 307.584 
L 273.473759 252.67519 
L 270.42465 252.67519 
z
" style="fill:#1f77b4;"/>
   </g>
   <g id="patch_62">
    <path clip-path="url(#p391440651f)" d="M 273.473763 307.584 
L 276.522876 307.584 
L 276.522876 273.201887 
L 273.473763 273.201887 
z
" style="fill:#1f77b4;"/>
   </g>
   <g id="patch_63">
    <path clip-path="url(#p391440651f)" d="M 276.522872 307.584 
L 279.571982 307.584 
L 279.571982 278.846679 
L 276.522872 278.846679 
z
" style="fill:#1f77b4;"/>
   </g>
   <g id="patch_64">
    <path clip-path="url(#p391440651f)" d="M 279.571982 307.584 
L 282.621091 307.584 
L 282.621091 283.465177 
L 279.571982 283.465177 
z
" style="fill:#1f77b4;"/>
   </g>
   <g id="patch_65">
    <path clip-path="url(#p391440651f)" d="M 282.621091 307.584 
L 285.670201 307.584 
L 285.670201 285.004676 
L 282.621091 285.004676 
z
" style="fill:#1f77b4;"/>
   </g>
   <g id="patch_66">
    <path clip-path="url(#p391440651f)" d="M 285.670201 307.584 
L 288.71931 307.584 
L 288.71931 286.544176 
L 285.670201 286.544176 
z
" style="fill:#1f77b4;"/>
   </g>
   <g id="patch_67">
    <path clip-path="url(#p391440651f)" d="M 288.71931 307.584 
L 291.76842 307.584 
L 291.76842 283.978343 
L 288.71931 283.978343 
z
" style="fill:#1f77b4;"/>
   </g>
   <g id="patch_68">
    <path clip-path="url(#p391440651f)" d="M 291.76842 307.584 
L 294.817529 307.584 
L 294.817529 280.899345 
L 291.76842 280.899345 
z
" style="fill:#1f77b4;"/>
   </g>
   <g id="patch_69">
    <path clip-path="url(#p391440651f)" d="M 294.817529 307.584 
L 297.866639 307.584 
L 297.866639 278.846679 
L 294.817529 278.846679 
z
" style="fill:#1f77b4;"/>
   </g>
   <g id="patch_70">
    <path clip-path="url(#p391440651f)" d="M 297.866639 307.584 
L 300.915748 307.584 
L 300.915748 274.228181 
L 297.866639 274.228181 
z
" style="fill:#1f77b4;"/>
   </g>
   <g id="patch_71">
    <path clip-path="url(#p391440651f)" d="M 300.915755 307.584 
L 303.964872 307.584 
L 303.964872 286.031058 
L 300.915755 286.031058 
z
" style="fill:#1f77b4;"/>
   </g>
   <g id="patch_72">
    <path clip-path="url(#p391440651f)" d="M 303.964865 307.584 
L 307.013974 307.584 
L 307.013974 267.04385 
L 303.964865 267.04385 
z
" style="fill:#1f77b4;"/>
   </g>
   <g id="patch_73">
    <path clip-path="url(#p391440651f)" d="M 307.013974 307.584 
L 310.063084 307.584 
L 310.063084 275.254514 
L 307.013974 275.254514 
z
" style="fill:#1f77b4;"/>
   </g>
   <g id="patch_74">
    <path clip-path="url(#p391440651f)" d="M 310.063084 307.584 
L 313.112193 307.584 
L 313.112193 271.662349 
L 310.063084 271.662349 
z
" style="fill:#1f77b4;"/>
   </g>
   <g id="patch_75">
    <path clip-path="url(#p391440651f)" d="M 313.112193 307.584 
L 316.161303 307.584 
L 316.161303 284.49151 
L 313.112193 284.49151 
z
" style="fill:#1f77b4;"/>
   </g>
   <g id="patch_76">
    <path clip-path="url(#p391440651f)" d="M 316.161303 307.584 
L 319.210412 307.584 
L 319.210412 287.570508 
L 316.161303 287.570508 
z
" style="fill:#1f77b4;"/>
   </g>
   <g id="patch_77">
    <path clip-path="url(#p391440651f)" d="M 319.210412 307.584 
L 322.259522 307.584 
L 322.259522 291.162674 
L 319.210412 291.162674 
z
" style="fill:#1f77b4;"/>
   </g>
   <g id="patch_78">
    <path clip-path="url(#p391440651f)" d="M 322.259522 307.584 
L 325.308631 307.584 
L 325.308631 293.215339 
L 322.259522 293.215339 
z
" style="fill:#1f77b4;"/>
   </g>
   <g id="patch_79">
    <path clip-path="url(#p391440651f)" d="M 325.308631 307.584 
L 328.357741 307.584 
L 328.357741 289.623174 
L 325.308631 289.623174 
z
" style="fill:#1f77b4;"/>
   </g>
   <g id="patch_80">
    <path clip-path="url(#p391440651f)" d="M 328.357741 307.584 
L 331.40685 307.584 
L 331.40685 286.544176 
L 328.357741 286.544176 
z
" style="fill:#1f77b4;"/>
   </g>
   <g id="patch_81">
    <path clip-path="url(#p391440651f)" d="M 331.40685 307.584 
L 334.455959 307.584 
L 334.455959 290.649507 
L 331.40685 290.649507 
z
" style="fill:#1f77b4;"/>
   </g>
   <g id="patch_82">
    <path clip-path="url(#p391440651f)" d="M 334.455959 307.584 
L 337.505069 307.584 
L 337.505069 285.004676 
L 334.455959 285.004676 
z
" style="fill:#1f77b4;"/>
   </g>
   <g id="patch_83">
    <path clip-path="url(#p391440651f)" d="M 337.505069 307.584 
L 340.554178 307.584 
L 340.554178 288.083675 
L 337.505069 288.083675 
z
" style="fill:#1f77b4;"/>
   </g>
   <g id="patch_84">
    <path clip-path="url(#p391440651f)" d="M 340.554178 307.584 
L 343.603288 307.584 
L 343.603288 290.649507 
L 340.554178 290.649507 
z
" style="fill:#1f77b4;"/>
   </g>
   <g id="patch_85">
    <path clip-path="url(#p391440651f)" d="M 343.603288 307.584 
L 346.652397 307.584 
L 346.652397 288.083675 
L 343.603288 288.083675 
z
" style="fill:#1f77b4;"/>
   </g>
   <g id="patch_86">
    <path clip-path="url(#p391440651f)" d="M 346.652397 307.584 
L 349.701507 307.584 
L 349.701507 291.162674 
L 346.652397 291.162674 
z
" style="fill:#1f77b4;"/>
   </g>
   <g id="patch_87">
    <path clip-path="url(#p391440651f)" d="M 349.701507 307.584 
L 352.750616 307.584 
L 352.750616 293.215339 
L 349.701507 293.215339 
z
" style="fill:#1f77b4;"/>
   </g>
   <g id="patch_88">
    <path clip-path="url(#p391440651f)" d="M 352.750616 307.584 
L 355.799726 307.584 
L 355.799726 297.833837 
L 352.750616 297.833837 
z
" style="fill:#1f77b4;"/>
   </g>
   <g id="patch_89">
    <path clip-path="url(#p391440651f)" d="M 355.799726 307.584 
L 358.848835 307.584 
L 358.848835 295.268005 
L 355.799726 295.268005 
z
" style="fill:#1f77b4;"/>
   </g>
   <g id="patch_90">
    <path clip-path="url(#p391440651f)" d="M 358.848835 307.584 
L 361.897959 307.584 
L 361.897959 296.807554 
L 358.848835 296.807554 
z
" style="fill:#1f77b4;"/>
   </g>
   <g id="patch_91">
    <path clip-path="url(#p391440651f)" d="M 361.897959 307.584 
L 364.947068 307.584 
L 364.947068 298.347004 
L 361.897959 298.347004 
z
" style="fill:#1f77b4;"/>
   </g>
   <g id="patch_92">
    <path clip-path="url(#p391440651f)" d="M 364.947068 307.584 
L 367.996178 307.584 
L 367.996178 299.886503 
L 364.947068 299.886503 
z
" style="fill:#1f77b4;"/>
   </g>
   <g id="patch_93">
    <path clip-path="url(#p391440651f)" d="M 367.996178 307.584 
L 371.045287 307.584 
L 371.045287 293.215339 
L 367.996178 293.215339 
z
" style="fill:#1f77b4;"/>
   </g>
   <g id="patch_94">
    <path clip-path="url(#p391440651f)" d="M 371.045287 307.584 
L 374.094397 307.584 
L 374.094397 298.86017 
L 371.045287 298.86017 
z
" style="fill:#1f77b4;"/>
   </g>
   <g id="patch_95">
    <path clip-path="url(#p391440651f)" d="M 374.094397 307.584 
L 377.143506 307.584 
L 377.143506 291.162674 
L 374.094397 291.162674 
z
" style="fill:#1f77b4;"/>
   </g>
   <g id="patch_96">
    <path clip-path="url(#p391440651f)" d="M 377.143506 307.584 
L 380.192616 307.584 
L 380.192616 293.728506 
L 377.143506 293.728506 
z
" style="fill:#1f77b4;"/>
   </g>
   <g id="patch_97">
    <path clip-path="url(#p391440651f)" d="M 380.192616 307.584 
L 383.241725 307.584 
L 383.241725 290.136341 
L 380.192616 290.136341 
z
" style="fill:#1f77b4;"/>
   </g>
   <g id="patch_98">
    <path clip-path="url(#p391440651f)" d="M 383.241725 307.584 
L 386.290835 307.584 
L 386.290835 298.86017 
L 383.241725 298.86017 
z
" style="fill:#1f77b4;"/>
   </g>
   <g id="patch_99">
    <path clip-path="url(#p391440651f)" d="M 386.290835 307.584 
L 389.339944 307.584 
L 389.339944 297.833837 
L 386.290835 297.833837 
z
" style="fill:#1f77b4;"/>
   </g>
   <g id="patch_100">
    <path clip-path="url(#p391440651f)" d="M 389.339944 307.584 
L 392.389054 307.584 
L 392.389054 297.320671 
L 389.339944 297.320671 
z
" style="fill:#1f77b4;"/>
   </g>
   <g id="patch_101">
    <path clip-path="url(#p391440651f)" d="M 392.389054 307.584 
L 395.438163 307.584 
L 395.438163 303.478668 
L 392.389054 303.478668 
z
" style="fill:#1f77b4;"/>
   </g>
   <g id="patch_102">
    <path clip-path="url(#p391440651f)" d="M 395.438163 307.584 
L 398.487273 307.584 
L 398.487273 301.426003 
L 395.438163 301.426003 
z
" style="fill:#1f77b4;"/>
   </g>
   <g id="matplotlib.axis_1">
    <g id="xtick_1">
     <g id="line2d_1">
      <defs>
       <path d="M 0 0 
L 0 3.5 
" id="m778661be42" style="stroke:#000000;stroke-width:0.8;"/>
      </defs>
      <g>
       <use style="stroke:#000000;stroke-width:0.8;" x="103.058068" xlink:href="#m778661be42" y="307.584"/>
      </g>
     </g>
     <g id="text_1">
      <!-- −2 -->
      <defs>
       <path d="M 10.59375 35.5 
L 73.1875 35.5 
L 73.1875 27.203125 
L 10.59375 27.203125 
z
" id="DejaVuSans-8722"/>
       <path d="M 19.1875 8.296875 
L 53.609375 8.296875 
L 53.609375 0 
L 7.328125 0 
L 7.328125 8.296875 
Q 12.9375 14.109375 22.625 23.890625 
Q 32.328125 33.6875 34.8125 36.53125 
Q 39.546875 41.84375 41.421875 45.53125 
Q 43.3125 49.21875 43.3125 52.78125 
Q 43.3125 58.59375 39.234375 62.25 
Q 35.15625 65.921875 28.609375 65.921875 
Q 23.96875 65.921875 18.8125 64.3125 
Q 13.671875 62.703125 7.8125 59.421875 
L 7.8125 69.390625 
Q 13.765625 71.78125 18.9375 73 
Q 24.125 74.21875 28.421875 74.21875 
Q 39.75 74.21875 46.484375 68.546875 
Q 53.21875 62.890625 53.21875 53.421875 
Q 53.21875 48.921875 51.53125 44.890625 
Q 49.859375 40.875 45.40625 35.40625 
Q 44.1875 33.984375 37.640625 27.21875 
Q 31.109375 20.453125 19.1875 8.296875 
z
" id="DejaVuSans-50"/>
      </defs>
      <g transform="translate(90.527208 327.501344)scale(0.17 -0.17)">
       <use xlink:href="#DejaVuSans-8722"/>
       <use x="83.789062" xlink:href="#DejaVuSans-50"/>
      </g>
     </g>
    </g>
    <g id="xtick_2">
     <g id="line2d_2">
      <g>
       <use style="stroke:#000000;stroke-width:0.8;" x="161.508749" xlink:href="#m778661be42" y="307.584"/>
      </g>
     </g>
     <g id="text_2">
      <!-- −1 -->
      <defs>
       <path d="M 12.40625 8.296875 
L 28.515625 8.296875 
L 28.515625 63.921875 
L 10.984375 60.40625 
L 10.984375 69.390625 
L 28.421875 72.90625 
L 38.28125 72.90625 
L 38.28125 8.296875 
L 54.390625 8.296875 
L 54.390625 0 
L 12.40625 0 
z
" id="DejaVuSans-49"/>
      </defs>
      <g transform="translate(148.97789 327.501344)scale(0.17 -0.17)">
       <use xlink:href="#DejaVuSans-8722"/>
       <use x="83.789062" xlink:href="#DejaVuSans-49"/>
      </g>
     </g>
    </g>
    <g id="xtick_3">
     <g id="line2d_3">
      <g>
       <use style="stroke:#000000;stroke-width:0.8;" x="219.95943" xlink:href="#m778661be42" y="307.584"/>
      </g>
     </g>
     <g id="text_3">
      <!-- 0 -->
      <defs>
       <path d="M 31.78125 66.40625 
Q 24.171875 66.40625 20.328125 58.90625 
Q 16.5 51.421875 16.5 36.375 
Q 16.5 21.390625 20.328125 13.890625 
Q 24.171875 6.390625 31.78125 6.390625 
Q 39.453125 6.390625 43.28125 13.890625 
Q 47.125 21.390625 47.125 36.375 
Q 47.125 51.421875 43.28125 58.90625 
Q 39.453125 66.40625 31.78125 66.40625 
z
M 31.78125 74.21875 
Q 44.046875 74.21875 50.515625 64.515625 
Q 56.984375 54.828125 56.984375 36.375 
Q 56.984375 17.96875 50.515625 8.265625 
Q 44.046875 -1.421875 31.78125 -1.421875 
Q 19.53125 -1.421875 13.0625 8.265625 
Q 6.59375 17.96875 6.59375 36.375 
Q 6.59375 54.828125 13.0625 64.515625 
Q 19.53125 74.21875 31.78125 74.21875 
z
" id="DejaVuSans-48"/>
      </defs>
      <g transform="translate(214.551305 327.501344)scale(0.17 -0.17)">
       <use xlink:href="#DejaVuSans-48"/>
      </g>
     </g>
    </g>
    <g id="xtick_4">
     <g id="line2d_4">
      <g>
       <use style="stroke:#000000;stroke-width:0.8;" x="278.410111" xlink:href="#m778661be42" y="307.584"/>
      </g>
     </g>
     <g id="text_4">
      <!-- 1 -->
      <g transform="translate(273.001986 327.501344)scale(0.17 -0.17)">
       <use xlink:href="#DejaVuSans-49"/>
      </g>
     </g>
    </g>
    <g id="xtick_5">
     <g id="line2d_5">
      <g>
       <use style="stroke:#000000;stroke-width:0.8;" x="336.860792" xlink:href="#m778661be42" y="307.584"/>
      </g>
     </g>
     <g id="text_5">
      <!-- 2 -->
      <g transform="translate(331.452667 327.501344)scale(0.17 -0.17)">
       <use xlink:href="#DejaVuSans-50"/>
      </g>
     </g>
    </g>
    <g id="xtick_6">
     <g id="line2d_6">
      <g>
       <use style="stroke:#000000;stroke-width:0.8;" x="395.311474" xlink:href="#m778661be42" y="307.584"/>
      </g>
     </g>
     <g id="text_6">
      <!-- 3 -->
      <defs>
       <path d="M 40.578125 39.3125 
Q 47.65625 37.796875 51.625 33 
Q 55.609375 28.21875 55.609375 21.1875 
Q 55.609375 10.40625 48.1875 4.484375 
Q 40.765625 -1.421875 27.09375 -1.421875 
Q 22.515625 -1.421875 17.65625 -0.515625 
Q 12.796875 0.390625 7.625 2.203125 
L 7.625 11.71875 
Q 11.71875 9.328125 16.59375 8.109375 
Q 21.484375 6.890625 26.8125 6.890625 
Q 36.078125 6.890625 40.9375 10.546875 
Q 45.796875 14.203125 45.796875 21.1875 
Q 45.796875 27.640625 41.28125 31.265625 
Q 36.765625 34.90625 28.71875 34.90625 
L 20.21875 34.90625 
L 20.21875 43.015625 
L 29.109375 43.015625 
Q 36.375 43.015625 40.234375 45.921875 
Q 44.09375 48.828125 44.09375 54.296875 
Q 44.09375 59.90625 40.109375 62.90625 
Q 36.140625 65.921875 28.71875 65.921875 
Q 24.65625 65.921875 20.015625 65.03125 
Q 15.375 64.15625 9.8125 62.3125 
L 9.8125 71.09375 
Q 15.4375 72.65625 20.34375 73.4375 
Q 25.25 74.21875 29.59375 74.21875 
Q 40.828125 74.21875 47.359375 69.109375 
Q 53.90625 64.015625 53.90625 55.328125 
Q 53.90625 49.265625 50.4375 45.09375 
Q 46.96875 40.921875 40.578125 39.3125 
z
" id="DejaVuSans-51"/>
      </defs>
      <g transform="translate(389.903349 327.501344)scale(0.17 -0.17)">
       <use xlink:href="#DejaVuSans-51"/>
      </g>
     </g>
    </g>
    <g id="text_7">
     <!-- Position in Radian -->
     <defs>
      <path d="M 19.671875 64.796875 
L 19.671875 37.40625 
L 32.078125 37.40625 
Q 38.96875 37.40625 42.71875 40.96875 
Q 46.484375 44.53125 46.484375 51.125 
Q 46.484375 57.671875 42.71875 61.234375 
Q 38.96875 64.796875 32.078125 64.796875 
z
M 9.8125 72.90625 
L 32.078125 72.90625 
Q 44.34375 72.90625 50.609375 67.359375 
Q 56.890625 61.8125 56.890625 51.125 
Q 56.890625 40.328125 50.609375 34.8125 
Q 44.34375 29.296875 32.078125 29.296875 
L 19.671875 29.296875 
L 19.671875 0 
L 9.8125 0 
z
" id="DejaVuSans-80"/>
      <path d="M 30.609375 48.390625 
Q 23.390625 48.390625 19.1875 42.75 
Q 14.984375 37.109375 14.984375 27.296875 
Q 14.984375 17.484375 19.15625 11.84375 
Q 23.34375 6.203125 30.609375 6.203125 
Q 37.796875 6.203125 41.984375 11.859375 
Q 46.1875 17.53125 46.1875 27.296875 
Q 46.1875 37.015625 41.984375 42.703125 
Q 37.796875 48.390625 30.609375 48.390625 
z
M 30.609375 56 
Q 42.328125 56 49.015625 48.375 
Q 55.71875 40.765625 55.71875 27.296875 
Q 55.71875 13.875 49.015625 6.21875 
Q 42.328125 -1.421875 30.609375 -1.421875 
Q 18.84375 -1.421875 12.171875 6.21875 
Q 5.515625 13.875 5.515625 27.296875 
Q 5.515625 40.765625 12.171875 48.375 
Q 18.84375 56 30.609375 56 
z
" id="DejaVuSans-111"/>
      <path d="M 44.28125 53.078125 
L 44.28125 44.578125 
Q 40.484375 46.53125 36.375 47.5 
Q 32.28125 48.484375 27.875 48.484375 
Q 21.1875 48.484375 17.84375 46.4375 
Q 14.5 44.390625 14.5 40.28125 
Q 14.5 37.15625 16.890625 35.375 
Q 19.28125 33.59375 26.515625 31.984375 
L 29.59375 31.296875 
Q 39.15625 29.25 43.1875 25.515625 
Q 47.21875 21.78125 47.21875 15.09375 
Q 47.21875 7.46875 41.1875 3.015625 
Q 35.15625 -1.421875 24.609375 -1.421875 
Q 20.21875 -1.421875 15.453125 -0.5625 
Q 10.6875 0.296875 5.421875 2 
L 5.421875 11.28125 
Q 10.40625 8.6875 15.234375 7.390625 
Q 20.0625 6.109375 24.8125 6.109375 
Q 31.15625 6.109375 34.5625 8.28125 
Q 37.984375 10.453125 37.984375 14.40625 
Q 37.984375 18.0625 35.515625 20.015625 
Q 33.0625 21.96875 24.703125 23.78125 
L 21.578125 24.515625 
Q 13.234375 26.265625 9.515625 29.90625 
Q 5.8125 33.546875 5.8125 39.890625 
Q 5.8125 47.609375 11.28125 51.796875 
Q 16.75 56 26.8125 56 
Q 31.78125 56 36.171875 55.265625 
Q 40.578125 54.546875 44.28125 53.078125 
z
" id="DejaVuSans-115"/>
      <path d="M 9.421875 54.6875 
L 18.40625 54.6875 
L 18.40625 0 
L 9.421875 0 
z
M 9.421875 75.984375 
L 18.40625 75.984375 
L 18.40625 64.59375 
L 9.421875 64.59375 
z
" id="DejaVuSans-105"/>
      <path d="M 18.3125 70.21875 
L 18.3125 54.6875 
L 36.8125 54.6875 
L 36.8125 47.703125 
L 18.3125 47.703125 
L 18.3125 18.015625 
Q 18.3125 11.328125 20.140625 9.421875 
Q 21.96875 7.515625 27.59375 7.515625 
L 36.8125 7.515625 
L 36.8125 0 
L 27.59375 0 
Q 17.1875 0 13.234375 3.875 
Q 9.28125 7.765625 9.28125 18.015625 
L 9.28125 47.703125 
L 2.6875 47.703125 
L 2.6875 54.6875 
L 9.28125 54.6875 
L 9.28125 70.21875 
z
" id="DejaVuSans-116"/>
      <path d="M 54.890625 33.015625 
L 54.890625 0 
L 45.90625 0 
L 45.90625 32.71875 
Q 45.90625 40.484375 42.875 44.328125 
Q 39.84375 48.1875 33.796875 48.1875 
Q 26.515625 48.1875 22.3125 43.546875 
Q 18.109375 38.921875 18.109375 30.90625 
L 18.109375 0 
L 9.078125 0 
L 9.078125 54.6875 
L 18.109375 54.6875 
L 18.109375 46.1875 
Q 21.34375 51.125 25.703125 53.5625 
Q 30.078125 56 35.796875 56 
Q 45.21875 56 50.046875 50.171875 
Q 54.890625 44.34375 54.890625 33.015625 
z
" id="DejaVuSans-110"/>
      <path id="DejaVuSans-32"/>
      <path d="M 44.390625 34.1875 
Q 47.5625 33.109375 50.5625 29.59375 
Q 53.5625 26.078125 56.59375 19.921875 
L 66.609375 0 
L 56 0 
L 46.6875 18.703125 
Q 43.0625 26.03125 39.671875 28.421875 
Q 36.28125 30.8125 30.421875 30.8125 
L 19.671875 30.8125 
L 19.671875 0 
L 9.8125 0 
L 9.8125 72.90625 
L 32.078125 72.90625 
Q 44.578125 72.90625 50.734375 67.671875 
Q 56.890625 62.453125 56.890625 51.90625 
Q 56.890625 45.015625 53.6875 40.46875 
Q 50.484375 35.9375 44.390625 34.1875 
z
M 19.671875 64.796875 
L 19.671875 38.921875 
L 32.078125 38.921875 
Q 39.203125 38.921875 42.84375 42.21875 
Q 46.484375 45.515625 46.484375 51.90625 
Q 46.484375 58.296875 42.84375 61.546875 
Q 39.203125 64.796875 32.078125 64.796875 
z
" id="DejaVuSans-82"/>
      <path d="M 34.28125 27.484375 
Q 23.390625 27.484375 19.1875 25 
Q 14.984375 22.515625 14.984375 16.5 
Q 14.984375 11.71875 18.140625 8.90625 
Q 21.296875 6.109375 26.703125 6.109375 
Q 34.1875 6.109375 38.703125 11.40625 
Q 43.21875 16.703125 43.21875 25.484375 
L 43.21875 27.484375 
z
M 52.203125 31.203125 
L 52.203125 0 
L 43.21875 0 
L 43.21875 8.296875 
Q 40.140625 3.328125 35.546875 0.953125 
Q 30.953125 -1.421875 24.3125 -1.421875 
Q 15.921875 -1.421875 10.953125 3.296875 
Q 6 8.015625 6 15.921875 
Q 6 25.140625 12.171875 29.828125 
Q 18.359375 34.515625 30.609375 34.515625 
L 43.21875 34.515625 
L 43.21875 35.40625 
Q 43.21875 41.609375 39.140625 45 
Q 35.0625 48.390625 27.6875 48.390625 
Q 23 48.390625 18.546875 47.265625 
Q 14.109375 46.140625 10.015625 43.890625 
L 10.015625 52.203125 
Q 14.9375 54.109375 19.578125 55.046875 
Q 24.21875 56 28.609375 56 
Q 40.484375 56 46.34375 49.84375 
Q 52.203125 43.703125 52.203125 31.203125 
z
" id="DejaVuSans-97"/>
      <path d="M 45.40625 46.390625 
L 45.40625 75.984375 
L 54.390625 75.984375 
L 54.390625 0 
L 45.40625 0 
L 45.40625 8.203125 
Q 42.578125 3.328125 38.25 0.953125 
Q 33.9375 -1.421875 27.875 -1.421875 
Q 17.96875 -1.421875 11.734375 6.484375 
Q 5.515625 14.40625 5.515625 27.296875 
Q 5.515625 40.1875 11.734375 48.09375 
Q 17.96875 56 27.875 56 
Q 33.9375 56 38.25 53.625 
Q 42.578125 51.265625 45.40625 46.390625 
z
M 14.796875 27.296875 
Q 14.796875 17.390625 18.875 11.75 
Q 22.953125 6.109375 30.078125 6.109375 
Q 37.203125 6.109375 41.296875 11.75 
Q 45.40625 17.390625 45.40625 27.296875 
Q 45.40625 37.203125 41.296875 42.84375 
Q 37.203125 48.484375 30.078125 48.484375 
Q 22.953125 48.484375 18.875 42.84375 
Q 14.796875 37.203125 14.796875 27.296875 
z
" id="DejaVuSans-100"/>
     </defs>
     <g transform="translate(102.024844 357.832125)scale(0.3 -0.3)">
      <use xlink:href="#DejaVuSans-80"/>
      <use x="60.255859" xlink:href="#DejaVuSans-111"/>
      <use x="121.4375" xlink:href="#DejaVuSans-115"/>
      <use x="173.537109" xlink:href="#DejaVuSans-105"/>
      <use x="201.320312" xlink:href="#DejaVuSans-116"/>
      <use x="240.529297" xlink:href="#DejaVuSans-105"/>
      <use x="268.3125" xlink:href="#DejaVuSans-111"/>
      <use x="329.494141" xlink:href="#DejaVuSans-110"/>
      <use x="392.873047" xlink:href="#DejaVuSans-32"/>
      <use x="424.660156" xlink:href="#DejaVuSans-105"/>
      <use x="452.443359" xlink:href="#DejaVuSans-110"/>
      <use x="515.822266" xlink:href="#DejaVuSans-32"/>
      <use x="547.609375" xlink:href="#DejaVuSans-82"/>
      <use x="617.060547" xlink:href="#DejaVuSans-97"/>
      <use x="678.339844" xlink:href="#DejaVuSans-100"/>
      <use x="741.816406" xlink:href="#DejaVuSans-105"/>
      <use x="769.599609" xlink:href="#DejaVuSans-97"/>
      <use x="830.878906" xlink:href="#DejaVuSans-110"/>
     </g>
    </g>
   </g>
   <g id="matplotlib.axis_2">
    <g id="ytick_1">
     <g id="line2d_7">
      <defs>
       <path d="M 0 0 
L -3.5 0 
" id="m0da2de4207" style="stroke:#000000;stroke-width:0.8;"/>
      </defs>
      <g>
       <use style="stroke:#000000;stroke-width:0.8;" x="57.6" xlink:href="#m0da2de4207" y="307.584"/>
      </g>
     </g>
     <g id="text_8">
      <!-- 0.0 -->
      <defs>
       <path d="M 10.6875 12.40625 
L 21 12.40625 
L 21 0 
L 10.6875 0 
z
" id="DejaVuSans-46"/>
      </defs>
      <g transform="translate(23.564687 314.042672)scale(0.17 -0.17)">
       <use xlink:href="#DejaVuSans-48"/>
       <use x="63.623047" xlink:href="#DejaVuSans-46"/>
       <use x="95.410156" xlink:href="#DejaVuSans-48"/>
      </g>
     </g>
    </g>
    <g id="ytick_2">
     <g id="line2d_8">
      <g>
       <use style="stroke:#000000;stroke-width:0.8;" x="57.6" xlink:href="#m0da2de4207" y="267.429617"/>
      </g>
     </g>
     <g id="text_9">
      <!-- 0.2 -->
      <g transform="translate(23.564687 273.888289)scale(0.17 -0.17)">
       <use xlink:href="#DejaVuSans-48"/>
       <use x="63.623047" xlink:href="#DejaVuSans-46"/>
       <use x="95.410156" xlink:href="#DejaVuSans-50"/>
      </g>
     </g>
    </g>
    <g id="ytick_3">
     <g id="line2d_9">
      <g>
       <use style="stroke:#000000;stroke-width:0.8;" x="57.6" xlink:href="#m0da2de4207" y="227.275234"/>
      </g>
     </g>
     <g id="text_10">
      <!-- 0.4 -->
      <defs>
       <path d="M 37.796875 64.3125 
L 12.890625 25.390625 
L 37.796875 25.390625 
z
M 35.203125 72.90625 
L 47.609375 72.90625 
L 47.609375 25.390625 
L 58.015625 25.390625 
L 58.015625 17.1875 
L 47.609375 17.1875 
L 47.609375 0 
L 37.796875 0 
L 37.796875 17.1875 
L 4.890625 17.1875 
L 4.890625 26.703125 
z
" id="DejaVuSans-52"/>
      </defs>
      <g transform="translate(23.564687 233.733906)scale(0.17 -0.17)">
       <use xlink:href="#DejaVuSans-48"/>
       <use x="63.623047" xlink:href="#DejaVuSans-46"/>
       <use x="95.410156" xlink:href="#DejaVuSans-52"/>
      </g>
     </g>
    </g>
    <g id="ytick_4">
     <g id="line2d_10">
      <g>
       <use style="stroke:#000000;stroke-width:0.8;" x="57.6" xlink:href="#m0da2de4207" y="187.120851"/>
      </g>
     </g>
     <g id="text_11">
      <!-- 0.6 -->
      <defs>
       <path d="M 33.015625 40.375 
Q 26.375 40.375 22.484375 35.828125 
Q 18.609375 31.296875 18.609375 23.390625 
Q 18.609375 15.53125 22.484375 10.953125 
Q 26.375 6.390625 33.015625 6.390625 
Q 39.65625 6.390625 43.53125 10.953125 
Q 47.40625 15.53125 47.40625 23.390625 
Q 47.40625 31.296875 43.53125 35.828125 
Q 39.65625 40.375 33.015625 40.375 
z
M 52.59375 71.296875 
L 52.59375 62.3125 
Q 48.875 64.0625 45.09375 64.984375 
Q 41.3125 65.921875 37.59375 65.921875 
Q 27.828125 65.921875 22.671875 59.328125 
Q 17.53125 52.734375 16.796875 39.40625 
Q 19.671875 43.65625 24.015625 45.921875 
Q 28.375 48.1875 33.59375 48.1875 
Q 44.578125 48.1875 50.953125 41.515625 
Q 57.328125 34.859375 57.328125 23.390625 
Q 57.328125 12.15625 50.6875 5.359375 
Q 44.046875 -1.421875 33.015625 -1.421875 
Q 20.359375 -1.421875 13.671875 8.265625 
Q 6.984375 17.96875 6.984375 36.375 
Q 6.984375 53.65625 15.1875 63.9375 
Q 23.390625 74.21875 37.203125 74.21875 
Q 40.921875 74.21875 44.703125 73.484375 
Q 48.484375 72.75 52.59375 71.296875 
z
" id="DejaVuSans-54"/>
      </defs>
      <g transform="translate(23.564687 193.579523)scale(0.17 -0.17)">
       <use xlink:href="#DejaVuSans-48"/>
       <use x="63.623047" xlink:href="#DejaVuSans-46"/>
       <use x="95.410156" xlink:href="#DejaVuSans-54"/>
      </g>
     </g>
    </g>
    <g id="ytick_5">
     <g id="line2d_11">
      <g>
       <use style="stroke:#000000;stroke-width:0.8;" x="57.6" xlink:href="#m0da2de4207" y="146.966468"/>
      </g>
     </g>
     <g id="text_12">
      <!-- 0.8 -->
      <defs>
       <path d="M 31.78125 34.625 
Q 24.75 34.625 20.71875 30.859375 
Q 16.703125 27.09375 16.703125 20.515625 
Q 16.703125 13.921875 20.71875 10.15625 
Q 24.75 6.390625 31.78125 6.390625 
Q 38.8125 6.390625 42.859375 10.171875 
Q 46.921875 13.96875 46.921875 20.515625 
Q 46.921875 27.09375 42.890625 30.859375 
Q 38.875 34.625 31.78125 34.625 
z
M 21.921875 38.8125 
Q 15.578125 40.375 12.03125 44.71875 
Q 8.5 49.078125 8.5 55.328125 
Q 8.5 64.0625 14.71875 69.140625 
Q 20.953125 74.21875 31.78125 74.21875 
Q 42.671875 74.21875 48.875 69.140625 
Q 55.078125 64.0625 55.078125 55.328125 
Q 55.078125 49.078125 51.53125 44.71875 
Q 48 40.375 41.703125 38.8125 
Q 48.828125 37.15625 52.796875 32.3125 
Q 56.78125 27.484375 56.78125 20.515625 
Q 56.78125 9.90625 50.3125 4.234375 
Q 43.84375 -1.421875 31.78125 -1.421875 
Q 19.734375 -1.421875 13.25 4.234375 
Q 6.78125 9.90625 6.78125 20.515625 
Q 6.78125 27.484375 10.78125 32.3125 
Q 14.796875 37.15625 21.921875 38.8125 
z
M 18.3125 54.390625 
Q 18.3125 48.734375 21.84375 45.5625 
Q 25.390625 42.390625 31.78125 42.390625 
Q 38.140625 42.390625 41.71875 45.5625 
Q 45.3125 48.734375 45.3125 54.390625 
Q 45.3125 60.0625 41.71875 63.234375 
Q 38.140625 66.40625 31.78125 66.40625 
Q 25.390625 66.40625 21.84375 63.234375 
Q 18.3125 60.0625 18.3125 54.390625 
z
" id="DejaVuSans-56"/>
      </defs>
      <g transform="translate(23.564687 153.42514)scale(0.17 -0.17)">
       <use xlink:href="#DejaVuSans-48"/>
       <use x="63.623047" xlink:href="#DejaVuSans-46"/>
       <use x="95.410156" xlink:href="#DejaVuSans-56"/>
      </g>
     </g>
    </g>
    <g id="ytick_6">
     <g id="line2d_12">
      <g>
       <use style="stroke:#000000;stroke-width:0.8;" x="57.6" xlink:href="#m0da2de4207" y="106.812085"/>
      </g>
     </g>
     <g id="text_13">
      <!-- 1.0 -->
      <g transform="translate(23.564687 113.270757)scale(0.17 -0.17)">
       <use xlink:href="#DejaVuSans-49"/>
       <use x="63.623047" xlink:href="#DejaVuSans-46"/>
       <use x="95.410156" xlink:href="#DejaVuSans-48"/>
      </g>
     </g>
    </g>
    <g id="ytick_7">
     <g id="line2d_13">
      <g>
       <use style="stroke:#000000;stroke-width:0.8;" x="57.6" xlink:href="#m0da2de4207" y="66.657702"/>
      </g>
     </g>
     <g id="text_14">
      <!-- 1.2 -->
      <g transform="translate(23.564687 73.116374)scale(0.17 -0.17)">
       <use xlink:href="#DejaVuSans-49"/>
       <use x="63.623047" xlink:href="#DejaVuSans-46"/>
       <use x="95.410156" xlink:href="#DejaVuSans-50"/>
      </g>
     </g>
    </g>
    <g id="text_15">
     <!-- Density -->
     <defs>
      <path d="M 19.671875 64.796875 
L 19.671875 8.109375 
L 31.59375 8.109375 
Q 46.6875 8.109375 53.6875 14.9375 
Q 60.6875 21.78125 60.6875 36.53125 
Q 60.6875 51.171875 53.6875 57.984375 
Q 46.6875 64.796875 31.59375 64.796875 
z
M 9.8125 72.90625 
L 30.078125 72.90625 
Q 51.265625 72.90625 61.171875 64.09375 
Q 71.09375 55.28125 71.09375 36.53125 
Q 71.09375 17.671875 61.125 8.828125 
Q 51.171875 0 30.078125 0 
L 9.8125 0 
z
" id="DejaVuSans-68"/>
      <path d="M 56.203125 29.59375 
L 56.203125 25.203125 
L 14.890625 25.203125 
Q 15.484375 15.921875 20.484375 11.0625 
Q 25.484375 6.203125 34.421875 6.203125 
Q 39.59375 6.203125 44.453125 7.46875 
Q 49.3125 8.734375 54.109375 11.28125 
L 54.109375 2.78125 
Q 49.265625 0.734375 44.1875 -0.34375 
Q 39.109375 -1.421875 33.890625 -1.421875 
Q 20.796875 -1.421875 13.15625 6.1875 
Q 5.515625 13.8125 5.515625 26.8125 
Q 5.515625 40.234375 12.765625 48.109375 
Q 20.015625 56 32.328125 56 
Q 43.359375 56 49.78125 48.890625 
Q 56.203125 41.796875 56.203125 29.59375 
z
M 47.21875 32.234375 
Q 47.125 39.59375 43.09375 43.984375 
Q 39.0625 48.390625 32.421875 48.390625 
Q 24.90625 48.390625 20.390625 44.140625 
Q 15.875 39.890625 15.1875 32.171875 
z
" id="DejaVuSans-101"/>
      <path d="M 32.171875 -5.078125 
Q 28.375 -14.84375 24.75 -17.8125 
Q 21.140625 -20.796875 15.09375 -20.796875 
L 7.90625 -20.796875 
L 7.90625 -13.28125 
L 13.1875 -13.28125 
Q 16.890625 -13.28125 18.9375 -11.515625 
Q 21 -9.765625 23.484375 -3.21875 
L 25.09375 0.875 
L 2.984375 54.6875 
L 12.5 54.6875 
L 29.59375 11.921875 
L 46.6875 54.6875 
L 56.203125 54.6875 
z
" id="DejaVuSans-121"/>
     </defs>
     <g transform="translate(13.325625 231.553781)rotate(-90)scale(0.3 -0.3)">
      <use xlink:href="#DejaVuSans-68"/>
      <use x="77.001953" xlink:href="#DejaVuSans-101"/>
      <use x="138.525391" xlink:href="#DejaVuSans-110"/>
      <use x="201.904297" xlink:href="#DejaVuSans-115"/>
      <use x="254.003906" xlink:href="#DejaVuSans-105"/>
      <use x="281.787109" xlink:href="#DejaVuSans-116"/>
      <use x="320.996094" xlink:href="#DejaVuSans-121"/>
     </g>
    </g>
   </g>
   <g id="line2d_14">
    <path clip-path="url(#p391440651f)" d="M 73.832727 307.584 
L 92.322626 307.476481 
L 92.751264 307.183354 
L 93.920278 306.170654 
L 94.426851 306.205839 
L 94.816522 306.45887 
L 96.043986 307.527308 
L 96.725911 307.567933 
L 97.310418 307.419746 
L 97.758539 307.044353 
L 98.382013 306.521233 
L 98.654783 306.582914 
L 99.102905 306.998818 
L 99.531543 307.261816 
L 99.804313 307.1887 
L 100.135534 306.84077 
L 101.051261 305.740106 
L 101.440932 305.732985 
L 101.752669 305.655168 
L 101.986472 305.316467 
L 102.298209 304.361188 
L 102.941166 302.331795 
L 103.097035 302.319759 
L 103.272387 302.600423 
L 103.603608 303.704087 
L 104.266049 305.878384 
L 104.597269 306.32242 
L 104.889523 306.378666 
L 105.785766 306.102597 
L 106.370273 305.768843 
L 106.779428 305.64582 
L 107.188583 305.79297 
L 107.617221 305.885403 
L 107.948441 305.699607 
L 108.903136 304.745636 
L 109.214873 304.064332 
L 110.07215 301.820762 
L 110.091633 301.829508 
L 110.247502 302.068467 
L 110.500788 303.027846 
L 111.416515 306.996917 
L 111.728252 307.341677 
L 112.001022 307.332162 
L 112.312759 307.070831 
L 112.780364 306.323869 
L 113.812993 304.623973 
L 114.12473 304.50596 
L 114.416984 304.659505 
L 115.020974 305.03701 
L 115.332711 304.914355 
L 115.936701 304.346609 
L 116.579659 303.780924 
L 116.793978 303.886975 
L 117.105715 304.370254 
L 117.534353 304.927607 
L 117.729189 304.867581 
L 117.962992 304.482996 
L 118.333179 303.331391 
L 119.151489 300.68004 
L 119.326841 300.647646 
L 119.502193 300.918387 
L 119.81393 301.957852 
L 120.339986 303.611481 
L 120.573789 303.77748 
L 120.788108 303.641683 
L 121.996089 302.453813 
L 122.405243 302.592492 
L 122.755947 302.63539 
L 123.009234 302.426182 
L 123.418388 301.704992 
L 123.847027 301.122691 
L 124.13928 301.077159 
L 125.795383 301.303201 
L 126.048669 300.842713 
L 126.925429 298.938486 
L 127.217683 298.914539 
L 127.782706 298.936631 
L 128.113926 298.656538 
L 129.068621 297.387541 
L 130.822141 294.792378 
L 131.036461 294.769698 
L 131.231296 295.039318 
L 131.543033 295.985677 
L 132.205474 298.027124 
L 132.517211 298.326198 
L 133.140685 298.461192 
L 133.510873 298.44491 
L 133.725192 298.204276 
L 133.978478 297.538375 
L 134.368149 295.717247 
L 134.855238 293.656177 
L 135.011107 293.561757 
L 135.03059 293.576629 
L 135.186459 293.901356 
L 135.498196 295.308349 
L 135.868384 296.615505 
L 135.985285 296.595031 
L 136.12167 296.226886 
L 136.355473 294.788401 
L 136.920496 289.282754 
L 137.388101 285.909101 
L 137.660871 285.18514 
L 137.81674 285.192054 
L 137.992092 285.511077 
L 138.342796 286.753665 
L 138.829885 288.259864 
L 139.063687 288.42101 
L 139.258523 288.269675 
L 139.687161 287.51132 
L 140.076833 287.03542 
L 140.310635 287.050877 
L 140.544438 287.351135 
L 140.895142 288.273162 
L 141.362748 289.376777 
L 141.5381 289.389415 
L 141.713452 289.106736 
L 142.005705 288.081916 
L 142.960399 284.32684 
L 143.252653 284.036738 
L 143.505939 284.094502 
L 144.928239 285.117867 
L 145.376361 286.063527 
L 146.175187 287.734483 
L 146.389506 287.785275 
L 146.584342 287.573843 
L 146.857112 286.848932 
L 147.324717 284.779662 
L 147.694905 283.585618 
L 147.83129 283.593476 
L 147.987158 284.002753 
L 148.240444 285.490565 
L 148.805468 288.959792 
L 148.902885 289.009467 
L 148.922369 288.989862 
L 149.03927 288.663123 
L 149.25359 287.214424 
L 150.227768 279.393081 
L 150.422603 279.264732 
L 150.636922 279.456196 
L 151.026593 279.795164 
L 151.201946 279.677469 
L 151.435748 279.166293 
L 152.215091 277.157202 
L 152.370959 277.275321 
L 152.624245 277.854864 
L 153.812743 281.09387 
L 153.949128 281.01799 
L 154.143963 280.568869 
L 154.514151 278.961683 
L 155.371427 274.310097 
L 156.443023 266.487662 
L 156.559925 266.542452 
L 156.715793 267.072917 
L 156.949596 268.882562 
L 157.358751 274.294238 
L 157.923774 281.115794 
L 158.216027 282.48438 
L 158.410863 282.663692 
L 158.605698 282.515414 
L 159.112271 282.080613 
L 159.482459 281.921156 
L 159.677294 281.458835 
L 159.930581 280.11336 
L 160.359219 276.247402 
L 160.74889 273.494723 
L 160.865791 273.327479 
L 160.904759 273.357621 
L 161.02166 273.701976 
L 161.255463 275.330933 
L 161.83997 279.58221 
L 161.995838 279.739648 
L 162.015322 279.729361 
L 162.17119 279.479264 
L 162.658279 278.614351 
L 162.833631 278.744275 
L 163.359687 279.315513 
L 163.535039 279.121971 
L 163.885743 278.267297 
L 164.372832 277.265171 
L 164.704053 277.003774 
L 164.918372 277.061918 
L 165.152175 277.397909 
L 165.873067 278.635458 
L 166.067902 278.473406 
L 166.827761 277.234276 
L 167.04208 276.465503 
L 167.295366 274.539892 
L 167.64607 269.73602 
L 168.405929 258.99436 
L 168.639732 258.192825 
L 168.73715 258.264115 
L 168.912502 258.835335 
L 169.594427 262.475265 
L 170.704989 267.414889 
L 170.860858 267.397745 
L 171.075177 267.069065 
L 171.503815 265.926677 
L 171.835036 264.390756 
L 172.244191 261.14644 
L 172.78973 257.183303 
L 173.00405 256.79072 
L 173.120951 256.897484 
L 173.33527 257.534854 
L 173.919777 259.452277 
L 174.017195 259.386656 
L 174.15358 258.94465 
L 174.367899 257.295216 
L 174.699119 252.61329 
L 175.244659 245.136997 
L 175.420011 244.634954 
L 175.439495 244.650427 
L 175.556396 245.003206 
L 175.829166 246.909928 
L 176.17987 248.875266 
L 176.296771 248.950648 
L 176.316255 248.93222 
L 176.45264 248.588207 
L 177.134564 246.041749 
L 177.193015 246.101746 
L 177.348884 246.595918 
L 177.60217 248.365234 
L 178.030808 253.302421 
L 178.790667 261.996721 
L 179.02447 262.809197 
L 179.141371 262.749523 
L 179.316723 262.22043 
L 179.784329 260.732245 
L 179.90123 260.818389 
L 180.096066 261.387135 
L 180.524704 262.6129 
L 180.641605 262.545574 
L 180.816957 262.078645 
L 181.65475 259.371047 
L 181.947004 258.633683 
L 182.239257 257.071779 
L 182.940665 252.932353 
L 183.096534 252.862468 
L 183.271886 253.126994 
L 183.603106 253.593451 
L 183.720008 253.450439 
L 183.89536 252.797303 
L 184.246064 250.372222 
L 184.752637 247.339778 
L 185.31766 244.732748 
L 185.629397 241.496779 
L 186.447706 231.973596 
L 186.525641 232.104621 
L 186.662025 233.02826 
L 186.915312 236.68966 
L 187.636203 247.803271 
L 187.88949 248.828663 
L 188.064842 248.909991 
L 188.279161 248.698885 
L 188.551931 248.108901 
L 188.805217 246.937398 
L 189.116954 244.22914 
L 190.208033 233.555191 
L 190.51977 232.456477 
L 190.636672 232.407983 
L 190.656155 232.423895 
L 190.79254 232.747141 
L 191.006859 234.047306 
L 191.377047 238.126025 
L 191.825169 242.433607 
L 191.94207 242.643776 
L 191.981037 242.593201 
L 192.097939 242.062988 
L 192.312258 239.690163 
L 193.189018 227.455794 
L 193.227985 227.491618 
L 193.325403 227.930389 
L 193.520239 230.237722 
L 193.890426 238.201525 
L 194.358032 246.997457 
L 194.572351 248.030022 
L 194.650285 247.870259 
L 194.806154 246.841624 
L 195.273759 241.413216 
L 195.643947 238.654345 
L 196.092069 236.014569 
L 196.403806 231.904364 
L 196.988312 223.935191 
L 197.105214 223.657987 
L 197.144181 223.705819 
L 197.261082 224.257382 
L 197.475401 226.615614 
L 198.274227 236.555548 
L 198.488547 236.991934 
L 198.917185 237.312885 
L 199.462725 238.484255 
L 199.521175 238.422284 
L 199.677044 237.940189 
L 199.949814 236.12508 
L 201.138311 227.019839 
L 201.333146 226.695873 
L 201.35263 226.702337 
L 201.469531 226.911832 
L 201.644883 227.807569 
L 201.95662 230.888618 
L 202.541127 236.509089 
L 202.77493 237.086672 
L 202.911315 237.043667 
L 203.164601 236.602378 
L 203.943943 235.18124 
L 204.411549 234.331187 
L 204.723286 233.199432 
L 205.093474 230.921954 
L 205.541595 226.614833 
L 206.76906 213.46176 
L 206.963895 213.253836 
L 207.139247 213.41932 
L 207.97704 214.89514 
L 208.425162 215.460283 
L 208.658965 215.463379 
L 208.892768 215.224312 
L 209.126571 214.619219 
L 209.379857 213.245929 
L 209.711077 210.017332 
L 210.470936 202.2679 
L 210.646288 201.949295 
L 210.665772 201.962279 
L 210.782673 202.238854 
L 210.996992 203.541189 
L 211.815302 209.5191 
L 211.91272 209.350478 
L 212.088072 208.390331 
L 212.419292 204.940102 
L 213.159668 197.133554 
L 213.354503 196.604354 
L 213.432437 196.753095 
L 213.568822 197.627554 
L 213.783141 200.782532 
L 214.133846 210.105346 
L 214.679385 223.873807 
L 214.854737 224.939945 
L 214.874221 224.92278 
L 214.971639 224.433886 
L 215.146991 221.969009 
L 215.458728 213.775719 
L 216.218587 192.958957 
L 216.452389 191.344816 
L 216.51084 191.425934 
L 216.627741 192.151896 
L 216.84206 195.265941 
L 217.251215 205.48502 
L 217.777271 217.214315 
L 218.030558 219.198858 
L 218.089008 219.261652 
L 218.127975 219.218359 
L 218.244877 218.650908 
L 218.420229 216.306207 
L 218.634548 209.751272 
L 218.868351 194.949708 
L 219.160604 160.55409 
L 219.95943 54.321477 
L 219.978914 54.144 
L 220.017881 54.344001 
L 220.115299 58.021043 
L 220.310134 77.348463 
L 221.303796 197.89143 
L 221.557082 203.26413 
L 221.712951 203.807251 
L 221.732434 203.789519 
L 221.849335 203.418165 
L 222.102622 201.619985 
L 222.453326 197.380573 
L 222.862481 189.215675 
L 223.505438 176.416988 
L 223.641823 175.903608 
L 223.661307 175.93177 
L 223.758724 176.464294 
L 223.934076 178.988831 
L 224.323748 188.968156 
L 224.732902 197.063715 
L 224.927738 198.010569 
L 225.005672 197.88507 
L 225.161541 196.978168 
L 225.97985 190.656502 
L 226.018817 190.695746 
L 226.135719 191.130217 
L 226.330554 192.919739 
L 226.681258 198.782384 
L 227.265765 208.085981 
L 227.480084 208.928539 
L 227.558019 208.812518 
L 227.713887 208.013065 
L 228.473746 202.847718 
L 228.512713 202.871237 
L 228.649098 203.206848 
L 229.116703 204.835728 
L 229.175154 204.771329 
L 229.311539 204.186699 
L 229.525858 202.039213 
L 230.227266 194.000787 
L 230.285717 194.02094 
L 230.305201 194.062398 
L 230.441586 194.813781 
L 230.714355 198.109448 
L 231.181961 203.368264 
L 231.298862 203.605834 
L 231.337829 203.560542 
L 231.454731 203.066825 
L 231.688533 200.790209 
L 232.21459 195.494828 
L 232.292524 195.403787 
L 232.331491 195.460369 
L 232.448392 196.047888 
L 232.662711 198.646753 
L 233.130317 208.123473 
L 233.597922 215.752598 
L 233.831725 216.976125 
L 233.909659 216.895943 
L 234.046044 216.145698 
L 234.279847 213.158934 
L 234.747452 203.273241 
L 235.234541 194.886279 
L 235.448861 193.880153 
L 235.526795 194.057158 
L 235.682663 195.320449 
L 235.93595 199.754572 
L 236.949095 220.258069 
L 237.065996 220.463509 
L 237.08548 220.444322 
L 237.202381 220.037716 
L 237.4167 218.213577 
L 237.825855 212.396145 
L 239.11177 192.878298 
L 239.365056 192.070337 
L 239.462474 192.1383 
L 239.598859 192.620273 
L 239.813178 194.376306 
L 240.144399 199.395955 
L 240.962708 212.54197 
L 242.774679 229.738683 
L 242.930548 229.844287 
L 242.950031 229.832224 
L 243.125383 229.544957 
L 243.631956 228.611823 
L 243.807308 228.704511 
L 244.099561 229.242187 
L 244.956838 231.392744 
L 245.288059 233.266387 
L 245.911533 238.467401 
L 246.905194 246.247016 
L 247.197448 247.135156 
L 247.43125 247.273062 
L 248.152142 247.133784 
L 248.327494 246.804849 
L 248.561297 245.786842 
L 249.535475 240.601634 
L 249.827728 239.919892 
L 250.081014 238.56091 
L 250.723972 234.710315 
L 250.82139 234.815153 
L 250.977258 235.509728 
L 251.327962 238.47514 
L 251.756601 241.37643 
L 252.458009 244.727022 
L 253.100966 248.755607 
L 253.237351 248.887828 
L 253.256835 248.876066 
L 253.373736 248.635517 
L 253.568572 247.546765 
L 253.841342 244.444256 
L 254.250496 236.595553 
L 254.912937 224.256941 
L 255.166224 222.805388 
L 255.244158 222.78284 
L 255.283125 222.836755 
L 255.438994 223.419442 
L 255.750731 225.74384 
L 256.335237 231.993366 
L 256.919744 237.819091 
L 257.075613 238.145819 
L 257.095096 238.133625 
L 257.211998 237.815911 
L 257.426317 236.280838 
L 258.283593 229.014448 
L 258.400495 228.951021 
L 258.419978 228.965693 
L 258.575847 229.300414 
L 258.965518 230.969264 
L 259.316222 232.009783 
L 259.900729 233.116918 
L 260.154015 234.785484 
L 260.543686 239.150185 
L 262.063404 257.814347 
L 262.180305 257.935074 
L 262.219273 257.901581 
L 262.355658 257.513805 
L 262.608944 255.872582 
L 263.388286 248.397569 
L 264.050727 241.361647 
L 264.810586 232.454817 
L 264.946971 232.153643 
L 264.985938 232.175062 
L 265.10284 232.510485 
L 265.317159 234.008969 
L 265.901665 240.408908 
L 267.440867 256.412031 
L 267.538285 256.40539 
L 267.557768 256.376938 
L 267.713637 255.84164 
L 267.986406 253.811071 
L 268.707298 247.948965 
L 268.804716 247.885298 
L 268.8242 247.905049 
L 268.941101 248.247162 
L 269.15542 249.739633 
L 269.934762 255.919096 
L 270.071147 256.026777 
L 270.090631 256.015841 
L 270.246499 255.74464 
L 270.831006 254.487499 
L 271.006358 254.6696 
L 271.337579 255.040146 
L 271.45448 254.87214 
L 271.649316 254.042027 
L 272.292273 250.48787 
L 272.33124 250.52937 
L 272.448142 250.963789 
L 272.642977 252.716772 
L 272.993681 258.372325 
L 273.714573 269.956152 
L 273.948376 270.964091 
L 274.045794 270.901037 
L 274.221146 270.272294 
L 274.727718 268.270466 
L 274.825136 268.351874 
L 274.981005 268.895806 
L 275.292742 271.038303 
L 275.955183 275.453596 
L 276.676074 278.372279 
L 277.085229 279.415556 
L 277.260581 279.432378 
L 277.41645 279.122045 
L 277.669736 277.976745 
L 278.234759 275.260602 
L 278.332177 275.276937 
L 278.351661 275.307605 
L 278.488045 275.786418 
L 278.721848 277.61662 
L 279.228421 283.960447 
L 279.734993 289.055609 
L 279.968796 289.845363 
L 280.066214 289.795807 
L 280.202599 289.34485 
L 280.436402 287.644207 
L 281.507997 278.501835 
L 281.702833 278.326561 
L 281.878185 278.491034 
L 282.579593 279.414036 
L 282.774429 279.157786 
L 283.242034 278.499373 
L 283.378419 278.68495 
L 283.573255 279.42819 
L 283.884992 281.660491 
L 285.404709 294.12696 
L 285.677479 294.607898 
L 285.852831 294.580895 
L 286.047667 294.232829 
L 286.300953 293.235355 
L 286.632174 290.928529 
L 287.820671 281.437304 
L 288.073957 281.184714 
L 288.366211 281.240744 
L 288.677948 281.51332 
L 288.950717 282.096617 
L 290.119731 285.175262 
L 290.509402 285.366177 
L 290.723721 285.244935 
L 290.938041 284.791639 
L 291.249778 283.447469 
L 291.873251 280.701151 
L 292.087571 280.546863 
L 292.282406 280.72353 
L 292.886397 281.403556 
L 293.061749 281.279338 
L 293.276068 280.801436 
L 293.704706 279.100046 
L 293.99696 278.36569 
L 294.133344 278.414248 
L 294.308697 278.891632 
L 294.620433 280.619639 
L 295.516677 285.917012 
L 295.672546 286.097662 
L 295.692029 286.088775 
L 295.808931 285.869152 
L 295.984283 284.965159 
L 296.276536 281.986458 
L 297.133813 272.228655 
L 297.348132 271.788345 
L 297.465033 271.896434 
L 297.698836 272.552936 
L 298.205409 273.974463 
L 298.380761 274.003408 
L 298.536629 273.741051 
L 298.789915 272.752347 
L 299.413389 270.067769 
L 299.510807 270.175042 
L 299.666676 270.868224 
L 299.919962 273.292998 
L 301.186393 287.638525 
L 301.615032 289.473559 
L 301.926769 289.993654 
L 302.102121 289.983343 
L 302.277473 289.724826 
L 302.511275 288.907401 
L 302.803529 286.965357 
L 303.232167 282.34933 
L 304.323247 267.233071 
L 304.907753 259.985348 
L 305.102589 259.387294 
L 305.200007 259.590111 
L 305.375359 260.752966 
L 305.706579 264.924689 
L 306.524889 275.43916 
L 306.875593 277.459125 
L 307.031461 277.639775 
L 307.050945 277.628285 
L 307.167846 277.401877 
L 307.382166 276.356597 
L 308.33686 270.799184 
L 308.512212 270.774617 
L 308.687564 271.07666 
L 308.979817 272.160579 
L 309.642259 274.78507 
L 309.798127 274.812343 
L 309.953996 274.538214 
L 310.265732 273.408732 
L 311.103526 270.373956 
L 311.532164 269.313629 
L 311.668549 269.325322 
L 311.804934 269.623228 
L 312.019253 270.764364 
L 312.33099 273.857996 
L 313.20775 283.273394 
L 313.363619 283.533036 
L 313.383102 283.526383 
L 313.500003 283.324915 
L 313.733806 282.304931 
L 314.259862 279.967967 
L 314.396247 279.910802 
L 314.415731 279.927976 
L 314.571599 280.287914 
L 314.824886 281.597673 
L 316.266669 290.502387 
L 316.578406 290.98063 
L 316.753758 290.953543 
L 316.968077 290.630938 
L 317.396716 289.426332 
L 318.487795 286.476609 
L 318.62418 286.487006 
L 318.780048 286.825887 
L 319.033335 288.078189 
L 319.715259 291.744289 
L 319.949062 291.995692 
L 320.182865 291.893015 
L 320.65047 291.680925 
L 321.059625 291.571479 
L 321.273944 291.188617 
L 321.546714 290.160595 
L 322.248122 287.306116 
L 322.384507 287.322126 
L 322.559859 287.688575 
L 322.910563 289.147917 
L 324.391314 295.736038 
L 324.566666 295.782305 
L 324.722534 295.51428 
L 324.995304 294.465489 
L 326.125351 289.47502 
L 326.437088 289.102146 
L 326.67089 289.134303 
L 327.080045 289.523432 
L 327.372298 289.649544 
L 327.567134 289.500613 
L 327.839904 288.946302 
L 328.950467 286.277008 
L 329.106335 286.322818 
L 329.281687 286.669918 
L 329.554457 287.864921 
L 330.119481 290.420215 
L 330.216898 290.388349 
L 330.353283 289.980699 
L 330.587086 288.400878 
L 331.327461 282.816138 
L 331.444363 282.746529 
L 331.463846 282.766307 
L 331.600231 283.153703 
L 331.834034 284.749658 
L 332.301639 290.026936 
L 332.788728 294.567747 
L 333.042015 295.361098 
L 333.158916 295.309998 
L 333.314784 294.858616 
L 333.587554 293.18873 
L 335.224173 281.185876 
L 335.652812 279.453532 
L 335.750229 279.405894 
L 335.789197 279.445241 
L 335.925581 279.879328 
L 336.139901 281.532912 
L 336.588023 287.426245 
L 336.977694 291.20769 
L 337.133562 291.565541 
L 337.153046 291.559089 
L 337.250464 291.366473 
L 337.445299 290.301051 
L 338.205158 285.389356 
L 338.302576 285.445133 
L 338.458444 285.939678 
L 338.809148 288.112475 
L 339.19882 290.011268 
L 339.393655 290.222312 
L 339.549524 290.084923 
L 340.543185 288.726144 
L 341.575814 288.659343 
L 341.77065 288.943328 
L 342.023936 289.774366 
L 342.491541 292.331684 
L 342.959147 294.387615 
L 343.173466 294.59085 
L 343.329334 294.394162 
L 343.582621 293.58751 
L 344.751634 289.311496 
L 345.453043 286.9804 
L 345.82323 286.026388 
L 345.959615 286.053128 
L 346.115484 286.430316 
L 346.388253 287.832278 
L 346.91431 290.438686 
L 347.109145 290.629108 
L 347.284497 290.486995 
L 348.083323 289.557546 
L 348.628863 289.373536 
L 348.823698 289.570954 
L 349.076985 290.225088 
L 350.012196 293.063078 
L 350.207031 293.021415 
L 350.557735 292.59669 
L 350.830505 292.437424 
L 351.005857 292.604883 
L 351.259144 293.25949 
L 351.921585 295.152147 
L 352.096937 295.137527 
L 352.311256 294.788408 
L 352.99318 293.464815 
L 353.129565 293.583364 
L 353.324401 294.11357 
L 353.655621 295.827215 
L 354.395997 299.759016 
L 354.668767 300.250443 
L 354.844119 300.219867 
L 355.038954 299.884293 
L 355.370175 298.741118 
L 356.246935 295.523092 
L 356.519705 295.256448 
L 356.695057 295.345147 
L 356.967827 295.809783 
L 357.474399 296.653728 
L 357.669235 296.61589 
L 357.942005 296.250838 
L 358.370643 295.750452 
L 358.565479 295.806901 
L 358.857732 296.18979 
L 359.266887 296.649434 
L 359.442239 296.580062 
L 359.676042 296.175967 
L 360.396933 294.700867 
L 360.552802 294.817458 
L 360.767121 295.333715 
L 361.156792 296.998266 
L 361.643881 298.808703 
L 361.838717 298.948193 
L 361.994585 298.765074 
L 362.267355 297.990688 
L 362.890829 296.195445 
L 363.144115 296.009862 
L 363.319467 296.137423 
L 363.533787 296.625397 
L 363.845524 297.997006 
L 364.839185 302.887414 
L 365.150922 303.314646 
L 365.423692 303.349703 
L 365.657495 303.143326 
L 365.910781 302.565447 
L 366.066649 301.978675 
L 366.066649 301.978675 
" style="fill:none;stroke:#ff7f0e;stroke-linecap:square;stroke-width:1.5;"/>
   </g>
   <g id="patch_103">
    <path d="M 57.6 307.584 
L 57.6 41.472 
" style="fill:none;stroke:#000000;stroke-linecap:square;stroke-linejoin:miter;stroke-width:0.8;"/>
   </g>
   <g id="patch_104">
    <path d="M 414.72 307.584 
L 414.72 41.472 
" style="fill:none;stroke:#000000;stroke-linecap:square;stroke-linejoin:miter;stroke-width:0.8;"/>
   </g>
   <g id="patch_105">
    <path d="M 57.6 307.584 
L 414.72 307.584 
" style="fill:none;stroke:#000000;stroke-linecap:square;stroke-linejoin:miter;stroke-width:0.8;"/>
   </g>
   <g id="patch_106">
    <path d="M 57.6 41.472 
L 414.72 41.472 
" style="fill:none;stroke:#000000;stroke-linecap:square;stroke-linejoin:miter;stroke-width:0.8;"/>
   </g>
  </g>
 </g>
 <defs>
  <clipPath id="p391440651f">
   <rect height="266.112" width="357.12" x="57.6" y="41.472"/>
  </clipPath>
 </defs>
</svg>
