<?xml version="1.0" encoding="utf-8" standalone="no"?>
<!DOCTYPE svg PUBLIC "-//W3C//DTD SVG 1.1//EN"
  "http://www.w3.org/Graphics/SVG/1.1/DTD/svg11.dtd">
<!-- Created with matplotlib (https://matplotlib.org/) -->
<svg height="345.6pt" version="1.1" viewBox="0 0 460.8 345.6" width="460.8pt" xmlns="http://www.w3.org/2000/svg" xmlns:xlink="http://www.w3.org/1999/xlink">
 <defs>
  <style type="text/css">
*{stroke-linecap:butt;stroke-linejoin:round;}
  </style>
 </defs>
 <g id="figure_1">
  <g id="patch_1">
   <path d="M 0 345.6 
L 460.8 345.6 
L 460.8 0 
L 0 0 
z
" style="fill:#ffffff;"/>
  </g>
  <g id="axes_1">
   <g id="patch_2">
    <path d="M 57.6 307.584 
L 414.72 307.584 
L 414.72 41.472 
L 57.6 41.472 
z
" style="fill:#ffffff;"/>
   </g>
   <g id="patch_3">
    <path clip-path="url(#p97fd943352)" d="M 73.832727 307.584 
L 77.079274 307.584 
L 77.079274 307.021982 
L 73.832727 307.021982 
z
" style="fill:#1f77b4;"/>
   </g>
   <g id="patch_4">
    <path clip-path="url(#p97fd943352)" d="M 77.079287 307.584 
L 80.325833 307.584 
L 80.325833 307.584 
L 77.079287 307.584 
z
" style="fill:#1f77b4;"/>
   </g>
   <g id="patch_5">
    <path clip-path="url(#p97fd943352)" d="M 80.32582 307.584 
L 83.572366 307.584 
L 83.572366 306.834642 
L 80.32582 306.834642 
z
" style="fill:#1f77b4;"/>
   </g>
   <g id="patch_6">
    <path clip-path="url(#p97fd943352)" d="M 83.572379 307.584 
L 86.818926 307.584 
L 86.818926 306.834642 
L 83.572379 306.834642 
z
" style="fill:#1f77b4;"/>
   </g>
   <g id="patch_7">
    <path clip-path="url(#p97fd943352)" d="M 86.818913 307.584 
L 90.065459 307.584 
L 90.065459 304.961248 
L 86.818913 304.961248 
z
" style="fill:#1f77b4;"/>
   </g>
   <g id="patch_8">
    <path clip-path="url(#p97fd943352)" d="M 90.065472 307.584 
L 93.312019 307.584 
L 93.312019 305.335927 
L 90.065472 305.335927 
z
" style="fill:#1f77b4;"/>
   </g>
   <g id="patch_9">
    <path clip-path="url(#p97fd943352)" d="M 93.312019 307.584 
L 96.558552 307.584 
L 96.558552 305.897938 
L 93.312019 305.897938 
z
" style="fill:#1f77b4;"/>
   </g>
   <g id="patch_10">
    <path clip-path="url(#p97fd943352)" d="M 96.558539 307.584 
L 99.805085 307.584 
L 99.805085 306.272624 
L 96.558539 306.272624 
z
" style="fill:#1f77b4;"/>
   </g>
   <g id="patch_11">
    <path clip-path="url(#p97fd943352)" d="M 99.805098 307.584 
L 103.051645 307.584 
L 103.051645 306.647303 
L 99.805098 306.647303 
z
" style="fill:#1f77b4;"/>
   </g>
   <g id="patch_12">
    <path clip-path="url(#p97fd943352)" d="M 103.051632 307.584 
L 106.298178 307.584 
L 106.298178 306.647303 
L 103.051632 306.647303 
z
" style="fill:#1f77b4;"/>
   </g>
   <g id="patch_13">
    <path clip-path="url(#p97fd943352)" d="M 106.298191 307.584 
L 109.544737 307.584 
L 109.544737 306.459963 
L 106.298191 306.459963 
z
" style="fill:#1f77b4;"/>
   </g>
   <g id="patch_14">
    <path clip-path="url(#p97fd943352)" d="M 109.544724 307.584 
L 112.791271 307.584 
L 112.791271 306.272624 
L 109.544724 306.272624 
z
" style="fill:#1f77b4;"/>
   </g>
   <g id="patch_15">
    <path clip-path="url(#p97fd943352)" d="M 112.791284 307.584 
L 116.03783 307.584 
L 116.03783 305.148587 
L 112.791284 305.148587 
z
" style="fill:#1f77b4;"/>
   </g>
   <g id="patch_16">
    <path clip-path="url(#p97fd943352)" d="M 116.037817 307.584 
L 119.284363 307.584 
L 119.284363 304.773909 
L 116.037817 304.773909 
z
" style="fill:#1f77b4;"/>
   </g>
   <g id="patch_17">
    <path clip-path="url(#p97fd943352)" d="M 119.284376 307.584 
L 122.530923 307.584 
L 122.530923 304.39923 
L 119.284376 304.39923 
z
" style="fill:#1f77b4;"/>
   </g>
   <g id="patch_18">
    <path clip-path="url(#p97fd943352)" d="M 122.53091 307.584 
L 125.777456 307.584 
L 125.777456 301.589138 
L 122.53091 301.589138 
z
" style="fill:#1f77b4;"/>
   </g>
   <g id="patch_19">
    <path clip-path="url(#p97fd943352)" d="M 125.777469 307.584 
L 129.024009 307.584 
L 129.024009 299.341049 
L 125.777469 299.341049 
z
" style="fill:#1f77b4;"/>
   </g>
   <g id="patch_20">
    <path clip-path="url(#p97fd943352)" d="M 129.024009 307.584 
L 132.270555 307.584 
L 132.270555 301.776478 
L 129.024009 301.776478 
z
" style="fill:#1f77b4;"/>
   </g>
   <g id="patch_21">
    <path clip-path="url(#p97fd943352)" d="M 132.270555 307.584 
L 135.517102 307.584 
L 135.517102 300.839781 
L 132.270555 300.839781 
z
" style="fill:#1f77b4;"/>
   </g>
   <g id="patch_22">
    <path clip-path="url(#p97fd943352)" d="M 135.517102 307.584 
L 138.763648 307.584 
L 138.763648 302.713175 
L 135.517102 302.713175 
z
" style="fill:#1f77b4;"/>
   </g>
   <g id="patch_23">
    <path clip-path="url(#p97fd943352)" d="M 138.763648 307.584 
L 142.010194 307.584 
L 142.010194 296.343635 
L 138.763648 296.343635 
z
" style="fill:#1f77b4;"/>
   </g>
   <g id="patch_24">
    <path clip-path="url(#p97fd943352)" d="M 142.010201 307.584 
L 145.256741 307.584 
L 145.256741 297.84233 
L 142.010201 297.84233 
z
" style="fill:#1f77b4;"/>
   </g>
   <g id="patch_25">
    <path clip-path="url(#p97fd943352)" d="M 145.256734 307.584 
L 148.503281 307.584 
L 148.503281 292.034828 
L 145.256734 292.034828 
z
" style="fill:#1f77b4;"/>
   </g>
   <g id="patch_26">
    <path clip-path="url(#p97fd943352)" d="M 148.503281 307.584 
L 151.749827 307.584 
L 151.749827 289.599415 
L 148.503281 289.599415 
z
" style="fill:#1f77b4;"/>
   </g>
   <g id="patch_27">
    <path clip-path="url(#p97fd943352)" d="M 151.749827 307.584 
L 154.996373 307.584 
L 154.996373 291.098131 
L 151.749827 291.098131 
z
" style="fill:#1f77b4;"/>
   </g>
   <g id="patch_28">
    <path clip-path="url(#p97fd943352)" d="M 154.996373 307.584 
L 158.24292 307.584 
L 158.24292 282.480517 
L 154.996373 282.480517 
z
" style="fill:#1f77b4;"/>
   </g>
   <g id="patch_29">
    <path clip-path="url(#p97fd943352)" d="M 158.24292 307.584 
L 161.489466 307.584 
L 161.489466 281.169141 
L 158.24292 281.169141 
z
" style="fill:#1f77b4;"/>
   </g>
   <g id="patch_30">
    <path clip-path="url(#p97fd943352)" d="M 161.489466 307.584 
L 164.736013 307.584 
L 164.736013 278.17171 
L 161.489466 278.17171 
z
" style="fill:#1f77b4;"/>
   </g>
   <g id="patch_31">
    <path clip-path="url(#p97fd943352)" d="M 164.736013 307.584 
L 167.982552 307.584 
L 167.982552 275.361554 
L 164.736013 275.361554 
z
" style="fill:#1f77b4;"/>
   </g>
   <g id="patch_32">
    <path clip-path="url(#p97fd943352)" d="M 167.982552 307.584 
L 171.229099 307.584 
L 171.229099 278.921068 
L 167.982552 278.921068 
z
" style="fill:#1f77b4;"/>
   </g>
   <g id="patch_33">
    <path clip-path="url(#p97fd943352)" d="M 171.229099 307.584 
L 174.475645 307.584 
L 174.475645 280.045105 
L 171.229099 280.045105 
z
" style="fill:#1f77b4;"/>
   </g>
   <g id="patch_34">
    <path clip-path="url(#p97fd943352)" d="M 174.475645 307.584 
L 177.722191 307.584 
L 177.722191 274.612261 
L 174.475645 274.612261 
z
" style="fill:#1f77b4;"/>
   </g>
   <g id="patch_35">
    <path clip-path="url(#p97fd943352)" d="M 177.722191 307.584 
L 180.968738 307.584 
L 180.968738 266.744005 
L 177.722191 266.744005 
z
" style="fill:#1f77b4;"/>
   </g>
   <g id="patch_36">
    <path clip-path="url(#p97fd943352)" d="M 180.968738 307.584 
L 184.215281 307.584 
L 184.215281 268.8047 
L 180.968738 268.8047 
z
" style="fill:#1f77b4;"/>
   </g>
   <g id="patch_37">
    <path clip-path="url(#p97fd943352)" d="M 184.215281 307.584 
L 187.461827 307.584 
L 187.461827 259.250428 
L 184.215281 259.250428 
z
" style="fill:#1f77b4;"/>
   </g>
   <g id="patch_38">
    <path clip-path="url(#p97fd943352)" d="M 187.461824 307.584 
L 190.708367 307.584 
L 190.708367 263.559191 
L 187.461824 263.559191 
z
" style="fill:#1f77b4;"/>
   </g>
   <g id="patch_39">
    <path clip-path="url(#p97fd943352)" d="M 190.70837 307.584 
L 193.954917 307.584 
L 193.954917 259.063089 
L 190.70837 259.063089 
z
" style="fill:#1f77b4;"/>
   </g>
   <g id="patch_40">
    <path clip-path="url(#p97fd943352)" d="M 193.954917 307.584 
L 197.201463 307.584 
L 197.201463 256.252998 
L 193.954917 256.252998 
z
" style="fill:#1f77b4;"/>
   </g>
   <g id="patch_41">
    <path clip-path="url(#p97fd943352)" d="M 197.201463 307.584 
L 200.44801 307.584 
L 200.44801 249.134099 
L 197.201463 249.134099 
z
" style="fill:#1f77b4;"/>
   </g>
   <g id="patch_42">
    <path clip-path="url(#p97fd943352)" d="M 200.44801 307.584 
L 203.694553 307.584 
L 203.694553 242.764494 
L 200.44801 242.764494 
z
" style="fill:#1f77b4;"/>
   </g>
   <g id="patch_43">
    <path clip-path="url(#p97fd943352)" d="M 203.694553 307.584 
L 206.941099 307.584 
L 206.941099 235.645661 
L 203.694553 235.645661 
z
" style="fill:#1f77b4;"/>
   </g>
   <g id="patch_44">
    <path clip-path="url(#p97fd943352)" d="M 206.941099 307.584 
L 210.187644 307.584 
L 210.187644 234.708927 
L 206.941099 234.708927 
z
" style="fill:#1f77b4;"/>
   </g>
   <g id="patch_45">
    <path clip-path="url(#p97fd943352)" d="M 210.187642 307.584 
L 213.434187 307.584 
L 213.434187 220.845803 
L 210.187642 220.845803 
z
" style="fill:#1f77b4;"/>
   </g>
   <g id="patch_46">
    <path clip-path="url(#p97fd943352)" d="M 213.434188 307.584 
L 216.680735 307.584 
L 216.680735 219.53447 
L 213.434188 219.53447 
z
" style="fill:#1f77b4;"/>
   </g>
   <g id="patch_47">
    <path clip-path="url(#p97fd943352)" d="M 216.680735 307.584 
L 219.92728 307.584 
L 219.92728 209.792771 
L 216.680735 209.792771 
z
" style="fill:#1f77b4;"/>
   </g>
   <g id="patch_48">
    <path clip-path="url(#p97fd943352)" d="M 219.92728 307.584 
L 223.173825 307.584 
L 223.173825 211.104172 
L 219.92728 211.104172 
z
" style="fill:#1f77b4;"/>
   </g>
   <g id="patch_49">
    <path clip-path="url(#p97fd943352)" d="M 223.173824 307.584 
L 226.42037 307.584 
L 226.42037 207.170043 
L 223.173824 207.170043 
z
" style="fill:#1f77b4;"/>
   </g>
   <g id="patch_50">
    <path clip-path="url(#p97fd943352)" d="M 226.420371 307.584 
L 229.666916 307.584 
L 229.666916 205.483975 
L 226.420371 205.483975 
z
" style="fill:#1f77b4;"/>
   </g>
   <g id="patch_51">
    <path clip-path="url(#p97fd943352)" d="M 229.666916 307.584 
L 232.913461 307.584 
L 232.913461 194.430952 
L 229.666916 194.430952 
z
" style="fill:#1f77b4;"/>
   </g>
   <g id="patch_52">
    <path clip-path="url(#p97fd943352)" d="M 232.913461 307.584 
L 236.160007 307.584 
L 236.160007 196.491686 
L 232.913461 196.491686 
z
" style="fill:#1f77b4;"/>
   </g>
   <g id="patch_53">
    <path clip-path="url(#p97fd943352)" d="M 236.160007 307.584 
L 239.406552 307.584 
L 239.406552 141.226539 
L 236.160007 141.226539 
z
" style="fill:#1f77b4;"/>
   </g>
   <g id="patch_54">
    <path clip-path="url(#p97fd943352)" d="M 239.406552 307.584 
L 242.653097 307.584 
L 242.653097 193.306915 
L 239.406552 193.306915 
z
" style="fill:#1f77b4;"/>
   </g>
   <g id="patch_55">
    <path clip-path="url(#p97fd943352)" d="M 242.653098 307.584 
L 245.899642 307.584 
L 245.899642 205.483975 
L 242.653098 205.483975 
z
" style="fill:#1f77b4;"/>
   </g>
   <g id="patch_56">
    <path clip-path="url(#p97fd943352)" d="M 245.899642 307.584 
L 249.146188 307.584 
L 249.146188 209.605456 
L 245.899642 209.605456 
z
" style="fill:#1f77b4;"/>
   </g>
   <g id="patch_57">
    <path clip-path="url(#p97fd943352)" d="M 249.146187 307.584 
L 252.392732 307.584 
L 252.392732 221.595182 
L 249.146187 221.595182 
z
" style="fill:#1f77b4;"/>
   </g>
   <g id="patch_58">
    <path clip-path="url(#p97fd943352)" d="M 252.392732 307.584 
L 255.639277 307.584 
L 255.639277 218.223049 
L 252.392732 218.223049 
z
" style="fill:#1f77b4;"/>
   </g>
   <g id="patch_59">
    <path clip-path="url(#p97fd943352)" d="M 255.639278 307.584 
L 258.885825 307.584 
L 258.885825 223.093919 
L 255.639278 223.093919 
z
" style="fill:#1f77b4;"/>
   </g>
   <g id="patch_60">
    <path clip-path="url(#p97fd943352)" d="M 258.885825 307.584 
L 262.132369 307.584 
L 262.132369 238.081038 
L 258.885825 238.081038 
z
" style="fill:#1f77b4;"/>
   </g>
   <g id="patch_61">
    <path clip-path="url(#p97fd943352)" d="M 262.132368 307.584 
L 265.378911 307.584 
L 265.378911 237.893699 
L 262.132368 237.893699 
z
" style="fill:#1f77b4;"/>
   </g>
   <g id="patch_62">
    <path clip-path="url(#p97fd943352)" d="M 265.378914 307.584 
L 268.62546 307.584 
L 268.62546 242.764559 
L 265.378914 242.764559 
z
" style="fill:#1f77b4;"/>
   </g>
   <g id="patch_63">
    <path clip-path="url(#p97fd943352)" d="M 268.625457 307.584 
L 271.872 307.584 
L 271.872 253.068173 
L 268.625457 253.068173 
z
" style="fill:#1f77b4;"/>
   </g>
   <g id="patch_64">
    <path clip-path="url(#p97fd943352)" d="M 271.872004 307.584 
L 275.11855 307.584 
L 275.11855 257.751713 
L 271.872004 257.751713 
z
" style="fill:#1f77b4;"/>
   </g>
   <g id="patch_65">
    <path clip-path="url(#p97fd943352)" d="M 275.11855 307.584 
L 278.365096 307.584 
L 278.365096 266.556666 
L 275.11855 266.556666 
z
" style="fill:#1f77b4;"/>
   </g>
   <g id="patch_66">
    <path clip-path="url(#p97fd943352)" d="M 278.365096 307.584 
L 281.611643 307.584 
L 281.611643 265.432629 
L 278.365096 265.432629 
z
" style="fill:#1f77b4;"/>
   </g>
   <g id="patch_67">
    <path clip-path="url(#p97fd943352)" d="M 281.611643 307.584 
L 284.858186 307.584 
L 284.858186 267.493323 
L 281.611643 267.493323 
z
" style="fill:#1f77b4;"/>
   </g>
   <g id="patch_68">
    <path clip-path="url(#p97fd943352)" d="M 284.858186 307.584 
L 288.104732 307.584 
L 288.104732 271.80217 
L 284.858186 271.80217 
z
" style="fill:#1f77b4;"/>
   </g>
   <g id="patch_69">
    <path clip-path="url(#p97fd943352)" d="M 288.104729 307.584 
L 291.351269 307.584 
L 291.351269 279.108379 
L 288.104729 279.108379 
z
" style="fill:#1f77b4;"/>
   </g>
   <g id="patch_70">
    <path clip-path="url(#p97fd943352)" d="M 291.351275 307.584 
L 294.597822 307.584 
L 294.597822 275.548958 
L 291.351275 275.548958 
z
" style="fill:#1f77b4;"/>
   </g>
   <g id="patch_71">
    <path clip-path="url(#p97fd943352)" d="M 294.597822 307.584 
L 297.844368 307.584 
L 297.844368 276.110977 
L 294.597822 276.110977 
z
" style="fill:#1f77b4;"/>
   </g>
   <g id="patch_72">
    <path clip-path="url(#p97fd943352)" d="M 297.844368 307.584 
L 301.090914 307.584 
L 301.090914 277.047674 
L 297.844368 277.047674 
z
" style="fill:#1f77b4;"/>
   </g>
   <g id="patch_73">
    <path clip-path="url(#p97fd943352)" d="M 301.090914 307.584 
L 304.337461 307.584 
L 304.337461 279.295747 
L 301.090914 279.295747 
z
" style="fill:#1f77b4;"/>
   </g>
   <g id="patch_74">
    <path clip-path="url(#p97fd943352)" d="M 304.337467 307.584 
L 307.584007 307.584 
L 307.584007 280.045049 
L 304.337467 280.045049 
z
" style="fill:#1f77b4;"/>
   </g>
   <g id="patch_75">
    <path clip-path="url(#p97fd943352)" d="M 307.584001 307.584 
L 310.830547 307.584 
L 310.830547 289.224736 
L 307.584001 289.224736 
z
" style="fill:#1f77b4;"/>
   </g>
   <g id="patch_76">
    <path clip-path="url(#p97fd943352)" d="M 310.830547 307.584 
L 314.077093 307.584 
L 314.077093 289.974094 
L 310.830547 289.974094 
z
" style="fill:#1f77b4;"/>
   </g>
   <g id="patch_77">
    <path clip-path="url(#p97fd943352)" d="M 314.077093 307.584 
L 317.32364 307.584 
L 317.32364 291.28547 
L 314.077093 291.28547 
z
" style="fill:#1f77b4;"/>
   </g>
   <g id="patch_78">
    <path clip-path="url(#p97fd943352)" d="M 317.32364 307.584 
L 320.570186 307.584 
L 320.570186 291.28547 
L 317.32364 291.28547 
z
" style="fill:#1f77b4;"/>
   </g>
   <g id="patch_79">
    <path clip-path="url(#p97fd943352)" d="M 320.570186 307.584 
L 323.816732 307.584 
L 323.816732 293.908222 
L 320.570186 293.908222 
z
" style="fill:#1f77b4;"/>
   </g>
   <g id="patch_80">
    <path clip-path="url(#p97fd943352)" d="M 323.816732 307.584 
L 327.063279 307.584 
L 327.063279 291.660149 
L 323.816732 291.660149 
z
" style="fill:#1f77b4;"/>
   </g>
   <g id="patch_81">
    <path clip-path="url(#p97fd943352)" d="M 327.063279 307.584 
L 330.309819 307.584 
L 330.309819 291.472777 
L 327.063279 291.472777 
z
" style="fill:#1f77b4;"/>
   </g>
   <g id="patch_82">
    <path clip-path="url(#p97fd943352)" d="M 330.309819 307.584 
L 333.556365 307.584 
L 333.556365 297.65501 
L 330.309819 297.65501 
z
" style="fill:#1f77b4;"/>
   </g>
   <g id="patch_83">
    <path clip-path="url(#p97fd943352)" d="M 333.556365 307.584 
L 336.802911 307.584 
L 336.802911 293.346204 
L 333.556365 293.346204 
z
" style="fill:#1f77b4;"/>
   </g>
   <g id="patch_84">
    <path clip-path="url(#p97fd943352)" d="M 336.802911 307.584 
L 340.049458 307.584 
L 340.049458 299.903084 
L 336.802911 299.903084 
z
" style="fill:#1f77b4;"/>
   </g>
   <g id="patch_85">
    <path clip-path="url(#p97fd943352)" d="M 340.049458 307.584 
L 343.296004 307.584 
L 343.296004 299.715744 
L 340.049458 299.715744 
z
" style="fill:#1f77b4;"/>
   </g>
   <g id="patch_86">
    <path clip-path="url(#p97fd943352)" d="M 343.296011 307.584 
L 346.542544 307.584 
L 346.542544 300.465088 
L 343.296011 300.465088 
z
" style="fill:#1f77b4;"/>
   </g>
   <g id="patch_87">
    <path clip-path="url(#p97fd943352)" d="M 346.542544 307.584 
L 349.78909 307.584 
L 349.78909 299.528405 
L 346.542544 299.528405 
z
" style="fill:#1f77b4;"/>
   </g>
   <g id="patch_88">
    <path clip-path="url(#p97fd943352)" d="M 349.789077 307.584 
L 353.035624 307.584 
L 353.035624 298.029689 
L 349.789077 298.029689 
z
" style="fill:#1f77b4;"/>
   </g>
   <g id="patch_89">
    <path clip-path="url(#p97fd943352)" d="M 353.035637 307.584 
L 356.282183 307.584 
L 356.282183 301.589138 
L 353.035637 301.589138 
z
" style="fill:#1f77b4;"/>
   </g>
   <g id="patch_90">
    <path clip-path="url(#p97fd943352)" d="M 356.28217 307.584 
L 359.528716 307.584 
L 359.528716 301.401799 
L 356.28217 301.401799 
z
" style="fill:#1f77b4;"/>
   </g>
   <g id="patch_91">
    <path clip-path="url(#p97fd943352)" d="M 359.528729 307.584 
L 362.775276 307.584 
L 362.775276 302.338496 
L 359.528729 302.338496 
z
" style="fill:#1f77b4;"/>
   </g>
   <g id="patch_92">
    <path clip-path="url(#p97fd943352)" d="M 362.775263 307.584 
L 366.021809 307.584 
L 366.021809 301.401799 
L 362.775263 301.401799 
z
" style="fill:#1f77b4;"/>
   </g>
   <g id="patch_93">
    <path clip-path="url(#p97fd943352)" d="M 366.021822 307.584 
L 369.268368 307.584 
L 369.268368 301.21446 
L 366.021822 301.21446 
z
" style="fill:#1f77b4;"/>
   </g>
   <g id="patch_94">
    <path clip-path="url(#p97fd943352)" d="M 369.268355 307.584 
L 372.514902 307.584 
L 372.514902 301.963817 
L 369.268355 301.963817 
z
" style="fill:#1f77b4;"/>
   </g>
   <g id="patch_95">
    <path clip-path="url(#p97fd943352)" d="M 372.514915 307.584 
L 375.761461 307.584 
L 375.761461 303.837212 
L 372.514915 303.837212 
z
" style="fill:#1f77b4;"/>
   </g>
   <g id="patch_96">
    <path clip-path="url(#p97fd943352)" d="M 375.761461 307.584 
L 379.007995 307.584 
L 379.007995 304.961238 
L 375.761461 304.961238 
z
" style="fill:#1f77b4;"/>
   </g>
   <g id="patch_97">
    <path clip-path="url(#p97fd943352)" d="M 379.007981 307.584 
L 382.254528 307.584 
L 382.254528 304.773909 
L 379.007981 304.773909 
z
" style="fill:#1f77b4;"/>
   </g>
   <g id="patch_98">
    <path clip-path="url(#p97fd943352)" d="M 382.254541 307.584 
L 385.501087 307.584 
L 385.501087 306.272624 
L 382.254541 306.272624 
z
" style="fill:#1f77b4;"/>
   </g>
   <g id="patch_99">
    <path clip-path="url(#p97fd943352)" d="M 385.501074 307.584 
L 388.747621 307.584 
L 388.747621 306.459963 
L 385.501074 306.459963 
z
" style="fill:#1f77b4;"/>
   </g>
   <g id="patch_100">
    <path clip-path="url(#p97fd943352)" d="M 388.747634 307.584 
L 391.99418 307.584 
L 391.99418 306.834642 
L 388.747634 306.834642 
z
" style="fill:#1f77b4;"/>
   </g>
   <g id="patch_101">
    <path clip-path="url(#p97fd943352)" d="M 391.994167 307.584 
L 395.240713 307.584 
L 395.240713 307.021982 
L 391.994167 307.021982 
z
" style="fill:#1f77b4;"/>
   </g>
   <g id="patch_102">
    <path clip-path="url(#p97fd943352)" d="M 395.240726 307.584 
L 398.487273 307.584 
L 398.487273 306.085285 
L 395.240726 306.085285 
z
" style="fill:#1f77b4;"/>
   </g>
   <g id="matplotlib.axis_1">
    <g id="xtick_1">
     <g id="line2d_1">
      <defs>
       <path d="M 0 0 
L 0 3.5 
" id="m5a33c4fa2e" style="stroke:#000000;stroke-width:0.8;"/>
      </defs>
      <g>
       <use style="stroke:#000000;stroke-width:0.8;" x="72.028929" xlink:href="#m5a33c4fa2e" y="307.584"/>
      </g>
     </g>
     <g id="text_1">
      <!-- −3 -->
      <defs>
       <path d="M 10.59375 35.5 
L 73.1875 35.5 
L 73.1875 27.203125 
L 10.59375 27.203125 
z
" id="DejaVuSans-8722"/>
       <path d="M 40.578125 39.3125 
Q 47.65625 37.796875 51.625 33 
Q 55.609375 28.21875 55.609375 21.1875 
Q 55.609375 10.40625 48.1875 4.484375 
Q 40.765625 -1.421875 27.09375 -1.421875 
Q 22.515625 -1.421875 17.65625 -0.515625 
Q 12.796875 0.390625 7.625 2.203125 
L 7.625 11.71875 
Q 11.71875 9.328125 16.59375 8.109375 
Q 21.484375 6.890625 26.8125 6.890625 
Q 36.078125 6.890625 40.9375 10.546875 
Q 45.796875 14.203125 45.796875 21.1875 
Q 45.796875 27.640625 41.28125 31.265625 
Q 36.765625 34.90625 28.71875 34.90625 
L 20.21875 34.90625 
L 20.21875 43.015625 
L 29.109375 43.015625 
Q 36.375 43.015625 40.234375 45.921875 
Q 44.09375 48.828125 44.09375 54.296875 
Q 44.09375 59.90625 40.109375 62.90625 
Q 36.140625 65.921875 28.71875 65.921875 
Q 24.65625 65.921875 20.015625 65.03125 
Q 15.375 64.15625 9.8125 62.3125 
L 9.8125 71.09375 
Q 15.4375 72.65625 20.34375 73.4375 
Q 25.25 74.21875 29.59375 74.21875 
Q 40.828125 74.21875 47.359375 69.109375 
Q 53.90625 64.015625 53.90625 55.328125 
Q 53.90625 49.265625 50.4375 45.09375 
Q 46.96875 40.921875 40.578125 39.3125 
z
" id="DejaVuSans-51"/>
      </defs>
      <g transform="translate(59.49807 327.501344)scale(0.17 -0.17)">
       <use xlink:href="#DejaVuSans-8722"/>
       <use x="83.789062" xlink:href="#DejaVuSans-51"/>
      </g>
     </g>
    </g>
    <g id="xtick_2">
     <g id="line2d_2">
      <g>
       <use style="stroke:#000000;stroke-width:0.8;" x="126.759867" xlink:href="#m5a33c4fa2e" y="307.584"/>
      </g>
     </g>
     <g id="text_2">
      <!-- −2 -->
      <defs>
       <path d="M 19.1875 8.296875 
L 53.609375 8.296875 
L 53.609375 0 
L 7.328125 0 
L 7.328125 8.296875 
Q 12.9375 14.109375 22.625 23.890625 
Q 32.328125 33.6875 34.8125 36.53125 
Q 39.546875 41.84375 41.421875 45.53125 
Q 43.3125 49.21875 43.3125 52.78125 
Q 43.3125 58.59375 39.234375 62.25 
Q 35.15625 65.921875 28.609375 65.921875 
Q 23.96875 65.921875 18.8125 64.3125 
Q 13.671875 62.703125 7.8125 59.421875 
L 7.8125 69.390625 
Q 13.765625 71.78125 18.9375 73 
Q 24.125 74.21875 28.421875 74.21875 
Q 39.75 74.21875 46.484375 68.546875 
Q 53.21875 62.890625 53.21875 53.421875 
Q 53.21875 48.921875 51.53125 44.890625 
Q 49.859375 40.875 45.40625 35.40625 
Q 44.1875 33.984375 37.640625 27.21875 
Q 31.109375 20.453125 19.1875 8.296875 
z
" id="DejaVuSans-50"/>
      </defs>
      <g transform="translate(114.229007 327.501344)scale(0.17 -0.17)">
       <use xlink:href="#DejaVuSans-8722"/>
       <use x="83.789062" xlink:href="#DejaVuSans-50"/>
      </g>
     </g>
    </g>
    <g id="xtick_3">
     <g id="line2d_3">
      <g>
       <use style="stroke:#000000;stroke-width:0.8;" x="181.490804" xlink:href="#m5a33c4fa2e" y="307.584"/>
      </g>
     </g>
     <g id="text_3">
      <!-- −1 -->
      <defs>
       <path d="M 12.40625 8.296875 
L 28.515625 8.296875 
L 28.515625 63.921875 
L 10.984375 60.40625 
L 10.984375 69.390625 
L 28.421875 72.90625 
L 38.28125 72.90625 
L 38.28125 8.296875 
L 54.390625 8.296875 
L 54.390625 0 
L 12.40625 0 
z
" id="DejaVuSans-49"/>
      </defs>
      <g transform="translate(168.959944 327.501344)scale(0.17 -0.17)">
       <use xlink:href="#DejaVuSans-8722"/>
       <use x="83.789062" xlink:href="#DejaVuSans-49"/>
      </g>
     </g>
    </g>
    <g id="xtick_4">
     <g id="line2d_4">
      <g>
       <use style="stroke:#000000;stroke-width:0.8;" x="236.221741" xlink:href="#m5a33c4fa2e" y="307.584"/>
      </g>
     </g>
     <g id="text_4">
      <!-- 0 -->
      <defs>
       <path d="M 31.78125 66.40625 
Q 24.171875 66.40625 20.328125 58.90625 
Q 16.5 51.421875 16.5 36.375 
Q 16.5 21.390625 20.328125 13.890625 
Q 24.171875 6.390625 31.78125 6.390625 
Q 39.453125 6.390625 43.28125 13.890625 
Q 47.125 21.390625 47.125 36.375 
Q 47.125 51.421875 43.28125 58.90625 
Q 39.453125 66.40625 31.78125 66.40625 
z
M 31.78125 74.21875 
Q 44.046875 74.21875 50.515625 64.515625 
Q 56.984375 54.828125 56.984375 36.375 
Q 56.984375 17.96875 50.515625 8.265625 
Q 44.046875 -1.421875 31.78125 -1.421875 
Q 19.53125 -1.421875 13.0625 8.265625 
Q 6.59375 17.96875 6.59375 36.375 
Q 6.59375 54.828125 13.0625 64.515625 
Q 19.53125 74.21875 31.78125 74.21875 
z
" id="DejaVuSans-48"/>
      </defs>
      <g transform="translate(230.813616 327.501344)scale(0.17 -0.17)">
       <use xlink:href="#DejaVuSans-48"/>
      </g>
     </g>
    </g>
    <g id="xtick_5">
     <g id="line2d_5">
      <g>
       <use style="stroke:#000000;stroke-width:0.8;" x="290.952678" xlink:href="#m5a33c4fa2e" y="307.584"/>
      </g>
     </g>
     <g id="text_5">
      <!-- 1 -->
      <g transform="translate(285.544553 327.501344)scale(0.17 -0.17)">
       <use xlink:href="#DejaVuSans-49"/>
      </g>
     </g>
    </g>
    <g id="xtick_6">
     <g id="line2d_6">
      <g>
       <use style="stroke:#000000;stroke-width:0.8;" x="345.683615" xlink:href="#m5a33c4fa2e" y="307.584"/>
      </g>
     </g>
     <g id="text_6">
      <!-- 2 -->
      <g transform="translate(340.27549 327.501344)scale(0.17 -0.17)">
       <use xlink:href="#DejaVuSans-50"/>
      </g>
     </g>
    </g>
    <g id="xtick_7">
     <g id="line2d_7">
      <g>
       <use style="stroke:#000000;stroke-width:0.8;" x="400.414552" xlink:href="#m5a33c4fa2e" y="307.584"/>
      </g>
     </g>
     <g id="text_7">
      <!-- 3 -->
      <g transform="translate(395.006427 327.501344)scale(0.17 -0.17)">
       <use xlink:href="#DejaVuSans-51"/>
      </g>
     </g>
    </g>
    <g id="text_8">
     <!-- Position in Radian -->
     <defs>
      <path d="M 19.671875 64.796875 
L 19.671875 37.40625 
L 32.078125 37.40625 
Q 38.96875 37.40625 42.71875 40.96875 
Q 46.484375 44.53125 46.484375 51.125 
Q 46.484375 57.671875 42.71875 61.234375 
Q 38.96875 64.796875 32.078125 64.796875 
z
M 9.8125 72.90625 
L 32.078125 72.90625 
Q 44.34375 72.90625 50.609375 67.359375 
Q 56.890625 61.8125 56.890625 51.125 
Q 56.890625 40.328125 50.609375 34.8125 
Q 44.34375 29.296875 32.078125 29.296875 
L 19.671875 29.296875 
L 19.671875 0 
L 9.8125 0 
z
" id="DejaVuSans-80"/>
      <path d="M 30.609375 48.390625 
Q 23.390625 48.390625 19.1875 42.75 
Q 14.984375 37.109375 14.984375 27.296875 
Q 14.984375 17.484375 19.15625 11.84375 
Q 23.34375 6.203125 30.609375 6.203125 
Q 37.796875 6.203125 41.984375 11.859375 
Q 46.1875 17.53125 46.1875 27.296875 
Q 46.1875 37.015625 41.984375 42.703125 
Q 37.796875 48.390625 30.609375 48.390625 
z
M 30.609375 56 
Q 42.328125 56 49.015625 48.375 
Q 55.71875 40.765625 55.71875 27.296875 
Q 55.71875 13.875 49.015625 6.21875 
Q 42.328125 -1.421875 30.609375 -1.421875 
Q 18.84375 -1.421875 12.171875 6.21875 
Q 5.515625 13.875 5.515625 27.296875 
Q 5.515625 40.765625 12.171875 48.375 
Q 18.84375 56 30.609375 56 
z
" id="DejaVuSans-111"/>
      <path d="M 44.28125 53.078125 
L 44.28125 44.578125 
Q 40.484375 46.53125 36.375 47.5 
Q 32.28125 48.484375 27.875 48.484375 
Q 21.1875 48.484375 17.84375 46.4375 
Q 14.5 44.390625 14.5 40.28125 
Q 14.5 37.15625 16.890625 35.375 
Q 19.28125 33.59375 26.515625 31.984375 
L 29.59375 31.296875 
Q 39.15625 29.25 43.1875 25.515625 
Q 47.21875 21.78125 47.21875 15.09375 
Q 47.21875 7.46875 41.1875 3.015625 
Q 35.15625 -1.421875 24.609375 -1.421875 
Q 20.21875 -1.421875 15.453125 -0.5625 
Q 10.6875 0.296875 5.421875 2 
L 5.421875 11.28125 
Q 10.40625 8.6875 15.234375 7.390625 
Q 20.0625 6.109375 24.8125 6.109375 
Q 31.15625 6.109375 34.5625 8.28125 
Q 37.984375 10.453125 37.984375 14.40625 
Q 37.984375 18.0625 35.515625 20.015625 
Q 33.0625 21.96875 24.703125 23.78125 
L 21.578125 24.515625 
Q 13.234375 26.265625 9.515625 29.90625 
Q 5.8125 33.546875 5.8125 39.890625 
Q 5.8125 47.609375 11.28125 51.796875 
Q 16.75 56 26.8125 56 
Q 31.78125 56 36.171875 55.265625 
Q 40.578125 54.546875 44.28125 53.078125 
z
" id="DejaVuSans-115"/>
      <path d="M 9.421875 54.6875 
L 18.40625 54.6875 
L 18.40625 0 
L 9.421875 0 
z
M 9.421875 75.984375 
L 18.40625 75.984375 
L 18.40625 64.59375 
L 9.421875 64.59375 
z
" id="DejaVuSans-105"/>
      <path d="M 18.3125 70.21875 
L 18.3125 54.6875 
L 36.8125 54.6875 
L 36.8125 47.703125 
L 18.3125 47.703125 
L 18.3125 18.015625 
Q 18.3125 11.328125 20.140625 9.421875 
Q 21.96875 7.515625 27.59375 7.515625 
L 36.8125 7.515625 
L 36.8125 0 
L 27.59375 0 
Q 17.1875 0 13.234375 3.875 
Q 9.28125 7.765625 9.28125 18.015625 
L 9.28125 47.703125 
L 2.6875 47.703125 
L 2.6875 54.6875 
L 9.28125 54.6875 
L 9.28125 70.21875 
z
" id="DejaVuSans-116"/>
      <path d="M 54.890625 33.015625 
L 54.890625 0 
L 45.90625 0 
L 45.90625 32.71875 
Q 45.90625 40.484375 42.875 44.328125 
Q 39.84375 48.1875 33.796875 48.1875 
Q 26.515625 48.1875 22.3125 43.546875 
Q 18.109375 38.921875 18.109375 30.90625 
L 18.109375 0 
L 9.078125 0 
L 9.078125 54.6875 
L 18.109375 54.6875 
L 18.109375 46.1875 
Q 21.34375 51.125 25.703125 53.5625 
Q 30.078125 56 35.796875 56 
Q 45.21875 56 50.046875 50.171875 
Q 54.890625 44.34375 54.890625 33.015625 
z
" id="DejaVuSans-110"/>
      <path id="DejaVuSans-32"/>
      <path d="M 44.390625 34.1875 
Q 47.5625 33.109375 50.5625 29.59375 
Q 53.5625 26.078125 56.59375 19.921875 
L 66.609375 0 
L 56 0 
L 46.6875 18.703125 
Q 43.0625 26.03125 39.671875 28.421875 
Q 36.28125 30.8125 30.421875 30.8125 
L 19.671875 30.8125 
L 19.671875 0 
L 9.8125 0 
L 9.8125 72.90625 
L 32.078125 72.90625 
Q 44.578125 72.90625 50.734375 67.671875 
Q 56.890625 62.453125 56.890625 51.90625 
Q 56.890625 45.015625 53.6875 40.46875 
Q 50.484375 35.9375 44.390625 34.1875 
z
M 19.671875 64.796875 
L 19.671875 38.921875 
L 32.078125 38.921875 
Q 39.203125 38.921875 42.84375 42.21875 
Q 46.484375 45.515625 46.484375 51.90625 
Q 46.484375 58.296875 42.84375 61.546875 
Q 39.203125 64.796875 32.078125 64.796875 
z
" id="DejaVuSans-82"/>
      <path d="M 34.28125 27.484375 
Q 23.390625 27.484375 19.1875 25 
Q 14.984375 22.515625 14.984375 16.5 
Q 14.984375 11.71875 18.140625 8.90625 
Q 21.296875 6.109375 26.703125 6.109375 
Q 34.1875 6.109375 38.703125 11.40625 
Q 43.21875 16.703125 43.21875 25.484375 
L 43.21875 27.484375 
z
M 52.203125 31.203125 
L 52.203125 0 
L 43.21875 0 
L 43.21875 8.296875 
Q 40.140625 3.328125 35.546875 0.953125 
Q 30.953125 -1.421875 24.3125 -1.421875 
Q 15.921875 -1.421875 10.953125 3.296875 
Q 6 8.015625 6 15.921875 
Q 6 25.140625 12.171875 29.828125 
Q 18.359375 34.515625 30.609375 34.515625 
L 43.21875 34.515625 
L 43.21875 35.40625 
Q 43.21875 41.609375 39.140625 45 
Q 35.0625 48.390625 27.6875 48.390625 
Q 23 48.390625 18.546875 47.265625 
Q 14.109375 46.140625 10.015625 43.890625 
L 10.015625 52.203125 
Q 14.9375 54.109375 19.578125 55.046875 
Q 24.21875 56 28.609375 56 
Q 40.484375 56 46.34375 49.84375 
Q 52.203125 43.703125 52.203125 31.203125 
z
" id="DejaVuSans-97"/>
      <path d="M 45.40625 46.390625 
L 45.40625 75.984375 
L 54.390625 75.984375 
L 54.390625 0 
L 45.40625 0 
L 45.40625 8.203125 
Q 42.578125 3.328125 38.25 0.953125 
Q 33.9375 -1.421875 27.875 -1.421875 
Q 17.96875 -1.421875 11.734375 6.484375 
Q 5.515625 14.40625 5.515625 27.296875 
Q 5.515625 40.1875 11.734375 48.09375 
Q 17.96875 56 27.875 56 
Q 33.9375 56 38.25 53.625 
Q 42.578125 51.265625 45.40625 46.390625 
z
M 14.796875 27.296875 
Q 14.796875 17.390625 18.875 11.75 
Q 22.953125 6.109375 30.078125 6.109375 
Q 37.203125 6.109375 41.296875 11.75 
Q 45.40625 17.390625 45.40625 27.296875 
Q 45.40625 37.203125 41.296875 42.84375 
Q 37.203125 48.484375 30.078125 48.484375 
Q 22.953125 48.484375 18.875 42.84375 
Q 14.796875 37.203125 14.796875 27.296875 
z
" id="DejaVuSans-100"/>
     </defs>
     <g transform="translate(102.024844 357.832125)scale(0.3 -0.3)">
      <use xlink:href="#DejaVuSans-80"/>
      <use x="60.255859" xlink:href="#DejaVuSans-111"/>
      <use x="121.4375" xlink:href="#DejaVuSans-115"/>
      <use x="173.537109" xlink:href="#DejaVuSans-105"/>
      <use x="201.320312" xlink:href="#DejaVuSans-116"/>
      <use x="240.529297" xlink:href="#DejaVuSans-105"/>
      <use x="268.3125" xlink:href="#DejaVuSans-111"/>
      <use x="329.494141" xlink:href="#DejaVuSans-110"/>
      <use x="392.873047" xlink:href="#DejaVuSans-32"/>
      <use x="424.660156" xlink:href="#DejaVuSans-105"/>
      <use x="452.443359" xlink:href="#DejaVuSans-110"/>
      <use x="515.822266" xlink:href="#DejaVuSans-32"/>
      <use x="547.609375" xlink:href="#DejaVuSans-82"/>
      <use x="617.060547" xlink:href="#DejaVuSans-97"/>
      <use x="678.339844" xlink:href="#DejaVuSans-100"/>
      <use x="741.816406" xlink:href="#DejaVuSans-105"/>
      <use x="769.599609" xlink:href="#DejaVuSans-97"/>
      <use x="830.878906" xlink:href="#DejaVuSans-110"/>
     </g>
    </g>
   </g>
   <g id="matplotlib.axis_2">
    <g id="ytick_1">
     <g id="line2d_8">
      <defs>
       <path d="M 0 0 
L -3.5 0 
" id="m3cde3fd50b" style="stroke:#000000;stroke-width:0.8;"/>
      </defs>
      <g>
       <use style="stroke:#000000;stroke-width:0.8;" x="57.6" xlink:href="#m3cde3fd50b" y="307.584"/>
      </g>
     </g>
     <g id="text_9">
      <!-- 0.0 -->
      <defs>
       <path d="M 10.6875 12.40625 
L 21 12.40625 
L 21 0 
L 10.6875 0 
z
" id="DejaVuSans-46"/>
      </defs>
      <g transform="translate(23.564687 314.042672)scale(0.17 -0.17)">
       <use xlink:href="#DejaVuSans-48"/>
       <use x="63.623047" xlink:href="#DejaVuSans-46"/>
       <use x="95.410156" xlink:href="#DejaVuSans-48"/>
      </g>
     </g>
    </g>
    <g id="ytick_2">
     <g id="line2d_9">
      <g>
       <use style="stroke:#000000;stroke-width:0.8;" x="57.6" xlink:href="#m3cde3fd50b" y="268.689701"/>
      </g>
     </g>
     <g id="text_10">
      <!-- 0.2 -->
      <g transform="translate(23.564687 275.148373)scale(0.17 -0.17)">
       <use xlink:href="#DejaVuSans-48"/>
       <use x="63.623047" xlink:href="#DejaVuSans-46"/>
       <use x="95.410156" xlink:href="#DejaVuSans-50"/>
      </g>
     </g>
    </g>
    <g id="ytick_3">
     <g id="line2d_10">
      <g>
       <use style="stroke:#000000;stroke-width:0.8;" x="57.6" xlink:href="#m3cde3fd50b" y="229.795401"/>
      </g>
     </g>
     <g id="text_11">
      <!-- 0.4 -->
      <defs>
       <path d="M 37.796875 64.3125 
L 12.890625 25.390625 
L 37.796875 25.390625 
z
M 35.203125 72.90625 
L 47.609375 72.90625 
L 47.609375 25.390625 
L 58.015625 25.390625 
L 58.015625 17.1875 
L 47.609375 17.1875 
L 47.609375 0 
L 37.796875 0 
L 37.796875 17.1875 
L 4.890625 17.1875 
L 4.890625 26.703125 
z
" id="DejaVuSans-52"/>
      </defs>
      <g transform="translate(23.564687 236.254073)scale(0.17 -0.17)">
       <use xlink:href="#DejaVuSans-48"/>
       <use x="63.623047" xlink:href="#DejaVuSans-46"/>
       <use x="95.410156" xlink:href="#DejaVuSans-52"/>
      </g>
     </g>
    </g>
    <g id="ytick_4">
     <g id="line2d_11">
      <g>
       <use style="stroke:#000000;stroke-width:0.8;" x="57.6" xlink:href="#m3cde3fd50b" y="190.901102"/>
      </g>
     </g>
     <g id="text_12">
      <!-- 0.6 -->
      <defs>
       <path d="M 33.015625 40.375 
Q 26.375 40.375 22.484375 35.828125 
Q 18.609375 31.296875 18.609375 23.390625 
Q 18.609375 15.53125 22.484375 10.953125 
Q 26.375 6.390625 33.015625 6.390625 
Q 39.65625 6.390625 43.53125 10.953125 
Q 47.40625 15.53125 47.40625 23.390625 
Q 47.40625 31.296875 43.53125 35.828125 
Q 39.65625 40.375 33.015625 40.375 
z
M 52.59375 71.296875 
L 52.59375 62.3125 
Q 48.875 64.0625 45.09375 64.984375 
Q 41.3125 65.921875 37.59375 65.921875 
Q 27.828125 65.921875 22.671875 59.328125 
Q 17.53125 52.734375 16.796875 39.40625 
Q 19.671875 43.65625 24.015625 45.921875 
Q 28.375 48.1875 33.59375 48.1875 
Q 44.578125 48.1875 50.953125 41.515625 
Q 57.328125 34.859375 57.328125 23.390625 
Q 57.328125 12.15625 50.6875 5.359375 
Q 44.046875 -1.421875 33.015625 -1.421875 
Q 20.359375 -1.421875 13.671875 8.265625 
Q 6.984375 17.96875 6.984375 36.375 
Q 6.984375 53.65625 15.1875 63.9375 
Q 23.390625 74.21875 37.203125 74.21875 
Q 40.921875 74.21875 44.703125 73.484375 
Q 48.484375 72.75 52.59375 71.296875 
z
" id="DejaVuSans-54"/>
      </defs>
      <g transform="translate(23.564687 197.359774)scale(0.17 -0.17)">
       <use xlink:href="#DejaVuSans-48"/>
       <use x="63.623047" xlink:href="#DejaVuSans-46"/>
       <use x="95.410156" xlink:href="#DejaVuSans-54"/>
      </g>
     </g>
    </g>
    <g id="ytick_5">
     <g id="line2d_12">
      <g>
       <use style="stroke:#000000;stroke-width:0.8;" x="57.6" xlink:href="#m3cde3fd50b" y="152.006803"/>
      </g>
     </g>
     <g id="text_13">
      <!-- 0.8 -->
      <defs>
       <path d="M 31.78125 34.625 
Q 24.75 34.625 20.71875 30.859375 
Q 16.703125 27.09375 16.703125 20.515625 
Q 16.703125 13.921875 20.71875 10.15625 
Q 24.75 6.390625 31.78125 6.390625 
Q 38.8125 6.390625 42.859375 10.171875 
Q 46.921875 13.96875 46.921875 20.515625 
Q 46.921875 27.09375 42.890625 30.859375 
Q 38.875 34.625 31.78125 34.625 
z
M 21.921875 38.8125 
Q 15.578125 40.375 12.03125 44.71875 
Q 8.5 49.078125 8.5 55.328125 
Q 8.5 64.0625 14.71875 69.140625 
Q 20.953125 74.21875 31.78125 74.21875 
Q 42.671875 74.21875 48.875 69.140625 
Q 55.078125 64.0625 55.078125 55.328125 
Q 55.078125 49.078125 51.53125 44.71875 
Q 48 40.375 41.703125 38.8125 
Q 48.828125 37.15625 52.796875 32.3125 
Q 56.78125 27.484375 56.78125 20.515625 
Q 56.78125 9.90625 50.3125 4.234375 
Q 43.84375 -1.421875 31.78125 -1.421875 
Q 19.734375 -1.421875 13.25 4.234375 
Q 6.78125 9.90625 6.78125 20.515625 
Q 6.78125 27.484375 10.78125 32.3125 
Q 14.796875 37.15625 21.921875 38.8125 
z
M 18.3125 54.390625 
Q 18.3125 48.734375 21.84375 45.5625 
Q 25.390625 42.390625 31.78125 42.390625 
Q 38.140625 42.390625 41.71875 45.5625 
Q 45.3125 48.734375 45.3125 54.390625 
Q 45.3125 60.0625 41.71875 63.234375 
Q 38.140625 66.40625 31.78125 66.40625 
Q 25.390625 66.40625 21.84375 63.234375 
Q 18.3125 60.0625 18.3125 54.390625 
z
" id="DejaVuSans-56"/>
      </defs>
      <g transform="translate(23.564687 158.465474)scale(0.17 -0.17)">
       <use xlink:href="#DejaVuSans-48"/>
       <use x="63.623047" xlink:href="#DejaVuSans-46"/>
       <use x="95.410156" xlink:href="#DejaVuSans-56"/>
      </g>
     </g>
    </g>
    <g id="ytick_6">
     <g id="line2d_13">
      <g>
       <use style="stroke:#000000;stroke-width:0.8;" x="57.6" xlink:href="#m3cde3fd50b" y="113.112503"/>
      </g>
     </g>
     <g id="text_14">
      <!-- 1.0 -->
      <g transform="translate(23.564687 119.571175)scale(0.17 -0.17)">
       <use xlink:href="#DejaVuSans-49"/>
       <use x="63.623047" xlink:href="#DejaVuSans-46"/>
       <use x="95.410156" xlink:href="#DejaVuSans-48"/>
      </g>
     </g>
    </g>
    <g id="ytick_7">
     <g id="line2d_14">
      <g>
       <use style="stroke:#000000;stroke-width:0.8;" x="57.6" xlink:href="#m3cde3fd50b" y="74.218204"/>
      </g>
     </g>
     <g id="text_15">
      <!-- 1.2 -->
      <g transform="translate(23.564687 80.676876)scale(0.17 -0.17)">
       <use xlink:href="#DejaVuSans-49"/>
       <use x="63.623047" xlink:href="#DejaVuSans-46"/>
       <use x="95.410156" xlink:href="#DejaVuSans-50"/>
      </g>
     </g>
    </g>
    <g id="text_16">
     <!-- Density -->
     <defs>
      <path d="M 19.671875 64.796875 
L 19.671875 8.109375 
L 31.59375 8.109375 
Q 46.6875 8.109375 53.6875 14.9375 
Q 60.6875 21.78125 60.6875 36.53125 
Q 60.6875 51.171875 53.6875 57.984375 
Q 46.6875 64.796875 31.59375 64.796875 
z
M 9.8125 72.90625 
L 30.078125 72.90625 
Q 51.265625 72.90625 61.171875 64.09375 
Q 71.09375 55.28125 71.09375 36.53125 
Q 71.09375 17.671875 61.125 8.828125 
Q 51.171875 0 30.078125 0 
L 9.8125 0 
z
" id="DejaVuSans-68"/>
      <path d="M 56.203125 29.59375 
L 56.203125 25.203125 
L 14.890625 25.203125 
Q 15.484375 15.921875 20.484375 11.0625 
Q 25.484375 6.203125 34.421875 6.203125 
Q 39.59375 6.203125 44.453125 7.46875 
Q 49.3125 8.734375 54.109375 11.28125 
L 54.109375 2.78125 
Q 49.265625 0.734375 44.1875 -0.34375 
Q 39.109375 -1.421875 33.890625 -1.421875 
Q 20.796875 -1.421875 13.15625 6.1875 
Q 5.515625 13.8125 5.515625 26.8125 
Q 5.515625 40.234375 12.765625 48.109375 
Q 20.015625 56 32.328125 56 
Q 43.359375 56 49.78125 48.890625 
Q 56.203125 41.796875 56.203125 29.59375 
z
M 47.21875 32.234375 
Q 47.125 39.59375 43.09375 43.984375 
Q 39.0625 48.390625 32.421875 48.390625 
Q 24.90625 48.390625 20.390625 44.140625 
Q 15.875 39.890625 15.1875 32.171875 
z
" id="DejaVuSans-101"/>
      <path d="M 32.171875 -5.078125 
Q 28.375 -14.84375 24.75 -17.8125 
Q 21.140625 -20.796875 15.09375 -20.796875 
L 7.90625 -20.796875 
L 7.90625 -13.28125 
L 13.1875 -13.28125 
Q 16.890625 -13.28125 18.9375 -11.515625 
Q 21 -9.765625 23.484375 -3.21875 
L 25.09375 0.875 
L 2.984375 54.6875 
L 12.5 54.6875 
L 29.59375 11.921875 
L 46.6875 54.6875 
L 56.203125 54.6875 
z
" id="DejaVuSans-121"/>
     </defs>
     <g transform="translate(13.325625 231.553781)rotate(-90)scale(0.3 -0.3)">
      <use xlink:href="#DejaVuSans-68"/>
      <use x="77.001953" xlink:href="#DejaVuSans-101"/>
      <use x="138.525391" xlink:href="#DejaVuSans-110"/>
      <use x="201.904297" xlink:href="#DejaVuSans-115"/>
      <use x="254.003906" xlink:href="#DejaVuSans-105"/>
      <use x="281.787109" xlink:href="#DejaVuSans-116"/>
      <use x="320.996094" xlink:href="#DejaVuSans-121"/>
     </g>
    </g>
   </g>
   <g id="line2d_15">
    <path clip-path="url(#p97fd943352)" d="M 99.394398 305.628421 
L 99.840064 305.791691 
L 100.254456 306.249062 
L 100.731397 306.677306 
L 101.083238 306.6857 
L 101.661823 306.692077 
L 102.490605 306.828479 
L 104.09344 306.679463 
L 104.617293 306.529059 
L 105.086415 306.474128 
L 105.500807 306.68396 
L 106.251403 307.079851 
L 106.697069 307.01054 
L 107.283472 306.692221 
L 108.252991 306.051193 
L 108.675201 306.178058 
L 109.159961 306.555379 
L 110.0122 307.291183 
L 110.309311 307.214506 
L 110.661152 306.861051 
L 112.052882 305.190861 
L 112.349993 305.302371 
L 113.249144 305.804805 
L 113.577529 305.586492 
L 114.328125 305.037334 
L 114.78161 305.076487 
L 115.735492 305.357489 
L 116.35317 305.734943 
L 116.587731 305.570513 
L 116.931754 304.98769 
L 117.572888 303.937597 
L 117.909092 303.797616 
L 118.753512 303.623494 
L 119.37119 303.313724 
L 119.61357 303.492857 
L 120.012324 304.15096 
L 120.450171 304.710388 
L 120.833288 304.817065 
L 121.247679 305.00264 
L 121.638615 305.139806 
L 121.841901 304.954206 
L 122.107737 304.345843 
L 123.327455 301.057935 
L 123.702753 300.741415 
L 123.952951 300.793935 
L 124.242243 301.128777 
L 125.039751 302.166972 
L 125.266494 302.084308 
L 125.547967 301.693944 
L 126.056183 300.505925 
L 126.501849 299.696468 
L 126.744229 299.627865 
L 127.455731 299.701376 
L 127.815392 299.11761 
L 128.120321 298.819999 
L 128.292333 298.930065 
L 128.542531 299.435125 
L 129.21494 300.871497 
L 129.668425 301.181337 
L 130.176641 301.338476 
L 130.974149 301.32352 
L 131.333809 301.933017 
L 131.732563 302.446714 
L 131.951487 302.41813 
L 132.225142 302.100895 
L 132.788088 301.443682 
L 133.02265 301.492345 
L 133.397947 301.872234 
L 133.726333 302.068917 
L 133.921801 301.937708 
L 134.179818 301.437785 
L 134.813133 300.141989 
L 134.985145 300.209295 
L 135.211887 300.618448 
L 136.079763 302.426283 
L 136.548886 302.713161 
L 136.924183 302.719359 
L 138.33155 302.181308 
L 138.581749 301.638557 
L 138.894497 300.332674 
L 140.004753 295.007429 
L 140.223677 294.951677 
L 140.512969 295.1738 
L 141.279202 296.117411 
L 141.967248 296.936505 
L 142.358184 297.027544 
L 142.694388 297.171258 
L 142.960224 297.574694 
L 143.9532 299.429489 
L 143.961018 299.425481 
L 144.148667 299.190679 
L 144.430141 298.393288 
L 145.305836 294.838175 
L 146.236261 291.366392 
L 146.416092 291.332613 
L 146.595922 291.59977 
L 146.986857 292.734184 
L 147.291787 293.282792 
L 147.409067 293.19797 
L 147.565441 292.712312 
L 147.800003 291.108269 
L 148.644423 284.180926 
L 148.675698 284.200198 
L 148.785159 284.501341 
L 148.988446 285.892004 
L 149.817228 292.372548 
L 149.981421 292.47293 
L 149.98924 292.468498 
L 150.153433 292.237112 
L 150.786748 291.182093 
L 150.966578 291.32629 
L 151.638987 292.143401 
L 151.670262 292.116573 
L 151.865729 291.75761 
L 152.608506 290.02591 
L 152.639781 290.043069 
L 152.803974 290.297239 
L 153.210547 291.526495 
L 153.49202 291.977664 
L 153.640575 291.899315 
L 153.867318 291.431671 
L 154.500633 290.051044 
L 155.126129 289.288116 
L 155.399784 288.21111 
L 155.876725 285.15697 
L 156.361485 282.643018 
L 156.744601 281.758914 
L 157.893951 279.933659 
L 158.347436 279.86908 
L 158.605453 279.457946 
L 159.058938 278.769817 
L 159.207494 278.864973 
L 159.402961 279.33596 
L 159.731347 280.847178 
L 160.325568 283.508965 
L 160.489761 283.607171 
L 160.505399 283.596504 
L 160.653954 283.335453 
L 160.966702 282.186691 
L 161.326363 281.189744 
L 161.490555 281.180632 
L 161.693842 281.488864 
L 162.053502 281.965728 
L 162.18642 281.83347 
L 162.381888 281.228979 
L 162.788461 279.012132 
L 163.390501 276.180012 
L 164.586763 271.918613 
L 164.766593 271.896359 
L 164.930786 272.176702 
L 165.173166 273.12071 
L 165.736112 276.557094 
L 166.158323 278.352352 
L 166.400702 278.64543 
L 166.557077 278.535086 
L 166.783819 278.025254 
L 167.612602 275.89178 
L 167.823707 275.927367 
L 168.183367 276.297599 
L 168.777589 277.184862 
L 169.833114 279.112593 
L 170.497704 279.504706 
L 170.70099 279.367248 
L 170.959008 278.862902 
L 171.60796 277.487296 
L 171.756516 277.591439 
L 171.959802 278.093223 
L 172.522749 280.379953 
L 173.085695 282.029365 
L 173.586093 282.972684 
L 173.914478 283.162342 
L 174.289776 283.123708 
L 174.500881 282.873889 
L 174.719805 282.17944 
L 175.032553 280.258672 
L 175.572044 277.088295 
L 175.814424 276.744874 
L 176.072441 276.470069 
L 176.252271 275.789047 
L 176.50247 273.767551 
L 177.58927 263.457418 
L 177.784737 263.316125 
L 177.964568 263.494239 
L 178.277316 264.191037 
L 178.722982 265.779087 
L 179.395391 268.131614 
L 179.645589 268.336391 
L 179.895788 268.230428 
L 180.208536 268.155277 
L 180.411822 268.378871 
L 180.771483 269.222025 
L 181.146781 269.866788 
L 181.373523 269.883317 
L 181.811371 269.563434 
L 182.327405 269.368612 
L 182.647972 269.115378 
L 183.007632 268.504518 
L 183.422024 267.347747 
L 183.852053 265.391913 
L 184.688654 261.522595 
L 185.079589 260.655275 
L 185.267238 260.629948 
L 185.447069 260.906274 
L 186.056928 262.178088 
L 186.10384 262.141598 
L 186.260214 261.798113 
L 186.580781 260.38199 
L 186.893529 259.43244 
L 187.002991 259.507602 
L 187.151546 260.032896 
L 187.425201 262.033251 
L 187.995966 266.095138 
L 188.222709 266.466983 
L 188.363446 266.369973 
L 188.574551 265.875509 
L 188.863843 264.55725 
L 189.223503 261.725887 
L 189.880274 256.56204 
L 190.083561 256.267604 
L 190.216479 256.427615 
L 190.490133 257.232307 
L 191.099992 258.9263 
L 191.631664 259.730431 
L 191.920957 259.858643 
L 192.116424 259.707071 
L 192.38226 259.152269 
L 192.898295 258.074619 
L 193.04685 258.143082 
L 193.257955 258.574301 
L 193.750534 259.594074 
L 193.89127 259.518878 
L 194.086738 259.080915 
L 194.540223 257.311197 
L 194.993708 255.97195 
L 195.243906 255.767905 
L 195.423736 255.897798 
L 195.697391 256.454686 
L 196.111783 257.188308 
L 196.244701 257.101263 
L 196.424531 256.62089 
L 196.784191 254.812984 
L 197.136033 253.551352 
L 197.292407 253.526491 
L 197.495693 253.8471 
L 197.777167 254.163849 
L 197.910085 254.003825 
L 198.129009 253.271085 
L 198.684137 251.349655 
L 198.949973 251.201106 
L 199.137622 250.999332 
L 199.317452 250.379489 
L 199.56765 248.565541 
L 200.560626 240.298966 
L 200.89683 239.502888 
L 201.100117 239.426407 
L 201.256491 239.631096 
L 201.491052 240.391156 
L 202.554396 244.477656 
L 202.765501 244.548144 
L 202.921875 244.340497 
L 203.125161 243.621719 
L 203.453547 241.442691 
L 204.110318 237.186474 
L 204.790545 233.452654 
L 205.251849 231.249544 
L 205.408223 231.113842 
L 205.423861 231.124532 
L 205.54896 231.382411 
L 205.744427 232.411282 
L 206.088451 235.689589 
L 206.604485 240.145704 
L 206.745222 240.390833 
L 206.776497 240.366524 
L 206.885958 240.052491 
L 207.081426 238.672936 
L 207.918028 231.544314 
L 207.941484 231.553493 
L 208.043127 231.766055 
L 208.246413 232.871774 
L 208.887547 236.635338 
L 208.98919 236.641152 
L 209.012646 236.612933 
L 209.161202 236.202149 
L 209.450494 234.586449 
L 210.193271 228.868546 
L 211.303527 219.58387 
L 211.585 219.037885 
L 211.764831 219.039478 
L 211.936842 219.31291 
L 212.187041 220.222553 
L 212.882905 222.990698 
L 213.047098 222.986553 
L 213.281659 222.65992 
L 213.782057 222.002254 
L 214.141717 221.928563 
L 214.415372 221.796366 
L 214.634295 221.386928 
L 214.939225 220.246001 
L 216.0573 214.641436 
L 216.463872 210.424567 
L 217.042457 204.780869 
L 217.245743 204.307554 
L 217.253562 204.309758 
L 217.355205 204.470359 
L 217.535035 205.299681 
L 217.855602 208.049975 
L 218.817303 216.91376 
L 218.973677 217.070973 
L 218.989314 217.061784 
L 219.130051 216.821381 
L 219.880647 215.193963 
L 220.068296 214.755179 
L 220.271582 213.576916 
L 220.607786 209.955662 
L 221.022178 206.274198 
L 221.147277 206.080158 
L 221.178552 206.103428 
L 221.303651 206.432466 
L 222.108978 209.189844 
L 222.437363 209.514847 
L 222.773568 210.334276 
L 223.281783 211.397286 
L 223.84473 212.065109 
L 223.96983 211.901317 
L 224.14966 211.187694 
L 224.454589 208.825454 
L 224.884618 205.948062 
L 225.064448 205.744022 
L 225.072267 205.747495 
L 225.23646 205.957359 
L 225.510114 206.21803 
L 225.635214 206.000925 
L 225.830681 205.08878 
L 226.542184 201.054029 
L 226.573458 201.069592 
L 226.68292 201.313533 
L 226.886207 202.456735 
L 227.800995 208.50994 
L 227.918276 208.436083 
L 228.098106 207.930113 
L 228.926889 205.136822 
L 229.075444 205.29082 
L 229.552385 206.137957 
L 229.622753 206.053564 
L 229.771309 205.508274 
L 230.013689 203.542869 
L 230.686097 197.693564 
L 230.787741 197.615379 
L 230.826834 197.654716 
L 230.967571 198.065764 
L 231.467968 200.083418 
L 231.530518 199.991818 
L 231.655617 199.334714 
L 231.858903 196.782116 
L 232.288932 187.558449 
L 232.625136 182.709054 
L 232.742417 182.372391 
L 232.78151 182.419045 
L 232.890972 182.922762 
L 233.125533 185.3121 
L 233.844854 192.901606 
L 234.345251 195.646335 
L 234.454713 195.781964 
L 234.493807 195.735682 
L 234.59545 195.292206 
L 234.744005 193.467171 
L 234.939473 187.771838 
L 235.174034 173.350877 
L 235.478964 138.495302 
L 236.174829 54.452077 
L 236.213922 54.144 
L 236.260834 54.747585 
L 236.370296 60.196914 
L 236.581401 84.247065 
L 237.457096 197.095348 
L 237.73857 206.26037 
L 237.910581 207.445421 
L 237.926218 207.4393 
L 238.004406 207.185177 
L 238.176417 205.611105 
L 238.559534 199.519915 
L 239.161574 186.428081 
L 239.646334 177.098591 
L 239.747977 176.720683 
L 239.794889 176.823653 
L 239.904351 177.766588 
L 240.107637 181.905435 
L 241.053701 204.493618 
L 241.280443 205.263738 
L 241.389905 205.189815 
L 241.561916 204.661074 
L 241.913758 202.655577 
L 242.304693 200.902045 
L 242.461068 200.813567 
L 242.476705 200.824059 
L 242.656535 201.108832 
L 242.953646 201.492539 
L 242.961465 201.488756 
L 243.078745 201.300606 
L 243.274213 200.43231 
L 243.790247 197.804862 
L 243.813704 197.819039 
L 243.907528 198.084162 
L 244.071721 199.386734 
L 244.368832 203.980263 
L 245.009965 213.84818 
L 245.275801 215.112376 
L 245.400901 215.161284 
L 245.424357 215.140305 
L 245.58855 214.792564 
L 245.979485 213.26688 
L 246.604981 210.061558 
L 247.230478 206.862113 
L 247.45722 206.605698 
L 247.613594 206.737959 
L 247.848156 207.310168 
L 248.160904 208.739704 
L 248.520564 211.563954 
L 249.474446 219.713628 
L 249.583908 219.791508 
L 249.615183 219.76193 
L 249.748101 219.389708 
L 250.006118 217.795911 
L 250.451784 215.283546 
L 250.545609 215.225545 
L 250.584702 215.264525 
L 250.71762 215.664969 
L 250.96 217.289163 
L 251.890426 224.701196 
L 251.92952 224.676069 
L 252.0468 224.331873 
L 252.273543 222.768945 
L 252.77394 219.448981 
L 252.899039 219.351339 
L 252.930314 219.3771 
L 253.078869 219.718186 
L 253.837284 221.913648 
L 253.852921 221.907621 
L 254.009295 221.703333 
L 254.259494 220.906314 
L 254.64261 218.829058 
L 255.111733 214.908451 
L 255.619949 211.088785 
L 255.768504 210.867019 
L 255.79196 210.882341 
L 255.909241 211.160306 
L 256.120346 212.404151 
L 256.526918 216.450126 
L 257.84828 230.323144 
L 258.755249 235.933426 
L 259.146185 237.316596 
L 259.326015 237.413145 
L 259.333834 237.408177 
L 259.490208 237.156139 
L 259.787319 236.111149 
L 260.178254 234.98578 
L 260.31899 235.011787 
L 260.475365 235.391949 
L 260.741201 236.772279 
L 261.562165 241.378177 
L 261.781088 241.59972 
L 261.937462 241.474428 
L 262.164205 240.937332 
L 262.469134 239.563202 
L 262.875707 236.513202 
L 263.391742 233.023596 
L 263.540297 232.836459 
L 263.563753 232.849826 
L 263.688852 233.103204 
L 263.931232 234.245766 
L 264.564547 237.290771 
L 264.822565 237.622307 
L 265.088401 237.59283 
L 265.291687 237.672632 
L 265.463699 238.068023 
L 265.69826 239.283578 
L 266.831972 246.267045 
L 267.269819 247.292155 
L 267.44965 247.322799 
L 267.621661 247.069209 
L 268.348801 245.552908 
L 268.403532 245.594117 
L 268.575543 245.950274 
L 268.833561 247.10812 
L 269.263589 250.275356 
L 269.818717 253.942921 
L 270.053279 254.369773 
L 270.22529 254.306685 
L 270.592769 254.132264 
L 270.772599 254.393551 
L 271.116622 255.423731 
L 272.234697 259.471893 
L 273.079118 263.566442 
L 273.235492 263.673935 
L 273.251129 263.66329 
L 273.376228 263.419723 
L 273.571696 262.428199 
L 273.876625 259.48621 
L 274.470847 253.820963 
L 274.57249 253.682124 
L 274.611584 253.722821 
L 274.728864 254.152649 
L 274.947788 256.012049 
L 275.886033 265.13102 
L 276.253512 266.295264 
L 276.488073 266.50651 
L 276.644447 266.368942 
L 276.902464 265.752135 
L 277.340312 264.820428 
L 277.574873 264.773643 
L 277.989264 264.756549 
L 278.309831 264.406741 
L 278.771135 263.983371 
L 279.029152 264.029148 
L 279.349719 264.350061 
L 279.811023 265.154773 
L 280.702355 266.853091 
L 280.882185 266.709585 
L 281.664056 265.811062 
L 281.922073 266.065153 
L 282.328646 266.811368 
L 283.204341 268.627279 
L 283.407627 268.457042 
L 284.619527 266.702037 
L 285.205929 265.616483 
L 285.370122 265.656079 
L 285.542134 266.000592 
L 285.792332 267.113111 
L 286.261455 270.507875 
L 287.027688 275.629334 
L 287.402986 276.977144 
L 287.590635 277.089676 
L 287.754827 276.879737 
L 288.489786 275.655483 
L 288.724347 275.85155 
L 289.18565 276.575374 
L 289.49058 277.512564 
L 289.959702 279.877522 
L 290.561743 282.527608 
L 290.866672 283.099004 
L 291.030865 283.065835 
L 291.210695 282.717443 
L 291.523443 281.496329 
L 293.423389 273.185163 
L 293.7205 272.877524 
L 293.931605 272.927897 
L 294.166166 273.259016 
L 294.736931 274.139961 
L 294.885487 273.953056 
L 295.135685 273.157427 
L 295.534439 272.050143 
L 295.643901 272.128035 
L 295.800275 272.638701 
L 296.081749 274.506316 
L 296.683789 278.432311 
L 296.910531 278.785113 
L 297.035631 278.665809 
L 297.238917 278.058575 
L 298.091156 274.990809 
L 298.098974 274.992846 
L 298.24753 275.159657 
L 298.505547 275.886933 
L 298.982488 278.00055 
L 299.75654 281.51423 
L 299.873821 281.450639 
L 300.030195 280.975308 
L 300.335124 279.144072 
L 300.765153 276.936802 
L 300.929346 276.795099 
L 300.944983 276.803369 
L 301.093539 277.032274 
L 301.765947 278.322669 
L 301.969234 278.137244 
L 302.453993 277.662071 
L 302.649461 277.79596 
L 302.946572 278.345617 
L 303.876998 280.198272 
L 304.221021 280.423968 
L 304.955979 280.659925 
L 305.440739 281.072233 
L 305.620569 280.911176 
L 305.972411 280.178434 
L 306.27734 279.793148 
L 306.441533 279.886188 
L 306.668275 280.350837 
L 307.098304 281.850381 
L 307.528333 284.108888 
L 308.33366 288.627652 
L 308.552583 288.825239 
L 309.131168 288.937695 
L 309.725389 289.663245 
L 309.741027 289.651223 
L 309.913038 289.354487 
L 310.241424 288.197671 
L 310.694909 286.846827 
L 310.921651 286.709564 
L 311.132756 286.865707 
L 311.601879 287.604466 
L 312.008451 288.546742 
L 312.37593 290.103748 
L 312.993608 292.684172 
L 313.204713 292.8392 
L 313.376725 292.671413 
L 314.072589 291.77579 
L 314.283694 292.012962 
L 314.744998 292.545834 
L 314.901372 292.374181 
L 315.143752 291.674366 
L 315.675424 290.134992 
L 315.847436 290.129046 
L 316.058541 290.427856 
L 317.082791 292.166063 
L 317.645738 292.828878 
L 317.833387 292.757459 
L 318.060129 292.375394 
L 318.544889 290.95366 
L 318.928005 290.181598 
L 319.154748 290.122167 
L 319.404946 290.337834 
L 320.069536 290.970424 
L 320.851407 291.374657 
L 321.117243 291.968015 
L 321.476903 293.442294 
L 322.086762 295.847845 
L 322.313505 296.041165 
L 322.485516 295.900183 
L 322.743534 295.32784 
L 323.165744 293.765056 
L 324.103988 290.091632 
L 324.260362 290.102135 
L 324.448011 290.429258 
L 325.175151 291.93341 
L 325.354981 291.774268 
L 325.917928 291.102971 
L 325.933565 291.114731 
L 326.097758 291.400746 
L 326.38705 292.474574 
L 326.793623 293.755966 
L 326.926541 293.744221 
L 326.93436 293.734928 
L 327.090734 293.354253 
L 327.380026 291.897121 
L 327.919516 289.311818 
L 328.083709 289.196252 
L 328.099347 289.206982 
L 328.240083 289.467944 
L 328.482463 290.498861 
L 329.248696 294.042661 
L 329.475439 294.19332 
L 329.936742 294.269002 
L 330.140029 294.772612 
L 330.460596 296.313723 
L 331.15646 299.682918 
L 331.477027 300.246051 
L 331.688132 300.270556 
L 331.867963 300.037916 
L 332.102524 299.301281 
L 332.446547 297.336311 
L 333.165868 293.169342 
L 333.384791 292.915895 
L 333.533347 293.048198 
L 333.838276 293.729502 
L 334.182299 294.291368 
L 334.330855 294.233875 
L 334.510685 293.847049 
L 334.799977 292.579192 
L 335.370743 290.120697 
L 335.488023 290.097821 
L 335.511479 290.122868 
L 335.652216 290.483964 
L 335.886777 291.824118 
L 336.441905 296.773919 
L 336.864115 299.444899 
L 337.106495 299.917086 
L 337.255051 299.85808 
L 337.481793 299.42961 
L 338.060377 298.305236 
L 338.240207 298.353084 
L 338.46695 298.709776 
L 339.272277 300.156792 
L 339.545931 300.159348 
L 340.648369 299.871841 
L 341.039304 299.775981 
L 341.625707 299.596532 
L 342.001005 299.779179 
L 342.407577 300.224274 
L 342.892337 301.160519 
L 343.267635 301.670175 
L 343.463103 301.62574 
L 343.705482 301.275755 
L 345.175399 298.658846 
L 345.347411 298.878098 
L 345.621065 299.693649 
L 346.215287 301.470172 
L 346.426392 301.554847 
L 346.629678 301.357826 
L 346.997157 300.600461 
L 347.536648 299.614667 
L 347.763391 299.5744 
L 348.00577 299.803782 
L 348.529624 300.323814 
L 348.709454 300.194917 
L 348.959652 299.672269 
L 350.12464 296.748549 
L 350.695405 296.326363 
L 350.890873 296.420464 
L 351.117615 296.837453 
L 351.5711 298.307695 
L 351.985491 299.287621 
L 352.313877 299.545557 
L 353.001923 299.964699 
L 353.283396 300.005375 
L 353.510139 299.778325 
L 354.119998 299.031139 
L 354.127817 299.036304 
L 354.292009 299.291508 
L 354.557845 300.223414 
L 355.269348 302.84186 
L 355.550821 303.127455 
L 355.785382 303.077115 
L 356.082493 302.738852 
L 356.747083 301.933019 
L 356.997281 301.985253 
L 358.060625 302.501677 
L 358.310824 302.245459 
L 358.615753 301.553103 
L 359.335074 299.809811 
L 359.507086 299.842631 
L 359.710372 300.174461 
L 360.617342 302.01964 
L 360.625161 302.015891 
L 360.844084 301.780337 
L 361.250657 301.373944 
L 361.407031 301.513014 
L 361.633774 302.09329 
L 362.314001 304.024355 
L 362.454738 303.952512 
L 362.658024 303.512411 
L 363.557175 301.200311 
L 363.76828 301.241031 
L 364.057572 301.584954 
L 364.683069 302.344008 
L 364.941086 302.324183 
L 365.261653 302.031505 
L 365.777688 301.585352 
L 366.00443 301.675409 
L 366.786301 302.219179 
L 367.02868 301.859557 
L 367.880919 300.406238 
L 368.154574 300.41016 
L 368.608059 300.712723 
L 369.233555 301.038911 
L 369.585397 300.989814 
L 370.124888 300.613476 
L 370.461092 300.535007 
L 370.695653 300.718172 
L 370.984945 301.280025 
L 372.259394 304.230941 
L 372.470499 304.176239 
L 372.728517 303.831858 
L 373.041265 303.253419 
L 373.041265 303.253419 
" style="fill:none;stroke:#ff7f0e;stroke-linecap:square;stroke-width:1.5;"/>
   </g>
   <g id="patch_103">
    <path d="M 57.6 307.584 
L 57.6 41.472 
" style="fill:none;stroke:#000000;stroke-linecap:square;stroke-linejoin:miter;stroke-width:0.8;"/>
   </g>
   <g id="patch_104">
    <path d="M 414.72 307.584 
L 414.72 41.472 
" style="fill:none;stroke:#000000;stroke-linecap:square;stroke-linejoin:miter;stroke-width:0.8;"/>
   </g>
   <g id="patch_105">
    <path d="M 57.6 307.584 
L 414.72 307.584 
" style="fill:none;stroke:#000000;stroke-linecap:square;stroke-linejoin:miter;stroke-width:0.8;"/>
   </g>
   <g id="patch_106">
    <path d="M 57.6 41.472 
L 414.72 41.472 
" style="fill:none;stroke:#000000;stroke-linecap:square;stroke-linejoin:miter;stroke-width:0.8;"/>
   </g>
  </g>
 </g>
 <defs>
  <clipPath id="p97fd943352">
   <rect height="266.112" width="357.12" x="57.6" y="41.472"/>
  </clipPath>
 </defs>
</svg>
