<?xml version="1.0" encoding="utf-8" standalone="no"?>
<!DOCTYPE svg PUBLIC "-//W3C//DTD SVG 1.1//EN"
  "http://www.w3.org/Graphics/SVG/1.1/DTD/svg11.dtd">
<!-- Created with matplotlib (https://matplotlib.org/) -->
<svg height="345.6pt" version="1.1" viewBox="0 0 460.8 345.6" width="460.8pt" xmlns="http://www.w3.org/2000/svg" xmlns:xlink="http://www.w3.org/1999/xlink">
 <defs>
  <style type="text/css">
*{stroke-linecap:butt;stroke-linejoin:round;}
  </style>
 </defs>
 <g id="figure_1">
  <g id="patch_1">
   <path d="M 0 345.6 
L 460.8 345.6 
L 460.8 0 
L 0 0 
z
" style="fill:#ffffff;"/>
  </g>
  <g id="axes_1">
   <g id="patch_2">
    <path d="M 57.6 307.584 
L 414.72 307.584 
L 414.72 41.472 
L 57.6 41.472 
z
" style="fill:#ffffff;"/>
   </g>
   <g id="patch_3">
    <path clip-path="url(#pc767a6e4c9)" d="M 73.832727 307.584 
L 77.079274 307.584 
L 77.079274 307.096042 
L 73.832727 307.096042 
z
" style="fill:#1f77b4;"/>
   </g>
   <g id="patch_4">
    <path clip-path="url(#pc767a6e4c9)" d="M 77.079287 307.584 
L 80.325833 307.584 
L 80.325833 307.584 
L 77.079287 307.584 
z
" style="fill:#1f77b4;"/>
   </g>
   <g id="patch_5">
    <path clip-path="url(#pc767a6e4c9)" d="M 80.32582 307.584 
L 83.572366 307.584 
L 83.572366 306.93339 
L 80.32582 306.93339 
z
" style="fill:#1f77b4;"/>
   </g>
   <g id="patch_6">
    <path clip-path="url(#pc767a6e4c9)" d="M 83.572379 307.584 
L 86.818926 307.584 
L 86.818926 306.93339 
L 83.572379 306.93339 
z
" style="fill:#1f77b4;"/>
   </g>
   <g id="patch_7">
    <path clip-path="url(#pc767a6e4c9)" d="M 86.818913 307.584 
L 90.065459 307.584 
L 90.065459 305.306864 
L 86.818913 305.306864 
z
" style="fill:#1f77b4;"/>
   </g>
   <g id="patch_8">
    <path clip-path="url(#pc767a6e4c9)" d="M 90.065472 307.584 
L 93.312019 307.584 
L 93.312019 305.632169 
L 90.065472 305.632169 
z
" style="fill:#1f77b4;"/>
   </g>
   <g id="patch_9">
    <path clip-path="url(#pc767a6e4c9)" d="M 93.312019 307.584 
L 96.558552 307.584 
L 96.558552 306.120121 
L 93.312019 306.120121 
z
" style="fill:#1f77b4;"/>
   </g>
   <g id="patch_10">
    <path clip-path="url(#pc767a6e4c9)" d="M 96.558539 307.584 
L 99.805085 307.584 
L 99.805085 306.445432 
L 96.558539 306.445432 
z
" style="fill:#1f77b4;"/>
   </g>
   <g id="patch_11">
    <path clip-path="url(#pc767a6e4c9)" d="M 99.805098 307.584 
L 103.051645 307.584 
L 103.051645 306.770737 
L 99.805098 306.770737 
z
" style="fill:#1f77b4;"/>
   </g>
   <g id="patch_12">
    <path clip-path="url(#pc767a6e4c9)" d="M 103.051632 307.584 
L 106.298178 307.584 
L 106.298178 306.770737 
L 103.051632 306.770737 
z
" style="fill:#1f77b4;"/>
   </g>
   <g id="patch_13">
    <path clip-path="url(#pc767a6e4c9)" d="M 106.298191 307.584 
L 109.544737 307.584 
L 109.544737 306.608084 
L 106.298191 306.608084 
z
" style="fill:#1f77b4;"/>
   </g>
   <g id="patch_14">
    <path clip-path="url(#pc767a6e4c9)" d="M 109.544724 307.584 
L 112.791271 307.584 
L 112.791271 306.445432 
L 109.544724 306.445432 
z
" style="fill:#1f77b4;"/>
   </g>
   <g id="patch_15">
    <path clip-path="url(#pc767a6e4c9)" d="M 112.791284 307.584 
L 116.03783 307.584 
L 116.03783 305.469516 
L 112.791284 305.469516 
z
" style="fill:#1f77b4;"/>
   </g>
   <g id="patch_16">
    <path clip-path="url(#pc767a6e4c9)" d="M 116.037817 307.584 
L 119.284363 307.584 
L 119.284363 304.981558 
L 116.037817 304.981558 
z
" style="fill:#1f77b4;"/>
   </g>
   <g id="patch_17">
    <path clip-path="url(#pc767a6e4c9)" d="M 119.284376 307.584 
L 122.530923 307.584 
L 122.530923 304.330948 
L 119.284376 304.330948 
z
" style="fill:#1f77b4;"/>
   </g>
   <g id="patch_18">
    <path clip-path="url(#pc767a6e4c9)" d="M 122.53091 307.584 
L 125.777456 307.584 
L 125.777456 301.565854 
L 122.53091 301.565854 
z
" style="fill:#1f77b4;"/>
   </g>
   <g id="patch_19">
    <path clip-path="url(#pc767a6e4c9)" d="M 125.777469 307.584 
L 129.024009 307.584 
L 129.024009 299.288701 
L 125.777469 299.288701 
z
" style="fill:#1f77b4;"/>
   </g>
   <g id="patch_20">
    <path clip-path="url(#pc767a6e4c9)" d="M 129.024009 307.584 
L 132.270555 307.584 
L 132.270555 300.264633 
L 129.024009 300.264633 
z
" style="fill:#1f77b4;"/>
   </g>
   <g id="patch_21">
    <path clip-path="url(#pc767a6e4c9)" d="M 132.270555 307.584 
L 135.517102 307.584 
L 135.517102 299.288717 
L 132.270555 299.288717 
z
" style="fill:#1f77b4;"/>
   </g>
   <g id="patch_22">
    <path clip-path="url(#pc767a6e4c9)" d="M 135.517102 307.584 
L 138.763648 307.584 
L 138.763648 300.915243 
L 135.517102 300.915243 
z
" style="fill:#1f77b4;"/>
   </g>
   <g id="patch_23">
    <path clip-path="url(#pc767a6e4c9)" d="M 138.763648 307.584 
L 142.010194 307.584 
L 142.010194 296.36097 
L 138.763648 296.36097 
z
" style="fill:#1f77b4;"/>
   </g>
   <g id="patch_24">
    <path clip-path="url(#pc767a6e4c9)" d="M 142.010201 307.584 
L 145.256741 307.584 
L 145.256741 296.360948 
L 142.010201 296.360948 
z
" style="fill:#1f77b4;"/>
   </g>
   <g id="patch_25">
    <path clip-path="url(#pc767a6e4c9)" d="M 145.256734 307.584 
L 148.503281 307.584 
L 148.503281 290.668129 
L 145.256734 290.668129 
z
" style="fill:#1f77b4;"/>
   </g>
   <g id="patch_26">
    <path clip-path="url(#pc767a6e4c9)" d="M 148.503281 307.584 
L 151.749827 307.584 
L 151.749827 286.276509 
L 148.503281 286.276509 
z
" style="fill:#1f77b4;"/>
   </g>
   <g id="patch_27">
    <path clip-path="url(#pc767a6e4c9)" d="M 151.749827 307.584 
L 154.996373 307.584 
L 154.996373 287.252425 
L 151.749827 287.252425 
z
" style="fill:#1f77b4;"/>
   </g>
   <g id="patch_28">
    <path clip-path="url(#pc767a6e4c9)" d="M 154.996373 307.584 
L 158.24292 307.584 
L 158.24292 280.746321 
L 154.996373 280.746321 
z
" style="fill:#1f77b4;"/>
   </g>
   <g id="patch_29">
    <path clip-path="url(#pc767a6e4c9)" d="M 158.24292 307.584 
L 161.489466 307.584 
L 161.489466 278.631837 
L 158.24292 278.631837 
z
" style="fill:#1f77b4;"/>
   </g>
   <g id="patch_30">
    <path clip-path="url(#pc767a6e4c9)" d="M 161.489466 307.584 
L 164.736013 307.584 
L 164.736013 276.680006 
L 161.489466 276.680006 
z
" style="fill:#1f77b4;"/>
   </g>
   <g id="patch_31">
    <path clip-path="url(#pc767a6e4c9)" d="M 164.736013 307.584 
L 167.982552 307.584 
L 167.982552 275.866679 
L 164.736013 275.866679 
z
" style="fill:#1f77b4;"/>
   </g>
   <g id="patch_32">
    <path clip-path="url(#pc767a6e4c9)" d="M 167.982552 307.584 
L 171.229099 307.584 
L 171.229099 277.981226 
L 167.982552 277.981226 
z
" style="fill:#1f77b4;"/>
   </g>
   <g id="patch_33">
    <path clip-path="url(#pc767a6e4c9)" d="M 171.229099 307.584 
L 174.475645 307.584 
L 174.475645 280.746321 
L 171.229099 280.746321 
z
" style="fill:#1f77b4;"/>
   </g>
   <g id="patch_34">
    <path clip-path="url(#pc767a6e4c9)" d="M 174.475645 307.584 
L 177.722191 307.584 
L 177.722191 275.05348 
L 174.475645 275.05348 
z
" style="fill:#1f77b4;"/>
   </g>
   <g id="patch_35">
    <path clip-path="url(#pc767a6e4c9)" d="M 177.722191 307.584 
L 180.968738 307.584 
L 180.968738 268.710028 
L 177.722191 268.710028 
z
" style="fill:#1f77b4;"/>
   </g>
   <g id="patch_36">
    <path clip-path="url(#pc767a6e4c9)" d="M 180.968738 307.584 
L 184.215281 307.584 
L 184.215281 268.872642 
L 180.968738 268.872642 
z
" style="fill:#1f77b4;"/>
   </g>
   <g id="patch_37">
    <path clip-path="url(#pc767a6e4c9)" d="M 184.215281 307.584 
L 187.461827 307.584 
L 187.461827 260.252093 
L 184.215281 260.252093 
z
" style="fill:#1f77b4;"/>
   </g>
   <g id="patch_38">
    <path clip-path="url(#pc767a6e4c9)" d="M 187.461824 307.584 
L 190.708367 307.584 
L 190.708367 264.318364 
L 187.461824 264.318364 
z
" style="fill:#1f77b4;"/>
   </g>
   <g id="patch_39">
    <path clip-path="url(#pc767a6e4c9)" d="M 190.70837 307.584 
L 193.954917 307.584 
L 193.954917 258.788219 
L 190.70837 258.788219 
z
" style="fill:#1f77b4;"/>
   </g>
   <g id="patch_40">
    <path clip-path="url(#pc767a6e4c9)" d="M 193.954917 307.584 
L 197.201463 307.584 
L 197.201463 255.860472 
L 193.954917 255.860472 
z
" style="fill:#1f77b4;"/>
   </g>
   <g id="patch_41">
    <path clip-path="url(#pc767a6e4c9)" d="M 197.201463 307.584 
L 200.44801 307.584 
L 200.44801 247.56519 
L 197.201463 247.56519 
z
" style="fill:#1f77b4;"/>
   </g>
   <g id="patch_42">
    <path clip-path="url(#pc767a6e4c9)" d="M 200.44801 307.584 
L 203.694553 307.584 
L 203.694553 243.824116 
L 200.44801 243.824116 
z
" style="fill:#1f77b4;"/>
   </g>
   <g id="patch_43">
    <path clip-path="url(#pc767a6e4c9)" d="M 203.694553 307.584 
L 206.941099 307.584 
L 206.941099 236.830118 
L 203.694553 236.830118 
z
" style="fill:#1f77b4;"/>
   </g>
   <g id="patch_44">
    <path clip-path="url(#pc767a6e4c9)" d="M 206.941099 307.584 
L 210.187644 307.584 
L 210.187644 235.040903 
L 206.941099 235.040903 
z
" style="fill:#1f77b4;"/>
   </g>
   <g id="patch_45">
    <path clip-path="url(#pc767a6e4c9)" d="M 210.187642 307.584 
L 213.434187 307.584 
L 213.434187 219.263593 
L 210.187642 219.263593 
z
" style="fill:#1f77b4;"/>
   </g>
   <g id="patch_46">
    <path clip-path="url(#pc767a6e4c9)" d="M 213.434188 307.584 
L 216.680735 307.584 
L 216.680735 219.42629 
L 213.434188 219.42629 
z
" style="fill:#1f77b4;"/>
   </g>
   <g id="patch_47">
    <path clip-path="url(#pc767a6e4c9)" d="M 216.680735 307.584 
L 219.92728 307.584 
L 219.92728 210.480348 
L 216.680735 210.480348 
z
" style="fill:#1f77b4;"/>
   </g>
   <g id="patch_48">
    <path clip-path="url(#pc767a6e4c9)" d="M 219.92728 307.584 
L 223.173825 307.584 
L 223.173825 212.106899 
L 219.92728 212.106899 
z
" style="fill:#1f77b4;"/>
   </g>
   <g id="patch_49">
    <path clip-path="url(#pc767a6e4c9)" d="M 223.173824 307.584 
L 226.42037 307.584 
L 226.42037 208.040582 
L 223.173824 208.040582 
z
" style="fill:#1f77b4;"/>
   </g>
   <g id="patch_50">
    <path clip-path="url(#pc767a6e4c9)" d="M 226.420371 307.584 
L 229.666916 307.584 
L 229.666916 208.528528 
L 226.420371 208.528528 
z
" style="fill:#1f77b4;"/>
   </g>
   <g id="patch_51">
    <path clip-path="url(#pc767a6e4c9)" d="M 229.666916 307.584 
L 232.913461 307.584 
L 232.913461 199.582638 
L 229.666916 199.582638 
z
" style="fill:#1f77b4;"/>
   </g>
   <g id="patch_52">
    <path clip-path="url(#pc767a6e4c9)" d="M 232.913461 307.584 
L 236.160007 307.584 
L 236.160007 199.582638 
L 232.913461 199.582638 
z
" style="fill:#1f77b4;"/>
   </g>
   <g id="patch_53">
    <path clip-path="url(#pc767a6e4c9)" d="M 236.160007 307.584 
L 239.406552 307.584 
L 239.406552 141.515641 
L 236.160007 141.515641 
z
" style="fill:#1f77b4;"/>
   </g>
   <g id="patch_54">
    <path clip-path="url(#pc767a6e4c9)" d="M 239.406552 307.584 
L 242.653097 307.584 
L 242.653097 196.166932 
L 239.406552 196.166932 
z
" style="fill:#1f77b4;"/>
   </g>
   <g id="patch_55">
    <path clip-path="url(#pc767a6e4c9)" d="M 242.653098 307.584 
L 245.899642 307.584 
L 245.899642 207.715265 
L 242.653098 207.715265 
z
" style="fill:#1f77b4;"/>
   </g>
   <g id="patch_56">
    <path clip-path="url(#pc767a6e4c9)" d="M 245.899642 307.584 
L 249.146188 307.584 
L 249.146188 214.221383 
L 245.899642 214.221383 
z
" style="fill:#1f77b4;"/>
   </g>
   <g id="patch_57">
    <path clip-path="url(#pc767a6e4c9)" d="M 249.146187 307.584 
L 252.392732 307.584 
L 252.392732 223.655236 
L 249.146187 223.655236 
z
" style="fill:#1f77b4;"/>
   </g>
   <g id="patch_58">
    <path clip-path="url(#pc767a6e4c9)" d="M 252.392732 307.584 
L 255.639277 307.584 
L 255.639277 220.239509 
L 252.392732 220.239509 
z
" style="fill:#1f77b4;"/>
   </g>
   <g id="patch_59">
    <path clip-path="url(#pc767a6e4c9)" d="M 255.639278 307.584 
L 258.885825 307.584 
L 258.885825 225.444436 
L 255.639278 225.444436 
z
" style="fill:#1f77b4;"/>
   </g>
   <g id="patch_60">
    <path clip-path="url(#pc767a6e4c9)" d="M 258.885825 307.584 
L 262.132369 307.584 
L 262.132369 240.408442 
L 258.885825 240.408442 
z
" style="fill:#1f77b4;"/>
   </g>
   <g id="patch_61">
    <path clip-path="url(#pc767a6e4c9)" d="M 262.132368 307.584 
L 265.378911 307.584 
L 265.378911 240.571094 
L 262.132368 240.571094 
z
" style="fill:#1f77b4;"/>
   </g>
   <g id="patch_62">
    <path clip-path="url(#pc767a6e4c9)" d="M 265.378914 307.584 
L 268.62546 307.584 
L 268.62546 242.360307 
L 265.378914 242.360307 
z
" style="fill:#1f77b4;"/>
   </g>
   <g id="patch_63">
    <path clip-path="url(#pc767a6e4c9)" d="M 268.625457 307.584 
L 271.872 307.584 
L 271.872 254.07124 
L 268.625457 254.07124 
z
" style="fill:#1f77b4;"/>
   </g>
   <g id="patch_64">
    <path clip-path="url(#pc767a6e4c9)" d="M 271.872004 307.584 
L 275.11855 307.584 
L 275.11855 257.649651 
L 271.872004 257.649651 
z
" style="fill:#1f77b4;"/>
   </g>
   <g id="patch_65">
    <path clip-path="url(#pc767a6e4c9)" d="M 275.11855 307.584 
L 278.365096 307.584 
L 278.365096 265.782281 
L 275.11855 265.782281 
z
" style="fill:#1f77b4;"/>
   </g>
   <g id="patch_66">
    <path clip-path="url(#pc767a6e4c9)" d="M 278.365096 307.584 
L 281.611643 307.584 
L 281.611643 265.294323 
L 278.365096 265.294323 
z
" style="fill:#1f77b4;"/>
   </g>
   <g id="patch_67">
    <path clip-path="url(#pc767a6e4c9)" d="M 281.611643 307.584 
L 284.858186 307.584 
L 284.858186 268.222031 
L 281.611643 268.222031 
z
" style="fill:#1f77b4;"/>
   </g>
   <g id="patch_68">
    <path clip-path="url(#pc767a6e4c9)" d="M 284.858186 307.584 
L 288.104732 307.584 
L 288.104732 272.451038 
L 284.858186 272.451038 
z
" style="fill:#1f77b4;"/>
   </g>
   <g id="patch_69">
    <path clip-path="url(#pc767a6e4c9)" d="M 288.104729 307.584 
L 291.351269 307.584 
L 291.351269 280.258335 
L 288.104729 280.258335 
z
" style="fill:#1f77b4;"/>
   </g>
   <g id="patch_70">
    <path clip-path="url(#pc767a6e4c9)" d="M 291.351275 307.584 
L 294.597822 307.584 
L 294.597822 273.101648 
L 291.351275 273.101648 
z
" style="fill:#1f77b4;"/>
   </g>
   <g id="patch_71">
    <path clip-path="url(#pc767a6e4c9)" d="M 294.597822 307.584 
L 297.844368 307.584 
L 297.844368 272.288385 
L 294.597822 272.288385 
z
" style="fill:#1f77b4;"/>
   </g>
   <g id="patch_72">
    <path clip-path="url(#pc767a6e4c9)" d="M 297.844368 307.584 
L 301.090914 307.584 
L 301.090914 275.216132 
L 297.844368 275.216132 
z
" style="fill:#1f77b4;"/>
   </g>
   <g id="patch_73">
    <path clip-path="url(#pc767a6e4c9)" d="M 301.090914 307.584 
L 304.337461 307.584 
L 304.337461 277.981226 
L 301.090914 277.981226 
z
" style="fill:#1f77b4;"/>
   </g>
   <g id="patch_74">
    <path clip-path="url(#pc767a6e4c9)" d="M 304.337467 307.584 
L 307.584007 307.584 
L 307.584007 280.583614 
L 304.337467 280.583614 
z
" style="fill:#1f77b4;"/>
   </g>
   <g id="patch_75">
    <path clip-path="url(#pc767a6e4c9)" d="M 307.584001 307.584 
L 310.830547 307.584 
L 310.830547 289.854866 
L 307.584001 289.854866 
z
" style="fill:#1f77b4;"/>
   </g>
   <g id="patch_76">
    <path clip-path="url(#pc767a6e4c9)" d="M 310.830547 307.584 
L 314.077093 307.584 
L 314.077093 290.505477 
L 310.830547 290.505477 
z
" style="fill:#1f77b4;"/>
   </g>
   <g id="patch_77">
    <path clip-path="url(#pc767a6e4c9)" d="M 314.077093 307.584 
L 317.32364 307.584 
L 317.32364 292.457308 
L 314.077093 292.457308 
z
" style="fill:#1f77b4;"/>
   </g>
   <g id="patch_78">
    <path clip-path="url(#pc767a6e4c9)" d="M 317.32364 307.584 
L 320.570186 307.584 
L 320.570186 292.294655 
L 317.32364 292.294655 
z
" style="fill:#1f77b4;"/>
   </g>
   <g id="patch_79">
    <path clip-path="url(#pc767a6e4c9)" d="M 320.570186 307.584 
L 323.816732 307.584 
L 323.816732 294.734444 
L 320.570186 294.734444 
z
" style="fill:#1f77b4;"/>
   </g>
   <g id="patch_80">
    <path clip-path="url(#pc767a6e4c9)" d="M 323.816732 307.584 
L 327.063279 307.584 
L 327.063279 292.619961 
L 323.816732 292.619961 
z
" style="fill:#1f77b4;"/>
   </g>
   <g id="patch_81">
    <path clip-path="url(#pc767a6e4c9)" d="M 327.063279 307.584 
L 330.309819 307.584 
L 330.309819 292.619931 
L 327.063279 292.619931 
z
" style="fill:#1f77b4;"/>
   </g>
   <g id="patch_82">
    <path clip-path="url(#pc767a6e4c9)" d="M 330.309819 307.584 
L 333.556365 307.584 
L 333.556365 297.824844 
L 330.309819 297.824844 
z
" style="fill:#1f77b4;"/>
   </g>
   <g id="patch_83">
    <path clip-path="url(#pc767a6e4c9)" d="M 333.556365 307.584 
L 336.802911 307.584 
L 336.802911 294.734444 
L 333.556365 294.734444 
z
" style="fill:#1f77b4;"/>
   </g>
   <g id="patch_84">
    <path clip-path="url(#pc767a6e4c9)" d="M 336.802911 307.584 
L 340.049458 307.584 
L 340.049458 299.939328 
L 336.802911 299.939328 
z
" style="fill:#1f77b4;"/>
   </g>
   <g id="patch_85">
    <path clip-path="url(#pc767a6e4c9)" d="M 340.049458 307.584 
L 343.296004 307.584 
L 343.296004 299.288717 
L 340.049458 299.288717 
z
" style="fill:#1f77b4;"/>
   </g>
   <g id="patch_86">
    <path clip-path="url(#pc767a6e4c9)" d="M 343.296011 307.584 
L 346.542544 307.584 
L 346.542544 300.589924 
L 343.296011 300.589924 
z
" style="fill:#1f77b4;"/>
   </g>
   <g id="patch_87">
    <path clip-path="url(#pc767a6e4c9)" d="M 346.542544 307.584 
L 349.78909 307.584 
L 349.78909 299.776675 
L 346.542544 299.776675 
z
" style="fill:#1f77b4;"/>
   </g>
   <g id="patch_88">
    <path clip-path="url(#pc767a6e4c9)" d="M 349.789077 307.584 
L 353.035624 307.584 
L 353.035624 298.150149 
L 349.789077 298.150149 
z
" style="fill:#1f77b4;"/>
   </g>
   <g id="patch_89">
    <path clip-path="url(#pc767a6e4c9)" d="M 353.035637 307.584 
L 356.282183 307.584 
L 356.282183 302.053812 
L 353.035637 302.053812 
z
" style="fill:#1f77b4;"/>
   </g>
   <g id="patch_90">
    <path clip-path="url(#pc767a6e4c9)" d="M 356.28217 307.584 
L 359.528716 307.584 
L 359.528716 300.915243 
L 356.28217 300.915243 
z
" style="fill:#1f77b4;"/>
   </g>
   <g id="patch_91">
    <path clip-path="url(#pc767a6e4c9)" d="M 359.528729 307.584 
L 362.775276 307.584 
L 362.775276 302.541769 
L 359.528729 302.541769 
z
" style="fill:#1f77b4;"/>
   </g>
   <g id="patch_92">
    <path clip-path="url(#pc767a6e4c9)" d="M 362.775263 307.584 
L 366.021809 307.584 
L 366.021809 301.891159 
L 362.775263 301.891159 
z
" style="fill:#1f77b4;"/>
   </g>
   <g id="patch_93">
    <path clip-path="url(#pc767a6e4c9)" d="M 366.021822 307.584 
L 369.268368 307.584 
L 369.268368 302.053812 
L 366.021822 302.053812 
z
" style="fill:#1f77b4;"/>
   </g>
   <g id="patch_94">
    <path clip-path="url(#pc767a6e4c9)" d="M 369.268355 307.584 
L 372.514902 307.584 
L 372.514902 302.704422 
L 369.268355 302.704422 
z
" style="fill:#1f77b4;"/>
   </g>
   <g id="patch_95">
    <path clip-path="url(#pc767a6e4c9)" d="M 372.514915 307.584 
L 375.761461 307.584 
L 375.761461 304.330948 
L 372.514915 304.330948 
z
" style="fill:#1f77b4;"/>
   </g>
   <g id="patch_96">
    <path clip-path="url(#pc767a6e4c9)" d="M 375.761461 307.584 
L 379.007995 307.584 
L 379.007995 305.306854 
L 375.761461 305.306854 
z
" style="fill:#1f77b4;"/>
   </g>
   <g id="patch_97">
    <path clip-path="url(#pc767a6e4c9)" d="M 379.007981 307.584 
L 382.254528 307.584 
L 382.254528 305.144211 
L 379.007981 305.144211 
z
" style="fill:#1f77b4;"/>
   </g>
   <g id="patch_98">
    <path clip-path="url(#pc767a6e4c9)" d="M 382.254541 307.584 
L 385.501087 307.584 
L 385.501087 306.445432 
L 382.254541 306.445432 
z
" style="fill:#1f77b4;"/>
   </g>
   <g id="patch_99">
    <path clip-path="url(#pc767a6e4c9)" d="M 385.501074 307.584 
L 388.747621 307.584 
L 388.747621 306.608084 
L 385.501074 306.608084 
z
" style="fill:#1f77b4;"/>
   </g>
   <g id="patch_100">
    <path clip-path="url(#pc767a6e4c9)" d="M 388.747634 307.584 
L 391.99418 307.584 
L 391.99418 306.93339 
L 388.747634 306.93339 
z
" style="fill:#1f77b4;"/>
   </g>
   <g id="patch_101">
    <path clip-path="url(#pc767a6e4c9)" d="M 391.994167 307.584 
L 395.240713 307.584 
L 395.240713 307.096042 
L 391.994167 307.096042 
z
" style="fill:#1f77b4;"/>
   </g>
   <g id="patch_102">
    <path clip-path="url(#pc767a6e4c9)" d="M 395.240726 307.584 
L 398.487273 307.584 
L 398.487273 306.282779 
L 395.240726 306.282779 
z
" style="fill:#1f77b4;"/>
   </g>
   <g id="matplotlib.axis_1">
    <g id="xtick_1">
     <g id="line2d_1">
      <defs>
       <path d="M 0 0 
L 0 3.5 
" id="m80b8a7da59" style="stroke:#000000;stroke-width:0.8;"/>
      </defs>
      <g>
       <use style="stroke:#000000;stroke-width:0.8;" x="72.028929" xlink:href="#m80b8a7da59" y="307.584"/>
      </g>
     </g>
     <g id="text_1">
      <!-- −3 -->
      <defs>
       <path d="M 10.59375 35.5 
L 73.1875 35.5 
L 73.1875 27.203125 
L 10.59375 27.203125 
z
" id="DejaVuSans-8722"/>
       <path d="M 40.578125 39.3125 
Q 47.65625 37.796875 51.625 33 
Q 55.609375 28.21875 55.609375 21.1875 
Q 55.609375 10.40625 48.1875 4.484375 
Q 40.765625 -1.421875 27.09375 -1.421875 
Q 22.515625 -1.421875 17.65625 -0.515625 
Q 12.796875 0.390625 7.625 2.203125 
L 7.625 11.71875 
Q 11.71875 9.328125 16.59375 8.109375 
Q 21.484375 6.890625 26.8125 6.890625 
Q 36.078125 6.890625 40.9375 10.546875 
Q 45.796875 14.203125 45.796875 21.1875 
Q 45.796875 27.640625 41.28125 31.265625 
Q 36.765625 34.90625 28.71875 34.90625 
L 20.21875 34.90625 
L 20.21875 43.015625 
L 29.109375 43.015625 
Q 36.375 43.015625 40.234375 45.921875 
Q 44.09375 48.828125 44.09375 54.296875 
Q 44.09375 59.90625 40.109375 62.90625 
Q 36.140625 65.921875 28.71875 65.921875 
Q 24.65625 65.921875 20.015625 65.03125 
Q 15.375 64.15625 9.8125 62.3125 
L 9.8125 71.09375 
Q 15.4375 72.65625 20.34375 73.4375 
Q 25.25 74.21875 29.59375 74.21875 
Q 40.828125 74.21875 47.359375 69.109375 
Q 53.90625 64.015625 53.90625 55.328125 
Q 53.90625 49.265625 50.4375 45.09375 
Q 46.96875 40.921875 40.578125 39.3125 
z
" id="DejaVuSans-51"/>
      </defs>
      <g transform="translate(59.49807 327.501344)scale(0.17 -0.17)">
       <use xlink:href="#DejaVuSans-8722"/>
       <use x="83.789062" xlink:href="#DejaVuSans-51"/>
      </g>
     </g>
    </g>
    <g id="xtick_2">
     <g id="line2d_2">
      <g>
       <use style="stroke:#000000;stroke-width:0.8;" x="126.759867" xlink:href="#m80b8a7da59" y="307.584"/>
      </g>
     </g>
     <g id="text_2">
      <!-- −2 -->
      <defs>
       <path d="M 19.1875 8.296875 
L 53.609375 8.296875 
L 53.609375 0 
L 7.328125 0 
L 7.328125 8.296875 
Q 12.9375 14.109375 22.625 23.890625 
Q 32.328125 33.6875 34.8125 36.53125 
Q 39.546875 41.84375 41.421875 45.53125 
Q 43.3125 49.21875 43.3125 52.78125 
Q 43.3125 58.59375 39.234375 62.25 
Q 35.15625 65.921875 28.609375 65.921875 
Q 23.96875 65.921875 18.8125 64.3125 
Q 13.671875 62.703125 7.8125 59.421875 
L 7.8125 69.390625 
Q 13.765625 71.78125 18.9375 73 
Q 24.125 74.21875 28.421875 74.21875 
Q 39.75 74.21875 46.484375 68.546875 
Q 53.21875 62.890625 53.21875 53.421875 
Q 53.21875 48.921875 51.53125 44.890625 
Q 49.859375 40.875 45.40625 35.40625 
Q 44.1875 33.984375 37.640625 27.21875 
Q 31.109375 20.453125 19.1875 8.296875 
z
" id="DejaVuSans-50"/>
      </defs>
      <g transform="translate(114.229007 327.501344)scale(0.17 -0.17)">
       <use xlink:href="#DejaVuSans-8722"/>
       <use x="83.789062" xlink:href="#DejaVuSans-50"/>
      </g>
     </g>
    </g>
    <g id="xtick_3">
     <g id="line2d_3">
      <g>
       <use style="stroke:#000000;stroke-width:0.8;" x="181.490804" xlink:href="#m80b8a7da59" y="307.584"/>
      </g>
     </g>
     <g id="text_3">
      <!-- −1 -->
      <defs>
       <path d="M 12.40625 8.296875 
L 28.515625 8.296875 
L 28.515625 63.921875 
L 10.984375 60.40625 
L 10.984375 69.390625 
L 28.421875 72.90625 
L 38.28125 72.90625 
L 38.28125 8.296875 
L 54.390625 8.296875 
L 54.390625 0 
L 12.40625 0 
z
" id="DejaVuSans-49"/>
      </defs>
      <g transform="translate(168.959944 327.501344)scale(0.17 -0.17)">
       <use xlink:href="#DejaVuSans-8722"/>
       <use x="83.789062" xlink:href="#DejaVuSans-49"/>
      </g>
     </g>
    </g>
    <g id="xtick_4">
     <g id="line2d_4">
      <g>
       <use style="stroke:#000000;stroke-width:0.8;" x="236.221741" xlink:href="#m80b8a7da59" y="307.584"/>
      </g>
     </g>
     <g id="text_4">
      <!-- 0 -->
      <defs>
       <path d="M 31.78125 66.40625 
Q 24.171875 66.40625 20.328125 58.90625 
Q 16.5 51.421875 16.5 36.375 
Q 16.5 21.390625 20.328125 13.890625 
Q 24.171875 6.390625 31.78125 6.390625 
Q 39.453125 6.390625 43.28125 13.890625 
Q 47.125 21.390625 47.125 36.375 
Q 47.125 51.421875 43.28125 58.90625 
Q 39.453125 66.40625 31.78125 66.40625 
z
M 31.78125 74.21875 
Q 44.046875 74.21875 50.515625 64.515625 
Q 56.984375 54.828125 56.984375 36.375 
Q 56.984375 17.96875 50.515625 8.265625 
Q 44.046875 -1.421875 31.78125 -1.421875 
Q 19.53125 -1.421875 13.0625 8.265625 
Q 6.59375 17.96875 6.59375 36.375 
Q 6.59375 54.828125 13.0625 64.515625 
Q 19.53125 74.21875 31.78125 74.21875 
z
" id="DejaVuSans-48"/>
      </defs>
      <g transform="translate(230.813616 327.501344)scale(0.17 -0.17)">
       <use xlink:href="#DejaVuSans-48"/>
      </g>
     </g>
    </g>
    <g id="xtick_5">
     <g id="line2d_5">
      <g>
       <use style="stroke:#000000;stroke-width:0.8;" x="290.952678" xlink:href="#m80b8a7da59" y="307.584"/>
      </g>
     </g>
     <g id="text_5">
      <!-- 1 -->
      <g transform="translate(285.544553 327.501344)scale(0.17 -0.17)">
       <use xlink:href="#DejaVuSans-49"/>
      </g>
     </g>
    </g>
    <g id="xtick_6">
     <g id="line2d_6">
      <g>
       <use style="stroke:#000000;stroke-width:0.8;" x="345.683615" xlink:href="#m80b8a7da59" y="307.584"/>
      </g>
     </g>
     <g id="text_6">
      <!-- 2 -->
      <g transform="translate(340.27549 327.501344)scale(0.17 -0.17)">
       <use xlink:href="#DejaVuSans-50"/>
      </g>
     </g>
    </g>
    <g id="xtick_7">
     <g id="line2d_7">
      <g>
       <use style="stroke:#000000;stroke-width:0.8;" x="400.414552" xlink:href="#m80b8a7da59" y="307.584"/>
      </g>
     </g>
     <g id="text_7">
      <!-- 3 -->
      <g transform="translate(395.006427 327.501344)scale(0.17 -0.17)">
       <use xlink:href="#DejaVuSans-51"/>
      </g>
     </g>
    </g>
    <g id="text_8">
     <!-- Position in Radian -->
     <defs>
      <path d="M 19.671875 64.796875 
L 19.671875 37.40625 
L 32.078125 37.40625 
Q 38.96875 37.40625 42.71875 40.96875 
Q 46.484375 44.53125 46.484375 51.125 
Q 46.484375 57.671875 42.71875 61.234375 
Q 38.96875 64.796875 32.078125 64.796875 
z
M 9.8125 72.90625 
L 32.078125 72.90625 
Q 44.34375 72.90625 50.609375 67.359375 
Q 56.890625 61.8125 56.890625 51.125 
Q 56.890625 40.328125 50.609375 34.8125 
Q 44.34375 29.296875 32.078125 29.296875 
L 19.671875 29.296875 
L 19.671875 0 
L 9.8125 0 
z
" id="DejaVuSans-80"/>
      <path d="M 30.609375 48.390625 
Q 23.390625 48.390625 19.1875 42.75 
Q 14.984375 37.109375 14.984375 27.296875 
Q 14.984375 17.484375 19.15625 11.84375 
Q 23.34375 6.203125 30.609375 6.203125 
Q 37.796875 6.203125 41.984375 11.859375 
Q 46.1875 17.53125 46.1875 27.296875 
Q 46.1875 37.015625 41.984375 42.703125 
Q 37.796875 48.390625 30.609375 48.390625 
z
M 30.609375 56 
Q 42.328125 56 49.015625 48.375 
Q 55.71875 40.765625 55.71875 27.296875 
Q 55.71875 13.875 49.015625 6.21875 
Q 42.328125 -1.421875 30.609375 -1.421875 
Q 18.84375 -1.421875 12.171875 6.21875 
Q 5.515625 13.875 5.515625 27.296875 
Q 5.515625 40.765625 12.171875 48.375 
Q 18.84375 56 30.609375 56 
z
" id="DejaVuSans-111"/>
      <path d="M 44.28125 53.078125 
L 44.28125 44.578125 
Q 40.484375 46.53125 36.375 47.5 
Q 32.28125 48.484375 27.875 48.484375 
Q 21.1875 48.484375 17.84375 46.4375 
Q 14.5 44.390625 14.5 40.28125 
Q 14.5 37.15625 16.890625 35.375 
Q 19.28125 33.59375 26.515625 31.984375 
L 29.59375 31.296875 
Q 39.15625 29.25 43.1875 25.515625 
Q 47.21875 21.78125 47.21875 15.09375 
Q 47.21875 7.46875 41.1875 3.015625 
Q 35.15625 -1.421875 24.609375 -1.421875 
Q 20.21875 -1.421875 15.453125 -0.5625 
Q 10.6875 0.296875 5.421875 2 
L 5.421875 11.28125 
Q 10.40625 8.6875 15.234375 7.390625 
Q 20.0625 6.109375 24.8125 6.109375 
Q 31.15625 6.109375 34.5625 8.28125 
Q 37.984375 10.453125 37.984375 14.40625 
Q 37.984375 18.0625 35.515625 20.015625 
Q 33.0625 21.96875 24.703125 23.78125 
L 21.578125 24.515625 
Q 13.234375 26.265625 9.515625 29.90625 
Q 5.8125 33.546875 5.8125 39.890625 
Q 5.8125 47.609375 11.28125 51.796875 
Q 16.75 56 26.8125 56 
Q 31.78125 56 36.171875 55.265625 
Q 40.578125 54.546875 44.28125 53.078125 
z
" id="DejaVuSans-115"/>
      <path d="M 9.421875 54.6875 
L 18.40625 54.6875 
L 18.40625 0 
L 9.421875 0 
z
M 9.421875 75.984375 
L 18.40625 75.984375 
L 18.40625 64.59375 
L 9.421875 64.59375 
z
" id="DejaVuSans-105"/>
      <path d="M 18.3125 70.21875 
L 18.3125 54.6875 
L 36.8125 54.6875 
L 36.8125 47.703125 
L 18.3125 47.703125 
L 18.3125 18.015625 
Q 18.3125 11.328125 20.140625 9.421875 
Q 21.96875 7.515625 27.59375 7.515625 
L 36.8125 7.515625 
L 36.8125 0 
L 27.59375 0 
Q 17.1875 0 13.234375 3.875 
Q 9.28125 7.765625 9.28125 18.015625 
L 9.28125 47.703125 
L 2.6875 47.703125 
L 2.6875 54.6875 
L 9.28125 54.6875 
L 9.28125 70.21875 
z
" id="DejaVuSans-116"/>
      <path d="M 54.890625 33.015625 
L 54.890625 0 
L 45.90625 0 
L 45.90625 32.71875 
Q 45.90625 40.484375 42.875 44.328125 
Q 39.84375 48.1875 33.796875 48.1875 
Q 26.515625 48.1875 22.3125 43.546875 
Q 18.109375 38.921875 18.109375 30.90625 
L 18.109375 0 
L 9.078125 0 
L 9.078125 54.6875 
L 18.109375 54.6875 
L 18.109375 46.1875 
Q 21.34375 51.125 25.703125 53.5625 
Q 30.078125 56 35.796875 56 
Q 45.21875 56 50.046875 50.171875 
Q 54.890625 44.34375 54.890625 33.015625 
z
" id="DejaVuSans-110"/>
      <path id="DejaVuSans-32"/>
      <path d="M 44.390625 34.1875 
Q 47.5625 33.109375 50.5625 29.59375 
Q 53.5625 26.078125 56.59375 19.921875 
L 66.609375 0 
L 56 0 
L 46.6875 18.703125 
Q 43.0625 26.03125 39.671875 28.421875 
Q 36.28125 30.8125 30.421875 30.8125 
L 19.671875 30.8125 
L 19.671875 0 
L 9.8125 0 
L 9.8125 72.90625 
L 32.078125 72.90625 
Q 44.578125 72.90625 50.734375 67.671875 
Q 56.890625 62.453125 56.890625 51.90625 
Q 56.890625 45.015625 53.6875 40.46875 
Q 50.484375 35.9375 44.390625 34.1875 
z
M 19.671875 64.796875 
L 19.671875 38.921875 
L 32.078125 38.921875 
Q 39.203125 38.921875 42.84375 42.21875 
Q 46.484375 45.515625 46.484375 51.90625 
Q 46.484375 58.296875 42.84375 61.546875 
Q 39.203125 64.796875 32.078125 64.796875 
z
" id="DejaVuSans-82"/>
      <path d="M 34.28125 27.484375 
Q 23.390625 27.484375 19.1875 25 
Q 14.984375 22.515625 14.984375 16.5 
Q 14.984375 11.71875 18.140625 8.90625 
Q 21.296875 6.109375 26.703125 6.109375 
Q 34.1875 6.109375 38.703125 11.40625 
Q 43.21875 16.703125 43.21875 25.484375 
L 43.21875 27.484375 
z
M 52.203125 31.203125 
L 52.203125 0 
L 43.21875 0 
L 43.21875 8.296875 
Q 40.140625 3.328125 35.546875 0.953125 
Q 30.953125 -1.421875 24.3125 -1.421875 
Q 15.921875 -1.421875 10.953125 3.296875 
Q 6 8.015625 6 15.921875 
Q 6 25.140625 12.171875 29.828125 
Q 18.359375 34.515625 30.609375 34.515625 
L 43.21875 34.515625 
L 43.21875 35.40625 
Q 43.21875 41.609375 39.140625 45 
Q 35.0625 48.390625 27.6875 48.390625 
Q 23 48.390625 18.546875 47.265625 
Q 14.109375 46.140625 10.015625 43.890625 
L 10.015625 52.203125 
Q 14.9375 54.109375 19.578125 55.046875 
Q 24.21875 56 28.609375 56 
Q 40.484375 56 46.34375 49.84375 
Q 52.203125 43.703125 52.203125 31.203125 
z
" id="DejaVuSans-97"/>
      <path d="M 45.40625 46.390625 
L 45.40625 75.984375 
L 54.390625 75.984375 
L 54.390625 0 
L 45.40625 0 
L 45.40625 8.203125 
Q 42.578125 3.328125 38.25 0.953125 
Q 33.9375 -1.421875 27.875 -1.421875 
Q 17.96875 -1.421875 11.734375 6.484375 
Q 5.515625 14.40625 5.515625 27.296875 
Q 5.515625 40.1875 11.734375 48.09375 
Q 17.96875 56 27.875 56 
Q 33.9375 56 38.25 53.625 
Q 42.578125 51.265625 45.40625 46.390625 
z
M 14.796875 27.296875 
Q 14.796875 17.390625 18.875 11.75 
Q 22.953125 6.109375 30.078125 6.109375 
Q 37.203125 6.109375 41.296875 11.75 
Q 45.40625 17.390625 45.40625 27.296875 
Q 45.40625 37.203125 41.296875 42.84375 
Q 37.203125 48.484375 30.078125 48.484375 
Q 22.953125 48.484375 18.875 42.84375 
Q 14.796875 37.203125 14.796875 27.296875 
z
" id="DejaVuSans-100"/>
     </defs>
     <g transform="translate(102.024844 357.832125)scale(0.3 -0.3)">
      <use xlink:href="#DejaVuSans-80"/>
      <use x="60.255859" xlink:href="#DejaVuSans-111"/>
      <use x="121.4375" xlink:href="#DejaVuSans-115"/>
      <use x="173.537109" xlink:href="#DejaVuSans-105"/>
      <use x="201.320312" xlink:href="#DejaVuSans-116"/>
      <use x="240.529297" xlink:href="#DejaVuSans-105"/>
      <use x="268.3125" xlink:href="#DejaVuSans-111"/>
      <use x="329.494141" xlink:href="#DejaVuSans-110"/>
      <use x="392.873047" xlink:href="#DejaVuSans-32"/>
      <use x="424.660156" xlink:href="#DejaVuSans-105"/>
      <use x="452.443359" xlink:href="#DejaVuSans-110"/>
      <use x="515.822266" xlink:href="#DejaVuSans-32"/>
      <use x="547.609375" xlink:href="#DejaVuSans-82"/>
      <use x="617.060547" xlink:href="#DejaVuSans-97"/>
      <use x="678.339844" xlink:href="#DejaVuSans-100"/>
      <use x="741.816406" xlink:href="#DejaVuSans-105"/>
      <use x="769.599609" xlink:href="#DejaVuSans-97"/>
      <use x="830.878906" xlink:href="#DejaVuSans-110"/>
     </g>
    </g>
   </g>
   <g id="matplotlib.axis_2">
    <g id="ytick_1">
     <g id="line2d_8">
      <defs>
       <path d="M 0 0 
L -3.5 0 
" id="m96cc7de1f0" style="stroke:#000000;stroke-width:0.8;"/>
      </defs>
      <g>
       <use style="stroke:#000000;stroke-width:0.8;" x="57.6" xlink:href="#m96cc7de1f0" y="307.584"/>
      </g>
     </g>
     <g id="text_9">
      <!-- 0.0 -->
      <defs>
       <path d="M 10.6875 12.40625 
L 21 12.40625 
L 21 0 
L 10.6875 0 
z
" id="DejaVuSans-46"/>
      </defs>
      <g transform="translate(23.564687 314.042672)scale(0.17 -0.17)">
       <use xlink:href="#DejaVuSans-48"/>
       <use x="63.623047" xlink:href="#DejaVuSans-46"/>
       <use x="95.410156" xlink:href="#DejaVuSans-48"/>
      </g>
     </g>
    </g>
    <g id="ytick_2">
     <g id="line2d_9">
      <g>
       <use style="stroke:#000000;stroke-width:0.8;" x="57.6" xlink:href="#m96cc7de1f0" y="268.990894"/>
      </g>
     </g>
     <g id="text_10">
      <!-- 0.2 -->
      <g transform="translate(23.564687 275.449566)scale(0.17 -0.17)">
       <use xlink:href="#DejaVuSans-48"/>
       <use x="63.623047" xlink:href="#DejaVuSans-46"/>
       <use x="95.410156" xlink:href="#DejaVuSans-50"/>
      </g>
     </g>
    </g>
    <g id="ytick_3">
     <g id="line2d_10">
      <g>
       <use style="stroke:#000000;stroke-width:0.8;" x="57.6" xlink:href="#m96cc7de1f0" y="230.397788"/>
      </g>
     </g>
     <g id="text_11">
      <!-- 0.4 -->
      <defs>
       <path d="M 37.796875 64.3125 
L 12.890625 25.390625 
L 37.796875 25.390625 
z
M 35.203125 72.90625 
L 47.609375 72.90625 
L 47.609375 25.390625 
L 58.015625 25.390625 
L 58.015625 17.1875 
L 47.609375 17.1875 
L 47.609375 0 
L 37.796875 0 
L 37.796875 17.1875 
L 4.890625 17.1875 
L 4.890625 26.703125 
z
" id="DejaVuSans-52"/>
      </defs>
      <g transform="translate(23.564687 236.85646)scale(0.17 -0.17)">
       <use xlink:href="#DejaVuSans-48"/>
       <use x="63.623047" xlink:href="#DejaVuSans-46"/>
       <use x="95.410156" xlink:href="#DejaVuSans-52"/>
      </g>
     </g>
    </g>
    <g id="ytick_4">
     <g id="line2d_11">
      <g>
       <use style="stroke:#000000;stroke-width:0.8;" x="57.6" xlink:href="#m96cc7de1f0" y="191.804682"/>
      </g>
     </g>
     <g id="text_12">
      <!-- 0.6 -->
      <defs>
       <path d="M 33.015625 40.375 
Q 26.375 40.375 22.484375 35.828125 
Q 18.609375 31.296875 18.609375 23.390625 
Q 18.609375 15.53125 22.484375 10.953125 
Q 26.375 6.390625 33.015625 6.390625 
Q 39.65625 6.390625 43.53125 10.953125 
Q 47.40625 15.53125 47.40625 23.390625 
Q 47.40625 31.296875 43.53125 35.828125 
Q 39.65625 40.375 33.015625 40.375 
z
M 52.59375 71.296875 
L 52.59375 62.3125 
Q 48.875 64.0625 45.09375 64.984375 
Q 41.3125 65.921875 37.59375 65.921875 
Q 27.828125 65.921875 22.671875 59.328125 
Q 17.53125 52.734375 16.796875 39.40625 
Q 19.671875 43.65625 24.015625 45.921875 
Q 28.375 48.1875 33.59375 48.1875 
Q 44.578125 48.1875 50.953125 41.515625 
Q 57.328125 34.859375 57.328125 23.390625 
Q 57.328125 12.15625 50.6875 5.359375 
Q 44.046875 -1.421875 33.015625 -1.421875 
Q 20.359375 -1.421875 13.671875 8.265625 
Q 6.984375 17.96875 6.984375 36.375 
Q 6.984375 53.65625 15.1875 63.9375 
Q 23.390625 74.21875 37.203125 74.21875 
Q 40.921875 74.21875 44.703125 73.484375 
Q 48.484375 72.75 52.59375 71.296875 
z
" id="DejaVuSans-54"/>
      </defs>
      <g transform="translate(23.564687 198.263354)scale(0.17 -0.17)">
       <use xlink:href="#DejaVuSans-48"/>
       <use x="63.623047" xlink:href="#DejaVuSans-46"/>
       <use x="95.410156" xlink:href="#DejaVuSans-54"/>
      </g>
     </g>
    </g>
    <g id="ytick_5">
     <g id="line2d_12">
      <g>
       <use style="stroke:#000000;stroke-width:0.8;" x="57.6" xlink:href="#m96cc7de1f0" y="153.211576"/>
      </g>
     </g>
     <g id="text_13">
      <!-- 0.8 -->
      <defs>
       <path d="M 31.78125 34.625 
Q 24.75 34.625 20.71875 30.859375 
Q 16.703125 27.09375 16.703125 20.515625 
Q 16.703125 13.921875 20.71875 10.15625 
Q 24.75 6.390625 31.78125 6.390625 
Q 38.8125 6.390625 42.859375 10.171875 
Q 46.921875 13.96875 46.921875 20.515625 
Q 46.921875 27.09375 42.890625 30.859375 
Q 38.875 34.625 31.78125 34.625 
z
M 21.921875 38.8125 
Q 15.578125 40.375 12.03125 44.71875 
Q 8.5 49.078125 8.5 55.328125 
Q 8.5 64.0625 14.71875 69.140625 
Q 20.953125 74.21875 31.78125 74.21875 
Q 42.671875 74.21875 48.875 69.140625 
Q 55.078125 64.0625 55.078125 55.328125 
Q 55.078125 49.078125 51.53125 44.71875 
Q 48 40.375 41.703125 38.8125 
Q 48.828125 37.15625 52.796875 32.3125 
Q 56.78125 27.484375 56.78125 20.515625 
Q 56.78125 9.90625 50.3125 4.234375 
Q 43.84375 -1.421875 31.78125 -1.421875 
Q 19.734375 -1.421875 13.25 4.234375 
Q 6.78125 9.90625 6.78125 20.515625 
Q 6.78125 27.484375 10.78125 32.3125 
Q 14.796875 37.15625 21.921875 38.8125 
z
M 18.3125 54.390625 
Q 18.3125 48.734375 21.84375 45.5625 
Q 25.390625 42.390625 31.78125 42.390625 
Q 38.140625 42.390625 41.71875 45.5625 
Q 45.3125 48.734375 45.3125 54.390625 
Q 45.3125 60.0625 41.71875 63.234375 
Q 38.140625 66.40625 31.78125 66.40625 
Q 25.390625 66.40625 21.84375 63.234375 
Q 18.3125 60.0625 18.3125 54.390625 
z
" id="DejaVuSans-56"/>
      </defs>
      <g transform="translate(23.564687 159.670248)scale(0.17 -0.17)">
       <use xlink:href="#DejaVuSans-48"/>
       <use x="63.623047" xlink:href="#DejaVuSans-46"/>
       <use x="95.410156" xlink:href="#DejaVuSans-56"/>
      </g>
     </g>
    </g>
    <g id="ytick_6">
     <g id="line2d_13">
      <g>
       <use style="stroke:#000000;stroke-width:0.8;" x="57.6" xlink:href="#m96cc7de1f0" y="114.61847"/>
      </g>
     </g>
     <g id="text_14">
      <!-- 1.0 -->
      <g transform="translate(23.564687 121.077142)scale(0.17 -0.17)">
       <use xlink:href="#DejaVuSans-49"/>
       <use x="63.623047" xlink:href="#DejaVuSans-46"/>
       <use x="95.410156" xlink:href="#DejaVuSans-48"/>
      </g>
     </g>
    </g>
    <g id="ytick_7">
     <g id="line2d_14">
      <g>
       <use style="stroke:#000000;stroke-width:0.8;" x="57.6" xlink:href="#m96cc7de1f0" y="76.025364"/>
      </g>
     </g>
     <g id="text_15">
      <!-- 1.2 -->
      <g transform="translate(23.564687 82.484035)scale(0.17 -0.17)">
       <use xlink:href="#DejaVuSans-49"/>
       <use x="63.623047" xlink:href="#DejaVuSans-46"/>
       <use x="95.410156" xlink:href="#DejaVuSans-50"/>
      </g>
     </g>
    </g>
    <g id="text_16">
     <!-- Density -->
     <defs>
      <path d="M 19.671875 64.796875 
L 19.671875 8.109375 
L 31.59375 8.109375 
Q 46.6875 8.109375 53.6875 14.9375 
Q 60.6875 21.78125 60.6875 36.53125 
Q 60.6875 51.171875 53.6875 57.984375 
Q 46.6875 64.796875 31.59375 64.796875 
z
M 9.8125 72.90625 
L 30.078125 72.90625 
Q 51.265625 72.90625 61.171875 64.09375 
Q 71.09375 55.28125 71.09375 36.53125 
Q 71.09375 17.671875 61.125 8.828125 
Q 51.171875 0 30.078125 0 
L 9.8125 0 
z
" id="DejaVuSans-68"/>
      <path d="M 56.203125 29.59375 
L 56.203125 25.203125 
L 14.890625 25.203125 
Q 15.484375 15.921875 20.484375 11.0625 
Q 25.484375 6.203125 34.421875 6.203125 
Q 39.59375 6.203125 44.453125 7.46875 
Q 49.3125 8.734375 54.109375 11.28125 
L 54.109375 2.78125 
Q 49.265625 0.734375 44.1875 -0.34375 
Q 39.109375 -1.421875 33.890625 -1.421875 
Q 20.796875 -1.421875 13.15625 6.1875 
Q 5.515625 13.8125 5.515625 26.8125 
Q 5.515625 40.234375 12.765625 48.109375 
Q 20.015625 56 32.328125 56 
Q 43.359375 56 49.78125 48.890625 
Q 56.203125 41.796875 56.203125 29.59375 
z
M 47.21875 32.234375 
Q 47.125 39.59375 43.09375 43.984375 
Q 39.0625 48.390625 32.421875 48.390625 
Q 24.90625 48.390625 20.390625 44.140625 
Q 15.875 39.890625 15.1875 32.171875 
z
" id="DejaVuSans-101"/>
      <path d="M 32.171875 -5.078125 
Q 28.375 -14.84375 24.75 -17.8125 
Q 21.140625 -20.796875 15.09375 -20.796875 
L 7.90625 -20.796875 
L 7.90625 -13.28125 
L 13.1875 -13.28125 
Q 16.890625 -13.28125 18.9375 -11.515625 
Q 21 -9.765625 23.484375 -3.21875 
L 25.09375 0.875 
L 2.984375 54.6875 
L 12.5 54.6875 
L 29.59375 11.921875 
L 46.6875 54.6875 
L 56.203125 54.6875 
z
" id="DejaVuSans-121"/>
     </defs>
     <g transform="translate(13.325625 231.553781)rotate(-90)scale(0.3 -0.3)">
      <use xlink:href="#DejaVuSans-68"/>
      <use x="77.001953" xlink:href="#DejaVuSans-101"/>
      <use x="138.525391" xlink:href="#DejaVuSans-110"/>
      <use x="201.904297" xlink:href="#DejaVuSans-115"/>
      <use x="254.003906" xlink:href="#DejaVuSans-105"/>
      <use x="281.787109" xlink:href="#DejaVuSans-116"/>
      <use x="320.996094" xlink:href="#DejaVuSans-121"/>
     </g>
    </g>
   </g>
   <g id="line2d_15">
    <path clip-path="url(#pc767a6e4c9)" d="M 99.394398 305.886119 
L 99.866452 306.046041 
L 100.359031 306.536458 
L 100.783196 306.810046 
L 101.221043 306.782925 
L 101.727304 306.827667 
L 102.473013 306.930408 
L 105.25745 306.67388 
L 106.584675 307.116123 
L 107.214081 306.855862 
L 108.349748 306.26216 
L 108.842326 306.450463 
L 109.375953 306.900291 
L 109.950628 307.318935 
L 110.272172 307.282076 
L 110.634764 306.986234 
L 111.407839 305.953678 
L 111.886734 305.53903 
L 112.208279 305.534071 
L 112.605078 305.791309 
L 113.111339 306.054975 
L 113.426042 305.959082 
L 114.575392 305.373533 
L 116.56623 305.495331 
L 116.942505 305.086571 
L 117.633483 304.347068 
L 118.078172 304.254472 
L 118.474971 304.097324 
L 118.830722 303.664679 
L 119.3233 303.116685 
L 119.5217 303.197233 
L 119.767989 303.598366 
L 120.554747 305.039285 
L 120.985753 305.182822 
L 121.587793 305.245678 
L 121.806717 304.935814 
L 122.107737 304.041269 
L 122.867129 301.67272 
L 123.209197 301.355221 
L 123.927541 301.096297 
L 124.228561 301.197157 
L 124.591153 301.603724 
L 125.049525 302.040543 
L 125.268449 301.967066 
L 125.514738 301.601065 
L 125.904696 300.536792 
L 126.499895 299.012864 
L 126.718818 298.928057 
L 126.944583 299.121748 
L 127.471369 299.608525 
L 127.710817 299.492665 
L 128.182871 299.237537 
L 128.401795 299.419666 
L 129.188552 300.275213 
L 129.455365 300.087396 
L 130.098454 299.588578 
L 130.426839 299.662772 
L 130.87837 300.020668 
L 131.843002 300.893928 
L 132.096133 300.665718 
L 132.677649 300.101792 
L 132.93078 300.197986 
L 133.785951 300.719463 
L 134.011716 300.456227 
L 134.340101 299.652988 
L 134.928459 298.250913 
L 135.126859 298.218889 
L 135.325258 298.459519 
L 135.756264 299.460555 
L 136.392511 300.710318 
L 136.994552 301.484654 
L 137.377668 301.637639 
L 137.719737 301.544936 
L 138.03444 301.209154 
L 138.410715 300.430034 
L 138.855404 298.963125 
L 139.902133 295.165811 
L 140.114215 295.151769 
L 140.456284 295.445006 
L 141.865605 296.650957 
L 142.221356 296.673068 
L 142.823397 296.674762 
L 143.726457 296.905729 
L 144.08905 296.688833 
L 144.369546 296.24301 
L 144.704773 295.21722 
L 146.155142 290.121468 
L 146.333018 290.099259 
L 146.497211 290.373634 
L 146.777707 291.382167 
L 147.236078 292.868373 
L 147.359223 292.819562 
L 147.502892 292.379308 
L 147.728657 290.813638 
L 148.200711 285.4584 
L 148.570145 282.566955 
L 148.700131 282.362421 
L 148.734338 282.385879 
L 148.850641 282.690078 
L 149.076406 284.065986 
L 149.815274 288.910231 
L 150.034198 289.161478 
L 150.184708 289.032966 
L 150.451521 288.421551 
L 151.115134 286.863967 
L 151.559822 286.502257 
L 152.414993 285.981372 
L 152.627076 286.279127 
L 152.955461 287.218832 
L 153.454881 288.53759 
L 153.632757 288.557101 
L 153.817474 288.283709 
L 154.617914 286.821227 
L 155.267843 286.637357 
L 155.514133 285.988435 
L 155.938297 284.084422 
L 156.608751 281.332479 
L 157.286047 278.630455 
L 157.696529 277.361939 
L 157.922294 277.222411 
L 158.161742 277.385718 
L 158.538017 277.58794 
L 158.866403 277.431639 
L 159.092168 277.451142 
L 159.270043 277.742141 
L 159.530015 278.69687 
L 160.200469 281.323265 
L 160.316772 281.241225 
L 160.480965 280.730915 
L 160.823034 278.716999 
L 161.192467 277.066385 
L 161.315612 276.997336 
L 161.342977 277.019389 
L 161.486646 277.338519 
L 161.787666 278.72812 
L 162.198148 280.288686 
L 162.3555 280.354118 
L 162.369183 280.343438 
L 162.519693 280.06331 
L 162.779665 278.993419 
L 163.285926 275.749343 
L 164.004269 271.470319 
L 164.284765 270.871555 
L 164.435275 270.904143 
L 164.613151 271.26126 
L 164.886806 272.419487 
L 165.40675 275.843761 
L 165.940376 278.759553 
L 166.207189 279.250712 
L 166.350858 279.182145 
L 166.542416 278.754021 
L 166.905009 277.256243 
L 167.452318 275.237775 
L 167.698608 274.989085 
L 167.883324 275.08905 
L 168.191186 275.587208 
L 168.868481 276.650386 
L 169.46368 277.107855 
L 169.805749 277.491158 
L 170.140976 278.287415 
L 170.660919 279.455885 
L 170.859319 279.48001 
L 171.098767 279.22299 
L 171.618711 278.661885 
L 171.817111 278.759175 
L 172.090765 279.207637 
L 173.486404 282.390008 
L 173.883203 283.061373 
L 174.11581 283.103785 
L 174.31421 282.892495 
L 174.560499 282.24995 
L 174.888884 280.661197 
L 175.531973 277.504946 
L 175.764579 277.295467 
L 176.051917 277.13933 
L 176.222951 276.629108 
L 176.455557 275.096291 
L 176.907088 270.196164 
L 177.372301 266.177192 
L 177.666479 265.216433 
L 177.878562 265.093115 
L 178.083803 265.253519 
L 178.364299 265.799993 
L 178.726891 267.051311 
L 179.650476 270.4826 
L 179.985703 270.774234 
L 180.252516 271.096748 
L 180.539854 271.88808 
L 181.066639 273.299464 
L 181.217149 273.265795 
L 181.401866 272.898499 
L 181.805507 271.423371 
L 182.428071 269.453381 
L 182.982222 267.636088 
L 183.632152 264.476179 
L 184.268399 261.819929 
L 184.815708 260.501892 
L 185.082521 260.268234 
L 185.233031 260.40252 
L 185.445114 260.974734 
L 186.129251 263.06841 
L 186.259237 262.943744 
L 186.491843 262.311961 
L 186.881801 261.39115 
L 186.998104 261.474839 
L 187.162297 261.986335 
L 187.470159 263.87952 
L 187.914847 266.230622 
L 188.092723 266.390627 
L 188.099564 266.387483 
L 188.250074 266.178687 
L 188.564777 265.236216 
L 189.098404 262.985163 
L 190.021988 258.532026 
L 190.193023 258.543881 
L 191.13029 259.07542 
L 191.499724 259.242873 
L 191.985461 259.461978 
L 192.190702 259.282216 
L 192.519087 258.607619 
L 192.840632 258.154443 
L 192.9843 258.249841 
L 193.196383 258.749923 
L 193.730009 260.064223 
L 193.873678 259.992164 
L 194.078919 259.53689 
L 195.707165 254.969708 
L 195.946612 254.995869 
L 196.268157 255.016295 
L 196.459715 254.736456 
L 196.760735 253.788906 
L 197.191741 252.620292 
L 197.390141 252.57323 
L 197.739051 252.590044 
L 197.910085 252.22361 
L 198.204264 250.906748 
L 198.628428 249.270992 
L 198.813145 249.186911 
L 199.257834 249.28756 
L 199.422027 248.715183 
L 199.675157 246.837761 
L 200.434549 240.732137 
L 200.660314 240.405486 
L 200.810824 240.51562 
L 201.043431 241.042505 
L 201.460754 242.653305 
L 201.980698 244.415329 
L 202.226987 244.61623 
L 202.473277 244.505953 
L 202.8906 244.061965 
L 203.130048 243.4209 
L 203.451592 241.776391 
L 204.128888 238.33193 
L 204.628307 235.986366 
L 205.196141 233.347893 
L 205.332968 233.270965 
L 205.353492 233.287095 
L 205.49032 233.583821 
L 205.716085 234.740031 
L 206.598621 239.948056 
L 206.708083 239.856942 
L 206.865434 239.318405 
L 207.132248 237.438229 
L 207.816384 232.35812 
L 207.912164 232.310987 
L 207.94637 232.348565 
L 208.083198 232.760299 
L 208.363694 234.505667 
L 208.842589 237.179077 
L 208.986258 237.314621 
L 209.013624 237.296355 
L 209.14361 237.023192 
L 209.369375 235.910052 
L 209.807222 232.381679 
L 211.531247 217.687776 
L 211.886998 216.477981 
L 212.037508 216.431594 
L 212.051191 216.443658 
L 212.201701 216.750041 
L 212.489038 217.983731 
L 212.967934 219.819727 
L 213.227906 220.071891 
L 213.706801 220.320051 
L 213.966773 220.892698 
L 214.691958 222.66988 
L 214.828786 222.526268 
L 215.040868 221.895351 
L 215.423985 219.909099 
L 215.909722 216.241183 
L 216.491238 209.777146 
L 216.997499 205.160225 
L 217.230106 204.546202 
L 217.332726 204.64779 
L 217.496919 205.260993 
L 217.770574 207.324853 
L 218.358931 213.983347 
L 218.783096 217.509479 
L 219.008861 218.038338 
L 219.132006 217.949017 
L 219.350929 217.390643 
L 220.117162 214.602987 
L 220.397659 211.857611 
L 221.061271 204.910305 
L 221.136526 204.844468 
L 221.184416 204.902495 
L 221.321243 205.438499 
L 221.649629 207.93776 
L 222.237986 211.86766 
L 222.970013 215.401846 
L 223.20946 215.681723 
L 223.373653 215.571008 
L 223.599418 215.08221 
L 223.866232 213.901566 
L 224.174093 211.364925 
L 224.885595 205.137393 
L 225.00874 205.023982 
L 225.042947 205.048794 
L 225.200298 205.383821 
L 225.61078 206.250033 
L 225.727084 206.096286 
L 225.925483 205.339697 
L 226.541206 202.75789 
L 226.643827 202.8802 
L 226.80802 203.534621 
L 227.122722 205.938517 
L 227.676873 209.885346 
L 227.90948 210.313134 
L 228.05999 210.23374 
L 228.805699 209.508513 
L 229.072512 209.882781 
L 229.387215 210.206288 
L 229.517201 210.043796 
L 229.695076 209.351139 
L 229.975573 207.148655 
L 230.598137 202.202843 
L 230.755488 202.007881 
L 230.776012 202.020359 
L 230.905998 202.276154 
L 231.193336 203.513136 
L 231.480673 204.351969 
L 231.569611 204.229754 
L 231.706438 203.505833 
L 231.925362 200.877403 
L 232.807899 188.566129 
L 232.883154 188.676504 
L 233.033664 189.441842 
L 233.41678 192.958264 
L 234.059869 198.119911 
L 234.41562 199.708588 
L 234.477192 199.693205 
L 234.504558 199.638363 
L 234.614019 199.043944 
L 234.771371 196.738122 
L 234.969771 190.079449 
L 235.21606 172.986182 
L 235.537604 132.512356 
L 236.146486 55.411299 
L 236.221741 54.144 
L 236.26963 54.765502 
L 236.379092 60.261983 
L 236.591175 84.482115 
L 237.46687 196.909139 
L 237.754207 206.502186 
L 237.952607 207.90029 
L 238.02102 207.760583 
L 238.17153 206.72142 
L 238.506757 202.455988 
L 238.978812 193.712727 
L 239.77241 177.963679 
L 239.799776 177.962769 
L 239.833983 178.049676 
L 239.943444 178.986393 
L 240.148685 183.201037 
L 241.181732 208.353115 
L 241.407497 209.110834 
L 241.516959 209.028953 
L 241.694834 208.477513 
L 242.502116 205.559382 
L 242.892074 204.968811 
L 243.131522 203.915344 
L 243.740403 200.644693 
L 243.788293 200.688366 
L 243.897755 201.108997 
L 244.089313 202.951282 
L 244.47243 209.450327 
L 244.930801 215.79018 
L 245.204456 217.09323 
L 245.416538 217.286765 
L 246.148564 217.225612 
L 246.346964 217.002521 
L 246.579571 216.32693 
L 247.003735 214.206053 
L 247.496314 212.168839 
L 247.783651 211.744785 
L 247.954685 211.792144 
L 248.139402 212.14021 
L 248.37885 213.14765 
L 248.707236 215.633148 
L 249.637662 223.318333 
L 249.726599 223.348628 
L 249.760806 223.309772 
L 249.904475 222.867058 
L 250.219178 220.920179 
L 250.602294 219.0613 
L 250.759646 218.93731 
L 250.773329 218.945658 
L 250.910156 219.187063 
L 251.135921 220.144784 
L 251.943202 224.569771 
L 252.018457 224.494079 
L 252.168968 223.96995 
L 252.853104 220.87852 
L 252.900994 220.910306 
L 253.044663 221.235003 
L 253.37989 222.740274 
L 253.763006 224.051217 
L 253.93404 224.115502 
L 253.940882 224.110365 
L 254.091392 223.851254 
L 254.33084 222.909206 
L 254.686591 220.473395 
L 255.68543 212.442521 
L 255.73332 212.486023 
L 255.856464 212.897964 
L 256.08223 214.606311 
L 256.595332 220.693471 
L 257.525758 231.271361 
L 257.93624 233.361774 
L 258.463025 235.898711 
L 259.379768 241.032165 
L 259.496072 240.976544 
L 259.660265 240.542523 
L 260.070747 238.582939 
L 260.419656 237.48865 
L 260.597532 237.433747 
L 260.761725 237.672372 
L 261.035379 238.549638 
L 262.129998 242.573208 
L 262.273667 242.449228 
L 262.472066 241.899865 
L 262.773087 240.281868 
L 263.470906 236.327959 
L 263.580368 236.306967 
L 263.607733 236.337225 
L 263.758243 236.728007 
L 264.127677 238.536221 
L 264.483428 239.753161 
L 264.661304 239.828283 
L 264.825497 239.595407 
L 265.372806 238.492711 
L 265.427537 238.54403 
L 265.571206 238.944115 
L 265.810654 240.41544 
L 266.672666 246.292294 
L 267.165244 247.814126 
L 267.34312 247.912195 
L 267.349961 247.907724 
L 267.486789 247.67692 
L 267.712554 246.755853 
L 268.314594 244.173026 
L 268.430897 244.23229 
L 268.581407 244.699718 
L 268.827697 246.350305 
L 269.272385 251.195837 
L 269.819695 256.438684 
L 270.065984 257.139067 
L 270.202811 257.091662 
L 270.442259 256.633375 
L 270.852741 255.98402 
L 271.167444 255.895146 
L 271.441099 256.023294 
L 271.660023 256.41509 
L 271.933677 257.453406 
L 273.09671 262.598029 
L 273.219854 262.477471 
L 273.390888 261.882454 
L 273.644019 260.048244 
L 274.526555 252.781095 
L 274.533397 252.782687 
L 274.622334 252.929782 
L 274.786527 253.786999 
L 275.094389 256.897843 
L 275.79905 264.00411 
L 276.168483 265.595462 
L 276.442138 266.000225 
L 276.606331 265.932138 
L 276.845779 265.501173 
L 277.290468 264.76722 
L 277.495709 264.810688 
L 278.138797 265.122383 
L 278.863982 264.895441 
L 279.20605 264.509177 
L 279.725994 263.948138 
L 279.910711 264.038716 
L 280.129635 264.457437 
L 280.512752 265.802994 
L 280.971123 267.142029 
L 281.237936 267.355099 
L 281.621053 267.316094 
L 282.503589 267.245947 
L 282.838816 267.648937 
L 283.365602 268.203811 
L 284.172883 268.649936 
L 284.391807 268.411594 
L 284.85702 267.436585 
L 285.171723 267.060849 
L 285.329074 267.148514 
L 285.520632 267.593193 
L 285.80797 268.949297 
L 287.237815 276.715501 
L 287.538836 277.367946 
L 287.70987 277.352132 
L 287.969842 276.999013 
L 288.305069 276.676905 
L 288.530834 276.762217 
L 289.146557 277.365896 
L 289.392846 277.975673 
L 289.721232 279.512207 
L 290.36432 282.481601 
L 290.603768 282.761032 
L 290.747437 282.638505 
L 290.945836 282.085235 
L 291.253698 280.419834 
L 291.985724 276.315575 
L 292.403048 275.452976 
L 292.76564 274.495014 
L 293.935514 270.913315 
L 294.127072 270.988428 
L 294.551237 271.217429 
L 294.71543 270.939135 
L 294.96856 269.952105 
L 295.481663 267.987225 
L 295.597966 268.047966 
L 295.748476 268.532019 
L 296.01529 270.321456 
L 296.706268 275.114053 
L 296.925191 275.440973 
L 297.062019 275.320914 
L 297.287784 274.72788 
L 297.8693 273.150161 
L 298.026651 273.18812 
L 298.225051 273.56016 
L 298.703947 275.118368 
L 299.778041 278.42967 
L 299.908027 278.288357 
L 300.113268 277.642033 
L 300.783722 275.312009 
L 300.92055 275.392468 
L 301.146315 275.901118 
L 301.577321 276.787165 
L 301.734672 276.74193 
L 301.953596 276.364552 
L 302.466699 275.472318 
L 302.630892 275.546378 
L 302.836133 275.955989 
L 303.191884 277.283235 
L 303.855496 279.685277 
L 304.12231 279.950425 
L 304.348075 279.869911 
L 304.813288 279.661383 
L 305.02537 279.879859 
L 305.948955 281.1493 
L 306.373119 281.231386 
L 306.612567 281.610898 
L 306.97516 282.695614 
L 307.501945 285.014623 
L 308.295544 288.5908 
L 308.610246 288.994312 
L 308.97968 289.432838 
L 309.725389 290.647556 
L 309.745913 290.634427 
L 309.93063 290.354312 
L 310.306905 289.236366 
L 310.765277 288.149164 
L 311.03209 287.987955 
L 311.292062 288.10313 
L 311.68202 288.553476 
L 312.003565 289.267247 
L 312.359316 290.710809 
L 313.036611 293.491557 
L 313.235011 293.591331 
L 313.412886 293.375209 
L 314.049133 292.437386 
L 314.23385 292.6121 
L 314.842732 293.329076 
L 315.020607 293.093086 
L 315.827889 291.711917 
L 316.081019 291.962871 
L 316.525708 292.342148 
L 317.230369 292.648691 
L 317.818727 293.135949 
L 318.03765 292.993792 
L 318.366036 292.444376 
L 318.88598 291.654846 
L 319.125428 291.643357 
L 319.440131 291.914738 
L 319.93955 292.282467 
L 320.685259 292.642242 
L 321.034169 293.139274 
L 321.383079 294.07994 
L 322.149312 296.254311 
L 322.368236 296.324053 
L 322.580318 296.129723 
L 322.88818 295.493996 
L 323.33971 293.988095 
L 324.003322 291.84035 
L 324.215405 291.735991 
L 324.400122 291.926108 
L 325.077417 292.800027 
L 325.262134 292.581971 
L 325.898381 291.549103 
L 325.939429 291.580752 
L 326.103622 291.905948 
L 326.404642 293.127358 
L 326.821966 294.543413 
L 326.958793 294.55958 
L 326.972476 294.546087 
L 327.129827 294.205415 
L 327.430847 292.868754 
L 327.937109 290.822109 
L 328.108143 290.72663 
L 328.114984 290.731036 
L 328.258653 290.966818 
L 328.504942 291.914164 
L 329.230127 294.912458 
L 329.414844 294.951061 
L 329.64745 294.670202 
L 329.962153 294.390833 
L 330.112663 294.53947 
L 330.317904 295.137108 
L 330.69418 297.090264 
L 331.289378 299.904961 
L 331.59724 300.48187 
L 331.775116 300.468783 
L 331.952991 300.163445 
L 332.212963 299.177337 
L 332.74659 295.978126 
L 333.157072 294.203355 
L 333.375995 293.976081 
L 333.533347 294.117994 
L 333.820684 294.782642 
L 334.244849 295.607708 
L 334.409042 295.566731 
L 334.593759 295.198751 
L 334.915303 293.922539 
L 335.380516 292.290574 
L 335.531026 292.253303 
L 335.537867 292.259242 
L 335.688378 292.557248 
L 335.934667 293.659118 
L 337.131906 299.936765 
L 337.316623 299.941717 
L 337.562912 299.647461 
L 338.028125 299.135732 
L 338.240207 299.207116 
L 338.589117 299.641801 
L 338.979075 299.992108 
L 339.225364 299.935224 
L 339.649529 299.528321 
L 340.039487 299.293758 
L 340.313142 299.389287 
L 341.010961 299.761335 
L 341.311981 299.513023 
L 341.852449 299.088397 
L 342.132945 299.145467 
L 342.427124 299.456276 
L 342.803399 300.233181 
L 343.371233 301.347355 
L 343.590157 301.377073 
L 343.843287 301.141041 
L 344.417962 300.211113 
L 345.149988 299.042257 
L 345.314181 299.159915 
L 345.553629 299.692934 
L 346.203559 301.236126 
L 346.401958 301.230052 
L 346.634565 300.943517 
L 347.578674 299.525631 
L 347.783915 299.735352 
L 348.543306 300.780239 
L 348.56383 300.765674 
L 348.755389 300.46421 
L 349.076933 299.431776 
L 349.747387 297.303216 
L 350.082614 296.948146 
L 350.670972 296.724242 
L 350.889895 296.862637 
L 351.129343 297.332184 
L 352.182914 299.829644 
L 352.689175 299.874969 
L 353.56487 300.031223 
L 354.050607 299.74727 
L 354.228482 299.976652 
L 354.495296 300.778695 
L 355.220481 303.08976 
L 355.494135 303.286954 
L 355.747266 303.199758 
L 356.048286 302.826842 
L 357.074491 301.309894 
L 357.457608 301.390242 
L 358.0186 301.447062 
L 358.353827 301.271781 
L 358.695895 300.801802 
L 359.263729 300.035361 
L 359.455287 300.093691 
L 359.681052 300.446433 
L 360.652526 302.312859 
L 360.91934 302.140386 
L 361.240884 302.012874 
L 361.425601 302.198944 
L 361.712938 302.89181 
L 362.184992 303.940393 
L 362.349185 303.910407 
L 362.540744 303.556009 
L 363.047005 301.906419 
L 363.361708 301.341971 
L 363.560107 301.343867 
L 363.792714 301.624369 
L 364.764188 303.036434 
L 365.031001 302.963135 
L 365.516738 302.508931 
L 365.838283 302.377957 
L 366.091413 302.529413 
L 366.700295 302.973205 
L 366.919219 302.783643 
L 367.336542 302.023837 
L 367.788072 301.401363 
L 368.082251 301.336009 
L 368.465367 301.524774 
L 369.245283 301.903088 
L 369.621559 301.843248 
L 370.57935 301.518207 
L 370.839322 301.826129 
L 371.215597 302.68168 
L 371.995513 304.464042 
L 372.296533 304.678745 
L 372.522298 304.584197 
L 372.837001 304.151308 
L 373.042242 303.82268 
L 373.042242 303.82268 
" style="fill:none;stroke:#ff7f0e;stroke-linecap:square;stroke-width:1.5;"/>
   </g>
   <g id="patch_103">
    <path d="M 57.6 307.584 
L 57.6 41.472 
" style="fill:none;stroke:#000000;stroke-linecap:square;stroke-linejoin:miter;stroke-width:0.8;"/>
   </g>
   <g id="patch_104">
    <path d="M 414.72 307.584 
L 414.72 41.472 
" style="fill:none;stroke:#000000;stroke-linecap:square;stroke-linejoin:miter;stroke-width:0.8;"/>
   </g>
   <g id="patch_105">
    <path d="M 57.6 307.584 
L 414.72 307.584 
" style="fill:none;stroke:#000000;stroke-linecap:square;stroke-linejoin:miter;stroke-width:0.8;"/>
   </g>
   <g id="patch_106">
    <path d="M 57.6 41.472 
L 414.72 41.472 
" style="fill:none;stroke:#000000;stroke-linecap:square;stroke-linejoin:miter;stroke-width:0.8;"/>
   </g>
  </g>
 </g>
 <defs>
  <clipPath id="pc767a6e4c9">
   <rect height="266.112" width="357.12" x="57.6" y="41.472"/>
  </clipPath>
 </defs>
</svg>
