<?xml version="1.0" encoding="utf-8" standalone="no"?>
<!DOCTYPE svg PUBLIC "-//W3C//DTD SVG 1.1//EN"
  "http://www.w3.org/Graphics/SVG/1.1/DTD/svg11.dtd">
<!-- Created with matplotlib (https://matplotlib.org/) -->
<svg height="345.6pt" version="1.1" viewBox="0 0 460.8 345.6" width="460.8pt" xmlns="http://www.w3.org/2000/svg" xmlns:xlink="http://www.w3.org/1999/xlink">
 <defs>
  <style type="text/css">
*{stroke-linecap:butt;stroke-linejoin:round;}
  </style>
 </defs>
 <g id="figure_1">
  <g id="patch_1">
   <path d="M 0 345.6 
L 460.8 345.6 
L 460.8 0 
L 0 0 
z
" style="fill:#ffffff;"/>
  </g>
  <g id="axes_1">
   <g id="patch_2">
    <path d="M 57.6 307.584 
L 414.72 307.584 
L 414.72 41.472 
L 57.6 41.472 
z
" style="fill:#ffffff;"/>
   </g>
   <g id="patch_3">
    <path clip-path="url(#p9726e17755)" d="M 127.586475 307.584 
L 129.426706 307.584 
L 129.426706 295.082585 
L 127.586475 295.082585 
z
" style="fill:#1f77b4;"/>
   </g>
   <g id="patch_4">
    <path clip-path="url(#p9726e17755)" d="M 129.426713 307.584 
L 131.266943 307.584 
L 131.266943 305.083717 
L 129.426713 305.083717 
z
" style="fill:#1f77b4;"/>
   </g>
   <g id="patch_5">
    <path clip-path="url(#p9726e17755)" d="M 131.266936 307.584 
L 133.107166 307.584 
L 133.107166 297.582868 
L 131.266936 297.582868 
z
" style="fill:#1f77b4;"/>
   </g>
   <g id="patch_6">
    <path clip-path="url(#p9726e17755)" d="M 133.107174 307.584 
L 134.947404 307.584 
L 134.947404 300.083151 
L 133.107174 300.083151 
z
" style="fill:#1f77b4;"/>
   </g>
   <g id="patch_7">
    <path clip-path="url(#p9726e17755)" d="M 134.947396 307.584 
L 136.787626 307.584 
L 136.787626 297.582868 
L 134.947396 297.582868 
z
" style="fill:#1f77b4;"/>
   </g>
   <g id="patch_8">
    <path clip-path="url(#p9726e17755)" d="M 136.787634 307.584 
L 138.627864 307.584 
L 138.627864 302.583434 
L 136.787634 302.583434 
z
" style="fill:#1f77b4;"/>
   </g>
   <g id="patch_9">
    <path clip-path="url(#p9726e17755)" d="M 138.627856 307.584 
L 140.468079 307.584 
L 140.468079 292.582239 
L 138.627856 292.582239 
z
" style="fill:#1f77b4;"/>
   </g>
   <g id="patch_10">
    <path clip-path="url(#p9726e17755)" d="M 140.468079 307.584 
L 142.308309 307.584 
L 142.308309 290.08202 
L 140.468079 290.08202 
z
" style="fill:#1f77b4;"/>
   </g>
   <g id="patch_11">
    <path clip-path="url(#p9726e17755)" d="M 142.308317 307.584 
L 144.148547 307.584 
L 144.148547 300.083151 
L 142.308317 300.083151 
z
" style="fill:#1f77b4;"/>
   </g>
   <g id="patch_12">
    <path clip-path="url(#p9726e17755)" d="M 144.148539 307.584 
L 145.98877 307.584 
L 145.98877 305.083717 
L 144.148539 305.083717 
z
" style="fill:#1f77b4;"/>
   </g>
   <g id="patch_13">
    <path clip-path="url(#p9726e17755)" d="M 145.988777 307.584 
L 147.829007 307.584 
L 147.829007 285.081454 
L 145.988777 285.081454 
z
" style="fill:#1f77b4;"/>
   </g>
   <g id="patch_14">
    <path clip-path="url(#p9726e17755)" d="M 147.829 307.584 
L 149.66923 307.584 
L 149.66923 285.081454 
L 147.829 285.081454 
z
" style="fill:#1f77b4;"/>
   </g>
   <g id="patch_15">
    <path clip-path="url(#p9726e17755)" d="M 149.669238 307.584 
L 151.509468 307.584 
L 151.509468 295.082585 
L 149.669238 295.082585 
z
" style="fill:#1f77b4;"/>
   </g>
   <g id="patch_16">
    <path clip-path="url(#p9726e17755)" d="M 151.50946 307.584 
L 153.34969 307.584 
L 153.34969 280.080888 
L 151.50946 280.080888 
z
" style="fill:#1f77b4;"/>
   </g>
   <g id="patch_17">
    <path clip-path="url(#p9726e17755)" d="M 153.349698 307.584 
L 155.189928 307.584 
L 155.189928 280.080888 
L 153.349698 280.080888 
z
" style="fill:#1f77b4;"/>
   </g>
   <g id="patch_18">
    <path clip-path="url(#p9726e17755)" d="M 155.18992 307.584 
L 157.030151 307.584 
L 157.030151 282.581171 
L 155.18992 282.581171 
z
" style="fill:#1f77b4;"/>
   </g>
   <g id="patch_19">
    <path clip-path="url(#p9726e17755)" d="M 157.030158 307.584 
L 158.870389 307.584 
L 158.870389 287.581737 
L 157.030158 287.581737 
z
" style="fill:#1f77b4;"/>
   </g>
   <g id="patch_20">
    <path clip-path="url(#p9726e17755)" d="M 158.870381 307.584 
L 160.710611 307.584 
L 160.710611 287.581737 
L 158.870381 287.581737 
z
" style="fill:#1f77b4;"/>
   </g>
   <g id="patch_21">
    <path clip-path="url(#p9726e17755)" d="M 160.710611 307.584 
L 162.550833 307.584 
L 162.550833 277.580479 
L 160.710611 277.580479 
z
" style="fill:#1f77b4;"/>
   </g>
   <g id="patch_22">
    <path clip-path="url(#p9726e17755)" d="M 162.550841 307.584 
L 164.391071 307.584 
L 164.391071 280.080888 
L 162.550841 280.080888 
z
" style="fill:#1f77b4;"/>
   </g>
   <g id="patch_23">
    <path clip-path="url(#p9726e17755)" d="M 164.391064 307.584 
L 166.231294 307.584 
L 166.231294 272.580039 
L 164.391064 272.580039 
z
" style="fill:#1f77b4;"/>
   </g>
   <g id="patch_24">
    <path clip-path="url(#p9726e17755)" d="M 166.231302 307.584 
L 168.071532 307.584 
L 168.071532 242.576645 
L 166.231302 242.576645 
z
" style="fill:#1f77b4;"/>
   </g>
   <g id="patch_25">
    <path clip-path="url(#p9726e17755)" d="M 168.071524 307.584 
L 169.911754 307.584 
L 169.911754 242.576645 
L 168.071524 242.576645 
z
" style="fill:#1f77b4;"/>
   </g>
   <g id="patch_26">
    <path clip-path="url(#p9726e17755)" d="M 169.911762 307.584 
L 171.751992 307.584 
L 171.751992 260.078625 
L 169.911762 260.078625 
z
" style="fill:#1f77b4;"/>
   </g>
   <g id="patch_27">
    <path clip-path="url(#p9726e17755)" d="M 171.751984 307.584 
L 173.592215 307.584 
L 173.592215 275.080322 
L 171.751984 275.080322 
z
" style="fill:#1f77b4;"/>
   </g>
   <g id="patch_28">
    <path clip-path="url(#p9726e17755)" d="M 173.592215 307.584 
L 175.432445 307.584 
L 175.432445 232.575513 
L 173.592215 232.575513 
z
" style="fill:#1f77b4;"/>
   </g>
   <g id="patch_29">
    <path clip-path="url(#p9726e17755)" d="M 175.432445 307.584 
L 177.272675 307.584 
L 177.272675 272.580039 
L 175.432445 272.580039 
z
" style="fill:#1f77b4;"/>
   </g>
   <g id="patch_30">
    <path clip-path="url(#p9726e17755)" d="M 177.272675 307.584 
L 179.112905 307.584 
L 179.112905 245.076927 
L 177.272675 245.076927 
z
" style="fill:#1f77b4;"/>
   </g>
   <g id="patch_31">
    <path clip-path="url(#p9726e17755)" d="M 179.112905 307.584 
L 180.953131 307.584 
L 180.953131 262.578813 
L 179.112905 262.578813 
z
" style="fill:#1f77b4;"/>
   </g>
   <g id="patch_32">
    <path clip-path="url(#p9726e17755)" d="M 180.953131 307.584 
L 182.793362 307.584 
L 182.793362 247.57721 
L 180.953131 247.57721 
z
" style="fill:#1f77b4;"/>
   </g>
   <g id="patch_33">
    <path clip-path="url(#p9726e17755)" d="M 182.793362 307.584 
L 184.633592 307.584 
L 184.633592 257.578342 
L 182.793362 257.578342 
z
" style="fill:#1f77b4;"/>
   </g>
   <g id="patch_34">
    <path clip-path="url(#p9726e17755)" d="M 184.633592 307.584 
L 186.473822 307.584 
L 186.473822 237.576079 
L 184.633592 237.576079 
z
" style="fill:#1f77b4;"/>
   </g>
   <g id="patch_35">
    <path clip-path="url(#p9726e17755)" d="M 186.473822 307.584 
L 188.314052 307.584 
L 188.314052 230.07523 
L 186.473822 230.07523 
z
" style="fill:#1f77b4;"/>
   </g>
   <g id="patch_36">
    <path clip-path="url(#p9726e17755)" d="M 188.314052 307.584 
L 190.154282 307.584 
L 190.154282 240.076362 
L 188.314052 240.076362 
z
" style="fill:#1f77b4;"/>
   </g>
   <g id="patch_37">
    <path clip-path="url(#p9726e17755)" d="M 190.154286 307.584 
L 191.994513 307.584 
L 191.994513 250.077372 
L 190.154286 250.077372 
z
" style="fill:#1f77b4;"/>
   </g>
   <g id="patch_38">
    <path clip-path="url(#p9726e17755)" d="M 191.994509 307.584 
L 193.834739 307.584 
L 193.834739 237.576079 
L 191.994509 237.576079 
z
" style="fill:#1f77b4;"/>
   </g>
   <g id="patch_39">
    <path clip-path="url(#p9726e17755)" d="M 193.834739 307.584 
L 195.674969 307.584 
L 195.674969 235.075796 
L 193.834739 235.075796 
z
" style="fill:#1f77b4;"/>
   </g>
   <g id="patch_40">
    <path clip-path="url(#p9726e17755)" d="M 195.674969 307.584 
L 197.515199 307.584 
L 197.515199 225.074664 
L 195.674969 225.074664 
z
" style="fill:#1f77b4;"/>
   </g>
   <g id="patch_41">
    <path clip-path="url(#p9726e17755)" d="M 197.515199 307.584 
L 199.35543 307.584 
L 199.35543 252.577776 
L 197.515199 252.577776 
z
" style="fill:#1f77b4;"/>
   </g>
   <g id="patch_42">
    <path clip-path="url(#p9726e17755)" d="M 199.35543 307.584 
L 201.19566 307.584 
L 201.19566 250.077493 
L 199.35543 250.077493 
z
" style="fill:#1f77b4;"/>
   </g>
   <g id="patch_43">
    <path clip-path="url(#p9726e17755)" d="M 201.19566 307.584 
L 203.035886 307.584 
L 203.035886 222.574203 
L 201.19566 222.574203 
z
" style="fill:#1f77b4;"/>
   </g>
   <g id="patch_44">
    <path clip-path="url(#p9726e17755)" d="M 203.035886 307.584 
L 204.876118 307.584 
L 204.876118 240.076433 
L 203.035886 240.076433 
z
" style="fill:#1f77b4;"/>
   </g>
   <g id="patch_45">
    <path clip-path="url(#p9726e17755)" d="M 204.876116 307.584 
L 206.716344 307.584 
L 206.716344 200.071722 
L 204.876116 200.071722 
z
" style="fill:#1f77b4;"/>
   </g>
   <g id="patch_46">
    <path clip-path="url(#p9726e17755)" d="M 206.716346 307.584 
L 208.556577 307.584 
L 208.556577 182.569855 
L 206.716346 182.569855 
z
" style="fill:#1f77b4;"/>
   </g>
   <g id="patch_47">
    <path clip-path="url(#p9726e17755)" d="M 208.556577 307.584 
L 210.396807 307.584 
L 210.396807 197.571552 
L 208.556577 197.571552 
z
" style="fill:#1f77b4;"/>
   </g>
   <g id="patch_48">
    <path clip-path="url(#p9726e17755)" d="M 210.396807 307.584 
L 212.237035 307.584 
L 212.237035 187.570294 
L 210.396807 187.570294 
z
" style="fill:#1f77b4;"/>
   </g>
   <g id="patch_49">
    <path clip-path="url(#p9726e17755)" d="M 212.237035 307.584 
L 214.077265 307.584 
L 214.077265 147.565894 
L 212.237035 147.565894 
z
" style="fill:#1f77b4;"/>
   </g>
   <g id="patch_50">
    <path clip-path="url(#p9726e17755)" d="M 214.077265 307.584 
L 215.917495 307.584 
L 215.917495 142.565328 
L 214.077265 142.565328 
z
" style="fill:#1f77b4;"/>
   </g>
   <g id="patch_51">
    <path clip-path="url(#p9726e17755)" d="M 215.917493 307.584 
L 217.757722 307.584 
L 217.757722 177.569152 
L 215.917493 177.569152 
z
" style="fill:#1f77b4;"/>
   </g>
   <g id="patch_52">
    <path clip-path="url(#p9726e17755)" d="M 217.757724 307.584 
L 219.597954 307.584 
L 219.597954 155.066743 
L 217.757724 155.066743 
z
" style="fill:#1f77b4;"/>
   </g>
   <g id="patch_53">
    <path clip-path="url(#p9726e17755)" d="M 219.597954 307.584 
L 221.438183 307.584 
L 221.438183 195.07121 
L 219.597954 195.07121 
z
" style="fill:#1f77b4;"/>
   </g>
   <g id="patch_54">
    <path clip-path="url(#p9726e17755)" d="M 221.438183 307.584 
L 223.278413 307.584 
L 223.278413 160.067309 
L 221.438183 160.067309 
z
" style="fill:#1f77b4;"/>
   </g>
   <g id="patch_55">
    <path clip-path="url(#p9726e17755)" d="M 223.278412 307.584 
L 225.118642 307.584 
L 225.118642 145.065526 
L 223.278412 145.065526 
z
" style="fill:#1f77b4;"/>
   </g>
   <g id="patch_56">
    <path clip-path="url(#p9726e17755)" d="M 225.118643 307.584 
L 226.958872 307.584 
L 226.958872 190.070642 
L 225.118643 190.070642 
z
" style="fill:#1f77b4;"/>
   </g>
   <g id="patch_57">
    <path clip-path="url(#p9726e17755)" d="M 226.958872 307.584 
L 228.799102 307.584 
L 228.799102 200.071835 
L 226.958872 200.071835 
z
" style="fill:#1f77b4;"/>
   </g>
   <g id="patch_58">
    <path clip-path="url(#p9726e17755)" d="M 228.799102 307.584 
L 230.639331 307.584 
L 230.639331 170.068368 
L 228.799102 170.068368 
z
" style="fill:#1f77b4;"/>
   </g>
   <g id="patch_59">
    <path clip-path="url(#p9726e17755)" d="M 230.639331 307.584 
L 232.479561 307.584 
L 232.479561 142.565285 
L 230.639331 142.565285 
z
" style="fill:#1f77b4;"/>
   </g>
   <g id="patch_60">
    <path clip-path="url(#p9726e17755)" d="M 232.479561 307.584 
L 234.31979 307.584 
L 234.31979 172.568679 
L 232.479561 172.568679 
z
" style="fill:#1f77b4;"/>
   </g>
   <g id="patch_61">
    <path clip-path="url(#p9726e17755)" d="M 234.31979 307.584 
L 236.16002 307.584 
L 236.16002 182.569814 
L 234.31979 182.569814 
z
" style="fill:#1f77b4;"/>
   </g>
   <g id="patch_62">
    <path clip-path="url(#p9726e17755)" d="M 236.16002 307.584 
L 238.00025 307.584 
L 238.00025 65.056479 
L 236.16002 65.056479 
z
" style="fill:#1f77b4;"/>
   </g>
   <g id="patch_63">
    <path clip-path="url(#p9726e17755)" d="M 238.000249 307.584 
L 239.840479 307.584 
L 239.840479 197.571516 
L 238.000249 197.571516 
z
" style="fill:#1f77b4;"/>
   </g>
   <g id="patch_64">
    <path clip-path="url(#p9726e17755)" d="M 239.840479 307.584 
L 241.680709 307.584 
L 241.680709 177.569255 
L 239.840479 177.569255 
z
" style="fill:#1f77b4;"/>
   </g>
   <g id="patch_65">
    <path clip-path="url(#p9726e17755)" d="M 241.680709 307.584 
L 243.520938 307.584 
L 243.520938 192.570926 
L 241.680709 192.570926 
z
" style="fill:#1f77b4;"/>
   </g>
   <g id="patch_66">
    <path clip-path="url(#p9726e17755)" d="M 243.520938 307.584 
L 245.361167 307.584 
L 245.361167 200.071807 
L 243.520938 200.071807 
z
" style="fill:#1f77b4;"/>
   </g>
   <g id="patch_67">
    <path clip-path="url(#p9726e17755)" d="M 245.361167 307.584 
L 247.201396 307.584 
L 247.201396 197.571494 
L 245.361167 197.571494 
z
" style="fill:#1f77b4;"/>
   </g>
   <g id="patch_68">
    <path clip-path="url(#p9726e17755)" d="M 247.201397 307.584 
L 249.041627 307.584 
L 249.041627 205.072401 
L 247.201397 205.072401 
z
" style="fill:#1f77b4;"/>
   </g>
   <g id="patch_69">
    <path clip-path="url(#p9726e17755)" d="M 249.041627 307.584 
L 250.881856 307.584 
L 250.881856 197.571494 
L 249.041627 197.571494 
z
" style="fill:#1f77b4;"/>
   </g>
   <g id="patch_70">
    <path clip-path="url(#p9726e17755)" d="M 250.881855 307.584 
L 252.722086 307.584 
L 252.722086 232.575473 
L 250.881855 232.575473 
z
" style="fill:#1f77b4;"/>
   </g>
   <g id="patch_71">
    <path clip-path="url(#p9726e17755)" d="M 252.722086 307.584 
L 254.562316 307.584 
L 254.562316 220.074098 
L 252.722086 220.074098 
z
" style="fill:#1f77b4;"/>
   </g>
   <g id="patch_72">
    <path clip-path="url(#p9726e17755)" d="M 254.562316 307.584 
L 256.402546 307.584 
L 256.402546 220.074098 
L 254.562316 220.074098 
z
" style="fill:#1f77b4;"/>
   </g>
   <g id="patch_73">
    <path clip-path="url(#p9726e17755)" d="M 256.402546 307.584 
L 258.242774 307.584 
L 258.242774 167.56801 
L 256.402546 167.56801 
z
" style="fill:#1f77b4;"/>
   </g>
   <g id="patch_74">
    <path clip-path="url(#p9726e17755)" d="M 258.242774 307.584 
L 260.083004 307.584 
L 260.083004 190.070704 
L 258.242774 190.070704 
z
" style="fill:#1f77b4;"/>
   </g>
   <g id="patch_75">
    <path clip-path="url(#p9726e17755)" d="M 260.083004 307.584 
L 261.923235 307.584 
L 261.923235 205.072401 
L 260.083004 205.072401 
z
" style="fill:#1f77b4;"/>
   </g>
   <g id="patch_76">
    <path clip-path="url(#p9726e17755)" d="M 261.923233 307.584 
L 263.763461 307.584 
L 263.763461 235.07572 
L 261.923233 235.07572 
z
" style="fill:#1f77b4;"/>
   </g>
   <g id="patch_77">
    <path clip-path="url(#p9726e17755)" d="M 263.763463 307.584 
L 265.603693 307.584 
L 265.603693 255.078059 
L 263.763463 255.078059 
z
" style="fill:#1f77b4;"/>
   </g>
   <g id="patch_78">
    <path clip-path="url(#p9726e17755)" d="M 265.603693 307.584 
L 267.443923 307.584 
L 267.443923 250.077493 
L 265.603693 250.077493 
z
" style="fill:#1f77b4;"/>
   </g>
   <g id="patch_79">
    <path clip-path="url(#p9726e17755)" d="M 267.443923 307.584 
L 269.284154 307.584 
L 269.284154 280.080888 
L 267.443923 280.080888 
z
" style="fill:#1f77b4;"/>
   </g>
   <g id="patch_80">
    <path clip-path="url(#p9726e17755)" d="M 269.284154 307.584 
L 271.124384 307.584 
L 271.124384 270.079756 
L 269.284154 270.079756 
z
" style="fill:#1f77b4;"/>
   </g>
   <g id="patch_81">
    <path clip-path="url(#p9726e17755)" d="M 271.124384 307.584 
L 272.96461 307.584 
L 272.96461 252.57766 
L 271.124384 252.57766 
z
" style="fill:#1f77b4;"/>
   </g>
   <g id="patch_82">
    <path clip-path="url(#p9726e17755)" d="M 272.96461 307.584 
L 274.80484 307.584 
L 274.80484 280.080888 
L 272.96461 280.080888 
z
" style="fill:#1f77b4;"/>
   </g>
   <g id="patch_83">
    <path clip-path="url(#p9726e17755)" d="M 274.80484 307.584 
L 276.64507 307.584 
L 276.64507 277.580605 
L 274.80484 277.580605 
z
" style="fill:#1f77b4;"/>
   </g>
   <g id="patch_84">
    <path clip-path="url(#p9726e17755)" d="M 276.64507 307.584 
L 278.485301 307.584 
L 278.485301 267.579474 
L 276.64507 267.579474 
z
" style="fill:#1f77b4;"/>
   </g>
   <g id="patch_85">
    <path clip-path="url(#p9726e17755)" d="M 278.485301 307.584 
L 280.325531 307.584 
L 280.325531 267.579474 
L 278.485301 267.579474 
z
" style="fill:#1f77b4;"/>
   </g>
   <g id="patch_86">
    <path clip-path="url(#p9726e17755)" d="M 280.325531 307.584 
L 282.165761 307.584 
L 282.165761 265.079191 
L 280.325531 265.079191 
z
" style="fill:#1f77b4;"/>
   </g>
   <g id="patch_87">
    <path clip-path="url(#p9726e17755)" d="M 282.165765 307.584 
L 284.005991 307.584 
L 284.005991 290.081983 
L 282.165765 290.081983 
z
" style="fill:#1f77b4;"/>
   </g>
   <g id="patch_88">
    <path clip-path="url(#p9726e17755)" d="M 284.005987 307.584 
L 285.846217 307.584 
L 285.846217 297.582868 
L 284.005987 297.582868 
z
" style="fill:#1f77b4;"/>
   </g>
   <g id="patch_89">
    <path clip-path="url(#p9726e17755)" d="M 285.846217 307.584 
L 287.686448 307.584 
L 287.686448 285.081454 
L 285.846217 285.081454 
z
" style="fill:#1f77b4;"/>
   </g>
   <g id="patch_90">
    <path clip-path="url(#p9726e17755)" d="M 287.686448 307.584 
L 289.526678 307.584 
L 289.526678 282.581171 
L 287.686448 282.581171 
z
" style="fill:#1f77b4;"/>
   </g>
   <g id="patch_91">
    <path clip-path="url(#p9726e17755)" d="M 289.526678 307.584 
L 291.366908 307.584 
L 291.366908 277.580605 
L 289.526678 277.580605 
z
" style="fill:#1f77b4;"/>
   </g>
   <g id="patch_92">
    <path clip-path="url(#p9726e17755)" d="M 291.366908 307.584 
L 293.207138 307.584 
L 293.207138 287.581737 
L 291.366908 287.581737 
z
" style="fill:#1f77b4;"/>
   </g>
   <g id="patch_93">
    <path clip-path="url(#p9726e17755)" d="M 293.207138 307.584 
L 295.047365 307.584 
L 295.047365 290.081983 
L 293.207138 290.081983 
z
" style="fill:#1f77b4;"/>
   </g>
   <g id="patch_94">
    <path clip-path="url(#p9726e17755)" d="M 295.047365 307.584 
L 296.887595 307.584 
L 296.887595 297.582868 
L 295.047365 297.582868 
z
" style="fill:#1f77b4;"/>
   </g>
   <g id="patch_95">
    <path clip-path="url(#p9726e17755)" d="M 296.887595 307.584 
L 298.727825 307.584 
L 298.727825 297.582868 
L 296.887595 297.582868 
z
" style="fill:#1f77b4;"/>
   </g>
   <g id="patch_96">
    <path clip-path="url(#p9726e17755)" d="M 298.727825 307.584 
L 300.568055 307.584 
L 300.568055 305.083717 
L 298.727825 305.083717 
z
" style="fill:#1f77b4;"/>
   </g>
   <g id="patch_97">
    <path clip-path="url(#p9726e17755)" d="M 300.568059 307.584 
L 302.408289 307.584 
L 302.408289 307.584 
L 300.568059 307.584 
z
" style="fill:#1f77b4;"/>
   </g>
   <g id="patch_98">
    <path clip-path="url(#p9726e17755)" d="M 302.408289 307.584 
L 304.248519 307.584 
L 304.248519 297.582868 
L 302.408289 297.582868 
z
" style="fill:#1f77b4;"/>
   </g>
   <g id="patch_99">
    <path clip-path="url(#p9726e17755)" d="M 304.248512 307.584 
L 306.088742 307.584 
L 306.088742 305.083717 
L 304.248512 305.083717 
z
" style="fill:#1f77b4;"/>
   </g>
   <g id="patch_100">
    <path clip-path="url(#p9726e17755)" d="M 306.08875 307.584 
L 307.92898 307.584 
L 307.92898 305.083717 
L 306.08875 305.083717 
z
" style="fill:#1f77b4;"/>
   </g>
   <g id="patch_101">
    <path clip-path="url(#p9726e17755)" d="M 307.928972 307.584 
L 309.769202 307.584 
L 309.769202 302.583434 
L 307.928972 302.583434 
z
" style="fill:#1f77b4;"/>
   </g>
   <g id="patch_102">
    <path clip-path="url(#p9726e17755)" d="M 309.76921 307.584 
L 311.60944 307.584 
L 311.60944 302.583434 
L 309.76921 302.583434 
z
" style="fill:#1f77b4;"/>
   </g>
   <g id="matplotlib.axis_1">
    <g id="xtick_1">
     <g id="line2d_1">
      <defs>
       <path d="M 0 0 
L 0 3.5 
" id="mf359bddbbb" style="stroke:#000000;stroke-width:0.8;"/>
      </defs>
      <g>
       <use style="stroke:#000000;stroke-width:0.8;" x="106.304676" xlink:href="#mf359bddbbb" y="307.584"/>
      </g>
     </g>
     <g id="text_1">
      <!-- −2 -->
      <defs>
       <path d="M 10.59375 35.5 
L 73.1875 35.5 
L 73.1875 27.203125 
L 10.59375 27.203125 
z
" id="DejaVuSans-8722"/>
       <path d="M 19.1875 8.296875 
L 53.609375 8.296875 
L 53.609375 0 
L 7.328125 0 
L 7.328125 8.296875 
Q 12.9375 14.109375 22.625 23.890625 
Q 32.328125 33.6875 34.8125 36.53125 
Q 39.546875 41.84375 41.421875 45.53125 
Q 43.3125 49.21875 43.3125 52.78125 
Q 43.3125 58.59375 39.234375 62.25 
Q 35.15625 65.921875 28.609375 65.921875 
Q 23.96875 65.921875 18.8125 64.3125 
Q 13.671875 62.703125 7.8125 59.421875 
L 7.8125 69.390625 
Q 13.765625 71.78125 18.9375 73 
Q 24.125 74.21875 28.421875 74.21875 
Q 39.75 74.21875 46.484375 68.546875 
Q 53.21875 62.890625 53.21875 53.421875 
Q 53.21875 48.921875 51.53125 44.890625 
Q 49.859375 40.875 45.40625 35.40625 
Q 44.1875 33.984375 37.640625 27.21875 
Q 31.109375 20.453125 19.1875 8.296875 
z
" id="DejaVuSans-50"/>
      </defs>
      <g transform="translate(93.773817 327.501344)scale(0.17 -0.17)">
       <use xlink:href="#DejaVuSans-8722"/>
       <use x="83.789062" xlink:href="#DejaVuSans-50"/>
      </g>
     </g>
    </g>
    <g id="xtick_2">
     <g id="line2d_2">
      <g>
       <use style="stroke:#000000;stroke-width:0.8;" x="171.248574" xlink:href="#mf359bddbbb" y="307.584"/>
      </g>
     </g>
     <g id="text_2">
      <!-- −1 -->
      <defs>
       <path d="M 12.40625 8.296875 
L 28.515625 8.296875 
L 28.515625 63.921875 
L 10.984375 60.40625 
L 10.984375 69.390625 
L 28.421875 72.90625 
L 38.28125 72.90625 
L 38.28125 8.296875 
L 54.390625 8.296875 
L 54.390625 0 
L 12.40625 0 
z
" id="DejaVuSans-49"/>
      </defs>
      <g transform="translate(158.717715 327.501344)scale(0.17 -0.17)">
       <use xlink:href="#DejaVuSans-8722"/>
       <use x="83.789062" xlink:href="#DejaVuSans-49"/>
      </g>
     </g>
    </g>
    <g id="xtick_3">
     <g id="line2d_3">
      <g>
       <use style="stroke:#000000;stroke-width:0.8;" x="236.192472" xlink:href="#mf359bddbbb" y="307.584"/>
      </g>
     </g>
     <g id="text_3">
      <!-- 0 -->
      <defs>
       <path d="M 31.78125 66.40625 
Q 24.171875 66.40625 20.328125 58.90625 
Q 16.5 51.421875 16.5 36.375 
Q 16.5 21.390625 20.328125 13.890625 
Q 24.171875 6.390625 31.78125 6.390625 
Q 39.453125 6.390625 43.28125 13.890625 
Q 47.125 21.390625 47.125 36.375 
Q 47.125 51.421875 43.28125 58.90625 
Q 39.453125 66.40625 31.78125 66.40625 
z
M 31.78125 74.21875 
Q 44.046875 74.21875 50.515625 64.515625 
Q 56.984375 54.828125 56.984375 36.375 
Q 56.984375 17.96875 50.515625 8.265625 
Q 44.046875 -1.421875 31.78125 -1.421875 
Q 19.53125 -1.421875 13.0625 8.265625 
Q 6.59375 17.96875 6.59375 36.375 
Q 6.59375 54.828125 13.0625 64.515625 
Q 19.53125 74.21875 31.78125 74.21875 
z
" id="DejaVuSans-48"/>
      </defs>
      <g transform="translate(230.784347 327.501344)scale(0.17 -0.17)">
       <use xlink:href="#DejaVuSans-48"/>
      </g>
     </g>
    </g>
    <g id="xtick_4">
     <g id="line2d_4">
      <g>
       <use style="stroke:#000000;stroke-width:0.8;" x="301.13637" xlink:href="#mf359bddbbb" y="307.584"/>
      </g>
     </g>
     <g id="text_4">
      <!-- 1 -->
      <g transform="translate(295.728245 327.501344)scale(0.17 -0.17)">
       <use xlink:href="#DejaVuSans-49"/>
      </g>
     </g>
    </g>
    <g id="xtick_5">
     <g id="line2d_5">
      <g>
       <use style="stroke:#000000;stroke-width:0.8;" x="366.080268" xlink:href="#mf359bddbbb" y="307.584"/>
      </g>
     </g>
     <g id="text_5">
      <!-- 2 -->
      <g transform="translate(360.672143 327.501344)scale(0.17 -0.17)">
       <use xlink:href="#DejaVuSans-50"/>
      </g>
     </g>
    </g>
    <g id="text_6">
     <!-- Position in Radian -->
     <defs>
      <path d="M 19.671875 64.796875 
L 19.671875 37.40625 
L 32.078125 37.40625 
Q 38.96875 37.40625 42.71875 40.96875 
Q 46.484375 44.53125 46.484375 51.125 
Q 46.484375 57.671875 42.71875 61.234375 
Q 38.96875 64.796875 32.078125 64.796875 
z
M 9.8125 72.90625 
L 32.078125 72.90625 
Q 44.34375 72.90625 50.609375 67.359375 
Q 56.890625 61.8125 56.890625 51.125 
Q 56.890625 40.328125 50.609375 34.8125 
Q 44.34375 29.296875 32.078125 29.296875 
L 19.671875 29.296875 
L 19.671875 0 
L 9.8125 0 
z
" id="DejaVuSans-80"/>
      <path d="M 30.609375 48.390625 
Q 23.390625 48.390625 19.1875 42.75 
Q 14.984375 37.109375 14.984375 27.296875 
Q 14.984375 17.484375 19.15625 11.84375 
Q 23.34375 6.203125 30.609375 6.203125 
Q 37.796875 6.203125 41.984375 11.859375 
Q 46.1875 17.53125 46.1875 27.296875 
Q 46.1875 37.015625 41.984375 42.703125 
Q 37.796875 48.390625 30.609375 48.390625 
z
M 30.609375 56 
Q 42.328125 56 49.015625 48.375 
Q 55.71875 40.765625 55.71875 27.296875 
Q 55.71875 13.875 49.015625 6.21875 
Q 42.328125 -1.421875 30.609375 -1.421875 
Q 18.84375 -1.421875 12.171875 6.21875 
Q 5.515625 13.875 5.515625 27.296875 
Q 5.515625 40.765625 12.171875 48.375 
Q 18.84375 56 30.609375 56 
z
" id="DejaVuSans-111"/>
      <path d="M 44.28125 53.078125 
L 44.28125 44.578125 
Q 40.484375 46.53125 36.375 47.5 
Q 32.28125 48.484375 27.875 48.484375 
Q 21.1875 48.484375 17.84375 46.4375 
Q 14.5 44.390625 14.5 40.28125 
Q 14.5 37.15625 16.890625 35.375 
Q 19.28125 33.59375 26.515625 31.984375 
L 29.59375 31.296875 
Q 39.15625 29.25 43.1875 25.515625 
Q 47.21875 21.78125 47.21875 15.09375 
Q 47.21875 7.46875 41.1875 3.015625 
Q 35.15625 -1.421875 24.609375 -1.421875 
Q 20.21875 -1.421875 15.453125 -0.5625 
Q 10.6875 0.296875 5.421875 2 
L 5.421875 11.28125 
Q 10.40625 8.6875 15.234375 7.390625 
Q 20.0625 6.109375 24.8125 6.109375 
Q 31.15625 6.109375 34.5625 8.28125 
Q 37.984375 10.453125 37.984375 14.40625 
Q 37.984375 18.0625 35.515625 20.015625 
Q 33.0625 21.96875 24.703125 23.78125 
L 21.578125 24.515625 
Q 13.234375 26.265625 9.515625 29.90625 
Q 5.8125 33.546875 5.8125 39.890625 
Q 5.8125 47.609375 11.28125 51.796875 
Q 16.75 56 26.8125 56 
Q 31.78125 56 36.171875 55.265625 
Q 40.578125 54.546875 44.28125 53.078125 
z
" id="DejaVuSans-115"/>
      <path d="M 9.421875 54.6875 
L 18.40625 54.6875 
L 18.40625 0 
L 9.421875 0 
z
M 9.421875 75.984375 
L 18.40625 75.984375 
L 18.40625 64.59375 
L 9.421875 64.59375 
z
" id="DejaVuSans-105"/>
      <path d="M 18.3125 70.21875 
L 18.3125 54.6875 
L 36.8125 54.6875 
L 36.8125 47.703125 
L 18.3125 47.703125 
L 18.3125 18.015625 
Q 18.3125 11.328125 20.140625 9.421875 
Q 21.96875 7.515625 27.59375 7.515625 
L 36.8125 7.515625 
L 36.8125 0 
L 27.59375 0 
Q 17.1875 0 13.234375 3.875 
Q 9.28125 7.765625 9.28125 18.015625 
L 9.28125 47.703125 
L 2.6875 47.703125 
L 2.6875 54.6875 
L 9.28125 54.6875 
L 9.28125 70.21875 
z
" id="DejaVuSans-116"/>
      <path d="M 54.890625 33.015625 
L 54.890625 0 
L 45.90625 0 
L 45.90625 32.71875 
Q 45.90625 40.484375 42.875 44.328125 
Q 39.84375 48.1875 33.796875 48.1875 
Q 26.515625 48.1875 22.3125 43.546875 
Q 18.109375 38.921875 18.109375 30.90625 
L 18.109375 0 
L 9.078125 0 
L 9.078125 54.6875 
L 18.109375 54.6875 
L 18.109375 46.1875 
Q 21.34375 51.125 25.703125 53.5625 
Q 30.078125 56 35.796875 56 
Q 45.21875 56 50.046875 50.171875 
Q 54.890625 44.34375 54.890625 33.015625 
z
" id="DejaVuSans-110"/>
      <path id="DejaVuSans-32"/>
      <path d="M 44.390625 34.1875 
Q 47.5625 33.109375 50.5625 29.59375 
Q 53.5625 26.078125 56.59375 19.921875 
L 66.609375 0 
L 56 0 
L 46.6875 18.703125 
Q 43.0625 26.03125 39.671875 28.421875 
Q 36.28125 30.8125 30.421875 30.8125 
L 19.671875 30.8125 
L 19.671875 0 
L 9.8125 0 
L 9.8125 72.90625 
L 32.078125 72.90625 
Q 44.578125 72.90625 50.734375 67.671875 
Q 56.890625 62.453125 56.890625 51.90625 
Q 56.890625 45.015625 53.6875 40.46875 
Q 50.484375 35.9375 44.390625 34.1875 
z
M 19.671875 64.796875 
L 19.671875 38.921875 
L 32.078125 38.921875 
Q 39.203125 38.921875 42.84375 42.21875 
Q 46.484375 45.515625 46.484375 51.90625 
Q 46.484375 58.296875 42.84375 61.546875 
Q 39.203125 64.796875 32.078125 64.796875 
z
" id="DejaVuSans-82"/>
      <path d="M 34.28125 27.484375 
Q 23.390625 27.484375 19.1875 25 
Q 14.984375 22.515625 14.984375 16.5 
Q 14.984375 11.71875 18.140625 8.90625 
Q 21.296875 6.109375 26.703125 6.109375 
Q 34.1875 6.109375 38.703125 11.40625 
Q 43.21875 16.703125 43.21875 25.484375 
L 43.21875 27.484375 
z
M 52.203125 31.203125 
L 52.203125 0 
L 43.21875 0 
L 43.21875 8.296875 
Q 40.140625 3.328125 35.546875 0.953125 
Q 30.953125 -1.421875 24.3125 -1.421875 
Q 15.921875 -1.421875 10.953125 3.296875 
Q 6 8.015625 6 15.921875 
Q 6 25.140625 12.171875 29.828125 
Q 18.359375 34.515625 30.609375 34.515625 
L 43.21875 34.515625 
L 43.21875 35.40625 
Q 43.21875 41.609375 39.140625 45 
Q 35.0625 48.390625 27.6875 48.390625 
Q 23 48.390625 18.546875 47.265625 
Q 14.109375 46.140625 10.015625 43.890625 
L 10.015625 52.203125 
Q 14.9375 54.109375 19.578125 55.046875 
Q 24.21875 56 28.609375 56 
Q 40.484375 56 46.34375 49.84375 
Q 52.203125 43.703125 52.203125 31.203125 
z
" id="DejaVuSans-97"/>
      <path d="M 45.40625 46.390625 
L 45.40625 75.984375 
L 54.390625 75.984375 
L 54.390625 0 
L 45.40625 0 
L 45.40625 8.203125 
Q 42.578125 3.328125 38.25 0.953125 
Q 33.9375 -1.421875 27.875 -1.421875 
Q 17.96875 -1.421875 11.734375 6.484375 
Q 5.515625 14.40625 5.515625 27.296875 
Q 5.515625 40.1875 11.734375 48.09375 
Q 17.96875 56 27.875 56 
Q 33.9375 56 38.25 53.625 
Q 42.578125 51.265625 45.40625 46.390625 
z
M 14.796875 27.296875 
Q 14.796875 17.390625 18.875 11.75 
Q 22.953125 6.109375 30.078125 6.109375 
Q 37.203125 6.109375 41.296875 11.75 
Q 45.40625 17.390625 45.40625 27.296875 
Q 45.40625 37.203125 41.296875 42.84375 
Q 37.203125 48.484375 30.078125 48.484375 
Q 22.953125 48.484375 18.875 42.84375 
Q 14.796875 37.203125 14.796875 27.296875 
z
" id="DejaVuSans-100"/>
     </defs>
     <g transform="translate(102.024844 357.832125)scale(0.3 -0.3)">
      <use xlink:href="#DejaVuSans-80"/>
      <use x="60.255859" xlink:href="#DejaVuSans-111"/>
      <use x="121.4375" xlink:href="#DejaVuSans-115"/>
      <use x="173.537109" xlink:href="#DejaVuSans-105"/>
      <use x="201.320312" xlink:href="#DejaVuSans-116"/>
      <use x="240.529297" xlink:href="#DejaVuSans-105"/>
      <use x="268.3125" xlink:href="#DejaVuSans-111"/>
      <use x="329.494141" xlink:href="#DejaVuSans-110"/>
      <use x="392.873047" xlink:href="#DejaVuSans-32"/>
      <use x="424.660156" xlink:href="#DejaVuSans-105"/>
      <use x="452.443359" xlink:href="#DejaVuSans-110"/>
      <use x="515.822266" xlink:href="#DejaVuSans-32"/>
      <use x="547.609375" xlink:href="#DejaVuSans-82"/>
      <use x="617.060547" xlink:href="#DejaVuSans-97"/>
      <use x="678.339844" xlink:href="#DejaVuSans-100"/>
      <use x="741.816406" xlink:href="#DejaVuSans-105"/>
      <use x="769.599609" xlink:href="#DejaVuSans-97"/>
      <use x="830.878906" xlink:href="#DejaVuSans-110"/>
     </g>
    </g>
   </g>
   <g id="matplotlib.axis_2">
    <g id="ytick_1">
     <g id="line2d_6">
      <defs>
       <path d="M 0 0 
L -3.5 0 
" id="mcb0df6f4b7" style="stroke:#000000;stroke-width:0.8;"/>
      </defs>
      <g>
       <use style="stroke:#000000;stroke-width:0.8;" x="57.6" xlink:href="#mcb0df6f4b7" y="307.584"/>
      </g>
     </g>
     <g id="text_7">
      <!-- 0.00 -->
      <defs>
       <path d="M 10.6875 12.40625 
L 21 12.40625 
L 21 0 
L 10.6875 0 
z
" id="DejaVuSans-46"/>
      </defs>
      <g transform="translate(12.748438 314.042672)scale(0.17 -0.17)">
       <use xlink:href="#DejaVuSans-48"/>
       <use x="63.623047" xlink:href="#DejaVuSans-46"/>
       <use x="95.410156" xlink:href="#DejaVuSans-48"/>
       <use x="159.033203" xlink:href="#DejaVuSans-48"/>
      </g>
     </g>
    </g>
    <g id="ytick_2">
     <g id="line2d_7">
      <g>
       <use style="stroke:#000000;stroke-width:0.8;" x="57.6" xlink:href="#mcb0df6f4b7" y="263.304473"/>
      </g>
     </g>
     <g id="text_8">
      <!-- 0.25 -->
      <defs>
       <path d="M 10.796875 72.90625 
L 49.515625 72.90625 
L 49.515625 64.59375 
L 19.828125 64.59375 
L 19.828125 46.734375 
Q 21.96875 47.46875 24.109375 47.828125 
Q 26.265625 48.1875 28.421875 48.1875 
Q 40.625 48.1875 47.75 41.5 
Q 54.890625 34.8125 54.890625 23.390625 
Q 54.890625 11.625 47.5625 5.09375 
Q 40.234375 -1.421875 26.90625 -1.421875 
Q 22.3125 -1.421875 17.546875 -0.640625 
Q 12.796875 0.140625 7.71875 1.703125 
L 7.71875 11.625 
Q 12.109375 9.234375 16.796875 8.0625 
Q 21.484375 6.890625 26.703125 6.890625 
Q 35.15625 6.890625 40.078125 11.328125 
Q 45.015625 15.765625 45.015625 23.390625 
Q 45.015625 31 40.078125 35.4375 
Q 35.15625 39.890625 26.703125 39.890625 
Q 22.75 39.890625 18.8125 39.015625 
Q 14.890625 38.140625 10.796875 36.28125 
z
" id="DejaVuSans-53"/>
      </defs>
      <g transform="translate(12.748438 269.763145)scale(0.17 -0.17)">
       <use xlink:href="#DejaVuSans-48"/>
       <use x="63.623047" xlink:href="#DejaVuSans-46"/>
       <use x="95.410156" xlink:href="#DejaVuSans-50"/>
       <use x="159.033203" xlink:href="#DejaVuSans-53"/>
      </g>
     </g>
    </g>
    <g id="ytick_3">
     <g id="line2d_8">
      <g>
       <use style="stroke:#000000;stroke-width:0.8;" x="57.6" xlink:href="#mcb0df6f4b7" y="219.024947"/>
      </g>
     </g>
     <g id="text_9">
      <!-- 0.50 -->
      <g transform="translate(12.748438 225.483619)scale(0.17 -0.17)">
       <use xlink:href="#DejaVuSans-48"/>
       <use x="63.623047" xlink:href="#DejaVuSans-46"/>
       <use x="95.410156" xlink:href="#DejaVuSans-53"/>
       <use x="159.033203" xlink:href="#DejaVuSans-48"/>
      </g>
     </g>
    </g>
    <g id="ytick_4">
     <g id="line2d_9">
      <g>
       <use style="stroke:#000000;stroke-width:0.8;" x="57.6" xlink:href="#mcb0df6f4b7" y="174.74542"/>
      </g>
     </g>
     <g id="text_10">
      <!-- 0.75 -->
      <defs>
       <path d="M 8.203125 72.90625 
L 55.078125 72.90625 
L 55.078125 68.703125 
L 28.609375 0 
L 18.3125 0 
L 43.21875 64.59375 
L 8.203125 64.59375 
z
" id="DejaVuSans-55"/>
      </defs>
      <g transform="translate(12.748438 181.204092)scale(0.17 -0.17)">
       <use xlink:href="#DejaVuSans-48"/>
       <use x="63.623047" xlink:href="#DejaVuSans-46"/>
       <use x="95.410156" xlink:href="#DejaVuSans-55"/>
       <use x="159.033203" xlink:href="#DejaVuSans-53"/>
      </g>
     </g>
    </g>
    <g id="ytick_5">
     <g id="line2d_10">
      <g>
       <use style="stroke:#000000;stroke-width:0.8;" x="57.6" xlink:href="#mcb0df6f4b7" y="130.465894"/>
      </g>
     </g>
     <g id="text_11">
      <!-- 1.00 -->
      <g transform="translate(12.748438 136.924566)scale(0.17 -0.17)">
       <use xlink:href="#DejaVuSans-49"/>
       <use x="63.623047" xlink:href="#DejaVuSans-46"/>
       <use x="95.410156" xlink:href="#DejaVuSans-48"/>
       <use x="159.033203" xlink:href="#DejaVuSans-48"/>
      </g>
     </g>
    </g>
    <g id="ytick_6">
     <g id="line2d_11">
      <g>
       <use style="stroke:#000000;stroke-width:0.8;" x="57.6" xlink:href="#mcb0df6f4b7" y="86.186367"/>
      </g>
     </g>
     <g id="text_12">
      <!-- 1.25 -->
      <g transform="translate(12.748438 92.645039)scale(0.17 -0.17)">
       <use xlink:href="#DejaVuSans-49"/>
       <use x="63.623047" xlink:href="#DejaVuSans-46"/>
       <use x="95.410156" xlink:href="#DejaVuSans-50"/>
       <use x="159.033203" xlink:href="#DejaVuSans-53"/>
      </g>
     </g>
    </g>
    <g id="ytick_7">
     <g id="line2d_12">
      <g>
       <use style="stroke:#000000;stroke-width:0.8;" x="57.6" xlink:href="#mcb0df6f4b7" y="41.906841"/>
      </g>
     </g>
     <g id="text_13">
      <!-- 1.50 -->
      <g transform="translate(12.748438 48.365513)scale(0.17 -0.17)">
       <use xlink:href="#DejaVuSans-49"/>
       <use x="63.623047" xlink:href="#DejaVuSans-46"/>
       <use x="95.410156" xlink:href="#DejaVuSans-53"/>
       <use x="159.033203" xlink:href="#DejaVuSans-48"/>
      </g>
     </g>
    </g>
    <g id="text_14">
     <!-- Density -->
     <defs>
      <path d="M 19.671875 64.796875 
L 19.671875 8.109375 
L 31.59375 8.109375 
Q 46.6875 8.109375 53.6875 14.9375 
Q 60.6875 21.78125 60.6875 36.53125 
Q 60.6875 51.171875 53.6875 57.984375 
Q 46.6875 64.796875 31.59375 64.796875 
z
M 9.8125 72.90625 
L 30.078125 72.90625 
Q 51.265625 72.90625 61.171875 64.09375 
Q 71.09375 55.28125 71.09375 36.53125 
Q 71.09375 17.671875 61.125 8.828125 
Q 51.171875 0 30.078125 0 
L 9.8125 0 
z
" id="DejaVuSans-68"/>
      <path d="M 56.203125 29.59375 
L 56.203125 25.203125 
L 14.890625 25.203125 
Q 15.484375 15.921875 20.484375 11.0625 
Q 25.484375 6.203125 34.421875 6.203125 
Q 39.59375 6.203125 44.453125 7.46875 
Q 49.3125 8.734375 54.109375 11.28125 
L 54.109375 2.78125 
Q 49.265625 0.734375 44.1875 -0.34375 
Q 39.109375 -1.421875 33.890625 -1.421875 
Q 20.796875 -1.421875 13.15625 6.1875 
Q 5.515625 13.8125 5.515625 26.8125 
Q 5.515625 40.234375 12.765625 48.109375 
Q 20.015625 56 32.328125 56 
Q 43.359375 56 49.78125 48.890625 
Q 56.203125 41.796875 56.203125 29.59375 
z
M 47.21875 32.234375 
Q 47.125 39.59375 43.09375 43.984375 
Q 39.0625 48.390625 32.421875 48.390625 
Q 24.90625 48.390625 20.390625 44.140625 
Q 15.875 39.890625 15.1875 32.171875 
z
" id="DejaVuSans-101"/>
      <path d="M 32.171875 -5.078125 
Q 28.375 -14.84375 24.75 -17.8125 
Q 21.140625 -20.796875 15.09375 -20.796875 
L 7.90625 -20.796875 
L 7.90625 -13.28125 
L 13.1875 -13.28125 
Q 16.890625 -13.28125 18.9375 -11.515625 
Q 21 -9.765625 23.484375 -3.21875 
L 25.09375 0.875 
L 2.984375 54.6875 
L 12.5 54.6875 
L 29.59375 11.921875 
L 46.6875 54.6875 
L 56.203125 54.6875 
z
" id="DejaVuSans-121"/>
     </defs>
     <g transform="translate(2.509375 231.553781)rotate(-90)scale(0.3 -0.3)">
      <use xlink:href="#DejaVuSans-68"/>
      <use x="77.001953" xlink:href="#DejaVuSans-101"/>
      <use x="138.525391" xlink:href="#DejaVuSans-110"/>
      <use x="201.904297" xlink:href="#DejaVuSans-115"/>
      <use x="254.003906" xlink:href="#DejaVuSans-105"/>
      <use x="281.787109" xlink:href="#DejaVuSans-116"/>
      <use x="320.996094" xlink:href="#DejaVuSans-121"/>
     </g>
    </g>
   </g>
   <g id="line2d_13">
    <path clip-path="url(#p9726e17755)" d="M 73.832727 307.584 
L 125.917733 307.478886 
L 126.242453 307.245089 
L 126.567172 306.721951 
L 126.956836 305.607994 
L 127.671219 302.65697 
L 128.320658 299.030936 
L 128.775265 296.989286 
L 128.970097 296.871068 
L 129.164928 297.338812 
L 129.489648 299.110566 
L 130.074143 302.368224 
L 130.333918 302.949761 
L 130.52875 303.016521 
L 130.723582 302.806548 
L 130.983357 302.105456 
L 131.373021 300.201712 
L 131.957516 297.416569 
L 132.087404 297.29026 
L 132.217291 297.437283 
L 132.412123 298.155853 
L 132.86673 301.20404 
L 133.256394 303.123738 
L 133.386282 303.246611 
L 133.516169 303.062056 
L 133.711001 302.256021 
L 134.620216 297.461862 
L 134.750103 297.577051 
L 135.009879 298.441208 
L 135.52943 300.478535 
L 135.724262 300.603792 
L 135.919094 300.244459 
L 136.308757 298.651154 
L 136.633477 297.614266 
L 136.828308 297.535813 
L 137.02314 297.901915 
L 137.932354 300.428153 
L 138.127186 300.173225 
L 138.451906 299.192544 
L 139.426064 295.444729 
L 139.880671 292.064009 
L 140.400223 288.336383 
L 140.659998 287.661924 
L 140.789886 287.690362 
L 140.984718 288.129265 
L 141.309437 289.68362 
L 141.764044 293.292022 
L 142.738203 302.305142 
L 142.933035 302.609255 
L 143.062922 302.387111 
L 143.322698 301.154852 
L 143.907193 298.046794 
L 144.102025 297.926131 
L 144.296856 298.399442 
L 144.621576 300.098478 
L 145.206071 303.166312 
L 145.400903 303.410515 
L 145.530791 303.192456 
L 145.725622 302.186798 
L 145.985398 299.508489 
L 146.569893 290.016625 
L 146.959556 285.127738 
L 147.219332 284.090604 
L 147.34922 284.279639 
L 147.608995 285.686952 
L 148.063603 288.428209 
L 148.19349 288.559197 
L 148.323378 288.251451 
L 148.583154 286.48373 
L 149.167649 281.970813 
L 149.297537 281.776802 
L 149.427424 281.957681 
L 149.6872 283.190316 
L 150.271695 287.744478 
L 150.921134 292.378652 
L 151.115966 292.856272 
L 151.245854 292.829083 
L 151.440685 292.315852 
L 151.765405 290.544171 
L 152.284956 286.193964 
L 153.324058 276.421781 
L 153.51889 275.986818 
L 153.648778 276.070102 
L 153.843609 276.695305 
L 154.233273 279.169188 
L 154.947656 283.925602 
L 155.272375 284.843849 
L 155.402263 284.874776 
L 155.532151 284.693016 
L 155.791926 283.695679 
L 156.701141 278.876575 
L 156.831029 279.136571 
L 157.02586 280.305292 
L 157.415524 284.797283 
L 157.870131 289.81359 
L 158.064963 290.502085 
L 158.129907 290.473532 
L 158.259795 290.054524 
L 158.584514 287.589416 
L 158.974177 284.906088 
L 159.169009 284.667717 
L 159.298897 284.953524 
L 160.01328 287.541315 
L 160.143168 287.228619 
L 160.337999 286.056167 
L 160.792607 281.292014 
L 161.18227 278.098462 
L 161.377102 277.733827 
L 161.506989 278.005488 
L 161.766765 279.545457 
L 162.611036 285.666961 
L 162.805867 285.928819 
L 162.935755 285.7537 
L 163.130587 284.995698 
L 163.52025 282.254527 
L 164.039801 278.856696 
L 164.429465 277.713877 
L 164.68924 276.731607 
L 164.949016 274.590436 
L 165.338679 268.62978 
L 166.50767 248.657935 
L 167.027221 242.965958 
L 167.35194 241.439791 
L 167.481828 241.380018 
L 167.611716 241.600694 
L 167.871491 242.643488 
L 168.585874 245.81323 
L 169.040482 247.376586 
L 169.365201 249.586541 
L 169.884752 255.311308 
L 170.33936 259.43098 
L 170.599135 260.099188 
L 170.729023 259.967786 
L 171.313518 258.699485 
L 171.443406 259.000218 
L 171.638237 260.17307 
L 171.962957 263.784291 
L 172.547452 270.230869 
L 172.67734 270.520532 
L 172.807228 270.104221 
L 173.002059 268.023188 
L 173.326779 260.904595 
L 174.235993 237.341474 
L 174.430825 236.197099 
L 174.495769 236.29304 
L 174.625657 237.183956 
L 174.885432 241.395598 
L 176.054423 265.003721 
L 176.314198 266.315995 
L 176.444086 266.321523 
L 176.573974 265.872676 
L 176.768805 264.327455 
L 177.093525 259.630396 
L 177.937796 246.043326 
L 178.132627 245.441811 
L 178.262515 245.790379 
L 178.522291 247.944919 
L 179.496449 258.379232 
L 179.756225 259.305228 
L 179.886112 259.411831 
L 180.016 259.270396 
L 180.210832 258.564542 
L 180.535551 256.119649 
L 181.18499 250.804095 
L 181.314878 250.605505 
L 181.444766 250.813571 
L 181.639598 251.781241 
L 182.094205 255.638864 
L 182.6787 260.167837 
L 182.938476 260.900595 
L 183.068363 260.757155 
L 183.263195 259.81101 
L 183.587915 256.375691 
L 184.886793 239.137353 
L 185.01668 238.914865 
L 185.081624 238.946527 
L 185.276456 239.528582 
L 186.120727 243.466756 
L 186.250614 243.272896 
L 186.445446 242.366697 
L 186.770166 239.410248 
L 187.874212 227.092082 
L 187.939156 227.116482 
L 188.069044 227.633158 
L 188.328819 230.345893 
L 189.302978 243.27338 
L 189.887473 248.726541 
L 190.471968 254.667814 
L 190.601856 254.819965 
L 190.731743 254.252538 
L 190.926575 252.046697 
L 191.381182 242.919874 
L 191.83579 235.565027 
L 192.030621 234.508771 
L 192.160509 234.469474 
L 192.355341 235.049414 
L 192.68006 236.132617 
L 192.809948 236.115463 
L 192.939836 235.701058 
L 193.199612 233.757391 
L 193.849051 228.052836 
L 193.978938 227.807202 
L 194.108826 228.005838 
L 194.303658 229.075108 
L 194.693321 233.014208 
L 195.147928 237.205622 
L 195.34276 237.769619 
L 195.472648 237.592104 
L 195.66748 236.576914 
L 196.51175 230.897933 
L 196.771526 230.644055 
L 197.031302 230.708291 
L 197.226133 231.006271 
L 197.420965 231.825075 
L 197.680741 234.275955 
L 198.070404 241.144105 
L 198.914675 257.470709 
L 199.17445 259.521325 
L 199.304338 259.80109 
L 199.434226 259.608698 
L 199.629057 258.552755 
L 200.018721 254.636905 
L 200.927935 242.617985 
L 202.551533 218.657048 
L 202.681421 218.30965 
L 202.746365 218.363936 
L 202.876252 218.976758 
L 203.071084 221.201798 
L 203.460747 229.335457 
L 203.980299 239.414509 
L 204.17513 240.34475 
L 204.305018 239.767383 
L 204.49985 237.088906 
L 204.824569 228.359991 
L 205.928616 192.669429 
L 206.188391 190.526075 
L 206.448167 189.971463 
L 206.642998 189.46698 
L 206.902774 187.826705 
L 207.422325 184.240522 
L 207.487269 184.276128 
L 207.617157 184.890115 
L 207.876932 188.228891 
L 208.786147 203.475905 
L 208.916035 203.873282 
L 208.980979 203.8297 
L 209.110867 203.268192 
L 209.370642 200.436152 
L 210.604576 182.515585 
L 210.799408 182.140343 
L 210.929296 182.347248 
L 211.124127 183.25632 
L 211.903454 188.399407 
L 211.968398 188.354291 
L 212.098286 187.745509 
L 212.293118 185.259181 
L 212.552893 178.473475 
L 212.942557 161.235888 
L 213.656939 128.581575 
L 213.916715 124.203414 
L 214.046603 123.802573 
L 214.176491 124.347831 
L 214.436266 127.365852 
L 214.890873 135.946961 
L 215.410425 150.476336 
L 216.124808 170.047032 
L 216.449527 173.426018 
L 216.579415 173.661729 
L 216.709303 173.272599 
L 216.904134 171.469345 
L 217.16391 166.660623 
L 218.138068 144.534732 
L 218.267956 145.579532 
L 218.462788 149.849223 
L 218.917395 167.632295 
L 219.50189 187.750961 
L 219.891554 194.119681 
L 220.281217 197.011828 
L 220.476049 197.547584 
L 220.605936 197.495414 
L 220.735824 197.035 
L 220.930656 195.426526 
L 221.190432 191.31194 
L 221.580095 180.899171 
L 222.489309 153.770523 
L 222.749085 151.286304 
L 223.008861 150.630888 
L 223.203692 150.106628 
L 223.398524 148.835962 
L 224.177851 141.682095 
L 224.242795 141.81327 
L 224.372683 142.676212 
L 224.632458 146.729204 
L 225.022122 157.414935 
L 226.320999 197.400501 
L 226.515831 198.224146 
L 226.645719 197.891471 
L 226.970438 195.550921 
L 227.295158 193.734849 
L 227.425046 193.602044 
L 227.554934 193.811605 
L 228.139429 195.571531 
L 228.269316 195.154115 
L 228.464148 193.440241 
L 228.788868 187.959583 
L 229.373363 177.906718 
L 229.568194 176.801095 
L 229.698082 176.761702 
L 229.892914 177.364746 
L 230.217633 178.262682 
L 230.347521 177.921653 
L 230.542353 176.117433 
L 230.802128 170.913506 
L 231.256736 155.683925 
L 231.711343 142.107651 
L 231.906175 140.31616 
L 231.971119 140.436899 
L 232.101006 141.725161 
L 232.360782 147.646033 
L 233.010221 163.848354 
L 233.205053 165.147903 
L 233.269997 165.179517 
L 233.399884 164.785674 
L 234.049323 161.590001 
L 234.179211 161.858561 
L 234.568875 163.072839 
L 234.698762 162.320784 
L 234.893594 158.261685 
L 235.15337 144.737045 
L 235.543033 106.044977 
L 236.062584 57.038707 
L 236.192472 54.144 
L 236.257416 54.703692 
L 236.387304 59.819941 
L 236.647079 83.615131 
L 237.556294 183.149612 
L 237.816069 192.661225 
L 238.010901 194.617392 
L 238.075845 194.534207 
L 238.205733 193.565761 
L 238.66034 186.734445 
L 239.050003 182.713757 
L 239.439667 179.615924 
L 239.764386 174.243315 
L 240.283938 165.422499 
L 240.348881 165.294228 
L 240.478769 166.14073 
L 240.673601 170.289854 
L 241.063264 186.320587 
L 241.582815 206.596256 
L 241.842591 210.362456 
L 241.907535 210.552874 
L 241.972479 210.470797 
L 242.102367 209.573311 
L 242.362142 205.533064 
L 243.141469 191.441015 
L 243.271357 190.969527 
L 243.336301 191.042307 
L 243.466189 191.775436 
L 243.725964 195.09681 
L 244.310459 203.23937 
L 244.505291 203.725642 
L 244.635179 203.252564 
L 244.894954 200.972245 
L 245.414505 196.475754 
L 245.674281 195.926013 
L 245.869113 195.979026 
L 246.453608 196.476051 
L 246.713383 197.213522 
L 247.167991 199.560715 
L 247.687542 201.870256 
L 247.947317 202.346425 
L 248.077205 202.300219 
L 248.272037 201.733238 
L 248.531813 199.903776 
L 249.311139 192.89302 
L 249.376083 192.878908 
L 249.505971 193.3367 
L 249.700803 195.248167 
L 250.025522 201.119145 
L 251.194512 225.140354 
L 251.519232 227.47728 
L 251.64912 227.578553 
L 251.779007 227.235004 
L 252.038783 225.475418 
L 252.688222 220.279626 
L 252.753166 220.189954 
L 252.81811 220.239294 
L 252.947998 220.775926 
L 253.207773 223.497688 
L 254.116988 235.438099 
L 254.246876 235.554201 
L 254.376763 235.010321 
L 254.571595 232.868344 
L 254.896315 225.884791 
L 256.195192 192.531406 
L 257.104407 175.565862 
L 257.364183 173.693653 
L 257.559014 173.309341 
L 257.688902 173.389424 
L 258.013622 174.133203 
L 258.792948 176.460494 
L 259.052724 178.710366 
L 259.377443 183.731761 
L 261.455648 221.588365 
L 262.299919 232.051391 
L 262.624638 233.612822 
L 263.014302 234.69145 
L 263.209133 236.201887 
L 263.533853 241.190279 
L 264.183292 252.46883 
L 264.378124 253.374695 
L 264.443068 253.341507 
L 264.572955 252.842884 
L 264.897675 250.03562 
L 265.287338 246.922934 
L 265.48217 246.524204 
L 265.612058 246.819468 
L 265.806889 248.071489 
L 266.196553 252.569492 
L 266.781048 258.868529 
L 267.755206 265.857357 
L 268.209814 273.371656 
L 268.729365 281.382166 
L 268.98914 282.655938 
L 269.119028 282.362324 
L 269.31386 280.829609 
L 269.703523 275.08782 
L 270.288018 266.765952 
L 270.612738 264.864338 
L 271.327121 262.63775 
L 271.716784 258.966656 
L 272.106447 255.970955 
L 272.171391 255.86776 
L 272.236335 255.926697 
L 272.366223 256.569679 
L 272.561055 258.867482 
L 272.950718 267.003662 
L 273.470269 277.268879 
L 273.730045 279.285085 
L 273.859933 279.450096 
L 273.989821 279.178739 
L 274.249596 277.83228 
L 275.028923 273.506277 
L 275.418586 272.419035 
L 276.197913 270.901713 
L 276.912296 268.200205 
L 277.042184 268.201992 
L 277.237015 268.533907 
L 277.626679 269.287097 
L 277.756567 269.243555 
L 277.951398 268.771496 
L 278.341062 266.817804 
L 278.730725 265.184292 
L 278.860613 265.072671 
L 278.990501 265.270492 
L 279.185332 266.187238 
L 279.510052 269.114689 
L 280.094547 274.619537 
L 280.289379 275.135752 
L 280.419266 274.906742 
L 280.614098 273.68652 
L 280.938818 269.791506 
L 281.458369 263.760191 
L 281.588257 263.448463 
L 281.718144 263.881476 
L 281.912976 265.948073 
L 282.302639 273.908994 
L 283.081966 290.601921 
L 283.536573 296.067398 
L 283.861293 297.844133 
L 284.056125 298.041879 
L 284.250956 297.736053 
L 284.770508 296.599293 
L 284.900395 296.659735 
L 285.095227 297.077181 
L 285.48489 298.047816 
L 285.614778 297.950813 
L 285.80961 297.013433 
L 286.069386 294.107466 
L 286.913656 282.777851 
L 287.043544 282.690324 
L 287.173432 283.164057 
L 287.498151 285.781801 
L 287.822871 287.857984 
L 287.887815 287.949775 
L 287.952759 287.898427 
L 288.082646 287.342662 
L 288.342422 284.498618 
L 289.31658 271.05174 
L 289.381524 270.994432 
L 289.446468 271.080209 
L 289.6413 272.093208 
L 290.095907 276.806409 
L 290.550514 280.686933 
L 291.005122 282.605847 
L 291.459729 284.577629 
L 292.433888 289.456285 
L 292.628719 289.586965 
L 292.823551 289.321996 
L 293.213214 288.073924 
L 293.537934 287.232591 
L 293.667822 287.169987 
L 293.797709 287.316828 
L 293.992541 287.932825 
L 294.382204 290.19537 
L 295.356363 296.12433 
L 296.265577 300.378854 
L 296.590297 301.157161 
L 296.785129 301.233596 
L 296.97996 300.91905 
L 297.239736 299.83033 
L 298.084007 295.487495 
L 298.213894 295.622153 
L 298.408726 296.381907 
L 298.863333 299.654582 
L 299.512772 304.028727 
L 300.032324 306.214018 
L 300.421987 307.078114 
L 300.746706 307.355924 
L 301.006482 307.33655 
L 301.266258 307.074839 
L 301.526033 306.472555 
L 301.850753 305.067136 
L 302.370304 301.443047 
L 302.889855 298.201325 
L 303.149631 297.60509 
L 303.279518 297.613825 
L 303.47435 297.961504 
L 303.79907 299.18334 
L 304.64334 303.700254 
L 305.162891 305.904842 
L 305.487611 306.454673 
L 305.682443 306.42901 
L 305.942218 306.051554 
L 306.721545 304.641773 
L 306.981321 304.694315 
L 307.565816 305.01408 
L 307.825591 304.772262 
L 308.864694 303.304498 
L 309.124469 303.366778 
L 309.514133 303.743406 
L 309.96874 304.11177 
L 310.228516 304.013526 
L 310.618179 303.48348 
L 311.007842 303.026595 
L 311.202674 303.008239 
L 311.397506 303.180945 
L 311.722225 303.888132 
L 312.956159 307.246269 
L 313.345823 307.503838 
L 313.995262 307.580674 
L 321.13909 307.584 
L 398.487273 307.584 
L 398.487273 307.584 
" style="fill:none;stroke:#ff7f0e;stroke-linecap:square;stroke-width:1.5;"/>
   </g>
   <g id="patch_103">
    <path d="M 57.6 307.584 
L 57.6 41.472 
" style="fill:none;stroke:#000000;stroke-linecap:square;stroke-linejoin:miter;stroke-width:0.8;"/>
   </g>
   <g id="patch_104">
    <path d="M 414.72 307.584 
L 414.72 41.472 
" style="fill:none;stroke:#000000;stroke-linecap:square;stroke-linejoin:miter;stroke-width:0.8;"/>
   </g>
   <g id="patch_105">
    <path d="M 57.6 307.584 
L 414.72 307.584 
" style="fill:none;stroke:#000000;stroke-linecap:square;stroke-linejoin:miter;stroke-width:0.8;"/>
   </g>
   <g id="patch_106">
    <path d="M 57.6 41.472 
L 414.72 41.472 
" style="fill:none;stroke:#000000;stroke-linecap:square;stroke-linejoin:miter;stroke-width:0.8;"/>
   </g>
  </g>
 </g>
 <defs>
  <clipPath id="p9726e17755">
   <rect height="266.112" width="357.12" x="57.6" y="41.472"/>
  </clipPath>
 </defs>
</svg>
