<?xml version="1.0" encoding="utf-8" standalone="no"?>
<!DOCTYPE svg PUBLIC "-//W3C//DTD SVG 1.1//EN"
  "http://www.w3.org/Graphics/SVG/1.1/DTD/svg11.dtd">
<!-- Created with matplotlib (https://matplotlib.org/) -->
<svg height="345.6pt" version="1.1" viewBox="0 0 460.8 345.6" width="460.8pt" xmlns="http://www.w3.org/2000/svg" xmlns:xlink="http://www.w3.org/1999/xlink">
 <defs>
  <style type="text/css">
*{stroke-linecap:butt;stroke-linejoin:round;}
  </style>
 </defs>
 <g id="figure_1">
  <g id="patch_1">
   <path d="M 0 345.6 
L 460.8 345.6 
L 460.8 0 
L 0 0 
z
" style="fill:#ffffff;"/>
  </g>
  <g id="axes_1">
   <g id="patch_2">
    <path d="M 57.6 307.584 
L 414.72 307.584 
L 414.72 41.472 
L 57.6 41.472 
z
" style="fill:#ffffff;"/>
   </g>
   <g id="patch_3">
    <path clip-path="url(#pda150966d9)" d="M 73.832727 307.584 
L 76.773202 307.584 
L 76.773202 306.025158 
L 73.832727 306.025158 
z
" style="fill:#1f77b4;"/>
   </g>
   <g id="patch_4">
    <path clip-path="url(#pda150966d9)" d="M 76.773202 307.584 
L 79.713663 307.584 
L 79.713663 305.245725 
L 76.773202 305.245725 
z
" style="fill:#1f77b4;"/>
   </g>
   <g id="patch_5">
    <path clip-path="url(#pda150966d9)" d="M 79.713677 307.584 
L 82.654153 307.584 
L 82.654153 300.569209 
L 79.713677 300.569209 
z
" style="fill:#1f77b4;"/>
   </g>
   <g id="patch_6">
    <path clip-path="url(#pda150966d9)" d="M 82.654138 307.584 
L 85.594613 307.584 
L 85.594613 302.128052 
L 82.654138 302.128052 
z
" style="fill:#1f77b4;"/>
   </g>
   <g id="patch_7">
    <path clip-path="url(#pda150966d9)" d="M 85.594628 307.584 
L 88.535103 307.584 
L 88.535103 306.025158 
L 85.594628 306.025158 
z
" style="fill:#1f77b4;"/>
   </g>
   <g id="patch_8">
    <path clip-path="url(#pda150966d9)" d="M 88.535088 307.584 
L 91.475549 307.584 
L 91.475549 306.02515 
L 88.535088 306.02515 
z
" style="fill:#1f77b4;"/>
   </g>
   <g id="patch_9">
    <path clip-path="url(#pda150966d9)" d="M 91.475549 307.584 
L 94.416024 307.584 
L 94.416024 303.686894 
L 91.475549 303.686894 
z
" style="fill:#1f77b4;"/>
   </g>
   <g id="patch_10">
    <path clip-path="url(#pda150966d9)" d="M 94.416038 307.584 
L 97.356513 307.584 
L 97.356513 307.584 
L 94.416038 307.584 
z
" style="fill:#1f77b4;"/>
   </g>
   <g id="patch_11">
    <path clip-path="url(#pda150966d9)" d="M 97.356499 307.584 
L 100.296959 307.584 
L 100.296959 305.245725 
L 97.356499 305.245725 
z
" style="fill:#1f77b4;"/>
   </g>
   <g id="patch_12">
    <path clip-path="url(#pda150966d9)" d="M 100.296959 307.584 
L 103.237435 307.584 
L 103.237435 306.025158 
L 100.296959 306.025158 
z
" style="fill:#1f77b4;"/>
   </g>
   <g id="patch_13">
    <path clip-path="url(#pda150966d9)" d="M 103.237449 307.584 
L 106.177924 307.584 
L 106.177924 306.025158 
L 103.237449 306.025158 
z
" style="fill:#1f77b4;"/>
   </g>
   <g id="patch_14">
    <path clip-path="url(#pda150966d9)" d="M 106.17791 307.584 
L 109.118385 307.584 
L 109.118385 307.584 
L 106.17791 307.584 
z
" style="fill:#1f77b4;"/>
   </g>
   <g id="patch_15">
    <path clip-path="url(#pda150966d9)" d="M 109.118385 307.584 
L 112.058845 307.584 
L 112.058845 307.584 
L 109.118385 307.584 
z
" style="fill:#1f77b4;"/>
   </g>
   <g id="patch_16">
    <path clip-path="url(#pda150966d9)" d="M 112.05886 307.584 
L 114.999335 307.584 
L 114.999335 306.025158 
L 112.05886 306.025158 
z
" style="fill:#1f77b4;"/>
   </g>
   <g id="patch_17">
    <path clip-path="url(#pda150966d9)" d="M 114.99932 307.584 
L 117.939795 307.584 
L 117.939795 306.025158 
L 114.99932 306.025158 
z
" style="fill:#1f77b4;"/>
   </g>
   <g id="patch_18">
    <path clip-path="url(#pda150966d9)" d="M 117.939795 307.584 
L 120.880256 307.584 
L 120.880256 305.245725 
L 117.939795 305.245725 
z
" style="fill:#1f77b4;"/>
   </g>
   <g id="patch_19">
    <path clip-path="url(#pda150966d9)" d="M 120.880271 307.584 
L 123.820746 307.584 
L 123.820746 306.025158 
L 120.880271 306.025158 
z
" style="fill:#1f77b4;"/>
   </g>
   <g id="patch_20">
    <path clip-path="url(#pda150966d9)" d="M 123.820731 307.584 
L 126.761206 307.584 
L 126.761206 306.025158 
L 123.820731 306.025158 
z
" style="fill:#1f77b4;"/>
   </g>
   <g id="patch_21">
    <path clip-path="url(#pda150966d9)" d="M 126.761206 307.584 
L 129.701674 307.584 
L 129.701674 306.025154 
L 126.761206 306.025154 
z
" style="fill:#1f77b4;"/>
   </g>
   <g id="patch_22">
    <path clip-path="url(#pda150966d9)" d="M 129.701681 307.584 
L 132.642149 307.584 
L 132.642149 307.584 
L 129.701681 307.584 
z
" style="fill:#1f77b4;"/>
   </g>
   <g id="patch_23">
    <path clip-path="url(#pda150966d9)" d="M 132.642142 307.584 
L 135.582617 307.584 
L 135.582617 307.584 
L 132.642142 307.584 
z
" style="fill:#1f77b4;"/>
   </g>
   <g id="patch_24">
    <path clip-path="url(#pda150966d9)" d="M 135.582617 307.584 
L 138.523085 307.584 
L 138.523085 306.025154 
L 135.582617 306.025154 
z
" style="fill:#1f77b4;"/>
   </g>
   <g id="patch_25">
    <path clip-path="url(#pda150966d9)" d="M 138.523085 307.584 
L 141.46356 307.584 
L 141.46356 306.025158 
L 138.523085 306.025158 
z
" style="fill:#1f77b4;"/>
   </g>
   <g id="patch_26">
    <path clip-path="url(#pda150966d9)" d="M 141.463567 307.584 
L 144.404035 307.584 
L 144.404035 299.789769 
L 141.463567 299.789769 
z
" style="fill:#1f77b4;"/>
   </g>
   <g id="patch_27">
    <path clip-path="url(#pda150966d9)" d="M 144.404028 307.584 
L 147.344503 307.584 
L 147.344503 291.995576 
L 144.404028 291.995576 
z
" style="fill:#1f77b4;"/>
   </g>
   <g id="patch_28">
    <path clip-path="url(#pda150966d9)" d="M 147.344503 307.584 
L 150.284971 307.584 
L 150.284971 283.421883 
L 147.344503 283.421883 
z
" style="fill:#1f77b4;"/>
   </g>
   <g id="patch_29">
    <path clip-path="url(#pda150966d9)" d="M 150.284978 307.584 
L 153.225446 307.584 
L 153.225446 290.436691 
L 150.284978 290.436691 
z
" style="fill:#1f77b4;"/>
   </g>
   <g id="patch_30">
    <path clip-path="url(#pda150966d9)" d="M 153.225438 307.584 
L 156.165914 307.584 
L 156.165914 287.319049 
L 153.225438 287.319049 
z
" style="fill:#1f77b4;"/>
   </g>
   <g id="patch_31">
    <path clip-path="url(#pda150966d9)" d="M 156.165914 307.584 
L 159.106381 307.584 
L 159.106381 281.083614 
L 156.165914 281.083614 
z
" style="fill:#1f77b4;"/>
   </g>
   <g id="patch_32">
    <path clip-path="url(#pda150966d9)" d="M 159.106381 307.584 
L 162.046856 307.584 
L 162.046856 274.068889 
L 159.106381 274.068889 
z
" style="fill:#1f77b4;"/>
   </g>
   <g id="patch_33">
    <path clip-path="url(#pda150966d9)" d="M 162.046864 307.584 
L 164.987332 307.584 
L 164.987332 271.730536 
L 162.046864 271.730536 
z
" style="fill:#1f77b4;"/>
   </g>
   <g id="patch_34">
    <path clip-path="url(#pda150966d9)" d="M 164.987324 307.584 
L 167.927792 307.584 
L 167.927792 268.612844 
L 164.987324 268.612844 
z
" style="fill:#1f77b4;"/>
   </g>
   <g id="patch_35">
    <path clip-path="url(#pda150966d9)" d="M 167.927792 307.584 
L 170.868267 307.584 
L 170.868267 281.08368 
L 167.927792 281.08368 
z
" style="fill:#1f77b4;"/>
   </g>
   <g id="patch_36">
    <path clip-path="url(#pda150966d9)" d="M 170.868274 307.584 
L 173.808742 307.584 
L 173.808742 276.407075 
L 170.868274 276.407075 
z
" style="fill:#1f77b4;"/>
   </g>
   <g id="patch_37">
    <path clip-path="url(#pda150966d9)" d="M 173.808735 307.584 
L 176.74921 307.584 
L 176.74921 274.068889 
L 173.808735 274.068889 
z
" style="fill:#1f77b4;"/>
   </g>
   <g id="patch_38">
    <path clip-path="url(#pda150966d9)" d="M 176.74921 307.584 
L 179.689678 307.584 
L 179.689678 276.407075 
L 176.74921 276.407075 
z
" style="fill:#1f77b4;"/>
   </g>
   <g id="patch_39">
    <path clip-path="url(#pda150966d9)" d="M 179.689678 307.584 
L 182.630153 307.584 
L 182.630153 253.024517 
L 179.689678 253.024517 
z
" style="fill:#1f77b4;"/>
   </g>
   <g id="patch_40">
    <path clip-path="url(#pda150966d9)" d="M 182.63016 307.584 
L 185.570628 307.584 
L 185.570628 261.598036 
L 182.63016 261.598036 
z
" style="fill:#1f77b4;"/>
   </g>
   <g id="patch_41">
    <path clip-path="url(#pda150966d9)" d="M 185.570621 307.584 
L 188.511092 307.584 
L 188.511092 260.818671 
L 185.570621 260.818671 
z
" style="fill:#1f77b4;"/>
   </g>
   <g id="patch_42">
    <path clip-path="url(#pda150966d9)" d="M 188.511089 307.584 
L 191.45156 307.584 
L 191.45156 253.803871 
L 188.511089 253.803871 
z
" style="fill:#1f77b4;"/>
   </g>
   <g id="patch_43">
    <path clip-path="url(#pda150966d9)" d="M 191.451564 307.584 
L 194.392032 307.584 
L 194.392032 265.495152 
L 191.451564 265.495152 
z
" style="fill:#1f77b4;"/>
   </g>
   <g id="patch_44">
    <path clip-path="url(#pda150966d9)" d="M 194.392032 307.584 
L 197.332503 307.584 
L 197.332503 263.156937 
L 194.392032 263.156937 
z
" style="fill:#1f77b4;"/>
   </g>
   <g id="patch_45">
    <path clip-path="url(#pda150966d9)" d="M 197.332499 307.584 
L 200.272971 307.584 
L 200.272971 253.024449 
L 197.332499 253.024449 
z
" style="fill:#1f77b4;"/>
   </g>
   <g id="patch_46">
    <path clip-path="url(#pda150966d9)" d="M 200.272974 307.584 
L 203.213446 307.584 
L 203.213446 253.803871 
L 200.272974 253.803871 
z
" style="fill:#1f77b4;"/>
   </g>
   <g id="patch_47">
    <path clip-path="url(#pda150966d9)" d="M 203.213442 307.584 
L 206.153914 307.584 
L 206.153914 232.759473 
L 203.213442 232.759473 
z
" style="fill:#1f77b4;"/>
   </g>
   <g id="patch_48">
    <path clip-path="url(#pda150966d9)" d="M 206.153917 307.584 
L 209.094389 307.584 
L 209.094389 230.421207 
L 206.153917 230.421207 
z
" style="fill:#1f77b4;"/>
   </g>
   <g id="patch_49">
    <path clip-path="url(#pda150966d9)" d="M 209.094389 307.584 
L 212.034857 307.584 
L 212.034857 249.127266 
L 209.094389 249.127266 
z
" style="fill:#1f77b4;"/>
   </g>
   <g id="patch_50">
    <path clip-path="url(#pda150966d9)" d="M 212.034853 307.584 
L 214.975324 307.584 
L 214.975324 235.09774 
L 212.034853 235.09774 
z
" style="fill:#1f77b4;"/>
   </g>
   <g id="patch_51">
    <path clip-path="url(#pda150966d9)" d="M 214.975328 307.584 
L 217.9158 307.584 
L 217.9158 231.200629 
L 214.975328 231.200629 
z
" style="fill:#1f77b4;"/>
   </g>
   <g id="patch_52">
    <path clip-path="url(#pda150966d9)" d="M 217.9158 307.584 
L 220.856271 307.584 
L 220.856271 217.950452 
L 217.9158 217.950452 
z
" style="fill:#1f77b4;"/>
   </g>
   <g id="patch_53">
    <path clip-path="url(#pda150966d9)" d="M 220.856271 307.584 
L 223.796742 307.584 
L 223.796742 214.053341 
L 220.856271 214.053341 
z
" style="fill:#1f77b4;"/>
   </g>
   <g id="patch_54">
    <path clip-path="url(#pda150966d9)" d="M 223.796742 307.584 
L 226.737212 307.584 
L 226.737212 179.758687 
L 223.796742 179.758687 
z
" style="fill:#1f77b4;"/>
   </g>
   <g id="patch_55">
    <path clip-path="url(#pda150966d9)" d="M 226.737212 307.584 
L 229.677684 307.584 
L 229.677684 185.994144 
L 226.737212 185.994144 
z
" style="fill:#1f77b4;"/>
   </g>
   <g id="patch_56">
    <path clip-path="url(#pda150966d9)" d="M 229.677684 307.584 
L 232.618154 307.584 
L 232.618154 202.361977 
L 229.677684 202.361977 
z
" style="fill:#1f77b4;"/>
   </g>
   <g id="patch_57">
    <path clip-path="url(#pda150966d9)" d="M 232.618154 307.584 
L 235.558626 307.584 
L 235.558626 167.288012 
L 232.618154 167.288012 
z
" style="fill:#1f77b4;"/>
   </g>
   <g id="patch_58">
    <path clip-path="url(#pda150966d9)" d="M 235.558625 307.584 
L 238.499095 307.584 
L 238.499095 203.920821 
L 235.558625 203.920821 
z
" style="fill:#1f77b4;"/>
   </g>
   <g id="patch_59">
    <path clip-path="url(#pda150966d9)" d="M 238.499096 307.584 
L 241.439567 307.584 
L 241.439567 193.788348 
L 238.499096 193.788348 
z
" style="fill:#1f77b4;"/>
   </g>
   <g id="patch_60">
    <path clip-path="url(#pda150966d9)" d="M 241.439567 307.584 
L 244.380038 307.584 
L 244.380038 172.743946 
L 241.439567 172.743946 
z
" style="fill:#1f77b4;"/>
   </g>
   <g id="patch_61">
    <path clip-path="url(#pda150966d9)" d="M 244.380038 307.584 
L 247.320509 307.584 
L 247.320509 122.081498 
L 244.380038 122.081498 
z
" style="fill:#1f77b4;"/>
   </g>
   <g id="patch_62">
    <path clip-path="url(#pda150966d9)" d="M 247.320509 307.584 
L 250.26098 307.584 
L 250.26098 160.273179 
L 247.320509 160.273179 
z
" style="fill:#1f77b4;"/>
   </g>
   <g id="patch_63">
    <path clip-path="url(#pda150966d9)" d="M 250.260979 307.584 
L 253.20145 307.584 
L 253.20145 192.229503 
L 250.260979 192.229503 
z
" style="fill:#1f77b4;"/>
   </g>
   <g id="patch_64">
    <path clip-path="url(#pda150966d9)" d="M 253.20145 307.584 
L 256.141921 307.584 
L 256.141921 179.758727 
L 253.20145 179.758727 
z
" style="fill:#1f77b4;"/>
   </g>
   <g id="patch_65">
    <path clip-path="url(#pda150966d9)" d="M 256.141921 307.584 
L 259.082393 307.584 
L 259.082393 191.450099 
L 256.141921 191.450099 
z
" style="fill:#1f77b4;"/>
   </g>
   <g id="patch_66">
    <path clip-path="url(#pda150966d9)" d="M 259.082393 307.584 
L 262.022864 307.584 
L 262.022864 198.464898 
L 259.082393 198.464898 
z
" style="fill:#1f77b4;"/>
   </g>
   <g id="patch_67">
    <path clip-path="url(#pda150966d9)" d="M 262.022864 307.584 
L 264.963334 307.584 
L 264.963334 215.612129 
L 262.022864 215.612129 
z
" style="fill:#1f77b4;"/>
   </g>
   <g id="patch_68">
    <path clip-path="url(#pda150966d9)" d="M 264.963334 307.584 
L 267.903805 307.584 
L 267.903805 185.214722 
L 264.963334 185.214722 
z
" style="fill:#1f77b4;"/>
   </g>
   <g id="patch_69">
    <path clip-path="url(#pda150966d9)" d="M 267.903805 307.584 
L 270.844277 307.584 
L 270.844277 221.068141 
L 267.903805 221.068141 
z
" style="fill:#1f77b4;"/>
   </g>
   <g id="patch_70">
    <path clip-path="url(#pda150966d9)" d="M 270.844279 307.584 
L 273.784748 307.584 
L 273.784748 238.215385 
L 270.844279 238.215385 
z
" style="fill:#1f77b4;"/>
   </g>
   <g id="patch_71">
    <path clip-path="url(#pda150966d9)" d="M 273.784746 307.584 
L 276.725218 307.584 
L 276.725218 244.450805 
L 273.784746 244.450805 
z
" style="fill:#1f77b4;"/>
   </g>
   <g id="patch_72">
    <path clip-path="url(#pda150966d9)" d="M 276.725218 307.584 
L 279.665689 307.584 
L 279.665689 250.686183 
L 276.725218 250.686183 
z
" style="fill:#1f77b4;"/>
   </g>
   <g id="patch_73">
    <path clip-path="url(#pda150966d9)" d="M 279.665686 307.584 
L 282.606157 307.584 
L 282.606157 256.142138 
L 279.665686 256.142138 
z
" style="fill:#1f77b4;"/>
   </g>
   <g id="patch_74">
    <path clip-path="url(#pda150966d9)" d="M 282.606161 307.584 
L 285.546629 307.584 
L 285.546629 256.142074 
L 282.606161 256.142074 
z
" style="fill:#1f77b4;"/>
   </g>
   <g id="patch_75">
    <path clip-path="url(#pda150966d9)" d="M 285.546629 307.584 
L 288.4871 307.584 
L 288.4871 254.583293 
L 285.546629 254.583293 
z
" style="fill:#1f77b4;"/>
   </g>
   <g id="patch_76">
    <path clip-path="url(#pda150966d9)" d="M 288.487096 307.584 
L 291.427568 307.584 
L 291.427568 264.715781 
L 288.487096 264.715781 
z
" style="fill:#1f77b4;"/>
   </g>
   <g id="patch_77">
    <path clip-path="url(#pda150966d9)" d="M 291.427571 307.584 
L 294.368043 307.584 
L 294.368043 275.627692 
L 291.427571 275.627692 
z
" style="fill:#1f77b4;"/>
   </g>
   <g id="patch_78">
    <path clip-path="url(#pda150966d9)" d="M 294.368039 307.584 
L 297.308511 307.584 
L 297.308511 271.730581 
L 294.368039 271.730581 
z
" style="fill:#1f77b4;"/>
   </g>
   <g id="patch_79">
    <path clip-path="url(#pda150966d9)" d="M 297.308514 307.584 
L 300.248986 307.584 
L 300.248986 283.421913 
L 297.308514 283.421913 
z
" style="fill:#1f77b4;"/>
   </g>
   <g id="patch_80">
    <path clip-path="url(#pda150966d9)" d="M 300.248982 307.584 
L 303.189454 307.584 
L 303.189454 288.098446 
L 300.248982 288.098446 
z
" style="fill:#1f77b4;"/>
   </g>
   <g id="patch_81">
    <path clip-path="url(#pda150966d9)" d="M 303.189457 307.584 
L 306.129925 307.584 
L 306.129925 291.216114 
L 303.189457 291.216114 
z
" style="fill:#1f77b4;"/>
   </g>
   <g id="patch_82">
    <path clip-path="url(#pda150966d9)" d="M 306.129925 307.584 
L 309.0704 307.584 
L 309.0704 294.33384 
L 306.129925 294.33384 
z
" style="fill:#1f77b4;"/>
   </g>
   <g id="patch_83">
    <path clip-path="url(#pda150966d9)" d="M 309.0704 307.584 
L 312.010868 307.584 
L 312.010868 292.774961 
L 309.0704 292.774961 
z
" style="fill:#1f77b4;"/>
   </g>
   <g id="patch_84">
    <path clip-path="url(#pda150966d9)" d="M 312.010875 307.584 
L 314.951343 307.584 
L 314.951343 299.010346 
L 312.010875 299.010346 
z
" style="fill:#1f77b4;"/>
   </g>
   <g id="patch_85">
    <path clip-path="url(#pda150966d9)" d="M 314.951336 307.584 
L 317.891811 307.584 
L 317.891811 303.686894 
L 314.951336 303.686894 
z
" style="fill:#1f77b4;"/>
   </g>
   <g id="patch_86">
    <path clip-path="url(#pda150966d9)" d="M 317.891811 307.584 
L 320.832279 307.584 
L 320.832279 302.128038 
L 317.891811 302.128038 
z
" style="fill:#1f77b4;"/>
   </g>
   <g id="patch_87">
    <path clip-path="url(#pda150966d9)" d="M 320.832279 307.584 
L 323.772754 307.584 
L 323.772754 302.907473 
L 320.832279 302.907473 
z
" style="fill:#1f77b4;"/>
   </g>
   <g id="patch_88">
    <path clip-path="url(#pda150966d9)" d="M 323.772761 307.584 
L 326.713229 307.584 
L 326.713229 302.907461 
L 323.772761 302.907461 
z
" style="fill:#1f77b4;"/>
   </g>
   <g id="patch_89">
    <path clip-path="url(#pda150966d9)" d="M 326.713222 307.584 
L 329.653697 307.584 
L 329.653697 301.34863 
L 326.713222 301.34863 
z
" style="fill:#1f77b4;"/>
   </g>
   <g id="patch_90">
    <path clip-path="url(#pda150966d9)" d="M 329.653697 307.584 
L 332.594165 307.584 
L 332.594165 306.025154 
L 329.653697 306.025154 
z
" style="fill:#1f77b4;"/>
   </g>
   <g id="patch_91">
    <path clip-path="url(#pda150966d9)" d="M 332.594172 307.584 
L 335.53464 307.584 
L 335.53464 304.466308 
L 332.594172 304.466308 
z
" style="fill:#1f77b4;"/>
   </g>
   <g id="patch_92">
    <path clip-path="url(#pda150966d9)" d="M 335.534632 307.584 
L 338.475107 307.584 
L 338.475107 307.584 
L 335.534632 307.584 
z
" style="fill:#1f77b4;"/>
   </g>
   <g id="patch_93">
    <path clip-path="url(#pda150966d9)" d="M 338.475107 307.584 
L 341.415575 307.584 
L 341.415575 306.025154 
L 338.475107 306.025154 
z
" style="fill:#1f77b4;"/>
   </g>
   <g id="patch_94">
    <path clip-path="url(#pda150966d9)" d="M 341.415575 307.584 
L 344.35605 307.584 
L 344.35605 302.907473 
L 341.415575 302.907473 
z
" style="fill:#1f77b4;"/>
   </g>
   <g id="patch_95">
    <path clip-path="url(#pda150966d9)" d="M 344.356058 307.584 
L 347.296526 307.584 
L 347.296526 304.466308 
L 344.356058 304.466308 
z
" style="fill:#1f77b4;"/>
   </g>
   <g id="patch_96">
    <path clip-path="url(#pda150966d9)" d="M 347.296518 307.584 
L 350.236986 307.584 
L 350.236986 302.907461 
L 347.296518 302.907461 
z
" style="fill:#1f77b4;"/>
   </g>
   <g id="patch_97">
    <path clip-path="url(#pda150966d9)" d="M 350.236986 307.584 
L 353.177461 307.584 
L 353.177461 304.466315 
L 350.236986 304.466315 
z
" style="fill:#1f77b4;"/>
   </g>
   <g id="patch_98">
    <path clip-path="url(#pda150966d9)" d="M 353.177468 307.584 
L 356.117936 307.584 
L 356.117936 300.569192 
L 353.177468 300.569192 
z
" style="fill:#1f77b4;"/>
   </g>
   <g id="patch_99">
    <path clip-path="url(#pda150966d9)" d="M 356.117929 307.584 
L 359.058404 307.584 
L 359.058404 302.907473 
L 356.117929 302.907473 
z
" style="fill:#1f77b4;"/>
   </g>
   <g id="patch_100">
    <path clip-path="url(#pda150966d9)" d="M 359.058404 307.584 
L 361.998872 307.584 
L 361.998872 299.789769 
L 359.058404 299.789769 
z
" style="fill:#1f77b4;"/>
   </g>
   <g id="patch_101">
    <path clip-path="url(#pda150966d9)" d="M 361.998872 307.584 
L 364.939347 307.584 
L 364.939347 304.466315 
L 361.998872 304.466315 
z
" style="fill:#1f77b4;"/>
   </g>
   <g id="patch_102">
    <path clip-path="url(#pda150966d9)" d="M 364.939354 307.584 
L 367.879822 307.584 
L 367.879822 304.466308 
L 364.939354 304.466308 
z
" style="fill:#1f77b4;"/>
   </g>
   <g id="matplotlib.axis_1">
    <g id="xtick_1">
     <g id="line2d_1">
      <defs>
       <path d="M 0 0 
L 0 3.5 
" id="m54ec14cbe7" style="stroke:#000000;stroke-width:0.8;"/>
      </defs>
      <g>
       <use style="stroke:#000000;stroke-width:0.8;" x="62.60683" xlink:href="#m54ec14cbe7" y="307.584"/>
      </g>
     </g>
     <g id="text_1">
      <!-- −3 -->
      <defs>
       <path d="M 10.59375 35.5 
L 73.1875 35.5 
L 73.1875 27.203125 
L 10.59375 27.203125 
z
" id="DejaVuSans-8722"/>
       <path d="M 40.578125 39.3125 
Q 47.65625 37.796875 51.625 33 
Q 55.609375 28.21875 55.609375 21.1875 
Q 55.609375 10.40625 48.1875 4.484375 
Q 40.765625 -1.421875 27.09375 -1.421875 
Q 22.515625 -1.421875 17.65625 -0.515625 
Q 12.796875 0.390625 7.625 2.203125 
L 7.625 11.71875 
Q 11.71875 9.328125 16.59375 8.109375 
Q 21.484375 6.890625 26.8125 6.890625 
Q 36.078125 6.890625 40.9375 10.546875 
Q 45.796875 14.203125 45.796875 21.1875 
Q 45.796875 27.640625 41.28125 31.265625 
Q 36.765625 34.90625 28.71875 34.90625 
L 20.21875 34.90625 
L 20.21875 43.015625 
L 29.109375 43.015625 
Q 36.375 43.015625 40.234375 45.921875 
Q 44.09375 48.828125 44.09375 54.296875 
Q 44.09375 59.90625 40.109375 62.90625 
Q 36.140625 65.921875 28.71875 65.921875 
Q 24.65625 65.921875 20.015625 65.03125 
Q 15.375 64.15625 9.8125 62.3125 
L 9.8125 71.09375 
Q 15.4375 72.65625 20.34375 73.4375 
Q 25.25 74.21875 29.59375 74.21875 
Q 40.828125 74.21875 47.359375 69.109375 
Q 53.90625 64.015625 53.90625 55.328125 
Q 53.90625 49.265625 50.4375 45.09375 
Q 46.96875 40.921875 40.578125 39.3125 
z
" id="DejaVuSans-51"/>
      </defs>
      <g transform="translate(50.075971 327.501344)scale(0.17 -0.17)">
       <use xlink:href="#DejaVuSans-8722"/>
       <use x="83.789062" xlink:href="#DejaVuSans-51"/>
      </g>
     </g>
    </g>
    <g id="xtick_2">
     <g id="line2d_2">
      <g>
       <use style="stroke:#000000;stroke-width:0.8;" x="123.681554" xlink:href="#m54ec14cbe7" y="307.584"/>
      </g>
     </g>
     <g id="text_2">
      <!-- −2 -->
      <defs>
       <path d="M 19.1875 8.296875 
L 53.609375 8.296875 
L 53.609375 0 
L 7.328125 0 
L 7.328125 8.296875 
Q 12.9375 14.109375 22.625 23.890625 
Q 32.328125 33.6875 34.8125 36.53125 
Q 39.546875 41.84375 41.421875 45.53125 
Q 43.3125 49.21875 43.3125 52.78125 
Q 43.3125 58.59375 39.234375 62.25 
Q 35.15625 65.921875 28.609375 65.921875 
Q 23.96875 65.921875 18.8125 64.3125 
Q 13.671875 62.703125 7.8125 59.421875 
L 7.8125 69.390625 
Q 13.765625 71.78125 18.9375 73 
Q 24.125 74.21875 28.421875 74.21875 
Q 39.75 74.21875 46.484375 68.546875 
Q 53.21875 62.890625 53.21875 53.421875 
Q 53.21875 48.921875 51.53125 44.890625 
Q 49.859375 40.875 45.40625 35.40625 
Q 44.1875 33.984375 37.640625 27.21875 
Q 31.109375 20.453125 19.1875 8.296875 
z
" id="DejaVuSans-50"/>
      </defs>
      <g transform="translate(111.150694 327.501344)scale(0.17 -0.17)">
       <use xlink:href="#DejaVuSans-8722"/>
       <use x="83.789062" xlink:href="#DejaVuSans-50"/>
      </g>
     </g>
    </g>
    <g id="xtick_3">
     <g id="line2d_3">
      <g>
       <use style="stroke:#000000;stroke-width:0.8;" x="184.756277" xlink:href="#m54ec14cbe7" y="307.584"/>
      </g>
     </g>
     <g id="text_3">
      <!-- −1 -->
      <defs>
       <path d="M 12.40625 8.296875 
L 28.515625 8.296875 
L 28.515625 63.921875 
L 10.984375 60.40625 
L 10.984375 69.390625 
L 28.421875 72.90625 
L 38.28125 72.90625 
L 38.28125 8.296875 
L 54.390625 8.296875 
L 54.390625 0 
L 12.40625 0 
z
" id="DejaVuSans-49"/>
      </defs>
      <g transform="translate(172.225418 327.501344)scale(0.17 -0.17)">
       <use xlink:href="#DejaVuSans-8722"/>
       <use x="83.789062" xlink:href="#DejaVuSans-49"/>
      </g>
     </g>
    </g>
    <g id="xtick_4">
     <g id="line2d_4">
      <g>
       <use style="stroke:#000000;stroke-width:0.8;" x="245.831001" xlink:href="#m54ec14cbe7" y="307.584"/>
      </g>
     </g>
     <g id="text_4">
      <!-- 0 -->
      <defs>
       <path d="M 31.78125 66.40625 
Q 24.171875 66.40625 20.328125 58.90625 
Q 16.5 51.421875 16.5 36.375 
Q 16.5 21.390625 20.328125 13.890625 
Q 24.171875 6.390625 31.78125 6.390625 
Q 39.453125 6.390625 43.28125 13.890625 
Q 47.125 21.390625 47.125 36.375 
Q 47.125 51.421875 43.28125 58.90625 
Q 39.453125 66.40625 31.78125 66.40625 
z
M 31.78125 74.21875 
Q 44.046875 74.21875 50.515625 64.515625 
Q 56.984375 54.828125 56.984375 36.375 
Q 56.984375 17.96875 50.515625 8.265625 
Q 44.046875 -1.421875 31.78125 -1.421875 
Q 19.53125 -1.421875 13.0625 8.265625 
Q 6.59375 17.96875 6.59375 36.375 
Q 6.59375 54.828125 13.0625 64.515625 
Q 19.53125 74.21875 31.78125 74.21875 
z
" id="DejaVuSans-48"/>
      </defs>
      <g transform="translate(240.422876 327.501344)scale(0.17 -0.17)">
       <use xlink:href="#DejaVuSans-48"/>
      </g>
     </g>
    </g>
    <g id="xtick_5">
     <g id="line2d_5">
      <g>
       <use style="stroke:#000000;stroke-width:0.8;" x="306.905725" xlink:href="#m54ec14cbe7" y="307.584"/>
      </g>
     </g>
     <g id="text_5">
      <!-- 1 -->
      <g transform="translate(301.4976 327.501344)scale(0.17 -0.17)">
       <use xlink:href="#DejaVuSans-49"/>
      </g>
     </g>
    </g>
    <g id="xtick_6">
     <g id="line2d_6">
      <g>
       <use style="stroke:#000000;stroke-width:0.8;" x="367.980448" xlink:href="#m54ec14cbe7" y="307.584"/>
      </g>
     </g>
     <g id="text_6">
      <!-- 2 -->
      <g transform="translate(362.572323 327.501344)scale(0.17 -0.17)">
       <use xlink:href="#DejaVuSans-50"/>
      </g>
     </g>
    </g>
    <g id="text_7">
     <!-- Position in Radian -->
     <defs>
      <path d="M 19.671875 64.796875 
L 19.671875 37.40625 
L 32.078125 37.40625 
Q 38.96875 37.40625 42.71875 40.96875 
Q 46.484375 44.53125 46.484375 51.125 
Q 46.484375 57.671875 42.71875 61.234375 
Q 38.96875 64.796875 32.078125 64.796875 
z
M 9.8125 72.90625 
L 32.078125 72.90625 
Q 44.34375 72.90625 50.609375 67.359375 
Q 56.890625 61.8125 56.890625 51.125 
Q 56.890625 40.328125 50.609375 34.8125 
Q 44.34375 29.296875 32.078125 29.296875 
L 19.671875 29.296875 
L 19.671875 0 
L 9.8125 0 
z
" id="DejaVuSans-80"/>
      <path d="M 30.609375 48.390625 
Q 23.390625 48.390625 19.1875 42.75 
Q 14.984375 37.109375 14.984375 27.296875 
Q 14.984375 17.484375 19.15625 11.84375 
Q 23.34375 6.203125 30.609375 6.203125 
Q 37.796875 6.203125 41.984375 11.859375 
Q 46.1875 17.53125 46.1875 27.296875 
Q 46.1875 37.015625 41.984375 42.703125 
Q 37.796875 48.390625 30.609375 48.390625 
z
M 30.609375 56 
Q 42.328125 56 49.015625 48.375 
Q 55.71875 40.765625 55.71875 27.296875 
Q 55.71875 13.875 49.015625 6.21875 
Q 42.328125 -1.421875 30.609375 -1.421875 
Q 18.84375 -1.421875 12.171875 6.21875 
Q 5.515625 13.875 5.515625 27.296875 
Q 5.515625 40.765625 12.171875 48.375 
Q 18.84375 56 30.609375 56 
z
" id="DejaVuSans-111"/>
      <path d="M 44.28125 53.078125 
L 44.28125 44.578125 
Q 40.484375 46.53125 36.375 47.5 
Q 32.28125 48.484375 27.875 48.484375 
Q 21.1875 48.484375 17.84375 46.4375 
Q 14.5 44.390625 14.5 40.28125 
Q 14.5 37.15625 16.890625 35.375 
Q 19.28125 33.59375 26.515625 31.984375 
L 29.59375 31.296875 
Q 39.15625 29.25 43.1875 25.515625 
Q 47.21875 21.78125 47.21875 15.09375 
Q 47.21875 7.46875 41.1875 3.015625 
Q 35.15625 -1.421875 24.609375 -1.421875 
Q 20.21875 -1.421875 15.453125 -0.5625 
Q 10.6875 0.296875 5.421875 2 
L 5.421875 11.28125 
Q 10.40625 8.6875 15.234375 7.390625 
Q 20.0625 6.109375 24.8125 6.109375 
Q 31.15625 6.109375 34.5625 8.28125 
Q 37.984375 10.453125 37.984375 14.40625 
Q 37.984375 18.0625 35.515625 20.015625 
Q 33.0625 21.96875 24.703125 23.78125 
L 21.578125 24.515625 
Q 13.234375 26.265625 9.515625 29.90625 
Q 5.8125 33.546875 5.8125 39.890625 
Q 5.8125 47.609375 11.28125 51.796875 
Q 16.75 56 26.8125 56 
Q 31.78125 56 36.171875 55.265625 
Q 40.578125 54.546875 44.28125 53.078125 
z
" id="DejaVuSans-115"/>
      <path d="M 9.421875 54.6875 
L 18.40625 54.6875 
L 18.40625 0 
L 9.421875 0 
z
M 9.421875 75.984375 
L 18.40625 75.984375 
L 18.40625 64.59375 
L 9.421875 64.59375 
z
" id="DejaVuSans-105"/>
      <path d="M 18.3125 70.21875 
L 18.3125 54.6875 
L 36.8125 54.6875 
L 36.8125 47.703125 
L 18.3125 47.703125 
L 18.3125 18.015625 
Q 18.3125 11.328125 20.140625 9.421875 
Q 21.96875 7.515625 27.59375 7.515625 
L 36.8125 7.515625 
L 36.8125 0 
L 27.59375 0 
Q 17.1875 0 13.234375 3.875 
Q 9.28125 7.765625 9.28125 18.015625 
L 9.28125 47.703125 
L 2.6875 47.703125 
L 2.6875 54.6875 
L 9.28125 54.6875 
L 9.28125 70.21875 
z
" id="DejaVuSans-116"/>
      <path d="M 54.890625 33.015625 
L 54.890625 0 
L 45.90625 0 
L 45.90625 32.71875 
Q 45.90625 40.484375 42.875 44.328125 
Q 39.84375 48.1875 33.796875 48.1875 
Q 26.515625 48.1875 22.3125 43.546875 
Q 18.109375 38.921875 18.109375 30.90625 
L 18.109375 0 
L 9.078125 0 
L 9.078125 54.6875 
L 18.109375 54.6875 
L 18.109375 46.1875 
Q 21.34375 51.125 25.703125 53.5625 
Q 30.078125 56 35.796875 56 
Q 45.21875 56 50.046875 50.171875 
Q 54.890625 44.34375 54.890625 33.015625 
z
" id="DejaVuSans-110"/>
      <path id="DejaVuSans-32"/>
      <path d="M 44.390625 34.1875 
Q 47.5625 33.109375 50.5625 29.59375 
Q 53.5625 26.078125 56.59375 19.921875 
L 66.609375 0 
L 56 0 
L 46.6875 18.703125 
Q 43.0625 26.03125 39.671875 28.421875 
Q 36.28125 30.8125 30.421875 30.8125 
L 19.671875 30.8125 
L 19.671875 0 
L 9.8125 0 
L 9.8125 72.90625 
L 32.078125 72.90625 
Q 44.578125 72.90625 50.734375 67.671875 
Q 56.890625 62.453125 56.890625 51.90625 
Q 56.890625 45.015625 53.6875 40.46875 
Q 50.484375 35.9375 44.390625 34.1875 
z
M 19.671875 64.796875 
L 19.671875 38.921875 
L 32.078125 38.921875 
Q 39.203125 38.921875 42.84375 42.21875 
Q 46.484375 45.515625 46.484375 51.90625 
Q 46.484375 58.296875 42.84375 61.546875 
Q 39.203125 64.796875 32.078125 64.796875 
z
" id="DejaVuSans-82"/>
      <path d="M 34.28125 27.484375 
Q 23.390625 27.484375 19.1875 25 
Q 14.984375 22.515625 14.984375 16.5 
Q 14.984375 11.71875 18.140625 8.90625 
Q 21.296875 6.109375 26.703125 6.109375 
Q 34.1875 6.109375 38.703125 11.40625 
Q 43.21875 16.703125 43.21875 25.484375 
L 43.21875 27.484375 
z
M 52.203125 31.203125 
L 52.203125 0 
L 43.21875 0 
L 43.21875 8.296875 
Q 40.140625 3.328125 35.546875 0.953125 
Q 30.953125 -1.421875 24.3125 -1.421875 
Q 15.921875 -1.421875 10.953125 3.296875 
Q 6 8.015625 6 15.921875 
Q 6 25.140625 12.171875 29.828125 
Q 18.359375 34.515625 30.609375 34.515625 
L 43.21875 34.515625 
L 43.21875 35.40625 
Q 43.21875 41.609375 39.140625 45 
Q 35.0625 48.390625 27.6875 48.390625 
Q 23 48.390625 18.546875 47.265625 
Q 14.109375 46.140625 10.015625 43.890625 
L 10.015625 52.203125 
Q 14.9375 54.109375 19.578125 55.046875 
Q 24.21875 56 28.609375 56 
Q 40.484375 56 46.34375 49.84375 
Q 52.203125 43.703125 52.203125 31.203125 
z
" id="DejaVuSans-97"/>
      <path d="M 45.40625 46.390625 
L 45.40625 75.984375 
L 54.390625 75.984375 
L 54.390625 0 
L 45.40625 0 
L 45.40625 8.203125 
Q 42.578125 3.328125 38.25 0.953125 
Q 33.9375 -1.421875 27.875 -1.421875 
Q 17.96875 -1.421875 11.734375 6.484375 
Q 5.515625 14.40625 5.515625 27.296875 
Q 5.515625 40.1875 11.734375 48.09375 
Q 17.96875 56 27.875 56 
Q 33.9375 56 38.25 53.625 
Q 42.578125 51.265625 45.40625 46.390625 
z
M 14.796875 27.296875 
Q 14.796875 17.390625 18.875 11.75 
Q 22.953125 6.109375 30.078125 6.109375 
Q 37.203125 6.109375 41.296875 11.75 
Q 45.40625 17.390625 45.40625 27.296875 
Q 45.40625 37.203125 41.296875 42.84375 
Q 37.203125 48.484375 30.078125 48.484375 
Q 22.953125 48.484375 18.875 42.84375 
Q 14.796875 37.203125 14.796875 27.296875 
z
" id="DejaVuSans-100"/>
     </defs>
     <g transform="translate(102.024844 357.832125)scale(0.3 -0.3)">
      <use xlink:href="#DejaVuSans-80"/>
      <use x="60.255859" xlink:href="#DejaVuSans-111"/>
      <use x="121.4375" xlink:href="#DejaVuSans-115"/>
      <use x="173.537109" xlink:href="#DejaVuSans-105"/>
      <use x="201.320312" xlink:href="#DejaVuSans-116"/>
      <use x="240.529297" xlink:href="#DejaVuSans-105"/>
      <use x="268.3125" xlink:href="#DejaVuSans-111"/>
      <use x="329.494141" xlink:href="#DejaVuSans-110"/>
      <use x="392.873047" xlink:href="#DejaVuSans-32"/>
      <use x="424.660156" xlink:href="#DejaVuSans-105"/>
      <use x="452.443359" xlink:href="#DejaVuSans-110"/>
      <use x="515.822266" xlink:href="#DejaVuSans-32"/>
      <use x="547.609375" xlink:href="#DejaVuSans-82"/>
      <use x="617.060547" xlink:href="#DejaVuSans-97"/>
      <use x="678.339844" xlink:href="#DejaVuSans-100"/>
      <use x="741.816406" xlink:href="#DejaVuSans-105"/>
      <use x="769.599609" xlink:href="#DejaVuSans-97"/>
      <use x="830.878906" xlink:href="#DejaVuSans-110"/>
     </g>
    </g>
   </g>
   <g id="matplotlib.axis_2">
    <g id="ytick_1">
     <g id="line2d_7">
      <defs>
       <path d="M 0 0 
L -3.5 0 
" id="mec90e9d55c" style="stroke:#000000;stroke-width:0.8;"/>
      </defs>
      <g>
       <use style="stroke:#000000;stroke-width:0.8;" x="57.6" xlink:href="#mec90e9d55c" y="307.584"/>
      </g>
     </g>
     <g id="text_8">
      <!-- 0.00 -->
      <defs>
       <path d="M 10.6875 12.40625 
L 21 12.40625 
L 21 0 
L 10.6875 0 
z
" id="DejaVuSans-46"/>
      </defs>
      <g transform="translate(12.748438 314.042672)scale(0.17 -0.17)">
       <use xlink:href="#DejaVuSans-48"/>
       <use x="63.623047" xlink:href="#DejaVuSans-46"/>
       <use x="95.410156" xlink:href="#DejaVuSans-48"/>
       <use x="159.033203" xlink:href="#DejaVuSans-48"/>
      </g>
     </g>
    </g>
    <g id="ytick_2">
     <g id="line2d_8">
      <g>
       <use style="stroke:#000000;stroke-width:0.8;" x="57.6" xlink:href="#mec90e9d55c" y="260.67694"/>
      </g>
     </g>
     <g id="text_9">
      <!-- 0.25 -->
      <defs>
       <path d="M 10.796875 72.90625 
L 49.515625 72.90625 
L 49.515625 64.59375 
L 19.828125 64.59375 
L 19.828125 46.734375 
Q 21.96875 47.46875 24.109375 47.828125 
Q 26.265625 48.1875 28.421875 48.1875 
Q 40.625 48.1875 47.75 41.5 
Q 54.890625 34.8125 54.890625 23.390625 
Q 54.890625 11.625 47.5625 5.09375 
Q 40.234375 -1.421875 26.90625 -1.421875 
Q 22.3125 -1.421875 17.546875 -0.640625 
Q 12.796875 0.140625 7.71875 1.703125 
L 7.71875 11.625 
Q 12.109375 9.234375 16.796875 8.0625 
Q 21.484375 6.890625 26.703125 6.890625 
Q 35.15625 6.890625 40.078125 11.328125 
Q 45.015625 15.765625 45.015625 23.390625 
Q 45.015625 31 40.078125 35.4375 
Q 35.15625 39.890625 26.703125 39.890625 
Q 22.75 39.890625 18.8125 39.015625 
Q 14.890625 38.140625 10.796875 36.28125 
z
" id="DejaVuSans-53"/>
      </defs>
      <g transform="translate(12.748438 267.135611)scale(0.17 -0.17)">
       <use xlink:href="#DejaVuSans-48"/>
       <use x="63.623047" xlink:href="#DejaVuSans-46"/>
       <use x="95.410156" xlink:href="#DejaVuSans-50"/>
       <use x="159.033203" xlink:href="#DejaVuSans-53"/>
      </g>
     </g>
    </g>
    <g id="ytick_3">
     <g id="line2d_9">
      <g>
       <use style="stroke:#000000;stroke-width:0.8;" x="57.6" xlink:href="#mec90e9d55c" y="213.769879"/>
      </g>
     </g>
     <g id="text_10">
      <!-- 0.50 -->
      <g transform="translate(12.748438 220.228551)scale(0.17 -0.17)">
       <use xlink:href="#DejaVuSans-48"/>
       <use x="63.623047" xlink:href="#DejaVuSans-46"/>
       <use x="95.410156" xlink:href="#DejaVuSans-53"/>
       <use x="159.033203" xlink:href="#DejaVuSans-48"/>
      </g>
     </g>
    </g>
    <g id="ytick_4">
     <g id="line2d_10">
      <g>
       <use style="stroke:#000000;stroke-width:0.8;" x="57.6" xlink:href="#mec90e9d55c" y="166.862819"/>
      </g>
     </g>
     <g id="text_11">
      <!-- 0.75 -->
      <defs>
       <path d="M 8.203125 72.90625 
L 55.078125 72.90625 
L 55.078125 68.703125 
L 28.609375 0 
L 18.3125 0 
L 43.21875 64.59375 
L 8.203125 64.59375 
z
" id="DejaVuSans-55"/>
      </defs>
      <g transform="translate(12.748438 173.321491)scale(0.17 -0.17)">
       <use xlink:href="#DejaVuSans-48"/>
       <use x="63.623047" xlink:href="#DejaVuSans-46"/>
       <use x="95.410156" xlink:href="#DejaVuSans-55"/>
       <use x="159.033203" xlink:href="#DejaVuSans-53"/>
      </g>
     </g>
    </g>
    <g id="ytick_5">
     <g id="line2d_11">
      <g>
       <use style="stroke:#000000;stroke-width:0.8;" x="57.6" xlink:href="#mec90e9d55c" y="119.955758"/>
      </g>
     </g>
     <g id="text_12">
      <!-- 1.00 -->
      <g transform="translate(12.748438 126.41443)scale(0.17 -0.17)">
       <use xlink:href="#DejaVuSans-49"/>
       <use x="63.623047" xlink:href="#DejaVuSans-46"/>
       <use x="95.410156" xlink:href="#DejaVuSans-48"/>
       <use x="159.033203" xlink:href="#DejaVuSans-48"/>
      </g>
     </g>
    </g>
    <g id="ytick_6">
     <g id="line2d_12">
      <g>
       <use style="stroke:#000000;stroke-width:0.8;" x="57.6" xlink:href="#mec90e9d55c" y="73.048698"/>
      </g>
     </g>
     <g id="text_13">
      <!-- 1.25 -->
      <g transform="translate(12.748438 79.50737)scale(0.17 -0.17)">
       <use xlink:href="#DejaVuSans-49"/>
       <use x="63.623047" xlink:href="#DejaVuSans-46"/>
       <use x="95.410156" xlink:href="#DejaVuSans-50"/>
       <use x="159.033203" xlink:href="#DejaVuSans-53"/>
      </g>
     </g>
    </g>
    <g id="text_14">
     <!-- Density -->
     <defs>
      <path d="M 19.671875 64.796875 
L 19.671875 8.109375 
L 31.59375 8.109375 
Q 46.6875 8.109375 53.6875 14.9375 
Q 60.6875 21.78125 60.6875 36.53125 
Q 60.6875 51.171875 53.6875 57.984375 
Q 46.6875 64.796875 31.59375 64.796875 
z
M 9.8125 72.90625 
L 30.078125 72.90625 
Q 51.265625 72.90625 61.171875 64.09375 
Q 71.09375 55.28125 71.09375 36.53125 
Q 71.09375 17.671875 61.125 8.828125 
Q 51.171875 0 30.078125 0 
L 9.8125 0 
z
" id="DejaVuSans-68"/>
      <path d="M 56.203125 29.59375 
L 56.203125 25.203125 
L 14.890625 25.203125 
Q 15.484375 15.921875 20.484375 11.0625 
Q 25.484375 6.203125 34.421875 6.203125 
Q 39.59375 6.203125 44.453125 7.46875 
Q 49.3125 8.734375 54.109375 11.28125 
L 54.109375 2.78125 
Q 49.265625 0.734375 44.1875 -0.34375 
Q 39.109375 -1.421875 33.890625 -1.421875 
Q 20.796875 -1.421875 13.15625 6.1875 
Q 5.515625 13.8125 5.515625 26.8125 
Q 5.515625 40.234375 12.765625 48.109375 
Q 20.015625 56 32.328125 56 
Q 43.359375 56 49.78125 48.890625 
Q 56.203125 41.796875 56.203125 29.59375 
z
M 47.21875 32.234375 
Q 47.125 39.59375 43.09375 43.984375 
Q 39.0625 48.390625 32.421875 48.390625 
Q 24.90625 48.390625 20.390625 44.140625 
Q 15.875 39.890625 15.1875 32.171875 
z
" id="DejaVuSans-101"/>
      <path d="M 32.171875 -5.078125 
Q 28.375 -14.84375 24.75 -17.8125 
Q 21.140625 -20.796875 15.09375 -20.796875 
L 7.90625 -20.796875 
L 7.90625 -13.28125 
L 13.1875 -13.28125 
Q 16.890625 -13.28125 18.9375 -11.515625 
Q 21 -9.765625 23.484375 -3.21875 
L 25.09375 0.875 
L 2.984375 54.6875 
L 12.5 54.6875 
L 29.59375 11.921875 
L 46.6875 54.6875 
L 56.203125 54.6875 
z
" id="DejaVuSans-121"/>
     </defs>
     <g transform="translate(2.509375 231.553781)rotate(-90)scale(0.3 -0.3)">
      <use xlink:href="#DejaVuSans-68"/>
      <use x="77.001953" xlink:href="#DejaVuSans-101"/>
      <use x="138.525391" xlink:href="#DejaVuSans-110"/>
      <use x="201.904297" xlink:href="#DejaVuSans-115"/>
      <use x="254.003906" xlink:href="#DejaVuSans-105"/>
      <use x="281.787109" xlink:href="#DejaVuSans-116"/>
      <use x="320.996094" xlink:href="#DejaVuSans-121"/>
     </g>
    </g>
   </g>
   <g id="line2d_13">
    <path clip-path="url(#pda150966d9)" d="M 93.144192 304.689608 
L 93.419028 304.575077 
L 93.785477 304.45127 
L 93.999238 304.660234 
L 94.304612 305.362773 
L 95.037508 307.141815 
L 95.403957 307.462615 
L 95.83148 307.52786 
L 96.228465 307.385334 
L 96.564376 307.028749 
L 96.9919 306.179714 
L 97.633184 304.934358 
L 97.877483 304.860493 
L 98.121782 305.038876 
L 98.915753 305.786571 
L 99.557038 306.065739 
L 100.503696 306.885197 
L 100.778532 306.678434 
L 101.664116 305.806025 
L 102.702386 305.693894 
L 103.740656 305.801583 
L 104.076567 306.001496 
L 105.0843 306.890559 
L 105.359137 306.680691 
L 106.030959 306.083024 
L 106.275258 306.194275 
L 106.672243 306.709949 
L 107.252453 307.376277 
L 107.710514 307.548684 
L 108.687709 307.583877 
L 112.718641 307.4799 
L 113.054552 307.219074 
L 113.390463 306.626404 
L 114.00121 304.883006 
L 114.367658 304.210518 
L 114.611957 304.134261 
L 114.947868 304.3263 
L 116.077751 305.294897 
L 117.451932 307.459743 
L 117.94053 307.560903 
L 118.52074 307.463512 
L 118.887188 307.169725 
L 119.253636 306.532884 
L 119.833846 304.920205 
L 120.291907 303.890019 
L 120.505668 303.778515 
L 120.688892 303.935099 
L 120.963729 304.553225 
L 121.666088 306.269384 
L 121.879849 306.299191 
L 122.093611 306.058445 
L 122.612746 304.965492 
L 123.009732 304.387344 
L 123.315105 304.281361 
L 123.681554 304.410185 
L 124.353376 304.915675 
L 124.811436 305.54299 
L 125.880244 307.221108 
L 126.15508 307.22933 
L 126.460454 306.982475 
L 127.346037 306.083902 
L 127.590336 306.219331 
L 128.414845 306.858974 
L 128.689681 306.669003 
L 129.361503 306.082029 
L 129.605802 306.190175 
L 130.002788 306.703483 
L 130.582998 307.373329 
L 131.041058 307.547991 
L 131.987716 307.583843 
L 134.461242 307.482545 
L 134.797153 307.222411 
L 135.133064 306.627968 
L 136.079723 304.611816 
L 136.262947 304.768628 
L 136.56832 305.472341 
L 137.27068 307.1562 
L 137.637128 307.469112 
L 138.064651 307.528858 
L 138.461637 307.368762 
L 138.76701 307.002048 
L 139.133459 306.175746 
L 139.774743 304.682785 
L 139.988505 304.63679 
L 140.202267 304.87311 
L 140.935163 305.885792 
L 141.148925 305.776111 
L 141.423761 305.344097 
L 141.820747 304.241272 
L 142.400957 301.776206 
L 142.950629 299.818198 
L 143.622451 297.74668 
L 145.118782 291.704146 
L 145.912753 289.399322 
L 146.126515 289.288876 
L 146.431888 289.465342 
L 146.615112 289.475874 
L 146.767799 289.227574 
L 146.981561 288.26653 
L 147.286934 285.580879 
L 147.928219 279.830277 
L 148.080906 279.569698 
L 148.111443 279.585319 
L 148.233593 279.858887 
L 148.447354 281.025011 
L 148.905415 285.157759 
L 149.729923 292.440974 
L 149.974222 293.117825 
L 150.096372 293.039546 
L 150.279596 292.454229 
L 151.04303 289.285535 
L 151.073567 289.292334 
L 151.226254 289.516654 
L 151.959151 291.19394 
L 151.989688 291.177327 
L 152.20345 290.876785 
L 152.66151 290.18135 
L 152.875272 290.201012 
L 153.211183 290.283925 
L 153.363869 290.076667 
L 153.577631 289.351244 
L 154.371602 285.954571 
L 154.40214 285.964902 
L 154.554827 286.233958 
L 154.890738 287.586206 
L 155.196111 288.424212 
L 155.318261 288.365176 
L 155.470947 287.903373 
L 155.745784 286.130067 
L 156.60083 279.9805 
L 156.875666 279.4086 
L 157.028353 279.430839 
L 157.211577 279.754102 
L 157.547488 280.949088 
L 157.975011 282.302651 
L 158.158235 282.355972 
L 158.310922 282.083261 
L 158.585758 280.965081 
L 159.196506 277.125133 
L 159.807253 273.75884 
L 160.051552 273.271316 
L 160.173701 273.313421 
L 160.356925 273.712801 
L 160.99821 275.560709 
L 161.028747 275.541973 
L 161.181434 275.194776 
L 161.425733 273.857498 
L 161.944868 270.903168 
L 162.03648 270.882797 
L 162.067018 270.928436 
L 162.219704 271.560713 
L 162.494541 274.160595 
L 163.044213 279.537193 
L 163.135825 279.654232 
L 163.166363 279.616969 
L 163.288512 279.075758 
L 163.502274 276.714496 
L 164.510007 263.089145 
L 164.601619 263.043406 
L 164.632156 263.075483 
L 164.784843 263.53601 
L 165.090216 265.454225 
L 165.792576 269.967493 
L 166.067412 270.504619 
L 166.250636 270.496864 
L 166.922458 270.205219 
L 167.13622 270.49767 
L 167.411056 271.357087 
L 167.808042 273.525212 
L 168.449326 276.874419 
L 168.724162 277.319241 
L 168.907387 277.265599 
L 169.457059 276.879567 
L 169.640283 277.250193 
L 169.91512 278.543061 
L 170.556404 281.89987 
L 170.678554 281.966779 
L 170.709091 281.942144 
L 170.861778 281.587886 
L 171.167151 280.073908 
L 171.625212 277.990663 
L 171.838973 277.761136 
L 172.022198 277.892936 
L 172.388646 278.196924 
L 172.541333 278.056379 
L 172.816169 277.358517 
L 173.304767 276.152563 
L 174.037663 275.176484 
L 174.404112 273.489504 
L 174.89271 271.443411 
L 175.014859 271.396669 
L 175.045396 271.429336 
L 175.198083 271.874468 
L 175.442382 273.493793 
L 176.358503 280.488103 
L 176.572264 280.725421 
L 176.724951 280.514676 
L 176.938713 279.70645 
L 177.305161 277.197877 
L 177.824296 273.921412 
L 178.00752 273.65762 
L 178.12967 273.763985 
L 178.648805 274.678811 
L 178.70988 274.6059 
L 178.862567 274.089051 
L 179.106865 272.189113 
L 179.473314 267.220296 
L 180.664271 249.642769 
L 180.90857 248.643642 
L 181.030719 248.638016 
L 181.183406 249.075901 
L 181.427705 250.671244 
L 182.313288 257.4398 
L 182.465975 257.532269 
L 182.649199 257.297503 
L 182.954573 256.940745 
L 183.076722 257.10158 
L 183.259947 257.870661 
L 183.56532 260.502844 
L 184.176068 265.907129 
L 184.389829 266.256138 
L 184.542516 266.046177 
L 184.939502 265.356118 
L 185.061651 265.501971 
L 185.244875 266.199651 
L 185.641861 268.969553 
L 185.977772 270.650553 
L 186.069384 270.704799 
L 186.099921 270.672571 
L 186.222071 270.273303 
L 186.435832 268.495917 
L 186.771743 263.297058 
L 187.535177 250.847736 
L 187.779476 249.719196 
L 187.871088 249.727715 
L 188.023775 250.14853 
L 188.390223 252.188466 
L 189.947629 261.077151 
L 189.978166 261.069589 
L 190.100316 260.838836 
L 190.314077 259.736883 
L 191.077511 255.108632 
L 191.169123 255.225489 
L 191.32181 255.898872 
L 191.596646 258.389079 
L 192.634917 269.118203 
L 192.848678 269.482625 
L 192.970828 269.240395 
L 193.154052 268.240632 
L 193.489963 264.769283 
L 194.009098 259.600507 
L 194.161785 259.267627 
L 194.192322 259.286224 
L 194.314472 259.622387 
L 194.558771 261.211246 
L 195.016831 263.98545 
L 195.108443 264.051701 
L 195.13898 264.024491 
L 195.26113 263.668356 
L 195.474891 262.180157 
L 196.452087 253.97704 
L 196.604774 253.923659 
L 197.123909 254.111529 
L 197.368208 253.563539 
L 197.704119 252.905534 
L 197.826268 252.989492 
L 198.009492 253.571336 
L 198.375941 255.853927 
L 198.772926 257.754844 
L 198.925613 257.880462 
L 198.956151 257.86192 
L 199.108837 257.571699 
L 199.383674 256.382139 
L 199.872271 253.023322 
L 200.360869 250.148227 
L 200.544093 249.92326 
L 200.666243 250.089223 
L 200.941079 251.057335 
L 201.27699 252.038809 
L 201.39914 252.043924 
L 201.551826 251.753799 
L 202.132036 250.187489 
L 202.162574 250.200731 
L 202.31526 250.48307 
L 202.864933 252.119951 
L 202.926008 252.027431 
L 203.078694 251.324645 
L 203.322993 248.809868 
L 204.208577 238.056108 
L 204.422338 237.618129 
L 204.727712 237.349236 
L 204.910936 236.621467 
L 205.185772 234.292608 
L 206.040819 226.123653 
L 206.712641 222.479327 
L 206.83479 222.375067 
L 206.865327 222.406107 
L 206.987477 222.786141 
L 207.201238 224.459475 
L 207.628761 230.358084 
L 208.178434 236.96263 
L 208.667032 240.208638 
L 209.03348 241.533224 
L 209.247242 241.714683 
L 209.461003 241.555637 
L 209.705302 241.409703 
L 209.827451 241.564206 
L 210.010676 242.308137 
L 210.254975 244.440093 
L 211.23217 254.469837 
L 211.323782 254.378077 
L 211.507006 253.6333 
L 212.881188 245.083479 
L 213.278173 238.536613 
L 213.919458 228.237406 
L 214.133219 227.196099 
L 214.224832 227.23682 
L 214.377518 227.916239 
L 214.621817 230.325629 
L 215.721162 242.938201 
L 215.812774 242.94615 
L 215.934924 242.563126 
L 216.148685 240.804863 
L 216.454059 236.017358 
L 217.003731 222.925453 
L 217.553404 211.65427 
L 217.919852 207.999863 
L 218.225226 206.723887 
L 218.377913 206.612348 
L 218.500062 206.847795 
L 218.683286 207.884121 
L 218.958123 211.142264 
L 219.843706 223.246846 
L 219.996393 223.46871 
L 220.118542 223.221249 
L 220.362841 221.931181 
L 221.370574 215.640534 
L 221.64541 215.245729 
L 221.859172 215.29688 
L 222.592069 215.803214 
L 222.775293 215.38289 
L 222.989054 214.194016 
L 223.233353 211.479874 
L 223.538727 205.321719 
L 224.027325 189.620949 
L 224.54646 175.100153 
L 224.790759 172.810231 
L 224.851833 172.736608 
L 224.882371 172.765906 
L 225.00452 173.268589 
L 225.248819 175.571219 
L 226.287089 186.605377 
L 226.623 188.14861 
L 227.172673 189.830229 
L 227.78342 193.750659 
L 227.875032 193.567333 
L 228.027719 192.308609 
L 228.302555 187.306166 
L 228.852228 176.9533 
L 229.004915 176.379717 
L 229.035452 176.411672 
L 229.157601 176.96443 
L 229.432438 179.88351 
L 231.72274 208.249395 
L 231.814352 208.16506 
L 231.936501 207.480804 
L 232.150263 204.539137 
L 232.486174 195.945802 
L 233.127459 179.482898 
L 233.493907 175.685787 
L 234.623789 167.913169 
L 234.684864 167.9551 
L 234.807013 168.350248 
L 235.020775 170.042846 
L 235.326149 174.530718 
L 235.753672 184.427943 
L 236.761405 209.325014 
L 236.975166 210.469232 
L 237.036241 210.432308 
L 237.15839 209.93443 
L 237.402689 207.670222 
L 238.349347 197.770279 
L 238.990632 191.143459 
L 239.265468 189.484354 
L 239.35708 189.435715 
L 239.387618 189.480617 
L 239.540304 190.12828 
L 240.212126 194.612037 
L 240.273201 194.514129 
L 240.425888 193.607352 
L 240.670187 190.204792 
L 241.067173 180.771231 
L 241.708457 166.212531 
L 241.891681 165.126138 
L 241.922219 165.135058 
L 242.013831 165.482425 
L 242.197055 167.485213 
L 242.594041 175.335926 
L 243.113176 184.171805 
L 243.479624 187.098518 
L 243.815535 188.267085 
L 243.907147 188.277301 
L 243.937685 188.233299 
L 244.059834 187.737354 
L 244.212521 186.094446 
L 244.426282 180.733267 
L 244.670581 167.858871 
L 244.975955 138.62884 
L 245.769926 54.606481 
L 245.831001 54.144 
L 245.861538 54.43262 
L 245.983688 58.992573 
L 246.197449 78.426896 
L 247.205182 186.981915 
L 247.449481 192.181586 
L 247.510556 192.388535 
L 247.571631 192.24221 
L 247.724317 190.591259 
L 248.029691 183.704148 
L 249.709246 140.266053 
L 249.770321 140.114442 
L 249.800858 140.172064 
L 249.89247 140.904406 
L 250.075694 144.927209 
L 250.381068 158.053424 
L 251.236114 198.108818 
L 251.480413 201.758627 
L 251.541488 201.942559 
L 251.602562 201.845235 
L 251.724712 200.858544 
L 251.969011 196.316441 
L 252.701907 181.153655 
L 252.854594 180.705158 
L 252.946206 180.95243 
L 253.159968 182.579684 
L 253.648566 186.370415 
L 253.70964 186.412528 
L 253.740178 186.382288 
L 253.862327 185.920417 
L 254.076089 183.962984 
L 254.808985 176.406829 
L 254.900597 176.342326 
L 254.931135 176.380887 
L 255.053284 176.825602 
L 255.267046 178.603727 
L 255.725106 184.896602 
L 256.244241 190.850869 
L 256.549615 192.319221 
L 256.793914 192.659546 
L 256.946601 192.58262 
L 257.129825 192.19465 
L 257.404661 190.976137 
L 257.984871 186.93498 
L 258.626156 183.170261 
L 258.870455 182.52305 
L 258.962067 182.587139 
L 259.084216 183.070803 
L 259.26744 184.890247 
L 259.542276 190.458674 
L 260.580547 215.70743 
L 260.641621 215.790432 
L 260.672159 215.750017 
L 260.794308 215.072055 
L 261.00807 212.227586 
L 261.740967 201.31542 
L 261.832579 201.225844 
L 261.863116 201.280063 
L 261.985265 201.887937 
L 262.229564 204.628312 
L 263.237297 218.196116 
L 263.298372 218.132327 
L 263.420521 217.477439 
L 263.66482 214.367195 
L 264.458792 202.8506 
L 265.588674 194.658954 
L 266.626944 189.157121 
L 267.054467 186.340465 
L 267.14608 186.235631 
L 267.176617 186.262466 
L 267.298766 186.709776 
L 267.512528 188.843245 
L 267.909514 196.058013 
L 268.520261 206.342273 
L 270.230353 227.030636 
L 270.566264 228.306627 
L 271.054862 229.512005 
L 271.299161 231.177371 
L 271.787759 236.660184 
L 272.184744 239.924667 
L 272.429043 240.55885 
L 272.612267 240.573261 
L 273.497851 240.179686 
L 273.681075 240.519913 
L 273.894837 241.472022 
L 274.230748 244.256593 
L 274.810957 248.936202 
L 275.024719 249.352462 
L 275.146868 249.265284 
L 275.421705 248.609734 
L 275.727078 248.073439 
L 275.849228 248.16828 
L 276.001914 248.650765 
L 276.246213 250.319455 
L 277.131797 257.489155 
L 277.223409 257.29568 
L 277.406633 256.076072 
L 277.712007 251.978534 
L 278.444903 241.587067 
L 278.658665 240.869789 
L 278.780814 240.950113 
L 279.025113 241.664706 
L 279.452636 242.749165 
L 279.727473 243.377909 
L 279.941234 244.630718 
L 280.21607 247.869447 
L 281.37649 264.047693 
L 281.559714 264.364582 
L 281.681864 264.200751 
L 281.895625 263.304945 
L 282.323148 260.110276 
L 282.933896 255.973393 
L 283.69733 252.755648 
L 283.941629 252.391289 
L 284.063778 252.530891 
L 284.27754 253.285957 
L 284.796675 255.253976 
L 284.888287 255.171662 
L 285.040974 254.624728 
L 285.407422 252.080822 
L 285.682258 250.808135 
L 285.77387 250.796627 
L 285.89602 251.173866 
L 286.109781 252.864203 
L 287.117514 263.017394 
L 287.148052 263.01193 
L 287.239664 262.819491 
L 287.422888 261.634571 
L 287.697724 257.985719 
L 288.613845 244.040255 
L 288.67492 244.06327 
L 288.797069 244.686581 
L 289.010831 247.472294 
L 289.468891 257.525416 
L 290.140713 270.787404 
L 290.598773 276.380494 
L 290.843072 277.435342 
L 290.934684 277.415623 
L 291.087371 276.955505 
L 291.728656 274.234015 
L 291.759193 274.248601 
L 291.881343 274.493351 
L 292.125642 275.665965 
L 292.614239 277.972313 
L 292.797463 278.077085 
L 292.980688 277.775719 
L 293.621972 276.477094 
L 293.988421 276.169518 
L 294.171645 275.55494 
L 294.446481 273.596619 
L 295.27099 266.647338 
L 295.362602 266.59629 
L 295.393139 266.624876 
L 295.545826 267.090854 
L 295.790125 268.78921 
L 296.278723 274.228375 
L 296.950545 281.246342 
L 297.34753 283.27443 
L 298.355263 286.404729 
L 298.538488 286.551551 
L 298.691174 286.361169 
L 298.904936 285.601525 
L 299.698907 282.118021 
L 299.729445 282.127958 
L 299.851594 282.334263 
L 300.065356 283.250984 
L 300.737178 286.541641 
L 300.889864 286.560621 
L 301.042551 286.249807 
L 301.409 284.769816 
L 301.714373 283.881439 
L 301.836523 283.884275 
L 301.989209 284.277774 
L 302.233508 285.821672 
L 303.088554 292.356911 
L 303.180167 292.295698 
L 303.332853 291.759538 
L 303.699302 289.234375 
L 304.06575 287.392748 
L 304.218437 287.272659 
L 304.340586 287.450975 
L 304.584885 288.375205 
L 305.012408 291.088371 
L 306.111753 298.531595 
L 306.26444 298.586618 
L 306.417127 298.290821 
L 306.691963 297.107944 
L 307.394322 293.92346 
L 307.791308 293.231818 
L 308.127219 292.580836 
L 308.46313 291.356373 
L 309.348714 287.793415 
L 309.531938 287.714953 
L 309.684625 287.937782 
L 309.928923 288.855281 
L 310.295372 291.305735 
L 311.058806 296.571861 
L 311.364179 297.336588 
L 312.066539 298.314855 
L 312.494062 300.105048 
L 312.86051 301.248563 
L 313.043734 301.308088 
L 313.226959 300.994617 
L 313.56287 299.778831 
L 313.990393 298.41087 
L 314.173617 298.355016 
L 314.326304 298.651867 
L 314.570602 299.736145 
L 315.456186 304.322841 
L 315.63941 304.377636 
L 315.822634 304.078754 
L 316.158545 302.951476 
L 316.647143 301.496368 
L 316.830367 301.446991 
L 317.013591 301.753218 
L 317.318965 302.85535 
L 317.868638 304.768117 
L 318.112936 304.95539 
L 318.296161 304.813623 
L 318.632072 304.179218 
L 319.609267 301.692949 
L 320.647537 298.838109 
L 320.861299 298.779001 
L 321.044523 298.986296 
L 321.319359 299.722062 
L 321.869032 302.082206 
L 322.449242 304.185535 
L 322.724078 304.54098 
L 322.876765 304.479404 
L 323.090526 304.064166 
L 323.456975 302.681031 
L 323.97611 300.872731 
L 324.220409 300.667695 
L 324.403633 300.825782 
L 324.678469 301.447421 
L 325.930501 304.783248 
L 326.113725 304.762512 
L 326.327487 304.465169 
L 327.243608 302.7371 
L 327.487907 302.953251 
L 327.91543 303.305266 
L 328.129191 303.182372 
L 328.465102 302.639008 
L 328.984237 301.880743 
L 329.167461 301.896784 
L 329.381223 302.205481 
L 329.717134 303.229882 
L 330.266806 304.816433 
L 330.511105 304.980233 
L 330.816479 304.85247 
L 331.15239 304.762896 
L 331.427226 304.9401 
L 332.037973 305.429178 
L 332.282272 305.296073 
L 333.045706 304.673129 
L 333.320543 304.883078 
L 333.778603 305.239027 
L 334.022902 305.140519 
L 334.694724 304.654672 
L 334.908485 304.884149 
L 335.274934 305.736469 
L 335.885681 307.105527 
L 336.282667 307.463055 
L 336.771265 307.570989 
L 337.778997 307.526626 
L 338.175983 307.305835 
L 338.511894 306.813016 
L 339.000492 305.554407 
L 339.428015 304.704387 
L 339.611239 304.675365 
L 339.825001 304.925025 
L 340.710584 306.324669 
L 340.924346 306.141025 
L 341.229719 305.500841 
L 341.68778 303.949705 
L 342.390139 301.589114 
L 342.573363 301.537915 
L 342.756587 301.849164 
L 343.092498 303.08531 
L 343.611634 304.819215 
L 343.88647 305.075114 
L 344.161306 305.014032 
L 345.382801 304.31097 
L 346.115697 303.289551 
L 346.298921 303.402893 
L 346.573758 303.906494 
L 347.153968 305.007302 
L 347.367729 305.024068 
L 347.581491 304.78714 
L 347.947939 303.979384 
L 348.802985 302.034838 
L 349.138896 301.757308 
L 349.413732 301.784191 
L 349.688569 302.039178 
L 350.055017 302.712707 
L 350.910063 304.412233 
L 351.184899 304.526524 
L 351.459736 304.382878 
L 352.772842 303.049851 
L 353.078216 301.899685 
L 353.750038 299.112643 
L 353.902724 299.065671 
L 354.055411 299.319786 
L 354.360785 300.459444 
L 354.971532 302.68395 
L 355.276906 303.069321 
L 355.490667 303.056848 
L 355.704429 302.807747 
L 355.979265 302.110491 
L 356.467863 300.090331 
L 356.834311 298.975924 
L 356.986998 298.961911 
L 357.139685 299.30014 
L 357.383984 300.512203 
L 358.086343 304.372953 
L 358.208492 304.412122 
L 358.330642 304.16612 
L 358.544403 303.09168 
L 359.491062 296.971566 
L 359.521599 296.980925 
L 359.643748 297.207231 
L 359.85751 298.225927 
L 360.834706 303.775203 
L 361.079005 303.949842 
L 361.414915 303.797327 
L 361.689752 303.786383 
L 361.903513 304.020723 
L 362.208887 304.739108 
L 363.002858 306.788576 
L 363.247157 306.883446 
L 363.430381 306.699681 
L 363.705218 306.00834 
L 364.682413 303.00245 
L 364.8351 303.109351 
L 365.109936 303.68195 
L 365.812296 305.232685 
L 366.148207 305.50414 
L 366.361968 305.459051 
L 366.606267 305.139581 
L 367.064327 304.004297 
L 367.400238 303.462105 
L 367.583463 303.510385 
L 367.797224 303.898238 
L 368.224747 305.314366 
L 368.77442 306.896866 
L 369.140868 307.3712 
L 369.537854 307.542297 
L 370.3929 307.583675 
L 398.487273 307.584 
L 398.487273 307.584 
" style="fill:none;stroke:#ff7f0e;stroke-linecap:square;stroke-width:1.5;"/>
   </g>
   <g id="patch_103">
    <path d="M 57.6 307.584 
L 57.6 41.472 
" style="fill:none;stroke:#000000;stroke-linecap:square;stroke-linejoin:miter;stroke-width:0.8;"/>
   </g>
   <g id="patch_104">
    <path d="M 414.72 307.584 
L 414.72 41.472 
" style="fill:none;stroke:#000000;stroke-linecap:square;stroke-linejoin:miter;stroke-width:0.8;"/>
   </g>
   <g id="patch_105">
    <path d="M 57.6 307.584 
L 414.72 307.584 
" style="fill:none;stroke:#000000;stroke-linecap:square;stroke-linejoin:miter;stroke-width:0.8;"/>
   </g>
   <g id="patch_106">
    <path d="M 57.6 41.472 
L 414.72 41.472 
" style="fill:none;stroke:#000000;stroke-linecap:square;stroke-linejoin:miter;stroke-width:0.8;"/>
   </g>
  </g>
 </g>
 <defs>
  <clipPath id="pda150966d9">
   <rect height="266.112" width="357.12" x="57.6" y="41.472"/>
  </clipPath>
 </defs>
</svg>
