<?xml version="1.0" encoding="utf-8" standalone="no"?>
<!DOCTYPE svg PUBLIC "-//W3C//DTD SVG 1.1//EN"
  "http://www.w3.org/Graphics/SVG/1.1/DTD/svg11.dtd">
<!-- Created with matplotlib (https://matplotlib.org/) -->
<svg height="345.6pt" version="1.1" viewBox="0 0 460.8 345.6" width="460.8pt" xmlns="http://www.w3.org/2000/svg" xmlns:xlink="http://www.w3.org/1999/xlink">
 <defs>
  <style type="text/css">
*{stroke-linecap:butt;stroke-linejoin:round;}
  </style>
 </defs>
 <g id="figure_1">
  <g id="patch_1">
   <path d="M 0 345.6 
L 460.8 345.6 
L 460.8 0 
L 0 0 
z
" style="fill:#ffffff;"/>
  </g>
  <g id="axes_1">
   <g id="patch_2">
    <path d="M 57.6 307.584 
L 414.72 307.584 
L 414.72 41.472 
L 57.6 41.472 
z
" style="fill:#ffffff;"/>
   </g>
   <g id="patch_3">
    <path clip-path="url(#pb018b64fe5)" d="M 99.975131 307.584 
L 102.698997 307.584 
L 102.698997 294.109308 
L 99.975131 294.109308 
z
" style="fill:#1f77b4;"/>
   </g>
   <g id="patch_4">
    <path clip-path="url(#pb018b64fe5)" d="M 102.698982 307.584 
L 105.422864 307.584 
L 105.422864 298.456035 
L 102.698982 298.456035 
z
" style="fill:#1f77b4;"/>
   </g>
   <g id="patch_5">
    <path clip-path="url(#pb018b64fe5)" d="M 105.422864 307.584 
L 108.146739 307.584 
L 108.146739 282.373358 
L 105.422864 282.373358 
z
" style="fill:#1f77b4;"/>
   </g>
   <g id="patch_6">
    <path clip-path="url(#pb018b64fe5)" d="M 108.146731 307.584 
L 110.870606 307.584 
L 110.870606 278.026696 
L 108.146731 278.026696 
z
" style="fill:#1f77b4;"/>
   </g>
   <g id="patch_7">
    <path clip-path="url(#pb018b64fe5)" d="M 110.870614 307.584 
L 113.59448 307.584 
L 113.59448 265.855922 
L 110.870614 265.855922 
z
" style="fill:#1f77b4;"/>
   </g>
   <g id="patch_8">
    <path clip-path="url(#pb018b64fe5)" d="M 113.59448 307.584 
L 116.318355 307.584 
L 116.318355 249.338724 
L 113.59448 249.338724 
z
" style="fill:#1f77b4;"/>
   </g>
   <g id="patch_9">
    <path clip-path="url(#pb018b64fe5)" d="M 116.318347 307.584 
L 119.042222 307.584 
L 119.042222 239.3414 
L 116.318347 239.3414 
z
" style="fill:#1f77b4;"/>
   </g>
   <g id="patch_10">
    <path clip-path="url(#pb018b64fe5)" d="M 119.04223 307.584 
L 121.766104 307.584 
L 121.766104 225.866747 
L 119.04223 225.866747 
z
" style="fill:#1f77b4;"/>
   </g>
   <g id="patch_11">
    <path clip-path="url(#pb018b64fe5)" d="M 121.766097 307.584 
L 124.489971 307.584 
L 124.489971 224.562748 
L 121.766097 224.562748 
z
" style="fill:#1f77b4;"/>
   </g>
   <g id="patch_12">
    <path clip-path="url(#pb018b64fe5)" d="M 124.489979 307.584 
L 127.213854 307.584 
L 127.213854 227.170745 
L 124.489979 227.170745 
z
" style="fill:#1f77b4;"/>
   </g>
   <g id="patch_13">
    <path clip-path="url(#pb018b64fe5)" d="M 127.213846 307.584 
L 129.93772 307.584 
L 129.93772 234.994738 
L 127.213846 234.994738 
z
" style="fill:#1f77b4;"/>
   </g>
   <g id="patch_14">
    <path clip-path="url(#pb018b64fe5)" d="M 129.937728 307.584 
L 132.661603 307.584 
L 132.661603 232.38674 
L 129.937728 232.38674 
z
" style="fill:#1f77b4;"/>
   </g>
   <g id="patch_15">
    <path clip-path="url(#pb018b64fe5)" d="M 132.661595 307.584 
L 135.38547 307.584 
L 135.38547 246.29606 
L 132.661595 246.29606 
z
" style="fill:#1f77b4;"/>
   </g>
   <g id="patch_16">
    <path clip-path="url(#pb018b64fe5)" d="M 135.385477 307.584 
L 138.109352 307.584 
L 138.109352 259.770713 
L 135.385477 259.770713 
z
" style="fill:#1f77b4;"/>
   </g>
   <g id="patch_17">
    <path clip-path="url(#pb018b64fe5)" d="M 138.109344 307.584 
L 140.833219 307.584 
L 140.833219 252.816054 
L 138.109344 252.816054 
z
" style="fill:#1f77b4;"/>
   </g>
   <g id="patch_18">
    <path clip-path="url(#pb018b64fe5)" d="M 140.833227 307.584 
L 143.557094 307.584 
L 143.557094 258.031908 
L 140.833227 258.031908 
z
" style="fill:#1f77b4;"/>
   </g>
   <g id="patch_19">
    <path clip-path="url(#pb018b64fe5)" d="M 143.557094 307.584 
L 146.280968 307.584 
L 146.280968 246.730726 
L 143.557094 246.730726 
z
" style="fill:#1f77b4;"/>
   </g>
   <g id="patch_20">
    <path clip-path="url(#pb018b64fe5)" d="M 146.280961 307.584 
L 149.004835 307.584 
L 149.004835 254.989385 
L 146.280961 254.989385 
z
" style="fill:#1f77b4;"/>
   </g>
   <g id="patch_21">
    <path clip-path="url(#pb018b64fe5)" d="M 149.004843 307.584 
L 151.728718 307.584 
L 151.728718 237.168069 
L 149.004843 237.168069 
z
" style="fill:#1f77b4;"/>
   </g>
   <g id="patch_22">
    <path clip-path="url(#pb018b64fe5)" d="M 151.72871 307.584 
L 154.452584 307.584 
L 154.452584 251.077389 
L 151.72871 251.077389 
z
" style="fill:#1f77b4;"/>
   </g>
   <g id="patch_23">
    <path clip-path="url(#pb018b64fe5)" d="M 154.452592 307.584 
L 157.176467 307.584 
L 157.176467 239.3414 
L 154.452592 239.3414 
z
" style="fill:#1f77b4;"/>
   </g>
   <g id="patch_24">
    <path clip-path="url(#pb018b64fe5)" d="M 157.176459 307.584 
L 159.900334 307.584 
L 159.900334 236.298736 
L 157.176459 236.298736 
z
" style="fill:#1f77b4;"/>
   </g>
   <g id="patch_25">
    <path clip-path="url(#pb018b64fe5)" d="M 159.900341 307.584 
L 162.624216 307.584 
L 162.624216 244.992061 
L 159.900341 244.992061 
z
" style="fill:#1f77b4;"/>
   </g>
   <g id="patch_26">
    <path clip-path="url(#pb018b64fe5)" d="M 162.624208 307.584 
L 165.348083 307.584 
L 165.348083 247.600059 
L 162.624208 247.600059 
z
" style="fill:#1f77b4;"/>
   </g>
   <g id="patch_27">
    <path clip-path="url(#pb018b64fe5)" d="M 165.348091 307.584 
L 168.071958 307.584 
L 168.071958 251.511896 
L 165.348091 251.511896 
z
" style="fill:#1f77b4;"/>
   </g>
   <g id="patch_28">
    <path clip-path="url(#pb018b64fe5)" d="M 168.071958 307.584 
L 170.795832 307.584 
L 170.795832 263.68271 
L 168.071958 263.68271 
z
" style="fill:#1f77b4;"/>
   </g>
   <g id="patch_29">
    <path clip-path="url(#pb018b64fe5)" d="M 170.795832 307.584 
L 173.519711 307.584 
L 173.519711 264.986769 
L 170.795832 264.986769 
z
" style="fill:#1f77b4;"/>
   </g>
   <g id="patch_30">
    <path clip-path="url(#pb018b64fe5)" d="M 173.519715 307.584 
L 176.243585 307.584 
L 176.243585 256.727978 
L 173.519715 256.727978 
z
" style="fill:#1f77b4;"/>
   </g>
   <g id="patch_31">
    <path clip-path="url(#pb018b64fe5)" d="M 176.243581 307.584 
L 178.967456 307.584 
L 178.967456 267.16004 
L 176.243581 267.16004 
z
" style="fill:#1f77b4;"/>
   </g>
   <g id="patch_32">
    <path clip-path="url(#pb018b64fe5)" d="M 178.967456 307.584 
L 181.691331 307.584 
L 181.691331 261.944045 
L 178.967456 261.944045 
z
" style="fill:#1f77b4;"/>
   </g>
   <g id="patch_33">
    <path clip-path="url(#pb018b64fe5)" d="M 181.691331 307.584 
L 184.415205 307.584 
L 184.415205 254.120052 
L 181.691331 254.120052 
z
" style="fill:#1f77b4;"/>
   </g>
   <g id="patch_34">
    <path clip-path="url(#pb018b64fe5)" d="M 184.415205 307.584 
L 187.13908 307.584 
L 187.13908 261.944045 
L 184.415205 261.944045 
z
" style="fill:#1f77b4;"/>
   </g>
   <g id="patch_35">
    <path clip-path="url(#pb018b64fe5)" d="M 187.13908 307.584 
L 189.862951 307.584 
L 189.862951 257.162644 
L 187.13908 257.162644 
z
" style="fill:#1f77b4;"/>
   </g>
   <g id="patch_36">
    <path clip-path="url(#pb018b64fe5)" d="M 189.862951 307.584 
L 192.586825 307.584 
L 192.586825 264.117376 
L 189.862951 264.117376 
z
" style="fill:#1f77b4;"/>
   </g>
   <g id="patch_37">
    <path clip-path="url(#pb018b64fe5)" d="M 192.586825 307.584 
L 195.3107 307.584 
L 195.3107 263.68271 
L 192.586825 263.68271 
z
" style="fill:#1f77b4;"/>
   </g>
   <g id="patch_38">
    <path clip-path="url(#pb018b64fe5)" d="M 195.3107 307.584 
L 198.034575 307.584 
L 198.034575 252.381387 
L 195.3107 252.381387 
z
" style="fill:#1f77b4;"/>
   </g>
   <g id="patch_39">
    <path clip-path="url(#pb018b64fe5)" d="M 198.034575 307.584 
L 200.758449 307.584 
L 200.758449 263.248043 
L 198.034575 263.248043 
z
" style="fill:#1f77b4;"/>
   </g>
   <g id="patch_40">
    <path clip-path="url(#pb018b64fe5)" d="M 200.758453 307.584 
L 203.482324 307.584 
L 203.482324 263.24798 
L 200.758453 263.24798 
z
" style="fill:#1f77b4;"/>
   </g>
   <g id="patch_41">
    <path clip-path="url(#pb018b64fe5)" d="M 203.48232 307.584 
L 206.206195 307.584 
L 206.206195 267.16004 
L 203.48232 267.16004 
z
" style="fill:#1f77b4;"/>
   </g>
   <g id="patch_42">
    <path clip-path="url(#pb018b64fe5)" d="M 206.206195 307.584 
L 208.930069 307.584 
L 208.930069 255.858717 
L 206.206195 255.858717 
z
" style="fill:#1f77b4;"/>
   </g>
   <g id="patch_43">
    <path clip-path="url(#pb018b64fe5)" d="M 208.930069 307.584 
L 211.653944 307.584 
L 211.653944 250.208056 
L 208.930069 250.208056 
z
" style="fill:#1f77b4;"/>
   </g>
   <g id="patch_44">
    <path clip-path="url(#pb018b64fe5)" d="M 211.653944 307.584 
L 214.377817 307.584 
L 214.377817 250.208015 
L 211.653944 250.208015 
z
" style="fill:#1f77b4;"/>
   </g>
   <g id="patch_45">
    <path clip-path="url(#pb018b64fe5)" d="M 214.377817 307.584 
L 217.101691 307.584 
L 217.101691 253.25072 
L 214.377817 253.25072 
z
" style="fill:#1f77b4;"/>
   </g>
   <g id="patch_46">
    <path clip-path="url(#pb018b64fe5)" d="M 217.101689 307.584 
L 219.825562 307.584 
L 219.825562 255.858681 
L 217.101689 255.858681 
z
" style="fill:#1f77b4;"/>
   </g>
   <g id="patch_47">
    <path clip-path="url(#pb018b64fe5)" d="M 219.825564 307.584 
L 222.549439 307.584 
L 222.549439 256.72805 
L 219.825564 256.72805 
z
" style="fill:#1f77b4;"/>
   </g>
   <g id="patch_48">
    <path clip-path="url(#pb018b64fe5)" d="M 222.549439 307.584 
L 225.273312 307.584 
L 225.273312 253.250701 
L 222.549439 253.250701 
z
" style="fill:#1f77b4;"/>
   </g>
   <g id="patch_49">
    <path clip-path="url(#pb018b64fe5)" d="M 225.273311 307.584 
L 227.997185 307.584 
L 227.997185 245.426705 
L 225.273311 245.426705 
z
" style="fill:#1f77b4;"/>
   </g>
   <g id="patch_50">
    <path clip-path="url(#pb018b64fe5)" d="M 227.997186 307.584 
L 230.72106 307.584 
L 230.72106 248.034714 
L 227.997186 248.034714 
z
" style="fill:#1f77b4;"/>
   </g>
   <g id="patch_51">
    <path clip-path="url(#pb018b64fe5)" d="M 230.72106 307.584 
L 233.444934 307.584 
L 233.444934 234.994718 
L 230.72106 234.994718 
z
" style="fill:#1f77b4;"/>
   </g>
   <g id="patch_52">
    <path clip-path="url(#pb018b64fe5)" d="M 233.444934 307.584 
L 236.168808 307.584 
L 236.168808 128.066795 
L 233.444934 128.066795 
z
" style="fill:#1f77b4;"/>
   </g>
   <g id="patch_53">
    <path clip-path="url(#pb018b64fe5)" d="M 236.168808 307.584 
L 238.892682 307.584 
L 238.892682 232.38672 
L 236.168808 232.38672 
z
" style="fill:#1f77b4;"/>
   </g>
   <g id="patch_54">
    <path clip-path="url(#pb018b64fe5)" d="M 238.892682 307.584 
L 241.616556 307.584 
L 241.616556 215.000066 
L 238.892682 215.000066 
z
" style="fill:#1f77b4;"/>
   </g>
   <g id="patch_55">
    <path clip-path="url(#pb018b64fe5)" d="M 241.616555 307.584 
L 244.34043 307.584 
L 244.34043 246.730715 
L 241.616555 246.730715 
z
" style="fill:#1f77b4;"/>
   </g>
   <g id="patch_56">
    <path clip-path="url(#pb018b64fe5)" d="M 244.34043 307.584 
L 247.064303 307.584 
L 247.064303 251.946701 
L 244.34043 251.946701 
z
" style="fill:#1f77b4;"/>
   </g>
   <g id="patch_57">
    <path clip-path="url(#pb018b64fe5)" d="M 247.064302 307.584 
L 249.788176 307.584 
L 249.788176 249.773369 
L 247.064302 249.773369 
z
" style="fill:#1f77b4;"/>
   </g>
   <g id="patch_58">
    <path clip-path="url(#pb018b64fe5)" d="M 249.788177 307.584 
L 252.512052 307.584 
L 252.512052 241.514731 
L 249.788177 241.514731 
z
" style="fill:#1f77b4;"/>
   </g>
   <g id="patch_59">
    <path clip-path="url(#pb018b64fe5)" d="M 252.512052 307.584 
L 255.235924 307.584 
L 255.235924 262.813345 
L 252.512052 262.813345 
z
" style="fill:#1f77b4;"/>
   </g>
   <g id="patch_60">
    <path clip-path="url(#pb018b64fe5)" d="M 255.235924 307.584 
L 257.959799 307.584 
L 257.959799 261.944045 
L 255.235924 261.944045 
z
" style="fill:#1f77b4;"/>
   </g>
   <g id="patch_61">
    <path clip-path="url(#pb018b64fe5)" d="M 257.959797 307.584 
L 260.68367 307.584 
L 260.68367 258.46668 
L 257.959797 258.46668 
z
" style="fill:#1f77b4;"/>
   </g>
   <g id="patch_62">
    <path clip-path="url(#pb018b64fe5)" d="M 260.683672 307.584 
L 263.407546 307.584 
L 263.407546 260.640046 
L 260.683672 260.640046 
z
" style="fill:#1f77b4;"/>
   </g>
   <g id="patch_63">
    <path clip-path="url(#pb018b64fe5)" d="M 263.407546 307.584 
L 266.131421 307.584 
L 266.131421 257.597382 
L 263.407546 257.597382 
z
" style="fill:#1f77b4;"/>
   </g>
   <g id="patch_64">
    <path clip-path="url(#pb018b64fe5)" d="M 266.131421 307.584 
L 268.855296 307.584 
L 268.855296 272.810701 
L 266.131421 272.810701 
z
" style="fill:#1f77b4;"/>
   </g>
   <g id="patch_65">
    <path clip-path="url(#pb018b64fe5)" d="M 268.855296 307.584 
L 271.579166 307.584 
L 271.579166 264.551981 
L 268.855296 264.551981 
z
" style="fill:#1f77b4;"/>
   </g>
   <g id="patch_66">
    <path clip-path="url(#pb018b64fe5)" d="M 271.579166 307.584 
L 274.303041 307.584 
L 274.303041 269.333371 
L 271.579166 269.333371 
z
" style="fill:#1f77b4;"/>
   </g>
   <g id="patch_67">
    <path clip-path="url(#pb018b64fe5)" d="M 274.303041 307.584 
L 277.026916 307.584 
L 277.026916 265.856041 
L 274.303041 265.856041 
z
" style="fill:#1f77b4;"/>
   </g>
   <g id="patch_68">
    <path clip-path="url(#pb018b64fe5)" d="M 277.026916 307.584 
L 279.75079 307.584 
L 279.75079 267.594706 
L 277.026916 267.594706 
z
" style="fill:#1f77b4;"/>
   </g>
   <g id="patch_69">
    <path clip-path="url(#pb018b64fe5)" d="M 279.75079 307.584 
L 282.474665 307.584 
L 282.474665 265.856041 
L 279.75079 265.856041 
z
" style="fill:#1f77b4;"/>
   </g>
   <g id="patch_70">
    <path clip-path="url(#pb018b64fe5)" d="M 282.474669 307.584 
L 285.19854 307.584 
L 285.19854 268.029316 
L 282.474669 268.029316 
z
" style="fill:#1f77b4;"/>
   </g>
   <g id="patch_71">
    <path clip-path="url(#pb018b64fe5)" d="M 285.198536 307.584 
L 287.92241 307.584 
L 287.92241 263.248043 
L 285.198536 263.248043 
z
" style="fill:#1f77b4;"/>
   </g>
   <g id="patch_72">
    <path clip-path="url(#pb018b64fe5)" d="M 287.92241 307.584 
L 290.646285 307.584 
L 290.646285 273.245367 
L 287.92241 273.245367 
z
" style="fill:#1f77b4;"/>
   </g>
   <g id="patch_73">
    <path clip-path="url(#pb018b64fe5)" d="M 290.646285 307.584 
L 293.37016 307.584 
L 293.37016 260.20538 
L 290.646285 260.20538 
z
" style="fill:#1f77b4;"/>
   </g>
   <g id="patch_74">
    <path clip-path="url(#pb018b64fe5)" d="M 293.37016 307.584 
L 296.094034 307.584 
L 296.094034 264.552042 
L 293.37016 264.552042 
z
" style="fill:#1f77b4;"/>
   </g>
   <g id="patch_75">
    <path clip-path="url(#pb018b64fe5)" d="M 296.094034 307.584 
L 298.817905 307.584 
L 298.817905 268.463983 
L 296.094034 268.463983 
z
" style="fill:#1f77b4;"/>
   </g>
   <g id="patch_76">
    <path clip-path="url(#pb018b64fe5)" d="M 298.817901 307.584 
L 301.541776 307.584 
L 301.541776 269.768091 
L 298.817901 269.768091 
z
" style="fill:#1f77b4;"/>
   </g>
   <g id="patch_77">
    <path clip-path="url(#pb018b64fe5)" d="M 301.541776 307.584 
L 304.26565 307.584 
L 304.26565 267.16004 
L 301.541776 267.16004 
z
" style="fill:#1f77b4;"/>
   </g>
   <g id="patch_78">
    <path clip-path="url(#pb018b64fe5)" d="M 304.265658 307.584 
L 306.989525 307.584 
L 306.989525 271.071932 
L 304.265658 271.071932 
z
" style="fill:#1f77b4;"/>
   </g>
   <g id="patch_79">
    <path clip-path="url(#pb018b64fe5)" d="M 306.989525 307.584 
L 309.7134 307.584 
L 309.7134 259.336047 
L 306.989525 259.336047 
z
" style="fill:#1f77b4;"/>
   </g>
   <g id="patch_80">
    <path clip-path="url(#pb018b64fe5)" d="M 309.713392 307.584 
L 312.437266 307.584 
L 312.437266 256.72805 
L 309.713392 256.72805 
z
" style="fill:#1f77b4;"/>
   </g>
   <g id="patch_81">
    <path clip-path="url(#pb018b64fe5)" d="M 312.437274 307.584 
L 315.161149 307.584 
L 315.161149 255.424051 
L 312.437274 255.424051 
z
" style="fill:#1f77b4;"/>
   </g>
   <g id="patch_82">
    <path clip-path="url(#pb018b64fe5)" d="M 315.161141 307.584 
L 317.885016 307.584 
L 317.885016 252.816054 
L 315.161141 252.816054 
z
" style="fill:#1f77b4;"/>
   </g>
   <g id="patch_83">
    <path clip-path="url(#pb018b64fe5)" d="M 317.885023 307.584 
L 320.608898 307.584 
L 320.608898 248.904057 
L 317.885023 248.904057 
z
" style="fill:#1f77b4;"/>
   </g>
   <g id="patch_84">
    <path clip-path="url(#pb018b64fe5)" d="M 320.60889 307.584 
L 323.332765 307.584 
L 323.332765 247.165392 
L 320.60889 247.165392 
z
" style="fill:#1f77b4;"/>
   </g>
   <g id="patch_85">
    <path clip-path="url(#pb018b64fe5)" d="M 323.332773 307.584 
L 326.056647 307.584 
L 326.056647 248.034725 
L 323.332773 248.034725 
z
" style="fill:#1f77b4;"/>
   </g>
   <g id="patch_86">
    <path clip-path="url(#pb018b64fe5)" d="M 326.05664 307.584 
L 328.780514 307.584 
L 328.780514 236.733403 
L 326.05664 236.733403 
z
" style="fill:#1f77b4;"/>
   </g>
   <g id="patch_87">
    <path clip-path="url(#pb018b64fe5)" d="M 328.780522 307.584 
L 331.504397 307.584 
L 331.504397 241.514731 
L 328.780522 241.514731 
z
" style="fill:#1f77b4;"/>
   </g>
   <g id="patch_88">
    <path clip-path="url(#pb018b64fe5)" d="M 331.504397 307.584 
L 334.228264 307.584 
L 334.228264 244.122548 
L 331.504397 244.122548 
z
" style="fill:#1f77b4;"/>
   </g>
   <g id="patch_89">
    <path clip-path="url(#pb018b64fe5)" d="M 334.228256 307.584 
L 336.95213 307.584 
L 336.95213 242.81873 
L 334.228256 242.81873 
z
" style="fill:#1f77b4;"/>
   </g>
   <g id="patch_90">
    <path clip-path="url(#pb018b64fe5)" d="M 336.952138 307.584 
L 339.676013 307.584 
L 339.676013 235.86407 
L 336.952138 235.86407 
z
" style="fill:#1f77b4;"/>
   </g>
   <g id="patch_91">
    <path clip-path="url(#pb018b64fe5)" d="M 339.676005 307.584 
L 342.39988 307.584 
L 342.39988 233.690739 
L 339.676005 233.690739 
z
" style="fill:#1f77b4;"/>
   </g>
   <g id="patch_92">
    <path clip-path="url(#pb018b64fe5)" d="M 342.399887 307.584 
L 345.123762 307.584 
L 345.123762 240.645399 
L 342.399887 240.645399 
z
" style="fill:#1f77b4;"/>
   </g>
   <g id="patch_93">
    <path clip-path="url(#pb018b64fe5)" d="M 345.123754 307.584 
L 347.847629 307.584 
L 347.847629 231.082742 
L 345.123754 231.082742 
z
" style="fill:#1f77b4;"/>
   </g>
   <g id="patch_94">
    <path clip-path="url(#pb018b64fe5)" d="M 347.847637 307.584 
L 350.571511 307.584 
L 350.571511 252.381387 
L 347.847637 252.381387 
z
" style="fill:#1f77b4;"/>
   </g>
   <g id="patch_95">
    <path clip-path="url(#pb018b64fe5)" d="M 350.571504 307.584 
L 353.295378 307.584 
L 353.295378 244.557395 
L 350.571504 244.557395 
z
" style="fill:#1f77b4;"/>
   </g>
   <g id="patch_96">
    <path clip-path="url(#pb018b64fe5)" d="M 353.295386 307.584 
L 356.019261 307.584 
L 356.019261 240.645399 
L 353.295386 240.645399 
z
" style="fill:#1f77b4;"/>
   </g>
   <g id="patch_97">
    <path clip-path="url(#pb018b64fe5)" d="M 356.019253 307.584 
L 358.743127 307.584 
L 358.743127 240.645399 
L 356.019253 240.645399 
z
" style="fill:#1f77b4;"/>
   </g>
   <g id="patch_98">
    <path clip-path="url(#pb018b64fe5)" d="M 358.743135 307.584 
L 361.467002 307.584 
L 361.467002 246.295886 
L 358.743135 246.295886 
z
" style="fill:#1f77b4;"/>
   </g>
   <g id="patch_99">
    <path clip-path="url(#pb018b64fe5)" d="M 361.467002 307.584 
L 364.190877 307.584 
L 364.190877 262.378711 
L 361.467002 262.378711 
z
" style="fill:#1f77b4;"/>
   </g>
   <g id="patch_100">
    <path clip-path="url(#pb018b64fe5)" d="M 364.190869 307.584 
L 366.914736 307.584 
L 366.914736 271.072036 
L 364.190869 271.072036 
z
" style="fill:#1f77b4;"/>
   </g>
   <g id="patch_101">
    <path clip-path="url(#pb018b64fe5)" d="M 366.914751 307.584 
L 369.638634 307.584 
L 369.638634 289.32807 
L 366.914751 289.32807 
z
" style="fill:#1f77b4;"/>
   </g>
   <g id="patch_102">
    <path clip-path="url(#pb018b64fe5)" d="M 369.638649 307.584 
L 372.362516 307.584 
L 372.362516 279.765282 
L 369.638649 279.765282 
z
" style="fill:#1f77b4;"/>
   </g>
   <g id="matplotlib.axis_1">
    <g id="xtick_1">
     <g id="line2d_1">
      <defs>
       <path d="M 0 0 
L 0 3.5 
" id="mab34c015ca" style="stroke:#000000;stroke-width:0.8;"/>
      </defs>
      <g>
       <use style="stroke:#000000;stroke-width:0.8;" x="106.29948" xlink:href="#mab34c015ca" y="307.584"/>
      </g>
     </g>
     <g id="text_1">
      <!-- −2 -->
      <defs>
       <path d="M 10.59375 35.5 
L 73.1875 35.5 
L 73.1875 27.203125 
L 10.59375 27.203125 
z
" id="DejaVuSans-8722"/>
       <path d="M 19.1875 8.296875 
L 53.609375 8.296875 
L 53.609375 0 
L 7.328125 0 
L 7.328125 8.296875 
Q 12.9375 14.109375 22.625 23.890625 
Q 32.328125 33.6875 34.8125 36.53125 
Q 39.546875 41.84375 41.421875 45.53125 
Q 43.3125 49.21875 43.3125 52.78125 
Q 43.3125 58.59375 39.234375 62.25 
Q 35.15625 65.921875 28.609375 65.921875 
Q 23.96875 65.921875 18.8125 64.3125 
Q 13.671875 62.703125 7.8125 59.421875 
L 7.8125 69.390625 
Q 13.765625 71.78125 18.9375 73 
Q 24.125 74.21875 28.421875 74.21875 
Q 39.75 74.21875 46.484375 68.546875 
Q 53.21875 62.890625 53.21875 53.421875 
Q 53.21875 48.921875 51.53125 44.890625 
Q 49.859375 40.875 45.40625 35.40625 
Q 44.1875 33.984375 37.640625 27.21875 
Q 31.109375 20.453125 19.1875 8.296875 
z
" id="DejaVuSans-50"/>
      </defs>
      <g transform="translate(93.768621 327.501344)scale(0.17 -0.17)">
       <use xlink:href="#DejaVuSans-8722"/>
       <use x="83.789062" xlink:href="#DejaVuSans-50"/>
      </g>
     </g>
    </g>
    <g id="xtick_2">
     <g id="line2d_2">
      <g>
       <use style="stroke:#000000;stroke-width:0.8;" x="171.232987" xlink:href="#mab34c015ca" y="307.584"/>
      </g>
     </g>
     <g id="text_2">
      <!-- −1 -->
      <defs>
       <path d="M 12.40625 8.296875 
L 28.515625 8.296875 
L 28.515625 63.921875 
L 10.984375 60.40625 
L 10.984375 69.390625 
L 28.421875 72.90625 
L 38.28125 72.90625 
L 38.28125 8.296875 
L 54.390625 8.296875 
L 54.390625 0 
L 12.40625 0 
z
" id="DejaVuSans-49"/>
      </defs>
      <g transform="translate(158.702128 327.501344)scale(0.17 -0.17)">
       <use xlink:href="#DejaVuSans-8722"/>
       <use x="83.789062" xlink:href="#DejaVuSans-49"/>
      </g>
     </g>
    </g>
    <g id="xtick_3">
     <g id="line2d_3">
      <g>
       <use style="stroke:#000000;stroke-width:0.8;" x="236.166493" xlink:href="#mab34c015ca" y="307.584"/>
      </g>
     </g>
     <g id="text_3">
      <!-- 0 -->
      <defs>
       <path d="M 31.78125 66.40625 
Q 24.171875 66.40625 20.328125 58.90625 
Q 16.5 51.421875 16.5 36.375 
Q 16.5 21.390625 20.328125 13.890625 
Q 24.171875 6.390625 31.78125 6.390625 
Q 39.453125 6.390625 43.28125 13.890625 
Q 47.125 21.390625 47.125 36.375 
Q 47.125 51.421875 43.28125 58.90625 
Q 39.453125 66.40625 31.78125 66.40625 
z
M 31.78125 74.21875 
Q 44.046875 74.21875 50.515625 64.515625 
Q 56.984375 54.828125 56.984375 36.375 
Q 56.984375 17.96875 50.515625 8.265625 
Q 44.046875 -1.421875 31.78125 -1.421875 
Q 19.53125 -1.421875 13.0625 8.265625 
Q 6.59375 17.96875 6.59375 36.375 
Q 6.59375 54.828125 13.0625 64.515625 
Q 19.53125 74.21875 31.78125 74.21875 
z
" id="DejaVuSans-48"/>
      </defs>
      <g transform="translate(230.758368 327.501344)scale(0.17 -0.17)">
       <use xlink:href="#DejaVuSans-48"/>
      </g>
     </g>
    </g>
    <g id="xtick_4">
     <g id="line2d_4">
      <g>
       <use style="stroke:#000000;stroke-width:0.8;" x="301.1" xlink:href="#mab34c015ca" y="307.584"/>
      </g>
     </g>
     <g id="text_4">
      <!-- 1 -->
      <g transform="translate(295.691875 327.501344)scale(0.17 -0.17)">
       <use xlink:href="#DejaVuSans-49"/>
      </g>
     </g>
    </g>
    <g id="xtick_5">
     <g id="line2d_5">
      <g>
       <use style="stroke:#000000;stroke-width:0.8;" x="366.033506" xlink:href="#mab34c015ca" y="307.584"/>
      </g>
     </g>
     <g id="text_5">
      <!-- 2 -->
      <g transform="translate(360.625381 327.501344)scale(0.17 -0.17)">
       <use xlink:href="#DejaVuSans-50"/>
      </g>
     </g>
    </g>
    <g id="text_6">
     <!-- Position in Radian -->
     <defs>
      <path d="M 19.671875 64.796875 
L 19.671875 37.40625 
L 32.078125 37.40625 
Q 38.96875 37.40625 42.71875 40.96875 
Q 46.484375 44.53125 46.484375 51.125 
Q 46.484375 57.671875 42.71875 61.234375 
Q 38.96875 64.796875 32.078125 64.796875 
z
M 9.8125 72.90625 
L 32.078125 72.90625 
Q 44.34375 72.90625 50.609375 67.359375 
Q 56.890625 61.8125 56.890625 51.125 
Q 56.890625 40.328125 50.609375 34.8125 
Q 44.34375 29.296875 32.078125 29.296875 
L 19.671875 29.296875 
L 19.671875 0 
L 9.8125 0 
z
" id="DejaVuSans-80"/>
      <path d="M 30.609375 48.390625 
Q 23.390625 48.390625 19.1875 42.75 
Q 14.984375 37.109375 14.984375 27.296875 
Q 14.984375 17.484375 19.15625 11.84375 
Q 23.34375 6.203125 30.609375 6.203125 
Q 37.796875 6.203125 41.984375 11.859375 
Q 46.1875 17.53125 46.1875 27.296875 
Q 46.1875 37.015625 41.984375 42.703125 
Q 37.796875 48.390625 30.609375 48.390625 
z
M 30.609375 56 
Q 42.328125 56 49.015625 48.375 
Q 55.71875 40.765625 55.71875 27.296875 
Q 55.71875 13.875 49.015625 6.21875 
Q 42.328125 -1.421875 30.609375 -1.421875 
Q 18.84375 -1.421875 12.171875 6.21875 
Q 5.515625 13.875 5.515625 27.296875 
Q 5.515625 40.765625 12.171875 48.375 
Q 18.84375 56 30.609375 56 
z
" id="DejaVuSans-111"/>
      <path d="M 44.28125 53.078125 
L 44.28125 44.578125 
Q 40.484375 46.53125 36.375 47.5 
Q 32.28125 48.484375 27.875 48.484375 
Q 21.1875 48.484375 17.84375 46.4375 
Q 14.5 44.390625 14.5 40.28125 
Q 14.5 37.15625 16.890625 35.375 
Q 19.28125 33.59375 26.515625 31.984375 
L 29.59375 31.296875 
Q 39.15625 29.25 43.1875 25.515625 
Q 47.21875 21.78125 47.21875 15.09375 
Q 47.21875 7.46875 41.1875 3.015625 
Q 35.15625 -1.421875 24.609375 -1.421875 
Q 20.21875 -1.421875 15.453125 -0.5625 
Q 10.6875 0.296875 5.421875 2 
L 5.421875 11.28125 
Q 10.40625 8.6875 15.234375 7.390625 
Q 20.0625 6.109375 24.8125 6.109375 
Q 31.15625 6.109375 34.5625 8.28125 
Q 37.984375 10.453125 37.984375 14.40625 
Q 37.984375 18.0625 35.515625 20.015625 
Q 33.0625 21.96875 24.703125 23.78125 
L 21.578125 24.515625 
Q 13.234375 26.265625 9.515625 29.90625 
Q 5.8125 33.546875 5.8125 39.890625 
Q 5.8125 47.609375 11.28125 51.796875 
Q 16.75 56 26.8125 56 
Q 31.78125 56 36.171875 55.265625 
Q 40.578125 54.546875 44.28125 53.078125 
z
" id="DejaVuSans-115"/>
      <path d="M 9.421875 54.6875 
L 18.40625 54.6875 
L 18.40625 0 
L 9.421875 0 
z
M 9.421875 75.984375 
L 18.40625 75.984375 
L 18.40625 64.59375 
L 9.421875 64.59375 
z
" id="DejaVuSans-105"/>
      <path d="M 18.3125 70.21875 
L 18.3125 54.6875 
L 36.8125 54.6875 
L 36.8125 47.703125 
L 18.3125 47.703125 
L 18.3125 18.015625 
Q 18.3125 11.328125 20.140625 9.421875 
Q 21.96875 7.515625 27.59375 7.515625 
L 36.8125 7.515625 
L 36.8125 0 
L 27.59375 0 
Q 17.1875 0 13.234375 3.875 
Q 9.28125 7.765625 9.28125 18.015625 
L 9.28125 47.703125 
L 2.6875 47.703125 
L 2.6875 54.6875 
L 9.28125 54.6875 
L 9.28125 70.21875 
z
" id="DejaVuSans-116"/>
      <path d="M 54.890625 33.015625 
L 54.890625 0 
L 45.90625 0 
L 45.90625 32.71875 
Q 45.90625 40.484375 42.875 44.328125 
Q 39.84375 48.1875 33.796875 48.1875 
Q 26.515625 48.1875 22.3125 43.546875 
Q 18.109375 38.921875 18.109375 30.90625 
L 18.109375 0 
L 9.078125 0 
L 9.078125 54.6875 
L 18.109375 54.6875 
L 18.109375 46.1875 
Q 21.34375 51.125 25.703125 53.5625 
Q 30.078125 56 35.796875 56 
Q 45.21875 56 50.046875 50.171875 
Q 54.890625 44.34375 54.890625 33.015625 
z
" id="DejaVuSans-110"/>
      <path id="DejaVuSans-32"/>
      <path d="M 44.390625 34.1875 
Q 47.5625 33.109375 50.5625 29.59375 
Q 53.5625 26.078125 56.59375 19.921875 
L 66.609375 0 
L 56 0 
L 46.6875 18.703125 
Q 43.0625 26.03125 39.671875 28.421875 
Q 36.28125 30.8125 30.421875 30.8125 
L 19.671875 30.8125 
L 19.671875 0 
L 9.8125 0 
L 9.8125 72.90625 
L 32.078125 72.90625 
Q 44.578125 72.90625 50.734375 67.671875 
Q 56.890625 62.453125 56.890625 51.90625 
Q 56.890625 45.015625 53.6875 40.46875 
Q 50.484375 35.9375 44.390625 34.1875 
z
M 19.671875 64.796875 
L 19.671875 38.921875 
L 32.078125 38.921875 
Q 39.203125 38.921875 42.84375 42.21875 
Q 46.484375 45.515625 46.484375 51.90625 
Q 46.484375 58.296875 42.84375 61.546875 
Q 39.203125 64.796875 32.078125 64.796875 
z
" id="DejaVuSans-82"/>
      <path d="M 34.28125 27.484375 
Q 23.390625 27.484375 19.1875 25 
Q 14.984375 22.515625 14.984375 16.5 
Q 14.984375 11.71875 18.140625 8.90625 
Q 21.296875 6.109375 26.703125 6.109375 
Q 34.1875 6.109375 38.703125 11.40625 
Q 43.21875 16.703125 43.21875 25.484375 
L 43.21875 27.484375 
z
M 52.203125 31.203125 
L 52.203125 0 
L 43.21875 0 
L 43.21875 8.296875 
Q 40.140625 3.328125 35.546875 0.953125 
Q 30.953125 -1.421875 24.3125 -1.421875 
Q 15.921875 -1.421875 10.953125 3.296875 
Q 6 8.015625 6 15.921875 
Q 6 25.140625 12.171875 29.828125 
Q 18.359375 34.515625 30.609375 34.515625 
L 43.21875 34.515625 
L 43.21875 35.40625 
Q 43.21875 41.609375 39.140625 45 
Q 35.0625 48.390625 27.6875 48.390625 
Q 23 48.390625 18.546875 47.265625 
Q 14.109375 46.140625 10.015625 43.890625 
L 10.015625 52.203125 
Q 14.9375 54.109375 19.578125 55.046875 
Q 24.21875 56 28.609375 56 
Q 40.484375 56 46.34375 49.84375 
Q 52.203125 43.703125 52.203125 31.203125 
z
" id="DejaVuSans-97"/>
      <path d="M 45.40625 46.390625 
L 45.40625 75.984375 
L 54.390625 75.984375 
L 54.390625 0 
L 45.40625 0 
L 45.40625 8.203125 
Q 42.578125 3.328125 38.25 0.953125 
Q 33.9375 -1.421875 27.875 -1.421875 
Q 17.96875 -1.421875 11.734375 6.484375 
Q 5.515625 14.40625 5.515625 27.296875 
Q 5.515625 40.1875 11.734375 48.09375 
Q 17.96875 56 27.875 56 
Q 33.9375 56 38.25 53.625 
Q 42.578125 51.265625 45.40625 46.390625 
z
M 14.796875 27.296875 
Q 14.796875 17.390625 18.875 11.75 
Q 22.953125 6.109375 30.078125 6.109375 
Q 37.203125 6.109375 41.296875 11.75 
Q 45.40625 17.390625 45.40625 27.296875 
Q 45.40625 37.203125 41.296875 42.84375 
Q 37.203125 48.484375 30.078125 48.484375 
Q 22.953125 48.484375 18.875 42.84375 
Q 14.796875 37.203125 14.796875 27.296875 
z
" id="DejaVuSans-100"/>
     </defs>
     <g transform="translate(102.024844 357.832125)scale(0.3 -0.3)">
      <use xlink:href="#DejaVuSans-80"/>
      <use x="60.255859" xlink:href="#DejaVuSans-111"/>
      <use x="121.4375" xlink:href="#DejaVuSans-115"/>
      <use x="173.537109" xlink:href="#DejaVuSans-105"/>
      <use x="201.320312" xlink:href="#DejaVuSans-116"/>
      <use x="240.529297" xlink:href="#DejaVuSans-105"/>
      <use x="268.3125" xlink:href="#DejaVuSans-111"/>
      <use x="329.494141" xlink:href="#DejaVuSans-110"/>
      <use x="392.873047" xlink:href="#DejaVuSans-32"/>
      <use x="424.660156" xlink:href="#DejaVuSans-105"/>
      <use x="452.443359" xlink:href="#DejaVuSans-110"/>
      <use x="515.822266" xlink:href="#DejaVuSans-32"/>
      <use x="547.609375" xlink:href="#DejaVuSans-82"/>
      <use x="617.060547" xlink:href="#DejaVuSans-97"/>
      <use x="678.339844" xlink:href="#DejaVuSans-100"/>
      <use x="741.816406" xlink:href="#DejaVuSans-105"/>
      <use x="769.599609" xlink:href="#DejaVuSans-97"/>
      <use x="830.878906" xlink:href="#DejaVuSans-110"/>
     </g>
    </g>
   </g>
   <g id="matplotlib.axis_2">
    <g id="ytick_1">
     <g id="line2d_6">
      <defs>
       <path d="M 0 0 
L -3.5 0 
" id="ma6ad3fa9f1" style="stroke:#000000;stroke-width:0.8;"/>
      </defs>
      <g>
       <use style="stroke:#000000;stroke-width:0.8;" x="57.6" xlink:href="#ma6ad3fa9f1" y="307.584"/>
      </g>
     </g>
     <g id="text_7">
      <!-- 0.0 -->
      <defs>
       <path d="M 10.6875 12.40625 
L 21 12.40625 
L 21 0 
L 10.6875 0 
z
" id="DejaVuSans-46"/>
      </defs>
      <g transform="translate(23.564687 314.042672)scale(0.17 -0.17)">
       <use xlink:href="#DejaVuSans-48"/>
       <use x="63.623047" xlink:href="#DejaVuSans-46"/>
       <use x="95.410156" xlink:href="#DejaVuSans-48"/>
      </g>
     </g>
    </g>
    <g id="ytick_2">
     <g id="line2d_7">
      <g>
       <use style="stroke:#000000;stroke-width:0.8;" x="57.6" xlink:href="#ma6ad3fa9f1" y="261.999817"/>
      </g>
     </g>
     <g id="text_8">
      <!-- 0.2 -->
      <g transform="translate(23.564687 268.458488)scale(0.17 -0.17)">
       <use xlink:href="#DejaVuSans-48"/>
       <use x="63.623047" xlink:href="#DejaVuSans-46"/>
       <use x="95.410156" xlink:href="#DejaVuSans-50"/>
      </g>
     </g>
    </g>
    <g id="ytick_3">
     <g id="line2d_8">
      <g>
       <use style="stroke:#000000;stroke-width:0.8;" x="57.6" xlink:href="#ma6ad3fa9f1" y="216.415633"/>
      </g>
     </g>
     <g id="text_9">
      <!-- 0.4 -->
      <defs>
       <path d="M 37.796875 64.3125 
L 12.890625 25.390625 
L 37.796875 25.390625 
z
M 35.203125 72.90625 
L 47.609375 72.90625 
L 47.609375 25.390625 
L 58.015625 25.390625 
L 58.015625 17.1875 
L 47.609375 17.1875 
L 47.609375 0 
L 37.796875 0 
L 37.796875 17.1875 
L 4.890625 17.1875 
L 4.890625 26.703125 
z
" id="DejaVuSans-52"/>
      </defs>
      <g transform="translate(23.564687 222.874305)scale(0.17 -0.17)">
       <use xlink:href="#DejaVuSans-48"/>
       <use x="63.623047" xlink:href="#DejaVuSans-46"/>
       <use x="95.410156" xlink:href="#DejaVuSans-52"/>
      </g>
     </g>
    </g>
    <g id="ytick_4">
     <g id="line2d_9">
      <g>
       <use style="stroke:#000000;stroke-width:0.8;" x="57.6" xlink:href="#ma6ad3fa9f1" y="170.83145"/>
      </g>
     </g>
     <g id="text_10">
      <!-- 0.6 -->
      <defs>
       <path d="M 33.015625 40.375 
Q 26.375 40.375 22.484375 35.828125 
Q 18.609375 31.296875 18.609375 23.390625 
Q 18.609375 15.53125 22.484375 10.953125 
Q 26.375 6.390625 33.015625 6.390625 
Q 39.65625 6.390625 43.53125 10.953125 
Q 47.40625 15.53125 47.40625 23.390625 
Q 47.40625 31.296875 43.53125 35.828125 
Q 39.65625 40.375 33.015625 40.375 
z
M 52.59375 71.296875 
L 52.59375 62.3125 
Q 48.875 64.0625 45.09375 64.984375 
Q 41.3125 65.921875 37.59375 65.921875 
Q 27.828125 65.921875 22.671875 59.328125 
Q 17.53125 52.734375 16.796875 39.40625 
Q 19.671875 43.65625 24.015625 45.921875 
Q 28.375 48.1875 33.59375 48.1875 
Q 44.578125 48.1875 50.953125 41.515625 
Q 57.328125 34.859375 57.328125 23.390625 
Q 57.328125 12.15625 50.6875 5.359375 
Q 44.046875 -1.421875 33.015625 -1.421875 
Q 20.359375 -1.421875 13.671875 8.265625 
Q 6.984375 17.96875 6.984375 36.375 
Q 6.984375 53.65625 15.1875 63.9375 
Q 23.390625 74.21875 37.203125 74.21875 
Q 40.921875 74.21875 44.703125 73.484375 
Q 48.484375 72.75 52.59375 71.296875 
z
" id="DejaVuSans-54"/>
      </defs>
      <g transform="translate(23.564687 177.290122)scale(0.17 -0.17)">
       <use xlink:href="#DejaVuSans-48"/>
       <use x="63.623047" xlink:href="#DejaVuSans-46"/>
       <use x="95.410156" xlink:href="#DejaVuSans-54"/>
      </g>
     </g>
    </g>
    <g id="ytick_5">
     <g id="line2d_10">
      <g>
       <use style="stroke:#000000;stroke-width:0.8;" x="57.6" xlink:href="#ma6ad3fa9f1" y="125.247266"/>
      </g>
     </g>
     <g id="text_11">
      <!-- 0.8 -->
      <defs>
       <path d="M 31.78125 34.625 
Q 24.75 34.625 20.71875 30.859375 
Q 16.703125 27.09375 16.703125 20.515625 
Q 16.703125 13.921875 20.71875 10.15625 
Q 24.75 6.390625 31.78125 6.390625 
Q 38.8125 6.390625 42.859375 10.171875 
Q 46.921875 13.96875 46.921875 20.515625 
Q 46.921875 27.09375 42.890625 30.859375 
Q 38.875 34.625 31.78125 34.625 
z
M 21.921875 38.8125 
Q 15.578125 40.375 12.03125 44.71875 
Q 8.5 49.078125 8.5 55.328125 
Q 8.5 64.0625 14.71875 69.140625 
Q 20.953125 74.21875 31.78125 74.21875 
Q 42.671875 74.21875 48.875 69.140625 
Q 55.078125 64.0625 55.078125 55.328125 
Q 55.078125 49.078125 51.53125 44.71875 
Q 48 40.375 41.703125 38.8125 
Q 48.828125 37.15625 52.796875 32.3125 
Q 56.78125 27.484375 56.78125 20.515625 
Q 56.78125 9.90625 50.3125 4.234375 
Q 43.84375 -1.421875 31.78125 -1.421875 
Q 19.734375 -1.421875 13.25 4.234375 
Q 6.78125 9.90625 6.78125 20.515625 
Q 6.78125 27.484375 10.78125 32.3125 
Q 14.796875 37.15625 21.921875 38.8125 
z
M 18.3125 54.390625 
Q 18.3125 48.734375 21.84375 45.5625 
Q 25.390625 42.390625 31.78125 42.390625 
Q 38.140625 42.390625 41.71875 45.5625 
Q 45.3125 48.734375 45.3125 54.390625 
Q 45.3125 60.0625 41.71875 63.234375 
Q 38.140625 66.40625 31.78125 66.40625 
Q 25.390625 66.40625 21.84375 63.234375 
Q 18.3125 60.0625 18.3125 54.390625 
z
" id="DejaVuSans-56"/>
      </defs>
      <g transform="translate(23.564687 131.705938)scale(0.17 -0.17)">
       <use xlink:href="#DejaVuSans-48"/>
       <use x="63.623047" xlink:href="#DejaVuSans-46"/>
       <use x="95.410156" xlink:href="#DejaVuSans-56"/>
      </g>
     </g>
    </g>
    <g id="ytick_6">
     <g id="line2d_11">
      <g>
       <use style="stroke:#000000;stroke-width:0.8;" x="57.6" xlink:href="#ma6ad3fa9f1" y="79.663083"/>
      </g>
     </g>
     <g id="text_12">
      <!-- 1.0 -->
      <g transform="translate(23.564687 86.121755)scale(0.17 -0.17)">
       <use xlink:href="#DejaVuSans-49"/>
       <use x="63.623047" xlink:href="#DejaVuSans-46"/>
       <use x="95.410156" xlink:href="#DejaVuSans-48"/>
      </g>
     </g>
    </g>
    <g id="text_13">
     <!-- Density -->
     <defs>
      <path d="M 19.671875 64.796875 
L 19.671875 8.109375 
L 31.59375 8.109375 
Q 46.6875 8.109375 53.6875 14.9375 
Q 60.6875 21.78125 60.6875 36.53125 
Q 60.6875 51.171875 53.6875 57.984375 
Q 46.6875 64.796875 31.59375 64.796875 
z
M 9.8125 72.90625 
L 30.078125 72.90625 
Q 51.265625 72.90625 61.171875 64.09375 
Q 71.09375 55.28125 71.09375 36.53125 
Q 71.09375 17.671875 61.125 8.828125 
Q 51.171875 0 30.078125 0 
L 9.8125 0 
z
" id="DejaVuSans-68"/>
      <path d="M 56.203125 29.59375 
L 56.203125 25.203125 
L 14.890625 25.203125 
Q 15.484375 15.921875 20.484375 11.0625 
Q 25.484375 6.203125 34.421875 6.203125 
Q 39.59375 6.203125 44.453125 7.46875 
Q 49.3125 8.734375 54.109375 11.28125 
L 54.109375 2.78125 
Q 49.265625 0.734375 44.1875 -0.34375 
Q 39.109375 -1.421875 33.890625 -1.421875 
Q 20.796875 -1.421875 13.15625 6.1875 
Q 5.515625 13.8125 5.515625 26.8125 
Q 5.515625 40.234375 12.765625 48.109375 
Q 20.015625 56 32.328125 56 
Q 43.359375 56 49.78125 48.890625 
Q 56.203125 41.796875 56.203125 29.59375 
z
M 47.21875 32.234375 
Q 47.125 39.59375 43.09375 43.984375 
Q 39.0625 48.390625 32.421875 48.390625 
Q 24.90625 48.390625 20.390625 44.140625 
Q 15.875 39.890625 15.1875 32.171875 
z
" id="DejaVuSans-101"/>
      <path d="M 32.171875 -5.078125 
Q 28.375 -14.84375 24.75 -17.8125 
Q 21.140625 -20.796875 15.09375 -20.796875 
L 7.90625 -20.796875 
L 7.90625 -13.28125 
L 13.1875 -13.28125 
Q 16.890625 -13.28125 18.9375 -11.515625 
Q 21 -9.765625 23.484375 -3.21875 
L 25.09375 0.875 
L 2.984375 54.6875 
L 12.5 54.6875 
L 29.59375 11.921875 
L 46.6875 54.6875 
L 56.203125 54.6875 
z
" id="DejaVuSans-121"/>
     </defs>
     <g transform="translate(13.325625 231.553781)rotate(-90)scale(0.3 -0.3)">
      <use xlink:href="#DejaVuSans-68"/>
      <use x="77.001953" xlink:href="#DejaVuSans-101"/>
      <use x="138.525391" xlink:href="#DejaVuSans-110"/>
      <use x="201.904297" xlink:href="#DejaVuSans-115"/>
      <use x="254.003906" xlink:href="#DejaVuSans-105"/>
      <use x="281.787109" xlink:href="#DejaVuSans-116"/>
      <use x="320.996094" xlink:href="#DejaVuSans-121"/>
     </g>
    </g>
   </g>
   <g id="line2d_12">
    <path clip-path="url(#pb018b64fe5)" d="M 73.832727 307.584 
L 98.130845 307.472943 
L 98.416553 307.20545 
L 98.6633 306.644688 
L 98.936021 305.400027 
L 99.273675 302.65573 
L 100.208718 294.334435 
L 100.325598 294.242185 
L 100.364558 294.273723 
L 100.507412 294.620624 
L 100.819093 296.165068 
L 101.312587 298.325409 
L 101.585308 298.69953 
L 101.832055 298.693207 
L 102.883978 298.186812 
L 103.364486 297.584053 
L 103.806034 297.171601 
L 104.156675 297.157251 
L 104.494329 297.091266 
L 104.715103 296.771445 
L 104.974837 295.931639 
L 105.338465 293.863491 
L 107.143616 282.135643 
L 107.676071 280.486795 
L 108.273459 279.369621 
L 109.117595 278.242737 
L 109.714983 277.549393 
L 110.00069 276.6999 
L 110.403278 274.661815 
L 111.02664 271.65239 
L 111.364294 271.029175 
L 111.766882 270.406444 
L 112.026616 269.452249 
L 112.351283 267.311502 
L 112.792831 262.680912 
L 113.688914 252.897779 
L 113.909687 252.386656 
L 114.026568 252.466627 
L 114.325262 253.126959 
L 114.507076 253.278474 
L 114.520062 253.268714 
L 114.636943 253.018708 
L 114.818757 251.973171 
L 115.104464 248.767118 
L 115.98756 237.942302 
L 116.247294 237.144829 
L 116.377161 237.196865 
L 116.545988 237.663976 
L 116.818709 239.244788 
L 117.909591 246.564911 
L 118.026472 246.469028 
L 118.221272 245.911415 
L 118.74074 243.468178 
L 119.130341 240.871113 
L 119.455009 236.930969 
L 120.571865 221.455861 
L 120.792639 221.064462 
L 120.961466 221.148351 
L 121.584828 221.643554 
L 122.195203 221.673848 
L 122.40299 222.147982 
L 122.740644 223.616213 
L 123.130245 224.996231 
L 123.247126 225.008383 
L 123.260112 224.994745 
L 123.402966 224.64904 
L 123.6627 223.270865 
L 124.363982 219.370646 
L 124.68865 218.763569 
L 124.935397 218.67459 
L 125.117211 218.837746 
L 125.324998 219.39821 
L 125.571745 220.814305 
L 125.909399 224.256262 
L 126.727562 233.060365 
L 126.935349 233.496645 
L 127.052229 233.376162 
L 127.260016 232.71467 
L 127.883378 230.589425 
L 128.026232 230.629166 
L 128.182072 231.015018 
L 128.428819 232.354655 
L 128.870367 236.304303 
L 129.350875 239.961908 
L 129.558662 240.363776 
L 129.662556 240.236536 
L 129.84437 239.56515 
L 131.376801 232.404357 
L 131.701468 231.470053 
L 131.818349 231.522152 
L 131.961202 231.970565 
L 132.194963 233.61542 
L 132.779364 240.063017 
L 133.181952 243.01509 
L 133.480646 243.803388 
L 133.948168 244.657154 
L 134.246862 246.026256 
L 135.493585 253.808819 
L 136.090973 259.38449 
L 136.636415 263.695198 
L 136.870175 264.280436 
L 136.974069 264.198422 
L 137.129909 263.66411 
L 137.389643 261.792933 
L 138.298712 254.405726 
L 138.571433 253.938025 
L 138.896101 253.471797 
L 139.155835 252.523166 
L 139.870103 249.633747 
L 139.986984 249.711755 
L 140.155811 250.189751 
L 140.506452 252.06186 
L 141.038906 254.594211 
L 141.506428 255.633454 
L 141.805122 256.615664 
L 142.259656 259.132789 
L 142.636271 260.635348 
L 142.779124 260.692351 
L 142.792111 260.681055 
L 142.934965 260.380166 
L 143.181712 259.193723 
L 143.62326 255.743894 
L 144.973877 244.447963 
L 145.155691 244.369857 
L 145.324518 244.620802 
L 145.649185 245.606574 
L 146.129693 247.802794 
L 147.32447 253.882839 
L 147.636151 254.198737 
L 148.181592 254.627967 
L 148.62314 255.01777 
L 148.765994 254.856434 
L 148.947808 254.243679 
L 149.207542 252.446676 
L 149.662076 247.344968 
L 150.558158 237.531382 
L 150.98672 234.82309 
L 151.194507 234.478387 
L 151.2984 234.632671 
L 151.467228 235.390964 
L 151.739948 237.840771 
L 152.636031 246.706147 
L 152.895765 247.248138 
L 153.558086 247.868091 
L 154.376249 249.565684 
L 154.558062 249.46439 
L 154.791823 249.020024 
L 155.064544 247.97033 
L 155.376225 245.763864 
L 155.843746 240.488962 
L 156.376201 235.304095 
L 156.635935 234.446149 
L 156.791775 234.434279 
L 156.986576 234.752307 
L 157.545004 236.275592 
L 157.973565 237.98598 
L 158.519006 240.075106 
L 158.648873 240.104154 
L 158.66186 240.09222 
L 158.804714 239.782266 
L 159.051461 238.587518 
L 159.700796 235.255159 
L 159.830663 235.193573 
L 159.856637 235.215584 
L 159.99949 235.5375 
L 160.233251 236.727938 
L 160.661812 240.342142 
L 161.389067 246.273436 
L 161.713735 247.314085 
L 162.116323 247.782073 
L 162.40203 248.335988 
L 163.155259 250.030395 
L 163.311099 249.924307 
L 163.557846 249.397302 
L 164.311075 247.61122 
L 164.492889 247.620269 
L 164.674703 247.922009 
L 164.934437 248.873558 
L 165.531825 251.194376 
L 165.635719 251.117714 
L 165.791559 250.5588 
L 166.06428 248.494368 
L 166.583748 244.685788 
L 166.687641 244.584254 
L 166.726602 244.626066 
L 166.856469 245.076702 
L 167.090229 246.933166 
L 168.155139 256.775371 
L 168.73954 260.101274 
L 169.934317 268.4633 
L 170.570665 270.360109 
L 170.882346 270.793942 
L 171.038186 270.715438 
L 171.232987 270.273615 
L 171.544668 268.863826 
L 172.492697 262.956915 
L 173.479686 257.080486 
L 173.73942 256.675372 
L 173.921234 256.727852 
L 174.219928 257.138742 
L 174.713423 257.738282 
L 175.064064 257.808142 
L 175.453665 257.907105 
L 175.687425 258.23272 
L 175.973133 259.0683 
L 176.414681 261.199845 
L 177.583484 267.061497 
L 177.856205 267.535268 
L 177.986072 267.427975 
L 178.154899 266.890194 
L 178.414633 265.169016 
L 179.401622 257.614795 
L 179.505516 257.71558 
L 179.674343 258.368072 
L 179.986024 260.728798 
L 180.726266 266.472861 
L 180.960026 266.942495 
L 181.06392 266.829039 
L 181.232747 266.193855 
L 181.505468 264.06713 
L 182.55739 254.66046 
L 182.804138 254.295596 
L 183.037898 254.323785 
L 183.6223 254.722323 
L 183.946967 255.21754 
L 184.336569 256.299329 
L 185.063824 258.314508 
L 185.661212 259.559371 
L 185.998866 261.124666 
L 186.830015 265.195236 
L 187.063776 265.422243 
L 187.219616 265.271569 
L 187.427403 264.685381 
L 187.726098 263.055968 
L 188.193619 259.007129 
L 188.752047 254.72762 
L 188.972821 254.300277 
L 189.076714 254.436019 
L 189.258528 255.167113 
L 189.596183 257.719364 
L 190.219544 262.217448 
L 190.518238 262.967177 
L 190.764986 263.086754 
L 191.375361 262.980267 
L 192.44027 262.826568 
L 192.933765 263.02224 
L 193.167525 262.829072 
L 193.933741 262.027361 
L 194.349315 261.895151 
L 194.570089 261.474202 
L 194.855797 260.355286 
L 195.310331 257.490671 
L 195.907719 254.002142 
L 196.115507 253.718939 
L 196.245374 253.88259 
L 196.466148 254.666593 
L 197.712871 261.052507 
L 198.414153 264.864274 
L 198.58298 264.966901 
L 198.725834 264.735729 
L 198.985568 263.758819 
L 199.595943 260.325395 
L 200.375145 256.21338 
L 200.595919 255.96403 
L 200.725786 256.114898 
L 200.933573 256.778337 
L 201.2972 258.854266 
L 202.336137 265.232956 
L 202.466004 265.285155 
L 202.47899 265.273682 
L 202.621844 264.948233 
L 202.868591 263.650946 
L 203.452993 260.498462 
L 203.5439 260.498293 
L 203.569873 260.534654 
L 203.712727 261.023324 
L 203.959474 262.862706 
L 204.80361 269.83917 
L 205.024384 270.196941 
L 205.154251 270.102297 
L 205.349051 269.590983 
L 205.647745 268.048751 
L 206.764602 261.36093 
L 206.933429 261.38482 
L 207.310043 261.532122 
L 207.465884 261.174811 
L 207.686657 259.938381 
L 208.037298 256.421322 
L 208.790527 248.889298 
L 209.154155 247.331422 
L 209.413889 246.965994 
L 209.582716 247.026725 
L 209.790503 247.40836 
L 210.128157 248.593159 
L 210.868399 251.213453 
L 211.14112 251.492756 
L 211.413841 251.441952 
L 211.673575 251.468103 
L 211.855389 251.774011 
L 212.128109 252.802597 
L 212.595631 254.476123 
L 212.699524 254.402939 
L 212.842378 253.889309 
L 213.089125 251.98648 
L 213.686513 247.204067 
L 213.77742 247.117435 
L 213.81638 247.154191 
L 213.946247 247.587648 
L 214.180008 249.389786 
L 215.102064 257.48221 
L 215.205957 257.535162 
L 215.231931 257.509488 
L 215.361798 257.157335 
L 215.595559 255.733834 
L 216.283854 251.236666 
L 216.387747 251.190604 
L 216.413721 251.213134 
L 216.556574 251.551308 
L 217.218896 253.907347 
L 217.296816 253.823007 
L 217.465643 253.251913 
L 217.855245 250.796789 
L 218.179912 249.44412 
L 218.296792 249.413807 
L 218.309779 249.426836 
L 218.452633 249.771714 
L 218.725354 251.184154 
L 219.244822 253.739488 
L 219.439622 253.921075 
L 219.595463 253.751622 
L 220.218824 252.711491 
L 220.257784 252.746034 
L 220.413625 253.094714 
L 220.647385 254.261366 
L 221.06296 257.751502 
L 221.764242 263.384693 
L 222.062936 264.346824 
L 222.218776 264.380215 
L 222.36163 264.105429 
L 222.582404 263.089774 
L 222.920058 260.262385 
L 224.075874 249.47644 
L 225.049877 244.660114 
L 225.569345 241.412556 
L 225.686225 241.294997 
L 225.725186 241.329909 
L 225.855053 241.719548 
L 226.075826 243.259919 
L 227.192683 252.462386 
L 227.582284 253.264569 
L 227.932925 253.605347 
L 228.088765 253.518361 
L 228.270579 253.081308 
L 228.530313 251.715565 
L 229.556262 245.404397 
L 229.751063 245.328029 
L 230.296504 245.424472 
L 230.465331 244.860751 
L 230.673119 243.244565 
L 230.945839 239.138419 
L 231.906855 221.8864 
L 231.932829 221.914574 
L 232.023736 222.336911 
L 232.205549 224.568637 
L 232.59515 233.064429 
L 233.062672 241.527671 
L 233.322406 243.063176 
L 233.413313 243.105866 
L 233.452273 243.061144 
L 233.608113 242.58014 
L 233.906807 240.756597 
L 234.231475 237.437174 
L 234.478222 232.427276 
L 234.72497 222.348788 
L 234.99769 201.07042 
L 235.361318 152.036083 
L 236.049613 57.138289 
L 236.166493 54.144 
L 236.205453 54.436476 
L 236.309347 58.340625 
L 236.504148 76.709318 
L 236.945695 146.798766 
L 237.43919 209.736463 
L 237.763858 227.659268 
L 238.023592 232.212049 
L 238.127485 232.494515 
L 238.166445 232.4415 
L 238.296312 231.790708 
L 238.595006 228.735565 
L 240.413145 208.424126 
L 240.465091 208.40982 
L 240.504052 208.476873 
L 240.620932 209.093584 
L 240.828719 211.719793 
L 241.17936 219.614732 
L 241.984536 238.062001 
L 242.36115 241.929703 
L 242.698804 243.411733 
L 243.036458 243.999333 
L 243.516966 244.346333 
L 244.036434 244.768001 
L 244.296168 245.327155 
L 244.568889 246.52234 
L 244.932517 249.317074 
L 245.776652 256.191434 
L 246.049373 256.8372 
L 246.231187 256.84506 
L 246.425987 256.571654 
L 246.685721 255.776427 
L 246.997402 254.004276 
L 247.490897 249.563915 
L 247.906471 246.678609 
L 248.075298 246.407346 
L 248.101272 246.419983 
L 248.218152 246.646601 
L 248.438926 247.693037 
L 249.049301 250.789294 
L 249.153195 250.798193 
L 249.179168 250.76612 
L 249.322022 250.34829 
L 249.568769 248.782848 
L 250.088237 243.632448 
L 250.906399 235.982103 
L 251.1012 235.496729 
L 251.114187 235.500722 
L 251.205093 235.670119 
L 251.360934 236.561213 
L 251.620668 239.670262 
L 252.958298 258.716374 
L 254.088141 264.986211 
L 254.360862 265.508585 
L 254.542676 265.484392 
L 254.815396 265.129611 
L 255.256944 264.634945 
L 255.841346 264.239871 
L 256.10108 263.497295 
L 256.594574 261.170442 
L 257.023136 259.646396 
L 257.295856 259.33462 
L 257.59455 259.348423 
L 257.971165 259.319854 
L 258.8153 259.04713 
L 259.243862 259.036932 
L 259.503596 258.762489 
L 259.893197 257.947979 
L 260.529545 256.671485 
L 260.737332 256.62964 
L 260.919146 256.85208 
L 261.17888 257.613478 
L 261.633415 259.819328 
L 262.256776 262.554462 
L 262.55547 263.060823 
L 262.750271 263.055657 
L 262.971045 262.775819 
L 263.321686 261.895701 
L 264.360622 259.011997 
L 264.542436 259.057849 
L 264.776196 259.418263 
L 265.191771 260.555121 
L 265.568385 262.223204 
L 265.944999 265.085667 
L 266.750175 271.519374 
L 266.996922 271.997141 
L 267.139776 271.919224 
L 267.347563 271.463638 
L 267.737164 269.947604 
L 268.85402 265.31405 
L 269.048821 265.271826 
L 269.269595 265.52858 
L 269.750103 266.089657 
L 269.95789 265.991259 
L 270.581252 265.522954 
L 270.776052 265.796939 
L 271.113707 266.758702 
L 271.724081 268.393498 
L 272.139656 268.865582 
L 273.243526 269.622043 
L 273.50326 269.522812 
L 273.81494 269.121358 
L 275.230491 266.516091 
L 276.009693 264.457809 
L 276.191507 264.479795 
L 276.399294 264.789664 
L 276.749935 265.799107 
L 277.269403 268.047736 
L 278.009645 271.219799 
L 278.178472 271.302683 
L 278.308339 271.076938 
L 278.516126 270.161606 
L 278.85378 267.460676 
L 279.555062 261.820004 
L 279.814796 261.192759 
L 279.970637 261.206613 
L 280.178424 261.530543 
L 280.555038 262.618777 
L 281.048533 264.77472 
L 281.542028 266.651533 
L 281.684881 266.714726 
L 281.697868 266.70499 
L 281.840722 266.422022 
L 282.074482 265.322851 
L 282.892645 260.947296 
L 282.996538 261.004486 
L 283.152379 261.486272 
L 283.399126 263.147558 
L 283.905607 268.54136 
L 284.399102 272.771169 
L 284.645849 273.461422 
L 284.775716 273.413547 
L 284.95753 272.972376 
L 285.451025 270.899936 
L 286.230227 268.190921 
L 287.43799 263.95557 
L 287.580844 264.053976 
L 287.788631 264.550296 
L 288.126285 266.073734 
L 289.580796 273.465773 
L 289.84053 273.810454 
L 289.983383 273.731689 
L 290.165197 273.315537 
L 290.437918 272.021302 
L 290.866479 268.70636 
L 291.684641 262.395173 
L 292.970325 256.366939 
L 293.165125 256.147687 
L 293.294992 256.323281 
L 293.50278 257.089952 
L 293.983287 260.026937 
L 294.658596 263.609138 
L 295.152091 265.236023 
L 295.385851 265.462556 
L 295.541692 265.338532 
L 295.775452 264.766724 
L 296.411801 263.036722 
L 296.541668 263.139042 
L 296.723481 263.688801 
L 297.022176 265.486882 
L 298.50266 275.746438 
L 298.645513 275.72723 
L 298.81434 275.350596 
L 299.126021 273.963668 
L 300.424691 267.669341 
L 300.671439 267.329693 
L 300.827279 267.427144 
L 301.1 267.968621 
L 301.476614 268.561147 
L 301.645441 268.508571 
L 301.879202 268.121243 
L 302.489577 267.025634 
L 302.697364 267.03986 
L 302.931125 267.3233 
L 303.242805 268.101249 
L 303.61942 269.72255 
L 304.684329 274.89407 
L 304.814196 274.817515 
L 304.99601 274.342101 
L 305.320678 272.714251 
L 306.13884 268.490707 
L 306.359614 268.219948 
L 306.489481 268.338229 
L 306.697268 268.932293 
L 307.346603 271.188843 
L 307.372577 271.173815 
L 307.489457 270.912837 
L 307.671271 269.82445 
L 307.956978 266.484355 
L 309.164741 250.155857 
L 309.294608 249.984597 
L 309.320582 250.000893 
L 309.437462 250.267996 
L 309.658236 251.492849 
L 310.567305 257.342285 
L 310.749119 257.463697 
L 310.904959 257.259713 
L 311.13872 256.479822 
L 311.476374 254.454956 
L 312.333496 248.860988 
L 312.424403 248.876276 
L 312.43739 248.894886 
L 312.567257 249.308871 
L 312.801018 251.006908 
L 313.710087 258.632832 
L 313.85294 258.714803 
L 313.865927 258.706426 
L 314.021768 258.443543 
L 314.411369 257.155901 
L 314.826943 256.139266 
L 315.11265 255.934136 
L 315.424331 255.993303 
L 316.320414 256.293104 
L 316.502228 255.893789 
L 316.735988 254.695732 
L 317.073642 251.50692 
L 317.709991 245.514603 
L 317.917778 245.099568 
L 318.034658 245.217953 
L 318.320366 246.00109 
L 318.593086 246.470273 
L 318.73594 246.381748 
L 318.956714 245.864955 
L 319.333328 245.105218 
L 319.450209 245.218315 
L 319.619036 245.805585 
L 319.91773 247.877474 
L 320.502132 251.839458 
L 320.696932 252.103976 
L 320.826799 251.934558 
L 321.047573 251.14104 
L 321.567041 248.128538 
L 322.034562 246.040109 
L 322.242349 245.826899 
L 322.372216 246.008394 
L 322.567017 246.767742 
L 322.891685 249.148719 
L 323.515046 253.728524 
L 323.644913 253.880148 
L 323.670887 253.857941 
L 323.787767 253.531169 
L 323.982567 252.177918 
L 324.346195 247.704278 
L 324.83969 242.376801 
L 325.021504 241.912375 
L 325.03449 241.91647 
L 325.138384 242.114203 
L 325.333184 243.125248 
L 325.917586 246.331942 
L 326.008493 246.278194 
L 326.151347 245.776997 
L 326.411081 243.823322 
L 327.060416 238.829792 
L 327.333136 238.263277 
L 327.670791 237.761914 
L 327.930525 236.747067 
L 328.488953 234.429628 
L 328.592846 234.490198 
L 328.7357 234.957653 
L 328.995434 236.749916 
L 329.592822 240.904919 
L 329.76165 241.086435 
L 329.774636 241.079111 
L 329.91749 240.832325 
L 330.553838 239.168903 
L 330.618772 239.231341 
L 330.787599 239.705113 
L 331.09928 241.468191 
L 331.644721 244.373946 
L 331.891469 244.74435 
L 332.086269 244.693507 
L 333.008325 243.863425 
L 333.294032 243.266682 
L 333.683633 241.821147 
L 334.255048 239.835589 
L 334.423875 239.781727 
L 334.566729 240.037835 
L 334.787503 240.980346 
L 335.229051 244.13695 
L 335.670599 246.674231 
L 335.852412 246.90327 
L 335.865399 246.896222 
L 335.982279 246.689592 
L 336.190067 245.725416 
L 336.618628 242.304949 
L 337.112122 239.069618 
L 337.540684 237.71777 
L 338.371832 235.863477 
L 338.61858 235.778387 
L 338.85234 235.95479 
L 339.683489 236.821128 
L 339.696476 236.809789 
L 339.87829 236.484364 
L 340.151011 235.414925 
L 341.008133 231.633 
L 341.202933 231.539514 
L 341.37176 231.729581 
L 341.618508 232.426372 
L 341.969149 234.18863 
L 342.995098 239.818055 
L 343.241845 240.094036 
L 343.410673 239.993324 
L 343.670407 239.512776 
L 344.085981 238.23171 
L 344.397662 236.545338 
L 344.722329 233.400242 
L 345.644385 223.388037 
L 345.709319 223.394547 
L 345.735292 223.438139 
L 345.865159 223.997171 
L 346.09892 226.250008 
L 346.618388 234.135198 
L 347.657324 249.194041 
L 347.981991 251.304126 
L 348.163805 251.533124 
L 348.306659 251.348034 
L 348.8521 250.359294 
L 348.878074 250.377099 
L 349.033914 250.663859 
L 349.345595 251.877803 
L 349.722209 253.046215 
L 349.865063 253.045994 
L 350.020904 252.696237 
L 350.267651 251.465073 
L 351.319574 245.390641 
L 351.449441 245.506005 
L 351.696188 246.160186 
L 352.020856 246.83281 
L 352.137736 246.7588 
L 352.306563 246.263467 
L 352.605257 244.499728 
L 353.228619 240.894971 
L 353.61822 239.951303 
L 354.072754 238.832907 
L 354.748063 237.03326 
L 354.864943 237.119901 
L 355.03377 237.642026 
L 355.293504 239.368366 
L 356.09868 245.372971 
L 356.189587 245.38773 
L 356.21556 245.355734 
L 356.358414 244.904079 
L 356.605161 243.207452 
L 357.410337 237.136383 
L 357.579164 236.98665 
L 357.59215 236.994745 
L 357.735004 237.241888 
L 358.020712 238.329605 
L 358.903807 241.842427 
L 359.631062 244.663482 
L 360.527145 248.223897 
L 360.799866 248.530928 
L 361.37128 248.837386 
L 361.579068 249.63181 
L 361.851788 251.75985 
L 362.241389 256.858216 
L 363.163445 269.459609 
L 363.449153 270.684231 
L 363.604993 270.740455 
L 363.77382 270.466376 
L 364.488089 269.038304 
L 364.643929 269.199306 
L 364.890676 269.859223 
L 366.539988 275.966727 
L 367.578924 282.313167 
L 368.124365 287.146142 
L 368.89058 293.752642 
L 369.176288 294.614683 
L 369.319142 294.610498 
L 369.487969 294.268629 
L 369.773676 293.056787 
L 370.786639 288.308648 
L 371.17624 286.811851 
L 371.500907 284.38967 
L 372.059336 280.189082 
L 372.124269 280.176876 
L 372.150243 280.21933 
L 372.267123 280.767809 
L 372.461923 283.00404 
L 372.812564 290.203448 
L 373.474886 303.254694 
L 373.825527 306.202918 
L 374.137208 307.190586 
L 374.435902 307.48858 
L 374.87745 307.575987 
L 377.39687 307.584 
L 398.487273 307.584 
L 398.487273 307.584 
" style="fill:none;stroke:#ff7f0e;stroke-linecap:square;stroke-width:1.5;"/>
   </g>
   <g id="patch_103">
    <path d="M 57.6 307.584 
L 57.6 41.472 
" style="fill:none;stroke:#000000;stroke-linecap:square;stroke-linejoin:miter;stroke-width:0.8;"/>
   </g>
   <g id="patch_104">
    <path d="M 414.72 307.584 
L 414.72 41.472 
" style="fill:none;stroke:#000000;stroke-linecap:square;stroke-linejoin:miter;stroke-width:0.8;"/>
   </g>
   <g id="patch_105">
    <path d="M 57.6 307.584 
L 414.72 307.584 
" style="fill:none;stroke:#000000;stroke-linecap:square;stroke-linejoin:miter;stroke-width:0.8;"/>
   </g>
   <g id="patch_106">
    <path d="M 57.6 41.472 
L 414.72 41.472 
" style="fill:none;stroke:#000000;stroke-linecap:square;stroke-linejoin:miter;stroke-width:0.8;"/>
   </g>
  </g>
 </g>
 <defs>
  <clipPath id="pb018b64fe5">
   <rect height="266.112" width="357.12" x="57.6" y="41.472"/>
  </clipPath>
 </defs>
</svg>
