<?xml version="1.0" encoding="utf-8" standalone="no"?>
<!DOCTYPE svg PUBLIC "-//W3C//DTD SVG 1.1//EN"
  "http://www.w3.org/Graphics/SVG/1.1/DTD/svg11.dtd">
<!-- Created with matplotlib (https://matplotlib.org/) -->
<svg height="345.6pt" version="1.1" viewBox="0 0 460.8 345.6" width="460.8pt" xmlns="http://www.w3.org/2000/svg" xmlns:xlink="http://www.w3.org/1999/xlink">
 <defs>
  <style type="text/css">
*{stroke-linecap:butt;stroke-linejoin:round;}
  </style>
 </defs>
 <g id="figure_1">
  <g id="patch_1">
   <path d="M 0 345.6 
L 460.8 345.6 
L 460.8 0 
L 0 0 
z
" style="fill:#ffffff;"/>
  </g>
  <g id="axes_1">
   <g id="patch_2">
    <path d="M 57.6 307.584 
L 414.72 307.584 
L 414.72 41.472 
L 57.6 41.472 
z
" style="fill:#ffffff;"/>
   </g>
   <g id="patch_3">
    <path clip-path="url(#pe1a22dce27)" d="M 99.974956 307.584 
L 102.698805 307.584 
L 102.698805 296.124778 
L 99.974956 296.124778 
z
" style="fill:#1f77b4;"/>
   </g>
   <g id="patch_4">
    <path clip-path="url(#pe1a22dce27)" d="M 102.698789 307.584 
L 105.422654 307.584 
L 105.422654 297.915337 
L 102.698789 297.915337 
z
" style="fill:#1f77b4;"/>
   </g>
   <g id="patch_5">
    <path clip-path="url(#pe1a22dce27)" d="M 105.422654 307.584 
L 108.14651 307.584 
L 108.14651 284.665622 
L 105.422654 284.665622 
z
" style="fill:#1f77b4;"/>
   </g>
   <g id="patch_6">
    <path clip-path="url(#pe1a22dce27)" d="M 108.146502 307.584 
L 110.870359 307.584 
L 110.870359 275.71313 
L 108.146502 275.71313 
z
" style="fill:#1f77b4;"/>
   </g>
   <g id="patch_7">
    <path clip-path="url(#pe1a22dce27)" d="M 110.870367 307.584 
L 113.594215 307.584 
L 113.594215 266.044321 
L 110.870367 266.044321 
z
" style="fill:#1f77b4;"/>
   </g>
   <g id="patch_8">
    <path clip-path="url(#pe1a22dce27)" d="M 113.594215 307.584 
L 116.318072 307.584 
L 116.318072 255.301449 
L 113.594215 255.301449 
z
" style="fill:#1f77b4;"/>
   </g>
   <g id="patch_9">
    <path clip-path="url(#pe1a22dce27)" d="M 116.318064 307.584 
L 119.041921 307.584 
L 119.041921 247.065157 
L 116.318064 247.065157 
z
" style="fill:#1f77b4;"/>
   </g>
   <g id="patch_10">
    <path clip-path="url(#pe1a22dce27)" d="M 119.041928 307.584 
L 121.765785 307.584 
L 121.765785 233.81547 
L 119.041928 233.81547 
z
" style="fill:#1f77b4;"/>
   </g>
   <g id="patch_11">
    <path clip-path="url(#pe1a22dce27)" d="M 121.765777 307.584 
L 124.489633 307.584 
L 124.489633 233.09927 
L 121.765777 233.09927 
z
" style="fill:#1f77b4;"/>
   </g>
   <g id="patch_12">
    <path clip-path="url(#pe1a22dce27)" d="M 124.489641 307.584 
L 127.213498 307.584 
L 127.213498 231.308772 
L 124.489641 231.308772 
z
" style="fill:#1f77b4;"/>
   </g>
   <g id="patch_13">
    <path clip-path="url(#pe1a22dce27)" d="M 127.21349 307.584 
L 129.937346 307.584 
L 129.937346 240.977463 
L 127.21349 240.977463 
z
" style="fill:#1f77b4;"/>
   </g>
   <g id="patch_14">
    <path clip-path="url(#pe1a22dce27)" d="M 129.937354 307.584 
L 132.661211 307.584 
L 132.661211 235.964068 
L 129.937354 235.964068 
z
" style="fill:#1f77b4;"/>
   </g>
   <g id="patch_15">
    <path clip-path="url(#pe1a22dce27)" d="M 132.661203 307.584 
L 135.385059 307.584 
L 135.385059 245.632759 
L 132.661203 245.632759 
z
" style="fill:#1f77b4;"/>
   </g>
   <g id="patch_16">
    <path clip-path="url(#pe1a22dce27)" d="M 135.385067 307.584 
L 138.108924 307.584 
L 138.108924 253.510951 
L 135.385067 253.510951 
z
" style="fill:#1f77b4;"/>
   </g>
   <g id="patch_17">
    <path clip-path="url(#pe1a22dce27)" d="M 138.108916 307.584 
L 140.832772 307.584 
L 140.832772 246.348958 
L 138.108916 246.348958 
z
" style="fill:#1f77b4;"/>
   </g>
   <g id="patch_18">
    <path clip-path="url(#pe1a22dce27)" d="M 140.83278 307.584 
L 143.556629 307.584 
L 143.556629 257.808006 
L 140.83278 257.808006 
z
" style="fill:#1f77b4;"/>
   </g>
   <g id="patch_19">
    <path clip-path="url(#pe1a22dce27)" d="M 143.556629 307.584 
L 146.280485 307.584 
L 146.280485 245.632759 
L 143.556629 245.632759 
z
" style="fill:#1f77b4;"/>
   </g>
   <g id="patch_20">
    <path clip-path="url(#pe1a22dce27)" d="M 146.280478 307.584 
L 149.004334 307.584 
L 149.004334 254.58525 
L 146.280478 254.58525 
z
" style="fill:#1f77b4;"/>
   </g>
   <g id="patch_21">
    <path clip-path="url(#pe1a22dce27)" d="M 149.004342 307.584 
L 151.728198 307.584 
L 151.728198 239.903164 
L 149.004342 239.903164 
z
" style="fill:#1f77b4;"/>
   </g>
   <g id="patch_22">
    <path clip-path="url(#pe1a22dce27)" d="M 151.72819 307.584 
L 154.452047 307.584 
L 154.452047 254.94335 
L 151.72819 254.94335 
z
" style="fill:#1f77b4;"/>
   </g>
   <g id="patch_23">
    <path clip-path="url(#pe1a22dce27)" d="M 154.452055 307.584 
L 157.175911 307.584 
L 157.175911 246.707058 
L 154.452055 246.707058 
z
" style="fill:#1f77b4;"/>
   </g>
   <g id="patch_24">
    <path clip-path="url(#pe1a22dce27)" d="M 157.175903 307.584 
L 159.89976 307.584 
L 159.89976 242.767961 
L 157.175903 242.767961 
z
" style="fill:#1f77b4;"/>
   </g>
   <g id="patch_25">
    <path clip-path="url(#pe1a22dce27)" d="M 159.899768 307.584 
L 162.623624 307.584 
L 162.623624 251.004254 
L 159.899768 251.004254 
z
" style="fill:#1f77b4;"/>
   </g>
   <g id="patch_26">
    <path clip-path="url(#pe1a22dce27)" d="M 162.623616 307.584 
L 165.347473 307.584 
L 165.347473 251.362353 
L 162.623616 251.362353 
z
" style="fill:#1f77b4;"/>
   </g>
   <g id="patch_27">
    <path clip-path="url(#pe1a22dce27)" d="M 165.347481 307.584 
L 168.071329 307.584 
L 168.071329 256.017502 
L 165.347481 256.017502 
z
" style="fill:#1f77b4;"/>
   </g>
   <g id="patch_28">
    <path clip-path="url(#pe1a22dce27)" d="M 168.071329 307.584 
L 170.795186 307.584 
L 170.795186 266.760639 
L 168.071329 266.760639 
z
" style="fill:#1f77b4;"/>
   </g>
   <g id="patch_29">
    <path clip-path="url(#pe1a22dce27)" d="M 170.795186 307.584 
L 173.519046 307.584 
L 173.519046 268.193093 
L 170.795186 268.193093 
z
" style="fill:#1f77b4;"/>
   </g>
   <g id="patch_30">
    <path clip-path="url(#pe1a22dce27)" d="M 173.51905 307.584 
L 176.242903 307.584 
L 176.242903 259.598577 
L 173.51905 259.598577 
z
" style="fill:#1f77b4;"/>
   </g>
   <g id="patch_31">
    <path clip-path="url(#pe1a22dce27)" d="M 176.242899 307.584 
L 178.966755 307.584 
L 178.966755 268.909237 
L 176.242899 268.909237 
z
" style="fill:#1f77b4;"/>
   </g>
   <g id="patch_32">
    <path clip-path="url(#pe1a22dce27)" d="M 178.966755 307.584 
L 181.690612 307.584 
L 181.690612 263.179642 
L 178.966755 263.179642 
z
" style="fill:#1f77b4;"/>
   </g>
   <g id="patch_33">
    <path clip-path="url(#pe1a22dce27)" d="M 181.690612 307.584 
L 184.414468 307.584 
L 184.414468 258.166247 
L 181.690612 258.166247 
z
" style="fill:#1f77b4;"/>
   </g>
   <g id="patch_34">
    <path clip-path="url(#pe1a22dce27)" d="M 184.414468 307.584 
L 187.138325 307.584 
L 187.138325 262.105343 
L 184.414468 262.105343 
z
" style="fill:#1f77b4;"/>
   </g>
   <g id="patch_35">
    <path clip-path="url(#pe1a22dce27)" d="M 187.138325 307.584 
L 189.862177 307.584 
L 189.862177 260.672878 
L 187.138325 260.672878 
z
" style="fill:#1f77b4;"/>
   </g>
   <g id="patch_36">
    <path clip-path="url(#pe1a22dce27)" d="M 189.862177 307.584 
L 192.586034 307.584 
L 192.586034 263.537742 
L 189.862177 263.537742 
z
" style="fill:#1f77b4;"/>
   </g>
   <g id="patch_37">
    <path clip-path="url(#pe1a22dce27)" d="M 192.586034 307.584 
L 195.30989 307.584 
L 195.30989 264.97014 
L 192.586034 264.97014 
z
" style="fill:#1f77b4;"/>
   </g>
   <g id="patch_38">
    <path clip-path="url(#pe1a22dce27)" d="M 195.30989 307.584 
L 198.033747 307.584 
L 198.033747 256.017649 
L 195.30989 256.017649 
z
" style="fill:#1f77b4;"/>
   </g>
   <g id="patch_39">
    <path clip-path="url(#pe1a22dce27)" d="M 198.033747 307.584 
L 200.757603 307.584 
L 200.757603 261.747243 
L 198.033747 261.747243 
z
" style="fill:#1f77b4;"/>
   </g>
   <g id="patch_40">
    <path clip-path="url(#pe1a22dce27)" d="M 200.757607 307.584 
L 203.48146 307.584 
L 203.48146 262.821479 
L 200.757607 262.821479 
z
" style="fill:#1f77b4;"/>
   </g>
   <g id="patch_41">
    <path clip-path="url(#pe1a22dce27)" d="M 203.481456 307.584 
L 206.205312 307.584 
L 206.205312 263.895841 
L 203.481456 263.895841 
z
" style="fill:#1f77b4;"/>
   </g>
   <g id="patch_42">
    <path clip-path="url(#pe1a22dce27)" d="M 206.205312 307.584 
L 208.929169 307.584 
L 208.929169 258.166247 
L 206.205312 258.166247 
z
" style="fill:#1f77b4;"/>
   </g>
   <g id="patch_43">
    <path clip-path="url(#pe1a22dce27)" d="M 208.929169 307.584 
L 211.653025 307.584 
L 211.653025 252.794752 
L 208.929169 252.794752 
z
" style="fill:#1f77b4;"/>
   </g>
   <g id="patch_44">
    <path clip-path="url(#pe1a22dce27)" d="M 211.653025 307.584 
L 214.37688 307.584 
L 214.37688 251.720413 
L 211.653025 251.720413 
z
" style="fill:#1f77b4;"/>
   </g>
   <g id="patch_45">
    <path clip-path="url(#pe1a22dce27)" d="M 214.37688 307.584 
L 217.100736 307.584 
L 217.100736 255.659549 
L 214.37688 255.659549 
z
" style="fill:#1f77b4;"/>
   </g>
   <g id="patch_46">
    <path clip-path="url(#pe1a22dce27)" d="M 217.100734 307.584 
L 219.824589 307.584 
L 219.824589 257.450012 
L 217.100734 257.450012 
z
" style="fill:#1f77b4;"/>
   </g>
   <g id="patch_47">
    <path clip-path="url(#pe1a22dce27)" d="M 219.824591 307.584 
L 222.548447 307.584 
L 222.548447 255.659549 
L 219.824591 255.659549 
z
" style="fill:#1f77b4;"/>
   </g>
   <g id="patch_48">
    <path clip-path="url(#pe1a22dce27)" d="M 222.548447 307.584 
L 225.272303 307.584 
L 225.272303 251.362333 
L 222.548447 251.362333 
z
" style="fill:#1f77b4;"/>
   </g>
   <g id="patch_49">
    <path clip-path="url(#pe1a22dce27)" d="M 225.272302 307.584 
L 227.996157 307.584 
L 227.996157 246.348936 
L 225.272302 246.348936 
z
" style="fill:#1f77b4;"/>
   </g>
   <g id="patch_50">
    <path clip-path="url(#pe1a22dce27)" d="M 227.996158 307.584 
L 230.720014 307.584 
L 230.720014 245.274648 
L 227.996158 245.274648 
z
" style="fill:#1f77b4;"/>
   </g>
   <g id="patch_51">
    <path clip-path="url(#pe1a22dce27)" d="M 230.720014 307.584 
L 233.44387 307.584 
L 233.44387 228.085854 
L 230.720014 228.085854 
z
" style="fill:#1f77b4;"/>
   </g>
   <g id="patch_52">
    <path clip-path="url(#pe1a22dce27)" d="M 233.44387 307.584 
L 236.167726 307.584 
L 236.167726 128.534122 
L 233.44387 128.534122 
z
" style="fill:#1f77b4;"/>
   </g>
   <g id="patch_53">
    <path clip-path="url(#pe1a22dce27)" d="M 236.167726 307.584 
L 238.891581 307.584 
L 238.891581 230.592552 
L 236.167726 230.592552 
z
" style="fill:#1f77b4;"/>
   </g>
   <g id="patch_54">
    <path clip-path="url(#pe1a22dce27)" d="M 238.891582 307.584 
L 241.615438 307.584 
L 241.615438 211.255165 
L 238.891582 211.255165 
z
" style="fill:#1f77b4;"/>
   </g>
   <g id="patch_55">
    <path clip-path="url(#pe1a22dce27)" d="M 241.615437 307.584 
L 244.339293 307.584 
L 244.339293 244.558448 
L 241.615437 244.558448 
z
" style="fill:#1f77b4;"/>
   </g>
   <g id="patch_56">
    <path clip-path="url(#pe1a22dce27)" d="M 244.339293 307.584 
L 247.063149 307.584 
L 247.063149 247.423236 
L 244.339293 247.423236 
z
" style="fill:#1f77b4;"/>
   </g>
   <g id="patch_57">
    <path clip-path="url(#pe1a22dce27)" d="M 247.063148 307.584 
L 249.787003 307.584 
L 249.787003 250.288034 
L 247.063148 250.288034 
z
" style="fill:#1f77b4;"/>
   </g>
   <g id="patch_58">
    <path clip-path="url(#pe1a22dce27)" d="M 249.787004 307.584 
L 252.51086 307.584 
L 252.51086 242.409862 
L 249.787004 242.409862 
z
" style="fill:#1f77b4;"/>
   </g>
   <g id="patch_59">
    <path clip-path="url(#pe1a22dce27)" d="M 252.51086 307.584 
L 255.234715 307.584 
L 255.234715 265.32821 
L 252.51086 265.32821 
z
" style="fill:#1f77b4;"/>
   </g>
   <g id="patch_60">
    <path clip-path="url(#pe1a22dce27)" d="M 255.234715 307.584 
L 257.958571 307.584 
L 257.958571 260.314845 
L 255.234715 260.314845 
z
" style="fill:#1f77b4;"/>
   </g>
   <g id="patch_61">
    <path clip-path="url(#pe1a22dce27)" d="M 257.95857 307.584 
L 260.682424 307.584 
L 260.682424 254.943312 
L 257.95857 254.943312 
z
" style="fill:#1f77b4;"/>
   </g>
   <g id="patch_62">
    <path clip-path="url(#pe1a22dce27)" d="M 260.682426 307.584 
L 263.406282 307.584 
L 263.406282 260.314845 
L 260.682426 260.314845 
z
" style="fill:#1f77b4;"/>
   </g>
   <g id="patch_63">
    <path clip-path="url(#pe1a22dce27)" d="M 263.406282 307.584 
L 266.130139 307.584 
L 266.130139 256.733848 
L 263.406282 256.733848 
z
" style="fill:#1f77b4;"/>
   </g>
   <g id="patch_64">
    <path clip-path="url(#pe1a22dce27)" d="M 266.130139 307.584 
L 268.853995 307.584 
L 268.853995 267.476838 
L 266.130139 267.476838 
z
" style="fill:#1f77b4;"/>
   </g>
   <g id="patch_65">
    <path clip-path="url(#pe1a22dce27)" d="M 268.853995 307.584 
L 271.577848 307.584 
L 271.577848 264.97008 
L 268.853995 264.97008 
z
" style="fill:#1f77b4;"/>
   </g>
   <g id="patch_66">
    <path clip-path="url(#pe1a22dce27)" d="M 271.577848 307.584 
L 274.301705 307.584 
L 274.301705 270.699735 
L 271.577848 270.699735 
z
" style="fill:#1f77b4;"/>
   </g>
   <g id="patch_67">
    <path clip-path="url(#pe1a22dce27)" d="M 274.301705 307.584 
L 277.025561 307.584 
L 277.025561 267.476838 
L 274.301705 267.476838 
z
" style="fill:#1f77b4;"/>
   </g>
   <g id="patch_68">
    <path clip-path="url(#pe1a22dce27)" d="M 277.025561 307.584 
L 279.749417 307.584 
L 279.749417 269.983536 
L 277.025561 269.983536 
z
" style="fill:#1f77b4;"/>
   </g>
   <g id="patch_69">
    <path clip-path="url(#pe1a22dce27)" d="M 279.749417 307.584 
L 282.473274 307.584 
L 282.473274 269.625436 
L 279.749417 269.625436 
z
" style="fill:#1f77b4;"/>
   </g>
   <g id="patch_70">
    <path clip-path="url(#pe1a22dce27)" d="M 282.473278 307.584 
L 285.19713 307.584 
L 285.19713 271.415883 
L 282.473278 271.415883 
z
" style="fill:#1f77b4;"/>
   </g>
   <g id="patch_71">
    <path clip-path="url(#pe1a22dce27)" d="M 285.197127 307.584 
L 287.920983 307.584 
L 287.920983 266.402539 
L 285.197127 266.402539 
z
" style="fill:#1f77b4;"/>
   </g>
   <g id="patch_72">
    <path clip-path="url(#pe1a22dce27)" d="M 287.920983 307.584 
L 290.644839 307.584 
L 290.644839 274.638831 
L 287.920983 274.638831 
z
" style="fill:#1f77b4;"/>
   </g>
   <g id="patch_73">
    <path clip-path="url(#pe1a22dce27)" d="M 290.644839 307.584 
L 293.368696 307.584 
L 293.368696 262.105343 
L 290.644839 262.105343 
z
" style="fill:#1f77b4;"/>
   </g>
   <g id="patch_74">
    <path clip-path="url(#pe1a22dce27)" d="M 293.368696 307.584 
L 296.092552 307.584 
L 296.092552 268.909237 
L 293.368696 268.909237 
z
" style="fill:#1f77b4;"/>
   </g>
   <g id="patch_75">
    <path clip-path="url(#pe1a22dce27)" d="M 296.092552 307.584 
L 298.816405 307.584 
L 298.816405 267.118681 
L 296.092552 267.118681 
z
" style="fill:#1f77b4;"/>
   </g>
   <g id="patch_76">
    <path clip-path="url(#pe1a22dce27)" d="M 298.816401 307.584 
L 301.540258 307.584 
L 301.540258 267.118796 
L 298.816401 267.118796 
z
" style="fill:#1f77b4;"/>
   </g>
   <g id="patch_77">
    <path clip-path="url(#pe1a22dce27)" d="M 301.540258 307.584 
L 304.264114 307.584 
L 304.264114 265.68634 
L 301.540258 265.68634 
z
" style="fill:#1f77b4;"/>
   </g>
   <g id="patch_78">
    <path clip-path="url(#pe1a22dce27)" d="M 304.264122 307.584 
L 306.987971 307.584 
L 306.987971 267.834825 
L 304.264122 267.834825 
z
" style="fill:#1f77b4;"/>
   </g>
   <g id="patch_79">
    <path clip-path="url(#pe1a22dce27)" d="M 306.987971 307.584 
L 309.711827 307.584 
L 309.711827 257.808147 
L 306.987971 257.808147 
z
" style="fill:#1f77b4;"/>
   </g>
   <g id="patch_80">
    <path clip-path="url(#pe1a22dce27)" d="M 309.711819 307.584 
L 312.435676 307.584 
L 312.435676 255.301449 
L 309.711819 255.301449 
z
" style="fill:#1f77b4;"/>
   </g>
   <g id="patch_81">
    <path clip-path="url(#pe1a22dce27)" d="M 312.435683 307.584 
L 315.15954 307.584 
L 315.15954 253.152851 
L 312.435683 253.152851 
z
" style="fill:#1f77b4;"/>
   </g>
   <g id="patch_82">
    <path clip-path="url(#pe1a22dce27)" d="M 315.159532 307.584 
L 317.883389 307.584 
L 317.883389 247.781357 
L 315.159532 247.781357 
z
" style="fill:#1f77b4;"/>
   </g>
   <g id="patch_83">
    <path clip-path="url(#pe1a22dce27)" d="M 317.883396 307.584 
L 320.607253 307.584 
L 320.607253 242.409862 
L 317.883396 242.409862 
z
" style="fill:#1f77b4;"/>
   </g>
   <g id="patch_84">
    <path clip-path="url(#pe1a22dce27)" d="M 320.607245 307.584 
L 323.331102 307.584 
L 323.331102 244.20036 
L 320.607245 244.20036 
z
" style="fill:#1f77b4;"/>
   </g>
   <g id="patch_85">
    <path clip-path="url(#pe1a22dce27)" d="M 323.331109 307.584 
L 326.054966 307.584 
L 326.054966 249.213755 
L 323.331109 249.213755 
z
" style="fill:#1f77b4;"/>
   </g>
   <g id="patch_86">
    <path clip-path="url(#pe1a22dce27)" d="M 326.054958 307.584 
L 328.778815 307.584 
L 328.778815 236.322167 
L 326.054958 236.322167 
z
" style="fill:#1f77b4;"/>
   </g>
   <g id="patch_87">
    <path clip-path="url(#pe1a22dce27)" d="M 328.778822 307.584 
L 331.502679 307.584 
L 331.502679 245.274659 
L 328.778822 245.274659 
z
" style="fill:#1f77b4;"/>
   </g>
   <g id="patch_88">
    <path clip-path="url(#pe1a22dce27)" d="M 331.502679 307.584 
L 334.226527 307.584 
L 334.226527 248.139287 
L 331.502679 248.139287 
z
" style="fill:#1f77b4;"/>
   </g>
   <g id="patch_89">
    <path clip-path="url(#pe1a22dce27)" d="M 334.22652 307.584 
L 336.950376 307.584 
L 336.950376 244.55846 
L 334.22652 244.55846 
z
" style="fill:#1f77b4;"/>
   </g>
   <g id="patch_90">
    <path clip-path="url(#pe1a22dce27)" d="M 336.950384 307.584 
L 339.67424 307.584 
L 339.67424 235.247868 
L 336.950384 235.247868 
z
" style="fill:#1f77b4;"/>
   </g>
   <g id="patch_91">
    <path clip-path="url(#pe1a22dce27)" d="M 339.674233 307.584 
L 342.398089 307.584 
L 342.398089 236.680267 
L 339.674233 236.680267 
z
" style="fill:#1f77b4;"/>
   </g>
   <g id="patch_92">
    <path clip-path="url(#pe1a22dce27)" d="M 342.398097 307.584 
L 345.121953 307.584 
L 345.121953 241.693662 
L 342.398097 241.693662 
z
" style="fill:#1f77b4;"/>
   </g>
   <g id="patch_93">
    <path clip-path="url(#pe1a22dce27)" d="M 345.121946 307.584 
L 347.845802 307.584 
L 347.845802 234.531669 
L 345.121946 234.531669 
z
" style="fill:#1f77b4;"/>
   </g>
   <g id="patch_94">
    <path clip-path="url(#pe1a22dce27)" d="M 347.84581 307.584 
L 350.569666 307.584 
L 350.569666 253.510951 
L 347.84581 253.510951 
z
" style="fill:#1f77b4;"/>
   </g>
   <g id="patch_95">
    <path clip-path="url(#pe1a22dce27)" d="M 350.569659 307.584 
L 353.293515 307.584 
L 353.293515 240.619363 
L 350.569659 240.619363 
z
" style="fill:#1f77b4;"/>
   </g>
   <g id="patch_96">
    <path clip-path="url(#pe1a22dce27)" d="M 353.293523 307.584 
L 356.017379 307.584 
L 356.017379 235.247868 
L 353.293523 235.247868 
z
" style="fill:#1f77b4;"/>
   </g>
   <g id="patch_97">
    <path clip-path="url(#pe1a22dce27)" d="M 356.017372 307.584 
L 358.741228 307.584 
L 358.741228 235.605968 
L 356.017372 235.605968 
z
" style="fill:#1f77b4;"/>
   </g>
   <g id="patch_98">
    <path clip-path="url(#pe1a22dce27)" d="M 358.741236 307.584 
L 361.465084 307.584 
L 361.465084 246.348784 
L 358.741236 246.348784 
z
" style="fill:#1f77b4;"/>
   </g>
   <g id="patch_99">
    <path clip-path="url(#pe1a22dce27)" d="M 361.465084 307.584 
L 364.188941 307.584 
L 364.188941 262.105343 
L 361.465084 262.105343 
z
" style="fill:#1f77b4;"/>
   </g>
   <g id="patch_100">
    <path clip-path="url(#pe1a22dce27)" d="M 364.188933 307.584 
L 366.912782 307.584 
L 366.912782 272.490233 
L 364.188933 272.490233 
z
" style="fill:#1f77b4;"/>
   </g>
   <g id="patch_101">
    <path clip-path="url(#pe1a22dce27)" d="M 366.912797 307.584 
L 369.636662 307.584 
L 369.636662 288.246673 
L 366.912797 288.246673 
z
" style="fill:#1f77b4;"/>
   </g>
   <g id="patch_102">
    <path clip-path="url(#pe1a22dce27)" d="M 369.636677 307.584 
L 372.360526 307.584 
L 372.360526 278.935946 
L 369.636677 278.935946 
z
" style="fill:#1f77b4;"/>
   </g>
   <g id="matplotlib.axis_1">
    <g id="xtick_1">
     <g id="line2d_1">
      <defs>
       <path d="M 0 0 
L 0 3.5 
" id="mcb98401f38" style="stroke:#000000;stroke-width:0.8;"/>
      </defs>
      <g>
       <use style="stroke:#000000;stroke-width:0.8;" x="106.299264" xlink:href="#mcb98401f38" y="307.584"/>
      </g>
     </g>
     <g id="text_1">
      <!-- −2 -->
      <defs>
       <path d="M 10.59375 35.5 
L 73.1875 35.5 
L 73.1875 27.203125 
L 10.59375 27.203125 
z
" id="DejaVuSans-8722"/>
       <path d="M 19.1875 8.296875 
L 53.609375 8.296875 
L 53.609375 0 
L 7.328125 0 
L 7.328125 8.296875 
Q 12.9375 14.109375 22.625 23.890625 
Q 32.328125 33.6875 34.8125 36.53125 
Q 39.546875 41.84375 41.421875 45.53125 
Q 43.3125 49.21875 43.3125 52.78125 
Q 43.3125 58.59375 39.234375 62.25 
Q 35.15625 65.921875 28.609375 65.921875 
Q 23.96875 65.921875 18.8125 64.3125 
Q 13.671875 62.703125 7.8125 59.421875 
L 7.8125 69.390625 
Q 13.765625 71.78125 18.9375 73 
Q 24.125 74.21875 28.421875 74.21875 
Q 39.75 74.21875 46.484375 68.546875 
Q 53.21875 62.890625 53.21875 53.421875 
Q 53.21875 48.921875 51.53125 44.890625 
Q 49.859375 40.875 45.40625 35.40625 
Q 44.1875 33.984375 37.640625 27.21875 
Q 31.109375 20.453125 19.1875 8.296875 
z
" id="DejaVuSans-50"/>
      </defs>
      <g transform="translate(93.768405 327.501344)scale(0.17 -0.17)">
       <use xlink:href="#DejaVuSans-8722"/>
       <use x="83.789062" xlink:href="#DejaVuSans-50"/>
      </g>
     </g>
    </g>
    <g id="xtick_2">
     <g id="line2d_2">
      <g>
       <use style="stroke:#000000;stroke-width:0.8;" x="171.232338" xlink:href="#mcb98401f38" y="307.584"/>
      </g>
     </g>
     <g id="text_2">
      <!-- −1 -->
      <defs>
       <path d="M 12.40625 8.296875 
L 28.515625 8.296875 
L 28.515625 63.921875 
L 10.984375 60.40625 
L 10.984375 69.390625 
L 28.421875 72.90625 
L 38.28125 72.90625 
L 38.28125 8.296875 
L 54.390625 8.296875 
L 54.390625 0 
L 12.40625 0 
z
" id="DejaVuSans-49"/>
      </defs>
      <g transform="translate(158.701478 327.501344)scale(0.17 -0.17)">
       <use xlink:href="#DejaVuSans-8722"/>
       <use x="83.789062" xlink:href="#DejaVuSans-49"/>
      </g>
     </g>
    </g>
    <g id="xtick_3">
     <g id="line2d_3">
      <g>
       <use style="stroke:#000000;stroke-width:0.8;" x="236.165411" xlink:href="#mcb98401f38" y="307.584"/>
      </g>
     </g>
     <g id="text_3">
      <!-- 0 -->
      <defs>
       <path d="M 31.78125 66.40625 
Q 24.171875 66.40625 20.328125 58.90625 
Q 16.5 51.421875 16.5 36.375 
Q 16.5 21.390625 20.328125 13.890625 
Q 24.171875 6.390625 31.78125 6.390625 
Q 39.453125 6.390625 43.28125 13.890625 
Q 47.125 21.390625 47.125 36.375 
Q 47.125 51.421875 43.28125 58.90625 
Q 39.453125 66.40625 31.78125 66.40625 
z
M 31.78125 74.21875 
Q 44.046875 74.21875 50.515625 64.515625 
Q 56.984375 54.828125 56.984375 36.375 
Q 56.984375 17.96875 50.515625 8.265625 
Q 44.046875 -1.421875 31.78125 -1.421875 
Q 19.53125 -1.421875 13.0625 8.265625 
Q 6.59375 17.96875 6.59375 36.375 
Q 6.59375 54.828125 13.0625 64.515625 
Q 19.53125 74.21875 31.78125 74.21875 
z
" id="DejaVuSans-48"/>
      </defs>
      <g transform="translate(230.757286 327.501344)scale(0.17 -0.17)">
       <use xlink:href="#DejaVuSans-48"/>
      </g>
     </g>
    </g>
    <g id="xtick_4">
     <g id="line2d_4">
      <g>
       <use style="stroke:#000000;stroke-width:0.8;" x="301.098485" xlink:href="#mcb98401f38" y="307.584"/>
      </g>
     </g>
     <g id="text_4">
      <!-- 1 -->
      <g transform="translate(295.69036 327.501344)scale(0.17 -0.17)">
       <use xlink:href="#DejaVuSans-49"/>
      </g>
     </g>
    </g>
    <g id="xtick_5">
     <g id="line2d_5">
      <g>
       <use style="stroke:#000000;stroke-width:0.8;" x="366.031558" xlink:href="#mcb98401f38" y="307.584"/>
      </g>
     </g>
     <g id="text_5">
      <!-- 2 -->
      <g transform="translate(360.623433 327.501344)scale(0.17 -0.17)">
       <use xlink:href="#DejaVuSans-50"/>
      </g>
     </g>
    </g>
    <g id="text_6">
     <!-- Position in Radian -->
     <defs>
      <path d="M 19.671875 64.796875 
L 19.671875 37.40625 
L 32.078125 37.40625 
Q 38.96875 37.40625 42.71875 40.96875 
Q 46.484375 44.53125 46.484375 51.125 
Q 46.484375 57.671875 42.71875 61.234375 
Q 38.96875 64.796875 32.078125 64.796875 
z
M 9.8125 72.90625 
L 32.078125 72.90625 
Q 44.34375 72.90625 50.609375 67.359375 
Q 56.890625 61.8125 56.890625 51.125 
Q 56.890625 40.328125 50.609375 34.8125 
Q 44.34375 29.296875 32.078125 29.296875 
L 19.671875 29.296875 
L 19.671875 0 
L 9.8125 0 
z
" id="DejaVuSans-80"/>
      <path d="M 30.609375 48.390625 
Q 23.390625 48.390625 19.1875 42.75 
Q 14.984375 37.109375 14.984375 27.296875 
Q 14.984375 17.484375 19.15625 11.84375 
Q 23.34375 6.203125 30.609375 6.203125 
Q 37.796875 6.203125 41.984375 11.859375 
Q 46.1875 17.53125 46.1875 27.296875 
Q 46.1875 37.015625 41.984375 42.703125 
Q 37.796875 48.390625 30.609375 48.390625 
z
M 30.609375 56 
Q 42.328125 56 49.015625 48.375 
Q 55.71875 40.765625 55.71875 27.296875 
Q 55.71875 13.875 49.015625 6.21875 
Q 42.328125 -1.421875 30.609375 -1.421875 
Q 18.84375 -1.421875 12.171875 6.21875 
Q 5.515625 13.875 5.515625 27.296875 
Q 5.515625 40.765625 12.171875 48.375 
Q 18.84375 56 30.609375 56 
z
" id="DejaVuSans-111"/>
      <path d="M 44.28125 53.078125 
L 44.28125 44.578125 
Q 40.484375 46.53125 36.375 47.5 
Q 32.28125 48.484375 27.875 48.484375 
Q 21.1875 48.484375 17.84375 46.4375 
Q 14.5 44.390625 14.5 40.28125 
Q 14.5 37.15625 16.890625 35.375 
Q 19.28125 33.59375 26.515625 31.984375 
L 29.59375 31.296875 
Q 39.15625 29.25 43.1875 25.515625 
Q 47.21875 21.78125 47.21875 15.09375 
Q 47.21875 7.46875 41.1875 3.015625 
Q 35.15625 -1.421875 24.609375 -1.421875 
Q 20.21875 -1.421875 15.453125 -0.5625 
Q 10.6875 0.296875 5.421875 2 
L 5.421875 11.28125 
Q 10.40625 8.6875 15.234375 7.390625 
Q 20.0625 6.109375 24.8125 6.109375 
Q 31.15625 6.109375 34.5625 8.28125 
Q 37.984375 10.453125 37.984375 14.40625 
Q 37.984375 18.0625 35.515625 20.015625 
Q 33.0625 21.96875 24.703125 23.78125 
L 21.578125 24.515625 
Q 13.234375 26.265625 9.515625 29.90625 
Q 5.8125 33.546875 5.8125 39.890625 
Q 5.8125 47.609375 11.28125 51.796875 
Q 16.75 56 26.8125 56 
Q 31.78125 56 36.171875 55.265625 
Q 40.578125 54.546875 44.28125 53.078125 
z
" id="DejaVuSans-115"/>
      <path d="M 9.421875 54.6875 
L 18.40625 54.6875 
L 18.40625 0 
L 9.421875 0 
z
M 9.421875 75.984375 
L 18.40625 75.984375 
L 18.40625 64.59375 
L 9.421875 64.59375 
z
" id="DejaVuSans-105"/>
      <path d="M 18.3125 70.21875 
L 18.3125 54.6875 
L 36.8125 54.6875 
L 36.8125 47.703125 
L 18.3125 47.703125 
L 18.3125 18.015625 
Q 18.3125 11.328125 20.140625 9.421875 
Q 21.96875 7.515625 27.59375 7.515625 
L 36.8125 7.515625 
L 36.8125 0 
L 27.59375 0 
Q 17.1875 0 13.234375 3.875 
Q 9.28125 7.765625 9.28125 18.015625 
L 9.28125 47.703125 
L 2.6875 47.703125 
L 2.6875 54.6875 
L 9.28125 54.6875 
L 9.28125 70.21875 
z
" id="DejaVuSans-116"/>
      <path d="M 54.890625 33.015625 
L 54.890625 0 
L 45.90625 0 
L 45.90625 32.71875 
Q 45.90625 40.484375 42.875 44.328125 
Q 39.84375 48.1875 33.796875 48.1875 
Q 26.515625 48.1875 22.3125 43.546875 
Q 18.109375 38.921875 18.109375 30.90625 
L 18.109375 0 
L 9.078125 0 
L 9.078125 54.6875 
L 18.109375 54.6875 
L 18.109375 46.1875 
Q 21.34375 51.125 25.703125 53.5625 
Q 30.078125 56 35.796875 56 
Q 45.21875 56 50.046875 50.171875 
Q 54.890625 44.34375 54.890625 33.015625 
z
" id="DejaVuSans-110"/>
      <path id="DejaVuSans-32"/>
      <path d="M 44.390625 34.1875 
Q 47.5625 33.109375 50.5625 29.59375 
Q 53.5625 26.078125 56.59375 19.921875 
L 66.609375 0 
L 56 0 
L 46.6875 18.703125 
Q 43.0625 26.03125 39.671875 28.421875 
Q 36.28125 30.8125 30.421875 30.8125 
L 19.671875 30.8125 
L 19.671875 0 
L 9.8125 0 
L 9.8125 72.90625 
L 32.078125 72.90625 
Q 44.578125 72.90625 50.734375 67.671875 
Q 56.890625 62.453125 56.890625 51.90625 
Q 56.890625 45.015625 53.6875 40.46875 
Q 50.484375 35.9375 44.390625 34.1875 
z
M 19.671875 64.796875 
L 19.671875 38.921875 
L 32.078125 38.921875 
Q 39.203125 38.921875 42.84375 42.21875 
Q 46.484375 45.515625 46.484375 51.90625 
Q 46.484375 58.296875 42.84375 61.546875 
Q 39.203125 64.796875 32.078125 64.796875 
z
" id="DejaVuSans-82"/>
      <path d="M 34.28125 27.484375 
Q 23.390625 27.484375 19.1875 25 
Q 14.984375 22.515625 14.984375 16.5 
Q 14.984375 11.71875 18.140625 8.90625 
Q 21.296875 6.109375 26.703125 6.109375 
Q 34.1875 6.109375 38.703125 11.40625 
Q 43.21875 16.703125 43.21875 25.484375 
L 43.21875 27.484375 
z
M 52.203125 31.203125 
L 52.203125 0 
L 43.21875 0 
L 43.21875 8.296875 
Q 40.140625 3.328125 35.546875 0.953125 
Q 30.953125 -1.421875 24.3125 -1.421875 
Q 15.921875 -1.421875 10.953125 3.296875 
Q 6 8.015625 6 15.921875 
Q 6 25.140625 12.171875 29.828125 
Q 18.359375 34.515625 30.609375 34.515625 
L 43.21875 34.515625 
L 43.21875 35.40625 
Q 43.21875 41.609375 39.140625 45 
Q 35.0625 48.390625 27.6875 48.390625 
Q 23 48.390625 18.546875 47.265625 
Q 14.109375 46.140625 10.015625 43.890625 
L 10.015625 52.203125 
Q 14.9375 54.109375 19.578125 55.046875 
Q 24.21875 56 28.609375 56 
Q 40.484375 56 46.34375 49.84375 
Q 52.203125 43.703125 52.203125 31.203125 
z
" id="DejaVuSans-97"/>
      <path d="M 45.40625 46.390625 
L 45.40625 75.984375 
L 54.390625 75.984375 
L 54.390625 0 
L 45.40625 0 
L 45.40625 8.203125 
Q 42.578125 3.328125 38.25 0.953125 
Q 33.9375 -1.421875 27.875 -1.421875 
Q 17.96875 -1.421875 11.734375 6.484375 
Q 5.515625 14.40625 5.515625 27.296875 
Q 5.515625 40.1875 11.734375 48.09375 
Q 17.96875 56 27.875 56 
Q 33.9375 56 38.25 53.625 
Q 42.578125 51.265625 45.40625 46.390625 
z
M 14.796875 27.296875 
Q 14.796875 17.390625 18.875 11.75 
Q 22.953125 6.109375 30.078125 6.109375 
Q 37.203125 6.109375 41.296875 11.75 
Q 45.40625 17.390625 45.40625 27.296875 
Q 45.40625 37.203125 41.296875 42.84375 
Q 37.203125 48.484375 30.078125 48.484375 
Q 22.953125 48.484375 18.875 42.84375 
Q 14.796875 37.203125 14.796875 27.296875 
z
" id="DejaVuSans-100"/>
     </defs>
     <g transform="translate(102.024844 357.832125)scale(0.3 -0.3)">
      <use xlink:href="#DejaVuSans-80"/>
      <use x="60.255859" xlink:href="#DejaVuSans-111"/>
      <use x="121.4375" xlink:href="#DejaVuSans-115"/>
      <use x="173.537109" xlink:href="#DejaVuSans-105"/>
      <use x="201.320312" xlink:href="#DejaVuSans-116"/>
      <use x="240.529297" xlink:href="#DejaVuSans-105"/>
      <use x="268.3125" xlink:href="#DejaVuSans-111"/>
      <use x="329.494141" xlink:href="#DejaVuSans-110"/>
      <use x="392.873047" xlink:href="#DejaVuSans-32"/>
      <use x="424.660156" xlink:href="#DejaVuSans-105"/>
      <use x="452.443359" xlink:href="#DejaVuSans-110"/>
      <use x="515.822266" xlink:href="#DejaVuSans-32"/>
      <use x="547.609375" xlink:href="#DejaVuSans-82"/>
      <use x="617.060547" xlink:href="#DejaVuSans-97"/>
      <use x="678.339844" xlink:href="#DejaVuSans-100"/>
      <use x="741.816406" xlink:href="#DejaVuSans-105"/>
      <use x="769.599609" xlink:href="#DejaVuSans-97"/>
      <use x="830.878906" xlink:href="#DejaVuSans-110"/>
     </g>
    </g>
   </g>
   <g id="matplotlib.axis_2">
    <g id="ytick_1">
     <g id="line2d_6">
      <defs>
       <path d="M 0 0 
L -3.5 0 
" id="mf14fe84a23" style="stroke:#000000;stroke-width:0.8;"/>
      </defs>
      <g>
       <use style="stroke:#000000;stroke-width:0.8;" x="57.6" xlink:href="#mf14fe84a23" y="307.584"/>
      </g>
     </g>
     <g id="text_7">
      <!-- 0.0 -->
      <defs>
       <path d="M 10.6875 12.40625 
L 21 12.40625 
L 21 0 
L 10.6875 0 
z
" id="DejaVuSans-46"/>
      </defs>
      <g transform="translate(23.564687 314.042672)scale(0.17 -0.17)">
       <use xlink:href="#DejaVuSans-48"/>
       <use x="63.623047" xlink:href="#DejaVuSans-46"/>
       <use x="95.410156" xlink:href="#DejaVuSans-48"/>
      </g>
     </g>
    </g>
    <g id="ytick_2">
     <g id="line2d_7">
      <g>
       <use style="stroke:#000000;stroke-width:0.8;" x="57.6" xlink:href="#mf14fe84a23" y="262.51858"/>
      </g>
     </g>
     <g id="text_8">
      <!-- 0.2 -->
      <g transform="translate(23.564687 268.977252)scale(0.17 -0.17)">
       <use xlink:href="#DejaVuSans-48"/>
       <use x="63.623047" xlink:href="#DejaVuSans-46"/>
       <use x="95.410156" xlink:href="#DejaVuSans-50"/>
      </g>
     </g>
    </g>
    <g id="ytick_3">
     <g id="line2d_8">
      <g>
       <use style="stroke:#000000;stroke-width:0.8;" x="57.6" xlink:href="#mf14fe84a23" y="217.45316"/>
      </g>
     </g>
     <g id="text_9">
      <!-- 0.4 -->
      <defs>
       <path d="M 37.796875 64.3125 
L 12.890625 25.390625 
L 37.796875 25.390625 
z
M 35.203125 72.90625 
L 47.609375 72.90625 
L 47.609375 25.390625 
L 58.015625 25.390625 
L 58.015625 17.1875 
L 47.609375 17.1875 
L 47.609375 0 
L 37.796875 0 
L 37.796875 17.1875 
L 4.890625 17.1875 
L 4.890625 26.703125 
z
" id="DejaVuSans-52"/>
      </defs>
      <g transform="translate(23.564687 223.911832)scale(0.17 -0.17)">
       <use xlink:href="#DejaVuSans-48"/>
       <use x="63.623047" xlink:href="#DejaVuSans-46"/>
       <use x="95.410156" xlink:href="#DejaVuSans-52"/>
      </g>
     </g>
    </g>
    <g id="ytick_4">
     <g id="line2d_9">
      <g>
       <use style="stroke:#000000;stroke-width:0.8;" x="57.6" xlink:href="#mf14fe84a23" y="172.38774"/>
      </g>
     </g>
     <g id="text_10">
      <!-- 0.6 -->
      <defs>
       <path d="M 33.015625 40.375 
Q 26.375 40.375 22.484375 35.828125 
Q 18.609375 31.296875 18.609375 23.390625 
Q 18.609375 15.53125 22.484375 10.953125 
Q 26.375 6.390625 33.015625 6.390625 
Q 39.65625 6.390625 43.53125 10.953125 
Q 47.40625 15.53125 47.40625 23.390625 
Q 47.40625 31.296875 43.53125 35.828125 
Q 39.65625 40.375 33.015625 40.375 
z
M 52.59375 71.296875 
L 52.59375 62.3125 
Q 48.875 64.0625 45.09375 64.984375 
Q 41.3125 65.921875 37.59375 65.921875 
Q 27.828125 65.921875 22.671875 59.328125 
Q 17.53125 52.734375 16.796875 39.40625 
Q 19.671875 43.65625 24.015625 45.921875 
Q 28.375 48.1875 33.59375 48.1875 
Q 44.578125 48.1875 50.953125 41.515625 
Q 57.328125 34.859375 57.328125 23.390625 
Q 57.328125 12.15625 50.6875 5.359375 
Q 44.046875 -1.421875 33.015625 -1.421875 
Q 20.359375 -1.421875 13.671875 8.265625 
Q 6.984375 17.96875 6.984375 36.375 
Q 6.984375 53.65625 15.1875 63.9375 
Q 23.390625 74.21875 37.203125 74.21875 
Q 40.921875 74.21875 44.703125 73.484375 
Q 48.484375 72.75 52.59375 71.296875 
z
" id="DejaVuSans-54"/>
      </defs>
      <g transform="translate(23.564687 178.846412)scale(0.17 -0.17)">
       <use xlink:href="#DejaVuSans-48"/>
       <use x="63.623047" xlink:href="#DejaVuSans-46"/>
       <use x="95.410156" xlink:href="#DejaVuSans-54"/>
      </g>
     </g>
    </g>
    <g id="ytick_5">
     <g id="line2d_10">
      <g>
       <use style="stroke:#000000;stroke-width:0.8;" x="57.6" xlink:href="#mf14fe84a23" y="127.32232"/>
      </g>
     </g>
     <g id="text_11">
      <!-- 0.8 -->
      <defs>
       <path d="M 31.78125 34.625 
Q 24.75 34.625 20.71875 30.859375 
Q 16.703125 27.09375 16.703125 20.515625 
Q 16.703125 13.921875 20.71875 10.15625 
Q 24.75 6.390625 31.78125 6.390625 
Q 38.8125 6.390625 42.859375 10.171875 
Q 46.921875 13.96875 46.921875 20.515625 
Q 46.921875 27.09375 42.890625 30.859375 
Q 38.875 34.625 31.78125 34.625 
z
M 21.921875 38.8125 
Q 15.578125 40.375 12.03125 44.71875 
Q 8.5 49.078125 8.5 55.328125 
Q 8.5 64.0625 14.71875 69.140625 
Q 20.953125 74.21875 31.78125 74.21875 
Q 42.671875 74.21875 48.875 69.140625 
Q 55.078125 64.0625 55.078125 55.328125 
Q 55.078125 49.078125 51.53125 44.71875 
Q 48 40.375 41.703125 38.8125 
Q 48.828125 37.15625 52.796875 32.3125 
Q 56.78125 27.484375 56.78125 20.515625 
Q 56.78125 9.90625 50.3125 4.234375 
Q 43.84375 -1.421875 31.78125 -1.421875 
Q 19.734375 -1.421875 13.25 4.234375 
Q 6.78125 9.90625 6.78125 20.515625 
Q 6.78125 27.484375 10.78125 32.3125 
Q 14.796875 37.15625 21.921875 38.8125 
z
M 18.3125 54.390625 
Q 18.3125 48.734375 21.84375 45.5625 
Q 25.390625 42.390625 31.78125 42.390625 
Q 38.140625 42.390625 41.71875 45.5625 
Q 45.3125 48.734375 45.3125 54.390625 
Q 45.3125 60.0625 41.71875 63.234375 
Q 38.140625 66.40625 31.78125 66.40625 
Q 25.390625 66.40625 21.84375 63.234375 
Q 18.3125 60.0625 18.3125 54.390625 
z
" id="DejaVuSans-56"/>
      </defs>
      <g transform="translate(23.564687 133.780991)scale(0.17 -0.17)">
       <use xlink:href="#DejaVuSans-48"/>
       <use x="63.623047" xlink:href="#DejaVuSans-46"/>
       <use x="95.410156" xlink:href="#DejaVuSans-56"/>
      </g>
     </g>
    </g>
    <g id="ytick_6">
     <g id="line2d_11">
      <g>
       <use style="stroke:#000000;stroke-width:0.8;" x="57.6" xlink:href="#mf14fe84a23" y="82.256899"/>
      </g>
     </g>
     <g id="text_12">
      <!-- 1.0 -->
      <g transform="translate(23.564687 88.715571)scale(0.17 -0.17)">
       <use xlink:href="#DejaVuSans-49"/>
       <use x="63.623047" xlink:href="#DejaVuSans-46"/>
       <use x="95.410156" xlink:href="#DejaVuSans-48"/>
      </g>
     </g>
    </g>
    <g id="text_13">
     <!-- Density -->
     <defs>
      <path d="M 19.671875 64.796875 
L 19.671875 8.109375 
L 31.59375 8.109375 
Q 46.6875 8.109375 53.6875 14.9375 
Q 60.6875 21.78125 60.6875 36.53125 
Q 60.6875 51.171875 53.6875 57.984375 
Q 46.6875 64.796875 31.59375 64.796875 
z
M 9.8125 72.90625 
L 30.078125 72.90625 
Q 51.265625 72.90625 61.171875 64.09375 
Q 71.09375 55.28125 71.09375 36.53125 
Q 71.09375 17.671875 61.125 8.828125 
Q 51.171875 0 30.078125 0 
L 9.8125 0 
z
" id="DejaVuSans-68"/>
      <path d="M 56.203125 29.59375 
L 56.203125 25.203125 
L 14.890625 25.203125 
Q 15.484375 15.921875 20.484375 11.0625 
Q 25.484375 6.203125 34.421875 6.203125 
Q 39.59375 6.203125 44.453125 7.46875 
Q 49.3125 8.734375 54.109375 11.28125 
L 54.109375 2.78125 
Q 49.265625 0.734375 44.1875 -0.34375 
Q 39.109375 -1.421875 33.890625 -1.421875 
Q 20.796875 -1.421875 13.15625 6.1875 
Q 5.515625 13.8125 5.515625 26.8125 
Q 5.515625 40.234375 12.765625 48.109375 
Q 20.015625 56 32.328125 56 
Q 43.359375 56 49.78125 48.890625 
Q 56.203125 41.796875 56.203125 29.59375 
z
M 47.21875 32.234375 
Q 47.125 39.59375 43.09375 43.984375 
Q 39.0625 48.390625 32.421875 48.390625 
Q 24.90625 48.390625 20.390625 44.140625 
Q 15.875 39.890625 15.1875 32.171875 
z
" id="DejaVuSans-101"/>
      <path d="M 32.171875 -5.078125 
Q 28.375 -14.84375 24.75 -17.8125 
Q 21.140625 -20.796875 15.09375 -20.796875 
L 7.90625 -20.796875 
L 7.90625 -13.28125 
L 13.1875 -13.28125 
Q 16.890625 -13.28125 18.9375 -11.515625 
Q 21 -9.765625 23.484375 -3.21875 
L 25.09375 0.875 
L 2.984375 54.6875 
L 12.5 54.6875 
L 29.59375 11.921875 
L 46.6875 54.6875 
L 56.203125 54.6875 
z
" id="DejaVuSans-121"/>
     </defs>
     <g transform="translate(13.325625 231.553781)rotate(-90)scale(0.3 -0.3)">
      <use xlink:href="#DejaVuSans-68"/>
      <use x="77.001953" xlink:href="#DejaVuSans-101"/>
      <use x="138.525391" xlink:href="#DejaVuSans-110"/>
      <use x="201.904297" xlink:href="#DejaVuSans-115"/>
      <use x="254.003906" xlink:href="#DejaVuSans-105"/>
      <use x="281.787109" xlink:href="#DejaVuSans-116"/>
      <use x="320.996094" xlink:href="#DejaVuSans-121"/>
     </g>
    </g>
   </g>
   <g id="line2d_12">
    <path clip-path="url(#pe1a22dce27)" d="M 73.832727 307.584 
L 98.171808 307.473574 
L 98.464006 307.208305 
L 98.723739 306.636896 
L 99.005115 305.413387 
L 99.37307 302.664624 
L 100.130622 296.852441 
L 100.325421 296.587429 
L 100.455287 296.759498 
L 100.693375 297.580119 
L 101.321062 299.79508 
L 101.55915 299.953159 
L 101.797238 299.823092 
L 103.680297 298.007711 
L 104.264694 297.063234 
L 104.621826 295.92234 
L 105.108824 293.47177 
L 106.407486 286.611965 
L 107.219149 284.00479 
L 107.652036 282.042559 
L 108.788365 276.290579 
L 109.05892 275.992546 
L 109.318652 276.023565 
L 109.838117 276.142003 
L 110.05456 275.904684 
L 110.325115 275.221466 
L 110.833757 273.148937 
L 111.439799 271.061653 
L 111.970086 269.22208 
L 112.392151 266.775163 
L 112.954904 261.972257 
L 113.496013 257.958103 
L 113.723279 257.491889 
L 113.842323 257.590506 
L 114.047944 258.159961 
L 114.470009 259.261213 
L 114.578231 259.143428 
L 114.729741 258.528116 
L 114.967829 256.463752 
L 115.498116 249.214685 
L 115.931003 244.856815 
L 116.190736 243.959708 
L 116.30978 243.972716 
L 116.320602 243.986111 
L 116.472112 244.372019 
L 116.731845 245.7844 
L 117.272953 250.375329 
L 117.684196 252.962759 
L 117.889818 253.262673 
L 118.008862 253.10035 
L 118.214483 252.341308 
L 118.690659 249.457249 
L 119.253412 245.03638 
L 119.74041 238.897921 
L 120.303164 232.601833 
L 120.606185 231.31621 
L 120.865917 231.022174 
L 121.385381 230.629336 
L 121.883202 230.206136 
L 122.067179 230.324977 
L 122.283622 230.793973 
L 122.61911 232.193293 
L 123.084464 233.925593 
L 123.203508 233.929437 
L 123.21433 233.916958 
L 123.355018 233.555632 
L 123.593106 232.190422 
L 124.545458 225.986544 
L 124.826834 225.542424 
L 124.999989 225.586519 
L 125.183966 225.928681 
L 125.432876 226.967012 
L 125.779186 229.552367 
L 126.601672 236.024552 
L 126.883048 236.649001 
L 127.153603 236.745739 
L 127.554023 236.881649 
L 127.965266 237.329633 
L 128.33322 238.023499 
L 128.636241 239.159507 
L 129.069128 241.875504 
L 129.491193 243.98743 
L 129.631882 244.090521 
L 129.653526 244.072887 
L 129.794214 243.748421 
L 130.053947 242.393713 
L 130.811499 238.214128 
L 131.80714 234.982516 
L 131.926184 235.088507 
L 132.099339 235.664025 
L 132.380715 237.542691 
L 133.181556 243.244128 
L 133.408822 243.550427 
L 133.614444 243.463721 
L 133.863354 243.432293 
L 134.025686 243.707754 
L 134.263774 244.67115 
L 134.880639 248.577522 
L 135.465036 251.341232 
L 136.882742 256.652088 
L 137.012608 256.549983 
L 137.185763 256.006589 
L 137.445495 254.312037 
L 138.495246 246.467761 
L 138.906489 245.75005 
L 139.231154 244.906335 
L 139.750619 243.56368 
L 139.869663 243.631965 
L 140.031996 244.102448 
L 140.280906 245.659108 
L 140.876126 251.363393 
L 141.39559 255.120459 
L 142.044921 257.949087 
L 142.640141 259.939689 
L 142.856584 260.09841 
L 143.008095 259.935971 
L 143.224539 259.28821 
L 143.516737 257.605132 
L 143.895514 253.932741 
L 144.977732 242.268507 
L 145.129242 242.095619 
L 145.150886 242.106805 
L 145.280753 242.334963 
L 145.529663 243.345466 
L 146.135705 247.032781 
L 147.066412 252.48051 
L 147.412722 253.305603 
L 147.759031 253.589721 
L 148.278496 253.983335 
L 148.624806 254.182396 
L 148.787138 254.021621 
L 148.981938 253.452706 
L 149.263314 251.811653 
L 149.761135 247.265283 
L 150.561976 240.357614 
L 150.919108 238.842763 
L 151.092263 238.706379 
L 151.103085 238.713223 
L 151.232951 238.94622 
L 151.438572 239.902172 
L 151.752416 242.622808 
L 152.693945 251.440684 
L 152.996966 252.280198 
L 153.278343 252.484762 
L 154.003429 252.579215 
L 154.479605 252.391806 
L 155.172224 251.983052 
L 155.39949 251.314302 
L 155.702511 249.603213 
L 156.568285 244.289688 
L 156.828017 243.941625 
L 157.066105 243.980747 
L 157.48817 244.327762 
L 157.791191 244.86432 
L 158.537922 246.617079 
L 158.592033 246.57316 
L 158.743543 246.210125 
L 158.992453 244.894436 
L 159.717539 240.693806 
L 159.825761 240.677325 
L 159.847405 240.70177 
L 159.988094 241.080221 
L 160.237004 242.566212 
L 160.799757 247.768856 
L 161.330044 251.66676 
L 161.697998 252.922191 
L 163.061592 255.835769 
L 163.104881 255.807925 
L 163.288858 255.501314 
L 163.602701 254.443581 
L 164.500942 251.271411 
L 164.706564 251.142087 
L 164.858074 251.335587 
L 165.096162 252.121614 
L 165.648093 254.032536 
L 165.756315 253.961054 
L 165.918648 253.448657 
L 166.243313 251.424748 
L 166.622089 249.583213 
L 166.719489 249.542186 
L 166.751955 249.579019 
L 166.881822 249.982549 
L 167.109087 251.591601 
L 167.661019 257.757175 
L 168.180483 262.224089 
L 169.425034 269.678963 
L 169.70641 270.22292 
L 169.966143 270.293756 
L 170.290808 270.404452 
L 170.55054 270.803489 
L 171.14576 271.796369 
L 171.297271 271.689744 
L 171.502892 271.195966 
L 171.849202 269.658991 
L 172.660865 264.787581 
L 173.569928 259.455995 
L 173.872949 258.822861 
L 174.067748 258.807289 
L 174.284192 259.06693 
L 174.738724 260.072696 
L 175.669431 262.605008 
L 176.632605 265.786333 
L 176.903159 265.917752 
L 177.227825 266.063376 
L 177.465913 266.503864 
L 178.082777 267.853442 
L 178.104421 267.841072 
L 178.234287 267.606647 
L 178.439909 266.650548 
L 178.818685 263.53931 
L 179.262394 260.542433 
L 179.413905 260.323383 
L 179.446371 260.342083 
L 179.565415 260.602699 
L 179.781859 261.745134 
L 180.809966 268.15977 
L 180.950654 268.153128 
L 181.102165 267.824186 
L 181.340253 266.668797 
L 181.740673 263.405774 
L 182.379182 258.488674 
L 182.671381 257.665375 
L 182.887824 257.560444 
L 183.169201 257.718246 
L 184.565262 258.685227 
L 184.846639 258.607231 
L 185.463503 258.319014 
L 185.636658 258.671915 
L 185.874746 259.788078 
L 186.264344 262.968174 
L 186.83792 267.273823 
L 187.065185 267.75749 
L 187.184229 267.660814 
L 187.357384 267.118091 
L 187.649583 265.323754 
L 188.720979 257.986648 
L 188.915778 257.832641 
L 189.067288 258.036475 
L 189.327021 258.879904 
L 190.138684 261.752835 
L 190.61486 262.363573 
L 190.993636 263.056896 
L 191.740367 264.511824 
L 192.05421 264.632765 
L 192.40052 264.522379 
L 192.692718 264.197359 
L 193.006562 263.454317 
L 193.677537 261.76214 
L 193.850692 261.785999 
L 194.077957 262.118707 
L 194.510844 262.728228 
L 194.651533 262.629405 
L 194.83551 262.14042 
L 195.106064 260.644356 
L 196.025949 254.808934 
L 196.036772 254.811379 
L 196.144993 254.983624 
L 196.32897 255.855191 
L 196.696925 258.992644 
L 197.248856 263.140571 
L 197.638454 264.471573 
L 198.049697 265.156449 
L 198.276963 265.203476 
L 198.46094 264.978874 
L 198.720672 264.224587 
L 199.131915 262.206599 
L 200.311532 256.022976 
L 200.527976 255.822467 
L 200.679486 255.962047 
L 200.89593 256.554744 
L 201.198951 258.13776 
L 201.664305 261.992548 
L 202.194591 265.914728 
L 202.356924 266.196286 
L 202.378568 266.186411 
L 202.48679 265.963211 
L 202.670767 264.944521 
L 203.038721 261.280902 
L 203.482431 257.596709 
L 203.633941 257.332311 
L 203.655586 257.3463 
L 203.763807 257.607276 
L 203.958607 258.799578 
L 204.402316 263.360975 
L 204.86767 267.162769 
L 205.149046 267.998268 
L 205.300557 267.999713 
L 205.473712 267.674844 
L 205.776733 266.512507 
L 206.339486 264.450233 
L 206.534285 264.366206 
L 206.718262 264.596844 
L 207.118683 265.111924 
L 207.237727 264.941888 
L 207.410882 264.210856 
L 207.670614 261.932444 
L 208.190079 254.758056 
L 208.687899 249.257508 
L 209.023386 247.638399 
L 209.250652 247.350724 
L 209.402163 247.463175 
L 209.607784 247.986081 
L 209.910805 249.494131 
L 211.057956 256.021255 
L 211.231111 256.05948 
L 211.42591 255.797261 
L 212.064419 254.800705 
L 212.637994 254.62897 
L 212.843616 253.881532 
L 213.179103 251.597036 
L 213.655279 248.722284 
L 213.785145 248.601311 
L 213.817612 248.630191 
L 213.947478 248.978974 
L 214.174744 250.374614 
L 215.235317 257.995036 
L 215.376005 257.99843 
L 215.538338 257.65971 
L 215.927937 256.105887 
L 216.230958 255.357525 
L 216.360824 255.39482 
L 216.533979 255.79482 
L 217.226598 257.979541 
L 217.280709 257.934278 
L 217.432219 257.545412 
L 217.702774 256.077488 
L 218.287172 252.916059 
L 218.481971 252.744808 
L 218.633481 252.940591 
L 219.293634 254.244348 
L 219.358567 254.19088 
L 219.542544 253.781393 
L 220.289275 251.476859 
L 220.354208 251.529499 
L 220.505718 251.918607 
L 220.754628 253.314911 
L 221.274093 257.902221 
L 221.80438 261.725843 
L 222.074934 262.461376 
L 222.215622 262.429425 
L 222.377955 262.01898 
L 222.626865 260.626182 
L 223.027286 256.840601 
L 223.882238 248.611459 
L 224.23937 247.175196 
L 224.888701 245.199323 
L 225.67872 241.709365 
L 225.700364 241.719267 
L 225.819408 241.952005 
L 226.014207 242.97173 
L 226.371339 246.334662 
L 227.042314 252.387471 
L 227.388624 253.710047 
L 227.637534 253.987846 
L 227.810689 253.894466 
L 228.005488 253.471615 
L 228.254398 252.305105 
L 228.589886 249.444851 
L 229.477305 241.255176 
L 229.682926 240.954805 
L 229.823614 241.10883 
L 230.310612 241.99373 
L 230.364723 241.928199 
L 230.494589 241.468098 
L 230.689389 239.770945 
L 230.959943 235.114478 
L 231.933939 215.962211 
L 231.998872 216.069431 
L 232.128738 216.999904 
L 232.377648 220.90554 
L 233.232601 235.715914 
L 233.546444 237.431405 
L 233.816998 237.904155 
L 233.957687 237.857595 
L 234.098375 237.487075 
L 234.27153 236.231622 
L 234.466329 232.917829 
L 234.693595 224.636184 
L 234.953327 206.065439 
L 235.288815 163.89884 
L 236.100478 55.183849 
L 236.165411 54.144 
L 236.219522 54.64417 
L 236.327744 59.301338 
L 236.533365 80.00277 
L 237.734627 225.345588 
L 237.994359 230.551613 
L 238.113403 230.957186 
L 238.14587 230.914116 
L 238.264914 230.320677 
L 238.524646 227.512446 
L 239.574397 212.269645 
L 240.256195 202.479973 
L 240.364417 202.202833 
L 240.407705 202.261944 
L 240.515927 202.860584 
L 240.710726 205.562156 
L 241.046214 214.128917 
L 241.890344 236.390891 
L 242.279942 240.980641 
L 242.637074 242.921618 
L 242.907629 243.427367 
L 243.069961 243.395008 
L 243.275583 243.060959 
L 243.762581 241.671256 
L 244.152179 240.913152 
L 244.325334 240.910267 
L 244.487667 241.1803 
L 244.714932 242.086818 
L 245.039598 244.460085 
L 246.132638 253.285449 
L 246.597992 254.883993 
L 246.879368 255.256269 
L 247.020057 255.155832 
L 247.204034 254.665235 
L 247.496232 253.114755 
L 248.232141 248.99722 
L 248.470229 248.706155 
L 248.708316 248.775103 
L 248.946404 248.758541 
L 249.119559 248.455831 
L 249.357647 247.499536 
L 249.812179 244.485308 
L 250.775353 238.329328 
L 251.045907 237.612072 
L 251.154129 237.694595 
L 251.305639 238.26243 
L 251.532905 240.165359 
L 251.911681 245.615506 
L 252.788278 258.435055 
L 253.351031 262.961644 
L 253.924607 266.047665 
L 254.227628 266.717379 
L 254.400783 266.70883 
L 254.58476 266.401266 
L 254.898603 265.343874 
L 255.645333 262.769085 
L 256.586863 260.589028 
L 257.247016 258.759191 
L 257.907169 257.317573 
L 258.805409 254.832838 
L 259.065142 254.74253 
L 260.125715 254.762641 
L 260.493669 254.68169 
L 260.688469 254.882122 
L 260.915734 255.48576 
L 261.2404 257.103798 
L 262.203574 262.380002 
L 262.398373 262.519305 
L 262.549883 262.341801 
L 262.798793 261.612279 
L 264.086633 257.117879 
L 264.248965 257.182652 
L 264.454587 257.578915 
L 264.833363 258.935488 
L 265.699137 261.982623 
L 266.326824 264.574517 
L 266.867933 266.402642 
L 267.257531 267.009218 
L 267.54973 267.122058 
L 267.776996 266.968867 
L 268.058372 266.459019 
L 268.750992 265.106208 
L 268.924147 265.182121 
L 269.173057 265.610515 
L 269.627588 266.350175 
L 269.800743 266.293024 
L 270.028009 265.907945 
L 270.57994 264.925689 
L 270.753095 264.988381 
L 270.969538 265.367564 
L 271.369959 266.625724 
L 272.571221 270.57331 
L 272.86342 270.815773 
L 273.231374 270.787045 
L 273.61015 270.837893 
L 274.248659 271.011466 
L 274.475924 270.744257 
L 274.778945 269.967542 
L 276.001852 266.288478 
L 276.23994 266.290103 
L 276.521316 266.547817 
L 276.856804 267.171572 
L 277.203114 268.336827 
L 277.711756 271.031208 
L 278.155465 272.88551 
L 278.317798 272.99512 
L 278.32862 272.987891 
L 278.458486 272.753291 
L 278.67493 271.779757 
L 279.107817 268.472015 
L 279.573171 265.566646 
L 279.832903 265.024615 
L 280.006058 265.046366 
L 280.233324 265.377482 
L 280.6121 266.392581 
L 281.055809 268.292327 
L 281.640207 270.70452 
L 281.80254 270.789177 
L 281.813362 270.780972 
L 281.95405 270.512725 
L 282.192138 269.434841 
L 283.04709 265.016895 
L 283.155312 265.119353 
L 283.317645 265.703972 
L 283.588199 267.708663 
L 284.594662 276.180855 
L 284.746172 276.281445 
L 284.756994 276.274305 
L 284.897683 276.033687 
L 285.189882 274.953582 
L 285.893323 272.374216 
L 286.531832 270.226686 
L 287.440895 266.893702 
L 287.668161 266.747891 
L 287.841315 266.901476 
L 288.090226 267.496263 
L 288.447357 269.027286 
L 289.118333 273.170809 
L 289.562042 275.214497 
L 289.767663 275.45256 
L 289.897529 275.293019 
L 290.092329 274.58765 
L 290.406172 272.452131 
L 291.423457 264.916599 
L 291.758944 264.088499 
L 292.375808 262.940382 
L 293.046783 261.293624 
L 293.17665 261.389906 
L 293.360627 261.873612 
L 293.696114 263.537132 
L 294.496955 267.544262 
L 294.951487 268.736111 
L 295.211219 268.946358 
L 295.373552 268.814917 
L 295.589996 268.269935 
L 295.947127 266.612358 
L 296.45577 264.501014 
L 296.650569 264.379268 
L 296.80208 264.602845 
L 297.061812 265.49209 
L 297.635387 268.476125 
L 298.414584 272.291334 
L 298.620206 272.498757 
L 298.760894 272.33284 
L 298.98816 271.610106 
L 299.561735 268.732978 
L 300.319288 265.462771 
L 300.643953 264.818327 
L 300.838752 264.805422 
L 301.07684 265.087694 
L 301.639594 265.783098 
L 301.942615 265.754619 
L 302.26728 265.776911 
L 302.505368 266.071684 
L 302.905788 267.031056 
L 303.576764 268.489544 
L 304.150339 269.834915 
L 304.55076 270.563347 
L 304.734737 270.560891 
L 304.929536 270.276356 
L 305.254201 269.315928 
L 306.217375 266.3067 
L 306.466285 266.122069 
L 306.63944 266.269926 
L 306.909995 266.881846 
L 307.299593 267.642925 
L 307.418637 267.555351 
L 307.570148 267.079992 
L 307.797413 265.503913 
L 308.154545 261.164915 
L 309.063608 249.545284 
L 309.301696 248.751034 
L 309.409918 248.819879 
L 309.572251 249.36275 
L 309.896916 251.465032 
L 310.448847 254.742508 
L 310.719402 255.275726 
L 310.903379 255.267738 
L 311.119822 254.972781 
L 311.433665 254.105864 
L 312.353551 251.107063 
L 312.386017 251.122035 
L 312.526706 251.364844 
L 312.753971 252.320165 
L 313.500702 255.800039 
L 313.619746 255.734371 
L 313.7929 255.248179 
L 314.117566 253.487808 
L 314.777719 250.015754 
L 315.102384 249.361295 
L 315.351294 249.278746 
L 315.600204 249.447209 
L 315.946514 249.98886 
L 316.444334 250.725773 
L 316.5742 250.613451 
L 316.736533 250.106051 
L 316.974621 248.486887 
L 317.41833 243.473084 
L 317.851218 239.626121 
L 318.089306 239.016928 
L 318.229994 239.068927 
L 318.922613 239.687979 
L 319.290567 239.589707 
L 319.4529 239.880246 
L 319.680166 240.858575 
L 320.177986 244.393568 
L 320.535118 246.032085 
L 320.719095 246.175577 
L 320.870606 245.990705 
L 321.249382 245.017208 
L 321.606514 244.397963 
L 321.833779 244.362889 
L 322.071867 244.59158 
L 322.364066 245.217383 
L 322.699554 246.514179 
L 323.229841 249.688534 
L 323.619439 251.408964 
L 323.760127 251.511659 
L 323.781772 251.496121 
L 323.911638 251.222187 
L 324.128081 250.124238 
L 325.058789 244.561923 
L 325.210299 244.585319 
L 325.654009 244.857802 
L 325.664831 244.843748 
L 325.816341 244.452752 
L 326.054429 243.066844 
L 327.006781 236.586029 
L 327.115003 236.682686 
L 327.309802 237.282975 
L 327.969955 239.564228 
L 328.229687 239.671412 
L 328.446131 239.825628 
L 328.64093 240.340723 
L 328.922307 241.892114 
L 329.604104 245.871209 
L 329.766437 245.987278 
L 329.777259 245.981155 
L 329.928769 245.743806 
L 330.653855 244.084536 
L 330.707966 244.122444 
L 330.891943 244.475123 
L 331.270719 245.859538 
L 331.757717 247.331251 
L 332.104027 247.729829 
L 332.829113 248.107501 
L 333.056379 247.996887 
L 333.294467 247.573566 
L 333.640777 246.394667 
L 334.35504 243.925317 
L 334.539017 243.871293 
L 334.70135 244.127832 
L 334.961082 245.075031 
L 335.740279 248.225296 
L 335.848501 248.116295 
L 336.010834 247.510306 
L 336.270566 245.505227 
L 337.190451 237.560034 
L 337.547583 236.62847 
L 338.110337 235.797551 
L 338.359247 235.744508 
L 338.629801 235.956073 
L 339.203377 236.417895 
L 339.484753 236.345901 
L 339.776952 236.012857 
L 340.199017 235.112788 
L 340.577793 234.504642 
L 340.750948 234.548279 
L 340.95657 234.917525 
L 341.335346 236.187879 
L 342.514963 241.094286 
L 342.980317 242.746382 
L 343.196761 242.904454 
L 343.359093 242.717838 
L 343.629648 241.96467 
L 344.181579 239.648778 
L 344.538711 237.205723 
L 345.004064 232.118671 
L 345.469418 227.896685 
L 345.642573 227.525257 
L 345.664217 227.536902 
L 345.772439 227.786708 
L 345.967238 228.971923 
L 346.335193 232.916377 
L 347.644676 247.633325 
L 348.055919 250.04963 
L 348.467162 251.141917 
L 348.813471 252.250758 
L 349.635957 255.260693 
L 349.755001 255.139119 
L 349.938978 254.520085 
L 350.231177 252.598961 
L 351.248462 245.150418 
L 351.48655 244.872651 
L 351.767926 244.648583 
L 351.951903 244.048079 
L 352.189991 242.356933 
L 352.644523 237.041586 
L 353.109877 232.68021 
L 353.402075 231.671298 
L 353.640163 231.497948 
L 354.07305 231.320367 
L 354.614159 230.903808 
L 354.76567 231.222694 
L 354.971291 232.285837 
L 355.295957 235.392492 
L 355.901999 241.056793 
L 356.064331 241.353407 
L 356.085976 241.341122 
L 356.194198 241.104801 
L 356.399819 239.957853 
L 357.417104 233.178605 
L 357.536148 233.286163 
L 357.730947 233.90212 
L 358.131368 236.129681 
L 359.538251 244.143435 
L 360.165937 246.538235 
L 360.620469 247.527435 
L 361.442954 248.849748 
L 361.713509 250.320953 
L 362.059818 253.623357 
L 362.698327 262.446915 
L 363.26108 268.82793 
L 363.585746 270.446984 
L 363.791367 270.669448 
L 363.942878 270.525621 
L 364.256721 269.799344 
L 364.603031 269.222352 
L 364.754541 269.29299 
L 364.938518 269.712643 
L 365.252361 271.126931 
L 366.756644 278.753164 
L 367.351864 281.870193 
L 367.914617 286.28391 
L 368.661348 291.779685 
L 369.01848 293.010914 
L 369.245745 293.214115 
L 369.408078 293.090141 
L 369.646166 292.54602 
L 370.11152 290.745136 
L 370.652629 289.002325 
L 371.031405 287.767428 
L 371.301959 285.865697 
L 371.756491 280.561287 
L 372.070334 278.128911 
L 372.124445 278.074818 
L 372.178556 278.159006 
L 372.2976 278.857714 
L 372.503221 281.700816 
L 372.903642 291.154303 
L 373.466395 302.840359 
L 373.812705 306.046326 
L 374.115726 307.127616 
L 374.407925 307.468557 
L 374.808345 307.571318 
L 376.485783 307.584 
L 398.487273 307.584 
L 398.487273 307.584 
" style="fill:none;stroke:#ff7f0e;stroke-linecap:square;stroke-width:1.5;"/>
   </g>
   <g id="patch_103">
    <path d="M 57.6 307.584 
L 57.6 41.472 
" style="fill:none;stroke:#000000;stroke-linecap:square;stroke-linejoin:miter;stroke-width:0.8;"/>
   </g>
   <g id="patch_104">
    <path d="M 414.72 307.584 
L 414.72 41.472 
" style="fill:none;stroke:#000000;stroke-linecap:square;stroke-linejoin:miter;stroke-width:0.8;"/>
   </g>
   <g id="patch_105">
    <path d="M 57.6 307.584 
L 414.72 307.584 
" style="fill:none;stroke:#000000;stroke-linecap:square;stroke-linejoin:miter;stroke-width:0.8;"/>
   </g>
   <g id="patch_106">
    <path d="M 57.6 41.472 
L 414.72 41.472 
" style="fill:none;stroke:#000000;stroke-linecap:square;stroke-linejoin:miter;stroke-width:0.8;"/>
   </g>
  </g>
 </g>
 <defs>
  <clipPath id="pe1a22dce27">
   <rect height="266.112" width="357.12" x="57.6" y="41.472"/>
  </clipPath>
 </defs>
</svg>
