<?xml version="1.0" encoding="utf-8" standalone="no"?>
<!DOCTYPE svg PUBLIC "-//W3C//DTD SVG 1.1//EN"
  "http://www.w3.org/Graphics/SVG/1.1/DTD/svg11.dtd">
<!-- Created with matplotlib (https://matplotlib.org/) -->
<svg height="345.6pt" version="1.1" viewBox="0 0 460.8 345.6" width="460.8pt" xmlns="http://www.w3.org/2000/svg" xmlns:xlink="http://www.w3.org/1999/xlink">
 <defs>
  <style type="text/css">
*{stroke-linecap:butt;stroke-linejoin:round;}
  </style>
 </defs>
 <g id="figure_1">
  <g id="patch_1">
   <path d="M 0 345.6 
L 460.8 345.6 
L 460.8 0 
L 0 0 
z
" style="fill:#ffffff;"/>
  </g>
  <g id="axes_1">
   <g id="patch_2">
    <path d="M 57.6 307.584 
L 414.72 307.584 
L 414.72 41.472 
L 57.6 41.472 
z
" style="fill:#ffffff;"/>
   </g>
   <g id="patch_3">
    <path clip-path="url(#pd94d0d47da)" d="M 99.974738 307.584 
L 102.698564 307.584 
L 102.698564 284.347348 
L 99.974738 284.347348 
z
" style="fill:#1f77b4;"/>
   </g>
   <g id="patch_4">
    <path clip-path="url(#pd94d0d47da)" d="M 102.698549 307.584 
L 105.42239 307.584 
L 105.42239 287.859978 
L 102.698549 287.859978 
z
" style="fill:#1f77b4;"/>
   </g>
   <g id="patch_5">
    <path clip-path="url(#pd94d0d47da)" d="M 105.42239 307.584 
L 108.146224 307.584 
L 108.146224 266.244493 
L 105.42239 266.244493 
z
" style="fill:#1f77b4;"/>
   </g>
   <g id="patch_6">
    <path clip-path="url(#pd94d0d47da)" d="M 108.146216 307.584 
L 110.87005 307.584 
L 110.87005 259.759864 
L 108.146216 259.759864 
z
" style="fill:#1f77b4;"/>
   </g>
   <g id="patch_7">
    <path clip-path="url(#pd94d0d47da)" d="M 110.870058 307.584 
L 113.593884 307.584 
L 113.593884 245.439466 
L 110.870058 245.439466 
z
" style="fill:#1f77b4;"/>
   </g>
   <g id="patch_8">
    <path clip-path="url(#pd94d0d47da)" d="M 113.593884 307.584 
L 116.317718 307.584 
L 116.317718 243.548293 
L 113.593884 243.548293 
z
" style="fill:#1f77b4;"/>
   </g>
   <g id="patch_9">
    <path clip-path="url(#pd94d0d47da)" d="M 116.31771 307.584 
L 119.041544 307.584 
L 119.041544 239.225207 
L 116.31771 239.225207 
z
" style="fill:#1f77b4;"/>
   </g>
   <g id="patch_10">
    <path clip-path="url(#pd94d0d47da)" d="M 119.041552 307.584 
L 121.765385 307.584 
L 121.765385 238.684822 
L 119.041552 238.684822 
z
" style="fill:#1f77b4;"/>
   </g>
   <g id="patch_11">
    <path clip-path="url(#pd94d0d47da)" d="M 121.765378 307.584 
L 124.489211 307.584 
L 124.489211 235.7127 
L 121.765378 235.7127 
z
" style="fill:#1f77b4;"/>
   </g>
   <g id="patch_12">
    <path clip-path="url(#pd94d0d47da)" d="M 124.489219 307.584 
L 127.213053 307.584 
L 127.213053 229.228072 
L 124.489219 229.228072 
z
" style="fill:#1f77b4;"/>
   </g>
   <g id="patch_13">
    <path clip-path="url(#pd94d0d47da)" d="M 127.213045 307.584 
L 129.936879 307.584 
L 129.936879 235.982893 
L 127.213045 235.982893 
z
" style="fill:#1f77b4;"/>
   </g>
   <g id="patch_14">
    <path clip-path="url(#pd94d0d47da)" d="M 129.936887 307.584 
L 132.66072 307.584 
L 132.66072 231.119422 
L 129.936887 231.119422 
z
" style="fill:#1f77b4;"/>
   </g>
   <g id="patch_15">
    <path clip-path="url(#pd94d0d47da)" d="M 132.660713 307.584 
L 135.384546 307.584 
L 135.384546 245.16945 
L 132.660713 245.16945 
z
" style="fill:#1f77b4;"/>
   </g>
   <g id="patch_16">
    <path clip-path="url(#pd94d0d47da)" d="M 135.384554 307.584 
L 138.108388 307.584 
L 138.108388 250.8435 
L 135.384554 250.8435 
z
" style="fill:#1f77b4;"/>
   </g>
   <g id="patch_17">
    <path clip-path="url(#pd94d0d47da)" d="M 138.10838 307.584 
L 140.832214 307.584 
L 140.832214 247.871379 
L 138.10838 247.871379 
z
" style="fill:#1f77b4;"/>
   </g>
   <g id="patch_18">
    <path clip-path="url(#pd94d0d47da)" d="M 140.832222 307.584 
L 143.556048 307.584 
L 143.556048 254.62605 
L 140.832222 254.62605 
z
" style="fill:#1f77b4;"/>
   </g>
   <g id="patch_19">
    <path clip-path="url(#pd94d0d47da)" d="M 143.556048 307.584 
L 146.279881 307.584 
L 146.279881 242.197329 
L 143.556048 242.197329 
z
" style="fill:#1f77b4;"/>
   </g>
   <g id="patch_20">
    <path clip-path="url(#pd94d0d47da)" d="M 146.279874 307.584 
L 149.003708 307.584 
L 149.003708 251.113693 
L 146.279874 251.113693 
z
" style="fill:#1f77b4;"/>
   </g>
   <g id="patch_21">
    <path clip-path="url(#pd94d0d47da)" d="M 149.003715 307.584 
L 151.727549 307.584 
L 151.727549 246.790607 
L 149.003715 246.790607 
z
" style="fill:#1f77b4;"/>
   </g>
   <g id="patch_22">
    <path clip-path="url(#pd94d0d47da)" d="M 151.727541 307.584 
L 154.451375 307.584 
L 154.451375 251.383886 
L 151.727541 251.383886 
z
" style="fill:#1f77b4;"/>
   </g>
   <g id="patch_23">
    <path clip-path="url(#pd94d0d47da)" d="M 154.451383 307.584 
L 157.175217 307.584 
L 157.175217 246.520414 
L 154.451383 246.520414 
z
" style="fill:#1f77b4;"/>
   </g>
   <g id="patch_24">
    <path clip-path="url(#pd94d0d47da)" d="M 157.175209 307.584 
L 159.899043 307.584 
L 159.899043 245.439643 
L 157.175209 245.439643 
z
" style="fill:#1f77b4;"/>
   </g>
   <g id="patch_25">
    <path clip-path="url(#pd94d0d47da)" d="M 159.89905 307.584 
L 162.622884 307.584 
L 162.622884 245.980029 
L 159.89905 245.980029 
z
" style="fill:#1f77b4;"/>
   </g>
   <g id="patch_26">
    <path clip-path="url(#pd94d0d47da)" d="M 162.622876 307.584 
L 165.34671 307.584 
L 165.34671 251.654079 
L 162.622876 251.654079 
z
" style="fill:#1f77b4;"/>
   </g>
   <g id="patch_27">
    <path clip-path="url(#pd94d0d47da)" d="M 165.346718 307.584 
L 168.070544 307.584 
L 168.070544 260.840503 
L 165.346718 260.840503 
z
" style="fill:#1f77b4;"/>
   </g>
   <g id="patch_28">
    <path clip-path="url(#pd94d0d47da)" d="M 168.070544 307.584 
L 170.794378 307.584 
L 170.794378 268.946422 
L 168.070544 268.946422 
z
" style="fill:#1f77b4;"/>
   </g>
   <g id="patch_29">
    <path clip-path="url(#pd94d0d47da)" d="M 170.794378 307.584 
L 173.518215 307.584 
L 173.518215 269.486861 
L 170.794378 269.486861 
z
" style="fill:#1f77b4;"/>
   </g>
   <g id="patch_30">
    <path clip-path="url(#pd94d0d47da)" d="M 173.518219 307.584 
L 176.242049 307.584 
L 176.242049 263.272309 
L 173.518219 263.272309 
z
" style="fill:#1f77b4;"/>
   </g>
   <g id="patch_31">
    <path clip-path="url(#pd94d0d47da)" d="M 176.242045 307.584 
L 178.965879 307.584 
L 178.965879 271.378157 
L 176.242045 271.378157 
z
" style="fill:#1f77b4;"/>
   </g>
   <g id="patch_32">
    <path clip-path="url(#pd94d0d47da)" d="M 178.965879 307.584 
L 181.689713 307.584 
L 181.689713 267.325264 
L 178.965879 267.325264 
z
" style="fill:#1f77b4;"/>
   </g>
   <g id="patch_33">
    <path clip-path="url(#pd94d0d47da)" d="M 181.689713 307.584 
L 184.413547 307.584 
L 184.413547 264.893529 
L 181.689713 264.893529 
z
" style="fill:#1f77b4;"/>
   </g>
   <g id="patch_34">
    <path clip-path="url(#pd94d0d47da)" d="M 184.413547 307.584 
L 187.13738 307.584 
L 187.13738 264.353143 
L 184.413547 264.353143 
z
" style="fill:#1f77b4;"/>
   </g>
   <g id="patch_35">
    <path clip-path="url(#pd94d0d47da)" d="M 187.13738 307.584 
L 189.86121 307.584 
L 189.86121 263.002115 
L 187.13738 263.002115 
z
" style="fill:#1f77b4;"/>
   </g>
   <g id="patch_36">
    <path clip-path="url(#pd94d0d47da)" d="M 189.86121 307.584 
L 192.585044 307.584 
L 192.585044 267.055072 
L 189.86121 267.055072 
z
" style="fill:#1f77b4;"/>
   </g>
   <g id="patch_37">
    <path clip-path="url(#pd94d0d47da)" d="M 192.585044 307.584 
L 195.308878 307.584 
L 195.308878 268.406036 
L 192.585044 268.406036 
z
" style="fill:#1f77b4;"/>
   </g>
   <g id="patch_38">
    <path clip-path="url(#pd94d0d47da)" d="M 195.308878 307.584 
L 198.032712 307.584 
L 198.032712 260.570443 
L 195.308878 260.570443 
z
" style="fill:#1f77b4;"/>
   </g>
   <g id="patch_39">
    <path clip-path="url(#pd94d0d47da)" d="M 198.032712 307.584 
L 200.756545 307.584 
L 200.756545 265.163722 
L 198.032712 265.163722 
z
" style="fill:#1f77b4;"/>
   </g>
   <g id="patch_40">
    <path clip-path="url(#pd94d0d47da)" d="M 200.756549 307.584 
L 203.480379 307.584 
L 203.480379 266.244434 
L 200.756549 266.244434 
z
" style="fill:#1f77b4;"/>
   </g>
   <g id="patch_41">
    <path clip-path="url(#pd94d0d47da)" d="M 203.480375 307.584 
L 206.204209 307.584 
L 206.204209 267.055072 
L 203.480375 267.055072 
z
" style="fill:#1f77b4;"/>
   </g>
   <g id="patch_42">
    <path clip-path="url(#pd94d0d47da)" d="M 206.204209 307.584 
L 208.928043 307.584 
L 208.928043 261.110829 
L 206.204209 261.110829 
z
" style="fill:#1f77b4;"/>
   </g>
   <g id="patch_43">
    <path clip-path="url(#pd94d0d47da)" d="M 208.928043 307.584 
L 211.651877 307.584 
L 211.651877 257.598322 
L 208.928043 257.598322 
z
" style="fill:#1f77b4;"/>
   </g>
   <g id="patch_44">
    <path clip-path="url(#pd94d0d47da)" d="M 211.651877 307.584 
L 214.375708 307.584 
L 214.375708 255.436742 
L 211.651877 255.436742 
z
" style="fill:#1f77b4;"/>
   </g>
   <g id="patch_45">
    <path clip-path="url(#pd94d0d47da)" d="M 214.375708 307.584 
L 217.099542 307.584 
L 217.099542 256.51755 
L 214.375708 256.51755 
z
" style="fill:#1f77b4;"/>
   </g>
   <g id="patch_46">
    <path clip-path="url(#pd94d0d47da)" d="M 217.09954 307.584 
L 219.823372 307.584 
L 219.823372 254.355969 
L 217.09954 254.355969 
z
" style="fill:#1f77b4;"/>
   </g>
   <g id="patch_47">
    <path clip-path="url(#pd94d0d47da)" d="M 219.823374 307.584 
L 222.547208 307.584 
L 222.547208 252.464657 
L 219.823374 252.464657 
z
" style="fill:#1f77b4;"/>
   </g>
   <g id="patch_48">
    <path clip-path="url(#pd94d0d47da)" d="M 222.547208 307.584 
L 225.271041 307.584 
L 225.271041 249.222322 
L 222.547208 249.222322 
z
" style="fill:#1f77b4;"/>
   </g>
   <g id="patch_49">
    <path clip-path="url(#pd94d0d47da)" d="M 225.27104 307.584 
L 227.994872 307.584 
L 227.994872 240.035762 
L 225.27104 240.035762 
z
" style="fill:#1f77b4;"/>
   </g>
   <g id="patch_50">
    <path clip-path="url(#pd94d0d47da)" d="M 227.994873 307.584 
L 230.718707 307.584 
L 230.718707 247.330982 
L 227.994873 247.330982 
z
" style="fill:#1f77b4;"/>
   </g>
   <g id="patch_51">
    <path clip-path="url(#pd94d0d47da)" d="M 230.718707 307.584 
L 233.44254 307.584 
L 233.44254 224.634771 
L 230.718707 224.634771 
z
" style="fill:#1f77b4;"/>
   </g>
   <g id="patch_52">
    <path clip-path="url(#pd94d0d47da)" d="M 233.44254 307.584 
L 236.166373 307.584 
L 236.166373 126.824931 
L 233.44254 126.824931 
z
" style="fill:#1f77b4;"/>
   </g>
   <g id="patch_53">
    <path clip-path="url(#pd94d0d47da)" d="M 236.166373 307.584 
L 238.890206 307.584 
L 238.890206 230.849208 
L 236.166373 230.849208 
z
" style="fill:#1f77b4;"/>
   </g>
   <g id="patch_54">
    <path clip-path="url(#pd94d0d47da)" d="M 238.890206 307.584 
L 241.614039 307.584 
L 241.614039 205.721266 
L 238.890206 205.721266 
z
" style="fill:#1f77b4;"/>
   </g>
   <g id="patch_55">
    <path clip-path="url(#pd94d0d47da)" d="M 241.614038 307.584 
L 244.337872 307.584 
L 244.337872 238.144424 
L 241.614038 238.144424 
z
" style="fill:#1f77b4;"/>
   </g>
   <g id="patch_56">
    <path clip-path="url(#pd94d0d47da)" d="M 244.337872 307.584 
L 247.061705 307.584 
L 247.061705 245.439621 
L 244.337872 245.439621 
z
" style="fill:#1f77b4;"/>
   </g>
   <g id="patch_57">
    <path clip-path="url(#pd94d0d47da)" d="M 247.061704 307.584 
L 249.785537 307.584 
L 249.785537 248.952129 
L 247.061704 248.952129 
z
" style="fill:#1f77b4;"/>
   </g>
   <g id="patch_58">
    <path clip-path="url(#pd94d0d47da)" d="M 249.785538 307.584 
L 252.509371 307.584 
L 252.509371 241.38675 
L 249.785538 241.38675 
z
" style="fill:#1f77b4;"/>
   </g>
   <g id="patch_59">
    <path clip-path="url(#pd94d0d47da)" d="M 252.509371 307.584 
L 255.233203 307.584 
L 255.233203 259.219444 
L 252.509371 259.219444 
z
" style="fill:#1f77b4;"/>
   </g>
   <g id="patch_60">
    <path clip-path="url(#pd94d0d47da)" d="M 255.233203 307.584 
L 257.957037 307.584 
L 257.957037 264.623336 
L 255.233203 264.623336 
z
" style="fill:#1f77b4;"/>
   </g>
   <g id="patch_61">
    <path clip-path="url(#pd94d0d47da)" d="M 257.957035 307.584 
L 260.680867 307.584 
L 260.680867 253.54539 
L 257.957035 253.54539 
z
" style="fill:#1f77b4;"/>
   </g>
   <g id="patch_62">
    <path clip-path="url(#pd94d0d47da)" d="M 260.680869 307.584 
L 263.404703 307.584 
L 263.404703 261.921407 
L 260.680869 261.921407 
z
" style="fill:#1f77b4;"/>
   </g>
   <g id="patch_63">
    <path clip-path="url(#pd94d0d47da)" d="M 263.404703 307.584 
L 266.128536 307.584 
L 266.128536 259.489672 
L 263.404703 259.489672 
z
" style="fill:#1f77b4;"/>
   </g>
   <g id="patch_64">
    <path clip-path="url(#pd94d0d47da)" d="M 266.128536 307.584 
L 268.85237 307.584 
L 268.85237 267.595457 
L 266.128536 267.595457 
z
" style="fill:#1f77b4;"/>
   </g>
   <g id="patch_65">
    <path clip-path="url(#pd94d0d47da)" d="M 268.85237 307.584 
L 271.5762 307.584 
L 271.5762 263.812695 
L 268.85237 263.812695 
z
" style="fill:#1f77b4;"/>
   </g>
   <g id="patch_66">
    <path clip-path="url(#pd94d0d47da)" d="M 271.5762 307.584 
L 274.300034 307.584 
L 274.300034 272.458929 
L 271.5762 272.458929 
z
" style="fill:#1f77b4;"/>
   </g>
   <g id="patch_67">
    <path clip-path="url(#pd94d0d47da)" d="M 274.300034 307.584 
L 277.023868 307.584 
L 277.023868 268.135843 
L 274.300034 268.135843 
z
" style="fill:#1f77b4;"/>
   </g>
   <g id="patch_68">
    <path clip-path="url(#pd94d0d47da)" d="M 277.023868 307.584 
L 279.747701 307.584 
L 279.747701 272.999314 
L 277.023868 272.999314 
z
" style="fill:#1f77b4;"/>
   </g>
   <g id="patch_69">
    <path clip-path="url(#pd94d0d47da)" d="M 279.747701 307.584 
L 282.471535 307.584 
L 282.471535 271.378157 
L 279.747701 271.378157 
z
" style="fill:#1f77b4;"/>
   </g>
   <g id="patch_70">
    <path clip-path="url(#pd94d0d47da)" d="M 282.471539 307.584 
L 285.195369 307.584 
L 285.195369 268.946367 
L 282.471539 268.946367 
z
" style="fill:#1f77b4;"/>
   </g>
   <g id="patch_71">
    <path clip-path="url(#pd94d0d47da)" d="M 285.195365 307.584 
L 287.919199 307.584 
L 287.919199 270.837772 
L 285.195365 270.837772 
z
" style="fill:#1f77b4;"/>
   </g>
   <g id="patch_72">
    <path clip-path="url(#pd94d0d47da)" d="M 287.919199 307.584 
L 290.643033 307.584 
L 290.643033 274.620472 
L 287.919199 274.620472 
z
" style="fill:#1f77b4;"/>
   </g>
   <g id="patch_73">
    <path clip-path="url(#pd94d0d47da)" d="M 290.643033 307.584 
L 293.366866 307.584 
L 293.366866 263.272372 
L 290.643033 263.272372 
z
" style="fill:#1f77b4;"/>
   </g>
   <g id="patch_74">
    <path clip-path="url(#pd94d0d47da)" d="M 293.366866 307.584 
L 296.0907 307.584 
L 296.0907 271.64835 
L 293.366866 271.64835 
z
" style="fill:#1f77b4;"/>
   </g>
   <g id="patch_75">
    <path clip-path="url(#pd94d0d47da)" d="M 296.0907 307.584 
L 298.81453 307.584 
L 298.81453 268.946367 
L 296.0907 268.946367 
z
" style="fill:#1f77b4;"/>
   </g>
   <g id="patch_76">
    <path clip-path="url(#pd94d0d47da)" d="M 298.814526 307.584 
L 301.53836 307.584 
L 301.53836 271.108016 
L 298.814526 271.108016 
z
" style="fill:#1f77b4;"/>
   </g>
   <g id="patch_77">
    <path clip-path="url(#pd94d0d47da)" d="M 301.53836 307.584 
L 304.262194 307.584 
L 304.262194 266.784879 
L 301.53836 266.784879 
z
" style="fill:#1f77b4;"/>
   </g>
   <g id="patch_78">
    <path clip-path="url(#pd94d0d47da)" d="M 304.262201 307.584 
L 306.986028 307.584 
L 306.986028 268.946312 
L 304.262201 268.946312 
z
" style="fill:#1f77b4;"/>
   </g>
   <g id="patch_79">
    <path clip-path="url(#pd94d0d47da)" d="M 306.986028 307.584 
L 309.709861 307.584 
L 309.709861 262.731986 
L 306.986028 262.731986 
z
" style="fill:#1f77b4;"/>
   </g>
   <g id="patch_80">
    <path clip-path="url(#pd94d0d47da)" d="M 309.709854 307.584 
L 312.433687 307.584 
L 312.433687 258.138707 
L 309.709854 258.138707 
z
" style="fill:#1f77b4;"/>
   </g>
   <g id="patch_81">
    <path clip-path="url(#pd94d0d47da)" d="M 312.433695 307.584 
L 315.157529 307.584 
L 315.157529 259.489672 
L 312.433695 259.489672 
z
" style="fill:#1f77b4;"/>
   </g>
   <g id="patch_82">
    <path clip-path="url(#pd94d0d47da)" d="M 315.157521 307.584 
L 317.881355 307.584 
L 317.881355 255.706972 
L 315.157521 255.706972 
z
" style="fill:#1f77b4;"/>
   </g>
   <g id="patch_83">
    <path clip-path="url(#pd94d0d47da)" d="M 317.881363 307.584 
L 320.605196 307.584 
L 320.605196 249.222343 
L 317.881363 249.222343 
z
" style="fill:#1f77b4;"/>
   </g>
   <g id="patch_84">
    <path clip-path="url(#pd94d0d47da)" d="M 320.605189 307.584 
L 323.329022 307.584 
L 323.329022 250.8435 
L 320.605189 250.8435 
z
" style="fill:#1f77b4;"/>
   </g>
   <g id="patch_85">
    <path clip-path="url(#pd94d0d47da)" d="M 323.32903 307.584 
L 326.052864 307.584 
L 326.052864 250.573307 
L 323.32903 250.573307 
z
" style="fill:#1f77b4;"/>
   </g>
   <g id="patch_86">
    <path clip-path="url(#pd94d0d47da)" d="M 326.052856 307.584 
L 328.77669 307.584 
L 328.77669 242.197329 
L 326.052856 242.197329 
z
" style="fill:#1f77b4;"/>
   </g>
   <g id="patch_87">
    <path clip-path="url(#pd94d0d47da)" d="M 328.776698 307.584 
L 331.500531 307.584 
L 331.500531 246.790607 
L 328.776698 246.790607 
z
" style="fill:#1f77b4;"/>
   </g>
   <g id="patch_88">
    <path clip-path="url(#pd94d0d47da)" d="M 331.500531 307.584 
L 334.224357 307.584 
L 334.224357 245.70966 
L 331.500531 245.70966 
z
" style="fill:#1f77b4;"/>
   </g>
   <g id="patch_89">
    <path clip-path="url(#pd94d0d47da)" d="M 334.22435 307.584 
L 336.948184 307.584 
L 336.948184 239.225207 
L 334.22435 239.225207 
z
" style="fill:#1f77b4;"/>
   </g>
   <g id="patch_90">
    <path clip-path="url(#pd94d0d47da)" d="M 336.948191 307.584 
L 339.672025 307.584 
L 339.672025 229.768457 
L 336.948191 229.768457 
z
" style="fill:#1f77b4;"/>
   </g>
   <g id="patch_91">
    <path clip-path="url(#pd94d0d47da)" d="M 339.672017 307.584 
L 342.395851 307.584 
L 342.395851 237.333857 
L 339.672017 237.333857 
z
" style="fill:#1f77b4;"/>
   </g>
   <g id="patch_92">
    <path clip-path="url(#pd94d0d47da)" d="M 342.395859 307.584 
L 345.119693 307.584 
L 345.119693 244.358872 
L 342.395859 244.358872 
z
" style="fill:#1f77b4;"/>
   </g>
   <g id="patch_93">
    <path clip-path="url(#pd94d0d47da)" d="M 345.119685 307.584 
L 347.843519 307.584 
L 347.843519 237.333857 
L 345.119685 237.333857 
z
" style="fill:#1f77b4;"/>
   </g>
   <g id="patch_94">
    <path clip-path="url(#pd94d0d47da)" d="M 347.843526 307.584 
L 350.56736 307.584 
L 350.56736 251.383886 
L 347.843526 251.383886 
z
" style="fill:#1f77b4;"/>
   </g>
   <g id="patch_95">
    <path clip-path="url(#pd94d0d47da)" d="M 350.567352 307.584 
L 353.291186 307.584 
L 353.291186 235.442507 
L 350.567352 235.442507 
z
" style="fill:#1f77b4;"/>
   </g>
   <g id="patch_96">
    <path clip-path="url(#pd94d0d47da)" d="M 353.291194 307.584 
L 356.015028 307.584 
L 356.015028 233.010772 
L 353.291194 233.010772 
z
" style="fill:#1f77b4;"/>
   </g>
   <g id="patch_97">
    <path clip-path="url(#pd94d0d47da)" d="M 356.01502 307.584 
L 358.738854 307.584 
L 358.738854 236.253086 
L 356.01502 236.253086 
z
" style="fill:#1f77b4;"/>
   </g>
   <g id="patch_98">
    <path clip-path="url(#pd94d0d47da)" d="M 358.738861 307.584 
L 361.462687 307.584 
L 361.462687 246.520241 
L 358.738861 246.520241 
z
" style="fill:#1f77b4;"/>
   </g>
   <g id="patch_99">
    <path clip-path="url(#pd94d0d47da)" d="M 361.462687 307.584 
L 364.186521 307.584 
L 364.186521 262.1916 
L 361.462687 262.1916 
z
" style="fill:#1f77b4;"/>
   </g>
   <g id="patch_100">
    <path clip-path="url(#pd94d0d47da)" d="M 364.186513 307.584 
L 366.91034 307.584 
L 366.91034 272.729122 
L 364.186513 272.729122 
z
" style="fill:#1f77b4;"/>
   </g>
   <g id="patch_101">
    <path clip-path="url(#pd94d0d47da)" d="M 366.910355 307.584 
L 369.634197 307.584 
L 369.634197 287.319593 
L 366.910355 287.319593 
z
" style="fill:#1f77b4;"/>
   </g>
   <g id="patch_102">
    <path clip-path="url(#pd94d0d47da)" d="M 369.634212 307.584 
L 372.358038 307.584 
L 372.358038 279.213669 
L 369.634212 279.213669 
z
" style="fill:#1f77b4;"/>
   </g>
   <g id="matplotlib.axis_1">
    <g id="xtick_1">
     <g id="line2d_1">
      <defs>
       <path d="M 0 0 
L 0 3.5 
" id="m9ead821450" style="stroke:#000000;stroke-width:0.8;"/>
      </defs>
      <g>
       <use style="stroke:#000000;stroke-width:0.8;" x="106.298993" xlink:href="#m9ead821450" y="307.584"/>
      </g>
     </g>
     <g id="text_1">
      <!-- −2 -->
      <defs>
       <path d="M 10.59375 35.5 
L 73.1875 35.5 
L 73.1875 27.203125 
L 10.59375 27.203125 
z
" id="DejaVuSans-8722"/>
       <path d="M 19.1875 8.296875 
L 53.609375 8.296875 
L 53.609375 0 
L 7.328125 0 
L 7.328125 8.296875 
Q 12.9375 14.109375 22.625 23.890625 
Q 32.328125 33.6875 34.8125 36.53125 
Q 39.546875 41.84375 41.421875 45.53125 
Q 43.3125 49.21875 43.3125 52.78125 
Q 43.3125 58.59375 39.234375 62.25 
Q 35.15625 65.921875 28.609375 65.921875 
Q 23.96875 65.921875 18.8125 64.3125 
Q 13.671875 62.703125 7.8125 59.421875 
L 7.8125 69.390625 
Q 13.765625 71.78125 18.9375 73 
Q 24.125 74.21875 28.421875 74.21875 
Q 39.75 74.21875 46.484375 68.546875 
Q 53.21875 62.890625 53.21875 53.421875 
Q 53.21875 48.921875 51.53125 44.890625 
Q 49.859375 40.875 45.40625 35.40625 
Q 44.1875 33.984375 37.640625 27.21875 
Q 31.109375 20.453125 19.1875 8.296875 
z
" id="DejaVuSans-50"/>
      </defs>
      <g transform="translate(93.768134 327.501344)scale(0.17 -0.17)">
       <use xlink:href="#DejaVuSans-8722"/>
       <use x="83.789062" xlink:href="#DejaVuSans-50"/>
      </g>
     </g>
    </g>
    <g id="xtick_2">
     <g id="line2d_2">
      <g>
       <use style="stroke:#000000;stroke-width:0.8;" x="171.231526" xlink:href="#m9ead821450" y="307.584"/>
      </g>
     </g>
     <g id="text_2">
      <!-- −1 -->
      <defs>
       <path d="M 12.40625 8.296875 
L 28.515625 8.296875 
L 28.515625 63.921875 
L 10.984375 60.40625 
L 10.984375 69.390625 
L 28.421875 72.90625 
L 38.28125 72.90625 
L 38.28125 8.296875 
L 54.390625 8.296875 
L 54.390625 0 
L 12.40625 0 
z
" id="DejaVuSans-49"/>
      </defs>
      <g transform="translate(158.700667 327.501344)scale(0.17 -0.17)">
       <use xlink:href="#DejaVuSans-8722"/>
       <use x="83.789062" xlink:href="#DejaVuSans-49"/>
      </g>
     </g>
    </g>
    <g id="xtick_3">
     <g id="line2d_3">
      <g>
       <use style="stroke:#000000;stroke-width:0.8;" x="236.164058" xlink:href="#m9ead821450" y="307.584"/>
      </g>
     </g>
     <g id="text_3">
      <!-- 0 -->
      <defs>
       <path d="M 31.78125 66.40625 
Q 24.171875 66.40625 20.328125 58.90625 
Q 16.5 51.421875 16.5 36.375 
Q 16.5 21.390625 20.328125 13.890625 
Q 24.171875 6.390625 31.78125 6.390625 
Q 39.453125 6.390625 43.28125 13.890625 
Q 47.125 21.390625 47.125 36.375 
Q 47.125 51.421875 43.28125 58.90625 
Q 39.453125 66.40625 31.78125 66.40625 
z
M 31.78125 74.21875 
Q 44.046875 74.21875 50.515625 64.515625 
Q 56.984375 54.828125 56.984375 36.375 
Q 56.984375 17.96875 50.515625 8.265625 
Q 44.046875 -1.421875 31.78125 -1.421875 
Q 19.53125 -1.421875 13.0625 8.265625 
Q 6.59375 17.96875 6.59375 36.375 
Q 6.59375 54.828125 13.0625 64.515625 
Q 19.53125 74.21875 31.78125 74.21875 
z
" id="DejaVuSans-48"/>
      </defs>
      <g transform="translate(230.755933 327.501344)scale(0.17 -0.17)">
       <use xlink:href="#DejaVuSans-48"/>
      </g>
     </g>
    </g>
    <g id="xtick_4">
     <g id="line2d_4">
      <g>
       <use style="stroke:#000000;stroke-width:0.8;" x="301.096591" xlink:href="#m9ead821450" y="307.584"/>
      </g>
     </g>
     <g id="text_4">
      <!-- 1 -->
      <g transform="translate(295.688466 327.501344)scale(0.17 -0.17)">
       <use xlink:href="#DejaVuSans-49"/>
      </g>
     </g>
    </g>
    <g id="xtick_5">
     <g id="line2d_5">
      <g>
       <use style="stroke:#000000;stroke-width:0.8;" x="366.029123" xlink:href="#m9ead821450" y="307.584"/>
      </g>
     </g>
     <g id="text_5">
      <!-- 2 -->
      <g transform="translate(360.620998 327.501344)scale(0.17 -0.17)">
       <use xlink:href="#DejaVuSans-50"/>
      </g>
     </g>
    </g>
    <g id="text_6">
     <!-- Position in Radian -->
     <defs>
      <path d="M 19.671875 64.796875 
L 19.671875 37.40625 
L 32.078125 37.40625 
Q 38.96875 37.40625 42.71875 40.96875 
Q 46.484375 44.53125 46.484375 51.125 
Q 46.484375 57.671875 42.71875 61.234375 
Q 38.96875 64.796875 32.078125 64.796875 
z
M 9.8125 72.90625 
L 32.078125 72.90625 
Q 44.34375 72.90625 50.609375 67.359375 
Q 56.890625 61.8125 56.890625 51.125 
Q 56.890625 40.328125 50.609375 34.8125 
Q 44.34375 29.296875 32.078125 29.296875 
L 19.671875 29.296875 
L 19.671875 0 
L 9.8125 0 
z
" id="DejaVuSans-80"/>
      <path d="M 30.609375 48.390625 
Q 23.390625 48.390625 19.1875 42.75 
Q 14.984375 37.109375 14.984375 27.296875 
Q 14.984375 17.484375 19.15625 11.84375 
Q 23.34375 6.203125 30.609375 6.203125 
Q 37.796875 6.203125 41.984375 11.859375 
Q 46.1875 17.53125 46.1875 27.296875 
Q 46.1875 37.015625 41.984375 42.703125 
Q 37.796875 48.390625 30.609375 48.390625 
z
M 30.609375 56 
Q 42.328125 56 49.015625 48.375 
Q 55.71875 40.765625 55.71875 27.296875 
Q 55.71875 13.875 49.015625 6.21875 
Q 42.328125 -1.421875 30.609375 -1.421875 
Q 18.84375 -1.421875 12.171875 6.21875 
Q 5.515625 13.875 5.515625 27.296875 
Q 5.515625 40.765625 12.171875 48.375 
Q 18.84375 56 30.609375 56 
z
" id="DejaVuSans-111"/>
      <path d="M 44.28125 53.078125 
L 44.28125 44.578125 
Q 40.484375 46.53125 36.375 47.5 
Q 32.28125 48.484375 27.875 48.484375 
Q 21.1875 48.484375 17.84375 46.4375 
Q 14.5 44.390625 14.5 40.28125 
Q 14.5 37.15625 16.890625 35.375 
Q 19.28125 33.59375 26.515625 31.984375 
L 29.59375 31.296875 
Q 39.15625 29.25 43.1875 25.515625 
Q 47.21875 21.78125 47.21875 15.09375 
Q 47.21875 7.46875 41.1875 3.015625 
Q 35.15625 -1.421875 24.609375 -1.421875 
Q 20.21875 -1.421875 15.453125 -0.5625 
Q 10.6875 0.296875 5.421875 2 
L 5.421875 11.28125 
Q 10.40625 8.6875 15.234375 7.390625 
Q 20.0625 6.109375 24.8125 6.109375 
Q 31.15625 6.109375 34.5625 8.28125 
Q 37.984375 10.453125 37.984375 14.40625 
Q 37.984375 18.0625 35.515625 20.015625 
Q 33.0625 21.96875 24.703125 23.78125 
L 21.578125 24.515625 
Q 13.234375 26.265625 9.515625 29.90625 
Q 5.8125 33.546875 5.8125 39.890625 
Q 5.8125 47.609375 11.28125 51.796875 
Q 16.75 56 26.8125 56 
Q 31.78125 56 36.171875 55.265625 
Q 40.578125 54.546875 44.28125 53.078125 
z
" id="DejaVuSans-115"/>
      <path d="M 9.421875 54.6875 
L 18.40625 54.6875 
L 18.40625 0 
L 9.421875 0 
z
M 9.421875 75.984375 
L 18.40625 75.984375 
L 18.40625 64.59375 
L 9.421875 64.59375 
z
" id="DejaVuSans-105"/>
      <path d="M 18.3125 70.21875 
L 18.3125 54.6875 
L 36.8125 54.6875 
L 36.8125 47.703125 
L 18.3125 47.703125 
L 18.3125 18.015625 
Q 18.3125 11.328125 20.140625 9.421875 
Q 21.96875 7.515625 27.59375 7.515625 
L 36.8125 7.515625 
L 36.8125 0 
L 27.59375 0 
Q 17.1875 0 13.234375 3.875 
Q 9.28125 7.765625 9.28125 18.015625 
L 9.28125 47.703125 
L 2.6875 47.703125 
L 2.6875 54.6875 
L 9.28125 54.6875 
L 9.28125 70.21875 
z
" id="DejaVuSans-116"/>
      <path d="M 54.890625 33.015625 
L 54.890625 0 
L 45.90625 0 
L 45.90625 32.71875 
Q 45.90625 40.484375 42.875 44.328125 
Q 39.84375 48.1875 33.796875 48.1875 
Q 26.515625 48.1875 22.3125 43.546875 
Q 18.109375 38.921875 18.109375 30.90625 
L 18.109375 0 
L 9.078125 0 
L 9.078125 54.6875 
L 18.109375 54.6875 
L 18.109375 46.1875 
Q 21.34375 51.125 25.703125 53.5625 
Q 30.078125 56 35.796875 56 
Q 45.21875 56 50.046875 50.171875 
Q 54.890625 44.34375 54.890625 33.015625 
z
" id="DejaVuSans-110"/>
      <path id="DejaVuSans-32"/>
      <path d="M 44.390625 34.1875 
Q 47.5625 33.109375 50.5625 29.59375 
Q 53.5625 26.078125 56.59375 19.921875 
L 66.609375 0 
L 56 0 
L 46.6875 18.703125 
Q 43.0625 26.03125 39.671875 28.421875 
Q 36.28125 30.8125 30.421875 30.8125 
L 19.671875 30.8125 
L 19.671875 0 
L 9.8125 0 
L 9.8125 72.90625 
L 32.078125 72.90625 
Q 44.578125 72.90625 50.734375 67.671875 
Q 56.890625 62.453125 56.890625 51.90625 
Q 56.890625 45.015625 53.6875 40.46875 
Q 50.484375 35.9375 44.390625 34.1875 
z
M 19.671875 64.796875 
L 19.671875 38.921875 
L 32.078125 38.921875 
Q 39.203125 38.921875 42.84375 42.21875 
Q 46.484375 45.515625 46.484375 51.90625 
Q 46.484375 58.296875 42.84375 61.546875 
Q 39.203125 64.796875 32.078125 64.796875 
z
" id="DejaVuSans-82"/>
      <path d="M 34.28125 27.484375 
Q 23.390625 27.484375 19.1875 25 
Q 14.984375 22.515625 14.984375 16.5 
Q 14.984375 11.71875 18.140625 8.90625 
Q 21.296875 6.109375 26.703125 6.109375 
Q 34.1875 6.109375 38.703125 11.40625 
Q 43.21875 16.703125 43.21875 25.484375 
L 43.21875 27.484375 
z
M 52.203125 31.203125 
L 52.203125 0 
L 43.21875 0 
L 43.21875 8.296875 
Q 40.140625 3.328125 35.546875 0.953125 
Q 30.953125 -1.421875 24.3125 -1.421875 
Q 15.921875 -1.421875 10.953125 3.296875 
Q 6 8.015625 6 15.921875 
Q 6 25.140625 12.171875 29.828125 
Q 18.359375 34.515625 30.609375 34.515625 
L 43.21875 34.515625 
L 43.21875 35.40625 
Q 43.21875 41.609375 39.140625 45 
Q 35.0625 48.390625 27.6875 48.390625 
Q 23 48.390625 18.546875 47.265625 
Q 14.109375 46.140625 10.015625 43.890625 
L 10.015625 52.203125 
Q 14.9375 54.109375 19.578125 55.046875 
Q 24.21875 56 28.609375 56 
Q 40.484375 56 46.34375 49.84375 
Q 52.203125 43.703125 52.203125 31.203125 
z
" id="DejaVuSans-97"/>
      <path d="M 45.40625 46.390625 
L 45.40625 75.984375 
L 54.390625 75.984375 
L 54.390625 0 
L 45.40625 0 
L 45.40625 8.203125 
Q 42.578125 3.328125 38.25 0.953125 
Q 33.9375 -1.421875 27.875 -1.421875 
Q 17.96875 -1.421875 11.734375 6.484375 
Q 5.515625 14.40625 5.515625 27.296875 
Q 5.515625 40.1875 11.734375 48.09375 
Q 17.96875 56 27.875 56 
Q 33.9375 56 38.25 53.625 
Q 42.578125 51.265625 45.40625 46.390625 
z
M 14.796875 27.296875 
Q 14.796875 17.390625 18.875 11.75 
Q 22.953125 6.109375 30.078125 6.109375 
Q 37.203125 6.109375 41.296875 11.75 
Q 45.40625 17.390625 45.40625 27.296875 
Q 45.40625 37.203125 41.296875 42.84375 
Q 37.203125 48.484375 30.078125 48.484375 
Q 22.953125 48.484375 18.875 42.84375 
Q 14.796875 37.203125 14.796875 27.296875 
z
" id="DejaVuSans-100"/>
     </defs>
     <g transform="translate(102.024844 357.832125)scale(0.3 -0.3)">
      <use xlink:href="#DejaVuSans-80"/>
      <use x="60.255859" xlink:href="#DejaVuSans-111"/>
      <use x="121.4375" xlink:href="#DejaVuSans-115"/>
      <use x="173.537109" xlink:href="#DejaVuSans-105"/>
      <use x="201.320312" xlink:href="#DejaVuSans-116"/>
      <use x="240.529297" xlink:href="#DejaVuSans-105"/>
      <use x="268.3125" xlink:href="#DejaVuSans-111"/>
      <use x="329.494141" xlink:href="#DejaVuSans-110"/>
      <use x="392.873047" xlink:href="#DejaVuSans-32"/>
      <use x="424.660156" xlink:href="#DejaVuSans-105"/>
      <use x="452.443359" xlink:href="#DejaVuSans-110"/>
      <use x="515.822266" xlink:href="#DejaVuSans-32"/>
      <use x="547.609375" xlink:href="#DejaVuSans-82"/>
      <use x="617.060547" xlink:href="#DejaVuSans-97"/>
      <use x="678.339844" xlink:href="#DejaVuSans-100"/>
      <use x="741.816406" xlink:href="#DejaVuSans-105"/>
      <use x="769.599609" xlink:href="#DejaVuSans-97"/>
      <use x="830.878906" xlink:href="#DejaVuSans-110"/>
     </g>
    </g>
   </g>
   <g id="matplotlib.axis_2">
    <g id="ytick_1">
     <g id="line2d_6">
      <defs>
       <path d="M 0 0 
L -3.5 0 
" id="m72a11505a0" style="stroke:#000000;stroke-width:0.8;"/>
      </defs>
      <g>
       <use style="stroke:#000000;stroke-width:0.8;" x="57.6" xlink:href="#m72a11505a0" y="307.584"/>
      </g>
     </g>
     <g id="text_7">
      <!-- 0.0 -->
      <defs>
       <path d="M 10.6875 12.40625 
L 21 12.40625 
L 21 0 
L 10.6875 0 
z
" id="DejaVuSans-46"/>
      </defs>
      <g transform="translate(23.564687 314.042672)scale(0.17 -0.17)">
       <use xlink:href="#DejaVuSans-48"/>
       <use x="63.623047" xlink:href="#DejaVuSans-46"/>
       <use x="95.410156" xlink:href="#DejaVuSans-48"/>
      </g>
     </g>
    </g>
    <g id="ytick_2">
     <g id="line2d_7">
      <g>
       <use style="stroke:#000000;stroke-width:0.8;" x="57.6" xlink:href="#m72a11505a0" y="262.247069"/>
      </g>
     </g>
     <g id="text_8">
      <!-- 0.2 -->
      <g transform="translate(23.564687 268.705741)scale(0.17 -0.17)">
       <use xlink:href="#DejaVuSans-48"/>
       <use x="63.623047" xlink:href="#DejaVuSans-46"/>
       <use x="95.410156" xlink:href="#DejaVuSans-50"/>
      </g>
     </g>
    </g>
    <g id="ytick_3">
     <g id="line2d_8">
      <g>
       <use style="stroke:#000000;stroke-width:0.8;" x="57.6" xlink:href="#m72a11505a0" y="216.910139"/>
      </g>
     </g>
     <g id="text_9">
      <!-- 0.4 -->
      <defs>
       <path d="M 37.796875 64.3125 
L 12.890625 25.390625 
L 37.796875 25.390625 
z
M 35.203125 72.90625 
L 47.609375 72.90625 
L 47.609375 25.390625 
L 58.015625 25.390625 
L 58.015625 17.1875 
L 47.609375 17.1875 
L 47.609375 0 
L 37.796875 0 
L 37.796875 17.1875 
L 4.890625 17.1875 
L 4.890625 26.703125 
z
" id="DejaVuSans-52"/>
      </defs>
      <g transform="translate(23.564687 223.368811)scale(0.17 -0.17)">
       <use xlink:href="#DejaVuSans-48"/>
       <use x="63.623047" xlink:href="#DejaVuSans-46"/>
       <use x="95.410156" xlink:href="#DejaVuSans-52"/>
      </g>
     </g>
    </g>
    <g id="ytick_4">
     <g id="line2d_9">
      <g>
       <use style="stroke:#000000;stroke-width:0.8;" x="57.6" xlink:href="#m72a11505a0" y="171.573208"/>
      </g>
     </g>
     <g id="text_10">
      <!-- 0.6 -->
      <defs>
       <path d="M 33.015625 40.375 
Q 26.375 40.375 22.484375 35.828125 
Q 18.609375 31.296875 18.609375 23.390625 
Q 18.609375 15.53125 22.484375 10.953125 
Q 26.375 6.390625 33.015625 6.390625 
Q 39.65625 6.390625 43.53125 10.953125 
Q 47.40625 15.53125 47.40625 23.390625 
Q 47.40625 31.296875 43.53125 35.828125 
Q 39.65625 40.375 33.015625 40.375 
z
M 52.59375 71.296875 
L 52.59375 62.3125 
Q 48.875 64.0625 45.09375 64.984375 
Q 41.3125 65.921875 37.59375 65.921875 
Q 27.828125 65.921875 22.671875 59.328125 
Q 17.53125 52.734375 16.796875 39.40625 
Q 19.671875 43.65625 24.015625 45.921875 
Q 28.375 48.1875 33.59375 48.1875 
Q 44.578125 48.1875 50.953125 41.515625 
Q 57.328125 34.859375 57.328125 23.390625 
Q 57.328125 12.15625 50.6875 5.359375 
Q 44.046875 -1.421875 33.015625 -1.421875 
Q 20.359375 -1.421875 13.671875 8.265625 
Q 6.984375 17.96875 6.984375 36.375 
Q 6.984375 53.65625 15.1875 63.9375 
Q 23.390625 74.21875 37.203125 74.21875 
Q 40.921875 74.21875 44.703125 73.484375 
Q 48.484375 72.75 52.59375 71.296875 
z
" id="DejaVuSans-54"/>
      </defs>
      <g transform="translate(23.564687 178.03188)scale(0.17 -0.17)">
       <use xlink:href="#DejaVuSans-48"/>
       <use x="63.623047" xlink:href="#DejaVuSans-46"/>
       <use x="95.410156" xlink:href="#DejaVuSans-54"/>
      </g>
     </g>
    </g>
    <g id="ytick_5">
     <g id="line2d_10">
      <g>
       <use style="stroke:#000000;stroke-width:0.8;" x="57.6" xlink:href="#m72a11505a0" y="126.236278"/>
      </g>
     </g>
     <g id="text_11">
      <!-- 0.8 -->
      <defs>
       <path d="M 31.78125 34.625 
Q 24.75 34.625 20.71875 30.859375 
Q 16.703125 27.09375 16.703125 20.515625 
Q 16.703125 13.921875 20.71875 10.15625 
Q 24.75 6.390625 31.78125 6.390625 
Q 38.8125 6.390625 42.859375 10.171875 
Q 46.921875 13.96875 46.921875 20.515625 
Q 46.921875 27.09375 42.890625 30.859375 
Q 38.875 34.625 31.78125 34.625 
z
M 21.921875 38.8125 
Q 15.578125 40.375 12.03125 44.71875 
Q 8.5 49.078125 8.5 55.328125 
Q 8.5 64.0625 14.71875 69.140625 
Q 20.953125 74.21875 31.78125 74.21875 
Q 42.671875 74.21875 48.875 69.140625 
Q 55.078125 64.0625 55.078125 55.328125 
Q 55.078125 49.078125 51.53125 44.71875 
Q 48 40.375 41.703125 38.8125 
Q 48.828125 37.15625 52.796875 32.3125 
Q 56.78125 27.484375 56.78125 20.515625 
Q 56.78125 9.90625 50.3125 4.234375 
Q 43.84375 -1.421875 31.78125 -1.421875 
Q 19.734375 -1.421875 13.25 4.234375 
Q 6.78125 9.90625 6.78125 20.515625 
Q 6.78125 27.484375 10.78125 32.3125 
Q 14.796875 37.15625 21.921875 38.8125 
z
M 18.3125 54.390625 
Q 18.3125 48.734375 21.84375 45.5625 
Q 25.390625 42.390625 31.78125 42.390625 
Q 38.140625 42.390625 41.71875 45.5625 
Q 45.3125 48.734375 45.3125 54.390625 
Q 45.3125 60.0625 41.71875 63.234375 
Q 38.140625 66.40625 31.78125 66.40625 
Q 25.390625 66.40625 21.84375 63.234375 
Q 18.3125 60.0625 18.3125 54.390625 
z
" id="DejaVuSans-56"/>
      </defs>
      <g transform="translate(23.564687 132.69495)scale(0.17 -0.17)">
       <use xlink:href="#DejaVuSans-48"/>
       <use x="63.623047" xlink:href="#DejaVuSans-46"/>
       <use x="95.410156" xlink:href="#DejaVuSans-56"/>
      </g>
     </g>
    </g>
    <g id="ytick_6">
     <g id="line2d_11">
      <g>
       <use style="stroke:#000000;stroke-width:0.8;" x="57.6" xlink:href="#m72a11505a0" y="80.899347"/>
      </g>
     </g>
     <g id="text_12">
      <!-- 1.0 -->
      <g transform="translate(23.564687 87.358019)scale(0.17 -0.17)">
       <use xlink:href="#DejaVuSans-49"/>
       <use x="63.623047" xlink:href="#DejaVuSans-46"/>
       <use x="95.410156" xlink:href="#DejaVuSans-48"/>
      </g>
     </g>
    </g>
    <g id="text_13">
     <!-- Density -->
     <defs>
      <path d="M 19.671875 64.796875 
L 19.671875 8.109375 
L 31.59375 8.109375 
Q 46.6875 8.109375 53.6875 14.9375 
Q 60.6875 21.78125 60.6875 36.53125 
Q 60.6875 51.171875 53.6875 57.984375 
Q 46.6875 64.796875 31.59375 64.796875 
z
M 9.8125 72.90625 
L 30.078125 72.90625 
Q 51.265625 72.90625 61.171875 64.09375 
Q 71.09375 55.28125 71.09375 36.53125 
Q 71.09375 17.671875 61.125 8.828125 
Q 51.171875 0 30.078125 0 
L 9.8125 0 
z
" id="DejaVuSans-68"/>
      <path d="M 56.203125 29.59375 
L 56.203125 25.203125 
L 14.890625 25.203125 
Q 15.484375 15.921875 20.484375 11.0625 
Q 25.484375 6.203125 34.421875 6.203125 
Q 39.59375 6.203125 44.453125 7.46875 
Q 49.3125 8.734375 54.109375 11.28125 
L 54.109375 2.78125 
Q 49.265625 0.734375 44.1875 -0.34375 
Q 39.109375 -1.421875 33.890625 -1.421875 
Q 20.796875 -1.421875 13.15625 6.1875 
Q 5.515625 13.8125 5.515625 26.8125 
Q 5.515625 40.234375 12.765625 48.109375 
Q 20.015625 56 32.328125 56 
Q 43.359375 56 49.78125 48.890625 
Q 56.203125 41.796875 56.203125 29.59375 
z
M 47.21875 32.234375 
Q 47.125 39.59375 43.09375 43.984375 
Q 39.0625 48.390625 32.421875 48.390625 
Q 24.90625 48.390625 20.390625 44.140625 
Q 15.875 39.890625 15.1875 32.171875 
z
" id="DejaVuSans-101"/>
      <path d="M 32.171875 -5.078125 
Q 28.375 -14.84375 24.75 -17.8125 
Q 21.140625 -20.796875 15.09375 -20.796875 
L 7.90625 -20.796875 
L 7.90625 -13.28125 
L 13.1875 -13.28125 
Q 16.890625 -13.28125 18.9375 -11.515625 
Q 21 -9.765625 23.484375 -3.21875 
L 25.09375 0.875 
L 2.984375 54.6875 
L 12.5 54.6875 
L 29.59375 11.921875 
L 46.6875 54.6875 
L 56.203125 54.6875 
z
" id="DejaVuSans-121"/>
     </defs>
     <g transform="translate(13.325625 231.553781)rotate(-90)scale(0.3 -0.3)">
      <use xlink:href="#DejaVuSans-68"/>
      <use x="77.001953" xlink:href="#DejaVuSans-101"/>
      <use x="138.525391" xlink:href="#DejaVuSans-110"/>
      <use x="201.904297" xlink:href="#DejaVuSans-115"/>
      <use x="254.003906" xlink:href="#DejaVuSans-105"/>
      <use x="281.787109" xlink:href="#DejaVuSans-116"/>
      <use x="320.996094" xlink:href="#DejaVuSans-121"/>
     </g>
    </g>
   </g>
   <g id="line2d_12">
    <path clip-path="url(#pd94d0d47da)" d="M 73.832727 307.584 
L 97.995746 307.473053 
L 98.263593 307.203255 
L 98.498973 306.603219 
L 98.750587 305.242878 
L 99.042783 302.223983 
L 99.448611 295.279821 
L 100.049237 285.603195 
L 100.268385 284.735231 
L 100.34955 284.853892 
L 100.503765 285.614078 
L 100.909593 289.172049 
L 101.299188 291.621713 
L 101.575152 292.201577 
L 102.208244 292.975066 
L 102.841336 294.174105 
L 102.987434 294.048091 
L 103.190348 293.486328 
L 103.523128 291.762203 
L 104.196803 286.854343 
L 104.764962 281.115164 
L 105.641552 272.255396 
L 106.144779 269.574934 
L 107.029484 266.218391 
L 107.459662 265.400411 
L 107.96289 264.501039 
L 108.328135 263.249079 
L 109.643019 258.119464 
L 110.000148 257.015009 
L 110.32481 255.109501 
L 111.428664 247.701363 
L 111.672161 247.492881 
L 112.21597 247.283688 
L 112.5244 246.712029 
L 113.360406 245.005112 
L 113.514621 245.097387 
L 113.717535 245.546406 
L 114.358744 247.367551 
L 114.407443 247.327661 
L 114.537309 246.975208 
L 114.748339 245.594173 
L 115.137934 241.133615 
L 115.616812 236.482478 
L 115.860309 235.783015 
L 115.998291 235.824015 
L 116.233671 236.262904 
L 116.785597 237.23358 
L 117.077794 237.85584 
L 117.361874 239.116277 
L 117.897567 242.864463 
L 118.473843 246.159906 
L 118.855322 247.310332 
L 119.00142 247.351135 
L 119.017653 247.335172 
L 119.155635 247.003202 
L 119.358549 245.80178 
L 119.683212 242.246861 
L 120.32442 235.273784 
L 120.551684 234.648042 
L 120.673433 234.705338 
L 120.89258 235.178485 
L 121.274059 235.872841 
L 121.43639 235.821222 
L 121.655537 235.428632 
L 122.248047 234.290636 
L 122.394145 234.417174 
L 122.605176 234.999855 
L 123.238268 236.968668 
L 123.246384 236.965361 
L 123.368133 236.771921 
L 123.562931 235.918049 
L 123.944409 232.965098 
L 124.804765 226.45418 
L 125.19436 224.798827 
L 125.340459 224.705157 
L 125.356692 224.717772 
L 125.486557 224.992387 
L 125.705704 226.12253 
L 126.785207 232.809053 
L 127.491349 233.917115 
L 128.465337 236.860663 
L 128.684484 236.812525 
L 129.155245 236.37543 
L 129.585423 235.75837 
L 130.364613 234.480556 
L 130.86784 234.201543 
L 131.086988 233.531477 
L 131.484699 231.367325 
L 131.817479 230.115141 
L 131.914878 230.109945 
L 131.939227 230.140933 
L 132.077209 230.569345 
L 132.304473 232.164333 
L 132.78335 237.598736 
L 133.270344 242.018546 
L 133.595007 243.217006 
L 134.487829 245.358949 
L 135.388768 248.190308 
L 135.973161 250.153854 
L 137.08513 254.41624 
L 137.101364 254.411043 
L 137.231229 254.226917 
L 137.434143 253.437102 
L 137.807505 250.855438 
L 138.359431 247.430162 
L 138.700327 246.563492 
L 139.479518 245.514899 
L 139.666199 245.523183 
L 139.836646 245.802593 
L 140.08826 246.73197 
L 141.273279 251.88614 
L 141.930721 253.236717 
L 142.880359 256.113208 
L 142.920942 256.092328 
L 143.06704 255.840227 
L 143.286187 254.926897 
L 143.602733 252.496178 
L 144.073494 246.856146 
L 144.739053 239.312594 
L 144.974433 238.557683 
L 145.079948 238.634371 
L 145.24228 239.173768 
L 145.583176 241.308849 
L 146.784427 249.097199 
L 147.385053 252.198151 
L 147.685366 252.808217 
L 147.896397 252.842381 
L 148.229176 252.579069 
L 148.553839 252.450456 
L 148.837919 252.604561 
L 149.235631 252.786517 
L 149.430428 252.611174 
L 149.665809 252.036217 
L 149.998588 250.543102 
L 150.664146 246.233954 
L 151.17549 243.617725 
L 151.418987 243.213709 
L 151.548852 243.298136 
L 151.735533 243.785302 
L 152.060196 245.418117 
L 152.693288 248.523783 
L 152.961135 248.91446 
L 153.269564 248.949131 
L 153.513061 249.082274 
L 153.756558 249.538297 
L 154.15427 250.882213 
L 154.925344 253.434295 
L 155.120141 253.524389 
L 155.258123 253.288018 
L 155.461037 252.402238 
L 155.7857 249.769557 
L 156.499958 243.877007 
L 156.743455 243.354473 
L 156.897669 243.409648 
L 157.149283 243.852299 
L 158.131387 246.260693 
L 158.585915 247.337257 
L 158.723897 247.301045 
L 158.878112 246.947194 
L 159.129725 245.678787 
L 159.965732 240.94307 
L 160.08748 240.945902 
L 160.103713 240.964648 
L 160.257928 241.343865 
L 160.533891 242.745915 
L 161.41048 247.555087 
L 162.457517 250.85036 
L 162.944511 252.71315 
L 163.139309 252.839463 
L 163.30164 252.657023 
L 164.10518 251.366267 
L 164.137647 251.38879 
L 164.332444 251.694877 
L 164.608408 252.612169 
L 165.014236 254.862505 
L 165.606745 258.000508 
L 165.78531 258.162234 
L 165.793426 258.157715 
L 165.931408 257.935108 
L 166.207371 256.915882 
L 166.58885 255.770009 
L 166.710598 255.816399 
L 166.856697 256.23173 
L 167.100194 257.745225 
L 168.423194 267.476108 
L 169.397182 271.223726 
L 169.624446 271.344072 
L 170.314354 271.325674 
L 170.695832 272.006597 
L 170.988029 272.307945 
L 171.15036 272.199956 
L 171.369508 271.70349 
L 171.791569 270.036592 
L 173.082103 264.912065 
L 173.520398 263.895477 
L 173.909993 263.520666 
L 174.591784 263.221569 
L 174.843398 263.330938 
L 175.086895 263.720711 
L 175.395325 264.701213 
L 175.914785 267.267491 
L 176.418012 269.337207 
L 176.661509 269.631365 
L 176.84819 269.544509 
L 177.424466 269.124668 
L 177.643613 269.387492 
L 178.146841 270.026246 
L 178.301055 269.859239 
L 178.520203 269.205213 
L 179.331859 266.390028 
L 179.339976 266.392277 
L 179.469841 266.550469 
L 179.688988 267.279137 
L 180.60616 270.841856 
L 180.776608 270.816772 
L 180.979522 270.484593 
L 181.296068 269.463927 
L 181.864228 266.720794 
L 182.359339 264.771547 
L 182.643418 264.401113 
L 182.919382 264.40297 
L 183.373909 264.401712 
L 183.84467 264.100146 
L 184.315431 263.582419 
L 184.664444 262.816465 
L 185.5248 260.703496 
L 185.662781 260.888696 
L 185.857579 261.618853 
L 186.166008 263.804503 
L 186.961432 269.728208 
L 187.123763 269.925226 
L 187.148113 269.912006 
L 187.269861 269.681059 
L 187.480892 268.681269 
L 187.870487 265.491239 
L 188.487346 260.813748 
L 188.755193 260.132921 
L 188.901291 260.16969 
L 189.079856 260.547064 
L 189.420752 261.927701 
L 190.175592 264.968607 
L 190.768102 266.253426 
L 191.514826 267.512766 
L 191.766439 267.55098 
L 192.050519 267.325576 
L 192.797243 266.66834 
L 193.470918 266.496446 
L 193.819931 266.616177 
L 194.534188 266.967638 
L 194.720869 266.700069 
L 194.95625 265.901014 
L 195.289029 263.83979 
L 195.938354 259.786552 
L 196.060103 259.68957 
L 196.092569 259.717332 
L 196.222434 260.051783 
L 196.457815 261.442263 
L 197.318171 267.145355 
L 197.594134 267.543706 
L 197.894447 267.589921 
L 198.227226 267.429714 
L 198.47884 267.029315 
L 198.787269 266.035476 
L 200.077803 261.195492 
L 200.329417 261.087105 
L 200.556681 261.240343 
L 200.824528 261.724048 
L 201.12484 262.765137 
L 201.490086 264.94162 
L 202.253043 269.676729 
L 202.358559 269.724137 
L 202.391025 269.689634 
L 202.529006 269.281617 
L 202.764387 267.698439 
L 203.649093 260.934294 
L 203.746491 260.940416 
L 203.770841 260.972489 
L 203.925056 261.433081 
L 204.209136 263.151464 
L 205.223707 269.775945 
L 205.507786 270.370779 
L 205.653885 270.330073 
L 205.840566 269.951884 
L 206.230161 268.488377 
L 206.668455 267.209033 
L 207.382713 265.808305 
L 207.67491 263.986912 
L 208.186253 258.997547 
L 208.786879 253.92593 
L 209.160241 252.392899 
L 209.379389 252.177737 
L 209.509254 252.33768 
L 209.704051 253.026788 
L 210.004364 255.093287 
L 210.856604 261.432365 
L 211.035168 261.624482 
L 211.043285 261.621133 
L 211.17315 261.438461 
L 211.40853 260.618522 
L 212.106555 258.015556 
L 212.358169 257.851147 
L 212.666598 257.69492 
L 212.861396 257.232728 
L 213.137359 255.865538 
L 213.8922 251.833759 
L 214.038298 251.783034 
L 214.054531 251.796314 
L 214.208746 252.095148 
L 214.476592 253.215124 
L 215.629145 258.701357 
L 215.78336 258.664957 
L 215.986274 258.296569 
L 216.903446 256.304801 
L 217.211875 255.674709 
L 217.569004 254.289727 
L 218.104698 252.371811 
L 218.323845 252.226098 
L 218.526759 252.389594 
L 218.97317 252.762305 
L 219.135502 252.593178 
L 219.362766 251.966804 
L 220.206888 249.123424 
L 220.239355 249.139233 
L 220.377336 249.383023 
L 220.596484 250.338978 
L 221.010429 253.411336 
L 221.538005 256.821391 
L 221.813969 257.437984 
L 221.984417 257.429332 
L 222.195447 257.121552 
L 222.52011 256.192194 
L 222.901589 254.370919 
L 223.388583 250.752043 
L 224.119074 245.551262 
L 225.231043 239.648537 
L 225.685571 237.023449 
L 225.831669 236.859455 
L 225.856019 236.875249 
L 225.977767 237.141601 
L 226.188798 238.286314 
L 226.627093 242.268258 
L 227.162786 246.38409 
L 227.560498 247.85293 
L 228.258522 249.428048 
L 228.469553 249.509223 
L 228.631885 249.283994 
L 228.875382 248.471247 
L 230.531161 240.791894 
L 230.815241 236.804711 
L 231.221069 227.359069 
L 231.781112 215.327642 
L 231.984027 214.238311 
L 231.992143 214.241745 
L 232.065192 214.429974 
L 232.21129 215.591282 
L 232.503487 220.157051 
L 233.242094 231.880292 
L 233.615456 234.369863 
L 233.907653 235.149142 
L 234.021285 235.131134 
L 234.029401 235.119875 
L 234.15115 234.739564 
L 234.313481 233.364599 
L 234.508279 229.566039 
L 234.735543 220.281497 
L 235.011506 198.403418 
L 235.376751 148.517006 
L 236.04231 57.402186 
L 236.164058 54.144 
L 236.204641 54.445119 
L 236.30204 57.974566 
L 236.488721 74.804129 
L 236.894549 137.708724 
L 237.41401 205.767564 
L 237.746789 224.48716 
L 237.998402 228.936333 
L 238.095801 229.22107 
L 238.144501 229.148061 
L 238.274366 228.410561 
L 238.550329 225.207899 
L 239.353869 212.427611 
L 240.392789 195.282475 
L 240.449605 195.380743 
L 240.563237 196.194429 
L 240.766152 199.623881 
L 241.14763 210.765472 
L 241.772606 227.670096 
L 242.170318 232.902699 
L 242.608612 235.917195 
L 242.998207 237.310294 
L 243.274171 237.632315 
L 243.639416 237.657127 
L 243.882913 237.802882 
L 244.110177 238.251515 
L 244.38614 239.374035 
L 244.751386 241.946981 
L 245.676674 248.929756 
L 245.960754 249.503528 
L 246.618196 250.291046 
L 247.291871 251.617096 
L 247.446086 251.510223 
L 247.657117 251.021825 
L 248.087295 249.300923 
L 248.622988 247.505176 
L 249.678142 244.798719 
L 250.165136 242.506967 
L 250.733295 238.495922 
L 251.114774 236.567602 
L 251.236522 236.475979 
L 251.268989 236.506175 
L 251.398854 236.864998 
L 251.618001 238.294786 
L 252.023829 242.784269 
L 252.819253 251.253563 
L 254.320818 263.238764 
L 254.580548 263.667768 
L 254.807812 263.6544 
L 255.132474 263.647782 
L 255.335388 263.94289 
L 255.651935 264.902024 
L 256.090229 266.050352 
L 256.25256 266.043792 
L 256.423008 265.718114 
L 256.723321 264.547844 
L 258.078788 257.713191 
L 258.809279 253.438254 
L 259.085242 252.910918 
L 259.247574 252.944483 
L 259.450488 253.285074 
L 259.815733 254.433145 
L 261.228016 260.034504 
L 261.869225 262.381811 
L 262.153304 262.732129 
L 262.339985 262.670477 
L 262.583482 262.296792 
L 263.736035 260.143223 
L 264.020115 260.208812 
L 264.92917 260.846711 
L 265.197017 261.276374 
L 265.47298 262.215164 
L 265.919391 264.730658 
L 266.406385 267.035642 
L 266.657999 267.381508 
L 266.828447 267.297669 
L 267.10441 266.833221 
L 267.769968 265.702176 
L 268.086515 265.569758 
L 268.42741 265.683415 
L 269.271533 266.073548 
L 269.490681 265.83397 
L 269.782877 265.121883 
L 270.489018 263.285334 
L 270.643233 263.325278 
L 270.821797 263.669919 
L 271.097761 264.777353 
L 271.560405 267.724762 
L 272.46946 273.546728 
L 272.75354 274.138159 
L 272.932105 274.124506 
L 273.151252 273.810172 
L 274.109007 272.168983 
L 274.555418 271.728563 
L 274.831381 271.026685 
L 275.220977 269.310004 
L 275.943351 266.17377 
L 276.25178 265.695319 
L 276.454695 265.708249 
L 276.665725 265.987186 
L 276.949805 266.794603 
L 277.331284 268.646161 
L 278.42702 274.471349 
L 278.573119 274.474352 
L 278.727333 274.157153 
L 278.987063 273.003855 
L 279.782487 269.207198 
L 280.001634 269.048955 
L 280.188315 269.208201 
L 280.521094 269.865842 
L 281.616831 272.168675 
L 281.771046 272.090502 
L 281.94961 271.686197 
L 282.20934 270.437254 
L 282.704451 266.620165 
L 283.110279 264.27839 
L 283.272611 264.08531 
L 283.288844 264.094876 
L 283.410592 264.336261 
L 283.613506 265.365308 
L 283.994985 268.745057 
L 284.611844 273.80141 
L 284.944623 274.917867 
L 285.293636 275.350712 
L 285.837446 275.681516 
L 286.04036 275.554992 
L 286.259507 275.103601 
L 286.58417 273.820039 
L 287.452642 270.135194 
L 287.67179 269.993094 
L 287.850354 270.162365 
L 288.150667 270.840026 
L 289.043489 272.981314 
L 289.546716 273.577338 
L 289.749631 273.561882 
L 289.928195 273.277452 
L 290.163576 272.390119 
L 290.528821 269.963131 
L 291.202496 265.592652 
L 291.478459 265.013445 
L 291.673257 265.014383 
L 292.322582 265.27557 
L 292.679711 264.83281 
L 292.931325 264.709491 
L 293.093656 264.906919 
L 293.32092 265.625316 
L 293.742981 267.904559 
L 294.40854 271.19421 
L 294.773785 272.041489 
L 294.984816 272.116335 
L 295.155264 271.916858 
L 295.398761 271.213898 
L 295.796473 269.235232 
L 296.397099 266.458596 
L 296.632479 266.171395 
L 296.786694 266.281106 
L 297.013958 266.79816 
L 297.395436 268.325598 
L 297.955479 271.597555 
L 298.515523 274.518735 
L 298.750903 274.851747 
L 298.897001 274.738943 
L 299.124265 274.191237 
L 299.643725 272.18633 
L 300.609597 268.581043 
L 300.828744 268.452775 
L 301.023542 268.629312 
L 301.607934 269.277871 
L 301.778382 269.095728 
L 302.046229 268.399967 
L 302.695554 266.649895 
L 302.882235 266.630118 
L 303.077033 266.88506 
L 303.401696 267.754141 
L 304.708463 271.641718 
L 304.878911 271.54448 
L 305.106175 271.082968 
L 305.512003 269.630665 
L 306.25061 267.060036 
L 306.502224 266.824224 
L 306.672672 266.948075 
L 306.940519 267.507215 
L 307.38693 268.353635 
L 307.524911 268.274686 
L 307.695359 267.823473 
L 307.955089 266.356916 
L 308.393384 262.32748 
L 309.123875 255.931954 
L 309.416071 254.958314 
L 309.586519 254.904727 
L 309.756967 255.14792 
L 310.138446 256.211273 
L 310.747188 257.690017 
L 311.250415 258.398772 
L 311.526379 258.468066 
L 311.802342 258.274755 
L 312.25687 257.968014 
L 312.443551 258.119226 
L 312.687048 258.673072 
L 313.498704 260.785566 
L 313.652919 260.658694 
L 313.896416 260.0853 
L 314.578208 258.380092 
L 314.829821 258.295608 
L 315.544079 258.310412 
L 315.917441 257.822241 
L 316.623582 256.553612 
L 316.891429 255.355258 
L 317.256675 252.512742 
L 317.88165 247.789849 
L 318.133264 247.260634 
L 318.303712 247.298002 
L 318.815055 247.566049 
L 319.074786 247.267726 
L 319.375099 247.027396 
L 319.521197 247.198555 
L 319.724111 247.892689 
L 320.10559 250.246057 
L 320.519534 252.26306 
L 320.714332 252.441149 
L 320.86043 252.267457 
L 321.209443 251.362157 
L 321.566572 250.732578 
L 321.777602 250.716854 
L 322.037332 250.964723 
L 322.499977 251.763312 
L 322.978854 253.051716 
L 323.482081 254.27061 
L 323.644413 254.264835 
L 323.798627 253.960079 
L 324.034008 252.907647 
L 324.537235 249.286726 
L 324.95118 247.126968 
L 325.21091 246.702884 
L 325.73037 246.286543 
L 325.957634 245.380339 
L 326.330996 242.738463 
L 326.785524 240.00572 
L 326.931622 239.840414 
L 326.955972 239.856391 
L 327.07772 240.119389 
L 327.296868 241.260072 
L 328.384487 247.894907 
L 329.407175 250.913322 
L 329.53704 250.816429 
L 329.707488 250.317837 
L 329.983451 248.678261 
L 330.754525 243.781875 
L 330.892506 243.698204 
L 330.916856 243.716224 
L 331.062954 244.007493 
L 331.363267 245.257363 
L 331.817795 246.906399 
L 332.012593 247.024039 
L 332.174924 246.84114 
L 332.475237 246.079553 
L 333.408642 242.904799 
L 334.447563 238.992236 
L 334.593661 239.028359 
L 334.764109 239.397296 
L 335.040072 240.644468 
L 335.656931 243.475182 
L 335.75433 243.450114 
L 335.770563 243.424759 
L 335.908545 242.947846 
L 336.127692 241.22795 
L 336.565987 235.523178 
L 337.028631 230.706192 
L 337.296478 229.73412 
L 337.475042 229.666715 
L 337.677956 229.898513 
L 338.221766 230.989462 
L 339.220104 232.909778 
L 339.658398 233.264498 
L 340.323957 233.665838 
L 340.57557 234.318771 
L 340.940816 236.037243 
L 341.720006 239.719685 
L 342.320632 242.351943 
L 342.937491 245.041345 
L 343.132289 245.17549 
L 343.278387 244.967433 
L 343.538117 244.098201 
L 344.479639 240.666871 
L 344.828651 238.891497 
L 345.583492 234.807678 
L 345.697124 234.790484 
L 345.721474 234.816776 
L 345.875688 235.214141 
L 346.159768 236.731852 
L 346.930842 240.969965 
L 347.6451 244.297398 
L 348.399941 247.816445 
L 349.617426 252.101539 
L 349.658008 252.076168 
L 349.79599 251.796037 
L 350.015137 250.722004 
L 350.356033 247.724606 
L 351.305671 238.834087 
L 351.638451 237.846242 
L 352.036162 236.803864 
L 352.352708 235.077558 
L 353.359163 229.013274 
L 353.708175 228.322998 
L 354.049071 228.098044 
L 354.300684 228.155878 
L 354.487365 228.450146 
L 354.698396 229.268228 
L 354.966243 231.364464 
L 355.412654 237.08086 
L 355.867182 241.843782 
L 356.070096 242.39209 
L 356.078213 242.390326 
L 356.175611 242.233455 
L 356.354176 241.360345 
L 356.703188 238.23833 
L 357.271348 233.536972 
L 357.498612 233.026404 
L 357.612244 233.13586 
L 357.798925 233.764689 
L 358.196636 236.141572 
L 359.032643 240.874947 
L 359.836183 245.633341 
L 360.57479 249.840061 
L 360.88322 250.504922 
L 361.264699 250.748185 
L 361.483846 251.066253 
L 361.727343 251.889917 
L 362.043889 253.880761 
L 362.474067 258.200514 
L 363.610386 270.473915 
L 363.902583 271.322284 
L 364.178546 271.510388 
L 364.495092 271.732409 
L 364.771055 272.282317 
L 365.558362 274.029714 
L 366.321319 274.726773 
L 366.605399 275.799458 
L 367.003111 278.318758 
L 368.634541 289.872971 
L 369.024136 290.743097 
L 369.332566 290.990607 
L 369.55983 290.921601 
L 369.835793 290.556302 
L 371.053278 288.16894 
L 371.304891 286.388389 
L 371.726953 281.325132 
L 372.067849 278.393447 
L 372.132781 278.313256 
L 372.181481 278.385834 
L 372.295112 279.021269 
L 372.498027 281.7508 
L 372.887622 290.842717 
L 373.463898 302.851888 
L 373.81291 306.06631 
L 374.12134 307.145298 
L 374.421653 307.478194 
L 374.835598 307.573465 
L 376.783574 307.584 
L 398.487273 307.584 
L 398.487273 307.584 
" style="fill:none;stroke:#ff7f0e;stroke-linecap:square;stroke-width:1.5;"/>
   </g>
   <g id="patch_103">
    <path d="M 57.6 307.584 
L 57.6 41.472 
" style="fill:none;stroke:#000000;stroke-linecap:square;stroke-linejoin:miter;stroke-width:0.8;"/>
   </g>
   <g id="patch_104">
    <path d="M 414.72 307.584 
L 414.72 41.472 
" style="fill:none;stroke:#000000;stroke-linecap:square;stroke-linejoin:miter;stroke-width:0.8;"/>
   </g>
   <g id="patch_105">
    <path d="M 57.6 307.584 
L 414.72 307.584 
" style="fill:none;stroke:#000000;stroke-linecap:square;stroke-linejoin:miter;stroke-width:0.8;"/>
   </g>
   <g id="patch_106">
    <path d="M 57.6 41.472 
L 414.72 41.472 
" style="fill:none;stroke:#000000;stroke-linecap:square;stroke-linejoin:miter;stroke-width:0.8;"/>
   </g>
  </g>
 </g>
 <defs>
  <clipPath id="pd94d0d47da">
   <rect height="266.112" width="357.12" x="57.6" y="41.472"/>
  </clipPath>
 </defs>
</svg>
