<?xml version="1.0" encoding="utf-8" standalone="no"?>
<!DOCTYPE svg PUBLIC "-//W3C//DTD SVG 1.1//EN"
  "http://www.w3.org/Graphics/SVG/1.1/DTD/svg11.dtd">
<!-- Created with matplotlib (https://matplotlib.org/) -->
<svg height="345.6pt" version="1.1" viewBox="0 0 460.8 345.6" width="460.8pt" xmlns="http://www.w3.org/2000/svg" xmlns:xlink="http://www.w3.org/1999/xlink">
 <defs>
  <style type="text/css">
*{stroke-linecap:butt;stroke-linejoin:round;}
  </style>
 </defs>
 <g id="figure_1">
  <g id="patch_1">
   <path d="M 0 345.6 
L 460.8 345.6 
L 460.8 0 
L 0 0 
z
" style="fill:#ffffff;"/>
  </g>
  <g id="axes_1">
   <g id="patch_2">
    <path d="M 57.6 307.584 
L 414.72 307.584 
L 414.72 41.472 
L 57.6 41.472 
z
" style="fill:#ffffff;"/>
   </g>
   <g id="patch_3">
    <path clip-path="url(#pb9c695ccc2)" d="M 100.001873 307.584 
L 102.725532 307.584 
L 102.725532 296.682986 
L 100.001873 296.682986 
z
" style="fill:#1f77b4;"/>
   </g>
   <g id="patch_4">
    <path clip-path="url(#pb9c695ccc2)" d="M 102.725532 307.584 
L 105.449206 307.584 
L 105.449206 303.223619 
L 102.725532 303.223619 
z
" style="fill:#1f77b4;"/>
   </g>
   <g id="patch_5">
    <path clip-path="url(#pb9c695ccc2)" d="M 105.449206 307.584 
L 108.172873 307.584 
L 108.172873 298.863214 
L 105.449206 298.863214 
z
" style="fill:#1f77b4;"/>
   </g>
   <g id="patch_6">
    <path clip-path="url(#pb9c695ccc2)" d="M 108.172865 307.584 
L 110.896532 307.584 
L 110.896532 285.782035 
L 108.172865 285.782035 
z
" style="fill:#1f77b4;"/>
   </g>
   <g id="patch_7">
    <path clip-path="url(#pb9c695ccc2)" d="M 110.896539 307.584 
L 113.620206 307.584 
L 113.620206 271.610757 
L 110.896539 271.610757 
z
" style="fill:#1f77b4;"/>
   </g>
   <g id="patch_8">
    <path clip-path="url(#pb9c695ccc2)" d="M 113.620198 307.584 
L 116.343865 307.584 
L 116.343865 270.520659 
L 113.620198 270.520659 
z
" style="fill:#1f77b4;"/>
   </g>
   <g id="patch_9">
    <path clip-path="url(#pb9c695ccc2)" d="M 116.343872 307.584 
L 119.067539 307.584 
L 119.067539 255.259283 
L 116.343872 255.259283 
z
" style="fill:#1f77b4;"/>
   </g>
   <g id="patch_10">
    <path clip-path="url(#pb9c695ccc2)" d="M 119.067531 307.584 
L 121.791198 307.584 
L 121.791198 219.28604 
L 119.067531 219.28604 
z
" style="fill:#1f77b4;"/>
   </g>
   <g id="patch_11">
    <path clip-path="url(#pb9c695ccc2)" d="M 121.791205 307.584 
L 124.514864 307.584 
L 124.514864 204.02437 
L 121.791205 204.02437 
z
" style="fill:#1f77b4;"/>
   </g>
   <g id="patch_12">
    <path clip-path="url(#pb9c695ccc2)" d="M 124.514864 307.584 
L 127.238531 307.584 
L 127.238531 216.015746 
L 124.514864 216.015746 
z
" style="fill:#1f77b4;"/>
   </g>
   <g id="patch_13">
    <path clip-path="url(#pb9c695ccc2)" d="M 127.238523 307.584 
L 129.962189 307.584 
L 129.962189 223.646434 
L 127.238523 223.646434 
z
" style="fill:#1f77b4;"/>
   </g>
   <g id="patch_14">
    <path clip-path="url(#pb9c695ccc2)" d="M 129.962197 307.584 
L 132.685864 307.584 
L 132.685864 229.096925 
L 129.962197 229.096925 
z
" style="fill:#1f77b4;"/>
   </g>
   <g id="patch_15">
    <path clip-path="url(#pb9c695ccc2)" d="M 132.685856 307.584 
L 135.409522 307.584 
L 135.409522 234.547416 
L 132.685856 234.547416 
z
" style="fill:#1f77b4;"/>
   </g>
   <g id="patch_16">
    <path clip-path="url(#pb9c695ccc2)" d="M 135.40953 307.584 
L 138.133197 307.584 
L 138.133197 251.988988 
L 135.40953 251.988988 
z
" style="fill:#1f77b4;"/>
   </g>
   <g id="patch_17">
    <path clip-path="url(#pb9c695ccc2)" d="M 138.133189 307.584 
L 140.856855 307.584 
L 140.856855 251.988988 
L 138.133189 251.988988 
z
" style="fill:#1f77b4;"/>
   </g>
   <g id="patch_18">
    <path clip-path="url(#pb9c695ccc2)" d="M 140.856863 307.584 
L 143.58053 307.584 
L 143.58053 254.169185 
L 140.856863 254.169185 
z
" style="fill:#1f77b4;"/>
   </g>
   <g id="patch_19">
    <path clip-path="url(#pb9c695ccc2)" d="M 143.580522 307.584 
L 146.304188 307.584 
L 146.304188 226.916728 
L 143.580522 226.916728 
z
" style="fill:#1f77b4;"/>
   </g>
   <g id="patch_20">
    <path clip-path="url(#pb9c695ccc2)" d="M 146.304196 307.584 
L 149.027863 307.584 
L 149.027863 232.36722 
L 146.304196 232.36722 
z
" style="fill:#1f77b4;"/>
   </g>
   <g id="patch_21">
    <path clip-path="url(#pb9c695ccc2)" d="M 149.027855 307.584 
L 151.751521 307.584 
L 151.751521 213.835549 
L 149.027855 213.835549 
z
" style="fill:#1f77b4;"/>
   </g>
   <g id="patch_22">
    <path clip-path="url(#pb9c695ccc2)" d="M 151.751529 307.584 
L 154.475196 307.584 
L 154.475196 236.727613 
L 151.751529 236.727613 
z
" style="fill:#1f77b4;"/>
   </g>
   <g id="patch_23">
    <path clip-path="url(#pb9c695ccc2)" d="M 154.475188 307.584 
L 157.198854 307.584 
L 157.198854 225.82663 
L 154.475188 225.82663 
z
" style="fill:#1f77b4;"/>
   </g>
   <g id="patch_24">
    <path clip-path="url(#pb9c695ccc2)" d="M 157.198862 307.584 
L 159.922529 307.584 
L 159.922529 219.28604 
L 157.198862 219.28604 
z
" style="fill:#1f77b4;"/>
   </g>
   <g id="patch_25">
    <path clip-path="url(#pb9c695ccc2)" d="M 159.922521 307.584 
L 162.646188 307.584 
L 162.646188 245.448399 
L 159.922521 245.448399 
z
" style="fill:#1f77b4;"/>
   </g>
   <g id="patch_26">
    <path clip-path="url(#pb9c695ccc2)" d="M 162.646195 307.584 
L 165.369862 307.584 
L 165.369862 249.808792 
L 162.646195 249.808792 
z
" style="fill:#1f77b4;"/>
   </g>
   <g id="patch_27">
    <path clip-path="url(#pb9c695ccc2)" d="M 165.369854 307.584 
L 168.093521 307.584 
L 168.093521 261.799873 
L 165.369854 261.799873 
z
" style="fill:#1f77b4;"/>
   </g>
   <g id="patch_28">
    <path clip-path="url(#pb9c695ccc2)" d="M 168.093528 307.584 
L 170.817187 307.584 
L 170.817187 260.709641 
L 168.093528 260.709641 
z
" style="fill:#1f77b4;"/>
   </g>
   <g id="patch_29">
    <path clip-path="url(#pb9c695ccc2)" d="M 170.817187 307.584 
L 173.540857 307.584 
L 173.540857 256.349454 
L 170.817187 256.349454 
z
" style="fill:#1f77b4;"/>
   </g>
   <g id="patch_30">
    <path clip-path="url(#pb9c695ccc2)" d="M 173.540857 307.584 
L 176.264524 307.584 
L 176.264524 255.259283 
L 173.540857 255.259283 
z
" style="fill:#1f77b4;"/>
   </g>
   <g id="patch_31">
    <path clip-path="url(#pb9c695ccc2)" d="M 176.264524 307.584 
L 178.98819 307.584 
L 178.98819 249.808792 
L 176.264524 249.808792 
z
" style="fill:#1f77b4;"/>
   </g>
   <g id="patch_32">
    <path clip-path="url(#pb9c695ccc2)" d="M 178.988194 307.584 
L 181.711857 307.584 
L 181.711857 258.529508 
L 178.988194 258.529508 
z
" style="fill:#1f77b4;"/>
   </g>
   <g id="patch_33">
    <path clip-path="url(#pb9c695ccc2)" d="M 181.711853 307.584 
L 184.43552 307.584 
L 184.43552 238.907809 
L 181.711853 238.907809 
z
" style="fill:#1f77b4;"/>
   </g>
   <g id="patch_34">
    <path clip-path="url(#pb9c695ccc2)" d="M 184.43552 307.584 
L 187.159186 307.584 
L 187.159186 245.448399 
L 184.43552 245.448399 
z
" style="fill:#1f77b4;"/>
   </g>
   <g id="patch_35">
    <path clip-path="url(#pb9c695ccc2)" d="M 187.159186 307.584 
L 189.882853 307.584 
L 189.882853 244.358301 
L 187.159186 244.358301 
z
" style="fill:#1f77b4;"/>
   </g>
   <g id="patch_36">
    <path clip-path="url(#pb9c695ccc2)" d="M 189.882853 307.584 
L 192.606519 307.584 
L 192.606519 245.448399 
L 189.882853 245.448399 
z
" style="fill:#1f77b4;"/>
   </g>
   <g id="patch_37">
    <path clip-path="url(#pb9c695ccc2)" d="M 192.606519 307.584 
L 195.330186 307.584 
L 195.330186 255.259283 
L 192.606519 255.259283 
z
" style="fill:#1f77b4;"/>
   </g>
   <g id="patch_38">
    <path clip-path="url(#pb9c695ccc2)" d="M 195.330186 307.584 
L 198.053852 307.584 
L 198.053852 237.817711 
L 195.330186 237.817711 
z
" style="fill:#1f77b4;"/>
   </g>
   <g id="patch_39">
    <path clip-path="url(#pb9c695ccc2)" d="M 198.053852 307.584 
L 200.777519 307.584 
L 200.777519 257.43948 
L 198.053852 257.43948 
z
" style="fill:#1f77b4;"/>
   </g>
   <g id="patch_40">
    <path clip-path="url(#pb9c695ccc2)" d="M 200.777519 307.584 
L 203.501181 307.584 
L 203.501181 250.89881 
L 200.777519 250.89881 
z
" style="fill:#1f77b4;"/>
   </g>
   <g id="patch_41">
    <path clip-path="url(#pb9c695ccc2)" d="M 203.501181 307.584 
L 206.22485 307.584 
L 206.22485 251.989028 
L 203.501181 251.989028 
z
" style="fill:#1f77b4;"/>
   </g>
   <g id="patch_42">
    <path clip-path="url(#pb9c695ccc2)" d="M 206.224848 307.584 
L 208.948512 307.584 
L 208.948512 242.178058 
L 206.224848 242.178058 
z
" style="fill:#1f77b4;"/>
   </g>
   <g id="patch_43">
    <path clip-path="url(#pb9c695ccc2)" d="M 208.948514 307.584 
L 211.672181 307.584 
L 211.672181 256.349382 
L 208.948514 256.349382 
z
" style="fill:#1f77b4;"/>
   </g>
   <g id="patch_44">
    <path clip-path="url(#pb9c695ccc2)" d="M 211.672181 307.584 
L 214.395847 307.584 
L 214.395847 258.529578 
L 211.672181 258.529578 
z
" style="fill:#1f77b4;"/>
   </g>
   <g id="patch_45">
    <path clip-path="url(#pb9c695ccc2)" d="M 214.395847 307.584 
L 217.119514 307.584 
L 217.119514 269.430561 
L 214.395847 269.430561 
z
" style="fill:#1f77b4;"/>
   </g>
   <g id="patch_46">
    <path clip-path="url(#pb9c695ccc2)" d="M 217.119514 307.584 
L 219.843178 307.584 
L 219.843178 261.79984 
L 217.119514 261.79984 
z
" style="fill:#1f77b4;"/>
   </g>
   <g id="patch_47">
    <path clip-path="url(#pb9c695ccc2)" d="M 219.843178 307.584 
L 222.566845 307.584 
L 222.566845 263.980069 
L 219.843178 263.980069 
z
" style="fill:#1f77b4;"/>
   </g>
   <g id="patch_48">
    <path clip-path="url(#pb9c695ccc2)" d="M 222.566845 307.584 
L 225.290511 307.584 
L 225.290511 235.637514 
L 222.566845 235.637514 
z
" style="fill:#1f77b4;"/>
   </g>
   <g id="patch_49">
    <path clip-path="url(#pb9c695ccc2)" d="M 225.290511 307.584 
L 228.014177 307.584 
L 228.014177 245.448377 
L 225.290511 245.448377 
z
" style="fill:#1f77b4;"/>
   </g>
   <g id="patch_50">
    <path clip-path="url(#pb9c695ccc2)" d="M 228.014177 307.584 
L 230.737843 307.584 
L 230.737843 229.096925 
L 228.014177 229.096925 
z
" style="fill:#1f77b4;"/>
   </g>
   <g id="patch_51">
    <path clip-path="url(#pb9c695ccc2)" d="M 230.737843 307.584 
L 233.461509 307.584 
L 233.461509 230.187009 
L 230.737843 230.187009 
z
" style="fill:#1f77b4;"/>
   </g>
   <g id="patch_52">
    <path clip-path="url(#pb9c695ccc2)" d="M 233.461509 307.584 
L 236.185175 307.584 
L 236.185175 117.906868 
L 233.461509 117.906868 
z
" style="fill:#1f77b4;"/>
   </g>
   <g id="patch_53">
    <path clip-path="url(#pb9c695ccc2)" d="M 236.185175 307.584 
L 238.908841 307.584 
L 238.908841 230.187009 
L 236.185175 230.187009 
z
" style="fill:#1f77b4;"/>
   </g>
   <g id="patch_54">
    <path clip-path="url(#pb9c695ccc2)" d="M 238.908841 307.584 
L 241.632507 307.584 
L 241.632507 185.492973 
L 238.908841 185.492973 
z
" style="fill:#1f77b4;"/>
   </g>
   <g id="patch_55">
    <path clip-path="url(#pb9c695ccc2)" d="M 241.632507 307.584 
L 244.356174 307.584 
L 244.356174 255.259283 
L 241.632507 255.259283 
z
" style="fill:#1f77b4;"/>
   </g>
   <g id="patch_56">
    <path clip-path="url(#pb9c695ccc2)" d="M 244.356173 307.584 
L 247.079838 307.584 
L 247.079838 258.529561 
L 244.356173 258.529561 
z
" style="fill:#1f77b4;"/>
   </g>
   <g id="patch_57">
    <path clip-path="url(#pb9c695ccc2)" d="M 247.079839 307.584 
L 249.803506 307.584 
L 249.803506 254.169185 
L 247.079839 254.169185 
z
" style="fill:#1f77b4;"/>
   </g>
   <g id="patch_58">
    <path clip-path="url(#pb9c695ccc2)" d="M 249.803506 307.584 
L 252.527172 307.584 
L 252.527172 235.637514 
L 249.803506 235.637514 
z
" style="fill:#1f77b4;"/>
   </g>
   <g id="patch_59">
    <path clip-path="url(#pb9c695ccc2)" d="M 252.527171 307.584 
L 255.250835 307.584 
L 255.250835 262.889939 
L 252.527171 262.889939 
z
" style="fill:#1f77b4;"/>
   </g>
   <g id="patch_60">
    <path clip-path="url(#pb9c695ccc2)" d="M 255.250837 307.584 
L 257.974504 307.584 
L 257.974504 277.061249 
L 255.250837 277.061249 
z
" style="fill:#1f77b4;"/>
   </g>
   <g id="patch_61">
    <path clip-path="url(#pb9c695ccc2)" d="M 257.974504 307.584 
L 260.69817 307.584 
L 260.69817 259.619676 
L 257.974504 259.619676 
z
" style="fill:#1f77b4;"/>
   </g>
   <g id="patch_62">
    <path clip-path="url(#pb9c695ccc2)" d="M 260.69817 307.584 
L 263.421837 307.584 
L 263.421837 275.97115 
L 260.69817 275.97115 
z
" style="fill:#1f77b4;"/>
   </g>
   <g id="patch_63">
    <path clip-path="url(#pb9c695ccc2)" d="M 263.421837 307.584 
L 266.145501 307.584 
L 266.145501 255.259246 
L 263.421837 255.259246 
z
" style="fill:#1f77b4;"/>
   </g>
   <g id="patch_64">
    <path clip-path="url(#pb9c695ccc2)" d="M 266.145503 307.584 
L 268.869173 307.584 
L 268.869173 271.610783 
L 266.145503 271.610783 
z
" style="fill:#1f77b4;"/>
   </g>
   <g id="patch_65">
    <path clip-path="url(#pb9c695ccc2)" d="M 268.869173 307.584 
L 271.592836 307.584 
L 271.592836 262.889908 
L 268.869173 262.889908 
z
" style="fill:#1f77b4;"/>
   </g>
   <g id="patch_66">
    <path clip-path="url(#pb9c695ccc2)" d="M 271.592832 307.584 
L 274.316499 307.584 
L 274.316499 270.520659 
L 271.592832 270.520659 
z
" style="fill:#1f77b4;"/>
   </g>
   <g id="patch_67">
    <path clip-path="url(#pb9c695ccc2)" d="M 274.316499 307.584 
L 277.040165 307.584 
L 277.040165 269.430561 
L 274.316499 269.430561 
z
" style="fill:#1f77b4;"/>
   </g>
   <g id="patch_68">
    <path clip-path="url(#pb9c695ccc2)" d="M 277.040165 307.584 
L 279.763832 307.584 
L 279.763832 271.610757 
L 277.040165 271.610757 
z
" style="fill:#1f77b4;"/>
   </g>
   <g id="patch_69">
    <path clip-path="url(#pb9c695ccc2)" d="M 279.763832 307.584 
L 282.487498 307.584 
L 282.487498 274.881052 
L 279.763832 274.881052 
z
" style="fill:#1f77b4;"/>
   </g>
   <g id="patch_70">
    <path clip-path="url(#pb9c695ccc2)" d="M 282.487498 307.584 
L 285.211165 307.584 
L 285.211165 278.151347 
L 282.487498 278.151347 
z
" style="fill:#1f77b4;"/>
   </g>
   <g id="patch_71">
    <path clip-path="url(#pb9c695ccc2)" d="M 285.211165 307.584 
L 287.934831 307.584 
L 287.934831 273.790954 
L 285.211165 273.790954 
z
" style="fill:#1f77b4;"/>
   </g>
   <g id="patch_72">
    <path clip-path="url(#pb9c695ccc2)" d="M 287.934831 307.584 
L 290.658498 307.584 
L 290.658498 267.250364 
L 287.934831 267.250364 
z
" style="fill:#1f77b4;"/>
   </g>
   <g id="patch_73">
    <path clip-path="url(#pb9c695ccc2)" d="M 290.658498 307.584 
L 293.38216 307.584 
L 293.38216 257.439409 
L 290.658498 257.439409 
z
" style="fill:#1f77b4;"/>
   </g>
   <g id="patch_74">
    <path clip-path="url(#pb9c695ccc2)" d="M 293.38216 307.584 
L 296.105827 307.584 
L 296.105827 261.799873 
L 293.38216 261.799873 
z
" style="fill:#1f77b4;"/>
   </g>
   <g id="patch_75">
    <path clip-path="url(#pb9c695ccc2)" d="M 296.105827 307.584 
L 298.829493 307.584 
L 298.829493 270.520659 
L 296.105827 270.520659 
z
" style="fill:#1f77b4;"/>
   </g>
   <g id="patch_76">
    <path clip-path="url(#pb9c695ccc2)" d="M 298.829489 307.584 
L 301.553164 307.584 
L 301.553164 273.791002 
L 298.829489 273.791002 
z
" style="fill:#1f77b4;"/>
   </g>
   <g id="patch_77">
    <path clip-path="url(#pb9c695ccc2)" d="M 301.553164 307.584 
L 304.276822 307.584 
L 304.276822 275.97106 
L 301.553164 275.97106 
z
" style="fill:#1f77b4;"/>
   </g>
   <g id="patch_78">
    <path clip-path="url(#pb9c695ccc2)" d="M 304.276822 307.584 
L 307.000489 307.584 
L 307.000489 279.241445 
L 304.276822 279.241445 
z
" style="fill:#1f77b4;"/>
   </g>
   <g id="patch_79">
    <path clip-path="url(#pb9c695ccc2)" d="M 307.000481 307.584 
L 309.724148 307.584 
L 309.724148 273.790954 
L 307.000481 273.790954 
z
" style="fill:#1f77b4;"/>
   </g>
   <g id="patch_80">
    <path clip-path="url(#pb9c695ccc2)" d="M 309.724155 307.584 
L 312.447822 307.584 
L 312.447822 275.97115 
L 309.724155 275.97115 
z
" style="fill:#1f77b4;"/>
   </g>
   <g id="patch_81">
    <path clip-path="url(#pb9c695ccc2)" d="M 312.447814 307.584 
L 315.171481 307.584 
L 315.171481 257.43948 
L 312.447814 257.43948 
z
" style="fill:#1f77b4;"/>
   </g>
   <g id="patch_82">
    <path clip-path="url(#pb9c695ccc2)" d="M 315.171489 307.584 
L 317.895155 307.584 
L 317.895155 254.169185 
L 315.171489 254.169185 
z
" style="fill:#1f77b4;"/>
   </g>
   <g id="patch_83">
    <path clip-path="url(#pb9c695ccc2)" d="M 317.895147 307.584 
L 320.618814 307.584 
L 320.618814 243.268202 
L 317.895147 243.268202 
z
" style="fill:#1f77b4;"/>
   </g>
   <g id="patch_84">
    <path clip-path="url(#pb9c695ccc2)" d="M 320.618822 307.584 
L 323.342488 307.584 
L 323.342488 255.259283 
L 320.618822 255.259283 
z
" style="fill:#1f77b4;"/>
   </g>
   <g id="patch_85">
    <path clip-path="url(#pb9c695ccc2)" d="M 323.34248 307.584 
L 326.066147 307.584 
L 326.066147 260.709775 
L 323.34248 260.709775 
z
" style="fill:#1f77b4;"/>
   </g>
   <g id="patch_86">
    <path clip-path="url(#pb9c695ccc2)" d="M 326.066155 307.584 
L 328.789821 307.584 
L 328.789821 247.628595 
L 326.066155 247.628595 
z
" style="fill:#1f77b4;"/>
   </g>
   <g id="patch_87">
    <path clip-path="url(#pb9c695ccc2)" d="M 328.789813 307.584 
L 331.51348 307.584 
L 331.51348 250.89889 
L 328.789813 250.89889 
z
" style="fill:#1f77b4;"/>
   </g>
   <g id="patch_88">
    <path clip-path="url(#pb9c695ccc2)" d="M 331.513488 307.584 
L 334.237154 307.584 
L 334.237154 260.709775 
L 331.513488 260.709775 
z
" style="fill:#1f77b4;"/>
   </g>
   <g id="patch_89">
    <path clip-path="url(#pb9c695ccc2)" d="M 334.237146 307.584 
L 336.960813 307.584 
L 336.960813 234.547416 
L 334.237146 234.547416 
z
" style="fill:#1f77b4;"/>
   </g>
   <g id="patch_90">
    <path clip-path="url(#pb9c695ccc2)" d="M 336.960821 307.584 
L 339.684487 307.584 
L 339.684487 234.547416 
L 336.960821 234.547416 
z
" style="fill:#1f77b4;"/>
   </g>
   <g id="patch_91">
    <path clip-path="url(#pb9c695ccc2)" d="M 339.684479 307.584 
L 342.408146 307.584 
L 342.408146 235.637514 
L 339.684479 235.637514 
z
" style="fill:#1f77b4;"/>
   </g>
   <g id="patch_92">
    <path clip-path="url(#pb9c695ccc2)" d="M 342.408154 307.584 
L 345.13182 307.584 
L 345.13182 234.547416 
L 342.408154 234.547416 
z
" style="fill:#1f77b4;"/>
   </g>
   <g id="patch_93">
    <path clip-path="url(#pb9c695ccc2)" d="M 345.131812 307.584 
L 347.855479 307.584 
L 347.855479 239.997908 
L 345.131812 239.997908 
z
" style="fill:#1f77b4;"/>
   </g>
   <g id="patch_94">
    <path clip-path="url(#pb9c695ccc2)" d="M 347.855487 307.584 
L 350.579145 307.584 
L 350.579145 248.718526 
L 347.855487 248.718526 
z
" style="fill:#1f77b4;"/>
   </g>
   <g id="patch_95">
    <path clip-path="url(#pb9c695ccc2)" d="M 350.579145 307.584 
L 353.302812 307.584 
L 353.302812 242.178104 
L 350.579145 242.178104 
z
" style="fill:#1f77b4;"/>
   </g>
   <g id="patch_96">
    <path clip-path="url(#pb9c695ccc2)" d="M 353.302804 307.584 
L 356.026471 307.584 
L 356.026471 249.808792 
L 353.302804 249.808792 
z
" style="fill:#1f77b4;"/>
   </g>
   <g id="patch_97">
    <path clip-path="url(#pb9c695ccc2)" d="M 356.026478 307.584 
L 358.750145 307.584 
L 358.750145 272.700855 
L 356.026478 272.700855 
z
" style="fill:#1f77b4;"/>
   </g>
   <g id="patch_98">
    <path clip-path="url(#pb9c695ccc2)" d="M 358.750137 307.584 
L 361.473804 307.584 
L 361.473804 263.980069 
L 358.750137 263.980069 
z
" style="fill:#1f77b4;"/>
   </g>
   <g id="patch_99">
    <path clip-path="url(#pb9c695ccc2)" d="M 361.473811 307.584 
L 364.197478 307.584 
L 364.197478 269.430561 
L 361.473811 269.430561 
z
" style="fill:#1f77b4;"/>
   </g>
   <g id="patch_100">
    <path clip-path="url(#pb9c695ccc2)" d="M 364.19747 307.584 
L 366.921144 307.584 
L 366.921144 296.683017 
L 364.19747 296.683017 
z
" style="fill:#1f77b4;"/>
   </g>
   <g id="patch_101">
    <path clip-path="url(#pb9c695ccc2)" d="M 366.921144 307.584 
L 369.644819 307.584 
L 369.644819 304.313714 
L 366.921144 304.313714 
z
" style="fill:#1f77b4;"/>
   </g>
   <g id="patch_102">
    <path clip-path="url(#pb9c695ccc2)" d="M 369.644819 307.584 
L 372.368477 307.584 
L 372.368477 294.502784 
L 369.644819 294.502784 
z
" style="fill:#1f77b4;"/>
   </g>
   <g id="matplotlib.axis_1">
    <g id="xtick_1">
     <g id="line2d_1">
      <defs>
       <path d="M 0 0 
L 0 3.5 
" id="m142d320d1a" style="stroke:#000000;stroke-width:0.8;"/>
      </defs>
      <g>
       <use style="stroke:#000000;stroke-width:0.8;" x="106.301429" xlink:href="#m142d320d1a" y="307.584"/>
      </g>
     </g>
     <g id="text_1">
      <!-- −2 -->
      <defs>
       <path d="M 10.59375 35.5 
L 73.1875 35.5 
L 73.1875 27.203125 
L 10.59375 27.203125 
z
" id="DejaVuSans-8722"/>
       <path d="M 19.1875 8.296875 
L 53.609375 8.296875 
L 53.609375 0 
L 7.328125 0 
L 7.328125 8.296875 
Q 12.9375 14.109375 22.625 23.890625 
Q 32.328125 33.6875 34.8125 36.53125 
Q 39.546875 41.84375 41.421875 45.53125 
Q 43.3125 49.21875 43.3125 52.78125 
Q 43.3125 58.59375 39.234375 62.25 
Q 35.15625 65.921875 28.609375 65.921875 
Q 23.96875 65.921875 18.8125 64.3125 
Q 13.671875 62.703125 7.8125 59.421875 
L 7.8125 69.390625 
Q 13.765625 71.78125 18.9375 73 
Q 24.125 74.21875 28.421875 74.21875 
Q 39.75 74.21875 46.484375 68.546875 
Q 53.21875 62.890625 53.21875 53.421875 
Q 53.21875 48.921875 51.53125 44.890625 
Q 49.859375 40.875 45.40625 35.40625 
Q 44.1875 33.984375 37.640625 27.21875 
Q 31.109375 20.453125 19.1875 8.296875 
z
" id="DejaVuSans-50"/>
      </defs>
      <g transform="translate(93.770569 327.501344)scale(0.17 -0.17)">
       <use xlink:href="#DejaVuSans-8722"/>
       <use x="83.789062" xlink:href="#DejaVuSans-50"/>
      </g>
     </g>
    </g>
    <g id="xtick_2">
     <g id="line2d_2">
      <g>
       <use style="stroke:#000000;stroke-width:0.8;" x="171.238832" xlink:href="#m142d320d1a" y="307.584"/>
      </g>
     </g>
     <g id="text_2">
      <!-- −1 -->
      <defs>
       <path d="M 12.40625 8.296875 
L 28.515625 8.296875 
L 28.515625 63.921875 
L 10.984375 60.40625 
L 10.984375 69.390625 
L 28.421875 72.90625 
L 38.28125 72.90625 
L 38.28125 8.296875 
L 54.390625 8.296875 
L 54.390625 0 
L 12.40625 0 
z
" id="DejaVuSans-49"/>
      </defs>
      <g transform="translate(158.707972 327.501344)scale(0.17 -0.17)">
       <use xlink:href="#DejaVuSans-8722"/>
       <use x="83.789062" xlink:href="#DejaVuSans-49"/>
      </g>
     </g>
    </g>
    <g id="xtick_3">
     <g id="line2d_3">
      <g>
       <use style="stroke:#000000;stroke-width:0.8;" x="236.176234" xlink:href="#m142d320d1a" y="307.584"/>
      </g>
     </g>
     <g id="text_3">
      <!-- 0 -->
      <defs>
       <path d="M 31.78125 66.40625 
Q 24.171875 66.40625 20.328125 58.90625 
Q 16.5 51.421875 16.5 36.375 
Q 16.5 21.390625 20.328125 13.890625 
Q 24.171875 6.390625 31.78125 6.390625 
Q 39.453125 6.390625 43.28125 13.890625 
Q 47.125 21.390625 47.125 36.375 
Q 47.125 51.421875 43.28125 58.90625 
Q 39.453125 66.40625 31.78125 66.40625 
z
M 31.78125 74.21875 
Q 44.046875 74.21875 50.515625 64.515625 
Q 56.984375 54.828125 56.984375 36.375 
Q 56.984375 17.96875 50.515625 8.265625 
Q 44.046875 -1.421875 31.78125 -1.421875 
Q 19.53125 -1.421875 13.0625 8.265625 
Q 6.59375 17.96875 6.59375 36.375 
Q 6.59375 54.828125 13.0625 64.515625 
Q 19.53125 74.21875 31.78125 74.21875 
z
" id="DejaVuSans-48"/>
      </defs>
      <g transform="translate(230.768109 327.501344)scale(0.17 -0.17)">
       <use xlink:href="#DejaVuSans-48"/>
      </g>
     </g>
    </g>
    <g id="xtick_4">
     <g id="line2d_4">
      <g>
       <use style="stroke:#000000;stroke-width:0.8;" x="301.113637" xlink:href="#m142d320d1a" y="307.584"/>
      </g>
     </g>
     <g id="text_4">
      <!-- 1 -->
      <g transform="translate(295.705512 327.501344)scale(0.17 -0.17)">
       <use xlink:href="#DejaVuSans-49"/>
      </g>
     </g>
    </g>
    <g id="xtick_5">
     <g id="line2d_5">
      <g>
       <use style="stroke:#000000;stroke-width:0.8;" x="366.05104" xlink:href="#m142d320d1a" y="307.584"/>
      </g>
     </g>
     <g id="text_5">
      <!-- 2 -->
      <g transform="translate(360.642915 327.501344)scale(0.17 -0.17)">
       <use xlink:href="#DejaVuSans-50"/>
      </g>
     </g>
    </g>
    <g id="text_6">
     <!-- Position in Radian -->
     <defs>
      <path d="M 19.671875 64.796875 
L 19.671875 37.40625 
L 32.078125 37.40625 
Q 38.96875 37.40625 42.71875 40.96875 
Q 46.484375 44.53125 46.484375 51.125 
Q 46.484375 57.671875 42.71875 61.234375 
Q 38.96875 64.796875 32.078125 64.796875 
z
M 9.8125 72.90625 
L 32.078125 72.90625 
Q 44.34375 72.90625 50.609375 67.359375 
Q 56.890625 61.8125 56.890625 51.125 
Q 56.890625 40.328125 50.609375 34.8125 
Q 44.34375 29.296875 32.078125 29.296875 
L 19.671875 29.296875 
L 19.671875 0 
L 9.8125 0 
z
" id="DejaVuSans-80"/>
      <path d="M 30.609375 48.390625 
Q 23.390625 48.390625 19.1875 42.75 
Q 14.984375 37.109375 14.984375 27.296875 
Q 14.984375 17.484375 19.15625 11.84375 
Q 23.34375 6.203125 30.609375 6.203125 
Q 37.796875 6.203125 41.984375 11.859375 
Q 46.1875 17.53125 46.1875 27.296875 
Q 46.1875 37.015625 41.984375 42.703125 
Q 37.796875 48.390625 30.609375 48.390625 
z
M 30.609375 56 
Q 42.328125 56 49.015625 48.375 
Q 55.71875 40.765625 55.71875 27.296875 
Q 55.71875 13.875 49.015625 6.21875 
Q 42.328125 -1.421875 30.609375 -1.421875 
Q 18.84375 -1.421875 12.171875 6.21875 
Q 5.515625 13.875 5.515625 27.296875 
Q 5.515625 40.765625 12.171875 48.375 
Q 18.84375 56 30.609375 56 
z
" id="DejaVuSans-111"/>
      <path d="M 44.28125 53.078125 
L 44.28125 44.578125 
Q 40.484375 46.53125 36.375 47.5 
Q 32.28125 48.484375 27.875 48.484375 
Q 21.1875 48.484375 17.84375 46.4375 
Q 14.5 44.390625 14.5 40.28125 
Q 14.5 37.15625 16.890625 35.375 
Q 19.28125 33.59375 26.515625 31.984375 
L 29.59375 31.296875 
Q 39.15625 29.25 43.1875 25.515625 
Q 47.21875 21.78125 47.21875 15.09375 
Q 47.21875 7.46875 41.1875 3.015625 
Q 35.15625 -1.421875 24.609375 -1.421875 
Q 20.21875 -1.421875 15.453125 -0.5625 
Q 10.6875 0.296875 5.421875 2 
L 5.421875 11.28125 
Q 10.40625 8.6875 15.234375 7.390625 
Q 20.0625 6.109375 24.8125 6.109375 
Q 31.15625 6.109375 34.5625 8.28125 
Q 37.984375 10.453125 37.984375 14.40625 
Q 37.984375 18.0625 35.515625 20.015625 
Q 33.0625 21.96875 24.703125 23.78125 
L 21.578125 24.515625 
Q 13.234375 26.265625 9.515625 29.90625 
Q 5.8125 33.546875 5.8125 39.890625 
Q 5.8125 47.609375 11.28125 51.796875 
Q 16.75 56 26.8125 56 
Q 31.78125 56 36.171875 55.265625 
Q 40.578125 54.546875 44.28125 53.078125 
z
" id="DejaVuSans-115"/>
      <path d="M 9.421875 54.6875 
L 18.40625 54.6875 
L 18.40625 0 
L 9.421875 0 
z
M 9.421875 75.984375 
L 18.40625 75.984375 
L 18.40625 64.59375 
L 9.421875 64.59375 
z
" id="DejaVuSans-105"/>
      <path d="M 18.3125 70.21875 
L 18.3125 54.6875 
L 36.8125 54.6875 
L 36.8125 47.703125 
L 18.3125 47.703125 
L 18.3125 18.015625 
Q 18.3125 11.328125 20.140625 9.421875 
Q 21.96875 7.515625 27.59375 7.515625 
L 36.8125 7.515625 
L 36.8125 0 
L 27.59375 0 
Q 17.1875 0 13.234375 3.875 
Q 9.28125 7.765625 9.28125 18.015625 
L 9.28125 47.703125 
L 2.6875 47.703125 
L 2.6875 54.6875 
L 9.28125 54.6875 
L 9.28125 70.21875 
z
" id="DejaVuSans-116"/>
      <path d="M 54.890625 33.015625 
L 54.890625 0 
L 45.90625 0 
L 45.90625 32.71875 
Q 45.90625 40.484375 42.875 44.328125 
Q 39.84375 48.1875 33.796875 48.1875 
Q 26.515625 48.1875 22.3125 43.546875 
Q 18.109375 38.921875 18.109375 30.90625 
L 18.109375 0 
L 9.078125 0 
L 9.078125 54.6875 
L 18.109375 54.6875 
L 18.109375 46.1875 
Q 21.34375 51.125 25.703125 53.5625 
Q 30.078125 56 35.796875 56 
Q 45.21875 56 50.046875 50.171875 
Q 54.890625 44.34375 54.890625 33.015625 
z
" id="DejaVuSans-110"/>
      <path id="DejaVuSans-32"/>
      <path d="M 44.390625 34.1875 
Q 47.5625 33.109375 50.5625 29.59375 
Q 53.5625 26.078125 56.59375 19.921875 
L 66.609375 0 
L 56 0 
L 46.6875 18.703125 
Q 43.0625 26.03125 39.671875 28.421875 
Q 36.28125 30.8125 30.421875 30.8125 
L 19.671875 30.8125 
L 19.671875 0 
L 9.8125 0 
L 9.8125 72.90625 
L 32.078125 72.90625 
Q 44.578125 72.90625 50.734375 67.671875 
Q 56.890625 62.453125 56.890625 51.90625 
Q 56.890625 45.015625 53.6875 40.46875 
Q 50.484375 35.9375 44.390625 34.1875 
z
M 19.671875 64.796875 
L 19.671875 38.921875 
L 32.078125 38.921875 
Q 39.203125 38.921875 42.84375 42.21875 
Q 46.484375 45.515625 46.484375 51.90625 
Q 46.484375 58.296875 42.84375 61.546875 
Q 39.203125 64.796875 32.078125 64.796875 
z
" id="DejaVuSans-82"/>
      <path d="M 34.28125 27.484375 
Q 23.390625 27.484375 19.1875 25 
Q 14.984375 22.515625 14.984375 16.5 
Q 14.984375 11.71875 18.140625 8.90625 
Q 21.296875 6.109375 26.703125 6.109375 
Q 34.1875 6.109375 38.703125 11.40625 
Q 43.21875 16.703125 43.21875 25.484375 
L 43.21875 27.484375 
z
M 52.203125 31.203125 
L 52.203125 0 
L 43.21875 0 
L 43.21875 8.296875 
Q 40.140625 3.328125 35.546875 0.953125 
Q 30.953125 -1.421875 24.3125 -1.421875 
Q 15.921875 -1.421875 10.953125 3.296875 
Q 6 8.015625 6 15.921875 
Q 6 25.140625 12.171875 29.828125 
Q 18.359375 34.515625 30.609375 34.515625 
L 43.21875 34.515625 
L 43.21875 35.40625 
Q 43.21875 41.609375 39.140625 45 
Q 35.0625 48.390625 27.6875 48.390625 
Q 23 48.390625 18.546875 47.265625 
Q 14.109375 46.140625 10.015625 43.890625 
L 10.015625 52.203125 
Q 14.9375 54.109375 19.578125 55.046875 
Q 24.21875 56 28.609375 56 
Q 40.484375 56 46.34375 49.84375 
Q 52.203125 43.703125 52.203125 31.203125 
z
" id="DejaVuSans-97"/>
      <path d="M 45.40625 46.390625 
L 45.40625 75.984375 
L 54.390625 75.984375 
L 54.390625 0 
L 45.40625 0 
L 45.40625 8.203125 
Q 42.578125 3.328125 38.25 0.953125 
Q 33.9375 -1.421875 27.875 -1.421875 
Q 17.96875 -1.421875 11.734375 6.484375 
Q 5.515625 14.40625 5.515625 27.296875 
Q 5.515625 40.1875 11.734375 48.09375 
Q 17.96875 56 27.875 56 
Q 33.9375 56 38.25 53.625 
Q 42.578125 51.265625 45.40625 46.390625 
z
M 14.796875 27.296875 
Q 14.796875 17.390625 18.875 11.75 
Q 22.953125 6.109375 30.078125 6.109375 
Q 37.203125 6.109375 41.296875 11.75 
Q 45.40625 17.390625 45.40625 27.296875 
Q 45.40625 37.203125 41.296875 42.84375 
Q 37.203125 48.484375 30.078125 48.484375 
Q 22.953125 48.484375 18.875 42.84375 
Q 14.796875 37.203125 14.796875 27.296875 
z
" id="DejaVuSans-100"/>
     </defs>
     <g transform="translate(102.024844 357.832125)scale(0.3 -0.3)">
      <use xlink:href="#DejaVuSans-80"/>
      <use x="60.255859" xlink:href="#DejaVuSans-111"/>
      <use x="121.4375" xlink:href="#DejaVuSans-115"/>
      <use x="173.537109" xlink:href="#DejaVuSans-105"/>
      <use x="201.320312" xlink:href="#DejaVuSans-116"/>
      <use x="240.529297" xlink:href="#DejaVuSans-105"/>
      <use x="268.3125" xlink:href="#DejaVuSans-111"/>
      <use x="329.494141" xlink:href="#DejaVuSans-110"/>
      <use x="392.873047" xlink:href="#DejaVuSans-32"/>
      <use x="424.660156" xlink:href="#DejaVuSans-105"/>
      <use x="452.443359" xlink:href="#DejaVuSans-110"/>
      <use x="515.822266" xlink:href="#DejaVuSans-32"/>
      <use x="547.609375" xlink:href="#DejaVuSans-82"/>
      <use x="617.060547" xlink:href="#DejaVuSans-97"/>
      <use x="678.339844" xlink:href="#DejaVuSans-100"/>
      <use x="741.816406" xlink:href="#DejaVuSans-105"/>
      <use x="769.599609" xlink:href="#DejaVuSans-97"/>
      <use x="830.878906" xlink:href="#DejaVuSans-110"/>
     </g>
    </g>
   </g>
   <g id="matplotlib.axis_2">
    <g id="ytick_1">
     <g id="line2d_6">
      <defs>
       <path d="M 0 0 
L -3.5 0 
" id="m7d3370f869" style="stroke:#000000;stroke-width:0.8;"/>
      </defs>
      <g>
       <use style="stroke:#000000;stroke-width:0.8;" x="57.6" xlink:href="#m7d3370f869" y="307.584"/>
      </g>
     </g>
     <g id="text_7">
      <!-- 0.0 -->
      <defs>
       <path d="M 10.6875 12.40625 
L 21 12.40625 
L 21 0 
L 10.6875 0 
z
" id="DejaVuSans-46"/>
      </defs>
      <g transform="translate(23.564687 314.042672)scale(0.17 -0.17)">
       <use xlink:href="#DejaVuSans-48"/>
       <use x="63.623047" xlink:href="#DejaVuSans-46"/>
       <use x="95.410156" xlink:href="#DejaVuSans-48"/>
      </g>
     </g>
    </g>
    <g id="ytick_2">
     <g id="line2d_7">
      <g>
       <use style="stroke:#000000;stroke-width:0.8;" x="57.6" xlink:href="#m7d3370f869" y="261.862059"/>
      </g>
     </g>
     <g id="text_8">
      <!-- 0.2 -->
      <g transform="translate(23.564687 268.32073)scale(0.17 -0.17)">
       <use xlink:href="#DejaVuSans-48"/>
       <use x="63.623047" xlink:href="#DejaVuSans-46"/>
       <use x="95.410156" xlink:href="#DejaVuSans-50"/>
      </g>
     </g>
    </g>
    <g id="ytick_3">
     <g id="line2d_8">
      <g>
       <use style="stroke:#000000;stroke-width:0.8;" x="57.6" xlink:href="#m7d3370f869" y="216.140117"/>
      </g>
     </g>
     <g id="text_9">
      <!-- 0.4 -->
      <defs>
       <path d="M 37.796875 64.3125 
L 12.890625 25.390625 
L 37.796875 25.390625 
z
M 35.203125 72.90625 
L 47.609375 72.90625 
L 47.609375 25.390625 
L 58.015625 25.390625 
L 58.015625 17.1875 
L 47.609375 17.1875 
L 47.609375 0 
L 37.796875 0 
L 37.796875 17.1875 
L 4.890625 17.1875 
L 4.890625 26.703125 
z
" id="DejaVuSans-52"/>
      </defs>
      <g transform="translate(23.564687 222.598789)scale(0.17 -0.17)">
       <use xlink:href="#DejaVuSans-48"/>
       <use x="63.623047" xlink:href="#DejaVuSans-46"/>
       <use x="95.410156" xlink:href="#DejaVuSans-52"/>
      </g>
     </g>
    </g>
    <g id="ytick_4">
     <g id="line2d_9">
      <g>
       <use style="stroke:#000000;stroke-width:0.8;" x="57.6" xlink:href="#m7d3370f869" y="170.418176"/>
      </g>
     </g>
     <g id="text_10">
      <!-- 0.6 -->
      <defs>
       <path d="M 33.015625 40.375 
Q 26.375 40.375 22.484375 35.828125 
Q 18.609375 31.296875 18.609375 23.390625 
Q 18.609375 15.53125 22.484375 10.953125 
Q 26.375 6.390625 33.015625 6.390625 
Q 39.65625 6.390625 43.53125 10.953125 
Q 47.40625 15.53125 47.40625 23.390625 
Q 47.40625 31.296875 43.53125 35.828125 
Q 39.65625 40.375 33.015625 40.375 
z
M 52.59375 71.296875 
L 52.59375 62.3125 
Q 48.875 64.0625 45.09375 64.984375 
Q 41.3125 65.921875 37.59375 65.921875 
Q 27.828125 65.921875 22.671875 59.328125 
Q 17.53125 52.734375 16.796875 39.40625 
Q 19.671875 43.65625 24.015625 45.921875 
Q 28.375 48.1875 33.59375 48.1875 
Q 44.578125 48.1875 50.953125 41.515625 
Q 57.328125 34.859375 57.328125 23.390625 
Q 57.328125 12.15625 50.6875 5.359375 
Q 44.046875 -1.421875 33.015625 -1.421875 
Q 20.359375 -1.421875 13.671875 8.265625 
Q 6.984375 17.96875 6.984375 36.375 
Q 6.984375 53.65625 15.1875 63.9375 
Q 23.390625 74.21875 37.203125 74.21875 
Q 40.921875 74.21875 44.703125 73.484375 
Q 48.484375 72.75 52.59375 71.296875 
z
" id="DejaVuSans-54"/>
      </defs>
      <g transform="translate(23.564687 176.876847)scale(0.17 -0.17)">
       <use xlink:href="#DejaVuSans-48"/>
       <use x="63.623047" xlink:href="#DejaVuSans-46"/>
       <use x="95.410156" xlink:href="#DejaVuSans-54"/>
      </g>
     </g>
    </g>
    <g id="ytick_5">
     <g id="line2d_10">
      <g>
       <use style="stroke:#000000;stroke-width:0.8;" x="57.6" xlink:href="#m7d3370f869" y="124.696234"/>
      </g>
     </g>
     <g id="text_11">
      <!-- 0.8 -->
      <defs>
       <path d="M 31.78125 34.625 
Q 24.75 34.625 20.71875 30.859375 
Q 16.703125 27.09375 16.703125 20.515625 
Q 16.703125 13.921875 20.71875 10.15625 
Q 24.75 6.390625 31.78125 6.390625 
Q 38.8125 6.390625 42.859375 10.171875 
Q 46.921875 13.96875 46.921875 20.515625 
Q 46.921875 27.09375 42.890625 30.859375 
Q 38.875 34.625 31.78125 34.625 
z
M 21.921875 38.8125 
Q 15.578125 40.375 12.03125 44.71875 
Q 8.5 49.078125 8.5 55.328125 
Q 8.5 64.0625 14.71875 69.140625 
Q 20.953125 74.21875 31.78125 74.21875 
Q 42.671875 74.21875 48.875 69.140625 
Q 55.078125 64.0625 55.078125 55.328125 
Q 55.078125 49.078125 51.53125 44.71875 
Q 48 40.375 41.703125 38.8125 
Q 48.828125 37.15625 52.796875 32.3125 
Q 56.78125 27.484375 56.78125 20.515625 
Q 56.78125 9.90625 50.3125 4.234375 
Q 43.84375 -1.421875 31.78125 -1.421875 
Q 19.734375 -1.421875 13.25 4.234375 
Q 6.78125 9.90625 6.78125 20.515625 
Q 6.78125 27.484375 10.78125 32.3125 
Q 14.796875 37.15625 21.921875 38.8125 
z
M 18.3125 54.390625 
Q 18.3125 48.734375 21.84375 45.5625 
Q 25.390625 42.390625 31.78125 42.390625 
Q 38.140625 42.390625 41.71875 45.5625 
Q 45.3125 48.734375 45.3125 54.390625 
Q 45.3125 60.0625 41.71875 63.234375 
Q 38.140625 66.40625 31.78125 66.40625 
Q 25.390625 66.40625 21.84375 63.234375 
Q 18.3125 60.0625 18.3125 54.390625 
z
" id="DejaVuSans-56"/>
      </defs>
      <g transform="translate(23.564687 131.154906)scale(0.17 -0.17)">
       <use xlink:href="#DejaVuSans-48"/>
       <use x="63.623047" xlink:href="#DejaVuSans-46"/>
       <use x="95.410156" xlink:href="#DejaVuSans-56"/>
      </g>
     </g>
    </g>
    <g id="ytick_6">
     <g id="line2d_11">
      <g>
       <use style="stroke:#000000;stroke-width:0.8;" x="57.6" xlink:href="#m7d3370f869" y="78.974293"/>
      </g>
     </g>
     <g id="text_12">
      <!-- 1.0 -->
      <g transform="translate(23.564687 85.432964)scale(0.17 -0.17)">
       <use xlink:href="#DejaVuSans-49"/>
       <use x="63.623047" xlink:href="#DejaVuSans-46"/>
       <use x="95.410156" xlink:href="#DejaVuSans-48"/>
      </g>
     </g>
    </g>
    <g id="text_13">
     <!-- Density -->
     <defs>
      <path d="M 19.671875 64.796875 
L 19.671875 8.109375 
L 31.59375 8.109375 
Q 46.6875 8.109375 53.6875 14.9375 
Q 60.6875 21.78125 60.6875 36.53125 
Q 60.6875 51.171875 53.6875 57.984375 
Q 46.6875 64.796875 31.59375 64.796875 
z
M 9.8125 72.90625 
L 30.078125 72.90625 
Q 51.265625 72.90625 61.171875 64.09375 
Q 71.09375 55.28125 71.09375 36.53125 
Q 71.09375 17.671875 61.125 8.828125 
Q 51.171875 0 30.078125 0 
L 9.8125 0 
z
" id="DejaVuSans-68"/>
      <path d="M 56.203125 29.59375 
L 56.203125 25.203125 
L 14.890625 25.203125 
Q 15.484375 15.921875 20.484375 11.0625 
Q 25.484375 6.203125 34.421875 6.203125 
Q 39.59375 6.203125 44.453125 7.46875 
Q 49.3125 8.734375 54.109375 11.28125 
L 54.109375 2.78125 
Q 49.265625 0.734375 44.1875 -0.34375 
Q 39.109375 -1.421875 33.890625 -1.421875 
Q 20.796875 -1.421875 13.15625 6.1875 
Q 5.515625 13.8125 5.515625 26.8125 
Q 5.515625 40.234375 12.765625 48.109375 
Q 20.015625 56 32.328125 56 
Q 43.359375 56 49.78125 48.890625 
Q 56.203125 41.796875 56.203125 29.59375 
z
M 47.21875 32.234375 
Q 47.125 39.59375 43.09375 43.984375 
Q 39.0625 48.390625 32.421875 48.390625 
Q 24.90625 48.390625 20.390625 44.140625 
Q 15.875 39.890625 15.1875 32.171875 
z
" id="DejaVuSans-101"/>
      <path d="M 32.171875 -5.078125 
Q 28.375 -14.84375 24.75 -17.8125 
Q 21.140625 -20.796875 15.09375 -20.796875 
L 7.90625 -20.796875 
L 7.90625 -13.28125 
L 13.1875 -13.28125 
Q 16.890625 -13.28125 18.9375 -11.515625 
Q 21 -9.765625 23.484375 -3.21875 
L 25.09375 0.875 
L 2.984375 54.6875 
L 12.5 54.6875 
L 29.59375 11.921875 
L 46.6875 54.6875 
L 56.203125 54.6875 
z
" id="DejaVuSans-121"/>
     </defs>
     <g transform="translate(13.325625 231.553781)rotate(-90)scale(0.3 -0.3)">
      <use xlink:href="#DejaVuSans-68"/>
      <use x="77.001953" xlink:href="#DejaVuSans-101"/>
      <use x="138.525391" xlink:href="#DejaVuSans-110"/>
      <use x="201.904297" xlink:href="#DejaVuSans-115"/>
      <use x="254.003906" xlink:href="#DejaVuSans-105"/>
      <use x="281.787109" xlink:href="#DejaVuSans-116"/>
      <use x="320.996094" xlink:href="#DejaVuSans-121"/>
     </g>
    </g>
   </g>
   <g id="line2d_12">
    <path clip-path="url(#pb9c695ccc2)" d="M 73.832727 307.584 
L 98.151785 307.483505 
L 98.444003 307.236607 
L 98.703753 306.699146 
L 98.995971 305.485447 
L 99.385595 302.711241 
L 99.970032 298.592551 
L 100.164844 298.228368 
L 100.294719 298.357922 
L 100.522 299.133661 
L 101.106436 301.331641 
L 101.26878 301.394574 
L 101.431123 301.176372 
L 101.723342 300.291292 
L 102.470122 297.917628 
L 102.697403 297.732926 
L 102.892215 297.85575 
L 103.151965 298.409155 
L 103.50912 299.788916 
L 104.742931 305.141934 
L 104.937743 305.206194 
L 105.132555 304.974795 
L 105.457242 304.127575 
L 106.106616 302.401921 
L 106.431303 302.098262 
L 106.820928 301.779102 
L 107.048209 301.214759 
L 107.340427 299.812891 
L 108.931394 290.665773 
L 109.353487 287.862441 
L 110.100267 280.881907 
L 110.782109 275.188909 
L 111.074328 274.249941 
L 111.236671 274.236964 
L 111.463952 274.607113 
L 111.788639 275.075476 
L 111.918514 274.992202 
L 112.113326 274.448936 
L 112.438013 272.612533 
L 113.054919 269.191318 
L 113.314668 268.793505 
L 113.477012 268.85862 
L 113.736761 269.308848 
L 114.191323 270.680614 
L 114.580948 271.59346 
L 114.710822 271.525447 
L 114.873166 271.012311 
L 115.132915 269.16054 
L 116.00957 261.952695 
L 116.204383 261.751406 
L 116.366726 261.978819 
L 116.626476 262.872212 
L 117.145975 264.714522 
L 117.243381 264.677878 
L 117.373256 264.265127 
L 117.568068 262.752934 
L 117.892755 258.038133 
L 118.866816 242.526464 
L 119.418784 234.711583 
L 120.620126 214.573037 
L 120.912344 213.448581 
L 121.334437 212.245856 
L 121.594187 210.33624 
L 121.918874 205.939096 
L 122.600717 196.399589 
L 122.76306 196.027156 
L 122.860466 196.257127 
L 123.055279 197.529541 
L 123.931934 204.552366 
L 124.126746 204.798673 
L 124.289089 204.693964 
L 124.646245 204.374787 
L 124.77612 204.579635 
L 124.938463 205.329932 
L 125.165744 207.537658 
L 125.5229 213.646429 
L 126.204743 225.525076 
L 126.399555 226.280757 
L 126.496961 226.05904 
L 126.691773 224.616892 
L 127.503491 217.090011 
L 127.600897 217.044 
L 127.633366 217.078042 
L 127.795709 217.574584 
L 128.087927 219.477842 
L 129.321738 228.752371 
L 129.484081 228.851572 
L 129.613956 228.614392 
L 129.873706 227.461925 
L 130.490611 224.562107 
L 130.652955 224.477956 
L 130.815298 224.712363 
L 131.107517 225.661234 
L 131.497141 227.679778 
L 131.821828 230.686742 
L 132.860826 242.453215 
L 132.893295 242.444057 
L 132.990701 242.217808 
L 133.185513 240.992507 
L 134.192043 233.138592 
L 134.386855 233.014943 
L 134.581668 233.170765 
L 134.873886 233.710125 
L 135.133636 234.673482 
L 135.393385 236.635022 
L 135.685603 240.707221 
L 136.140165 250.922655 
L 136.724602 262.964724 
L 136.951883 264.167908 
L 137.049289 263.901961 
L 137.244101 262.139477 
L 138.153225 251.570075 
L 138.2831 251.621089 
L 138.672724 252.245723 
L 138.705193 252.210404 
L 138.835068 251.808042 
L 139.062348 250.070749 
L 139.809129 243.298861 
L 139.906535 243.353861 
L 140.036409 243.89032 
L 140.296159 246.224968 
L 141.042939 253.642943 
L 141.27022 254.21624 
L 141.432564 254.188212 
L 141.919594 253.864637 
L 142.179344 254.200279 
L 142.374156 254.346134 
L 142.504031 254.135655 
L 142.666374 253.287117 
L 142.893655 250.727916 
L 143.250811 243.759577 
L 144.224872 223.571059 
L 144.549559 220.623819 
L 144.679434 220.423841 
L 144.77684 220.698171 
L 144.971652 222.324785 
L 145.328808 227.985429 
L 145.848307 235.419462 
L 146.108057 236.647125 
L 146.2704 236.751971 
L 146.789899 236.654511 
L 147.309399 237.168675 
L 147.471742 236.790334 
L 147.699023 235.496582 
L 148.478272 230.350407 
L 148.575678 230.409903 
L 148.77049 230.987466 
L 149.160115 232.172765 
L 149.257521 232.098696 
L 149.419864 231.445927 
L 149.647145 229.372115 
L 150.036769 223.196765 
L 151.173174 203.286077 
L 151.303049 202.961465 
L 151.335518 203.008649 
L 151.465392 203.758364 
L 151.660205 206.652969 
L 151.984892 215.731344 
L 152.731672 237.946864 
L 152.958953 239.88024 
L 153.02389 239.946063 
L 153.056359 239.907817 
L 153.186234 239.3418 
L 153.445983 236.816435 
L 154.257701 228.237912 
L 154.452513 227.778121 
L 154.549919 227.926635 
L 154.712262 228.729936 
L 155.069418 232.111672 
L 155.426574 234.602418 
L 155.491511 234.648881 
L 155.52398 234.612225 
L 155.653855 234.05801 
L 155.881136 231.653633 
L 157.114946 215.498097 
L 157.407165 214.251878 
L 157.504571 214.240763 
L 157.634446 214.645563 
L 157.829258 216.241972 
L 158.186414 221.664386 
L 158.673444 228.523541 
L 158.900725 229.409427 
L 158.998131 229.312104 
L 159.192943 228.565647 
L 159.582568 227.135529 
L 159.679974 227.218331 
L 159.842317 227.963397 
L 160.102067 230.747437 
L 160.654035 240.293833 
L 161.141065 246.790248 
L 161.465752 248.64289 
L 162.245001 251.645037 
L 162.991781 255.81277 
L 163.121656 255.817758 
L 163.284 255.381097 
L 163.543749 253.82024 
L 164.77756 245.079084 
L 164.874966 245.12266 
L 165.004841 245.508866 
L 165.232122 247.064847 
L 165.686684 252.299991 
L 166.238652 257.877332 
L 166.595807 259.62068 
L 166.888026 260.155387 
L 167.082838 260.176272 
L 167.27765 259.925607 
L 167.504931 259.211585 
L 167.829618 257.308865 
L 168.414054 253.824212 
L 168.511461 253.81086 
L 168.641335 254.23438 
L 168.836148 255.858455 
L 169.193303 261.240874 
L 169.810209 270.342052 
L 170.102427 271.913455 
L 170.232302 272.011965 
L 170.26477 271.987646 
L 170.427114 271.612507 
L 170.686864 270.280791 
L 171.076488 266.903861 
L 172.699923 250.793858 
L 173.02461 249.160338 
L 173.122016 249.156919 
L 173.251891 249.595347 
L 173.479172 251.561562 
L 174.420764 261.909932 
L 174.453233 261.906588 
L 174.550639 261.687554 
L 174.745451 260.399411 
L 175.135076 255.663087 
L 175.849387 247.25631 
L 176.174074 245.475269 
L 176.368886 245.253724 
L 176.498761 245.480411 
L 176.726042 246.563724 
L 177.115666 249.94115 
L 177.732572 255.168995 
L 177.959853 255.646659 
L 178.089728 255.41626 
L 178.317008 254.239268 
L 179.03132 249.961439 
L 179.128726 250.031893 
L 179.291069 250.660234 
L 179.583288 253.079569 
L 180.330068 259.643084 
L 180.557349 260.161777 
L 180.654755 260.092471 
L 180.817098 259.571178 
L 181.076848 257.684179 
L 181.498941 252.500196 
L 182.083378 245.950824 
L 182.408065 244.535328 
L 182.927564 243.034535 
L 183.28472 240.662979 
L 183.739282 237.978982 
L 183.869156 237.863538 
L 183.901625 237.895943 
L 184.0315 238.266112 
L 184.291249 239.923197 
L 184.77828 242.894243 
L 184.875686 242.935491 
L 184.908155 242.892832 
L 185.070498 242.278617 
L 185.427654 239.522611 
L 185.719872 237.94485 
L 185.817278 237.899057 
L 185.849747 237.947426 
L 185.979622 238.455752 
L 186.239372 240.730209 
L 187.27837 251.160301 
L 187.765401 254.027618 
L 187.927744 254.24445 
L 188.02515 254.090706 
L 188.187494 253.32385 
L 188.479712 250.502694 
L 189.486242 239.411212 
L 189.745991 238.788496 
L 189.875866 238.82929 
L 190.103147 239.257984 
L 190.882396 241.589487 
L 191.921394 245.179348 
L 192.311019 247.604382 
L 193.382486 254.90198 
L 193.77211 256.00959 
L 193.934454 256.06887 
L 194.064329 255.859806 
L 194.259141 255.034786 
L 194.551359 252.667845 
L 195.363077 245.44432 
L 195.557889 245.10281 
L 195.687764 245.252208 
L 195.915045 246.040389 
L 196.402075 247.788458 
L 196.53195 247.751245 
L 196.694293 247.247524 
L 196.986512 245.280575 
L 197.441074 242.378973 
L 197.53848 242.290505 
L 197.570948 242.322761 
L 197.700823 242.77268 
L 197.928104 244.717294 
L 199.161915 258.000214 
L 199.356727 258.282494 
L 199.486602 258.058744 
L 199.681414 257.036439 
L 199.973632 254.044422 
L 200.817819 244.458748 
L 201.045099 243.814223 
L 201.174974 243.877117 
L 201.369786 244.455196 
L 201.694473 246.326 
L 202.376316 250.397232 
L 202.53866 250.557874 
L 202.668534 250.324029 
L 202.895815 249.232539 
L 203.447783 246.411342 
L 203.545189 246.488244 
L 203.707533 247.217603 
L 203.967283 249.751607 
L 204.681594 257.301416 
L 204.876406 257.735985 
L 204.973812 257.636321 
L 205.136156 257.064714 
L 205.428374 255.07553 
L 206.305029 248.4394 
L 206.434904 248.341096 
L 206.564779 248.616003 
L 206.79206 249.821945 
L 207.246621 252.143145 
L 207.344027 252.055022 
L 207.473902 251.432383 
L 207.701183 249.010777 
L 208.480432 239.565743 
L 208.545369 239.519176 
L 208.577838 239.555029 
L 208.707713 240.069487 
L 208.967463 242.515474 
L 209.941524 253.087216 
L 210.396085 255.101388 
L 211.110397 258.0465 
L 212.376676 263.379538 
L 212.571488 263.588267 
L 212.701363 263.357855 
L 212.896175 262.376911 
L 213.253331 259.010681 
L 213.740362 254.848616 
L 213.902705 254.565084 
L 214.000111 254.76529 
L 214.162455 255.726846 
L 214.454673 259.195997 
L 215.428734 272.332967 
L 215.656015 272.872279 
L 215.78589 272.777425 
L 216.045639 272.107405 
L 216.53267 270.170253 
L 216.857357 267.871253 
L 217.214513 263.405812 
L 218.02623 252.552588 
L 218.156105 252.317561 
L 218.188574 252.355955 
L 218.318449 252.883498 
L 218.545729 255.03615 
L 219.519791 266.017171 
L 219.909415 267.285581 
L 220.363977 268.84833 
L 220.753601 270.034943 
L 220.883476 270.064051 
L 221.013351 269.816464 
L 221.240632 268.678921 
L 221.597787 265.406068 
L 223.091348 248.005158 
L 223.740722 235.125354 
L 224.260221 226.759645 
L 224.649845 223.612609 
L 225.007001 222.293081 
L 225.169345 222.162221 
L 225.299219 222.38081 
L 225.461563 223.209336 
L 225.688844 225.681138 
L 226.013531 231.992811 
L 227.084998 255.019735 
L 227.377216 257.037046 
L 227.507091 257.177952 
L 227.604497 256.957375 
L 227.766841 255.93798 
L 228.02659 252.602347 
L 228.481152 242.989072 
L 229.098057 230.859247 
L 229.422744 228.079536 
L 229.650025 227.56875 
L 229.7799 227.684135 
L 229.974712 228.295772 
L 230.331868 230.344907 
L 230.721493 232.257744 
L 230.818899 232.301035 
L 230.851367 232.255495 
L 230.981242 231.740576 
L 231.208523 229.540147 
L 231.987772 220.31473 
L 232.052709 220.390112 
L 232.182584 221.107351 
L 232.442334 224.33462 
L 233.156645 233.848102 
L 233.448863 235.060963 
L 233.643676 235.179671 
L 233.77355 234.98119 
L 233.968363 234.108985 
L 234.195644 231.630828 
L 234.422924 226.410217 
L 234.682674 214.899108 
L 234.974892 191.385028 
L 235.364517 139.742717 
L 235.981422 58.563564 
L 236.143766 54.144 
L 236.241172 56.647073 
L 236.403515 69.021806 
L 236.728202 115.520485 
L 237.345108 201.074322 
L 237.669795 218.472503 
L 237.864607 221.124524 
L 237.897076 221.164255 
L 237.929544 221.110746 
L 238.059419 220.11222 
L 238.319169 215.670065 
L 239.585448 191.4201 
L 240.267291 181.172666 
L 240.462103 180.367985 
L 240.559509 180.640204 
L 240.721853 182.252261 
L 240.981602 188.020108 
L 241.371227 203.155907 
L 242.410225 247.068352 
L 242.767381 252.976011 
L 243.02713 254.501318 
L 243.189474 254.66558 
L 243.319349 254.466495 
L 243.54663 253.530947 
L 244.001191 250.27533 
L 244.325878 248.66265 
L 244.423285 248.651938 
L 244.553159 249.107521 
L 244.747972 250.870317 
L 245.105127 256.863364 
L 245.722033 266.949806 
L 245.949313 268.076296 
L 246.04672 268.079933 
L 246.176594 267.721683 
L 246.436344 266.148488 
L 246.988312 261.103502 
L 248.222123 248.830152 
L 248.351997 248.860179 
L 248.54681 249.390814 
L 248.968903 250.638209 
L 249.066309 250.60797 
L 249.196184 250.272584 
L 249.423465 248.854858 
L 249.78062 244.900192 
L 251.111837 228.26715 
L 251.209243 228.515847 
L 251.371587 229.85379 
L 251.663805 234.823814 
L 252.572929 252.295051 
L 253.02749 255.732132 
L 253.514521 259.635048 
L 254.650925 271.685769 
L 255.365237 278.007235 
L 255.78733 280.113507 
L 256.014611 280.420736 
L 256.144486 280.266059 
L 256.339298 279.557801 
L 256.663985 277.264094 
L 257.573109 270.233742 
L 257.897796 269.378177 
L 258.417295 268.375046 
L 258.677044 267.026012 
L 259.0342 263.638501 
L 259.716043 257.004338 
L 259.845918 256.828688 
L 259.878386 256.87152 
L 260.008261 257.402539 
L 260.235542 259.665635 
L 260.657635 266.904716 
L 261.177134 274.68007 
L 261.404415 275.793361 
L 261.501821 275.78932 
L 261.631696 275.406175 
L 261.923915 273.532972 
L 262.605757 269.082995 
L 263.255131 265.24892 
L 263.872037 261.539632 
L 264.099318 261.17499 
L 264.229192 261.260824 
L 264.521411 261.870045 
L 264.78116 262.19291 
L 264.911035 262.062379 
L 265.105847 261.453836 
L 265.657815 259.564699 
L 265.755221 259.723397 
L 265.917565 260.508624 
L 266.242252 263.610512 
L 266.761751 268.319136 
L 266.956563 268.800581 
L 267.053969 268.741367 
L 267.216313 268.282098 
L 268.125437 264.902739 
L 268.28778 265.021011 
L 268.644936 265.728622 
L 269.099498 266.447227 
L 269.326778 266.475361 
L 269.521591 266.228842 
L 269.78134 265.42937 
L 270.657995 262.184875 
L 270.820339 262.28794 
L 271.080088 262.883071 
L 271.761931 265.241436 
L 272.184024 267.528808 
L 273.28796 274.197522 
L 273.482772 274.377738 
L 273.645116 274.207618 
L 273.937334 273.421676 
L 274.359427 272.44554 
L 274.586708 272.393461 
L 274.943864 272.403028 
L 275.106207 272.080691 
L 275.333488 271.051699 
L 275.78805 267.570102 
L 276.275081 264.463125 
L 276.53483 263.823648 
L 276.697174 263.834699 
L 276.859517 264.178878 
L 277.086798 265.253323 
L 277.443954 268.290058 
L 278.28814 276.08888 
L 278.482952 276.43143 
L 278.612827 276.281902 
L 278.872577 275.417828 
L 279.327139 273.973083 
L 280.073919 272.560526 
L 280.593418 270.931757 
L 280.690824 270.970994 
L 280.853167 271.426982 
L 281.145386 273.272196 
L 281.697354 276.684409 
L 281.892166 276.905789 
L 282.054509 276.719632 
L 282.671415 275.70103 
L 282.931164 275.80342 
L 283.28832 275.908374 
L 283.645476 275.662363 
L 283.872757 275.623559 
L 284.067569 275.831127 
L 284.619537 276.616086 
L 284.749412 276.418615 
L 284.976693 275.493862 
L 285.755941 271.579186 
L 285.853348 271.624633 
L 286.015691 272.056809 
L 286.307909 273.686651 
L 287.054689 278.184205 
L 287.249502 278.385398 
L 287.379376 278.128725 
L 287.574189 277.108817 
L 287.898876 273.864273 
L 289.002812 261.398783 
L 289.165155 261.142381 
L 289.262561 261.330906 
L 289.457373 262.481068 
L 289.814529 266.518751 
L 290.236622 270.629851 
L 290.398966 270.956296 
L 290.496372 270.741535 
L 290.691184 269.516996 
L 291.567839 262.650344 
L 291.860057 262.269333 
L 292.054869 261.936448 
L 292.28215 260.997003 
L 292.639306 258.285756 
L 293.126337 255.001525 
L 293.321149 254.694541 
L 293.451024 254.830728 
L 293.710773 255.613225 
L 294.197804 257.01561 
L 294.814709 258.101899 
L 295.106927 259.646971 
L 295.821239 263.751006 
L 296.113457 264.171971 
L 296.340738 264.58915 
L 296.568019 265.678093 
L 296.892706 268.597776 
L 297.574549 274.786888 
L 298.646016 281.577621 
L 299.003172 283.530229 
L 299.133046 283.704528 
L 299.165515 283.689317 
L 299.29539 283.371393 
L 299.490202 282.079909 
L 299.78242 278.392932 
L 300.691544 265.484922 
L 300.853888 265.104885 
L 300.886356 265.119809 
L 301.016231 265.447429 
L 301.275981 267.071157 
L 302.022761 272.288321 
L 302.28251 272.748044 
L 302.509791 272.712944 
L 302.737072 272.733785 
L 302.899416 273.056178 
L 303.126697 274.213116 
L 303.451384 277.373145 
L 304.328039 286.821181 
L 304.55532 287.44716 
L 304.652726 287.407019 
L 304.815069 286.964267 
L 305.074819 285.428567 
L 305.529381 281.038252 
L 306.243692 274.061597 
L 306.406036 273.68686 
L 306.438504 273.704249 
L 306.568379 274.092653 
L 306.79566 275.89115 
L 307.54244 282.772487 
L 307.639846 282.691659 
L 307.80219 281.844694 
L 308.094408 278.540709 
L 308.906126 268.453473 
L 309.133406 267.770441 
L 309.230813 267.901928 
L 309.393156 268.670043 
L 309.717843 271.748171 
L 310.237342 276.358322 
L 310.399686 276.672613 
L 310.432154 276.65776 
L 310.562029 276.366323 
L 310.821779 274.957147 
L 311.503622 269.514119 
L 312.05559 263.197273 
L 312.54262 258.364746 
L 312.769901 257.707127 
L 312.867307 257.788378 
L 313.029651 258.323618 
L 313.873837 262.005793 
L 313.906306 261.993442 
L 314.03618 261.786557 
L 314.29593 260.764145 
L 314.880367 258.377066 
L 315.010241 258.360413 
L 315.172585 258.697394 
L 315.464803 260.060975 
L 315.984302 262.399821 
L 316.114177 262.443917 
L 316.244052 262.124128 
L 316.438864 260.85334 
L 316.731083 257.052491 
L 317.315519 245.217298 
L 317.705144 239.498528 
L 317.932425 238.566944 
L 318.029831 238.686857 
L 318.224643 239.541469 
L 318.646736 241.442282 
L 318.744142 241.473007 
L 318.776611 241.439927 
L 318.938954 241.000071 
L 319.361047 239.589435 
L 319.393516 239.598832 
L 319.490922 239.815855 
L 319.653266 240.877394 
L 319.913015 244.326309 
L 320.887076 259.11407 
L 321.146826 260.202254 
L 321.276701 260.27143 
L 321.309169 260.2431 
L 321.471513 259.846021 
L 321.731263 258.454679 
L 322.413105 254.403724 
L 322.510511 254.391211 
L 322.640386 254.752046 
L 322.867667 256.390111 
L 323.776791 264.42974 
L 323.874197 264.28436 
L 324.03654 263.472005 
L 324.361227 260.3387 
L 325.010601 254.145612 
L 325.30282 253.103053 
L 325.952194 251.78493 
L 326.276881 249.704765 
L 326.861317 245.916517 
L 327.023661 245.752065 
L 327.153536 245.964426 
L 327.413285 247.002419 
L 327.900316 248.810406 
L 328.095128 248.929376 
L 328.28994 248.726692 
L 329.199064 247.283565 
L 329.231533 247.308688 
L 329.393876 247.596252 
L 329.653626 248.649436 
L 330.205594 252.298767 
L 330.692624 254.693181 
L 332.218653 259.663357 
L 332.738152 260.458294 
L 332.900496 260.464602 
L 333.062839 260.183674 
L 333.257652 259.290675 
L 333.517401 256.875513 
L 333.907026 250.639315 
L 334.621337 239.093408 
L 334.913555 237.350665 
L 335.173305 236.918883 
L 335.595398 236.508929 
L 335.920085 235.668161 
L 336.569459 233.923611 
L 336.861677 233.722946 
L 337.218833 233.52857 
L 337.511051 233.009342 
L 337.835738 232.538128 
L 337.965613 232.658519 
L 338.127957 233.213509 
L 338.387706 235.072684 
L 339.069549 242.467158 
L 339.653986 247.517778 
L 339.881267 248.086776 
L 339.978673 247.881522 
L 340.141016 246.833787 
L 340.400766 243.364349 
L 341.472233 226.401337 
L 341.699514 225.863576 
L 341.829389 226.003392 
L 342.089138 226.818301 
L 342.641106 228.536721 
L 343.452824 230.33648 
L 344.55676 233.857154 
L 344.719103 233.629337 
L 345.04379 232.546441 
L 345.336009 231.906656 
L 345.433415 231.997098 
L 345.595758 232.611772 
L 345.855508 234.756542 
L 346.894506 244.689513 
L 347.868567 251.556799 
L 347.933505 251.518442 
L 348.063379 251.123865 
L 348.355598 249.215369 
L 348.712753 247.286811 
L 348.842628 247.179542 
L 348.875097 247.207815 
L 349.03744 247.622079 
L 349.621877 249.517112 
L 349.751752 249.362156 
L 349.946564 248.607557 
L 350.271251 246.277075 
L 351.082969 240.125112 
L 351.180375 240.051296 
L 351.212843 240.081303 
L 351.342718 240.474382 
L 351.569999 242.073835 
L 352.251842 247.418729 
L 352.414185 247.606591 
L 352.54406 247.441544 
L 352.836279 246.522923 
L 353.225903 245.477956 
L 353.420715 245.387399 
L 353.583059 245.556931 
L 353.875277 246.297229 
L 354.719463 248.67193 
L 355.04415 249.639764 
L 355.336369 251.476742 
L 355.725993 255.694841 
L 356.53771 264.521413 
L 357.284491 271.389937 
L 357.901396 277.315553 
L 358.096208 277.728564 
L 358.193614 277.538388 
L 358.388426 276.401804 
L 358.745582 272.480503 
L 359.459894 264.759386 
L 359.817049 262.999261 
L 360.174205 262.279993 
L 360.596298 261.536798 
L 360.985923 260.208278 
L 361.375547 259.066765 
L 361.505422 259.075995 
L 361.635297 259.406292 
L 361.830109 260.595082 
L 362.154796 264.373137 
L 363.323669 280.135022 
L 363.615887 281.132178 
L 364.135387 282.247887 
L 364.427605 283.852952 
L 364.849698 287.766185 
L 366.180915 301.5114 
L 366.473133 302.341161 
L 366.732883 302.547527 
L 367.284851 302.550226 
L 367.609538 302.686622 
L 367.901756 303.074507 
L 368.258912 304.002684 
L 368.973223 305.973443 
L 369.168035 306.014401 
L 369.330379 305.781249 
L 369.590128 304.908062 
L 370.726533 300.247256 
L 371.116157 299.766241 
L 371.343438 298.877648 
L 371.668125 296.421055 
L 372.155156 292.823053 
L 372.285031 292.668947 
L 372.317499 292.709444 
L 372.447374 293.194345 
L 372.674655 295.16267 
L 373.746122 306.338925 
L 374.070809 307.219597 
L 374.395496 307.500786 
L 374.882527 307.578299 
L 378.55149 307.584 
L 398.487273 307.584 
L 398.487273 307.584 
" style="fill:none;stroke:#ff7f0e;stroke-linecap:square;stroke-width:1.5;"/>
   </g>
   <g id="patch_103">
    <path d="M 57.6 307.584 
L 57.6 41.472 
" style="fill:none;stroke:#000000;stroke-linecap:square;stroke-linejoin:miter;stroke-width:0.8;"/>
   </g>
   <g id="patch_104">
    <path d="M 414.72 307.584 
L 414.72 41.472 
" style="fill:none;stroke:#000000;stroke-linecap:square;stroke-linejoin:miter;stroke-width:0.8;"/>
   </g>
   <g id="patch_105">
    <path d="M 57.6 307.584 
L 414.72 307.584 
" style="fill:none;stroke:#000000;stroke-linecap:square;stroke-linejoin:miter;stroke-width:0.8;"/>
   </g>
   <g id="patch_106">
    <path d="M 57.6 41.472 
L 414.72 41.472 
" style="fill:none;stroke:#000000;stroke-linecap:square;stroke-linejoin:miter;stroke-width:0.8;"/>
   </g>
  </g>
 </g>
 <defs>
  <clipPath id="pb9c695ccc2">
   <rect height="266.112" width="357.12" x="57.6" y="41.472"/>
  </clipPath>
 </defs>
</svg>
