<?xml version="1.0" encoding="utf-8" standalone="no"?>
<!DOCTYPE svg PUBLIC "-//W3C//DTD SVG 1.1//EN"
  "http://www.w3.org/Graphics/SVG/1.1/DTD/svg11.dtd">
<!-- Created with matplotlib (https://matplotlib.org/) -->
<svg height="345.6pt" version="1.1" viewBox="0 0 460.8 345.6" width="460.8pt" xmlns="http://www.w3.org/2000/svg" xmlns:xlink="http://www.w3.org/1999/xlink">
 <defs>
  <style type="text/css">
*{stroke-linecap:butt;stroke-linejoin:round;}
  </style>
 </defs>
 <g id="figure_1">
  <g id="patch_1">
   <path d="M 0 345.6 
L 460.8 345.6 
L 460.8 0 
L 0 0 
z
" style="fill:#ffffff;"/>
  </g>
  <g id="axes_1">
   <g id="patch_2">
    <path d="M 57.6 307.584 
L 414.72 307.584 
L 414.72 41.472 
L 57.6 41.472 
z
" style="fill:#ffffff;"/>
   </g>
   <g id="patch_3">
    <path clip-path="url(#p342412acd1)" d="M 73.832727 307.584 
L 77.079267 307.584 
L 77.079267 306.907793 
L 73.832727 306.907793 
z
" style="fill:#1f77b4;"/>
   </g>
   <g id="patch_4">
    <path clip-path="url(#p342412acd1)" d="M 77.079267 307.584 
L 80.32582 307.584 
L 80.32582 306.637314 
L 77.079267 306.637314 
z
" style="fill:#1f77b4;"/>
   </g>
   <g id="patch_5">
    <path clip-path="url(#p342412acd1)" d="M 80.32582 307.584 
L 83.57236 307.584 
L 83.57236 306.502068 
L 80.32582 306.502068 
z
" style="fill:#1f77b4;"/>
   </g>
   <g id="patch_6">
    <path clip-path="url(#p342412acd1)" d="M 83.572373 307.584 
L 86.818927 307.584 
L 86.818927 306.366832 
L 83.572373 306.366832 
z
" style="fill:#1f77b4;"/>
   </g>
   <g id="patch_7">
    <path clip-path="url(#p342412acd1)" d="M 86.818913 307.584 
L 90.065452 307.584 
L 90.065452 307.043034 
L 86.818913 307.043034 
z
" style="fill:#1f77b4;"/>
   </g>
   <g id="patch_8">
    <path clip-path="url(#p342412acd1)" d="M 90.065452 307.584 
L 93.312006 307.584 
L 93.312006 306.502073 
L 90.065452 306.502073 
z
" style="fill:#1f77b4;"/>
   </g>
   <g id="patch_9">
    <path clip-path="url(#p342412acd1)" d="M 93.312006 307.584 
L 96.558545 307.584 
L 96.558545 305.420136 
L 93.312006 305.420136 
z
" style="fill:#1f77b4;"/>
   </g>
   <g id="patch_10">
    <path clip-path="url(#p342412acd1)" d="M 96.558545 307.584 
L 99.805085 307.584 
L 99.805085 305.825861 
L 96.558545 305.825861 
z
" style="fill:#1f77b4;"/>
   </g>
   <g id="patch_11">
    <path clip-path="url(#p342412acd1)" d="M 99.805099 307.584 
L 103.051652 307.584 
L 103.051652 306.09635 
L 99.805099 306.09635 
z
" style="fill:#1f77b4;"/>
   </g>
   <g id="patch_12">
    <path clip-path="url(#p342412acd1)" d="M 103.051638 307.584 
L 106.298178 307.584 
L 106.298178 305.961102 
L 103.051638 305.961102 
z
" style="fill:#1f77b4;"/>
   </g>
   <g id="patch_13">
    <path clip-path="url(#p342412acd1)" d="M 106.298178 307.584 
L 109.544731 307.584 
L 109.544731 303.391532 
L 106.298178 303.391532 
z
" style="fill:#1f77b4;"/>
   </g>
   <g id="patch_14">
    <path clip-path="url(#p342412acd1)" d="M 109.544731 307.584 
L 112.791271 307.584 
L 112.791271 304.338205 
L 109.544731 304.338205 
z
" style="fill:#1f77b4;"/>
   </g>
   <g id="patch_15">
    <path clip-path="url(#p342412acd1)" d="M 112.791284 307.584 
L 116.037837 307.584 
L 116.037837 305.825868 
L 112.791284 305.825868 
z
" style="fill:#1f77b4;"/>
   </g>
   <g id="patch_16">
    <path clip-path="url(#p342412acd1)" d="M 116.037824 307.584 
L 119.284363 307.584 
L 119.284363 304.879171 
L 116.037824 304.879171 
z
" style="fill:#1f77b4;"/>
   </g>
   <g id="patch_17">
    <path clip-path="url(#p342412acd1)" d="M 119.284363 307.584 
L 122.53091 307.584 
L 122.53091 303.797247 
L 119.284363 303.797247 
z
" style="fill:#1f77b4;"/>
   </g>
   <g id="patch_18">
    <path clip-path="url(#p342412acd1)" d="M 122.530917 307.584 
L 125.777463 307.584 
L 125.777463 302.9858 
L 122.530917 302.9858 
z
" style="fill:#1f77b4;"/>
   </g>
   <g id="patch_19">
    <path clip-path="url(#p342412acd1)" d="M 125.777456 307.584 
L 129.024003 307.584 
L 129.024003 299.875252 
L 125.777456 299.875252 
z
" style="fill:#1f77b4;"/>
   </g>
   <g id="patch_20">
    <path clip-path="url(#p342412acd1)" d="M 129.024003 307.584 
L 132.270542 307.584 
L 132.270542 300.28096 
L 129.024003 300.28096 
z
" style="fill:#1f77b4;"/>
   </g>
   <g id="patch_21">
    <path clip-path="url(#p342412acd1)" d="M 132.270549 307.584 
L 135.517095 307.584 
L 135.517095 299.063805 
L 132.270549 299.063805 
z
" style="fill:#1f77b4;"/>
   </g>
   <g id="patch_22">
    <path clip-path="url(#p342412acd1)" d="M 135.517089 307.584 
L 138.763635 307.584 
L 138.763635 299.60477 
L 135.517089 299.60477 
z
" style="fill:#1f77b4;"/>
   </g>
   <g id="patch_23">
    <path clip-path="url(#p342412acd1)" d="M 138.763642 307.584 
L 142.010188 307.584 
L 142.010188 297.440911 
L 138.763642 297.440911 
z
" style="fill:#1f77b4;"/>
   </g>
   <g id="patch_24">
    <path clip-path="url(#p342412acd1)" d="M 142.010181 307.584 
L 145.256728 307.584 
L 145.256728 297.846634 
L 142.010181 297.846634 
z
" style="fill:#1f77b4;"/>
   </g>
   <g id="patch_25">
    <path clip-path="url(#p342412acd1)" d="M 145.256735 307.584 
L 148.503281 307.584 
L 148.503281 298.793323 
L 145.256735 298.793323 
z
" style="fill:#1f77b4;"/>
   </g>
   <g id="patch_26">
    <path clip-path="url(#p342412acd1)" d="M 148.503274 307.584 
L 151.749821 307.584 
L 151.749821 296.358981 
L 148.503274 296.358981 
z
" style="fill:#1f77b4;"/>
   </g>
   <g id="patch_27">
    <path clip-path="url(#p342412acd1)" d="M 151.749827 307.584 
L 154.996374 307.584 
L 154.996374 293.92464 
L 151.749827 293.92464 
z
" style="fill:#1f77b4;"/>
   </g>
   <g id="patch_28">
    <path clip-path="url(#p342412acd1)" d="M 154.996367 307.584 
L 158.242907 307.584 
L 158.242907 291.625506 
L 154.996367 291.625506 
z
" style="fill:#1f77b4;"/>
   </g>
   <g id="patch_29">
    <path clip-path="url(#p342412acd1)" d="M 158.242907 307.584 
L 161.489453 307.584 
L 161.489453 293.654158 
L 158.242907 293.654158 
z
" style="fill:#1f77b4;"/>
   </g>
   <g id="patch_30">
    <path clip-path="url(#p342412acd1)" d="M 161.48946 307.584 
L 164.736006 307.584 
L 164.736006 294.600846 
L 161.48946 294.600846 
z
" style="fill:#1f77b4;"/>
   </g>
   <g id="patch_31">
    <path clip-path="url(#p342412acd1)" d="M 164.735999 307.584 
L 167.982546 307.584 
L 167.982546 292.301746 
L 164.735999 292.301746 
z
" style="fill:#1f77b4;"/>
   </g>
   <g id="patch_32">
    <path clip-path="url(#p342412acd1)" d="M 167.982553 307.584 
L 171.229099 307.584 
L 171.229099 289.732163 
L 167.982553 289.732163 
z
" style="fill:#1f77b4;"/>
   </g>
   <g id="patch_33">
    <path clip-path="url(#p342412acd1)" d="M 171.229092 307.584 
L 174.475639 307.584 
L 174.475639 286.486374 
L 171.229092 286.486374 
z
" style="fill:#1f77b4;"/>
   </g>
   <g id="patch_34">
    <path clip-path="url(#p342412acd1)" d="M 174.475639 307.584 
L 177.722182 307.584 
L 177.722182 285.404422 
L 174.475639 285.404422 
z
" style="fill:#1f77b4;"/>
   </g>
   <g id="patch_35">
    <path clip-path="url(#p342412acd1)" d="M 177.722182 307.584 
L 180.968728 307.584 
L 180.968728 288.920716 
L 177.722182 288.920716 
z
" style="fill:#1f77b4;"/>
   </g>
   <g id="patch_36">
    <path clip-path="url(#p342412acd1)" d="M 180.968732 307.584 
L 184.215275 307.584 
L 184.215275 287.703524 
L 180.968732 287.703524 
z
" style="fill:#1f77b4;"/>
   </g>
   <g id="patch_37">
    <path clip-path="url(#p342412acd1)" d="M 184.215271 307.584 
L 187.461817 307.584 
L 187.461817 289.867404 
L 184.215271 289.867404 
z
" style="fill:#1f77b4;"/>
   </g>
   <g id="patch_38">
    <path clip-path="url(#p342412acd1)" d="M 187.461817 307.584 
L 190.708364 307.584 
L 190.708364 287.297822 
L 187.461817 287.297822 
z
" style="fill:#1f77b4;"/>
   </g>
   <g id="patch_39">
    <path clip-path="url(#p342412acd1)" d="M 190.708364 307.584 
L 193.95491 307.584 
L 193.95491 279.724315 
L 190.708364 279.724315 
z
" style="fill:#1f77b4;"/>
   </g>
   <g id="patch_40">
    <path clip-path="url(#p342412acd1)" d="M 193.95491 307.584 
L 197.201453 307.584 
L 197.201453 285.674904 
L 193.95491 285.674904 
z
" style="fill:#1f77b4;"/>
   </g>
   <g id="patch_41">
    <path clip-path="url(#p342412acd1)" d="M 197.201453 307.584 
L 200.448 307.584 
L 200.448 277.019491 
L 197.201453 277.019491 
z
" style="fill:#1f77b4;"/>
   </g>
   <g id="patch_42">
    <path clip-path="url(#p342412acd1)" d="M 200.448 307.584 
L 203.694546 307.584 
L 203.694546 268.499296 
L 200.448 268.499296 
z
" style="fill:#1f77b4;"/>
   </g>
   <g id="patch_43">
    <path clip-path="url(#p342412acd1)" d="M 203.694546 307.584 
L 206.941091 307.584 
L 206.941091 272.826996 
L 203.694546 272.826996 
z
" style="fill:#1f77b4;"/>
   </g>
   <g id="patch_44">
    <path clip-path="url(#p342412acd1)" d="M 206.941089 307.584 
L 210.187634 307.584 
L 210.187634 271.745066 
L 206.941089 271.745066 
z
" style="fill:#1f77b4;"/>
   </g>
   <g id="patch_45">
    <path clip-path="url(#p342412acd1)" d="M 210.187636 307.584 
L 213.434182 307.584 
L 213.434182 262.413443 
L 210.187636 262.413443 
z
" style="fill:#1f77b4;"/>
   </g>
   <g id="patch_46">
    <path clip-path="url(#p342412acd1)" d="M 213.434182 307.584 
L 216.680727 307.584 
L 216.680727 238.88144 
L 213.434182 238.88144 
z
" style="fill:#1f77b4;"/>
   </g>
   <g id="patch_47">
    <path clip-path="url(#p342412acd1)" d="M 216.680727 307.584 
L 219.927273 307.584 
L 219.927273 229.414593 
L 216.680727 229.414593 
z
" style="fill:#1f77b4;"/>
   </g>
   <g id="patch_48">
    <path clip-path="url(#p342412acd1)" d="M 219.927273 307.584 
L 223.173818 307.584 
L 223.173818 224.410625 
L 219.927273 224.410625 
z
" style="fill:#1f77b4;"/>
   </g>
   <g id="patch_49">
    <path clip-path="url(#p342412acd1)" d="M 223.173818 307.584 
L 226.420364 307.584 
L 226.420364 201.825376 
L 223.173818 201.825376 
z
" style="fill:#1f77b4;"/>
   </g>
   <g id="patch_50">
    <path clip-path="url(#p342412acd1)" d="M 226.420364 307.584 
L 229.666909 307.584 
L 229.666909 165.851187 
L 226.420364 165.851187 
z
" style="fill:#1f77b4;"/>
   </g>
   <g id="patch_51">
    <path clip-path="url(#p342412acd1)" d="M 229.666909 307.584 
L 232.913455 307.584 
L 232.913455 159.6301 
L 229.666909 159.6301 
z
" style="fill:#1f77b4;"/>
   </g>
   <g id="patch_52">
    <path clip-path="url(#p342412acd1)" d="M 232.913455 307.584 
L 236.16 307.584 
L 236.16 110.267053 
L 232.913455 110.267053 
z
" style="fill:#1f77b4;"/>
   </g>
   <g id="patch_53">
    <path clip-path="url(#p342412acd1)" d="M 236.16 307.584 
L 239.406546 307.584 
L 239.406546 144.753565 
L 236.16 144.753565 
z
" style="fill:#1f77b4;"/>
   </g>
   <g id="patch_54">
    <path clip-path="url(#p342412acd1)" d="M 239.406545 307.584 
L 242.653091 307.584 
L 242.653091 180.727731 
L 239.406545 180.727731 
z
" style="fill:#1f77b4;"/>
   </g>
   <g id="patch_55">
    <path clip-path="url(#p342412acd1)" d="M 242.653091 307.584 
L 245.899637 307.584 
L 245.899637 223.463958 
L 242.653091 223.463958 
z
" style="fill:#1f77b4;"/>
   </g>
   <g id="patch_56">
    <path clip-path="url(#p342412acd1)" d="M 245.899636 307.584 
L 249.146182 307.584 
L 249.146182 245.643519 
L 245.899636 245.643519 
z
" style="fill:#1f77b4;"/>
   </g>
   <g id="patch_57">
    <path clip-path="url(#p342412acd1)" d="M 249.146182 307.584 
L 252.392727 307.584 
L 252.392727 269.98693 
L 249.146182 269.98693 
z
" style="fill:#1f77b4;"/>
   </g>
   <g id="patch_58">
    <path clip-path="url(#p342412acd1)" d="M 252.392727 307.584 
L 255.639273 307.584 
L 255.639273 279.318591 
L 252.392727 279.318591 
z
" style="fill:#1f77b4;"/>
   </g>
   <g id="patch_59">
    <path clip-path="url(#p342412acd1)" d="M 255.639272 307.584 
L 258.885816 307.584 
L 258.885816 281.752919 
L 255.639272 281.752919 
z
" style="fill:#1f77b4;"/>
   </g>
   <g id="patch_60">
    <path clip-path="url(#p342412acd1)" d="M 258.885818 307.584 
L 262.132364 307.584 
L 262.132364 274.58515 
L 258.885818 274.58515 
z
" style="fill:#1f77b4;"/>
   </g>
   <g id="patch_61">
    <path clip-path="url(#p342412acd1)" d="M 262.132364 307.584 
L 265.378907 307.584 
L 265.378907 276.343252 
L 262.132364 276.343252 
z
" style="fill:#1f77b4;"/>
   </g>
   <g id="patch_62">
    <path clip-path="url(#p342412acd1)" d="M 265.378907 307.584 
L 268.625454 307.584 
L 268.625454 274.179426 
L 265.378907 274.179426 
z
" style="fill:#1f77b4;"/>
   </g>
   <g id="patch_63">
    <path clip-path="url(#p342412acd1)" d="M 268.625454 307.584 
L 271.872 307.584 
L 271.872 278.777627 
L 268.625454 278.777627 
z
" style="fill:#1f77b4;"/>
   </g>
   <g id="patch_64">
    <path clip-path="url(#p342412acd1)" d="M 271.872 307.584 
L 275.118547 307.584 
L 275.118547 277.154732 
L 271.872 277.154732 
z
" style="fill:#1f77b4;"/>
   </g>
   <g id="patch_65">
    <path clip-path="url(#p342412acd1)" d="M 275.11855 307.584 
L 278.365093 307.584 
L 278.365093 283.24056 
L 275.11855 283.24056 
z
" style="fill:#1f77b4;"/>
   </g>
   <g id="patch_66">
    <path clip-path="url(#p342412acd1)" d="M 278.36509 307.584 
L 281.611636 307.584 
L 281.611636 282.56438 
L 278.36509 282.56438 
z
" style="fill:#1f77b4;"/>
   </g>
   <g id="patch_67">
    <path clip-path="url(#p342412acd1)" d="M 281.611636 307.584 
L 284.858183 307.584 
L 284.858183 282.699621 
L 281.611636 282.699621 
z
" style="fill:#1f77b4;"/>
   </g>
   <g id="patch_68">
    <path clip-path="url(#p342412acd1)" d="M 284.858183 307.584 
L 288.104729 307.584 
L 288.104729 290.273128 
L 284.858183 290.273128 
z
" style="fill:#1f77b4;"/>
   </g>
   <g id="patch_69">
    <path clip-path="url(#p342412acd1)" d="M 288.104729 307.584 
L 291.351275 307.584 
L 291.351275 284.998721 
L 288.104729 284.998721 
z
" style="fill:#1f77b4;"/>
   </g>
   <g id="patch_70">
    <path clip-path="url(#p342412acd1)" d="M 291.351275 307.584 
L 294.597815 307.584 
L 294.597815 292.436955 
L 291.351275 292.436955 
z
" style="fill:#1f77b4;"/>
   </g>
   <g id="patch_71">
    <path clip-path="url(#p342412acd1)" d="M 294.597815 307.584 
L 297.844361 307.584 
L 297.844361 295.141811 
L 294.597815 295.141811 
z
" style="fill:#1f77b4;"/>
   </g>
   <g id="patch_72">
    <path clip-path="url(#p342412acd1)" d="M 297.844368 307.584 
L 301.090915 307.584 
L 301.090915 296.22374 
L 297.844368 296.22374 
z
" style="fill:#1f77b4;"/>
   </g>
   <g id="patch_73">
    <path clip-path="url(#p342412acd1)" d="M 301.090908 307.584 
L 304.337454 307.584 
L 304.337454 299.875252 
L 301.090908 299.875252 
z
" style="fill:#1f77b4;"/>
   </g>
   <g id="patch_74">
    <path clip-path="url(#p342412acd1)" d="M 304.337461 307.584 
L 307.584007 307.584 
L 307.584007 299.199046 
L 304.337461 299.199046 
z
" style="fill:#1f77b4;"/>
   </g>
   <g id="patch_75">
    <path clip-path="url(#p342412acd1)" d="M 307.584001 307.584 
L 310.830547 307.584 
L 310.830547 298.117117 
L 307.584001 298.117117 
z
" style="fill:#1f77b4;"/>
   </g>
   <g id="patch_76">
    <path clip-path="url(#p342412acd1)" d="M 310.830554 307.584 
L 314.0771 307.584 
L 314.0771 300.551458 
L 310.830554 300.551458 
z
" style="fill:#1f77b4;"/>
   </g>
   <g id="patch_77">
    <path clip-path="url(#p342412acd1)" d="M 314.077093 307.584 
L 317.323633 307.584 
L 317.323633 296.629441 
L 314.077093 296.629441 
z
" style="fill:#1f77b4;"/>
   </g>
   <g id="patch_78">
    <path clip-path="url(#p342412acd1)" d="M 317.323633 307.584 
L 320.570179 307.584 
L 320.570179 292.84271 
L 317.323633 292.84271 
z
" style="fill:#1f77b4;"/>
   </g>
   <g id="patch_79">
    <path clip-path="url(#p342412acd1)" d="M 320.570186 307.584 
L 323.816733 307.584 
L 323.816733 297.035187 
L 320.570186 297.035187 
z
" style="fill:#1f77b4;"/>
   </g>
   <g id="patch_80">
    <path clip-path="url(#p342412acd1)" d="M 323.816726 307.584 
L 327.063272 307.584 
L 327.063272 297.576152 
L 323.816726 297.576152 
z
" style="fill:#1f77b4;"/>
   </g>
   <g id="patch_81">
    <path clip-path="url(#p342412acd1)" d="M 327.063279 307.584 
L 330.309825 307.584 
L 330.309825 299.875252 
L 327.063279 299.875252 
z
" style="fill:#1f77b4;"/>
   </g>
   <g id="patch_82">
    <path clip-path="url(#p342412acd1)" d="M 330.309819 307.584 
L 333.556365 307.584 
L 333.556365 300.551458 
L 330.309819 300.551458 
z
" style="fill:#1f77b4;"/>
   </g>
   <g id="patch_83">
    <path clip-path="url(#p342412acd1)" d="M 333.556372 307.584 
L 336.802918 307.584 
L 336.802918 298.658082 
L 333.556372 298.658082 
z
" style="fill:#1f77b4;"/>
   </g>
   <g id="patch_84">
    <path clip-path="url(#p342412acd1)" d="M 336.802911 307.584 
L 340.049458 307.584 
L 340.049458 299.740011 
L 336.802911 299.740011 
z
" style="fill:#1f77b4;"/>
   </g>
   <g id="patch_85">
    <path clip-path="url(#p342412acd1)" d="M 340.049458 307.584 
L 343.295997 307.584 
L 343.295997 300.957168 
L 340.049458 300.957168 
z
" style="fill:#1f77b4;"/>
   </g>
   <g id="patch_86">
    <path clip-path="url(#p342412acd1)" d="M 343.296004 307.584 
L 346.542551 307.584 
L 346.542551 301.768629 
L 343.296004 301.768629 
z
" style="fill:#1f77b4;"/>
   </g>
   <g id="patch_87">
    <path clip-path="url(#p342412acd1)" d="M 346.542537 307.584 
L 349.789083 307.584 
L 349.789083 304.879182 
L 346.542537 304.879182 
z
" style="fill:#1f77b4;"/>
   </g>
   <g id="patch_88">
    <path clip-path="url(#p342412acd1)" d="M 349.789097 307.584 
L 353.035637 307.584 
L 353.035637 304.879171 
L 349.789097 304.879171 
z
" style="fill:#1f77b4;"/>
   </g>
   <g id="patch_89">
    <path clip-path="url(#p342412acd1)" d="M 353.035637 307.584 
L 356.282176 307.584 
L 356.282176 303.661997 
L 353.035637 303.661997 
z
" style="fill:#1f77b4;"/>
   </g>
   <g id="patch_90">
    <path clip-path="url(#p342412acd1)" d="M 356.28219 307.584 
L 359.528743 307.584 
L 359.528743 303.256291 
L 356.28219 303.256291 
z
" style="fill:#1f77b4;"/>
   </g>
   <g id="patch_91">
    <path clip-path="url(#p342412acd1)" d="M 359.528729 307.584 
L 362.775269 307.584 
L 362.775269 304.338205 
L 359.528729 304.338205 
z
" style="fill:#1f77b4;"/>
   </g>
   <g id="patch_92">
    <path clip-path="url(#p342412acd1)" d="M 362.775269 307.584 
L 366.021822 307.584 
L 366.021822 305.149664 
L 362.775269 305.149664 
z
" style="fill:#1f77b4;"/>
   </g>
   <g id="patch_93">
    <path clip-path="url(#p342412acd1)" d="M 366.021822 307.584 
L 369.268362 307.584 
L 369.268362 305.149653 
L 366.021822 305.149653 
z
" style="fill:#1f77b4;"/>
   </g>
   <g id="patch_94">
    <path clip-path="url(#p342412acd1)" d="M 369.268376 307.584 
L 372.514929 307.584 
L 372.514929 306.231591 
L 369.268376 306.231591 
z
" style="fill:#1f77b4;"/>
   </g>
   <g id="patch_95">
    <path clip-path="url(#p342412acd1)" d="M 372.514915 307.584 
L 375.761455 307.584 
L 375.761455 306.502068 
L 372.514915 306.502068 
z
" style="fill:#1f77b4;"/>
   </g>
   <g id="patch_96">
    <path clip-path="url(#p342412acd1)" d="M 375.761455 307.584 
L 379.007994 307.584 
L 379.007994 305.420136 
L 375.761455 305.420136 
z
" style="fill:#1f77b4;"/>
   </g>
   <g id="patch_97">
    <path clip-path="url(#p342412acd1)" d="M 379.007994 307.584 
L 382.254548 307.584 
L 382.254548 306.366832 
L 379.007994 306.366832 
z
" style="fill:#1f77b4;"/>
   </g>
   <g id="patch_98">
    <path clip-path="url(#p342412acd1)" d="M 382.254548 307.584 
L 385.501087 307.584 
L 385.501087 306.502068 
L 382.254548 306.502068 
z
" style="fill:#1f77b4;"/>
   </g>
   <g id="patch_99">
    <path clip-path="url(#p342412acd1)" d="M 385.501101 307.584 
L 388.747654 307.584 
L 388.747654 305.690627 
L 385.501101 305.690627 
z
" style="fill:#1f77b4;"/>
   </g>
   <g id="patch_100">
    <path clip-path="url(#p342412acd1)" d="M 388.74764 307.584 
L 391.99418 307.584 
L 391.99418 306.096344 
L 388.74764 306.096344 
z
" style="fill:#1f77b4;"/>
   </g>
   <g id="patch_101">
    <path clip-path="url(#p342412acd1)" d="M 391.99418 307.584 
L 395.240733 307.584 
L 395.240733 305.961109 
L 391.99418 305.961109 
z
" style="fill:#1f77b4;"/>
   </g>
   <g id="patch_102">
    <path clip-path="url(#p342412acd1)" d="M 395.240733 307.584 
L 398.487273 307.584 
L 398.487273 306.502068 
L 395.240733 306.502068 
z
" style="fill:#1f77b4;"/>
   </g>
   <g id="matplotlib.axis_1">
    <g id="xtick_1">
     <g id="line2d_1">
      <defs>
       <path d="M 0 0 
L 0 3.5 
" id="mf31769a0c7" style="stroke:#000000;stroke-width:0.8;"/>
      </defs>
      <g>
       <use style="stroke:#000000;stroke-width:0.8;" x="60.868508" xlink:href="#mf31769a0c7" y="307.584"/>
      </g>
     </g>
     <g id="text_1">
      <!-- −3 -->
      <defs>
       <path d="M 10.59375 35.5 
L 73.1875 35.5 
L 73.1875 27.203125 
L 10.59375 27.203125 
z
" id="DejaVuSans-8722"/>
       <path d="M 40.578125 39.3125 
Q 47.65625 37.796875 51.625 33 
Q 55.609375 28.21875 55.609375 21.1875 
Q 55.609375 10.40625 48.1875 4.484375 
Q 40.765625 -1.421875 27.09375 -1.421875 
Q 22.515625 -1.421875 17.65625 -0.515625 
Q 12.796875 0.390625 7.625 2.203125 
L 7.625 11.71875 
Q 11.71875 9.328125 16.59375 8.109375 
Q 21.484375 6.890625 26.8125 6.890625 
Q 36.078125 6.890625 40.9375 10.546875 
Q 45.796875 14.203125 45.796875 21.1875 
Q 45.796875 27.640625 41.28125 31.265625 
Q 36.765625 34.90625 28.71875 34.90625 
L 20.21875 34.90625 
L 20.21875 43.015625 
L 29.109375 43.015625 
Q 36.375 43.015625 40.234375 45.921875 
Q 44.09375 48.828125 44.09375 54.296875 
Q 44.09375 59.90625 40.109375 62.90625 
Q 36.140625 65.921875 28.71875 65.921875 
Q 24.65625 65.921875 20.015625 65.03125 
Q 15.375 64.15625 9.8125 62.3125 
L 9.8125 71.09375 
Q 15.4375 72.65625 20.34375 73.4375 
Q 25.25 74.21875 29.59375 74.21875 
Q 40.828125 74.21875 47.359375 69.109375 
Q 53.90625 64.015625 53.90625 55.328125 
Q 53.90625 49.265625 50.4375 45.09375 
Q 46.96875 40.921875 40.578125 39.3125 
z
" id="DejaVuSans-51"/>
      </defs>
      <g transform="translate(48.337649 327.501344)scale(0.17 -0.17)">
       <use xlink:href="#DejaVuSans-8722"/>
       <use x="83.789062" xlink:href="#DejaVuSans-51"/>
      </g>
     </g>
    </g>
    <g id="xtick_2">
     <g id="line2d_2">
      <g>
       <use style="stroke:#000000;stroke-width:0.8;" x="118.308583" xlink:href="#mf31769a0c7" y="307.584"/>
      </g>
     </g>
     <g id="text_2">
      <!-- −2 -->
      <defs>
       <path d="M 19.1875 8.296875 
L 53.609375 8.296875 
L 53.609375 0 
L 7.328125 0 
L 7.328125 8.296875 
Q 12.9375 14.109375 22.625 23.890625 
Q 32.328125 33.6875 34.8125 36.53125 
Q 39.546875 41.84375 41.421875 45.53125 
Q 43.3125 49.21875 43.3125 52.78125 
Q 43.3125 58.59375 39.234375 62.25 
Q 35.15625 65.921875 28.609375 65.921875 
Q 23.96875 65.921875 18.8125 64.3125 
Q 13.671875 62.703125 7.8125 59.421875 
L 7.8125 69.390625 
Q 13.765625 71.78125 18.9375 73 
Q 24.125 74.21875 28.421875 74.21875 
Q 39.75 74.21875 46.484375 68.546875 
Q 53.21875 62.890625 53.21875 53.421875 
Q 53.21875 48.921875 51.53125 44.890625 
Q 49.859375 40.875 45.40625 35.40625 
Q 44.1875 33.984375 37.640625 27.21875 
Q 31.109375 20.453125 19.1875 8.296875 
z
" id="DejaVuSans-50"/>
      </defs>
      <g transform="translate(105.777723 327.501344)scale(0.17 -0.17)">
       <use xlink:href="#DejaVuSans-8722"/>
       <use x="83.789062" xlink:href="#DejaVuSans-50"/>
      </g>
     </g>
    </g>
    <g id="xtick_3">
     <g id="line2d_3">
      <g>
       <use style="stroke:#000000;stroke-width:0.8;" x="175.748658" xlink:href="#mf31769a0c7" y="307.584"/>
      </g>
     </g>
     <g id="text_3">
      <!-- −1 -->
      <defs>
       <path d="M 12.40625 8.296875 
L 28.515625 8.296875 
L 28.515625 63.921875 
L 10.984375 60.40625 
L 10.984375 69.390625 
L 28.421875 72.90625 
L 38.28125 72.90625 
L 38.28125 8.296875 
L 54.390625 8.296875 
L 54.390625 0 
L 12.40625 0 
z
" id="DejaVuSans-49"/>
      </defs>
      <g transform="translate(163.217798 327.501344)scale(0.17 -0.17)">
       <use xlink:href="#DejaVuSans-8722"/>
       <use x="83.789062" xlink:href="#DejaVuSans-49"/>
      </g>
     </g>
    </g>
    <g id="xtick_4">
     <g id="line2d_4">
      <g>
       <use style="stroke:#000000;stroke-width:0.8;" x="233.188732" xlink:href="#mf31769a0c7" y="307.584"/>
      </g>
     </g>
     <g id="text_4">
      <!-- 0 -->
      <defs>
       <path d="M 31.78125 66.40625 
Q 24.171875 66.40625 20.328125 58.90625 
Q 16.5 51.421875 16.5 36.375 
Q 16.5 21.390625 20.328125 13.890625 
Q 24.171875 6.390625 31.78125 6.390625 
Q 39.453125 6.390625 43.28125 13.890625 
Q 47.125 21.390625 47.125 36.375 
Q 47.125 51.421875 43.28125 58.90625 
Q 39.453125 66.40625 31.78125 66.40625 
z
M 31.78125 74.21875 
Q 44.046875 74.21875 50.515625 64.515625 
Q 56.984375 54.828125 56.984375 36.375 
Q 56.984375 17.96875 50.515625 8.265625 
Q 44.046875 -1.421875 31.78125 -1.421875 
Q 19.53125 -1.421875 13.0625 8.265625 
Q 6.59375 17.96875 6.59375 36.375 
Q 6.59375 54.828125 13.0625 64.515625 
Q 19.53125 74.21875 31.78125 74.21875 
z
" id="DejaVuSans-48"/>
      </defs>
      <g transform="translate(227.780607 327.501344)scale(0.17 -0.17)">
       <use xlink:href="#DejaVuSans-48"/>
      </g>
     </g>
    </g>
    <g id="xtick_5">
     <g id="line2d_5">
      <g>
       <use style="stroke:#000000;stroke-width:0.8;" x="290.628807" xlink:href="#mf31769a0c7" y="307.584"/>
      </g>
     </g>
     <g id="text_5">
      <!-- 1 -->
      <g transform="translate(285.220682 327.501344)scale(0.17 -0.17)">
       <use xlink:href="#DejaVuSans-49"/>
      </g>
     </g>
    </g>
    <g id="xtick_6">
     <g id="line2d_6">
      <g>
       <use style="stroke:#000000;stroke-width:0.8;" x="348.068882" xlink:href="#mf31769a0c7" y="307.584"/>
      </g>
     </g>
     <g id="text_6">
      <!-- 2 -->
      <g transform="translate(342.660757 327.501344)scale(0.17 -0.17)">
       <use xlink:href="#DejaVuSans-50"/>
      </g>
     </g>
    </g>
    <g id="xtick_7">
     <g id="line2d_7">
      <g>
       <use style="stroke:#000000;stroke-width:0.8;" x="405.508957" xlink:href="#mf31769a0c7" y="307.584"/>
      </g>
     </g>
     <g id="text_7">
      <!-- 3 -->
      <g transform="translate(400.100832 327.501344)scale(0.17 -0.17)">
       <use xlink:href="#DejaVuSans-51"/>
      </g>
     </g>
    </g>
    <g id="text_8">
     <!-- Position in Radian -->
     <defs>
      <path d="M 19.671875 64.796875 
L 19.671875 37.40625 
L 32.078125 37.40625 
Q 38.96875 37.40625 42.71875 40.96875 
Q 46.484375 44.53125 46.484375 51.125 
Q 46.484375 57.671875 42.71875 61.234375 
Q 38.96875 64.796875 32.078125 64.796875 
z
M 9.8125 72.90625 
L 32.078125 72.90625 
Q 44.34375 72.90625 50.609375 67.359375 
Q 56.890625 61.8125 56.890625 51.125 
Q 56.890625 40.328125 50.609375 34.8125 
Q 44.34375 29.296875 32.078125 29.296875 
L 19.671875 29.296875 
L 19.671875 0 
L 9.8125 0 
z
" id="DejaVuSans-80"/>
      <path d="M 30.609375 48.390625 
Q 23.390625 48.390625 19.1875 42.75 
Q 14.984375 37.109375 14.984375 27.296875 
Q 14.984375 17.484375 19.15625 11.84375 
Q 23.34375 6.203125 30.609375 6.203125 
Q 37.796875 6.203125 41.984375 11.859375 
Q 46.1875 17.53125 46.1875 27.296875 
Q 46.1875 37.015625 41.984375 42.703125 
Q 37.796875 48.390625 30.609375 48.390625 
z
M 30.609375 56 
Q 42.328125 56 49.015625 48.375 
Q 55.71875 40.765625 55.71875 27.296875 
Q 55.71875 13.875 49.015625 6.21875 
Q 42.328125 -1.421875 30.609375 -1.421875 
Q 18.84375 -1.421875 12.171875 6.21875 
Q 5.515625 13.875 5.515625 27.296875 
Q 5.515625 40.765625 12.171875 48.375 
Q 18.84375 56 30.609375 56 
z
" id="DejaVuSans-111"/>
      <path d="M 44.28125 53.078125 
L 44.28125 44.578125 
Q 40.484375 46.53125 36.375 47.5 
Q 32.28125 48.484375 27.875 48.484375 
Q 21.1875 48.484375 17.84375 46.4375 
Q 14.5 44.390625 14.5 40.28125 
Q 14.5 37.15625 16.890625 35.375 
Q 19.28125 33.59375 26.515625 31.984375 
L 29.59375 31.296875 
Q 39.15625 29.25 43.1875 25.515625 
Q 47.21875 21.78125 47.21875 15.09375 
Q 47.21875 7.46875 41.1875 3.015625 
Q 35.15625 -1.421875 24.609375 -1.421875 
Q 20.21875 -1.421875 15.453125 -0.5625 
Q 10.6875 0.296875 5.421875 2 
L 5.421875 11.28125 
Q 10.40625 8.6875 15.234375 7.390625 
Q 20.0625 6.109375 24.8125 6.109375 
Q 31.15625 6.109375 34.5625 8.28125 
Q 37.984375 10.453125 37.984375 14.40625 
Q 37.984375 18.0625 35.515625 20.015625 
Q 33.0625 21.96875 24.703125 23.78125 
L 21.578125 24.515625 
Q 13.234375 26.265625 9.515625 29.90625 
Q 5.8125 33.546875 5.8125 39.890625 
Q 5.8125 47.609375 11.28125 51.796875 
Q 16.75 56 26.8125 56 
Q 31.78125 56 36.171875 55.265625 
Q 40.578125 54.546875 44.28125 53.078125 
z
" id="DejaVuSans-115"/>
      <path d="M 9.421875 54.6875 
L 18.40625 54.6875 
L 18.40625 0 
L 9.421875 0 
z
M 9.421875 75.984375 
L 18.40625 75.984375 
L 18.40625 64.59375 
L 9.421875 64.59375 
z
" id="DejaVuSans-105"/>
      <path d="M 18.3125 70.21875 
L 18.3125 54.6875 
L 36.8125 54.6875 
L 36.8125 47.703125 
L 18.3125 47.703125 
L 18.3125 18.015625 
Q 18.3125 11.328125 20.140625 9.421875 
Q 21.96875 7.515625 27.59375 7.515625 
L 36.8125 7.515625 
L 36.8125 0 
L 27.59375 0 
Q 17.1875 0 13.234375 3.875 
Q 9.28125 7.765625 9.28125 18.015625 
L 9.28125 47.703125 
L 2.6875 47.703125 
L 2.6875 54.6875 
L 9.28125 54.6875 
L 9.28125 70.21875 
z
" id="DejaVuSans-116"/>
      <path d="M 54.890625 33.015625 
L 54.890625 0 
L 45.90625 0 
L 45.90625 32.71875 
Q 45.90625 40.484375 42.875 44.328125 
Q 39.84375 48.1875 33.796875 48.1875 
Q 26.515625 48.1875 22.3125 43.546875 
Q 18.109375 38.921875 18.109375 30.90625 
L 18.109375 0 
L 9.078125 0 
L 9.078125 54.6875 
L 18.109375 54.6875 
L 18.109375 46.1875 
Q 21.34375 51.125 25.703125 53.5625 
Q 30.078125 56 35.796875 56 
Q 45.21875 56 50.046875 50.171875 
Q 54.890625 44.34375 54.890625 33.015625 
z
" id="DejaVuSans-110"/>
      <path id="DejaVuSans-32"/>
      <path d="M 44.390625 34.1875 
Q 47.5625 33.109375 50.5625 29.59375 
Q 53.5625 26.078125 56.59375 19.921875 
L 66.609375 0 
L 56 0 
L 46.6875 18.703125 
Q 43.0625 26.03125 39.671875 28.421875 
Q 36.28125 30.8125 30.421875 30.8125 
L 19.671875 30.8125 
L 19.671875 0 
L 9.8125 0 
L 9.8125 72.90625 
L 32.078125 72.90625 
Q 44.578125 72.90625 50.734375 67.671875 
Q 56.890625 62.453125 56.890625 51.90625 
Q 56.890625 45.015625 53.6875 40.46875 
Q 50.484375 35.9375 44.390625 34.1875 
z
M 19.671875 64.796875 
L 19.671875 38.921875 
L 32.078125 38.921875 
Q 39.203125 38.921875 42.84375 42.21875 
Q 46.484375 45.515625 46.484375 51.90625 
Q 46.484375 58.296875 42.84375 61.546875 
Q 39.203125 64.796875 32.078125 64.796875 
z
" id="DejaVuSans-82"/>
      <path d="M 34.28125 27.484375 
Q 23.390625 27.484375 19.1875 25 
Q 14.984375 22.515625 14.984375 16.5 
Q 14.984375 11.71875 18.140625 8.90625 
Q 21.296875 6.109375 26.703125 6.109375 
Q 34.1875 6.109375 38.703125 11.40625 
Q 43.21875 16.703125 43.21875 25.484375 
L 43.21875 27.484375 
z
M 52.203125 31.203125 
L 52.203125 0 
L 43.21875 0 
L 43.21875 8.296875 
Q 40.140625 3.328125 35.546875 0.953125 
Q 30.953125 -1.421875 24.3125 -1.421875 
Q 15.921875 -1.421875 10.953125 3.296875 
Q 6 8.015625 6 15.921875 
Q 6 25.140625 12.171875 29.828125 
Q 18.359375 34.515625 30.609375 34.515625 
L 43.21875 34.515625 
L 43.21875 35.40625 
Q 43.21875 41.609375 39.140625 45 
Q 35.0625 48.390625 27.6875 48.390625 
Q 23 48.390625 18.546875 47.265625 
Q 14.109375 46.140625 10.015625 43.890625 
L 10.015625 52.203125 
Q 14.9375 54.109375 19.578125 55.046875 
Q 24.21875 56 28.609375 56 
Q 40.484375 56 46.34375 49.84375 
Q 52.203125 43.703125 52.203125 31.203125 
z
" id="DejaVuSans-97"/>
      <path d="M 45.40625 46.390625 
L 45.40625 75.984375 
L 54.390625 75.984375 
L 54.390625 0 
L 45.40625 0 
L 45.40625 8.203125 
Q 42.578125 3.328125 38.25 0.953125 
Q 33.9375 -1.421875 27.875 -1.421875 
Q 17.96875 -1.421875 11.734375 6.484375 
Q 5.515625 14.40625 5.515625 27.296875 
Q 5.515625 40.1875 11.734375 48.09375 
Q 17.96875 56 27.875 56 
Q 33.9375 56 38.25 53.625 
Q 42.578125 51.265625 45.40625 46.390625 
z
M 14.796875 27.296875 
Q 14.796875 17.390625 18.875 11.75 
Q 22.953125 6.109375 30.078125 6.109375 
Q 37.203125 6.109375 41.296875 11.75 
Q 45.40625 17.390625 45.40625 27.296875 
Q 45.40625 37.203125 41.296875 42.84375 
Q 37.203125 48.484375 30.078125 48.484375 
Q 22.953125 48.484375 18.875 42.84375 
Q 14.796875 37.203125 14.796875 27.296875 
z
" id="DejaVuSans-100"/>
     </defs>
     <g transform="translate(102.024844 357.832125)scale(0.3 -0.3)">
      <use xlink:href="#DejaVuSans-80"/>
      <use x="60.255859" xlink:href="#DejaVuSans-111"/>
      <use x="121.4375" xlink:href="#DejaVuSans-115"/>
      <use x="173.537109" xlink:href="#DejaVuSans-105"/>
      <use x="201.320312" xlink:href="#DejaVuSans-116"/>
      <use x="240.529297" xlink:href="#DejaVuSans-105"/>
      <use x="268.3125" xlink:href="#DejaVuSans-111"/>
      <use x="329.494141" xlink:href="#DejaVuSans-110"/>
      <use x="392.873047" xlink:href="#DejaVuSans-32"/>
      <use x="424.660156" xlink:href="#DejaVuSans-105"/>
      <use x="452.443359" xlink:href="#DejaVuSans-110"/>
      <use x="515.822266" xlink:href="#DejaVuSans-32"/>
      <use x="547.609375" xlink:href="#DejaVuSans-82"/>
      <use x="617.060547" xlink:href="#DejaVuSans-97"/>
      <use x="678.339844" xlink:href="#DejaVuSans-100"/>
      <use x="741.816406" xlink:href="#DejaVuSans-105"/>
      <use x="769.599609" xlink:href="#DejaVuSans-97"/>
      <use x="830.878906" xlink:href="#DejaVuSans-110"/>
     </g>
    </g>
   </g>
   <g id="matplotlib.axis_2">
    <g id="ytick_1">
     <g id="line2d_8">
      <defs>
       <path d="M 0 0 
L -3.5 0 
" id="mfd6eb7b0f2" style="stroke:#000000;stroke-width:0.8;"/>
      </defs>
      <g>
       <use style="stroke:#000000;stroke-width:0.8;" x="57.6" xlink:href="#mfd6eb7b0f2" y="307.584"/>
      </g>
     </g>
     <g id="text_9">
      <!-- 0.0 -->
      <defs>
       <path d="M 10.6875 12.40625 
L 21 12.40625 
L 21 0 
L 10.6875 0 
z
" id="DejaVuSans-46"/>
      </defs>
      <g transform="translate(23.564687 314.042672)scale(0.17 -0.17)">
       <use xlink:href="#DejaVuSans-48"/>
       <use x="63.623047" xlink:href="#DejaVuSans-46"/>
       <use x="95.410156" xlink:href="#DejaVuSans-48"/>
      </g>
     </g>
    </g>
    <g id="ytick_2">
     <g id="line2d_9">
      <g>
       <use style="stroke:#000000;stroke-width:0.8;" x="57.6" xlink:href="#mfd6eb7b0f2" y="240.699782"/>
      </g>
     </g>
     <g id="text_10">
      <!-- 0.5 -->
      <defs>
       <path d="M 10.796875 72.90625 
L 49.515625 72.90625 
L 49.515625 64.59375 
L 19.828125 64.59375 
L 19.828125 46.734375 
Q 21.96875 47.46875 24.109375 47.828125 
Q 26.265625 48.1875 28.421875 48.1875 
Q 40.625 48.1875 47.75 41.5 
Q 54.890625 34.8125 54.890625 23.390625 
Q 54.890625 11.625 47.5625 5.09375 
Q 40.234375 -1.421875 26.90625 -1.421875 
Q 22.3125 -1.421875 17.546875 -0.640625 
Q 12.796875 0.140625 7.71875 1.703125 
L 7.71875 11.625 
Q 12.109375 9.234375 16.796875 8.0625 
Q 21.484375 6.890625 26.703125 6.890625 
Q 35.15625 6.890625 40.078125 11.328125 
Q 45.015625 15.765625 45.015625 23.390625 
Q 45.015625 31 40.078125 35.4375 
Q 35.15625 39.890625 26.703125 39.890625 
Q 22.75 39.890625 18.8125 39.015625 
Q 14.890625 38.140625 10.796875 36.28125 
z
" id="DejaVuSans-53"/>
      </defs>
      <g transform="translate(23.564687 247.158454)scale(0.17 -0.17)">
       <use xlink:href="#DejaVuSans-48"/>
       <use x="63.623047" xlink:href="#DejaVuSans-46"/>
       <use x="95.410156" xlink:href="#DejaVuSans-53"/>
      </g>
     </g>
    </g>
    <g id="ytick_3">
     <g id="line2d_10">
      <g>
       <use style="stroke:#000000;stroke-width:0.8;" x="57.6" xlink:href="#mfd6eb7b0f2" y="173.815564"/>
      </g>
     </g>
     <g id="text_11">
      <!-- 1.0 -->
      <g transform="translate(23.564687 180.274236)scale(0.17 -0.17)">
       <use xlink:href="#DejaVuSans-49"/>
       <use x="63.623047" xlink:href="#DejaVuSans-46"/>
       <use x="95.410156" xlink:href="#DejaVuSans-48"/>
      </g>
     </g>
    </g>
    <g id="ytick_4">
     <g id="line2d_11">
      <g>
       <use style="stroke:#000000;stroke-width:0.8;" x="57.6" xlink:href="#mfd6eb7b0f2" y="106.931346"/>
      </g>
     </g>
     <g id="text_12">
      <!-- 1.5 -->
      <g transform="translate(23.564687 113.390018)scale(0.17 -0.17)">
       <use xlink:href="#DejaVuSans-49"/>
       <use x="63.623047" xlink:href="#DejaVuSans-46"/>
       <use x="95.410156" xlink:href="#DejaVuSans-53"/>
      </g>
     </g>
    </g>
    <g id="text_13">
     <!-- Density -->
     <defs>
      <path d="M 19.671875 64.796875 
L 19.671875 8.109375 
L 31.59375 8.109375 
Q 46.6875 8.109375 53.6875 14.9375 
Q 60.6875 21.78125 60.6875 36.53125 
Q 60.6875 51.171875 53.6875 57.984375 
Q 46.6875 64.796875 31.59375 64.796875 
z
M 9.8125 72.90625 
L 30.078125 72.90625 
Q 51.265625 72.90625 61.171875 64.09375 
Q 71.09375 55.28125 71.09375 36.53125 
Q 71.09375 17.671875 61.125 8.828125 
Q 51.171875 0 30.078125 0 
L 9.8125 0 
z
" id="DejaVuSans-68"/>
      <path d="M 56.203125 29.59375 
L 56.203125 25.203125 
L 14.890625 25.203125 
Q 15.484375 15.921875 20.484375 11.0625 
Q 25.484375 6.203125 34.421875 6.203125 
Q 39.59375 6.203125 44.453125 7.46875 
Q 49.3125 8.734375 54.109375 11.28125 
L 54.109375 2.78125 
Q 49.265625 0.734375 44.1875 -0.34375 
Q 39.109375 -1.421875 33.890625 -1.421875 
Q 20.796875 -1.421875 13.15625 6.1875 
Q 5.515625 13.8125 5.515625 26.8125 
Q 5.515625 40.234375 12.765625 48.109375 
Q 20.015625 56 32.328125 56 
Q 43.359375 56 49.78125 48.890625 
Q 56.203125 41.796875 56.203125 29.59375 
z
M 47.21875 32.234375 
Q 47.125 39.59375 43.09375 43.984375 
Q 39.0625 48.390625 32.421875 48.390625 
Q 24.90625 48.390625 20.390625 44.140625 
Q 15.875 39.890625 15.1875 32.171875 
z
" id="DejaVuSans-101"/>
      <path d="M 32.171875 -5.078125 
Q 28.375 -14.84375 24.75 -17.8125 
Q 21.140625 -20.796875 15.09375 -20.796875 
L 7.90625 -20.796875 
L 7.90625 -13.28125 
L 13.1875 -13.28125 
Q 16.890625 -13.28125 18.9375 -11.515625 
Q 21 -9.765625 23.484375 -3.21875 
L 25.09375 0.875 
L 2.984375 54.6875 
L 12.5 54.6875 
L 29.59375 11.921875 
L 46.6875 54.6875 
L 56.203125 54.6875 
z
" id="DejaVuSans-121"/>
     </defs>
     <g transform="translate(13.325625 231.553781)rotate(-90)scale(0.3 -0.3)">
      <use xlink:href="#DejaVuSans-68"/>
      <use x="77.001953" xlink:href="#DejaVuSans-101"/>
      <use x="138.525391" xlink:href="#DejaVuSans-110"/>
      <use x="201.904297" xlink:href="#DejaVuSans-115"/>
      <use x="254.003906" xlink:href="#DejaVuSans-105"/>
      <use x="281.787109" xlink:href="#DejaVuSans-116"/>
      <use x="320.996094" xlink:href="#DejaVuSans-121"/>
     </g>
    </g>
   </g>
   <g id="line2d_12">
    <path clip-path="url(#p342412acd1)" d="M 89.588545 306.620536 
L 90.031655 306.501891 
L 90.565027 306.643824 
L 90.991724 306.649045 
L 91.451245 306.383544 
L 91.877943 306.231338 
L 92.230789 306.371984 
L 92.682104 306.513291 
L 92.952893 306.341516 
L 94.085283 305.338688 
L 95.41461 305.27832 
L 95.997217 305.707518 
L 96.473149 305.899235 
L 97.21987 306.145457 
L 97.777859 306.326126 
L 98.155322 306.185908 
L 99.271301 305.616734 
L 100.395485 305.748403 
L 100.797566 306.10447 
L 101.281704 306.462161 
L 101.585315 306.409045 
L 102.479739 306.098681 
L 103.210049 306.077912 
L 103.866507 305.928549 
L 104.211147 306.168514 
L 104.703491 306.472265 
L 104.957868 306.358655 
L 105.277892 305.920791 
L 106.123081 304.201875 
L 106.853391 303.002407 
L 107.230854 302.735305 
L 107.493437 302.800111 
L 107.780638 303.143179 
L 108.65865 304.374888 
L 108.937645 304.299279 
L 109.725395 303.972564 
L 110.168504 304.095438 
L 110.628024 304.472639 
L 111.128573 304.820692 
L 111.432185 304.752615 
L 112.170701 304.481993 
L 112.605604 304.667936 
L 113.114359 305.118772 
L 113.68876 305.991351 
L 114.140075 306.506871 
L 114.386246 306.494349 
L 114.665241 306.20944 
L 115.502225 305.21446 
L 115.805837 305.248541 
L 116.905404 305.626867 
L 117.266456 305.269289 
L 119.030687 303.177785 
L 119.46559 302.863959 
L 119.802025 302.900718 
L 120.384631 303.235492 
L 120.729272 303.682849 
L 121.84525 305.453212 
L 122.247331 305.387283 
L 122.838143 305.105849 
L 123.141755 304.645237 
L 123.584864 303.470038 
L 124.151059 302.14362 
L 124.454671 301.921066 
L 125.291655 301.619494 
L 126.604571 300.326572 
L 127.269234 299.957919 
L 127.745167 299.984436 
L 129.156551 300.383136 
L 129.558632 300.506404 
L 129.804804 300.335135 
L 130.133033 299.769437 
L 130.723845 298.773905 
L 130.937194 298.780216 
L 131.199777 299.064786 
L 131.69212 299.575268 
L 131.905469 299.483106 
L 132.25011 299.001513 
L 132.602956 298.659524 
L 132.791687 298.742491 
L 133.037859 299.148801 
L 133.825609 300.611573 
L 134.030752 300.558472 
L 134.317952 300.195818 
L 135.064673 299.184463 
L 135.327256 299.178765 
L 135.614457 299.431275 
L 136.402206 300.238866 
L 136.681201 300.144473 
L 137.140722 299.691672 
L 138.625958 298.151426 
L 139.50397 298.057104 
L 140.439423 297.38512 
L 141.153321 297.319395 
L 141.432316 296.853243 
L 142.014922 295.839179 
L 142.187242 295.907719 
L 142.425209 296.313694 
L 143.007815 297.347887 
L 143.221164 297.328386 
L 143.877622 297.058716 
L 144.090971 297.469787 
L 144.952572 299.557479 
L 144.977189 299.545698 
L 145.157715 299.308023 
L 145.863407 298.081853 
L 145.888024 298.096588 
L 146.060345 298.361803 
L 146.363956 299.350714 
L 146.880917 300.892043 
L 147.077855 300.960908 
L 147.250175 300.741697 
L 147.537375 299.928913 
L 148.751822 296.042306 
L 148.94876 296.016267 
L 149.153903 296.27038 
L 149.949858 297.496651 
L 150.146796 297.310907 
L 150.48323 296.606008 
L 151.180717 295.165284 
L 151.4433 295.048836 
L 151.664855 295.197425 
L 152.124375 295.88962 
L 152.395164 296.073188 
L 152.57569 295.931505 
L 152.821862 295.372813 
L 153.896812 292.465468 
L 154.077338 292.571007 
L 154.364538 293.076372 
L 154.856882 293.880249 
L 155.037408 293.845468 
L 155.242551 293.523113 
L 155.595397 292.457367 
L 156.251855 290.551173 
L 156.555467 290.260057 
L 156.842667 290.280019 
L 157.203719 290.537926 
L 157.515537 291.047045 
L 157.991469 292.384584 
L 158.352521 293.084404 
L 158.541252 293.087475 
L 158.754601 292.80155 
L 159.493116 291.636924 
L 159.681848 291.763028 
L 159.944431 292.27598 
L 160.379335 293.707635 
L 161.667634 298.245256 
L 161.84816 298.248021 
L 162.02048 297.972168 
L 162.283063 297.038016 
L 163.333396 292.691964 
L 163.530333 292.7314 
L 163.940619 292.879589 
L 164.129351 292.60964 
L 164.473991 291.590226 
L 164.818632 290.847806 
L 164.974541 290.880651 
L 165.155067 291.235188 
L 165.540736 292.646254 
L 165.942816 293.774455 
L 166.139754 293.858925 
L 166.312074 293.664126 
L 166.632097 292.870594 
L 167.132646 291.773178 
L 167.378818 291.681353 
L 167.657813 291.861089 
L 168.330682 292.329298 
L 168.781997 292.356172 
L 169.028169 292.14845 
L 169.282546 291.579966 
L 169.643598 290.111966 
L 170.447759 286.796504 
L 171.210892 284.924435 
L 171.424241 284.826344 
L 171.580149 285.033716 
L 171.834527 285.838945 
L 172.38431 287.585677 
L 172.556631 287.600204 
L 172.761774 287.298467 
L 173.262323 286.541573 
L 173.451055 286.616587 
L 173.746461 287.055516 
L 174.30445 287.831433 
L 174.558827 287.862687 
L 174.788588 287.653673 
L 175.100405 287.013479 
L 176.10971 284.688428 
L 177.028751 283.666675 
L 177.217482 283.795705 
L 177.47186 284.30939 
L 177.93138 285.861805 
L 178.94889 289.281933 
L 179.949989 291.980683 
L 180.089486 291.850484 
L 180.302835 291.257424 
L 181.377785 287.620305 
L 181.59934 287.647663 
L 181.911157 287.959955 
L 182.854815 289.06079 
L 183.043547 288.785394 
L 183.355365 287.817211 
L 183.773857 286.709149 
L 183.92156 286.723794 
L 184.085674 287.051508 
L 184.405697 288.325497 
L 184.865218 289.895421 
L 185.094978 290.070858 
L 185.316533 289.946162 
L 185.800671 289.658579 
L 186.555597 289.595501 
L 187.277701 288.958776 
L 187.819279 288.869062 
L 188.090068 288.430294 
L 188.861406 287.039161 
L 189.197841 286.983391 
L 189.52607 286.8654 
L 189.805064 286.481438 
L 190.256379 285.399142 
L 190.929249 283.200673 
L 192.258576 278.506301 
L 192.406279 278.607771 
L 192.627834 279.120013 
L 193.202235 280.504569 
L 193.390966 280.485612 
L 193.793047 280.354614 
L 193.957161 280.65145 
L 194.211539 281.684166 
L 195.155197 286.024626 
L 195.516249 286.540644 
L 195.885507 286.700297 
L 196.26297 286.630576 
L 196.648639 286.318232 
L 197.157394 285.595035 
L 197.51024 284.701202 
L 197.871292 283.084032 
L 198.52775 278.80941 
L 199.37294 273.898932 
L 200.250952 270.037259 
L 200.759707 268.699147 
L 201.096142 268.320252 
L 201.342314 268.347659 
L 201.933126 268.537721 
L 202.179298 268.236793 
L 202.704464 267.55187 
L 202.843961 267.702745 
L 203.040899 268.338915 
L 203.360922 270.302122 
L 203.9025 273.42141 
L 204.115849 273.6875 
L 204.279963 273.563021 
L 204.764101 273.10207 
L 204.969244 273.289662 
L 205.371325 273.666463 
L 205.519028 273.492083 
L 205.740582 272.79584 
L 206.45448 270.293391 
L 206.659624 270.262682 
L 207.020675 270.545068 
L 208.2023 271.398215 
L 208.530529 271.193158 
L 209.441364 270.315668 
L 209.703948 269.386914 
L 210.097822 267.001761 
L 210.647606 264.001441 
L 210.901983 263.599502 
L 211.082509 263.658329 
L 211.77179 264.116516 
L 211.993345 263.789805 
L 212.32978 262.817087 
L 212.90418 260.393673 
L 213.306261 257.766827 
L 213.708341 253.442047 
L 215.28384 234.266273 
L 215.685921 232.146076 
L 216.07159 231.26312 
L 216.391613 230.360576 
L 216.892163 227.977857 
L 217.228597 226.981914 
L 217.392712 226.961775 
L 217.565032 227.244086 
L 217.942495 228.429021 
L 218.730245 231.56224 
L 219.140531 232.949355 
L 219.263617 232.96112 
L 219.280029 232.943191 
L 219.427732 232.567244 
L 219.665698 231.199313 
L 220.133424 226.861638 
L 220.642179 222.887589 
L 220.830911 222.517359 
L 220.847322 222.523815 
L 220.953996 222.716515 
L 221.150934 223.679384 
L 221.840215 227.491511 
L 221.946889 227.402366 
L 222.111004 226.842483 
L 222.455644 224.647324 
L 224.072172 212.127832 
L 225.434322 194.623478 
L 226.829296 175.465207 
L 227.510371 170.713354 
L 228.413 165.052824 
L 228.765847 159.751068 
L 229.463333 149.076748 
L 229.611036 148.66078 
L 229.635653 148.680032 
L 229.734122 149.003311 
L 229.922854 150.624569 
L 230.2757 156.039491 
L 230.923952 165.585547 
L 231.153713 166.549075 
L 231.227564 166.452741 
L 231.358856 165.738642 
L 231.555793 163.213997 
L 231.810171 156.697568 
L 232.097371 142.81909 
L 232.442011 113.644243 
L 233.114881 54.970428 
L 233.188732 54.144 
L 233.237967 54.54726 
L 233.352847 58.384257 
L 233.574401 75.357605 
L 234.427797 148.657598 
L 234.723203 155.536319 
L 234.944758 156.799991 
L 235.010403 156.789578 
L 235.03502 156.751233 
L 235.174518 156.234101 
L 235.42069 154.312886 
L 235.757124 149.764125 
L 236.183822 140.508434 
L 236.717194 129.920979 
L 236.823869 129.515753 
L 236.864897 129.588767 
L 236.971572 130.389612 
L 237.168509 134.028349 
L 237.693675 149.81887 
L 238.046522 156.440114 
L 238.276282 157.634876 
L 238.374751 157.642094 
L 238.399368 157.616776 
L 238.711185 157.283013 
L 238.752214 157.338404 
L 238.883506 157.827606 
L 239.080443 159.59433 
L 239.433289 165.273933 
L 239.958455 172.836224 
L 240.286684 174.63922 
L 240.705176 176.646447 
L 241.19752 180.73056 
L 242.050915 189.158352 
L 242.567876 197.978853 
L 243.191511 207.55975 
L 244.323901 220.649352 
L 245.201914 234.713938 
L 245.49732 236.275046 
L 245.751697 236.615465 
L 245.989663 236.9307 
L 246.194806 237.702016 
L 246.482007 239.816099 
L 247.450282 247.729377 
L 247.655425 247.932458 
L 248.073917 247.955899 
L 248.238032 248.586637 
L 248.475998 250.572189 
L 249.091427 258.510283 
L 249.501714 261.921463 
L 249.838148 263.087166 
L 250.248435 264.3003 
L 250.519224 266.097357 
L 250.954127 270.850378 
L 251.495705 276.033191 
L 251.799317 277.181096 
L 252.029077 277.38252 
L 252.562449 277.553238 
L 252.784004 278.153445 
L 253.210701 280.162456 
L 253.588165 281.427689 
L 253.785102 281.532857 
L 253.973834 281.33805 
L 254.400531 280.45217 
L 255.032372 279.303239 
L 255.22931 279.285062 
L 255.40163 279.542375 
L 255.656007 280.420001 
L 256.492991 283.660186 
L 256.673517 283.662026 
L 256.895072 283.359592 
L 257.477678 282.023941 
L 258.019256 280.402165 
L 258.478777 278.16629 
L 259.192675 274.751001 
L 259.463464 274.357832 
L 259.676813 274.380656 
L 261.326163 275.425205 
L 261.687215 276.28829 
L 262.688314 278.901443 
L 262.901662 278.940787 
L 263.090394 278.710633 
L 263.352977 277.956098 
L 263.812498 275.771588 
L 264.313047 273.790354 
L 264.583836 273.448919 
L 264.862831 273.454986 
L 265.166443 273.401747 
L 265.42082 273.075735 
L 266.077278 272.12257 
L 266.249598 272.266509 
L 266.49577 272.836791 
L 267.431223 275.290106 
L 268.538996 276.89583 
L 268.776962 276.791794 
L 269.105191 276.363838 
L 269.89294 275.250842 
L 270.048849 275.415596 
L 270.262198 276.047637 
L 270.62325 277.978111 
L 271.14021 280.433226 
L 271.337148 280.614485 
L 271.476645 280.431968 
L 271.714611 279.639561 
L 272.494155 276.792263 
L 272.707504 276.70365 
L 272.920853 276.888109 
L 273.339345 277.640543 
L 273.815277 278.333416 
L 274.045037 278.347204 
L 274.299414 278.096592 
L 274.791758 277.604 
L 274.947667 277.76062 
L 275.144604 278.346914 
L 275.448216 280.0899 
L 276.186731 284.523566 
L 276.408286 284.797234 
L 276.5724 284.697552 
L 277.310916 283.991476 
L 277.540676 284.27474 
L 278.188928 285.180288 
L 278.344837 285.006182 
L 278.574597 284.3312 
L 279.419787 281.480386 
L 279.592107 281.544337 
L 279.871102 281.979365 
L 280.355239 282.651181 
L 280.626028 282.68919 
L 280.880406 282.491713 
L 281.159401 281.954812 
L 281.520452 280.677599 
L 282.135882 278.555248 
L 282.357436 278.411957 
L 282.537962 278.566825 
L 282.784134 279.126188 
L 283.087746 280.427014 
L 283.506238 283.384485 
L 284.195519 288.088469 
L 284.564776 289.207086 
L 284.975063 289.753282 
L 285.541258 290.510998 
L 286.222333 291.437927 
L 286.47671 291.458982 
L 286.698265 291.235309 
L 286.985465 290.576922 
L 287.477809 288.755668 
L 288.216324 286.208408 
L 288.62661 285.486196 
L 288.889193 285.387961 
L 289.118954 285.564247 
L 289.849263 286.295195 
L 290.079024 286.05592 
L 290.595984 285.481161 
L 290.760099 285.633951 
L 290.981653 286.223422 
L 291.383734 288.097936 
L 291.917106 290.283859 
L 292.228924 290.760775 
L 293.033085 291.543942 
L 294.346001 293.805586 
L 296.060997 297.435358 
L 296.216906 297.249657 
L 296.454872 296.526666 
L 297.406736 293.164698 
L 297.579056 293.211682 
L 297.841639 293.597705 
L 299.696133 296.806525 
L 300.885963 298.430868 
L 301.247015 298.570019 
L 302.059382 298.690765 
L 302.420434 299.189487 
L 303.725144 301.244211 
L 303.96311 301.084734 
L 306.309948 298.676975 
L 306.769468 298.621779 
L 307.081286 298.474003 
L 307.393103 298.035365 
L 308.049561 297.070097 
L 308.254704 297.136799 
L 308.517288 297.523365 
L 309.255803 298.713656 
L 309.543003 298.72497 
L 310.150227 298.669133 
L 310.437427 298.944267 
L 310.798479 299.64496 
L 311.66008 301.431257 
L 312.012926 301.612425 
L 312.341155 301.556365 
L 312.595533 301.277891 
L 312.899145 300.54961 
L 313.883832 297.877651 
L 314.277707 297.553284 
L 314.630553 297.535656 
L 315.278805 297.574161 
L 315.845 297.230562 
L 316.18964 296.821457 
L 316.509664 296.031042 
L 317.453322 293.397191 
L 317.633848 293.442512 
L 317.904637 293.817786 
L 318.290306 294.25645 
L 318.479038 294.178187 
L 318.758032 293.740575 
L 319.283199 292.957659 
L 319.545782 292.918074 
L 319.800159 293.117072 
L 320.08736 293.66514 
L 320.530469 295.119863 
L 320.998195 296.365192 
L 321.285396 296.583735 
L 321.67927 296.550145 
L 322.245465 296.312713 
L 322.762426 296.089489 
L 322.983981 296.271731 
L 323.295798 296.895062 
L 323.820965 297.883897 
L 324.042519 297.899908 
L 324.337925 297.626189 
L 324.723594 297.354683 
L 324.96156 297.453979 
L 325.905219 298.111408 
L 326.266271 297.791721 
L 326.668351 297.537675 
L 326.906317 297.647471 
L 327.234546 298.101355 
L 328.514639 300.100877 
L 328.752605 300.029078 
L 329.384446 299.706692 
L 329.614206 299.962451 
L 330.475808 301.148662 
L 330.730185 300.994021 
L 331.452289 300.44583 
L 331.796929 300.544773 
L 332.297479 300.673472 
L 332.560062 300.479686 
L 332.921114 299.880106 
L 334.250441 297.457764 
L 334.471996 297.456218 
L 334.677139 297.71333 
L 334.988956 298.530336 
L 335.645414 300.271829 
L 335.858763 300.327059 
L 336.072112 300.102828 
L 336.703953 299.338818 
L 336.909096 299.476645 
L 337.311177 300.135758 
L 337.639405 300.457842 
L 337.844549 300.379192 
L 338.131749 299.963057 
L 338.780001 299.006922 
L 339.132847 298.893449 
L 339.584162 298.992596 
L 339.994449 299.307344 
L 340.429352 299.94774 
L 341.02837 301.289218 
L 341.594565 302.384684 
L 341.832531 302.454491 
L 342.054086 302.25583 
L 343.038773 301.078714 
L 343.367002 301.272469 
L 343.810111 301.470942 
L 344.220397 301.350062 
L 344.671712 301.308125 
L 345.754867 301.562069 
L 346.083096 302.180595 
L 346.903669 303.828999 
L 347.281132 304.054841 
L 347.773476 304.335106 
L 348.167351 304.909163 
L 348.758163 305.703821 
L 349.06998 305.774598 
L 349.439238 305.604758 
L 351.342966 304.407037 
L 351.638372 304.532562 
L 352.319447 304.924634 
L 352.557413 304.706935 
L 353.090786 303.779649 
L 353.501072 303.326092 
L 353.829301 303.26575 
L 354.141118 303.440028 
L 354.567816 303.985434 
L 355.06016 304.522625 
L 355.273508 304.480323 
L 355.503269 304.161063 
L 355.888938 303.136711 
L 356.348458 302.119954 
L 356.561807 302.069663 
L 356.775156 302.291962 
L 357.710609 303.5186 
L 358.711707 304.075057 
L 359.450222 304.586523 
L 360.082063 304.682839 
L 361.452419 304.595542 
L 361.903734 304.384606 
L 362.31402 304.271957 
L 362.617632 304.444635 
L 363.438205 305.022546 
L 363.77464 304.930613 
L 364.742915 304.485499 
L 365.046527 304.774123 
L 365.653751 305.766242 
L 366.072243 306.224834 
L 366.310209 306.204419 
L 366.564586 305.926578 
L 367.598507 304.519971 
L 367.902119 304.667418 
L 368.394463 304.883603 
L 369.32171 304.95311 
L 369.748407 305.586812 
L 370.322808 306.332296 
L 370.79874 306.56687 
L 371.58649 306.699319 
L 372.062422 306.532659 
L 372.612205 306.377826 
L 373.047109 306.538241 
L 373.547658 306.661839 
L 373.974356 306.500242 
L 374.647225 306.260071 
L 375.771409 306.110312 
L 376.28837 305.550861 
L 376.780714 305.078961 
L 376.780714 305.078961 
" style="fill:none;stroke:#ff7f0e;stroke-linecap:square;stroke-width:1.5;"/>
   </g>
   <g id="patch_103">
    <path d="M 57.6 307.584 
L 57.6 41.472 
" style="fill:none;stroke:#000000;stroke-linecap:square;stroke-linejoin:miter;stroke-width:0.8;"/>
   </g>
   <g id="patch_104">
    <path d="M 414.72 307.584 
L 414.72 41.472 
" style="fill:none;stroke:#000000;stroke-linecap:square;stroke-linejoin:miter;stroke-width:0.8;"/>
   </g>
   <g id="patch_105">
    <path d="M 57.6 307.584 
L 414.72 307.584 
" style="fill:none;stroke:#000000;stroke-linecap:square;stroke-linejoin:miter;stroke-width:0.8;"/>
   </g>
   <g id="patch_106">
    <path d="M 57.6 41.472 
L 414.72 41.472 
" style="fill:none;stroke:#000000;stroke-linecap:square;stroke-linejoin:miter;stroke-width:0.8;"/>
   </g>
  </g>
 </g>
 <defs>
  <clipPath id="p342412acd1">
   <rect height="266.112" width="357.12" x="57.6" y="41.472"/>
  </clipPath>
 </defs>
</svg>
