<?xml version="1.0" encoding="utf-8" standalone="no"?>
<!DOCTYPE svg PUBLIC "-//W3C//DTD SVG 1.1//EN"
  "http://www.w3.org/Graphics/SVG/1.1/DTD/svg11.dtd">
<!-- Created with matplotlib (https://matplotlib.org/) -->
<svg height="345.6pt" version="1.1" viewBox="0 0 460.8 345.6" width="460.8pt" xmlns="http://www.w3.org/2000/svg" xmlns:xlink="http://www.w3.org/1999/xlink">
 <defs>
  <style type="text/css">
*{stroke-linecap:butt;stroke-linejoin:round;}
  </style>
 </defs>
 <g id="figure_1">
  <g id="patch_1">
   <path d="M 0 345.6 
L 460.8 345.6 
L 460.8 0 
L 0 0 
z
" style="fill:#ffffff;"/>
  </g>
  <g id="axes_1">
   <g id="patch_2">
    <path d="M 57.6 307.584 
L 414.72 307.584 
L 414.72 41.472 
L 57.6 41.472 
z
" style="fill:#ffffff;"/>
   </g>
   <g id="patch_3">
    <path clip-path="url(#pea8160cbbe)" d="M 142.552853 307.584 
L 144.542913 307.584 
L 144.542913 303.897896 
L 142.552853 303.897896 
z
" style="fill:#1f77b4;"/>
   </g>
   <g id="patch_4">
    <path clip-path="url(#pea8160cbbe)" d="M 144.542913 307.584 
L 146.532972 307.584 
L 146.532972 298.36874 
L 144.542913 298.36874 
z
" style="fill:#1f77b4;"/>
   </g>
   <g id="patch_5">
    <path clip-path="url(#pea8160cbbe)" d="M 146.532972 307.584 
L 148.523031 307.584 
L 148.523031 281.781272 
L 146.532972 281.781272 
z
" style="fill:#1f77b4;"/>
   </g>
   <g id="patch_6">
    <path clip-path="url(#pea8160cbbe)" d="M 148.523031 307.584 
L 150.513091 307.584 
L 150.513091 259.664647 
L 148.523031 259.664647 
z
" style="fill:#1f77b4;"/>
   </g>
   <g id="patch_7">
    <path clip-path="url(#pea8160cbbe)" d="M 150.513091 307.584 
L 152.50315 307.584 
L 152.50315 257.821595 
L 150.513091 257.821595 
z
" style="fill:#1f77b4;"/>
   </g>
   <g id="patch_8">
    <path clip-path="url(#pea8160cbbe)" d="M 152.50315 307.584 
L 154.493202 307.584 
L 154.493202 281.781171 
L 152.50315 281.781171 
z
" style="fill:#1f77b4;"/>
   </g>
   <g id="patch_9">
    <path clip-path="url(#pea8160cbbe)" d="M 154.493202 307.584 
L 156.483262 307.584 
L 156.483262 305.740948 
L 154.493202 305.740948 
z
" style="fill:#1f77b4;"/>
   </g>
   <g id="patch_10">
    <path clip-path="url(#pea8160cbbe)" d="M 156.483262 307.584 
L 158.473321 307.584 
L 158.473321 303.897896 
L 156.483262 303.897896 
z
" style="fill:#1f77b4;"/>
   </g>
   <g id="patch_11">
    <path clip-path="url(#pea8160cbbe)" d="M 158.473321 307.584 
L 160.463381 307.584 
L 160.463381 302.054844 
L 158.473321 302.054844 
z
" style="fill:#1f77b4;"/>
   </g>
   <g id="patch_12">
    <path clip-path="url(#pea8160cbbe)" d="M 160.463381 307.584 
L 162.45344 307.584 
L 162.45344 302.054844 
L 160.463381 302.054844 
z
" style="fill:#1f77b4;"/>
   </g>
   <g id="patch_13">
    <path clip-path="url(#pea8160cbbe)" d="M 162.45344 307.584 
L 164.4435 307.584 
L 164.4435 303.897896 
L 162.45344 303.897896 
z
" style="fill:#1f77b4;"/>
   </g>
   <g id="patch_14">
    <path clip-path="url(#pea8160cbbe)" d="M 164.4435 307.584 
L 166.433559 307.584 
L 166.433559 298.36874 
L 164.4435 298.36874 
z
" style="fill:#1f77b4;"/>
   </g>
   <g id="patch_15">
    <path clip-path="url(#pea8160cbbe)" d="M 166.433559 307.584 
L 168.423619 307.584 
L 168.423619 296.525688 
L 166.433559 296.525688 
z
" style="fill:#1f77b4;"/>
   </g>
   <g id="patch_16">
    <path clip-path="url(#pea8160cbbe)" d="M 168.423619 307.584 
L 170.413678 307.584 
L 170.413678 289.15348 
L 168.423619 289.15348 
z
" style="fill:#1f77b4;"/>
   </g>
   <g id="patch_17">
    <path clip-path="url(#pea8160cbbe)" d="M 170.413678 307.584 
L 172.403734 307.584 
L 172.403734 279.938166 
L 170.413678 279.938166 
z
" style="fill:#1f77b4;"/>
   </g>
   <g id="patch_18">
    <path clip-path="url(#pea8160cbbe)" d="M 172.403734 307.584 
L 174.393793 307.584 
L 174.393793 267.036855 
L 172.403734 267.036855 
z
" style="fill:#1f77b4;"/>
   </g>
   <g id="patch_19">
    <path clip-path="url(#pea8160cbbe)" d="M 174.393793 307.584 
L 176.383853 307.584 
L 176.383853 279.938219 
L 174.393793 279.938219 
z
" style="fill:#1f77b4;"/>
   </g>
   <g id="patch_20">
    <path clip-path="url(#pea8160cbbe)" d="M 176.383849 307.584 
L 178.373904 307.584 
L 178.373904 289.153444 
L 176.383849 289.153444 
z
" style="fill:#1f77b4;"/>
   </g>
   <g id="patch_21">
    <path clip-path="url(#pea8160cbbe)" d="M 178.373908 307.584 
L 180.363968 307.584 
L 180.363968 279.938219 
L 178.373908 279.938219 
z
" style="fill:#1f77b4;"/>
   </g>
   <g id="patch_22">
    <path clip-path="url(#pea8160cbbe)" d="M 180.363968 307.584 
L 182.354027 307.584 
L 182.354027 279.938219 
L 180.363968 279.938219 
z
" style="fill:#1f77b4;"/>
   </g>
   <g id="patch_23">
    <path clip-path="url(#pea8160cbbe)" d="M 182.354027 307.584 
L 184.344087 307.584 
L 184.344087 283.624324 
L 182.354027 283.624324 
z
" style="fill:#1f77b4;"/>
   </g>
   <g id="patch_24">
    <path clip-path="url(#pea8160cbbe)" d="M 184.344087 307.584 
L 186.334146 307.584 
L 186.334146 272.566011 
L 184.344087 272.566011 
z
" style="fill:#1f77b4;"/>
   </g>
   <g id="patch_25">
    <path clip-path="url(#pea8160cbbe)" d="M 186.334146 307.584 
L 188.324202 307.584 
L 188.324202 265.193721 
L 186.334146 265.193721 
z
" style="fill:#1f77b4;"/>
   </g>
   <g id="patch_26">
    <path clip-path="url(#pea8160cbbe)" d="M 188.324202 307.584 
L 190.314261 307.584 
L 190.314261 232.018867 
L 188.324202 232.018867 
z
" style="fill:#1f77b4;"/>
   </g>
   <g id="patch_27">
    <path clip-path="url(#pea8160cbbe)" d="M 190.314261 307.584 
L 192.304321 307.584 
L 192.304321 228.332763 
L 190.314261 228.332763 
z
" style="fill:#1f77b4;"/>
   </g>
   <g id="patch_28">
    <path clip-path="url(#pea8160cbbe)" d="M 192.304321 307.584 
L 194.29438 307.584 
L 194.29438 267.036855 
L 192.304321 267.036855 
z
" style="fill:#1f77b4;"/>
   </g>
   <g id="patch_29">
    <path clip-path="url(#pea8160cbbe)" d="M 194.29438 307.584 
L 196.28444 307.584 
L 196.28444 279.938219 
L 194.29438 279.938219 
z
" style="fill:#1f77b4;"/>
   </g>
   <g id="patch_30">
    <path clip-path="url(#pea8160cbbe)" d="M 196.284436 307.584 
L 198.274492 307.584 
L 198.274492 281.781221 
L 196.284436 281.781221 
z
" style="fill:#1f77b4;"/>
   </g>
   <g id="patch_31">
    <path clip-path="url(#pea8160cbbe)" d="M 198.274495 307.584 
L 200.264555 307.584 
L 200.264555 276.252115 
L 198.274495 276.252115 
z
" style="fill:#1f77b4;"/>
   </g>
   <g id="patch_32">
    <path clip-path="url(#pea8160cbbe)" d="M 200.264555 307.584 
L 202.254614 307.584 
L 202.254614 263.350751 
L 200.264555 263.350751 
z
" style="fill:#1f77b4;"/>
   </g>
   <g id="patch_33">
    <path clip-path="url(#pea8160cbbe)" d="M 202.254614 307.584 
L 204.244674 307.584 
L 204.244674 272.566011 
L 202.254614 272.566011 
z
" style="fill:#1f77b4;"/>
   </g>
   <g id="patch_34">
    <path clip-path="url(#pea8160cbbe)" d="M 204.244674 307.584 
L 206.234732 307.584 
L 206.234732 254.135439 
L 204.244674 254.135439 
z
" style="fill:#1f77b4;"/>
   </g>
   <g id="patch_35">
    <path clip-path="url(#pea8160cbbe)" d="M 206.234732 307.584 
L 208.224791 307.584 
L 208.224791 235.704971 
L 206.234732 235.704971 
z
" style="fill:#1f77b4;"/>
   </g>
   <g id="patch_36">
    <path clip-path="url(#pea8160cbbe)" d="M 208.224789 307.584 
L 210.214847 307.584 
L 210.214847 252.292385 
L 208.224789 252.292385 
z
" style="fill:#1f77b4;"/>
   </g>
   <g id="patch_37">
    <path clip-path="url(#pea8160cbbe)" d="M 210.214849 307.584 
L 212.204908 307.584 
L 212.204908 255.978543 
L 210.214849 255.978543 
z
" style="fill:#1f77b4;"/>
   </g>
   <g id="patch_38">
    <path clip-path="url(#pea8160cbbe)" d="M 212.204908 307.584 
L 214.194968 307.584 
L 214.194968 226.489711 
L 212.204908 226.489711 
z
" style="fill:#1f77b4;"/>
   </g>
   <g id="patch_39">
    <path clip-path="url(#pea8160cbbe)" d="M 214.194968 307.584 
L 216.185025 307.584 
L 216.185025 184.099394 
L 214.194968 184.099394 
z
" style="fill:#1f77b4;"/>
   </g>
   <g id="patch_40">
    <path clip-path="url(#pea8160cbbe)" d="M 216.185025 307.584 
L 218.175085 307.584 
L 218.175085 171.19815 
L 216.185025 171.19815 
z
" style="fill:#1f77b4;"/>
   </g>
   <g id="patch_41">
    <path clip-path="url(#pea8160cbbe)" d="M 218.175085 307.584 
L 220.165143 307.584 
L 220.165143 173.041136 
L 218.175085 173.041136 
z
" style="fill:#1f77b4;"/>
   </g>
   <g id="patch_42">
    <path clip-path="url(#pea8160cbbe)" d="M 220.165142 307.584 
L 222.155201 307.584 
L 222.155201 217.274406 
L 220.165142 217.274406 
z
" style="fill:#1f77b4;"/>
   </g>
   <g id="patch_43">
    <path clip-path="url(#pea8160cbbe)" d="M 222.155202 307.584 
L 224.14526 307.584 
L 224.14526 239.391042 
L 222.155202 239.391042 
z
" style="fill:#1f77b4;"/>
   </g>
   <g id="patch_44">
    <path clip-path="url(#pea8160cbbe)" d="M 224.145259 307.584 
L 226.135318 307.584 
L 226.135318 246.763253 
L 224.145259 246.763253 
z
" style="fill:#1f77b4;"/>
   </g>
   <g id="patch_45">
    <path clip-path="url(#pea8160cbbe)" d="M 226.135319 307.584 
L 228.125378 307.584 
L 228.125378 200.686956 
L 226.135319 200.686956 
z
" style="fill:#1f77b4;"/>
   </g>
   <g id="patch_46">
    <path clip-path="url(#pea8160cbbe)" d="M 228.125377 307.584 
L 230.115436 307.584 
L 230.115436 195.157799 
L 228.125377 195.157799 
z
" style="fill:#1f77b4;"/>
   </g>
   <g id="patch_47">
    <path clip-path="url(#pea8160cbbe)" d="M 230.115437 307.584 
L 232.105495 307.584 
L 232.105495 165.668924 
L 230.115437 165.668924 
z
" style="fill:#1f77b4;"/>
   </g>
   <g id="patch_48">
    <path clip-path="url(#pea8160cbbe)" d="M 232.105495 307.584 
L 234.095554 307.584 
L 234.095554 180.413363 
L 232.105495 180.413363 
z
" style="fill:#1f77b4;"/>
   </g>
   <g id="patch_49">
    <path clip-path="url(#pea8160cbbe)" d="M 234.095554 307.584 
L 236.085613 307.584 
L 236.085613 167.511986 
L 234.095554 167.511986 
z
" style="fill:#1f77b4;"/>
   </g>
   <g id="patch_50">
    <path clip-path="url(#pea8160cbbe)" d="M 236.085613 307.584 
L 238.075671 307.584 
L 238.075671 82.73157 
L 236.085613 82.73157 
z
" style="fill:#1f77b4;"/>
   </g>
   <g id="patch_51">
    <path clip-path="url(#pea8160cbbe)" d="M 238.075671 307.584 
L 240.06573 307.584 
L 240.06573 152.767563 
L 238.075671 152.767563 
z
" style="fill:#1f77b4;"/>
   </g>
   <g id="patch_52">
    <path clip-path="url(#pea8160cbbe)" d="M 240.06573 307.584 
L 242.055789 307.584 
L 242.055789 143.552309 
L 240.06573 143.552309 
z
" style="fill:#1f77b4;"/>
   </g>
   <g id="patch_53">
    <path clip-path="url(#pea8160cbbe)" d="M 242.055789 307.584 
L 244.045847 307.584 
L 244.045847 139.866183 
L 242.055789 139.866183 
z
" style="fill:#1f77b4;"/>
   </g>
   <g id="patch_54">
    <path clip-path="url(#pea8160cbbe)" d="M 244.045847 307.584 
L 246.035906 307.584 
L 246.035906 211.745248 
L 244.045847 211.745248 
z
" style="fill:#1f77b4;"/>
   </g>
   <g id="patch_55">
    <path clip-path="url(#pea8160cbbe)" d="M 246.035906 307.584 
L 248.025965 307.584 
L 248.025965 222.803606 
L 246.035906 222.803606 
z
" style="fill:#1f77b4;"/>
   </g>
   <g id="patch_56">
    <path clip-path="url(#pea8160cbbe)" d="M 248.025965 307.584 
L 250.016024 307.584 
L 250.016024 191.471665 
L 248.025965 191.471665 
z
" style="fill:#1f77b4;"/>
   </g>
   <g id="patch_57">
    <path clip-path="url(#pea8160cbbe)" d="M 250.016023 307.584 
L 252.006081 307.584 
L 252.006081 224.646618 
L 250.016023 224.646618 
z
" style="fill:#1f77b4;"/>
   </g>
   <g id="patch_58">
    <path clip-path="url(#pea8160cbbe)" d="M 252.006082 307.584 
L 253.996142 307.584 
L 253.996142 182.256462 
L 252.006082 182.256462 
z
" style="fill:#1f77b4;"/>
   </g>
   <g id="patch_59">
    <path clip-path="url(#pea8160cbbe)" d="M 253.996142 307.584 
L 255.986199 307.584 
L 255.986199 200.686878 
L 253.996142 200.686878 
z
" style="fill:#1f77b4;"/>
   </g>
   <g id="patch_60">
    <path clip-path="url(#pea8160cbbe)" d="M 255.986199 307.584 
L 257.976259 307.584 
L 257.976259 265.193803 
L 255.986199 265.193803 
z
" style="fill:#1f77b4;"/>
   </g>
   <g id="patch_61">
    <path clip-path="url(#pea8160cbbe)" d="M 257.976257 307.584 
L 259.966314 307.584 
L 259.966314 265.193762 
L 257.976257 265.193762 
z
" style="fill:#1f77b4;"/>
   </g>
   <g id="patch_62">
    <path clip-path="url(#pea8160cbbe)" d="M 259.966316 307.584 
L 261.956376 307.584 
L 261.956376 250.449387 
L 259.966316 250.449387 
z
" style="fill:#1f77b4;"/>
   </g>
   <g id="patch_63">
    <path clip-path="url(#pea8160cbbe)" d="M 261.956376 307.584 
L 263.946435 307.584 
L 263.946435 265.193803 
L 261.956376 265.193803 
z
" style="fill:#1f77b4;"/>
   </g>
   <g id="patch_64">
    <path clip-path="url(#pea8160cbbe)" d="M 263.946435 307.584 
L 265.936493 307.584 
L 265.936493 263.350708 
L 263.946435 263.350708 
z
" style="fill:#1f77b4;"/>
   </g>
   <g id="patch_65">
    <path clip-path="url(#pea8160cbbe)" d="M 265.936493 307.584 
L 267.926552 307.584 
L 267.926552 267.036855 
L 265.936493 267.036855 
z
" style="fill:#1f77b4;"/>
   </g>
   <g id="patch_66">
    <path clip-path="url(#pea8160cbbe)" d="M 267.92655 307.584 
L 269.916606 307.584 
L 269.916606 289.153462 
L 267.92655 289.153462 
z
" style="fill:#1f77b4;"/>
   </g>
   <g id="patch_67">
    <path clip-path="url(#pea8160cbbe)" d="M 269.91661 307.584 
L 271.906669 307.584 
L 271.906669 302.054844 
L 269.91661 302.054844 
z
" style="fill:#1f77b4;"/>
   </g>
   <g id="patch_68">
    <path clip-path="url(#pea8160cbbe)" d="M 271.906669 307.584 
L 273.896729 307.584 
L 273.896729 294.682636 
L 271.906669 294.682636 
z
" style="fill:#1f77b4;"/>
   </g>
   <g id="patch_69">
    <path clip-path="url(#pea8160cbbe)" d="M 273.896729 307.584 
L 275.886788 307.584 
L 275.886788 294.682636 
L 273.896729 294.682636 
z
" style="fill:#1f77b4;"/>
   </g>
   <g id="patch_70">
    <path clip-path="url(#pea8160cbbe)" d="M 275.886785 307.584 
L 277.87684 307.584 
L 277.87684 278.09511 
L 275.886785 278.09511 
z
" style="fill:#1f77b4;"/>
   </g>
   <g id="patch_71">
    <path clip-path="url(#pea8160cbbe)" d="M 277.876844 307.584 
L 279.866904 307.584 
L 279.866904 274.409063 
L 277.876844 274.409063 
z
" style="fill:#1f77b4;"/>
   </g>
   <g id="patch_72">
    <path clip-path="url(#pea8160cbbe)" d="M 279.866904 307.584 
L 281.856963 307.584 
L 281.856963 248.606335 
L 279.866904 248.606335 
z
" style="fill:#1f77b4;"/>
   </g>
   <g id="patch_73">
    <path clip-path="url(#pea8160cbbe)" d="M 281.856963 307.584 
L 283.847023 307.584 
L 283.847023 237.548023 
L 281.856963 237.548023 
z
" style="fill:#1f77b4;"/>
   </g>
   <g id="patch_74">
    <path clip-path="url(#pea8160cbbe)" d="M 283.847023 307.584 
L 285.837082 307.584 
L 285.837082 270.722959 
L 283.847023 270.722959 
z
" style="fill:#1f77b4;"/>
   </g>
   <g id="patch_75">
    <path clip-path="url(#pea8160cbbe)" d="M 285.837082 307.584 
L 287.827138 307.584 
L 287.827138 274.408999 
L 285.837082 274.408999 
z
" style="fill:#1f77b4;"/>
   </g>
   <g id="patch_76">
    <path clip-path="url(#pea8160cbbe)" d="M 287.827138 307.584 
L 289.817197 307.584 
L 289.817197 285.467376 
L 287.827138 285.467376 
z
" style="fill:#1f77b4;"/>
   </g>
   <g id="patch_77">
    <path clip-path="url(#pea8160cbbe)" d="M 289.817197 307.584 
L 291.807257 307.584 
L 291.807257 278.095167 
L 289.817197 278.095167 
z
" style="fill:#1f77b4;"/>
   </g>
   <g id="patch_78">
    <path clip-path="url(#pea8160cbbe)" d="M 291.807257 307.584 
L 293.797316 307.584 
L 293.797316 289.15348 
L 291.807257 289.15348 
z
" style="fill:#1f77b4;"/>
   </g>
   <g id="patch_79">
    <path clip-path="url(#pea8160cbbe)" d="M 293.797316 307.584 
L 295.787376 307.584 
L 295.787376 289.15348 
L 293.797316 289.15348 
z
" style="fill:#1f77b4;"/>
   </g>
   <g id="patch_80">
    <path clip-path="url(#pea8160cbbe)" d="M 295.787372 307.584 
L 297.777427 307.584 
L 297.777427 283.624277 
L 295.787372 283.624277 
z
" style="fill:#1f77b4;"/>
   </g>
   <g id="patch_81">
    <path clip-path="url(#pea8160cbbe)" d="M 297.777431 307.584 
L 299.767491 307.584 
L 299.767491 278.095167 
L 297.777431 278.095167 
z
" style="fill:#1f77b4;"/>
   </g>
   <g id="patch_82">
    <path clip-path="url(#pea8160cbbe)" d="M 299.767491 307.584 
L 301.75755 307.584 
L 301.75755 279.938219 
L 299.767491 279.938219 
z
" style="fill:#1f77b4;"/>
   </g>
   <g id="patch_83">
    <path clip-path="url(#pea8160cbbe)" d="M 301.75755 307.584 
L 303.74761 307.584 
L 303.74761 289.15348 
L 301.75755 289.15348 
z
" style="fill:#1f77b4;"/>
   </g>
   <g id="patch_84">
    <path clip-path="url(#pea8160cbbe)" d="M 303.74761 307.584 
L 305.737669 307.584 
L 305.737669 292.839584 
L 303.74761 292.839584 
z
" style="fill:#1f77b4;"/>
   </g>
   <g id="patch_85">
    <path clip-path="url(#pea8160cbbe)" d="M 305.737669 307.584 
L 307.727729 307.584 
L 307.727729 296.525688 
L 305.737669 296.525688 
z
" style="fill:#1f77b4;"/>
   </g>
   <g id="patch_86">
    <path clip-path="url(#pea8160cbbe)" d="M 307.727729 307.584 
L 309.717788 307.584 
L 309.717788 287.310428 
L 307.727729 287.310428 
z
" style="fill:#1f77b4;"/>
   </g>
   <g id="patch_87">
    <path clip-path="url(#pea8160cbbe)" d="M 309.717788 307.584 
L 311.707848 307.584 
L 311.707848 296.525688 
L 309.717788 296.525688 
z
" style="fill:#1f77b4;"/>
   </g>
   <g id="patch_88">
    <path clip-path="url(#pea8160cbbe)" d="M 311.707848 307.584 
L 313.697899 307.584 
L 313.697899 298.368704 
L 311.707848 298.368704 
z
" style="fill:#1f77b4;"/>
   </g>
   <g id="patch_89">
    <path clip-path="url(#pea8160cbbe)" d="M 313.697899 307.584 
L 315.687959 307.584 
L 315.687959 305.740948 
L 313.697899 305.740948 
z
" style="fill:#1f77b4;"/>
   </g>
   <g id="patch_90">
    <path clip-path="url(#pea8160cbbe)" d="M 315.687959 307.584 
L 317.678018 307.584 
L 317.678018 307.584 
L 315.687959 307.584 
z
" style="fill:#1f77b4;"/>
   </g>
   <g id="patch_91">
    <path clip-path="url(#pea8160cbbe)" d="M 317.678018 307.584 
L 319.668078 307.584 
L 319.668078 303.897896 
L 317.678018 303.897896 
z
" style="fill:#1f77b4;"/>
   </g>
   <g id="patch_92">
    <path clip-path="url(#pea8160cbbe)" d="M 319.668078 307.584 
L 321.658137 307.584 
L 321.658137 300.211792 
L 319.668078 300.211792 
z
" style="fill:#1f77b4;"/>
   </g>
   <g id="patch_93">
    <path clip-path="url(#pea8160cbbe)" d="M 321.658137 307.584 
L 323.648197 307.584 
L 323.648197 305.740948 
L 321.658137 305.740948 
z
" style="fill:#1f77b4;"/>
   </g>
   <g id="patch_94">
    <path clip-path="url(#pea8160cbbe)" d="M 323.648197 307.584 
L 325.638256 307.584 
L 325.638256 298.36874 
L 323.648197 298.36874 
z
" style="fill:#1f77b4;"/>
   </g>
   <g id="patch_95">
    <path clip-path="url(#pea8160cbbe)" d="M 325.638256 307.584 
L 327.628316 307.584 
L 327.628316 302.054844 
L 325.638256 302.054844 
z
" style="fill:#1f77b4;"/>
   </g>
   <g id="patch_96">
    <path clip-path="url(#pea8160cbbe)" d="M 327.628316 307.584 
L 329.618375 307.584 
L 329.618375 305.740948 
L 327.628316 305.740948 
z
" style="fill:#1f77b4;"/>
   </g>
   <g id="patch_97">
    <path clip-path="url(#pea8160cbbe)" d="M 329.618383 307.584 
L 331.608435 307.584 
L 331.608435 303.897882 
L 329.618383 303.897882 
z
" style="fill:#1f77b4;"/>
   </g>
   <g id="patch_98">
    <path clip-path="url(#pea8160cbbe)" d="M 331.608427 307.584 
L 333.598487 307.584 
L 333.598487 305.740948 
L 331.608427 305.740948 
z
" style="fill:#1f77b4;"/>
   </g>
   <g id="patch_99">
    <path clip-path="url(#pea8160cbbe)" d="M 333.598487 307.584 
L 335.588546 307.584 
L 335.588546 307.584 
L 333.598487 307.584 
z
" style="fill:#1f77b4;"/>
   </g>
   <g id="patch_100">
    <path clip-path="url(#pea8160cbbe)" d="M 335.588546 307.584 
L 337.578605 307.584 
L 337.578605 307.584 
L 335.588546 307.584 
z
" style="fill:#1f77b4;"/>
   </g>
   <g id="patch_101">
    <path clip-path="url(#pea8160cbbe)" d="M 337.578605 307.584 
L 339.568665 307.584 
L 339.568665 303.897896 
L 337.578605 303.897896 
z
" style="fill:#1f77b4;"/>
   </g>
   <g id="patch_102">
    <path clip-path="url(#pea8160cbbe)" d="M 339.568665 307.584 
L 341.558724 307.584 
L 341.558724 305.740948 
L 339.568665 305.740948 
z
" style="fill:#1f77b4;"/>
   </g>
   <g id="matplotlib.axis_1">
    <g id="xtick_1">
     <g id="line2d_1">
      <defs>
       <path d="M 0 0 
L 0 3.5 
" id="m2b30361453" style="stroke:#000000;stroke-width:0.8;"/>
      </defs>
      <g>
       <use style="stroke:#000000;stroke-width:0.8;" x="106.304676" xlink:href="#m2b30361453" y="307.584"/>
      </g>
     </g>
     <g id="text_1">
      <!-- −2 -->
      <defs>
       <path d="M 10.59375 35.5 
L 73.1875 35.5 
L 73.1875 27.203125 
L 10.59375 27.203125 
z
" id="DejaVuSans-8722"/>
       <path d="M 19.1875 8.296875 
L 53.609375 8.296875 
L 53.609375 0 
L 7.328125 0 
L 7.328125 8.296875 
Q 12.9375 14.109375 22.625 23.890625 
Q 32.328125 33.6875 34.8125 36.53125 
Q 39.546875 41.84375 41.421875 45.53125 
Q 43.3125 49.21875 43.3125 52.78125 
Q 43.3125 58.59375 39.234375 62.25 
Q 35.15625 65.921875 28.609375 65.921875 
Q 23.96875 65.921875 18.8125 64.3125 
Q 13.671875 62.703125 7.8125 59.421875 
L 7.8125 69.390625 
Q 13.765625 71.78125 18.9375 73 
Q 24.125 74.21875 28.421875 74.21875 
Q 39.75 74.21875 46.484375 68.546875 
Q 53.21875 62.890625 53.21875 53.421875 
Q 53.21875 48.921875 51.53125 44.890625 
Q 49.859375 40.875 45.40625 35.40625 
Q 44.1875 33.984375 37.640625 27.21875 
Q 31.109375 20.453125 19.1875 8.296875 
z
" id="DejaVuSans-50"/>
      </defs>
      <g transform="translate(93.773817 327.501344)scale(0.17 -0.17)">
       <use xlink:href="#DejaVuSans-8722"/>
       <use x="83.789062" xlink:href="#DejaVuSans-50"/>
      </g>
     </g>
    </g>
    <g id="xtick_2">
     <g id="line2d_2">
      <g>
       <use style="stroke:#000000;stroke-width:0.8;" x="171.248574" xlink:href="#m2b30361453" y="307.584"/>
      </g>
     </g>
     <g id="text_2">
      <!-- −1 -->
      <defs>
       <path d="M 12.40625 8.296875 
L 28.515625 8.296875 
L 28.515625 63.921875 
L 10.984375 60.40625 
L 10.984375 69.390625 
L 28.421875 72.90625 
L 38.28125 72.90625 
L 38.28125 8.296875 
L 54.390625 8.296875 
L 54.390625 0 
L 12.40625 0 
z
" id="DejaVuSans-49"/>
      </defs>
      <g transform="translate(158.717715 327.501344)scale(0.17 -0.17)">
       <use xlink:href="#DejaVuSans-8722"/>
       <use x="83.789062" xlink:href="#DejaVuSans-49"/>
      </g>
     </g>
    </g>
    <g id="xtick_3">
     <g id="line2d_3">
      <g>
       <use style="stroke:#000000;stroke-width:0.8;" x="236.192472" xlink:href="#m2b30361453" y="307.584"/>
      </g>
     </g>
     <g id="text_3">
      <!-- 0 -->
      <defs>
       <path d="M 31.78125 66.40625 
Q 24.171875 66.40625 20.328125 58.90625 
Q 16.5 51.421875 16.5 36.375 
Q 16.5 21.390625 20.328125 13.890625 
Q 24.171875 6.390625 31.78125 6.390625 
Q 39.453125 6.390625 43.28125 13.890625 
Q 47.125 21.390625 47.125 36.375 
Q 47.125 51.421875 43.28125 58.90625 
Q 39.453125 66.40625 31.78125 66.40625 
z
M 31.78125 74.21875 
Q 44.046875 74.21875 50.515625 64.515625 
Q 56.984375 54.828125 56.984375 36.375 
Q 56.984375 17.96875 50.515625 8.265625 
Q 44.046875 -1.421875 31.78125 -1.421875 
Q 19.53125 -1.421875 13.0625 8.265625 
Q 6.59375 17.96875 6.59375 36.375 
Q 6.59375 54.828125 13.0625 64.515625 
Q 19.53125 74.21875 31.78125 74.21875 
z
" id="DejaVuSans-48"/>
      </defs>
      <g transform="translate(230.784347 327.501344)scale(0.17 -0.17)">
       <use xlink:href="#DejaVuSans-48"/>
      </g>
     </g>
    </g>
    <g id="xtick_4">
     <g id="line2d_4">
      <g>
       <use style="stroke:#000000;stroke-width:0.8;" x="301.13637" xlink:href="#m2b30361453" y="307.584"/>
      </g>
     </g>
     <g id="text_4">
      <!-- 1 -->
      <g transform="translate(295.728245 327.501344)scale(0.17 -0.17)">
       <use xlink:href="#DejaVuSans-49"/>
      </g>
     </g>
    </g>
    <g id="xtick_5">
     <g id="line2d_5">
      <g>
       <use style="stroke:#000000;stroke-width:0.8;" x="366.080268" xlink:href="#m2b30361453" y="307.584"/>
      </g>
     </g>
     <g id="text_5">
      <!-- 2 -->
      <g transform="translate(360.672143 327.501344)scale(0.17 -0.17)">
       <use xlink:href="#DejaVuSans-50"/>
      </g>
     </g>
    </g>
    <g id="text_6">
     <!-- Position in Radian -->
     <defs>
      <path d="M 19.671875 64.796875 
L 19.671875 37.40625 
L 32.078125 37.40625 
Q 38.96875 37.40625 42.71875 40.96875 
Q 46.484375 44.53125 46.484375 51.125 
Q 46.484375 57.671875 42.71875 61.234375 
Q 38.96875 64.796875 32.078125 64.796875 
z
M 9.8125 72.90625 
L 32.078125 72.90625 
Q 44.34375 72.90625 50.609375 67.359375 
Q 56.890625 61.8125 56.890625 51.125 
Q 56.890625 40.328125 50.609375 34.8125 
Q 44.34375 29.296875 32.078125 29.296875 
L 19.671875 29.296875 
L 19.671875 0 
L 9.8125 0 
z
" id="DejaVuSans-80"/>
      <path d="M 30.609375 48.390625 
Q 23.390625 48.390625 19.1875 42.75 
Q 14.984375 37.109375 14.984375 27.296875 
Q 14.984375 17.484375 19.15625 11.84375 
Q 23.34375 6.203125 30.609375 6.203125 
Q 37.796875 6.203125 41.984375 11.859375 
Q 46.1875 17.53125 46.1875 27.296875 
Q 46.1875 37.015625 41.984375 42.703125 
Q 37.796875 48.390625 30.609375 48.390625 
z
M 30.609375 56 
Q 42.328125 56 49.015625 48.375 
Q 55.71875 40.765625 55.71875 27.296875 
Q 55.71875 13.875 49.015625 6.21875 
Q 42.328125 -1.421875 30.609375 -1.421875 
Q 18.84375 -1.421875 12.171875 6.21875 
Q 5.515625 13.875 5.515625 27.296875 
Q 5.515625 40.765625 12.171875 48.375 
Q 18.84375 56 30.609375 56 
z
" id="DejaVuSans-111"/>
      <path d="M 44.28125 53.078125 
L 44.28125 44.578125 
Q 40.484375 46.53125 36.375 47.5 
Q 32.28125 48.484375 27.875 48.484375 
Q 21.1875 48.484375 17.84375 46.4375 
Q 14.5 44.390625 14.5 40.28125 
Q 14.5 37.15625 16.890625 35.375 
Q 19.28125 33.59375 26.515625 31.984375 
L 29.59375 31.296875 
Q 39.15625 29.25 43.1875 25.515625 
Q 47.21875 21.78125 47.21875 15.09375 
Q 47.21875 7.46875 41.1875 3.015625 
Q 35.15625 -1.421875 24.609375 -1.421875 
Q 20.21875 -1.421875 15.453125 -0.5625 
Q 10.6875 0.296875 5.421875 2 
L 5.421875 11.28125 
Q 10.40625 8.6875 15.234375 7.390625 
Q 20.0625 6.109375 24.8125 6.109375 
Q 31.15625 6.109375 34.5625 8.28125 
Q 37.984375 10.453125 37.984375 14.40625 
Q 37.984375 18.0625 35.515625 20.015625 
Q 33.0625 21.96875 24.703125 23.78125 
L 21.578125 24.515625 
Q 13.234375 26.265625 9.515625 29.90625 
Q 5.8125 33.546875 5.8125 39.890625 
Q 5.8125 47.609375 11.28125 51.796875 
Q 16.75 56 26.8125 56 
Q 31.78125 56 36.171875 55.265625 
Q 40.578125 54.546875 44.28125 53.078125 
z
" id="DejaVuSans-115"/>
      <path d="M 9.421875 54.6875 
L 18.40625 54.6875 
L 18.40625 0 
L 9.421875 0 
z
M 9.421875 75.984375 
L 18.40625 75.984375 
L 18.40625 64.59375 
L 9.421875 64.59375 
z
" id="DejaVuSans-105"/>
      <path d="M 18.3125 70.21875 
L 18.3125 54.6875 
L 36.8125 54.6875 
L 36.8125 47.703125 
L 18.3125 47.703125 
L 18.3125 18.015625 
Q 18.3125 11.328125 20.140625 9.421875 
Q 21.96875 7.515625 27.59375 7.515625 
L 36.8125 7.515625 
L 36.8125 0 
L 27.59375 0 
Q 17.1875 0 13.234375 3.875 
Q 9.28125 7.765625 9.28125 18.015625 
L 9.28125 47.703125 
L 2.6875 47.703125 
L 2.6875 54.6875 
L 9.28125 54.6875 
L 9.28125 70.21875 
z
" id="DejaVuSans-116"/>
      <path d="M 54.890625 33.015625 
L 54.890625 0 
L 45.90625 0 
L 45.90625 32.71875 
Q 45.90625 40.484375 42.875 44.328125 
Q 39.84375 48.1875 33.796875 48.1875 
Q 26.515625 48.1875 22.3125 43.546875 
Q 18.109375 38.921875 18.109375 30.90625 
L 18.109375 0 
L 9.078125 0 
L 9.078125 54.6875 
L 18.109375 54.6875 
L 18.109375 46.1875 
Q 21.34375 51.125 25.703125 53.5625 
Q 30.078125 56 35.796875 56 
Q 45.21875 56 50.046875 50.171875 
Q 54.890625 44.34375 54.890625 33.015625 
z
" id="DejaVuSans-110"/>
      <path id="DejaVuSans-32"/>
      <path d="M 44.390625 34.1875 
Q 47.5625 33.109375 50.5625 29.59375 
Q 53.5625 26.078125 56.59375 19.921875 
L 66.609375 0 
L 56 0 
L 46.6875 18.703125 
Q 43.0625 26.03125 39.671875 28.421875 
Q 36.28125 30.8125 30.421875 30.8125 
L 19.671875 30.8125 
L 19.671875 0 
L 9.8125 0 
L 9.8125 72.90625 
L 32.078125 72.90625 
Q 44.578125 72.90625 50.734375 67.671875 
Q 56.890625 62.453125 56.890625 51.90625 
Q 56.890625 45.015625 53.6875 40.46875 
Q 50.484375 35.9375 44.390625 34.1875 
z
M 19.671875 64.796875 
L 19.671875 38.921875 
L 32.078125 38.921875 
Q 39.203125 38.921875 42.84375 42.21875 
Q 46.484375 45.515625 46.484375 51.90625 
Q 46.484375 58.296875 42.84375 61.546875 
Q 39.203125 64.796875 32.078125 64.796875 
z
" id="DejaVuSans-82"/>
      <path d="M 34.28125 27.484375 
Q 23.390625 27.484375 19.1875 25 
Q 14.984375 22.515625 14.984375 16.5 
Q 14.984375 11.71875 18.140625 8.90625 
Q 21.296875 6.109375 26.703125 6.109375 
Q 34.1875 6.109375 38.703125 11.40625 
Q 43.21875 16.703125 43.21875 25.484375 
L 43.21875 27.484375 
z
M 52.203125 31.203125 
L 52.203125 0 
L 43.21875 0 
L 43.21875 8.296875 
Q 40.140625 3.328125 35.546875 0.953125 
Q 30.953125 -1.421875 24.3125 -1.421875 
Q 15.921875 -1.421875 10.953125 3.296875 
Q 6 8.015625 6 15.921875 
Q 6 25.140625 12.171875 29.828125 
Q 18.359375 34.515625 30.609375 34.515625 
L 43.21875 34.515625 
L 43.21875 35.40625 
Q 43.21875 41.609375 39.140625 45 
Q 35.0625 48.390625 27.6875 48.390625 
Q 23 48.390625 18.546875 47.265625 
Q 14.109375 46.140625 10.015625 43.890625 
L 10.015625 52.203125 
Q 14.9375 54.109375 19.578125 55.046875 
Q 24.21875 56 28.609375 56 
Q 40.484375 56 46.34375 49.84375 
Q 52.203125 43.703125 52.203125 31.203125 
z
" id="DejaVuSans-97"/>
      <path d="M 45.40625 46.390625 
L 45.40625 75.984375 
L 54.390625 75.984375 
L 54.390625 0 
L 45.40625 0 
L 45.40625 8.203125 
Q 42.578125 3.328125 38.25 0.953125 
Q 33.9375 -1.421875 27.875 -1.421875 
Q 17.96875 -1.421875 11.734375 6.484375 
Q 5.515625 14.40625 5.515625 27.296875 
Q 5.515625 40.1875 11.734375 48.09375 
Q 17.96875 56 27.875 56 
Q 33.9375 56 38.25 53.625 
Q 42.578125 51.265625 45.40625 46.390625 
z
M 14.796875 27.296875 
Q 14.796875 17.390625 18.875 11.75 
Q 22.953125 6.109375 30.078125 6.109375 
Q 37.203125 6.109375 41.296875 11.75 
Q 45.40625 17.390625 45.40625 27.296875 
Q 45.40625 37.203125 41.296875 42.84375 
Q 37.203125 48.484375 30.078125 48.484375 
Q 22.953125 48.484375 18.875 42.84375 
Q 14.796875 37.203125 14.796875 27.296875 
z
" id="DejaVuSans-100"/>
     </defs>
     <g transform="translate(102.024844 357.832125)scale(0.3 -0.3)">
      <use xlink:href="#DejaVuSans-80"/>
      <use x="60.255859" xlink:href="#DejaVuSans-111"/>
      <use x="121.4375" xlink:href="#DejaVuSans-115"/>
      <use x="173.537109" xlink:href="#DejaVuSans-105"/>
      <use x="201.320312" xlink:href="#DejaVuSans-116"/>
      <use x="240.529297" xlink:href="#DejaVuSans-105"/>
      <use x="268.3125" xlink:href="#DejaVuSans-111"/>
      <use x="329.494141" xlink:href="#DejaVuSans-110"/>
      <use x="392.873047" xlink:href="#DejaVuSans-32"/>
      <use x="424.660156" xlink:href="#DejaVuSans-105"/>
      <use x="452.443359" xlink:href="#DejaVuSans-110"/>
      <use x="515.822266" xlink:href="#DejaVuSans-32"/>
      <use x="547.609375" xlink:href="#DejaVuSans-82"/>
      <use x="617.060547" xlink:href="#DejaVuSans-97"/>
      <use x="678.339844" xlink:href="#DejaVuSans-100"/>
      <use x="741.816406" xlink:href="#DejaVuSans-105"/>
      <use x="769.599609" xlink:href="#DejaVuSans-97"/>
      <use x="830.878906" xlink:href="#DejaVuSans-110"/>
     </g>
    </g>
   </g>
   <g id="matplotlib.axis_2">
    <g id="ytick_1">
     <g id="line2d_6">
      <defs>
       <path d="M 0 0 
L -3.5 0 
" id="ma3fe1a7c49" style="stroke:#000000;stroke-width:0.8;"/>
      </defs>
      <g>
       <use style="stroke:#000000;stroke-width:0.8;" x="57.6" xlink:href="#ma3fe1a7c49" y="307.584"/>
      </g>
     </g>
     <g id="text_7">
      <!-- 0.0 -->
      <defs>
       <path d="M 10.6875 12.40625 
L 21 12.40625 
L 21 0 
L 10.6875 0 
z
" id="DejaVuSans-46"/>
      </defs>
      <g transform="translate(23.564687 314.042672)scale(0.17 -0.17)">
       <use xlink:href="#DejaVuSans-48"/>
       <use x="63.623047" xlink:href="#DejaVuSans-46"/>
       <use x="95.410156" xlink:href="#DejaVuSans-48"/>
      </g>
     </g>
    </g>
    <g id="ytick_2">
     <g id="line2d_7">
      <g>
       <use style="stroke:#000000;stroke-width:0.8;" x="57.6" xlink:href="#ma3fe1a7c49" y="236.988777"/>
      </g>
     </g>
     <g id="text_8">
      <!-- 0.5 -->
      <defs>
       <path d="M 10.796875 72.90625 
L 49.515625 72.90625 
L 49.515625 64.59375 
L 19.828125 64.59375 
L 19.828125 46.734375 
Q 21.96875 47.46875 24.109375 47.828125 
Q 26.265625 48.1875 28.421875 48.1875 
Q 40.625 48.1875 47.75 41.5 
Q 54.890625 34.8125 54.890625 23.390625 
Q 54.890625 11.625 47.5625 5.09375 
Q 40.234375 -1.421875 26.90625 -1.421875 
Q 22.3125 -1.421875 17.546875 -0.640625 
Q 12.796875 0.140625 7.71875 1.703125 
L 7.71875 11.625 
Q 12.109375 9.234375 16.796875 8.0625 
Q 21.484375 6.890625 26.703125 6.890625 
Q 35.15625 6.890625 40.078125 11.328125 
Q 45.015625 15.765625 45.015625 23.390625 
Q 45.015625 31 40.078125 35.4375 
Q 35.15625 39.890625 26.703125 39.890625 
Q 22.75 39.890625 18.8125 39.015625 
Q 14.890625 38.140625 10.796875 36.28125 
z
" id="DejaVuSans-53"/>
      </defs>
      <g transform="translate(23.564687 243.447448)scale(0.17 -0.17)">
       <use xlink:href="#DejaVuSans-48"/>
       <use x="63.623047" xlink:href="#DejaVuSans-46"/>
       <use x="95.410156" xlink:href="#DejaVuSans-53"/>
      </g>
     </g>
    </g>
    <g id="ytick_3">
     <g id="line2d_8">
      <g>
       <use style="stroke:#000000;stroke-width:0.8;" x="57.6" xlink:href="#ma3fe1a7c49" y="166.393553"/>
      </g>
     </g>
     <g id="text_9">
      <!-- 1.0 -->
      <g transform="translate(23.564687 172.852225)scale(0.17 -0.17)">
       <use xlink:href="#DejaVuSans-49"/>
       <use x="63.623047" xlink:href="#DejaVuSans-46"/>
       <use x="95.410156" xlink:href="#DejaVuSans-48"/>
      </g>
     </g>
    </g>
    <g id="ytick_4">
     <g id="line2d_9">
      <g>
       <use style="stroke:#000000;stroke-width:0.8;" x="57.6" xlink:href="#ma3fe1a7c49" y="95.79833"/>
      </g>
     </g>
     <g id="text_10">
      <!-- 1.5 -->
      <g transform="translate(23.564687 102.257001)scale(0.17 -0.17)">
       <use xlink:href="#DejaVuSans-49"/>
       <use x="63.623047" xlink:href="#DejaVuSans-46"/>
       <use x="95.410156" xlink:href="#DejaVuSans-53"/>
      </g>
     </g>
    </g>
    <g id="text_11">
     <!-- Density -->
     <defs>
      <path d="M 19.671875 64.796875 
L 19.671875 8.109375 
L 31.59375 8.109375 
Q 46.6875 8.109375 53.6875 14.9375 
Q 60.6875 21.78125 60.6875 36.53125 
Q 60.6875 51.171875 53.6875 57.984375 
Q 46.6875 64.796875 31.59375 64.796875 
z
M 9.8125 72.90625 
L 30.078125 72.90625 
Q 51.265625 72.90625 61.171875 64.09375 
Q 71.09375 55.28125 71.09375 36.53125 
Q 71.09375 17.671875 61.125 8.828125 
Q 51.171875 0 30.078125 0 
L 9.8125 0 
z
" id="DejaVuSans-68"/>
      <path d="M 56.203125 29.59375 
L 56.203125 25.203125 
L 14.890625 25.203125 
Q 15.484375 15.921875 20.484375 11.0625 
Q 25.484375 6.203125 34.421875 6.203125 
Q 39.59375 6.203125 44.453125 7.46875 
Q 49.3125 8.734375 54.109375 11.28125 
L 54.109375 2.78125 
Q 49.265625 0.734375 44.1875 -0.34375 
Q 39.109375 -1.421875 33.890625 -1.421875 
Q 20.796875 -1.421875 13.15625 6.1875 
Q 5.515625 13.8125 5.515625 26.8125 
Q 5.515625 40.234375 12.765625 48.109375 
Q 20.015625 56 32.328125 56 
Q 43.359375 56 49.78125 48.890625 
Q 56.203125 41.796875 56.203125 29.59375 
z
M 47.21875 32.234375 
Q 47.125 39.59375 43.09375 43.984375 
Q 39.0625 48.390625 32.421875 48.390625 
Q 24.90625 48.390625 20.390625 44.140625 
Q 15.875 39.890625 15.1875 32.171875 
z
" id="DejaVuSans-101"/>
      <path d="M 32.171875 -5.078125 
Q 28.375 -14.84375 24.75 -17.8125 
Q 21.140625 -20.796875 15.09375 -20.796875 
L 7.90625 -20.796875 
L 7.90625 -13.28125 
L 13.1875 -13.28125 
Q 16.890625 -13.28125 18.9375 -11.515625 
Q 21 -9.765625 23.484375 -3.21875 
L 25.09375 0.875 
L 2.984375 54.6875 
L 12.5 54.6875 
L 29.59375 11.921875 
L 46.6875 54.6875 
L 56.203125 54.6875 
z
" id="DejaVuSans-121"/>
     </defs>
     <g transform="translate(13.325625 231.553781)rotate(-90)scale(0.3 -0.3)">
      <use xlink:href="#DejaVuSans-68"/>
      <use x="77.001953" xlink:href="#DejaVuSans-101"/>
      <use x="138.525391" xlink:href="#DejaVuSans-110"/>
      <use x="201.904297" xlink:href="#DejaVuSans-115"/>
      <use x="254.003906" xlink:href="#DejaVuSans-105"/>
      <use x="281.787109" xlink:href="#DejaVuSans-116"/>
      <use x="320.996094" xlink:href="#DejaVuSans-121"/>
     </g>
    </g>
   </g>
   <g id="line2d_10">
    <path clip-path="url(#pea8160cbbe)" d="M 73.832727 307.584 
L 140.919774 307.487963 
L 141.309437 307.217871 
L 141.699101 306.596376 
L 142.868091 304.281109 
L 143.19281 304.210303 
L 144.037081 304.301741 
L 144.231913 303.849327 
L 144.556632 302.294523 
L 145.400903 297.424899 
L 146.18023 294.963657 
L 146.634837 291.4887 
L 147.608995 281.966412 
L 148.128546 273.727717 
L 148.907873 261.407772 
L 149.167649 259.781285 
L 149.36248 259.413682 
L 149.752144 259.135549 
L 149.946976 258.429959 
L 150.726302 254.158782 
L 150.791246 254.1974 
L 150.921134 254.570001 
L 151.18091 256.29395 
L 152.02518 264.617467 
L 152.674619 272.479996 
L 154.817768 300.695645 
L 155.272375 303.744028 
L 155.726982 305.342454 
L 156.116646 306.113042 
L 156.376421 306.203208 
L 156.571253 305.997226 
L 156.895973 305.210154 
L 157.545412 303.502223 
L 157.805187 303.366766 
L 158.064963 303.57221 
L 158.584514 304.054389 
L 158.779346 303.9501 
L 159.039121 303.47349 
L 159.493729 301.961508 
L 160.208111 299.606136 
L 160.402943 299.419608 
L 160.597775 299.555009 
L 160.85755 300.201539 
L 161.896653 303.449238 
L 162.286316 303.769666 
L 162.740923 303.829477 
L 163.195531 303.701896 
L 163.585194 303.346898 
L 164.039801 302.528358 
L 164.754184 300.678685 
L 165.468567 298.216358 
L 166.312838 295.297613 
L 166.50767 295.127914 
L 166.637557 295.215818 
L 166.832389 295.646869 
L 167.611716 297.96952 
L 167.741604 297.844982 
L 167.936435 297.209481 
L 168.261155 295.13907 
L 169.170369 288.574651 
L 169.430145 288.025744 
L 169.560033 288.066743 
L 169.754864 288.454999 
L 170.274416 289.796475 
L 170.404303 289.698095 
L 170.599135 288.881782 
L 170.858911 286.427971 
L 171.962957 273.441422 
L 172.287676 272.567262 
L 172.872172 271.423669 
L 173.456667 269.449717 
L 173.976218 267.892753 
L 174.171049 267.782073 
L 174.300937 267.954422 
L 174.495769 268.653664 
L 174.755545 270.490201 
L 175.145208 275.066404 
L 175.924535 284.918242 
L 176.18431 286.015868 
L 176.314198 286.052786 
L 176.50903 285.707661 
L 176.833749 285.134632 
L 176.963637 285.24648 
L 177.158469 285.949921 
L 177.613076 289.116325 
L 177.937796 290.658178 
L 178.067683 290.778982 
L 178.197571 290.606055 
L 178.457347 289.555772 
L 179.041842 285.718448 
L 179.886112 278.915891 
L 180.34072 275.8517 
L 180.600495 275.267455 
L 180.730383 275.33085 
L 180.925215 275.771513 
L 181.899373 279.268236 
L 182.224093 281.267546 
L 182.6787 286.080507 
L 183.068363 289.292271 
L 183.198251 289.395048 
L 183.328139 288.836495 
L 183.522971 286.761045 
L 183.977578 278.268919 
L 184.432185 271.102401 
L 184.691961 269.53231 
L 184.821849 269.403786 
L 184.951737 269.610464 
L 185.211512 270.690547 
L 186.315558 276.300585 
L 186.445446 276.363674 
L 186.575334 276.158225 
L 186.770166 275.280095 
L 187.029941 272.979113 
L 187.484549 266.350053 
L 188.783427 242.506016 
L 189.627697 225.678267 
L 189.887473 224.214427 
L 189.952417 224.276756 
L 190.082304 224.883685 
L 190.34208 227.55146 
L 190.796687 232.24479 
L 190.926575 232.538778 
L 191.056463 232.221992 
L 191.316239 230.349946 
L 191.576014 228.726768 
L 191.640958 228.656883 
L 191.770846 229.130337 
L 191.965677 231.543912 
L 192.290397 239.41278 
L 193.134668 261.394291 
L 193.589275 267.428178 
L 194.043882 270.47784 
L 194.758265 274.593898 
L 195.407704 280.176871 
L 196.122087 286.017139 
L 196.381863 286.679859 
L 196.51175 286.554655 
L 196.706582 285.819835 
L 197.161189 282.631071 
L 197.550853 280.557489 
L 197.745684 280.276139 
L 197.875572 280.341886 
L 198.460067 281.092435 
L 198.525011 281.032708 
L 198.719843 280.51393 
L 198.979618 278.978943 
L 199.434226 274.485914 
L 200.083665 268.307368 
L 200.408384 267.014169 
L 200.733104 266.638485 
L 200.927935 266.328509 
L 201.122767 265.577558 
L 201.447487 263.035728 
L 201.967038 258.793731 
L 202.031982 258.681993 
L 202.096926 258.723339 
L 202.226813 259.291472 
L 202.486589 262.25294 
L 203.33086 274.131193 
L 203.460747 274.328169 
L 203.590635 273.952016 
L 203.850411 271.809523 
L 205.538952 251.557979 
L 206.707942 232.205979 
L 206.902774 231.715058 
L 207.032662 232.095521 
L 207.292437 234.308766 
L 208.33154 245.405801 
L 208.786147 249.410945 
L 209.825249 260.293595 
L 210.149969 261.37383 
L 210.409744 261.62217 
L 210.604576 261.575767 
L 210.799408 261.330788 
L 211.059183 260.597414 
L 211.383903 258.888791 
L 211.968398 254.240599 
L 212.358061 249.765896 
L 212.682781 243.282193 
L 213.137388 228.337442 
L 213.916715 202.400745 
L 214.371322 194.738859 
L 215.605256 177.983126 
L 216.319639 165.762337 
L 216.579415 163.987211 
L 216.774246 163.631212 
L 216.904134 163.701034 
L 217.16391 164.268102 
L 217.488629 165.569771 
L 217.878293 168.145749 
L 218.722563 175.865274 
L 219.372002 183.186002 
L 219.761666 190.300462 
L 220.346161 206.432345 
L 220.865712 218.804251 
L 221.125488 221.079033 
L 221.190432 221.15382 
L 221.320319 220.765922 
L 221.580095 218.417049 
L 222.034702 214.336481 
L 222.099646 214.259773 
L 222.229534 214.710642 
L 222.424366 216.999645 
L 222.749085 224.601626 
L 223.723244 250.349392 
L 224.112907 255.043046 
L 224.437626 257.005414 
L 224.567514 257.242272 
L 224.632458 257.20281 
L 224.762346 256.737559 
L 224.957178 254.868781 
L 225.216953 249.846016 
L 225.67156 235.267678 
L 226.515831 208.042802 
L 226.970438 199.598388 
L 227.425046 194.962053 
L 227.944597 191.86531 
L 228.204373 191.259198 
L 228.33426 191.392752 
L 228.529092 192.241627 
L 228.918755 195.570756 
L 229.243475 197.56048 
L 229.308419 197.609182 
L 229.438307 197.252896 
L 229.633138 195.609321 
L 231.061904 176.778844 
L 231.451567 162.864112 
L 231.971119 145.708515 
L 232.101006 144.567531 
L 232.16595 144.651679 
L 232.295838 146.136127 
L 232.555614 153.797732 
L 233.594716 193.200877 
L 233.724604 193.693929 
L 233.854492 192.782269 
L 234.049323 189.014516 
L 234.374043 177.790702 
L 234.893594 151.082443 
L 235.348201 114.920321 
L 236.062584 55.78853 
L 236.192472 54.144 
L 236.32236 57.042681 
L 236.517191 69.366779 
L 236.971799 119.337719 
L 237.49135 167.833674 
L 237.816069 182.33106 
L 238.075845 186.340431 
L 238.140789 186.436647 
L 238.270677 185.616602 
L 238.465508 181.970264 
L 238.790228 170.197618 
L 239.959218 119.896443 
L 240.15405 118.093672 
L 240.218994 118.0628 
L 240.348881 118.80509 
L 240.543713 121.746523 
L 240.868433 130.493479 
L 241.647759 153.896549 
L 241.842591 155.520876 
L 241.907535 155.484718 
L 242.037423 154.624224 
L 242.362142 149.490453 
L 242.751806 144.345784 
L 242.81675 144.178495 
L 242.881693 144.275327 
L 243.011581 145.296271 
L 243.271357 150.570697 
L 243.66102 164.619734 
L 244.440347 193.818607 
L 244.83001 201.01805 
L 245.15473 203.753028 
L 245.479449 204.950598 
L 245.804169 205.953757 
L 246.063944 207.864256 
L 246.32372 211.728703 
L 247.297878 229.042735 
L 247.427766 228.384338 
L 247.622598 225.630514 
L 248.012261 215.902667 
L 248.791588 195.680594 
L 249.051364 193.099818 
L 249.116308 193.02039 
L 249.246195 193.576229 
L 249.441027 196.086844 
L 249.830691 205.150709 
L 250.415186 218.309186 
L 250.739905 221.523901 
L 250.869793 221.803891 
L 250.999681 221.510201 
L 251.194512 220.027572 
L 251.519232 215.081519 
L 252.168671 200.043995 
L 252.947998 183.498104 
L 253.272717 180.539276 
L 253.337661 180.461124 
L 253.467549 180.866584 
L 253.66238 182.800017 
L 254.052044 189.847975 
L 254.766427 202.354841 
L 255.675641 214.407512 
L 256.065305 225.627797 
L 257.234295 265.845166 
L 257.49407 268.426604 
L 257.623958 268.704973 
L 257.753846 268.482733 
L 258.078566 266.871026 
L 258.403285 265.773732 
L 258.533173 265.837328 
L 258.728005 266.499626 
L 259.507331 270.434075 
L 259.572275 270.402317 
L 259.702163 270.027904 
L 259.896995 268.657821 
L 260.221714 264.466208 
L 261.130929 251.240143 
L 261.32576 250.528263 
L 261.390704 250.571353 
L 261.520592 251.088269 
L 261.780368 253.702199 
L 262.754526 266.476189 
L 262.884414 266.628484 
L 263.014302 266.283888 
L 263.274077 264.439979 
L 263.98846 258.598852 
L 264.183292 258.163489 
L 264.31318 258.176926 
L 264.508011 258.526581 
L 265.417226 260.691965 
L 266.001721 261.173146 
L 266.261497 262.048834 
L 266.586216 264.308553 
L 267.040823 269.584367 
L 267.950038 280.673254 
L 269.963299 297.327061 
L 270.872513 301.470568 
L 271.262177 302.606256 
L 271.392065 302.621581 
L 271.521952 302.376705 
L 271.716784 301.48027 
L 272.041504 298.75619 
L 272.690943 292.918277 
L 272.950718 292.109616 
L 273.080606 292.089488 
L 273.275438 292.377485 
L 273.859933 293.417253 
L 274.509372 293.89823 
L 274.769147 294.707513 
L 275.548474 297.683609 
L 275.678362 297.529324 
L 275.873194 296.608244 
L 276.132969 294.017762 
L 276.587576 286.465566 
L 277.301959 274.367809 
L 277.626679 272.092496 
L 277.82151 271.841848 
L 278.016342 272.089396 
L 278.341062 272.554046 
L 278.470949 272.478202 
L 278.665781 271.945191 
L 278.990501 270.089821 
L 279.704884 264.244464 
L 281.003761 251.353664 
L 281.848032 242.356573 
L 282.107808 241.421931 
L 282.822191 240.114192 
L 283.211854 238.959052 
L 283.341742 239.062785 
L 283.47163 239.631337 
L 283.666461 241.520193 
L 283.991181 247.32472 
L 285.095227 269.64026 
L 285.419947 271.802104 
L 285.549834 271.978962 
L 285.679722 271.841403 
L 286.264217 270.530429 
L 286.394105 270.833182 
L 286.653881 272.486684 
L 287.563095 280.052989 
L 288.212534 282.830221 
L 288.667141 286.800343 
L 289.121749 290.102428 
L 289.31658 290.523192 
L 289.446468 290.419685 
L 289.6413 289.755732 
L 290.030963 287.167816 
L 291.13501 278.875244 
L 291.264897 278.785513 
L 291.394785 279.112206 
L 291.589617 280.396295 
L 292.044224 285.731555 
L 292.433888 289.247486 
L 292.628719 289.60341 
L 292.758607 289.282061 
L 293.018383 287.647041 
L 293.537934 284.037016 
L 293.732765 283.761596 
L 293.862653 284.044738 
L 294.122429 285.578546 
L 294.9667 291.562155 
L 295.096587 291.649908 
L 295.226475 291.436132 
L 295.486251 290.280904 
L 296.525353 284.616554 
L 296.97996 282.035673 
L 297.629399 278.196021 
L 297.889175 277.738306 
L 298.019063 277.783333 
L 298.278838 278.211875 
L 298.668502 278.79638 
L 298.798389 278.759005 
L 298.993221 278.398554 
L 299.447828 276.682533 
L 299.707604 276.031289 
L 299.837492 276.017505 
L 300.032324 276.454394 
L 300.357043 278.153881 
L 301.071426 282.075362 
L 302.175472 286.16385 
L 303.019743 290.769078 
L 303.344462 291.324186 
L 303.734126 291.456499 
L 304.253677 291.684622 
L 304.578396 292.024551 
L 304.903116 292.740797 
L 305.422667 294.68891 
L 305.877274 296.123846 
L 306.266938 296.648638 
L 307.30604 297.395796 
L 307.500872 297.006303 
L 307.760647 295.704699 
L 308.150311 292.014569 
L 308.734806 286.227583 
L 308.929638 285.605094 
L 309.059525 285.699187 
L 309.254357 286.49157 
L 310.358403 292.608857 
L 312.371664 298.393002 
L 313.150991 301.40241 
L 314.190093 304.49508 
L 314.904476 306.783284 
L 315.29414 307.336561 
L 315.683803 307.528083 
L 316.333242 307.545664 
L 316.787849 307.363261 
L 317.112569 306.980159 
L 317.502232 306.081735 
L 318.541334 303.202012 
L 318.866054 303.01046 
L 319.255717 303.118051 
L 319.710325 303.201638 
L 319.9701 303.038586 
L 320.29482 302.521746 
L 321.074146 301.026036 
L 321.268978 301.031762 
L 321.528754 301.377225 
L 321.983361 302.565144 
L 322.567856 303.994177 
L 322.762688 304.108579 
L 322.892576 303.998369 
L 323.087407 303.503505 
L 323.412127 301.870132 
L 323.996622 298.861627 
L 324.191454 298.716574 
L 324.386285 299.13472 
L 324.775949 300.98535 
L 325.230556 302.823167 
L 325.490332 303.125168 
L 325.685163 302.979295 
L 325.944939 302.385604 
L 326.594378 300.624049 
L 326.724266 300.595429 
L 326.919097 300.890123 
L 327.243817 302.088657 
L 327.828312 304.261386 
L 328.217975 304.823568 
L 328.672583 305.403802 
L 329.516853 306.752215 
L 329.711685 306.688284 
L 329.97146 306.217459 
L 330.361124 304.762378 
L 331.010563 302.279578 
L 331.205395 302.069043 
L 331.400226 302.180234 
L 331.660002 302.735653 
L 332.244497 304.79435 
L 332.828992 306.613481 
L 333.218655 307.249199 
L 333.608319 307.500833 
L 334.257758 307.580222 
L 335.816411 307.514381 
L 336.206075 307.264132 
L 336.530794 306.710642 
L 336.920458 305.464197 
L 337.569897 303.282264 
L 337.764728 303.173951 
L 337.95956 303.437439 
L 338.284279 304.496439 
L 338.933718 306.751672 
L 339.323382 307.339755 
L 339.713045 307.496147 
L 340.102709 307.394625 
L 340.427428 307.088817 
L 340.882035 306.2747 
L 341.401586 305.395922 
L 341.661362 305.358889 
L 341.921138 305.655793 
L 343.025184 307.407966 
L 343.479791 307.555638 
L 344.713725 307.583983 
L 398.487273 307.584 
L 398.487273 307.584 
" style="fill:none;stroke:#ff7f0e;stroke-linecap:square;stroke-width:1.5;"/>
   </g>
   <g id="patch_103">
    <path d="M 57.6 307.584 
L 57.6 41.472 
" style="fill:none;stroke:#000000;stroke-linecap:square;stroke-linejoin:miter;stroke-width:0.8;"/>
   </g>
   <g id="patch_104">
    <path d="M 414.72 307.584 
L 414.72 41.472 
" style="fill:none;stroke:#000000;stroke-linecap:square;stroke-linejoin:miter;stroke-width:0.8;"/>
   </g>
   <g id="patch_105">
    <path d="M 57.6 307.584 
L 414.72 307.584 
" style="fill:none;stroke:#000000;stroke-linecap:square;stroke-linejoin:miter;stroke-width:0.8;"/>
   </g>
   <g id="patch_106">
    <path d="M 57.6 41.472 
L 414.72 41.472 
" style="fill:none;stroke:#000000;stroke-linecap:square;stroke-linejoin:miter;stroke-width:0.8;"/>
   </g>
  </g>
 </g>
 <defs>
  <clipPath id="pea8160cbbe">
   <rect height="266.112" width="357.12" x="57.6" y="41.472"/>
  </clipPath>
 </defs>
</svg>
