<?xml version="1.0" encoding="utf-8" standalone="no"?>
<!DOCTYPE svg PUBLIC "-//W3C//DTD SVG 1.1//EN"
  "http://www.w3.org/Graphics/SVG/1.1/DTD/svg11.dtd">
<!-- Created with matplotlib (https://matplotlib.org/) -->
<svg height="345.6pt" version="1.1" viewBox="0 0 460.8 345.6" width="460.8pt" xmlns="http://www.w3.org/2000/svg" xmlns:xlink="http://www.w3.org/1999/xlink">
 <defs>
  <style type="text/css">
*{stroke-linecap:butt;stroke-linejoin:round;}
  </style>
 </defs>
 <g id="figure_1">
  <g id="patch_1">
   <path d="M 0 345.6 
L 460.8 345.6 
L 460.8 0 
L 0 0 
z
" style="fill:#ffffff;"/>
  </g>
  <g id="axes_1">
   <g id="patch_2">
    <path d="M 57.6 307.584 
L 414.72 307.584 
L 414.72 41.472 
L 57.6 41.472 
z
" style="fill:#ffffff;"/>
   </g>
   <g id="patch_3">
    <path clip-path="url(#p1097c64732)" d="M 115.385218 307.584 
L 118.133696 307.584 
L 118.133696 306.766792 
L 115.385218 306.766792 
z
" style="fill:#1f77b4;"/>
   </g>
   <g id="patch_4">
    <path clip-path="url(#p1097c64732)" d="M 118.133696 307.584 
L 120.882182 307.584 
L 120.882182 307.175397 
L 118.133696 307.175397 
z
" style="fill:#1f77b4;"/>
   </g>
   <g id="patch_5">
    <path clip-path="url(#p1097c64732)" d="M 120.882182 307.584 
L 123.63066 307.584 
L 123.63066 306.766792 
L 120.882182 306.766792 
z
" style="fill:#1f77b4;"/>
   </g>
   <g id="patch_6">
    <path clip-path="url(#p1097c64732)" d="M 123.630667 307.584 
L 126.379153 307.584 
L 126.379153 305.132383 
L 123.630667 305.132383 
z
" style="fill:#1f77b4;"/>
   </g>
   <g id="patch_7">
    <path clip-path="url(#p1097c64732)" d="M 126.379146 307.584 
L 129.127624 307.584 
L 129.127624 304.723772 
L 126.379146 304.723772 
z
" style="fill:#1f77b4;"/>
   </g>
   <g id="patch_8">
    <path clip-path="url(#p1097c64732)" d="M 129.127624 307.584 
L 131.876102 307.584 
L 131.876102 305.949584 
L 129.127624 305.949584 
z
" style="fill:#1f77b4;"/>
   </g>
   <g id="patch_9">
    <path clip-path="url(#p1097c64732)" d="M 131.876102 307.584 
L 134.624588 307.584 
L 134.624588 304.315177 
L 131.876102 304.315177 
z
" style="fill:#1f77b4;"/>
   </g>
   <g id="patch_10">
    <path clip-path="url(#p1097c64732)" d="M 134.624588 307.584 
L 137.373066 307.584 
L 137.373066 303.49796 
L 134.624588 303.49796 
z
" style="fill:#1f77b4;"/>
   </g>
   <g id="patch_11">
    <path clip-path="url(#p1097c64732)" d="M 137.373066 307.584 
L 140.121544 307.584 
L 140.121544 304.723772 
L 137.373066 304.723772 
z
" style="fill:#1f77b4;"/>
   </g>
   <g id="patch_12">
    <path clip-path="url(#p1097c64732)" d="M 140.121552 307.584 
L 142.870038 307.584 
L 142.870038 301.046354 
L 140.121552 301.046354 
z
" style="fill:#1f77b4;"/>
   </g>
   <g id="patch_13">
    <path clip-path="url(#p1097c64732)" d="M 142.87003 307.584 
L 145.618508 307.584 
L 145.618508 294.100067 
L 142.87003 294.100067 
z
" style="fill:#1f77b4;"/>
   </g>
   <g id="patch_14">
    <path clip-path="url(#p1097c64732)" d="M 145.618508 307.584 
L 148.366994 307.584 
L 148.366994 290.831282 
L 145.618508 290.831282 
z
" style="fill:#1f77b4;"/>
   </g>
   <g id="patch_15">
    <path clip-path="url(#p1097c64732)" d="M 148.366994 307.584 
L 151.115472 307.584 
L 151.115472 286.745195 
L 148.366994 286.745195 
z
" style="fill:#1f77b4;"/>
   </g>
   <g id="patch_16">
    <path clip-path="url(#p1097c64732)" d="M 151.115472 307.584 
L 153.86395 307.584 
L 153.86395 291.648443 
L 151.115472 291.648443 
z
" style="fill:#1f77b4;"/>
   </g>
   <g id="patch_17">
    <path clip-path="url(#p1097c64732)" d="M 153.863958 307.584 
L 156.612444 307.584 
L 156.612444 302.680766 
L 153.863958 302.680766 
z
" style="fill:#1f77b4;"/>
   </g>
   <g id="patch_18">
    <path clip-path="url(#p1097c64732)" d="M 156.612436 307.584 
L 159.360914 307.584 
L 159.360914 301.046336 
L 156.612436 301.046336 
z
" style="fill:#1f77b4;"/>
   </g>
   <g id="patch_19">
    <path clip-path="url(#p1097c64732)" d="M 159.360914 307.584 
L 162.109392 307.584 
L 162.109392 301.046336 
L 159.360914 301.046336 
z
" style="fill:#1f77b4;"/>
   </g>
   <g id="patch_20">
    <path clip-path="url(#p1097c64732)" d="M 162.109392 307.584 
L 164.857878 307.584 
L 164.857878 299.820545 
L 162.109392 299.820545 
z
" style="fill:#1f77b4;"/>
   </g>
   <g id="patch_21">
    <path clip-path="url(#p1097c64732)" d="M 164.857878 307.584 
L 167.606356 307.584 
L 167.606356 292.874255 
L 164.857878 292.874255 
z
" style="fill:#1f77b4;"/>
   </g>
   <g id="patch_22">
    <path clip-path="url(#p1097c64732)" d="M 167.606364 307.584 
L 170.35485 307.584 
L 170.35485 292.465694 
L 167.606364 292.465694 
z
" style="fill:#1f77b4;"/>
   </g>
   <g id="patch_23">
    <path clip-path="url(#p1097c64732)" d="M 170.354842 307.584 
L 173.10332 307.584 
L 173.10332 279.390323 
L 170.354842 279.390323 
z
" style="fill:#1f77b4;"/>
   </g>
   <g id="patch_24">
    <path clip-path="url(#p1097c64732)" d="M 173.10332 307.584 
L 175.851802 307.584 
L 175.851802 275.304328 
L 173.10332 275.304328 
z
" style="fill:#1f77b4;"/>
   </g>
   <g id="patch_25">
    <path clip-path="url(#p1097c64732)" d="M 175.851802 307.584 
L 178.60028 307.584 
L 178.60028 280.616135 
L 175.851802 280.616135 
z
" style="fill:#1f77b4;"/>
   </g>
   <g id="patch_26">
    <path clip-path="url(#p1097c64732)" d="M 178.600284 307.584 
L 181.348766 307.584 
L 181.348766 282.250586 
L 178.600284 282.250586 
z
" style="fill:#1f77b4;"/>
   </g>
   <g id="patch_27">
    <path clip-path="url(#p1097c64732)" d="M 181.348762 307.584 
L 184.097244 307.584 
L 184.097244 287.153828 
L 181.348762 287.153828 
z
" style="fill:#1f77b4;"/>
   </g>
   <g id="patch_28">
    <path clip-path="url(#p1097c64732)" d="M 184.097248 307.584 
L 186.84573 307.584 
L 186.84573 284.702207 
L 184.097248 284.702207 
z
" style="fill:#1f77b4;"/>
   </g>
   <g id="patch_29">
    <path clip-path="url(#p1097c64732)" d="M 186.845726 307.584 
L 189.594208 307.584 
L 189.594208 278.981759 
L 186.845726 278.981759 
z
" style="fill:#1f77b4;"/>
   </g>
   <g id="patch_30">
    <path clip-path="url(#p1097c64732)" d="M 189.594208 307.584 
L 192.342687 307.584 
L 192.342687 271.218242 
L 189.594208 271.218242 
z
" style="fill:#1f77b4;"/>
   </g>
   <g id="patch_31">
    <path clip-path="url(#p1097c64732)" d="M 192.34269 307.584 
L 195.091172 307.584 
L 195.091172 294.100086 
L 192.34269 294.100086 
z
" style="fill:#1f77b4;"/>
   </g>
   <g id="patch_32">
    <path clip-path="url(#p1097c64732)" d="M 195.091169 307.584 
L 197.839651 307.584 
L 197.839651 293.691483 
L 195.091169 293.691483 
z
" style="fill:#1f77b4;"/>
   </g>
   <g id="patch_33">
    <path clip-path="url(#p1097c64732)" d="M 197.839654 307.584 
L 200.588136 307.584 
L 200.588136 290.831259 
L 197.839654 290.831259 
z
" style="fill:#1f77b4;"/>
   </g>
   <g id="patch_34">
    <path clip-path="url(#p1097c64732)" d="M 200.588133 307.584 
L 203.336611 307.584 
L 203.336611 289.605423 
L 200.588133 289.605423 
z
" style="fill:#1f77b4;"/>
   </g>
   <g id="patch_35">
    <path clip-path="url(#p1097c64732)" d="M 203.336611 307.584 
L 206.085093 307.584 
L 206.085093 280.616173 
L 203.336611 280.616173 
z
" style="fill:#1f77b4;"/>
   </g>
   <g id="patch_36">
    <path clip-path="url(#p1097c64732)" d="M 206.085093 307.584 
L 208.833575 307.584 
L 208.833575 268.358069 
L 206.085093 268.358069 
z
" style="fill:#1f77b4;"/>
   </g>
   <g id="patch_37">
    <path clip-path="url(#p1097c64732)" d="M 208.833575 307.584 
L 211.582055 307.584 
L 211.582055 263.454797 
L 208.833575 263.454797 
z
" style="fill:#1f77b4;"/>
   </g>
   <g id="patch_38">
    <path clip-path="url(#p1097c64732)" d="M 211.582055 307.584 
L 214.330537 307.584 
L 214.330537 252.831138 
L 211.582055 252.831138 
z
" style="fill:#1f77b4;"/>
   </g>
   <g id="patch_39">
    <path clip-path="url(#p1097c64732)" d="M 214.330539 307.584 
L 217.079019 307.584 
L 217.079019 223.003027 
L 214.330539 223.003027 
z
" style="fill:#1f77b4;"/>
   </g>
   <g id="patch_40">
    <path clip-path="url(#p1097c64732)" d="M 217.079017 307.584 
L 219.827499 307.584 
L 219.827499 211.56219 
L 217.079017 211.56219 
z
" style="fill:#1f77b4;"/>
   </g>
   <g id="patch_41">
    <path clip-path="url(#p1097c64732)" d="M 219.827499 307.584 
L 222.57598 307.584 
L 222.57598 219.734228 
L 219.827499 219.734228 
z
" style="fill:#1f77b4;"/>
   </g>
   <g id="patch_42">
    <path clip-path="url(#p1097c64732)" d="M 222.575979 307.584 
L 225.32446 307.584 
L 225.32446 226.271886 
L 222.575979 226.271886 
z
" style="fill:#1f77b4;"/>
   </g>
   <g id="patch_43">
    <path clip-path="url(#p1097c64732)" d="M 225.324461 307.584 
L 228.072941 307.584 
L 228.072941 186.228713 
L 225.324461 186.228713 
z
" style="fill:#1f77b4;"/>
   </g>
   <g id="patch_44">
    <path clip-path="url(#p1097c64732)" d="M 228.072941 307.584 
L 230.821423 307.584 
L 230.821423 151.906033 
L 228.072941 151.906033 
z
" style="fill:#1f77b4;"/>
   </g>
   <g id="patch_45">
    <path clip-path="url(#p1097c64732)" d="M 230.821423 307.584 
L 233.569904 307.584 
L 233.569904 141.282354 
L 230.821423 141.282354 
z
" style="fill:#1f77b4;"/>
   </g>
   <g id="patch_46">
    <path clip-path="url(#p1097c64732)" d="M 233.569904 307.584 
L 236.318385 307.584 
L 236.318385 105.733827 
L 233.569904 105.733827 
z
" style="fill:#1f77b4;"/>
   </g>
   <g id="patch_47">
    <path clip-path="url(#p1097c64732)" d="M 236.318385 307.584 
L 239.066866 307.584 
L 239.066866 150.680222 
L 236.318385 150.680222 
z
" style="fill:#1f77b4;"/>
   </g>
   <g id="patch_48">
    <path clip-path="url(#p1097c64732)" d="M 239.066866 307.584 
L 241.815347 307.584 
L 241.815347 133.92749 
L 239.066866 133.92749 
z
" style="fill:#1f77b4;"/>
   </g>
   <g id="patch_49">
    <path clip-path="url(#p1097c64732)" d="M 241.815347 307.584 
L 244.563828 307.584 
L 244.563828 174.787834 
L 241.815347 174.787834 
z
" style="fill:#1f77b4;"/>
   </g>
   <g id="patch_50">
    <path clip-path="url(#p1097c64732)" d="M 244.563827 307.584 
L 247.312308 307.584 
L 247.312308 210.336346 
L 244.563827 210.336346 
z
" style="fill:#1f77b4;"/>
   </g>
   <g id="patch_51">
    <path clip-path="url(#p1097c64732)" d="M 247.312309 307.584 
L 250.06079 307.584 
L 250.06079 223.820264 
L 247.312309 223.820264 
z
" style="fill:#1f77b4;"/>
   </g>
   <g id="patch_52">
    <path clip-path="url(#p1097c64732)" d="M 250.060789 307.584 
L 252.809271 307.584 
L 252.809271 235.669768 
L 250.060789 235.669768 
z
" style="fill:#1f77b4;"/>
   </g>
   <g id="patch_53">
    <path clip-path="url(#p1097c64732)" d="M 252.809271 307.584 
L 255.557753 307.584 
L 255.557753 245.067673 
L 252.809271 245.067673 
z
" style="fill:#1f77b4;"/>
   </g>
   <g id="patch_54">
    <path clip-path="url(#p1097c64732)" d="M 255.557753 307.584 
L 258.306233 307.584 
L 258.306233 276.530116 
L 255.557753 276.530116 
z
" style="fill:#1f77b4;"/>
   </g>
   <g id="patch_55">
    <path clip-path="url(#p1097c64732)" d="M 258.306233 307.584 
L 261.054715 307.584 
L 261.054715 278.981759 
L 258.306233 278.981759 
z
" style="fill:#1f77b4;"/>
   </g>
   <g id="patch_56">
    <path clip-path="url(#p1097c64732)" d="M 261.054717 307.584 
L 263.803197 307.584 
L 263.803197 282.659172 
L 261.054717 282.659172 
z
" style="fill:#1f77b4;"/>
   </g>
   <g id="patch_57">
    <path clip-path="url(#p1097c64732)" d="M 263.803195 307.584 
L 266.551677 307.584 
L 266.551677 288.788242 
L 263.803195 288.788242 
z
" style="fill:#1f77b4;"/>
   </g>
   <g id="patch_58">
    <path clip-path="url(#p1097c64732)" d="M 266.551677 307.584 
L 269.300159 307.584 
L 269.300159 294.917293 
L 266.551677 294.917293 
z
" style="fill:#1f77b4;"/>
   </g>
   <g id="patch_59">
    <path clip-path="url(#p1097c64732)" d="M 269.300159 307.584 
L 272.048638 307.584 
L 272.048638 295.325879 
L 269.300159 295.325879 
z
" style="fill:#1f77b4;"/>
   </g>
   <g id="patch_60">
    <path clip-path="url(#p1097c64732)" d="M 272.048641 307.584 
L 274.797123 307.584 
L 274.797123 290.831259 
L 272.048641 290.831259 
z
" style="fill:#1f77b4;"/>
   </g>
   <g id="patch_61">
    <path clip-path="url(#p1097c64732)" d="M 274.79712 307.584 
L 277.545602 307.584 
L 277.545602 279.798966 
L 274.79712 279.798966 
z
" style="fill:#1f77b4;"/>
   </g>
   <g id="patch_62">
    <path clip-path="url(#p1097c64732)" d="M 277.545605 307.584 
L 280.294087 307.584 
L 280.294087 272.0355 
L 277.545605 272.0355 
z
" style="fill:#1f77b4;"/>
   </g>
   <g id="patch_63">
    <path clip-path="url(#p1097c64732)" d="M 280.294084 307.584 
L 283.042562 307.584 
L 283.042562 264.680578 
L 280.294084 264.680578 
z
" style="fill:#1f77b4;"/>
   </g>
   <g id="patch_64">
    <path clip-path="url(#p1097c64732)" d="M 283.042562 307.584 
L 285.791044 307.584 
L 285.791044 269.58388 
L 283.042562 269.58388 
z
" style="fill:#1f77b4;"/>
   </g>
   <g id="patch_65">
    <path clip-path="url(#p1097c64732)" d="M 285.791048 307.584 
L 288.53953 307.584 
L 288.53953 272.852707 
L 285.791048 272.852707 
z
" style="fill:#1f77b4;"/>
   </g>
   <g id="patch_66">
    <path clip-path="url(#p1097c64732)" d="M 288.539526 307.584 
L 291.288008 307.584 
L 291.288008 276.938742 
L 288.539526 276.938742 
z
" style="fill:#1f77b4;"/>
   </g>
   <g id="patch_67">
    <path clip-path="url(#p1097c64732)" d="M 291.288008 307.584 
L 294.036486 307.584 
L 294.036486 273.261262 
L 291.288008 273.261262 
z
" style="fill:#1f77b4;"/>
   </g>
   <g id="patch_68">
    <path clip-path="url(#p1097c64732)" d="M 294.03649 307.584 
L 296.784972 307.584 
L 296.784972 285.519414 
L 294.03649 285.519414 
z
" style="fill:#1f77b4;"/>
   </g>
   <g id="patch_69">
    <path clip-path="url(#p1097c64732)" d="M 296.784968 307.584 
L 299.53345 307.584 
L 299.53345 290.014052 
L 296.784968 290.014052 
z
" style="fill:#1f77b4;"/>
   </g>
   <g id="patch_70">
    <path clip-path="url(#p1097c64732)" d="M 299.533454 307.584 
L 302.281932 307.584 
L 302.281932 289.196845 
L 299.533454 289.196845 
z
" style="fill:#1f77b4;"/>
   </g>
   <g id="patch_71">
    <path clip-path="url(#p1097c64732)" d="M 302.281932 307.584 
L 305.03041 307.584 
L 305.03041 291.239839 
L 302.281932 291.239839 
z
" style="fill:#1f77b4;"/>
   </g>
   <g id="patch_72">
    <path clip-path="url(#p1097c64732)" d="M 305.03041 307.584 
L 307.778896 307.584 
L 307.778896 299.00334 
L 305.03041 299.00334 
z
" style="fill:#1f77b4;"/>
   </g>
   <g id="patch_73">
    <path clip-path="url(#p1097c64732)" d="M 307.778896 307.584 
L 310.527374 307.584 
L 310.527374 294.508671 
L 307.778896 294.508671 
z
" style="fill:#1f77b4;"/>
   </g>
   <g id="patch_74">
    <path clip-path="url(#p1097c64732)" d="M 310.527374 307.584 
L 313.275852 307.584 
L 313.275852 300.229128 
L 310.527374 300.229128 
z
" style="fill:#1f77b4;"/>
   </g>
   <g id="patch_75">
    <path clip-path="url(#p1097c64732)" d="M 313.27586 307.584 
L 316.024346 307.584 
L 316.024346 301.86356 
L 313.27586 301.86356 
z
" style="fill:#1f77b4;"/>
   </g>
   <g id="patch_76">
    <path clip-path="url(#p1097c64732)" d="M 316.024338 307.584 
L 318.772816 307.584 
L 318.772816 303.089356 
L 316.024338 303.089356 
z
" style="fill:#1f77b4;"/>
   </g>
   <g id="patch_77">
    <path clip-path="url(#p1097c64732)" d="M 318.772816 307.584 
L 321.521294 307.584 
L 321.521294 299.003316 
L 318.772816 299.003316 
z
" style="fill:#1f77b4;"/>
   </g>
   <g id="patch_78">
    <path clip-path="url(#p1097c64732)" d="M 321.521294 307.584 
L 324.26978 307.584 
L 324.26978 299.820545 
L 321.521294 299.820545 
z
" style="fill:#1f77b4;"/>
   </g>
   <g id="patch_79">
    <path clip-path="url(#p1097c64732)" d="M 324.26978 307.584 
L 327.018258 307.584 
L 327.018258 301.45494 
L 324.26978 301.45494 
z
" style="fill:#1f77b4;"/>
   </g>
   <g id="patch_80">
    <path clip-path="url(#p1097c64732)" d="M 327.018266 307.584 
L 329.766752 307.584 
L 329.766752 298.594737 
L 327.018266 298.594737 
z
" style="fill:#1f77b4;"/>
   </g>
   <g id="patch_81">
    <path clip-path="url(#p1097c64732)" d="M 329.766744 307.584 
L 332.515222 307.584 
L 332.515222 293.282859 
L 329.766744 293.282859 
z
" style="fill:#1f77b4;"/>
   </g>
   <g id="patch_82">
    <path clip-path="url(#p1097c64732)" d="M 332.515222 307.584 
L 335.2637 307.584 
L 335.2637 290.831235 
L 332.515222 290.831235 
z
" style="fill:#1f77b4;"/>
   </g>
   <g id="patch_83">
    <path clip-path="url(#p1097c64732)" d="M 335.2637 307.584 
L 338.012186 307.584 
L 338.012186 298.186134 
L 335.2637 298.186134 
z
" style="fill:#1f77b4;"/>
   </g>
   <g id="patch_84">
    <path clip-path="url(#p1097c64732)" d="M 338.012186 307.584 
L 340.760664 307.584 
L 340.760664 300.637732 
L 338.012186 300.637732 
z
" style="fill:#1f77b4;"/>
   </g>
   <g id="patch_85">
    <path clip-path="url(#p1097c64732)" d="M 340.760672 307.584 
L 343.509158 307.584 
L 343.509158 295.734517 
L 340.760672 295.734517 
z
" style="fill:#1f77b4;"/>
   </g>
   <g id="patch_86">
    <path clip-path="url(#p1097c64732)" d="M 343.50915 307.584 
L 346.257628 307.584 
L 346.257628 294.508671 
L 343.50915 294.508671 
z
" style="fill:#1f77b4;"/>
   </g>
   <g id="patch_87">
    <path clip-path="url(#p1097c64732)" d="M 346.257628 307.584 
L 349.006107 307.584 
L 349.006107 296.143087 
L 346.257628 296.143087 
z
" style="fill:#1f77b4;"/>
   </g>
   <g id="patch_88">
    <path clip-path="url(#p1097c64732)" d="M 349.006107 307.584 
L 351.754592 307.584 
L 351.754592 294.917311 
L 349.006107 294.917311 
z
" style="fill:#1f77b4;"/>
   </g>
   <g id="patch_89">
    <path clip-path="url(#p1097c64732)" d="M 351.754592 307.584 
L 354.503071 307.584 
L 354.503071 301.046336 
L 351.754592 301.046336 
z
" style="fill:#1f77b4;"/>
   </g>
   <g id="patch_90">
    <path clip-path="url(#p1097c64732)" d="M 354.503071 307.584 
L 357.251549 307.584 
L 357.251549 299.820524 
L 354.503071 299.820524 
z
" style="fill:#1f77b4;"/>
   </g>
   <g id="patch_91">
    <path clip-path="url(#p1097c64732)" d="M 357.251556 307.584 
L 360.000042 307.584 
L 360.000042 300.637751 
L 357.251556 300.637751 
z
" style="fill:#1f77b4;"/>
   </g>
   <g id="patch_92">
    <path clip-path="url(#p1097c64732)" d="M 360.000035 307.584 
L 362.748513 307.584 
L 362.748513 301.046336 
L 360.000035 301.046336 
z
" style="fill:#1f77b4;"/>
   </g>
   <g id="patch_93">
    <path clip-path="url(#p1097c64732)" d="M 362.748513 307.584 
L 365.496999 307.584 
L 365.496999 300.229148 
L 362.748513 300.229148 
z
" style="fill:#1f77b4;"/>
   </g>
   <g id="patch_94">
    <path clip-path="url(#p1097c64732)" d="M 365.496991 307.584 
L 368.245469 307.584 
L 368.245469 303.906553 
L 365.496991 303.906553 
z
" style="fill:#1f77b4;"/>
   </g>
   <g id="patch_95">
    <path clip-path="url(#p1097c64732)" d="M 368.245469 307.584 
L 370.993963 307.584 
L 370.993963 303.906585 
L 368.245469 303.906585 
z
" style="fill:#1f77b4;"/>
   </g>
   <g id="patch_96">
    <path clip-path="url(#p1097c64732)" d="M 370.993963 307.584 
L 373.742441 307.584 
L 373.742441 303.49796 
L 370.993963 303.49796 
z
" style="fill:#1f77b4;"/>
   </g>
   <g id="patch_97">
    <path clip-path="url(#p1097c64732)" d="M 373.742441 307.584 
L 376.490919 307.584 
L 376.490919 301.863544 
L 373.742441 301.863544 
z
" style="fill:#1f77b4;"/>
   </g>
   <g id="patch_98">
    <path clip-path="url(#p1097c64732)" d="M 376.490919 307.584 
L 379.239397 307.584 
L 379.239397 305.132376 
L 376.490919 305.132376 
z
" style="fill:#1f77b4;"/>
   </g>
   <g id="patch_99">
    <path clip-path="url(#p1097c64732)" d="M 379.239397 307.584 
L 381.987875 307.584 
L 381.987875 306.766792 
L 379.239397 306.766792 
z
" style="fill:#1f77b4;"/>
   </g>
   <g id="patch_100">
    <path clip-path="url(#p1097c64732)" d="M 381.98786 307.584 
L 384.736353 307.584 
L 384.736353 305.13239 
L 381.98786 305.13239 
z
" style="fill:#1f77b4;"/>
   </g>
   <g id="patch_101">
    <path clip-path="url(#p1097c64732)" d="M 384.736369 307.584 
L 387.484847 307.584 
L 387.484847 304.723772 
L 384.736369 304.723772 
z
" style="fill:#1f77b4;"/>
   </g>
   <g id="patch_102">
    <path clip-path="url(#p1097c64732)" d="M 387.484847 307.584 
L 390.233325 307.584 
L 390.233325 304.723772 
L 387.484847 304.723772 
z
" style="fill:#1f77b4;"/>
   </g>
   <g id="matplotlib.axis_1">
    <g id="xtick_1">
     <g id="line2d_1">
      <defs>
       <path d="M 0 0 
L 0 3.5 
" id="m99985748e0" style="stroke:#000000;stroke-width:0.8;"/>
      </defs>
      <g>
       <use style="stroke:#000000;stroke-width:0.8;" x="106.300346" xlink:href="#m99985748e0" y="307.584"/>
      </g>
     </g>
     <g id="text_1">
      <!-- −2 -->
      <defs>
       <path d="M 10.59375 35.5 
L 73.1875 35.5 
L 73.1875 27.203125 
L 10.59375 27.203125 
z
" id="DejaVuSans-8722"/>
       <path d="M 19.1875 8.296875 
L 53.609375 8.296875 
L 53.609375 0 
L 7.328125 0 
L 7.328125 8.296875 
Q 12.9375 14.109375 22.625 23.890625 
Q 32.328125 33.6875 34.8125 36.53125 
Q 39.546875 41.84375 41.421875 45.53125 
Q 43.3125 49.21875 43.3125 52.78125 
Q 43.3125 58.59375 39.234375 62.25 
Q 35.15625 65.921875 28.609375 65.921875 
Q 23.96875 65.921875 18.8125 64.3125 
Q 13.671875 62.703125 7.8125 59.421875 
L 7.8125 69.390625 
Q 13.765625 71.78125 18.9375 73 
Q 24.125 74.21875 28.421875 74.21875 
Q 39.75 74.21875 46.484375 68.546875 
Q 53.21875 62.890625 53.21875 53.421875 
Q 53.21875 48.921875 51.53125 44.890625 
Q 49.859375 40.875 45.40625 35.40625 
Q 44.1875 33.984375 37.640625 27.21875 
Q 31.109375 20.453125 19.1875 8.296875 
z
" id="DejaVuSans-50"/>
      </defs>
      <g transform="translate(93.769487 327.501344)scale(0.17 -0.17)">
       <use xlink:href="#DejaVuSans-8722"/>
       <use x="83.789062" xlink:href="#DejaVuSans-50"/>
      </g>
     </g>
    </g>
    <g id="xtick_2">
     <g id="line2d_2">
      <g>
       <use style="stroke:#000000;stroke-width:0.8;" x="171.235584" xlink:href="#m99985748e0" y="307.584"/>
      </g>
     </g>
     <g id="text_2">
      <!-- −1 -->
      <defs>
       <path d="M 12.40625 8.296875 
L 28.515625 8.296875 
L 28.515625 63.921875 
L 10.984375 60.40625 
L 10.984375 69.390625 
L 28.421875 72.90625 
L 38.28125 72.90625 
L 38.28125 8.296875 
L 54.390625 8.296875 
L 54.390625 0 
L 12.40625 0 
z
" id="DejaVuSans-49"/>
      </defs>
      <g transform="translate(158.704725 327.501344)scale(0.17 -0.17)">
       <use xlink:href="#DejaVuSans-8722"/>
       <use x="83.789062" xlink:href="#DejaVuSans-49"/>
      </g>
     </g>
    </g>
    <g id="xtick_3">
     <g id="line2d_3">
      <g>
       <use style="stroke:#000000;stroke-width:0.8;" x="236.170823" xlink:href="#m99985748e0" y="307.584"/>
      </g>
     </g>
     <g id="text_3">
      <!-- 0 -->
      <defs>
       <path d="M 31.78125 66.40625 
Q 24.171875 66.40625 20.328125 58.90625 
Q 16.5 51.421875 16.5 36.375 
Q 16.5 21.390625 20.328125 13.890625 
Q 24.171875 6.390625 31.78125 6.390625 
Q 39.453125 6.390625 43.28125 13.890625 
Q 47.125 21.390625 47.125 36.375 
Q 47.125 51.421875 43.28125 58.90625 
Q 39.453125 66.40625 31.78125 66.40625 
z
M 31.78125 74.21875 
Q 44.046875 74.21875 50.515625 64.515625 
Q 56.984375 54.828125 56.984375 36.375 
Q 56.984375 17.96875 50.515625 8.265625 
Q 44.046875 -1.421875 31.78125 -1.421875 
Q 19.53125 -1.421875 13.0625 8.265625 
Q 6.59375 17.96875 6.59375 36.375 
Q 6.59375 54.828125 13.0625 64.515625 
Q 19.53125 74.21875 31.78125 74.21875 
z
" id="DejaVuSans-48"/>
      </defs>
      <g transform="translate(230.762698 327.501344)scale(0.17 -0.17)">
       <use xlink:href="#DejaVuSans-48"/>
      </g>
     </g>
    </g>
    <g id="xtick_4">
     <g id="line2d_4">
      <g>
       <use style="stroke:#000000;stroke-width:0.8;" x="301.106061" xlink:href="#m99985748e0" y="307.584"/>
      </g>
     </g>
     <g id="text_4">
      <!-- 1 -->
      <g transform="translate(295.697936 327.501344)scale(0.17 -0.17)">
       <use xlink:href="#DejaVuSans-49"/>
      </g>
     </g>
    </g>
    <g id="xtick_5">
     <g id="line2d_5">
      <g>
       <use style="stroke:#000000;stroke-width:0.8;" x="366.041299" xlink:href="#m99985748e0" y="307.584"/>
      </g>
     </g>
     <g id="text_5">
      <!-- 2 -->
      <g transform="translate(360.633174 327.501344)scale(0.17 -0.17)">
       <use xlink:href="#DejaVuSans-50"/>
      </g>
     </g>
    </g>
    <g id="text_6">
     <!-- Position in Radian -->
     <defs>
      <path d="M 19.671875 64.796875 
L 19.671875 37.40625 
L 32.078125 37.40625 
Q 38.96875 37.40625 42.71875 40.96875 
Q 46.484375 44.53125 46.484375 51.125 
Q 46.484375 57.671875 42.71875 61.234375 
Q 38.96875 64.796875 32.078125 64.796875 
z
M 9.8125 72.90625 
L 32.078125 72.90625 
Q 44.34375 72.90625 50.609375 67.359375 
Q 56.890625 61.8125 56.890625 51.125 
Q 56.890625 40.328125 50.609375 34.8125 
Q 44.34375 29.296875 32.078125 29.296875 
L 19.671875 29.296875 
L 19.671875 0 
L 9.8125 0 
z
" id="DejaVuSans-80"/>
      <path d="M 30.609375 48.390625 
Q 23.390625 48.390625 19.1875 42.75 
Q 14.984375 37.109375 14.984375 27.296875 
Q 14.984375 17.484375 19.15625 11.84375 
Q 23.34375 6.203125 30.609375 6.203125 
Q 37.796875 6.203125 41.984375 11.859375 
Q 46.1875 17.53125 46.1875 27.296875 
Q 46.1875 37.015625 41.984375 42.703125 
Q 37.796875 48.390625 30.609375 48.390625 
z
M 30.609375 56 
Q 42.328125 56 49.015625 48.375 
Q 55.71875 40.765625 55.71875 27.296875 
Q 55.71875 13.875 49.015625 6.21875 
Q 42.328125 -1.421875 30.609375 -1.421875 
Q 18.84375 -1.421875 12.171875 6.21875 
Q 5.515625 13.875 5.515625 27.296875 
Q 5.515625 40.765625 12.171875 48.375 
Q 18.84375 56 30.609375 56 
z
" id="DejaVuSans-111"/>
      <path d="M 44.28125 53.078125 
L 44.28125 44.578125 
Q 40.484375 46.53125 36.375 47.5 
Q 32.28125 48.484375 27.875 48.484375 
Q 21.1875 48.484375 17.84375 46.4375 
Q 14.5 44.390625 14.5 40.28125 
Q 14.5 37.15625 16.890625 35.375 
Q 19.28125 33.59375 26.515625 31.984375 
L 29.59375 31.296875 
Q 39.15625 29.25 43.1875 25.515625 
Q 47.21875 21.78125 47.21875 15.09375 
Q 47.21875 7.46875 41.1875 3.015625 
Q 35.15625 -1.421875 24.609375 -1.421875 
Q 20.21875 -1.421875 15.453125 -0.5625 
Q 10.6875 0.296875 5.421875 2 
L 5.421875 11.28125 
Q 10.40625 8.6875 15.234375 7.390625 
Q 20.0625 6.109375 24.8125 6.109375 
Q 31.15625 6.109375 34.5625 8.28125 
Q 37.984375 10.453125 37.984375 14.40625 
Q 37.984375 18.0625 35.515625 20.015625 
Q 33.0625 21.96875 24.703125 23.78125 
L 21.578125 24.515625 
Q 13.234375 26.265625 9.515625 29.90625 
Q 5.8125 33.546875 5.8125 39.890625 
Q 5.8125 47.609375 11.28125 51.796875 
Q 16.75 56 26.8125 56 
Q 31.78125 56 36.171875 55.265625 
Q 40.578125 54.546875 44.28125 53.078125 
z
" id="DejaVuSans-115"/>
      <path d="M 9.421875 54.6875 
L 18.40625 54.6875 
L 18.40625 0 
L 9.421875 0 
z
M 9.421875 75.984375 
L 18.40625 75.984375 
L 18.40625 64.59375 
L 9.421875 64.59375 
z
" id="DejaVuSans-105"/>
      <path d="M 18.3125 70.21875 
L 18.3125 54.6875 
L 36.8125 54.6875 
L 36.8125 47.703125 
L 18.3125 47.703125 
L 18.3125 18.015625 
Q 18.3125 11.328125 20.140625 9.421875 
Q 21.96875 7.515625 27.59375 7.515625 
L 36.8125 7.515625 
L 36.8125 0 
L 27.59375 0 
Q 17.1875 0 13.234375 3.875 
Q 9.28125 7.765625 9.28125 18.015625 
L 9.28125 47.703125 
L 2.6875 47.703125 
L 2.6875 54.6875 
L 9.28125 54.6875 
L 9.28125 70.21875 
z
" id="DejaVuSans-116"/>
      <path d="M 54.890625 33.015625 
L 54.890625 0 
L 45.90625 0 
L 45.90625 32.71875 
Q 45.90625 40.484375 42.875 44.328125 
Q 39.84375 48.1875 33.796875 48.1875 
Q 26.515625 48.1875 22.3125 43.546875 
Q 18.109375 38.921875 18.109375 30.90625 
L 18.109375 0 
L 9.078125 0 
L 9.078125 54.6875 
L 18.109375 54.6875 
L 18.109375 46.1875 
Q 21.34375 51.125 25.703125 53.5625 
Q 30.078125 56 35.796875 56 
Q 45.21875 56 50.046875 50.171875 
Q 54.890625 44.34375 54.890625 33.015625 
z
" id="DejaVuSans-110"/>
      <path id="DejaVuSans-32"/>
      <path d="M 44.390625 34.1875 
Q 47.5625 33.109375 50.5625 29.59375 
Q 53.5625 26.078125 56.59375 19.921875 
L 66.609375 0 
L 56 0 
L 46.6875 18.703125 
Q 43.0625 26.03125 39.671875 28.421875 
Q 36.28125 30.8125 30.421875 30.8125 
L 19.671875 30.8125 
L 19.671875 0 
L 9.8125 0 
L 9.8125 72.90625 
L 32.078125 72.90625 
Q 44.578125 72.90625 50.734375 67.671875 
Q 56.890625 62.453125 56.890625 51.90625 
Q 56.890625 45.015625 53.6875 40.46875 
Q 50.484375 35.9375 44.390625 34.1875 
z
M 19.671875 64.796875 
L 19.671875 38.921875 
L 32.078125 38.921875 
Q 39.203125 38.921875 42.84375 42.21875 
Q 46.484375 45.515625 46.484375 51.90625 
Q 46.484375 58.296875 42.84375 61.546875 
Q 39.203125 64.796875 32.078125 64.796875 
z
" id="DejaVuSans-82"/>
      <path d="M 34.28125 27.484375 
Q 23.390625 27.484375 19.1875 25 
Q 14.984375 22.515625 14.984375 16.5 
Q 14.984375 11.71875 18.140625 8.90625 
Q 21.296875 6.109375 26.703125 6.109375 
Q 34.1875 6.109375 38.703125 11.40625 
Q 43.21875 16.703125 43.21875 25.484375 
L 43.21875 27.484375 
z
M 52.203125 31.203125 
L 52.203125 0 
L 43.21875 0 
L 43.21875 8.296875 
Q 40.140625 3.328125 35.546875 0.953125 
Q 30.953125 -1.421875 24.3125 -1.421875 
Q 15.921875 -1.421875 10.953125 3.296875 
Q 6 8.015625 6 15.921875 
Q 6 25.140625 12.171875 29.828125 
Q 18.359375 34.515625 30.609375 34.515625 
L 43.21875 34.515625 
L 43.21875 35.40625 
Q 43.21875 41.609375 39.140625 45 
Q 35.0625 48.390625 27.6875 48.390625 
Q 23 48.390625 18.546875 47.265625 
Q 14.109375 46.140625 10.015625 43.890625 
L 10.015625 52.203125 
Q 14.9375 54.109375 19.578125 55.046875 
Q 24.21875 56 28.609375 56 
Q 40.484375 56 46.34375 49.84375 
Q 52.203125 43.703125 52.203125 31.203125 
z
" id="DejaVuSans-97"/>
      <path d="M 45.40625 46.390625 
L 45.40625 75.984375 
L 54.390625 75.984375 
L 54.390625 0 
L 45.40625 0 
L 45.40625 8.203125 
Q 42.578125 3.328125 38.25 0.953125 
Q 33.9375 -1.421875 27.875 -1.421875 
Q 17.96875 -1.421875 11.734375 6.484375 
Q 5.515625 14.40625 5.515625 27.296875 
Q 5.515625 40.1875 11.734375 48.09375 
Q 17.96875 56 27.875 56 
Q 33.9375 56 38.25 53.625 
Q 42.578125 51.265625 45.40625 46.390625 
z
M 14.796875 27.296875 
Q 14.796875 17.390625 18.875 11.75 
Q 22.953125 6.109375 30.078125 6.109375 
Q 37.203125 6.109375 41.296875 11.75 
Q 45.40625 17.390625 45.40625 27.296875 
Q 45.40625 37.203125 41.296875 42.84375 
Q 37.203125 48.484375 30.078125 48.484375 
Q 22.953125 48.484375 18.875 42.84375 
Q 14.796875 37.203125 14.796875 27.296875 
z
" id="DejaVuSans-100"/>
     </defs>
     <g transform="translate(102.024844 357.832125)scale(0.3 -0.3)">
      <use xlink:href="#DejaVuSans-80"/>
      <use x="60.255859" xlink:href="#DejaVuSans-111"/>
      <use x="121.4375" xlink:href="#DejaVuSans-115"/>
      <use x="173.537109" xlink:href="#DejaVuSans-105"/>
      <use x="201.320312" xlink:href="#DejaVuSans-116"/>
      <use x="240.529297" xlink:href="#DejaVuSans-105"/>
      <use x="268.3125" xlink:href="#DejaVuSans-111"/>
      <use x="329.494141" xlink:href="#DejaVuSans-110"/>
      <use x="392.873047" xlink:href="#DejaVuSans-32"/>
      <use x="424.660156" xlink:href="#DejaVuSans-105"/>
      <use x="452.443359" xlink:href="#DejaVuSans-110"/>
      <use x="515.822266" xlink:href="#DejaVuSans-32"/>
      <use x="547.609375" xlink:href="#DejaVuSans-82"/>
      <use x="617.060547" xlink:href="#DejaVuSans-97"/>
      <use x="678.339844" xlink:href="#DejaVuSans-100"/>
      <use x="741.816406" xlink:href="#DejaVuSans-105"/>
      <use x="769.599609" xlink:href="#DejaVuSans-97"/>
      <use x="830.878906" xlink:href="#DejaVuSans-110"/>
     </g>
    </g>
   </g>
   <g id="matplotlib.axis_2">
    <g id="ytick_1">
     <g id="line2d_6">
      <defs>
       <path d="M 0 0 
L -3.5 0 
" id="m084dc07b86" style="stroke:#000000;stroke-width:0.8;"/>
      </defs>
      <g>
       <use style="stroke:#000000;stroke-width:0.8;" x="57.6" xlink:href="#m084dc07b86" y="307.584"/>
      </g>
     </g>
     <g id="text_7">
      <!-- 0.0 -->
      <defs>
       <path d="M 10.6875 12.40625 
L 21 12.40625 
L 21 0 
L 10.6875 0 
z
" id="DejaVuSans-46"/>
      </defs>
      <g transform="translate(23.564687 314.042672)scale(0.17 -0.17)">
       <use xlink:href="#DejaVuSans-48"/>
       <use x="63.623047" xlink:href="#DejaVuSans-46"/>
       <use x="95.410156" xlink:href="#DejaVuSans-48"/>
      </g>
     </g>
    </g>
    <g id="ytick_2">
     <g id="line2d_7">
      <g>
       <use style="stroke:#000000;stroke-width:0.8;" x="57.6" xlink:href="#m084dc07b86" y="242.728658"/>
      </g>
     </g>
     <g id="text_8">
      <!-- 0.5 -->
      <defs>
       <path d="M 10.796875 72.90625 
L 49.515625 72.90625 
L 49.515625 64.59375 
L 19.828125 64.59375 
L 19.828125 46.734375 
Q 21.96875 47.46875 24.109375 47.828125 
Q 26.265625 48.1875 28.421875 48.1875 
Q 40.625 48.1875 47.75 41.5 
Q 54.890625 34.8125 54.890625 23.390625 
Q 54.890625 11.625 47.5625 5.09375 
Q 40.234375 -1.421875 26.90625 -1.421875 
Q 22.3125 -1.421875 17.546875 -0.640625 
Q 12.796875 0.140625 7.71875 1.703125 
L 7.71875 11.625 
Q 12.109375 9.234375 16.796875 8.0625 
Q 21.484375 6.890625 26.703125 6.890625 
Q 35.15625 6.890625 40.078125 11.328125 
Q 45.015625 15.765625 45.015625 23.390625 
Q 45.015625 31 40.078125 35.4375 
Q 35.15625 39.890625 26.703125 39.890625 
Q 22.75 39.890625 18.8125 39.015625 
Q 14.890625 38.140625 10.796875 36.28125 
z
" id="DejaVuSans-53"/>
      </defs>
      <g transform="translate(23.564687 249.18733)scale(0.17 -0.17)">
       <use xlink:href="#DejaVuSans-48"/>
       <use x="63.623047" xlink:href="#DejaVuSans-46"/>
       <use x="95.410156" xlink:href="#DejaVuSans-53"/>
      </g>
     </g>
    </g>
    <g id="ytick_3">
     <g id="line2d_8">
      <g>
       <use style="stroke:#000000;stroke-width:0.8;" x="57.6" xlink:href="#m084dc07b86" y="177.873317"/>
      </g>
     </g>
     <g id="text_9">
      <!-- 1.0 -->
      <g transform="translate(23.564687 184.331989)scale(0.17 -0.17)">
       <use xlink:href="#DejaVuSans-49"/>
       <use x="63.623047" xlink:href="#DejaVuSans-46"/>
       <use x="95.410156" xlink:href="#DejaVuSans-48"/>
      </g>
     </g>
    </g>
    <g id="ytick_4">
     <g id="line2d_9">
      <g>
       <use style="stroke:#000000;stroke-width:0.8;" x="57.6" xlink:href="#m084dc07b86" y="113.017975"/>
      </g>
     </g>
     <g id="text_10">
      <!-- 1.5 -->
      <g transform="translate(23.564687 119.476647)scale(0.17 -0.17)">
       <use xlink:href="#DejaVuSans-49"/>
       <use x="63.623047" xlink:href="#DejaVuSans-46"/>
       <use x="95.410156" xlink:href="#DejaVuSans-53"/>
      </g>
     </g>
    </g>
    <g id="ytick_5">
     <g id="line2d_10">
      <g>
       <use style="stroke:#000000;stroke-width:0.8;" x="57.6" xlink:href="#m084dc07b86" y="48.162633"/>
      </g>
     </g>
     <g id="text_11">
      <!-- 2.0 -->
      <g transform="translate(23.564687 54.621305)scale(0.17 -0.17)">
       <use xlink:href="#DejaVuSans-50"/>
       <use x="63.623047" xlink:href="#DejaVuSans-46"/>
       <use x="95.410156" xlink:href="#DejaVuSans-48"/>
      </g>
     </g>
    </g>
    <g id="text_12">
     <!-- Density -->
     <defs>
      <path d="M 19.671875 64.796875 
L 19.671875 8.109375 
L 31.59375 8.109375 
Q 46.6875 8.109375 53.6875 14.9375 
Q 60.6875 21.78125 60.6875 36.53125 
Q 60.6875 51.171875 53.6875 57.984375 
Q 46.6875 64.796875 31.59375 64.796875 
z
M 9.8125 72.90625 
L 30.078125 72.90625 
Q 51.265625 72.90625 61.171875 64.09375 
Q 71.09375 55.28125 71.09375 36.53125 
Q 71.09375 17.671875 61.125 8.828125 
Q 51.171875 0 30.078125 0 
L 9.8125 0 
z
" id="DejaVuSans-68"/>
      <path d="M 56.203125 29.59375 
L 56.203125 25.203125 
L 14.890625 25.203125 
Q 15.484375 15.921875 20.484375 11.0625 
Q 25.484375 6.203125 34.421875 6.203125 
Q 39.59375 6.203125 44.453125 7.46875 
Q 49.3125 8.734375 54.109375 11.28125 
L 54.109375 2.78125 
Q 49.265625 0.734375 44.1875 -0.34375 
Q 39.109375 -1.421875 33.890625 -1.421875 
Q 20.796875 -1.421875 13.15625 6.1875 
Q 5.515625 13.8125 5.515625 26.8125 
Q 5.515625 40.234375 12.765625 48.109375 
Q 20.015625 56 32.328125 56 
Q 43.359375 56 49.78125 48.890625 
Q 56.203125 41.796875 56.203125 29.59375 
z
M 47.21875 32.234375 
Q 47.125 39.59375 43.09375 43.984375 
Q 39.0625 48.390625 32.421875 48.390625 
Q 24.90625 48.390625 20.390625 44.140625 
Q 15.875 39.890625 15.1875 32.171875 
z
" id="DejaVuSans-101"/>
      <path d="M 32.171875 -5.078125 
Q 28.375 -14.84375 24.75 -17.8125 
Q 21.140625 -20.796875 15.09375 -20.796875 
L 7.90625 -20.796875 
L 7.90625 -13.28125 
L 13.1875 -13.28125 
Q 16.890625 -13.28125 18.9375 -11.515625 
Q 21 -9.765625 23.484375 -3.21875 
L 25.09375 0.875 
L 2.984375 54.6875 
L 12.5 54.6875 
L 29.59375 11.921875 
L 46.6875 54.6875 
L 56.203125 54.6875 
z
" id="DejaVuSans-121"/>
     </defs>
     <g transform="translate(13.325625 231.553781)rotate(-90)scale(0.3 -0.3)">
      <use xlink:href="#DejaVuSans-68"/>
      <use x="77.001953" xlink:href="#DejaVuSans-101"/>
      <use x="138.525391" xlink:href="#DejaVuSans-110"/>
      <use x="201.904297" xlink:href="#DejaVuSans-115"/>
      <use x="254.003906" xlink:href="#DejaVuSans-105"/>
      <use x="281.787109" xlink:href="#DejaVuSans-116"/>
      <use x="320.996094" xlink:href="#DejaVuSans-121"/>
     </g>
    </g>
   </g>
   <g id="line2d_11">
    <path clip-path="url(#p1097c64732)" d="M 73.832727 307.584 
L 114.135865 307.475608 
L 114.741927 307.161579 
L 115.34799 306.893827 
L 115.737601 306.979152 
L 116.625049 307.270136 
L 117.101241 307.07524 
L 117.664013 306.892967 
L 118.053624 307.019355 
L 119.157523 307.510758 
L 119.677005 307.424999 
L 120.326358 307.053014 
L 120.84584 306.857989 
L 121.841513 306.681127 
L 122.685671 306.127966 
L 123.053638 306.27171 
L 123.57312 306.443407 
L 123.897796 306.289828 
L 124.309052 305.810614 
L 125.283081 304.563147 
L 125.564467 304.568551 
L 126.019014 304.875533 
L 126.38698 304.998171 
L 126.668366 304.854624 
L 127.642395 304.13436 
L 127.967071 304.293034 
L 128.421617 304.81024 
L 129.135905 305.585569 
L 129.612097 305.732952 
L 130.304739 305.973298 
L 130.802576 306.092773 
L 131.083962 305.932065 
L 131.451929 305.41359 
L 132.317732 304.111917 
L 132.750633 303.874542 
L 133.07531 303.922064 
L 133.399986 304.217817 
L 134.374014 305.279855 
L 134.720336 305.22336 
L 135.629429 304.720119 
L 136.01904 304.251776 
L 136.863198 303.085039 
L 137.079649 303.142213 
L 137.361035 303.488419 
L 138.313419 304.873799 
L 138.61645 304.899977 
L 138.984416 304.678031 
L 139.655414 303.948277 
L 140.15325 303.137529 
L 140.672732 301.76435 
L 141.25715 300.401579 
L 142.296113 298.721047 
L 142.88053 296.516542 
L 143.421657 294.843452 
L 143.703043 294.527914 
L 143.919494 294.564284 
L 144.655427 294.930283 
L 144.871878 294.493593 
L 145.196554 293.190182 
L 146.019067 289.666053 
L 146.278808 289.365992 
L 146.451969 289.440212 
L 146.690064 289.842929 
L 147.534223 291.548384 
L 147.685738 291.41159 
L 147.902189 290.859923 
L 148.356736 288.881405 
L 148.789637 287.437367 
L 149.027733 287.243431 
L 149.222539 287.363501 
L 149.915181 287.977033 
L 150.196567 287.804079 
L 150.607824 287.584775 
L 150.824275 287.732622 
L 151.127306 288.28141 
L 152.729042 292.253263 
L 153.226878 294.23122 
L 153.962811 298.250686 
L 154.612163 301.358686 
L 154.958485 302.09108 
L 155.477967 302.539806 
L 155.845933 303.102179 
L 156.451995 304.057592 
L 156.668446 304.052032 
L 156.906542 303.75547 
L 157.296153 302.796984 
L 158.205247 300.501375 
L 158.573213 300.092536 
L 158.854599 300.061773 
L 159.20092 300.288703 
L 159.850273 300.73868 
L 160.196594 300.673183 
L 160.845946 300.493464 
L 161.278848 300.726143 
L 161.625169 300.800553 
L 161.863265 300.612353 
L 162.209586 299.988402 
L 162.772358 299.001231 
L 162.988809 298.975799 
L 163.226905 299.230276 
L 163.854612 300.01695 
L 164.027773 299.841229 
L 164.265869 299.163435 
L 164.65548 297.208836 
L 165.369768 293.709986 
L 165.737734 292.908848 
L 166.105701 292.606436 
L 166.408732 292.611913 
L 166.690118 292.868009 
L 167.123019 293.668069 
L 167.642501 294.486629 
L 167.967177 294.633714 
L 168.270209 294.526033 
L 168.57324 294.143928 
L 168.941206 293.250968 
L 170.564587 287.988387 
L 170.932553 285.629088 
L 172.490999 274.007991 
L 172.88061 272.9444 
L 173.161996 272.693726 
L 173.400092 272.773994 
L 173.724769 273.17985 
L 174.482346 274.589602 
L 174.807023 275.655966 
L 175.174989 277.742266 
L 175.845986 281.601129 
L 176.019147 281.779866 
L 176.040792 281.768215 
L 176.170663 281.545683 
L 176.408758 280.570921 
L 177.079756 277.557601 
L 177.209626 277.543534 
L 177.361142 277.86782 
L 177.599238 279.033821 
L 178.746427 285.678512 
L 178.897943 285.701755 
L 179.049458 285.451902 
L 179.287554 284.546924 
L 179.785391 281.451223 
L 180.175002 279.716773 
L 180.326518 279.608023 
L 180.348163 279.622693 
L 180.499678 279.927367 
L 180.759419 281.104501 
L 181.408772 284.186177 
L 181.646868 284.429882 
L 181.863318 284.313939 
L 182.20964 284.136874 
L 182.3828 284.321259 
L 182.620896 284.999377 
L 183.443409 287.740936 
L 183.57328 287.612417 
L 183.78973 286.980169 
L 184.720469 283.733906 
L 184.89363 283.770188 
L 185.088435 284.11906 
L 185.413111 285.288872 
L 186.062464 287.691897 
L 186.235624 287.775806 
L 186.38714 287.57108 
L 186.646881 286.705994 
L 187.6642 282.740373 
L 188.140391 281.479488 
L 188.443423 279.767892 
L 188.876324 275.68716 
L 189.504031 270.11008 
L 189.742127 269.507234 
L 189.850353 269.592134 
L 190.023513 270.140615 
L 190.413125 272.414219 
L 190.781091 274.001284 
L 190.954252 274.094771 
L 191.105767 273.847318 
L 191.581959 272.874892 
L 191.603604 272.891812 
L 191.733475 273.206544 
L 191.92828 274.434226 
L 192.252957 278.293499 
L 193.270275 291.506286 
L 193.638242 293.533598 
L 193.919628 294.069137 
L 194.136078 294.083112 
L 194.828721 293.889584 
L 195.088462 294.202994 
L 196.06249 295.667675 
L 196.300586 295.532277 
L 196.690198 294.970452 
L 197.620936 293.636757 
L 198.010548 292.808688 
L 199.027866 290.341268 
L 199.417478 290.181324 
L 199.89367 289.940308 
L 200.910988 289.063037 
L 201.235664 288.252982 
L 201.885017 286.557679 
L 202.014887 286.607152 
L 202.188048 286.995006 
L 202.491079 288.384969 
L 203.010561 290.668694 
L 203.183722 290.772257 
L 203.335237 290.493554 
L 203.573333 289.429381 
L 204.11446 285.576542 
L 204.785457 281.511917 
L 205.39152 277.680463 
L 206.300613 271.715244 
L 206.84174 269.756813 
L 207.339577 268.68314 
L 207.815769 267.66648 
L 208.227025 266.02696 
L 208.768152 264.027523 
L 209.006248 263.803439 
L 209.201054 263.903012 
L 209.742181 264.283644 
L 209.958631 264.086669 
L 210.283308 263.408478 
L 211.387207 260.307387 
L 212.556041 256.030651 
L 212.924007 253.490275 
L 214.157777 241.865789 
L 214.633969 236.315148 
L 215.867738 220.585241 
L 216.38722 217.513128 
L 216.993282 213.896323 
L 217.75086 209.170797 
L 217.988956 208.776659 
L 218.118826 208.867563 
L 218.313632 209.374897 
L 218.659953 211.078181 
L 219.460821 215.107637 
L 219.958658 217.421736 
L 220.47814 221.348026 
L 220.911042 223.883143 
L 221.105847 224.116268 
L 221.235718 223.911497 
L 221.473814 222.944206 
L 222.058231 220.458559 
L 222.188101 220.491059 
L 222.339617 220.903154 
L 222.642648 222.574215 
L 223.053904 224.479822 
L 223.183775 224.545457 
L 223.20542 224.526356 
L 223.356936 224.177126 
L 224.071223 221.739354 
L 224.136158 221.785451 
L 224.309319 222.164795 
L 224.742221 223.247077 
L 224.763866 223.239628 
L 224.872091 223.029826 
L 225.045252 221.977487 
L 225.283348 218.84867 
L 225.629669 210.945753 
L 226.885083 179.210381 
L 227.685951 167.645147 
L 228.681625 148.000884 
L 228.811496 147.712241 
L 228.833141 147.727243 
L 228.941366 148.036462 
L 229.179462 149.702659 
L 229.828814 154.436383 
L 230.02362 154.741759 
L 230.131845 154.59411 
L 230.305006 153.799733 
L 230.543102 151.367014 
L 230.867778 145.373453 
L 231.582066 131.474052 
L 231.690291 131.078829 
L 231.733581 131.11657 
L 231.841807 131.699535 
L 232.036612 134.372189 
L 232.404579 143.259846 
L 233.270382 164.230159 
L 233.659993 169.022474 
L 233.876444 169.77181 
L 233.963024 169.641783 
L 234.11454 168.812252 
L 234.352636 165.933525 
L 234.634022 159.606042 
L 234.937053 147.283563 
L 235.283374 122.660491 
L 236.149177 54.586366 
L 236.214113 54.144 
L 236.257403 54.420259 
L 236.365628 57.051957 
L 236.582079 69.498919 
L 237.664333 144.84294 
L 237.945719 149.473133 
L 238.11888 150.101108 
L 238.140525 150.085736 
L 238.24875 149.731766 
L 238.443556 148.0415 
L 238.746587 143.127845 
L 239.331004 129.06024 
L 239.850486 118.74606 
L 240.088582 117.318397 
L 240.153517 117.456284 
L 240.283388 118.487125 
L 240.499838 122.503175 
L 240.84616 134.048841 
L 241.603737 160.115575 
L 241.863478 163.008006 
L 242.014994 163.310297 
L 242.036639 163.299522 
L 242.2098 162.994225 
L 242.38296 162.808115 
L 242.404605 162.826181 
L 242.512831 163.126937 
L 242.685991 164.499963 
L 242.945732 168.790875 
L 244.157857 192.694706 
L 244.569113 194.879884 
L 244.958725 197.260593 
L 245.369981 201.465374 
L 246.084269 211.544821 
L 246.993362 223.792424 
L 247.253103 224.921174 
L 247.361329 224.927793 
L 247.382974 224.90004 
L 247.556134 224.395647 
L 248.443583 221.085542 
L 248.595098 221.117338 
L 248.768259 221.428172 
L 249.006355 222.404598 
L 249.331031 224.861722 
L 250.305059 233.084247 
L 250.5648 233.582854 
L 250.781251 233.590001 
L 251.408958 233.412006 
L 251.71199 233.680206 
L 252.231471 234.14122 
L 252.447922 234.000362 
L 252.880824 233.64372 
L 253.010694 233.911993 
L 253.2055 235.014422 
L 253.465241 238.008754 
L 254.028013 248.062216 
L 254.52585 254.878444 
L 254.893816 257.207326 
L 255.478233 260.176937 
L 255.80291 263.676251 
L 257.101614 279.962621 
L 257.33971 280.472583 
L 257.491226 280.457303 
L 257.707677 280.120094 
L 258.53019 278.525479 
L 258.70335 278.679137 
L 258.984736 279.321735 
L 259.504218 280.476823 
L 259.699024 280.486864 
L 259.89383 280.190246 
L 260.218506 279.167734 
L 260.802923 277.382239 
L 260.976083 277.359318 
L 261.127599 277.646967 
L 261.365695 278.693234 
L 261.841887 282.160986 
L 262.318078 284.942325 
L 262.599464 285.492444 
L 262.79427 285.481816 
L 263.443623 285.1933 
L 263.681718 285.54426 
L 264.763972 287.592439 
L 265.218519 288.002231 
L 265.586485 288.758317 
L 266.538869 290.889783 
L 267.274802 292.04972 
L 267.707703 293.411223 
L 268.789957 297.094167 
L 269.049698 297.260105 
L 269.331084 297.138801 
L 269.807276 296.936371 
L 270.088662 297.090869 
L 270.651434 297.446026 
L 270.867885 297.269717 
L 271.127626 296.71244 
L 271.560527 295.15397 
L 272.469621 291.857875 
L 272.989103 290.85819 
L 273.53023 289.760183 
L 275.11032 286.053991 
L 275.478287 284.900284 
L 275.846253 282.885985 
L 277.469634 272.511959 
L 277.815955 271.635205 
L 277.989116 271.609688 
L 278.162277 271.901434 
L 278.465308 272.984807 
L 278.941499 274.522618 
L 279.093015 274.549796 
L 279.24453 274.260527 
L 279.482626 273.193039 
L 280.045398 269.171064 
L 280.456655 267.146341 
L 280.716396 266.771153 
L 280.954492 266.819445 
L 281.279168 266.881004 
L 281.473974 266.672667 
L 281.733715 266.002937 
L 282.123326 264.257073 
L 283.183935 259.087227 
L 283.29216 259.169097 
L 283.443676 259.68508 
L 283.681772 261.486705 
L 284.093028 266.735742 
L 284.6558 273.20803 
L 284.915541 274.249195 
L 285.045412 274.272273 
L 285.196927 273.967437 
L 285.521604 272.627094 
L 285.97615 271.023529 
L 286.149311 270.930247 
L 286.300826 271.140064 
L 286.560567 272.02691 
L 287.469661 275.551698 
L 288.270529 276.995196 
L 288.53027 277.177445 
L 288.70343 277.063131 
L 288.941526 276.587778 
L 289.764039 274.683437 
L 289.958845 274.748684 
L 290.240231 275.171352 
L 290.673132 275.734593 
L 290.846293 275.6648 
L 291.062744 275.276928 
L 291.474 273.951234 
L 292.101708 272.100714 
L 292.339804 271.880725 
L 292.491319 272.01253 
L 292.686125 272.583769 
L 292.967511 274.24017 
L 294.093055 281.887506 
L 294.396086 282.384787 
L 294.980503 283.002301 
L 295.261889 283.916224 
L 295.716436 286.370432 
L 296.300853 289.187259 
L 296.582239 289.6608 
L 296.777045 289.640723 
L 297.123366 289.258255 
L 297.426397 289.061655 
L 297.621203 289.17597 
L 297.902589 289.667853 
L 298.551941 290.875652 
L 298.768392 290.89732 
L 299.028133 290.645652 
L 299.980517 289.479674 
L 300.608224 289.112307 
L 301.084416 288.381028 
L 301.517317 287.883257 
L 301.777058 287.869225 
L 302.058444 288.097347 
L 302.38312 288.683753 
L 302.729442 289.823024 
L 303.313859 292.754224 
L 303.74676 294.366035 
L 303.984856 294.585407 
L 304.158017 294.458076 
L 304.89395 293.664648 
L 305.1104 293.99241 
L 305.500012 295.12376 
L 306.928587 299.397791 
L 307.123393 299.500796 
L 307.274908 299.286298 
L 307.491359 298.479346 
L 307.859325 295.992661 
L 308.443743 292.241127 
L 308.638548 291.971319 
L 308.768419 292.15593 
L 308.98487 293.026118 
L 310.110414 298.562683 
L 310.34851 298.666845 
L 310.651541 298.491512 
L 311.127732 298.247044 
L 311.365828 298.368451 
L 311.647214 298.792905 
L 312.080116 299.920974 
L 312.902629 302.046139 
L 313.313885 302.518161 
L 313.681852 302.639504 
L 313.941593 302.511179 
L 314.244624 302.073063 
L 314.915621 301.001715 
L 315.110427 301.079264 
L 315.370168 301.50697 
L 316.084456 302.793653 
L 316.452422 302.939977 
L 317.015194 303.155488 
L 317.880997 303.606328 
L 318.487059 303.523742 
L 318.963251 303.292581 
L 319.287927 302.841033 
L 319.655894 301.87715 
L 320.132085 299.916992 
L 320.932953 296.620525 
L 321.149404 296.45366 
L 321.30092 296.617488 
L 321.539016 297.27716 
L 322.491399 300.344255 
L 322.729495 300.432671 
L 322.989236 300.26127 
L 323.768459 299.600844 
L 323.98491 299.793687 
L 324.331231 300.484862 
L 324.850713 301.415877 
L 325.153744 301.540795 
L 325.781451 301.42524 
L 326.993576 301.156451 
L 327.231671 300.68034 
L 327.556348 299.437846 
L 328.24899 296.690053 
L 328.443796 296.600819 
L 328.616957 296.827664 
L 328.941633 297.742355 
L 329.43947 299.030176 
L 329.61263 299.088774 
L 329.764146 298.869297 
L 329.980597 298.044879 
L 330.305273 295.700889 
L 331.192721 288.70974 
L 331.387527 288.483355 
L 331.517397 288.660175 
L 331.755493 289.472424 
L 332.361555 291.616777 
L 332.556361 291.675508 
L 332.751167 291.413656 
L 333.487099 290.164403 
L 333.681905 290.253751 
L 333.941646 290.67482 
L 334.309612 291.769466 
L 334.807449 294.076352 
L 335.781478 298.612449 
L 336.25767 299.997959 
L 336.47412 300.165906 
L 336.625636 300.038454 
L 336.863732 299.460279 
L 337.556374 297.534127 
L 337.70789 297.58955 
L 337.902696 297.997659 
L 338.378887 299.770987 
L 338.725209 300.620456 
L 338.941659 300.691421 
L 339.15811 300.460523 
L 340.976297 297.354689 
L 341.690584 295.48631 
L 341.907035 295.39638 
L 342.123486 295.58365 
L 343.010934 296.650815 
L 343.270675 296.492999 
L 343.638642 295.958896 
L 344.093188 294.85109 
L 344.829121 293.026245 
L 345.067217 292.940729 
L 345.283668 293.128892 
L 346.236051 294.244835 
L 346.863758 294.36856 
L 347.145144 294.802485 
L 347.556401 295.929963 
L 348.205753 297.651643 
L 348.465494 297.809357 
L 348.681945 297.668453 
L 349.612684 296.796171 
L 349.93736 296.518027 
L 350.326971 295.796827 
L 350.759873 295.126551 
L 350.954678 295.161115 
L 351.171129 295.523771 
L 351.539096 296.736744 
L 352.123513 298.561141 
L 352.404899 298.837357 
L 353.075896 299.139657 
L 353.357282 299.845561 
L 354.331311 302.743569 
L 354.482826 302.659238 
L 354.699277 302.21957 
L 355.586725 300.051031 
L 355.846466 300.037142 
L 356.387593 300.089836 
L 357.253397 299.834666 
L 357.599718 300.219741 
L 358.16249 300.802808 
L 358.465521 300.82173 
L 358.811842 300.597163 
L 359.244744 300.009584 
L 359.980677 298.9999 
L 360.218772 299.018953 
L 360.456868 299.295719 
L 360.88977 300.25374 
L 361.365962 301.142886 
L 361.625703 301.258268 
L 361.863798 301.120206 
L 362.188475 300.6344 
L 363.227438 298.820351 
L 363.422244 298.935471 
L 363.725275 299.458052 
L 364.742594 301.435377 
L 365.370301 302.007472 
L 365.738268 302.500347 
L 366.149524 303.497246 
L 366.820522 305.077379 
L 367.145198 305.316408 
L 367.469874 305.25749 
L 368.400612 304.944267 
L 368.833514 304.814533 
L 369.136545 304.442747 
L 370.067284 303.061084 
L 370.305379 303.18867 
L 371.365988 304.091928 
L 371.84218 303.911888 
L 373.530496 303.201198 
L 374.244784 303.093223 
L 374.547815 302.712247 
L 375.002362 301.675003 
L 375.478553 300.783169 
L 375.716649 300.732239 
L 375.9331 300.946019 
L 376.301066 301.691034 
L 378.054318 305.609036 
L 378.811896 306.67694 
L 379.179862 306.87404 
L 379.504538 306.7876 
L 380.565147 306.268249 
L 381.236144 306.255584 
L 381.604111 305.937254 
L 382.231818 305.394029 
L 382.599784 305.400792 
L 383.335717 305.4867 
L 383.768619 305.264461 
L 384.959098 304.474104 
L 385.305419 304.699677 
L 386.560834 305.746499 
L 386.863865 305.619105 
L 387.253477 305.159817 
L 387.946119 304.343659 
L 388.227505 304.319798 
L 388.573826 304.547172 
L 390.305433 306.266204 
L 391.127946 307.261866 
L 391.625783 307.508762 
L 392.361715 307.580715 
L 398.487273 307.584 
L 398.487273 307.584 
" style="fill:none;stroke:#ff7f0e;stroke-linecap:square;stroke-width:1.5;"/>
   </g>
   <g id="patch_103">
    <path d="M 57.6 307.584 
L 57.6 41.472 
" style="fill:none;stroke:#000000;stroke-linecap:square;stroke-linejoin:miter;stroke-width:0.8;"/>
   </g>
   <g id="patch_104">
    <path d="M 414.72 307.584 
L 414.72 41.472 
" style="fill:none;stroke:#000000;stroke-linecap:square;stroke-linejoin:miter;stroke-width:0.8;"/>
   </g>
   <g id="patch_105">
    <path d="M 57.6 307.584 
L 414.72 307.584 
" style="fill:none;stroke:#000000;stroke-linecap:square;stroke-linejoin:miter;stroke-width:0.8;"/>
   </g>
   <g id="patch_106">
    <path d="M 57.6 41.472 
L 414.72 41.472 
" style="fill:none;stroke:#000000;stroke-linecap:square;stroke-linejoin:miter;stroke-width:0.8;"/>
   </g>
  </g>
 </g>
 <defs>
  <clipPath id="p1097c64732">
   <rect height="266.112" width="357.12" x="57.6" y="41.472"/>
  </clipPath>
 </defs>
</svg>
