<?xml version="1.0" encoding="utf-8" standalone="no"?>
<!DOCTYPE svg PUBLIC "-//W3C//DTD SVG 1.1//EN"
  "http://www.w3.org/Graphics/SVG/1.1/DTD/svg11.dtd">
<!-- Created with matplotlib (https://matplotlib.org/) -->
<svg height="345.6pt" version="1.1" viewBox="0 0 460.8 345.6" width="460.8pt" xmlns="http://www.w3.org/2000/svg" xmlns:xlink="http://www.w3.org/1999/xlink">
 <defs>
  <style type="text/css">
*{stroke-linecap:butt;stroke-linejoin:round;}
  </style>
 </defs>
 <g id="figure_1">
  <g id="patch_1">
   <path d="M 0 345.6 
L 460.8 345.6 
L 460.8 0 
L 0 0 
z
" style="fill:#ffffff;"/>
  </g>
  <g id="axes_1">
   <g id="patch_2">
    <path d="M 57.6 307.584 
L 414.72 307.584 
L 414.72 41.472 
L 57.6 41.472 
z
" style="fill:#ffffff;"/>
   </g>
   <g id="patch_3">
    <path clip-path="url(#p6ad06b78bb)" d="M 99.932199 307.584 
L 102.656511 307.584 
L 102.656511 287.033061 
L 99.932199 287.033061 
z
" style="fill:#1f77b4;"/>
   </g>
   <g id="patch_4">
    <path clip-path="url(#p6ad06b78bb)" d="M 102.656511 307.584 
L 105.380823 307.584 
L 105.380823 297.308531 
L 102.656511 297.308531 
z
" style="fill:#1f77b4;"/>
   </g>
   <g id="patch_5">
    <path clip-path="url(#p6ad06b78bb)" d="M 105.380823 307.584 
L 108.105127 307.584 
L 108.105127 290.769548 
L 105.380823 290.769548 
z
" style="fill:#1f77b4;"/>
   </g>
   <g id="patch_6">
    <path clip-path="url(#p6ad06b78bb)" d="M 108.105127 307.584 
L 110.829439 307.584 
L 110.829439 291.703729 
L 108.105127 291.703729 
z
" style="fill:#1f77b4;"/>
   </g>
   <g id="patch_7">
    <path clip-path="url(#p6ad06b78bb)" d="M 110.829432 307.584 
L 113.553736 307.584 
L 113.553736 284.697662 
L 110.829432 284.697662 
z
" style="fill:#1f77b4;"/>
   </g>
   <g id="patch_8">
    <path clip-path="url(#p6ad06b78bb)" d="M 113.553744 307.584 
L 116.278056 307.584 
L 116.278056 287.500128 
L 113.553744 287.500128 
z
" style="fill:#1f77b4;"/>
   </g>
   <g id="patch_9">
    <path clip-path="url(#p6ad06b78bb)" d="M 116.278056 307.584 
L 119.002368 307.584 
L 119.002368 284.23066 
L 116.278056 284.23066 
z
" style="fill:#1f77b4;"/>
   </g>
   <g id="patch_10">
    <path clip-path="url(#p6ad06b78bb)" d="M 119.002368 307.584 
L 121.726672 307.584 
L 121.726672 288.901275 
L 119.002368 288.901275 
z
" style="fill:#1f77b4;"/>
   </g>
   <g id="patch_11">
    <path clip-path="url(#p6ad06b78bb)" d="M 121.726672 307.584 
L 124.450984 307.584 
L 124.450984 286.565994 
L 121.726672 286.565994 
z
" style="fill:#1f77b4;"/>
   </g>
   <g id="patch_12">
    <path clip-path="url(#p6ad06b78bb)" d="M 124.450984 307.584 
L 127.175297 307.584 
L 127.175297 285.164794 
L 124.450984 285.164794 
z
" style="fill:#1f77b4;"/>
   </g>
   <g id="patch_13">
    <path clip-path="url(#p6ad06b78bb)" d="M 127.175289 307.584 
L 129.899593 307.584 
L 129.899593 287.967139 
L 127.175289 287.967139 
z
" style="fill:#1f77b4;"/>
   </g>
   <g id="patch_14">
    <path clip-path="url(#p6ad06b78bb)" d="M 129.899601 307.584 
L 132.623913 307.584 
L 132.623913 287.500128 
L 129.899601 287.500128 
z
" style="fill:#1f77b4;"/>
   </g>
   <g id="patch_15">
    <path clip-path="url(#p6ad06b78bb)" d="M 132.623913 307.584 
L 135.348225 307.584 
L 135.348225 290.769596 
L 132.623913 290.769596 
z
" style="fill:#1f77b4;"/>
   </g>
   <g id="patch_16">
    <path clip-path="url(#p6ad06b78bb)" d="M 135.348225 307.584 
L 138.072537 307.584 
L 138.072537 287.500128 
L 135.348225 287.500128 
z
" style="fill:#1f77b4;"/>
   </g>
   <g id="patch_17">
    <path clip-path="url(#p6ad06b78bb)" d="M 138.072537 307.584 
L 140.796842 307.584 
L 140.796842 289.368343 
L 138.072537 289.368343 
z
" style="fill:#1f77b4;"/>
   </g>
   <g id="patch_18">
    <path clip-path="url(#p6ad06b78bb)" d="M 140.796842 307.584 
L 143.521154 307.584 
L 143.521154 289.368395 
L 140.796842 289.368395 
z
" style="fill:#1f77b4;"/>
   </g>
   <g id="patch_19">
    <path clip-path="url(#p6ad06b78bb)" d="M 143.521154 307.584 
L 146.245466 307.584 
L 146.245466 289.835462 
L 143.521154 289.835462 
z
" style="fill:#1f77b4;"/>
   </g>
   <g id="patch_20">
    <path clip-path="url(#p6ad06b78bb)" d="M 146.245458 307.584 
L 148.969763 307.584 
L 148.969763 289.368343 
L 146.245458 289.368343 
z
" style="fill:#1f77b4;"/>
   </g>
   <g id="patch_21">
    <path clip-path="url(#p6ad06b78bb)" d="M 148.96977 307.584 
L 151.694083 307.584 
L 151.694083 284.23066 
L 148.96977 284.23066 
z
" style="fill:#1f77b4;"/>
   </g>
   <g id="patch_22">
    <path clip-path="url(#p6ad06b78bb)" d="M 151.694083 307.584 
L 154.418395 307.584 
L 154.418395 286.098928 
L 151.694083 286.098928 
z
" style="fill:#1f77b4;"/>
   </g>
   <g id="patch_23">
    <path clip-path="url(#p6ad06b78bb)" d="M 154.418395 307.584 
L 157.142699 307.584 
L 157.142699 280.961117 
L 154.418395 280.961117 
z
" style="fill:#1f77b4;"/>
   </g>
   <g id="patch_24">
    <path clip-path="url(#p6ad06b78bb)" d="M 157.142699 307.584 
L 159.867011 307.584 
L 159.867011 280.027059 
L 157.142699 280.027059 
z
" style="fill:#1f77b4;"/>
   </g>
   <g id="patch_25">
    <path clip-path="url(#p6ad06b78bb)" d="M 159.867011 307.584 
L 162.591323 307.584 
L 162.591323 271.619857 
L 159.867011 271.619857 
z
" style="fill:#1f77b4;"/>
   </g>
   <g id="patch_26">
    <path clip-path="url(#p6ad06b78bb)" d="M 162.591316 307.584 
L 165.31562 307.584 
L 165.31562 267.416142 
L 162.591316 267.416142 
z
" style="fill:#1f77b4;"/>
   </g>
   <g id="patch_27">
    <path clip-path="url(#p6ad06b78bb)" d="M 165.315628 307.584 
L 168.03994 307.584 
L 168.03994 268.35039 
L 165.315628 268.35039 
z
" style="fill:#1f77b4;"/>
   </g>
   <g id="patch_28">
    <path clip-path="url(#p6ad06b78bb)" d="M 168.03994 307.584 
L 170.764252 307.584 
L 170.764252 269.75159 
L 168.03994 269.75159 
z
" style="fill:#1f77b4;"/>
   </g>
   <g id="patch_29">
    <path clip-path="url(#p6ad06b78bb)" d="M 170.764252 307.584 
L 173.48856 307.584 
L 173.48856 265.080862 
L 170.764252 265.080862 
z
" style="fill:#1f77b4;"/>
   </g>
   <g id="patch_30">
    <path clip-path="url(#p6ad06b78bb)" d="M 173.488556 307.584 
L 176.212865 307.584 
L 176.212865 266.482064 
L 173.488556 266.482064 
z
" style="fill:#1f77b4;"/>
   </g>
   <g id="patch_31">
    <path clip-path="url(#p6ad06b78bb)" d="M 176.212869 307.584 
L 178.937177 307.584 
L 178.937177 272.086873 
L 176.212869 272.086873 
z
" style="fill:#1f77b4;"/>
   </g>
   <g id="patch_32">
    <path clip-path="url(#p6ad06b78bb)" d="M 178.937177 307.584 
L 181.661489 307.584 
L 181.661489 265.080922 
L 178.937177 265.080922 
z
" style="fill:#1f77b4;"/>
   </g>
   <g id="patch_33">
    <path clip-path="url(#p6ad06b78bb)" d="M 181.661485 307.584 
L 184.385793 307.584 
L 184.385793 259.008985 
L 181.661485 259.008985 
z
" style="fill:#1f77b4;"/>
   </g>
   <g id="patch_34">
    <path clip-path="url(#p6ad06b78bb)" d="M 184.385797 307.584 
L 187.110109 307.584 
L 187.110109 273.021057 
L 184.385797 273.021057 
z
" style="fill:#1f77b4;"/>
   </g>
   <g id="patch_35">
    <path clip-path="url(#p6ad06b78bb)" d="M 187.110109 307.584 
L 189.834418 307.584 
L 189.834418 270.685671 
L 187.110109 270.685671 
z
" style="fill:#1f77b4;"/>
   </g>
   <g id="patch_36">
    <path clip-path="url(#p6ad06b78bb)" d="M 189.834414 307.584 
L 192.558722 307.584 
L 192.558722 257.607782 
L 189.834414 257.607782 
z
" style="fill:#1f77b4;"/>
   </g>
   <g id="patch_37">
    <path clip-path="url(#p6ad06b78bb)" d="M 192.558726 307.584 
L 195.283038 307.584 
L 195.283038 258.07492 
L 192.558726 258.07492 
z
" style="fill:#1f77b4;"/>
   </g>
   <g id="patch_38">
    <path clip-path="url(#p6ad06b78bb)" d="M 195.283038 307.584 
L 198.007346 307.584 
L 198.007346 263.212592 
L 195.283038 263.212592 
z
" style="fill:#1f77b4;"/>
   </g>
   <g id="patch_39">
    <path clip-path="url(#p6ad06b78bb)" d="M 198.007342 307.584 
L 200.731651 307.584 
L 200.731651 255.739513 
L 198.007342 255.739513 
z
" style="fill:#1f77b4;"/>
   </g>
   <g id="patch_40">
    <path clip-path="url(#p6ad06b78bb)" d="M 200.731654 307.584 
L 203.455967 307.584 
L 203.455967 252.003052 
L 200.731654 252.003052 
z
" style="fill:#1f77b4;"/>
   </g>
   <g id="patch_41">
    <path clip-path="url(#p6ad06b78bb)" d="M 203.455967 307.584 
L 206.180275 307.584 
L 206.180275 262.745524 
L 203.455967 262.745524 
z
" style="fill:#1f77b4;"/>
   </g>
   <g id="patch_42">
    <path clip-path="url(#p6ad06b78bb)" d="M 206.180275 307.584 
L 208.904585 307.584 
L 208.904585 249.20061 
L 206.180275 249.20061 
z
" style="fill:#1f77b4;"/>
   </g>
   <g id="patch_43">
    <path clip-path="url(#p6ad06b78bb)" d="M 208.904583 307.584 
L 211.628893 307.584 
L 211.628893 238.458066 
L 208.904583 238.458066 
z
" style="fill:#1f77b4;"/>
   </g>
   <g id="patch_44">
    <path clip-path="url(#p6ad06b78bb)" d="M 211.628895 307.584 
L 214.353203 307.584 
L 214.353203 232.853207 
L 211.628895 232.853207 
z
" style="fill:#1f77b4;"/>
   </g>
   <g id="patch_45">
    <path clip-path="url(#p6ad06b78bb)" d="M 214.353203 307.584 
L 217.077514 307.584 
L 217.077514 234.254462 
L 214.353203 234.254462 
z
" style="fill:#1f77b4;"/>
   </g>
   <g id="patch_46">
    <path clip-path="url(#p6ad06b78bb)" d="M 217.077512 307.584 
L 219.801822 307.584 
L 219.801822 230.984992 
L 217.077512 230.984992 
z
" style="fill:#1f77b4;"/>
   </g>
   <g id="patch_47">
    <path clip-path="url(#p6ad06b78bb)" d="M 219.801824 307.584 
L 222.526133 307.584 
L 222.526133 231.919099 
L 219.801824 231.919099 
z
" style="fill:#1f77b4;"/>
   </g>
   <g id="patch_48">
    <path clip-path="url(#p6ad06b78bb)" d="M 222.526134 307.584 
L 225.250443 307.584 
L 225.250443 218.374148 
L 222.526134 218.374148 
z
" style="fill:#1f77b4;"/>
   </g>
   <g id="patch_49">
    <path clip-path="url(#p6ad06b78bb)" d="M 225.250442 307.584 
L 227.974753 307.584 
L 227.974753 215.10471 
L 225.250442 215.10471 
z
" style="fill:#1f77b4;"/>
   </g>
   <g id="patch_50">
    <path clip-path="url(#p6ad06b78bb)" d="M 227.974753 307.584 
L 230.699062 307.584 
L 230.699062 226.781359 
L 227.974753 226.781359 
z
" style="fill:#1f77b4;"/>
   </g>
   <g id="patch_51">
    <path clip-path="url(#p6ad06b78bb)" d="M 230.699062 307.584 
L 233.423371 307.584 
L 233.423371 212.769357 
L 230.699062 212.769357 
z
" style="fill:#1f77b4;"/>
   </g>
   <g id="patch_52">
    <path clip-path="url(#p6ad06b78bb)" d="M 233.423371 307.584 
L 236.147681 307.584 
L 236.147681 222.110701 
L 233.423371 222.110701 
z
" style="fill:#1f77b4;"/>
   </g>
   <g id="patch_53">
    <path clip-path="url(#p6ad06b78bb)" d="M 236.147681 307.584 
L 238.871991 307.584 
L 238.871991 127.296059 
L 236.147681 127.296059 
z
" style="fill:#1f77b4;"/>
   </g>
   <g id="patch_54">
    <path clip-path="url(#p6ad06b78bb)" d="M 238.871991 307.584 
L 241.596301 307.584 
L 241.596301 187.547728 
L 238.871991 187.547728 
z
" style="fill:#1f77b4;"/>
   </g>
   <g id="patch_55">
    <path clip-path="url(#p6ad06b78bb)" d="M 241.596301 307.584 
L 244.32061 307.584 
L 244.32061 210.434004 
L 241.596301 210.434004 
z
" style="fill:#1f77b4;"/>
   </g>
   <g id="patch_56">
    <path clip-path="url(#p6ad06b78bb)" d="M 244.32061 307.584 
L 247.04492 307.584 
L 247.04492 222.110717 
L 244.32061 222.110717 
z
" style="fill:#1f77b4;"/>
   </g>
   <g id="patch_57">
    <path clip-path="url(#p6ad06b78bb)" d="M 247.04492 307.584 
L 249.769229 307.584 
L 249.769229 200.625591 
L 247.04492 200.625591 
z
" style="fill:#1f77b4;"/>
   </g>
   <g id="patch_58">
    <path clip-path="url(#p6ad06b78bb)" d="M 249.76923 307.584 
L 252.493538 307.584 
L 252.493538 217.440013 
L 249.76923 217.440013 
z
" style="fill:#1f77b4;"/>
   </g>
   <g id="patch_59">
    <path clip-path="url(#p6ad06b78bb)" d="M 252.493538 307.584 
L 255.217849 307.584 
L 255.217849 214.170575 
L 252.493538 214.170575 
z
" style="fill:#1f77b4;"/>
   </g>
   <g id="patch_60">
    <path clip-path="url(#p6ad06b78bb)" d="M 255.217847 307.584 
L 257.942157 307.584 
L 257.942157 224.446052 
L 255.217847 224.446052 
z
" style="fill:#1f77b4;"/>
   </g>
   <g id="patch_61">
    <path clip-path="url(#p6ad06b78bb)" d="M 257.942159 307.584 
L 260.666467 307.584 
L 260.666467 225.847195 
L 257.942159 225.847195 
z
" style="fill:#1f77b4;"/>
   </g>
   <g id="patch_62">
    <path clip-path="url(#p6ad06b78bb)" d="M 260.666467 307.584 
L 263.390777 307.584 
L 263.390777 244.997006 
L 260.666467 244.997006 
z
" style="fill:#1f77b4;"/>
   </g>
   <g id="patch_63">
    <path clip-path="url(#p6ad06b78bb)" d="M 263.390775 307.584 
L 266.115086 307.584 
L 266.115086 242.194603 
L 263.390775 242.194603 
z
" style="fill:#1f77b4;"/>
   </g>
   <g id="patch_64">
    <path clip-path="url(#p6ad06b78bb)" d="M 266.115088 307.584 
L 268.839396 307.584 
L 268.839396 238.458017 
L 266.115088 238.458017 
z
" style="fill:#1f77b4;"/>
   </g>
   <g id="patch_65">
    <path clip-path="url(#p6ad06b78bb)" d="M 268.839396 307.584 
L 271.563708 307.584 
L 271.563708 230.985046 
L 268.839396 230.985046 
z
" style="fill:#1f77b4;"/>
   </g>
   <g id="patch_66">
    <path clip-path="url(#p6ad06b78bb)" d="M 271.563708 307.584 
L 274.288016 307.584 
L 274.288016 249.667636 
L 271.563708 249.667636 
z
" style="fill:#1f77b4;"/>
   </g>
   <g id="patch_67">
    <path clip-path="url(#p6ad06b78bb)" d="M 274.288012 307.584 
L 277.012321 307.584 
L 277.012321 248.733501 
L 274.288012 248.733501 
z
" style="fill:#1f77b4;"/>
   </g>
   <g id="patch_68">
    <path clip-path="url(#p6ad06b78bb)" d="M 277.012324 307.584 
L 279.736637 307.584 
L 279.736637 236.589848 
L 277.012324 236.589848 
z
" style="fill:#1f77b4;"/>
   </g>
   <g id="patch_69">
    <path clip-path="url(#p6ad06b78bb)" d="M 279.736637 307.584 
L 282.460945 307.584 
L 282.460945 246.398163 
L 279.736637 246.398163 
z
" style="fill:#1f77b4;"/>
   </g>
   <g id="patch_70">
    <path clip-path="url(#p6ad06b78bb)" d="M 282.460941 307.584 
L 285.185249 307.584 
L 285.185249 238.925084 
L 282.460941 238.925084 
z
" style="fill:#1f77b4;"/>
   </g>
   <g id="patch_71">
    <path clip-path="url(#p6ad06b78bb)" d="M 285.185253 307.584 
L 287.909565 307.584 
L 287.909565 253.404252 
L 285.185253 253.404252 
z
" style="fill:#1f77b4;"/>
   </g>
   <g id="patch_72">
    <path clip-path="url(#p6ad06b78bb)" d="M 287.909565 307.584 
L 290.633873 307.584 
L 290.633873 257.140715 
L 287.909565 257.140715 
z
" style="fill:#1f77b4;"/>
   </g>
   <g id="patch_73">
    <path clip-path="url(#p6ad06b78bb)" d="M 290.633873 307.584 
L 293.358186 307.584 
L 293.358186 255.739586 
L 290.633873 255.739586 
z
" style="fill:#1f77b4;"/>
   </g>
   <g id="patch_74">
    <path clip-path="url(#p6ad06b78bb)" d="M 293.358182 307.584 
L 296.08249 307.584 
L 296.08249 257.140715 
L 293.358182 257.140715 
z
" style="fill:#1f77b4;"/>
   </g>
   <g id="patch_75">
    <path clip-path="url(#p6ad06b78bb)" d="M 296.082494 307.584 
L 298.806802 307.584 
L 298.806802 259.008985 
L 296.082494 259.008985 
z
" style="fill:#1f77b4;"/>
   </g>
   <g id="patch_76">
    <path clip-path="url(#p6ad06b78bb)" d="M 298.806798 307.584 
L 301.53111 307.584 
L 301.53111 259.94312 
L 298.806798 259.94312 
z
" style="fill:#1f77b4;"/>
   </g>
   <g id="patch_77">
    <path clip-path="url(#p6ad06b78bb)" d="M 301.53111 307.584 
L 304.255423 307.584 
L 304.255423 254.805453 
L 301.53111 254.805453 
z
" style="fill:#1f77b4;"/>
   </g>
   <g id="patch_78">
    <path clip-path="url(#p6ad06b78bb)" d="M 304.255423 307.584 
L 306.979735 307.584 
L 306.979735 260.877321 
L 304.255423 260.877321 
z
" style="fill:#1f77b4;"/>
   </g>
   <g id="patch_79">
    <path clip-path="url(#p6ad06b78bb)" d="M 306.979735 307.584 
L 309.704039 307.584 
L 309.704039 250.60169 
L 306.979735 250.60169 
z
" style="fill:#1f77b4;"/>
   </g>
   <g id="patch_80">
    <path clip-path="url(#p6ad06b78bb)" d="M 309.704039 307.584 
L 312.428351 307.584 
L 312.428351 267.416256 
L 309.704039 267.416256 
z
" style="fill:#1f77b4;"/>
   </g>
   <g id="patch_81">
    <path clip-path="url(#p6ad06b78bb)" d="M 312.428351 307.584 
L 315.152663 307.584 
L 315.152663 272.553991 
L 312.428351 272.553991 
z
" style="fill:#1f77b4;"/>
   </g>
   <g id="patch_82">
    <path clip-path="url(#p6ad06b78bb)" d="M 315.152656 307.584 
L 317.87696 307.584 
L 317.87696 273.020959 
L 315.152656 273.020959 
z
" style="fill:#1f77b4;"/>
   </g>
   <g id="patch_83">
    <path clip-path="url(#p6ad06b78bb)" d="M 317.876968 307.584 
L 320.60128 307.584 
L 320.60128 277.691725 
L 317.876968 277.691725 
z
" style="fill:#1f77b4;"/>
   </g>
   <g id="patch_84">
    <path clip-path="url(#p6ad06b78bb)" d="M 320.60128 307.584 
L 323.325592 307.584 
L 323.325592 281.42826 
L 320.60128 281.42826 
z
" style="fill:#1f77b4;"/>
   </g>
   <g id="patch_85">
    <path clip-path="url(#p6ad06b78bb)" d="M 323.325592 307.584 
L 326.049896 307.584 
L 326.049896 274.422164 
L 323.325592 274.422164 
z
" style="fill:#1f77b4;"/>
   </g>
   <g id="patch_86">
    <path clip-path="url(#p6ad06b78bb)" d="M 326.049896 307.584 
L 328.774208 307.584 
L 328.774208 271.15279 
L 326.049896 271.15279 
z
" style="fill:#1f77b4;"/>
   </g>
   <g id="patch_87">
    <path clip-path="url(#p6ad06b78bb)" d="M 328.774208 307.584 
L 331.498521 307.584 
L 331.498521 277.691725 
L 328.774208 277.691725 
z
" style="fill:#1f77b4;"/>
   </g>
   <g id="patch_88">
    <path clip-path="url(#p6ad06b78bb)" d="M 331.498513 307.584 
L 334.222817 307.584 
L 334.222817 278.158709 
L 331.498513 278.158709 
z
" style="fill:#1f77b4;"/>
   </g>
   <g id="patch_89">
    <path clip-path="url(#p6ad06b78bb)" d="M 334.222825 307.584 
L 336.947137 307.584 
L 336.947137 287.033061 
L 334.222825 287.033061 
z
" style="fill:#1f77b4;"/>
   </g>
   <g id="patch_90">
    <path clip-path="url(#p6ad06b78bb)" d="M 336.947137 307.584 
L 339.671449 307.584 
L 339.671449 287.967195 
L 336.947137 287.967195 
z
" style="fill:#1f77b4;"/>
   </g>
   <g id="patch_91">
    <path clip-path="url(#p6ad06b78bb)" d="M 339.671449 307.584 
L 342.395761 307.584 
L 342.395761 282.82946 
L 339.671449 282.82946 
z
" style="fill:#1f77b4;"/>
   </g>
   <g id="patch_92">
    <path clip-path="url(#p6ad06b78bb)" d="M 342.395761 307.584 
L 345.120066 307.584 
L 345.120066 278.625777 
L 342.395761 278.625777 
z
" style="fill:#1f77b4;"/>
   </g>
   <g id="patch_93">
    <path clip-path="url(#p6ad06b78bb)" d="M 345.120066 307.584 
L 347.844378 307.584 
L 347.844378 277.224659 
L 345.120066 277.224659 
z
" style="fill:#1f77b4;"/>
   </g>
   <g id="patch_94">
    <path clip-path="url(#p6ad06b78bb)" d="M 347.844378 307.584 
L 350.56869 307.584 
L 350.56869 280.027059 
L 347.844378 280.027059 
z
" style="fill:#1f77b4;"/>
   </g>
   <g id="patch_95">
    <path clip-path="url(#p6ad06b78bb)" d="M 350.568682 307.584 
L 353.292987 307.584 
L 353.292987 281.428185 
L 350.568682 281.428185 
z
" style="fill:#1f77b4;"/>
   </g>
   <g id="patch_96">
    <path clip-path="url(#p6ad06b78bb)" d="M 353.292994 307.584 
L 356.017307 307.584 
L 356.017307 275.356391 
L 353.292994 275.356391 
z
" style="fill:#1f77b4;"/>
   </g>
   <g id="patch_97">
    <path clip-path="url(#p6ad06b78bb)" d="M 356.017307 307.584 
L 358.741619 307.584 
L 358.741619 273.488124 
L 356.017307 273.488124 
z
" style="fill:#1f77b4;"/>
   </g>
   <g id="patch_98">
    <path clip-path="url(#p6ad06b78bb)" d="M 358.741619 307.584 
L 361.465923 307.584 
L 361.465923 279.559913 
L 358.741619 279.559913 
z
" style="fill:#1f77b4;"/>
   </g>
   <g id="patch_99">
    <path clip-path="url(#p6ad06b78bb)" d="M 361.465923 307.584 
L 364.190235 307.584 
L 364.190235 289.368395 
L 361.465923 289.368395 
z
" style="fill:#1f77b4;"/>
   </g>
   <g id="patch_100">
    <path clip-path="url(#p6ad06b78bb)" d="M 364.190227 307.584 
L 366.91454 307.584 
L 366.91454 288.434207 
L 364.190227 288.434207 
z
" style="fill:#1f77b4;"/>
   </g>
   <g id="patch_101">
    <path clip-path="url(#p6ad06b78bb)" d="M 366.91454 307.584 
L 369.638852 307.584 
L 369.638852 291.703729 
L 366.91454 291.703729 
z
" style="fill:#1f77b4;"/>
   </g>
   <g id="patch_102">
    <path clip-path="url(#p6ad06b78bb)" d="M 369.638852 307.584 
L 372.363164 307.584 
L 372.363164 287.967195 
L 369.638852 287.967195 
z
" style="fill:#1f77b4;"/>
   </g>
   <g id="matplotlib.axis_1">
    <g id="xtick_1">
     <g id="line2d_1">
      <defs>
       <path d="M 0 0 
L 0 3.5 
" id="me0b763f0e5" style="stroke:#000000;stroke-width:0.8;"/>
      </defs>
      <g>
       <use style="stroke:#000000;stroke-width:0.8;" x="106.299805" xlink:href="#me0b763f0e5" y="307.584"/>
      </g>
     </g>
     <g id="text_1">
      <!-- −2 -->
      <defs>
       <path d="M 10.59375 35.5 
L 73.1875 35.5 
L 73.1875 27.203125 
L 10.59375 27.203125 
z
" id="DejaVuSans-8722"/>
       <path d="M 19.1875 8.296875 
L 53.609375 8.296875 
L 53.609375 0 
L 7.328125 0 
L 7.328125 8.296875 
Q 12.9375 14.109375 22.625 23.890625 
Q 32.328125 33.6875 34.8125 36.53125 
Q 39.546875 41.84375 41.421875 45.53125 
Q 43.3125 49.21875 43.3125 52.78125 
Q 43.3125 58.59375 39.234375 62.25 
Q 35.15625 65.921875 28.609375 65.921875 
Q 23.96875 65.921875 18.8125 64.3125 
Q 13.671875 62.703125 7.8125 59.421875 
L 7.8125 69.390625 
Q 13.765625 71.78125 18.9375 73 
Q 24.125 74.21875 28.421875 74.21875 
Q 39.75 74.21875 46.484375 68.546875 
Q 53.21875 62.890625 53.21875 53.421875 
Q 53.21875 48.921875 51.53125 44.890625 
Q 49.859375 40.875 45.40625 35.40625 
Q 44.1875 33.984375 37.640625 27.21875 
Q 31.109375 20.453125 19.1875 8.296875 
z
" id="DejaVuSans-50"/>
      </defs>
      <g transform="translate(93.768946 327.501344)scale(0.17 -0.17)">
       <use xlink:href="#DejaVuSans-8722"/>
       <use x="83.789062" xlink:href="#DejaVuSans-50"/>
      </g>
     </g>
    </g>
    <g id="xtick_2">
     <g id="line2d_2">
      <g>
       <use style="stroke:#000000;stroke-width:0.8;" x="171.233961" xlink:href="#me0b763f0e5" y="307.584"/>
      </g>
     </g>
     <g id="text_2">
      <!-- −1 -->
      <defs>
       <path d="M 12.40625 8.296875 
L 28.515625 8.296875 
L 28.515625 63.921875 
L 10.984375 60.40625 
L 10.984375 69.390625 
L 28.421875 72.90625 
L 38.28125 72.90625 
L 38.28125 8.296875 
L 54.390625 8.296875 
L 54.390625 0 
L 12.40625 0 
z
" id="DejaVuSans-49"/>
      </defs>
      <g transform="translate(158.703102 327.501344)scale(0.17 -0.17)">
       <use xlink:href="#DejaVuSans-8722"/>
       <use x="83.789062" xlink:href="#DejaVuSans-49"/>
      </g>
     </g>
    </g>
    <g id="xtick_3">
     <g id="line2d_3">
      <g>
       <use style="stroke:#000000;stroke-width:0.8;" x="236.168117" xlink:href="#me0b763f0e5" y="307.584"/>
      </g>
     </g>
     <g id="text_3">
      <!-- 0 -->
      <defs>
       <path d="M 31.78125 66.40625 
Q 24.171875 66.40625 20.328125 58.90625 
Q 16.5 51.421875 16.5 36.375 
Q 16.5 21.390625 20.328125 13.890625 
Q 24.171875 6.390625 31.78125 6.390625 
Q 39.453125 6.390625 43.28125 13.890625 
Q 47.125 21.390625 47.125 36.375 
Q 47.125 51.421875 43.28125 58.90625 
Q 39.453125 66.40625 31.78125 66.40625 
z
M 31.78125 74.21875 
Q 44.046875 74.21875 50.515625 64.515625 
Q 56.984375 54.828125 56.984375 36.375 
Q 56.984375 17.96875 50.515625 8.265625 
Q 44.046875 -1.421875 31.78125 -1.421875 
Q 19.53125 -1.421875 13.0625 8.265625 
Q 6.59375 17.96875 6.59375 36.375 
Q 6.59375 54.828125 13.0625 64.515625 
Q 19.53125 74.21875 31.78125 74.21875 
z
" id="DejaVuSans-48"/>
      </defs>
      <g transform="translate(230.759992 327.501344)scale(0.17 -0.17)">
       <use xlink:href="#DejaVuSans-48"/>
      </g>
     </g>
    </g>
    <g id="xtick_4">
     <g id="line2d_4">
      <g>
       <use style="stroke:#000000;stroke-width:0.8;" x="301.102273" xlink:href="#me0b763f0e5" y="307.584"/>
      </g>
     </g>
     <g id="text_4">
      <!-- 1 -->
      <g transform="translate(295.694148 327.501344)scale(0.17 -0.17)">
       <use xlink:href="#DejaVuSans-49"/>
      </g>
     </g>
    </g>
    <g id="xtick_5">
     <g id="line2d_5">
      <g>
       <use style="stroke:#000000;stroke-width:0.8;" x="366.036428" xlink:href="#me0b763f0e5" y="307.584"/>
      </g>
     </g>
     <g id="text_5">
      <!-- 2 -->
      <g transform="translate(360.628303 327.501344)scale(0.17 -0.17)">
       <use xlink:href="#DejaVuSans-50"/>
      </g>
     </g>
    </g>
    <g id="text_6">
     <!-- Position in Radian -->
     <defs>
      <path d="M 19.671875 64.796875 
L 19.671875 37.40625 
L 32.078125 37.40625 
Q 38.96875 37.40625 42.71875 40.96875 
Q 46.484375 44.53125 46.484375 51.125 
Q 46.484375 57.671875 42.71875 61.234375 
Q 38.96875 64.796875 32.078125 64.796875 
z
M 9.8125 72.90625 
L 32.078125 72.90625 
Q 44.34375 72.90625 50.609375 67.359375 
Q 56.890625 61.8125 56.890625 51.125 
Q 56.890625 40.328125 50.609375 34.8125 
Q 44.34375 29.296875 32.078125 29.296875 
L 19.671875 29.296875 
L 19.671875 0 
L 9.8125 0 
z
" id="DejaVuSans-80"/>
      <path d="M 30.609375 48.390625 
Q 23.390625 48.390625 19.1875 42.75 
Q 14.984375 37.109375 14.984375 27.296875 
Q 14.984375 17.484375 19.15625 11.84375 
Q 23.34375 6.203125 30.609375 6.203125 
Q 37.796875 6.203125 41.984375 11.859375 
Q 46.1875 17.53125 46.1875 27.296875 
Q 46.1875 37.015625 41.984375 42.703125 
Q 37.796875 48.390625 30.609375 48.390625 
z
M 30.609375 56 
Q 42.328125 56 49.015625 48.375 
Q 55.71875 40.765625 55.71875 27.296875 
Q 55.71875 13.875 49.015625 6.21875 
Q 42.328125 -1.421875 30.609375 -1.421875 
Q 18.84375 -1.421875 12.171875 6.21875 
Q 5.515625 13.875 5.515625 27.296875 
Q 5.515625 40.765625 12.171875 48.375 
Q 18.84375 56 30.609375 56 
z
" id="DejaVuSans-111"/>
      <path d="M 44.28125 53.078125 
L 44.28125 44.578125 
Q 40.484375 46.53125 36.375 47.5 
Q 32.28125 48.484375 27.875 48.484375 
Q 21.1875 48.484375 17.84375 46.4375 
Q 14.5 44.390625 14.5 40.28125 
Q 14.5 37.15625 16.890625 35.375 
Q 19.28125 33.59375 26.515625 31.984375 
L 29.59375 31.296875 
Q 39.15625 29.25 43.1875 25.515625 
Q 47.21875 21.78125 47.21875 15.09375 
Q 47.21875 7.46875 41.1875 3.015625 
Q 35.15625 -1.421875 24.609375 -1.421875 
Q 20.21875 -1.421875 15.453125 -0.5625 
Q 10.6875 0.296875 5.421875 2 
L 5.421875 11.28125 
Q 10.40625 8.6875 15.234375 7.390625 
Q 20.0625 6.109375 24.8125 6.109375 
Q 31.15625 6.109375 34.5625 8.28125 
Q 37.984375 10.453125 37.984375 14.40625 
Q 37.984375 18.0625 35.515625 20.015625 
Q 33.0625 21.96875 24.703125 23.78125 
L 21.578125 24.515625 
Q 13.234375 26.265625 9.515625 29.90625 
Q 5.8125 33.546875 5.8125 39.890625 
Q 5.8125 47.609375 11.28125 51.796875 
Q 16.75 56 26.8125 56 
Q 31.78125 56 36.171875 55.265625 
Q 40.578125 54.546875 44.28125 53.078125 
z
" id="DejaVuSans-115"/>
      <path d="M 9.421875 54.6875 
L 18.40625 54.6875 
L 18.40625 0 
L 9.421875 0 
z
M 9.421875 75.984375 
L 18.40625 75.984375 
L 18.40625 64.59375 
L 9.421875 64.59375 
z
" id="DejaVuSans-105"/>
      <path d="M 18.3125 70.21875 
L 18.3125 54.6875 
L 36.8125 54.6875 
L 36.8125 47.703125 
L 18.3125 47.703125 
L 18.3125 18.015625 
Q 18.3125 11.328125 20.140625 9.421875 
Q 21.96875 7.515625 27.59375 7.515625 
L 36.8125 7.515625 
L 36.8125 0 
L 27.59375 0 
Q 17.1875 0 13.234375 3.875 
Q 9.28125 7.765625 9.28125 18.015625 
L 9.28125 47.703125 
L 2.6875 47.703125 
L 2.6875 54.6875 
L 9.28125 54.6875 
L 9.28125 70.21875 
z
" id="DejaVuSans-116"/>
      <path d="M 54.890625 33.015625 
L 54.890625 0 
L 45.90625 0 
L 45.90625 32.71875 
Q 45.90625 40.484375 42.875 44.328125 
Q 39.84375 48.1875 33.796875 48.1875 
Q 26.515625 48.1875 22.3125 43.546875 
Q 18.109375 38.921875 18.109375 30.90625 
L 18.109375 0 
L 9.078125 0 
L 9.078125 54.6875 
L 18.109375 54.6875 
L 18.109375 46.1875 
Q 21.34375 51.125 25.703125 53.5625 
Q 30.078125 56 35.796875 56 
Q 45.21875 56 50.046875 50.171875 
Q 54.890625 44.34375 54.890625 33.015625 
z
" id="DejaVuSans-110"/>
      <path id="DejaVuSans-32"/>
      <path d="M 44.390625 34.1875 
Q 47.5625 33.109375 50.5625 29.59375 
Q 53.5625 26.078125 56.59375 19.921875 
L 66.609375 0 
L 56 0 
L 46.6875 18.703125 
Q 43.0625 26.03125 39.671875 28.421875 
Q 36.28125 30.8125 30.421875 30.8125 
L 19.671875 30.8125 
L 19.671875 0 
L 9.8125 0 
L 9.8125 72.90625 
L 32.078125 72.90625 
Q 44.578125 72.90625 50.734375 67.671875 
Q 56.890625 62.453125 56.890625 51.90625 
Q 56.890625 45.015625 53.6875 40.46875 
Q 50.484375 35.9375 44.390625 34.1875 
z
M 19.671875 64.796875 
L 19.671875 38.921875 
L 32.078125 38.921875 
Q 39.203125 38.921875 42.84375 42.21875 
Q 46.484375 45.515625 46.484375 51.90625 
Q 46.484375 58.296875 42.84375 61.546875 
Q 39.203125 64.796875 32.078125 64.796875 
z
" id="DejaVuSans-82"/>
      <path d="M 34.28125 27.484375 
Q 23.390625 27.484375 19.1875 25 
Q 14.984375 22.515625 14.984375 16.5 
Q 14.984375 11.71875 18.140625 8.90625 
Q 21.296875 6.109375 26.703125 6.109375 
Q 34.1875 6.109375 38.703125 11.40625 
Q 43.21875 16.703125 43.21875 25.484375 
L 43.21875 27.484375 
z
M 52.203125 31.203125 
L 52.203125 0 
L 43.21875 0 
L 43.21875 8.296875 
Q 40.140625 3.328125 35.546875 0.953125 
Q 30.953125 -1.421875 24.3125 -1.421875 
Q 15.921875 -1.421875 10.953125 3.296875 
Q 6 8.015625 6 15.921875 
Q 6 25.140625 12.171875 29.828125 
Q 18.359375 34.515625 30.609375 34.515625 
L 43.21875 34.515625 
L 43.21875 35.40625 
Q 43.21875 41.609375 39.140625 45 
Q 35.0625 48.390625 27.6875 48.390625 
Q 23 48.390625 18.546875 47.265625 
Q 14.109375 46.140625 10.015625 43.890625 
L 10.015625 52.203125 
Q 14.9375 54.109375 19.578125 55.046875 
Q 24.21875 56 28.609375 56 
Q 40.484375 56 46.34375 49.84375 
Q 52.203125 43.703125 52.203125 31.203125 
z
" id="DejaVuSans-97"/>
      <path d="M 45.40625 46.390625 
L 45.40625 75.984375 
L 54.390625 75.984375 
L 54.390625 0 
L 45.40625 0 
L 45.40625 8.203125 
Q 42.578125 3.328125 38.25 0.953125 
Q 33.9375 -1.421875 27.875 -1.421875 
Q 17.96875 -1.421875 11.734375 6.484375 
Q 5.515625 14.40625 5.515625 27.296875 
Q 5.515625 40.1875 11.734375 48.09375 
Q 17.96875 56 27.875 56 
Q 33.9375 56 38.25 53.625 
Q 42.578125 51.265625 45.40625 46.390625 
z
M 14.796875 27.296875 
Q 14.796875 17.390625 18.875 11.75 
Q 22.953125 6.109375 30.078125 6.109375 
Q 37.203125 6.109375 41.296875 11.75 
Q 45.40625 17.390625 45.40625 27.296875 
Q 45.40625 37.203125 41.296875 42.84375 
Q 37.203125 48.484375 30.078125 48.484375 
Q 22.953125 48.484375 18.875 42.84375 
Q 14.796875 37.203125 14.796875 27.296875 
z
" id="DejaVuSans-100"/>
     </defs>
     <g transform="translate(102.024844 357.832125)scale(0.3 -0.3)">
      <use xlink:href="#DejaVuSans-80"/>
      <use x="60.255859" xlink:href="#DejaVuSans-111"/>
      <use x="121.4375" xlink:href="#DejaVuSans-115"/>
      <use x="173.537109" xlink:href="#DejaVuSans-105"/>
      <use x="201.320312" xlink:href="#DejaVuSans-116"/>
      <use x="240.529297" xlink:href="#DejaVuSans-105"/>
      <use x="268.3125" xlink:href="#DejaVuSans-111"/>
      <use x="329.494141" xlink:href="#DejaVuSans-110"/>
      <use x="392.873047" xlink:href="#DejaVuSans-32"/>
      <use x="424.660156" xlink:href="#DejaVuSans-105"/>
      <use x="452.443359" xlink:href="#DejaVuSans-110"/>
      <use x="515.822266" xlink:href="#DejaVuSans-32"/>
      <use x="547.609375" xlink:href="#DejaVuSans-82"/>
      <use x="617.060547" xlink:href="#DejaVuSans-97"/>
      <use x="678.339844" xlink:href="#DejaVuSans-100"/>
      <use x="741.816406" xlink:href="#DejaVuSans-105"/>
      <use x="769.599609" xlink:href="#DejaVuSans-97"/>
      <use x="830.878906" xlink:href="#DejaVuSans-110"/>
     </g>
    </g>
   </g>
   <g id="matplotlib.axis_2">
    <g id="ytick_1">
     <g id="line2d_6">
      <defs>
       <path d="M 0 0 
L -3.5 0 
" id="md26c1ba913" style="stroke:#000000;stroke-width:0.8;"/>
      </defs>
      <g>
       <use style="stroke:#000000;stroke-width:0.8;" x="57.6" xlink:href="#md26c1ba913" y="307.584"/>
      </g>
     </g>
     <g id="text_7">
      <!-- 0.0 -->
      <defs>
       <path d="M 10.6875 12.40625 
L 21 12.40625 
L 21 0 
L 10.6875 0 
z
" id="DejaVuSans-46"/>
      </defs>
      <g transform="translate(23.564687 314.042672)scale(0.17 -0.17)">
       <use xlink:href="#DejaVuSans-48"/>
       <use x="63.623047" xlink:href="#DejaVuSans-46"/>
       <use x="95.410156" xlink:href="#DejaVuSans-48"/>
      </g>
     </g>
    </g>
    <g id="ytick_2">
     <g id="line2d_7">
      <g>
       <use style="stroke:#000000;stroke-width:0.8;" x="57.6" xlink:href="#md26c1ba913" y="268.392431"/>
      </g>
     </g>
     <g id="text_8">
      <!-- 0.2 -->
      <g transform="translate(23.564687 274.851103)scale(0.17 -0.17)">
       <use xlink:href="#DejaVuSans-48"/>
       <use x="63.623047" xlink:href="#DejaVuSans-46"/>
       <use x="95.410156" xlink:href="#DejaVuSans-50"/>
      </g>
     </g>
    </g>
    <g id="ytick_3">
     <g id="line2d_8">
      <g>
       <use style="stroke:#000000;stroke-width:0.8;" x="57.6" xlink:href="#md26c1ba913" y="229.200862"/>
      </g>
     </g>
     <g id="text_9">
      <!-- 0.4 -->
      <defs>
       <path d="M 37.796875 64.3125 
L 12.890625 25.390625 
L 37.796875 25.390625 
z
M 35.203125 72.90625 
L 47.609375 72.90625 
L 47.609375 25.390625 
L 58.015625 25.390625 
L 58.015625 17.1875 
L 47.609375 17.1875 
L 47.609375 0 
L 37.796875 0 
L 37.796875 17.1875 
L 4.890625 17.1875 
L 4.890625 26.703125 
z
" id="DejaVuSans-52"/>
      </defs>
      <g transform="translate(23.564687 235.659534)scale(0.17 -0.17)">
       <use xlink:href="#DejaVuSans-48"/>
       <use x="63.623047" xlink:href="#DejaVuSans-46"/>
       <use x="95.410156" xlink:href="#DejaVuSans-52"/>
      </g>
     </g>
    </g>
    <g id="ytick_4">
     <g id="line2d_9">
      <g>
       <use style="stroke:#000000;stroke-width:0.8;" x="57.6" xlink:href="#md26c1ba913" y="190.009293"/>
      </g>
     </g>
     <g id="text_10">
      <!-- 0.6 -->
      <defs>
       <path d="M 33.015625 40.375 
Q 26.375 40.375 22.484375 35.828125 
Q 18.609375 31.296875 18.609375 23.390625 
Q 18.609375 15.53125 22.484375 10.953125 
Q 26.375 6.390625 33.015625 6.390625 
Q 39.65625 6.390625 43.53125 10.953125 
Q 47.40625 15.53125 47.40625 23.390625 
Q 47.40625 31.296875 43.53125 35.828125 
Q 39.65625 40.375 33.015625 40.375 
z
M 52.59375 71.296875 
L 52.59375 62.3125 
Q 48.875 64.0625 45.09375 64.984375 
Q 41.3125 65.921875 37.59375 65.921875 
Q 27.828125 65.921875 22.671875 59.328125 
Q 17.53125 52.734375 16.796875 39.40625 
Q 19.671875 43.65625 24.015625 45.921875 
Q 28.375 48.1875 33.59375 48.1875 
Q 44.578125 48.1875 50.953125 41.515625 
Q 57.328125 34.859375 57.328125 23.390625 
Q 57.328125 12.15625 50.6875 5.359375 
Q 44.046875 -1.421875 33.015625 -1.421875 
Q 20.359375 -1.421875 13.671875 8.265625 
Q 6.984375 17.96875 6.984375 36.375 
Q 6.984375 53.65625 15.1875 63.9375 
Q 23.390625 74.21875 37.203125 74.21875 
Q 40.921875 74.21875 44.703125 73.484375 
Q 48.484375 72.75 52.59375 71.296875 
z
" id="DejaVuSans-54"/>
      </defs>
      <g transform="translate(23.564687 196.467965)scale(0.17 -0.17)">
       <use xlink:href="#DejaVuSans-48"/>
       <use x="63.623047" xlink:href="#DejaVuSans-46"/>
       <use x="95.410156" xlink:href="#DejaVuSans-54"/>
      </g>
     </g>
    </g>
    <g id="ytick_5">
     <g id="line2d_10">
      <g>
       <use style="stroke:#000000;stroke-width:0.8;" x="57.6" xlink:href="#md26c1ba913" y="150.817724"/>
      </g>
     </g>
     <g id="text_11">
      <!-- 0.8 -->
      <defs>
       <path d="M 31.78125 34.625 
Q 24.75 34.625 20.71875 30.859375 
Q 16.703125 27.09375 16.703125 20.515625 
Q 16.703125 13.921875 20.71875 10.15625 
Q 24.75 6.390625 31.78125 6.390625 
Q 38.8125 6.390625 42.859375 10.171875 
Q 46.921875 13.96875 46.921875 20.515625 
Q 46.921875 27.09375 42.890625 30.859375 
Q 38.875 34.625 31.78125 34.625 
z
M 21.921875 38.8125 
Q 15.578125 40.375 12.03125 44.71875 
Q 8.5 49.078125 8.5 55.328125 
Q 8.5 64.0625 14.71875 69.140625 
Q 20.953125 74.21875 31.78125 74.21875 
Q 42.671875 74.21875 48.875 69.140625 
Q 55.078125 64.0625 55.078125 55.328125 
Q 55.078125 49.078125 51.53125 44.71875 
Q 48 40.375 41.703125 38.8125 
Q 48.828125 37.15625 52.796875 32.3125 
Q 56.78125 27.484375 56.78125 20.515625 
Q 56.78125 9.90625 50.3125 4.234375 
Q 43.84375 -1.421875 31.78125 -1.421875 
Q 19.734375 -1.421875 13.25 4.234375 
Q 6.78125 9.90625 6.78125 20.515625 
Q 6.78125 27.484375 10.78125 32.3125 
Q 14.796875 37.15625 21.921875 38.8125 
z
M 18.3125 54.390625 
Q 18.3125 48.734375 21.84375 45.5625 
Q 25.390625 42.390625 31.78125 42.390625 
Q 38.140625 42.390625 41.71875 45.5625 
Q 45.3125 48.734375 45.3125 54.390625 
Q 45.3125 60.0625 41.71875 63.234375 
Q 38.140625 66.40625 31.78125 66.40625 
Q 25.390625 66.40625 21.84375 63.234375 
Q 18.3125 60.0625 18.3125 54.390625 
z
" id="DejaVuSans-56"/>
      </defs>
      <g transform="translate(23.564687 157.276396)scale(0.17 -0.17)">
       <use xlink:href="#DejaVuSans-48"/>
       <use x="63.623047" xlink:href="#DejaVuSans-46"/>
       <use x="95.410156" xlink:href="#DejaVuSans-56"/>
      </g>
     </g>
    </g>
    <g id="ytick_6">
     <g id="line2d_11">
      <g>
       <use style="stroke:#000000;stroke-width:0.8;" x="57.6" xlink:href="#md26c1ba913" y="111.626155"/>
      </g>
     </g>
     <g id="text_12">
      <!-- 1.0 -->
      <g transform="translate(23.564687 118.084827)scale(0.17 -0.17)">
       <use xlink:href="#DejaVuSans-49"/>
       <use x="63.623047" xlink:href="#DejaVuSans-46"/>
       <use x="95.410156" xlink:href="#DejaVuSans-48"/>
      </g>
     </g>
    </g>
    <g id="ytick_7">
     <g id="line2d_12">
      <g>
       <use style="stroke:#000000;stroke-width:0.8;" x="57.6" xlink:href="#md26c1ba913" y="72.434586"/>
      </g>
     </g>
     <g id="text_13">
      <!-- 1.2 -->
      <g transform="translate(23.564687 78.893258)scale(0.17 -0.17)">
       <use xlink:href="#DejaVuSans-49"/>
       <use x="63.623047" xlink:href="#DejaVuSans-46"/>
       <use x="95.410156" xlink:href="#DejaVuSans-50"/>
      </g>
     </g>
    </g>
    <g id="text_14">
     <!-- Density -->
     <defs>
      <path d="M 19.671875 64.796875 
L 19.671875 8.109375 
L 31.59375 8.109375 
Q 46.6875 8.109375 53.6875 14.9375 
Q 60.6875 21.78125 60.6875 36.53125 
Q 60.6875 51.171875 53.6875 57.984375 
Q 46.6875 64.796875 31.59375 64.796875 
z
M 9.8125 72.90625 
L 30.078125 72.90625 
Q 51.265625 72.90625 61.171875 64.09375 
Q 71.09375 55.28125 71.09375 36.53125 
Q 71.09375 17.671875 61.125 8.828125 
Q 51.171875 0 30.078125 0 
L 9.8125 0 
z
" id="DejaVuSans-68"/>
      <path d="M 56.203125 29.59375 
L 56.203125 25.203125 
L 14.890625 25.203125 
Q 15.484375 15.921875 20.484375 11.0625 
Q 25.484375 6.203125 34.421875 6.203125 
Q 39.59375 6.203125 44.453125 7.46875 
Q 49.3125 8.734375 54.109375 11.28125 
L 54.109375 2.78125 
Q 49.265625 0.734375 44.1875 -0.34375 
Q 39.109375 -1.421875 33.890625 -1.421875 
Q 20.796875 -1.421875 13.15625 6.1875 
Q 5.515625 13.8125 5.515625 26.8125 
Q 5.515625 40.234375 12.765625 48.109375 
Q 20.015625 56 32.328125 56 
Q 43.359375 56 49.78125 48.890625 
Q 56.203125 41.796875 56.203125 29.59375 
z
M 47.21875 32.234375 
Q 47.125 39.59375 43.09375 43.984375 
Q 39.0625 48.390625 32.421875 48.390625 
Q 24.90625 48.390625 20.390625 44.140625 
Q 15.875 39.890625 15.1875 32.171875 
z
" id="DejaVuSans-101"/>
      <path d="M 32.171875 -5.078125 
Q 28.375 -14.84375 24.75 -17.8125 
Q 21.140625 -20.796875 15.09375 -20.796875 
L 7.90625 -20.796875 
L 7.90625 -13.28125 
L 13.1875 -13.28125 
Q 16.890625 -13.28125 18.9375 -11.515625 
Q 21 -9.765625 23.484375 -3.21875 
L 25.09375 0.875 
L 2.984375 54.6875 
L 12.5 54.6875 
L 29.59375 11.921875 
L 46.6875 54.6875 
L 56.203125 54.6875 
z
" id="DejaVuSans-121"/>
     </defs>
     <g transform="translate(13.325625 231.553781)rotate(-90)scale(0.3 -0.3)">
      <use xlink:href="#DejaVuSans-68"/>
      <use x="77.001953" xlink:href="#DejaVuSans-101"/>
      <use x="138.525391" xlink:href="#DejaVuSans-110"/>
      <use x="201.904297" xlink:href="#DejaVuSans-115"/>
      <use x="254.003906" xlink:href="#DejaVuSans-105"/>
      <use x="281.787109" xlink:href="#DejaVuSans-116"/>
      <use x="320.996094" xlink:href="#DejaVuSans-121"/>
     </g>
    </g>
   </g>
   <g id="line2d_13">
    <path clip-path="url(#p6ad06b78bb)" d="M 73.832727 307.584 
L 98.036934 307.479569 
L 98.312904 307.213122 
L 98.556407 306.603541 
L 98.79991 305.322551 
L 99.092114 302.42763 
L 99.497952 295.789791 
L 100.114827 286.194405 
L 100.342096 285.194823 
L 100.439498 285.260511 
L 100.585599 285.80671 
L 100.91027 288.139537 
L 101.884283 295.229309 
L 102.403756 297.854769 
L 102.663492 298.320178 
L 102.842061 298.281639 
L 103.118032 297.882699 
L 103.507636 297.414316 
L 103.734906 297.458589 
L 104.286846 297.713239 
L 104.465415 297.400579 
L 104.708918 296.436121 
L 105.147224 293.52745 
L 105.650464 290.65141 
L 105.9102 290.168912 
L 106.072536 290.211128 
L 106.316039 290.582668 
L 106.981614 291.65768 
L 107.517321 291.961807 
L 107.858225 292.309892 
L 108.215363 293.045692 
L 108.767303 294.150311 
L 108.913405 294.104834 
L 109.091974 293.727469 
L 109.367944 292.502109 
L 110.163387 288.672607 
L 110.439358 288.341424 
L 110.699094 288.363541 
L 111.202334 288.436031 
L 111.462071 288.2095 
L 111.770508 287.608509 
L 112.160113 286.301927 
L 113.02049 283.17071 
L 113.166592 283.207224 
L 113.345161 283.599629 
L 113.718532 285.168934 
L 114.108137 286.411224 
L 114.30294 286.489283 
L 114.497742 286.243863 
L 115.049683 285.441155 
L 115.212018 285.569941 
L 115.471755 286.165069 
L 116.072396 287.596238 
L 116.267198 287.607063 
L 116.478234 287.318165 
L 116.835372 286.342074 
L 117.452246 284.741559 
L 117.711983 284.581914 
L 117.939253 284.711363 
L 118.24769 285.188513 
L 118.637295 286.231248 
L 119.513906 288.763799 
L 119.724942 288.804048 
L 119.984679 288.567487 
L 121.088559 287.331308 
L 121.559332 287.141132 
L 121.948937 286.950421 
L 122.224907 286.51271 
L 123.150219 284.723181 
L 123.361255 284.879881 
L 124.221632 285.792381 
L 125.325513 285.906309 
L 125.844986 286.258199 
L 126.559262 286.818659 
L 126.835232 286.701325 
L 127.679376 286.195553 
L 128.004047 286.316899 
L 128.328718 286.692732 
L 128.783257 287.626898 
L 129.383898 288.765168 
L 129.676101 288.90456 
L 129.935838 288.781455 
L 130.260509 288.356415 
L 130.812449 287.163228 
L 131.169587 286.670235 
L 131.348156 286.714141 
L 131.559192 287.052913 
L 131.900096 288.108613 
L 132.809174 291.069157 
L 133.085144 291.301436 
L 133.29618 291.203975 
L 133.604618 290.752833 
L 134.221492 289.855346 
L 134.513696 289.802029 
L 135.503942 290.074277 
L 135.844846 290.442693 
L 136.299385 290.89558 
L 136.461721 290.785246 
L 136.656523 290.326168 
L 136.948727 288.965365 
L 137.74417 284.973904 
L 137.906506 284.909224 
L 138.068841 285.166925 
L 138.425979 286.350137 
L 138.783117 287.205435 
L 138.994153 287.252656 
L 139.529859 287.107487 
L 139.724662 287.493554 
L 140.0818 288.851446 
L 140.601273 290.638198 
L 140.893477 290.958153 
L 141.218147 290.946911 
L 141.591519 290.990991 
L 141.997357 291.337973 
L 142.322028 291.488951 
L 142.516831 291.339758 
L 142.776567 290.794632 
L 143.945382 287.8361 
L 144.221352 287.69676 
L 144.416155 287.844609 
L 144.643424 288.360041 
L 145.049263 289.986658 
L 145.63367 292.053652 
L 146.575215 294.22596 
L 146.705084 294.149191 
L 146.867419 293.720455 
L 147.127156 292.247877 
L 147.662862 287.469272 
L 148.458306 281.094518 
L 148.912845 278.790446 
L 149.140114 278.457835 
L 149.269983 278.573231 
L 149.464785 279.133774 
L 149.80569 280.930447 
L 151.13684 288.686658 
L 151.282942 288.672684 
L 151.445277 288.273687 
L 151.721247 286.803255 
L 152.403056 282.920289 
L 152.532924 282.838145 
L 152.565391 282.865549 
L 152.711493 283.217334 
L 152.97123 284.600348 
L 153.831607 289.629977 
L 154.058877 289.919501 
L 154.204979 289.831756 
L 154.416015 289.363189 
L 154.756919 287.935164 
L 155.925734 282.558076 
L 156.510141 279.928756 
L 157.013381 277.951096 
L 157.273117 277.662371 
L 157.500387 277.737268 
L 157.906225 277.881618 
L 158.149729 277.698719 
L 158.961406 276.91467 
L 159.318543 276.691618 
L 159.57828 276.188259 
L 160.049053 274.60886 
L 160.471125 273.570369 
L 160.763328 273.369151 
L 161.347736 273.14605 
L 161.607472 272.652951 
L 161.932143 271.478583 
L 162.370449 268.910981 
L 163.441862 262.153498 
L 163.539264 262.219554 
L 163.685365 262.721721 
L 163.928868 264.538856 
L 164.80548 271.978032 
L 164.951581 272.117467 
L 164.967815 272.109841 
L 165.097683 271.903061 
L 165.341186 270.986204 
L 166.120396 267.77824 
L 166.363899 267.568023 
L 166.623636 267.648419 
L 167.19181 267.845694 
L 167.97102 267.809312 
L 168.555427 267.656557 
L 168.766463 267.948814 
L 169.058667 268.831063 
L 169.919044 271.713601 
L 170.13008 271.785765 
L 170.308649 271.580303 
L 170.552152 270.905025 
L 170.893057 269.19494 
L 171.509931 264.600191 
L 171.91577 262.407722 
L 172.110572 262.160347 
L 172.24044 262.324969 
L 172.46771 263.128171 
L 173.165752 265.852079 
L 173.360555 265.917074 
L 173.685225 265.659017 
L 173.912495 265.640274 
L 174.091064 265.892312 
L 174.367034 266.772102 
L 175.276112 270.062405 
L 175.90922 271.371321 
L 176.948167 274.434453 
L 177.207903 274.488311 
L 177.435173 274.287122 
L 177.678676 273.719249 
L 177.97088 272.392795 
L 179.042293 266.727209 
L 179.220862 266.744475 
L 179.80527 267.080134 
L 180.000072 266.70489 
L 180.308509 265.494437 
L 180.779282 262.626932 
L 181.363689 257.53112 
L 181.866929 253.791228 
L 182.094199 253.326407 
L 182.207833 253.455935 
L 182.386402 254.11287 
L 182.694839 256.26393 
L 184.285726 268.968663 
L 184.902601 271.112917 
L 185.275972 271.78777 
L 185.584409 271.942882 
L 186.168817 272.139578 
L 186.883093 272.531486 
L 187.435033 272.650741 
L 187.792171 273.094348 
L 188.133075 273.388666 
L 188.29541 273.248872 
L 188.490213 272.71521 
L 188.782417 271.146798 
L 190.097333 262.953259 
L 190.503172 262.200984 
L 190.876543 261.463146 
L 191.152513 260.291211 
L 191.460951 257.890233 
L 191.931723 252.080051 
L 192.46743 246.203414 
L 192.662232 245.643318 
L 192.678466 245.648906 
L 192.775867 245.85493 
L 192.954436 246.973902 
L 193.262873 250.752855 
L 194.480389 267.539678 
L 194.772592 268.61815 
L 195.016096 268.835602 
L 195.746605 268.935661 
L 195.925174 268.658116 
L 196.152443 267.797523 
L 196.493348 265.415345 
L 197.613462 256.775551 
L 197.873198 256.304989 
L 198.068001 256.326792 
L 198.603708 256.537571 
L 198.830977 256.245929 
L 199.821223 254.59087 
L 200.016026 254.78862 
L 200.340696 255.522981 
L 200.714068 256.194498 
L 200.843936 256.116273 
L 201.006271 255.661307 
L 201.266008 254.076689 
L 202.158853 247.842332 
L 202.272487 247.889347 
L 202.418589 248.355791 
L 202.662092 250.046191 
L 203.278967 256.622482 
L 203.701039 259.674968 
L 204.009476 260.548931 
L 204.269213 260.718815 
L 204.610117 260.618326 
L 204.983488 260.580551 
L 205.600363 260.684471 
L 205.795165 260.25365 
L 206.054902 259.037349 
L 206.493208 255.698324 
L 207.694489 246.172033 
L 207.954226 245.613833 
L 208.132795 245.632339 
L 208.636035 245.867319 
L 208.830837 245.562087 
L 209.139274 244.579823 
L 209.57758 242.412203 
L 210.048353 238.773007 
L 210.535359 235.431704 
L 210.730161 235.122912 
L 210.843796 235.258296 
L 211.071066 235.999743 
L 211.476904 237.179244 
L 211.590539 237.132739 
L 211.752874 236.687394 
L 212.045078 235.008981 
L 212.678186 231.385829 
L 212.921689 230.983221 
L 213.067791 231.05126 
L 213.262593 231.497455 
L 213.554797 232.876353 
L 214.30154 236.745597 
L 214.447642 236.784874 
L 214.463875 236.77074 
L 214.642444 236.425547 
L 215.194384 235.226899 
L 215.340486 235.327389 
L 215.648924 235.951073 
L 215.90866 236.242201 
L 216.038528 236.110022 
L 216.233331 235.507482 
L 216.947607 232.746677 
L 216.980074 232.769897 
L 217.109942 233.071554 
L 217.353445 234.390715 
L 217.840451 236.974421 
L 217.921619 236.967691 
L 217.937853 236.943646 
L 218.067721 236.468824 
L 218.29499 234.491336 
L 218.79823 227.349643 
L 219.317703 221.472099 
L 219.626141 219.966358 
L 219.756009 219.857679 
L 219.788476 219.88425 
L 219.918344 220.219315 
L 220.12938 221.590841 
L 220.437818 225.429759 
L 221.509231 240.574423 
L 221.590399 240.626603 
L 221.622866 240.583123 
L 221.752734 240.055287 
L 221.980004 237.923028 
L 222.385842 231.525195 
L 223.52219 212.507376 
L 223.716992 211.924444 
L 223.814394 212.11926 
L 223.992963 213.233562 
L 224.333867 217.192199 
L 224.869574 222.95055 
L 225.064376 223.441639 
L 225.161777 223.255501 
L 225.340346 222.227872 
L 225.729951 218.184458 
L 226.200724 214.174886 
L 226.541628 212.964235 
L 226.801365 212.674116 
L 226.931233 212.778413 
L 227.093568 213.27335 
L 227.320838 214.882101 
L 227.645509 219.18339 
L 228.635755 233.663188 
L 228.895491 234.635835 
L 229.009126 234.619527 
L 229.155228 234.236782 
L 229.398731 232.789753 
L 229.820803 228.605066 
L 230.372743 223.695851 
L 230.762348 222.236061 
L 231.005851 220.959594 
L 231.265588 218.194113 
L 232.320768 204.932019 
L 232.401936 204.93789 
L 232.418169 204.960329 
L 232.548038 205.379457 
L 232.775307 207.031226 
L 233.148679 211.741942 
L 234.009056 223.239596 
L 234.122691 223.538594 
L 234.171391 223.488783 
L 234.285026 222.87217 
L 234.447362 220.470483 
L 234.658398 213.656162 
L 234.918134 197.150977 
L 235.259039 158.545123 
L 236.103183 54.915154 
L 236.168117 54.144 
L 236.216817 54.63393 
L 236.330452 59.258374 
L 236.541488 79.168273 
L 237.726537 212.884384 
L 238.002507 219.118193 
L 238.116141 219.658599 
L 238.164842 219.596452 
L 238.278477 218.852841 
L 238.505746 215.341917 
L 239.07392 201.519938 
L 239.593393 191.848739 
L 240.047933 187.213695 
L 240.340136 185.935802 
L 240.421304 185.916337 
L 240.453771 185.957293 
L 240.583639 186.419204 
L 240.794675 188.223948 
L 241.13558 193.53182 
L 242.288161 213.263 
L 242.531664 214.356 
L 242.612832 214.357189 
L 242.645299 214.309988 
L 242.791401 213.798268 
L 243.116071 211.563959 
L 243.538143 209.134413 
L 243.716712 208.917557 
L 243.732946 208.924328 
L 243.862814 209.121425 
L 244.106317 210.035238 
L 244.560856 212.803922 
L 245.015395 216.925504 
L 245.940707 226.029386 
L 246.054342 226.170615 
L 246.086809 226.149001 
L 246.200444 225.861141 
L 246.41148 224.536265 
L 246.817318 220.175148 
L 247.953666 205.116415 
L 248.700409 194.402846 
L 248.911445 193.648738 
L 248.992613 193.730504 
L 249.138714 194.351619 
L 249.414685 196.795905 
L 251.671146 220.522124 
L 252.044518 222.089629 
L 252.23932 222.271255 
L 252.369189 222.092672 
L 252.580225 221.281168 
L 252.96983 218.609151 
L 253.424369 216.031506 
L 253.635405 215.759202 
L 253.781507 215.907357 
L 254.057477 216.64038 
L 254.593183 218.75485 
L 254.982788 221.342046 
L 255.745765 226.688265 
L 255.9081 226.867149 
L 255.924334 226.858268 
L 256.054202 226.618397 
L 256.281472 225.570435 
L 257.304184 219.942372 
L 257.450286 219.94853 
L 257.628855 220.257137 
L 258.343131 221.778262 
L 258.505466 221.592883 
L 259.008706 220.769163 
L 259.041173 220.797161 
L 259.171041 221.113491 
L 259.365844 222.29302 
L 259.674281 225.876832 
L 261.070366 244.617978 
L 261.395036 246.069994 
L 261.622306 246.332993 
L 261.800875 246.236272 
L 262.076845 245.766952 
L 262.433983 244.695891 
L 263.407995 241.370329 
L 263.992403 240.807267 
L 264.674211 239.317332 
L 264.706678 239.340161 
L 264.869014 239.666054 
L 265.144984 240.867383 
L 265.696924 243.19962 
L 265.90796 243.379608 
L 266.086529 243.250944 
L 266.68717 242.339739 
L 266.979374 241.628626 
L 267.255344 240.220464 
L 267.693649 236.470228 
L 268.24559 232.344087 
L 268.765063 230.31706 
L 269.154668 229.380548 
L 269.284536 229.443305 
L 269.430638 229.890638 
L 269.674141 231.573601 
L 270.469585 237.89831 
L 270.680621 238.100394 
L 270.940357 238.226306 
L 271.102693 238.696364 
L 271.329962 240.183672 
L 271.784501 245.152145 
L 272.255274 249.248391 
L 272.531244 250.103218 
L 272.693579 250.118462 
L 272.872148 249.808504 
L 273.180586 248.692736 
L 274.008496 245.437052 
L 274.122131 245.523291 
L 274.284466 246.090079 
L 274.527969 247.927745 
L 275.40458 255.585997 
L 275.485748 255.503197 
L 275.615616 254.917186 
L 275.842886 252.586203 
L 276.216257 245.948522 
L 276.979234 232.261114 
L 277.222737 230.921711 
L 277.303904 230.900732 
L 277.336372 230.946599 
L 277.482473 231.487394 
L 277.790911 233.778468 
L 278.326617 237.409912 
L 278.635055 238.182859 
L 279.008426 238.943292 
L 279.251929 240.194603 
L 279.5766 243.317943 
L 280.388277 251.822716 
L 280.485678 251.94189 
L 280.518145 251.914154 
L 280.63178 251.554318 
L 280.842816 249.904857 
L 281.313589 243.775847 
L 281.833062 238.279032 
L 282.1902 236.523762 
L 282.449936 236.099822 
L 282.612272 236.155856 
L 282.807074 236.541314 
L 283.099278 237.737222 
L 283.602518 240.990519 
L 284.235626 244.699652 
L 284.57653 245.605268 
L 284.8525 245.818878 
L 285.339506 246.007224 
L 285.534309 246.519353 
L 285.777812 247.929052 
L 286.13495 251.628127 
L 286.784291 258.334171 
L 287.011561 258.951999 
L 287.125196 258.887565 
L 287.319998 258.387965 
L 287.985573 256.499755 
L 288.488813 255.650274 
L 288.829717 254.317468 
L 289.284256 252.728748 
L 289.430358 252.687248 
L 289.446592 252.701705 
L 289.608927 253.051434 
L 289.884897 254.335061 
L 290.793975 258.910603 
L 291.167347 259.720808 
L 291.362149 259.766066 
L 291.524485 259.53742 
L 291.767988 258.713776 
L 292.579665 255.464332 
L 292.595898 255.471684 
L 292.725766 255.700598 
L 292.936802 256.657664 
L 293.667312 260.447596 
L 293.780947 260.404002 
L 293.943282 259.960814 
L 294.251719 258.253935 
L 294.901061 254.710878 
L 295.12833 254.38204 
L 295.258199 254.47834 
L 295.453001 254.993153 
L 295.777672 256.624244 
L 296.68675 261.483842 
L 296.91402 261.754133 
L 297.043888 261.598535 
L 297.23869 260.882299 
L 297.530894 258.750958 
L 298.488673 250.89274 
L 298.602308 250.812217 
L 298.634775 250.839358 
L 298.764643 251.165737 
L 298.991913 252.48687 
L 300.258129 261.391831 
L 300.858769 262.88044 
L 301.021105 262.903257 
L 301.167207 262.579052 
L 301.378243 261.390146 
L 301.719147 257.866211 
L 302.254854 252.623792 
L 302.433423 252.214862 
L 302.449656 252.220435 
L 302.563291 252.446935 
L 302.774327 253.591121 
L 303.715872 259.614659 
L 304.446382 261.491096 
L 304.722352 261.807357 
L 304.868454 261.68132 
L 305.063256 261.134936 
L 305.420394 259.273919 
L 306.102203 255.831208 
L 306.881412 253.474882 
L 307.206083 252.977388 
L 307.400886 253.013398 
L 307.709323 253.411846 
L 308.01776 253.668569 
L 308.212563 253.55595 
L 308.699569 253.157947 
L 308.845671 253.462672 
L 309.056707 254.583037 
L 309.365144 257.682426 
L 310.257989 267.407676 
L 310.517725 268.094219 
L 310.663827 268.06193 
L 310.891097 267.661633 
L 311.41057 266.745113 
L 311.589139 266.800023 
L 311.800175 267.191696 
L 312.18978 268.551405 
L 312.676786 270.010267 
L 313.001457 270.352939 
L 313.391062 270.732227 
L 313.699499 271.466586 
L 314.754679 274.325366 
L 315.192984 274.874971 
L 315.371553 274.829073 
L 315.566356 274.471198 
L 315.858559 273.326908 
L 316.556602 270.413868 
L 316.751404 270.306195 
L 316.91374 270.531388 
L 317.157243 271.34979 
L 317.660482 274.087877 
L 318.066321 275.712655 
L 318.261123 275.867629 
L 318.423459 275.694326 
L 319.007866 274.7668 
L 319.040333 274.789028 
L 319.202668 275.104972 
L 319.462405 276.276847 
L 320.192914 279.874951 
L 320.322783 279.864533 
L 320.485118 279.488116 
L 320.826022 277.91063 
L 321.18316 276.697823 
L 321.313029 276.69755 
L 321.45913 277.030157 
L 321.718867 278.34083 
L 322.595478 283.246325 
L 322.806514 283.454684 
L 322.952616 283.277767 
L 323.163652 282.575297 
L 323.56949 280.22853 
L 324.121431 277.397676 
L 324.494802 276.580138 
L 324.933108 275.711483 
L 325.35518 274.167313 
L 325.90712 272.341305 
L 326.18309 272.061932 
L 326.394126 272.136359 
L 326.751264 272.579179 
L 327.124636 272.926645 
L 327.303204 272.848945 
L 327.51424 272.448304 
L 327.822678 271.252693 
L 328.536953 268.311354 
L 328.683055 268.318412 
L 328.829157 268.652003 
L 329.07266 269.885358 
L 329.543433 273.747241 
L 330.241475 279.022723 
L 330.566146 280.09036 
L 330.744715 280.14087 
L 330.90705 279.851461 
L 331.18302 278.76656 
L 331.767428 276.405108 
L 331.897296 276.377288 
L 331.913529 276.392934 
L 332.059631 276.722927 
L 332.319368 277.997729 
L 332.887542 280.756327 
L 333.033644 280.825354 
L 333.049877 280.812588 
L 333.212213 280.486824 
L 333.585584 278.988536 
L 333.910255 278.131128 
L 334.040123 278.173721 
L 334.202458 278.617824 
L 334.445962 280.090954 
L 334.916734 284.724548 
L 335.452441 289.233771 
L 335.744645 290.199662 
L 335.939447 290.305138 
L 336.13425 290.129715 
L 336.556322 289.342468 
L 337.335532 287.96149 
L 337.611502 287.83193 
L 337.855005 287.969582 
L 338.666682 288.662567 
L 338.877718 288.363391 
L 339.186155 287.427952 
L 340.40367 283.234417 
L 341.036778 282.000203 
L 341.442617 281.676132 
L 341.783521 281.353421 
L 342.059491 280.710884 
L 342.903635 278.396339 
L 343.049737 278.56464 
L 343.277007 279.308596 
L 344.088684 282.39742 
L 344.218552 282.24843 
L 344.429588 281.542268 
L 345.289966 278.200447 
L 345.582169 278.046926 
L 345.890607 277.873267 
L 346.166577 277.401344 
L 346.783451 276.283082 
L 346.945787 276.365702 
L 347.156823 276.800461 
L 347.530194 278.206057 
L 348.276937 280.977102 
L 348.552907 281.315811 
L 348.747709 281.264782 
L 349.02368 280.900218 
L 349.721722 279.918914 
L 349.948991 279.928168 
L 350.192494 280.189527 
L 350.663267 281.13652 
L 351.507411 282.675094 
L 351.815848 282.938024 
L 351.978184 282.802511 
L 352.18922 282.228878 
L 352.562591 280.356149 
L 353.01713 278.451325 
L 353.2444 278.245588 
L 353.439202 278.400935 
L 353.958675 278.896481 
L 354.137244 278.729384 
L 354.364514 278.153958 
L 354.689185 276.65446 
L 355.257359 272.736424 
L 355.857999 269.178511 
L 356.231371 268.101597 
L 356.474874 267.892445 
L 356.637209 268.023154 
L 356.832012 268.533018 
L 357.107982 269.966996 
L 357.611222 274.062304 
L 358.29303 279.065053 
L 358.682635 280.485933 
L 358.942372 280.784755 
L 359.153408 280.715044 
L 359.494312 280.27235 
L 360.728061 278.55007 
L 360.922864 278.615402 
L 361.1339 278.995411 
L 361.442337 280.124581 
L 361.913109 282.825681 
L 363.390362 291.939086 
L 363.698799 292.650009 
L 363.844901 292.607665 
L 364.007236 292.200023 
L 364.266973 290.761304 
L 365.07865 285.663801 
L 365.192284 285.707772 
L 365.35462 286.202459 
L 365.663057 288.092304 
L 366.214997 291.270395 
L 366.474734 291.713948 
L 366.637069 291.646317 
L 366.880572 291.208376 
L 367.481213 290.061749 
L 367.659782 290.112245 
L 367.870818 290.489977 
L 368.260423 291.787248 
L 369.055867 294.351396 
L 369.607807 295.472412 
L 369.835076 295.571743 
L 370.013645 295.397785 
L 370.257148 294.774562 
L 370.662987 292.991838 
L 371.831802 287.624402 
L 371.929203 287.679927 
L 372.075305 288.17085 
L 372.286341 289.832721 
L 372.643479 294.777708 
L 373.357754 304.538097 
L 373.714892 306.612068 
L 374.02333 307.297399 
L 374.348 307.52148 
L 374.916174 307.581583 
L 382.627105 307.584 
L 398.487273 307.584 
L 398.487273 307.584 
" style="fill:none;stroke:#ff7f0e;stroke-linecap:square;stroke-width:1.5;"/>
   </g>
   <g id="patch_103">
    <path d="M 57.6 307.584 
L 57.6 41.472 
" style="fill:none;stroke:#000000;stroke-linecap:square;stroke-linejoin:miter;stroke-width:0.8;"/>
   </g>
   <g id="patch_104">
    <path d="M 414.72 307.584 
L 414.72 41.472 
" style="fill:none;stroke:#000000;stroke-linecap:square;stroke-linejoin:miter;stroke-width:0.8;"/>
   </g>
   <g id="patch_105">
    <path d="M 57.6 307.584 
L 414.72 307.584 
" style="fill:none;stroke:#000000;stroke-linecap:square;stroke-linejoin:miter;stroke-width:0.8;"/>
   </g>
   <g id="patch_106">
    <path d="M 57.6 41.472 
L 414.72 41.472 
" style="fill:none;stroke:#000000;stroke-linecap:square;stroke-linejoin:miter;stroke-width:0.8;"/>
   </g>
  </g>
 </g>
 <defs>
  <clipPath id="p6ad06b78bb">
   <rect height="266.112" width="357.12" x="57.6" y="41.472"/>
  </clipPath>
 </defs>
</svg>
