<?xml version="1.0" encoding="utf-8" standalone="no"?>
<!DOCTYPE svg PUBLIC "-//W3C//DTD SVG 1.1//EN"
  "http://www.w3.org/Graphics/SVG/1.1/DTD/svg11.dtd">
<!-- Created with matplotlib (https://matplotlib.org/) -->
<svg height="345.6pt" version="1.1" viewBox="0 0 460.8 345.6" width="460.8pt" xmlns="http://www.w3.org/2000/svg" xmlns:xlink="http://www.w3.org/1999/xlink">
 <defs>
  <style type="text/css">
*{stroke-linecap:butt;stroke-linejoin:round;}
  </style>
 </defs>
 <g id="figure_1">
  <g id="patch_1">
   <path d="M 0 345.6 
L 460.8 345.6 
L 460.8 0 
L 0 0 
z
" style="fill:#ffffff;"/>
  </g>
  <g id="axes_1">
   <g id="patch_2">
    <path d="M 57.6 307.584 
L 414.72 307.584 
L 414.72 41.472 
L 57.6 41.472 
z
" style="fill:#ffffff;"/>
   </g>
   <g id="patch_3">
    <path clip-path="url(#p415d444474)" d="M 99.931639 307.584 
L 102.655893 307.584 
L 102.655893 285.958998 
L 99.931639 285.958998 
z
" style="fill:#1f77b4;"/>
   </g>
   <g id="patch_4">
    <path clip-path="url(#p415d444474)" d="M 102.655893 307.584 
L 105.380147 307.584 
L 105.380147 294.296348 
L 102.655893 294.296348 
z
" style="fill:#1f77b4;"/>
   </g>
   <g id="patch_5">
    <path clip-path="url(#p415d444474)" d="M 105.380147 307.584 
L 108.104393 307.584 
L 108.104393 290.64871 
L 105.380147 290.64871 
z
" style="fill:#1f77b4;"/>
   </g>
   <g id="patch_6">
    <path clip-path="url(#p415d444474)" d="M 108.104393 307.584 
L 110.828646 307.584 
L 110.828646 289.606589 
L 108.104393 289.606589 
z
" style="fill:#1f77b4;"/>
   </g>
   <g id="patch_7">
    <path clip-path="url(#p415d444474)" d="M 110.828639 307.584 
L 113.552885 307.584 
L 113.552885 284.135136 
L 110.828639 284.135136 
z
" style="fill:#1f77b4;"/>
   </g>
   <g id="patch_8">
    <path clip-path="url(#p415d444474)" d="M 113.552893 307.584 
L 116.277146 307.584 
L 116.277146 283.093034 
L 113.552893 283.093034 
z
" style="fill:#1f77b4;"/>
   </g>
   <g id="patch_9">
    <path clip-path="url(#p415d444474)" d="M 116.277146 307.584 
L 119.0014 307.584 
L 119.0014 279.705986 
L 116.277146 279.705986 
z
" style="fill:#1f77b4;"/>
   </g>
   <g id="patch_10">
    <path clip-path="url(#p415d444474)" d="M 119.0014 307.584 
L 121.725646 307.584 
L 121.725646 281.79025 
L 119.0014 281.79025 
z
" style="fill:#1f77b4;"/>
   </g>
   <g id="patch_11">
    <path clip-path="url(#p415d444474)" d="M 121.725646 307.584 
L 124.4499 307.584 
L 124.4499 283.614119 
L 121.725646 283.614119 
z
" style="fill:#1f77b4;"/>
   </g>
   <g id="patch_12">
    <path clip-path="url(#p415d444474)" d="M 124.4499 307.584 
L 127.174154 307.584 
L 127.174154 279.966528 
L 124.4499 279.966528 
z
" style="fill:#1f77b4;"/>
   </g>
   <g id="patch_13">
    <path clip-path="url(#p415d444474)" d="M 127.174146 307.584 
L 129.898392 307.584 
L 129.898392 283.614051 
L 127.174146 283.614051 
z
" style="fill:#1f77b4;"/>
   </g>
   <g id="patch_14">
    <path clip-path="url(#p415d444474)" d="M 129.8984 307.584 
L 132.622653 307.584 
L 132.622653 281.529781 
L 129.8984 281.529781 
z
" style="fill:#1f77b4;"/>
   </g>
   <g id="patch_15">
    <path clip-path="url(#p415d444474)" d="M 132.622653 307.584 
L 135.346907 307.584 
L 135.346907 283.874661 
L 132.622653 283.874661 
z
" style="fill:#1f77b4;"/>
   </g>
   <g id="patch_16">
    <path clip-path="url(#p415d444474)" d="M 135.346907 307.584 
L 138.071161 307.584 
L 138.071161 283.093034 
L 135.346907 283.093034 
z
" style="fill:#1f77b4;"/>
   </g>
   <g id="patch_17">
    <path clip-path="url(#p415d444474)" d="M 138.071161 307.584 
L 140.795407 307.584 
L 140.795407 279.705907 
L 138.071161 279.705907 
z
" style="fill:#1f77b4;"/>
   </g>
   <g id="patch_18">
    <path clip-path="url(#p415d444474)" d="M 140.795407 307.584 
L 143.519661 307.584 
L 143.519661 283.353576 
L 140.795407 283.353576 
z
" style="fill:#1f77b4;"/>
   </g>
   <g id="patch_19">
    <path clip-path="url(#p415d444474)" d="M 143.519661 307.584 
L 146.243914 307.584 
L 146.243914 284.656287 
L 143.519661 284.656287 
z
" style="fill:#1f77b4;"/>
   </g>
   <g id="patch_20">
    <path clip-path="url(#p415d444474)" d="M 146.243907 307.584 
L 148.968153 307.584 
L 148.968153 285.437851 
L 146.243907 285.437851 
z
" style="fill:#1f77b4;"/>
   </g>
   <g id="patch_21">
    <path clip-path="url(#p415d444474)" d="M 148.96816 307.584 
L 151.692414 307.584 
L 151.692414 278.663817 
L 148.96816 278.663817 
z
" style="fill:#1f77b4;"/>
   </g>
   <g id="patch_22">
    <path clip-path="url(#p415d444474)" d="M 151.692414 307.584 
L 154.416668 307.584 
L 154.416668 281.529781 
L 151.692414 281.529781 
z
" style="fill:#1f77b4;"/>
   </g>
   <g id="patch_23">
    <path clip-path="url(#p415d444474)" d="M 154.416668 307.584 
L 157.140914 307.584 
L 157.140914 278.403192 
L 154.416668 278.403192 
z
" style="fill:#1f77b4;"/>
   </g>
   <g id="patch_24">
    <path clip-path="url(#p415d444474)" d="M 157.140914 307.584 
L 159.865168 307.584 
L 159.865168 278.663817 
L 157.140914 278.663817 
z
" style="fill:#1f77b4;"/>
   </g>
   <g id="patch_25">
    <path clip-path="url(#p415d444474)" d="M 159.865168 307.584 
L 162.589421 307.584 
L 162.589421 272.671347 
L 159.865168 272.671347 
z
" style="fill:#1f77b4;"/>
   </g>
   <g id="patch_26">
    <path clip-path="url(#p415d444474)" d="M 162.589414 307.584 
L 165.31366 307.584 
L 165.31366 265.897131 
L 162.589414 265.897131 
z
" style="fill:#1f77b4;"/>
   </g>
   <g id="patch_27">
    <path clip-path="url(#p415d444474)" d="M 165.313667 307.584 
L 168.037921 307.584 
L 168.037921 267.199961 
L 165.313667 267.199961 
z
" style="fill:#1f77b4;"/>
   </g>
   <g id="patch_28">
    <path clip-path="url(#p415d444474)" d="M 168.037921 307.584 
L 170.762175 307.584 
L 170.762175 269.805383 
L 168.037921 269.805383 
z
" style="fill:#1f77b4;"/>
   </g>
   <g id="patch_29">
    <path clip-path="url(#p415d444474)" d="M 170.762175 307.584 
L 173.486425 307.584 
L 173.486425 263.031222 
L 170.762175 263.031222 
z
" style="fill:#1f77b4;"/>
   </g>
   <g id="patch_30">
    <path clip-path="url(#p415d444474)" d="M 173.486421 307.584 
L 176.210671 307.584 
L 176.210671 266.418276 
L 173.486421 266.418276 
z
" style="fill:#1f77b4;"/>
   </g>
   <g id="patch_31">
    <path clip-path="url(#p415d444474)" d="M 176.210675 307.584 
L 178.934924 307.584 
L 178.934924 266.678818 
L 176.210675 266.678818 
z
" style="fill:#1f77b4;"/>
   </g>
   <g id="patch_32">
    <path clip-path="url(#p415d444474)" d="M 178.934924 307.584 
L 181.659178 307.584 
L 181.659178 261.728575 
L 178.934924 261.728575 
z
" style="fill:#1f77b4;"/>
   </g>
   <g id="patch_33">
    <path clip-path="url(#p415d444474)" d="M 181.659174 307.584 
L 184.383424 307.584 
L 184.383424 254.693861 
L 181.659174 254.693861 
z
" style="fill:#1f77b4;"/>
   </g>
   <g id="patch_34">
    <path clip-path="url(#p415d444474)" d="M 184.383428 307.584 
L 187.107682 307.584 
L 187.107682 265.636708 
L 184.383428 265.636708 
z
" style="fill:#1f77b4;"/>
   </g>
   <g id="patch_35">
    <path clip-path="url(#p415d444474)" d="M 187.107682 307.584 
L 189.831932 307.584 
L 189.831932 268.242074 
L 187.107682 268.242074 
z
" style="fill:#1f77b4;"/>
   </g>
   <g id="patch_36">
    <path clip-path="url(#p415d444474)" d="M 189.831928 307.584 
L 192.556178 307.584 
L 192.556178 255.475488 
L 189.831928 255.475488 
z
" style="fill:#1f77b4;"/>
   </g>
   <g id="patch_37">
    <path clip-path="url(#p415d444474)" d="M 192.556182 307.584 
L 195.280435 307.584 
L 195.280435 255.475562 
L 192.556182 255.475562 
z
" style="fill:#1f77b4;"/>
   </g>
   <g id="patch_38">
    <path clip-path="url(#p415d444474)" d="M 195.280435 307.584 
L 198.004685 307.584 
L 198.004685 251.306807 
L 195.280435 251.306807 
z
" style="fill:#1f77b4;"/>
   </g>
   <g id="patch_39">
    <path clip-path="url(#p415d444474)" d="M 198.004681 307.584 
L 200.728931 307.584 
L 200.728931 249.222467 
L 198.004681 249.222467 
z
" style="fill:#1f77b4;"/>
   </g>
   <g id="patch_40">
    <path clip-path="url(#p415d444474)" d="M 200.728935 307.584 
L 203.453189 307.584 
L 203.453189 250.264719 
L 200.728935 250.264719 
z
" style="fill:#1f77b4;"/>
   </g>
   <g id="patch_41">
    <path clip-path="url(#p415d444474)" d="M 203.453189 307.584 
L 206.177439 307.584 
L 206.177439 251.306807 
L 203.453189 251.306807 
z
" style="fill:#1f77b4;"/>
   </g>
   <g id="patch_42">
    <path clip-path="url(#p415d444474)" d="M 206.177439 307.584 
L 208.901691 307.584 
L 208.901691 250.785763 
L 206.177439 250.785763 
z
" style="fill:#1f77b4;"/>
   </g>
   <g id="patch_43">
    <path clip-path="url(#p415d444474)" d="M 208.901689 307.584 
L 211.62594 307.584 
L 211.62594 236.716474 
L 208.901689 236.716474 
z
" style="fill:#1f77b4;"/>
   </g>
   <g id="patch_44">
    <path clip-path="url(#p415d444474)" d="M 211.625942 307.584 
L 214.350192 307.584 
L 214.350192 229.16069 
L 211.625942 229.16069 
z
" style="fill:#1f77b4;"/>
   </g>
   <g id="patch_45">
    <path clip-path="url(#p415d444474)" d="M 214.350192 307.584 
L 217.074444 307.584 
L 217.074444 226.034237 
L 214.350192 226.034237 
z
" style="fill:#1f77b4;"/>
   </g>
   <g id="patch_46">
    <path clip-path="url(#p415d444474)" d="M 217.074442 307.584 
L 219.798694 307.584 
L 219.798694 231.245085 
L 217.074442 231.245085 
z
" style="fill:#1f77b4;"/>
   </g>
   <g id="patch_47">
    <path clip-path="url(#p415d444474)" d="M 219.798696 307.584 
L 222.522947 307.584 
L 222.522947 228.639633 
L 219.798696 228.639633 
z
" style="fill:#1f77b4;"/>
   </g>
   <g id="patch_48">
    <path clip-path="url(#p415d444474)" d="M 222.522948 307.584 
L 225.247199 307.584 
L 225.247199 217.957392 
L 222.522948 217.957392 
z
" style="fill:#1f77b4;"/>
   </g>
   <g id="patch_49">
    <path clip-path="url(#p415d444474)" d="M 225.247198 307.584 
L 227.971449 307.584 
L 227.971449 209.88061 
L 225.247198 209.88061 
z
" style="fill:#1f77b4;"/>
   </g>
   <g id="patch_50">
    <path clip-path="url(#p415d444474)" d="M 227.971449 307.584 
L 230.6957 307.584 
L 230.6957 220.302274 
L 227.971449 220.302274 
z
" style="fill:#1f77b4;"/>
   </g>
   <g id="patch_51">
    <path clip-path="url(#p415d444474)" d="M 230.6957 307.584 
L 233.419952 307.584 
L 233.419952 208.838423 
L 230.6957 208.838423 
z
" style="fill:#1f77b4;"/>
   </g>
   <g id="patch_52">
    <path clip-path="url(#p415d444474)" d="M 233.419952 307.584 
L 236.144203 307.584 
L 236.144203 215.612526 
L 233.419952 215.612526 
z
" style="fill:#1f77b4;"/>
   </g>
   <g id="patch_53">
    <path clip-path="url(#p415d444474)" d="M 236.144203 307.584 
L 238.868454 307.584 
L 238.868454 126.767561 
L 236.144203 126.767561 
z
" style="fill:#1f77b4;"/>
   </g>
   <g id="patch_54">
    <path clip-path="url(#p415d444474)" d="M 238.868454 307.584 
L 241.592706 307.584 
L 241.592706 190.339911 
L 238.868454 190.339911 
z
" style="fill:#1f77b4;"/>
   </g>
   <g id="patch_55">
    <path clip-path="url(#p415d444474)" d="M 241.592706 307.584 
L 244.316956 307.584 
L 244.316956 214.309797 
L 241.592706 214.309797 
z
" style="fill:#1f77b4;"/>
   </g>
   <g id="patch_56">
    <path clip-path="url(#p415d444474)" d="M 244.316956 307.584 
L 247.041208 307.584 
L 247.041208 229.68183 
L 244.316956 229.68183 
z
" style="fill:#1f77b4;"/>
   </g>
   <g id="patch_57">
    <path clip-path="url(#p415d444474)" d="M 247.041208 307.584 
L 249.765459 307.584 
L 249.765459 212.486 
L 247.041208 212.486 
z
" style="fill:#1f77b4;"/>
   </g>
   <g id="patch_58">
    <path clip-path="url(#p415d444474)" d="M 249.76546 307.584 
L 252.48971 307.584 
L 252.48971 219.520646 
L 249.76546 219.520646 
z
" style="fill:#1f77b4;"/>
   </g>
   <g id="patch_59">
    <path clip-path="url(#p415d444474)" d="M 252.48971 307.584 
L 255.213962 307.584 
L 255.213962 226.294779 
L 252.48971 226.294779 
z
" style="fill:#1f77b4;"/>
   </g>
   <g id="patch_60">
    <path clip-path="url(#p415d444474)" d="M 255.21396 307.584 
L 257.938212 307.584 
L 257.938212 220.041762 
L 255.21396 220.041762 
z
" style="fill:#1f77b4;"/>
   </g>
   <g id="patch_61">
    <path clip-path="url(#p415d444474)" d="M 257.938214 307.584 
L 260.662463 307.584 
L 260.662463 226.555264 
L 257.938214 226.555264 
z
" style="fill:#1f77b4;"/>
   </g>
   <g id="patch_62">
    <path clip-path="url(#p415d444474)" d="M 260.662463 307.584 
L 263.386715 307.584 
L 263.386715 239.842983 
L 260.662463 239.842983 
z
" style="fill:#1f77b4;"/>
   </g>
   <g id="patch_63">
    <path clip-path="url(#p415d444474)" d="M 263.386713 307.584 
L 266.110965 307.584 
L 266.110965 243.490576 
L 263.386713 243.490576 
z
" style="fill:#1f77b4;"/>
   </g>
   <g id="patch_64">
    <path clip-path="url(#p415d444474)" d="M 266.110967 307.584 
L 268.835217 307.584 
L 268.835217 246.356499 
L 266.110967 246.356499 
z
" style="fill:#1f77b4;"/>
   </g>
   <g id="patch_65">
    <path clip-path="url(#p415d444474)" d="M 268.835217 307.584 
L 271.559471 307.584 
L 271.559471 244.793333 
L 268.835217 244.793333 
z
" style="fill:#1f77b4;"/>
   </g>
   <g id="patch_66">
    <path clip-path="url(#p415d444474)" d="M 271.559471 307.584 
L 274.283721 307.584 
L 274.283721 250.785722 
L 271.559471 250.785722 
z
" style="fill:#1f77b4;"/>
   </g>
   <g id="patch_67">
    <path clip-path="url(#p415d444474)" d="M 274.283717 307.584 
L 277.007967 307.584 
L 277.007967 249.743552 
L 274.283717 249.743552 
z
" style="fill:#1f77b4;"/>
   </g>
   <g id="patch_68">
    <path clip-path="url(#p415d444474)" d="M 277.00797 307.584 
L 279.732224 307.584 
L 279.732224 244.53279 
L 277.00797 244.53279 
z
" style="fill:#1f77b4;"/>
   </g>
   <g id="patch_69">
    <path clip-path="url(#p415d444474)" d="M 279.732224 307.584 
L 282.456474 307.584 
L 282.456474 252.870063 
L 279.732224 252.870063 
z
" style="fill:#1f77b4;"/>
   </g>
   <g id="patch_70">
    <path clip-path="url(#p415d444474)" d="M 282.45647 307.584 
L 285.18072 307.584 
L 285.18072 251.046265 
L 282.45647 251.046265 
z
" style="fill:#1f77b4;"/>
   </g>
   <g id="patch_71">
    <path clip-path="url(#p415d444474)" d="M 285.180724 307.584 
L 287.904978 307.584 
L 287.904978 261.989117 
L 285.180724 261.989117 
z
" style="fill:#1f77b4;"/>
   </g>
   <g id="patch_72">
    <path clip-path="url(#p415d444474)" d="M 287.904978 307.584 
L 290.629228 307.584 
L 290.629228 263.81285 
L 287.904978 263.81285 
z
" style="fill:#1f77b4;"/>
   </g>
   <g id="patch_73">
    <path clip-path="url(#p415d444474)" d="M 290.629228 307.584 
L 293.353481 307.584 
L 293.353481 263.812912 
L 290.629228 263.812912 
z
" style="fill:#1f77b4;"/>
   </g>
   <g id="patch_74">
    <path clip-path="url(#p415d444474)" d="M 293.353477 307.584 
L 296.077727 307.584 
L 296.077727 265.115563 
L 293.353477 265.115563 
z
" style="fill:#1f77b4;"/>
   </g>
   <g id="patch_75">
    <path clip-path="url(#p415d444474)" d="M 296.077731 307.584 
L 298.801981 307.584 
L 298.801981 266.678818 
L 296.077731 266.678818 
z
" style="fill:#1f77b4;"/>
   </g>
   <g id="patch_76">
    <path clip-path="url(#p415d444474)" d="M 298.801977 307.584 
L 301.526231 307.584 
L 301.526231 270.065872 
L 298.801977 270.065872 
z
" style="fill:#1f77b4;"/>
   </g>
   <g id="patch_77">
    <path clip-path="url(#p415d444474)" d="M 301.526231 307.584 
L 304.250485 307.584 
L 304.250485 267.721045 
L 301.526231 267.721045 
z
" style="fill:#1f77b4;"/>
   </g>
   <g id="patch_78">
    <path clip-path="url(#p415d444474)" d="M 304.250485 307.584 
L 306.974738 307.584 
L 306.974738 269.805383 
L 304.250485 269.805383 
z
" style="fill:#1f77b4;"/>
   </g>
   <g id="patch_79">
    <path clip-path="url(#p415d444474)" d="M 306.974738 307.584 
L 309.698984 307.584 
L 309.698984 266.157674 
L 306.974738 266.157674 
z
" style="fill:#1f77b4;"/>
   </g>
   <g id="patch_80">
    <path clip-path="url(#p415d444474)" d="M 309.698984 307.584 
L 312.423238 307.584 
L 312.423238 273.974058 
L 309.698984 273.974058 
z
" style="fill:#1f77b4;"/>
   </g>
   <g id="patch_81">
    <path clip-path="url(#p415d444474)" d="M 312.423238 307.584 
L 315.147492 307.584 
L 315.147492 277.621648 
L 312.423238 277.621648 
z
" style="fill:#1f77b4;"/>
   </g>
   <g id="patch_82">
    <path clip-path="url(#p415d444474)" d="M 315.147484 307.584 
L 317.87173 307.584 
L 317.87173 282.050793 
L 315.147484 282.050793 
z
" style="fill:#1f77b4;"/>
   </g>
   <g id="patch_83">
    <path clip-path="url(#p415d444474)" d="M 317.871738 307.584 
L 320.595992 307.584 
L 320.595992 284.395745 
L 317.871738 284.395745 
z
" style="fill:#1f77b4;"/>
   </g>
   <g id="patch_84">
    <path clip-path="url(#p415d444474)" d="M 320.595992 307.584 
L 323.320246 307.584 
L 323.320246 283.614119 
L 320.595992 283.614119 
z
" style="fill:#1f77b4;"/>
   </g>
   <g id="patch_85">
    <path clip-path="url(#p415d444474)" d="M 323.320246 307.584 
L 326.044492 307.584 
L 326.044492 279.184821 
L 323.320246 279.184821 
z
" style="fill:#1f77b4;"/>
   </g>
   <g id="patch_86">
    <path clip-path="url(#p415d444474)" d="M 326.044492 307.584 
L 328.768745 307.584 
L 328.768745 280.487612 
L 326.044492 280.487612 
z
" style="fill:#1f77b4;"/>
   </g>
   <g id="patch_87">
    <path clip-path="url(#p415d444474)" d="M 328.768745 307.584 
L 331.492999 307.584 
L 331.492999 284.135203 
L 328.768745 284.135203 
z
" style="fill:#1f77b4;"/>
   </g>
   <g id="patch_88">
    <path clip-path="url(#p415d444474)" d="M 331.492991 307.584 
L 334.217237 307.584 
L 334.217237 282.571879 
L 331.492991 282.571879 
z
" style="fill:#1f77b4;"/>
   </g>
   <g id="patch_89">
    <path clip-path="url(#p415d444474)" d="M 334.217245 307.584 
L 336.941499 307.584 
L 336.941499 291.690927 
L 334.217245 291.690927 
z
" style="fill:#1f77b4;"/>
   </g>
   <g id="patch_90">
    <path clip-path="url(#p415d444474)" d="M 336.941499 307.584 
L 339.665753 307.584 
L 339.665753 289.606589 
L 336.941499 289.606589 
z
" style="fill:#1f77b4;"/>
   </g>
   <g id="patch_91">
    <path clip-path="url(#p415d444474)" d="M 339.665753 307.584 
L 342.390006 307.584 
L 342.390006 288.303878 
L 339.665753 288.303878 
z
" style="fill:#1f77b4;"/>
   </g>
   <g id="patch_92">
    <path clip-path="url(#p415d444474)" d="M 342.390006 307.584 
L 345.114252 307.584 
L 345.114252 286.740566 
L 342.390006 286.740566 
z
" style="fill:#1f77b4;"/>
   </g>
   <g id="patch_93">
    <path clip-path="url(#p415d444474)" d="M 345.114252 307.584 
L 347.838506 307.584 
L 347.838506 284.656287 
L 345.114252 284.656287 
z
" style="fill:#1f77b4;"/>
   </g>
   <g id="patch_94">
    <path clip-path="url(#p415d444474)" d="M 347.838506 307.584 
L 350.56276 307.584 
L 350.56276 284.91683 
L 347.838506 284.91683 
z
" style="fill:#1f77b4;"/>
   </g>
   <g id="patch_95">
    <path clip-path="url(#p415d444474)" d="M 350.562752 307.584 
L 353.286998 307.584 
L 353.286998 285.437851 
L 350.562752 285.437851 
z
" style="fill:#1f77b4;"/>
   </g>
   <g id="patch_96">
    <path clip-path="url(#p415d444474)" d="M 353.287006 307.584 
L 356.01126 307.584 
L 356.01126 281.529781 
L 353.287006 281.529781 
z
" style="fill:#1f77b4;"/>
   </g>
   <g id="patch_97">
    <path clip-path="url(#p415d444474)" d="M 356.01126 307.584 
L 358.735513 307.584 
L 358.735513 283.093034 
L 356.01126 283.093034 
z
" style="fill:#1f77b4;"/>
   </g>
   <g id="patch_98">
    <path clip-path="url(#p415d444474)" d="M 358.735513 307.584 
L 361.459759 307.584 
L 361.459759 288.04328 
L 358.735513 288.04328 
z
" style="fill:#1f77b4;"/>
   </g>
   <g id="patch_99">
    <path clip-path="url(#p415d444474)" d="M 361.459759 307.584 
L 364.184013 307.584 
L 364.184013 292.733095 
L 361.459759 292.733095 
z
" style="fill:#1f77b4;"/>
   </g>
   <g id="patch_100">
    <path clip-path="url(#p415d444474)" d="M 364.184005 307.584 
L 366.908259 307.584 
L 366.908259 293.254139 
L 364.184005 293.254139 
z
" style="fill:#1f77b4;"/>
   </g>
   <g id="patch_101">
    <path clip-path="url(#p415d444474)" d="M 366.908259 307.584 
L 369.632513 307.584 
L 369.632513 295.599059 
L 366.908259 295.599059 
z
" style="fill:#1f77b4;"/>
   </g>
   <g id="patch_102">
    <path clip-path="url(#p415d444474)" d="M 369.632513 307.584 
L 372.356767 307.584 
L 372.356767 295.077975 
L 369.632513 295.077975 
z
" style="fill:#1f77b4;"/>
   </g>
   <g id="matplotlib.axis_1">
    <g id="xtick_1">
     <g id="line2d_1">
      <defs>
       <path d="M 0 0 
L 0 3.5 
" id="mbc53125342" style="stroke:#000000;stroke-width:0.8;"/>
      </defs>
      <g>
       <use style="stroke:#000000;stroke-width:0.8;" x="106.299109" xlink:href="#mbc53125342" y="307.584"/>
      </g>
     </g>
     <g id="text_1">
      <!-- −2 -->
      <defs>
       <path d="M 10.59375 35.5 
L 73.1875 35.5 
L 73.1875 27.203125 
L 10.59375 27.203125 
z
" id="DejaVuSans-8722"/>
       <path d="M 19.1875 8.296875 
L 53.609375 8.296875 
L 53.609375 0 
L 7.328125 0 
L 7.328125 8.296875 
Q 12.9375 14.109375 22.625 23.890625 
Q 32.328125 33.6875 34.8125 36.53125 
Q 39.546875 41.84375 41.421875 45.53125 
Q 43.3125 49.21875 43.3125 52.78125 
Q 43.3125 58.59375 39.234375 62.25 
Q 35.15625 65.921875 28.609375 65.921875 
Q 23.96875 65.921875 18.8125 64.3125 
Q 13.671875 62.703125 7.8125 59.421875 
L 7.8125 69.390625 
Q 13.765625 71.78125 18.9375 73 
Q 24.125 74.21875 28.421875 74.21875 
Q 39.75 74.21875 46.484375 68.546875 
Q 53.21875 62.890625 53.21875 53.421875 
Q 53.21875 48.921875 51.53125 44.890625 
Q 49.859375 40.875 45.40625 35.40625 
Q 44.1875 33.984375 37.640625 27.21875 
Q 31.109375 20.453125 19.1875 8.296875 
z
" id="DejaVuSans-50"/>
      </defs>
      <g transform="translate(93.76825 327.501344)scale(0.17 -0.17)">
       <use xlink:href="#DejaVuSans-8722"/>
       <use x="83.789062" xlink:href="#DejaVuSans-50"/>
      </g>
     </g>
    </g>
    <g id="xtick_2">
     <g id="line2d_2">
      <g>
       <use style="stroke:#000000;stroke-width:0.8;" x="171.231874" xlink:href="#mbc53125342" y="307.584"/>
      </g>
     </g>
     <g id="text_2">
      <!-- −1 -->
      <defs>
       <path d="M 12.40625 8.296875 
L 28.515625 8.296875 
L 28.515625 63.921875 
L 10.984375 60.40625 
L 10.984375 69.390625 
L 28.421875 72.90625 
L 38.28125 72.90625 
L 38.28125 8.296875 
L 54.390625 8.296875 
L 54.390625 0 
L 12.40625 0 
z
" id="DejaVuSans-49"/>
      </defs>
      <g transform="translate(158.701014 327.501344)scale(0.17 -0.17)">
       <use xlink:href="#DejaVuSans-8722"/>
       <use x="83.789062" xlink:href="#DejaVuSans-49"/>
      </g>
     </g>
    </g>
    <g id="xtick_3">
     <g id="line2d_3">
      <g>
       <use style="stroke:#000000;stroke-width:0.8;" x="236.164638" xlink:href="#mbc53125342" y="307.584"/>
      </g>
     </g>
     <g id="text_3">
      <!-- 0 -->
      <defs>
       <path d="M 31.78125 66.40625 
Q 24.171875 66.40625 20.328125 58.90625 
Q 16.5 51.421875 16.5 36.375 
Q 16.5 21.390625 20.328125 13.890625 
Q 24.171875 6.390625 31.78125 6.390625 
Q 39.453125 6.390625 43.28125 13.890625 
Q 47.125 21.390625 47.125 36.375 
Q 47.125 51.421875 43.28125 58.90625 
Q 39.453125 66.40625 31.78125 66.40625 
z
M 31.78125 74.21875 
Q 44.046875 74.21875 50.515625 64.515625 
Q 56.984375 54.828125 56.984375 36.375 
Q 56.984375 17.96875 50.515625 8.265625 
Q 44.046875 -1.421875 31.78125 -1.421875 
Q 19.53125 -1.421875 13.0625 8.265625 
Q 6.59375 17.96875 6.59375 36.375 
Q 6.59375 54.828125 13.0625 64.515625 
Q 19.53125 74.21875 31.78125 74.21875 
z
" id="DejaVuSans-48"/>
      </defs>
      <g transform="translate(230.756513 327.501344)scale(0.17 -0.17)">
       <use xlink:href="#DejaVuSans-48"/>
      </g>
     </g>
    </g>
    <g id="xtick_4">
     <g id="line2d_4">
      <g>
       <use style="stroke:#000000;stroke-width:0.8;" x="301.097402" xlink:href="#mbc53125342" y="307.584"/>
      </g>
     </g>
     <g id="text_4">
      <!-- 1 -->
      <g transform="translate(295.689277 327.501344)scale(0.17 -0.17)">
       <use xlink:href="#DejaVuSans-49"/>
      </g>
     </g>
    </g>
    <g id="xtick_5">
     <g id="line2d_5">
      <g>
       <use style="stroke:#000000;stroke-width:0.8;" x="366.030167" xlink:href="#mbc53125342" y="307.584"/>
      </g>
     </g>
     <g id="text_5">
      <!-- 2 -->
      <g transform="translate(360.622042 327.501344)scale(0.17 -0.17)">
       <use xlink:href="#DejaVuSans-50"/>
      </g>
     </g>
    </g>
    <g id="text_6">
     <!-- Position in Radian -->
     <defs>
      <path d="M 19.671875 64.796875 
L 19.671875 37.40625 
L 32.078125 37.40625 
Q 38.96875 37.40625 42.71875 40.96875 
Q 46.484375 44.53125 46.484375 51.125 
Q 46.484375 57.671875 42.71875 61.234375 
Q 38.96875 64.796875 32.078125 64.796875 
z
M 9.8125 72.90625 
L 32.078125 72.90625 
Q 44.34375 72.90625 50.609375 67.359375 
Q 56.890625 61.8125 56.890625 51.125 
Q 56.890625 40.328125 50.609375 34.8125 
Q 44.34375 29.296875 32.078125 29.296875 
L 19.671875 29.296875 
L 19.671875 0 
L 9.8125 0 
z
" id="DejaVuSans-80"/>
      <path d="M 30.609375 48.390625 
Q 23.390625 48.390625 19.1875 42.75 
Q 14.984375 37.109375 14.984375 27.296875 
Q 14.984375 17.484375 19.15625 11.84375 
Q 23.34375 6.203125 30.609375 6.203125 
Q 37.796875 6.203125 41.984375 11.859375 
Q 46.1875 17.53125 46.1875 27.296875 
Q 46.1875 37.015625 41.984375 42.703125 
Q 37.796875 48.390625 30.609375 48.390625 
z
M 30.609375 56 
Q 42.328125 56 49.015625 48.375 
Q 55.71875 40.765625 55.71875 27.296875 
Q 55.71875 13.875 49.015625 6.21875 
Q 42.328125 -1.421875 30.609375 -1.421875 
Q 18.84375 -1.421875 12.171875 6.21875 
Q 5.515625 13.875 5.515625 27.296875 
Q 5.515625 40.765625 12.171875 48.375 
Q 18.84375 56 30.609375 56 
z
" id="DejaVuSans-111"/>
      <path d="M 44.28125 53.078125 
L 44.28125 44.578125 
Q 40.484375 46.53125 36.375 47.5 
Q 32.28125 48.484375 27.875 48.484375 
Q 21.1875 48.484375 17.84375 46.4375 
Q 14.5 44.390625 14.5 40.28125 
Q 14.5 37.15625 16.890625 35.375 
Q 19.28125 33.59375 26.515625 31.984375 
L 29.59375 31.296875 
Q 39.15625 29.25 43.1875 25.515625 
Q 47.21875 21.78125 47.21875 15.09375 
Q 47.21875 7.46875 41.1875 3.015625 
Q 35.15625 -1.421875 24.609375 -1.421875 
Q 20.21875 -1.421875 15.453125 -0.5625 
Q 10.6875 0.296875 5.421875 2 
L 5.421875 11.28125 
Q 10.40625 8.6875 15.234375 7.390625 
Q 20.0625 6.109375 24.8125 6.109375 
Q 31.15625 6.109375 34.5625 8.28125 
Q 37.984375 10.453125 37.984375 14.40625 
Q 37.984375 18.0625 35.515625 20.015625 
Q 33.0625 21.96875 24.703125 23.78125 
L 21.578125 24.515625 
Q 13.234375 26.265625 9.515625 29.90625 
Q 5.8125 33.546875 5.8125 39.890625 
Q 5.8125 47.609375 11.28125 51.796875 
Q 16.75 56 26.8125 56 
Q 31.78125 56 36.171875 55.265625 
Q 40.578125 54.546875 44.28125 53.078125 
z
" id="DejaVuSans-115"/>
      <path d="M 9.421875 54.6875 
L 18.40625 54.6875 
L 18.40625 0 
L 9.421875 0 
z
M 9.421875 75.984375 
L 18.40625 75.984375 
L 18.40625 64.59375 
L 9.421875 64.59375 
z
" id="DejaVuSans-105"/>
      <path d="M 18.3125 70.21875 
L 18.3125 54.6875 
L 36.8125 54.6875 
L 36.8125 47.703125 
L 18.3125 47.703125 
L 18.3125 18.015625 
Q 18.3125 11.328125 20.140625 9.421875 
Q 21.96875 7.515625 27.59375 7.515625 
L 36.8125 7.515625 
L 36.8125 0 
L 27.59375 0 
Q 17.1875 0 13.234375 3.875 
Q 9.28125 7.765625 9.28125 18.015625 
L 9.28125 47.703125 
L 2.6875 47.703125 
L 2.6875 54.6875 
L 9.28125 54.6875 
L 9.28125 70.21875 
z
" id="DejaVuSans-116"/>
      <path d="M 54.890625 33.015625 
L 54.890625 0 
L 45.90625 0 
L 45.90625 32.71875 
Q 45.90625 40.484375 42.875 44.328125 
Q 39.84375 48.1875 33.796875 48.1875 
Q 26.515625 48.1875 22.3125 43.546875 
Q 18.109375 38.921875 18.109375 30.90625 
L 18.109375 0 
L 9.078125 0 
L 9.078125 54.6875 
L 18.109375 54.6875 
L 18.109375 46.1875 
Q 21.34375 51.125 25.703125 53.5625 
Q 30.078125 56 35.796875 56 
Q 45.21875 56 50.046875 50.171875 
Q 54.890625 44.34375 54.890625 33.015625 
z
" id="DejaVuSans-110"/>
      <path id="DejaVuSans-32"/>
      <path d="M 44.390625 34.1875 
Q 47.5625 33.109375 50.5625 29.59375 
Q 53.5625 26.078125 56.59375 19.921875 
L 66.609375 0 
L 56 0 
L 46.6875 18.703125 
Q 43.0625 26.03125 39.671875 28.421875 
Q 36.28125 30.8125 30.421875 30.8125 
L 19.671875 30.8125 
L 19.671875 0 
L 9.8125 0 
L 9.8125 72.90625 
L 32.078125 72.90625 
Q 44.578125 72.90625 50.734375 67.671875 
Q 56.890625 62.453125 56.890625 51.90625 
Q 56.890625 45.015625 53.6875 40.46875 
Q 50.484375 35.9375 44.390625 34.1875 
z
M 19.671875 64.796875 
L 19.671875 38.921875 
L 32.078125 38.921875 
Q 39.203125 38.921875 42.84375 42.21875 
Q 46.484375 45.515625 46.484375 51.90625 
Q 46.484375 58.296875 42.84375 61.546875 
Q 39.203125 64.796875 32.078125 64.796875 
z
" id="DejaVuSans-82"/>
      <path d="M 34.28125 27.484375 
Q 23.390625 27.484375 19.1875 25 
Q 14.984375 22.515625 14.984375 16.5 
Q 14.984375 11.71875 18.140625 8.90625 
Q 21.296875 6.109375 26.703125 6.109375 
Q 34.1875 6.109375 38.703125 11.40625 
Q 43.21875 16.703125 43.21875 25.484375 
L 43.21875 27.484375 
z
M 52.203125 31.203125 
L 52.203125 0 
L 43.21875 0 
L 43.21875 8.296875 
Q 40.140625 3.328125 35.546875 0.953125 
Q 30.953125 -1.421875 24.3125 -1.421875 
Q 15.921875 -1.421875 10.953125 3.296875 
Q 6 8.015625 6 15.921875 
Q 6 25.140625 12.171875 29.828125 
Q 18.359375 34.515625 30.609375 34.515625 
L 43.21875 34.515625 
L 43.21875 35.40625 
Q 43.21875 41.609375 39.140625 45 
Q 35.0625 48.390625 27.6875 48.390625 
Q 23 48.390625 18.546875 47.265625 
Q 14.109375 46.140625 10.015625 43.890625 
L 10.015625 52.203125 
Q 14.9375 54.109375 19.578125 55.046875 
Q 24.21875 56 28.609375 56 
Q 40.484375 56 46.34375 49.84375 
Q 52.203125 43.703125 52.203125 31.203125 
z
" id="DejaVuSans-97"/>
      <path d="M 45.40625 46.390625 
L 45.40625 75.984375 
L 54.390625 75.984375 
L 54.390625 0 
L 45.40625 0 
L 45.40625 8.203125 
Q 42.578125 3.328125 38.25 0.953125 
Q 33.9375 -1.421875 27.875 -1.421875 
Q 17.96875 -1.421875 11.734375 6.484375 
Q 5.515625 14.40625 5.515625 27.296875 
Q 5.515625 40.1875 11.734375 48.09375 
Q 17.96875 56 27.875 56 
Q 33.9375 56 38.25 53.625 
Q 42.578125 51.265625 45.40625 46.390625 
z
M 14.796875 27.296875 
Q 14.796875 17.390625 18.875 11.75 
Q 22.953125 6.109375 30.078125 6.109375 
Q 37.203125 6.109375 41.296875 11.75 
Q 45.40625 17.390625 45.40625 27.296875 
Q 45.40625 37.203125 41.296875 42.84375 
Q 37.203125 48.484375 30.078125 48.484375 
Q 22.953125 48.484375 18.875 42.84375 
Q 14.796875 37.203125 14.796875 27.296875 
z
" id="DejaVuSans-100"/>
     </defs>
     <g transform="translate(102.024844 357.832125)scale(0.3 -0.3)">
      <use xlink:href="#DejaVuSans-80"/>
      <use x="60.255859" xlink:href="#DejaVuSans-111"/>
      <use x="121.4375" xlink:href="#DejaVuSans-115"/>
      <use x="173.537109" xlink:href="#DejaVuSans-105"/>
      <use x="201.320312" xlink:href="#DejaVuSans-116"/>
      <use x="240.529297" xlink:href="#DejaVuSans-105"/>
      <use x="268.3125" xlink:href="#DejaVuSans-111"/>
      <use x="329.494141" xlink:href="#DejaVuSans-110"/>
      <use x="392.873047" xlink:href="#DejaVuSans-32"/>
      <use x="424.660156" xlink:href="#DejaVuSans-105"/>
      <use x="452.443359" xlink:href="#DejaVuSans-110"/>
      <use x="515.822266" xlink:href="#DejaVuSans-32"/>
      <use x="547.609375" xlink:href="#DejaVuSans-82"/>
      <use x="617.060547" xlink:href="#DejaVuSans-97"/>
      <use x="678.339844" xlink:href="#DejaVuSans-100"/>
      <use x="741.816406" xlink:href="#DejaVuSans-105"/>
      <use x="769.599609" xlink:href="#DejaVuSans-97"/>
      <use x="830.878906" xlink:href="#DejaVuSans-110"/>
     </g>
    </g>
   </g>
   <g id="matplotlib.axis_2">
    <g id="ytick_1">
     <g id="line2d_6">
      <defs>
       <path d="M 0 0 
L -3.5 0 
" id="mfd88560f4a" style="stroke:#000000;stroke-width:0.8;"/>
      </defs>
      <g>
       <use style="stroke:#000000;stroke-width:0.8;" x="57.6" xlink:href="#mfd88560f4a" y="307.584"/>
      </g>
     </g>
     <g id="text_7">
      <!-- 0.0 -->
      <defs>
       <path d="M 10.6875 12.40625 
L 21 12.40625 
L 21 0 
L 10.6875 0 
z
" id="DejaVuSans-46"/>
      </defs>
      <g transform="translate(23.564687 314.042672)scale(0.17 -0.17)">
       <use xlink:href="#DejaVuSans-48"/>
       <use x="63.623047" xlink:href="#DejaVuSans-46"/>
       <use x="95.410156" xlink:href="#DejaVuSans-48"/>
      </g>
     </g>
    </g>
    <g id="ytick_2">
     <g id="line2d_7">
      <g>
       <use style="stroke:#000000;stroke-width:0.8;" x="57.6" xlink:href="#mfd88560f4a" y="269.325339"/>
      </g>
     </g>
     <g id="text_8">
      <!-- 0.2 -->
      <g transform="translate(23.564687 275.784011)scale(0.17 -0.17)">
       <use xlink:href="#DejaVuSans-48"/>
       <use x="63.623047" xlink:href="#DejaVuSans-46"/>
       <use x="95.410156" xlink:href="#DejaVuSans-50"/>
      </g>
     </g>
    </g>
    <g id="ytick_3">
     <g id="line2d_8">
      <g>
       <use style="stroke:#000000;stroke-width:0.8;" x="57.6" xlink:href="#mfd88560f4a" y="231.066678"/>
      </g>
     </g>
     <g id="text_9">
      <!-- 0.4 -->
      <defs>
       <path d="M 37.796875 64.3125 
L 12.890625 25.390625 
L 37.796875 25.390625 
z
M 35.203125 72.90625 
L 47.609375 72.90625 
L 47.609375 25.390625 
L 58.015625 25.390625 
L 58.015625 17.1875 
L 47.609375 17.1875 
L 47.609375 0 
L 37.796875 0 
L 37.796875 17.1875 
L 4.890625 17.1875 
L 4.890625 26.703125 
z
" id="DejaVuSans-52"/>
      </defs>
      <g transform="translate(23.564687 237.52535)scale(0.17 -0.17)">
       <use xlink:href="#DejaVuSans-48"/>
       <use x="63.623047" xlink:href="#DejaVuSans-46"/>
       <use x="95.410156" xlink:href="#DejaVuSans-52"/>
      </g>
     </g>
    </g>
    <g id="ytick_4">
     <g id="line2d_9">
      <g>
       <use style="stroke:#000000;stroke-width:0.8;" x="57.6" xlink:href="#mfd88560f4a" y="192.808017"/>
      </g>
     </g>
     <g id="text_10">
      <!-- 0.6 -->
      <defs>
       <path d="M 33.015625 40.375 
Q 26.375 40.375 22.484375 35.828125 
Q 18.609375 31.296875 18.609375 23.390625 
Q 18.609375 15.53125 22.484375 10.953125 
Q 26.375 6.390625 33.015625 6.390625 
Q 39.65625 6.390625 43.53125 10.953125 
Q 47.40625 15.53125 47.40625 23.390625 
Q 47.40625 31.296875 43.53125 35.828125 
Q 39.65625 40.375 33.015625 40.375 
z
M 52.59375 71.296875 
L 52.59375 62.3125 
Q 48.875 64.0625 45.09375 64.984375 
Q 41.3125 65.921875 37.59375 65.921875 
Q 27.828125 65.921875 22.671875 59.328125 
Q 17.53125 52.734375 16.796875 39.40625 
Q 19.671875 43.65625 24.015625 45.921875 
Q 28.375 48.1875 33.59375 48.1875 
Q 44.578125 48.1875 50.953125 41.515625 
Q 57.328125 34.859375 57.328125 23.390625 
Q 57.328125 12.15625 50.6875 5.359375 
Q 44.046875 -1.421875 33.015625 -1.421875 
Q 20.359375 -1.421875 13.671875 8.265625 
Q 6.984375 17.96875 6.984375 36.375 
Q 6.984375 53.65625 15.1875 63.9375 
Q 23.390625 74.21875 37.203125 74.21875 
Q 40.921875 74.21875 44.703125 73.484375 
Q 48.484375 72.75 52.59375 71.296875 
z
" id="DejaVuSans-54"/>
      </defs>
      <g transform="translate(23.564687 199.266689)scale(0.17 -0.17)">
       <use xlink:href="#DejaVuSans-48"/>
       <use x="63.623047" xlink:href="#DejaVuSans-46"/>
       <use x="95.410156" xlink:href="#DejaVuSans-54"/>
      </g>
     </g>
    </g>
    <g id="ytick_5">
     <g id="line2d_10">
      <g>
       <use style="stroke:#000000;stroke-width:0.8;" x="57.6" xlink:href="#mfd88560f4a" y="154.549356"/>
      </g>
     </g>
     <g id="text_11">
      <!-- 0.8 -->
      <defs>
       <path d="M 31.78125 34.625 
Q 24.75 34.625 20.71875 30.859375 
Q 16.703125 27.09375 16.703125 20.515625 
Q 16.703125 13.921875 20.71875 10.15625 
Q 24.75 6.390625 31.78125 6.390625 
Q 38.8125 6.390625 42.859375 10.171875 
Q 46.921875 13.96875 46.921875 20.515625 
Q 46.921875 27.09375 42.890625 30.859375 
Q 38.875 34.625 31.78125 34.625 
z
M 21.921875 38.8125 
Q 15.578125 40.375 12.03125 44.71875 
Q 8.5 49.078125 8.5 55.328125 
Q 8.5 64.0625 14.71875 69.140625 
Q 20.953125 74.21875 31.78125 74.21875 
Q 42.671875 74.21875 48.875 69.140625 
Q 55.078125 64.0625 55.078125 55.328125 
Q 55.078125 49.078125 51.53125 44.71875 
Q 48 40.375 41.703125 38.8125 
Q 48.828125 37.15625 52.796875 32.3125 
Q 56.78125 27.484375 56.78125 20.515625 
Q 56.78125 9.90625 50.3125 4.234375 
Q 43.84375 -1.421875 31.78125 -1.421875 
Q 19.734375 -1.421875 13.25 4.234375 
Q 6.78125 9.90625 6.78125 20.515625 
Q 6.78125 27.484375 10.78125 32.3125 
Q 14.796875 37.15625 21.921875 38.8125 
z
M 18.3125 54.390625 
Q 18.3125 48.734375 21.84375 45.5625 
Q 25.390625 42.390625 31.78125 42.390625 
Q 38.140625 42.390625 41.71875 45.5625 
Q 45.3125 48.734375 45.3125 54.390625 
Q 45.3125 60.0625 41.71875 63.234375 
Q 38.140625 66.40625 31.78125 66.40625 
Q 25.390625 66.40625 21.84375 63.234375 
Q 18.3125 60.0625 18.3125 54.390625 
z
" id="DejaVuSans-56"/>
      </defs>
      <g transform="translate(23.564687 161.008028)scale(0.17 -0.17)">
       <use xlink:href="#DejaVuSans-48"/>
       <use x="63.623047" xlink:href="#DejaVuSans-46"/>
       <use x="95.410156" xlink:href="#DejaVuSans-56"/>
      </g>
     </g>
    </g>
    <g id="ytick_6">
     <g id="line2d_11">
      <g>
       <use style="stroke:#000000;stroke-width:0.8;" x="57.6" xlink:href="#mfd88560f4a" y="116.290695"/>
      </g>
     </g>
     <g id="text_12">
      <!-- 1.0 -->
      <g transform="translate(23.564687 122.749367)scale(0.17 -0.17)">
       <use xlink:href="#DejaVuSans-49"/>
       <use x="63.623047" xlink:href="#DejaVuSans-46"/>
       <use x="95.410156" xlink:href="#DejaVuSans-48"/>
      </g>
     </g>
    </g>
    <g id="ytick_7">
     <g id="line2d_12">
      <g>
       <use style="stroke:#000000;stroke-width:0.8;" x="57.6" xlink:href="#mfd88560f4a" y="78.032034"/>
      </g>
     </g>
     <g id="text_13">
      <!-- 1.2 -->
      <g transform="translate(23.564687 84.490706)scale(0.17 -0.17)">
       <use xlink:href="#DejaVuSans-49"/>
       <use x="63.623047" xlink:href="#DejaVuSans-46"/>
       <use x="95.410156" xlink:href="#DejaVuSans-50"/>
      </g>
     </g>
    </g>
    <g id="text_14">
     <!-- Density -->
     <defs>
      <path d="M 19.671875 64.796875 
L 19.671875 8.109375 
L 31.59375 8.109375 
Q 46.6875 8.109375 53.6875 14.9375 
Q 60.6875 21.78125 60.6875 36.53125 
Q 60.6875 51.171875 53.6875 57.984375 
Q 46.6875 64.796875 31.59375 64.796875 
z
M 9.8125 72.90625 
L 30.078125 72.90625 
Q 51.265625 72.90625 61.171875 64.09375 
Q 71.09375 55.28125 71.09375 36.53125 
Q 71.09375 17.671875 61.125 8.828125 
Q 51.171875 0 30.078125 0 
L 9.8125 0 
z
" id="DejaVuSans-68"/>
      <path d="M 56.203125 29.59375 
L 56.203125 25.203125 
L 14.890625 25.203125 
Q 15.484375 15.921875 20.484375 11.0625 
Q 25.484375 6.203125 34.421875 6.203125 
Q 39.59375 6.203125 44.453125 7.46875 
Q 49.3125 8.734375 54.109375 11.28125 
L 54.109375 2.78125 
Q 49.265625 0.734375 44.1875 -0.34375 
Q 39.109375 -1.421875 33.890625 -1.421875 
Q 20.796875 -1.421875 13.15625 6.1875 
Q 5.515625 13.8125 5.515625 26.8125 
Q 5.515625 40.234375 12.765625 48.109375 
Q 20.015625 56 32.328125 56 
Q 43.359375 56 49.78125 48.890625 
Q 56.203125 41.796875 56.203125 29.59375 
z
M 47.21875 32.234375 
Q 47.125 39.59375 43.09375 43.984375 
Q 39.0625 48.390625 32.421875 48.390625 
Q 24.90625 48.390625 20.390625 44.140625 
Q 15.875 39.890625 15.1875 32.171875 
z
" id="DejaVuSans-101"/>
      <path d="M 32.171875 -5.078125 
Q 28.375 -14.84375 24.75 -17.8125 
Q 21.140625 -20.796875 15.09375 -20.796875 
L 7.90625 -20.796875 
L 7.90625 -13.28125 
L 13.1875 -13.28125 
Q 16.890625 -13.28125 18.9375 -11.515625 
Q 21 -9.765625 23.484375 -3.21875 
L 25.09375 0.875 
L 2.984375 54.6875 
L 12.5 54.6875 
L 29.59375 11.921875 
L 46.6875 54.6875 
L 56.203125 54.6875 
z
" id="DejaVuSans-121"/>
     </defs>
     <g transform="translate(13.325625 231.553781)rotate(-90)scale(0.3 -0.3)">
      <use xlink:href="#DejaVuSans-68"/>
      <use x="77.001953" xlink:href="#DejaVuSans-101"/>
      <use x="138.525391" xlink:href="#DejaVuSans-110"/>
      <use x="201.904297" xlink:href="#DejaVuSans-115"/>
      <use x="254.003906" xlink:href="#DejaVuSans-105"/>
      <use x="281.787109" xlink:href="#DejaVuSans-116"/>
      <use x="320.996094" xlink:href="#DejaVuSans-121"/>
     </g>
    </g>
   </g>
   <g id="line2d_13">
    <path clip-path="url(#p415d444474)" d="M 73.832727 307.584 
L 98.052648 307.47557 
L 98.321656 307.207092 
L 98.553558 306.619088 
L 98.804013 305.265781 
L 99.091573 302.267035 
L 99.481169 295.404084 
L 100.149049 283.797402 
L 100.353123 282.964392 
L 100.3624 282.966136 
L 100.445885 283.126567 
L 100.612854 284.135074 
L 100.974623 288.126938 
L 101.568294 293.9951 
L 101.985719 296.064676 
L 102.347487 296.903522 
L 102.588666 297.028035 
L 102.79274 296.875438 
L 103.12668 296.277113 
L 103.850217 294.999574 
L 104.276918 294.209219 
L 104.647962 292.938673 
L 105.501364 289.827788 
L 105.742543 289.654062 
L 105.965169 289.772115 
L 106.493908 290.432283 
L 107.208168 291.138414 
L 107.699802 291.361327 
L 109.035562 291.504917 
L 109.286017 291.079414 
L 109.619957 289.993719 
L 110.890783 285.297493 
L 111.085582 285.317486 
L 111.382417 285.645684 
L 111.772014 285.976657 
L 111.966812 285.871942 
L 112.207991 285.421298 
L 113.135602 283.321593 
L 113.144878 283.325716 
L 113.3304 283.538518 
L 113.970452 284.459762 
L 113.979728 284.454241 
L 114.146698 284.204765 
L 114.406429 283.310009 
L 115.129965 280.629261 
L 115.33404 280.550386 
L 115.565943 280.762172 
L 115.992644 281.120792 
L 116.205994 281.005709 
L 116.530658 280.502732 
L 117.226366 279.441672 
L 117.560306 279.302974 
L 117.847865 279.423233 
L 118.367327 279.97338 
L 118.691991 280.132805 
L 118.923894 279.996779 
L 119.341319 279.393769 
L 119.638154 279.168163 
L 119.805124 279.302789 
L 120.018475 279.828973 
L 120.361691 281.400476 
L 121.094504 284.801947 
L 121.391339 285.25962 
L 121.632518 285.28151 
L 121.929353 285.049828 
L 122.328226 284.425832 
L 123.830956 281.677153 
L 124.637977 281.057026 
L 125.03685 281.033983 
L 125.760387 281.047477 
L 126.187088 280.755125 
L 126.938452 280.208499 
L 127.161079 280.345251 
L 127.411534 280.822411 
L 127.773302 282.096951 
L 128.46901 284.557061 
L 128.691637 284.698787 
L 128.877159 284.53916 
L 129.359517 283.668723 
L 129.712009 283.312738 
L 130.30568 282.913591 
L 130.583963 282.222984 
L 131.437365 279.80341 
L 131.576507 279.932019 
L 131.780581 280.505425 
L 132.160902 282.407397 
L 132.717468 284.905902 
L 132.967923 285.239992 
L 133.134893 285.160559 
L 133.376072 284.728019 
L 134.118161 283.254281 
L 134.303683 283.296392 
L 134.535586 283.638162 
L 135.685823 285.76844 
L 135.917726 285.667331 
L 136.177457 285.269783 
L 136.502121 284.310562 
L 136.984479 282.063533 
L 137.643082 279.211758 
L 137.939918 278.738504 
L 138.190373 278.706342 
L 138.635626 278.699588 
L 138.923185 278.370471 
L 139.322058 277.973197 
L 139.479752 278.084819 
L 139.683826 278.574277 
L 139.999214 280.045039 
L 141.121623 285.887797 
L 141.325698 286.007586 
L 141.501944 285.834693 
L 141.835884 285.102584 
L 142.670734 283.278157 
L 142.986121 282.99905 
L 143.171643 283.100191 
L 143.403546 283.550509 
L 144.210568 285.373749 
L 144.423918 285.301382 
L 145.583432 284.5102 
L 145.824611 284.671996 
L 146.11217 285.191035 
L 146.668737 286.201721 
L 146.82643 286.129547 
L 147.030505 285.715028 
L 147.420101 284.276277 
L 148.431197 279.608655 
L 149.126906 276.153025 
L 149.303152 276.019034 
L 149.312428 276.024526 
L 149.451569 276.256515 
L 149.683472 277.201047 
L 150.870814 282.970447 
L 151.074888 282.999703 
L 151.306791 282.749417 
L 151.696388 281.929404 
L 152.846625 279.281432 
L 153.022871 279.369393 
L 153.26405 279.806761 
L 154.349355 282.181838 
L 154.636914 282.17655 
L 155.007959 281.915774 
L 155.416108 281.350051 
L 155.861361 280.314612 
L 156.826076 277.907081 
L 156.993046 277.984084 
L 157.215673 278.410719 
L 157.81862 279.649953 
L 157.967038 279.545228 
L 158.171112 279.046737 
L 158.616365 277.167203 
L 159.117275 275.461966 
L 159.553252 274.736929 
L 160.861184 273.256276 
L 161.491959 272.541886 
L 161.844451 271.690459 
L 162.271152 269.995536 
L 162.836995 266.713098 
L 163.402838 263.753738 
L 163.597636 263.527901 
L 163.606912 263.531994 
L 163.736778 263.733132 
L 163.950128 264.588617 
L 164.812806 268.583608 
L 164.961224 268.546841 
L 165.156022 268.174726 
L 165.545619 266.812711 
L 166.194946 264.689226 
L 166.426849 264.504963 
L 166.593819 264.651028 
L 166.834998 265.247032 
L 167.345184 267.311708 
L 167.808989 268.741323 
L 168.115101 269.076961 
L 169.154025 269.711743 
L 169.69204 270.115746 
L 169.942495 270.059867 
L 170.174397 269.759841 
L 170.461957 268.973863 
L 170.897934 267.001889 
L 171.686403 263.478558 
L 172.001791 262.947302 
L 172.24297 262.904789 
L 172.62329 263.136529 
L 173.597282 263.920463 
L 173.894117 264.945037 
L 174.942317 269.124065 
L 175.12784 269.09894 
L 175.406123 268.741676 
L 175.786443 268.36985 
L 175.999794 268.44874 
L 176.435771 268.963796 
L 176.797539 269.200233 
L 177.112927 269.151415 
L 177.372658 268.892009 
L 177.623113 268.27624 
L 177.938501 266.781036 
L 178.773351 262.462722 
L 178.986701 262.310939 
L 179.209328 262.468916 
L 179.56182 262.669583 
L 179.747342 262.498395 
L 180.007073 261.88269 
L 180.674953 259.482782 
L 181.185139 257.098714 
L 182.122026 252.222683 
L 182.242615 252.269458 
L 182.400309 252.68403 
L 182.678592 254.186802 
L 183.49489 258.857316 
L 184.264807 261.831302 
L 185.071829 265.939143 
L 185.248075 266.004046 
L 185.415045 265.732274 
L 185.739709 264.64009 
L 186.277723 262.992928 
L 186.518902 262.809379 
L 186.695148 262.946642 
L 186.92705 263.479596 
L 187.242438 264.838553 
L 187.743348 268.181776 
L 188.26281 271.185897 
L 188.457609 271.456068 
L 188.466885 271.452275 
L 188.587474 271.257045 
L 188.782272 270.37307 
L 189.09766 267.689539 
L 190.09948 258.459036 
L 190.349935 257.882077 
L 190.498353 257.91999 
L 190.730255 258.316347 
L 191.064195 258.765414 
L 191.194061 258.642749 
L 191.370307 258.078051 
L 191.64859 256.28961 
L 192.409231 251.078339 
L 192.548373 250.974036 
L 192.566925 250.987629 
L 192.69679 251.254308 
L 192.928693 252.358947 
L 193.874856 257.501212 
L 194.023274 257.510655 
L 194.180968 257.197582 
L 194.440699 256.075576 
L 195.117855 253.005734 
L 195.238444 253.020648 
L 195.24772 253.032077 
L 195.405414 253.437812 
L 195.720802 255.068119 
L 196.119675 256.738016 
L 196.240264 256.785284 
L 196.268092 256.757687 
L 196.407234 256.402574 
L 196.648413 255.015066 
L 197.242084 249.731172 
L 197.650233 247.271728 
L 197.900688 246.814372 
L 198.076934 246.856777 
L 199.023097 247.477169 
L 199.30138 247.716123 
L 199.663148 248.40147 
L 200.3032 249.562885 
L 200.600035 249.704483 
L 200.831938 249.576568 
L 201.100945 249.12478 
L 201.889415 247.544646 
L 201.907967 247.554391 
L 202.056385 247.776476 
L 202.279011 248.589966 
L 202.714988 251.267794 
L 203.141689 253.328283 
L 203.327212 253.505817 
L 203.336488 253.501117 
L 203.475629 253.283863 
L 203.716808 252.380419 
L 204.412516 249.599015 
L 204.598038 249.527951 
L 204.755732 249.755636 
L 205.006187 250.586901 
L 206.008007 254.40711 
L 206.174977 254.37833 
L 206.369775 254.03781 
L 206.657335 252.992728 
L 207.167521 250.092008 
L 207.631326 247.966457 
L 207.872505 247.655352 
L 208.058027 247.741503 
L 208.4569 247.959115 
L 208.614594 247.715764 
L 208.83722 246.881024 
L 209.226817 244.358261 
L 210.590405 235.072392 
L 211.703538 228.398177 
L 212.297209 224.851524 
L 212.538388 224.438245 
L 212.658977 224.543893 
L 212.835223 225.091039 
L 213.104231 226.812502 
L 213.540208 231.373689 
L 214.068946 236.260902 
L 214.245192 236.649691 
L 214.263744 236.642254 
L 214.365781 236.439157 
L 214.551304 235.437217 
L 215.015109 231.218918 
L 215.432534 228.51709 
L 215.831407 227.386247 
L 216.202451 226.122629 
L 216.759018 224.204002 
L 216.879607 224.257225 
L 217.028025 224.697095 
L 217.27848 226.308889 
L 218.066949 231.866974 
L 218.206091 231.953484 
L 218.224643 231.940063 
L 218.363785 231.672671 
L 218.623516 230.560132 
L 219.170806 226.985618 
L 219.857238 222.874962 
L 220.04276 222.633518 
L 220.052036 222.638516 
L 220.16335 222.838724 
L 220.348872 223.771079 
L 220.645707 226.678788 
L 221.37852 234.23156 
L 221.499109 234.415569 
L 221.536214 234.384099 
L 221.656803 234.002335 
L 221.870154 232.389998 
L 222.269026 227.294696 
L 223.335779 213.250759 
L 223.567682 212.434312 
L 223.660443 212.521447 
L 223.808861 213.146671 
L 224.068592 215.442074 
L 224.857061 223.030634 
L 224.949822 223.112089 
L 224.986926 223.069776 
L 225.107516 222.63681 
L 225.320866 220.860534 
L 226.517484 208.91595 
L 226.805044 208.372271 
L 226.962738 208.404814 
L 227.120432 208.740142 
L 227.343058 209.835922 
L 227.686274 212.870359 
L 228.586057 221.180607 
L 229.124071 223.786584 
L 229.467287 224.614604 
L 229.634257 224.62888 
L 229.810503 224.347073 
L 230.135167 223.284013 
L 230.654629 220.872008 
L 230.932912 218.254662 
L 231.266852 212.611208 
L 231.971837 200.3411 
L 232.148083 199.756211 
L 232.166635 199.766662 
L 232.259396 200.004355 
L 232.444918 201.258013 
L 232.825239 205.705941 
L 234.040409 220.667156 
L 234.08679 220.675709 
L 234.123894 220.607054 
L 234.235207 219.945058 
L 234.411453 217.188383 
L 234.63408 209.696942 
L 234.912363 191.632406 
L 235.264855 151.902967 
L 236.071877 55.462442 
L 236.155362 54.144 
L 236.201742 54.524772 
L 236.313056 58.634626 
L 236.51713 76.622076 
L 237.01804 148.071242 
L 237.481846 198.202013 
L 237.806509 213.609722 
L 238.038412 216.847742 
L 238.075517 216.902662 
L 238.131173 216.781837 
L 238.251763 215.777764 
L 238.492941 211.472923 
L 239.485485 191.593593 
L 239.819425 189.544805 
L 240.06988 189.039505 
L 240.190469 189.105589 
L 240.338887 189.533628 
L 240.552238 190.954732 
L 240.867625 194.845679 
L 242.092072 211.842996 
L 242.528049 214.56119 
L 242.824884 215.298796 
L 243.066063 215.399755 
L 243.427832 215.489049 
L 243.650458 215.86969 
L 243.965846 216.934106 
L 244.45748 219.469267 
L 244.902733 222.971978 
L 246.05297 233.115561 
L 246.145732 233.000039 
L 246.303425 232.274126 
L 246.563156 229.79579 
L 247.926745 214.613462 
L 248.631729 210.316676 
L 248.780147 210.15481 
L 248.807975 210.174448 
L 248.93784 210.476345 
L 249.169743 211.753418 
L 249.89328 216.086678 
L 250.134458 216.363862 
L 250.524055 216.614938 
L 250.746682 217.203375 
L 251.10845 218.928359 
L 251.896919 222.651932 
L 253.87273 229.331933 
L 254.011872 229.270173 
L 254.188118 228.854948 
L 254.49423 227.407509 
L 255.106453 224.579561 
L 256.015512 221.864097 
L 256.831809 218.033841 
L 257.008055 217.967192 
L 257.165749 218.21652 
L 257.434756 219.176191 
L 258.195397 222.09054 
L 258.408748 222.200705 
L 258.677755 222.020703 
L 258.909658 221.976684 
L 259.067352 222.221574 
L 259.271426 223.046923 
L 259.558985 225.288234 
L 260.783432 236.234257 
L 261.729595 239.970673 
L 262.462408 244.011171 
L 262.666482 244.198704 
L 262.842728 244.04855 
L 263.714682 242.644364 
L 264.067174 241.521466 
L 264.512428 240.284236 
L 264.670122 240.292913 
L 264.837092 240.622507 
L 265.152479 241.868192 
L 265.801807 244.32444 
L 266.942768 247.378869 
L 267.007701 247.328237 
L 267.165395 246.955679 
L 267.443678 245.594412 
L 267.953864 243.258445 
L 268.111558 243.176487 
L 268.120834 243.182783 
L 268.278528 243.449313 
L 268.677401 244.767452 
L 269.13193 245.867796 
L 269.521527 246.871664 
L 270.226511 248.927544 
L 270.356377 248.787217 
L 270.569727 248.104127 
L 271.144846 246.139927 
L 271.265435 246.225632 
L 271.432405 246.745001 
L 271.729241 248.558613 
L 272.415673 252.779898 
L 272.638299 253.092108 
L 272.768165 252.948117 
L 272.962963 252.296678 
L 273.287627 250.28153 
L 274.001887 245.791018 
L 274.178134 245.59951 
L 274.18741 245.60409 
L 274.317275 245.820254 
L 274.530626 246.730734 
L 275.532445 251.789213 
L 275.662311 251.664827 
L 275.866385 251.062758 
L 276.255982 249.042242 
L 277.146488 244.398626 
L 277.526809 243.485438 
L 277.777264 243.336772 
L 277.990614 243.470425 
L 278.315278 243.997721 
L 278.908949 245.434021 
L 279.233613 246.836516 
L 279.595381 249.563251 
L 280.402403 256.009502 
L 280.522992 256.12143 
L 280.550821 256.098881 
L 280.67141 255.795465 
L 280.88476 254.528781 
L 281.432051 249.380192 
L 281.877304 246.408016 
L 282.183416 245.58852 
L 282.396766 245.501667 
L 282.573012 245.692797 
L 282.814191 246.335198 
L 283.148131 247.96169 
L 283.649041 251.708248 
L 284.400406 257.0543 
L 284.752898 258.171367 
L 285.031181 258.445614 
L 285.6063 258.736886 
L 285.828927 259.365947 
L 286.15359 261.090047 
L 286.877127 265.062515 
L 287.099754 265.305967 
L 287.266724 265.16903 
L 287.600663 264.488053 
L 288.732349 261.674594 
L 289.196154 260.310271 
L 289.353848 260.31151 
L 289.511542 260.646445 
L 289.771273 261.851045 
L 290.958615 268.233316 
L 291.171966 268.398384 
L 291.320383 268.221996 
L 291.533734 267.534661 
L 291.904778 265.416874 
L 292.42424 262.780218 
L 292.609762 262.600181 
L 292.619039 262.60484 
L 292.75818 262.82453 
L 292.999359 263.753567 
L 293.704343 266.663228 
L 293.889866 266.731744 
L 294.066112 266.499506 
L 294.381499 265.60901 
L 295.114312 263.496226 
L 295.318386 263.412642 
L 295.485356 263.612199 
L 295.735811 264.346517 
L 296.830392 268.127577 
L 296.988086 268.045364 
L 297.19216 267.60861 
L 297.507548 266.298867 
L 298.305294 262.777488 
L 298.453711 262.755509 
L 298.462987 262.764812 
L 298.611405 263.085994 
L 298.86186 264.286001 
L 299.69671 268.754522 
L 299.919337 268.909167 
L 300.429523 268.974871 
L 300.69853 269.517313 
L 301.097402 270.225215 
L 301.227268 270.139969 
L 301.403514 269.658322 
L 301.709626 267.995878 
L 302.219812 265.40828 
L 302.368229 265.28999 
L 302.386782 265.302231 
L 302.516647 265.553011 
L 302.739274 266.572098 
L 303.815302 272.334712 
L 304.08431 272.558632 
L 304.390421 272.519788 
L 304.715085 272.262353 
L 304.993368 271.726711 
L 305.336584 270.508596 
L 306.505374 265.880794 
L 306.84859 265.447119 
L 307.061941 265.465714 
L 307.275291 265.757064 
L 307.590679 266.652257 
L 308.267835 268.593973 
L 308.629603 268.908503 
L 308.907886 269.246041 
L 309.167617 269.994396 
L 309.622147 272.192315 
L 310.021019 273.633225 
L 310.206542 273.733701 
L 310.364235 273.517729 
L 310.670347 272.602998 
L 311.087772 271.564991 
L 311.254742 271.560874 
L 311.421712 271.860349 
L 311.690719 272.907696 
L 312.507017 276.385259 
L 312.673987 276.412702 
L 312.850233 276.150653 
L 313.527389 274.86705 
L 313.555217 274.883608 
L 313.712911 275.150936 
L 313.95409 276.111193 
L 314.455 279.316112 
L 314.955909 281.86911 
L 315.262021 282.480165 
L 315.484648 282.5225 
L 315.744379 282.297993 
L 316.709094 281.292312 
L 316.996654 281.326878 
L 317.284213 281.614406 
L 318.26748 282.853115 
L 318.842599 282.897583 
L 319.083778 283.335657 
L 319.983561 285.416421 
L 320.011389 285.401451 
L 320.178359 285.152872 
L 320.447366 284.25739 
L 321.189455 281.622622 
L 321.356425 281.605728 
L 321.532671 281.87228 
L 321.894439 282.952148 
L 322.348969 284.071727 
L 322.571595 284.166955 
L 322.757117 283.970444 
L 323.016848 283.300959 
L 323.619795 280.876543 
L 323.972288 280.001413 
L 324.176362 279.926956 
L 324.389713 280.125392 
L 325.085421 280.897734 
L 325.799681 281.187734 
L 326.513942 281.819357 
L 326.727292 281.65794 
L 327.024128 281.089638 
L 328.118708 278.682986 
L 328.332059 278.686334 
L 328.545409 278.954124 
L 328.823693 279.72253 
L 329.268946 281.725723 
L 330.011035 284.936424 
L 330.30787 285.403068 
L 330.493392 285.367957 
L 330.706743 285.029496 
L 331.040683 283.995601 
L 331.727115 281.842621 
L 331.912637 281.797899 
L 332.079607 282.046509 
L 332.385719 283.022085 
L 332.849524 284.336499 
L 333.035046 284.383827 
L 333.229845 284.136613 
L 333.740031 283.430777 
L 333.888448 283.603695 
L 334.092523 284.272245 
L 334.426463 286.277588 
L 335.298417 291.739835 
L 335.632357 292.527886 
L 335.91064 292.708111 
L 336.207476 292.62512 
L 336.606348 292.254443 
L 337.162915 291.385824 
L 337.74731 290.594826 
L 338.201839 290.384637 
L 338.526503 290.131179 
L 338.851167 289.529833 
L 339.67674 287.855109 
L 340.038509 287.708024 
L 340.493038 287.498418 
L 341.077433 287.183491 
L 341.327888 287.34871 
L 342.079253 288.021645 
L 342.301879 287.799956 
L 342.969759 286.996141 
L 343.146005 287.179868 
L 343.415012 287.866288 
L 343.990131 289.357501 
L 344.138549 289.327939 
L 344.314795 288.976341 
L 344.620907 287.736794 
L 345.335167 284.824479 
L 345.836077 283.845876 
L 346.272054 283.352826 
L 346.476129 283.392297 
L 346.689479 283.714173 
L 347.023419 284.725583 
L 347.802612 287.153106 
L 348.090172 287.42483 
L 348.275694 287.344225 
L 348.49832 286.948518 
L 348.822984 285.828641 
L 349.574349 283.133527 
L 349.806252 282.97099 
L 350.010326 283.106435 
L 350.409199 283.734117 
L 351.327534 285.53539 
L 351.930481 286.869166 
L 352.097451 286.839269 
L 352.282973 286.506316 
L 352.635465 285.283172 
L 353.09927 283.921339 
L 353.340449 283.757292 
L 353.581628 283.885757 
L 354.063986 284.15863 
L 354.277336 284.003305 
L 354.537067 283.485717 
L 354.908112 282.165075 
L 355.724409 279.146817 
L 355.947036 279.004272 
L 356.132558 279.149994 
L 356.447946 279.757298 
L 357.115826 281.63286 
L 358.980324 287.218806 
L 359.230779 287.273089 
L 359.583271 287.047434 
L 359.935763 286.932287 
L 360.195494 287.09832 
L 360.575814 287.666327 
L 361.37356 288.885071 
L 361.781709 289.042629 
L 362.08782 289.244641 
L 362.338275 289.719356 
L 362.662939 290.895166 
L 363.302991 294.340289 
L 363.711139 295.867235 
L 363.905938 295.996905 
L 364.054355 295.784069 
L 364.295534 294.929557 
L 365.074727 291.861176 
L 365.213869 291.910466 
L 365.399391 292.323338 
L 365.844644 294.090228 
L 366.224965 295.117485 
L 366.447592 295.224022 
L 366.660942 295.04525 
L 367.47724 294.155353 
L 367.699866 294.338292 
L 368.033806 294.97074 
L 369.52726 298.144778 
L 369.889028 298.462539 
L 370.139483 298.417136 
L 370.427042 298.104794 
L 370.918676 297.171056 
L 371.707146 295.710791 
L 371.864839 295.76662 
L 372.031809 296.132714 
L 372.272988 297.315505 
L 372.671861 300.640911 
L 373.321189 305.728084 
L 373.682957 306.988502 
L 374.007621 307.417379 
L 374.397217 307.557769 
L 375.426865 307.583964 
L 398.487273 307.584 
L 398.487273 307.584 
" style="fill:none;stroke:#ff7f0e;stroke-linecap:square;stroke-width:1.5;"/>
   </g>
   <g id="patch_103">
    <path d="M 57.6 307.584 
L 57.6 41.472 
" style="fill:none;stroke:#000000;stroke-linecap:square;stroke-linejoin:miter;stroke-width:0.8;"/>
   </g>
   <g id="patch_104">
    <path d="M 414.72 307.584 
L 414.72 41.472 
" style="fill:none;stroke:#000000;stroke-linecap:square;stroke-linejoin:miter;stroke-width:0.8;"/>
   </g>
   <g id="patch_105">
    <path d="M 57.6 307.584 
L 414.72 307.584 
" style="fill:none;stroke:#000000;stroke-linecap:square;stroke-linejoin:miter;stroke-width:0.8;"/>
   </g>
   <g id="patch_106">
    <path d="M 57.6 41.472 
L 414.72 41.472 
" style="fill:none;stroke:#000000;stroke-linecap:square;stroke-linejoin:miter;stroke-width:0.8;"/>
   </g>
  </g>
 </g>
 <defs>
  <clipPath id="p415d444474">
   <rect height="266.112" width="357.12" x="57.6" y="41.472"/>
  </clipPath>
 </defs>
</svg>
