<?xml version="1.0" encoding="utf-8" standalone="no"?>
<!DOCTYPE svg PUBLIC "-//W3C//DTD SVG 1.1//EN"
  "http://www.w3.org/Graphics/SVG/1.1/DTD/svg11.dtd">
<!-- Created with matplotlib (https://matplotlib.org/) -->
<svg height="345.6pt" version="1.1" viewBox="0 0 460.8 345.6" width="460.8pt" xmlns="http://www.w3.org/2000/svg" xmlns:xlink="http://www.w3.org/1999/xlink">
 <defs>
  <style type="text/css">
*{stroke-linecap:butt;stroke-linejoin:round;}
  </style>
 </defs>
 <g id="figure_1">
  <g id="patch_1">
   <path d="M 0 345.6 
L 460.8 345.6 
L 460.8 0 
L 0 0 
z
" style="fill:#ffffff;"/>
  </g>
  <g id="axes_1">
   <g id="patch_2">
    <path d="M 57.6 307.584 
L 414.72 307.584 
L 414.72 41.472 
L 57.6 41.472 
z
" style="fill:#ffffff;"/>
   </g>
   <g id="patch_3">
    <path clip-path="url(#p9077d34931)" d="M 99.932634 307.584 
L 102.65662 307.584 
L 102.65662 286.942229 
L 99.932634 286.942229 
z
" style="fill:#1f77b4;"/>
   </g>
   <g id="patch_4">
    <path clip-path="url(#p9077d34931)" d="M 102.65662 307.584 
L 105.380606 307.584 
L 105.380606 297.263114 
L 102.65662 297.263114 
z
" style="fill:#1f77b4;"/>
   </g>
   <g id="patch_5">
    <path clip-path="url(#p9077d34931)" d="M 105.380606 307.584 
L 108.104591 307.584 
L 108.104591 292.747727 
L 105.380606 292.747727 
z
" style="fill:#1f77b4;"/>
   </g>
   <g id="patch_6">
    <path clip-path="url(#p9077d34931)" d="M 108.104591 307.584 
L 110.828577 307.584 
L 110.828577 295.327948 
L 108.104591 295.327948 
z
" style="fill:#1f77b4;"/>
   </g>
   <g id="patch_7">
    <path clip-path="url(#p9077d34931)" d="M 110.828577 307.584 
L 113.552563 307.584 
L 113.552563 285.652118 
L 110.828577 285.652118 
z
" style="fill:#1f77b4;"/>
   </g>
   <g id="patch_8">
    <path clip-path="url(#p9077d34931)" d="M 113.552563 307.584 
L 116.276542 307.584 
L 116.276542 289.522399 
L 113.552563 289.522399 
z
" style="fill:#1f77b4;"/>
   </g>
   <g id="patch_9">
    <path clip-path="url(#p9077d34931)" d="M 116.276542 307.584 
L 119.000528 307.584 
L 119.000528 288.877395 
L 116.276542 288.877395 
z
" style="fill:#1f77b4;"/>
   </g>
   <g id="patch_10">
    <path clip-path="url(#p9077d34931)" d="M 119.000528 307.584 
L 121.724514 307.584 
L 121.724514 293.392782 
L 119.000528 293.392782 
z
" style="fill:#1f77b4;"/>
   </g>
   <g id="patch_11">
    <path clip-path="url(#p9077d34931)" d="M 121.724514 307.584 
L 124.4485 307.584 
L 124.4485 289.52245 
L 121.724514 289.52245 
z
" style="fill:#1f77b4;"/>
   </g>
   <g id="patch_12">
    <path clip-path="url(#p9077d34931)" d="M 124.4485 307.584 
L 127.172486 307.584 
L 127.172486 286.297173 
L 124.4485 286.297173 
z
" style="fill:#1f77b4;"/>
   </g>
   <g id="patch_13">
    <path clip-path="url(#p9077d34931)" d="M 127.172486 307.584 
L 129.896472 307.584 
L 129.896472 286.297173 
L 127.172486 286.297173 
z
" style="fill:#1f77b4;"/>
   </g>
   <g id="patch_14">
    <path clip-path="url(#p9077d34931)" d="M 129.896472 307.584 
L 132.620458 307.584 
L 132.620458 289.52245 
L 129.896472 289.52245 
z
" style="fill:#1f77b4;"/>
   </g>
   <g id="patch_15">
    <path clip-path="url(#p9077d34931)" d="M 132.620458 307.584 
L 135.344443 307.584 
L 135.344443 293.392782 
L 132.620458 293.392782 
z
" style="fill:#1f77b4;"/>
   </g>
   <g id="patch_16">
    <path clip-path="url(#p9077d34931)" d="M 135.344443 307.584 
L 138.068429 307.584 
L 138.068429 292.747727 
L 135.344443 292.747727 
z
" style="fill:#1f77b4;"/>
   </g>
   <g id="patch_17">
    <path clip-path="url(#p9077d34931)" d="M 138.068422 307.584 
L 140.7924 307.584 
L 140.7924 290.812513 
L 138.068422 290.812513 
z
" style="fill:#1f77b4;"/>
   </g>
   <g id="patch_18">
    <path clip-path="url(#p9077d34931)" d="M 140.792408 307.584 
L 143.516394 307.584 
L 143.516394 295.973004 
L 140.792408 295.973004 
z
" style="fill:#1f77b4;"/>
   </g>
   <g id="patch_19">
    <path clip-path="url(#p9077d34931)" d="M 143.516394 307.584 
L 146.24038 307.584 
L 146.24038 287.587284 
L 143.516394 287.587284 
z
" style="fill:#1f77b4;"/>
   </g>
   <g id="patch_20">
    <path clip-path="url(#p9077d34931)" d="M 146.24038 307.584 
L 148.964366 307.584 
L 148.964366 286.297173 
L 146.24038 286.297173 
z
" style="fill:#1f77b4;"/>
   </g>
   <g id="patch_21">
    <path clip-path="url(#p9077d34931)" d="M 148.964366 307.584 
L 151.688352 307.584 
L 151.688352 281.136731 
L 148.964366 281.136731 
z
" style="fill:#1f77b4;"/>
   </g>
   <g id="patch_22">
    <path clip-path="url(#p9077d34931)" d="M 151.688352 307.584 
L 154.412338 307.584 
L 154.412338 286.297173 
L 151.688352 286.297173 
z
" style="fill:#1f77b4;"/>
   </g>
   <g id="patch_23">
    <path clip-path="url(#p9077d34931)" d="M 154.412338 307.584 
L 157.136324 307.584 
L 157.136324 275.976288 
L 154.412338 275.976288 
z
" style="fill:#1f77b4;"/>
   </g>
   <g id="patch_24">
    <path clip-path="url(#p9077d34931)" d="M 157.136324 307.584 
L 159.86031 307.584 
L 159.86031 275.331232 
L 157.136324 275.331232 
z
" style="fill:#1f77b4;"/>
   </g>
   <g id="patch_25">
    <path clip-path="url(#p9077d34931)" d="M 159.86031 307.584 
L 162.584296 307.584 
L 162.584296 268.235624 
L 159.86031 268.235624 
z
" style="fill:#1f77b4;"/>
   </g>
   <g id="patch_26">
    <path clip-path="url(#p9077d34931)" d="M 162.584296 307.584 
L 165.308281 307.584 
L 165.308281 263.720236 
L 162.584296 263.720236 
z
" style="fill:#1f77b4;"/>
   </g>
   <g id="patch_27">
    <path clip-path="url(#p9077d34931)" d="M 165.308281 307.584 
L 168.032267 307.584 
L 168.032267 265.655402 
L 165.308281 265.655402 
z
" style="fill:#1f77b4;"/>
   </g>
   <g id="patch_28">
    <path clip-path="url(#p9077d34931)" d="M 168.032267 307.584 
L 170.756246 307.584 
L 170.756246 272.105855 
L 168.032267 272.105855 
z
" style="fill:#1f77b4;"/>
   </g>
   <g id="patch_29">
    <path clip-path="url(#p9077d34931)" d="M 170.756246 307.584 
L 173.480236 307.584 
L 173.480236 263.720298 
L 170.756246 263.720298 
z
" style="fill:#1f77b4;"/>
   </g>
   <g id="patch_30">
    <path clip-path="url(#p9077d34931)" d="M 173.480232 307.584 
L 176.204214 307.584 
L 176.204214 260.494892 
L 173.480232 260.494892 
z
" style="fill:#1f77b4;"/>
   </g>
   <g id="patch_31">
    <path clip-path="url(#p9077d34931)" d="M 176.204218 307.584 
L 178.928204 307.584 
L 178.928204 273.396066 
L 176.204218 273.396066 
z
" style="fill:#1f77b4;"/>
   </g>
   <g id="patch_32">
    <path clip-path="url(#p9077d34931)" d="M 178.928204 307.584 
L 181.65219 307.584 
L 181.65219 266.300458 
L 178.928204 266.300458 
z
" style="fill:#1f77b4;"/>
   </g>
   <g id="patch_33">
    <path clip-path="url(#p9077d34931)" d="M 181.65219 307.584 
L 184.376176 307.584 
L 184.376176 256.624627 
L 181.65219 256.624627 
z
" style="fill:#1f77b4;"/>
   </g>
   <g id="patch_34">
    <path clip-path="url(#p9077d34931)" d="M 184.376176 307.584 
L 187.100162 307.584 
L 187.100162 269.525734 
L 184.376176 269.525734 
z
" style="fill:#1f77b4;"/>
   </g>
   <g id="patch_35">
    <path clip-path="url(#p9077d34931)" d="M 187.100162 307.584 
L 189.824144 307.584 
L 189.824144 267.590511 
L 187.100162 267.590511 
z
" style="fill:#1f77b4;"/>
   </g>
   <g id="patch_36">
    <path clip-path="url(#p9077d34931)" d="M 189.824144 307.584 
L 192.54813 307.584 
L 192.54813 252.10924 
L 189.824144 252.10924 
z
" style="fill:#1f77b4;"/>
   </g>
   <g id="patch_37">
    <path clip-path="url(#p9077d34931)" d="M 192.54813 307.584 
L 195.272116 307.584 
L 195.272116 250.819129 
L 192.54813 250.819129 
z
" style="fill:#1f77b4;"/>
   </g>
   <g id="patch_38">
    <path clip-path="url(#p9077d34931)" d="M 195.272116 307.584 
L 197.996102 307.584 
L 197.996102 257.914738 
L 195.272116 257.914738 
z
" style="fill:#1f77b4;"/>
   </g>
   <g id="patch_39">
    <path clip-path="url(#p9077d34931)" d="M 197.996102 307.584 
L 200.720088 307.584 
L 200.720088 245.658686 
L 197.996102 245.658686 
z
" style="fill:#1f77b4;"/>
   </g>
   <g id="patch_40">
    <path clip-path="url(#p9077d34931)" d="M 200.720084 307.584 
L 203.444066 307.584 
L 203.444066 241.143204 
L 200.720084 241.143204 
z
" style="fill:#1f77b4;"/>
   </g>
   <g id="patch_41">
    <path clip-path="url(#p9077d34931)" d="M 203.44407 307.584 
L 206.168056 307.584 
L 206.168056 257.914738 
L 203.44407 257.914738 
z
" style="fill:#1f77b4;"/>
   </g>
   <g id="patch_42">
    <path clip-path="url(#p9077d34931)" d="M 206.168056 307.584 
L 208.892042 307.584 
L 208.892042 240.498244 
L 206.168056 240.498244 
z
" style="fill:#1f77b4;"/>
   </g>
   <g id="patch_43">
    <path clip-path="url(#p9077d34931)" d="M 208.892042 307.584 
L 211.616028 307.584 
L 211.616028 224.37186 
L 208.892042 224.37186 
z
" style="fill:#1f77b4;"/>
   </g>
   <g id="patch_44">
    <path clip-path="url(#p9077d34931)" d="M 211.616028 307.584 
L 214.340012 307.584 
L 214.340012 214.050908 
L 211.616028 214.050908 
z
" style="fill:#1f77b4;"/>
   </g>
   <g id="patch_45">
    <path clip-path="url(#p9077d34931)" d="M 214.340012 307.584 
L 217.063998 307.584 
L 217.063998 226.307026 
L 214.340012 226.307026 
z
" style="fill:#1f77b4;"/>
   </g>
   <g id="patch_46">
    <path clip-path="url(#p9077d34931)" d="M 217.063996 307.584 
L 219.78798 307.584 
L 219.78798 225.016856 
L 217.063996 225.016856 
z
" style="fill:#1f77b4;"/>
   </g>
   <g id="patch_47">
    <path clip-path="url(#p9077d34931)" d="M 219.787982 307.584 
L 222.511968 307.584 
L 222.511968 229.532303 
L 219.787982 229.532303 
z
" style="fill:#1f77b4;"/>
   </g>
   <g id="patch_48">
    <path clip-path="url(#p9077d34931)" d="M 222.511968 307.584 
L 225.235953 307.584 
L 225.235953 217.276219 
L 222.511968 217.276219 
z
" style="fill:#1f77b4;"/>
   </g>
   <g id="patch_49">
    <path clip-path="url(#p9077d34931)" d="M 225.235952 307.584 
L 227.959937 307.584 
L 227.959937 215.341052 
L 225.235952 215.341052 
z
" style="fill:#1f77b4;"/>
   </g>
   <g id="patch_50">
    <path clip-path="url(#p9077d34931)" d="M 227.959938 307.584 
L 230.683923 307.584 
L 230.683923 232.112511 
L 227.959938 232.112511 
z
" style="fill:#1f77b4;"/>
   </g>
   <g id="patch_51">
    <path clip-path="url(#p9077d34931)" d="M 230.683923 307.584 
L 233.407908 307.584 
L 233.407908 206.310283 
L 230.683923 206.310283 
z
" style="fill:#1f77b4;"/>
   </g>
   <g id="patch_52">
    <path clip-path="url(#p9077d34931)" d="M 233.407908 307.584 
L 236.131894 307.584 
L 236.131894 219.856449 
L 233.407908 219.856449 
z
" style="fill:#1f77b4;"/>
   </g>
   <g id="patch_53">
    <path clip-path="url(#p9077d34931)" d="M 236.131894 307.584 
L 238.855879 307.584 
L 238.855879 125.033287 
L 236.131894 125.033287 
z
" style="fill:#1f77b4;"/>
   </g>
   <g id="patch_54">
    <path clip-path="url(#p9077d34931)" d="M 238.855879 307.584 
L 241.579865 307.584 
L 241.579865 186.958617 
L 238.855879 186.958617 
z
" style="fill:#1f77b4;"/>
   </g>
   <g id="patch_55">
    <path clip-path="url(#p9077d34931)" d="M 241.579864 307.584 
L 244.30385 307.584 
L 244.30385 215.341068 
L 241.579864 215.341068 
z
" style="fill:#1f77b4;"/>
   </g>
   <g id="patch_56">
    <path clip-path="url(#p9077d34931)" d="M 244.30385 307.584 
L 247.027835 307.584 
L 247.027835 230.17733 
L 244.30385 230.17733 
z
" style="fill:#1f77b4;"/>
   </g>
   <g id="patch_57">
    <path clip-path="url(#p9077d34931)" d="M 247.027834 307.584 
L 249.751819 307.584 
L 249.751819 203.730052 
L 247.027834 203.730052 
z
" style="fill:#1f77b4;"/>
   </g>
   <g id="patch_58">
    <path clip-path="url(#p9077d34931)" d="M 249.75182 307.584 
L 252.475806 307.584 
L 252.475806 219.211417 
L 249.75182 219.211417 
z
" style="fill:#1f77b4;"/>
   </g>
   <g id="patch_59">
    <path clip-path="url(#p9077d34931)" d="M 252.475806 307.584 
L 255.19979 307.584 
L 255.19979 214.050908 
L 252.475806 214.050908 
z
" style="fill:#1f77b4;"/>
   </g>
   <g id="patch_60">
    <path clip-path="url(#p9077d34931)" d="M 255.19979 307.584 
L 257.923776 307.584 
L 257.923776 223.081749 
L 255.19979 223.081749 
z
" style="fill:#1f77b4;"/>
   </g>
   <g id="patch_61">
    <path clip-path="url(#p9077d34931)" d="M 257.923774 307.584 
L 260.647758 307.584 
L 260.647758 221.791577 
L 257.923774 221.791577 
z
" style="fill:#1f77b4;"/>
   </g>
   <g id="patch_62">
    <path clip-path="url(#p9077d34931)" d="M 260.64776 307.584 
L 263.371746 307.584 
L 263.371746 239.208133 
L 260.64776 239.208133 
z
" style="fill:#1f77b4;"/>
   </g>
   <g id="patch_63">
    <path clip-path="url(#p9077d34931)" d="M 263.371746 307.584 
L 266.095732 307.584 
L 266.095732 237.272967 
L 263.371746 237.272967 
z
" style="fill:#1f77b4;"/>
   </g>
   <g id="patch_64">
    <path clip-path="url(#p9077d34931)" d="M 266.095732 307.584 
L 268.819718 307.584 
L 268.819718 227.597136 
L 266.095732 227.597136 
z
" style="fill:#1f77b4;"/>
   </g>
   <g id="patch_65">
    <path clip-path="url(#p9077d34931)" d="M 268.819718 307.584 
L 271.5437 307.584 
L 271.5437 226.30691 
L 268.819718 226.30691 
z
" style="fill:#1f77b4;"/>
   </g>
   <g id="patch_66">
    <path clip-path="url(#p9077d34931)" d="M 271.5437 307.584 
L 274.267686 307.584 
L 274.267686 245.013631 
L 271.5437 245.013631 
z
" style="fill:#1f77b4;"/>
   </g>
   <g id="patch_67">
    <path clip-path="url(#p9077d34931)" d="M 274.267686 307.584 
L 276.991672 307.584 
L 276.991672 250.819129 
L 274.267686 250.819129 
z
" style="fill:#1f77b4;"/>
   </g>
   <g id="patch_68">
    <path clip-path="url(#p9077d34931)" d="M 276.991672 307.584 
L 279.715658 307.584 
L 279.715658 235.337801 
L 276.991672 235.337801 
z
" style="fill:#1f77b4;"/>
   </g>
   <g id="patch_69">
    <path clip-path="url(#p9077d34931)" d="M 279.715658 307.584 
L 282.439644 307.584 
L 282.439644 243.72352 
L 279.715658 243.72352 
z
" style="fill:#1f77b4;"/>
   </g>
   <g id="patch_70">
    <path clip-path="url(#p9077d34931)" d="M 282.43964 307.584 
L 285.163622 307.584 
L 285.163622 239.208036 
L 282.43964 239.208036 
z
" style="fill:#1f77b4;"/>
   </g>
   <g id="patch_71">
    <path clip-path="url(#p9077d34931)" d="M 285.163626 307.584 
L 287.887612 307.584 
L 287.887612 248.883963 
L 285.163626 248.883963 
z
" style="fill:#1f77b4;"/>
   </g>
   <g id="patch_72">
    <path clip-path="url(#p9077d34931)" d="M 287.887612 307.584 
L 290.611598 307.584 
L 290.611598 257.269683 
L 287.887612 257.269683 
z
" style="fill:#1f77b4;"/>
   </g>
   <g id="patch_73">
    <path clip-path="url(#p9077d34931)" d="M 290.611598 307.584 
L 293.335584 307.584 
L 293.335584 257.269683 
L 290.611598 257.269683 
z
" style="fill:#1f77b4;"/>
   </g>
   <g id="patch_74">
    <path clip-path="url(#p9077d34931)" d="M 293.335584 307.584 
L 296.05957 307.584 
L 296.05957 252.10924 
L 293.335584 252.10924 
z
" style="fill:#1f77b4;"/>
   </g>
   <g id="patch_75">
    <path clip-path="url(#p9077d34931)" d="M 296.05957 307.584 
L 298.783552 307.584 
L 298.783552 252.109161 
L 296.05957 252.109161 
z
" style="fill:#1f77b4;"/>
   </g>
   <g id="patch_76">
    <path clip-path="url(#p9077d34931)" d="M 298.783556 307.584 
L 301.507549 307.584 
L 301.507549 257.269754 
L 298.783556 257.269754 
z
" style="fill:#1f77b4;"/>
   </g>
   <g id="patch_77">
    <path clip-path="url(#p9077d34931)" d="M 301.507534 307.584 
L 304.231512 307.584 
L 304.231512 246.948625 
L 301.507534 246.948625 
z
" style="fill:#1f77b4;"/>
   </g>
   <g id="patch_78">
    <path clip-path="url(#p9077d34931)" d="M 304.23152 307.584 
L 306.955506 307.584 
L 306.955506 254.689461 
L 304.23152 254.689461 
z
" style="fill:#1f77b4;"/>
   </g>
   <g id="patch_79">
    <path clip-path="url(#p9077d34931)" d="M 306.955506 307.584 
L 309.679492 307.584 
L 309.679492 243.72352 
L 306.955506 243.72352 
z
" style="fill:#1f77b4;"/>
   </g>
   <g id="patch_80">
    <path clip-path="url(#p9077d34931)" d="M 309.679492 307.584 
L 312.403478 307.584 
L 312.403478 255.979572 
L 309.679492 255.979572 
z
" style="fill:#1f77b4;"/>
   </g>
   <g id="patch_81">
    <path clip-path="url(#p9077d34931)" d="M 312.403478 307.584 
L 315.127464 307.584 
L 315.127464 265.010347 
L 312.403478 265.010347 
z
" style="fill:#1f77b4;"/>
   </g>
   <g id="patch_82">
    <path clip-path="url(#p9077d34931)" d="M 315.127464 307.584 
L 317.85145 307.584 
L 317.85145 266.300458 
L 315.127464 266.300458 
z
" style="fill:#1f77b4;"/>
   </g>
   <g id="patch_83">
    <path clip-path="url(#p9077d34931)" d="M 317.85145 307.584 
L 320.575436 307.584 
L 320.575436 273.396066 
L 317.85145 273.396066 
z
" style="fill:#1f77b4;"/>
   </g>
   <g id="patch_84">
    <path clip-path="url(#p9077d34931)" d="M 320.575436 307.584 
L 323.299422 307.584 
L 323.299422 281.781786 
L 320.575436 281.781786 
z
" style="fill:#1f77b4;"/>
   </g>
   <g id="patch_85">
    <path clip-path="url(#p9077d34931)" d="M 323.299422 307.584 
L 326.023408 307.584 
L 326.023408 274.041122 
L 323.299422 274.041122 
z
" style="fill:#1f77b4;"/>
   </g>
   <g id="patch_86">
    <path clip-path="url(#p9077d34931)" d="M 326.023408 307.584 
L 328.747394 307.584 
L 328.747394 270.17079 
L 326.023408 270.17079 
z
" style="fill:#1f77b4;"/>
   </g>
   <g id="patch_87">
    <path clip-path="url(#p9077d34931)" d="M 328.747394 307.584 
L 331.47138 307.584 
L 331.47138 277.911454 
L 328.747394 277.911454 
z
" style="fill:#1f77b4;"/>
   </g>
   <g id="patch_88">
    <path clip-path="url(#p9077d34931)" d="M 331.47138 307.584 
L 334.195358 307.584 
L 334.195358 279.846541 
L 331.47138 279.846541 
z
" style="fill:#1f77b4;"/>
   </g>
   <g id="patch_89">
    <path clip-path="url(#p9077d34931)" d="M 334.195358 307.584 
L 336.919344 307.584 
L 336.919344 286.942229 
L 334.195358 286.942229 
z
" style="fill:#1f77b4;"/>
   </g>
   <g id="patch_90">
    <path clip-path="url(#p9077d34931)" d="M 336.919344 307.584 
L 339.64333 307.584 
L 339.64333 294.037838 
L 336.919344 294.037838 
z
" style="fill:#1f77b4;"/>
   </g>
   <g id="patch_91">
    <path clip-path="url(#p9077d34931)" d="M 339.64333 307.584 
L 342.367316 307.584 
L 342.367316 285.652118 
L 339.64333 285.652118 
z
" style="fill:#1f77b4;"/>
   </g>
   <g id="patch_92">
    <path clip-path="url(#p9077d34931)" d="M 342.367316 307.584 
L 345.091302 307.584 
L 345.091302 288.232339 
L 342.367316 288.232339 
z
" style="fill:#1f77b4;"/>
   </g>
   <g id="patch_93">
    <path clip-path="url(#p9077d34931)" d="M 345.091302 307.584 
L 347.815288 307.584 
L 347.815288 279.84662 
L 345.091302 279.84662 
z
" style="fill:#1f77b4;"/>
   </g>
   <g id="patch_94">
    <path clip-path="url(#p9077d34931)" d="M 347.815288 307.584 
L 350.539274 307.584 
L 350.539274 282.426841 
L 347.815288 282.426841 
z
" style="fill:#1f77b4;"/>
   </g>
   <g id="patch_95">
    <path clip-path="url(#p9077d34931)" d="M 350.539274 307.584 
L 353.26326 307.584 
L 353.26326 285.652118 
L 350.539274 285.652118 
z
" style="fill:#1f77b4;"/>
   </g>
   <g id="patch_96">
    <path clip-path="url(#p9077d34931)" d="M 353.26326 307.584 
L 355.987246 307.584 
L 355.987246 281.136731 
L 353.26326 281.136731 
z
" style="fill:#1f77b4;"/>
   </g>
   <g id="patch_97">
    <path clip-path="url(#p9077d34931)" d="M 355.987246 307.584 
L 358.711232 307.584 
L 358.711232 270.17079 
L 355.987246 270.17079 
z
" style="fill:#1f77b4;"/>
   </g>
   <g id="patch_98">
    <path clip-path="url(#p9077d34931)" d="M 358.711224 307.584 
L 361.435202 307.584 
L 361.435202 281.781713 
L 358.711224 281.781713 
z
" style="fill:#1f77b4;"/>
   </g>
   <g id="patch_99">
    <path clip-path="url(#p9077d34931)" d="M 361.43521 307.584 
L 364.159196 307.584 
L 364.159196 292.102672 
L 361.43521 292.102672 
z
" style="fill:#1f77b4;"/>
   </g>
   <g id="patch_100">
    <path clip-path="url(#p9077d34931)" d="M 364.159196 307.584 
L 366.883182 307.584 
L 366.883182 285.007063 
L 364.159196 285.007063 
z
" style="fill:#1f77b4;"/>
   </g>
   <g id="patch_101">
    <path clip-path="url(#p9077d34931)" d="M 366.883182 307.584 
L 369.607168 307.584 
L 369.607168 289.52245 
L 366.883182 289.52245 
z
" style="fill:#1f77b4;"/>
   </g>
   <g id="patch_102">
    <path clip-path="url(#p9077d34931)" d="M 369.607168 307.584 
L 372.331154 307.584 
L 372.331154 288.877395 
L 369.607168 288.877395 
z
" style="fill:#1f77b4;"/>
   </g>
   <g id="matplotlib.axis_1">
    <g id="xtick_1">
     <g id="line2d_1">
      <defs>
       <path d="M 0 0 
L 0 3.5 
" id="m58f743267d" style="stroke:#000000;stroke-width:0.8;"/>
      </defs>
      <g>
       <use style="stroke:#000000;stroke-width:0.8;" x="106.300346" xlink:href="#m58f743267d" y="307.584"/>
      </g>
     </g>
     <g id="text_1">
      <!-- −2 -->
      <defs>
       <path d="M 10.59375 35.5 
L 73.1875 35.5 
L 73.1875 27.203125 
L 10.59375 27.203125 
z
" id="DejaVuSans-8722"/>
       <path d="M 19.1875 8.296875 
L 53.609375 8.296875 
L 53.609375 0 
L 7.328125 0 
L 7.328125 8.296875 
Q 12.9375 14.109375 22.625 23.890625 
Q 32.328125 33.6875 34.8125 36.53125 
Q 39.546875 41.84375 41.421875 45.53125 
Q 43.3125 49.21875 43.3125 52.78125 
Q 43.3125 58.59375 39.234375 62.25 
Q 35.15625 65.921875 28.609375 65.921875 
Q 23.96875 65.921875 18.8125 64.3125 
Q 13.671875 62.703125 7.8125 59.421875 
L 7.8125 69.390625 
Q 13.765625 71.78125 18.9375 73 
Q 24.125 74.21875 28.421875 74.21875 
Q 39.75 74.21875 46.484375 68.546875 
Q 53.21875 62.890625 53.21875 53.421875 
Q 53.21875 48.921875 51.53125 44.890625 
Q 49.859375 40.875 45.40625 35.40625 
Q 44.1875 33.984375 37.640625 27.21875 
Q 31.109375 20.453125 19.1875 8.296875 
z
" id="DejaVuSans-50"/>
      </defs>
      <g transform="translate(93.769487 327.501344)scale(0.17 -0.17)">
       <use xlink:href="#DejaVuSans-8722"/>
       <use x="83.789062" xlink:href="#DejaVuSans-50"/>
      </g>
     </g>
    </g>
    <g id="xtick_2">
     <g id="line2d_2">
      <g>
       <use style="stroke:#000000;stroke-width:0.8;" x="171.235584" xlink:href="#m58f743267d" y="307.584"/>
      </g>
     </g>
     <g id="text_2">
      <!-- −1 -->
      <defs>
       <path d="M 12.40625 8.296875 
L 28.515625 8.296875 
L 28.515625 63.921875 
L 10.984375 60.40625 
L 10.984375 69.390625 
L 28.421875 72.90625 
L 38.28125 72.90625 
L 38.28125 8.296875 
L 54.390625 8.296875 
L 54.390625 0 
L 12.40625 0 
z
" id="DejaVuSans-49"/>
      </defs>
      <g transform="translate(158.704725 327.501344)scale(0.17 -0.17)">
       <use xlink:href="#DejaVuSans-8722"/>
       <use x="83.789062" xlink:href="#DejaVuSans-49"/>
      </g>
     </g>
    </g>
    <g id="xtick_3">
     <g id="line2d_3">
      <g>
       <use style="stroke:#000000;stroke-width:0.8;" x="236.170823" xlink:href="#m58f743267d" y="307.584"/>
      </g>
     </g>
     <g id="text_3">
      <!-- 0 -->
      <defs>
       <path d="M 31.78125 66.40625 
Q 24.171875 66.40625 20.328125 58.90625 
Q 16.5 51.421875 16.5 36.375 
Q 16.5 21.390625 20.328125 13.890625 
Q 24.171875 6.390625 31.78125 6.390625 
Q 39.453125 6.390625 43.28125 13.890625 
Q 47.125 21.390625 47.125 36.375 
Q 47.125 51.421875 43.28125 58.90625 
Q 39.453125 66.40625 31.78125 66.40625 
z
M 31.78125 74.21875 
Q 44.046875 74.21875 50.515625 64.515625 
Q 56.984375 54.828125 56.984375 36.375 
Q 56.984375 17.96875 50.515625 8.265625 
Q 44.046875 -1.421875 31.78125 -1.421875 
Q 19.53125 -1.421875 13.0625 8.265625 
Q 6.59375 17.96875 6.59375 36.375 
Q 6.59375 54.828125 13.0625 64.515625 
Q 19.53125 74.21875 31.78125 74.21875 
z
" id="DejaVuSans-48"/>
      </defs>
      <g transform="translate(230.762698 327.501344)scale(0.17 -0.17)">
       <use xlink:href="#DejaVuSans-48"/>
      </g>
     </g>
    </g>
    <g id="xtick_4">
     <g id="line2d_4">
      <g>
       <use style="stroke:#000000;stroke-width:0.8;" x="301.106061" xlink:href="#m58f743267d" y="307.584"/>
      </g>
     </g>
     <g id="text_4">
      <!-- 1 -->
      <g transform="translate(295.697936 327.501344)scale(0.17 -0.17)">
       <use xlink:href="#DejaVuSans-49"/>
      </g>
     </g>
    </g>
    <g id="xtick_5">
     <g id="line2d_5">
      <g>
       <use style="stroke:#000000;stroke-width:0.8;" x="366.041299" xlink:href="#m58f743267d" y="307.584"/>
      </g>
     </g>
     <g id="text_5">
      <!-- 2 -->
      <g transform="translate(360.633174 327.501344)scale(0.17 -0.17)">
       <use xlink:href="#DejaVuSans-50"/>
      </g>
     </g>
    </g>
    <g id="text_6">
     <!-- Position in Radian -->
     <defs>
      <path d="M 19.671875 64.796875 
L 19.671875 37.40625 
L 32.078125 37.40625 
Q 38.96875 37.40625 42.71875 40.96875 
Q 46.484375 44.53125 46.484375 51.125 
Q 46.484375 57.671875 42.71875 61.234375 
Q 38.96875 64.796875 32.078125 64.796875 
z
M 9.8125 72.90625 
L 32.078125 72.90625 
Q 44.34375 72.90625 50.609375 67.359375 
Q 56.890625 61.8125 56.890625 51.125 
Q 56.890625 40.328125 50.609375 34.8125 
Q 44.34375 29.296875 32.078125 29.296875 
L 19.671875 29.296875 
L 19.671875 0 
L 9.8125 0 
z
" id="DejaVuSans-80"/>
      <path d="M 30.609375 48.390625 
Q 23.390625 48.390625 19.1875 42.75 
Q 14.984375 37.109375 14.984375 27.296875 
Q 14.984375 17.484375 19.15625 11.84375 
Q 23.34375 6.203125 30.609375 6.203125 
Q 37.796875 6.203125 41.984375 11.859375 
Q 46.1875 17.53125 46.1875 27.296875 
Q 46.1875 37.015625 41.984375 42.703125 
Q 37.796875 48.390625 30.609375 48.390625 
z
M 30.609375 56 
Q 42.328125 56 49.015625 48.375 
Q 55.71875 40.765625 55.71875 27.296875 
Q 55.71875 13.875 49.015625 6.21875 
Q 42.328125 -1.421875 30.609375 -1.421875 
Q 18.84375 -1.421875 12.171875 6.21875 
Q 5.515625 13.875 5.515625 27.296875 
Q 5.515625 40.765625 12.171875 48.375 
Q 18.84375 56 30.609375 56 
z
" id="DejaVuSans-111"/>
      <path d="M 44.28125 53.078125 
L 44.28125 44.578125 
Q 40.484375 46.53125 36.375 47.5 
Q 32.28125 48.484375 27.875 48.484375 
Q 21.1875 48.484375 17.84375 46.4375 
Q 14.5 44.390625 14.5 40.28125 
Q 14.5 37.15625 16.890625 35.375 
Q 19.28125 33.59375 26.515625 31.984375 
L 29.59375 31.296875 
Q 39.15625 29.25 43.1875 25.515625 
Q 47.21875 21.78125 47.21875 15.09375 
Q 47.21875 7.46875 41.1875 3.015625 
Q 35.15625 -1.421875 24.609375 -1.421875 
Q 20.21875 -1.421875 15.453125 -0.5625 
Q 10.6875 0.296875 5.421875 2 
L 5.421875 11.28125 
Q 10.40625 8.6875 15.234375 7.390625 
Q 20.0625 6.109375 24.8125 6.109375 
Q 31.15625 6.109375 34.5625 8.28125 
Q 37.984375 10.453125 37.984375 14.40625 
Q 37.984375 18.0625 35.515625 20.015625 
Q 33.0625 21.96875 24.703125 23.78125 
L 21.578125 24.515625 
Q 13.234375 26.265625 9.515625 29.90625 
Q 5.8125 33.546875 5.8125 39.890625 
Q 5.8125 47.609375 11.28125 51.796875 
Q 16.75 56 26.8125 56 
Q 31.78125 56 36.171875 55.265625 
Q 40.578125 54.546875 44.28125 53.078125 
z
" id="DejaVuSans-115"/>
      <path d="M 9.421875 54.6875 
L 18.40625 54.6875 
L 18.40625 0 
L 9.421875 0 
z
M 9.421875 75.984375 
L 18.40625 75.984375 
L 18.40625 64.59375 
L 9.421875 64.59375 
z
" id="DejaVuSans-105"/>
      <path d="M 18.3125 70.21875 
L 18.3125 54.6875 
L 36.8125 54.6875 
L 36.8125 47.703125 
L 18.3125 47.703125 
L 18.3125 18.015625 
Q 18.3125 11.328125 20.140625 9.421875 
Q 21.96875 7.515625 27.59375 7.515625 
L 36.8125 7.515625 
L 36.8125 0 
L 27.59375 0 
Q 17.1875 0 13.234375 3.875 
Q 9.28125 7.765625 9.28125 18.015625 
L 9.28125 47.703125 
L 2.6875 47.703125 
L 2.6875 54.6875 
L 9.28125 54.6875 
L 9.28125 70.21875 
z
" id="DejaVuSans-116"/>
      <path d="M 54.890625 33.015625 
L 54.890625 0 
L 45.90625 0 
L 45.90625 32.71875 
Q 45.90625 40.484375 42.875 44.328125 
Q 39.84375 48.1875 33.796875 48.1875 
Q 26.515625 48.1875 22.3125 43.546875 
Q 18.109375 38.921875 18.109375 30.90625 
L 18.109375 0 
L 9.078125 0 
L 9.078125 54.6875 
L 18.109375 54.6875 
L 18.109375 46.1875 
Q 21.34375 51.125 25.703125 53.5625 
Q 30.078125 56 35.796875 56 
Q 45.21875 56 50.046875 50.171875 
Q 54.890625 44.34375 54.890625 33.015625 
z
" id="DejaVuSans-110"/>
      <path id="DejaVuSans-32"/>
      <path d="M 44.390625 34.1875 
Q 47.5625 33.109375 50.5625 29.59375 
Q 53.5625 26.078125 56.59375 19.921875 
L 66.609375 0 
L 56 0 
L 46.6875 18.703125 
Q 43.0625 26.03125 39.671875 28.421875 
Q 36.28125 30.8125 30.421875 30.8125 
L 19.671875 30.8125 
L 19.671875 0 
L 9.8125 0 
L 9.8125 72.90625 
L 32.078125 72.90625 
Q 44.578125 72.90625 50.734375 67.671875 
Q 56.890625 62.453125 56.890625 51.90625 
Q 56.890625 45.015625 53.6875 40.46875 
Q 50.484375 35.9375 44.390625 34.1875 
z
M 19.671875 64.796875 
L 19.671875 38.921875 
L 32.078125 38.921875 
Q 39.203125 38.921875 42.84375 42.21875 
Q 46.484375 45.515625 46.484375 51.90625 
Q 46.484375 58.296875 42.84375 61.546875 
Q 39.203125 64.796875 32.078125 64.796875 
z
" id="DejaVuSans-82"/>
      <path d="M 34.28125 27.484375 
Q 23.390625 27.484375 19.1875 25 
Q 14.984375 22.515625 14.984375 16.5 
Q 14.984375 11.71875 18.140625 8.90625 
Q 21.296875 6.109375 26.703125 6.109375 
Q 34.1875 6.109375 38.703125 11.40625 
Q 43.21875 16.703125 43.21875 25.484375 
L 43.21875 27.484375 
z
M 52.203125 31.203125 
L 52.203125 0 
L 43.21875 0 
L 43.21875 8.296875 
Q 40.140625 3.328125 35.546875 0.953125 
Q 30.953125 -1.421875 24.3125 -1.421875 
Q 15.921875 -1.421875 10.953125 3.296875 
Q 6 8.015625 6 15.921875 
Q 6 25.140625 12.171875 29.828125 
Q 18.359375 34.515625 30.609375 34.515625 
L 43.21875 34.515625 
L 43.21875 35.40625 
Q 43.21875 41.609375 39.140625 45 
Q 35.0625 48.390625 27.6875 48.390625 
Q 23 48.390625 18.546875 47.265625 
Q 14.109375 46.140625 10.015625 43.890625 
L 10.015625 52.203125 
Q 14.9375 54.109375 19.578125 55.046875 
Q 24.21875 56 28.609375 56 
Q 40.484375 56 46.34375 49.84375 
Q 52.203125 43.703125 52.203125 31.203125 
z
" id="DejaVuSans-97"/>
      <path d="M 45.40625 46.390625 
L 45.40625 75.984375 
L 54.390625 75.984375 
L 54.390625 0 
L 45.40625 0 
L 45.40625 8.203125 
Q 42.578125 3.328125 38.25 0.953125 
Q 33.9375 -1.421875 27.875 -1.421875 
Q 17.96875 -1.421875 11.734375 6.484375 
Q 5.515625 14.40625 5.515625 27.296875 
Q 5.515625 40.1875 11.734375 48.09375 
Q 17.96875 56 27.875 56 
Q 33.9375 56 38.25 53.625 
Q 42.578125 51.265625 45.40625 46.390625 
z
M 14.796875 27.296875 
Q 14.796875 17.390625 18.875 11.75 
Q 22.953125 6.109375 30.078125 6.109375 
Q 37.203125 6.109375 41.296875 11.75 
Q 45.40625 17.390625 45.40625 27.296875 
Q 45.40625 37.203125 41.296875 42.84375 
Q 37.203125 48.484375 30.078125 48.484375 
Q 22.953125 48.484375 18.875 42.84375 
Q 14.796875 37.203125 14.796875 27.296875 
z
" id="DejaVuSans-100"/>
     </defs>
     <g transform="translate(102.024844 357.832125)scale(0.3 -0.3)">
      <use xlink:href="#DejaVuSans-80"/>
      <use x="60.255859" xlink:href="#DejaVuSans-111"/>
      <use x="121.4375" xlink:href="#DejaVuSans-115"/>
      <use x="173.537109" xlink:href="#DejaVuSans-105"/>
      <use x="201.320312" xlink:href="#DejaVuSans-116"/>
      <use x="240.529297" xlink:href="#DejaVuSans-105"/>
      <use x="268.3125" xlink:href="#DejaVuSans-111"/>
      <use x="329.494141" xlink:href="#DejaVuSans-110"/>
      <use x="392.873047" xlink:href="#DejaVuSans-32"/>
      <use x="424.660156" xlink:href="#DejaVuSans-105"/>
      <use x="452.443359" xlink:href="#DejaVuSans-110"/>
      <use x="515.822266" xlink:href="#DejaVuSans-32"/>
      <use x="547.609375" xlink:href="#DejaVuSans-82"/>
      <use x="617.060547" xlink:href="#DejaVuSans-97"/>
      <use x="678.339844" xlink:href="#DejaVuSans-100"/>
      <use x="741.816406" xlink:href="#DejaVuSans-105"/>
      <use x="769.599609" xlink:href="#DejaVuSans-97"/>
      <use x="830.878906" xlink:href="#DejaVuSans-110"/>
     </g>
    </g>
   </g>
   <g id="matplotlib.axis_2">
    <g id="ytick_1">
     <g id="line2d_6">
      <defs>
       <path d="M 0 0 
L -3.5 0 
" id="mcb77b3ee6a" style="stroke:#000000;stroke-width:0.8;"/>
      </defs>
      <g>
       <use style="stroke:#000000;stroke-width:0.8;" x="57.6" xlink:href="#mcb77b3ee6a" y="307.584"/>
      </g>
     </g>
     <g id="text_7">
      <!-- 0.0 -->
      <defs>
       <path d="M 10.6875 12.40625 
L 21 12.40625 
L 21 0 
L 10.6875 0 
z
" id="DejaVuSans-46"/>
      </defs>
      <g transform="translate(23.564687 314.042672)scale(0.17 -0.17)">
       <use xlink:href="#DejaVuSans-48"/>
       <use x="63.623047" xlink:href="#DejaVuSans-46"/>
       <use x="95.410156" xlink:href="#DejaVuSans-48"/>
      </g>
     </g>
    </g>
    <g id="ytick_2">
     <g id="line2d_7">
      <g>
       <use style="stroke:#000000;stroke-width:0.8;" x="57.6" xlink:href="#mcb77b3ee6a" y="266.994596"/>
      </g>
     </g>
     <g id="text_8">
      <!-- 0.2 -->
      <g transform="translate(23.564687 273.453268)scale(0.17 -0.17)">
       <use xlink:href="#DejaVuSans-48"/>
       <use x="63.623047" xlink:href="#DejaVuSans-46"/>
       <use x="95.410156" xlink:href="#DejaVuSans-50"/>
      </g>
     </g>
    </g>
    <g id="ytick_3">
     <g id="line2d_8">
      <g>
       <use style="stroke:#000000;stroke-width:0.8;" x="57.6" xlink:href="#mcb77b3ee6a" y="226.405193"/>
      </g>
     </g>
     <g id="text_9">
      <!-- 0.4 -->
      <defs>
       <path d="M 37.796875 64.3125 
L 12.890625 25.390625 
L 37.796875 25.390625 
z
M 35.203125 72.90625 
L 47.609375 72.90625 
L 47.609375 25.390625 
L 58.015625 25.390625 
L 58.015625 17.1875 
L 47.609375 17.1875 
L 47.609375 0 
L 37.796875 0 
L 37.796875 17.1875 
L 4.890625 17.1875 
L 4.890625 26.703125 
z
" id="DejaVuSans-52"/>
      </defs>
      <g transform="translate(23.564687 232.863864)scale(0.17 -0.17)">
       <use xlink:href="#DejaVuSans-48"/>
       <use x="63.623047" xlink:href="#DejaVuSans-46"/>
       <use x="95.410156" xlink:href="#DejaVuSans-52"/>
      </g>
     </g>
    </g>
    <g id="ytick_4">
     <g id="line2d_9">
      <g>
       <use style="stroke:#000000;stroke-width:0.8;" x="57.6" xlink:href="#mcb77b3ee6a" y="185.815789"/>
      </g>
     </g>
     <g id="text_10">
      <!-- 0.6 -->
      <defs>
       <path d="M 33.015625 40.375 
Q 26.375 40.375 22.484375 35.828125 
Q 18.609375 31.296875 18.609375 23.390625 
Q 18.609375 15.53125 22.484375 10.953125 
Q 26.375 6.390625 33.015625 6.390625 
Q 39.65625 6.390625 43.53125 10.953125 
Q 47.40625 15.53125 47.40625 23.390625 
Q 47.40625 31.296875 43.53125 35.828125 
Q 39.65625 40.375 33.015625 40.375 
z
M 52.59375 71.296875 
L 52.59375 62.3125 
Q 48.875 64.0625 45.09375 64.984375 
Q 41.3125 65.921875 37.59375 65.921875 
Q 27.828125 65.921875 22.671875 59.328125 
Q 17.53125 52.734375 16.796875 39.40625 
Q 19.671875 43.65625 24.015625 45.921875 
Q 28.375 48.1875 33.59375 48.1875 
Q 44.578125 48.1875 50.953125 41.515625 
Q 57.328125 34.859375 57.328125 23.390625 
Q 57.328125 12.15625 50.6875 5.359375 
Q 44.046875 -1.421875 33.015625 -1.421875 
Q 20.359375 -1.421875 13.671875 8.265625 
Q 6.984375 17.96875 6.984375 36.375 
Q 6.984375 53.65625 15.1875 63.9375 
Q 23.390625 74.21875 37.203125 74.21875 
Q 40.921875 74.21875 44.703125 73.484375 
Q 48.484375 72.75 52.59375 71.296875 
z
" id="DejaVuSans-54"/>
      </defs>
      <g transform="translate(23.564687 192.274461)scale(0.17 -0.17)">
       <use xlink:href="#DejaVuSans-48"/>
       <use x="63.623047" xlink:href="#DejaVuSans-46"/>
       <use x="95.410156" xlink:href="#DejaVuSans-54"/>
      </g>
     </g>
    </g>
    <g id="ytick_5">
     <g id="line2d_10">
      <g>
       <use style="stroke:#000000;stroke-width:0.8;" x="57.6" xlink:href="#mcb77b3ee6a" y="145.226385"/>
      </g>
     </g>
     <g id="text_11">
      <!-- 0.8 -->
      <defs>
       <path d="M 31.78125 34.625 
Q 24.75 34.625 20.71875 30.859375 
Q 16.703125 27.09375 16.703125 20.515625 
Q 16.703125 13.921875 20.71875 10.15625 
Q 24.75 6.390625 31.78125 6.390625 
Q 38.8125 6.390625 42.859375 10.171875 
Q 46.921875 13.96875 46.921875 20.515625 
Q 46.921875 27.09375 42.890625 30.859375 
Q 38.875 34.625 31.78125 34.625 
z
M 21.921875 38.8125 
Q 15.578125 40.375 12.03125 44.71875 
Q 8.5 49.078125 8.5 55.328125 
Q 8.5 64.0625 14.71875 69.140625 
Q 20.953125 74.21875 31.78125 74.21875 
Q 42.671875 74.21875 48.875 69.140625 
Q 55.078125 64.0625 55.078125 55.328125 
Q 55.078125 49.078125 51.53125 44.71875 
Q 48 40.375 41.703125 38.8125 
Q 48.828125 37.15625 52.796875 32.3125 
Q 56.78125 27.484375 56.78125 20.515625 
Q 56.78125 9.90625 50.3125 4.234375 
Q 43.84375 -1.421875 31.78125 -1.421875 
Q 19.734375 -1.421875 13.25 4.234375 
Q 6.78125 9.90625 6.78125 20.515625 
Q 6.78125 27.484375 10.78125 32.3125 
Q 14.796875 37.15625 21.921875 38.8125 
z
M 18.3125 54.390625 
Q 18.3125 48.734375 21.84375 45.5625 
Q 25.390625 42.390625 31.78125 42.390625 
Q 38.140625 42.390625 41.71875 45.5625 
Q 45.3125 48.734375 45.3125 54.390625 
Q 45.3125 60.0625 41.71875 63.234375 
Q 38.140625 66.40625 31.78125 66.40625 
Q 25.390625 66.40625 21.84375 63.234375 
Q 18.3125 60.0625 18.3125 54.390625 
z
" id="DejaVuSans-56"/>
      </defs>
      <g transform="translate(23.564687 151.685057)scale(0.17 -0.17)">
       <use xlink:href="#DejaVuSans-48"/>
       <use x="63.623047" xlink:href="#DejaVuSans-46"/>
       <use x="95.410156" xlink:href="#DejaVuSans-56"/>
      </g>
     </g>
    </g>
    <g id="ytick_6">
     <g id="line2d_11">
      <g>
       <use style="stroke:#000000;stroke-width:0.8;" x="57.6" xlink:href="#mcb77b3ee6a" y="104.636981"/>
      </g>
     </g>
     <g id="text_12">
      <!-- 1.0 -->
      <g transform="translate(23.564687 111.095653)scale(0.17 -0.17)">
       <use xlink:href="#DejaVuSans-49"/>
       <use x="63.623047" xlink:href="#DejaVuSans-46"/>
       <use x="95.410156" xlink:href="#DejaVuSans-48"/>
      </g>
     </g>
    </g>
    <g id="ytick_7">
     <g id="line2d_12">
      <g>
       <use style="stroke:#000000;stroke-width:0.8;" x="57.6" xlink:href="#mcb77b3ee6a" y="64.047578"/>
      </g>
     </g>
     <g id="text_13">
      <!-- 1.2 -->
      <g transform="translate(23.564687 70.50625)scale(0.17 -0.17)">
       <use xlink:href="#DejaVuSans-49"/>
       <use x="63.623047" xlink:href="#DejaVuSans-46"/>
       <use x="95.410156" xlink:href="#DejaVuSans-50"/>
      </g>
     </g>
    </g>
    <g id="text_14">
     <!-- Density -->
     <defs>
      <path d="M 19.671875 64.796875 
L 19.671875 8.109375 
L 31.59375 8.109375 
Q 46.6875 8.109375 53.6875 14.9375 
Q 60.6875 21.78125 60.6875 36.53125 
Q 60.6875 51.171875 53.6875 57.984375 
Q 46.6875 64.796875 31.59375 64.796875 
z
M 9.8125 72.90625 
L 30.078125 72.90625 
Q 51.265625 72.90625 61.171875 64.09375 
Q 71.09375 55.28125 71.09375 36.53125 
Q 71.09375 17.671875 61.125 8.828125 
Q 51.171875 0 30.078125 0 
L 9.8125 0 
z
" id="DejaVuSans-68"/>
      <path d="M 56.203125 29.59375 
L 56.203125 25.203125 
L 14.890625 25.203125 
Q 15.484375 15.921875 20.484375 11.0625 
Q 25.484375 6.203125 34.421875 6.203125 
Q 39.59375 6.203125 44.453125 7.46875 
Q 49.3125 8.734375 54.109375 11.28125 
L 54.109375 2.78125 
Q 49.265625 0.734375 44.1875 -0.34375 
Q 39.109375 -1.421875 33.890625 -1.421875 
Q 20.796875 -1.421875 13.15625 6.1875 
Q 5.515625 13.8125 5.515625 26.8125 
Q 5.515625 40.234375 12.765625 48.109375 
Q 20.015625 56 32.328125 56 
Q 43.359375 56 49.78125 48.890625 
Q 56.203125 41.796875 56.203125 29.59375 
z
M 47.21875 32.234375 
Q 47.125 39.59375 43.09375 43.984375 
Q 39.0625 48.390625 32.421875 48.390625 
Q 24.90625 48.390625 20.390625 44.140625 
Q 15.875 39.890625 15.1875 32.171875 
z
" id="DejaVuSans-101"/>
      <path d="M 32.171875 -5.078125 
Q 28.375 -14.84375 24.75 -17.8125 
Q 21.140625 -20.796875 15.09375 -20.796875 
L 7.90625 -20.796875 
L 7.90625 -13.28125 
L 13.1875 -13.28125 
Q 16.890625 -13.28125 18.9375 -11.515625 
Q 21 -9.765625 23.484375 -3.21875 
L 25.09375 0.875 
L 2.984375 54.6875 
L 12.5 54.6875 
L 29.59375 11.921875 
L 46.6875 54.6875 
L 56.203125 54.6875 
z
" id="DejaVuSans-121"/>
     </defs>
     <g transform="translate(13.325625 231.553781)rotate(-90)scale(0.3 -0.3)">
      <use xlink:href="#DejaVuSans-68"/>
      <use x="77.001953" xlink:href="#DejaVuSans-101"/>
      <use x="138.525391" xlink:href="#DejaVuSans-110"/>
      <use x="201.904297" xlink:href="#DejaVuSans-115"/>
      <use x="254.003906" xlink:href="#DejaVuSans-105"/>
      <use x="281.787109" xlink:href="#DejaVuSans-116"/>
      <use x="320.996094" xlink:href="#DejaVuSans-121"/>
     </g>
    </g>
   </g>
   <g id="line2d_13">
    <path clip-path="url(#p9077d34931)" d="M 73.832727 307.584 
L 98.053571 307.482612 
L 98.334957 307.224186 
L 98.573053 306.672089 
L 98.832794 305.413779 
L 99.135825 302.660606 
L 99.590372 296.046542 
L 100.131499 288.960771 
L 100.412885 287.632001 
L 100.5644 287.555588 
L 100.737561 287.812894 
L 101.148817 288.997013 
L 101.625009 290.952214 
L 102.880424 297.060936 
L 104.200774 298.775062 
L 104.244064 298.737068 
L 104.417224 298.385388 
L 104.69861 297.162907 
L 105.80251 291.564776 
L 106.040605 291.369304 
L 106.257056 291.473935 
L 106.625023 291.981995 
L 107.490826 293.212838 
L 108.356629 293.958815 
L 109.070916 295.185295 
L 109.265722 295.097624 
L 109.676979 294.52047 
L 110.088235 294.159662 
L 110.391266 293.868508 
L 110.629362 293.282776 
L 110.975683 291.691999 
L 111.863132 287.298315 
L 112.642355 285.235623 
L 112.967031 284.764902 
L 113.118546 284.83167 
L 113.313352 285.244747 
L 113.659673 286.658924 
L 114.222445 288.820852 
L 114.525476 289.260703 
L 114.893443 289.385508 
L 115.824181 289.477587 
L 116.105567 288.994856 
L 116.668339 288.014971 
L 116.819855 288.093174 
L 117.014661 288.521239 
L 117.360982 289.997764 
L 117.923754 292.24398 
L 118.20514 292.569902 
L 118.832847 292.908845 
L 119.785231 294.160616 
L 120.023327 293.992357 
L 120.304713 293.471745 
L 120.629389 292.341328 
L 121.192161 289.315158 
L 121.603417 287.680452 
L 121.819868 287.461027 
L 121.993029 287.595465 
L 122.317705 288.263043 
L 122.793897 289.094063 
L 123.118573 289.24025 
L 123.78957 289.18961 
L 124.179182 288.978944 
L 124.590438 288.455215 
L 125.174856 287.30731 
L 125.759273 286.258018 
L 125.975723 286.232661 
L 126.213819 286.493726 
L 127.122913 287.767633 
L 127.361009 287.660085 
L 127.62075 287.256512 
L 128.053651 286.058158 
L 128.508198 284.999674 
L 128.724649 284.926301 
L 128.919454 285.126309 
L 129.287421 285.928324 
L 130.715996 289.323899 
L 130.932447 289.161705 
L 131.343703 288.832045 
L 131.516864 289.00998 
L 131.75496 289.694641 
L 132.902149 293.730611 
L 133.096955 293.702426 
L 133.356696 293.388097 
L 134.092628 292.367635 
L 134.287434 292.490515 
L 134.547175 293.012923 
L 135.066657 294.731196 
L 136.148911 298.266193 
L 136.278781 298.186853 
L 136.451942 297.649522 
L 136.711683 295.880002 
L 137.793937 287.138626 
L 137.923807 287.143554 
L 138.096968 287.484023 
L 138.70303 288.874787 
L 138.854546 288.744534 
L 139.135932 288.0654 
L 139.460608 287.503682 
L 139.590478 287.614772 
L 139.763639 288.160682 
L 140.06667 290.062072 
L 140.867538 295.455986 
L 141.25715 296.511088 
L 142.339403 298.377684 
L 142.490919 298.248449 
L 142.70737 297.685256 
L 143.032046 296.054797 
L 143.551528 292.086827 
L 144.352396 285.981139 
L 144.568847 285.579123 
L 144.698717 285.716522 
L 144.915168 286.433464 
L 145.694391 289.349835 
L 146.322098 290.922731 
L 146.668419 291.659524 
L 146.79829 291.614689 
L 146.949805 291.227622 
L 147.187901 289.851869 
L 147.599158 285.844023 
L 148.724702 274.478222 
L 149.006088 273.494316 
L 149.114313 273.532961 
L 149.265829 273.986879 
L 149.52557 275.676259 
L 150.780984 285.202973 
L 151.170596 286.435247 
L 151.387047 286.620097 
L 151.538562 286.50871 
L 151.776658 285.959067 
L 152.599171 283.703397 
L 152.750687 283.908299 
L 152.988783 284.732224 
L 153.768005 287.757045 
L 153.962811 287.808219 
L 154.135972 287.568856 
L 154.417358 286.689981 
L 154.850259 284.468517 
L 156.560221 273.678085 
L 156.993122 271.26163 
L 157.209573 270.953531 
L 157.361089 271.09574 
L 157.642475 271.830909 
L 158.183602 273.17377 
L 158.486633 273.42144 
L 158.746374 273.385001 
L 158.98447 273.121328 
L 159.265856 272.404569 
L 159.655467 270.628411 
L 160.304819 267.732303 
L 160.542915 267.472332 
L 160.716076 267.601993 
L 160.975817 268.165945 
L 161.690104 269.839428 
L 161.84162 269.790844 
L 162.014781 269.432861 
L 162.274522 268.254827 
L 162.664133 265.239008 
L 163.400066 259.526583 
L 163.551581 259.290676 
L 163.573226 259.298769 
L 163.681452 259.499184 
L 163.876257 260.495501 
L 164.265869 264.055192 
L 164.720416 267.480895 
L 164.915221 267.843173 
L 165.023447 267.721303 
L 165.218252 267.017571 
L 166.084056 263.163404 
L 166.213926 263.273281 
L 166.430377 263.88147 
L 167.923887 269.150458 
L 168.097048 269.11292 
L 168.378434 268.688856 
L 168.638175 268.476751 
L 168.768045 268.65247 
L 168.962851 269.403636 
L 169.287527 271.782092 
L 169.850299 275.698621 
L 170.02346 275.949457 
L 170.045105 275.939017 
L 170.174976 275.685691 
L 170.391426 274.60386 
L 170.759393 271.397739 
L 172.036452 259.291835 
L 172.166323 259.184313 
L 172.187968 259.199207 
L 172.317838 259.46836 
L 172.577579 260.686368 
L 173.075416 262.953702 
L 173.270222 263.106378 
L 173.443383 262.910786 
L 174.006155 262.099723 
L 174.179315 262.236002 
L 174.460701 262.845379 
L 175.153344 264.401096 
L 175.456375 265.149044 
L 175.716116 266.5064 
L 176.105727 270.023263 
L 176.646854 274.498793 
L 176.88495 275.068782 
L 177.014821 274.994321 
L 177.209626 274.500069 
L 177.620883 272.648648 
L 178.703137 267.605795 
L 178.919588 267.401663 
L 179.092748 267.537171 
L 179.828681 268.513857 
L 179.850326 268.495582 
L 180.045132 268.151353 
L 180.369808 266.984265 
L 180.824355 264.461328 
L 181.278901 260.623418 
L 182.231285 252.108606 
L 182.469381 251.587453 
L 182.599251 251.685447 
L 182.772412 252.222352 
L 183.053798 254.015448 
L 183.508344 258.712317 
L 184.222632 265.751124 
L 184.655534 267.941026 
L 185.0235 268.840746 
L 185.239951 268.937671 
L 185.456402 268.746372 
L 185.889303 268.337307 
L 186.040819 268.511952 
L 186.25727 269.216611 
L 186.668526 271.602323 
L 187.144718 273.94424 
L 187.382814 274.32183 
L 187.534329 274.240475 
L 187.729135 273.757957 
L 187.988876 272.421067 
L 188.356842 269.188887 
L 189.482386 258.239741 
L 189.828708 257.073069 
L 190.088449 256.835346 
L 190.304899 256.925041 
L 190.737801 257.134735 
L 190.889316 256.896292 
L 191.084122 256.09735 
L 191.343863 253.947076 
L 191.733475 248.421862 
L 192.512697 236.940109 
L 192.664213 236.449698 
L 192.685858 236.454702 
L 192.772438 236.66715 
L 192.945599 237.994463 
L 193.226985 242.30508 
L 194.330884 261.32102 
L 194.61227 262.638593 
L 194.807076 262.797149 
L 195.066817 262.617521 
L 195.348203 262.524316 
L 195.824395 262.54606 
L 195.997555 262.166835 
L 196.257296 260.929759 
L 196.863358 256.418774 
L 197.772452 250.542168 
L 198.551675 246.63272 
L 199.027866 245.172624 
L 199.330897 244.823416 
L 199.568993 244.841168 
L 199.958605 245.162239 
L 200.478087 245.548496 
L 200.651247 245.44959 
L 200.846053 245.00718 
L 201.084149 243.820014 
L 201.495405 240.330704 
L 201.949952 237.139619 
L 202.101468 236.946114 
L 202.123113 236.965657 
L 202.252983 237.340271 
L 202.469434 238.927618 
L 202.815755 243.519151 
L 203.703203 255.907012 
L 204.02788 257.635227 
L 204.287621 258.082371 
L 204.460781 258.055322 
L 204.677232 257.7395 
L 205.023553 256.739376 
L 205.499745 254.603759 
L 205.997582 251.280302 
L 206.84174 243.761958 
L 207.599318 237.589653 
L 207.988929 236.065961 
L 208.594991 234.18042 
L 209.244344 230.601394 
L 210.110147 225.55108 
L 210.737854 221.385317 
L 210.997595 220.846988 
L 211.408852 220.335281 
L 211.625303 219.344769 
L 211.949979 216.553896 
L 212.577686 211.226938 
L 212.794137 210.768101 
L 212.902362 210.856217 
L 213.075523 211.400104 
L 213.356909 213.238758 
L 213.768165 217.679421 
L 214.460808 225.049951 
L 214.763839 226.27069 
L 215.175096 226.90078 
L 215.521417 227.708682 
L 215.932673 228.566942 
L 216.084189 228.520093 
L 216.25735 228.135873 
L 216.885057 226.124783 
L 216.949992 226.182485 
L 217.101508 226.686659 
L 217.361249 228.628149 
L 217.859085 232.402986 
L 217.945666 232.472029 
L 217.967311 232.447429 
L 218.075536 232.063172 
L 218.270342 230.300131 
L 218.638308 224.245174 
L 219.330951 213.01723 
L 219.612337 211.375898 
L 219.677272 211.342759 
L 219.720562 211.396973 
L 219.850433 211.930476 
L 220.066883 214.032867 
L 220.413205 220.062904 
L 221.408878 238.841108 
L 221.603684 239.53456 
L 221.690264 239.364358 
L 221.84178 238.397631 
L 222.123166 234.743973 
L 222.707583 223.297459 
L 223.378581 211.393186 
L 223.638322 209.872201 
L 223.724902 209.953472 
L 223.854772 210.6243 
L 224.092868 213.327319 
L 225.088542 226.568327 
L 225.153477 226.599217 
L 225.196767 226.534841 
L 225.326638 225.949941 
L 225.564734 223.592932 
L 226.646988 211.112524 
L 226.863438 210.642078 
L 226.971664 210.863629 
L 227.144824 211.970932 
L 227.404565 215.455476 
L 227.880757 225.789857 
L 228.508464 237.961231 
L 228.833141 240.798879 
L 229.006301 241.146838 
L 229.027946 241.13164 
L 229.136172 240.858628 
L 229.330977 239.54789 
L 229.634009 235.615909 
L 230.672972 220.481623 
L 231.192454 216.129209 
L 231.538776 210.24999 
L 232.253063 197.83677 
L 232.426224 197.175089 
L 232.447869 197.183882 
L 232.534449 197.421607 
L 232.70761 198.823352 
L 233.010641 203.643153 
L 233.833154 217.736893 
L 234.07125 218.768106 
L 234.15783 218.604987 
L 234.287701 217.694306 
L 234.482506 214.37591 
L 234.720602 205.64373 
L 235.001988 185.459766 
L 235.369955 140.026995 
L 236.040952 57.050527 
L 236.170823 54.144 
L 236.192468 54.280711 
L 236.279048 56.593886 
L 236.452209 69.099632 
L 236.79853 115.078522 
L 237.404592 190.658068 
L 237.750913 210.010681 
L 238.032299 215.692702 
L 238.16217 216.185651 
L 238.183815 216.160934 
L 238.29204 215.631203 
L 238.508491 212.884102 
L 239.785551 192.725471 
L 240.413258 188.806556 
L 240.521483 188.653974 
L 240.564774 188.685758 
L 240.672999 189.037479 
L 240.84616 190.515249 
L 241.105901 194.951883 
L 241.603737 208.476871 
L 242.123219 220.344002 
L 242.361315 222.132823 
L 242.404605 222.161333 
L 242.447896 222.102022 
L 242.577766 221.433589 
L 242.815862 218.708368 
L 243.53015 209.896925 
L 243.70331 209.541073 
L 243.811536 209.750758 
L 244.006341 210.829481 
L 244.374308 214.489469 
L 245.131885 224.745999 
L 245.629722 230.222419 
L 245.846173 230.916695 
L 245.932753 230.82133 
L 246.084269 230.156766 
L 246.365655 227.555564 
L 247.62107 214.215644 
L 248.032326 208.980577 
L 248.854839 197.637299 
L 249.028 197.16919 
L 249.049645 197.175727 
L 249.15787 197.41019 
L 249.352676 198.569009 
L 249.720642 202.491508 
L 250.326704 211.658156 
L 250.954412 220.277087 
L 251.235798 221.71871 
L 251.452249 221.941471 
L 252.447922 221.804411 
L 252.686018 221.220946 
L 253.530176 218.741212 
L 253.963078 218.221791 
L 254.266109 217.238925 
L 254.677365 216.077291 
L 254.807236 216.129082 
L 254.980397 216.614221 
L 255.326718 218.518675 
L 255.737974 220.304907 
L 255.93278 220.438235 
L 256.105941 220.2121 
L 256.712003 219.214906 
L 256.863518 219.422215 
L 257.101614 220.267534 
L 257.880837 223.511229 
L 257.989063 223.378742 
L 258.162223 222.679719 
L 258.465254 220.247213 
L 259.028026 215.709432 
L 259.157897 215.532393 
L 259.179542 215.552394 
L 259.287767 215.8768 
L 259.482573 217.409136 
L 259.807249 222.263567 
L 260.846213 239.404881 
L 261.170889 241.403867 
L 261.38734 241.702326 
L 261.538856 241.537233 
L 261.863532 240.690227 
L 262.534529 239.104148 
L 264.092975 234.980161 
L 264.612457 233.278145 
L 264.742327 233.278287 
L 264.893843 233.582578 
L 265.175229 234.819776 
L 265.781291 237.466298 
L 266.062677 237.846308 
L 266.365708 237.912541 
L 266.560514 237.77604 
L 266.733675 237.356634 
L 266.950125 236.091023 
L 267.231511 232.736481 
L 268.357056 216.642338 
L 268.573506 216.313164 
L 268.725022 216.449028 
L 268.919828 216.98707 
L 269.157923 218.382923 
L 269.43931 221.614183 
L 269.937146 230.846812 
L 270.348403 236.613492 
L 270.586499 237.611314 
L 270.716369 237.590734 
L 271.149271 237.083763 
L 271.192561 237.133568 
L 271.344077 237.554323 
L 271.603817 239.067418 
L 272.33975 243.643066 
L 272.599491 244.082062 
L 272.815942 244.07611 
L 273.357069 243.914523 
L 273.551875 244.247637 
L 273.78997 245.21172 
L 274.114647 247.637054 
L 275.045385 255.388017 
L 275.131965 255.446678 
L 275.175256 255.405278 
L 275.305126 254.993175 
L 275.521577 253.375019 
L 275.867898 248.796269 
L 277.080023 231.130405 
L 277.318118 230.413066 
L 277.426344 230.497406 
L 277.599504 231.075456 
L 277.945826 233.251837 
L 278.703403 237.951338 
L 279.352756 241.55351 
L 279.764012 245.721924 
L 280.39172 252.128134 
L 280.543235 252.422322 
L 280.56488 252.401719 
L 280.673106 252.056228 
L 280.867911 250.453616 
L 281.214233 245.273868 
L 281.993456 233.50365 
L 282.274842 231.921221 
L 282.404712 231.801121 
L 282.426357 231.817366 
L 282.556228 232.121102 
L 282.772678 233.328079 
L 283.20558 237.376128 
L 283.789997 242.304299 
L 284.093028 243.291984 
L 284.266189 243.349212 
L 284.43935 243.121568 
L 284.785671 242.169836 
L 285.218572 241.145055 
L 285.348443 241.1683 
L 285.499958 241.546244 
L 285.716409 242.893849 
L 286.041085 246.700948 
L 286.841953 256.767422 
L 287.080049 257.484311 
L 287.20992 257.421116 
L 287.42637 256.902213 
L 288.162303 255.000185 
L 288.486979 253.867023 
L 289.114687 251.432205 
L 289.222912 251.506116 
L 289.374428 252.023055 
L 289.634169 253.915523 
L 290.521617 261.125423 
L 290.867938 262.06376 
L 291.214259 262.448764 
L 291.409065 262.392654 
L 291.603871 262.002 
L 291.863612 260.839334 
L 292.642835 256.806105 
L 292.75106 256.902832 
L 292.924221 257.518768 
L 293.616863 260.73883 
L 293.660153 260.702342 
L 293.790024 260.321905 
L 294.006475 258.849795 
L 294.482666 253.547862 
L 295.002148 248.700717 
L 295.261889 247.784018 
L 295.39176 247.793892 
L 295.543275 248.184524 
L 295.824661 249.757274 
L 296.538949 254.025652 
L 296.7554 254.300789 
L 296.88527 254.161458 
L 297.080076 253.525155 
L 297.383107 251.572214 
L 298.487006 243.258475 
L 298.595231 243.335131 
L 298.746747 243.863979 
L 299.006488 245.823334 
L 299.504325 251.837389 
L 300.088742 257.971696 
L 300.456708 259.819424 
L 300.694804 260.209842 
L 300.824675 260.134665 
L 300.997835 259.64704 
L 301.235931 258.093346 
L 301.560607 254.210711 
L 302.33983 244.266916 
L 302.512991 243.900832 
L 302.621216 244.110351 
L 302.816022 245.149967 
L 303.811696 251.515938 
L 304.89395 254.832263 
L 305.02382 254.775259 
L 305.218626 254.334494 
L 306.452395 250.640493 
L 306.971877 249.215979 
L 307.296553 248.666685 
L 307.534649 248.640282 
L 307.816035 248.613334 
L 307.989196 248.332046 
L 308.248937 247.356876 
L 308.833354 244.952627 
L 308.941579 245.007477 
L 309.093095 245.532718 
L 309.331191 247.396972 
L 310.3918 257.278413 
L 310.52167 257.302076 
L 310.673186 257.018584 
L 311.474054 254.864749 
L 311.517344 254.88946 
L 311.668859 255.163614 
L 311.906955 256.165835 
L 312.426437 259.704383 
L 312.902629 262.169406 
L 314.287914 266.571433 
L 314.5693 266.847926 
L 315.521684 267.094312 
L 315.716489 266.821191 
L 315.997875 265.92579 
L 316.668873 263.627734 
L 316.820388 263.618994 
L 316.971904 263.899166 
L 317.21 264.903458 
L 317.686191 268.179358 
L 318.140738 270.623909 
L 318.378834 271.011006 
L 318.551995 270.969861 
L 319.049831 270.694438 
L 319.222992 270.960426 
L 319.461088 271.806928 
L 319.915635 274.509633 
L 320.391826 276.875047 
L 320.651567 277.28701 
L 320.889663 277.274237 
L 321.127759 277.304723 
L 321.30092 277.582653 
L 321.539016 278.452092 
L 322.729495 283.68532 
L 322.88101 283.618998 
L 323.054171 283.210987 
L 323.313912 281.897452 
L 323.855039 277.537391 
L 324.24465 275.360433 
L 324.482746 275.000294 
L 324.699197 275.060999 
L 324.937293 275.075256 
L 325.110454 274.806782 
L 325.34855 273.937163 
L 326.235998 270.134299 
L 326.409158 270.13713 
L 326.603964 270.459761 
L 327.080156 271.891601 
L 327.404832 272.504135 
L 327.556348 272.468499 
L 327.729508 272.104778 
L 328.010894 270.818773 
L 328.660247 267.641888 
L 328.790117 267.618921 
L 328.919988 267.903172 
L 329.158084 269.149987 
L 329.634275 273.275859 
L 330.478433 280.215405 
L 330.824755 281.65988 
L 331.01956 281.805793 
L 331.171076 281.553291 
L 331.430817 280.514353 
L 331.950299 278.398151 
L 332.080169 278.387683 
L 332.231685 278.755214 
L 332.513071 280.277041 
L 332.989263 282.709214 
L 333.140778 282.830031 
L 333.162423 282.815675 
L 333.313939 282.518912 
L 333.66026 281.09279 
L 334.006581 280.079424 
L 334.136452 280.100412 
L 334.287967 280.472027 
L 334.526063 281.782129 
L 335.045545 286.351516 
L 335.478447 289.220232 
L 335.716543 289.709483 
L 335.846413 289.655785 
L 336.041219 289.254476 
L 337.036892 286.716405 
L 337.188408 286.833916 
L 337.404859 287.370453 
L 337.70789 288.861676 
L 338.184082 292.580893 
L 338.811789 297.105509 
L 339.02824 297.523921 
L 339.136465 297.416034 
L 339.309626 296.819209 
L 339.612657 294.805015 
L 340.586685 287.833427 
L 340.954652 286.754533 
L 341.214393 286.565227 
L 341.517424 286.680444 
L 341.8421 286.718622 
L 342.101841 286.480068 
L 342.556388 286.065935 
L 342.707903 286.208259 
L 342.924354 286.811212 
L 343.313965 288.778387 
L 343.703577 290.318772 
L 343.833447 290.390664 
L 343.855092 290.375234 
L 343.984963 290.116294 
L 344.223059 288.972673 
L 345.326958 282.609216 
L 346.257696 280.483012 
L 346.690598 279.324398 
L 346.842113 279.332466 
L 347.015274 279.701154 
L 347.29666 280.973373 
L 348.010948 284.353509 
L 348.227398 284.588428 
L 348.378914 284.461184 
L 348.61701 283.843146 
L 349.439523 281.351717 
L 349.591038 281.395964 
L 349.785844 281.747657 
L 350.132165 282.977392 
L 350.846453 285.544988 
L 351.171129 285.935409 
L 351.539096 286.0268 
L 351.798837 285.90949 
L 352.036932 285.532619 
L 352.404899 284.401011 
L 352.8378 283.286129 
L 353.010961 283.279536 
L 353.205767 283.618918 
L 353.963344 285.352609 
L 353.98499 285.34201 
L 354.136505 285.12015 
L 354.374601 284.264848 
L 354.720922 282.026793 
L 355.175469 277.428675 
L 356.322658 264.86823 
L 356.604044 263.82746 
L 356.71227 263.793208 
L 356.733915 263.813192 
L 356.863785 264.12772 
L 357.080236 265.396786 
L 357.426557 269.090221 
L 358.573746 282.629682 
L 358.920068 284.263466 
L 359.158164 284.609618 
L 359.309679 284.533407 
L 359.52613 284.076936 
L 359.850806 282.776604 
L 360.80319 278.550479 
L 360.93306 278.608028 
L 361.106221 279.099051 
L 361.387607 280.805829 
L 361.993669 286.391124 
L 362.751247 292.621178 
L 363.249084 295.162302 
L 363.508824 295.650161 
L 363.638695 295.54621 
L 363.811856 294.949846 
L 364.049951 293.182676 
L 364.461208 288.026983 
L 364.98069 282.131748 
L 365.197141 281.438015 
L 365.283721 281.513191 
L 365.435237 282.062134 
L 365.759913 284.337501 
L 366.279395 287.619523 
L 366.560781 288.211505 
L 366.733941 288.197441 
L 366.972037 287.887146 
L 367.448229 287.255743 
L 367.62139 287.343134 
L 367.816195 287.761053 
L 368.140871 289.11289 
L 368.876804 292.293674 
L 369.309706 293.119363 
L 370.045638 294.062805 
L 370.240444 293.99274 
L 370.456895 293.602329 
L 370.803216 292.378686 
L 371.647374 289.168758 
L 371.79889 289.1422 
L 371.92876 289.422147 
L 372.123566 290.466981 
L 372.426597 293.586376 
L 373.465561 305.740774 
L 373.811882 307.028043 
L 374.114913 307.428447 
L 374.504525 307.561853 
L 375.673359 307.583992 
L 398.487273 307.584 
L 398.487273 307.584 
" style="fill:none;stroke:#ff7f0e;stroke-linecap:square;stroke-width:1.5;"/>
   </g>
   <g id="patch_103">
    <path d="M 57.6 307.584 
L 57.6 41.472 
" style="fill:none;stroke:#000000;stroke-linecap:square;stroke-linejoin:miter;stroke-width:0.8;"/>
   </g>
   <g id="patch_104">
    <path d="M 414.72 307.584 
L 414.72 41.472 
" style="fill:none;stroke:#000000;stroke-linecap:square;stroke-linejoin:miter;stroke-width:0.8;"/>
   </g>
   <g id="patch_105">
    <path d="M 57.6 307.584 
L 414.72 307.584 
" style="fill:none;stroke:#000000;stroke-linecap:square;stroke-linejoin:miter;stroke-width:0.8;"/>
   </g>
   <g id="patch_106">
    <path d="M 57.6 41.472 
L 414.72 41.472 
" style="fill:none;stroke:#000000;stroke-linecap:square;stroke-linejoin:miter;stroke-width:0.8;"/>
   </g>
  </g>
 </g>
 <defs>
  <clipPath id="p9077d34931">
   <rect height="266.112" width="357.12" x="57.6" y="41.472"/>
  </clipPath>
 </defs>
</svg>
