<?xml version="1.0" encoding="utf-8" standalone="no"?>
<!DOCTYPE svg PUBLIC "-//W3C//DTD SVG 1.1//EN"
  "http://www.w3.org/Graphics/SVG/1.1/DTD/svg11.dtd">
<!-- Created with matplotlib (https://matplotlib.org/) -->
<svg height="345.6pt" version="1.1" viewBox="0 0 460.8 345.6" width="460.8pt" xmlns="http://www.w3.org/2000/svg" xmlns:xlink="http://www.w3.org/1999/xlink">
 <defs>
  <style type="text/css">
*{stroke-linecap:butt;stroke-linejoin:round;}
  </style>
 </defs>
 <g id="figure_1">
  <g id="patch_1">
   <path d="M 0 345.6 
L 460.8 345.6 
L 460.8 0 
L 0 0 
z
" style="fill:#ffffff;"/>
  </g>
  <g id="axes_1">
   <g id="patch_2">
    <path d="M 57.6 307.584 
L 414.72 307.584 
L 414.72 41.472 
L 57.6 41.472 
z
" style="fill:#ffffff;"/>
   </g>
   <g id="patch_3">
    <path clip-path="url(#pad11adf861)" d="M 73.832727 307.584 
L 77.079273 307.584 
L 77.079273 306.861065 
L 73.832727 306.861065 
z
" style="fill:#1f77b4;"/>
   </g>
   <g id="patch_4">
    <path clip-path="url(#pad11adf861)" d="M 77.079273 307.584 
L 80.32582 307.584 
L 80.32582 307.222532 
L 77.079273 307.222532 
z
" style="fill:#1f77b4;"/>
   </g>
   <g id="patch_5">
    <path clip-path="url(#pad11adf861)" d="M 80.32582 307.584 
L 83.572366 307.584 
L 83.572366 307.222532 
L 80.32582 307.222532 
z
" style="fill:#1f77b4;"/>
   </g>
   <g id="patch_6">
    <path clip-path="url(#pad11adf861)" d="M 83.572366 307.584 
L 86.818912 307.584 
L 86.818912 307.222532 
L 83.572366 307.222532 
z
" style="fill:#1f77b4;"/>
   </g>
   <g id="patch_7">
    <path clip-path="url(#pad11adf861)" d="M 86.818912 307.584 
L 90.065458 307.584 
L 90.065458 306.138129 
L 86.818912 306.138129 
z
" style="fill:#1f77b4;"/>
   </g>
   <g id="patch_8">
    <path clip-path="url(#pad11adf861)" d="M 90.065458 307.584 
L 93.312004 307.584 
L 93.312004 305.415194 
L 90.065458 305.415194 
z
" style="fill:#1f77b4;"/>
   </g>
   <g id="patch_9">
    <path clip-path="url(#pad11adf861)" d="M 93.312004 307.584 
L 96.55855 307.584 
L 96.55855 305.776661 
L 93.312004 305.776661 
z
" style="fill:#1f77b4;"/>
   </g>
   <g id="patch_10">
    <path clip-path="url(#pad11adf861)" d="M 96.55855 307.584 
L 99.805096 307.584 
L 99.805096 306.499597 
L 96.55855 306.499597 
z
" style="fill:#1f77b4;"/>
   </g>
   <g id="patch_11">
    <path clip-path="url(#pad11adf861)" d="M 99.805096 307.584 
L 103.051642 307.584 
L 103.051642 306.138129 
L 99.805096 306.138129 
z
" style="fill:#1f77b4;"/>
   </g>
   <g id="patch_12">
    <path clip-path="url(#pad11adf861)" d="M 103.051642 307.584 
L 106.298189 307.584 
L 106.298189 306.499597 
L 103.051642 306.499597 
z
" style="fill:#1f77b4;"/>
   </g>
   <g id="patch_13">
    <path clip-path="url(#pad11adf861)" d="M 106.298189 307.584 
L 109.544721 307.584 
L 109.544721 306.499592 
L 106.298189 306.499592 
z
" style="fill:#1f77b4;"/>
   </g>
   <g id="patch_14">
    <path clip-path="url(#pad11adf861)" d="M 109.544721 307.584 
L 112.791267 307.584 
L 112.791267 306.138129 
L 109.544721 306.138129 
z
" style="fill:#1f77b4;"/>
   </g>
   <g id="patch_15">
    <path clip-path="url(#pad11adf861)" d="M 112.791267 307.584 
L 116.037813 307.584 
L 116.037813 305.776661 
L 112.791267 305.776661 
z
" style="fill:#1f77b4;"/>
   </g>
   <g id="patch_16">
    <path clip-path="url(#pad11adf861)" d="M 116.037813 307.584 
L 119.28436 307.584 
L 119.28436 305.415194 
L 116.037813 305.415194 
z
" style="fill:#1f77b4;"/>
   </g>
   <g id="patch_17">
    <path clip-path="url(#pad11adf861)" d="M 119.28436 307.584 
L 122.530906 307.584 
L 122.530906 302.523452 
L 119.28436 302.523452 
z
" style="fill:#1f77b4;"/>
   </g>
   <g id="patch_18">
    <path clip-path="url(#pad11adf861)" d="M 122.530906 307.584 
L 125.777452 307.584 
L 125.777452 303.607855 
L 122.530906 303.607855 
z
" style="fill:#1f77b4;"/>
   </g>
   <g id="patch_19">
    <path clip-path="url(#pad11adf861)" d="M 125.777452 307.584 
L 129.023998 307.584 
L 129.023998 304.33079 
L 125.777452 304.33079 
z
" style="fill:#1f77b4;"/>
   </g>
   <g id="patch_20">
    <path clip-path="url(#pad11adf861)" d="M 129.023998 307.584 
L 132.270544 307.584 
L 132.270544 303.246387 
L 129.023998 303.246387 
z
" style="fill:#1f77b4;"/>
   </g>
   <g id="patch_21">
    <path clip-path="url(#pad11adf861)" d="M 132.270544 307.584 
L 135.51709 307.584 
L 135.51709 304.692258 
L 132.270544 304.692258 
z
" style="fill:#1f77b4;"/>
   </g>
   <g id="patch_22">
    <path clip-path="url(#pad11adf861)" d="M 135.51709 307.584 
L 138.763636 307.584 
L 138.763636 305.776661 
L 135.51709 305.776661 
z
" style="fill:#1f77b4;"/>
   </g>
   <g id="patch_23">
    <path clip-path="url(#pad11adf861)" d="M 138.763636 307.584 
L 142.010182 307.584 
L 142.010182 303.969323 
L 138.763636 303.969323 
z
" style="fill:#1f77b4;"/>
   </g>
   <g id="patch_24">
    <path clip-path="url(#pad11adf861)" d="M 142.010182 307.584 
L 145.256729 307.584 
L 145.256729 306.138129 
L 142.010182 306.138129 
z
" style="fill:#1f77b4;"/>
   </g>
   <g id="patch_25">
    <path clip-path="url(#pad11adf861)" d="M 145.256729 307.584 
L 148.503275 307.584 
L 148.503275 304.692258 
L 145.256729 304.692258 
z
" style="fill:#1f77b4;"/>
   </g>
   <g id="patch_26">
    <path clip-path="url(#pad11adf861)" d="M 148.503275 307.584 
L 151.749821 307.584 
L 151.749821 303.246387 
L 148.503275 303.246387 
z
" style="fill:#1f77b4;"/>
   </g>
   <g id="patch_27">
    <path clip-path="url(#pad11adf861)" d="M 151.749821 307.584 
L 154.996367 307.584 
L 154.996367 302.161984 
L 151.749821 302.161984 
z
" style="fill:#1f77b4;"/>
   </g>
   <g id="patch_28">
    <path clip-path="url(#pad11adf861)" d="M 154.996367 307.584 
L 158.242906 307.584 
L 158.242906 299.631694 
L 154.996367 299.631694 
z
" style="fill:#1f77b4;"/>
   </g>
   <g id="patch_29">
    <path clip-path="url(#pad11adf861)" d="M 158.242906 307.584 
L 161.489453 307.584 
L 161.489453 298.185839 
L 158.242906 298.185839 
z
" style="fill:#1f77b4;"/>
   </g>
   <g id="patch_30">
    <path clip-path="url(#pad11adf861)" d="M 161.489453 307.584 
L 164.735999 307.584 
L 164.735999 293.125291 
L 161.489453 293.125291 
z
" style="fill:#1f77b4;"/>
   </g>
   <g id="patch_31">
    <path clip-path="url(#pad11adf861)" d="M 164.735999 307.584 
L 167.982545 307.584 
L 167.982545 293.125291 
L 164.735999 293.125291 
z
" style="fill:#1f77b4;"/>
   </g>
   <g id="patch_32">
    <path clip-path="url(#pad11adf861)" d="M 167.982545 307.584 
L 171.229091 307.584 
L 171.229091 288.42621 
L 167.982545 288.42621 
z
" style="fill:#1f77b4;"/>
   </g>
   <g id="patch_33">
    <path clip-path="url(#pad11adf861)" d="M 171.229091 307.584 
L 174.475637 307.584 
L 174.475637 285.173001 
L 171.229091 285.173001 
z
" style="fill:#1f77b4;"/>
   </g>
   <g id="patch_34">
    <path clip-path="url(#pad11adf861)" d="M 174.475637 307.584 
L 177.722183 307.584 
L 177.722183 284.450066 
L 174.475637 284.450066 
z
" style="fill:#1f77b4;"/>
   </g>
   <g id="patch_35">
    <path clip-path="url(#pad11adf861)" d="M 177.722183 307.584 
L 180.968726 307.584 
L 180.968726 280.112424 
L 177.722183 280.112424 
z
" style="fill:#1f77b4;"/>
   </g>
   <g id="patch_36">
    <path clip-path="url(#pad11adf861)" d="M 180.968726 307.584 
L 184.215272 307.584 
L 184.215272 275.051905 
L 180.968726 275.051905 
z
" style="fill:#1f77b4;"/>
   </g>
   <g id="patch_37">
    <path clip-path="url(#pad11adf861)" d="M 184.215272 307.584 
L 187.461818 307.584 
L 187.461818 271.07576 
L 184.215272 271.07576 
z
" style="fill:#1f77b4;"/>
   </g>
   <g id="patch_38">
    <path clip-path="url(#pad11adf861)" d="M 187.461818 307.584 
L 190.708364 307.584 
L 190.708364 270.714292 
L 187.461818 270.714292 
z
" style="fill:#1f77b4;"/>
   </g>
   <g id="patch_39">
    <path clip-path="url(#pad11adf861)" d="M 190.708364 307.584 
L 193.95491 307.584 
L 193.95491 266.738147 
L 190.708364 266.738147 
z
" style="fill:#1f77b4;"/>
   </g>
   <g id="patch_40">
    <path clip-path="url(#pad11adf861)" d="M 193.954907 307.584 
L 197.20145 307.584 
L 197.20145 253.725253 
L 193.954907 253.725253 
z
" style="fill:#1f77b4;"/>
   </g>
   <g id="patch_41">
    <path clip-path="url(#pad11adf861)" d="M 197.201453 307.584 
L 200.447999 307.584 
L 200.447999 250.833567 
L 197.201453 250.833567 
z
" style="fill:#1f77b4;"/>
   </g>
   <g id="patch_42">
    <path clip-path="url(#pad11adf861)" d="M 200.447999 307.584 
L 203.694545 307.584 
L 203.694545 247.21889 
L 200.447999 247.21889 
z
" style="fill:#1f77b4;"/>
   </g>
   <g id="patch_43">
    <path clip-path="url(#pad11adf861)" d="M 203.694545 307.584 
L 206.941092 307.584 
L 206.941092 236.736326 
L 203.694545 236.736326 
z
" style="fill:#1f77b4;"/>
   </g>
   <g id="patch_44">
    <path clip-path="url(#pad11adf861)" d="M 206.941092 307.584 
L 210.187636 307.584 
L 210.187636 229.506931 
L 206.941092 229.506931 
z
" style="fill:#1f77b4;"/>
   </g>
   <g id="patch_45">
    <path clip-path="url(#pad11adf861)" d="M 210.187636 307.584 
L 213.434182 307.584 
L 213.434182 224.807891 
L 210.187636 224.807891 
z
" style="fill:#1f77b4;"/>
   </g>
   <g id="patch_46">
    <path clip-path="url(#pad11adf861)" d="M 213.43418 307.584 
L 216.680725 307.584 
L 216.680725 233.12161 
L 213.43418 233.12161 
z
" style="fill:#1f77b4;"/>
   </g>
   <g id="patch_47">
    <path clip-path="url(#pad11adf861)" d="M 216.680727 307.584 
L 219.927273 307.584 
L 219.927273 221.916149 
L 216.680727 221.916149 
z
" style="fill:#1f77b4;"/>
   </g>
   <g id="patch_48">
    <path clip-path="url(#pad11adf861)" d="M 219.927273 307.584 
L 223.173818 307.584 
L 223.173818 229.868419 
L 219.927273 229.868419 
z
" style="fill:#1f77b4;"/>
   </g>
   <g id="patch_49">
    <path clip-path="url(#pad11adf861)" d="M 223.173818 307.584 
L 226.420364 307.584 
L 226.420364 212.879443 
L 223.173818 212.879443 
z
" style="fill:#1f77b4;"/>
   </g>
   <g id="patch_50">
    <path clip-path="url(#pad11adf861)" d="M 226.420364 307.584 
L 229.666909 307.584 
L 229.666909 182.516134 
L 226.420364 182.516134 
z
" style="fill:#1f77b4;"/>
   </g>
   <g id="patch_51">
    <path clip-path="url(#pad11adf861)" d="M 229.666909 307.584 
L 232.913455 307.584 
L 232.913455 136.609732 
L 229.666909 136.609732 
z
" style="fill:#1f77b4;"/>
   </g>
   <g id="patch_52">
    <path clip-path="url(#pad11adf861)" d="M 232.913455 307.584 
L 236.16 307.584 
L 236.16 169.86477 
L 232.913455 169.86477 
z
" style="fill:#1f77b4;"/>
   </g>
   <g id="patch_53">
    <path clip-path="url(#pad11adf861)" d="M 236.16 307.584 
L 239.406545 307.584 
L 239.406545 155.406048 
L 236.16 155.406048 
z
" style="fill:#1f77b4;"/>
   </g>
   <g id="patch_54">
    <path clip-path="url(#pad11adf861)" d="M 239.406544 307.584 
L 242.65309 307.584 
L 242.65309 187.576684 
L 239.406544 187.576684 
z
" style="fill:#1f77b4;"/>
   </g>
   <g id="patch_55">
    <path clip-path="url(#pad11adf861)" d="M 242.653091 307.584 
L 245.899637 307.584 
L 245.899637 200.951021 
L 242.653091 200.951021 
z
" style="fill:#1f77b4;"/>
   </g>
   <g id="patch_56">
    <path clip-path="url(#pad11adf861)" d="M 245.899635 307.584 
L 249.146179 307.584 
L 249.146179 209.987664 
L 245.899635 209.987664 
z
" style="fill:#1f77b4;"/>
   </g>
   <g id="patch_57">
    <path clip-path="url(#pad11adf861)" d="M 249.146181 307.584 
L 252.392727 307.584 
L 252.392727 205.288633 
L 249.146181 205.288633 
z
" style="fill:#1f77b4;"/>
   </g>
   <g id="patch_58">
    <path clip-path="url(#pad11adf861)" d="M 252.392727 307.584 
L 255.639273 307.584 
L 255.639273 204.20423 
L 252.392727 204.20423 
z
" style="fill:#1f77b4;"/>
   </g>
   <g id="patch_59">
    <path clip-path="url(#pad11adf861)" d="M 255.639273 307.584 
L 258.885818 307.584 
L 258.885818 220.470233 
L 255.639273 220.470233 
z
" style="fill:#1f77b4;"/>
   </g>
   <g id="patch_60">
    <path clip-path="url(#pad11adf861)" d="M 258.885816 307.584 
L 262.132362 307.584 
L 262.132362 235.290417 
L 258.885816 235.290417 
z
" style="fill:#1f77b4;"/>
   </g>
   <g id="patch_61">
    <path clip-path="url(#pad11adf861)" d="M 262.132362 307.584 
L 265.378908 307.584 
L 265.378908 230.952842 
L 262.132362 230.952842 
z
" style="fill:#1f77b4;"/>
   </g>
   <g id="patch_62">
    <path clip-path="url(#pad11adf861)" d="M 265.378908 307.584 
L 268.625455 307.584 
L 268.625455 233.121648 
L 265.378908 233.121648 
z
" style="fill:#1f77b4;"/>
   </g>
   <g id="patch_63">
    <path clip-path="url(#pad11adf861)" d="M 268.625455 307.584 
L 271.872001 307.584 
L 271.872001 239.989535 
L 268.625455 239.989535 
z
" style="fill:#1f77b4;"/>
   </g>
   <g id="patch_64">
    <path clip-path="url(#pad11adf861)" d="M 271.872001 307.584 
L 275.118547 307.584 
L 275.118547 236.374858 
L 271.872001 236.374858 
z
" style="fill:#1f77b4;"/>
   </g>
   <g id="patch_65">
    <path clip-path="url(#pad11adf861)" d="M 275.118547 307.584 
L 278.36509 307.584 
L 278.36509 237.820657 
L 275.118547 237.820657 
z
" style="fill:#1f77b4;"/>
   </g>
   <g id="patch_66">
    <path clip-path="url(#pad11adf861)" d="M 278.36509 307.584 
L 281.611636 307.584 
L 281.611636 242.881277 
L 278.36509 242.881277 
z
" style="fill:#1f77b4;"/>
   </g>
   <g id="patch_67">
    <path clip-path="url(#pad11adf861)" d="M 281.611636 307.584 
L 284.858182 307.584 
L 284.858182 250.110631 
L 281.611636 250.110631 
z
" style="fill:#1f77b4;"/>
   </g>
   <g id="patch_68">
    <path clip-path="url(#pad11adf861)" d="M 284.858178 307.584 
L 288.104718 307.584 
L 288.104718 247.580295 
L 284.858178 247.580295 
z
" style="fill:#1f77b4;"/>
   </g>
   <g id="patch_69">
    <path clip-path="url(#pad11adf861)" d="M 288.104725 307.584 
L 291.351271 307.584 
L 291.351271 248.303293 
L 288.104725 248.303293 
z
" style="fill:#1f77b4;"/>
   </g>
   <g id="patch_70">
    <path clip-path="url(#pad11adf861)" d="M 291.351271 307.584 
L 294.597817 307.584 
L 294.597817 246.857422 
L 291.351271 246.857422 
z
" style="fill:#1f77b4;"/>
   </g>
   <g id="patch_71">
    <path clip-path="url(#pad11adf861)" d="M 294.597817 307.584 
L 297.844363 307.584 
L 297.844363 257.339986 
L 294.597817 257.339986 
z
" style="fill:#1f77b4;"/>
   </g>
   <g id="patch_72">
    <path clip-path="url(#pad11adf861)" d="M 297.844363 307.584 
L 301.090909 307.584 
L 301.090909 254.448244 
L 297.844363 254.448244 
z
" style="fill:#1f77b4;"/>
   </g>
   <g id="patch_73">
    <path clip-path="url(#pad11adf861)" d="M 301.090909 307.584 
L 304.337455 307.584 
L 304.337455 258.785857 
L 301.090909 258.785857 
z
" style="fill:#1f77b4;"/>
   </g>
   <g id="patch_74">
    <path clip-path="url(#pad11adf861)" d="M 304.337455 307.584 
L 307.584001 307.584 
L 307.584001 269.268421 
L 304.337455 269.268421 
z
" style="fill:#1f77b4;"/>
   </g>
   <g id="patch_75">
    <path clip-path="url(#pad11adf861)" d="M 307.584001 307.584 
L 310.830547 307.584 
L 310.830547 268.545486 
L 307.584001 268.545486 
z
" style="fill:#1f77b4;"/>
   </g>
   <g id="patch_76">
    <path clip-path="url(#pad11adf861)" d="M 310.830547 307.584 
L 314.077094 307.584 
L 314.077094 268.545486 
L 310.830547 268.545486 
z
" style="fill:#1f77b4;"/>
   </g>
   <g id="patch_77">
    <path clip-path="url(#pad11adf861)" d="M 314.077087 307.584 
L 317.323626 307.584 
L 317.323626 277.943585 
L 314.077087 277.943585 
z
" style="fill:#1f77b4;"/>
   </g>
   <g id="patch_78">
    <path clip-path="url(#pad11adf861)" d="M 317.323633 307.584 
L 320.570179 307.584 
L 320.570179 276.497776 
L 317.323633 276.497776 
z
" style="fill:#1f77b4;"/>
   </g>
   <g id="patch_79">
    <path clip-path="url(#pad11adf861)" d="M 320.570179 307.584 
L 323.816725 307.584 
L 323.816725 283.72713 
L 320.570179 283.72713 
z
" style="fill:#1f77b4;"/>
   </g>
   <g id="patch_80">
    <path clip-path="url(#pad11adf861)" d="M 323.816725 307.584 
L 327.063271 307.584 
L 327.063271 278.305114 
L 323.816725 278.305114 
z
" style="fill:#1f77b4;"/>
   </g>
   <g id="patch_81">
    <path clip-path="url(#pad11adf861)" d="M 327.063271 307.584 
L 330.309818 307.584 
L 330.309818 280.112453 
L 327.063271 280.112453 
z
" style="fill:#1f77b4;"/>
   </g>
   <g id="patch_82">
    <path clip-path="url(#pad11adf861)" d="M 330.309818 307.584 
L 333.556364 307.584 
L 333.556364 286.618872 
L 330.309818 286.618872 
z
" style="fill:#1f77b4;"/>
   </g>
   <g id="patch_83">
    <path clip-path="url(#pad11adf861)" d="M 333.556364 307.584 
L 336.80291 307.584 
L 336.80291 288.42621 
L 333.556364 288.42621 
z
" style="fill:#1f77b4;"/>
   </g>
   <g id="patch_84">
    <path clip-path="url(#pad11adf861)" d="M 336.80291 307.584 
L 340.049456 307.584 
L 340.049456 289.149146 
L 336.80291 289.149146 
z
" style="fill:#1f77b4;"/>
   </g>
   <g id="patch_85">
    <path clip-path="url(#pad11adf861)" d="M 340.049456 307.584 
L 343.296002 307.584 
L 343.296002 293.848226 
L 340.049456 293.848226 
z
" style="fill:#1f77b4;"/>
   </g>
   <g id="patch_86">
    <path clip-path="url(#pad11adf861)" d="M 343.296002 307.584 
L 346.542548 307.584 
L 346.542548 294.93263 
L 343.296002 294.93263 
z
" style="fill:#1f77b4;"/>
   </g>
   <g id="patch_87">
    <path clip-path="url(#pad11adf861)" d="M 346.542548 307.584 
L 349.789094 307.584 
L 349.789094 296.3785 
L 346.542548 296.3785 
z
" style="fill:#1f77b4;"/>
   </g>
   <g id="patch_88">
    <path clip-path="url(#pad11adf861)" d="M 349.789094 307.584 
L 353.03564 307.584 
L 353.03564 295.655565 
L 349.789094 295.655565 
z
" style="fill:#1f77b4;"/>
   </g>
   <g id="patch_89">
    <path clip-path="url(#pad11adf861)" d="M 353.03564 307.584 
L 356.282187 307.584 
L 356.282187 295.655565 
L 353.03564 295.655565 
z
" style="fill:#1f77b4;"/>
   </g>
   <g id="patch_90">
    <path clip-path="url(#pad11adf861)" d="M 356.282187 307.584 
L 359.528733 307.584 
L 359.528733 296.3785 
L 356.282187 296.3785 
z
" style="fill:#1f77b4;"/>
   </g>
   <g id="patch_91">
    <path clip-path="url(#pad11adf861)" d="M 359.528733 307.584 
L 362.775279 307.584 
L 362.775279 300.354645 
L 359.528733 300.354645 
z
" style="fill:#1f77b4;"/>
   </g>
   <g id="patch_92">
    <path clip-path="url(#pad11adf861)" d="M 362.775279 307.584 
L 366.021825 307.584 
L 366.021825 298.908775 
L 362.775279 298.908775 
z
" style="fill:#1f77b4;"/>
   </g>
   <g id="patch_93">
    <path clip-path="url(#pad11adf861)" d="M 366.021825 307.584 
L 369.268358 307.584 
L 369.268358 304.692246 
L 366.021825 304.692246 
z
" style="fill:#1f77b4;"/>
   </g>
   <g id="patch_94">
    <path clip-path="url(#pad11adf861)" d="M 369.268358 307.584 
L 372.514904 307.584 
L 372.514904 302.88492 
L 369.268358 302.88492 
z
" style="fill:#1f77b4;"/>
   </g>
   <g id="patch_95">
    <path clip-path="url(#pad11adf861)" d="M 372.514904 307.584 
L 375.76145 307.584 
L 375.76145 302.88492 
L 372.514904 302.88492 
z
" style="fill:#1f77b4;"/>
   </g>
   <g id="patch_96">
    <path clip-path="url(#pad11adf861)" d="M 375.76145 307.584 
L 379.007996 307.584 
L 379.007996 302.88492 
L 375.76145 302.88492 
z
" style="fill:#1f77b4;"/>
   </g>
   <g id="patch_97">
    <path clip-path="url(#pad11adf861)" d="M 379.007996 307.584 
L 382.254542 307.584 
L 382.254542 300.716113 
L 379.007996 300.716113 
z
" style="fill:#1f77b4;"/>
   </g>
   <g id="patch_98">
    <path clip-path="url(#pad11adf861)" d="M 382.254542 307.584 
L 385.501088 307.584 
L 385.501088 303.969323 
L 382.254542 303.969323 
z
" style="fill:#1f77b4;"/>
   </g>
   <g id="patch_99">
    <path clip-path="url(#pad11adf861)" d="M 385.501088 307.584 
L 388.747634 307.584 
L 388.747634 301.800516 
L 385.501088 301.800516 
z
" style="fill:#1f77b4;"/>
   </g>
   <g id="patch_100">
    <path clip-path="url(#pad11adf861)" d="M 388.747634 307.584 
L 391.99418 307.584 
L 391.99418 303.246387 
L 388.747634 303.246387 
z
" style="fill:#1f77b4;"/>
   </g>
   <g id="patch_101">
    <path clip-path="url(#pad11adf861)" d="M 391.99418 307.584 
L 395.240727 307.584 
L 395.240727 303.969323 
L 391.99418 303.969323 
z
" style="fill:#1f77b4;"/>
   </g>
   <g id="patch_102">
    <path clip-path="url(#pad11adf861)" d="M 395.240727 307.584 
L 398.487273 307.584 
L 398.487273 305.053726 
L 395.240727 305.053726 
z
" style="fill:#1f77b4;"/>
   </g>
   <g id="matplotlib.axis_1">
    <g id="xtick_1">
     <g id="line2d_1">
      <defs>
       <path d="M 0 0 
L 0 3.5 
" id="mc269c3cf2f" style="stroke:#000000;stroke-width:0.8;"/>
      </defs>
      <g>
       <use style="stroke:#000000;stroke-width:0.8;" x="63.103808" xlink:href="#mc269c3cf2f" y="307.584"/>
      </g>
     </g>
     <g id="text_1">
      <!-- −3 -->
      <defs>
       <path d="M 10.59375 35.5 
L 73.1875 35.5 
L 73.1875 27.203125 
L 10.59375 27.203125 
z
" id="DejaVuSans-8722"/>
       <path d="M 40.578125 39.3125 
Q 47.65625 37.796875 51.625 33 
Q 55.609375 28.21875 55.609375 21.1875 
Q 55.609375 10.40625 48.1875 4.484375 
Q 40.765625 -1.421875 27.09375 -1.421875 
Q 22.515625 -1.421875 17.65625 -0.515625 
Q 12.796875 0.390625 7.625 2.203125 
L 7.625 11.71875 
Q 11.71875 9.328125 16.59375 8.109375 
Q 21.484375 6.890625 26.8125 6.890625 
Q 36.078125 6.890625 40.9375 10.546875 
Q 45.796875 14.203125 45.796875 21.1875 
Q 45.796875 27.640625 41.28125 31.265625 
Q 36.765625 34.90625 28.71875 34.90625 
L 20.21875 34.90625 
L 20.21875 43.015625 
L 29.109375 43.015625 
Q 36.375 43.015625 40.234375 45.921875 
Q 44.09375 48.828125 44.09375 54.296875 
Q 44.09375 59.90625 40.109375 62.90625 
Q 36.140625 65.921875 28.71875 65.921875 
Q 24.65625 65.921875 20.015625 65.03125 
Q 15.375 64.15625 9.8125 62.3125 
L 9.8125 71.09375 
Q 15.4375 72.65625 20.34375 73.4375 
Q 25.25 74.21875 29.59375 74.21875 
Q 40.828125 74.21875 47.359375 69.109375 
Q 53.90625 64.015625 53.90625 55.328125 
Q 53.90625 49.265625 50.4375 45.09375 
Q 46.96875 40.921875 40.578125 39.3125 
z
" id="DejaVuSans-51"/>
      </defs>
      <g transform="translate(50.572949 327.501344)scale(0.17 -0.17)">
       <use xlink:href="#DejaVuSans-8722"/>
       <use x="83.789062" xlink:href="#DejaVuSans-51"/>
      </g>
     </g>
    </g>
    <g id="xtick_2">
     <g id="line2d_2">
      <g>
       <use style="stroke:#000000;stroke-width:0.8;" x="119.3097" xlink:href="#mc269c3cf2f" y="307.584"/>
      </g>
     </g>
     <g id="text_2">
      <!-- −2 -->
      <defs>
       <path d="M 19.1875 8.296875 
L 53.609375 8.296875 
L 53.609375 0 
L 7.328125 0 
L 7.328125 8.296875 
Q 12.9375 14.109375 22.625 23.890625 
Q 32.328125 33.6875 34.8125 36.53125 
Q 39.546875 41.84375 41.421875 45.53125 
Q 43.3125 49.21875 43.3125 52.78125 
Q 43.3125 58.59375 39.234375 62.25 
Q 35.15625 65.921875 28.609375 65.921875 
Q 23.96875 65.921875 18.8125 64.3125 
Q 13.671875 62.703125 7.8125 59.421875 
L 7.8125 69.390625 
Q 13.765625 71.78125 18.9375 73 
Q 24.125 74.21875 28.421875 74.21875 
Q 39.75 74.21875 46.484375 68.546875 
Q 53.21875 62.890625 53.21875 53.421875 
Q 53.21875 48.921875 51.53125 44.890625 
Q 49.859375 40.875 45.40625 35.40625 
Q 44.1875 33.984375 37.640625 27.21875 
Q 31.109375 20.453125 19.1875 8.296875 
z
" id="DejaVuSans-50"/>
      </defs>
      <g transform="translate(106.778841 327.501344)scale(0.17 -0.17)">
       <use xlink:href="#DejaVuSans-8722"/>
       <use x="83.789062" xlink:href="#DejaVuSans-50"/>
      </g>
     </g>
    </g>
    <g id="xtick_3">
     <g id="line2d_3">
      <g>
       <use style="stroke:#000000;stroke-width:0.8;" x="175.515592" xlink:href="#mc269c3cf2f" y="307.584"/>
      </g>
     </g>
     <g id="text_3">
      <!-- −1 -->
      <defs>
       <path d="M 12.40625 8.296875 
L 28.515625 8.296875 
L 28.515625 63.921875 
L 10.984375 60.40625 
L 10.984375 69.390625 
L 28.421875 72.90625 
L 38.28125 72.90625 
L 38.28125 8.296875 
L 54.390625 8.296875 
L 54.390625 0 
L 12.40625 0 
z
" id="DejaVuSans-49"/>
      </defs>
      <g transform="translate(162.984732 327.501344)scale(0.17 -0.17)">
       <use xlink:href="#DejaVuSans-8722"/>
       <use x="83.789062" xlink:href="#DejaVuSans-49"/>
      </g>
     </g>
    </g>
    <g id="xtick_4">
     <g id="line2d_4">
      <g>
       <use style="stroke:#000000;stroke-width:0.8;" x="231.721484" xlink:href="#mc269c3cf2f" y="307.584"/>
      </g>
     </g>
     <g id="text_4">
      <!-- 0 -->
      <defs>
       <path d="M 31.78125 66.40625 
Q 24.171875 66.40625 20.328125 58.90625 
Q 16.5 51.421875 16.5 36.375 
Q 16.5 21.390625 20.328125 13.890625 
Q 24.171875 6.390625 31.78125 6.390625 
Q 39.453125 6.390625 43.28125 13.890625 
Q 47.125 21.390625 47.125 36.375 
Q 47.125 51.421875 43.28125 58.90625 
Q 39.453125 66.40625 31.78125 66.40625 
z
M 31.78125 74.21875 
Q 44.046875 74.21875 50.515625 64.515625 
Q 56.984375 54.828125 56.984375 36.375 
Q 56.984375 17.96875 50.515625 8.265625 
Q 44.046875 -1.421875 31.78125 -1.421875 
Q 19.53125 -1.421875 13.0625 8.265625 
Q 6.59375 17.96875 6.59375 36.375 
Q 6.59375 54.828125 13.0625 64.515625 
Q 19.53125 74.21875 31.78125 74.21875 
z
" id="DejaVuSans-48"/>
      </defs>
      <g transform="translate(226.313359 327.501344)scale(0.17 -0.17)">
       <use xlink:href="#DejaVuSans-48"/>
      </g>
     </g>
    </g>
    <g id="xtick_5">
     <g id="line2d_5">
      <g>
       <use style="stroke:#000000;stroke-width:0.8;" x="287.927375" xlink:href="#mc269c3cf2f" y="307.584"/>
      </g>
     </g>
     <g id="text_5">
      <!-- 1 -->
      <g transform="translate(282.51925 327.501344)scale(0.17 -0.17)">
       <use xlink:href="#DejaVuSans-49"/>
      </g>
     </g>
    </g>
    <g id="xtick_6">
     <g id="line2d_6">
      <g>
       <use style="stroke:#000000;stroke-width:0.8;" x="344.133267" xlink:href="#mc269c3cf2f" y="307.584"/>
      </g>
     </g>
     <g id="text_6">
      <!-- 2 -->
      <g transform="translate(338.725142 327.501344)scale(0.17 -0.17)">
       <use xlink:href="#DejaVuSans-50"/>
      </g>
     </g>
    </g>
    <g id="xtick_7">
     <g id="line2d_7">
      <g>
       <use style="stroke:#000000;stroke-width:0.8;" x="400.339159" xlink:href="#mc269c3cf2f" y="307.584"/>
      </g>
     </g>
     <g id="text_7">
      <!-- 3 -->
      <g transform="translate(394.931034 327.501344)scale(0.17 -0.17)">
       <use xlink:href="#DejaVuSans-51"/>
      </g>
     </g>
    </g>
    <g id="text_8">
     <!-- Position in Radian -->
     <defs>
      <path d="M 19.671875 64.796875 
L 19.671875 37.40625 
L 32.078125 37.40625 
Q 38.96875 37.40625 42.71875 40.96875 
Q 46.484375 44.53125 46.484375 51.125 
Q 46.484375 57.671875 42.71875 61.234375 
Q 38.96875 64.796875 32.078125 64.796875 
z
M 9.8125 72.90625 
L 32.078125 72.90625 
Q 44.34375 72.90625 50.609375 67.359375 
Q 56.890625 61.8125 56.890625 51.125 
Q 56.890625 40.328125 50.609375 34.8125 
Q 44.34375 29.296875 32.078125 29.296875 
L 19.671875 29.296875 
L 19.671875 0 
L 9.8125 0 
z
" id="DejaVuSans-80"/>
      <path d="M 30.609375 48.390625 
Q 23.390625 48.390625 19.1875 42.75 
Q 14.984375 37.109375 14.984375 27.296875 
Q 14.984375 17.484375 19.15625 11.84375 
Q 23.34375 6.203125 30.609375 6.203125 
Q 37.796875 6.203125 41.984375 11.859375 
Q 46.1875 17.53125 46.1875 27.296875 
Q 46.1875 37.015625 41.984375 42.703125 
Q 37.796875 48.390625 30.609375 48.390625 
z
M 30.609375 56 
Q 42.328125 56 49.015625 48.375 
Q 55.71875 40.765625 55.71875 27.296875 
Q 55.71875 13.875 49.015625 6.21875 
Q 42.328125 -1.421875 30.609375 -1.421875 
Q 18.84375 -1.421875 12.171875 6.21875 
Q 5.515625 13.875 5.515625 27.296875 
Q 5.515625 40.765625 12.171875 48.375 
Q 18.84375 56 30.609375 56 
z
" id="DejaVuSans-111"/>
      <path d="M 44.28125 53.078125 
L 44.28125 44.578125 
Q 40.484375 46.53125 36.375 47.5 
Q 32.28125 48.484375 27.875 48.484375 
Q 21.1875 48.484375 17.84375 46.4375 
Q 14.5 44.390625 14.5 40.28125 
Q 14.5 37.15625 16.890625 35.375 
Q 19.28125 33.59375 26.515625 31.984375 
L 29.59375 31.296875 
Q 39.15625 29.25 43.1875 25.515625 
Q 47.21875 21.78125 47.21875 15.09375 
Q 47.21875 7.46875 41.1875 3.015625 
Q 35.15625 -1.421875 24.609375 -1.421875 
Q 20.21875 -1.421875 15.453125 -0.5625 
Q 10.6875 0.296875 5.421875 2 
L 5.421875 11.28125 
Q 10.40625 8.6875 15.234375 7.390625 
Q 20.0625 6.109375 24.8125 6.109375 
Q 31.15625 6.109375 34.5625 8.28125 
Q 37.984375 10.453125 37.984375 14.40625 
Q 37.984375 18.0625 35.515625 20.015625 
Q 33.0625 21.96875 24.703125 23.78125 
L 21.578125 24.515625 
Q 13.234375 26.265625 9.515625 29.90625 
Q 5.8125 33.546875 5.8125 39.890625 
Q 5.8125 47.609375 11.28125 51.796875 
Q 16.75 56 26.8125 56 
Q 31.78125 56 36.171875 55.265625 
Q 40.578125 54.546875 44.28125 53.078125 
z
" id="DejaVuSans-115"/>
      <path d="M 9.421875 54.6875 
L 18.40625 54.6875 
L 18.40625 0 
L 9.421875 0 
z
M 9.421875 75.984375 
L 18.40625 75.984375 
L 18.40625 64.59375 
L 9.421875 64.59375 
z
" id="DejaVuSans-105"/>
      <path d="M 18.3125 70.21875 
L 18.3125 54.6875 
L 36.8125 54.6875 
L 36.8125 47.703125 
L 18.3125 47.703125 
L 18.3125 18.015625 
Q 18.3125 11.328125 20.140625 9.421875 
Q 21.96875 7.515625 27.59375 7.515625 
L 36.8125 7.515625 
L 36.8125 0 
L 27.59375 0 
Q 17.1875 0 13.234375 3.875 
Q 9.28125 7.765625 9.28125 18.015625 
L 9.28125 47.703125 
L 2.6875 47.703125 
L 2.6875 54.6875 
L 9.28125 54.6875 
L 9.28125 70.21875 
z
" id="DejaVuSans-116"/>
      <path d="M 54.890625 33.015625 
L 54.890625 0 
L 45.90625 0 
L 45.90625 32.71875 
Q 45.90625 40.484375 42.875 44.328125 
Q 39.84375 48.1875 33.796875 48.1875 
Q 26.515625 48.1875 22.3125 43.546875 
Q 18.109375 38.921875 18.109375 30.90625 
L 18.109375 0 
L 9.078125 0 
L 9.078125 54.6875 
L 18.109375 54.6875 
L 18.109375 46.1875 
Q 21.34375 51.125 25.703125 53.5625 
Q 30.078125 56 35.796875 56 
Q 45.21875 56 50.046875 50.171875 
Q 54.890625 44.34375 54.890625 33.015625 
z
" id="DejaVuSans-110"/>
      <path id="DejaVuSans-32"/>
      <path d="M 44.390625 34.1875 
Q 47.5625 33.109375 50.5625 29.59375 
Q 53.5625 26.078125 56.59375 19.921875 
L 66.609375 0 
L 56 0 
L 46.6875 18.703125 
Q 43.0625 26.03125 39.671875 28.421875 
Q 36.28125 30.8125 30.421875 30.8125 
L 19.671875 30.8125 
L 19.671875 0 
L 9.8125 0 
L 9.8125 72.90625 
L 32.078125 72.90625 
Q 44.578125 72.90625 50.734375 67.671875 
Q 56.890625 62.453125 56.890625 51.90625 
Q 56.890625 45.015625 53.6875 40.46875 
Q 50.484375 35.9375 44.390625 34.1875 
z
M 19.671875 64.796875 
L 19.671875 38.921875 
L 32.078125 38.921875 
Q 39.203125 38.921875 42.84375 42.21875 
Q 46.484375 45.515625 46.484375 51.90625 
Q 46.484375 58.296875 42.84375 61.546875 
Q 39.203125 64.796875 32.078125 64.796875 
z
" id="DejaVuSans-82"/>
      <path d="M 34.28125 27.484375 
Q 23.390625 27.484375 19.1875 25 
Q 14.984375 22.515625 14.984375 16.5 
Q 14.984375 11.71875 18.140625 8.90625 
Q 21.296875 6.109375 26.703125 6.109375 
Q 34.1875 6.109375 38.703125 11.40625 
Q 43.21875 16.703125 43.21875 25.484375 
L 43.21875 27.484375 
z
M 52.203125 31.203125 
L 52.203125 0 
L 43.21875 0 
L 43.21875 8.296875 
Q 40.140625 3.328125 35.546875 0.953125 
Q 30.953125 -1.421875 24.3125 -1.421875 
Q 15.921875 -1.421875 10.953125 3.296875 
Q 6 8.015625 6 15.921875 
Q 6 25.140625 12.171875 29.828125 
Q 18.359375 34.515625 30.609375 34.515625 
L 43.21875 34.515625 
L 43.21875 35.40625 
Q 43.21875 41.609375 39.140625 45 
Q 35.0625 48.390625 27.6875 48.390625 
Q 23 48.390625 18.546875 47.265625 
Q 14.109375 46.140625 10.015625 43.890625 
L 10.015625 52.203125 
Q 14.9375 54.109375 19.578125 55.046875 
Q 24.21875 56 28.609375 56 
Q 40.484375 56 46.34375 49.84375 
Q 52.203125 43.703125 52.203125 31.203125 
z
" id="DejaVuSans-97"/>
      <path d="M 45.40625 46.390625 
L 45.40625 75.984375 
L 54.390625 75.984375 
L 54.390625 0 
L 45.40625 0 
L 45.40625 8.203125 
Q 42.578125 3.328125 38.25 0.953125 
Q 33.9375 -1.421875 27.875 -1.421875 
Q 17.96875 -1.421875 11.734375 6.484375 
Q 5.515625 14.40625 5.515625 27.296875 
Q 5.515625 40.1875 11.734375 48.09375 
Q 17.96875 56 27.875 56 
Q 33.9375 56 38.25 53.625 
Q 42.578125 51.265625 45.40625 46.390625 
z
M 14.796875 27.296875 
Q 14.796875 17.390625 18.875 11.75 
Q 22.953125 6.109375 30.078125 6.109375 
Q 37.203125 6.109375 41.296875 11.75 
Q 45.40625 17.390625 45.40625 27.296875 
Q 45.40625 37.203125 41.296875 42.84375 
Q 37.203125 48.484375 30.078125 48.484375 
Q 22.953125 48.484375 18.875 42.84375 
Q 14.796875 37.203125 14.796875 27.296875 
z
" id="DejaVuSans-100"/>
     </defs>
     <g transform="translate(102.024844 357.832125)scale(0.3 -0.3)">
      <use xlink:href="#DejaVuSans-80"/>
      <use x="60.255859" xlink:href="#DejaVuSans-111"/>
      <use x="121.4375" xlink:href="#DejaVuSans-115"/>
      <use x="173.537109" xlink:href="#DejaVuSans-105"/>
      <use x="201.320312" xlink:href="#DejaVuSans-116"/>
      <use x="240.529297" xlink:href="#DejaVuSans-105"/>
      <use x="268.3125" xlink:href="#DejaVuSans-111"/>
      <use x="329.494141" xlink:href="#DejaVuSans-110"/>
      <use x="392.873047" xlink:href="#DejaVuSans-32"/>
      <use x="424.660156" xlink:href="#DejaVuSans-105"/>
      <use x="452.443359" xlink:href="#DejaVuSans-110"/>
      <use x="515.822266" xlink:href="#DejaVuSans-32"/>
      <use x="547.609375" xlink:href="#DejaVuSans-82"/>
      <use x="617.060547" xlink:href="#DejaVuSans-97"/>
      <use x="678.339844" xlink:href="#DejaVuSans-100"/>
      <use x="741.816406" xlink:href="#DejaVuSans-105"/>
      <use x="769.599609" xlink:href="#DejaVuSans-97"/>
      <use x="830.878906" xlink:href="#DejaVuSans-110"/>
     </g>
    </g>
   </g>
   <g id="matplotlib.axis_2">
    <g id="ytick_1">
     <g id="line2d_8">
      <defs>
       <path d="M 0 0 
L -3.5 0 
" id="me4a2e7a952" style="stroke:#000000;stroke-width:0.8;"/>
      </defs>
      <g>
       <use style="stroke:#000000;stroke-width:0.8;" x="57.6" xlink:href="#me4a2e7a952" y="307.584"/>
      </g>
     </g>
     <g id="text_9">
      <!-- 0.0 -->
      <defs>
       <path d="M 10.6875 12.40625 
L 21 12.40625 
L 21 0 
L 10.6875 0 
z
" id="DejaVuSans-46"/>
      </defs>
      <g transform="translate(23.564687 314.042672)scale(0.17 -0.17)">
       <use xlink:href="#DejaVuSans-48"/>
       <use x="63.623047" xlink:href="#DejaVuSans-46"/>
       <use x="95.410156" xlink:href="#DejaVuSans-48"/>
      </g>
     </g>
    </g>
    <g id="ytick_2">
     <g id="line2d_9">
      <g>
       <use style="stroke:#000000;stroke-width:0.8;" x="57.6" xlink:href="#me4a2e7a952" y="265.826042"/>
      </g>
     </g>
     <g id="text_10">
      <!-- 0.2 -->
      <g transform="translate(23.564687 272.284713)scale(0.17 -0.17)">
       <use xlink:href="#DejaVuSans-48"/>
       <use x="63.623047" xlink:href="#DejaVuSans-46"/>
       <use x="95.410156" xlink:href="#DejaVuSans-50"/>
      </g>
     </g>
    </g>
    <g id="ytick_3">
     <g id="line2d_10">
      <g>
       <use style="stroke:#000000;stroke-width:0.8;" x="57.6" xlink:href="#me4a2e7a952" y="224.068083"/>
      </g>
     </g>
     <g id="text_11">
      <!-- 0.4 -->
      <defs>
       <path d="M 37.796875 64.3125 
L 12.890625 25.390625 
L 37.796875 25.390625 
z
M 35.203125 72.90625 
L 47.609375 72.90625 
L 47.609375 25.390625 
L 58.015625 25.390625 
L 58.015625 17.1875 
L 47.609375 17.1875 
L 47.609375 0 
L 37.796875 0 
L 37.796875 17.1875 
L 4.890625 17.1875 
L 4.890625 26.703125 
z
" id="DejaVuSans-52"/>
      </defs>
      <g transform="translate(23.564687 230.526755)scale(0.17 -0.17)">
       <use xlink:href="#DejaVuSans-48"/>
       <use x="63.623047" xlink:href="#DejaVuSans-46"/>
       <use x="95.410156" xlink:href="#DejaVuSans-52"/>
      </g>
     </g>
    </g>
    <g id="ytick_4">
     <g id="line2d_11">
      <g>
       <use style="stroke:#000000;stroke-width:0.8;" x="57.6" xlink:href="#me4a2e7a952" y="182.310125"/>
      </g>
     </g>
     <g id="text_12">
      <!-- 0.6 -->
      <defs>
       <path d="M 33.015625 40.375 
Q 26.375 40.375 22.484375 35.828125 
Q 18.609375 31.296875 18.609375 23.390625 
Q 18.609375 15.53125 22.484375 10.953125 
Q 26.375 6.390625 33.015625 6.390625 
Q 39.65625 6.390625 43.53125 10.953125 
Q 47.40625 15.53125 47.40625 23.390625 
Q 47.40625 31.296875 43.53125 35.828125 
Q 39.65625 40.375 33.015625 40.375 
z
M 52.59375 71.296875 
L 52.59375 62.3125 
Q 48.875 64.0625 45.09375 64.984375 
Q 41.3125 65.921875 37.59375 65.921875 
Q 27.828125 65.921875 22.671875 59.328125 
Q 17.53125 52.734375 16.796875 39.40625 
Q 19.671875 43.65625 24.015625 45.921875 
Q 28.375 48.1875 33.59375 48.1875 
Q 44.578125 48.1875 50.953125 41.515625 
Q 57.328125 34.859375 57.328125 23.390625 
Q 57.328125 12.15625 50.6875 5.359375 
Q 44.046875 -1.421875 33.015625 -1.421875 
Q 20.359375 -1.421875 13.671875 8.265625 
Q 6.984375 17.96875 6.984375 36.375 
Q 6.984375 53.65625 15.1875 63.9375 
Q 23.390625 74.21875 37.203125 74.21875 
Q 40.921875 74.21875 44.703125 73.484375 
Q 48.484375 72.75 52.59375 71.296875 
z
" id="DejaVuSans-54"/>
      </defs>
      <g transform="translate(23.564687 188.768797)scale(0.17 -0.17)">
       <use xlink:href="#DejaVuSans-48"/>
       <use x="63.623047" xlink:href="#DejaVuSans-46"/>
       <use x="95.410156" xlink:href="#DejaVuSans-54"/>
      </g>
     </g>
    </g>
    <g id="ytick_5">
     <g id="line2d_12">
      <g>
       <use style="stroke:#000000;stroke-width:0.8;" x="57.6" xlink:href="#me4a2e7a952" y="140.552166"/>
      </g>
     </g>
     <g id="text_13">
      <!-- 0.8 -->
      <defs>
       <path d="M 31.78125 34.625 
Q 24.75 34.625 20.71875 30.859375 
Q 16.703125 27.09375 16.703125 20.515625 
Q 16.703125 13.921875 20.71875 10.15625 
Q 24.75 6.390625 31.78125 6.390625 
Q 38.8125 6.390625 42.859375 10.171875 
Q 46.921875 13.96875 46.921875 20.515625 
Q 46.921875 27.09375 42.890625 30.859375 
Q 38.875 34.625 31.78125 34.625 
z
M 21.921875 38.8125 
Q 15.578125 40.375 12.03125 44.71875 
Q 8.5 49.078125 8.5 55.328125 
Q 8.5 64.0625 14.71875 69.140625 
Q 20.953125 74.21875 31.78125 74.21875 
Q 42.671875 74.21875 48.875 69.140625 
Q 55.078125 64.0625 55.078125 55.328125 
Q 55.078125 49.078125 51.53125 44.71875 
Q 48 40.375 41.703125 38.8125 
Q 48.828125 37.15625 52.796875 32.3125 
Q 56.78125 27.484375 56.78125 20.515625 
Q 56.78125 9.90625 50.3125 4.234375 
Q 43.84375 -1.421875 31.78125 -1.421875 
Q 19.734375 -1.421875 13.25 4.234375 
Q 6.78125 9.90625 6.78125 20.515625 
Q 6.78125 27.484375 10.78125 32.3125 
Q 14.796875 37.15625 21.921875 38.8125 
z
M 18.3125 54.390625 
Q 18.3125 48.734375 21.84375 45.5625 
Q 25.390625 42.390625 31.78125 42.390625 
Q 38.140625 42.390625 41.71875 45.5625 
Q 45.3125 48.734375 45.3125 54.390625 
Q 45.3125 60.0625 41.71875 63.234375 
Q 38.140625 66.40625 31.78125 66.40625 
Q 25.390625 66.40625 21.84375 63.234375 
Q 18.3125 60.0625 18.3125 54.390625 
z
" id="DejaVuSans-56"/>
      </defs>
      <g transform="translate(23.564687 147.010838)scale(0.17 -0.17)">
       <use xlink:href="#DejaVuSans-48"/>
       <use x="63.623047" xlink:href="#DejaVuSans-46"/>
       <use x="95.410156" xlink:href="#DejaVuSans-56"/>
      </g>
     </g>
    </g>
    <g id="ytick_6">
     <g id="line2d_13">
      <g>
       <use style="stroke:#000000;stroke-width:0.8;" x="57.6" xlink:href="#me4a2e7a952" y="98.794208"/>
      </g>
     </g>
     <g id="text_14">
      <!-- 1.0 -->
      <g transform="translate(23.564687 105.25288)scale(0.17 -0.17)">
       <use xlink:href="#DejaVuSans-49"/>
       <use x="63.623047" xlink:href="#DejaVuSans-46"/>
       <use x="95.410156" xlink:href="#DejaVuSans-48"/>
      </g>
     </g>
    </g>
    <g id="ytick_7">
     <g id="line2d_14">
      <g>
       <use style="stroke:#000000;stroke-width:0.8;" x="57.6" xlink:href="#me4a2e7a952" y="57.036249"/>
      </g>
     </g>
     <g id="text_15">
      <!-- 1.2 -->
      <g transform="translate(23.564687 63.494921)scale(0.17 -0.17)">
       <use xlink:href="#DejaVuSans-49"/>
       <use x="63.623047" xlink:href="#DejaVuSans-46"/>
       <use x="95.410156" xlink:href="#DejaVuSans-50"/>
      </g>
     </g>
    </g>
    <g id="text_16">
     <!-- Density -->
     <defs>
      <path d="M 19.671875 64.796875 
L 19.671875 8.109375 
L 31.59375 8.109375 
Q 46.6875 8.109375 53.6875 14.9375 
Q 60.6875 21.78125 60.6875 36.53125 
Q 60.6875 51.171875 53.6875 57.984375 
Q 46.6875 64.796875 31.59375 64.796875 
z
M 9.8125 72.90625 
L 30.078125 72.90625 
Q 51.265625 72.90625 61.171875 64.09375 
Q 71.09375 55.28125 71.09375 36.53125 
Q 71.09375 17.671875 61.125 8.828125 
Q 51.171875 0 30.078125 0 
L 9.8125 0 
z
" id="DejaVuSans-68"/>
      <path d="M 56.203125 29.59375 
L 56.203125 25.203125 
L 14.890625 25.203125 
Q 15.484375 15.921875 20.484375 11.0625 
Q 25.484375 6.203125 34.421875 6.203125 
Q 39.59375 6.203125 44.453125 7.46875 
Q 49.3125 8.734375 54.109375 11.28125 
L 54.109375 2.78125 
Q 49.265625 0.734375 44.1875 -0.34375 
Q 39.109375 -1.421875 33.890625 -1.421875 
Q 20.796875 -1.421875 13.15625 6.1875 
Q 5.515625 13.8125 5.515625 26.8125 
Q 5.515625 40.234375 12.765625 48.109375 
Q 20.015625 56 32.328125 56 
Q 43.359375 56 49.78125 48.890625 
Q 56.203125 41.796875 56.203125 29.59375 
z
M 47.21875 32.234375 
Q 47.125 39.59375 43.09375 43.984375 
Q 39.0625 48.390625 32.421875 48.390625 
Q 24.90625 48.390625 20.390625 44.140625 
Q 15.875 39.890625 15.1875 32.171875 
z
" id="DejaVuSans-101"/>
      <path d="M 32.171875 -5.078125 
Q 28.375 -14.84375 24.75 -17.8125 
Q 21.140625 -20.796875 15.09375 -20.796875 
L 7.90625 -20.796875 
L 7.90625 -13.28125 
L 13.1875 -13.28125 
Q 16.890625 -13.28125 18.9375 -11.515625 
Q 21 -9.765625 23.484375 -3.21875 
L 25.09375 0.875 
L 2.984375 54.6875 
L 12.5 54.6875 
L 29.59375 11.921875 
L 46.6875 54.6875 
L 56.203125 54.6875 
z
" id="DejaVuSans-121"/>
     </defs>
     <g transform="translate(13.325625 231.553781)rotate(-90)scale(0.3 -0.3)">
      <use xlink:href="#DejaVuSans-68"/>
      <use x="77.001953" xlink:href="#DejaVuSans-101"/>
      <use x="138.525391" xlink:href="#DejaVuSans-110"/>
      <use x="201.904297" xlink:href="#DejaVuSans-115"/>
      <use x="254.003906" xlink:href="#DejaVuSans-105"/>
      <use x="281.787109" xlink:href="#DejaVuSans-116"/>
      <use x="320.996094" xlink:href="#DejaVuSans-121"/>
     </g>
    </g>
   </g>
   <g id="line2d_15">
    <path clip-path="url(#pad11adf861)" d="M 91.206754 305.356423 
L 91.895276 303.900304 
L 92.106048 303.875173 
L 92.302769 304.11847 
L 92.625953 304.948691 
L 93.342578 306.821477 
L 93.623607 307.016716 
L 93.848431 306.909358 
L 94.171615 306.447811 
L 94.902292 305.35222 
L 95.211424 305.280649 
L 96.644674 305.327397 
L 97.094321 305.045781 
L 97.389402 304.978334 
L 97.600174 305.169379 
L 97.923358 305.84643 
L 98.583777 307.230737 
L 98.949116 307.500245 
L 99.46902 307.573915 
L 100.087285 307.465106 
L 100.410469 307.176951 
L 100.733653 306.553418 
L 101.632947 304.58635 
L 101.801565 304.689817 
L 102.054491 305.179197 
L 102.981888 307.22716 
L 103.291021 307.345017 
L 103.600153 307.215256 
L 104.668065 306.573261 
L 105.173918 306.390633 
L 105.848389 306.085263 
L 106.213727 306.246 
L 106.593117 306.352847 
L 106.831992 306.166685 
L 107.253536 305.437096 
L 107.562669 305.121756 
L 107.745338 305.212653 
L 107.998264 305.664561 
L 108.771095 307.189334 
L 109.024022 307.232381 
L 109.276948 307.026914 
L 109.76875 306.23135 
L 110.105985 305.903475 
L 110.330809 305.96318 
L 111.187949 306.466398 
L 111.637596 306.049482 
L 111.988883 305.88741 
L 112.677405 305.743921 
L 113.562648 305.013872 
L 113.843677 305.269812 
L 114.897538 306.445629 
L 115.164515 306.341998 
L 115.698471 305.78849 
L 116.06381 305.588762 
L 116.358891 305.674508 
L 116.949053 305.904239 
L 117.187928 305.688722 
L 117.890501 304.904674 
L 118.129376 305.066496 
L 118.621178 305.435152 
L 118.83195 305.310297 
L 119.141082 304.813108 
L 120.279252 302.759478 
L 121.515781 301.708601 
L 121.754656 302.084248 
L 122.260509 303.460092 
L 122.710156 304.376549 
L 122.963083 304.492311 
L 123.216009 304.345578 
L 124.916238 302.924833 
L 125.12701 303.017256 
L 125.408039 303.450205 
L 125.927944 304.235061 
L 126.166819 304.232911 
L 127.276885 303.837246 
L 127.586018 304.106377 
L 128.302643 304.862446 
L 128.499363 304.695023 
L 128.780393 304.083756 
L 129.848305 301.378916 
L 130.030974 301.456191 
L 130.2839 301.878521 
L 130.733548 303.175069 
L 131.323709 304.733621 
L 131.590687 304.928855 
L 131.885768 304.844242 
L 132.321364 304.74931 
L 132.728857 304.956374 
L 133.094195 305.045568 
L 133.361173 304.86318 
L 134.38693 303.898321 
L 134.611754 304.137876 
L 134.977092 304.950544 
L 135.412688 305.747109 
L 135.609409 305.745884 
L 135.862335 305.448657 
L 136.255776 305.037843 
L 136.438446 305.131321 
L 136.705424 305.601407 
L 137.211277 306.464616 
L 137.393946 306.438952 
L 137.604718 306.129958 
L 137.956005 305.121053 
L 138.686681 302.986566 
L 138.897453 302.895638 
L 139.080122 303.110324 
L 139.389255 303.943517 
L 139.993468 305.533815 
L 140.274498 305.735181 
L 140.527424 305.649807 
L 140.991123 305.184124 
L 141.679645 304.568455 
L 141.91852 304.608364 
L 142.157395 304.925919 
L 142.663248 306.148447 
L 143.000483 306.64152 
L 143.225307 306.650488 
L 143.520388 306.389213 
L 144.194859 305.773409 
L 145.009844 305.286957 
L 145.824829 304.477809 
L 146.148013 304.586826 
L 146.527403 304.660691 
L 146.836536 304.452666 
L 147.25808 304.208827 
L 147.482903 304.337765 
L 148.21358 304.960935 
L 148.4103 304.661687 
L 149.239337 302.970457 
L 149.26744 302.986974 
L 149.478212 303.274415 
L 150.082426 304.180647 
L 150.307249 304.13458 
L 150.644485 303.771612 
L 151.262749 303.11561 
L 151.501625 303.174898 
L 151.83886 303.568515 
L 152.190147 303.861611 
L 152.386867 303.768224 
L 152.653845 303.33046 
L 153.637448 301.45812 
L 154.902081 300.313566 
L 155.239316 300.490298 
L 155.745169 300.727296 
L 156.096456 300.628042 
L 156.433692 300.309157 
L 156.770927 299.643322 
L 157.347037 298.47479 
L 157.501603 298.539892 
L 157.712376 298.97253 
L 158.274434 300.232916 
L 158.414949 300.1048 
L 158.625721 299.489723 
L 159.342346 297.130182 
L 159.482861 297.186727 
L 159.693633 297.594569 
L 160.297847 298.88737 
L 160.452413 298.829899 
L 160.663185 298.42877 
L 162.194795 294.040095 
L 163.136244 289.581995 
L 163.262707 289.655378 
L 163.431325 290.11186 
L 163.740457 291.745891 
L 164.288465 294.48987 
L 164.499237 294.698282 
L 164.667855 294.536559 
L 165.229914 293.847822 
L 165.398531 294.042418 
L 165.679561 294.794172 
L 166.297826 296.446566 
L 166.480495 296.490694 
L 166.635061 296.236641 
L 166.845833 295.347405 
L 167.169017 292.76705 
L 167.899693 286.707282 
L 168.194774 285.886906 
L 168.391495 285.804722 
L 168.574164 286.00926 
L 168.855194 286.763648 
L 169.48751 288.536054 
L 169.754488 288.67915 
L 170.077672 288.833912 
L 170.302495 289.261101 
L 170.780245 290.85556 
L 171.033172 291.288287 
L 171.145584 291.189506 
L 171.30015 290.670473 
L 171.553076 288.840245 
L 172.466422 281.191661 
L 172.578834 281.155631 
L 172.606937 281.184414 
L 172.761503 281.577728 
L 173.070635 283.175709 
L 173.660797 286.119964 
L 173.885621 286.401454 
L 174.054239 286.303539 
L 174.602246 285.832152 
L 174.784915 286.084305 
L 175.50154 287.459114 
L 175.543695 287.426787 
L 175.726364 287.072792 
L 176.105754 285.6562 
L 177.356335 280.201159 
L 177.820033 278.106188 
L 178.578813 276.317227 
L 178.789585 276.105234 
L 178.803636 276.112415 
L 178.9301 276.335978 
L 179.12682 277.304785 
L 179.492159 280.586352 
L 179.913703 283.64611 
L 180.054218 283.857171 
L 180.08232 283.84061 
L 180.194732 283.582851 
L 180.405504 282.360899 
L 180.8411 278.075842 
L 181.346953 273.900976 
L 181.571777 273.363705 
L 181.684188 273.452216 
L 181.866858 274.014874 
L 182.864512 277.81789 
L 183.047181 277.800197 
L 183.243902 277.515782 
L 183.567086 276.571628 
L 184.072939 275.213927 
L 184.649049 274.270874 
L 184.916027 272.825237 
L 185.731013 267.97752 
L 185.969888 267.704563 
L 186.152557 267.80014 
L 186.37738 268.24774 
L 186.672461 269.448342 
L 187.417189 272.784 
L 187.51555 272.680225 
L 187.670116 272.095854 
L 187.951145 269.94056 
L 188.499153 265.78659 
L 188.611565 265.639046 
L 188.653719 265.673406 
L 188.780182 266.071731 
L 189.005006 267.761599 
L 189.890249 275.44161 
L 190.044815 275.505346 
L 190.227484 275.230811 
L 190.677131 274.011154 
L 190.930058 272.681021 
L 191.225139 269.686552 
L 191.899609 262.340804 
L 191.969867 262.282348 
L 192.012021 262.337027 
L 192.138484 262.865532 
L 192.447617 265.489004 
L 192.770801 267.480329 
L 192.855109 267.552637 
L 192.897264 267.508138 
L 193.023727 267.059392 
L 193.248551 265.228828 
L 193.656043 259.695341 
L 194.316463 251.046071 
L 194.513183 250.396354 
L 194.527235 250.400091 
L 194.611544 250.562475 
L 194.780161 251.559001 
L 195.103345 255.192014 
L 195.595147 260.122007 
L 195.735661 260.42574 
L 195.763764 260.409984 
L 195.876176 260.101484 
L 196.086948 258.642094 
L 196.789522 253.299983 
L 196.986242 253.112321 
L 197.15486 253.295803 
L 197.506147 254.123061 
L 198.363287 256.496584 
L 198.419493 256.441496 
L 198.560007 256.018192 
L 198.784831 254.443826 
L 199.262581 248.915411 
L 199.670074 245.49329 
L 199.866794 245.071403 
L 199.880846 245.075011 
L 199.993258 245.261053 
L 200.189978 246.203451 
L 200.569368 249.441863 
L 201.033067 252.775932 
L 201.243839 253.158604 
L 201.356251 253.04787 
L 201.53892 252.471605 
L 201.848052 250.628951 
L 202.410111 245.600499 
L 202.887861 242.164209 
L 203.112685 241.738961 
L 203.225096 241.860537 
L 203.421817 242.518937 
L 204.166545 245.430252 
L 204.278957 245.322724 
L 204.461626 244.730444 
L 204.770758 242.782133 
L 205.304714 237.748964 
L 206.232112 228.919591 
L 206.414781 228.592542 
L 206.428832 228.599152 
L 206.541244 228.809746 
L 206.752016 229.854544 
L 207.538899 234.387012 
L 207.65131 234.33711 
L 207.791825 233.904978 
L 208.0307 232.262856 
L 209.112664 223.374301 
L 209.590414 222.586136 
L 210.194627 220.373797 
L 210.264884 220.461399 
L 210.405399 221.028462 
L 210.672377 223.313467 
L 211.262539 228.398656 
L 211.445208 228.678957 
L 211.55762 228.509695 
L 211.782443 227.619397 
L 212.386657 225.093457 
L 212.569326 225.024849 
L 212.737944 225.298074 
L 213.131385 226.571037 
L 213.412414 227.072171 
L 213.552929 226.978424 
L 213.791804 226.411051 
L 214.100936 225.85406 
L 214.213348 225.979519 
L 214.381966 226.638625 
L 214.662995 228.873611 
L 215.379621 234.817795 
L 215.632547 235.331767 
L 215.815216 235.311508 
L 216.068143 235.017029 
L 216.321069 234.380421 
L 216.588047 232.972571 
L 217.009591 229.17473 
L 217.529496 225.130183 
L 217.866731 224.019148 
L 218.077503 223.887574 
L 218.246121 224.079294 
L 218.70982 224.814528 
L 218.751974 224.781392 
L 218.892489 224.456416 
L 219.173518 223.060727 
L 219.482651 221.951699 
L 219.581011 222.041058 
L 219.721526 222.637619 
L 219.988504 225.020477 
L 220.606768 230.676336 
L 220.747283 230.934338 
L 220.775386 230.920172 
L 220.887798 230.641044 
L 221.084519 229.347239 
L 221.899504 222.342754 
L 221.95571 222.405095 
L 222.096225 222.990516 
L 222.447511 225.882247 
L 222.728541 227.265881 
L 222.798798 227.241904 
L 222.81285 227.216769 
L 222.939313 226.687198 
L 223.164137 224.542885 
L 224.442821 209.877206 
L 224.653593 209.551815 
L 224.766004 209.713603 
L 224.948674 210.485694 
L 225.398321 213.825284 
L 225.623144 214.616106 
L 225.637196 214.612405 
L 225.721505 214.431215 
L 225.876071 213.349183 
L 226.128997 209.606433 
L 227.070446 189.664961 
L 227.913534 174.848971 
L 228.068101 174.328434 
L 228.096204 174.352488 
L 228.194564 174.706037 
L 228.405336 176.599065 
L 229.220321 184.86847 
L 229.740226 188.67275 
L 230.203924 192.208029 
L 230.217976 192.199528 
L 230.288233 191.924138 
L 230.414697 190.15689 
L 230.583314 184.153424 
L 230.808138 167.097726 
L 231.145373 120.924013 
L 231.651226 56.43947 
L 231.749586 54.144 
L 231.791741 54.580104 
L 231.904153 59.791509 
L 232.114925 82.746535 
L 232.92991 181.938833 
L 233.21094 191.249432 
L 233.40766 192.765109 
L 233.463866 192.68034 
L 233.590329 191.810923 
L 233.815153 188.305561 
L 234.180491 178.545265 
L 235.192197 149.707574 
L 235.276506 149.416215 
L 235.318661 149.483388 
L 235.431072 150.349389 
L 235.641844 154.369648 
L 236.470881 172.670696 
L 236.513036 172.648607 
L 236.527087 172.612861 
L 236.639499 171.835214 
L 236.850271 168.331272 
L 237.370176 154.413977 
L 237.847926 144.670925 
L 238.114904 142.669871 
L 238.185161 142.603362 
L 238.227316 142.656663 
L 238.353779 143.236291 
L 238.564551 145.587572 
L 238.873683 151.983371 
L 239.393588 168.307674 
L 239.98375 184.738973 
L 240.250728 187.389242 
L 240.335036 187.495439 
L 240.377191 187.433242 
L 240.517706 186.769348 
L 241.150022 182.667029 
L 241.206228 182.725129 
L 241.332691 183.208059 
L 241.585618 185.295467 
L 242.555169 194.103369 
L 243.145331 197.264226 
L 244.690993 203.16134 
L 245.196846 204.548805 
L 245.604339 206.534496 
L 246.053986 209.904741 
L 247.065692 218.074974 
L 247.220258 218.242669 
L 247.23431 218.234035 
L 247.346721 218.008796 
L 247.529391 216.99515 
L 247.782317 214.131827 
L 248.203861 206.296775 
L 248.779972 196.575263 
L 249.089104 194.47748 
L 249.257722 194.242563 
L 249.271773 194.249746 
L 249.384185 194.45451 
L 249.566854 195.358701 
L 249.847884 198.131254 
L 250.733126 208.008298 
L 250.95795 208.400019 
L 251.196825 208.357418 
L 251.421649 208.408169 
L 251.71673 208.800773 
L 251.969656 208.980566 
L 252.110171 208.796596 
L 252.306891 208.075906 
L 252.658178 205.731265 
L 253.079722 203.364808 
L 253.192134 203.255251 
L 253.234289 203.289631 
L 253.360752 203.635467 
L 253.613678 205.178016 
L 254.077377 207.872084 
L 254.20384 207.975486 
L 254.231943 207.955165 
L 254.372458 207.659639 
L 254.864259 206.339226 
L 254.892362 206.357319 
L 255.018826 206.648074 
L 255.229598 207.861369 
L 255.721399 212.513869 
L 256.255355 216.670196 
L 256.508282 217.391107 
L 256.634745 217.348462 
L 256.817414 216.920235 
L 257.196804 216.059241 
L 257.309216 216.193518 
L 257.477833 216.894361 
L 257.772914 219.325096 
L 258.644106 226.91489 
L 259.740121 232.4965 
L 260.105459 233.763367 
L 260.260025 233.813296 
L 260.274077 233.801908 
L 260.442694 233.493332 
L 260.906393 232.522605 
L 260.920444 232.529501 
L 261.046908 232.750107 
L 261.271731 233.762578 
L 261.665172 235.40274 
L 261.749481 235.299433 
L 261.889996 234.564025 
L 262.128871 231.814892 
L 262.733084 224.479926 
L 262.845496 224.288066 
L 262.887651 224.337733 
L 263.014114 224.848412 
L 263.252989 226.965383 
L 263.871254 235.175169 
L 264.349004 240.177739 
L 264.545724 240.708949 
L 264.630033 240.579528 
L 264.798651 239.726902 
L 265.149938 236.394587 
L 265.585533 232.995631 
L 265.796305 232.569398 
L 265.922769 232.683699 
L 266.147592 233.344252 
L 267.089041 236.475198 
L 267.6511 237.578801 
L 268.12885 238.270833 
L 268.367725 239.341221 
L 268.957887 242.318451 
L 268.971938 242.315828 
L 269.070299 242.139792 
L 269.238916 241.229577 
L 269.688563 237.001549 
L 270.067953 234.581701 
L 270.363034 233.890986 
L 270.615961 233.761283 
L 270.784578 233.916994 
L 270.967247 234.443066 
L 271.220174 235.998863 
L 272.049211 241.908283 
L 272.175674 241.871877 
L 272.386446 241.420647 
L 273.243586 238.79529 
L 273.651079 235.946799 
L 274.395807 230.92993 
L 274.817351 229.460803 
L 275.070278 229.176389 
L 275.210792 229.277461 
L 275.393461 229.749183 
L 275.674491 231.222764 
L 276.363013 235.026803 
L 276.573785 235.198993 
L 276.939123 235.264109 
L 277.107741 235.788253 
L 277.360668 237.522057 
L 277.936778 241.701491 
L 278.007035 241.673757 
L 278.021087 241.645867 
L 278.14755 241.053184 
L 278.372374 238.612373 
L 279.159256 228.990734 
L 279.215462 228.9676 
L 279.257616 229.034257 
L 279.38408 229.656604 
L 279.608903 232.169171 
L 280.030448 240.000305 
L 280.845433 254.865387 
L 281.112411 256.659258 
L 281.168617 256.697008 
L 281.210771 256.643082 
L 281.337234 256.068873 
L 281.57611 253.583835 
L 282.208426 246.58273 
L 282.377043 246.27254 
L 282.391095 246.280158 
L 282.503507 246.501743 
L 282.72833 247.619405 
L 283.248235 251.750734 
L 283.768139 255.149328 
L 284.06322 255.898855 
L 284.203735 255.878548 
L 284.34425 255.544437 
L 284.555022 254.305797 
L 284.878206 250.684854 
L 285.370007 245.612951 
L 285.468368 245.453055 
L 285.510522 245.501572 
L 285.636985 246.049179 
L 285.87586 248.365316 
L 286.480074 254.309104 
L 286.592485 254.498012 
L 286.63464 254.466021 
L 286.747052 254.106643 
L 286.943772 252.576789 
L 287.30911 247.529499 
L 288.081941 236.788488 
L 288.334868 235.614218 
L 288.405125 235.616447 
L 288.433228 235.660121 
L 288.559692 236.162338 
L 288.784515 238.232171 
L 289.206059 244.825302 
L 289.866479 254.380303 
L 290.25992 257.233466 
L 290.442589 257.581727 
L 290.45664 257.574741 
L 290.555001 257.370775 
L 290.723618 256.325939 
L 290.976545 253.011309 
L 291.482398 242.424331 
L 291.903942 235.777212 
L 292.086611 235.019683 
L 292.100663 235.024954 
L 292.184972 235.246809 
L 292.353589 236.614273 
L 292.662722 241.498029 
L 293.562016 256.422165 
L 293.955457 259.703646 
L 294.152178 260.131015 
L 294.166229 260.125479 
L 294.278641 259.910631 
L 294.475362 258.890118 
L 295.234141 254.37705 
L 295.360604 254.421145 
L 295.571377 254.884974 
L 296.119384 256.11335 
L 296.625237 256.961937 
L 297.145142 258.556022 
L 297.98823 261.701184 
L 298.437877 263.279854 
L 298.550289 263.295467 
L 298.56434 263.280547 
L 298.704855 262.906409 
L 298.929679 261.467485 
L 300.138105 252.059813 
L 300.419135 251.518421 
L 300.531547 251.607247 
L 300.686113 252.108649 
L 300.939039 253.849924 
L 301.571356 258.456336 
L 301.697819 258.560013 
L 301.725922 258.536668 
L 301.866436 258.203322 
L 302.217723 256.547297 
L 302.526856 255.572467 
L 302.653319 255.580823 
L 302.793834 255.908048 
L 303.04676 257.18743 
L 303.707179 260.637971 
L 304.184929 262.36288 
L 304.718885 265.985537 
L 305.028018 267.142678 
L 305.224738 267.247931 
L 305.730592 267.200495 
L 306.405062 267.742031 
L 306.700143 267.398778 
L 307.14979 266.969048 
L 307.613489 266.578888 
L 308.049085 266.202503 
L 308.217702 266.349332 
L 308.442526 266.932903 
L 308.934327 269.085105 
L 309.552592 271.310265 
L 309.903879 272.015656 
L 310.044394 271.979863 
L 310.19896 271.613186 
L 310.437835 270.312842 
L 310.943688 265.837335 
L 311.294975 263.744661 
L 311.407387 263.645504 
L 311.43549 263.674612 
L 311.561953 264.082608 
L 311.772725 265.718455 
L 312.629865 273.571674 
L 312.728225 273.501299 
L 312.896843 272.951947 
L 313.430799 271.060147 
L 313.54321 271.124519 
L 313.711828 271.607426 
L 314.006909 273.30903 
L 314.737586 277.675061 
L 314.920255 277.848708 
L 315.046718 277.647455 
L 315.25749 276.781668 
L 315.917909 273.693206 
L 315.931961 273.696433 
L 316.030321 273.850713 
L 316.21299 274.715014 
L 317.098233 279.856232 
L 317.238748 279.750878 
L 317.505726 279.158778 
L 318.081836 277.290227 
L 318.812513 274.777563 
L 318.924925 274.841655 
L 319.079491 275.278772 
L 319.36052 276.945114 
L 319.852322 279.737068 
L 320.006888 279.864531 
L 320.020939 279.855484 
L 320.161454 279.610979 
L 320.849976 278.072551 
L 321.032646 278.271829 
L 321.426087 279.157755 
L 321.791425 280.418831 
L 322.086506 282.426665 
L 322.915543 288.814991 
L 323.013903 288.70543 
L 323.182521 287.977688 
L 323.505705 285.309085 
L 324.32069 276.202677 
L 324.70008 273.313579 
L 324.826543 273.137895 
L 324.854646 273.163287 
L 324.967058 273.496409 
L 325.17783 274.997632 
L 326.147382 283.083516 
L 326.386257 283.403301 
L 326.540823 283.309995 
L 326.751595 282.865275 
L 327.08883 281.528948 
L 327.974073 277.707803 
L 328.100536 277.742619 
L 328.255103 278.147708 
L 328.508029 279.593033 
L 329.210603 283.871194 
L 329.393272 283.963204 
L 329.604044 283.690537 
L 329.856971 283.494551 
L 329.997485 283.697511 
L 330.222309 284.569903 
L 330.910831 287.574256 
L 331.121603 287.68823 
L 331.304272 287.519284 
L 331.543147 286.941264 
L 331.838228 285.536557 
L 332.540802 281.856054 
L 332.639162 281.908628 
L 332.779677 282.355413 
L 333.032603 284.076937 
L 333.749229 289.317644 
L 333.917846 289.501844 
L 333.931898 289.494135 
L 334.072412 289.244198 
L 334.33939 288.160724 
L 334.81714 286.378552 
L 334.971707 286.31966 
L 334.985758 286.330683 
L 335.140324 286.627684 
L 335.407302 287.769115 
L 335.997464 290.334594 
L 336.137979 290.369196 
L 336.15203 290.356559 
L 336.306597 290.046782 
L 336.685986 288.581993 
L 337.023222 287.694033 
L 337.205891 287.666323 
L 337.38856 287.94456 
L 337.739847 289.003546 
L 338.34406 290.706701 
L 338.540781 290.808346 
L 338.695347 290.611903 
L 338.934222 289.831863 
L 339.524384 287.78852 
L 339.650847 287.844285 
L 339.819465 288.270144 
L 340.184803 290.0021 
L 340.662553 291.87606 
L 341.308921 293.768229 
L 342.152009 297.515722 
L 342.180112 297.50368 
L 342.306576 297.268608 
L 342.531399 296.208583 
L 343.191818 292.808706 
L 343.318282 292.837968 
L 343.486899 293.267772 
L 344.203524 295.63017 
L 344.231627 295.612748 
L 344.372142 295.327303 
L 344.596966 294.239382 
L 345.257385 290.71915 
L 345.355745 290.822999 
L 345.510311 291.49545 
L 345.791341 293.996339 
L 346.367451 299.067044 
L 346.564172 299.41982 
L 346.676584 299.277332 
L 346.901407 298.494245 
L 347.533724 296.191594 
L 347.828804 295.875563 
L 348.123885 295.857378 
L 348.404915 296.063898 
L 348.756202 296.663021 
L 349.233952 297.397242 
L 349.430672 297.368755 
L 349.655496 297.063498 
L 350.034886 296.100685 
L 350.625048 293.94674 
L 351.31357 291.551035 
L 351.468136 291.528105 
L 351.608651 291.82865 
L 351.833474 292.966718 
L 352.788974 298.730119 
L 352.915438 298.67827 
L 353.098107 298.251205 
L 353.477497 296.607621 
L 353.997401 294.614474 
L 354.236276 294.350542 
L 354.418945 294.446905 
L 354.770232 295.003914 
L 356.161328 297.21172 
L 356.358049 297.178722 
L 356.610975 296.848354 
L 357.215188 295.971625 
L 357.383806 296.085262 
L 357.60863 296.584494 
L 358.2831 298.265115 
L 358.423615 298.181225 
L 358.648439 297.68725 
L 359.308858 296.075495 
L 359.561784 296.016523 
L 359.927123 296.21066 
L 360.222204 296.601118 
L 360.503233 297.412351 
L 360.966932 299.613236 
L 361.599248 302.282187 
L 361.894329 302.776056 
L 362.048895 302.719957 
L 362.231564 302.316712 
L 362.512594 301.010514 
L 363.313528 296.959005 
L 363.510248 296.837452 
L 363.692917 297.014294 
L 364.128513 297.88161 
L 364.901344 299.745041 
L 365.350991 301.806485 
L 365.898999 304.047048 
L 366.165977 304.408971 
L 366.362697 304.360684 
L 366.629675 304.003366 
L 367.332249 302.976305 
L 367.514918 303.045726 
L 367.72569 303.413869 
L 368.076977 304.579034 
L 368.653087 306.35867 
L 368.877911 306.504809 
L 369.06058 306.346463 
L 369.34161 305.720058 
L 370.283058 303.365085 
L 370.620294 303.151505 
L 371.210455 302.873508 
L 371.997338 302.235435 
L 372.222161 302.464355 
L 372.222161 302.464355 
" style="fill:none;stroke:#ff7f0e;stroke-linecap:square;stroke-width:1.5;"/>
   </g>
   <g id="patch_103">
    <path d="M 57.6 307.584 
L 57.6 41.472 
" style="fill:none;stroke:#000000;stroke-linecap:square;stroke-linejoin:miter;stroke-width:0.8;"/>
   </g>
   <g id="patch_104">
    <path d="M 414.72 307.584 
L 414.72 41.472 
" style="fill:none;stroke:#000000;stroke-linecap:square;stroke-linejoin:miter;stroke-width:0.8;"/>
   </g>
   <g id="patch_105">
    <path d="M 57.6 307.584 
L 414.72 307.584 
" style="fill:none;stroke:#000000;stroke-linecap:square;stroke-linejoin:miter;stroke-width:0.8;"/>
   </g>
   <g id="patch_106">
    <path d="M 57.6 41.472 
L 414.72 41.472 
" style="fill:none;stroke:#000000;stroke-linecap:square;stroke-linejoin:miter;stroke-width:0.8;"/>
   </g>
  </g>
 </g>
 <defs>
  <clipPath id="pad11adf861">
   <rect height="266.112" width="357.12" x="57.6" y="41.472"/>
  </clipPath>
 </defs>
</svg>
