<?xml version="1.0" encoding="utf-8" standalone="no"?>
<!DOCTYPE svg PUBLIC "-//W3C//DTD SVG 1.1//EN"
  "http://www.w3.org/Graphics/SVG/1.1/DTD/svg11.dtd">
<!-- Created with matplotlib (https://matplotlib.org/) -->
<svg height="345.6pt" version="1.1" viewBox="0 0 460.8 345.6" width="460.8pt" xmlns="http://www.w3.org/2000/svg" xmlns:xlink="http://www.w3.org/1999/xlink">
 <defs>
  <style type="text/css">
*{stroke-linecap:butt;stroke-linejoin:round;}
  </style>
 </defs>
 <g id="figure_1">
  <g id="patch_1">
   <path d="M 0 345.6 
L 460.8 345.6 
L 460.8 0 
L 0 0 
z
" style="fill:#ffffff;"/>
  </g>
  <g id="axes_1">
   <g id="patch_2">
    <path d="M 57.6 307.584 
L 414.72 307.584 
L 414.72 41.472 
L 57.6 41.472 
z
" style="fill:#ffffff;"/>
   </g>
   <g id="patch_3">
    <path clip-path="url(#pce5ff9b0ec)" d="M 73.832727 307.584 
L 77.079273 307.584 
L 77.079273 307.019888 
L 73.832727 307.019888 
z
" style="fill:#1f77b4;"/>
   </g>
   <g id="patch_4">
    <path clip-path="url(#pce5ff9b0ec)" d="M 77.079273 307.584 
L 80.32582 307.584 
L 80.32582 307.301944 
L 77.079273 307.301944 
z
" style="fill:#1f77b4;"/>
   </g>
   <g id="patch_5">
    <path clip-path="url(#pce5ff9b0ec)" d="M 80.32582 307.584 
L 83.572366 307.584 
L 83.572366 307.301944 
L 80.32582 307.301944 
z
" style="fill:#1f77b4;"/>
   </g>
   <g id="patch_6">
    <path clip-path="url(#pce5ff9b0ec)" d="M 83.572366 307.584 
L 86.818912 307.584 
L 86.818912 307.301944 
L 83.572366 307.301944 
z
" style="fill:#1f77b4;"/>
   </g>
   <g id="patch_7">
    <path clip-path="url(#pce5ff9b0ec)" d="M 86.818912 307.584 
L 90.065458 307.584 
L 90.065458 306.455775 
L 86.818912 306.455775 
z
" style="fill:#1f77b4;"/>
   </g>
   <g id="patch_8">
    <path clip-path="url(#pce5ff9b0ec)" d="M 90.065458 307.584 
L 93.312004 307.584 
L 93.312004 305.891663 
L 90.065458 305.891663 
z
" style="fill:#1f77b4;"/>
   </g>
   <g id="patch_9">
    <path clip-path="url(#pce5ff9b0ec)" d="M 93.312004 307.584 
L 96.55855 307.584 
L 96.55855 306.173719 
L 93.312004 306.173719 
z
" style="fill:#1f77b4;"/>
   </g>
   <g id="patch_10">
    <path clip-path="url(#pce5ff9b0ec)" d="M 96.55855 307.584 
L 99.805096 307.584 
L 99.805096 306.737832 
L 96.55855 306.737832 
z
" style="fill:#1f77b4;"/>
   </g>
   <g id="patch_11">
    <path clip-path="url(#pce5ff9b0ec)" d="M 99.805096 307.584 
L 103.051642 307.584 
L 103.051642 306.455775 
L 99.805096 306.455775 
z
" style="fill:#1f77b4;"/>
   </g>
   <g id="patch_12">
    <path clip-path="url(#pce5ff9b0ec)" d="M 103.051642 307.584 
L 106.298189 307.584 
L 106.298189 306.737832 
L 103.051642 306.737832 
z
" style="fill:#1f77b4;"/>
   </g>
   <g id="patch_13">
    <path clip-path="url(#pce5ff9b0ec)" d="M 106.298189 307.584 
L 109.544721 307.584 
L 109.544721 306.737828 
L 106.298189 306.737828 
z
" style="fill:#1f77b4;"/>
   </g>
   <g id="patch_14">
    <path clip-path="url(#pce5ff9b0ec)" d="M 109.544721 307.584 
L 112.791267 307.584 
L 112.791267 306.455775 
L 109.544721 306.455775 
z
" style="fill:#1f77b4;"/>
   </g>
   <g id="patch_15">
    <path clip-path="url(#pce5ff9b0ec)" d="M 112.791267 307.584 
L 116.037813 307.584 
L 116.037813 306.173719 
L 112.791267 306.173719 
z
" style="fill:#1f77b4;"/>
   </g>
   <g id="patch_16">
    <path clip-path="url(#pce5ff9b0ec)" d="M 116.037813 307.584 
L 119.28436 307.584 
L 119.28436 305.891663 
L 116.037813 305.891663 
z
" style="fill:#1f77b4;"/>
   </g>
   <g id="patch_17">
    <path clip-path="url(#pce5ff9b0ec)" d="M 119.28436 307.584 
L 122.530906 307.584 
L 122.530906 303.635214 
L 119.28436 303.635214 
z
" style="fill:#1f77b4;"/>
   </g>
   <g id="patch_18">
    <path clip-path="url(#pce5ff9b0ec)" d="M 122.530906 307.584 
L 125.777452 307.584 
L 125.777452 304.481382 
L 122.530906 304.481382 
z
" style="fill:#1f77b4;"/>
   </g>
   <g id="patch_19">
    <path clip-path="url(#pce5ff9b0ec)" d="M 125.777452 307.584 
L 129.023998 307.584 
L 129.023998 305.045495 
L 125.777452 305.045495 
z
" style="fill:#1f77b4;"/>
   </g>
   <g id="patch_20">
    <path clip-path="url(#pce5ff9b0ec)" d="M 129.023998 307.584 
L 132.270544 307.584 
L 132.270544 304.199326 
L 129.023998 304.199326 
z
" style="fill:#1f77b4;"/>
   </g>
   <g id="patch_21">
    <path clip-path="url(#pce5ff9b0ec)" d="M 132.270544 307.584 
L 135.51709 307.584 
L 135.51709 305.045495 
L 132.270544 305.045495 
z
" style="fill:#1f77b4;"/>
   </g>
   <g id="patch_22">
    <path clip-path="url(#pce5ff9b0ec)" d="M 135.51709 307.584 
L 138.763636 307.584 
L 138.763636 305.327551 
L 135.51709 305.327551 
z
" style="fill:#1f77b4;"/>
   </g>
   <g id="patch_23">
    <path clip-path="url(#pce5ff9b0ec)" d="M 138.763636 307.584 
L 142.010182 307.584 
L 142.010182 303.91727 
L 138.763636 303.91727 
z
" style="fill:#1f77b4;"/>
   </g>
   <g id="patch_24">
    <path clip-path="url(#pce5ff9b0ec)" d="M 142.010182 307.584 
L 145.256729 307.584 
L 145.256729 304.199326 
L 142.010182 304.199326 
z
" style="fill:#1f77b4;"/>
   </g>
   <g id="patch_25">
    <path clip-path="url(#pce5ff9b0ec)" d="M 145.256729 307.584 
L 148.503275 307.584 
L 148.503275 300.25054 
L 145.256729 300.25054 
z
" style="fill:#1f77b4;"/>
   </g>
   <g id="patch_26">
    <path clip-path="url(#pce5ff9b0ec)" d="M 148.503275 307.584 
L 151.749821 307.584 
L 151.749821 300.532596 
L 148.503275 300.532596 
z
" style="fill:#1f77b4;"/>
   </g>
   <g id="patch_27">
    <path clip-path="url(#pce5ff9b0ec)" d="M 151.749821 307.584 
L 154.996367 307.584 
L 154.996367 301.378764 
L 151.749821 301.378764 
z
" style="fill:#1f77b4;"/>
   </g>
   <g id="patch_28">
    <path clip-path="url(#pce5ff9b0ec)" d="M 154.996367 307.584 
L 158.242906 307.584 
L 158.242906 296.583787 
L 154.996367 296.583787 
z
" style="fill:#1f77b4;"/>
   </g>
   <g id="patch_29">
    <path clip-path="url(#pce5ff9b0ec)" d="M 158.242906 307.584 
L 161.489453 307.584 
L 161.489453 294.045304 
L 158.242906 294.045304 
z
" style="fill:#1f77b4;"/>
   </g>
   <g id="patch_30">
    <path clip-path="url(#pce5ff9b0ec)" d="M 161.489453 307.584 
L 164.735999 307.584 
L 164.735999 290.378574 
L 161.489453 290.378574 
z
" style="fill:#1f77b4;"/>
   </g>
   <g id="patch_31">
    <path clip-path="url(#pce5ff9b0ec)" d="M 164.735999 307.584 
L 167.982545 307.584 
L 167.982545 291.506799 
L 164.735999 291.506799 
z
" style="fill:#1f77b4;"/>
   </g>
   <g id="patch_32">
    <path clip-path="url(#pce5ff9b0ec)" d="M 167.982545 307.584 
L 171.229091 307.584 
L 171.229091 290.096518 
L 167.982545 290.096518 
z
" style="fill:#1f77b4;"/>
   </g>
   <g id="patch_33">
    <path clip-path="url(#pce5ff9b0ec)" d="M 171.229091 307.584 
L 174.475637 307.584 
L 174.475637 285.019507 
L 171.229091 285.019507 
z
" style="fill:#1f77b4;"/>
   </g>
   <g id="patch_34">
    <path clip-path="url(#pce5ff9b0ec)" d="M 174.475637 307.584 
L 177.722183 307.584 
L 177.722183 281.352777 
L 174.475637 281.352777 
z
" style="fill:#1f77b4;"/>
   </g>
   <g id="patch_35">
    <path clip-path="url(#pce5ff9b0ec)" d="M 177.722183 307.584 
L 180.968726 307.584 
L 180.968726 280.788637 
L 177.722183 280.788637 
z
" style="fill:#1f77b4;"/>
   </g>
   <g id="patch_36">
    <path clip-path="url(#pce5ff9b0ec)" d="M 180.968726 307.584 
L 184.215272 307.584 
L 184.215272 275.147541 
L 180.968726 275.147541 
z
" style="fill:#1f77b4;"/>
   </g>
   <g id="patch_37">
    <path clip-path="url(#pce5ff9b0ec)" d="M 184.215272 307.584 
L 187.461818 307.584 
L 187.461818 270.352587 
L 184.215272 270.352587 
z
" style="fill:#1f77b4;"/>
   </g>
   <g id="patch_38">
    <path clip-path="url(#pce5ff9b0ec)" d="M 187.461818 307.584 
L 190.708364 307.584 
L 190.708364 266.121744 
L 187.461818 266.121744 
z
" style="fill:#1f77b4;"/>
   </g>
   <g id="patch_39">
    <path clip-path="url(#pce5ff9b0ec)" d="M 190.708364 307.584 
L 193.95491 307.584 
L 193.95491 263.583239 
L 190.708364 263.583239 
z
" style="fill:#1f77b4;"/>
   </g>
   <g id="patch_40">
    <path clip-path="url(#pce5ff9b0ec)" d="M 193.954907 307.584 
L 197.20145 307.584 
L 197.20145 254.275331 
L 193.954907 254.275331 
z
" style="fill:#1f77b4;"/>
   </g>
   <g id="patch_41">
    <path clip-path="url(#pce5ff9b0ec)" d="M 197.201453 307.584 
L 200.447999 307.584 
L 200.447999 250.890712 
L 197.201453 250.890712 
z
" style="fill:#1f77b4;"/>
   </g>
   <g id="patch_42">
    <path clip-path="url(#pce5ff9b0ec)" d="M 200.447999 307.584 
L 203.694545 307.584 
L 203.694545 246.095757 
L 200.447999 246.095757 
z
" style="fill:#1f77b4;"/>
   </g>
   <g id="patch_43">
    <path clip-path="url(#pce5ff9b0ec)" d="M 203.694545 307.584 
L 206.941092 307.584 
L 206.941092 241.864914 
L 203.694545 241.864914 
z
" style="fill:#1f77b4;"/>
   </g>
   <g id="patch_44">
    <path clip-path="url(#pce5ff9b0ec)" d="M 206.941092 307.584 
L 210.187636 307.584 
L 210.187636 237.35198 
L 206.941092 237.35198 
z
" style="fill:#1f77b4;"/>
   </g>
   <g id="patch_45">
    <path clip-path="url(#pce5ff9b0ec)" d="M 210.187636 307.584 
L 213.434182 307.584 
L 213.434182 228.890331 
L 210.187636 228.890331 
z
" style="fill:#1f77b4;"/>
   </g>
   <g id="patch_46">
    <path clip-path="url(#pce5ff9b0ec)" d="M 213.43418 307.584 
L 216.680725 307.584 
L 216.680725 234.531417 
L 213.43418 234.531417 
z
" style="fill:#1f77b4;"/>
   </g>
   <g id="patch_47">
    <path clip-path="url(#pce5ff9b0ec)" d="M 216.680727 307.584 
L 219.927273 307.584 
L 219.927273 227.197994 
L 216.680727 227.197994 
z
" style="fill:#1f77b4;"/>
   </g>
   <g id="patch_48">
    <path clip-path="url(#pce5ff9b0ec)" d="M 219.927273 307.584 
L 223.173818 307.584 
L 223.173818 228.326198 
L 219.927273 228.326198 
z
" style="fill:#1f77b4;"/>
   </g>
   <g id="patch_49">
    <path clip-path="url(#pce5ff9b0ec)" d="M 223.173818 307.584 
L 226.420364 307.584 
L 226.420364 215.915736 
L 223.173818 215.915736 
z
" style="fill:#1f77b4;"/>
   </g>
   <g id="patch_50">
    <path clip-path="url(#pce5ff9b0ec)" d="M 226.420364 307.584 
L 229.666909 307.584 
L 229.666909 184.325426 
L 226.420364 184.325426 
z
" style="fill:#1f77b4;"/>
   </g>
   <g id="patch_51">
    <path clip-path="url(#pce5ff9b0ec)" d="M 229.666909 307.584 
L 232.913455 307.584 
L 232.913455 137.222046 
L 229.666909 137.222046 
z
" style="fill:#1f77b4;"/>
   </g>
   <g id="patch_52">
    <path clip-path="url(#pce5ff9b0ec)" d="M 232.913455 307.584 
L 236.16 307.584 
L 236.16 170.786735 
L 232.913455 170.786735 
z
" style="fill:#1f77b4;"/>
   </g>
   <g id="patch_53">
    <path clip-path="url(#pce5ff9b0ec)" d="M 236.16 307.584 
L 239.406545 307.584 
L 239.406545 167.402052 
L 236.16 167.402052 
z
" style="fill:#1f77b4;"/>
   </g>
   <g id="patch_54">
    <path clip-path="url(#pce5ff9b0ec)" d="M 239.406544 307.584 
L 242.65309 307.584 
L 242.65309 191.658888 
L 239.406544 191.658888 
z
" style="fill:#1f77b4;"/>
   </g>
   <g id="patch_55">
    <path clip-path="url(#pce5ff9b0ec)" d="M 242.653091 307.584 
L 245.899637 307.584 
L 245.899637 203.787333 
L 242.653091 203.787333 
z
" style="fill:#1f77b4;"/>
   </g>
   <g id="patch_56">
    <path clip-path="url(#pce5ff9b0ec)" d="M 245.899635 307.584 
L 249.146179 307.584 
L 249.146179 208.018124 
L 245.899635 208.018124 
z
" style="fill:#1f77b4;"/>
   </g>
   <g id="patch_57">
    <path clip-path="url(#pce5ff9b0ec)" d="M 249.146181 307.584 
L 252.392727 307.584 
L 252.392727 208.864344 
L 249.146181 208.864344 
z
" style="fill:#1f77b4;"/>
   </g>
   <g id="patch_58">
    <path clip-path="url(#pce5ff9b0ec)" d="M 252.392727 307.584 
L 255.639273 307.584 
L 255.639273 205.761726 
L 252.392727 205.761726 
z
" style="fill:#1f77b4;"/>
   </g>
   <g id="patch_59">
    <path clip-path="url(#pce5ff9b0ec)" d="M 255.639273 307.584 
L 258.885818 307.584 
L 258.885818 221.27477 
L 255.639273 221.27477 
z
" style="fill:#1f77b4;"/>
   </g>
   <g id="patch_60">
    <path clip-path="url(#pce5ff9b0ec)" d="M 258.885816 307.584 
L 262.132362 307.584 
L 262.132362 231.428797 
L 258.885816 231.428797 
z
" style="fill:#1f77b4;"/>
   </g>
   <g id="patch_61">
    <path clip-path="url(#pce5ff9b0ec)" d="M 262.132362 307.584 
L 265.378908 307.584 
L 265.378908 228.326219 
L 262.132362 228.326219 
z
" style="fill:#1f77b4;"/>
   </g>
   <g id="patch_62">
    <path clip-path="url(#pce5ff9b0ec)" d="M 265.378908 307.584 
L 268.625455 307.584 
L 268.625455 228.326219 
L 265.378908 228.326219 
z
" style="fill:#1f77b4;"/>
   </g>
   <g id="patch_63">
    <path clip-path="url(#pce5ff9b0ec)" d="M 268.625455 307.584 
L 271.872001 307.584 
L 271.872001 238.762297 
L 268.625455 238.762297 
z
" style="fill:#1f77b4;"/>
   </g>
   <g id="patch_64">
    <path clip-path="url(#pce5ff9b0ec)" d="M 271.872001 307.584 
L 275.118547 307.584 
L 275.118547 237.916128 
L 271.872001 237.916128 
z
" style="fill:#1f77b4;"/>
   </g>
   <g id="patch_65">
    <path clip-path="url(#pce5ff9b0ec)" d="M 275.118547 307.584 
L 278.36509 307.584 
L 278.36509 242.711016 
L 275.118547 242.711016 
z
" style="fill:#1f77b4;"/>
   </g>
   <g id="patch_66">
    <path clip-path="url(#pce5ff9b0ec)" d="M 278.36509 307.584 
L 281.611636 307.584 
L 281.611636 245.813701 
L 278.36509 245.813701 
z
" style="fill:#1f77b4;"/>
   </g>
   <g id="patch_67">
    <path clip-path="url(#pce5ff9b0ec)" d="M 281.611636 307.584 
L 284.858182 307.584 
L 284.858182 253.429217 
L 281.611636 253.429217 
z
" style="fill:#1f77b4;"/>
   </g>
   <g id="patch_68">
    <path clip-path="url(#pce5ff9b0ec)" d="M 284.858178 307.584 
L 288.104718 307.584 
L 288.104718 251.17271 
L 284.858178 251.17271 
z
" style="fill:#1f77b4;"/>
   </g>
   <g id="patch_69">
    <path clip-path="url(#pce5ff9b0ec)" d="M 288.104725 307.584 
L 291.351271 307.584 
L 291.351271 252.018936 
L 288.104725 252.018936 
z
" style="fill:#1f77b4;"/>
   </g>
   <g id="patch_70">
    <path clip-path="url(#pce5ff9b0ec)" d="M 291.351271 307.584 
L 294.597817 307.584 
L 294.597817 253.711273 
L 291.351271 253.711273 
z
" style="fill:#1f77b4;"/>
   </g>
   <g id="patch_71">
    <path clip-path="url(#pce5ff9b0ec)" d="M 294.597817 307.584 
L 297.844363 307.584 
L 297.844363 260.762677 
L 294.597817 260.762677 
z
" style="fill:#1f77b4;"/>
   </g>
   <g id="patch_72">
    <path clip-path="url(#pce5ff9b0ec)" d="M 297.844363 307.584 
L 301.090909 307.584 
L 301.090909 259.352396 
L 297.844363 259.352396 
z
" style="fill:#1f77b4;"/>
   </g>
   <g id="patch_73">
    <path clip-path="url(#pce5ff9b0ec)" d="M 301.090909 307.584 
L 304.337455 307.584 
L 304.337455 264.429407 
L 301.090909 264.429407 
z
" style="fill:#1f77b4;"/>
   </g>
   <g id="patch_74">
    <path clip-path="url(#pce5ff9b0ec)" d="M 304.337455 307.584 
L 307.584001 307.584 
L 307.584001 273.737261 
L 304.337455 273.737261 
z
" style="fill:#1f77b4;"/>
   </g>
   <g id="patch_75">
    <path clip-path="url(#pce5ff9b0ec)" d="M 307.584001 307.584 
L 310.830547 307.584 
L 310.830547 271.198755 
L 307.584001 271.198755 
z
" style="fill:#1f77b4;"/>
   </g>
   <g id="patch_76">
    <path clip-path="url(#pce5ff9b0ec)" d="M 310.830547 307.584 
L 314.077094 307.584 
L 314.077094 270.634643 
L 310.830547 270.634643 
z
" style="fill:#1f77b4;"/>
   </g>
   <g id="patch_77">
    <path clip-path="url(#pce5ff9b0ec)" d="M 314.077087 307.584 
L 317.323626 307.584 
L 317.323626 281.070666 
L 314.077087 281.070666 
z
" style="fill:#1f77b4;"/>
   </g>
   <g id="patch_78">
    <path clip-path="url(#pce5ff9b0ec)" d="M 317.323633 307.584 
L 320.570179 307.584 
L 320.570179 280.224552 
L 317.323633 280.224552 
z
" style="fill:#1f77b4;"/>
   </g>
   <g id="patch_79">
    <path clip-path="url(#pce5ff9b0ec)" d="M 320.570179 307.584 
L 323.816725 307.584 
L 323.816725 284.173339 
L 320.570179 284.173339 
z
" style="fill:#1f77b4;"/>
   </g>
   <g id="patch_80">
    <path clip-path="url(#pce5ff9b0ec)" d="M 323.816725 307.584 
L 327.063271 307.584 
L 327.063271 282.198945 
L 323.816725 282.198945 
z
" style="fill:#1f77b4;"/>
   </g>
   <g id="patch_81">
    <path clip-path="url(#pce5ff9b0ec)" d="M 327.063271 307.584 
L 330.309818 307.584 
L 330.309818 284.737451 
L 327.063271 284.737451 
z
" style="fill:#1f77b4;"/>
   </g>
   <g id="patch_82">
    <path clip-path="url(#pce5ff9b0ec)" d="M 330.309818 307.584 
L 333.556364 307.584 
L 333.556364 290.378574 
L 330.309818 290.378574 
z
" style="fill:#1f77b4;"/>
   </g>
   <g id="patch_83">
    <path clip-path="url(#pce5ff9b0ec)" d="M 333.556364 307.584 
L 336.80291 307.584 
L 336.80291 290.942686 
L 333.556364 290.942686 
z
" style="fill:#1f77b4;"/>
   </g>
   <g id="patch_84">
    <path clip-path="url(#pce5ff9b0ec)" d="M 336.80291 307.584 
L 340.049456 307.584 
L 340.049456 292.352967 
L 336.80291 292.352967 
z
" style="fill:#1f77b4;"/>
   </g>
   <g id="patch_85">
    <path clip-path="url(#pce5ff9b0ec)" d="M 340.049456 307.584 
L 343.296002 307.584 
L 343.296002 296.019697 
L 340.049456 296.019697 
z
" style="fill:#1f77b4;"/>
   </g>
   <g id="patch_86">
    <path clip-path="url(#pce5ff9b0ec)" d="M 343.296002 307.584 
L 346.542548 307.584 
L 346.542548 297.147922 
L 343.296002 297.147922 
z
" style="fill:#1f77b4;"/>
   </g>
   <g id="patch_87">
    <path clip-path="url(#pce5ff9b0ec)" d="M 346.542548 307.584 
L 349.789094 307.584 
L 349.789094 297.147922 
L 346.542548 297.147922 
z
" style="fill:#1f77b4;"/>
   </g>
   <g id="patch_88">
    <path clip-path="url(#pce5ff9b0ec)" d="M 349.789094 307.584 
L 353.03564 307.584 
L 353.03564 295.173529 
L 349.789094 295.173529 
z
" style="fill:#1f77b4;"/>
   </g>
   <g id="patch_89">
    <path clip-path="url(#pce5ff9b0ec)" d="M 353.03564 307.584 
L 356.282187 307.584 
L 356.282187 294.609417 
L 353.03564 294.609417 
z
" style="fill:#1f77b4;"/>
   </g>
   <g id="patch_90">
    <path clip-path="url(#pce5ff9b0ec)" d="M 356.282187 307.584 
L 359.528733 307.584 
L 359.528733 295.737641 
L 356.282187 295.737641 
z
" style="fill:#1f77b4;"/>
   </g>
   <g id="patch_91">
    <path clip-path="url(#pce5ff9b0ec)" d="M 359.528733 307.584 
L 362.775279 307.584 
L 362.775279 297.994091 
L 359.528733 297.994091 
z
" style="fill:#1f77b4;"/>
   </g>
   <g id="patch_92">
    <path clip-path="url(#pce5ff9b0ec)" d="M 362.775279 307.584 
L 366.021825 307.584 
L 366.021825 296.58381 
L 362.775279 296.58381 
z
" style="fill:#1f77b4;"/>
   </g>
   <g id="patch_93">
    <path clip-path="url(#pce5ff9b0ec)" d="M 366.021825 307.584 
L 369.268358 307.584 
L 369.268358 302.224911 
L 366.021825 302.224911 
z
" style="fill:#1f77b4;"/>
   </g>
   <g id="patch_94">
    <path clip-path="url(#pce5ff9b0ec)" d="M 369.268358 307.584 
L 372.514904 307.584 
L 372.514904 302.224933 
L 369.268358 302.224933 
z
" style="fill:#1f77b4;"/>
   </g>
   <g id="patch_95">
    <path clip-path="url(#pce5ff9b0ec)" d="M 372.514904 307.584 
L 375.76145 307.584 
L 375.76145 301.660821 
L 372.514904 301.660821 
z
" style="fill:#1f77b4;"/>
   </g>
   <g id="patch_96">
    <path clip-path="url(#pce5ff9b0ec)" d="M 375.76145 307.584 
L 379.007996 307.584 
L 379.007996 303.071101 
L 375.76145 303.071101 
z
" style="fill:#1f77b4;"/>
   </g>
   <g id="patch_97">
    <path clip-path="url(#pce5ff9b0ec)" d="M 379.007996 307.584 
L 382.254542 307.584 
L 382.254542 301.096708 
L 379.007996 301.096708 
z
" style="fill:#1f77b4;"/>
   </g>
   <g id="patch_98">
    <path clip-path="url(#pce5ff9b0ec)" d="M 382.254542 307.584 
L 385.501088 307.584 
L 385.501088 304.481382 
L 382.254542 304.481382 
z
" style="fill:#1f77b4;"/>
   </g>
   <g id="patch_99">
    <path clip-path="url(#pce5ff9b0ec)" d="M 385.501088 307.584 
L 388.747634 307.584 
L 388.747634 303.071101 
L 385.501088 303.071101 
z
" style="fill:#1f77b4;"/>
   </g>
   <g id="patch_100">
    <path clip-path="url(#pce5ff9b0ec)" d="M 388.747634 307.584 
L 391.99418 307.584 
L 391.99418 304.199326 
L 388.747634 304.199326 
z
" style="fill:#1f77b4;"/>
   </g>
   <g id="patch_101">
    <path clip-path="url(#pce5ff9b0ec)" d="M 391.99418 307.584 
L 395.240727 307.584 
L 395.240727 304.763438 
L 391.99418 304.763438 
z
" style="fill:#1f77b4;"/>
   </g>
   <g id="patch_102">
    <path clip-path="url(#pce5ff9b0ec)" d="M 395.240727 307.584 
L 398.487273 307.584 
L 398.487273 305.609607 
L 395.240727 305.609607 
z
" style="fill:#1f77b4;"/>
   </g>
   <g id="matplotlib.axis_1">
    <g id="xtick_1">
     <g id="line2d_1">
      <defs>
       <path d="M 0 0 
L 0 3.5 
" id="m67b1ad401b" style="stroke:#000000;stroke-width:0.8;"/>
      </defs>
      <g>
       <use style="stroke:#000000;stroke-width:0.8;" x="63.103808" xlink:href="#m67b1ad401b" y="307.584"/>
      </g>
     </g>
     <g id="text_1">
      <!-- −3 -->
      <defs>
       <path d="M 10.59375 35.5 
L 73.1875 35.5 
L 73.1875 27.203125 
L 10.59375 27.203125 
z
" id="DejaVuSans-8722"/>
       <path d="M 40.578125 39.3125 
Q 47.65625 37.796875 51.625 33 
Q 55.609375 28.21875 55.609375 21.1875 
Q 55.609375 10.40625 48.1875 4.484375 
Q 40.765625 -1.421875 27.09375 -1.421875 
Q 22.515625 -1.421875 17.65625 -0.515625 
Q 12.796875 0.390625 7.625 2.203125 
L 7.625 11.71875 
Q 11.71875 9.328125 16.59375 8.109375 
Q 21.484375 6.890625 26.8125 6.890625 
Q 36.078125 6.890625 40.9375 10.546875 
Q 45.796875 14.203125 45.796875 21.1875 
Q 45.796875 27.640625 41.28125 31.265625 
Q 36.765625 34.90625 28.71875 34.90625 
L 20.21875 34.90625 
L 20.21875 43.015625 
L 29.109375 43.015625 
Q 36.375 43.015625 40.234375 45.921875 
Q 44.09375 48.828125 44.09375 54.296875 
Q 44.09375 59.90625 40.109375 62.90625 
Q 36.140625 65.921875 28.71875 65.921875 
Q 24.65625 65.921875 20.015625 65.03125 
Q 15.375 64.15625 9.8125 62.3125 
L 9.8125 71.09375 
Q 15.4375 72.65625 20.34375 73.4375 
Q 25.25 74.21875 29.59375 74.21875 
Q 40.828125 74.21875 47.359375 69.109375 
Q 53.90625 64.015625 53.90625 55.328125 
Q 53.90625 49.265625 50.4375 45.09375 
Q 46.96875 40.921875 40.578125 39.3125 
z
" id="DejaVuSans-51"/>
      </defs>
      <g transform="translate(50.572949 327.501344)scale(0.17 -0.17)">
       <use xlink:href="#DejaVuSans-8722"/>
       <use x="83.789062" xlink:href="#DejaVuSans-51"/>
      </g>
     </g>
    </g>
    <g id="xtick_2">
     <g id="line2d_2">
      <g>
       <use style="stroke:#000000;stroke-width:0.8;" x="119.3097" xlink:href="#m67b1ad401b" y="307.584"/>
      </g>
     </g>
     <g id="text_2">
      <!-- −2 -->
      <defs>
       <path d="M 19.1875 8.296875 
L 53.609375 8.296875 
L 53.609375 0 
L 7.328125 0 
L 7.328125 8.296875 
Q 12.9375 14.109375 22.625 23.890625 
Q 32.328125 33.6875 34.8125 36.53125 
Q 39.546875 41.84375 41.421875 45.53125 
Q 43.3125 49.21875 43.3125 52.78125 
Q 43.3125 58.59375 39.234375 62.25 
Q 35.15625 65.921875 28.609375 65.921875 
Q 23.96875 65.921875 18.8125 64.3125 
Q 13.671875 62.703125 7.8125 59.421875 
L 7.8125 69.390625 
Q 13.765625 71.78125 18.9375 73 
Q 24.125 74.21875 28.421875 74.21875 
Q 39.75 74.21875 46.484375 68.546875 
Q 53.21875 62.890625 53.21875 53.421875 
Q 53.21875 48.921875 51.53125 44.890625 
Q 49.859375 40.875 45.40625 35.40625 
Q 44.1875 33.984375 37.640625 27.21875 
Q 31.109375 20.453125 19.1875 8.296875 
z
" id="DejaVuSans-50"/>
      </defs>
      <g transform="translate(106.778841 327.501344)scale(0.17 -0.17)">
       <use xlink:href="#DejaVuSans-8722"/>
       <use x="83.789062" xlink:href="#DejaVuSans-50"/>
      </g>
     </g>
    </g>
    <g id="xtick_3">
     <g id="line2d_3">
      <g>
       <use style="stroke:#000000;stroke-width:0.8;" x="175.515592" xlink:href="#m67b1ad401b" y="307.584"/>
      </g>
     </g>
     <g id="text_3">
      <!-- −1 -->
      <defs>
       <path d="M 12.40625 8.296875 
L 28.515625 8.296875 
L 28.515625 63.921875 
L 10.984375 60.40625 
L 10.984375 69.390625 
L 28.421875 72.90625 
L 38.28125 72.90625 
L 38.28125 8.296875 
L 54.390625 8.296875 
L 54.390625 0 
L 12.40625 0 
z
" id="DejaVuSans-49"/>
      </defs>
      <g transform="translate(162.984732 327.501344)scale(0.17 -0.17)">
       <use xlink:href="#DejaVuSans-8722"/>
       <use x="83.789062" xlink:href="#DejaVuSans-49"/>
      </g>
     </g>
    </g>
    <g id="xtick_4">
     <g id="line2d_4">
      <g>
       <use style="stroke:#000000;stroke-width:0.8;" x="231.721484" xlink:href="#m67b1ad401b" y="307.584"/>
      </g>
     </g>
     <g id="text_4">
      <!-- 0 -->
      <defs>
       <path d="M 31.78125 66.40625 
Q 24.171875 66.40625 20.328125 58.90625 
Q 16.5 51.421875 16.5 36.375 
Q 16.5 21.390625 20.328125 13.890625 
Q 24.171875 6.390625 31.78125 6.390625 
Q 39.453125 6.390625 43.28125 13.890625 
Q 47.125 21.390625 47.125 36.375 
Q 47.125 51.421875 43.28125 58.90625 
Q 39.453125 66.40625 31.78125 66.40625 
z
M 31.78125 74.21875 
Q 44.046875 74.21875 50.515625 64.515625 
Q 56.984375 54.828125 56.984375 36.375 
Q 56.984375 17.96875 50.515625 8.265625 
Q 44.046875 -1.421875 31.78125 -1.421875 
Q 19.53125 -1.421875 13.0625 8.265625 
Q 6.59375 17.96875 6.59375 36.375 
Q 6.59375 54.828125 13.0625 64.515625 
Q 19.53125 74.21875 31.78125 74.21875 
z
" id="DejaVuSans-48"/>
      </defs>
      <g transform="translate(226.313359 327.501344)scale(0.17 -0.17)">
       <use xlink:href="#DejaVuSans-48"/>
      </g>
     </g>
    </g>
    <g id="xtick_5">
     <g id="line2d_5">
      <g>
       <use style="stroke:#000000;stroke-width:0.8;" x="287.927375" xlink:href="#m67b1ad401b" y="307.584"/>
      </g>
     </g>
     <g id="text_5">
      <!-- 1 -->
      <g transform="translate(282.51925 327.501344)scale(0.17 -0.17)">
       <use xlink:href="#DejaVuSans-49"/>
      </g>
     </g>
    </g>
    <g id="xtick_6">
     <g id="line2d_6">
      <g>
       <use style="stroke:#000000;stroke-width:0.8;" x="344.133267" xlink:href="#m67b1ad401b" y="307.584"/>
      </g>
     </g>
     <g id="text_6">
      <!-- 2 -->
      <g transform="translate(338.725142 327.501344)scale(0.17 -0.17)">
       <use xlink:href="#DejaVuSans-50"/>
      </g>
     </g>
    </g>
    <g id="xtick_7">
     <g id="line2d_7">
      <g>
       <use style="stroke:#000000;stroke-width:0.8;" x="400.339159" xlink:href="#m67b1ad401b" y="307.584"/>
      </g>
     </g>
     <g id="text_7">
      <!-- 3 -->
      <g transform="translate(394.931034 327.501344)scale(0.17 -0.17)">
       <use xlink:href="#DejaVuSans-51"/>
      </g>
     </g>
    </g>
    <g id="text_8">
     <!-- Position in Radian -->
     <defs>
      <path d="M 19.671875 64.796875 
L 19.671875 37.40625 
L 32.078125 37.40625 
Q 38.96875 37.40625 42.71875 40.96875 
Q 46.484375 44.53125 46.484375 51.125 
Q 46.484375 57.671875 42.71875 61.234375 
Q 38.96875 64.796875 32.078125 64.796875 
z
M 9.8125 72.90625 
L 32.078125 72.90625 
Q 44.34375 72.90625 50.609375 67.359375 
Q 56.890625 61.8125 56.890625 51.125 
Q 56.890625 40.328125 50.609375 34.8125 
Q 44.34375 29.296875 32.078125 29.296875 
L 19.671875 29.296875 
L 19.671875 0 
L 9.8125 0 
z
" id="DejaVuSans-80"/>
      <path d="M 30.609375 48.390625 
Q 23.390625 48.390625 19.1875 42.75 
Q 14.984375 37.109375 14.984375 27.296875 
Q 14.984375 17.484375 19.15625 11.84375 
Q 23.34375 6.203125 30.609375 6.203125 
Q 37.796875 6.203125 41.984375 11.859375 
Q 46.1875 17.53125 46.1875 27.296875 
Q 46.1875 37.015625 41.984375 42.703125 
Q 37.796875 48.390625 30.609375 48.390625 
z
M 30.609375 56 
Q 42.328125 56 49.015625 48.375 
Q 55.71875 40.765625 55.71875 27.296875 
Q 55.71875 13.875 49.015625 6.21875 
Q 42.328125 -1.421875 30.609375 -1.421875 
Q 18.84375 -1.421875 12.171875 6.21875 
Q 5.515625 13.875 5.515625 27.296875 
Q 5.515625 40.765625 12.171875 48.375 
Q 18.84375 56 30.609375 56 
z
" id="DejaVuSans-111"/>
      <path d="M 44.28125 53.078125 
L 44.28125 44.578125 
Q 40.484375 46.53125 36.375 47.5 
Q 32.28125 48.484375 27.875 48.484375 
Q 21.1875 48.484375 17.84375 46.4375 
Q 14.5 44.390625 14.5 40.28125 
Q 14.5 37.15625 16.890625 35.375 
Q 19.28125 33.59375 26.515625 31.984375 
L 29.59375 31.296875 
Q 39.15625 29.25 43.1875 25.515625 
Q 47.21875 21.78125 47.21875 15.09375 
Q 47.21875 7.46875 41.1875 3.015625 
Q 35.15625 -1.421875 24.609375 -1.421875 
Q 20.21875 -1.421875 15.453125 -0.5625 
Q 10.6875 0.296875 5.421875 2 
L 5.421875 11.28125 
Q 10.40625 8.6875 15.234375 7.390625 
Q 20.0625 6.109375 24.8125 6.109375 
Q 31.15625 6.109375 34.5625 8.28125 
Q 37.984375 10.453125 37.984375 14.40625 
Q 37.984375 18.0625 35.515625 20.015625 
Q 33.0625 21.96875 24.703125 23.78125 
L 21.578125 24.515625 
Q 13.234375 26.265625 9.515625 29.90625 
Q 5.8125 33.546875 5.8125 39.890625 
Q 5.8125 47.609375 11.28125 51.796875 
Q 16.75 56 26.8125 56 
Q 31.78125 56 36.171875 55.265625 
Q 40.578125 54.546875 44.28125 53.078125 
z
" id="DejaVuSans-115"/>
      <path d="M 9.421875 54.6875 
L 18.40625 54.6875 
L 18.40625 0 
L 9.421875 0 
z
M 9.421875 75.984375 
L 18.40625 75.984375 
L 18.40625 64.59375 
L 9.421875 64.59375 
z
" id="DejaVuSans-105"/>
      <path d="M 18.3125 70.21875 
L 18.3125 54.6875 
L 36.8125 54.6875 
L 36.8125 47.703125 
L 18.3125 47.703125 
L 18.3125 18.015625 
Q 18.3125 11.328125 20.140625 9.421875 
Q 21.96875 7.515625 27.59375 7.515625 
L 36.8125 7.515625 
L 36.8125 0 
L 27.59375 0 
Q 17.1875 0 13.234375 3.875 
Q 9.28125 7.765625 9.28125 18.015625 
L 9.28125 47.703125 
L 2.6875 47.703125 
L 2.6875 54.6875 
L 9.28125 54.6875 
L 9.28125 70.21875 
z
" id="DejaVuSans-116"/>
      <path d="M 54.890625 33.015625 
L 54.890625 0 
L 45.90625 0 
L 45.90625 32.71875 
Q 45.90625 40.484375 42.875 44.328125 
Q 39.84375 48.1875 33.796875 48.1875 
Q 26.515625 48.1875 22.3125 43.546875 
Q 18.109375 38.921875 18.109375 30.90625 
L 18.109375 0 
L 9.078125 0 
L 9.078125 54.6875 
L 18.109375 54.6875 
L 18.109375 46.1875 
Q 21.34375 51.125 25.703125 53.5625 
Q 30.078125 56 35.796875 56 
Q 45.21875 56 50.046875 50.171875 
Q 54.890625 44.34375 54.890625 33.015625 
z
" id="DejaVuSans-110"/>
      <path id="DejaVuSans-32"/>
      <path d="M 44.390625 34.1875 
Q 47.5625 33.109375 50.5625 29.59375 
Q 53.5625 26.078125 56.59375 19.921875 
L 66.609375 0 
L 56 0 
L 46.6875 18.703125 
Q 43.0625 26.03125 39.671875 28.421875 
Q 36.28125 30.8125 30.421875 30.8125 
L 19.671875 30.8125 
L 19.671875 0 
L 9.8125 0 
L 9.8125 72.90625 
L 32.078125 72.90625 
Q 44.578125 72.90625 50.734375 67.671875 
Q 56.890625 62.453125 56.890625 51.90625 
Q 56.890625 45.015625 53.6875 40.46875 
Q 50.484375 35.9375 44.390625 34.1875 
z
M 19.671875 64.796875 
L 19.671875 38.921875 
L 32.078125 38.921875 
Q 39.203125 38.921875 42.84375 42.21875 
Q 46.484375 45.515625 46.484375 51.90625 
Q 46.484375 58.296875 42.84375 61.546875 
Q 39.203125 64.796875 32.078125 64.796875 
z
" id="DejaVuSans-82"/>
      <path d="M 34.28125 27.484375 
Q 23.390625 27.484375 19.1875 25 
Q 14.984375 22.515625 14.984375 16.5 
Q 14.984375 11.71875 18.140625 8.90625 
Q 21.296875 6.109375 26.703125 6.109375 
Q 34.1875 6.109375 38.703125 11.40625 
Q 43.21875 16.703125 43.21875 25.484375 
L 43.21875 27.484375 
z
M 52.203125 31.203125 
L 52.203125 0 
L 43.21875 0 
L 43.21875 8.296875 
Q 40.140625 3.328125 35.546875 0.953125 
Q 30.953125 -1.421875 24.3125 -1.421875 
Q 15.921875 -1.421875 10.953125 3.296875 
Q 6 8.015625 6 15.921875 
Q 6 25.140625 12.171875 29.828125 
Q 18.359375 34.515625 30.609375 34.515625 
L 43.21875 34.515625 
L 43.21875 35.40625 
Q 43.21875 41.609375 39.140625 45 
Q 35.0625 48.390625 27.6875 48.390625 
Q 23 48.390625 18.546875 47.265625 
Q 14.109375 46.140625 10.015625 43.890625 
L 10.015625 52.203125 
Q 14.9375 54.109375 19.578125 55.046875 
Q 24.21875 56 28.609375 56 
Q 40.484375 56 46.34375 49.84375 
Q 52.203125 43.703125 52.203125 31.203125 
z
" id="DejaVuSans-97"/>
      <path d="M 45.40625 46.390625 
L 45.40625 75.984375 
L 54.390625 75.984375 
L 54.390625 0 
L 45.40625 0 
L 45.40625 8.203125 
Q 42.578125 3.328125 38.25 0.953125 
Q 33.9375 -1.421875 27.875 -1.421875 
Q 17.96875 -1.421875 11.734375 6.484375 
Q 5.515625 14.40625 5.515625 27.296875 
Q 5.515625 40.1875 11.734375 48.09375 
Q 17.96875 56 27.875 56 
Q 33.9375 56 38.25 53.625 
Q 42.578125 51.265625 45.40625 46.390625 
z
M 14.796875 27.296875 
Q 14.796875 17.390625 18.875 11.75 
Q 22.953125 6.109375 30.078125 6.109375 
Q 37.203125 6.109375 41.296875 11.75 
Q 45.40625 17.390625 45.40625 27.296875 
Q 45.40625 37.203125 41.296875 42.84375 
Q 37.203125 48.484375 30.078125 48.484375 
Q 22.953125 48.484375 18.875 42.84375 
Q 14.796875 37.203125 14.796875 27.296875 
z
" id="DejaVuSans-100"/>
     </defs>
     <g transform="translate(102.024844 357.832125)scale(0.3 -0.3)">
      <use xlink:href="#DejaVuSans-80"/>
      <use x="60.255859" xlink:href="#DejaVuSans-111"/>
      <use x="121.4375" xlink:href="#DejaVuSans-115"/>
      <use x="173.537109" xlink:href="#DejaVuSans-105"/>
      <use x="201.320312" xlink:href="#DejaVuSans-116"/>
      <use x="240.529297" xlink:href="#DejaVuSans-105"/>
      <use x="268.3125" xlink:href="#DejaVuSans-111"/>
      <use x="329.494141" xlink:href="#DejaVuSans-110"/>
      <use x="392.873047" xlink:href="#DejaVuSans-32"/>
      <use x="424.660156" xlink:href="#DejaVuSans-105"/>
      <use x="452.443359" xlink:href="#DejaVuSans-110"/>
      <use x="515.822266" xlink:href="#DejaVuSans-32"/>
      <use x="547.609375" xlink:href="#DejaVuSans-82"/>
      <use x="617.060547" xlink:href="#DejaVuSans-97"/>
      <use x="678.339844" xlink:href="#DejaVuSans-100"/>
      <use x="741.816406" xlink:href="#DejaVuSans-105"/>
      <use x="769.599609" xlink:href="#DejaVuSans-97"/>
      <use x="830.878906" xlink:href="#DejaVuSans-110"/>
     </g>
    </g>
   </g>
   <g id="matplotlib.axis_2">
    <g id="ytick_1">
     <g id="line2d_8">
      <defs>
       <path d="M 0 0 
L -3.5 0 
" id="m701f9ffa93" style="stroke:#000000;stroke-width:0.8;"/>
      </defs>
      <g>
       <use style="stroke:#000000;stroke-width:0.8;" x="57.6" xlink:href="#m701f9ffa93" y="307.584"/>
      </g>
     </g>
     <g id="text_9">
      <!-- 0.0 -->
      <defs>
       <path d="M 10.6875 12.40625 
L 21 12.40625 
L 21 0 
L 10.6875 0 
z
" id="DejaVuSans-46"/>
      </defs>
      <g transform="translate(23.564687 314.042672)scale(0.17 -0.17)">
       <use xlink:href="#DejaVuSans-48"/>
       <use x="63.623047" xlink:href="#DejaVuSans-46"/>
       <use x="95.410156" xlink:href="#DejaVuSans-48"/>
      </g>
     </g>
    </g>
    <g id="ytick_2">
     <g id="line2d_9">
      <g>
       <use style="stroke:#000000;stroke-width:0.8;" x="57.6" xlink:href="#m701f9ffa93" y="266.853913"/>
      </g>
     </g>
     <g id="text_10">
      <!-- 0.2 -->
      <g transform="translate(23.564687 273.312585)scale(0.17 -0.17)">
       <use xlink:href="#DejaVuSans-48"/>
       <use x="63.623047" xlink:href="#DejaVuSans-46"/>
       <use x="95.410156" xlink:href="#DejaVuSans-50"/>
      </g>
     </g>
    </g>
    <g id="ytick_3">
     <g id="line2d_10">
      <g>
       <use style="stroke:#000000;stroke-width:0.8;" x="57.6" xlink:href="#m701f9ffa93" y="226.123827"/>
      </g>
     </g>
     <g id="text_11">
      <!-- 0.4 -->
      <defs>
       <path d="M 37.796875 64.3125 
L 12.890625 25.390625 
L 37.796875 25.390625 
z
M 35.203125 72.90625 
L 47.609375 72.90625 
L 47.609375 25.390625 
L 58.015625 25.390625 
L 58.015625 17.1875 
L 47.609375 17.1875 
L 47.609375 0 
L 37.796875 0 
L 37.796875 17.1875 
L 4.890625 17.1875 
L 4.890625 26.703125 
z
" id="DejaVuSans-52"/>
      </defs>
      <g transform="translate(23.564687 232.582499)scale(0.17 -0.17)">
       <use xlink:href="#DejaVuSans-48"/>
       <use x="63.623047" xlink:href="#DejaVuSans-46"/>
       <use x="95.410156" xlink:href="#DejaVuSans-52"/>
      </g>
     </g>
    </g>
    <g id="ytick_4">
     <g id="line2d_11">
      <g>
       <use style="stroke:#000000;stroke-width:0.8;" x="57.6" xlink:href="#m701f9ffa93" y="185.39374"/>
      </g>
     </g>
     <g id="text_12">
      <!-- 0.6 -->
      <defs>
       <path d="M 33.015625 40.375 
Q 26.375 40.375 22.484375 35.828125 
Q 18.609375 31.296875 18.609375 23.390625 
Q 18.609375 15.53125 22.484375 10.953125 
Q 26.375 6.390625 33.015625 6.390625 
Q 39.65625 6.390625 43.53125 10.953125 
Q 47.40625 15.53125 47.40625 23.390625 
Q 47.40625 31.296875 43.53125 35.828125 
Q 39.65625 40.375 33.015625 40.375 
z
M 52.59375 71.296875 
L 52.59375 62.3125 
Q 48.875 64.0625 45.09375 64.984375 
Q 41.3125 65.921875 37.59375 65.921875 
Q 27.828125 65.921875 22.671875 59.328125 
Q 17.53125 52.734375 16.796875 39.40625 
Q 19.671875 43.65625 24.015625 45.921875 
Q 28.375 48.1875 33.59375 48.1875 
Q 44.578125 48.1875 50.953125 41.515625 
Q 57.328125 34.859375 57.328125 23.390625 
Q 57.328125 12.15625 50.6875 5.359375 
Q 44.046875 -1.421875 33.015625 -1.421875 
Q 20.359375 -1.421875 13.671875 8.265625 
Q 6.984375 17.96875 6.984375 36.375 
Q 6.984375 53.65625 15.1875 63.9375 
Q 23.390625 74.21875 37.203125 74.21875 
Q 40.921875 74.21875 44.703125 73.484375 
Q 48.484375 72.75 52.59375 71.296875 
z
" id="DejaVuSans-54"/>
      </defs>
      <g transform="translate(23.564687 191.852412)scale(0.17 -0.17)">
       <use xlink:href="#DejaVuSans-48"/>
       <use x="63.623047" xlink:href="#DejaVuSans-46"/>
       <use x="95.410156" xlink:href="#DejaVuSans-54"/>
      </g>
     </g>
    </g>
    <g id="ytick_5">
     <g id="line2d_12">
      <g>
       <use style="stroke:#000000;stroke-width:0.8;" x="57.6" xlink:href="#m701f9ffa93" y="144.663653"/>
      </g>
     </g>
     <g id="text_13">
      <!-- 0.8 -->
      <defs>
       <path d="M 31.78125 34.625 
Q 24.75 34.625 20.71875 30.859375 
Q 16.703125 27.09375 16.703125 20.515625 
Q 16.703125 13.921875 20.71875 10.15625 
Q 24.75 6.390625 31.78125 6.390625 
Q 38.8125 6.390625 42.859375 10.171875 
Q 46.921875 13.96875 46.921875 20.515625 
Q 46.921875 27.09375 42.890625 30.859375 
Q 38.875 34.625 31.78125 34.625 
z
M 21.921875 38.8125 
Q 15.578125 40.375 12.03125 44.71875 
Q 8.5 49.078125 8.5 55.328125 
Q 8.5 64.0625 14.71875 69.140625 
Q 20.953125 74.21875 31.78125 74.21875 
Q 42.671875 74.21875 48.875 69.140625 
Q 55.078125 64.0625 55.078125 55.328125 
Q 55.078125 49.078125 51.53125 44.71875 
Q 48 40.375 41.703125 38.8125 
Q 48.828125 37.15625 52.796875 32.3125 
Q 56.78125 27.484375 56.78125 20.515625 
Q 56.78125 9.90625 50.3125 4.234375 
Q 43.84375 -1.421875 31.78125 -1.421875 
Q 19.734375 -1.421875 13.25 4.234375 
Q 6.78125 9.90625 6.78125 20.515625 
Q 6.78125 27.484375 10.78125 32.3125 
Q 14.796875 37.15625 21.921875 38.8125 
z
M 18.3125 54.390625 
Q 18.3125 48.734375 21.84375 45.5625 
Q 25.390625 42.390625 31.78125 42.390625 
Q 38.140625 42.390625 41.71875 45.5625 
Q 45.3125 48.734375 45.3125 54.390625 
Q 45.3125 60.0625 41.71875 63.234375 
Q 38.140625 66.40625 31.78125 66.40625 
Q 25.390625 66.40625 21.84375 63.234375 
Q 18.3125 60.0625 18.3125 54.390625 
z
" id="DejaVuSans-56"/>
      </defs>
      <g transform="translate(23.564687 151.122325)scale(0.17 -0.17)">
       <use xlink:href="#DejaVuSans-48"/>
       <use x="63.623047" xlink:href="#DejaVuSans-46"/>
       <use x="95.410156" xlink:href="#DejaVuSans-56"/>
      </g>
     </g>
    </g>
    <g id="ytick_6">
     <g id="line2d_13">
      <g>
       <use style="stroke:#000000;stroke-width:0.8;" x="57.6" xlink:href="#m701f9ffa93" y="103.933567"/>
      </g>
     </g>
     <g id="text_14">
      <!-- 1.0 -->
      <g transform="translate(23.564687 110.392239)scale(0.17 -0.17)">
       <use xlink:href="#DejaVuSans-49"/>
       <use x="63.623047" xlink:href="#DejaVuSans-46"/>
       <use x="95.410156" xlink:href="#DejaVuSans-48"/>
      </g>
     </g>
    </g>
    <g id="ytick_7">
     <g id="line2d_14">
      <g>
       <use style="stroke:#000000;stroke-width:0.8;" x="57.6" xlink:href="#m701f9ffa93" y="63.20348"/>
      </g>
     </g>
     <g id="text_15">
      <!-- 1.2 -->
      <g transform="translate(23.564687 69.662152)scale(0.17 -0.17)">
       <use xlink:href="#DejaVuSans-49"/>
       <use x="63.623047" xlink:href="#DejaVuSans-46"/>
       <use x="95.410156" xlink:href="#DejaVuSans-50"/>
      </g>
     </g>
    </g>
    <g id="text_16">
     <!-- Density -->
     <defs>
      <path d="M 19.671875 64.796875 
L 19.671875 8.109375 
L 31.59375 8.109375 
Q 46.6875 8.109375 53.6875 14.9375 
Q 60.6875 21.78125 60.6875 36.53125 
Q 60.6875 51.171875 53.6875 57.984375 
Q 46.6875 64.796875 31.59375 64.796875 
z
M 9.8125 72.90625 
L 30.078125 72.90625 
Q 51.265625 72.90625 61.171875 64.09375 
Q 71.09375 55.28125 71.09375 36.53125 
Q 71.09375 17.671875 61.125 8.828125 
Q 51.171875 0 30.078125 0 
L 9.8125 0 
z
" id="DejaVuSans-68"/>
      <path d="M 56.203125 29.59375 
L 56.203125 25.203125 
L 14.890625 25.203125 
Q 15.484375 15.921875 20.484375 11.0625 
Q 25.484375 6.203125 34.421875 6.203125 
Q 39.59375 6.203125 44.453125 7.46875 
Q 49.3125 8.734375 54.109375 11.28125 
L 54.109375 2.78125 
Q 49.265625 0.734375 44.1875 -0.34375 
Q 39.109375 -1.421875 33.890625 -1.421875 
Q 20.796875 -1.421875 13.15625 6.1875 
Q 5.515625 13.8125 5.515625 26.8125 
Q 5.515625 40.234375 12.765625 48.109375 
Q 20.015625 56 32.328125 56 
Q 43.359375 56 49.78125 48.890625 
Q 56.203125 41.796875 56.203125 29.59375 
z
M 47.21875 32.234375 
Q 47.125 39.59375 43.09375 43.984375 
Q 39.0625 48.390625 32.421875 48.390625 
Q 24.90625 48.390625 20.390625 44.140625 
Q 15.875 39.890625 15.1875 32.171875 
z
" id="DejaVuSans-101"/>
      <path d="M 32.171875 -5.078125 
Q 28.375 -14.84375 24.75 -17.8125 
Q 21.140625 -20.796875 15.09375 -20.796875 
L 7.90625 -20.796875 
L 7.90625 -13.28125 
L 13.1875 -13.28125 
Q 16.890625 -13.28125 18.9375 -11.515625 
Q 21 -9.765625 23.484375 -3.21875 
L 25.09375 0.875 
L 2.984375 54.6875 
L 12.5 54.6875 
L 29.59375 11.921875 
L 46.6875 54.6875 
L 56.203125 54.6875 
z
" id="DejaVuSans-121"/>
     </defs>
     <g transform="translate(13.325625 231.553781)rotate(-90)scale(0.3 -0.3)">
      <use xlink:href="#DejaVuSans-68"/>
      <use x="77.001953" xlink:href="#DejaVuSans-101"/>
      <use x="138.525391" xlink:href="#DejaVuSans-110"/>
      <use x="201.904297" xlink:href="#DejaVuSans-115"/>
      <use x="254.003906" xlink:href="#DejaVuSans-105"/>
      <use x="281.787109" xlink:href="#DejaVuSans-116"/>
      <use x="320.996094" xlink:href="#DejaVuSans-121"/>
     </g>
    </g>
   </g>
   <g id="line2d_15">
    <path clip-path="url(#pce5ff9b0ec)" d="M 91.206754 305.845804 
L 91.914948 304.698094 
L 92.128531 304.7017 
L 92.353354 304.95816 
L 92.758037 305.851066 
L 93.331337 306.976695 
L 93.623607 307.141344 
L 93.882155 307.031217 
L 94.264355 306.56489 
L 94.882619 305.852873 
L 95.231096 305.788416 
L 96.636243 305.825457 
L 97.580502 305.678325 
L 97.895255 306.17313 
L 98.614691 307.336136 
L 99.019373 307.536614 
L 99.693844 307.569369 
L 100.222179 307.423097 
L 100.559415 307.078216 
L 100.964097 306.281717 
L 101.514915 305.287129 
L 101.728497 305.270826 
L 101.953321 305.524585 
L 102.459174 306.576127 
L 102.908821 307.248538 
L 103.246056 307.397817 
L 103.594533 307.299371 
L 104.741133 306.786153 
L 105.269468 306.603055 
L 105.842768 306.413996 
L 106.269933 306.565528 
L 106.640892 306.609343 
L 106.91068 306.390855 
L 107.630116 305.668297 
L 107.843698 305.841265 
L 108.237139 306.55098 
L 108.709269 307.235795 
L 109.001539 307.314933 
L 109.282569 307.143838 
L 110.283034 306.295496 
L 110.653993 306.580659 
L 111.024952 306.755737 
L 111.317222 306.632793 
L 112.014175 306.259266 
L 112.677405 306.148172 
L 113.58794 305.588535 
L 113.913934 305.85117 
L 114.835711 306.68985 
L 115.139223 306.62922 
L 115.645076 306.224145 
L 116.060999 306.027274 
L 116.409476 306.118565 
L 116.949053 306.273269 
L 117.218841 306.071647 
L 117.870829 305.491119 
L 118.129376 305.619571 
L 118.64647 305.904257 
L 118.893776 305.751843 
L 119.287218 305.181574 
L 120.152788 303.923905 
L 121.400559 302.949365 
L 121.625383 303.104175 
L 121.951377 303.677797 
L 122.727018 305.094887 
L 122.996807 305.166071 
L 123.31156 304.984267 
L 124.132166 304.469888 
L 125.110148 304.008314 
L 125.402419 304.349877 
L 125.941995 304.976017 
L 126.211784 304.95147 
L 127.189766 304.636107 
L 127.527001 304.815126 
L 128.381331 305.430115 
L 128.617396 305.166373 
L 128.999596 304.320635 
L 129.685308 302.835426 
L 129.932614 302.748983 
L 130.157437 302.93618 
L 130.505914 303.58759 
L 131.42769 305.444299 
L 131.686237 305.47796 
L 132.102161 305.235688 
L 132.652979 305.013123 
L 133.777097 304.710985 
L 134.305432 304.596585 
L 134.608944 304.771845 
L 135.395826 305.392662 
L 135.631891 305.14714 
L 136.250156 304.400866 
L 136.441256 304.533755 
L 136.756009 305.108823 
L 137.250621 305.91113 
L 137.497927 305.948302 
L 137.745233 305.722604 
L 138.127433 305.003704 
L 138.734456 303.918814 
L 138.95928 303.898974 
L 139.195345 304.14906 
L 139.813609 304.877889 
L 140.049674 304.792499 
L 140.881521 304.280517 
L 141.34241 304.51577 
L 141.780816 304.613242 
L 142.87121 304.500458 
L 143.25341 303.981502 
L 143.725539 303.446767 
L 144.062775 303.41818 
L 144.355045 303.323987 
L 144.568628 302.972056 
L 144.860898 301.981131 
L 145.54661 299.554256 
L 145.703987 299.557355 
L 145.883846 299.869103 
L 146.625763 301.443049 
L 146.805622 301.298994 
L 147.525058 300.418737 
L 147.54754 300.436248 
L 147.749881 300.768304 
L 148.491799 302.289022 
L 148.50304 302.284263 
L 148.671658 302.079937 
L 149.042617 301.13563 
L 149.436058 300.413467 
L 149.750811 300.269052 
L 151.245888 300.17959 
L 151.470711 300.513505 
L 151.796705 301.500786 
L 152.325041 303.006622 
L 152.5049 303.047952 
L 152.684759 302.79705 
L 153.021994 301.819202 
L 153.516606 300.564039 
L 153.775153 300.404265 
L 154.528312 300.275248 
L 155.07913 299.479215 
L 155.731118 298.368334 
L 156.281936 296.668466 
L 156.821512 295.353393 
L 157.158748 294.989494 
L 157.338606 295.048078 
L 157.540948 295.405672 
L 157.911906 296.660072 
L 158.260383 297.522527 
L 158.41776 297.504445 
L 158.597618 297.143102 
L 159.530636 294.757176 
L 159.957801 294.559604 
L 160.193866 294.0212 
L 161.149366 291.322677 
L 161.160607 291.327183 
L 161.351707 291.538441 
L 161.823837 292.104669 
L 161.969972 291.922372 
L 162.183554 291.210732 
L 163.127813 287.443134 
L 163.273949 287.523159 
L 163.487531 287.970192 
L 164.364343 290.172555 
L 164.555443 290.007709 
L 165.00509 289.570649 
L 165.151225 289.763681 
L 165.364808 290.493246 
L 165.76949 292.895417 
L 166.331549 295.884396 
L 166.556373 296.232485 
L 166.668784 296.106083 
L 166.837402 295.475433 
L 167.10719 293.409702 
L 167.894073 286.872066 
L 168.107655 286.552509 
L 168.253791 286.67187 
L 168.489855 287.252183 
L 169.400391 289.822212 
L 169.625214 289.804356 
L 169.939967 289.78249 
L 170.131067 290.061093 
L 170.423338 290.998328 
L 170.884226 292.355323 
L 171.01912 292.334453 
L 171.165256 291.992052 
L 171.40132 290.750621 
L 171.974621 286.024852 
L 172.379303 283.760509 
L 172.649091 283.242756 
L 172.851433 283.231334 
L 173.166185 283.507213 
L 173.604591 283.804853 
L 173.87438 283.717495 
L 174.526368 283.399407 
L 174.751192 283.637546 
L 175.526833 284.755255 
L 175.560556 284.727204 
L 175.740415 284.385595 
L 176.021445 283.272989 
L 176.988186 279.058773 
L 177.269216 278.736037 
L 177.460316 278.802444 
L 178.033616 279.186437 
L 178.044857 279.172419 
L 178.224716 278.73483 
L 178.55071 277.14196 
L 178.876704 275.986857 
L 178.977875 276.048579 
L 179.112769 276.536622 
L 179.360075 278.488895 
L 179.989581 283.654626 
L 180.090751 283.752399 
L 180.124475 283.721843 
L 180.248128 283.343912 
L 180.46171 281.79652 
L 180.888875 276.602179 
L 181.372246 271.643304 
L 181.563346 271.138568 
L 181.574587 271.141182 
L 181.675758 271.321498 
L 181.855616 272.263684 
L 182.294022 276.218733 
L 182.732428 279.198752 
L 183.002217 279.861344 
L 183.159593 279.853699 
L 183.328211 279.535851 
L 183.60924 278.407317 
L 184.249987 275.786417 
L 184.767082 274.360808 
L 185.171764 272.039652 
L 185.700099 269.412519 
L 186.307123 267.717011 
L 186.588152 267.371868 
L 186.734288 267.468972 
L 186.94787 267.956224 
L 187.442482 269.124039 
L 187.566135 269.022017 
L 187.745994 268.462629 
L 188.083229 266.47482 
L 188.577841 263.887879 
L 188.791423 263.621379 
L 188.926318 263.751676 
L 189.151141 264.368453 
L 190.016712 267.066658 
L 190.275259 267.175984 
L 190.533806 267.033796 
L 190.769871 266.632674 
L 191.028418 265.667043 
L 191.444341 262.965039 
L 191.770336 261.530294 
L 191.849024 261.523416 
L 191.882747 261.569136 
L 192.028883 262.08957 
L 192.354877 264.413232 
L 192.680871 266.020227 
L 192.759559 266.040979 
L 192.793283 265.998661 
L 192.928177 265.527376 
L 193.164242 263.675622 
L 193.591407 258.176925 
L 194.333324 248.793722 
L 194.513183 248.29903 
L 194.524424 248.305317 
L 194.614354 248.515614 
L 194.782971 249.638614 
L 195.108966 253.735635 
L 195.648542 260.02287 
L 195.862125 260.605126 
L 195.963295 260.451215 
L 196.154395 259.592029 
L 196.952519 255.459809 
L 197.177342 255.279916 
L 197.357201 255.414907 
L 197.582025 255.917452 
L 197.91926 257.336267 
L 198.368907 259.041611 
L 198.470078 258.986965 
L 198.604972 258.476652 
L 198.818554 256.546697 
L 199.200755 250.530345 
L 199.717849 243.357052 
L 199.953914 242.403383 
L 200.043843 242.499644 
L 200.189978 243.164158 
L 200.448525 245.605234 
L 201.212925 253.423395 
L 201.325337 253.561155 
L 201.359061 253.530585 
L 201.482714 253.145035 
L 201.696296 251.582738 
L 202.123461 246.37211 
L 202.68552 240.285034 
L 202.887861 239.718829 
L 202.899102 239.722841 
L 202.989032 239.892171 
L 203.157649 240.837547 
L 203.472402 244.207183 
L 204.034461 249.894621 
L 204.248044 250.438888 
L 204.349214 250.334998 
L 204.517832 249.713079 
L 204.798861 247.678014 
L 205.248509 242.544059 
L 206.02415 233.641049 
L 206.248973 233.015305 
L 206.338903 233.129179 
L 206.496279 233.796801 
L 206.78855 236.243679 
L 207.530468 242.701136 
L 207.710327 243.010138 
L 207.721568 243.004195 
L 207.83398 242.772179 
L 208.013838 241.744367 
L 208.31735 238.463394 
L 208.958097 231.551421 
L 209.239127 230.653547 
L 209.542639 229.850215 
L 209.823668 228.19073 
L 210.250833 225.887502 
L 210.329521 225.858247 
L 210.363245 225.897477 
L 210.498139 226.35787 
L 210.756686 228.301404 
L 211.36371 232.910961 
L 211.599774 233.347417 
L 211.74591 233.268967 
L 211.981974 232.79946 
L 212.42038 231.351546 
L 213.578222 227.197145 
L 214.03911 226.133674 
L 214.151522 226.226914 
L 214.308898 226.789553 
L 214.556204 228.71307 
L 215.421775 236.236958 
L 216.242381 238.958817 
L 216.433481 239.176161 
L 216.444722 239.170351 
L 216.568375 238.943861 
L 216.759475 237.990042 
L 217.119193 234.763809 
L 217.714975 229.836829 
L 218.007246 228.868715 
L 218.164622 228.846157 
L 218.344481 229.163826 
L 218.681717 229.72252 
L 218.692958 229.717107 
L 218.80537 229.521511 
L 218.99647 228.584957 
L 219.56977 225.326127 
L 219.581011 225.329488 
L 219.67094 225.497661 
L 219.839558 226.426638 
L 220.52527 230.998738 
L 220.547752 230.98831 
L 220.648923 230.753374 
L 220.828782 229.613838 
L 221.166017 225.674638 
L 221.716835 219.63563 
L 221.885452 219.230971 
L 221.907935 219.246887 
L 222.020347 219.56568 
L 222.233929 221.099311 
L 222.885917 226.182486 
L 222.953364 226.180165 
L 222.987088 226.124369 
L 223.121982 225.539555 
L 223.358047 223.269929 
L 224.347271 212.32392 
L 224.549612 212.088374 
L 224.684506 212.272638 
L 224.898088 213.048504 
L 225.257806 215.42225 
L 225.617524 217.316044 
L 225.684971 217.323258 
L 225.718694 217.265691 
L 225.842347 216.672189 
L 226.044688 214.358269 
L 226.404406 207.056363 
L 227.449836 179.716716 
L 227.843277 171.961164 
L 227.96693 171.412147 
L 228.000654 171.454376 
L 228.101824 172.062873 
L 228.304165 175.138987 
L 229.20346 191.109636 
L 229.675589 193.692557 
L 230.136477 195.881916 
L 230.170201 195.85225 
L 230.26013 195.4289 
L 230.395024 193.447002 
L 230.574883 186.918785 
L 230.810948 168.501597 
L 231.159425 119.427006 
L 231.642795 56.881009 
L 231.743966 54.144 
L 231.788931 54.511312 
L 231.890101 58.821106 
L 232.092442 79.718192 
L 232.969254 183.932085 
L 233.239043 190.994296 
L 233.362696 191.582234 
L 233.396419 191.535697 
L 233.49759 190.95811 
L 233.699931 188.240173 
L 234.082131 179.4521 
L 235.161284 153.062523 
L 235.262455 152.739726 
L 235.307419 152.81986 
L 235.419831 153.629159 
L 235.622172 157.123899 
L 236.128025 171.409656 
L 236.465261 177.301374 
L 236.566431 177.669943 
L 236.611396 177.612267 
L 236.723808 176.902136 
L 236.93739 173.689136 
L 237.836685 158.129791 
L 237.971579 157.858868 
L 238.005302 157.885253 
L 238.117714 158.215869 
L 238.331296 159.714225 
L 238.679773 164.017545 
L 239.174385 173.23329 
L 239.972508 187.972493 
L 240.253538 189.717252 
L 240.36595 189.798482 
L 240.399673 189.766257 
L 240.55705 189.357331 
L 241.074144 187.833824 
L 241.085385 187.838132 
L 241.197797 188.014908 
L 241.388897 188.846577 
L 241.759856 191.707702 
L 242.715356 199.158641 
L 242.951421 199.713974 
L 243.063832 199.627434 
L 243.243691 199.070742 
L 243.749544 197.272131 
L 243.772027 197.280923 
L 243.873197 197.48267 
L 244.053056 198.514407 
L 244.37905 202.073484 
L 245.064762 209.467841 
L 245.368274 210.794089 
L 245.514409 210.891032 
L 245.536892 210.87465 
L 245.683027 210.581204 
L 245.975298 209.330593 
L 246.335015 208.123554 
L 246.447427 208.154842 
L 246.458668 208.171858 
L 246.604804 208.622063 
L 246.874592 210.357962 
L 247.391686 213.556463 
L 247.492857 213.640243 
L 247.537821 213.59678 
L 247.672716 213.17255 
L 247.920022 211.439553 
L 248.785592 204.749185 
L 249.179034 203.612581 
L 249.448822 203.335187 
L 249.583716 203.454654 
L 249.763575 203.997155 
L 250.055845 205.768805 
L 250.550457 208.595291 
L 250.730316 208.753228 
L 250.898934 208.556843 
L 251.202446 208.269087 
L 251.33734 208.478896 
L 251.562163 209.393406 
L 252.068016 211.491815 
L 252.169187 211.4367 
L 252.315322 210.970098 
L 252.596352 209.100824 
L 253.124687 205.767271 
L 253.304546 205.561358 
L 253.315787 205.566588 
L 253.450681 205.76992 
L 253.765434 206.819402 
L 254.125152 207.686093 
L 254.338734 207.726231 
L 254.642246 207.732999 
L 254.799623 208.080643 
L 255.013205 209.228417 
L 255.372923 212.705927 
L 255.890017 217.168383 
L 256.148564 217.842622 
L 256.317182 217.83641 
L 256.991652 217.463273 
L 257.182753 217.907011 
L 257.452541 219.207831 
L 258.228182 223.313071 
L 258.374317 223.30315 
L 258.565417 222.923848 
L 258.947618 222.223448 
L 259.060029 222.362235 
L 259.228647 223.030779 
L 259.498435 225.214223 
L 260.364006 232.982372 
L 260.532624 233.13495 
L 260.543865 233.129285 
L 260.712483 232.898988 
L 261.0722 232.444154 
L 261.240818 232.567796 
L 261.54433 232.798305 
L 261.555571 232.787812 
L 261.679224 232.496885 
L 261.859083 231.372328 
L 262.151353 227.815075 
L 262.724653 220.973567 
L 262.893271 220.560204 
L 262.915753 220.571119 
L 263.016924 220.797121 
L 263.208024 221.914632 
L 263.534018 225.394554 
L 264.646895 238.644277 
L 264.736824 238.572759 
L 264.894201 237.96388 
L 265.827219 233.405759 
L 266.164454 233.169207 
L 266.344313 232.489624 
L 266.591619 230.467643 
L 267.344778 223.576366 
L 267.423466 223.688638 
L 267.569601 224.50556 
L 267.828148 227.536409 
L 268.772407 239.82182 
L 268.918543 240.089472 
L 268.941025 240.075001 
L 269.053437 239.799521 
L 269.27826 238.477746 
L 269.862802 234.976872 
L 270.13259 234.56009 
L 270.773337 234.246997 
L 270.930714 234.389276 
L 271.121814 234.928473 
L 271.436567 236.643113 
L 271.886214 238.81468 
L 272.066073 238.954718 
L 272.077314 238.949087 
L 272.245931 238.720654 
L 272.751785 237.968493 
L 272.965367 238.071176 
L 273.459979 238.36163 
L 274.258102 238.404241 
L 274.640302 238.477486 
L 274.921332 238.275321 
L 276.135379 237.102726 
L 276.360203 237.167736 
L 276.551303 237.507909 
L 276.787368 238.471864 
L 277.113362 240.921907 
L 277.889003 247.200284 
L 277.95645 247.224291 
L 277.990174 247.181847 
L 278.113827 246.708581 
L 278.327409 244.787611 
L 279.29415 234.37132 
L 279.305391 234.375224 
L 279.395321 234.559531 
L 279.563939 235.610222 
L 279.844968 239.064035 
L 281.148945 257.367964 
L 281.216392 257.402573 
L 281.261357 257.338501 
L 281.396251 256.750921 
L 281.666039 254.277235 
L 282.14941 250.169485 
L 282.351751 249.815473 
L 282.475404 249.968349 
L 282.711469 250.753539 
L 283.172357 253.214899 
L 284.049169 257.935983 
L 284.296475 258.360484 
L 284.408886 258.239187 
L 284.566263 257.620061 
L 284.813569 255.541172 
L 285.431834 250.006136 
L 285.499281 249.97039 
L 285.544245 250.034016 
L 285.67914 250.61343 
L 285.960169 253.110403 
L 286.477263 257.350545 
L 286.645881 257.663192 
L 286.668363 257.652201 
L 286.780775 257.402512 
L 286.960634 256.317061 
L 287.252905 252.889913 
L 288.230887 240.07611 
L 288.35454 239.897233 
L 288.388264 239.929444 
L 288.511917 240.333883 
L 288.725499 241.982555 
L 289.130181 247.255563 
L 289.950787 257.777881 
L 290.35547 260.454109 
L 290.54657 260.813576 
L 290.557811 260.81038 
L 290.658982 260.642349 
L 290.816358 259.841019 
L 291.063664 257.213531 
L 291.670688 247.270562 
L 292.007923 244.034795 
L 292.120335 243.840782 
L 292.154058 243.877104 
L 292.26647 244.305914 
L 292.480053 246.275985 
L 292.997147 253.973245 
L 293.570447 260.876469 
L 293.941406 263.206461 
L 294.098782 263.424068 
L 294.121265 263.412051 
L 294.244918 263.158471 
L 294.469741 262.023552 
L 295.043041 258.99556 
L 295.166694 258.948095 
L 295.189177 258.967276 
L 295.346553 259.296547 
L 296.122194 261.292553 
L 296.436947 261.311551 
L 297.178865 261.130515 
L 297.60603 260.966015 
L 297.774648 261.190744 
L 297.98823 261.943788 
L 298.359189 264.320277 
L 298.730148 266.164749 
L 298.831318 266.227136 
L 298.865042 266.194981 
L 298.999936 265.806065 
L 299.247242 264.208133 
L 300.067848 258.431134 
L 300.382601 257.62682 
L 300.539977 257.621816 
L 300.697354 257.949373 
L 300.94466 259.12204 
L 301.596648 262.450313 
L 301.731542 262.465867 
L 301.742783 262.454371 
L 301.911401 262.09235 
L 302.495942 260.631901 
L 302.619595 260.804379 
L 302.810695 261.555458 
L 303.192895 264.227151 
L 303.653784 266.862421 
L 304.687972 270.771733 
L 305.013966 271.716793 
L 305.294996 271.917537 
L 305.564784 272.154336 
L 305.935743 272.918817 
L 306.239255 273.309188 
L 306.430355 273.249531 
L 306.778831 272.803992 
L 307.217237 271.962739 
L 307.53199 270.71707 
L 308.10529 268.409409 
L 308.228943 268.421395 
L 308.240185 268.435556 
L 308.397561 268.851144 
L 308.701073 270.471346 
L 309.285614 273.402611 
L 309.72402 274.46866 
L 309.960085 274.628194 
L 310.10622 274.443963 
L 310.308561 273.734847 
L 310.657038 271.489781 
L 311.241579 267.941947 
L 311.432679 267.683079 
L 311.44392 267.688085 
L 311.567573 267.900204 
L 311.758673 268.785303 
L 312.129632 271.832904 
L 312.545556 274.551564 
L 312.702932 274.743784 
L 312.725415 274.730833 
L 312.860309 274.476082 
L 313.501056 272.654258 
L 313.568503 272.715286 
L 313.72588 273.143015 
L 313.995668 274.666216 
L 314.827515 279.771415 
L 314.996133 279.888075 
L 315.007374 279.881268 
L 315.153509 279.644845 
L 315.457021 278.576539 
L 315.805498 277.629309 
L 315.929151 277.683476 
L 316.086527 278.154571 
L 316.356315 279.870053 
L 316.985821 283.942713 
L 317.210645 284.266687 
L 317.368021 284.17621 
L 317.604086 283.700999 
L 317.907598 282.526006 
L 318.323522 279.836177 
L 318.761928 277.457314 
L 318.88558 277.346287 
L 318.919304 277.373566 
L 319.054198 277.727529 
L 319.301504 279.205731 
L 319.829839 282.326669 
L 319.942251 282.39274 
L 319.975975 282.360163 
L 320.12211 281.971139 
L 320.470587 280.157087 
L 320.830304 278.833791 
L 321.010163 278.745041 
L 321.178781 278.94804 
L 321.504775 279.780596 
L 321.864493 281.288492 
L 322.201728 283.830207 
L 322.966128 289.989823 
L 323.07854 290.075157 
L 323.112264 290.044229 
L 323.247158 289.677706 
L 323.494464 288.169684 
L 323.966593 283.582179 
L 324.539893 278.587236 
L 324.753476 278.123594 
L 324.854646 278.267346 
L 325.034505 279.041131 
L 325.416705 281.971482 
L 325.94504 285.455764 
L 326.259793 286.315186 
L 326.473376 286.408641 
L 326.664476 286.206048 
L 326.956747 285.495701 
L 328.0359 282.526929 
L 328.182035 282.661308 
L 328.384376 283.257976 
L 328.732853 285.162127 
L 329.249947 287.687634 
L 329.508494 288.032334 
L 329.980624 288.340373 
L 330.261653 289.111316 
L 330.789988 290.501417 
L 331.048535 290.626953 
L 331.329565 290.498147 
L 331.576871 290.136761 
L 331.8579 289.250108 
L 332.509889 287.015054 
L 332.6223 287.092522 
L 332.790918 287.586703 
L 333.105671 289.403031 
L 333.645248 292.327668 
L 333.847589 292.557325 
L 333.982483 292.38379 
L 334.207307 291.622717 
L 334.90426 289.048324 
L 335.039154 289.105843 
L 335.207771 289.5288 
L 335.545007 291.160685 
L 335.949689 292.765262 
L 336.118307 292.846391 
L 336.275683 292.59753 
L 337.118772 290.846563 
L 337.332354 291.057246 
L 337.905654 292.100287 
L 338.478954 292.897821 
L 338.703778 292.922929 
L 338.91736 292.684367 
L 339.535625 291.864092 
L 339.704243 292.10281 
L 339.974031 292.973464 
L 340.648502 295.222549 
L 341.457867 296.851484 
L 342.076131 298.751226 
L 342.199784 298.698188 
L 342.368402 298.26573 
L 342.683155 296.646695 
L 343.099079 294.840859 
L 343.245214 294.75723 
L 343.267696 294.774093 
L 343.425073 295.0866 
L 343.796032 296.535845 
L 344.133267 297.423781 
L 344.290644 297.414488 
L 344.459261 297.069215 
L 344.762773 295.784997 
L 345.21242 294.104874 
L 345.336073 294.102072 
L 345.347314 294.115512 
L 345.49345 294.498632 
L 345.751997 295.971101 
L 346.370262 299.571298 
L 346.55012 299.715481 
L 346.696256 299.517631 
L 347.055973 298.48347 
L 347.460656 297.633784 
L 347.876579 297.305944 
L 348.337468 297.155769 
L 348.584774 297.323321 
L 349.191797 297.827081 
L 349.394139 297.607059 
L 349.731374 296.818492 
L 350.383362 294.674236 
L 351.215209 291.811121 
L 351.395068 291.77817 
L 351.552445 292.048847 
L 351.799751 293.010846 
L 352.710286 297.050326 
L 352.867663 297.03847 
L 353.03628 296.725615 
L 353.328551 295.609542 
L 353.913092 293.387292 
L 354.08171 293.347807 
L 354.250328 293.65119 
L 354.65501 295.059443 
L 355.003487 295.845676 
L 355.22831 295.917766 
L 355.599269 295.708376 
L 356.003951 295.597673 
L 356.734628 295.515966 
L 357.442822 295.159002 
L 357.678887 295.429376 
L 358.533217 296.656977 
L 359.23017 296.810235 
L 359.702299 297.592324 
L 360.073258 297.963045 
L 360.826417 298.218211 
L 361.163652 298.175339 
L 361.500888 297.879911 
L 361.928052 297.179417 
L 362.400182 295.941237 
L 363.164582 293.911189 
L 363.366923 293.867571 
L 363.580506 294.096689 
L 363.940223 294.883052 
L 364.412353 296.472836 
L 365.401576 300.077917 
L 365.693847 300.306647 
L 366.424524 300.39363 
L 367.121477 300.534483 
L 367.380024 300.955527 
L 367.750983 302.072698 
L 368.594071 304.717389 
L 368.875101 304.938408 
L 369.133648 304.852737 
L 369.639501 304.368338 
L 370.20156 303.573115 
L 370.898513 302.078389 
L 371.561742 300.86311 
L 371.831531 300.735725 
L 372.033872 300.892711 
L 372.224972 301.235553 
L 372.224972 301.235553 
" style="fill:none;stroke:#ff7f0e;stroke-linecap:square;stroke-width:1.5;"/>
   </g>
   <g id="patch_103">
    <path d="M 57.6 307.584 
L 57.6 41.472 
" style="fill:none;stroke:#000000;stroke-linecap:square;stroke-linejoin:miter;stroke-width:0.8;"/>
   </g>
   <g id="patch_104">
    <path d="M 414.72 307.584 
L 414.72 41.472 
" style="fill:none;stroke:#000000;stroke-linecap:square;stroke-linejoin:miter;stroke-width:0.8;"/>
   </g>
   <g id="patch_105">
    <path d="M 57.6 307.584 
L 414.72 307.584 
" style="fill:none;stroke:#000000;stroke-linecap:square;stroke-linejoin:miter;stroke-width:0.8;"/>
   </g>
   <g id="patch_106">
    <path d="M 57.6 41.472 
L 414.72 41.472 
" style="fill:none;stroke:#000000;stroke-linecap:square;stroke-linejoin:miter;stroke-width:0.8;"/>
   </g>
  </g>
 </g>
 <defs>
  <clipPath id="pce5ff9b0ec">
   <rect height="266.112" width="357.12" x="57.6" y="41.472"/>
  </clipPath>
 </defs>
</svg>
