<?xml version="1.0" encoding="utf-8" standalone="no"?>
<!DOCTYPE svg PUBLIC "-//W3C//DTD SVG 1.1//EN"
  "http://www.w3.org/Graphics/SVG/1.1/DTD/svg11.dtd">
<!-- Created with matplotlib (https://matplotlib.org/) -->
<svg height="345.6pt" version="1.1" viewBox="0 0 460.8 345.6" width="460.8pt" xmlns="http://www.w3.org/2000/svg" xmlns:xlink="http://www.w3.org/1999/xlink">
 <defs>
  <style type="text/css">
*{stroke-linecap:butt;stroke-linejoin:round;}
  </style>
 </defs>
 <g id="figure_1">
  <g id="patch_1">
   <path d="M 0 345.6 
L 460.8 345.6 
L 460.8 0 
L 0 0 
z
" style="fill:#ffffff;"/>
  </g>
  <g id="axes_1">
   <g id="patch_2">
    <path d="M 57.6 307.584 
L 414.72 307.584 
L 414.72 41.472 
L 57.6 41.472 
z
" style="fill:#ffffff;"/>
   </g>
   <g id="patch_3">
    <path clip-path="url(#p8e19a49753)" d="M 73.832727 307.584 
L 77.079273 307.584 
L 77.079273 307.124103 
L 73.832727 307.124103 
z
" style="fill:#1f77b4;"/>
   </g>
   <g id="patch_4">
    <path clip-path="url(#p8e19a49753)" d="M 77.079273 307.584 
L 80.32582 307.584 
L 80.32582 307.354051 
L 77.079273 307.354051 
z
" style="fill:#1f77b4;"/>
   </g>
   <g id="patch_5">
    <path clip-path="url(#p8e19a49753)" d="M 80.32582 307.584 
L 83.572366 307.584 
L 83.572366 307.354051 
L 80.32582 307.354051 
z
" style="fill:#1f77b4;"/>
   </g>
   <g id="patch_6">
    <path clip-path="url(#p8e19a49753)" d="M 83.572366 307.584 
L 86.818912 307.584 
L 86.818912 307.354051 
L 83.572366 307.354051 
z
" style="fill:#1f77b4;"/>
   </g>
   <g id="patch_7">
    <path clip-path="url(#p8e19a49753)" d="M 86.818912 307.584 
L 90.065458 307.584 
L 90.065458 306.664206 
L 86.818912 306.664206 
z
" style="fill:#1f77b4;"/>
   </g>
   <g id="patch_8">
    <path clip-path="url(#p8e19a49753)" d="M 90.065458 307.584 
L 93.312004 307.584 
L 93.312004 306.204309 
L 90.065458 306.204309 
z
" style="fill:#1f77b4;"/>
   </g>
   <g id="patch_9">
    <path clip-path="url(#p8e19a49753)" d="M 93.312004 307.584 
L 96.55855 307.584 
L 96.55855 306.434257 
L 93.312004 306.434257 
z
" style="fill:#1f77b4;"/>
   </g>
   <g id="patch_10">
    <path clip-path="url(#p8e19a49753)" d="M 96.55855 307.584 
L 99.805096 307.584 
L 99.805096 306.894154 
L 96.55855 306.894154 
z
" style="fill:#1f77b4;"/>
   </g>
   <g id="patch_11">
    <path clip-path="url(#p8e19a49753)" d="M 99.805096 307.584 
L 103.051642 307.584 
L 103.051642 306.664206 
L 99.805096 306.664206 
z
" style="fill:#1f77b4;"/>
   </g>
   <g id="patch_12">
    <path clip-path="url(#p8e19a49753)" d="M 103.051642 307.584 
L 106.298189 307.584 
L 106.298189 306.894154 
L 103.051642 306.894154 
z
" style="fill:#1f77b4;"/>
   </g>
   <g id="patch_13">
    <path clip-path="url(#p8e19a49753)" d="M 106.298189 307.584 
L 109.544721 307.584 
L 109.544721 306.894152 
L 106.298189 306.894152 
z
" style="fill:#1f77b4;"/>
   </g>
   <g id="patch_14">
    <path clip-path="url(#p8e19a49753)" d="M 109.544721 307.584 
L 112.791267 307.584 
L 112.791267 306.664206 
L 109.544721 306.664206 
z
" style="fill:#1f77b4;"/>
   </g>
   <g id="patch_15">
    <path clip-path="url(#p8e19a49753)" d="M 112.791267 307.584 
L 116.037813 307.584 
L 116.037813 306.434257 
L 112.791267 306.434257 
z
" style="fill:#1f77b4;"/>
   </g>
   <g id="patch_16">
    <path clip-path="url(#p8e19a49753)" d="M 116.037813 307.584 
L 119.28436 307.584 
L 119.28436 306.204309 
L 116.037813 306.204309 
z
" style="fill:#1f77b4;"/>
   </g>
   <g id="patch_17">
    <path clip-path="url(#p8e19a49753)" d="M 119.28436 307.584 
L 122.530906 307.584 
L 122.530906 304.36472 
L 119.28436 304.36472 
z
" style="fill:#1f77b4;"/>
   </g>
   <g id="patch_18">
    <path clip-path="url(#p8e19a49753)" d="M 122.530906 307.584 
L 125.777452 307.584 
L 125.777452 305.054566 
L 122.530906 305.054566 
z
" style="fill:#1f77b4;"/>
   </g>
   <g id="patch_19">
    <path clip-path="url(#p8e19a49753)" d="M 125.777452 307.584 
L 129.023998 307.584 
L 129.023998 305.514463 
L 125.777452 305.514463 
z
" style="fill:#1f77b4;"/>
   </g>
   <g id="patch_20">
    <path clip-path="url(#p8e19a49753)" d="M 129.023998 307.584 
L 132.270544 307.584 
L 132.270544 304.824617 
L 129.023998 304.824617 
z
" style="fill:#1f77b4;"/>
   </g>
   <g id="patch_21">
    <path clip-path="url(#p8e19a49753)" d="M 132.270544 307.584 
L 135.51709 307.584 
L 135.51709 305.514463 
L 132.270544 305.514463 
z
" style="fill:#1f77b4;"/>
   </g>
   <g id="patch_22">
    <path clip-path="url(#p8e19a49753)" d="M 135.51709 307.584 
L 138.763636 307.584 
L 138.763636 304.36472 
L 135.51709 304.36472 
z
" style="fill:#1f77b4;"/>
   </g>
   <g id="patch_23">
    <path clip-path="url(#p8e19a49753)" d="M 138.763636 307.584 
L 142.010182 307.584 
L 142.010182 303.214978 
L 138.763636 303.214978 
z
" style="fill:#1f77b4;"/>
   </g>
   <g id="patch_24">
    <path clip-path="url(#p8e19a49753)" d="M 142.010182 307.584 
L 145.256729 307.584 
L 145.256729 303.444926 
L 142.010182 303.444926 
z
" style="fill:#1f77b4;"/>
   </g>
   <g id="patch_25">
    <path clip-path="url(#p8e19a49753)" d="M 145.256729 307.584 
L 148.503275 307.584 
L 148.503275 299.995698 
L 145.256729 299.995698 
z
" style="fill:#1f77b4;"/>
   </g>
   <g id="patch_26">
    <path clip-path="url(#p8e19a49753)" d="M 148.503275 307.584 
L 151.749821 307.584 
L 151.749821 299.995698 
L 148.503275 299.995698 
z
" style="fill:#1f77b4;"/>
   </g>
   <g id="patch_27">
    <path clip-path="url(#p8e19a49753)" d="M 151.749821 307.584 
L 154.996367 307.584 
L 154.996367 299.535801 
L 151.749821 299.535801 
z
" style="fill:#1f77b4;"/>
   </g>
   <g id="patch_28">
    <path clip-path="url(#p8e19a49753)" d="M 154.996367 307.584 
L 158.242906 307.584 
L 158.242906 295.8566 
L 154.996367 295.8566 
z
" style="fill:#1f77b4;"/>
   </g>
   <g id="patch_29">
    <path clip-path="url(#p8e19a49753)" d="M 158.242906 307.584 
L 161.489453 307.584 
L 161.489453 293.097242 
L 158.242906 293.097242 
z
" style="fill:#1f77b4;"/>
   </g>
   <g id="patch_30">
    <path clip-path="url(#p8e19a49753)" d="M 161.489453 307.584 
L 164.735999 307.584 
L 164.735999 290.797756 
L 161.489453 290.797756 
z
" style="fill:#1f77b4;"/>
   </g>
   <g id="patch_31">
    <path clip-path="url(#p8e19a49753)" d="M 164.735999 307.584 
L 167.982545 307.584 
L 167.982545 288.268322 
L 164.735999 288.268322 
z
" style="fill:#1f77b4;"/>
   </g>
   <g id="patch_32">
    <path clip-path="url(#p8e19a49753)" d="M 167.982545 307.584 
L 171.229091 307.584 
L 171.229091 285.968837 
L 167.982545 285.968837 
z
" style="fill:#1f77b4;"/>
   </g>
   <g id="patch_33">
    <path clip-path="url(#p8e19a49753)" d="M 171.229091 307.584 
L 174.475637 307.584 
L 174.475637 283.439403 
L 171.229091 283.439403 
z
" style="fill:#1f77b4;"/>
   </g>
   <g id="patch_34">
    <path clip-path="url(#p8e19a49753)" d="M 174.475637 307.584 
L 177.722183 307.584 
L 177.722183 278.840432 
L 174.475637 278.840432 
z
" style="fill:#1f77b4;"/>
   </g>
   <g id="patch_35">
    <path clip-path="url(#p8e19a49753)" d="M 177.722183 307.584 
L 180.968726 307.584 
L 180.968726 277.460709 
L 177.722183 277.460709 
z
" style="fill:#1f77b4;"/>
   </g>
   <g id="patch_36">
    <path clip-path="url(#p8e19a49753)" d="M 180.968726 307.584 
L 184.215272 307.584 
L 184.215272 275.621152 
L 180.968726 275.621152 
z
" style="fill:#1f77b4;"/>
   </g>
   <g id="patch_37">
    <path clip-path="url(#p8e19a49753)" d="M 184.215272 307.584 
L 187.461818 307.584 
L 187.461818 268.492747 
L 184.215272 268.492747 
z
" style="fill:#1f77b4;"/>
   </g>
   <g id="patch_38">
    <path clip-path="url(#p8e19a49753)" d="M 187.461818 307.584 
L 190.708364 307.584 
L 190.708364 265.963313 
L 187.461818 265.963313 
z
" style="fill:#1f77b4;"/>
   </g>
   <g id="patch_39">
    <path clip-path="url(#p8e19a49753)" d="M 190.708364 307.584 
L 193.95491 307.584 
L 193.95491 263.663828 
L 190.708364 263.663828 
z
" style="fill:#1f77b4;"/>
   </g>
   <g id="patch_40">
    <path clip-path="url(#p8e19a49753)" d="M 193.954907 307.584 
L 197.20145 307.584 
L 197.20145 256.53537 
L 193.954907 256.53537 
z
" style="fill:#1f77b4;"/>
   </g>
   <g id="patch_41">
    <path clip-path="url(#p8e19a49753)" d="M 197.201453 307.584 
L 200.447999 307.584 
L 200.447999 249.177069 
L 197.201453 249.177069 
z
" style="fill:#1f77b4;"/>
   </g>
   <g id="patch_42">
    <path clip-path="url(#p8e19a49753)" d="M 200.447999 307.584 
L 203.694545 307.584 
L 203.694545 247.107532 
L 200.447999 247.107532 
z
" style="fill:#1f77b4;"/>
   </g>
   <g id="patch_43">
    <path clip-path="url(#p8e19a49753)" d="M 203.694545 307.584 
L 206.941092 307.584 
L 206.941092 240.439025 
L 203.694545 240.439025 
z
" style="fill:#1f77b4;"/>
   </g>
   <g id="patch_44">
    <path clip-path="url(#p8e19a49753)" d="M 206.941092 307.584 
L 210.187636 307.584 
L 210.187636 237.449657 
L 206.941092 237.449657 
z
" style="fill:#1f77b4;"/>
   </g>
   <g id="patch_45">
    <path clip-path="url(#p8e19a49753)" d="M 210.187636 307.584 
L 213.434182 307.584 
L 213.434182 228.021803 
L 210.187636 228.021803 
z
" style="fill:#1f77b4;"/>
   </g>
   <g id="patch_46">
    <path clip-path="url(#p8e19a49753)" d="M 213.43418 307.584 
L 216.680725 307.584 
L 216.680725 227.331916 
L 213.43418 227.331916 
z
" style="fill:#1f77b4;"/>
   </g>
   <g id="patch_47">
    <path clip-path="url(#p8e19a49753)" d="M 216.680727 307.584 
L 219.927273 307.584 
L 219.927273 219.05381 
L 216.680727 219.05381 
z
" style="fill:#1f77b4;"/>
   </g>
   <g id="patch_48">
    <path clip-path="url(#p8e19a49753)" d="M 219.927273 307.584 
L 223.173818 307.584 
L 223.173818 224.572554 
L 219.927273 224.572554 
z
" style="fill:#1f77b4;"/>
   </g>
   <g id="patch_49">
    <path clip-path="url(#p8e19a49753)" d="M 223.173818 307.584 
L 226.420364 307.584 
L 226.420364 218.82385 
L 223.173818 218.82385 
z
" style="fill:#1f77b4;"/>
   </g>
   <g id="patch_50">
    <path clip-path="url(#p8e19a49753)" d="M 226.420364 307.584 
L 229.666909 307.584 
L 229.666909 188.93052 
L 226.420364 188.93052 
z
" style="fill:#1f77b4;"/>
   </g>
   <g id="patch_51">
    <path clip-path="url(#p8e19a49753)" d="M 229.666909 307.584 
L 232.913455 307.584 
L 232.913455 137.88194 
L 229.666909 137.88194 
z
" style="fill:#1f77b4;"/>
   </g>
   <g id="patch_52">
    <path clip-path="url(#p8e19a49753)" d="M 232.913455 307.584 
L 236.16 307.584 
L 236.16 177.663047 
L 232.913455 177.663047 
z
" style="fill:#1f77b4;"/>
   </g>
   <g id="patch_53">
    <path clip-path="url(#p8e19a49753)" d="M 236.16 307.584 
L 239.406545 307.584 
L 239.406545 178.352884 
L 236.16 178.352884 
z
" style="fill:#1f77b4;"/>
   </g>
   <g id="patch_54">
    <path clip-path="url(#p8e19a49753)" d="M 239.406544 307.584 
L 242.65309 307.584 
L 242.65309 193.299543 
L 239.406544 193.299543 
z
" style="fill:#1f77b4;"/>
   </g>
   <g id="patch_55">
    <path clip-path="url(#p8e19a49753)" d="M 242.653091 307.584 
L 245.899637 307.584 
L 245.899637 208.246228 
L 242.653091 208.246228 
z
" style="fill:#1f77b4;"/>
   </g>
   <g id="patch_56">
    <path clip-path="url(#p8e19a49753)" d="M 245.899635 307.584 
L 249.146179 307.584 
L 249.146179 213.764945 
L 245.899635 213.764945 
z
" style="fill:#1f77b4;"/>
   </g>
   <g id="patch_57">
    <path clip-path="url(#p8e19a49753)" d="M 249.146181 307.584 
L 252.392727 307.584 
L 252.392727 213.994942 
L 249.146181 213.994942 
z
" style="fill:#1f77b4;"/>
   </g>
   <g id="patch_58">
    <path clip-path="url(#p8e19a49753)" d="M 252.392727 307.584 
L 255.639273 307.584 
L 255.639273 210.545714 
L 252.392727 210.545714 
z
" style="fill:#1f77b4;"/>
   </g>
   <g id="patch_59">
    <path clip-path="url(#p8e19a49753)" d="M 255.639273 307.584 
L 258.885818 307.584 
L 258.885818 227.561865 
L 255.639273 227.561865 
z
" style="fill:#1f77b4;"/>
   </g>
   <g id="patch_60">
    <path clip-path="url(#p8e19a49753)" d="M 258.885816 307.584 
L 262.132362 307.584 
L 262.132362 236.299914 
L 258.885816 236.299914 
z
" style="fill:#1f77b4;"/>
   </g>
   <g id="patch_61">
    <path clip-path="url(#p8e19a49753)" d="M 262.132362 307.584 
L 265.378908 307.584 
L 265.378908 232.390826 
L 262.132362 232.390826 
z
" style="fill:#1f77b4;"/>
   </g>
   <g id="patch_62">
    <path clip-path="url(#p8e19a49753)" d="M 265.378908 307.584 
L 268.625455 307.584 
L 268.625455 232.160877 
L 265.378908 232.160877 
z
" style="fill:#1f77b4;"/>
   </g>
   <g id="patch_63">
    <path clip-path="url(#p8e19a49753)" d="M 268.625455 307.584 
L 271.872001 307.584 
L 271.872001 242.048664 
L 268.625455 242.048664 
z
" style="fill:#1f77b4;"/>
   </g>
   <g id="patch_64">
    <path clip-path="url(#p8e19a49753)" d="M 271.872001 307.584 
L 275.118547 307.584 
L 275.118547 242.73851 
L 271.872001 242.73851 
z
" style="fill:#1f77b4;"/>
   </g>
   <g id="patch_65">
    <path clip-path="url(#p8e19a49753)" d="M 275.118547 307.584 
L 278.36509 307.584 
L 278.36509 248.94706 
L 275.118547 248.94706 
z
" style="fill:#1f77b4;"/>
   </g>
   <g id="patch_66">
    <path clip-path="url(#p8e19a49753)" d="M 278.36509 307.584 
L 281.611636 307.584 
L 281.611636 251.476555 
L 278.36509 251.476555 
z
" style="fill:#1f77b4;"/>
   </g>
   <g id="patch_67">
    <path clip-path="url(#p8e19a49753)" d="M 281.611636 307.584 
L 284.858182 307.584 
L 284.858182 253.546092 
L 281.611636 253.546092 
z
" style="fill:#1f77b4;"/>
   </g>
   <g id="patch_68">
    <path clip-path="url(#p8e19a49753)" d="M 284.858178 307.584 
L 288.104718 307.584 
L 288.104718 254.235882 
L 284.858178 254.235882 
z
" style="fill:#1f77b4;"/>
   </g>
   <g id="patch_69">
    <path clip-path="url(#p8e19a49753)" d="M 288.104725 307.584 
L 291.351271 307.584 
L 291.351271 253.546092 
L 288.104725 253.546092 
z
" style="fill:#1f77b4;"/>
   </g>
   <g id="patch_70">
    <path clip-path="url(#p8e19a49753)" d="M 291.351271 307.584 
L 294.597817 307.584 
L 294.597817 257.455217 
L 291.351271 257.455217 
z
" style="fill:#1f77b4;"/>
   </g>
   <g id="patch_71">
    <path clip-path="url(#p8e19a49753)" d="M 294.597817 307.584 
L 297.844363 307.584 
L 297.844363 261.824239 
L 294.597817 261.824239 
z
" style="fill:#1f77b4;"/>
   </g>
   <g id="patch_72">
    <path clip-path="url(#p8e19a49753)" d="M 297.844363 307.584 
L 301.090909 307.584 
L 301.090909 261.364342 
L 297.844363 261.364342 
z
" style="fill:#1f77b4;"/>
   </g>
   <g id="patch_73">
    <path clip-path="url(#p8e19a49753)" d="M 301.090909 307.584 
L 304.337455 307.584 
L 304.337455 266.193262 
L 301.090909 266.193262 
z
" style="fill:#1f77b4;"/>
   </g>
   <g id="patch_74">
    <path clip-path="url(#p8e19a49753)" d="M 304.337455 307.584 
L 307.584001 307.584 
L 307.584001 274.701358 
L 304.337455 274.701358 
z
" style="fill:#1f77b4;"/>
   </g>
   <g id="patch_75">
    <path clip-path="url(#p8e19a49753)" d="M 307.584001 307.584 
L 310.830547 307.584 
L 310.830547 272.401873 
L 307.584001 272.401873 
z
" style="fill:#1f77b4;"/>
   </g>
   <g id="patch_76">
    <path clip-path="url(#p8e19a49753)" d="M 310.830547 307.584 
L 314.077094 307.584 
L 314.077094 270.562284 
L 310.830547 270.562284 
z
" style="fill:#1f77b4;"/>
   </g>
   <g id="patch_77">
    <path clip-path="url(#p8e19a49753)" d="M 314.077087 307.584 
L 317.323626 307.584 
L 317.323626 280.679965 
L 314.077087 280.679965 
z
" style="fill:#1f77b4;"/>
   </g>
   <g id="patch_78">
    <path clip-path="url(#p8e19a49753)" d="M 317.323633 307.584 
L 320.570179 307.584 
L 320.570179 279.07038 
L 317.323633 279.07038 
z
" style="fill:#1f77b4;"/>
   </g>
   <g id="patch_79">
    <path clip-path="url(#p8e19a49753)" d="M 320.570179 307.584 
L 323.816725 307.584 
L 323.816725 282.28966 
L 320.570179 282.28966 
z
" style="fill:#1f77b4;"/>
   </g>
   <g id="patch_80">
    <path clip-path="url(#p8e19a49753)" d="M 323.816725 307.584 
L 327.063271 307.584 
L 327.063271 282.979506 
L 323.816725 282.979506 
z
" style="fill:#1f77b4;"/>
   </g>
   <g id="patch_81">
    <path clip-path="url(#p8e19a49753)" d="M 327.063271 307.584 
L 330.309818 307.584 
L 330.309818 284.819094 
L 327.063271 284.819094 
z
" style="fill:#1f77b4;"/>
   </g>
   <g id="patch_82">
    <path clip-path="url(#p8e19a49753)" d="M 330.309818 307.584 
L 333.556364 307.584 
L 333.556364 291.257653 
L 330.309818 291.257653 
z
" style="fill:#1f77b4;"/>
   </g>
   <g id="patch_83">
    <path clip-path="url(#p8e19a49753)" d="M 333.556364 307.584 
L 336.80291 307.584 
L 336.80291 291.71755 
L 333.556364 291.71755 
z
" style="fill:#1f77b4;"/>
   </g>
   <g id="patch_84">
    <path clip-path="url(#p8e19a49753)" d="M 336.80291 307.584 
L 340.049456 307.584 
L 340.049456 291.947499 
L 336.80291 291.947499 
z
" style="fill:#1f77b4;"/>
   </g>
   <g id="patch_85">
    <path clip-path="url(#p8e19a49753)" d="M 340.049456 307.584 
L 343.296002 307.584 
L 343.296002 297.006367 
L 340.049456 297.006367 
z
" style="fill:#1f77b4;"/>
   </g>
   <g id="patch_86">
    <path clip-path="url(#p8e19a49753)" d="M 343.296002 307.584 
L 346.542548 307.584 
L 346.542548 298.616007 
L 343.296002 298.616007 
z
" style="fill:#1f77b4;"/>
   </g>
   <g id="patch_87">
    <path clip-path="url(#p8e19a49753)" d="M 346.542548 307.584 
L 349.789094 307.584 
L 349.789094 297.466264 
L 346.542548 297.466264 
z
" style="fill:#1f77b4;"/>
   </g>
   <g id="patch_88">
    <path clip-path="url(#p8e19a49753)" d="M 349.789094 307.584 
L 353.03564 307.584 
L 353.03564 295.856624 
L 349.789094 295.856624 
z
" style="fill:#1f77b4;"/>
   </g>
   <g id="patch_89">
    <path clip-path="url(#p8e19a49753)" d="M 353.03564 307.584 
L 356.282187 307.584 
L 356.282187 294.93683 
L 353.03564 294.93683 
z
" style="fill:#1f77b4;"/>
   </g>
   <g id="patch_90">
    <path clip-path="url(#p8e19a49753)" d="M 356.282187 307.584 
L 359.528733 307.584 
L 359.528733 295.856624 
L 356.282187 295.856624 
z
" style="fill:#1f77b4;"/>
   </g>
   <g id="patch_91">
    <path clip-path="url(#p8e19a49753)" d="M 359.528733 307.584 
L 362.775279 307.584 
L 362.775279 298.845955 
L 359.528733 298.845955 
z
" style="fill:#1f77b4;"/>
   </g>
   <g id="patch_92">
    <path clip-path="url(#p8e19a49753)" d="M 362.775279 307.584 
L 366.021825 307.584 
L 366.021825 296.776418 
L 362.775279 296.776418 
z
" style="fill:#1f77b4;"/>
   </g>
   <g id="patch_93">
    <path clip-path="url(#p8e19a49753)" d="M 366.021825 307.584 
L 369.268358 307.584 
L 369.268358 302.98501 
L 366.021825 302.98501 
z
" style="fill:#1f77b4;"/>
   </g>
   <g id="patch_94">
    <path clip-path="url(#p8e19a49753)" d="M 369.268358 307.584 
L 372.514904 307.584 
L 372.514904 302.985029 
L 369.268358 302.985029 
z
" style="fill:#1f77b4;"/>
   </g>
   <g id="patch_95">
    <path clip-path="url(#p8e19a49753)" d="M 372.514904 307.584 
L 375.76145 307.584 
L 375.76145 302.755081 
L 372.514904 302.755081 
z
" style="fill:#1f77b4;"/>
   </g>
   <g id="patch_96">
    <path clip-path="url(#p8e19a49753)" d="M 375.76145 307.584 
L 379.007996 307.584 
L 379.007996 303.904823 
L 375.76145 303.904823 
z
" style="fill:#1f77b4;"/>
   </g>
   <g id="patch_97">
    <path clip-path="url(#p8e19a49753)" d="M 379.007996 307.584 
L 382.254542 307.584 
L 382.254542 302.295183 
L 379.007996 302.295183 
z
" style="fill:#1f77b4;"/>
   </g>
   <g id="patch_98">
    <path clip-path="url(#p8e19a49753)" d="M 382.254542 307.584 
L 385.501088 307.584 
L 385.501088 305.054566 
L 382.254542 305.054566 
z
" style="fill:#1f77b4;"/>
   </g>
   <g id="patch_99">
    <path clip-path="url(#p8e19a49753)" d="M 385.501088 307.584 
L 388.747634 307.584 
L 388.747634 303.904823 
L 385.501088 303.904823 
z
" style="fill:#1f77b4;"/>
   </g>
   <g id="patch_100">
    <path clip-path="url(#p8e19a49753)" d="M 388.747634 307.584 
L 391.99418 307.584 
L 391.99418 304.824617 
L 388.747634 304.824617 
z
" style="fill:#1f77b4;"/>
   </g>
   <g id="patch_101">
    <path clip-path="url(#p8e19a49753)" d="M 391.99418 307.584 
L 395.240727 307.584 
L 395.240727 305.284515 
L 391.99418 305.284515 
z
" style="fill:#1f77b4;"/>
   </g>
   <g id="patch_102">
    <path clip-path="url(#p8e19a49753)" d="M 395.240727 307.584 
L 398.487273 307.584 
L 398.487273 305.97436 
L 395.240727 305.97436 
z
" style="fill:#1f77b4;"/>
   </g>
   <g id="matplotlib.axis_1">
    <g id="xtick_1">
     <g id="line2d_1">
      <defs>
       <path d="M 0 0 
L 0 3.5 
" id="mdd9018e815" style="stroke:#000000;stroke-width:0.8;"/>
      </defs>
      <g>
       <use style="stroke:#000000;stroke-width:0.8;" x="63.103808" xlink:href="#mdd9018e815" y="307.584"/>
      </g>
     </g>
     <g id="text_1">
      <!-- −3 -->
      <defs>
       <path d="M 10.59375 35.5 
L 73.1875 35.5 
L 73.1875 27.203125 
L 10.59375 27.203125 
z
" id="DejaVuSans-8722"/>
       <path d="M 40.578125 39.3125 
Q 47.65625 37.796875 51.625 33 
Q 55.609375 28.21875 55.609375 21.1875 
Q 55.609375 10.40625 48.1875 4.484375 
Q 40.765625 -1.421875 27.09375 -1.421875 
Q 22.515625 -1.421875 17.65625 -0.515625 
Q 12.796875 0.390625 7.625 2.203125 
L 7.625 11.71875 
Q 11.71875 9.328125 16.59375 8.109375 
Q 21.484375 6.890625 26.8125 6.890625 
Q 36.078125 6.890625 40.9375 10.546875 
Q 45.796875 14.203125 45.796875 21.1875 
Q 45.796875 27.640625 41.28125 31.265625 
Q 36.765625 34.90625 28.71875 34.90625 
L 20.21875 34.90625 
L 20.21875 43.015625 
L 29.109375 43.015625 
Q 36.375 43.015625 40.234375 45.921875 
Q 44.09375 48.828125 44.09375 54.296875 
Q 44.09375 59.90625 40.109375 62.90625 
Q 36.140625 65.921875 28.71875 65.921875 
Q 24.65625 65.921875 20.015625 65.03125 
Q 15.375 64.15625 9.8125 62.3125 
L 9.8125 71.09375 
Q 15.4375 72.65625 20.34375 73.4375 
Q 25.25 74.21875 29.59375 74.21875 
Q 40.828125 74.21875 47.359375 69.109375 
Q 53.90625 64.015625 53.90625 55.328125 
Q 53.90625 49.265625 50.4375 45.09375 
Q 46.96875 40.921875 40.578125 39.3125 
z
" id="DejaVuSans-51"/>
      </defs>
      <g transform="translate(50.572949 327.501344)scale(0.17 -0.17)">
       <use xlink:href="#DejaVuSans-8722"/>
       <use x="83.789062" xlink:href="#DejaVuSans-51"/>
      </g>
     </g>
    </g>
    <g id="xtick_2">
     <g id="line2d_2">
      <g>
       <use style="stroke:#000000;stroke-width:0.8;" x="119.3097" xlink:href="#mdd9018e815" y="307.584"/>
      </g>
     </g>
     <g id="text_2">
      <!-- −2 -->
      <defs>
       <path d="M 19.1875 8.296875 
L 53.609375 8.296875 
L 53.609375 0 
L 7.328125 0 
L 7.328125 8.296875 
Q 12.9375 14.109375 22.625 23.890625 
Q 32.328125 33.6875 34.8125 36.53125 
Q 39.546875 41.84375 41.421875 45.53125 
Q 43.3125 49.21875 43.3125 52.78125 
Q 43.3125 58.59375 39.234375 62.25 
Q 35.15625 65.921875 28.609375 65.921875 
Q 23.96875 65.921875 18.8125 64.3125 
Q 13.671875 62.703125 7.8125 59.421875 
L 7.8125 69.390625 
Q 13.765625 71.78125 18.9375 73 
Q 24.125 74.21875 28.421875 74.21875 
Q 39.75 74.21875 46.484375 68.546875 
Q 53.21875 62.890625 53.21875 53.421875 
Q 53.21875 48.921875 51.53125 44.890625 
Q 49.859375 40.875 45.40625 35.40625 
Q 44.1875 33.984375 37.640625 27.21875 
Q 31.109375 20.453125 19.1875 8.296875 
z
" id="DejaVuSans-50"/>
      </defs>
      <g transform="translate(106.778841 327.501344)scale(0.17 -0.17)">
       <use xlink:href="#DejaVuSans-8722"/>
       <use x="83.789062" xlink:href="#DejaVuSans-50"/>
      </g>
     </g>
    </g>
    <g id="xtick_3">
     <g id="line2d_3">
      <g>
       <use style="stroke:#000000;stroke-width:0.8;" x="175.515592" xlink:href="#mdd9018e815" y="307.584"/>
      </g>
     </g>
     <g id="text_3">
      <!-- −1 -->
      <defs>
       <path d="M 12.40625 8.296875 
L 28.515625 8.296875 
L 28.515625 63.921875 
L 10.984375 60.40625 
L 10.984375 69.390625 
L 28.421875 72.90625 
L 38.28125 72.90625 
L 38.28125 8.296875 
L 54.390625 8.296875 
L 54.390625 0 
L 12.40625 0 
z
" id="DejaVuSans-49"/>
      </defs>
      <g transform="translate(162.984732 327.501344)scale(0.17 -0.17)">
       <use xlink:href="#DejaVuSans-8722"/>
       <use x="83.789062" xlink:href="#DejaVuSans-49"/>
      </g>
     </g>
    </g>
    <g id="xtick_4">
     <g id="line2d_4">
      <g>
       <use style="stroke:#000000;stroke-width:0.8;" x="231.721484" xlink:href="#mdd9018e815" y="307.584"/>
      </g>
     </g>
     <g id="text_4">
      <!-- 0 -->
      <defs>
       <path d="M 31.78125 66.40625 
Q 24.171875 66.40625 20.328125 58.90625 
Q 16.5 51.421875 16.5 36.375 
Q 16.5 21.390625 20.328125 13.890625 
Q 24.171875 6.390625 31.78125 6.390625 
Q 39.453125 6.390625 43.28125 13.890625 
Q 47.125 21.390625 47.125 36.375 
Q 47.125 51.421875 43.28125 58.90625 
Q 39.453125 66.40625 31.78125 66.40625 
z
M 31.78125 74.21875 
Q 44.046875 74.21875 50.515625 64.515625 
Q 56.984375 54.828125 56.984375 36.375 
Q 56.984375 17.96875 50.515625 8.265625 
Q 44.046875 -1.421875 31.78125 -1.421875 
Q 19.53125 -1.421875 13.0625 8.265625 
Q 6.59375 17.96875 6.59375 36.375 
Q 6.59375 54.828125 13.0625 64.515625 
Q 19.53125 74.21875 31.78125 74.21875 
z
" id="DejaVuSans-48"/>
      </defs>
      <g transform="translate(226.313359 327.501344)scale(0.17 -0.17)">
       <use xlink:href="#DejaVuSans-48"/>
      </g>
     </g>
    </g>
    <g id="xtick_5">
     <g id="line2d_5">
      <g>
       <use style="stroke:#000000;stroke-width:0.8;" x="287.927375" xlink:href="#mdd9018e815" y="307.584"/>
      </g>
     </g>
     <g id="text_5">
      <!-- 1 -->
      <g transform="translate(282.51925 327.501344)scale(0.17 -0.17)">
       <use xlink:href="#DejaVuSans-49"/>
      </g>
     </g>
    </g>
    <g id="xtick_6">
     <g id="line2d_6">
      <g>
       <use style="stroke:#000000;stroke-width:0.8;" x="344.133267" xlink:href="#mdd9018e815" y="307.584"/>
      </g>
     </g>
     <g id="text_6">
      <!-- 2 -->
      <g transform="translate(338.725142 327.501344)scale(0.17 -0.17)">
       <use xlink:href="#DejaVuSans-50"/>
      </g>
     </g>
    </g>
    <g id="xtick_7">
     <g id="line2d_7">
      <g>
       <use style="stroke:#000000;stroke-width:0.8;" x="400.339159" xlink:href="#mdd9018e815" y="307.584"/>
      </g>
     </g>
     <g id="text_7">
      <!-- 3 -->
      <g transform="translate(394.931034 327.501344)scale(0.17 -0.17)">
       <use xlink:href="#DejaVuSans-51"/>
      </g>
     </g>
    </g>
    <g id="text_8">
     <!-- Position in Radian -->
     <defs>
      <path d="M 19.671875 64.796875 
L 19.671875 37.40625 
L 32.078125 37.40625 
Q 38.96875 37.40625 42.71875 40.96875 
Q 46.484375 44.53125 46.484375 51.125 
Q 46.484375 57.671875 42.71875 61.234375 
Q 38.96875 64.796875 32.078125 64.796875 
z
M 9.8125 72.90625 
L 32.078125 72.90625 
Q 44.34375 72.90625 50.609375 67.359375 
Q 56.890625 61.8125 56.890625 51.125 
Q 56.890625 40.328125 50.609375 34.8125 
Q 44.34375 29.296875 32.078125 29.296875 
L 19.671875 29.296875 
L 19.671875 0 
L 9.8125 0 
z
" id="DejaVuSans-80"/>
      <path d="M 30.609375 48.390625 
Q 23.390625 48.390625 19.1875 42.75 
Q 14.984375 37.109375 14.984375 27.296875 
Q 14.984375 17.484375 19.15625 11.84375 
Q 23.34375 6.203125 30.609375 6.203125 
Q 37.796875 6.203125 41.984375 11.859375 
Q 46.1875 17.53125 46.1875 27.296875 
Q 46.1875 37.015625 41.984375 42.703125 
Q 37.796875 48.390625 30.609375 48.390625 
z
M 30.609375 56 
Q 42.328125 56 49.015625 48.375 
Q 55.71875 40.765625 55.71875 27.296875 
Q 55.71875 13.875 49.015625 6.21875 
Q 42.328125 -1.421875 30.609375 -1.421875 
Q 18.84375 -1.421875 12.171875 6.21875 
Q 5.515625 13.875 5.515625 27.296875 
Q 5.515625 40.765625 12.171875 48.375 
Q 18.84375 56 30.609375 56 
z
" id="DejaVuSans-111"/>
      <path d="M 44.28125 53.078125 
L 44.28125 44.578125 
Q 40.484375 46.53125 36.375 47.5 
Q 32.28125 48.484375 27.875 48.484375 
Q 21.1875 48.484375 17.84375 46.4375 
Q 14.5 44.390625 14.5 40.28125 
Q 14.5 37.15625 16.890625 35.375 
Q 19.28125 33.59375 26.515625 31.984375 
L 29.59375 31.296875 
Q 39.15625 29.25 43.1875 25.515625 
Q 47.21875 21.78125 47.21875 15.09375 
Q 47.21875 7.46875 41.1875 3.015625 
Q 35.15625 -1.421875 24.609375 -1.421875 
Q 20.21875 -1.421875 15.453125 -0.5625 
Q 10.6875 0.296875 5.421875 2 
L 5.421875 11.28125 
Q 10.40625 8.6875 15.234375 7.390625 
Q 20.0625 6.109375 24.8125 6.109375 
Q 31.15625 6.109375 34.5625 8.28125 
Q 37.984375 10.453125 37.984375 14.40625 
Q 37.984375 18.0625 35.515625 20.015625 
Q 33.0625 21.96875 24.703125 23.78125 
L 21.578125 24.515625 
Q 13.234375 26.265625 9.515625 29.90625 
Q 5.8125 33.546875 5.8125 39.890625 
Q 5.8125 47.609375 11.28125 51.796875 
Q 16.75 56 26.8125 56 
Q 31.78125 56 36.171875 55.265625 
Q 40.578125 54.546875 44.28125 53.078125 
z
" id="DejaVuSans-115"/>
      <path d="M 9.421875 54.6875 
L 18.40625 54.6875 
L 18.40625 0 
L 9.421875 0 
z
M 9.421875 75.984375 
L 18.40625 75.984375 
L 18.40625 64.59375 
L 9.421875 64.59375 
z
" id="DejaVuSans-105"/>
      <path d="M 18.3125 70.21875 
L 18.3125 54.6875 
L 36.8125 54.6875 
L 36.8125 47.703125 
L 18.3125 47.703125 
L 18.3125 18.015625 
Q 18.3125 11.328125 20.140625 9.421875 
Q 21.96875 7.515625 27.59375 7.515625 
L 36.8125 7.515625 
L 36.8125 0 
L 27.59375 0 
Q 17.1875 0 13.234375 3.875 
Q 9.28125 7.765625 9.28125 18.015625 
L 9.28125 47.703125 
L 2.6875 47.703125 
L 2.6875 54.6875 
L 9.28125 54.6875 
L 9.28125 70.21875 
z
" id="DejaVuSans-116"/>
      <path d="M 54.890625 33.015625 
L 54.890625 0 
L 45.90625 0 
L 45.90625 32.71875 
Q 45.90625 40.484375 42.875 44.328125 
Q 39.84375 48.1875 33.796875 48.1875 
Q 26.515625 48.1875 22.3125 43.546875 
Q 18.109375 38.921875 18.109375 30.90625 
L 18.109375 0 
L 9.078125 0 
L 9.078125 54.6875 
L 18.109375 54.6875 
L 18.109375 46.1875 
Q 21.34375 51.125 25.703125 53.5625 
Q 30.078125 56 35.796875 56 
Q 45.21875 56 50.046875 50.171875 
Q 54.890625 44.34375 54.890625 33.015625 
z
" id="DejaVuSans-110"/>
      <path id="DejaVuSans-32"/>
      <path d="M 44.390625 34.1875 
Q 47.5625 33.109375 50.5625 29.59375 
Q 53.5625 26.078125 56.59375 19.921875 
L 66.609375 0 
L 56 0 
L 46.6875 18.703125 
Q 43.0625 26.03125 39.671875 28.421875 
Q 36.28125 30.8125 30.421875 30.8125 
L 19.671875 30.8125 
L 19.671875 0 
L 9.8125 0 
L 9.8125 72.90625 
L 32.078125 72.90625 
Q 44.578125 72.90625 50.734375 67.671875 
Q 56.890625 62.453125 56.890625 51.90625 
Q 56.890625 45.015625 53.6875 40.46875 
Q 50.484375 35.9375 44.390625 34.1875 
z
M 19.671875 64.796875 
L 19.671875 38.921875 
L 32.078125 38.921875 
Q 39.203125 38.921875 42.84375 42.21875 
Q 46.484375 45.515625 46.484375 51.90625 
Q 46.484375 58.296875 42.84375 61.546875 
Q 39.203125 64.796875 32.078125 64.796875 
z
" id="DejaVuSans-82"/>
      <path d="M 34.28125 27.484375 
Q 23.390625 27.484375 19.1875 25 
Q 14.984375 22.515625 14.984375 16.5 
Q 14.984375 11.71875 18.140625 8.90625 
Q 21.296875 6.109375 26.703125 6.109375 
Q 34.1875 6.109375 38.703125 11.40625 
Q 43.21875 16.703125 43.21875 25.484375 
L 43.21875 27.484375 
z
M 52.203125 31.203125 
L 52.203125 0 
L 43.21875 0 
L 43.21875 8.296875 
Q 40.140625 3.328125 35.546875 0.953125 
Q 30.953125 -1.421875 24.3125 -1.421875 
Q 15.921875 -1.421875 10.953125 3.296875 
Q 6 8.015625 6 15.921875 
Q 6 25.140625 12.171875 29.828125 
Q 18.359375 34.515625 30.609375 34.515625 
L 43.21875 34.515625 
L 43.21875 35.40625 
Q 43.21875 41.609375 39.140625 45 
Q 35.0625 48.390625 27.6875 48.390625 
Q 23 48.390625 18.546875 47.265625 
Q 14.109375 46.140625 10.015625 43.890625 
L 10.015625 52.203125 
Q 14.9375 54.109375 19.578125 55.046875 
Q 24.21875 56 28.609375 56 
Q 40.484375 56 46.34375 49.84375 
Q 52.203125 43.703125 52.203125 31.203125 
z
" id="DejaVuSans-97"/>
      <path d="M 45.40625 46.390625 
L 45.40625 75.984375 
L 54.390625 75.984375 
L 54.390625 0 
L 45.40625 0 
L 45.40625 8.203125 
Q 42.578125 3.328125 38.25 0.953125 
Q 33.9375 -1.421875 27.875 -1.421875 
Q 17.96875 -1.421875 11.734375 6.484375 
Q 5.515625 14.40625 5.515625 27.296875 
Q 5.515625 40.1875 11.734375 48.09375 
Q 17.96875 56 27.875 56 
Q 33.9375 56 38.25 53.625 
Q 42.578125 51.265625 45.40625 46.390625 
z
M 14.796875 27.296875 
Q 14.796875 17.390625 18.875 11.75 
Q 22.953125 6.109375 30.078125 6.109375 
Q 37.203125 6.109375 41.296875 11.75 
Q 45.40625 17.390625 45.40625 27.296875 
Q 45.40625 37.203125 41.296875 42.84375 
Q 37.203125 48.484375 30.078125 48.484375 
Q 22.953125 48.484375 18.875 42.84375 
Q 14.796875 37.203125 14.796875 27.296875 
z
" id="DejaVuSans-100"/>
     </defs>
     <g transform="translate(102.024844 357.832125)scale(0.3 -0.3)">
      <use xlink:href="#DejaVuSans-80"/>
      <use x="60.255859" xlink:href="#DejaVuSans-111"/>
      <use x="121.4375" xlink:href="#DejaVuSans-115"/>
      <use x="173.537109" xlink:href="#DejaVuSans-105"/>
      <use x="201.320312" xlink:href="#DejaVuSans-116"/>
      <use x="240.529297" xlink:href="#DejaVuSans-105"/>
      <use x="268.3125" xlink:href="#DejaVuSans-111"/>
      <use x="329.494141" xlink:href="#DejaVuSans-110"/>
      <use x="392.873047" xlink:href="#DejaVuSans-32"/>
      <use x="424.660156" xlink:href="#DejaVuSans-105"/>
      <use x="452.443359" xlink:href="#DejaVuSans-110"/>
      <use x="515.822266" xlink:href="#DejaVuSans-32"/>
      <use x="547.609375" xlink:href="#DejaVuSans-82"/>
      <use x="617.060547" xlink:href="#DejaVuSans-97"/>
      <use x="678.339844" xlink:href="#DejaVuSans-100"/>
      <use x="741.816406" xlink:href="#DejaVuSans-105"/>
      <use x="769.599609" xlink:href="#DejaVuSans-97"/>
      <use x="830.878906" xlink:href="#DejaVuSans-110"/>
     </g>
    </g>
   </g>
   <g id="matplotlib.axis_2">
    <g id="ytick_1">
     <g id="line2d_8">
      <defs>
       <path d="M 0 0 
L -3.5 0 
" id="m381d29a537" style="stroke:#000000;stroke-width:0.8;"/>
      </defs>
      <g>
       <use style="stroke:#000000;stroke-width:0.8;" x="57.6" xlink:href="#m381d29a537" y="307.584"/>
      </g>
     </g>
     <g id="text_9">
      <!-- 0.0 -->
      <defs>
       <path d="M 10.6875 12.40625 
L 21 12.40625 
L 21 0 
L 10.6875 0 
z
" id="DejaVuSans-46"/>
      </defs>
      <g transform="translate(23.564687 314.042672)scale(0.17 -0.17)">
       <use xlink:href="#DejaVuSans-48"/>
       <use x="63.623047" xlink:href="#DejaVuSans-46"/>
       <use x="95.410156" xlink:href="#DejaVuSans-48"/>
      </g>
     </g>
    </g>
    <g id="ytick_2">
     <g id="line2d_9">
      <g>
       <use style="stroke:#000000;stroke-width:0.8;" x="57.6" xlink:href="#m381d29a537" y="267.737365"/>
      </g>
     </g>
     <g id="text_10">
      <!-- 0.2 -->
      <g transform="translate(23.564687 274.196036)scale(0.17 -0.17)">
       <use xlink:href="#DejaVuSans-48"/>
       <use x="63.623047" xlink:href="#DejaVuSans-46"/>
       <use x="95.410156" xlink:href="#DejaVuSans-50"/>
      </g>
     </g>
    </g>
    <g id="ytick_3">
     <g id="line2d_10">
      <g>
       <use style="stroke:#000000;stroke-width:0.8;" x="57.6" xlink:href="#m381d29a537" y="227.890729"/>
      </g>
     </g>
     <g id="text_11">
      <!-- 0.4 -->
      <defs>
       <path d="M 37.796875 64.3125 
L 12.890625 25.390625 
L 37.796875 25.390625 
z
M 35.203125 72.90625 
L 47.609375 72.90625 
L 47.609375 25.390625 
L 58.015625 25.390625 
L 58.015625 17.1875 
L 47.609375 17.1875 
L 47.609375 0 
L 37.796875 0 
L 37.796875 17.1875 
L 4.890625 17.1875 
L 4.890625 26.703125 
z
" id="DejaVuSans-52"/>
      </defs>
      <g transform="translate(23.564687 234.349401)scale(0.17 -0.17)">
       <use xlink:href="#DejaVuSans-48"/>
       <use x="63.623047" xlink:href="#DejaVuSans-46"/>
       <use x="95.410156" xlink:href="#DejaVuSans-52"/>
      </g>
     </g>
    </g>
    <g id="ytick_4">
     <g id="line2d_11">
      <g>
       <use style="stroke:#000000;stroke-width:0.8;" x="57.6" xlink:href="#m381d29a537" y="188.044094"/>
      </g>
     </g>
     <g id="text_12">
      <!-- 0.6 -->
      <defs>
       <path d="M 33.015625 40.375 
Q 26.375 40.375 22.484375 35.828125 
Q 18.609375 31.296875 18.609375 23.390625 
Q 18.609375 15.53125 22.484375 10.953125 
Q 26.375 6.390625 33.015625 6.390625 
Q 39.65625 6.390625 43.53125 10.953125 
Q 47.40625 15.53125 47.40625 23.390625 
Q 47.40625 31.296875 43.53125 35.828125 
Q 39.65625 40.375 33.015625 40.375 
z
M 52.59375 71.296875 
L 52.59375 62.3125 
Q 48.875 64.0625 45.09375 64.984375 
Q 41.3125 65.921875 37.59375 65.921875 
Q 27.828125 65.921875 22.671875 59.328125 
Q 17.53125 52.734375 16.796875 39.40625 
Q 19.671875 43.65625 24.015625 45.921875 
Q 28.375 48.1875 33.59375 48.1875 
Q 44.578125 48.1875 50.953125 41.515625 
Q 57.328125 34.859375 57.328125 23.390625 
Q 57.328125 12.15625 50.6875 5.359375 
Q 44.046875 -1.421875 33.015625 -1.421875 
Q 20.359375 -1.421875 13.671875 8.265625 
Q 6.984375 17.96875 6.984375 36.375 
Q 6.984375 53.65625 15.1875 63.9375 
Q 23.390625 74.21875 37.203125 74.21875 
Q 40.921875 74.21875 44.703125 73.484375 
Q 48.484375 72.75 52.59375 71.296875 
z
" id="DejaVuSans-54"/>
      </defs>
      <g transform="translate(23.564687 194.502766)scale(0.17 -0.17)">
       <use xlink:href="#DejaVuSans-48"/>
       <use x="63.623047" xlink:href="#DejaVuSans-46"/>
       <use x="95.410156" xlink:href="#DejaVuSans-54"/>
      </g>
     </g>
    </g>
    <g id="ytick_5">
     <g id="line2d_12">
      <g>
       <use style="stroke:#000000;stroke-width:0.8;" x="57.6" xlink:href="#m381d29a537" y="148.197458"/>
      </g>
     </g>
     <g id="text_13">
      <!-- 0.8 -->
      <defs>
       <path d="M 31.78125 34.625 
Q 24.75 34.625 20.71875 30.859375 
Q 16.703125 27.09375 16.703125 20.515625 
Q 16.703125 13.921875 20.71875 10.15625 
Q 24.75 6.390625 31.78125 6.390625 
Q 38.8125 6.390625 42.859375 10.171875 
Q 46.921875 13.96875 46.921875 20.515625 
Q 46.921875 27.09375 42.890625 30.859375 
Q 38.875 34.625 31.78125 34.625 
z
M 21.921875 38.8125 
Q 15.578125 40.375 12.03125 44.71875 
Q 8.5 49.078125 8.5 55.328125 
Q 8.5 64.0625 14.71875 69.140625 
Q 20.953125 74.21875 31.78125 74.21875 
Q 42.671875 74.21875 48.875 69.140625 
Q 55.078125 64.0625 55.078125 55.328125 
Q 55.078125 49.078125 51.53125 44.71875 
Q 48 40.375 41.703125 38.8125 
Q 48.828125 37.15625 52.796875 32.3125 
Q 56.78125 27.484375 56.78125 20.515625 
Q 56.78125 9.90625 50.3125 4.234375 
Q 43.84375 -1.421875 31.78125 -1.421875 
Q 19.734375 -1.421875 13.25 4.234375 
Q 6.78125 9.90625 6.78125 20.515625 
Q 6.78125 27.484375 10.78125 32.3125 
Q 14.796875 37.15625 21.921875 38.8125 
z
M 18.3125 54.390625 
Q 18.3125 48.734375 21.84375 45.5625 
Q 25.390625 42.390625 31.78125 42.390625 
Q 38.140625 42.390625 41.71875 45.5625 
Q 45.3125 48.734375 45.3125 54.390625 
Q 45.3125 60.0625 41.71875 63.234375 
Q 38.140625 66.40625 31.78125 66.40625 
Q 25.390625 66.40625 21.84375 63.234375 
Q 18.3125 60.0625 18.3125 54.390625 
z
" id="DejaVuSans-56"/>
      </defs>
      <g transform="translate(23.564687 154.65613)scale(0.17 -0.17)">
       <use xlink:href="#DejaVuSans-48"/>
       <use x="63.623047" xlink:href="#DejaVuSans-46"/>
       <use x="95.410156" xlink:href="#DejaVuSans-56"/>
      </g>
     </g>
    </g>
    <g id="ytick_6">
     <g id="line2d_13">
      <g>
       <use style="stroke:#000000;stroke-width:0.8;" x="57.6" xlink:href="#m381d29a537" y="108.350823"/>
      </g>
     </g>
     <g id="text_14">
      <!-- 1.0 -->
      <g transform="translate(23.564687 114.809495)scale(0.17 -0.17)">
       <use xlink:href="#DejaVuSans-49"/>
       <use x="63.623047" xlink:href="#DejaVuSans-46"/>
       <use x="95.410156" xlink:href="#DejaVuSans-48"/>
      </g>
     </g>
    </g>
    <g id="ytick_7">
     <g id="line2d_14">
      <g>
       <use style="stroke:#000000;stroke-width:0.8;" x="57.6" xlink:href="#m381d29a537" y="68.504187"/>
      </g>
     </g>
     <g id="text_15">
      <!-- 1.2 -->
      <g transform="translate(23.564687 74.962859)scale(0.17 -0.17)">
       <use xlink:href="#DejaVuSans-49"/>
       <use x="63.623047" xlink:href="#DejaVuSans-46"/>
       <use x="95.410156" xlink:href="#DejaVuSans-50"/>
      </g>
     </g>
    </g>
    <g id="text_16">
     <!-- Density -->
     <defs>
      <path d="M 19.671875 64.796875 
L 19.671875 8.109375 
L 31.59375 8.109375 
Q 46.6875 8.109375 53.6875 14.9375 
Q 60.6875 21.78125 60.6875 36.53125 
Q 60.6875 51.171875 53.6875 57.984375 
Q 46.6875 64.796875 31.59375 64.796875 
z
M 9.8125 72.90625 
L 30.078125 72.90625 
Q 51.265625 72.90625 61.171875 64.09375 
Q 71.09375 55.28125 71.09375 36.53125 
Q 71.09375 17.671875 61.125 8.828125 
Q 51.171875 0 30.078125 0 
L 9.8125 0 
z
" id="DejaVuSans-68"/>
      <path d="M 56.203125 29.59375 
L 56.203125 25.203125 
L 14.890625 25.203125 
Q 15.484375 15.921875 20.484375 11.0625 
Q 25.484375 6.203125 34.421875 6.203125 
Q 39.59375 6.203125 44.453125 7.46875 
Q 49.3125 8.734375 54.109375 11.28125 
L 54.109375 2.78125 
Q 49.265625 0.734375 44.1875 -0.34375 
Q 39.109375 -1.421875 33.890625 -1.421875 
Q 20.796875 -1.421875 13.15625 6.1875 
Q 5.515625 13.8125 5.515625 26.8125 
Q 5.515625 40.234375 12.765625 48.109375 
Q 20.015625 56 32.328125 56 
Q 43.359375 56 49.78125 48.890625 
Q 56.203125 41.796875 56.203125 29.59375 
z
M 47.21875 32.234375 
Q 47.125 39.59375 43.09375 43.984375 
Q 39.0625 48.390625 32.421875 48.390625 
Q 24.90625 48.390625 20.390625 44.140625 
Q 15.875 39.890625 15.1875 32.171875 
z
" id="DejaVuSans-101"/>
      <path d="M 32.171875 -5.078125 
Q 28.375 -14.84375 24.75 -17.8125 
Q 21.140625 -20.796875 15.09375 -20.796875 
L 7.90625 -20.796875 
L 7.90625 -13.28125 
L 13.1875 -13.28125 
Q 16.890625 -13.28125 18.9375 -11.515625 
Q 21 -9.765625 23.484375 -3.21875 
L 25.09375 0.875 
L 2.984375 54.6875 
L 12.5 54.6875 
L 29.59375 11.921875 
L 46.6875 54.6875 
L 56.203125 54.6875 
z
" id="DejaVuSans-121"/>
     </defs>
     <g transform="translate(13.325625 231.553781)rotate(-90)scale(0.3 -0.3)">
      <use xlink:href="#DejaVuSans-68"/>
      <use x="77.001953" xlink:href="#DejaVuSans-101"/>
      <use x="138.525391" xlink:href="#DejaVuSans-110"/>
      <use x="201.904297" xlink:href="#DejaVuSans-115"/>
      <use x="254.003906" xlink:href="#DejaVuSans-105"/>
      <use x="281.787109" xlink:href="#DejaVuSans-116"/>
      <use x="320.996094" xlink:href="#DejaVuSans-121"/>
     </g>
    </g>
   </g>
   <g id="line2d_15">
    <path clip-path="url(#p8e19a49753)" d="M 91.206754 306.166922 
L 91.918695 305.229634 
L 92.152887 305.246986 
L 92.415181 305.532688 
L 93.061549 306.740732 
L 93.45499 307.177878 
L 93.745387 307.203153 
L 94.063887 306.977526 
L 95.056858 306.122927 
L 95.572078 306.168193 
L 96.490108 306.172282 
L 96.995961 306.013449 
L 97.417505 305.934141 
L 97.689167 306.14216 
L 98.223123 306.955378 
L 98.682138 307.425337 
L 99.141153 307.562462 
L 99.974873 307.53806 
L 100.396417 307.336992 
L 100.761756 306.883146 
L 101.623579 305.677323 
L 101.839035 305.774733 
L 102.157535 306.227872 
L 102.888212 307.295233 
L 103.25355 307.432413 
L 103.646992 307.32724 
L 104.668065 306.941016 
L 105.305065 306.768568 
L 105.876492 306.633404 
L 106.869463 306.650261 
L 107.693816 306.044675 
L 107.95611 306.302534 
L 108.846037 307.35877 
L 109.145801 307.315403 
L 109.51114 307.003482 
L 110.101301 306.515689 
L 110.382331 306.579309 
L 111.14111 306.889296 
L 111.590758 306.634564 
L 112.021669 306.503918 
L 112.705508 306.395593 
L 113.567331 305.950407 
L 113.913934 306.171296 
L 114.850699 306.856919 
L 115.187935 306.782202 
L 116.265214 306.33864 
L 117.0802 306.457828 
L 117.501744 306.065415 
L 117.857714 305.877262 
L 118.148112 305.994977 
L 118.663332 306.211866 
L 118.944362 306.044723 
L 119.440847 305.40986 
L 120.152788 304.600078 
L 121.417421 303.808375 
L 121.66098 303.968765 
L 122.035686 304.551279 
L 122.691421 305.530119 
L 122.991186 305.613713 
L 123.347157 305.441198 
L 124.190245 305.016017 
L 125.089539 304.657946 
L 125.389304 304.931323 
L 125.960731 305.462564 
L 126.269863 305.415111 
L 127.112951 305.17195 
L 127.497025 305.305873 
L 128.424422 305.804347 
L 128.696084 305.49882 
L 129.192569 304.509223 
L 129.689055 303.709662 
L 129.941981 303.644683 
L 130.18554 303.826295 
L 130.569614 304.447856 
L 131.393967 305.820219 
L 131.674996 305.869615 
L 132.134011 305.65305 
L 132.714805 305.480114 
L 133.745247 305.250019 
L 134.419717 305.105356 
L 134.916203 305.281995 
L 135.24407 305.283565 
L 135.496997 305.031383 
L 135.88107 304.252259 
L 136.377556 303.375906 
L 136.621115 303.323602 
L 136.864674 303.533644 
L 137.379894 304.384483 
L 137.763968 304.800216 
L 137.988791 304.75809 
L 138.241718 304.432557 
L 138.906821 303.470817 
L 139.094174 303.581603 
L 139.431409 304.141209 
L 139.778012 304.538005 
L 139.984101 304.483232 
L 140.349439 304.062317 
L 140.724145 303.78623 
L 141.06138 303.841859 
L 141.492292 303.875684 
L 142.953645 303.304443 
L 143.656219 302.626359 
L 143.927881 302.742484 
L 144.340057 302.900785 
L 144.536778 302.710907 
L 144.799072 302.08252 
L 145.688999 299.636743 
L 145.885719 299.680658 
L 146.663234 300.129419 
L 147.431381 299.797561 
L 147.656205 300.196725 
L 148.499293 302.06685 
L 148.518028 302.058251 
L 148.696014 301.837179 
L 149.155029 300.7368 
L 149.54847 300.130937 
L 150.007485 299.870732 
L 150.597646 299.491139 
L 151.328323 298.922213 
L 151.525044 299.133222 
L 151.806073 299.847075 
L 152.405603 301.38734 
L 152.583588 301.377791 
L 152.780309 301.058118 
L 153.229956 299.72041 
L 153.623397 298.903081 
L 153.923162 298.731129 
L 155.150324 298.601899 
L 155.459456 298.57776 
L 155.665544 298.300386 
L 155.937206 297.480591 
L 156.583574 294.482288 
L 156.948912 293.424617 
L 157.136265 293.352266 
L 157.295515 293.589045 
L 157.548442 294.470938 
L 158.176074 296.773948 
L 158.307221 296.721929 
L 158.475839 296.275485 
L 158.822442 294.519695 
L 159.215883 292.964729 
L 159.421971 292.81976 
L 159.62806 292.997439 
L 159.965295 293.223578 
L 160.14328 293.049204 
L 160.443045 292.339673 
L 160.845854 291.559783 
L 161.005104 291.592344 
L 161.201825 291.93607 
L 161.829457 293.243937 
L 161.848192 293.234955 
L 161.988707 293.018162 
L 162.213531 292.151503 
L 163.13156 288.040126 
L 163.300178 288.04154 
L 163.506266 288.342381 
L 164.236943 289.612347 
L 164.405561 289.420832 
L 164.705325 288.634854 
L 165.117502 287.748602 
L 165.286119 287.759828 
L 165.473472 288.057387 
L 165.791973 289.072887 
L 166.691267 292.246885 
L 166.710002 292.238175 
L 166.831781 292.016559 
L 167.019134 291.098752 
L 167.375105 287.951683 
L 167.880958 284.020061 
L 168.161988 283.274503 
L 168.339973 283.256159 
L 168.536694 283.536294 
L 168.873929 284.503043 
L 169.342311 285.673006 
L 169.539032 285.706661 
L 170.110459 285.513534 
L 170.307179 286.064454 
L 170.691253 288.02929 
L 171.047223 289.346229 
L 171.17837 289.378848 
L 171.197106 289.359714 
L 171.346988 288.996831 
L 171.609282 287.606857 
L 172.564782 281.941399 
L 172.845812 281.495394 
L 173.070635 281.492567 
L 174.035503 281.826141 
L 174.391474 281.563034 
L 174.756812 280.968913 
L 175.356342 280.018713 
L 175.759151 279.866173 
L 176.115121 279.635452 
L 176.471092 279.091918 
L 176.967577 277.858541 
L 177.501533 276.692498 
L 178.11043 275.790242 
L 178.382092 274.463163 
L 178.906681 271.887245 
L 179.000357 271.941235 
L 179.131504 272.431509 
L 179.356328 274.313146 
L 180.180681 282.038511 
L 180.26499 282.065104 
L 180.293093 282.031516 
L 180.42424 281.610371 
L 180.667799 279.871636 
L 181.604563 272.31015 
L 181.726343 272.242754 
L 181.754446 272.2663 
L 181.89496 272.580884 
L 182.166622 273.87746 
L 183.084652 278.628914 
L 183.281372 278.798687 
L 183.421887 278.598064 
L 183.656078 277.752947 
L 184.339917 275.109891 
L 184.84577 273.860518 
L 185.154902 272.097516 
L 185.735696 267.076706 
L 186.175976 264.207033 
L 186.391432 263.846014 
L 186.503844 263.978105 
L 186.700564 264.674606 
L 187.637329 268.701018 
L 187.777844 268.558281 
L 188.03077 267.879222 
L 188.620932 266.2872 
L 188.855123 266.196981 
L 189.567065 266.271744 
L 189.838727 265.755626 
L 190.775491 263.748243 
L 191.131462 263.035404 
L 191.693521 261.802682 
L 191.8153 261.975717 
L 192.002653 262.744945 
L 192.752065 266.624583 
L 192.789536 266.601594 
L 192.911315 266.3168 
L 193.126771 265.094887 
L 193.501477 261.395924 
L 194.410139 252.099563 
L 194.578757 251.765945 
L 194.597492 251.773838 
L 194.700536 251.980823 
L 194.878521 252.960119 
L 195.225124 256.438093 
L 195.702875 260.586504 
L 195.88086 260.922822 
L 195.899595 260.914144 
L 196.012007 260.703818 
L 196.236831 259.654261 
L 197.220434 254.444379 
L 197.501463 254.007432 
L 197.670081 254.065485 
L 197.894904 254.45589 
L 198.363287 255.254248 
L 198.485066 255.116531 
L 198.663052 254.461878 
L 198.934713 252.41381 
L 199.937052 243.839903 
L 200.049464 243.764619 
L 200.077566 243.789293 
L 200.208714 244.132525 
L 200.433537 245.508967 
L 201.360934 252.110262 
L 201.473346 252.043097 
L 201.623228 251.553343 
L 201.876155 249.786542 
L 202.419479 243.841638 
L 202.766082 241.378325 
L 202.878493 241.245352 
L 202.915964 241.284363 
L 203.037743 241.690843 
L 203.271935 243.474573 
L 203.955773 249.102924 
L 204.068185 249.204527 
L 204.105655 249.168928 
L 204.236802 248.787995 
L 204.480361 247.220179 
L 205.211038 240.315246 
L 205.951082 234.430739 
L 206.213376 233.655357 
L 206.325788 233.710751 
L 206.47567 234.190741 
L 206.709862 235.850848 
L 207.159509 241.065083 
L 207.599788 245.121793 
L 207.749671 245.426389 
L 207.777774 245.403011 
L 207.890185 245.046422 
L 208.086906 243.452318 
L 208.480347 237.887217 
L 208.958097 232.291213 
L 209.370274 230.174687 
L 209.707509 227.927401 
L 210.194627 224.851812 
L 210.269568 224.830929 
L 210.307039 224.886009 
L 210.438186 225.417839 
L 210.691112 227.637146 
L 211.290642 232.932043 
L 211.477995 233.246185 
L 211.487363 233.243518 
L 211.609142 233.074895 
L 211.843333 232.240065 
L 214.100936 222.551963 
L 214.372598 222.005902 
L 214.531848 222.052595 
L 214.756672 222.451484 
L 215.12201 223.614866 
L 215.449878 225.455588 
L 216.367907 231.356005 
L 216.377275 231.353868 
L 216.480319 231.20424 
L 216.667672 230.403405 
L 217.979143 223.376265 
L 218.513099 221.066119 
L 218.86907 218.254316 
L 219.337452 214.816436 
L 219.403026 214.77655 
L 219.440496 214.828176 
L 219.562276 215.380096 
L 219.777732 217.649517 
L 220.517776 226.249497 
L 220.602085 226.331984 
L 220.648923 226.274519 
L 220.78007 225.746803 
L 221.023629 223.599766 
L 221.810511 216.009447 
L 221.876085 215.973193 
L 221.922923 216.035427 
L 222.05407 216.598198 
L 222.288261 218.864217 
L 223.112614 227.879807 
L 223.178188 227.900967 
L 223.215659 227.845518 
L 223.346806 227.280682 
L 223.590365 224.982912 
L 224.461556 215.934886 
L 224.854997 214.197059 
L 225.004879 214.065328 
L 225.023615 214.077433 
L 225.145394 214.318593 
L 225.379585 215.435062 
L 225.744924 216.913823 
L 225.829233 216.795259 
L 225.969747 216.014478 
L 226.203938 213.141595 
L 226.747262 202.750667 
L 227.477939 185.69611 
L 227.908851 177.552314 
L 228.049365 176.963444 
L 228.077468 176.995328 
L 228.171145 177.448802 
L 228.358498 179.743894 
L 229.501351 196.736676 
L 229.922895 198.551563 
L 230.054042 198.710491 
L 230.082145 198.684354 
L 230.175822 198.35937 
L 230.316336 196.837176 
L 230.494322 191.9181 
L 230.709777 178.795045 
L 231.000175 144.829257 
L 231.712116 54.479659 
L 231.749586 54.144 
L 231.796425 54.682375 
L 231.908837 60.172518 
L 232.124292 84.314987 
L 232.92991 184.15427 
L 233.220307 194.239073 
L 233.435763 196.063067 
L 233.473234 196.061233 
L 233.510704 195.982663 
L 233.641852 195.169087 
L 233.876043 191.952916 
L 234.241381 183.286686 
L 235.187514 159.250168 
L 235.262455 159.062259 
L 235.309293 159.165284 
L 235.421705 160.106201 
L 235.627793 164.16809 
L 236.630131 187.710239 
L 236.695705 187.580855 
L 236.83622 186.542132 
L 237.117249 182.348867 
L 237.763617 172.836613 
L 238.044646 171.484456 
L 238.185161 171.410233 
L 238.203896 171.425331 
L 238.353779 171.731982 
L 238.58797 172.80823 
L 238.90647 175.430802 
L 239.328014 181.002487 
L 240.171103 192.44857 
L 240.395926 193.126682 
L 240.489603 193.019024 
L 240.667588 192.347024 
L 241.201544 190.230579 
L 241.304588 190.324306 
L 241.473206 190.915652 
L 241.810441 193.152164 
L 243.215588 203.056574 
L 243.543456 203.698865 
L 243.833853 204.300422 
L 244.114883 205.555771 
L 244.667574 209.390461 
L 245.501295 214.756615 
L 245.726118 215.099115 
L 245.857265 214.968561 
L 246.166398 214.186092 
L 246.428692 213.832505 
L 246.559839 213.969631 
L 246.765927 214.616641 
L 247.487236 217.195845 
L 247.609016 217.075851 
L 247.796369 216.467773 
L 248.208545 214.118207 
L 248.714398 211.776273 
L 249.473178 209.542796 
L 249.62306 209.539451 
L 249.772942 209.874022 
L 250.035237 211.152054 
L 250.484884 213.150523 
L 250.625398 213.205493 
L 250.644134 213.190804 
L 250.822119 212.877124 
L 251.140619 212.394743 
L 251.253031 212.545131 
L 251.431016 213.271025 
L 252.13359 217.21576 
L 252.208531 217.115683 
L 252.358413 216.435046 
L 252.630075 213.909173 
L 253.220237 208.486501 
L 253.398222 208.160097 
L 253.416958 208.167313 
L 253.538737 208.381736 
L 253.772928 209.389634 
L 255.009458 216.618166 
L 255.993061 225.00791 
L 256.180414 225.159091 
L 256.339664 224.951015 
L 256.733105 223.889451 
L 257.014135 223.458943 
L 257.145282 223.565588 
L 257.323267 224.117794 
L 257.623032 225.968839 
L 258.185091 229.308019 
L 258.381812 229.524017 
L 258.531694 229.357885 
L 259.037547 228.569094 
L 259.06565 228.592126 
L 259.206165 228.905535 
L 259.421621 230.084422 
L 259.786959 233.641462 
L 260.283444 237.944513 
L 260.508268 238.43729 
L 260.639415 238.339396 
L 261.379459 237.410368 
L 261.538709 237.21896 
L 261.707327 236.581168 
L 261.93215 234.692189 
L 262.344327 228.803719 
L 262.747136 224.355784 
L 262.906386 223.939645 
L 262.934489 223.954889 
L 263.037533 224.22692 
L 263.224886 225.501537 
L 263.552754 229.53869 
L 264.517621 242.359895 
L 264.667504 242.624563 
L 264.695607 242.607869 
L 264.817386 242.334467 
L 265.098416 240.956334 
L 265.538695 239.140608 
L 265.885298 238.657808 
L 266.091386 238.175916 
L 266.31621 236.984246 
L 266.653445 233.725447 
L 267.224872 228.43609 
L 267.365387 228.181242 
L 267.39349 228.198074 
L 267.505901 228.486374 
L 267.702622 229.757099 
L 268.077328 233.968889 
L 268.770534 241.544489 
L 268.976622 242.054627 
L 269.079666 241.910418 
L 269.276387 241.090773 
L 269.866549 238.487622 
L 270.072637 238.374662 
L 271.009402 238.680294 
L 271.21549 239.329309 
L 271.562093 241.366633 
L 271.993005 243.48392 
L 272.217829 243.748728 
L 272.470755 243.665221 
L 272.742417 243.669334 
L 273.398152 243.911339 
L 273.651079 243.491552 
L 274.512902 241.884164 
L 274.812667 241.766272 
L 275.056226 241.901955 
L 275.384094 242.387036 
L 276.105403 243.478574 
L 276.452006 243.991919 
L 276.704932 244.868133 
L 277.014065 246.865829 
L 277.969565 254.038433 
L 277.997668 254.021606 
L 278.100712 253.762585 
L 278.288065 252.531096 
L 278.644036 248.335297 
L 279.177991 242.709044 
L 279.38408 242.150711 
L 279.393447 242.153048 
L 279.487124 242.30979 
L 279.655742 243.178989 
L 279.946139 246.134064 
L 281.182668 260.360046 
L 281.266977 260.281952 
L 281.407492 259.629146 
L 281.669786 257.067035 
L 282.231845 251.698671 
L 282.475404 251.098706 
L 282.625286 251.145805 
L 282.840742 251.54143 
L 283.177977 252.684007 
L 283.655728 255.20757 
L 284.386404 258.985037 
L 284.489448 259.038224 
L 284.526919 258.997633 
L 284.658066 258.581244 
L 284.882889 256.917663 
L 285.51989 251.819441 
L 285.594831 251.863006 
L 285.604198 251.881885 
L 285.735346 252.441993 
L 285.99764 254.810376 
L 286.540963 259.544304 
L 286.690846 259.784835 
L 286.718949 259.762613 
L 286.840728 259.423997 
L 287.046816 258.027118 
L 287.440258 253.459311 
L 288.06789 246.716482 
L 288.330184 245.747421 
L 288.433228 245.760407 
L 288.451964 245.786674 
L 288.601846 246.251718 
L 288.854773 247.942606 
L 289.369993 253.322333 
L 290.044464 259.587526 
L 290.381699 261.058302 
L 290.503479 261.138912 
L 290.531582 261.116788 
L 290.662729 260.798927 
L 290.868817 259.582134 
L 291.234155 255.799134 
L 291.833685 250.026499 
L 292.058508 249.432906 
L 292.152185 249.533972 
L 292.311435 250.166945 
L 292.592464 252.415474 
L 293.72595 262.419816 
L 294.08192 264.014449 
L 294.222435 264.11347 
L 294.24117 264.100392 
L 294.381685 263.816842 
L 294.662715 262.561655 
L 295.074891 260.991171 
L 295.243509 260.92966 
L 295.412127 261.180875 
L 296.124068 262.463786 
L 296.461303 262.483647 
L 297.145142 262.277695 
L 297.426171 262.288987 
L 297.613524 262.555892 
L 297.838348 263.358959 
L 298.166215 265.554204 
L 298.690804 268.876411 
L 298.78448 268.952545 
L 298.821951 268.917505 
L 298.94373 268.541439 
L 299.159186 266.994995 
L 300.142789 258.819065 
L 300.37698 258.47921 
L 300.508127 258.592587 
L 300.686113 259.122528 
L 300.967142 260.784427 
L 301.622878 264.776168 
L 301.782128 264.892019 
L 301.791495 264.886372 
L 301.941378 264.641354 
L 302.587745 263.125389 
L 302.643951 263.170727 
L 302.803201 263.53827 
L 303.093598 264.913119 
L 303.636922 267.340442 
L 304.489378 269.707677 
L 305.126378 272.089015 
L 305.547922 273.653842 
L 306.15682 276.02747 
L 306.287967 275.998603 
L 306.456584 275.616894 
L 307.524496 271.794554 
L 308.06782 270.234791 
L 308.208335 270.279367 
L 308.376952 270.681758 
L 308.723555 272.274854 
L 309.229408 274.264156 
L 309.604114 274.909271 
L 309.838305 274.982297 
L 310.006923 274.771318 
L 310.222379 274.057819 
L 310.531511 272.122536 
L 311.458909 265.762699 
L 311.552585 265.842909 
L 311.6931 266.398311 
L 311.936659 268.456494 
L 312.657968 274.974012 
L 312.826585 275.157446 
L 312.835953 275.152855 
L 312.985835 274.937094 
L 313.416747 274.283427 
L 313.547894 274.463299 
L 313.753983 275.214735 
L 314.184894 277.893883 
L 314.68138 280.465604 
L 314.924939 280.839149 
L 315.056086 280.725572 
L 315.252806 280.148385 
L 315.711821 277.799405 
L 315.983483 277.037852 
L 316.095895 277.095828 
L 316.255145 277.575259 
L 316.583012 279.501646 
L 317.013924 281.579168 
L 317.276218 281.939545 
L 317.585351 281.957635 
L 317.894483 281.807169 
L 318.100572 281.412404 
L 318.362866 280.318889 
L 319.112278 276.833433 
L 319.224689 276.947821 
L 319.402675 277.567286 
L 320.133351 280.539807 
L 320.273866 280.450211 
L 320.53616 279.898879 
L 320.995175 279.05953 
L 321.323043 278.89977 
L 321.575969 278.998234 
L 321.77269 279.348964 
L 322.006881 280.321125 
L 322.344116 282.88654 
L 322.868705 286.594214 
L 323.018587 286.776726 
L 323.037322 286.764378 
L 323.159102 286.504838 
L 323.383925 285.346004 
L 323.945984 280.827259 
L 324.414367 277.918945 
L 324.620455 277.588984 
L 324.732867 277.743918 
L 324.910852 278.476265 
L 325.219984 280.885407 
L 326.081808 287.978491 
L 326.344102 288.617805 
L 326.484617 288.574468 
L 326.662602 288.166877 
L 326.962367 286.79664 
L 328.077117 281.158722 
L 328.198897 281.197298 
L 328.348779 281.597992 
L 328.592338 283.045079 
L 329.53847 289.497863 
L 329.847603 289.909272 
L 330.166103 290.37792 
L 330.952985 291.791585 
L 331.149706 291.691441 
L 331.383897 291.278239 
L 331.69303 290.204874 
L 332.3675 287.711588 
L 332.479912 287.796864 
L 332.639162 288.307036 
L 332.920192 290.120753 
L 333.613398 294.740792 
L 333.819486 295.000982 
L 333.941265 294.834324 
L 334.147354 294.071373 
L 335.03728 290.004282 
L 335.065383 290.015646 
L 335.205898 290.248583 
L 335.47756 291.288313 
L 335.889736 292.661643 
L 336.039619 292.672799 
L 336.198869 292.361274 
L 336.573575 290.94366 
L 336.967016 289.837137 
L 337.191839 289.702194 
L 337.369825 289.857598 
L 337.622751 290.439365 
L 338.175443 292.483108 
L 338.531413 293.318392 
L 338.700031 293.32431 
L 338.878016 293.042561 
L 339.505649 291.782109 
L 339.533752 291.798699 
L 339.683634 292.049891 
L 339.955296 293.057436 
L 340.582928 295.386 
L 341.360443 297.309523 
L 341.997443 299.362525 
L 342.156693 299.365314 
L 342.325311 299.054847 
L 342.653179 297.828092 
L 343.055987 296.609505 
L 343.224605 296.584971 
L 343.40259 296.888055 
L 344.255046 298.77832 
L 344.273782 298.769693 
L 344.451767 298.537352 
L 344.742164 297.681759 
L 345.23865 296.315132 
L 345.379164 296.350906 
L 345.547782 296.74188 
L 345.856914 298.196333 
L 346.344032 300.251503 
L 346.531385 300.374575 
L 346.690635 300.171044 
L 347.02787 299.24555 
L 347.571194 297.961009 
L 348.180091 297.116125 
L 348.414282 297.097551 
L 348.648474 297.355246 
L 349.2199 298.045436 
L 349.425989 297.943699 
L 349.763224 297.458132 
L 350.203503 296.453895 
L 350.634415 294.819131 
L 351.224577 292.734314 
L 351.421298 292.630145 
L 351.57118 292.845997 
L 351.814739 293.696169 
L 352.732768 297.358728 
L 352.901386 297.362928 
L 353.079371 297.070908 
L 353.369769 296.05348 
L 353.988033 293.850932 
L 354.166019 293.81068 
L 354.353372 294.085679 
L 355.102784 295.414856 
L 355.880298 295.91726 
L 356.479828 296.456156 
L 356.732754 296.388611 
L 357.116828 295.970966 
L 357.435328 295.781878 
L 357.660152 295.921816 
L 358.297152 296.457881 
L 358.550078 296.246777 
L 358.924784 295.975019 
L 359.10277 296.121169 
L 359.374431 296.724276 
L 359.93649 297.954507 
L 360.283093 298.147841 
L 360.751476 298.435457 
L 361.322902 298.774706 
L 361.669505 298.727349 
L 361.950535 298.460022 
L 362.250299 297.827059 
L 362.746785 296.114833 
L 363.149594 295.093615 
L 363.355682 295.026964 
L 363.56177 295.246119 
L 364.1613 296.402308 
L 364.882609 297.996256 
L 365.959888 300.650919 
L 366.400168 301.215618 
L 366.699933 301.266912 
L 367.130844 301.308498 
L 367.365036 301.631766 
L 367.692903 302.540078 
L 368.592198 305.215182 
L 368.873227 305.418062 
L 369.144889 305.343673 
L 369.622639 304.927 
L 370.091021 304.251685 
L 371.468066 301.914988 
L 371.777198 301.866002 
L 372.030125 302.068372 
L 372.226845 302.386407 
L 372.226845 302.386407 
" style="fill:none;stroke:#ff7f0e;stroke-linecap:square;stroke-width:1.5;"/>
   </g>
   <g id="patch_103">
    <path d="M 57.6 307.584 
L 57.6 41.472 
" style="fill:none;stroke:#000000;stroke-linecap:square;stroke-linejoin:miter;stroke-width:0.8;"/>
   </g>
   <g id="patch_104">
    <path d="M 414.72 307.584 
L 414.72 41.472 
" style="fill:none;stroke:#000000;stroke-linecap:square;stroke-linejoin:miter;stroke-width:0.8;"/>
   </g>
   <g id="patch_105">
    <path d="M 57.6 307.584 
L 414.72 307.584 
" style="fill:none;stroke:#000000;stroke-linecap:square;stroke-linejoin:miter;stroke-width:0.8;"/>
   </g>
   <g id="patch_106">
    <path d="M 57.6 41.472 
L 414.72 41.472 
" style="fill:none;stroke:#000000;stroke-linecap:square;stroke-linejoin:miter;stroke-width:0.8;"/>
   </g>
  </g>
 </g>
 <defs>
  <clipPath id="p8e19a49753">
   <rect height="266.112" width="357.12" x="57.6" y="41.472"/>
  </clipPath>
 </defs>
</svg>
