<?xml version="1.0" encoding="utf-8" standalone="no"?>
<!DOCTYPE svg PUBLIC "-//W3C//DTD SVG 1.1//EN"
  "http://www.w3.org/Graphics/SVG/1.1/DTD/svg11.dtd">
<!-- Created with matplotlib (https://matplotlib.org/) -->
<svg height="345.6pt" version="1.1" viewBox="0 0 460.8 345.6" width="460.8pt" xmlns="http://www.w3.org/2000/svg" xmlns:xlink="http://www.w3.org/1999/xlink">
 <defs>
  <style type="text/css">
*{stroke-linecap:butt;stroke-linejoin:round;}
  </style>
 </defs>
 <g id="figure_1">
  <g id="patch_1">
   <path d="M 0 345.6 
L 460.8 345.6 
L 460.8 0 
L 0 0 
z
" style="fill:#ffffff;"/>
  </g>
  <g id="axes_1">
   <g id="patch_2">
    <path d="M 57.6 307.584 
L 414.72 307.584 
L 414.72 41.472 
L 57.6 41.472 
z
" style="fill:#ffffff;"/>
   </g>
   <g id="patch_3">
    <path clip-path="url(#pfe60db094d)" d="M 73.832727 307.584 
L 77.079273 307.584 
L 77.079273 307.242798 
L 73.832727 307.242798 
z
" style="fill:#1f77b4;"/>
   </g>
   <g id="patch_4">
    <path clip-path="url(#pfe60db094d)" d="M 77.079273 307.584 
L 80.32582 307.584 
L 80.32582 307.413399 
L 77.079273 307.413399 
z
" style="fill:#1f77b4;"/>
   </g>
   <g id="patch_5">
    <path clip-path="url(#pfe60db094d)" d="M 80.32582 307.584 
L 83.572366 307.584 
L 83.572366 307.413399 
L 80.32582 307.413399 
z
" style="fill:#1f77b4;"/>
   </g>
   <g id="patch_6">
    <path clip-path="url(#pfe60db094d)" d="M 83.572366 307.584 
L 86.818912 307.584 
L 86.818912 307.413399 
L 83.572366 307.413399 
z
" style="fill:#1f77b4;"/>
   </g>
   <g id="patch_7">
    <path clip-path="url(#pfe60db094d)" d="M 86.818912 307.584 
L 90.065458 307.584 
L 90.065458 306.901596 
L 86.818912 306.901596 
z
" style="fill:#1f77b4;"/>
   </g>
   <g id="patch_8">
    <path clip-path="url(#pfe60db094d)" d="M 90.065458 307.584 
L 93.312004 307.584 
L 93.312004 306.389793 
L 90.065458 306.389793 
z
" style="fill:#1f77b4;"/>
   </g>
   <g id="patch_9">
    <path clip-path="url(#pfe60db094d)" d="M 93.312004 307.584 
L 96.55855 307.584 
L 96.55855 306.048591 
L 93.312004 306.048591 
z
" style="fill:#1f77b4;"/>
   </g>
   <g id="patch_10">
    <path clip-path="url(#pfe60db094d)" d="M 96.55855 307.584 
L 99.805096 307.584 
L 99.805096 306.048591 
L 96.55855 306.048591 
z
" style="fill:#1f77b4;"/>
   </g>
   <g id="patch_11">
    <path clip-path="url(#pfe60db094d)" d="M 99.805096 307.584 
L 103.051642 307.584 
L 103.051642 306.730995 
L 99.805096 306.730995 
z
" style="fill:#1f77b4;"/>
   </g>
   <g id="patch_12">
    <path clip-path="url(#pfe60db094d)" d="M 103.051642 307.584 
L 106.298189 307.584 
L 106.298189 306.389793 
L 103.051642 306.389793 
z
" style="fill:#1f77b4;"/>
   </g>
   <g id="patch_13">
    <path clip-path="url(#pfe60db094d)" d="M 106.298189 307.584 
L 109.544721 307.584 
L 109.544721 306.389788 
L 106.298189 306.389788 
z
" style="fill:#1f77b4;"/>
   </g>
   <g id="patch_14">
    <path clip-path="url(#pfe60db094d)" d="M 109.544721 307.584 
L 112.791267 307.584 
L 112.791267 306.560394 
L 109.544721 306.560394 
z
" style="fill:#1f77b4;"/>
   </g>
   <g id="patch_15">
    <path clip-path="url(#pfe60db094d)" d="M 112.791267 307.584 
L 116.037813 307.584 
L 116.037813 305.195585 
L 112.791267 305.195585 
z
" style="fill:#1f77b4;"/>
   </g>
   <g id="patch_16">
    <path clip-path="url(#pfe60db094d)" d="M 116.037813 307.584 
L 119.28436 307.584 
L 119.28436 305.87799 
L 116.037813 305.87799 
z
" style="fill:#1f77b4;"/>
   </g>
   <g id="patch_17">
    <path clip-path="url(#pfe60db094d)" d="M 119.28436 307.584 
L 122.530906 307.584 
L 122.530906 303.489575 
L 119.28436 303.489575 
z
" style="fill:#1f77b4;"/>
   </g>
   <g id="patch_18">
    <path clip-path="url(#pfe60db094d)" d="M 122.530906 307.584 
L 125.777452 307.584 
L 125.777452 304.854383 
L 122.530906 304.854383 
z
" style="fill:#1f77b4;"/>
   </g>
   <g id="patch_19">
    <path clip-path="url(#pfe60db094d)" d="M 125.777452 307.584 
L 129.023998 307.584 
L 129.023998 304.513181 
L 125.777452 304.513181 
z
" style="fill:#1f77b4;"/>
   </g>
   <g id="patch_20">
    <path clip-path="url(#pfe60db094d)" d="M 129.023998 307.584 
L 132.270544 307.584 
L 132.270544 302.807171 
L 129.023998 302.807171 
z
" style="fill:#1f77b4;"/>
   </g>
   <g id="patch_21">
    <path clip-path="url(#pfe60db094d)" d="M 132.270544 307.584 
L 135.51709 307.584 
L 135.51709 301.783564 
L 132.270544 301.783564 
z
" style="fill:#1f77b4;"/>
   </g>
   <g id="patch_22">
    <path clip-path="url(#pfe60db094d)" d="M 135.51709 307.584 
L 138.763636 307.584 
L 138.763636 302.295367 
L 135.51709 302.295367 
z
" style="fill:#1f77b4;"/>
   </g>
   <g id="patch_23">
    <path clip-path="url(#pfe60db094d)" d="M 138.763636 307.584 
L 142.010182 307.584 
L 142.010182 300.930559 
L 138.763636 300.930559 
z
" style="fill:#1f77b4;"/>
   </g>
   <g id="patch_24">
    <path clip-path="url(#pfe60db094d)" d="M 142.010182 307.584 
L 145.256729 307.584 
L 145.256729 299.736352 
L 142.010182 299.736352 
z
" style="fill:#1f77b4;"/>
   </g>
   <g id="patch_25">
    <path clip-path="url(#pfe60db094d)" d="M 145.256729 307.584 
L 148.503275 307.584 
L 148.503275 295.641927 
L 145.256729 295.641927 
z
" style="fill:#1f77b4;"/>
   </g>
   <g id="patch_26">
    <path clip-path="url(#pfe60db094d)" d="M 148.503275 307.584 
L 151.749821 307.584 
L 151.749821 298.542144 
L 148.503275 298.542144 
z
" style="fill:#1f77b4;"/>
   </g>
   <g id="patch_27">
    <path clip-path="url(#pfe60db094d)" d="M 151.749821 307.584 
L 154.996367 307.584 
L 154.996367 298.371543 
L 151.749821 298.371543 
z
" style="fill:#1f77b4;"/>
   </g>
   <g id="patch_28">
    <path clip-path="url(#pfe60db094d)" d="M 154.996367 307.584 
L 158.242906 307.584 
L 158.242906 293.594685 
L 154.996367 293.594685 
z
" style="fill:#1f77b4;"/>
   </g>
   <g id="patch_29">
    <path clip-path="url(#pfe60db094d)" d="M 158.242906 307.584 
L 161.489453 307.584 
L 161.489453 290.694496 
L 158.242906 290.694496 
z
" style="fill:#1f77b4;"/>
   </g>
   <g id="patch_30">
    <path clip-path="url(#pfe60db094d)" d="M 161.489453 307.584 
L 164.735999 307.584 
L 164.735999 289.841491 
L 161.489453 289.841491 
z
" style="fill:#1f77b4;"/>
   </g>
   <g id="patch_31">
    <path clip-path="url(#pfe60db094d)" d="M 164.735999 307.584 
L 167.982545 307.584 
L 167.982545 284.723459 
L 164.735999 284.723459 
z
" style="fill:#1f77b4;"/>
   </g>
   <g id="patch_32">
    <path clip-path="url(#pfe60db094d)" d="M 167.982545 307.584 
L 171.229091 307.584 
L 171.229091 282.335045 
L 167.982545 282.335045 
z
" style="fill:#1f77b4;"/>
   </g>
   <g id="patch_33">
    <path clip-path="url(#pfe60db094d)" d="M 171.229091 307.584 
L 174.475637 307.584 
L 174.475637 280.629034 
L 171.229091 280.629034 
z
" style="fill:#1f77b4;"/>
   </g>
   <g id="patch_34">
    <path clip-path="url(#pfe60db094d)" d="M 174.475637 307.584 
L 177.722183 307.584 
L 177.722183 272.951987 
L 174.475637 272.951987 
z
" style="fill:#1f77b4;"/>
   </g>
   <g id="patch_35">
    <path clip-path="url(#pfe60db094d)" d="M 177.722183 307.584 
L 180.968726 307.584 
L 180.968726 270.392933 
L 177.722183 270.392933 
z
" style="fill:#1f77b4;"/>
   </g>
   <g id="patch_36">
    <path clip-path="url(#pfe60db094d)" d="M 180.968726 307.584 
L 184.215272 307.584 
L 184.215272 267.492753 
L 180.968726 267.492753 
z
" style="fill:#1f77b4;"/>
   </g>
   <g id="patch_37">
    <path clip-path="url(#pfe60db094d)" d="M 184.215272 307.584 
L 187.461818 307.584 
L 187.461818 261.862919 
L 184.215272 261.862919 
z
" style="fill:#1f77b4;"/>
   </g>
   <g id="patch_38">
    <path clip-path="url(#pfe60db094d)" d="M 187.461818 307.584 
L 190.708364 307.584 
L 190.708364 258.7921 
L 187.461818 258.7921 
z
" style="fill:#1f77b4;"/>
   </g>
   <g id="patch_39">
    <path clip-path="url(#pfe60db094d)" d="M 190.708364 307.584 
L 193.95491 307.584 
L 193.95491 256.062483 
L 190.708364 256.062483 
z
" style="fill:#1f77b4;"/>
   </g>
   <g id="patch_40">
    <path clip-path="url(#pfe60db094d)" d="M 193.954907 307.584 
L 197.20145 307.584 
L 197.20145 252.309203 
L 193.954907 252.309203 
z
" style="fill:#1f77b4;"/>
   </g>
   <g id="patch_41">
    <path clip-path="url(#pfe60db094d)" d="M 197.201453 307.584 
L 200.447999 307.584 
L 200.447999 245.82642 
L 197.201453 245.82642 
z
" style="fill:#1f77b4;"/>
   </g>
   <g id="patch_42">
    <path clip-path="url(#pfe60db094d)" d="M 200.447999 307.584 
L 203.694545 307.584 
L 203.694545 240.537788 
L 200.447999 240.537788 
z
" style="fill:#1f77b4;"/>
   </g>
   <g id="patch_43">
    <path clip-path="url(#pfe60db094d)" d="M 203.694545 307.584 
L 206.941092 307.584 
L 206.941092 237.808171 
L 203.694545 237.808171 
z
" style="fill:#1f77b4;"/>
   </g>
   <g id="patch_44">
    <path clip-path="url(#pfe60db094d)" d="M 206.941092 307.584 
L 210.187636 307.584 
L 210.187636 236.955129 
L 206.941092 236.955129 
z
" style="fill:#1f77b4;"/>
   </g>
   <g id="patch_45">
    <path clip-path="url(#pfe60db094d)" d="M 210.187636 307.584 
L 213.434182 307.584 
L 213.434182 228.766315 
L 210.187636 228.766315 
z
" style="fill:#1f77b4;"/>
   </g>
   <g id="patch_46">
    <path clip-path="url(#pfe60db094d)" d="M 213.43418 307.584 
L 216.680725 307.584 
L 216.680725 223.477639 
L 213.43418 223.477639 
z
" style="fill:#1f77b4;"/>
   </g>
   <g id="patch_47">
    <path clip-path="url(#pfe60db094d)" d="M 216.680727 307.584 
L 219.927273 307.584 
L 219.927273 217.506646 
L 216.680727 217.506646 
z
" style="fill:#1f77b4;"/>
   </g>
   <g id="patch_48">
    <path clip-path="url(#pfe60db094d)" d="M 219.927273 307.584 
L 223.173818 307.584 
L 223.173818 218.018426 
L 219.927273 218.018426 
z
" style="fill:#1f77b4;"/>
   </g>
   <g id="patch_49">
    <path clip-path="url(#pfe60db094d)" d="M 223.173818 307.584 
L 226.420364 307.584 
L 226.420364 206.076363 
L 223.173818 206.076363 
z
" style="fill:#1f77b4;"/>
   </g>
   <g id="patch_50">
    <path clip-path="url(#pfe60db094d)" d="M 226.420364 307.584 
L 229.666909 307.584 
L 229.666909 181.339191 
L 226.420364 181.339191 
z
" style="fill:#1f77b4;"/>
   </g>
   <g id="patch_51">
    <path clip-path="url(#pfe60db094d)" d="M 229.666909 307.584 
L 232.913455 307.584 
L 232.913455 140.56554 
L 229.666909 140.56554 
z
" style="fill:#1f77b4;"/>
   </g>
   <g id="patch_52">
    <path clip-path="url(#pfe60db094d)" d="M 232.913455 307.584 
L 236.16 307.584 
L 236.16 180.997997 
L 232.913455 180.997997 
z
" style="fill:#1f77b4;"/>
   </g>
   <g id="patch_53">
    <path clip-path="url(#pfe60db094d)" d="M 236.16 307.584 
L 239.406545 307.584 
L 239.406545 185.092415 
L 236.16 185.092415 
z
" style="fill:#1f77b4;"/>
   </g>
   <g id="patch_54">
    <path clip-path="url(#pfe60db094d)" d="M 239.406544 307.584 
L 242.65309 307.584 
L 242.65309 202.152524 
L 239.406544 202.152524 
z
" style="fill:#1f77b4;"/>
   </g>
   <g id="patch_55">
    <path clip-path="url(#pfe60db094d)" d="M 242.653091 307.584 
L 245.899637 307.584 
L 245.899637 213.071019 
L 242.653091 213.071019 
z
" style="fill:#1f77b4;"/>
   </g>
   <g id="patch_56">
    <path clip-path="url(#pfe60db094d)" d="M 245.899635 307.584 
L 249.146179 307.584 
L 249.146179 217.506599 
L 245.899635 217.506599 
z
" style="fill:#1f77b4;"/>
   </g>
   <g id="patch_57">
    <path clip-path="url(#pfe60db094d)" d="M 249.146181 307.584 
L 252.392727 307.584 
L 252.392727 217.677247 
L 249.146181 217.677247 
z
" style="fill:#1f77b4;"/>
   </g>
   <g id="patch_58">
    <path clip-path="url(#pfe60db094d)" d="M 252.392727 307.584 
L 255.639273 307.584 
L 255.639273 217.165444 
L 252.392727 217.165444 
z
" style="fill:#1f77b4;"/>
   </g>
   <g id="patch_59">
    <path clip-path="url(#pfe60db094d)" d="M 255.639273 307.584 
L 258.885818 307.584 
L 258.885818 228.595673 
L 255.639273 228.595673 
z
" style="fill:#1f77b4;"/>
   </g>
   <g id="patch_60">
    <path clip-path="url(#pfe60db094d)" d="M 258.885816 307.584 
L 262.132362 307.584 
L 262.132362 238.831742 
L 258.885816 238.831742 
z
" style="fill:#1f77b4;"/>
   </g>
   <g id="patch_61">
    <path clip-path="url(#pfe60db094d)" d="M 262.132362 307.584 
L 265.378908 307.584 
L 265.378908 232.348937 
L 262.132362 232.348937 
z
" style="fill:#1f77b4;"/>
   </g>
   <g id="patch_62">
    <path clip-path="url(#pfe60db094d)" d="M 265.378908 307.584 
L 268.625455 307.584 
L 268.625455 232.007735 
L 265.378908 232.007735 
z
" style="fill:#1f77b4;"/>
   </g>
   <g id="patch_63">
    <path clip-path="url(#pfe60db094d)" d="M 268.625455 307.584 
L 271.872001 307.584 
L 271.872001 239.855383 
L 268.625455 239.855383 
z
" style="fill:#1f77b4;"/>
   </g>
   <g id="patch_64">
    <path clip-path="url(#pfe60db094d)" d="M 271.872001 307.584 
L 275.118547 307.584 
L 275.118547 240.196585 
L 271.872001 240.196585 
z
" style="fill:#1f77b4;"/>
   </g>
   <g id="patch_65">
    <path clip-path="url(#pfe60db094d)" d="M 275.118547 307.584 
L 278.36509 307.584 
L 278.36509 252.309203 
L 275.118547 252.309203 
z
" style="fill:#1f77b4;"/>
   </g>
   <g id="patch_66">
    <path clip-path="url(#pfe60db094d)" d="M 278.36509 307.584 
L 281.611636 307.584 
L 281.611636 250.60325 
L 278.36509 250.60325 
z
" style="fill:#1f77b4;"/>
   </g>
   <g id="patch_67">
    <path clip-path="url(#pfe60db094d)" d="M 281.611636 307.584 
L 284.858182 307.584 
L 284.858182 256.403685 
L 281.611636 256.403685 
z
" style="fill:#1f77b4;"/>
   </g>
   <g id="patch_68">
    <path clip-path="url(#pfe60db094d)" d="M 284.858178 307.584 
L 288.104718 307.584 
L 288.104718 260.498062 
L 284.858178 260.498062 
z
" style="fill:#1f77b4;"/>
   </g>
   <g id="patch_69">
    <path clip-path="url(#pfe60db094d)" d="M 288.104725 307.584 
L 291.351271 307.584 
L 291.351271 260.668711 
L 288.104725 260.668711 
z
" style="fill:#1f77b4;"/>
   </g>
   <g id="patch_70">
    <path clip-path="url(#pfe60db094d)" d="M 291.351271 307.584 
L 294.597817 307.584 
L 294.597817 264.251333 
L 291.351271 264.251333 
z
" style="fill:#1f77b4;"/>
   </g>
   <g id="patch_71">
    <path clip-path="url(#pfe60db094d)" d="M 294.597817 307.584 
L 297.844363 307.584 
L 297.844363 270.051769 
L 294.597817 270.051769 
z
" style="fill:#1f77b4;"/>
   </g>
   <g id="patch_72">
    <path clip-path="url(#pfe60db094d)" d="M 297.844363 307.584 
L 301.090909 307.584 
L 301.090909 269.539966 
L 297.844363 269.539966 
z
" style="fill:#1f77b4;"/>
   </g>
   <g id="patch_73">
    <path clip-path="url(#pfe60db094d)" d="M 301.090909 307.584 
L 304.337455 307.584 
L 304.337455 272.440184 
L 301.090909 272.440184 
z
" style="fill:#1f77b4;"/>
   </g>
   <g id="patch_74">
    <path clip-path="url(#pfe60db094d)" d="M 304.337455 307.584 
L 307.584001 307.584 
L 307.584001 280.117231 
L 304.337455 280.117231 
z
" style="fill:#1f77b4;"/>
   </g>
   <g id="patch_75">
    <path clip-path="url(#pfe60db094d)" d="M 307.584001 307.584 
L 310.830547 307.584 
L 310.830547 278.923024 
L 307.584001 278.923024 
z
" style="fill:#1f77b4;"/>
   </g>
   <g id="patch_76">
    <path clip-path="url(#pfe60db094d)" d="M 310.830547 307.584 
L 314.077094 307.584 
L 314.077094 277.046412 
L 310.830547 277.046412 
z
" style="fill:#1f77b4;"/>
   </g>
   <g id="patch_77">
    <path clip-path="url(#pfe60db094d)" d="M 314.077087 307.584 
L 317.323626 307.584 
L 317.323626 284.041007 
L 314.077087 284.041007 
z
" style="fill:#1f77b4;"/>
   </g>
   <g id="patch_78">
    <path clip-path="url(#pfe60db094d)" d="M 317.323633 307.584 
L 320.570179 307.584 
L 320.570179 284.382257 
L 317.323633 284.382257 
z
" style="fill:#1f77b4;"/>
   </g>
   <g id="patch_79">
    <path clip-path="url(#pfe60db094d)" d="M 320.570179 307.584 
L 323.816725 307.584 
L 323.816725 285.576465 
L 320.570179 285.576465 
z
" style="fill:#1f77b4;"/>
   </g>
   <g id="patch_80">
    <path clip-path="url(#pfe60db094d)" d="M 323.816725 307.584 
L 327.063271 307.584 
L 327.063271 287.623677 
L 323.816725 287.623677 
z
" style="fill:#1f77b4;"/>
   </g>
   <g id="patch_81">
    <path clip-path="url(#pfe60db094d)" d="M 327.063271 307.584 
L 330.309818 307.584 
L 330.309818 290.182693 
L 327.063271 290.182693 
z
" style="fill:#1f77b4;"/>
   </g>
   <g id="patch_82">
    <path clip-path="url(#pfe60db094d)" d="M 330.309818 307.584 
L 333.556364 307.584 
L 333.556364 294.788921 
L 330.309818 294.788921 
z
" style="fill:#1f77b4;"/>
   </g>
   <g id="patch_83">
    <path clip-path="url(#pfe60db094d)" d="M 333.556364 307.584 
L 336.80291 307.584 
L 336.80291 295.471325 
L 333.556364 295.471325 
z
" style="fill:#1f77b4;"/>
   </g>
   <g id="patch_84">
    <path clip-path="url(#pfe60db094d)" d="M 336.80291 307.584 
L 340.049456 307.584 
L 340.049456 295.812528 
L 336.80291 295.812528 
z
" style="fill:#1f77b4;"/>
   </g>
   <g id="patch_85">
    <path clip-path="url(#pfe60db094d)" d="M 340.049456 307.584 
L 343.296002 307.584 
L 343.296002 299.736352 
L 340.049456 299.736352 
z
" style="fill:#1f77b4;"/>
   </g>
   <g id="patch_86">
    <path clip-path="url(#pfe60db094d)" d="M 343.296002 307.584 
L 346.542548 307.584 
L 346.542548 300.930559 
L 343.296002 300.930559 
z
" style="fill:#1f77b4;"/>
   </g>
   <g id="patch_87">
    <path clip-path="url(#pfe60db094d)" d="M 346.542548 307.584 
L 349.789094 307.584 
L 349.789094 300.077554 
L 346.542548 300.077554 
z
" style="fill:#1f77b4;"/>
   </g>
   <g id="patch_88">
    <path clip-path="url(#pfe60db094d)" d="M 349.789094 307.584 
L 353.03564 307.584 
L 353.03564 298.883346 
L 349.789094 298.883346 
z
" style="fill:#1f77b4;"/>
   </g>
   <g id="patch_89">
    <path clip-path="url(#pfe60db094d)" d="M 353.03564 307.584 
L 356.282187 307.584 
L 356.282187 298.200942 
L 353.03564 298.200942 
z
" style="fill:#1f77b4;"/>
   </g>
   <g id="patch_90">
    <path clip-path="url(#pfe60db094d)" d="M 356.282187 307.584 
L 359.528733 307.584 
L 359.528733 298.883346 
L 356.282187 298.883346 
z
" style="fill:#1f77b4;"/>
   </g>
   <g id="patch_91">
    <path clip-path="url(#pfe60db094d)" d="M 359.528733 307.584 
L 362.775279 307.584 
L 362.775279 301.10116 
L 359.528733 301.10116 
z
" style="fill:#1f77b4;"/>
   </g>
   <g id="patch_92">
    <path clip-path="url(#pfe60db094d)" d="M 362.775279 307.584 
L 366.021825 307.584 
L 366.021825 299.565751 
L 362.775279 299.565751 
z
" style="fill:#1f77b4;"/>
   </g>
   <g id="patch_93">
    <path clip-path="url(#pfe60db094d)" d="M 366.021825 307.584 
L 369.268358 307.584 
L 369.268358 304.171965 
L 366.021825 304.171965 
z
" style="fill:#1f77b4;"/>
   </g>
   <g id="patch_94">
    <path clip-path="url(#pfe60db094d)" d="M 369.268358 307.584 
L 372.514904 307.584 
L 372.514904 304.171979 
L 369.268358 304.171979 
z
" style="fill:#1f77b4;"/>
   </g>
   <g id="patch_95">
    <path clip-path="url(#pfe60db094d)" d="M 372.514904 307.584 
L 375.76145 307.584 
L 375.76145 304.001378 
L 372.514904 304.001378 
z
" style="fill:#1f77b4;"/>
   </g>
   <g id="patch_96">
    <path clip-path="url(#pfe60db094d)" d="M 375.76145 307.584 
L 379.007996 307.584 
L 379.007996 304.854383 
L 375.76145 304.854383 
z
" style="fill:#1f77b4;"/>
   </g>
   <g id="patch_97">
    <path clip-path="url(#pfe60db094d)" d="M 379.007996 307.584 
L 382.254542 307.584 
L 382.254542 303.660176 
L 379.007996 303.660176 
z
" style="fill:#1f77b4;"/>
   </g>
   <g id="patch_98">
    <path clip-path="url(#pfe60db094d)" d="M 382.254542 307.584 
L 385.501088 307.584 
L 385.501088 305.707388 
L 382.254542 305.707388 
z
" style="fill:#1f77b4;"/>
   </g>
   <g id="patch_99">
    <path clip-path="url(#pfe60db094d)" d="M 385.501088 307.584 
L 388.747634 307.584 
L 388.747634 304.854383 
L 385.501088 304.854383 
z
" style="fill:#1f77b4;"/>
   </g>
   <g id="patch_100">
    <path clip-path="url(#pfe60db094d)" d="M 388.747634 307.584 
L 391.99418 307.584 
L 391.99418 305.536787 
L 388.747634 305.536787 
z
" style="fill:#1f77b4;"/>
   </g>
   <g id="patch_101">
    <path clip-path="url(#pfe60db094d)" d="M 391.99418 307.584 
L 395.240727 307.584 
L 395.240727 305.87799 
L 391.99418 305.87799 
z
" style="fill:#1f77b4;"/>
   </g>
   <g id="patch_102">
    <path clip-path="url(#pfe60db094d)" d="M 395.240727 307.584 
L 398.487273 307.584 
L 398.487273 306.389793 
L 395.240727 306.389793 
z
" style="fill:#1f77b4;"/>
   </g>
   <g id="matplotlib.axis_1">
    <g id="xtick_1">
     <g id="line2d_1">
      <defs>
       <path d="M 0 0 
L 0 3.5 
" id="m04c0b190a5" style="stroke:#000000;stroke-width:0.8;"/>
      </defs>
      <g>
       <use style="stroke:#000000;stroke-width:0.8;" x="63.103808" xlink:href="#m04c0b190a5" y="307.584"/>
      </g>
     </g>
     <g id="text_1">
      <!-- −3 -->
      <defs>
       <path d="M 10.59375 35.5 
L 73.1875 35.5 
L 73.1875 27.203125 
L 10.59375 27.203125 
z
" id="DejaVuSans-8722"/>
       <path d="M 40.578125 39.3125 
Q 47.65625 37.796875 51.625 33 
Q 55.609375 28.21875 55.609375 21.1875 
Q 55.609375 10.40625 48.1875 4.484375 
Q 40.765625 -1.421875 27.09375 -1.421875 
Q 22.515625 -1.421875 17.65625 -0.515625 
Q 12.796875 0.390625 7.625 2.203125 
L 7.625 11.71875 
Q 11.71875 9.328125 16.59375 8.109375 
Q 21.484375 6.890625 26.8125 6.890625 
Q 36.078125 6.890625 40.9375 10.546875 
Q 45.796875 14.203125 45.796875 21.1875 
Q 45.796875 27.640625 41.28125 31.265625 
Q 36.765625 34.90625 28.71875 34.90625 
L 20.21875 34.90625 
L 20.21875 43.015625 
L 29.109375 43.015625 
Q 36.375 43.015625 40.234375 45.921875 
Q 44.09375 48.828125 44.09375 54.296875 
Q 44.09375 59.90625 40.109375 62.90625 
Q 36.140625 65.921875 28.71875 65.921875 
Q 24.65625 65.921875 20.015625 65.03125 
Q 15.375 64.15625 9.8125 62.3125 
L 9.8125 71.09375 
Q 15.4375 72.65625 20.34375 73.4375 
Q 25.25 74.21875 29.59375 74.21875 
Q 40.828125 74.21875 47.359375 69.109375 
Q 53.90625 64.015625 53.90625 55.328125 
Q 53.90625 49.265625 50.4375 45.09375 
Q 46.96875 40.921875 40.578125 39.3125 
z
" id="DejaVuSans-51"/>
      </defs>
      <g transform="translate(50.572949 327.501344)scale(0.17 -0.17)">
       <use xlink:href="#DejaVuSans-8722"/>
       <use x="83.789062" xlink:href="#DejaVuSans-51"/>
      </g>
     </g>
    </g>
    <g id="xtick_2">
     <g id="line2d_2">
      <g>
       <use style="stroke:#000000;stroke-width:0.8;" x="119.3097" xlink:href="#m04c0b190a5" y="307.584"/>
      </g>
     </g>
     <g id="text_2">
      <!-- −2 -->
      <defs>
       <path d="M 19.1875 8.296875 
L 53.609375 8.296875 
L 53.609375 0 
L 7.328125 0 
L 7.328125 8.296875 
Q 12.9375 14.109375 22.625 23.890625 
Q 32.328125 33.6875 34.8125 36.53125 
Q 39.546875 41.84375 41.421875 45.53125 
Q 43.3125 49.21875 43.3125 52.78125 
Q 43.3125 58.59375 39.234375 62.25 
Q 35.15625 65.921875 28.609375 65.921875 
Q 23.96875 65.921875 18.8125 64.3125 
Q 13.671875 62.703125 7.8125 59.421875 
L 7.8125 69.390625 
Q 13.765625 71.78125 18.9375 73 
Q 24.125 74.21875 28.421875 74.21875 
Q 39.75 74.21875 46.484375 68.546875 
Q 53.21875 62.890625 53.21875 53.421875 
Q 53.21875 48.921875 51.53125 44.890625 
Q 49.859375 40.875 45.40625 35.40625 
Q 44.1875 33.984375 37.640625 27.21875 
Q 31.109375 20.453125 19.1875 8.296875 
z
" id="DejaVuSans-50"/>
      </defs>
      <g transform="translate(106.778841 327.501344)scale(0.17 -0.17)">
       <use xlink:href="#DejaVuSans-8722"/>
       <use x="83.789062" xlink:href="#DejaVuSans-50"/>
      </g>
     </g>
    </g>
    <g id="xtick_3">
     <g id="line2d_3">
      <g>
       <use style="stroke:#000000;stroke-width:0.8;" x="175.515592" xlink:href="#m04c0b190a5" y="307.584"/>
      </g>
     </g>
     <g id="text_3">
      <!-- −1 -->
      <defs>
       <path d="M 12.40625 8.296875 
L 28.515625 8.296875 
L 28.515625 63.921875 
L 10.984375 60.40625 
L 10.984375 69.390625 
L 28.421875 72.90625 
L 38.28125 72.90625 
L 38.28125 8.296875 
L 54.390625 8.296875 
L 54.390625 0 
L 12.40625 0 
z
" id="DejaVuSans-49"/>
      </defs>
      <g transform="translate(162.984732 327.501344)scale(0.17 -0.17)">
       <use xlink:href="#DejaVuSans-8722"/>
       <use x="83.789062" xlink:href="#DejaVuSans-49"/>
      </g>
     </g>
    </g>
    <g id="xtick_4">
     <g id="line2d_4">
      <g>
       <use style="stroke:#000000;stroke-width:0.8;" x="231.721484" xlink:href="#m04c0b190a5" y="307.584"/>
      </g>
     </g>
     <g id="text_4">
      <!-- 0 -->
      <defs>
       <path d="M 31.78125 66.40625 
Q 24.171875 66.40625 20.328125 58.90625 
Q 16.5 51.421875 16.5 36.375 
Q 16.5 21.390625 20.328125 13.890625 
Q 24.171875 6.390625 31.78125 6.390625 
Q 39.453125 6.390625 43.28125 13.890625 
Q 47.125 21.390625 47.125 36.375 
Q 47.125 51.421875 43.28125 58.90625 
Q 39.453125 66.40625 31.78125 66.40625 
z
M 31.78125 74.21875 
Q 44.046875 74.21875 50.515625 64.515625 
Q 56.984375 54.828125 56.984375 36.375 
Q 56.984375 17.96875 50.515625 8.265625 
Q 44.046875 -1.421875 31.78125 -1.421875 
Q 19.53125 -1.421875 13.0625 8.265625 
Q 6.59375 17.96875 6.59375 36.375 
Q 6.59375 54.828125 13.0625 64.515625 
Q 19.53125 74.21875 31.78125 74.21875 
z
" id="DejaVuSans-48"/>
      </defs>
      <g transform="translate(226.313359 327.501344)scale(0.17 -0.17)">
       <use xlink:href="#DejaVuSans-48"/>
      </g>
     </g>
    </g>
    <g id="xtick_5">
     <g id="line2d_5">
      <g>
       <use style="stroke:#000000;stroke-width:0.8;" x="287.927375" xlink:href="#m04c0b190a5" y="307.584"/>
      </g>
     </g>
     <g id="text_5">
      <!-- 1 -->
      <g transform="translate(282.51925 327.501344)scale(0.17 -0.17)">
       <use xlink:href="#DejaVuSans-49"/>
      </g>
     </g>
    </g>
    <g id="xtick_6">
     <g id="line2d_6">
      <g>
       <use style="stroke:#000000;stroke-width:0.8;" x="344.133267" xlink:href="#m04c0b190a5" y="307.584"/>
      </g>
     </g>
     <g id="text_6">
      <!-- 2 -->
      <g transform="translate(338.725142 327.501344)scale(0.17 -0.17)">
       <use xlink:href="#DejaVuSans-50"/>
      </g>
     </g>
    </g>
    <g id="xtick_7">
     <g id="line2d_7">
      <g>
       <use style="stroke:#000000;stroke-width:0.8;" x="400.339159" xlink:href="#m04c0b190a5" y="307.584"/>
      </g>
     </g>
     <g id="text_7">
      <!-- 3 -->
      <g transform="translate(394.931034 327.501344)scale(0.17 -0.17)">
       <use xlink:href="#DejaVuSans-51"/>
      </g>
     </g>
    </g>
    <g id="text_8">
     <!-- Position in Radian -->
     <defs>
      <path d="M 19.671875 64.796875 
L 19.671875 37.40625 
L 32.078125 37.40625 
Q 38.96875 37.40625 42.71875 40.96875 
Q 46.484375 44.53125 46.484375 51.125 
Q 46.484375 57.671875 42.71875 61.234375 
Q 38.96875 64.796875 32.078125 64.796875 
z
M 9.8125 72.90625 
L 32.078125 72.90625 
Q 44.34375 72.90625 50.609375 67.359375 
Q 56.890625 61.8125 56.890625 51.125 
Q 56.890625 40.328125 50.609375 34.8125 
Q 44.34375 29.296875 32.078125 29.296875 
L 19.671875 29.296875 
L 19.671875 0 
L 9.8125 0 
z
" id="DejaVuSans-80"/>
      <path d="M 30.609375 48.390625 
Q 23.390625 48.390625 19.1875 42.75 
Q 14.984375 37.109375 14.984375 27.296875 
Q 14.984375 17.484375 19.15625 11.84375 
Q 23.34375 6.203125 30.609375 6.203125 
Q 37.796875 6.203125 41.984375 11.859375 
Q 46.1875 17.53125 46.1875 27.296875 
Q 46.1875 37.015625 41.984375 42.703125 
Q 37.796875 48.390625 30.609375 48.390625 
z
M 30.609375 56 
Q 42.328125 56 49.015625 48.375 
Q 55.71875 40.765625 55.71875 27.296875 
Q 55.71875 13.875 49.015625 6.21875 
Q 42.328125 -1.421875 30.609375 -1.421875 
Q 18.84375 -1.421875 12.171875 6.21875 
Q 5.515625 13.875 5.515625 27.296875 
Q 5.515625 40.765625 12.171875 48.375 
Q 18.84375 56 30.609375 56 
z
" id="DejaVuSans-111"/>
      <path d="M 44.28125 53.078125 
L 44.28125 44.578125 
Q 40.484375 46.53125 36.375 47.5 
Q 32.28125 48.484375 27.875 48.484375 
Q 21.1875 48.484375 17.84375 46.4375 
Q 14.5 44.390625 14.5 40.28125 
Q 14.5 37.15625 16.890625 35.375 
Q 19.28125 33.59375 26.515625 31.984375 
L 29.59375 31.296875 
Q 39.15625 29.25 43.1875 25.515625 
Q 47.21875 21.78125 47.21875 15.09375 
Q 47.21875 7.46875 41.1875 3.015625 
Q 35.15625 -1.421875 24.609375 -1.421875 
Q 20.21875 -1.421875 15.453125 -0.5625 
Q 10.6875 0.296875 5.421875 2 
L 5.421875 11.28125 
Q 10.40625 8.6875 15.234375 7.390625 
Q 20.0625 6.109375 24.8125 6.109375 
Q 31.15625 6.109375 34.5625 8.28125 
Q 37.984375 10.453125 37.984375 14.40625 
Q 37.984375 18.0625 35.515625 20.015625 
Q 33.0625 21.96875 24.703125 23.78125 
L 21.578125 24.515625 
Q 13.234375 26.265625 9.515625 29.90625 
Q 5.8125 33.546875 5.8125 39.890625 
Q 5.8125 47.609375 11.28125 51.796875 
Q 16.75 56 26.8125 56 
Q 31.78125 56 36.171875 55.265625 
Q 40.578125 54.546875 44.28125 53.078125 
z
" id="DejaVuSans-115"/>
      <path d="M 9.421875 54.6875 
L 18.40625 54.6875 
L 18.40625 0 
L 9.421875 0 
z
M 9.421875 75.984375 
L 18.40625 75.984375 
L 18.40625 64.59375 
L 9.421875 64.59375 
z
" id="DejaVuSans-105"/>
      <path d="M 18.3125 70.21875 
L 18.3125 54.6875 
L 36.8125 54.6875 
L 36.8125 47.703125 
L 18.3125 47.703125 
L 18.3125 18.015625 
Q 18.3125 11.328125 20.140625 9.421875 
Q 21.96875 7.515625 27.59375 7.515625 
L 36.8125 7.515625 
L 36.8125 0 
L 27.59375 0 
Q 17.1875 0 13.234375 3.875 
Q 9.28125 7.765625 9.28125 18.015625 
L 9.28125 47.703125 
L 2.6875 47.703125 
L 2.6875 54.6875 
L 9.28125 54.6875 
L 9.28125 70.21875 
z
" id="DejaVuSans-116"/>
      <path d="M 54.890625 33.015625 
L 54.890625 0 
L 45.90625 0 
L 45.90625 32.71875 
Q 45.90625 40.484375 42.875 44.328125 
Q 39.84375 48.1875 33.796875 48.1875 
Q 26.515625 48.1875 22.3125 43.546875 
Q 18.109375 38.921875 18.109375 30.90625 
L 18.109375 0 
L 9.078125 0 
L 9.078125 54.6875 
L 18.109375 54.6875 
L 18.109375 46.1875 
Q 21.34375 51.125 25.703125 53.5625 
Q 30.078125 56 35.796875 56 
Q 45.21875 56 50.046875 50.171875 
Q 54.890625 44.34375 54.890625 33.015625 
z
" id="DejaVuSans-110"/>
      <path id="DejaVuSans-32"/>
      <path d="M 44.390625 34.1875 
Q 47.5625 33.109375 50.5625 29.59375 
Q 53.5625 26.078125 56.59375 19.921875 
L 66.609375 0 
L 56 0 
L 46.6875 18.703125 
Q 43.0625 26.03125 39.671875 28.421875 
Q 36.28125 30.8125 30.421875 30.8125 
L 19.671875 30.8125 
L 19.671875 0 
L 9.8125 0 
L 9.8125 72.90625 
L 32.078125 72.90625 
Q 44.578125 72.90625 50.734375 67.671875 
Q 56.890625 62.453125 56.890625 51.90625 
Q 56.890625 45.015625 53.6875 40.46875 
Q 50.484375 35.9375 44.390625 34.1875 
z
M 19.671875 64.796875 
L 19.671875 38.921875 
L 32.078125 38.921875 
Q 39.203125 38.921875 42.84375 42.21875 
Q 46.484375 45.515625 46.484375 51.90625 
Q 46.484375 58.296875 42.84375 61.546875 
Q 39.203125 64.796875 32.078125 64.796875 
z
" id="DejaVuSans-82"/>
      <path d="M 34.28125 27.484375 
Q 23.390625 27.484375 19.1875 25 
Q 14.984375 22.515625 14.984375 16.5 
Q 14.984375 11.71875 18.140625 8.90625 
Q 21.296875 6.109375 26.703125 6.109375 
Q 34.1875 6.109375 38.703125 11.40625 
Q 43.21875 16.703125 43.21875 25.484375 
L 43.21875 27.484375 
z
M 52.203125 31.203125 
L 52.203125 0 
L 43.21875 0 
L 43.21875 8.296875 
Q 40.140625 3.328125 35.546875 0.953125 
Q 30.953125 -1.421875 24.3125 -1.421875 
Q 15.921875 -1.421875 10.953125 3.296875 
Q 6 8.015625 6 15.921875 
Q 6 25.140625 12.171875 29.828125 
Q 18.359375 34.515625 30.609375 34.515625 
L 43.21875 34.515625 
L 43.21875 35.40625 
Q 43.21875 41.609375 39.140625 45 
Q 35.0625 48.390625 27.6875 48.390625 
Q 23 48.390625 18.546875 47.265625 
Q 14.109375 46.140625 10.015625 43.890625 
L 10.015625 52.203125 
Q 14.9375 54.109375 19.578125 55.046875 
Q 24.21875 56 28.609375 56 
Q 40.484375 56 46.34375 49.84375 
Q 52.203125 43.703125 52.203125 31.203125 
z
" id="DejaVuSans-97"/>
      <path d="M 45.40625 46.390625 
L 45.40625 75.984375 
L 54.390625 75.984375 
L 54.390625 0 
L 45.40625 0 
L 45.40625 8.203125 
Q 42.578125 3.328125 38.25 0.953125 
Q 33.9375 -1.421875 27.875 -1.421875 
Q 17.96875 -1.421875 11.734375 6.484375 
Q 5.515625 14.40625 5.515625 27.296875 
Q 5.515625 40.1875 11.734375 48.09375 
Q 17.96875 56 27.875 56 
Q 33.9375 56 38.25 53.625 
Q 42.578125 51.265625 45.40625 46.390625 
z
M 14.796875 27.296875 
Q 14.796875 17.390625 18.875 11.75 
Q 22.953125 6.109375 30.078125 6.109375 
Q 37.203125 6.109375 41.296875 11.75 
Q 45.40625 17.390625 45.40625 27.296875 
Q 45.40625 37.203125 41.296875 42.84375 
Q 37.203125 48.484375 30.078125 48.484375 
Q 22.953125 48.484375 18.875 42.84375 
Q 14.796875 37.203125 14.796875 27.296875 
z
" id="DejaVuSans-100"/>
     </defs>
     <g transform="translate(102.024844 357.832125)scale(0.3 -0.3)">
      <use xlink:href="#DejaVuSans-80"/>
      <use x="60.255859" xlink:href="#DejaVuSans-111"/>
      <use x="121.4375" xlink:href="#DejaVuSans-115"/>
      <use x="173.537109" xlink:href="#DejaVuSans-105"/>
      <use x="201.320312" xlink:href="#DejaVuSans-116"/>
      <use x="240.529297" xlink:href="#DejaVuSans-105"/>
      <use x="268.3125" xlink:href="#DejaVuSans-111"/>
      <use x="329.494141" xlink:href="#DejaVuSans-110"/>
      <use x="392.873047" xlink:href="#DejaVuSans-32"/>
      <use x="424.660156" xlink:href="#DejaVuSans-105"/>
      <use x="452.443359" xlink:href="#DejaVuSans-110"/>
      <use x="515.822266" xlink:href="#DejaVuSans-32"/>
      <use x="547.609375" xlink:href="#DejaVuSans-82"/>
      <use x="617.060547" xlink:href="#DejaVuSans-97"/>
      <use x="678.339844" xlink:href="#DejaVuSans-100"/>
      <use x="741.816406" xlink:href="#DejaVuSans-105"/>
      <use x="769.599609" xlink:href="#DejaVuSans-97"/>
      <use x="830.878906" xlink:href="#DejaVuSans-110"/>
     </g>
    </g>
   </g>
   <g id="matplotlib.axis_2">
    <g id="ytick_1">
     <g id="line2d_8">
      <defs>
       <path d="M 0 0 
L -3.5 0 
" id="md0340f8c8a" style="stroke:#000000;stroke-width:0.8;"/>
      </defs>
      <g>
       <use style="stroke:#000000;stroke-width:0.8;" x="57.6" xlink:href="#md0340f8c8a" y="307.584"/>
      </g>
     </g>
     <g id="text_9">
      <!-- 0.0 -->
      <defs>
       <path d="M 10.6875 12.40625 
L 21 12.40625 
L 21 0 
L 10.6875 0 
z
" id="DejaVuSans-46"/>
      </defs>
      <g transform="translate(23.564687 314.042672)scale(0.17 -0.17)">
       <use xlink:href="#DejaVuSans-48"/>
       <use x="63.623047" xlink:href="#DejaVuSans-46"/>
       <use x="95.410156" xlink:href="#DejaVuSans-48"/>
      </g>
     </g>
    </g>
    <g id="ytick_2">
     <g id="line2d_9">
      <g>
       <use style="stroke:#000000;stroke-width:0.8;" x="57.6" xlink:href="#md0340f8c8a" y="268.167195"/>
      </g>
     </g>
     <g id="text_10">
      <!-- 0.2 -->
      <g transform="translate(23.564687 274.625866)scale(0.17 -0.17)">
       <use xlink:href="#DejaVuSans-48"/>
       <use x="63.623047" xlink:href="#DejaVuSans-46"/>
       <use x="95.410156" xlink:href="#DejaVuSans-50"/>
      </g>
     </g>
    </g>
    <g id="ytick_3">
     <g id="line2d_10">
      <g>
       <use style="stroke:#000000;stroke-width:0.8;" x="57.6" xlink:href="#md0340f8c8a" y="228.750389"/>
      </g>
     </g>
     <g id="text_11">
      <!-- 0.4 -->
      <defs>
       <path d="M 37.796875 64.3125 
L 12.890625 25.390625 
L 37.796875 25.390625 
z
M 35.203125 72.90625 
L 47.609375 72.90625 
L 47.609375 25.390625 
L 58.015625 25.390625 
L 58.015625 17.1875 
L 47.609375 17.1875 
L 47.609375 0 
L 37.796875 0 
L 37.796875 17.1875 
L 4.890625 17.1875 
L 4.890625 26.703125 
z
" id="DejaVuSans-52"/>
      </defs>
      <g transform="translate(23.564687 235.209061)scale(0.17 -0.17)">
       <use xlink:href="#DejaVuSans-48"/>
       <use x="63.623047" xlink:href="#DejaVuSans-46"/>
       <use x="95.410156" xlink:href="#DejaVuSans-52"/>
      </g>
     </g>
    </g>
    <g id="ytick_4">
     <g id="line2d_11">
      <g>
       <use style="stroke:#000000;stroke-width:0.8;" x="57.6" xlink:href="#md0340f8c8a" y="189.333584"/>
      </g>
     </g>
     <g id="text_12">
      <!-- 0.6 -->
      <defs>
       <path d="M 33.015625 40.375 
Q 26.375 40.375 22.484375 35.828125 
Q 18.609375 31.296875 18.609375 23.390625 
Q 18.609375 15.53125 22.484375 10.953125 
Q 26.375 6.390625 33.015625 6.390625 
Q 39.65625 6.390625 43.53125 10.953125 
Q 47.40625 15.53125 47.40625 23.390625 
Q 47.40625 31.296875 43.53125 35.828125 
Q 39.65625 40.375 33.015625 40.375 
z
M 52.59375 71.296875 
L 52.59375 62.3125 
Q 48.875 64.0625 45.09375 64.984375 
Q 41.3125 65.921875 37.59375 65.921875 
Q 27.828125 65.921875 22.671875 59.328125 
Q 17.53125 52.734375 16.796875 39.40625 
Q 19.671875 43.65625 24.015625 45.921875 
Q 28.375 48.1875 33.59375 48.1875 
Q 44.578125 48.1875 50.953125 41.515625 
Q 57.328125 34.859375 57.328125 23.390625 
Q 57.328125 12.15625 50.6875 5.359375 
Q 44.046875 -1.421875 33.015625 -1.421875 
Q 20.359375 -1.421875 13.671875 8.265625 
Q 6.984375 17.96875 6.984375 36.375 
Q 6.984375 53.65625 15.1875 63.9375 
Q 23.390625 74.21875 37.203125 74.21875 
Q 40.921875 74.21875 44.703125 73.484375 
Q 48.484375 72.75 52.59375 71.296875 
z
" id="DejaVuSans-54"/>
      </defs>
      <g transform="translate(23.564687 195.792255)scale(0.17 -0.17)">
       <use xlink:href="#DejaVuSans-48"/>
       <use x="63.623047" xlink:href="#DejaVuSans-46"/>
       <use x="95.410156" xlink:href="#DejaVuSans-54"/>
      </g>
     </g>
    </g>
    <g id="ytick_5">
     <g id="line2d_12">
      <g>
       <use style="stroke:#000000;stroke-width:0.8;" x="57.6" xlink:href="#md0340f8c8a" y="149.916778"/>
      </g>
     </g>
     <g id="text_13">
      <!-- 0.8 -->
      <defs>
       <path d="M 31.78125 34.625 
Q 24.75 34.625 20.71875 30.859375 
Q 16.703125 27.09375 16.703125 20.515625 
Q 16.703125 13.921875 20.71875 10.15625 
Q 24.75 6.390625 31.78125 6.390625 
Q 38.8125 6.390625 42.859375 10.171875 
Q 46.921875 13.96875 46.921875 20.515625 
Q 46.921875 27.09375 42.890625 30.859375 
Q 38.875 34.625 31.78125 34.625 
z
M 21.921875 38.8125 
Q 15.578125 40.375 12.03125 44.71875 
Q 8.5 49.078125 8.5 55.328125 
Q 8.5 64.0625 14.71875 69.140625 
Q 20.953125 74.21875 31.78125 74.21875 
Q 42.671875 74.21875 48.875 69.140625 
Q 55.078125 64.0625 55.078125 55.328125 
Q 55.078125 49.078125 51.53125 44.71875 
Q 48 40.375 41.703125 38.8125 
Q 48.828125 37.15625 52.796875 32.3125 
Q 56.78125 27.484375 56.78125 20.515625 
Q 56.78125 9.90625 50.3125 4.234375 
Q 43.84375 -1.421875 31.78125 -1.421875 
Q 19.734375 -1.421875 13.25 4.234375 
Q 6.78125 9.90625 6.78125 20.515625 
Q 6.78125 27.484375 10.78125 32.3125 
Q 14.796875 37.15625 21.921875 38.8125 
z
M 18.3125 54.390625 
Q 18.3125 48.734375 21.84375 45.5625 
Q 25.390625 42.390625 31.78125 42.390625 
Q 38.140625 42.390625 41.71875 45.5625 
Q 45.3125 48.734375 45.3125 54.390625 
Q 45.3125 60.0625 41.71875 63.234375 
Q 38.140625 66.40625 31.78125 66.40625 
Q 25.390625 66.40625 21.84375 63.234375 
Q 18.3125 60.0625 18.3125 54.390625 
z
" id="DejaVuSans-56"/>
      </defs>
      <g transform="translate(23.564687 156.37545)scale(0.17 -0.17)">
       <use xlink:href="#DejaVuSans-48"/>
       <use x="63.623047" xlink:href="#DejaVuSans-46"/>
       <use x="95.410156" xlink:href="#DejaVuSans-56"/>
      </g>
     </g>
    </g>
    <g id="ytick_6">
     <g id="line2d_13">
      <g>
       <use style="stroke:#000000;stroke-width:0.8;" x="57.6" xlink:href="#md0340f8c8a" y="110.499973"/>
      </g>
     </g>
     <g id="text_14">
      <!-- 1.0 -->
      <g transform="translate(23.564687 116.958644)scale(0.17 -0.17)">
       <use xlink:href="#DejaVuSans-49"/>
       <use x="63.623047" xlink:href="#DejaVuSans-46"/>
       <use x="95.410156" xlink:href="#DejaVuSans-48"/>
      </g>
     </g>
    </g>
    <g id="ytick_7">
     <g id="line2d_14">
      <g>
       <use style="stroke:#000000;stroke-width:0.8;" x="57.6" xlink:href="#md0340f8c8a" y="71.083167"/>
      </g>
     </g>
     <g id="text_15">
      <!-- 1.2 -->
      <g transform="translate(23.564687 77.541839)scale(0.17 -0.17)">
       <use xlink:href="#DejaVuSans-49"/>
       <use x="63.623047" xlink:href="#DejaVuSans-46"/>
       <use x="95.410156" xlink:href="#DejaVuSans-50"/>
      </g>
     </g>
    </g>
    <g id="text_16">
     <!-- Density -->
     <defs>
      <path d="M 19.671875 64.796875 
L 19.671875 8.109375 
L 31.59375 8.109375 
Q 46.6875 8.109375 53.6875 14.9375 
Q 60.6875 21.78125 60.6875 36.53125 
Q 60.6875 51.171875 53.6875 57.984375 
Q 46.6875 64.796875 31.59375 64.796875 
z
M 9.8125 72.90625 
L 30.078125 72.90625 
Q 51.265625 72.90625 61.171875 64.09375 
Q 71.09375 55.28125 71.09375 36.53125 
Q 71.09375 17.671875 61.125 8.828125 
Q 51.171875 0 30.078125 0 
L 9.8125 0 
z
" id="DejaVuSans-68"/>
      <path d="M 56.203125 29.59375 
L 56.203125 25.203125 
L 14.890625 25.203125 
Q 15.484375 15.921875 20.484375 11.0625 
Q 25.484375 6.203125 34.421875 6.203125 
Q 39.59375 6.203125 44.453125 7.46875 
Q 49.3125 8.734375 54.109375 11.28125 
L 54.109375 2.78125 
Q 49.265625 0.734375 44.1875 -0.34375 
Q 39.109375 -1.421875 33.890625 -1.421875 
Q 20.796875 -1.421875 13.15625 6.1875 
Q 5.515625 13.8125 5.515625 26.8125 
Q 5.515625 40.234375 12.765625 48.109375 
Q 20.015625 56 32.328125 56 
Q 43.359375 56 49.78125 48.890625 
Q 56.203125 41.796875 56.203125 29.59375 
z
M 47.21875 32.234375 
Q 47.125 39.59375 43.09375 43.984375 
Q 39.0625 48.390625 32.421875 48.390625 
Q 24.90625 48.390625 20.390625 44.140625 
Q 15.875 39.890625 15.1875 32.171875 
z
" id="DejaVuSans-101"/>
      <path d="M 32.171875 -5.078125 
Q 28.375 -14.84375 24.75 -17.8125 
Q 21.140625 -20.796875 15.09375 -20.796875 
L 7.90625 -20.796875 
L 7.90625 -13.28125 
L 13.1875 -13.28125 
Q 16.890625 -13.28125 18.9375 -11.515625 
Q 21 -9.765625 23.484375 -3.21875 
L 25.09375 0.875 
L 2.984375 54.6875 
L 12.5 54.6875 
L 29.59375 11.921875 
L 46.6875 54.6875 
L 56.203125 54.6875 
z
" id="DejaVuSans-121"/>
     </defs>
     <g transform="translate(13.325625 231.553781)rotate(-90)scale(0.3 -0.3)">
      <use xlink:href="#DejaVuSans-68"/>
      <use x="77.001953" xlink:href="#DejaVuSans-101"/>
      <use x="138.525391" xlink:href="#DejaVuSans-110"/>
      <use x="201.904297" xlink:href="#DejaVuSans-115"/>
      <use x="254.003906" xlink:href="#DejaVuSans-105"/>
      <use x="281.787109" xlink:href="#DejaVuSans-116"/>
      <use x="320.996094" xlink:href="#DejaVuSans-121"/>
     </g>
    </g>
   </g>
   <g id="line2d_15">
    <path clip-path="url(#pfe60db094d)" d="M 91.206754 306.315075 
L 92.049843 305.808843 
L 92.330872 305.968974 
L 92.787545 306.562119 
L 93.272321 307.059229 
L 93.55335 307.063737 
L 93.855457 306.818811 
L 94.761777 305.948886 
L 95.099012 306.036011 
L 95.639994 306.176188 
L 96.005332 305.982389 
L 96.532262 305.737633 
L 97.824998 305.554304 
L 98.401108 305.365039 
L 98.682138 305.523513 
L 99.054502 306.038377 
L 99.89759 307.238477 
L 100.248877 307.367258 
L 100.550984 307.245113 
L 100.909296 306.828154 
L 101.675101 305.884514 
L 101.921002 305.934538 
L 102.23716 306.277712 
L 102.890554 307.001604 
L 103.178609 306.987624 
L 103.57205 306.693912 
L 104.155186 306.311902 
L 104.520525 306.347699 
L 105.363613 306.528657 
L 106.283985 306.448113 
L 106.62122 306.362398 
L 106.923327 306.013383 
L 107.52754 305.286062 
L 107.731286 305.380951 
L 108.026367 305.830843 
L 108.686786 306.837596 
L 109.080228 307.024814 
L 109.43854 306.960701 
L 109.888187 306.611496 
L 110.415118 306.281075 
L 110.82261 306.305213 
L 111.981857 306.495449 
L 112.298015 306.312714 
L 112.593096 305.84549 
L 113.611828 303.906477 
L 113.808548 304.104709 
L 114.152809 304.847136 
L 114.7781 306.115891 
L 115.122361 306.344484 
L 115.58606 306.340479 
L 116.506431 306.131738 
L 117.082542 305.67955 
L 117.54624 305.425445 
L 117.848347 305.517824 
L 118.607126 305.877204 
L 118.853027 305.644108 
L 119.197288 304.952352 
L 120.033351 303.165584 
L 120.286277 303.112609 
L 120.651616 303.334531 
L 121.080186 303.495144 
L 121.663322 303.649252 
L 122.070814 304.100368 
L 122.98416 305.143249 
L 123.391653 305.270019 
L 123.806171 305.154781 
L 124.508745 304.672096 
L 124.951366 304.505847 
L 125.27455 304.630937 
L 125.850661 304.885703 
L 126.110613 304.709446 
L 126.60944 304.007361 
L 127.101242 303.487046 
L 127.354168 303.495588 
L 127.593043 303.767744 
L 128.007562 304.682409 
L 128.401003 305.319744 
L 128.597724 305.313339 
L 128.808496 305.040778 
L 129.18086 304.108728 
L 129.813176 302.629039 
L 130.192566 302.282272 
L 130.733548 302.12323 
L 131.098886 302.209402 
L 131.436121 302.549417 
L 132.300287 303.53351 
L 132.609419 303.504354 
L 133.241735 303.121257 
L 133.986464 302.609095 
L 134.309647 301.894198 
L 134.991144 300.327253 
L 135.180839 300.343316 
L 135.398637 300.64741 
L 136.326034 302.207648 
L 136.642192 302.204234 
L 137.38692 301.872328 
L 137.906824 301.486286 
L 138.827196 300.640086 
L 139.052019 300.904084 
L 139.740542 301.863712 
L 139.972391 301.736988 
L 140.492295 301.408866 
L 140.808454 301.56275 
L 141.131637 301.638673 
L 141.356461 301.438483 
L 142.333038 300.258403 
L 142.761608 300.174963 
L 143.042638 299.801906 
L 143.773314 298.722197 
L 144.06137 298.732322 
L 144.602351 298.78758 
L 144.897432 298.542895 
L 145.311951 297.855919 
L 146.710072 294.876924 
L 147.131616 294.117086 
L 147.314286 294.132669 
L 147.489929 294.437124 
L 147.756907 295.448915 
L 148.677278 299.400441 
L 148.888051 299.470996 
L 149.112874 299.259328 
L 149.970014 298.26542 
L 150.251043 298.39766 
L 150.679613 298.571788 
L 150.953617 298.394952 
L 151.354084 298.170265 
L 151.543779 298.334073 
L 151.83886 298.967082 
L 152.31661 299.90266 
L 152.513331 299.903576 
L 152.738154 299.620093 
L 154.368125 296.509174 
L 155.18311 294.656043 
L 155.457114 294.568176 
L 155.962967 294.486309 
L 156.307228 294.081773 
L 156.94657 293.351892 
L 157.206523 293.356 
L 157.445398 293.611073 
L 158.204177 294.728445 
L 158.246332 294.693917 
L 158.421975 294.354082 
L 158.724082 293.159983 
L 159.356398 290.694149 
L 159.71471 290.184323 
L 160.206512 289.510941 
L 160.649133 288.95419 
L 160.810725 289.035372 
L 161.007446 289.446357 
L 161.37981 290.89545 
L 161.745148 291.946286 
L 161.885663 291.927834 
L 162.040229 291.57314 
L 162.314233 290.254465 
L 162.953575 287.161777 
L 163.185424 286.917386 
L 163.347016 287.036723 
L 163.628046 287.610214 
L 164.042564 288.337484 
L 164.190105 288.267558 
L 164.379799 287.835226 
L 164.801344 286.098275 
L 165.166682 285.075642 
L 165.370428 285.001365 
L 165.560123 285.218949 
L 165.855204 285.966728 
L 166.649112 288.275276 
L 166.677215 288.258858 
L 166.803679 288.012756 
L 167.007425 287.01921 
L 167.485175 283.142818 
L 167.878616 280.949795 
L 168.138568 280.501103 
L 168.321238 280.53267 
L 168.553087 280.857492 
L 169.002734 281.990182 
L 169.332944 282.522996 
L 169.501561 282.473296 
L 169.754488 282.074372 
L 170.077672 281.702076 
L 170.225212 281.83233 
L 170.44301 282.422239 
L 171.096404 284.353177 
L 171.236918 284.288303 
L 171.433639 283.862114 
L 171.841132 282.282032 
L 172.529654 279.836542 
L 172.845812 279.378119 
L 173.049558 279.403912 
L 173.400845 279.7759 
L 173.681875 279.910988 
L 173.885621 279.754492 
L 174.173676 279.187825 
L 174.581169 277.833099 
L 175.459386 274.745803 
L 175.78257 274.455343 
L 176.176011 274.125358 
L 176.442989 273.512754 
L 176.808327 272.007716 
L 177.384438 269.740104 
L 177.574133 269.650459 
L 177.770853 269.890257 
L 178.058908 270.155635 
L 178.185372 269.951329 
L 178.375067 269.086713 
L 178.831739 265.475138 
L 179.091692 264.478799 
L 179.176 264.559945 
L 179.316515 265.16328 
L 179.576467 267.516315 
L 180.201758 273.243062 
L 180.342273 273.452103 
L 180.370376 273.431992 
L 180.489813 273.129612 
L 180.707611 271.816224 
L 181.642034 265.353019 
L 181.761471 265.395932 
L 181.923063 265.807529 
L 182.288402 267.543803 
L 182.787229 269.535682 
L 183.047181 269.861126 
L 183.201747 269.77186 
L 183.419545 269.308824 
L 184.4172 266.748194 
L 184.691204 266.119615 
L 184.99331 264.729317 
L 186.047171 259.239705 
L 186.27902 259.036616 
L 186.440612 259.17732 
L 186.693538 259.780768 
L 187.220469 261.030402 
L 187.339906 260.943765 
L 187.501498 260.459578 
L 187.76145 258.822072 
L 188.499153 253.816384 
L 188.597513 253.791419 
L 188.625616 253.824029 
L 188.766131 254.240923 
L 189.012032 255.827384 
L 189.981583 262.892867 
L 190.101021 262.939124 
L 190.129124 262.912851 
L 190.276664 262.557601 
L 190.536616 261.211195 
L 191.730992 254.146291 
L 191.871506 254.128679 
L 191.878532 254.135574 
L 192.033098 254.463233 
L 192.328179 255.758531 
L 192.812955 257.660144 
L 193.009676 257.790535 
L 193.157216 257.603381 
L 193.38204 256.883669 
L 193.726301 254.915917 
L 194.576415 249.758045 
L 194.695852 249.695799 
L 194.723955 249.719862 
L 194.857444 250.037333 
L 195.082268 251.271119 
L 195.925356 256.579077 
L 195.932382 256.57727 
L 196.037768 256.413888 
L 196.220437 255.575076 
L 196.585775 252.558384 
L 197.189989 247.961933 
L 197.478044 247.156695 
L 197.653687 247.13805 
L 197.857434 247.425511 
L 198.405441 248.254483 
L 198.567033 248.14806 
L 198.784831 247.661241 
L 199.164221 246.136292 
L 200.098644 242.28223 
L 200.393725 241.890995 
L 200.597471 241.925541 
L 200.885526 242.257259 
L 201.377328 242.776982 
L 201.574048 242.697572 
L 201.78482 242.313948 
L 202.06585 241.260385 
L 202.831655 238.080916 
L 202.838681 238.082922 
L 202.951093 238.251419 
L 203.133762 239.058243 
L 203.527203 242.137328 
L 203.906593 244.336494 
L 204.075211 244.529462 
L 204.089262 244.522392 
L 204.215725 244.313973 
L 204.447575 243.395885 
L 205.150148 239.277287 
L 206.281292 232.999066 
L 206.414781 233.031046 
L 206.576373 233.427376 
L 206.857402 234.847401 
L 207.890185 240.62769 
L 207.995571 240.568532 
L 208.136086 240.111491 
L 208.381987 238.371961 
L 209.077535 233.144899 
L 209.449899 232.328616 
L 209.716877 231.421462 
L 210.300013 229.325715 
L 210.412425 229.423355 
L 210.595094 229.999773 
L 211.17823 232.025935 
L 211.290642 231.907617 
L 211.480337 231.267863 
L 212.161833 228.693871 
L 212.344502 228.710116 
L 212.773072 228.856066 
L 212.969793 228.562252 
L 213.257848 227.642946 
L 213.679392 225.430206 
L 214.269554 222.510357 
L 214.536532 222.144617 
L 214.986179 221.766346 
L 215.492032 221.130827 
L 215.639573 221.347059 
L 215.871422 222.1858 
L 216.461584 224.395131 
L 216.588047 224.352283 
L 216.749639 223.940521 
L 217.04472 222.42441 
L 217.627856 219.546613 
L 217.85268 219.295883 
L 218.014272 219.423429 
L 218.463919 219.944387 
L 218.492022 219.916251 
L 218.632536 219.553363 
L 218.843309 218.24892 
L 219.503728 213.504887 
L 219.524805 213.517284 
L 219.623165 213.781334 
L 219.81286 215.140576 
L 220.52246 220.934383 
L 220.613794 220.867751 
L 220.754309 220.330703 
L 221.035338 218.151862 
L 221.716835 212.861452 
L 221.969761 212.288534 
L 222.110276 212.347188 
L 222.306997 212.777242 
L 222.876081 214.110488 
L 222.995519 213.970508 
L 223.171162 213.328311 
L 223.452192 211.27563 
L 224.39364 203.687572 
L 224.758979 202.655011 
L 224.955699 202.564536 
L 225.096214 202.793339 
L 225.328063 203.705354 
L 225.770685 205.37301 
L 225.862019 205.284133 
L 226.002534 204.699188 
L 226.241409 202.545658 
L 226.733211 195.576734 
L 227.232038 185.780322 
L 227.948663 171.288921 
L 228.047023 170.983665 
L 228.096204 171.056413 
L 228.208615 171.755185 
L 228.433439 174.92068 
L 229.40299 190.285731 
L 230.21095 198.787906 
L 230.246079 198.729042 
L 230.337413 198.017166 
L 230.484954 194.57431 
L 230.681675 183.729761 
L 230.948653 154.426139 
L 231.749586 54.144 
L 231.763638 54.198617 
L 231.82687 55.645842 
L 231.967384 65.471786 
L 232.25544 105.432139 
L 232.83155 181.199731 
L 233.147708 197.179446 
L 233.400635 201.120314 
L 233.484943 201.341091 
L 233.534124 201.268811 
L 233.646535 200.596034 
L 233.850282 197.724307 
L 234.16644 189.569503 
L 235.143017 161.895446 
L 235.199223 161.766047 
L 235.255429 161.900971 
L 235.374866 163.056305 
L 235.592664 167.882772 
L 236.534113 191.98594 
L 236.569242 192.001724 
L 236.611396 191.913769 
L 236.730834 191.084681 
L 236.976734 187.387759 
L 237.644179 177.00697 
L 237.861977 176.237407 
L 237.946286 176.334768 
L 238.093827 176.972732 
L 238.353779 179.278054 
L 238.859632 186.212053 
L 239.65354 196.378149 
L 240.110213 199.732932 
L 240.391242 200.514875 
L 240.55986 200.530011 
L 241.114893 200.252794 
L 241.128945 200.274211 
L 241.325665 200.799612 
L 241.705055 202.627912 
L 242.688658 207.33277 
L 243.187485 208.735415 
L 243.566875 209.928898 
L 243.932214 211.998493 
L 244.648839 216.087028 
L 244.94392 216.64571 
L 245.133614 216.642378 
L 245.323309 216.363934 
L 245.604339 215.476481 
L 246.173423 213.658375 
L 246.285835 213.741755 
L 246.440401 214.254371 
L 246.700354 216.060836 
L 247.536416 222.389245 
L 247.719085 222.607858 
L 247.733137 222.601419 
L 247.8596 222.39725 
L 248.070372 221.517876 
L 248.463814 218.685285 
L 249.061001 214.775448 
L 249.320953 214.206328 
L 249.461468 214.260309 
L 249.644137 214.671807 
L 250.325634 216.658652 
L 250.374814 216.622358 
L 250.522354 216.289953 
L 250.845538 214.824488 
L 251.133593 213.970021 
L 251.231954 214.052233 
L 251.372468 214.600754 
L 251.618369 216.680764 
L 252.24366 222.18577 
L 252.334994 222.260265 
L 252.377149 222.211973 
L 252.510638 221.748789 
L 252.798693 219.709012 
L 253.234289 217.07667 
L 253.409932 216.88038 
L 253.423983 216.887328 
L 253.564498 217.10882 
L 253.887682 218.197756 
L 254.288149 219.231538 
L 254.541076 219.374257 
L 255.089083 219.496178 
L 255.39119 219.98733 
L 256.993058 223.530618 
L 257.260036 225.337234 
L 257.660503 229.936658 
L 258.201484 235.486302 
L 258.461437 236.326543 
L 258.608977 236.312513 
L 258.819749 235.938676 
L 259.269396 235.180135 
L 259.423962 235.258804 
L 259.620683 235.699026 
L 260.007099 237.283393 
L 260.414591 238.571352 
L 260.695621 238.823545 
L 261.067985 239.104846 
L 261.489529 239.483916 
L 261.623018 239.229873 
L 261.812713 238.255147 
L 262.11482 235.2584 
L 262.69093 229.678887 
L 262.866573 229.349062 
L 262.880625 229.355887 
L 262.993037 229.568502 
L 263.203809 230.56997 
L 264.356029 236.987355 
L 264.489518 236.938062 
L 264.665162 236.535438 
L 265.051577 234.905743 
L 265.529327 233.269041 
L 265.901691 232.735208 
L 266.484828 232.005607 
L 267.096067 231.128197 
L 267.250633 231.254208 
L 267.447353 231.777488 
L 267.763512 233.381428 
L 268.768192 238.904074 
L 268.971938 239.055695 
L 269.175685 238.888895 
L 269.498869 238.680176 
L 269.681538 238.855623 
L 270.194416 239.498326 
L 270.215494 239.482734 
L 270.37006 239.204018 
L 270.651089 238.111646 
L 271.079659 236.663948 
L 271.234225 236.648801 
L 271.402843 236.948941 
L 272.014082 238.202132 
L 272.252957 238.108481 
L 272.463729 238.1186 
L 272.625321 238.408533 
L 272.871222 239.416417 
L 273.524616 242.240604 
L 273.71431 242.303804 
L 273.953185 242.052482 
L 274.248266 241.857246 
L 274.402833 242.019275 
L 274.62063 242.648816 
L 275.007046 244.622887 
L 275.597208 247.378768 
L 275.913366 247.939038 
L 276.475425 248.59218 
L 276.728351 249.589391 
L 277.14287 252.35338 
L 277.613594 254.995017 
L 277.761135 255.161938 
L 277.789238 255.144378 
L 277.908675 254.88634 
L 278.112421 253.784133 
L 278.47776 250.292422 
L 279.138179 244.266626 
L 279.38408 243.596299 
L 279.496492 243.67623 
L 279.658083 244.198682 
L 279.932087 246.008291 
L 280.430914 251.095232 
L 281.077282 257.221424 
L 281.2459 257.587921 
L 281.266977 257.576854 
L 281.372363 257.330769 
L 281.569084 256.117719 
L 282.29976 251.024486 
L 282.405146 251.081236 
L 282.559713 251.569586 
L 282.854794 253.432449 
L 284.365327 264.153149 
L 284.597176 264.639292 
L 284.702562 264.515387 
L 284.87118 263.84992 
L 285.587805 260.091966 
L 285.651037 260.146092 
L 285.798577 260.58476 
L 286.170941 262.672641 
L 286.487099 263.810977 
L 286.599511 263.824525 
L 286.620588 263.801373 
L 286.768129 263.418301 
L 287.021055 261.999829 
L 287.983581 255.987865 
L 288.264611 255.529759 
L 288.426203 255.580883 
L 288.615897 255.948536 
L 288.903953 257.099208 
L 289.466012 260.514006 
L 290.400435 265.923961 
L 290.569052 266.123823 
L 290.590129 266.111789 
L 290.709567 265.875568 
L 290.906288 264.882419 
L 291.369986 260.971029 
L 291.74235 258.850476 
L 291.917994 258.645805 
L 291.932045 258.652682 
L 292.058508 258.862519 
L 292.276306 259.778939 
L 292.817288 263.437592 
L 293.288012 265.720076 
L 294.440233 269.643745 
L 294.601825 269.490066 
L 295.206038 268.713715 
L 295.213064 268.718345 
L 295.402759 268.98541 
L 296.231796 270.42734 
L 296.674417 270.54085 
L 296.962472 270.422551 
L 297.271605 270.003967 
L 297.650995 269.576357 
L 297.791509 269.716364 
L 297.974178 270.312983 
L 298.269259 272.224346 
L 298.782138 275.382172 
L 298.887524 275.461297 
L 298.922653 275.427496 
L 299.056142 275.032735 
L 299.302043 273.414899 
L 300.046771 268.189792 
L 300.292671 267.750062 
L 300.433186 267.825866 
L 300.615855 268.269824 
L 300.910936 269.693146 
L 301.550278 272.800632 
L 301.697819 272.871888 
L 301.71187 272.861551 
L 301.859411 272.585855 
L 302.133414 271.463309 
L 302.674396 269.344572 
L 302.821937 269.298551 
L 302.835988 269.310141 
L 302.990554 269.61111 
L 303.271584 270.77808 
L 304.852374 278.165086 
L 305.112327 278.451569 
L 305.61818 278.709859 
L 305.948389 279.455426 
L 306.334805 280.130323 
L 306.559628 280.144915 
L 307.163842 279.776021 
L 307.43082 279.428159 
L 307.761029 278.536284 
L 308.175548 277.587368 
L 308.330114 277.616059 
L 308.512783 277.966385 
L 309.538541 280.457852 
L 309.77039 280.42802 
L 309.981162 280.156365 
L 310.227063 279.423695 
L 310.557272 277.635999 
L 311.43549 272.494511 
L 311.540876 272.535368 
L 311.547901 272.546793 
L 311.688416 273.005426 
L 311.934317 274.745318 
L 312.700122 280.631309 
L 312.91792 280.889922 
L 313.156795 280.785241 
L 313.402696 280.774091 
L 313.606442 281.031767 
L 313.957729 281.92406 
L 314.786766 284.031678 
L 314.990512 284.108792 
L 315.145078 283.904111 
L 315.376928 283.144879 
L 316.023295 280.82941 
L 316.135707 280.952956 
L 316.311351 281.595569 
L 316.69074 284.09557 
L 317.11931 286.294994 
L 317.40034 286.771405 
L 317.660292 286.825159 
L 317.899167 286.64968 
L 318.123991 286.161726 
L 318.419072 284.883905 
L 319.037336 282.149542 
L 319.1638 282.14185 
L 319.177851 282.157071 
L 319.332417 282.517545 
L 319.69073 284.123696 
L 320.020939 285.106308 
L 320.16848 285.094916 
L 320.344123 284.738741 
L 321.320701 282.253559 
L 321.517421 282.339393 
L 321.735219 282.719102 
L 321.995171 283.685053 
L 322.36051 286.077863 
L 322.93662 289.682472 
L 323.140366 289.932418 
L 323.26683 289.766052 
L 323.484628 289.020406 
L 323.920223 286.546634 
L 324.510385 283.521581 
L 324.693054 283.333388 
L 324.70008 283.336969 
L 324.826543 283.545458 
L 325.03029 284.437344 
L 325.402654 287.325355 
L 326.013893 291.754983 
L 326.287896 292.442409 
L 326.442463 292.416575 
L 326.625132 292.062017 
L 326.976419 290.773202 
L 327.735198 288.058011 
L 328.030279 287.647573 
L 328.184845 287.722461 
L 328.367514 288.139151 
L 328.648544 289.449166 
L 329.449478 293.452612 
L 329.751584 293.832649 
L 330.173129 294.275753 
L 330.889754 295.253326 
L 331.100526 295.140657 
L 331.37453 294.694389 
L 331.739868 293.610574 
L 332.33003 291.86776 
L 332.463519 291.909468 
L 332.625111 292.30855 
L 332.892089 293.70061 
L 333.657894 297.943217 
L 333.840563 298.078299 
L 333.847589 298.074454 
L 333.988104 297.863686 
L 334.226979 297.005744 
L 334.992784 293.977249 
L 335.133299 294.012102 
L 335.315968 294.384373 
L 336.046644 296.157801 
L 336.208236 295.997197 
L 336.524394 295.252849 
L 336.974042 294.381209 
L 337.212917 294.308141 
L 337.430714 294.492726 
L 337.739847 295.101513 
L 338.491601 296.66195 
L 338.688321 296.641747 
L 338.920171 296.328097 
L 339.433049 295.616587 
L 339.594641 295.746292 
L 339.826491 296.305924 
L 340.697682 298.700058 
L 341.231638 299.61139 
L 342.095803 301.511552 
L 342.257395 301.375948 
L 342.510322 300.785613 
L 343.086432 299.4203 
L 343.25505 299.446043 
L 343.465822 299.773793 
L 344.189473 301.055373 
L 344.372142 300.97377 
L 344.611017 300.565229 
L 345.313591 299.213304 
L 345.468157 299.369067 
L 345.700006 300.010162 
L 346.423657 302.222112 
L 346.592275 302.199124 
L 346.810073 301.873681 
L 347.758547 300.213777 
L 348.2644 299.788573 
L 348.503275 299.855258 
L 348.868613 300.266762 
L 349.212875 300.506976 
L 349.458775 300.406813 
L 349.859242 299.938895 
L 350.287812 299.128952 
L 350.821768 297.509038 
L 351.243312 296.546179 
L 351.440033 296.499109 
L 351.615676 296.733292 
L 351.896706 297.569434 
L 352.641434 299.909905 
L 352.866257 300.017303 
L 353.048927 299.836545 
L 353.32293 299.176016 
L 354.025504 297.367903 
L 354.208173 297.393383 
L 354.454074 297.740534 
L 355.002081 298.507302 
L 355.479831 298.661903 
L 355.901376 298.946768 
L 356.505589 299.330977 
L 356.793644 299.241317 
L 357.552424 298.861535 
L 357.903711 299.160988 
L 358.247972 299.337698 
L 358.507924 299.207852 
L 358.957571 298.978452 
L 359.168343 299.16126 
L 359.554759 299.898373 
L 359.955226 300.453577 
L 360.369744 300.608276 
L 360.924777 300.901663 
L 361.416579 301.055559 
L 361.788943 300.952794 
L 362.098075 300.620613 
L 362.463414 299.842743 
L 363.165987 298.304205 
L 363.383785 298.279227 
L 363.636711 298.524324 
L 364.732726 300.176425 
L 366.222183 302.739084 
L 366.573469 302.901863 
L 367.269017 303.043355 
L 367.564098 303.537797 
L 368.779551 305.955293 
L 369.081657 305.946954 
L 369.566433 305.65732 
L 370.093363 305.108502 
L 371.484459 303.371418 
L 371.821694 303.35506 
L 372.10975 303.576376 
L 372.229187 303.731158 
L 372.229187 303.731158 
" style="fill:none;stroke:#ff7f0e;stroke-linecap:square;stroke-width:1.5;"/>
   </g>
   <g id="patch_103">
    <path d="M 57.6 307.584 
L 57.6 41.472 
" style="fill:none;stroke:#000000;stroke-linecap:square;stroke-linejoin:miter;stroke-width:0.8;"/>
   </g>
   <g id="patch_104">
    <path d="M 414.72 307.584 
L 414.72 41.472 
" style="fill:none;stroke:#000000;stroke-linecap:square;stroke-linejoin:miter;stroke-width:0.8;"/>
   </g>
   <g id="patch_105">
    <path d="M 57.6 307.584 
L 414.72 307.584 
" style="fill:none;stroke:#000000;stroke-linecap:square;stroke-linejoin:miter;stroke-width:0.8;"/>
   </g>
   <g id="patch_106">
    <path d="M 57.6 41.472 
L 414.72 41.472 
" style="fill:none;stroke:#000000;stroke-linecap:square;stroke-linejoin:miter;stroke-width:0.8;"/>
   </g>
  </g>
 </g>
 <defs>
  <clipPath id="pfe60db094d">
   <rect height="266.112" width="357.12" x="57.6" y="41.472"/>
  </clipPath>
 </defs>
</svg>
