<?xml version="1.0" encoding="utf-8" standalone="no"?>
<!DOCTYPE svg PUBLIC "-//W3C//DTD SVG 1.1//EN"
  "http://www.w3.org/Graphics/SVG/1.1/DTD/svg11.dtd">
<!-- Created with matplotlib (https://matplotlib.org/) -->
<svg height="345.6pt" version="1.1" viewBox="0 0 460.8 345.6" width="460.8pt" xmlns="http://www.w3.org/2000/svg" xmlns:xlink="http://www.w3.org/1999/xlink">
 <defs>
  <style type="text/css">
*{stroke-linecap:butt;stroke-linejoin:round;}
  </style>
 </defs>
 <g id="figure_1">
  <g id="patch_1">
   <path d="M 0 345.6 
L 460.8 345.6 
L 460.8 0 
L 0 0 
z
" style="fill:#ffffff;"/>
  </g>
  <g id="axes_1">
   <g id="patch_2">
    <path d="M 57.6 307.584 
L 414.72 307.584 
L 414.72 41.472 
L 57.6 41.472 
z
" style="fill:#ffffff;"/>
   </g>
   <g id="patch_3">
    <path clip-path="url(#p351ac5f95d)" d="M 146.465416 307.584 
L 148.477904 307.584 
L 148.477904 300.854106 
L 146.465416 300.854106 
z
" style="fill:#1f77b4;"/>
   </g>
   <g id="patch_4">
    <path clip-path="url(#p351ac5f95d)" d="M 148.477904 307.584 
L 150.490399 307.584 
L 150.490399 303.097421 
L 148.477904 303.097421 
z
" style="fill:#1f77b4;"/>
   </g>
   <g id="patch_5">
    <path clip-path="url(#p351ac5f95d)" d="M 150.490392 307.584 
L 152.502879 307.584 
L 152.502879 296.36751 
L 150.490392 296.36751 
z
" style="fill:#1f77b4;"/>
   </g>
   <g id="patch_6">
    <path clip-path="url(#p351ac5f95d)" d="M 152.502887 307.584 
L 154.515375 307.584 
L 154.515375 303.097404 
L 152.502887 303.097404 
z
" style="fill:#1f77b4;"/>
   </g>
   <g id="patch_7">
    <path clip-path="url(#p351ac5f95d)" d="M 154.515367 307.584 
L 156.527855 307.584 
L 156.527855 296.36751 
L 154.515367 296.36751 
z
" style="fill:#1f77b4;"/>
   </g>
   <g id="patch_8">
    <path clip-path="url(#p351ac5f95d)" d="M 156.527863 307.584 
L 158.540358 307.584 
L 158.540358 298.610842 
L 156.527863 298.610842 
z
" style="fill:#1f77b4;"/>
   </g>
   <g id="patch_9">
    <path clip-path="url(#p351ac5f95d)" d="M 158.540358 307.584 
L 160.552846 307.584 
L 160.552846 298.610808 
L 158.540358 298.610808 
z
" style="fill:#1f77b4;"/>
   </g>
   <g id="patch_10">
    <path clip-path="url(#p351ac5f95d)" d="M 160.552839 307.584 
L 162.565326 307.584 
L 162.565326 287.394318 
L 160.552839 287.394318 
z
" style="fill:#1f77b4;"/>
   </g>
   <g id="patch_11">
    <path clip-path="url(#p351ac5f95d)" d="M 162.565334 307.584 
L 164.577822 307.584 
L 164.577822 273.934529 
L 162.565334 273.934529 
z
" style="fill:#1f77b4;"/>
   </g>
   <g id="patch_12">
    <path clip-path="url(#p351ac5f95d)" d="M 164.577822 307.584 
L 166.590317 307.584 
L 166.590317 296.367553 
L 164.577822 296.367553 
z
" style="fill:#1f77b4;"/>
   </g>
   <g id="patch_13">
    <path clip-path="url(#p351ac5f95d)" d="M 166.59031 307.584 
L 168.602798 307.584 
L 168.602798 276.177827 
L 166.59031 276.177827 
z
" style="fill:#1f77b4;"/>
   </g>
   <g id="patch_14">
    <path clip-path="url(#p351ac5f95d)" d="M 168.602805 307.584 
L 170.615293 307.584 
L 170.615293 289.637616 
L 168.602805 289.637616 
z
" style="fill:#1f77b4;"/>
   </g>
   <g id="patch_15">
    <path clip-path="url(#p351ac5f95d)" d="M 170.615293 307.584 
L 172.627785 307.584 
L 172.627785 296.367531 
L 170.615293 296.367531 
z
" style="fill:#1f77b4;"/>
   </g>
   <g id="patch_16">
    <path clip-path="url(#p351ac5f95d)" d="M 172.627785 307.584 
L 174.640273 307.584 
L 174.640273 278.421125 
L 172.627785 278.421125 
z
" style="fill:#1f77b4;"/>
   </g>
   <g id="patch_17">
    <path clip-path="url(#p351ac5f95d)" d="M 174.640269 307.584 
L 176.65276 307.584 
L 176.65276 276.177888 
L 174.640269 276.177888 
z
" style="fill:#1f77b4;"/>
   </g>
   <g id="patch_18">
    <path clip-path="url(#p351ac5f95d)" d="M 176.652764 307.584 
L 178.665252 307.584 
L 178.665252 282.907722 
L 176.652764 282.907722 
z
" style="fill:#1f77b4;"/>
   </g>
   <g id="patch_19">
    <path clip-path="url(#p351ac5f95d)" d="M 178.665252 307.584 
L 180.677744 307.584 
L 180.677744 276.177888 
L 178.665252 276.177888 
z
" style="fill:#1f77b4;"/>
   </g>
   <g id="patch_20">
    <path clip-path="url(#p351ac5f95d)" d="M 180.677744 307.584 
L 182.690232 307.584 
L 182.690232 264.961337 
L 180.677744 264.961337 
z
" style="fill:#1f77b4;"/>
   </g>
   <g id="patch_21">
    <path clip-path="url(#p351ac5f95d)" d="M 182.690228 307.584 
L 184.702719 307.584 
L 184.702719 276.177888 
L 182.690228 276.177888 
z
" style="fill:#1f77b4;"/>
   </g>
   <g id="patch_22">
    <path clip-path="url(#p351ac5f95d)" d="M 184.702723 307.584 
L 186.715211 307.584 
L 186.715211 276.177827 
L 184.702723 276.177827 
z
" style="fill:#1f77b4;"/>
   </g>
   <g id="patch_23">
    <path clip-path="url(#p351ac5f95d)" d="M 186.715211 307.584 
L 188.727703 307.584 
L 188.727703 276.177888 
L 186.715211 276.177888 
z
" style="fill:#1f77b4;"/>
   </g>
   <g id="patch_24">
    <path clip-path="url(#p351ac5f95d)" d="M 188.727703 307.584 
L 190.740191 307.584 
L 190.740191 244.771655 
L 188.727703 244.771655 
z
" style="fill:#1f77b4;"/>
   </g>
   <g id="patch_25">
    <path clip-path="url(#p351ac5f95d)" d="M 190.740187 307.584 
L 192.752678 307.584 
L 192.752678 260.474832 
L 190.740187 260.474832 
z
" style="fill:#1f77b4;"/>
   </g>
   <g id="patch_26">
    <path clip-path="url(#p351ac5f95d)" d="M 192.752682 307.584 
L 194.76517 307.584 
L 194.76517 229.068568 
L 192.752682 229.068568 
z
" style="fill:#1f77b4;"/>
   </g>
   <g id="patch_27">
    <path clip-path="url(#p351ac5f95d)" d="M 194.76517 307.584 
L 196.777662 307.584 
L 196.777662 231.312013 
L 194.76517 231.312013 
z
" style="fill:#1f77b4;"/>
   </g>
   <g id="patch_28">
    <path clip-path="url(#p351ac5f95d)" d="M 196.777658 307.584 
L 198.79015 307.584 
L 198.79015 251.501657 
L 196.777658 251.501657 
z
" style="fill:#1f77b4;"/>
   </g>
   <g id="patch_29">
    <path clip-path="url(#p351ac5f95d)" d="M 198.790154 307.584 
L 200.802641 307.584 
L 200.802641 226.82527 
L 198.790154 226.82527 
z
" style="fill:#1f77b4;"/>
   </g>
   <g id="patch_30">
    <path clip-path="url(#p351ac5f95d)" d="M 200.802641 307.584 
L 202.815133 307.584 
L 202.815133 215.608957 
L 200.802641 215.608957 
z
" style="fill:#1f77b4;"/>
   </g>
   <g id="patch_31">
    <path clip-path="url(#p351ac5f95d)" d="M 202.815133 307.584 
L 204.827621 307.584 
L 204.827621 229.068568 
L 202.815133 229.068568 
z
" style="fill:#1f77b4;"/>
   </g>
   <g id="patch_32">
    <path clip-path="url(#p351ac5f95d)" d="M 204.827621 307.584 
L 206.840111 307.584 
L 206.840111 206.635685 
L 204.827621 206.635685 
z
" style="fill:#1f77b4;"/>
   </g>
   <g id="patch_33">
    <path clip-path="url(#p351ac5f95d)" d="M 206.840113 307.584 
L 208.852602 307.584 
L 208.852602 217.852165 
L 206.840113 217.852165 
z
" style="fill:#1f77b4;"/>
   </g>
   <g id="patch_34">
    <path clip-path="url(#p351ac5f95d)" d="M 208.8526 307.584 
L 210.86509 307.584 
L 210.86509 195.419206 
L 208.8526 195.419206 
z
" style="fill:#1f77b4;"/>
   </g>
   <g id="patch_35">
    <path clip-path="url(#p351ac5f95d)" d="M 210.865092 307.584 
L 212.877582 307.584 
L 212.877582 181.95943 
L 210.865092 181.95943 
z
" style="fill:#1f77b4;"/>
   </g>
   <g id="patch_36">
    <path clip-path="url(#p351ac5f95d)" d="M 212.87758 307.584 
L 214.89007 307.584 
L 214.89007 179.716134 
L 212.87758 179.716134 
z
" style="fill:#1f77b4;"/>
   </g>
   <g id="patch_37">
    <path clip-path="url(#p351ac5f95d)" d="M 214.890072 307.584 
L 216.902561 307.584 
L 216.902561 238.041828 
L 214.890072 238.041828 
z
" style="fill:#1f77b4;"/>
   </g>
   <g id="patch_38">
    <path clip-path="url(#p351ac5f95d)" d="M 216.902559 307.584 
L 218.915049 307.584 
L 218.915049 215.608869 
L 216.902559 215.608869 
z
" style="fill:#1f77b4;"/>
   </g>
   <g id="patch_39">
    <path clip-path="url(#p351ac5f95d)" d="M 218.915049 307.584 
L 220.92754 307.584 
L 220.92754 195.41926 
L 218.915049 195.41926 
z
" style="fill:#1f77b4;"/>
   </g>
   <g id="patch_40">
    <path clip-path="url(#p351ac5f95d)" d="M 220.92754 307.584 
L 222.94003 307.584 
L 222.94003 213.365573 
L 220.92754 213.365573 
z
" style="fill:#1f77b4;"/>
   </g>
   <g id="patch_41">
    <path clip-path="url(#p351ac5f95d)" d="M 222.94003 307.584 
L 224.952519 307.584 
L 224.952519 199.905797 
L 222.94003 199.905797 
z
" style="fill:#1f77b4;"/>
   </g>
   <g id="patch_42">
    <path clip-path="url(#p351ac5f95d)" d="M 224.952519 307.584 
L 226.965009 307.584 
L 226.965009 193.17591 
L 224.952519 193.17591 
z
" style="fill:#1f77b4;"/>
   </g>
   <g id="patch_43">
    <path clip-path="url(#p351ac5f95d)" d="M 226.965009 307.584 
L 228.977499 307.584 
L 228.977499 177.47287 
L 226.965009 177.47287 
z
" style="fill:#1f77b4;"/>
   </g>
   <g id="patch_44">
    <path clip-path="url(#p351ac5f95d)" d="M 228.977499 307.584 
L 230.989989 307.584 
L 230.989989 186.446022 
L 228.977499 186.446022 
z
" style="fill:#1f77b4;"/>
   </g>
   <g id="patch_45">
    <path clip-path="url(#p351ac5f95d)" d="M 230.989989 307.584 
L 233.002479 307.584 
L 233.002479 170.742951 
L 230.989989 170.742951 
z
" style="fill:#1f77b4;"/>
   </g>
   <g id="patch_46">
    <path clip-path="url(#p351ac5f95d)" d="M 233.002479 307.584 
L 235.014969 307.584 
L 235.014969 157.283176 
L 233.002479 157.283176 
z
" style="fill:#1f77b4;"/>
   </g>
   <g id="patch_47">
    <path clip-path="url(#p351ac5f95d)" d="M 235.014969 307.584 
L 237.027459 307.584 
L 237.027459 67.551355 
L 235.014969 67.551355 
z
" style="fill:#1f77b4;"/>
   </g>
   <g id="patch_48">
    <path clip-path="url(#p351ac5f95d)" d="M 237.027459 307.584 
L 239.039948 307.584 
L 239.039948 170.742959 
L 237.027459 170.742959 
z
" style="fill:#1f77b4;"/>
   </g>
   <g id="patch_49">
    <path clip-path="url(#p351ac5f95d)" d="M 239.039949 307.584 
L 241.052438 307.584 
L 241.052438 134.850237 
L 239.039949 134.850237 
z
" style="fill:#1f77b4;"/>
   </g>
   <g id="patch_50">
    <path clip-path="url(#p351ac5f95d)" d="M 241.052438 307.584 
L 243.064928 307.584 
L 243.064928 170.742951 
L 241.052438 170.742951 
z
" style="fill:#1f77b4;"/>
   </g>
   <g id="patch_51">
    <path clip-path="url(#p351ac5f95d)" d="M 243.064928 307.584 
L 245.077418 307.584 
L 245.077418 130.363625 
L 243.064928 130.363625 
z
" style="fill:#1f77b4;"/>
   </g>
   <g id="patch_52">
    <path clip-path="url(#p351ac5f95d)" d="M 245.077418 307.584 
L 247.089908 307.584 
L 247.089908 199.905797 
L 245.077418 199.905797 
z
" style="fill:#1f77b4;"/>
   </g>
   <g id="patch_53">
    <path clip-path="url(#p351ac5f95d)" d="M 247.089908 307.584 
L 249.102397 307.584 
L 249.102397 206.635685 
L 247.089908 206.635685 
z
" style="fill:#1f77b4;"/>
   </g>
   <g id="patch_54">
    <path clip-path="url(#p351ac5f95d)" d="M 249.102397 307.584 
L 251.114887 307.584 
L 251.114887 213.365573 
L 249.102397 213.365573 
z
" style="fill:#1f77b4;"/>
   </g>
   <g id="patch_55">
    <path clip-path="url(#p351ac5f95d)" d="M 251.114887 307.584 
L 253.127377 307.584 
L 253.127377 206.635685 
L 251.114887 206.635685 
z
" style="fill:#1f77b4;"/>
   </g>
   <g id="patch_56">
    <path clip-path="url(#p351ac5f95d)" d="M 253.127379 307.584 
L 255.139869 307.584 
L 255.139869 240.285123 
L 253.127379 240.285123 
z
" style="fill:#1f77b4;"/>
   </g>
   <g id="patch_57">
    <path clip-path="url(#p351ac5f95d)" d="M 255.139867 307.584 
L 257.152356 307.584 
L 257.152356 197.662502 
L 255.139867 197.662502 
z
" style="fill:#1f77b4;"/>
   </g>
   <g id="patch_58">
    <path clip-path="url(#p351ac5f95d)" d="M 257.152358 307.584 
L 259.164848 307.584 
L 259.164848 240.285123 
L 257.152358 240.285123 
z
" style="fill:#1f77b4;"/>
   </g>
   <g id="patch_59">
    <path clip-path="url(#p351ac5f95d)" d="M 259.164846 307.584 
L 261.177336 307.584 
L 261.177336 235.798532 
L 259.164846 235.798532 
z
" style="fill:#1f77b4;"/>
   </g>
   <g id="patch_60">
    <path clip-path="url(#p351ac5f95d)" d="M 261.177338 307.584 
L 263.189828 307.584 
L 263.189828 238.041828 
L 261.177338 238.041828 
z
" style="fill:#1f77b4;"/>
   </g>
   <g id="patch_61">
    <path clip-path="url(#p351ac5f95d)" d="M 263.189826 307.584 
L 265.202315 307.584 
L 265.202315 255.988195 
L 263.189826 255.988195 
z
" style="fill:#1f77b4;"/>
   </g>
   <g id="patch_62">
    <path clip-path="url(#p351ac5f95d)" d="M 265.202317 307.584 
L 267.214807 307.584 
L 267.214807 231.31194 
L 265.202317 231.31194 
z
" style="fill:#1f77b4;"/>
   </g>
   <g id="patch_63">
    <path clip-path="url(#p351ac5f95d)" d="M 267.214805 307.584 
L 269.227297 307.584 
L 269.227297 253.74495 
L 267.214805 253.74495 
z
" style="fill:#1f77b4;"/>
   </g>
   <g id="patch_64">
    <path clip-path="url(#p351ac5f95d)" d="M 269.227297 307.584 
L 271.239785 307.584 
L 271.239785 231.311866 
L 269.227297 231.311866 
z
" style="fill:#1f77b4;"/>
   </g>
   <g id="patch_65">
    <path clip-path="url(#p351ac5f95d)" d="M 271.239785 307.584 
L 273.252276 307.584 
L 273.252276 206.635782 
L 271.239785 206.635782 
z
" style="fill:#1f77b4;"/>
   </g>
   <g id="patch_66">
    <path clip-path="url(#p351ac5f95d)" d="M 273.252276 307.584 
L 275.264764 307.584 
L 275.264764 253.744847 
L 273.252276 253.744847 
z
" style="fill:#1f77b4;"/>
   </g>
   <g id="patch_67">
    <path clip-path="url(#p351ac5f95d)" d="M 275.26476 307.584 
L 277.277252 307.584 
L 277.277252 247.015069 
L 275.26476 247.015069 
z
" style="fill:#1f77b4;"/>
   </g>
   <g id="patch_68">
    <path clip-path="url(#p351ac5f95d)" d="M 277.277256 307.584 
L 279.289744 307.584 
L 279.289744 264.961337 
L 277.277256 264.961337 
z
" style="fill:#1f77b4;"/>
   </g>
   <g id="patch_69">
    <path clip-path="url(#p351ac5f95d)" d="M 279.289744 307.584 
L 281.302235 307.584 
L 281.302235 253.74495 
L 279.289744 253.74495 
z
" style="fill:#1f77b4;"/>
   </g>
   <g id="patch_70">
    <path clip-path="url(#p351ac5f95d)" d="M 281.302235 307.584 
L 283.314723 307.584 
L 283.314723 247.014953 
L 281.302235 247.014953 
z
" style="fill:#1f77b4;"/>
   </g>
   <g id="patch_71">
    <path clip-path="url(#p351ac5f95d)" d="M 283.314719 307.584 
L 285.327211 307.584 
L 285.327211 235.798601 
L 283.314719 235.798601 
z
" style="fill:#1f77b4;"/>
   </g>
   <g id="patch_72">
    <path clip-path="url(#p351ac5f95d)" d="M 285.327215 307.584 
L 287.339703 307.584 
L 287.339703 253.744847 
L 285.327215 253.744847 
z
" style="fill:#1f77b4;"/>
   </g>
   <g id="patch_73">
    <path clip-path="url(#p351ac5f95d)" d="M 287.339703 307.584 
L 289.352194 307.584 
L 289.352194 258.231538 
L 287.339703 258.231538 
z
" style="fill:#1f77b4;"/>
   </g>
   <g id="patch_74">
    <path clip-path="url(#p351ac5f95d)" d="M 289.352194 307.584 
L 291.364682 307.584 
L 291.364682 271.691231 
L 289.352194 271.691231 
z
" style="fill:#1f77b4;"/>
   </g>
   <g id="patch_75">
    <path clip-path="url(#p351ac5f95d)" d="M 291.364678 307.584 
L 293.37717 307.584 
L 293.37717 285.151063 
L 291.364678 285.151063 
z
" style="fill:#1f77b4;"/>
   </g>
   <g id="patch_76">
    <path clip-path="url(#p351ac5f95d)" d="M 293.377174 307.584 
L 295.389662 307.584 
L 295.389662 296.36751 
L 293.377174 296.36751 
z
" style="fill:#1f77b4;"/>
   </g>
   <g id="patch_77">
    <path clip-path="url(#p351ac5f95d)" d="M 295.389662 307.584 
L 297.402153 307.584 
L 297.402153 282.907769 
L 295.389662 282.907769 
z
" style="fill:#1f77b4;"/>
   </g>
   <g id="patch_78">
    <path clip-path="url(#p351ac5f95d)" d="M 297.40215 307.584 
L 299.414641 307.584 
L 299.414641 278.421182 
L 297.40215 278.421182 
z
" style="fill:#1f77b4;"/>
   </g>
   <g id="patch_79">
    <path clip-path="url(#p351ac5f95d)" d="M 299.414645 307.584 
L 301.427133 307.584 
L 301.427133 280.664423 
L 299.414645 280.664423 
z
" style="fill:#1f77b4;"/>
   </g>
   <g id="patch_80">
    <path clip-path="url(#p351ac5f95d)" d="M 301.427125 307.584 
L 303.439613 307.584 
L 303.439613 264.961337 
L 301.427125 264.961337 
z
" style="fill:#1f77b4;"/>
   </g>
   <g id="patch_81">
    <path clip-path="url(#p351ac5f95d)" d="M 303.439621 307.584 
L 305.452116 307.584 
L 305.452116 287.394395 
L 303.439621 287.394395 
z
" style="fill:#1f77b4;"/>
   </g>
   <g id="patch_82">
    <path clip-path="url(#p351ac5f95d)" d="M 305.452116 307.584 
L 307.464604 307.584 
L 307.464604 271.691231 
L 305.452116 271.691231 
z
" style="fill:#1f77b4;"/>
   </g>
   <g id="patch_83">
    <path clip-path="url(#p351ac5f95d)" d="M 307.464596 307.584 
L 309.477084 307.584 
L 309.477084 296.36751 
L 307.464596 296.36751 
z
" style="fill:#1f77b4;"/>
   </g>
   <g id="patch_84">
    <path clip-path="url(#p351ac5f95d)" d="M 309.477092 307.584 
L 311.48958 307.584 
L 311.48958 289.637616 
L 309.477092 289.637616 
z
" style="fill:#1f77b4;"/>
   </g>
   <g id="patch_85">
    <path clip-path="url(#p351ac5f95d)" d="M 311.48958 307.584 
L 313.502075 307.584 
L 313.502075 300.854132 
L 311.48958 300.854132 
z
" style="fill:#1f77b4;"/>
   </g>
   <g id="patch_86">
    <path clip-path="url(#p351ac5f95d)" d="M 313.502068 307.584 
L 315.514555 307.584 
L 315.514555 282.907722 
L 313.502068 282.907722 
z
" style="fill:#1f77b4;"/>
   </g>
   <g id="patch_87">
    <path clip-path="url(#p351ac5f95d)" d="M 315.514563 307.584 
L 317.527051 307.584 
L 317.527051 285.15102 
L 315.514563 285.15102 
z
" style="fill:#1f77b4;"/>
   </g>
   <g id="patch_88">
    <path clip-path="url(#p351ac5f95d)" d="M 317.527043 307.584 
L 319.539531 307.584 
L 319.539531 296.36751 
L 317.527043 296.36751 
z
" style="fill:#1f77b4;"/>
   </g>
   <g id="patch_89">
    <path clip-path="url(#p351ac5f95d)" d="M 319.539539 307.584 
L 321.552034 307.584 
L 321.552034 287.394395 
L 319.539539 287.394395 
z
" style="fill:#1f77b4;"/>
   </g>
   <g id="patch_90">
    <path clip-path="url(#p351ac5f95d)" d="M 321.552034 307.584 
L 323.564522 307.584 
L 323.564522 296.36751 
L 321.552034 296.36751 
z
" style="fill:#1f77b4;"/>
   </g>
   <g id="patch_91">
    <path clip-path="url(#p351ac5f95d)" d="M 323.564514 307.584 
L 325.577002 307.584 
L 325.577002 298.610808 
L 323.564514 298.610808 
z
" style="fill:#1f77b4;"/>
   </g>
   <g id="patch_92">
    <path clip-path="url(#p351ac5f95d)" d="M 325.57701 307.584 
L 327.589498 307.584 
L 327.589498 285.15102 
L 325.57701 285.15102 
z
" style="fill:#1f77b4;"/>
   </g>
   <g id="patch_93">
    <path clip-path="url(#p351ac5f95d)" d="M 327.589498 307.584 
L 329.601993 307.584 
L 329.601993 303.097421 
L 327.589498 303.097421 
z
" style="fill:#1f77b4;"/>
   </g>
   <g id="patch_94">
    <path clip-path="url(#p351ac5f95d)" d="M 329.601986 307.584 
L 331.614473 307.584 
L 331.614473 298.610808 
L 329.601986 298.610808 
z
" style="fill:#1f77b4;"/>
   </g>
   <g id="patch_95">
    <path clip-path="url(#p351ac5f95d)" d="M 331.614481 307.584 
L 333.626969 307.584 
L 333.626969 298.610808 
L 331.614481 298.610808 
z
" style="fill:#1f77b4;"/>
   </g>
   <g id="patch_96">
    <path clip-path="url(#p351ac5f95d)" d="M 333.626961 307.584 
L 335.639449 307.584 
L 335.639449 298.610808 
L 333.626961 298.610808 
z
" style="fill:#1f77b4;"/>
   </g>
   <g id="patch_97">
    <path clip-path="url(#p351ac5f95d)" d="M 335.639457 307.584 
L 337.651952 307.584 
L 337.651952 303.097421 
L 335.639457 303.097421 
z
" style="fill:#1f77b4;"/>
   </g>
   <g id="patch_98">
    <path clip-path="url(#p351ac5f95d)" d="M 337.651952 307.584 
L 339.66444 307.584 
L 339.66444 305.340702 
L 337.651952 305.340702 
z
" style="fill:#1f77b4;"/>
   </g>
   <g id="patch_99">
    <path clip-path="url(#p351ac5f95d)" d="M 339.664432 307.584 
L 341.67692 307.584 
L 341.67692 305.340702 
L 339.664432 305.340702 
z
" style="fill:#1f77b4;"/>
   </g>
   <g id="patch_100">
    <path clip-path="url(#p351ac5f95d)" d="M 341.676928 307.584 
L 343.689416 307.584 
L 343.689416 300.854106 
L 341.676928 300.854106 
z
" style="fill:#1f77b4;"/>
   </g>
   <g id="patch_101">
    <path clip-path="url(#p351ac5f95d)" d="M 343.689416 307.584 
L 345.701911 307.584 
L 345.701911 307.584 
L 343.689416 307.584 
z
" style="fill:#1f77b4;"/>
   </g>
   <g id="patch_102">
    <path clip-path="url(#p351ac5f95d)" d="M 345.701904 307.584 
L 347.714392 307.584 
L 347.714392 303.097404 
L 345.701904 303.097404 
z
" style="fill:#1f77b4;"/>
   </g>
   <g id="matplotlib.axis_1">
    <g id="xtick_1">
     <g id="line2d_1">
      <defs>
       <path d="M 0 0 
L 0 3.5 
" id="m167d5bbcba" style="stroke:#000000;stroke-width:0.8;"/>
      </defs>
      <g>
       <use style="stroke:#000000;stroke-width:0.8;" x="106.304676" xlink:href="#m167d5bbcba" y="307.584"/>
      </g>
     </g>
     <g id="text_1">
      <!-- −2 -->
      <defs>
       <path d="M 10.59375 35.5 
L 73.1875 35.5 
L 73.1875 27.203125 
L 10.59375 27.203125 
z
" id="DejaVuSans-8722"/>
       <path d="M 19.1875 8.296875 
L 53.609375 8.296875 
L 53.609375 0 
L 7.328125 0 
L 7.328125 8.296875 
Q 12.9375 14.109375 22.625 23.890625 
Q 32.328125 33.6875 34.8125 36.53125 
Q 39.546875 41.84375 41.421875 45.53125 
Q 43.3125 49.21875 43.3125 52.78125 
Q 43.3125 58.59375 39.234375 62.25 
Q 35.15625 65.921875 28.609375 65.921875 
Q 23.96875 65.921875 18.8125 64.3125 
Q 13.671875 62.703125 7.8125 59.421875 
L 7.8125 69.390625 
Q 13.765625 71.78125 18.9375 73 
Q 24.125 74.21875 28.421875 74.21875 
Q 39.75 74.21875 46.484375 68.546875 
Q 53.21875 62.890625 53.21875 53.421875 
Q 53.21875 48.921875 51.53125 44.890625 
Q 49.859375 40.875 45.40625 35.40625 
Q 44.1875 33.984375 37.640625 27.21875 
Q 31.109375 20.453125 19.1875 8.296875 
z
" id="DejaVuSans-50"/>
      </defs>
      <g transform="translate(93.773817 327.501344)scale(0.17 -0.17)">
       <use xlink:href="#DejaVuSans-8722"/>
       <use x="83.789062" xlink:href="#DejaVuSans-50"/>
      </g>
     </g>
    </g>
    <g id="xtick_2">
     <g id="line2d_2">
      <g>
       <use style="stroke:#000000;stroke-width:0.8;" x="171.248574" xlink:href="#m167d5bbcba" y="307.584"/>
      </g>
     </g>
     <g id="text_2">
      <!-- −1 -->
      <defs>
       <path d="M 12.40625 8.296875 
L 28.515625 8.296875 
L 28.515625 63.921875 
L 10.984375 60.40625 
L 10.984375 69.390625 
L 28.421875 72.90625 
L 38.28125 72.90625 
L 38.28125 8.296875 
L 54.390625 8.296875 
L 54.390625 0 
L 12.40625 0 
z
" id="DejaVuSans-49"/>
      </defs>
      <g transform="translate(158.717715 327.501344)scale(0.17 -0.17)">
       <use xlink:href="#DejaVuSans-8722"/>
       <use x="83.789062" xlink:href="#DejaVuSans-49"/>
      </g>
     </g>
    </g>
    <g id="xtick_3">
     <g id="line2d_3">
      <g>
       <use style="stroke:#000000;stroke-width:0.8;" x="236.192472" xlink:href="#m167d5bbcba" y="307.584"/>
      </g>
     </g>
     <g id="text_3">
      <!-- 0 -->
      <defs>
       <path d="M 31.78125 66.40625 
Q 24.171875 66.40625 20.328125 58.90625 
Q 16.5 51.421875 16.5 36.375 
Q 16.5 21.390625 20.328125 13.890625 
Q 24.171875 6.390625 31.78125 6.390625 
Q 39.453125 6.390625 43.28125 13.890625 
Q 47.125 21.390625 47.125 36.375 
Q 47.125 51.421875 43.28125 58.90625 
Q 39.453125 66.40625 31.78125 66.40625 
z
M 31.78125 74.21875 
Q 44.046875 74.21875 50.515625 64.515625 
Q 56.984375 54.828125 56.984375 36.375 
Q 56.984375 17.96875 50.515625 8.265625 
Q 44.046875 -1.421875 31.78125 -1.421875 
Q 19.53125 -1.421875 13.0625 8.265625 
Q 6.59375 17.96875 6.59375 36.375 
Q 6.59375 54.828125 13.0625 64.515625 
Q 19.53125 74.21875 31.78125 74.21875 
z
" id="DejaVuSans-48"/>
      </defs>
      <g transform="translate(230.784347 327.501344)scale(0.17 -0.17)">
       <use xlink:href="#DejaVuSans-48"/>
      </g>
     </g>
    </g>
    <g id="xtick_4">
     <g id="line2d_4">
      <g>
       <use style="stroke:#000000;stroke-width:0.8;" x="301.13637" xlink:href="#m167d5bbcba" y="307.584"/>
      </g>
     </g>
     <g id="text_4">
      <!-- 1 -->
      <g transform="translate(295.728245 327.501344)scale(0.17 -0.17)">
       <use xlink:href="#DejaVuSans-49"/>
      </g>
     </g>
    </g>
    <g id="xtick_5">
     <g id="line2d_5">
      <g>
       <use style="stroke:#000000;stroke-width:0.8;" x="366.080268" xlink:href="#m167d5bbcba" y="307.584"/>
      </g>
     </g>
     <g id="text_5">
      <!-- 2 -->
      <g transform="translate(360.672143 327.501344)scale(0.17 -0.17)">
       <use xlink:href="#DejaVuSans-50"/>
      </g>
     </g>
    </g>
    <g id="text_6">
     <!-- Position in Radian -->
     <defs>
      <path d="M 19.671875 64.796875 
L 19.671875 37.40625 
L 32.078125 37.40625 
Q 38.96875 37.40625 42.71875 40.96875 
Q 46.484375 44.53125 46.484375 51.125 
Q 46.484375 57.671875 42.71875 61.234375 
Q 38.96875 64.796875 32.078125 64.796875 
z
M 9.8125 72.90625 
L 32.078125 72.90625 
Q 44.34375 72.90625 50.609375 67.359375 
Q 56.890625 61.8125 56.890625 51.125 
Q 56.890625 40.328125 50.609375 34.8125 
Q 44.34375 29.296875 32.078125 29.296875 
L 19.671875 29.296875 
L 19.671875 0 
L 9.8125 0 
z
" id="DejaVuSans-80"/>
      <path d="M 30.609375 48.390625 
Q 23.390625 48.390625 19.1875 42.75 
Q 14.984375 37.109375 14.984375 27.296875 
Q 14.984375 17.484375 19.15625 11.84375 
Q 23.34375 6.203125 30.609375 6.203125 
Q 37.796875 6.203125 41.984375 11.859375 
Q 46.1875 17.53125 46.1875 27.296875 
Q 46.1875 37.015625 41.984375 42.703125 
Q 37.796875 48.390625 30.609375 48.390625 
z
M 30.609375 56 
Q 42.328125 56 49.015625 48.375 
Q 55.71875 40.765625 55.71875 27.296875 
Q 55.71875 13.875 49.015625 6.21875 
Q 42.328125 -1.421875 30.609375 -1.421875 
Q 18.84375 -1.421875 12.171875 6.21875 
Q 5.515625 13.875 5.515625 27.296875 
Q 5.515625 40.765625 12.171875 48.375 
Q 18.84375 56 30.609375 56 
z
" id="DejaVuSans-111"/>
      <path d="M 44.28125 53.078125 
L 44.28125 44.578125 
Q 40.484375 46.53125 36.375 47.5 
Q 32.28125 48.484375 27.875 48.484375 
Q 21.1875 48.484375 17.84375 46.4375 
Q 14.5 44.390625 14.5 40.28125 
Q 14.5 37.15625 16.890625 35.375 
Q 19.28125 33.59375 26.515625 31.984375 
L 29.59375 31.296875 
Q 39.15625 29.25 43.1875 25.515625 
Q 47.21875 21.78125 47.21875 15.09375 
Q 47.21875 7.46875 41.1875 3.015625 
Q 35.15625 -1.421875 24.609375 -1.421875 
Q 20.21875 -1.421875 15.453125 -0.5625 
Q 10.6875 0.296875 5.421875 2 
L 5.421875 11.28125 
Q 10.40625 8.6875 15.234375 7.390625 
Q 20.0625 6.109375 24.8125 6.109375 
Q 31.15625 6.109375 34.5625 8.28125 
Q 37.984375 10.453125 37.984375 14.40625 
Q 37.984375 18.0625 35.515625 20.015625 
Q 33.0625 21.96875 24.703125 23.78125 
L 21.578125 24.515625 
Q 13.234375 26.265625 9.515625 29.90625 
Q 5.8125 33.546875 5.8125 39.890625 
Q 5.8125 47.609375 11.28125 51.796875 
Q 16.75 56 26.8125 56 
Q 31.78125 56 36.171875 55.265625 
Q 40.578125 54.546875 44.28125 53.078125 
z
" id="DejaVuSans-115"/>
      <path d="M 9.421875 54.6875 
L 18.40625 54.6875 
L 18.40625 0 
L 9.421875 0 
z
M 9.421875 75.984375 
L 18.40625 75.984375 
L 18.40625 64.59375 
L 9.421875 64.59375 
z
" id="DejaVuSans-105"/>
      <path d="M 18.3125 70.21875 
L 18.3125 54.6875 
L 36.8125 54.6875 
L 36.8125 47.703125 
L 18.3125 47.703125 
L 18.3125 18.015625 
Q 18.3125 11.328125 20.140625 9.421875 
Q 21.96875 7.515625 27.59375 7.515625 
L 36.8125 7.515625 
L 36.8125 0 
L 27.59375 0 
Q 17.1875 0 13.234375 3.875 
Q 9.28125 7.765625 9.28125 18.015625 
L 9.28125 47.703125 
L 2.6875 47.703125 
L 2.6875 54.6875 
L 9.28125 54.6875 
L 9.28125 70.21875 
z
" id="DejaVuSans-116"/>
      <path d="M 54.890625 33.015625 
L 54.890625 0 
L 45.90625 0 
L 45.90625 32.71875 
Q 45.90625 40.484375 42.875 44.328125 
Q 39.84375 48.1875 33.796875 48.1875 
Q 26.515625 48.1875 22.3125 43.546875 
Q 18.109375 38.921875 18.109375 30.90625 
L 18.109375 0 
L 9.078125 0 
L 9.078125 54.6875 
L 18.109375 54.6875 
L 18.109375 46.1875 
Q 21.34375 51.125 25.703125 53.5625 
Q 30.078125 56 35.796875 56 
Q 45.21875 56 50.046875 50.171875 
Q 54.890625 44.34375 54.890625 33.015625 
z
" id="DejaVuSans-110"/>
      <path id="DejaVuSans-32"/>
      <path d="M 44.390625 34.1875 
Q 47.5625 33.109375 50.5625 29.59375 
Q 53.5625 26.078125 56.59375 19.921875 
L 66.609375 0 
L 56 0 
L 46.6875 18.703125 
Q 43.0625 26.03125 39.671875 28.421875 
Q 36.28125 30.8125 30.421875 30.8125 
L 19.671875 30.8125 
L 19.671875 0 
L 9.8125 0 
L 9.8125 72.90625 
L 32.078125 72.90625 
Q 44.578125 72.90625 50.734375 67.671875 
Q 56.890625 62.453125 56.890625 51.90625 
Q 56.890625 45.015625 53.6875 40.46875 
Q 50.484375 35.9375 44.390625 34.1875 
z
M 19.671875 64.796875 
L 19.671875 38.921875 
L 32.078125 38.921875 
Q 39.203125 38.921875 42.84375 42.21875 
Q 46.484375 45.515625 46.484375 51.90625 
Q 46.484375 58.296875 42.84375 61.546875 
Q 39.203125 64.796875 32.078125 64.796875 
z
" id="DejaVuSans-82"/>
      <path d="M 34.28125 27.484375 
Q 23.390625 27.484375 19.1875 25 
Q 14.984375 22.515625 14.984375 16.5 
Q 14.984375 11.71875 18.140625 8.90625 
Q 21.296875 6.109375 26.703125 6.109375 
Q 34.1875 6.109375 38.703125 11.40625 
Q 43.21875 16.703125 43.21875 25.484375 
L 43.21875 27.484375 
z
M 52.203125 31.203125 
L 52.203125 0 
L 43.21875 0 
L 43.21875 8.296875 
Q 40.140625 3.328125 35.546875 0.953125 
Q 30.953125 -1.421875 24.3125 -1.421875 
Q 15.921875 -1.421875 10.953125 3.296875 
Q 6 8.015625 6 15.921875 
Q 6 25.140625 12.171875 29.828125 
Q 18.359375 34.515625 30.609375 34.515625 
L 43.21875 34.515625 
L 43.21875 35.40625 
Q 43.21875 41.609375 39.140625 45 
Q 35.0625 48.390625 27.6875 48.390625 
Q 23 48.390625 18.546875 47.265625 
Q 14.109375 46.140625 10.015625 43.890625 
L 10.015625 52.203125 
Q 14.9375 54.109375 19.578125 55.046875 
Q 24.21875 56 28.609375 56 
Q 40.484375 56 46.34375 49.84375 
Q 52.203125 43.703125 52.203125 31.203125 
z
" id="DejaVuSans-97"/>
      <path d="M 45.40625 46.390625 
L 45.40625 75.984375 
L 54.390625 75.984375 
L 54.390625 0 
L 45.40625 0 
L 45.40625 8.203125 
Q 42.578125 3.328125 38.25 0.953125 
Q 33.9375 -1.421875 27.875 -1.421875 
Q 17.96875 -1.421875 11.734375 6.484375 
Q 5.515625 14.40625 5.515625 27.296875 
Q 5.515625 40.1875 11.734375 48.09375 
Q 17.96875 56 27.875 56 
Q 33.9375 56 38.25 53.625 
Q 42.578125 51.265625 45.40625 46.390625 
z
M 14.796875 27.296875 
Q 14.796875 17.390625 18.875 11.75 
Q 22.953125 6.109375 30.078125 6.109375 
Q 37.203125 6.109375 41.296875 11.75 
Q 45.40625 17.390625 45.40625 27.296875 
Q 45.40625 37.203125 41.296875 42.84375 
Q 37.203125 48.484375 30.078125 48.484375 
Q 22.953125 48.484375 18.875 42.84375 
Q 14.796875 37.203125 14.796875 27.296875 
z
" id="DejaVuSans-100"/>
     </defs>
     <g transform="translate(102.024844 357.832125)scale(0.3 -0.3)">
      <use xlink:href="#DejaVuSans-80"/>
      <use x="60.255859" xlink:href="#DejaVuSans-111"/>
      <use x="121.4375" xlink:href="#DejaVuSans-115"/>
      <use x="173.537109" xlink:href="#DejaVuSans-105"/>
      <use x="201.320312" xlink:href="#DejaVuSans-116"/>
      <use x="240.529297" xlink:href="#DejaVuSans-105"/>
      <use x="268.3125" xlink:href="#DejaVuSans-111"/>
      <use x="329.494141" xlink:href="#DejaVuSans-110"/>
      <use x="392.873047" xlink:href="#DejaVuSans-32"/>
      <use x="424.660156" xlink:href="#DejaVuSans-105"/>
      <use x="452.443359" xlink:href="#DejaVuSans-110"/>
      <use x="515.822266" xlink:href="#DejaVuSans-32"/>
      <use x="547.609375" xlink:href="#DejaVuSans-82"/>
      <use x="617.060547" xlink:href="#DejaVuSans-97"/>
      <use x="678.339844" xlink:href="#DejaVuSans-100"/>
      <use x="741.816406" xlink:href="#DejaVuSans-105"/>
      <use x="769.599609" xlink:href="#DejaVuSans-97"/>
      <use x="830.878906" xlink:href="#DejaVuSans-110"/>
     </g>
    </g>
   </g>
   <g id="matplotlib.axis_2">
    <g id="ytick_1">
     <g id="line2d_6">
      <defs>
       <path d="M 0 0 
L -3.5 0 
" id="m4d0a026766" style="stroke:#000000;stroke-width:0.8;"/>
      </defs>
      <g>
       <use style="stroke:#000000;stroke-width:0.8;" x="57.6" xlink:href="#m4d0a026766" y="307.584"/>
      </g>
     </g>
     <g id="text_7">
      <!-- 0.00 -->
      <defs>
       <path d="M 10.6875 12.40625 
L 21 12.40625 
L 21 0 
L 10.6875 0 
z
" id="DejaVuSans-46"/>
      </defs>
      <g transform="translate(12.748438 314.042672)scale(0.17 -0.17)">
       <use xlink:href="#DejaVuSans-48"/>
       <use x="63.623047" xlink:href="#DejaVuSans-46"/>
       <use x="95.410156" xlink:href="#DejaVuSans-48"/>
       <use x="159.033203" xlink:href="#DejaVuSans-48"/>
      </g>
     </g>
    </g>
    <g id="ytick_2">
     <g id="line2d_7">
      <g>
       <use style="stroke:#000000;stroke-width:0.8;" x="57.6" xlink:href="#m4d0a026766" y="264.136789"/>
      </g>
     </g>
     <g id="text_8">
      <!-- 0.25 -->
      <defs>
       <path d="M 10.796875 72.90625 
L 49.515625 72.90625 
L 49.515625 64.59375 
L 19.828125 64.59375 
L 19.828125 46.734375 
Q 21.96875 47.46875 24.109375 47.828125 
Q 26.265625 48.1875 28.421875 48.1875 
Q 40.625 48.1875 47.75 41.5 
Q 54.890625 34.8125 54.890625 23.390625 
Q 54.890625 11.625 47.5625 5.09375 
Q 40.234375 -1.421875 26.90625 -1.421875 
Q 22.3125 -1.421875 17.546875 -0.640625 
Q 12.796875 0.140625 7.71875 1.703125 
L 7.71875 11.625 
Q 12.109375 9.234375 16.796875 8.0625 
Q 21.484375 6.890625 26.703125 6.890625 
Q 35.15625 6.890625 40.078125 11.328125 
Q 45.015625 15.765625 45.015625 23.390625 
Q 45.015625 31 40.078125 35.4375 
Q 35.15625 39.890625 26.703125 39.890625 
Q 22.75 39.890625 18.8125 39.015625 
Q 14.890625 38.140625 10.796875 36.28125 
z
" id="DejaVuSans-53"/>
      </defs>
      <g transform="translate(12.748438 270.595461)scale(0.17 -0.17)">
       <use xlink:href="#DejaVuSans-48"/>
       <use x="63.623047" xlink:href="#DejaVuSans-46"/>
       <use x="95.410156" xlink:href="#DejaVuSans-50"/>
       <use x="159.033203" xlink:href="#DejaVuSans-53"/>
      </g>
     </g>
    </g>
    <g id="ytick_3">
     <g id="line2d_8">
      <g>
       <use style="stroke:#000000;stroke-width:0.8;" x="57.6" xlink:href="#m4d0a026766" y="220.689578"/>
      </g>
     </g>
     <g id="text_9">
      <!-- 0.50 -->
      <g transform="translate(12.748438 227.14825)scale(0.17 -0.17)">
       <use xlink:href="#DejaVuSans-48"/>
       <use x="63.623047" xlink:href="#DejaVuSans-46"/>
       <use x="95.410156" xlink:href="#DejaVuSans-53"/>
       <use x="159.033203" xlink:href="#DejaVuSans-48"/>
      </g>
     </g>
    </g>
    <g id="ytick_4">
     <g id="line2d_9">
      <g>
       <use style="stroke:#000000;stroke-width:0.8;" x="57.6" xlink:href="#m4d0a026766" y="177.242367"/>
      </g>
     </g>
     <g id="text_10">
      <!-- 0.75 -->
      <defs>
       <path d="M 8.203125 72.90625 
L 55.078125 72.90625 
L 55.078125 68.703125 
L 28.609375 0 
L 18.3125 0 
L 43.21875 64.59375 
L 8.203125 64.59375 
z
" id="DejaVuSans-55"/>
      </defs>
      <g transform="translate(12.748438 183.701038)scale(0.17 -0.17)">
       <use xlink:href="#DejaVuSans-48"/>
       <use x="63.623047" xlink:href="#DejaVuSans-46"/>
       <use x="95.410156" xlink:href="#DejaVuSans-55"/>
       <use x="159.033203" xlink:href="#DejaVuSans-53"/>
      </g>
     </g>
    </g>
    <g id="ytick_5">
     <g id="line2d_10">
      <g>
       <use style="stroke:#000000;stroke-width:0.8;" x="57.6" xlink:href="#m4d0a026766" y="133.795155"/>
      </g>
     </g>
     <g id="text_11">
      <!-- 1.00 -->
      <g transform="translate(12.748438 140.253827)scale(0.17 -0.17)">
       <use xlink:href="#DejaVuSans-49"/>
       <use x="63.623047" xlink:href="#DejaVuSans-46"/>
       <use x="95.410156" xlink:href="#DejaVuSans-48"/>
       <use x="159.033203" xlink:href="#DejaVuSans-48"/>
      </g>
     </g>
    </g>
    <g id="ytick_6">
     <g id="line2d_11">
      <g>
       <use style="stroke:#000000;stroke-width:0.8;" x="57.6" xlink:href="#m4d0a026766" y="90.347944"/>
      </g>
     </g>
     <g id="text_12">
      <!-- 1.25 -->
      <g transform="translate(12.748438 96.806616)scale(0.17 -0.17)">
       <use xlink:href="#DejaVuSans-49"/>
       <use x="63.623047" xlink:href="#DejaVuSans-46"/>
       <use x="95.410156" xlink:href="#DejaVuSans-50"/>
       <use x="159.033203" xlink:href="#DejaVuSans-53"/>
      </g>
     </g>
    </g>
    <g id="ytick_7">
     <g id="line2d_12">
      <g>
       <use style="stroke:#000000;stroke-width:0.8;" x="57.6" xlink:href="#m4d0a026766" y="46.900733"/>
      </g>
     </g>
     <g id="text_13">
      <!-- 1.50 -->
      <g transform="translate(12.748438 53.359405)scale(0.17 -0.17)">
       <use xlink:href="#DejaVuSans-49"/>
       <use x="63.623047" xlink:href="#DejaVuSans-46"/>
       <use x="95.410156" xlink:href="#DejaVuSans-53"/>
       <use x="159.033203" xlink:href="#DejaVuSans-48"/>
      </g>
     </g>
    </g>
    <g id="text_14">
     <!-- Density -->
     <defs>
      <path d="M 19.671875 64.796875 
L 19.671875 8.109375 
L 31.59375 8.109375 
Q 46.6875 8.109375 53.6875 14.9375 
Q 60.6875 21.78125 60.6875 36.53125 
Q 60.6875 51.171875 53.6875 57.984375 
Q 46.6875 64.796875 31.59375 64.796875 
z
M 9.8125 72.90625 
L 30.078125 72.90625 
Q 51.265625 72.90625 61.171875 64.09375 
Q 71.09375 55.28125 71.09375 36.53125 
Q 71.09375 17.671875 61.125 8.828125 
Q 51.171875 0 30.078125 0 
L 9.8125 0 
z
" id="DejaVuSans-68"/>
      <path d="M 56.203125 29.59375 
L 56.203125 25.203125 
L 14.890625 25.203125 
Q 15.484375 15.921875 20.484375 11.0625 
Q 25.484375 6.203125 34.421875 6.203125 
Q 39.59375 6.203125 44.453125 7.46875 
Q 49.3125 8.734375 54.109375 11.28125 
L 54.109375 2.78125 
Q 49.265625 0.734375 44.1875 -0.34375 
Q 39.109375 -1.421875 33.890625 -1.421875 
Q 20.796875 -1.421875 13.15625 6.1875 
Q 5.515625 13.8125 5.515625 26.8125 
Q 5.515625 40.234375 12.765625 48.109375 
Q 20.015625 56 32.328125 56 
Q 43.359375 56 49.78125 48.890625 
Q 56.203125 41.796875 56.203125 29.59375 
z
M 47.21875 32.234375 
Q 47.125 39.59375 43.09375 43.984375 
Q 39.0625 48.390625 32.421875 48.390625 
Q 24.90625 48.390625 20.390625 44.140625 
Q 15.875 39.890625 15.1875 32.171875 
z
" id="DejaVuSans-101"/>
      <path d="M 32.171875 -5.078125 
Q 28.375 -14.84375 24.75 -17.8125 
Q 21.140625 -20.796875 15.09375 -20.796875 
L 7.90625 -20.796875 
L 7.90625 -13.28125 
L 13.1875 -13.28125 
Q 16.890625 -13.28125 18.9375 -11.515625 
Q 21 -9.765625 23.484375 -3.21875 
L 25.09375 0.875 
L 2.984375 54.6875 
L 12.5 54.6875 
L 29.59375 11.921875 
L 46.6875 54.6875 
L 56.203125 54.6875 
z
" id="DejaVuSans-121"/>
     </defs>
     <g transform="translate(2.509375 231.553781)rotate(-90)scale(0.3 -0.3)">
      <use xlink:href="#DejaVuSans-68"/>
      <use x="77.001953" xlink:href="#DejaVuSans-101"/>
      <use x="138.525391" xlink:href="#DejaVuSans-110"/>
      <use x="201.904297" xlink:href="#DejaVuSans-115"/>
      <use x="254.003906" xlink:href="#DejaVuSans-105"/>
      <use x="281.787109" xlink:href="#DejaVuSans-116"/>
      <use x="320.996094" xlink:href="#DejaVuSans-121"/>
     </g>
    </g>
   </g>
   <g id="line2d_13">
    <path clip-path="url(#p351ac5f95d)" d="M 73.832727 307.584 
L 144.751464 307.49824 
L 145.141127 307.231604 
L 145.465847 306.705401 
L 145.920454 305.419676 
L 147.0245 302.061447 
L 147.414164 301.420897 
L 147.608995 301.396803 
L 147.803827 301.602873 
L 148.583154 302.80258 
L 148.777985 302.682285 
L 149.102705 302.107342 
L 150.141807 300.01138 
L 150.336639 299.943165 
L 150.531471 300.084717 
L 151.18091 300.888984 
L 151.375741 300.595853 
L 151.635517 299.601137 
L 152.284956 296.681667 
L 152.479788 296.557515 
L 152.674619 296.937272 
L 152.999339 298.417811 
L 153.648778 301.45988 
L 153.843609 301.718613 
L 154.038441 301.629372 
L 154.428105 300.923181 
L 155.467207 298.731399 
L 156.246534 295.757276 
L 156.441365 295.650605 
L 156.636197 295.854285 
L 157.02586 296.784475 
L 158.000019 299.783412 
L 158.714402 302.169516 
L 158.974177 302.447277 
L 159.104065 302.375551 
L 159.298897 301.975536 
L 159.623616 300.630515 
L 160.337999 297.531249 
L 160.922494 295.866311 
L 161.18227 293.846339 
L 161.571933 288.352135 
L 162.35126 276.384232 
L 162.805867 272.780146 
L 163.260475 270.632322 
L 163.455306 270.356762 
L 163.585194 270.517453 
L 163.780026 271.365792 
L 164.039801 273.66245 
L 164.494409 280.259814 
L 165.598455 297.503607 
L 165.858231 298.752366 
L 165.923174 298.766997 
L 166.053062 298.414742 
L 166.247894 296.920625 
L 166.572613 292.078916 
L 167.546772 275.105014 
L 167.806547 273.871302 
L 167.936435 273.812323 
L 168.066323 274.047832 
L 168.326099 275.238018 
L 168.650818 277.91571 
L 169.170369 284.442054 
L 169.949696 293.838225 
L 170.534191 298.095716 
L 170.923855 299.645072 
L 171.118686 299.789265 
L 171.248574 299.580701 
L 171.443406 298.77106 
L 171.768125 296.152089 
L 172.287676 289.685679 
L 173.391723 275.647846 
L 173.651498 274.743548 
L 173.781386 274.870911 
L 174.041162 275.952895 
L 174.495769 277.943085 
L 174.625657 278.052858 
L 174.755545 277.921079 
L 175.080264 276.963046 
L 175.404984 276.180884 
L 175.534871 276.144985 
L 175.729703 276.453095 
L 176.054423 277.756639 
L 176.703861 280.542339 
L 176.963637 280.868579 
L 177.158469 280.835226 
L 177.418244 280.55283 
L 177.742964 279.841232 
L 178.067683 278.540937 
L 179.041842 273.844618 
L 179.17173 273.939791 
L 179.366561 274.642437 
L 179.691281 276.982336 
L 180.145888 279.979823 
L 180.275776 280.102443 
L 180.405664 279.744396 
L 180.600495 278.330497 
L 181.704542 267.926165 
L 181.964317 267.472255 
L 182.159149 267.414032 
L 182.353981 267.631027 
L 182.548812 268.252258 
L 182.873532 270.377597 
L 184.237354 281.327694 
L 184.756905 284.197537 
L 184.886793 284.327788 
L 185.01668 284.067618 
L 185.211512 282.874554 
L 185.536232 279.014585 
L 186.120727 271.630307 
L 186.315558 270.883508 
L 186.380502 270.907394 
L 186.51039 271.337625 
L 186.770166 273.341696 
L 187.289717 277.296078 
L 187.419605 277.38208 
L 187.549492 276.951125 
L 187.809268 274.642778 
L 188.393763 265.873378 
L 190.017361 242.941513 
L 190.082304 242.844676 
L 190.212192 243.283092 
L 190.407024 245.417614 
L 191.186351 256.209607 
L 191.251295 256.209855 
L 191.381182 255.65769 
L 191.640958 252.816599 
L 193.199612 231.083684 
L 193.329499 230.807128 
L 193.459387 231.040005 
L 193.654219 232.297926 
L 194.043882 236.951755 
L 194.49849 241.701732 
L 194.758265 242.487002 
L 194.888153 242.365122 
L 195.147928 241.531162 
L 195.862311 238.251261 
L 196.251975 234.667025 
L 196.641638 231.457478 
L 196.706582 231.335507 
L 196.771526 231.396184 
L 196.901414 232.117763 
L 197.161189 235.926088 
L 197.875572 248.558643 
L 197.940516 248.522558 
L 198.070404 247.462196 
L 198.330179 241.624424 
L 199.17445 217.531916 
L 199.239394 217.308944 
L 199.304338 217.439789 
L 199.434226 218.722248 
L 199.694001 224.649097 
L 200.408384 243.079498 
L 200.538272 243.649567 
L 200.66816 243.020438 
L 200.862992 240.121903 
L 201.382543 226.895233 
L 201.967038 214.689503 
L 202.421645 209.188753 
L 202.681421 207.642997 
L 202.811308 207.498445 
L 202.941196 207.872523 
L 203.136028 209.488109 
L 203.460747 214.581682 
L 203.980299 222.737157 
L 204.17513 223.428509 
L 204.305018 222.880676 
L 204.564794 219.778407 
L 205.149289 212.054564 
L 205.214233 211.881133 
L 205.279177 211.911491 
L 205.409064 212.572209 
L 205.66884 215.840291 
L 206.188391 223.189699 
L 206.318279 223.725241 
L 206.383223 223.700044 
L 206.513111 223.074757 
L 206.772886 219.977983 
L 207.357381 212.526915 
L 207.487269 212.193638 
L 207.617157 212.452947 
L 207.876932 214.149291 
L 208.201652 216.062568 
L 208.266596 216.123239 
L 208.396484 215.759687 
L 208.591315 213.914641 
L 208.916035 208.0168 
L 209.565474 196.23253 
L 209.955137 193.366677 
L 210.344801 190.804467 
L 211.254015 183.633512 
L 211.383903 183.711405 
L 211.578735 184.367532 
L 212.358061 187.673476 
L 212.552893 187.833412 
L 212.747725 187.682763 
L 213.0075 187.072432 
L 213.591995 184.821234 
L 214.046603 183.428769 
L 214.176491 183.482624 
L 214.306378 183.975352 
L 214.50121 185.880776 
L 214.760986 191.192875 
L 215.150649 204.767749 
L 215.929976 232.301962 
L 216.254695 236.653161 
L 216.384583 237.012559 
L 216.514471 236.675563 
L 216.709303 235.040849 
L 217.034022 230.021259 
L 217.813349 216.749548 
L 217.943237 216.260782 
L 218.008181 216.332574 
L 218.138068 217.101373 
L 218.397844 220.654805 
L 218.852451 227.392144 
L 218.982339 227.852717 
L 219.112227 227.244527 
L 219.307059 224.22597 
L 219.631778 214.515619 
L 220.411105 189.848407 
L 220.67088 187.636597 
L 220.735824 187.635279 
L 220.865712 188.161883 
L 221.125488 190.641395 
L 221.774927 199.703824 
L 222.943917 218.754078 
L 223.008861 218.749514 
L 223.138748 218.173352 
L 223.33358 215.938773 
L 223.6583 209.039713 
L 224.762346 181.071681 
L 224.892234 180.62407 
L 225.022122 181.058121 
L 225.281897 183.863277 
L 225.801448 189.917502 
L 225.99628 190.38801 
L 226.126168 190.10041 
L 226.385943 188.591172 
L 227.295158 182.546632 
L 227.554934 181.781462 
L 227.684821 181.803241 
L 227.814709 182.201747 
L 228.009541 183.644613 
L 228.33426 188.351243 
L 229.048643 199.583669 
L 229.113587 199.760595 
L 229.178531 199.698671 
L 229.308419 198.826084 
L 229.50325 195.667529 
L 229.892914 184.33491 
L 230.542353 165.2652 
L 230.867072 160.923396 
L 231.126848 159.912597 
L 231.256736 160.026887 
L 231.451567 160.803178 
L 231.776287 163.329898 
L 232.49067 169.563487 
L 232.685501 169.933072 
L 232.815389 169.689981 
L 233.075165 168.215772 
L 234.633818 155.684084 
L 234.893594 149.056102 
L 235.15337 136.38184 
L 235.543033 103.89227 
L 236.127528 56.399833 
L 236.257416 54.144 
L 236.32236 54.699449 
L 236.452248 59.159868 
L 236.712023 79.498959 
L 237.621238 166.484864 
L 237.881013 174.842236 
L 238.010901 176.042203 
L 238.075845 176.030389 
L 238.205733 175.009176 
L 238.465508 170.281484 
L 240.348881 128.511974 
L 240.413825 128.39552 
L 240.543713 128.843047 
L 240.738545 130.992364 
L 241.258096 140.893811 
L 241.842591 150.37413 
L 242.232254 154.164463 
L 242.427086 154.686509 
L 242.556974 154.21202 
L 242.751806 152.026302 
L 243.076525 144.909261 
L 243.596076 133.656936 
L 243.725964 132.831321 
L 243.790908 132.846689 
L 243.920796 133.743627 
L 244.115627 137.109057 
L 244.505291 149.137709 
L 245.739225 191.057691 
L 246.583496 211.167702 
L 246.908215 215.203538 
L 247.167991 216.305079 
L 247.297878 216.243848 
L 247.49271 215.539638 
L 247.81743 213.12085 
L 248.856532 204.109379 
L 248.98642 204.424685 
L 249.181252 205.862569 
L 250.025522 214.334454 
L 250.090466 214.360242 
L 250.220354 214.01265 
L 250.480129 211.968193 
L 251.389344 202.70373 
L 251.519232 202.42303 
L 251.584176 202.447705 
L 251.714064 202.843955 
L 251.908895 204.310163 
L 252.233615 208.778103 
L 252.947998 222.929864 
L 253.792268 239.013935 
L 254.052044 240.439574 
L 254.116988 240.363857 
L 254.246876 239.703284 
L 254.506651 236.644165 
L 255.15609 224.702191 
L 255.870473 209.156375 
L 256.454968 196.952808 
L 256.584856 196.188734 
L 256.6498 196.241353 
L 256.779688 197.282799 
L 256.974519 201.168796 
L 257.364183 215.016161 
L 257.948678 234.682205 
L 258.273397 239.473476 
L 258.663061 241.853753 
L 259.507331 245.811741 
L 259.637219 245.654382 
L 259.832051 244.670978 
L 260.221714 240.842092 
L 260.611378 237.872965 
L 260.741265 237.783678 
L 260.871153 238.264403 
L 261.130929 240.712099 
L 261.65048 246.057119 
L 261.715424 246.137178 
L 261.845312 245.619989 
L 262.040143 243.074506 
L 262.429807 233.474362 
L 262.81947 225.254658 
L 263.014302 224.295944 
L 263.14419 225.08275 
L 263.403965 229.564122 
L 264.443068 252.369627 
L 264.572955 252.888961 
L 264.637899 252.83685 
L 264.767787 252.090711 
L 265.027563 248.154175 
L 265.936777 229.954407 
L 266.001721 229.887876 
L 266.131609 230.497135 
L 266.326441 233.047356 
L 267.430487 251.932263 
L 267.625319 252.39398 
L 267.755206 252.351186 
L 268.014982 251.801569 
L 268.339701 250.485529 
L 268.664421 248.093219 
L 269.183972 241.984934 
L 269.768467 235.823551 
L 270.48285 229.570512 
L 270.937457 222.339676 
L 271.65184 210.619218 
L 271.846672 209.766125 
L 271.911616 209.827119 
L 272.041504 210.470958 
L 272.301279 213.701359 
L 272.690943 222.543293 
L 273.340382 244.321837 
L 273.794989 256.53726 
L 273.989821 258.09132 
L 274.054764 257.996134 
L 274.184652 256.922201 
L 274.444428 251.957077 
L 275.028923 239.481217 
L 275.223755 238.420618 
L 275.288698 238.501468 
L 275.48353 239.767778 
L 276.197913 246.232024 
L 276.457689 246.646457 
L 276.65252 246.842136 
L 276.847352 247.483497 
L 277.107128 249.460922 
L 277.691623 256.805431 
L 278.406006 264.229678 
L 279.055445 269.817529 
L 279.185332 270.05117 
L 279.31522 269.674617 
L 279.510052 267.83146 
L 279.834771 261.716429 
L 280.743986 242.696062 
L 281.133649 239.198864 
L 281.393425 238.361956 
L 281.523313 238.4936 
L 281.718144 239.560054 
L 281.97792 242.707425 
L 282.887135 256.030074 
L 283.017022 256.306771 
L 283.14691 256.016881 
L 283.341742 254.583792 
L 283.666461 249.873674 
L 284.705564 232.006832 
L 284.770508 231.946638 
L 284.900395 232.427762 
L 285.095227 234.493994 
L 285.614778 243.904885 
L 286.134329 251.612529 
L 286.588937 255.240789 
L 286.913656 256.325139 
L 287.043544 256.391215 
L 287.173432 256.251601 
L 287.433207 255.482737 
L 287.887815 254.014718 
L 288.017702 253.973261 
L 288.14759 254.204328 
L 288.407366 255.453257 
L 289.121749 261.047664 
L 289.576356 265.651588 
L 290.615458 278.16561 
L 290.940178 279.323587 
L 291.394785 280.603723 
L 291.784449 282.649823 
L 292.758607 288.10667 
L 293.732765 292.466855 
L 294.382204 294.259551 
L 295.096587 297.020782 
L 295.226475 296.916995 
L 295.421307 296.072284 
L 295.681082 293.574838 
L 296.13569 286.35617 
L 296.655241 278.620776 
L 296.915016 276.938053 
L 297.044904 276.731201 
L 297.109848 276.761442 
L 297.30468 277.240994 
L 297.889175 279.168708 
L 298.084007 279.242759 
L 298.278838 279.015184 
L 298.798389 278.196555 
L 298.928277 278.224558 
L 299.123109 278.577276 
L 299.382885 279.624945 
L 300.097267 282.896217 
L 300.227155 282.823475 
L 300.421987 282.038404 
L 300.746706 279.154358 
L 301.655921 269.921512 
L 302.045584 267.891859 
L 302.30536 267.349729 
L 302.435248 267.377752 
L 302.630079 267.838541 
L 302.889855 269.278913 
L 303.214575 272.434367 
L 304.448509 286.400473 
L 304.578396 286.365816 
L 304.773228 285.582343 
L 305.097948 282.633579 
L 306.13705 271.316901 
L 306.266938 271.347883 
L 306.461769 272.222093 
L 306.786489 275.276218 
L 307.30604 282.501435 
L 308.085367 293.81581 
L 308.345142 294.892506 
L 308.47503 294.724311 
L 308.669862 293.783506 
L 309.64402 287.731529 
L 309.838852 287.664781 
L 310.033684 288.093665 
L 310.358403 289.700983 
L 311.007842 294.541694 
L 311.722225 299.582835 
L 312.046945 300.619808 
L 312.176832 300.687487 
L 312.30672 300.550347 
L 312.566496 299.719994 
L 313.021103 297.119033 
L 313.670542 292.100302 
L 314.125149 286.452076 
L 314.774588 278.152888 
L 315.034364 276.957062 
L 315.164252 276.999419 
L 315.359083 277.790338 
L 315.683803 280.518494 
L 316.528074 288.165347 
L 317.697064 294.083938 
L 318.021783 295.177484 
L 318.151671 295.253579 
L 318.281559 295.114001 
L 318.541334 294.321662 
L 319.580437 290.370785 
L 319.905156 289.97114 
L 320.099988 290.005889 
L 320.424707 290.382224 
L 320.814371 291.15338 
L 321.13909 292.344625 
L 321.593698 295.168571 
L 322.048305 297.46194 
L 322.243137 297.644537 
L 322.373024 297.472663 
L 322.697744 296.390933 
L 323.087407 295.226382 
L 323.282239 295.144697 
L 323.477071 295.41058 
L 324.191454 296.793641 
L 324.386285 296.738378 
L 324.646061 296.301903 
L 324.97078 295.142107 
L 325.360444 292.659154 
L 326.13977 287.300257 
L 326.334602 286.940667 
L 326.46449 286.954154 
L 326.659322 287.267898 
L 326.984041 288.409475 
L 327.308761 290.511964 
L 327.698424 294.688521 
L 328.412807 302.413659 
L 328.607639 303.080838 
L 328.737526 303.051078 
L 328.932358 302.363516 
L 329.322021 299.536213 
L 329.776629 296.557144 
L 329.97146 296.096415 
L 330.101348 296.116132 
L 330.29618 296.580581 
L 330.685843 298.490551 
L 331.270338 301.149316 
L 331.595058 301.690198 
L 331.854834 301.732123 
L 332.114609 301.535021 
L 332.374385 301.018626 
L 332.63416 299.959912 
L 333.023824 297.20265 
L 333.478431 294.121317 
L 333.673263 293.833628 
L 333.80315 294.13981 
L 334.062926 295.817348 
L 334.907197 302.361367 
L 335.102028 302.700545 
L 335.231916 302.686484 
L 335.426748 302.412653 
L 336.141131 301.035833 
L 336.271019 301.072322 
L 336.46585 301.420842 
L 336.79057 302.641697 
L 337.310121 304.595779 
L 337.569897 304.899871 
L 337.829672 304.808055 
L 338.284279 304.588036 
L 338.608999 304.772016 
L 338.998662 304.998101 
L 339.258438 304.917595 
L 339.777989 304.657215 
L 339.972821 304.793909 
L 340.29754 305.368212 
L 340.752148 306.157217 
L 340.946979 306.15861 
L 341.141811 305.834153 
L 341.401586 304.866287 
L 342.440689 300.139167 
L 342.570577 300.24441 
L 342.765408 300.805292 
L 343.155072 302.886104 
L 343.804511 306.224527 
L 344.194174 307.150896 
L 344.583837 307.48357 
L 345.103389 307.569824 
L 345.687884 307.482388 
L 346.012603 307.226981 
L 346.337323 306.595105 
L 346.726986 305.134345 
L 347.441369 302.273947 
L 347.636201 302.210792 
L 347.831032 302.591414 
L 348.155752 303.929946 
L 348.805191 306.624711 
L 349.194854 307.312195 
L 349.584518 307.529524 
L 350.298901 307.582844 
L 369.067687 307.584 
L 398.487273 307.584 
L 398.487273 307.584 
" style="fill:none;stroke:#ff7f0e;stroke-linecap:square;stroke-width:1.5;"/>
   </g>
   <g id="patch_103">
    <path d="M 57.6 307.584 
L 57.6 41.472 
" style="fill:none;stroke:#000000;stroke-linecap:square;stroke-linejoin:miter;stroke-width:0.8;"/>
   </g>
   <g id="patch_104">
    <path d="M 414.72 307.584 
L 414.72 41.472 
" style="fill:none;stroke:#000000;stroke-linecap:square;stroke-linejoin:miter;stroke-width:0.8;"/>
   </g>
   <g id="patch_105">
    <path d="M 57.6 307.584 
L 414.72 307.584 
" style="fill:none;stroke:#000000;stroke-linecap:square;stroke-linejoin:miter;stroke-width:0.8;"/>
   </g>
   <g id="patch_106">
    <path d="M 57.6 41.472 
L 414.72 41.472 
" style="fill:none;stroke:#000000;stroke-linecap:square;stroke-linejoin:miter;stroke-width:0.8;"/>
   </g>
  </g>
 </g>
 <defs>
  <clipPath id="p351ac5f95d">
   <rect height="266.112" width="357.12" x="57.6" y="41.472"/>
  </clipPath>
 </defs>
</svg>
