<?xml version="1.0" encoding="utf-8" standalone="no"?>
<!DOCTYPE svg PUBLIC "-//W3C//DTD SVG 1.1//EN"
  "http://www.w3.org/Graphics/SVG/1.1/DTD/svg11.dtd">
<!-- Created with matplotlib (https://matplotlib.org/) -->
<svg height="345.6pt" version="1.1" viewBox="0 0 460.8 345.6" width="460.8pt" xmlns="http://www.w3.org/2000/svg" xmlns:xlink="http://www.w3.org/1999/xlink">
 <defs>
  <style type="text/css">
*{stroke-linecap:butt;stroke-linejoin:round;}
  </style>
 </defs>
 <g id="figure_1">
  <g id="patch_1">
   <path d="M 0 345.6 
L 460.8 345.6 
L 460.8 0 
L 0 0 
z
" style="fill:#ffffff;"/>
  </g>
  <g id="axes_1">
   <g id="patch_2">
    <path d="M 57.6 307.584 
L 414.72 307.584 
L 414.72 41.472 
L 57.6 41.472 
z
" style="fill:#ffffff;"/>
   </g>
   <g id="patch_3">
    <path clip-path="url(#p087ae0a034)" d="M 89.567116 307.584 
L 92.65631 307.584 
L 92.65631 305.509764 
L 89.567116 305.509764 
z
" style="fill:#1f77b4;"/>
   </g>
   <g id="patch_4">
    <path clip-path="url(#p087ae0a034)" d="M 92.656324 307.584 
L 95.745533 307.584 
L 95.745533 307.065443 
L 92.656324 307.065443 
z
" style="fill:#1f77b4;"/>
   </g>
   <g id="patch_5">
    <path clip-path="url(#p087ae0a034)" d="M 95.745533 307.584 
L 98.834741 307.584 
L 98.834741 304.991216 
L 95.745533 304.991216 
z
" style="fill:#1f77b4;"/>
   </g>
   <g id="patch_6">
    <path clip-path="url(#p087ae0a034)" d="M 98.834741 307.584 
L 101.923936 307.584 
L 101.923936 306.546882 
L 98.834741 306.546882 
z
" style="fill:#1f77b4;"/>
   </g>
   <g id="patch_7">
    <path clip-path="url(#p087ae0a034)" d="M 101.923936 307.584 
L 105.013137 307.584 
L 105.013137 306.028326 
L 101.923936 306.028326 
z
" style="fill:#1f77b4;"/>
   </g>
   <g id="patch_8">
    <path clip-path="url(#p087ae0a034)" d="M 105.01313 307.584 
L 108.102332 307.584 
L 108.102332 305.509768 
L 105.01313 305.509768 
z
" style="fill:#1f77b4;"/>
   </g>
   <g id="patch_9">
    <path clip-path="url(#p087ae0a034)" d="M 108.102339 307.584 
L 111.19154 307.584 
L 111.19154 303.954094 
L 108.102339 303.954094 
z
" style="fill:#1f77b4;"/>
   </g>
   <g id="patch_10">
    <path clip-path="url(#p087ae0a034)" d="M 111.191533 307.584 
L 114.280734 307.584 
L 114.280734 305.509768 
L 111.191533 305.509768 
z
" style="fill:#1f77b4;"/>
   </g>
   <g id="patch_11">
    <path clip-path="url(#p087ae0a034)" d="M 114.280742 307.584 
L 117.369943 307.584 
L 117.369943 303.954094 
L 114.280742 303.954094 
z
" style="fill:#1f77b4;"/>
   </g>
   <g id="patch_12">
    <path clip-path="url(#p087ae0a034)" d="M 117.369936 307.584 
L 120.459137 307.584 
L 120.459137 305.509768 
L 117.369936 305.509768 
z
" style="fill:#1f77b4;"/>
   </g>
   <g id="patch_13">
    <path clip-path="url(#p087ae0a034)" d="M 120.459144 307.584 
L 123.548346 307.584 
L 123.548346 304.99121 
L 120.459144 304.99121 
z
" style="fill:#1f77b4;"/>
   </g>
   <g id="patch_14">
    <path clip-path="url(#p087ae0a034)" d="M 123.548339 307.584 
L 126.63754 307.584 
L 126.63754 304.472652 
L 123.548339 304.472652 
z
" style="fill:#1f77b4;"/>
   </g>
   <g id="patch_15">
    <path clip-path="url(#p087ae0a034)" d="M 126.637547 307.584 
L 129.726749 307.584 
L 129.726749 306.028326 
L 126.637547 306.028326 
z
" style="fill:#1f77b4;"/>
   </g>
   <g id="patch_16">
    <path clip-path="url(#p087ae0a034)" d="M 129.726742 307.584 
L 132.815943 307.584 
L 132.815943 304.472652 
L 129.726742 304.472652 
z
" style="fill:#1f77b4;"/>
   </g>
   <g id="patch_17">
    <path clip-path="url(#p087ae0a034)" d="M 132.81595 307.584 
L 135.905151 307.584 
L 135.905151 304.99121 
L 132.81595 304.99121 
z
" style="fill:#1f77b4;"/>
   </g>
   <g id="patch_18">
    <path clip-path="url(#p087ae0a034)" d="M 135.905144 307.584 
L 138.994346 307.584 
L 138.994346 303.435537 
L 135.905144 303.435537 
z
" style="fill:#1f77b4;"/>
   </g>
   <g id="patch_19">
    <path clip-path="url(#p087ae0a034)" d="M 138.994353 307.584 
L 142.083554 307.584 
L 142.083554 300.842747 
L 138.994353 300.842747 
z
" style="fill:#1f77b4;"/>
   </g>
   <g id="patch_20">
    <path clip-path="url(#p087ae0a034)" d="M 142.083547 307.584 
L 145.172749 307.584 
L 145.172749 299.805631 
L 142.083547 299.805631 
z
" style="fill:#1f77b4;"/>
   </g>
   <g id="patch_21">
    <path clip-path="url(#p087ae0a034)" d="M 145.172756 307.584 
L 148.261957 307.584 
L 148.261957 296.175726 
L 145.172756 296.175726 
z
" style="fill:#1f77b4;"/>
   </g>
   <g id="patch_22">
    <path clip-path="url(#p087ae0a034)" d="M 148.26195 307.584 
L 151.351152 307.584 
L 151.351152 292.54582 
L 148.26195 292.54582 
z
" style="fill:#1f77b4;"/>
   </g>
   <g id="patch_23">
    <path clip-path="url(#p087ae0a034)" d="M 151.351159 307.584 
L 154.44036 307.584 
L 154.44036 294.620052 
L 151.351159 294.620052 
z
" style="fill:#1f77b4;"/>
   </g>
   <g id="patch_24">
    <path clip-path="url(#p087ae0a034)" d="M 154.440353 307.584 
L 157.529554 307.584 
L 157.529554 284.248893 
L 154.440353 284.248893 
z
" style="fill:#1f77b4;"/>
   </g>
   <g id="patch_25">
    <path clip-path="url(#p087ae0a034)" d="M 157.529561 307.584 
L 160.618763 307.584 
L 160.618763 285.804567 
L 157.529561 285.804567 
z
" style="fill:#1f77b4;"/>
   </g>
   <g id="patch_26">
    <path clip-path="url(#p087ae0a034)" d="M 160.618756 307.584 
L 163.707957 307.584 
L 163.707957 289.95303 
L 160.618756 289.95303 
z
" style="fill:#1f77b4;"/>
   </g>
   <g id="patch_27">
    <path clip-path="url(#p087ae0a034)" d="M 163.707964 307.584 
L 166.797166 307.584 
L 166.797166 278.544756 
L 163.707964 278.544756 
z
" style="fill:#1f77b4;"/>
   </g>
   <g id="patch_28">
    <path clip-path="url(#p087ae0a034)" d="M 166.797166 307.584 
L 169.886367 307.584 
L 169.886367 284.248893 
L 166.797166 284.248893 
z
" style="fill:#1f77b4;"/>
   </g>
   <g id="patch_29">
    <path clip-path="url(#p087ae0a034)" d="M 169.886367 307.584 
L 172.975569 307.584 
L 172.975569 280.618988 
L 169.886367 280.618988 
z
" style="fill:#1f77b4;"/>
   </g>
   <g id="patch_30">
    <path clip-path="url(#p087ae0a034)" d="M 172.975569 307.584 
L 176.06477 307.584 
L 176.06477 274.91485 
L 172.975569 274.91485 
z
" style="fill:#1f77b4;"/>
   </g>
   <g id="patch_31">
    <path clip-path="url(#p087ae0a034)" d="M 176.06477 307.584 
L 179.153971 307.584 
L 179.153971 268.692155 
L 176.06477 268.692155 
z
" style="fill:#1f77b4;"/>
   </g>
   <g id="patch_32">
    <path clip-path="url(#p087ae0a034)" d="M 179.153971 307.584 
L 182.243173 307.584 
L 182.243173 264.025134 
L 179.153971 264.025134 
z
" style="fill:#1f77b4;"/>
   </g>
   <g id="patch_33">
    <path clip-path="url(#p087ae0a034)" d="M 182.243173 307.584 
L 185.332374 307.584 
L 185.332374 254.691091 
L 182.243173 254.691091 
z
" style="fill:#1f77b4;"/>
   </g>
   <g id="patch_34">
    <path clip-path="url(#p087ae0a034)" d="M 185.332374 307.584 
L 188.421576 307.584 
L 188.421576 248.986954 
L 185.332374 248.986954 
z
" style="fill:#1f77b4;"/>
   </g>
   <g id="patch_35">
    <path clip-path="url(#p087ae0a034)" d="M 188.421576 307.584 
L 191.510777 307.584 
L 191.510777 245.357048 
L 188.421576 245.357048 
z
" style="fill:#1f77b4;"/>
   </g>
   <g id="patch_36">
    <path clip-path="url(#p087ae0a034)" d="M 191.510777 307.584 
L 194.599979 307.584 
L 194.599979 248.986954 
L 191.510777 248.986954 
z
" style="fill:#1f77b4;"/>
   </g>
   <g id="patch_37">
    <path clip-path="url(#p087ae0a034)" d="M 194.599979 307.584 
L 197.68918 307.584 
L 197.68918 240.171469 
L 194.599979 240.171469 
z
" style="fill:#1f77b4;"/>
   </g>
   <g id="patch_38">
    <path clip-path="url(#p087ae0a034)" d="M 197.68918 307.584 
L 200.778381 307.584 
L 200.778381 226.170405 
L 197.68918 226.170405 
z
" style="fill:#1f77b4;"/>
   </g>
   <g id="patch_39">
    <path clip-path="url(#p087ae0a034)" d="M 200.778381 307.584 
L 203.867583 307.584 
L 203.867583 233.948774 
L 200.778381 233.948774 
z
" style="fill:#1f77b4;"/>
   </g>
   <g id="patch_40">
    <path clip-path="url(#p087ae0a034)" d="M 203.867583 307.584 
L 206.956784 307.584 
L 206.956784 239.652911 
L 203.867583 239.652911 
z
" style="fill:#1f77b4;"/>
   </g>
   <g id="patch_41">
    <path clip-path="url(#p087ae0a034)" d="M 206.956784 307.584 
L 210.045986 307.584 
L 210.045986 225.651847 
L 206.956784 225.651847 
z
" style="fill:#1f77b4;"/>
   </g>
   <g id="patch_42">
    <path clip-path="url(#p087ae0a034)" d="M 210.045986 307.584 
L 213.135187 307.584 
L 213.135187 233.430216 
L 210.045986 233.430216 
z
" style="fill:#1f77b4;"/>
   </g>
   <g id="patch_43">
    <path clip-path="url(#p087ae0a034)" d="M 213.135187 307.584 
L 216.224389 307.584 
L 216.224389 215.799247 
L 213.135187 215.799247 
z
" style="fill:#1f77b4;"/>
   </g>
   <g id="patch_44">
    <path clip-path="url(#p087ae0a034)" d="M 216.224389 307.584 
L 219.31359 307.584 
L 219.31359 196.612603 
L 216.224389 196.612603 
z
" style="fill:#1f77b4;"/>
   </g>
   <g id="patch_45">
    <path clip-path="url(#p087ae0a034)" d="M 219.31359 307.584 
L 222.402791 307.584 
L 222.402791 126.088725 
L 219.31359 126.088725 
z
" style="fill:#1f77b4;"/>
   </g>
   <g id="patch_46">
    <path clip-path="url(#p087ae0a034)" d="M 222.402791 307.584 
L 225.491993 307.584 
L 225.491993 197.131161 
L 222.402791 197.131161 
z
" style="fill:#1f77b4;"/>
   </g>
   <g id="patch_47">
    <path clip-path="url(#p087ae0a034)" d="M 225.491993 307.584 
L 228.581194 307.584 
L 228.581194 151.498063 
L 225.491993 151.498063 
z
" style="fill:#1f77b4;"/>
   </g>
   <g id="patch_48">
    <path clip-path="url(#p087ae0a034)" d="M 228.581194 307.584 
L 231.670396 307.584 
L 231.670396 158.757874 
L 228.581194 158.757874 
z
" style="fill:#1f77b4;"/>
   </g>
   <g id="patch_49">
    <path clip-path="url(#p087ae0a034)" d="M 231.670396 307.584 
L 234.759597 307.584 
L 234.759597 187.797118 
L 231.670396 187.797118 
z
" style="fill:#1f77b4;"/>
   </g>
   <g id="patch_50">
    <path clip-path="url(#p087ae0a034)" d="M 234.759597 307.584 
L 237.848799 307.584 
L 237.848799 195.056929 
L 234.759597 195.056929 
z
" style="fill:#1f77b4;"/>
   </g>
   <g id="patch_51">
    <path clip-path="url(#p087ae0a034)" d="M 237.848799 307.584 
L 240.938 307.584 
L 240.938 212.687899 
L 237.848799 212.687899 
z
" style="fill:#1f77b4;"/>
   </g>
   <g id="patch_52">
    <path clip-path="url(#p087ae0a034)" d="M 240.938 307.584 
L 244.027201 307.584 
L 244.027201 214.762131 
L 240.938 214.762131 
z
" style="fill:#1f77b4;"/>
   </g>
   <g id="patch_53">
    <path clip-path="url(#p087ae0a034)" d="M 244.027201 307.584 
L 247.116403 307.584 
L 247.116403 208.539436 
L 244.027201 208.539436 
z
" style="fill:#1f77b4;"/>
   </g>
   <g id="patch_54">
    <path clip-path="url(#p087ae0a034)" d="M 247.116403 307.584 
L 250.205604 307.584 
L 250.205604 225.133289 
L 247.116403 225.133289 
z
" style="fill:#1f77b4;"/>
   </g>
   <g id="patch_55">
    <path clip-path="url(#p087ae0a034)" d="M 250.205604 307.584 
L 253.294806 307.584 
L 253.294806 237.060122 
L 250.205604 237.060122 
z
" style="fill:#1f77b4;"/>
   </g>
   <g id="patch_56">
    <path clip-path="url(#p087ae0a034)" d="M 253.294806 307.584 
L 256.384007 307.584 
L 256.384007 226.170405 
L 253.294806 226.170405 
z
" style="fill:#1f77b4;"/>
   </g>
   <g id="patch_57">
    <path clip-path="url(#p087ae0a034)" d="M 256.384007 307.584 
L 259.473209 307.584 
L 259.473209 239.134353 
L 256.384007 239.134353 
z
" style="fill:#1f77b4;"/>
   </g>
   <g id="patch_58">
    <path clip-path="url(#p087ae0a034)" d="M 259.473209 307.584 
L 262.56241 307.584 
L 262.56241 237.060122 
L 259.473209 237.060122 
z
" style="fill:#1f77b4;"/>
   </g>
   <g id="patch_59">
    <path clip-path="url(#p087ae0a034)" d="M 262.56241 307.584 
L 265.651611 307.584 
L 265.651611 236.541564 
L 262.56241 236.541564 
z
" style="fill:#1f77b4;"/>
   </g>
   <g id="patch_60">
    <path clip-path="url(#p087ae0a034)" d="M 265.651611 307.584 
L 268.740813 307.584 
L 268.740813 233.948774 
L 265.651611 233.948774 
z
" style="fill:#1f77b4;"/>
   </g>
   <g id="patch_61">
    <path clip-path="url(#p087ae0a034)" d="M 268.740813 307.584 
L 271.830014 307.584 
L 271.830014 245.875606 
L 268.740813 245.875606 
z
" style="fill:#1f77b4;"/>
   </g>
   <g id="patch_62">
    <path clip-path="url(#p087ae0a034)" d="M 271.830014 307.584 
L 274.919216 307.584 
L 274.919216 243.801375 
L 271.830014 243.801375 
z
" style="fill:#1f77b4;"/>
   </g>
   <g id="patch_63">
    <path clip-path="url(#p087ae0a034)" d="M 274.919216 307.584 
L 278.008417 307.584 
L 278.008417 250.02407 
L 274.919216 250.02407 
z
" style="fill:#1f77b4;"/>
   </g>
   <g id="patch_64">
    <path clip-path="url(#p087ae0a034)" d="M 278.008417 307.584 
L 281.097619 307.584 
L 281.097619 260.913786 
L 278.008417 260.913786 
z
" style="fill:#1f77b4;"/>
   </g>
   <g id="patch_65">
    <path clip-path="url(#p087ae0a034)" d="M 281.097622 307.584 
L 284.186827 307.584 
L 284.186827 248.468396 
L 281.097622 248.468396 
z
" style="fill:#1f77b4;"/>
   </g>
   <g id="patch_66">
    <path clip-path="url(#p087ae0a034)" d="M 284.186813 307.584 
L 287.276014 307.584 
L 287.276014 254.691091 
L 284.186813 254.691091 
z
" style="fill:#1f77b4;"/>
   </g>
   <g id="patch_67">
    <path clip-path="url(#p087ae0a034)" d="M 287.276021 307.584 
L 290.365223 307.584 
L 290.365223 258.320997 
L 287.276021 258.320997 
z
" style="fill:#1f77b4;"/>
   </g>
   <g id="patch_68">
    <path clip-path="url(#p087ae0a034)" d="M 290.365216 307.584 
L 293.454417 307.584 
L 293.454417 263.506576 
L 290.365216 263.506576 
z
" style="fill:#1f77b4;"/>
   </g>
   <g id="patch_69">
    <path clip-path="url(#p087ae0a034)" d="M 293.454424 307.584 
L 296.543626 307.584 
L 296.543626 260.913786 
L 293.454424 260.913786 
z
" style="fill:#1f77b4;"/>
   </g>
   <g id="patch_70">
    <path clip-path="url(#p087ae0a034)" d="M 296.543619 307.584 
L 299.63282 307.584 
L 299.63282 257.283881 
L 296.543619 257.283881 
z
" style="fill:#1f77b4;"/>
   </g>
   <g id="patch_71">
    <path clip-path="url(#p087ae0a034)" d="M 299.632827 307.584 
L 302.722029 307.584 
L 302.722029 266.617924 
L 299.632827 266.617924 
z
" style="fill:#1f77b4;"/>
   </g>
   <g id="patch_72">
    <path clip-path="url(#p087ae0a034)" d="M 302.722021 307.584 
L 305.811223 307.584 
L 305.811223 269.729271 
L 302.722021 269.729271 
z
" style="fill:#1f77b4;"/>
   </g>
   <g id="patch_73">
    <path clip-path="url(#p087ae0a034)" d="M 305.81123 307.584 
L 308.900431 307.584 
L 308.900431 279.063314 
L 305.81123 279.063314 
z
" style="fill:#1f77b4;"/>
   </g>
   <g id="patch_74">
    <path clip-path="url(#p087ae0a034)" d="M 308.900424 307.584 
L 311.989626 307.584 
L 311.989626 284.767451 
L 308.900424 284.767451 
z
" style="fill:#1f77b4;"/>
   </g>
   <g id="patch_75">
    <path clip-path="url(#p087ae0a034)" d="M 311.989633 307.584 
L 315.078834 307.584 
L 315.078834 280.10043 
L 311.989633 280.10043 
z
" style="fill:#1f77b4;"/>
   </g>
   <g id="patch_76">
    <path clip-path="url(#p087ae0a034)" d="M 315.078827 307.584 
L 318.168029 307.584 
L 318.168029 281.137546 
L 315.078827 281.137546 
z
" style="fill:#1f77b4;"/>
   </g>
   <g id="patch_77">
    <path clip-path="url(#p087ae0a034)" d="M 318.168036 307.584 
L 321.257237 307.584 
L 321.257237 282.174661 
L 318.168036 282.174661 
z
" style="fill:#1f77b4;"/>
   </g>
   <g id="patch_78">
    <path clip-path="url(#p087ae0a034)" d="M 321.25723 307.584 
L 324.346431 307.584 
L 324.346431 281.137546 
L 321.25723 281.137546 
z
" style="fill:#1f77b4;"/>
   </g>
   <g id="patch_79">
    <path clip-path="url(#p087ae0a034)" d="M 324.346438 307.584 
L 327.43564 307.584 
L 327.43564 286.323125 
L 324.346438 286.323125 
z
" style="fill:#1f77b4;"/>
   </g>
   <g id="patch_80">
    <path clip-path="url(#p087ae0a034)" d="M 327.435633 307.584 
L 330.524834 307.584 
L 330.524834 283.211777 
L 327.435633 283.211777 
z
" style="fill:#1f77b4;"/>
   </g>
   <g id="patch_81">
    <path clip-path="url(#p087ae0a034)" d="M 330.524841 307.584 
L 333.614043 307.584 
L 333.614043 288.397357 
L 330.524841 288.397357 
z
" style="fill:#1f77b4;"/>
   </g>
   <g id="patch_82">
    <path clip-path="url(#p087ae0a034)" d="M 333.614036 307.584 
L 336.703237 307.584 
L 336.703237 286.841683 
L 333.614036 286.841683 
z
" style="fill:#1f77b4;"/>
   </g>
   <g id="patch_83">
    <path clip-path="url(#p087ae0a034)" d="M 336.703244 307.584 
L 339.792446 307.584 
L 339.792446 295.13861 
L 336.703244 295.13861 
z
" style="fill:#1f77b4;"/>
   </g>
   <g id="patch_84">
    <path clip-path="url(#p087ae0a034)" d="M 339.792439 307.584 
L 342.881647 307.584 
L 342.881647 290.471588 
L 339.792439 290.471588 
z
" style="fill:#1f77b4;"/>
   </g>
   <g id="patch_85">
    <path clip-path="url(#p087ae0a034)" d="M 342.881647 307.584 
L 345.970856 307.584 
L 345.970856 297.731422 
L 342.881647 297.731422 
z
" style="fill:#1f77b4;"/>
   </g>
   <g id="patch_86">
    <path clip-path="url(#p087ae0a034)" d="M 345.970856 307.584 
L 349.06005 307.584 
L 349.06005 294.620022 
L 345.970856 294.620022 
z
" style="fill:#1f77b4;"/>
   </g>
   <g id="patch_87">
    <path clip-path="url(#p087ae0a034)" d="M 349.060036 307.584 
L 352.14923 307.584 
L 352.14923 295.138581 
L 349.060036 295.138581 
z
" style="fill:#1f77b4;"/>
   </g>
   <g id="patch_88">
    <path clip-path="url(#p087ae0a034)" d="M 352.149244 307.584 
L 355.238453 307.584 
L 355.238453 292.027298 
L 352.149244 292.027298 
z
" style="fill:#1f77b4;"/>
   </g>
   <g id="patch_89">
    <path clip-path="url(#p087ae0a034)" d="M 355.238453 307.584 
L 358.327661 307.584 
L 358.327661 295.138638 
L 355.238453 295.138638 
z
" style="fill:#1f77b4;"/>
   </g>
   <g id="patch_90">
    <path clip-path="url(#p087ae0a034)" d="M 358.327661 307.584 
L 361.416856 307.584 
L 361.416856 298.768495 
L 358.327661 298.768495 
z
" style="fill:#1f77b4;"/>
   </g>
   <g id="patch_91">
    <path clip-path="url(#p087ae0a034)" d="M 361.416841 307.584 
L 364.506036 307.584 
L 364.506036 300.842731 
L 361.416841 300.842731 
z
" style="fill:#1f77b4;"/>
   </g>
   <g id="patch_92">
    <path clip-path="url(#p087ae0a034)" d="M 364.50605 307.584 
L 367.595258 307.584 
L 367.595258 303.954103 
L 364.50605 303.954103 
z
" style="fill:#1f77b4;"/>
   </g>
   <g id="patch_93">
    <path clip-path="url(#p087ae0a034)" d="M 367.595258 307.584 
L 370.684467 307.584 
L 370.684467 301.879876 
L 367.595258 301.879876 
z
" style="fill:#1f77b4;"/>
   </g>
   <g id="patch_94">
    <path clip-path="url(#p087ae0a034)" d="M 370.684467 307.584 
L 373.773661 307.584 
L 373.773661 300.842731 
L 370.684467 300.842731 
z
" style="fill:#1f77b4;"/>
   </g>
   <g id="patch_95">
    <path clip-path="url(#p087ae0a034)" d="M 373.773647 307.584 
L 376.862842 307.584 
L 376.862842 302.398409 
L 373.773647 302.398409 
z
" style="fill:#1f77b4;"/>
   </g>
   <g id="patch_96">
    <path clip-path="url(#p087ae0a034)" d="M 376.862856 307.584 
L 379.952064 307.584 
L 379.952064 298.768535 
L 376.862856 298.768535 
z
" style="fill:#1f77b4;"/>
   </g>
   <g id="patch_97">
    <path clip-path="url(#p087ae0a034)" d="M 379.952064 307.584 
L 383.041273 307.584 
L 383.041273 300.324206 
L 379.952064 300.324206 
z
" style="fill:#1f77b4;"/>
   </g>
   <g id="patch_98">
    <path clip-path="url(#p087ae0a034)" d="M 383.041273 307.584 
L 386.130467 307.584 
L 386.130467 302.916968 
L 383.041273 302.916968 
z
" style="fill:#1f77b4;"/>
   </g>
   <g id="patch_99">
    <path clip-path="url(#p087ae0a034)" d="M 386.130453 307.584 
L 389.219647 307.584 
L 389.219647 300.842731 
L 386.130453 300.842731 
z
" style="fill:#1f77b4;"/>
   </g>
   <g id="patch_100">
    <path clip-path="url(#p087ae0a034)" d="M 389.219661 307.584 
L 392.30887 307.584 
L 392.30887 301.879876 
L 389.219661 301.879876 
z
" style="fill:#1f77b4;"/>
   </g>
   <g id="patch_101">
    <path clip-path="url(#p087ae0a034)" d="M 392.30887 307.584 
L 395.398078 307.584 
L 395.398078 302.916989 
L 392.30887 302.916989 
z
" style="fill:#1f77b4;"/>
   </g>
   <g id="patch_102">
    <path clip-path="url(#p087ae0a034)" d="M 395.398078 307.584 
L 398.487273 307.584 
L 398.487273 304.472645 
L 395.398078 304.472645 
z
" style="fill:#1f77b4;"/>
   </g>
   <g id="matplotlib.axis_1">
    <g id="xtick_1">
     <g id="line2d_1">
      <defs>
       <path d="M 0 0 
L 0 3.5 
" id="mf1782b3626" style="stroke:#000000;stroke-width:0.8;"/>
      </defs>
      <g>
       <use style="stroke:#000000;stroke-width:0.8;" x="103.524649" xlink:href="#mf1782b3626" y="307.584"/>
      </g>
     </g>
     <g id="text_1">
      <!-- −2 -->
      <defs>
       <path d="M 10.59375 35.5 
L 73.1875 35.5 
L 73.1875 27.203125 
L 10.59375 27.203125 
z
" id="DejaVuSans-8722"/>
       <path d="M 19.1875 8.296875 
L 53.609375 8.296875 
L 53.609375 0 
L 7.328125 0 
L 7.328125 8.296875 
Q 12.9375 14.109375 22.625 23.890625 
Q 32.328125 33.6875 34.8125 36.53125 
Q 39.546875 41.84375 41.421875 45.53125 
Q 43.3125 49.21875 43.3125 52.78125 
Q 43.3125 58.59375 39.234375 62.25 
Q 35.15625 65.921875 28.609375 65.921875 
Q 23.96875 65.921875 18.8125 64.3125 
Q 13.671875 62.703125 7.8125 59.421875 
L 7.8125 69.390625 
Q 13.765625 71.78125 18.9375 73 
Q 24.125 74.21875 28.421875 74.21875 
Q 39.75 74.21875 46.484375 68.546875 
Q 53.21875 62.890625 53.21875 53.421875 
Q 53.21875 48.921875 51.53125 44.890625 
Q 49.859375 40.875 45.40625 35.40625 
Q 44.1875 33.984375 37.640625 27.21875 
Q 31.109375 20.453125 19.1875 8.296875 
z
" id="DejaVuSans-50"/>
      </defs>
      <g transform="translate(90.99379 327.501344)scale(0.17 -0.17)">
       <use xlink:href="#DejaVuSans-8722"/>
       <use x="83.789062" xlink:href="#DejaVuSans-50"/>
      </g>
     </g>
    </g>
    <g id="xtick_2">
     <g id="line2d_2">
      <g>
       <use style="stroke:#000000;stroke-width:0.8;" x="162.908493" xlink:href="#mf1782b3626" y="307.584"/>
      </g>
     </g>
     <g id="text_2">
      <!-- −1 -->
      <defs>
       <path d="M 12.40625 8.296875 
L 28.515625 8.296875 
L 28.515625 63.921875 
L 10.984375 60.40625 
L 10.984375 69.390625 
L 28.421875 72.90625 
L 38.28125 72.90625 
L 38.28125 8.296875 
L 54.390625 8.296875 
L 54.390625 0 
L 12.40625 0 
z
" id="DejaVuSans-49"/>
      </defs>
      <g transform="translate(150.377633 327.501344)scale(0.17 -0.17)">
       <use xlink:href="#DejaVuSans-8722"/>
       <use x="83.789062" xlink:href="#DejaVuSans-49"/>
      </g>
     </g>
    </g>
    <g id="xtick_3">
     <g id="line2d_3">
      <g>
       <use style="stroke:#000000;stroke-width:0.8;" x="222.292336" xlink:href="#mf1782b3626" y="307.584"/>
      </g>
     </g>
     <g id="text_3">
      <!-- 0 -->
      <defs>
       <path d="M 31.78125 66.40625 
Q 24.171875 66.40625 20.328125 58.90625 
Q 16.5 51.421875 16.5 36.375 
Q 16.5 21.390625 20.328125 13.890625 
Q 24.171875 6.390625 31.78125 6.390625 
Q 39.453125 6.390625 43.28125 13.890625 
Q 47.125 21.390625 47.125 36.375 
Q 47.125 51.421875 43.28125 58.90625 
Q 39.453125 66.40625 31.78125 66.40625 
z
M 31.78125 74.21875 
Q 44.046875 74.21875 50.515625 64.515625 
Q 56.984375 54.828125 56.984375 36.375 
Q 56.984375 17.96875 50.515625 8.265625 
Q 44.046875 -1.421875 31.78125 -1.421875 
Q 19.53125 -1.421875 13.0625 8.265625 
Q 6.59375 17.96875 6.59375 36.375 
Q 6.59375 54.828125 13.0625 64.515625 
Q 19.53125 74.21875 31.78125 74.21875 
z
" id="DejaVuSans-48"/>
      </defs>
      <g transform="translate(216.884211 327.501344)scale(0.17 -0.17)">
       <use xlink:href="#DejaVuSans-48"/>
      </g>
     </g>
    </g>
    <g id="xtick_4">
     <g id="line2d_4">
      <g>
       <use style="stroke:#000000;stroke-width:0.8;" x="281.67618" xlink:href="#mf1782b3626" y="307.584"/>
      </g>
     </g>
     <g id="text_4">
      <!-- 1 -->
      <g transform="translate(276.268055 327.501344)scale(0.17 -0.17)">
       <use xlink:href="#DejaVuSans-49"/>
      </g>
     </g>
    </g>
    <g id="xtick_5">
     <g id="line2d_5">
      <g>
       <use style="stroke:#000000;stroke-width:0.8;" x="341.060023" xlink:href="#mf1782b3626" y="307.584"/>
      </g>
     </g>
     <g id="text_5">
      <!-- 2 -->
      <g transform="translate(335.651898 327.501344)scale(0.17 -0.17)">
       <use xlink:href="#DejaVuSans-50"/>
      </g>
     </g>
    </g>
    <g id="xtick_6">
     <g id="line2d_6">
      <g>
       <use style="stroke:#000000;stroke-width:0.8;" x="400.443867" xlink:href="#mf1782b3626" y="307.584"/>
      </g>
     </g>
     <g id="text_6">
      <!-- 3 -->
      <defs>
       <path d="M 40.578125 39.3125 
Q 47.65625 37.796875 51.625 33 
Q 55.609375 28.21875 55.609375 21.1875 
Q 55.609375 10.40625 48.1875 4.484375 
Q 40.765625 -1.421875 27.09375 -1.421875 
Q 22.515625 -1.421875 17.65625 -0.515625 
Q 12.796875 0.390625 7.625 2.203125 
L 7.625 11.71875 
Q 11.71875 9.328125 16.59375 8.109375 
Q 21.484375 6.890625 26.8125 6.890625 
Q 36.078125 6.890625 40.9375 10.546875 
Q 45.796875 14.203125 45.796875 21.1875 
Q 45.796875 27.640625 41.28125 31.265625 
Q 36.765625 34.90625 28.71875 34.90625 
L 20.21875 34.90625 
L 20.21875 43.015625 
L 29.109375 43.015625 
Q 36.375 43.015625 40.234375 45.921875 
Q 44.09375 48.828125 44.09375 54.296875 
Q 44.09375 59.90625 40.109375 62.90625 
Q 36.140625 65.921875 28.71875 65.921875 
Q 24.65625 65.921875 20.015625 65.03125 
Q 15.375 64.15625 9.8125 62.3125 
L 9.8125 71.09375 
Q 15.4375 72.65625 20.34375 73.4375 
Q 25.25 74.21875 29.59375 74.21875 
Q 40.828125 74.21875 47.359375 69.109375 
Q 53.90625 64.015625 53.90625 55.328125 
Q 53.90625 49.265625 50.4375 45.09375 
Q 46.96875 40.921875 40.578125 39.3125 
z
" id="DejaVuSans-51"/>
      </defs>
      <g transform="translate(395.035742 327.501344)scale(0.17 -0.17)">
       <use xlink:href="#DejaVuSans-51"/>
      </g>
     </g>
    </g>
    <g id="text_7">
     <!-- Position in Radian -->
     <defs>
      <path d="M 19.671875 64.796875 
L 19.671875 37.40625 
L 32.078125 37.40625 
Q 38.96875 37.40625 42.71875 40.96875 
Q 46.484375 44.53125 46.484375 51.125 
Q 46.484375 57.671875 42.71875 61.234375 
Q 38.96875 64.796875 32.078125 64.796875 
z
M 9.8125 72.90625 
L 32.078125 72.90625 
Q 44.34375 72.90625 50.609375 67.359375 
Q 56.890625 61.8125 56.890625 51.125 
Q 56.890625 40.328125 50.609375 34.8125 
Q 44.34375 29.296875 32.078125 29.296875 
L 19.671875 29.296875 
L 19.671875 0 
L 9.8125 0 
z
" id="DejaVuSans-80"/>
      <path d="M 30.609375 48.390625 
Q 23.390625 48.390625 19.1875 42.75 
Q 14.984375 37.109375 14.984375 27.296875 
Q 14.984375 17.484375 19.15625 11.84375 
Q 23.34375 6.203125 30.609375 6.203125 
Q 37.796875 6.203125 41.984375 11.859375 
Q 46.1875 17.53125 46.1875 27.296875 
Q 46.1875 37.015625 41.984375 42.703125 
Q 37.796875 48.390625 30.609375 48.390625 
z
M 30.609375 56 
Q 42.328125 56 49.015625 48.375 
Q 55.71875 40.765625 55.71875 27.296875 
Q 55.71875 13.875 49.015625 6.21875 
Q 42.328125 -1.421875 30.609375 -1.421875 
Q 18.84375 -1.421875 12.171875 6.21875 
Q 5.515625 13.875 5.515625 27.296875 
Q 5.515625 40.765625 12.171875 48.375 
Q 18.84375 56 30.609375 56 
z
" id="DejaVuSans-111"/>
      <path d="M 44.28125 53.078125 
L 44.28125 44.578125 
Q 40.484375 46.53125 36.375 47.5 
Q 32.28125 48.484375 27.875 48.484375 
Q 21.1875 48.484375 17.84375 46.4375 
Q 14.5 44.390625 14.5 40.28125 
Q 14.5 37.15625 16.890625 35.375 
Q 19.28125 33.59375 26.515625 31.984375 
L 29.59375 31.296875 
Q 39.15625 29.25 43.1875 25.515625 
Q 47.21875 21.78125 47.21875 15.09375 
Q 47.21875 7.46875 41.1875 3.015625 
Q 35.15625 -1.421875 24.609375 -1.421875 
Q 20.21875 -1.421875 15.453125 -0.5625 
Q 10.6875 0.296875 5.421875 2 
L 5.421875 11.28125 
Q 10.40625 8.6875 15.234375 7.390625 
Q 20.0625 6.109375 24.8125 6.109375 
Q 31.15625 6.109375 34.5625 8.28125 
Q 37.984375 10.453125 37.984375 14.40625 
Q 37.984375 18.0625 35.515625 20.015625 
Q 33.0625 21.96875 24.703125 23.78125 
L 21.578125 24.515625 
Q 13.234375 26.265625 9.515625 29.90625 
Q 5.8125 33.546875 5.8125 39.890625 
Q 5.8125 47.609375 11.28125 51.796875 
Q 16.75 56 26.8125 56 
Q 31.78125 56 36.171875 55.265625 
Q 40.578125 54.546875 44.28125 53.078125 
z
" id="DejaVuSans-115"/>
      <path d="M 9.421875 54.6875 
L 18.40625 54.6875 
L 18.40625 0 
L 9.421875 0 
z
M 9.421875 75.984375 
L 18.40625 75.984375 
L 18.40625 64.59375 
L 9.421875 64.59375 
z
" id="DejaVuSans-105"/>
      <path d="M 18.3125 70.21875 
L 18.3125 54.6875 
L 36.8125 54.6875 
L 36.8125 47.703125 
L 18.3125 47.703125 
L 18.3125 18.015625 
Q 18.3125 11.328125 20.140625 9.421875 
Q 21.96875 7.515625 27.59375 7.515625 
L 36.8125 7.515625 
L 36.8125 0 
L 27.59375 0 
Q 17.1875 0 13.234375 3.875 
Q 9.28125 7.765625 9.28125 18.015625 
L 9.28125 47.703125 
L 2.6875 47.703125 
L 2.6875 54.6875 
L 9.28125 54.6875 
L 9.28125 70.21875 
z
" id="DejaVuSans-116"/>
      <path d="M 54.890625 33.015625 
L 54.890625 0 
L 45.90625 0 
L 45.90625 32.71875 
Q 45.90625 40.484375 42.875 44.328125 
Q 39.84375 48.1875 33.796875 48.1875 
Q 26.515625 48.1875 22.3125 43.546875 
Q 18.109375 38.921875 18.109375 30.90625 
L 18.109375 0 
L 9.078125 0 
L 9.078125 54.6875 
L 18.109375 54.6875 
L 18.109375 46.1875 
Q 21.34375 51.125 25.703125 53.5625 
Q 30.078125 56 35.796875 56 
Q 45.21875 56 50.046875 50.171875 
Q 54.890625 44.34375 54.890625 33.015625 
z
" id="DejaVuSans-110"/>
      <path id="DejaVuSans-32"/>
      <path d="M 44.390625 34.1875 
Q 47.5625 33.109375 50.5625 29.59375 
Q 53.5625 26.078125 56.59375 19.921875 
L 66.609375 0 
L 56 0 
L 46.6875 18.703125 
Q 43.0625 26.03125 39.671875 28.421875 
Q 36.28125 30.8125 30.421875 30.8125 
L 19.671875 30.8125 
L 19.671875 0 
L 9.8125 0 
L 9.8125 72.90625 
L 32.078125 72.90625 
Q 44.578125 72.90625 50.734375 67.671875 
Q 56.890625 62.453125 56.890625 51.90625 
Q 56.890625 45.015625 53.6875 40.46875 
Q 50.484375 35.9375 44.390625 34.1875 
z
M 19.671875 64.796875 
L 19.671875 38.921875 
L 32.078125 38.921875 
Q 39.203125 38.921875 42.84375 42.21875 
Q 46.484375 45.515625 46.484375 51.90625 
Q 46.484375 58.296875 42.84375 61.546875 
Q 39.203125 64.796875 32.078125 64.796875 
z
" id="DejaVuSans-82"/>
      <path d="M 34.28125 27.484375 
Q 23.390625 27.484375 19.1875 25 
Q 14.984375 22.515625 14.984375 16.5 
Q 14.984375 11.71875 18.140625 8.90625 
Q 21.296875 6.109375 26.703125 6.109375 
Q 34.1875 6.109375 38.703125 11.40625 
Q 43.21875 16.703125 43.21875 25.484375 
L 43.21875 27.484375 
z
M 52.203125 31.203125 
L 52.203125 0 
L 43.21875 0 
L 43.21875 8.296875 
Q 40.140625 3.328125 35.546875 0.953125 
Q 30.953125 -1.421875 24.3125 -1.421875 
Q 15.921875 -1.421875 10.953125 3.296875 
Q 6 8.015625 6 15.921875 
Q 6 25.140625 12.171875 29.828125 
Q 18.359375 34.515625 30.609375 34.515625 
L 43.21875 34.515625 
L 43.21875 35.40625 
Q 43.21875 41.609375 39.140625 45 
Q 35.0625 48.390625 27.6875 48.390625 
Q 23 48.390625 18.546875 47.265625 
Q 14.109375 46.140625 10.015625 43.890625 
L 10.015625 52.203125 
Q 14.9375 54.109375 19.578125 55.046875 
Q 24.21875 56 28.609375 56 
Q 40.484375 56 46.34375 49.84375 
Q 52.203125 43.703125 52.203125 31.203125 
z
" id="DejaVuSans-97"/>
      <path d="M 45.40625 46.390625 
L 45.40625 75.984375 
L 54.390625 75.984375 
L 54.390625 0 
L 45.40625 0 
L 45.40625 8.203125 
Q 42.578125 3.328125 38.25 0.953125 
Q 33.9375 -1.421875 27.875 -1.421875 
Q 17.96875 -1.421875 11.734375 6.484375 
Q 5.515625 14.40625 5.515625 27.296875 
Q 5.515625 40.1875 11.734375 48.09375 
Q 17.96875 56 27.875 56 
Q 33.9375 56 38.25 53.625 
Q 42.578125 51.265625 45.40625 46.390625 
z
M 14.796875 27.296875 
Q 14.796875 17.390625 18.875 11.75 
Q 22.953125 6.109375 30.078125 6.109375 
Q 37.203125 6.109375 41.296875 11.75 
Q 45.40625 17.390625 45.40625 27.296875 
Q 45.40625 37.203125 41.296875 42.84375 
Q 37.203125 48.484375 30.078125 48.484375 
Q 22.953125 48.484375 18.875 42.84375 
Q 14.796875 37.203125 14.796875 27.296875 
z
" id="DejaVuSans-100"/>
     </defs>
     <g transform="translate(102.024844 357.832125)scale(0.3 -0.3)">
      <use xlink:href="#DejaVuSans-80"/>
      <use x="60.255859" xlink:href="#DejaVuSans-111"/>
      <use x="121.4375" xlink:href="#DejaVuSans-115"/>
      <use x="173.537109" xlink:href="#DejaVuSans-105"/>
      <use x="201.320312" xlink:href="#DejaVuSans-116"/>
      <use x="240.529297" xlink:href="#DejaVuSans-105"/>
      <use x="268.3125" xlink:href="#DejaVuSans-111"/>
      <use x="329.494141" xlink:href="#DejaVuSans-110"/>
      <use x="392.873047" xlink:href="#DejaVuSans-32"/>
      <use x="424.660156" xlink:href="#DejaVuSans-105"/>
      <use x="452.443359" xlink:href="#DejaVuSans-110"/>
      <use x="515.822266" xlink:href="#DejaVuSans-32"/>
      <use x="547.609375" xlink:href="#DejaVuSans-82"/>
      <use x="617.060547" xlink:href="#DejaVuSans-97"/>
      <use x="678.339844" xlink:href="#DejaVuSans-100"/>
      <use x="741.816406" xlink:href="#DejaVuSans-105"/>
      <use x="769.599609" xlink:href="#DejaVuSans-97"/>
      <use x="830.878906" xlink:href="#DejaVuSans-110"/>
     </g>
    </g>
   </g>
   <g id="matplotlib.axis_2">
    <g id="ytick_1">
     <g id="line2d_7">
      <defs>
       <path d="M 0 0 
L -3.5 0 
" id="ma41b6277dd" style="stroke:#000000;stroke-width:0.8;"/>
      </defs>
      <g>
       <use style="stroke:#000000;stroke-width:0.8;" x="57.6" xlink:href="#ma41b6277dd" y="307.584"/>
      </g>
     </g>
     <g id="text_8">
      <!-- 0.0 -->
      <defs>
       <path d="M 10.6875 12.40625 
L 21 12.40625 
L 21 0 
L 10.6875 0 
z
" id="DejaVuSans-46"/>
      </defs>
      <g transform="translate(23.564687 314.042672)scale(0.17 -0.17)">
       <use xlink:href="#DejaVuSans-48"/>
       <use x="63.623047" xlink:href="#DejaVuSans-46"/>
       <use x="95.410156" xlink:href="#DejaVuSans-48"/>
      </g>
     </g>
    </g>
    <g id="ytick_2">
     <g id="line2d_8">
      <g>
       <use style="stroke:#000000;stroke-width:0.8;" x="57.6" xlink:href="#ma41b6277dd" y="267.120219"/>
      </g>
     </g>
     <g id="text_9">
      <!-- 0.2 -->
      <g transform="translate(23.564687 273.578891)scale(0.17 -0.17)">
       <use xlink:href="#DejaVuSans-48"/>
       <use x="63.623047" xlink:href="#DejaVuSans-46"/>
       <use x="95.410156" xlink:href="#DejaVuSans-50"/>
      </g>
     </g>
    </g>
    <g id="ytick_3">
     <g id="line2d_9">
      <g>
       <use style="stroke:#000000;stroke-width:0.8;" x="57.6" xlink:href="#ma41b6277dd" y="226.656438"/>
      </g>
     </g>
     <g id="text_10">
      <!-- 0.4 -->
      <defs>
       <path d="M 37.796875 64.3125 
L 12.890625 25.390625 
L 37.796875 25.390625 
z
M 35.203125 72.90625 
L 47.609375 72.90625 
L 47.609375 25.390625 
L 58.015625 25.390625 
L 58.015625 17.1875 
L 47.609375 17.1875 
L 47.609375 0 
L 37.796875 0 
L 37.796875 17.1875 
L 4.890625 17.1875 
L 4.890625 26.703125 
z
" id="DejaVuSans-52"/>
      </defs>
      <g transform="translate(23.564687 233.11511)scale(0.17 -0.17)">
       <use xlink:href="#DejaVuSans-48"/>
       <use x="63.623047" xlink:href="#DejaVuSans-46"/>
       <use x="95.410156" xlink:href="#DejaVuSans-52"/>
      </g>
     </g>
    </g>
    <g id="ytick_4">
     <g id="line2d_10">
      <g>
       <use style="stroke:#000000;stroke-width:0.8;" x="57.6" xlink:href="#ma41b6277dd" y="186.192657"/>
      </g>
     </g>
     <g id="text_11">
      <!-- 0.6 -->
      <defs>
       <path d="M 33.015625 40.375 
Q 26.375 40.375 22.484375 35.828125 
Q 18.609375 31.296875 18.609375 23.390625 
Q 18.609375 15.53125 22.484375 10.953125 
Q 26.375 6.390625 33.015625 6.390625 
Q 39.65625 6.390625 43.53125 10.953125 
Q 47.40625 15.53125 47.40625 23.390625 
Q 47.40625 31.296875 43.53125 35.828125 
Q 39.65625 40.375 33.015625 40.375 
z
M 52.59375 71.296875 
L 52.59375 62.3125 
Q 48.875 64.0625 45.09375 64.984375 
Q 41.3125 65.921875 37.59375 65.921875 
Q 27.828125 65.921875 22.671875 59.328125 
Q 17.53125 52.734375 16.796875 39.40625 
Q 19.671875 43.65625 24.015625 45.921875 
Q 28.375 48.1875 33.59375 48.1875 
Q 44.578125 48.1875 50.953125 41.515625 
Q 57.328125 34.859375 57.328125 23.390625 
Q 57.328125 12.15625 50.6875 5.359375 
Q 44.046875 -1.421875 33.015625 -1.421875 
Q 20.359375 -1.421875 13.671875 8.265625 
Q 6.984375 17.96875 6.984375 36.375 
Q 6.984375 53.65625 15.1875 63.9375 
Q 23.390625 74.21875 37.203125 74.21875 
Q 40.921875 74.21875 44.703125 73.484375 
Q 48.484375 72.75 52.59375 71.296875 
z
" id="DejaVuSans-54"/>
      </defs>
      <g transform="translate(23.564687 192.651329)scale(0.17 -0.17)">
       <use xlink:href="#DejaVuSans-48"/>
       <use x="63.623047" xlink:href="#DejaVuSans-46"/>
       <use x="95.410156" xlink:href="#DejaVuSans-54"/>
      </g>
     </g>
    </g>
    <g id="ytick_5">
     <g id="line2d_11">
      <g>
       <use style="stroke:#000000;stroke-width:0.8;" x="57.6" xlink:href="#ma41b6277dd" y="145.728876"/>
      </g>
     </g>
     <g id="text_12">
      <!-- 0.8 -->
      <defs>
       <path d="M 31.78125 34.625 
Q 24.75 34.625 20.71875 30.859375 
Q 16.703125 27.09375 16.703125 20.515625 
Q 16.703125 13.921875 20.71875 10.15625 
Q 24.75 6.390625 31.78125 6.390625 
Q 38.8125 6.390625 42.859375 10.171875 
Q 46.921875 13.96875 46.921875 20.515625 
Q 46.921875 27.09375 42.890625 30.859375 
Q 38.875 34.625 31.78125 34.625 
z
M 21.921875 38.8125 
Q 15.578125 40.375 12.03125 44.71875 
Q 8.5 49.078125 8.5 55.328125 
Q 8.5 64.0625 14.71875 69.140625 
Q 20.953125 74.21875 31.78125 74.21875 
Q 42.671875 74.21875 48.875 69.140625 
Q 55.078125 64.0625 55.078125 55.328125 
Q 55.078125 49.078125 51.53125 44.71875 
Q 48 40.375 41.703125 38.8125 
Q 48.828125 37.15625 52.796875 32.3125 
Q 56.78125 27.484375 56.78125 20.515625 
Q 56.78125 9.90625 50.3125 4.234375 
Q 43.84375 -1.421875 31.78125 -1.421875 
Q 19.734375 -1.421875 13.25 4.234375 
Q 6.78125 9.90625 6.78125 20.515625 
Q 6.78125 27.484375 10.78125 32.3125 
Q 14.796875 37.15625 21.921875 38.8125 
z
M 18.3125 54.390625 
Q 18.3125 48.734375 21.84375 45.5625 
Q 25.390625 42.390625 31.78125 42.390625 
Q 38.140625 42.390625 41.71875 45.5625 
Q 45.3125 48.734375 45.3125 54.390625 
Q 45.3125 60.0625 41.71875 63.234375 
Q 38.140625 66.40625 31.78125 66.40625 
Q 25.390625 66.40625 21.84375 63.234375 
Q 18.3125 60.0625 18.3125 54.390625 
z
" id="DejaVuSans-56"/>
      </defs>
      <g transform="translate(23.564687 152.187548)scale(0.17 -0.17)">
       <use xlink:href="#DejaVuSans-48"/>
       <use x="63.623047" xlink:href="#DejaVuSans-46"/>
       <use x="95.410156" xlink:href="#DejaVuSans-56"/>
      </g>
     </g>
    </g>
    <g id="ytick_6">
     <g id="line2d_12">
      <g>
       <use style="stroke:#000000;stroke-width:0.8;" x="57.6" xlink:href="#ma41b6277dd" y="105.265095"/>
      </g>
     </g>
     <g id="text_13">
      <!-- 1.0 -->
      <g transform="translate(23.564687 111.723767)scale(0.17 -0.17)">
       <use xlink:href="#DejaVuSans-49"/>
       <use x="63.623047" xlink:href="#DejaVuSans-46"/>
       <use x="95.410156" xlink:href="#DejaVuSans-48"/>
      </g>
     </g>
    </g>
    <g id="ytick_7">
     <g id="line2d_13">
      <g>
       <use style="stroke:#000000;stroke-width:0.8;" x="57.6" xlink:href="#ma41b6277dd" y="64.801314"/>
      </g>
     </g>
     <g id="text_14">
      <!-- 1.2 -->
      <g transform="translate(23.564687 71.259986)scale(0.17 -0.17)">
       <use xlink:href="#DejaVuSans-49"/>
       <use x="63.623047" xlink:href="#DejaVuSans-46"/>
       <use x="95.410156" xlink:href="#DejaVuSans-50"/>
      </g>
     </g>
    </g>
    <g id="text_15">
     <!-- Density -->
     <defs>
      <path d="M 19.671875 64.796875 
L 19.671875 8.109375 
L 31.59375 8.109375 
Q 46.6875 8.109375 53.6875 14.9375 
Q 60.6875 21.78125 60.6875 36.53125 
Q 60.6875 51.171875 53.6875 57.984375 
Q 46.6875 64.796875 31.59375 64.796875 
z
M 9.8125 72.90625 
L 30.078125 72.90625 
Q 51.265625 72.90625 61.171875 64.09375 
Q 71.09375 55.28125 71.09375 36.53125 
Q 71.09375 17.671875 61.125 8.828125 
Q 51.171875 0 30.078125 0 
L 9.8125 0 
z
" id="DejaVuSans-68"/>
      <path d="M 56.203125 29.59375 
L 56.203125 25.203125 
L 14.890625 25.203125 
Q 15.484375 15.921875 20.484375 11.0625 
Q 25.484375 6.203125 34.421875 6.203125 
Q 39.59375 6.203125 44.453125 7.46875 
Q 49.3125 8.734375 54.109375 11.28125 
L 54.109375 2.78125 
Q 49.265625 0.734375 44.1875 -0.34375 
Q 39.109375 -1.421875 33.890625 -1.421875 
Q 20.796875 -1.421875 13.15625 6.1875 
Q 5.515625 13.8125 5.515625 26.8125 
Q 5.515625 40.234375 12.765625 48.109375 
Q 20.015625 56 32.328125 56 
Q 43.359375 56 49.78125 48.890625 
Q 56.203125 41.796875 56.203125 29.59375 
z
M 47.21875 32.234375 
Q 47.125 39.59375 43.09375 43.984375 
Q 39.0625 48.390625 32.421875 48.390625 
Q 24.90625 48.390625 20.390625 44.140625 
Q 15.875 39.890625 15.1875 32.171875 
z
" id="DejaVuSans-101"/>
      <path d="M 32.171875 -5.078125 
Q 28.375 -14.84375 24.75 -17.8125 
Q 21.140625 -20.796875 15.09375 -20.796875 
L 7.90625 -20.796875 
L 7.90625 -13.28125 
L 13.1875 -13.28125 
Q 16.890625 -13.28125 18.9375 -11.515625 
Q 21 -9.765625 23.484375 -3.21875 
L 25.09375 0.875 
L 2.984375 54.6875 
L 12.5 54.6875 
L 29.59375 11.921875 
L 46.6875 54.6875 
L 56.203125 54.6875 
z
" id="DejaVuSans-121"/>
     </defs>
     <g transform="translate(13.325625 231.553781)rotate(-90)scale(0.3 -0.3)">
      <use xlink:href="#DejaVuSans-68"/>
      <use x="77.001953" xlink:href="#DejaVuSans-101"/>
      <use x="138.525391" xlink:href="#DejaVuSans-110"/>
      <use x="201.904297" xlink:href="#DejaVuSans-115"/>
      <use x="254.003906" xlink:href="#DejaVuSans-105"/>
      <use x="281.787109" xlink:href="#DejaVuSans-116"/>
      <use x="320.996094" xlink:href="#DejaVuSans-121"/>
     </g>
    </g>
   </g>
   <g id="line2d_14">
    <path clip-path="url(#p087ae0a034)" d="M 73.832727 307.584 
L 88.282796 307.480161 
L 88.718277 307.195506 
L 89.787187 306.322362 
L 90.163284 306.087532 
L 90.460203 305.580432 
L 91.093631 304.408873 
L 91.271783 304.478523 
L 91.489523 304.880187 
L 92.598022 307.398696 
L 92.993914 307.552166 
L 93.785699 307.560083 
L 94.280564 307.398304 
L 94.636867 307.035978 
L 95.151527 306.106846 
L 95.606803 305.47294 
L 95.903722 305.39896 
L 96.378793 305.337643 
L 96.675712 304.986555 
L 97.269551 304.237466 
L 97.487292 304.288415 
L 97.764416 304.630477 
L 98.397844 305.904633 
L 98.932298 306.757531 
L 99.209423 306.846961 
L 99.446958 306.677495 
L 99.902235 305.973812 
L 100.278332 305.591021 
L 100.496073 305.643864 
L 100.773198 305.993985 
L 101.663955 307.299231 
L 101.960874 307.334944 
L 102.257794 307.130612 
L 102.653686 306.529291 
L 103.386087 305.391612 
L 103.683006 305.308551 
L 104.039309 305.472221 
L 104.77171 305.868104 
L 105.009245 305.710044 
L 105.345754 305.141086 
L 105.80103 304.46257 
L 105.979181 304.497493 
L 106.196922 304.817865 
L 107.028296 306.323225 
L 107.226242 306.197025 
L 107.523161 305.647985 
L 108.275357 304.152652 
L 108.532687 304.075513 
L 108.809811 304.258886 
L 109.482828 304.790545 
L 109.977693 304.749117 
L 110.769478 304.561405 
L 111.719619 304.070114 
L 112.036333 304.181627 
L 112.372842 304.558859 
L 113.164626 305.545457 
L 113.421956 305.510803 
L 113.679286 305.22802 
L 114.035589 304.451902 
L 114.807579 302.655872 
L 115.02532 302.601098 
L 115.223266 302.792915 
L 115.520185 303.445019 
L 116.450532 305.728473 
L 116.767246 305.875776 
L 117.638209 306.057449 
L 118.588351 306.688994 
L 118.806091 306.420495 
L 119.162395 305.525515 
L 119.637465 304.436509 
L 119.835411 304.384096 
L 120.053152 304.622196 
L 120.607401 305.317549 
L 120.785553 305.204957 
L 121.141856 304.596709 
L 121.438775 304.294361 
L 121.616927 304.408804 
L 121.874257 304.943735 
L 122.448301 306.154845 
L 122.626452 306.136424 
L 122.824398 305.842654 
L 123.180701 304.806834 
L 123.893307 302.761081 
L 124.150637 302.5783 
L 124.328789 302.70697 
L 124.586119 303.22198 
L 125.655028 305.734772 
L 126.011331 305.935975 
L 126.328045 305.863698 
L 126.763526 305.491875 
L 127.317776 305.068047 
L 127.555311 305.163686 
L 127.85223 305.593618 
L 128.485658 306.549318 
L 128.703399 306.532461 
L 128.980523 306.246 
L 129.831692 305.236871 
L 130.623476 304.691944 
L 131.534029 303.63614 
L 131.771564 303.816772 
L 132.345608 304.702525 
L 132.840473 305.210262 
L 133.493695 305.532709 
L 133.869793 305.518374 
L 134.146918 305.270166 
L 134.54281 304.537392 
L 134.958497 303.909529 
L 135.176238 303.911371 
L 135.453362 304.208992 
L 135.928433 304.695034 
L 136.146174 304.631916 
L 136.403504 304.283337 
L 137.294261 302.825915 
L 137.492208 302.936847 
L 138.264198 303.631065 
L 138.481938 303.319158 
L 139.055982 301.884984 
L 139.451874 301.268308 
L 139.907151 301.004428 
L 140.441605 300.608184 
L 140.916676 300.338813 
L 141.272979 300.413422 
L 141.847023 300.553104 
L 142.124147 300.344648 
L 142.48045 299.756435 
L 143.014905 298.400768 
L 143.50977 297.281424 
L 143.668127 297.269357 
L 143.826484 297.530077 
L 144.083814 298.482177 
L 144.618269 300.439728 
L 144.737036 300.413771 
L 144.895393 299.996696 
L 145.172518 298.399637 
L 145.786151 294.831619 
L 145.964303 294.657148 
L 146.102865 294.830276 
L 146.360195 295.658574 
L 147.11239 298.292234 
L 147.389515 298.564422 
L 147.62705 298.508966 
L 147.88438 298.194793 
L 148.181299 297.458424 
L 148.537602 295.924659 
L 149.250209 291.519151 
L 149.68569 289.547982 
L 149.903431 289.305135 
L 150.041993 289.494133 
L 150.259734 290.329982 
L 150.734805 293.443407 
L 151.091108 295.058808 
L 151.269259 295.216204 
L 151.427616 295.025154 
L 152.100633 293.82969 
L 152.120428 293.843061 
L 152.298579 294.134441 
L 152.635088 295.256069 
L 153.149748 296.799712 
L 153.347694 296.901544 
L 153.486256 296.687446 
L 153.684202 295.845658 
L 153.961327 293.462646 
L 155.168798 281.1843 
L 155.426128 280.629286 
L 155.564691 280.649684 
L 155.723048 280.955243 
L 155.980378 282.041008 
L 156.653394 286.321932 
L 157.742098 292.477406 
L 157.979634 292.898433 
L 158.098401 292.821109 
L 158.276553 292.312242 
L 158.553677 290.621146 
L 159.147516 285.019565 
L 159.582997 282.08878 
L 159.820533 281.60537 
L 159.959095 281.693434 
L 160.157041 282.218816 
L 160.572728 284.199932 
L 161.047799 286.07643 
L 161.404102 286.639857 
L 161.720816 287.203452 
L 162.03753 288.357464 
L 162.690752 290.830191 
L 162.849109 290.853513 
L 163.007466 290.558265 
L 163.28459 289.41316 
L 165.026516 280.874892 
L 166.313166 277.994518 
L 166.431934 278.133754 
L 166.610086 278.861687 
L 166.907005 281.321082 
L 167.500843 286.263178 
L 167.6592 286.529497 
L 167.678995 286.521509 
L 167.797762 286.289994 
L 168.015503 285.163872 
L 169.005234 278.971282 
L 169.124002 279.051432 
L 169.302153 279.579476 
L 170.2325 283.015175 
L 170.450241 282.973196 
L 170.885722 282.592534 
L 171.143052 282.063323 
L 171.439971 280.812932 
L 172.449497 275.96666 
L 173.419433 272.568928 
L 173.57779 272.691053 
L 173.894504 273.351751 
L 174.626904 275.346828 
L 175.240537 277.401714 
L 175.339511 277.259962 
L 175.497867 276.502414 
L 175.755197 273.853585 
L 176.566777 264.457722 
L 176.62616 264.428298 
L 176.66575 264.480771 
L 176.804312 265.095397 
L 177.061642 267.652357 
L 177.754453 275.022215 
L 177.932605 275.371507 
L 177.9524 275.362916 
L 178.071167 275.139681 
L 178.308703 274.06169 
L 179.298433 267.946815 
L 179.674531 262.857026 
L 180.149602 257.098674 
L 180.288164 256.765679 
L 180.307959 256.783148 
L 180.406932 257.105537 
L 180.604878 258.746165 
L 181.337279 265.708922 
L 181.436252 265.793852 
L 181.475841 265.754361 
L 181.614403 265.30095 
L 181.851939 263.492649 
L 182.247831 258.336272 
L 182.821875 251.357793 
L 183.000026 250.87888 
L 183.019821 250.893871 
L 183.118794 251.170133 
L 183.31674 252.627688 
L 184.207498 260.991372 
L 184.247087 260.949914 
L 184.365855 260.504977 
L 184.583595 258.586382 
L 185.513942 248.872133 
L 185.711889 248.650611 
L 185.850451 248.836621 
L 186.127575 249.722739 
L 186.958949 252.671511 
L 187.077717 252.58483 
L 187.236074 252.000234 
L 187.473609 249.983283 
L 187.928885 243.494638 
L 188.344572 238.977546 
L 188.502929 238.580496 
L 188.522724 238.593674 
L 188.621697 238.872692 
L 188.799848 240.243005 
L 189.116562 244.87249 
L 189.74999 254.078292 
L 189.928141 254.640474 
L 189.947936 254.633122 
L 190.046909 254.404985 
L 190.244855 253.161988 
L 191.353354 244.655781 
L 191.670067 243.934876 
L 191.848219 243.888656 
L 192.006576 244.112998 
L 192.244111 244.958168 
L 192.719182 247.817368 
L 193.09528 249.463614 
L 193.293226 249.648249 
L 193.451583 249.469422 
L 193.748502 248.641598 
L 194.401724 246.033285 
L 194.817411 243.299313 
L 195.648785 237.423548 
L 195.787347 237.313287 
L 195.807142 237.328319 
L 195.945704 237.63643 
L 196.203034 238.943529 
L 196.757283 241.772655 
L 196.856256 241.821518 
L 196.895846 241.779114 
L 197.034408 241.329752 
L 197.252149 239.661969 
L 197.667836 234.189033 
L 198.162701 228.582898 
L 198.519004 226.815972 
L 199.370173 223.623571 
L 199.449351 223.705007 
L 199.587913 224.225909 
L 199.845243 226.354225 
L 200.478671 231.876866 
L 200.597439 232.019682 
L 200.637028 231.987525 
L 200.77559 231.597388 
L 201.072509 229.842796 
L 201.488196 227.811711 
L 201.626759 227.708682 
L 201.646553 227.72146 
L 201.785116 227.993711 
L 202.022651 229.104503 
L 202.418543 232.215911 
L 203.546836 241.778141 
L 203.784372 242.215135 
L 203.922934 242.164979 
L 204.12088 241.786552 
L 204.437594 240.620798 
L 204.833486 238.268367 
L 205.565887 233.641264 
L 205.645065 233.626207 
L 205.684655 233.680753 
L 205.823217 234.198674 
L 206.080547 236.275739 
L 206.595207 240.380407 
L 206.69418 240.474972 
L 206.733769 240.422038 
L 206.872331 239.826148 
L 207.109867 237.478014 
L 208.099598 226.0873 
L 208.297544 225.873622 
L 208.733025 225.82584 
L 209.089328 225.421388 
L 209.128917 225.46074 
L 209.26748 225.899983 
L 209.465426 227.52275 
L 209.801934 232.6105 
L 210.2968 239.409125 
L 210.474951 240.038347 
L 210.494746 240.033824 
L 210.593719 239.792379 
L 210.77187 238.500118 
L 211.088584 234.110442 
L 211.820985 223.617262 
L 211.999137 223.142024 
L 212.09811 223.33069 
L 212.296056 224.412121 
L 212.751332 226.918301 
L 212.83051 226.910013 
L 212.850305 226.878753 
L 212.988867 226.336862 
L 213.246197 224.086911 
L 214.196339 214.77416 
L 214.592231 212.993823 
L 214.790177 212.797204 
L 214.908945 212.974708 
L 215.106891 213.770467 
L 215.542373 216.827476 
L 215.91847 218.696946 
L 216.057033 218.790051 
L 216.076827 218.772053 
L 216.215389 218.421803 
L 216.43313 217.088767 
L 216.749844 213.562094 
L 217.185326 205.910433 
L 217.798959 190.403902 
L 218.274029 180.439584 
L 218.511565 178.870163 
L 218.570949 178.868971 
L 218.590743 178.899006 
L 218.729306 179.466966 
L 219.184582 182.996792 
L 219.560679 184.788494 
L 219.877393 186.343598 
L 220.174312 189.255923 
L 220.708767 194.541977 
L 220.768151 194.364626 
L 220.886919 192.954879 
L 221.06507 187.292645 
L 221.302605 170.838013 
L 221.639114 128.725609 
L 222.213158 57.227811 
L 222.331925 54.144 
L 222.371515 54.418364 
L 222.470488 57.901096 
L 222.668434 75.344561 
L 223.757138 192.108985 
L 224.034262 198.735471 
L 224.212414 199.67032 
L 224.291592 199.428606 
L 224.449949 197.905973 
L 224.727074 192.420249 
L 225.142761 178.975002 
L 226.033518 148.76056 
L 226.231464 147.290995 
L 226.251259 147.293437 
L 226.330438 147.555321 
L 226.488794 149.139948 
L 226.884687 156.272573 
L 227.260784 161.118174 
L 227.399347 161.476955 
L 227.419141 161.460003 
L 227.518114 161.132591 
L 227.716061 159.413743 
L 228.111953 153.36213 
L 228.903737 141.323192 
L 229.161067 140.014833 
L 229.240246 140.07583 
L 229.359014 140.626781 
L 229.55696 142.801226 
L 229.873673 149.217501 
L 231.31868 182.725807 
L 231.516627 183.286363 
L 231.635394 183.189257 
L 232.051081 182.49846 
L 232.110465 182.554265 
L 232.268822 183.013501 
L 232.565741 184.823479 
L 233.199169 188.5948 
L 233.951364 192.362896 
L 234.287873 193.537536 
L 234.446229 193.595172 
L 234.604586 193.351212 
L 235.218219 192.130478 
L 235.238014 192.14031 
L 235.396371 192.382678 
L 235.653701 193.332429 
L 236.069388 195.881314 
L 237.75193 208.879152 
L 238.563509 215.457814 
L 238.919812 216.870914 
L 239.058375 216.960348 
L 239.078169 216.945669 
L 239.216732 216.629301 
L 239.414678 215.489067 
L 239.731392 212.084644 
L 240.879479 198.181737 
L 240.938863 198.164037 
L 240.978452 198.223269 
L 241.117015 198.891278 
L 241.334755 201.350038 
L 241.750442 209.252948 
L 242.304691 218.644104 
L 242.621405 220.878405 
L 242.779762 221.085519 
L 242.799557 221.071604 
L 242.918324 220.815349 
L 243.136065 219.675007 
L 243.591341 215.692677 
L 244.660251 206.421516 
L 244.897786 205.779584 
L 244.996759 205.938191 
L 245.155116 206.790357 
L 245.432241 209.873171 
L 246.105257 217.841691 
L 246.303204 218.321169 
L 246.421971 218.230984 
L 246.877247 217.580753 
L 246.916837 217.617574 
L 247.075194 217.98662 
L 247.391907 219.491456 
L 248.381638 224.475502 
L 248.5202 224.576335 
L 248.539995 224.563979 
L 248.678557 224.301843 
L 249.193217 222.817366 
L 249.252601 222.895923 
L 249.391163 223.451908 
L 249.628699 225.559369 
L 250.658019 236.265167 
L 250.915349 236.797734 
L 251.212268 236.876677 
L 251.449803 237.052608 
L 251.806106 237.721105 
L 252.063436 237.99554 
L 252.201999 237.850128 
L 252.399945 237.16186 
L 252.736453 234.898363 
L 253.251113 231.738888 
L 253.449059 231.47285 
L 253.627211 231.593448 
L 253.844952 231.690405 
L 253.963719 231.470239 
L 254.141871 230.527227 
L 254.418995 227.569653 
L 254.973245 221.658266 
L 255.092012 221.432126 
L 255.131602 221.465583 
L 255.250369 221.875302 
L 255.46811 223.642837 
L 255.903592 229.451123 
L 256.814144 241.776887 
L 256.952706 242.093904 
L 256.972501 242.080508 
L 257.071474 241.797432 
L 257.26942 240.279129 
L 258.080999 232.95043 
L 258.179972 232.989261 
L 258.338329 233.495609 
L 258.714427 235.789404 
L 259.149908 237.880622 
L 259.446828 238.437291 
L 259.664568 238.472858 
L 259.84272 238.232692 
L 260.080255 237.446746 
L 260.753272 234.630361 
L 260.792861 234.653229 
L 260.911629 234.950606 
L 261.12937 236.282775 
L 261.604441 239.254565 
L 261.683619 239.232577 
L 261.703414 239.192634 
L 261.841976 238.527401 
L 262.099306 235.801819 
L 262.772323 228.209914 
L 262.990064 227.612311 
L 263.108831 227.703148 
L 263.286983 228.286809 
L 263.583902 230.197431 
L 263.96 234.175795 
L 265.187266 248.907879 
L 265.424801 249.362775 
L 265.543569 249.240666 
L 265.72172 248.575675 
L 265.97905 246.532765 
L 266.454121 240.423983 
L 267.00837 234.285257 
L 267.463646 231.643554 
L 267.958512 229.926978 
L 268.097074 229.844808 
L 268.116869 229.8596 
L 268.235636 230.115085 
L 268.433583 231.247915 
L 268.770091 234.918494 
L 269.284751 240.091519 
L 269.502492 240.616718 
L 269.621259 240.503245 
L 269.898384 239.722285 
L 270.175509 239.190634 
L 270.294276 239.254354 
L 270.472428 239.741126 
L 270.828731 241.652691 
L 271.145445 242.899062 
L 271.244418 242.903302 
L 271.264212 242.875041 
L 271.402775 242.389192 
L 271.64031 240.435381 
L 272.511273 232.116621 
L 272.590452 232.201618 
L 272.729014 232.868906 
L 272.966549 235.458152 
L 273.402031 243.368443 
L 274.094842 255.204567 
L 274.411556 257.677409 
L 274.550118 257.937446 
L 274.589708 257.914959 
L 274.708475 257.598319 
L 274.926216 256.188242 
L 275.718001 250.391998 
L 275.896152 250.250825 
L 276.054509 250.459884 
L 276.311839 251.264966 
L 276.806705 253.722586 
L 277.459927 256.711076 
L 277.875614 257.700382 
L 278.113149 257.826238 
L 278.291301 257.630649 
L 278.608014 256.815309 
L 278.944523 256.144076 
L 279.083085 256.173634 
L 279.261237 256.522299 
L 279.637334 257.957844 
L 280.053021 259.204277 
L 280.211378 259.255406 
L 280.349941 259.019446 
L 280.547887 258.150726 
L 280.844806 255.649974 
L 281.775153 246.968005 
L 282.012688 246.531146 
L 282.171045 246.596922 
L 282.388786 247.028742 
L 282.685705 248.211974 
L 283.042008 250.699623 
L 283.576463 256.329624 
L 284.269274 263.191695 
L 284.487015 263.78709 
L 284.585988 263.614752 
L 284.744345 262.701112 
L 285.001675 259.623704 
L 286.050789 245.04303 
L 286.129968 245.010461 
L 286.149763 245.035357 
L 286.26853 245.448011 
L 286.486271 247.203129 
L 287.020726 254.00162 
L 287.970867 265.219658 
L 288.188608 265.999996 
L 288.267786 265.906905 
L 288.406349 265.221801 
L 288.643884 262.636619 
L 289.495052 252.13406 
L 289.633615 251.930117 
L 289.673204 251.951761 
L 289.811766 252.241055 
L 290.187864 253.801706 
L 291.316157 259.187223 
L 292.583012 267.67151 
L 292.879932 268.202928 
L 293.038288 268.154513 
L 293.21644 267.764295 
L 293.47377 266.52616 
L 293.948841 262.793781 
L 294.621858 258.002849 
L 294.938571 257.01409 
L 295.096928 257.011167 
L 295.255285 257.352024 
L 295.571999 258.735259 
L 295.967891 260.123348 
L 296.086659 260.128546 
L 296.106454 260.105243 
L 296.264811 259.667618 
L 296.522141 258.126534 
L 297.195157 253.853684 
L 297.294131 253.842795 
L 297.313925 253.870167 
L 297.452487 254.332911 
L 297.709817 256.20543 
L 298.244272 260.049138 
L 298.462013 260.405292 
L 298.83811 260.645711 
L 299.036057 261.334558 
L 299.451744 263.894643 
L 299.926814 266.180175 
L 300.580037 268.018004 
L 300.777983 268.116533 
L 300.916545 267.889622 
L 301.15408 266.928537 
L 301.827097 263.926315 
L 301.96566 263.923577 
L 302.143811 264.25129 
L 302.539703 265.640932 
L 303.054363 268.122749 
L 304.083683 273.949622 
L 304.222246 273.824317 
L 304.479576 273.121224 
L 305.132798 271.288726 
L 305.409922 271.058883 
L 305.607869 271.170015 
L 305.865199 271.639378 
L 306.280886 272.938944 
L 306.637189 274.785666 
L 307.052875 278.430342 
L 307.567535 282.585603 
L 307.785276 282.999085 
L 307.904044 282.860588 
L 308.161374 282.043816 
L 308.577061 280.858691 
L 308.755212 280.805561 
L 308.933364 281.065639 
L 309.210488 281.990079 
L 310.200219 285.764475 
L 310.378371 285.791664 
L 310.576317 285.557967 
L 311.170155 284.723473 
L 311.348307 284.912977 
L 311.862967 285.750022 
L 311.902556 285.72099 
L 312.041118 285.420445 
L 312.278654 284.206832 
L 313.011054 280.042595 
L 313.189206 279.980792 
L 313.406947 280.278678 
L 313.783044 280.735564 
L 313.961196 280.652017 
L 314.634213 280.039307 
L 314.654007 280.060179 
L 314.891543 280.513033 
L 315.30723 281.269273 
L 315.445792 281.21017 
L 315.643738 280.813028 
L 316.197987 279.587108 
L 316.356344 279.68115 
L 316.59388 280.202241 
L 317.642994 283.447991 
L 318.038887 286.683989 
L 318.434779 289.262739 
L 318.553547 289.394905 
L 318.593136 289.359019 
L 318.731698 288.935685 
L 318.989028 287.195509 
L 319.998553 277.723532 
L 320.41424 274.757435 
L 320.552803 274.542009 
L 320.572597 274.552815 
L 320.691365 274.836763 
L 320.909106 276.208991 
L 321.641506 281.486341 
L 321.859247 281.712901 
L 322.136372 281.582424 
L 322.492675 281.517957 
L 322.750005 281.423624 
L 322.967746 281.038884 
L 323.284459 279.878813 
L 323.818914 277.989846 
L 323.957476 277.960982 
L 323.977271 277.980457 
L 324.135628 278.360153 
L 324.373163 279.643183 
L 325.501456 286.926274 
L 326.669338 288.951576 
L 326.827695 288.882835 
L 327.045436 288.480629 
L 327.381945 287.30579 
L 327.738248 285.203174 
L 328.173729 280.979777 
L 328.6488 277.006162 
L 328.787362 276.771478 
L 328.807157 276.783238 
L 328.925925 277.089475 
L 329.143665 278.577855 
L 330.133396 286.696224 
L 330.271958 286.74422 
L 330.291753 286.727339 
L 330.469904 286.366008 
L 331.083538 284.84298 
L 331.202305 284.968148 
L 331.400251 285.62428 
L 331.73676 287.740678 
L 332.370187 291.669381 
L 332.568134 291.91783 
L 332.686901 291.754599 
L 332.904642 290.922044 
L 334.01314 285.669987 
L 334.171497 285.734543 
L 334.389238 286.138142 
L 335.378969 288.338073 
L 335.59671 288.233036 
L 335.953013 288.055388 
L 336.131164 288.25872 
L 336.3687 288.969181 
L 337.338636 292.397131 
L 337.556376 292.389423 
L 337.853296 292.374735 
L 338.031447 292.663325 
L 338.268983 293.580885 
L 339.100356 297.303498 
L 339.219124 297.164357 
L 339.41707 296.462664 
L 340.18906 293.235016 
L 340.327622 293.280281 
L 340.545363 293.682662 
L 340.96105 294.426999 
L 341.099612 294.360484 
L 341.277764 293.921859 
L 341.554889 292.494601 
L 342.188316 289.036944 
L 342.287289 289.008551 
L 342.307084 289.029906 
L 342.445646 289.439645 
L 342.683182 291.127496 
L 343.593734 298.705005 
L 343.732296 298.742442 
L 343.890653 298.449369 
L 344.682438 296.587819 
L 344.979357 296.580704 
L 345.474222 296.796591 
L 345.731552 297.196317 
L 346.087855 298.282307 
L 346.503542 299.344539 
L 346.642105 299.325984 
L 346.800461 298.987034 
L 347.057791 297.780227 
L 348.146495 291.857761 
L 348.463209 291.361304 
L 348.621566 291.403836 
L 348.799718 291.763209 
L 349.057047 292.923967 
L 349.9676 297.708092 
L 350.106162 297.67269 
L 350.284314 297.277157 
L 350.620822 295.804802 
L 351.47199 291.929756 
L 351.76891 291.481064 
L 351.98665 291.500904 
L 352.342954 291.847836 
L 353.01597 292.762472 
L 353.847344 294.202476 
L 354.025496 294.093772 
L 354.30262 293.598609 
L 354.797486 292.75431 
L 354.955843 292.837725 
L 355.153789 293.321512 
L 355.510092 294.993889 
L 355.905984 296.531871 
L 356.064341 296.614644 
L 356.202903 296.388747 
L 356.460233 295.419994 
L 356.994688 293.483585 
L 357.212429 293.36805 
L 357.449964 293.577573 
L 358.16257 294.629633 
L 358.459489 295.602678 
L 358.974149 298.26648 
L 359.567988 300.946317 
L 359.864907 301.477883 
L 360.023264 301.415101 
L 360.201415 301.024103 
L 360.518129 299.631615 
L 361.111968 297.043732 
L 361.329708 296.8616 
L 361.50786 297.027354 
L 361.963136 297.94257 
L 362.398618 298.539951 
L 362.893483 299.143228 
L 363.210197 300.058405 
L 364.239517 303.549727 
L 364.437463 303.562668 
L 364.655204 303.309507 
L 365.11048 302.317515 
L 365.526167 301.649642 
L 365.704318 301.661819 
L 365.902264 301.96982 
L 366.199184 302.983425 
L 367.030557 306.101427 
L 367.228504 306.180672 
L 367.406655 305.966744 
L 367.703574 305.141553 
L 368.653716 302.182833 
L 368.990224 301.878687 
L 369.683036 301.479907 
L 370.47482 300.660826 
L 370.692561 300.892746 
L 370.73215 300.960468 
L 370.73215 300.960468 
" style="fill:none;stroke:#ff7f0e;stroke-linecap:square;stroke-width:1.5;"/>
   </g>
   <g id="patch_103">
    <path d="M 57.6 307.584 
L 57.6 41.472 
" style="fill:none;stroke:#000000;stroke-linecap:square;stroke-linejoin:miter;stroke-width:0.8;"/>
   </g>
   <g id="patch_104">
    <path d="M 414.72 307.584 
L 414.72 41.472 
" style="fill:none;stroke:#000000;stroke-linecap:square;stroke-linejoin:miter;stroke-width:0.8;"/>
   </g>
   <g id="patch_105">
    <path d="M 57.6 307.584 
L 414.72 307.584 
" style="fill:none;stroke:#000000;stroke-linecap:square;stroke-linejoin:miter;stroke-width:0.8;"/>
   </g>
   <g id="patch_106">
    <path d="M 57.6 41.472 
L 414.72 41.472 
" style="fill:none;stroke:#000000;stroke-linecap:square;stroke-linejoin:miter;stroke-width:0.8;"/>
   </g>
  </g>
 </g>
 <defs>
  <clipPath id="p087ae0a034">
   <rect height="266.112" width="357.12" x="57.6" y="41.472"/>
  </clipPath>
 </defs>
</svg>
