<?xml version="1.0" encoding="utf-8" standalone="no"?>
<!DOCTYPE svg PUBLIC "-//W3C//DTD SVG 1.1//EN"
  "http://www.w3.org/Graphics/SVG/1.1/DTD/svg11.dtd">
<!-- Created with matplotlib (https://matplotlib.org/) -->
<svg height="345.6pt" version="1.1" viewBox="0 0 460.8 345.6" width="460.8pt" xmlns="http://www.w3.org/2000/svg" xmlns:xlink="http://www.w3.org/1999/xlink">
 <defs>
  <style type="text/css">
*{stroke-linecap:butt;stroke-linejoin:round;}
  </style>
 </defs>
 <g id="figure_1">
  <g id="patch_1">
   <path d="M 0 345.6 
L 460.8 345.6 
L 460.8 0 
L 0 0 
z
" style="fill:#ffffff;"/>
  </g>
  <g id="axes_1">
   <g id="patch_2">
    <path d="M 57.6 307.584 
L 414.72 307.584 
L 414.72 41.472 
L 57.6 41.472 
z
" style="fill:#ffffff;"/>
   </g>
   <g id="patch_3">
    <path clip-path="url(#p406f06a409)" d="M 100.170552 307.584 
L 102.890514 307.584 
L 102.890514 304.4476 
L 100.170552 304.4476 
z
" style="fill:#1f77b4;"/>
   </g>
   <g id="patch_4">
    <path clip-path="url(#p406f06a409)" d="M 102.890498 307.584 
L 105.61046 307.584 
L 105.61046 304.4476 
L 102.890498 304.4476 
z
" style="fill:#1f77b4;"/>
   </g>
   <g id="patch_5">
    <path clip-path="url(#p406f06a409)" d="M 105.610475 307.584 
L 108.330437 307.584 
L 108.330437 302.655371 
L 105.610475 302.655371 
z
" style="fill:#1f77b4;"/>
   </g>
   <g id="patch_6">
    <path clip-path="url(#p406f06a409)" d="M 108.330437 307.584 
L 111.050399 307.584 
L 111.050399 299.518971 
L 108.330437 299.518971 
z
" style="fill:#1f77b4;"/>
   </g>
   <g id="patch_7">
    <path clip-path="url(#p406f06a409)" d="M 111.050399 307.584 
L 113.770361 307.584 
L 113.770361 295.486456 
L 111.050399 295.486456 
z
" style="fill:#1f77b4;"/>
   </g>
   <g id="patch_8">
    <path clip-path="url(#p406f06a409)" d="M 113.770361 307.584 
L 116.490323 307.584 
L 116.490323 294.590342 
L 113.770361 294.590342 
z
" style="fill:#1f77b4;"/>
   </g>
   <g id="patch_9">
    <path clip-path="url(#p406f06a409)" d="M 116.490323 307.584 
L 119.210285 307.584 
L 119.210285 296.382571 
L 116.490323 296.382571 
z
" style="fill:#1f77b4;"/>
   </g>
   <g id="patch_10">
    <path clip-path="url(#p406f06a409)" d="M 119.210285 307.584 
L 121.930246 307.584 
L 121.930246 290.10977 
L 119.210285 290.10977 
z
" style="fill:#1f77b4;"/>
   </g>
   <g id="patch_11">
    <path clip-path="url(#p406f06a409)" d="M 121.930246 307.584 
L 124.650208 307.584 
L 124.650208 287.421427 
L 121.930246 287.421427 
z
" style="fill:#1f77b4;"/>
   </g>
   <g id="patch_12">
    <path clip-path="url(#p406f06a409)" d="M 124.650208 307.584 
L 127.37017 307.584 
L 127.37017 286.97337 
L 124.650208 286.97337 
z
" style="fill:#1f77b4;"/>
   </g>
   <g id="patch_13">
    <path clip-path="url(#p406f06a409)" d="M 127.37017 307.584 
L 130.090132 307.584 
L 130.090132 287.869484 
L 127.37017 287.869484 
z
" style="fill:#1f77b4;"/>
   </g>
   <g id="patch_14">
    <path clip-path="url(#p406f06a409)" d="M 130.090132 307.584 
L 132.810094 307.584 
L 132.810094 292.798113 
L 130.090132 292.798113 
z
" style="fill:#1f77b4;"/>
   </g>
   <g id="patch_15">
    <path clip-path="url(#p406f06a409)" d="M 132.810094 307.584 
L 135.530048 307.584 
L 135.530048 293.694188 
L 132.810094 293.694188 
z
" style="fill:#1f77b4;"/>
   </g>
   <g id="patch_16">
    <path clip-path="url(#p406f06a409)" d="M 135.530048 307.584 
L 138.25001 307.584 
L 138.25001 293.24617 
L 135.530048 293.24617 
z
" style="fill:#1f77b4;"/>
   </g>
   <g id="patch_17">
    <path clip-path="url(#p406f06a409)" d="M 138.25001 307.584 
L 140.969971 307.584 
L 140.969971 284.733084 
L 138.25001 284.733084 
z
" style="fill:#1f77b4;"/>
   </g>
   <g id="patch_18">
    <path clip-path="url(#p406f06a409)" d="M 140.969971 307.584 
L 143.689933 307.584 
L 143.689933 291.901999 
L 140.969971 291.901999 
z
" style="fill:#1f77b4;"/>
   </g>
   <g id="patch_19">
    <path clip-path="url(#p406f06a409)" d="M 143.689933 307.584 
L 146.409895 307.584 
L 146.409895 283.388912 
L 143.689933 283.388912 
z
" style="fill:#1f77b4;"/>
   </g>
   <g id="patch_20">
    <path clip-path="url(#p406f06a409)" d="M 146.409895 307.584 
L 149.129857 307.584 
L 149.129857 288.765599 
L 146.409895 288.765599 
z
" style="fill:#1f77b4;"/>
   </g>
   <g id="patch_21">
    <path clip-path="url(#p406f06a409)" d="M 149.129857 307.584 
L 151.849819 307.584 
L 151.849819 290.10977 
L 149.129857 290.10977 
z
" style="fill:#1f77b4;"/>
   </g>
   <g id="patch_22">
    <path clip-path="url(#p406f06a409)" d="M 151.849819 307.584 
L 154.569781 307.584 
L 154.569781 290.10977 
L 151.849819 290.10977 
z
" style="fill:#1f77b4;"/>
   </g>
   <g id="patch_23">
    <path clip-path="url(#p406f06a409)" d="M 154.569781 307.584 
L 157.289742 307.584 
L 157.289742 291.453942 
L 154.569781 291.453942 
z
" style="fill:#1f77b4;"/>
   </g>
   <g id="patch_24">
    <path clip-path="url(#p406f06a409)" d="M 157.289742 307.584 
L 160.009704 307.584 
L 160.009704 286.525313 
L 157.289742 286.525313 
z
" style="fill:#1f77b4;"/>
   </g>
   <g id="patch_25">
    <path clip-path="url(#p406f06a409)" d="M 160.009704 307.584 
L 162.729666 307.584 
L 162.729666 288.317541 
L 160.009704 288.317541 
z
" style="fill:#1f77b4;"/>
   </g>
   <g id="patch_26">
    <path clip-path="url(#p406f06a409)" d="M 162.729666 307.584 
L 165.449628 307.584 
L 165.449628 280.700569 
L 162.729666 280.700569 
z
" style="fill:#1f77b4;"/>
   </g>
   <g id="patch_27">
    <path clip-path="url(#p406f06a409)" d="M 165.449628 307.584 
L 168.16959 307.584 
L 168.16959 277.116112 
L 165.449628 277.116112 
z
" style="fill:#1f77b4;"/>
   </g>
   <g id="patch_28">
    <path clip-path="url(#p406f06a409)" d="M 168.16959 307.584 
L 170.889552 307.584 
L 170.889552 277.116112 
L 168.16959 277.116112 
z
" style="fill:#1f77b4;"/>
   </g>
   <g id="patch_29">
    <path clip-path="url(#p406f06a409)" d="M 170.889552 307.584 
L 173.609513 307.584 
L 173.609513 276.219998 
L 170.889552 276.219998 
z
" style="fill:#1f77b4;"/>
   </g>
   <g id="patch_30">
    <path clip-path="url(#p406f06a409)" d="M 173.609513 307.584 
L 176.329475 307.584 
L 176.329475 278.908341 
L 173.609513 278.908341 
z
" style="fill:#1f77b4;"/>
   </g>
   <g id="patch_31">
    <path clip-path="url(#p406f06a409)" d="M 176.329475 307.584 
L 179.049437 307.584 
L 179.049437 272.187483 
L 176.329475 272.187483 
z
" style="fill:#1f77b4;"/>
   </g>
   <g id="patch_32">
    <path clip-path="url(#p406f06a409)" d="M 179.049437 307.584 
L 181.769399 307.584 
L 181.769399 272.187483 
L 179.049437 272.187483 
z
" style="fill:#1f77b4;"/>
   </g>
   <g id="patch_33">
    <path clip-path="url(#p406f06a409)" d="M 181.769399 307.584 
L 184.489361 307.584 
L 184.489361 273.083597 
L 181.769399 273.083597 
z
" style="fill:#1f77b4;"/>
   </g>
   <g id="patch_34">
    <path clip-path="url(#p406f06a409)" d="M 184.489361 307.584 
L 187.209319 307.584 
L 187.209319 267.258797 
L 184.489361 267.258797 
z
" style="fill:#1f77b4;"/>
   </g>
   <g id="patch_35">
    <path clip-path="url(#p406f06a409)" d="M 187.209319 307.584 
L 189.92928 307.584 
L 189.92928 261.434111 
L 187.209319 261.434111 
z
" style="fill:#1f77b4;"/>
   </g>
   <g id="patch_36">
    <path clip-path="url(#p406f06a409)" d="M 189.92928 307.584 
L 192.649242 307.584 
L 192.649242 261.882168 
L 189.92928 261.882168 
z
" style="fill:#1f77b4;"/>
   </g>
   <g id="patch_37">
    <path clip-path="url(#p406f06a409)" d="M 192.649242 307.584 
L 195.369204 307.584 
L 195.369204 252.472967 
L 192.649242 252.472967 
z
" style="fill:#1f77b4;"/>
   </g>
   <g id="patch_38">
    <path clip-path="url(#p406f06a409)" d="M 195.369204 307.584 
L 198.089166 307.584 
L 198.089166 248.88851 
L 195.369204 248.88851 
z
" style="fill:#1f77b4;"/>
   </g>
   <g id="patch_39">
    <path clip-path="url(#p406f06a409)" d="M 198.089166 307.584 
L 200.809128 307.584 
L 200.809128 248.440453 
L 198.089166 248.440453 
z
" style="fill:#1f77b4;"/>
   </g>
   <g id="patch_40">
    <path clip-path="url(#p406f06a409)" d="M 200.809128 307.584 
L 203.52909 307.584 
L 203.52909 244.407938 
L 200.809128 244.407938 
z
" style="fill:#1f77b4;"/>
   </g>
   <g id="patch_41">
    <path clip-path="url(#p406f06a409)" d="M 203.52909 307.584 
L 206.249051 307.584 
L 206.249051 235.894852 
L 203.52909 235.894852 
z
" style="fill:#1f77b4;"/>
   </g>
   <g id="patch_42">
    <path clip-path="url(#p406f06a409)" d="M 206.249051 307.584 
L 208.969013 307.584 
L 208.969013 242.615709 
L 206.249051 242.615709 
z
" style="fill:#1f77b4;"/>
   </g>
   <g id="patch_43">
    <path clip-path="url(#p406f06a409)" d="M 208.969013 307.584 
L 211.688973 307.584 
L 211.688973 235.446743 
L 208.969013 235.446743 
z
" style="fill:#1f77b4;"/>
   </g>
   <g id="patch_44">
    <path clip-path="url(#p406f06a409)" d="M 211.688973 307.584 
L 214.408935 307.584 
L 214.408935 245.752109 
L 211.688973 245.752109 
z
" style="fill:#1f77b4;"/>
   </g>
   <g id="patch_45">
    <path clip-path="url(#p406f06a409)" d="M 214.408935 307.584 
L 217.128897 307.584 
L 217.128897 232.310394 
L 214.408935 232.310394 
z
" style="fill:#1f77b4;"/>
   </g>
   <g id="patch_46">
    <path clip-path="url(#p406f06a409)" d="M 217.128897 307.584 
L 219.848859 307.584 
L 219.848859 221.108965 
L 217.128897 221.108965 
z
" style="fill:#1f77b4;"/>
   </g>
   <g id="patch_47">
    <path clip-path="url(#p406f06a409)" d="M 219.848859 307.584 
L 222.56882 307.584 
L 222.56882 209.011421 
L 219.848859 209.011421 
z
" style="fill:#1f77b4;"/>
   </g>
   <g id="patch_48">
    <path clip-path="url(#p406f06a409)" d="M 222.56882 307.584 
L 225.288781 307.584 
L 225.288781 207.667214 
L 222.56882 207.667214 
z
" style="fill:#1f77b4;"/>
   </g>
   <g id="patch_49">
    <path clip-path="url(#p406f06a409)" d="M 225.288781 307.584 
L 228.008743 307.584 
L 228.008743 209.907535 
L 225.288781 209.907535 
z
" style="fill:#1f77b4;"/>
   </g>
   <g id="patch_50">
    <path clip-path="url(#p406f06a409)" d="M 228.008743 307.584 
L 230.728704 307.584 
L 230.728704 208.563346 
L 228.008743 208.563346 
z
" style="fill:#1f77b4;"/>
   </g>
   <g id="patch_51">
    <path clip-path="url(#p406f06a409)" d="M 230.728704 307.584 
L 233.448666 307.584 
L 233.448666 181.679922 
L 230.728704 181.679922 
z
" style="fill:#1f77b4;"/>
   </g>
   <g id="patch_52">
    <path clip-path="url(#p406f06a409)" d="M 233.448666 307.584 
L 236.168628 307.584 
L 236.168628 110.438824 
L 233.448666 110.438824 
z
" style="fill:#1f77b4;"/>
   </g>
   <g id="patch_53">
    <path clip-path="url(#p406f06a409)" d="M 236.168628 307.584 
L 238.888589 307.584 
L 238.888589 198.258039 
L 236.168628 198.258039 
z
" style="fill:#1f77b4;"/>
   </g>
   <g id="patch_54">
    <path clip-path="url(#p406f06a409)" d="M 238.888589 307.584 
L 241.60855 307.584 
L 241.60855 195.121638 
L 238.888589 195.121638 
z
" style="fill:#1f77b4;"/>
   </g>
   <g id="patch_55">
    <path clip-path="url(#p406f06a409)" d="M 241.60855 307.584 
L 244.328511 307.584 
L 244.328511 194.225514 
L 241.60855 194.225514 
z
" style="fill:#1f77b4;"/>
   </g>
   <g id="patch_56">
    <path clip-path="url(#p406f06a409)" d="M 244.328512 307.584 
L 247.048474 307.584 
L 247.048474 197.809991 
L 244.328512 197.809991 
z
" style="fill:#1f77b4;"/>
   </g>
   <g id="patch_57">
    <path clip-path="url(#p406f06a409)" d="M 247.048473 307.584 
L 249.768434 307.584 
L 249.768434 199.154124 
L 247.048473 199.154124 
z
" style="fill:#1f77b4;"/>
   </g>
   <g id="patch_58">
    <path clip-path="url(#p406f06a409)" d="M 249.768435 307.584 
L 252.488397 307.584 
L 252.488397 197.809991 
L 249.768435 197.809991 
z
" style="fill:#1f77b4;"/>
   </g>
   <g id="patch_59">
    <path clip-path="url(#p406f06a409)" d="M 252.488397 307.584 
L 255.208359 307.584 
L 255.208359 207.219192 
L 252.488397 207.219192 
z
" style="fill:#1f77b4;"/>
   </g>
   <g id="patch_60">
    <path clip-path="url(#p406f06a409)" d="M 255.208359 307.584 
L 257.92832 307.584 
L 257.92832 219.764793 
L 255.208359 219.764793 
z
" style="fill:#1f77b4;"/>
   </g>
   <g id="patch_61">
    <path clip-path="url(#p406f06a409)" d="M 257.92832 307.584 
L 260.648282 307.584 
L 260.648282 215.284221 
L 257.92832 215.284221 
z
" style="fill:#1f77b4;"/>
   </g>
   <g id="patch_62">
    <path clip-path="url(#p406f06a409)" d="M 260.64828 307.584 
L 263.36824 307.584 
L 263.36824 230.518111 
L 260.64828 230.518111 
z
" style="fill:#1f77b4;"/>
   </g>
   <g id="patch_63">
    <path clip-path="url(#p406f06a409)" d="M 263.368242 307.584 
L 266.088204 307.584 
L 266.088204 225.589536 
L 263.368242 225.589536 
z
" style="fill:#1f77b4;"/>
   </g>
   <g id="patch_64">
    <path clip-path="url(#p406f06a409)" d="M 266.088204 307.584 
L 268.808166 307.584 
L 268.808166 243.063766 
L 266.088204 243.063766 
z
" style="fill:#1f77b4;"/>
   </g>
   <g id="patch_65">
    <path clip-path="url(#p406f06a409)" d="M 268.808166 307.584 
L 271.528128 307.584 
L 271.528128 239.479309 
L 268.808166 239.479309 
z
" style="fill:#1f77b4;"/>
   </g>
   <g id="patch_66">
    <path clip-path="url(#p406f06a409)" d="M 271.528128 307.584 
L 274.248089 307.584 
L 274.248089 243.063766 
L 271.528128 243.063766 
z
" style="fill:#1f77b4;"/>
   </g>
   <g id="patch_67">
    <path clip-path="url(#p406f06a409)" d="M 274.248089 307.584 
L 276.968051 307.584 
L 276.968051 241.271538 
L 274.248089 241.271538 
z
" style="fill:#1f77b4;"/>
   </g>
   <g id="patch_68">
    <path clip-path="url(#p406f06a409)" d="M 276.968051 307.584 
L 279.688013 307.584 
L 279.688013 249.336567 
L 276.968051 249.336567 
z
" style="fill:#1f77b4;"/>
   </g>
   <g id="patch_69">
    <path clip-path="url(#p406f06a409)" d="M 279.688013 307.584 
L 282.407975 307.584 
L 282.407975 251.128796 
L 279.688013 251.128796 
z
" style="fill:#1f77b4;"/>
   </g>
   <g id="patch_70">
    <path clip-path="url(#p406f06a409)" d="M 282.407975 307.584 
L 285.127937 307.584 
L 285.127937 251.128796 
L 282.407975 251.128796 
z
" style="fill:#1f77b4;"/>
   </g>
   <g id="patch_71">
    <path clip-path="url(#p406f06a409)" d="M 285.127933 307.584 
L 287.847891 307.584 
L 287.847891 263.226276 
L 285.127933 263.226276 
z
" style="fill:#1f77b4;"/>
   </g>
   <g id="patch_72">
    <path clip-path="url(#p406f06a409)" d="M 287.847895 307.584 
L 290.567856 307.584 
L 290.567856 261.434111 
L 287.847895 261.434111 
z
" style="fill:#1f77b4;"/>
   </g>
   <g id="patch_73">
    <path clip-path="url(#p406f06a409)" d="M 290.567856 307.584 
L 293.287818 307.584 
L 293.287818 266.36274 
L 290.567856 266.36274 
z
" style="fill:#1f77b4;"/>
   </g>
   <g id="patch_74">
    <path clip-path="url(#p406f06a409)" d="M 293.287818 307.584 
L 296.00778 307.584 
L 296.00778 271.291369 
L 293.287818 271.291369 
z
" style="fill:#1f77b4;"/>
   </g>
   <g id="patch_75">
    <path clip-path="url(#p406f06a409)" d="M 296.00778 307.584 
L 298.727742 307.584 
L 298.727742 269.051083 
L 296.00778 269.051083 
z
" style="fill:#1f77b4;"/>
   </g>
   <g id="patch_76">
    <path clip-path="url(#p406f06a409)" d="M 298.727742 307.584 
L 301.447704 307.584 
L 301.447704 278.460283 
L 298.727742 278.460283 
z
" style="fill:#1f77b4;"/>
   </g>
   <g id="patch_77">
    <path clip-path="url(#p406f06a409)" d="M 301.447704 307.584 
L 304.167666 307.584 
L 304.167666 268.154968 
L 301.447704 268.154968 
z
" style="fill:#1f77b4;"/>
   </g>
   <g id="patch_78">
    <path clip-path="url(#p406f06a409)" d="M 304.167666 307.584 
L 306.887627 307.584 
L 306.887627 262.330225 
L 304.167666 262.330225 
z
" style="fill:#1f77b4;"/>
   </g>
   <g id="patch_79">
    <path clip-path="url(#p406f06a409)" d="M 306.887627 307.584 
L 309.607589 307.584 
L 309.607589 267.706911 
L 306.887627 267.706911 
z
" style="fill:#1f77b4;"/>
   </g>
   <g id="patch_80">
    <path clip-path="url(#p406f06a409)" d="M 309.607589 307.584 
L 312.327551 307.584 
L 312.327551 270.843311 
L 309.607589 270.843311 
z
" style="fill:#1f77b4;"/>
   </g>
   <g id="patch_81">
    <path clip-path="url(#p406f06a409)" d="M 312.327551 307.584 
L 315.047513 307.584 
L 315.047513 265.466625 
L 312.327551 265.466625 
z
" style="fill:#1f77b4;"/>
   </g>
   <g id="patch_82">
    <path clip-path="url(#p406f06a409)" d="M 315.047513 307.584 
L 317.767475 307.584 
L 317.767475 267.706911 
L 315.047513 267.706911 
z
" style="fill:#1f77b4;"/>
   </g>
   <g id="patch_83">
    <path clip-path="url(#p406f06a409)" d="M 317.767475 307.584 
L 320.487437 307.584 
L 320.487437 273.531654 
L 317.767475 273.531654 
z
" style="fill:#1f77b4;"/>
   </g>
   <g id="patch_84">
    <path clip-path="url(#p406f06a409)" d="M 320.487437 307.584 
L 323.207398 307.584 
L 323.207398 272.63554 
L 320.487437 272.63554 
z
" style="fill:#1f77b4;"/>
   </g>
   <g id="patch_85">
    <path clip-path="url(#p406f06a409)" d="M 323.207398 307.584 
L 325.92736 307.584 
L 325.92736 268.603026 
L 323.207398 268.603026 
z
" style="fill:#1f77b4;"/>
   </g>
   <g id="patch_86">
    <path clip-path="url(#p406f06a409)" d="M 325.92736 307.584 
L 328.647322 307.584 
L 328.647322 280.252512 
L 325.92736 280.252512 
z
" style="fill:#1f77b4;"/>
   </g>
   <g id="patch_87">
    <path clip-path="url(#p406f06a409)" d="M 328.647322 307.584 
L 331.367284 307.584 
L 331.367284 278.012226 
L 328.647322 278.012226 
z
" style="fill:#1f77b4;"/>
   </g>
   <g id="patch_88">
    <path clip-path="url(#p406f06a409)" d="M 331.367284 307.584 
L 334.087246 307.584 
L 334.087246 280.700569 
L 331.367284 280.700569 
z
" style="fill:#1f77b4;"/>
   </g>
   <g id="patch_89">
    <path clip-path="url(#p406f06a409)" d="M 334.087246 307.584 
L 336.807207 307.584 
L 336.807207 281.596684 
L 334.087246 281.596684 
z
" style="fill:#1f77b4;"/>
   </g>
   <g id="patch_90">
    <path clip-path="url(#p406f06a409)" d="M 336.807215 307.584 
L 339.527169 307.584 
L 339.527169 285.629136 
L 336.807215 285.629136 
z
" style="fill:#1f77b4;"/>
   </g>
   <g id="patch_91">
    <path clip-path="url(#p406f06a409)" d="M 339.527162 307.584 
L 342.247123 307.584 
L 342.247123 291.901999 
L 339.527162 291.901999 
z
" style="fill:#1f77b4;"/>
   </g>
   <g id="patch_92">
    <path clip-path="url(#p406f06a409)" d="M 342.247123 307.584 
L 344.967085 307.584 
L 344.967085 294.590342 
L 342.247123 294.590342 
z
" style="fill:#1f77b4;"/>
   </g>
   <g id="patch_93">
    <path clip-path="url(#p406f06a409)" d="M 344.967085 307.584 
L 347.687047 307.584 
L 347.687047 294.142285 
L 344.967085 294.142285 
z
" style="fill:#1f77b4;"/>
   </g>
   <g id="patch_94">
    <path clip-path="url(#p406f06a409)" d="M 347.687047 307.584 
L 350.407009 307.584 
L 350.407009 297.726742 
L 347.687047 297.726742 
z
" style="fill:#1f77b4;"/>
   </g>
   <g id="patch_95">
    <path clip-path="url(#p406f06a409)" d="M 350.407009 307.584 
L 353.126971 307.584 
L 353.126971 292.350056 
L 350.407009 292.350056 
z
" style="fill:#1f77b4;"/>
   </g>
   <g id="patch_96">
    <path clip-path="url(#p406f06a409)" d="M 353.126971 307.584 
L 355.846933 307.584 
L 355.846933 298.622856 
L 353.126971 298.622856 
z
" style="fill:#1f77b4;"/>
   </g>
   <g id="patch_97">
    <path clip-path="url(#p406f06a409)" d="M 355.846933 307.584 
L 358.566894 307.584 
L 358.566894 300.863142 
L 355.846933 300.863142 
z
" style="fill:#1f77b4;"/>
   </g>
   <g id="patch_98">
    <path clip-path="url(#p406f06a409)" d="M 358.566894 307.584 
L 361.286856 307.584 
L 361.286856 303.103428 
L 358.566894 303.103428 
z
" style="fill:#1f77b4;"/>
   </g>
   <g id="patch_99">
    <path clip-path="url(#p406f06a409)" d="M 361.286856 307.584 
L 364.006818 307.584 
L 364.006818 303.103428 
L 361.286856 303.103428 
z
" style="fill:#1f77b4;"/>
   </g>
   <g id="patch_100">
    <path clip-path="url(#p406f06a409)" d="M 364.006818 307.584 
L 366.72678 307.584 
L 366.72678 303.103428 
L 364.006818 303.103428 
z
" style="fill:#1f77b4;"/>
   </g>
   <g id="patch_101">
    <path clip-path="url(#p406f06a409)" d="M 366.72678 307.584 
L 369.446742 307.584 
L 369.446742 305.343714 
L 366.72678 305.343714 
z
" style="fill:#1f77b4;"/>
   </g>
   <g id="patch_102">
    <path clip-path="url(#p406f06a409)" d="M 369.446726 307.584 
L 372.166688 307.584 
L 372.166688 303.103428 
L 369.446726 303.103428 
z
" style="fill:#1f77b4;"/>
   </g>
   <g id="matplotlib.axis_1">
    <g id="xtick_1">
     <g id="line2d_1">
      <defs>
       <path d="M 0 0 
L 0 3.5 
" id="mda61d3143a" style="stroke:#000000;stroke-width:0.8;"/>
      </defs>
      <g>
       <use style="stroke:#000000;stroke-width:0.8;" x="106.299805" xlink:href="#mda61d3143a" y="307.584"/>
      </g>
     </g>
     <g id="text_1">
      <!-- −2 -->
      <defs>
       <path d="M 10.59375 35.5 
L 73.1875 35.5 
L 73.1875 27.203125 
L 10.59375 27.203125 
z
" id="DejaVuSans-8722"/>
       <path d="M 19.1875 8.296875 
L 53.609375 8.296875 
L 53.609375 0 
L 7.328125 0 
L 7.328125 8.296875 
Q 12.9375 14.109375 22.625 23.890625 
Q 32.328125 33.6875 34.8125 36.53125 
Q 39.546875 41.84375 41.421875 45.53125 
Q 43.3125 49.21875 43.3125 52.78125 
Q 43.3125 58.59375 39.234375 62.25 
Q 35.15625 65.921875 28.609375 65.921875 
Q 23.96875 65.921875 18.8125 64.3125 
Q 13.671875 62.703125 7.8125 59.421875 
L 7.8125 69.390625 
Q 13.765625 71.78125 18.9375 73 
Q 24.125 74.21875 28.421875 74.21875 
Q 39.75 74.21875 46.484375 68.546875 
Q 53.21875 62.890625 53.21875 53.421875 
Q 53.21875 48.921875 51.53125 44.890625 
Q 49.859375 40.875 45.40625 35.40625 
Q 44.1875 33.984375 37.640625 27.21875 
Q 31.109375 20.453125 19.1875 8.296875 
z
" id="DejaVuSans-50"/>
      </defs>
      <g transform="translate(93.768946 327.501344)scale(0.17 -0.17)">
       <use xlink:href="#DejaVuSans-8722"/>
       <use x="83.789062" xlink:href="#DejaVuSans-50"/>
      </g>
     </g>
    </g>
    <g id="xtick_2">
     <g id="line2d_2">
      <g>
       <use style="stroke:#000000;stroke-width:0.8;" x="171.233961" xlink:href="#mda61d3143a" y="307.584"/>
      </g>
     </g>
     <g id="text_2">
      <!-- −1 -->
      <defs>
       <path d="M 12.40625 8.296875 
L 28.515625 8.296875 
L 28.515625 63.921875 
L 10.984375 60.40625 
L 10.984375 69.390625 
L 28.421875 72.90625 
L 38.28125 72.90625 
L 38.28125 8.296875 
L 54.390625 8.296875 
L 54.390625 0 
L 12.40625 0 
z
" id="DejaVuSans-49"/>
      </defs>
      <g transform="translate(158.703102 327.501344)scale(0.17 -0.17)">
       <use xlink:href="#DejaVuSans-8722"/>
       <use x="83.789062" xlink:href="#DejaVuSans-49"/>
      </g>
     </g>
    </g>
    <g id="xtick_3">
     <g id="line2d_3">
      <g>
       <use style="stroke:#000000;stroke-width:0.8;" x="236.168117" xlink:href="#mda61d3143a" y="307.584"/>
      </g>
     </g>
     <g id="text_3">
      <!-- 0 -->
      <defs>
       <path d="M 31.78125 66.40625 
Q 24.171875 66.40625 20.328125 58.90625 
Q 16.5 51.421875 16.5 36.375 
Q 16.5 21.390625 20.328125 13.890625 
Q 24.171875 6.390625 31.78125 6.390625 
Q 39.453125 6.390625 43.28125 13.890625 
Q 47.125 21.390625 47.125 36.375 
Q 47.125 51.421875 43.28125 58.90625 
Q 39.453125 66.40625 31.78125 66.40625 
z
M 31.78125 74.21875 
Q 44.046875 74.21875 50.515625 64.515625 
Q 56.984375 54.828125 56.984375 36.375 
Q 56.984375 17.96875 50.515625 8.265625 
Q 44.046875 -1.421875 31.78125 -1.421875 
Q 19.53125 -1.421875 13.0625 8.265625 
Q 6.59375 17.96875 6.59375 36.375 
Q 6.59375 54.828125 13.0625 64.515625 
Q 19.53125 74.21875 31.78125 74.21875 
z
" id="DejaVuSans-48"/>
      </defs>
      <g transform="translate(230.759992 327.501344)scale(0.17 -0.17)">
       <use xlink:href="#DejaVuSans-48"/>
      </g>
     </g>
    </g>
    <g id="xtick_4">
     <g id="line2d_4">
      <g>
       <use style="stroke:#000000;stroke-width:0.8;" x="301.102273" xlink:href="#mda61d3143a" y="307.584"/>
      </g>
     </g>
     <g id="text_4">
      <!-- 1 -->
      <g transform="translate(295.694148 327.501344)scale(0.17 -0.17)">
       <use xlink:href="#DejaVuSans-49"/>
      </g>
     </g>
    </g>
    <g id="xtick_5">
     <g id="line2d_5">
      <g>
       <use style="stroke:#000000;stroke-width:0.8;" x="366.036428" xlink:href="#mda61d3143a" y="307.584"/>
      </g>
     </g>
     <g id="text_5">
      <!-- 2 -->
      <g transform="translate(360.628303 327.501344)scale(0.17 -0.17)">
       <use xlink:href="#DejaVuSans-50"/>
      </g>
     </g>
    </g>
    <g id="text_6">
     <!-- Position in Radian -->
     <defs>
      <path d="M 19.671875 64.796875 
L 19.671875 37.40625 
L 32.078125 37.40625 
Q 38.96875 37.40625 42.71875 40.96875 
Q 46.484375 44.53125 46.484375 51.125 
Q 46.484375 57.671875 42.71875 61.234375 
Q 38.96875 64.796875 32.078125 64.796875 
z
M 9.8125 72.90625 
L 32.078125 72.90625 
Q 44.34375 72.90625 50.609375 67.359375 
Q 56.890625 61.8125 56.890625 51.125 
Q 56.890625 40.328125 50.609375 34.8125 
Q 44.34375 29.296875 32.078125 29.296875 
L 19.671875 29.296875 
L 19.671875 0 
L 9.8125 0 
z
" id="DejaVuSans-80"/>
      <path d="M 30.609375 48.390625 
Q 23.390625 48.390625 19.1875 42.75 
Q 14.984375 37.109375 14.984375 27.296875 
Q 14.984375 17.484375 19.15625 11.84375 
Q 23.34375 6.203125 30.609375 6.203125 
Q 37.796875 6.203125 41.984375 11.859375 
Q 46.1875 17.53125 46.1875 27.296875 
Q 46.1875 37.015625 41.984375 42.703125 
Q 37.796875 48.390625 30.609375 48.390625 
z
M 30.609375 56 
Q 42.328125 56 49.015625 48.375 
Q 55.71875 40.765625 55.71875 27.296875 
Q 55.71875 13.875 49.015625 6.21875 
Q 42.328125 -1.421875 30.609375 -1.421875 
Q 18.84375 -1.421875 12.171875 6.21875 
Q 5.515625 13.875 5.515625 27.296875 
Q 5.515625 40.765625 12.171875 48.375 
Q 18.84375 56 30.609375 56 
z
" id="DejaVuSans-111"/>
      <path d="M 44.28125 53.078125 
L 44.28125 44.578125 
Q 40.484375 46.53125 36.375 47.5 
Q 32.28125 48.484375 27.875 48.484375 
Q 21.1875 48.484375 17.84375 46.4375 
Q 14.5 44.390625 14.5 40.28125 
Q 14.5 37.15625 16.890625 35.375 
Q 19.28125 33.59375 26.515625 31.984375 
L 29.59375 31.296875 
Q 39.15625 29.25 43.1875 25.515625 
Q 47.21875 21.78125 47.21875 15.09375 
Q 47.21875 7.46875 41.1875 3.015625 
Q 35.15625 -1.421875 24.609375 -1.421875 
Q 20.21875 -1.421875 15.453125 -0.5625 
Q 10.6875 0.296875 5.421875 2 
L 5.421875 11.28125 
Q 10.40625 8.6875 15.234375 7.390625 
Q 20.0625 6.109375 24.8125 6.109375 
Q 31.15625 6.109375 34.5625 8.28125 
Q 37.984375 10.453125 37.984375 14.40625 
Q 37.984375 18.0625 35.515625 20.015625 
Q 33.0625 21.96875 24.703125 23.78125 
L 21.578125 24.515625 
Q 13.234375 26.265625 9.515625 29.90625 
Q 5.8125 33.546875 5.8125 39.890625 
Q 5.8125 47.609375 11.28125 51.796875 
Q 16.75 56 26.8125 56 
Q 31.78125 56 36.171875 55.265625 
Q 40.578125 54.546875 44.28125 53.078125 
z
" id="DejaVuSans-115"/>
      <path d="M 9.421875 54.6875 
L 18.40625 54.6875 
L 18.40625 0 
L 9.421875 0 
z
M 9.421875 75.984375 
L 18.40625 75.984375 
L 18.40625 64.59375 
L 9.421875 64.59375 
z
" id="DejaVuSans-105"/>
      <path d="M 18.3125 70.21875 
L 18.3125 54.6875 
L 36.8125 54.6875 
L 36.8125 47.703125 
L 18.3125 47.703125 
L 18.3125 18.015625 
Q 18.3125 11.328125 20.140625 9.421875 
Q 21.96875 7.515625 27.59375 7.515625 
L 36.8125 7.515625 
L 36.8125 0 
L 27.59375 0 
Q 17.1875 0 13.234375 3.875 
Q 9.28125 7.765625 9.28125 18.015625 
L 9.28125 47.703125 
L 2.6875 47.703125 
L 2.6875 54.6875 
L 9.28125 54.6875 
L 9.28125 70.21875 
z
" id="DejaVuSans-116"/>
      <path d="M 54.890625 33.015625 
L 54.890625 0 
L 45.90625 0 
L 45.90625 32.71875 
Q 45.90625 40.484375 42.875 44.328125 
Q 39.84375 48.1875 33.796875 48.1875 
Q 26.515625 48.1875 22.3125 43.546875 
Q 18.109375 38.921875 18.109375 30.90625 
L 18.109375 0 
L 9.078125 0 
L 9.078125 54.6875 
L 18.109375 54.6875 
L 18.109375 46.1875 
Q 21.34375 51.125 25.703125 53.5625 
Q 30.078125 56 35.796875 56 
Q 45.21875 56 50.046875 50.171875 
Q 54.890625 44.34375 54.890625 33.015625 
z
" id="DejaVuSans-110"/>
      <path id="DejaVuSans-32"/>
      <path d="M 44.390625 34.1875 
Q 47.5625 33.109375 50.5625 29.59375 
Q 53.5625 26.078125 56.59375 19.921875 
L 66.609375 0 
L 56 0 
L 46.6875 18.703125 
Q 43.0625 26.03125 39.671875 28.421875 
Q 36.28125 30.8125 30.421875 30.8125 
L 19.671875 30.8125 
L 19.671875 0 
L 9.8125 0 
L 9.8125 72.90625 
L 32.078125 72.90625 
Q 44.578125 72.90625 50.734375 67.671875 
Q 56.890625 62.453125 56.890625 51.90625 
Q 56.890625 45.015625 53.6875 40.46875 
Q 50.484375 35.9375 44.390625 34.1875 
z
M 19.671875 64.796875 
L 19.671875 38.921875 
L 32.078125 38.921875 
Q 39.203125 38.921875 42.84375 42.21875 
Q 46.484375 45.515625 46.484375 51.90625 
Q 46.484375 58.296875 42.84375 61.546875 
Q 39.203125 64.796875 32.078125 64.796875 
z
" id="DejaVuSans-82"/>
      <path d="M 34.28125 27.484375 
Q 23.390625 27.484375 19.1875 25 
Q 14.984375 22.515625 14.984375 16.5 
Q 14.984375 11.71875 18.140625 8.90625 
Q 21.296875 6.109375 26.703125 6.109375 
Q 34.1875 6.109375 38.703125 11.40625 
Q 43.21875 16.703125 43.21875 25.484375 
L 43.21875 27.484375 
z
M 52.203125 31.203125 
L 52.203125 0 
L 43.21875 0 
L 43.21875 8.296875 
Q 40.140625 3.328125 35.546875 0.953125 
Q 30.953125 -1.421875 24.3125 -1.421875 
Q 15.921875 -1.421875 10.953125 3.296875 
Q 6 8.015625 6 15.921875 
Q 6 25.140625 12.171875 29.828125 
Q 18.359375 34.515625 30.609375 34.515625 
L 43.21875 34.515625 
L 43.21875 35.40625 
Q 43.21875 41.609375 39.140625 45 
Q 35.0625 48.390625 27.6875 48.390625 
Q 23 48.390625 18.546875 47.265625 
Q 14.109375 46.140625 10.015625 43.890625 
L 10.015625 52.203125 
Q 14.9375 54.109375 19.578125 55.046875 
Q 24.21875 56 28.609375 56 
Q 40.484375 56 46.34375 49.84375 
Q 52.203125 43.703125 52.203125 31.203125 
z
" id="DejaVuSans-97"/>
      <path d="M 45.40625 46.390625 
L 45.40625 75.984375 
L 54.390625 75.984375 
L 54.390625 0 
L 45.40625 0 
L 45.40625 8.203125 
Q 42.578125 3.328125 38.25 0.953125 
Q 33.9375 -1.421875 27.875 -1.421875 
Q 17.96875 -1.421875 11.734375 6.484375 
Q 5.515625 14.40625 5.515625 27.296875 
Q 5.515625 40.1875 11.734375 48.09375 
Q 17.96875 56 27.875 56 
Q 33.9375 56 38.25 53.625 
Q 42.578125 51.265625 45.40625 46.390625 
z
M 14.796875 27.296875 
Q 14.796875 17.390625 18.875 11.75 
Q 22.953125 6.109375 30.078125 6.109375 
Q 37.203125 6.109375 41.296875 11.75 
Q 45.40625 17.390625 45.40625 27.296875 
Q 45.40625 37.203125 41.296875 42.84375 
Q 37.203125 48.484375 30.078125 48.484375 
Q 22.953125 48.484375 18.875 42.84375 
Q 14.796875 37.203125 14.796875 27.296875 
z
" id="DejaVuSans-100"/>
     </defs>
     <g transform="translate(102.024844 357.832125)scale(0.3 -0.3)">
      <use xlink:href="#DejaVuSans-80"/>
      <use x="60.255859" xlink:href="#DejaVuSans-111"/>
      <use x="121.4375" xlink:href="#DejaVuSans-115"/>
      <use x="173.537109" xlink:href="#DejaVuSans-105"/>
      <use x="201.320312" xlink:href="#DejaVuSans-116"/>
      <use x="240.529297" xlink:href="#DejaVuSans-105"/>
      <use x="268.3125" xlink:href="#DejaVuSans-111"/>
      <use x="329.494141" xlink:href="#DejaVuSans-110"/>
      <use x="392.873047" xlink:href="#DejaVuSans-32"/>
      <use x="424.660156" xlink:href="#DejaVuSans-105"/>
      <use x="452.443359" xlink:href="#DejaVuSans-110"/>
      <use x="515.822266" xlink:href="#DejaVuSans-32"/>
      <use x="547.609375" xlink:href="#DejaVuSans-82"/>
      <use x="617.060547" xlink:href="#DejaVuSans-97"/>
      <use x="678.339844" xlink:href="#DejaVuSans-100"/>
      <use x="741.816406" xlink:href="#DejaVuSans-105"/>
      <use x="769.599609" xlink:href="#DejaVuSans-97"/>
      <use x="830.878906" xlink:href="#DejaVuSans-110"/>
     </g>
    </g>
   </g>
   <g id="matplotlib.axis_2">
    <g id="ytick_1">
     <g id="line2d_6">
      <defs>
       <path d="M 0 0 
L -3.5 0 
" id="m0d8d09b35e" style="stroke:#000000;stroke-width:0.8;"/>
      </defs>
      <g>
       <use style="stroke:#000000;stroke-width:0.8;" x="57.6" xlink:href="#m0d8d09b35e" y="307.584"/>
      </g>
     </g>
     <g id="text_7">
      <!-- 0.00 -->
      <defs>
       <path d="M 10.6875 12.40625 
L 21 12.40625 
L 21 0 
L 10.6875 0 
z
" id="DejaVuSans-46"/>
      </defs>
      <g transform="translate(12.748438 314.042672)scale(0.17 -0.17)">
       <use xlink:href="#DejaVuSans-48"/>
       <use x="63.623047" xlink:href="#DejaVuSans-46"/>
       <use x="95.410156" xlink:href="#DejaVuSans-48"/>
       <use x="159.033203" xlink:href="#DejaVuSans-48"/>
      </g>
     </g>
    </g>
    <g id="ytick_2">
     <g id="line2d_7">
      <g>
       <use style="stroke:#000000;stroke-width:0.8;" x="57.6" xlink:href="#m0d8d09b35e" y="260.663454"/>
      </g>
     </g>
     <g id="text_8">
      <!-- 0.25 -->
      <defs>
       <path d="M 10.796875 72.90625 
L 49.515625 72.90625 
L 49.515625 64.59375 
L 19.828125 64.59375 
L 19.828125 46.734375 
Q 21.96875 47.46875 24.109375 47.828125 
Q 26.265625 48.1875 28.421875 48.1875 
Q 40.625 48.1875 47.75 41.5 
Q 54.890625 34.8125 54.890625 23.390625 
Q 54.890625 11.625 47.5625 5.09375 
Q 40.234375 -1.421875 26.90625 -1.421875 
Q 22.3125 -1.421875 17.546875 -0.640625 
Q 12.796875 0.140625 7.71875 1.703125 
L 7.71875 11.625 
Q 12.109375 9.234375 16.796875 8.0625 
Q 21.484375 6.890625 26.703125 6.890625 
Q 35.15625 6.890625 40.078125 11.328125 
Q 45.015625 15.765625 45.015625 23.390625 
Q 45.015625 31 40.078125 35.4375 
Q 35.15625 39.890625 26.703125 39.890625 
Q 22.75 39.890625 18.8125 39.015625 
Q 14.890625 38.140625 10.796875 36.28125 
z
" id="DejaVuSans-53"/>
      </defs>
      <g transform="translate(12.748438 267.122126)scale(0.17 -0.17)">
       <use xlink:href="#DejaVuSans-48"/>
       <use x="63.623047" xlink:href="#DejaVuSans-46"/>
       <use x="95.410156" xlink:href="#DejaVuSans-50"/>
       <use x="159.033203" xlink:href="#DejaVuSans-53"/>
      </g>
     </g>
    </g>
    <g id="ytick_3">
     <g id="line2d_8">
      <g>
       <use style="stroke:#000000;stroke-width:0.8;" x="57.6" xlink:href="#m0d8d09b35e" y="213.742908"/>
      </g>
     </g>
     <g id="text_9">
      <!-- 0.50 -->
      <g transform="translate(12.748438 220.20158)scale(0.17 -0.17)">
       <use xlink:href="#DejaVuSans-48"/>
       <use x="63.623047" xlink:href="#DejaVuSans-46"/>
       <use x="95.410156" xlink:href="#DejaVuSans-53"/>
       <use x="159.033203" xlink:href="#DejaVuSans-48"/>
      </g>
     </g>
    </g>
    <g id="ytick_4">
     <g id="line2d_9">
      <g>
       <use style="stroke:#000000;stroke-width:0.8;" x="57.6" xlink:href="#m0d8d09b35e" y="166.822362"/>
      </g>
     </g>
     <g id="text_10">
      <!-- 0.75 -->
      <defs>
       <path d="M 8.203125 72.90625 
L 55.078125 72.90625 
L 55.078125 68.703125 
L 28.609375 0 
L 18.3125 0 
L 43.21875 64.59375 
L 8.203125 64.59375 
z
" id="DejaVuSans-55"/>
      </defs>
      <g transform="translate(12.748438 173.281034)scale(0.17 -0.17)">
       <use xlink:href="#DejaVuSans-48"/>
       <use x="63.623047" xlink:href="#DejaVuSans-46"/>
       <use x="95.410156" xlink:href="#DejaVuSans-55"/>
       <use x="159.033203" xlink:href="#DejaVuSans-53"/>
      </g>
     </g>
    </g>
    <g id="ytick_5">
     <g id="line2d_10">
      <g>
       <use style="stroke:#000000;stroke-width:0.8;" x="57.6" xlink:href="#m0d8d09b35e" y="119.901816"/>
      </g>
     </g>
     <g id="text_11">
      <!-- 1.00 -->
      <g transform="translate(12.748438 126.360488)scale(0.17 -0.17)">
       <use xlink:href="#DejaVuSans-49"/>
       <use x="63.623047" xlink:href="#DejaVuSans-46"/>
       <use x="95.410156" xlink:href="#DejaVuSans-48"/>
       <use x="159.033203" xlink:href="#DejaVuSans-48"/>
      </g>
     </g>
    </g>
    <g id="ytick_6">
     <g id="line2d_11">
      <g>
       <use style="stroke:#000000;stroke-width:0.8;" x="57.6" xlink:href="#m0d8d09b35e" y="72.98127"/>
      </g>
     </g>
     <g id="text_12">
      <!-- 1.25 -->
      <g transform="translate(12.748438 79.439942)scale(0.17 -0.17)">
       <use xlink:href="#DejaVuSans-49"/>
       <use x="63.623047" xlink:href="#DejaVuSans-46"/>
       <use x="95.410156" xlink:href="#DejaVuSans-50"/>
       <use x="159.033203" xlink:href="#DejaVuSans-53"/>
      </g>
     </g>
    </g>
    <g id="text_13">
     <!-- Density -->
     <defs>
      <path d="M 19.671875 64.796875 
L 19.671875 8.109375 
L 31.59375 8.109375 
Q 46.6875 8.109375 53.6875 14.9375 
Q 60.6875 21.78125 60.6875 36.53125 
Q 60.6875 51.171875 53.6875 57.984375 
Q 46.6875 64.796875 31.59375 64.796875 
z
M 9.8125 72.90625 
L 30.078125 72.90625 
Q 51.265625 72.90625 61.171875 64.09375 
Q 71.09375 55.28125 71.09375 36.53125 
Q 71.09375 17.671875 61.125 8.828125 
Q 51.171875 0 30.078125 0 
L 9.8125 0 
z
" id="DejaVuSans-68"/>
      <path d="M 56.203125 29.59375 
L 56.203125 25.203125 
L 14.890625 25.203125 
Q 15.484375 15.921875 20.484375 11.0625 
Q 25.484375 6.203125 34.421875 6.203125 
Q 39.59375 6.203125 44.453125 7.46875 
Q 49.3125 8.734375 54.109375 11.28125 
L 54.109375 2.78125 
Q 49.265625 0.734375 44.1875 -0.34375 
Q 39.109375 -1.421875 33.890625 -1.421875 
Q 20.796875 -1.421875 13.15625 6.1875 
Q 5.515625 13.8125 5.515625 26.8125 
Q 5.515625 40.234375 12.765625 48.109375 
Q 20.015625 56 32.328125 56 
Q 43.359375 56 49.78125 48.890625 
Q 56.203125 41.796875 56.203125 29.59375 
z
M 47.21875 32.234375 
Q 47.125 39.59375 43.09375 43.984375 
Q 39.0625 48.390625 32.421875 48.390625 
Q 24.90625 48.390625 20.390625 44.140625 
Q 15.875 39.890625 15.1875 32.171875 
z
" id="DejaVuSans-101"/>
      <path d="M 32.171875 -5.078125 
Q 28.375 -14.84375 24.75 -17.8125 
Q 21.140625 -20.796875 15.09375 -20.796875 
L 7.90625 -20.796875 
L 7.90625 -13.28125 
L 13.1875 -13.28125 
Q 16.890625 -13.28125 18.9375 -11.515625 
Q 21 -9.765625 23.484375 -3.21875 
L 25.09375 0.875 
L 2.984375 54.6875 
L 12.5 54.6875 
L 29.59375 11.921875 
L 46.6875 54.6875 
L 56.203125 54.6875 
z
" id="DejaVuSans-121"/>
     </defs>
     <g transform="translate(2.509375 231.553781)rotate(-90)scale(0.3 -0.3)">
      <use xlink:href="#DejaVuSans-68"/>
      <use x="77.001953" xlink:href="#DejaVuSans-101"/>
      <use x="138.525391" xlink:href="#DejaVuSans-110"/>
      <use x="201.904297" xlink:href="#DejaVuSans-115"/>
      <use x="254.003906" xlink:href="#DejaVuSans-105"/>
      <use x="281.787109" xlink:href="#DejaVuSans-116"/>
      <use x="320.996094" xlink:href="#DejaVuSans-121"/>
     </g>
    </g>
   </g>
   <g id="line2d_12">
    <path clip-path="url(#p406f06a409)" d="M 73.832727 307.584 
L 98.556407 307.476542 
L 98.913545 307.20538 
L 99.254449 306.630537 
L 100.309629 304.522679 
L 100.520665 304.661693 
L 101.462211 305.595059 
L 101.96545 305.375206 
L 102.484924 305.298595 
L 102.955696 305.164671 
L 103.653738 304.607058 
L 104.124511 304.424239 
L 105.342026 304.186532 
L 105.731631 303.592089 
L 106.462141 302.466766 
L 106.835512 302.308599 
L 107.825758 302.063201 
L 108.215363 301.610296 
L 109.205609 300.301817 
L 109.660148 299.906485 
L 109.952351 299.274952 
L 110.423124 297.591738 
L 111.153633 295.134884 
L 111.462071 294.747276 
L 111.656873 294.803386 
L 111.900376 295.164151 
L 112.598418 296.335888 
L 112.793221 296.272023 
L 113.036724 295.895229 
L 114.205539 293.664479 
L 114.432808 293.752804 
L 114.708778 294.133225 
L 115.147084 295.18125 
L 116.088629 298.14397 
L 116.624336 299.531362 
L 116.835372 299.648217 
L 116.997707 299.470037 
L 117.224977 298.788696 
L 117.614582 296.709008 
L 118.182756 293.947428 
L 118.474959 293.457193 
L 118.815864 293.342237 
L 119.205469 293.134345 
L 120.114547 292.236272 
L 120.406751 291.412977 
L 121.429463 287.982545 
L 121.624266 288.073142 
L 122.095039 288.379939 
L 122.273607 288.185516 
L 122.549578 287.460336 
L 123.198919 285.679326 
L 123.409955 285.632442 
L 123.653458 285.875039 
L 124.221632 286.477248 
L 124.481369 286.4177 
L 124.85474 286.034371 
L 125.325513 285.63379 
L 125.520315 285.717672 
L 125.747585 286.101519 
L 126.13719 287.32797 
L 126.624196 288.654522 
L 126.851465 288.776709 
L 127.046268 288.607098 
L 127.403406 287.894346 
L 127.874178 287.08214 
L 128.101448 287.045698 
L 128.328718 287.275312 
L 128.767023 288.143039 
L 129.254029 288.929179 
L 129.546233 289.037968 
L 129.903371 288.88619 
L 130.244275 288.830177 
L 130.471545 289.042005 
L 130.747515 289.648717 
L 131.18582 291.247115 
L 131.770228 293.213069 
L 131.981264 293.356483 
L 132.143599 293.189911 
L 132.452036 292.433558 
L 132.809174 291.775145 
L 132.939043 291.843147 
L 133.117612 292.299041 
L 133.409815 293.825531 
L 134.042923 297.199571 
L 134.253959 297.435809 
L 134.400061 297.310488 
L 134.676031 296.67375 
L 135.601343 294.400655 
L 136.283152 292.445243 
L 136.721457 291.544431 
L 137.013661 291.384522 
L 137.646769 291.273059 
L 137.874038 290.775684 
L 138.231176 289.337044 
L 138.864284 286.878274 
L 139.253889 286.267443 
L 139.870764 285.374781 
L 140.195434 285.072602 
L 140.374003 285.183941 
L 140.585039 285.648465 
L 140.925944 287.040522 
L 141.835022 290.919092 
L 142.305795 291.884513 
L 142.873968 292.566824 
L 143.166172 292.644711 
L 143.377208 292.465559 
L 143.636945 291.896333 
L 143.994083 290.469192 
L 144.464855 287.540527 
L 145.601203 279.797503 
L 145.731071 279.821729 
L 145.893407 280.228274 
L 146.201844 281.794423 
L 147.338192 288.024296 
L 147.727797 289.123695 
L 147.9713 289.287024 
L 148.198569 289.158567 
L 149.188815 288.356776 
L 149.724522 288.287628 
L 150.000492 288.464622 
L 150.292696 288.968217 
L 150.714768 290.257322 
L 151.542678 292.799836 
L 151.883583 293.210781 
L 152.143319 293.219968 
L 152.419289 292.982086 
L 152.776427 292.35189 
L 153.198499 291.111991 
L 154.269913 287.595359 
L 154.416015 287.692658 
L 154.610817 288.18288 
L 154.951721 289.811739 
L 155.503662 292.321749 
L 155.698464 292.482939 
L 155.844566 292.278688 
L 156.088069 291.443461 
L 156.834812 288.645972 
L 157.078315 288.487452 
L 157.305585 288.631949 
L 158.084794 289.301394 
L 158.328298 289.146228 
L 158.652968 288.618455 
L 159.432178 287.261226 
L 159.643214 287.289342 
L 159.886717 287.59455 
L 160.617226 288.657209 
L 160.812029 288.541456 
L 161.055532 288.069182 
L 161.493838 286.607278 
L 163.360695 280.070236 
L 163.506796 280.140609 
L 163.701599 280.597927 
L 164.399641 282.725869 
L 164.448342 282.696162 
L 164.594444 282.359858 
L 164.821713 281.127046 
L 165.665857 275.801054 
L 165.763258 275.912426 
L 165.925594 276.560038 
L 166.266498 279.138368 
L 166.68857 281.824978 
L 166.867139 282.066238 
L 166.883373 282.058232 
L 167.013241 281.834947 
L 167.272977 280.798344 
L 167.727517 279.130241 
L 167.922319 279.038962 
L 168.100888 279.265749 
L 168.620361 280.00987 
L 168.766463 279.860645 
L 168.977499 279.246095 
L 169.35087 277.297538 
L 170.016446 273.931591 
L 170.259949 273.564451 
L 170.389817 273.648933 
L 170.584619 274.143521 
L 170.90929 275.739401 
L 171.558632 278.888781 
L 171.753434 279.070324 
L 171.883303 278.915409 
L 172.094339 278.218744 
L 172.500177 275.864558 
L 172.954716 273.639226 
L 173.165752 273.404241 
L 173.311854 273.577341 
L 173.571591 274.362516 
L 174.220932 276.378887 
L 174.594304 276.799113 
L 175.162477 277.082346 
L 175.373513 276.980546 
L 175.584549 276.601285 
L 175.86052 275.580607 
L 176.639729 272.392588 
L 176.753364 272.51862 
L 176.931933 273.187691 
L 177.305305 275.765971 
L 177.678676 277.682546 
L 177.792311 277.76901 
L 177.824778 277.743724 
L 177.954646 277.430436 
L 178.198149 276.112171 
L 178.912425 271.994413 
L 179.204629 271.531286 
L 179.821503 270.940118 
L 180.438378 270.109021 
L 180.63318 270.211941 
L 180.90915 270.707828 
L 181.41239 271.606993 
L 181.574725 271.545481 
L 181.769528 271.147549 
L 182.418869 269.443279 
L 182.451336 269.462307 
L 182.581205 269.713287 
L 182.808474 270.785537 
L 183.685085 275.608732 
L 183.863654 275.645133 
L 184.042223 275.378496 
L 184.431828 274.261485 
L 184.951301 272.98967 
L 185.616876 271.810303 
L 185.876613 270.407982 
L 186.282452 266.690867 
L 186.899326 261.348423 
L 187.207763 260.313602 
L 187.532434 259.976318 
L 187.824638 259.596932 
L 188.165542 258.661218 
L 188.555147 257.771649 
L 188.685015 257.842249 
L 188.847351 258.33778 
L 189.107087 260.076828 
L 189.85383 265.568371 
L 189.951231 265.57896 
L 189.967465 265.558535 
L 190.113567 265.11004 
L 190.389537 263.306783 
L 190.941477 259.795625 
L 191.168747 259.41617 
L 191.331082 259.489271 
L 191.91549 259.963414 
L 192.094059 259.654458 
L 192.370029 258.632511 
L 193.29534 254.815948 
L 193.571311 254.573348 
L 193.960916 254.582258 
L 194.269353 254.4926 
L 194.496622 254.178746 
L 194.756359 253.399326 
L 195.12973 251.452883 
L 195.779072 248.159391 
L 196.006341 247.86281 
L 196.168677 247.954412 
L 196.46088 248.491928 
L 197.580995 251.195606 
L 198.29527 254.019212 
L 198.425139 253.97048 
L 198.587474 253.552209 
L 198.879678 252.001165 
L 200.681601 240.907777 
L 200.941337 240.407239 
L 201.087439 240.455279 
L 201.298475 240.860279 
L 201.704314 242.268396 
L 202.921829 246.74502 
L 203.051697 246.640251 
L 203.230266 246.075453 
L 203.52247 244.223797 
L 204.090644 240.62997 
L 204.285446 240.400802 
L 204.447782 240.546798 
L 204.723752 240.736257 
L 204.85362 240.478004 
L 205.048423 239.437982 
L 205.421794 235.797369 
L 205.827632 232.628604 
L 205.989968 232.351689 
L 206.006201 232.358449 
L 206.119836 232.565175 
L 206.347106 233.636503 
L 207.386052 239.335162 
L 208.181496 242.173079 
L 208.311364 242.120705 
L 208.473699 241.652232 
L 208.733436 240.043407 
L 209.788616 232.555194 
L 209.967185 232.358104 
L 209.983418 232.366382 
L 210.113287 232.606441 
L 210.308089 233.580377 
L 210.616526 236.535151 
L 211.476904 245.483909 
L 211.68794 245.893862 
L 211.801575 245.748274 
L 211.996377 245.005496 
L 212.856755 240.832333 
L 212.889222 240.849356 
L 213.01909 241.117759 
L 213.24636 242.252508 
L 213.847001 245.427709 
L 213.944402 245.356636 
L 214.090504 244.749894 
L 214.317773 242.637923 
L 214.80478 235.346511 
L 215.259319 230.049017 
L 215.519055 229.067479 
L 215.63269 229.09047 
L 215.795025 229.473441 
L 216.379433 231.172893 
L 216.395666 231.166128 
L 216.509301 230.97662 
L 216.704104 230.062363 
L 217.077475 226.849145 
L 217.499547 223.848297 
L 217.694349 223.558203 
L 217.824218 223.756077 
L 218.116421 224.806411 
L 218.441092 225.612951 
L 218.570961 225.551119 
L 218.749529 225.075448 
L 219.0742 223.400531 
L 219.658608 219.116043 
L 220.113147 213.86316 
L 220.762488 206.556748 
L 220.989758 205.920602 
L 221.087159 206.026008 
L 221.265728 206.679261 
L 222.028704 209.953945 
L 222.158573 209.8926 
L 222.369609 209.438984 
L 222.921549 208.18226 
L 223.067651 208.25616 
L 223.262453 208.71378 
L 224.009196 211.184787 
L 224.07413 211.12652 
L 224.220232 210.681133 
L 224.447502 209.102141 
L 224.918274 203.704799 
L 225.291646 200.581963 
L 225.437748 200.324758 
L 225.453981 200.336081 
L 225.567616 200.638452 
L 225.762418 201.999151 
L 226.13579 206.577523 
L 226.768898 213.81075 
L 227.077335 215.238761 
L 227.288371 215.45147 
L 227.450706 215.29244 
L 227.677976 214.686613 
L 228.002647 213.089031 
L 228.457186 209.527181 
L 229.171461 204.128928 
L 229.414965 203.621242 
L 229.528599 203.724743 
L 229.707168 204.284778 
L 230.388977 207.177803 
L 230.453911 207.118441 
L 230.583779 206.631305 
L 230.778582 204.826824 
L 231.054552 199.846227 
L 231.590259 184.805867 
L 232.012331 175.975036 
L 232.2396 174.654055 
L 232.320768 174.757295 
L 232.46687 175.54586 
L 232.791541 178.899478 
L 233.733086 188.650359 
L 234.236326 192.613557 
L 234.30126 192.691381 
L 234.34996 192.61645 
L 234.463595 191.883986 
L 234.625931 189.049593 
L 234.836967 181.01294 
L 235.112937 160.792474 
L 235.535009 109.846317 
L 236.022015 58.154353 
L 236.18435 54.144 
L 236.200584 54.230688 
L 236.281752 55.993723 
L 236.444087 65.738864 
L 236.768758 102.411315 
L 237.401866 170.99346 
L 237.759004 187.932078 
L 238.116141 195.392243 
L 238.489513 199.117099 
L 238.765483 200.166566 
L 238.879118 200.181311 
L 238.895351 200.163855 
L 239.041453 199.796375 
L 239.284956 198.438072 
L 239.804429 193.852725 
L 240.194034 191.385575 
L 240.323903 191.235053 
L 240.35637 191.263034 
L 240.486238 191.639292 
L 240.713508 193.197971 
L 241.541418 199.635443 
L 241.784921 199.944627 
L 242.19076 200.21211 
L 242.791401 201.157673 
L 242.856335 201.086414 
L 243.01867 200.585192 
L 243.262173 198.912463 
L 244.122551 191.893657 
L 244.138784 191.898926 
L 244.236186 192.106829 
L 244.414755 193.244937 
L 244.739425 197.162313 
L 245.275132 203.174609 
L 245.421234 203.511338 
L 245.453701 203.477185 
L 245.567336 203.036692 
L 245.762138 201.182182 
L 246.216677 193.882669 
L 246.573815 189.992084 
L 246.703684 189.71306 
L 246.736151 189.741935 
L 246.849785 190.119974 
L 247.093288 191.947651 
L 247.564061 195.295599 
L 247.74263 195.542123 
L 247.758864 195.536027 
L 247.904965 195.325353 
L 248.408205 194.427732 
L 248.554307 194.625273 
L 248.781577 195.434602 
L 250.031559 200.770765 
L 250.729601 202.494765 
L 250.875703 202.440737 
L 251.038038 202.006683 
L 251.265308 200.644882 
L 251.654913 196.645476 
L 252.174386 191.781743 
L 252.336722 191.439912 
L 252.352955 191.452358 
L 252.450356 191.719547 
L 252.628925 193.094468 
L 252.904895 197.315764 
L 253.862674 213.734279 
L 254.02501 214.125284 
L 254.041243 214.119653 
L 254.154878 213.887208 
L 254.382147 212.701788 
L 254.885387 210.123792 
L 255.015255 210.056037 
L 255.031489 210.070047 
L 255.177591 210.408223 
L 255.437328 211.746091 
L 257.223017 222.477345 
L 257.369119 222.59022 
L 257.385352 222.578382 
L 257.51522 222.312034 
L 257.758724 221.124059 
L 258.456766 217.392485 
L 258.667802 217.221198 
L 258.846371 217.396061 
L 259.235976 218.214934 
L 259.885317 220.010382 
L 260.242455 221.822251 
L 260.63206 225.104361 
L 261.719707 235.404298 
L 261.800875 235.3246 
L 261.946977 234.659496 
L 262.19048 232.215495 
L 263.180726 220.741994 
L 263.310594 220.60695 
L 263.343061 220.635469 
L 263.472929 220.973451 
L 263.732666 222.464761 
L 264.463175 226.896695 
L 264.771612 227.457874 
L 265.258619 228.078304 
L 265.534589 228.979357 
L 265.875493 230.947023 
L 266.330032 235.070371 
L 267.109242 242.177517 
L 267.385212 242.97672 
L 267.563781 243.001827 
L 267.855985 242.684021 
L 268.164422 242.499298 
L 268.375458 242.633056 
L 269.138434 243.320649 
L 269.34947 243.060651 
L 269.657908 242.232229 
L 270.307249 239.612194 
L 270.713088 238.437088 
L 270.90789 238.367297 
L 271.070226 238.623129 
L 271.346196 239.59001 
L 271.849435 241.258226 
L 271.995537 241.271258 
L 272.157873 240.964107 
L 272.482543 239.68559 
L 272.839681 238.579033 
L 272.96955 238.587716 
L 273.115651 238.947132 
L 273.359155 240.28326 
L 274.008496 244.031046 
L 274.154598 244.095358 
L 274.170831 244.082261 
L 274.333167 243.781476 
L 274.966275 242.38286 
L 275.258479 242.372631 
L 275.696784 242.306266 
L 275.891587 242.396519 
L 276.070156 242.788601 
L 276.313659 243.99628 
L 276.751964 247.670217 
L 277.336372 251.986942 
L 277.661042 253.018655 
L 277.823378 253.069982 
L 277.96948 252.801009 
L 278.180516 251.839544 
L 278.537653 248.92498 
L 279.07336 244.838255 
L 279.284396 244.469639 
L 279.398031 244.619548 
L 279.609067 245.398935 
L 280.518145 249.307847 
L 281.037618 250.870218 
L 281.540858 252.390928 
L 281.703194 252.390133 
L 281.865529 252.052495 
L 282.157733 250.783979 
L 283.001877 246.894104 
L 283.310314 246.344148 
L 283.472649 246.359736 
L 283.634985 246.657433 
L 283.862254 247.648557 
L 284.186925 250.268293 
L 285.112237 258.41767 
L 285.453141 259.371097 
L 285.891447 260.480064 
L 286.264818 262.240849 
L 287.612202 269.358587 
L 287.725836 269.268298 
L 287.904405 268.712237 
L 288.180376 266.95423 
L 289.235556 259.305016 
L 289.446592 259.109615 
L 289.608927 259.272764 
L 289.884897 259.968825 
L 290.35567 261.850414 
L 290.923844 265.104087 
L 291.605652 268.772712 
L 291.865389 269.246428 
L 292.027724 269.206743 
L 292.254994 268.82317 
L 292.855635 267.733284 
L 293.050437 267.78877 
L 293.342641 268.193894 
L 293.829647 268.790497 
L 294.34912 269.23304 
L 294.608857 269.934713 
L 295.014695 271.813629 
L 295.810139 275.464566 
L 296.053642 275.802164 
L 296.18351 275.712237 
L 296.362079 275.240406 
L 296.638049 273.732204 
L 297.157523 269.281993 
L 297.693229 265.447185 
L 297.936732 264.893773 
L 298.050367 264.967998 
L 298.212703 265.437631 
L 298.488673 267.07336 
L 299.641254 274.886121 
L 300.582799 277.720661 
L 300.793835 277.876487 
L 300.923704 277.689226 
L 301.118506 276.942815 
L 301.443177 274.628933 
L 302.271087 268.462427 
L 302.563291 267.736141 
L 302.758094 267.697524 
L 303.001597 267.955195 
L 303.358734 268.271677 
L 303.52107 268.128062 
L 303.732106 267.538546 
L 304.105477 265.632258 
L 304.592483 263.490334 
L 304.85222 263.166869 
L 305.160657 263.194825 
L 305.40416 263.117623 
L 305.663897 262.739817 
L 306.508041 261.27364 
L 306.670376 261.426963 
L 306.881412 262.020692 
L 307.206083 263.766393 
L 307.985293 268.178199 
L 308.391132 269.056215 
L 308.829437 270.071166 
L 310.12812 273.580961 
L 310.452791 273.905638 
L 310.647593 273.824693 
L 310.858629 273.433929 
L 311.150833 272.354705 
L 312.157313 268.16237 
L 312.335882 268.178208 
L 312.887822 268.470792 
L 313.066391 268.027062 
L 313.326127 266.649371 
L 314.089104 262.185479 
L 314.218972 262.158936 
L 314.235206 262.175115 
L 314.397541 262.539584 
L 315.290386 265.135027 
L 315.744925 265.375617 
L 315.988428 265.990431 
L 316.361799 267.692011 
L 316.929973 271.422511 
L 317.887752 278.082428 
L 317.985153 278.097253 
L 318.001387 278.078416 
L 318.131255 277.706144 
L 318.358524 276.176549 
L 319.413705 267.662407 
L 319.543573 267.672562 
L 319.705908 268.027493 
L 320.014345 269.388122 
L 320.63122 272.052083 
L 320.90719 272.40816 
L 321.150693 272.369674 
L 321.848735 272.119807 
L 322.368209 272.02052 
L 322.709113 271.656297 
L 323.537023 270.651593 
L 324.3 270.34314 
L 324.57597 269.562422 
L 325.225311 267.603083 
L 325.35518 267.698324 
L 325.533749 268.246267 
L 325.842186 270.137955 
L 326.816198 276.607615 
L 327.481773 280.635266 
L 327.936312 282.89961 
L 328.114881 283.061112 
L 328.24475 282.866731 
L 328.488253 281.950759 
L 329.105127 279.512402 
L 329.34863 279.316861 
L 329.884337 279.157004 
L 330.387577 278.756666 
L 330.549912 278.992093 
L 330.777182 279.845019 
L 331.18302 282.510805 
L 331.637559 284.993473 
L 331.799895 285.178727 
L 331.816128 285.170637 
L 331.945997 284.927974 
L 332.157033 283.89768 
L 332.562871 280.485685 
L 333.066111 276.823587 
L 333.309614 276.307969 
L 333.439482 276.415141 
L 333.634285 276.976871 
L 334.738165 280.864154 
L 335.939447 282.4149 
L 336.18295 282.160951 
L 336.572555 281.767873 
L 336.718657 281.894825 
L 336.913459 282.438063 
L 337.254364 284.230359 
L 337.74137 286.487579 
L 337.936172 286.657285 
L 338.098508 286.481175 
L 338.699149 285.617728 
L 338.861484 285.841427 
L 339.153688 286.737531 
L 339.673161 288.22107 
L 339.932898 288.394538 
L 340.387437 288.545652 
L 340.598473 288.995205 
L 340.890677 290.248897 
L 341.41015 293.749333 
L 341.96209 296.944594 
L 342.221827 297.465164 
L 342.367929 297.429979 
L 342.578965 297.052771 
L 343.390642 295.310054 
L 344.007516 294.716692 
L 344.364654 293.75198 
L 344.884127 292.459741 
L 345.07893 292.409131 
L 345.273732 292.631651 
L 346.166577 293.968775 
L 346.880852 294.080647 
L 347.173056 294.636775 
L 348.423039 297.511314 
L 348.942512 297.807986 
L 349.413284 297.881353 
L 349.673021 297.700631 
L 349.965225 297.186643 
L 351.052872 294.894519 
L 351.572345 294.507371 
L 351.864549 293.818096 
L 352.530124 292.113961 
L 352.676226 292.157453 
L 352.854795 292.516059 
L 353.163232 293.75601 
L 354.056077 297.54626 
L 354.608017 298.875986 
L 354.883987 299.109794 
L 355.095023 299.018587 
L 355.841766 298.457128 
L 356.069035 298.786895 
L 356.556042 300.053529 
L 356.994347 300.895982 
L 357.319018 301.104993 
L 358.033294 301.383331 
L 358.471599 302.001688 
L 359.104707 302.814293 
L 359.543013 303.016337 
L 359.997552 302.979181 
L 361.036498 302.796418 
L 361.588439 303.015217 
L 362.318948 303.296306 
L 362.919589 303.182586 
L 363.276727 303.262681 
L 364.039703 303.580435 
L 364.29944 303.294122 
L 365.143584 302.125797 
L 365.370853 302.265372 
L 365.760458 302.855278 
L 366.377333 303.6896 
L 367.708483 305.055467 
L 368.325357 305.776741 
L 368.601328 305.800197 
L 368.893531 305.583291 
L 370.12728 304.392045 
L 370.435717 304.497253 
L 371.13376 304.854503 
L 371.377263 304.625405 
L 372.091538 303.786232 
L 372.270107 303.978381 
L 372.546077 304.670659 
L 373.438922 307.136843 
L 373.812294 307.465957 
L 374.2993 307.571262 
L 376.263558 307.584 
L 398.487273 307.584 
L 398.487273 307.584 
" style="fill:none;stroke:#ff7f0e;stroke-linecap:square;stroke-width:1.5;"/>
   </g>
   <g id="patch_103">
    <path d="M 57.6 307.584 
L 57.6 41.472 
" style="fill:none;stroke:#000000;stroke-linecap:square;stroke-linejoin:miter;stroke-width:0.8;"/>
   </g>
   <g id="patch_104">
    <path d="M 414.72 307.584 
L 414.72 41.472 
" style="fill:none;stroke:#000000;stroke-linecap:square;stroke-linejoin:miter;stroke-width:0.8;"/>
   </g>
   <g id="patch_105">
    <path d="M 57.6 307.584 
L 414.72 307.584 
" style="fill:none;stroke:#000000;stroke-linecap:square;stroke-linejoin:miter;stroke-width:0.8;"/>
   </g>
   <g id="patch_106">
    <path d="M 57.6 41.472 
L 414.72 41.472 
" style="fill:none;stroke:#000000;stroke-linecap:square;stroke-linejoin:miter;stroke-width:0.8;"/>
   </g>
  </g>
 </g>
 <defs>
  <clipPath id="p406f06a409">
   <rect height="266.112" width="357.12" x="57.6" y="41.472"/>
  </clipPath>
 </defs>
</svg>
