<?xml version="1.0" encoding="utf-8" standalone="no"?>
<!DOCTYPE svg PUBLIC "-//W3C//DTD SVG 1.1//EN"
  "http://www.w3.org/Graphics/SVG/1.1/DTD/svg11.dtd">
<!-- Created with matplotlib (https://matplotlib.org/) -->
<svg height="345.6pt" version="1.1" viewBox="0 0 460.8 345.6" width="460.8pt" xmlns="http://www.w3.org/2000/svg" xmlns:xlink="http://www.w3.org/1999/xlink">
 <defs>
  <style type="text/css">
*{stroke-linecap:butt;stroke-linejoin:round;}
  </style>
 </defs>
 <g id="figure_1">
  <g id="patch_1">
   <path d="M 0 345.6 
L 460.8 345.6 
L 460.8 0 
L 0 0 
z
" style="fill:#ffffff;"/>
  </g>
  <g id="axes_1">
   <g id="patch_2">
    <path d="M 57.6 307.584 
L 414.72 307.584 
L 414.72 41.472 
L 57.6 41.472 
z
" style="fill:#ffffff;"/>
   </g>
   <g id="patch_3">
    <path clip-path="url(#pcbea829306)" d="M 100.15491 307.584 
L 102.874982 307.584 
L 102.874982 290.471866 
L 100.15491 290.471866 
z
" style="fill:#1f77b4;"/>
   </g>
   <g id="patch_4">
    <path clip-path="url(#pcbea829306)" d="M 102.874966 307.584 
L 105.595037 307.584 
L 105.595037 292.305309 
L 102.874966 292.305309 
z
" style="fill:#1f77b4;"/>
   </g>
   <g id="patch_5">
    <path clip-path="url(#pcbea829306)" d="M 105.595037 307.584 
L 108.315116 307.584 
L 108.315116 290.777487 
L 105.595037 290.777487 
z
" style="fill:#1f77b4;"/>
   </g>
   <g id="patch_6">
    <path clip-path="url(#pcbea829306)" d="M 108.315116 307.584 
L 111.035188 307.584 
L 111.035188 288.943997 
L 108.315116 288.943997 
z
" style="fill:#1f77b4;"/>
   </g>
   <g id="patch_7">
    <path clip-path="url(#pcbea829306)" d="M 111.03518 307.584 
L 113.755259 307.584 
L 113.755259 282.221445 
L 111.03518 282.221445 
z
" style="fill:#1f77b4;"/>
   </g>
   <g id="patch_8">
    <path clip-path="url(#pcbea829306)" d="M 113.755267 307.584 
L 116.475338 307.584 
L 116.475338 281.610225 
L 113.755267 281.610225 
z
" style="fill:#1f77b4;"/>
   </g>
   <g id="patch_9">
    <path clip-path="url(#pcbea829306)" d="M 116.475338 307.584 
L 119.195409 307.584 
L 119.195409 280.999077 
L 116.475338 280.999077 
z
" style="fill:#1f77b4;"/>
   </g>
   <g id="patch_10">
    <path clip-path="url(#pcbea829306)" d="M 119.195409 307.584 
L 121.915488 307.584 
L 121.915488 280.388007 
L 119.195409 280.388007 
z
" style="fill:#1f77b4;"/>
   </g>
   <g id="patch_11">
    <path clip-path="url(#pcbea829306)" d="M 121.915488 307.584 
L 124.63556 307.584 
L 124.63556 279.165634 
L 121.915488 279.165634 
z
" style="fill:#1f77b4;"/>
   </g>
   <g id="patch_12">
    <path clip-path="url(#pcbea829306)" d="M 124.63556 307.584 
L 127.355631 307.584 
L 127.355631 275.193174 
L 124.63556 275.193174 
z
" style="fill:#1f77b4;"/>
   </g>
   <g id="patch_13">
    <path clip-path="url(#pcbea829306)" d="M 127.355623 307.584 
L 130.075702 307.584 
L 130.075702 280.69358 
L 127.355623 280.69358 
z
" style="fill:#1f77b4;"/>
   </g>
   <g id="patch_14">
    <path clip-path="url(#pcbea829306)" d="M 130.07571 307.584 
L 132.795781 307.584 
L 132.795781 278.86006 
L 130.07571 278.86006 
z
" style="fill:#1f77b4;"/>
   </g>
   <g id="patch_15">
    <path clip-path="url(#pcbea829306)" d="M 132.795781 307.584 
L 135.515853 307.584 
L 135.515853 279.471208 
L 132.795781 279.471208 
z
" style="fill:#1f77b4;"/>
   </g>
   <g id="patch_16">
    <path clip-path="url(#pcbea829306)" d="M 135.515853 307.584 
L 138.235924 307.584 
L 138.235924 280.387929 
L 135.515853 280.387929 
z
" style="fill:#1f77b4;"/>
   </g>
   <g id="patch_17">
    <path clip-path="url(#pcbea829306)" d="M 138.235924 307.584 
L 140.956003 307.584 
L 140.956003 274.887694 
L 138.235924 274.887694 
z
" style="fill:#1f77b4;"/>
   </g>
   <g id="patch_18">
    <path clip-path="url(#pcbea829306)" d="M 140.956003 307.584 
L 143.676074 307.584 
L 143.676074 281.304651 
L 140.956003 281.304651 
z
" style="fill:#1f77b4;"/>
   </g>
   <g id="patch_19">
    <path clip-path="url(#pcbea829306)" d="M 143.676074 307.584 
L 146.396146 307.584 
L 146.396146 278.554487 
L 143.676074 278.554487 
z
" style="fill:#1f77b4;"/>
   </g>
   <g id="patch_20">
    <path clip-path="url(#pcbea829306)" d="M 146.396138 307.584 
L 149.116217 307.584 
L 149.116217 280.999153 
L 146.396138 280.999153 
z
" style="fill:#1f77b4;"/>
   </g>
   <g id="patch_21">
    <path clip-path="url(#pcbea829306)" d="M 149.116225 307.584 
L 151.836296 307.584 
L 151.836296 281.304651 
L 149.116225 281.304651 
z
" style="fill:#1f77b4;"/>
   </g>
   <g id="patch_22">
    <path clip-path="url(#pcbea829306)" d="M 151.836296 307.584 
L 154.556367 307.584 
L 154.556367 283.443668 
L 151.836296 283.443668 
z
" style="fill:#1f77b4;"/>
   </g>
   <g id="patch_23">
    <path clip-path="url(#pcbea829306)" d="M 154.556367 307.584 
L 157.276446 307.584 
L 157.276446 280.388007 
L 154.556367 280.388007 
z
" style="fill:#1f77b4;"/>
   </g>
   <g id="patch_24">
    <path clip-path="url(#pcbea829306)" d="M 157.276446 307.584 
L 159.996518 307.584 
L 159.996518 277.637765 
L 157.276446 277.637765 
z
" style="fill:#1f77b4;"/>
   </g>
   <g id="patch_25">
    <path clip-path="url(#pcbea829306)" d="M 159.996518 307.584 
L 162.716589 307.584 
L 162.716589 279.471208 
L 159.996518 279.471208 
z
" style="fill:#1f77b4;"/>
   </g>
   <g id="patch_26">
    <path clip-path="url(#pcbea829306)" d="M 162.716581 307.584 
L 165.43666 307.584 
L 165.43666 270.915245 
L 162.716581 270.915245 
z
" style="fill:#1f77b4;"/>
   </g>
   <g id="patch_27">
    <path clip-path="url(#pcbea829306)" d="M 165.436668 307.584 
L 168.156739 307.584 
L 168.156739 264.192517 
L 165.436668 264.192517 
z
" style="fill:#1f77b4;"/>
   </g>
   <g id="patch_28">
    <path clip-path="url(#pcbea829306)" d="M 168.156739 307.584 
L 170.876811 307.584 
L 170.876811 269.692846 
L 168.156739 269.692846 
z
" style="fill:#1f77b4;"/>
   </g>
   <g id="patch_29">
    <path clip-path="url(#pcbea829306)" d="M 170.876811 307.584 
L 173.596886 307.584 
L 173.596886 267.553886 
L 170.876811 267.553886 
z
" style="fill:#1f77b4;"/>
   </g>
   <g id="patch_30">
    <path clip-path="url(#pcbea829306)" d="M 173.59689 307.584 
L 176.316965 307.584 
L 176.316965 268.776179 
L 173.59689 268.776179 
z
" style="fill:#1f77b4;"/>
   </g>
   <g id="patch_31">
    <path clip-path="url(#pcbea829306)" d="M 176.316961 307.584 
L 179.037036 307.584 
L 179.037036 266.331592 
L 176.316961 266.331592 
z
" style="fill:#1f77b4;"/>
   </g>
   <g id="patch_32">
    <path clip-path="url(#pcbea829306)" d="M 179.037036 307.584 
L 181.757107 307.584 
L 181.757107 261.442352 
L 179.037036 261.442352 
z
" style="fill:#1f77b4;"/>
   </g>
   <g id="patch_33">
    <path clip-path="url(#pcbea829306)" d="M 181.757111 307.584 
L 184.477187 307.584 
L 184.477187 261.747991 
L 181.757111 261.747991 
z
" style="fill:#1f77b4;"/>
   </g>
   <g id="patch_34">
    <path clip-path="url(#pcbea829306)" d="M 184.477183 307.584 
L 187.197254 307.584 
L 187.197254 258.692188 
L 184.477183 258.692188 
z
" style="fill:#1f77b4;"/>
   </g>
   <g id="patch_35">
    <path clip-path="url(#pcbea829306)" d="M 187.197254 307.584 
L 189.917329 307.584 
L 189.917329 256.24767 
L 187.197254 256.24767 
z
" style="fill:#1f77b4;"/>
   </g>
   <g id="patch_36">
    <path clip-path="url(#pcbea829306)" d="M 189.917333 307.584 
L 192.637408 307.584 
L 192.637408 252.58079 
L 189.917333 252.58079 
z
" style="fill:#1f77b4;"/>
   </g>
   <g id="patch_37">
    <path clip-path="url(#pcbea829306)" d="M 192.637404 307.584 
L 195.357476 307.584 
L 195.357476 248.913825 
L 192.637404 248.913825 
z
" style="fill:#1f77b4;"/>
   </g>
   <g id="patch_38">
    <path clip-path="url(#pcbea829306)" d="M 195.357476 307.584 
L 198.077551 307.584 
L 198.077551 244.024735 
L 195.357476 244.024735 
z
" style="fill:#1f77b4;"/>
   </g>
   <g id="patch_39">
    <path clip-path="url(#pcbea829306)" d="M 198.077555 307.584 
L 200.79763 307.584 
L 200.79763 244.330308 
L 198.077555 244.330308 
z
" style="fill:#1f77b4;"/>
   </g>
   <g id="patch_40">
    <path clip-path="url(#pcbea829306)" d="M 200.797626 307.584 
L 203.517697 307.584 
L 203.517697 238.524315 
L 200.797626 238.524315 
z
" style="fill:#1f77b4;"/>
   </g>
   <g id="patch_41">
    <path clip-path="url(#pcbea829306)" d="M 203.517697 307.584 
L 206.237772 307.584 
L 206.237772 236.996547 
L 203.517697 236.996547 
z
" style="fill:#1f77b4;"/>
   </g>
   <g id="patch_42">
    <path clip-path="url(#pcbea829306)" d="M 206.237772 307.584 
L 208.957846 307.584 
L 208.957846 237.607644 
L 206.237772 237.607644 
z
" style="fill:#1f77b4;"/>
   </g>
   <g id="patch_43">
    <path clip-path="url(#pcbea829306)" d="M 208.957848 307.584 
L 211.677921 307.584 
L 211.677921 232.107319 
L 208.957848 232.107319 
z
" style="fill:#1f77b4;"/>
   </g>
   <g id="patch_44">
    <path clip-path="url(#pcbea829306)" d="M 211.677919 307.584 
L 214.397994 307.584 
L 214.397994 237.607693 
L 211.677919 237.607693 
z
" style="fill:#1f77b4;"/>
   </g>
   <g id="patch_45">
    <path clip-path="url(#pcbea829306)" d="M 214.397994 307.584 
L 217.118067 307.584 
L 217.118067 230.579451 
L 214.397994 230.579451 
z
" style="fill:#1f77b4;"/>
   </g>
   <g id="patch_46">
    <path clip-path="url(#pcbea829306)" d="M 217.118069 307.584 
L 219.838142 307.584 
L 219.838142 223.551258 
L 217.118069 223.551258 
z
" style="fill:#1f77b4;"/>
   </g>
   <g id="patch_47">
    <path clip-path="url(#pcbea829306)" d="M 219.838141 307.584 
L 222.558215 307.584 
L 222.558215 210.106053 
L 219.838141 210.106053 
z
" style="fill:#1f77b4;"/>
   </g>
   <g id="patch_48">
    <path clip-path="url(#pcbea829306)" d="M 222.558214 307.584 
L 225.278288 307.584 
L 225.278288 212.856215 
L 222.558214 212.856215 
z
" style="fill:#1f77b4;"/>
   </g>
   <g id="patch_49">
    <path clip-path="url(#pcbea829306)" d="M 225.278289 307.584 
L 227.998362 307.584 
L 227.998362 217.745359 
L 225.278289 217.745359 
z
" style="fill:#1f77b4;"/>
   </g>
   <g id="patch_50">
    <path clip-path="url(#pcbea829306)" d="M 227.998362 307.584 
L 230.718436 307.584 
L 230.718436 213.772935 
L 227.998362 213.772935 
z
" style="fill:#1f77b4;"/>
   </g>
   <g id="patch_51">
    <path clip-path="url(#pcbea829306)" d="M 230.718436 307.584 
L 233.43851 307.584 
L 233.43851 184.743431 
L 230.718436 184.743431 
z
" style="fill:#1f77b4;"/>
   </g>
   <g id="patch_52">
    <path clip-path="url(#pcbea829306)" d="M 233.43851 307.584 
L 236.158584 307.584 
L 236.158584 203.383418 
L 233.43851 203.383418 
z
" style="fill:#1f77b4;"/>
   </g>
   <g id="patch_53">
    <path clip-path="url(#pcbea829306)" d="M 236.158584 307.584 
L 238.878658 307.584 
L 238.878658 111.711352 
L 236.158584 111.711352 
z
" style="fill:#1f77b4;"/>
   </g>
   <g id="patch_54">
    <path clip-path="url(#pcbea829306)" d="M 238.878658 307.584 
L 241.598731 307.584 
L 241.598731 199.410962 
L 238.878658 199.410962 
z
" style="fill:#1f77b4;"/>
   </g>
   <g id="patch_55">
    <path clip-path="url(#pcbea829306)" d="M 241.598731 307.584 
L 244.318806 307.584 
L 244.318806 205.216877 
L 241.598731 205.216877 
z
" style="fill:#1f77b4;"/>
   </g>
   <g id="patch_56">
    <path clip-path="url(#pcbea829306)" d="M 244.318806 307.584 
L 247.038879 307.584 
L 247.038879 211.328313 
L 244.318806 211.328313 
z
" style="fill:#1f77b4;"/>
   </g>
   <g id="patch_57">
    <path clip-path="url(#pcbea829306)" d="M 247.038879 307.584 
L 249.758953 307.584 
L 249.758953 214.078509 
L 247.038879 214.078509 
z
" style="fill:#1f77b4;"/>
   </g>
   <g id="patch_58">
    <path clip-path="url(#pcbea829306)" d="M 249.758952 307.584 
L 252.479027 307.584 
L 252.479027 206.744745 
L 249.758952 206.744745 
z
" style="fill:#1f77b4;"/>
   </g>
   <g id="patch_59">
    <path clip-path="url(#pcbea829306)" d="M 252.479027 307.584 
L 255.1991 307.584 
L 255.1991 214.078476 
L 252.479027 214.078476 
z
" style="fill:#1f77b4;"/>
   </g>
   <g id="patch_60">
    <path clip-path="url(#pcbea829306)" d="M 255.199102 307.584 
L 257.919176 307.584 
L 257.919176 231.496171 
L 255.199102 231.496171 
z
" style="fill:#1f77b4;"/>
   </g>
   <g id="patch_61">
    <path clip-path="url(#pcbea829306)" d="M 257.919174 307.584 
L 260.639249 307.584 
L 260.639249 225.995905 
L 257.919174 225.995905 
z
" style="fill:#1f77b4;"/>
   </g>
   <g id="patch_62">
    <path clip-path="url(#pcbea829306)" d="M 260.639249 307.584 
L 263.359322 307.584 
L 263.359322 235.468628 
L 260.639249 235.468628 
z
" style="fill:#1f77b4;"/>
   </g>
   <g id="patch_63">
    <path clip-path="url(#pcbea829306)" d="M 263.359324 307.584 
L 266.079397 307.584 
L 266.079397 233.94076 
L 263.359324 233.94076 
z
" style="fill:#1f77b4;"/>
   </g>
   <g id="patch_64">
    <path clip-path="url(#pcbea829306)" d="M 266.079395 307.584 
L 268.79947 307.584 
L 268.79947 248.913909 
L 266.079395 248.913909 
z
" style="fill:#1f77b4;"/>
   </g>
   <g id="patch_65">
    <path clip-path="url(#pcbea829306)" d="M 268.79947 307.584 
L 271.519542 307.584 
L 271.519542 244.941366 
L 268.79947 244.941366 
z
" style="fill:#1f77b4;"/>
   </g>
   <g id="patch_66">
    <path clip-path="url(#pcbea829306)" d="M 271.519542 307.584 
L 274.239617 307.584 
L 274.239617 247.997189 
L 271.519542 247.997189 
z
" style="fill:#1f77b4;"/>
   </g>
   <g id="patch_67">
    <path clip-path="url(#pcbea829306)" d="M 274.239621 307.584 
L 276.959696 307.584 
L 276.959696 243.413588 
L 274.239621 243.413588 
z
" style="fill:#1f77b4;"/>
   </g>
   <g id="patch_68">
    <path clip-path="url(#pcbea829306)" d="M 276.959692 307.584 
L 279.679763 307.584 
L 279.679763 252.886285 
L 276.959692 252.886285 
z
" style="fill:#1f77b4;"/>
   </g>
   <g id="patch_69">
    <path clip-path="url(#pcbea829306)" d="M 279.679763 307.584 
L 282.399839 307.584 
L 282.399839 250.136202 
L 279.679763 250.136202 
z
" style="fill:#1f77b4;"/>
   </g>
   <g id="patch_70">
    <path clip-path="url(#pcbea829306)" d="M 282.399842 307.584 
L 285.119918 307.584 
L 285.119918 250.136202 
L 282.399842 250.136202 
z
" style="fill:#1f77b4;"/>
   </g>
   <g id="patch_71">
    <path clip-path="url(#pcbea829306)" d="M 285.119914 307.584 
L 287.839985 307.584 
L 287.839985 262.970221 
L 285.119914 262.970221 
z
" style="fill:#1f77b4;"/>
   </g>
   <g id="patch_72">
    <path clip-path="url(#pcbea829306)" d="M 287.839985 307.584 
L 290.56006 307.584 
L 290.56006 264.803725 
L 287.839985 264.803725 
z
" style="fill:#1f77b4;"/>
   </g>
   <g id="patch_73">
    <path clip-path="url(#pcbea829306)" d="M 290.56006 307.584 
L 293.280132 307.584 
L 293.280132 270.915141 
L 290.56006 270.915141 
z
" style="fill:#1f77b4;"/>
   </g>
   <g id="patch_74">
    <path clip-path="url(#pcbea829306)" d="M 293.280135 307.584 
L 296.000211 307.584 
L 296.000211 273.35978 
L 293.280135 273.35978 
z
" style="fill:#1f77b4;"/>
   </g>
   <g id="patch_75">
    <path clip-path="url(#pcbea829306)" d="M 296.000207 307.584 
L 298.720282 307.584 
L 298.720282 272.137487 
L 296.000207 272.137487 
z
" style="fill:#1f77b4;"/>
   </g>
   <g id="patch_76">
    <path clip-path="url(#pcbea829306)" d="M 298.720286 307.584 
L 301.440357 307.584 
L 301.440357 276.415514 
L 298.720286 276.415514 
z
" style="fill:#1f77b4;"/>
   </g>
   <g id="patch_77">
    <path clip-path="url(#pcbea829306)" d="M 301.440357 307.584 
L 304.160428 307.584 
L 304.160428 272.748584 
L 301.440357 272.748584 
z
" style="fill:#1f77b4;"/>
   </g>
   <g id="patch_78">
    <path clip-path="url(#pcbea829306)" d="M 304.160428 307.584 
L 306.8805 307.584 
L 306.8805 268.776124 
L 304.160428 268.776124 
z
" style="fill:#1f77b4;"/>
   </g>
   <g id="patch_79">
    <path clip-path="url(#pcbea829306)" d="M 306.8805 307.584 
L 309.600579 307.584 
L 309.600579 274.276548 
L 306.8805 274.276548 
z
" style="fill:#1f77b4;"/>
   </g>
   <g id="patch_80">
    <path clip-path="url(#pcbea829306)" d="M 309.600579 307.584 
L 312.32065 307.584 
L 312.32065 274.276453 
L 309.600579 274.276453 
z
" style="fill:#1f77b4;"/>
   </g>
   <g id="patch_81">
    <path clip-path="url(#pcbea829306)" d="M 312.32065 307.584 
L 315.040721 307.584 
L 315.040721 272.748584 
L 312.32065 272.748584 
z
" style="fill:#1f77b4;"/>
   </g>
   <g id="patch_82">
    <path clip-path="url(#pcbea829306)" d="M 315.040714 307.584 
L 317.760793 307.584 
L 317.760793 274.582121 
L 315.040714 274.582121 
z
" style="fill:#1f77b4;"/>
   </g>
   <g id="patch_83">
    <path clip-path="url(#pcbea829306)" d="M 317.7608 307.584 
L 320.480872 307.584 
L 320.480872 280.387929 
L 317.7608 280.387929 
z
" style="fill:#1f77b4;"/>
   </g>
   <g id="patch_84">
    <path clip-path="url(#pcbea829306)" d="M 320.480872 307.584 
L 323.200943 307.584 
L 323.200943 281.304651 
L 320.480872 281.304651 
z
" style="fill:#1f77b4;"/>
   </g>
   <g id="patch_85">
    <path clip-path="url(#pcbea829306)" d="M 323.200943 307.584 
L 325.921022 307.584 
L 325.921022 280.69358 
L 323.200943 280.69358 
z
" style="fill:#1f77b4;"/>
   </g>
   <g id="patch_86">
    <path clip-path="url(#pcbea829306)" d="M 325.921022 307.584 
L 328.641093 307.584 
L 328.641093 288.027275 
L 325.921022 288.027275 
z
" style="fill:#1f77b4;"/>
   </g>
   <g id="patch_87">
    <path clip-path="url(#pcbea829306)" d="M 328.641093 307.584 
L 331.361165 307.584 
L 331.361165 285.888258 
L 328.641093 285.888258 
z
" style="fill:#1f77b4;"/>
   </g>
   <g id="patch_88">
    <path clip-path="url(#pcbea829306)" d="M 331.361157 307.584 
L 334.081236 307.584 
L 334.081236 288.027331 
L 331.361157 288.027331 
z
" style="fill:#1f77b4;"/>
   </g>
   <g id="patch_89">
    <path clip-path="url(#pcbea829306)" d="M 334.081244 307.584 
L 336.801315 307.584 
L 336.801315 288.027275 
L 334.081244 288.027275 
z
" style="fill:#1f77b4;"/>
   </g>
   <g id="patch_90">
    <path clip-path="url(#pcbea829306)" d="M 336.801315 307.584 
L 339.521386 307.584 
L 339.521386 291.083013 
L 336.801315 291.083013 
z
" style="fill:#1f77b4;"/>
   </g>
   <g id="patch_91">
    <path clip-path="url(#pcbea829306)" d="M 339.521386 307.584 
L 342.241458 307.584 
L 342.241458 295.055473 
L 339.521386 295.055473 
z
" style="fill:#1f77b4;"/>
   </g>
   <g id="patch_92">
    <path clip-path="url(#pcbea829306)" d="M 342.241458 307.584 
L 344.961537 307.584 
L 344.961537 298.111238 
L 342.241458 298.111238 
z
" style="fill:#1f77b4;"/>
   </g>
   <g id="patch_93">
    <path clip-path="url(#pcbea829306)" d="M 344.961537 307.584 
L 347.681608 307.584 
L 347.681608 296.888916 
L 344.961537 296.888916 
z
" style="fill:#1f77b4;"/>
   </g>
   <g id="patch_94">
    <path clip-path="url(#pcbea829306)" d="M 347.681608 307.584 
L 350.401679 307.584 
L 350.401679 299.944654 
L 347.681608 299.944654 
z
" style="fill:#1f77b4;"/>
   </g>
   <g id="patch_95">
    <path clip-path="url(#pcbea829306)" d="M 350.401672 307.584 
L 353.121751 307.584 
L 353.121751 295.972228 
L 350.401672 295.972228 
z
" style="fill:#1f77b4;"/>
   </g>
   <g id="patch_96">
    <path clip-path="url(#pcbea829306)" d="M 353.121758 307.584 
L 355.84183 307.584 
L 355.84183 300.250228 
L 353.121758 300.250228 
z
" style="fill:#1f77b4;"/>
   </g>
   <g id="patch_97">
    <path clip-path="url(#pcbea829306)" d="M 355.84183 307.584 
L 358.561901 307.584 
L 358.561901 302.083671 
L 355.84183 302.083671 
z
" style="fill:#1f77b4;"/>
   </g>
   <g id="patch_98">
    <path clip-path="url(#pcbea829306)" d="M 358.561901 307.584 
L 361.28198 307.584 
L 361.28198 304.222697 
L 358.561901 304.222697 
z
" style="fill:#1f77b4;"/>
   </g>
   <g id="patch_99">
    <path clip-path="url(#pcbea829306)" d="M 361.28198 307.584 
L 364.002051 307.584 
L 364.002051 304.528262 
L 361.28198 304.528262 
z
" style="fill:#1f77b4;"/>
   </g>
   <g id="patch_100">
    <path clip-path="url(#pcbea829306)" d="M 364.002044 307.584 
L 366.722115 307.584 
L 366.722115 304.222697 
L 364.002044 304.222697 
z
" style="fill:#1f77b4;"/>
   </g>
   <g id="patch_101">
    <path clip-path="url(#pcbea829306)" d="M 366.722146 307.584 
L 369.442217 307.584 
L 369.442217 305.750557 
L 366.722146 305.750557 
z
" style="fill:#1f77b4;"/>
   </g>
   <g id="patch_102">
    <path clip-path="url(#pcbea829306)" d="M 369.442202 307.584 
L 372.162273 307.584 
L 372.162273 303.917114 
L 369.442202 303.917114 
z
" style="fill:#1f77b4;"/>
   </g>
   <g id="matplotlib.axis_1">
    <g id="xtick_1">
     <g id="line2d_1">
      <defs>
       <path d="M 0 0 
L 0 3.5 
" id="m4c55a4a95c" style="stroke:#000000;stroke-width:0.8;"/>
      </defs>
      <g>
       <use style="stroke:#000000;stroke-width:0.8;" x="106.299264" xlink:href="#m4c55a4a95c" y="307.584"/>
      </g>
     </g>
     <g id="text_1">
      <!-- −2 -->
      <defs>
       <path d="M 10.59375 35.5 
L 73.1875 35.5 
L 73.1875 27.203125 
L 10.59375 27.203125 
z
" id="DejaVuSans-8722"/>
       <path d="M 19.1875 8.296875 
L 53.609375 8.296875 
L 53.609375 0 
L 7.328125 0 
L 7.328125 8.296875 
Q 12.9375 14.109375 22.625 23.890625 
Q 32.328125 33.6875 34.8125 36.53125 
Q 39.546875 41.84375 41.421875 45.53125 
Q 43.3125 49.21875 43.3125 52.78125 
Q 43.3125 58.59375 39.234375 62.25 
Q 35.15625 65.921875 28.609375 65.921875 
Q 23.96875 65.921875 18.8125 64.3125 
Q 13.671875 62.703125 7.8125 59.421875 
L 7.8125 69.390625 
Q 13.765625 71.78125 18.9375 73 
Q 24.125 74.21875 28.421875 74.21875 
Q 39.75 74.21875 46.484375 68.546875 
Q 53.21875 62.890625 53.21875 53.421875 
Q 53.21875 48.921875 51.53125 44.890625 
Q 49.859375 40.875 45.40625 35.40625 
Q 44.1875 33.984375 37.640625 27.21875 
Q 31.109375 20.453125 19.1875 8.296875 
z
" id="DejaVuSans-50"/>
      </defs>
      <g transform="translate(93.768405 327.501344)scale(0.17 -0.17)">
       <use xlink:href="#DejaVuSans-8722"/>
       <use x="83.789062" xlink:href="#DejaVuSans-50"/>
      </g>
     </g>
    </g>
    <g id="xtick_2">
     <g id="line2d_2">
      <g>
       <use style="stroke:#000000;stroke-width:0.8;" x="171.232338" xlink:href="#m4c55a4a95c" y="307.584"/>
      </g>
     </g>
     <g id="text_2">
      <!-- −1 -->
      <defs>
       <path d="M 12.40625 8.296875 
L 28.515625 8.296875 
L 28.515625 63.921875 
L 10.984375 60.40625 
L 10.984375 69.390625 
L 28.421875 72.90625 
L 38.28125 72.90625 
L 38.28125 8.296875 
L 54.390625 8.296875 
L 54.390625 0 
L 12.40625 0 
z
" id="DejaVuSans-49"/>
      </defs>
      <g transform="translate(158.701478 327.501344)scale(0.17 -0.17)">
       <use xlink:href="#DejaVuSans-8722"/>
       <use x="83.789062" xlink:href="#DejaVuSans-49"/>
      </g>
     </g>
    </g>
    <g id="xtick_3">
     <g id="line2d_3">
      <g>
       <use style="stroke:#000000;stroke-width:0.8;" x="236.165411" xlink:href="#m4c55a4a95c" y="307.584"/>
      </g>
     </g>
     <g id="text_3">
      <!-- 0 -->
      <defs>
       <path d="M 31.78125 66.40625 
Q 24.171875 66.40625 20.328125 58.90625 
Q 16.5 51.421875 16.5 36.375 
Q 16.5 21.390625 20.328125 13.890625 
Q 24.171875 6.390625 31.78125 6.390625 
Q 39.453125 6.390625 43.28125 13.890625 
Q 47.125 21.390625 47.125 36.375 
Q 47.125 51.421875 43.28125 58.90625 
Q 39.453125 66.40625 31.78125 66.40625 
z
M 31.78125 74.21875 
Q 44.046875 74.21875 50.515625 64.515625 
Q 56.984375 54.828125 56.984375 36.375 
Q 56.984375 17.96875 50.515625 8.265625 
Q 44.046875 -1.421875 31.78125 -1.421875 
Q 19.53125 -1.421875 13.0625 8.265625 
Q 6.59375 17.96875 6.59375 36.375 
Q 6.59375 54.828125 13.0625 64.515625 
Q 19.53125 74.21875 31.78125 74.21875 
z
" id="DejaVuSans-48"/>
      </defs>
      <g transform="translate(230.757286 327.501344)scale(0.17 -0.17)">
       <use xlink:href="#DejaVuSans-48"/>
      </g>
     </g>
    </g>
    <g id="xtick_4">
     <g id="line2d_4">
      <g>
       <use style="stroke:#000000;stroke-width:0.8;" x="301.098485" xlink:href="#m4c55a4a95c" y="307.584"/>
      </g>
     </g>
     <g id="text_4">
      <!-- 1 -->
      <g transform="translate(295.69036 327.501344)scale(0.17 -0.17)">
       <use xlink:href="#DejaVuSans-49"/>
      </g>
     </g>
    </g>
    <g id="xtick_5">
     <g id="line2d_5">
      <g>
       <use style="stroke:#000000;stroke-width:0.8;" x="366.031558" xlink:href="#m4c55a4a95c" y="307.584"/>
      </g>
     </g>
     <g id="text_5">
      <!-- 2 -->
      <g transform="translate(360.623433 327.501344)scale(0.17 -0.17)">
       <use xlink:href="#DejaVuSans-50"/>
      </g>
     </g>
    </g>
    <g id="text_6">
     <!-- Position in Radian -->
     <defs>
      <path d="M 19.671875 64.796875 
L 19.671875 37.40625 
L 32.078125 37.40625 
Q 38.96875 37.40625 42.71875 40.96875 
Q 46.484375 44.53125 46.484375 51.125 
Q 46.484375 57.671875 42.71875 61.234375 
Q 38.96875 64.796875 32.078125 64.796875 
z
M 9.8125 72.90625 
L 32.078125 72.90625 
Q 44.34375 72.90625 50.609375 67.359375 
Q 56.890625 61.8125 56.890625 51.125 
Q 56.890625 40.328125 50.609375 34.8125 
Q 44.34375 29.296875 32.078125 29.296875 
L 19.671875 29.296875 
L 19.671875 0 
L 9.8125 0 
z
" id="DejaVuSans-80"/>
      <path d="M 30.609375 48.390625 
Q 23.390625 48.390625 19.1875 42.75 
Q 14.984375 37.109375 14.984375 27.296875 
Q 14.984375 17.484375 19.15625 11.84375 
Q 23.34375 6.203125 30.609375 6.203125 
Q 37.796875 6.203125 41.984375 11.859375 
Q 46.1875 17.53125 46.1875 27.296875 
Q 46.1875 37.015625 41.984375 42.703125 
Q 37.796875 48.390625 30.609375 48.390625 
z
M 30.609375 56 
Q 42.328125 56 49.015625 48.375 
Q 55.71875 40.765625 55.71875 27.296875 
Q 55.71875 13.875 49.015625 6.21875 
Q 42.328125 -1.421875 30.609375 -1.421875 
Q 18.84375 -1.421875 12.171875 6.21875 
Q 5.515625 13.875 5.515625 27.296875 
Q 5.515625 40.765625 12.171875 48.375 
Q 18.84375 56 30.609375 56 
z
" id="DejaVuSans-111"/>
      <path d="M 44.28125 53.078125 
L 44.28125 44.578125 
Q 40.484375 46.53125 36.375 47.5 
Q 32.28125 48.484375 27.875 48.484375 
Q 21.1875 48.484375 17.84375 46.4375 
Q 14.5 44.390625 14.5 40.28125 
Q 14.5 37.15625 16.890625 35.375 
Q 19.28125 33.59375 26.515625 31.984375 
L 29.59375 31.296875 
Q 39.15625 29.25 43.1875 25.515625 
Q 47.21875 21.78125 47.21875 15.09375 
Q 47.21875 7.46875 41.1875 3.015625 
Q 35.15625 -1.421875 24.609375 -1.421875 
Q 20.21875 -1.421875 15.453125 -0.5625 
Q 10.6875 0.296875 5.421875 2 
L 5.421875 11.28125 
Q 10.40625 8.6875 15.234375 7.390625 
Q 20.0625 6.109375 24.8125 6.109375 
Q 31.15625 6.109375 34.5625 8.28125 
Q 37.984375 10.453125 37.984375 14.40625 
Q 37.984375 18.0625 35.515625 20.015625 
Q 33.0625 21.96875 24.703125 23.78125 
L 21.578125 24.515625 
Q 13.234375 26.265625 9.515625 29.90625 
Q 5.8125 33.546875 5.8125 39.890625 
Q 5.8125 47.609375 11.28125 51.796875 
Q 16.75 56 26.8125 56 
Q 31.78125 56 36.171875 55.265625 
Q 40.578125 54.546875 44.28125 53.078125 
z
" id="DejaVuSans-115"/>
      <path d="M 9.421875 54.6875 
L 18.40625 54.6875 
L 18.40625 0 
L 9.421875 0 
z
M 9.421875 75.984375 
L 18.40625 75.984375 
L 18.40625 64.59375 
L 9.421875 64.59375 
z
" id="DejaVuSans-105"/>
      <path d="M 18.3125 70.21875 
L 18.3125 54.6875 
L 36.8125 54.6875 
L 36.8125 47.703125 
L 18.3125 47.703125 
L 18.3125 18.015625 
Q 18.3125 11.328125 20.140625 9.421875 
Q 21.96875 7.515625 27.59375 7.515625 
L 36.8125 7.515625 
L 36.8125 0 
L 27.59375 0 
Q 17.1875 0 13.234375 3.875 
Q 9.28125 7.765625 9.28125 18.015625 
L 9.28125 47.703125 
L 2.6875 47.703125 
L 2.6875 54.6875 
L 9.28125 54.6875 
L 9.28125 70.21875 
z
" id="DejaVuSans-116"/>
      <path d="M 54.890625 33.015625 
L 54.890625 0 
L 45.90625 0 
L 45.90625 32.71875 
Q 45.90625 40.484375 42.875 44.328125 
Q 39.84375 48.1875 33.796875 48.1875 
Q 26.515625 48.1875 22.3125 43.546875 
Q 18.109375 38.921875 18.109375 30.90625 
L 18.109375 0 
L 9.078125 0 
L 9.078125 54.6875 
L 18.109375 54.6875 
L 18.109375 46.1875 
Q 21.34375 51.125 25.703125 53.5625 
Q 30.078125 56 35.796875 56 
Q 45.21875 56 50.046875 50.171875 
Q 54.890625 44.34375 54.890625 33.015625 
z
" id="DejaVuSans-110"/>
      <path id="DejaVuSans-32"/>
      <path d="M 44.390625 34.1875 
Q 47.5625 33.109375 50.5625 29.59375 
Q 53.5625 26.078125 56.59375 19.921875 
L 66.609375 0 
L 56 0 
L 46.6875 18.703125 
Q 43.0625 26.03125 39.671875 28.421875 
Q 36.28125 30.8125 30.421875 30.8125 
L 19.671875 30.8125 
L 19.671875 0 
L 9.8125 0 
L 9.8125 72.90625 
L 32.078125 72.90625 
Q 44.578125 72.90625 50.734375 67.671875 
Q 56.890625 62.453125 56.890625 51.90625 
Q 56.890625 45.015625 53.6875 40.46875 
Q 50.484375 35.9375 44.390625 34.1875 
z
M 19.671875 64.796875 
L 19.671875 38.921875 
L 32.078125 38.921875 
Q 39.203125 38.921875 42.84375 42.21875 
Q 46.484375 45.515625 46.484375 51.90625 
Q 46.484375 58.296875 42.84375 61.546875 
Q 39.203125 64.796875 32.078125 64.796875 
z
" id="DejaVuSans-82"/>
      <path d="M 34.28125 27.484375 
Q 23.390625 27.484375 19.1875 25 
Q 14.984375 22.515625 14.984375 16.5 
Q 14.984375 11.71875 18.140625 8.90625 
Q 21.296875 6.109375 26.703125 6.109375 
Q 34.1875 6.109375 38.703125 11.40625 
Q 43.21875 16.703125 43.21875 25.484375 
L 43.21875 27.484375 
z
M 52.203125 31.203125 
L 52.203125 0 
L 43.21875 0 
L 43.21875 8.296875 
Q 40.140625 3.328125 35.546875 0.953125 
Q 30.953125 -1.421875 24.3125 -1.421875 
Q 15.921875 -1.421875 10.953125 3.296875 
Q 6 8.015625 6 15.921875 
Q 6 25.140625 12.171875 29.828125 
Q 18.359375 34.515625 30.609375 34.515625 
L 43.21875 34.515625 
L 43.21875 35.40625 
Q 43.21875 41.609375 39.140625 45 
Q 35.0625 48.390625 27.6875 48.390625 
Q 23 48.390625 18.546875 47.265625 
Q 14.109375 46.140625 10.015625 43.890625 
L 10.015625 52.203125 
Q 14.9375 54.109375 19.578125 55.046875 
Q 24.21875 56 28.609375 56 
Q 40.484375 56 46.34375 49.84375 
Q 52.203125 43.703125 52.203125 31.203125 
z
" id="DejaVuSans-97"/>
      <path d="M 45.40625 46.390625 
L 45.40625 75.984375 
L 54.390625 75.984375 
L 54.390625 0 
L 45.40625 0 
L 45.40625 8.203125 
Q 42.578125 3.328125 38.25 0.953125 
Q 33.9375 -1.421875 27.875 -1.421875 
Q 17.96875 -1.421875 11.734375 6.484375 
Q 5.515625 14.40625 5.515625 27.296875 
Q 5.515625 40.1875 11.734375 48.09375 
Q 17.96875 56 27.875 56 
Q 33.9375 56 38.25 53.625 
Q 42.578125 51.265625 45.40625 46.390625 
z
M 14.796875 27.296875 
Q 14.796875 17.390625 18.875 11.75 
Q 22.953125 6.109375 30.078125 6.109375 
Q 37.203125 6.109375 41.296875 11.75 
Q 45.40625 17.390625 45.40625 27.296875 
Q 45.40625 37.203125 41.296875 42.84375 
Q 37.203125 48.484375 30.078125 48.484375 
Q 22.953125 48.484375 18.875 42.84375 
Q 14.796875 37.203125 14.796875 27.296875 
z
" id="DejaVuSans-100"/>
     </defs>
     <g transform="translate(102.024844 357.832125)scale(0.3 -0.3)">
      <use xlink:href="#DejaVuSans-80"/>
      <use x="60.255859" xlink:href="#DejaVuSans-111"/>
      <use x="121.4375" xlink:href="#DejaVuSans-115"/>
      <use x="173.537109" xlink:href="#DejaVuSans-105"/>
      <use x="201.320312" xlink:href="#DejaVuSans-116"/>
      <use x="240.529297" xlink:href="#DejaVuSans-105"/>
      <use x="268.3125" xlink:href="#DejaVuSans-111"/>
      <use x="329.494141" xlink:href="#DejaVuSans-110"/>
      <use x="392.873047" xlink:href="#DejaVuSans-32"/>
      <use x="424.660156" xlink:href="#DejaVuSans-105"/>
      <use x="452.443359" xlink:href="#DejaVuSans-110"/>
      <use x="515.822266" xlink:href="#DejaVuSans-32"/>
      <use x="547.609375" xlink:href="#DejaVuSans-82"/>
      <use x="617.060547" xlink:href="#DejaVuSans-97"/>
      <use x="678.339844" xlink:href="#DejaVuSans-100"/>
      <use x="741.816406" xlink:href="#DejaVuSans-105"/>
      <use x="769.599609" xlink:href="#DejaVuSans-97"/>
      <use x="830.878906" xlink:href="#DejaVuSans-110"/>
     </g>
    </g>
   </g>
   <g id="matplotlib.axis_2">
    <g id="ytick_1">
     <g id="line2d_6">
      <defs>
       <path d="M 0 0 
L -3.5 0 
" id="m03e073193f" style="stroke:#000000;stroke-width:0.8;"/>
      </defs>
      <g>
       <use style="stroke:#000000;stroke-width:0.8;" x="57.6" xlink:href="#m03e073193f" y="307.584"/>
      </g>
     </g>
     <g id="text_7">
      <!-- 0.0 -->
      <defs>
       <path d="M 10.6875 12.40625 
L 21 12.40625 
L 21 0 
L 10.6875 0 
z
" id="DejaVuSans-46"/>
      </defs>
      <g transform="translate(23.564687 314.042672)scale(0.17 -0.17)">
       <use xlink:href="#DejaVuSans-48"/>
       <use x="63.623047" xlink:href="#DejaVuSans-46"/>
       <use x="95.410156" xlink:href="#DejaVuSans-48"/>
      </g>
     </g>
    </g>
    <g id="ytick_2">
     <g id="line2d_7">
      <g>
       <use style="stroke:#000000;stroke-width:0.8;" x="57.6" xlink:href="#m03e073193f" y="269.182186"/>
      </g>
     </g>
     <g id="text_8">
      <!-- 0.2 -->
      <g transform="translate(23.564687 275.640858)scale(0.17 -0.17)">
       <use xlink:href="#DejaVuSans-48"/>
       <use x="63.623047" xlink:href="#DejaVuSans-46"/>
       <use x="95.410156" xlink:href="#DejaVuSans-50"/>
      </g>
     </g>
    </g>
    <g id="ytick_3">
     <g id="line2d_8">
      <g>
       <use style="stroke:#000000;stroke-width:0.8;" x="57.6" xlink:href="#m03e073193f" y="230.780373"/>
      </g>
     </g>
     <g id="text_9">
      <!-- 0.4 -->
      <defs>
       <path d="M 37.796875 64.3125 
L 12.890625 25.390625 
L 37.796875 25.390625 
z
M 35.203125 72.90625 
L 47.609375 72.90625 
L 47.609375 25.390625 
L 58.015625 25.390625 
L 58.015625 17.1875 
L 47.609375 17.1875 
L 47.609375 0 
L 37.796875 0 
L 37.796875 17.1875 
L 4.890625 17.1875 
L 4.890625 26.703125 
z
" id="DejaVuSans-52"/>
      </defs>
      <g transform="translate(23.564687 237.239045)scale(0.17 -0.17)">
       <use xlink:href="#DejaVuSans-48"/>
       <use x="63.623047" xlink:href="#DejaVuSans-46"/>
       <use x="95.410156" xlink:href="#DejaVuSans-52"/>
      </g>
     </g>
    </g>
    <g id="ytick_4">
     <g id="line2d_9">
      <g>
       <use style="stroke:#000000;stroke-width:0.8;" x="57.6" xlink:href="#m03e073193f" y="192.378559"/>
      </g>
     </g>
     <g id="text_10">
      <!-- 0.6 -->
      <defs>
       <path d="M 33.015625 40.375 
Q 26.375 40.375 22.484375 35.828125 
Q 18.609375 31.296875 18.609375 23.390625 
Q 18.609375 15.53125 22.484375 10.953125 
Q 26.375 6.390625 33.015625 6.390625 
Q 39.65625 6.390625 43.53125 10.953125 
Q 47.40625 15.53125 47.40625 23.390625 
Q 47.40625 31.296875 43.53125 35.828125 
Q 39.65625 40.375 33.015625 40.375 
z
M 52.59375 71.296875 
L 52.59375 62.3125 
Q 48.875 64.0625 45.09375 64.984375 
Q 41.3125 65.921875 37.59375 65.921875 
Q 27.828125 65.921875 22.671875 59.328125 
Q 17.53125 52.734375 16.796875 39.40625 
Q 19.671875 43.65625 24.015625 45.921875 
Q 28.375 48.1875 33.59375 48.1875 
Q 44.578125 48.1875 50.953125 41.515625 
Q 57.328125 34.859375 57.328125 23.390625 
Q 57.328125 12.15625 50.6875 5.359375 
Q 44.046875 -1.421875 33.015625 -1.421875 
Q 20.359375 -1.421875 13.671875 8.265625 
Q 6.984375 17.96875 6.984375 36.375 
Q 6.984375 53.65625 15.1875 63.9375 
Q 23.390625 74.21875 37.203125 74.21875 
Q 40.921875 74.21875 44.703125 73.484375 
Q 48.484375 72.75 52.59375 71.296875 
z
" id="DejaVuSans-54"/>
      </defs>
      <g transform="translate(23.564687 198.837231)scale(0.17 -0.17)">
       <use xlink:href="#DejaVuSans-48"/>
       <use x="63.623047" xlink:href="#DejaVuSans-46"/>
       <use x="95.410156" xlink:href="#DejaVuSans-54"/>
      </g>
     </g>
    </g>
    <g id="ytick_5">
     <g id="line2d_10">
      <g>
       <use style="stroke:#000000;stroke-width:0.8;" x="57.6" xlink:href="#m03e073193f" y="153.976746"/>
      </g>
     </g>
     <g id="text_11">
      <!-- 0.8 -->
      <defs>
       <path d="M 31.78125 34.625 
Q 24.75 34.625 20.71875 30.859375 
Q 16.703125 27.09375 16.703125 20.515625 
Q 16.703125 13.921875 20.71875 10.15625 
Q 24.75 6.390625 31.78125 6.390625 
Q 38.8125 6.390625 42.859375 10.171875 
Q 46.921875 13.96875 46.921875 20.515625 
Q 46.921875 27.09375 42.890625 30.859375 
Q 38.875 34.625 31.78125 34.625 
z
M 21.921875 38.8125 
Q 15.578125 40.375 12.03125 44.71875 
Q 8.5 49.078125 8.5 55.328125 
Q 8.5 64.0625 14.71875 69.140625 
Q 20.953125 74.21875 31.78125 74.21875 
Q 42.671875 74.21875 48.875 69.140625 
Q 55.078125 64.0625 55.078125 55.328125 
Q 55.078125 49.078125 51.53125 44.71875 
Q 48 40.375 41.703125 38.8125 
Q 48.828125 37.15625 52.796875 32.3125 
Q 56.78125 27.484375 56.78125 20.515625 
Q 56.78125 9.90625 50.3125 4.234375 
Q 43.84375 -1.421875 31.78125 -1.421875 
Q 19.734375 -1.421875 13.25 4.234375 
Q 6.78125 9.90625 6.78125 20.515625 
Q 6.78125 27.484375 10.78125 32.3125 
Q 14.796875 37.15625 21.921875 38.8125 
z
M 18.3125 54.390625 
Q 18.3125 48.734375 21.84375 45.5625 
Q 25.390625 42.390625 31.78125 42.390625 
Q 38.140625 42.390625 41.71875 45.5625 
Q 45.3125 48.734375 45.3125 54.390625 
Q 45.3125 60.0625 41.71875 63.234375 
Q 38.140625 66.40625 31.78125 66.40625 
Q 25.390625 66.40625 21.84375 63.234375 
Q 18.3125 60.0625 18.3125 54.390625 
z
" id="DejaVuSans-56"/>
      </defs>
      <g transform="translate(23.564687 160.435417)scale(0.17 -0.17)">
       <use xlink:href="#DejaVuSans-48"/>
       <use x="63.623047" xlink:href="#DejaVuSans-46"/>
       <use x="95.410156" xlink:href="#DejaVuSans-56"/>
      </g>
     </g>
    </g>
    <g id="ytick_6">
     <g id="line2d_11">
      <g>
       <use style="stroke:#000000;stroke-width:0.8;" x="57.6" xlink:href="#m03e073193f" y="115.574932"/>
      </g>
     </g>
     <g id="text_12">
      <!-- 1.0 -->
      <g transform="translate(23.564687 122.033604)scale(0.17 -0.17)">
       <use xlink:href="#DejaVuSans-49"/>
       <use x="63.623047" xlink:href="#DejaVuSans-46"/>
       <use x="95.410156" xlink:href="#DejaVuSans-48"/>
      </g>
     </g>
    </g>
    <g id="ytick_7">
     <g id="line2d_12">
      <g>
       <use style="stroke:#000000;stroke-width:0.8;" x="57.6" xlink:href="#m03e073193f" y="77.173118"/>
      </g>
     </g>
     <g id="text_13">
      <!-- 1.2 -->
      <g transform="translate(23.564687 83.63179)scale(0.17 -0.17)">
       <use xlink:href="#DejaVuSans-49"/>
       <use x="63.623047" xlink:href="#DejaVuSans-46"/>
       <use x="95.410156" xlink:href="#DejaVuSans-50"/>
      </g>
     </g>
    </g>
    <g id="text_14">
     <!-- Density -->
     <defs>
      <path d="M 19.671875 64.796875 
L 19.671875 8.109375 
L 31.59375 8.109375 
Q 46.6875 8.109375 53.6875 14.9375 
Q 60.6875 21.78125 60.6875 36.53125 
Q 60.6875 51.171875 53.6875 57.984375 
Q 46.6875 64.796875 31.59375 64.796875 
z
M 9.8125 72.90625 
L 30.078125 72.90625 
Q 51.265625 72.90625 61.171875 64.09375 
Q 71.09375 55.28125 71.09375 36.53125 
Q 71.09375 17.671875 61.125 8.828125 
Q 51.171875 0 30.078125 0 
L 9.8125 0 
z
" id="DejaVuSans-68"/>
      <path d="M 56.203125 29.59375 
L 56.203125 25.203125 
L 14.890625 25.203125 
Q 15.484375 15.921875 20.484375 11.0625 
Q 25.484375 6.203125 34.421875 6.203125 
Q 39.59375 6.203125 44.453125 7.46875 
Q 49.3125 8.734375 54.109375 11.28125 
L 54.109375 2.78125 
Q 49.265625 0.734375 44.1875 -0.34375 
Q 39.109375 -1.421875 33.890625 -1.421875 
Q 20.796875 -1.421875 13.15625 6.1875 
Q 5.515625 13.8125 5.515625 26.8125 
Q 5.515625 40.234375 12.765625 48.109375 
Q 20.015625 56 32.328125 56 
Q 43.359375 56 49.78125 48.890625 
Q 56.203125 41.796875 56.203125 29.59375 
z
M 47.21875 32.234375 
Q 47.125 39.59375 43.09375 43.984375 
Q 39.0625 48.390625 32.421875 48.390625 
Q 24.90625 48.390625 20.390625 44.140625 
Q 15.875 39.890625 15.1875 32.171875 
z
" id="DejaVuSans-101"/>
      <path d="M 32.171875 -5.078125 
Q 28.375 -14.84375 24.75 -17.8125 
Q 21.140625 -20.796875 15.09375 -20.796875 
L 7.90625 -20.796875 
L 7.90625 -13.28125 
L 13.1875 -13.28125 
Q 16.890625 -13.28125 18.9375 -11.515625 
Q 21 -9.765625 23.484375 -3.21875 
L 25.09375 0.875 
L 2.984375 54.6875 
L 12.5 54.6875 
L 29.59375 11.921875 
L 46.6875 54.6875 
L 56.203125 54.6875 
z
" id="DejaVuSans-121"/>
     </defs>
     <g transform="translate(13.325625 231.553781)rotate(-90)scale(0.3 -0.3)">
      <use xlink:href="#DejaVuSans-68"/>
      <use x="77.001953" xlink:href="#DejaVuSans-101"/>
      <use x="138.525391" xlink:href="#DejaVuSans-110"/>
      <use x="201.904297" xlink:href="#DejaVuSans-115"/>
      <use x="254.003906" xlink:href="#DejaVuSans-105"/>
      <use x="281.787109" xlink:href="#DejaVuSans-116"/>
      <use x="320.996094" xlink:href="#DejaVuSans-121"/>
     </g>
    </g>
   </g>
   <g id="line2d_13">
    <path clip-path="url(#pcbea829306)" d="M 73.832727 307.584 
L 98.258385 307.475536 
L 98.550584 307.206499 
L 98.810316 306.613795 
L 99.091693 305.313476 
L 99.438003 302.495517 
L 100.498576 292.925852 
L 100.801597 292.217575 
L 101.093796 292.042147 
L 101.407639 292.106831 
L 101.732305 292.415729 
L 102.500679 293.239092 
L 102.771234 293.148804 
L 103.810163 292.543953 
L 104.102362 292.765477 
L 104.49196 293.391981 
L 105.217046 294.57398 
L 105.422668 294.554443 
L 105.628289 294.27198 
L 105.942132 293.374226 
L 107.078461 289.718419 
L 107.392304 289.410368 
L 107.641214 289.449533 
L 108.301367 289.714801 
L 108.539455 289.407445 
L 109.275363 288.306246 
L 109.600029 288.365904 
L 109.848939 288.309966 
L 110.05456 287.996653 
L 110.335937 287.095231 
L 110.941979 284.144817 
L 111.407332 282.448051 
L 111.667065 282.158041 
L 111.861864 282.23414 
L 112.565306 282.708682 
L 112.846682 282.447458 
L 113.420258 281.916194 
L 114.134522 281.763114 
L 114.534942 281.780833 
L 114.827141 282.040653 
L 115.281673 282.804983 
L 115.887715 284.241693 
L 116.46129 285.544441 
L 116.612801 285.518991 
L 116.775133 285.182072 
L 117.013221 284.076558 
L 117.511041 280.365039 
L 117.933106 278.051578 
L 118.14955 277.755533 
L 118.290238 277.891132 
L 118.517504 278.52908 
L 119.697122 282.45741 
L 119.978498 282.614406 
L 120.205764 282.485311 
L 120.476318 282.022799 
L 120.887561 280.787689 
L 121.861557 277.806927 
L 122.359378 275.933666 
L 122.792265 274.608827 
L 122.943775 274.587666 
L 122.954597 274.598009 
L 123.106108 274.910044 
L 123.376662 276.116907 
L 123.96106 278.725051 
L 124.101748 278.776267 
L 124.112571 278.767785 
L 124.264081 278.474959 
L 124.545458 277.284814 
L 125.140678 274.807129 
L 125.367943 274.611457 
L 125.530276 274.754531 
L 125.790008 275.350666 
L 126.569205 277.993872 
L 127.305113 279.989359 
L 127.68389 280.5016 
L 127.943622 280.52878 
L 128.268287 280.285225 
L 128.744463 279.98065 
L 129.447905 279.784703 
L 129.707637 279.198488 
L 130.724922 276.500311 
L 130.908899 276.574615 
L 131.136165 276.97128 
L 131.514941 278.191705 
L 132.045228 279.746052 
L 132.261671 279.855931 
L 132.45647 279.671022 
L 132.975935 279.100088 
L 133.127446 279.304291 
L 133.343889 280.050058 
L 133.863354 282.989242 
L 134.177197 284.041103 
L 134.317885 284.066984 
L 134.328707 284.056709 
L 134.480218 283.739156 
L 134.750772 282.527457 
L 135.529969 278.834296 
L 135.800524 278.506872 
L 136.02779 278.552499 
L 136.439032 278.948635 
L 136.969319 279.364779 
L 137.239874 279.324712 
L 137.499606 279.025098 
L 137.845916 278.209293 
L 138.722512 275.994578 
L 139.155399 275.626003 
L 140.30255 274.982041 
L 140.529816 275.210877 
L 140.789548 275.829407 
L 141.125036 277.286065 
L 142.315475 283.192391 
L 142.477808 283.171247 
L 142.672607 282.850295 
L 143.062206 281.663646 
L 143.819758 279.451957 
L 144.101135 279.180103 
L 144.317579 279.257772 
L 144.956087 279.651086 
L 145.161709 279.347786 
L 145.51884 278.31432 
L 146.070772 276.864706 
L 146.330504 276.673475 
L 146.503659 276.801661 
L 146.70928 277.293404 
L 146.990657 278.64847 
L 148.083697 284.74832 
L 148.267674 284.758031 
L 148.516584 284.460817 
L 149.39318 282.895631 
L 149.83689 281.41722 
L 150.388821 279.761419 
L 150.605265 279.631648 
L 150.778419 279.80682 
L 151.02733 280.462292 
L 151.460217 282.379424 
L 152.12037 285.110118 
L 152.434213 285.621351 
L 152.650656 285.636123 
L 152.856278 285.381018 
L 153.11601 284.638436 
L 153.516431 282.670012 
L 154.079184 280.107801 
L 154.295628 279.896518 
L 154.436316 280.071053 
L 154.663582 280.821721 
L 155.507712 284.16217 
L 155.529356 284.15311 
L 155.659222 283.928593 
L 155.864843 282.992044 
L 156.24362 279.949638 
L 156.828017 275.643189 
L 157.076928 275.078108 
L 157.206794 275.142201 
L 157.390771 275.585672 
L 157.823658 277.432108 
L 158.245723 278.774005 
L 158.505455 279.016339 
L 158.721899 278.942821 
L 159.057386 278.543056 
L 159.630962 277.891722 
L 159.825761 277.954024 
L 160.053027 278.318084 
L 160.485914 279.588439 
L 160.832224 280.293641 
L 160.994556 280.273122 
L 161.167711 279.955218 
L 161.470732 278.81589 
L 163.007482 271.347498 
L 163.570235 267.965856 
L 163.765034 267.720997 
L 163.8949 267.90013 
L 164.122166 268.730632 
L 164.674097 270.795151 
L 164.793141 270.752155 
L 164.944652 270.336426 
L 165.215206 268.785444 
L 165.756315 265.781997 
L 165.886181 265.680888 
L 165.918648 265.704424 
L 166.059336 266.01271 
L 166.351535 267.369884 
L 166.7736 269.015776 
L 166.935933 269.072179 
L 167.098265 268.801058 
L 167.704307 267.483891 
L 167.736774 267.502757 
L 167.888284 267.773021 
L 168.158839 268.85257 
L 168.689126 270.90149 
L 168.851458 270.963116 
L 168.86228 270.955082 
L 169.024613 270.665418 
L 169.316812 269.544581 
L 169.966143 267.045228 
L 170.215053 266.794743 
L 170.409852 266.892114 
L 170.702051 267.364994 
L 171.600292 268.953071 
L 171.870846 269.013276 
L 172.098112 268.813042 
L 172.379489 268.217525 
L 173.342662 265.878755 
L 173.504995 266.008095 
L 173.743083 266.555736 
L 174.165148 268.211586 
L 174.738724 270.256373 
L 174.933523 270.370795 
L 175.074211 270.1552 
L 175.290655 269.302119 
L 175.647787 266.762219 
L 176.286295 262.305359 
L 176.481094 262.014515 
L 176.491917 262.019528 
L 176.61096 262.221458 
L 176.816582 263.148925 
L 177.281936 266.668013 
L 177.714823 269.11546 
L 177.974555 269.585518 
L 178.14771 269.546072 
L 178.374976 269.193221 
L 178.721285 268.178925 
L 179.154173 266.152073 
L 180.268857 260.494533 
L 180.561056 260.087065 
L 180.788322 260.090333 
L 181.221209 260.420556 
L 181.491763 260.462174 
L 181.708207 260.236873 
L 182.11945 259.35388 
L 182.400826 259.012269 
L 182.552337 259.118777 
L 182.757958 259.631521 
L 183.190845 261.513756 
L 183.753599 263.567464 
L 184.294708 264.742299 
L 184.576084 264.943688 
L 184.770883 264.827716 
L 185.019794 264.368385 
L 185.355281 263.219852 
L 185.755702 260.964988 
L 186.567365 256.161779 
L 186.708053 256.078288 
L 186.729698 256.094163 
L 186.870386 256.3683 
L 187.151763 257.543058 
L 187.595472 259.18556 
L 187.725338 259.226617 
L 187.746983 259.20712 
L 187.887671 258.892653 
L 188.125759 257.671095 
L 189.153866 251.452763 
L 189.27291 251.565484 
L 189.478531 252.187925 
L 190.138684 254.41981 
L 190.26855 254.362793 
L 190.441705 253.937003 
L 190.744726 252.455833 
L 191.36159 249.484085 
L 191.588856 249.224491 
L 191.762011 249.327824 
L 192.422164 249.919599 
L 192.64943 249.656551 
L 193.212183 248.941448 
L 193.385338 249.055005 
L 193.634248 249.559094 
L 194.370156 251.222225 
L 194.510844 251.12757 
L 194.705644 250.642695 
L 195.030309 249.08462 
L 195.690462 245.938108 
L 196.047594 245.289813 
L 196.415548 244.607949 
L 197.1731 242.62744 
L 197.238034 242.683709 
L 197.389544 243.086575 
L 197.638454 244.520085 
L 198.46094 249.75341 
L 198.590806 249.807861 
L 198.61245 249.789896 
L 198.763961 249.462456 
L 199.023693 248.217509 
L 199.586446 244.085504 
L 200.484687 237.908723 
L 200.79853 237.024015 
L 200.982507 236.969638 
L 201.177307 237.200234 
L 201.64266 238.245857 
L 202.108014 239.031955 
L 202.432679 239.188388 
L 203.125299 239.370862 
L 203.493253 239.449535 
L 203.807096 239.22504 
L 204.099295 239.114869 
L 204.294094 239.306681 
L 204.791914 239.977027 
L 204.824381 239.947844 
L 204.965069 239.609945 
L 205.181513 238.352415 
L 205.581933 234.319677 
L 206.058109 230.334973 
L 206.285375 229.819734 
L 206.393597 229.915583 
L 206.566752 230.460097 
L 206.891417 232.390795 
L 207.887058 238.714689 
L 208.135968 239.142994 
L 208.265834 239.060794 
L 208.449811 238.596436 
L 208.796121 236.954288 
L 209.499562 233.713771 
L 210.029849 232.300124 
L 210.257115 232.157765 
L 210.408625 232.346404 
L 210.625069 233.049968 
L 211.047134 235.388783 
L 211.52331 237.566954 
L 211.761398 237.869872 
L 211.912908 237.749127 
L 212.140174 237.181026 
L 212.995126 234.7147 
L 213.168281 234.790442 
L 213.449658 235.249109 
L 213.817612 235.720644 
L 213.969122 235.633052 
L 214.153099 235.199117 
L 214.423654 233.883152 
L 214.964763 229.795206 
L 215.408472 227.226471 
L 215.64656 226.825135 
L 215.787248 226.926238 
L 216.025336 227.492963 
L 216.447401 228.423815 
L 216.577267 228.357601 
L 216.750422 227.900661 
L 217.08591 226.163954 
L 217.464686 224.642327 
L 217.58373 224.613334 
L 217.605374 224.635891 
L 217.756885 225.017007 
L 218.08155 226.658166 
L 218.42786 227.954706 
L 218.536082 227.976895 
L 218.557726 227.954671 
L 218.698414 227.59414 
L 218.936502 226.214626 
L 219.358567 222.189781 
L 220.787095 207.563532 
L 220.906139 207.502837 
L 220.927783 207.521507 
L 221.068471 207.842105 
L 221.339026 209.163214 
L 221.988357 212.335292 
L 222.269733 212.736351 
L 222.55111 212.748081 
L 222.843309 212.815685 
L 223.04893 213.140094 
L 223.330307 214.08518 
L 224.033749 216.621784 
L 224.163615 216.575837 
L 224.325947 216.178887 
L 224.596502 214.804279 
L 225.462276 210.019004 
L 225.592142 209.989037 
L 225.602964 209.999856 
L 225.743653 210.335638 
L 225.960096 211.561096 
L 226.317228 215.111702 
L 226.999026 221.797008 
L 227.237113 222.451195 
L 227.345335 222.387716 
L 227.507668 221.919468 
L 227.789045 220.28744 
L 228.405909 215.024831 
L 229.044417 210.294167 
L 229.325794 209.47863 
L 229.466482 209.490412 
L 229.628815 209.821007 
L 230.224035 211.525249 
L 230.288968 211.45447 
L 230.418834 210.983529 
L 230.613633 209.289914 
L 230.884188 204.710033 
L 231.338719 192.334627 
L 231.858184 179.98295 
L 232.096272 178.341991 
L 232.161205 178.401962 
L 232.172027 178.43128 
L 232.301893 179.168164 
L 232.572448 182.315013 
L 233.351645 191.677154 
L 233.957687 195.803402 
L 234.184952 196.403502 
L 234.195775 196.399807 
L 234.282352 196.217997 
L 234.42304 195.179804 
L 234.607017 191.798443 
L 234.834283 182.882313 
L 235.11566 161.782058 
L 235.537725 109.836224 
L 236.024723 57.730339 
L 236.165411 54.144 
L 236.197878 54.302524 
L 236.284455 56.53722 
L 236.45761 68.343045 
L 236.814742 112.63206 
L 237.377495 175.807154 
L 237.723805 192.905611 
L 238.091759 200.849013 
L 238.64369 207.753894 
L 238.925067 209.288411 
L 239.000822 209.330166 
L 239.044111 209.276131 
L 239.173977 208.771317 
L 239.39042 206.851501 
L 239.801663 200.708607 
L 240.321128 193.899981 
L 240.548394 193.090726 
L 240.634971 193.202563 
L 240.797304 193.956238 
L 241.121969 196.832956 
L 241.836233 202.991764 
L 242.474741 206.320261 
L 242.853518 207.399351 
L 243.069961 207.518687 
L 243.253938 207.34638 
L 243.935736 206.420355 
L 243.968202 206.448481 
L 244.130535 206.776579 
L 244.368623 207.850418 
L 244.769043 210.912289 
L 245.331797 214.880988 
L 245.494129 215.138555 
L 245.515774 215.12754 
L 245.623995 214.905469 
L 245.818795 213.836625 
L 246.273326 209.575428 
L 246.608814 207.556962 
L 246.749502 207.412338 
L 246.771146 207.425228 
L 246.911835 207.694044 
L 247.755965 209.823911 
L 248.08063 210.028834 
L 248.297074 210.542306 
L 248.67585 212.176443 
L 249.130381 213.796067 
L 249.346825 213.954366 
L 249.51998 213.801441 
L 249.877112 213.084457 
L 250.76453 210.885656 
L 251.089196 208.777119 
L 252.214702 200.447279 
L 252.312102 200.447345 
L 252.333746 200.474803 
L 252.474435 200.910785 
L 252.690878 202.488648 
L 253.026366 206.912726 
L 253.902962 219.163329 
L 254.173517 220.224181 
L 254.368316 220.316726 
L 254.747092 220.300252 
L 254.920247 220.709199 
L 255.158335 221.96035 
L 255.602044 225.80478 
L 256.208086 230.454522 
L 256.716729 232.649461 
L 257.084683 233.48425 
L 257.26866 233.519337 
L 257.430993 233.268519 
L 257.669081 232.387389 
L 258.037035 230.00451 
L 258.816232 224.864608 
L 259.043497 224.516267 
L 259.162541 224.646063 
L 259.346518 225.261881 
L 259.649539 227.208041 
L 261.186289 238.598371 
L 261.478488 239.169584 
L 261.619176 239.12483 
L 261.781509 238.773918 
L 262.030419 237.598365 
L 262.452484 234.28704 
L 263.036881 230.13358 
L 263.274969 229.629083 
L 263.404835 229.707359 
L 263.599635 230.201295 
L 264.735963 233.738051 
L 265.071451 234.827089 
L 265.493516 237.114552 
L 267.073554 246.325946 
L 267.593019 248.082279 
L 268.155772 249.202078 
L 268.523726 249.550551 
L 268.74017 249.497681 
L 268.978258 249.158844 
L 269.324567 248.185428 
L 270.504185 244.499184 
L 270.709806 244.42599 
L 270.872139 244.628531 
L 271.121049 245.389388 
L 271.835313 247.785535 
L 271.965179 247.697683 
L 272.149156 247.196826 
L 272.560399 245.183037 
L 272.895886 244.060075 
L 273.025752 244.048666 
L 273.036575 244.060512 
L 273.188085 244.431036 
L 273.45864 245.868764 
L 273.999749 248.695936 
L 274.140437 248.779656 
L 274.162081 248.761525 
L 274.30277 248.45936 
L 274.584146 247.173934 
L 275.211833 244.353692 
L 275.579787 243.648014 
L 275.817875 243.550973 
L 275.980207 243.72642 
L 276.185829 244.334771 
L 276.478028 246.012317 
L 277.711756 254.153435 
L 277.906555 254.283242 
L 278.047244 254.08197 
L 278.263687 253.304551 
L 279.183572 249.235362 
L 279.216039 249.2473 
L 279.356727 249.459124 
L 279.627282 250.394444 
L 280.211679 252.381032 
L 280.471412 252.600792 
L 280.7095 252.511072 
L 281.012521 252.133295 
L 281.304719 251.380247 
L 281.629385 249.828927 
L 282.711603 243.978691 
L 282.938868 243.793288 
L 283.101201 243.931833 
L 283.328467 244.483042 
L 283.64231 245.921935 
L 284.021086 248.822706 
L 284.63795 255.727983 
L 285.179059 260.652687 
L 285.547014 262.240168 
L 285.839212 262.680125 
L 286.088122 262.69177 
L 286.510187 262.658404 
L 286.704987 262.947431 
L 286.964719 263.827836 
L 287.992826 267.99994 
L 288.003648 267.997154 
L 288.144336 267.824797 
L 288.36078 267.098553 
L 288.782845 264.668847 
L 289.237377 262.5101 
L 289.442998 262.293566 
L 289.572864 262.454769 
L 289.789308 263.182362 
L 290.20055 265.560752 
L 291.012214 270.121941 
L 291.477568 271.544969 
L 291.845522 272.053619 
L 292.191831 272.173079 
L 293.642003 272.127094 
L 294.453667 271.557266 
L 294.67011 271.909279 
L 295.01642 273.000502 
L 295.784795 275.414877 
L 296.120282 275.830362 
L 296.315082 275.798558 
L 296.509881 275.508129 
L 296.780435 274.628357 
L 297.234967 272.205594 
L 297.765254 269.744906 
L 298.014164 269.407823 
L 298.165674 269.514415 
L 298.382118 270.027252 
L 298.815005 271.802891 
L 299.258714 273.263171 
L 299.475158 273.403069 
L 299.669957 273.228051 
L 300.0812 272.853636 
L 300.23271 273.047556 
L 300.459976 273.801685 
L 301.098485 276.103045 
L 301.217529 276.0295 
L 301.390683 275.556761 
L 301.791104 273.56946 
L 302.16988 272.219902 
L 302.353857 272.123479 
L 302.51619 272.349092 
L 302.797567 273.241891 
L 303.403609 275.153329 
L 303.576764 275.16901 
L 303.739096 274.882075 
L 304.020473 273.827277 
L 304.756381 270.940133 
L 305.741199 268.487959 
L 306.195731 267.345699 
L 306.422997 267.245628 
L 306.606974 267.429116 
L 306.866706 268.054951 
L 307.267127 269.696002 
L 309.106897 278.120225 
L 309.453207 278.77294 
L 309.691295 278.837498 
L 309.91856 278.643123 
L 310.221581 278.037157 
L 310.622002 276.659857 
L 311.412021 272.868928 
L 311.85573 271.338816 
L 312.072174 271.153918 
L 312.223685 271.293017 
L 312.461772 271.889953 
L 313.100281 273.603957 
L 313.262614 273.567764 
L 313.468235 273.209702 
L 314.074277 272.057199 
L 314.247432 272.148304 
L 314.58292 272.69736 
L 314.875118 272.9633 
L 315.059095 272.839709 
L 315.665137 272.165675 
L 315.697604 272.197182 
L 315.870759 272.566021 
L 316.152135 273.810727 
L 317.753818 282.040984 
L 317.991906 282.393974 
L 318.121772 282.279821 
L 318.305749 281.71582 
L 318.630414 279.813172 
L 319.236456 276.379801 
L 319.4529 276.097103 
L 319.582766 276.221993 
L 319.79921 276.841069 
L 321.011294 281.081997 
L 321.63898 281.693318 
L 321.974468 281.796535 
L 322.255844 281.634857 
L 323.305596 280.762209 
L 323.597795 280.994081 
L 324.247125 281.568142 
L 324.452747 281.426025 
L 324.755768 280.869483 
L 325.199477 280.146544 
L 325.36181 280.204043 
L 325.556609 280.591444 
L 325.881274 281.853269 
L 326.790337 285.538677 
L 327.374735 287.88956 
L 327.872555 289.681723 
L 328.056532 289.788619 
L 328.208043 289.580209 
L 328.478597 288.700519 
L 329.041351 286.894897 
L 329.290261 286.723111 
L 329.993702 286.579259 
L 330.361656 286.409716 
L 330.534811 286.591042 
L 330.762077 287.216702 
L 331.151675 289.095568 
L 331.649496 291.167009 
L 331.833473 291.290716 
L 331.974161 291.064209 
L 332.201427 290.138414 
L 332.688425 286.873726 
L 333.099668 284.834288 
L 333.316111 284.555058 
L 333.4568 284.666991 
L 333.694888 285.232061 
L 334.506551 287.352609 
L 335.14506 288.030896 
L 335.913434 288.746474 
L 336.649342 289.05714 
L 336.930719 289.735413 
L 337.699094 291.812787 
L 337.861426 291.751939 
L 338.088692 291.348286 
L 338.608157 290.418958 
L 338.770489 290.480891 
L 338.997755 290.889825 
L 339.679552 292.267231 
L 339.906818 292.247316 
L 340.372172 292.129368 
L 340.566971 292.422797 
L 340.826703 293.312505 
L 341.248768 295.722776 
L 341.984677 299.786871 
L 342.276875 300.351905 
L 342.460852 300.334902 
L 342.69894 300.01239 
L 344.224868 297.01795 
L 344.841732 295.395113 
L 345.047353 295.323912 
L 345.242152 295.534864 
L 345.620929 296.391756 
L 346.053816 297.155492 
L 346.335193 297.251981 
L 347.092745 297.273092 
L 347.428233 297.711707 
L 348.467162 299.24096 
L 349.54938 299.938854 
L 349.874045 299.972697 
L 350.144599 299.757526 
L 351.692171 297.716681 
L 352.157525 296.420046 
L 352.57959 295.516777 
L 352.774389 295.48477 
L 352.969188 295.733944 
L 353.293854 296.605695 
L 354.66827 300.665751 
L 355.003758 301.039203 
L 355.306779 301.055438 
L 355.750488 301.081281 
L 356.042687 301.385093 
L 356.886817 302.415615 
L 357.168194 302.35035 
L 357.958213 302.006548 
L 358.217945 302.267675 
L 358.683299 303.146772 
L 359.202763 303.95288 
L 359.538251 304.110689 
L 359.906205 304.021998 
L 360.588002 303.840326 
L 361.020889 304.01538 
L 362.276262 304.645279 
L 362.76326 304.551426 
L 363.445057 304.443157 
L 364.018633 304.362871 
L 364.440698 304.013296 
L 364.938518 303.66237 
L 365.209073 303.731116 
L 365.577027 304.105693 
L 366.367046 304.922723 
L 368.336682 306.052784 
L 368.618059 305.829284 
L 369.732743 304.675061 
L 370.057409 304.82922 
L 371.139627 305.54267 
L 371.410181 305.258288 
L 372.070334 304.483848 
L 372.265133 304.620461 
L 372.535688 305.152596 
L 373.488039 307.263924 
L 373.877638 307.508012 
L 374.48368 307.579997 
L 379.786548 307.584 
L 398.487273 307.584 
L 398.487273 307.584 
" style="fill:none;stroke:#ff7f0e;stroke-linecap:square;stroke-width:1.5;"/>
   </g>
   <g id="patch_103">
    <path d="M 57.6 307.584 
L 57.6 41.472 
" style="fill:none;stroke:#000000;stroke-linecap:square;stroke-linejoin:miter;stroke-width:0.8;"/>
   </g>
   <g id="patch_104">
    <path d="M 414.72 307.584 
L 414.72 41.472 
" style="fill:none;stroke:#000000;stroke-linecap:square;stroke-linejoin:miter;stroke-width:0.8;"/>
   </g>
   <g id="patch_105">
    <path d="M 57.6 307.584 
L 414.72 307.584 
" style="fill:none;stroke:#000000;stroke-linecap:square;stroke-linejoin:miter;stroke-width:0.8;"/>
   </g>
   <g id="patch_106">
    <path d="M 57.6 41.472 
L 414.72 41.472 
" style="fill:none;stroke:#000000;stroke-linecap:square;stroke-linejoin:miter;stroke-width:0.8;"/>
   </g>
  </g>
 </g>
 <defs>
  <clipPath id="pcbea829306">
   <rect height="266.112" width="357.12" x="57.6" y="41.472"/>
  </clipPath>
 </defs>
</svg>
