<?xml version="1.0" encoding="utf-8" standalone="no"?>
<!DOCTYPE svg PUBLIC "-//W3C//DTD SVG 1.1//EN"
  "http://www.w3.org/Graphics/SVG/1.1/DTD/svg11.dtd">
<!-- Created with matplotlib (https://matplotlib.org/) -->
<svg height="345.6pt" version="1.1" viewBox="0 0 460.8 345.6" width="460.8pt" xmlns="http://www.w3.org/2000/svg" xmlns:xlink="http://www.w3.org/1999/xlink">
 <defs>
  <style type="text/css">
*{stroke-linecap:butt;stroke-linejoin:round;}
  </style>
 </defs>
 <g id="figure_1">
  <g id="patch_1">
   <path d="M 0 345.6 
L 460.8 345.6 
L 460.8 0 
L 0 0 
z
" style="fill:#ffffff;"/>
  </g>
  <g id="axes_1">
   <g id="patch_2">
    <path d="M 57.6 307.584 
L 414.72 307.584 
L 414.72 41.472 
L 57.6 41.472 
z
" style="fill:#ffffff;"/>
   </g>
   <g id="patch_3">
    <path clip-path="url(#pf281106455)" d="M 100.154785 307.584 
L 102.874843 307.584 
L 102.874843 286.551077 
L 100.154785 286.551077 
z
" style="fill:#1f77b4;"/>
   </g>
   <g id="patch_4">
    <path clip-path="url(#pf281106455)" d="M 102.874828 307.584 
L 105.594886 307.584 
L 105.594886 290.231838 
L 102.874828 290.231838 
z
" style="fill:#1f77b4;"/>
   </g>
   <g id="patch_5">
    <path clip-path="url(#pf281106455)" d="M 105.594886 307.584 
L 108.314952 307.584 
L 108.314952 286.814047 
L 105.594886 286.814047 
z
" style="fill:#1f77b4;"/>
   </g>
   <g id="patch_6">
    <path clip-path="url(#pf281106455)" d="M 108.314952 307.584 
L 111.035011 307.584 
L 111.035011 283.133227 
L 108.314952 283.133227 
z
" style="fill:#1f77b4;"/>
   </g>
   <g id="patch_7">
    <path clip-path="url(#pf281106455)" d="M 111.035003 307.584 
L 113.755069 307.584 
L 113.755069 278.926724 
L 111.035003 278.926724 
z
" style="fill:#1f77b4;"/>
   </g>
   <g id="patch_8">
    <path clip-path="url(#pf281106455)" d="M 113.755077 307.584 
L 116.475135 307.584 
L 116.475135 277.086261 
L 113.755077 277.086261 
z
" style="fill:#1f77b4;"/>
   </g>
   <g id="patch_9">
    <path clip-path="url(#pf281106455)" d="M 116.475135 307.584 
L 119.195193 307.584 
L 119.195193 272.353854 
L 116.475135 272.353854 
z
" style="fill:#1f77b4;"/>
   </g>
   <g id="patch_10">
    <path clip-path="url(#pf281106455)" d="M 119.195193 307.584 
L 121.915259 307.584 
L 121.915259 270.513578 
L 119.195193 270.513578 
z
" style="fill:#1f77b4;"/>
   </g>
   <g id="patch_11">
    <path clip-path="url(#pf281106455)" d="M 121.915259 307.584 
L 124.635318 307.584 
L 124.635318 271.039296 
L 121.915259 271.039296 
z
" style="fill:#1f77b4;"/>
   </g>
   <g id="patch_12">
    <path clip-path="url(#pf281106455)" d="M 124.635318 307.584 
L 127.355376 307.584 
L 127.355376 269.198915 
L 124.635318 269.198915 
z
" style="fill:#1f77b4;"/>
   </g>
   <g id="patch_13">
    <path clip-path="url(#pf281106455)" d="M 127.355368 307.584 
L 130.075435 307.584 
L 130.075435 275.508883 
L 127.355368 275.508883 
z
" style="fill:#1f77b4;"/>
   </g>
   <g id="patch_14">
    <path clip-path="url(#pf281106455)" d="M 130.075442 307.584 
L 132.795501 307.584 
L 132.795501 274.457146 
L 130.075442 274.457146 
z
" style="fill:#1f77b4;"/>
   </g>
   <g id="patch_15">
    <path clip-path="url(#pf281106455)" d="M 132.795501 307.584 
L 135.515559 307.584 
L 135.515559 273.142588 
L 132.795501 273.142588 
z
" style="fill:#1f77b4;"/>
   </g>
   <g id="patch_16">
    <path clip-path="url(#pf281106455)" d="M 135.515559 307.584 
L 138.235617 307.584 
L 138.235617 277.874996 
L 135.515559 277.874996 
z
" style="fill:#1f77b4;"/>
   </g>
   <g id="patch_17">
    <path clip-path="url(#pf281106455)" d="M 138.235617 307.584 
L 140.955683 307.584 
L 140.955683 272.879775 
L 138.235617 272.879775 
z
" style="fill:#1f77b4;"/>
   </g>
   <g id="patch_18">
    <path clip-path="url(#pf281106455)" d="M 140.955683 307.584 
L 143.675742 307.584 
L 143.675742 277.874996 
L 140.955683 277.874996 
z
" style="fill:#1f77b4;"/>
   </g>
   <g id="patch_19">
    <path clip-path="url(#pf281106455)" d="M 143.675742 307.584 
L 146.3958 307.584 
L 146.3958 272.879677 
L 143.675742 272.879677 
z
" style="fill:#1f77b4;"/>
   </g>
   <g id="patch_20">
    <path clip-path="url(#pf281106455)" d="M 146.395792 307.584 
L 149.115858 307.584 
L 149.115858 279.715456 
L 146.395792 279.715456 
z
" style="fill:#1f77b4;"/>
   </g>
   <g id="patch_21">
    <path clip-path="url(#pf281106455)" d="M 149.115866 307.584 
L 151.835925 307.584 
L 151.835925 277.349173 
L 149.115866 277.349173 
z
" style="fill:#1f77b4;"/>
   </g>
   <g id="patch_22">
    <path clip-path="url(#pf281106455)" d="M 151.835925 307.584 
L 154.555983 307.584 
L 154.555983 280.504111 
L 151.835925 280.504111 
z
" style="fill:#1f77b4;"/>
   </g>
   <g id="patch_23">
    <path clip-path="url(#pf281106455)" d="M 154.555983 307.584 
L 157.276049 307.584 
L 157.276049 278.926724 
L 154.555983 278.926724 
z
" style="fill:#1f77b4;"/>
   </g>
   <g id="patch_24">
    <path clip-path="url(#pf281106455)" d="M 157.276049 307.584 
L 159.996107 307.584 
L 159.996107 274.457146 
L 157.276049 274.457146 
z
" style="fill:#1f77b4;"/>
   </g>
   <g id="patch_25">
    <path clip-path="url(#pf281106455)" d="M 159.996107 307.584 
L 162.716166 307.584 
L 162.716166 277.874996 
L 159.996107 277.874996 
z
" style="fill:#1f77b4;"/>
   </g>
   <g id="patch_26">
    <path clip-path="url(#pf281106455)" d="M 162.716158 307.584 
L 165.436224 307.584 
L 165.436224 267.095738 
L 162.716158 267.095738 
z
" style="fill:#1f77b4;"/>
   </g>
   <g id="patch_27">
    <path clip-path="url(#pf281106455)" d="M 165.436232 307.584 
L 168.15629 307.584 
L 168.15629 265.518154 
L 165.436232 265.518154 
z
" style="fill:#1f77b4;"/>
   </g>
   <g id="patch_28">
    <path clip-path="url(#pf281106455)" d="M 168.15629 307.584 
L 170.876349 307.584 
L 170.876349 268.673092 
L 168.15629 268.673092 
z
" style="fill:#1f77b4;"/>
   </g>
   <g id="patch_29">
    <path clip-path="url(#pf281106455)" d="M 170.876349 307.584 
L 173.596411 307.584 
L 173.596411 267.621503 
L 170.876349 267.621503 
z
" style="fill:#1f77b4;"/>
   </g>
   <g id="patch_30">
    <path clip-path="url(#pf281106455)" d="M 173.596415 307.584 
L 176.316477 307.584 
L 176.316477 269.461881 
L 173.596415 269.461881 
z
" style="fill:#1f77b4;"/>
   </g>
   <g id="patch_31">
    <path clip-path="url(#pf281106455)" d="M 176.316473 307.584 
L 179.036535 307.584 
L 179.036535 264.992391 
L 176.316473 264.992391 
z
" style="fill:#1f77b4;"/>
   </g>
   <g id="patch_32">
    <path clip-path="url(#pf281106455)" d="M 179.036535 307.584 
L 181.756594 307.584 
L 181.756594 259.997011 
L 179.036535 259.997011 
z
" style="fill:#1f77b4;"/>
   </g>
   <g id="patch_33">
    <path clip-path="url(#pf281106455)" d="M 181.756597 307.584 
L 184.47666 307.584 
L 184.47666 263.414924 
L 181.756597 263.414924 
z
" style="fill:#1f77b4;"/>
   </g>
   <g id="patch_34">
    <path clip-path="url(#pf281106455)" d="M 184.476656 307.584 
L 187.196714 307.584 
L 187.196714 261.574481 
L 184.476656 261.574481 
z
" style="fill:#1f77b4;"/>
   </g>
   <g id="patch_35">
    <path clip-path="url(#pf281106455)" d="M 187.196714 307.584 
L 189.916776 307.584 
L 189.916776 258.945434 
L 187.196714 258.945434 
z
" style="fill:#1f77b4;"/>
   </g>
   <g id="patch_36">
    <path clip-path="url(#pf281106455)" d="M 189.91678 307.584 
L 192.636842 307.584 
L 192.636842 254.475944 
L 189.91678 254.475944 
z
" style="fill:#1f77b4;"/>
   </g>
   <g id="patch_37">
    <path clip-path="url(#pf281106455)" d="M 192.636839 307.584 
L 195.356897 307.584 
L 195.356897 250.006373 
L 192.636839 250.006373 
z
" style="fill:#1f77b4;"/>
   </g>
   <g id="patch_38">
    <path clip-path="url(#pf281106455)" d="M 195.356897 307.584 
L 198.076959 307.584 
L 198.076959 244.48532 
L 195.356897 244.48532 
z
" style="fill:#1f77b4;"/>
   </g>
   <g id="patch_39">
    <path clip-path="url(#pf281106455)" d="M 198.076963 307.584 
L 200.797025 307.584 
L 200.797025 242.644942 
L 198.076963 242.644942 
z
" style="fill:#1f77b4;"/>
   </g>
   <g id="patch_40">
    <path clip-path="url(#pf281106455)" d="M 200.797021 307.584 
L 203.51708 307.584 
L 203.51708 240.015734 
L 200.797021 240.015734 
z
" style="fill:#1f77b4;"/>
   </g>
   <g id="patch_41">
    <path clip-path="url(#pf281106455)" d="M 203.51708 307.584 
L 206.237142 307.584 
L 206.237142 240.01583 
L 203.51708 240.01583 
z
" style="fill:#1f77b4;"/>
   </g>
   <g id="patch_42">
    <path clip-path="url(#pf281106455)" d="M 206.237142 307.584 
L 208.957202 307.584 
L 208.957202 240.015782 
L 206.237142 240.015782 
z
" style="fill:#1f77b4;"/>
   </g>
   <g id="patch_43">
    <path clip-path="url(#pf281106455)" d="M 208.957204 307.584 
L 211.677264 307.584 
L 211.677264 235.283378 
L 208.957204 235.283378 
z
" style="fill:#1f77b4;"/>
   </g>
   <g id="patch_44">
    <path clip-path="url(#pf281106455)" d="M 211.677262 307.584 
L 214.397325 307.584 
L 214.397325 243.433676 
L 211.677262 243.433676 
z
" style="fill:#1f77b4;"/>
   </g>
   <g id="patch_45">
    <path clip-path="url(#pf281106455)" d="M 214.397325 307.584 
L 217.117385 307.584 
L 217.117385 236.072112 
L 214.397325 236.072112 
z
" style="fill:#1f77b4;"/>
   </g>
   <g id="patch_46">
    <path clip-path="url(#pf281106455)" d="M 217.117387 307.584 
L 219.837447 307.584 
L 219.837447 228.710594 
L 217.117387 228.710594 
z
" style="fill:#1f77b4;"/>
   </g>
   <g id="patch_47">
    <path clip-path="url(#pf281106455)" d="M 219.837445 307.584 
L 222.557507 307.584 
L 222.557507 218.982906 
L 219.837445 218.982906 
z
" style="fill:#1f77b4;"/>
   </g>
   <g id="patch_48">
    <path clip-path="url(#pf281106455)" d="M 222.557506 307.584 
L 225.277567 307.584 
L 225.277567 219.508728 
L 222.557506 219.508728 
z
" style="fill:#1f77b4;"/>
   </g>
   <g id="patch_49">
    <path clip-path="url(#pf281106455)" d="M 225.277568 307.584 
L 227.997628 307.584 
L 227.997628 222.13781 
L 225.277568 222.13781 
z
" style="fill:#1f77b4;"/>
   </g>
   <g id="patch_50">
    <path clip-path="url(#pf281106455)" d="M 227.997628 307.584 
L 230.717689 307.584 
L 230.717689 212.935947 
L 227.997628 212.935947 
z
" style="fill:#1f77b4;"/>
   </g>
   <g id="patch_51">
    <path clip-path="url(#pf281106455)" d="M 230.717689 307.584 
L 233.43775 307.584 
L 233.43775 189.536824 
L 230.717689 189.536824 
z
" style="fill:#1f77b4;"/>
   </g>
   <g id="patch_52">
    <path clip-path="url(#pf281106455)" d="M 233.43775 307.584 
L 236.157811 307.584 
L 236.157811 205.574413 
L 233.43775 205.574413 
z
" style="fill:#1f77b4;"/>
   </g>
   <g id="patch_53">
    <path clip-path="url(#pf281106455)" d="M 236.157811 307.584 
L 238.877872 307.584 
L 238.877872 111.977988 
L 236.157811 111.977988 
z
" style="fill:#1f77b4;"/>
   </g>
   <g id="patch_54">
    <path clip-path="url(#pf281106455)" d="M 238.877872 307.584 
L 241.597932 307.584 
L 241.597932 201.367832 
L 238.877872 201.367832 
z
" style="fill:#1f77b4;"/>
   </g>
   <g id="patch_55">
    <path clip-path="url(#pf281106455)" d="M 241.597932 307.584 
L 244.317994 307.584 
L 244.317994 204.259875 
L 241.597932 204.259875 
z
" style="fill:#1f77b4;"/>
   </g>
   <g id="patch_56">
    <path clip-path="url(#pf281106455)" d="M 244.317994 307.584 
L 247.038054 307.584 
L 247.038054 213.198824 
L 244.317994 213.198824 
z
" style="fill:#1f77b4;"/>
   </g>
   <g id="patch_57">
    <path clip-path="url(#pf281106455)" d="M 247.038054 307.584 
L 249.758115 307.584 
L 249.758115 213.198858 
L 247.038054 213.198858 
z
" style="fill:#1f77b4;"/>
   </g>
   <g id="patch_58">
    <path clip-path="url(#pf281106455)" d="M 249.758114 307.584 
L 252.478176 307.584 
L 252.478176 206.626076 
L 249.758114 206.626076 
z
" style="fill:#1f77b4;"/>
   </g>
   <g id="patch_59">
    <path clip-path="url(#pf281106455)" d="M 252.478176 307.584 
L 255.198237 307.584 
L 255.198237 211.884268 
L 252.478176 211.884268 
z
" style="fill:#1f77b4;"/>
   </g>
   <g id="patch_60">
    <path clip-path="url(#pf281106455)" d="M 255.198239 307.584 
L 257.918299 307.584 
L 257.918299 226.607303 
L 255.198239 226.607303 
z
" style="fill:#1f77b4;"/>
   </g>
   <g id="patch_61">
    <path clip-path="url(#pf281106455)" d="M 257.918297 307.584 
L 260.638359 307.584 
L 260.638359 226.607361 
L 257.918297 226.607361 
z
" style="fill:#1f77b4;"/>
   </g>
   <g id="patch_62">
    <path clip-path="url(#pf281106455)" d="M 260.638359 307.584 
L 263.35842 307.584 
L 263.35842 233.968821 
L 260.638359 233.968821 
z
" style="fill:#1f77b4;"/>
   </g>
   <g id="patch_63">
    <path clip-path="url(#pf281106455)" d="M 263.358421 307.584 
L 266.078482 307.584 
L 266.078482 231.339708 
L 263.358421 231.339708 
z
" style="fill:#1f77b4;"/>
   </g>
   <g id="patch_64">
    <path clip-path="url(#pf281106455)" d="M 266.07848 307.584 
L 268.798542 307.584 
L 268.798542 245.799876 
L 266.07848 245.799876 
z
" style="fill:#1f77b4;"/>
   </g>
   <g id="patch_65">
    <path clip-path="url(#pf281106455)" d="M 268.798542 307.584 
L 271.5186 307.584 
L 271.5186 239.752823 
L 268.798542 239.752823 
z
" style="fill:#1f77b4;"/>
   </g>
   <g id="patch_66">
    <path clip-path="url(#pf281106455)" d="M 271.5186 307.584 
L 274.238663 307.584 
L 274.238663 246.851521 
L 271.5186 246.851521 
z
" style="fill:#1f77b4;"/>
   </g>
   <g id="patch_67">
    <path clip-path="url(#pf281106455)" d="M 274.238666 307.584 
L 276.958729 307.584 
L 276.958729 245.536965 
L 274.238666 245.536965 
z
" style="fill:#1f77b4;"/>
   </g>
   <g id="patch_68">
    <path clip-path="url(#pf281106455)" d="M 276.958725 307.584 
L 279.678783 307.584 
L 279.678783 252.635488 
L 276.958725 252.635488 
z
" style="fill:#1f77b4;"/>
   </g>
   <g id="patch_69">
    <path clip-path="url(#pf281106455)" d="M 279.678783 307.584 
L 282.398845 307.584 
L 282.398845 251.058099 
L 279.678783 251.058099 
z
" style="fill:#1f77b4;"/>
   </g>
   <g id="patch_70">
    <path clip-path="url(#pf281106455)" d="M 282.398849 307.584 
L 285.118911 307.584 
L 285.118911 251.846833 
L 282.398849 251.846833 
z
" style="fill:#1f77b4;"/>
   </g>
   <g id="patch_71">
    <path clip-path="url(#pf281106455)" d="M 285.118908 307.584 
L 287.838966 307.584 
L 287.838966 263.940684 
L 285.118908 263.940684 
z
" style="fill:#1f77b4;"/>
   </g>
   <g id="patch_72">
    <path clip-path="url(#pf281106455)" d="M 287.838966 307.584 
L 290.559028 307.584 
L 290.559028 268.147325 
L 287.838966 268.147325 
z
" style="fill:#1f77b4;"/>
   </g>
   <g id="patch_73">
    <path clip-path="url(#pf281106455)" d="M 290.559028 307.584 
L 293.279087 307.584 
L 293.279087 273.668411 
L 290.559028 273.668411 
z
" style="fill:#1f77b4;"/>
   </g>
   <g id="patch_74">
    <path clip-path="url(#pf281106455)" d="M 293.27909 307.584 
L 295.999153 307.584 
L 295.999153 275.245927 
L 293.27909 275.245927 
z
" style="fill:#1f77b4;"/>
   </g>
   <g id="patch_75">
    <path clip-path="url(#pf281106455)" d="M 295.999149 307.584 
L 298.719211 307.584 
L 298.719211 271.302259 
L 295.999149 271.302259 
z
" style="fill:#1f77b4;"/>
   </g>
   <g id="patch_76">
    <path clip-path="url(#pf281106455)" d="M 298.719215 307.584 
L 301.439273 307.584 
L 301.439273 278.663772 
L 298.719215 278.663772 
z
" style="fill:#1f77b4;"/>
   </g>
   <g id="patch_77">
    <path clip-path="url(#pf281106455)" d="M 301.439273 307.584 
L 304.159332 307.584 
L 304.159332 275.245881 
L 301.439273 275.245881 
z
" style="fill:#1f77b4;"/>
   </g>
   <g id="patch_78">
    <path clip-path="url(#pf281106455)" d="M 304.159332 307.584 
L 306.87939 307.584 
L 306.87939 271.565119 
L 304.159332 271.565119 
z
" style="fill:#1f77b4;"/>
   </g>
   <g id="patch_79">
    <path clip-path="url(#pf281106455)" d="M 306.87939 307.584 
L 309.599456 307.584 
L 309.599456 277.086348 
L 306.87939 277.086348 
z
" style="fill:#1f77b4;"/>
   </g>
   <g id="patch_80">
    <path clip-path="url(#pf281106455)" d="M 309.599456 307.584 
L 312.319514 307.584 
L 312.319514 277.349173 
L 309.599456 277.349173 
z
" style="fill:#1f77b4;"/>
   </g>
   <g id="patch_81">
    <path clip-path="url(#pf281106455)" d="M 312.319514 307.584 
L 315.039573 307.584 
L 315.039573 275.771704 
L 312.319514 275.771704 
z
" style="fill:#1f77b4;"/>
   </g>
   <g id="patch_82">
    <path clip-path="url(#pf281106455)" d="M 315.039565 307.584 
L 317.759631 307.584 
L 317.759631 277.61217 
L 315.039565 277.61217 
z
" style="fill:#1f77b4;"/>
   </g>
   <g id="patch_83">
    <path clip-path="url(#pf281106455)" d="M 317.759639 307.584 
L 320.479697 307.584 
L 320.479697 281.818669 
L 317.759639 281.818669 
z
" style="fill:#1f77b4;"/>
   </g>
   <g id="patch_84">
    <path clip-path="url(#pf281106455)" d="M 320.479697 307.584 
L 323.199755 307.584 
L 323.199755 283.133227 
L 320.479697 283.133227 
z
" style="fill:#1f77b4;"/>
   </g>
   <g id="patch_85">
    <path clip-path="url(#pf281106455)" d="M 323.199755 307.584 
L 325.919822 307.584 
L 325.919822 283.396207 
L 323.199755 283.396207 
z
" style="fill:#1f77b4;"/>
   </g>
   <g id="patch_86">
    <path clip-path="url(#pf281106455)" d="M 325.919822 307.584 
L 328.63988 307.584 
L 328.63988 287.865635 
L 325.919822 287.865635 
z
" style="fill:#1f77b4;"/>
   </g>
   <g id="patch_87">
    <path clip-path="url(#pf281106455)" d="M 328.63988 307.584 
L 331.359938 307.584 
L 331.359938 286.025254 
L 328.63988 286.025254 
z
" style="fill:#1f77b4;"/>
   </g>
   <g id="patch_88">
    <path clip-path="url(#pf281106455)" d="M 331.359931 307.584 
L 334.079997 307.584 
L 334.079997 288.391512 
L 331.359931 288.391512 
z
" style="fill:#1f77b4;"/>
   </g>
   <g id="patch_89">
    <path clip-path="url(#pf281106455)" d="M 334.080004 307.584 
L 336.800063 307.584 
L 336.800063 289.706015 
L 334.080004 289.706015 
z
" style="fill:#1f77b4;"/>
   </g>
   <g id="patch_90">
    <path clip-path="url(#pf281106455)" d="M 336.800063 307.584 
L 339.520121 307.584 
L 339.520121 292.335131 
L 336.800063 292.335131 
z
" style="fill:#1f77b4;"/>
   </g>
   <g id="patch_91">
    <path clip-path="url(#pf281106455)" d="M 339.520121 307.584 
L 342.240179 307.584 
L 342.240179 296.015892 
L 339.520121 296.015892 
z
" style="fill:#1f77b4;"/>
   </g>
   <g id="patch_92">
    <path clip-path="url(#pf281106455)" d="M 342.240179 307.584 
L 344.960246 307.584 
L 344.960246 296.804658 
L 342.240179 296.804658 
z
" style="fill:#1f77b4;"/>
   </g>
   <g id="patch_93">
    <path clip-path="url(#pf281106455)" d="M 344.960246 307.584 
L 347.680304 307.584 
L 347.680304 297.33045 
L 344.960246 297.33045 
z
" style="fill:#1f77b4;"/>
   </g>
   <g id="patch_94">
    <path clip-path="url(#pf281106455)" d="M 347.680304 307.584 
L 350.400362 307.584 
L 350.400362 300.222477 
L 347.680304 300.222477 
z
" style="fill:#1f77b4;"/>
   </g>
   <g id="patch_95">
    <path clip-path="url(#pf281106455)" d="M 350.400354 307.584 
L 353.120421 307.584 
L 353.120421 297.330479 
L 350.400354 297.330479 
z
" style="fill:#1f77b4;"/>
   </g>
   <g id="patch_96">
    <path clip-path="url(#pf281106455)" d="M 353.120428 307.584 
L 355.840487 307.584 
L 355.840487 301.011212 
L 353.120428 301.011212 
z
" style="fill:#1f77b4;"/>
   </g>
   <g id="patch_97">
    <path clip-path="url(#pf281106455)" d="M 355.840487 307.584 
L 358.560545 307.584 
L 358.560545 302.588681 
L 355.840487 302.588681 
z
" style="fill:#1f77b4;"/>
   </g>
   <g id="patch_98">
    <path clip-path="url(#pf281106455)" d="M 358.560545 307.584 
L 361.280611 307.584 
L 361.280611 304.16616 
L 358.560545 304.16616 
z
" style="fill:#1f77b4;"/>
   </g>
   <g id="patch_99">
    <path clip-path="url(#pf281106455)" d="M 361.280611 307.584 
L 364.000669 307.584 
L 364.000669 303.903238 
L 361.280611 303.903238 
z
" style="fill:#1f77b4;"/>
   </g>
   <g id="patch_100">
    <path clip-path="url(#pf281106455)" d="M 364.000662 307.584 
L 366.72072 307.584 
L 366.72072 304.691981 
L 364.000662 304.691981 
z
" style="fill:#1f77b4;"/>
   </g>
   <g id="patch_101">
    <path clip-path="url(#pf281106455)" d="M 366.720751 307.584 
L 369.440809 307.584 
L 369.440809 305.743619 
L 366.720751 305.743619 
z
" style="fill:#1f77b4;"/>
   </g>
   <g id="patch_102">
    <path clip-path="url(#pf281106455)" d="M 369.440794 307.584 
L 372.160852 307.584 
L 372.160852 304.429062 
L 369.440794 304.429062 
z
" style="fill:#1f77b4;"/>
   </g>
   <g id="matplotlib.axis_1">
    <g id="xtick_1">
     <g id="line2d_1">
      <defs>
       <path d="M 0 0 
L 0 3.5 
" id="mbbbaf3e166" style="stroke:#000000;stroke-width:0.8;"/>
      </defs>
      <g>
       <use style="stroke:#000000;stroke-width:0.8;" x="106.299109" xlink:href="#mbbbaf3e166" y="307.584"/>
      </g>
     </g>
     <g id="text_1">
      <!-- −2 -->
      <defs>
       <path d="M 10.59375 35.5 
L 73.1875 35.5 
L 73.1875 27.203125 
L 10.59375 27.203125 
z
" id="DejaVuSans-8722"/>
       <path d="M 19.1875 8.296875 
L 53.609375 8.296875 
L 53.609375 0 
L 7.328125 0 
L 7.328125 8.296875 
Q 12.9375 14.109375 22.625 23.890625 
Q 32.328125 33.6875 34.8125 36.53125 
Q 39.546875 41.84375 41.421875 45.53125 
Q 43.3125 49.21875 43.3125 52.78125 
Q 43.3125 58.59375 39.234375 62.25 
Q 35.15625 65.921875 28.609375 65.921875 
Q 23.96875 65.921875 18.8125 64.3125 
Q 13.671875 62.703125 7.8125 59.421875 
L 7.8125 69.390625 
Q 13.765625 71.78125 18.9375 73 
Q 24.125 74.21875 28.421875 74.21875 
Q 39.75 74.21875 46.484375 68.546875 
Q 53.21875 62.890625 53.21875 53.421875 
Q 53.21875 48.921875 51.53125 44.890625 
Q 49.859375 40.875 45.40625 35.40625 
Q 44.1875 33.984375 37.640625 27.21875 
Q 31.109375 20.453125 19.1875 8.296875 
z
" id="DejaVuSans-50"/>
      </defs>
      <g transform="translate(93.76825 327.501344)scale(0.17 -0.17)">
       <use xlink:href="#DejaVuSans-8722"/>
       <use x="83.789062" xlink:href="#DejaVuSans-50"/>
      </g>
     </g>
    </g>
    <g id="xtick_2">
     <g id="line2d_2">
      <g>
       <use style="stroke:#000000;stroke-width:0.8;" x="171.231874" xlink:href="#mbbbaf3e166" y="307.584"/>
      </g>
     </g>
     <g id="text_2">
      <!-- −1 -->
      <defs>
       <path d="M 12.40625 8.296875 
L 28.515625 8.296875 
L 28.515625 63.921875 
L 10.984375 60.40625 
L 10.984375 69.390625 
L 28.421875 72.90625 
L 38.28125 72.90625 
L 38.28125 8.296875 
L 54.390625 8.296875 
L 54.390625 0 
L 12.40625 0 
z
" id="DejaVuSans-49"/>
      </defs>
      <g transform="translate(158.701014 327.501344)scale(0.17 -0.17)">
       <use xlink:href="#DejaVuSans-8722"/>
       <use x="83.789062" xlink:href="#DejaVuSans-49"/>
      </g>
     </g>
    </g>
    <g id="xtick_3">
     <g id="line2d_3">
      <g>
       <use style="stroke:#000000;stroke-width:0.8;" x="236.164638" xlink:href="#mbbbaf3e166" y="307.584"/>
      </g>
     </g>
     <g id="text_3">
      <!-- 0 -->
      <defs>
       <path d="M 31.78125 66.40625 
Q 24.171875 66.40625 20.328125 58.90625 
Q 16.5 51.421875 16.5 36.375 
Q 16.5 21.390625 20.328125 13.890625 
Q 24.171875 6.390625 31.78125 6.390625 
Q 39.453125 6.390625 43.28125 13.890625 
Q 47.125 21.390625 47.125 36.375 
Q 47.125 51.421875 43.28125 58.90625 
Q 39.453125 66.40625 31.78125 66.40625 
z
M 31.78125 74.21875 
Q 44.046875 74.21875 50.515625 64.515625 
Q 56.984375 54.828125 56.984375 36.375 
Q 56.984375 17.96875 50.515625 8.265625 
Q 44.046875 -1.421875 31.78125 -1.421875 
Q 19.53125 -1.421875 13.0625 8.265625 
Q 6.59375 17.96875 6.59375 36.375 
Q 6.59375 54.828125 13.0625 64.515625 
Q 19.53125 74.21875 31.78125 74.21875 
z
" id="DejaVuSans-48"/>
      </defs>
      <g transform="translate(230.756513 327.501344)scale(0.17 -0.17)">
       <use xlink:href="#DejaVuSans-48"/>
      </g>
     </g>
    </g>
    <g id="xtick_4">
     <g id="line2d_4">
      <g>
       <use style="stroke:#000000;stroke-width:0.8;" x="301.097402" xlink:href="#mbbbaf3e166" y="307.584"/>
      </g>
     </g>
     <g id="text_4">
      <!-- 1 -->
      <g transform="translate(295.689277 327.501344)scale(0.17 -0.17)">
       <use xlink:href="#DejaVuSans-49"/>
      </g>
     </g>
    </g>
    <g id="xtick_5">
     <g id="line2d_5">
      <g>
       <use style="stroke:#000000;stroke-width:0.8;" x="366.030167" xlink:href="#mbbbaf3e166" y="307.584"/>
      </g>
     </g>
     <g id="text_5">
      <!-- 2 -->
      <g transform="translate(360.622042 327.501344)scale(0.17 -0.17)">
       <use xlink:href="#DejaVuSans-50"/>
      </g>
     </g>
    </g>
    <g id="text_6">
     <!-- Position in Radian -->
     <defs>
      <path d="M 19.671875 64.796875 
L 19.671875 37.40625 
L 32.078125 37.40625 
Q 38.96875 37.40625 42.71875 40.96875 
Q 46.484375 44.53125 46.484375 51.125 
Q 46.484375 57.671875 42.71875 61.234375 
Q 38.96875 64.796875 32.078125 64.796875 
z
M 9.8125 72.90625 
L 32.078125 72.90625 
Q 44.34375 72.90625 50.609375 67.359375 
Q 56.890625 61.8125 56.890625 51.125 
Q 56.890625 40.328125 50.609375 34.8125 
Q 44.34375 29.296875 32.078125 29.296875 
L 19.671875 29.296875 
L 19.671875 0 
L 9.8125 0 
z
" id="DejaVuSans-80"/>
      <path d="M 30.609375 48.390625 
Q 23.390625 48.390625 19.1875 42.75 
Q 14.984375 37.109375 14.984375 27.296875 
Q 14.984375 17.484375 19.15625 11.84375 
Q 23.34375 6.203125 30.609375 6.203125 
Q 37.796875 6.203125 41.984375 11.859375 
Q 46.1875 17.53125 46.1875 27.296875 
Q 46.1875 37.015625 41.984375 42.703125 
Q 37.796875 48.390625 30.609375 48.390625 
z
M 30.609375 56 
Q 42.328125 56 49.015625 48.375 
Q 55.71875 40.765625 55.71875 27.296875 
Q 55.71875 13.875 49.015625 6.21875 
Q 42.328125 -1.421875 30.609375 -1.421875 
Q 18.84375 -1.421875 12.171875 6.21875 
Q 5.515625 13.875 5.515625 27.296875 
Q 5.515625 40.765625 12.171875 48.375 
Q 18.84375 56 30.609375 56 
z
" id="DejaVuSans-111"/>
      <path d="M 44.28125 53.078125 
L 44.28125 44.578125 
Q 40.484375 46.53125 36.375 47.5 
Q 32.28125 48.484375 27.875 48.484375 
Q 21.1875 48.484375 17.84375 46.4375 
Q 14.5 44.390625 14.5 40.28125 
Q 14.5 37.15625 16.890625 35.375 
Q 19.28125 33.59375 26.515625 31.984375 
L 29.59375 31.296875 
Q 39.15625 29.25 43.1875 25.515625 
Q 47.21875 21.78125 47.21875 15.09375 
Q 47.21875 7.46875 41.1875 3.015625 
Q 35.15625 -1.421875 24.609375 -1.421875 
Q 20.21875 -1.421875 15.453125 -0.5625 
Q 10.6875 0.296875 5.421875 2 
L 5.421875 11.28125 
Q 10.40625 8.6875 15.234375 7.390625 
Q 20.0625 6.109375 24.8125 6.109375 
Q 31.15625 6.109375 34.5625 8.28125 
Q 37.984375 10.453125 37.984375 14.40625 
Q 37.984375 18.0625 35.515625 20.015625 
Q 33.0625 21.96875 24.703125 23.78125 
L 21.578125 24.515625 
Q 13.234375 26.265625 9.515625 29.90625 
Q 5.8125 33.546875 5.8125 39.890625 
Q 5.8125 47.609375 11.28125 51.796875 
Q 16.75 56 26.8125 56 
Q 31.78125 56 36.171875 55.265625 
Q 40.578125 54.546875 44.28125 53.078125 
z
" id="DejaVuSans-115"/>
      <path d="M 9.421875 54.6875 
L 18.40625 54.6875 
L 18.40625 0 
L 9.421875 0 
z
M 9.421875 75.984375 
L 18.40625 75.984375 
L 18.40625 64.59375 
L 9.421875 64.59375 
z
" id="DejaVuSans-105"/>
      <path d="M 18.3125 70.21875 
L 18.3125 54.6875 
L 36.8125 54.6875 
L 36.8125 47.703125 
L 18.3125 47.703125 
L 18.3125 18.015625 
Q 18.3125 11.328125 20.140625 9.421875 
Q 21.96875 7.515625 27.59375 7.515625 
L 36.8125 7.515625 
L 36.8125 0 
L 27.59375 0 
Q 17.1875 0 13.234375 3.875 
Q 9.28125 7.765625 9.28125 18.015625 
L 9.28125 47.703125 
L 2.6875 47.703125 
L 2.6875 54.6875 
L 9.28125 54.6875 
L 9.28125 70.21875 
z
" id="DejaVuSans-116"/>
      <path d="M 54.890625 33.015625 
L 54.890625 0 
L 45.90625 0 
L 45.90625 32.71875 
Q 45.90625 40.484375 42.875 44.328125 
Q 39.84375 48.1875 33.796875 48.1875 
Q 26.515625 48.1875 22.3125 43.546875 
Q 18.109375 38.921875 18.109375 30.90625 
L 18.109375 0 
L 9.078125 0 
L 9.078125 54.6875 
L 18.109375 54.6875 
L 18.109375 46.1875 
Q 21.34375 51.125 25.703125 53.5625 
Q 30.078125 56 35.796875 56 
Q 45.21875 56 50.046875 50.171875 
Q 54.890625 44.34375 54.890625 33.015625 
z
" id="DejaVuSans-110"/>
      <path id="DejaVuSans-32"/>
      <path d="M 44.390625 34.1875 
Q 47.5625 33.109375 50.5625 29.59375 
Q 53.5625 26.078125 56.59375 19.921875 
L 66.609375 0 
L 56 0 
L 46.6875 18.703125 
Q 43.0625 26.03125 39.671875 28.421875 
Q 36.28125 30.8125 30.421875 30.8125 
L 19.671875 30.8125 
L 19.671875 0 
L 9.8125 0 
L 9.8125 72.90625 
L 32.078125 72.90625 
Q 44.578125 72.90625 50.734375 67.671875 
Q 56.890625 62.453125 56.890625 51.90625 
Q 56.890625 45.015625 53.6875 40.46875 
Q 50.484375 35.9375 44.390625 34.1875 
z
M 19.671875 64.796875 
L 19.671875 38.921875 
L 32.078125 38.921875 
Q 39.203125 38.921875 42.84375 42.21875 
Q 46.484375 45.515625 46.484375 51.90625 
Q 46.484375 58.296875 42.84375 61.546875 
Q 39.203125 64.796875 32.078125 64.796875 
z
" id="DejaVuSans-82"/>
      <path d="M 34.28125 27.484375 
Q 23.390625 27.484375 19.1875 25 
Q 14.984375 22.515625 14.984375 16.5 
Q 14.984375 11.71875 18.140625 8.90625 
Q 21.296875 6.109375 26.703125 6.109375 
Q 34.1875 6.109375 38.703125 11.40625 
Q 43.21875 16.703125 43.21875 25.484375 
L 43.21875 27.484375 
z
M 52.203125 31.203125 
L 52.203125 0 
L 43.21875 0 
L 43.21875 8.296875 
Q 40.140625 3.328125 35.546875 0.953125 
Q 30.953125 -1.421875 24.3125 -1.421875 
Q 15.921875 -1.421875 10.953125 3.296875 
Q 6 8.015625 6 15.921875 
Q 6 25.140625 12.171875 29.828125 
Q 18.359375 34.515625 30.609375 34.515625 
L 43.21875 34.515625 
L 43.21875 35.40625 
Q 43.21875 41.609375 39.140625 45 
Q 35.0625 48.390625 27.6875 48.390625 
Q 23 48.390625 18.546875 47.265625 
Q 14.109375 46.140625 10.015625 43.890625 
L 10.015625 52.203125 
Q 14.9375 54.109375 19.578125 55.046875 
Q 24.21875 56 28.609375 56 
Q 40.484375 56 46.34375 49.84375 
Q 52.203125 43.703125 52.203125 31.203125 
z
" id="DejaVuSans-97"/>
      <path d="M 45.40625 46.390625 
L 45.40625 75.984375 
L 54.390625 75.984375 
L 54.390625 0 
L 45.40625 0 
L 45.40625 8.203125 
Q 42.578125 3.328125 38.25 0.953125 
Q 33.9375 -1.421875 27.875 -1.421875 
Q 17.96875 -1.421875 11.734375 6.484375 
Q 5.515625 14.40625 5.515625 27.296875 
Q 5.515625 40.1875 11.734375 48.09375 
Q 17.96875 56 27.875 56 
Q 33.9375 56 38.25 53.625 
Q 42.578125 51.265625 45.40625 46.390625 
z
M 14.796875 27.296875 
Q 14.796875 17.390625 18.875 11.75 
Q 22.953125 6.109375 30.078125 6.109375 
Q 37.203125 6.109375 41.296875 11.75 
Q 45.40625 17.390625 45.40625 27.296875 
Q 45.40625 37.203125 41.296875 42.84375 
Q 37.203125 48.484375 30.078125 48.484375 
Q 22.953125 48.484375 18.875 42.84375 
Q 14.796875 37.203125 14.796875 27.296875 
z
" id="DejaVuSans-100"/>
     </defs>
     <g transform="translate(102.024844 357.832125)scale(0.3 -0.3)">
      <use xlink:href="#DejaVuSans-80"/>
      <use x="60.255859" xlink:href="#DejaVuSans-111"/>
      <use x="121.4375" xlink:href="#DejaVuSans-115"/>
      <use x="173.537109" xlink:href="#DejaVuSans-105"/>
      <use x="201.320312" xlink:href="#DejaVuSans-116"/>
      <use x="240.529297" xlink:href="#DejaVuSans-105"/>
      <use x="268.3125" xlink:href="#DejaVuSans-111"/>
      <use x="329.494141" xlink:href="#DejaVuSans-110"/>
      <use x="392.873047" xlink:href="#DejaVuSans-32"/>
      <use x="424.660156" xlink:href="#DejaVuSans-105"/>
      <use x="452.443359" xlink:href="#DejaVuSans-110"/>
      <use x="515.822266" xlink:href="#DejaVuSans-32"/>
      <use x="547.609375" xlink:href="#DejaVuSans-82"/>
      <use x="617.060547" xlink:href="#DejaVuSans-97"/>
      <use x="678.339844" xlink:href="#DejaVuSans-100"/>
      <use x="741.816406" xlink:href="#DejaVuSans-105"/>
      <use x="769.599609" xlink:href="#DejaVuSans-97"/>
      <use x="830.878906" xlink:href="#DejaVuSans-110"/>
     </g>
    </g>
   </g>
   <g id="matplotlib.axis_2">
    <g id="ytick_1">
     <g id="line2d_6">
      <defs>
       <path d="M 0 0 
L -3.5 0 
" id="mf2c8331472" style="stroke:#000000;stroke-width:0.8;"/>
      </defs>
      <g>
       <use style="stroke:#000000;stroke-width:0.8;" x="57.6" xlink:href="#mf2c8331472" y="307.584"/>
      </g>
     </g>
     <g id="text_7">
      <!-- 0.0 -->
      <defs>
       <path d="M 10.6875 12.40625 
L 21 12.40625 
L 21 0 
L 10.6875 0 
z
" id="DejaVuSans-46"/>
      </defs>
      <g transform="translate(23.564687 314.042672)scale(0.17 -0.17)">
       <use xlink:href="#DejaVuSans-48"/>
       <use x="63.623047" xlink:href="#DejaVuSans-46"/>
       <use x="95.410156" xlink:href="#DejaVuSans-48"/>
      </g>
     </g>
    </g>
    <g id="ytick_2">
     <g id="line2d_7">
      <g>
       <use style="stroke:#000000;stroke-width:0.8;" x="57.6" xlink:href="#mf2c8331472" y="269.036872"/>
      </g>
     </g>
     <g id="text_8">
      <!-- 0.2 -->
      <g transform="translate(23.564687 275.495544)scale(0.17 -0.17)">
       <use xlink:href="#DejaVuSans-48"/>
       <use x="63.623047" xlink:href="#DejaVuSans-46"/>
       <use x="95.410156" xlink:href="#DejaVuSans-50"/>
      </g>
     </g>
    </g>
    <g id="ytick_3">
     <g id="line2d_8">
      <g>
       <use style="stroke:#000000;stroke-width:0.8;" x="57.6" xlink:href="#mf2c8331472" y="230.489745"/>
      </g>
     </g>
     <g id="text_9">
      <!-- 0.4 -->
      <defs>
       <path d="M 37.796875 64.3125 
L 12.890625 25.390625 
L 37.796875 25.390625 
z
M 35.203125 72.90625 
L 47.609375 72.90625 
L 47.609375 25.390625 
L 58.015625 25.390625 
L 58.015625 17.1875 
L 47.609375 17.1875 
L 47.609375 0 
L 37.796875 0 
L 37.796875 17.1875 
L 4.890625 17.1875 
L 4.890625 26.703125 
z
" id="DejaVuSans-52"/>
      </defs>
      <g transform="translate(23.564687 236.948417)scale(0.17 -0.17)">
       <use xlink:href="#DejaVuSans-48"/>
       <use x="63.623047" xlink:href="#DejaVuSans-46"/>
       <use x="95.410156" xlink:href="#DejaVuSans-52"/>
      </g>
     </g>
    </g>
    <g id="ytick_4">
     <g id="line2d_9">
      <g>
       <use style="stroke:#000000;stroke-width:0.8;" x="57.6" xlink:href="#mf2c8331472" y="191.942617"/>
      </g>
     </g>
     <g id="text_10">
      <!-- 0.6 -->
      <defs>
       <path d="M 33.015625 40.375 
Q 26.375 40.375 22.484375 35.828125 
Q 18.609375 31.296875 18.609375 23.390625 
Q 18.609375 15.53125 22.484375 10.953125 
Q 26.375 6.390625 33.015625 6.390625 
Q 39.65625 6.390625 43.53125 10.953125 
Q 47.40625 15.53125 47.40625 23.390625 
Q 47.40625 31.296875 43.53125 35.828125 
Q 39.65625 40.375 33.015625 40.375 
z
M 52.59375 71.296875 
L 52.59375 62.3125 
Q 48.875 64.0625 45.09375 64.984375 
Q 41.3125 65.921875 37.59375 65.921875 
Q 27.828125 65.921875 22.671875 59.328125 
Q 17.53125 52.734375 16.796875 39.40625 
Q 19.671875 43.65625 24.015625 45.921875 
Q 28.375 48.1875 33.59375 48.1875 
Q 44.578125 48.1875 50.953125 41.515625 
Q 57.328125 34.859375 57.328125 23.390625 
Q 57.328125 12.15625 50.6875 5.359375 
Q 44.046875 -1.421875 33.015625 -1.421875 
Q 20.359375 -1.421875 13.671875 8.265625 
Q 6.984375 17.96875 6.984375 36.375 
Q 6.984375 53.65625 15.1875 63.9375 
Q 23.390625 74.21875 37.203125 74.21875 
Q 40.921875 74.21875 44.703125 73.484375 
Q 48.484375 72.75 52.59375 71.296875 
z
" id="DejaVuSans-54"/>
      </defs>
      <g transform="translate(23.564687 198.401289)scale(0.17 -0.17)">
       <use xlink:href="#DejaVuSans-48"/>
       <use x="63.623047" xlink:href="#DejaVuSans-46"/>
       <use x="95.410156" xlink:href="#DejaVuSans-54"/>
      </g>
     </g>
    </g>
    <g id="ytick_5">
     <g id="line2d_10">
      <g>
       <use style="stroke:#000000;stroke-width:0.8;" x="57.6" xlink:href="#mf2c8331472" y="153.395489"/>
      </g>
     </g>
     <g id="text_11">
      <!-- 0.8 -->
      <defs>
       <path d="M 31.78125 34.625 
Q 24.75 34.625 20.71875 30.859375 
Q 16.703125 27.09375 16.703125 20.515625 
Q 16.703125 13.921875 20.71875 10.15625 
Q 24.75 6.390625 31.78125 6.390625 
Q 38.8125 6.390625 42.859375 10.171875 
Q 46.921875 13.96875 46.921875 20.515625 
Q 46.921875 27.09375 42.890625 30.859375 
Q 38.875 34.625 31.78125 34.625 
z
M 21.921875 38.8125 
Q 15.578125 40.375 12.03125 44.71875 
Q 8.5 49.078125 8.5 55.328125 
Q 8.5 64.0625 14.71875 69.140625 
Q 20.953125 74.21875 31.78125 74.21875 
Q 42.671875 74.21875 48.875 69.140625 
Q 55.078125 64.0625 55.078125 55.328125 
Q 55.078125 49.078125 51.53125 44.71875 
Q 48 40.375 41.703125 38.8125 
Q 48.828125 37.15625 52.796875 32.3125 
Q 56.78125 27.484375 56.78125 20.515625 
Q 56.78125 9.90625 50.3125 4.234375 
Q 43.84375 -1.421875 31.78125 -1.421875 
Q 19.734375 -1.421875 13.25 4.234375 
Q 6.78125 9.90625 6.78125 20.515625 
Q 6.78125 27.484375 10.78125 32.3125 
Q 14.796875 37.15625 21.921875 38.8125 
z
M 18.3125 54.390625 
Q 18.3125 48.734375 21.84375 45.5625 
Q 25.390625 42.390625 31.78125 42.390625 
Q 38.140625 42.390625 41.71875 45.5625 
Q 45.3125 48.734375 45.3125 54.390625 
Q 45.3125 60.0625 41.71875 63.234375 
Q 38.140625 66.40625 31.78125 66.40625 
Q 25.390625 66.40625 21.84375 63.234375 
Q 18.3125 60.0625 18.3125 54.390625 
z
" id="DejaVuSans-56"/>
      </defs>
      <g transform="translate(23.564687 159.854161)scale(0.17 -0.17)">
       <use xlink:href="#DejaVuSans-48"/>
       <use x="63.623047" xlink:href="#DejaVuSans-46"/>
       <use x="95.410156" xlink:href="#DejaVuSans-56"/>
      </g>
     </g>
    </g>
    <g id="ytick_6">
     <g id="line2d_11">
      <g>
       <use style="stroke:#000000;stroke-width:0.8;" x="57.6" xlink:href="#mf2c8331472" y="114.848362"/>
      </g>
     </g>
     <g id="text_12">
      <!-- 1.0 -->
      <g transform="translate(23.564687 121.307034)scale(0.17 -0.17)">
       <use xlink:href="#DejaVuSans-49"/>
       <use x="63.623047" xlink:href="#DejaVuSans-46"/>
       <use x="95.410156" xlink:href="#DejaVuSans-48"/>
      </g>
     </g>
    </g>
    <g id="ytick_7">
     <g id="line2d_12">
      <g>
       <use style="stroke:#000000;stroke-width:0.8;" x="57.6" xlink:href="#mf2c8331472" y="76.301234"/>
      </g>
     </g>
     <g id="text_13">
      <!-- 1.2 -->
      <g transform="translate(23.564687 82.759906)scale(0.17 -0.17)">
       <use xlink:href="#DejaVuSans-49"/>
       <use x="63.623047" xlink:href="#DejaVuSans-46"/>
       <use x="95.410156" xlink:href="#DejaVuSans-50"/>
      </g>
     </g>
    </g>
    <g id="text_14">
     <!-- Density -->
     <defs>
      <path d="M 19.671875 64.796875 
L 19.671875 8.109375 
L 31.59375 8.109375 
Q 46.6875 8.109375 53.6875 14.9375 
Q 60.6875 21.78125 60.6875 36.53125 
Q 60.6875 51.171875 53.6875 57.984375 
Q 46.6875 64.796875 31.59375 64.796875 
z
M 9.8125 72.90625 
L 30.078125 72.90625 
Q 51.265625 72.90625 61.171875 64.09375 
Q 71.09375 55.28125 71.09375 36.53125 
Q 71.09375 17.671875 61.125 8.828125 
Q 51.171875 0 30.078125 0 
L 9.8125 0 
z
" id="DejaVuSans-68"/>
      <path d="M 56.203125 29.59375 
L 56.203125 25.203125 
L 14.890625 25.203125 
Q 15.484375 15.921875 20.484375 11.0625 
Q 25.484375 6.203125 34.421875 6.203125 
Q 39.59375 6.203125 44.453125 7.46875 
Q 49.3125 8.734375 54.109375 11.28125 
L 54.109375 2.78125 
Q 49.265625 0.734375 44.1875 -0.34375 
Q 39.109375 -1.421875 33.890625 -1.421875 
Q 20.796875 -1.421875 13.15625 6.1875 
Q 5.515625 13.8125 5.515625 26.8125 
Q 5.515625 40.234375 12.765625 48.109375 
Q 20.015625 56 32.328125 56 
Q 43.359375 56 49.78125 48.890625 
Q 56.203125 41.796875 56.203125 29.59375 
z
M 47.21875 32.234375 
Q 47.125 39.59375 43.09375 43.984375 
Q 39.0625 48.390625 32.421875 48.390625 
Q 24.90625 48.390625 20.390625 44.140625 
Q 15.875 39.890625 15.1875 32.171875 
z
" id="DejaVuSans-101"/>
      <path d="M 32.171875 -5.078125 
Q 28.375 -14.84375 24.75 -17.8125 
Q 21.140625 -20.796875 15.09375 -20.796875 
L 7.90625 -20.796875 
L 7.90625 -13.28125 
L 13.1875 -13.28125 
Q 16.890625 -13.28125 18.9375 -11.515625 
Q 21 -9.765625 23.484375 -3.21875 
L 25.09375 0.875 
L 2.984375 54.6875 
L 12.5 54.6875 
L 29.59375 11.921875 
L 46.6875 54.6875 
L 56.203125 54.6875 
z
" id="DejaVuSans-121"/>
     </defs>
     <g transform="translate(13.325625 231.553781)rotate(-90)scale(0.3 -0.3)">
      <use xlink:href="#DejaVuSans-68"/>
      <use x="77.001953" xlink:href="#DejaVuSans-101"/>
      <use x="138.525391" xlink:href="#DejaVuSans-110"/>
      <use x="201.904297" xlink:href="#DejaVuSans-115"/>
      <use x="254.003906" xlink:href="#DejaVuSans-105"/>
      <use x="281.787109" xlink:href="#DejaVuSans-116"/>
      <use x="320.996094" xlink:href="#DejaVuSans-121"/>
     </g>
    </g>
   </g>
   <g id="line2d_13">
    <path clip-path="url(#pf281106455)" d="M 73.832727 307.584 
L 98.219618 307.475958 
L 98.507178 307.20514 
L 98.757633 306.615954 
L 99.02664 305.320347 
L 99.351304 302.484069 
L 99.963527 294.512283 
L 100.418056 290.172784 
L 100.733444 288.966275 
L 100.993175 288.697728 
L 101.24363 288.742812 
L 101.559018 289.051241 
L 102.486629 290.139008 
L 102.774188 290.000532 
L 103.349307 289.702743 
L 103.646142 289.838196 
L 104.045015 290.309378 
L 105.046835 291.617571 
L 105.269461 291.524217 
L 105.529192 291.115793 
L 105.918789 290.008665 
L 107.39369 285.437288 
L 107.690526 285.218016 
L 108.34913 285.006444 
L 108.673793 284.371804 
L 109.221084 283.363561 
L 109.582852 283.187842 
L 109.89824 282.961866 
L 110.204351 282.400259 
L 111.642148 279.250973 
L 111.957536 279.194665 
L 112.402789 279.13049 
L 112.681073 278.791493 
L 113.358229 277.880957 
L 113.599407 277.944493 
L 114.452809 278.38753 
L 114.805302 278.17292 
L 115.278383 277.584179 
L 115.751465 277.105287 
L 116.0483 277.125566 
L 116.354412 277.104571 
L 116.539934 276.806549 
L 116.771837 275.933117 
L 117.161433 273.385778 
L 117.680895 270.368536 
L 117.912798 270.004959 
L 118.05194 270.10217 
L 118.274566 270.617405 
L 119.740192 274.745696 
L 119.907162 274.691374 
L 120.092684 274.343354 
L 120.370967 273.256107 
L 121.344959 268.949223 
L 121.539757 268.900474 
L 121.799488 269.141375 
L 122.124152 269.344176 
L 122.31895 269.194894 
L 122.65289 268.556879 
L 123.03321 268.003492 
L 123.246561 268.02353 
L 123.599053 268.378319 
L 123.914441 268.546513 
L 124.15562 268.408174 
L 124.944089 267.769174 
L 125.222372 267.955342 
L 125.695454 268.600084 
L 126.214916 269.656192 
L 126.669445 271.150956 
L 127.791854 275.184503 
L 128.070138 275.362564 
L 128.46901 275.276941 
L 128.849331 275.309173 
L 129.368793 275.384921 
L 129.628524 275.130879 
L 130.055225 274.309698 
L 130.713829 273.153332 
L 131.001388 273.002849 
L 131.205463 273.136543 
L 131.483746 273.651324 
L 132.095969 274.819375 
L 132.290767 274.789441 
L 132.587603 274.436621 
L 132.912267 274.179886 
L 133.088513 274.304143 
L 133.338968 274.827239 
L 133.941915 276.152266 
L 134.108885 276.11649 
L 134.322235 275.769179 
L 135.147809 274.160364 
L 135.342607 274.266953 
L 135.630167 274.748579 
L 136.808233 276.990569 
L 137.095792 277.127723 
L 137.299866 276.987757 
L 137.568874 276.475368 
L 138.570693 274.254071 
L 140.416639 272.979262 
L 140.667094 273.124101 
L 140.917549 273.570285 
L 141.232937 274.666952 
L 142.429555 279.423301 
L 142.605801 279.411026 
L 142.809875 279.110687 
L 143.134539 278.140141 
L 144.405366 273.866606 
L 145.704021 271.81223 
L 145.89882 272.005791 
L 146.186379 272.669861 
L 146.566699 274.152776 
L 146.937744 276.581397 
L 147.985944 284.272022 
L 148.125086 284.296342 
L 148.134362 284.287911 
L 148.301332 283.959717 
L 148.690928 282.507669 
L 149.238219 280.797207 
L 149.859718 279.015694 
L 150.982127 275.106254 
L 151.121269 275.240111 
L 151.325343 275.850621 
L 151.668559 277.760967 
L 152.401372 281.853573 
L 152.670379 282.324795 
L 152.828073 282.283183 
L 153.022871 281.926764 
L 153.319707 280.819399 
L 154.377183 276.361121 
L 154.497773 276.471934 
L 154.683295 277.050527 
L 155.017235 279.032599 
L 155.499593 281.602647 
L 155.657286 281.751839 
L 155.675839 281.74032 
L 155.805704 281.49403 
L 156.037607 280.444317 
L 156.974494 275.605827 
L 157.169292 275.512615 
L 157.345538 275.728055 
L 157.716583 276.671057 
L 158.059799 277.259191 
L 158.217493 277.215883 
L 158.412291 276.85628 
L 158.774059 275.585468 
L 159.265693 274.096453 
L 159.460491 274.011391 
L 159.618185 274.225596 
L 159.859364 275.009946 
L 160.786975 278.465968 
L 160.926116 278.350607 
L 161.130191 277.790323 
L 161.53834 275.822561 
L 162.855547 268.248439 
L 163.477046 264.01099 
L 163.671845 263.716154 
L 163.681121 263.720016 
L 163.80171 263.918647 
L 164.005785 264.825843 
L 164.905567 269.630512 
L 164.914843 269.628508 
L 165.035433 269.479637 
L 165.258059 268.741708 
L 165.777522 267.01575 
L 165.925939 267.030457 
L 166.102185 267.395465 
L 166.85355 269.379091 
L 166.872102 269.370652 
L 167.039072 269.140598 
L 167.725504 267.81458 
L 167.762609 267.839688 
L 167.938855 268.142056 
L 168.699496 269.873044 
L 168.7366 269.851499 
L 168.912846 269.568512 
L 169.246786 268.485678 
L 169.784801 266.909888 
L 170.090912 266.604522 
L 170.378472 266.618853 
L 170.888658 266.934493 
L 171.40812 267.147161 
L 172.57691 267.355855 
L 172.985058 267.94071 
L 174.163124 269.822712 
L 174.617654 270.078689 
L 174.849556 269.983733 
L 175.072183 269.612364 
L 175.369018 268.598453 
L 175.944137 265.570329 
L 176.361562 263.991697 
L 176.565637 263.846734 
L 176.72333 264.048842 
L 177.001614 264.892266 
L 177.576732 266.593677 
L 177.817911 266.730773 
L 178.049814 266.585814 
L 178.430134 266.035406 
L 178.801179 265.119738 
L 179.181499 263.504578 
L 180.359565 257.880862 
L 180.507983 257.914164 
L 180.684229 258.287699 
L 180.971788 259.53459 
L 181.648944 262.558899 
L 181.82519 262.641788 
L 181.982884 262.417955 
L 182.641488 261.105299 
L 182.687869 261.137253 
L 182.854839 261.449188 
L 183.170226 262.647343 
L 183.940143 265.591152 
L 184.450329 266.707782 
L 184.700784 266.849629 
L 184.886306 266.691363 
L 185.127485 266.118543 
L 185.461425 264.663994 
L 186.064372 260.768948 
L 186.472521 258.868205 
L 186.658043 258.708356 
L 186.797185 258.912831 
L 187.04764 259.806061 
L 187.576378 261.636343 
L 187.724796 261.625491 
L 187.88249 261.269574 
L 188.142221 260.014241 
L 189.042003 255.173647 
L 189.218249 255.104067 
L 189.385219 255.332025 
L 190.182965 256.840157 
L 190.220069 256.815151 
L 190.396315 256.515726 
L 190.665322 255.526849 
L 191.806284 250.686324 
L 192.631858 249.282249 
L 193.03073 248.572823 
L 193.188424 248.62204 
L 193.36467 248.987786 
L 193.661506 250.246684 
L 194.310833 253.04498 
L 194.459251 253.101097 
L 194.468527 253.093634 
L 194.607669 252.823304 
L 194.839572 251.759006 
L 195.86922 246.186784 
L 196.101122 246.108933 
L 196.41651 246.031195 
L 196.639137 245.652185 
L 197.269912 244.329743 
L 197.297741 244.345854 
L 197.436882 244.588819 
L 197.668785 245.54611 
L 198.364493 248.689966 
L 198.494359 248.664822 
L 198.652053 248.287196 
L 198.92106 246.936225 
L 199.913603 240.005837 
L 200.451618 237.238585 
L 200.68352 236.88609 
L 200.822662 236.993022 
L 201.036013 237.541084 
L 201.907967 240.132744 
L 202.13987 240.170989 
L 202.436705 239.932494 
L 202.872682 239.644953 
L 203.150965 239.748503 
L 204.134233 240.539852 
L 204.449621 241.515954 
L 204.839217 242.534097 
L 204.959807 242.472274 
L 205.108224 242.025025 
L 205.349403 240.443287 
L 206.28629 233.457814 
L 206.397604 233.437773 
L 206.425432 233.467986 
L 206.57385 233.85034 
L 206.833581 235.257304 
L 207.918886 241.912128 
L 208.095132 241.982012 
L 208.252826 241.7188 
L 208.521833 240.718768 
L 209.282474 237.730103 
L 209.829764 236.829657 
L 210.312122 236.245624 
L 210.488368 236.326456 
L 210.692442 236.730513 
L 211.017106 237.978584 
L 212.083859 242.471736 
L 212.315761 242.629747 
L 212.51056 242.480369 
L 212.881604 241.812579 
L 213.410342 241.005101 
L 214.133879 240.173351 
L 214.421438 239.179373 
L 214.820311 236.824491 
L 215.478915 233.018906 
L 215.701541 232.697016 
L 215.840683 232.805867 
L 216.081862 233.38743 
L 216.536391 234.41356 
L 216.684809 234.363552 
L 216.870331 233.965592 
L 217.630972 231.949548 
L 217.640248 231.953381 
L 217.807218 232.158201 
L 218.335956 232.983348 
L 218.354508 232.970503 
L 218.49365 232.715158 
L 218.707001 231.761038 
L 219.059493 228.972727 
L 220.478737 216.669854 
L 220.692088 216.356022 
L 220.812677 216.499275 
L 221.016752 217.204227 
L 222.018572 221.39978 
L 222.166989 221.285754 
L 222.398892 220.731154 
L 223.122429 218.812593 
L 223.26157 218.912959 
L 223.456368 219.421901 
L 223.920174 221.51937 
L 224.235562 222.379993 
L 224.383979 222.364793 
L 224.541673 222.029205 
L 224.81068 220.819376 
L 225.682635 216.495956 
L 225.8125 216.530643 
L 225.960918 216.933705 
L 226.202097 218.386412 
L 227.222469 225.676809 
L 227.231745 225.675073 
L 227.343058 225.513957 
L 227.52858 224.710834 
L 227.86252 222.02661 
L 229.096243 211.257357 
L 229.439459 210.014736 
L 229.624981 209.908905 
L 229.791951 210.10947 
L 230.283585 210.888017 
L 230.320689 210.855922 
L 230.450555 210.526439 
L 230.636077 209.32048 
L 230.886532 206.009493 
L 231.266852 197.50192 
L 231.888352 184.136687 
L 232.110978 182.893613 
L 232.185187 182.988183 
L 232.324329 183.746522 
L 232.611888 186.913468 
L 233.493119 197.025334 
L 234.021857 200.721561 
L 234.151722 200.948506 
L 234.188827 200.913827 
L 234.290864 200.521656 
L 234.448558 198.795598 
L 234.652632 193.661441 
L 234.903087 180.868409 
L 235.218475 151.61048 
L 236.155362 54.152507 
L 236.164638 54.144 
L 236.18319 54.219219 
L 236.257399 55.743321 
L 236.415093 65.149059 
L 236.711928 99.682161 
L 237.398361 179.658952 
L 237.732301 195.252679 
L 238.056964 201.375816 
L 238.539322 205.989052 
L 238.891814 207.801402 
L 239.003127 207.886723 
L 239.040232 207.850925 
L 239.170097 207.46097 
L 239.383448 205.942003 
L 239.763768 201.243592 
L 240.301783 195.210819 
L 240.515133 194.618467 
L 240.607894 194.75134 
L 240.78414 195.542474 
L 241.795236 201.100993 
L 242.157005 202.178113 
L 242.481668 204.063351 
L 243.260862 208.806349 
L 243.539145 209.252776 
L 243.928741 209.689164 
L 244.151368 210.475092 
L 244.476032 212.617186 
L 245.162464 217.247307 
L 245.273777 217.343151 
L 245.310882 217.308436 
L 245.440747 216.910677 
L 245.654098 215.340441 
L 246.071523 210.113873 
L 246.498224 205.852774 
L 246.702298 205.356986 
L 246.804335 205.492367 
L 246.999134 206.255995 
L 247.704118 209.297156 
L 248.279237 210.72802 
L 248.789423 213.283145 
L 249.160467 214.538976 
L 249.364541 214.661396 
L 249.531511 214.477957 
L 249.819071 213.747339 
L 250.533331 211.143332 
L 250.969308 208.76461 
L 251.637188 203.446495 
L 252.119546 200.532668 
L 252.360725 200.080543 
L 252.472038 200.18978 
L 252.639008 200.785326 
L 252.889463 202.677255 
L 253.334716 208.177362 
L 253.984044 215.530218 
L 254.447849 218.317092 
L 256.098997 225.59291 
L 256.59063 227.421048 
L 257.249234 229.943373 
L 257.434756 230.022765 
L 257.59245 229.779319 
L 257.842905 228.87518 
L 258.937486 224.258862 
L 259.076628 224.33809 
L 259.26215 224.768844 
L 259.558985 226.126285 
L 260.180485 230.339073 
L 260.913297 234.633151 
L 261.460588 236.721273 
L 261.711043 237.021819 
L 261.850184 236.902744 
L 262.044983 236.348714 
L 262.341818 234.690897 
L 263.31581 228.667492 
L 263.473504 228.6186 
L 263.48278 228.626263 
L 263.640473 228.912739 
L 263.946585 230.045384 
L 264.660845 232.661917 
L 265.625561 235.391687 
L 266.024434 237.800904 
L 267.156119 245.305723 
L 267.341641 245.434746 
L 267.490059 245.230302 
L 267.740514 244.408335 
L 268.538259 241.567104 
L 268.742334 241.490449 
L 268.937132 241.686063 
L 269.809086 242.892825 
L 269.827638 242.879009 
L 270.022437 242.569285 
L 270.337824 241.54068 
L 270.80163 240.184556 
L 270.940771 240.204026 
L 271.089189 240.54425 
L 271.339644 241.79406 
L 272.063181 245.675818 
L 272.230151 245.744241 
L 272.387844 245.49954 
L 273.009344 244.202444 
L 273.046448 244.228372 
L 273.194866 244.529006 
L 273.436045 245.637764 
L 274.159581 249.280958 
L 274.289447 249.289773 
L 274.298723 249.28053 
L 274.456417 248.942694 
L 274.762528 247.599414 
L 275.467513 244.51012 
L 275.708692 244.219657 
L 275.847833 244.338116 
L 276.033355 244.863453 
L 276.320915 246.481274 
L 277.508257 254.175448 
L 277.712331 254.335189 
L 277.860749 254.174356 
L 278.083375 253.511721 
L 278.45442 251.549805 
L 278.973882 249.085871 
L 279.16868 248.915808 
L 279.307822 249.102719 
L 279.558277 249.928733 
L 280.226157 252.233734 
L 280.467336 252.379727 
L 280.727067 252.23464 
L 281.320738 251.583739 
L 281.626849 250.878241 
L 282.025722 249.285287 
L 282.879124 245.786738 
L 283.092474 245.608488 
L 283.231616 245.770641 
L 283.43569 246.450614 
L 283.732526 248.369014 
L 284.214884 253.245784 
L 284.956972 260.392508 
L 285.365121 262.276021 
L 285.801098 263.283248 
L 286.264904 263.830841 
L 286.60812 264.310647 
L 286.886403 265.170765 
L 287.294552 267.316514 
L 287.832566 269.859168 
L 288.045917 270.095806 
L 288.185058 269.940313 
L 288.398409 269.274746 
L 289.344572 265.719812 
L 289.363124 265.72581 
L 289.511542 265.922401 
L 289.752721 266.725644 
L 290.346392 269.795957 
L 291.079204 273.00413 
L 291.626495 274.566949 
L 291.960435 274.973968 
L 292.220166 274.983375 
L 292.554106 274.729756 
L 293.695067 273.722854 
L 294.270186 273.433233 
L 294.492813 273.578174 
L 294.771096 274.074437 
L 295.522461 275.531174 
L 295.745087 275.516054 
L 296.014095 275.225537 
L 296.450072 274.376274 
L 296.988086 272.817804 
L 297.69307 270.830298 
L 297.906421 270.731053 
L 298.073391 270.924866 
L 298.31457 271.63646 
L 298.731995 273.737766 
L 299.251457 276.023831 
L 299.483359 276.279309 
L 299.650329 276.161157 
L 300.206896 275.613509 
L 300.383142 275.893906 
L 300.717082 276.999551 
L 301.07885 277.891096 
L 301.227268 277.861171 
L 301.403514 277.489443 
L 301.774558 275.99901 
L 302.182707 274.722446 
L 302.377505 274.630598 
L 302.544475 274.841068 
L 302.832035 275.66171 
L 303.407154 277.259806 
L 303.5834 277.281283 
L 303.759646 277.007976 
L 304.065757 276.015459 
L 304.724361 273.916624 
L 305.485002 272.125562 
L 306.152882 270.224383 
L 306.34768 270.184346 
L 306.533202 270.440057 
L 306.820762 271.311573 
L 307.535022 274.493666 
L 308.156521 276.632979 
L 309.585042 280.469234 
L 309.835497 280.493202 
L 310.132333 280.270432 
L 310.494101 279.700949 
L 310.892974 278.623161 
L 311.551577 276.029924 
L 311.987555 274.76926 
L 312.210181 274.634802 
L 312.386427 274.800757 
L 312.720367 275.527619 
L 313.109964 276.188929 
L 313.304762 276.170797 
L 313.555217 275.843781 
L 313.991194 275.319448 
L 314.176716 275.39879 
L 314.473552 275.858366 
L 314.83532 276.281011 
L 315.011566 276.20091 
L 315.299126 275.734122 
L 315.623789 275.353914 
L 315.772207 275.465953 
L 315.967005 275.974419 
L 316.291669 277.572505 
L 317.55322 284.328178 
L 317.905712 285.255372 
L 318.063406 285.258439 
L 318.2211 284.93215 
L 318.462279 283.804255 
L 319.037398 279.60604 
L 319.426994 277.698805 
L 319.631069 277.469839 
L 319.760934 277.621588 
L 319.974285 278.314092 
L 320.419538 280.757263 
L 320.957552 283.223409 
L 321.310044 283.943803 
L 321.579051 284.088455 
L 321.801678 283.964365 
L 322.089237 283.495241 
L 323.072505 281.618821 
L 323.285856 281.696225 
L 323.573415 282.090854 
L 324.445369 283.434739 
L 324.686548 283.397208 
L 325.456465 283.072754 
L 325.70692 283.42808 
L 326.226382 284.687925 
L 327.320963 287.724108 
L 327.886806 289.460714 
L 328.072328 289.525285 
L 328.239298 289.301322 
L 328.554686 288.389939 
L 329.055595 287.103915 
L 329.417364 286.782851 
L 329.816236 286.374112 
L 330.252214 285.964552 
L 330.419184 286.10437 
L 330.632534 286.664172 
L 330.97575 288.338801 
L 331.625078 291.45928 
L 331.829152 291.637092 
L 331.968294 291.429294 
L 332.19092 290.567467 
L 332.654726 287.579537 
L 333.072151 285.56847 
L 333.285501 285.344085 
L 333.424643 285.505117 
L 333.665822 286.221359 
L 334.556328 289.187651 
L 334.890268 289.473772 
L 336.541416 290.276969 
L 336.847527 291.022067 
L 337.710205 293.37797 
L 337.867899 293.284036 
L 338.109078 292.799928 
L 338.637816 291.748185 
L 338.814062 291.782407 
L 339.036689 292.1221 
L 339.713845 293.267286 
L 339.973576 293.245182 
L 340.34462 293.216654 
L 340.548695 293.483461 
L 340.808426 294.261146 
L 341.235127 296.393294 
L 341.940111 299.770986 
L 342.209118 300.199223 
L 342.376088 300.147147 
L 342.598715 299.766621 
L 343.915922 296.4047 
L 344.713668 294.572468 
L 344.908466 294.572421 
L 345.11254 294.855387 
L 345.474309 295.844725 
L 346.086532 297.396092 
L 346.457576 297.769241 
L 347.329531 298.407243 
L 348.45194 299.697395 
L 350.260781 300.069542 
L 351.448123 299.34127 
L 351.754235 298.791643 
L 352.783883 296.591385 
L 352.969405 296.768553 
L 353.26624 297.430187 
L 354.991597 301.882521 
L 355.297708 301.944805 
L 355.798618 302.014501 
L 356.132558 302.365348 
L 356.781886 303.057044 
L 357.050893 303.016433 
L 357.394109 302.690273 
L 357.932123 302.218513 
L 358.173302 302.284513 
L 358.470138 302.64334 
L 359.444129 304.008208 
L 359.778069 304.029965 
L 360.575814 303.951861 
L 361.048896 304.287195 
L 361.58691 304.57985 
L 361.911574 304.510765 
L 362.264066 304.178511 
L 363.080364 303.317238 
L 363.330819 303.404492 
L 363.720415 303.843027 
L 364.184221 304.252816 
L 364.518161 304.247653 
L 365.121108 304.194078 
L 365.510705 304.463686 
L 366.178584 304.912268 
L 367.198956 305.330622 
L 368.321366 306.239034 
L 368.608925 306.071548 
L 369.19332 305.356672 
L 369.582916 305.089504 
L 369.90758 305.13108 
L 370.352834 305.452367 
L 370.974333 305.86288 
L 371.234064 305.765759 
L 371.586556 305.339491 
L 372.013257 304.919643 
L 372.217332 304.9882 
L 372.467786 305.354457 
L 373.6273 307.413309 
L 374.081829 307.557476 
L 375.222791 307.583971 
L 398.487273 307.584 
L 398.487273 307.584 
" style="fill:none;stroke:#ff7f0e;stroke-linecap:square;stroke-width:1.5;"/>
   </g>
   <g id="patch_103">
    <path d="M 57.6 307.584 
L 57.6 41.472 
" style="fill:none;stroke:#000000;stroke-linecap:square;stroke-linejoin:miter;stroke-width:0.8;"/>
   </g>
   <g id="patch_104">
    <path d="M 414.72 307.584 
L 414.72 41.472 
" style="fill:none;stroke:#000000;stroke-linecap:square;stroke-linejoin:miter;stroke-width:0.8;"/>
   </g>
   <g id="patch_105">
    <path d="M 57.6 307.584 
L 414.72 307.584 
" style="fill:none;stroke:#000000;stroke-linecap:square;stroke-linejoin:miter;stroke-width:0.8;"/>
   </g>
   <g id="patch_106">
    <path d="M 57.6 41.472 
L 414.72 41.472 
" style="fill:none;stroke:#000000;stroke-linecap:square;stroke-linejoin:miter;stroke-width:0.8;"/>
   </g>
  </g>
 </g>
 <defs>
  <clipPath id="pf281106455">
   <rect height="266.112" width="357.12" x="57.6" y="41.472"/>
  </clipPath>
 </defs>
</svg>
