<?xml version="1.0" encoding="utf-8" standalone="no"?>
<!DOCTYPE svg PUBLIC "-//W3C//DTD SVG 1.1//EN"
  "http://www.w3.org/Graphics/SVG/1.1/DTD/svg11.dtd">
<!-- Created with matplotlib (https://matplotlib.org/) -->
<svg height="345.6pt" version="1.1" viewBox="0 0 460.8 345.6" width="460.8pt" xmlns="http://www.w3.org/2000/svg" xmlns:xlink="http://www.w3.org/1999/xlink">
 <defs>
  <style type="text/css">
*{stroke-linecap:butt;stroke-linejoin:round;}
  </style>
 </defs>
 <g id="figure_1">
  <g id="patch_1">
   <path d="M 0 345.6 
L 460.8 345.6 
L 460.8 0 
L 0 0 
z
" style="fill:#ffffff;"/>
  </g>
  <g id="axes_1">
   <g id="patch_2">
    <path d="M 57.6 307.584 
L 414.72 307.584 
L 414.72 41.472 
L 57.6 41.472 
z
" style="fill:#ffffff;"/>
   </g>
   <g id="patch_3">
    <path clip-path="url(#p1091d50cc9)" d="M 100.154691 307.584 
L 102.87474 307.584 
L 102.87474 287.635124 
L 100.154691 287.635124 
z
" style="fill:#1f77b4;"/>
   </g>
   <g id="patch_4">
    <path clip-path="url(#p1091d50cc9)" d="M 102.874724 307.584 
L 105.594773 307.584 
L 105.594773 291.578507 
L 102.874724 291.578507 
z
" style="fill:#1f77b4;"/>
   </g>
   <g id="patch_5">
    <path clip-path="url(#p1091d50cc9)" d="M 105.594773 307.584 
L 108.314829 307.584 
L 108.314829 288.099107 
L 105.594773 288.099107 
z
" style="fill:#1f77b4;"/>
   </g>
   <g id="patch_6">
    <path clip-path="url(#p1091d50cc9)" d="M 108.314829 307.584 
L 111.034878 307.584 
L 111.034878 283.459778 
L 108.314829 283.459778 
z
" style="fill:#1f77b4;"/>
   </g>
   <g id="patch_7">
    <path clip-path="url(#p1091d50cc9)" d="M 111.03487 307.584 
L 113.754926 307.584 
L 113.754926 280.676291 
L 111.03487 280.676291 
z
" style="fill:#1f77b4;"/>
   </g>
   <g id="patch_8">
    <path clip-path="url(#p1091d50cc9)" d="M 113.754934 307.584 
L 116.474983 307.584 
L 116.474983 278.124614 
L 113.754934 278.124614 
z
" style="fill:#1f77b4;"/>
   </g>
   <g id="patch_9">
    <path clip-path="url(#p1091d50cc9)" d="M 116.474983 307.584 
L 119.195031 307.584 
L 119.195031 272.325522 
L 116.474983 272.325522 
z
" style="fill:#1f77b4;"/>
   </g>
   <g id="patch_10">
    <path clip-path="url(#p1091d50cc9)" d="M 119.195031 307.584 
L 121.915088 307.584 
L 121.915088 272.325622 
L 119.195031 272.325622 
z
" style="fill:#1f77b4;"/>
   </g>
   <g id="patch_11">
    <path clip-path="url(#p1091d50cc9)" d="M 121.915088 307.584 
L 124.635136 307.584 
L 124.635136 271.629631 
L 121.915088 271.629631 
z
" style="fill:#1f77b4;"/>
   </g>
   <g id="patch_12">
    <path clip-path="url(#p1091d50cc9)" d="M 124.635136 307.584 
L 127.355185 307.584 
L 127.355185 270.701776 
L 124.635136 270.701776 
z
" style="fill:#1f77b4;"/>
   </g>
   <g id="patch_13">
    <path clip-path="url(#p1091d50cc9)" d="M 127.355177 307.584 
L 130.075234 307.584 
L 130.075234 275.573104 
L 127.355177 275.573104 
z
" style="fill:#1f77b4;"/>
   </g>
   <g id="patch_14">
    <path clip-path="url(#p1091d50cc9)" d="M 130.075241 307.584 
L 132.79529 307.584 
L 132.79529 274.413195 
L 130.075241 274.413195 
z
" style="fill:#1f77b4;"/>
   </g>
   <g id="patch_15">
    <path clip-path="url(#p1091d50cc9)" d="M 132.79529 307.584 
L 135.515339 307.584 
L 135.515339 273.949268 
L 132.79529 273.949268 
z
" style="fill:#1f77b4;"/>
   </g>
   <g id="patch_16">
    <path clip-path="url(#p1091d50cc9)" d="M 135.515339 307.584 
L 138.235387 307.584 
L 138.235387 277.196759 
L 135.515339 277.196759 
z
" style="fill:#1f77b4;"/>
   </g>
   <g id="patch_17">
    <path clip-path="url(#p1091d50cc9)" d="M 138.235387 307.584 
L 140.955444 307.584 
L 140.955444 273.485437 
L 138.235387 273.485437 
z
" style="fill:#1f77b4;"/>
   </g>
   <g id="patch_18">
    <path clip-path="url(#p1091d50cc9)" d="M 140.955444 307.584 
L 143.675492 307.584 
L 143.675492 276.732832 
L 140.955444 276.732832 
z
" style="fill:#1f77b4;"/>
   </g>
   <g id="patch_19">
    <path clip-path="url(#p1091d50cc9)" d="M 143.675492 307.584 
L 146.395541 307.584 
L 146.395541 273.717304 
L 143.675492 273.717304 
z
" style="fill:#1f77b4;"/>
   </g>
   <g id="patch_20">
    <path clip-path="url(#p1091d50cc9)" d="M 146.395533 307.584 
L 149.11559 307.584 
L 149.11559 277.660771 
L 146.395533 277.660771 
z
" style="fill:#1f77b4;"/>
   </g>
   <g id="patch_21">
    <path clip-path="url(#p1091d50cc9)" d="M 149.115597 307.584 
L 151.835646 307.584 
L 151.835646 273.949268 
L 149.115597 273.949268 
z
" style="fill:#1f77b4;"/>
   </g>
   <g id="patch_22">
    <path clip-path="url(#p1091d50cc9)" d="M 151.835646 307.584 
L 154.555695 307.584 
L 154.555695 278.820505 
L 151.835646 278.820505 
z
" style="fill:#1f77b4;"/>
   </g>
   <g id="patch_23">
    <path clip-path="url(#p1091d50cc9)" d="M 154.555695 307.584 
L 157.275751 307.584 
L 157.275751 277.428808 
L 154.555695 277.428808 
z
" style="fill:#1f77b4;"/>
   </g>
   <g id="patch_24">
    <path clip-path="url(#p1091d50cc9)" d="M 157.275751 307.584 
L 159.9958 307.584 
L 159.9958 269.309994 
L 157.275751 269.309994 
z
" style="fill:#1f77b4;"/>
   </g>
   <g id="patch_25">
    <path clip-path="url(#p1091d50cc9)" d="M 159.9958 307.584 
L 162.715848 307.584 
L 162.715848 275.109086 
L 159.9958 275.109086 
z
" style="fill:#1f77b4;"/>
   </g>
   <g id="patch_26">
    <path clip-path="url(#p1091d50cc9)" d="M 162.715841 307.584 
L 165.435897 307.584 
L 165.435897 265.366732 
L 162.715841 265.366732 
z
" style="fill:#1f77b4;"/>
   </g>
   <g id="patch_27">
    <path clip-path="url(#p1091d50cc9)" d="M 165.435905 307.584 
L 168.155953 307.584 
L 168.155953 263.278939 
L 165.435905 263.278939 
z
" style="fill:#1f77b4;"/>
   </g>
   <g id="patch_28">
    <path clip-path="url(#p1091d50cc9)" d="M 168.155953 307.584 
L 170.876002 307.584 
L 170.876002 266.758394 
L 168.155953 266.758394 
z
" style="fill:#1f77b4;"/>
   </g>
   <g id="patch_29">
    <path clip-path="url(#p1091d50cc9)" d="M 170.876002 307.584 
L 173.596054 307.584 
L 173.596054 263.974892 
L 170.876002 263.974892 
z
" style="fill:#1f77b4;"/>
   </g>
   <g id="patch_30">
    <path clip-path="url(#p1091d50cc9)" d="M 173.596058 307.584 
L 176.316111 307.584 
L 176.316111 263.974892 
L 173.596058 263.974892 
z
" style="fill:#1f77b4;"/>
   </g>
   <g id="patch_31">
    <path clip-path="url(#p1091d50cc9)" d="M 176.316107 307.584 
L 179.036159 307.584 
L 179.036159 263.279002 
L 176.316107 263.279002 
z
" style="fill:#1f77b4;"/>
   </g>
   <g id="patch_32">
    <path clip-path="url(#p1091d50cc9)" d="M 179.036159 307.584 
L 181.756208 307.584 
L 181.756208 258.871629 
L 179.036159 258.871629 
z
" style="fill:#1f77b4;"/>
   </g>
   <g id="patch_33">
    <path clip-path="url(#p1091d50cc9)" d="M 181.756212 307.584 
L 184.476264 307.584 
L 184.476264 261.655258 
L 181.756212 261.655258 
z
" style="fill:#1f77b4;"/>
   </g>
   <g id="patch_34">
    <path clip-path="url(#p1091d50cc9)" d="M 184.476261 307.584 
L 187.196309 307.584 
L 187.196309 257.247883 
L 184.476261 257.247883 
z
" style="fill:#1f77b4;"/>
   </g>
   <g id="patch_35">
    <path clip-path="url(#p1091d50cc9)" d="M 187.196309 307.584 
L 189.916362 307.584 
L 189.916362 258.871698 
L 187.196309 258.871698 
z
" style="fill:#1f77b4;"/>
   </g>
   <g id="patch_36">
    <path clip-path="url(#p1091d50cc9)" d="M 189.916366 307.584 
L 192.636418 307.584 
L 192.636418 250.521018 
L 189.916366 250.521018 
z
" style="fill:#1f77b4;"/>
   </g>
   <g id="patch_37">
    <path clip-path="url(#p1091d50cc9)" d="M 192.636414 307.584 
L 195.356463 307.584 
L 195.356463 248.2013 
L 192.636414 248.2013 
z
" style="fill:#1f77b4;"/>
   </g>
   <g id="patch_38">
    <path clip-path="url(#p1091d50cc9)" d="M 195.356463 307.584 
L 198.076515 307.584 
L 198.076515 244.721934 
L 195.356463 244.721934 
z
" style="fill:#1f77b4;"/>
   </g>
   <g id="patch_39">
    <path clip-path="url(#p1091d50cc9)" d="M 198.076519 307.584 
L 200.796572 307.584 
L 200.796572 238.922851 
L 198.076519 238.922851 
z
" style="fill:#1f77b4;"/>
   </g>
   <g id="patch_40">
    <path clip-path="url(#p1091d50cc9)" d="M 200.796568 307.584 
L 203.516617 307.584 
L 203.516617 234.747407 
L 200.796568 234.747407 
z
" style="fill:#1f77b4;"/>
   </g>
   <g id="patch_41">
    <path clip-path="url(#p1091d50cc9)" d="M 203.516617 307.584 
L 206.236669 307.584 
L 206.236669 234.747511 
L 203.516617 234.747511 
z
" style="fill:#1f77b4;"/>
   </g>
   <g id="patch_42">
    <path clip-path="url(#p1091d50cc9)" d="M 206.236669 307.584 
L 208.95672 307.584 
L 208.95672 234.515495 
L 206.236669 234.515495 
z
" style="fill:#1f77b4;"/>
   </g>
   <g id="patch_43">
    <path clip-path="url(#p1091d50cc9)" d="M 208.956722 307.584 
L 211.676772 307.584 
L 211.676772 234.515495 
L 208.956722 234.515495 
z
" style="fill:#1f77b4;"/>
   </g>
   <g id="patch_44">
    <path clip-path="url(#p1091d50cc9)" d="M 211.67677 307.584 
L 214.396823 307.584 
L 214.396823 241.010521 
L 211.67677 241.010521 
z
" style="fill:#1f77b4;"/>
   </g>
   <g id="patch_45">
    <path clip-path="url(#p1091d50cc9)" d="M 214.396823 307.584 
L 217.116873 307.584 
L 217.116873 234.051568 
L 214.396823 234.051568 
z
" style="fill:#1f77b4;"/>
   </g>
   <g id="patch_46">
    <path clip-path="url(#p1091d50cc9)" d="M 217.116875 307.584 
L 219.836926 307.584 
L 219.836926 226.628736 
L 217.116875 226.628736 
z
" style="fill:#1f77b4;"/>
   </g>
   <g id="patch_47">
    <path clip-path="url(#p1091d50cc9)" d="M 219.836924 307.584 
L 222.556975 307.584 
L 222.556975 218.973972 
L 219.836924 218.973972 
z
" style="fill:#1f77b4;"/>
   </g>
   <g id="patch_48">
    <path clip-path="url(#p1091d50cc9)" d="M 222.556974 307.584 
L 225.277026 307.584 
L 225.277026 216.422374 
L 222.556974 216.422374 
z
" style="fill:#1f77b4;"/>
   </g>
   <g id="patch_49">
    <path clip-path="url(#p1091d50cc9)" d="M 225.277027 307.584 
L 227.997077 307.584 
L 227.997077 221.061612 
L 225.277027 221.061612 
z
" style="fill:#1f77b4;"/>
   </g>
   <g id="patch_50">
    <path clip-path="url(#p1091d50cc9)" d="M 227.997077 307.584 
L 230.717129 307.584 
L 230.717129 211.319179 
L 227.997077 211.319179 
z
" style="fill:#1f77b4;"/>
   </g>
   <g id="patch_51">
    <path clip-path="url(#p1091d50cc9)" d="M 230.717129 307.584 
L 233.43718 307.584 
L 233.43718 187.194961 
L 230.717129 187.194961 
z
" style="fill:#1f77b4;"/>
   </g>
   <g id="patch_52">
    <path clip-path="url(#p1091d50cc9)" d="M 233.43718 307.584 
L 236.157231 307.584 
L 236.157231 205.984002 
L 233.43718 205.984002 
z
" style="fill:#1f77b4;"/>
   </g>
   <g id="patch_53">
    <path clip-path="url(#p1091d50cc9)" d="M 236.157231 307.584 
L 238.877282 307.584 
L 238.877282 109.719163 
L 236.157231 109.719163 
z
" style="fill:#1f77b4;"/>
   </g>
   <g id="patch_54">
    <path clip-path="url(#p1091d50cc9)" d="M 238.877282 307.584 
L 241.597333 307.584 
L 241.597333 200.184915 
L 238.877282 200.184915 
z
" style="fill:#1f77b4;"/>
   </g>
   <g id="patch_55">
    <path clip-path="url(#p1091d50cc9)" d="M 241.597333 307.584 
L 244.317385 307.584 
L 244.317385 206.911874 
L 241.597333 206.911874 
z
" style="fill:#1f77b4;"/>
   </g>
   <g id="patch_56">
    <path clip-path="url(#p1091d50cc9)" d="M 244.317385 307.584 
L 247.037435 307.584 
L 247.037435 215.494488 
L 244.317385 215.494488 
z
" style="fill:#1f77b4;"/>
   </g>
   <g id="patch_57">
    <path clip-path="url(#p1091d50cc9)" d="M 247.037435 307.584 
L 249.757487 307.584 
L 249.757487 215.262557 
L 247.037435 215.262557 
z
" style="fill:#1f77b4;"/>
   </g>
   <g id="patch_58">
    <path clip-path="url(#p1091d50cc9)" d="M 249.757486 307.584 
L 252.477538 307.584 
L 252.477538 209.695435 
L 249.757486 209.695435 
z
" style="fill:#1f77b4;"/>
   </g>
   <g id="patch_59">
    <path clip-path="url(#p1091d50cc9)" d="M 252.477538 307.584 
L 255.197589 307.584 
L 255.197589 215.726451 
L 252.477538 215.726451 
z
" style="fill:#1f77b4;"/>
   </g>
   <g id="patch_60">
    <path clip-path="url(#p1091d50cc9)" d="M 255.197591 307.584 
L 257.917641 307.584 
L 257.917641 227.55659 
L 255.197591 227.55659 
z
" style="fill:#1f77b4;"/>
   </g>
   <g id="patch_61">
    <path clip-path="url(#p1091d50cc9)" d="M 257.91764 307.584 
L 260.637692 307.584 
L 260.637692 226.39683 
L 257.91764 226.39683 
z
" style="fill:#1f77b4;"/>
   </g>
   <g id="patch_62">
    <path clip-path="url(#p1091d50cc9)" d="M 260.637692 307.584 
L 263.357743 307.584 
L 263.357743 230.340152 
L 260.637692 230.340152 
z
" style="fill:#1f77b4;"/>
   </g>
   <g id="patch_63">
    <path clip-path="url(#p1091d50cc9)" d="M 263.357745 307.584 
L 266.077795 307.584 
L 266.077795 230.340152 
L 263.357745 230.340152 
z
" style="fill:#1f77b4;"/>
   </g>
   <g id="patch_64">
    <path clip-path="url(#p1091d50cc9)" d="M 266.077793 307.584 
L 268.797846 307.584 
L 268.797846 245.417824 
L 266.077793 245.417824 
z
" style="fill:#1f77b4;"/>
   </g>
   <g id="patch_65">
    <path clip-path="url(#p1091d50cc9)" d="M 268.797846 307.584 
L 271.517894 307.584 
L 271.517894 240.778462 
L 268.797846 240.778462 
z
" style="fill:#1f77b4;"/>
   </g>
   <g id="patch_66">
    <path clip-path="url(#p1091d50cc9)" d="M 271.517894 307.584 
L 274.237947 307.584 
L 274.237947 247.737458 
L 271.517894 247.737458 
z
" style="fill:#1f77b4;"/>
   </g>
   <g id="patch_67">
    <path clip-path="url(#p1091d50cc9)" d="M 274.237951 307.584 
L 276.958003 307.584 
L 276.958003 244.953898 
L 274.237951 244.953898 
z
" style="fill:#1f77b4;"/>
   </g>
   <g id="patch_68">
    <path clip-path="url(#p1091d50cc9)" d="M 276.957999 307.584 
L 279.678048 307.584 
L 279.678048 252.840573 
L 276.957999 252.840573 
z
" style="fill:#1f77b4;"/>
   </g>
   <g id="patch_69">
    <path clip-path="url(#p1091d50cc9)" d="M 279.678048 307.584 
L 282.398101 307.584 
L 282.398101 252.144761 
L 279.678048 252.144761 
z
" style="fill:#1f77b4;"/>
   </g>
   <g id="patch_70">
    <path clip-path="url(#p1091d50cc9)" d="M 282.398104 307.584 
L 285.118157 307.584 
L 285.118157 252.840651 
L 282.398104 252.840651 
z
" style="fill:#1f77b4;"/>
   </g>
   <g id="patch_71">
    <path clip-path="url(#p1091d50cc9)" d="M 285.118153 307.584 
L 287.838202 307.584 
L 287.838202 265.598575 
L 285.118153 265.598575 
z
" style="fill:#1f77b4;"/>
   </g>
   <g id="patch_72">
    <path clip-path="url(#p1091d50cc9)" d="M 287.838202 307.584 
L 290.558254 307.584 
L 290.558254 268.614158 
L 287.838202 268.614158 
z
" style="fill:#1f77b4;"/>
   </g>
   <g id="patch_73">
    <path clip-path="url(#p1091d50cc9)" d="M 290.558254 307.584 
L 293.278303 307.584 
L 293.278303 271.861594 
L 290.558254 271.861594 
z
" style="fill:#1f77b4;"/>
   </g>
   <g id="patch_74">
    <path clip-path="url(#p1091d50cc9)" d="M 293.278307 307.584 
L 295.998359 307.584 
L 295.998359 274.181279 
L 293.278307 274.181279 
z
" style="fill:#1f77b4;"/>
   </g>
   <g id="patch_75">
    <path clip-path="url(#p1091d50cc9)" d="M 295.998355 307.584 
L 298.718408 307.584 
L 298.718408 269.542012 
L 295.998355 269.542012 
z
" style="fill:#1f77b4;"/>
   </g>
   <g id="patch_76">
    <path clip-path="url(#p1091d50cc9)" d="M 298.718412 307.584 
L 301.43846 307.584 
L 301.43846 277.428765 
L 298.718412 277.428765 
z
" style="fill:#1f77b4;"/>
   </g>
   <g id="patch_77">
    <path clip-path="url(#p1091d50cc9)" d="M 301.43846 307.584 
L 304.158509 307.584 
L 304.158509 273.253376 
L 301.43846 273.253376 
z
" style="fill:#1f77b4;"/>
   </g>
   <g id="patch_78">
    <path clip-path="url(#p1091d50cc9)" d="M 304.158509 307.584 
L 306.878558 307.584 
L 306.878558 270.469812 
L 304.158509 270.469812 
z
" style="fill:#1f77b4;"/>
   </g>
   <g id="patch_79">
    <path clip-path="url(#p1091d50cc9)" d="M 306.878558 307.584 
L 309.598614 307.584 
L 309.598614 277.428808 
L 306.878558 277.428808 
z
" style="fill:#1f77b4;"/>
   </g>
   <g id="patch_80">
    <path clip-path="url(#p1091d50cc9)" d="M 309.598614 307.584 
L 312.318663 307.584 
L 312.318663 277.660686 
L 309.598614 277.660686 
z
" style="fill:#1f77b4;"/>
   </g>
   <g id="patch_81">
    <path clip-path="url(#p1091d50cc9)" d="M 312.318663 307.584 
L 315.038711 307.584 
L 315.038711 277.428723 
L 312.318663 277.428723 
z
" style="fill:#1f77b4;"/>
   </g>
   <g id="patch_82">
    <path clip-path="url(#p1091d50cc9)" d="M 315.038703 307.584 
L 317.75876 307.584 
L 317.75876 280.444328 
L 315.038703 280.444328 
z
" style="fill:#1f77b4;"/>
   </g>
   <g id="patch_83">
    <path clip-path="url(#p1091d50cc9)" d="M 317.758768 307.584 
L 320.478816 307.584 
L 320.478816 282.29996 
L 317.758768 282.29996 
z
" style="fill:#1f77b4;"/>
   </g>
   <g id="patch_84">
    <path clip-path="url(#p1091d50cc9)" d="M 320.478816 307.584 
L 323.198865 307.584 
L 323.198865 284.619596 
L 320.478816 284.619596 
z
" style="fill:#1f77b4;"/>
   </g>
   <g id="patch_85">
    <path clip-path="url(#p1091d50cc9)" d="M 323.198865 307.584 
L 325.918921 307.584 
L 325.918921 285.547514 
L 323.198865 285.547514 
z
" style="fill:#1f77b4;"/>
   </g>
   <g id="patch_86">
    <path clip-path="url(#p1091d50cc9)" d="M 325.918921 307.584 
L 328.63897 307.584 
L 328.63897 289.954761 
L 325.918921 289.954761 
z
" style="fill:#1f77b4;"/>
   </g>
   <g id="patch_87">
    <path clip-path="url(#p1091d50cc9)" d="M 328.63897 307.584 
L 331.359019 307.584 
L 331.359019 288.099052 
L 328.63897 288.099052 
z
" style="fill:#1f77b4;"/>
   </g>
   <g id="patch_88">
    <path clip-path="url(#p1091d50cc9)" d="M 331.359011 307.584 
L 334.079067 307.584 
L 334.079067 290.418737 
L 331.359011 290.418737 
z
" style="fill:#1f77b4;"/>
   </g>
   <g id="patch_89">
    <path clip-path="url(#p1091d50cc9)" d="M 334.079075 307.584 
L 336.799124 307.584 
L 336.799124 291.81047 
L 334.079075 291.81047 
z
" style="fill:#1f77b4;"/>
   </g>
   <g id="patch_90">
    <path clip-path="url(#p1091d50cc9)" d="M 336.799124 307.584 
L 339.519172 307.584 
L 339.519172 294.130107 
L 336.799124 294.130107 
z
" style="fill:#1f77b4;"/>
   </g>
   <g id="patch_91">
    <path clip-path="url(#p1091d50cc9)" d="M 339.519172 307.584 
L 342.239221 307.584 
L 342.239221 297.377598 
L 339.519172 297.377598 
z
" style="fill:#1f77b4;"/>
   </g>
   <g id="patch_92">
    <path clip-path="url(#p1091d50cc9)" d="M 342.239221 307.584 
L 344.959277 307.584 
L 344.959277 298.073516 
L 342.239221 298.073516 
z
" style="fill:#1f77b4;"/>
   </g>
   <g id="patch_93">
    <path clip-path="url(#p1091d50cc9)" d="M 344.959277 307.584 
L 347.679326 307.584 
L 347.679326 298.537417 
L 344.959277 298.537417 
z
" style="fill:#1f77b4;"/>
   </g>
   <g id="patch_94">
    <path clip-path="url(#p1091d50cc9)" d="M 347.679326 307.584 
L 350.399374 307.584 
L 350.399374 301.089017 
L 347.679326 301.089017 
z
" style="fill:#1f77b4;"/>
   </g>
   <g id="patch_95">
    <path clip-path="url(#p1091d50cc9)" d="M 350.399367 307.584 
L 353.119423 307.584 
L 353.119423 298.537443 
L 350.399367 298.537443 
z
" style="fill:#1f77b4;"/>
   </g>
   <g id="patch_96">
    <path clip-path="url(#p1091d50cc9)" d="M 353.119431 307.584 
L 355.839479 307.584 
L 355.839479 301.784908 
L 353.119431 301.784908 
z
" style="fill:#1f77b4;"/>
   </g>
   <g id="patch_97">
    <path clip-path="url(#p1091d50cc9)" d="M 355.839479 307.584 
L 358.559528 307.584 
L 358.559528 303.17669 
L 355.839479 303.17669 
z
" style="fill:#1f77b4;"/>
   </g>
   <g id="patch_98">
    <path clip-path="url(#p1091d50cc9)" d="M 358.559528 307.584 
L 361.279584 307.584 
L 361.279584 304.568481 
L 358.559528 304.568481 
z
" style="fill:#1f77b4;"/>
   </g>
   <g id="patch_99">
    <path clip-path="url(#p1091d50cc9)" d="M 361.279584 307.584 
L 363.999633 307.584 
L 363.999633 304.336509 
L 361.279584 304.336509 
z
" style="fill:#1f77b4;"/>
   </g>
   <g id="patch_100">
    <path clip-path="url(#p1091d50cc9)" d="M 363.999625 307.584 
L 366.719674 307.584 
L 366.719674 305.032407 
L 363.999625 305.032407 
z
" style="fill:#1f77b4;"/>
   </g>
   <g id="patch_101">
    <path clip-path="url(#p1091d50cc9)" d="M 366.719705 307.584 
L 369.439754 307.584 
L 369.439754 305.960254 
L 366.719705 305.960254 
z
" style="fill:#1f77b4;"/>
   </g>
   <g id="patch_102">
    <path clip-path="url(#p1091d50cc9)" d="M 369.439738 307.584 
L 372.159787 307.584 
L 372.159787 304.800436 
L 369.439738 304.800436 
z
" style="fill:#1f77b4;"/>
   </g>
   <g id="matplotlib.axis_1">
    <g id="xtick_1">
     <g id="line2d_1">
      <defs>
       <path d="M 0 0 
L 0 3.5 
" id="m964d884aa0" style="stroke:#000000;stroke-width:0.8;"/>
      </defs>
      <g>
       <use style="stroke:#000000;stroke-width:0.8;" x="106.298993" xlink:href="#m964d884aa0" y="307.584"/>
      </g>
     </g>
     <g id="text_1">
      <!-- −2 -->
      <defs>
       <path d="M 10.59375 35.5 
L 73.1875 35.5 
L 73.1875 27.203125 
L 10.59375 27.203125 
z
" id="DejaVuSans-8722"/>
       <path d="M 19.1875 8.296875 
L 53.609375 8.296875 
L 53.609375 0 
L 7.328125 0 
L 7.328125 8.296875 
Q 12.9375 14.109375 22.625 23.890625 
Q 32.328125 33.6875 34.8125 36.53125 
Q 39.546875 41.84375 41.421875 45.53125 
Q 43.3125 49.21875 43.3125 52.78125 
Q 43.3125 58.59375 39.234375 62.25 
Q 35.15625 65.921875 28.609375 65.921875 
Q 23.96875 65.921875 18.8125 64.3125 
Q 13.671875 62.703125 7.8125 59.421875 
L 7.8125 69.390625 
Q 13.765625 71.78125 18.9375 73 
Q 24.125 74.21875 28.421875 74.21875 
Q 39.75 74.21875 46.484375 68.546875 
Q 53.21875 62.890625 53.21875 53.421875 
Q 53.21875 48.921875 51.53125 44.890625 
Q 49.859375 40.875 45.40625 35.40625 
Q 44.1875 33.984375 37.640625 27.21875 
Q 31.109375 20.453125 19.1875 8.296875 
z
" id="DejaVuSans-50"/>
      </defs>
      <g transform="translate(93.768134 327.501344)scale(0.17 -0.17)">
       <use xlink:href="#DejaVuSans-8722"/>
       <use x="83.789062" xlink:href="#DejaVuSans-50"/>
      </g>
     </g>
    </g>
    <g id="xtick_2">
     <g id="line2d_2">
      <g>
       <use style="stroke:#000000;stroke-width:0.8;" x="171.231526" xlink:href="#m964d884aa0" y="307.584"/>
      </g>
     </g>
     <g id="text_2">
      <!-- −1 -->
      <defs>
       <path d="M 12.40625 8.296875 
L 28.515625 8.296875 
L 28.515625 63.921875 
L 10.984375 60.40625 
L 10.984375 69.390625 
L 28.421875 72.90625 
L 38.28125 72.90625 
L 38.28125 8.296875 
L 54.390625 8.296875 
L 54.390625 0 
L 12.40625 0 
z
" id="DejaVuSans-49"/>
      </defs>
      <g transform="translate(158.700667 327.501344)scale(0.17 -0.17)">
       <use xlink:href="#DejaVuSans-8722"/>
       <use x="83.789062" xlink:href="#DejaVuSans-49"/>
      </g>
     </g>
    </g>
    <g id="xtick_3">
     <g id="line2d_3">
      <g>
       <use style="stroke:#000000;stroke-width:0.8;" x="236.164058" xlink:href="#m964d884aa0" y="307.584"/>
      </g>
     </g>
     <g id="text_3">
      <!-- 0 -->
      <defs>
       <path d="M 31.78125 66.40625 
Q 24.171875 66.40625 20.328125 58.90625 
Q 16.5 51.421875 16.5 36.375 
Q 16.5 21.390625 20.328125 13.890625 
Q 24.171875 6.390625 31.78125 6.390625 
Q 39.453125 6.390625 43.28125 13.890625 
Q 47.125 21.390625 47.125 36.375 
Q 47.125 51.421875 43.28125 58.90625 
Q 39.453125 66.40625 31.78125 66.40625 
z
M 31.78125 74.21875 
Q 44.046875 74.21875 50.515625 64.515625 
Q 56.984375 54.828125 56.984375 36.375 
Q 56.984375 17.96875 50.515625 8.265625 
Q 44.046875 -1.421875 31.78125 -1.421875 
Q 19.53125 -1.421875 13.0625 8.265625 
Q 6.59375 17.96875 6.59375 36.375 
Q 6.59375 54.828125 13.0625 64.515625 
Q 19.53125 74.21875 31.78125 74.21875 
z
" id="DejaVuSans-48"/>
      </defs>
      <g transform="translate(230.755933 327.501344)scale(0.17 -0.17)">
       <use xlink:href="#DejaVuSans-48"/>
      </g>
     </g>
    </g>
    <g id="xtick_4">
     <g id="line2d_4">
      <g>
       <use style="stroke:#000000;stroke-width:0.8;" x="301.096591" xlink:href="#m964d884aa0" y="307.584"/>
      </g>
     </g>
     <g id="text_4">
      <!-- 1 -->
      <g transform="translate(295.688466 327.501344)scale(0.17 -0.17)">
       <use xlink:href="#DejaVuSans-49"/>
      </g>
     </g>
    </g>
    <g id="xtick_5">
     <g id="line2d_5">
      <g>
       <use style="stroke:#000000;stroke-width:0.8;" x="366.029123" xlink:href="#m964d884aa0" y="307.584"/>
      </g>
     </g>
     <g id="text_5">
      <!-- 2 -->
      <g transform="translate(360.620998 327.501344)scale(0.17 -0.17)">
       <use xlink:href="#DejaVuSans-50"/>
      </g>
     </g>
    </g>
    <g id="text_6">
     <!-- Position in Radian -->
     <defs>
      <path d="M 19.671875 64.796875 
L 19.671875 37.40625 
L 32.078125 37.40625 
Q 38.96875 37.40625 42.71875 40.96875 
Q 46.484375 44.53125 46.484375 51.125 
Q 46.484375 57.671875 42.71875 61.234375 
Q 38.96875 64.796875 32.078125 64.796875 
z
M 9.8125 72.90625 
L 32.078125 72.90625 
Q 44.34375 72.90625 50.609375 67.359375 
Q 56.890625 61.8125 56.890625 51.125 
Q 56.890625 40.328125 50.609375 34.8125 
Q 44.34375 29.296875 32.078125 29.296875 
L 19.671875 29.296875 
L 19.671875 0 
L 9.8125 0 
z
" id="DejaVuSans-80"/>
      <path d="M 30.609375 48.390625 
Q 23.390625 48.390625 19.1875 42.75 
Q 14.984375 37.109375 14.984375 27.296875 
Q 14.984375 17.484375 19.15625 11.84375 
Q 23.34375 6.203125 30.609375 6.203125 
Q 37.796875 6.203125 41.984375 11.859375 
Q 46.1875 17.53125 46.1875 27.296875 
Q 46.1875 37.015625 41.984375 42.703125 
Q 37.796875 48.390625 30.609375 48.390625 
z
M 30.609375 56 
Q 42.328125 56 49.015625 48.375 
Q 55.71875 40.765625 55.71875 27.296875 
Q 55.71875 13.875 49.015625 6.21875 
Q 42.328125 -1.421875 30.609375 -1.421875 
Q 18.84375 -1.421875 12.171875 6.21875 
Q 5.515625 13.875 5.515625 27.296875 
Q 5.515625 40.765625 12.171875 48.375 
Q 18.84375 56 30.609375 56 
z
" id="DejaVuSans-111"/>
      <path d="M 44.28125 53.078125 
L 44.28125 44.578125 
Q 40.484375 46.53125 36.375 47.5 
Q 32.28125 48.484375 27.875 48.484375 
Q 21.1875 48.484375 17.84375 46.4375 
Q 14.5 44.390625 14.5 40.28125 
Q 14.5 37.15625 16.890625 35.375 
Q 19.28125 33.59375 26.515625 31.984375 
L 29.59375 31.296875 
Q 39.15625 29.25 43.1875 25.515625 
Q 47.21875 21.78125 47.21875 15.09375 
Q 47.21875 7.46875 41.1875 3.015625 
Q 35.15625 -1.421875 24.609375 -1.421875 
Q 20.21875 -1.421875 15.453125 -0.5625 
Q 10.6875 0.296875 5.421875 2 
L 5.421875 11.28125 
Q 10.40625 8.6875 15.234375 7.390625 
Q 20.0625 6.109375 24.8125 6.109375 
Q 31.15625 6.109375 34.5625 8.28125 
Q 37.984375 10.453125 37.984375 14.40625 
Q 37.984375 18.0625 35.515625 20.015625 
Q 33.0625 21.96875 24.703125 23.78125 
L 21.578125 24.515625 
Q 13.234375 26.265625 9.515625 29.90625 
Q 5.8125 33.546875 5.8125 39.890625 
Q 5.8125 47.609375 11.28125 51.796875 
Q 16.75 56 26.8125 56 
Q 31.78125 56 36.171875 55.265625 
Q 40.578125 54.546875 44.28125 53.078125 
z
" id="DejaVuSans-115"/>
      <path d="M 9.421875 54.6875 
L 18.40625 54.6875 
L 18.40625 0 
L 9.421875 0 
z
M 9.421875 75.984375 
L 18.40625 75.984375 
L 18.40625 64.59375 
L 9.421875 64.59375 
z
" id="DejaVuSans-105"/>
      <path d="M 18.3125 70.21875 
L 18.3125 54.6875 
L 36.8125 54.6875 
L 36.8125 47.703125 
L 18.3125 47.703125 
L 18.3125 18.015625 
Q 18.3125 11.328125 20.140625 9.421875 
Q 21.96875 7.515625 27.59375 7.515625 
L 36.8125 7.515625 
L 36.8125 0 
L 27.59375 0 
Q 17.1875 0 13.234375 3.875 
Q 9.28125 7.765625 9.28125 18.015625 
L 9.28125 47.703125 
L 2.6875 47.703125 
L 2.6875 54.6875 
L 9.28125 54.6875 
L 9.28125 70.21875 
z
" id="DejaVuSans-116"/>
      <path d="M 54.890625 33.015625 
L 54.890625 0 
L 45.90625 0 
L 45.90625 32.71875 
Q 45.90625 40.484375 42.875 44.328125 
Q 39.84375 48.1875 33.796875 48.1875 
Q 26.515625 48.1875 22.3125 43.546875 
Q 18.109375 38.921875 18.109375 30.90625 
L 18.109375 0 
L 9.078125 0 
L 9.078125 54.6875 
L 18.109375 54.6875 
L 18.109375 46.1875 
Q 21.34375 51.125 25.703125 53.5625 
Q 30.078125 56 35.796875 56 
Q 45.21875 56 50.046875 50.171875 
Q 54.890625 44.34375 54.890625 33.015625 
z
" id="DejaVuSans-110"/>
      <path id="DejaVuSans-32"/>
      <path d="M 44.390625 34.1875 
Q 47.5625 33.109375 50.5625 29.59375 
Q 53.5625 26.078125 56.59375 19.921875 
L 66.609375 0 
L 56 0 
L 46.6875 18.703125 
Q 43.0625 26.03125 39.671875 28.421875 
Q 36.28125 30.8125 30.421875 30.8125 
L 19.671875 30.8125 
L 19.671875 0 
L 9.8125 0 
L 9.8125 72.90625 
L 32.078125 72.90625 
Q 44.578125 72.90625 50.734375 67.671875 
Q 56.890625 62.453125 56.890625 51.90625 
Q 56.890625 45.015625 53.6875 40.46875 
Q 50.484375 35.9375 44.390625 34.1875 
z
M 19.671875 64.796875 
L 19.671875 38.921875 
L 32.078125 38.921875 
Q 39.203125 38.921875 42.84375 42.21875 
Q 46.484375 45.515625 46.484375 51.90625 
Q 46.484375 58.296875 42.84375 61.546875 
Q 39.203125 64.796875 32.078125 64.796875 
z
" id="DejaVuSans-82"/>
      <path d="M 34.28125 27.484375 
Q 23.390625 27.484375 19.1875 25 
Q 14.984375 22.515625 14.984375 16.5 
Q 14.984375 11.71875 18.140625 8.90625 
Q 21.296875 6.109375 26.703125 6.109375 
Q 34.1875 6.109375 38.703125 11.40625 
Q 43.21875 16.703125 43.21875 25.484375 
L 43.21875 27.484375 
z
M 52.203125 31.203125 
L 52.203125 0 
L 43.21875 0 
L 43.21875 8.296875 
Q 40.140625 3.328125 35.546875 0.953125 
Q 30.953125 -1.421875 24.3125 -1.421875 
Q 15.921875 -1.421875 10.953125 3.296875 
Q 6 8.015625 6 15.921875 
Q 6 25.140625 12.171875 29.828125 
Q 18.359375 34.515625 30.609375 34.515625 
L 43.21875 34.515625 
L 43.21875 35.40625 
Q 43.21875 41.609375 39.140625 45 
Q 35.0625 48.390625 27.6875 48.390625 
Q 23 48.390625 18.546875 47.265625 
Q 14.109375 46.140625 10.015625 43.890625 
L 10.015625 52.203125 
Q 14.9375 54.109375 19.578125 55.046875 
Q 24.21875 56 28.609375 56 
Q 40.484375 56 46.34375 49.84375 
Q 52.203125 43.703125 52.203125 31.203125 
z
" id="DejaVuSans-97"/>
      <path d="M 45.40625 46.390625 
L 45.40625 75.984375 
L 54.390625 75.984375 
L 54.390625 0 
L 45.40625 0 
L 45.40625 8.203125 
Q 42.578125 3.328125 38.25 0.953125 
Q 33.9375 -1.421875 27.875 -1.421875 
Q 17.96875 -1.421875 11.734375 6.484375 
Q 5.515625 14.40625 5.515625 27.296875 
Q 5.515625 40.1875 11.734375 48.09375 
Q 17.96875 56 27.875 56 
Q 33.9375 56 38.25 53.625 
Q 42.578125 51.265625 45.40625 46.390625 
z
M 14.796875 27.296875 
Q 14.796875 17.390625 18.875 11.75 
Q 22.953125 6.109375 30.078125 6.109375 
Q 37.203125 6.109375 41.296875 11.75 
Q 45.40625 17.390625 45.40625 27.296875 
Q 45.40625 37.203125 41.296875 42.84375 
Q 37.203125 48.484375 30.078125 48.484375 
Q 22.953125 48.484375 18.875 42.84375 
Q 14.796875 37.203125 14.796875 27.296875 
z
" id="DejaVuSans-100"/>
     </defs>
     <g transform="translate(102.024844 357.832125)scale(0.3 -0.3)">
      <use xlink:href="#DejaVuSans-80"/>
      <use x="60.255859" xlink:href="#DejaVuSans-111"/>
      <use x="121.4375" xlink:href="#DejaVuSans-115"/>
      <use x="173.537109" xlink:href="#DejaVuSans-105"/>
      <use x="201.320312" xlink:href="#DejaVuSans-116"/>
      <use x="240.529297" xlink:href="#DejaVuSans-105"/>
      <use x="268.3125" xlink:href="#DejaVuSans-111"/>
      <use x="329.494141" xlink:href="#DejaVuSans-110"/>
      <use x="392.873047" xlink:href="#DejaVuSans-32"/>
      <use x="424.660156" xlink:href="#DejaVuSans-105"/>
      <use x="452.443359" xlink:href="#DejaVuSans-110"/>
      <use x="515.822266" xlink:href="#DejaVuSans-32"/>
      <use x="547.609375" xlink:href="#DejaVuSans-82"/>
      <use x="617.060547" xlink:href="#DejaVuSans-97"/>
      <use x="678.339844" xlink:href="#DejaVuSans-100"/>
      <use x="741.816406" xlink:href="#DejaVuSans-105"/>
      <use x="769.599609" xlink:href="#DejaVuSans-97"/>
      <use x="830.878906" xlink:href="#DejaVuSans-110"/>
     </g>
    </g>
   </g>
   <g id="matplotlib.axis_2">
    <g id="ytick_1">
     <g id="line2d_6">
      <defs>
       <path d="M 0 0 
L -3.5 0 
" id="m61a5a9ac42" style="stroke:#000000;stroke-width:0.8;"/>
      </defs>
      <g>
       <use style="stroke:#000000;stroke-width:0.8;" x="57.6" xlink:href="#m61a5a9ac42" y="307.584"/>
      </g>
     </g>
     <g id="text_7">
      <!-- 0.0 -->
      <defs>
       <path d="M 10.6875 12.40625 
L 21 12.40625 
L 21 0 
L 10.6875 0 
z
" id="DejaVuSans-46"/>
      </defs>
      <g transform="translate(23.564687 314.042672)scale(0.17 -0.17)">
       <use xlink:href="#DejaVuSans-48"/>
       <use x="63.623047" xlink:href="#DejaVuSans-46"/>
       <use x="95.410156" xlink:href="#DejaVuSans-48"/>
      </g>
     </g>
    </g>
    <g id="ytick_2">
     <g id="line2d_7">
      <g>
       <use style="stroke:#000000;stroke-width:0.8;" x="57.6" xlink:href="#m61a5a9ac42" y="268.715812"/>
      </g>
     </g>
     <g id="text_8">
      <!-- 0.2 -->
      <g transform="translate(23.564687 275.174484)scale(0.17 -0.17)">
       <use xlink:href="#DejaVuSans-48"/>
       <use x="63.623047" xlink:href="#DejaVuSans-46"/>
       <use x="95.410156" xlink:href="#DejaVuSans-50"/>
      </g>
     </g>
    </g>
    <g id="ytick_3">
     <g id="line2d_8">
      <g>
       <use style="stroke:#000000;stroke-width:0.8;" x="57.6" xlink:href="#m61a5a9ac42" y="229.847624"/>
      </g>
     </g>
     <g id="text_9">
      <!-- 0.4 -->
      <defs>
       <path d="M 37.796875 64.3125 
L 12.890625 25.390625 
L 37.796875 25.390625 
z
M 35.203125 72.90625 
L 47.609375 72.90625 
L 47.609375 25.390625 
L 58.015625 25.390625 
L 58.015625 17.1875 
L 47.609375 17.1875 
L 47.609375 0 
L 37.796875 0 
L 37.796875 17.1875 
L 4.890625 17.1875 
L 4.890625 26.703125 
z
" id="DejaVuSans-52"/>
      </defs>
      <g transform="translate(23.564687 236.306296)scale(0.17 -0.17)">
       <use xlink:href="#DejaVuSans-48"/>
       <use x="63.623047" xlink:href="#DejaVuSans-46"/>
       <use x="95.410156" xlink:href="#DejaVuSans-52"/>
      </g>
     </g>
    </g>
    <g id="ytick_4">
     <g id="line2d_9">
      <g>
       <use style="stroke:#000000;stroke-width:0.8;" x="57.6" xlink:href="#m61a5a9ac42" y="190.979436"/>
      </g>
     </g>
     <g id="text_10">
      <!-- 0.6 -->
      <defs>
       <path d="M 33.015625 40.375 
Q 26.375 40.375 22.484375 35.828125 
Q 18.609375 31.296875 18.609375 23.390625 
Q 18.609375 15.53125 22.484375 10.953125 
Q 26.375 6.390625 33.015625 6.390625 
Q 39.65625 6.390625 43.53125 10.953125 
Q 47.40625 15.53125 47.40625 23.390625 
Q 47.40625 31.296875 43.53125 35.828125 
Q 39.65625 40.375 33.015625 40.375 
z
M 52.59375 71.296875 
L 52.59375 62.3125 
Q 48.875 64.0625 45.09375 64.984375 
Q 41.3125 65.921875 37.59375 65.921875 
Q 27.828125 65.921875 22.671875 59.328125 
Q 17.53125 52.734375 16.796875 39.40625 
Q 19.671875 43.65625 24.015625 45.921875 
Q 28.375 48.1875 33.59375 48.1875 
Q 44.578125 48.1875 50.953125 41.515625 
Q 57.328125 34.859375 57.328125 23.390625 
Q 57.328125 12.15625 50.6875 5.359375 
Q 44.046875 -1.421875 33.015625 -1.421875 
Q 20.359375 -1.421875 13.671875 8.265625 
Q 6.984375 17.96875 6.984375 36.375 
Q 6.984375 53.65625 15.1875 63.9375 
Q 23.390625 74.21875 37.203125 74.21875 
Q 40.921875 74.21875 44.703125 73.484375 
Q 48.484375 72.75 52.59375 71.296875 
z
" id="DejaVuSans-54"/>
      </defs>
      <g transform="translate(23.564687 197.438108)scale(0.17 -0.17)">
       <use xlink:href="#DejaVuSans-48"/>
       <use x="63.623047" xlink:href="#DejaVuSans-46"/>
       <use x="95.410156" xlink:href="#DejaVuSans-54"/>
      </g>
     </g>
    </g>
    <g id="ytick_5">
     <g id="line2d_10">
      <g>
       <use style="stroke:#000000;stroke-width:0.8;" x="57.6" xlink:href="#m61a5a9ac42" y="152.111248"/>
      </g>
     </g>
     <g id="text_11">
      <!-- 0.8 -->
      <defs>
       <path d="M 31.78125 34.625 
Q 24.75 34.625 20.71875 30.859375 
Q 16.703125 27.09375 16.703125 20.515625 
Q 16.703125 13.921875 20.71875 10.15625 
Q 24.75 6.390625 31.78125 6.390625 
Q 38.8125 6.390625 42.859375 10.171875 
Q 46.921875 13.96875 46.921875 20.515625 
Q 46.921875 27.09375 42.890625 30.859375 
Q 38.875 34.625 31.78125 34.625 
z
M 21.921875 38.8125 
Q 15.578125 40.375 12.03125 44.71875 
Q 8.5 49.078125 8.5 55.328125 
Q 8.5 64.0625 14.71875 69.140625 
Q 20.953125 74.21875 31.78125 74.21875 
Q 42.671875 74.21875 48.875 69.140625 
Q 55.078125 64.0625 55.078125 55.328125 
Q 55.078125 49.078125 51.53125 44.71875 
Q 48 40.375 41.703125 38.8125 
Q 48.828125 37.15625 52.796875 32.3125 
Q 56.78125 27.484375 56.78125 20.515625 
Q 56.78125 9.90625 50.3125 4.234375 
Q 43.84375 -1.421875 31.78125 -1.421875 
Q 19.734375 -1.421875 13.25 4.234375 
Q 6.78125 9.90625 6.78125 20.515625 
Q 6.78125 27.484375 10.78125 32.3125 
Q 14.796875 37.15625 21.921875 38.8125 
z
M 18.3125 54.390625 
Q 18.3125 48.734375 21.84375 45.5625 
Q 25.390625 42.390625 31.78125 42.390625 
Q 38.140625 42.390625 41.71875 45.5625 
Q 45.3125 48.734375 45.3125 54.390625 
Q 45.3125 60.0625 41.71875 63.234375 
Q 38.140625 66.40625 31.78125 66.40625 
Q 25.390625 66.40625 21.84375 63.234375 
Q 18.3125 60.0625 18.3125 54.390625 
z
" id="DejaVuSans-56"/>
      </defs>
      <g transform="translate(23.564687 158.569919)scale(0.17 -0.17)">
       <use xlink:href="#DejaVuSans-48"/>
       <use x="63.623047" xlink:href="#DejaVuSans-46"/>
       <use x="95.410156" xlink:href="#DejaVuSans-56"/>
      </g>
     </g>
    </g>
    <g id="ytick_6">
     <g id="line2d_11">
      <g>
       <use style="stroke:#000000;stroke-width:0.8;" x="57.6" xlink:href="#m61a5a9ac42" y="113.24306"/>
      </g>
     </g>
     <g id="text_12">
      <!-- 1.0 -->
      <g transform="translate(23.564687 119.701731)scale(0.17 -0.17)">
       <use xlink:href="#DejaVuSans-49"/>
       <use x="63.623047" xlink:href="#DejaVuSans-46"/>
       <use x="95.410156" xlink:href="#DejaVuSans-48"/>
      </g>
     </g>
    </g>
    <g id="ytick_7">
     <g id="line2d_12">
      <g>
       <use style="stroke:#000000;stroke-width:0.8;" x="57.6" xlink:href="#m61a5a9ac42" y="74.374871"/>
      </g>
     </g>
     <g id="text_13">
      <!-- 1.2 -->
      <g transform="translate(23.564687 80.833543)scale(0.17 -0.17)">
       <use xlink:href="#DejaVuSans-49"/>
       <use x="63.623047" xlink:href="#DejaVuSans-46"/>
       <use x="95.410156" xlink:href="#DejaVuSans-50"/>
      </g>
     </g>
    </g>
    <g id="text_14">
     <!-- Density -->
     <defs>
      <path d="M 19.671875 64.796875 
L 19.671875 8.109375 
L 31.59375 8.109375 
Q 46.6875 8.109375 53.6875 14.9375 
Q 60.6875 21.78125 60.6875 36.53125 
Q 60.6875 51.171875 53.6875 57.984375 
Q 46.6875 64.796875 31.59375 64.796875 
z
M 9.8125 72.90625 
L 30.078125 72.90625 
Q 51.265625 72.90625 61.171875 64.09375 
Q 71.09375 55.28125 71.09375 36.53125 
Q 71.09375 17.671875 61.125 8.828125 
Q 51.171875 0 30.078125 0 
L 9.8125 0 
z
" id="DejaVuSans-68"/>
      <path d="M 56.203125 29.59375 
L 56.203125 25.203125 
L 14.890625 25.203125 
Q 15.484375 15.921875 20.484375 11.0625 
Q 25.484375 6.203125 34.421875 6.203125 
Q 39.59375 6.203125 44.453125 7.46875 
Q 49.3125 8.734375 54.109375 11.28125 
L 54.109375 2.78125 
Q 49.265625 0.734375 44.1875 -0.34375 
Q 39.109375 -1.421875 33.890625 -1.421875 
Q 20.796875 -1.421875 13.15625 6.1875 
Q 5.515625 13.8125 5.515625 26.8125 
Q 5.515625 40.234375 12.765625 48.109375 
Q 20.015625 56 32.328125 56 
Q 43.359375 56 49.78125 48.890625 
Q 56.203125 41.796875 56.203125 29.59375 
z
M 47.21875 32.234375 
Q 47.125 39.59375 43.09375 43.984375 
Q 39.0625 48.390625 32.421875 48.390625 
Q 24.90625 48.390625 20.390625 44.140625 
Q 15.875 39.890625 15.1875 32.171875 
z
" id="DejaVuSans-101"/>
      <path d="M 32.171875 -5.078125 
Q 28.375 -14.84375 24.75 -17.8125 
Q 21.140625 -20.796875 15.09375 -20.796875 
L 7.90625 -20.796875 
L 7.90625 -13.28125 
L 13.1875 -13.28125 
Q 16.890625 -13.28125 18.9375 -11.515625 
Q 21 -9.765625 23.484375 -3.21875 
L 25.09375 0.875 
L 2.984375 54.6875 
L 12.5 54.6875 
L 29.59375 11.921875 
L 46.6875 54.6875 
L 56.203125 54.6875 
z
" id="DejaVuSans-121"/>
     </defs>
     <g transform="translate(13.325625 231.553781)rotate(-90)scale(0.3 -0.3)">
      <use xlink:href="#DejaVuSans-68"/>
      <use x="77.001953" xlink:href="#DejaVuSans-101"/>
      <use x="138.525391" xlink:href="#DejaVuSans-110"/>
      <use x="201.904297" xlink:href="#DejaVuSans-115"/>
      <use x="254.003906" xlink:href="#DejaVuSans-105"/>
      <use x="281.787109" xlink:href="#DejaVuSans-116"/>
      <use x="320.996094" xlink:href="#DejaVuSans-121"/>
     </g>
    </g>
   </g>
   <g id="line2d_13">
    <path clip-path="url(#p1091d50cc9)" d="M 73.832727 307.584 
L 98.239243 307.474766 
L 98.531439 307.199152 
L 98.783053 306.610969 
L 99.059016 305.300731 
L 99.391795 302.472354 
L 100.63363 290.477447 
L 100.925826 289.91117 
L 101.193673 289.808623 
L 101.477753 289.943569 
L 101.891698 290.438112 
L 102.443624 291.012535 
L 102.922502 291.130216 
L 103.360796 291.339589 
L 104.683797 292.197281 
L 105.178907 292.240853 
L 105.47922 292.038513 
L 105.803883 291.507829 
L 106.290877 290.202631 
L 107.824908 285.797796 
L 108.303785 285.225243 
L 108.71773 284.16912 
L 109.147908 283.305153 
L 109.399522 283.224152 
L 110.073197 283.244394 
L 110.381626 282.807341 
L 111.566645 280.860616 
L 111.850725 280.890189 
L 112.378302 281.00419 
L 112.613682 280.749794 
L 113.58767 279.397259 
L 113.879867 279.60443 
L 114.431793 279.976737 
L 114.707756 279.894026 
L 114.991836 279.547265 
L 115.381431 278.649266 
L 116.07134 277.092116 
L 116.655732 276.097985 
L 116.980395 274.811835 
L 117.921917 270.663326 
L 118.124831 270.586358 
L 118.311512 270.805624 
L 118.619941 271.598028 
L 119.910476 275.377538 
L 120.072807 275.247092 
L 120.300071 274.690075 
L 120.738365 272.845148 
L 121.249709 271.050867 
L 121.566255 270.64184 
L 122.118182 270.139695 
L 122.54836 269.149263 
L 122.889256 268.637896 
L 123.06782 268.692671 
L 123.3032 269.083893 
L 123.887593 270.107482 
L 124.074274 270.054649 
L 124.342121 269.672716 
L 124.845348 268.991113 
L 125.056379 269.034377 
L 125.307992 269.3699 
L 125.746287 270.412426 
L 127.572514 275.126163 
L 127.832245 275.135621 
L 128.643901 274.918386 
L 128.984797 275.340537 
L 129.414975 275.777689 
L 129.642239 275.718152 
L 129.934435 275.357937 
L 131.168153 273.599615 
L 131.436 273.603051 
L 131.849945 273.906364 
L 132.223307 274.042905 
L 132.848283 274.122742 
L 133.09178 274.558612 
L 133.562541 276.017143 
L 133.911553 276.7181 
L 134.082001 276.705112 
L 134.276798 276.39739 
L 134.739443 275.071643 
L 135.088455 274.436854 
L 135.299486 274.414697 
L 135.551099 274.665713 
L 136.208541 275.374376 
L 136.971498 275.813045 
L 137.726339 276.553381 
L 138.059118 276.497799 
L 138.749027 276.098504 
L 139.057456 275.641171 
L 139.447051 274.58951 
L 140.218125 272.486806 
L 140.485972 272.302911 
L 140.680769 272.42321 
L 140.932383 272.895947 
L 141.297628 274.142393 
L 142.409598 278.299883 
L 142.604396 278.331297 
L 142.799193 278.083599 
L 143.131972 277.215192 
L 143.89493 275.209883 
L 144.235826 274.91164 
L 144.72282 274.577595 
L 145.006899 273.969238 
L 145.907838 271.74407 
L 146.135102 271.745638 
L 146.386716 271.989747 
L 146.654562 272.587007 
L 146.938642 273.841078 
L 147.344471 276.862415 
L 147.969446 281.254543 
L 148.237293 281.868584 
L 148.407741 281.856314 
L 148.626888 281.53353 
L 149.097649 280.333154 
L 149.560293 278.615602 
L 149.990471 276.008783 
L 150.794011 271.023194 
L 150.980692 270.814345 
L 150.988809 270.81801 
L 151.110557 271.00264 
L 151.313472 271.82572 
L 151.6706 274.42656 
L 152.352392 279.271419 
L 152.628355 279.921266 
L 152.78257 279.901579 
L 152.969251 279.574346 
L 153.30203 278.436406 
L 154.202969 275.217263 
L 154.414 275.098555 
L 154.568215 275.288632 
L 154.803595 276.029329 
L 155.688301 279.277432 
L 155.826283 279.127792 
L 156.037313 278.476807 
L 156.459375 276.274492 
L 157.173633 272.801254 
L 157.506412 272.116958 
L 157.790492 271.986005 
L 158.180087 271.838249 
L 158.447934 271.407714 
L 159.219007 269.980547 
L 159.373222 270.124456 
L 159.592369 270.710114 
L 159.973848 272.528114 
L 160.550124 275.067444 
L 160.777388 275.327095 
L 160.923486 275.20998 
L 161.142634 274.670195 
L 161.572812 272.865516 
L 162.571149 267.694095 
L 163.431505 262.751295 
L 163.593837 262.618924 
L 163.61007 262.62908 
L 163.739935 262.866199 
L 163.959082 263.849636 
L 164.884371 268.770494 
L 164.892487 268.768676 
L 165.014236 268.616934 
L 165.233383 267.873531 
L 165.834009 265.731316 
L 165.99634 265.727683 
L 166.191138 266.049313 
L 166.694365 266.927847 
L 166.832347 266.808942 
L 167.043378 266.244502 
L 167.684586 264.335052 
L 167.806335 264.436648 
L 167.993016 264.974683 
L 168.885838 268.219025 
L 168.910188 268.209825 
L 169.064403 267.999353 
L 169.332249 267.148342 
L 170.363053 263.494558 
L 170.614667 263.313052 
L 170.825698 263.4278 
L 171.621121 264.081996 
L 171.872735 263.812538 
L 172.635692 262.856934 
L 172.838606 262.98039 
L 173.106453 263.458834 
L 174.275238 265.935231 
L 174.518735 265.90558 
L 174.754116 265.630198 
L 175.038196 264.912876 
L 175.435907 263.198676 
L 176.223214 259.764424 
L 176.442362 259.568402 
L 176.58846 259.716225 
L 176.815724 260.353471 
L 177.327067 262.702559 
L 177.814061 264.403343 
L 178.203657 265.036896 
L 178.47962 265.149541 
L 178.674417 264.985807 
L 178.893565 264.456787 
L 179.185761 263.073011 
L 179.672755 259.422234 
L 180.184099 256.164661 
L 180.411363 255.781936 
L 180.533111 255.92448 
L 180.727909 256.615426 
L 181.14997 259.216373 
L 181.531449 260.95103 
L 181.69378 261.079116 
L 181.710013 261.069548 
L 181.856111 260.818764 
L 182.164541 259.677183 
L 182.513553 258.703084 
L 182.651535 258.72116 
L 182.813866 259.07985 
L 183.114179 260.434239 
L 183.731038 263.130867 
L 183.990768 263.46217 
L 184.1531 263.382055 
L 184.372247 262.961474 
L 184.843008 261.41067 
L 185.321885 260.204906 
L 185.930628 258.898717 
L 186.433855 257.767491 
L 186.571837 257.816916 
L 186.742285 258.208846 
L 187.034481 259.576488 
L 187.553941 261.84469 
L 187.700039 261.916933 
L 187.716273 261.904316 
L 187.854254 261.632601 
L 188.089635 260.564197 
L 188.633445 256.687197 
L 189.096089 254.218872 
L 189.380169 253.681299 
L 189.607433 253.650441 
L 190.005144 253.641709 
L 190.208058 253.319473 
L 190.484022 252.379537 
L 191.563525 248.1545 
L 192.302133 247.003268 
L 193.008274 245.337023 
L 193.146256 245.460167 
L 193.341053 246.03347 
L 193.673832 247.877826 
L 194.290691 251.191935 
L 194.477372 251.384029 
L 194.485489 251.380188 
L 194.615354 251.179513 
L 194.826385 250.33758 
L 195.321495 247.100287 
L 195.702974 245.395387 
L 195.922121 245.171579 
L 196.092569 245.302734 
L 196.709428 245.933844 
L 196.936692 245.72846 
L 197.41557 245.275098 
L 197.610367 245.410339 
L 198.300275 246.179978 
L 198.332742 246.149783 
L 198.519423 245.783269 
L 198.811619 244.619319 
L 199.379779 241.231745 
L 200.816411 232.350358 
L 200.994975 232.347507 
L 201.246589 232.659835 
L 201.887798 233.467375 
L 202.293626 233.617849 
L 203.153982 233.784261 
L 204.12797 234.633064 
L 204.4364 235.543152 
L 204.90716 236.834018 
L 205.037026 236.777359 
L 205.19124 236.351575 
L 205.45097 234.81843 
L 206.246394 229.669623 
L 206.368142 229.611855 
L 206.392492 229.632888 
L 206.530474 229.946057 
L 206.782087 231.212005 
L 207.666793 236.128824 
L 207.91029 236.402615 
L 208.080738 236.295007 
L 208.332352 235.790481 
L 209.02226 234.292014 
L 209.217057 234.321469 
L 209.606653 234.730781 
L 209.898849 234.848913 
L 210.442659 234.89371 
L 210.661806 235.35515 
L 211.010819 236.742571 
L 211.587095 238.881119 
L 211.822475 239.082459 
L 212.00104 238.950078 
L 212.374402 238.278112 
L 212.682831 237.941594 
L 212.853279 238.030433 
L 213.072426 238.466297 
L 213.916549 240.633338 
L 213.965249 240.598495 
L 214.119464 240.269919 
L 214.354844 239.113237 
L 214.760672 235.738562 
L 215.345065 231.344392 
L 215.596679 230.735925 
L 215.73466 230.78201 
L 215.921341 231.185126 
L 216.570667 232.846787 
L 216.5869 232.840064 
L 216.716765 232.644524 
L 216.927796 231.818445 
L 217.690753 228.422275 
L 217.812501 228.52102 
L 218.023532 229.102733 
L 218.526759 230.490933 
L 218.656624 230.426326 
L 218.818956 230.002339 
L 219.078686 228.589053 
L 219.525097 224.681273 
L 220.426036 216.747719 
L 220.685766 216.023987 
L 220.815631 216.067864 
L 220.977962 216.478943 
L 221.278275 218.003929 
L 221.878901 220.999769 
L 222.065582 221.155488 
L 222.203564 220.948061 
L 222.430828 220.082567 
L 223.250601 216.536566 
L 223.372349 216.618637 
L 223.55903 217.119351 
L 224.338221 219.63582 
L 224.346337 219.632977 
L 224.484319 219.451251 
L 224.703466 218.693165 
L 225.19046 215.93451 
L 225.580056 214.364612 
L 225.718037 214.290331 
L 225.742387 214.311784 
L 225.880368 214.644697 
L 226.091399 215.860524 
L 226.456645 219.542447 
L 227.008571 224.630745 
L 227.203369 225.05644 
L 227.211485 225.054182 
L 227.317001 224.883572 
L 227.503682 223.998644 
L 227.860811 220.943464 
L 228.729283 213.525376 
L 229.500357 209.000919 
L 229.922419 207.739081 
L 230.279548 206.623462 
L 230.547394 204.850088 
L 230.855824 201.047503 
L 231.310351 192.071754 
L 231.837928 182.969083 
L 232.048959 182.030367 
L 232.122008 182.138859 
L 232.268106 182.942248 
L 232.552186 186.066358 
L 233.534291 197.557097 
L 234.005052 200.67516 
L 234.143033 200.90047 
L 234.175499 200.870982 
L 234.281015 200.491455 
L 234.43523 198.912699 
L 234.638144 194.124286 
L 234.881641 182.351985 
L 235.19007 154.882015 
L 236.155942 54.144 
L 236.180291 54.224999 
L 236.253341 55.738079 
L 236.407555 64.863916 
L 236.699752 98.51072 
L 237.381543 176.852735 
L 237.714322 191.537391 
L 238.047102 197.368545 
L 238.923691 207.07881 
L 239.077906 207.437765 
L 239.102255 207.419551 
L 239.207771 207.097052 
L 239.394452 205.597417 
L 239.743464 200.520731 
L 240.295391 193.14052 
L 240.506421 192.425422 
L 240.595704 192.549988 
L 240.758035 193.336704 
L 241.098931 196.422436 
L 241.707673 201.507507 
L 242.624845 207.759059 
L 243.128072 210.932995 
L 243.387803 211.456043 
L 243.623183 211.479368 
L 243.850447 211.558767 
L 244.029011 211.937342 
L 244.272508 213.088416 
L 245.205913 218.452782 
L 245.23838 218.438608 
L 245.360128 218.187381 
L 245.563042 217.097184 
L 245.928288 213.598538 
L 246.480214 208.752888 
L 246.707478 208.215306 
L 246.82111 208.298501 
L 247.015908 208.828807 
L 248.549939 214.768276 
L 249.061283 217.203111 
L 249.30478 217.532302 
L 249.467111 217.453519 
L 249.710608 217.021726 
L 250.157019 215.696909 
L 250.587197 213.761746 
L 251.041725 210.528195 
L 251.780332 205.341994 
L 252.064412 204.64446 
L 252.23486 204.641654 
L 252.405308 204.946222 
L 252.640688 205.900891 
L 252.965351 208.283203 
L 253.655259 215.612986 
L 254.207186 220.130236 
L 254.637364 222.029843 
L 255.944131 226.421426 
L 256.901886 230.762329 
L 257.096683 230.877998 
L 257.242782 230.656851 
L 257.470045 229.804448 
L 257.867757 227.244907 
L 258.508966 223.346579 
L 258.73623 222.982989 
L 258.857978 223.095661 
L 259.044659 223.65984 
L 259.377439 225.538024 
L 260.31896 231.139665 
L 260.700439 232.07315 
L 261.284832 232.806639 
L 261.66631 233.061216 
L 261.861108 232.938438 
L 262.080255 232.47893 
L 262.396801 231.195953 
L 263.184108 227.798092 
L 263.338323 227.781907 
L 263.500654 228.08857 
L 263.792851 229.251568 
L 264.507109 232.136535 
L 264.872354 232.724715 
L 265.440514 233.450595 
L 265.692127 234.369372 
L 266.008673 236.491232 
L 267.120643 244.872705 
L 267.258625 244.916428 
L 267.274858 244.902318 
L 267.429073 244.587246 
L 267.721269 243.343351 
L 268.273196 241.105348 
L 268.467993 240.97851 
L 268.622208 241.179748 
L 268.890055 242.005941 
L 269.506914 243.939648 
L 269.677362 243.967798 
L 269.839693 243.71091 
L 270.115656 242.748926 
L 270.724399 240.591688 
L 270.870497 240.608946 
L 271.024712 240.958745 
L 271.300675 242.276603 
L 271.925651 245.289091 
L 272.136681 245.466068 
L 272.315246 245.298647 
L 272.834706 244.715053 
L 272.988921 244.934649 
L 273.208068 245.721561 
L 273.703179 248.646373 
L 274.035958 249.879283 
L 274.182056 249.935182 
L 274.198289 249.922222 
L 274.352504 249.625696 
L 274.636584 248.469698 
L 275.578105 244.352815 
L 275.805369 244.120827 
L 275.943351 244.272743 
L 276.138149 244.927745 
L 276.430345 246.853893 
L 277.550431 255.219953 
L 277.728996 255.351984 
L 277.737112 255.347104 
L 277.875094 255.12197 
L 278.094241 254.246664 
L 278.500069 251.485857 
L 278.987063 248.646241 
L 279.198094 248.347813 
L 279.327959 248.494706 
L 279.53899 249.175762 
L 280.62661 253.365669 
L 280.870107 253.444645 
L 281.105487 253.277138 
L 281.389567 252.770176 
L 281.746696 251.612304 
L 282.907365 247.434026 
L 283.110279 247.3679 
L 283.280727 247.589495 
L 283.507991 248.325133 
L 283.816421 250.175027 
L 284.270948 254.470109 
L 285.106955 262.294398 
L 285.577715 264.560828 
L 286.01601 265.732357 
L 286.429955 266.229903 
L 286.730268 266.700065 
L 287.014348 267.639853 
L 288.004569 271.515771 
L 288.020802 271.510555 
L 288.150667 271.3368 
L 288.361698 270.577933 
L 288.775643 268.001467 
L 289.222054 265.755819 
L 289.433085 265.524437 
L 289.571066 265.692832 
L 289.806447 266.441903 
L 291.316128 272.230152 
L 291.68949 272.661134 
L 291.989803 272.702042 
L 292.363165 272.491954 
L 293.142355 272.0234 
L 293.483251 272.114387 
L 294.12446 272.602768 
L 294.595221 273.16197 
L 295.658491 274.651614 
L 295.910105 274.577704 
L 296.177951 274.242909 
L 296.486381 273.459834 
L 296.892209 271.720617 
L 297.638933 268.500848 
L 297.841848 268.360412 
L 297.987946 268.558786 
L 298.21521 269.346215 
L 298.612921 271.712106 
L 299.205431 274.9606 
L 299.465161 275.393247 
L 299.635609 275.333945 
L 300.3174 274.835681 
L 300.57713 275.227466 
L 300.966726 275.734008 
L 301.129057 275.636734 
L 301.340088 275.167612 
L 302.289726 272.632798 
L 302.460174 272.771401 
L 302.719904 273.337895 
L 303.482861 275.144162 
L 303.661426 275.103451 
L 303.872456 274.759508 
L 304.351334 273.391608 
L 304.846444 272.314031 
L 305.544469 270.97912 
L 306.201911 269.648614 
L 306.437291 269.585026 
L 306.640206 269.783902 
L 306.916169 270.430902 
L 307.321997 272.04143 
L 308.182353 276.61647 
L 309.083292 281.104417 
L 309.375489 281.603417 
L 309.586519 281.597981 
L 309.911182 281.282646 
L 310.730955 280.166497 
L 311.063734 279.077674 
L 312.127005 275.086974 
L 312.281219 275.17854 
L 312.508483 275.671425 
L 313.214625 277.358554 
L 313.409422 277.336918 
L 314.066864 277.027484 
L 314.294128 277.427262 
L 315.000269 278.834975 
L 315.2113 278.764201 
L 315.641478 278.577374 
L 315.820042 278.820285 
L 316.079773 279.633949 
L 317.248558 283.890755 
L 317.93035 285.075319 
L 318.133264 285.092995 
L 318.303712 284.842253 
L 318.547209 284.017781 
L 319.026086 281.384417 
L 319.48873 279.383993 
L 319.715994 279.1364 
L 319.862093 279.281654 
L 320.08124 279.899265 
L 320.552001 282.097767 
L 321.087694 284.153707 
L 321.501639 284.941891 
L 321.850651 285.203353 
L 322.118498 285.153845 
L 322.451277 284.822841 
L 323.149302 284.094227 
L 323.433382 284.119356 
L 323.749928 284.40162 
L 324.756382 285.484036 
L 325.559922 285.6241 
L 325.884585 286.198054 
L 326.988438 288.927487 
L 327.978659 291.449821 
L 328.132874 291.333249 
L 328.368254 290.801414 
L 329.139328 288.879896 
L 329.626322 288.555963 
L 330.275647 288.190931 
L 330.462328 288.456882 
L 330.722059 289.298358 
L 331.347034 292.426251 
L 331.68793 293.433741 
L 331.850261 293.464127 
L 332.004476 293.184922 
L 332.247973 292.183183 
L 333.221961 287.579479 
L 333.359943 287.629766 
L 333.546624 288.020151 
L 333.952452 289.558301 
L 334.455679 291.128607 
L 334.796575 291.538314 
L 335.259219 291.695222 
L 336.330606 292.078293 
L 336.622802 292.452141 
L 336.963698 293.317139 
L 337.62114 295.010234 
L 337.807821 295.020588 
L 338.010735 294.744718 
L 338.716877 293.599709 
L 338.903558 293.735056 
L 339.244453 294.353523 
L 339.650282 294.923873 
L 339.918128 294.949707 
L 340.380773 294.932446 
L 340.59992 295.24571 
L 340.892116 296.142468 
L 341.45216 298.799583 
L 341.963503 300.747973 
L 342.23135 301.074488 
L 342.409914 300.9885 
L 342.661528 300.549198 
L 344.739369 296.090009 
L 344.934167 296.122694 
L 345.16143 296.448556 
L 345.624075 297.637992 
L 346.119185 298.6396 
L 346.508781 298.950498 
L 347.279854 299.433156 
L 348.537922 300.641772 
L 349.544376 300.878598 
L 350.039487 301.017923 
L 350.437199 300.860945 
L 351.638451 300.046533 
L 352.028046 299.150184 
L 352.588089 297.948367 
L 352.807236 297.894303 
L 353.018267 298.11541 
L 353.367279 298.882867 
L 354.852611 302.445799 
L 355.169157 302.608345 
L 355.948347 302.783577 
L 356.971035 303.585843 
L 357.287581 303.373157 
L 357.985606 302.846136 
L 358.245336 302.963921 
L 358.602465 303.425193 
L 359.332956 304.372973 
L 359.681968 304.461983 
L 360.761471 304.476116 
L 361.702993 304.934751 
L 362.043889 304.787619 
L 362.4903 304.305986 
L 363.00976 303.832972 
L 363.277607 303.865083 
L 363.626619 304.179155 
L 364.186662 304.645972 
L 364.543791 304.633785 
L 365.128184 304.595938 
L 365.558362 304.869255 
L 366.191454 305.23042 
L 367.197909 305.595872 
L 368.326111 306.39639 
L 368.626424 306.233694 
L 369.762744 305.379877 
L 370.152339 305.554471 
L 371.077627 306.054758 
L 371.361707 305.86759 
L 372.116548 305.240006 
L 372.343812 305.427804 
L 372.709057 306.098068 
L 373.358383 307.224212 
L 373.764211 307.493934 
L 374.340487 307.577502 
L 377.863077 307.584 
L 398.487273 307.584 
L 398.487273 307.584 
" style="fill:none;stroke:#ff7f0e;stroke-linecap:square;stroke-width:1.5;"/>
   </g>
   <g id="patch_103">
    <path d="M 57.6 307.584 
L 57.6 41.472 
" style="fill:none;stroke:#000000;stroke-linecap:square;stroke-linejoin:miter;stroke-width:0.8;"/>
   </g>
   <g id="patch_104">
    <path d="M 414.72 307.584 
L 414.72 41.472 
" style="fill:none;stroke:#000000;stroke-linecap:square;stroke-linejoin:miter;stroke-width:0.8;"/>
   </g>
   <g id="patch_105">
    <path d="M 57.6 307.584 
L 414.72 307.584 
" style="fill:none;stroke:#000000;stroke-linecap:square;stroke-linejoin:miter;stroke-width:0.8;"/>
   </g>
   <g id="patch_106">
    <path d="M 57.6 41.472 
L 414.72 41.472 
" style="fill:none;stroke:#000000;stroke-linecap:square;stroke-linejoin:miter;stroke-width:0.8;"/>
   </g>
  </g>
 </g>
 <defs>
  <clipPath id="p1091d50cc9">
   <rect height="266.112" width="357.12" x="57.6" y="41.472"/>
  </clipPath>
 </defs>
</svg>
