<?xml version="1.0" encoding="utf-8" standalone="no"?>
<!DOCTYPE svg PUBLIC "-//W3C//DTD SVG 1.1//EN"
  "http://www.w3.org/Graphics/SVG/1.1/DTD/svg11.dtd">
<!-- Created with matplotlib (https://matplotlib.org/) -->
<svg height="345.6pt" version="1.1" viewBox="0 0 460.8 345.6" width="460.8pt" xmlns="http://www.w3.org/2000/svg" xmlns:xlink="http://www.w3.org/1999/xlink">
 <defs>
  <style type="text/css">
*{stroke-linecap:butt;stroke-linejoin:round;}
  </style>
 </defs>
 <g id="figure_1">
  <g id="patch_1">
   <path d="M 0 345.6 
L 460.8 345.6 
L 460.8 0 
L 0 0 
z
" style="fill:#ffffff;"/>
  </g>
  <g id="axes_1">
   <g id="patch_2">
    <path d="M 57.6 307.584 
L 414.72 307.584 
L 414.72 41.472 
L 57.6 41.472 
z
" style="fill:#ffffff;"/>
   </g>
   <g id="patch_3">
    <path clip-path="url(#p471377deec)" d="M 117.752911 307.584 
L 120.095854 307.584 
L 120.095854 303.469677 
L 117.752911 303.469677 
z
" style="fill:#1f77b4;"/>
   </g>
   <g id="patch_4">
    <path clip-path="url(#p471377deec)" d="M 120.095854 307.584 
L 122.438806 307.584 
L 122.438806 303.46969 
L 120.095854 303.46969 
z
" style="fill:#1f77b4;"/>
   </g>
   <g id="patch_5">
    <path clip-path="url(#p471377deec)" d="M 122.438798 307.584 
L 124.781742 307.584 
L 124.781742 307.584 
L 122.438798 307.584 
z
" style="fill:#1f77b4;"/>
   </g>
   <g id="patch_6">
    <path clip-path="url(#p471377deec)" d="M 124.78175 307.584 
L 127.124701 307.584 
L 127.124701 303.46969 
L 124.78175 303.46969 
z
" style="fill:#1f77b4;"/>
   </g>
   <g id="patch_7">
    <path clip-path="url(#p471377deec)" d="M 127.124701 307.584 
L 129.467645 307.584 
L 129.467645 307.584 
L 127.124701 307.584 
z
" style="fill:#1f77b4;"/>
   </g>
   <g id="patch_8">
    <path clip-path="url(#p471377deec)" d="M 129.467637 307.584 
L 131.810581 307.584 
L 131.810581 303.469677 
L 129.467637 303.469677 
z
" style="fill:#1f77b4;"/>
   </g>
   <g id="patch_9">
    <path clip-path="url(#p471377deec)" d="M 131.810589 307.584 
L 134.15354 307.584 
L 134.15354 305.526845 
L 131.810589 305.526845 
z
" style="fill:#1f77b4;"/>
   </g>
   <g id="patch_10">
    <path clip-path="url(#p471377deec)" d="M 134.15354 307.584 
L 136.496484 307.584 
L 136.496484 303.469677 
L 134.15354 303.469677 
z
" style="fill:#1f77b4;"/>
   </g>
   <g id="patch_11">
    <path clip-path="url(#p471377deec)" d="M 136.496484 307.584 
L 138.839435 307.584 
L 138.839435 307.584 
L 136.496484 307.584 
z
" style="fill:#1f77b4;"/>
   </g>
   <g id="patch_12">
    <path clip-path="url(#p471377deec)" d="M 138.839428 307.584 
L 141.182371 307.584 
L 141.182371 307.584 
L 138.839428 307.584 
z
" style="fill:#1f77b4;"/>
   </g>
   <g id="patch_13">
    <path clip-path="url(#p471377deec)" d="M 141.182379 307.584 
L 143.525323 307.584 
L 143.525323 303.469677 
L 141.182379 303.469677 
z
" style="fill:#1f77b4;"/>
   </g>
   <g id="patch_14">
    <path clip-path="url(#p471377deec)" d="M 143.525323 307.584 
L 145.868274 307.584 
L 145.868274 307.584 
L 143.525323 307.584 
z
" style="fill:#1f77b4;"/>
   </g>
   <g id="patch_15">
    <path clip-path="url(#p471377deec)" d="M 145.868267 307.584 
L 148.21121 307.584 
L 148.21121 307.584 
L 145.868267 307.584 
z
" style="fill:#1f77b4;"/>
   </g>
   <g id="patch_16">
    <path clip-path="url(#p471377deec)" d="M 148.211218 307.584 
L 150.55417 307.584 
L 150.55417 303.46969 
L 148.211218 303.46969 
z
" style="fill:#1f77b4;"/>
   </g>
   <g id="patch_17">
    <path clip-path="url(#p471377deec)" d="M 150.55417 307.584 
L 152.897113 307.584 
L 152.897113 307.584 
L 150.55417 307.584 
z
" style="fill:#1f77b4;"/>
   </g>
   <g id="patch_18">
    <path clip-path="url(#p471377deec)" d="M 152.897106 307.584 
L 155.240049 307.584 
L 155.240049 305.526838 
L 152.897106 305.526838 
z
" style="fill:#1f77b4;"/>
   </g>
   <g id="patch_19">
    <path clip-path="url(#p471377deec)" d="M 155.240057 307.584 
L 157.583009 307.584 
L 157.583009 305.526845 
L 155.240057 305.526845 
z
" style="fill:#1f77b4;"/>
   </g>
   <g id="patch_20">
    <path clip-path="url(#p471377deec)" d="M 157.583009 307.584 
L 159.925952 307.584 
L 159.925952 305.526838 
L 157.583009 305.526838 
z
" style="fill:#1f77b4;"/>
   </g>
   <g id="patch_21">
    <path clip-path="url(#p471377deec)" d="M 159.925952 307.584 
L 162.268904 307.584 
L 162.268904 289.069607 
L 159.925952 289.069607 
z
" style="fill:#1f77b4;"/>
   </g>
   <g id="patch_22">
    <path clip-path="url(#p471377deec)" d="M 162.268896 307.584 
L 164.61184 307.584 
L 164.61184 295.241031 
L 162.268896 295.241031 
z
" style="fill:#1f77b4;"/>
   </g>
   <g id="patch_23">
    <path clip-path="url(#p471377deec)" d="M 164.611848 307.584 
L 166.954791 307.584 
L 166.954791 282.898061 
L 164.611848 282.898061 
z
" style="fill:#1f77b4;"/>
   </g>
   <g id="patch_24">
    <path clip-path="url(#p471377deec)" d="M 166.954791 307.584 
L 169.297743 307.584 
L 169.297743 287.012452 
L 166.954791 287.012452 
z
" style="fill:#1f77b4;"/>
   </g>
   <g id="patch_25">
    <path clip-path="url(#p471377deec)" d="M 169.297735 307.584 
L 171.640679 307.584 
L 171.640679 287.012384 
L 169.297735 287.012384 
z
" style="fill:#1f77b4;"/>
   </g>
   <g id="patch_26">
    <path clip-path="url(#p471377deec)" d="M 171.640687 307.584 
L 173.983634 307.584 
L 173.983634 274.669469 
L 171.640687 274.669469 
z
" style="fill:#1f77b4;"/>
   </g>
   <g id="patch_27">
    <path clip-path="url(#p471377deec)" d="M 173.98363 307.584 
L 176.326578 307.584 
L 176.326578 270.555153 
L 173.98363 270.555153 
z
" style="fill:#1f77b4;"/>
   </g>
   <g id="patch_28">
    <path clip-path="url(#p471377deec)" d="M 176.326582 307.584 
L 178.66953 307.584 
L 178.66953 258.212204 
L 176.326582 258.212204 
z
" style="fill:#1f77b4;"/>
   </g>
   <g id="patch_29">
    <path clip-path="url(#p471377deec)" d="M 178.669526 307.584 
L 181.012473 307.584 
L 181.012473 262.32652 
L 178.669526 262.32652 
z
" style="fill:#1f77b4;"/>
   </g>
   <g id="patch_30">
    <path clip-path="url(#p471377deec)" d="M 181.012477 307.584 
L 183.355421 307.584 
L 183.355421 260.269284 
L 181.012477 260.269284 
z
" style="fill:#1f77b4;"/>
   </g>
   <g id="patch_31">
    <path clip-path="url(#p471377deec)" d="M 183.355421 307.584 
L 185.698369 307.584 
L 185.698369 270.555153 
L 183.355421 270.555153 
z
" style="fill:#1f77b4;"/>
   </g>
   <g id="patch_32">
    <path clip-path="url(#p471377deec)" d="M 185.698365 307.584 
L 188.041312 307.584 
L 188.041312 260.269362 
L 185.698365 260.269362 
z
" style="fill:#1f77b4;"/>
   </g>
   <g id="patch_33">
    <path clip-path="url(#p471377deec)" d="M 188.041316 307.584 
L 190.384264 307.584 
L 190.384264 227.354831 
L 188.041316 227.354831 
z
" style="fill:#1f77b4;"/>
   </g>
   <g id="patch_34">
    <path clip-path="url(#p471377deec)" d="M 190.38426 307.584 
L 192.727208 307.584 
L 192.727208 243.812096 
L 190.38426 243.812096 
z
" style="fill:#1f77b4;"/>
   </g>
   <g id="patch_35">
    <path clip-path="url(#p471377deec)" d="M 192.727211 307.584 
L 195.070155 307.584 
L 195.070155 227.354698 
L 192.727211 227.354698 
z
" style="fill:#1f77b4;"/>
   </g>
   <g id="patch_36">
    <path clip-path="url(#p471377deec)" d="M 195.070155 307.584 
L 197.413103 307.584 
L 197.413103 217.06904 
L 195.070155 217.06904 
z
" style="fill:#1f77b4;"/>
   </g>
   <g id="patch_37">
    <path clip-path="url(#p471377deec)" d="M 197.413099 307.584 
L 199.756047 307.584 
L 199.756047 212.954724 
L 197.413099 212.954724 
z
" style="fill:#1f77b4;"/>
   </g>
   <g id="patch_38">
    <path clip-path="url(#p471377deec)" d="M 199.75605 307.584 
L 202.098998 307.584 
L 202.098998 188.268826 
L 199.75605 188.268826 
z
" style="fill:#1f77b4;"/>
   </g>
   <g id="patch_39">
    <path clip-path="url(#p471377deec)" d="M 202.098998 307.584 
L 204.441944 307.584 
L 204.441944 215.011806 
L 202.098998 215.011806 
z
" style="fill:#1f77b4;"/>
   </g>
   <g id="patch_40">
    <path clip-path="url(#p471377deec)" d="M 204.441944 307.584 
L 206.784891 307.584 
L 206.784891 184.154509 
L 204.441944 184.154509 
z
" style="fill:#1f77b4;"/>
   </g>
   <g id="patch_41">
    <path clip-path="url(#p471377deec)" d="M 206.784893 307.584 
L 209.127839 307.584 
L 209.127839 194.440207 
L 206.784893 194.440207 
z
" style="fill:#1f77b4;"/>
   </g>
   <g id="patch_42">
    <path clip-path="url(#p471377deec)" d="M 209.127837 307.584 
L 211.470785 307.584 
L 211.470785 196.497458 
L 209.127837 196.497458 
z
" style="fill:#1f77b4;"/>
   </g>
   <g id="patch_43">
    <path clip-path="url(#p471377deec)" d="M 211.470785 307.584 
L 213.813732 307.584 
L 213.813732 200.611775 
L 211.470785 200.611775 
z
" style="fill:#1f77b4;"/>
   </g>
   <g id="patch_44">
    <path clip-path="url(#p471377deec)" d="M 213.813732 307.584 
L 216.156678 307.584 
L 216.156678 177.982928 
L 213.813732 177.982928 
z
" style="fill:#1f77b4;"/>
   </g>
   <g id="patch_45">
    <path clip-path="url(#p471377deec)" d="M 216.156678 307.584 
L 218.499626 307.584 
L 218.499626 175.925877 
L 216.156678 175.925877 
z
" style="fill:#1f77b4;"/>
   </g>
   <g id="patch_46">
    <path clip-path="url(#p471377deec)" d="M 218.499626 307.584 
L 220.842572 307.584 
L 220.842572 153.297073 
L 218.499626 153.297073 
z
" style="fill:#1f77b4;"/>
   </g>
   <g id="patch_47">
    <path clip-path="url(#p471377deec)" d="M 220.842571 307.584 
L 223.185518 307.584 
L 223.185518 151.239914 
L 220.842571 151.239914 
z
" style="fill:#1f77b4;"/>
   </g>
   <g id="patch_48">
    <path clip-path="url(#p471377deec)" d="M 223.185519 307.584 
L 225.528466 307.584 
L 225.528466 177.982981 
L 223.185519 177.982981 
z
" style="fill:#1f77b4;"/>
   </g>
   <g id="patch_49">
    <path clip-path="url(#p471377deec)" d="M 225.528465 307.584 
L 227.871411 307.584 
L 227.871411 177.982981 
L 225.528465 177.982981 
z
" style="fill:#1f77b4;"/>
   </g>
   <g id="patch_50">
    <path clip-path="url(#p471377deec)" d="M 227.871412 307.584 
L 230.214359 307.584 
L 230.214359 155.354263 
L 227.871412 155.354263 
z
" style="fill:#1f77b4;"/>
   </g>
   <g id="patch_51">
    <path clip-path="url(#p471377deec)" d="M 230.214359 307.584 
L 232.557306 307.584 
L 232.557306 143.011295 
L 230.214359 143.011295 
z
" style="fill:#1f77b4;"/>
   </g>
   <g id="patch_52">
    <path clip-path="url(#p471377deec)" d="M 232.557307 307.584 
L 234.900254 307.584 
L 234.900254 165.640042 
L 232.557307 165.640042 
z
" style="fill:#1f77b4;"/>
   </g>
   <g id="patch_53">
    <path clip-path="url(#p471377deec)" d="M 234.900253 307.584 
L 237.2432 307.584 
L 237.2432 95.696642 
L 234.900253 95.696642 
z
" style="fill:#1f77b4;"/>
   </g>
   <g id="patch_54">
    <path clip-path="url(#p471377deec)" d="M 237.2432 307.584 
L 239.586147 307.584 
L 239.586147 198.554583 
L 237.2432 198.554583 
z
" style="fill:#1f77b4;"/>
   </g>
   <g id="patch_55">
    <path clip-path="url(#p471377deec)" d="M 239.586147 307.584 
L 241.929094 307.584 
L 241.929094 202.66889 
L 239.586147 202.66889 
z
" style="fill:#1f77b4;"/>
   </g>
   <g id="patch_56">
    <path clip-path="url(#p471377deec)" d="M 241.929093 307.584 
L 244.27204 307.584 
L 244.27204 173.868691 
L 241.929093 173.868691 
z
" style="fill:#1f77b4;"/>
   </g>
   <g id="patch_57">
    <path clip-path="url(#p471377deec)" d="M 244.27204 307.584 
L 246.614988 307.584 
L 246.614988 177.982981 
L 244.27204 177.982981 
z
" style="fill:#1f77b4;"/>
   </g>
   <g id="patch_58">
    <path clip-path="url(#p471377deec)" d="M 246.614988 307.584 
L 248.957934 307.584 
L 248.957934 180.04014 
L 246.614988 180.04014 
z
" style="fill:#1f77b4;"/>
   </g>
   <g id="patch_59">
    <path clip-path="url(#p471377deec)" d="M 248.957933 307.584 
L 251.30088 307.584 
L 251.30088 167.697186 
L 248.957933 167.697186 
z
" style="fill:#1f77b4;"/>
   </g>
   <g id="patch_60">
    <path clip-path="url(#p471377deec)" d="M 251.300881 307.584 
L 253.643829 307.584 
L 253.643829 186.211667 
L 251.300881 186.211667 
z
" style="fill:#1f77b4;"/>
   </g>
   <g id="patch_61">
    <path clip-path="url(#p471377deec)" d="M 253.64383 307.584 
L 255.986776 307.584 
L 255.986776 186.211567 
L 253.64383 186.211567 
z
" style="fill:#1f77b4;"/>
   </g>
   <g id="patch_62">
    <path clip-path="url(#p471377deec)" d="M 255.986774 307.584 
L 258.329722 307.584 
L 258.329722 204.726091 
L 255.986774 204.726091 
z
" style="fill:#1f77b4;"/>
   </g>
   <g id="patch_63">
    <path clip-path="url(#p471377deec)" d="M 258.329722 307.584 
L 260.672669 307.584 
L 260.672669 200.611775 
L 258.329722 200.611775 
z
" style="fill:#1f77b4;"/>
   </g>
   <g id="patch_64">
    <path clip-path="url(#p471377deec)" d="M 260.672669 307.584 
L 263.015615 307.584 
L 263.015615 233.526244 
L 260.672669 233.526244 
z
" style="fill:#1f77b4;"/>
   </g>
   <g id="patch_65">
    <path clip-path="url(#p471377deec)" d="M 263.015615 307.584 
L 265.358563 307.584 
L 265.358563 231.469147 
L 263.015615 231.469147 
z
" style="fill:#1f77b4;"/>
   </g>
   <g id="patch_66">
    <path clip-path="url(#p471377deec)" d="M 265.358565 307.584 
L 267.70151 307.584 
L 267.70151 241.754884 
L 265.358565 241.754884 
z
" style="fill:#1f77b4;"/>
   </g>
   <g id="patch_67">
    <path clip-path="url(#p471377deec)" d="M 267.701507 307.584 
L 270.044456 307.584 
L 270.044456 252.040729 
L 267.701507 252.040729 
z
" style="fill:#1f77b4;"/>
   </g>
   <g id="patch_68">
    <path clip-path="url(#p471377deec)" d="M 270.044456 307.584 
L 272.387404 307.584 
L 272.387404 243.812096 
L 270.044456 243.812096 
z
" style="fill:#1f77b4;"/>
   </g>
   <g id="patch_69">
    <path clip-path="url(#p471377deec)" d="M 272.3874 307.584 
L 274.730347 307.584 
L 274.730347 260.269362 
L 272.3874 260.269362 
z
" style="fill:#1f77b4;"/>
   </g>
   <g id="patch_70">
    <path clip-path="url(#p471377deec)" d="M 274.730351 307.584 
L 277.073295 307.584 
L 277.073295 264.383607 
L 274.730351 264.383607 
z
" style="fill:#1f77b4;"/>
   </g>
   <g id="patch_71">
    <path clip-path="url(#p471377deec)" d="M 277.073295 307.584 
L 279.416243 307.584 
L 279.416243 254.097887 
L 277.073295 254.097887 
z
" style="fill:#1f77b4;"/>
   </g>
   <g id="patch_72">
    <path clip-path="url(#p471377deec)" d="M 279.416239 307.584 
L 281.759187 307.584 
L 281.759187 293.183893 
L 279.416239 293.183893 
z
" style="fill:#1f77b4;"/>
   </g>
   <g id="patch_73">
    <path clip-path="url(#p471377deec)" d="M 281.75919 307.584 
L 284.102138 307.584 
L 284.102138 278.783786 
L 281.75919 278.783786 
z
" style="fill:#1f77b4;"/>
   </g>
   <g id="patch_74">
    <path clip-path="url(#p471377deec)" d="M 284.102134 307.584 
L 286.445082 307.584 
L 286.445082 291.126735 
L 284.102134 291.126735 
z
" style="fill:#1f77b4;"/>
   </g>
   <g id="patch_75">
    <path clip-path="url(#p471377deec)" d="M 286.445086 307.584 
L 288.788029 307.584 
L 288.788029 297.298192 
L 286.445086 297.298192 
z
" style="fill:#1f77b4;"/>
   </g>
   <g id="patch_76">
    <path clip-path="url(#p471377deec)" d="M 288.788029 307.584 
L 291.130977 307.584 
L 291.130977 301.412525 
L 288.788029 301.412525 
z
" style="fill:#1f77b4;"/>
   </g>
   <g id="patch_77">
    <path clip-path="url(#p471377deec)" d="M 291.130973 307.584 
L 293.473921 307.584 
L 293.473921 299.355367 
L 291.130973 299.355367 
z
" style="fill:#1f77b4;"/>
   </g>
   <g id="patch_78">
    <path clip-path="url(#p471377deec)" d="M 293.473925 307.584 
L 295.816872 307.584 
L 295.816872 289.069576 
L 293.473925 289.069576 
z
" style="fill:#1f77b4;"/>
   </g>
   <g id="patch_79">
    <path clip-path="url(#p471377deec)" d="M 295.816868 307.584 
L 298.159816 307.584 
L 298.159816 299.355367 
L 295.816868 299.355367 
z
" style="fill:#1f77b4;"/>
   </g>
   <g id="patch_80">
    <path clip-path="url(#p471377deec)" d="M 298.15982 307.584 
L 300.502764 307.584 
L 300.502764 297.298192 
L 298.15982 297.298192 
z
" style="fill:#1f77b4;"/>
   </g>
   <g id="patch_81">
    <path clip-path="url(#p471377deec)" d="M 300.502764 307.584 
L 302.845715 307.584 
L 302.845715 289.069607 
L 300.502764 289.069607 
z
" style="fill:#1f77b4;"/>
   </g>
   <g id="patch_82">
    <path clip-path="url(#p471377deec)" d="M 302.845707 307.584 
L 305.188651 307.584 
L 305.188651 289.069546 
L 302.845707 289.069546 
z
" style="fill:#1f77b4;"/>
   </g>
   <g id="patch_83">
    <path clip-path="url(#p471377deec)" d="M 305.188659 307.584 
L 307.531603 307.584 
L 307.531603 295.241031 
L 305.188659 295.241031 
z
" style="fill:#1f77b4;"/>
   </g>
   <g id="patch_84">
    <path clip-path="url(#p471377deec)" d="M 307.531603 307.584 
L 309.874554 307.584 
L 309.874554 291.126762 
L 307.531603 291.126762 
z
" style="fill:#1f77b4;"/>
   </g>
   <g id="patch_85">
    <path clip-path="url(#p471377deec)" d="M 309.874546 307.584 
L 312.21749 307.584 
L 312.21749 301.412515 
L 309.874546 301.412515 
z
" style="fill:#1f77b4;"/>
   </g>
   <g id="patch_86">
    <path clip-path="url(#p471377deec)" d="M 312.217498 307.584 
L 314.560449 307.584 
L 314.560449 274.669524 
L 312.217498 274.669524 
z
" style="fill:#1f77b4;"/>
   </g>
   <g id="patch_87">
    <path clip-path="url(#p471377deec)" d="M 314.560449 307.584 
L 316.903393 307.584 
L 316.903393 278.783738 
L 314.560449 278.783738 
z
" style="fill:#1f77b4;"/>
   </g>
   <g id="patch_88">
    <path clip-path="url(#p471377deec)" d="M 316.903385 307.584 
L 319.246329 307.584 
L 319.246329 284.955223 
L 316.903385 284.955223 
z
" style="fill:#1f77b4;"/>
   </g>
   <g id="patch_89">
    <path clip-path="url(#p471377deec)" d="M 319.246337 307.584 
L 321.589288 307.584 
L 321.589288 274.669524 
L 319.246337 274.669524 
z
" style="fill:#1f77b4;"/>
   </g>
   <g id="patch_90">
    <path clip-path="url(#p471377deec)" d="M 321.589288 307.584 
L 323.932232 307.584 
L 323.932232 289.069546 
L 321.589288 289.069546 
z
" style="fill:#1f77b4;"/>
   </g>
   <g id="patch_91">
    <path clip-path="url(#p471377deec)" d="M 323.932232 307.584 
L 326.275184 307.584 
L 326.275184 284.955297 
L 323.932232 284.955297 
z
" style="fill:#1f77b4;"/>
   </g>
   <g id="patch_92">
    <path clip-path="url(#p471377deec)" d="M 326.275176 307.584 
L 328.61812 307.584 
L 328.61812 293.183869 
L 326.275176 293.183869 
z
" style="fill:#1f77b4;"/>
   </g>
   <g id="patch_93">
    <path clip-path="url(#p471377deec)" d="M 328.618127 307.584 
L 330.961071 307.584 
L 330.961071 289.069546 
L 328.618127 289.069546 
z
" style="fill:#1f77b4;"/>
   </g>
   <g id="patch_94">
    <path clip-path="url(#p471377deec)" d="M 330.961071 307.584 
L 333.304023 307.584 
L 333.304023 297.298226 
L 330.961071 297.298226 
z
" style="fill:#1f77b4;"/>
   </g>
   <g id="patch_95">
    <path clip-path="url(#p471377deec)" d="M 333.304015 307.584 
L 335.646959 307.584 
L 335.646959 299.355354 
L 333.304015 299.355354 
z
" style="fill:#1f77b4;"/>
   </g>
   <g id="patch_96">
    <path clip-path="url(#p471377deec)" d="M 335.646967 307.584 
L 337.989918 307.584 
L 337.989918 297.298226 
L 335.646967 297.298226 
z
" style="fill:#1f77b4;"/>
   </g>
   <g id="patch_97">
    <path clip-path="url(#p471377deec)" d="M 337.989918 307.584 
L 340.332862 307.584 
L 340.332862 303.469677 
L 337.989918 303.469677 
z
" style="fill:#1f77b4;"/>
   </g>
   <g id="patch_98">
    <path clip-path="url(#p471377deec)" d="M 340.332854 307.584 
L 342.675798 307.584 
L 342.675798 303.469677 
L 340.332854 303.469677 
z
" style="fill:#1f77b4;"/>
   </g>
   <g id="patch_99">
    <path clip-path="url(#p471377deec)" d="M 342.675806 307.584 
L 345.018757 307.584 
L 345.018757 299.355381 
L 342.675806 299.355381 
z
" style="fill:#1f77b4;"/>
   </g>
   <g id="patch_100">
    <path clip-path="url(#p471377deec)" d="M 345.018757 307.584 
L 347.361701 307.584 
L 347.361701 291.126707 
L 345.018757 291.126707 
z
" style="fill:#1f77b4;"/>
   </g>
   <g id="patch_101">
    <path clip-path="url(#p471377deec)" d="M 347.361701 307.584 
L 349.704652 307.584 
L 349.704652 303.46969 
L 347.361701 303.46969 
z
" style="fill:#1f77b4;"/>
   </g>
   <g id="patch_102">
    <path clip-path="url(#p471377deec)" d="M 349.704645 307.584 
L 352.047588 307.584 
L 352.047588 299.355354 
L 349.704645 299.355354 
z
" style="fill:#1f77b4;"/>
   </g>
   <g id="matplotlib.axis_1">
    <g id="xtick_1">
     <g id="line2d_1">
      <defs>
       <path d="M 0 0 
L 0 3.5 
" id="mff82ee6ad8" style="stroke:#000000;stroke-width:0.8;"/>
      </defs>
      <g>
       <use style="stroke:#000000;stroke-width:0.8;" x="106.304676" xlink:href="#mff82ee6ad8" y="307.584"/>
      </g>
     </g>
     <g id="text_1">
      <!-- −2 -->
      <defs>
       <path d="M 10.59375 35.5 
L 73.1875 35.5 
L 73.1875 27.203125 
L 10.59375 27.203125 
z
" id="DejaVuSans-8722"/>
       <path d="M 19.1875 8.296875 
L 53.609375 8.296875 
L 53.609375 0 
L 7.328125 0 
L 7.328125 8.296875 
Q 12.9375 14.109375 22.625 23.890625 
Q 32.328125 33.6875 34.8125 36.53125 
Q 39.546875 41.84375 41.421875 45.53125 
Q 43.3125 49.21875 43.3125 52.78125 
Q 43.3125 58.59375 39.234375 62.25 
Q 35.15625 65.921875 28.609375 65.921875 
Q 23.96875 65.921875 18.8125 64.3125 
Q 13.671875 62.703125 7.8125 59.421875 
L 7.8125 69.390625 
Q 13.765625 71.78125 18.9375 73 
Q 24.125 74.21875 28.421875 74.21875 
Q 39.75 74.21875 46.484375 68.546875 
Q 53.21875 62.890625 53.21875 53.421875 
Q 53.21875 48.921875 51.53125 44.890625 
Q 49.859375 40.875 45.40625 35.40625 
Q 44.1875 33.984375 37.640625 27.21875 
Q 31.109375 20.453125 19.1875 8.296875 
z
" id="DejaVuSans-50"/>
      </defs>
      <g transform="translate(93.773817 327.501344)scale(0.17 -0.17)">
       <use xlink:href="#DejaVuSans-8722"/>
       <use x="83.789062" xlink:href="#DejaVuSans-50"/>
      </g>
     </g>
    </g>
    <g id="xtick_2">
     <g id="line2d_2">
      <g>
       <use style="stroke:#000000;stroke-width:0.8;" x="171.248574" xlink:href="#mff82ee6ad8" y="307.584"/>
      </g>
     </g>
     <g id="text_2">
      <!-- −1 -->
      <defs>
       <path d="M 12.40625 8.296875 
L 28.515625 8.296875 
L 28.515625 63.921875 
L 10.984375 60.40625 
L 10.984375 69.390625 
L 28.421875 72.90625 
L 38.28125 72.90625 
L 38.28125 8.296875 
L 54.390625 8.296875 
L 54.390625 0 
L 12.40625 0 
z
" id="DejaVuSans-49"/>
      </defs>
      <g transform="translate(158.717715 327.501344)scale(0.17 -0.17)">
       <use xlink:href="#DejaVuSans-8722"/>
       <use x="83.789062" xlink:href="#DejaVuSans-49"/>
      </g>
     </g>
    </g>
    <g id="xtick_3">
     <g id="line2d_3">
      <g>
       <use style="stroke:#000000;stroke-width:0.8;" x="236.192472" xlink:href="#mff82ee6ad8" y="307.584"/>
      </g>
     </g>
     <g id="text_3">
      <!-- 0 -->
      <defs>
       <path d="M 31.78125 66.40625 
Q 24.171875 66.40625 20.328125 58.90625 
Q 16.5 51.421875 16.5 36.375 
Q 16.5 21.390625 20.328125 13.890625 
Q 24.171875 6.390625 31.78125 6.390625 
Q 39.453125 6.390625 43.28125 13.890625 
Q 47.125 21.390625 47.125 36.375 
Q 47.125 51.421875 43.28125 58.90625 
Q 39.453125 66.40625 31.78125 66.40625 
z
M 31.78125 74.21875 
Q 44.046875 74.21875 50.515625 64.515625 
Q 56.984375 54.828125 56.984375 36.375 
Q 56.984375 17.96875 50.515625 8.265625 
Q 44.046875 -1.421875 31.78125 -1.421875 
Q 19.53125 -1.421875 13.0625 8.265625 
Q 6.59375 17.96875 6.59375 36.375 
Q 6.59375 54.828125 13.0625 64.515625 
Q 19.53125 74.21875 31.78125 74.21875 
z
" id="DejaVuSans-48"/>
      </defs>
      <g transform="translate(230.784347 327.501344)scale(0.17 -0.17)">
       <use xlink:href="#DejaVuSans-48"/>
      </g>
     </g>
    </g>
    <g id="xtick_4">
     <g id="line2d_4">
      <g>
       <use style="stroke:#000000;stroke-width:0.8;" x="301.13637" xlink:href="#mff82ee6ad8" y="307.584"/>
      </g>
     </g>
     <g id="text_4">
      <!-- 1 -->
      <g transform="translate(295.728245 327.501344)scale(0.17 -0.17)">
       <use xlink:href="#DejaVuSans-49"/>
      </g>
     </g>
    </g>
    <g id="xtick_5">
     <g id="line2d_5">
      <g>
       <use style="stroke:#000000;stroke-width:0.8;" x="366.080268" xlink:href="#mff82ee6ad8" y="307.584"/>
      </g>
     </g>
     <g id="text_5">
      <!-- 2 -->
      <g transform="translate(360.672143 327.501344)scale(0.17 -0.17)">
       <use xlink:href="#DejaVuSans-50"/>
      </g>
     </g>
    </g>
    <g id="text_6">
     <!-- Position in Radian -->
     <defs>
      <path d="M 19.671875 64.796875 
L 19.671875 37.40625 
L 32.078125 37.40625 
Q 38.96875 37.40625 42.71875 40.96875 
Q 46.484375 44.53125 46.484375 51.125 
Q 46.484375 57.671875 42.71875 61.234375 
Q 38.96875 64.796875 32.078125 64.796875 
z
M 9.8125 72.90625 
L 32.078125 72.90625 
Q 44.34375 72.90625 50.609375 67.359375 
Q 56.890625 61.8125 56.890625 51.125 
Q 56.890625 40.328125 50.609375 34.8125 
Q 44.34375 29.296875 32.078125 29.296875 
L 19.671875 29.296875 
L 19.671875 0 
L 9.8125 0 
z
" id="DejaVuSans-80"/>
      <path d="M 30.609375 48.390625 
Q 23.390625 48.390625 19.1875 42.75 
Q 14.984375 37.109375 14.984375 27.296875 
Q 14.984375 17.484375 19.15625 11.84375 
Q 23.34375 6.203125 30.609375 6.203125 
Q 37.796875 6.203125 41.984375 11.859375 
Q 46.1875 17.53125 46.1875 27.296875 
Q 46.1875 37.015625 41.984375 42.703125 
Q 37.796875 48.390625 30.609375 48.390625 
z
M 30.609375 56 
Q 42.328125 56 49.015625 48.375 
Q 55.71875 40.765625 55.71875 27.296875 
Q 55.71875 13.875 49.015625 6.21875 
Q 42.328125 -1.421875 30.609375 -1.421875 
Q 18.84375 -1.421875 12.171875 6.21875 
Q 5.515625 13.875 5.515625 27.296875 
Q 5.515625 40.765625 12.171875 48.375 
Q 18.84375 56 30.609375 56 
z
" id="DejaVuSans-111"/>
      <path d="M 44.28125 53.078125 
L 44.28125 44.578125 
Q 40.484375 46.53125 36.375 47.5 
Q 32.28125 48.484375 27.875 48.484375 
Q 21.1875 48.484375 17.84375 46.4375 
Q 14.5 44.390625 14.5 40.28125 
Q 14.5 37.15625 16.890625 35.375 
Q 19.28125 33.59375 26.515625 31.984375 
L 29.59375 31.296875 
Q 39.15625 29.25 43.1875 25.515625 
Q 47.21875 21.78125 47.21875 15.09375 
Q 47.21875 7.46875 41.1875 3.015625 
Q 35.15625 -1.421875 24.609375 -1.421875 
Q 20.21875 -1.421875 15.453125 -0.5625 
Q 10.6875 0.296875 5.421875 2 
L 5.421875 11.28125 
Q 10.40625 8.6875 15.234375 7.390625 
Q 20.0625 6.109375 24.8125 6.109375 
Q 31.15625 6.109375 34.5625 8.28125 
Q 37.984375 10.453125 37.984375 14.40625 
Q 37.984375 18.0625 35.515625 20.015625 
Q 33.0625 21.96875 24.703125 23.78125 
L 21.578125 24.515625 
Q 13.234375 26.265625 9.515625 29.90625 
Q 5.8125 33.546875 5.8125 39.890625 
Q 5.8125 47.609375 11.28125 51.796875 
Q 16.75 56 26.8125 56 
Q 31.78125 56 36.171875 55.265625 
Q 40.578125 54.546875 44.28125 53.078125 
z
" id="DejaVuSans-115"/>
      <path d="M 9.421875 54.6875 
L 18.40625 54.6875 
L 18.40625 0 
L 9.421875 0 
z
M 9.421875 75.984375 
L 18.40625 75.984375 
L 18.40625 64.59375 
L 9.421875 64.59375 
z
" id="DejaVuSans-105"/>
      <path d="M 18.3125 70.21875 
L 18.3125 54.6875 
L 36.8125 54.6875 
L 36.8125 47.703125 
L 18.3125 47.703125 
L 18.3125 18.015625 
Q 18.3125 11.328125 20.140625 9.421875 
Q 21.96875 7.515625 27.59375 7.515625 
L 36.8125 7.515625 
L 36.8125 0 
L 27.59375 0 
Q 17.1875 0 13.234375 3.875 
Q 9.28125 7.765625 9.28125 18.015625 
L 9.28125 47.703125 
L 2.6875 47.703125 
L 2.6875 54.6875 
L 9.28125 54.6875 
L 9.28125 70.21875 
z
" id="DejaVuSans-116"/>
      <path d="M 54.890625 33.015625 
L 54.890625 0 
L 45.90625 0 
L 45.90625 32.71875 
Q 45.90625 40.484375 42.875 44.328125 
Q 39.84375 48.1875 33.796875 48.1875 
Q 26.515625 48.1875 22.3125 43.546875 
Q 18.109375 38.921875 18.109375 30.90625 
L 18.109375 0 
L 9.078125 0 
L 9.078125 54.6875 
L 18.109375 54.6875 
L 18.109375 46.1875 
Q 21.34375 51.125 25.703125 53.5625 
Q 30.078125 56 35.796875 56 
Q 45.21875 56 50.046875 50.171875 
Q 54.890625 44.34375 54.890625 33.015625 
z
" id="DejaVuSans-110"/>
      <path id="DejaVuSans-32"/>
      <path d="M 44.390625 34.1875 
Q 47.5625 33.109375 50.5625 29.59375 
Q 53.5625 26.078125 56.59375 19.921875 
L 66.609375 0 
L 56 0 
L 46.6875 18.703125 
Q 43.0625 26.03125 39.671875 28.421875 
Q 36.28125 30.8125 30.421875 30.8125 
L 19.671875 30.8125 
L 19.671875 0 
L 9.8125 0 
L 9.8125 72.90625 
L 32.078125 72.90625 
Q 44.578125 72.90625 50.734375 67.671875 
Q 56.890625 62.453125 56.890625 51.90625 
Q 56.890625 45.015625 53.6875 40.46875 
Q 50.484375 35.9375 44.390625 34.1875 
z
M 19.671875 64.796875 
L 19.671875 38.921875 
L 32.078125 38.921875 
Q 39.203125 38.921875 42.84375 42.21875 
Q 46.484375 45.515625 46.484375 51.90625 
Q 46.484375 58.296875 42.84375 61.546875 
Q 39.203125 64.796875 32.078125 64.796875 
z
" id="DejaVuSans-82"/>
      <path d="M 34.28125 27.484375 
Q 23.390625 27.484375 19.1875 25 
Q 14.984375 22.515625 14.984375 16.5 
Q 14.984375 11.71875 18.140625 8.90625 
Q 21.296875 6.109375 26.703125 6.109375 
Q 34.1875 6.109375 38.703125 11.40625 
Q 43.21875 16.703125 43.21875 25.484375 
L 43.21875 27.484375 
z
M 52.203125 31.203125 
L 52.203125 0 
L 43.21875 0 
L 43.21875 8.296875 
Q 40.140625 3.328125 35.546875 0.953125 
Q 30.953125 -1.421875 24.3125 -1.421875 
Q 15.921875 -1.421875 10.953125 3.296875 
Q 6 8.015625 6 15.921875 
Q 6 25.140625 12.171875 29.828125 
Q 18.359375 34.515625 30.609375 34.515625 
L 43.21875 34.515625 
L 43.21875 35.40625 
Q 43.21875 41.609375 39.140625 45 
Q 35.0625 48.390625 27.6875 48.390625 
Q 23 48.390625 18.546875 47.265625 
Q 14.109375 46.140625 10.015625 43.890625 
L 10.015625 52.203125 
Q 14.9375 54.109375 19.578125 55.046875 
Q 24.21875 56 28.609375 56 
Q 40.484375 56 46.34375 49.84375 
Q 52.203125 43.703125 52.203125 31.203125 
z
" id="DejaVuSans-97"/>
      <path d="M 45.40625 46.390625 
L 45.40625 75.984375 
L 54.390625 75.984375 
L 54.390625 0 
L 45.40625 0 
L 45.40625 8.203125 
Q 42.578125 3.328125 38.25 0.953125 
Q 33.9375 -1.421875 27.875 -1.421875 
Q 17.96875 -1.421875 11.734375 6.484375 
Q 5.515625 14.40625 5.515625 27.296875 
Q 5.515625 40.1875 11.734375 48.09375 
Q 17.96875 56 27.875 56 
Q 33.9375 56 38.25 53.625 
Q 42.578125 51.265625 45.40625 46.390625 
z
M 14.796875 27.296875 
Q 14.796875 17.390625 18.875 11.75 
Q 22.953125 6.109375 30.078125 6.109375 
Q 37.203125 6.109375 41.296875 11.75 
Q 45.40625 17.390625 45.40625 27.296875 
Q 45.40625 37.203125 41.296875 42.84375 
Q 37.203125 48.484375 30.078125 48.484375 
Q 22.953125 48.484375 18.875 42.84375 
Q 14.796875 37.203125 14.796875 27.296875 
z
" id="DejaVuSans-100"/>
     </defs>
     <g transform="translate(102.024844 357.832125)scale(0.3 -0.3)">
      <use xlink:href="#DejaVuSans-80"/>
      <use x="60.255859" xlink:href="#DejaVuSans-111"/>
      <use x="121.4375" xlink:href="#DejaVuSans-115"/>
      <use x="173.537109" xlink:href="#DejaVuSans-105"/>
      <use x="201.320312" xlink:href="#DejaVuSans-116"/>
      <use x="240.529297" xlink:href="#DejaVuSans-105"/>
      <use x="268.3125" xlink:href="#DejaVuSans-111"/>
      <use x="329.494141" xlink:href="#DejaVuSans-110"/>
      <use x="392.873047" xlink:href="#DejaVuSans-32"/>
      <use x="424.660156" xlink:href="#DejaVuSans-105"/>
      <use x="452.443359" xlink:href="#DejaVuSans-110"/>
      <use x="515.822266" xlink:href="#DejaVuSans-32"/>
      <use x="547.609375" xlink:href="#DejaVuSans-82"/>
      <use x="617.060547" xlink:href="#DejaVuSans-97"/>
      <use x="678.339844" xlink:href="#DejaVuSans-100"/>
      <use x="741.816406" xlink:href="#DejaVuSans-105"/>
      <use x="769.599609" xlink:href="#DejaVuSans-97"/>
      <use x="830.878906" xlink:href="#DejaVuSans-110"/>
     </g>
    </g>
   </g>
   <g id="matplotlib.axis_2">
    <g id="ytick_1">
     <g id="line2d_6">
      <defs>
       <path d="M 0 0 
L -3.5 0 
" id="ma6d70dd1a4" style="stroke:#000000;stroke-width:0.8;"/>
      </defs>
      <g>
       <use style="stroke:#000000;stroke-width:0.8;" x="57.6" xlink:href="#ma6d70dd1a4" y="307.584"/>
      </g>
     </g>
     <g id="text_7">
      <!-- 0.00 -->
      <defs>
       <path d="M 10.6875 12.40625 
L 21 12.40625 
L 21 0 
L 10.6875 0 
z
" id="DejaVuSans-46"/>
      </defs>
      <g transform="translate(12.748438 314.042672)scale(0.17 -0.17)">
       <use xlink:href="#DejaVuSans-48"/>
       <use x="63.623047" xlink:href="#DejaVuSans-46"/>
       <use x="95.410156" xlink:href="#DejaVuSans-48"/>
       <use x="159.033203" xlink:href="#DejaVuSans-48"/>
      </g>
     </g>
    </g>
    <g id="ytick_2">
     <g id="line2d_7">
      <g>
       <use style="stroke:#000000;stroke-width:0.8;" x="57.6" xlink:href="#ma6d70dd1a4" y="261.199601"/>
      </g>
     </g>
     <g id="text_8">
      <!-- 0.25 -->
      <defs>
       <path d="M 10.796875 72.90625 
L 49.515625 72.90625 
L 49.515625 64.59375 
L 19.828125 64.59375 
L 19.828125 46.734375 
Q 21.96875 47.46875 24.109375 47.828125 
Q 26.265625 48.1875 28.421875 48.1875 
Q 40.625 48.1875 47.75 41.5 
Q 54.890625 34.8125 54.890625 23.390625 
Q 54.890625 11.625 47.5625 5.09375 
Q 40.234375 -1.421875 26.90625 -1.421875 
Q 22.3125 -1.421875 17.546875 -0.640625 
Q 12.796875 0.140625 7.71875 1.703125 
L 7.71875 11.625 
Q 12.109375 9.234375 16.796875 8.0625 
Q 21.484375 6.890625 26.703125 6.890625 
Q 35.15625 6.890625 40.078125 11.328125 
Q 45.015625 15.765625 45.015625 23.390625 
Q 45.015625 31 40.078125 35.4375 
Q 35.15625 39.890625 26.703125 39.890625 
Q 22.75 39.890625 18.8125 39.015625 
Q 14.890625 38.140625 10.796875 36.28125 
z
" id="DejaVuSans-53"/>
      </defs>
      <g transform="translate(12.748438 267.658273)scale(0.17 -0.17)">
       <use xlink:href="#DejaVuSans-48"/>
       <use x="63.623047" xlink:href="#DejaVuSans-46"/>
       <use x="95.410156" xlink:href="#DejaVuSans-50"/>
       <use x="159.033203" xlink:href="#DejaVuSans-53"/>
      </g>
     </g>
    </g>
    <g id="ytick_3">
     <g id="line2d_8">
      <g>
       <use style="stroke:#000000;stroke-width:0.8;" x="57.6" xlink:href="#ma6d70dd1a4" y="214.815202"/>
      </g>
     </g>
     <g id="text_9">
      <!-- 0.50 -->
      <g transform="translate(12.748438 221.273874)scale(0.17 -0.17)">
       <use xlink:href="#DejaVuSans-48"/>
       <use x="63.623047" xlink:href="#DejaVuSans-46"/>
       <use x="95.410156" xlink:href="#DejaVuSans-53"/>
       <use x="159.033203" xlink:href="#DejaVuSans-48"/>
      </g>
     </g>
    </g>
    <g id="ytick_4">
     <g id="line2d_9">
      <g>
       <use style="stroke:#000000;stroke-width:0.8;" x="57.6" xlink:href="#ma6d70dd1a4" y="168.430803"/>
      </g>
     </g>
     <g id="text_10">
      <!-- 0.75 -->
      <defs>
       <path d="M 8.203125 72.90625 
L 55.078125 72.90625 
L 55.078125 68.703125 
L 28.609375 0 
L 18.3125 0 
L 43.21875 64.59375 
L 8.203125 64.59375 
z
" id="DejaVuSans-55"/>
      </defs>
      <g transform="translate(12.748438 174.889475)scale(0.17 -0.17)">
       <use xlink:href="#DejaVuSans-48"/>
       <use x="63.623047" xlink:href="#DejaVuSans-46"/>
       <use x="95.410156" xlink:href="#DejaVuSans-55"/>
       <use x="159.033203" xlink:href="#DejaVuSans-53"/>
      </g>
     </g>
    </g>
    <g id="ytick_5">
     <g id="line2d_10">
      <g>
       <use style="stroke:#000000;stroke-width:0.8;" x="57.6" xlink:href="#ma6d70dd1a4" y="122.046404"/>
      </g>
     </g>
     <g id="text_11">
      <!-- 1.00 -->
      <g transform="translate(12.748438 128.505076)scale(0.17 -0.17)">
       <use xlink:href="#DejaVuSans-49"/>
       <use x="63.623047" xlink:href="#DejaVuSans-46"/>
       <use x="95.410156" xlink:href="#DejaVuSans-48"/>
       <use x="159.033203" xlink:href="#DejaVuSans-48"/>
      </g>
     </g>
    </g>
    <g id="ytick_6">
     <g id="line2d_11">
      <g>
       <use style="stroke:#000000;stroke-width:0.8;" x="57.6" xlink:href="#ma6d70dd1a4" y="75.662005"/>
      </g>
     </g>
     <g id="text_12">
      <!-- 1.25 -->
      <g transform="translate(12.748438 82.120677)scale(0.17 -0.17)">
       <use xlink:href="#DejaVuSans-49"/>
       <use x="63.623047" xlink:href="#DejaVuSans-46"/>
       <use x="95.410156" xlink:href="#DejaVuSans-50"/>
       <use x="159.033203" xlink:href="#DejaVuSans-53"/>
      </g>
     </g>
    </g>
    <g id="text_13">
     <!-- Density -->
     <defs>
      <path d="M 19.671875 64.796875 
L 19.671875 8.109375 
L 31.59375 8.109375 
Q 46.6875 8.109375 53.6875 14.9375 
Q 60.6875 21.78125 60.6875 36.53125 
Q 60.6875 51.171875 53.6875 57.984375 
Q 46.6875 64.796875 31.59375 64.796875 
z
M 9.8125 72.90625 
L 30.078125 72.90625 
Q 51.265625 72.90625 61.171875 64.09375 
Q 71.09375 55.28125 71.09375 36.53125 
Q 71.09375 17.671875 61.125 8.828125 
Q 51.171875 0 30.078125 0 
L 9.8125 0 
z
" id="DejaVuSans-68"/>
      <path d="M 56.203125 29.59375 
L 56.203125 25.203125 
L 14.890625 25.203125 
Q 15.484375 15.921875 20.484375 11.0625 
Q 25.484375 6.203125 34.421875 6.203125 
Q 39.59375 6.203125 44.453125 7.46875 
Q 49.3125 8.734375 54.109375 11.28125 
L 54.109375 2.78125 
Q 49.265625 0.734375 44.1875 -0.34375 
Q 39.109375 -1.421875 33.890625 -1.421875 
Q 20.796875 -1.421875 13.15625 6.1875 
Q 5.515625 13.8125 5.515625 26.8125 
Q 5.515625 40.234375 12.765625 48.109375 
Q 20.015625 56 32.328125 56 
Q 43.359375 56 49.78125 48.890625 
Q 56.203125 41.796875 56.203125 29.59375 
z
M 47.21875 32.234375 
Q 47.125 39.59375 43.09375 43.984375 
Q 39.0625 48.390625 32.421875 48.390625 
Q 24.90625 48.390625 20.390625 44.140625 
Q 15.875 39.890625 15.1875 32.171875 
z
" id="DejaVuSans-101"/>
      <path d="M 32.171875 -5.078125 
Q 28.375 -14.84375 24.75 -17.8125 
Q 21.140625 -20.796875 15.09375 -20.796875 
L 7.90625 -20.796875 
L 7.90625 -13.28125 
L 13.1875 -13.28125 
Q 16.890625 -13.28125 18.9375 -11.515625 
Q 21 -9.765625 23.484375 -3.21875 
L 25.09375 0.875 
L 2.984375 54.6875 
L 12.5 54.6875 
L 29.59375 11.921875 
L 46.6875 54.6875 
L 56.203125 54.6875 
z
" id="DejaVuSans-121"/>
     </defs>
     <g transform="translate(2.509375 231.553781)rotate(-90)scale(0.3 -0.3)">
      <use xlink:href="#DejaVuSans-68"/>
      <use x="77.001953" xlink:href="#DejaVuSans-101"/>
      <use x="138.525391" xlink:href="#DejaVuSans-110"/>
      <use x="201.904297" xlink:href="#DejaVuSans-115"/>
      <use x="254.003906" xlink:href="#DejaVuSans-105"/>
      <use x="281.787109" xlink:href="#DejaVuSans-116"/>
      <use x="320.996094" xlink:href="#DejaVuSans-121"/>
     </g>
    </g>
   </g>
   <g id="line2d_12">
    <path clip-path="url(#p471377deec)" d="M 73.832727 307.584 
L 116.046261 307.489828 
L 116.37098 307.273016 
L 116.6957 306.77889 
L 117.150307 305.526321 
L 117.86469 303.543508 
L 118.18941 303.232991 
L 118.449185 303.292546 
L 118.708961 303.62497 
L 119.098624 304.575379 
L 119.618175 305.836188 
L 119.813007 305.953142 
L 120.007839 305.765273 
L 120.267614 305.053319 
L 121.111885 302.154393 
L 121.241773 302.136885 
L 121.436604 302.441962 
L 121.761324 303.636425 
L 122.540651 306.717952 
L 122.930314 307.321468 
L 123.255034 307.451863 
L 123.579753 307.343038 
L 123.904473 306.960743 
L 124.294136 306.085879 
L 124.878631 304.71425 
L 125.073463 304.591054 
L 125.268294 304.70321 
L 126.112565 305.678208 
L 126.372341 305.397469 
L 126.956836 304.595404 
L 127.151667 304.671001 
L 127.411443 305.119688 
L 128.385601 307.261645 
L 128.775265 307.49355 
L 129.164928 307.482831 
L 129.489648 307.280945 
L 129.814367 306.778277 
L 130.204031 305.638982 
L 131.113245 302.633121 
L 131.373021 302.495047 
L 131.567852 302.658977 
L 132.606955 304.020099 
L 132.996618 304.263223 
L 133.321338 304.849205 
L 134.035721 306.385243 
L 134.230552 306.415097 
L 134.425384 306.182592 
L 134.750103 305.276576 
L 135.594374 302.589822 
L 135.789206 302.528552 
L 135.984038 302.774828 
L 136.308757 303.744935 
L 137.217972 306.873145 
L 137.607635 307.381484 
L 138.062242 307.553672 
L 139.101345 307.575078 
L 139.68584 307.450183 
L 140.010559 307.150748 
L 140.335279 306.471781 
L 140.724942 305.022898 
L 141.439325 302.298113 
L 141.634157 302.175395 
L 141.828988 302.444486 
L 142.153708 303.583812 
L 142.933035 306.668391 
L 143.322698 307.314208 
L 143.712361 307.527276 
L 144.426744 307.582679 
L 147.673939 307.509151 
L 148.063603 307.253892 
L 148.388322 306.705898 
L 148.777985 305.474172 
L 149.622256 302.505606 
L 149.817088 302.40408 
L 150.011919 302.639327 
L 150.336639 303.644531 
L 151.245854 306.875787 
L 151.635517 307.384945 
L 152.090124 307.554373 
L 152.934395 307.554752 
L 153.389002 307.393086 
L 153.713722 307.040758 
L 154.103385 306.214088 
L 154.752824 304.706078 
L 154.947656 304.621473 
L 155.142487 304.788907 
L 155.532151 305.608797 
L 155.921814 306.291983 
L 156.116646 306.341335 
L 156.311478 306.160793 
L 156.701141 305.341341 
L 157.090804 304.655386 
L 157.285636 304.61877 
L 157.480468 304.815682 
L 158.259795 305.921816 
L 158.454626 305.675681 
L 158.714402 304.813868 
L 159.104065 302.440893 
L 159.68856 297.142426 
L 160.273055 292.329398 
L 160.532831 291.413522 
L 160.727663 291.263369 
L 160.922494 291.404646 
L 161.442046 292.205552 
L 161.766765 293.162462 
L 162.67598 296.824998 
L 162.805867 296.722645 
L 163.065643 295.969094 
L 164.429465 290.264648 
L 164.819128 285.85035 
L 165.533511 276.714226 
L 165.663399 276.35731 
L 165.793287 276.721972 
L 165.988118 278.638857 
L 166.312838 284.690855 
L 166.962277 297.326337 
L 167.222052 299.002603 
L 167.286996 298.987583 
L 167.416884 298.431525 
L 167.611716 296.358652 
L 168.001379 288.924553 
L 168.650818 276.664625 
L 168.910594 275.073029 
L 168.975538 275.050962 
L 169.105425 275.423225 
L 169.365201 277.558434 
L 170.534191 290.415182 
L 170.729023 290.675329 
L 170.858911 290.505091 
L 171.118686 289.500329 
L 171.50835 286.644997 
L 172.027901 280.706211 
L 173.002059 269.179926 
L 173.326779 267.364468 
L 173.521611 266.988421 
L 173.651498 267.015621 
L 173.84633 267.41515 
L 174.171049 268.792678 
L 174.950376 272.422103 
L 175.145208 272.634635 
L 175.34004 272.502403 
L 175.664759 271.801721 
L 176.119366 270.239995 
L 176.50903 268.0133 
L 177.67802 260.509307 
L 178.392403 257.456335 
L 178.652178 257.064393 
L 178.84701 257.063896 
L 179.236674 257.408333 
L 179.626337 258.048425 
L 180.016 259.248326 
L 180.665439 261.153365 
L 180.990159 262.371818 
L 181.704542 266.229134 
L 181.769486 266.178222 
L 181.899373 265.674553 
L 182.159149 263.260599 
L 182.613756 258.774129 
L 182.743644 258.573701 
L 182.873532 259.051896 
L 183.133307 261.615409 
L 183.652859 266.953024 
L 183.84769 267.325254 
L 183.977578 267.089399 
L 184.497129 265.741786 
L 184.627017 266.033524 
L 184.886793 267.652934 
L 185.536232 272.440169 
L 185.666119 272.5357 
L 185.796007 272.225456 
L 186.055783 270.585701 
L 186.770166 263.453387 
L 187.224773 257.392999 
L 187.67938 247.462936 
L 188.783427 220.53105 
L 188.913314 219.925114 
L 188.978258 219.991279 
L 189.108146 220.860755 
L 189.367922 225.182974 
L 190.212192 242.39447 
L 190.407024 243.011036 
L 190.536912 242.593185 
L 190.796687 240.441697 
L 191.251295 236.695393 
L 191.381182 236.51502 
L 191.51107 236.904401 
L 191.705902 238.49877 
L 192.550173 247.279935 
L 192.68006 246.88978 
L 192.874892 244.945216 
L 193.199612 238.806621 
L 193.913994 224.441981 
L 194.238714 221.889564 
L 194.433546 221.568696 
L 194.563433 221.689091 
L 195.147928 222.743546 
L 195.277816 222.558691 
L 195.472648 221.722538 
L 195.797367 218.88744 
L 196.51175 212.054274 
L 196.706582 211.562576 
L 196.83647 211.721426 
L 197.031302 212.753782 
L 197.291077 215.73021 
L 197.810628 225.676927 
L 198.135348 229.797087 
L 198.200292 229.904372 
L 198.330179 229.182345 
L 198.525011 225.675112 
L 198.914675 212.125084 
L 199.49917 192.910717 
L 199.823889 188.139312 
L 200.34344 184.256086 
L 200.733104 182.412669 
L 200.927935 182.193682 
L 201.057823 182.342349 
L 201.252655 182.955265 
L 201.577374 184.962863 
L 201.902094 188.765189 
L 202.291757 196.994781 
L 203.33086 222.922876 
L 203.525691 223.888275 
L 203.590635 223.851407 
L 203.720523 223.327417 
L 203.980299 220.995829 
L 204.434906 214.731519 
L 204.824569 205.96506 
L 205.863672 176.95616 
L 205.928616 176.882232 
L 206.058503 177.663145 
L 206.318279 182.284335 
L 207.032662 197.692773 
L 207.16255 198.30384 
L 207.227493 198.258894 
L 207.357381 197.538521 
L 207.617157 194.297261 
L 208.33154 184.838477 
L 208.786147 181.801113 
L 209.045923 181.213761 
L 209.17581 181.427274 
L 209.370642 182.523314 
L 209.695362 186.374088 
L 210.474688 200.298521 
L 210.99424 207.478124 
L 211.383903 210.334384 
L 211.578735 210.82175 
L 211.708622 210.716441 
L 211.903454 209.812308 
L 212.16323 207.169499 
L 213.202332 194.219942 
L 213.33222 194.100551 
L 213.462108 194.341072 
L 213.981659 195.76658 
L 214.111547 195.359457 
L 214.306378 193.681866 
L 214.631098 188.16716 
L 215.605256 169.110845 
L 215.865032 167.765985 
L 215.929976 167.788824 
L 216.059864 168.210155 
L 216.644359 171.585135 
L 216.709303 171.545824 
L 216.83919 170.996226 
L 217.098966 168.26708 
L 217.553573 163.153351 
L 217.683461 162.821301 
L 217.813349 163.141396 
L 218.073124 165.089613 
L 218.397844 167.27414 
L 218.527732 167.371173 
L 218.65762 166.924504 
L 218.917395 164.802415 
L 219.436946 160.377512 
L 219.696722 159.745746 
L 219.82661 159.830308 
L 220.021441 160.344811 
L 220.346161 162.061338 
L 221.190432 167.689333 
L 221.320319 167.309472 
L 221.515151 165.396796 
L 221.839871 158.875387 
L 222.489309 145.177622 
L 222.619197 144.638226 
L 222.749085 145.266192 
L 222.943917 148.422147 
L 223.268636 158.497006 
L 223.983019 182.685926 
L 224.242795 185.792322 
L 224.307739 185.904292 
L 224.437626 185.380226 
L 224.632458 183.01044 
L 225.606617 167.915709 
L 225.801448 167.368275 
L 225.931336 167.378029 
L 226.126168 167.788728 
L 226.450887 169.228217 
L 227.100326 172.499995 
L 227.295158 172.712225 
L 227.425046 172.572043 
L 227.619877 171.967944 
L 227.879653 170.407378 
L 228.204373 166.845785 
L 228.723924 157.48998 
L 229.113587 151.984283 
L 229.308419 151.311319 
L 229.438307 151.692764 
L 229.698082 153.804533 
L 230.152689 157.45442 
L 230.347521 157.83401 
L 230.477409 157.708928 
L 230.737185 156.887344 
L 230.99696 155.352381 
L 231.256736 152.296323 
L 231.581455 145.039325 
L 232.230894 128.540967 
L 232.360782 127.638021 
L 232.425726 127.663983 
L 232.555614 128.672704 
L 232.815389 134.135986 
L 233.269997 150.724406 
L 233.984379 176.174537 
L 234.309099 180.90837 
L 234.374043 181.064976 
L 234.438987 180.918253 
L 234.568875 179.622702 
L 234.763706 174.734039 
L 235.023482 161.253834 
L 235.348201 131.336829 
L 236.062584 57.257401 
L 236.192472 54.144 
L 236.257416 54.551424 
L 236.387304 59.196849 
L 236.647079 80.990272 
L 237.49135 163.330276 
L 237.881013 178.663687 
L 238.530452 193.102427 
L 238.98506 200.541873 
L 239.244835 201.979101 
L 239.309779 201.942556 
L 239.439667 201.456475 
L 240.15405 197.124479 
L 240.218994 197.227356 
L 240.413825 198.221326 
L 241.128208 203.394215 
L 241.193152 203.388891 
L 241.32304 202.988169 
L 241.582815 200.747072 
L 243.011581 184.51639 
L 243.271357 183.547827 
L 243.401245 183.463234 
L 243.531132 183.707596 
L 243.725964 184.792434 
L 243.98574 187.764899 
L 244.440347 196.506929 
L 244.83001 202.702089 
L 244.959898 203.041055 
L 245.089786 202.055778 
L 245.284618 197.773517 
L 245.609337 183.539507 
L 246.388664 146.073435 
L 246.518552 145.058291 
L 246.64844 146.297643 
L 246.843271 151.95525 
L 247.752486 186.864387 
L 247.81743 187.095895 
L 247.882374 186.928263 
L 248.012261 185.53089 
L 248.336981 178.042571 
L 248.856532 166.160563 
L 249.116308 163.687355 
L 249.246195 163.362643 
L 249.311139 163.390671 
L 249.441027 163.758281 
L 249.765747 165.854776 
L 250.350242 171.373722 
L 250.869793 178.716384 
L 251.3244 184.374011 
L 251.454288 184.820775 
L 251.519232 184.765264 
L 251.64912 184.084684 
L 251.908895 180.804218 
L 252.428446 173.888644 
L 252.49339 173.749253 
L 252.558334 173.864331 
L 252.688222 174.880592 
L 252.947998 179.698952 
L 253.597437 193.394043 
L 253.727324 193.741802 
L 253.857212 192.946442 
L 254.116988 188.496416 
L 254.831371 174.210424 
L 254.961258 173.75467 
L 255.091146 174.176864 
L 255.285978 176.177769 
L 256.454968 194.376769 
L 256.844631 204.537623 
L 257.49407 221.419108 
L 257.688902 222.767581 
L 257.753846 222.734826 
L 257.883734 222.027079 
L 258.143509 218.68335 
L 259.052724 204.864924 
L 259.377443 202.769952 
L 259.572275 202.528212 
L 259.702163 202.889619 
L 259.896995 204.349996 
L 260.15677 208.15853 
L 260.611378 218.99314 
L 261.195873 232.31077 
L 261.455648 234.354876 
L 261.520592 234.349566 
L 261.65048 233.740297 
L 261.910256 230.561434 
L 262.559694 221.144326 
L 262.689582 220.658007 
L 262.754526 220.679005 
L 262.884414 221.23747 
L 263.14419 224.089556 
L 263.858572 233.475759 
L 264.053404 233.97162 
L 264.183292 233.730433 
L 264.508011 232.085084 
L 264.897675 230.504739 
L 265.15745 230.220924 
L 265.48217 229.942463 
L 266.001721 229.084837 
L 266.131609 229.35346 
L 266.326441 230.648764 
L 266.65116 235.340858 
L 267.235655 244.367214 
L 267.430487 245.08264 
L 267.560375 244.915858 
L 267.950038 244.03476 
L 268.079926 244.498158 
L 268.274757 246.420232 
L 268.664421 253.68715 
L 269.119028 261.441462 
L 269.31386 262.623947 
L 269.378804 262.658332 
L 269.508692 262.198399 
L 269.703523 260.319985 
L 270.158131 252.707462 
L 270.612738 246.303073 
L 270.872513 244.983139 
L 271.002401 244.95389 
L 271.197233 245.500402 
L 271.586896 247.806278 
L 272.366223 252.693099 
L 272.625999 253.276335 
L 273.14555 253.690969 
L 273.340382 254.522616 
L 273.600157 256.719117 
L 274.444428 265.247393 
L 274.639259 265.684496 
L 274.769147 265.669114 
L 275.418586 265.1563 
L 275.678362 265.122298 
L 275.873194 264.710268 
L 276.132969 263.199637 
L 276.522633 258.872431 
L 277.172072 251.509668 
L 277.366903 251.043206 
L 277.496791 251.46753 
L 277.691623 253.19702 
L 278.14623 260.281801 
L 278.665781 266.878947 
L 279.31522 273.429846 
L 279.899715 283.68548 
L 280.419266 291.219355 
L 280.743986 293.14321 
L 280.873874 293.303371 
L 281.003761 293.156594 
L 281.198593 292.416195 
L 281.523313 289.932912 
L 282.497471 280.758205 
L 282.627359 280.779946 
L 282.822191 281.507588 
L 283.47163 284.642919 
L 283.666461 284.691273 
L 283.926237 284.580383 
L 284.056125 284.718536 
L 284.250956 285.380777 
L 284.64062 288.009123 
L 285.030283 290.245545 
L 285.290059 290.655902 
L 285.48489 290.534613 
L 285.80961 290.273726 
L 286.004442 290.441405 
L 286.264217 291.199973 
L 287.108488 294.225931 
L 287.433207 294.388314 
L 287.628039 294.529189 
L 287.822871 294.922229 
L 288.14759 296.204054 
L 288.732085 298.485578 
L 289.056805 298.936278 
L 289.381524 299.381601 
L 289.706244 300.391357 
L 290.550514 303.611875 
L 290.680402 303.617936 
L 290.875234 303.225609 
L 291.199953 301.740736 
L 291.719505 299.465166 
L 291.914336 299.306218 
L 292.109168 299.57195 
L 292.693663 300.686551 
L 292.823551 300.433366 
L 293.018383 299.398746 
L 293.343102 295.827705 
L 294.187373 284.526803 
L 294.317261 284.23296 
L 294.447148 284.56226 
L 294.64198 286.108416 
L 295.81097 298.232785 
L 296.200634 299.070582 
L 296.97996 300.371365 
L 297.109848 300.251083 
L 297.30468 299.701334 
L 297.629399 297.922057 
L 298.278838 294.195054 
L 298.47367 293.842882 
L 298.603558 293.893436 
L 298.798389 294.387799 
L 299.123109 296.096517 
L 299.837492 300.06684 
L 300.032324 300.37479 
L 300.162211 300.317384 
L 300.357043 299.845337 
L 300.681763 298.167748 
L 301.396145 292.575571 
L 301.98064 288.84879 
L 302.175472 288.398404 
L 302.30536 288.42964 
L 302.500192 288.965016 
L 303.214575 291.741024 
L 303.344462 291.475512 
L 303.539294 290.416857 
L 304.513453 283.758822 
L 304.64334 283.995649 
L 304.838172 285.040961 
L 305.227835 289.012396 
L 305.877274 295.849102 
L 306.13705 296.852609 
L 306.266938 296.856296 
L 306.461769 296.297997 
L 306.786489 294.322667 
L 307.30604 291.211452 
L 307.500872 290.843973 
L 307.63076 290.903079 
L 307.890535 291.543472 
L 308.345142 292.661242 
L 308.539974 292.630735 
L 309.059525 292.189967 
L 309.254357 292.74401 
L 309.514133 294.500065 
L 310.423347 301.82622 
L 310.553235 301.95988 
L 310.683123 301.807167 
L 310.877954 301.125491 
L 311.267618 298.652352 
L 312.046945 291.698705 
L 314.060205 273.653129 
L 314.319981 273.037428 
L 314.449869 273.171444 
L 314.709644 274.086118 
L 315.099308 275.483367 
L 315.229196 275.571973 
L 315.359083 275.427936 
L 316.008522 274.076704 
L 316.13841 274.311185 
L 316.398186 275.471556 
L 317.567176 282.005408 
L 318.346503 285.005391 
L 318.541334 285.103142 
L 318.736166 284.727101 
L 319.060886 283.271705 
L 319.645381 280.686823 
L 320.29482 278.885086 
L 320.684483 276.372969 
L 321.204034 273.230222 
L 321.333922 273.03027 
L 321.398866 273.060329 
L 321.528754 273.39862 
L 321.723585 274.615922 
L 322.048305 278.357231 
L 323.152351 292.951512 
L 323.412127 293.976409 
L 323.606958 294.183034 
L 323.80179 294.102753 
L 324.12651 293.674812 
L 324.386285 293.051216 
L 324.646061 291.805035 
L 324.97078 288.925723 
L 325.620219 282.542525 
L 325.815051 282.165231 
L 325.944939 282.465468 
L 326.204714 284.063656 
L 326.984041 289.589098 
L 327.698424 292.342939 
L 328.023144 292.932885 
L 328.153031 292.901064 
L 328.347863 292.578001 
L 328.997302 291.186732 
L 329.192134 291.200178 
L 329.646741 291.658542 
L 330.29618 292.370595 
L 330.620899 293.36632 
L 331.724946 297.527433 
L 331.919777 297.576652 
L 332.114609 297.271925 
L 332.374385 296.264631 
L 333.088768 292.784311 
L 333.218655 292.804727 
L 333.413487 293.449111 
L 333.80315 296.217081 
L 334.322702 299.46908 
L 334.712365 300.549876 
L 335.29686 301.531858 
L 335.491692 301.49539 
L 335.686523 301.063084 
L 336.011243 299.445322 
L 336.660682 295.746354 
L 336.855514 295.45648 
L 336.985401 295.583136 
L 337.180233 296.223309 
L 337.569897 298.558953 
L 338.089448 301.373447 
L 338.414167 302.012213 
L 338.738887 302.110888 
L 338.998662 302.237516 
L 339.258438 302.637887 
L 340.102709 304.313789 
L 340.29754 304.118796 
L 340.62226 303.207185 
L 341.076867 301.975882 
L 341.271699 301.95669 
L 341.46653 302.346612 
L 341.79125 303.681725 
L 342.440689 306.412184 
L 342.700464 306.850032 
L 342.895296 306.854362 
L 343.090128 306.550981 
L 343.349903 305.591001 
L 343.674623 303.380528 
L 344.908557 293.41867 
L 345.038445 293.388178 
L 345.233276 293.726946 
L 345.882715 295.322423 
L 346.012603 295.251736 
L 346.207435 294.745655 
L 346.532154 292.992797 
L 346.986762 290.54281 
L 347.11665 290.38187 
L 347.246537 290.603739 
L 347.441369 291.675021 
L 347.831032 295.747956 
L 348.480471 302.311713 
L 348.805191 303.726927 
L 349.064966 304.093038 
L 349.974181 304.390384 
L 350.169013 304.260373 
L 350.363844 303.790998 
L 350.62362 302.51979 
L 351.532835 297.148115 
L 351.662722 297.173138 
L 351.857554 297.77156 
L 352.182274 299.932408 
L 353.026544 305.993356 
L 353.416208 307.109386 
L 353.740927 307.448924 
L 354.195534 307.568287 
L 355.94902 307.584 
L 398.487273 307.584 
L 398.487273 307.584 
" style="fill:none;stroke:#ff7f0e;stroke-linecap:square;stroke-width:1.5;"/>
   </g>
   <g id="patch_103">
    <path d="M 57.6 307.584 
L 57.6 41.472 
" style="fill:none;stroke:#000000;stroke-linecap:square;stroke-linejoin:miter;stroke-width:0.8;"/>
   </g>
   <g id="patch_104">
    <path d="M 414.72 307.584 
L 414.72 41.472 
" style="fill:none;stroke:#000000;stroke-linecap:square;stroke-linejoin:miter;stroke-width:0.8;"/>
   </g>
   <g id="patch_105">
    <path d="M 57.6 307.584 
L 414.72 307.584 
" style="fill:none;stroke:#000000;stroke-linecap:square;stroke-linejoin:miter;stroke-width:0.8;"/>
   </g>
   <g id="patch_106">
    <path d="M 57.6 41.472 
L 414.72 41.472 
" style="fill:none;stroke:#000000;stroke-linecap:square;stroke-linejoin:miter;stroke-width:0.8;"/>
   </g>
  </g>
 </g>
 <defs>
  <clipPath id="p471377deec">
   <rect height="266.112" width="357.12" x="57.6" y="41.472"/>
  </clipPath>
 </defs>
</svg>
