<?xml version="1.0" encoding="utf-8" standalone="no"?>
<!DOCTYPE svg PUBLIC "-//W3C//DTD SVG 1.1//EN"
  "http://www.w3.org/Graphics/SVG/1.1/DTD/svg11.dtd">
<!-- Created with matplotlib (https://matplotlib.org/) -->
<svg height="345.6pt" version="1.1" viewBox="0 0 460.8 345.6" width="460.8pt" xmlns="http://www.w3.org/2000/svg" xmlns:xlink="http://www.w3.org/1999/xlink">
 <defs>
  <style type="text/css">
*{stroke-linecap:butt;stroke-linejoin:round;}
  </style>
 </defs>
 <g id="figure_1">
  <g id="patch_1">
   <path d="M 0 345.6 
L 460.8 345.6 
L 460.8 0 
L 0 0 
z
" style="fill:#ffffff;"/>
  </g>
  <g id="axes_1">
   <g id="patch_2">
    <path d="M 57.6 307.584 
L 414.72 307.584 
L 414.72 41.472 
L 57.6 41.472 
z
" style="fill:#ffffff;"/>
   </g>
   <g id="patch_3">
    <path clip-path="url(#p1ea1c74596)" d="M 100.374362 307.584 
L 103.075989 307.584 
L 103.075989 305.679873 
L 100.374362 305.679873 
z
" style="fill:#1f77b4;"/>
   </g>
   <g id="patch_4">
    <path clip-path="url(#p1ea1c74596)" d="M 103.075989 307.584 
L 105.777617 307.584 
L 105.777617 305.679873 
L 103.075989 305.679873 
z
" style="fill:#1f77b4;"/>
   </g>
   <g id="patch_5">
    <path clip-path="url(#p1ea1c74596)" d="M 105.777617 307.584 
L 108.479252 307.584 
L 108.479252 302.823697 
L 105.777617 302.823697 
z
" style="fill:#1f77b4;"/>
   </g>
   <g id="patch_6">
    <path clip-path="url(#p1ea1c74596)" d="M 108.47926 307.584 
L 111.180895 307.584 
L 111.180895 301.871637 
L 108.47926 301.871637 
z
" style="fill:#1f77b4;"/>
   </g>
   <g id="patch_7">
    <path clip-path="url(#p1ea1c74596)" d="M 111.180887 307.584 
L 113.882515 307.584 
L 113.882515 303.775747 
L 111.180887 303.775747 
z
" style="fill:#1f77b4;"/>
   </g>
   <g id="patch_8">
    <path clip-path="url(#p1ea1c74596)" d="M 113.882515 307.584 
L 116.58415 307.584 
L 116.58415 302.823697 
L 113.882515 302.823697 
z
" style="fill:#1f77b4;"/>
   </g>
   <g id="patch_9">
    <path clip-path="url(#p1ea1c74596)" d="M 116.58415 307.584 
L 119.285777 307.584 
L 119.285777 299.01543 
L 116.58415 299.01543 
z
" style="fill:#1f77b4;"/>
   </g>
   <g id="patch_10">
    <path clip-path="url(#p1ea1c74596)" d="M 119.285777 307.584 
L 121.987405 307.584 
L 121.987405 296.15924 
L 119.285777 296.15924 
z
" style="fill:#1f77b4;"/>
   </g>
   <g id="patch_11">
    <path clip-path="url(#p1ea1c74596)" d="M 121.987412 307.584 
L 124.689048 307.584 
L 124.689048 296.159273 
L 121.987412 296.159273 
z
" style="fill:#1f77b4;"/>
   </g>
   <g id="patch_12">
    <path clip-path="url(#p1ea1c74596)" d="M 124.68904 307.584 
L 127.390667 307.584 
L 127.390667 295.207177 
L 124.68904 295.207177 
z
" style="fill:#1f77b4;"/>
   </g>
   <g id="patch_13">
    <path clip-path="url(#p1ea1c74596)" d="M 127.390667 307.584 
L 130.092303 307.584 
L 130.092303 299.015455 
L 127.390667 299.015455 
z
" style="fill:#1f77b4;"/>
   </g>
   <g id="patch_14">
    <path clip-path="url(#p1ea1c74596)" d="M 130.092303 307.584 
L 132.79393 307.584 
L 132.79393 302.823683 
L 130.092303 302.823683 
z
" style="fill:#1f77b4;"/>
   </g>
   <g id="patch_15">
    <path clip-path="url(#p1ea1c74596)" d="M 132.79393 307.584 
L 135.495558 307.584 
L 135.495558 299.01543 
L 132.79393 299.01543 
z
" style="fill:#1f77b4;"/>
   </g>
   <g id="patch_16">
    <path clip-path="url(#p1ea1c74596)" d="M 135.495565 307.584 
L 138.1972 307.584 
L 138.1972 300.919576 
L 135.495565 300.919576 
z
" style="fill:#1f77b4;"/>
   </g>
   <g id="patch_17">
    <path clip-path="url(#p1ea1c74596)" d="M 138.197193 307.584 
L 140.89882 307.584 
L 140.89882 301.87162 
L 138.197193 301.87162 
z
" style="fill:#1f77b4;"/>
   </g>
   <g id="patch_18">
    <path clip-path="url(#p1ea1c74596)" d="M 140.89882 307.584 
L 143.600455 307.584 
L 143.600455 301.871637 
L 140.89882 301.871637 
z
" style="fill:#1f77b4;"/>
   </g>
   <g id="patch_19">
    <path clip-path="url(#p1ea1c74596)" d="M 143.600455 307.584 
L 146.302083 307.584 
L 146.302083 300.919557 
L 143.600455 300.919557 
z
" style="fill:#1f77b4;"/>
   </g>
   <g id="patch_20">
    <path clip-path="url(#p1ea1c74596)" d="M 146.302091 307.584 
L 149.003726 307.584 
L 149.003726 300.919576 
L 146.302091 300.919576 
z
" style="fill:#1f77b4;"/>
   </g>
   <g id="patch_21">
    <path clip-path="url(#p1ea1c74596)" d="M 149.003718 307.584 
L 151.705346 307.584 
L 151.705346 298.063367 
L 149.003718 298.063367 
z
" style="fill:#1f77b4;"/>
   </g>
   <g id="patch_22">
    <path clip-path="url(#p1ea1c74596)" d="M 151.705346 307.584 
L 154.406973 307.584 
L 154.406973 304.72781 
L 151.705346 304.72781 
z
" style="fill:#1f77b4;"/>
   </g>
   <g id="patch_23">
    <path clip-path="url(#p1ea1c74596)" d="M 154.406973 307.584 
L 157.108608 307.584 
L 157.108608 292.351031 
L 154.406973 292.351031 
z
" style="fill:#1f77b4;"/>
   </g>
   <g id="patch_24">
    <path clip-path="url(#p1ea1c74596)" d="M 157.108608 307.584 
L 159.810236 307.584 
L 159.810236 296.15924 
L 157.108608 296.15924 
z
" style="fill:#1f77b4;"/>
   </g>
   <g id="patch_25">
    <path clip-path="url(#p1ea1c74596)" d="M 159.810243 307.584 
L 162.511879 307.584 
L 162.511879 289.494849 
L 159.810243 289.494849 
z
" style="fill:#1f77b4;"/>
   </g>
   <g id="patch_26">
    <path clip-path="url(#p1ea1c74596)" d="M 162.511871 307.584 
L 165.213498 307.584 
L 165.213498 291.398924 
L 162.511871 291.398924 
z
" style="fill:#1f77b4;"/>
   </g>
   <g id="patch_27">
    <path clip-path="url(#p1ea1c74596)" d="M 165.213498 307.584 
L 167.915126 307.584 
L 167.915126 282.830354 
L 165.213498 282.830354 
z
" style="fill:#1f77b4;"/>
   </g>
   <g id="patch_28">
    <path clip-path="url(#p1ea1c74596)" d="M 167.915126 307.584 
L 170.616761 307.584 
L 170.616761 279.974243 
L 167.915126 279.974243 
z
" style="fill:#1f77b4;"/>
   </g>
   <g id="patch_29">
    <path clip-path="url(#p1ea1c74596)" d="M 170.616761 307.584 
L 173.318392 307.584 
L 173.318392 280.926266 
L 170.616761 280.926266 
z
" style="fill:#1f77b4;"/>
   </g>
   <g id="patch_30">
    <path clip-path="url(#p1ea1c74596)" d="M 173.318396 307.584 
L 176.020028 307.584 
L 176.020028 275.213894 
L 173.318396 275.213894 
z
" style="fill:#1f77b4;"/>
   </g>
   <g id="patch_31">
    <path clip-path="url(#p1ea1c74596)" d="M 176.020024 307.584 
L 178.721651 307.584 
L 178.721651 274.261784 
L 176.020024 274.261784 
z
" style="fill:#1f77b4;"/>
   </g>
   <g id="patch_32">
    <path clip-path="url(#p1ea1c74596)" d="M 178.721651 307.584 
L 181.423283 307.584 
L 181.423283 269.501522 
L 178.721651 269.501522 
z
" style="fill:#1f77b4;"/>
   </g>
   <g id="patch_33">
    <path clip-path="url(#p1ea1c74596)" d="M 181.423286 307.584 
L 184.124918 307.584 
L 184.124918 273.30977 
L 181.423286 273.30977 
z
" style="fill:#1f77b4;"/>
   </g>
   <g id="patch_34">
    <path clip-path="url(#p1ea1c74596)" d="M 184.124914 307.584 
L 186.826545 307.584 
L 186.826545 269.501522 
L 184.124914 269.501522 
z
" style="fill:#1f77b4;"/>
   </g>
   <g id="patch_35">
    <path clip-path="url(#p1ea1c74596)" d="M 186.826549 307.584 
L 189.528181 307.584 
L 189.528181 261.885027 
L 186.826549 261.885027 
z
" style="fill:#1f77b4;"/>
   </g>
   <g id="patch_36">
    <path clip-path="url(#p1ea1c74596)" d="M 189.528177 307.584 
L 192.229808 307.584 
L 192.229808 261.885027 
L 189.528177 261.885027 
z
" style="fill:#1f77b4;"/>
   </g>
   <g id="patch_37">
    <path clip-path="url(#p1ea1c74596)" d="M 192.229808 307.584 
L 194.931435 307.584 
L 194.931435 258.076708 
L 192.229808 258.076708 
z
" style="fill:#1f77b4;"/>
   </g>
   <g id="patch_38">
    <path clip-path="url(#p1ea1c74596)" d="M 194.931439 307.584 
L 197.633071 307.584 
L 197.633071 243.79585 
L 194.931439 243.79585 
z
" style="fill:#1f77b4;"/>
   </g>
   <g id="patch_39">
    <path clip-path="url(#p1ea1c74596)" d="M 197.633067 307.584 
L 200.334698 307.584 
L 200.334698 242.843788 
L 197.633067 242.843788 
z
" style="fill:#1f77b4;"/>
   </g>
   <g id="patch_40">
    <path clip-path="url(#p1ea1c74596)" d="M 200.334702 307.584 
L 203.036333 307.584 
L 203.036333 218.090177 
L 200.334702 218.090177 
z
" style="fill:#1f77b4;"/>
   </g>
   <g id="patch_41">
    <path clip-path="url(#p1ea1c74596)" d="M 203.03633 307.584 
L 205.737961 307.584 
L 205.737961 241.891726 
L 203.03633 241.891726 
z
" style="fill:#1f77b4;"/>
   </g>
   <g id="patch_42">
    <path clip-path="url(#p1ea1c74596)" d="M 205.737961 307.584 
L 208.43959 307.584 
L 208.43959 223.802489 
L 205.737961 223.802489 
z
" style="fill:#1f77b4;"/>
   </g>
   <g id="patch_43">
    <path clip-path="url(#p1ea1c74596)" d="M 208.43959 307.584 
L 211.141222 307.584 
L 211.141222 232.371107 
L 208.43959 232.371107 
z
" style="fill:#1f77b4;"/>
   </g>
   <g id="patch_44">
    <path clip-path="url(#p1ea1c74596)" d="M 211.141222 307.584 
L 213.842853 307.584 
L 213.842853 236.179354 
L 211.141222 236.179354 
z
" style="fill:#1f77b4;"/>
   </g>
   <g id="patch_45">
    <path clip-path="url(#p1ea1c74596)" d="M 213.842855 307.584 
L 216.544484 307.584 
L 216.544484 218.090113 
L 213.842855 218.090113 
z
" style="fill:#1f77b4;"/>
   </g>
   <g id="patch_46">
    <path clip-path="url(#p1ea1c74596)" d="M 216.544482 307.584 
L 219.246114 307.584 
L 219.246114 216.186054 
L 216.544482 216.186054 
z
" style="fill:#1f77b4;"/>
   </g>
   <g id="patch_47">
    <path clip-path="url(#p1ea1c74596)" d="M 219.246114 307.584 
L 221.947744 307.584 
L 221.947744 200.000962 
L 219.246114 200.000962 
z
" style="fill:#1f77b4;"/>
   </g>
   <g id="patch_48">
    <path clip-path="url(#p1ea1c74596)" d="M 221.947744 307.584 
L 224.649375 307.584 
L 224.649375 199.048939 
L 221.947744 199.048939 
z
" style="fill:#1f77b4;"/>
   </g>
   <g id="patch_49">
    <path clip-path="url(#p1ea1c74596)" d="M 224.649374 307.584 
L 227.351005 307.584 
L 227.351005 197.144775 
L 224.649374 197.144775 
z
" style="fill:#1f77b4;"/>
   </g>
   <g id="patch_50">
    <path clip-path="url(#p1ea1c74596)" d="M 227.351006 307.584 
L 230.052637 307.584 
L 230.052637 198.096857 
L 227.351006 198.096857 
z
" style="fill:#1f77b4;"/>
   </g>
   <g id="patch_51">
    <path clip-path="url(#p1ea1c74596)" d="M 230.052637 307.584 
L 232.754267 307.584 
L 232.754267 181.91179 
L 230.052637 181.91179 
z
" style="fill:#1f77b4;"/>
   </g>
   <g id="patch_52">
    <path clip-path="url(#p1ea1c74596)" d="M 232.754268 307.584 
L 235.455898 307.584 
L 235.455898 209.521594 
L 232.754268 209.521594 
z
" style="fill:#1f77b4;"/>
   </g>
   <g id="patch_53">
    <path clip-path="url(#p1ea1c74596)" d="M 235.455898 307.584 
L 238.157529 307.584 
L 238.157529 112.411267 
L 235.455898 112.411267 
z
" style="fill:#1f77b4;"/>
   </g>
   <g id="patch_54">
    <path clip-path="url(#p1ea1c74596)" d="M 238.157529 307.584 
L 240.859159 307.584 
L 240.859159 200.953024 
L 238.157529 200.953024 
z
" style="fill:#1f77b4;"/>
   </g>
   <g id="patch_55">
    <path clip-path="url(#p1ea1c74596)" d="M 240.859159 307.584 
L 243.56079 307.584 
L 243.56079 213.329851 
L 240.859159 213.329851 
z
" style="fill:#1f77b4;"/>
   </g>
   <g id="patch_56">
    <path clip-path="url(#p1ea1c74596)" d="M 243.56079 307.584 
L 246.262421 307.584 
L 246.262421 192.384464 
L 243.56079 192.384464 
z
" style="fill:#1f77b4;"/>
   </g>
   <g id="patch_57">
    <path clip-path="url(#p1ea1c74596)" d="M 246.26242 307.584 
L 248.964052 307.584 
L 248.964052 175.24739 
L 246.26242 175.24739 
z
" style="fill:#1f77b4;"/>
   </g>
   <g id="patch_58">
    <path clip-path="url(#p1ea1c74596)" d="M 248.964051 307.584 
L 251.665681 307.584 
L 251.665681 186.67209 
L 248.964051 186.67209 
z
" style="fill:#1f77b4;"/>
   </g>
   <g id="patch_59">
    <path clip-path="url(#p1ea1c74596)" d="M 251.665682 307.584 
L 254.367313 307.584 
L 254.367313 180.0077 
L 251.665682 180.0077 
z
" style="fill:#1f77b4;"/>
   </g>
   <g id="patch_60">
    <path clip-path="url(#p1ea1c74596)" d="M 254.367313 307.584 
L 257.068943 307.584 
L 257.068943 187.624109 
L 254.367313 187.624109 
z
" style="fill:#1f77b4;"/>
   </g>
   <g id="patch_61">
    <path clip-path="url(#p1ea1c74596)" d="M 257.068943 307.584 
L 259.770574 307.584 
L 259.770574 210.473682 
L 257.068943 210.473682 
z
" style="fill:#1f77b4;"/>
   </g>
   <g id="patch_62">
    <path clip-path="url(#p1ea1c74596)" d="M 259.770574 307.584 
L 262.472206 307.584 
L 262.472206 219.042239 
L 259.770574 219.042239 
z
" style="fill:#1f77b4;"/>
   </g>
   <g id="patch_63">
    <path clip-path="url(#p1ea1c74596)" d="M 262.472207 307.584 
L 265.173837 307.584 
L 265.173837 204.761237 
L 262.472207 204.761237 
z
" style="fill:#1f77b4;"/>
   </g>
   <g id="patch_64">
    <path clip-path="url(#p1ea1c74596)" d="M 265.173835 307.584 
L 267.875466 307.584 
L 267.875466 226.658735 
L 265.173835 226.658735 
z
" style="fill:#1f77b4;"/>
   </g>
   <g id="patch_65">
    <path clip-path="url(#p1ea1c74596)" d="M 267.875464 307.584 
L 270.577094 307.584 
L 270.577094 237.131416 
L 267.875464 237.131416 
z
" style="fill:#1f77b4;"/>
   </g>
   <g id="patch_66">
    <path clip-path="url(#p1ea1c74596)" d="M 270.577102 307.584 
L 273.278733 307.584 
L 273.278733 229.514921 
L 270.577102 229.514921 
z
" style="fill:#1f77b4;"/>
   </g>
   <g id="patch_67">
    <path clip-path="url(#p1ea1c74596)" d="M 273.278729 307.584 
L 275.98036 307.584 
L 275.98036 245.699974 
L 273.278729 245.699974 
z
" style="fill:#1f77b4;"/>
   </g>
   <g id="patch_68">
    <path clip-path="url(#p1ea1c74596)" d="M 275.98036 307.584 
L 278.681988 307.584 
L 278.681988 239.987505 
L 275.98036 239.987505 
z
" style="fill:#1f77b4;"/>
   </g>
   <g id="patch_69">
    <path clip-path="url(#p1ea1c74596)" d="M 278.681992 307.584 
L 281.383623 307.584 
L 281.383623 240.939664 
L 278.681992 240.939664 
z
" style="fill:#1f77b4;"/>
   </g>
   <g id="patch_70">
    <path clip-path="url(#p1ea1c74596)" d="M 281.383619 307.584 
L 284.08525 307.584 
L 284.08525 245.699974 
L 281.383619 245.699974 
z
" style="fill:#1f77b4;"/>
   </g>
   <g id="patch_71">
    <path clip-path="url(#p1ea1c74596)" d="M 284.085254 307.584 
L 286.786886 307.584 
L 286.786886 253.316469 
L 284.085254 253.316469 
z
" style="fill:#1f77b4;"/>
   </g>
   <g id="patch_72">
    <path clip-path="url(#p1ea1c74596)" d="M 286.786882 307.584 
L 289.488513 307.584 
L 289.488513 262.837089 
L 286.786882 262.837089 
z
" style="fill:#1f77b4;"/>
   </g>
   <g id="patch_73">
    <path clip-path="url(#p1ea1c74596)" d="M 289.488517 307.584 
L 292.190148 307.584 
L 292.190148 261.885027 
L 289.488517 261.885027 
z
" style="fill:#1f77b4;"/>
   </g>
   <g id="patch_74">
    <path clip-path="url(#p1ea1c74596)" d="M 292.190145 307.584 
L 294.891772 307.584 
L 294.891772 261.884961 
L 292.190145 261.884961 
z
" style="fill:#1f77b4;"/>
   </g>
   <g id="patch_75">
    <path clip-path="url(#p1ea1c74596)" d="M 294.891772 307.584 
L 297.593403 307.584 
L 297.593403 274.261832 
L 294.891772 274.261832 
z
" style="fill:#1f77b4;"/>
   </g>
   <g id="patch_76">
    <path clip-path="url(#p1ea1c74596)" d="M 297.593407 307.584 
L 300.295039 307.584 
L 300.295039 273.30977 
L 297.593407 273.30977 
z
" style="fill:#1f77b4;"/>
   </g>
   <g id="patch_77">
    <path clip-path="url(#p1ea1c74596)" d="M 300.295039 307.584 
L 302.99667 307.584 
L 302.99667 262.837153 
L 300.295039 262.837153 
z
" style="fill:#1f77b4;"/>
   </g>
   <g id="patch_78">
    <path clip-path="url(#p1ea1c74596)" d="M 302.99667 307.584 
L 305.698297 307.584 
L 305.698297 259.980835 
L 302.99667 259.980835 
z
" style="fill:#1f77b4;"/>
   </g>
   <g id="patch_79">
    <path clip-path="url(#p1ea1c74596)" d="M 305.698297 307.584 
L 308.399925 307.584 
L 308.399925 253.316392 
L 305.698297 253.316392 
z
" style="fill:#1f77b4;"/>
   </g>
   <g id="patch_80">
    <path clip-path="url(#p1ea1c74596)" d="M 308.399925 307.584 
L 311.10156 307.584 
L 311.10156 259.980971 
L 308.399925 259.980971 
z
" style="fill:#1f77b4;"/>
   </g>
   <g id="patch_81">
    <path clip-path="url(#p1ea1c74596)" d="M 311.10156 307.584 
L 313.803188 307.584 
L 313.803188 262.837025 
L 311.10156 262.837025 
z
" style="fill:#1f77b4;"/>
   </g>
   <g id="patch_82">
    <path clip-path="url(#p1ea1c74596)" d="M 313.803195 307.584 
L 316.50483 307.584 
L 316.50483 244.748002 
L 313.803195 244.748002 
z
" style="fill:#1f77b4;"/>
   </g>
   <g id="patch_83">
    <path clip-path="url(#p1ea1c74596)" d="M 316.504823 307.584 
L 319.20645 307.584 
L 319.20645 259.028771 
L 316.504823 259.028771 
z
" style="fill:#1f77b4;"/>
   </g>
   <g id="patch_84">
    <path clip-path="url(#p1ea1c74596)" d="M 319.20645 307.584 
L 321.908078 307.584 
L 321.908078 255.220518 
L 319.20645 255.220518 
z
" style="fill:#1f77b4;"/>
   </g>
   <g id="patch_85">
    <path clip-path="url(#p1ea1c74596)" d="M 321.908078 307.584 
L 324.609713 307.584 
L 324.609713 252.364486 
L 321.908078 252.364486 
z
" style="fill:#1f77b4;"/>
   </g>
   <g id="patch_86">
    <path clip-path="url(#p1ea1c74596)" d="M 324.609713 307.584 
L 327.31134 307.584 
L 327.31134 257.124645 
L 324.609713 257.124645 
z
" style="fill:#1f77b4;"/>
   </g>
   <g id="patch_87">
    <path clip-path="url(#p1ea1c74596)" d="M 327.311348 307.584 
L 330.012983 307.584 
L 330.012983 272.357759 
L 327.311348 272.357759 
z
" style="fill:#1f77b4;"/>
   </g>
   <g id="patch_88">
    <path clip-path="url(#p1ea1c74596)" d="M 330.012976 307.584 
L 332.714603 307.584 
L 332.714603 278.070038 
L 330.012976 278.070038 
z
" style="fill:#1f77b4;"/>
   </g>
   <g id="patch_89">
    <path clip-path="url(#p1ea1c74596)" d="M 332.714603 307.584 
L 335.416238 307.584 
L 335.416238 269.501577 
L 332.714603 269.501577 
z
" style="fill:#1f77b4;"/>
   </g>
   <g id="patch_90">
    <path clip-path="url(#p1ea1c74596)" d="M 335.416238 307.584 
L 338.117866 307.584 
L 338.117866 283.782417 
L 335.416238 283.782417 
z
" style="fill:#1f77b4;"/>
   </g>
   <g id="patch_91">
    <path clip-path="url(#p1ea1c74596)" d="M 338.117866 307.584 
L 340.819493 307.584 
L 340.819493 286.638607 
L 338.117866 286.638607 
z
" style="fill:#1f77b4;"/>
   </g>
   <g id="patch_92">
    <path clip-path="url(#p1ea1c74596)" d="M 340.819501 307.584 
L 343.521136 307.584 
L 343.521136 290.44691 
L 340.819501 290.44691 
z
" style="fill:#1f77b4;"/>
   </g>
   <g id="patch_93">
    <path clip-path="url(#p1ea1c74596)" d="M 343.521128 307.584 
L 346.222756 307.584 
L 346.222756 285.686544 
L 343.521128 285.686544 
z
" style="fill:#1f77b4;"/>
   </g>
   <g id="patch_94">
    <path clip-path="url(#p1ea1c74596)" d="M 346.222756 307.584 
L 348.924391 307.584 
L 348.924391 293.303091 
L 346.222756 293.303091 
z
" style="fill:#1f77b4;"/>
   </g>
   <g id="patch_95">
    <path clip-path="url(#p1ea1c74596)" d="M 348.924391 307.584 
L 351.626019 307.584 
L 351.626019 292.350987 
L 348.924391 292.350987 
z
" style="fill:#1f77b4;"/>
   </g>
   <g id="patch_96">
    <path clip-path="url(#p1ea1c74596)" d="M 351.626019 307.584 
L 354.327646 307.584 
L 354.327646 289.494797 
L 351.626019 289.494797 
z
" style="fill:#1f77b4;"/>
   </g>
   <g id="patch_97">
    <path clip-path="url(#p1ea1c74596)" d="M 354.327654 307.584 
L 357.029289 307.584 
L 357.029289 302.823697 
L 354.327654 302.823697 
z
" style="fill:#1f77b4;"/>
   </g>
   <g id="patch_98">
    <path clip-path="url(#p1ea1c74596)" d="M 357.029281 307.584 
L 359.730909 307.584 
L 359.730909 300.919557 
L 357.029281 300.919557 
z
" style="fill:#1f77b4;"/>
   </g>
   <g id="patch_99">
    <path clip-path="url(#p1ea1c74596)" d="M 359.730909 307.584 
L 362.432544 307.584 
L 362.432544 302.823697 
L 359.730909 302.823697 
z
" style="fill:#1f77b4;"/>
   </g>
   <g id="patch_100">
    <path clip-path="url(#p1ea1c74596)" d="M 362.432544 307.584 
L 365.134171 307.584 
L 365.134171 302.823683 
L 362.432544 302.823683 
z
" style="fill:#1f77b4;"/>
   </g>
   <g id="patch_101">
    <path clip-path="url(#p1ea1c74596)" d="M 365.134179 307.584 
L 367.835807 307.584 
L 367.835807 303.775758 
L 365.134179 303.775758 
z
" style="fill:#1f77b4;"/>
   </g>
   <g id="patch_102">
    <path clip-path="url(#p1ea1c74596)" d="M 367.835807 307.584 
L 370.537434 307.584 
L 370.537434 304.72781 
L 367.835807 304.72781 
z
" style="fill:#1f77b4;"/>
   </g>
   <g id="matplotlib.axis_1">
    <g id="xtick_1">
     <g id="line2d_1">
      <defs>
       <path d="M 0 0 
L 0 3.5 
" id="m7beb01d791" style="stroke:#000000;stroke-width:0.8;"/>
      </defs>
      <g>
       <use style="stroke:#000000;stroke-width:0.8;" x="106.301429" xlink:href="#m7beb01d791" y="307.584"/>
      </g>
     </g>
     <g id="text_1">
      <!-- −2 -->
      <defs>
       <path d="M 10.59375 35.5 
L 73.1875 35.5 
L 73.1875 27.203125 
L 10.59375 27.203125 
z
" id="DejaVuSans-8722"/>
       <path d="M 19.1875 8.296875 
L 53.609375 8.296875 
L 53.609375 0 
L 7.328125 0 
L 7.328125 8.296875 
Q 12.9375 14.109375 22.625 23.890625 
Q 32.328125 33.6875 34.8125 36.53125 
Q 39.546875 41.84375 41.421875 45.53125 
Q 43.3125 49.21875 43.3125 52.78125 
Q 43.3125 58.59375 39.234375 62.25 
Q 35.15625 65.921875 28.609375 65.921875 
Q 23.96875 65.921875 18.8125 64.3125 
Q 13.671875 62.703125 7.8125 59.421875 
L 7.8125 69.390625 
Q 13.765625 71.78125 18.9375 73 
Q 24.125 74.21875 28.421875 74.21875 
Q 39.75 74.21875 46.484375 68.546875 
Q 53.21875 62.890625 53.21875 53.421875 
Q 53.21875 48.921875 51.53125 44.890625 
Q 49.859375 40.875 45.40625 35.40625 
Q 44.1875 33.984375 37.640625 27.21875 
Q 31.109375 20.453125 19.1875 8.296875 
z
" id="DejaVuSans-50"/>
      </defs>
      <g transform="translate(93.770569 327.501344)scale(0.17 -0.17)">
       <use xlink:href="#DejaVuSans-8722"/>
       <use x="83.789062" xlink:href="#DejaVuSans-50"/>
      </g>
     </g>
    </g>
    <g id="xtick_2">
     <g id="line2d_2">
      <g>
       <use style="stroke:#000000;stroke-width:0.8;" x="171.238832" xlink:href="#m7beb01d791" y="307.584"/>
      </g>
     </g>
     <g id="text_2">
      <!-- −1 -->
      <defs>
       <path d="M 12.40625 8.296875 
L 28.515625 8.296875 
L 28.515625 63.921875 
L 10.984375 60.40625 
L 10.984375 69.390625 
L 28.421875 72.90625 
L 38.28125 72.90625 
L 38.28125 8.296875 
L 54.390625 8.296875 
L 54.390625 0 
L 12.40625 0 
z
" id="DejaVuSans-49"/>
      </defs>
      <g transform="translate(158.707972 327.501344)scale(0.17 -0.17)">
       <use xlink:href="#DejaVuSans-8722"/>
       <use x="83.789062" xlink:href="#DejaVuSans-49"/>
      </g>
     </g>
    </g>
    <g id="xtick_3">
     <g id="line2d_3">
      <g>
       <use style="stroke:#000000;stroke-width:0.8;" x="236.176234" xlink:href="#m7beb01d791" y="307.584"/>
      </g>
     </g>
     <g id="text_3">
      <!-- 0 -->
      <defs>
       <path d="M 31.78125 66.40625 
Q 24.171875 66.40625 20.328125 58.90625 
Q 16.5 51.421875 16.5 36.375 
Q 16.5 21.390625 20.328125 13.890625 
Q 24.171875 6.390625 31.78125 6.390625 
Q 39.453125 6.390625 43.28125 13.890625 
Q 47.125 21.390625 47.125 36.375 
Q 47.125 51.421875 43.28125 58.90625 
Q 39.453125 66.40625 31.78125 66.40625 
z
M 31.78125 74.21875 
Q 44.046875 74.21875 50.515625 64.515625 
Q 56.984375 54.828125 56.984375 36.375 
Q 56.984375 17.96875 50.515625 8.265625 
Q 44.046875 -1.421875 31.78125 -1.421875 
Q 19.53125 -1.421875 13.0625 8.265625 
Q 6.59375 17.96875 6.59375 36.375 
Q 6.59375 54.828125 13.0625 64.515625 
Q 19.53125 74.21875 31.78125 74.21875 
z
" id="DejaVuSans-48"/>
      </defs>
      <g transform="translate(230.768109 327.501344)scale(0.17 -0.17)">
       <use xlink:href="#DejaVuSans-48"/>
      </g>
     </g>
    </g>
    <g id="xtick_4">
     <g id="line2d_4">
      <g>
       <use style="stroke:#000000;stroke-width:0.8;" x="301.113637" xlink:href="#m7beb01d791" y="307.584"/>
      </g>
     </g>
     <g id="text_4">
      <!-- 1 -->
      <g transform="translate(295.705512 327.501344)scale(0.17 -0.17)">
       <use xlink:href="#DejaVuSans-49"/>
      </g>
     </g>
    </g>
    <g id="xtick_5">
     <g id="line2d_5">
      <g>
       <use style="stroke:#000000;stroke-width:0.8;" x="366.05104" xlink:href="#m7beb01d791" y="307.584"/>
      </g>
     </g>
     <g id="text_5">
      <!-- 2 -->
      <g transform="translate(360.642915 327.501344)scale(0.17 -0.17)">
       <use xlink:href="#DejaVuSans-50"/>
      </g>
     </g>
    </g>
    <g id="text_6">
     <!-- Position in Radian -->
     <defs>
      <path d="M 19.671875 64.796875 
L 19.671875 37.40625 
L 32.078125 37.40625 
Q 38.96875 37.40625 42.71875 40.96875 
Q 46.484375 44.53125 46.484375 51.125 
Q 46.484375 57.671875 42.71875 61.234375 
Q 38.96875 64.796875 32.078125 64.796875 
z
M 9.8125 72.90625 
L 32.078125 72.90625 
Q 44.34375 72.90625 50.609375 67.359375 
Q 56.890625 61.8125 56.890625 51.125 
Q 56.890625 40.328125 50.609375 34.8125 
Q 44.34375 29.296875 32.078125 29.296875 
L 19.671875 29.296875 
L 19.671875 0 
L 9.8125 0 
z
" id="DejaVuSans-80"/>
      <path d="M 30.609375 48.390625 
Q 23.390625 48.390625 19.1875 42.75 
Q 14.984375 37.109375 14.984375 27.296875 
Q 14.984375 17.484375 19.15625 11.84375 
Q 23.34375 6.203125 30.609375 6.203125 
Q 37.796875 6.203125 41.984375 11.859375 
Q 46.1875 17.53125 46.1875 27.296875 
Q 46.1875 37.015625 41.984375 42.703125 
Q 37.796875 48.390625 30.609375 48.390625 
z
M 30.609375 56 
Q 42.328125 56 49.015625 48.375 
Q 55.71875 40.765625 55.71875 27.296875 
Q 55.71875 13.875 49.015625 6.21875 
Q 42.328125 -1.421875 30.609375 -1.421875 
Q 18.84375 -1.421875 12.171875 6.21875 
Q 5.515625 13.875 5.515625 27.296875 
Q 5.515625 40.765625 12.171875 48.375 
Q 18.84375 56 30.609375 56 
z
" id="DejaVuSans-111"/>
      <path d="M 44.28125 53.078125 
L 44.28125 44.578125 
Q 40.484375 46.53125 36.375 47.5 
Q 32.28125 48.484375 27.875 48.484375 
Q 21.1875 48.484375 17.84375 46.4375 
Q 14.5 44.390625 14.5 40.28125 
Q 14.5 37.15625 16.890625 35.375 
Q 19.28125 33.59375 26.515625 31.984375 
L 29.59375 31.296875 
Q 39.15625 29.25 43.1875 25.515625 
Q 47.21875 21.78125 47.21875 15.09375 
Q 47.21875 7.46875 41.1875 3.015625 
Q 35.15625 -1.421875 24.609375 -1.421875 
Q 20.21875 -1.421875 15.453125 -0.5625 
Q 10.6875 0.296875 5.421875 2 
L 5.421875 11.28125 
Q 10.40625 8.6875 15.234375 7.390625 
Q 20.0625 6.109375 24.8125 6.109375 
Q 31.15625 6.109375 34.5625 8.28125 
Q 37.984375 10.453125 37.984375 14.40625 
Q 37.984375 18.0625 35.515625 20.015625 
Q 33.0625 21.96875 24.703125 23.78125 
L 21.578125 24.515625 
Q 13.234375 26.265625 9.515625 29.90625 
Q 5.8125 33.546875 5.8125 39.890625 
Q 5.8125 47.609375 11.28125 51.796875 
Q 16.75 56 26.8125 56 
Q 31.78125 56 36.171875 55.265625 
Q 40.578125 54.546875 44.28125 53.078125 
z
" id="DejaVuSans-115"/>
      <path d="M 9.421875 54.6875 
L 18.40625 54.6875 
L 18.40625 0 
L 9.421875 0 
z
M 9.421875 75.984375 
L 18.40625 75.984375 
L 18.40625 64.59375 
L 9.421875 64.59375 
z
" id="DejaVuSans-105"/>
      <path d="M 18.3125 70.21875 
L 18.3125 54.6875 
L 36.8125 54.6875 
L 36.8125 47.703125 
L 18.3125 47.703125 
L 18.3125 18.015625 
Q 18.3125 11.328125 20.140625 9.421875 
Q 21.96875 7.515625 27.59375 7.515625 
L 36.8125 7.515625 
L 36.8125 0 
L 27.59375 0 
Q 17.1875 0 13.234375 3.875 
Q 9.28125 7.765625 9.28125 18.015625 
L 9.28125 47.703125 
L 2.6875 47.703125 
L 2.6875 54.6875 
L 9.28125 54.6875 
L 9.28125 70.21875 
z
" id="DejaVuSans-116"/>
      <path d="M 54.890625 33.015625 
L 54.890625 0 
L 45.90625 0 
L 45.90625 32.71875 
Q 45.90625 40.484375 42.875 44.328125 
Q 39.84375 48.1875 33.796875 48.1875 
Q 26.515625 48.1875 22.3125 43.546875 
Q 18.109375 38.921875 18.109375 30.90625 
L 18.109375 0 
L 9.078125 0 
L 9.078125 54.6875 
L 18.109375 54.6875 
L 18.109375 46.1875 
Q 21.34375 51.125 25.703125 53.5625 
Q 30.078125 56 35.796875 56 
Q 45.21875 56 50.046875 50.171875 
Q 54.890625 44.34375 54.890625 33.015625 
z
" id="DejaVuSans-110"/>
      <path id="DejaVuSans-32"/>
      <path d="M 44.390625 34.1875 
Q 47.5625 33.109375 50.5625 29.59375 
Q 53.5625 26.078125 56.59375 19.921875 
L 66.609375 0 
L 56 0 
L 46.6875 18.703125 
Q 43.0625 26.03125 39.671875 28.421875 
Q 36.28125 30.8125 30.421875 30.8125 
L 19.671875 30.8125 
L 19.671875 0 
L 9.8125 0 
L 9.8125 72.90625 
L 32.078125 72.90625 
Q 44.578125 72.90625 50.734375 67.671875 
Q 56.890625 62.453125 56.890625 51.90625 
Q 56.890625 45.015625 53.6875 40.46875 
Q 50.484375 35.9375 44.390625 34.1875 
z
M 19.671875 64.796875 
L 19.671875 38.921875 
L 32.078125 38.921875 
Q 39.203125 38.921875 42.84375 42.21875 
Q 46.484375 45.515625 46.484375 51.90625 
Q 46.484375 58.296875 42.84375 61.546875 
Q 39.203125 64.796875 32.078125 64.796875 
z
" id="DejaVuSans-82"/>
      <path d="M 34.28125 27.484375 
Q 23.390625 27.484375 19.1875 25 
Q 14.984375 22.515625 14.984375 16.5 
Q 14.984375 11.71875 18.140625 8.90625 
Q 21.296875 6.109375 26.703125 6.109375 
Q 34.1875 6.109375 38.703125 11.40625 
Q 43.21875 16.703125 43.21875 25.484375 
L 43.21875 27.484375 
z
M 52.203125 31.203125 
L 52.203125 0 
L 43.21875 0 
L 43.21875 8.296875 
Q 40.140625 3.328125 35.546875 0.953125 
Q 30.953125 -1.421875 24.3125 -1.421875 
Q 15.921875 -1.421875 10.953125 3.296875 
Q 6 8.015625 6 15.921875 
Q 6 25.140625 12.171875 29.828125 
Q 18.359375 34.515625 30.609375 34.515625 
L 43.21875 34.515625 
L 43.21875 35.40625 
Q 43.21875 41.609375 39.140625 45 
Q 35.0625 48.390625 27.6875 48.390625 
Q 23 48.390625 18.546875 47.265625 
Q 14.109375 46.140625 10.015625 43.890625 
L 10.015625 52.203125 
Q 14.9375 54.109375 19.578125 55.046875 
Q 24.21875 56 28.609375 56 
Q 40.484375 56 46.34375 49.84375 
Q 52.203125 43.703125 52.203125 31.203125 
z
" id="DejaVuSans-97"/>
      <path d="M 45.40625 46.390625 
L 45.40625 75.984375 
L 54.390625 75.984375 
L 54.390625 0 
L 45.40625 0 
L 45.40625 8.203125 
Q 42.578125 3.328125 38.25 0.953125 
Q 33.9375 -1.421875 27.875 -1.421875 
Q 17.96875 -1.421875 11.734375 6.484375 
Q 5.515625 14.40625 5.515625 27.296875 
Q 5.515625 40.1875 11.734375 48.09375 
Q 17.96875 56 27.875 56 
Q 33.9375 56 38.25 53.625 
Q 42.578125 51.265625 45.40625 46.390625 
z
M 14.796875 27.296875 
Q 14.796875 17.390625 18.875 11.75 
Q 22.953125 6.109375 30.078125 6.109375 
Q 37.203125 6.109375 41.296875 11.75 
Q 45.40625 17.390625 45.40625 27.296875 
Q 45.40625 37.203125 41.296875 42.84375 
Q 37.203125 48.484375 30.078125 48.484375 
Q 22.953125 48.484375 18.875 42.84375 
Q 14.796875 37.203125 14.796875 27.296875 
z
" id="DejaVuSans-100"/>
     </defs>
     <g transform="translate(102.024844 357.832125)scale(0.3 -0.3)">
      <use xlink:href="#DejaVuSans-80"/>
      <use x="60.255859" xlink:href="#DejaVuSans-111"/>
      <use x="121.4375" xlink:href="#DejaVuSans-115"/>
      <use x="173.537109" xlink:href="#DejaVuSans-105"/>
      <use x="201.320312" xlink:href="#DejaVuSans-116"/>
      <use x="240.529297" xlink:href="#DejaVuSans-105"/>
      <use x="268.3125" xlink:href="#DejaVuSans-111"/>
      <use x="329.494141" xlink:href="#DejaVuSans-110"/>
      <use x="392.873047" xlink:href="#DejaVuSans-32"/>
      <use x="424.660156" xlink:href="#DejaVuSans-105"/>
      <use x="452.443359" xlink:href="#DejaVuSans-110"/>
      <use x="515.822266" xlink:href="#DejaVuSans-32"/>
      <use x="547.609375" xlink:href="#DejaVuSans-82"/>
      <use x="617.060547" xlink:href="#DejaVuSans-97"/>
      <use x="678.339844" xlink:href="#DejaVuSans-100"/>
      <use x="741.816406" xlink:href="#DejaVuSans-105"/>
      <use x="769.599609" xlink:href="#DejaVuSans-97"/>
      <use x="830.878906" xlink:href="#DejaVuSans-110"/>
     </g>
    </g>
   </g>
   <g id="matplotlib.axis_2">
    <g id="ytick_1">
     <g id="line2d_6">
      <defs>
       <path d="M 0 0 
L -3.5 0 
" id="m61c9a98714" style="stroke:#000000;stroke-width:0.8;"/>
      </defs>
      <g>
       <use style="stroke:#000000;stroke-width:0.8;" x="57.6" xlink:href="#m61c9a98714" y="307.584"/>
      </g>
     </g>
     <g id="text_7">
      <!-- 0.0 -->
      <defs>
       <path d="M 10.6875 12.40625 
L 21 12.40625 
L 21 0 
L 10.6875 0 
z
" id="DejaVuSans-46"/>
      </defs>
      <g transform="translate(23.564687 314.042672)scale(0.17 -0.17)">
       <use xlink:href="#DejaVuSans-48"/>
       <use x="63.623047" xlink:href="#DejaVuSans-46"/>
       <use x="95.410156" xlink:href="#DejaVuSans-48"/>
      </g>
     </g>
    </g>
    <g id="ytick_2">
     <g id="line2d_7">
      <g>
       <use style="stroke:#000000;stroke-width:0.8;" x="57.6" xlink:href="#m61c9a98714" y="267.974772"/>
      </g>
     </g>
     <g id="text_8">
      <!-- 0.2 -->
      <g transform="translate(23.564687 274.433444)scale(0.17 -0.17)">
       <use xlink:href="#DejaVuSans-48"/>
       <use x="63.623047" xlink:href="#DejaVuSans-46"/>
       <use x="95.410156" xlink:href="#DejaVuSans-50"/>
      </g>
     </g>
    </g>
    <g id="ytick_3">
     <g id="line2d_8">
      <g>
       <use style="stroke:#000000;stroke-width:0.8;" x="57.6" xlink:href="#m61c9a98714" y="228.365544"/>
      </g>
     </g>
     <g id="text_9">
      <!-- 0.4 -->
      <defs>
       <path d="M 37.796875 64.3125 
L 12.890625 25.390625 
L 37.796875 25.390625 
z
M 35.203125 72.90625 
L 47.609375 72.90625 
L 47.609375 25.390625 
L 58.015625 25.390625 
L 58.015625 17.1875 
L 47.609375 17.1875 
L 47.609375 0 
L 37.796875 0 
L 37.796875 17.1875 
L 4.890625 17.1875 
L 4.890625 26.703125 
z
" id="DejaVuSans-52"/>
      </defs>
      <g transform="translate(23.564687 234.824216)scale(0.17 -0.17)">
       <use xlink:href="#DejaVuSans-48"/>
       <use x="63.623047" xlink:href="#DejaVuSans-46"/>
       <use x="95.410156" xlink:href="#DejaVuSans-52"/>
      </g>
     </g>
    </g>
    <g id="ytick_4">
     <g id="line2d_9">
      <g>
       <use style="stroke:#000000;stroke-width:0.8;" x="57.6" xlink:href="#m61c9a98714" y="188.756316"/>
      </g>
     </g>
     <g id="text_10">
      <!-- 0.6 -->
      <defs>
       <path d="M 33.015625 40.375 
Q 26.375 40.375 22.484375 35.828125 
Q 18.609375 31.296875 18.609375 23.390625 
Q 18.609375 15.53125 22.484375 10.953125 
Q 26.375 6.390625 33.015625 6.390625 
Q 39.65625 6.390625 43.53125 10.953125 
Q 47.40625 15.53125 47.40625 23.390625 
Q 47.40625 31.296875 43.53125 35.828125 
Q 39.65625 40.375 33.015625 40.375 
z
M 52.59375 71.296875 
L 52.59375 62.3125 
Q 48.875 64.0625 45.09375 64.984375 
Q 41.3125 65.921875 37.59375 65.921875 
Q 27.828125 65.921875 22.671875 59.328125 
Q 17.53125 52.734375 16.796875 39.40625 
Q 19.671875 43.65625 24.015625 45.921875 
Q 28.375 48.1875 33.59375 48.1875 
Q 44.578125 48.1875 50.953125 41.515625 
Q 57.328125 34.859375 57.328125 23.390625 
Q 57.328125 12.15625 50.6875 5.359375 
Q 44.046875 -1.421875 33.015625 -1.421875 
Q 20.359375 -1.421875 13.671875 8.265625 
Q 6.984375 17.96875 6.984375 36.375 
Q 6.984375 53.65625 15.1875 63.9375 
Q 23.390625 74.21875 37.203125 74.21875 
Q 40.921875 74.21875 44.703125 73.484375 
Q 48.484375 72.75 52.59375 71.296875 
z
" id="DejaVuSans-54"/>
      </defs>
      <g transform="translate(23.564687 195.214988)scale(0.17 -0.17)">
       <use xlink:href="#DejaVuSans-48"/>
       <use x="63.623047" xlink:href="#DejaVuSans-46"/>
       <use x="95.410156" xlink:href="#DejaVuSans-54"/>
      </g>
     </g>
    </g>
    <g id="ytick_5">
     <g id="line2d_10">
      <g>
       <use style="stroke:#000000;stroke-width:0.8;" x="57.6" xlink:href="#m61c9a98714" y="149.147089"/>
      </g>
     </g>
     <g id="text_11">
      <!-- 0.8 -->
      <defs>
       <path d="M 31.78125 34.625 
Q 24.75 34.625 20.71875 30.859375 
Q 16.703125 27.09375 16.703125 20.515625 
Q 16.703125 13.921875 20.71875 10.15625 
Q 24.75 6.390625 31.78125 6.390625 
Q 38.8125 6.390625 42.859375 10.171875 
Q 46.921875 13.96875 46.921875 20.515625 
Q 46.921875 27.09375 42.890625 30.859375 
Q 38.875 34.625 31.78125 34.625 
z
M 21.921875 38.8125 
Q 15.578125 40.375 12.03125 44.71875 
Q 8.5 49.078125 8.5 55.328125 
Q 8.5 64.0625 14.71875 69.140625 
Q 20.953125 74.21875 31.78125 74.21875 
Q 42.671875 74.21875 48.875 69.140625 
Q 55.078125 64.0625 55.078125 55.328125 
Q 55.078125 49.078125 51.53125 44.71875 
Q 48 40.375 41.703125 38.8125 
Q 48.828125 37.15625 52.796875 32.3125 
Q 56.78125 27.484375 56.78125 20.515625 
Q 56.78125 9.90625 50.3125 4.234375 
Q 43.84375 -1.421875 31.78125 -1.421875 
Q 19.734375 -1.421875 13.25 4.234375 
Q 6.78125 9.90625 6.78125 20.515625 
Q 6.78125 27.484375 10.78125 32.3125 
Q 14.796875 37.15625 21.921875 38.8125 
z
M 18.3125 54.390625 
Q 18.3125 48.734375 21.84375 45.5625 
Q 25.390625 42.390625 31.78125 42.390625 
Q 38.140625 42.390625 41.71875 45.5625 
Q 45.3125 48.734375 45.3125 54.390625 
Q 45.3125 60.0625 41.71875 63.234375 
Q 38.140625 66.40625 31.78125 66.40625 
Q 25.390625 66.40625 21.84375 63.234375 
Q 18.3125 60.0625 18.3125 54.390625 
z
" id="DejaVuSans-56"/>
      </defs>
      <g transform="translate(23.564687 155.605761)scale(0.17 -0.17)">
       <use xlink:href="#DejaVuSans-48"/>
       <use x="63.623047" xlink:href="#DejaVuSans-46"/>
       <use x="95.410156" xlink:href="#DejaVuSans-56"/>
      </g>
     </g>
    </g>
    <g id="ytick_6">
     <g id="line2d_11">
      <g>
       <use style="stroke:#000000;stroke-width:0.8;" x="57.6" xlink:href="#m61c9a98714" y="109.537861"/>
      </g>
     </g>
     <g id="text_12">
      <!-- 1.0 -->
      <g transform="translate(23.564687 115.996533)scale(0.17 -0.17)">
       <use xlink:href="#DejaVuSans-49"/>
       <use x="63.623047" xlink:href="#DejaVuSans-46"/>
       <use x="95.410156" xlink:href="#DejaVuSans-48"/>
      </g>
     </g>
    </g>
    <g id="ytick_7">
     <g id="line2d_12">
      <g>
       <use style="stroke:#000000;stroke-width:0.8;" x="57.6" xlink:href="#m61c9a98714" y="69.928633"/>
      </g>
     </g>
     <g id="text_13">
      <!-- 1.2 -->
      <g transform="translate(23.564687 76.387305)scale(0.17 -0.17)">
       <use xlink:href="#DejaVuSans-49"/>
       <use x="63.623047" xlink:href="#DejaVuSans-46"/>
       <use x="95.410156" xlink:href="#DejaVuSans-50"/>
      </g>
     </g>
    </g>
    <g id="text_14">
     <!-- Density -->
     <defs>
      <path d="M 19.671875 64.796875 
L 19.671875 8.109375 
L 31.59375 8.109375 
Q 46.6875 8.109375 53.6875 14.9375 
Q 60.6875 21.78125 60.6875 36.53125 
Q 60.6875 51.171875 53.6875 57.984375 
Q 46.6875 64.796875 31.59375 64.796875 
z
M 9.8125 72.90625 
L 30.078125 72.90625 
Q 51.265625 72.90625 61.171875 64.09375 
Q 71.09375 55.28125 71.09375 36.53125 
Q 71.09375 17.671875 61.125 8.828125 
Q 51.171875 0 30.078125 0 
L 9.8125 0 
z
" id="DejaVuSans-68"/>
      <path d="M 56.203125 29.59375 
L 56.203125 25.203125 
L 14.890625 25.203125 
Q 15.484375 15.921875 20.484375 11.0625 
Q 25.484375 6.203125 34.421875 6.203125 
Q 39.59375 6.203125 44.453125 7.46875 
Q 49.3125 8.734375 54.109375 11.28125 
L 54.109375 2.78125 
Q 49.265625 0.734375 44.1875 -0.34375 
Q 39.109375 -1.421875 33.890625 -1.421875 
Q 20.796875 -1.421875 13.15625 6.1875 
Q 5.515625 13.8125 5.515625 26.8125 
Q 5.515625 40.234375 12.765625 48.109375 
Q 20.015625 56 32.328125 56 
Q 43.359375 56 49.78125 48.890625 
Q 56.203125 41.796875 56.203125 29.59375 
z
M 47.21875 32.234375 
Q 47.125 39.59375 43.09375 43.984375 
Q 39.0625 48.390625 32.421875 48.390625 
Q 24.90625 48.390625 20.390625 44.140625 
Q 15.875 39.890625 15.1875 32.171875 
z
" id="DejaVuSans-101"/>
      <path d="M 32.171875 -5.078125 
Q 28.375 -14.84375 24.75 -17.8125 
Q 21.140625 -20.796875 15.09375 -20.796875 
L 7.90625 -20.796875 
L 7.90625 -13.28125 
L 13.1875 -13.28125 
Q 16.890625 -13.28125 18.9375 -11.515625 
Q 21 -9.765625 23.484375 -3.21875 
L 25.09375 0.875 
L 2.984375 54.6875 
L 12.5 54.6875 
L 29.59375 11.921875 
L 46.6875 54.6875 
L 56.203125 54.6875 
z
" id="DejaVuSans-121"/>
     </defs>
     <g transform="translate(13.325625 231.553781)rotate(-90)scale(0.3 -0.3)">
      <use xlink:href="#DejaVuSans-68"/>
      <use x="77.001953" xlink:href="#DejaVuSans-101"/>
      <use x="138.525391" xlink:href="#DejaVuSans-110"/>
      <use x="201.904297" xlink:href="#DejaVuSans-115"/>
      <use x="254.003906" xlink:href="#DejaVuSans-105"/>
      <use x="281.787109" xlink:href="#DejaVuSans-116"/>
      <use x="320.996094" xlink:href="#DejaVuSans-121"/>
     </g>
    </g>
   </g>
   <g id="line2d_13">
    <path clip-path="url(#p1ea1c74596)" d="M 73.832727 307.584 
L 98.866096 307.477508 
L 99.288189 307.193665 
L 99.807688 306.499413 
L 100.294719 305.969232 
L 100.586937 305.947538 
L 101.431123 306.101131 
L 102.307778 305.76796 
L 103.02209 305.735395 
L 103.801339 305.586457 
L 104.645525 305.721038 
L 105.067618 306.085911 
L 105.489711 306.380836 
L 105.684523 306.298412 
L 105.911804 305.932426 
L 106.236491 304.905768 
L 107.145615 301.724761 
L 107.340427 301.644513 
L 107.567708 301.838233 
L 108.02227 302.274236 
L 108.184613 302.169224 
L 108.411894 301.70835 
L 109.093737 300.071168 
L 109.256081 300.150126 
L 109.483361 300.647505 
L 110.749641 304.147382 
L 111.626296 306.113181 
L 111.821108 306.076086 
L 112.048389 305.71254 
L 112.438013 304.504083 
L 113.184793 302.19848 
L 113.574418 301.709931 
L 114.51601 300.851331 
L 114.808228 300.706127 
L 115.003041 300.820783 
L 115.26279 301.294555 
L 115.684883 302.656331 
L 116.236851 304.26034 
L 116.464132 304.403279 
L 116.626476 304.243158 
L 116.886225 303.546639 
L 117.340787 301.455377 
L 118.055099 298.322824 
L 118.574598 297.02931 
L 119.191503 296.119039 
L 119.873346 295.456922 
L 120.165564 295.4348 
L 120.490251 295.655781 
L 121.204563 296.23045 
L 121.431844 296.145022 
L 121.691593 295.764588 
L 122.081218 294.705089 
L 122.633186 293.340899 
L 122.827998 293.28788 
L 122.990341 293.50282 
L 123.250091 294.347885 
L 124.289089 298.546782 
L 124.451433 298.333791 
L 124.711182 297.480913 
L 125.328088 295.41048 
L 125.5229 295.330917 
L 125.717712 295.558683 
L 126.334617 296.501156 
L 126.496961 296.347602 
L 126.756711 295.665019 
L 127.406085 293.815321 
L 127.568428 293.834713 
L 127.76324 294.232653 
L 128.055459 295.490142 
L 129.451613 302.456319 
L 129.841237 303.497519 
L 130.068518 303.618024 
L 130.26333 303.411738 
L 130.620486 302.561983 
L 131.139985 301.429085 
L 131.497141 301.14506 
L 131.886765 300.874343 
L 132.178984 300.316549 
L 132.828358 298.876511 
L 132.958233 298.963945 
L 133.153045 299.477259 
L 133.575138 301.549302 
L 133.932294 302.797782 
L 134.094637 302.876721 
L 134.256981 302.648967 
L 134.581668 301.626201 
L 135.101167 300.116276 
L 135.458323 299.705165 
L 135.847947 299.59471 
L 136.205103 299.712759 
L 136.789539 300.217546 
L 137.568788 301.127852 
L 138.640255 302.535819 
L 138.900005 302.573072 
L 139.159755 302.359759 
L 139.971472 301.416754 
L 140.198753 301.623168 
L 141.042939 302.756777 
L 141.27022 302.585189 
L 142.211812 301.56667 
L 142.536499 301.63585 
L 142.828718 301.951717 
L 143.185873 302.725034 
L 143.705373 303.831829 
L 143.867716 303.855476 
L 144.03006 303.637689 
L 144.289809 302.811394 
L 145.458683 298.343341 
L 145.685964 298.29194 
L 145.913244 298.504232 
L 146.465212 299.477493 
L 147.049649 300.297227 
L 147.439273 300.501491 
L 147.731492 300.402045 
L 148.02371 300.032124 
L 148.380866 299.160888 
L 149.387395 296.377428 
L 149.549739 296.42249 
L 149.744551 296.744259 
L 150.069238 297.803033 
L 150.880956 301.561693 
L 151.757611 305.232128 
L 152.082298 305.762935 
L 152.27711 305.768572 
L 152.504391 305.532038 
L 152.861547 304.793459 
L 153.28364 303.413197 
L 153.705733 301.161774 
L 154.225232 296.894305 
L 154.809669 292.471577 
L 155.03695 291.928739 
L 155.166824 291.983123 
L 155.361637 292.438459 
L 155.978542 294.090217 
L 156.173354 294.097372 
L 156.757791 293.802613 
L 156.952603 294.156248 
L 157.244821 295.292928 
L 157.926664 298.076692 
L 158.089007 298.147211 
L 158.251351 297.932989 
L 158.543569 297.04183 
L 159.550099 292.800844 
L 160.167004 290.54619 
L 160.52416 289.994798 
L 161.206003 289.270592 
L 161.595627 288.812912 
L 161.757971 288.873261 
L 161.985252 289.299284 
L 162.634626 290.769724 
L 162.796969 290.703089 
L 163.089187 290.203735 
L 163.511281 289.58752 
L 163.835968 289.537 
L 164.03078 289.419592 
L 164.225592 288.938223 
L 164.452873 287.594529 
L 164.745091 284.338632 
L 165.621746 273.216216 
L 165.686684 273.176531 
L 165.719152 273.223837 
L 165.849027 273.858349 
L 166.076308 276.522753 
L 167.245181 293.295079 
L 167.342587 293.311328 
L 167.472462 292.916957 
L 167.699743 291.239175 
L 168.186774 285.303564 
L 168.738742 279.583157 
L 169.03096 278.292074 
L 169.193303 278.15422 
L 169.323178 278.320363 
L 169.550459 279.114878 
L 170.005021 281.832836 
L 170.78427 286.221694 
L 171.238832 287.7509 
L 171.433644 287.869447 
L 171.563519 287.659535 
L 171.758331 286.820469 
L 172.050549 284.3063 
L 172.602517 276.878759 
L 173.057079 272.122057 
L 173.28436 271.338122 
L 173.414235 271.378561 
L 173.609047 271.938955 
L 175.232482 278.217611 
L 175.654575 279.157032 
L 175.816918 279.145814 
L 175.979262 278.822294 
L 176.239012 277.664344 
L 176.985792 273.925426 
L 177.180604 273.785226 
L 177.440353 273.965098 
L 177.700103 274.036858 
L 177.894915 273.764265 
L 178.187134 272.831141 
L 178.706633 271.238301 
L 178.966382 271.044511 
L 179.291069 270.879861 
L 179.51835 270.378826 
L 179.907975 268.707086 
L 180.265131 267.502219 
L 180.395005 267.458793 
L 180.52488 267.69715 
L 180.752161 268.793666 
L 181.174254 272.357498 
L 181.596347 275.24733 
L 181.758691 275.486462 
L 181.888566 275.251543 
L 182.115846 274.107721 
L 182.667814 271.198312 
L 182.830158 271.151143 
L 183.02497 271.530483 
L 183.382126 272.186672 
L 183.512001 272.05138 
L 183.706813 271.34473 
L 184.453593 267.81114 
L 184.486062 267.831356 
L 184.615937 268.14641 
L 184.843217 269.507261 
L 185.589998 274.660602 
L 185.687404 274.67386 
L 185.719872 274.63089 
L 185.882216 274.090245 
L 186.206903 271.905742 
L 186.726402 268.743654 
L 186.986152 268.232529 
L 187.505651 267.755021 
L 187.732932 266.841305 
L 188.02515 264.592569 
L 188.999211 256.0127 
L 189.096617 255.984223 
L 189.129086 256.021426 
L 189.29143 256.51122 
L 190.03821 259.746666 
L 190.070678 259.735248 
L 190.200553 259.501521 
L 190.427834 258.489565 
L 190.979802 255.825231 
L 191.077208 255.812997 
L 191.207083 256.157783 
L 191.401895 257.471137 
L 191.79152 262.17786 
L 192.27855 267.42031 
L 192.473362 267.991072 
L 192.570768 267.858791 
L 192.733112 267.05005 
L 193.02533 264.121696 
L 194.03186 252.803058 
L 194.356547 251.599361 
L 194.583828 251.418783 
L 194.876046 251.560299 
L 195.135796 251.593095 
L 195.330608 251.323711 
L 195.557889 250.556117 
L 195.915045 248.429237 
L 197.083918 240.840768 
L 197.246261 240.635357 
L 197.27873 240.65434 
L 197.408605 240.950169 
L 197.635886 242.275846 
L 198.252791 246.278866 
L 198.350197 246.106649 
L 198.512541 245.053956 
L 198.804759 241.189749 
L 199.486602 231.826906 
L 199.941164 229.014561 
L 200.363257 225.920697 
L 201.337318 217.99616 
L 201.53213 217.69229 
L 201.629536 217.844462 
L 201.79188 218.602274 
L 202.051629 221.160895 
L 202.473722 228.181673 
L 203.252971 241.226737 
L 203.545189 243.054858 
L 203.740002 243.301248 
L 203.902345 243.15781 
L 204.29197 242.376363 
L 204.551719 241.387863 
L 204.811469 239.207438 
L 205.136156 234.103044 
L 205.947873 220.156857 
L 206.175154 219.208547 
L 206.27256 219.279974 
L 206.434904 219.922943 
L 206.759591 222.458499 
L 207.408965 227.385641 
L 207.863527 229.12173 
L 208.188214 229.768289 
L 208.350557 229.748675 
L 208.512901 229.408666 
L 208.77265 228.238971 
L 209.357087 225.46082 
L 209.486962 225.425945 
L 209.616837 225.743636 
L 209.811649 226.930308 
L 210.136336 230.675563 
L 211.142866 243.95161 
L 211.402615 244.872699 
L 211.53249 244.877722 
L 211.694833 244.479212 
L 211.922114 243.176779 
L 212.27927 239.500099 
L 213.253331 228.472122 
L 213.545549 227.557108 
L 214.097517 226.628856 
L 214.357267 225.126014 
L 214.811829 220.710666 
L 215.298859 216.740731 
L 215.52614 216.180985 
L 215.623546 216.251018 
L 215.78589 216.767865 
L 216.078108 218.694216 
L 216.597607 221.994235 
L 216.695014 222.058919 
L 216.727482 222.022589 
L 216.857357 221.585707 
L 217.117107 219.533729 
L 217.734012 214.324018 
L 218.02623 213.658443 
L 218.253511 213.181797 
L 218.480792 212.043742 
L 218.870416 208.557691 
L 219.389916 204.581893 
L 219.909415 201.375819 
L 220.363977 196.139336 
L 220.753601 192.720383 
L 220.915945 192.418832 
L 221.013351 192.551244 
L 221.2731 193.545373 
L 221.53285 194.278482 
L 221.630256 194.221855 
L 221.7926 193.618515 
L 222.117287 191.045708 
L 222.441974 189.008408 
L 222.506911 188.946864 
L 222.53938 188.975709 
L 222.669255 189.522439 
L 222.864067 191.685237 
L 223.221222 199.00374 
L 223.77319 210.05186 
L 224.000471 211.216889 
L 224.097877 210.906787 
L 224.29269 208.980451 
L 224.714783 201.482641 
L 225.136876 195.810357 
L 225.331688 195.146896 
L 225.429094 195.259079 
L 225.623906 196.120405 
L 227.604497 207.637759 
L 227.766841 207.791875 
L 227.896715 207.494805 
L 228.091528 206.190068 
L 228.383746 202.199233 
L 229.260401 188.675024 
L 229.325338 188.601235 
L 229.357807 188.636121 
L 229.487682 189.231955 
L 229.714963 191.709781 
L 230.364337 199.487081 
L 230.494212 199.691547 
L 230.591618 199.420191 
L 230.78643 197.81604 
L 231.078648 193.086548 
L 232.215053 171.425287 
L 232.27999 171.407267 
L 232.312459 171.476355 
L 232.442334 172.254419 
L 232.669615 175.314987 
L 233.124176 185.407418 
L 234.130706 208.063748 
L 234.357987 209.514546 
L 234.422924 209.303432 
L 234.552799 207.775683 
L 234.747611 201.996345 
L 235.007361 185.75884 
L 235.364517 145.181005 
L 236.078828 57.426186 
L 236.208703 54.144 
L 236.241172 54.267892 
L 236.338578 56.871627 
L 236.53339 71.10707 
L 236.987952 128.915453 
L 237.474982 179.787874 
L 237.864607 199.380439 
L 238.221763 206.989864 
L 238.513981 209.394371 
L 238.741262 209.906327 
L 238.871137 209.831378 
L 239.065949 209.316679 
L 239.358167 207.712793 
L 239.812729 203.587387 
L 240.234822 200.497144 
L 240.332228 200.359502 
L 240.364697 200.379803 
L 240.494572 200.804948 
L 240.721853 202.774212 
L 241.468633 210.365558 
L 241.566039 210.401965 
L 241.598507 210.355081 
L 241.760851 209.772579 
L 242.312819 207.457261 
L 242.410225 207.509633 
L 242.605037 208.025776 
L 242.962193 208.930558 
L 243.059599 208.777023 
L 243.221943 207.845241 
L 243.449223 204.928029 
L 243.871317 195.801873 
L 244.325878 187.596796 
L 244.553159 186.487158 
L 244.650565 186.632339 
L 244.845378 187.661527 
L 245.267471 189.815825 
L 245.332408 189.762571 
L 245.462283 189.171446 
L 245.689564 186.54221 
L 246.631156 172.477609 
L 246.663625 172.508384 
L 246.7935 173.109023 
L 247.020781 175.649243 
L 247.800029 185.552421 
L 248.02731 186.250199 
L 248.157185 186.235876 
L 248.351997 185.872551 
L 249.78062 182.449033 
L 250.072839 182.179604 
L 250.267651 182.275679 
L 250.5274 182.745016 
L 250.917025 183.449173 
L 251.014431 183.382115 
L 251.144306 182.983209 
L 251.339118 181.539959 
L 251.631336 177.399261 
L 252.248242 168.374511 
L 252.313179 168.211343 
L 252.378116 168.292844 
L 252.507991 169.21768 
L 252.735272 173.159059 
L 253.28724 188.86856 
L 253.644396 195.79307 
L 253.839208 196.76581 
L 253.936614 196.500482 
L 254.131426 194.760022 
L 254.910675 186.121684 
L 254.975612 186.097444 
L 255.008081 186.137966 
L 255.137956 186.61665 
L 255.430174 188.910667 
L 255.884736 192.119536 
L 256.176954 192.808862 
L 256.404235 193.398578 
L 256.631516 194.903197 
L 256.923735 198.667717 
L 257.638046 208.637639 
L 257.832858 209.193853 
L 257.930264 209.058107 
L 258.125077 208.203555 
L 258.741982 205.215641 
L 258.936794 205.066512 
L 259.164075 205.226024 
L 259.553699 205.835433 
L 259.813449 206.709265 
L 260.073199 208.491885 
L 260.430354 212.871426 
L 261.404415 226.458173 
L 261.501821 226.621564 
L 261.53429 226.585543 
L 261.664165 225.967672 
L 261.858977 223.630231 
L 262.216133 216.036345 
L 262.768101 204.920238 
L 262.995382 203.401967 
L 263.060319 203.365607 
L 263.092788 203.409493 
L 263.222663 203.963203 
L 263.482412 206.470418 
L 264.521411 217.926153 
L 264.975973 220.230206 
L 265.268191 220.850285 
L 265.430534 220.84116 
L 265.657815 220.477881 
L 266.079908 219.781719 
L 266.209783 219.895157 
L 266.404595 220.545681 
L 266.696814 222.556167 
L 268.157905 234.358424 
L 268.579998 235.994598 
L 268.839748 236.349429 
L 269.03456 236.295669 
L 269.29431 235.913303 
L 269.943684 234.392537 
L 270.463183 232.662049 
L 270.885276 231.444463 
L 271.015151 231.421504 
L 271.145026 231.658296 
L 271.372307 232.701293 
L 272.054149 236.45181 
L 272.151556 236.431554 
L 272.313899 235.978216 
L 272.930804 233.443768 
L 272.963273 233.474985 
L 273.093148 233.89869 
L 273.320429 235.763863 
L 274.262021 245.356204 
L 274.391896 245.417497 
L 274.554239 245.105509 
L 274.976333 243.486358 
L 275.982862 239.005925 
L 276.469893 237.149553 
L 276.729642 236.77057 
L 276.891986 236.84892 
L 277.086798 237.343772 
L 277.346548 238.730464 
L 278.223203 244.061017 
L 278.353077 244.020095 
L 278.54789 243.528168 
L 279.067389 242.093108 
L 279.197264 242.194293 
L 279.392076 242.771631 
L 280.008981 244.964529 
L 280.138856 244.91692 
L 280.333668 244.470624 
L 280.853167 243.187043 
L 280.983042 243.244563 
L 281.210323 243.67718 
L 281.567479 244.254944 
L 281.697354 244.185995 
L 281.924635 243.679784 
L 282.411665 242.536867 
L 282.54154 242.592385 
L 282.736352 243.030269 
L 283.483132 245.136923 
L 283.677945 245.086135 
L 284.002632 244.962704 
L 284.164975 245.174284 
L 284.392256 245.93073 
L 284.976693 249.084662 
L 285.658535 253.174593 
L 286.145566 258.086738 
L 286.892346 265.302767 
L 287.249502 266.983325 
L 287.444314 267.186512 
L 287.574189 267.002857 
L 287.80147 266.086344 
L 288.320969 262.495805 
L 288.678125 260.902173 
L 288.872937 260.779466 
L 289.03528 261.021492 
L 289.652186 262.174771 
L 289.814529 261.912248 
L 290.04181 260.97832 
L 291.015871 255.967366 
L 291.04834 255.988982 
L 291.178215 256.28049 
L 291.405495 257.521562 
L 292.509431 264.959356 
L 292.769181 265.219118 
L 292.996462 265.124032 
L 293.28868 264.668426 
L 293.938054 263.463416 
L 294.067929 263.632246 
L 294.262741 264.437036 
L 294.554959 266.930747 
L 295.529021 276.542266 
L 295.78877 277.279793 
L 295.951114 277.316185 
L 296.113457 277.037401 
L 296.340738 276.096167 
L 296.665425 273.594235 
L 297.607017 265.289347 
L 297.704424 265.376688 
L 297.866767 266.169785 
L 298.158985 269.245331 
L 298.840828 276.798411 
L 299.068109 277.423788 
L 299.165515 277.346893 
L 299.327859 276.834696 
L 299.685014 274.711353 
L 300.107107 272.617035 
L 300.30192 272.394767 
L 300.464263 272.547881 
L 300.853888 273.008274 
L 300.983762 272.759253 
L 301.178575 271.678987 
L 301.470793 268.417629 
L 302.314979 257.95333 
L 302.509791 257.531695 
L 302.607197 257.661899 
L 302.80201 258.448503 
L 303.483852 261.617608 
L 303.581258 261.507867 
L 303.743602 260.85062 
L 304.03582 258.456679 
L 304.620257 253.741582 
L 304.7826 253.49163 
L 304.912475 253.693207 
L 305.139756 254.672529 
L 305.659255 256.90653 
L 305.78913 256.869748 
L 305.951474 256.333426 
L 306.211223 254.457978 
L 306.925535 248.686497 
L 307.05541 248.539463 
L 307.087878 248.565188 
L 307.217753 248.901518 
L 307.477503 250.430876 
L 308.126877 254.392845 
L 308.873657 257.04667 
L 309.29575 260.732263 
L 309.847718 265.09669 
L 310.074999 265.670526 
L 310.204874 265.639795 
L 310.399686 265.225762 
L 311.828309 261.18636 
L 312.05559 261.033351 
L 312.217933 261.179498 
L 312.737432 261.951445 
L 312.769901 261.918674 
L 312.899776 261.571287 
L 313.094588 260.281235 
L 313.386806 256.577456 
L 314.263461 244.19665 
L 314.523211 243.25871 
L 314.718023 243.19034 
L 315.075179 243.486347 
L 315.367397 243.941607 
L 315.594678 244.803401 
L 315.886896 246.965448 
L 316.503802 253.91441 
L 317.347988 262.39199 
L 317.770081 264.921085 
L 317.964893 265.170662 
L 318.094768 264.920275 
L 318.28958 263.909682 
L 318.646736 260.529033 
L 319.328579 254.172787 
L 319.620797 253.218449 
L 319.78314 253.162637 
L 319.977953 253.408744 
L 320.627327 254.470935 
L 320.78967 254.371417 
L 321.04942 253.838098 
L 321.958543 251.573622 
L 322.153356 251.572594 
L 322.445574 251.8591 
L 322.867667 252.203266 
L 323.419635 252.410861 
L 323.679385 253.023436 
L 324.263821 254.53894 
L 324.393696 254.437693 
L 324.588508 253.868444 
L 325.205414 251.635876 
L 325.237882 251.644939 
L 325.367757 251.905498 
L 325.562569 252.983061 
L 325.919725 256.649274 
L 326.666505 264.458404 
L 327.088598 266.52336 
L 327.997722 269.626413 
L 328.192534 269.662762 
L 328.452284 269.347542 
L 328.712033 269.151487 
L 328.874377 269.330348 
L 329.134127 270.150328 
L 329.653626 271.829318 
L 329.848438 271.868282 
L 330.205594 271.765169 
L 330.367937 272.176076 
L 330.595218 273.677088 
L 330.952374 278.00111 
L 331.471873 283.923447 
L 331.666685 284.522546 
L 331.764091 284.372978 
L 331.926435 283.480864 
L 332.218653 280.237277 
L 333.192714 268.099624 
L 333.452464 267.190857 
L 333.582339 267.182517 
L 333.744682 267.527601 
L 334.0369 268.879616 
L 334.718743 273.505827 
L 335.692804 279.836836 
L 336.017491 280.716223 
L 336.244772 280.81505 
L 336.764271 280.721026 
L 336.926615 281.126858 
L 337.186364 282.574797 
L 338.063019 288.489435 
L 338.225363 288.546659 
L 338.55005 288.195373 
L 338.744862 288.191354 
L 338.939674 288.538687 
L 339.55658 289.983215 
L 339.686454 289.832602 
L 339.913735 289.051955 
L 340.595578 286.314614 
L 340.725453 286.345214 
L 340.887796 286.723018 
L 341.180015 288.151542 
L 341.959264 292.288582 
L 342.121607 292.424408 
L 342.251482 292.247033 
L 342.478763 291.364468 
L 343.647636 285.57014 
L 343.939854 285.360376 
L 344.232073 285.423045 
L 344.524291 285.734483 
L 344.881447 286.502419 
L 346.147726 289.672127 
L 346.342538 289.584295 
L 346.667225 289.087138 
L 346.959444 288.773154 
L 347.121787 288.884878 
L 347.316599 289.390852 
L 347.641286 291.00862 
L 348.323129 294.488907 
L 348.582879 294.939245 
L 348.777691 294.917787 
L 349.03744 294.567382 
L 349.55694 293.839885 
L 349.849158 293.796211 
L 350.173845 293.729615 
L 350.401126 293.409921 
L 350.855688 292.199886 
L 351.277781 291.366773 
L 351.829749 290.515193 
L 352.771341 288.332257 
L 352.933685 288.544445 
L 353.193434 289.385945 
L 353.615527 291.671578 
L 354.329839 296.921712 
L 354.914275 300.697507 
L 355.238962 301.621462 
L 355.563649 301.911907 
L 356.440304 302.179397 
L 356.732523 301.983985 
L 357.446834 301.373574 
L 357.706584 301.472372 
L 358.453364 301.920046 
L 358.713113 301.677361 
L 359.492362 300.749115 
L 359.719643 300.876529 
L 360.076799 301.413938 
L 361.375547 303.601265 
L 361.862578 303.899631 
L 362.284671 303.941465 
L 362.706764 303.740638 
L 363.258732 303.499764 
L 363.713294 303.350327 
L 363.940574 302.990901 
L 364.265261 301.973991 
L 364.882167 299.983148 
L 365.076979 299.916184 
L 365.271791 300.199459 
L 365.628947 301.305982 
L 366.895226 305.452075 
L 367.479663 306.911578 
L 367.836819 307.302313 
L 368.129037 307.351212 
L 368.421255 307.18044 
L 368.778411 306.672854 
L 369.29791 305.462974 
L 370.012222 303.885504 
L 370.271971 303.733328 
L 370.466783 303.873846 
L 370.726533 304.39807 
L 371.927875 307.32969 
L 372.317499 307.52835 
L 373.031811 307.582629 
L 387.934945 307.584 
L 398.487273 307.584 
L 398.487273 307.584 
" style="fill:none;stroke:#ff7f0e;stroke-linecap:square;stroke-width:1.5;"/>
   </g>
   <g id="patch_103">
    <path d="M 57.6 307.584 
L 57.6 41.472 
" style="fill:none;stroke:#000000;stroke-linecap:square;stroke-linejoin:miter;stroke-width:0.8;"/>
   </g>
   <g id="patch_104">
    <path d="M 414.72 307.584 
L 414.72 41.472 
" style="fill:none;stroke:#000000;stroke-linecap:square;stroke-linejoin:miter;stroke-width:0.8;"/>
   </g>
   <g id="patch_105">
    <path d="M 57.6 307.584 
L 414.72 307.584 
" style="fill:none;stroke:#000000;stroke-linecap:square;stroke-linejoin:miter;stroke-width:0.8;"/>
   </g>
   <g id="patch_106">
    <path d="M 57.6 41.472 
L 414.72 41.472 
" style="fill:none;stroke:#000000;stroke-linecap:square;stroke-linejoin:miter;stroke-width:0.8;"/>
   </g>
  </g>
 </g>
 <defs>
  <clipPath id="p1ea1c74596">
   <rect height="266.112" width="357.12" x="57.6" y="41.472"/>
  </clipPath>
 </defs>
</svg>
