<?xml version="1.0" encoding="utf-8" standalone="no"?>
<!DOCTYPE svg PUBLIC "-//W3C//DTD SVG 1.1//EN"
  "http://www.w3.org/Graphics/SVG/1.1/DTD/svg11.dtd">
<!-- Created with matplotlib (https://matplotlib.org/) -->
<svg height="345.6pt" version="1.1" viewBox="0 0 460.8 345.6" width="460.8pt" xmlns="http://www.w3.org/2000/svg" xmlns:xlink="http://www.w3.org/1999/xlink">
 <defs>
  <style type="text/css">
*{stroke-linecap:butt;stroke-linejoin:round;}
  </style>
 </defs>
 <g id="figure_1">
  <g id="patch_1">
   <path d="M 0 345.6 
L 460.8 345.6 
L 460.8 0 
L 0 0 
z
" style="fill:#ffffff;"/>
  </g>
  <g id="axes_1">
   <g id="patch_2">
    <path d="M 57.6 307.584 
L 414.72 307.584 
L 414.72 41.472 
L 57.6 41.472 
z
" style="fill:#ffffff;"/>
   </g>
   <g id="patch_3">
    <path clip-path="url(#p903eceac25)" d="M 100.189693 307.584 
L 102.909514 307.584 
L 102.909514 305.187284 
L 100.189693 305.187284 
z
" style="fill:#1f77b4;"/>
   </g>
   <g id="patch_4">
    <path clip-path="url(#p903eceac25)" d="M 102.90953 307.584 
L 105.629351 307.584 
L 105.629351 305.187284 
L 102.90953 305.187284 
z
" style="fill:#1f77b4;"/>
   </g>
   <g id="patch_5">
    <path clip-path="url(#p903eceac25)" d="M 105.629351 307.584 
L 108.349165 307.584 
L 108.349165 303.389734 
L 105.629351 303.389734 
z
" style="fill:#1f77b4;"/>
   </g>
   <g id="patch_6">
    <path clip-path="url(#p903eceac25)" d="M 108.349165 307.584 
L 111.068986 307.584 
L 111.068986 302.790567 
L 108.349165 302.790567 
z
" style="fill:#1f77b4;"/>
   </g>
   <g id="patch_7">
    <path clip-path="url(#p903eceac25)" d="M 111.068986 307.584 
L 113.788807 307.584 
L 113.788807 302.191388 
L 111.068986 302.191388 
z
" style="fill:#1f77b4;"/>
   </g>
   <g id="patch_8">
    <path clip-path="url(#p903eceac25)" d="M 113.788807 307.584 
L 116.508629 307.584 
L 116.508629 299.195493 
L 113.788807 299.195493 
z
" style="fill:#1f77b4;"/>
   </g>
   <g id="patch_9">
    <path clip-path="url(#p903eceac25)" d="M 116.508637 307.584 
L 119.22845 307.584 
L 119.22845 302.191373 
L 116.508637 302.191373 
z
" style="fill:#1f77b4;"/>
   </g>
   <g id="patch_10">
    <path clip-path="url(#p903eceac25)" d="M 119.228442 307.584 
L 121.948264 307.584 
L 121.948264 298.596314 
L 119.228442 298.596314 
z
" style="fill:#1f77b4;"/>
   </g>
   <g id="patch_11">
    <path clip-path="url(#p903eceac25)" d="M 121.948264 307.584 
L 124.668085 307.584 
L 124.668085 298.596314 
L 121.948264 298.596314 
z
" style="fill:#1f77b4;"/>
   </g>
   <g id="patch_12">
    <path clip-path="url(#p903eceac25)" d="M 124.668085 307.584 
L 127.387907 307.584 
L 127.387907 297.997134 
L 124.668085 297.997134 
z
" style="fill:#1f77b4;"/>
   </g>
   <g id="patch_13">
    <path clip-path="url(#p903eceac25)" d="M 127.387907 307.584 
L 130.107728 307.584 
L 130.107728 297.397955 
L 127.387907 297.397955 
z
" style="fill:#1f77b4;"/>
   </g>
   <g id="patch_14">
    <path clip-path="url(#p903eceac25)" d="M 130.107728 307.584 
L 132.827542 307.584 
L 132.827542 297.997107 
L 130.107728 297.997107 
z
" style="fill:#1f77b4;"/>
   </g>
   <g id="patch_15">
    <path clip-path="url(#p903eceac25)" d="M 132.827542 307.584 
L 135.547363 307.584 
L 135.547363 299.794672 
L 132.827542 299.794672 
z
" style="fill:#1f77b4;"/>
   </g>
   <g id="patch_16">
    <path clip-path="url(#p903eceac25)" d="M 135.547363 307.584 
L 138.267184 307.584 
L 138.267184 296.798776 
L 135.547363 296.798776 
z
" style="fill:#1f77b4;"/>
   </g>
   <g id="patch_17">
    <path clip-path="url(#p903eceac25)" d="M 138.267184 307.584 
L 140.987006 307.584 
L 140.987006 292.005343 
L 138.267184 292.005343 
z
" style="fill:#1f77b4;"/>
   </g>
   <g id="patch_18">
    <path clip-path="url(#p903eceac25)" d="M 140.987014 307.584 
L 143.706827 307.584 
L 143.706827 296.798746 
L 140.987014 296.798746 
z
" style="fill:#1f77b4;"/>
   </g>
   <g id="patch_19">
    <path clip-path="url(#p903eceac25)" d="M 143.706819 307.584 
L 146.426641 307.584 
L 146.426641 288.410269 
L 143.706819 288.410269 
z
" style="fill:#1f77b4;"/>
   </g>
   <g id="patch_20">
    <path clip-path="url(#p903eceac25)" d="M 146.426641 307.584 
L 149.146462 307.584 
L 149.146462 293.802881 
L 146.426641 293.802881 
z
" style="fill:#1f77b4;"/>
   </g>
   <g id="patch_21">
    <path clip-path="url(#p903eceac25)" d="M 149.146462 307.584 
L 151.866284 307.584 
L 151.866284 293.203702 
L 149.146462 293.203702 
z
" style="fill:#1f77b4;"/>
   </g>
   <g id="patch_22">
    <path clip-path="url(#p903eceac25)" d="M 151.866284 307.584 
L 154.586105 307.584 
L 154.586105 294.40206 
L 151.866284 294.40206 
z
" style="fill:#1f77b4;"/>
   </g>
   <g id="patch_23">
    <path clip-path="url(#p903eceac25)" d="M 154.586105 307.584 
L 157.305919 307.584 
L 157.305919 293.203661 
L 154.586105 293.203661 
z
" style="fill:#1f77b4;"/>
   </g>
   <g id="patch_24">
    <path clip-path="url(#p903eceac25)" d="M 157.305919 307.584 
L 160.02574 307.584 
L 160.02574 294.40206 
L 157.305919 294.40206 
z
" style="fill:#1f77b4;"/>
   </g>
   <g id="patch_25">
    <path clip-path="url(#p903eceac25)" d="M 160.02574 307.584 
L 162.745561 307.584 
L 162.745561 293.802881 
L 160.02574 293.802881 
z
" style="fill:#1f77b4;"/>
   </g>
   <g id="patch_26">
    <path clip-path="url(#p903eceac25)" d="M 162.745561 307.584 
L 165.465383 307.584 
L 165.465383 287.211911 
L 162.745561 287.211911 
z
" style="fill:#1f77b4;"/>
   </g>
   <g id="patch_27">
    <path clip-path="url(#p903eceac25)" d="M 165.46539 307.584 
L 168.185204 307.584 
L 168.185204 284.215949 
L 165.46539 284.215949 
z
" style="fill:#1f77b4;"/>
   </g>
   <g id="patch_28">
    <path clip-path="url(#p903eceac25)" d="M 168.185196 307.584 
L 170.905018 307.584 
L 170.905018 280.021761 
L 168.185196 280.021761 
z
" style="fill:#1f77b4;"/>
   </g>
   <g id="patch_29">
    <path clip-path="url(#p903eceac25)" d="M 170.905018 307.584 
L 173.624839 307.584 
L 173.624839 283.017657 
L 170.905018 283.017657 
z
" style="fill:#1f77b4;"/>
   </g>
   <g id="patch_30">
    <path clip-path="url(#p903eceac25)" d="M 173.624839 307.584 
L 176.344661 307.584 
L 176.344661 280.620941 
L 173.624839 280.620941 
z
" style="fill:#1f77b4;"/>
   </g>
   <g id="patch_31">
    <path clip-path="url(#p903eceac25)" d="M 176.344661 307.584 
L 179.064478 307.584 
L 179.064478 274.029923 
L 176.344661 274.029923 
z
" style="fill:#1f77b4;"/>
   </g>
   <g id="patch_32">
    <path clip-path="url(#p903eceac25)" d="M 179.064478 307.584 
L 181.784299 307.584 
L 181.784299 275.228329 
L 179.064478 275.228329 
z
" style="fill:#1f77b4;"/>
   </g>
   <g id="patch_33">
    <path clip-path="url(#p903eceac25)" d="M 181.784296 307.584 
L 184.504113 307.584 
L 184.504113 280.620902 
L 181.784296 280.620902 
z
" style="fill:#1f77b4;"/>
   </g>
   <g id="patch_34">
    <path clip-path="url(#p903eceac25)" d="M 184.504117 307.584 
L 187.223938 307.584 
L 187.223938 271.633254 
L 184.504117 271.633254 
z
" style="fill:#1f77b4;"/>
   </g>
   <g id="patch_35">
    <path clip-path="url(#p903eceac25)" d="M 187.223938 307.584 
L 189.943756 307.584 
L 189.943756 271.633203 
L 187.223938 271.633203 
z
" style="fill:#1f77b4;"/>
   </g>
   <g id="patch_36">
    <path clip-path="url(#p903eceac25)" d="M 189.943756 307.584 
L 192.663577 307.584 
L 192.663577 267.439 
L 189.943756 267.439 
z
" style="fill:#1f77b4;"/>
   </g>
   <g id="patch_37">
    <path clip-path="url(#p903eceac25)" d="M 192.663577 307.584 
L 195.383399 307.584 
L 195.383399 261.447209 
L 192.663577 261.447209 
z
" style="fill:#1f77b4;"/>
   </g>
   <g id="patch_38">
    <path clip-path="url(#p903eceac25)" d="M 195.383395 307.584 
L 198.103212 307.584 
L 198.103212 247.666005 
L 195.383395 247.666005 
z
" style="fill:#1f77b4;"/>
   </g>
   <g id="patch_39">
    <path clip-path="url(#p903eceac25)" d="M 198.103216 307.584 
L 200.823037 307.584 
L 200.823037 247.66609 
L 198.103216 247.66609 
z
" style="fill:#1f77b4;"/>
   </g>
   <g id="patch_40">
    <path clip-path="url(#p903eceac25)" d="M 200.823037 307.584 
L 203.542855 307.584 
L 203.542855 239.277486 
L 200.823037 239.277486 
z
" style="fill:#1f77b4;"/>
   </g>
   <g id="patch_41">
    <path clip-path="url(#p903eceac25)" d="M 203.542855 307.584 
L 206.262676 307.584 
L 206.262676 236.281687 
L 203.542855 236.281687 
z
" style="fill:#1f77b4;"/>
   </g>
   <g id="patch_42">
    <path clip-path="url(#p903eceac25)" d="M 206.262676 307.584 
L 208.982496 307.584 
L 208.982496 239.876714 
L 206.262676 239.876714 
z
" style="fill:#1f77b4;"/>
   </g>
   <g id="patch_43">
    <path clip-path="url(#p903eceac25)" d="M 208.982494 307.584 
L 211.702313 307.584 
L 211.702313 235.682457 
L 208.982494 235.682457 
z
" style="fill:#1f77b4;"/>
   </g>
   <g id="patch_44">
    <path clip-path="url(#p903eceac25)" d="M 211.702315 307.584 
L 214.422135 307.584 
L 214.422135 245.269329 
L 211.702315 245.269329 
z
" style="fill:#1f77b4;"/>
   </g>
   <g id="patch_45">
    <path clip-path="url(#p903eceac25)" d="M 214.422133 307.584 
L 217.141952 307.584 
L 217.141952 229.690662 
L 214.422133 229.690662 
z
" style="fill:#1f77b4;"/>
   </g>
   <g id="patch_46">
    <path clip-path="url(#p903eceac25)" d="M 217.141954 307.584 
L 219.861774 307.584 
L 219.861774 216.508712 
L 217.141954 216.508712 
z
" style="fill:#1f77b4;"/>
   </g>
   <g id="patch_47">
    <path clip-path="url(#p903eceac25)" d="M 219.861774 307.584 
L 222.581594 307.584 
L 222.581594 204.525158 
L 219.861774 204.525158 
z
" style="fill:#1f77b4;"/>
   </g>
   <g id="patch_48">
    <path clip-path="url(#p903eceac25)" d="M 222.581594 307.584 
L 225.301413 307.584 
L 225.301413 203.326763 
L 222.581594 203.326763 
z
" style="fill:#1f77b4;"/>
   </g>
   <g id="patch_49">
    <path clip-path="url(#p903eceac25)" d="M 225.301413 307.584 
L 228.021233 307.584 
L 228.021233 208.719378 
L 225.301413 208.719378 
z
" style="fill:#1f77b4;"/>
   </g>
   <g id="patch_50">
    <path clip-path="url(#p903eceac25)" d="M 228.021233 307.584 
L 230.741053 307.584 
L 230.741053 208.120217 
L 228.021233 208.120217 
z
" style="fill:#1f77b4;"/>
   </g>
   <g id="patch_51">
    <path clip-path="url(#p903eceac25)" d="M 230.741053 307.584 
L 233.460872 307.584 
L 233.460872 178.760414 
L 230.741053 178.760414 
z
" style="fill:#1f77b4;"/>
   </g>
   <g id="patch_52">
    <path clip-path="url(#p903eceac25)" d="M 233.460872 307.584 
L 236.180692 307.584 
L 236.180692 112.850672 
L 233.460872 112.850672 
z
" style="fill:#1f77b4;"/>
   </g>
   <g id="patch_53">
    <path clip-path="url(#p903eceac25)" d="M 236.180692 307.584 
L 238.900512 307.584 
L 238.900512 203.326772 
L 236.180692 203.326772 
z
" style="fill:#1f77b4;"/>
   </g>
   <g id="patch_54">
    <path clip-path="url(#p903eceac25)" d="M 238.900512 307.584 
L 241.620332 307.584 
L 241.620332 198.533336 
L 238.900512 198.533336 
z
" style="fill:#1f77b4;"/>
   </g>
   <g id="patch_55">
    <path clip-path="url(#p903eceac25)" d="M 241.620332 307.584 
L 244.340152 307.584 
L 244.340152 194.938269 
L 241.620332 194.938269 
z
" style="fill:#1f77b4;"/>
   </g>
   <g id="patch_56">
    <path clip-path="url(#p903eceac25)" d="M 244.340151 307.584 
L 247.059971 307.584 
L 247.059971 185.351377 
L 244.340151 185.351377 
z
" style="fill:#1f77b4;"/>
   </g>
   <g id="patch_57">
    <path clip-path="url(#p903eceac25)" d="M 247.059971 307.584 
L 249.77979 307.584 
L 249.77979 187.748095 
L 247.059971 187.748095 
z
" style="fill:#1f77b4;"/>
   </g>
   <g id="patch_58">
    <path clip-path="url(#p903eceac25)" d="M 249.779789 307.584 
L 252.499609 307.584 
L 252.499609 187.748138 
L 249.779789 187.748138 
z
" style="fill:#1f77b4;"/>
   </g>
   <g id="patch_59">
    <path clip-path="url(#p903eceac25)" d="M 252.499609 307.584 
L 255.219428 307.584 
L 255.219428 196.136608 
L 252.499609 196.136608 
z
" style="fill:#1f77b4;"/>
   </g>
   <g id="patch_60">
    <path clip-path="url(#p903eceac25)" d="M 255.21943 307.584 
L 257.93925 307.584 
L 257.93925 214.711174 
L 255.21943 214.711174 
z
" style="fill:#1f77b4;"/>
   </g>
   <g id="patch_61">
    <path clip-path="url(#p903eceac25)" d="M 257.939248 307.584 
L 260.659067 307.584 
L 260.659067 211.715276 
L 257.939248 211.715276 
z
" style="fill:#1f77b4;"/>
   </g>
   <g id="patch_62">
    <path clip-path="url(#p903eceac25)" d="M 260.659069 307.584 
L 263.378889 307.584 
L 263.378889 221.901328 
L 260.659069 221.901328 
z
" style="fill:#1f77b4;"/>
   </g>
   <g id="patch_63">
    <path clip-path="url(#p903eceac25)" d="M 263.378887 307.584 
L 266.098706 307.584 
L 266.098706 220.103789 
L 263.378887 220.103789 
z
" style="fill:#1f77b4;"/>
   </g>
   <g id="patch_64">
    <path clip-path="url(#p903eceac25)" d="M 266.098708 307.584 
L 268.818529 307.584 
L 268.818529 235.083329 
L 266.098708 235.083329 
z
" style="fill:#1f77b4;"/>
   </g>
   <g id="patch_65">
    <path clip-path="url(#p903eceac25)" d="M 268.818526 307.584 
L 271.538343 307.584 
L 271.538343 235.083226 
L 268.818526 235.083226 
z
" style="fill:#1f77b4;"/>
   </g>
   <g id="patch_66">
    <path clip-path="url(#p903eceac25)" d="M 271.538347 307.584 
L 274.258168 307.584 
L 274.258168 243.471837 
L 271.538347 243.471837 
z
" style="fill:#1f77b4;"/>
   </g>
   <g id="patch_67">
    <path clip-path="url(#p903eceac25)" d="M 274.258168 307.584 
L 276.977986 307.584 
L 276.977986 238.079126 
L 274.258168 238.079126 
z
" style="fill:#1f77b4;"/>
   </g>
   <g id="patch_68">
    <path clip-path="url(#p903eceac25)" d="M 276.977986 307.584 
L 279.697807 307.584 
L 279.697807 245.269374 
L 276.977986 245.269374 
z
" style="fill:#1f77b4;"/>
   </g>
   <g id="patch_69">
    <path clip-path="url(#p903eceac25)" d="M 279.697807 307.584 
L 282.417629 307.584 
L 282.417629 249.463627 
L 279.697807 249.463627 
z
" style="fill:#1f77b4;"/>
   </g>
   <g id="patch_70">
    <path clip-path="url(#p903eceac25)" d="M 282.417625 307.584 
L 285.137442 307.584 
L 285.137442 251.261085 
L 282.417625 251.261085 
z
" style="fill:#1f77b4;"/>
   </g>
   <g id="patch_71">
    <path clip-path="url(#p903eceac25)" d="M 285.137446 307.584 
L 287.857267 307.584 
L 287.857267 259.649672 
L 285.137446 259.649672 
z
" style="fill:#1f77b4;"/>
   </g>
   <g id="patch_72">
    <path clip-path="url(#p903eceac25)" d="M 287.857267 307.584 
L 290.577085 307.584 
L 290.577085 261.447144 
L 287.857267 261.447144 
z
" style="fill:#1f77b4;"/>
   </g>
   <g id="patch_73">
    <path clip-path="url(#p903eceac25)" d="M 290.577085 307.584 
L 293.296906 307.584 
L 293.296906 261.447209 
L 290.577085 261.447209 
z
" style="fill:#1f77b4;"/>
   </g>
   <g id="patch_74">
    <path clip-path="url(#p903eceac25)" d="M 293.296902 307.584 
L 296.01672 307.584 
L 296.01672 267.438943 
L 293.296902 267.438943 
z
" style="fill:#1f77b4;"/>
   </g>
   <g id="patch_75">
    <path clip-path="url(#p903eceac25)" d="M 296.016724 307.584 
L 298.736545 307.584 
L 298.736545 262.645568 
L 296.016724 262.645568 
z
" style="fill:#1f77b4;"/>
   </g>
   <g id="patch_76">
    <path clip-path="url(#p903eceac25)" d="M 298.736545 307.584 
L 301.456367 307.584 
L 301.456367 276.426687 
L 298.736545 276.426687 
z
" style="fill:#1f77b4;"/>
   </g>
   <g id="patch_77">
    <path clip-path="url(#p903eceac25)" d="M 301.456367 307.584 
L 304.176188 307.584 
L 304.176188 264.443105 
L 301.456367 264.443105 
z
" style="fill:#1f77b4;"/>
   </g>
   <g id="patch_78">
    <path clip-path="url(#p903eceac25)" d="M 304.176188 307.584 
L 306.896002 307.584 
L 306.896002 253.058547 
L 304.176188 253.058547 
z
" style="fill:#1f77b4;"/>
   </g>
   <g id="patch_79">
    <path clip-path="url(#p903eceac25)" d="M 306.896002 307.584 
L 309.615823 307.584 
L 309.615823 263.843926 
L 306.896002 263.843926 
z
" style="fill:#1f77b4;"/>
   </g>
   <g id="patch_80">
    <path clip-path="url(#p903eceac25)" d="M 309.615823 307.584 
L 312.335644 307.584 
L 312.335644 268.637359 
L 309.615823 268.637359 
z
" style="fill:#1f77b4;"/>
   </g>
   <g id="patch_81">
    <path clip-path="url(#p903eceac25)" d="M 312.335644 307.584 
L 315.055466 307.584 
L 315.055466 259.050493 
L 312.335644 259.050493 
z
" style="fill:#1f77b4;"/>
   </g>
   <g id="patch_82">
    <path clip-path="url(#p903eceac25)" d="M 315.055473 307.584 
L 317.775287 307.584 
L 317.775287 259.050355 
L 315.055473 259.050355 
z
" style="fill:#1f77b4;"/>
   </g>
   <g id="patch_83">
    <path clip-path="url(#p903eceac25)" d="M 317.775279 307.584 
L 320.495101 307.584 
L 320.495101 264.443105 
L 317.775279 264.443105 
z
" style="fill:#1f77b4;"/>
   </g>
   <g id="patch_84">
    <path clip-path="url(#p903eceac25)" d="M 320.495101 307.584 
L 323.214922 307.584 
L 323.214922 263.843926 
L 320.495101 263.843926 
z
" style="fill:#1f77b4;"/>
   </g>
   <g id="patch_85">
    <path clip-path="url(#p903eceac25)" d="M 323.214922 307.584 
L 325.934744 307.584 
L 325.934744 260.84803 
L 323.214922 260.84803 
z
" style="fill:#1f77b4;"/>
   </g>
   <g id="patch_86">
    <path clip-path="url(#p903eceac25)" d="M 325.934744 307.584 
L 328.654565 307.584 
L 328.654565 275.827508 
L 325.934744 275.827508 
z
" style="fill:#1f77b4;"/>
   </g>
   <g id="patch_87">
    <path clip-path="url(#p903eceac25)" d="M 328.654565 307.584 
L 331.374379 307.584 
L 331.374379 271.633152 
L 328.654565 271.633152 
z
" style="fill:#1f77b4;"/>
   </g>
   <g id="patch_88">
    <path clip-path="url(#p903eceac25)" d="M 331.374379 307.584 
L 334.0942 307.584 
L 334.0942 275.827508 
L 331.374379 275.827508 
z
" style="fill:#1f77b4;"/>
   </g>
   <g id="patch_89">
    <path clip-path="url(#p903eceac25)" d="M 334.0942 307.584 
L 336.814021 307.584 
L 336.814021 279.422582 
L 334.0942 279.422582 
z
" style="fill:#1f77b4;"/>
   </g>
   <g id="patch_90">
    <path clip-path="url(#p903eceac25)" d="M 336.814021 307.584 
L 339.533843 307.584 
L 339.533843 286.013552 
L 336.814021 286.013552 
z
" style="fill:#1f77b4;"/>
   </g>
   <g id="patch_91">
    <path clip-path="url(#p903eceac25)" d="M 339.53385 307.584 
L 342.253664 307.584 
L 342.253664 293.203661 
L 339.53385 293.203661 
z
" style="fill:#1f77b4;"/>
   </g>
   <g id="patch_92">
    <path clip-path="url(#p903eceac25)" d="M 342.253656 307.584 
L 344.973478 307.584 
L 344.973478 290.806985 
L 342.253656 290.806985 
z
" style="fill:#1f77b4;"/>
   </g>
   <g id="patch_93">
    <path clip-path="url(#p903eceac25)" d="M 344.973478 307.584 
L 347.693299 307.584 
L 347.693299 293.802881 
L 344.973478 293.802881 
z
" style="fill:#1f77b4;"/>
   </g>
   <g id="patch_94">
    <path clip-path="url(#p903eceac25)" d="M 347.693299 307.584 
L 350.41312 307.584 
L 350.41312 299.195493 
L 347.693299 299.195493 
z
" style="fill:#1f77b4;"/>
   </g>
   <g id="patch_95">
    <path clip-path="url(#p903eceac25)" d="M 350.41312 307.584 
L 353.132942 307.584 
L 353.132942 293.203702 
L 350.41312 293.203702 
z
" style="fill:#1f77b4;"/>
   </g>
   <g id="patch_96">
    <path clip-path="url(#p903eceac25)" d="M 353.132942 307.584 
L 355.852755 307.584 
L 355.852755 299.79465 
L 353.132942 299.79465 
z
" style="fill:#1f77b4;"/>
   </g>
   <g id="patch_97">
    <path clip-path="url(#p903eceac25)" d="M 355.852755 307.584 
L 358.572577 307.584 
L 358.572577 300.99303 
L 355.852755 300.99303 
z
" style="fill:#1f77b4;"/>
   </g>
   <g id="patch_98">
    <path clip-path="url(#p903eceac25)" d="M 358.572577 307.584 
L 361.292398 307.584 
L 361.292398 303.389746 
L 358.572577 303.389746 
z
" style="fill:#1f77b4;"/>
   </g>
   <g id="patch_99">
    <path clip-path="url(#p903eceac25)" d="M 361.292398 307.584 
L 364.01222 307.584 
L 364.01222 303.988925 
L 361.292398 303.988925 
z
" style="fill:#1f77b4;"/>
   </g>
   <g id="patch_100">
    <path clip-path="url(#p903eceac25)" d="M 364.012227 307.584 
L 366.732033 307.584 
L 366.732033 302.790554 
L 364.012227 302.790554 
z
" style="fill:#1f77b4;"/>
   </g>
   <g id="patch_101">
    <path clip-path="url(#p903eceac25)" d="M 366.732033 307.584 
L 369.451855 307.584 
L 369.451855 306.984821 
L 366.732033 306.984821 
z
" style="fill:#1f77b4;"/>
   </g>
   <g id="patch_102">
    <path clip-path="url(#p903eceac25)" d="M 369.451839 307.584 
L 372.171661 307.584 
L 372.171661 302.790567 
L 369.451839 302.790567 
z
" style="fill:#1f77b4;"/>
   </g>
   <g id="matplotlib.axis_1">
    <g id="xtick_1">
     <g id="line2d_1">
      <defs>
       <path d="M 0 0 
L 0 3.5 
" id="m7e2d34d104" style="stroke:#000000;stroke-width:0.8;"/>
      </defs>
      <g>
       <use style="stroke:#000000;stroke-width:0.8;" x="106.300346" xlink:href="#m7e2d34d104" y="307.584"/>
      </g>
     </g>
     <g id="text_1">
      <!-- −2 -->
      <defs>
       <path d="M 10.59375 35.5 
L 73.1875 35.5 
L 73.1875 27.203125 
L 10.59375 27.203125 
z
" id="DejaVuSans-8722"/>
       <path d="M 19.1875 8.296875 
L 53.609375 8.296875 
L 53.609375 0 
L 7.328125 0 
L 7.328125 8.296875 
Q 12.9375 14.109375 22.625 23.890625 
Q 32.328125 33.6875 34.8125 36.53125 
Q 39.546875 41.84375 41.421875 45.53125 
Q 43.3125 49.21875 43.3125 52.78125 
Q 43.3125 58.59375 39.234375 62.25 
Q 35.15625 65.921875 28.609375 65.921875 
Q 23.96875 65.921875 18.8125 64.3125 
Q 13.671875 62.703125 7.8125 59.421875 
L 7.8125 69.390625 
Q 13.765625 71.78125 18.9375 73 
Q 24.125 74.21875 28.421875 74.21875 
Q 39.75 74.21875 46.484375 68.546875 
Q 53.21875 62.890625 53.21875 53.421875 
Q 53.21875 48.921875 51.53125 44.890625 
Q 49.859375 40.875 45.40625 35.40625 
Q 44.1875 33.984375 37.640625 27.21875 
Q 31.109375 20.453125 19.1875 8.296875 
z
" id="DejaVuSans-50"/>
      </defs>
      <g transform="translate(93.769487 327.501344)scale(0.17 -0.17)">
       <use xlink:href="#DejaVuSans-8722"/>
       <use x="83.789062" xlink:href="#DejaVuSans-50"/>
      </g>
     </g>
    </g>
    <g id="xtick_2">
     <g id="line2d_2">
      <g>
       <use style="stroke:#000000;stroke-width:0.8;" x="171.235584" xlink:href="#m7e2d34d104" y="307.584"/>
      </g>
     </g>
     <g id="text_2">
      <!-- −1 -->
      <defs>
       <path d="M 12.40625 8.296875 
L 28.515625 8.296875 
L 28.515625 63.921875 
L 10.984375 60.40625 
L 10.984375 69.390625 
L 28.421875 72.90625 
L 38.28125 72.90625 
L 38.28125 8.296875 
L 54.390625 8.296875 
L 54.390625 0 
L 12.40625 0 
z
" id="DejaVuSans-49"/>
      </defs>
      <g transform="translate(158.704725 327.501344)scale(0.17 -0.17)">
       <use xlink:href="#DejaVuSans-8722"/>
       <use x="83.789062" xlink:href="#DejaVuSans-49"/>
      </g>
     </g>
    </g>
    <g id="xtick_3">
     <g id="line2d_3">
      <g>
       <use style="stroke:#000000;stroke-width:0.8;" x="236.170823" xlink:href="#m7e2d34d104" y="307.584"/>
      </g>
     </g>
     <g id="text_3">
      <!-- 0 -->
      <defs>
       <path d="M 31.78125 66.40625 
Q 24.171875 66.40625 20.328125 58.90625 
Q 16.5 51.421875 16.5 36.375 
Q 16.5 21.390625 20.328125 13.890625 
Q 24.171875 6.390625 31.78125 6.390625 
Q 39.453125 6.390625 43.28125 13.890625 
Q 47.125 21.390625 47.125 36.375 
Q 47.125 51.421875 43.28125 58.90625 
Q 39.453125 66.40625 31.78125 66.40625 
z
M 31.78125 74.21875 
Q 44.046875 74.21875 50.515625 64.515625 
Q 56.984375 54.828125 56.984375 36.375 
Q 56.984375 17.96875 50.515625 8.265625 
Q 44.046875 -1.421875 31.78125 -1.421875 
Q 19.53125 -1.421875 13.0625 8.265625 
Q 6.59375 17.96875 6.59375 36.375 
Q 6.59375 54.828125 13.0625 64.515625 
Q 19.53125 74.21875 31.78125 74.21875 
z
" id="DejaVuSans-48"/>
      </defs>
      <g transform="translate(230.762698 327.501344)scale(0.17 -0.17)">
       <use xlink:href="#DejaVuSans-48"/>
      </g>
     </g>
    </g>
    <g id="xtick_4">
     <g id="line2d_4">
      <g>
       <use style="stroke:#000000;stroke-width:0.8;" x="301.106061" xlink:href="#m7e2d34d104" y="307.584"/>
      </g>
     </g>
     <g id="text_4">
      <!-- 1 -->
      <g transform="translate(295.697936 327.501344)scale(0.17 -0.17)">
       <use xlink:href="#DejaVuSans-49"/>
      </g>
     </g>
    </g>
    <g id="xtick_5">
     <g id="line2d_5">
      <g>
       <use style="stroke:#000000;stroke-width:0.8;" x="366.041299" xlink:href="#m7e2d34d104" y="307.584"/>
      </g>
     </g>
     <g id="text_5">
      <!-- 2 -->
      <g transform="translate(360.633174 327.501344)scale(0.17 -0.17)">
       <use xlink:href="#DejaVuSans-50"/>
      </g>
     </g>
    </g>
    <g id="text_6">
     <!-- Position in Radian -->
     <defs>
      <path d="M 19.671875 64.796875 
L 19.671875 37.40625 
L 32.078125 37.40625 
Q 38.96875 37.40625 42.71875 40.96875 
Q 46.484375 44.53125 46.484375 51.125 
Q 46.484375 57.671875 42.71875 61.234375 
Q 38.96875 64.796875 32.078125 64.796875 
z
M 9.8125 72.90625 
L 32.078125 72.90625 
Q 44.34375 72.90625 50.609375 67.359375 
Q 56.890625 61.8125 56.890625 51.125 
Q 56.890625 40.328125 50.609375 34.8125 
Q 44.34375 29.296875 32.078125 29.296875 
L 19.671875 29.296875 
L 19.671875 0 
L 9.8125 0 
z
" id="DejaVuSans-80"/>
      <path d="M 30.609375 48.390625 
Q 23.390625 48.390625 19.1875 42.75 
Q 14.984375 37.109375 14.984375 27.296875 
Q 14.984375 17.484375 19.15625 11.84375 
Q 23.34375 6.203125 30.609375 6.203125 
Q 37.796875 6.203125 41.984375 11.859375 
Q 46.1875 17.53125 46.1875 27.296875 
Q 46.1875 37.015625 41.984375 42.703125 
Q 37.796875 48.390625 30.609375 48.390625 
z
M 30.609375 56 
Q 42.328125 56 49.015625 48.375 
Q 55.71875 40.765625 55.71875 27.296875 
Q 55.71875 13.875 49.015625 6.21875 
Q 42.328125 -1.421875 30.609375 -1.421875 
Q 18.84375 -1.421875 12.171875 6.21875 
Q 5.515625 13.875 5.515625 27.296875 
Q 5.515625 40.765625 12.171875 48.375 
Q 18.84375 56 30.609375 56 
z
" id="DejaVuSans-111"/>
      <path d="M 44.28125 53.078125 
L 44.28125 44.578125 
Q 40.484375 46.53125 36.375 47.5 
Q 32.28125 48.484375 27.875 48.484375 
Q 21.1875 48.484375 17.84375 46.4375 
Q 14.5 44.390625 14.5 40.28125 
Q 14.5 37.15625 16.890625 35.375 
Q 19.28125 33.59375 26.515625 31.984375 
L 29.59375 31.296875 
Q 39.15625 29.25 43.1875 25.515625 
Q 47.21875 21.78125 47.21875 15.09375 
Q 47.21875 7.46875 41.1875 3.015625 
Q 35.15625 -1.421875 24.609375 -1.421875 
Q 20.21875 -1.421875 15.453125 -0.5625 
Q 10.6875 0.296875 5.421875 2 
L 5.421875 11.28125 
Q 10.40625 8.6875 15.234375 7.390625 
Q 20.0625 6.109375 24.8125 6.109375 
Q 31.15625 6.109375 34.5625 8.28125 
Q 37.984375 10.453125 37.984375 14.40625 
Q 37.984375 18.0625 35.515625 20.015625 
Q 33.0625 21.96875 24.703125 23.78125 
L 21.578125 24.515625 
Q 13.234375 26.265625 9.515625 29.90625 
Q 5.8125 33.546875 5.8125 39.890625 
Q 5.8125 47.609375 11.28125 51.796875 
Q 16.75 56 26.8125 56 
Q 31.78125 56 36.171875 55.265625 
Q 40.578125 54.546875 44.28125 53.078125 
z
" id="DejaVuSans-115"/>
      <path d="M 9.421875 54.6875 
L 18.40625 54.6875 
L 18.40625 0 
L 9.421875 0 
z
M 9.421875 75.984375 
L 18.40625 75.984375 
L 18.40625 64.59375 
L 9.421875 64.59375 
z
" id="DejaVuSans-105"/>
      <path d="M 18.3125 70.21875 
L 18.3125 54.6875 
L 36.8125 54.6875 
L 36.8125 47.703125 
L 18.3125 47.703125 
L 18.3125 18.015625 
Q 18.3125 11.328125 20.140625 9.421875 
Q 21.96875 7.515625 27.59375 7.515625 
L 36.8125 7.515625 
L 36.8125 0 
L 27.59375 0 
Q 17.1875 0 13.234375 3.875 
Q 9.28125 7.765625 9.28125 18.015625 
L 9.28125 47.703125 
L 2.6875 47.703125 
L 2.6875 54.6875 
L 9.28125 54.6875 
L 9.28125 70.21875 
z
" id="DejaVuSans-116"/>
      <path d="M 54.890625 33.015625 
L 54.890625 0 
L 45.90625 0 
L 45.90625 32.71875 
Q 45.90625 40.484375 42.875 44.328125 
Q 39.84375 48.1875 33.796875 48.1875 
Q 26.515625 48.1875 22.3125 43.546875 
Q 18.109375 38.921875 18.109375 30.90625 
L 18.109375 0 
L 9.078125 0 
L 9.078125 54.6875 
L 18.109375 54.6875 
L 18.109375 46.1875 
Q 21.34375 51.125 25.703125 53.5625 
Q 30.078125 56 35.796875 56 
Q 45.21875 56 50.046875 50.171875 
Q 54.890625 44.34375 54.890625 33.015625 
z
" id="DejaVuSans-110"/>
      <path id="DejaVuSans-32"/>
      <path d="M 44.390625 34.1875 
Q 47.5625 33.109375 50.5625 29.59375 
Q 53.5625 26.078125 56.59375 19.921875 
L 66.609375 0 
L 56 0 
L 46.6875 18.703125 
Q 43.0625 26.03125 39.671875 28.421875 
Q 36.28125 30.8125 30.421875 30.8125 
L 19.671875 30.8125 
L 19.671875 0 
L 9.8125 0 
L 9.8125 72.90625 
L 32.078125 72.90625 
Q 44.578125 72.90625 50.734375 67.671875 
Q 56.890625 62.453125 56.890625 51.90625 
Q 56.890625 45.015625 53.6875 40.46875 
Q 50.484375 35.9375 44.390625 34.1875 
z
M 19.671875 64.796875 
L 19.671875 38.921875 
L 32.078125 38.921875 
Q 39.203125 38.921875 42.84375 42.21875 
Q 46.484375 45.515625 46.484375 51.90625 
Q 46.484375 58.296875 42.84375 61.546875 
Q 39.203125 64.796875 32.078125 64.796875 
z
" id="DejaVuSans-82"/>
      <path d="M 34.28125 27.484375 
Q 23.390625 27.484375 19.1875 25 
Q 14.984375 22.515625 14.984375 16.5 
Q 14.984375 11.71875 18.140625 8.90625 
Q 21.296875 6.109375 26.703125 6.109375 
Q 34.1875 6.109375 38.703125 11.40625 
Q 43.21875 16.703125 43.21875 25.484375 
L 43.21875 27.484375 
z
M 52.203125 31.203125 
L 52.203125 0 
L 43.21875 0 
L 43.21875 8.296875 
Q 40.140625 3.328125 35.546875 0.953125 
Q 30.953125 -1.421875 24.3125 -1.421875 
Q 15.921875 -1.421875 10.953125 3.296875 
Q 6 8.015625 6 15.921875 
Q 6 25.140625 12.171875 29.828125 
Q 18.359375 34.515625 30.609375 34.515625 
L 43.21875 34.515625 
L 43.21875 35.40625 
Q 43.21875 41.609375 39.140625 45 
Q 35.0625 48.390625 27.6875 48.390625 
Q 23 48.390625 18.546875 47.265625 
Q 14.109375 46.140625 10.015625 43.890625 
L 10.015625 52.203125 
Q 14.9375 54.109375 19.578125 55.046875 
Q 24.21875 56 28.609375 56 
Q 40.484375 56 46.34375 49.84375 
Q 52.203125 43.703125 52.203125 31.203125 
z
" id="DejaVuSans-97"/>
      <path d="M 45.40625 46.390625 
L 45.40625 75.984375 
L 54.390625 75.984375 
L 54.390625 0 
L 45.40625 0 
L 45.40625 8.203125 
Q 42.578125 3.328125 38.25 0.953125 
Q 33.9375 -1.421875 27.875 -1.421875 
Q 17.96875 -1.421875 11.734375 6.484375 
Q 5.515625 14.40625 5.515625 27.296875 
Q 5.515625 40.1875 11.734375 48.09375 
Q 17.96875 56 27.875 56 
Q 33.9375 56 38.25 53.625 
Q 42.578125 51.265625 45.40625 46.390625 
z
M 14.796875 27.296875 
Q 14.796875 17.390625 18.875 11.75 
Q 22.953125 6.109375 30.078125 6.109375 
Q 37.203125 6.109375 41.296875 11.75 
Q 45.40625 17.390625 45.40625 27.296875 
Q 45.40625 37.203125 41.296875 42.84375 
Q 37.203125 48.484375 30.078125 48.484375 
Q 22.953125 48.484375 18.875 42.84375 
Q 14.796875 37.203125 14.796875 27.296875 
z
" id="DejaVuSans-100"/>
     </defs>
     <g transform="translate(102.024844 357.832125)scale(0.3 -0.3)">
      <use xlink:href="#DejaVuSans-80"/>
      <use x="60.255859" xlink:href="#DejaVuSans-111"/>
      <use x="121.4375" xlink:href="#DejaVuSans-115"/>
      <use x="173.537109" xlink:href="#DejaVuSans-105"/>
      <use x="201.320312" xlink:href="#DejaVuSans-116"/>
      <use x="240.529297" xlink:href="#DejaVuSans-105"/>
      <use x="268.3125" xlink:href="#DejaVuSans-111"/>
      <use x="329.494141" xlink:href="#DejaVuSans-110"/>
      <use x="392.873047" xlink:href="#DejaVuSans-32"/>
      <use x="424.660156" xlink:href="#DejaVuSans-105"/>
      <use x="452.443359" xlink:href="#DejaVuSans-110"/>
      <use x="515.822266" xlink:href="#DejaVuSans-32"/>
      <use x="547.609375" xlink:href="#DejaVuSans-82"/>
      <use x="617.060547" xlink:href="#DejaVuSans-97"/>
      <use x="678.339844" xlink:href="#DejaVuSans-100"/>
      <use x="741.816406" xlink:href="#DejaVuSans-105"/>
      <use x="769.599609" xlink:href="#DejaVuSans-97"/>
      <use x="830.878906" xlink:href="#DejaVuSans-110"/>
     </g>
    </g>
   </g>
   <g id="matplotlib.axis_2">
    <g id="ytick_1">
     <g id="line2d_6">
      <defs>
       <path d="M 0 0 
L -3.5 0 
" id="m038db2394f" style="stroke:#000000;stroke-width:0.8;"/>
      </defs>
      <g>
       <use style="stroke:#000000;stroke-width:0.8;" x="57.6" xlink:href="#m038db2394f" y="307.584"/>
      </g>
     </g>
     <g id="text_7">
      <!-- 0.00 -->
      <defs>
       <path d="M 10.6875 12.40625 
L 21 12.40625 
L 21 0 
L 10.6875 0 
z
" id="DejaVuSans-46"/>
      </defs>
      <g transform="translate(12.748438 314.042672)scale(0.17 -0.17)">
       <use xlink:href="#DejaVuSans-48"/>
       <use x="63.623047" xlink:href="#DejaVuSans-46"/>
       <use x="95.410156" xlink:href="#DejaVuSans-48"/>
       <use x="159.033203" xlink:href="#DejaVuSans-48"/>
      </g>
     </g>
    </g>
    <g id="ytick_2">
     <g id="line2d_7">
      <g>
       <use style="stroke:#000000;stroke-width:0.8;" x="57.6" xlink:href="#m038db2394f" y="260.527689"/>
      </g>
     </g>
     <g id="text_8">
      <!-- 0.25 -->
      <defs>
       <path d="M 10.796875 72.90625 
L 49.515625 72.90625 
L 49.515625 64.59375 
L 19.828125 64.59375 
L 19.828125 46.734375 
Q 21.96875 47.46875 24.109375 47.828125 
Q 26.265625 48.1875 28.421875 48.1875 
Q 40.625 48.1875 47.75 41.5 
Q 54.890625 34.8125 54.890625 23.390625 
Q 54.890625 11.625 47.5625 5.09375 
Q 40.234375 -1.421875 26.90625 -1.421875 
Q 22.3125 -1.421875 17.546875 -0.640625 
Q 12.796875 0.140625 7.71875 1.703125 
L 7.71875 11.625 
Q 12.109375 9.234375 16.796875 8.0625 
Q 21.484375 6.890625 26.703125 6.890625 
Q 35.15625 6.890625 40.078125 11.328125 
Q 45.015625 15.765625 45.015625 23.390625 
Q 45.015625 31 40.078125 35.4375 
Q 35.15625 39.890625 26.703125 39.890625 
Q 22.75 39.890625 18.8125 39.015625 
Q 14.890625 38.140625 10.796875 36.28125 
z
" id="DejaVuSans-53"/>
      </defs>
      <g transform="translate(12.748438 266.986361)scale(0.17 -0.17)">
       <use xlink:href="#DejaVuSans-48"/>
       <use x="63.623047" xlink:href="#DejaVuSans-46"/>
       <use x="95.410156" xlink:href="#DejaVuSans-50"/>
       <use x="159.033203" xlink:href="#DejaVuSans-53"/>
      </g>
     </g>
    </g>
    <g id="ytick_3">
     <g id="line2d_8">
      <g>
       <use style="stroke:#000000;stroke-width:0.8;" x="57.6" xlink:href="#m038db2394f" y="213.471379"/>
      </g>
     </g>
     <g id="text_9">
      <!-- 0.50 -->
      <g transform="translate(12.748438 219.930051)scale(0.17 -0.17)">
       <use xlink:href="#DejaVuSans-48"/>
       <use x="63.623047" xlink:href="#DejaVuSans-46"/>
       <use x="95.410156" xlink:href="#DejaVuSans-53"/>
       <use x="159.033203" xlink:href="#DejaVuSans-48"/>
      </g>
     </g>
    </g>
    <g id="ytick_4">
     <g id="line2d_9">
      <g>
       <use style="stroke:#000000;stroke-width:0.8;" x="57.6" xlink:href="#m038db2394f" y="166.415068"/>
      </g>
     </g>
     <g id="text_10">
      <!-- 0.75 -->
      <defs>
       <path d="M 8.203125 72.90625 
L 55.078125 72.90625 
L 55.078125 68.703125 
L 28.609375 0 
L 18.3125 0 
L 43.21875 64.59375 
L 8.203125 64.59375 
z
" id="DejaVuSans-55"/>
      </defs>
      <g transform="translate(12.748438 172.87374)scale(0.17 -0.17)">
       <use xlink:href="#DejaVuSans-48"/>
       <use x="63.623047" xlink:href="#DejaVuSans-46"/>
       <use x="95.410156" xlink:href="#DejaVuSans-55"/>
       <use x="159.033203" xlink:href="#DejaVuSans-53"/>
      </g>
     </g>
    </g>
    <g id="ytick_5">
     <g id="line2d_10">
      <g>
       <use style="stroke:#000000;stroke-width:0.8;" x="57.6" xlink:href="#m038db2394f" y="119.358758"/>
      </g>
     </g>
     <g id="text_11">
      <!-- 1.00 -->
      <g transform="translate(12.748438 125.81743)scale(0.17 -0.17)">
       <use xlink:href="#DejaVuSans-49"/>
       <use x="63.623047" xlink:href="#DejaVuSans-46"/>
       <use x="95.410156" xlink:href="#DejaVuSans-48"/>
       <use x="159.033203" xlink:href="#DejaVuSans-48"/>
      </g>
     </g>
    </g>
    <g id="ytick_6">
     <g id="line2d_11">
      <g>
       <use style="stroke:#000000;stroke-width:0.8;" x="57.6" xlink:href="#m038db2394f" y="72.302447"/>
      </g>
     </g>
     <g id="text_12">
      <!-- 1.25 -->
      <g transform="translate(12.748438 78.761119)scale(0.17 -0.17)">
       <use xlink:href="#DejaVuSans-49"/>
       <use x="63.623047" xlink:href="#DejaVuSans-46"/>
       <use x="95.410156" xlink:href="#DejaVuSans-50"/>
       <use x="159.033203" xlink:href="#DejaVuSans-53"/>
      </g>
     </g>
    </g>
    <g id="text_13">
     <!-- Density -->
     <defs>
      <path d="M 19.671875 64.796875 
L 19.671875 8.109375 
L 31.59375 8.109375 
Q 46.6875 8.109375 53.6875 14.9375 
Q 60.6875 21.78125 60.6875 36.53125 
Q 60.6875 51.171875 53.6875 57.984375 
Q 46.6875 64.796875 31.59375 64.796875 
z
M 9.8125 72.90625 
L 30.078125 72.90625 
Q 51.265625 72.90625 61.171875 64.09375 
Q 71.09375 55.28125 71.09375 36.53125 
Q 71.09375 17.671875 61.125 8.828125 
Q 51.171875 0 30.078125 0 
L 9.8125 0 
z
" id="DejaVuSans-68"/>
      <path d="M 56.203125 29.59375 
L 56.203125 25.203125 
L 14.890625 25.203125 
Q 15.484375 15.921875 20.484375 11.0625 
Q 25.484375 6.203125 34.421875 6.203125 
Q 39.59375 6.203125 44.453125 7.46875 
Q 49.3125 8.734375 54.109375 11.28125 
L 54.109375 2.78125 
Q 49.265625 0.734375 44.1875 -0.34375 
Q 39.109375 -1.421875 33.890625 -1.421875 
Q 20.796875 -1.421875 13.15625 6.1875 
Q 5.515625 13.8125 5.515625 26.8125 
Q 5.515625 40.234375 12.765625 48.109375 
Q 20.015625 56 32.328125 56 
Q 43.359375 56 49.78125 48.890625 
Q 56.203125 41.796875 56.203125 29.59375 
z
M 47.21875 32.234375 
Q 47.125 39.59375 43.09375 43.984375 
Q 39.0625 48.390625 32.421875 48.390625 
Q 24.90625 48.390625 20.390625 44.140625 
Q 15.875 39.890625 15.1875 32.171875 
z
" id="DejaVuSans-101"/>
      <path d="M 32.171875 -5.078125 
Q 28.375 -14.84375 24.75 -17.8125 
Q 21.140625 -20.796875 15.09375 -20.796875 
L 7.90625 -20.796875 
L 7.90625 -13.28125 
L 13.1875 -13.28125 
Q 16.890625 -13.28125 18.9375 -11.515625 
Q 21 -9.765625 23.484375 -3.21875 
L 25.09375 0.875 
L 2.984375 54.6875 
L 12.5 54.6875 
L 29.59375 11.921875 
L 46.6875 54.6875 
L 56.203125 54.6875 
z
" id="DejaVuSans-121"/>
     </defs>
     <g transform="translate(2.509375 231.553781)rotate(-90)scale(0.3 -0.3)">
      <use xlink:href="#DejaVuSans-68"/>
      <use x="77.001953" xlink:href="#DejaVuSans-101"/>
      <use x="138.525391" xlink:href="#DejaVuSans-110"/>
      <use x="201.904297" xlink:href="#DejaVuSans-115"/>
      <use x="254.003906" xlink:href="#DejaVuSans-105"/>
      <use x="281.787109" xlink:href="#DejaVuSans-116"/>
      <use x="320.996094" xlink:href="#DejaVuSans-121"/>
     </g>
    </g>
   </g>
   <g id="line2d_12">
    <path clip-path="url(#p903eceac25)" d="M 73.832727 307.584 
L 98.573053 307.479342 
L 98.941019 307.200411 
L 99.287341 306.60911 
L 100.304659 304.57677 
L 100.499465 304.722313 
L 100.845786 305.375925 
L 101.365268 306.241543 
L 101.689944 306.366085 
L 102.144491 306.246779 
L 102.577393 305.925727 
L 103.010294 305.262773 
L 103.551421 304.519304 
L 103.811162 304.501394 
L 104.092548 304.747929 
L 104.676965 305.669974 
L 105.196447 306.310437 
L 105.456188 306.334532 
L 105.694284 306.10035 
L 106.01896 305.397862 
L 107.3826 301.932883 
L 107.663986 301.91362 
L 108.248403 301.995217 
L 108.594725 301.675039 
L 108.941046 301.440279 
L 109.135852 301.57096 
L 109.395593 302.117268 
L 110.369621 304.567473 
L 110.694297 304.730848 
L 110.997329 304.65615 
L 111.30036 304.331651 
L 111.754906 303.429498 
L 112.685645 301.595982 
L 113.356642 300.709412 
L 113.832834 300.070009 
L 114.179155 299.136594 
L 114.828508 297.315348 
L 115.001668 297.292424 
L 115.174829 297.558052 
L 115.456215 298.52143 
L 116.776565 303.906091 
L 116.97137 303.931675 
L 117.187821 303.679331 
L 117.599078 302.739002 
L 118.421591 300.939316 
L 119.179169 299.272899 
L 119.785231 297.980151 
L 120.023327 297.886846 
L 120.239777 298.065487 
L 121.06229 298.995471 
L 121.278741 298.809225 
L 121.625063 298.138717 
L 122.534156 296.27608 
L 122.793897 296.161666 
L 122.988703 296.341097 
L 123.226798 296.949198 
L 123.61641 298.745942 
L 124.157537 301.01521 
L 124.352343 301.191632 
L 124.503858 301.037632 
L 124.741954 300.376083 
L 125.629402 297.505528 
L 125.845853 297.463179 
L 126.105594 297.715862 
L 126.581786 298.155096 
L 126.798236 298.069125 
L 127.122913 297.626444 
L 127.75062 296.788314 
L 128.876164 296.104411 
L 129.049325 296.349056 
L 129.287421 297.138242 
L 130.153224 300.459128 
L 130.304739 300.378721 
L 130.52119 299.905147 
L 131.581799 297.097977 
L 132.599118 295.906947 
L 132.793923 295.986154 
L 133.010374 296.387051 
L 133.313405 297.516613 
L 134.330724 301.791967 
L 134.52553 301.868133 
L 134.69869 301.677859 
L 134.958431 300.997249 
L 135.391333 299.108594 
L 136.01904 296.500732 
L 136.300426 296.110307 
L 136.516877 296.134739 
L 136.949779 296.51942 
L 137.42597 296.807984 
L 137.729002 296.756428 
L 138.053678 296.436897 
L 139.352383 294.471887 
L 139.763639 293.173342 
L 140.326411 291.543011 
L 140.542862 291.417592 
L 140.737668 291.587946 
L 141.040699 292.246235 
L 142.923821 297.1016 
L 143.378367 297.708569 
L 143.551528 297.674765 
L 143.746334 297.339039 
L 144.006075 296.306366 
L 144.352396 293.859509 
L 145.47794 284.928558 
L 145.586165 284.951188 
L 145.737681 285.388975 
L 145.997422 287.067189 
L 147.144611 295.728115 
L 147.361062 295.957271 
L 147.512577 295.75727 
L 147.750673 294.928326 
L 148.681412 291.132799 
L 148.854572 291.162995 
L 149.092668 291.540513 
L 149.590505 292.33622 
L 149.806956 292.330605 
L 150.499598 292.067038 
L 150.737694 292.427859 
L 151.084016 293.441834 
L 152.29614 297.462323 
L 152.447656 297.312391 
L 152.664106 296.711346 
L 153.097008 294.665894 
L 153.724715 291.997434 
L 154.135972 291.130608 
L 154.417358 290.939171 
L 154.612163 291.044415 
L 154.850259 291.486671 
L 155.261516 292.881613 
L 155.737708 294.235701 
L 155.975803 294.402971 
L 156.25719 294.287262 
L 156.603511 294.204663 
L 156.819962 294.407487 
L 157.122993 295.058954 
L 157.902216 296.892488 
L 158.097021 296.906187 
L 158.291827 296.646515 
L 158.594858 295.759604 
L 159.742047 291.857075 
L 159.915208 291.894501 
L 160.131659 292.240133 
L 160.802656 293.514491 
L 160.954172 293.394684 
L 161.170623 292.857052 
L 161.88491 290.79824 
L 162.036426 290.859228 
L 162.296167 291.305455 
L 162.642488 291.765741 
L 162.794003 291.686228 
L 163.010454 291.247246 
L 163.768032 289.44599 
L 164.200934 288.959741 
L 164.417384 288.12673 
L 164.69877 285.940407 
L 165.672799 277.106625 
L 165.759379 277.251167 
L 165.93254 278.20743 
L 166.235571 281.494598 
L 166.884923 288.534323 
L 167.123019 289.300734 
L 167.25289 289.254865 
L 167.42605 288.785914 
L 167.772372 286.989371 
L 168.638175 282.390929 
L 169.200947 280.699604 
L 169.633849 279.944226 
L 169.850299 279.876937 
L 170.02346 280.064167 
L 170.239911 280.684596 
L 170.542942 282.346081 
L 171.452035 287.90724 
L 171.560261 287.856507 
L 171.711776 287.390524 
L 171.971517 285.654891 
L 173.032126 277.355744 
L 173.226932 277.214173 
L 173.400092 277.457693 
L 174.330831 279.288347 
L 174.590572 279.209963 
L 174.915248 278.863539 
L 175.239924 278.187204 
L 175.586245 276.890282 
L 176.538629 272.739463 
L 176.560274 272.751413 
L 176.690144 273.012285 
L 176.906595 274.142141 
L 177.837334 280.096279 
L 177.945559 279.998707 
L 178.140365 279.41368 
L 178.897943 276.794705 
L 179.352489 275.820882 
L 179.677165 274.299138 
L 180.261583 271.58722 
L 180.391453 271.541438 
L 180.413098 271.563341 
L 180.564614 271.955915 
L 180.824355 273.494903 
L 181.646868 278.957183 
L 181.776738 279.001714 
L 181.798383 278.981715 
L 181.971544 278.596423 
L 182.491026 277.280085 
L 182.620896 277.495501 
L 182.837347 278.510919 
L 183.508344 282.063956 
L 183.61657 281.963059 
L 183.78973 281.285074 
L 184.157697 278.548218 
L 184.568953 276.078111 
L 184.763759 275.832102 
L 184.89363 275.999667 
L 185.196661 276.932672 
L 185.478047 277.509315 
L 185.586272 277.441921 
L 185.737788 276.99584 
L 185.997529 275.331172 
L 186.776751 269.689345 
L 186.928267 269.556889 
L 186.949912 269.569966 
L 187.101428 269.849299 
L 187.512684 271.373536 
L 187.79407 271.943725 
L 187.923941 271.870059 
L 188.097101 271.410334 
L 188.421777 269.700833 
L 188.941259 267.108454 
L 189.136065 266.932678 
L 189.287581 267.146435 
L 189.936933 268.64832 
L 190.001868 268.599614 
L 190.175029 268.200985 
L 190.56464 266.466674 
L 190.910962 265.396512 
L 191.062477 265.365679 
L 191.235638 265.654763 
L 191.993216 267.492019 
L 192.036506 267.467236 
L 192.209666 267.160977 
L 192.512697 266.014941 
L 193.400146 262.455998 
L 194.049498 260.768544 
L 194.330884 260.554235 
L 194.742141 260.380899 
L 194.936946 259.867143 
L 195.196687 258.358258 
L 195.607944 254.28085 
L 196.235651 248.389348 
L 196.560327 247.122491 
L 196.798423 246.875107 
L 196.993229 246.972869 
L 197.20968 247.388543 
L 197.469421 248.423842 
L 197.902322 251.331454 
L 198.313579 253.493017 
L 198.443449 253.611742 
L 198.465094 253.599296 
L 198.594965 253.337088 
L 198.833061 252.15868 
L 200.11012 243.258473 
L 200.932633 236.607242 
L 201.149084 236.26043 
L 201.278955 236.379119 
L 201.495405 236.976615 
L 201.949952 239.066711 
L 203.010561 243.984668 
L 203.313592 244.497596 
L 203.551688 244.523308 
L 204.11446 244.432905 
L 204.374201 244.436525 
L 204.525717 244.162782 
L 204.720522 243.175933 
L 204.980263 240.385865 
L 205.52139 231.080281 
L 205.911002 226.468294 
L 206.105807 225.918012 
L 206.192388 226.053467 
L 206.365548 226.918724 
L 206.71187 230.172857 
L 207.512737 237.752077 
L 207.945639 239.971366 
L 208.140445 240.239749 
L 208.24867 240.120172 
L 208.421831 239.505451 
L 208.724862 237.39838 
L 209.330924 233.172117 
L 209.52573 232.874058 
L 209.633955 233.004701 
L 209.828761 233.737578 
L 210.153437 236.078459 
L 211.06253 243.116019 
L 211.322271 243.693751 
L 211.495432 243.699437 
L 211.690238 243.412013 
L 211.993269 242.453721 
L 212.815782 239.474956 
L 212.924007 239.574761 
L 213.097168 240.141341 
L 213.443489 242.326417 
L 213.78981 244.001035 
L 213.876391 244.013624 
L 213.898036 243.981438 
L 214.027906 243.465961 
L 214.244357 241.346203 
L 214.633969 234.638589 
L 215.131805 227.107817 
L 215.369901 226.042455 
L 215.456482 226.104021 
L 215.607997 226.68475 
L 215.954318 229.256216 
L 216.30064 231.207611 
L 216.408865 231.288157 
L 216.43051 231.265527 
L 216.560381 230.850366 
L 216.776831 229.173634 
L 217.577699 221.914819 
L 217.685925 221.890926 
L 217.70757 221.91679 
L 217.88073 222.388152 
L 218.291987 223.514939 
L 218.400212 223.37571 
L 218.573373 222.616106 
L 218.898049 219.865246 
L 219.590692 214.093797 
L 220.110174 209.85095 
L 220.911042 202.682021 
L 221.105847 202.397024 
L 221.257363 202.560729 
L 221.668619 203.116632 
L 221.79849 202.905295 
L 222.014941 201.940995 
L 222.815809 197.560353 
L 222.924034 197.735264 
L 223.097195 198.579222 
L 223.400226 201.401803 
L 224.092868 207.965389 
L 224.266029 208.306867 
L 224.287674 208.300549 
L 224.395899 208.116104 
L 224.61235 207.11577 
L 225.304993 203.488551 
L 225.434863 203.496396 
L 225.586379 203.852953 
L 225.867765 205.237085 
L 226.885083 210.708847 
L 227.38292 212.230398 
L 227.599371 212.406109 
L 227.729242 212.237994 
L 227.924047 211.470387 
L 228.205433 209.14909 
L 229.157817 199.89396 
L 229.244397 199.945381 
L 229.374268 200.455329 
L 229.612363 202.562365 
L 230.391586 210.260766 
L 230.456522 210.266822 
L 230.478167 210.233317 
L 230.608037 209.639646 
L 230.802843 207.415242 
L 231.084229 201.310501 
L 231.625356 183.256038 
L 232.058257 172.322471 
L 232.296353 170.615186 
L 232.361289 170.675484 
L 232.491159 171.341425 
L 232.772545 174.424991 
L 233.789864 189.469889 
L 234.266056 195.640945 
L 234.352636 195.912979 
L 234.395926 195.871015 
L 234.504151 195.135597 
L 234.677312 191.605898 
L 234.893763 181.854233 
L 235.196794 155.94435 
L 236.192468 54.144 
L 236.214113 54.259345 
L 236.300693 56.323619 
L 236.473854 67.601075 
L 236.820175 109.237849 
L 237.447882 180.557489 
L 237.815849 199.585064 
L 238.11888 206.020633 
L 238.356976 207.64819 
L 238.465201 207.731539 
L 238.486846 207.709405 
L 238.616717 207.345389 
L 238.854812 205.858452 
L 239.244424 201.843332 
L 240.261743 190.358547 
L 240.326678 190.407912 
L 240.456548 191.051842 
L 240.672999 193.643846 
L 241.538802 205.985052 
L 241.603737 206.03559 
L 241.647028 205.989505 
L 241.776898 205.531654 
L 242.642701 201.528849 
L 242.902442 201.228701 
L 243.075603 200.530898 
L 243.313699 198.386646 
L 243.70331 192.157387 
L 244.179502 185.468219 
L 244.331017 184.930876 
L 244.352663 184.93454 
L 244.439243 185.146104 
L 244.612403 186.423178 
L 245.06695 192.354801 
L 245.369981 194.688439 
L 245.434917 194.731256 
L 245.478207 194.654299 
L 245.608077 193.904771 
L 245.824528 191.025144 
L 246.776911 176.068282 
L 246.863492 176.223919 
L 247.036652 177.348751 
L 247.989036 185.157384 
L 248.227132 185.381162 
L 248.876484 185.673319 
L 249.266096 186.213292 
L 249.569127 187.040161 
L 249.915448 188.734117 
L 250.889477 194.262181 
L 250.911122 194.257718 
L 251.019347 194.057177 
L 251.192508 193.063264 
L 251.452249 189.991693 
L 252.382987 177.16236 
L 252.447922 177.263987 
L 252.577793 178.117918 
L 252.794243 181.360816 
L 253.270435 193.082643 
L 253.703337 201.356123 
L 253.941433 202.857825 
L 254.028013 202.904066 
L 254.049658 202.882228 
L 254.201174 202.4489 
L 254.69901 200.746926 
L 254.807236 200.912722 
L 254.980397 201.775504 
L 255.305073 204.945027 
L 255.8462 210.004316 
L 256.105941 210.78408 
L 256.538842 211.463732 
L 256.755293 212.64412 
L 257.16655 216.534142 
L 257.556161 219.364986 
L 257.707677 219.581472 
L 257.729322 219.565855 
L 257.859192 219.242299 
L 258.097288 217.823457 
L 258.876511 212.644449 
L 259.092962 212.3728 
L 259.222832 212.493299 
L 259.439283 213.08618 
L 259.828894 214.957251 
L 260.586472 219.793029 
L 261.603791 226.920967 
L 261.690371 226.845789 
L 261.841887 226.211865 
L 262.079983 224.006971 
L 263.010721 214.044193 
L 263.118946 213.9586 
L 263.140591 213.975503 
L 263.270462 214.292909 
L 263.508558 215.630438 
L 264.482586 221.860368 
L 264.850553 222.716233 
L 265.175229 222.988359 
L 265.694711 223.280101 
L 265.911162 223.86623 
L 266.192548 225.44181 
L 266.71203 230.097986 
L 267.166576 233.295897 
L 267.469607 234.135856 
L 268.270475 235.391554 
L 268.768312 237.508919 
L 269.201214 238.888272 
L 269.417664 239.043106 
L 269.590825 238.891193 
L 269.828921 238.318931 
L 270.153597 236.903376 
L 271.0194 232.470075 
L 271.06269 232.493717 
L 271.192561 232.841884 
L 271.409012 234.311933 
L 272.231525 240.997207 
L 272.33975 240.953636 
L 272.512911 240.43672 
L 273.010748 238.773704 
L 273.118973 238.883559 
L 273.292134 239.52989 
L 274.006421 242.956481 
L 274.028066 242.94354 
L 274.157937 242.669894 
L 274.439323 241.301398 
L 274.828934 239.694136 
L 275.002095 239.579051 
L 275.175256 239.757031 
L 275.651447 240.298516 
L 276.062704 240.493739 
L 276.25751 241.062034 
L 276.51725 242.650508 
L 277.015087 247.52477 
L 277.534569 251.748496 
L 277.729375 252.198075 
L 277.75102 252.192113 
L 277.859245 251.976957 
L 278.032406 250.963838 
L 278.313792 247.697012 
L 279.093015 237.894665 
L 279.24453 237.618207 
L 279.266176 237.635027 
L 279.396046 238.001665 
L 279.634142 239.586561 
L 280.586525 246.705566 
L 281.430684 250.47377 
L 281.603844 250.573839 
L 281.75536 250.299068 
L 282.015101 249.206665 
L 282.556228 246.922064 
L 282.751033 246.782417 
L 282.902549 246.960449 
L 283.16229 247.69445 
L 283.746707 250.214589 
L 284.958831 255.578886 
L 285.240217 255.809702 
L 285.543249 256.049812 
L 285.781344 256.636351 
L 286.106021 258.170241 
L 287.664466 266.651434 
L 287.815982 266.695933 
L 287.967497 266.440519 
L 288.205593 265.487938 
L 289.309492 260.223688 
L 289.525943 260.152758 
L 289.764039 260.371127 
L 290.240231 261.221638 
L 291.365775 263.207368 
L 291.690451 263.476952 
L 291.885257 263.384938 
L 292.123353 262.942715 
L 292.924221 261.110479 
L 293.097381 261.255264 
L 293.357122 261.858567 
L 294.222925 264.73577 
L 294.699117 267.226862 
L 295.326824 270.30765 
L 295.651501 270.982445 
L 295.846306 271.036046 
L 296.019467 270.824657 
L 296.235918 270.143917 
L 296.538949 268.307601 
L 297.058431 263.373244 
L 297.577913 259.213993 
L 297.794364 258.681732 
L 297.902589 258.777621 
L 298.054104 259.333625 
L 298.313845 261.357791 
L 298.833327 267.824604 
L 299.309519 272.646554 
L 299.590905 273.757161 
L 299.807356 273.905028 
L 300.478353 273.880577 
L 300.694804 273.862082 
L 300.867965 273.539801 
L 301.084416 272.545706 
L 301.452382 269.507261 
L 302.036799 265.009685 
L 302.29654 264.341689 
L 302.469701 264.333245 
L 302.686151 264.644266 
L 303.248924 265.546797 
L 303.378794 265.430549 
L 303.551955 264.904863 
L 303.811696 263.221914 
L 304.309532 257.995587 
L 304.785724 253.999022 
L 305.088755 252.976999 
L 305.305206 252.816951 
L 305.500012 252.954353 
L 305.759753 253.47253 
L 306.149364 254.834429 
L 309.11474 267.509301 
L 309.829028 271.445845 
L 310.175349 272.359467 
L 310.3918 272.487848 
L 310.56496 272.329475 
L 310.803056 271.726357 
L 311.127732 270.189734 
L 312.253277 264.087393 
L 312.404792 264.127589 
L 312.880984 264.518564 
L 312.902629 264.494827 
L 313.054144 264.121037 
L 313.270595 262.880094 
L 313.660207 258.946625 
L 314.201334 253.976379 
L 314.461075 253.178636 
L 314.634235 253.146153 
L 314.915621 253.449961 
L 315.564974 254.434705 
L 315.84636 255.66688 
L 316.279261 258.814586 
L 317.318225 268.315969 
L 317.751127 271.486821 
L 317.924287 271.78518 
L 317.945932 271.768764 
L 318.054158 271.496683 
L 318.248964 270.21825 
L 318.595285 266.010013 
L 319.244637 258.177579 
L 319.504378 257.073859 
L 319.612604 257.025179 
L 319.634249 257.042429 
L 319.785764 257.3912 
L 320.045505 258.712148 
L 320.759793 262.590186 
L 320.997889 262.870414 
L 321.214339 262.771588 
L 321.690531 262.488979 
L 321.993562 262.630228 
L 322.426464 262.802459 
L 322.66456 262.630948 
L 323.487073 261.777454 
L 323.746814 262.046434 
L 324.15807 262.445687 
L 324.331231 262.314828 
L 324.569327 261.76818 
L 325.067164 260.581195 
L 325.197034 260.671576 
L 325.370195 261.221204 
L 325.651581 263.115811 
L 326.950285 273.39476 
L 327.881024 277.767238 
L 328.010894 277.809029 
L 328.032539 277.7888 
L 328.184055 277.428808 
L 328.443796 276.076084 
L 329.006568 273.148123 
L 329.179729 273.01759 
L 329.331244 273.196489 
L 329.894016 274.029658 
L 330.088822 273.87354 
L 330.435143 273.604684 
L 330.586659 273.821939 
L 330.781464 274.59878 
L 331.106141 277.038301 
L 331.712203 281.583643 
L 331.863718 281.804002 
L 331.885364 281.790545 
L 331.993589 281.549739 
L 332.188395 280.413268 
L 332.534716 276.74351 
L 333.119133 270.888016 
L 333.335584 270.302931 
L 333.443809 270.40662 
L 333.61697 271.035004 
L 334.049871 273.81527 
L 334.482773 275.885786 
L 334.89403 276.738868 
L 335.218706 277.612526 
L 336.236024 280.953799 
L 336.777151 281.241394 
L 336.993602 281.956168 
L 337.361569 284.137789 
L 337.859405 286.741717 
L 338.097501 287.102098 
L 338.313952 287.069005 
L 338.595338 287.05451 
L 338.790144 287.344889 
L 339.093175 288.345134 
L 339.612657 289.982823 
L 339.850753 290.117264 
L 340.370235 290.125301 
L 340.586685 290.612389 
L 340.933007 292.115949 
L 341.71223 295.622505 
L 341.950325 295.939781 
L 342.101841 295.843817 
L 342.296647 295.371529 
L 342.664613 293.715619 
L 343.16245 291.719836 
L 343.422191 291.412207 
L 343.660287 291.463693 
L 344.093188 291.569426 
L 344.417864 291.333803 
L 344.785831 291.131459 
L 344.980637 291.263589 
L 345.240377 291.757161 
L 345.997955 293.365931 
L 346.214406 293.344143 
L 346.907049 293.012659 
L 347.101854 293.431967 
L 347.404885 294.722344 
L 348.249044 298.600162 
L 348.487139 298.860839 
L 348.681945 298.780321 
L 349.006621 298.304293 
L 349.504458 297.656128 
L 349.89407 297.545078 
L 350.197101 297.375155 
L 350.521777 296.864694 
L 351.149484 295.827398 
L 351.971997 295.087828 
L 352.8378 293.36418 
L 353.010961 293.538785 
L 353.270702 294.227047 
L 353.725249 296.205599 
L 354.872438 301.42546 
L 355.067244 301.51923 
L 355.240404 301.326486 
L 356.106207 300.000142 
L 356.365948 300.200069 
L 357.231751 301.03152 
L 357.816169 301.418451 
L 358.270715 302.105404 
L 358.811842 302.808347 
L 359.244744 302.971148 
L 359.829161 303.226985 
L 360.651674 303.596598 
L 361.127866 303.89186 
L 362.231765 304.785518 
L 362.469861 304.592393 
L 362.837827 303.945724 
L 363.378954 303.088165 
L 363.70363 302.9811 
L 364.136532 302.854596 
L 364.461208 302.427186 
L 365.002335 301.725502 
L 365.197141 301.791337 
L 365.435237 302.169284 
L 365.911428 303.488138 
L 366.647361 305.346283 
L 367.123553 306.015303 
L 367.599744 306.292522 
L 368.487193 306.554392 
L 368.746934 306.349946 
L 369.1149 305.706282 
L 369.829188 304.429017 
L 370.110574 304.337491 
L 370.39196 304.503076 
L 371.019667 304.936962 
L 371.236118 304.770492 
L 371.582439 304.129709 
L 371.972051 303.550014 
L 372.145211 303.59244 
L 372.340017 303.918606 
L 372.707983 305.098825 
L 373.314045 306.915849 
L 373.682012 307.385152 
L 374.093268 307.548641 
L 375.024007 307.583835 
L 398.487273 307.584 
L 398.487273 307.584 
" style="fill:none;stroke:#ff7f0e;stroke-linecap:square;stroke-width:1.5;"/>
   </g>
   <g id="patch_103">
    <path d="M 57.6 307.584 
L 57.6 41.472 
" style="fill:none;stroke:#000000;stroke-linecap:square;stroke-linejoin:miter;stroke-width:0.8;"/>
   </g>
   <g id="patch_104">
    <path d="M 414.72 307.584 
L 414.72 41.472 
" style="fill:none;stroke:#000000;stroke-linecap:square;stroke-linejoin:miter;stroke-width:0.8;"/>
   </g>
   <g id="patch_105">
    <path d="M 57.6 307.584 
L 414.72 307.584 
" style="fill:none;stroke:#000000;stroke-linecap:square;stroke-linejoin:miter;stroke-width:0.8;"/>
   </g>
   <g id="patch_106">
    <path d="M 57.6 41.472 
L 414.72 41.472 
" style="fill:none;stroke:#000000;stroke-linecap:square;stroke-linejoin:miter;stroke-width:0.8;"/>
   </g>
  </g>
 </g>
 <defs>
  <clipPath id="p903eceac25">
   <rect height="266.112" width="357.12" x="57.6" y="41.472"/>
  </clipPath>
 </defs>
</svg>
