<?xml version="1.0" encoding="utf-8" standalone="no"?>
<!DOCTYPE svg PUBLIC "-//W3C//DTD SVG 1.1//EN"
  "http://www.w3.org/Graphics/SVG/1.1/DTD/svg11.dtd">
<!-- Created with matplotlib (https://matplotlib.org/) -->
<svg height="345.6pt" version="1.1" viewBox="0 0 460.8 345.6" width="460.8pt" xmlns="http://www.w3.org/2000/svg" xmlns:xlink="http://www.w3.org/1999/xlink">
 <defs>
  <style type="text/css">
*{stroke-linecap:butt;stroke-linejoin:round;}
  </style>
 </defs>
 <g id="figure_1">
  <g id="patch_1">
   <path d="M 0 345.6 
L 460.8 345.6 
L 460.8 0 
L 0 0 
z
" style="fill:#ffffff;"/>
  </g>
  <g id="axes_1">
   <g id="patch_2">
    <path d="M 57.6 307.584 
L 414.72 307.584 
L 414.72 41.472 
L 57.6 41.472 
z
" style="fill:#ffffff;"/>
   </g>
   <g id="patch_3">
    <path clip-path="url(#pd32c232e33)" d="M 73.832727 307.584 
L 77.002792 307.584 
L 77.002792 306.853504 
L 73.832727 306.853504 
z
" style="fill:#1f77b4;"/>
   </g>
   <g id="patch_4">
    <path clip-path="url(#pd32c232e33)" d="M 77.002807 307.584 
L 80.172872 307.584 
L 80.172872 306.853504 
L 77.002807 306.853504 
z
" style="fill:#1f77b4;"/>
   </g>
   <g id="patch_5">
    <path clip-path="url(#pd32c232e33)" d="M 80.172857 307.584 
L 83.342922 307.584 
L 83.342922 307.340501 
L 80.172857 307.340501 
z
" style="fill:#1f77b4;"/>
   </g>
   <g id="patch_6">
    <path clip-path="url(#pd32c232e33)" d="M 83.342937 307.584 
L 86.513001 307.584 
L 86.513001 307.340501 
L 83.342937 307.340501 
z
" style="fill:#1f77b4;"/>
   </g>
   <g id="patch_7">
    <path clip-path="url(#pd32c232e33)" d="M 86.512987 307.584 
L 89.683052 307.584 
L 89.683052 306.853504 
L 86.512987 306.853504 
z
" style="fill:#1f77b4;"/>
   </g>
   <g id="patch_8">
    <path clip-path="url(#pd32c232e33)" d="M 89.683066 307.584 
L 92.853131 307.584 
L 92.853131 305.879509 
L 89.683066 305.879509 
z
" style="fill:#1f77b4;"/>
   </g>
   <g id="patch_9">
    <path clip-path="url(#pd32c232e33)" d="M 92.853117 307.584 
L 96.023182 307.584 
L 96.023182 306.123008 
L 92.853117 306.123008 
z
" style="fill:#1f77b4;"/>
   </g>
   <g id="patch_10">
    <path clip-path="url(#pd32c232e33)" d="M 96.023196 307.584 
L 99.193261 307.584 
L 99.193261 306.123008 
L 96.023196 306.123008 
z
" style="fill:#1f77b4;"/>
   </g>
   <g id="patch_11">
    <path clip-path="url(#pd32c232e33)" d="M 99.193246 307.584 
L 102.363311 307.584 
L 102.363311 306.123008 
L 99.193246 306.123008 
z
" style="fill:#1f77b4;"/>
   </g>
   <g id="patch_12">
    <path clip-path="url(#pd32c232e33)" d="M 102.363326 307.584 
L 105.533391 307.584 
L 105.533391 305.149013 
L 102.363326 305.149013 
z
" style="fill:#1f77b4;"/>
   </g>
   <g id="patch_13">
    <path clip-path="url(#pd32c232e33)" d="M 105.533376 307.584 
L 108.703426 307.584 
L 108.703426 305.149002 
L 105.533376 305.149002 
z
" style="fill:#1f77b4;"/>
   </g>
   <g id="patch_14">
    <path clip-path="url(#pd32c232e33)" d="M 108.703426 307.584 
L 111.873491 307.584 
L 111.873491 301.98353 
L 108.703426 301.98353 
z
" style="fill:#1f77b4;"/>
   </g>
   <g id="patch_15">
    <path clip-path="url(#pd32c232e33)" d="M 111.873506 307.584 
L 115.043571 307.584 
L 115.043571 303.201023 
L 111.873506 303.201023 
z
" style="fill:#1f77b4;"/>
   </g>
   <g id="patch_16">
    <path clip-path="url(#pd32c232e33)" d="M 115.043556 307.584 
L 118.213621 307.584 
L 118.213621 301.740031 
L 115.043556 301.740031 
z
" style="fill:#1f77b4;"/>
   </g>
   <g id="patch_17">
    <path clip-path="url(#pd32c232e33)" d="M 118.213636 307.584 
L 121.383701 307.584 
L 121.383701 302.227028 
L 118.213636 302.227028 
z
" style="fill:#1f77b4;"/>
   </g>
   <g id="patch_18">
    <path clip-path="url(#pd32c232e33)" d="M 121.383686 307.584 
L 124.553751 307.584 
L 124.553751 303.444522 
L 121.383686 303.444522 
z
" style="fill:#1f77b4;"/>
   </g>
   <g id="patch_19">
    <path clip-path="url(#pd32c232e33)" d="M 124.553751 307.584 
L 127.723816 307.584 
L 127.723816 298.818046 
L 124.553751 298.818046 
z
" style="fill:#1f77b4;"/>
   </g>
   <g id="patch_20">
    <path clip-path="url(#pd32c232e33)" d="M 127.723816 307.584 
L 130.893881 307.584 
L 130.893881 301.009535 
L 127.723816 301.009535 
z
" style="fill:#1f77b4;"/>
   </g>
   <g id="patch_21">
    <path clip-path="url(#pd32c232e33)" d="M 130.893881 307.584 
L 134.063946 307.584 
L 134.063946 298.08755 
L 130.893881 298.08755 
z
" style="fill:#1f77b4;"/>
   </g>
   <g id="patch_22">
    <path clip-path="url(#pd32c232e33)" d="M 134.063946 307.584 
L 137.234011 307.584 
L 137.234011 295.165566 
L 134.063946 295.165566 
z
" style="fill:#1f77b4;"/>
   </g>
   <g id="patch_23">
    <path clip-path="url(#pd32c232e33)" d="M 137.234011 307.584 
L 140.404075 307.584 
L 140.404075 294.678568 
L 137.234011 294.678568 
z
" style="fill:#1f77b4;"/>
   </g>
   <g id="patch_24">
    <path clip-path="url(#pd32c232e33)" d="M 140.404075 307.584 
L 143.57414 307.584 
L 143.57414 293.704574 
L 140.404075 293.704574 
z
" style="fill:#1f77b4;"/>
   </g>
   <g id="patch_25">
    <path clip-path="url(#pd32c232e33)" d="M 143.57414 307.584 
L 146.744205 307.584 
L 146.744205 289.808594 
L 143.57414 289.808594 
z
" style="fill:#1f77b4;"/>
   </g>
   <g id="patch_26">
    <path clip-path="url(#pd32c232e33)" d="M 146.744205 307.584 
L 149.91427 307.584 
L 149.91427 293.461075 
L 146.744205 293.461075 
z
" style="fill:#1f77b4;"/>
   </g>
   <g id="patch_27">
    <path clip-path="url(#pd32c232e33)" d="M 149.91427 307.584 
L 153.084335 307.584 
L 153.084335 284.93862 
L 149.91427 284.93862 
z
" style="fill:#1f77b4;"/>
   </g>
   <g id="patch_28">
    <path clip-path="url(#pd32c232e33)" d="M 153.084335 307.584 
L 156.254393 307.584 
L 156.254393 285.182067 
L 153.084335 285.182067 
z
" style="fill:#1f77b4;"/>
   </g>
   <g id="patch_29">
    <path clip-path="url(#pd32c232e33)" d="M 156.254393 307.584 
L 159.424457 307.584 
L 159.424457 281.529638 
L 156.254393 281.529638 
z
" style="fill:#1f77b4;"/>
   </g>
   <g id="patch_30">
    <path clip-path="url(#pd32c232e33)" d="M 159.424457 307.584 
L 162.594522 307.584 
L 162.594522 284.451623 
L 159.424457 284.451623 
z
" style="fill:#1f77b4;"/>
   </g>
   <g id="patch_31">
    <path clip-path="url(#pd32c232e33)" d="M 162.594522 307.584 
L 165.764587 307.584 
L 165.764587 286.399612 
L 162.594522 286.399612 
z
" style="fill:#1f77b4;"/>
   </g>
   <g id="patch_32">
    <path clip-path="url(#pd32c232e33)" d="M 165.764587 307.584 
L 168.934652 307.584 
L 168.934652 278.364155 
L 165.764587 278.364155 
z
" style="fill:#1f77b4;"/>
   </g>
   <g id="patch_33">
    <path clip-path="url(#pd32c232e33)" d="M 168.934652 307.584 
L 172.104717 307.584 
L 172.104717 278.607653 
L 168.934652 278.607653 
z
" style="fill:#1f77b4;"/>
   </g>
   <g id="patch_34">
    <path clip-path="url(#pd32c232e33)" d="M 172.104717 307.584 
L 175.274782 307.584 
L 175.274782 281.042641 
L 172.104717 281.042641 
z
" style="fill:#1f77b4;"/>
   </g>
   <g id="patch_35">
    <path clip-path="url(#pd32c232e33)" d="M 175.274782 307.584 
L 178.444847 307.584 
L 178.444847 284.93862 
L 175.274782 284.93862 
z
" style="fill:#1f77b4;"/>
   </g>
   <g id="patch_36">
    <path clip-path="url(#pd32c232e33)" d="M 178.444847 307.584 
L 181.614912 307.584 
L 181.614912 280.312144 
L 178.444847 280.312144 
z
" style="fill:#1f77b4;"/>
   </g>
   <g id="patch_37">
    <path clip-path="url(#pd32c232e33)" d="M 181.614912 307.584 
L 184.784973 307.584 
L 184.784973 271.30265 
L 181.614912 271.30265 
z
" style="fill:#1f77b4;"/>
   </g>
   <g id="patch_38">
    <path clip-path="url(#pd32c232e33)" d="M 184.784973 307.584 
L 187.955038 307.584 
L 187.955038 266.189219 
L 184.784973 266.189219 
z
" style="fill:#1f77b4;"/>
   </g>
   <g id="patch_39">
    <path clip-path="url(#pd32c232e33)" d="M 187.955038 307.584 
L 191.125103 307.584 
L 191.125103 258.39726 
L 187.955038 258.39726 
z
" style="fill:#1f77b4;"/>
   </g>
   <g id="patch_40">
    <path clip-path="url(#pd32c232e33)" d="M 191.125099 307.584 
L 194.29516 307.584 
L 194.29516 259.614699 
L 191.125099 259.614699 
z
" style="fill:#1f77b4;"/>
   </g>
   <g id="patch_41">
    <path clip-path="url(#pd32c232e33)" d="M 194.295164 307.584 
L 197.465229 307.584 
L 197.465229 253.283788 
L 194.295164 253.283788 
z
" style="fill:#1f77b4;"/>
   </g>
   <g id="patch_42">
    <path clip-path="url(#pd32c232e33)" d="M 197.465229 307.584 
L 200.635294 307.584 
L 200.635294 237.212873 
L 197.465229 237.212873 
z
" style="fill:#1f77b4;"/>
   </g>
   <g id="patch_43">
    <path clip-path="url(#pd32c232e33)" d="M 200.635294 307.584 
L 203.805359 307.584 
L 203.805359 233.073395 
L 200.635294 233.073395 
z
" style="fill:#1f77b4;"/>
   </g>
   <g id="patch_44">
    <path clip-path="url(#pd32c232e33)" d="M 203.805359 307.584 
L 206.975424 307.584 
L 206.975424 240.134857 
L 203.805359 240.134857 
z
" style="fill:#1f77b4;"/>
   </g>
   <g id="patch_45">
    <path clip-path="url(#pd32c232e33)" d="M 206.975424 307.584 
L 210.145485 307.584 
L 210.145485 227.472832 
L 206.975424 227.472832 
z
" style="fill:#1f77b4;"/>
   </g>
   <g id="patch_46">
    <path clip-path="url(#pd32c232e33)" d="M 210.145485 307.584 
L 213.31555 307.584 
L 213.31555 235.75188 
L 210.145485 235.75188 
z
" style="fill:#1f77b4;"/>
   </g>
   <g id="patch_47">
    <path clip-path="url(#pd32c232e33)" d="M 213.31555 307.584 
L 216.485615 307.584 
L 216.485615 225.037937 
L 213.31555 225.037937 
z
" style="fill:#1f77b4;"/>
   </g>
   <g id="patch_48">
    <path clip-path="url(#pd32c232e33)" d="M 216.485615 307.584 
L 219.65568 307.584 
L 219.65568 225.037937 
L 216.485615 225.037937 
z
" style="fill:#1f77b4;"/>
   </g>
   <g id="patch_49">
    <path clip-path="url(#pd32c232e33)" d="M 219.65568 307.584 
L 222.825743 307.584 
L 222.825743 216.758929 
L 219.65568 216.758929 
z
" style="fill:#1f77b4;"/>
   </g>
   <g id="patch_50">
    <path clip-path="url(#pd32c232e33)" d="M 222.825743 307.584 
L 225.995807 307.584 
L 225.995807 224.307441 
L 222.825743 224.307441 
z
" style="fill:#1f77b4;"/>
   </g>
   <g id="patch_51">
    <path clip-path="url(#pd32c232e33)" d="M 225.995806 307.584 
L 229.165869 307.584 
L 229.165869 202.148997 
L 225.995806 202.148997 
z
" style="fill:#1f77b4;"/>
   </g>
   <g id="patch_52">
    <path clip-path="url(#pd32c232e33)" d="M 229.165871 307.584 
L 232.335935 307.584 
L 232.335935 202.879554 
L 229.165871 202.879554 
z
" style="fill:#1f77b4;"/>
   </g>
   <g id="patch_53">
    <path clip-path="url(#pd32c232e33)" d="M 232.335935 307.584 
L 235.505999 307.584 
L 235.505999 201.66203 
L 232.335935 201.66203 
z
" style="fill:#1f77b4;"/>
   </g>
   <g id="patch_54">
    <path clip-path="url(#pd32c232e33)" d="M 235.505999 307.584 
L 238.676064 307.584 
L 238.676064 188.026116 
L 235.505999 188.026116 
z
" style="fill:#1f77b4;"/>
   </g>
   <g id="patch_55">
    <path clip-path="url(#pd32c232e33)" d="M 238.676064 307.584 
L 241.846128 307.584 
L 241.846128 191.191583 
L 238.676064 191.191583 
z
" style="fill:#1f77b4;"/>
   </g>
   <g id="patch_56">
    <path clip-path="url(#pd32c232e33)" d="M 241.846128 307.584 
L 245.016192 307.584 
L 245.016192 125.933923 
L 241.846128 125.933923 
z
" style="fill:#1f77b4;"/>
   </g>
   <g id="patch_57">
    <path clip-path="url(#pd32c232e33)" d="M 245.016192 307.584 
L 248.186256 307.584 
L 248.186256 193.38308 
L 245.016192 193.38308 
z
" style="fill:#1f77b4;"/>
   </g>
   <g id="patch_58">
    <path clip-path="url(#pd32c232e33)" d="M 248.186256 307.584 
L 251.35632 307.584 
L 251.35632 195.331062 
L 248.186256 195.331062 
z
" style="fill:#1f77b4;"/>
   </g>
   <g id="patch_59">
    <path clip-path="url(#pd32c232e33)" d="M 251.35632 307.584 
L 254.526384 307.584 
L 254.526384 204.340517 
L 251.35632 204.340517 
z
" style="fill:#1f77b4;"/>
   </g>
   <g id="patch_60">
    <path clip-path="url(#pd32c232e33)" d="M 254.526384 307.584 
L 257.696449 307.584 
L 257.696449 209.45402 
L 254.526384 209.45402 
z
" style="fill:#1f77b4;"/>
   </g>
   <g id="patch_61">
    <path clip-path="url(#pd32c232e33)" d="M 257.696449 307.584 
L 260.866512 307.584 
L 260.866512 218.219922 
L 257.696449 218.219922 
z
" style="fill:#1f77b4;"/>
   </g>
   <g id="patch_62">
    <path clip-path="url(#pd32c232e33)" d="M 260.866512 307.584 
L 264.036577 307.584 
L 264.036577 235.508382 
L 260.866512 235.508382 
z
" style="fill:#1f77b4;"/>
   </g>
   <g id="patch_63">
    <path clip-path="url(#pd32c232e33)" d="M 264.036577 307.584 
L 267.206642 307.584 
L 267.206642 243.787338 
L 264.036577 243.787338 
z
" style="fill:#1f77b4;"/>
   </g>
   <g id="patch_64">
    <path clip-path="url(#pd32c232e33)" d="M 267.206642 307.584 
L 270.376705 307.584 
L 270.376705 243.056804 
L 267.206642 243.056804 
z
" style="fill:#1f77b4;"/>
   </g>
   <g id="patch_65">
    <path clip-path="url(#pd32c232e33)" d="M 270.376705 307.584 
L 273.54677 307.584 
L 273.54677 238.430366 
L 270.376705 238.430366 
z
" style="fill:#1f77b4;"/>
   </g>
   <g id="patch_66">
    <path clip-path="url(#pd32c232e33)" d="M 273.546768 307.584 
L 276.716829 307.584 
L 276.716829 244.274299 
L 273.546768 244.274299 
z
" style="fill:#1f77b4;"/>
   </g>
   <g id="patch_67">
    <path clip-path="url(#pd32c232e33)" d="M 276.716833 307.584 
L 279.886898 307.584 
L 279.886898 248.170315 
L 276.716833 248.170315 
z
" style="fill:#1f77b4;"/>
   </g>
   <g id="patch_68">
    <path clip-path="url(#pd32c232e33)" d="M 279.886898 307.584 
L 283.056963 307.584 
L 283.056963 254.501281 
L 279.886898 254.501281 
z
" style="fill:#1f77b4;"/>
   </g>
   <g id="patch_69">
    <path clip-path="url(#pd32c232e33)" d="M 283.056963 307.584 
L 286.227028 307.584 
L 286.227028 256.936268 
L 283.056963 256.936268 
z
" style="fill:#1f77b4;"/>
   </g>
   <g id="patch_70">
    <path clip-path="url(#pd32c232e33)" d="M 286.227024 307.584 
L 289.397085 307.584 
L 289.397085 257.666707 
L 286.227024 257.666707 
z
" style="fill:#1f77b4;"/>
   </g>
   <g id="patch_71">
    <path clip-path="url(#pd32c232e33)" d="M 289.397089 307.584 
L 292.567154 307.584 
L 292.567154 256.205772 
L 289.397089 256.205772 
z
" style="fill:#1f77b4;"/>
   </g>
   <g id="patch_72">
    <path clip-path="url(#pd32c232e33)" d="M 292.567154 307.584 
L 295.737219 307.584 
L 295.737219 262.049741 
L 292.567154 262.049741 
z
" style="fill:#1f77b4;"/>
   </g>
   <g id="patch_73">
    <path clip-path="url(#pd32c232e33)" d="M 295.737219 307.584 
L 298.907284 307.584 
L 298.907284 259.858253 
L 295.737219 259.858253 
z
" style="fill:#1f77b4;"/>
   </g>
   <g id="patch_74">
    <path clip-path="url(#pd32c232e33)" d="M 298.907284 307.584 
L 302.077349 307.584 
L 302.077349 257.910263 
L 298.907284 257.910263 
z
" style="fill:#1f77b4;"/>
   </g>
   <g id="patch_75">
    <path clip-path="url(#pd32c232e33)" d="M 302.077349 307.584 
L 305.24741 307.584 
L 305.24741 272.276646 
L 302.077349 272.276646 
z
" style="fill:#1f77b4;"/>
   </g>
   <g id="patch_76">
    <path clip-path="url(#pd32c232e33)" d="M 305.247413 307.584 
L 308.417486 307.584 
L 308.417486 278.364188 
L 305.247413 278.364188 
z
" style="fill:#1f77b4;"/>
   </g>
   <g id="patch_77">
    <path clip-path="url(#pd32c232e33)" d="M 308.417486 307.584 
L 311.587543 307.584 
L 311.587543 279.825083 
L 308.417486 279.825083 
z
" style="fill:#1f77b4;"/>
   </g>
   <g id="patch_78">
    <path clip-path="url(#pd32c232e33)" d="M 311.587536 307.584 
L 314.757601 307.584 
L 314.757601 273.250682 
L 311.587536 273.250682 
z
" style="fill:#1f77b4;"/>
   </g>
   <g id="patch_79">
    <path clip-path="url(#pd32c232e33)" d="M 314.757601 307.584 
L 317.927666 307.584 
L 317.927666 280.312144 
L 314.757601 280.312144 
z
" style="fill:#1f77b4;"/>
   </g>
   <g id="patch_80">
    <path clip-path="url(#pd32c232e33)" d="M 317.927666 307.584 
L 321.097731 307.584 
L 321.097731 283.477628 
L 317.927666 283.477628 
z
" style="fill:#1f77b4;"/>
   </g>
   <g id="patch_81">
    <path clip-path="url(#pd32c232e33)" d="M 321.097731 307.584 
L 324.267795 307.584 
L 324.267795 289.808594 
L 321.097731 289.808594 
z
" style="fill:#1f77b4;"/>
   </g>
   <g id="patch_82">
    <path clip-path="url(#pd32c232e33)" d="M 324.267795 307.584 
L 327.43786 307.584 
L 327.43786 291.513085 
L 324.267795 291.513085 
z
" style="fill:#1f77b4;"/>
   </g>
   <g id="patch_83">
    <path clip-path="url(#pd32c232e33)" d="M 327.43786 307.584 
L 330.607925 307.584 
L 330.607925 291.756584 
L 327.43786 291.756584 
z
" style="fill:#1f77b4;"/>
   </g>
   <g id="patch_84">
    <path clip-path="url(#pd32c232e33)" d="M 330.607925 307.584 
L 333.77799 307.584 
L 333.77799 290.782589 
L 330.607925 290.782589 
z
" style="fill:#1f77b4;"/>
   </g>
   <g id="patch_85">
    <path clip-path="url(#pd32c232e33)" d="M 333.77799 307.584 
L 336.948055 307.584 
L 336.948055 289.321597 
L 333.77799 289.321597 
z
" style="fill:#1f77b4;"/>
   </g>
   <g id="patch_86">
    <path clip-path="url(#pd32c232e33)" d="M 336.948055 307.584 
L 340.11812 307.584 
L 340.11812 294.43507 
L 336.948055 294.43507 
z
" style="fill:#1f77b4;"/>
   </g>
   <g id="patch_87">
    <path clip-path="url(#pd32c232e33)" d="M 340.11812 307.584 
L 343.288185 307.584 
L 343.288185 299.548543 
L 340.11812 299.548543 
z
" style="fill:#1f77b4;"/>
   </g>
   <g id="patch_88">
    <path clip-path="url(#pd32c232e33)" d="M 343.288185 307.584 
L 346.458242 307.584 
L 346.458242 296.626533 
L 343.288185 296.626533 
z
" style="fill:#1f77b4;"/>
   </g>
   <g id="patch_89">
    <path clip-path="url(#pd32c232e33)" d="M 346.458242 307.584 
L 349.628307 307.584 
L 349.628307 301.009535 
L 346.458242 301.009535 
z
" style="fill:#1f77b4;"/>
   </g>
   <g id="patch_90">
    <path clip-path="url(#pd32c232e33)" d="M 349.628307 307.584 
L 352.798372 307.584 
L 352.798372 299.061545 
L 349.628307 299.061545 
z
" style="fill:#1f77b4;"/>
   </g>
   <g id="patch_91">
    <path clip-path="url(#pd32c232e33)" d="M 352.798372 307.584 
L 355.968437 307.584 
L 355.968437 302.470527 
L 352.798372 302.470527 
z
" style="fill:#1f77b4;"/>
   </g>
   <g id="patch_92">
    <path clip-path="url(#pd32c232e33)" d="M 355.968437 307.584 
L 359.138502 307.584 
L 359.138502 303.201023 
L 355.968437 303.201023 
z
" style="fill:#1f77b4;"/>
   </g>
   <g id="patch_93">
    <path clip-path="url(#pd32c232e33)" d="M 359.138502 307.584 
L 362.308567 307.584 
L 362.308567 304.662015 
L 359.138502 304.662015 
z
" style="fill:#1f77b4;"/>
   </g>
   <g id="patch_94">
    <path clip-path="url(#pd32c232e33)" d="M 362.308567 307.584 
L 365.478632 307.584 
L 365.478632 303.201023 
L 362.308567 303.201023 
z
" style="fill:#1f77b4;"/>
   </g>
   <g id="patch_95">
    <path clip-path="url(#pd32c232e33)" d="M 365.478639 307.584 
L 368.648689 307.584 
L 368.648689 303.931511 
L 365.478639 303.931511 
z
" style="fill:#1f77b4;"/>
   </g>
   <g id="patch_96">
    <path clip-path="url(#pd32c232e33)" d="M 368.648689 307.584 
L 371.818754 307.584 
L 371.818754 303.688021 
L 368.648689 303.688021 
z
" style="fill:#1f77b4;"/>
   </g>
   <g id="patch_97">
    <path clip-path="url(#pd32c232e33)" d="M 371.818769 307.584 
L 374.988834 307.584 
L 374.988834 304.662015 
L 371.818769 304.662015 
z
" style="fill:#1f77b4;"/>
   </g>
   <g id="patch_98">
    <path clip-path="url(#pd32c232e33)" d="M 374.988819 307.584 
L 378.158884 307.584 
L 378.158884 305.392512 
L 374.988819 305.392512 
z
" style="fill:#1f77b4;"/>
   </g>
   <g id="patch_99">
    <path clip-path="url(#pd32c232e33)" d="M 378.158899 307.584 
L 381.328964 307.584 
L 381.328964 305.879509 
L 378.158899 305.879509 
z
" style="fill:#1f77b4;"/>
   </g>
   <g id="patch_100">
    <path clip-path="url(#pd32c232e33)" d="M 381.328949 307.584 
L 384.499014 307.584 
L 384.499014 306.853504 
L 381.328949 306.853504 
z
" style="fill:#1f77b4;"/>
   </g>
   <g id="patch_101">
    <path clip-path="url(#pd32c232e33)" d="M 384.499028 307.584 
L 387.669093 307.584 
L 387.669093 306.853504 
L 384.499028 306.853504 
z
" style="fill:#1f77b4;"/>
   </g>
   <g id="patch_102">
    <path clip-path="url(#pd32c232e33)" d="M 387.669079 307.584 
L 390.839144 307.584 
L 390.839144 306.366506 
L 387.669079 306.366506 
z
" style="fill:#1f77b4;"/>
   </g>
   <g id="matplotlib.axis_1">
    <g id="xtick_1">
     <g id="line2d_1">
      <defs>
       <path d="M 0 0 
L 0 3.5 
" id="me65d30a7ee" style="stroke:#000000;stroke-width:0.8;"/>
      </defs>
      <g>
       <use style="stroke:#000000;stroke-width:0.8;" x="60.76359" xlink:href="#me65d30a7ee" y="307.584"/>
      </g>
     </g>
     <g id="text_1">
      <!-- −3 -->
      <defs>
       <path d="M 10.59375 35.5 
L 73.1875 35.5 
L 73.1875 27.203125 
L 10.59375 27.203125 
z
" id="DejaVuSans-8722"/>
       <path d="M 40.578125 39.3125 
Q 47.65625 37.796875 51.625 33 
Q 55.609375 28.21875 55.609375 21.1875 
Q 55.609375 10.40625 48.1875 4.484375 
Q 40.765625 -1.421875 27.09375 -1.421875 
Q 22.515625 -1.421875 17.65625 -0.515625 
Q 12.796875 0.390625 7.625 2.203125 
L 7.625 11.71875 
Q 11.71875 9.328125 16.59375 8.109375 
Q 21.484375 6.890625 26.8125 6.890625 
Q 36.078125 6.890625 40.9375 10.546875 
Q 45.796875 14.203125 45.796875 21.1875 
Q 45.796875 27.640625 41.28125 31.265625 
Q 36.765625 34.90625 28.71875 34.90625 
L 20.21875 34.90625 
L 20.21875 43.015625 
L 29.109375 43.015625 
Q 36.375 43.015625 40.234375 45.921875 
Q 44.09375 48.828125 44.09375 54.296875 
Q 44.09375 59.90625 40.109375 62.90625 
Q 36.140625 65.921875 28.71875 65.921875 
Q 24.65625 65.921875 20.015625 65.03125 
Q 15.375 64.15625 9.8125 62.3125 
L 9.8125 71.09375 
Q 15.4375 72.65625 20.34375 73.4375 
Q 25.25 74.21875 29.59375 74.21875 
Q 40.828125 74.21875 47.359375 69.109375 
Q 53.90625 64.015625 53.90625 55.328125 
Q 53.90625 49.265625 50.4375 45.09375 
Q 46.96875 40.921875 40.578125 39.3125 
z
" id="DejaVuSans-51"/>
      </defs>
      <g transform="translate(48.232731 327.501344)scale(0.17 -0.17)">
       <use xlink:href="#DejaVuSans-8722"/>
       <use x="83.789062" xlink:href="#DejaVuSans-51"/>
      </g>
     </g>
    </g>
    <g id="xtick_2">
     <g id="line2d_2">
      <g>
       <use style="stroke:#000000;stroke-width:0.8;" x="122.169757" xlink:href="#me65d30a7ee" y="307.584"/>
      </g>
     </g>
     <g id="text_2">
      <!-- −2 -->
      <defs>
       <path d="M 19.1875 8.296875 
L 53.609375 8.296875 
L 53.609375 0 
L 7.328125 0 
L 7.328125 8.296875 
Q 12.9375 14.109375 22.625 23.890625 
Q 32.328125 33.6875 34.8125 36.53125 
Q 39.546875 41.84375 41.421875 45.53125 
Q 43.3125 49.21875 43.3125 52.78125 
Q 43.3125 58.59375 39.234375 62.25 
Q 35.15625 65.921875 28.609375 65.921875 
Q 23.96875 65.921875 18.8125 64.3125 
Q 13.671875 62.703125 7.8125 59.421875 
L 7.8125 69.390625 
Q 13.765625 71.78125 18.9375 73 
Q 24.125 74.21875 28.421875 74.21875 
Q 39.75 74.21875 46.484375 68.546875 
Q 53.21875 62.890625 53.21875 53.421875 
Q 53.21875 48.921875 51.53125 44.890625 
Q 49.859375 40.875 45.40625 35.40625 
Q 44.1875 33.984375 37.640625 27.21875 
Q 31.109375 20.453125 19.1875 8.296875 
z
" id="DejaVuSans-50"/>
      </defs>
      <g transform="translate(109.638897 327.501344)scale(0.17 -0.17)">
       <use xlink:href="#DejaVuSans-8722"/>
       <use x="83.789062" xlink:href="#DejaVuSans-50"/>
      </g>
     </g>
    </g>
    <g id="xtick_3">
     <g id="line2d_3">
      <g>
       <use style="stroke:#000000;stroke-width:0.8;" x="183.575924" xlink:href="#me65d30a7ee" y="307.584"/>
      </g>
     </g>
     <g id="text_3">
      <!-- −1 -->
      <defs>
       <path d="M 12.40625 8.296875 
L 28.515625 8.296875 
L 28.515625 63.921875 
L 10.984375 60.40625 
L 10.984375 69.390625 
L 28.421875 72.90625 
L 38.28125 72.90625 
L 38.28125 8.296875 
L 54.390625 8.296875 
L 54.390625 0 
L 12.40625 0 
z
" id="DejaVuSans-49"/>
      </defs>
      <g transform="translate(171.045064 327.501344)scale(0.17 -0.17)">
       <use xlink:href="#DejaVuSans-8722"/>
       <use x="83.789062" xlink:href="#DejaVuSans-49"/>
      </g>
     </g>
    </g>
    <g id="xtick_4">
     <g id="line2d_4">
      <g>
       <use style="stroke:#000000;stroke-width:0.8;" x="244.98209" xlink:href="#me65d30a7ee" y="307.584"/>
      </g>
     </g>
     <g id="text_4">
      <!-- 0 -->
      <defs>
       <path d="M 31.78125 66.40625 
Q 24.171875 66.40625 20.328125 58.90625 
Q 16.5 51.421875 16.5 36.375 
Q 16.5 21.390625 20.328125 13.890625 
Q 24.171875 6.390625 31.78125 6.390625 
Q 39.453125 6.390625 43.28125 13.890625 
Q 47.125 21.390625 47.125 36.375 
Q 47.125 51.421875 43.28125 58.90625 
Q 39.453125 66.40625 31.78125 66.40625 
z
M 31.78125 74.21875 
Q 44.046875 74.21875 50.515625 64.515625 
Q 56.984375 54.828125 56.984375 36.375 
Q 56.984375 17.96875 50.515625 8.265625 
Q 44.046875 -1.421875 31.78125 -1.421875 
Q 19.53125 -1.421875 13.0625 8.265625 
Q 6.59375 17.96875 6.59375 36.375 
Q 6.59375 54.828125 13.0625 64.515625 
Q 19.53125 74.21875 31.78125 74.21875 
z
" id="DejaVuSans-48"/>
      </defs>
      <g transform="translate(239.573965 327.501344)scale(0.17 -0.17)">
       <use xlink:href="#DejaVuSans-48"/>
      </g>
     </g>
    </g>
    <g id="xtick_5">
     <g id="line2d_5">
      <g>
       <use style="stroke:#000000;stroke-width:0.8;" x="306.388257" xlink:href="#me65d30a7ee" y="307.584"/>
      </g>
     </g>
     <g id="text_5">
      <!-- 1 -->
      <g transform="translate(300.980132 327.501344)scale(0.17 -0.17)">
       <use xlink:href="#DejaVuSans-49"/>
      </g>
     </g>
    </g>
    <g id="xtick_6">
     <g id="line2d_6">
      <g>
       <use style="stroke:#000000;stroke-width:0.8;" x="367.794424" xlink:href="#me65d30a7ee" y="307.584"/>
      </g>
     </g>
     <g id="text_6">
      <!-- 2 -->
      <g transform="translate(362.386299 327.501344)scale(0.17 -0.17)">
       <use xlink:href="#DejaVuSans-50"/>
      </g>
     </g>
    </g>
    <g id="text_7">
     <!-- Position in Radian -->
     <defs>
      <path d="M 19.671875 64.796875 
L 19.671875 37.40625 
L 32.078125 37.40625 
Q 38.96875 37.40625 42.71875 40.96875 
Q 46.484375 44.53125 46.484375 51.125 
Q 46.484375 57.671875 42.71875 61.234375 
Q 38.96875 64.796875 32.078125 64.796875 
z
M 9.8125 72.90625 
L 32.078125 72.90625 
Q 44.34375 72.90625 50.609375 67.359375 
Q 56.890625 61.8125 56.890625 51.125 
Q 56.890625 40.328125 50.609375 34.8125 
Q 44.34375 29.296875 32.078125 29.296875 
L 19.671875 29.296875 
L 19.671875 0 
L 9.8125 0 
z
" id="DejaVuSans-80"/>
      <path d="M 30.609375 48.390625 
Q 23.390625 48.390625 19.1875 42.75 
Q 14.984375 37.109375 14.984375 27.296875 
Q 14.984375 17.484375 19.15625 11.84375 
Q 23.34375 6.203125 30.609375 6.203125 
Q 37.796875 6.203125 41.984375 11.859375 
Q 46.1875 17.53125 46.1875 27.296875 
Q 46.1875 37.015625 41.984375 42.703125 
Q 37.796875 48.390625 30.609375 48.390625 
z
M 30.609375 56 
Q 42.328125 56 49.015625 48.375 
Q 55.71875 40.765625 55.71875 27.296875 
Q 55.71875 13.875 49.015625 6.21875 
Q 42.328125 -1.421875 30.609375 -1.421875 
Q 18.84375 -1.421875 12.171875 6.21875 
Q 5.515625 13.875 5.515625 27.296875 
Q 5.515625 40.765625 12.171875 48.375 
Q 18.84375 56 30.609375 56 
z
" id="DejaVuSans-111"/>
      <path d="M 44.28125 53.078125 
L 44.28125 44.578125 
Q 40.484375 46.53125 36.375 47.5 
Q 32.28125 48.484375 27.875 48.484375 
Q 21.1875 48.484375 17.84375 46.4375 
Q 14.5 44.390625 14.5 40.28125 
Q 14.5 37.15625 16.890625 35.375 
Q 19.28125 33.59375 26.515625 31.984375 
L 29.59375 31.296875 
Q 39.15625 29.25 43.1875 25.515625 
Q 47.21875 21.78125 47.21875 15.09375 
Q 47.21875 7.46875 41.1875 3.015625 
Q 35.15625 -1.421875 24.609375 -1.421875 
Q 20.21875 -1.421875 15.453125 -0.5625 
Q 10.6875 0.296875 5.421875 2 
L 5.421875 11.28125 
Q 10.40625 8.6875 15.234375 7.390625 
Q 20.0625 6.109375 24.8125 6.109375 
Q 31.15625 6.109375 34.5625 8.28125 
Q 37.984375 10.453125 37.984375 14.40625 
Q 37.984375 18.0625 35.515625 20.015625 
Q 33.0625 21.96875 24.703125 23.78125 
L 21.578125 24.515625 
Q 13.234375 26.265625 9.515625 29.90625 
Q 5.8125 33.546875 5.8125 39.890625 
Q 5.8125 47.609375 11.28125 51.796875 
Q 16.75 56 26.8125 56 
Q 31.78125 56 36.171875 55.265625 
Q 40.578125 54.546875 44.28125 53.078125 
z
" id="DejaVuSans-115"/>
      <path d="M 9.421875 54.6875 
L 18.40625 54.6875 
L 18.40625 0 
L 9.421875 0 
z
M 9.421875 75.984375 
L 18.40625 75.984375 
L 18.40625 64.59375 
L 9.421875 64.59375 
z
" id="DejaVuSans-105"/>
      <path d="M 18.3125 70.21875 
L 18.3125 54.6875 
L 36.8125 54.6875 
L 36.8125 47.703125 
L 18.3125 47.703125 
L 18.3125 18.015625 
Q 18.3125 11.328125 20.140625 9.421875 
Q 21.96875 7.515625 27.59375 7.515625 
L 36.8125 7.515625 
L 36.8125 0 
L 27.59375 0 
Q 17.1875 0 13.234375 3.875 
Q 9.28125 7.765625 9.28125 18.015625 
L 9.28125 47.703125 
L 2.6875 47.703125 
L 2.6875 54.6875 
L 9.28125 54.6875 
L 9.28125 70.21875 
z
" id="DejaVuSans-116"/>
      <path d="M 54.890625 33.015625 
L 54.890625 0 
L 45.90625 0 
L 45.90625 32.71875 
Q 45.90625 40.484375 42.875 44.328125 
Q 39.84375 48.1875 33.796875 48.1875 
Q 26.515625 48.1875 22.3125 43.546875 
Q 18.109375 38.921875 18.109375 30.90625 
L 18.109375 0 
L 9.078125 0 
L 9.078125 54.6875 
L 18.109375 54.6875 
L 18.109375 46.1875 
Q 21.34375 51.125 25.703125 53.5625 
Q 30.078125 56 35.796875 56 
Q 45.21875 56 50.046875 50.171875 
Q 54.890625 44.34375 54.890625 33.015625 
z
" id="DejaVuSans-110"/>
      <path id="DejaVuSans-32"/>
      <path d="M 44.390625 34.1875 
Q 47.5625 33.109375 50.5625 29.59375 
Q 53.5625 26.078125 56.59375 19.921875 
L 66.609375 0 
L 56 0 
L 46.6875 18.703125 
Q 43.0625 26.03125 39.671875 28.421875 
Q 36.28125 30.8125 30.421875 30.8125 
L 19.671875 30.8125 
L 19.671875 0 
L 9.8125 0 
L 9.8125 72.90625 
L 32.078125 72.90625 
Q 44.578125 72.90625 50.734375 67.671875 
Q 56.890625 62.453125 56.890625 51.90625 
Q 56.890625 45.015625 53.6875 40.46875 
Q 50.484375 35.9375 44.390625 34.1875 
z
M 19.671875 64.796875 
L 19.671875 38.921875 
L 32.078125 38.921875 
Q 39.203125 38.921875 42.84375 42.21875 
Q 46.484375 45.515625 46.484375 51.90625 
Q 46.484375 58.296875 42.84375 61.546875 
Q 39.203125 64.796875 32.078125 64.796875 
z
" id="DejaVuSans-82"/>
      <path d="M 34.28125 27.484375 
Q 23.390625 27.484375 19.1875 25 
Q 14.984375 22.515625 14.984375 16.5 
Q 14.984375 11.71875 18.140625 8.90625 
Q 21.296875 6.109375 26.703125 6.109375 
Q 34.1875 6.109375 38.703125 11.40625 
Q 43.21875 16.703125 43.21875 25.484375 
L 43.21875 27.484375 
z
M 52.203125 31.203125 
L 52.203125 0 
L 43.21875 0 
L 43.21875 8.296875 
Q 40.140625 3.328125 35.546875 0.953125 
Q 30.953125 -1.421875 24.3125 -1.421875 
Q 15.921875 -1.421875 10.953125 3.296875 
Q 6 8.015625 6 15.921875 
Q 6 25.140625 12.171875 29.828125 
Q 18.359375 34.515625 30.609375 34.515625 
L 43.21875 34.515625 
L 43.21875 35.40625 
Q 43.21875 41.609375 39.140625 45 
Q 35.0625 48.390625 27.6875 48.390625 
Q 23 48.390625 18.546875 47.265625 
Q 14.109375 46.140625 10.015625 43.890625 
L 10.015625 52.203125 
Q 14.9375 54.109375 19.578125 55.046875 
Q 24.21875 56 28.609375 56 
Q 40.484375 56 46.34375 49.84375 
Q 52.203125 43.703125 52.203125 31.203125 
z
" id="DejaVuSans-97"/>
      <path d="M 45.40625 46.390625 
L 45.40625 75.984375 
L 54.390625 75.984375 
L 54.390625 0 
L 45.40625 0 
L 45.40625 8.203125 
Q 42.578125 3.328125 38.25 0.953125 
Q 33.9375 -1.421875 27.875 -1.421875 
Q 17.96875 -1.421875 11.734375 6.484375 
Q 5.515625 14.40625 5.515625 27.296875 
Q 5.515625 40.1875 11.734375 48.09375 
Q 17.96875 56 27.875 56 
Q 33.9375 56 38.25 53.625 
Q 42.578125 51.265625 45.40625 46.390625 
z
M 14.796875 27.296875 
Q 14.796875 17.390625 18.875 11.75 
Q 22.953125 6.109375 30.078125 6.109375 
Q 37.203125 6.109375 41.296875 11.75 
Q 45.40625 17.390625 45.40625 27.296875 
Q 45.40625 37.203125 41.296875 42.84375 
Q 37.203125 48.484375 30.078125 48.484375 
Q 22.953125 48.484375 18.875 42.84375 
Q 14.796875 37.203125 14.796875 27.296875 
z
" id="DejaVuSans-100"/>
     </defs>
     <g transform="translate(102.024844 357.832125)scale(0.3 -0.3)">
      <use xlink:href="#DejaVuSans-80"/>
      <use x="60.255859" xlink:href="#DejaVuSans-111"/>
      <use x="121.4375" xlink:href="#DejaVuSans-115"/>
      <use x="173.537109" xlink:href="#DejaVuSans-105"/>
      <use x="201.320312" xlink:href="#DejaVuSans-116"/>
      <use x="240.529297" xlink:href="#DejaVuSans-105"/>
      <use x="268.3125" xlink:href="#DejaVuSans-111"/>
      <use x="329.494141" xlink:href="#DejaVuSans-110"/>
      <use x="392.873047" xlink:href="#DejaVuSans-32"/>
      <use x="424.660156" xlink:href="#DejaVuSans-105"/>
      <use x="452.443359" xlink:href="#DejaVuSans-110"/>
      <use x="515.822266" xlink:href="#DejaVuSans-32"/>
      <use x="547.609375" xlink:href="#DejaVuSans-82"/>
      <use x="617.060547" xlink:href="#DejaVuSans-97"/>
      <use x="678.339844" xlink:href="#DejaVuSans-100"/>
      <use x="741.816406" xlink:href="#DejaVuSans-105"/>
      <use x="769.599609" xlink:href="#DejaVuSans-97"/>
      <use x="830.878906" xlink:href="#DejaVuSans-110"/>
     </g>
    </g>
   </g>
   <g id="matplotlib.axis_2">
    <g id="ytick_1">
     <g id="line2d_7">
      <defs>
       <path d="M 0 0 
L -3.5 0 
" id="md2971f338a" style="stroke:#000000;stroke-width:0.8;"/>
      </defs>
      <g>
       <use style="stroke:#000000;stroke-width:0.8;" x="57.6" xlink:href="#md2971f338a" y="307.584"/>
      </g>
     </g>
     <g id="text_8">
      <!-- 0.00 -->
      <defs>
       <path d="M 10.6875 12.40625 
L 21 12.40625 
L 21 0 
L 10.6875 0 
z
" id="DejaVuSans-46"/>
      </defs>
      <g transform="translate(12.748438 314.042672)scale(0.17 -0.17)">
       <use xlink:href="#DejaVuSans-48"/>
       <use x="63.623047" xlink:href="#DejaVuSans-46"/>
       <use x="95.410156" xlink:href="#DejaVuSans-48"/>
       <use x="159.033203" xlink:href="#DejaVuSans-48"/>
      </g>
     </g>
    </g>
    <g id="ytick_2">
     <g id="line2d_8">
      <g>
       <use style="stroke:#000000;stroke-width:0.8;" x="57.6" xlink:href="#md2971f338a" y="260.444595"/>
      </g>
     </g>
     <g id="text_9">
      <!-- 0.25 -->
      <defs>
       <path d="M 10.796875 72.90625 
L 49.515625 72.90625 
L 49.515625 64.59375 
L 19.828125 64.59375 
L 19.828125 46.734375 
Q 21.96875 47.46875 24.109375 47.828125 
Q 26.265625 48.1875 28.421875 48.1875 
Q 40.625 48.1875 47.75 41.5 
Q 54.890625 34.8125 54.890625 23.390625 
Q 54.890625 11.625 47.5625 5.09375 
Q 40.234375 -1.421875 26.90625 -1.421875 
Q 22.3125 -1.421875 17.546875 -0.640625 
Q 12.796875 0.140625 7.71875 1.703125 
L 7.71875 11.625 
Q 12.109375 9.234375 16.796875 8.0625 
Q 21.484375 6.890625 26.703125 6.890625 
Q 35.15625 6.890625 40.078125 11.328125 
Q 45.015625 15.765625 45.015625 23.390625 
Q 45.015625 31 40.078125 35.4375 
Q 35.15625 39.890625 26.703125 39.890625 
Q 22.75 39.890625 18.8125 39.015625 
Q 14.890625 38.140625 10.796875 36.28125 
z
" id="DejaVuSans-53"/>
      </defs>
      <g transform="translate(12.748438 266.903267)scale(0.17 -0.17)">
       <use xlink:href="#DejaVuSans-48"/>
       <use x="63.623047" xlink:href="#DejaVuSans-46"/>
       <use x="95.410156" xlink:href="#DejaVuSans-50"/>
       <use x="159.033203" xlink:href="#DejaVuSans-53"/>
      </g>
     </g>
    </g>
    <g id="ytick_3">
     <g id="line2d_9">
      <g>
       <use style="stroke:#000000;stroke-width:0.8;" x="57.6" xlink:href="#md2971f338a" y="213.305189"/>
      </g>
     </g>
     <g id="text_10">
      <!-- 0.50 -->
      <g transform="translate(12.748438 219.763861)scale(0.17 -0.17)">
       <use xlink:href="#DejaVuSans-48"/>
       <use x="63.623047" xlink:href="#DejaVuSans-46"/>
       <use x="95.410156" xlink:href="#DejaVuSans-53"/>
       <use x="159.033203" xlink:href="#DejaVuSans-48"/>
      </g>
     </g>
    </g>
    <g id="ytick_4">
     <g id="line2d_10">
      <g>
       <use style="stroke:#000000;stroke-width:0.8;" x="57.6" xlink:href="#md2971f338a" y="166.165784"/>
      </g>
     </g>
     <g id="text_11">
      <!-- 0.75 -->
      <defs>
       <path d="M 8.203125 72.90625 
L 55.078125 72.90625 
L 55.078125 68.703125 
L 28.609375 0 
L 18.3125 0 
L 43.21875 64.59375 
L 8.203125 64.59375 
z
" id="DejaVuSans-55"/>
      </defs>
      <g transform="translate(12.748438 172.624456)scale(0.17 -0.17)">
       <use xlink:href="#DejaVuSans-48"/>
       <use x="63.623047" xlink:href="#DejaVuSans-46"/>
       <use x="95.410156" xlink:href="#DejaVuSans-55"/>
       <use x="159.033203" xlink:href="#DejaVuSans-53"/>
      </g>
     </g>
    </g>
    <g id="ytick_5">
     <g id="line2d_11">
      <g>
       <use style="stroke:#000000;stroke-width:0.8;" x="57.6" xlink:href="#md2971f338a" y="119.026379"/>
      </g>
     </g>
     <g id="text_12">
      <!-- 1.00 -->
      <g transform="translate(12.748438 125.485051)scale(0.17 -0.17)">
       <use xlink:href="#DejaVuSans-49"/>
       <use x="63.623047" xlink:href="#DejaVuSans-46"/>
       <use x="95.410156" xlink:href="#DejaVuSans-48"/>
       <use x="159.033203" xlink:href="#DejaVuSans-48"/>
      </g>
     </g>
    </g>
    <g id="ytick_6">
     <g id="line2d_12">
      <g>
       <use style="stroke:#000000;stroke-width:0.8;" x="57.6" xlink:href="#md2971f338a" y="71.886974"/>
      </g>
     </g>
     <g id="text_13">
      <!-- 1.25 -->
      <g transform="translate(12.748438 78.345646)scale(0.17 -0.17)">
       <use xlink:href="#DejaVuSans-49"/>
       <use x="63.623047" xlink:href="#DejaVuSans-46"/>
       <use x="95.410156" xlink:href="#DejaVuSans-50"/>
       <use x="159.033203" xlink:href="#DejaVuSans-53"/>
      </g>
     </g>
    </g>
    <g id="text_14">
     <!-- Density -->
     <defs>
      <path d="M 19.671875 64.796875 
L 19.671875 8.109375 
L 31.59375 8.109375 
Q 46.6875 8.109375 53.6875 14.9375 
Q 60.6875 21.78125 60.6875 36.53125 
Q 60.6875 51.171875 53.6875 57.984375 
Q 46.6875 64.796875 31.59375 64.796875 
z
M 9.8125 72.90625 
L 30.078125 72.90625 
Q 51.265625 72.90625 61.171875 64.09375 
Q 71.09375 55.28125 71.09375 36.53125 
Q 71.09375 17.671875 61.125 8.828125 
Q 51.171875 0 30.078125 0 
L 9.8125 0 
z
" id="DejaVuSans-68"/>
      <path d="M 56.203125 29.59375 
L 56.203125 25.203125 
L 14.890625 25.203125 
Q 15.484375 15.921875 20.484375 11.0625 
Q 25.484375 6.203125 34.421875 6.203125 
Q 39.59375 6.203125 44.453125 7.46875 
Q 49.3125 8.734375 54.109375 11.28125 
L 54.109375 2.78125 
Q 49.265625 0.734375 44.1875 -0.34375 
Q 39.109375 -1.421875 33.890625 -1.421875 
Q 20.796875 -1.421875 13.15625 6.1875 
Q 5.515625 13.8125 5.515625 26.8125 
Q 5.515625 40.234375 12.765625 48.109375 
Q 20.015625 56 32.328125 56 
Q 43.359375 56 49.78125 48.890625 
Q 56.203125 41.796875 56.203125 29.59375 
z
M 47.21875 32.234375 
Q 47.125 39.59375 43.09375 43.984375 
Q 39.0625 48.390625 32.421875 48.390625 
Q 24.90625 48.390625 20.390625 44.140625 
Q 15.875 39.890625 15.1875 32.171875 
z
" id="DejaVuSans-101"/>
      <path d="M 32.171875 -5.078125 
Q 28.375 -14.84375 24.75 -17.8125 
Q 21.140625 -20.796875 15.09375 -20.796875 
L 7.90625 -20.796875 
L 7.90625 -13.28125 
L 13.1875 -13.28125 
Q 16.890625 -13.28125 18.9375 -11.515625 
Q 21 -9.765625 23.484375 -3.21875 
L 25.09375 0.875 
L 2.984375 54.6875 
L 12.5 54.6875 
L 29.59375 11.921875 
L 46.6875 54.6875 
L 56.203125 54.6875 
z
" id="DejaVuSans-121"/>
     </defs>
     <g transform="translate(2.509375 231.553781)rotate(-90)scale(0.3 -0.3)">
      <use xlink:href="#DejaVuSans-68"/>
      <use x="77.001953" xlink:href="#DejaVuSans-101"/>
      <use x="138.525391" xlink:href="#DejaVuSans-110"/>
      <use x="201.904297" xlink:href="#DejaVuSans-115"/>
      <use x="254.003906" xlink:href="#DejaVuSans-105"/>
      <use x="281.787109" xlink:href="#DejaVuSans-116"/>
      <use x="320.996094" xlink:href="#DejaVuSans-121"/>
     </g>
    </g>
   </g>
   <g id="line2d_13">
    <path clip-path="url(#pd32c232e33)" d="M 91.466674 305.982998 
L 92.449172 305.128514 
L 92.858547 305.211239 
L 93.707999 305.630739 
L 94.362998 306.348884 
L 94.741669 306.568046 
L 95.038466 306.488963 
L 95.519481 306.062847 
L 95.928855 305.836244 
L 96.205183 305.932552 
L 96.706666 306.433326 
L 97.146744 306.715116 
L 97.53565 306.70267 
L 98.00643 306.44898 
L 98.907054 305.899673 
L 99.316428 305.98834 
L 100.25799 306.2645 
L 100.759473 306.109113 
L 102.0183 305.650849 
L 102.58119 305.592662 
L 103.37947 305.62899 
L 103.676266 305.268366 
L 104.433609 304.226173 
L 104.638296 304.333406 
L 104.945327 304.818482 
L 105.559389 305.76796 
L 105.897123 305.89043 
L 106.286028 305.787605 
L 106.6647 305.459669 
L 107.155949 304.677631 
L 107.718839 303.905393 
L 108.609228 303.001089 
L 109.100478 302.452087 
L 109.346102 302.484146 
L 109.663368 302.804342 
L 110.256961 303.389962 
L 110.502585 303.341948 
L 110.74821 303.034902 
L 111.096178 302.169235 
L 111.78188 300.426933 
L 111.966099 300.409994 
L 112.150317 300.665221 
L 112.467583 301.585358 
L 113.286331 304.040703 
L 113.665003 304.507642 
L 113.941331 304.541223 
L 114.227893 304.329266 
L 114.698673 303.653917 
L 115.220626 302.518125 
L 115.803984 301.311515 
L 116.018906 301.273863 
L 116.233827 301.51876 
L 116.725077 302.579628 
L 117.073045 303.04514 
L 117.277732 303.027734 
L 117.513123 302.737254 
L 118.2807 301.599769 
L 118.464918 301.752566 
L 118.761715 302.365813 
L 119.283667 303.384098 
L 119.488354 303.392366 
L 119.693041 303.123138 
L 120.051244 302.192245 
L 120.573197 300.974063 
L 120.808587 300.874097 
L 121.023508 301.051843 
L 121.524992 301.896069 
L 121.995773 302.444186 
L 124.011942 303.869363 
L 124.237098 303.636405 
L 124.533894 302.939689 
L 125.107019 300.852359 
L 125.659674 299.202026 
L 125.987174 298.8102 
L 126.396548 298.709539 
L 126.672876 298.51583 
L 126.959438 297.987761 
L 127.747484 296.376519 
L 127.952171 296.407028 
L 128.177327 296.70942 
L 128.484358 297.545553 
L 128.914201 299.467365 
L 129.825059 303.685092 
L 130.101387 304.055631 
L 130.275371 303.984128 
L 130.490292 303.592114 
L 130.868964 302.32977 
L 131.483025 300.427378 
L 131.810525 300.065002 
L 132.312009 299.645304 
L 132.588336 298.949123 
L 132.997711 297.171708 
L 133.632241 294.573875 
L 133.908569 294.216997 
L 134.092788 294.283223 
L 134.348647 294.68508 
L 135.402786 296.645762 
L 135.699582 296.721636 
L 135.934973 296.547076 
L 136.201066 296.019714 
L 136.692315 294.385644 
L 137.081221 293.479425 
L 137.275674 293.432004 
L 137.470127 293.658121 
L 137.828329 294.513803 
L 138.432157 295.832188 
L 138.728953 296.023881 
L 138.954109 295.921365 
L 139.240671 295.498776 
L 140.243639 293.751975 
L 140.427857 293.973564 
L 140.745122 294.801473 
L 141.195434 295.8267 
L 141.369418 295.826002 
L 141.553637 295.515452 
L 141.860668 294.435076 
L 142.894338 290.46865 
L 143.221838 290.083508 
L 144.245274 289.37854 
L 144.859335 288.817535 
L 145.094726 288.864827 
L 145.319882 289.177582 
L 145.626913 290.066603 
L 146.721989 293.640385 
L 147.868238 295.624554 
L 148.062691 295.56173 
L 148.277612 295.200767 
L 148.584643 294.174442 
L 149.208939 291.07221 
L 149.782063 288.764236 
L 150.232375 287.817708 
L 150.795265 287.16593 
L 151.480967 286.38797 
L 151.859638 285.514325 
L 152.811434 283.084927 
L 153.046824 283.070788 
L 153.507371 283.11516 
L 153.76323 282.81645 
L 154.295416 282.166616 
L 154.479635 282.268553 
L 154.715025 282.718791 
L 155.748696 285.100744 
L 155.932914 284.94336 
L 156.270648 284.270991 
L 156.690257 283.604582 
L 156.88471 283.620865 
L 157.109866 283.916451 
L 157.703459 284.784392 
L 157.84674 284.63544 
L 158.051427 284.019258 
L 158.389161 282.123522 
L 159.033926 278.581656 
L 159.228378 278.375903 
L 159.351191 278.545571 
L 159.545644 279.281961 
L 159.883378 281.628487 
L 160.589549 286.519192 
L 160.865876 287.131875 
L 161.070563 287.163881 
L 161.326423 286.918118 
L 161.807437 286.07444 
L 162.216812 285.523733 
L 162.40103 285.575283 
L 162.626186 285.942558 
L 163.240248 287.049045 
L 163.414232 286.961215 
L 163.680326 286.497522 
L 164.478606 285.020849 
L 164.785637 284.299085 
L 165.061964 282.945706 
L 165.409933 279.903638 
L 166.197978 272.625927 
L 166.351494 272.38188 
L 166.382197 272.398993 
L 166.505009 272.678406 
L 166.719931 273.884358 
L 167.13954 277.842816 
L 167.815007 283.769195 
L 168.10157 284.704513 
L 168.255085 284.725314 
L 168.418835 284.441412 
L 168.756569 283.272803 
L 169.37063 281.298087 
L 170.312192 279.01991 
L 170.89555 277.301232 
L 171.100237 277.225114 
L 171.274222 277.439405 
L 171.581252 278.270651 
L 172.174845 279.844816 
L 172.389767 279.916009 
L 172.594454 279.705203 
L 173.095938 279.132542 
L 173.249453 279.286502 
L 173.474609 279.912506 
L 174.50828 283.357567 
L 174.774373 283.373269 
L 175.163279 283.394149 
L 175.419138 283.695543 
L 176.360699 285.074538 
L 176.596089 284.890976 
L 177.425073 284.047669 
L 178.182415 283.951176 
L 178.42804 283.364991 
L 179.635695 279.861356 
L 180.0246 279.628516 
L 180.3521 279.683256 
L 180.741006 279.731058 
L 180.945693 279.482556 
L 181.211786 278.729886 
L 182.388738 274.810994 
L 182.757175 274.620832 
L 183.013034 274.382635 
L 183.258658 273.774268 
L 183.596392 272.20991 
L 184.404907 268.255682 
L 184.59936 268.133697 
L 184.752875 268.344968 
L 185.080375 269.318152 
L 185.407874 269.994814 
L 185.551155 269.937156 
L 185.735374 269.507631 
L 186.103811 267.902307 
L 187.444512 260.892085 
L 187.905058 258.679695 
L 188.140449 258.377453 
L 188.28373 258.494419 
L 188.51912 259.073748 
L 189.071776 260.49447 
L 189.194588 260.413439 
L 189.358338 259.946967 
L 189.655134 258.242118 
L 190.136149 255.683363 
L 190.248727 255.602227 
L 190.27943 255.627551 
L 190.412477 255.972126 
L 190.647867 257.397956 
L 191.528022 263.445015 
L 191.732709 263.614165 
L 191.896459 263.433909 
L 192.162553 262.714857 
L 192.541224 260.962612 
L 193.226926 256.376196 
L 193.759113 253.657262 
L 194.137784 252.68223 
L 194.352706 252.581334 
L 194.516456 252.795807 
L 194.741612 253.541668 
L 195.212392 256.140015 
L 195.529657 257.233782 
L 195.632001 257.221239 
L 195.65247 257.192314 
L 195.795751 256.733095 
L 196.031141 255.050647 
L 196.573562 248.945089 
L 197.075046 244.599429 
L 197.515123 242.559869 
L 197.822154 241.945899 
L 197.996138 241.963056 
L 198.190591 242.301461 
L 198.835356 243.841144 
L 198.896762 243.78418 
L 199.040043 243.3691 
L 199.265199 241.867971 
L 199.715511 236.849228 
L 200.13512 233.28364 
L 200.360276 232.74549 
L 200.493323 232.820109 
L 200.728713 233.342825 
L 201.199493 234.301119 
L 201.445118 234.370018 
L 201.670274 234.179357 
L 201.915899 233.636592 
L 202.212695 232.355009 
L 203.010975 228.560258 
L 203.123553 228.61967 
L 203.287303 229.077998 
L 203.563631 230.674078 
L 204.044646 235.000489 
L 204.904332 242.840266 
L 205.068082 243.115756 
L 205.088551 243.10726 
L 205.201129 242.89652 
L 205.405816 241.896982 
L 206.101752 236.636742 
L 207.196829 228.642852 
L 207.524329 227.163399 
L 207.677844 227.064627 
L 207.688078 227.071288 
L 207.831359 227.315345 
L 208.128156 228.406089 
L 208.619405 230.026618 
L 208.998077 230.479025 
L 209.223233 230.930446 
L 209.468857 232.032864 
L 209.847529 234.999065 
L 210.379715 238.755452 
L 210.563934 239.038715 
L 210.574168 239.033832 
L 210.686746 238.83613 
L 210.881199 237.915952 
L 211.300808 234.493135 
L 211.679479 232.263478 
L 211.812526 232.119682 
L 211.843229 232.139265 
L 211.976276 232.433201 
L 212.242369 233.730571 
L 212.661978 235.516831 
L 212.78479 235.566411 
L 212.805259 235.548748 
L 212.94854 235.230416 
L 213.214633 233.955749 
L 214.053851 229.69732 
L 214.862366 226.461941 
L 215.27174 223.172127 
L 215.762989 219.638886 
L 215.885802 219.472003 
L 215.916505 219.495007 
L 216.029083 219.806693 
L 216.23377 221.221874 
L 217.103691 228.430174 
L 217.113925 228.428305 
L 217.206034 228.287806 
L 217.380018 227.486462 
L 217.871268 223.650964 
L 218.198767 222.121 
L 218.362517 221.996006 
L 218.372751 222.001634 
L 218.516032 222.222886 
L 218.802595 223.207886 
L 219.293844 224.765527 
L 219.457594 224.79721 
L 219.600875 224.524995 
L 219.826031 223.508891 
L 220.194468 220.598671 
L 220.982513 214.319423 
L 221.258841 213.589126 
L 221.422591 213.58777 
L 221.627278 213.906694 
L 222.47673 215.99928 
L 222.753058 217.35159 
L 223.121495 220.497607 
L 223.725322 225.477735 
L 223.940244 225.885263 
L 224.063056 225.755721 
L 224.298446 225.040881 
L 225.424226 220.388794 
L 225.772194 216.219434 
L 226.877505 201.688014 
L 227.215239 200.078941 
L 227.419927 199.8767 
L 227.552973 200.0526 
L 227.767895 200.796379 
L 228.156801 203.124858 
L 229.118831 208.962049 
L 229.384924 209.542667 
L 229.497502 209.463912 
L 229.651017 208.959913 
L 229.886408 207.230938 
L 230.295782 202.127713 
L 230.838203 196.069037 
L 231.073594 195.298569 
L 231.175937 195.385874 
L 231.339687 195.97842 
L 231.687655 198.322348 
L 232.383592 202.712199 
L 233.335387 207.304379 
L 233.447965 207.231677 
L 233.601481 206.693612 
L 233.847105 204.819418 
L 234.798901 196.487019 
L 234.993354 196.310657 
L 235.146869 196.481213 
L 235.4539 197.250974 
L 236.231712 199.220014 
L 236.374993 199.195598 
L 236.518274 198.86199 
L 236.722961 197.670969 
L 236.999289 194.504029 
L 238.032959 180.279874 
L 238.063662 180.297916 
L 238.155771 180.596701 
L 238.329756 182.098147 
L 238.667489 187.443219 
L 239.322489 197.376694 
L 239.690926 199.956716 
L 239.885378 200.3531 
L 239.895613 200.348742 
L 239.987722 200.168974 
L 240.141237 199.21012 
L 240.366393 196.030544 
L 240.745065 186.700757 
L 241.215845 176.771807 
L 241.420533 175.734585 
L 241.492173 175.861817 
L 241.645689 176.781421 
L 242.638422 186.00594 
L 243.334358 192.412121 
L 243.405999 192.238558 
L 243.518577 191.033916 
L 243.692561 186.110919 
L 243.917717 172.284159 
L 244.234982 136.633366 
L 244.930918 55.458124 
L 245.012793 54.144 
L 245.063965 54.65664 
L 245.176543 59.307043 
L 245.391465 79.717789 
L 246.425135 194.188701 
L 246.67076 199.301748 
L 246.721932 199.44108 
L 246.773103 199.319523 
L 246.895916 198.120724 
L 247.151775 192.84065 
L 247.909118 176.466702 
L 248.205914 174.220616 
L 248.349195 173.985519 
L 248.379898 174.002632 
L 248.492476 174.27071 
L 248.676695 175.442784 
L 248.932554 178.764119 
L 249.290756 186.787529 
L 250.232318 209.325429 
L 250.477942 210.818387 
L 250.539348 210.830768 
L 250.580286 210.76716 
L 250.723567 210.151526 
L 251.051066 207.407515 
L 251.450207 204.768782 
L 251.613956 204.558916 
L 251.634425 204.568986 
L 251.767472 204.794155 
L 252.125674 206.049225 
L 252.473643 206.862202 
L 252.760205 207.026464 
L 253.138876 206.979555 
L 253.353798 206.717841 
L 253.599422 205.981966 
L 254.60239 202.369188 
L 254.76614 202.516282 
L 255.011764 203.097372 
L 255.390436 204.654544 
L 256.188716 208.080999 
L 256.720903 209.552152 
L 257.058636 211.67993 
L 257.549886 214.525796 
L 257.682932 214.63316 
L 257.703401 214.61692 
L 257.836448 214.313727 
L 258.112776 212.937015 
L 258.470978 211.499036 
L 258.552853 211.498547 
L 258.583556 211.542067 
L 258.716603 212.023868 
L 258.931525 213.801419 
L 259.340899 219.530578 
L 259.88332 226.200928 
L 260.159648 227.438194 
L 260.343866 227.547764 
L 260.558788 227.31496 
L 260.876053 227.062611 
L 261.029569 227.22099 
L 261.234256 227.833346 
L 261.541287 229.603395 
L 262.196286 235.167868 
L 262.626129 237.736668 
L 262.871754 238.168747 
L 263.025269 238.101114 
L 263.373237 237.561592 
L 263.649565 237.355642 
L 263.854252 237.4788 
L 264.621829 238.144786 
L 264.908391 238.266634 
L 265.09261 238.664773 
L 265.317766 239.802186 
L 265.635031 242.813041 
L 266.484483 251.515469 
L 266.68917 251.857887 
L 266.811983 251.704669 
L 267.037139 250.94328 
L 267.436279 248.69114 
L 267.794481 245.375924 
L 268.347137 237.512456 
L 268.695105 234.188147 
L 268.807683 233.9855 
L 268.84862 234.037552 
L 268.971433 234.596887 
L 269.186354 236.889167 
L 270.117681 248.409285 
L 270.199556 248.351304 
L 270.332603 247.828686 
L 270.608931 245.612147 
L 271.151352 241.492152 
L 271.427679 240.825398 
L 271.959866 240.07668 
L 272.266897 238.7656 
L 272.819553 236.480696 
L 272.962834 236.43359 
L 272.973068 236.441937 
L 273.126583 236.743498 
L 273.42338 237.991218 
L 273.853223 239.526577 
L 274.006738 239.552722 
L 274.160254 239.266759 
L 274.825487 237.422491 
L 274.907362 237.511405 
L 275.071112 238.06143 
L 275.326971 239.892225 
L 275.81822 245.49337 
L 276.299235 249.993625 
L 276.524391 250.586682 
L 276.626735 250.487572 
L 276.800719 249.882578 
L 277.281734 247.026281 
L 277.650171 245.612342 
L 277.824155 245.504734 
L 277.834389 245.511505 
L 277.977671 245.768918 
L 278.192592 246.739765 
L 278.530326 249.496977 
L 279.338841 256.276818 
L 279.707278 257.529322 
L 279.983605 257.836159 
L 280.147355 257.746822 
L 280.341808 257.312373 
L 280.607901 256.06784 
L 281.088916 252.468205 
L 281.559697 249.610013 
L 281.784853 249.215174 
L 281.907665 249.320602 
L 282.091884 249.885254 
L 282.398915 251.705549 
L 283.412116 258.26844 
L 283.74985 259.060972 
L 283.975006 259.161582 
L 284.169459 258.985868 
L 284.47649 258.329679 
L 285.315707 256.429747 
L 285.581801 256.306947 
L 285.806957 256.452786 
L 286.124222 256.98339 
L 286.728049 258.533448 
L 287.239767 259.642606 
L 287.413752 259.643297 
L 287.587736 259.33469 
L 287.864063 258.276899 
L 288.426953 256.154668 
L 288.590703 256.117221 
L 288.754453 256.388472 
L 289.409452 257.85564 
L 289.450389 257.826629 
L 289.603905 257.514734 
L 289.859764 256.370359 
L 290.750153 251.939029 
L 290.934372 251.833911 
L 291.077653 252.036956 
L 291.292574 252.818311 
L 291.620074 254.998672 
L 292.623041 262.28593 
L 292.991478 263.119239 
L 293.513431 264.243819 
L 294.127492 265.580183 
L 294.311711 265.587088 
L 294.475461 265.286858 
L 294.700617 264.278078 
L 295.028116 261.57954 
L 295.826396 254.719196 
L 296.041318 254.335567 
L 296.153896 254.474847 
L 296.338114 255.179327 
L 296.65538 257.461893 
L 297.28991 261.943924 
L 297.484363 262.224468 
L 297.494597 262.220797 
L 297.61741 262.041639 
L 297.832331 261.210159 
L 298.272409 258.364051 
L 298.876236 254.889159 
L 299.132095 254.430728 
L 299.265142 254.507417 
L 299.459595 254.967135 
L 299.797328 256.472994 
L 300.595609 261.392382 
L 301.189202 264.275638 
L 302.028419 268.030394 
L 302.591309 270.274094 
L 302.908574 270.79044 
L 303.13373 270.815624 
L 303.358886 270.581098 
L 303.747792 269.76325 
L 304.105994 269.216015 
L 304.269744 269.277962 
L 304.464197 269.674736 
L 304.801931 270.997789 
L 305.579742 275.121288 
L 306.766928 282.115112 
L 306.930678 282.146182 
L 307.104662 281.86903 
L 307.524271 280.590565 
L 307.841536 280.008292 
L 308.005286 280.041668 
L 308.230442 280.3993 
L 308.680754 281.083799 
L 308.834269 280.976943 
L 309.049191 280.463187 
L 309.888409 278.128605 
L 310.123799 278.123492 
L 310.461533 278.397528 
L 311.259813 279.108247 
L 311.433797 278.895102 
L 311.658953 278.195887 
L 312.02739 276.175016 
L 312.631217 273.06242 
L 312.876842 272.701032 
L 313.040592 272.786326 
L 313.306685 273.275191 
L 313.726294 273.939298 
L 313.910512 273.904087 
L 314.248246 273.496253 
L 314.463168 273.413006 
L 314.616683 273.627994 
L 314.831605 274.412472 
L 315.189808 276.750865 
L 315.957385 281.780423 
L 316.213244 282.279561 
L 316.34629 282.19185 
L 316.540743 281.673208 
L 317.349258 278.95485 
L 317.379961 278.968593 
L 317.523242 279.194874 
L 317.768867 280.098027 
L 318.710428 283.994215 
L 318.99699 284.291325 
L 319.242615 284.256933 
L 319.611052 283.927849 
L 320.133004 283.526062 
L 320.378629 283.60294 
L 320.624253 283.95421 
L 320.931284 284.839354 
L 321.350893 286.831862 
L 322.394798 292.138362 
L 322.558548 292.201585 
L 322.568782 292.193941 
L 322.722297 291.921925 
L 322.988391 290.88873 
L 323.581984 288.595051 
L 323.755968 288.529843 
L 323.919718 288.756144 
L 324.298389 289.8111 
L 324.646357 290.465763 
L 324.830576 290.462964 
L 325.065966 290.168677 
L 325.475341 289.692626 
L 325.628856 289.801048 
L 325.833543 290.286181 
L 326.253152 292.032671 
L 326.754636 293.729381 
L 327.204948 294.463899 
L 327.604088 294.781985 
L 327.79854 294.696002 
L 328.003228 294.294876 
L 328.269321 293.194805 
L 328.791274 289.782742 
L 329.180179 287.97085 
L 329.364398 287.803916 
L 329.374632 287.808849 
L 329.517913 288.018809 
L 329.794241 288.944495 
L 330.28549 290.440573 
L 330.510646 290.555004 
L 330.77674 290.380789 
L 331.155411 290.207913 
L 332.363066 290.397 
L 332.629159 290.855884 
L 333.212518 291.917929 
L 333.366033 291.811225 
L 333.57072 291.298399 
L 333.959626 289.548827 
L 334.440641 287.751692 
L 334.686266 287.507989 
L 334.86025 287.615207 
L 335.105874 288.09225 
L 335.474311 289.380735 
L 336.681966 294.067158 
L 337.101575 294.629701 
L 337.459777 294.785566 
L 337.838449 294.686189 
L 338.462745 294.534027 
L 339.189384 294.649355 
L 339.455478 294.930924 
L 339.721571 295.591523 
L 340.090008 297.228927 
L 340.816648 300.497416 
L 341.041804 300.723749 
L 341.205554 300.601315 
L 341.461413 300.039248 
L 342.46438 296.832802 
L 343.313832 294.581531 
L 343.477582 294.594191 
L 343.6618 294.899077 
L 344.020003 296.063615 
L 344.572658 297.662726 
L 345.012736 298.269706 
L 345.330001 298.406047 
L 345.555157 298.268189 
L 345.892891 297.729771 
L 346.3125 297.17183 
L 346.517187 297.213989 
L 346.752577 297.546138 
L 347.325701 298.902507 
L 348.410544 301.740356 
L 348.942731 303.189194 
L 349.137183 303.255507 
L 349.311168 303.030001 
L 349.59773 302.19632 
L 350.590463 299.055351 
L 351.071478 298.222601 
L 351.296634 298.175959 
L 351.491086 298.396948 
L 351.787883 299.143796 
L 352.739679 301.748804 
L 353.292334 302.416184 
L 354.336239 303.378042 
L 354.571629 303.240935 
L 354.899129 302.740112 
L 355.697409 301.448208 
L 356.07608 301.291267 
L 356.731079 301.308814 
L 357.03811 301.521676 
L 357.36561 302.059368 
L 358.583499 304.371896 
L 358.921233 304.486653 
L 359.218029 304.348689 
L 359.627404 303.852807 
L 360.08795 303.396838 
L 360.302871 303.453232 
L 360.548496 303.791759 
L 361.009042 304.92674 
L 361.490057 305.880415 
L 361.766385 306.013872 
L 362.022244 305.875327 
L 362.452087 305.321299 
L 363.076383 304.598685 
L 363.393648 304.542882 
L 364.069116 304.562872 
L 364.304507 304.174445 
L 364.662709 303.05058 
L 365.174427 301.592731 
L 365.36888 301.525882 
L 365.542864 301.747407 
L 365.849895 302.596853 
L 366.463957 304.256653 
L 366.709581 304.410446 
L 366.914269 304.281578 
L 367.272471 303.710968 
L 367.722783 303.127233 
L 367.958174 303.130643 
L 368.275439 303.412869 
L 368.715516 303.738319 
L 368.971375 303.653436 
L 369.831062 303.156188 
L 370.230202 303.427077 
L 371.263872 304.121997 
L 371.970043 304.689967 
L 372.850198 305.624005 
L 373.054885 305.397952 
L 373.372151 304.629333 
L 373.924806 303.360799 
L 374.129493 303.317807 
L 374.33418 303.545909 
L 374.733321 304.436711 
L 375.326914 305.609375 
L 375.726054 305.949871 
L 376.094491 305.982106 
L 376.575506 305.77239 
L 377.117927 305.308975 
L 378.172066 304.221957 
L 378.397222 304.452917 
L 378.816831 305.298049 
L 379.287611 306.049605 
L 379.615111 306.184168 
L 380.822765 306.35969 
L 381.979248 306.740097 
L 382.951513 307.436513 
L 383.381356 307.411215 
L 384.107995 307.076465 
L 384.936979 306.845 
L 385.71479 306.451246 
L 386.134399 306.400263 
L 386.533539 306.593043 
L 387.690022 307.31566 
L 388.03799 307.168645 
L 388.508771 306.679333 
L 389.214942 305.986516 
L 389.552675 305.953098 
L 389.921112 306.163781 
L 391.446032 307.255316 
L 392.1215 307.526805 
L 392.991421 307.582921 
L 398.487273 307.584 
L 398.487273 307.584 
" style="fill:none;stroke:#ff7f0e;stroke-linecap:square;stroke-width:1.5;"/>
   </g>
   <g id="patch_103">
    <path d="M 57.6 307.584 
L 57.6 41.472 
" style="fill:none;stroke:#000000;stroke-linecap:square;stroke-linejoin:miter;stroke-width:0.8;"/>
   </g>
   <g id="patch_104">
    <path d="M 414.72 307.584 
L 414.72 41.472 
" style="fill:none;stroke:#000000;stroke-linecap:square;stroke-linejoin:miter;stroke-width:0.8;"/>
   </g>
   <g id="patch_105">
    <path d="M 57.6 307.584 
L 414.72 307.584 
" style="fill:none;stroke:#000000;stroke-linecap:square;stroke-linejoin:miter;stroke-width:0.8;"/>
   </g>
   <g id="patch_106">
    <path d="M 57.6 41.472 
L 414.72 41.472 
" style="fill:none;stroke:#000000;stroke-linecap:square;stroke-linejoin:miter;stroke-width:0.8;"/>
   </g>
  </g>
 </g>
 <defs>
  <clipPath id="pd32c232e33">
   <rect height="266.112" width="357.12" x="57.6" y="41.472"/>
  </clipPath>
 </defs>
</svg>
