<?xml version="1.0" encoding="utf-8" standalone="no"?>
<!DOCTYPE svg PUBLIC "-//W3C//DTD SVG 1.1//EN"
  "http://www.w3.org/Graphics/SVG/1.1/DTD/svg11.dtd">
<!-- Created with matplotlib (https://matplotlib.org/) -->
<svg height="345.6pt" version="1.1" viewBox="0 0 460.8 345.6" width="460.8pt" xmlns="http://www.w3.org/2000/svg" xmlns:xlink="http://www.w3.org/1999/xlink">
 <defs>
  <style type="text/css">
*{stroke-linecap:butt;stroke-linejoin:round;}
  </style>
 </defs>
 <g id="figure_1">
  <g id="patch_1">
   <path d="M 0 345.6 
L 460.8 345.6 
L 460.8 0 
L 0 0 
z
" style="fill:#ffffff;"/>
  </g>
  <g id="axes_1">
   <g id="patch_2">
    <path d="M 57.6 307.584 
L 414.72 307.584 
L 414.72 41.472 
L 57.6 41.472 
z
" style="fill:#ffffff;"/>
   </g>
   <g id="patch_3">
    <path clip-path="url(#p7d835565b1)" d="M 73.832727 307.584 
L 77.079269 307.584 
L 77.079269 306.680206 
L 73.832727 306.680206 
z
" style="fill:#1f77b4;"/>
   </g>
   <g id="patch_4">
    <path clip-path="url(#p7d835565b1)" d="M 77.079269 307.584 
L 80.325823 307.584 
L 80.325823 307.222484 
L 77.079269 307.222484 
z
" style="fill:#1f77b4;"/>
   </g>
   <g id="patch_5">
    <path clip-path="url(#p7d835565b1)" d="M 80.325823 307.584 
L 83.572365 307.584 
L 83.572365 305.957172 
L 80.325823 305.957172 
z
" style="fill:#1f77b4;"/>
   </g>
   <g id="patch_6">
    <path clip-path="url(#p7d835565b1)" d="M 83.572365 307.584 
L 86.818906 307.584 
L 86.818906 305.776413 
L 83.572365 305.776413 
z
" style="fill:#1f77b4;"/>
   </g>
   <g id="patch_7">
    <path clip-path="url(#p7d835565b1)" d="M 86.818919 307.584 
L 90.065473 307.584 
L 90.065473 304.511114 
L 86.818919 304.511114 
z
" style="fill:#1f77b4;"/>
   </g>
   <g id="patch_8">
    <path clip-path="url(#p7d835565b1)" d="M 90.06546 307.584 
L 93.312002 307.584 
L 93.312002 305.957172 
L 90.06546 305.957172 
z
" style="fill:#1f77b4;"/>
   </g>
   <g id="patch_9">
    <path clip-path="url(#p7d835565b1)" d="M 93.312002 307.584 
L 96.558543 307.584 
L 96.558543 307.222483 
L 93.312002 307.222483 
z
" style="fill:#1f77b4;"/>
   </g>
   <g id="patch_10">
    <path clip-path="url(#p7d835565b1)" d="M 96.558543 307.584 
L 99.805085 307.584 
L 99.805085 307.222483 
L 96.558543 307.222483 
z
" style="fill:#1f77b4;"/>
   </g>
   <g id="patch_11">
    <path clip-path="url(#p7d835565b1)" d="M 99.805085 307.584 
L 103.051639 307.584 
L 103.051639 306.137936 
L 99.805085 306.137936 
z
" style="fill:#1f77b4;"/>
   </g>
   <g id="patch_12">
    <path clip-path="url(#p7d835565b1)" d="M 103.051639 307.584 
L 106.298181 307.584 
L 106.298181 304.872619 
L 103.051639 304.872619 
z
" style="fill:#1f77b4;"/>
   </g>
   <g id="patch_13">
    <path clip-path="url(#p7d835565b1)" d="M 106.298181 307.584 
L 109.544722 307.584 
L 109.544722 305.776413 
L 106.298181 305.776413 
z
" style="fill:#1f77b4;"/>
   </g>
   <g id="patch_14">
    <path clip-path="url(#p7d835565b1)" d="M 109.544735 307.584 
L 112.791289 307.584 
L 112.791289 305.414904 
L 109.544735 305.414904 
z
" style="fill:#1f77b4;"/>
   </g>
   <g id="patch_15">
    <path clip-path="url(#p7d835565b1)" d="M 112.791276 307.584 
L 116.037818 307.584 
L 116.037818 304.69186 
L 112.791276 304.69186 
z
" style="fill:#1f77b4;"/>
   </g>
   <g id="patch_16">
    <path clip-path="url(#p7d835565b1)" d="M 116.037818 307.584 
L 119.284359 307.584 
L 119.284359 303.065032 
L 116.037818 303.065032 
z
" style="fill:#1f77b4;"/>
   </g>
   <g id="patch_17">
    <path clip-path="url(#p7d835565b1)" d="M 119.284359 307.584 
L 122.530914 307.584 
L 122.530914 301.076711 
L 119.284359 301.076711 
z
" style="fill:#1f77b4;"/>
   </g>
   <g id="patch_18">
    <path clip-path="url(#p7d835565b1)" d="M 122.530914 307.584 
L 125.777455 307.584 
L 125.777455 300.715169 
L 122.530914 300.715169 
z
" style="fill:#1f77b4;"/>
   </g>
   <g id="patch_19">
    <path clip-path="url(#p7d835565b1)" d="M 125.777455 307.584 
L 129.023997 307.584 
L 129.023997 300.53441 
L 125.777455 300.53441 
z
" style="fill:#1f77b4;"/>
   </g>
   <g id="patch_20">
    <path clip-path="url(#p7d835565b1)" d="M 129.023997 307.584 
L 132.270544 307.584 
L 132.270544 301.438215 
L 129.023997 301.438215 
z
" style="fill:#1f77b4;"/>
   </g>
   <g id="patch_21">
    <path clip-path="url(#p7d835565b1)" d="M 132.270551 307.584 
L 135.517099 307.584 
L 135.517099 297.461531 
L 132.270551 297.461531 
z
" style="fill:#1f77b4;"/>
   </g>
   <g id="patch_22">
    <path clip-path="url(#p7d835565b1)" d="M 135.517092 307.584 
L 138.763634 307.584 
L 138.763634 299.811375 
L 135.517092 299.811375 
z
" style="fill:#1f77b4;"/>
   </g>
   <g id="patch_23">
    <path clip-path="url(#p7d835565b1)" d="M 138.763634 307.584 
L 142.010182 307.584 
L 142.010182 294.027122 
L 138.763634 294.027122 
z
" style="fill:#1f77b4;"/>
   </g>
   <g id="patch_24">
    <path clip-path="url(#p7d835565b1)" d="M 142.010188 307.584 
L 145.256736 307.584 
L 145.256736 294.207881 
L 142.010188 294.207881 
z
" style="fill:#1f77b4;"/>
   </g>
   <g id="patch_25">
    <path clip-path="url(#p7d835565b1)" d="M 145.25673 307.584 
L 148.503271 307.584 
L 148.503271 292.219509 
L 145.25673 292.219509 
z
" style="fill:#1f77b4;"/>
   </g>
   <g id="patch_26">
    <path clip-path="url(#p7d835565b1)" d="M 148.503271 307.584 
L 151.749819 307.584 
L 151.749819 289.146646 
L 148.503271 289.146646 
z
" style="fill:#1f77b4;"/>
   </g>
   <g id="patch_27">
    <path clip-path="url(#p7d835565b1)" d="M 151.749825 307.584 
L 154.996373 307.584 
L 154.996373 288.78513 
L 151.749825 288.78513 
z
" style="fill:#1f77b4;"/>
   </g>
   <g id="patch_28">
    <path clip-path="url(#p7d835565b1)" d="M 154.996367 307.584 
L 158.242908 307.584 
L 158.242908 282.277779 
L 154.996367 282.277779 
z
" style="fill:#1f77b4;"/>
   </g>
   <g id="patch_29">
    <path clip-path="url(#p7d835565b1)" d="M 158.242908 307.584 
L 161.489456 307.584 
L 161.489456 284.446929 
L 158.242908 284.446929 
z
" style="fill:#1f77b4;"/>
   </g>
   <g id="patch_30">
    <path clip-path="url(#p7d835565b1)" d="M 161.489456 307.584 
L 164.735998 307.584 
L 164.735998 282.277779 
L 161.489456 282.277779 
z
" style="fill:#1f77b4;"/>
   </g>
   <g id="patch_31">
    <path clip-path="url(#p7d835565b1)" d="M 164.736004 307.584 
L 167.982552 307.584 
L 167.982552 283.18162 
L 164.736004 283.18162 
z
" style="fill:#1f77b4;"/>
   </g>
   <g id="patch_32">
    <path clip-path="url(#p7d835565b1)" d="M 167.982546 307.584 
L 171.229093 307.584 
L 171.229093 277.216594 
L 167.982546 277.216594 
z
" style="fill:#1f77b4;"/>
   </g>
   <g id="patch_33">
    <path clip-path="url(#p7d835565b1)" d="M 171.229093 307.584 
L 174.475635 307.584 
L 174.475635 276.4935 
L 171.229093 276.4935 
z
" style="fill:#1f77b4;"/>
   </g>
   <g id="patch_34">
    <path clip-path="url(#p7d835565b1)" d="M 174.475641 307.584 
L 177.722189 307.584 
L 177.722189 282.09707 
L 174.475641 282.09707 
z
" style="fill:#1f77b4;"/>
   </g>
   <g id="patch_35">
    <path clip-path="url(#p7d835565b1)" d="M 177.722183 307.584 
L 180.968724 307.584 
L 180.968724 277.578052 
L 177.722183 277.578052 
z
" style="fill:#1f77b4;"/>
   </g>
   <g id="patch_36">
    <path clip-path="url(#p7d835565b1)" d="M 180.968724 307.584 
L 184.215272 307.584 
L 184.215272 268.178676 
L 180.968724 268.178676 
z
" style="fill:#1f77b4;"/>
   </g>
   <g id="patch_37">
    <path clip-path="url(#p7d835565b1)" d="M 184.215272 307.584 
L 187.461817 307.584 
L 187.461817 262.755881 
L 184.215272 262.755881 
z
" style="fill:#1f77b4;"/>
   </g>
   <g id="patch_38">
    <path clip-path="url(#p7d835565b1)" d="M 187.461817 307.584 
L 190.708365 307.584 
L 190.708365 259.863791 
L 187.461817 259.863791 
z
" style="fill:#1f77b4;"/>
   </g>
   <g id="patch_39">
    <path clip-path="url(#p7d835565b1)" d="M 190.708368 307.584 
L 193.954913 307.584 
L 193.954913 256.971607 
L 190.708368 256.971607 
z
" style="fill:#1f77b4;"/>
   </g>
   <g id="patch_40">
    <path clip-path="url(#p7d835565b1)" d="M 193.954909 307.584 
L 197.201454 307.584 
L 197.201454 245.945336 
L 193.954909 245.945336 
z
" style="fill:#1f77b4;"/>
   </g>
   <g id="patch_41">
    <path clip-path="url(#p7d835565b1)" d="M 197.201457 307.584 
L 200.448002 307.584 
L 200.448002 232.388445 
L 197.201457 232.388445 
z
" style="fill:#1f77b4;"/>
   </g>
   <g id="patch_42">
    <path clip-path="url(#p7d835565b1)" d="M 200.447999 307.584 
L 203.694547 307.584 
L 203.694547 237.630511 
L 200.447999 237.630511 
z
" style="fill:#1f77b4;"/>
   </g>
   <g id="patch_43">
    <path clip-path="url(#p7d835565b1)" d="M 203.694547 307.584 
L 206.941091 307.584 
L 206.941091 229.857826 
L 203.694547 229.857826 
z
" style="fill:#1f77b4;"/>
   </g>
   <g id="patch_44">
    <path clip-path="url(#p7d835565b1)" d="M 206.941095 307.584 
L 210.187639 307.584 
L 210.187639 233.834514 
L 206.941095 233.834514 
z
" style="fill:#1f77b4;"/>
   </g>
   <g id="patch_45">
    <path clip-path="url(#p7d835565b1)" d="M 210.187636 307.584 
L 213.434182 307.584 
L 213.434182 228.773313 
L 210.187636 228.773313 
z
" style="fill:#1f77b4;"/>
   </g>
   <g id="patch_46">
    <path clip-path="url(#p7d835565b1)" d="M 213.434182 307.584 
L 216.680727 307.584 
L 216.680727 220.819898 
L 213.434182 220.819898 
z
" style="fill:#1f77b4;"/>
   </g>
   <g id="patch_47">
    <path clip-path="url(#p7d835565b1)" d="M 216.680725 307.584 
L 219.927272 307.584 
L 219.927272 223.350559 
L 216.680725 223.350559 
z
" style="fill:#1f77b4;"/>
   </g>
   <g id="patch_48">
    <path clip-path="url(#p7d835565b1)" d="M 219.927273 307.584 
L 223.173818 307.584 
L 223.173818 210.878178 
L 219.927273 210.878178 
z
" style="fill:#1f77b4;"/>
   </g>
   <g id="patch_49">
    <path clip-path="url(#p7d835565b1)" d="M 223.173818 307.584 
L 226.420364 307.584 
L 226.420364 206.901515 
L 223.173818 206.901515 
z
" style="fill:#1f77b4;"/>
   </g>
   <g id="patch_50">
    <path clip-path="url(#p7d835565b1)" d="M 226.420364 307.584 
L 229.66691 307.584 
L 229.66691 204.732413 
L 226.420364 204.732413 
z
" style="fill:#1f77b4;"/>
   </g>
   <g id="patch_51">
    <path clip-path="url(#p7d835565b1)" d="M 229.666909 307.584 
L 232.913455 307.584 
L 232.913455 196.779039 
L 229.666909 196.779039 
z
" style="fill:#1f77b4;"/>
   </g>
   <g id="patch_52">
    <path clip-path="url(#p7d835565b1)" d="M 232.913455 307.584 
L 236.16 307.584 
L 236.16 192.621593 
L 232.913455 192.621593 
z
" style="fill:#1f77b4;"/>
   </g>
   <g id="patch_53">
    <path clip-path="url(#p7d835565b1)" d="M 236.16 307.584 
L 239.406545 307.584 
L 239.406545 136.044182 
L 236.16 136.044182 
z
" style="fill:#1f77b4;"/>
   </g>
   <g id="patch_54">
    <path clip-path="url(#p7d835565b1)" d="M 239.406545 307.584 
L 242.653091 307.584 
L 242.653091 200.394209 
L 239.406545 200.394209 
z
" style="fill:#1f77b4;"/>
   </g>
   <g id="patch_55">
    <path clip-path="url(#p7d835565b1)" d="M 242.653091 307.584 
L 245.899636 307.584 
L 245.899636 204.009379 
L 242.653091 204.009379 
z
" style="fill:#1f77b4;"/>
   </g>
   <g id="patch_56">
    <path clip-path="url(#p7d835565b1)" d="M 245.899637 307.584 
L 249.146183 307.584 
L 249.146183 213.047304 
L 245.899637 213.047304 
z
" style="fill:#1f77b4;"/>
   </g>
   <g id="patch_57">
    <path clip-path="url(#p7d835565b1)" d="M 249.146182 307.584 
L 252.392727 307.584 
L 252.392727 230.219343 
L 249.146182 230.219343 
z
" style="fill:#1f77b4;"/>
   </g>
   <g id="patch_58">
    <path clip-path="url(#p7d835565b1)" d="M 252.392727 307.584 
L 255.639273 307.584 
L 255.639273 240.703371 
L 252.392727 240.703371 
z
" style="fill:#1f77b4;"/>
   </g>
   <g id="patch_59">
    <path clip-path="url(#p7d835565b1)" d="M 255.639273 307.584 
L 258.885818 307.584 
L 258.885818 243.053199 
L 255.639273 243.053199 
z
" style="fill:#1f77b4;"/>
   </g>
   <g id="patch_60">
    <path clip-path="url(#p7d835565b1)" d="M 258.885816 307.584 
L 262.132362 307.584 
L 262.132362 239.076545 
L 258.885816 239.076545 
z
" style="fill:#1f77b4;"/>
   </g>
   <g id="patch_61">
    <path clip-path="url(#p7d835565b1)" d="M 262.132362 307.584 
L 265.378905 307.584 
L 265.378905 247.572163 
L 262.132362 247.572163 
z
" style="fill:#1f77b4;"/>
   </g>
   <g id="patch_62">
    <path clip-path="url(#p7d835565b1)" d="M 265.378912 307.584 
L 268.625456 307.584 
L 268.625456 253.898712 
L 265.378912 253.898712 
z
" style="fill:#1f77b4;"/>
   </g>
   <g id="patch_63">
    <path clip-path="url(#p7d835565b1)" d="M 268.625453 307.584 
L 271.872001 307.584 
L 271.872001 255.344831 
L 268.625453 255.344831 
z
" style="fill:#1f77b4;"/>
   </g>
   <g id="patch_64">
    <path clip-path="url(#p7d835565b1)" d="M 271.872001 307.584 
L 275.118546 307.584 
L 275.118546 254.260229 
L 271.872001 254.260229 
z
" style="fill:#1f77b4;"/>
   </g>
   <g id="patch_65">
    <path clip-path="url(#p7d835565b1)" d="M 275.118549 307.584 
L 278.365094 307.584 
L 278.365094 253.175678 
L 275.118549 253.175678 
z
" style="fill:#1f77b4;"/>
   </g>
   <g id="patch_66">
    <path clip-path="url(#p7d835565b1)" d="M 278.365091 307.584 
L 281.611635 307.584 
L 281.611635 256.248573 
L 278.365091 256.248573 
z
" style="fill:#1f77b4;"/>
   </g>
   <g id="patch_67">
    <path clip-path="url(#p7d835565b1)" d="M 281.611635 307.584 
L 284.858183 307.584 
L 284.858183 256.790898 
L 281.611635 256.790898 
z
" style="fill:#1f77b4;"/>
   </g>
   <g id="patch_68">
    <path clip-path="url(#p7d835565b1)" d="M 284.858186 307.584 
L 288.104731 307.584 
L 288.104731 268.178637 
L 284.858186 268.178637 
z
" style="fill:#1f77b4;"/>
   </g>
   <g id="patch_69">
    <path clip-path="url(#p7d835565b1)" d="M 288.104728 307.584 
L 291.351276 307.584 
L 291.351276 275.951286 
L 288.104728 275.951286 
z
" style="fill:#1f77b4;"/>
   </g>
   <g id="patch_70">
    <path clip-path="url(#p7d835565b1)" d="M 291.351276 307.584 
L 294.597817 307.584 
L 294.597817 278.301087 
L 291.351276 278.301087 
z
" style="fill:#1f77b4;"/>
   </g>
   <g id="patch_71">
    <path clip-path="url(#p7d835565b1)" d="M 294.597817 307.584 
L 297.844365 307.584 
L 297.844365 273.420668 
L 294.597817 273.420668 
z
" style="fill:#1f77b4;"/>
   </g>
   <g id="patch_72">
    <path clip-path="url(#p7d835565b1)" d="M 297.844365 307.584 
L 301.090907 307.584 
L 301.090907 281.012468 
L 297.844365 281.012468 
z
" style="fill:#1f77b4;"/>
   </g>
   <g id="patch_73">
    <path clip-path="url(#p7d835565b1)" d="M 301.090913 307.584 
L 304.337461 307.584 
L 304.337461 285.712237 
L 301.090913 285.712237 
z
" style="fill:#1f77b4;"/>
   </g>
   <g id="patch_74">
    <path clip-path="url(#p7d835565b1)" d="M 304.337454 307.584 
L 307.584002 307.584 
L 307.584002 287.158304 
L 304.337454 287.158304 
z
" style="fill:#1f77b4;"/>
   </g>
   <g id="patch_75">
    <path clip-path="url(#p7d835565b1)" d="M 307.584002 307.584 
L 310.830544 307.584 
L 310.830544 289.688887 
L 307.584002 289.688887 
z
" style="fill:#1f77b4;"/>
   </g>
   <g id="patch_76">
    <path clip-path="url(#p7d835565b1)" d="M 310.83055 307.584 
L 314.077098 307.584 
L 314.077098 288.062096 
L 310.83055 288.062096 
z
" style="fill:#1f77b4;"/>
   </g>
   <g id="patch_77">
    <path clip-path="url(#p7d835565b1)" d="M 314.077092 307.584 
L 317.323633 307.584 
L 317.323633 288.423575 
L 314.077092 288.423575 
z
" style="fill:#1f77b4;"/>
   </g>
   <g id="patch_78">
    <path clip-path="url(#p7d835565b1)" d="M 317.323633 307.584 
L 320.570181 307.584 
L 320.570181 294.750156 
L 317.323633 294.750156 
z
" style="fill:#1f77b4;"/>
   </g>
   <g id="patch_79">
    <path clip-path="url(#p7d835565b1)" d="M 320.570187 307.584 
L 323.816735 307.584 
L 323.816735 295.111673 
L 320.570187 295.111673 
z
" style="fill:#1f77b4;"/>
   </g>
   <g id="patch_80">
    <path clip-path="url(#p7d835565b1)" d="M 323.816729 307.584 
L 327.06327 307.584 
L 327.06327 297.823029 
L 323.816729 297.823029 
z
" style="fill:#1f77b4;"/>
   </g>
   <g id="patch_81">
    <path clip-path="url(#p7d835565b1)" d="M 327.06327 307.584 
L 330.309818 307.584 
L 330.309818 297.280773 
L 327.06327 297.280773 
z
" style="fill:#1f77b4;"/>
   </g>
   <g id="patch_82">
    <path clip-path="url(#p7d835565b1)" d="M 330.309825 307.584 
L 333.556373 307.584 
L 333.556373 300.89594 
L 330.309825 300.89594 
z
" style="fill:#1f77b4;"/>
   </g>
   <g id="patch_83">
    <path clip-path="url(#p7d835565b1)" d="M 333.556366 307.584 
L 336.802908 307.584 
L 336.802908 302.341997 
L 333.556366 302.341997 
z
" style="fill:#1f77b4;"/>
   </g>
   <g id="patch_84">
    <path clip-path="url(#p7d835565b1)" d="M 336.802908 307.584 
L 340.049456 307.584 
L 340.049456 304.330349 
L 336.802908 304.330349 
z
" style="fill:#1f77b4;"/>
   </g>
   <g id="patch_85">
    <path clip-path="url(#p7d835565b1)" d="M 340.049462 307.584 
L 343.296003 307.584 
L 343.296003 302.884282 
L 340.049462 302.884282 
z
" style="fill:#1f77b4;"/>
   </g>
   <g id="patch_86">
    <path clip-path="url(#p7d835565b1)" d="M 343.296003 307.584 
L 346.542545 307.584 
L 346.542545 303.065032 
L 343.296003 303.065032 
z
" style="fill:#1f77b4;"/>
   </g>
   <g id="patch_87">
    <path clip-path="url(#p7d835565b1)" d="M 346.542545 307.584 
L 349.789086 307.584 
L 349.789086 304.69186 
L 346.542545 304.69186 
z
" style="fill:#1f77b4;"/>
   </g>
   <g id="patch_88">
    <path clip-path="url(#p7d835565b1)" d="M 349.789086 307.584 
L 353.035641 307.584 
L 353.035641 305.053388 
L 349.789086 305.053388 
z
" style="fill:#1f77b4;"/>
   </g>
   <g id="patch_89">
    <path clip-path="url(#p7d835565b1)" d="M 353.035641 307.584 
L 356.282182 307.584 
L 356.282182 305.053378 
L 353.035641 305.053378 
z
" style="fill:#1f77b4;"/>
   </g>
   <g id="patch_90">
    <path clip-path="url(#p7d835565b1)" d="M 356.282182 307.584 
L 359.528724 307.584 
L 359.528724 305.776413 
L 356.282182 305.776413 
z
" style="fill:#1f77b4;"/>
   </g>
   <g id="patch_91">
    <path clip-path="url(#p7d835565b1)" d="M 359.528736 307.584 
L 362.775291 307.584 
L 362.775291 305.77642 
L 359.528736 305.77642 
z
" style="fill:#1f77b4;"/>
   </g>
   <g id="patch_92">
    <path clip-path="url(#p7d835565b1)" d="M 362.775278 307.584 
L 366.021819 307.584 
L 366.021819 305.776413 
L 362.775278 305.776413 
z
" style="fill:#1f77b4;"/>
   </g>
   <g id="patch_93">
    <path clip-path="url(#p7d835565b1)" d="M 366.021819 307.584 
L 369.268361 307.584 
L 369.268361 305.957172 
L 366.021819 305.957172 
z
" style="fill:#1f77b4;"/>
   </g>
   <g id="patch_94">
    <path clip-path="url(#p7d835565b1)" d="M 369.268361 307.584 
L 372.514915 307.584 
L 372.514915 305.234146 
L 369.268361 305.234146 
z
" style="fill:#1f77b4;"/>
   </g>
   <g id="patch_95">
    <path clip-path="url(#p7d835565b1)" d="M 372.514915 307.584 
L 375.761457 307.584 
L 375.761457 306.13793 
L 372.514915 306.13793 
z
" style="fill:#1f77b4;"/>
   </g>
   <g id="patch_96">
    <path clip-path="url(#p7d835565b1)" d="M 375.761457 307.584 
L 379.007998 307.584 
L 379.007998 306.860965 
L 375.761457 306.860965 
z
" style="fill:#1f77b4;"/>
   </g>
   <g id="patch_97">
    <path clip-path="url(#p7d835565b1)" d="M 379.007998 307.584 
L 382.25454 307.584 
L 382.25454 306.860965 
L 379.007998 306.860965 
z
" style="fill:#1f77b4;"/>
   </g>
   <g id="patch_98">
    <path clip-path="url(#p7d835565b1)" d="M 382.254552 307.584 
L 385.501107 307.584 
L 385.501107 306.68021 
L 382.254552 306.68021 
z
" style="fill:#1f77b4;"/>
   </g>
   <g id="patch_99">
    <path clip-path="url(#p7d835565b1)" d="M 385.501094 307.584 
L 388.747635 307.584 
L 388.747635 307.403241 
L 385.501094 307.403241 
z
" style="fill:#1f77b4;"/>
   </g>
   <g id="patch_100">
    <path clip-path="url(#p7d835565b1)" d="M 388.747635 307.584 
L 391.994177 307.584 
L 391.994177 307.222483 
L 388.747635 307.222483 
z
" style="fill:#1f77b4;"/>
   </g>
   <g id="patch_101">
    <path clip-path="url(#p7d835565b1)" d="M 391.994177 307.584 
L 395.240731 307.584 
L 395.240731 307.584 
L 391.994177 307.584 
z
" style="fill:#1f77b4;"/>
   </g>
   <g id="patch_102">
    <path clip-path="url(#p7d835565b1)" d="M 395.240731 307.584 
L 398.487273 307.584 
L 398.487273 307.041724 
L 395.240731 307.041724 
z
" style="fill:#1f77b4;"/>
   </g>
   <g id="matplotlib.axis_1">
    <g id="xtick_1">
     <g id="line2d_1">
      <defs>
       <path d="M 0 0 
L 0 3.5 
" id="m72df806a41" style="stroke:#000000;stroke-width:0.8;"/>
      </defs>
      <g>
       <use style="stroke:#000000;stroke-width:0.8;" x="76.72684" xlink:href="#m72df806a41" y="307.584"/>
      </g>
     </g>
     <g id="text_1">
      <!-- −3 -->
      <defs>
       <path d="M 10.59375 35.5 
L 73.1875 35.5 
L 73.1875 27.203125 
L 10.59375 27.203125 
z
" id="DejaVuSans-8722"/>
       <path d="M 40.578125 39.3125 
Q 47.65625 37.796875 51.625 33 
Q 55.609375 28.21875 55.609375 21.1875 
Q 55.609375 10.40625 48.1875 4.484375 
Q 40.765625 -1.421875 27.09375 -1.421875 
Q 22.515625 -1.421875 17.65625 -0.515625 
Q 12.796875 0.390625 7.625 2.203125 
L 7.625 11.71875 
Q 11.71875 9.328125 16.59375 8.109375 
Q 21.484375 6.890625 26.8125 6.890625 
Q 36.078125 6.890625 40.9375 10.546875 
Q 45.796875 14.203125 45.796875 21.1875 
Q 45.796875 27.640625 41.28125 31.265625 
Q 36.765625 34.90625 28.71875 34.90625 
L 20.21875 34.90625 
L 20.21875 43.015625 
L 29.109375 43.015625 
Q 36.375 43.015625 40.234375 45.921875 
Q 44.09375 48.828125 44.09375 54.296875 
Q 44.09375 59.90625 40.109375 62.90625 
Q 36.140625 65.921875 28.71875 65.921875 
Q 24.65625 65.921875 20.015625 65.03125 
Q 15.375 64.15625 9.8125 62.3125 
L 9.8125 71.09375 
Q 15.4375 72.65625 20.34375 73.4375 
Q 25.25 74.21875 29.59375 74.21875 
Q 40.828125 74.21875 47.359375 69.109375 
Q 53.90625 64.015625 53.90625 55.328125 
Q 53.90625 49.265625 50.4375 45.09375 
Q 46.96875 40.921875 40.578125 39.3125 
z
" id="DejaVuSans-51"/>
      </defs>
      <g transform="translate(64.195981 327.501344)scale(0.17 -0.17)">
       <use xlink:href="#DejaVuSans-8722"/>
       <use x="83.789062" xlink:href="#DejaVuSans-51"/>
      </g>
     </g>
    </g>
    <g id="xtick_2">
     <g id="line2d_2">
      <g>
       <use style="stroke:#000000;stroke-width:0.8;" x="129.998917" xlink:href="#m72df806a41" y="307.584"/>
      </g>
     </g>
     <g id="text_2">
      <!-- −2 -->
      <defs>
       <path d="M 19.1875 8.296875 
L 53.609375 8.296875 
L 53.609375 0 
L 7.328125 0 
L 7.328125 8.296875 
Q 12.9375 14.109375 22.625 23.890625 
Q 32.328125 33.6875 34.8125 36.53125 
Q 39.546875 41.84375 41.421875 45.53125 
Q 43.3125 49.21875 43.3125 52.78125 
Q 43.3125 58.59375 39.234375 62.25 
Q 35.15625 65.921875 28.609375 65.921875 
Q 23.96875 65.921875 18.8125 64.3125 
Q 13.671875 62.703125 7.8125 59.421875 
L 7.8125 69.390625 
Q 13.765625 71.78125 18.9375 73 
Q 24.125 74.21875 28.421875 74.21875 
Q 39.75 74.21875 46.484375 68.546875 
Q 53.21875 62.890625 53.21875 53.421875 
Q 53.21875 48.921875 51.53125 44.890625 
Q 49.859375 40.875 45.40625 35.40625 
Q 44.1875 33.984375 37.640625 27.21875 
Q 31.109375 20.453125 19.1875 8.296875 
z
" id="DejaVuSans-50"/>
      </defs>
      <g transform="translate(117.468057 327.501344)scale(0.17 -0.17)">
       <use xlink:href="#DejaVuSans-8722"/>
       <use x="83.789062" xlink:href="#DejaVuSans-50"/>
      </g>
     </g>
    </g>
    <g id="xtick_3">
     <g id="line2d_3">
      <g>
       <use style="stroke:#000000;stroke-width:0.8;" x="183.270993" xlink:href="#m72df806a41" y="307.584"/>
      </g>
     </g>
     <g id="text_3">
      <!-- −1 -->
      <defs>
       <path d="M 12.40625 8.296875 
L 28.515625 8.296875 
L 28.515625 63.921875 
L 10.984375 60.40625 
L 10.984375 69.390625 
L 28.421875 72.90625 
L 38.28125 72.90625 
L 38.28125 8.296875 
L 54.390625 8.296875 
L 54.390625 0 
L 12.40625 0 
z
" id="DejaVuSans-49"/>
      </defs>
      <g transform="translate(170.740134 327.501344)scale(0.17 -0.17)">
       <use xlink:href="#DejaVuSans-8722"/>
       <use x="83.789062" xlink:href="#DejaVuSans-49"/>
      </g>
     </g>
    </g>
    <g id="xtick_4">
     <g id="line2d_4">
      <g>
       <use style="stroke:#000000;stroke-width:0.8;" x="236.54307" xlink:href="#m72df806a41" y="307.584"/>
      </g>
     </g>
     <g id="text_4">
      <!-- 0 -->
      <defs>
       <path d="M 31.78125 66.40625 
Q 24.171875 66.40625 20.328125 58.90625 
Q 16.5 51.421875 16.5 36.375 
Q 16.5 21.390625 20.328125 13.890625 
Q 24.171875 6.390625 31.78125 6.390625 
Q 39.453125 6.390625 43.28125 13.890625 
Q 47.125 21.390625 47.125 36.375 
Q 47.125 51.421875 43.28125 58.90625 
Q 39.453125 66.40625 31.78125 66.40625 
z
M 31.78125 74.21875 
Q 44.046875 74.21875 50.515625 64.515625 
Q 56.984375 54.828125 56.984375 36.375 
Q 56.984375 17.96875 50.515625 8.265625 
Q 44.046875 -1.421875 31.78125 -1.421875 
Q 19.53125 -1.421875 13.0625 8.265625 
Q 6.59375 17.96875 6.59375 36.375 
Q 6.59375 54.828125 13.0625 64.515625 
Q 19.53125 74.21875 31.78125 74.21875 
z
" id="DejaVuSans-48"/>
      </defs>
      <g transform="translate(231.134945 327.501344)scale(0.17 -0.17)">
       <use xlink:href="#DejaVuSans-48"/>
      </g>
     </g>
    </g>
    <g id="xtick_5">
     <g id="line2d_5">
      <g>
       <use style="stroke:#000000;stroke-width:0.8;" x="289.815147" xlink:href="#m72df806a41" y="307.584"/>
      </g>
     </g>
     <g id="text_5">
      <!-- 1 -->
      <g transform="translate(284.407022 327.501344)scale(0.17 -0.17)">
       <use xlink:href="#DejaVuSans-49"/>
      </g>
     </g>
    </g>
    <g id="xtick_6">
     <g id="line2d_6">
      <g>
       <use style="stroke:#000000;stroke-width:0.8;" x="343.087224" xlink:href="#m72df806a41" y="307.584"/>
      </g>
     </g>
     <g id="text_6">
      <!-- 2 -->
      <g transform="translate(337.679099 327.501344)scale(0.17 -0.17)">
       <use xlink:href="#DejaVuSans-50"/>
      </g>
     </g>
    </g>
    <g id="xtick_7">
     <g id="line2d_7">
      <g>
       <use style="stroke:#000000;stroke-width:0.8;" x="396.3593" xlink:href="#m72df806a41" y="307.584"/>
      </g>
     </g>
     <g id="text_7">
      <!-- 3 -->
      <g transform="translate(390.951175 327.501344)scale(0.17 -0.17)">
       <use xlink:href="#DejaVuSans-51"/>
      </g>
     </g>
    </g>
    <g id="text_8">
     <!-- Position in Radian -->
     <defs>
      <path d="M 19.671875 64.796875 
L 19.671875 37.40625 
L 32.078125 37.40625 
Q 38.96875 37.40625 42.71875 40.96875 
Q 46.484375 44.53125 46.484375 51.125 
Q 46.484375 57.671875 42.71875 61.234375 
Q 38.96875 64.796875 32.078125 64.796875 
z
M 9.8125 72.90625 
L 32.078125 72.90625 
Q 44.34375 72.90625 50.609375 67.359375 
Q 56.890625 61.8125 56.890625 51.125 
Q 56.890625 40.328125 50.609375 34.8125 
Q 44.34375 29.296875 32.078125 29.296875 
L 19.671875 29.296875 
L 19.671875 0 
L 9.8125 0 
z
" id="DejaVuSans-80"/>
      <path d="M 30.609375 48.390625 
Q 23.390625 48.390625 19.1875 42.75 
Q 14.984375 37.109375 14.984375 27.296875 
Q 14.984375 17.484375 19.15625 11.84375 
Q 23.34375 6.203125 30.609375 6.203125 
Q 37.796875 6.203125 41.984375 11.859375 
Q 46.1875 17.53125 46.1875 27.296875 
Q 46.1875 37.015625 41.984375 42.703125 
Q 37.796875 48.390625 30.609375 48.390625 
z
M 30.609375 56 
Q 42.328125 56 49.015625 48.375 
Q 55.71875 40.765625 55.71875 27.296875 
Q 55.71875 13.875 49.015625 6.21875 
Q 42.328125 -1.421875 30.609375 -1.421875 
Q 18.84375 -1.421875 12.171875 6.21875 
Q 5.515625 13.875 5.515625 27.296875 
Q 5.515625 40.765625 12.171875 48.375 
Q 18.84375 56 30.609375 56 
z
" id="DejaVuSans-111"/>
      <path d="M 44.28125 53.078125 
L 44.28125 44.578125 
Q 40.484375 46.53125 36.375 47.5 
Q 32.28125 48.484375 27.875 48.484375 
Q 21.1875 48.484375 17.84375 46.4375 
Q 14.5 44.390625 14.5 40.28125 
Q 14.5 37.15625 16.890625 35.375 
Q 19.28125 33.59375 26.515625 31.984375 
L 29.59375 31.296875 
Q 39.15625 29.25 43.1875 25.515625 
Q 47.21875 21.78125 47.21875 15.09375 
Q 47.21875 7.46875 41.1875 3.015625 
Q 35.15625 -1.421875 24.609375 -1.421875 
Q 20.21875 -1.421875 15.453125 -0.5625 
Q 10.6875 0.296875 5.421875 2 
L 5.421875 11.28125 
Q 10.40625 8.6875 15.234375 7.390625 
Q 20.0625 6.109375 24.8125 6.109375 
Q 31.15625 6.109375 34.5625 8.28125 
Q 37.984375 10.453125 37.984375 14.40625 
Q 37.984375 18.0625 35.515625 20.015625 
Q 33.0625 21.96875 24.703125 23.78125 
L 21.578125 24.515625 
Q 13.234375 26.265625 9.515625 29.90625 
Q 5.8125 33.546875 5.8125 39.890625 
Q 5.8125 47.609375 11.28125 51.796875 
Q 16.75 56 26.8125 56 
Q 31.78125 56 36.171875 55.265625 
Q 40.578125 54.546875 44.28125 53.078125 
z
" id="DejaVuSans-115"/>
      <path d="M 9.421875 54.6875 
L 18.40625 54.6875 
L 18.40625 0 
L 9.421875 0 
z
M 9.421875 75.984375 
L 18.40625 75.984375 
L 18.40625 64.59375 
L 9.421875 64.59375 
z
" id="DejaVuSans-105"/>
      <path d="M 18.3125 70.21875 
L 18.3125 54.6875 
L 36.8125 54.6875 
L 36.8125 47.703125 
L 18.3125 47.703125 
L 18.3125 18.015625 
Q 18.3125 11.328125 20.140625 9.421875 
Q 21.96875 7.515625 27.59375 7.515625 
L 36.8125 7.515625 
L 36.8125 0 
L 27.59375 0 
Q 17.1875 0 13.234375 3.875 
Q 9.28125 7.765625 9.28125 18.015625 
L 9.28125 47.703125 
L 2.6875 47.703125 
L 2.6875 54.6875 
L 9.28125 54.6875 
L 9.28125 70.21875 
z
" id="DejaVuSans-116"/>
      <path d="M 54.890625 33.015625 
L 54.890625 0 
L 45.90625 0 
L 45.90625 32.71875 
Q 45.90625 40.484375 42.875 44.328125 
Q 39.84375 48.1875 33.796875 48.1875 
Q 26.515625 48.1875 22.3125 43.546875 
Q 18.109375 38.921875 18.109375 30.90625 
L 18.109375 0 
L 9.078125 0 
L 9.078125 54.6875 
L 18.109375 54.6875 
L 18.109375 46.1875 
Q 21.34375 51.125 25.703125 53.5625 
Q 30.078125 56 35.796875 56 
Q 45.21875 56 50.046875 50.171875 
Q 54.890625 44.34375 54.890625 33.015625 
z
" id="DejaVuSans-110"/>
      <path id="DejaVuSans-32"/>
      <path d="M 44.390625 34.1875 
Q 47.5625 33.109375 50.5625 29.59375 
Q 53.5625 26.078125 56.59375 19.921875 
L 66.609375 0 
L 56 0 
L 46.6875 18.703125 
Q 43.0625 26.03125 39.671875 28.421875 
Q 36.28125 30.8125 30.421875 30.8125 
L 19.671875 30.8125 
L 19.671875 0 
L 9.8125 0 
L 9.8125 72.90625 
L 32.078125 72.90625 
Q 44.578125 72.90625 50.734375 67.671875 
Q 56.890625 62.453125 56.890625 51.90625 
Q 56.890625 45.015625 53.6875 40.46875 
Q 50.484375 35.9375 44.390625 34.1875 
z
M 19.671875 64.796875 
L 19.671875 38.921875 
L 32.078125 38.921875 
Q 39.203125 38.921875 42.84375 42.21875 
Q 46.484375 45.515625 46.484375 51.90625 
Q 46.484375 58.296875 42.84375 61.546875 
Q 39.203125 64.796875 32.078125 64.796875 
z
" id="DejaVuSans-82"/>
      <path d="M 34.28125 27.484375 
Q 23.390625 27.484375 19.1875 25 
Q 14.984375 22.515625 14.984375 16.5 
Q 14.984375 11.71875 18.140625 8.90625 
Q 21.296875 6.109375 26.703125 6.109375 
Q 34.1875 6.109375 38.703125 11.40625 
Q 43.21875 16.703125 43.21875 25.484375 
L 43.21875 27.484375 
z
M 52.203125 31.203125 
L 52.203125 0 
L 43.21875 0 
L 43.21875 8.296875 
Q 40.140625 3.328125 35.546875 0.953125 
Q 30.953125 -1.421875 24.3125 -1.421875 
Q 15.921875 -1.421875 10.953125 3.296875 
Q 6 8.015625 6 15.921875 
Q 6 25.140625 12.171875 29.828125 
Q 18.359375 34.515625 30.609375 34.515625 
L 43.21875 34.515625 
L 43.21875 35.40625 
Q 43.21875 41.609375 39.140625 45 
Q 35.0625 48.390625 27.6875 48.390625 
Q 23 48.390625 18.546875 47.265625 
Q 14.109375 46.140625 10.015625 43.890625 
L 10.015625 52.203125 
Q 14.9375 54.109375 19.578125 55.046875 
Q 24.21875 56 28.609375 56 
Q 40.484375 56 46.34375 49.84375 
Q 52.203125 43.703125 52.203125 31.203125 
z
" id="DejaVuSans-97"/>
      <path d="M 45.40625 46.390625 
L 45.40625 75.984375 
L 54.390625 75.984375 
L 54.390625 0 
L 45.40625 0 
L 45.40625 8.203125 
Q 42.578125 3.328125 38.25 0.953125 
Q 33.9375 -1.421875 27.875 -1.421875 
Q 17.96875 -1.421875 11.734375 6.484375 
Q 5.515625 14.40625 5.515625 27.296875 
Q 5.515625 40.1875 11.734375 48.09375 
Q 17.96875 56 27.875 56 
Q 33.9375 56 38.25 53.625 
Q 42.578125 51.265625 45.40625 46.390625 
z
M 14.796875 27.296875 
Q 14.796875 17.390625 18.875 11.75 
Q 22.953125 6.109375 30.078125 6.109375 
Q 37.203125 6.109375 41.296875 11.75 
Q 45.40625 17.390625 45.40625 27.296875 
Q 45.40625 37.203125 41.296875 42.84375 
Q 37.203125 48.484375 30.078125 48.484375 
Q 22.953125 48.484375 18.875 42.84375 
Q 14.796875 37.203125 14.796875 27.296875 
z
" id="DejaVuSans-100"/>
     </defs>
     <g transform="translate(102.024844 357.832125)scale(0.3 -0.3)">
      <use xlink:href="#DejaVuSans-80"/>
      <use x="60.255859" xlink:href="#DejaVuSans-111"/>
      <use x="121.4375" xlink:href="#DejaVuSans-115"/>
      <use x="173.537109" xlink:href="#DejaVuSans-105"/>
      <use x="201.320312" xlink:href="#DejaVuSans-116"/>
      <use x="240.529297" xlink:href="#DejaVuSans-105"/>
      <use x="268.3125" xlink:href="#DejaVuSans-111"/>
      <use x="329.494141" xlink:href="#DejaVuSans-110"/>
      <use x="392.873047" xlink:href="#DejaVuSans-32"/>
      <use x="424.660156" xlink:href="#DejaVuSans-105"/>
      <use x="452.443359" xlink:href="#DejaVuSans-110"/>
      <use x="515.822266" xlink:href="#DejaVuSans-32"/>
      <use x="547.609375" xlink:href="#DejaVuSans-82"/>
      <use x="617.060547" xlink:href="#DejaVuSans-97"/>
      <use x="678.339844" xlink:href="#DejaVuSans-100"/>
      <use x="741.816406" xlink:href="#DejaVuSans-105"/>
      <use x="769.599609" xlink:href="#DejaVuSans-97"/>
      <use x="830.878906" xlink:href="#DejaVuSans-110"/>
     </g>
    </g>
   </g>
   <g id="matplotlib.axis_2">
    <g id="ytick_1">
     <g id="line2d_8">
      <defs>
       <path d="M 0 0 
L -3.5 0 
" id="m6e5df722da" style="stroke:#000000;stroke-width:0.8;"/>
      </defs>
      <g>
       <use style="stroke:#000000;stroke-width:0.8;" x="57.6" xlink:href="#m6e5df722da" y="307.584"/>
      </g>
     </g>
     <g id="text_9">
      <!-- 0.0 -->
      <defs>
       <path d="M 10.6875 12.40625 
L 21 12.40625 
L 21 0 
L 10.6875 0 
z
" id="DejaVuSans-46"/>
      </defs>
      <g transform="translate(23.564687 314.042672)scale(0.17 -0.17)">
       <use xlink:href="#DejaVuSans-48"/>
       <use x="63.623047" xlink:href="#DejaVuSans-46"/>
       <use x="95.410156" xlink:href="#DejaVuSans-48"/>
      </g>
     </g>
    </g>
    <g id="ytick_2">
     <g id="line2d_9">
      <g>
       <use style="stroke:#000000;stroke-width:0.8;" x="57.6" xlink:href="#m6e5df722da" y="269.028296"/>
      </g>
     </g>
     <g id="text_10">
      <!-- 0.2 -->
      <g transform="translate(23.564687 275.486968)scale(0.17 -0.17)">
       <use xlink:href="#DejaVuSans-48"/>
       <use x="63.623047" xlink:href="#DejaVuSans-46"/>
       <use x="95.410156" xlink:href="#DejaVuSans-50"/>
      </g>
     </g>
    </g>
    <g id="ytick_3">
     <g id="line2d_10">
      <g>
       <use style="stroke:#000000;stroke-width:0.8;" x="57.6" xlink:href="#m6e5df722da" y="230.472591"/>
      </g>
     </g>
     <g id="text_11">
      <!-- 0.4 -->
      <defs>
       <path d="M 37.796875 64.3125 
L 12.890625 25.390625 
L 37.796875 25.390625 
z
M 35.203125 72.90625 
L 47.609375 72.90625 
L 47.609375 25.390625 
L 58.015625 25.390625 
L 58.015625 17.1875 
L 47.609375 17.1875 
L 47.609375 0 
L 37.796875 0 
L 37.796875 17.1875 
L 4.890625 17.1875 
L 4.890625 26.703125 
z
" id="DejaVuSans-52"/>
      </defs>
      <g transform="translate(23.564687 236.931263)scale(0.17 -0.17)">
       <use xlink:href="#DejaVuSans-48"/>
       <use x="63.623047" xlink:href="#DejaVuSans-46"/>
       <use x="95.410156" xlink:href="#DejaVuSans-52"/>
      </g>
     </g>
    </g>
    <g id="ytick_4">
     <g id="line2d_11">
      <g>
       <use style="stroke:#000000;stroke-width:0.8;" x="57.6" xlink:href="#m6e5df722da" y="191.916887"/>
      </g>
     </g>
     <g id="text_12">
      <!-- 0.6 -->
      <defs>
       <path d="M 33.015625 40.375 
Q 26.375 40.375 22.484375 35.828125 
Q 18.609375 31.296875 18.609375 23.390625 
Q 18.609375 15.53125 22.484375 10.953125 
Q 26.375 6.390625 33.015625 6.390625 
Q 39.65625 6.390625 43.53125 10.953125 
Q 47.40625 15.53125 47.40625 23.390625 
Q 47.40625 31.296875 43.53125 35.828125 
Q 39.65625 40.375 33.015625 40.375 
z
M 52.59375 71.296875 
L 52.59375 62.3125 
Q 48.875 64.0625 45.09375 64.984375 
Q 41.3125 65.921875 37.59375 65.921875 
Q 27.828125 65.921875 22.671875 59.328125 
Q 17.53125 52.734375 16.796875 39.40625 
Q 19.671875 43.65625 24.015625 45.921875 
Q 28.375 48.1875 33.59375 48.1875 
Q 44.578125 48.1875 50.953125 41.515625 
Q 57.328125 34.859375 57.328125 23.390625 
Q 57.328125 12.15625 50.6875 5.359375 
Q 44.046875 -1.421875 33.015625 -1.421875 
Q 20.359375 -1.421875 13.671875 8.265625 
Q 6.984375 17.96875 6.984375 36.375 
Q 6.984375 53.65625 15.1875 63.9375 
Q 23.390625 74.21875 37.203125 74.21875 
Q 40.921875 74.21875 44.703125 73.484375 
Q 48.484375 72.75 52.59375 71.296875 
z
" id="DejaVuSans-54"/>
      </defs>
      <g transform="translate(23.564687 198.375559)scale(0.17 -0.17)">
       <use xlink:href="#DejaVuSans-48"/>
       <use x="63.623047" xlink:href="#DejaVuSans-46"/>
       <use x="95.410156" xlink:href="#DejaVuSans-54"/>
      </g>
     </g>
    </g>
    <g id="ytick_5">
     <g id="line2d_12">
      <g>
       <use style="stroke:#000000;stroke-width:0.8;" x="57.6" xlink:href="#m6e5df722da" y="153.361183"/>
      </g>
     </g>
     <g id="text_13">
      <!-- 0.8 -->
      <defs>
       <path d="M 31.78125 34.625 
Q 24.75 34.625 20.71875 30.859375 
Q 16.703125 27.09375 16.703125 20.515625 
Q 16.703125 13.921875 20.71875 10.15625 
Q 24.75 6.390625 31.78125 6.390625 
Q 38.8125 6.390625 42.859375 10.171875 
Q 46.921875 13.96875 46.921875 20.515625 
Q 46.921875 27.09375 42.890625 30.859375 
Q 38.875 34.625 31.78125 34.625 
z
M 21.921875 38.8125 
Q 15.578125 40.375 12.03125 44.71875 
Q 8.5 49.078125 8.5 55.328125 
Q 8.5 64.0625 14.71875 69.140625 
Q 20.953125 74.21875 31.78125 74.21875 
Q 42.671875 74.21875 48.875 69.140625 
Q 55.078125 64.0625 55.078125 55.328125 
Q 55.078125 49.078125 51.53125 44.71875 
Q 48 40.375 41.703125 38.8125 
Q 48.828125 37.15625 52.796875 32.3125 
Q 56.78125 27.484375 56.78125 20.515625 
Q 56.78125 9.90625 50.3125 4.234375 
Q 43.84375 -1.421875 31.78125 -1.421875 
Q 19.734375 -1.421875 13.25 4.234375 
Q 6.78125 9.90625 6.78125 20.515625 
Q 6.78125 27.484375 10.78125 32.3125 
Q 14.796875 37.15625 21.921875 38.8125 
z
M 18.3125 54.390625 
Q 18.3125 48.734375 21.84375 45.5625 
Q 25.390625 42.390625 31.78125 42.390625 
Q 38.140625 42.390625 41.71875 45.5625 
Q 45.3125 48.734375 45.3125 54.390625 
Q 45.3125 60.0625 41.71875 63.234375 
Q 38.140625 66.40625 31.78125 66.40625 
Q 25.390625 66.40625 21.84375 63.234375 
Q 18.3125 60.0625 18.3125 54.390625 
z
" id="DejaVuSans-56"/>
      </defs>
      <g transform="translate(23.564687 159.819855)scale(0.17 -0.17)">
       <use xlink:href="#DejaVuSans-48"/>
       <use x="63.623047" xlink:href="#DejaVuSans-46"/>
       <use x="95.410156" xlink:href="#DejaVuSans-56"/>
      </g>
     </g>
    </g>
    <g id="ytick_6">
     <g id="line2d_13">
      <g>
       <use style="stroke:#000000;stroke-width:0.8;" x="57.6" xlink:href="#m6e5df722da" y="114.805479"/>
      </g>
     </g>
     <g id="text_14">
      <!-- 1.0 -->
      <g transform="translate(23.564687 121.264151)scale(0.17 -0.17)">
       <use xlink:href="#DejaVuSans-49"/>
       <use x="63.623047" xlink:href="#DejaVuSans-46"/>
       <use x="95.410156" xlink:href="#DejaVuSans-48"/>
      </g>
     </g>
    </g>
    <g id="ytick_7">
     <g id="line2d_14">
      <g>
       <use style="stroke:#000000;stroke-width:0.8;" x="57.6" xlink:href="#m6e5df722da" y="76.249774"/>
      </g>
     </g>
     <g id="text_15">
      <!-- 1.2 -->
      <g transform="translate(23.564687 82.708446)scale(0.17 -0.17)">
       <use xlink:href="#DejaVuSans-49"/>
       <use x="63.623047" xlink:href="#DejaVuSans-46"/>
       <use x="95.410156" xlink:href="#DejaVuSans-50"/>
      </g>
     </g>
    </g>
    <g id="text_16">
     <!-- Density -->
     <defs>
      <path d="M 19.671875 64.796875 
L 19.671875 8.109375 
L 31.59375 8.109375 
Q 46.6875 8.109375 53.6875 14.9375 
Q 60.6875 21.78125 60.6875 36.53125 
Q 60.6875 51.171875 53.6875 57.984375 
Q 46.6875 64.796875 31.59375 64.796875 
z
M 9.8125 72.90625 
L 30.078125 72.90625 
Q 51.265625 72.90625 61.171875 64.09375 
Q 71.09375 55.28125 71.09375 36.53125 
Q 71.09375 17.671875 61.125 8.828125 
Q 51.171875 0 30.078125 0 
L 9.8125 0 
z
" id="DejaVuSans-68"/>
      <path d="M 56.203125 29.59375 
L 56.203125 25.203125 
L 14.890625 25.203125 
Q 15.484375 15.921875 20.484375 11.0625 
Q 25.484375 6.203125 34.421875 6.203125 
Q 39.59375 6.203125 44.453125 7.46875 
Q 49.3125 8.734375 54.109375 11.28125 
L 54.109375 2.78125 
Q 49.265625 0.734375 44.1875 -0.34375 
Q 39.109375 -1.421875 33.890625 -1.421875 
Q 20.796875 -1.421875 13.15625 6.1875 
Q 5.515625 13.8125 5.515625 26.8125 
Q 5.515625 40.234375 12.765625 48.109375 
Q 20.015625 56 32.328125 56 
Q 43.359375 56 49.78125 48.890625 
Q 56.203125 41.796875 56.203125 29.59375 
z
M 47.21875 32.234375 
Q 47.125 39.59375 43.09375 43.984375 
Q 39.0625 48.390625 32.421875 48.390625 
Q 24.90625 48.390625 20.390625 44.140625 
Q 15.875 39.890625 15.1875 32.171875 
z
" id="DejaVuSans-101"/>
      <path d="M 32.171875 -5.078125 
Q 28.375 -14.84375 24.75 -17.8125 
Q 21.140625 -20.796875 15.09375 -20.796875 
L 7.90625 -20.796875 
L 7.90625 -13.28125 
L 13.1875 -13.28125 
Q 16.890625 -13.28125 18.9375 -11.515625 
Q 21 -9.765625 23.484375 -3.21875 
L 25.09375 0.875 
L 2.984375 54.6875 
L 12.5 54.6875 
L 29.59375 11.921875 
L 46.6875 54.6875 
L 56.203125 54.6875 
z
" id="DejaVuSans-121"/>
     </defs>
     <g transform="translate(13.325625 231.553781)rotate(-90)scale(0.3 -0.3)">
      <use xlink:href="#DejaVuSans-68"/>
      <use x="77.001953" xlink:href="#DejaVuSans-101"/>
      <use x="138.525391" xlink:href="#DejaVuSans-110"/>
      <use x="201.904297" xlink:href="#DejaVuSans-115"/>
      <use x="254.003906" xlink:href="#DejaVuSans-105"/>
      <use x="281.787109" xlink:href="#DejaVuSans-116"/>
      <use x="320.996094" xlink:href="#DejaVuSans-121"/>
     </g>
    </g>
   </g>
   <g id="line2d_15">
    <path clip-path="url(#p7d835565b1)" d="M 103.362878 305.303232 
L 104.344607 303.91354 
L 104.717511 303.971426 
L 105.098026 304.225634 
L 105.410048 304.747432 
L 106.201519 306.222634 
L 106.429828 306.188179 
L 106.901666 305.775547 
L 107.228909 305.672578 
L 107.540931 305.833533 
L 108.119314 306.13734 
L 108.461777 306.025303 
L 108.903174 305.622592 
L 109.747917 304.789943 
L 110.014278 304.884771 
L 111.087329 305.527198 
L 111.779866 305.658322 
L 112.457183 305.831862 
L 113.461742 305.655482 
L 113.712882 305.304607 
L 114.093397 304.285481 
L 114.489132 303.448115 
L 114.664169 303.455393 
L 114.869647 303.766211 
L 115.425199 304.671003 
L 115.607846 304.570181 
L 115.957919 304.004154 
L 116.315603 303.619698 
L 116.612405 303.62343 
L 117.084243 303.626743 
L 117.601743 303.300727 
L 118.690016 302.673894 
L 119.519538 302.735225 
L 119.785899 302.249414 
L 120.189244 300.95625 
L 120.836119 298.958448 
L 121.026377 298.888393 
L 121.186193 299.109178 
L 121.444943 299.934014 
L 122.160311 302.361103 
L 122.38862 302.472243 
L 122.662591 302.306269 
L 123.111598 302.078551 
L 123.583437 301.93081 
L 123.811745 301.508718 
L 124.17704 300.24688 
L 124.587996 299.095898 
L 124.763033 299.072745 
L 124.938069 299.361154 
L 125.341415 300.627071 
L 125.699099 301.381936 
L 125.874136 301.382001 
L 126.072004 301.086573 
L 126.711269 299.97786 
L 126.871085 300.161044 
L 127.228769 301.05423 
L 127.51796 301.476086 
L 127.677776 301.399726 
L 127.913695 300.953193 
L 128.507299 299.801425 
L 128.758438 299.758358 
L 129.983696 300.204423 
L 130.34899 300.928691 
L 131.026307 302.187453 
L 131.482925 302.662055 
L 131.711233 302.625982 
L 131.954763 302.321862 
L 132.350498 301.400762 
L 134.724911 295.185948 
L 134.96083 295.262618 
L 135.250021 295.624863 
L 135.554433 296.404249 
L 135.934948 298.104535 
L 136.642706 301.24023 
L 136.909066 301.575915 
L 137.084103 301.491087 
L 137.320022 301.051222 
L 138.28653 298.922698 
L 138.743148 298.472001 
L 139.001898 297.742941 
L 139.382412 295.875643 
L 140.143442 292.163551 
L 140.409803 291.747659 
L 140.562008 291.82238 
L 140.759876 292.247455 
L 141.216494 293.9545 
L 141.597009 294.939005 
L 141.810097 295.026592 
L 141.992744 294.824614 
L 142.289546 294.083598 
L 142.89837 292.585847 
L 143.126678 292.497215 
L 143.332156 292.674798 
L 143.636568 293.297901 
L 144.542194 295.3391 
L 144.71723 295.29245 
L 144.915098 294.952479 
L 145.234731 293.84933 
L 145.698959 292.416682 
L 145.843554 292.429095 
L 146.010981 292.783679 
L 146.718738 294.772853 
L 146.7644 294.746577 
L 146.924216 294.456983 
L 147.198187 293.388334 
L 148.316901 288.452487 
L 148.537599 288.395099 
L 149.359511 288.51555 
L 149.732416 288.027058 
L 150.029218 287.799054 
L 150.189034 287.940727 
L 150.409732 288.52209 
L 151.36863 291.55411 
L 151.62738 291.551163 
L 152.563446 291.169801 
L 152.860248 290.457723 
L 153.918079 287.637805 
L 154.511682 285.993193 
L 155.265102 283.972463 
L 156.726279 281.5937 
L 157.01547 281.802291 
L 157.898264 282.701329 
L 158.377713 284.273925 
L 158.81911 285.354629 
L 159.039809 285.456442 
L 159.214846 285.260669 
L 159.481206 284.532638 
L 160.09764 282.788632 
L 160.303118 282.747917 
L 160.851059 282.882207 
L 161.033707 282.406119 
L 161.315287 280.910786 
L 162.068707 276.62194 
L 162.182861 276.57432 
L 162.213303 276.604433 
L 162.350288 276.970455 
L 162.578597 278.378413 
L 163.621207 285.954782 
L 163.879957 286.183564 
L 164.146318 286.134685 
L 164.443119 285.829814 
L 165.013892 285.204835 
L 165.523782 284.991196 
L 165.805363 284.361996 
L 166.277201 283.381842 
L 166.52073 283.335049 
L 166.809922 283.280744 
L 166.977348 282.942902 
L 167.198047 281.882113 
L 167.52529 278.988719 
L 168.141724 273.623285 
L 168.30915 273.339957 
L 168.331981 273.352289 
L 168.446135 273.585215 
L 168.659224 274.659568 
L 169.229996 279.171207 
L 169.663783 281.636027 
L 169.907312 282.045876 
L 170.051908 281.963777 
L 170.310658 281.456391 
L 170.812938 280.550201 
L 171.338048 279.909471 
L 171.589188 278.92827 
L 172.456762 274.83894 
L 172.479593 274.848839 
L 172.608968 275.060624 
L 172.852497 276.005147 
L 173.400439 278.098232 
L 173.583086 278.154765 
L 173.780953 277.893992 
L 174.131027 277.49951 
L 174.275623 277.658288 
L 174.496321 278.342035 
L 175.135586 280.489584 
L 175.295402 280.464362 
L 175.508491 280.108503 
L 175.919447 279.472025 
L 176.056432 279.580546 
L 176.24669 280.099945 
L 177.053381 282.960156 
L 177.099043 282.931178 
L 177.258859 282.620883 
L 177.616543 281.259975 
L 178.019889 280.088734 
L 178.286249 279.886567 
L 178.605882 279.689489 
L 178.82658 279.185419 
L 179.800698 276.473669 
L 180.980294 275.283546 
L 181.246654 274.101716 
L 182.365368 268.284 
L 182.981802 267.152028 
L 183.301435 265.586265 
L 184.153788 261.073637 
L 184.260332 261.156428 
L 184.420148 261.699783 
L 184.815884 264.163138 
L 185.143126 265.440023 
L 185.325773 265.519664 
L 185.523641 265.28272 
L 185.919377 264.399495 
L 186.246619 263.091722 
L 187.083752 259.353537 
L 187.235958 259.372769 
L 187.418605 259.730896 
L 188.042649 261.321902 
L 188.088311 261.28645 
L 188.225297 260.955917 
L 188.468826 259.627611 
L 188.978716 256.884678 
L 189.062429 256.875083 
L 189.09287 256.914409 
L 189.229856 257.359948 
L 189.503826 259.206037 
L 189.990885 262.211618 
L 190.181143 262.43217 
L 190.188753 262.428737 
L 190.325738 262.226727 
L 190.569268 261.349593 
L 190.995445 258.830593 
L 191.741254 254.404378 
L 191.984783 254.075889 
L 192.175041 254.152744 
L 192.547945 254.626169 
L 192.966511 255.485519 
L 193.461181 256.471532 
L 193.582945 256.360267 
L 193.750372 255.784596 
L 194.009122 253.918391 
L 195.006071 245.77891 
L 195.576843 243.698955 
L 195.812762 243.442568 
L 195.957358 243.596675 
L 196.216108 244.328468 
L 196.53574 245.019959 
L 196.642285 244.901488 
L 196.802101 244.240509 
L 197.076072 241.898966 
L 197.662064 236.909797 
L 197.890373 236.46909 
L 198.06541 236.532332 
L 198.423094 236.677064 
L 198.643793 236.457491 
L 199.024308 235.701145 
L 199.305888 234.634277 
L 199.625521 232.347284 
L 200.241955 227.894912 
L 200.37133 227.756824 
L 200.401771 227.781784 
L 200.523536 228.105501 
L 200.721404 229.39127 
L 201.041036 233.211596 
L 201.703132 241.231631 
L 201.855338 241.570685 
L 201.885779 241.551739 
L 201.999934 241.251336 
L 202.228242 239.846704 
L 202.913169 235.460133 
L 203.407838 233.098804 
L 204.343905 227.35152 
L 204.46567 227.443031 
L 204.678758 227.987707 
L 205.782251 231.926185 
L 206.322582 236.806647 
L 206.642214 238.509433 
L 206.741148 238.583915 
L 206.7792 238.549227 
L 206.908575 238.172471 
L 207.136884 236.665395 
L 207.768538 232.236897 
L 207.852252 232.216937 
L 207.882693 232.252748 
L 208.027288 232.691547 
L 208.658943 235.129557 
L 208.689384 235.115179 
L 208.82637 234.878519 
L 209.138392 233.738932 
L 209.731995 231.793259 
L 210.12773 230.404456 
L 210.409311 228.420902 
L 210.850709 223.269124 
L 211.193172 220.495717 
L 211.261665 220.431278 
L 211.307326 220.502763 
L 211.429091 221.147528 
L 211.64979 223.807736 
L 212.380378 233.42499 
L 212.471702 233.540781 
L 212.517364 233.491481 
L 212.646739 233.020607 
L 212.94354 230.826065 
L 213.491481 227.144916 
L 213.864386 226.03346 
L 214.267732 225.501428 
L 214.587364 225.00021 
L 214.838504 224.088355 
L 215.165747 221.90889 
L 215.980048 216.161758 
L 216.200747 215.887601 
L 216.360563 216.015048 
L 216.634534 216.594161 
L 216.961777 217.801136 
L 217.266189 219.906173 
L 218.194645 227.240423 
L 218.293579 227.127661 
L 218.483836 226.448636 
L 218.993726 224.610079 
L 219.244866 224.484942 
L 219.412292 224.304066 
L 219.579719 223.703676 
L 219.808028 221.9001 
L 220.203763 216.544181 
L 220.858249 208.290411 
L 221.208322 206.261208 
L 221.39858 206.006406 
L 221.40619 206.00957 
L 221.527955 206.200253 
L 221.725822 207.038696 
L 222.098727 209.824719 
L 222.791264 214.748468 
L 223.057624 215.42618 
L 223.164169 215.335153 
L 223.308764 214.789116 
L 223.537073 212.863065 
L 223.955639 206.926865 
L 224.412257 201.653647 
L 224.617735 201.085793 
L 224.716669 201.231786 
L 224.906926 202.063406 
L 226.292 209.362861 
L 226.413765 209.43664 
L 226.444206 209.405863 
L 226.573581 209.02838 
L 226.779059 207.591915 
L 227.631413 200.323765 
L 227.661854 200.337594 
L 227.776008 200.595757 
L 228.004317 201.835279 
L 228.704465 205.830215 
L 228.932773 206.127441 
L 229.054538 205.984591 
L 229.221965 205.327919 
L 229.442663 203.385757 
L 229.747075 198.341146 
L 230.530936 184.309446 
L 230.584208 184.246929 
L 230.62987 184.335139 
L 230.744024 185.114778 
L 230.964723 188.5445 
L 231.794245 202.968129 
L 232.014944 203.677601 
L 232.098657 203.545742 
L 232.235642 202.789747 
L 232.44112 200.208292 
L 232.768363 192.724053 
L 233.263032 182.435227 
L 233.415238 181.789747 
L 233.445679 181.821487 
L 233.552224 182.289088 
L 233.795753 184.70924 
L 235.043842 198.174446 
L 235.081893 198.230553 
L 235.127555 198.131575 
L 235.226489 197.129805 
L 235.378695 192.710888 
L 235.584173 178.987243 
L 235.873364 141.676626 
L 236.520239 54.703504 
L 236.565901 54.144 
L 236.619173 54.888551 
L 236.733328 61.362456 
L 236.961636 90.224859 
L 237.699835 190.52146 
L 237.973806 201.169943 
L 238.103181 202.128555 
L 238.141232 202.046096 
L 238.247777 201.12448 
L 238.491306 196.539845 
L 239.221895 182.293871 
L 239.526306 180.058895 
L 239.61002 179.950256 
L 239.655681 180.002735 
L 239.769836 180.523198 
L 239.952483 182.675907 
L 240.226454 189.10682 
L 241.139689 213.025219 
L 241.269064 213.436974 
L 241.307116 213.388851 
L 241.42127 212.840885 
L 241.657189 210.31763 
L 242.266013 203.749659 
L 242.517153 203.061918 
L 242.730241 203.006203 
L 243.095536 203.182777 
L 243.308624 203.576412 
L 243.582595 204.66713 
L 244.100095 206.677625 
L 244.252301 206.687059 
L 244.434948 206.355161 
L 245.058992 205.081887 
L 245.234029 205.13265 
L 245.431897 205.474175 
L 245.736308 206.534757 
L 246.839802 211.617582 
L 247.425794 215.876592 
L 247.494287 215.878529 
L 247.524728 215.832826 
L 247.661714 215.304693 
L 248.285758 211.718551 
L 248.377081 211.874336 
L 248.529287 212.761135 
L 248.795648 215.931933 
L 249.564288 225.749147 
L 249.746935 226.139922 
L 249.762155 226.135134 
L 249.87631 225.955973 
L 250.195942 224.827691 
L 250.447082 224.36804 
L 250.561237 224.487983 
L 250.736273 225.10907 
L 251.040685 227.191013 
L 251.93109 233.653557 
L 252.205061 234.196295 
L 252.547524 234.3336 
L 252.821495 234.593485 
L 253.415098 235.228308 
L 253.742341 235.425115 
L 253.917377 235.919879 
L 254.138076 237.350073 
L 254.442488 241.061554 
L 255.233959 251.343655 
L 255.386165 251.620908 
L 255.408996 251.606718 
L 255.52315 251.352292 
L 255.759069 250.128349 
L 256.170025 246.709694 
L 256.565761 241.33725 
L 257.098481 234.456129 
L 257.189805 234.256681 
L 257.235467 234.319573 
L 257.349621 234.957188 
L 257.56271 237.779529 
L 258.293298 248.584285 
L 258.35418 248.63372 
L 258.399842 248.560202 
L 258.529217 247.892794 
L 258.818408 244.858213 
L 259.275026 240.743539 
L 259.533776 240.056352 
L 260.028446 239.308742 
L 260.606828 237.885428 
L 260.629659 237.897453 
L 260.759034 238.134873 
L 260.972122 239.11841 
L 261.657049 242.597828 
L 261.786424 242.538264 
L 262.014733 242.024704 
L 262.273483 241.654865 
L 262.387638 241.822707 
L 262.562674 242.6161 
L 262.851866 245.206759 
L 263.635726 252.61321 
L 263.780322 252.818987 
L 263.810763 252.796271 
L 263.932528 252.491366 
L 264.168447 251.139603 
L 264.914256 246.576111 
L 265.081683 246.4027 
L 265.096903 246.412493 
L 265.218668 246.663985 
L 265.408925 247.711208 
L 265.736168 251.074475 
L 266.314551 256.679769 
L 266.588521 257.53398 
L 266.771168 257.585959 
L 266.953816 257.360962 
L 267.204955 256.64557 
L 267.516978 254.978997 
L 268.483485 249.133877 
L 268.60525 249.197849 
L 268.772677 249.669995 
L 269.084699 251.388977 
L 269.929442 256.167595 
L 270.363229 257.53709 
L 270.568707 257.664121 
L 270.736133 257.481107 
L 271.017714 256.755014 
L 272.136428 253.535065 
L 272.349516 253.582283 
L 272.760472 253.997967 
L 273.620435 254.841986 
L 273.879186 254.624105 
L 274.145546 254.498576 
L 274.297752 254.692746 
L 274.541281 255.467891 
L 274.952237 256.660551 
L 275.058782 256.583638 
L 275.210987 256.07597 
L 275.477348 254.229986 
L 276.29165 248.190325 
L 276.451466 247.987488 
L 276.474297 248.000752 
L 276.596061 248.257975 
L 276.793929 249.330634 
L 277.151613 252.777771 
L 277.729996 257.950326 
L 278.080069 259.210459 
L 278.635621 260.955802 
L 278.985695 261.777329 
L 279.13029 261.74662 
L 279.297717 261.387821 
L 279.556467 260.201807 
L 279.967423 257.092541 
L 280.65996 251.962002 
L 280.857828 251.618086 
L 280.865438 251.620273 
L 280.971982 251.775904 
L 281.147019 252.525296 
L 281.474262 255.136366 
L 281.95371 258.538675 
L 282.121137 258.788231 
L 282.143968 258.776699 
L 282.265733 258.543449 
L 282.486431 257.511641 
L 283.384446 252.716597 
L 283.49099 252.815503 
L 283.658417 253.390263 
L 283.962829 255.422161 
L 284.853233 261.654392 
L 285.949116 266.998825 
L 286.489447 269.757149 
L 286.854741 270.611226 
L 287.090661 270.733381 
L 287.273308 270.556994 
L 287.59294 269.823034 
L 287.904962 269.340789 
L 288.041948 269.446358 
L 288.232205 269.967913 
L 288.62033 271.86747 
L 289.434632 276.976038 
L 289.974963 279.98218 
L 290.188051 280.258607 
L 290.309816 280.090815 
L 290.522904 279.297067 
L 291.124118 276.893497 
L 291.238272 276.962566 
L 291.413309 277.455334 
L 292.113456 279.752388 
L 292.265662 279.658308 
L 292.532023 279.130646 
L 293.23978 277.105486 
L 293.802942 275.673835 
L 294.640075 274.124057 
L 295.256509 272.79381 
L 295.492428 272.71427 
L 295.728347 272.912756 
L 296.177355 273.292473 
L 296.405664 273.151477 
L 296.702465 273.013148 
L 296.847061 273.225336 
L 297.052539 274.021668 
L 297.425443 276.611803 
L 298.011436 280.308479 
L 298.262576 280.802702 
L 298.384341 280.708744 
L 298.566988 280.182901 
L 299.236694 277.895354 
L 299.251915 277.900103 
L 299.38129 278.078036 
L 299.617209 278.900313 
L 300.743533 283.386311 
L 300.979452 283.5859 
L 301.154489 283.446523 
L 301.466511 282.807084 
L 301.885077 282.108269 
L 302.067724 282.132028 
L 302.265592 282.439799 
L 302.554783 283.378674 
L 302.97335 285.600654 
L 303.764821 289.906112 
L 303.894196 289.957711 
L 303.917027 289.937238 
L 304.061622 289.616751 
L 304.366034 288.23139 
L 304.77699 286.711528 
L 304.967247 286.613548 
L 305.157505 286.823207 
L 305.766329 287.595756 
L 306.451255 287.884579 
L 306.732836 288.664419 
L 307.34166 290.365118 
L 307.699344 290.661066 
L 308.391881 290.970295 
L 308.566918 290.655707 
L 308.802837 289.684768 
L 309.624749 285.551447 
L 309.662801 285.572772 
L 309.792176 285.85876 
L 310.035705 287.106793 
L 310.614088 290.091048 
L 310.811955 290.246461 
L 310.986992 290.076986 
L 311.595816 288.967381 
L 312.227471 287.990081 
L 312.410118 288.054602 
L 312.72975 288.502475 
L 313.003721 288.706543 
L 313.163537 288.562703 
L 313.384236 287.994501 
L 313.795192 286.153933 
L 314.244199 284.508172 
L 314.426846 284.419876 
L 314.579052 284.66003 
L 314.845413 285.612188 
L 315.674935 288.79666 
L 316.466406 290.90464 
L 317.174163 293.07681 
L 317.417693 293.241952 
L 317.60034 293.105136 
L 317.881921 292.544761 
L 318.36898 291.627039 
L 318.505965 291.710311 
L 318.673392 292.158783 
L 318.939752 293.647037 
L 319.685561 298.120412 
L 319.837767 298.200768 
L 319.852988 298.18998 
L 320.005194 297.921778 
L 320.324826 296.763085 
L 320.857547 295.038237 
L 321.268503 294.482772 
L 321.770783 294.085351 
L 321.945819 294.232061 
L 322.181739 294.799493 
L 322.782952 296.321869 
L 322.99604 296.333879 
L 324.78446 295.614354 
L 325.088872 295.951397 
L 325.796629 297.154121 
L 326.154313 298.276529 
L 326.816409 300.434988 
L 326.968615 300.400963 
L 327.158873 300.01788 
L 328.757035 295.831177 
L 328.916851 295.960237 
L 329.15277 296.515148 
L 330.545455 300.437235 
L 330.971631 300.90205 
L 331.359756 301.011521 
L 332.23494 300.910163 
L 332.661117 300.682545 
L 333.178617 300.097349 
L 333.521081 299.856176 
L 333.703728 299.971476 
L 333.932037 300.43341 
L 334.449537 302.185285 
L 334.875713 303.186272 
L 335.233397 303.508046 
L 335.613912 303.570785 
L 335.903103 303.391966 
L 336.702185 302.705814 
L 336.907663 303.057977 
L 337.333839 304.391793 
L 337.706744 305.206802 
L 337.927442 305.271998 
L 338.155751 305.065858 
L 339.198362 303.833824 
L 339.540825 304.070517 
L 339.799575 304.116727 
L 339.982222 303.880397 
L 340.248583 303.076452 
L 340.826965 301.296498 
L 340.979171 301.316966 
L 341.154208 301.658137 
L 341.519502 303.009184 
L 341.953289 304.289482 
L 342.166378 304.394123 
L 342.349025 304.198026 
L 342.767591 303.277712 
L 343.094834 302.837887 
L 343.315532 302.861255 
L 343.977628 303.122513 
L 344.28965 302.773034 
L 344.670165 302.452545 
L 344.898474 302.538906 
L 345.355092 303.056873 
L 345.963916 303.58109 
L 346.686894 304.173933 
L 347.531637 305.231665 
L 347.737115 304.957524 
L 348.520975 303.672691 
L 348.711233 303.88167 
L 349.068917 304.709259 
L 349.616858 305.818926 
L 349.944101 306.042316 
L 350.218072 305.96702 
L 350.598586 305.578868 
L 351.625976 304.114024 
L 351.98366 303.789956 
L 352.204359 303.862216 
L 352.630536 304.352555 
L 352.942558 304.515683 
L 353.787301 304.637077 
L 355.5605 305.837214 
L 355.902963 305.671367 
L 356.397632 305.474327 
L 356.747706 305.602562 
L 357.288037 306.088126 
L 357.744655 306.386911 
L 358.003405 306.294624 
L 358.406751 305.836549 
L 358.840538 305.477812 
L 359.213442 305.465724 
L 359.746163 305.683356 
L 360.682229 306.170073 
L 361.039913 305.945792 
L 361.625906 305.601534 
L 362.029252 305.65786 
L 362.683737 305.752642 
L 363.893775 305.601861 
L 365.864841 306.42891 
L 366.252967 306.570242 
L 366.572599 306.429415 
L 367.348849 306.002787 
L 367.912011 305.815543 
L 368.779585 305.265654 
L 369.631938 305.547987 
L 369.715652 305.471508 
L 369.715652 305.471508 
" style="fill:none;stroke:#ff7f0e;stroke-linecap:square;stroke-width:1.5;"/>
   </g>
   <g id="patch_103">
    <path d="M 57.6 307.584 
L 57.6 41.472 
" style="fill:none;stroke:#000000;stroke-linecap:square;stroke-linejoin:miter;stroke-width:0.8;"/>
   </g>
   <g id="patch_104">
    <path d="M 414.72 307.584 
L 414.72 41.472 
" style="fill:none;stroke:#000000;stroke-linecap:square;stroke-linejoin:miter;stroke-width:0.8;"/>
   </g>
   <g id="patch_105">
    <path d="M 57.6 307.584 
L 414.72 307.584 
" style="fill:none;stroke:#000000;stroke-linecap:square;stroke-linejoin:miter;stroke-width:0.8;"/>
   </g>
   <g id="patch_106">
    <path d="M 57.6 41.472 
L 414.72 41.472 
" style="fill:none;stroke:#000000;stroke-linecap:square;stroke-linejoin:miter;stroke-width:0.8;"/>
   </g>
  </g>
 </g>
 <defs>
  <clipPath id="p7d835565b1">
   <rect height="266.112" width="357.12" x="57.6" y="41.472"/>
  </clipPath>
 </defs>
</svg>
